<?xml version="1.0" encoding="utf-8" standalone="no"?>
<!DOCTYPE svg PUBLIC "-//W3C//DTD SVG 1.1//EN"
  "http://www.w3.org/Graphics/SVG/1.1/DTD/svg11.dtd">
<!-- Created with matplotlib (https://matplotlib.org/) -->
<svg height="345.6pt" version="1.1" viewBox="0 0 460.8 345.6" width="460.8pt" xmlns="http://www.w3.org/2000/svg" xmlns:xlink="http://www.w3.org/1999/xlink">
 <defs>
  <style type="text/css">
*{stroke-linecap:butt;stroke-linejoin:round;}
  </style>
 </defs>
 <g id="figure_1">
  <g id="patch_1">
   <path d="M 0 345.6 
L 460.8 345.6 
L 460.8 0 
L 0 0 
z
" style="fill:#ffffff;"/>
  </g>
  <g id="axes_1">
   <g id="patch_2">
    <path d="M 57.6 307.584 
L 414.72 307.584 
L 414.72 41.472 
L 57.6 41.472 
z
" style="fill:#ffffff;"/>
   </g>
   <g id="matplotlib.axis_1">
    <g id="xtick_1">
     <g id="line2d_1">
      <defs>
       <path d="M 0 0 
L 0 3.5 
" id="m0e7bf12d4c" style="stroke:#000000;stroke-width:0.8;"/>
      </defs>
      <g>
       <use style="stroke:#000000;stroke-width:0.8;" x="73.832727" xlink:href="#m0e7bf12d4c" y="307.584"/>
      </g>
     </g>
     <g id="text_1">
      <!-- 0 -->
      <defs>
       <path d="M 31.78125 66.40625 
Q 24.171875 66.40625 20.328125 58.90625 
Q 16.5 51.421875 16.5 36.375 
Q 16.5 21.390625 20.328125 13.890625 
Q 24.171875 6.390625 31.78125 6.390625 
Q 39.453125 6.390625 43.28125 13.890625 
Q 47.125 21.390625 47.125 36.375 
Q 47.125 51.421875 43.28125 58.90625 
Q 39.453125 66.40625 31.78125 66.40625 
z
M 31.78125 74.21875 
Q 44.046875 74.21875 50.515625 64.515625 
Q 56.984375 54.828125 56.984375 36.375 
Q 56.984375 17.96875 50.515625 8.265625 
Q 44.046875 -1.421875 31.78125 -1.421875 
Q 19.53125 -1.421875 13.0625 8.265625 
Q 6.59375 17.96875 6.59375 36.375 
Q 6.59375 54.828125 13.0625 64.515625 
Q 19.53125 74.21875 31.78125 74.21875 
z
" id="DejaVuSans-48"/>
      </defs>
      <g transform="translate(70.651477 322.182437)scale(0.1 -0.1)">
       <use xlink:href="#DejaVuSans-48"/>
      </g>
     </g>
    </g>
    <g id="xtick_2">
     <g id="line2d_2">
      <g>
       <use style="stroke:#000000;stroke-width:0.8;" x="120.2451" xlink:href="#m0e7bf12d4c" y="307.584"/>
      </g>
     </g>
     <g id="text_2">
      <!-- 200 -->
      <defs>
       <path d="M 19.1875 8.296875 
L 53.609375 8.296875 
L 53.609375 0 
L 7.328125 0 
L 7.328125 8.296875 
Q 12.9375 14.109375 22.625 23.890625 
Q 32.328125 33.6875 34.8125 36.53125 
Q 39.546875 41.84375 41.421875 45.53125 
Q 43.3125 49.21875 43.3125 52.78125 
Q 43.3125 58.59375 39.234375 62.25 
Q 35.15625 65.921875 28.609375 65.921875 
Q 23.96875 65.921875 18.8125 64.3125 
Q 13.671875 62.703125 7.8125 59.421875 
L 7.8125 69.390625 
Q 13.765625 71.78125 18.9375 73 
Q 24.125 74.21875 28.421875 74.21875 
Q 39.75 74.21875 46.484375 68.546875 
Q 53.21875 62.890625 53.21875 53.421875 
Q 53.21875 48.921875 51.53125 44.890625 
Q 49.859375 40.875 45.40625 35.40625 
Q 44.1875 33.984375 37.640625 27.21875 
Q 31.109375 20.453125 19.1875 8.296875 
z
" id="DejaVuSans-50"/>
      </defs>
      <g transform="translate(110.70135 322.182437)scale(0.1 -0.1)">
       <use xlink:href="#DejaVuSans-50"/>
       <use x="63.623047" xlink:href="#DejaVuSans-48"/>
       <use x="127.246094" xlink:href="#DejaVuSans-48"/>
      </g>
     </g>
    </g>
    <g id="xtick_3">
     <g id="line2d_3">
      <g>
       <use style="stroke:#000000;stroke-width:0.8;" x="166.657472" xlink:href="#m0e7bf12d4c" y="307.584"/>
      </g>
     </g>
     <g id="text_3">
      <!-- 400 -->
      <defs>
       <path d="M 37.796875 64.3125 
L 12.890625 25.390625 
L 37.796875 25.390625 
z
M 35.203125 72.90625 
L 47.609375 72.90625 
L 47.609375 25.390625 
L 58.015625 25.390625 
L 58.015625 17.1875 
L 47.609375 17.1875 
L 47.609375 0 
L 37.796875 0 
L 37.796875 17.1875 
L 4.890625 17.1875 
L 4.890625 26.703125 
z
" id="DejaVuSans-52"/>
      </defs>
      <g transform="translate(157.113722 322.182437)scale(0.1 -0.1)">
       <use xlink:href="#DejaVuSans-52"/>
       <use x="63.623047" xlink:href="#DejaVuSans-48"/>
       <use x="127.246094" xlink:href="#DejaVuSans-48"/>
      </g>
     </g>
    </g>
    <g id="xtick_4">
     <g id="line2d_4">
      <g>
       <use style="stroke:#000000;stroke-width:0.8;" x="213.069845" xlink:href="#m0e7bf12d4c" y="307.584"/>
      </g>
     </g>
     <g id="text_4">
      <!-- 600 -->
      <defs>
       <path d="M 33.015625 40.375 
Q 26.375 40.375 22.484375 35.828125 
Q 18.609375 31.296875 18.609375 23.390625 
Q 18.609375 15.53125 22.484375 10.953125 
Q 26.375 6.390625 33.015625 6.390625 
Q 39.65625 6.390625 43.53125 10.953125 
Q 47.40625 15.53125 47.40625 23.390625 
Q 47.40625 31.296875 43.53125 35.828125 
Q 39.65625 40.375 33.015625 40.375 
z
M 52.59375 71.296875 
L 52.59375 62.3125 
Q 48.875 64.0625 45.09375 64.984375 
Q 41.3125 65.921875 37.59375 65.921875 
Q 27.828125 65.921875 22.671875 59.328125 
Q 17.53125 52.734375 16.796875 39.40625 
Q 19.671875 43.65625 24.015625 45.921875 
Q 28.375 48.1875 33.59375 48.1875 
Q 44.578125 48.1875 50.953125 41.515625 
Q 57.328125 34.859375 57.328125 23.390625 
Q 57.328125 12.15625 50.6875 5.359375 
Q 44.046875 -1.421875 33.015625 -1.421875 
Q 20.359375 -1.421875 13.671875 8.265625 
Q 6.984375 17.96875 6.984375 36.375 
Q 6.984375 53.65625 15.1875 63.9375 
Q 23.390625 74.21875 37.203125 74.21875 
Q 40.921875 74.21875 44.703125 73.484375 
Q 48.484375 72.75 52.59375 71.296875 
z
" id="DejaVuSans-54"/>
      </defs>
      <g transform="translate(203.526095 322.182437)scale(0.1 -0.1)">
       <use xlink:href="#DejaVuSans-54"/>
       <use x="63.623047" xlink:href="#DejaVuSans-48"/>
       <use x="127.246094" xlink:href="#DejaVuSans-48"/>
      </g>
     </g>
    </g>
    <g id="xtick_5">
     <g id="line2d_5">
      <g>
       <use style="stroke:#000000;stroke-width:0.8;" x="259.482217" xlink:href="#m0e7bf12d4c" y="307.584"/>
      </g>
     </g>
     <g id="text_5">
      <!-- 800 -->
      <defs>
       <path d="M 31.78125 34.625 
Q 24.75 34.625 20.71875 30.859375 
Q 16.703125 27.09375 16.703125 20.515625 
Q 16.703125 13.921875 20.71875 10.15625 
Q 24.75 6.390625 31.78125 6.390625 
Q 38.8125 6.390625 42.859375 10.171875 
Q 46.921875 13.96875 46.921875 20.515625 
Q 46.921875 27.09375 42.890625 30.859375 
Q 38.875 34.625 31.78125 34.625 
z
M 21.921875 38.8125 
Q 15.578125 40.375 12.03125 44.71875 
Q 8.5 49.078125 8.5 55.328125 
Q 8.5 64.0625 14.71875 69.140625 
Q 20.953125 74.21875 31.78125 74.21875 
Q 42.671875 74.21875 48.875 69.140625 
Q 55.078125 64.0625 55.078125 55.328125 
Q 55.078125 49.078125 51.53125 44.71875 
Q 48 40.375 41.703125 38.8125 
Q 48.828125 37.15625 52.796875 32.3125 
Q 56.78125 27.484375 56.78125 20.515625 
Q 56.78125 9.90625 50.3125 4.234375 
Q 43.84375 -1.421875 31.78125 -1.421875 
Q 19.734375 -1.421875 13.25 4.234375 
Q 6.78125 9.90625 6.78125 20.515625 
Q 6.78125 27.484375 10.78125 32.3125 
Q 14.796875 37.15625 21.921875 38.8125 
z
M 18.3125 54.390625 
Q 18.3125 48.734375 21.84375 45.5625 
Q 25.390625 42.390625 31.78125 42.390625 
Q 38.140625 42.390625 41.71875 45.5625 
Q 45.3125 48.734375 45.3125 54.390625 
Q 45.3125 60.0625 41.71875 63.234375 
Q 38.140625 66.40625 31.78125 66.40625 
Q 25.390625 66.40625 21.84375 63.234375 
Q 18.3125 60.0625 18.3125 54.390625 
z
" id="DejaVuSans-56"/>
      </defs>
      <g transform="translate(249.938467 322.182437)scale(0.1 -0.1)">
       <use xlink:href="#DejaVuSans-56"/>
       <use x="63.623047" xlink:href="#DejaVuSans-48"/>
       <use x="127.246094" xlink:href="#DejaVuSans-48"/>
      </g>
     </g>
    </g>
    <g id="xtick_6">
     <g id="line2d_6">
      <g>
       <use style="stroke:#000000;stroke-width:0.8;" x="305.89459" xlink:href="#m0e7bf12d4c" y="307.584"/>
      </g>
     </g>
     <g id="text_6">
      <!-- 1000 -->
      <defs>
       <path d="M 12.40625 8.296875 
L 28.515625 8.296875 
L 28.515625 63.921875 
L 10.984375 60.40625 
L 10.984375 69.390625 
L 28.421875 72.90625 
L 38.28125 72.90625 
L 38.28125 8.296875 
L 54.390625 8.296875 
L 54.390625 0 
L 12.40625 0 
z
" id="DejaVuSans-49"/>
      </defs>
      <g transform="translate(293.16959 322.182437)scale(0.1 -0.1)">
       <use xlink:href="#DejaVuSans-49"/>
       <use x="63.623047" xlink:href="#DejaVuSans-48"/>
       <use x="127.246094" xlink:href="#DejaVuSans-48"/>
       <use x="190.869141" xlink:href="#DejaVuSans-48"/>
      </g>
     </g>
    </g>
    <g id="xtick_7">
     <g id="line2d_7">
      <g>
       <use style="stroke:#000000;stroke-width:0.8;" x="352.306962" xlink:href="#m0e7bf12d4c" y="307.584"/>
      </g>
     </g>
     <g id="text_7">
      <!-- 1200 -->
      <g transform="translate(339.581962 322.182437)scale(0.1 -0.1)">
       <use xlink:href="#DejaVuSans-49"/>
       <use x="63.623047" xlink:href="#DejaVuSans-50"/>
       <use x="127.246094" xlink:href="#DejaVuSans-48"/>
       <use x="190.869141" xlink:href="#DejaVuSans-48"/>
      </g>
     </g>
    </g>
    <g id="xtick_8">
     <g id="line2d_8">
      <g>
       <use style="stroke:#000000;stroke-width:0.8;" x="398.719335" xlink:href="#m0e7bf12d4c" y="307.584"/>
      </g>
     </g>
     <g id="text_8">
      <!-- 1400 -->
      <g transform="translate(385.994335 322.182437)scale(0.1 -0.1)">
       <use xlink:href="#DejaVuSans-49"/>
       <use x="63.623047" xlink:href="#DejaVuSans-52"/>
       <use x="127.246094" xlink:href="#DejaVuSans-48"/>
       <use x="190.869141" xlink:href="#DejaVuSans-48"/>
      </g>
     </g>
    </g>
   </g>
   <g id="matplotlib.axis_2">
    <g id="ytick_1">
     <g id="line2d_9">
      <defs>
       <path d="M 0 0 
L -3.5 0 
" id="md5ade04dbd" style="stroke:#000000;stroke-width:0.8;"/>
      </defs>
      <g>
       <use style="stroke:#000000;stroke-width:0.8;" x="57.6" xlink:href="#md5ade04dbd" y="293.797369"/>
      </g>
     </g>
     <g id="text_9">
      <!-- 0.00 -->
      <defs>
       <path d="M 10.6875 12.40625 
L 21 12.40625 
L 21 0 
L 10.6875 0 
z
" id="DejaVuSans-46"/>
      </defs>
      <g transform="translate(28.334375 297.596587)scale(0.1 -0.1)">
       <use xlink:href="#DejaVuSans-48"/>
       <use x="63.623047" xlink:href="#DejaVuSans-46"/>
       <use x="95.410156" xlink:href="#DejaVuSans-48"/>
       <use x="159.033203" xlink:href="#DejaVuSans-48"/>
      </g>
     </g>
    </g>
    <g id="ytick_2">
     <g id="line2d_10">
      <g>
       <use style="stroke:#000000;stroke-width:0.8;" x="57.6" xlink:href="#md5ade04dbd" y="262.46355"/>
      </g>
     </g>
     <g id="text_10">
      <!-- 0.05 -->
      <defs>
       <path d="M 10.796875 72.90625 
L 49.515625 72.90625 
L 49.515625 64.59375 
L 19.828125 64.59375 
L 19.828125 46.734375 
Q 21.96875 47.46875 24.109375 47.828125 
Q 26.265625 48.1875 28.421875 48.1875 
Q 40.625 48.1875 47.75 41.5 
Q 54.890625 34.8125 54.890625 23.390625 
Q 54.890625 11.625 47.5625 5.09375 
Q 40.234375 -1.421875 26.90625 -1.421875 
Q 22.3125 -1.421875 17.546875 -0.640625 
Q 12.796875 0.140625 7.71875 1.703125 
L 7.71875 11.625 
Q 12.109375 9.234375 16.796875 8.0625 
Q 21.484375 6.890625 26.703125 6.890625 
Q 35.15625 6.890625 40.078125 11.328125 
Q 45.015625 15.765625 45.015625 23.390625 
Q 45.015625 31 40.078125 35.4375 
Q 35.15625 39.890625 26.703125 39.890625 
Q 22.75 39.890625 18.8125 39.015625 
Q 14.890625 38.140625 10.796875 36.28125 
z
" id="DejaVuSans-53"/>
      </defs>
      <g transform="translate(28.334375 266.262769)scale(0.1 -0.1)">
       <use xlink:href="#DejaVuSans-48"/>
       <use x="63.623047" xlink:href="#DejaVuSans-46"/>
       <use x="95.410156" xlink:href="#DejaVuSans-48"/>
       <use x="159.033203" xlink:href="#DejaVuSans-53"/>
      </g>
     </g>
    </g>
    <g id="ytick_3">
     <g id="line2d_11">
      <g>
       <use style="stroke:#000000;stroke-width:0.8;" x="57.6" xlink:href="#md5ade04dbd" y="231.129732"/>
      </g>
     </g>
     <g id="text_11">
      <!-- 0.10 -->
      <g transform="translate(28.334375 234.92895)scale(0.1 -0.1)">
       <use xlink:href="#DejaVuSans-48"/>
       <use x="63.623047" xlink:href="#DejaVuSans-46"/>
       <use x="95.410156" xlink:href="#DejaVuSans-49"/>
       <use x="159.033203" xlink:href="#DejaVuSans-48"/>
      </g>
     </g>
    </g>
    <g id="ytick_4">
     <g id="line2d_12">
      <g>
       <use style="stroke:#000000;stroke-width:0.8;" x="57.6" xlink:href="#md5ade04dbd" y="199.795913"/>
      </g>
     </g>
     <g id="text_12">
      <!-- 0.15 -->
      <g transform="translate(28.334375 203.595132)scale(0.1 -0.1)">
       <use xlink:href="#DejaVuSans-48"/>
       <use x="63.623047" xlink:href="#DejaVuSans-46"/>
       <use x="95.410156" xlink:href="#DejaVuSans-49"/>
       <use x="159.033203" xlink:href="#DejaVuSans-53"/>
      </g>
     </g>
    </g>
    <g id="ytick_5">
     <g id="line2d_13">
      <g>
       <use style="stroke:#000000;stroke-width:0.8;" x="57.6" xlink:href="#md5ade04dbd" y="168.462094"/>
      </g>
     </g>
     <g id="text_13">
      <!-- 0.20 -->
      <g transform="translate(28.334375 172.261313)scale(0.1 -0.1)">
       <use xlink:href="#DejaVuSans-48"/>
       <use x="63.623047" xlink:href="#DejaVuSans-46"/>
       <use x="95.410156" xlink:href="#DejaVuSans-50"/>
       <use x="159.033203" xlink:href="#DejaVuSans-48"/>
      </g>
     </g>
    </g>
    <g id="ytick_6">
     <g id="line2d_14">
      <g>
       <use style="stroke:#000000;stroke-width:0.8;" x="57.6" xlink:href="#md5ade04dbd" y="137.128276"/>
      </g>
     </g>
     <g id="text_14">
      <!-- 0.25 -->
      <g transform="translate(28.334375 140.927495)scale(0.1 -0.1)">
       <use xlink:href="#DejaVuSans-48"/>
       <use x="63.623047" xlink:href="#DejaVuSans-46"/>
       <use x="95.410156" xlink:href="#DejaVuSans-50"/>
       <use x="159.033203" xlink:href="#DejaVuSans-53"/>
      </g>
     </g>
    </g>
    <g id="ytick_7">
     <g id="line2d_15">
      <g>
       <use style="stroke:#000000;stroke-width:0.8;" x="57.6" xlink:href="#md5ade04dbd" y="105.794457"/>
      </g>
     </g>
     <g id="text_15">
      <!-- 0.30 -->
      <defs>
       <path d="M 40.578125 39.3125 
Q 47.65625 37.796875 51.625 33 
Q 55.609375 28.21875 55.609375 21.1875 
Q 55.609375 10.40625 48.1875 4.484375 
Q 40.765625 -1.421875 27.09375 -1.421875 
Q 22.515625 -1.421875 17.65625 -0.515625 
Q 12.796875 0.390625 7.625 2.203125 
L 7.625 11.71875 
Q 11.71875 9.328125 16.59375 8.109375 
Q 21.484375 6.890625 26.8125 6.890625 
Q 36.078125 6.890625 40.9375 10.546875 
Q 45.796875 14.203125 45.796875 21.1875 
Q 45.796875 27.640625 41.28125 31.265625 
Q 36.765625 34.90625 28.71875 34.90625 
L 20.21875 34.90625 
L 20.21875 43.015625 
L 29.109375 43.015625 
Q 36.375 43.015625 40.234375 45.921875 
Q 44.09375 48.828125 44.09375 54.296875 
Q 44.09375 59.90625 40.109375 62.90625 
Q 36.140625 65.921875 28.71875 65.921875 
Q 24.65625 65.921875 20.015625 65.03125 
Q 15.375 64.15625 9.8125 62.3125 
L 9.8125 71.09375 
Q 15.4375 72.65625 20.34375 73.4375 
Q 25.25 74.21875 29.59375 74.21875 
Q 40.828125 74.21875 47.359375 69.109375 
Q 53.90625 64.015625 53.90625 55.328125 
Q 53.90625 49.265625 50.4375 45.09375 
Q 46.96875 40.921875 40.578125 39.3125 
z
" id="DejaVuSans-51"/>
      </defs>
      <g transform="translate(28.334375 109.593676)scale(0.1 -0.1)">
       <use xlink:href="#DejaVuSans-48"/>
       <use x="63.623047" xlink:href="#DejaVuSans-46"/>
       <use x="95.410156" xlink:href="#DejaVuSans-51"/>
       <use x="159.033203" xlink:href="#DejaVuSans-48"/>
      </g>
     </g>
    </g>
    <g id="ytick_8">
     <g id="line2d_16">
      <g>
       <use style="stroke:#000000;stroke-width:0.8;" x="57.6" xlink:href="#md5ade04dbd" y="74.460639"/>
      </g>
     </g>
     <g id="text_16">
      <!-- 0.35 -->
      <g transform="translate(28.334375 78.259858)scale(0.1 -0.1)">
       <use xlink:href="#DejaVuSans-48"/>
       <use x="63.623047" xlink:href="#DejaVuSans-46"/>
       <use x="95.410156" xlink:href="#DejaVuSans-51"/>
       <use x="159.033203" xlink:href="#DejaVuSans-53"/>
      </g>
     </g>
    </g>
    <g id="ytick_9">
     <g id="line2d_17">
      <g>
       <use style="stroke:#000000;stroke-width:0.8;" x="57.6" xlink:href="#md5ade04dbd" y="43.12682"/>
      </g>
     </g>
     <g id="text_17">
      <!-- 0.40 -->
      <g transform="translate(28.334375 46.926039)scale(0.1 -0.1)">
       <use xlink:href="#DejaVuSans-48"/>
       <use x="63.623047" xlink:href="#DejaVuSans-46"/>
       <use x="95.410156" xlink:href="#DejaVuSans-52"/>
       <use x="159.033203" xlink:href="#DejaVuSans-48"/>
      </g>
     </g>
    </g>
   </g>
   <g id="line2d_18">
    <path clip-path="url(#p01e624601d)" d="M 73.832727 58.694101 
L 74.760975 59.048126 
L 75.45716 59.064126 
L 76.153346 58.848183 
L 77.313655 58.164699 
L 78.241903 57.662747 
L 78.938088 57.499537 
L 79.634274 57.577953 
L 80.562521 57.997549 
L 82.186954 58.857669 
L 82.88314 58.965519 
L 83.579325 58.827832 
L 84.507573 58.356718 
L 85.899944 57.571526 
L 86.59613 57.407821 
L 87.292315 57.488695 
L 88.220563 57.913134 
L 89.612934 58.696752 
L 90.30912 58.874058 
L 91.005305 58.812331 
L 91.701491 58.531781 
L 94.022109 57.34808 
L 94.718295 57.348607 
L 95.41448 57.578965 
L 97.967161 58.810308 
L 98.663347 58.758325 
L 99.359532 58.478191 
L 101.680151 57.236042 
L 102.376336 57.215033 
L 103.072522 57.424487 
L 104.464893 58.2034 
L 105.393141 58.584933 
L 106.089326 58.624425 
L 106.785512 58.429273 
L 107.945821 57.764965 
L 109.10613 57.173613 
L 109.802316 57.069238 
L 110.498502 57.202725 
L 111.426749 57.663278 
L 112.81912 58.385931 
L 113.515306 58.511197 
L 114.211491 58.399285 
L 115.139739 57.939505 
L 116.764172 57.018616 
L 117.460357 56.898742 
L 118.156543 57.024705 
L 119.08479 57.490868 
L 120.477162 58.260244 
L 121.173347 58.407484 
L 121.869533 58.310454 
L 122.79778 57.858451 
L 124.422213 56.92966 
L 125.118399 56.795973 
L 125.814584 56.90728 
L 126.742832 57.358985 
L 128.135203 58.125582 
L 128.831389 58.278266 
L 129.527574 58.185303 
L 130.455822 57.73038 
L 132.080255 56.799589 
L 132.77644 56.660108 
L 133.472626 56.765303 
L 134.400873 57.213356 
L 135.793245 57.989166 
L 136.48943 58.150069 
L 137.185616 58.067566 
L 137.881801 57.764247 
L 139.970358 56.617476 
L 140.666544 56.553915 
L 141.362729 56.73245 
L 142.290977 57.233841 
L 143.451286 57.875102 
L 144.147472 58.04087 
L 144.843657 57.963725 
L 145.539843 57.664583 
L 147.6284 56.52408 
L 148.324585 56.454295 
L 149.020771 56.627748 
L 149.949018 57.124734 
L 151.109327 57.764191 
L 151.805513 57.936179 
L 152.501699 57.868362 
L 153.197884 57.578718 
L 155.286441 56.441757 
L 155.982627 56.36488 
L 156.678812 56.528033 
L 157.60706 57.014538 
L 158.767369 57.648067 
L 159.463554 57.820031 
L 160.15974 57.75259 
L 160.855926 57.463133 
L 163.176544 56.257992 
L 163.87273 56.260573 
L 164.568915 56.494485 
L 167.121596 57.710544 
L 167.817782 57.649799 
L 168.513967 57.360529 
L 170.834586 56.088586 
L 171.530771 56.068952 
L 172.226957 56.286793 
L 174.779637 57.509502 
L 175.475823 57.472468 
L 176.172009 57.213514 
L 178.492627 56.026498 
L 179.188813 56.006742 
L 179.884998 56.218955 
L 181.27737 57.015588 
L 182.205617 57.418426 
L 182.901803 57.470417 
L 183.597988 57.28207 
L 184.758297 56.617778 
L 185.918607 56.024788 
L 186.614792 55.923732 
L 187.310978 56.065151 
L 188.239225 56.538507 
L 189.631597 57.27963 
L 190.327782 57.39963 
L 191.023968 57.267661 
L 191.952215 56.788359 
L 193.576648 55.86244 
L 194.272834 55.752648 
L 194.969019 55.890082 
L 195.897267 56.369015 
L 197.289638 57.1331 
L 197.985824 57.268322 
L 198.682009 57.154592 
L 199.610257 56.686597 
L 201.23469 55.779142 
L 201.930875 55.676124 
L 202.627061 55.818547 
L 203.555308 56.300059 
L 204.94768 57.063594 
L 205.643865 57.197343 
L 206.340051 57.083696 
L 207.268298 56.613502 
L 208.892731 55.68888 
L 209.588917 55.57414 
L 210.285102 55.708224 
L 211.21335 56.18727 
L 212.605721 56.958175 
L 213.301907 57.095609 
L 213.998092 56.977629 
L 214.92634 56.492808 
L 216.550773 55.54463 
L 217.246958 55.434664 
L 217.943144 55.583004 
L 218.871391 56.088217 
L 220.263762 56.887818 
L 220.959948 57.028943 
L 221.656134 56.908469 
L 222.584381 56.411415 
L 224.208814 55.437625 
L 224.905 55.313165 
L 225.601185 55.449594 
L 226.529433 55.946118 
L 227.921804 56.757222 
L 228.617989 56.916967 
L 229.314175 56.825874 
L 230.242423 56.368081 
L 231.866856 55.436739 
L 232.563041 55.313365 
L 233.259227 55.442426 
L 234.187474 55.920871 
L 235.579845 56.709479 
L 236.276031 56.8588 
L 236.972217 56.755199 
L 237.668402 56.43269 
L 239.756959 55.269648 
L 240.453144 55.224366 
L 241.14933 55.430886 
L 242.309639 56.123254 
L 243.237887 56.632478 
L 243.934072 56.793662 
L 244.630258 56.703431 
L 245.326444 56.388712 
L 247.415 55.227818 
L 248.111186 55.176124 
L 248.807371 55.371638 
L 249.967681 56.037895 
L 250.895928 56.534765 
L 251.592114 56.692949 
L 252.288299 56.603195 
L 252.984485 56.291408 
L 255.073042 55.137724 
L 255.769227 55.080364 
L 256.465413 55.267048 
L 257.625722 55.922583 
L 258.55397 56.417691 
L 259.250155 56.578571 
L 259.946341 56.493681 
L 260.642526 56.187903 
L 262.731083 55.04524 
L 263.427269 54.989745 
L 264.123454 55.177951 
L 265.283764 55.836262 
L 266.212011 56.329208 
L 266.908197 56.488456 
L 267.604382 56.399534 
L 268.300568 56.089677 
L 270.389125 54.944629 
L 271.08531 54.895003 
L 271.781496 55.094834 
L 272.709743 55.631407 
L 273.870053 56.307765 
L 274.566238 56.481089 
L 275.262424 56.395472 
L 275.958609 56.074656 
L 278.047166 54.829877 
L 278.743352 54.742148 
L 279.439537 54.914626 
L 280.367785 55.442023 
L 281.528094 56.135706 
L 282.22428 56.33229 
L 282.920465 56.271918 
L 283.616651 55.971559 
L 285.937269 54.689553 
L 286.633455 54.688017 
L 287.329641 54.935343 
L 289.882321 56.251753 
L 290.578507 56.19355 
L 291.274692 55.892426 
L 293.595311 54.613329 
L 294.291497 54.618309 
L 294.987682 54.866195 
L 297.540363 56.197906 
L 298.236548 56.146944 
L 298.932734 55.852722 
L 301.253352 54.541693 
L 301.949538 54.522061 
L 302.645724 54.758414 
L 303.806033 55.473254 
L 304.73428 55.968165 
L 305.430466 56.096381 
L 306.126652 55.963155 
L 307.054899 55.452244 
L 308.44727 54.577209 
L 309.143456 54.379073 
L 309.839641 54.439194 
L 310.535827 54.735308 
L 312.624384 55.90951 
L 313.320569 55.975609 
L 314.016755 55.786935 
L 314.945002 55.250153 
L 316.105312 54.545252 
L 316.801497 54.338901 
L 317.497683 54.384776 
L 318.193868 54.666676 
L 320.514487 55.891944 
L 321.210673 55.878441 
L 321.906858 55.609555 
L 324.459539 54.188658 
L 325.155724 54.225828 
L 325.85191 54.512602 
L 328.172528 55.794607 
L 328.868714 55.791135 
L 329.5649 55.530237 
L 332.11758 54.142046 
L 332.813766 54.181205 
L 333.509951 54.465482 
L 335.83057 55.684182 
L 336.526755 55.663913 
L 337.222941 55.396843 
L 339.775622 54.040567 
L 340.471807 54.084122 
L 341.167993 54.361876 
L 343.488611 55.559535 
L 344.184797 55.542685 
L 344.880983 55.282814 
L 347.433663 53.954356 
L 348.129849 54.001146 
L 348.826034 54.282679 
L 351.146653 55.492253 
L 351.842838 55.4808 
L 352.539024 55.225499 
L 355.091704 53.90348 
L 355.78789 53.934064 
L 356.484076 54.19574 
L 358.804694 55.394834 
L 359.50088 55.405449 
L 360.197065 55.18381 
L 361.589437 54.369611 
L 362.517684 53.939194 
L 363.21387 53.839444 
L 363.910055 53.970281 
L 364.838303 54.417712 
L 366.230674 55.128511 
L 366.926859 55.243088 
L 367.623045 55.127363 
L 368.551292 54.68198 
L 369.943664 53.922007 
L 370.639849 53.758568 
L 371.336035 53.82516 
L 372.264282 54.220667 
L 373.888715 55.055729 
L 374.584901 55.168246 
L 375.281086 55.047721 
L 376.209334 54.592092 
L 377.833767 53.716401 
L 378.529953 53.612441 
L 379.226138 53.744738 
L 380.154386 54.185578 
L 381.546757 54.884369 
L 382.242942 55.005587 
L 382.939128 54.899465 
L 383.867375 54.471501 
L 385.259747 53.7594 
L 385.955932 53.619871 
L 386.652118 53.701469 
L 387.580365 54.100133 
L 389.204798 54.899241 
L 389.900984 54.991807 
L 390.597169 54.86152 
L 391.525417 54.422928 
L 392.917788 53.740571 
L 393.613974 53.629555 
L 394.310159 53.738643 
L 395.238407 54.152722 
L 396.630778 54.83336 
L 397.326963 54.964576 
L 398.023149 54.871221 
L 398.487273 54.696708 
L 398.487273 54.696708 
" style="fill:none;stroke:#1f77b4;stroke-linecap:square;stroke-width:1.5;"/>
   </g>
   <g id="line2d_19">
    <path clip-path="url(#p01e624601d)" d="M 73.832727 58.027192 
L 74.760975 57.654221 
L 75.45716 57.589515 
L 76.153346 57.757681 
L 77.313655 58.405023 
L 78.473965 58.965622 
L 79.17015 59.020286 
L 79.866336 58.837833 
L 81.026645 58.188674 
L 81.954892 57.670408 
L 82.651078 57.479929 
L 83.347264 57.489021 
L 84.043449 57.756512 
L 86.364068 58.941639 
L 87.060253 58.89602 
L 87.756439 58.643716 
L 90.30912 57.361606 
L 91.005305 57.422586 
L 91.933553 57.796503 
L 93.557986 58.686831 
L 94.254171 58.82508 
L 94.950357 58.748781 
L 95.878604 58.325131 
L 97.735099 57.32949 
L 98.431285 57.274041 
L 99.12747 57.457442 
L 100.055718 57.964009 
L 101.216027 58.587229 
L 101.912213 58.722356 
L 102.608398 58.617955 
L 103.536646 58.187139 
L 105.393141 57.191526 
L 106.089326 57.140282 
L 106.785512 57.313727 
L 107.713759 57.800143 
L 109.10613 58.48906 
L 109.802316 58.578469 
L 110.498502 58.43086 
L 111.658811 57.779508 
L 112.81912 57.156587 
L 113.515306 57.011261 
L 114.443553 57.119572 
L 115.139739 57.468016 
L 116.53211 58.271359 
L 117.228296 58.447785 
L 117.924481 58.382704 
L 118.620667 58.095728 
L 120.941285 56.894068 
L 121.637471 56.885945 
L 122.333657 57.110854 
L 124.886337 58.336268 
L 125.582523 58.27955 
L 126.278708 57.999964 
L 128.599327 56.774661 
L 129.295512 56.756123 
L 129.991698 56.969672 
L 131.384069 57.765207 
L 132.312317 58.154611 
L 133.008502 58.194508 
L 133.704688 57.991967 
L 134.864997 57.310876 
L 136.025306 56.709082 
L 136.721492 56.603893 
L 137.417678 56.742724 
L 138.345925 57.222276 
L 139.738296 57.974819 
L 140.434482 58.09959 
L 141.130667 57.978932 
L 142.058915 57.507382 
L 143.451286 56.689965 
L 144.147472 56.505773 
L 144.843657 56.561657 
L 145.539843 56.84228 
L 147.6284 57.931516 
L 148.324585 57.982717 
L 149.020771 57.792307 
L 150.18108 57.126676 
L 151.341389 56.518474 
L 152.037575 56.404829 
L 152.73376 56.534288 
L 153.662008 57.000348 
L 155.054379 57.755111 
L 155.750565 57.891791 
L 156.44675 57.786208 
L 157.374998 57.326027 
L 158.999431 56.412802 
L 159.695616 56.290812 
L 160.391802 56.413028 
L 161.320049 56.871625 
L 162.712421 57.630366 
L 163.408606 57.770529 
L 164.104792 57.665759 
L 165.033039 57.213953 
L 166.657472 56.298087 
L 167.353658 56.169137 
L 168.049843 56.248487 
L 168.746029 56.556723 
L 170.602524 57.552096 
L 171.298709 57.604977 
L 171.994895 57.414083 
L 173.155204 56.762084 
L 174.315514 56.151943 
L 175.011699 56.014138 
L 175.707885 56.131475 
L 176.636132 56.561572 
L 178.260565 57.396038 
L 178.956751 57.491153 
L 179.652937 57.354773 
L 180.581184 56.874381 
L 181.973555 56.093618 
L 182.669741 55.944714 
L 183.365926 56.043744 
L 184.062112 56.357521 
L 185.918607 57.363667 
L 186.614792 57.461872 
L 187.310978 57.294451 
L 188.239225 56.796696 
L 189.631597 56.000138 
L 190.327782 55.842872 
L 191.023968 55.938304 
L 191.952215 56.370212 
L 193.344586 57.153979 
L 194.272834 57.320633 
L 194.969019 57.163773 
L 195.897267 56.660206 
L 197.057576 55.955232 
L 197.753762 55.734523 
L 198.449947 55.734653 
L 199.146133 56.00134 
L 201.466752 57.191833 
L 202.162937 57.204446 
L 202.859123 56.974468 
L 204.019432 56.283016 
L 204.94768 55.78886 
L 205.643865 55.636916 
L 206.340051 55.724658 
L 207.036236 56.025701 
L 208.892731 57.054068 
L 209.588917 57.147039 
L 210.285102 57.000504 
L 211.21335 56.497956 
L 212.837783 55.557338 
L 213.533968 55.486224 
L 214.230154 55.660966 
L 215.158401 56.175099 
L 216.550773 56.992562 
L 217.246958 57.081588 
L 217.943144 56.897306 
L 218.871391 56.374349 
L 220.031701 55.660184 
L 220.959948 55.37173 
L 221.656134 55.475989 
L 222.584381 55.937792 
L 224.208814 56.862168 
L 224.905 56.963423 
L 225.601185 56.80523 
L 226.529433 56.281948 
L 227.689742 55.582668 
L 228.617989 55.32937 
L 229.314175 55.408947 
L 230.010361 55.714817 
L 231.866856 56.795959 
L 232.563041 56.902879 
L 233.259227 56.761169 
L 234.187474 56.255418 
L 235.579845 55.439641 
L 236.276031 55.279958 
L 236.972217 55.354681 
L 237.668402 55.647612 
L 239.756959 56.780669 
L 240.453144 56.817654 
L 241.14933 56.595151 
L 242.309639 55.877276 
L 243.237887 55.366011 
L 243.934072 55.199042 
L 244.630258 55.28276 
L 245.326444 55.590384 
L 247.415 56.697061 
L 248.111186 56.733211 
L 248.807371 56.526011 
L 249.967681 55.812922 
L 250.895928 55.305406 
L 251.592114 55.120928 
L 252.288299 55.192444 
L 253.216547 55.628816 
L 254.84098 56.521638 
L 255.537166 56.638619 
L 256.233351 56.51154 
L 257.161599 56.031212 
L 258.55397 55.194672 
L 259.250155 55.027242 
L 259.946341 55.095735 
L 260.642526 55.380196 
L 262.731083 56.494131 
L 263.427269 56.531719 
L 264.123454 56.326106 
L 265.051702 55.782801 
L 266.212011 55.103732 
L 266.908197 54.928396 
L 267.604382 54.994887 
L 268.300568 55.292195 
L 270.389125 56.418764 
L 271.08531 56.472543 
L 271.781496 56.274596 
L 272.941805 55.599695 
L 274.102114 54.9411 
L 274.7983 54.836757 
L 275.494486 54.985454 
L 276.654795 55.590267 
L 277.815104 56.245454 
L 278.51129 56.394219 
L 279.207475 56.288753 
L 279.903661 55.9493 
L 281.992218 54.750992 
L 282.688403 54.694244 
L 283.384589 54.927023 
L 285.937269 56.271957 
L 286.633455 56.263843 
L 287.329641 56.009191 
L 289.882321 54.61449 
L 290.578507 54.656588 
L 291.274692 54.951777 
L 293.595311 56.213809 
L 294.291497 56.198053 
L 294.987682 55.944761 
L 297.540363 54.56809 
L 298.236548 54.607725 
L 298.932734 54.880112 
L 301.253352 56.108446 
L 301.949538 56.115724 
L 302.645724 55.853886 
L 303.573971 55.285044 
L 304.73428 54.592718 
L 305.430466 54.429114 
L 306.126652 54.538969 
L 306.822837 54.875923 
L 308.679332 55.93206 
L 309.375518 56.024609 
L 310.071703 55.843476 
L 310.999951 55.342188 
L 312.392322 54.498595 
L 313.088507 54.358223 
L 313.784693 54.461007 
L 314.71294 54.91407 
L 316.337373 55.83208 
L 317.033559 55.943423 
L 317.729745 55.803879 
L 318.657992 55.307378 
L 320.050363 54.466671 
L 320.746549 54.266251 
L 321.442734 54.30528 
L 322.13892 54.62869 
L 324.227477 55.818542 
L 324.923662 55.853136 
L 325.619848 55.626857 
L 326.548095 55.042219 
L 327.708405 54.32819 
L 328.40459 54.136292 
L 329.100776 54.211994 
L 330.493147 55.017142 
L 331.653456 55.672896 
L 332.349642 55.804773 
L 332.813766 55.738902 
L 333.509951 55.393225 
L 335.598508 54.156679 
L 336.294694 54.072339 
L 336.990879 54.244468 
L 337.919127 54.772534 
L 339.079436 55.465476 
L 339.775622 55.636063 
L 340.471807 55.564206 
L 341.167993 55.268553 
L 343.488611 54.005845 
L 344.184797 54.002795 
L 344.880983 54.245882 
L 347.201601 55.504582 
L 347.897787 55.533773 
L 348.593972 55.309629 
L 349.754282 54.593759 
L 350.682529 54.080106 
L 351.378715 53.912932 
L 351.842838 53.89796 
L 352.306962 54.118097 
L 353.23521 54.602947 
L 354.395519 55.249587 
L 355.091704 55.436951 
L 355.78789 55.402251 
L 356.484076 55.118869 
L 358.804694 53.946652 
L 359.50088 53.930089 
L 360.197065 54.146793 
L 362.517684 55.197817 
L 363.445932 55.270817 
L 364.142117 55.051931 
L 365.534488 54.245086 
L 366.462736 53.847459 
L 367.158921 53.792434 
L 367.855107 53.96762 
L 369.015416 54.584859 
L 370.175726 55.143301 
L 370.871911 55.209252 
L 371.568097 55.054413 
L 372.496344 54.571999 
L 373.888715 53.838904 
L 374.584901 53.694849 
L 375.281086 53.789262 
L 376.209334 54.199914 
L 378.065829 55.080121 
L 378.529953 55.092907 
L 379.922324 54.56814 
L 381.778819 53.631413 
L 382.475004 53.578807 
L 383.17119 53.745434 
L 385.72387 54.9924 
L 386.420056 54.99568 
L 387.348303 54.651423 
L 389.204798 53.682089 
L 389.900984 53.585123 
L 390.597169 53.724364 
L 391.293355 54.039321 
L 392.453664 54.730667 
L 393.14985 54.965782 
L 393.846035 55.010773 
L 394.542221 54.805913 
L 396.166654 53.929256 
L 397.094902 53.603727 
L 397.791087 53.590146 
L 398.487273 53.796778 
L 398.487273 53.796778 
" style="fill:none;stroke:#ff0000;stroke-linecap:square;stroke-width:1.5;"/>
   </g>
   <g id="line2d_20">
    <path clip-path="url(#p01e624601d)" d="M 73.832727 294.464278 
L 74.528913 295.079144 
L 74.993037 295.261354 
L 75.45716 295.271979 
L 75.921284 295.059578 
L 76.61747 294.411738 
L 78.241903 292.570488 
L 78.706026 292.315119 
L 79.17015 292.275769 
L 79.634274 292.455591 
L 80.330459 293.058723 
L 82.186954 295.0756 
L 82.651078 295.27315 
L 83.115202 295.285289 
L 83.579325 295.077188 
L 84.275511 294.410576 
L 85.899944 292.613818 
L 86.364068 292.291693 
L 86.828192 292.267672 
L 87.292315 292.445127 
L 87.988501 293.061243 
L 89.844996 295.117431 
L 90.30912 295.309821 
L 90.773243 295.278905 
L 91.237367 295.04385 
L 92.165614 294.124876 
L 93.325924 292.775757 
L 94.022109 292.336962 
L 94.486233 292.282108 
L 94.950357 292.450627 
L 95.646542 293.039398 
L 97.735099 295.239798 
L 98.199223 295.353588 
L 98.663347 295.244196 
L 99.12747 294.933101 
L 99.823656 294.179828 
L 101.216027 292.592159 
L 101.680151 292.339208 
L 102.144274 292.284744 
L 102.608398 292.440768 
L 103.304584 293.011803 
L 105.393141 295.190776 
L 105.857264 295.304282 
L 106.321388 295.206656 
L 107.017574 294.712256 
L 109.338192 292.365587 
L 109.802316 292.288137 
L 110.26644 292.424746 
L 110.730563 292.768802 
L 111.658811 293.820465 
L 112.587058 294.848224 
L 113.283244 295.255892 
L 113.747368 295.281144 
L 114.443553 294.989932 
L 114.907677 294.547652 
L 116.764172 292.461264 
L 117.228296 292.261055 
L 117.692419 292.280001 
L 118.156543 292.513381 
L 118.852729 293.185942 
L 120.477162 295.029739 
L 120.941285 295.287923 
L 121.405409 295.338807 
L 121.869533 295.17062 
L 122.565718 294.567099 
L 124.422213 292.491385 
L 124.886337 292.27467 
L 125.350461 292.27693 
L 125.814584 292.496426 
L 126.51077 293.152301 
L 128.135203 295.004302 
L 128.599327 295.276015 
L 129.063451 295.336524 
L 129.527574 295.179472 
L 130.22376 294.582016 
L 132.312317 292.369627 
L 132.77644 292.248588 
L 133.240564 292.348675 
L 133.704688 292.656062 
L 134.400873 293.402472 
L 135.793245 294.990926 
L 136.257368 295.272553 
L 136.721492 295.343472 
L 137.185616 295.194228 
L 137.881801 294.610974 
L 139.970358 292.372219 
L 140.434482 292.245036 
L 140.898605 292.339498 
L 141.362729 292.641678 
L 142.058915 293.381941 
L 143.451286 294.982506 
L 143.91541 295.266792 
L 144.379533 295.344215 
L 144.843657 295.199437 
L 145.539843 294.619672 
L 147.6284 292.389933 
L 148.092523 292.254298 
L 148.556647 292.340635 
L 149.020771 292.632809 
L 149.716956 293.364145 
L 151.109327 294.954583 
L 151.573451 295.247575 
L 152.037575 295.333554 
L 152.501699 295.200666 
L 153.197884 294.638748 
L 155.286441 292.412834 
L 155.750565 292.26885 
L 156.214688 292.34319 
L 156.678812 292.625068 
L 157.374998 293.347377 
L 158.767369 294.942552 
L 159.231493 295.238743 
L 159.695616 295.331467 
L 160.15974 295.203762 
L 160.855926 294.648653 
L 162.944482 292.406395 
L 163.408606 292.257882 
L 163.87273 292.331216 
L 164.336854 292.610544 
L 165.033039 293.32725 
L 166.42541 294.935925 
L 166.889534 295.243783 
L 167.353658 295.346255 
L 167.817782 295.233545 
L 168.281905 294.946229 
L 168.978091 294.183712 
L 170.370462 292.550569 
L 170.834586 292.28832 
L 171.298709 292.239734 
L 171.762833 292.408189 
L 172.459019 293.027641 
L 174.315514 295.047558 
L 174.779637 295.272556 
L 175.243761 295.277508 
L 175.707885 295.073942 
L 176.40407 294.455315 
L 178.260565 292.487012 
L 178.724689 292.3038 
L 179.188813 292.327259 
L 179.652937 292.567915 
L 180.349122 293.240307 
L 181.973555 295.052573 
L 182.437679 295.292483 
L 182.901803 295.316439 
L 183.365926 295.123071 
L 184.062112 294.48759 
L 185.918607 292.458489 
L 186.382731 292.277097 
L 186.846854 292.308649 
L 187.310978 292.568068 
L 188.007164 293.258358 
L 189.631597 295.076861 
L 190.09572 295.312457 
L 190.559844 295.342821 
L 191.023968 295.126726 
L 191.720153 294.491466 
L 193.576648 292.435703 
L 194.040772 292.242618 
L 194.504896 292.274503 
L 194.969019 292.523678 
L 195.665205 293.220093 
L 197.289638 295.071668 
L 197.753762 295.313481 
L 198.217886 295.353312 
L 198.682009 295.153513 
L 199.378195 294.496657 
L 201.002628 292.604353 
L 201.466752 292.323474 
L 201.930875 292.245328 
L 202.394999 292.390217 
L 203.091185 292.971969 
L 205.179741 295.217616 
L 205.643865 295.357796 
L 206.107989 295.276638 
L 206.572113 294.991765 
L 207.268298 294.24605 
L 208.660669 292.607866 
L 209.124793 292.306626 
L 209.588917 292.224469 
L 210.05304 292.356529 
L 210.749226 292.932807 
L 212.837783 295.27117 
L 213.301907 295.411626 
L 213.76603 295.32528 
L 214.230154 295.02148 
L 214.92634 294.261444 
L 216.550773 292.349437 
L 217.014896 292.143417 
L 217.47902 292.20969 
L 217.943144 292.483067 
L 218.639329 293.215365 
L 220.263762 295.125087 
L 220.959948 295.454582 
L 221.424072 295.360915 
L 221.888195 295.047612 
L 222.584381 294.270991 
L 223.976752 292.557961 
L 224.440876 292.241055 
L 224.905 292.14711 
L 225.369123 292.287472 
L 225.833247 292.643889 
L 226.761495 293.772482 
L 227.689742 294.869429 
L 228.385928 295.330361 
L 228.850051 295.382878 
L 229.314175 295.214296 
L 230.010361 294.5899 
L 231.866856 292.438148 
L 232.330979 292.227398 
L 232.795103 292.243637 
L 233.259227 292.478625 
L 233.955412 293.174567 
L 235.579845 295.067207 
L 236.043969 295.32146 
L 236.508093 295.371573 
L 236.972217 295.197886 
L 237.668402 294.582447 
L 239.524897 292.433531 
L 239.989021 292.194107 
L 240.453144 292.204081 
L 240.917268 292.443524 
L 241.613454 293.137706 
L 243.237887 295.063835 
L 243.702011 295.336404 
L 244.166134 295.390434 
L 244.630258 295.218039 
L 245.326444 294.595696 
L 247.182938 292.461417 
L 247.647062 292.246442 
L 248.111186 292.240281 
L 248.57531 292.454655 
L 249.271495 293.138307 
L 250.895928 295.026728 
L 251.360052 295.305554 
L 251.824176 295.374477 
L 252.288299 295.20812 
L 252.984485 294.597099 
L 254.84098 292.486416 
L 255.305104 292.262705 
L 255.769227 292.251957 
L 256.233351 292.465879 
L 256.929537 293.121836 
L 258.786032 295.184304 
L 259.250155 295.348698 
L 259.714279 295.299933 
L 260.178403 295.041401 
L 260.874588 294.337701 
L 262.499021 292.486289 
L 262.963145 292.261927 
L 263.427269 292.255395 
L 263.891393 292.469279 
L 264.587578 293.125336 
L 266.212011 295.022845 
L 266.676135 295.29961 
L 267.140259 295.355179 
L 267.604382 295.202015 
L 268.300568 294.59485 
L 270.389125 292.323233 
L 270.853248 292.196323 
L 271.317372 292.299996 
L 271.781496 292.617606 
L 272.709743 293.671636 
L 273.870053 295.076144 
L 274.334176 295.371143 
L 274.7983 295.4425 
L 275.262424 295.285119 
L 275.958609 294.673054 
L 278.047166 292.312909 
L 278.51129 292.145147 
L 278.975414 292.215297 
L 279.439537 292.514611 
L 280.135723 293.287305 
L 281.528094 295.011951 
L 281.992218 295.340136 
L 282.456342 295.461139 
L 282.920465 295.316592 
L 283.384589 294.963279 
L 284.312836 293.849577 
L 285.241084 292.700106 
L 285.937269 292.214964 
L 286.401393 292.160496 
L 286.865517 292.34425 
L 287.329641 292.72352 
L 288.257888 293.889066 
L 289.186136 295.012502 
L 289.650259 295.34703 
L 290.114383 295.460983 
L 290.578507 295.334331 
L 291.04263 294.977693 
L 291.738816 294.151604 
L 293.131187 292.475727 
L 293.595311 292.196888 
L 294.059435 292.155099 
L 294.523558 292.338264 
L 295.219744 292.977868 
L 297.076239 295.195035 
L 297.540363 295.427185 
L 298.004486 295.42382 
L 298.46861 295.195204 
L 299.164796 294.496379 
L 301.021291 292.351835 
L 301.485414 292.164251 
L 301.949538 292.203706 
L 302.413662 292.475403 
L 303.341909 293.51987 
L 304.502218 294.975479 
L 305.198404 295.428556 
L 305.662528 295.441113 
L 306.126652 295.221555 
L 306.822837 294.52488 
L 308.44727 292.531016 
L 308.911394 292.222751 
L 309.375518 292.142525 
L 309.839641 292.298863 
L 310.535827 292.900349 
L 312.624384 295.281498 
L 313.088507 295.421729 
L 313.552631 295.337713 
L 314.016755 295.036306 
L 314.71294 294.285638 
L 316.105312 292.597552 
L 316.569435 292.281814 
L 317.033559 292.179203 
L 317.497683 292.303061 
L 317.961806 292.643629 
L 318.657992 293.433447 
L 320.050363 295.088493 
L 320.514487 295.383004 
L 320.978611 295.461289 
L 321.442734 295.307002 
L 322.13892 294.643623 
L 324.227477 292.215659 
L 324.6916 292.094299 
L 325.155724 292.219412 
L 325.619848 292.564117 
L 326.316034 293.388454 
L 327.476343 294.895669 
L 328.172528 295.419544 
L 328.636652 295.488 
L 329.100776 295.315653 
L 329.796961 294.627759 
L 331.653456 292.388179 
L 332.11758 292.144724 
L 332.581704 292.14112 
L 333.045828 292.402231 
L 333.974075 293.450325 
L 335.134384 294.900849 
L 335.83057 295.382298 
L 336.294694 295.425063 
L 336.758817 295.235921 
L 337.455003 294.583725 
L 339.311498 292.4005 
L 339.775622 292.201872 
L 340.239745 292.220648 
L 340.703869 292.465447 
L 341.400055 293.15837 
L 343.024488 295.079019 
L 343.488611 295.351058 
L 343.952735 295.399002 
L 344.416859 295.217459 
L 345.113044 294.573188 
L 346.969539 292.42322 
L 347.433663 292.202905 
L 347.897787 292.220575 
L 348.36191 292.460614 
L 349.058096 293.154815 
L 350.682529 295.079195 
L 351.146653 295.3478 
L 351.610777 295.400493 
L 351.842838 295.380209 
L 353.23521 294.004919 
L 354.395519 292.663209 
L 354.859643 292.349541 
L 355.323766 292.235695 
L 355.78789 292.329181 
L 356.252014 292.651694 
L 357.180261 293.691607 
L 358.340571 294.999817 
L 359.036756 295.309136 
L 359.50088 295.272729 
L 359.965004 295.022882 
L 360.661189 294.3532 
L 361.589437 293.334073 
L 362.285622 292.650008 
L 362.981808 292.369281 
L 363.445932 292.384527 
L 363.910055 292.618785 
L 364.606241 293.273813 
L 366.230674 295.009621 
L 366.694798 295.225143 
L 367.158921 295.234532 
L 367.623045 295.038739 
L 368.319231 294.426262 
L 370.175726 292.497804 
L 370.639849 292.340285 
L 371.103973 292.39216 
L 371.568097 292.639302 
L 372.264282 293.316278 
L 373.888715 295.014193 
L 374.352839 295.232235 
L 374.816963 295.253242 
L 375.281086 295.055828 
L 375.977272 294.448195 
L 377.833767 292.482941 
L 378.297891 292.31467 
L 378.762014 292.413637 
L 379.4582 292.835871 
L 380.386447 293.812644 
L 381.546757 294.980586 
L 382.01088 295.199841 
L 382.475004 295.213956 
L 382.939128 295.035324 
L 383.403252 294.64542 
L 385.259747 292.674797 
L 385.72387 292.447601 
L 386.187994 292.40523 
L 386.652118 292.561557 
L 387.348303 293.124359 
L 389.204798 295.014521 
L 389.668922 295.189007 
L 390.133046 295.17379 
L 390.597169 294.934525 
L 391.293355 294.308611 
L 392.453664 292.988562 
L 393.14985 292.511801 
L 393.613974 292.398406 
L 394.078097 292.51003 
L 394.774283 293.017 
L 396.86284 295.038307 
L 397.326963 295.190553 
L 397.791087 295.133573 
L 398.255211 294.884963 
L 398.487273 294.697299 
L 398.487273 294.697299 
" style="fill:none;stroke:#008000;stroke-linecap:square;stroke-width:1.5;"/>
   </g>
   <g id="patch_3">
    <path d="M 57.6 307.584 
L 57.6 41.472 
" style="fill:none;stroke:#000000;stroke-linecap:square;stroke-linejoin:miter;stroke-width:0.8;"/>
   </g>
   <g id="patch_4">
    <path d="M 414.72 307.584 
L 414.72 41.472 
" style="fill:none;stroke:#000000;stroke-linecap:square;stroke-linejoin:miter;stroke-width:0.8;"/>
   </g>
   <g id="patch_5">
    <path d="M 57.6 307.584 
L 414.72 307.584 
" style="fill:none;stroke:#000000;stroke-linecap:square;stroke-linejoin:miter;stroke-width:0.8;"/>
   </g>
   <g id="patch_6">
    <path d="M 57.6 41.472 
L 414.72 41.472 
" style="fill:none;stroke:#000000;stroke-linecap:square;stroke-linejoin:miter;stroke-width:0.8;"/>
   </g>
   <g id="legend_1">
    <g id="patch_7">
     <path d="M 351.0075 198.045187 
L 407.72 198.045187 
Q 409.72 198.045187 409.72 196.045187 
L 409.72 153.010812 
Q 409.72 151.010812 407.72 151.010812 
L 351.0075 151.010812 
Q 349.0075 151.010812 349.0075 153.010812 
L 349.0075 196.045187 
Q 349.0075 198.045187 351.0075 198.045187 
z
" style="fill:#ffffff;opacity:0.8;stroke:#cccccc;stroke-linejoin:miter;"/>
    </g>
    <g id="line2d_21">
     <path d="M 353.0075 159.10925 
L 373.0075 159.10925 
" style="fill:none;stroke:#1f77b4;stroke-linecap:square;stroke-width:1.5;"/>
    </g>
    <g id="line2d_22"/>
    <g id="text_18">
     <!-- 0-&gt;1 -->
     <defs>
      <path d="M 4.890625 31.390625 
L 31.203125 31.390625 
L 31.203125 23.390625 
L 4.890625 23.390625 
z
" id="DejaVuSans-45"/>
      <path d="M 10.59375 49.21875 
L 10.59375 58.109375 
L 73.1875 35.40625 
L 73.1875 27.296875 
L 10.59375 4.59375 
L 10.59375 13.484375 
L 60.890625 31.296875 
z
" id="DejaVuSans-62"/>
     </defs>
     <g transform="translate(381.0075 162.60925)scale(0.1 -0.1)">
      <use xlink:href="#DejaVuSans-48"/>
      <use x="63.623047" xlink:href="#DejaVuSans-45"/>
      <use x="99.707031" xlink:href="#DejaVuSans-62"/>
      <use x="183.496094" xlink:href="#DejaVuSans-49"/>
     </g>
    </g>
    <g id="line2d_23">
     <path d="M 353.0075 173.787375 
L 373.0075 173.787375 
" style="fill:none;stroke:#ff0000;stroke-linecap:square;stroke-width:1.5;"/>
    </g>
    <g id="line2d_24"/>
    <g id="text_19">
     <!-- 1-&gt;0 -->
     <g transform="translate(381.0075 177.287375)scale(0.1 -0.1)">
      <use xlink:href="#DejaVuSans-49"/>
      <use x="63.623047" xlink:href="#DejaVuSans-45"/>
      <use x="99.707031" xlink:href="#DejaVuSans-62"/>
      <use x="183.496094" xlink:href="#DejaVuSans-48"/>
     </g>
    </g>
    <g id="line2d_25">
     <path d="M 353.0075 188.4655 
L 373.0075 188.4655 
" style="fill:none;stroke:#008000;stroke-linecap:square;stroke-width:1.5;"/>
    </g>
    <g id="line2d_26"/>
    <g id="text_20">
     <!-- diff -->
     <defs>
      <path d="M 45.40625 46.390625 
L 45.40625 75.984375 
L 54.390625 75.984375 
L 54.390625 0 
L 45.40625 0 
L 45.40625 8.203125 
Q 42.578125 3.328125 38.25 0.953125 
Q 33.9375 -1.421875 27.875 -1.421875 
Q 17.96875 -1.421875 11.734375 6.484375 
Q 5.515625 14.40625 5.515625 27.296875 
Q 5.515625 40.1875 11.734375 48.09375 
Q 17.96875 56 27.875 56 
Q 33.9375 56 38.25 53.625 
Q 42.578125 51.265625 45.40625 46.390625 
z
M 14.796875 27.296875 
Q 14.796875 17.390625 18.875 11.75 
Q 22.953125 6.109375 30.078125 6.109375 
Q 37.203125 6.109375 41.296875 11.75 
Q 45.40625 17.390625 45.40625 27.296875 
Q 45.40625 37.203125 41.296875 42.84375 
Q 37.203125 48.484375 30.078125 48.484375 
Q 22.953125 48.484375 18.875 42.84375 
Q 14.796875 37.203125 14.796875 27.296875 
z
" id="DejaVuSans-100"/>
      <path d="M 9.421875 54.6875 
L 18.40625 54.6875 
L 18.40625 0 
L 9.421875 0 
z
M 9.421875 75.984375 
L 18.40625 75.984375 
L 18.40625 64.59375 
L 9.421875 64.59375 
z
" id="DejaVuSans-105"/>
      <path d="M 37.109375 75.984375 
L 37.109375 68.5 
L 28.515625 68.5 
Q 23.6875 68.5 21.796875 66.546875 
Q 19.921875 64.59375 19.921875 59.515625 
L 19.921875 54.6875 
L 34.71875 54.6875 
L 34.71875 47.703125 
L 19.921875 47.703125 
L 19.921875 0 
L 10.890625 0 
L 10.890625 47.703125 
L 2.296875 47.703125 
L 2.296875 54.6875 
L 10.890625 54.6875 
L 10.890625 58.5 
Q 10.890625 67.625 15.140625 71.796875 
Q 19.390625 75.984375 28.609375 75.984375 
z
" id="DejaVuSans-102"/>
     </defs>
     <g transform="translate(381.0075 191.9655)scale(0.1 -0.1)">
      <use xlink:href="#DejaVuSans-100"/>
      <use x="63.476562" xlink:href="#DejaVuSans-105"/>
      <use x="91.259766" xlink:href="#DejaVuSans-102"/>
      <use x="126.464844" xlink:href="#DejaVuSans-102"/>
     </g>
    </g>
   </g>
  </g>
 </g>
 <defs>
  <clipPath id="p01e624601d">
   <rect height="266.112" width="357.12" x="57.6" y="41.472"/>
  </clipPath>
 </defs>
</svg>
