<?xml version="1.0" encoding="utf-8" standalone="no"?>
<!DOCTYPE svg PUBLIC "-//W3C//DTD SVG 1.1//EN"
  "http://www.w3.org/Graphics/SVG/1.1/DTD/svg11.dtd">
<!-- Created with matplotlib (https://matplotlib.org/) -->
<svg height="345.6pt" version="1.1" viewBox="0 0 460.8 345.6" width="460.8pt" xmlns="http://www.w3.org/2000/svg" xmlns:xlink="http://www.w3.org/1999/xlink">
 <defs>
  <style type="text/css">
*{stroke-linecap:butt;stroke-linejoin:round;}
  </style>
 </defs>
 <g id="figure_1">
  <g id="patch_1">
   <path d="M 0 345.6 
L 460.8 345.6 
L 460.8 0 
L 0 0 
z
" style="fill:#ffffff;"/>
  </g>
  <g id="axes_1">
   <g id="patch_2">
    <path d="M 57.6 307.584 
L 414.72 307.584 
L 414.72 41.472 
L 57.6 41.472 
z
" style="fill:#ffffff;"/>
   </g>
   <g id="matplotlib.axis_1">
    <g id="xtick_1">
     <g id="line2d_1">
      <defs>
       <path d="M 0 0 
L 0 3.5 
" id="m80c69049e6" style="stroke:#000000;stroke-width:0.8;"/>
      </defs>
      <g>
       <use style="stroke:#000000;stroke-width:0.8;" x="73.832727" xlink:href="#m80c69049e6" y="307.584"/>
      </g>
     </g>
     <g id="text_1">
      <!-- 0 -->
      <defs>
       <path d="M 31.78125 66.40625 
Q 24.171875 66.40625 20.328125 58.90625 
Q 16.5 51.421875 16.5 36.375 
Q 16.5 21.390625 20.328125 13.890625 
Q 24.171875 6.390625 31.78125 6.390625 
Q 39.453125 6.390625 43.28125 13.890625 
Q 47.125 21.390625 47.125 36.375 
Q 47.125 51.421875 43.28125 58.90625 
Q 39.453125 66.40625 31.78125 66.40625 
z
M 31.78125 74.21875 
Q 44.046875 74.21875 50.515625 64.515625 
Q 56.984375 54.828125 56.984375 36.375 
Q 56.984375 17.96875 50.515625 8.265625 
Q 44.046875 -1.421875 31.78125 -1.421875 
Q 19.53125 -1.421875 13.0625 8.265625 
Q 6.59375 17.96875 6.59375 36.375 
Q 6.59375 54.828125 13.0625 64.515625 
Q 19.53125 74.21875 31.78125 74.21875 
z
" id="DejaVuSans-48"/>
      </defs>
      <g transform="translate(70.651477 322.182437)scale(0.1 -0.1)">
       <use xlink:href="#DejaVuSans-48"/>
      </g>
     </g>
    </g>
    <g id="xtick_2">
     <g id="line2d_2">
      <g>
       <use style="stroke:#000000;stroke-width:0.8;" x="120.2451" xlink:href="#m80c69049e6" y="307.584"/>
      </g>
     </g>
     <g id="text_2">
      <!-- 200 -->
      <defs>
       <path d="M 19.1875 8.296875 
L 53.609375 8.296875 
L 53.609375 0 
L 7.328125 0 
L 7.328125 8.296875 
Q 12.9375 14.109375 22.625 23.890625 
Q 32.328125 33.6875 34.8125 36.53125 
Q 39.546875 41.84375 41.421875 45.53125 
Q 43.3125 49.21875 43.3125 52.78125 
Q 43.3125 58.59375 39.234375 62.25 
Q 35.15625 65.921875 28.609375 65.921875 
Q 23.96875 65.921875 18.8125 64.3125 
Q 13.671875 62.703125 7.8125 59.421875 
L 7.8125 69.390625 
Q 13.765625 71.78125 18.9375 73 
Q 24.125 74.21875 28.421875 74.21875 
Q 39.75 74.21875 46.484375 68.546875 
Q 53.21875 62.890625 53.21875 53.421875 
Q 53.21875 48.921875 51.53125 44.890625 
Q 49.859375 40.875 45.40625 35.40625 
Q 44.1875 33.984375 37.640625 27.21875 
Q 31.109375 20.453125 19.1875 8.296875 
z
" id="DejaVuSans-50"/>
      </defs>
      <g transform="translate(110.70135 322.182437)scale(0.1 -0.1)">
       <use xlink:href="#DejaVuSans-50"/>
       <use x="63.623047" xlink:href="#DejaVuSans-48"/>
       <use x="127.246094" xlink:href="#DejaVuSans-48"/>
      </g>
     </g>
    </g>
    <g id="xtick_3">
     <g id="line2d_3">
      <g>
       <use style="stroke:#000000;stroke-width:0.8;" x="166.657472" xlink:href="#m80c69049e6" y="307.584"/>
      </g>
     </g>
     <g id="text_3">
      <!-- 400 -->
      <defs>
       <path d="M 37.796875 64.3125 
L 12.890625 25.390625 
L 37.796875 25.390625 
z
M 35.203125 72.90625 
L 47.609375 72.90625 
L 47.609375 25.390625 
L 58.015625 25.390625 
L 58.015625 17.1875 
L 47.609375 17.1875 
L 47.609375 0 
L 37.796875 0 
L 37.796875 17.1875 
L 4.890625 17.1875 
L 4.890625 26.703125 
z
" id="DejaVuSans-52"/>
      </defs>
      <g transform="translate(157.113722 322.182437)scale(0.1 -0.1)">
       <use xlink:href="#DejaVuSans-52"/>
       <use x="63.623047" xlink:href="#DejaVuSans-48"/>
       <use x="127.246094" xlink:href="#DejaVuSans-48"/>
      </g>
     </g>
    </g>
    <g id="xtick_4">
     <g id="line2d_4">
      <g>
       <use style="stroke:#000000;stroke-width:0.8;" x="213.069845" xlink:href="#m80c69049e6" y="307.584"/>
      </g>
     </g>
     <g id="text_4">
      <!-- 600 -->
      <defs>
       <path d="M 33.015625 40.375 
Q 26.375 40.375 22.484375 35.828125 
Q 18.609375 31.296875 18.609375 23.390625 
Q 18.609375 15.53125 22.484375 10.953125 
Q 26.375 6.390625 33.015625 6.390625 
Q 39.65625 6.390625 43.53125 10.953125 
Q 47.40625 15.53125 47.40625 23.390625 
Q 47.40625 31.296875 43.53125 35.828125 
Q 39.65625 40.375 33.015625 40.375 
z
M 52.59375 71.296875 
L 52.59375 62.3125 
Q 48.875 64.0625 45.09375 64.984375 
Q 41.3125 65.921875 37.59375 65.921875 
Q 27.828125 65.921875 22.671875 59.328125 
Q 17.53125 52.734375 16.796875 39.40625 
Q 19.671875 43.65625 24.015625 45.921875 
Q 28.375 48.1875 33.59375 48.1875 
Q 44.578125 48.1875 50.953125 41.515625 
Q 57.328125 34.859375 57.328125 23.390625 
Q 57.328125 12.15625 50.6875 5.359375 
Q 44.046875 -1.421875 33.015625 -1.421875 
Q 20.359375 -1.421875 13.671875 8.265625 
Q 6.984375 17.96875 6.984375 36.375 
Q 6.984375 53.65625 15.1875 63.9375 
Q 23.390625 74.21875 37.203125 74.21875 
Q 40.921875 74.21875 44.703125 73.484375 
Q 48.484375 72.75 52.59375 71.296875 
z
" id="DejaVuSans-54"/>
      </defs>
      <g transform="translate(203.526095 322.182437)scale(0.1 -0.1)">
       <use xlink:href="#DejaVuSans-54"/>
       <use x="63.623047" xlink:href="#DejaVuSans-48"/>
       <use x="127.246094" xlink:href="#DejaVuSans-48"/>
      </g>
     </g>
    </g>
    <g id="xtick_5">
     <g id="line2d_5">
      <g>
       <use style="stroke:#000000;stroke-width:0.8;" x="259.482217" xlink:href="#m80c69049e6" y="307.584"/>
      </g>
     </g>
     <g id="text_5">
      <!-- 800 -->
      <defs>
       <path d="M 31.78125 34.625 
Q 24.75 34.625 20.71875 30.859375 
Q 16.703125 27.09375 16.703125 20.515625 
Q 16.703125 13.921875 20.71875 10.15625 
Q 24.75 6.390625 31.78125 6.390625 
Q 38.8125 6.390625 42.859375 10.171875 
Q 46.921875 13.96875 46.921875 20.515625 
Q 46.921875 27.09375 42.890625 30.859375 
Q 38.875 34.625 31.78125 34.625 
z
M 21.921875 38.8125 
Q 15.578125 40.375 12.03125 44.71875 
Q 8.5 49.078125 8.5 55.328125 
Q 8.5 64.0625 14.71875 69.140625 
Q 20.953125 74.21875 31.78125 74.21875 
Q 42.671875 74.21875 48.875 69.140625 
Q 55.078125 64.0625 55.078125 55.328125 
Q 55.078125 49.078125 51.53125 44.71875 
Q 48 40.375 41.703125 38.8125 
Q 48.828125 37.15625 52.796875 32.3125 
Q 56.78125 27.484375 56.78125 20.515625 
Q 56.78125 9.90625 50.3125 4.234375 
Q 43.84375 -1.421875 31.78125 -1.421875 
Q 19.734375 -1.421875 13.25 4.234375 
Q 6.78125 9.90625 6.78125 20.515625 
Q 6.78125 27.484375 10.78125 32.3125 
Q 14.796875 37.15625 21.921875 38.8125 
z
M 18.3125 54.390625 
Q 18.3125 48.734375 21.84375 45.5625 
Q 25.390625 42.390625 31.78125 42.390625 
Q 38.140625 42.390625 41.71875 45.5625 
Q 45.3125 48.734375 45.3125 54.390625 
Q 45.3125 60.0625 41.71875 63.234375 
Q 38.140625 66.40625 31.78125 66.40625 
Q 25.390625 66.40625 21.84375 63.234375 
Q 18.3125 60.0625 18.3125 54.390625 
z
" id="DejaVuSans-56"/>
      </defs>
      <g transform="translate(249.938467 322.182437)scale(0.1 -0.1)">
       <use xlink:href="#DejaVuSans-56"/>
       <use x="63.623047" xlink:href="#DejaVuSans-48"/>
       <use x="127.246094" xlink:href="#DejaVuSans-48"/>
      </g>
     </g>
    </g>
    <g id="xtick_6">
     <g id="line2d_6">
      <g>
       <use style="stroke:#000000;stroke-width:0.8;" x="305.89459" xlink:href="#m80c69049e6" y="307.584"/>
      </g>
     </g>
     <g id="text_6">
      <!-- 1000 -->
      <defs>
       <path d="M 12.40625 8.296875 
L 28.515625 8.296875 
L 28.515625 63.921875 
L 10.984375 60.40625 
L 10.984375 69.390625 
L 28.421875 72.90625 
L 38.28125 72.90625 
L 38.28125 8.296875 
L 54.390625 8.296875 
L 54.390625 0 
L 12.40625 0 
z
" id="DejaVuSans-49"/>
      </defs>
      <g transform="translate(293.16959 322.182437)scale(0.1 -0.1)">
       <use xlink:href="#DejaVuSans-49"/>
       <use x="63.623047" xlink:href="#DejaVuSans-48"/>
       <use x="127.246094" xlink:href="#DejaVuSans-48"/>
       <use x="190.869141" xlink:href="#DejaVuSans-48"/>
      </g>
     </g>
    </g>
    <g id="xtick_7">
     <g id="line2d_7">
      <g>
       <use style="stroke:#000000;stroke-width:0.8;" x="352.306962" xlink:href="#m80c69049e6" y="307.584"/>
      </g>
     </g>
     <g id="text_7">
      <!-- 1200 -->
      <g transform="translate(339.581962 322.182437)scale(0.1 -0.1)">
       <use xlink:href="#DejaVuSans-49"/>
       <use x="63.623047" xlink:href="#DejaVuSans-50"/>
       <use x="127.246094" xlink:href="#DejaVuSans-48"/>
       <use x="190.869141" xlink:href="#DejaVuSans-48"/>
      </g>
     </g>
    </g>
    <g id="xtick_8">
     <g id="line2d_8">
      <g>
       <use style="stroke:#000000;stroke-width:0.8;" x="398.719335" xlink:href="#m80c69049e6" y="307.584"/>
      </g>
     </g>
     <g id="text_8">
      <!-- 1400 -->
      <g transform="translate(385.994335 322.182437)scale(0.1 -0.1)">
       <use xlink:href="#DejaVuSans-49"/>
       <use x="63.623047" xlink:href="#DejaVuSans-52"/>
       <use x="127.246094" xlink:href="#DejaVuSans-48"/>
       <use x="190.869141" xlink:href="#DejaVuSans-48"/>
      </g>
     </g>
    </g>
   </g>
   <g id="matplotlib.axis_2">
    <g id="ytick_1">
     <g id="line2d_9">
      <defs>
       <path d="M 0 0 
L -3.5 0 
" id="md620153b5d" style="stroke:#000000;stroke-width:0.8;"/>
      </defs>
      <g>
       <use style="stroke:#000000;stroke-width:0.8;" x="57.6" xlink:href="#md620153b5d" y="294.348078"/>
      </g>
     </g>
     <g id="text_9">
      <!-- 0.0 -->
      <defs>
       <path d="M 10.6875 12.40625 
L 21 12.40625 
L 21 0 
L 10.6875 0 
z
" id="DejaVuSans-46"/>
      </defs>
      <g transform="translate(34.696875 298.147297)scale(0.1 -0.1)">
       <use xlink:href="#DejaVuSans-48"/>
       <use x="63.623047" xlink:href="#DejaVuSans-46"/>
       <use x="95.410156" xlink:href="#DejaVuSans-48"/>
      </g>
     </g>
    </g>
    <g id="ytick_2">
     <g id="line2d_10">
      <g>
       <use style="stroke:#000000;stroke-width:0.8;" x="57.6" xlink:href="#md620153b5d" y="237.059568"/>
      </g>
     </g>
     <g id="text_10">
      <!-- 0.1 -->
      <g transform="translate(34.696875 240.858787)scale(0.1 -0.1)">
       <use xlink:href="#DejaVuSans-48"/>
       <use x="63.623047" xlink:href="#DejaVuSans-46"/>
       <use x="95.410156" xlink:href="#DejaVuSans-49"/>
      </g>
     </g>
    </g>
    <g id="ytick_3">
     <g id="line2d_11">
      <g>
       <use style="stroke:#000000;stroke-width:0.8;" x="57.6" xlink:href="#md620153b5d" y="179.771059"/>
      </g>
     </g>
     <g id="text_11">
      <!-- 0.2 -->
      <g transform="translate(34.696875 183.570278)scale(0.1 -0.1)">
       <use xlink:href="#DejaVuSans-48"/>
       <use x="63.623047" xlink:href="#DejaVuSans-46"/>
       <use x="95.410156" xlink:href="#DejaVuSans-50"/>
      </g>
     </g>
    </g>
    <g id="ytick_4">
     <g id="line2d_12">
      <g>
       <use style="stroke:#000000;stroke-width:0.8;" x="57.6" xlink:href="#md620153b5d" y="122.482549"/>
      </g>
     </g>
     <g id="text_12">
      <!-- 0.3 -->
      <defs>
       <path d="M 40.578125 39.3125 
Q 47.65625 37.796875 51.625 33 
Q 55.609375 28.21875 55.609375 21.1875 
Q 55.609375 10.40625 48.1875 4.484375 
Q 40.765625 -1.421875 27.09375 -1.421875 
Q 22.515625 -1.421875 17.65625 -0.515625 
Q 12.796875 0.390625 7.625 2.203125 
L 7.625 11.71875 
Q 11.71875 9.328125 16.59375 8.109375 
Q 21.484375 6.890625 26.8125 6.890625 
Q 36.078125 6.890625 40.9375 10.546875 
Q 45.796875 14.203125 45.796875 21.1875 
Q 45.796875 27.640625 41.28125 31.265625 
Q 36.765625 34.90625 28.71875 34.90625 
L 20.21875 34.90625 
L 20.21875 43.015625 
L 29.109375 43.015625 
Q 36.375 43.015625 40.234375 45.921875 
Q 44.09375 48.828125 44.09375 54.296875 
Q 44.09375 59.90625 40.109375 62.90625 
Q 36.140625 65.921875 28.71875 65.921875 
Q 24.65625 65.921875 20.015625 65.03125 
Q 15.375 64.15625 9.8125 62.3125 
L 9.8125 71.09375 
Q 15.4375 72.65625 20.34375 73.4375 
Q 25.25 74.21875 29.59375 74.21875 
Q 40.828125 74.21875 47.359375 69.109375 
Q 53.90625 64.015625 53.90625 55.328125 
Q 53.90625 49.265625 50.4375 45.09375 
Q 46.96875 40.921875 40.578125 39.3125 
z
" id="DejaVuSans-51"/>
      </defs>
      <g transform="translate(34.696875 126.281768)scale(0.1 -0.1)">
       <use xlink:href="#DejaVuSans-48"/>
       <use x="63.623047" xlink:href="#DejaVuSans-46"/>
       <use x="95.410156" xlink:href="#DejaVuSans-51"/>
      </g>
     </g>
    </g>
    <g id="ytick_5">
     <g id="line2d_13">
      <g>
       <use style="stroke:#000000;stroke-width:0.8;" x="57.6" xlink:href="#md620153b5d" y="65.19404"/>
      </g>
     </g>
     <g id="text_13">
      <!-- 0.4 -->
      <g transform="translate(34.696875 68.993259)scale(0.1 -0.1)">
       <use xlink:href="#DejaVuSans-48"/>
       <use x="63.623047" xlink:href="#DejaVuSans-46"/>
       <use x="95.410156" xlink:href="#DejaVuSans-52"/>
      </g>
     </g>
    </g>
   </g>
   <g id="line2d_14">
    <path clip-path="url(#pe1a072ffe8)" d="M 73.832727 59.253727 
L 75.225098 58.842175 
L 75.921284 58.812264 
L 77.081593 59.046191 
L 78.938088 59.548232 
L 79.866336 59.4787 
L 81.026645 59.097585 
L 82.651078 58.550399 
L 83.579325 58.453136 
L 84.507573 58.59578 
L 86.828192 59.281895 
L 87.756439 59.230642 
L 88.916748 58.857495 
L 90.541181 58.327774 
L 91.469429 58.301141 
L 92.397676 58.537514 
L 94.254171 59.144737 
L 95.182419 59.170364 
L 96.110666 58.943648 
L 98.663347 58.0717 
L 99.359532 58.111059 
L 100.28778 58.38662 
L 102.144274 59.037889 
L 103.072522 59.050578 
L 104.000769 58.786189 
L 106.321388 57.911679 
L 107.017574 57.913256 
L 107.945821 58.164387 
L 110.034378 58.88782 
L 110.730563 58.88544 
L 111.658811 58.636452 
L 113.979429 57.805375 
L 114.907677 57.837921 
L 115.835924 58.133965 
L 117.460357 58.730702 
L 118.156543 58.790689 
L 119.08479 58.60298 
L 121.869533 57.633724 
L 122.79778 57.750255 
L 124.190151 58.283412 
L 125.350461 58.618466 
L 126.278708 58.592142 
L 127.206956 58.300959 
L 129.295512 57.570402 
L 130.22376 57.609495 
L 131.152007 57.90298 
L 132.77644 58.518278 
L 133.704688 58.571433 
L 134.632935 58.316703 
L 136.721492 57.498026 
L 137.417678 57.449964 
L 138.345925 57.643203 
L 140.898605 58.501655 
L 141.594791 58.437519 
L 142.523039 58.115758 
L 144.379533 57.3671 
L 145.075719 57.30572 
L 145.771905 57.436351 
L 146.932214 57.897612 
L 148.092523 58.319556 
L 148.788709 58.38956 
L 149.484894 58.276536 
L 150.645204 57.791592 
L 152.037575 57.227755 
L 152.73376 57.151607 
L 153.662008 57.325549 
L 156.44675 58.205432 
L 157.142936 58.109743 
L 158.071183 57.757614 
L 159.695616 57.087948 
L 160.391802 57.008374 
L 161.320049 57.167299 
L 164.104792 58.031521 
L 165.033039 57.884095 
L 166.42541 57.287836 
L 167.58572 56.906953 
L 168.281905 56.884204 
L 169.210153 57.107943 
L 171.298709 57.848251 
L 171.994895 57.867041 
L 172.923143 57.636309 
L 175.475823 56.728169 
L 176.172009 56.775756 
L 177.100256 57.055269 
L 178.956751 57.70992 
L 179.652937 57.735065 
L 180.581184 57.510249 
L 183.133864 56.597438 
L 183.83005 56.635024 
L 184.758297 56.920911 
L 186.614792 57.588832 
L 187.54304 57.595398 
L 188.239225 57.413482 
L 190.559844 56.530194 
L 191.25603 56.504422 
L 192.184277 56.724356 
L 194.504896 57.506307 
L 195.201081 57.479404 
L 196.129329 57.197925 
L 198.217886 56.399803 
L 198.914071 56.379548 
L 199.842319 56.611437 
L 201.930875 57.34259 
L 202.627061 57.356121 
L 203.555308 57.138042 
L 205.875927 56.275389 
L 206.572113 56.260808 
L 207.50036 56.495491 
L 209.820979 57.274865 
L 210.517164 57.241877 
L 211.445412 56.952768 
L 213.301907 56.207914 
L 213.998092 56.128654 
L 214.92634 56.281472 
L 217.711082 57.127072 
L 218.639329 56.983974 
L 220.031701 56.408987 
L 221.19201 56.038338 
L 221.888195 56.017589 
L 222.584381 56.16525 
L 225.369123 57.063895 
L 226.065309 56.981313 
L 226.993556 56.649325 
L 228.617989 55.982476 
L 229.314175 55.893776 
L 230.242423 56.043441 
L 233.027165 56.940336 
L 233.72335 56.855296 
L 234.651598 56.520892 
L 236.276031 55.86915 
L 237.204278 55.8003 
L 238.132526 56.021756 
L 240.453144 56.823099 
L 241.14933 56.802963 
L 242.077577 56.53064 
L 244.166134 55.736473 
L 244.86232 55.70827 
L 245.790567 55.91998 
L 248.111186 56.688296 
L 248.807371 56.667055 
L 249.735619 56.395818 
L 251.824176 55.611315 
L 252.520361 55.584755 
L 253.448609 55.803288 
L 255.769227 56.569864 
L 256.465413 56.547735 
L 257.39366 56.278976 
L 259.482217 55.483061 
L 260.178403 55.445243 
L 261.10665 55.648622 
L 263.427269 56.42984 
L 264.123454 56.418179 
L 265.051702 56.159499 
L 267.140259 55.37037 
L 267.836444 55.333906 
L 268.764692 55.53196 
L 271.08531 56.261079 
L 272.013558 56.196944 
L 273.173867 55.802518 
L 274.566238 55.333337 
L 275.494486 55.237596 
L 276.422733 55.404091 
L 278.975414 56.161008 
L 279.903661 56.063707 
L 281.06397 55.64397 
L 282.456342 55.166774 
L 283.384589 55.129349 
L 284.312836 55.353805 
L 286.401393 56.040694 
L 287.329641 56.030716 
L 288.257888 55.766353 
L 290.346445 55.059576 
L 291.274692 55.077416 
L 292.20294 55.335487 
L 294.059435 55.921814 
L 294.987682 55.914127 
L 295.91593 55.659363 
L 298.004486 54.955478 
L 298.932734 54.963089 
L 299.860981 55.210926 
L 301.717476 55.790306 
L 302.645724 55.77809 
L 303.573971 55.513581 
L 305.662528 54.808888 
L 306.590775 54.817712 
L 307.751085 55.141837 
L 309.375518 55.617113 
L 310.303765 55.604214 
L 311.232012 55.354891 
L 313.320569 54.692038 
L 314.248817 54.706461 
L 315.409126 55.027375 
L 317.033559 55.497036 
L 317.961806 55.488105 
L 318.890054 55.245212 
L 320.978611 54.588475 
L 321.906858 54.602798 
L 323.067167 54.928738 
L 324.6916 55.425502 
L 325.619848 55.421107 
L 326.548095 55.179574 
L 328.636652 54.493744 
L 329.5649 54.486186 
L 330.725209 54.798468 
L 332.349642 55.285022 
L 333.277889 55.290279 
L 334.206137 55.051371 
L 336.526755 54.305995 
L 337.455003 54.362968 
L 338.615312 54.710387 
L 340.007683 55.120115 
L 340.935931 55.133342 
L 342.09624 54.856478 
L 343.952735 54.336781 
L 344.880983 54.321036 
L 345.80923 54.506585 
L 347.897787 55.024747 
L 348.826034 55.004996 
L 349.986343 54.715411 
L 351.610777 54.273736 
L 352.539024 54.240744 
L 353.699333 54.46094 
L 355.555828 54.888815 
L 356.484076 54.866943 
L 357.644385 54.600776 
L 359.50088 54.142258 
L 360.429127 54.160834 
L 361.589437 54.422155 
L 363.21387 54.791261 
L 364.142117 54.769059 
L 365.302426 54.49673 
L 366.926859 54.070048 
L 367.855107 54.04256 
L 369.015416 54.274996 
L 370.871911 54.718591 
L 371.800159 54.705506 
L 372.960468 54.433947 
L 374.584901 54.014403 
L 375.513148 53.987146 
L 376.673458 54.205888 
L 378.529953 54.617779 
L 379.4582 54.59338 
L 380.850571 54.281269 
L 382.242942 53.926477 
L 383.17119 53.892343 
L 384.331499 54.109529 
L 386.187994 54.521677 
L 387.116241 54.491129 
L 388.276551 54.204417 
L 389.900984 53.763331 
L 390.829231 53.727288 
L 391.989541 53.955786 
L 393.846035 54.38817 
L 394.774283 54.35077 
L 395.934592 54.052741 
L 397.559025 53.607503 
L 398.487273 53.583122 
L 398.487273 53.583122 
" style="fill:none;stroke:#1f77b4;stroke-linecap:square;stroke-width:1.5;"/>
   </g>
   <g id="line2d_15">
    <path clip-path="url(#pe1a072ffe8)" d="M 73.832727 59.329442 
L 75.225098 59.706605 
L 76.153346 59.649347 
L 77.313655 59.283205 
L 78.473965 58.713317 
L 79.17015 58.588446 
L 80.098398 58.695817 
L 81.954892 59.190253 
L 83.347264 59.384754 
L 84.275511 59.225949 
L 87.292315 58.343376 
L 88.220563 58.487953 
L 91.005305 59.236672 
L 91.933553 59.10208 
L 94.950357 58.227766 
L 96.110666 58.333175 
L 98.663347 59.13304 
L 99.591594 59.013904 
L 100.751903 58.555894 
L 101.912213 58.106748 
L 102.84046 58.00681 
L 103.536646 58.119513 
L 104.929017 58.641928 
L 105.625202 58.80915 
L 106.55345 58.980625 
L 107.481697 58.841111 
L 109.10613 58.143139 
L 110.034378 57.872879 
L 110.730563 57.844871 
L 111.658811 58.063784 
L 113.979429 58.840806 
L 114.675615 58.829346 
L 115.603862 58.552571 
L 117.924481 57.698444 
L 118.620667 57.73312 
L 119.548914 58.016403 
L 121.405409 58.68761 
L 122.101595 58.708695 
L 123.029842 58.492786 
L 125.350461 57.624223 
L 126.278708 57.627259 
L 127.206956 57.894123 
L 129.063451 58.551698 
L 129.759636 58.591119 
L 130.687884 58.39097 
L 133.472626 57.506095 
L 134.400873 57.671158 
L 137.185616 58.545705 
L 137.881801 58.455164 
L 138.810049 58.122977 
L 140.434482 57.458967 
L 141.130667 57.373169 
L 142.058915 57.535709 
L 144.843657 58.443158 
L 145.539843 58.356003 
L 146.700152 57.913688 
L 148.092523 57.333179 
L 148.788709 57.249638 
L 149.484894 57.325941 
L 150.877266 57.846384 
L 152.037575 58.246389 
L 152.965822 58.263777 
L 154.126132 57.87323 
L 155.750565 57.191279 
L 156.44675 57.102076 
L 157.374998 57.223446 
L 158.767369 57.766664 
L 159.695616 58.05371 
L 160.391802 58.101314 
L 161.087988 57.976055 
L 162.480359 57.404873 
L 163.640668 56.998395 
L 164.336854 56.949291 
L 165.265101 57.133687 
L 167.817782 57.973768 
L 168.513967 57.912734 
L 169.442215 57.582392 
L 171.066648 56.894077 
L 171.994895 56.801011 
L 172.691081 56.918788 
L 174.083452 57.464966 
L 175.011699 57.756544 
L 175.707885 57.807011 
L 176.40407 57.690689 
L 177.56438 57.226837 
L 178.724689 56.770153 
L 179.652937 56.660627 
L 180.581184 56.849255 
L 183.133864 57.680937 
L 183.83005 57.635072 
L 184.758297 57.315979 
L 186.150669 56.709622 
L 186.846854 56.551786 
L 187.775102 56.606177 
L 188.703349 56.913142 
L 190.327782 57.528417 
L 191.25603 57.569494 
L 192.184277 57.310812 
L 194.504896 56.444583 
L 195.201081 56.445896 
L 196.129329 56.692065 
L 198.217886 57.441971 
L 199.146133 57.409337 
L 200.07438 57.073639 
L 201.698813 56.395368 
L 202.627061 56.308232 
L 203.555308 56.510386 
L 206.107989 57.324741 
L 206.804174 57.263282 
L 207.732422 56.948786 
L 209.588917 56.246747 
L 210.517164 56.208155 
L 211.445412 56.469919 
L 213.301907 57.156048 
L 214.230154 57.186825 
L 215.158401 56.926494 
L 217.47902 56.084634 
L 218.407268 56.131751 
L 219.567577 56.513603 
L 220.959948 57.005731 
L 221.656134 57.06893 
L 222.584381 56.899253 
L 225.369123 55.988477 
L 226.065309 56.035533 
L 226.993556 56.336829 
L 228.617989 56.944038 
L 229.546237 56.981499 
L 230.242423 56.813369 
L 233.027165 55.837181 
L 233.955412 55.956578 
L 235.115722 56.411375 
L 236.276031 56.824221 
L 236.972217 56.885871 
L 237.900464 56.705557 
L 240.685206 55.751121 
L 241.381392 55.813635 
L 242.309639 56.118166 
L 243.934072 56.711929 
L 244.86232 56.749814 
L 245.790567 56.506899 
L 248.111186 55.664888 
L 248.807371 55.647898 
L 249.735619 55.896669 
L 251.824176 56.616959 
L 252.520361 56.625141 
L 253.448609 56.385781 
L 255.769227 55.540629 
L 256.465413 55.534048 
L 257.39366 55.759376 
L 259.482217 56.480561 
L 260.410465 56.458383 
L 261.338712 56.166553 
L 263.195207 55.449646 
L 264.123454 55.399985 
L 265.051702 55.629301 
L 267.37232 56.390208 
L 268.068506 56.345826 
L 270.621187 55.376157 
L 271.549434 55.25925 
L 272.24562 55.352055 
L 273.870053 55.933724 
L 274.7983 56.189758 
L 275.726548 56.191862 
L 276.654795 55.933167 
L 278.975414 55.181846 
L 279.903661 55.242153 
L 281.06397 55.62887 
L 282.22428 56.020169 
L 283.152527 56.10297 
L 284.080775 55.919097 
L 286.401393 55.115788 
L 287.329641 55.11216 
L 288.48995 55.44089 
L 290.114383 55.96585 
L 291.04263 55.991328 
L 291.970878 55.751865 
L 294.291497 54.995769 
L 295.219744 55.043548 
L 296.380053 55.405794 
L 297.772424 55.83885 
L 298.700672 55.865179 
L 299.628919 55.640221 
L 301.949538 54.848349 
L 302.645724 54.862422 
L 303.573971 55.104996 
L 305.198404 55.64255 
L 306.126652 55.727452 
L 307.054899 55.544997 
L 309.839641 54.712704 
L 310.767889 54.840972 
L 312.392322 55.368583 
L 313.552631 55.584104 
L 314.480879 55.478132 
L 315.641188 55.081489 
L 317.033559 54.648799 
L 317.961806 54.636679 
L 318.890054 54.852235 
L 320.746549 55.429339 
L 321.906858 55.443078 
L 323.067167 55.083794 
L 324.6916 54.555734 
L 325.619848 54.542045 
L 326.548095 54.756203 
L 328.636652 55.381146 
L 329.332838 55.383466 
L 330.261085 55.168951 
L 332.581704 54.404925 
L 333.509951 54.424476 
L 334.206137 54.58188 
L 336.294694 55.225855 
L 337.222941 55.1855 
L 338.151189 54.909416 
L 340.239745 54.241043 
L 340.703869 54.353353 
L 341.632116 54.47782 
L 344.416859 55.07712 
L 345.577168 54.908484 
L 348.129849 54.288028 
L 349.058096 54.3489 
L 350.450467 54.692965 
L 351.842838 54.967858 
L 352.771086 54.906233 
L 354.163457 54.542153 
L 355.555828 54.206104 
L 356.484076 54.202217 
L 357.644385 54.444042 
L 359.268818 54.824978 
L 360.197065 54.829062 
L 361.125313 54.66193 
L 363.21387 54.099318 
L 364.142117 54.088073 
L 365.534488 54.406927 
L 367.158921 54.770015 
L 368.087169 54.72525 
L 369.247478 54.424114 
L 370.871911 54.023503 
L 371.800159 54.025607 
L 372.960468 54.276766 
L 374.584901 54.669671 
L 375.513148 54.672815 
L 376.673458 54.411147 
L 378.529953 53.944987 
L 379.4582 53.936514 
L 380.618509 54.199626 
L 382.475004 54.604282 
L 383.403252 54.551112 
L 384.563561 54.24973 
L 386.187994 53.827227 
L 387.116241 53.818674 
L 388.276551 54.061015 
L 390.133046 54.457101 
L 391.061293 54.409215 
L 392.221602 54.110782 
L 393.14985 53.801125 
L 394.078097 53.636336 
L 395.006345 53.685642 
L 396.630778 54.123566 
L 397.791087 54.332792 
L 398.487273 54.301199 
L 398.487273 54.301199 
" style="fill:none;stroke:#ff0000;stroke-linecap:square;stroke-width:1.5;"/>
   </g>
   <g id="line2d_16">
    <path clip-path="url(#pe1a072ffe8)" d="M 73.832727 294.272363 
L 74.760975 293.728712 
L 75.45716 293.444803 
L 76.153346 293.539024 
L 77.081593 293.985725 
L 78.473965 295.113603 
L 78.938088 295.29076 
L 79.402212 295.306698 
L 80.098398 295.07416 
L 82.651078 293.568778 
L 83.347264 293.417674 
L 84.043449 293.548428 
L 84.739635 293.951786 
L 86.59613 295.19496 
L 87.292315 295.293233 
L 87.988501 295.097692 
L 88.916748 294.484786 
L 90.30912 293.554784 
L 91.005305 293.391328 
L 91.469429 293.445149 
L 92.165614 293.780006 
L 94.486233 295.280968 
L 95.182419 295.281499 
L 95.878604 295.106717 
L 96.806852 294.404235 
L 97.967161 293.521137 
L 98.663347 293.286738 
L 99.12747 293.316982 
L 99.823656 293.628085 
L 100.983965 294.573371 
L 101.912213 295.234077 
L 102.608398 295.416456 
L 103.304584 295.298749 
L 104.232831 294.691049 
L 105.625202 293.614569 
L 106.321388 293.296599 
L 106.785512 293.270563 
L 107.249635 293.392186 
L 107.945821 293.849977 
L 109.802316 295.277978 
L 110.498502 295.419004 
L 111.194687 295.219159 
L 112.122935 294.54909 
L 113.283244 293.628286 
L 113.979429 293.312646 
L 114.443553 293.276815 
L 115.139739 293.521886 
L 116.067986 294.228677 
L 117.228296 295.178846 
L 117.924481 295.439637 
L 118.388605 295.424383 
L 119.08479 295.10185 
L 120.013038 294.349625 
L 121.173347 293.453651 
L 121.869533 293.256246 
L 122.565718 293.409252 
L 123.261904 293.855622 
L 125.118399 295.254333 
L 125.582523 295.389373 
L 126.278708 295.312961 
L 126.974894 294.933732 
L 129.063451 293.403913 
L 129.527574 293.302144 
L 130.22376 293.434321 
L 130.919945 293.845967 
L 132.77644 295.287032 
L 133.472626 295.435121 
L 134.168811 295.217967 
L 134.864997 294.72495 
L 136.48943 293.438801 
L 137.185616 293.253109 
L 137.649739 293.316283 
L 138.345925 293.678421 
L 140.666544 295.409507 
L 141.130667 295.475277 
L 141.826853 295.254275 
L 142.523039 294.76152 
L 144.379533 293.314832 
L 144.843657 293.210132 
L 145.307781 293.268466 
L 146.003966 293.644807 
L 148.324585 295.429484 
L 149.020771 295.464148 
L 149.484894 295.298673 
L 150.413142 294.604164 
L 151.805513 293.444867 
L 152.501699 293.206672 
L 152.965822 293.251617 
L 153.662008 293.60865 
L 154.822317 294.612867 
L 155.750565 295.283394 
L 156.214688 295.433674 
L 156.910874 295.378741 
L 157.60706 295.007306 
L 159.927678 293.299545 
L 160.391802 293.255137 
L 160.855926 293.364856 
L 161.552111 293.780856 
L 163.640668 295.339079 
L 164.104792 295.436038 
L 164.800977 295.287011 
L 165.497163 294.842639 
L 167.353658 293.384551 
L 167.817782 293.253752 
L 168.281905 293.279458 
L 168.978091 293.60709 
L 170.1384 294.598756 
L 171.066648 295.25806 
L 171.762833 295.432277 
L 172.459019 295.272032 
L 173.155204 294.814938 
L 174.779637 293.503413 
L 175.475823 293.266101 
L 175.939947 293.30326 
L 176.636132 293.622235 
L 177.796442 294.57371 
L 178.724689 295.24208 
L 179.420875 295.435512 
L 179.884998 295.37169 
L 180.581184 295.009072 
L 181.741493 294.024338 
L 182.669741 293.389176 
L 183.365926 293.248143 
L 184.062112 293.44956 
L 184.758297 293.95301 
L 186.150669 295.117874 
L 186.846854 295.413415 
L 187.310978 295.426809 
L 188.007164 295.176374 
L 188.935411 294.446767 
L 190.09572 293.51555 
L 190.791906 293.265807 
L 191.25603 293.283006 
L 191.952215 293.595869 
L 193.112525 294.553571 
L 194.040772 295.238346 
L 194.736958 295.439016 
L 195.201081 295.381586 
L 195.897267 295.031178 
L 198.217886 293.30591 
L 198.682009 293.252151 
L 199.146133 293.35165 
L 199.842319 293.784425 
L 201.698813 295.254437 
L 202.394999 295.419655 
L 203.091185 295.248255 
L 203.78737 294.802435 
L 205.643865 293.392754 
L 206.340051 293.267908 
L 207.036236 293.490065 
L 207.964484 294.18092 
L 209.124793 295.11781 
L 209.820979 295.409713 
L 210.517164 295.3818 
L 211.21335 295.019322 
L 213.301907 293.399945 
L 213.998092 293.264471 
L 214.694278 293.484028 
L 215.390463 293.957883 
L 217.014896 295.220342 
L 217.711082 295.406317 
L 218.407268 295.262831 
L 219.103453 294.829179 
L 220.959948 293.426978 
L 221.656134 293.281666 
L 222.352319 293.476988 
L 223.280567 294.152038 
L 224.672938 295.218176 
L 225.369123 295.423496 
L 225.833247 295.376591 
L 226.529433 295.029403 
L 228.850051 293.305503 
L 229.314175 293.242357 
L 229.778299 293.333524 
L 230.474484 293.740907 
L 232.563041 295.362424 
L 233.259227 295.440036 
L 233.955412 295.182321 
L 234.651598 294.656659 
L 236.043969 293.510223 
L 236.740155 293.265698 
L 237.204278 293.284837 
L 237.900464 293.586313 
L 239.060773 294.53715 
L 239.989021 295.228783 
L 240.685206 295.433143 
L 241.14933 295.379554 
L 241.845516 295.031265 
L 243.005825 294.054394 
L 243.934072 293.421337 
L 244.630258 293.279681 
L 245.094382 293.371707 
L 245.790567 293.761158 
L 247.879124 295.3029 
L 248.57531 295.414134 
L 249.271495 295.167922 
L 250.199743 294.459049 
L 251.360052 293.549445 
L 252.056238 293.291061 
L 252.520361 293.307692 
L 253.216547 293.606376 
L 254.144794 294.338455 
L 255.305104 295.202861 
L 256.001289 295.41112 
L 256.465413 295.361766 
L 257.161599 295.020741 
L 258.089846 294.282977 
L 259.018093 293.563741 
L 259.714279 293.296333 
L 260.178403 293.301188 
L 260.874588 293.584732 
L 261.802836 294.305942 
L 262.963145 295.186976 
L 263.659331 295.405512 
L 264.123454 295.366271 
L 264.81964 295.04204 
L 265.979949 294.096162 
L 266.908197 293.443125 
L 267.604382 293.280938 
L 268.068506 293.361549 
L 269.228815 294.158002 
L 270.389125 295.046557 
L 271.08531 295.319339 
L 271.781496 295.317089 
L 272.477681 294.993856 
L 274.7983 293.440043 
L 275.494486 293.368753 
L 276.190671 293.598881 
L 277.118919 294.237092 
L 278.279228 295.088293 
L 278.975414 295.32724 
L 279.439537 295.31096 
L 280.135723 295.04878 
L 281.06397 294.363177 
L 281.992218 293.668459 
L 282.688403 293.384604 
L 283.384589 293.39737 
L 284.080775 293.707135 
L 286.401393 295.272984 
L 287.097579 295.322922 
L 287.793764 295.062352 
L 288.722012 294.397968 
L 289.882321 293.579486 
L 290.578507 293.375399 
L 291.04263 293.403957 
L 291.738816 293.704025 
L 292.899125 294.563071 
L 293.827373 295.155277 
L 294.523558 295.319046 
L 295.219744 295.174797 
L 295.91593 294.771754 
L 297.772424 293.505282 
L 298.46861 293.387055 
L 299.164796 293.57363 
L 300.093043 294.181043 
L 301.485414 295.170979 
L 302.1816 295.33584 
L 302.877785 295.179785 
L 303.573971 294.756662 
L 305.198404 293.608299 
L 305.89459 293.405369 
L 306.358713 293.431467 
L 307.054899 293.719419 
L 308.215208 294.555068 
L 309.143456 295.135453 
L 309.839641 295.279188 
L 310.535827 295.127189 
L 311.464074 294.561107 
L 312.856446 293.641263 
L 313.552631 293.435058 
L 314.248817 293.525596 
L 314.945002 293.878265 
L 317.033559 295.196314 
L 317.729745 295.245691 
L 318.42593 295.018249 
L 319.354178 294.404634 
L 320.514487 293.643006 
L 321.210673 293.442892 
L 321.906858 293.507798 
L 322.603044 293.867624 
L 324.6916 295.217846 
L 325.387786 295.270247 
L 326.083972 295.039934 
L 327.012219 294.442518 
L 328.172528 293.646513 
L 328.868714 293.411881 
L 329.5649 293.487106 
L 330.261085 293.825278 
L 332.349642 295.194011 
L 333.045828 295.272999 
L 333.742013 295.095224 
L 334.670261 294.463201 
L 335.83057 293.630933 
L 336.526755 293.412575 
L 337.222941 293.486632 
L 337.919127 293.835914 
L 340.239745 295.254803 
L 340.703869 295.15073 
L 341.400055 294.972375 
L 342.560364 294.30632 
L 343.720673 293.688934 
L 344.416859 293.572084 
L 345.113044 293.689531 
L 345.80923 294.00928 
L 347.665725 295.008254 
L 348.36191 295.114475 
L 349.058096 294.96398 
L 349.986343 294.500852 
L 351.378715 293.74908 
L 352.0749 293.601953 
L 352.771086 293.70652 
L 353.699333 294.122497 
L 355.091704 294.889483 
L 355.78789 295.069112 
L 356.484076 295.012804 
L 357.180261 294.755897 
L 359.50088 293.645262 
L 360.197065 293.655579 
L 360.893251 293.863702 
L 363.445932 295.073595 
L 364.142117 295.029064 
L 365.070365 294.637977 
L 366.926859 293.67609 
L 367.623045 293.605494 
L 368.319231 293.770607 
L 369.247478 294.265792 
L 370.639849 294.982499 
L 371.336035 295.085231 
L 372.03222 294.961998 
L 372.960468 294.505259 
L 374.352839 293.761485 
L 375.049025 293.624604 
L 375.74521 293.719492 
L 376.673458 294.142818 
L 378.297891 294.96441 
L 378.994076 295.063273 
L 379.690262 294.936242 
L 380.618509 294.501305 
L 382.242942 293.690865 
L 382.939128 293.621895 
L 383.635314 293.788717 
L 384.563561 294.270818 
L 385.72387 294.901174 
L 386.420056 295.076885 
L 387.116241 295.020533 
L 387.812427 294.750022 
L 389.900984 293.672039 
L 390.597169 293.601459 
L 391.293355 293.771055 
L 392.221602 294.259622 
L 393.14985 294.824212 
L 393.846035 295.076521 
L 394.542221 295.094634 
L 395.238407 294.872784 
L 396.398716 294.188324 
L 397.326963 293.70978 
L 398.023149 293.584062 
L 398.487273 293.630001 
L 398.487273 293.630001 
" style="fill:none;stroke:#008000;stroke-linecap:square;stroke-width:1.5;"/>
   </g>
   <g id="patch_3">
    <path d="M 57.6 307.584 
L 57.6 41.472 
" style="fill:none;stroke:#000000;stroke-linecap:square;stroke-linejoin:miter;stroke-width:0.8;"/>
   </g>
   <g id="patch_4">
    <path d="M 414.72 307.584 
L 414.72 41.472 
" style="fill:none;stroke:#000000;stroke-linecap:square;stroke-linejoin:miter;stroke-width:0.8;"/>
   </g>
   <g id="patch_5">
    <path d="M 57.6 307.584 
L 414.72 307.584 
" style="fill:none;stroke:#000000;stroke-linecap:square;stroke-linejoin:miter;stroke-width:0.8;"/>
   </g>
   <g id="patch_6">
    <path d="M 57.6 41.472 
L 414.72 41.472 
" style="fill:none;stroke:#000000;stroke-linecap:square;stroke-linejoin:miter;stroke-width:0.8;"/>
   </g>
   <g id="legend_1">
    <g id="patch_7">
     <path d="M 351.0075 198.045187 
L 407.72 198.045187 
Q 409.72 198.045187 409.72 196.045187 
L 409.72 153.010812 
Q 409.72 151.010812 407.72 151.010812 
L 351.0075 151.010812 
Q 349.0075 151.010812 349.0075 153.010812 
L 349.0075 196.045187 
Q 349.0075 198.045187 351.0075 198.045187 
z
" style="fill:#ffffff;opacity:0.8;stroke:#cccccc;stroke-linejoin:miter;"/>
    </g>
    <g id="line2d_17">
     <path d="M 353.0075 159.10925 
L 373.0075 159.10925 
" style="fill:none;stroke:#1f77b4;stroke-linecap:square;stroke-width:1.5;"/>
    </g>
    <g id="line2d_18"/>
    <g id="text_14">
     <!-- 0-&gt;1 -->
     <defs>
      <path d="M 4.890625 31.390625 
L 31.203125 31.390625 
L 31.203125 23.390625 
L 4.890625 23.390625 
z
" id="DejaVuSans-45"/>
      <path d="M 10.59375 49.21875 
L 10.59375 58.109375 
L 73.1875 35.40625 
L 73.1875 27.296875 
L 10.59375 4.59375 
L 10.59375 13.484375 
L 60.890625 31.296875 
z
" id="DejaVuSans-62"/>
     </defs>
     <g transform="translate(381.0075 162.60925)scale(0.1 -0.1)">
      <use xlink:href="#DejaVuSans-48"/>
      <use x="63.623047" xlink:href="#DejaVuSans-45"/>
      <use x="99.707031" xlink:href="#DejaVuSans-62"/>
      <use x="183.496094" xlink:href="#DejaVuSans-49"/>
     </g>
    </g>
    <g id="line2d_19">
     <path d="M 353.0075 173.787375 
L 373.0075 173.787375 
" style="fill:none;stroke:#ff0000;stroke-linecap:square;stroke-width:1.5;"/>
    </g>
    <g id="line2d_20"/>
    <g id="text_15">
     <!-- 1-&gt;0 -->
     <g transform="translate(381.0075 177.287375)scale(0.1 -0.1)">
      <use xlink:href="#DejaVuSans-49"/>
      <use x="63.623047" xlink:href="#DejaVuSans-45"/>
      <use x="99.707031" xlink:href="#DejaVuSans-62"/>
      <use x="183.496094" xlink:href="#DejaVuSans-48"/>
     </g>
    </g>
    <g id="line2d_21">
     <path d="M 353.0075 188.4655 
L 373.0075 188.4655 
" style="fill:none;stroke:#008000;stroke-linecap:square;stroke-width:1.5;"/>
    </g>
    <g id="line2d_22"/>
    <g id="text_16">
     <!-- diff -->
     <defs>
      <path d="M 45.40625 46.390625 
L 45.40625 75.984375 
L 54.390625 75.984375 
L 54.390625 0 
L 45.40625 0 
L 45.40625 8.203125 
Q 42.578125 3.328125 38.25 0.953125 
Q 33.9375 -1.421875 27.875 -1.421875 
Q 17.96875 -1.421875 11.734375 6.484375 
Q 5.515625 14.40625 5.515625 27.296875 
Q 5.515625 40.1875 11.734375 48.09375 
Q 17.96875 56 27.875 56 
Q 33.9375 56 38.25 53.625 
Q 42.578125 51.265625 45.40625 46.390625 
z
M 14.796875 27.296875 
Q 14.796875 17.390625 18.875 11.75 
Q 22.953125 6.109375 30.078125 6.109375 
Q 37.203125 6.109375 41.296875 11.75 
Q 45.40625 17.390625 45.40625 27.296875 
Q 45.40625 37.203125 41.296875 42.84375 
Q 37.203125 48.484375 30.078125 48.484375 
Q 22.953125 48.484375 18.875 42.84375 
Q 14.796875 37.203125 14.796875 27.296875 
z
" id="DejaVuSans-100"/>
      <path d="M 9.421875 54.6875 
L 18.40625 54.6875 
L 18.40625 0 
L 9.421875 0 
z
M 9.421875 75.984375 
L 18.40625 75.984375 
L 18.40625 64.59375 
L 9.421875 64.59375 
z
" id="DejaVuSans-105"/>
      <path d="M 37.109375 75.984375 
L 37.109375 68.5 
L 28.515625 68.5 
Q 23.6875 68.5 21.796875 66.546875 
Q 19.921875 64.59375 19.921875 59.515625 
L 19.921875 54.6875 
L 34.71875 54.6875 
L 34.71875 47.703125 
L 19.921875 47.703125 
L 19.921875 0 
L 10.890625 0 
L 10.890625 47.703125 
L 2.296875 47.703125 
L 2.296875 54.6875 
L 10.890625 54.6875 
L 10.890625 58.5 
Q 10.890625 67.625 15.140625 71.796875 
Q 19.390625 75.984375 28.609375 75.984375 
z
" id="DejaVuSans-102"/>
     </defs>
     <g transform="translate(381.0075 191.9655)scale(0.1 -0.1)">
      <use xlink:href="#DejaVuSans-100"/>
      <use x="63.476562" xlink:href="#DejaVuSans-105"/>
      <use x="91.259766" xlink:href="#DejaVuSans-102"/>
      <use x="126.464844" xlink:href="#DejaVuSans-102"/>
     </g>
    </g>
   </g>
  </g>
 </g>
 <defs>
  <clipPath id="pe1a072ffe8">
   <rect height="266.112" width="357.12" x="57.6" y="41.472"/>
  </clipPath>
 </defs>
</svg>
