<?xml version="1.0" encoding="utf-8" standalone="no"?>
<!DOCTYPE svg PUBLIC "-//W3C//DTD SVG 1.1//EN"
  "http://www.w3.org/Graphics/SVG/1.1/DTD/svg11.dtd">
<!-- Created with matplotlib (https://matplotlib.org/) -->
<svg height="345.6pt" version="1.1" viewBox="0 0 460.8 345.6" width="460.8pt" xmlns="http://www.w3.org/2000/svg" xmlns:xlink="http://www.w3.org/1999/xlink">
 <defs>
  <style type="text/css">
*{stroke-linecap:butt;stroke-linejoin:round;}
  </style>
 </defs>
 <g id="figure_1">
  <g id="patch_1">
   <path d="M 0 345.6 
L 460.8 345.6 
L 460.8 0 
L 0 0 
z
" style="fill:#ffffff;"/>
  </g>
  <g id="axes_1">
   <g id="patch_2">
    <path d="M 57.6 307.584 
L 414.72 307.584 
L 414.72 41.472 
L 57.6 41.472 
z
" style="fill:#ffffff;"/>
   </g>
   <g id="matplotlib.axis_1">
    <g id="xtick_1">
     <g id="line2d_1">
      <defs>
       <path d="M 0 0 
L 0 3.5 
" id="m969e24b291" style="stroke:#000000;stroke-width:0.8;"/>
      </defs>
      <g>
       <use style="stroke:#000000;stroke-width:0.8;" x="73.832727" xlink:href="#m969e24b291" y="307.584"/>
      </g>
     </g>
     <g id="text_1">
      <!-- 0 -->
      <defs>
       <path d="M 31.78125 66.40625 
Q 24.171875 66.40625 20.328125 58.90625 
Q 16.5 51.421875 16.5 36.375 
Q 16.5 21.390625 20.328125 13.890625 
Q 24.171875 6.390625 31.78125 6.390625 
Q 39.453125 6.390625 43.28125 13.890625 
Q 47.125 21.390625 47.125 36.375 
Q 47.125 51.421875 43.28125 58.90625 
Q 39.453125 66.40625 31.78125 66.40625 
z
M 31.78125 74.21875 
Q 44.046875 74.21875 50.515625 64.515625 
Q 56.984375 54.828125 56.984375 36.375 
Q 56.984375 17.96875 50.515625 8.265625 
Q 44.046875 -1.421875 31.78125 -1.421875 
Q 19.53125 -1.421875 13.0625 8.265625 
Q 6.59375 17.96875 6.59375 36.375 
Q 6.59375 54.828125 13.0625 64.515625 
Q 19.53125 74.21875 31.78125 74.21875 
z
" id="DejaVuSans-48"/>
      </defs>
      <g transform="translate(70.651477 322.182437)scale(0.1 -0.1)">
       <use xlink:href="#DejaVuSans-48"/>
      </g>
     </g>
    </g>
    <g id="xtick_2">
     <g id="line2d_2">
      <g>
       <use style="stroke:#000000;stroke-width:0.8;" x="120.2451" xlink:href="#m969e24b291" y="307.584"/>
      </g>
     </g>
     <g id="text_2">
      <!-- 200 -->
      <defs>
       <path d="M 19.1875 8.296875 
L 53.609375 8.296875 
L 53.609375 0 
L 7.328125 0 
L 7.328125 8.296875 
Q 12.9375 14.109375 22.625 23.890625 
Q 32.328125 33.6875 34.8125 36.53125 
Q 39.546875 41.84375 41.421875 45.53125 
Q 43.3125 49.21875 43.3125 52.78125 
Q 43.3125 58.59375 39.234375 62.25 
Q 35.15625 65.921875 28.609375 65.921875 
Q 23.96875 65.921875 18.8125 64.3125 
Q 13.671875 62.703125 7.8125 59.421875 
L 7.8125 69.390625 
Q 13.765625 71.78125 18.9375 73 
Q 24.125 74.21875 28.421875 74.21875 
Q 39.75 74.21875 46.484375 68.546875 
Q 53.21875 62.890625 53.21875 53.421875 
Q 53.21875 48.921875 51.53125 44.890625 
Q 49.859375 40.875 45.40625 35.40625 
Q 44.1875 33.984375 37.640625 27.21875 
Q 31.109375 20.453125 19.1875 8.296875 
z
" id="DejaVuSans-50"/>
      </defs>
      <g transform="translate(110.70135 322.182437)scale(0.1 -0.1)">
       <use xlink:href="#DejaVuSans-50"/>
       <use x="63.623047" xlink:href="#DejaVuSans-48"/>
       <use x="127.246094" xlink:href="#DejaVuSans-48"/>
      </g>
     </g>
    </g>
    <g id="xtick_3">
     <g id="line2d_3">
      <g>
       <use style="stroke:#000000;stroke-width:0.8;" x="166.657472" xlink:href="#m969e24b291" y="307.584"/>
      </g>
     </g>
     <g id="text_3">
      <!-- 400 -->
      <defs>
       <path d="M 37.796875 64.3125 
L 12.890625 25.390625 
L 37.796875 25.390625 
z
M 35.203125 72.90625 
L 47.609375 72.90625 
L 47.609375 25.390625 
L 58.015625 25.390625 
L 58.015625 17.1875 
L 47.609375 17.1875 
L 47.609375 0 
L 37.796875 0 
L 37.796875 17.1875 
L 4.890625 17.1875 
L 4.890625 26.703125 
z
" id="DejaVuSans-52"/>
      </defs>
      <g transform="translate(157.113722 322.182437)scale(0.1 -0.1)">
       <use xlink:href="#DejaVuSans-52"/>
       <use x="63.623047" xlink:href="#DejaVuSans-48"/>
       <use x="127.246094" xlink:href="#DejaVuSans-48"/>
      </g>
     </g>
    </g>
    <g id="xtick_4">
     <g id="line2d_4">
      <g>
       <use style="stroke:#000000;stroke-width:0.8;" x="213.069845" xlink:href="#m969e24b291" y="307.584"/>
      </g>
     </g>
     <g id="text_4">
      <!-- 600 -->
      <defs>
       <path d="M 33.015625 40.375 
Q 26.375 40.375 22.484375 35.828125 
Q 18.609375 31.296875 18.609375 23.390625 
Q 18.609375 15.53125 22.484375 10.953125 
Q 26.375 6.390625 33.015625 6.390625 
Q 39.65625 6.390625 43.53125 10.953125 
Q 47.40625 15.53125 47.40625 23.390625 
Q 47.40625 31.296875 43.53125 35.828125 
Q 39.65625 40.375 33.015625 40.375 
z
M 52.59375 71.296875 
L 52.59375 62.3125 
Q 48.875 64.0625 45.09375 64.984375 
Q 41.3125 65.921875 37.59375 65.921875 
Q 27.828125 65.921875 22.671875 59.328125 
Q 17.53125 52.734375 16.796875 39.40625 
Q 19.671875 43.65625 24.015625 45.921875 
Q 28.375 48.1875 33.59375 48.1875 
Q 44.578125 48.1875 50.953125 41.515625 
Q 57.328125 34.859375 57.328125 23.390625 
Q 57.328125 12.15625 50.6875 5.359375 
Q 44.046875 -1.421875 33.015625 -1.421875 
Q 20.359375 -1.421875 13.671875 8.265625 
Q 6.984375 17.96875 6.984375 36.375 
Q 6.984375 53.65625 15.1875 63.9375 
Q 23.390625 74.21875 37.203125 74.21875 
Q 40.921875 74.21875 44.703125 73.484375 
Q 48.484375 72.75 52.59375 71.296875 
z
" id="DejaVuSans-54"/>
      </defs>
      <g transform="translate(203.526095 322.182437)scale(0.1 -0.1)">
       <use xlink:href="#DejaVuSans-54"/>
       <use x="63.623047" xlink:href="#DejaVuSans-48"/>
       <use x="127.246094" xlink:href="#DejaVuSans-48"/>
      </g>
     </g>
    </g>
    <g id="xtick_5">
     <g id="line2d_5">
      <g>
       <use style="stroke:#000000;stroke-width:0.8;" x="259.482217" xlink:href="#m969e24b291" y="307.584"/>
      </g>
     </g>
     <g id="text_5">
      <!-- 800 -->
      <defs>
       <path d="M 31.78125 34.625 
Q 24.75 34.625 20.71875 30.859375 
Q 16.703125 27.09375 16.703125 20.515625 
Q 16.703125 13.921875 20.71875 10.15625 
Q 24.75 6.390625 31.78125 6.390625 
Q 38.8125 6.390625 42.859375 10.171875 
Q 46.921875 13.96875 46.921875 20.515625 
Q 46.921875 27.09375 42.890625 30.859375 
Q 38.875 34.625 31.78125 34.625 
z
M 21.921875 38.8125 
Q 15.578125 40.375 12.03125 44.71875 
Q 8.5 49.078125 8.5 55.328125 
Q 8.5 64.0625 14.71875 69.140625 
Q 20.953125 74.21875 31.78125 74.21875 
Q 42.671875 74.21875 48.875 69.140625 
Q 55.078125 64.0625 55.078125 55.328125 
Q 55.078125 49.078125 51.53125 44.71875 
Q 48 40.375 41.703125 38.8125 
Q 48.828125 37.15625 52.796875 32.3125 
Q 56.78125 27.484375 56.78125 20.515625 
Q 56.78125 9.90625 50.3125 4.234375 
Q 43.84375 -1.421875 31.78125 -1.421875 
Q 19.734375 -1.421875 13.25 4.234375 
Q 6.78125 9.90625 6.78125 20.515625 
Q 6.78125 27.484375 10.78125 32.3125 
Q 14.796875 37.15625 21.921875 38.8125 
z
M 18.3125 54.390625 
Q 18.3125 48.734375 21.84375 45.5625 
Q 25.390625 42.390625 31.78125 42.390625 
Q 38.140625 42.390625 41.71875 45.5625 
Q 45.3125 48.734375 45.3125 54.390625 
Q 45.3125 60.0625 41.71875 63.234375 
Q 38.140625 66.40625 31.78125 66.40625 
Q 25.390625 66.40625 21.84375 63.234375 
Q 18.3125 60.0625 18.3125 54.390625 
z
" id="DejaVuSans-56"/>
      </defs>
      <g transform="translate(249.938467 322.182437)scale(0.1 -0.1)">
       <use xlink:href="#DejaVuSans-56"/>
       <use x="63.623047" xlink:href="#DejaVuSans-48"/>
       <use x="127.246094" xlink:href="#DejaVuSans-48"/>
      </g>
     </g>
    </g>
    <g id="xtick_6">
     <g id="line2d_6">
      <g>
       <use style="stroke:#000000;stroke-width:0.8;" x="305.89459" xlink:href="#m969e24b291" y="307.584"/>
      </g>
     </g>
     <g id="text_6">
      <!-- 1000 -->
      <defs>
       <path d="M 12.40625 8.296875 
L 28.515625 8.296875 
L 28.515625 63.921875 
L 10.984375 60.40625 
L 10.984375 69.390625 
L 28.421875 72.90625 
L 38.28125 72.90625 
L 38.28125 8.296875 
L 54.390625 8.296875 
L 54.390625 0 
L 12.40625 0 
z
" id="DejaVuSans-49"/>
      </defs>
      <g transform="translate(293.16959 322.182437)scale(0.1 -0.1)">
       <use xlink:href="#DejaVuSans-49"/>
       <use x="63.623047" xlink:href="#DejaVuSans-48"/>
       <use x="127.246094" xlink:href="#DejaVuSans-48"/>
       <use x="190.869141" xlink:href="#DejaVuSans-48"/>
      </g>
     </g>
    </g>
    <g id="xtick_7">
     <g id="line2d_7">
      <g>
       <use style="stroke:#000000;stroke-width:0.8;" x="352.306962" xlink:href="#m969e24b291" y="307.584"/>
      </g>
     </g>
     <g id="text_7">
      <!-- 1200 -->
      <g transform="translate(339.581962 322.182437)scale(0.1 -0.1)">
       <use xlink:href="#DejaVuSans-49"/>
       <use x="63.623047" xlink:href="#DejaVuSans-50"/>
       <use x="127.246094" xlink:href="#DejaVuSans-48"/>
       <use x="190.869141" xlink:href="#DejaVuSans-48"/>
      </g>
     </g>
    </g>
    <g id="xtick_8">
     <g id="line2d_8">
      <g>
       <use style="stroke:#000000;stroke-width:0.8;" x="398.719335" xlink:href="#m969e24b291" y="307.584"/>
      </g>
     </g>
     <g id="text_8">
      <!-- 1400 -->
      <g transform="translate(385.994335 322.182437)scale(0.1 -0.1)">
       <use xlink:href="#DejaVuSans-49"/>
       <use x="63.623047" xlink:href="#DejaVuSans-52"/>
       <use x="127.246094" xlink:href="#DejaVuSans-48"/>
       <use x="190.869141" xlink:href="#DejaVuSans-48"/>
      </g>
     </g>
    </g>
   </g>
   <g id="matplotlib.axis_2">
    <g id="ytick_1">
     <g id="line2d_9">
      <defs>
       <path d="M 0 0 
L -3.5 0 
" id="m510e1a8aa3" style="stroke:#000000;stroke-width:0.8;"/>
      </defs>
      <g>
       <use style="stroke:#000000;stroke-width:0.8;" x="57.6" xlink:href="#m510e1a8aa3" y="290.048937"/>
      </g>
     </g>
     <g id="text_9">
      <!-- −0.6 -->
      <defs>
       <path d="M 10.59375 35.5 
L 73.1875 35.5 
L 73.1875 27.203125 
L 10.59375 27.203125 
z
" id="DejaVuSans-8722"/>
       <path d="M 10.6875 12.40625 
L 21 12.40625 
L 21 0 
L 10.6875 0 
z
" id="DejaVuSans-46"/>
      </defs>
      <g transform="translate(26.317187 293.848156)scale(0.1 -0.1)">
       <use xlink:href="#DejaVuSans-8722"/>
       <use x="83.789062" xlink:href="#DejaVuSans-48"/>
       <use x="147.412109" xlink:href="#DejaVuSans-46"/>
       <use x="179.199219" xlink:href="#DejaVuSans-54"/>
      </g>
     </g>
    </g>
    <g id="ytick_2">
     <g id="line2d_10">
      <g>
       <use style="stroke:#000000;stroke-width:0.8;" x="57.6" xlink:href="#m510e1a8aa3" y="240.777047"/>
      </g>
     </g>
     <g id="text_10">
      <!-- −0.4 -->
      <g transform="translate(26.317187 244.576266)scale(0.1 -0.1)">
       <use xlink:href="#DejaVuSans-8722"/>
       <use x="83.789062" xlink:href="#DejaVuSans-48"/>
       <use x="147.412109" xlink:href="#DejaVuSans-46"/>
       <use x="179.199219" xlink:href="#DejaVuSans-52"/>
      </g>
     </g>
    </g>
    <g id="ytick_3">
     <g id="line2d_11">
      <g>
       <use style="stroke:#000000;stroke-width:0.8;" x="57.6" xlink:href="#m510e1a8aa3" y="191.505156"/>
      </g>
     </g>
     <g id="text_11">
      <!-- −0.2 -->
      <g transform="translate(26.317187 195.304375)scale(0.1 -0.1)">
       <use xlink:href="#DejaVuSans-8722"/>
       <use x="83.789062" xlink:href="#DejaVuSans-48"/>
       <use x="147.412109" xlink:href="#DejaVuSans-46"/>
       <use x="179.199219" xlink:href="#DejaVuSans-50"/>
      </g>
     </g>
    </g>
    <g id="ytick_4">
     <g id="line2d_12">
      <g>
       <use style="stroke:#000000;stroke-width:0.8;" x="57.6" xlink:href="#m510e1a8aa3" y="142.233266"/>
      </g>
     </g>
     <g id="text_12">
      <!-- 0.0 -->
      <g transform="translate(34.696875 146.032485)scale(0.1 -0.1)">
       <use xlink:href="#DejaVuSans-48"/>
       <use x="63.623047" xlink:href="#DejaVuSans-46"/>
       <use x="95.410156" xlink:href="#DejaVuSans-48"/>
      </g>
     </g>
    </g>
    <g id="ytick_5">
     <g id="line2d_13">
      <g>
       <use style="stroke:#000000;stroke-width:0.8;" x="57.6" xlink:href="#m510e1a8aa3" y="92.961376"/>
      </g>
     </g>
     <g id="text_13">
      <!-- 0.2 -->
      <g transform="translate(34.696875 96.760594)scale(0.1 -0.1)">
       <use xlink:href="#DejaVuSans-48"/>
       <use x="63.623047" xlink:href="#DejaVuSans-46"/>
       <use x="95.410156" xlink:href="#DejaVuSans-50"/>
      </g>
     </g>
    </g>
    <g id="ytick_6">
     <g id="line2d_14">
      <g>
       <use style="stroke:#000000;stroke-width:0.8;" x="57.6" xlink:href="#m510e1a8aa3" y="43.689485"/>
      </g>
     </g>
     <g id="text_14">
      <!-- 0.4 -->
      <g transform="translate(34.696875 47.488704)scale(0.1 -0.1)">
       <use xlink:href="#DejaVuSans-48"/>
       <use x="63.623047" xlink:href="#DejaVuSans-46"/>
       <use x="95.410156" xlink:href="#DejaVuSans-52"/>
      </g>
     </g>
    </g>
   </g>
   <g id="line2d_15">
    <path clip-path="url(#pbbda3775b2)" d="M 73.832727 147.72179 
L 74.760975 184.954577 
L 75.225098 197.580625 
L 75.689222 205.140175 
L 75.921284 206.892691 
L 76.153346 207.292481 
L 76.385408 206.345157 
L 76.61747 204.107113 
L 77.081593 196.070771 
L 77.777779 176.73432 
L 78.938088 134.091509 
L 79.866336 102.14932 
L 80.330459 91.642352 
L 80.794583 86.51013 
L 81.026645 86.152577 
L 81.258707 87.214626 
L 81.490769 89.585028 
L 81.954892 97.692267 
L 82.651078 115.49273 
L 83.579325 140.02246 
L 84.043449 148.839151 
L 84.507573 153.983812 
L 84.739635 155.008181 
L 85.203759 154.966124 
L 85.667882 150.030328 
L 86.364068 137.47915 
L 87.524377 114.157183 
L 87.988501 107.654642 
L 88.452625 104.045327 
L 88.684686 103.426748 
L 88.916748 103.594407 
L 89.14881 104.513552 
L 89.612934 108.332938 
L 90.30912 117.53708 
L 91.469429 134.010776 
L 91.933553 138.364735 
L 92.397676 140.568086 
L 92.629738 140.801525 
L 92.8618 140.464952 
L 93.093862 139.589232 
L 93.557986 136.429328 
L 94.254171 129.294893 
L 95.41448 116.996147 
L 95.878604 113.820234 
L 96.342728 112.243225 
L 96.806852 111.926542 
L 97.038914 112.187352 
L 97.503037 114.652935 
L 98.199223 120.129577 
L 99.359532 129.284771 
L 99.823656 131.519892 
L 100.055718 132.157446 
L 100.28778 132.461112 
L 100.751903 132.414604 
L 100.983965 132.063816 
L 101.448089 129.870062 
L 102.376336 123.600163 
L 103.304584 117.772515 
L 103.768708 115.964126 
L 104.232831 115.166019 
L 104.464893 114.888547 
L 104.696955 114.881529 
L 105.161079 116.139736 
L 105.857264 119.291654 
L 107.017574 125.046064 
L 107.481697 126.578834 
L 107.945821 127.353491 
L 108.409945 127.519207 
L 108.642007 127.394613 
L 108.874068 127.061616 
L 109.338192 125.49811 
L 111.426749 117.108382 
L 111.890873 116.380821 
L 112.354996 115.982901 
L 112.587058 116.046894 
L 112.81912 116.283486 
L 113.283244 117.488827 
L 115.139739 123.328074 
L 115.603862 123.987529 
L 116.067986 124.375509 
L 116.300048 124.345362 
L 116.53211 124.163328 
L 116.764172 123.834346 
L 117.460357 121.818877 
L 118.852729 117.389798 
L 119.548914 116.080019 
L 120.013038 115.653633 
L 120.2451 115.641211 
L 120.477162 115.76286 
L 120.941285 116.379267 
L 121.869533 118.833211 
L 122.79778 121.038594 
L 123.493966 122.013305 
L 123.95809 122.163916 
L 124.190151 122.051425 
L 124.654275 121.464032 
L 125.118399 120.458023 
L 126.742832 116.011709 
L 127.206956 115.108191 
L 127.671079 114.624596 
L 127.903141 114.560897 
L 128.135203 114.618246 
L 128.599327 115.076475 
L 129.063451 115.921317 
L 130.687884 119.694675 
L 131.152007 120.327204 
L 131.616131 120.526947 
L 131.848193 120.449766 
L 132.312317 119.947802 
L 132.77644 119.038684 
L 133.704688 116.51438 
L 134.632935 114.167162 
L 135.097059 113.457964 
L 135.561183 113.19294 
L 135.793245 113.237594 
L 136.257368 113.66515 
L 136.721492 114.475658 
L 138.810049 118.857296 
L 139.274172 119.073237 
L 139.506234 119.00592 
L 139.970358 118.525738 
L 140.434482 117.638471 
L 141.362729 115.145758 
L 142.290977 112.805629 
L 142.7551 112.088817 
L 143.219224 111.811258 
L 143.451286 111.847992 
L 143.91541 112.257924 
L 144.379533 113.050797 
L 146.46809 117.407345 
L 146.932214 117.635537 
L 147.164276 117.5764 
L 147.6284 117.115081 
L 148.092523 116.247553 
L 149.020771 113.787613 
L 149.949018 111.461759 
L 150.413142 110.742656 
L 150.877266 110.455321 
L 151.109327 110.485113 
L 151.573451 110.878327 
L 152.037575 111.653036 
L 153.197884 114.368462 
L 153.89407 115.697458 
L 154.358194 116.151525 
L 154.590255 116.214904 
L 154.822317 116.162947 
L 155.286441 115.718901 
L 155.750565 114.871077 
L 156.678812 112.445303 
L 157.60706 110.124176 
L 158.071183 109.396928 
L 158.535307 109.095665 
L 158.767369 109.116894 
L 159.231493 109.491423 
L 159.695616 110.247213 
L 160.855926 112.928839 
L 161.552111 114.260129 
L 162.016235 114.72571 
L 162.480359 114.752088 
L 162.944482 114.326061 
L 163.408606 113.496939 
L 164.336854 111.097446 
L 165.265101 108.783385 
L 165.729225 108.046621 
L 166.193348 107.732088 
L 166.42541 107.747628 
L 166.889534 108.109291 
L 167.353658 108.850382 
L 168.281905 110.96532 
L 168.978091 112.465514 
L 169.442215 113.129716 
L 169.906338 113.393926 
L 170.1384 113.3582 
L 170.602524 112.950772 
L 171.066648 112.141344 
L 171.994895 109.775133 
L 172.923143 107.472968 
L 173.387266 106.733534 
L 173.85139 106.408826 
L 174.083452 106.415338 
L 174.547576 106.757405 
L 175.011699 107.480678 
L 175.939947 109.572203 
L 176.636132 111.069011 
L 177.100256 111.738882 
L 177.56438 112.014985 
L 177.796442 111.987083 
L 178.260565 111.598376 
L 178.724689 110.807284 
L 179.420875 109.102008 
L 180.581184 106.173359 
L 181.045308 105.425988 
L 181.509431 105.087499 
L 181.973555 105.194252 
L 182.437679 105.719021 
L 183.133864 107.086649 
L 184.526236 110.055156 
L 184.990359 110.546329 
L 185.454483 110.614103 
L 185.918607 110.23966 
L 186.382731 109.466826 
L 187.078916 107.78613 
L 188.239225 104.871828 
L 188.703349 104.118968 
L 189.167473 103.769012 
L 189.631597 103.859646 
L 190.09572 104.366159 
L 190.791906 105.707966 
L 192.184277 108.657323 
L 192.648401 109.158592 
L 193.112525 109.244447 
L 193.576648 108.891394 
L 194.040772 108.138801 
L 194.736958 106.483195 
L 195.897267 103.580761 
L 196.361391 102.821176 
L 196.825514 102.458888 
L 197.289638 102.533611 
L 197.753762 103.022862 
L 198.449947 104.342036 
L 199.842319 107.282717 
L 200.306442 107.794634 
L 200.770566 107.895921 
L 201.23469 107.561633 
L 201.698813 106.828412 
L 202.394999 105.196154 
L 203.555308 102.302661 
L 204.019432 101.534879 
L 204.483556 101.159153 
L 204.94768 101.217088 
L 205.411803 101.688916 
L 206.107989 102.986102 
L 207.50036 105.918017 
L 207.964484 106.439293 
L 208.428607 106.555356 
L 208.892731 106.238934 
L 209.356855 105.524521 
L 210.05304 103.917011 
L 211.21335 101.038859 
L 211.677474 100.265836 
L 212.141597 99.878766 
L 212.605721 99.921376 
L 213.069845 100.375864 
L 213.76603 101.648365 
L 215.158401 104.566591 
L 215.622525 105.096449 
L 216.086649 105.226244 
L 216.550773 104.926975 
L 217.014896 104.231665 
L 217.711082 102.649321 
L 218.871391 99.786352 
L 219.335515 99.007871 
L 219.799639 98.608785 
L 220.263762 98.635108 
L 220.727886 99.07168 
L 221.424072 100.320022 
L 222.816443 103.222924 
L 223.280567 103.761576 
L 223.74469 103.906336 
L 224.208814 103.625469 
L 224.672938 102.948871 
L 225.369123 101.3917 
L 226.761495 98.112147 
L 227.225618 97.50499 
L 227.689742 97.302433 
L 228.153866 97.522202 
L 228.617989 98.12182 
L 229.314175 99.509655 
L 230.474484 101.895313 
L 230.938608 102.443478 
L 231.402732 102.603004 
L 231.866856 102.340253 
L 232.330979 101.681987 
L 233.027165 100.147308 
L 234.419536 96.873823 
L 234.88366 96.256374 
L 235.347783 96.039076 
L 235.811907 96.241849 
L 236.276031 96.82445 
L 236.972217 98.191166 
L 238.132526 100.567359 
L 238.59665 101.121719 
L 239.060773 101.291607 
L 239.524897 101.042415 
L 239.989021 100.398593 
L 240.685206 98.881893 
L 242.077577 95.611199 
L 242.541701 94.984172 
L 243.005825 94.751402 
L 243.469949 94.935279 
L 243.934072 95.498575 
L 244.630258 96.84332 
L 245.790567 99.200329 
L 246.254691 99.75804 
L 246.718815 99.936257 
L 247.182938 99.698416 
L 247.647062 99.066704 
L 248.343248 97.56618 
L 249.735619 94.285288 
L 250.199743 93.641199 
L 250.663866 93.387942 
L 251.12799 93.548876 
L 251.592114 94.088582 
L 252.288299 95.399827 
L 253.448609 97.735822 
L 253.912732 98.294662 
L 254.376856 98.478781 
L 254.84098 98.249209 
L 255.305104 97.626073 
L 256.001289 96.132463 
L 257.39366 92.836181 
L 257.857784 92.174578 
L 258.321908 91.89968 
L 258.786032 92.036503 
L 259.250155 92.551476 
L 259.946341 93.829821 
L 261.10665 96.134455 
L 261.570774 96.690729 
L 262.034898 96.876912 
L 262.499021 96.654001 
L 262.963145 96.036164 
L 263.659331 94.546631 
L 265.051702 91.228979 
L 265.515826 90.549936 
L 265.979949 90.253635 
L 266.444073 90.367281 
L 266.908197 90.859128 
L 267.604382 92.107706 
L 268.764692 94.387683 
L 269.228815 94.94441 
L 269.692939 95.135594 
L 270.157063 94.918379 
L 270.621187 94.309045 
L 271.317372 92.827916 
L 272.709743 89.483213 
L 273.173867 88.782463 
L 273.637991 88.459843 
L 274.102114 88.544708 
L 274.566238 89.008951 
L 275.262424 90.222745 
L 276.422733 92.47403 
L 276.886857 93.028661 
L 277.350981 93.220693 
L 277.815104 93.005863 
L 278.279228 92.39734 
L 278.975414 90.91261 
L 280.367785 87.532769 
L 280.831909 86.810599 
L 281.296032 86.464432 
L 281.760156 86.526331 
L 282.22428 86.968242 
L 282.920465 88.155393 
L 284.080775 90.388976 
L 284.544898 90.946099 
L 285.009022 91.14443 
L 285.473146 90.937551 
L 285.937269 90.337279 
L 286.633455 88.858207 
L 288.257888 85.045124 
L 288.722012 84.484511 
L 289.186136 84.319194 
L 289.650259 84.556194 
L 290.114383 85.1409 
L 291.04263 86.906506 
L 291.738816 88.184874 
L 292.20294 88.743969 
L 292.667063 88.949068 
L 293.131187 88.751176 
L 293.595311 88.158605 
L 294.291497 86.693152 
L 295.683868 83.301985 
L 296.147991 82.568926 
L 296.612115 82.18565 
L 297.076239 82.197631 
L 297.540363 82.600416 
L 298.236548 83.730693 
L 299.628919 86.247982 
L 300.093043 86.650172 
L 300.557167 86.67663 
L 301.021291 86.301557 
L 301.485414 85.567734 
L 302.1816 83.968025 
L 303.341909 81.151504 
L 303.806033 80.384184 
L 304.270157 79.984903 
L 304.73428 79.986765 
L 305.198404 80.371353 
L 305.89459 81.491138 
L 307.286961 84.037367 
L 307.751085 84.462628 
L 308.215208 84.504783 
L 308.679332 84.143885 
L 309.143456 83.420134 
L 309.839641 81.824636 
L 310.999951 78.992102 
L 311.464074 78.214782 
L 311.928198 77.805173 
L 312.392322 77.792889 
L 312.856446 78.164143 
L 313.552631 79.270466 
L 314.945002 81.808285 
L 315.409126 82.239818 
L 315.87325 82.293568 
L 316.337373 81.946583 
L 316.801497 81.228948 
L 317.497683 79.655239 
L 318.657992 76.828457 
L 319.122116 76.041464 
L 319.58624 75.609144 
L 320.050363 75.576884 
L 320.514487 75.932283 
L 320.978611 76.599245 
L 322.835106 79.849523 
L 323.299229 80.114864 
L 323.763353 79.986416 
L 324.227477 79.467454 
L 324.923662 78.093565 
L 326.548095 74.304084 
L 327.012219 73.694263 
L 327.476343 73.457855 
L 327.940467 73.616695 
L 328.40459 74.12177 
L 329.100776 75.331087 
L 330.261085 77.404176 
L 330.725209 77.853309 
L 331.189333 77.944188 
L 331.653456 77.64116 
L 332.11758 76.971456 
L 332.813766 75.461599 
L 333.974075 72.703319 
L 334.438199 71.932645 
L 334.902322 71.50794 
L 335.366446 71.475828 
L 335.83057 71.818311 
L 336.526755 72.873674 
L 337.919127 75.3526 
L 338.38325 75.794003 
L 338.847374 75.872029 
L 339.311498 75.558748 
L 339.775622 74.880727 
L 340.471807 73.353177 
L 341.864178 70.170408 
L 342.328302 69.568809 
L 342.792426 69.339356 
L 343.256549 69.494188 
L 343.720673 70.000686 
L 344.416859 71.202181 
L 345.577168 73.262715 
L 346.041292 73.703534 
L 346.505416 73.783989 
L 346.969539 73.479631 
L 347.433663 72.807001 
L 348.129849 71.289001 
L 349.52222 68.107465 
L 349.986343 67.492653 
L 350.450467 67.248645 
L 350.914591 67.398483 
L 351.378715 67.902433 
L 352.0749 69.111443 
L 353.23521 71.233614 
L 353.699333 71.742574 
L 354.163457 71.913907 
L 354.627581 71.690194 
L 355.091704 71.098542 
L 355.78789 69.673233 
L 357.180261 66.493721 
L 357.644385 65.829456 
L 358.108509 65.52709 
L 358.572632 65.611578 
L 359.036756 66.048023 
L 359.732942 67.199608 
L 360.893251 69.318494 
L 361.357375 69.833891 
L 361.821498 70.006378 
L 362.285622 69.798699 
L 362.749746 69.231052 
L 363.445932 67.86492 
L 364.838303 64.854067 
L 365.302426 64.244901 
L 365.76655 63.982316 
L 366.230674 64.088587 
L 366.694798 64.528846 
L 367.390983 65.644544 
L 368.551292 67.631916 
L 369.015416 68.121997 
L 369.47954 68.294128 
L 369.943664 68.13944 
L 370.407787 67.682717 
L 371.103973 66.563027 
L 372.728406 63.698928 
L 373.19253 63.302882 
L 373.656653 63.212047 
L 374.120777 63.436607 
L 374.584901 63.927298 
L 376.673458 66.694363 
L 377.137581 66.865463 
L 377.601705 66.76316 
L 378.065829 66.402401 
L 378.762014 65.492078 
L 380.386447 63.189818 
L 380.850571 62.844852 
L 381.314695 62.737319 
L 381.778819 62.870027 
L 382.475004 63.434395 
L 384.331499 65.360315 
L 384.795623 65.559447 
L 385.259747 65.548596 
L 385.72387 65.342511 
L 386.420056 64.724837 
L 388.276551 62.755146 
L 388.972736 62.471725 
L 389.43686 62.489679 
L 390.133046 62.795006 
L 391.293355 63.73212 
L 392.221602 64.393522 
L 392.917788 64.578651 
L 393.381912 64.511872 
L 394.078097 64.148583 
L 396.398716 62.47426 
L 397.094902 62.446817 
L 397.791087 62.733977 
L 398.487273 63.245796 
L 398.487273 63.245796 
" style="fill:none;stroke:#1f77b4;stroke-linecap:square;stroke-width:1.5;"/>
   </g>
   <g id="line2d_16">
    <path clip-path="url(#pbbda3775b2)" d="M 73.832727 127.669521 
L 74.760975 85.269097 
L 75.45716 63.657978 
L 75.921284 55.8717 
L 76.153346 54.037748 
L 76.385408 53.568 
L 76.61747 54.42678 
L 76.849531 56.581934 
L 77.313655 64.514375 
L 78.009841 83.967363 
L 80.330459 160.10936 
L 80.794583 165.250628 
L 81.026645 165.675407 
L 81.258707 164.704494 
L 81.490769 162.421319 
L 81.954892 154.467363 
L 82.651078 136.84977 
L 83.811387 107.427354 
L 84.275511 100.250975 
L 84.507573 98.129625 
L 84.739635 97.052133 
L 85.203759 96.987418 
L 85.667882 101.809734 
L 86.364068 114.183203 
L 87.524377 137.187075 
L 87.988501 143.545051 
L 88.452625 146.993688 
L 88.684686 147.529992 
L 88.916748 147.277469 
L 89.14881 146.27271 
L 89.612934 142.273218 
L 90.30912 132.783589 
L 91.469429 115.800644 
L 91.933553 111.238392 
L 92.397676 108.831047 
L 92.629738 108.496254 
L 92.8618 108.734507 
L 93.093862 109.51265 
L 93.557986 112.484717 
L 94.254171 119.350349 
L 95.41448 131.223829 
L 95.878604 134.234082 
L 96.342728 135.646934 
L 96.806852 135.803026 
L 97.038914 135.4576 
L 97.503037 132.819398 
L 98.199223 127.086129 
L 99.359532 117.490073 
L 99.823656 115.093782 
L 100.28778 113.97117 
L 100.751903 113.835842 
L 100.983965 114.094095 
L 101.448089 116.102715 
L 102.376336 122.011242 
L 103.304584 127.475759 
L 103.768708 129.101224 
L 104.000769 129.542606 
L 104.464893 129.909843 
L 104.696955 129.82856 
L 105.161079 128.394858 
L 105.857264 124.973352 
L 107.017574 118.785837 
L 107.481697 117.073804 
L 107.945821 116.124225 
L 108.409945 115.777206 
L 108.642007 115.811905 
L 108.874068 116.056188 
L 109.338192 117.442188 
L 111.426749 125.021188 
L 111.890873 125.571924 
L 112.122935 125.769134 
L 112.354996 125.793449 
L 112.587058 125.640161 
L 112.81912 125.313909 
L 113.515306 123.096709 
L 114.907677 117.985791 
L 115.371801 116.885412 
L 116.067986 115.964716 
L 116.300048 115.901025 
L 116.53211 115.994106 
L 116.764172 116.233075 
L 117.228296 117.316886 
L 119.08479 122.290006 
L 119.780976 123.104929 
L 120.013038 123.164512 
L 120.2451 123.090353 
L 120.709223 122.543595 
L 121.173347 121.449301 
L 122.79778 116.72835 
L 123.493966 115.4899 
L 123.95809 115.163964 
L 124.190151 115.188605 
L 124.654275 115.601206 
L 125.118399 116.430243 
L 126.742832 120.265141 
L 127.206956 120.994901 
L 127.671079 121.304715 
L 127.903141 121.280587 
L 128.367265 120.873553 
L 128.831389 120.034728 
L 129.527574 118.14825 
L 130.687884 115.095831 
L 131.152007 114.286888 
L 131.616131 113.91264 
L 131.848193 113.902463 
L 132.312317 114.22992 
L 132.77644 114.962211 
L 133.704688 117.141195 
L 134.632935 119.146785 
L 135.097059 119.680016 
L 135.561183 119.773941 
L 136.025306 119.400157 
L 136.48943 118.597442 
L 137.185616 116.828185 
L 138.345925 113.723984 
L 138.810049 112.911012 
L 139.274172 112.525045 
L 139.506234 112.50616 
L 139.970358 112.814021 
L 140.434482 113.529036 
L 141.362729 115.681047 
L 142.290977 117.683907 
L 142.7551 118.23282 
L 143.219224 118.339568 
L 143.683348 117.980659 
L 144.147472 117.195738 
L 144.843657 115.453882 
L 146.003966 112.36797 
L 146.46809 111.548938 
L 146.932214 111.153378 
L 147.164276 111.129458 
L 147.6284 111.423509 
L 148.092523 112.125035 
L 149.020771 114.250892 
L 149.949018 116.24095 
L 150.413142 116.792986 
L 150.877266 116.914022 
L 151.341389 116.572383 
L 151.805513 115.805807 
L 152.501699 114.089537 
L 153.662008 111.031256 
L 154.126132 110.212126 
L 154.590255 109.807161 
L 154.822317 109.773395 
L 155.286441 110.048553 
L 155.750565 110.728587 
L 156.44675 112.252629 
L 157.60706 114.802098 
L 158.071183 115.361728 
L 158.535307 115.494496 
L 158.999431 115.171187 
L 159.463554 114.426192 
L 160.15974 112.738369 
L 161.320049 109.692624 
L 161.784173 108.866946 
L 162.248297 108.447145 
L 162.480359 108.40694 
L 162.944482 108.664714 
L 163.408606 109.326195 
L 164.104792 110.828871 
L 165.265101 113.368852 
L 165.729225 113.937139 
L 166.193348 114.084772 
L 166.657472 113.779491 
L 167.121596 113.053527 
L 167.817782 111.390999 
L 168.978091 108.36628 
L 169.442215 107.538003 
L 169.906338 107.108422 
L 170.1384 107.061077 
L 170.602524 107.304186 
L 171.066648 107.949162 
L 171.762833 109.43006 
L 172.923143 111.963761 
L 173.387266 112.540642 
L 173.85139 112.702988 
L 174.315514 112.416127 
L 174.779637 111.709439 
L 175.475823 110.073808 
L 176.868194 106.602903 
L 177.332318 105.954661 
L 177.796442 105.732865 
L 178.260565 105.957952 
L 178.724689 106.585019 
L 179.420875 108.044595 
L 180.581184 110.564473 
L 181.045308 111.15026 
L 181.509431 111.327731 
L 181.973555 111.058599 
L 182.437679 110.372057 
L 183.133864 108.761535 
L 184.526236 105.304349 
L 184.990359 104.648409 
L 185.454483 104.412742 
L 185.918607 104.616018 
L 186.382731 105.22316 
L 187.078916 106.659182 
L 188.239225 109.166155 
L 188.703349 109.757059 
L 189.167473 109.946854 
L 189.631597 109.694247 
L 190.09572 109.027447 
L 190.791906 107.438481 
L 192.184277 104.006186 
L 192.648401 103.341802 
L 193.112525 103.089418 
L 193.576648 103.279909 
L 194.040772 103.870765 
L 194.736958 105.283612 
L 195.897267 107.782427 
L 196.361391 108.383294 
L 196.825514 108.585706 
L 197.289638 108.351036 
L 197.753762 107.701532 
L 198.449947 106.141527 
L 199.842319 102.721159 
L 200.306442 102.0489 
L 200.770566 101.787207 
L 201.23469 101.957742 
L 201.698813 102.52854 
L 202.394999 103.918384 
L 203.555308 106.412082 
L 204.019432 107.020572 
L 204.483556 107.237154 
L 204.94768 107.020677 
L 205.411803 106.390412 
L 206.107989 104.854412 
L 207.50036 101.445392 
L 207.964484 100.765469 
L 208.428607 100.492252 
L 208.892731 100.650066 
L 209.356855 101.201499 
L 210.05304 102.571463 
L 211.21335 105.055675 
L 211.677474 105.669219 
L 212.141597 105.899354 
L 212.605721 105.698454 
L 213.069845 105.08595 
L 213.76603 103.578255 
L 215.158401 100.186113 
L 215.622525 99.49783 
L 216.086649 99.2126 
L 216.550773 99.351776 
L 217.014896 99.887439 
L 217.711082 101.235706 
L 218.871391 103.704586 
L 219.335515 104.32793 
L 219.799639 104.569898 
L 220.263762 104.3897 
L 220.727886 103.793609 
L 221.424072 102.309993 
L 222.816443 98.939519 
L 223.280567 98.243996 
L 223.74469 97.94387 
L 224.208814 98.068187 
L 224.672938 98.588662 
L 225.369123 99.912912 
L 226.529433 102.368253 
L 226.993556 102.994672 
L 227.45768 103.251938 
L 227.921804 103.087285 
L 228.385928 102.514719 
L 229.082113 101.059845 
L 230.474484 97.703306 
L 230.938608 96.998538 
L 231.402732 96.684074 
L 231.866856 96.7917 
L 232.330979 97.292121 
L 233.027165 98.593444 
L 234.187474 101.043137 
L 234.651598 101.677323 
L 235.115722 101.942493 
L 235.579845 101.795124 
L 236.043969 101.238699 
L 236.740155 99.802342 
L 238.364588 96.058771 
L 238.828711 95.530762 
L 239.292835 95.410151 
L 239.756959 95.704577 
L 240.221083 96.358795 
L 241.14933 98.293503 
L 242.077577 100.056926 
L 242.541701 100.523526 
L 243.005825 100.595377 
L 243.469949 100.252703 
L 243.934072 99.527712 
L 244.630258 97.940374 
L 245.790567 95.17165 
L 246.254691 94.448796 
L 246.718815 94.104039 
L 247.182938 94.17413 
L 247.647062 94.636861 
L 248.343248 95.883914 
L 249.735619 98.645803 
L 250.199743 99.115672 
L 250.663866 99.198118 
L 251.12799 98.864488 
L 251.592114 98.149498 
L 252.288299 96.572216 
L 253.448609 93.788097 
L 253.912732 93.048653 
L 254.376856 92.683214 
L 254.84098 92.729741 
L 255.305104 93.169838 
L 256.001289 94.384418 
L 257.39366 97.121056 
L 257.857784 97.590883 
L 258.321908 97.675449 
L 258.786032 97.343494 
L 259.250155 96.633914 
L 259.946341 95.064853 
L 261.10665 92.265522 
L 261.570774 91.508612 
L 262.034898 91.120354 
L 262.499021 91.143301 
L 262.963145 91.56117 
L 263.659331 92.743472 
L 265.051702 95.4414 
L 265.515826 95.913819 
L 265.979949 96.00232 
L 266.444073 95.678881 
L 266.908197 94.974068 
L 267.604382 93.407451 
L 268.764692 90.600553 
L 269.228815 89.827007 
L 269.692939 89.416547 
L 270.157063 89.411872 
L 270.621187 89.799626 
L 271.317372 90.947543 
L 272.709743 93.61532 
L 273.173867 94.088888 
L 273.637991 94.180968 
L 274.102114 93.867657 
L 274.566238 93.169573 
L 275.262424 91.602168 
L 276.654795 88.307459 
L 277.118919 87.683861 
L 277.583042 87.453371 
L 278.047166 87.626577 
L 278.51129 88.167019 
L 279.207475 89.44059 
L 280.367785 91.612358 
L 280.831909 92.078477 
L 281.296032 92.17877 
L 281.760156 91.864799 
L 282.22428 91.171468 
L 282.920465 89.608284 
L 284.312836 86.290081 
L 284.77696 85.645215 
L 285.241084 85.38796 
L 285.705208 85.54252 
L 286.169331 86.064496 
L 286.865517 87.306936 
L 288.025826 89.464329 
L 288.48995 89.934685 
L 288.954074 90.037541 
L 289.418197 89.734153 
L 289.882321 89.054989 
L 290.578507 87.497979 
L 291.970878 84.160063 
L 292.435002 83.490776 
L 292.899125 83.211784 
L 293.363249 83.343498 
L 293.827373 83.839554 
L 294.523558 85.06539 
L 295.683868 87.225812 
L 296.147991 87.722224 
L 296.612115 87.843268 
L 297.076239 87.558856 
L 297.540363 86.869159 
L 298.236548 85.333966 
L 299.628919 82.010206 
L 300.093043 81.3358 
L 300.557167 81.041137 
L 301.021291 81.147705 
L 301.485414 81.632613 
L 302.1816 82.834767 
L 303.341909 84.982212 
L 303.806033 85.488172 
L 304.270157 85.62529 
L 304.73428 85.35369 
L 305.198404 84.709227 
L 305.89459 83.205927 
L 307.286961 79.852753 
L 307.751085 79.155023 
L 308.215208 78.844413 
L 308.679332 78.944739 
L 309.143456 79.406173 
L 309.839641 80.602803 
L 310.999951 82.771177 
L 311.464074 83.291082 
L 311.928198 83.426531 
L 312.392322 83.167662 
L 312.856446 82.529399 
L 313.552631 81.030972 
L 314.945002 77.691033 
L 315.409126 76.992376 
L 315.87325 76.668398 
L 316.337373 76.746027 
L 316.801497 77.194001 
L 317.497683 78.366792 
L 318.657992 80.519143 
L 319.122116 81.041861 
L 319.58624 81.205954 
L 320.050363 80.967421 
L 320.514487 80.347943 
L 321.210673 78.8686 
L 322.835106 75.125023 
L 323.299229 74.622099 
L 323.763353 74.495951 
L 324.227477 74.761778 
L 324.6916 75.353526 
L 325.619848 77.105851 
L 326.316034 78.332722 
L 326.780157 78.861875 
L 327.244281 79.033813 
L 327.708405 78.820696 
L 328.172528 78.224065 
L 328.868714 76.771521 
L 330.261085 73.481782 
L 330.725209 72.772516 
L 331.189333 72.430242 
L 331.653456 72.483614 
L 332.11758 72.893225 
L 332.581704 73.597392 
L 333.509951 75.50259 
L 334.206137 76.570794 
L 334.670261 76.922566 
L 335.134384 76.89984 
L 335.598508 76.477691 
L 336.062632 75.717824 
L 336.990879 73.539019 
L 337.919127 71.418522 
L 338.38325 70.727334 
L 338.847374 70.392766 
L 339.311498 70.452191 
L 339.775622 70.878109 
L 340.471807 72.016353 
L 341.632116 74.137349 
L 342.09624 74.686001 
L 342.560364 74.85194 
L 343.024488 74.63285 
L 343.488611 74.043777 
L 344.184797 72.607696 
L 345.577168 69.352404 
L 346.041292 68.652722 
L 346.505416 68.314913 
L 346.969539 68.356781 
L 347.433663 68.725835 
L 347.897787 69.458696 
L 349.52222 72.347086 
L 349.986343 72.750024 
L 350.450467 72.753812 
L 350.914591 72.362397 
L 351.378715 71.620823 
L 353.699333 66.947937 
L 354.163457 66.476369 
L 354.395519 66.399696 
L 354.859643 66.539393 
L 355.555828 67.466985 
L 357.180261 70.393707 
L 357.644385 70.886891 
L 358.108509 70.95757 
L 358.572632 70.65128 
L 359.036756 69.975777 
L 359.732942 68.465602 
L 361.125313 65.273378 
L 361.589437 64.774718 
L 362.05356 64.682245 
L 362.517684 64.834966 
L 362.749746 65.046612 
L 363.445932 66.325985 
L 364.606241 68.423144 
L 365.070365 68.939732 
L 365.534488 69.155921 
L 365.998612 69.012056 
L 366.462736 68.507436 
L 367.158921 67.188429 
L 368.551292 64.318267 
L 369.247478 63.741808 
L 369.711602 63.687048 
L 370.175726 64.023459 
L 371.800159 66.042504 
L 372.264282 66.969569 
L 372.960468 67.604653 
L 373.424592 67.635575 
L 373.888715 67.418493 
L 374.352839 66.766469 
L 376.209334 63.630206 
L 376.673458 63.199698 
L 377.137581 63.028912 
L 377.601705 63.133282 
L 378.065829 63.488937 
L 380.386447 65.982338 
L 380.850571 66.208253 
L 381.546757 66.051079 
L 381.778819 65.643504 
L 382.01088 65.503804 
L 382.707066 64.564294 
L 384.099437 63.078172 
L 384.795623 62.718131 
L 385.259747 62.725928 
L 385.72387 62.932792 
L 386.652118 63.659553 
L 387.580365 64.629626 
L 388.276551 64.878324 
L 388.972736 64.834564 
L 390.365108 64.09064 
L 392.221602 62.617887 
L 392.685726 62.442184 
L 393.14985 62.434242 
L 393.846035 62.694582 
L 395.006345 63.616526 
L 395.934592 64.318634 
L 396.398716 64.48037 
L 397.094902 64.435538 
L 398.023149 64.020324 
L 398.487273 63.67761 
L 398.487273 63.67761 
" style="fill:none;stroke:#ff0000;stroke-linecap:square;stroke-width:1.5;"/>
   </g>
   <g id="line2d_17">
    <path clip-path="url(#pbbda3775b2)" d="M 73.832727 162.285535 
L 74.760975 241.918746 
L 75.45716 280.600228 
L 75.921284 293.254257 
L 76.153346 295.488 
L 76.385408 295.010423 
L 76.61747 291.913599 
L 77.081593 278.33729 
L 77.545717 256.105305 
L 78.241903 210.859701 
L 79.866336 94.792365 
L 80.330459 73.766257 
L 80.794583 63.492768 
L 81.026645 62.710437 
L 81.258707 64.743398 
L 81.490769 69.396975 
L 81.954892 85.45817 
L 82.651078 120.876226 
L 83.811387 179.658434 
L 84.275511 193.896062 
L 84.507573 198.087453 
L 84.739635 200.189313 
L 85.203759 200.211971 
L 85.667882 190.45386 
L 86.364068 165.529213 
L 87.524377 119.203373 
L 87.988501 106.342857 
L 88.452625 99.284905 
L 88.684686 98.130022 
L 88.916748 98.550204 
L 89.14881 100.474108 
L 89.612934 108.292987 
L 90.30912 126.986757 
L 91.469429 160.443398 
L 91.933553 169.359609 
L 92.397676 173.970305 
L 92.629738 174.538537 
L 92.8618 173.963711 
L 93.093862 172.309847 
L 93.557986 166.177877 
L 94.254171 152.17781 
L 95.41448 128.005583 
L 95.878604 121.819418 
L 96.342728 118.829558 
L 96.806852 118.356782 
L 97.038914 118.963018 
L 97.503037 124.066803 
L 98.199223 135.276714 
L 99.359532 154.027964 
L 99.823656 158.659376 
L 100.055718 160.024494 
L 100.28778 160.723208 
L 100.751903 160.812028 
L 100.983965 160.202987 
L 101.448089 156.000614 
L 102.376336 143.822187 
L 103.304584 132.530022 
L 103.768708 129.096167 
L 104.000769 128.124542 
L 104.464893 127.211969 
L 104.696955 127.286236 
L 105.161079 129.978143 
L 105.857264 136.551568 
L 107.017574 148.493493 
L 107.481697 151.738296 
L 107.945821 153.462532 
L 108.409945 153.975268 
L 108.642007 153.815973 
L 108.874068 153.238695 
L 109.338192 150.289188 
L 111.426749 134.32046 
L 111.890873 133.042163 
L 112.122935 132.558741 
L 112.354996 132.422718 
L 112.587058 132.639999 
L 112.81912 133.202843 
L 113.283244 135.790769 
L 115.139739 148.189271 
L 115.603862 149.686778 
L 116.067986 150.644059 
L 116.300048 150.677603 
L 116.53211 150.402488 
L 116.764172 149.834537 
L 117.460357 146.077435 
L 118.852729 137.754807 
L 119.548914 135.399858 
L 119.780976 134.929431 
L 120.013038 134.722387 
L 120.2451 134.784124 
L 120.477162 135.115082 
L 120.941285 136.523187 
L 121.869533 141.781641 
L 122.79778 146.54351 
L 123.493966 148.756671 
L 123.726028 149.118977 
L 123.95809 149.233217 
L 124.190151 149.096086 
L 124.422213 148.711592 
L 124.886337 147.268439 
L 125.350461 145.005846 
L 126.51077 138.884419 
L 127.206956 136.346556 
L 127.671079 135.553147 
L 127.903141 135.513576 
L 128.135203 135.715277 
L 128.599327 136.807245 
L 129.063451 138.670184 
L 130.687884 146.832111 
L 131.152007 148.273582 
L 131.384069 148.676638 
L 131.616131 148.847573 
L 131.848193 148.780569 
L 132.080255 148.478495 
L 132.544378 147.221166 
L 133.240564 144.090049 
L 134.400873 138.159098 
L 134.864997 136.529879 
L 135.329121 135.714655 
L 135.561183 135.652265 
L 135.793245 135.826421 
L 136.257368 136.851128 
L 136.721492 138.644476 
L 138.810049 148.17955 
L 139.274172 148.781458 
L 139.506234 148.733026 
L 139.738296 148.451204 
L 140.20242 147.233578 
L 140.898605 144.157302 
L 142.290977 137.354988 
L 142.7551 136.089263 
L 142.987162 135.780869 
L 143.219224 135.704956 
L 143.451286 135.863879 
L 143.91541 136.855545 
L 144.379533 138.610427 
L 146.46809 148.091673 
L 146.932214 148.715426 
L 147.164276 148.680208 
L 147.396338 148.414606 
L 147.860461 147.230047 
L 148.556647 144.201394 
L 149.949018 137.454075 
L 150.413142 136.182937 
L 150.645204 135.865221 
L 150.877266 135.774565 
L 151.109327 135.918371 
L 151.341389 136.289507 
L 151.805513 137.65167 
L 152.501699 140.83049 
L 153.662008 146.528141 
L 154.126132 147.997589 
L 154.590255 148.641009 
L 154.822317 148.622818 
L 155.054379 148.374764 
L 155.518503 147.229483 
L 156.214688 144.261175 
L 157.60706 137.555344 
L 158.071183 136.268465 
L 158.303245 135.93828 
L 158.535307 135.834435 
L 158.767369 135.960931 
L 158.999431 136.313028 
L 159.463554 137.635143 
L 160.15974 140.758815 
L 161.320049 146.426283 
L 161.784173 147.911522 
L 162.248297 148.582192 
L 162.480359 148.578414 
L 162.712421 148.34644 
L 163.176544 147.23923 
L 163.87273 144.319615 
L 165.265101 137.647799 
L 165.729225 136.342748 
L 165.961287 135.996924 
L 166.193348 135.880582 
L 166.42541 135.992655 
L 166.657472 136.329195 
L 167.121596 137.618944 
L 167.817782 140.695928 
L 168.978091 146.3325 
L 169.442215 147.824979 
L 169.906338 148.51877 
L 170.1384 148.530389 
L 170.370462 148.315221 
L 170.834586 147.242116 
L 171.298709 145.458468 
L 173.155204 136.98979 
L 173.619328 136.07169 
L 173.85139 135.939104 
L 174.083452 136.033142 
L 174.315514 136.350898 
L 174.779637 137.601182 
L 175.475823 140.629232 
L 176.636132 146.236758 
L 177.100256 147.742655 
L 177.56438 148.460831 
L 177.796442 148.487484 
L 178.028503 148.28945 
L 178.492627 147.25413 
L 178.956751 145.504846 
L 180.813246 137.083994 
L 181.27737 136.14103 
L 181.509431 135.993034 
L 181.741493 136.070105 
L 181.973555 136.368919 
L 182.437679 137.58023 
L 183.133864 140.558381 
L 184.526236 146.984073 
L 184.990359 148.131186 
L 185.222421 148.393716 
L 185.454483 148.434626 
L 185.686545 148.255632 
L 186.150669 147.258797 
L 186.614792 145.544394 
L 188.471287 137.176009 
L 188.935411 136.216749 
L 189.167473 136.055424 
L 189.399535 136.117235 
L 189.631597 136.398666 
L 190.09572 137.571977 
L 190.791906 140.502751 
L 192.184277 146.884403 
L 192.648401 148.050056 
L 192.880463 148.327163 
L 193.112525 148.388295 
L 193.344586 148.224493 
L 193.80871 147.263447 
L 194.272834 145.585952 
L 196.361391 136.671147 
L 196.825514 136.106448 
L 197.057576 136.151532 
L 197.289638 136.415841 
L 197.753762 137.554595 
L 198.449947 140.433775 
L 199.842319 146.794824 
L 200.306442 147.979 
L 200.538504 148.26945 
L 200.770566 148.341981 
L 201.002628 148.197383 
L 201.466752 147.275812 
L 201.930875 145.635953 
L 204.019432 136.747573 
L 204.483556 136.155264 
L 204.715618 136.183534 
L 204.94768 136.429677 
L 205.411803 137.53177 
L 206.107989 140.364957 
L 207.50036 146.705891 
L 207.964484 147.90709 
L 208.196546 148.209042 
L 208.428607 148.296369 
L 208.660669 148.165984 
L 209.124793 147.279926 
L 209.588917 145.674648 
L 210.749226 140.179654 
L 211.445412 137.436237 
L 211.909535 136.416672 
L 212.141597 136.212678 
L 212.373659 136.22622 
L 212.605721 136.456188 
L 213.069845 137.52318 
L 213.76603 140.303377 
L 215.158401 146.613744 
L 215.622525 147.831885 
L 215.854587 148.146946 
L 216.086649 148.246911 
L 216.318711 148.133658 
L 216.550773 147.808465 
L 217.014896 146.577491 
L 217.711082 143.646882 
L 218.871391 138.315032 
L 219.335515 136.913207 
L 219.799639 136.272153 
L 220.031701 136.268356 
L 220.263762 136.478674 
L 220.727886 137.511336 
L 221.19201 139.214086 
L 223.048505 147.223673 
L 223.512629 148.078241 
L 223.74469 148.195733 
L 223.976752 148.098445 
L 224.208814 147.790548 
L 224.672938 146.593476 
L 225.369123 143.712054 
L 226.529433 138.411085 
L 226.993556 137.000016 
L 227.45768 136.331962 
L 227.689742 136.312514 
L 227.921804 136.506719 
L 228.385928 137.497978 
L 228.850051 139.163174 
L 230.706546 147.14031 
L 231.17067 148.019461 
L 231.402732 148.152196 
L 231.634794 148.072075 
L 231.866856 147.781819 
L 232.330979 146.623132 
L 233.027165 143.78713 
L 234.187474 138.500497 
L 234.651598 137.074561 
L 235.115722 136.385842 
L 235.347783 136.350321 
L 235.579845 136.527114 
L 236.043969 137.485067 
L 236.508093 139.120688 
L 238.364588 147.06284 
L 238.828711 147.960777 
L 239.060773 148.107393 
L 239.292835 148.042498 
L 239.524897 147.767335 
L 239.989021 146.639283 
L 240.685206 143.847321 
L 242.077577 137.787539 
L 242.541701 136.693912 
L 242.773763 136.43727 
L 243.005825 136.389291 
L 243.237887 136.549488 
L 243.702011 137.473451 
L 244.166134 139.080542 
L 246.254691 147.54251 
L 246.718815 148.065483 
L 246.950877 148.015389 
L 247.182938 147.757553 
L 247.647062 146.663109 
L 248.343248 143.915532 
L 249.735619 137.872751 
L 250.199743 136.758793 
L 250.431805 136.487646 
L 250.663866 136.42309 
L 250.895928 136.567718 
L 251.360052 137.458929 
L 251.824176 139.032845 
L 253.912732 147.479276 
L 254.376856 148.028833 
L 254.608918 147.994026 
L 254.84098 147.752734 
L 255.305104 146.689501 
L 256.001289 143.981311 
L 257.39366 137.948391 
L 257.857784 136.816961 
L 258.089846 136.533044 
L 258.321908 136.457497 
L 258.55397 136.58972 
L 259.018093 137.454783 
L 259.482217 138.994296 
L 261.570774 147.415383 
L 262.034898 147.989824 
L 262.26696 147.970567 
L 262.499021 147.743965 
L 262.963145 146.708259 
L 263.659331 144.036426 
L 265.051702 138.020845 
L 265.515826 136.869383 
L 265.747887 136.574276 
L 265.979949 136.484581 
L 266.212011 136.60154 
L 266.444073 136.921665 
L 266.908197 138.118326 
L 267.604382 140.933521 
L 268.764692 146.020395 
L 269.228815 147.350669 
L 269.692939 147.952313 
L 269.925001 147.950076 
L 270.157063 147.739773 
L 270.621187 146.742685 
L 271.317372 144.113639 
L 272.709743 138.101159 
L 273.173867 136.92684 
L 273.405929 136.618832 
L 273.637991 136.512141 
L 273.870053 136.611363 
L 274.102114 136.910317 
L 274.566238 138.072643 
L 275.262424 140.853843 
L 276.422733 145.949847 
L 276.886857 147.309176 
L 277.350981 147.936273 
L 277.583042 147.944459 
L 277.815104 147.749005 
L 278.279228 146.773365 
L 278.743352 145.152923 
L 280.599847 137.474574 
L 281.06397 136.641414 
L 281.296032 136.518928 
L 281.528094 136.605523 
L 281.760156 136.894797 
L 282.22428 138.03004 
L 282.920465 140.780375 
L 284.080775 145.883931 
L 284.544898 147.256953 
L 285.009022 147.912169 
L 285.241084 147.938019 
L 285.473146 147.754568 
L 285.937269 146.81219 
L 286.633455 144.240488 
L 288.025826 138.226293 
L 288.48995 137.015667 
L 288.722012 136.681094 
L 288.954074 136.545765 
L 289.186136 136.615194 
L 289.418197 136.888819 
L 289.882321 137.989207 
L 290.578507 140.704129 
L 291.970878 146.577135 
L 292.435002 147.637204 
L 292.667063 147.880678 
L 292.899125 147.922578 
L 293.131187 147.754626 
L 293.595311 146.840347 
L 294.059435 145.280798 
L 295.91593 137.606407 
L 296.380053 136.727492 
L 296.612115 136.575647 
L 296.844177 136.621524 
L 297.076239 136.872041 
L 297.540363 137.964523 
L 298.236548 140.629994 
L 299.628919 146.471042 
L 300.093043 147.547638 
L 300.325105 147.807199 
L 300.557167 147.868759 
L 300.789229 147.724342 
L 301.253352 146.857281 
L 301.717476 145.33847 
L 303.806033 137.129279 
L 304.270157 136.592879 
L 304.502218 136.628331 
L 304.73428 136.866341 
L 305.198404 137.895392 
L 305.89459 140.518476 
L 307.286961 146.41788 
L 307.751085 147.540872 
L 307.983146 147.816772 
L 308.215208 147.893636 
L 308.44727 147.763387 
L 308.911394 146.922021 
L 309.375518 145.420994 
L 310.535827 140.286167 
L 311.232012 137.722544 
L 311.696136 136.786156 
L 311.928198 136.611908 
L 312.16026 136.627613 
L 312.392322 136.858493 
L 312.856446 137.86801 
L 313.552631 140.47276 
L 314.945002 146.350518 
L 315.409126 147.480708 
L 315.641188 147.769232 
L 315.87325 147.858436 
L 316.105312 147.745561 
L 316.337373 147.433822 
L 316.801497 146.268213 
L 317.497683 143.521713 
L 318.657992 138.542579 
L 319.122116 137.232869 
L 319.58624 136.636456 
L 319.818301 136.639485 
L 320.050363 136.842729 
L 320.514487 137.817606 
L 320.978611 139.408029 
L 322.835106 146.957766 
L 323.299229 147.726031 
L 323.531291 147.834924 
L 323.763353 147.723731 
L 323.995415 147.433069 
L 324.459539 146.294695 
L 325.155724 143.582387 
L 326.316034 138.635561 
L 326.780157 137.32628 
L 327.244281 136.727459 
L 327.476343 136.712316 
L 327.708405 136.900336 
L 328.172528 137.839256 
L 328.636652 139.404727 
L 330.493147 146.81864 
L 330.957271 147.629785 
L 331.189333 147.747212 
L 331.421395 147.663208 
L 331.653456 147.390812 
L 332.11758 146.311497 
L 332.581704 144.649708 
L 333.974075 138.66252 
L 334.438199 137.374352 
L 334.902322 136.782315 
L 335.134384 136.776434 
L 335.366446 136.968182 
L 335.83057 137.913898 
L 336.526755 140.406676 
L 337.919127 146.167345 
L 338.38325 147.299935 
L 338.615312 147.599432 
L 338.847374 147.712529 
L 339.079436 147.622276 
L 339.311498 147.339823 
L 339.775622 146.235884 
L 340.471807 143.57009 
L 341.632116 138.688963 
L 342.09624 137.375919 
L 342.560364 136.788635 
L 342.792426 136.783447 
L 343.024488 136.970616 
L 343.488611 137.897205 
L 344.184797 140.386736 
L 345.577168 146.143577 
L 346.041292 147.284079 
L 346.273354 147.590478 
L 346.505416 147.702343 
L 346.737477 147.620232 
L 346.969539 147.356116 
L 347.433663 146.314432 
L 348.129849 143.637249 
L 349.290158 138.72993 
L 349.754282 137.384704 
L 350.218405 136.752958 
L 350.450467 136.728099 
L 350.682529 136.903905 
L 351.146653 137.811096 
L 351.610777 139.3528 
L 353.467271 146.478207 
L 353.931395 147.431787 
L 354.163457 147.670803 
L 354.395519 147.682862 
L 354.859643 147.131503 
L 355.323766 145.802352 
L 356.019952 143.009627 
L 356.948199 139.071017 
L 357.644385 137.175831 
L 357.876447 136.891453 
L 358.108509 136.802786 
L 358.340571 136.90221 
L 358.572632 137.193564 
L 359.036756 138.305512 
L 359.732942 140.967272 
L 360.893251 145.805908 
L 361.357375 147.103921 
L 361.589437 147.425456 
L 361.821498 147.555678 
L 362.05356 147.501838 
L 362.517684 146.955704 
L 362.981808 145.649143 
L 364.838303 138.371551 
L 365.302426 137.388635 
L 365.534488 137.143288 
L 365.76655 137.089934 
L 365.998612 137.211739 
L 366.462736 137.994425 
L 366.926859 139.405579 
L 368.783354 146.076488 
L 369.247478 146.739717 
L 369.711602 146.803614 
L 369.943664 146.566319 
L 370.407787 145.61934 
L 371.568097 142.198243 
L 372.728406 138.451564 
L 373.19253 137.882032 
L 373.424592 137.815771 
L 373.656653 137.876087 
L 373.888715 138.100736 
L 374.352839 139.121441 
L 375.281086 142.187654 
L 376.209334 144.876719 
L 376.673458 145.727931 
L 377.137581 146.069817 
L 377.369643 146.025864 
L 377.833767 145.56605 
L 378.297891 144.619348 
L 380.386447 139.440745 
L 380.850571 138.869865 
L 381.314695 138.878661 
L 381.546757 138.955885 
L 384.099437 144.348227 
L 384.563561 144.926474 
L 385.027685 145.120109 
L 385.491808 144.899379 
L 385.955932 144.308144 
L 386.88418 142.510661 
L 387.580365 140.9788 
L 388.276551 140.110089 
L 388.740675 139.881219 
L 389.204798 139.965549 
L 389.900984 140.500269 
L 390.597169 141.475403 
L 392.221602 144.008901 
L 392.685726 144.345725 
L 393.14985 144.363645 
L 393.613974 144.072785 
L 394.078097 143.525694 
L 395.006345 141.993685 
L 395.934592 140.587564 
L 396.398716 140.227157 
L 396.86284 140.169146 
L 397.326963 140.383218 
L 398.023149 141.099256 
L 398.487273 141.801452 
L 398.487273 141.801452 
" style="fill:none;stroke:#008000;stroke-linecap:square;stroke-width:1.5;"/>
   </g>
   <g id="patch_3">
    <path d="M 57.6 307.584 
L 57.6 41.472 
" style="fill:none;stroke:#000000;stroke-linecap:square;stroke-linejoin:miter;stroke-width:0.8;"/>
   </g>
   <g id="patch_4">
    <path d="M 414.72 307.584 
L 414.72 41.472 
" style="fill:none;stroke:#000000;stroke-linecap:square;stroke-linejoin:miter;stroke-width:0.8;"/>
   </g>
   <g id="patch_5">
    <path d="M 57.6 307.584 
L 414.72 307.584 
" style="fill:none;stroke:#000000;stroke-linecap:square;stroke-linejoin:miter;stroke-width:0.8;"/>
   </g>
   <g id="patch_6">
    <path d="M 57.6 41.472 
L 414.72 41.472 
" style="fill:none;stroke:#000000;stroke-linecap:square;stroke-linejoin:miter;stroke-width:0.8;"/>
   </g>
   <g id="legend_1">
    <g id="patch_7">
     <path d="M 351.0075 302.584 
L 407.72 302.584 
Q 409.72 302.584 409.72 300.584 
L 409.72 257.549625 
Q 409.72 255.549625 407.72 255.549625 
L 351.0075 255.549625 
Q 349.0075 255.549625 349.0075 257.549625 
L 349.0075 300.584 
Q 349.0075 302.584 351.0075 302.584 
z
" style="fill:#ffffff;opacity:0.8;stroke:#cccccc;stroke-linejoin:miter;"/>
    </g>
    <g id="line2d_18">
     <path d="M 353.0075 263.648062 
L 373.0075 263.648062 
" style="fill:none;stroke:#1f77b4;stroke-linecap:square;stroke-width:1.5;"/>
    </g>
    <g id="line2d_19"/>
    <g id="text_15">
     <!-- 0-&gt;1 -->
     <defs>
      <path d="M 4.890625 31.390625 
L 31.203125 31.390625 
L 31.203125 23.390625 
L 4.890625 23.390625 
z
" id="DejaVuSans-45"/>
      <path d="M 10.59375 49.21875 
L 10.59375 58.109375 
L 73.1875 35.40625 
L 73.1875 27.296875 
L 10.59375 4.59375 
L 10.59375 13.484375 
L 60.890625 31.296875 
z
" id="DejaVuSans-62"/>
     </defs>
     <g transform="translate(381.0075 267.148062)scale(0.1 -0.1)">
      <use xlink:href="#DejaVuSans-48"/>
      <use x="63.623047" xlink:href="#DejaVuSans-45"/>
      <use x="99.707031" xlink:href="#DejaVuSans-62"/>
      <use x="183.496094" xlink:href="#DejaVuSans-49"/>
     </g>
    </g>
    <g id="line2d_20">
     <path d="M 353.0075 278.326188 
L 373.0075 278.326188 
" style="fill:none;stroke:#ff0000;stroke-linecap:square;stroke-width:1.5;"/>
    </g>
    <g id="line2d_21"/>
    <g id="text_16">
     <!-- 1-&gt;0 -->
     <g transform="translate(381.0075 281.826188)scale(0.1 -0.1)">
      <use xlink:href="#DejaVuSans-49"/>
      <use x="63.623047" xlink:href="#DejaVuSans-45"/>
      <use x="99.707031" xlink:href="#DejaVuSans-62"/>
      <use x="183.496094" xlink:href="#DejaVuSans-48"/>
     </g>
    </g>
    <g id="line2d_22">
     <path d="M 353.0075 293.004312 
L 373.0075 293.004312 
" style="fill:none;stroke:#008000;stroke-linecap:square;stroke-width:1.5;"/>
    </g>
    <g id="line2d_23"/>
    <g id="text_17">
     <!-- diff -->
     <defs>
      <path d="M 45.40625 46.390625 
L 45.40625 75.984375 
L 54.390625 75.984375 
L 54.390625 0 
L 45.40625 0 
L 45.40625 8.203125 
Q 42.578125 3.328125 38.25 0.953125 
Q 33.9375 -1.421875 27.875 -1.421875 
Q 17.96875 -1.421875 11.734375 6.484375 
Q 5.515625 14.40625 5.515625 27.296875 
Q 5.515625 40.1875 11.734375 48.09375 
Q 17.96875 56 27.875 56 
Q 33.9375 56 38.25 53.625 
Q 42.578125 51.265625 45.40625 46.390625 
z
M 14.796875 27.296875 
Q 14.796875 17.390625 18.875 11.75 
Q 22.953125 6.109375 30.078125 6.109375 
Q 37.203125 6.109375 41.296875 11.75 
Q 45.40625 17.390625 45.40625 27.296875 
Q 45.40625 37.203125 41.296875 42.84375 
Q 37.203125 48.484375 30.078125 48.484375 
Q 22.953125 48.484375 18.875 42.84375 
Q 14.796875 37.203125 14.796875 27.296875 
z
" id="DejaVuSans-100"/>
      <path d="M 9.421875 54.6875 
L 18.40625 54.6875 
L 18.40625 0 
L 9.421875 0 
z
M 9.421875 75.984375 
L 18.40625 75.984375 
L 18.40625 64.59375 
L 9.421875 64.59375 
z
" id="DejaVuSans-105"/>
      <path d="M 37.109375 75.984375 
L 37.109375 68.5 
L 28.515625 68.5 
Q 23.6875 68.5 21.796875 66.546875 
Q 19.921875 64.59375 19.921875 59.515625 
L 19.921875 54.6875 
L 34.71875 54.6875 
L 34.71875 47.703125 
L 19.921875 47.703125 
L 19.921875 0 
L 10.890625 0 
L 10.890625 47.703125 
L 2.296875 47.703125 
L 2.296875 54.6875 
L 10.890625 54.6875 
L 10.890625 58.5 
Q 10.890625 67.625 15.140625 71.796875 
Q 19.390625 75.984375 28.609375 75.984375 
z
" id="DejaVuSans-102"/>
     </defs>
     <g transform="translate(381.0075 296.504312)scale(0.1 -0.1)">
      <use xlink:href="#DejaVuSans-100"/>
      <use x="63.476562" xlink:href="#DejaVuSans-105"/>
      <use x="91.259766" xlink:href="#DejaVuSans-102"/>
      <use x="126.464844" xlink:href="#DejaVuSans-102"/>
     </g>
    </g>
   </g>
  </g>
 </g>
 <defs>
  <clipPath id="pbbda3775b2">
   <rect height="266.112" width="357.12" x="57.6" y="41.472"/>
  </clipPath>
 </defs>
</svg>
