<?xml version="1.0" encoding="utf-8" standalone="no"?>
<!DOCTYPE svg PUBLIC "-//W3C//DTD SVG 1.1//EN"
  "http://www.w3.org/Graphics/SVG/1.1/DTD/svg11.dtd">
<!-- Created with matplotlib (https://matplotlib.org/) -->
<svg height="345.6pt" version="1.1" viewBox="0 0 460.8 345.6" width="460.8pt" xmlns="http://www.w3.org/2000/svg" xmlns:xlink="http://www.w3.org/1999/xlink">
 <defs>
  <style type="text/css">
*{stroke-linecap:butt;stroke-linejoin:round;}
  </style>
 </defs>
 <g id="figure_1">
  <g id="patch_1">
   <path d="M 0 345.6 
L 460.8 345.6 
L 460.8 0 
L 0 0 
z
" style="fill:#ffffff;"/>
  </g>
  <g id="axes_1">
   <g id="patch_2">
    <path d="M 57.6 307.584 
L 414.72 307.584 
L 414.72 41.472 
L 57.6 41.472 
z
" style="fill:#ffffff;"/>
   </g>
   <g id="matplotlib.axis_1">
    <g id="xtick_1">
     <g id="line2d_1">
      <defs>
       <path d="M 0 0 
L 0 3.5 
" id="mad8e4da359" style="stroke:#000000;stroke-width:0.8;"/>
      </defs>
      <g>
       <use style="stroke:#000000;stroke-width:0.8;" x="73.832727" xlink:href="#mad8e4da359" y="307.584"/>
      </g>
     </g>
     <g id="text_1">
      <!-- 0 -->
      <defs>
       <path d="M 31.78125 66.40625 
Q 24.171875 66.40625 20.328125 58.90625 
Q 16.5 51.421875 16.5 36.375 
Q 16.5 21.390625 20.328125 13.890625 
Q 24.171875 6.390625 31.78125 6.390625 
Q 39.453125 6.390625 43.28125 13.890625 
Q 47.125 21.390625 47.125 36.375 
Q 47.125 51.421875 43.28125 58.90625 
Q 39.453125 66.40625 31.78125 66.40625 
z
M 31.78125 74.21875 
Q 44.046875 74.21875 50.515625 64.515625 
Q 56.984375 54.828125 56.984375 36.375 
Q 56.984375 17.96875 50.515625 8.265625 
Q 44.046875 -1.421875 31.78125 -1.421875 
Q 19.53125 -1.421875 13.0625 8.265625 
Q 6.59375 17.96875 6.59375 36.375 
Q 6.59375 54.828125 13.0625 64.515625 
Q 19.53125 74.21875 31.78125 74.21875 
z
" id="DejaVuSans-48"/>
      </defs>
      <g transform="translate(70.651477 322.182437)scale(0.1 -0.1)">
       <use xlink:href="#DejaVuSans-48"/>
      </g>
     </g>
    </g>
    <g id="xtick_2">
     <g id="line2d_2">
      <g>
       <use style="stroke:#000000;stroke-width:0.8;" x="120.2451" xlink:href="#mad8e4da359" y="307.584"/>
      </g>
     </g>
     <g id="text_2">
      <!-- 200 -->
      <defs>
       <path d="M 19.1875 8.296875 
L 53.609375 8.296875 
L 53.609375 0 
L 7.328125 0 
L 7.328125 8.296875 
Q 12.9375 14.109375 22.625 23.890625 
Q 32.328125 33.6875 34.8125 36.53125 
Q 39.546875 41.84375 41.421875 45.53125 
Q 43.3125 49.21875 43.3125 52.78125 
Q 43.3125 58.59375 39.234375 62.25 
Q 35.15625 65.921875 28.609375 65.921875 
Q 23.96875 65.921875 18.8125 64.3125 
Q 13.671875 62.703125 7.8125 59.421875 
L 7.8125 69.390625 
Q 13.765625 71.78125 18.9375 73 
Q 24.125 74.21875 28.421875 74.21875 
Q 39.75 74.21875 46.484375 68.546875 
Q 53.21875 62.890625 53.21875 53.421875 
Q 53.21875 48.921875 51.53125 44.890625 
Q 49.859375 40.875 45.40625 35.40625 
Q 44.1875 33.984375 37.640625 27.21875 
Q 31.109375 20.453125 19.1875 8.296875 
z
" id="DejaVuSans-50"/>
      </defs>
      <g transform="translate(110.70135 322.182437)scale(0.1 -0.1)">
       <use xlink:href="#DejaVuSans-50"/>
       <use x="63.623047" xlink:href="#DejaVuSans-48"/>
       <use x="127.246094" xlink:href="#DejaVuSans-48"/>
      </g>
     </g>
    </g>
    <g id="xtick_3">
     <g id="line2d_3">
      <g>
       <use style="stroke:#000000;stroke-width:0.8;" x="166.657472" xlink:href="#mad8e4da359" y="307.584"/>
      </g>
     </g>
     <g id="text_3">
      <!-- 400 -->
      <defs>
       <path d="M 37.796875 64.3125 
L 12.890625 25.390625 
L 37.796875 25.390625 
z
M 35.203125 72.90625 
L 47.609375 72.90625 
L 47.609375 25.390625 
L 58.015625 25.390625 
L 58.015625 17.1875 
L 47.609375 17.1875 
L 47.609375 0 
L 37.796875 0 
L 37.796875 17.1875 
L 4.890625 17.1875 
L 4.890625 26.703125 
z
" id="DejaVuSans-52"/>
      </defs>
      <g transform="translate(157.113722 322.182437)scale(0.1 -0.1)">
       <use xlink:href="#DejaVuSans-52"/>
       <use x="63.623047" xlink:href="#DejaVuSans-48"/>
       <use x="127.246094" xlink:href="#DejaVuSans-48"/>
      </g>
     </g>
    </g>
    <g id="xtick_4">
     <g id="line2d_4">
      <g>
       <use style="stroke:#000000;stroke-width:0.8;" x="213.069845" xlink:href="#mad8e4da359" y="307.584"/>
      </g>
     </g>
     <g id="text_4">
      <!-- 600 -->
      <defs>
       <path d="M 33.015625 40.375 
Q 26.375 40.375 22.484375 35.828125 
Q 18.609375 31.296875 18.609375 23.390625 
Q 18.609375 15.53125 22.484375 10.953125 
Q 26.375 6.390625 33.015625 6.390625 
Q 39.65625 6.390625 43.53125 10.953125 
Q 47.40625 15.53125 47.40625 23.390625 
Q 47.40625 31.296875 43.53125 35.828125 
Q 39.65625 40.375 33.015625 40.375 
z
M 52.59375 71.296875 
L 52.59375 62.3125 
Q 48.875 64.0625 45.09375 64.984375 
Q 41.3125 65.921875 37.59375 65.921875 
Q 27.828125 65.921875 22.671875 59.328125 
Q 17.53125 52.734375 16.796875 39.40625 
Q 19.671875 43.65625 24.015625 45.921875 
Q 28.375 48.1875 33.59375 48.1875 
Q 44.578125 48.1875 50.953125 41.515625 
Q 57.328125 34.859375 57.328125 23.390625 
Q 57.328125 12.15625 50.6875 5.359375 
Q 44.046875 -1.421875 33.015625 -1.421875 
Q 20.359375 -1.421875 13.671875 8.265625 
Q 6.984375 17.96875 6.984375 36.375 
Q 6.984375 53.65625 15.1875 63.9375 
Q 23.390625 74.21875 37.203125 74.21875 
Q 40.921875 74.21875 44.703125 73.484375 
Q 48.484375 72.75 52.59375 71.296875 
z
" id="DejaVuSans-54"/>
      </defs>
      <g transform="translate(203.526095 322.182437)scale(0.1 -0.1)">
       <use xlink:href="#DejaVuSans-54"/>
       <use x="63.623047" xlink:href="#DejaVuSans-48"/>
       <use x="127.246094" xlink:href="#DejaVuSans-48"/>
      </g>
     </g>
    </g>
    <g id="xtick_5">
     <g id="line2d_5">
      <g>
       <use style="stroke:#000000;stroke-width:0.8;" x="259.482217" xlink:href="#mad8e4da359" y="307.584"/>
      </g>
     </g>
     <g id="text_5">
      <!-- 800 -->
      <defs>
       <path d="M 31.78125 34.625 
Q 24.75 34.625 20.71875 30.859375 
Q 16.703125 27.09375 16.703125 20.515625 
Q 16.703125 13.921875 20.71875 10.15625 
Q 24.75 6.390625 31.78125 6.390625 
Q 38.8125 6.390625 42.859375 10.171875 
Q 46.921875 13.96875 46.921875 20.515625 
Q 46.921875 27.09375 42.890625 30.859375 
Q 38.875 34.625 31.78125 34.625 
z
M 21.921875 38.8125 
Q 15.578125 40.375 12.03125 44.71875 
Q 8.5 49.078125 8.5 55.328125 
Q 8.5 64.0625 14.71875 69.140625 
Q 20.953125 74.21875 31.78125 74.21875 
Q 42.671875 74.21875 48.875 69.140625 
Q 55.078125 64.0625 55.078125 55.328125 
Q 55.078125 49.078125 51.53125 44.71875 
Q 48 40.375 41.703125 38.8125 
Q 48.828125 37.15625 52.796875 32.3125 
Q 56.78125 27.484375 56.78125 20.515625 
Q 56.78125 9.90625 50.3125 4.234375 
Q 43.84375 -1.421875 31.78125 -1.421875 
Q 19.734375 -1.421875 13.25 4.234375 
Q 6.78125 9.90625 6.78125 20.515625 
Q 6.78125 27.484375 10.78125 32.3125 
Q 14.796875 37.15625 21.921875 38.8125 
z
M 18.3125 54.390625 
Q 18.3125 48.734375 21.84375 45.5625 
Q 25.390625 42.390625 31.78125 42.390625 
Q 38.140625 42.390625 41.71875 45.5625 
Q 45.3125 48.734375 45.3125 54.390625 
Q 45.3125 60.0625 41.71875 63.234375 
Q 38.140625 66.40625 31.78125 66.40625 
Q 25.390625 66.40625 21.84375 63.234375 
Q 18.3125 60.0625 18.3125 54.390625 
z
" id="DejaVuSans-56"/>
      </defs>
      <g transform="translate(249.938467 322.182437)scale(0.1 -0.1)">
       <use xlink:href="#DejaVuSans-56"/>
       <use x="63.623047" xlink:href="#DejaVuSans-48"/>
       <use x="127.246094" xlink:href="#DejaVuSans-48"/>
      </g>
     </g>
    </g>
    <g id="xtick_6">
     <g id="line2d_6">
      <g>
       <use style="stroke:#000000;stroke-width:0.8;" x="305.89459" xlink:href="#mad8e4da359" y="307.584"/>
      </g>
     </g>
     <g id="text_6">
      <!-- 1000 -->
      <defs>
       <path d="M 12.40625 8.296875 
L 28.515625 8.296875 
L 28.515625 63.921875 
L 10.984375 60.40625 
L 10.984375 69.390625 
L 28.421875 72.90625 
L 38.28125 72.90625 
L 38.28125 8.296875 
L 54.390625 8.296875 
L 54.390625 0 
L 12.40625 0 
z
" id="DejaVuSans-49"/>
      </defs>
      <g transform="translate(293.16959 322.182437)scale(0.1 -0.1)">
       <use xlink:href="#DejaVuSans-49"/>
       <use x="63.623047" xlink:href="#DejaVuSans-48"/>
       <use x="127.246094" xlink:href="#DejaVuSans-48"/>
       <use x="190.869141" xlink:href="#DejaVuSans-48"/>
      </g>
     </g>
    </g>
    <g id="xtick_7">
     <g id="line2d_7">
      <g>
       <use style="stroke:#000000;stroke-width:0.8;" x="352.306962" xlink:href="#mad8e4da359" y="307.584"/>
      </g>
     </g>
     <g id="text_7">
      <!-- 1200 -->
      <g transform="translate(339.581962 322.182437)scale(0.1 -0.1)">
       <use xlink:href="#DejaVuSans-49"/>
       <use x="63.623047" xlink:href="#DejaVuSans-50"/>
       <use x="127.246094" xlink:href="#DejaVuSans-48"/>
       <use x="190.869141" xlink:href="#DejaVuSans-48"/>
      </g>
     </g>
    </g>
    <g id="xtick_8">
     <g id="line2d_8">
      <g>
       <use style="stroke:#000000;stroke-width:0.8;" x="398.719335" xlink:href="#mad8e4da359" y="307.584"/>
      </g>
     </g>
     <g id="text_8">
      <!-- 1400 -->
      <g transform="translate(385.994335 322.182437)scale(0.1 -0.1)">
       <use xlink:href="#DejaVuSans-49"/>
       <use x="63.623047" xlink:href="#DejaVuSans-52"/>
       <use x="127.246094" xlink:href="#DejaVuSans-48"/>
       <use x="190.869141" xlink:href="#DejaVuSans-48"/>
      </g>
     </g>
    </g>
   </g>
   <g id="matplotlib.axis_2">
    <g id="ytick_1">
     <g id="line2d_9">
      <defs>
       <path d="M 0 0 
L -3.5 0 
" id="mfa36513d65" style="stroke:#000000;stroke-width:0.8;"/>
      </defs>
      <g>
       <use style="stroke:#000000;stroke-width:0.8;" x="57.6" xlink:href="#mfa36513d65" y="292.59541"/>
      </g>
     </g>
     <g id="text_9">
      <!-- 0.00 -->
      <defs>
       <path d="M 10.6875 12.40625 
L 21 12.40625 
L 21 0 
L 10.6875 0 
z
" id="DejaVuSans-46"/>
      </defs>
      <g transform="translate(28.334375 296.394629)scale(0.1 -0.1)">
       <use xlink:href="#DejaVuSans-48"/>
       <use x="63.623047" xlink:href="#DejaVuSans-46"/>
       <use x="95.410156" xlink:href="#DejaVuSans-48"/>
       <use x="159.033203" xlink:href="#DejaVuSans-48"/>
      </g>
     </g>
    </g>
    <g id="ytick_2">
     <g id="line2d_10">
      <g>
       <use style="stroke:#000000;stroke-width:0.8;" x="57.6" xlink:href="#mfa36513d65" y="259.865502"/>
      </g>
     </g>
     <g id="text_10">
      <!-- 0.05 -->
      <defs>
       <path d="M 10.796875 72.90625 
L 49.515625 72.90625 
L 49.515625 64.59375 
L 19.828125 64.59375 
L 19.828125 46.734375 
Q 21.96875 47.46875 24.109375 47.828125 
Q 26.265625 48.1875 28.421875 48.1875 
Q 40.625 48.1875 47.75 41.5 
Q 54.890625 34.8125 54.890625 23.390625 
Q 54.890625 11.625 47.5625 5.09375 
Q 40.234375 -1.421875 26.90625 -1.421875 
Q 22.3125 -1.421875 17.546875 -0.640625 
Q 12.796875 0.140625 7.71875 1.703125 
L 7.71875 11.625 
Q 12.109375 9.234375 16.796875 8.0625 
Q 21.484375 6.890625 26.703125 6.890625 
Q 35.15625 6.890625 40.078125 11.328125 
Q 45.015625 15.765625 45.015625 23.390625 
Q 45.015625 31 40.078125 35.4375 
Q 35.15625 39.890625 26.703125 39.890625 
Q 22.75 39.890625 18.8125 39.015625 
Q 14.890625 38.140625 10.796875 36.28125 
z
" id="DejaVuSans-53"/>
      </defs>
      <g transform="translate(28.334375 263.664721)scale(0.1 -0.1)">
       <use xlink:href="#DejaVuSans-48"/>
       <use x="63.623047" xlink:href="#DejaVuSans-46"/>
       <use x="95.410156" xlink:href="#DejaVuSans-48"/>
       <use x="159.033203" xlink:href="#DejaVuSans-53"/>
      </g>
     </g>
    </g>
    <g id="ytick_3">
     <g id="line2d_11">
      <g>
       <use style="stroke:#000000;stroke-width:0.8;" x="57.6" xlink:href="#mfa36513d65" y="227.135594"/>
      </g>
     </g>
     <g id="text_11">
      <!-- 0.10 -->
      <g transform="translate(28.334375 230.934813)scale(0.1 -0.1)">
       <use xlink:href="#DejaVuSans-48"/>
       <use x="63.623047" xlink:href="#DejaVuSans-46"/>
       <use x="95.410156" xlink:href="#DejaVuSans-49"/>
       <use x="159.033203" xlink:href="#DejaVuSans-48"/>
      </g>
     </g>
    </g>
    <g id="ytick_4">
     <g id="line2d_12">
      <g>
       <use style="stroke:#000000;stroke-width:0.8;" x="57.6" xlink:href="#mfa36513d65" y="194.405686"/>
      </g>
     </g>
     <g id="text_12">
      <!-- 0.15 -->
      <g transform="translate(28.334375 198.204905)scale(0.1 -0.1)">
       <use xlink:href="#DejaVuSans-48"/>
       <use x="63.623047" xlink:href="#DejaVuSans-46"/>
       <use x="95.410156" xlink:href="#DejaVuSans-49"/>
       <use x="159.033203" xlink:href="#DejaVuSans-53"/>
      </g>
     </g>
    </g>
    <g id="ytick_5">
     <g id="line2d_13">
      <g>
       <use style="stroke:#000000;stroke-width:0.8;" x="57.6" xlink:href="#mfa36513d65" y="161.675778"/>
      </g>
     </g>
     <g id="text_13">
      <!-- 0.20 -->
      <g transform="translate(28.334375 165.474996)scale(0.1 -0.1)">
       <use xlink:href="#DejaVuSans-48"/>
       <use x="63.623047" xlink:href="#DejaVuSans-46"/>
       <use x="95.410156" xlink:href="#DejaVuSans-50"/>
       <use x="159.033203" xlink:href="#DejaVuSans-48"/>
      </g>
     </g>
    </g>
    <g id="ytick_6">
     <g id="line2d_14">
      <g>
       <use style="stroke:#000000;stroke-width:0.8;" x="57.6" xlink:href="#mfa36513d65" y="128.94587"/>
      </g>
     </g>
     <g id="text_14">
      <!-- 0.25 -->
      <g transform="translate(28.334375 132.745088)scale(0.1 -0.1)">
       <use xlink:href="#DejaVuSans-48"/>
       <use x="63.623047" xlink:href="#DejaVuSans-46"/>
       <use x="95.410156" xlink:href="#DejaVuSans-50"/>
       <use x="159.033203" xlink:href="#DejaVuSans-53"/>
      </g>
     </g>
    </g>
    <g id="ytick_7">
     <g id="line2d_15">
      <g>
       <use style="stroke:#000000;stroke-width:0.8;" x="57.6" xlink:href="#mfa36513d65" y="96.215962"/>
      </g>
     </g>
     <g id="text_15">
      <!-- 0.30 -->
      <defs>
       <path d="M 40.578125 39.3125 
Q 47.65625 37.796875 51.625 33 
Q 55.609375 28.21875 55.609375 21.1875 
Q 55.609375 10.40625 48.1875 4.484375 
Q 40.765625 -1.421875 27.09375 -1.421875 
Q 22.515625 -1.421875 17.65625 -0.515625 
Q 12.796875 0.390625 7.625 2.203125 
L 7.625 11.71875 
Q 11.71875 9.328125 16.59375 8.109375 
Q 21.484375 6.890625 26.8125 6.890625 
Q 36.078125 6.890625 40.9375 10.546875 
Q 45.796875 14.203125 45.796875 21.1875 
Q 45.796875 27.640625 41.28125 31.265625 
Q 36.765625 34.90625 28.71875 34.90625 
L 20.21875 34.90625 
L 20.21875 43.015625 
L 29.109375 43.015625 
Q 36.375 43.015625 40.234375 45.921875 
Q 44.09375 48.828125 44.09375 54.296875 
Q 44.09375 59.90625 40.109375 62.90625 
Q 36.140625 65.921875 28.71875 65.921875 
Q 24.65625 65.921875 20.015625 65.03125 
Q 15.375 64.15625 9.8125 62.3125 
L 9.8125 71.09375 
Q 15.4375 72.65625 20.34375 73.4375 
Q 25.25 74.21875 29.59375 74.21875 
Q 40.828125 74.21875 47.359375 69.109375 
Q 53.90625 64.015625 53.90625 55.328125 
Q 53.90625 49.265625 50.4375 45.09375 
Q 46.96875 40.921875 40.578125 39.3125 
z
" id="DejaVuSans-51"/>
      </defs>
      <g transform="translate(28.334375 100.01518)scale(0.1 -0.1)">
       <use xlink:href="#DejaVuSans-48"/>
       <use x="63.623047" xlink:href="#DejaVuSans-46"/>
       <use x="95.410156" xlink:href="#DejaVuSans-51"/>
       <use x="159.033203" xlink:href="#DejaVuSans-48"/>
      </g>
     </g>
    </g>
    <g id="ytick_8">
     <g id="line2d_16">
      <g>
       <use style="stroke:#000000;stroke-width:0.8;" x="57.6" xlink:href="#mfa36513d65" y="63.486054"/>
      </g>
     </g>
     <g id="text_16">
      <!-- 0.35 -->
      <g transform="translate(28.334375 67.285272)scale(0.1 -0.1)">
       <use xlink:href="#DejaVuSans-48"/>
       <use x="63.623047" xlink:href="#DejaVuSans-46"/>
       <use x="95.410156" xlink:href="#DejaVuSans-51"/>
       <use x="159.033203" xlink:href="#DejaVuSans-53"/>
      </g>
     </g>
    </g>
   </g>
   <g id="line2d_17">
    <path clip-path="url(#pfee90f4a45)" d="M 73.832727 59.159065 
L 74.760975 60.138808 
L 75.45716 60.516075 
L 75.921284 60.527761 
L 76.385408 60.32767 
L 77.081593 59.722609 
L 78.938088 57.801579 
L 79.402212 57.619778 
L 79.866336 57.638952 
L 80.330459 57.859038 
L 81.026645 58.481438 
L 82.651078 60.144395 
L 83.115202 60.362673 
L 83.579325 60.384628 
L 84.043449 60.207236 
L 84.739635 59.640688 
L 86.59613 57.785989 
L 87.060253 57.597677 
L 87.524377 57.606474 
L 87.988501 57.809674 
L 88.684686 58.40903 
L 90.30912 60.047604 
L 90.773243 60.269012 
L 91.237367 60.297947 
L 91.701491 60.128488 
L 92.397676 59.561181 
L 94.254171 57.670304 
L 94.718295 57.47511 
L 95.182419 57.475909 
L 95.646542 57.671773 
L 96.342728 58.259958 
L 97.967161 59.897609 
L 98.431285 60.121615 
L 98.895408 60.152382 
L 99.359532 59.990702 
L 100.055718 59.441145 
L 101.912213 57.601079 
L 102.376336 57.41235 
L 102.84046 57.412851 
L 103.304584 57.601624 
L 104.000769 58.171207 
L 105.625202 59.75568 
L 106.089326 59.972387 
L 106.55345 60.003978 
L 107.017574 59.844241 
L 107.713759 59.297357 
L 109.570254 57.444206 
L 110.034378 57.245789 
L 110.498502 57.240875 
L 110.962625 57.422603 
L 111.658811 57.984851 
L 113.283244 59.555308 
L 113.747368 59.767412 
L 114.211491 59.793178 
L 114.675615 59.630039 
L 115.371801 59.082731 
L 117.228296 57.276274 
L 117.692419 57.096417 
L 118.156543 57.106318 
L 118.620667 57.305663 
L 119.316852 57.887859 
L 120.941285 59.471056 
L 121.405409 59.681737 
L 121.869533 59.703001 
L 122.333657 59.532651 
L 123.029842 58.971745 
L 124.886337 57.140002 
L 125.350461 56.960443 
L 125.814584 56.9745 
L 126.278708 57.176084 
L 126.974894 57.762045 
L 128.599327 59.36649 
L 129.063451 59.585884 
L 129.527574 59.623384 
L 129.991698 59.464799 
L 130.687884 58.929093 
L 132.544378 57.145172 
L 133.008502 56.971123 
L 133.472626 56.978908 
L 133.93675 57.174503 
L 134.632935 57.741762 
L 136.257368 59.29296 
L 136.721492 59.496865 
L 137.185616 59.517829 
L 137.649739 59.353033 
L 138.345925 58.815323 
L 140.20242 57.051865 
L 140.666544 56.879914 
L 141.130667 56.893806 
L 141.594791 57.088564 
L 142.290977 57.653043 
L 143.91541 59.188151 
L 144.379533 59.390142 
L 144.843657 59.409762 
L 145.307781 59.242614 
L 146.003966 58.695989 
L 147.860461 56.910421 
L 148.324585 56.730836 
L 148.788709 56.737751 
L 149.252833 56.929056 
L 149.949018 57.495074 
L 151.573451 59.049086 
L 152.037575 59.261407 
L 152.501699 59.29342 
L 152.965822 59.137587 
L 153.662008 58.633057 
L 155.750565 56.716265 
L 156.214688 56.61822 
L 156.678812 56.709448 
L 157.374998 57.16582 
L 159.463554 59.075363 
L 159.927678 59.205962 
L 160.391802 59.148289 
L 160.855926 58.909925 
L 161.552111 58.291004 
L 162.944482 56.881513 
L 163.640668 56.527285 
L 164.104792 56.517153 
L 164.568915 56.692161 
L 165.265101 57.238647 
L 166.889534 58.801351 
L 167.58572 59.075704 
L 168.049843 59.027678 
L 168.513967 58.796275 
L 169.210153 58.181658 
L 170.834586 56.605147 
L 171.298709 56.407023 
L 171.762833 56.396 
L 172.226957 56.572805 
L 172.923143 57.12678 
L 174.547576 58.708013 
L 175.011699 58.937338 
L 175.475823 58.984782 
L 175.939947 58.842331 
L 176.636132 58.321751 
L 178.724689 56.370015 
L 179.188813 56.255438 
L 179.652937 56.329696 
L 180.349122 56.762514 
L 182.669741 58.772805 
L 183.133864 58.824982 
L 183.597988 58.687724 
L 184.294174 58.183891 
L 186.382731 56.23391 
L 186.846854 56.109984 
L 187.310978 56.172789 
L 188.007164 56.598554 
L 189.167473 57.765255 
L 189.863658 58.38082 
L 190.559844 58.682588 
L 191.023968 58.655078 
L 191.488091 58.444754 
L 192.184277 57.853829 
L 193.80871 56.254174 
L 194.272834 56.031463 
L 194.736958 55.993418 
L 195.201081 56.143872 
L 195.897267 56.668755 
L 197.753762 58.421538 
L 198.217886 58.592809 
L 198.682009 58.576672 
L 199.146133 58.376366 
L 199.842319 57.792015 
L 201.466752 56.198681 
L 201.930875 55.970552 
L 202.394999 55.92595 
L 202.859123 56.07021 
L 203.555308 56.587328 
L 205.411803 58.355585 
L 205.875927 58.534239 
L 206.340051 58.525447 
L 206.804174 58.330069 
L 207.50036 57.751803 
L 209.124793 56.131507 
L 209.588917 55.893421 
L 210.05304 55.837008 
L 210.517164 55.969767 
L 211.21335 56.476213 
L 213.069845 58.250551 
L 213.533968 58.437096 
L 213.998092 58.437865 
L 214.462216 58.250038 
L 215.158401 57.680301 
L 217.014896 55.908704 
L 217.47902 55.749334 
L 217.943144 55.777441 
L 218.407268 55.988866 
L 219.103453 56.573021 
L 220.727886 58.105563 
L 221.19201 58.306088 
L 221.656134 58.310454 
L 222.120257 58.12605 
L 222.816443 57.559689 
L 224.672938 55.771881 
L 225.137062 55.607143 
L 225.601185 55.63124 
L 226.065309 55.835488 
L 226.761495 56.405479 
L 228.385928 57.886823 
L 228.850051 58.066344 
L 229.314175 58.066608 
L 229.778299 57.887072 
L 230.474484 57.338376 
L 232.098917 55.777338 
L 232.795103 55.498102 
L 233.259227 55.533275 
L 233.72335 55.747304 
L 234.419536 56.32422 
L 236.043969 57.815404 
L 236.508093 58.000058 
L 236.972217 58.0061 
L 237.43634 57.831225 
L 238.132526 57.292736 
L 239.989021 55.614638 
L 240.453144 55.468909 
L 240.917268 55.503248 
L 241.381392 55.711473 
L 242.077577 56.28125 
L 243.702011 57.763454 
L 244.166134 57.94968 
L 244.630258 57.958085 
L 245.094382 57.787059 
L 245.790567 57.251355 
L 247.647062 55.530299 
L 248.111186 55.370319 
L 248.57531 55.394146 
L 249.039433 55.597301 
L 249.735619 56.167092 
L 251.360052 57.695504 
L 251.824176 57.896742 
L 252.288299 57.917835 
L 252.752423 57.756357 
L 253.448609 57.226175 
L 255.305104 55.493876 
L 255.769227 55.322351 
L 256.233351 55.330389 
L 256.697475 55.518265 
L 257.39366 56.069849 
L 259.018093 57.599776 
L 259.482217 57.810761 
L 259.946341 57.842047 
L 260.410465 57.688205 
L 261.10665 57.162823 
L 263.195207 55.293675 
L 263.659331 55.195082 
L 264.123454 55.280914 
L 264.81964 55.726641 
L 267.140259 57.692864 
L 267.604382 57.735522 
L 268.068506 57.585202 
L 268.764692 57.060528 
L 270.621187 55.270749 
L 271.08531 55.072728 
L 271.549434 55.059456 
L 272.013558 55.234204 
L 272.709743 55.793047 
L 274.566238 57.597155 
L 275.030362 57.771506 
L 275.494486 57.754992 
L 275.958609 57.551535 
L 276.654795 56.976891 
L 278.279228 55.393121 
L 278.743352 55.176295 
L 279.207475 55.142435 
L 279.671599 55.295017 
L 280.367785 55.817697 
L 282.22428 57.542729 
L 282.688403 57.705668 
L 283.152527 57.683158 
L 283.616651 57.479143 
L 284.312836 56.904094 
L 285.937269 55.350366 
L 286.401393 55.13569 
L 286.865517 55.099997 
L 287.329641 55.245643 
L 288.025826 55.74994 
L 289.882321 57.434856 
L 290.346445 57.598778 
L 290.810569 57.582398 
L 291.274692 57.387612 
L 291.970878 56.829212 
L 293.595311 55.298426 
L 294.291497 55.033363 
L 294.75562 55.080403 
L 295.451806 55.469408 
L 296.612115 56.594052 
L 297.540363 57.357694 
L 298.004486 57.53071 
L 298.46861 57.528134 
L 299.164796 57.196013 
L 300.093043 56.335138 
L 301.253352 55.221372 
L 301.949538 54.920774 
L 302.413662 54.953529 
L 303.109847 55.349074 
L 304.038095 56.253399 
L 304.966342 57.107145 
L 305.662528 57.424898 
L 306.126652 57.418461 
L 306.590775 57.234556 
L 307.286961 56.687693 
L 308.911394 55.149582 
L 309.607579 54.87959 
L 310.071703 54.930425 
L 310.767889 55.323232 
L 311.928198 56.440146 
L 312.856446 57.194666 
L 313.320569 57.36437 
L 313.784693 57.355221 
L 314.248817 57.168202 
L 314.945002 56.614648 
L 316.569435 55.057138 
L 317.265621 54.769569 
L 317.729745 54.800705 
L 318.193868 55.005584 
L 318.890054 55.567634 
L 320.514487 57.049685 
L 320.978611 57.239509 
L 321.442734 57.253221 
L 321.906858 57.087935 
L 322.603044 56.562543 
L 324.459539 54.869217 
L 324.923662 54.710441 
L 325.387786 54.726628 
L 326.083972 55.067175 
L 327.012219 55.912244 
L 327.940467 56.7604 
L 328.636652 57.105725 
L 329.100776 57.125427 
L 329.5649 56.969156 
L 330.261085 56.458985 
L 332.11758 54.781727 
L 332.581704 54.607562 
L 333.045828 54.605625 
L 333.509951 54.773376 
L 334.206137 55.282121 
L 335.83057 56.706426 
L 336.526755 56.943113 
L 336.990879 56.889671 
L 337.687065 56.504536 
L 338.847374 55.402876 
L 339.775622 54.651324 
L 340.471807 54.433477 
L 340.935931 54.502582 
L 341.632116 54.900524 
L 343.952735 56.738823 
L 344.416859 56.789758 
L 344.880983 56.67013 
L 345.577168 56.218106 
L 347.665725 54.461688 
L 348.129849 54.351944 
L 348.593972 54.413224 
L 349.290158 54.796338 
L 351.610777 56.613117 
L 352.0749 56.664204 
L 352.539024 56.543066 
L 353.23521 56.087903 
L 355.323766 54.357397 
L 355.78789 54.262645 
L 356.252014 54.32487 
L 356.948199 54.728292 
L 359.268818 56.562091 
L 359.732942 56.60049 
L 360.197065 56.468609 
L 360.893251 56.002203 
L 362.981808 54.301161 
L 363.445932 54.193723 
L 363.910055 54.255812 
L 364.606241 54.639741 
L 366.926859 56.46288 
L 367.390983 56.513461 
L 367.855107 56.389625 
L 368.551292 55.919058 
L 370.639849 54.139447 
L 371.103973 54.031376 
L 371.568097 54.094708 
L 372.264282 54.486303 
L 374.584901 56.255474 
L 375.049025 56.286346 
L 375.513148 56.145314 
L 376.209334 55.661021 
L 378.065829 54.02443 
L 378.762014 53.836103 
L 379.226138 53.926043 
L 379.922324 54.347946 
L 382.01088 56.080087 
L 382.475004 56.193993 
L 382.939128 56.135517 
L 383.635314 55.743714 
L 384.795623 54.641317 
L 385.72387 53.89632 
L 386.187994 53.721064 
L 386.652118 53.715948 
L 387.116241 53.880221 
L 387.812427 54.384327 
L 389.43686 55.811126 
L 390.133046 56.058204 
L 390.597169 56.012148 
L 391.293355 55.641858 
L 392.453664 54.5668 
L 393.381912 53.841932 
L 394.078097 53.636025 
L 394.542221 53.709565 
L 395.238407 54.102733 
L 397.559025 55.888653 
L 398.023149 55.922106 
L 398.487273 55.791982 
L 398.487273 55.791982 
" style="fill:none;stroke:#1f77b4;stroke-linecap:square;stroke-width:1.5;"/>
   </g>
   <g id="line2d_18">
    <path clip-path="url(#pfee90f4a45)" d="M 73.832727 59.127545 
L 74.760975 58.110198 
L 75.45716 57.695064 
L 75.921284 57.675396 
L 76.385408 57.864203 
L 77.081593 58.450742 
L 78.938088 60.289071 
L 79.402212 60.451162 
L 79.866336 60.409597 
L 80.330459 60.185069 
L 81.026645 59.543125 
L 82.419016 58.017429 
L 83.115202 57.624753 
L 83.579325 57.596646 
L 84.043449 57.762379 
L 84.739635 58.324026 
L 86.59613 60.18023 
L 87.060253 60.358083 
L 87.524377 60.337437 
L 87.988501 60.119375 
L 88.684686 59.498931 
L 90.30912 57.804872 
L 90.773243 57.569412 
L 91.237367 57.526314 
L 91.701491 57.678691 
L 92.397676 58.220346 
L 94.254171 60.045192 
L 94.718295 60.224728 
L 95.182419 60.206215 
L 95.646542 59.995849 
L 96.342728 59.383721 
L 97.967161 57.65896 
L 98.431285 57.441903 
L 98.895408 57.438895 
L 99.359532 57.587142 
L 100.055718 58.12174 
L 101.912213 59.910411 
L 102.376336 60.078983 
L 102.84046 60.060447 
L 103.304584 59.854317 
L 104.000769 59.260515 
L 105.625202 57.60876 
L 106.089326 57.371054 
L 106.55345 57.316142 
L 107.017574 57.452443 
L 107.713759 57.945626 
L 109.570254 59.734832 
L 110.034378 59.916991 
L 110.498502 59.906189 
L 110.962625 59.69894 
L 111.658811 59.090052 
L 113.051182 57.561638 
L 113.747368 57.159392 
L 114.211491 57.116357 
L 114.675615 57.270875 
L 115.371801 57.811731 
L 117.228296 59.577205 
L 117.692419 59.757922 
L 118.156543 59.744564 
L 118.620667 59.540697 
L 119.316852 58.925633 
L 120.941285 57.280237 
L 121.637471 56.993288 
L 122.101595 57.054565 
L 122.565718 57.300449 
L 123.261904 57.932675 
L 124.654275 59.334159 
L 125.350461 59.652944 
L 125.814584 59.634062 
L 126.278708 59.419759 
L 126.974894 58.804233 
L 128.599327 57.191525 
L 129.295512 56.945195 
L 129.759636 57.020573 
L 130.455822 57.4483 
L 131.616131 58.637916 
L 132.544378 59.427765 
L 133.008502 59.598077 
L 133.472626 59.577071 
L 133.93675 59.361841 
L 134.864997 58.509515 
L 136.257368 57.1557 
L 136.721492 56.940225 
L 137.185616 56.911038 
L 137.649739 57.068388 
L 138.345925 57.59293 
L 140.20242 59.3159 
L 140.666544 59.466529 
L 141.130667 59.447711 
L 141.594791 59.249294 
L 142.290977 58.665662 
L 143.91541 57.048938 
L 144.379533 56.830669 
L 144.843657 56.791667 
L 145.307781 56.939259 
L 146.003966 57.460074 
L 147.860461 59.176935 
L 148.324585 59.34261 
L 148.788709 59.323184 
L 149.252833 59.119436 
L 149.949018 58.536769 
L 151.573451 56.933147 
L 152.037575 56.709206 
L 152.501699 56.666772 
L 152.965822 56.816029 
L 153.662008 57.323996 
L 155.518503 59.085409 
L 155.982627 59.262641 
L 156.44675 59.252445 
L 156.910874 59.048314 
L 157.60706 58.460717 
L 159.231493 56.853223 
L 159.695616 56.620299 
L 160.15974 56.571038 
L 160.623864 56.699263 
L 161.320049 57.207312 
L 163.176544 58.925661 
L 163.640668 59.116297 
L 164.104792 59.11522 
L 164.568915 58.922703 
L 165.265101 58.360546 
L 166.889534 56.747087 
L 167.58572 56.440265 
L 168.049843 56.472417 
L 168.513967 56.673086 
L 169.210153 57.277968 
L 170.834586 58.838549 
L 171.298709 59.025864 
L 171.762833 59.025607 
L 172.226957 58.835281 
L 172.923143 58.264801 
L 174.547576 56.632462 
L 175.243761 56.330095 
L 175.707885 56.36493 
L 176.40407 56.746325 
L 177.56438 57.900954 
L 178.492627 58.706218 
L 178.956751 58.88342 
L 179.420875 58.886751 
L 179.884998 58.700902 
L 180.581184 58.137571 
L 182.437679 56.361143 
L 182.901803 56.198762 
L 183.365926 56.224392 
L 184.062112 56.587811 
L 185.222421 57.71123 
L 186.150669 58.529484 
L 186.614792 58.711096 
L 187.078916 58.724536 
L 187.54304 58.570783 
L 188.239225 58.0217 
L 190.09572 56.253325 
L 190.559844 56.06614 
L 191.023968 56.077505 
L 191.488091 56.267683 
L 192.184277 56.833592 
L 194.040772 58.527018 
L 194.504896 58.656018 
L 194.969019 58.589684 
L 195.665205 58.154976 
L 196.825514 56.950023 
L 197.753762 56.148935 
L 198.217886 55.96648 
L 198.682009 55.97053 
L 199.146133 56.162467 
L 199.842319 56.735489 
L 201.466752 58.318242 
L 201.930875 58.539384 
L 202.394999 58.577399 
L 202.859123 58.435902 
L 203.555308 57.900473 
L 205.411803 56.095038 
L 205.875927 55.908822 
L 206.340051 55.903777 
L 206.804174 56.083599 
L 207.50036 56.643953 
L 209.124793 58.228841 
L 209.588917 58.452078 
L 210.05304 58.487412 
L 210.517164 58.346812 
L 211.21335 57.830679 
L 213.301907 55.902499 
L 213.76603 55.796788 
L 214.230154 55.88039 
L 214.92634 56.323853 
L 216.086649 57.504783 
L 216.782834 58.108444 
L 217.246958 58.33111 
L 217.711082 58.379002 
L 218.175206 58.243731 
L 218.871391 57.73554 
L 220.959948 55.771254 
L 221.424072 55.656838 
L 221.888195 55.73784 
L 222.584381 56.174599 
L 224.905 58.205418 
L 225.369123 58.234141 
L 225.833247 58.052059 
L 226.529433 57.52281 
L 228.617989 55.61808 
L 229.082113 55.514459 
L 229.546237 55.593489 
L 230.242423 56.037496 
L 232.563041 58.010779 
L 233.027165 58.051414 
L 233.491289 57.912983 
L 234.187474 57.418892 
L 236.276031 55.573111 
L 236.740155 55.47383 
L 237.204278 55.557179 
L 237.900464 55.985174 
L 240.221083 57.947272 
L 240.685206 57.997645 
L 241.14933 57.869224 
L 241.845516 57.380093 
L 243.934072 55.541724 
L 244.398196 55.432493 
L 244.86232 55.498842 
L 245.558505 55.892755 
L 246.486753 56.786906 
L 247.415 57.646012 
L 248.111186 57.939433 
L 248.57531 57.905962 
L 249.039433 57.706844 
L 249.735619 57.129792 
L 251.360052 55.578481 
L 251.824176 55.377535 
L 252.288299 55.354503 
L 252.752423 55.5089 
L 253.448609 56.027633 
L 255.305104 57.699649 
L 255.769227 57.862846 
L 256.233351 57.849423 
L 256.697475 57.656392 
L 257.39366 57.099586 
L 259.018093 55.523437 
L 259.714279 55.244016 
L 260.178403 55.291853 
L 260.642526 55.518468 
L 261.338712 56.113478 
L 262.731083 57.455971 
L 263.427269 57.769653 
L 263.891393 57.760361 
L 264.355516 57.564195 
L 265.051702 56.998277 
L 266.676135 55.418176 
L 267.37232 55.143799 
L 267.836444 55.189389 
L 268.53263 55.573263 
L 269.925001 56.899299 
L 270.621187 57.452826 
L 271.317372 57.713178 
L 272.013558 57.555206 
L 272.477681 57.232307 
L 274.7983 55.151334 
L 275.262424 55.091756 
L 275.726548 55.22144 
L 276.422733 55.722357 
L 278.51129 57.656591 
L 278.975414 57.770128 
L 279.439537 57.718237 
L 280.135723 57.282218 
L 281.06397 56.314966 
L 281.992218 55.431325 
L 282.456342 55.176167 
L 282.920465 55.10001 
L 283.384589 55.211745 
L 284.080775 55.703762 
L 286.169331 57.552112 
L 286.633455 57.662841 
L 287.097579 57.588888 
L 287.793764 57.170906 
L 288.954074 56.014959 
L 289.882321 55.249198 
L 290.346445 55.075051 
L 290.810569 55.083781 
L 291.274692 55.2692 
L 291.970878 55.814473 
L 293.595311 57.328546 
L 294.291497 57.583027 
L 294.75562 57.52025 
L 295.219744 57.291103 
L 295.91593 56.69816 
L 297.540363 55.181519 
L 298.004486 55.00316 
L 298.46861 54.99184 
L 298.932734 55.149948 
L 299.628919 55.676103 
L 300.557167 56.664293 
L 301.253352 57.248053 
L 301.717476 57.465286 
L 302.1816 57.495951 
L 302.645724 57.357218 
L 303.341909 56.857429 
L 305.430466 55.011693 
L 305.89459 54.90857 
L 306.358713 54.985091 
L 307.054899 55.427106 
L 307.983146 56.341443 
L 308.911394 57.16129 
L 309.607579 57.421655 
L 310.071703 57.373299 
L 310.535827 57.152185 
L 311.232012 56.557952 
L 312.856446 55.03238 
L 313.552631 54.83707 
L 314.016755 54.919132 
L 314.71294 55.348044 
L 316.801497 57.15054 
L 317.265621 57.293553 
L 317.729745 57.257982 
L 318.42593 56.877915 
L 319.354178 56.005444 
L 320.282425 55.125349 
L 320.978611 54.770929 
L 321.442734 54.742552 
L 321.906858 54.889957 
L 322.603044 55.409431 
L 324.227477 56.919091 
L 324.923662 57.19315 
L 325.387786 57.162068 
L 325.85191 56.960247 
L 326.548095 56.396131 
L 328.172528 54.893218 
L 328.868714 54.650409 
L 329.332838 54.707691 
L 330.029023 55.099466 
L 332.349642 56.965372 
L 332.813766 57.019446 
L 333.277889 56.912868 
L 333.974075 56.471654 
L 336.062632 54.665096 
L 336.758817 54.522766 
L 337.222941 54.645164 
L 337.919127 55.108033 
L 339.775622 56.646705 
L 340.471807 56.8568 
L 340.935931 56.786017 
L 341.632116 56.33813 
L 343.952735 54.460336 
L 344.416859 54.402593 
L 344.880983 54.505049 
L 345.577168 54.939778 
L 347.665725 56.645304 
L 348.129849 56.737543 
L 348.593972 56.658419 
L 349.290158 56.247834 
L 351.610777 54.350594 
L 352.0749 54.285745 
L 352.539024 54.391523 
L 353.23521 54.828621 
L 355.323766 56.526082 
L 355.78789 56.619289 
L 356.252014 56.544635 
L 356.948199 56.137888 
L 359.268818 54.290346 
L 359.732942 54.241067 
L 360.429127 54.46616 
L 361.125313 54.986422 
L 362.749746 56.373502 
L 363.21387 56.542153 
L 363.910055 56.500047 
L 364.606241 56.100178 
L 365.76655 54.990934 
L 366.462736 54.418122 
L 367.158921 54.112599 
L 367.623045 54.118682 
L 368.319231 54.460842 
L 369.247478 55.298092 
L 370.175726 56.110578 
L 370.871911 56.418906 
L 371.336035 56.418742 
L 371.800159 56.241699 
L 372.496344 55.714567 
L 374.352839 54.053448 
L 375.049025 53.901613 
L 375.513148 54.0155 
L 376.209334 54.480297 
L 378.065829 56.073329 
L 378.529953 56.230059 
L 378.994076 56.218658 
L 379.690262 55.886778 
L 380.618509 55.053993 
L 381.778819 54.035051 
L 382.475004 53.776716 
L 382.939128 53.818622 
L 383.635314 54.176151 
L 384.563561 55.009389 
L 385.491808 55.812435 
L 386.187994 56.106331 
L 386.652118 56.091423 
L 387.116241 55.908183 
L 387.812427 55.384274 
L 389.668922 53.801074 
L 390.133046 53.656873 
L 390.597169 53.693901 
L 391.061293 53.913116 
L 391.989541 54.668161 
L 393.14985 55.679951 
L 393.846035 55.978854 
L 394.310159 55.976805 
L 395.006345 55.673367 
L 395.934592 54.835825 
L 397.094902 53.851323 
L 397.791087 53.57161 
L 398.255211 53.619896 
L 398.487273 53.685955 
L 398.487273 53.685955 
" style="fill:none;stroke:#ff0000;stroke-linecap:square;stroke-width:1.5;"/>
   </g>
   <g id="line2d_19">
    <path clip-path="url(#pfee90f4a45)" d="M 73.832727 292.62693 
L 74.760975 294.62402 
L 75.225098 295.244389 
L 75.689222 295.488 
L 76.153346 295.305616 
L 76.61747 294.732526 
L 77.313655 293.362347 
L 78.706026 290.416515 
L 79.17015 289.887653 
L 79.634274 289.742436 
L 80.098398 290.002268 
L 80.562521 290.619417 
L 81.258707 292.057937 
L 82.419016 294.549306 
L 82.88314 295.161497 
L 83.347264 295.407117 
L 83.811387 295.257945 
L 84.275511 294.733459 
L 84.971697 293.41763 
L 86.364068 290.518576 
L 86.828192 289.969974 
L 87.292315 289.799963 
L 87.756439 290.027755 
L 88.220563 290.626673 
L 88.916748 292.012698 
L 90.077058 294.482974 
L 90.541181 295.111721 
L 91.005305 295.380897 
L 91.469429 295.253145 
L 91.933553 294.748077 
L 92.629738 293.450453 
L 94.022109 290.540182 
L 94.486233 289.986452 
L 94.950357 289.804047 
L 95.41448 290.021948 
L 95.878604 290.606021 
L 96.57479 291.974311 
L 97.735099 294.470005 
L 98.199223 295.107964 
L 98.663347 295.349823 
L 99.12747 295.200649 
L 99.591594 294.698556 
L 100.28778 293.439771 
L 101.680151 290.597524 
L 102.144274 290.062204 
L 102.608398 289.890749 
L 103.072522 290.098647 
L 103.536646 290.664728 
L 104.232831 291.995178 
L 105.393141 294.392238 
L 105.857264 295.012655 
L 106.321388 295.289498 
L 106.785512 295.183036 
L 107.249635 294.715307 
L 107.945821 293.474592 
L 109.338192 290.623793 
L 109.802316 290.067972 
L 110.26644 289.878437 
L 110.730563 290.075828 
L 111.194687 290.641021 
L 111.890873 291.99552 
L 113.051182 294.42163 
L 113.515306 295.02716 
L 113.979429 295.286772 
L 114.443553 295.159772 
L 114.907677 294.657737 
L 115.603862 293.391988 
L 116.996234 290.59296 
L 117.460357 290.067491 
L 117.924481 289.89562 
L 118.388605 290.114043 
L 118.852729 290.685357 
L 119.548914 292.048257 
L 120.709223 294.443936 
L 121.173347 295.051048 
L 121.637471 295.318295 
L 122.101595 295.182002 
L 122.565718 294.676408 
L 123.261904 293.39216 
L 124.654275 290.555886 
L 125.118399 290.030343 
L 125.582523 289.868836 
L 126.046646 290.097093 
L 126.51077 290.685263 
L 127.206956 292.049548 
L 128.367265 294.441564 
L 128.831389 295.025136 
L 129.295512 295.281003 
L 129.759636 295.141821 
L 130.22376 294.646458 
L 130.919945 293.402478 
L 132.312317 290.630388 
L 132.77644 290.08908 
L 133.240564 289.932018 
L 133.704688 290.156787 
L 134.168811 290.748112 
L 134.864997 292.062635 
L 136.025306 294.399679 
L 136.48943 294.98685 
L 136.953554 295.222392 
L 137.417678 295.087821 
L 137.881801 294.594617 
L 138.577987 293.355942 
L 139.970358 290.623786 
L 140.434482 290.124711 
L 140.898605 289.977238 
L 141.362729 290.196698 
L 141.826853 290.749331 
L 142.523039 292.066793 
L 143.683348 294.404687 
L 144.147472 294.987579 
L 144.611595 295.232878 
L 145.075719 295.098546 
L 145.539843 294.610722 
L 146.236028 293.36826 
L 147.6284 290.628653 
L 148.092523 290.111077 
L 148.556647 289.949808 
L 149.020771 290.163198 
L 149.484894 290.72555 
L 150.18108 292.028346 
L 151.341389 294.372876 
L 151.805513 294.973944 
L 152.269637 295.232087 
L 152.73376 295.111913 
L 153.197884 294.639519 
L 153.89407 293.45138 
L 155.286441 290.654823 
L 155.750565 290.115634 
L 156.214688 289.932749 
L 156.678812 290.127751 
L 157.142936 290.695447 
L 157.839121 291.991706 
L 158.999431 294.343973 
L 159.463554 294.956752 
L 159.927678 295.228424 
L 160.391802 295.124158 
L 160.855926 294.673937 
L 161.552111 293.457085 
L 162.944482 290.696284 
L 163.408606 290.153564 
L 163.87273 289.952334 
L 164.336854 290.135511 
L 164.800977 290.664742 
L 165.497163 291.945704 
L 166.657472 294.299585 
L 167.121596 294.925811 
L 167.58572 295.230849 
L 168.049843 295.150671 
L 168.513967 294.718599 
L 169.210153 293.499099 
L 170.602524 290.676889 
L 171.066648 290.126294 
L 171.530771 289.92329 
L 171.994895 290.099391 
L 172.459019 290.64067 
L 173.155204 291.936583 
L 174.315514 294.318909 
L 174.779637 294.950327 
L 175.243761 295.250274 
L 175.707885 295.167161 
L 176.172009 294.719796 
L 176.868194 293.517736 
L 178.260565 290.700605 
L 178.724689 290.147725 
L 179.188813 289.944077 
L 179.652937 290.106408 
L 180.11706 290.63155 
L 180.813246 291.899792 
L 181.973555 294.273451 
L 182.437679 294.911701 
L 182.901803 295.22019 
L 183.365926 295.151139 
L 183.83005 294.71916 
L 184.526236 293.549369 
L 186.150669 290.428677 
L 186.614792 290.033761 
L 187.078916 289.989111 
L 187.54304 290.305063 
L 188.007164 290.950405 
L 189.167473 293.323201 
L 189.863658 294.574748 
L 190.327782 295.090784 
L 190.791906 295.237318 
L 191.25603 295.020824 
L 191.720153 294.446785 
L 192.416339 293.142855 
L 193.576648 290.793304 
L 194.040772 290.189085 
L 194.504896 289.92792 
L 194.969019 290.051374 
L 195.433143 290.540878 
L 196.129329 291.787548 
L 197.5217 294.563722 
L 197.985824 295.090982 
L 198.449947 295.260007 
L 198.914071 295.048041 
L 199.378195 294.487114 
L 200.07438 293.169731 
L 201.23469 290.818353 
L 201.698813 290.208415 
L 202.162937 289.937995 
L 202.627061 290.04002 
L 203.091185 290.512337 
L 203.78737 291.749066 
L 205.179741 294.546848 
L 205.643865 295.083264 
L 206.107989 295.267478 
L 206.572113 295.07218 
L 207.036236 294.527092 
L 207.732422 293.222865 
L 208.892731 290.850651 
L 209.356855 290.225865 
L 209.820979 289.943435 
L 210.285102 290.037416 
L 210.749226 290.484425 
L 211.445412 291.702855 
L 212.837783 294.504824 
L 213.301907 295.059295 
L 213.76603 295.25947 
L 214.230154 295.08133 
L 214.694278 294.549596 
L 215.390463 293.268101 
L 216.550773 290.896385 
L 217.014896 290.263394 
L 217.47902 289.968602 
L 217.943144 290.038354 
L 218.407268 290.473704 
L 219.103453 291.659863 
L 220.727886 294.801506 
L 221.19201 295.213054 
L 221.656134 295.230534 
L 222.120257 294.876158 
L 222.584381 294.200612 
L 223.512629 292.289849 
L 224.440876 290.546976 
L 224.905 290.05662 
L 225.137062 289.943715 
L 225.601185 290.042298 
L 226.065309 290.529914 
L 226.761495 291.698118 
L 228.153866 294.428517 
L 228.617989 294.975395 
L 229.082113 295.170533 
L 229.546237 295.001015 
L 230.010361 294.481437 
L 230.706546 293.226555 
L 231.866856 290.920118 
L 232.330979 290.314177 
L 232.795103 290.038705 
L 233.259227 290.124249 
L 233.72335 290.560164 
L 234.419536 291.721146 
L 235.811907 294.418421 
L 236.276031 294.951233 
L 236.740155 295.147663 
L 237.204278 294.979339 
L 237.668402 294.470551 
L 238.364588 293.241197 
L 239.756959 290.622628 
L 240.221083 290.16806 
L 240.685206 290.060943 
L 241.14933 290.313033 
L 241.613454 290.892029 
L 242.309639 292.184843 
L 243.469949 294.384471 
L 243.934072 294.931309 
L 244.398196 295.139562 
L 244.86232 294.990897 
L 245.326444 294.507965 
L 246.022629 293.308185 
L 247.415 290.62213 
L 247.879124 290.143735 
L 248.343248 290.00862 
L 248.807371 290.240629 
L 249.271495 290.803598 
L 249.967681 292.104177 
L 251.12799 294.386631 
L 251.592114 294.954712 
L 252.056238 295.183264 
L 252.520361 295.044618 
L 252.984485 294.559978 
L 253.680671 293.345249 
L 255.073042 290.680626 
L 255.537166 290.179541 
L 256.001289 290.019134 
L 256.465413 290.224155 
L 256.929537 290.767074 
L 257.625722 292.036393 
L 258.786032 294.324789 
L 259.250155 294.932081 
L 259.714279 295.20107 
L 260.178403 295.091089 
L 260.642526 294.624535 
L 261.338712 293.426653 
L 262.731083 290.698782 
L 263.195207 290.183787 
L 263.659331 290.001438 
L 264.123454 290.193174 
L 264.587578 290.73173 
L 265.283764 291.999599 
L 266.444073 294.29578 
L 266.908197 294.907878 
L 267.37232 295.194504 
L 267.836444 295.089829 
L 268.300568 294.635197 
L 268.996754 293.429719 
L 270.389125 290.727207 
L 270.853248 290.178253 
L 271.317372 289.924236 
L 271.781496 290.073711 
L 272.24562 290.558061 
L 272.941805 291.834653 
L 274.334176 294.635988 
L 274.7983 295.151415 
L 275.262424 295.291168 
L 275.726548 295.049306 
L 276.190671 294.46642 
L 276.886857 293.137408 
L 278.047166 290.79437 
L 278.51129 290.201984 
L 278.975414 289.960749 
L 279.439537 290.073791 
L 279.903661 290.566872 
L 280.599847 291.808154 
L 281.760156 294.19783 
L 282.22428 294.857194 
L 282.688403 295.186354 
L 283.152527 295.146513 
L 283.616651 294.734867 
L 284.312836 293.579092 
L 285.937269 290.510851 
L 286.401393 290.099384 
L 286.865517 290.048574 
L 287.329641 290.353238 
L 287.793764 290.975278 
L 288.722012 292.788513 
L 289.650259 294.484247 
L 290.114383 294.994487 
L 290.578507 295.151407 
L 291.04263 294.946737 
L 291.506754 294.405098 
L 292.20294 293.153175 
L 293.363249 290.89571 
L 293.827373 290.310485 
L 294.291497 290.045746 
L 294.75562 290.155563 
L 295.219744 290.606878 
L 295.91593 291.781769 
L 297.308301 294.466109 
L 297.772424 294.989739 
L 298.236548 295.16406 
L 298.700672 295.000784 
L 299.164796 294.501216 
L 299.628919 293.716011 
L 301.021291 290.913551 
L 301.485414 290.297225 
L 301.949538 290.013681 
L 302.413662 290.102517 
L 302.877785 290.547849 
L 303.573971 291.724527 
L 304.966342 294.42501 
L 305.430466 294.94341 
L 305.89459 295.131491 
L 306.358713 294.957753 
L 306.822837 294.435371 
L 307.519023 293.197294 
L 308.911394 290.583702 
L 309.375518 290.141417 
L 309.839641 290.062542 
L 310.303765 290.334693 
L 310.767889 290.937243 
L 311.696136 292.726709 
L 312.624384 294.462593 
L 313.088507 294.96321 
L 313.552631 295.140333 
L 314.016755 294.958669 
L 314.480879 294.441425 
L 315.177064 293.204797 
L 316.337373 290.966963 
L 316.801497 290.364825 
L 317.265621 290.071426 
L 317.729745 290.138133 
L 318.193868 290.558066 
L 318.890054 291.685998 
L 320.514487 294.678219 
L 320.978611 295.06399 
L 321.442734 295.106079 
L 321.906858 294.793388 
L 322.370982 294.156106 
L 323.299229 292.33774 
L 324.227477 290.685139 
L 324.6916 290.222485 
L 325.155724 290.092039 
L 325.619848 290.315134 
L 326.083972 290.863663 
L 326.780157 292.109714 
L 327.940467 294.303518 
L 328.40459 294.854456 
L 328.868714 295.082824 
L 329.332838 294.956226 
L 329.796961 294.49303 
L 330.493147 293.327275 
L 331.885518 290.776607 
L 332.349642 290.303921 
L 332.813766 290.160711 
L 333.277889 290.351862 
L 333.742013 290.856647 
L 334.438199 292.04736 
L 335.598508 294.196536 
L 336.062632 294.755468 
L 336.526755 295.007254 
L 336.990879 294.926144 
L 337.455003 294.498374 
L 338.151189 293.380575 
L 339.54356 290.902076 
L 340.007683 290.376666 
L 340.471807 290.172087 
L 340.935931 290.311974 
L 341.400055 290.806835 
L 342.09624 291.968707 
L 343.488611 294.437393 
L 343.952735 294.873897 
L 344.416859 294.982574 
L 344.880983 294.760491 
L 345.345106 294.237132 
L 346.041292 293.026567 
L 347.201601 290.927181 
L 347.665725 290.411794 
L 348.129849 290.20981 
L 348.593972 290.350215 
L 349.058096 290.812776 
L 349.754282 291.949583 
L 351.146653 294.414117 
L 351.610777 294.857933 
L 352.0749 294.973869 
L 352.539024 294.746953 
L 353.003148 294.214654 
L 353.699333 293.012863 
L 354.859643 290.937307 
L 355.323766 290.426725 
L 355.78789 290.238766 
L 356.252014 290.375645 
L 356.716138 290.840859 
L 357.412323 291.984934 
L 358.804694 294.420383 
L 359.268818 294.867155 
L 359.732942 294.954833 
L 360.197065 294.709466 
L 360.661189 294.171057 
L 361.589437 292.545659 
L 362.517684 290.928864 
L 362.981808 290.415414 
L 363.445932 290.225737 
L 363.910055 290.351176 
L 364.374179 290.806701 
L 365.070365 291.941658 
L 366.462736 294.427193 
L 366.926859 294.876446 
L 367.390983 295.024462 
L 367.855107 294.787681 
L 368.319231 294.242006 
L 369.015416 293.009306 
L 370.175726 290.890429 
L 370.639849 290.379586 
L 371.103973 290.186074 
L 371.568097 290.338358 
L 372.03222 290.829682 
L 372.728406 291.980989 
L 373.888715 294.165076 
L 374.352839 294.719405 
L 374.816963 294.968878 
L 375.281086 294.893082 
L 375.74521 294.472225 
L 376.441396 293.351084 
L 377.833767 290.817458 
L 378.297891 290.342429 
L 378.762014 290.183192 
L 379.226138 290.375242 
L 379.690262 290.883385 
L 380.386447 292.071366 
L 381.546757 294.211584 
L 382.01088 294.766193 
L 382.475004 295.012687 
L 382.939128 294.912305 
L 383.403252 294.483656 
L 384.099437 293.363562 
L 385.491808 290.824055 
L 385.955932 290.335854 
L 386.420056 290.170517 
L 386.88418 290.352603 
L 387.348303 290.855068 
L 388.044489 292.021238 
L 389.204798 294.162674 
L 389.668922 294.727282 
L 390.133046 294.996741 
L 390.597169 294.913657 
L 391.061293 294.483026 
L 391.757479 293.386289 
L 393.14985 290.892547 
L 393.613974 290.409665 
L 394.078097 290.230903 
L 394.542221 290.395409 
L 395.006345 290.861262 
L 395.70253 292.029098 
L 396.86284 294.130522 
L 397.559025 294.85775 
L 398.023149 294.949516 
L 398.487273 294.701437 
L 398.487273 294.701437 
" style="fill:none;stroke:#008000;stroke-linecap:square;stroke-width:1.5;"/>
   </g>
   <g id="patch_3">
    <path d="M 57.6 307.584 
L 57.6 41.472 
" style="fill:none;stroke:#000000;stroke-linecap:square;stroke-linejoin:miter;stroke-width:0.8;"/>
   </g>
   <g id="patch_4">
    <path d="M 414.72 307.584 
L 414.72 41.472 
" style="fill:none;stroke:#000000;stroke-linecap:square;stroke-linejoin:miter;stroke-width:0.8;"/>
   </g>
   <g id="patch_5">
    <path d="M 57.6 307.584 
L 414.72 307.584 
" style="fill:none;stroke:#000000;stroke-linecap:square;stroke-linejoin:miter;stroke-width:0.8;"/>
   </g>
   <g id="patch_6">
    <path d="M 57.6 41.472 
L 414.72 41.472 
" style="fill:none;stroke:#000000;stroke-linecap:square;stroke-linejoin:miter;stroke-width:0.8;"/>
   </g>
   <g id="legend_1">
    <g id="patch_7">
     <path d="M 351.0075 198.045187 
L 407.72 198.045187 
Q 409.72 198.045187 409.72 196.045187 
L 409.72 153.010812 
Q 409.72 151.010812 407.72 151.010812 
L 351.0075 151.010812 
Q 349.0075 151.010812 349.0075 153.010812 
L 349.0075 196.045187 
Q 349.0075 198.045187 351.0075 198.045187 
z
" style="fill:#ffffff;opacity:0.8;stroke:#cccccc;stroke-linejoin:miter;"/>
    </g>
    <g id="line2d_20">
     <path d="M 353.0075 159.10925 
L 373.0075 159.10925 
" style="fill:none;stroke:#1f77b4;stroke-linecap:square;stroke-width:1.5;"/>
    </g>
    <g id="line2d_21"/>
    <g id="text_17">
     <!-- 0-&gt;1 -->
     <defs>
      <path d="M 4.890625 31.390625 
L 31.203125 31.390625 
L 31.203125 23.390625 
L 4.890625 23.390625 
z
" id="DejaVuSans-45"/>
      <path d="M 10.59375 49.21875 
L 10.59375 58.109375 
L 73.1875 35.40625 
L 73.1875 27.296875 
L 10.59375 4.59375 
L 10.59375 13.484375 
L 60.890625 31.296875 
z
" id="DejaVuSans-62"/>
     </defs>
     <g transform="translate(381.0075 162.60925)scale(0.1 -0.1)">
      <use xlink:href="#DejaVuSans-48"/>
      <use x="63.623047" xlink:href="#DejaVuSans-45"/>
      <use x="99.707031" xlink:href="#DejaVuSans-62"/>
      <use x="183.496094" xlink:href="#DejaVuSans-49"/>
     </g>
    </g>
    <g id="line2d_22">
     <path d="M 353.0075 173.787375 
L 373.0075 173.787375 
" style="fill:none;stroke:#ff0000;stroke-linecap:square;stroke-width:1.5;"/>
    </g>
    <g id="line2d_23"/>
    <g id="text_18">
     <!-- 1-&gt;0 -->
     <g transform="translate(381.0075 177.287375)scale(0.1 -0.1)">
      <use xlink:href="#DejaVuSans-49"/>
      <use x="63.623047" xlink:href="#DejaVuSans-45"/>
      <use x="99.707031" xlink:href="#DejaVuSans-62"/>
      <use x="183.496094" xlink:href="#DejaVuSans-48"/>
     </g>
    </g>
    <g id="line2d_24">
     <path d="M 353.0075 188.4655 
L 373.0075 188.4655 
" style="fill:none;stroke:#008000;stroke-linecap:square;stroke-width:1.5;"/>
    </g>
    <g id="line2d_25"/>
    <g id="text_19">
     <!-- diff -->
     <defs>
      <path d="M 45.40625 46.390625 
L 45.40625 75.984375 
L 54.390625 75.984375 
L 54.390625 0 
L 45.40625 0 
L 45.40625 8.203125 
Q 42.578125 3.328125 38.25 0.953125 
Q 33.9375 -1.421875 27.875 -1.421875 
Q 17.96875 -1.421875 11.734375 6.484375 
Q 5.515625 14.40625 5.515625 27.296875 
Q 5.515625 40.1875 11.734375 48.09375 
Q 17.96875 56 27.875 56 
Q 33.9375 56 38.25 53.625 
Q 42.578125 51.265625 45.40625 46.390625 
z
M 14.796875 27.296875 
Q 14.796875 17.390625 18.875 11.75 
Q 22.953125 6.109375 30.078125 6.109375 
Q 37.203125 6.109375 41.296875 11.75 
Q 45.40625 17.390625 45.40625 27.296875 
Q 45.40625 37.203125 41.296875 42.84375 
Q 37.203125 48.484375 30.078125 48.484375 
Q 22.953125 48.484375 18.875 42.84375 
Q 14.796875 37.203125 14.796875 27.296875 
z
" id="DejaVuSans-100"/>
      <path d="M 9.421875 54.6875 
L 18.40625 54.6875 
L 18.40625 0 
L 9.421875 0 
z
M 9.421875 75.984375 
L 18.40625 75.984375 
L 18.40625 64.59375 
L 9.421875 64.59375 
z
" id="DejaVuSans-105"/>
      <path d="M 37.109375 75.984375 
L 37.109375 68.5 
L 28.515625 68.5 
Q 23.6875 68.5 21.796875 66.546875 
Q 19.921875 64.59375 19.921875 59.515625 
L 19.921875 54.6875 
L 34.71875 54.6875 
L 34.71875 47.703125 
L 19.921875 47.703125 
L 19.921875 0 
L 10.890625 0 
L 10.890625 47.703125 
L 2.296875 47.703125 
L 2.296875 54.6875 
L 10.890625 54.6875 
L 10.890625 58.5 
Q 10.890625 67.625 15.140625 71.796875 
Q 19.390625 75.984375 28.609375 75.984375 
z
" id="DejaVuSans-102"/>
     </defs>
     <g transform="translate(381.0075 191.9655)scale(0.1 -0.1)">
      <use xlink:href="#DejaVuSans-100"/>
      <use x="63.476562" xlink:href="#DejaVuSans-105"/>
      <use x="91.259766" xlink:href="#DejaVuSans-102"/>
      <use x="126.464844" xlink:href="#DejaVuSans-102"/>
     </g>
    </g>
   </g>
  </g>
 </g>
 <defs>
  <clipPath id="pfee90f4a45">
   <rect height="266.112" width="357.12" x="57.6" y="41.472"/>
  </clipPath>
 </defs>
</svg>
