<?xml version="1.0" encoding="utf-8" standalone="no"?>
<!DOCTYPE svg PUBLIC "-//W3C//DTD SVG 1.1//EN"
  "http://www.w3.org/Graphics/SVG/1.1/DTD/svg11.dtd">
<!-- Created with matplotlib (https://matplotlib.org/) -->
<svg height="345.6pt" version="1.1" viewBox="0 0 460.8 345.6" width="460.8pt" xmlns="http://www.w3.org/2000/svg" xmlns:xlink="http://www.w3.org/1999/xlink">
 <defs>
  <style type="text/css">
*{stroke-linecap:butt;stroke-linejoin:round;}
  </style>
 </defs>
 <g id="figure_1">
  <g id="patch_1">
   <path d="M 0 345.6 
L 460.8 345.6 
L 460.8 0 
L 0 0 
z
" style="fill:#ffffff;"/>
  </g>
  <g id="axes_1">
   <g id="patch_2">
    <path d="M 57.6 307.584 
L 414.72 307.584 
L 414.72 41.472 
L 57.6 41.472 
z
" style="fill:#ffffff;"/>
   </g>
   <g id="matplotlib.axis_1">
    <g id="xtick_1">
     <g id="line2d_1">
      <defs>
       <path d="M 0 0 
L 0 3.5 
" id="m20e52ce375" style="stroke:#000000;stroke-width:0.8;"/>
      </defs>
      <g>
       <use style="stroke:#000000;stroke-width:0.8;" x="73.832727" xlink:href="#m20e52ce375" y="307.584"/>
      </g>
     </g>
     <g id="text_1">
      <!-- 0 -->
      <defs>
       <path d="M 31.78125 66.40625 
Q 24.171875 66.40625 20.328125 58.90625 
Q 16.5 51.421875 16.5 36.375 
Q 16.5 21.390625 20.328125 13.890625 
Q 24.171875 6.390625 31.78125 6.390625 
Q 39.453125 6.390625 43.28125 13.890625 
Q 47.125 21.390625 47.125 36.375 
Q 47.125 51.421875 43.28125 58.90625 
Q 39.453125 66.40625 31.78125 66.40625 
z
M 31.78125 74.21875 
Q 44.046875 74.21875 50.515625 64.515625 
Q 56.984375 54.828125 56.984375 36.375 
Q 56.984375 17.96875 50.515625 8.265625 
Q 44.046875 -1.421875 31.78125 -1.421875 
Q 19.53125 -1.421875 13.0625 8.265625 
Q 6.59375 17.96875 6.59375 36.375 
Q 6.59375 54.828125 13.0625 64.515625 
Q 19.53125 74.21875 31.78125 74.21875 
z
" id="DejaVuSans-48"/>
      </defs>
      <g transform="translate(70.651477 322.182437)scale(0.1 -0.1)">
       <use xlink:href="#DejaVuSans-48"/>
      </g>
     </g>
    </g>
    <g id="xtick_2">
     <g id="line2d_2">
      <g>
       <use style="stroke:#000000;stroke-width:0.8;" x="120.2451" xlink:href="#m20e52ce375" y="307.584"/>
      </g>
     </g>
     <g id="text_2">
      <!-- 200 -->
      <defs>
       <path d="M 19.1875 8.296875 
L 53.609375 8.296875 
L 53.609375 0 
L 7.328125 0 
L 7.328125 8.296875 
Q 12.9375 14.109375 22.625 23.890625 
Q 32.328125 33.6875 34.8125 36.53125 
Q 39.546875 41.84375 41.421875 45.53125 
Q 43.3125 49.21875 43.3125 52.78125 
Q 43.3125 58.59375 39.234375 62.25 
Q 35.15625 65.921875 28.609375 65.921875 
Q 23.96875 65.921875 18.8125 64.3125 
Q 13.671875 62.703125 7.8125 59.421875 
L 7.8125 69.390625 
Q 13.765625 71.78125 18.9375 73 
Q 24.125 74.21875 28.421875 74.21875 
Q 39.75 74.21875 46.484375 68.546875 
Q 53.21875 62.890625 53.21875 53.421875 
Q 53.21875 48.921875 51.53125 44.890625 
Q 49.859375 40.875 45.40625 35.40625 
Q 44.1875 33.984375 37.640625 27.21875 
Q 31.109375 20.453125 19.1875 8.296875 
z
" id="DejaVuSans-50"/>
      </defs>
      <g transform="translate(110.70135 322.182437)scale(0.1 -0.1)">
       <use xlink:href="#DejaVuSans-50"/>
       <use x="63.623047" xlink:href="#DejaVuSans-48"/>
       <use x="127.246094" xlink:href="#DejaVuSans-48"/>
      </g>
     </g>
    </g>
    <g id="xtick_3">
     <g id="line2d_3">
      <g>
       <use style="stroke:#000000;stroke-width:0.8;" x="166.657472" xlink:href="#m20e52ce375" y="307.584"/>
      </g>
     </g>
     <g id="text_3">
      <!-- 400 -->
      <defs>
       <path d="M 37.796875 64.3125 
L 12.890625 25.390625 
L 37.796875 25.390625 
z
M 35.203125 72.90625 
L 47.609375 72.90625 
L 47.609375 25.390625 
L 58.015625 25.390625 
L 58.015625 17.1875 
L 47.609375 17.1875 
L 47.609375 0 
L 37.796875 0 
L 37.796875 17.1875 
L 4.890625 17.1875 
L 4.890625 26.703125 
z
" id="DejaVuSans-52"/>
      </defs>
      <g transform="translate(157.113722 322.182437)scale(0.1 -0.1)">
       <use xlink:href="#DejaVuSans-52"/>
       <use x="63.623047" xlink:href="#DejaVuSans-48"/>
       <use x="127.246094" xlink:href="#DejaVuSans-48"/>
      </g>
     </g>
    </g>
    <g id="xtick_4">
     <g id="line2d_4">
      <g>
       <use style="stroke:#000000;stroke-width:0.8;" x="213.069845" xlink:href="#m20e52ce375" y="307.584"/>
      </g>
     </g>
     <g id="text_4">
      <!-- 600 -->
      <defs>
       <path d="M 33.015625 40.375 
Q 26.375 40.375 22.484375 35.828125 
Q 18.609375 31.296875 18.609375 23.390625 
Q 18.609375 15.53125 22.484375 10.953125 
Q 26.375 6.390625 33.015625 6.390625 
Q 39.65625 6.390625 43.53125 10.953125 
Q 47.40625 15.53125 47.40625 23.390625 
Q 47.40625 31.296875 43.53125 35.828125 
Q 39.65625 40.375 33.015625 40.375 
z
M 52.59375 71.296875 
L 52.59375 62.3125 
Q 48.875 64.0625 45.09375 64.984375 
Q 41.3125 65.921875 37.59375 65.921875 
Q 27.828125 65.921875 22.671875 59.328125 
Q 17.53125 52.734375 16.796875 39.40625 
Q 19.671875 43.65625 24.015625 45.921875 
Q 28.375 48.1875 33.59375 48.1875 
Q 44.578125 48.1875 50.953125 41.515625 
Q 57.328125 34.859375 57.328125 23.390625 
Q 57.328125 12.15625 50.6875 5.359375 
Q 44.046875 -1.421875 33.015625 -1.421875 
Q 20.359375 -1.421875 13.671875 8.265625 
Q 6.984375 17.96875 6.984375 36.375 
Q 6.984375 53.65625 15.1875 63.9375 
Q 23.390625 74.21875 37.203125 74.21875 
Q 40.921875 74.21875 44.703125 73.484375 
Q 48.484375 72.75 52.59375 71.296875 
z
" id="DejaVuSans-54"/>
      </defs>
      <g transform="translate(203.526095 322.182437)scale(0.1 -0.1)">
       <use xlink:href="#DejaVuSans-54"/>
       <use x="63.623047" xlink:href="#DejaVuSans-48"/>
       <use x="127.246094" xlink:href="#DejaVuSans-48"/>
      </g>
     </g>
    </g>
    <g id="xtick_5">
     <g id="line2d_5">
      <g>
       <use style="stroke:#000000;stroke-width:0.8;" x="259.482217" xlink:href="#m20e52ce375" y="307.584"/>
      </g>
     </g>
     <g id="text_5">
      <!-- 800 -->
      <defs>
       <path d="M 31.78125 34.625 
Q 24.75 34.625 20.71875 30.859375 
Q 16.703125 27.09375 16.703125 20.515625 
Q 16.703125 13.921875 20.71875 10.15625 
Q 24.75 6.390625 31.78125 6.390625 
Q 38.8125 6.390625 42.859375 10.171875 
Q 46.921875 13.96875 46.921875 20.515625 
Q 46.921875 27.09375 42.890625 30.859375 
Q 38.875 34.625 31.78125 34.625 
z
M 21.921875 38.8125 
Q 15.578125 40.375 12.03125 44.71875 
Q 8.5 49.078125 8.5 55.328125 
Q 8.5 64.0625 14.71875 69.140625 
Q 20.953125 74.21875 31.78125 74.21875 
Q 42.671875 74.21875 48.875 69.140625 
Q 55.078125 64.0625 55.078125 55.328125 
Q 55.078125 49.078125 51.53125 44.71875 
Q 48 40.375 41.703125 38.8125 
Q 48.828125 37.15625 52.796875 32.3125 
Q 56.78125 27.484375 56.78125 20.515625 
Q 56.78125 9.90625 50.3125 4.234375 
Q 43.84375 -1.421875 31.78125 -1.421875 
Q 19.734375 -1.421875 13.25 4.234375 
Q 6.78125 9.90625 6.78125 20.515625 
Q 6.78125 27.484375 10.78125 32.3125 
Q 14.796875 37.15625 21.921875 38.8125 
z
M 18.3125 54.390625 
Q 18.3125 48.734375 21.84375 45.5625 
Q 25.390625 42.390625 31.78125 42.390625 
Q 38.140625 42.390625 41.71875 45.5625 
Q 45.3125 48.734375 45.3125 54.390625 
Q 45.3125 60.0625 41.71875 63.234375 
Q 38.140625 66.40625 31.78125 66.40625 
Q 25.390625 66.40625 21.84375 63.234375 
Q 18.3125 60.0625 18.3125 54.390625 
z
" id="DejaVuSans-56"/>
      </defs>
      <g transform="translate(249.938467 322.182437)scale(0.1 -0.1)">
       <use xlink:href="#DejaVuSans-56"/>
       <use x="63.623047" xlink:href="#DejaVuSans-48"/>
       <use x="127.246094" xlink:href="#DejaVuSans-48"/>
      </g>
     </g>
    </g>
    <g id="xtick_6">
     <g id="line2d_6">
      <g>
       <use style="stroke:#000000;stroke-width:0.8;" x="305.89459" xlink:href="#m20e52ce375" y="307.584"/>
      </g>
     </g>
     <g id="text_6">
      <!-- 1000 -->
      <defs>
       <path d="M 12.40625 8.296875 
L 28.515625 8.296875 
L 28.515625 63.921875 
L 10.984375 60.40625 
L 10.984375 69.390625 
L 28.421875 72.90625 
L 38.28125 72.90625 
L 38.28125 8.296875 
L 54.390625 8.296875 
L 54.390625 0 
L 12.40625 0 
z
" id="DejaVuSans-49"/>
      </defs>
      <g transform="translate(293.16959 322.182437)scale(0.1 -0.1)">
       <use xlink:href="#DejaVuSans-49"/>
       <use x="63.623047" xlink:href="#DejaVuSans-48"/>
       <use x="127.246094" xlink:href="#DejaVuSans-48"/>
       <use x="190.869141" xlink:href="#DejaVuSans-48"/>
      </g>
     </g>
    </g>
    <g id="xtick_7">
     <g id="line2d_7">
      <g>
       <use style="stroke:#000000;stroke-width:0.8;" x="352.306962" xlink:href="#m20e52ce375" y="307.584"/>
      </g>
     </g>
     <g id="text_7">
      <!-- 1200 -->
      <g transform="translate(339.581962 322.182437)scale(0.1 -0.1)">
       <use xlink:href="#DejaVuSans-49"/>
       <use x="63.623047" xlink:href="#DejaVuSans-50"/>
       <use x="127.246094" xlink:href="#DejaVuSans-48"/>
       <use x="190.869141" xlink:href="#DejaVuSans-48"/>
      </g>
     </g>
    </g>
    <g id="xtick_8">
     <g id="line2d_8">
      <g>
       <use style="stroke:#000000;stroke-width:0.8;" x="398.719335" xlink:href="#m20e52ce375" y="307.584"/>
      </g>
     </g>
     <g id="text_8">
      <!-- 1400 -->
      <g transform="translate(385.994335 322.182437)scale(0.1 -0.1)">
       <use xlink:href="#DejaVuSans-49"/>
       <use x="63.623047" xlink:href="#DejaVuSans-52"/>
       <use x="127.246094" xlink:href="#DejaVuSans-48"/>
       <use x="190.869141" xlink:href="#DejaVuSans-48"/>
      </g>
     </g>
    </g>
   </g>
   <g id="matplotlib.axis_2">
    <g id="ytick_1">
     <g id="line2d_9">
      <defs>
       <path d="M 0 0 
L -3.5 0 
" id="m4db78e80b9" style="stroke:#000000;stroke-width:0.8;"/>
      </defs>
      <g>
       <use style="stroke:#000000;stroke-width:0.8;" x="57.6" xlink:href="#m4db78e80b9" y="293.653548"/>
      </g>
     </g>
     <g id="text_9">
      <!-- 0.00 -->
      <defs>
       <path d="M 10.6875 12.40625 
L 21 12.40625 
L 21 0 
L 10.6875 0 
z
" id="DejaVuSans-46"/>
      </defs>
      <g transform="translate(28.334375 297.452767)scale(0.1 -0.1)">
       <use xlink:href="#DejaVuSans-48"/>
       <use x="63.623047" xlink:href="#DejaVuSans-46"/>
       <use x="95.410156" xlink:href="#DejaVuSans-48"/>
       <use x="159.033203" xlink:href="#DejaVuSans-48"/>
      </g>
     </g>
    </g>
    <g id="ytick_2">
     <g id="line2d_10">
      <g>
       <use style="stroke:#000000;stroke-width:0.8;" x="57.6" xlink:href="#m4db78e80b9" y="261.800195"/>
      </g>
     </g>
     <g id="text_10">
      <!-- 0.05 -->
      <defs>
       <path d="M 10.796875 72.90625 
L 49.515625 72.90625 
L 49.515625 64.59375 
L 19.828125 64.59375 
L 19.828125 46.734375 
Q 21.96875 47.46875 24.109375 47.828125 
Q 26.265625 48.1875 28.421875 48.1875 
Q 40.625 48.1875 47.75 41.5 
Q 54.890625 34.8125 54.890625 23.390625 
Q 54.890625 11.625 47.5625 5.09375 
Q 40.234375 -1.421875 26.90625 -1.421875 
Q 22.3125 -1.421875 17.546875 -0.640625 
Q 12.796875 0.140625 7.71875 1.703125 
L 7.71875 11.625 
Q 12.109375 9.234375 16.796875 8.0625 
Q 21.484375 6.890625 26.703125 6.890625 
Q 35.15625 6.890625 40.078125 11.328125 
Q 45.015625 15.765625 45.015625 23.390625 
Q 45.015625 31 40.078125 35.4375 
Q 35.15625 39.890625 26.703125 39.890625 
Q 22.75 39.890625 18.8125 39.015625 
Q 14.890625 38.140625 10.796875 36.28125 
z
" id="DejaVuSans-53"/>
      </defs>
      <g transform="translate(28.334375 265.599413)scale(0.1 -0.1)">
       <use xlink:href="#DejaVuSans-48"/>
       <use x="63.623047" xlink:href="#DejaVuSans-46"/>
       <use x="95.410156" xlink:href="#DejaVuSans-48"/>
       <use x="159.033203" xlink:href="#DejaVuSans-53"/>
      </g>
     </g>
    </g>
    <g id="ytick_3">
     <g id="line2d_11">
      <g>
       <use style="stroke:#000000;stroke-width:0.8;" x="57.6" xlink:href="#m4db78e80b9" y="229.946842"/>
      </g>
     </g>
     <g id="text_11">
      <!-- 0.10 -->
      <g transform="translate(28.334375 233.74606)scale(0.1 -0.1)">
       <use xlink:href="#DejaVuSans-48"/>
       <use x="63.623047" xlink:href="#DejaVuSans-46"/>
       <use x="95.410156" xlink:href="#DejaVuSans-49"/>
       <use x="159.033203" xlink:href="#DejaVuSans-48"/>
      </g>
     </g>
    </g>
    <g id="ytick_4">
     <g id="line2d_12">
      <g>
       <use style="stroke:#000000;stroke-width:0.8;" x="57.6" xlink:href="#m4db78e80b9" y="198.093488"/>
      </g>
     </g>
     <g id="text_12">
      <!-- 0.15 -->
      <g transform="translate(28.334375 201.892707)scale(0.1 -0.1)">
       <use xlink:href="#DejaVuSans-48"/>
       <use x="63.623047" xlink:href="#DejaVuSans-46"/>
       <use x="95.410156" xlink:href="#DejaVuSans-49"/>
       <use x="159.033203" xlink:href="#DejaVuSans-53"/>
      </g>
     </g>
    </g>
    <g id="ytick_5">
     <g id="line2d_13">
      <g>
       <use style="stroke:#000000;stroke-width:0.8;" x="57.6" xlink:href="#m4db78e80b9" y="166.240135"/>
      </g>
     </g>
     <g id="text_13">
      <!-- 0.20 -->
      <g transform="translate(28.334375 170.039354)scale(0.1 -0.1)">
       <use xlink:href="#DejaVuSans-48"/>
       <use x="63.623047" xlink:href="#DejaVuSans-46"/>
       <use x="95.410156" xlink:href="#DejaVuSans-50"/>
       <use x="159.033203" xlink:href="#DejaVuSans-48"/>
      </g>
     </g>
    </g>
    <g id="ytick_6">
     <g id="line2d_14">
      <g>
       <use style="stroke:#000000;stroke-width:0.8;" x="57.6" xlink:href="#m4db78e80b9" y="134.386782"/>
      </g>
     </g>
     <g id="text_14">
      <!-- 0.25 -->
      <g transform="translate(28.334375 138.186001)scale(0.1 -0.1)">
       <use xlink:href="#DejaVuSans-48"/>
       <use x="63.623047" xlink:href="#DejaVuSans-46"/>
       <use x="95.410156" xlink:href="#DejaVuSans-50"/>
       <use x="159.033203" xlink:href="#DejaVuSans-53"/>
      </g>
     </g>
    </g>
    <g id="ytick_7">
     <g id="line2d_15">
      <g>
       <use style="stroke:#000000;stroke-width:0.8;" x="57.6" xlink:href="#m4db78e80b9" y="102.533429"/>
      </g>
     </g>
     <g id="text_15">
      <!-- 0.30 -->
      <defs>
       <path d="M 40.578125 39.3125 
Q 47.65625 37.796875 51.625 33 
Q 55.609375 28.21875 55.609375 21.1875 
Q 55.609375 10.40625 48.1875 4.484375 
Q 40.765625 -1.421875 27.09375 -1.421875 
Q 22.515625 -1.421875 17.65625 -0.515625 
Q 12.796875 0.390625 7.625 2.203125 
L 7.625 11.71875 
Q 11.71875 9.328125 16.59375 8.109375 
Q 21.484375 6.890625 26.8125 6.890625 
Q 36.078125 6.890625 40.9375 10.546875 
Q 45.796875 14.203125 45.796875 21.1875 
Q 45.796875 27.640625 41.28125 31.265625 
Q 36.765625 34.90625 28.71875 34.90625 
L 20.21875 34.90625 
L 20.21875 43.015625 
L 29.109375 43.015625 
Q 36.375 43.015625 40.234375 45.921875 
Q 44.09375 48.828125 44.09375 54.296875 
Q 44.09375 59.90625 40.109375 62.90625 
Q 36.140625 65.921875 28.71875 65.921875 
Q 24.65625 65.921875 20.015625 65.03125 
Q 15.375 64.15625 9.8125 62.3125 
L 9.8125 71.09375 
Q 15.4375 72.65625 20.34375 73.4375 
Q 25.25 74.21875 29.59375 74.21875 
Q 40.828125 74.21875 47.359375 69.109375 
Q 53.90625 64.015625 53.90625 55.328125 
Q 53.90625 49.265625 50.4375 45.09375 
Q 46.96875 40.921875 40.578125 39.3125 
z
" id="DejaVuSans-51"/>
      </defs>
      <g transform="translate(28.334375 106.332648)scale(0.1 -0.1)">
       <use xlink:href="#DejaVuSans-48"/>
       <use x="63.623047" xlink:href="#DejaVuSans-46"/>
       <use x="95.410156" xlink:href="#DejaVuSans-51"/>
       <use x="159.033203" xlink:href="#DejaVuSans-48"/>
      </g>
     </g>
    </g>
    <g id="ytick_8">
     <g id="line2d_16">
      <g>
       <use style="stroke:#000000;stroke-width:0.8;" x="57.6" xlink:href="#m4db78e80b9" y="70.680076"/>
      </g>
     </g>
     <g id="text_16">
      <!-- 0.35 -->
      <g transform="translate(28.334375 74.479295)scale(0.1 -0.1)">
       <use xlink:href="#DejaVuSans-48"/>
       <use x="63.623047" xlink:href="#DejaVuSans-46"/>
       <use x="95.410156" xlink:href="#DejaVuSans-51"/>
       <use x="159.033203" xlink:href="#DejaVuSans-53"/>
      </g>
     </g>
    </g>
   </g>
   <g id="line2d_17">
    <path clip-path="url(#pa3b8d8a92e)" d="M 73.832727 56.798333 
L 74.528913 56.89975 
L 75.225098 57.24914 
L 77.081593 58.411767 
L 77.777779 58.5252 
L 78.473965 58.355118 
L 79.402212 57.791064 
L 80.794583 56.885973 
L 81.490769 56.711607 
L 82.186954 56.816984 
L 82.88314 57.16377 
L 84.739635 58.301811 
L 85.43582 58.414202 
L 86.132006 58.249373 
L 87.060253 57.690974 
L 88.452625 56.781358 
L 89.14881 56.600881 
L 89.844996 56.699409 
L 90.541181 57.041788 
L 92.629738 58.271567 
L 93.325924 58.309942 
L 94.022109 58.077761 
L 95.182419 57.316603 
L 96.110666 56.754788 
L 96.806852 56.566529 
L 97.503037 56.650764 
L 98.199223 56.976651 
L 100.28778 58.189777 
L 100.983965 58.232055 
L 101.680151 58.00255 
L 102.608398 57.392265 
L 103.768708 56.592238 
L 104.464893 56.352903 
L 105.161079 56.396882 
L 105.857264 56.707223 
L 108.177883 58.07394 
L 108.874068 58.067214 
L 109.570254 57.791961 
L 112.122935 56.354088 
L 112.81912 56.401851 
L 113.515306 56.704352 
L 115.603862 57.909332 
L 116.300048 57.960968 
L 116.996234 57.73935 
L 117.924481 57.146381 
L 119.08479 56.391073 
L 119.780976 56.181167 
L 120.477162 56.244927 
L 121.173347 56.557214 
L 123.261904 57.77977 
L 123.95809 57.835443 
L 124.654275 57.619219 
L 125.582523 57.029195 
L 126.742832 56.262674 
L 127.439017 56.042142 
L 128.135203 56.097468 
L 128.831389 56.409088 
L 131.152007 57.737391 
L 131.848193 57.717887 
L 132.544378 57.427676 
L 135.097059 55.958604 
L 135.793245 56.020132 
L 136.48943 56.34411 
L 138.577987 57.648175 
L 139.274172 57.72511 
L 139.970358 57.514636 
L 140.898605 56.911769 
L 142.058915 56.122613 
L 142.7551 55.894252 
L 143.451286 55.943802 
L 144.147472 56.257505 
L 146.46809 57.580574 
L 147.164276 57.559375 
L 147.860461 57.266146 
L 150.413142 55.763089 
L 151.109327 55.808866 
L 151.805513 56.118242 
L 154.126132 57.477627 
L 154.822317 57.4655 
L 155.518503 57.178472 
L 156.910874 56.18612 
L 157.839121 55.705118 
L 158.535307 55.644502 
L 159.231493 55.868648 
L 160.15974 56.47218 
L 161.320049 57.222339 
L 162.016235 57.408947 
L 162.712421 57.306236 
L 163.408606 56.944229 
L 165.497163 55.607708 
L 166.193348 55.550058 
L 166.889534 55.772534 
L 167.817782 56.374829 
L 168.978091 57.124414 
L 169.674276 57.31372 
L 170.370462 57.216387 
L 171.066648 56.860983 
L 173.155204 55.523453 
L 173.85139 55.450633 
L 174.547576 55.663044 
L 175.475823 56.255418 
L 176.636132 57.008375 
L 177.332318 57.207944 
L 178.028503 57.124609 
L 178.724689 56.782249 
L 180.813246 55.456703 
L 181.509431 55.378227 
L 182.205617 55.580706 
L 183.133864 56.16138 
L 184.294174 56.908711 
L 184.990359 57.109672 
L 185.686545 57.029765 
L 186.382731 56.690974 
L 188.471287 55.362626 
L 189.167473 55.277926 
L 189.863658 55.47371 
L 190.791906 56.048129 
L 191.952215 56.797204 
L 192.648401 57.005873 
L 193.344586 56.935801 
L 194.040772 56.605989 
L 196.361391 55.219427 
L 197.057576 55.222721 
L 197.753762 55.494014 
L 200.306442 56.892083 
L 201.002628 56.822116 
L 201.698813 56.496258 
L 204.019432 55.125053 
L 204.715618 55.127695 
L 205.411803 55.392446 
L 207.964484 56.773703 
L 208.660669 56.702889 
L 209.356855 56.379103 
L 211.677474 55.022367 
L 212.373659 55.026603 
L 213.069845 55.292958 
L 215.622525 56.675117 
L 216.318711 56.612734 
L 217.014896 56.298663 
L 219.335515 54.950237 
L 220.031701 54.945555 
L 220.727886 55.200698 
L 223.280567 56.570463 
L 223.976752 56.517397 
L 224.672938 56.212469 
L 226.993556 54.868584 
L 227.689742 54.855991 
L 228.385928 55.103228 
L 229.778299 55.997529 
L 230.706546 56.428399 
L 231.402732 56.473726 
L 232.098917 56.254511 
L 233.027165 55.675712 
L 234.187474 54.949711 
L 234.88366 54.754874 
L 235.579845 54.827407 
L 236.276031 55.142173 
L 238.59665 56.392454 
L 239.292835 56.356261 
L 239.989021 56.066361 
L 242.309639 54.713366 
L 243.005825 54.684463 
L 243.702011 54.915779 
L 244.86232 55.642606 
L 245.790567 56.154374 
L 246.486753 56.298724 
L 247.182938 56.177425 
L 248.111186 55.676045 
L 249.503557 54.795273 
L 250.199743 54.595906 
L 250.895928 54.659339 
L 251.592114 54.963353 
L 253.680671 56.155766 
L 254.376856 56.212093 
L 255.073042 56.006205 
L 256.001289 55.440752 
L 257.161599 54.716543 
L 257.857784 54.519301 
L 258.55397 54.570973 
L 259.250155 54.869539 
L 261.338712 56.050057 
L 262.034898 56.109711 
L 262.731083 55.908552 
L 263.659331 55.354555 
L 264.81964 54.631103 
L 265.515826 54.422787 
L 266.212011 54.474737 
L 266.908197 54.766327 
L 269.228815 55.995951 
L 269.925001 55.969809 
L 270.621187 55.703259 
L 273.173867 54.344959 
L 273.870053 54.390551 
L 274.566238 54.675815 
L 276.886857 55.905653 
L 277.583042 55.890077 
L 278.279228 55.624787 
L 280.831909 54.266821 
L 281.528094 54.312209 
L 282.22428 54.597491 
L 284.544898 55.835723 
L 285.241084 55.825475 
L 285.937269 55.567333 
L 288.48995 54.232201 
L 289.186136 54.287606 
L 289.882321 54.587891 
L 292.20294 55.888777 
L 292.899125 55.8881 
L 293.595311 55.630442 
L 294.987682 54.721581 
L 295.91593 54.276314 
L 296.612115 54.217449 
L 297.308301 54.420516 
L 298.236548 54.97368 
L 299.396857 55.666009 
L 300.093043 55.844218 
L 300.789229 55.759743 
L 301.485414 55.436613 
L 303.573971 54.222451 
L 304.270157 54.161309 
L 304.966342 54.357031 
L 305.89459 54.914713 
L 307.054899 55.622516 
L 307.751085 55.80913 
L 308.44727 55.724299 
L 309.143456 55.404449 
L 311.232012 54.174768 
L 311.928198 54.109403 
L 312.624384 54.310129 
L 313.552631 54.866202 
L 314.71294 55.570748 
L 315.409126 55.759072 
L 316.105312 55.684905 
L 316.801497 55.367034 
L 318.890054 54.137979 
L 319.58624 54.064049 
L 320.282425 54.251254 
L 321.210673 54.791813 
L 322.370982 55.496956 
L 323.067167 55.692002 
L 323.763353 55.62487 
L 324.459539 55.315318 
L 326.780157 54.024787 
L 327.476343 54.031671 
L 328.172528 54.289204 
L 330.725209 55.619179 
L 331.421395 55.560672 
L 332.11758 55.258937 
L 334.438199 53.976946 
L 335.134384 53.98744 
L 335.83057 54.253199 
L 338.38325 55.664698 
L 339.079436 55.62905 
L 339.775622 55.344022 
L 342.09624 54.038579 
L 342.792426 54.01401 
L 343.488611 54.241741 
L 344.648921 54.956302 
L 345.577168 55.46616 
L 346.273354 55.620051 
L 346.969539 55.519698 
L 347.897787 55.056947 
L 349.52222 54.130048 
L 350.218405 54.011974 
L 350.914591 54.143777 
L 351.842838 54.62225 
L 353.23521 55.407044 
L 353.931395 55.557386 
L 354.627581 55.458606 
L 355.555828 55.00118 
L 357.180261 54.07005 
L 357.876447 53.942677 
L 358.572632 54.06383 
L 359.50088 54.531894 
L 360.893251 55.311375 
L 361.589437 55.462636 
L 362.285622 55.368937 
L 363.21387 54.920714 
L 364.838303 54.003086 
L 365.534488 53.876133 
L 366.230674 53.991438 
L 367.158921 54.446033 
L 368.551292 55.216471 
L 369.247478 55.37221 
L 369.943664 55.285586 
L 370.871911 54.847633 
L 372.496344 53.932318 
L 373.19253 53.801912 
L 373.888715 53.915626 
L 374.816963 54.37078 
L 376.209334 55.149501 
L 376.90552 55.309855 
L 377.601705 55.226817 
L 378.297891 54.924898 
L 380.386447 53.791122 
L 381.082633 53.733933 
L 381.778819 53.917573 
L 382.939128 54.560843 
L 384.099437 55.124934 
L 384.795623 55.209105 
L 385.491808 55.051687 
L 386.420056 54.556766 
L 387.812427 53.775931 
L 388.508613 53.629287 
L 389.204798 53.722198 
L 390.133046 54.152975 
L 391.757479 55.008091 
L 392.453664 55.107147 
L 393.14985 54.96801 
L 394.078097 54.490969 
L 395.470469 53.716484 
L 396.166654 53.568 
L 396.86284 53.660305 
L 397.791087 54.096314 
L 398.487273 54.520782 
L 398.487273 54.520782 
" style="fill:none;stroke:#1f77b4;stroke-linecap:square;stroke-width:1.5;"/>
   </g>
   <g id="line2d_18">
    <path clip-path="url(#pa3b8d8a92e)" d="M 73.832727 58.593863 
L 74.528913 58.469074 
L 75.225098 58.100155 
L 77.313655 56.785003 
L 78.009841 56.75463 
L 78.706026 57.01555 
L 80.098398 57.936535 
L 81.026645 58.406574 
L 81.722831 58.466171 
L 82.419016 58.242645 
L 84.043449 57.175194 
L 84.971697 56.719101 
L 85.667882 56.67523 
L 86.364068 56.893644 
L 87.524377 57.65745 
L 88.452625 58.203196 
L 89.14881 58.36458 
L 89.844996 58.248015 
L 90.541181 57.889197 
L 92.397676 56.714761 
L 93.093862 56.585817 
L 93.790047 56.726947 
L 94.718295 57.243673 
L 96.110666 58.109379 
L 96.806852 58.281482 
L 97.503037 58.188703 
L 98.199223 57.845129 
L 100.28778 56.593317 
L 100.983965 56.502062 
L 101.912213 56.796202 
L 104.232831 58.096285 
L 104.929017 58.138694 
L 105.625202 57.882936 
L 106.55345 57.275738 
L 107.713759 56.482864 
L 108.409945 56.313319 
L 109.10613 56.439319 
L 110.034378 56.952338 
L 111.658811 57.961245 
L 112.354996 58.090941 
L 112.81912 58.022572 
L 113.747368 57.491354 
L 115.603862 56.321204 
L 116.300048 56.252736 
L 116.996234 56.443182 
L 117.924481 56.997135 
L 119.08479 57.721521 
L 119.780976 57.908055 
L 120.477162 57.825096 
L 121.173347 57.485519 
L 123.261904 56.194524 
L 123.95809 56.115908 
L 124.654275 56.312352 
L 125.582523 56.842839 
L 126.974894 57.676573 
L 127.671079 57.792833 
L 128.367265 57.639207 
L 129.295512 57.095605 
L 130.687884 56.173649 
L 131.384069 55.978834 
L 132.080255 56.068603 
L 132.77644 56.42313 
L 134.400873 57.516223 
L 135.097059 57.758504 
L 135.793245 57.681234 
L 136.48943 57.340854 
L 138.810049 55.943607 
L 139.506234 55.954738 
L 140.20242 56.2355 
L 141.594791 57.198043 
L 142.290977 57.567086 
L 142.987162 57.655876 
L 143.683348 57.498258 
L 144.611595 56.94568 
L 146.003966 56.022344 
L 146.700152 55.815149 
L 147.396338 55.899437 
L 148.092523 56.24708 
L 149.949018 57.42278 
L 150.645204 57.552192 
L 151.341389 57.396989 
L 152.269637 56.844251 
L 153.662008 55.891526 
L 154.358194 55.697486 
L 155.054379 55.783739 
L 155.750565 56.119905 
L 157.839121 57.393544 
L 158.535307 57.444082 
L 159.231493 57.204228 
L 160.15974 56.577335 
L 161.320049 55.792076 
L 162.016235 55.576367 
L 162.712421 55.66358 
L 163.408606 56.015903 
L 165.497163 57.303862 
L 166.193348 57.350887 
L 166.889534 57.1119 
L 167.817782 56.483627 
L 168.978091 55.708653 
L 169.674276 55.501747 
L 170.370462 55.58164 
L 171.066648 55.916845 
L 173.155204 57.193518 
L 173.85139 57.24775 
L 174.547576 57.013617 
L 175.707885 56.232699 
L 176.636132 55.629681 
L 177.332318 55.421561 
L 178.028503 55.486069 
L 178.724689 55.817278 
L 180.813246 57.095655 
L 181.509431 57.156101 
L 182.205617 56.935074 
L 183.133864 56.331415 
L 184.294174 55.54956 
L 184.990359 55.33295 
L 185.686545 55.39843 
L 186.382731 55.715281 
L 188.471287 56.988396 
L 189.167473 57.05291 
L 189.863658 56.839039 
L 190.791906 56.243458 
L 191.952215 55.464787 
L 192.648401 55.242203 
L 193.344586 55.298226 
L 194.040772 55.613353 
L 196.129329 56.885053 
L 196.825514 56.958172 
L 197.5217 56.75359 
L 198.449947 56.146638 
L 199.610257 55.371597 
L 200.306442 55.145902 
L 201.002628 55.200659 
L 201.698813 55.510775 
L 203.78737 56.770037 
L 204.483556 56.840843 
L 205.179741 56.635549 
L 206.107989 56.035822 
L 207.268298 55.264752 
L 207.964484 55.041347 
L 208.660669 55.102095 
L 209.356855 55.413339 
L 211.445412 56.653204 
L 212.141597 56.723082 
L 212.837783 56.52291 
L 213.76603 55.944751 
L 214.92634 55.188258 
L 215.622525 54.965525 
L 216.318711 55.016722 
L 217.014896 55.315859 
L 219.335515 56.603251 
L 220.031701 56.589908 
L 220.727886 56.319544 
L 223.280567 54.889932 
L 223.976752 54.926241 
L 224.672938 55.21456 
L 226.993556 56.502599 
L 227.689742 56.500208 
L 228.385928 56.237151 
L 229.778299 55.311482 
L 230.706546 54.857985 
L 231.402732 54.798706 
L 232.098917 55.00255 
L 233.027165 55.560329 
L 234.187474 56.261413 
L 234.88366 56.445984 
L 235.579845 56.361697 
L 236.276031 56.033293 
L 238.364588 54.782961 
L 239.060773 54.71289 
L 239.756959 54.909073 
L 240.685206 55.463714 
L 241.845516 56.169139 
L 242.541701 56.353902 
L 243.237887 56.269374 
L 243.934072 55.943485 
L 246.022629 54.698835 
L 246.718815 54.623403 
L 247.415 54.816572 
L 248.343248 55.368252 
L 249.503557 56.074911 
L 250.199743 56.256929 
L 250.895928 56.182314 
L 251.592114 55.860919 
L 253.680671 54.624706 
L 254.376856 54.553314 
L 255.073042 54.745009 
L 256.001289 55.286301 
L 257.161599 55.980592 
L 257.857784 56.168555 
L 258.55397 56.095696 
L 259.250155 55.780816 
L 261.10665 54.622662 
L 261.802836 54.460093 
L 262.499021 54.558027 
L 263.195207 54.8848 
L 265.283764 56.035883 
L 265.979949 56.042727 
L 266.676135 55.806936 
L 267.836444 55.070117 
L 268.764692 54.537139 
L 269.460877 54.368796 
L 270.157063 54.463662 
L 270.853248 54.785939 
L 272.941805 55.929111 
L 273.637991 55.95658 
L 274.334176 55.730222 
L 275.494486 54.99872 
L 276.422733 54.463104 
L 277.118919 54.289365 
L 277.815104 54.374536 
L 278.51129 54.696488 
L 280.599847 55.849002 
L 281.296032 55.881965 
L 281.992218 55.65269 
L 283.152527 54.931701 
L 284.080775 54.401859 
L 284.77696 54.230665 
L 285.473146 54.313665 
L 286.169331 54.626573 
L 288.257888 55.83372 
L 288.954074 55.879624 
L 289.650259 55.665473 
L 290.810569 54.951403 
L 291.970878 54.32213 
L 292.667063 54.22331 
L 293.363249 54.409306 
L 294.291497 54.935674 
L 295.683868 55.755298 
L 296.380053 55.890831 
L 297.076239 55.754738 
L 298.004486 55.244124 
L 299.396857 54.372954 
L 300.093043 54.182715 
L 300.789229 54.254958 
L 301.485414 54.563794 
L 303.573971 55.759058 
L 304.270157 55.810806 
L 304.966342 55.609472 
L 305.89459 55.053628 
L 307.054899 54.333803 
L 307.751085 54.13264 
L 308.44727 54.199492 
L 309.143456 54.510344 
L 311.232012 55.720708 
L 311.928198 55.78307 
L 312.624384 55.573548 
L 313.552631 55.003771 
L 314.71294 54.284632 
L 315.409126 54.089232 
L 316.105312 54.154264 
L 316.801497 54.464777 
L 318.890054 55.659995 
L 319.58624 55.719907 
L 320.282425 55.5231 
L 321.210673 54.968861 
L 322.370982 54.243699 
L 323.067167 54.035617 
L 323.763353 54.091733 
L 324.459539 54.393468 
L 326.548095 55.585657 
L 327.244281 55.653814 
L 327.940467 55.460645 
L 328.868714 54.914071 
L 330.261085 54.092663 
L 330.957271 53.963081 
L 331.653456 54.104345 
L 332.581704 54.603022 
L 333.974075 55.465138 
L 334.670261 55.629021 
L 335.366446 55.546047 
L 336.062632 55.23003 
L 338.151189 54.043445 
L 338.847374 54.005329 
L 339.54356 54.226218 
L 340.703869 54.93387 
L 341.632116 55.456249 
L 342.328302 55.632948 
L 343.024488 55.556111 
L 343.720673 55.250762 
L 345.80923 54.081406 
L 346.505416 54.020224 
L 347.201601 54.20083 
L 348.129849 54.730375 
L 349.290158 55.406185 
L 349.986343 55.585745 
L 350.682529 55.524445 
L 351.378715 55.231554 
L 353.699333 54.014042 
L 354.395519 54.015426 
L 355.091704 54.253845 
L 357.644385 55.504799 
L 358.340571 55.449779 
L 359.036756 55.165065 
L 361.357375 53.928679 
L 362.05356 53.942242 
L 362.749746 54.1828 
L 365.302426 55.404948 
L 365.998612 55.35469 
L 366.926859 54.945524 
L 368.783354 53.926442 
L 369.47954 53.842295 
L 370.175726 53.988635 
L 371.103973 54.463241 
L 372.03222 55.02883 
L 372.728406 55.288761 
L 373.424592 55.332395 
L 374.352839 55.020396 
L 376.673458 53.806338 
L 377.369643 53.789383 
L 378.297891 54.125062 
L 380.386447 55.225473 
L 381.082633 55.267392 
L 382.01088 54.93417 
L 384.331499 53.728285 
L 385.027685 53.705388 
L 385.72387 53.920185 
L 386.652118 54.424845 
L 387.580365 54.948269 
L 388.508613 55.145754 
L 389.204798 55.035235 
L 390.133046 54.59425 
L 391.757479 53.70741 
L 392.453664 53.600046 
L 393.14985 53.720973 
L 394.078097 54.175675 
L 395.238407 54.858329 
L 396.166654 55.089048 
L 396.86284 54.99923 
L 397.791087 54.543694 
L 398.487273 54.10255 
L 398.487273 54.10255 
" style="fill:none;stroke:#ff0000;stroke-linecap:square;stroke-width:1.5;"/>
   </g>
   <g id="line2d_19">
    <path clip-path="url(#pa3b8d8a92e)" d="M 73.832727 291.858018 
L 74.296851 291.946351 
L 74.760975 292.278593 
L 75.45716 293.11522 
L 76.849531 295.012189 
L 77.313655 295.349134 
L 77.777779 295.454453 
L 78.241903 295.28918 
L 78.938088 294.612874 
L 81.026645 292.045077 
L 81.490769 291.891994 
L 81.954892 291.977386 
L 82.419016 292.320973 
L 83.347264 293.477779 
L 84.507573 294.964502 
L 84.971697 295.303625 
L 85.43582 295.408753 
L 85.899944 295.265298 
L 86.364068 294.89836 
L 87.060253 294.015233 
L 88.220563 292.455331 
L 88.684686 292.058745 
L 89.14881 291.889848 
L 89.612934 291.97279 
L 90.077058 292.293108 
L 90.773243 293.111771 
L 92.165614 294.935047 
L 92.629738 295.280318 
L 93.093862 295.396226 
L 93.557986 295.261962 
L 94.022109 294.903408 
L 94.718295 294.057786 
L 95.878604 292.52208 
L 96.57479 292.001449 
L 97.038914 291.936579 
L 97.503037 292.115608 
L 97.967161 292.517587 
L 98.895408 293.711044 
L 99.823656 294.895288 
L 100.28778 295.250007 
L 100.751903 295.38792 
L 101.216027 295.285562 
L 101.680151 294.987846 
L 102.84046 293.546564 
L 103.768708 292.321306 
L 104.232831 291.960376 
L 104.696955 291.823216 
L 105.161079 291.969773 
L 105.857264 292.606924 
L 107.017574 294.254196 
L 107.713759 295.094139 
L 108.177883 295.37733 
L 108.642007 295.417958 
L 109.10613 295.216649 
L 109.802316 294.510512 
L 111.658811 292.16875 
L 112.122935 291.929469 
L 112.587058 291.935847 
L 113.051182 292.22119 
L 113.747368 293.007631 
L 115.371801 295.082922 
L 115.835924 295.341493 
L 116.300048 295.36178 
L 116.764172 295.145365 
L 117.460357 294.433324 
L 119.316852 292.136068 
L 119.780976 291.92666 
L 120.2451 291.962591 
L 120.709223 292.240697 
L 121.405409 293.01868 
L 123.029842 295.076591 
L 123.493966 295.344231 
L 123.95809 295.373083 
L 124.422213 295.154486 
L 125.118399 294.468291 
L 126.974894 292.13806 
L 127.439017 291.909755 
L 127.903141 291.931376 
L 128.367265 292.190649 
L 129.063451 292.960317 
L 130.687884 295.075249 
L 131.152007 295.373959 
L 131.616131 295.437357 
L 132.080255 295.233325 
L 132.544378 294.7992 
L 133.472626 293.511963 
L 134.400873 292.318432 
L 135.097059 291.853647 
L 135.561183 291.883274 
L 136.025306 292.163531 
L 136.721492 292.95517 
L 138.345925 295.111022 
L 138.810049 295.415421 
L 139.274172 295.463137 
L 139.738296 295.245573 
L 140.434482 294.522279 
L 142.290977 292.104615 
L 142.7551 291.891663 
L 143.219224 291.91526 
L 143.683348 292.182922 
L 144.379533 292.946764 
L 146.003966 295.070439 
L 146.46809 295.378821 
L 146.932214 295.444987 
L 147.396338 295.24317 
L 147.860461 294.81089 
L 148.788709 293.536255 
L 149.716956 292.330566 
L 150.18108 291.969944 
L 150.645204 291.84757 
L 151.109327 291.983604 
L 151.573451 292.356854 
L 152.269637 293.233252 
L 153.662008 295.090336 
L 154.126132 295.399571 
L 154.590255 295.459807 
L 155.054379 295.26753 
L 155.750565 294.568325 
L 157.60706 292.123287 
L 158.071183 291.86368 
L 158.535307 291.853968 
L 158.999431 292.104939 
L 159.695616 292.878317 
L 161.320049 295.08381 
L 161.784173 295.411643 
L 162.248297 295.488 
L 162.712421 295.296204 
L 163.176544 294.86633 
L 164.104792 293.582074 
L 165.033039 292.338334 
L 165.497163 291.957394 
L 165.961287 291.817687 
L 166.42541 291.947452 
L 166.889534 292.314181 
L 167.58572 293.200983 
L 168.978091 295.069309 
L 169.442215 295.395286 
L 169.906338 295.470777 
L 170.370462 295.288294 
L 170.834586 294.872545 
L 171.762833 293.609761 
L 172.691081 292.370905 
L 173.155204 291.983483 
L 173.619328 291.833376 
L 174.083452 291.94379 
L 174.547576 292.302974 
L 175.243761 293.173657 
L 176.636132 295.032242 
L 177.100256 295.362104 
L 177.56438 295.453468 
L 178.028503 295.292088 
L 178.492627 294.890558 
L 179.420875 293.644199 
L 180.349122 292.405697 
L 180.813246 292.014596 
L 181.27737 291.858335 
L 181.741493 291.957486 
L 182.205617 292.299181 
L 182.901803 293.148846 
L 184.294174 295.012698 
L 184.758297 295.350061 
L 185.222421 295.44612 
L 185.686545 295.284883 
L 186.150669 294.897108 
L 187.078916 293.663666 
L 188.007164 292.425402 
L 188.471287 292.027778 
L 188.935411 291.866433 
L 189.399535 291.956609 
L 189.863658 292.288219 
L 190.559844 293.125374 
L 191.952215 294.985964 
L 192.416339 295.332342 
L 192.880463 295.43889 
L 193.344586 295.291123 
L 193.80871 294.90832 
L 194.736958 293.693147 
L 195.665205 292.45327 
L 196.129329 292.049917 
L 196.593452 291.87719 
L 197.057576 291.956831 
L 197.5217 292.277747 
L 198.217886 293.120149 
L 199.610257 294.967503 
L 200.07438 295.315002 
L 200.538504 295.42014 
L 201.002628 295.275005 
L 201.466752 294.898302 
L 202.162937 294.024357 
L 203.323246 292.467052 
L 203.78737 292.069596 
L 204.251494 291.900048 
L 204.715618 291.979577 
L 205.179741 292.295792 
L 205.875927 293.114331 
L 207.036236 294.714699 
L 207.732422 295.301559 
L 208.196546 295.403867 
L 208.660669 295.254342 
L 209.124793 294.877285 
L 210.05304 293.68336 
L 210.981288 292.477136 
L 211.445412 292.083032 
L 211.909535 291.91683 
L 212.373659 291.994799 
L 212.837783 292.309431 
L 213.533968 293.121562 
L 214.92634 294.932246 
L 215.390463 295.275629 
L 215.854587 295.386012 
L 216.318711 295.24956 
L 216.782834 294.888017 
L 217.47902 294.037714 
L 218.639329 292.505889 
L 219.335515 292.000534 
L 219.799639 291.945443 
L 220.263762 292.131529 
L 220.959948 292.800796 
L 222.816443 295.093858 
L 223.280567 295.334079 
L 223.74469 295.334946 
L 224.208814 295.097284 
L 224.905 294.37049 
L 226.529433 292.320997 
L 226.993556 292.019532 
L 227.45768 291.951157 
L 227.921804 292.126649 
L 228.617989 292.781236 
L 230.474484 295.071585 
L 230.938608 295.319415 
L 231.402732 295.328568 
L 231.866856 295.100201 
L 232.563041 294.389319 
L 234.187474 292.341846 
L 234.651598 292.03107 
L 235.115722 291.954015 
L 235.579845 292.119257 
L 236.276031 292.762428 
L 238.364588 295.214538 
L 238.828711 295.358649 
L 239.292835 295.258913 
L 239.756959 294.931636 
L 240.453144 294.120139 
L 241.845516 292.362116 
L 242.309639 292.044167 
L 242.773763 291.95937 
L 243.237887 292.119014 
L 243.702011 292.492699 
L 244.630258 293.665051 
L 245.558505 294.819909 
L 246.022629 295.185402 
L 246.486753 295.33407 
L 246.950877 295.240026 
L 247.415 294.918842 
L 248.111186 294.117116 
L 249.503557 292.37391 
L 249.967681 292.063992 
L 250.431805 291.978399 
L 250.895928 292.130573 
L 251.360052 292.502189 
L 252.288299 293.666345 
L 253.216547 294.815008 
L 253.912732 295.286365 
L 254.376856 295.312326 
L 254.84098 295.100925 
L 255.537166 294.417631 
L 257.39366 292.205865 
L 257.857784 292.004294 
L 258.321908 292.026159 
L 258.786032 292.286145 
L 259.482217 293.03367 
L 260.874588 294.799357 
L 261.570774 295.267134 
L 262.034898 295.300286 
L 262.499021 295.098003 
L 263.195207 294.426559 
L 265.051702 292.217843 
L 265.515826 292.010437 
L 265.979949 292.038865 
L 266.444073 292.292297 
L 267.140259 293.01409 
L 268.764692 294.983234 
L 269.228815 295.253493 
L 269.692939 295.287241 
L 270.157063 295.093958 
L 270.853248 294.438109 
L 272.709743 292.250736 
L 273.173867 292.031146 
L 273.637991 292.043201 
L 274.102114 292.283991 
L 274.7983 292.996142 
L 276.422733 294.963952 
L 276.886857 295.239814 
L 277.350981 295.289428 
L 277.815104 295.106069 
L 278.51129 294.45064 
L 280.367785 292.253916 
L 280.831909 292.030311 
L 281.296032 292.039474 
L 281.760156 292.282974 
L 282.456342 292.994982 
L 284.080775 294.952315 
L 284.544898 295.23336 
L 285.009022 295.283137 
L 285.473146 295.104395 
L 286.169331 294.465147 
L 288.025826 292.235619 
L 288.48995 292.006885 
L 288.954074 292.013373 
L 289.418197 292.254611 
L 290.114383 292.971572 
L 291.738816 294.980723 
L 292.20294 295.284919 
L 292.667063 295.349097 
L 293.131187 295.155641 
L 293.827373 294.51343 
L 295.683868 292.252763 
L 296.147991 292.005738 
L 296.612115 291.994844 
L 297.076239 292.225083 
L 297.772424 292.930436 
L 299.396857 294.946603 
L 299.860981 295.252227 
L 300.325105 295.31896 
L 300.789229 295.158333 
L 301.253352 294.782341 
L 302.1816 293.608856 
L 303.109847 292.468292 
L 303.573971 292.116941 
L 304.038095 291.983421 
L 304.502218 292.082923 
L 304.966342 292.401106 
L 305.662528 293.202379 
L 307.054899 294.942261 
L 307.519023 295.257323 
L 307.983146 295.336699 
L 308.44727 295.178355 
L 308.911394 294.80343 
L 309.839641 293.632415 
L 310.767889 292.472064 
L 311.232012 292.107607 
L 311.696136 291.95964 
L 312.16026 292.060602 
L 312.624384 292.390129 
L 313.320569 293.199451 
L 314.71294 294.939663 
L 315.177064 295.250297 
L 315.641188 295.336203 
L 316.105312 295.184189 
L 316.569435 294.808752 
L 317.497683 293.645588 
L 318.42593 292.4928 
L 319.122116 292.027976 
L 319.58624 291.99769 
L 320.050363 292.203423 
L 320.746549 292.873694 
L 322.603044 295.095227 
L 323.067167 295.309934 
L 323.531291 295.286126 
L 323.995415 295.032122 
L 324.6916 294.295878 
L 326.316034 292.311856 
L 326.780157 292.040508 
L 327.244281 291.999282 
L 327.708405 292.193819 
L 328.40459 292.85358 
L 330.261085 295.072318 
L 330.725209 295.296821 
L 331.189333 295.281554 
L 331.653456 295.032905 
L 332.349642 294.316995 
L 333.974075 292.30459 
L 334.438199 292.027615 
L 334.902322 291.977127 
L 335.366446 292.157645 
L 336.062632 292.809961 
L 337.919127 295.074133 
L 338.38325 295.314731 
L 338.847374 295.319304 
L 339.311498 295.085397 
L 340.007683 294.381724 
L 341.632116 292.393243 
L 342.09624 292.091308 
L 342.560364 292.01067 
L 343.024488 292.161428 
L 343.488611 292.521675 
L 344.416859 293.647874 
L 345.345106 294.763117 
L 345.80923 295.116543 
L 346.273354 295.261468 
L 346.737477 295.177794 
L 347.201601 294.885847 
L 347.897787 294.130969 
L 349.290158 292.468423 
L 349.754282 292.168715 
L 350.218405 292.072406 
L 350.682529 292.20231 
L 351.378715 292.773707 
L 353.467271 295.068862 
L 353.931395 295.224745 
L 354.395519 295.157099 
L 354.859643 294.875841 
L 355.555828 294.145976 
L 356.948199 292.501524 
L 357.412323 292.183294 
L 357.876447 292.083943 
L 358.340571 292.200492 
L 358.804694 292.524047 
L 359.732942 293.593096 
L 360.893251 294.909564 
L 361.357375 295.163698 
L 361.821498 295.201937 
L 362.285622 295.021978 
L 362.981808 294.408937 
L 365.070365 292.216655 
L 365.534488 292.121057 
L 365.998612 292.226042 
L 366.694798 292.768793 
L 369.015416 295.13297 
L 369.47954 295.181791 
L 369.943664 295.024715 
L 370.639849 294.435675 
L 372.728406 292.227563 
L 373.19253 292.106614 
L 373.656653 292.224193 
L 374.120777 292.528546 
L 374.816963 293.266323 
L 376.209334 294.854422 
L 376.673458 295.129438 
L 377.137581 295.195253 
L 377.601705 295.028822 
L 378.065829 294.693035 
L 378.994076 293.611024 
L 379.922324 292.558601 
L 380.386447 292.219197 
L 380.850571 292.096568 
L 381.314695 292.226079 
L 382.01088 292.742347 
L 384.099437 294.985613 
L 384.563561 295.166405 
L 385.027685 295.130965 
L 385.491808 294.883597 
L 386.187994 294.206777 
L 387.812427 292.406974 
L 388.508613 292.137081 
L 388.972736 292.222791 
L 389.43686 292.510397 
L 390.133046 293.212273 
L 391.525417 294.785766 
L 391.989541 295.069752 
L 392.453664 295.160648 
L 392.917788 295.041001 
L 393.613974 294.499019 
L 394.542221 293.3816 
L 395.470469 292.427283 
L 395.934592 292.178535 
L 396.398716 292.134051 
L 396.86284 292.314623 
L 397.559025 292.937463 
L 398.487273 294.07178 
L 398.487273 294.07178 
" style="fill:none;stroke:#008000;stroke-linecap:square;stroke-width:1.5;"/>
   </g>
   <g id="patch_3">
    <path d="M 57.6 307.584 
L 57.6 41.472 
" style="fill:none;stroke:#000000;stroke-linecap:square;stroke-linejoin:miter;stroke-width:0.8;"/>
   </g>
   <g id="patch_4">
    <path d="M 414.72 307.584 
L 414.72 41.472 
" style="fill:none;stroke:#000000;stroke-linecap:square;stroke-linejoin:miter;stroke-width:0.8;"/>
   </g>
   <g id="patch_5">
    <path d="M 57.6 307.584 
L 414.72 307.584 
" style="fill:none;stroke:#000000;stroke-linecap:square;stroke-linejoin:miter;stroke-width:0.8;"/>
   </g>
   <g id="patch_6">
    <path d="M 57.6 41.472 
L 414.72 41.472 
" style="fill:none;stroke:#000000;stroke-linecap:square;stroke-linejoin:miter;stroke-width:0.8;"/>
   </g>
   <g id="legend_1">
    <g id="patch_7">
     <path d="M 351.0075 198.045187 
L 407.72 198.045187 
Q 409.72 198.045187 409.72 196.045187 
L 409.72 153.010812 
Q 409.72 151.010812 407.72 151.010812 
L 351.0075 151.010812 
Q 349.0075 151.010812 349.0075 153.010812 
L 349.0075 196.045187 
Q 349.0075 198.045187 351.0075 198.045187 
z
" style="fill:#ffffff;opacity:0.8;stroke:#cccccc;stroke-linejoin:miter;"/>
    </g>
    <g id="line2d_20">
     <path d="M 353.0075 159.10925 
L 373.0075 159.10925 
" style="fill:none;stroke:#1f77b4;stroke-linecap:square;stroke-width:1.5;"/>
    </g>
    <g id="line2d_21"/>
    <g id="text_17">
     <!-- 0-&gt;1 -->
     <defs>
      <path d="M 4.890625 31.390625 
L 31.203125 31.390625 
L 31.203125 23.390625 
L 4.890625 23.390625 
z
" id="DejaVuSans-45"/>
      <path d="M 10.59375 49.21875 
L 10.59375 58.109375 
L 73.1875 35.40625 
L 73.1875 27.296875 
L 10.59375 4.59375 
L 10.59375 13.484375 
L 60.890625 31.296875 
z
" id="DejaVuSans-62"/>
     </defs>
     <g transform="translate(381.0075 162.60925)scale(0.1 -0.1)">
      <use xlink:href="#DejaVuSans-48"/>
      <use x="63.623047" xlink:href="#DejaVuSans-45"/>
      <use x="99.707031" xlink:href="#DejaVuSans-62"/>
      <use x="183.496094" xlink:href="#DejaVuSans-49"/>
     </g>
    </g>
    <g id="line2d_22">
     <path d="M 353.0075 173.787375 
L 373.0075 173.787375 
" style="fill:none;stroke:#ff0000;stroke-linecap:square;stroke-width:1.5;"/>
    </g>
    <g id="line2d_23"/>
    <g id="text_18">
     <!-- 1-&gt;0 -->
     <g transform="translate(381.0075 177.287375)scale(0.1 -0.1)">
      <use xlink:href="#DejaVuSans-49"/>
      <use x="63.623047" xlink:href="#DejaVuSans-45"/>
      <use x="99.707031" xlink:href="#DejaVuSans-62"/>
      <use x="183.496094" xlink:href="#DejaVuSans-48"/>
     </g>
    </g>
    <g id="line2d_24">
     <path d="M 353.0075 188.4655 
L 373.0075 188.4655 
" style="fill:none;stroke:#008000;stroke-linecap:square;stroke-width:1.5;"/>
    </g>
    <g id="line2d_25"/>
    <g id="text_19">
     <!-- diff -->
     <defs>
      <path d="M 45.40625 46.390625 
L 45.40625 75.984375 
L 54.390625 75.984375 
L 54.390625 0 
L 45.40625 0 
L 45.40625 8.203125 
Q 42.578125 3.328125 38.25 0.953125 
Q 33.9375 -1.421875 27.875 -1.421875 
Q 17.96875 -1.421875 11.734375 6.484375 
Q 5.515625 14.40625 5.515625 27.296875 
Q 5.515625 40.1875 11.734375 48.09375 
Q 17.96875 56 27.875 56 
Q 33.9375 56 38.25 53.625 
Q 42.578125 51.265625 45.40625 46.390625 
z
M 14.796875 27.296875 
Q 14.796875 17.390625 18.875 11.75 
Q 22.953125 6.109375 30.078125 6.109375 
Q 37.203125 6.109375 41.296875 11.75 
Q 45.40625 17.390625 45.40625 27.296875 
Q 45.40625 37.203125 41.296875 42.84375 
Q 37.203125 48.484375 30.078125 48.484375 
Q 22.953125 48.484375 18.875 42.84375 
Q 14.796875 37.203125 14.796875 27.296875 
z
" id="DejaVuSans-100"/>
      <path d="M 9.421875 54.6875 
L 18.40625 54.6875 
L 18.40625 0 
L 9.421875 0 
z
M 9.421875 75.984375 
L 18.40625 75.984375 
L 18.40625 64.59375 
L 9.421875 64.59375 
z
" id="DejaVuSans-105"/>
      <path d="M 37.109375 75.984375 
L 37.109375 68.5 
L 28.515625 68.5 
Q 23.6875 68.5 21.796875 66.546875 
Q 19.921875 64.59375 19.921875 59.515625 
L 19.921875 54.6875 
L 34.71875 54.6875 
L 34.71875 47.703125 
L 19.921875 47.703125 
L 19.921875 0 
L 10.890625 0 
L 10.890625 47.703125 
L 2.296875 47.703125 
L 2.296875 54.6875 
L 10.890625 54.6875 
L 10.890625 58.5 
Q 10.890625 67.625 15.140625 71.796875 
Q 19.390625 75.984375 28.609375 75.984375 
z
" id="DejaVuSans-102"/>
     </defs>
     <g transform="translate(381.0075 191.9655)scale(0.1 -0.1)">
      <use xlink:href="#DejaVuSans-100"/>
      <use x="63.476562" xlink:href="#DejaVuSans-105"/>
      <use x="91.259766" xlink:href="#DejaVuSans-102"/>
      <use x="126.464844" xlink:href="#DejaVuSans-102"/>
     </g>
    </g>
   </g>
  </g>
 </g>
 <defs>
  <clipPath id="pa3b8d8a92e">
   <rect height="266.112" width="357.12" x="57.6" y="41.472"/>
  </clipPath>
 </defs>
</svg>
