<?xml version="1.0" encoding="utf-8" standalone="no"?>
<!DOCTYPE svg PUBLIC "-//W3C//DTD SVG 1.1//EN"
  "http://www.w3.org/Graphics/SVG/1.1/DTD/svg11.dtd">
<!-- Created with matplotlib (https://matplotlib.org/) -->
<svg height="345.6pt" version="1.1" viewBox="0 0 460.8 345.6" width="460.8pt" xmlns="http://www.w3.org/2000/svg" xmlns:xlink="http://www.w3.org/1999/xlink">
 <defs>
  <style type="text/css">
*{stroke-linecap:butt;stroke-linejoin:round;}
  </style>
 </defs>
 <g id="figure_1">
  <g id="patch_1">
   <path d="M 0 345.6 
L 460.8 345.6 
L 460.8 0 
L 0 0 
z
" style="fill:#ffffff;"/>
  </g>
  <g id="axes_1">
   <g id="patch_2">
    <path d="M 57.6 307.584 
L 414.72 307.584 
L 414.72 41.472 
L 57.6 41.472 
z
" style="fill:#ffffff;"/>
   </g>
   <g id="matplotlib.axis_1">
    <g id="xtick_1">
     <g id="line2d_1">
      <defs>
       <path d="M 0 0 
L 0 3.5 
" id="m02e2ba02f6" style="stroke:#000000;stroke-width:0.8;"/>
      </defs>
      <g>
       <use style="stroke:#000000;stroke-width:0.8;" x="73.832727" xlink:href="#m02e2ba02f6" y="307.584"/>
      </g>
     </g>
     <g id="text_1">
      <!-- 0 -->
      <defs>
       <path d="M 31.78125 66.40625 
Q 24.171875 66.40625 20.328125 58.90625 
Q 16.5 51.421875 16.5 36.375 
Q 16.5 21.390625 20.328125 13.890625 
Q 24.171875 6.390625 31.78125 6.390625 
Q 39.453125 6.390625 43.28125 13.890625 
Q 47.125 21.390625 47.125 36.375 
Q 47.125 51.421875 43.28125 58.90625 
Q 39.453125 66.40625 31.78125 66.40625 
z
M 31.78125 74.21875 
Q 44.046875 74.21875 50.515625 64.515625 
Q 56.984375 54.828125 56.984375 36.375 
Q 56.984375 17.96875 50.515625 8.265625 
Q 44.046875 -1.421875 31.78125 -1.421875 
Q 19.53125 -1.421875 13.0625 8.265625 
Q 6.59375 17.96875 6.59375 36.375 
Q 6.59375 54.828125 13.0625 64.515625 
Q 19.53125 74.21875 31.78125 74.21875 
z
" id="DejaVuSans-48"/>
      </defs>
      <g transform="translate(70.651477 322.182437)scale(0.1 -0.1)">
       <use xlink:href="#DejaVuSans-48"/>
      </g>
     </g>
    </g>
    <g id="xtick_2">
     <g id="line2d_2">
      <g>
       <use style="stroke:#000000;stroke-width:0.8;" x="120.2451" xlink:href="#m02e2ba02f6" y="307.584"/>
      </g>
     </g>
     <g id="text_2">
      <!-- 200 -->
      <defs>
       <path d="M 19.1875 8.296875 
L 53.609375 8.296875 
L 53.609375 0 
L 7.328125 0 
L 7.328125 8.296875 
Q 12.9375 14.109375 22.625 23.890625 
Q 32.328125 33.6875 34.8125 36.53125 
Q 39.546875 41.84375 41.421875 45.53125 
Q 43.3125 49.21875 43.3125 52.78125 
Q 43.3125 58.59375 39.234375 62.25 
Q 35.15625 65.921875 28.609375 65.921875 
Q 23.96875 65.921875 18.8125 64.3125 
Q 13.671875 62.703125 7.8125 59.421875 
L 7.8125 69.390625 
Q 13.765625 71.78125 18.9375 73 
Q 24.125 74.21875 28.421875 74.21875 
Q 39.75 74.21875 46.484375 68.546875 
Q 53.21875 62.890625 53.21875 53.421875 
Q 53.21875 48.921875 51.53125 44.890625 
Q 49.859375 40.875 45.40625 35.40625 
Q 44.1875 33.984375 37.640625 27.21875 
Q 31.109375 20.453125 19.1875 8.296875 
z
" id="DejaVuSans-50"/>
      </defs>
      <g transform="translate(110.70135 322.182437)scale(0.1 -0.1)">
       <use xlink:href="#DejaVuSans-50"/>
       <use x="63.623047" xlink:href="#DejaVuSans-48"/>
       <use x="127.246094" xlink:href="#DejaVuSans-48"/>
      </g>
     </g>
    </g>
    <g id="xtick_3">
     <g id="line2d_3">
      <g>
       <use style="stroke:#000000;stroke-width:0.8;" x="166.657472" xlink:href="#m02e2ba02f6" y="307.584"/>
      </g>
     </g>
     <g id="text_3">
      <!-- 400 -->
      <defs>
       <path d="M 37.796875 64.3125 
L 12.890625 25.390625 
L 37.796875 25.390625 
z
M 35.203125 72.90625 
L 47.609375 72.90625 
L 47.609375 25.390625 
L 58.015625 25.390625 
L 58.015625 17.1875 
L 47.609375 17.1875 
L 47.609375 0 
L 37.796875 0 
L 37.796875 17.1875 
L 4.890625 17.1875 
L 4.890625 26.703125 
z
" id="DejaVuSans-52"/>
      </defs>
      <g transform="translate(157.113722 322.182437)scale(0.1 -0.1)">
       <use xlink:href="#DejaVuSans-52"/>
       <use x="63.623047" xlink:href="#DejaVuSans-48"/>
       <use x="127.246094" xlink:href="#DejaVuSans-48"/>
      </g>
     </g>
    </g>
    <g id="xtick_4">
     <g id="line2d_4">
      <g>
       <use style="stroke:#000000;stroke-width:0.8;" x="213.069845" xlink:href="#m02e2ba02f6" y="307.584"/>
      </g>
     </g>
     <g id="text_4">
      <!-- 600 -->
      <defs>
       <path d="M 33.015625 40.375 
Q 26.375 40.375 22.484375 35.828125 
Q 18.609375 31.296875 18.609375 23.390625 
Q 18.609375 15.53125 22.484375 10.953125 
Q 26.375 6.390625 33.015625 6.390625 
Q 39.65625 6.390625 43.53125 10.953125 
Q 47.40625 15.53125 47.40625 23.390625 
Q 47.40625 31.296875 43.53125 35.828125 
Q 39.65625 40.375 33.015625 40.375 
z
M 52.59375 71.296875 
L 52.59375 62.3125 
Q 48.875 64.0625 45.09375 64.984375 
Q 41.3125 65.921875 37.59375 65.921875 
Q 27.828125 65.921875 22.671875 59.328125 
Q 17.53125 52.734375 16.796875 39.40625 
Q 19.671875 43.65625 24.015625 45.921875 
Q 28.375 48.1875 33.59375 48.1875 
Q 44.578125 48.1875 50.953125 41.515625 
Q 57.328125 34.859375 57.328125 23.390625 
Q 57.328125 12.15625 50.6875 5.359375 
Q 44.046875 -1.421875 33.015625 -1.421875 
Q 20.359375 -1.421875 13.671875 8.265625 
Q 6.984375 17.96875 6.984375 36.375 
Q 6.984375 53.65625 15.1875 63.9375 
Q 23.390625 74.21875 37.203125 74.21875 
Q 40.921875 74.21875 44.703125 73.484375 
Q 48.484375 72.75 52.59375 71.296875 
z
" id="DejaVuSans-54"/>
      </defs>
      <g transform="translate(203.526095 322.182437)scale(0.1 -0.1)">
       <use xlink:href="#DejaVuSans-54"/>
       <use x="63.623047" xlink:href="#DejaVuSans-48"/>
       <use x="127.246094" xlink:href="#DejaVuSans-48"/>
      </g>
     </g>
    </g>
    <g id="xtick_5">
     <g id="line2d_5">
      <g>
       <use style="stroke:#000000;stroke-width:0.8;" x="259.482217" xlink:href="#m02e2ba02f6" y="307.584"/>
      </g>
     </g>
     <g id="text_5">
      <!-- 800 -->
      <defs>
       <path d="M 31.78125 34.625 
Q 24.75 34.625 20.71875 30.859375 
Q 16.703125 27.09375 16.703125 20.515625 
Q 16.703125 13.921875 20.71875 10.15625 
Q 24.75 6.390625 31.78125 6.390625 
Q 38.8125 6.390625 42.859375 10.171875 
Q 46.921875 13.96875 46.921875 20.515625 
Q 46.921875 27.09375 42.890625 30.859375 
Q 38.875 34.625 31.78125 34.625 
z
M 21.921875 38.8125 
Q 15.578125 40.375 12.03125 44.71875 
Q 8.5 49.078125 8.5 55.328125 
Q 8.5 64.0625 14.71875 69.140625 
Q 20.953125 74.21875 31.78125 74.21875 
Q 42.671875 74.21875 48.875 69.140625 
Q 55.078125 64.0625 55.078125 55.328125 
Q 55.078125 49.078125 51.53125 44.71875 
Q 48 40.375 41.703125 38.8125 
Q 48.828125 37.15625 52.796875 32.3125 
Q 56.78125 27.484375 56.78125 20.515625 
Q 56.78125 9.90625 50.3125 4.234375 
Q 43.84375 -1.421875 31.78125 -1.421875 
Q 19.734375 -1.421875 13.25 4.234375 
Q 6.78125 9.90625 6.78125 20.515625 
Q 6.78125 27.484375 10.78125 32.3125 
Q 14.796875 37.15625 21.921875 38.8125 
z
M 18.3125 54.390625 
Q 18.3125 48.734375 21.84375 45.5625 
Q 25.390625 42.390625 31.78125 42.390625 
Q 38.140625 42.390625 41.71875 45.5625 
Q 45.3125 48.734375 45.3125 54.390625 
Q 45.3125 60.0625 41.71875 63.234375 
Q 38.140625 66.40625 31.78125 66.40625 
Q 25.390625 66.40625 21.84375 63.234375 
Q 18.3125 60.0625 18.3125 54.390625 
z
" id="DejaVuSans-56"/>
      </defs>
      <g transform="translate(249.938467 322.182437)scale(0.1 -0.1)">
       <use xlink:href="#DejaVuSans-56"/>
       <use x="63.623047" xlink:href="#DejaVuSans-48"/>
       <use x="127.246094" xlink:href="#DejaVuSans-48"/>
      </g>
     </g>
    </g>
    <g id="xtick_6">
     <g id="line2d_6">
      <g>
       <use style="stroke:#000000;stroke-width:0.8;" x="305.89459" xlink:href="#m02e2ba02f6" y="307.584"/>
      </g>
     </g>
     <g id="text_6">
      <!-- 1000 -->
      <defs>
       <path d="M 12.40625 8.296875 
L 28.515625 8.296875 
L 28.515625 63.921875 
L 10.984375 60.40625 
L 10.984375 69.390625 
L 28.421875 72.90625 
L 38.28125 72.90625 
L 38.28125 8.296875 
L 54.390625 8.296875 
L 54.390625 0 
L 12.40625 0 
z
" id="DejaVuSans-49"/>
      </defs>
      <g transform="translate(293.16959 322.182437)scale(0.1 -0.1)">
       <use xlink:href="#DejaVuSans-49"/>
       <use x="63.623047" xlink:href="#DejaVuSans-48"/>
       <use x="127.246094" xlink:href="#DejaVuSans-48"/>
       <use x="190.869141" xlink:href="#DejaVuSans-48"/>
      </g>
     </g>
    </g>
    <g id="xtick_7">
     <g id="line2d_7">
      <g>
       <use style="stroke:#000000;stroke-width:0.8;" x="352.306962" xlink:href="#m02e2ba02f6" y="307.584"/>
      </g>
     </g>
     <g id="text_7">
      <!-- 1200 -->
      <g transform="translate(339.581962 322.182437)scale(0.1 -0.1)">
       <use xlink:href="#DejaVuSans-49"/>
       <use x="63.623047" xlink:href="#DejaVuSans-50"/>
       <use x="127.246094" xlink:href="#DejaVuSans-48"/>
       <use x="190.869141" xlink:href="#DejaVuSans-48"/>
      </g>
     </g>
    </g>
    <g id="xtick_8">
     <g id="line2d_8">
      <g>
       <use style="stroke:#000000;stroke-width:0.8;" x="398.719335" xlink:href="#m02e2ba02f6" y="307.584"/>
      </g>
     </g>
     <g id="text_8">
      <!-- 1400 -->
      <g transform="translate(385.994335 322.182437)scale(0.1 -0.1)">
       <use xlink:href="#DejaVuSans-49"/>
       <use x="63.623047" xlink:href="#DejaVuSans-52"/>
       <use x="127.246094" xlink:href="#DejaVuSans-48"/>
       <use x="190.869141" xlink:href="#DejaVuSans-48"/>
      </g>
     </g>
    </g>
   </g>
   <g id="matplotlib.axis_2">
    <g id="ytick_1">
     <g id="line2d_9">
      <defs>
       <path d="M 0 0 
L -3.5 0 
" id="m5da5a32215" style="stroke:#000000;stroke-width:0.8;"/>
      </defs>
      <g>
       <use style="stroke:#000000;stroke-width:0.8;" x="57.6" xlink:href="#m5da5a32215" y="294.09212"/>
      </g>
     </g>
     <g id="text_9">
      <!-- 0.00 -->
      <defs>
       <path d="M 10.6875 12.40625 
L 21 12.40625 
L 21 0 
L 10.6875 0 
z
" id="DejaVuSans-46"/>
      </defs>
      <g transform="translate(28.334375 297.891339)scale(0.1 -0.1)">
       <use xlink:href="#DejaVuSans-48"/>
       <use x="63.623047" xlink:href="#DejaVuSans-46"/>
       <use x="95.410156" xlink:href="#DejaVuSans-48"/>
       <use x="159.033203" xlink:href="#DejaVuSans-48"/>
      </g>
     </g>
    </g>
    <g id="ytick_2">
     <g id="line2d_10">
      <g>
       <use style="stroke:#000000;stroke-width:0.8;" x="57.6" xlink:href="#m5da5a32215" y="263.362816"/>
      </g>
     </g>
     <g id="text_10">
      <!-- 0.05 -->
      <defs>
       <path d="M 10.796875 72.90625 
L 49.515625 72.90625 
L 49.515625 64.59375 
L 19.828125 64.59375 
L 19.828125 46.734375 
Q 21.96875 47.46875 24.109375 47.828125 
Q 26.265625 48.1875 28.421875 48.1875 
Q 40.625 48.1875 47.75 41.5 
Q 54.890625 34.8125 54.890625 23.390625 
Q 54.890625 11.625 47.5625 5.09375 
Q 40.234375 -1.421875 26.90625 -1.421875 
Q 22.3125 -1.421875 17.546875 -0.640625 
Q 12.796875 0.140625 7.71875 1.703125 
L 7.71875 11.625 
Q 12.109375 9.234375 16.796875 8.0625 
Q 21.484375 6.890625 26.703125 6.890625 
Q 35.15625 6.890625 40.078125 11.328125 
Q 45.015625 15.765625 45.015625 23.390625 
Q 45.015625 31 40.078125 35.4375 
Q 35.15625 39.890625 26.703125 39.890625 
Q 22.75 39.890625 18.8125 39.015625 
Q 14.890625 38.140625 10.796875 36.28125 
z
" id="DejaVuSans-53"/>
      </defs>
      <g transform="translate(28.334375 267.162035)scale(0.1 -0.1)">
       <use xlink:href="#DejaVuSans-48"/>
       <use x="63.623047" xlink:href="#DejaVuSans-46"/>
       <use x="95.410156" xlink:href="#DejaVuSans-48"/>
       <use x="159.033203" xlink:href="#DejaVuSans-53"/>
      </g>
     </g>
    </g>
    <g id="ytick_3">
     <g id="line2d_11">
      <g>
       <use style="stroke:#000000;stroke-width:0.8;" x="57.6" xlink:href="#m5da5a32215" y="232.633512"/>
      </g>
     </g>
     <g id="text_11">
      <!-- 0.10 -->
      <g transform="translate(28.334375 236.432731)scale(0.1 -0.1)">
       <use xlink:href="#DejaVuSans-48"/>
       <use x="63.623047" xlink:href="#DejaVuSans-46"/>
       <use x="95.410156" xlink:href="#DejaVuSans-49"/>
       <use x="159.033203" xlink:href="#DejaVuSans-48"/>
      </g>
     </g>
    </g>
    <g id="ytick_4">
     <g id="line2d_12">
      <g>
       <use style="stroke:#000000;stroke-width:0.8;" x="57.6" xlink:href="#m5da5a32215" y="201.904208"/>
      </g>
     </g>
     <g id="text_12">
      <!-- 0.15 -->
      <g transform="translate(28.334375 205.703427)scale(0.1 -0.1)">
       <use xlink:href="#DejaVuSans-48"/>
       <use x="63.623047" xlink:href="#DejaVuSans-46"/>
       <use x="95.410156" xlink:href="#DejaVuSans-49"/>
       <use x="159.033203" xlink:href="#DejaVuSans-53"/>
      </g>
     </g>
    </g>
    <g id="ytick_5">
     <g id="line2d_13">
      <g>
       <use style="stroke:#000000;stroke-width:0.8;" x="57.6" xlink:href="#m5da5a32215" y="171.174904"/>
      </g>
     </g>
     <g id="text_13">
      <!-- 0.20 -->
      <g transform="translate(28.334375 174.974123)scale(0.1 -0.1)">
       <use xlink:href="#DejaVuSans-48"/>
       <use x="63.623047" xlink:href="#DejaVuSans-46"/>
       <use x="95.410156" xlink:href="#DejaVuSans-50"/>
       <use x="159.033203" xlink:href="#DejaVuSans-48"/>
      </g>
     </g>
    </g>
    <g id="ytick_6">
     <g id="line2d_14">
      <g>
       <use style="stroke:#000000;stroke-width:0.8;" x="57.6" xlink:href="#m5da5a32215" y="140.4456"/>
      </g>
     </g>
     <g id="text_14">
      <!-- 0.25 -->
      <g transform="translate(28.334375 144.244819)scale(0.1 -0.1)">
       <use xlink:href="#DejaVuSans-48"/>
       <use x="63.623047" xlink:href="#DejaVuSans-46"/>
       <use x="95.410156" xlink:href="#DejaVuSans-50"/>
       <use x="159.033203" xlink:href="#DejaVuSans-53"/>
      </g>
     </g>
    </g>
    <g id="ytick_7">
     <g id="line2d_15">
      <g>
       <use style="stroke:#000000;stroke-width:0.8;" x="57.6" xlink:href="#m5da5a32215" y="109.716296"/>
      </g>
     </g>
     <g id="text_15">
      <!-- 0.30 -->
      <defs>
       <path d="M 40.578125 39.3125 
Q 47.65625 37.796875 51.625 33 
Q 55.609375 28.21875 55.609375 21.1875 
Q 55.609375 10.40625 48.1875 4.484375 
Q 40.765625 -1.421875 27.09375 -1.421875 
Q 22.515625 -1.421875 17.65625 -0.515625 
Q 12.796875 0.390625 7.625 2.203125 
L 7.625 11.71875 
Q 11.71875 9.328125 16.59375 8.109375 
Q 21.484375 6.890625 26.8125 6.890625 
Q 36.078125 6.890625 40.9375 10.546875 
Q 45.796875 14.203125 45.796875 21.1875 
Q 45.796875 27.640625 41.28125 31.265625 
Q 36.765625 34.90625 28.71875 34.90625 
L 20.21875 34.90625 
L 20.21875 43.015625 
L 29.109375 43.015625 
Q 36.375 43.015625 40.234375 45.921875 
Q 44.09375 48.828125 44.09375 54.296875 
Q 44.09375 59.90625 40.109375 62.90625 
Q 36.140625 65.921875 28.71875 65.921875 
Q 24.65625 65.921875 20.015625 65.03125 
Q 15.375 64.15625 9.8125 62.3125 
L 9.8125 71.09375 
Q 15.4375 72.65625 20.34375 73.4375 
Q 25.25 74.21875 29.59375 74.21875 
Q 40.828125 74.21875 47.359375 69.109375 
Q 53.90625 64.015625 53.90625 55.328125 
Q 53.90625 49.265625 50.4375 45.09375 
Q 46.96875 40.921875 40.578125 39.3125 
z
" id="DejaVuSans-51"/>
      </defs>
      <g transform="translate(28.334375 113.515515)scale(0.1 -0.1)">
       <use xlink:href="#DejaVuSans-48"/>
       <use x="63.623047" xlink:href="#DejaVuSans-46"/>
       <use x="95.410156" xlink:href="#DejaVuSans-51"/>
       <use x="159.033203" xlink:href="#DejaVuSans-48"/>
      </g>
     </g>
    </g>
    <g id="ytick_8">
     <g id="line2d_16">
      <g>
       <use style="stroke:#000000;stroke-width:0.8;" x="57.6" xlink:href="#m5da5a32215" y="78.986992"/>
      </g>
     </g>
     <g id="text_16">
      <!-- 0.35 -->
      <g transform="translate(28.334375 82.786211)scale(0.1 -0.1)">
       <use xlink:href="#DejaVuSans-48"/>
       <use x="63.623047" xlink:href="#DejaVuSans-46"/>
       <use x="95.410156" xlink:href="#DejaVuSans-51"/>
       <use x="159.033203" xlink:href="#DejaVuSans-53"/>
      </g>
     </g>
    </g>
    <g id="ytick_9">
     <g id="line2d_17">
      <g>
       <use style="stroke:#000000;stroke-width:0.8;" x="57.6" xlink:href="#m5da5a32215" y="48.257688"/>
      </g>
     </g>
     <g id="text_17">
      <!-- 0.40 -->
      <g transform="translate(28.334375 52.056907)scale(0.1 -0.1)">
       <use xlink:href="#DejaVuSans-48"/>
       <use x="63.623047" xlink:href="#DejaVuSans-46"/>
       <use x="95.410156" xlink:href="#DejaVuSans-52"/>
       <use x="159.033203" xlink:href="#DejaVuSans-48"/>
      </g>
     </g>
    </g>
   </g>
   <g id="line2d_18">
    <path clip-path="url(#p5687b036cb)" d="M 73.832727 59.489856 
L 75.921284 58.449977 
L 76.61747 58.407249 
L 77.313655 58.581263 
L 78.473965 59.171339 
L 79.634274 59.671403 
L 80.330459 59.732643 
L 81.026645 59.573752 
L 82.186954 58.985179 
L 83.347264 58.439685 
L 84.043449 58.329805 
L 84.739635 58.426421 
L 85.667882 58.80648 
L 87.060253 59.433367 
L 87.756439 59.543224 
L 88.452625 59.450985 
L 89.380872 59.065329 
L 91.005305 58.282103 
L 91.701491 58.163772 
L 92.397676 58.248692 
L 93.325924 58.61443 
L 94.950357 59.31148 
L 95.646542 59.377568 
L 96.342728 59.238976 
L 97.270975 58.818572 
L 98.663347 58.145791 
L 99.359532 58.015687 
L 100.055718 58.089953 
L 100.983965 58.445805 
L 102.608398 59.147662 
L 103.304584 59.219393 
L 104.000769 59.088067 
L 104.929017 58.672184 
L 106.321388 58.006707 
L 107.017574 57.875928 
L 107.713759 57.945332 
L 108.642007 58.292245 
L 110.26644 58.978635 
L 110.962625 59.050366 
L 111.658811 58.925674 
L 112.587058 58.523935 
L 113.979429 57.864147 
L 114.675615 57.727427 
L 115.371801 57.789885 
L 116.300048 58.131444 
L 117.924481 58.829117 
L 118.620667 58.911679 
L 119.316852 58.795925 
L 120.2451 58.399134 
L 121.869533 57.663783 
L 122.565718 57.584668 
L 123.261904 57.7032 
L 124.422213 58.202787 
L 125.582523 58.675728 
L 126.278708 58.758251 
L 126.974894 58.637918 
L 127.903141 58.229567 
L 129.295512 57.554857 
L 129.991698 57.416099 
L 130.687884 57.479051 
L 131.616131 57.829597 
L 133.240564 58.551042 
L 133.93675 58.641531 
L 134.632935 58.525562 
L 135.561183 58.118416 
L 136.953554 57.460867 
L 137.649739 57.304421 
L 138.345925 57.348484 
L 139.274172 57.673687 
L 141.130667 58.455395 
L 141.826853 58.501749 
L 142.523039 58.354321 
L 143.683348 57.81169 
L 144.843657 57.309512 
L 145.539843 57.200752 
L 146.236028 57.287371 
L 147.164276 57.633414 
L 148.788709 58.268657 
L 149.484894 58.317759 
L 150.413142 58.096314 
L 152.965822 57.112027 
L 153.662008 57.144117 
L 154.590255 57.437914 
L 156.44675 58.144904 
L 157.142936 58.174707 
L 158.071183 57.942136 
L 160.623864 56.942713 
L 161.320049 56.975668 
L 162.248297 57.272861 
L 164.104792 57.988443 
L 164.800977 58.029851 
L 165.497163 57.891505 
L 166.889534 57.290095 
L 167.817782 56.953226 
L 168.513967 56.868812 
L 169.442215 57.029335 
L 171.994895 57.909315 
L 172.691081 57.882665 
L 173.619328 57.601839 
L 175.707885 56.786602 
L 176.40407 56.753189 
L 177.332318 56.963092 
L 179.652937 57.731642 
L 180.349122 57.712391 
L 181.27737 57.441765 
L 183.365926 56.636737 
L 184.062112 56.597566 
L 184.990359 56.791405 
L 187.078916 57.555038 
L 187.775102 57.600945 
L 188.703349 57.4077 
L 191.488091 56.459749 
L 192.184277 56.526036 
L 193.112525 56.834843 
L 194.736958 57.430098 
L 195.665205 57.467932 
L 196.593452 57.217779 
L 198.914071 56.367971 
L 199.610257 56.376032 
L 200.538504 56.627984 
L 202.627061 57.341985 
L 203.323246 57.337532 
L 204.251494 57.076656 
L 206.572113 56.199384 
L 207.50036 56.239381 
L 208.428607 56.545583 
L 210.05304 57.127437 
L 210.749226 57.177702 
L 211.677474 56.997492 
L 214.462216 56.051796 
L 215.390463 56.176444 
L 216.782834 56.71931 
L 217.711082 57.014864 
L 218.639329 57.052091 
L 219.567577 56.807887 
L 221.888195 55.957349 
L 222.584381 55.954368 
L 223.512629 56.194685 
L 225.601185 56.936925 
L 226.297371 56.961862 
L 227.225618 56.737495 
L 229.778299 55.837123 
L 230.706546 55.917487 
L 231.866856 56.330136 
L 233.027165 56.727313 
L 233.955412 56.78107 
L 234.88366 56.5502 
L 237.204278 55.683198 
L 237.900464 55.665947 
L 238.828711 55.892425 
L 241.14933 56.655208 
L 241.845516 56.614773 
L 242.773763 56.322416 
L 244.630258 55.575997 
L 245.326444 55.504759 
L 246.254691 55.661911 
L 249.039433 56.50312 
L 249.967681 56.405478 
L 251.360052 55.812374 
L 252.520361 55.421439 
L 253.216547 55.383501 
L 254.144794 55.594543 
L 256.697475 56.432193 
L 257.39366 56.351006 
L 258.321908 56.013426 
L 260.178403 55.243836 
L 260.874588 55.200691 
L 261.802836 55.415982 
L 264.123454 56.223541 
L 264.81964 56.213303 
L 265.747887 55.940894 
L 267.836444 55.113362 
L 268.53263 55.068083 
L 269.460877 55.272473 
L 271.781496 56.090119 
L 272.477681 56.08068 
L 273.405929 55.815061 
L 275.494486 54.994194 
L 276.190671 54.942557 
L 277.118919 55.127032 
L 279.671599 55.916884 
L 280.367785 55.847182 
L 281.296032 55.528362 
L 282.920465 54.857953 
L 283.848713 54.759785 
L 284.77696 54.955791 
L 287.329641 55.771122 
L 288.025826 55.711512 
L 288.954074 55.404295 
L 290.810569 54.70242 
L 291.738816 54.668752 
L 292.667063 54.907027 
L 294.75562 55.613507 
L 295.451806 55.620099 
L 296.380053 55.364261 
L 298.700672 54.505669 
L 299.396857 54.51468 
L 300.325105 54.781144 
L 302.413662 55.509012 
L 303.109847 55.504834 
L 304.038095 55.248108 
L 306.126652 54.437529 
L 306.822837 54.394782 
L 307.751085 54.599221 
L 310.535827 55.543769 
L 311.232012 55.488825 
L 312.16026 55.182821 
L 314.016755 54.466104 
L 314.71294 54.415247 
L 315.641188 54.616098 
L 318.193868 55.484721 
L 318.890054 55.442223 
L 319.818301 55.145928 
L 321.674796 54.402732 
L 322.370982 54.330543 
L 323.067167 54.431447 
L 323.995415 54.84824 
L 325.155724 55.419388 
L 325.85191 55.532726 
L 326.548095 55.438989 
L 327.476343 55.08827 
L 329.100776 54.416498 
L 329.796961 54.328795 
L 330.725209 54.479833 
L 333.509951 55.327144 
L 334.438199 55.179963 
L 335.83057 54.613824 
L 336.990879 54.25845 
L 337.687065 54.2342 
L 338.615312 54.449166 
L 340.935931 55.213771 
L 341.632116 55.190034 
L 342.560364 54.921522 
L 344.648921 54.147356 
L 345.345106 54.119379 
L 346.273354 54.330491 
L 348.593972 55.122798 
L 349.290158 55.111137 
L 350.218405 54.849914 
L 352.306962 54.050946 
L 353.003148 54.009901 
L 353.931395 54.21183 
L 356.252014 55.000435 
L 356.948199 54.992515 
L 357.876447 54.741355 
L 359.965004 53.974892 
L 360.893251 53.961653 
L 361.821498 54.20914 
L 363.910055 54.91173 
L 364.606241 54.911776 
L 365.534488 54.674363 
L 367.855107 53.872227 
L 368.783354 53.920705 
L 369.943664 54.309436 
L 371.336035 54.787901 
L 372.264282 54.831214 
L 373.19253 54.602047 
L 375.513148 53.81111 
L 376.441396 53.856733 
L 377.601705 54.236178 
L 378.994076 54.706471 
L 379.922324 54.750634 
L 380.850571 54.525509 
L 383.17119 53.735601 
L 384.099437 53.775167 
L 385.259747 54.150594 
L 386.652118 54.621391 
L 387.580365 54.666565 
L 388.508613 54.441355 
L 390.829231 53.648323 
L 391.757479 53.690373 
L 392.917788 54.066384 
L 394.310159 54.542585 
L 395.238407 54.591529 
L 396.166654 54.365617 
L 398.487273 53.568 
L 398.487273 53.568 
" style="fill:none;stroke:#1f77b4;stroke-linecap:square;stroke-width:1.5;"/>
   </g>
   <g id="line2d_19">
    <path clip-path="url(#p5687b036cb)" d="M 73.832727 58.826558 
L 76.153346 59.808141 
L 77.081593 59.66777 
L 78.009841 59.231647 
L 79.402212 58.501476 
L 80.098398 58.345325 
L 80.562521 58.347118 
L 83.811387 59.636844 
L 84.507573 59.576401 
L 85.43582 59.211293 
L 87.292315 58.306071 
L 88.220563 58.303311 
L 88.916748 58.461944 
L 91.469429 59.430255 
L 92.165614 59.400386 
L 93.093862 59.054464 
L 95.182419 58.135448 
L 95.878604 58.114536 
L 96.57479 58.268555 
L 97.735099 58.81139 
L 98.663347 59.205761 
L 99.359532 59.301994 
L 100.055718 59.197889 
L 100.983965 58.808484 
L 102.608398 58.038888 
L 103.304584 57.930213 
L 104.000769 58.046528 
L 104.929017 58.431769 
L 106.321388 59.045374 
L 107.017574 59.145244 
L 107.713759 59.034425 
L 108.642007 58.649135 
L 110.26644 57.89744 
L 110.962625 57.811049 
L 111.890873 57.982775 
L 113.283244 58.586287 
L 114.211491 58.9255 
L 114.907677 58.973555 
L 115.603862 58.8193 
L 116.764172 58.280677 
L 117.924481 57.769621 
L 118.620667 57.661098 
L 119.316852 57.750648 
L 120.2451 58.1019 
L 121.869533 58.786238 
L 122.79778 58.809369 
L 123.726028 58.502005 
L 125.814584 57.544782 
L 126.51077 57.48109 
L 127.439017 57.731413 
L 129.759636 58.679421 
L 130.455822 58.663262 
L 131.152007 58.454222 
L 133.704688 57.376627 
L 134.400873 57.384138 
L 135.793245 57.918465 
L 136.953554 58.42811 
L 137.881801 58.553434 
L 138.577987 58.432825 
L 139.970358 57.80185 
L 141.130667 57.322453 
L 141.826853 57.260353 
L 142.523039 57.393157 
L 143.451286 57.787416 
L 144.611595 58.286444 
L 145.307781 58.420556 
L 146.003966 58.338674 
L 146.932214 58.014681 
L 148.788709 57.209617 
L 149.484894 57.134275 
L 150.413142 57.341893 
L 152.965822 58.281493 
L 153.662008 58.221921 
L 154.590255 57.875217 
L 156.214688 57.141658 
L 156.910874 57.024478 
L 157.60706 57.08878 
L 158.535307 57.410608 
L 160.15974 58.037394 
L 160.855926 58.099733 
L 161.552111 57.97867 
L 162.480359 57.600774 
L 163.87273 57.004684 
L 164.568915 56.905615 
L 165.265101 56.962123 
L 168.513967 57.973828 
L 169.442215 57.807318 
L 172.226957 56.814934 
L 173.155204 56.932744 
L 174.547576 57.478374 
L 175.707885 57.81058 
L 176.40407 57.815305 
L 177.332318 57.558793 
L 179.652937 56.689156 
L 180.581184 56.709223 
L 181.509431 57.001464 
L 183.133864 57.600243 
L 184.062112 57.663747 
L 184.990359 57.437785 
L 187.310978 56.570311 
L 188.007164 56.542887 
L 188.935411 56.767148 
L 191.25603 57.535508 
L 191.952215 57.506368 
L 192.880463 57.221014 
L 194.736958 56.479165 
L 195.665205 56.414575 
L 196.593452 56.65066 
L 198.914071 57.420817 
L 199.842319 57.338715 
L 201.002628 56.908792 
L 202.394999 56.353113 
L 203.091185 56.254869 
L 203.78737 56.349142 
L 206.804174 57.287249 
L 207.50036 57.187237 
L 208.892731 56.601877 
L 210.285102 56.131434 
L 210.981288 56.114721 
L 211.909535 56.342694 
L 214.230154 57.13359 
L 214.92634 57.090347 
L 215.854587 56.815198 
L 217.943144 56.034586 
L 218.639329 56.012884 
L 219.567577 56.236322 
L 221.888195 56.988546 
L 222.584381 56.981679 
L 223.512629 56.730685 
L 225.833247 55.908385 
L 226.761495 55.951226 
L 227.689742 56.262018 
L 229.314175 56.85252 
L 230.010361 56.89947 
L 230.938608 56.689969 
L 232.330979 56.075484 
L 233.259227 55.785148 
L 233.955412 55.731921 
L 234.88366 55.936289 
L 237.43634 56.724609 
L 238.132526 56.664924 
L 239.060773 56.353472 
L 240.917268 55.620498 
L 241.613454 55.577385 
L 242.309639 55.707604 
L 243.702011 56.244093 
L 244.630258 56.535156 
L 245.558505 56.566278 
L 246.486753 56.310042 
L 248.807371 55.449302 
L 249.503557 55.458563 
L 250.431805 55.718083 
L 252.288299 56.406773 
L 253.448609 56.417601 
L 254.144794 56.228985 
L 256.465413 55.345852 
L 257.161599 55.324803 
L 258.089846 55.554132 
L 260.410465 56.323123 
L 261.10665 56.264239 
L 262.034898 55.951925 
L 263.891393 55.202298 
L 264.81964 55.138071 
L 265.515826 55.296526 
L 268.068506 56.17098 
L 268.764692 56.140328 
L 269.692939 55.831762 
L 271.781496 55.023852 
L 272.477681 55.008725 
L 273.405929 55.249515 
L 275.030362 55.878206 
L 275.958609 56.0151 
L 276.886857 55.86483 
L 279.671599 54.845798 
L 280.367785 54.881928 
L 281.296032 55.160497 
L 283.152527 55.809784 
L 283.848713 55.830614 
L 284.77696 55.595822 
L 287.097579 54.738692 
L 288.025826 54.742378 
L 288.954074 55.044024 
L 290.810569 55.65353 
L 291.738816 55.660743 
L 292.667063 55.384442 
L 294.75562 54.605286 
L 295.451806 54.571899 
L 296.380053 54.791436 
L 298.932734 55.591765 
L 299.628919 55.512459 
L 300.789229 55.071768 
L 301.949538 54.567199 
L 302.877785 54.427444 
L 303.806033 54.605257 
L 305.198404 55.174187 
L 306.126652 55.449276 
L 306.822837 55.471171 
L 307.751085 55.240424 
L 307.983146 55.14717 
L 308.215208 55.181555 
L 309.143456 54.736882 
L 309.375518 54.792654 
L 310.071703 54.546928 
L 310.999951 54.472704 
L 311.928198 54.695328 
L 313.784693 55.401845 
L 314.480879 55.502487 
L 315.177064 55.415863 
L 316.105312 55.104953 
L 317.961806 54.432476 
L 318.657992 54.430268 
L 319.58624 54.63661 
L 322.13892 55.423285 
L 322.835106 55.36476 
L 323.763353 55.0472 
L 325.155724 54.492167 
L 326.083972 54.393132 
L 327.012219 54.606952 
L 329.332838 55.434194 
L 330.029023 55.365768 
L 330.957271 55.141954 
L 333.277889 54.283368 
L 334.206137 54.320518 
L 335.366446 54.731195 
L 336.758817 55.216438 
L 337.687065 55.265066 
L 338.38325 55.110729 
L 341.167993 54.172695 
L 341.864178 54.229503 
L 342.792426 54.51771 
L 344.416859 55.101789 
L 345.345106 55.157873 
L 346.273354 54.930763 
L 348.826034 54.067686 
L 349.52222 54.116326 
L 350.450467 54.403106 
L 352.306962 55.047489 
L 353.23521 55.099921 
L 353.699333 54.873542 
L 354.163457 54.753242 
L 355.555828 54.150064 
L 356.484076 53.9705 
L 357.412323 54.066464 
L 358.572632 54.486714 
L 359.732942 54.889936 
L 360.661189 54.958783 
L 361.589437 54.753884 
L 364.142117 53.902078 
L 365.070365 53.98723 
L 366.230674 54.403104 
L 367.390983 54.810141 
L 368.319231 54.883039 
L 369.247478 54.674295 
L 371.800159 53.829504 
L 372.728406 53.915781 
L 373.888715 54.323895 
L 375.281086 54.770141 
L 376.209334 54.776822 
L 377.137581 54.520855 
L 379.226138 53.790846 
L 380.154386 53.798058 
L 381.082633 54.058798 
L 382.939128 54.686905 
L 383.867375 54.698877 
L 384.795623 54.441692 
L 386.88418 53.702779 
L 387.580365 53.681228 
L 388.508613 53.887958 
L 390.829231 54.632588 
L 391.757479 54.573108 
L 392.917788 54.174612 
L 394.310159 53.671009 
L 395.238407 53.600346 
L 396.166654 53.802001 
L 398.487273 54.547231 
L 398.487273 54.547231 
" style="fill:none;stroke:#ff0000;stroke-linecap:square;stroke-width:1.5;"/>
   </g>
   <g id="line2d_20">
    <path clip-path="url(#p5687b036cb)" d="M 73.832727 294.755417 
L 75.921284 292.755387 
L 76.385408 292.689492 
L 76.849531 292.806264 
L 77.313655 293.089851 
L 78.241903 294.0387 
L 79.402212 295.194704 
L 79.866336 295.435468 
L 80.330459 295.488 
L 80.562521 295.448232 
L 81.490769 294.728107 
L 83.347264 292.971696 
L 83.811387 292.79859 
L 84.275511 292.811301 
L 84.739635 293.013229 
L 85.43582 293.574689 
L 87.060253 295.141216 
L 87.524377 295.341651 
L 87.988501 295.358027 
L 88.684686 295.089753 
L 89.380872 294.491603 
L 90.773243 293.176572 
L 91.469429 292.843016 
L 91.933553 292.817504 
L 92.397676 293.004032 
L 93.093862 293.54223 
L 94.950357 295.2071 
L 95.41448 295.365972 
L 95.878604 295.330895 
L 96.342728 295.131978 
L 97.038914 294.569915 
L 98.663347 293.032151 
L 99.12747 292.836013 
L 99.591594 292.823653 
L 100.055718 292.984185 
L 100.751903 293.504358 
L 102.608398 295.200894 
L 103.304584 295.381301 
L 103.768708 295.258917 
L 104.464893 294.784988 
L 106.55345 292.930729 
L 107.017574 292.822805 
L 107.481697 292.902296 
L 108.177883 293.315235 
L 109.338192 294.447187 
L 110.034378 295.036301 
L 110.730563 295.326628 
L 111.194687 295.294934 
L 111.658811 295.109457 
L 112.354996 294.576936 
L 113.979429 293.087055 
L 114.675615 292.840148 
L 115.139739 292.896907 
L 115.835924 293.293472 
L 116.996234 294.404467 
L 117.924481 295.151617 
L 118.388605 295.322074 
L 118.852729 295.316296 
L 119.316852 295.137398 
L 120.013038 294.610295 
L 121.869533 292.969666 
L 122.565718 292.838447 
L 123.029842 292.98265 
L 123.726028 293.46356 
L 125.582523 295.170443 
L 126.278708 295.374387 
L 126.742832 295.275376 
L 127.439017 294.820359 
L 129.527574 292.940463 
L 129.991698 292.810718 
L 130.455822 292.864526 
L 130.919945 293.091803 
L 131.616131 293.686923 
L 133.008502 295.021918 
L 133.704688 295.349102 
L 134.400873 295.295842 
L 135.329121 294.636758 
L 137.185616 292.993568 
L 137.649739 292.842849 
L 138.113863 292.865601 
L 138.577987 293.064392 
L 139.274172 293.6356 
L 140.898605 295.103191 
L 141.362729 295.300893 
L 141.826853 295.333516 
L 142.290977 295.188853 
L 142.987162 294.689236 
L 144.843657 293.049465 
L 145.307781 292.886321 
L 145.771905 292.921124 
L 146.46809 293.246497 
L 147.164276 293.826599 
L 148.324585 294.879541 
L 149.020771 295.229256 
L 149.484894 295.275604 
L 150.18108 295.001049 
L 150.877266 294.454658 
L 152.501699 293.078386 
L 152.965822 292.922654 
L 153.429946 292.943053 
L 153.89407 293.13339 
L 154.590255 293.654818 
L 155.982627 294.89701 
L 156.678812 295.227579 
L 157.142936 295.241842 
L 157.60706 295.096462 
L 158.303245 294.623 
L 160.15974 293.078528 
L 160.623864 292.935993 
L 161.087988 292.955805 
L 161.784173 293.28332 
L 162.712421 294.084331 
L 163.640668 294.877327 
L 164.336854 295.211686 
L 165.033039 295.170273 
L 165.497163 294.94091 
L 166.193348 294.415967 
L 167.58572 293.252965 
L 168.281905 292.997405 
L 168.746029 293.024957 
L 169.442215 293.314137 
L 170.602524 294.296929 
L 171.530771 294.989491 
L 172.226957 295.197595 
L 172.923143 295.044339 
L 173.619328 294.604686 
L 175.243761 293.281792 
L 175.939947 293.012491 
L 176.40407 293.030004 
L 177.100256 293.33688 
L 178.028503 294.079892 
L 178.956751 294.821768 
L 179.652937 295.134606 
L 180.349122 295.129917 
L 181.045308 294.788539 
L 182.205617 293.840521 
L 183.133864 293.178528 
L 183.83005 293.007766 
L 184.526236 293.173023 
L 185.222421 293.635489 
L 187.078916 295.034429 
L 187.775102 295.163877 
L 188.471287 294.9479 
L 189.167473 294.463481 
L 190.791906 293.194087 
L 191.488091 293.007203 
L 191.952215 293.070718 
L 192.648401 293.435581 
L 194.969019 295.123239 
L 195.433143 295.175402 
L 195.897267 295.071961 
L 196.593452 294.659239 
L 198.682009 293.105531 
L 199.146133 293.015332 
L 199.610257 293.080359 
L 200.306442 293.439712 
L 202.859123 295.193033 
L 203.323246 295.159859 
L 204.019432 294.830261 
L 204.94768 294.079229 
L 206.107989 293.173426 
L 206.804174 292.986892 
L 207.268298 293.058215 
L 207.732422 293.282255 
L 208.660669 294.026406 
L 209.820979 294.922578 
L 210.517164 295.165679 
L 210.981288 295.134159 
L 211.677474 294.822447 
L 212.605721 294.073014 
L 213.533968 293.330453 
L 214.230154 293.026821 
L 214.694278 293.016344 
L 215.390463 293.287923 
L 216.318711 294.006929 
L 217.47902 294.915655 
L 218.175206 295.158467 
L 218.871391 295.055837 
L 219.567577 294.663685 
L 221.656134 293.138504 
L 222.120257 293.021636 
L 222.584381 293.06481 
L 223.280567 293.391842 
L 224.208814 294.140292 
L 225.137062 294.865845 
L 225.833247 295.148246 
L 226.529433 295.108889 
L 227.225618 294.751294 
L 229.314175 293.145407 
L 230.010361 293.022085 
L 230.706546 293.242863 
L 231.634794 293.916258 
L 232.795103 294.859788 
L 233.491289 295.138266 
L 234.187474 295.0843 
L 234.88366 294.706031 
L 237.204278 293.064249 
L 237.900464 293.056209 
L 238.59665 293.366044 
L 239.756959 294.33431 
L 240.685206 295.003377 
L 241.381392 295.179036 
L 241.845516 295.108863 
L 242.541701 294.729678 
L 244.86232 293.05385 
L 245.326444 293.007626 
L 246.022629 293.219414 
L 246.718815 293.708099 
L 248.343248 294.975744 
L 249.039433 295.163502 
L 249.735619 295.03229 
L 250.199743 294.782254 
L 252.520361 293.086282 
L 252.984485 293.00835 
L 253.680671 293.172754 
L 254.376856 293.64091 
L 256.233351 295.090434 
L 256.929537 295.212387 
L 257.625722 294.966214 
L 258.321908 294.4635 
L 259.714279 293.257994 
L 260.410465 292.97625 
L 260.874588 292.992398 
L 261.570774 293.302407 
L 262.499021 294.046563 
L 263.659331 294.958935 
L 264.355516 295.195178 
L 264.81964 295.167352 
L 265.283764 294.983159 
L 266.212011 294.251664 
L 267.37232 293.287496 
L 268.068506 292.999795 
L 268.53263 292.987119 
L 269.228815 293.274641 
L 270.157063 294.018414 
L 271.317372 294.957916 
L 272.013558 295.200187 
L 272.477681 295.164075 
L 273.173867 294.828088 
L 274.334176 293.860929 
L 275.262424 293.211189 
L 275.958609 293.016724 
L 276.654795 293.165517 
L 277.350981 293.61753 
L 279.207475 295.04433 
L 279.903661 295.166052 
L 280.599847 294.950334 
L 281.296032 294.459985 
L 282.920465 293.184695 
L 283.616651 293.00365 
L 284.080775 293.076832 
L 284.77696 293.452089 
L 287.097579 295.106907 
L 287.793764 295.125036 
L 288.257888 294.958523 
L 289.186136 294.264649 
L 290.346445 293.365729 
L 291.04263 293.078654 
L 291.506754 293.049939 
L 292.20294 293.304103 
L 293.131187 293.992257 
L 294.291497 294.891977 
L 294.987682 295.158678 
L 295.451806 295.140321 
L 296.147991 294.827596 
L 297.308301 293.88512 
L 298.004486 293.32818 
L 298.700672 293.014357 
L 299.396857 293.04886 
L 300.093043 293.430333 
L 302.413662 295.140286 
L 302.877785 295.190988 
L 303.573971 294.961368 
L 304.270157 294.473289 
L 305.662528 293.310495 
L 306.358713 293.020391 
L 306.822837 293.015731 
L 307.519023 293.293915 
L 308.911394 294.337369 
L 309.143456 294.541057 
L 309.375518 294.576428 
L 310.071703 295.030142 
L 310.767889 295.180645 
L 311.464074 294.973997 
L 312.16026 294.478405 
L 313.784693 293.210682 
L 314.248817 293.023363 
L 314.945002 293.065628 
L 315.641188 293.420397 
L 317.961806 295.120757 
L 318.42593 295.177651 
L 319.122116 294.966939 
L 319.818301 294.524904 
L 321.442734 293.237632 
L 322.13892 293.003742 
L 322.603044 293.033675 
L 323.067167 293.21659 
L 323.763353 293.775583 
L 325.155724 295.019342 
L 325.619848 295.20946 
L 326.083972 295.220396 
L 326.548095 295.061744 
L 327.244281 294.588636 
L 329.100776 293.112674 
L 329.5649 292.982146 
L 330.029023 293.066496 
L 330.725209 293.355524 
L 331.421395 293.903846 
L 332.581704 294.835009 
L 333.277889 295.125613 
L 333.974075 295.10211 
L 334.670261 294.736761 
L 336.990879 293.094773 
L 337.687065 293.061255 
L 338.151189 293.216538 
L 338.847374 293.697519 
L 340.239745 294.817165 
L 340.935931 295.115037 
L 341.632116 295.092834 
L 342.328302 294.751677 
L 344.880983 293.047645 
L 345.345106 293.053626 
L 346.041292 293.34105 
L 346.969539 294.052751 
L 348.129849 294.938026 
L 348.826034 295.162567 
L 349.290158 295.123417 
L 349.986343 294.792882 
L 351.146653 293.840921 
L 352.0749 293.190807 
L 352.771086 293.022384 
L 353.23521 293.027096 
L 353.699333 293.358135 
L 354.163457 293.635699 
L 355.555828 294.790242 
L 356.252014 295.104294 
L 356.948199 295.102113 
L 357.644385 294.785518 
L 358.804694 293.854098 
L 359.732942 293.217664 
L 360.429127 293.057722 
L 361.125313 293.203225 
L 361.821498 293.634617 
L 363.677993 295.000644 
L 364.374179 295.126154 
L 365.070365 294.926615 
L 365.76655 294.465139 
L 367.390983 293.238474 
L 368.087169 293.057306 
L 368.783354 293.2019 
L 369.47954 293.625806 
L 371.336035 294.98311 
L 372.03222 295.113332 
L 372.728406 294.922597 
L 373.424592 294.468372 
L 375.049025 293.261644 
L 375.74521 293.078994 
L 376.441396 293.214543 
L 377.137581 293.628705 
L 378.994076 294.965349 
L 379.690262 295.100492 
L 380.386447 294.916379 
L 381.082633 294.471496 
L 382.707066 293.274806 
L 383.403252 293.081937 
L 383.867375 293.131298 
L 384.563561 293.46139 
L 386.88418 295.048433 
L 387.580365 295.077457 
L 388.276551 294.796236 
L 389.204798 294.100166 
L 390.365108 293.270161 
L 391.061293 293.079168 
L 391.757479 293.209385 
L 392.453664 293.617528 
L 394.310159 294.963696 
L 395.006345 295.107112 
L 395.70253 294.929562 
L 396.398716 294.486131 
L 398.023149 293.280445 
L 398.487273 293.112889 
L 398.487273 293.112889 
" style="fill:none;stroke:#008000;stroke-linecap:square;stroke-width:1.5;"/>
   </g>
   <g id="patch_3">
    <path d="M 57.6 307.584 
L 57.6 41.472 
" style="fill:none;stroke:#000000;stroke-linecap:square;stroke-linejoin:miter;stroke-width:0.8;"/>
   </g>
   <g id="patch_4">
    <path d="M 414.72 307.584 
L 414.72 41.472 
" style="fill:none;stroke:#000000;stroke-linecap:square;stroke-linejoin:miter;stroke-width:0.8;"/>
   </g>
   <g id="patch_5">
    <path d="M 57.6 307.584 
L 414.72 307.584 
" style="fill:none;stroke:#000000;stroke-linecap:square;stroke-linejoin:miter;stroke-width:0.8;"/>
   </g>
   <g id="patch_6">
    <path d="M 57.6 41.472 
L 414.72 41.472 
" style="fill:none;stroke:#000000;stroke-linecap:square;stroke-linejoin:miter;stroke-width:0.8;"/>
   </g>
   <g id="legend_1">
    <g id="patch_7">
     <path d="M 351.0075 198.045187 
L 407.72 198.045187 
Q 409.72 198.045187 409.72 196.045187 
L 409.72 153.010812 
Q 409.72 151.010812 407.72 151.010812 
L 351.0075 151.010812 
Q 349.0075 151.010812 349.0075 153.010812 
L 349.0075 196.045187 
Q 349.0075 198.045187 351.0075 198.045187 
z
" style="fill:#ffffff;opacity:0.8;stroke:#cccccc;stroke-linejoin:miter;"/>
    </g>
    <g id="line2d_21">
     <path d="M 353.0075 159.10925 
L 373.0075 159.10925 
" style="fill:none;stroke:#1f77b4;stroke-linecap:square;stroke-width:1.5;"/>
    </g>
    <g id="line2d_22"/>
    <g id="text_18">
     <!-- 0-&gt;1 -->
     <defs>
      <path d="M 4.890625 31.390625 
L 31.203125 31.390625 
L 31.203125 23.390625 
L 4.890625 23.390625 
z
" id="DejaVuSans-45"/>
      <path d="M 10.59375 49.21875 
L 10.59375 58.109375 
L 73.1875 35.40625 
L 73.1875 27.296875 
L 10.59375 4.59375 
L 10.59375 13.484375 
L 60.890625 31.296875 
z
" id="DejaVuSans-62"/>
     </defs>
     <g transform="translate(381.0075 162.60925)scale(0.1 -0.1)">
      <use xlink:href="#DejaVuSans-48"/>
      <use x="63.623047" xlink:href="#DejaVuSans-45"/>
      <use x="99.707031" xlink:href="#DejaVuSans-62"/>
      <use x="183.496094" xlink:href="#DejaVuSans-49"/>
     </g>
    </g>
    <g id="line2d_23">
     <path d="M 353.0075 173.787375 
L 373.0075 173.787375 
" style="fill:none;stroke:#ff0000;stroke-linecap:square;stroke-width:1.5;"/>
    </g>
    <g id="line2d_24"/>
    <g id="text_19">
     <!-- 1-&gt;0 -->
     <g transform="translate(381.0075 177.287375)scale(0.1 -0.1)">
      <use xlink:href="#DejaVuSans-49"/>
      <use x="63.623047" xlink:href="#DejaVuSans-45"/>
      <use x="99.707031" xlink:href="#DejaVuSans-62"/>
      <use x="183.496094" xlink:href="#DejaVuSans-48"/>
     </g>
    </g>
    <g id="line2d_25">
     <path d="M 353.0075 188.4655 
L 373.0075 188.4655 
" style="fill:none;stroke:#008000;stroke-linecap:square;stroke-width:1.5;"/>
    </g>
    <g id="line2d_26"/>
    <g id="text_20">
     <!-- diff -->
     <defs>
      <path d="M 45.40625 46.390625 
L 45.40625 75.984375 
L 54.390625 75.984375 
L 54.390625 0 
L 45.40625 0 
L 45.40625 8.203125 
Q 42.578125 3.328125 38.25 0.953125 
Q 33.9375 -1.421875 27.875 -1.421875 
Q 17.96875 -1.421875 11.734375 6.484375 
Q 5.515625 14.40625 5.515625 27.296875 
Q 5.515625 40.1875 11.734375 48.09375 
Q 17.96875 56 27.875 56 
Q 33.9375 56 38.25 53.625 
Q 42.578125 51.265625 45.40625 46.390625 
z
M 14.796875 27.296875 
Q 14.796875 17.390625 18.875 11.75 
Q 22.953125 6.109375 30.078125 6.109375 
Q 37.203125 6.109375 41.296875 11.75 
Q 45.40625 17.390625 45.40625 27.296875 
Q 45.40625 37.203125 41.296875 42.84375 
Q 37.203125 48.484375 30.078125 48.484375 
Q 22.953125 48.484375 18.875 42.84375 
Q 14.796875 37.203125 14.796875 27.296875 
z
" id="DejaVuSans-100"/>
      <path d="M 9.421875 54.6875 
L 18.40625 54.6875 
L 18.40625 0 
L 9.421875 0 
z
M 9.421875 75.984375 
L 18.40625 75.984375 
L 18.40625 64.59375 
L 9.421875 64.59375 
z
" id="DejaVuSans-105"/>
      <path d="M 37.109375 75.984375 
L 37.109375 68.5 
L 28.515625 68.5 
Q 23.6875 68.5 21.796875 66.546875 
Q 19.921875 64.59375 19.921875 59.515625 
L 19.921875 54.6875 
L 34.71875 54.6875 
L 34.71875 47.703125 
L 19.921875 47.703125 
L 19.921875 0 
L 10.890625 0 
L 10.890625 47.703125 
L 2.296875 47.703125 
L 2.296875 54.6875 
L 10.890625 54.6875 
L 10.890625 58.5 
Q 10.890625 67.625 15.140625 71.796875 
Q 19.390625 75.984375 28.609375 75.984375 
z
" id="DejaVuSans-102"/>
     </defs>
     <g transform="translate(381.0075 191.9655)scale(0.1 -0.1)">
      <use xlink:href="#DejaVuSans-100"/>
      <use x="63.476562" xlink:href="#DejaVuSans-105"/>
      <use x="91.259766" xlink:href="#DejaVuSans-102"/>
      <use x="126.464844" xlink:href="#DejaVuSans-102"/>
     </g>
    </g>
   </g>
  </g>
 </g>
 <defs>
  <clipPath id="p5687b036cb">
   <rect height="266.112" width="357.12" x="57.6" y="41.472"/>
  </clipPath>
 </defs>
</svg>
