<?xml version="1.0" encoding="utf-8" standalone="no"?>
<!DOCTYPE svg PUBLIC "-//W3C//DTD SVG 1.1//EN"
  "http://www.w3.org/Graphics/SVG/1.1/DTD/svg11.dtd">
<!-- Created with matplotlib (https://matplotlib.org/) -->
<svg height="345.6pt" version="1.1" viewBox="0 0 460.8 345.6" width="460.8pt" xmlns="http://www.w3.org/2000/svg" xmlns:xlink="http://www.w3.org/1999/xlink">
 <defs>
  <style type="text/css">
*{stroke-linecap:butt;stroke-linejoin:round;}
  </style>
 </defs>
 <g id="figure_1">
  <g id="patch_1">
   <path d="M 0 345.6 
L 460.8 345.6 
L 460.8 0 
L 0 0 
z
" style="fill:#ffffff;"/>
  </g>
  <g id="axes_1">
   <g id="patch_2">
    <path d="M 57.6 307.584 
L 414.72 307.584 
L 414.72 41.472 
L 57.6 41.472 
z
" style="fill:#ffffff;"/>
   </g>
   <g id="matplotlib.axis_1">
    <g id="xtick_1">
     <g id="line2d_1">
      <defs>
       <path d="M 0 0 
L 0 3.5 
" id="m0926c6ec95" style="stroke:#000000;stroke-width:0.8;"/>
      </defs>
      <g>
       <use style="stroke:#000000;stroke-width:0.8;" x="73.832727" xlink:href="#m0926c6ec95" y="307.584"/>
      </g>
     </g>
     <g id="text_1">
      <!-- 0 -->
      <defs>
       <path d="M 31.78125 66.40625 
Q 24.171875 66.40625 20.328125 58.90625 
Q 16.5 51.421875 16.5 36.375 
Q 16.5 21.390625 20.328125 13.890625 
Q 24.171875 6.390625 31.78125 6.390625 
Q 39.453125 6.390625 43.28125 13.890625 
Q 47.125 21.390625 47.125 36.375 
Q 47.125 51.421875 43.28125 58.90625 
Q 39.453125 66.40625 31.78125 66.40625 
z
M 31.78125 74.21875 
Q 44.046875 74.21875 50.515625 64.515625 
Q 56.984375 54.828125 56.984375 36.375 
Q 56.984375 17.96875 50.515625 8.265625 
Q 44.046875 -1.421875 31.78125 -1.421875 
Q 19.53125 -1.421875 13.0625 8.265625 
Q 6.59375 17.96875 6.59375 36.375 
Q 6.59375 54.828125 13.0625 64.515625 
Q 19.53125 74.21875 31.78125 74.21875 
z
" id="DejaVuSans-48"/>
      </defs>
      <g transform="translate(70.651477 322.182437)scale(0.1 -0.1)">
       <use xlink:href="#DejaVuSans-48"/>
      </g>
     </g>
    </g>
    <g id="xtick_2">
     <g id="line2d_2">
      <g>
       <use style="stroke:#000000;stroke-width:0.8;" x="120.2451" xlink:href="#m0926c6ec95" y="307.584"/>
      </g>
     </g>
     <g id="text_2">
      <!-- 200 -->
      <defs>
       <path d="M 19.1875 8.296875 
L 53.609375 8.296875 
L 53.609375 0 
L 7.328125 0 
L 7.328125 8.296875 
Q 12.9375 14.109375 22.625 23.890625 
Q 32.328125 33.6875 34.8125 36.53125 
Q 39.546875 41.84375 41.421875 45.53125 
Q 43.3125 49.21875 43.3125 52.78125 
Q 43.3125 58.59375 39.234375 62.25 
Q 35.15625 65.921875 28.609375 65.921875 
Q 23.96875 65.921875 18.8125 64.3125 
Q 13.671875 62.703125 7.8125 59.421875 
L 7.8125 69.390625 
Q 13.765625 71.78125 18.9375 73 
Q 24.125 74.21875 28.421875 74.21875 
Q 39.75 74.21875 46.484375 68.546875 
Q 53.21875 62.890625 53.21875 53.421875 
Q 53.21875 48.921875 51.53125 44.890625 
Q 49.859375 40.875 45.40625 35.40625 
Q 44.1875 33.984375 37.640625 27.21875 
Q 31.109375 20.453125 19.1875 8.296875 
z
" id="DejaVuSans-50"/>
      </defs>
      <g transform="translate(110.70135 322.182437)scale(0.1 -0.1)">
       <use xlink:href="#DejaVuSans-50"/>
       <use x="63.623047" xlink:href="#DejaVuSans-48"/>
       <use x="127.246094" xlink:href="#DejaVuSans-48"/>
      </g>
     </g>
    </g>
    <g id="xtick_3">
     <g id="line2d_3">
      <g>
       <use style="stroke:#000000;stroke-width:0.8;" x="166.657472" xlink:href="#m0926c6ec95" y="307.584"/>
      </g>
     </g>
     <g id="text_3">
      <!-- 400 -->
      <defs>
       <path d="M 37.796875 64.3125 
L 12.890625 25.390625 
L 37.796875 25.390625 
z
M 35.203125 72.90625 
L 47.609375 72.90625 
L 47.609375 25.390625 
L 58.015625 25.390625 
L 58.015625 17.1875 
L 47.609375 17.1875 
L 47.609375 0 
L 37.796875 0 
L 37.796875 17.1875 
L 4.890625 17.1875 
L 4.890625 26.703125 
z
" id="DejaVuSans-52"/>
      </defs>
      <g transform="translate(157.113722 322.182437)scale(0.1 -0.1)">
       <use xlink:href="#DejaVuSans-52"/>
       <use x="63.623047" xlink:href="#DejaVuSans-48"/>
       <use x="127.246094" xlink:href="#DejaVuSans-48"/>
      </g>
     </g>
    </g>
    <g id="xtick_4">
     <g id="line2d_4">
      <g>
       <use style="stroke:#000000;stroke-width:0.8;" x="213.069845" xlink:href="#m0926c6ec95" y="307.584"/>
      </g>
     </g>
     <g id="text_4">
      <!-- 600 -->
      <defs>
       <path d="M 33.015625 40.375 
Q 26.375 40.375 22.484375 35.828125 
Q 18.609375 31.296875 18.609375 23.390625 
Q 18.609375 15.53125 22.484375 10.953125 
Q 26.375 6.390625 33.015625 6.390625 
Q 39.65625 6.390625 43.53125 10.953125 
Q 47.40625 15.53125 47.40625 23.390625 
Q 47.40625 31.296875 43.53125 35.828125 
Q 39.65625 40.375 33.015625 40.375 
z
M 52.59375 71.296875 
L 52.59375 62.3125 
Q 48.875 64.0625 45.09375 64.984375 
Q 41.3125 65.921875 37.59375 65.921875 
Q 27.828125 65.921875 22.671875 59.328125 
Q 17.53125 52.734375 16.796875 39.40625 
Q 19.671875 43.65625 24.015625 45.921875 
Q 28.375 48.1875 33.59375 48.1875 
Q 44.578125 48.1875 50.953125 41.515625 
Q 57.328125 34.859375 57.328125 23.390625 
Q 57.328125 12.15625 50.6875 5.359375 
Q 44.046875 -1.421875 33.015625 -1.421875 
Q 20.359375 -1.421875 13.671875 8.265625 
Q 6.984375 17.96875 6.984375 36.375 
Q 6.984375 53.65625 15.1875 63.9375 
Q 23.390625 74.21875 37.203125 74.21875 
Q 40.921875 74.21875 44.703125 73.484375 
Q 48.484375 72.75 52.59375 71.296875 
z
" id="DejaVuSans-54"/>
      </defs>
      <g transform="translate(203.526095 322.182437)scale(0.1 -0.1)">
       <use xlink:href="#DejaVuSans-54"/>
       <use x="63.623047" xlink:href="#DejaVuSans-48"/>
       <use x="127.246094" xlink:href="#DejaVuSans-48"/>
      </g>
     </g>
    </g>
    <g id="xtick_5">
     <g id="line2d_5">
      <g>
       <use style="stroke:#000000;stroke-width:0.8;" x="259.482217" xlink:href="#m0926c6ec95" y="307.584"/>
      </g>
     </g>
     <g id="text_5">
      <!-- 800 -->
      <defs>
       <path d="M 31.78125 34.625 
Q 24.75 34.625 20.71875 30.859375 
Q 16.703125 27.09375 16.703125 20.515625 
Q 16.703125 13.921875 20.71875 10.15625 
Q 24.75 6.390625 31.78125 6.390625 
Q 38.8125 6.390625 42.859375 10.171875 
Q 46.921875 13.96875 46.921875 20.515625 
Q 46.921875 27.09375 42.890625 30.859375 
Q 38.875 34.625 31.78125 34.625 
z
M 21.921875 38.8125 
Q 15.578125 40.375 12.03125 44.71875 
Q 8.5 49.078125 8.5 55.328125 
Q 8.5 64.0625 14.71875 69.140625 
Q 20.953125 74.21875 31.78125 74.21875 
Q 42.671875 74.21875 48.875 69.140625 
Q 55.078125 64.0625 55.078125 55.328125 
Q 55.078125 49.078125 51.53125 44.71875 
Q 48 40.375 41.703125 38.8125 
Q 48.828125 37.15625 52.796875 32.3125 
Q 56.78125 27.484375 56.78125 20.515625 
Q 56.78125 9.90625 50.3125 4.234375 
Q 43.84375 -1.421875 31.78125 -1.421875 
Q 19.734375 -1.421875 13.25 4.234375 
Q 6.78125 9.90625 6.78125 20.515625 
Q 6.78125 27.484375 10.78125 32.3125 
Q 14.796875 37.15625 21.921875 38.8125 
z
M 18.3125 54.390625 
Q 18.3125 48.734375 21.84375 45.5625 
Q 25.390625 42.390625 31.78125 42.390625 
Q 38.140625 42.390625 41.71875 45.5625 
Q 45.3125 48.734375 45.3125 54.390625 
Q 45.3125 60.0625 41.71875 63.234375 
Q 38.140625 66.40625 31.78125 66.40625 
Q 25.390625 66.40625 21.84375 63.234375 
Q 18.3125 60.0625 18.3125 54.390625 
z
" id="DejaVuSans-56"/>
      </defs>
      <g transform="translate(249.938467 322.182437)scale(0.1 -0.1)">
       <use xlink:href="#DejaVuSans-56"/>
       <use x="63.623047" xlink:href="#DejaVuSans-48"/>
       <use x="127.246094" xlink:href="#DejaVuSans-48"/>
      </g>
     </g>
    </g>
    <g id="xtick_6">
     <g id="line2d_6">
      <g>
       <use style="stroke:#000000;stroke-width:0.8;" x="305.89459" xlink:href="#m0926c6ec95" y="307.584"/>
      </g>
     </g>
     <g id="text_6">
      <!-- 1000 -->
      <defs>
       <path d="M 12.40625 8.296875 
L 28.515625 8.296875 
L 28.515625 63.921875 
L 10.984375 60.40625 
L 10.984375 69.390625 
L 28.421875 72.90625 
L 38.28125 72.90625 
L 38.28125 8.296875 
L 54.390625 8.296875 
L 54.390625 0 
L 12.40625 0 
z
" id="DejaVuSans-49"/>
      </defs>
      <g transform="translate(293.16959 322.182437)scale(0.1 -0.1)">
       <use xlink:href="#DejaVuSans-49"/>
       <use x="63.623047" xlink:href="#DejaVuSans-48"/>
       <use x="127.246094" xlink:href="#DejaVuSans-48"/>
       <use x="190.869141" xlink:href="#DejaVuSans-48"/>
      </g>
     </g>
    </g>
    <g id="xtick_7">
     <g id="line2d_7">
      <g>
       <use style="stroke:#000000;stroke-width:0.8;" x="352.306962" xlink:href="#m0926c6ec95" y="307.584"/>
      </g>
     </g>
     <g id="text_7">
      <!-- 1200 -->
      <g transform="translate(339.581962 322.182437)scale(0.1 -0.1)">
       <use xlink:href="#DejaVuSans-49"/>
       <use x="63.623047" xlink:href="#DejaVuSans-50"/>
       <use x="127.246094" xlink:href="#DejaVuSans-48"/>
       <use x="190.869141" xlink:href="#DejaVuSans-48"/>
      </g>
     </g>
    </g>
    <g id="xtick_8">
     <g id="line2d_8">
      <g>
       <use style="stroke:#000000;stroke-width:0.8;" x="398.719335" xlink:href="#m0926c6ec95" y="307.584"/>
      </g>
     </g>
     <g id="text_8">
      <!-- 1400 -->
      <g transform="translate(385.994335 322.182437)scale(0.1 -0.1)">
       <use xlink:href="#DejaVuSans-49"/>
       <use x="63.623047" xlink:href="#DejaVuSans-52"/>
       <use x="127.246094" xlink:href="#DejaVuSans-48"/>
       <use x="190.869141" xlink:href="#DejaVuSans-48"/>
      </g>
     </g>
    </g>
   </g>
   <g id="matplotlib.axis_2">
    <g id="ytick_1">
     <g id="line2d_9">
      <defs>
       <path d="M 0 0 
L -3.5 0 
" id="mf97beab792" style="stroke:#000000;stroke-width:0.8;"/>
      </defs>
      <g>
       <use style="stroke:#000000;stroke-width:0.8;" x="57.6" xlink:href="#mf97beab792" y="289.839776"/>
      </g>
     </g>
     <g id="text_9">
      <!-- 0.00 -->
      <defs>
       <path d="M 10.6875 12.40625 
L 21 12.40625 
L 21 0 
L 10.6875 0 
z
" id="DejaVuSans-46"/>
      </defs>
      <g transform="translate(28.334375 293.638995)scale(0.1 -0.1)">
       <use xlink:href="#DejaVuSans-48"/>
       <use x="63.623047" xlink:href="#DejaVuSans-46"/>
       <use x="95.410156" xlink:href="#DejaVuSans-48"/>
       <use x="159.033203" xlink:href="#DejaVuSans-48"/>
      </g>
     </g>
    </g>
    <g id="ytick_2">
     <g id="line2d_10">
      <g>
       <use style="stroke:#000000;stroke-width:0.8;" x="57.6" xlink:href="#mf97beab792" y="255.159565"/>
      </g>
     </g>
     <g id="text_10">
      <!-- 0.05 -->
      <defs>
       <path d="M 10.796875 72.90625 
L 49.515625 72.90625 
L 49.515625 64.59375 
L 19.828125 64.59375 
L 19.828125 46.734375 
Q 21.96875 47.46875 24.109375 47.828125 
Q 26.265625 48.1875 28.421875 48.1875 
Q 40.625 48.1875 47.75 41.5 
Q 54.890625 34.8125 54.890625 23.390625 
Q 54.890625 11.625 47.5625 5.09375 
Q 40.234375 -1.421875 26.90625 -1.421875 
Q 22.3125 -1.421875 17.546875 -0.640625 
Q 12.796875 0.140625 7.71875 1.703125 
L 7.71875 11.625 
Q 12.109375 9.234375 16.796875 8.0625 
Q 21.484375 6.890625 26.703125 6.890625 
Q 35.15625 6.890625 40.078125 11.328125 
Q 45.015625 15.765625 45.015625 23.390625 
Q 45.015625 31 40.078125 35.4375 
Q 35.15625 39.890625 26.703125 39.890625 
Q 22.75 39.890625 18.8125 39.015625 
Q 14.890625 38.140625 10.796875 36.28125 
z
" id="DejaVuSans-53"/>
      </defs>
      <g transform="translate(28.334375 258.958784)scale(0.1 -0.1)">
       <use xlink:href="#DejaVuSans-48"/>
       <use x="63.623047" xlink:href="#DejaVuSans-46"/>
       <use x="95.410156" xlink:href="#DejaVuSans-48"/>
       <use x="159.033203" xlink:href="#DejaVuSans-53"/>
      </g>
     </g>
    </g>
    <g id="ytick_3">
     <g id="line2d_11">
      <g>
       <use style="stroke:#000000;stroke-width:0.8;" x="57.6" xlink:href="#mf97beab792" y="220.479355"/>
      </g>
     </g>
     <g id="text_11">
      <!-- 0.10 -->
      <g transform="translate(28.334375 224.278574)scale(0.1 -0.1)">
       <use xlink:href="#DejaVuSans-48"/>
       <use x="63.623047" xlink:href="#DejaVuSans-46"/>
       <use x="95.410156" xlink:href="#DejaVuSans-49"/>
       <use x="159.033203" xlink:href="#DejaVuSans-48"/>
      </g>
     </g>
    </g>
    <g id="ytick_4">
     <g id="line2d_12">
      <g>
       <use style="stroke:#000000;stroke-width:0.8;" x="57.6" xlink:href="#mf97beab792" y="185.799145"/>
      </g>
     </g>
     <g id="text_12">
      <!-- 0.15 -->
      <g transform="translate(28.334375 189.598363)scale(0.1 -0.1)">
       <use xlink:href="#DejaVuSans-48"/>
       <use x="63.623047" xlink:href="#DejaVuSans-46"/>
       <use x="95.410156" xlink:href="#DejaVuSans-49"/>
       <use x="159.033203" xlink:href="#DejaVuSans-53"/>
      </g>
     </g>
    </g>
    <g id="ytick_5">
     <g id="line2d_13">
      <g>
       <use style="stroke:#000000;stroke-width:0.8;" x="57.6" xlink:href="#mf97beab792" y="151.118934"/>
      </g>
     </g>
     <g id="text_13">
      <!-- 0.20 -->
      <g transform="translate(28.334375 154.918153)scale(0.1 -0.1)">
       <use xlink:href="#DejaVuSans-48"/>
       <use x="63.623047" xlink:href="#DejaVuSans-46"/>
       <use x="95.410156" xlink:href="#DejaVuSans-50"/>
       <use x="159.033203" xlink:href="#DejaVuSans-48"/>
      </g>
     </g>
    </g>
    <g id="ytick_6">
     <g id="line2d_14">
      <g>
       <use style="stroke:#000000;stroke-width:0.8;" x="57.6" xlink:href="#mf97beab792" y="116.438724"/>
      </g>
     </g>
     <g id="text_14">
      <!-- 0.25 -->
      <g transform="translate(28.334375 120.237943)scale(0.1 -0.1)">
       <use xlink:href="#DejaVuSans-48"/>
       <use x="63.623047" xlink:href="#DejaVuSans-46"/>
       <use x="95.410156" xlink:href="#DejaVuSans-50"/>
       <use x="159.033203" xlink:href="#DejaVuSans-53"/>
      </g>
     </g>
    </g>
    <g id="ytick_7">
     <g id="line2d_15">
      <g>
       <use style="stroke:#000000;stroke-width:0.8;" x="57.6" xlink:href="#mf97beab792" y="81.758514"/>
      </g>
     </g>
     <g id="text_15">
      <!-- 0.30 -->
      <defs>
       <path d="M 40.578125 39.3125 
Q 47.65625 37.796875 51.625 33 
Q 55.609375 28.21875 55.609375 21.1875 
Q 55.609375 10.40625 48.1875 4.484375 
Q 40.765625 -1.421875 27.09375 -1.421875 
Q 22.515625 -1.421875 17.65625 -0.515625 
Q 12.796875 0.390625 7.625 2.203125 
L 7.625 11.71875 
Q 11.71875 9.328125 16.59375 8.109375 
Q 21.484375 6.890625 26.8125 6.890625 
Q 36.078125 6.890625 40.9375 10.546875 
Q 45.796875 14.203125 45.796875 21.1875 
Q 45.796875 27.640625 41.28125 31.265625 
Q 36.765625 34.90625 28.71875 34.90625 
L 20.21875 34.90625 
L 20.21875 43.015625 
L 29.109375 43.015625 
Q 36.375 43.015625 40.234375 45.921875 
Q 44.09375 48.828125 44.09375 54.296875 
Q 44.09375 59.90625 40.109375 62.90625 
Q 36.140625 65.921875 28.71875 65.921875 
Q 24.65625 65.921875 20.015625 65.03125 
Q 15.375 64.15625 9.8125 62.3125 
L 9.8125 71.09375 
Q 15.4375 72.65625 20.34375 73.4375 
Q 25.25 74.21875 29.59375 74.21875 
Q 40.828125 74.21875 47.359375 69.109375 
Q 53.90625 64.015625 53.90625 55.328125 
Q 53.90625 49.265625 50.4375 45.09375 
Q 46.96875 40.921875 40.578125 39.3125 
z
" id="DejaVuSans-51"/>
      </defs>
      <g transform="translate(28.334375 85.557732)scale(0.1 -0.1)">
       <use xlink:href="#DejaVuSans-48"/>
       <use x="63.623047" xlink:href="#DejaVuSans-46"/>
       <use x="95.410156" xlink:href="#DejaVuSans-51"/>
       <use x="159.033203" xlink:href="#DejaVuSans-48"/>
      </g>
     </g>
    </g>
    <g id="ytick_8">
     <g id="line2d_16">
      <g>
       <use style="stroke:#000000;stroke-width:0.8;" x="57.6" xlink:href="#mf97beab792" y="47.078303"/>
      </g>
     </g>
     <g id="text_16">
      <!-- 0.35 -->
      <g transform="translate(28.334375 50.877522)scale(0.1 -0.1)">
       <use xlink:href="#DejaVuSans-48"/>
       <use x="63.623047" xlink:href="#DejaVuSans-46"/>
       <use x="95.410156" xlink:href="#DejaVuSans-51"/>
       <use x="159.033203" xlink:href="#DejaVuSans-53"/>
      </g>
     </g>
    </g>
   </g>
   <g id="line2d_17">
    <path clip-path="url(#pd59748009b)" d="M 73.832727 67.988402 
L 74.760975 69.860001 
L 75.225098 70.458556 
L 75.689222 70.695238 
L 75.921284 70.675237 
L 76.385408 70.313341 
L 76.849531 69.596507 
L 77.777779 67.508038 
L 78.706026 65.519735 
L 79.17015 64.917924 
L 79.634274 64.688466 
L 80.098398 64.861962 
L 80.562521 65.413464 
L 81.258707 66.736077 
L 82.419016 69.117851 
L 82.88314 69.722046 
L 83.347264 69.967271 
L 83.811387 69.814737 
L 84.275511 69.273913 
L 84.971697 67.908547 
L 86.364068 64.844454 
L 86.828192 64.239871 
L 87.292315 64.005983 
L 87.756439 64.175268 
L 88.220563 64.711986 
L 88.916748 66.038607 
L 90.077058 68.433809 
L 90.541181 69.041617 
L 91.005305 69.288212 
L 91.469429 69.136587 
L 91.933553 68.601024 
L 92.629738 67.253412 
L 94.022109 64.116192 
L 94.486233 63.463481 
L 94.950357 63.186236 
L 95.41448 63.317784 
L 95.878604 63.823853 
L 96.57479 65.111834 
L 97.967161 67.901986 
L 98.431285 68.390364 
L 98.895408 68.513529 
L 99.359532 68.225595 
L 99.823656 67.590456 
L 100.519841 66.161615 
L 101.680151 63.678243 
L 102.144274 63.054672 
L 102.608398 62.795189 
L 103.072522 62.932151 
L 103.536646 63.446098 
L 104.232831 64.737372 
L 105.625202 67.54833 
L 106.089326 68.055836 
L 106.55345 68.201873 
L 107.017574 67.962831 
L 107.481697 67.385621 
L 108.177883 66.066715 
L 109.570254 63.353924 
L 110.034378 62.889419 
L 110.498502 62.791541 
L 110.962625 63.06049 
L 111.426749 63.653233 
L 112.354996 65.442123 
L 113.283244 67.113626 
L 113.747368 67.566776 
L 114.211491 67.68243 
L 114.675615 67.405214 
L 115.139739 66.792692 
L 115.835924 65.429974 
L 116.996234 63.051694 
L 117.460357 62.456144 
L 117.924481 62.200273 
L 118.388605 62.310388 
L 118.852729 62.767303 
L 119.548914 63.932239 
L 120.941285 66.503506 
L 121.405409 66.966598 
L 121.869533 67.08813 
L 122.333657 66.848734 
L 122.79778 66.284917 
L 123.493966 64.999782 
L 124.654275 62.736905 
L 125.118399 62.162336 
L 125.582523 61.906441 
L 126.046646 62.004345 
L 126.51077 62.44592 
L 127.206956 63.579972 
L 128.599327 66.066757 
L 129.063451 66.510534 
L 129.527574 66.623091 
L 129.991698 66.386762 
L 130.455822 65.833744 
L 131.152007 64.575435 
L 132.312317 62.332442 
L 132.77644 61.750618 
L 133.240564 61.492556 
L 133.704688 61.583184 
L 134.168811 62.00517 
L 134.864997 63.129066 
L 136.257368 65.654789 
L 136.721492 66.126478 
L 137.185616 66.268552 
L 137.649739 66.057338 
L 138.113863 65.526198 
L 138.810049 64.29062 
L 139.970358 62.034796 
L 140.434482 61.424219 
L 140.898605 61.116356 
L 141.362729 61.141543 
L 141.826853 61.492381 
L 142.523039 62.507979 
L 144.147472 65.256373 
L 144.611595 65.615902 
L 145.075719 65.647582 
L 145.539843 65.334549 
L 146.236028 64.363805 
L 148.092523 61.129771 
L 148.556647 60.772393 
L 149.020771 60.733773 
L 149.484894 61.019887 
L 149.949018 61.583069 
L 150.877266 63.175919 
L 151.805513 64.624616 
L 152.269637 65.023066 
L 152.73376 65.116929 
L 153.197884 64.890344 
L 153.662008 64.371529 
L 154.590255 62.792645 
L 155.518503 61.23274 
L 155.982627 60.743604 
L 156.44675 60.54914 
L 156.910874 60.671311 
L 157.374998 61.101736 
L 158.071183 62.184865 
L 159.463554 64.56663 
L 159.927678 64.999554 
L 160.391802 65.118391 
L 160.855926 64.903726 
L 161.320049 64.387499 
L 162.016235 63.20678 
L 163.176544 61.09967 
L 163.640668 60.556338 
L 164.104792 60.310297 
L 164.568915 60.39199 
L 165.033039 60.792814 
L 165.729225 61.849734 
L 167.121596 64.242633 
L 167.58572 64.692076 
L 168.049843 64.838986 
L 168.513967 64.663156 
L 168.978091 64.162947 
L 169.674276 62.998922 
L 170.834586 60.891454 
L 171.298709 60.33613 
L 171.762833 60.071662 
L 172.226957 60.137229 
L 172.691081 60.522104 
L 173.387266 61.554174 
L 174.779637 63.912059 
L 175.243761 64.366682 
L 175.707885 64.521149 
L 176.172009 64.347207 
L 176.636132 63.87203 
L 177.332318 62.747443 
L 178.724689 60.275405 
L 179.188813 59.802384 
L 179.652937 59.640928 
L 180.11706 59.80847 
L 180.581184 60.285118 
L 181.27737 61.395656 
L 182.437679 63.402797 
L 183.133864 64.051614 
L 183.597988 64.121272 
L 184.062112 63.870683 
L 184.526236 63.328952 
L 185.454483 61.708085 
L 186.382731 60.108522 
L 186.846854 59.600786 
L 187.310978 59.392318 
L 187.775102 59.513783 
L 188.239225 59.938067 
L 188.935411 60.997264 
L 190.09572 63.051486 
L 190.559844 63.584125 
L 191.023968 63.830553 
L 191.488091 63.760154 
L 191.952215 63.374515 
L 192.648401 62.341229 
L 194.272834 59.630206 
L 194.736958 59.277101 
L 195.201081 59.235771 
L 195.665205 59.515749 
L 196.361391 60.436492 
L 198.217886 63.414189 
L 198.682009 63.68352 
L 199.146133 63.647134 
L 199.610257 63.280243 
L 200.306442 62.260126 
L 201.930875 59.530651 
L 202.394999 59.154618 
L 202.859123 59.092593 
L 203.323246 59.342549 
L 203.78737 59.860118 
L 204.715618 61.376381 
L 205.643865 62.809037 
L 206.107989 63.229451 
L 206.572113 63.362112 
L 207.036236 63.184972 
L 207.50036 62.726339 
L 208.196546 61.63871 
L 209.356855 59.684976 
L 209.820979 59.175765 
L 210.285102 58.944919 
L 210.749226 59.028787 
L 211.21335 59.411002 
L 211.909535 60.410297 
L 213.301907 62.642368 
L 213.76603 63.060452 
L 214.230154 63.189708 
L 214.694278 63.009964 
L 215.158401 62.544808 
L 215.854587 61.465206 
L 217.246958 59.242223 
L 217.711082 58.861701 
L 218.175206 58.778426 
L 218.639329 59.001347 
L 219.103453 59.501801 
L 220.031701 61.000467 
L 220.959948 62.441001 
L 221.424072 62.877609 
L 221.888195 63.02288 
L 222.352319 62.862137 
L 222.816443 62.406078 
L 223.512629 61.316568 
L 224.672938 59.339887 
L 225.137062 58.813261 
L 225.601185 58.568295 
L 226.065309 58.636175 
L 226.529433 59.003413 
L 227.225618 59.98633 
L 228.617989 62.241238 
L 229.082113 62.680074 
L 229.546237 62.829321 
L 230.010361 62.670802 
L 230.474484 62.218043 
L 231.17067 61.143924 
L 232.563041 58.881257 
L 233.027165 58.490107 
L 233.491289 58.391129 
L 233.955412 58.605777 
L 234.419536 59.093474 
L 235.347783 60.599331 
L 236.276031 62.061069 
L 236.740155 62.507127 
L 237.204278 62.667079 
L 237.668402 62.514667 
L 238.132526 62.07501 
L 238.828711 61.016874 
L 240.221083 58.745986 
L 240.685206 58.333288 
L 241.14933 58.215873 
L 241.613454 58.404938 
L 242.077577 58.88299 
L 242.773763 59.970918 
L 243.934072 61.860717 
L 244.398196 62.328517 
L 244.86232 62.507914 
L 245.326444 62.379722 
L 245.790567 61.953093 
L 246.486753 60.918387 
L 247.879124 58.611804 
L 248.343248 58.182562 
L 248.807371 58.047915 
L 249.271495 58.22069 
L 249.735619 58.67827 
L 250.431805 59.738528 
L 251.592114 61.613852 
L 252.056238 62.086027 
L 252.520361 62.272345 
L 252.984485 62.153107 
L 253.448609 61.743593 
L 254.144794 60.716571 
L 255.537166 58.455437 
L 256.001289 58.035835 
L 256.465413 57.905895 
L 256.929537 58.090803 
L 257.39366 58.56378 
L 258.089846 59.658428 
L 259.250155 61.605081 
L 259.714279 62.100099 
L 260.178403 62.299168 
L 260.642526 62.180162 
L 261.10665 61.75853 
L 261.802836 60.699936 
L 263.195207 58.330454 
L 263.659331 57.879302 
L 264.123454 57.724916 
L 264.587578 57.888435 
L 265.051702 58.344612 
L 265.747887 59.41987 
L 266.908197 61.359574 
L 267.37232 61.838789 
L 267.836444 62.01547 
L 268.300568 61.867048 
L 268.764692 61.412778 
L 269.460877 60.306046 
L 270.853248 57.914754 
L 271.317372 57.476988 
L 271.781496 57.347152 
L 272.24562 57.54184 
L 272.709743 58.028093 
L 273.405929 59.134994 
L 274.566238 61.045494 
L 275.030362 61.501709 
L 275.494486 61.661214 
L 275.958609 61.500239 
L 276.422733 61.029164 
L 277.118919 59.88497 
L 278.51129 57.43777 
L 278.975414 57.002228 
L 279.439537 56.877517 
L 279.903661 57.091528 
L 280.367785 57.599305 
L 281.06397 58.751444 
L 282.22428 60.763651 
L 282.688403 61.252947 
L 283.152527 61.446989 
L 283.616651 61.311281 
L 284.080775 60.853828 
L 284.77696 59.745566 
L 286.169331 57.308574 
L 286.633455 56.857004 
L 287.097579 56.721537 
L 287.561703 56.917269 
L 288.025826 57.409311 
L 288.722012 58.551175 
L 289.882321 60.543928 
L 290.346445 61.034605 
L 290.810569 61.226474 
L 291.274692 61.087867 
L 291.738816 60.641268 
L 292.435002 59.531359 
L 293.827373 57.111932 
L 294.291497 56.666316 
L 294.75562 56.528156 
L 295.219744 56.711616 
L 295.683868 57.204523 
L 296.380053 58.333024 
L 297.540363 60.312248 
L 298.004486 60.794477 
L 298.46861 60.982061 
L 298.932734 60.843327 
L 299.396857 60.396337 
L 300.093043 59.295133 
L 301.485414 56.881775 
L 301.949538 56.437214 
L 302.413662 56.292227 
L 302.877785 56.471192 
L 303.341909 56.949013 
L 304.038095 58.061915 
L 305.198404 60.02905 
L 305.662528 60.527501 
L 306.126652 60.728221 
L 306.590775 60.609715 
L 307.054899 60.190349 
L 307.751085 59.134111 
L 309.143456 56.796197 
L 309.607579 56.357241 
L 310.071703 56.21009 
L 310.535827 56.374242 
L 310.999951 56.828377 
L 311.696136 57.890922 
L 312.856446 59.779073 
L 313.320569 60.25183 
L 313.784693 60.447355 
L 314.248817 60.336864 
L 314.71294 59.926557 
L 315.409126 58.872723 
L 316.801497 56.53595 
L 317.265621 56.089485 
L 317.729745 55.935487 
L 318.193868 56.094438 
L 318.657992 56.540454 
L 319.354178 57.598712 
L 320.514487 59.505544 
L 320.978611 59.993058 
L 321.442734 60.200488 
L 321.906858 60.0956 
L 322.370982 59.68987 
L 323.067167 58.64899 
L 324.459539 56.294209 
L 324.923662 55.833746 
L 325.387786 55.665151 
L 325.85191 55.809026 
L 326.316034 56.245225 
L 327.012219 57.284455 
L 328.40459 59.483511 
L 328.868714 59.859222 
L 329.332838 59.929025 
L 329.796961 59.683399 
L 330.261085 59.158003 
L 331.189333 57.583903 
L 332.11758 56.046672 
L 332.581704 55.559829 
L 333.045828 55.368454 
L 333.509951 55.496487 
L 333.974075 55.921723 
L 334.670261 56.963898 
L 336.062632 59.199684 
L 336.526755 59.587072 
L 336.990879 59.676992 
L 337.455003 59.450237 
L 337.919127 58.939936 
L 338.847374 57.382712 
L 339.775622 55.866789 
L 340.239745 55.385689 
L 340.703869 55.190577 
L 341.167993 55.308493 
L 341.632116 55.72919 
L 342.328302 56.757104 
L 343.488611 58.627871 
L 343.952735 59.114403 
L 344.416859 59.330366 
L 344.880983 59.243918 
L 345.345106 58.862215 
L 346.041292 57.861591 
L 347.433663 55.573848 
L 347.897787 55.117353 
L 348.36191 54.959418 
L 348.826034 55.097257 
L 349.290158 55.511571 
L 349.986343 56.525816 
L 351.378715 58.676099 
L 351.842838 59.056222 
L 352.306962 59.134774 
L 352.771086 58.911854 
L 353.23521 58.411285 
L 354.163457 56.901802 
L 355.091704 55.412021 
L 355.555828 54.953139 
L 356.019952 54.772787 
L 356.484076 54.898823 
L 356.948199 55.308038 
L 357.644385 56.317507 
L 359.036756 58.478084 
L 359.50088 58.839465 
L 359.965004 58.906915 
L 360.429127 58.664464 
L 360.893251 58.142655 
L 361.589437 56.991762 
L 362.749746 54.98516 
L 363.21387 54.48271 
L 363.677993 54.265729 
L 364.142117 54.373269 
L 364.606241 54.780039 
L 365.302426 55.823351 
L 366.694798 58.060452 
L 367.158921 58.449716 
L 367.623045 58.53955 
L 368.087169 58.315751 
L 368.551292 57.80574 
L 369.47954 56.247712 
L 370.407787 54.699679 
L 370.871911 54.207291 
L 371.336035 54.012628 
L 371.800159 54.13022 
L 372.264282 54.543704 
L 372.960468 55.577663 
L 374.352839 57.812755 
L 374.816963 58.201477 
L 375.281086 58.302879 
L 375.74521 58.082169 
L 376.209334 57.581864 
L 377.137581 56.052616 
L 378.065829 54.548291 
L 378.529953 54.075357 
L 378.994076 53.887571 
L 379.4582 54.004013 
L 379.922324 54.412793 
L 380.618509 55.437477 
L 382.01088 57.657978 
L 382.475004 58.044073 
L 382.939128 58.149525 
L 383.403252 57.923663 
L 383.867375 57.414038 
L 384.795623 55.863101 
L 385.72387 54.338074 
L 386.187994 53.853302 
L 386.652118 53.65336 
L 387.116241 53.766838 
L 387.580365 54.176864 
L 388.276551 55.214296 
L 389.668922 57.446587 
L 390.133046 57.83998 
L 390.597169 57.935323 
L 391.061293 57.724607 
L 391.525417 57.239394 
L 392.221602 56.183979 
L 393.381912 54.351545 
L 393.846035 53.890932 
L 394.310159 53.688806 
L 394.774283 53.784964 
L 395.238407 54.147646 
L 395.934592 55.078883 
L 397.326963 57.135966 
L 397.791087 57.511739 
L 398.255211 57.62102 
L 398.487273 57.567869 
L 398.487273 57.567869 
" style="fill:none;stroke:#1f77b4;stroke-linecap:square;stroke-width:1.5;"/>
   </g>
   <g id="line2d_18">
    <path clip-path="url(#pd59748009b)" d="M 73.832727 68.101666 
L 74.993037 65.685004 
L 75.45716 65.198545 
L 75.921284 65.113333 
L 76.385408 65.267197 
L 76.849531 65.894313 
L 77.777779 67.860552 
L 78.473965 69.32629 
L 78.938088 70.017389 
L 79.402212 70.359372 
L 79.866336 70.291752 
L 80.330459 69.861251 
L 80.794583 68.992534 
L 82.88314 64.71161 
L 83.347264 64.354444 
L 83.579325 64.339396 
L 84.043449 64.640241 
L 84.507573 65.271557 
L 85.203759 66.672877 
L 86.132006 68.528804 
L 86.59613 69.236393 
L 87.060253 69.575998 
L 87.524377 69.580224 
L 87.988501 69.114519 
L 88.452625 68.40522 
L 90.30912 64.321345 
L 91.005305 63.639988 
L 91.469429 63.788184 
L 91.933553 64.271167 
L 93.093862 66.210236 
L 94.022109 68.133436 
L 94.486233 68.715873 
L 94.950357 68.892451 
L 95.182419 68.84234 
L 95.878604 68.059953 
L 96.342728 67.093248 
L 97.967161 63.679219 
L 98.431285 63.147709 
L 98.895408 63.002844 
L 99.591594 63.425893 
L 100.519841 65.155447 
L 101.680151 67.514129 
L 102.144274 68.148311 
L 102.608398 68.37192 
L 102.84046 68.345615 
L 103.304584 67.943138 
L 103.768708 67.225706 
L 105.857264 63.122353 
L 106.321388 62.863725 
L 106.785512 62.989278 
L 107.481697 63.743928 
L 107.945821 64.441906 
L 109.570254 67.502559 
L 110.034378 67.914002 
L 110.498502 67.98875 
L 110.962625 67.676716 
L 111.426749 67.038381 
L 112.122935 65.66179 
L 112.587058 64.417004 
L 113.283244 63.091579 
L 113.747368 62.572473 
L 114.211491 62.432076 
L 114.675615 62.645456 
L 115.139739 63.204849 
L 115.835924 64.456334 
L 116.996234 66.729348 
L 117.460357 67.194043 
L 117.924481 67.35617 
L 118.156543 67.323241 
L 118.620667 66.937697 
L 119.08479 66.284547 
L 120.2451 63.916868 
L 121.173347 62.396258 
L 121.637471 62.062605 
L 122.101595 62.095883 
L 122.565718 62.478233 
L 123.261904 63.563892 
L 124.654275 66.163947 
L 125.118399 66.709329 
L 125.582523 66.911882 
L 126.046646 66.768066 
L 126.278708 66.565653 
L 127.671079 64.038235 
L 128.599327 62.338008 
L 129.063451 61.871515 
L 129.527574 61.726071 
L 129.991698 61.91422 
L 130.687884 62.730335 
L 131.384069 63.98034 
L 132.312317 65.651929 
L 132.77644 66.24423 
L 133.240564 66.413696 
L 133.472626 66.429008 
L 134.400873 65.50762 
L 135.561183 63.227242 
L 136.257368 62.014033 
L 136.721492 61.510863 
L 137.185616 61.347495 
L 137.649739 61.533093 
L 138.345925 62.309219 
L 140.20242 65.408191 
L 140.434482 65.674946 
L 141.130667 65.824253 
L 141.826853 65.352331 
L 142.290977 64.704271 
L 143.91541 61.745574 
L 144.379533 61.188696 
L 145.075719 60.856428 
L 145.539843 61.180601 
L 146.003966 61.772253 
L 146.700152 63.032313 
L 147.396338 64.389416 
L 147.6284 64.415663 
L 148.324585 65.144887 
L 148.788709 65.267062 
L 149.252833 65.066674 
L 149.716956 64.602521 
L 150.413142 63.516579 
L 151.805513 61.165158 
L 152.269637 60.738176 
L 152.73376 60.623939 
L 153.197884 60.832721 
L 153.662008 61.332847 
L 154.358194 62.456696 
L 155.518503 64.415252 
L 155.982627 64.854813 
L 156.44675 64.997463 
L 157.142936 64.879002 
L 157.839121 63.938691 
L 159.463554 61.066153 
L 159.927678 60.619072 
L 160.391802 60.454676 
L 160.855926 60.624598 
L 161.320049 61.118055 
L 162.248297 62.652805 
L 163.176544 64.238054 
L 163.640668 64.745905 
L 164.104792 64.936137 
L 164.568915 64.829493 
L 165.033039 64.446151 
L 165.961287 62.888362 
L 166.889534 61.145621 
L 167.58572 60.348396 
L 168.049843 60.185678 
L 168.513967 60.340095 
L 168.978091 60.804355 
L 169.674276 61.955991 
L 170.602524 63.606768 
L 171.298709 64.44343 
L 171.762833 64.695591 
L 171.994895 64.71507 
L 172.459019 64.391669 
L 173.155204 63.430473 
L 175.011699 60.359165 
L 175.475823 60.015504 
L 175.939947 59.988272 
L 176.40407 60.255676 
L 177.100256 61.067208 
L 178.724689 63.73037 
L 179.420875 64.235963 
L 179.884998 64.206964 
L 180.349122 63.841954 
L 181.045308 62.828528 
L 182.669741 60.062725 
L 183.133864 59.733453 
L 183.597988 59.646068 
L 184.062112 59.821776 
L 184.526236 60.272358 
L 185.918607 62.603848 
L 186.614792 63.589454 
L 187.078916 63.909179 
L 187.310978 63.972846 
L 187.775102 63.793831 
L 188.239225 63.328081 
L 189.167473 61.820058 
L 190.327782 59.855439 
L 190.791906 59.433311 
L 191.25603 59.314536 
L 191.720153 59.519563 
L 192.184277 60.013321 
L 192.880463 61.137814 
L 194.040772 63.095711 
L 194.504896 63.562496 
L 194.969019 63.737423 
L 195.433143 63.600547 
L 195.897267 63.168081 
L 196.593452 62.143386 
L 197.985824 59.699876 
L 198.449947 59.277729 
L 198.914071 59.150652 
L 199.378195 59.34378 
L 199.842319 59.833142 
L 200.770566 61.368984 
L 201.466752 62.572267 
L 202.162937 63.357722 
L 202.627061 63.54547 
L 203.091185 63.403909 
L 203.78737 62.63946 
L 204.715618 61.051202 
L 205.643865 59.608623 
L 206.107989 59.177376 
L 206.572113 59.037108 
L 207.036236 59.181349 
L 207.268298 59.291068 
L 207.732422 59.876862 
L 209.356855 62.607215 
L 210.05304 63.25349 
L 210.517164 63.316662 
L 210.981288 63.040628 
L 211.677474 62.152674 
L 213.533968 59.178688 
L 213.998092 58.879948 
L 214.462216 58.892278 
L 214.92634 59.210068 
L 215.622525 60.100714 
L 217.246958 62.664343 
L 217.711082 63.026303 
L 218.175206 63.101087 
L 218.407268 63.029504 
L 219.103453 62.320834 
L 219.799639 61.209357 
L 220.727886 59.621941 
L 221.424072 58.849955 
L 221.888195 58.665409 
L 222.120257 58.640832 
L 222.584381 58.937199 
L 223.048505 59.515438 
L 225.137062 62.690807 
L 225.601185 62.927358 
L 226.065309 62.825524 
L 226.529433 62.449659 
L 227.225618 61.438006 
L 228.617989 59.10946 
L 229.082113 58.649299 
L 229.546237 58.477312 
L 230.010361 58.617399 
L 230.474484 59.047953 
L 231.17067 60.091095 
L 232.563041 62.293625 
L 233.027165 62.660285 
L 233.491289 62.732135 
L 233.955412 62.496294 
L 234.419536 61.976353 
L 235.347783 60.454257 
L 236.276031 58.96511 
L 236.740155 58.505459 
L 237.204278 58.326301 
L 237.668402 58.446793 
L 238.132526 58.855532 
L 238.828711 59.877102 
L 240.221083 62.077123 
L 240.685206 62.46829 
L 241.14933 62.591754 
L 241.613454 62.375571 
L 242.077577 61.870033 
L 242.773763 60.748246 
L 243.934072 58.819291 
L 244.398196 58.332275 
L 244.86232 58.139837 
L 245.326444 58.254058 
L 245.790567 58.660717 
L 246.486753 59.680812 
L 247.879124 61.884763 
L 248.343248 62.288028 
L 248.807371 62.39417 
L 249.271495 62.188646 
L 249.735619 61.703052 
L 250.431805 60.605775 
L 251.592114 58.66016 
L 252.056238 58.168793 
L 252.520361 57.957146 
L 252.984485 58.066687 
L 253.448609 58.471774 
L 254.144794 59.459366 
L 255.769227 61.967369 
L 256.233351 62.262471 
L 256.697475 62.245933 
L 257.161599 61.932145 
L 257.625722 61.358541 
L 258.55397 59.721495 
L 259.250155 58.573565 
L 259.714279 58.058978 
L 260.178403 57.827527 
L 260.642526 57.929183 
L 261.10665 58.329364 
L 261.802836 59.34758 
L 263.195207 61.654384 
L 263.891393 62.141033 
L 264.355516 62.12473 
L 264.81964 61.796941 
L 265.515826 60.799017 
L 267.37232 57.659021 
L 267.836444 57.4543 
L 268.300568 57.5783 
L 268.764692 58.01514 
L 269.460877 59.071953 
L 270.621187 61.096714 
L 271.317372 61.771432 
L 271.781496 61.880019 
L 272.24562 61.680456 
L 272.709743 61.169802 
L 273.405929 59.857452 
L 274.7983 57.540131 
L 275.262424 57.190665 
L 275.958609 57.116289 
L 276.422733 57.555198 
L 277.118919 58.664385 
L 278.51129 61.028252 
L 278.975414 61.43516 
L 279.439537 61.497754 
L 279.903661 61.265429 
L 280.599847 60.43292 
L 281.760156 58.281882 
L 282.456342 57.250175 
L 282.920465 56.867734 
L 283.384589 56.812768 
L 283.848713 57.165398 
L 284.544898 57.980421 
L 286.401393 61.094702 
L 286.865517 61.350274 
L 287.329641 61.274675 
L 287.793764 60.891795 
L 288.48995 59.848429 
L 290.114383 57.058929 
L 290.578507 56.673081 
L 291.04263 56.619866 
L 291.506754 56.910234 
L 291.970878 57.469056 
L 292.899125 59.099723 
L 293.827373 60.597422 
L 294.291497 61.021515 
L 294.75562 61.110085 
L 295.219744 60.907222 
L 295.683868 60.389161 
L 296.380053 59.181013 
L 297.540363 57.109095 
L 298.004486 56.603541 
L 298.46861 56.41887 
L 298.932734 56.521962 
L 299.396857 56.938714 
L 300.093043 58.001058 
L 301.485414 60.31826 
L 301.949538 60.719096 
L 302.413662 60.841302 
L 302.877785 60.647771 
L 303.341909 60.148756 
L 304.038095 58.982117 
L 305.198404 56.955117 
L 305.662528 56.441108 
L 306.126652 56.227357 
L 306.590775 56.369405 
L 307.054899 56.789421 
L 307.983146 58.207028 
L 309.143456 60.08824 
L 309.607579 60.489818 
L 310.071703 60.598831 
L 310.535827 60.413774 
L 310.999951 59.923958 
L 311.696136 58.807564 
L 312.392322 57.524543 
L 313.088507 56.528905 
L 313.552631 56.15855 
L 314.016755 56.08781 
L 314.480879 56.318248 
L 314.945002 56.821375 
L 317.033559 60.053858 
L 317.497683 60.262661 
L 317.961806 60.231639 
L 318.42593 59.955996 
L 319.122116 58.980159 
L 320.746549 56.294921 
L 321.210673 55.910213 
L 321.674796 55.799029 
L 322.13892 56.035415 
L 322.603044 56.541412 
L 323.531291 58.050809 
L 324.227477 59.212035 
L 324.923662 59.922154 
L 325.387786 60.040156 
L 325.85191 59.846106 
L 326.316034 59.3788 
L 327.244281 57.988108 
L 328.172528 56.374611 
L 328.868714 55.606428 
L 329.332838 55.50942 
L 329.796961 55.724799 
L 330.261085 56.216785 
L 331.189333 57.726752 
L 332.11758 59.167595 
L 332.581704 59.661366 
L 333.045828 59.808462 
L 333.509951 59.666014 
L 333.974075 59.212197 
L 334.670261 58.110821 
L 336.062632 55.802139 
L 336.526755 55.401278 
L 336.758817 55.260774 
L 337.222941 55.326766 
L 337.687065 55.683946 
L 338.38325 56.68298 
L 340.007683 59.206173 
L 340.471807 59.52719 
L 340.935931 59.534863 
L 341.400055 59.232312 
L 341.864178 58.638669 
L 342.792426 56.9362 
L 343.720673 55.553013 
L 344.184797 55.157016 
L 344.648921 55.063533 
L 345.113044 55.267195 
L 345.577168 55.75713 
L 346.505416 57.232295 
L 347.433663 58.639971 
L 347.897787 59.069724 
L 348.36191 59.230415 
L 348.826034 59.081554 
L 349.290158 58.637546 
L 349.986343 57.588238 
L 351.378715 55.387116 
L 351.842838 54.982099 
L 352.306962 54.860196 
L 352.771086 55.056163 
L 353.23521 55.529165 
L 354.163457 57.007184 
L 355.091704 58.469048 
L 355.555828 58.897297 
L 356.019952 59.064764 
L 356.484076 58.900818 
L 356.948199 58.459303 
L 357.644385 57.397777 
L 359.268818 54.815587 
L 359.732942 54.595413 
L 360.197065 54.662828 
L 360.661189 54.868022 
L 361.357375 55.848243 
L 362.749746 58.085569 
L 363.21387 58.550085 
L 363.677993 58.71058 
L 364.142117 58.564028 
L 364.606241 58.155825 
L 365.070365 57.501038 
L 366.230674 55.284629 
L 366.926859 54.419272 
L 367.390983 54.151106 
L 367.855107 54.192503 
L 368.319231 54.540325 
L 369.015416 55.499597 
L 370.639849 58.06617 
L 371.103973 58.393609 
L 371.568097 58.423325 
L 372.03222 58.132318 
L 372.496344 57.571246 
L 374.352839 54.441313 
L 374.816963 54.032009 
L 375.281086 53.924585 
L 375.74521 54.140979 
L 376.209334 54.641913 
L 377.137581 56.146738 
L 377.833767 57.245418 
L 378.529953 58.014712 
L 378.994076 58.246652 
L 379.4582 58.143164 
L 379.922324 57.7086 
L 380.850571 56.179757 
L 382.01088 54.282275 
L 382.475004 53.875768 
L 382.939128 53.754587 
L 383.403252 53.95435 
L 383.867375 54.428706 
L 384.563561 55.521675 
L 385.72387 57.423997 
L 386.187994 57.875177 
L 386.652118 58.041865 
L 387.116241 57.92185 
L 387.580365 57.496638 
L 388.276551 56.4204 
L 389.43686 54.404397 
L 389.900984 53.874289 
L 390.365108 53.590065 
L 390.829231 53.649063 
L 391.061293 54.052301 
L 391.525417 54.470022 
L 392.221602 55.480549 
L 392.917788 56.643 
L 394.078097 57.681352 
L 394.542221 57.712318 
L 395.006345 57.457483 
L 395.470469 56.951189 
L 396.398716 55.495016 
L 397.094902 54.419292 
L 397.559025 53.911033 
L 398.023149 53.659566 
L 398.487273 53.684318 
L 398.487273 53.684318 
" style="fill:none;stroke:#ff0000;stroke-linecap:square;stroke-width:1.5;"/>
   </g>
   <g id="line2d_19">
    <path clip-path="url(#pd59748009b)" d="M 73.832727 289.726512 
L 74.993037 294.355071 
L 75.45716 295.267573 
L 75.689222 295.427759 
L 75.921284 295.40168 
L 76.385408 294.88592 
L 76.849531 293.541971 
L 77.545717 290.60788 
L 78.473965 286.456331 
L 78.938088 284.998113 
L 79.402212 284.233576 
L 79.634274 284.159944 
L 79.866336 284.272706 
L 80.098398 284.57837 
L 80.562521 285.756824 
L 81.490769 289.654887 
L 82.419016 293.551164 
L 82.88314 294.850213 
L 83.347264 295.452603 
L 83.579325 295.435136 
L 83.811387 295.20679 
L 84.275511 294.192567 
L 84.971697 291.593399 
L 86.132006 286.574161 
L 86.59613 285.102455 
L 87.060253 284.338341 
L 87.524377 284.300361 
L 87.988501 285.126414 
L 88.452625 286.531059 
L 90.30912 294.295716 
L 90.773243 295.266215 
L 91.005305 295.488 
L 91.237367 295.424256 
L 91.469429 295.188179 
L 91.933553 294.169632 
L 92.8618 290.853703 
L 94.022109 285.822531 
L 94.486233 284.587384 
L 94.718295 284.258093 
L 94.950357 284.133561 
L 95.182419 284.199928 
L 95.646542 284.968251 
L 96.110666 286.379813 
L 97.967161 294.062543 
L 98.431285 295.082431 
L 98.663347 295.326247 
L 98.895408 295.350461 
L 99.359532 294.882294 
L 99.823656 293.612156 
L 100.519841 290.845944 
L 101.680151 286.00389 
L 102.144274 284.746136 
L 102.376336 284.397688 
L 102.608398 284.263044 
L 102.84046 284.308331 
L 103.304584 285.041958 
L 103.768708 286.434981 
L 104.696955 290.404716 
L 105.625202 293.98802 
L 106.089326 294.949184 
L 106.321388 295.153714 
L 106.55345 295.163893 
L 106.785512 294.978694 
L 107.249635 294.063353 
L 107.713759 292.767476 
L 108.409945 290.02573 
L 109.338192 286.367077 
L 109.802316 285.166042 
L 110.26644 284.632233 
L 110.498502 284.642567 
L 110.730563 284.842859 
L 111.194687 285.764543 
L 111.890873 288.178656 
L 113.283244 293.861823 
L 113.747368 294.834078 
L 113.979429 295.049577 
L 114.211491 295.09013 
L 114.443553 294.937171 
L 114.907677 294.087494 
L 115.371801 292.641369 
L 116.300048 288.800193 
L 116.996234 286.162122 
L 117.460357 285.101877 
L 117.924481 284.683879 
L 118.156543 284.726278 
L 118.620667 285.40171 
L 119.08479 286.657831 
L 120.013038 290.309502 
L 120.941285 293.656718 
L 121.405409 294.62106 
L 121.637471 294.849705 
L 121.869533 294.894579 
L 122.101595 294.756552 
L 122.565718 293.963618 
L 123.029842 292.593171 
L 125.118399 285.292783 
L 125.582523 284.834335 
L 125.814584 284.876621 
L 126.046646 285.076054 
L 126.278708 285.459495 
L 126.974894 287.586364 
L 128.599327 293.568525 
L 129.063451 294.478795 
L 129.295512 294.693729 
L 129.527574 294.736795 
L 129.759636 294.621859 
L 130.22376 293.847622 
L 130.919945 291.7771 
L 132.544378 285.835364 
L 133.008502 285.045808 
L 133.472626 284.904015 
L 133.93675 285.495058 
L 134.400873 286.661746 
L 135.329121 290.152708 
L 136.025306 292.785312 
L 136.48943 294.048385 
L 136.953554 294.696235 
L 137.185616 294.760833 
L 137.417678 294.649793 
L 137.881801 293.916056 
L 138.577987 291.87228 
L 139.970358 286.771612 
L 140.434482 285.589049 
L 140.898605 285.139496 
L 141.130667 285.102016 
L 141.594791 285.569113 
L 142.058915 286.552961 
L 142.7551 288.940853 
L 143.91541 293.067646 
L 144.379533 294.125494 
L 144.843657 294.704523 
L 145.075719 294.630929 
L 145.307781 294.403336 
L 145.771905 293.463601 
L 146.46809 291.204981 
L 147.396338 287.579991 
L 147.860461 286.546406 
L 148.324585 285.608288 
L 148.556647 285.351757 
L 148.788709 285.283995 
L 149.020771 285.376261 
L 149.484894 285.986437 
L 149.949018 287.1352 
L 150.877266 290.353779 
L 151.805513 293.299234 
L 152.269637 294.124666 
L 152.501699 294.309113 
L 152.73376 294.332765 
L 152.965822 294.196638 
L 153.429946 293.450358 
L 153.89407 292.198567 
L 155.750565 286.112264 
L 156.214688 285.495845 
L 156.44675 285.391453 
L 156.910874 285.550408 
L 157.142936 285.811919 
L 157.60706 286.94608 
L 158.303245 289.378589 
L 159.231493 292.704809 
L 159.695616 293.852262 
L 160.15974 294.430781 
L 160.391802 294.503491 
L 160.623864 294.401449 
L 161.087988 293.679673 
L 161.552111 292.412919 
L 163.640668 285.650209 
L 164.104792 285.213936 
L 164.336854 285.236133 
L 164.568915 285.402273 
L 165.033039 286.186439 
L 165.729225 288.362997 
L 167.121596 293.263453 
L 167.58572 294.183456 
L 167.817782 294.425423 
L 168.049843 294.493084 
L 168.281905 294.391577 
L 168.513967 294.162837 
L 168.978091 293.198368 
L 169.674276 290.882706 
L 170.834586 286.806425 
L 171.298709 285.732476 
L 171.762833 285.215847 
L 171.994895 285.188627 
L 172.459019 285.741984 
L 172.923143 286.854082 
L 173.85139 290.062995 
L 174.779637 293.118695 
L 175.243761 294.046681 
L 175.707885 294.40753 
L 175.939947 294.327471 
L 176.40407 293.728492 
L 177.100256 291.936827 
L 178.724689 286.384812 
L 179.188813 285.51091 
L 179.420875 285.285639 
L 179.652937 285.216943 
L 179.884998 285.317928 
L 180.349122 286.012653 
L 180.813246 287.233328 
L 182.901803 293.879197 
L 183.365926 294.313171 
L 183.597988 294.31498 
L 183.83005 294.172014 
L 184.294174 293.458285 
L 184.758297 292.182752 
L 186.846854 285.637255 
L 187.310978 285.259247 
L 187.54304 285.3394 
L 188.007164 285.928623 
L 188.471287 287.090315 
L 189.167473 289.458416 
L 190.09572 292.723258 
L 190.559844 293.815342 
L 191.023968 294.344115 
L 191.25603 294.362518 
L 191.488091 294.224065 
L 191.952215 293.478769 
L 192.416339 292.225801 
L 194.272834 286.103408 
L 194.736958 285.430503 
L 194.969019 285.318864 
L 195.201081 285.368876 
L 195.433143 285.575248 
L 195.897267 286.445071 
L 196.593452 288.527827 
L 197.985824 293.308346 
L 198.449947 294.149993 
L 198.682009 294.3486 
L 198.914071 294.388375 
L 199.146133 294.279561 
L 199.610257 293.553202 
L 200.07438 292.31672 
L 202.162937 285.788901 
L 202.627061 285.37337 
L 202.859123 285.418848 
L 203.091185 285.612335 
L 203.555308 286.462882 
L 204.251494 288.521195 
L 205.643865 293.04019 
L 206.107989 293.891851 
L 206.340051 294.10647 
L 206.572113 294.164781 
L 206.804174 294.086135 
L 207.268298 293.53477 
L 207.732422 292.36678 
L 209.588917 286.368964 
L 210.05304 285.609352 
L 210.285102 285.457889 
L 210.517164 285.470652 
L 210.749226 285.651034 
L 211.21335 286.456397 
L 211.909535 288.481651 
L 213.069845 292.438098 
L 213.533968 293.545417 
L 213.998092 294.123718 
L 214.230154 294.183502 
L 214.462216 294.084564 
L 214.92634 293.439287 
L 215.622525 291.598878 
L 217.246958 286.417655 
L 217.711082 285.675174 
L 217.943144 285.512954 
L 218.175206 285.517116 
L 218.407268 285.665747 
L 218.871391 286.446902 
L 219.567577 288.423235 
L 220.959948 292.973548 
L 221.424072 293.86743 
L 221.888195 294.197247 
L 222.120257 294.176918 
L 222.584381 293.574158 
L 223.048505 292.407872 
L 225.137062 285.962229 
L 225.601185 285.480712 
L 225.833247 285.487755 
L 226.297371 285.939241 
L 226.761495 286.970831 
L 227.45768 289.191303 
L 228.385928 292.346297 
L 228.850051 293.489897 
L 229.314175 294.106967 
L 229.546237 294.191785 
L 229.778299 294.118518 
L 230.242423 293.517558 
L 230.706546 292.38765 
L 231.634794 289.245526 
L 232.330979 287.005964 
L 232.795103 285.981437 
L 233.259227 285.499191 
L 233.491289 285.49877 
L 233.72335 285.648132 
L 234.187474 286.385521 
L 234.88366 288.369947 
L 236.276031 292.935735 
L 236.740155 293.841444 
L 237.204278 294.180553 
L 237.43634 294.116353 
L 237.900464 293.549751 
L 238.364588 292.452101 
L 239.292835 289.340934 
L 239.989021 287.128143 
L 240.453144 286.036987 
L 240.917268 285.520572 
L 241.14933 285.463895 
L 241.381392 285.592379 
L 241.845516 286.294002 
L 242.309639 287.509322 
L 244.166134 293.423889 
L 244.630258 294.100336 
L 244.86232 294.207853 
L 245.094382 294.159705 
L 245.326444 293.96544 
L 245.790567 293.132152 
L 246.486753 291.07735 
L 247.879124 286.566816 
L 248.343248 285.73431 
L 248.57531 285.535079 
L 248.807371 285.493522 
L 249.039433 285.606163 
L 249.503557 286.278313 
L 249.967681 287.45974 
L 252.056238 293.75701 
L 252.520361 294.154974 
L 252.752423 294.116855 
L 252.984485 293.926196 
L 253.448609 293.111595 
L 254.144794 291.096982 
L 255.537166 286.5823 
L 256.001289 285.723095 
L 256.233351 285.509515 
L 256.465413 285.451816 
L 256.697475 285.554088 
L 257.161599 286.203154 
L 257.625722 287.369519 
L 258.55397 290.613458 
L 259.250155 292.871292 
L 259.714279 293.880897 
L 260.178403 294.311417 
L 260.410465 294.285733 
L 260.874588 293.751869 
L 261.338712 292.678035 
L 262.034898 290.361851 
L 263.195207 286.515846 
L 263.659331 285.690032 
L 263.891393 285.460677 
L 264.123454 285.390136 
L 264.355516 285.481643 
L 264.81964 286.126488 
L 265.515826 288.066182 
L 267.140259 293.56095 
L 267.604382 294.291412 
L 267.836444 294.400946 
L 268.068506 294.339286 
L 268.300568 294.128524 
L 268.764692 293.237413 
L 269.460877 291.073869 
L 270.621187 286.973591 
L 271.08531 285.910499 
L 271.549434 285.355827 
L 271.781496 285.306909 
L 272.013558 285.414059 
L 272.477681 286.126892 
L 272.941805 287.542885 
L 274.7983 293.607848 
L 275.262424 294.271733 
L 275.494486 294.373083 
L 275.958609 294.223726 
L 276.422733 293.313742 
L 277.118919 291.060362 
L 278.51129 286.249294 
L 278.975414 285.406844 
L 279.207475 285.231143 
L 279.439537 285.219539 
L 279.671599 285.371783 
L 280.135723 286.135874 
L 280.831909 288.12442 
L 282.456342 293.631274 
L 282.920465 294.363212 
L 283.152527 294.494271 
L 283.384589 294.451036 
L 283.848713 293.791253 
L 284.544898 292.017714 
L 286.401393 285.791196 
L 286.865517 285.237151 
L 287.097579 285.198388 
L 287.329641 285.344286 
L 287.793764 286.079577 
L 288.257888 287.337515 
L 290.346445 294.040928 
L 290.810569 294.464518 
L 291.04263 294.419201 
L 291.506754 293.830245 
L 291.970878 292.68786 
L 292.899125 289.393657 
L 293.827373 286.354286 
L 294.291497 285.484577 
L 294.75562 285.257847 
L 294.987682 285.356482 
L 295.451806 286.082785 
L 295.91593 287.337943 
L 297.772424 293.604287 
L 298.236548 294.306803 
L 298.46861 294.402967 
L 298.700672 294.359005 
L 298.932734 294.161141 
L 299.396857 293.297399 
L 300.093043 291.133851 
L 301.485414 286.40329 
L 301.949538 285.557893 
L 302.1816 285.343086 
L 302.413662 285.290701 
L 302.645724 285.400985 
L 303.109847 286.081889 
L 303.573971 287.310202 
L 305.662528 293.926169 
L 306.126652 294.34064 
L 306.358713 294.30545 
L 306.822837 293.717216 
L 307.286961 292.620067 
L 308.215208 289.513927 
L 309.143456 286.547732 
L 309.607579 285.707199 
L 309.839641 285.501805 
L 310.071703 285.451035 
L 310.303765 285.543365 
L 310.767889 286.205343 
L 311.232012 287.382388 
L 312.392322 291.410054 
L 313.088507 293.357778 
L 313.552631 294.068438 
L 313.784693 294.206184 
L 314.016755 294.186382 
L 314.248817 294.015209 
L 314.71294 293.242964 
L 315.409126 291.146925 
L 316.801497 286.568117 
L 317.265621 285.749767 
L 317.729745 285.497183 
L 317.961806 285.584756 
L 318.42593 286.16824 
L 319.122116 288.069433 
L 320.746549 293.325524 
L 321.210673 294.064339 
L 321.674796 294.228314 
L 321.906858 294.054001 
L 322.370982 293.274244 
L 323.067167 291.241794 
L 324.459539 286.651911 
L 324.923662 285.751368 
L 325.155724 285.509578 
L 325.387786 285.464771 
L 325.619848 285.554467 
L 326.083972 286.188598 
L 326.780157 288.008985 
L 328.40459 293.231441 
L 328.868714 294.09257 
L 329.100776 294.256178 
L 329.332838 294.259381 
L 329.5649 294.104789 
L 330.029023 293.364652 
L 330.725209 291.340011 
L 332.349642 286.151129 
L 332.813766 285.477718 
L 333.045828 285.399768 
L 333.277889 285.453373 
L 333.509951 285.670249 
L 333.974075 286.549303 
L 334.670261 288.692853 
L 335.83057 292.643326 
L 336.294694 293.699869 
L 336.758817 294.250659 
L 336.990879 294.255914 
L 337.222941 294.115131 
L 337.687065 293.382528 
L 338.38325 291.37345 
L 339.775622 286.750038 
L 340.239745 285.812335 
L 340.703869 285.472591 
L 340.935931 285.515289 
L 341.400055 286.087729 
L 341.864178 287.227906 
L 343.488611 292.636518 
L 343.952735 293.631178 
L 344.416859 294.096386 
L 344.648921 294.099989 
L 344.880983 293.954979 
L 345.345106 293.226875 
L 346.041292 291.261334 
L 347.433663 286.773653 
L 347.897787 285.887405 
L 348.36191 285.568779 
L 348.593972 285.637798 
L 349.058096 286.221277 
L 349.52222 287.315011 
L 350.450467 290.37393 
L 351.378715 293.128759 
L 351.842838 293.913899 
L 352.0749 294.090442 
L 352.306962 294.114354 
L 352.539024 293.978009 
L 353.003148 293.270712 
L 353.467271 292.060836 
L 355.323766 286.266718 
L 355.78789 285.643544 
L 356.019952 285.547799 
L 356.252014 285.618215 
L 356.716138 286.207508 
L 357.180261 287.295268 
L 358.340571 291.110841 
L 358.804694 292.71283 
L 359.268818 293.716116 
L 359.732942 294.156476 
L 359.965004 294.148041 
L 360.429127 293.772028 
L 360.661189 293.406607 
L 361.357375 291.401023 
L 362.749746 286.739368 
L 363.21387 285.772401 
L 363.445932 285.496774 
L 363.677993 285.394926 
L 363.910055 285.452193 
L 364.374179 285.979368 
L 364.838303 287.06707 
L 365.534488 289.462745 
L 366.694798 293.269716 
L 367.158921 294.036076 
L 367.390983 294.222289 
L 367.623045 294.233484 
L 367.855107 294.113465 
L 368.319231 293.392972 
L 369.015416 291.425385 
L 370.639849 286.193915 
L 371.103973 285.514231 
L 371.336035 285.408581 
L 371.568097 285.447317 
L 371.800159 285.654333 
L 372.264282 286.506902 
L 372.728406 287.866829 
L 374.352839 293.211218 
L 374.816963 294.009244 
L 375.049025 294.188843 
L 375.281086 294.21807 
L 375.513148 294.068385 
L 375.977272 293.344082 
L 376.673458 291.364217 
L 378.065829 286.828312 
L 378.529953 285.900421 
L 378.994076 285.480695 
L 379.226138 285.509403 
L 379.4582 285.700625 
L 379.922324 286.543969 
L 380.618509 288.683055 
L 382.01088 293.215479 
L 382.475004 294.00808 
L 382.707066 294.200624 
L 382.939128 294.234714 
L 383.17119 294.100567 
L 383.635314 293.383668 
L 384.099437 292.160863 
L 385.955932 286.228836 
L 386.420056 285.543849 
L 386.652118 285.45127 
L 386.88418 285.491619 
L 387.116241 285.684764 
L 387.580365 286.520002 
L 388.276551 288.633672 
L 389.43686 292.589975 
L 389.900984 293.642572 
L 390.365108 294.174495 
L 390.597169 294.207099 
L 390.829231 294.058877 
L 392.221602 290.543205 
L 393.14985 287.637627 
L 393.846035 286.17001 
L 394.310159 285.79543 
L 394.542221 285.824762 
L 395.006345 286.316908 
L 395.470469 287.304708 
L 396.398716 290.171396 
L 397.094902 292.281311 
L 397.559025 293.283602 
L 398.023149 293.783056 
L 398.255211 293.83005 
L 398.487273 293.723327 
L 398.487273 293.723327 
" style="fill:none;stroke:#008000;stroke-linecap:square;stroke-width:1.5;"/>
   </g>
   <g id="patch_3">
    <path d="M 57.6 307.584 
L 57.6 41.472 
" style="fill:none;stroke:#000000;stroke-linecap:square;stroke-linejoin:miter;stroke-width:0.8;"/>
   </g>
   <g id="patch_4">
    <path d="M 414.72 307.584 
L 414.72 41.472 
" style="fill:none;stroke:#000000;stroke-linecap:square;stroke-linejoin:miter;stroke-width:0.8;"/>
   </g>
   <g id="patch_5">
    <path d="M 57.6 307.584 
L 414.72 307.584 
" style="fill:none;stroke:#000000;stroke-linecap:square;stroke-linejoin:miter;stroke-width:0.8;"/>
   </g>
   <g id="patch_6">
    <path d="M 57.6 41.472 
L 414.72 41.472 
" style="fill:none;stroke:#000000;stroke-linecap:square;stroke-linejoin:miter;stroke-width:0.8;"/>
   </g>
   <g id="legend_1">
    <g id="patch_7">
     <path d="M 351.0075 198.045187 
L 407.72 198.045187 
Q 409.72 198.045187 409.72 196.045187 
L 409.72 153.010812 
Q 409.72 151.010812 407.72 151.010812 
L 351.0075 151.010812 
Q 349.0075 151.010812 349.0075 153.010812 
L 349.0075 196.045187 
Q 349.0075 198.045187 351.0075 198.045187 
z
" style="fill:#ffffff;opacity:0.8;stroke:#cccccc;stroke-linejoin:miter;"/>
    </g>
    <g id="line2d_20">
     <path d="M 353.0075 159.10925 
L 373.0075 159.10925 
" style="fill:none;stroke:#1f77b4;stroke-linecap:square;stroke-width:1.5;"/>
    </g>
    <g id="line2d_21"/>
    <g id="text_17">
     <!-- 0-&gt;1 -->
     <defs>
      <path d="M 4.890625 31.390625 
L 31.203125 31.390625 
L 31.203125 23.390625 
L 4.890625 23.390625 
z
" id="DejaVuSans-45"/>
      <path d="M 10.59375 49.21875 
L 10.59375 58.109375 
L 73.1875 35.40625 
L 73.1875 27.296875 
L 10.59375 4.59375 
L 10.59375 13.484375 
L 60.890625 31.296875 
z
" id="DejaVuSans-62"/>
     </defs>
     <g transform="translate(381.0075 162.60925)scale(0.1 -0.1)">
      <use xlink:href="#DejaVuSans-48"/>
      <use x="63.623047" xlink:href="#DejaVuSans-45"/>
      <use x="99.707031" xlink:href="#DejaVuSans-62"/>
      <use x="183.496094" xlink:href="#DejaVuSans-49"/>
     </g>
    </g>
    <g id="line2d_22">
     <path d="M 353.0075 173.787375 
L 373.0075 173.787375 
" style="fill:none;stroke:#ff0000;stroke-linecap:square;stroke-width:1.5;"/>
    </g>
    <g id="line2d_23"/>
    <g id="text_18">
     <!-- 1-&gt;0 -->
     <g transform="translate(381.0075 177.287375)scale(0.1 -0.1)">
      <use xlink:href="#DejaVuSans-49"/>
      <use x="63.623047" xlink:href="#DejaVuSans-45"/>
      <use x="99.707031" xlink:href="#DejaVuSans-62"/>
      <use x="183.496094" xlink:href="#DejaVuSans-48"/>
     </g>
    </g>
    <g id="line2d_24">
     <path d="M 353.0075 188.4655 
L 373.0075 188.4655 
" style="fill:none;stroke:#008000;stroke-linecap:square;stroke-width:1.5;"/>
    </g>
    <g id="line2d_25"/>
    <g id="text_19">
     <!-- diff -->
     <defs>
      <path d="M 45.40625 46.390625 
L 45.40625 75.984375 
L 54.390625 75.984375 
L 54.390625 0 
L 45.40625 0 
L 45.40625 8.203125 
Q 42.578125 3.328125 38.25 0.953125 
Q 33.9375 -1.421875 27.875 -1.421875 
Q 17.96875 -1.421875 11.734375 6.484375 
Q 5.515625 14.40625 5.515625 27.296875 
Q 5.515625 40.1875 11.734375 48.09375 
Q 17.96875 56 27.875 56 
Q 33.9375 56 38.25 53.625 
Q 42.578125 51.265625 45.40625 46.390625 
z
M 14.796875 27.296875 
Q 14.796875 17.390625 18.875 11.75 
Q 22.953125 6.109375 30.078125 6.109375 
Q 37.203125 6.109375 41.296875 11.75 
Q 45.40625 17.390625 45.40625 27.296875 
Q 45.40625 37.203125 41.296875 42.84375 
Q 37.203125 48.484375 30.078125 48.484375 
Q 22.953125 48.484375 18.875 42.84375 
Q 14.796875 37.203125 14.796875 27.296875 
z
" id="DejaVuSans-100"/>
      <path d="M 9.421875 54.6875 
L 18.40625 54.6875 
L 18.40625 0 
L 9.421875 0 
z
M 9.421875 75.984375 
L 18.40625 75.984375 
L 18.40625 64.59375 
L 9.421875 64.59375 
z
" id="DejaVuSans-105"/>
      <path d="M 37.109375 75.984375 
L 37.109375 68.5 
L 28.515625 68.5 
Q 23.6875 68.5 21.796875 66.546875 
Q 19.921875 64.59375 19.921875 59.515625 
L 19.921875 54.6875 
L 34.71875 54.6875 
L 34.71875 47.703125 
L 19.921875 47.703125 
L 19.921875 0 
L 10.890625 0 
L 10.890625 47.703125 
L 2.296875 47.703125 
L 2.296875 54.6875 
L 10.890625 54.6875 
L 10.890625 58.5 
Q 10.890625 67.625 15.140625 71.796875 
Q 19.390625 75.984375 28.609375 75.984375 
z
" id="DejaVuSans-102"/>
     </defs>
     <g transform="translate(381.0075 191.9655)scale(0.1 -0.1)">
      <use xlink:href="#DejaVuSans-100"/>
      <use x="63.476562" xlink:href="#DejaVuSans-105"/>
      <use x="91.259766" xlink:href="#DejaVuSans-102"/>
      <use x="126.464844" xlink:href="#DejaVuSans-102"/>
     </g>
    </g>
   </g>
  </g>
 </g>
 <defs>
  <clipPath id="pd59748009b">
   <rect height="266.112" width="357.12" x="57.6" y="41.472"/>
  </clipPath>
 </defs>
</svg>
