<?xml version="1.0" encoding="utf-8" standalone="no"?>
<!DOCTYPE svg PUBLIC "-//W3C//DTD SVG 1.1//EN"
  "http://www.w3.org/Graphics/SVG/1.1/DTD/svg11.dtd">
<!-- Created with matplotlib (https://matplotlib.org/) -->
<svg height="345.6pt" version="1.1" viewBox="0 0 460.8 345.6" width="460.8pt" xmlns="http://www.w3.org/2000/svg" xmlns:xlink="http://www.w3.org/1999/xlink">
 <defs>
  <style type="text/css">
*{stroke-linecap:butt;stroke-linejoin:round;}
  </style>
 </defs>
 <g id="figure_1">
  <g id="patch_1">
   <path d="M 0 345.6 
L 460.8 345.6 
L 460.8 0 
L 0 0 
z
" style="fill:#ffffff;"/>
  </g>
  <g id="axes_1">
   <g id="patch_2">
    <path d="M 57.6 307.584 
L 414.72 307.584 
L 414.72 41.472 
L 57.6 41.472 
z
" style="fill:#ffffff;"/>
   </g>
   <g id="matplotlib.axis_1">
    <g id="xtick_1">
     <g id="line2d_1">
      <defs>
       <path d="M 0 0 
L 0 3.5 
" id="m0387915ae8" style="stroke:#000000;stroke-width:0.8;"/>
      </defs>
      <g>
       <use style="stroke:#000000;stroke-width:0.8;" x="73.832727" xlink:href="#m0387915ae8" y="307.584"/>
      </g>
     </g>
     <g id="text_1">
      <!-- 0 -->
      <defs>
       <path d="M 31.78125 66.40625 
Q 24.171875 66.40625 20.328125 58.90625 
Q 16.5 51.421875 16.5 36.375 
Q 16.5 21.390625 20.328125 13.890625 
Q 24.171875 6.390625 31.78125 6.390625 
Q 39.453125 6.390625 43.28125 13.890625 
Q 47.125 21.390625 47.125 36.375 
Q 47.125 51.421875 43.28125 58.90625 
Q 39.453125 66.40625 31.78125 66.40625 
z
M 31.78125 74.21875 
Q 44.046875 74.21875 50.515625 64.515625 
Q 56.984375 54.828125 56.984375 36.375 
Q 56.984375 17.96875 50.515625 8.265625 
Q 44.046875 -1.421875 31.78125 -1.421875 
Q 19.53125 -1.421875 13.0625 8.265625 
Q 6.59375 17.96875 6.59375 36.375 
Q 6.59375 54.828125 13.0625 64.515625 
Q 19.53125 74.21875 31.78125 74.21875 
z
" id="DejaVuSans-48"/>
      </defs>
      <g transform="translate(70.651477 322.182437)scale(0.1 -0.1)">
       <use xlink:href="#DejaVuSans-48"/>
      </g>
     </g>
    </g>
    <g id="xtick_2">
     <g id="line2d_2">
      <g>
       <use style="stroke:#000000;stroke-width:0.8;" x="120.2451" xlink:href="#m0387915ae8" y="307.584"/>
      </g>
     </g>
     <g id="text_2">
      <!-- 200 -->
      <defs>
       <path d="M 19.1875 8.296875 
L 53.609375 8.296875 
L 53.609375 0 
L 7.328125 0 
L 7.328125 8.296875 
Q 12.9375 14.109375 22.625 23.890625 
Q 32.328125 33.6875 34.8125 36.53125 
Q 39.546875 41.84375 41.421875 45.53125 
Q 43.3125 49.21875 43.3125 52.78125 
Q 43.3125 58.59375 39.234375 62.25 
Q 35.15625 65.921875 28.609375 65.921875 
Q 23.96875 65.921875 18.8125 64.3125 
Q 13.671875 62.703125 7.8125 59.421875 
L 7.8125 69.390625 
Q 13.765625 71.78125 18.9375 73 
Q 24.125 74.21875 28.421875 74.21875 
Q 39.75 74.21875 46.484375 68.546875 
Q 53.21875 62.890625 53.21875 53.421875 
Q 53.21875 48.921875 51.53125 44.890625 
Q 49.859375 40.875 45.40625 35.40625 
Q 44.1875 33.984375 37.640625 27.21875 
Q 31.109375 20.453125 19.1875 8.296875 
z
" id="DejaVuSans-50"/>
      </defs>
      <g transform="translate(110.70135 322.182437)scale(0.1 -0.1)">
       <use xlink:href="#DejaVuSans-50"/>
       <use x="63.623047" xlink:href="#DejaVuSans-48"/>
       <use x="127.246094" xlink:href="#DejaVuSans-48"/>
      </g>
     </g>
    </g>
    <g id="xtick_3">
     <g id="line2d_3">
      <g>
       <use style="stroke:#000000;stroke-width:0.8;" x="166.657472" xlink:href="#m0387915ae8" y="307.584"/>
      </g>
     </g>
     <g id="text_3">
      <!-- 400 -->
      <defs>
       <path d="M 37.796875 64.3125 
L 12.890625 25.390625 
L 37.796875 25.390625 
z
M 35.203125 72.90625 
L 47.609375 72.90625 
L 47.609375 25.390625 
L 58.015625 25.390625 
L 58.015625 17.1875 
L 47.609375 17.1875 
L 47.609375 0 
L 37.796875 0 
L 37.796875 17.1875 
L 4.890625 17.1875 
L 4.890625 26.703125 
z
" id="DejaVuSans-52"/>
      </defs>
      <g transform="translate(157.113722 322.182437)scale(0.1 -0.1)">
       <use xlink:href="#DejaVuSans-52"/>
       <use x="63.623047" xlink:href="#DejaVuSans-48"/>
       <use x="127.246094" xlink:href="#DejaVuSans-48"/>
      </g>
     </g>
    </g>
    <g id="xtick_4">
     <g id="line2d_4">
      <g>
       <use style="stroke:#000000;stroke-width:0.8;" x="213.069845" xlink:href="#m0387915ae8" y="307.584"/>
      </g>
     </g>
     <g id="text_4">
      <!-- 600 -->
      <defs>
       <path d="M 33.015625 40.375 
Q 26.375 40.375 22.484375 35.828125 
Q 18.609375 31.296875 18.609375 23.390625 
Q 18.609375 15.53125 22.484375 10.953125 
Q 26.375 6.390625 33.015625 6.390625 
Q 39.65625 6.390625 43.53125 10.953125 
Q 47.40625 15.53125 47.40625 23.390625 
Q 47.40625 31.296875 43.53125 35.828125 
Q 39.65625 40.375 33.015625 40.375 
z
M 52.59375 71.296875 
L 52.59375 62.3125 
Q 48.875 64.0625 45.09375 64.984375 
Q 41.3125 65.921875 37.59375 65.921875 
Q 27.828125 65.921875 22.671875 59.328125 
Q 17.53125 52.734375 16.796875 39.40625 
Q 19.671875 43.65625 24.015625 45.921875 
Q 28.375 48.1875 33.59375 48.1875 
Q 44.578125 48.1875 50.953125 41.515625 
Q 57.328125 34.859375 57.328125 23.390625 
Q 57.328125 12.15625 50.6875 5.359375 
Q 44.046875 -1.421875 33.015625 -1.421875 
Q 20.359375 -1.421875 13.671875 8.265625 
Q 6.984375 17.96875 6.984375 36.375 
Q 6.984375 53.65625 15.1875 63.9375 
Q 23.390625 74.21875 37.203125 74.21875 
Q 40.921875 74.21875 44.703125 73.484375 
Q 48.484375 72.75 52.59375 71.296875 
z
" id="DejaVuSans-54"/>
      </defs>
      <g transform="translate(203.526095 322.182437)scale(0.1 -0.1)">
       <use xlink:href="#DejaVuSans-54"/>
       <use x="63.623047" xlink:href="#DejaVuSans-48"/>
       <use x="127.246094" xlink:href="#DejaVuSans-48"/>
      </g>
     </g>
    </g>
    <g id="xtick_5">
     <g id="line2d_5">
      <g>
       <use style="stroke:#000000;stroke-width:0.8;" x="259.482217" xlink:href="#m0387915ae8" y="307.584"/>
      </g>
     </g>
     <g id="text_5">
      <!-- 800 -->
      <defs>
       <path d="M 31.78125 34.625 
Q 24.75 34.625 20.71875 30.859375 
Q 16.703125 27.09375 16.703125 20.515625 
Q 16.703125 13.921875 20.71875 10.15625 
Q 24.75 6.390625 31.78125 6.390625 
Q 38.8125 6.390625 42.859375 10.171875 
Q 46.921875 13.96875 46.921875 20.515625 
Q 46.921875 27.09375 42.890625 30.859375 
Q 38.875 34.625 31.78125 34.625 
z
M 21.921875 38.8125 
Q 15.578125 40.375 12.03125 44.71875 
Q 8.5 49.078125 8.5 55.328125 
Q 8.5 64.0625 14.71875 69.140625 
Q 20.953125 74.21875 31.78125 74.21875 
Q 42.671875 74.21875 48.875 69.140625 
Q 55.078125 64.0625 55.078125 55.328125 
Q 55.078125 49.078125 51.53125 44.71875 
Q 48 40.375 41.703125 38.8125 
Q 48.828125 37.15625 52.796875 32.3125 
Q 56.78125 27.484375 56.78125 20.515625 
Q 56.78125 9.90625 50.3125 4.234375 
Q 43.84375 -1.421875 31.78125 -1.421875 
Q 19.734375 -1.421875 13.25 4.234375 
Q 6.78125 9.90625 6.78125 20.515625 
Q 6.78125 27.484375 10.78125 32.3125 
Q 14.796875 37.15625 21.921875 38.8125 
z
M 18.3125 54.390625 
Q 18.3125 48.734375 21.84375 45.5625 
Q 25.390625 42.390625 31.78125 42.390625 
Q 38.140625 42.390625 41.71875 45.5625 
Q 45.3125 48.734375 45.3125 54.390625 
Q 45.3125 60.0625 41.71875 63.234375 
Q 38.140625 66.40625 31.78125 66.40625 
Q 25.390625 66.40625 21.84375 63.234375 
Q 18.3125 60.0625 18.3125 54.390625 
z
" id="DejaVuSans-56"/>
      </defs>
      <g transform="translate(249.938467 322.182437)scale(0.1 -0.1)">
       <use xlink:href="#DejaVuSans-56"/>
       <use x="63.623047" xlink:href="#DejaVuSans-48"/>
       <use x="127.246094" xlink:href="#DejaVuSans-48"/>
      </g>
     </g>
    </g>
    <g id="xtick_6">
     <g id="line2d_6">
      <g>
       <use style="stroke:#000000;stroke-width:0.8;" x="305.89459" xlink:href="#m0387915ae8" y="307.584"/>
      </g>
     </g>
     <g id="text_6">
      <!-- 1000 -->
      <defs>
       <path d="M 12.40625 8.296875 
L 28.515625 8.296875 
L 28.515625 63.921875 
L 10.984375 60.40625 
L 10.984375 69.390625 
L 28.421875 72.90625 
L 38.28125 72.90625 
L 38.28125 8.296875 
L 54.390625 8.296875 
L 54.390625 0 
L 12.40625 0 
z
" id="DejaVuSans-49"/>
      </defs>
      <g transform="translate(293.16959 322.182437)scale(0.1 -0.1)">
       <use xlink:href="#DejaVuSans-49"/>
       <use x="63.623047" xlink:href="#DejaVuSans-48"/>
       <use x="127.246094" xlink:href="#DejaVuSans-48"/>
       <use x="190.869141" xlink:href="#DejaVuSans-48"/>
      </g>
     </g>
    </g>
    <g id="xtick_7">
     <g id="line2d_7">
      <g>
       <use style="stroke:#000000;stroke-width:0.8;" x="352.306962" xlink:href="#m0387915ae8" y="307.584"/>
      </g>
     </g>
     <g id="text_7">
      <!-- 1200 -->
      <g transform="translate(339.581962 322.182437)scale(0.1 -0.1)">
       <use xlink:href="#DejaVuSans-49"/>
       <use x="63.623047" xlink:href="#DejaVuSans-50"/>
       <use x="127.246094" xlink:href="#DejaVuSans-48"/>
       <use x="190.869141" xlink:href="#DejaVuSans-48"/>
      </g>
     </g>
    </g>
    <g id="xtick_8">
     <g id="line2d_8">
      <g>
       <use style="stroke:#000000;stroke-width:0.8;" x="398.719335" xlink:href="#m0387915ae8" y="307.584"/>
      </g>
     </g>
     <g id="text_8">
      <!-- 1400 -->
      <g transform="translate(385.994335 322.182437)scale(0.1 -0.1)">
       <use xlink:href="#DejaVuSans-49"/>
       <use x="63.623047" xlink:href="#DejaVuSans-52"/>
       <use x="127.246094" xlink:href="#DejaVuSans-48"/>
       <use x="190.869141" xlink:href="#DejaVuSans-48"/>
      </g>
     </g>
    </g>
   </g>
   <g id="matplotlib.axis_2">
    <g id="ytick_1">
     <g id="line2d_9">
      <defs>
       <path d="M 0 0 
L -3.5 0 
" id="m3f2f223586" style="stroke:#000000;stroke-width:0.8;"/>
      </defs>
      <g>
       <use style="stroke:#000000;stroke-width:0.8;" x="57.6" xlink:href="#m3f2f223586" y="295.669199"/>
      </g>
     </g>
     <g id="text_9">
      <!-- 0.0 -->
      <defs>
       <path d="M 10.6875 12.40625 
L 21 12.40625 
L 21 0 
L 10.6875 0 
z
" id="DejaVuSans-46"/>
      </defs>
      <g transform="translate(34.696875 299.468418)scale(0.1 -0.1)">
       <use xlink:href="#DejaVuSans-48"/>
       <use x="63.623047" xlink:href="#DejaVuSans-46"/>
       <use x="95.410156" xlink:href="#DejaVuSans-48"/>
      </g>
     </g>
    </g>
    <g id="ytick_2">
     <g id="line2d_10">
      <g>
       <use style="stroke:#000000;stroke-width:0.8;" x="57.6" xlink:href="#m3f2f223586" y="252.439609"/>
      </g>
     </g>
     <g id="text_10">
      <!-- 0.2 -->
      <g transform="translate(34.696875 256.238828)scale(0.1 -0.1)">
       <use xlink:href="#DejaVuSans-48"/>
       <use x="63.623047" xlink:href="#DejaVuSans-46"/>
       <use x="95.410156" xlink:href="#DejaVuSans-50"/>
      </g>
     </g>
    </g>
    <g id="ytick_3">
     <g id="line2d_11">
      <g>
       <use style="stroke:#000000;stroke-width:0.8;" x="57.6" xlink:href="#m3f2f223586" y="209.21002"/>
      </g>
     </g>
     <g id="text_11">
      <!-- 0.4 -->
      <g transform="translate(34.696875 213.009239)scale(0.1 -0.1)">
       <use xlink:href="#DejaVuSans-48"/>
       <use x="63.623047" xlink:href="#DejaVuSans-46"/>
       <use x="95.410156" xlink:href="#DejaVuSans-52"/>
      </g>
     </g>
    </g>
    <g id="ytick_4">
     <g id="line2d_12">
      <g>
       <use style="stroke:#000000;stroke-width:0.8;" x="57.6" xlink:href="#m3f2f223586" y="165.98043"/>
      </g>
     </g>
     <g id="text_12">
      <!-- 0.6 -->
      <g transform="translate(34.696875 169.779649)scale(0.1 -0.1)">
       <use xlink:href="#DejaVuSans-48"/>
       <use x="63.623047" xlink:href="#DejaVuSans-46"/>
       <use x="95.410156" xlink:href="#DejaVuSans-54"/>
      </g>
     </g>
    </g>
    <g id="ytick_5">
     <g id="line2d_13">
      <g>
       <use style="stroke:#000000;stroke-width:0.8;" x="57.6" xlink:href="#m3f2f223586" y="122.750841"/>
      </g>
     </g>
     <g id="text_13">
      <!-- 0.8 -->
      <g transform="translate(34.696875 126.55006)scale(0.1 -0.1)">
       <use xlink:href="#DejaVuSans-48"/>
       <use x="63.623047" xlink:href="#DejaVuSans-46"/>
       <use x="95.410156" xlink:href="#DejaVuSans-56"/>
      </g>
     </g>
    </g>
    <g id="ytick_6">
     <g id="line2d_14">
      <g>
       <use style="stroke:#000000;stroke-width:0.8;" x="57.6" xlink:href="#m3f2f223586" y="79.521251"/>
      </g>
     </g>
     <g id="text_14">
      <!-- 1.0 -->
      <g transform="translate(34.696875 83.32047)scale(0.1 -0.1)">
       <use xlink:href="#DejaVuSans-49"/>
       <use x="63.623047" xlink:href="#DejaVuSans-46"/>
       <use x="95.410156" xlink:href="#DejaVuSans-48"/>
      </g>
     </g>
    </g>
   </g>
   <g id="line2d_15">
    <path clip-path="url(#p13943c1e29)" d="M 73.832727 63.891413 
L 75.225098 95.050731 
L 75.689222 100.432456 
L 75.921284 101.557413 
L 76.153346 101.725164 
L 76.385408 100.951467 
L 76.61747 99.281889 
L 77.081593 93.557529 
L 78.009841 79.664142 
L 78.706026 71.972053 
L 79.634274 65.236496 
L 79.866336 64.304432 
L 80.330459 61.957461 
L 81.258707 59.455847 
L 81.722831 58.693183 
L 82.419016 58.020572 
L 84.043449 57.15194 
L 85.667882 55.482778 
L 86.132006 54.954181 
L 86.364068 54.797937 
L 86.59613 54.476238 
L 87.060253 54.27495 
L 87.524377 53.903087 
L 87.988501 53.675671 
L 88.684686 53.589057 
L 89.612934 53.986904 
L 90.541181 54.692328 
L 90.773243 54.991767 
L 91.005305 55.005439 
L 91.469429 55.670326 
L 92.165614 56.417174 
L 92.629738 56.805228 
L 93.093862 57.605281 
L 93.790047 58.020525 
L 94.254171 58.276404 
L 94.718295 58.039354 
L 95.182419 57.968197 
L 95.41448 58.104256 
L 95.878604 57.833112 
L 96.342728 57.756396 
L 96.806852 57.46103 
L 97.038914 57.589666 
L 97.967161 57.263106 
L 98.199223 56.951613 
L 98.431285 56.842374 
L 98.895408 56.804232 
L 99.359532 56.614174 
L 100.28778 56.426327 
L 100.751903 56.431744 
L 100.983965 56.280383 
L 103.072522 56.412331 
L 103.536646 56.286737 
L 105.857264 56.231577 
L 107.945821 56.514786 
L 108.177883 56.680536 
L 108.642007 56.64672 
L 108.874068 56.792909 
L 109.570254 56.739281 
L 110.034378 56.972857 
L 110.962625 56.822891 
L 111.194687 57.107226 
L 112.122935 57.196213 
L 112.354996 57.320779 
L 112.587058 56.980594 
L 112.81912 57.225772 
L 113.051182 57.265329 
L 113.283244 57.184611 
L 113.747368 57.225869 
L 114.211491 56.940858 
L 114.675615 56.814859 
L 114.907677 56.893544 
L 115.139739 56.71808 
L 115.603862 56.886729 
L 115.835924 56.47783 
L 116.067986 56.580195 
L 116.53211 56.492585 
L 116.764172 56.631962 
L 116.996234 56.408865 
L 117.460357 56.316197 
L 119.316852 56.567328 
L 119.548914 56.869401 
L 119.780976 56.818961 
L 120.013038 56.599782 
L 121.173347 56.833932 
L 121.405409 57.194025 
L 121.637471 56.75588 
L 121.869533 56.976549 
L 122.333657 56.943919 
L 122.565718 57.069242 
L 122.79778 56.974974 
L 123.493966 57.120133 
L 123.726028 56.972796 
L 123.95809 57.146245 
L 124.190151 56.963821 
L 125.118399 56.940053 
L 125.814584 56.872251 
L 126.278708 57.156083 
L 126.742832 56.949394 
L 127.671079 56.932659 
L 128.367265 56.788332 
L 129.295512 56.80737 
L 129.527574 56.956673 
L 130.22376 56.853496 
L 130.919945 57.162913 
L 131.848193 56.904907 
L 132.080255 56.976129 
L 132.544378 56.898507 
L 133.008502 57.042727 
L 133.240564 57.221282 
L 133.472626 57.109168 
L 133.704688 57.27724 
L 133.93675 56.935566 
L 134.168811 56.889677 
L 134.400873 57.054705 
L 134.632935 56.773968 
L 134.864997 56.699417 
L 135.097059 56.772823 
L 135.793245 56.58846 
L 136.025306 56.528342 
L 136.257368 56.647558 
L 138.345925 56.613762 
L 138.810049 56.775016 
L 139.042111 56.69188 
L 139.506234 56.77574 
L 139.738296 56.680439 
L 139.970358 56.885912 
L 140.20242 56.842625 
L 140.434482 57.063347 
L 140.666544 56.814632 
L 140.898605 57.092686 
L 141.362729 56.979167 
L 141.594791 56.861259 
L 141.826853 56.978781 
L 142.058915 56.847809 
L 142.290977 57.235178 
L 142.523039 57.125364 
L 142.7551 57.384447 
L 142.987162 57.088915 
L 143.219224 57.326451 
L 143.451286 57.303584 
L 143.683348 57.003269 
L 144.843657 56.933464 
L 145.075719 56.940246 
L 145.307781 56.758017 
L 145.771905 56.865464 
L 146.003966 57.013032 
L 146.236028 56.8195 
L 146.46809 56.884276 
L 146.700152 56.800292 
L 147.164276 56.932427 
L 147.396338 56.769016 
L 147.6284 56.832342 
L 148.092523 56.784038 
L 148.324585 56.851633 
L 148.788709 56.753236 
L 149.020771 56.99647 
L 149.252833 56.862623 
L 149.949018 56.984982 
L 150.413142 57.173736 
L 150.645204 56.971629 
L 151.805513 56.981111 
L 152.501699 56.966047 
L 154.590255 57.2499 
L 155.286441 57.652249 
L 155.518503 57.419368 
L 156.214688 57.490185 
L 157.60706 57.340925 
L 157.839121 57.182461 
L 158.071183 57.366902 
L 158.303245 57.326496 
L 158.535307 57.117149 
L 159.463554 56.974755 
L 159.695616 56.842272 
L 159.927678 56.988453 
L 160.15974 56.868603 
L 160.623864 57.011424 
L 161.087988 56.818682 
L 161.320049 56.816522 
L 161.552111 56.948962 
L 162.016235 56.842937 
L 162.248297 56.89659 
L 162.480359 57.071116 
L 162.712421 56.932322 
L 163.176544 57.204163 
L 163.408606 57.238479 
L 163.640668 56.96471 
L 164.104792 57.012179 
L 164.336854 57.195798 
L 164.568915 57.158423 
L 165.033039 56.636661 
L 165.265101 56.168899 
L 165.729225 56.286858 
L 165.961287 56.592865 
L 166.193348 56.594265 
L 167.121596 57.156939 
L 167.353658 57.423695 
L 167.58572 57.460026 
L 168.049843 57.329928 
L 168.281905 57.583832 
L 169.210153 57.652791 
L 169.442215 57.620413 
L 169.674276 57.859466 
L 169.906338 57.817938 
L 170.370462 57.538183 
L 170.602524 57.338661 
L 170.834586 57.57209 
L 171.530771 57.49174 
L 171.762833 57.6354 
L 171.994895 57.002415 
L 172.226957 57.289102 
L 172.459019 57.356613 
L 172.923143 57.209071 
L 173.155204 57.356508 
L 173.387266 57.205707 
L 173.619328 56.878667 
L 173.85139 57.096923 
L 174.083452 57.605297 
L 174.547576 57.129323 
L 174.779637 57.268869 
L 175.243761 57.124677 
L 175.475823 57.353919 
L 176.40407 57.311036 
L 176.636132 57.242533 
L 177.100256 57.348268 
L 177.332318 57.251633 
L 180.11706 57.542484 
L 181.27737 57.323651 
L 187.54304 57.212808 
L 188.471287 57.289055 
L 190.559844 57.405818 
L 191.952215 57.558979 
L 197.289638 57.38303 
L 197.5217 57.322953 
L 197.753762 57.119007 
L 197.985824 57.324077 
L 198.217886 57.315675 
L 198.449947 57.18064 
L 198.682009 57.30753 
L 199.146133 57.319042 
L 199.378195 57.440654 
L 199.842319 57.367656 
L 200.538504 57.420176 
L 201.23469 57.462884 
L 201.930875 57.342546 
L 202.627061 57.359201 
L 203.78737 57.257551 
L 204.251494 57.397778 
L 204.483556 57.246879 
L 204.715618 57.415474 
L 205.411803 57.309834 
L 205.643865 57.240785 
L 205.875927 57.446317 
L 206.107989 57.298963 
L 206.340051 57.438659 
L 206.572113 57.279764 
L 207.50036 57.315388 
L 207.732422 57.206591 
L 208.196546 57.587752 
L 208.428607 57.394904 
L 209.124793 57.472723 
L 209.588917 57.517346 
L 210.981288 57.510262 
L 211.445412 57.671067 
L 211.909535 57.611199 
L 212.373659 57.779856 
L 212.837783 57.655438 
L 213.998092 57.63185 
L 214.462216 57.585291 
L 214.694278 57.482165 
L 214.92634 57.541415 
L 215.158401 57.440286 
L 215.854587 57.565523 
L 216.550773 57.528211 
L 216.782834 57.441505 
L 217.246958 57.429184 
L 217.47902 57.409185 
L 217.711082 57.575877 
L 217.943144 57.332026 
L 218.407268 57.393888 
L 218.639329 57.441811 
L 218.871391 57.273182 
L 219.103453 57.414134 
L 220.959948 57.234239 
L 221.19201 57.390333 
L 221.424072 57.287371 
L 221.888195 57.455991 
L 222.120257 57.430835 
L 222.352319 57.537612 
L 222.584381 57.776145 
L 222.816443 57.546755 
L 223.512629 57.623641 
L 223.74469 57.731033 
L 224.208814 57.604757 
L 224.440876 57.710978 
L 224.905 57.516773 
L 225.601185 57.564927 
L 228.385928 57.66791 
L 228.617989 57.79005 
L 229.082113 57.764785 
L 229.546237 57.854735 
L 230.474484 57.762162 
L 230.706546 57.853297 
L 230.938608 57.572812 
L 231.634794 57.769357 
L 231.866856 57.596785 
L 233.491289 57.712463 
L 235.115722 57.661364 
L 235.347783 57.740463 
L 235.811907 57.615784 
L 236.972217 57.581792 
L 237.204278 57.532022 
L 237.668402 57.63386 
L 238.132526 57.572659 
L 238.364588 57.64075 
L 238.59665 57.510838 
L 239.060773 57.540349 
L 239.292835 57.737154 
L 239.524897 57.576787 
L 239.756959 57.694335 
L 239.989021 57.585512 
L 242.309639 57.789825 
L 243.237887 57.748329 
L 243.469949 57.997005 
L 243.702011 57.663499 
L 243.934072 57.769635 
L 244.166134 57.508479 
L 244.86232 57.526044 
L 245.326444 57.412472 
L 245.790567 57.75146 
L 246.022629 57.602641 
L 246.486753 57.772702 
L 246.950877 57.631719 
L 247.415 57.785968 
L 247.647062 57.585371 
L 248.343248 57.752962 
L 249.271495 57.731226 
L 249.735619 57.814382 
L 249.967681 57.712647 
L 251.360052 57.959635 
L 251.824176 57.657392 
L 252.752423 57.675281 
L 253.448609 57.655725 
L 253.680671 57.941487 
L 253.912732 57.516885 
L 254.144794 57.616035 
L 254.608918 57.460135 
L 254.84098 57.548498 
L 255.073042 57.396333 
L 256.001289 57.549279 
L 257.161599 57.465361 
L 257.39366 57.704429 
L 257.625722 57.543691 
L 257.857784 57.587805 
L 258.089846 57.837414 
L 258.321908 57.84374 
L 258.55397 57.658839 
L 259.018093 57.795714 
L 259.250155 58.048515 
L 259.482217 58.03603 
L 259.714279 57.8699 
L 260.410465 57.96088 
L 260.642526 58.121526 
L 260.874588 57.963018 
L 261.10665 58.214236 
L 261.338712 58.277635 
L 261.802836 58.001536 
L 262.26696 57.957066 
L 262.499021 57.864266 
L 262.963145 57.961106 
L 263.195207 58.225376 
L 263.427269 57.991537 
L 263.659331 58.394109 
L 264.355516 58.034586 
L 265.283764 57.615899 
L 265.515826 57.670646 
L 266.444073 57.419407 
L 266.676135 57.474854 
L 267.140259 57.382479 
L 268.996754 57.494077 
L 269.692939 57.545385 
L 269.925001 58.005903 
L 270.157063 57.625286 
L 271.317372 57.56822 
L 271.549434 57.816791 
L 271.781496 57.747351 
L 272.477681 58.175159 
L 273.870053 58.034496 
L 274.102114 58.063618 
L 275.494486 57.5595 
L 275.726548 57.634836 
L 275.958609 57.530255 
L 276.190671 57.577298 
L 276.422733 57.759074 
L 277.118919 57.661203 
L 277.350981 57.683375 
L 277.583042 57.453179 
L 278.279228 57.448957 
L 278.743352 57.67143 
L 279.903661 57.729262 
L 280.135723 57.23931 
L 281.296032 58.619177 
L 281.528094 58.841465 
L 281.760156 58.699898 
L 281.992218 58.811126 
L 282.920465 58.426983 
L 283.152527 58.665436 
L 283.848713 58.39652 
L 284.080775 58.404053 
L 284.312836 58.238974 
L 284.544898 58.231602 
L 285.009022 57.977606 
L 285.473146 57.895565 
L 285.705208 57.749247 
L 286.169331 57.714468 
L 286.633455 57.649197 
L 286.865517 57.426988 
L 287.561703 57.606635 
L 287.793764 57.382044 
L 288.025826 57.730425 
L 288.257888 57.457496 
L 289.418197 58.154483 
L 289.650259 57.897354 
L 290.114383 58.081658 
L 290.346445 58.519751 
L 290.578507 58.202188 
L 290.810569 58.392547 
L 291.04263 58.31974 
L 291.506754 58.48638 
L 292.20294 58.551295 
L 293.131187 58.452802 
L 294.291497 58.131843 
L 294.523558 57.979899 
L 294.75562 58.31373 
L 294.987682 57.68363 
L 295.683868 57.581518 
L 295.91593 57.582375 
L 296.147991 57.313016 
L 297.076239 57.306553 
L 297.308301 57.567786 
L 297.772424 57.260671 
L 298.236548 57.409302 
L 299.396857 57.616724 
L 299.628919 57.610524 
L 300.093043 57.802042 
L 301.949538 58.196337 
L 302.413662 58.147018 
L 302.645724 58.273965 
L 302.877785 58.195413 
L 303.109847 58.39935 
L 303.573971 58.157979 
L 304.038095 58.300212 
L 304.502218 58.172518 
L 306.126652 58.138549 
L 306.590775 57.947693 
L 307.519023 58.055318 
L 307.751085 57.953085 
L 307.983146 58.005613 
L 308.215208 57.831756 
L 308.44727 57.867842 
L 308.679332 58.418813 
L 308.911394 58.187251 
L 309.607579 58.409388 
L 310.071703 58.643946 
L 310.535827 58.425576 
L 310.767889 58.556785 
L 310.999951 58.481521 
L 311.232012 58.159267 
L 312.16026 58.238713 
L 312.624384 58.113174 
L 313.088507 57.977111 
L 313.320569 58.003446 
L 313.552631 57.507306 
L 314.016755 57.677435 
L 314.248817 57.495258 
L 314.480879 57.474821 
L 314.71294 57.734024 
L 314.945002 58.173635 
L 315.177064 57.865985 
L 315.409126 57.881208 
L 316.337373 57.468233 
L 316.801497 57.561423 
L 317.033559 57.833631 
L 317.497683 57.609856 
L 317.961806 57.628476 
L 318.193868 57.431952 
L 318.42593 57.93707 
L 318.890054 57.865469 
L 319.122116 58.034136 
L 319.354178 58.041508 
L 319.818301 58.179546 
L 320.050363 58.183665 
L 320.282425 58.034919 
L 320.514487 58.236328 
L 320.746549 58.092733 
L 321.674796 58.177546 
L 322.370982 58.161124 
L 323.299229 58.114998 
L 323.763353 58.16686 
L 323.995415 58.114899 
L 324.459539 58.173819 
L 324.6916 58.140142 
L 325.155724 58.347202 
L 325.387786 58.270324 
L 325.619848 58.574724 
L 325.85191 58.545486 
L 326.316034 58.089938 
L 327.012219 58.099389 
L 328.172528 58.196637 
L 328.40459 58.352038 
L 328.636652 58.186739 
L 329.100776 58.140092 
L 329.332838 58.418533 
L 329.796961 58.204104 
L 330.029023 57.811392 
L 330.261085 57.730357 
L 330.725209 57.978823 
L 331.189333 57.884271 
L 331.421395 58.02535 
L 332.349642 57.965953 
L 332.581704 58.099636 
L 332.813766 57.948797 
L 333.742013 58.111746 
L 333.974075 57.973476 
L 336.758817 58.434211 
L 337.222941 58.417541 
L 337.687065 58.342511 
L 338.151189 58.28596 
L 340.471807 58.040948 
L 346.737477 58.284076 
L 346.969539 58.479038 
L 347.433663 58.259868 
L 347.897787 58.256469 
L 348.129849 58.581978 
L 348.36191 58.163134 
L 349.290158 58.381929 
L 349.52222 58.181983 
L 349.754282 58.499916 
L 349.986343 58.049361 
L 350.218405 57.984427 
L 350.450467 58.194502 
L 350.682529 57.912035 
L 350.914591 57.847851 
L 351.146653 58.202212 
L 351.610777 57.95461 
L 353.467271 58.223268 
L 353.931395 58.244775 
L 354.395519 58.355246 
L 355.323766 58.434886 
L 356.484076 58.389363 
L 356.948199 58.409992 
L 357.876447 58.283884 
L 358.108509 58.16698 
L 358.340571 58.262567 
L 360.893251 57.980747 
L 361.125313 58.076522 
L 361.357375 57.955364 
L 364.838303 58.425345 
L 365.070365 58.303122 
L 365.76655 58.356932 
L 366.694798 58.43769 
L 366.926859 58.698322 
L 367.623045 58.734553 
L 367.855107 58.480003 
L 368.087169 58.46497 
L 368.319231 58.69294 
L 368.551292 58.671726 
L 368.783354 58.391582 
L 369.247478 58.340138 
L 369.47954 58.474187 
L 370.407787 58.423051 
L 370.639849 58.282986 
L 371.103973 58.386706 
L 371.800159 58.342659 
L 372.03222 58.585916 
L 372.264282 58.420545 
L 372.496344 58.611093 
L 372.728406 58.477213 
L 372.960468 58.637709 
L 373.19253 58.496296 
L 373.424592 58.498746 
L 373.656653 58.86474 
L 373.888715 58.505688 
L 378.297891 58.261654 
L 378.762014 58.16997 
L 378.994076 58.212929 
L 379.4582 58.132302 
L 379.690262 58.128999 
L 379.922324 58.350457 
L 380.618509 57.952898 
L 380.850571 57.933338 
L 381.082633 58.069068 
L 381.314695 58.000225 
L 381.778819 58.306941 
L 383.17119 58.503111 
L 383.403252 58.407978 
L 383.867375 58.575926 
L 385.259747 58.715099 
L 385.72387 58.404959 
L 385.955932 58.38085 
L 386.187994 58.241258 
L 386.420056 58.705483 
L 386.652118 58.619724 
L 386.88418 58.219461 
L 387.348303 58.488684 
L 388.044489 58.555135 
L 388.276551 58.701625 
L 388.508613 58.414566 
L 388.740675 58.432745 
L 388.972736 58.597223 
L 389.204798 58.328524 
L 389.43686 58.474074 
L 389.668922 58.241486 
L 390.829231 58.483805 
L 391.061293 58.20369 
L 391.293355 58.48833 
L 391.757479 57.826279 
L 391.989541 57.457386 
L 392.221602 57.735799 
L 392.453664 57.444513 
L 392.685726 57.376191 
L 393.613974 58.224502 
L 393.846035 58.151045 
L 394.078097 58.278252 
L 394.310159 58.666038 
L 394.542221 58.33757 
L 395.70253 58.833466 
L 396.630778 58.672695 
L 396.86284 58.52611 
L 397.094902 58.667545 
L 397.326963 58.630463 
L 397.791087 58.077815 
L 398.487273 58.263955 
L 398.487273 58.263955 
" style="fill:none;stroke:#1f77b4;stroke-linecap:square;stroke-width:1.5;"/>
   </g>
   <g id="line2d_16">
    <path clip-path="url(#p13943c1e29)" d="M 73.832727 294.974618 
L 78.706026 295.065527 
L 78.938088 295.178898 
L 79.17015 295.052584 
L 87.060253 295.065176 
L 87.524377 294.975927 
L 87.756439 295.063873 
L 87.988501 294.974284 
L 88.452625 295.062675 
L 88.684686 294.97257 
L 89.14881 295.063415 
L 89.380872 294.972291 
L 89.612934 295.064867 
L 90.077058 294.973087 
L 142.058915 294.968223 
L 143.219224 294.942378 
L 148.556647 295.023914 
L 160.391802 295.012649 
L 161.320049 295.033039 
L 173.85139 295.064353 
L 174.083452 295.230719 
L 174.779637 295.061148 
L 175.011699 295.138189 
L 175.243761 295.013972 
L 175.707885 295.057184 
L 175.939947 294.947652 
L 176.172009 295.029823 
L 176.40407 295.233813 
L 176.868194 294.996212 
L 177.332318 294.99863 
L 177.56438 295.089191 
L 178.028503 295.037089 
L 178.260565 295.142336 
L 178.492627 295.060305 
L 178.724689 295.280225 
L 178.956751 295.173313 
L 179.188813 295.222721 
L 179.420875 295.053258 
L 180.11706 295.079252 
L 180.349122 295.177565 
L 180.581184 295.046044 
L 180.813246 295.057342 
L 181.045308 295.275343 
L 181.509431 295.115481 
L 181.741493 295.232841 
L 182.669741 295.139323 
L 182.901803 295.396352 
L 183.133864 295.039355 
L 183.365926 295.110636 
L 183.83005 295.02672 
L 184.294174 295.036522 
L 184.990359 294.996321 
L 185.454483 295.023716 
L 185.686545 295.066873 
L 185.918607 294.985477 
L 186.150669 295.150138 
L 186.846854 295.088059 
L 187.078916 295.092113 
L 187.310978 295.308744 
L 187.775102 295.094594 
L 188.703349 295.106151 
L 189.167473 295.013253 
L 189.399535 294.988077 
L 189.631597 295.113913 
L 190.327782 295.020911 
L 193.344586 294.996041 
L 193.576648 295.218917 
L 193.80871 295.054335 
L 194.272834 295.134839 
L 195.201081 295.093431 
L 195.433143 295.047577 
L 195.665205 295.116901 
L 196.129329 294.843677 
L 196.593452 295.039264 
L 198.217886 295.000362 
L 198.682009 295.022047 
L 199.610257 295.162929 
L 199.842319 295.033627 
L 200.538504 295.016873 
L 200.770566 295.212592 
L 201.002628 294.998713 
L 201.23469 294.956258 
L 201.698813 295.09497 
L 202.627061 295.025598 
L 204.251494 294.994781 
L 204.483556 295.046879 
L 204.715618 294.959798 
L 205.179741 295.132573 
L 205.411803 295.01522 
L 206.107989 295.065268 
L 206.572113 295.060902 
L 206.804174 295.202249 
L 207.036236 295.009157 
L 207.732422 295.069577 
L 207.964484 295.000885 
L 208.428607 295.141449 
L 208.892731 295.044994 
L 226.529433 295.031573 
L 226.761495 294.973913 
L 227.225618 295.036387 
L 228.153866 294.975837 
L 229.778299 295.011622 
L 236.740155 295.017206 
L 237.204278 295.111317 
L 237.43634 295.026199 
L 237.668402 295.107836 
L 238.132526 295.01485 
L 240.453144 295.021157 
L 243.237887 295.012079 
L 249.735619 295.006217 
L 249.967681 295.10606 
L 250.663866 295.026765 
L 263.891393 294.937797 
L 264.355516 295.258146 
L 264.81964 295.03163 
L 265.051702 295.198864 
L 265.283764 295.009575 
L 265.515826 295.215108 
L 265.747887 295.206366 
L 265.979949 295.057542 
L 266.212011 295.125376 
L 266.676135 295.068574 
L 266.908197 295.069307 
L 267.140259 295.222203 
L 267.604382 295.089927 
L 268.068506 295.169109 
L 268.300568 295.146613 
L 268.53263 295.263518 
L 269.692939 295.084133 
L 269.925001 295.159772 
L 270.389125 295.08482 
L 270.621187 295.121402 
L 270.853248 295.034553 
L 271.549434 295.200889 
L 271.781496 294.985363 
L 272.013558 294.978138 
L 272.24562 295.147347 
L 272.477681 295.000206 
L 273.173867 295.146745 
L 273.405929 294.951794 
L 273.637991 295.058078 
L 274.334176 295.003437 
L 275.030362 294.960285 
L 275.494486 295.010416 
L 277.583042 295.107253 
L 277.815104 295.005932 
L 278.047166 295.096848 
L 278.51129 295.00511 
L 278.743352 295.12457 
L 279.903661 294.961764 
L 282.688403 294.982147 
L 289.882321 294.995968 
L 290.114383 295.086904 
L 290.578507 295.025622 
L 292.435002 294.96615 
L 292.667063 294.884942 
L 293.131187 294.966923 
L 293.595311 294.97958 
L 295.91593 294.983855 
L 297.772424 294.930685 
L 298.46861 295.03161 
L 299.860981 295.091164 
L 300.093043 295.147968 
L 300.325105 295.024448 
L 300.557167 295.055046 
L 300.789229 294.914775 
L 301.021291 295.061571 
L 301.253352 294.988939 
L 301.717476 295.005832 
L 304.270157 294.987221 
L 304.502218 295.056543 
L 304.73428 295.252171 
L 305.198404 295.062539 
L 305.662528 294.99175 
L 306.822837 295.011971 
L 307.054899 294.969117 
L 307.286961 295.078074 
L 307.519023 294.935919 
L 308.44727 295.131882 
L 308.911394 295.012153 
L 309.375518 295.170273 
L 309.607579 294.909052 
L 310.071703 295.074833 
L 310.303765 295.064962 
L 310.535827 295.206877 
L 310.767889 295.047292 
L 311.464074 295.108687 
L 315.641188 294.934004 
L 316.105312 294.995091 
L 316.801497 295.021946 
L 317.033559 295.136243 
L 317.265621 294.990634 
L 317.729745 295.428574 
L 318.193868 294.739832 
L 318.42593 295.124839 
L 318.890054 294.914769 
L 319.354178 295.228319 
L 319.58624 295.073715 
L 320.050363 295.317717 
L 320.746549 294.95818 
L 320.978611 295.096986 
L 321.210673 294.912691 
L 321.674796 294.993364 
L 322.370982 295.087797 
L 322.835106 294.981673 
L 323.299229 295.059453 
L 324.227477 295.018784 
L 324.6916 295.06678 
L 324.923662 295.217286 
L 325.155724 295.012837 
L 327.012219 295.015381 
L 327.244281 295.084717 
L 327.476343 294.965343 
L 330.493147 295.107076 
L 330.725209 294.949932 
L 331.189333 295.077528 
L 331.421395 294.941969 
L 331.885518 295.051627 
L 334.206137 295.069591 
L 334.438199 294.900628 
L 334.670261 295.04546 
L 335.134384 294.978927 
L 335.366446 295.114687 
L 335.598508 295.029295 
L 335.83057 295.182833 
L 336.294694 294.918486 
L 336.990879 295.021789 
L 340.471807 295.014915 
L 343.024488 294.993835 
L 343.720673 295.01575 
L 344.648921 295.023231 
L 344.880983 295.11983 
L 345.345106 295.050813 
L 345.80923 295.181201 
L 346.041292 294.934102 
L 346.505416 295.063631 
L 346.737477 294.984995 
L 347.433663 295.017713 
L 347.665725 295.365317 
L 347.897787 295.011769 
L 350.914591 295.076439 
L 351.146653 295.488 
L 351.378715 295.113779 
L 351.610777 295.338836 
L 351.842838 295.087396 
L 352.539024 295.309803 
L 354.163457 295.254257 
L 354.395519 295.088354 
L 354.627581 295.248303 
L 355.091704 295.108382 
L 355.555828 295.368754 
L 355.78789 295.21792 
L 356.484076 295.225345 
L 356.716138 295.09711 
L 356.948199 295.134836 
L 357.644385 294.977189 
L 361.125313 294.997923 
L 361.357375 295.090978 
L 361.821498 295.007467 
L 362.517684 295.011866 
L 373.424592 294.982006 
L 373.656653 295.133233 
L 373.888715 295.017013 
L 375.049025 295.079645 
L 375.513148 295.000917 
L 376.441396 295.10972 
L 376.673458 295.188977 
L 376.90552 295.127594 
L 377.137581 295.204246 
L 377.369643 295.049367 
L 379.690262 295.042499 
L 387.580365 295.095161 
L 388.044489 295.184993 
L 388.740675 295.174098 
L 388.972736 294.866418 
L 389.204798 295.039723 
L 390.829231 295.054328 
L 391.293355 294.964603 
L 391.757479 295.040476 
L 391.989541 294.967155 
L 392.221602 295.055967 
L 392.685726 294.950695 
L 393.846035 295.012921 
L 394.774283 294.985543 
L 398.487273 295.000666 
L 398.487273 295.000666 
" style="fill:none;stroke:#ff7f0e;stroke-linecap:square;stroke-width:1.5;"/>
   </g>
   <g id="patch_3">
    <path d="M 57.6 307.584 
L 57.6 41.472 
" style="fill:none;stroke:#000000;stroke-linecap:square;stroke-linejoin:miter;stroke-width:0.8;"/>
   </g>
   <g id="patch_4">
    <path d="M 414.72 307.584 
L 414.72 41.472 
" style="fill:none;stroke:#000000;stroke-linecap:square;stroke-linejoin:miter;stroke-width:0.8;"/>
   </g>
   <g id="patch_5">
    <path d="M 57.6 307.584 
L 414.72 307.584 
" style="fill:none;stroke:#000000;stroke-linecap:square;stroke-linejoin:miter;stroke-width:0.8;"/>
   </g>
   <g id="patch_6">
    <path d="M 57.6 41.472 
L 414.72 41.472 
" style="fill:none;stroke:#000000;stroke-linecap:square;stroke-linejoin:miter;stroke-width:0.8;"/>
   </g>
  </g>
 </g>
 <defs>
  <clipPath id="p13943c1e29">
   <rect height="266.112" width="357.12" x="57.6" y="41.472"/>
  </clipPath>
 </defs>
</svg>
