<?xml version="1.0" encoding="utf-8" standalone="no"?>
<!DOCTYPE svg PUBLIC "-//W3C//DTD SVG 1.1//EN"
  "http://www.w3.org/Graphics/SVG/1.1/DTD/svg11.dtd">
<!-- Created with matplotlib (https://matplotlib.org/) -->
<svg height="345.6pt" version="1.1" viewBox="0 0 460.8 345.6" width="460.8pt" xmlns="http://www.w3.org/2000/svg" xmlns:xlink="http://www.w3.org/1999/xlink">
 <defs>
  <style type="text/css">
*{stroke-linecap:butt;stroke-linejoin:round;}
  </style>
 </defs>
 <g id="figure_1">
  <g id="patch_1">
   <path d="M 0 345.6 
L 460.8 345.6 
L 460.8 0 
L 0 0 
z
" style="fill:#ffffff;"/>
  </g>
  <g id="axes_1">
   <g id="patch_2">
    <path d="M 57.6 307.584 
L 414.72 307.584 
L 414.72 41.472 
L 57.6 41.472 
z
" style="fill:#ffffff;"/>
   </g>
   <g id="matplotlib.axis_1">
    <g id="xtick_1">
     <g id="line2d_1">
      <defs>
       <path d="M 0 0 
L 0 3.5 
" id="m538433b772" style="stroke:#000000;stroke-width:0.8;"/>
      </defs>
      <g>
       <use style="stroke:#000000;stroke-width:0.8;" x="73.832727" xlink:href="#m538433b772" y="307.584"/>
      </g>
     </g>
     <g id="text_1">
      <!-- 0 -->
      <defs>
       <path d="M 31.78125 66.40625 
Q 24.171875 66.40625 20.328125 58.90625 
Q 16.5 51.421875 16.5 36.375 
Q 16.5 21.390625 20.328125 13.890625 
Q 24.171875 6.390625 31.78125 6.390625 
Q 39.453125 6.390625 43.28125 13.890625 
Q 47.125 21.390625 47.125 36.375 
Q 47.125 51.421875 43.28125 58.90625 
Q 39.453125 66.40625 31.78125 66.40625 
z
M 31.78125 74.21875 
Q 44.046875 74.21875 50.515625 64.515625 
Q 56.984375 54.828125 56.984375 36.375 
Q 56.984375 17.96875 50.515625 8.265625 
Q 44.046875 -1.421875 31.78125 -1.421875 
Q 19.53125 -1.421875 13.0625 8.265625 
Q 6.59375 17.96875 6.59375 36.375 
Q 6.59375 54.828125 13.0625 64.515625 
Q 19.53125 74.21875 31.78125 74.21875 
z
" id="DejaVuSans-48"/>
      </defs>
      <g transform="translate(70.651477 322.182437)scale(0.1 -0.1)">
       <use xlink:href="#DejaVuSans-48"/>
      </g>
     </g>
    </g>
    <g id="xtick_2">
     <g id="line2d_2">
      <g>
       <use style="stroke:#000000;stroke-width:0.8;" x="120.2451" xlink:href="#m538433b772" y="307.584"/>
      </g>
     </g>
     <g id="text_2">
      <!-- 200 -->
      <defs>
       <path d="M 19.1875 8.296875 
L 53.609375 8.296875 
L 53.609375 0 
L 7.328125 0 
L 7.328125 8.296875 
Q 12.9375 14.109375 22.625 23.890625 
Q 32.328125 33.6875 34.8125 36.53125 
Q 39.546875 41.84375 41.421875 45.53125 
Q 43.3125 49.21875 43.3125 52.78125 
Q 43.3125 58.59375 39.234375 62.25 
Q 35.15625 65.921875 28.609375 65.921875 
Q 23.96875 65.921875 18.8125 64.3125 
Q 13.671875 62.703125 7.8125 59.421875 
L 7.8125 69.390625 
Q 13.765625 71.78125 18.9375 73 
Q 24.125 74.21875 28.421875 74.21875 
Q 39.75 74.21875 46.484375 68.546875 
Q 53.21875 62.890625 53.21875 53.421875 
Q 53.21875 48.921875 51.53125 44.890625 
Q 49.859375 40.875 45.40625 35.40625 
Q 44.1875 33.984375 37.640625 27.21875 
Q 31.109375 20.453125 19.1875 8.296875 
z
" id="DejaVuSans-50"/>
      </defs>
      <g transform="translate(110.70135 322.182437)scale(0.1 -0.1)">
       <use xlink:href="#DejaVuSans-50"/>
       <use x="63.623047" xlink:href="#DejaVuSans-48"/>
       <use x="127.246094" xlink:href="#DejaVuSans-48"/>
      </g>
     </g>
    </g>
    <g id="xtick_3">
     <g id="line2d_3">
      <g>
       <use style="stroke:#000000;stroke-width:0.8;" x="166.657472" xlink:href="#m538433b772" y="307.584"/>
      </g>
     </g>
     <g id="text_3">
      <!-- 400 -->
      <defs>
       <path d="M 37.796875 64.3125 
L 12.890625 25.390625 
L 37.796875 25.390625 
z
M 35.203125 72.90625 
L 47.609375 72.90625 
L 47.609375 25.390625 
L 58.015625 25.390625 
L 58.015625 17.1875 
L 47.609375 17.1875 
L 47.609375 0 
L 37.796875 0 
L 37.796875 17.1875 
L 4.890625 17.1875 
L 4.890625 26.703125 
z
" id="DejaVuSans-52"/>
      </defs>
      <g transform="translate(157.113722 322.182437)scale(0.1 -0.1)">
       <use xlink:href="#DejaVuSans-52"/>
       <use x="63.623047" xlink:href="#DejaVuSans-48"/>
       <use x="127.246094" xlink:href="#DejaVuSans-48"/>
      </g>
     </g>
    </g>
    <g id="xtick_4">
     <g id="line2d_4">
      <g>
       <use style="stroke:#000000;stroke-width:0.8;" x="213.069845" xlink:href="#m538433b772" y="307.584"/>
      </g>
     </g>
     <g id="text_4">
      <!-- 600 -->
      <defs>
       <path d="M 33.015625 40.375 
Q 26.375 40.375 22.484375 35.828125 
Q 18.609375 31.296875 18.609375 23.390625 
Q 18.609375 15.53125 22.484375 10.953125 
Q 26.375 6.390625 33.015625 6.390625 
Q 39.65625 6.390625 43.53125 10.953125 
Q 47.40625 15.53125 47.40625 23.390625 
Q 47.40625 31.296875 43.53125 35.828125 
Q 39.65625 40.375 33.015625 40.375 
z
M 52.59375 71.296875 
L 52.59375 62.3125 
Q 48.875 64.0625 45.09375 64.984375 
Q 41.3125 65.921875 37.59375 65.921875 
Q 27.828125 65.921875 22.671875 59.328125 
Q 17.53125 52.734375 16.796875 39.40625 
Q 19.671875 43.65625 24.015625 45.921875 
Q 28.375 48.1875 33.59375 48.1875 
Q 44.578125 48.1875 50.953125 41.515625 
Q 57.328125 34.859375 57.328125 23.390625 
Q 57.328125 12.15625 50.6875 5.359375 
Q 44.046875 -1.421875 33.015625 -1.421875 
Q 20.359375 -1.421875 13.671875 8.265625 
Q 6.984375 17.96875 6.984375 36.375 
Q 6.984375 53.65625 15.1875 63.9375 
Q 23.390625 74.21875 37.203125 74.21875 
Q 40.921875 74.21875 44.703125 73.484375 
Q 48.484375 72.75 52.59375 71.296875 
z
" id="DejaVuSans-54"/>
      </defs>
      <g transform="translate(203.526095 322.182437)scale(0.1 -0.1)">
       <use xlink:href="#DejaVuSans-54"/>
       <use x="63.623047" xlink:href="#DejaVuSans-48"/>
       <use x="127.246094" xlink:href="#DejaVuSans-48"/>
      </g>
     </g>
    </g>
    <g id="xtick_5">
     <g id="line2d_5">
      <g>
       <use style="stroke:#000000;stroke-width:0.8;" x="259.482217" xlink:href="#m538433b772" y="307.584"/>
      </g>
     </g>
     <g id="text_5">
      <!-- 800 -->
      <defs>
       <path d="M 31.78125 34.625 
Q 24.75 34.625 20.71875 30.859375 
Q 16.703125 27.09375 16.703125 20.515625 
Q 16.703125 13.921875 20.71875 10.15625 
Q 24.75 6.390625 31.78125 6.390625 
Q 38.8125 6.390625 42.859375 10.171875 
Q 46.921875 13.96875 46.921875 20.515625 
Q 46.921875 27.09375 42.890625 30.859375 
Q 38.875 34.625 31.78125 34.625 
z
M 21.921875 38.8125 
Q 15.578125 40.375 12.03125 44.71875 
Q 8.5 49.078125 8.5 55.328125 
Q 8.5 64.0625 14.71875 69.140625 
Q 20.953125 74.21875 31.78125 74.21875 
Q 42.671875 74.21875 48.875 69.140625 
Q 55.078125 64.0625 55.078125 55.328125 
Q 55.078125 49.078125 51.53125 44.71875 
Q 48 40.375 41.703125 38.8125 
Q 48.828125 37.15625 52.796875 32.3125 
Q 56.78125 27.484375 56.78125 20.515625 
Q 56.78125 9.90625 50.3125 4.234375 
Q 43.84375 -1.421875 31.78125 -1.421875 
Q 19.734375 -1.421875 13.25 4.234375 
Q 6.78125 9.90625 6.78125 20.515625 
Q 6.78125 27.484375 10.78125 32.3125 
Q 14.796875 37.15625 21.921875 38.8125 
z
M 18.3125 54.390625 
Q 18.3125 48.734375 21.84375 45.5625 
Q 25.390625 42.390625 31.78125 42.390625 
Q 38.140625 42.390625 41.71875 45.5625 
Q 45.3125 48.734375 45.3125 54.390625 
Q 45.3125 60.0625 41.71875 63.234375 
Q 38.140625 66.40625 31.78125 66.40625 
Q 25.390625 66.40625 21.84375 63.234375 
Q 18.3125 60.0625 18.3125 54.390625 
z
" id="DejaVuSans-56"/>
      </defs>
      <g transform="translate(249.938467 322.182437)scale(0.1 -0.1)">
       <use xlink:href="#DejaVuSans-56"/>
       <use x="63.623047" xlink:href="#DejaVuSans-48"/>
       <use x="127.246094" xlink:href="#DejaVuSans-48"/>
      </g>
     </g>
    </g>
    <g id="xtick_6">
     <g id="line2d_6">
      <g>
       <use style="stroke:#000000;stroke-width:0.8;" x="305.89459" xlink:href="#m538433b772" y="307.584"/>
      </g>
     </g>
     <g id="text_6">
      <!-- 1000 -->
      <defs>
       <path d="M 12.40625 8.296875 
L 28.515625 8.296875 
L 28.515625 63.921875 
L 10.984375 60.40625 
L 10.984375 69.390625 
L 28.421875 72.90625 
L 38.28125 72.90625 
L 38.28125 8.296875 
L 54.390625 8.296875 
L 54.390625 0 
L 12.40625 0 
z
" id="DejaVuSans-49"/>
      </defs>
      <g transform="translate(293.16959 322.182437)scale(0.1 -0.1)">
       <use xlink:href="#DejaVuSans-49"/>
       <use x="63.623047" xlink:href="#DejaVuSans-48"/>
       <use x="127.246094" xlink:href="#DejaVuSans-48"/>
       <use x="190.869141" xlink:href="#DejaVuSans-48"/>
      </g>
     </g>
    </g>
    <g id="xtick_7">
     <g id="line2d_7">
      <g>
       <use style="stroke:#000000;stroke-width:0.8;" x="352.306962" xlink:href="#m538433b772" y="307.584"/>
      </g>
     </g>
     <g id="text_7">
      <!-- 1200 -->
      <g transform="translate(339.581962 322.182437)scale(0.1 -0.1)">
       <use xlink:href="#DejaVuSans-49"/>
       <use x="63.623047" xlink:href="#DejaVuSans-50"/>
       <use x="127.246094" xlink:href="#DejaVuSans-48"/>
       <use x="190.869141" xlink:href="#DejaVuSans-48"/>
      </g>
     </g>
    </g>
    <g id="xtick_8">
     <g id="line2d_8">
      <g>
       <use style="stroke:#000000;stroke-width:0.8;" x="398.719335" xlink:href="#m538433b772" y="307.584"/>
      </g>
     </g>
     <g id="text_8">
      <!-- 1400 -->
      <g transform="translate(385.994335 322.182437)scale(0.1 -0.1)">
       <use xlink:href="#DejaVuSans-49"/>
       <use x="63.623047" xlink:href="#DejaVuSans-52"/>
       <use x="127.246094" xlink:href="#DejaVuSans-48"/>
       <use x="190.869141" xlink:href="#DejaVuSans-48"/>
      </g>
     </g>
    </g>
   </g>
   <g id="matplotlib.axis_2">
    <g id="ytick_1">
     <g id="line2d_9">
      <defs>
       <path d="M 0 0 
L -3.5 0 
" id="mc1e0c77fd4" style="stroke:#000000;stroke-width:0.8;"/>
      </defs>
      <g>
       <use style="stroke:#000000;stroke-width:0.8;" x="57.6" xlink:href="#mc1e0c77fd4" y="295.494072"/>
      </g>
     </g>
     <g id="text_9">
      <!-- 0.0 -->
      <defs>
       <path d="M 10.6875 12.40625 
L 21 12.40625 
L 21 0 
L 10.6875 0 
z
" id="DejaVuSans-46"/>
      </defs>
      <g transform="translate(34.696875 299.293291)scale(0.1 -0.1)">
       <use xlink:href="#DejaVuSans-48"/>
       <use x="63.623047" xlink:href="#DejaVuSans-46"/>
       <use x="95.410156" xlink:href="#DejaVuSans-48"/>
      </g>
     </g>
    </g>
    <g id="ytick_2">
     <g id="line2d_10">
      <g>
       <use style="stroke:#000000;stroke-width:0.8;" x="57.6" xlink:href="#mc1e0c77fd4" y="252.009062"/>
      </g>
     </g>
     <g id="text_10">
      <!-- 0.2 -->
      <g transform="translate(34.696875 255.808281)scale(0.1 -0.1)">
       <use xlink:href="#DejaVuSans-48"/>
       <use x="63.623047" xlink:href="#DejaVuSans-46"/>
       <use x="95.410156" xlink:href="#DejaVuSans-50"/>
      </g>
     </g>
    </g>
    <g id="ytick_3">
     <g id="line2d_11">
      <g>
       <use style="stroke:#000000;stroke-width:0.8;" x="57.6" xlink:href="#mc1e0c77fd4" y="208.524052"/>
      </g>
     </g>
     <g id="text_11">
      <!-- 0.4 -->
      <g transform="translate(34.696875 212.323271)scale(0.1 -0.1)">
       <use xlink:href="#DejaVuSans-48"/>
       <use x="63.623047" xlink:href="#DejaVuSans-46"/>
       <use x="95.410156" xlink:href="#DejaVuSans-52"/>
      </g>
     </g>
    </g>
    <g id="ytick_4">
     <g id="line2d_12">
      <g>
       <use style="stroke:#000000;stroke-width:0.8;" x="57.6" xlink:href="#mc1e0c77fd4" y="165.039042"/>
      </g>
     </g>
     <g id="text_12">
      <!-- 0.6 -->
      <g transform="translate(34.696875 168.83826)scale(0.1 -0.1)">
       <use xlink:href="#DejaVuSans-48"/>
       <use x="63.623047" xlink:href="#DejaVuSans-46"/>
       <use x="95.410156" xlink:href="#DejaVuSans-54"/>
      </g>
     </g>
    </g>
    <g id="ytick_5">
     <g id="line2d_13">
      <g>
       <use style="stroke:#000000;stroke-width:0.8;" x="57.6" xlink:href="#mc1e0c77fd4" y="121.554032"/>
      </g>
     </g>
     <g id="text_13">
      <!-- 0.8 -->
      <g transform="translate(34.696875 125.35325)scale(0.1 -0.1)">
       <use xlink:href="#DejaVuSans-48"/>
       <use x="63.623047" xlink:href="#DejaVuSans-46"/>
       <use x="95.410156" xlink:href="#DejaVuSans-56"/>
      </g>
     </g>
    </g>
    <g id="ytick_6">
     <g id="line2d_14">
      <g>
       <use style="stroke:#000000;stroke-width:0.8;" x="57.6" xlink:href="#mc1e0c77fd4" y="78.069021"/>
      </g>
     </g>
     <g id="text_14">
      <!-- 1.0 -->
      <g transform="translate(34.696875 81.86824)scale(0.1 -0.1)">
       <use xlink:href="#DejaVuSans-49"/>
       <use x="63.623047" xlink:href="#DejaVuSans-46"/>
       <use x="95.410156" xlink:href="#DejaVuSans-48"/>
      </g>
     </g>
    </g>
   </g>
   <g id="line2d_15">
    <path clip-path="url(#p1e2b51318b)" d="M 73.832727 60.451979 
L 74.993037 79.548329 
L 75.45716 84.366645 
L 75.921284 86.703476 
L 76.153346 87.085357 
L 76.385408 86.894544 
L 76.61747 86.258922 
L 77.081593 83.447579 
L 77.545717 79.223206 
L 78.241903 70.245105 
L 78.706026 64.968797 
L 79.402212 59.820889 
L 80.098398 56.383364 
L 80.562521 55.130344 
L 81.026645 54.46278 
L 81.490769 54.289343 
L 81.954892 54.467806 
L 82.651078 55.077278 
L 83.579325 56.099617 
L 84.275511 56.632065 
L 84.971697 56.987164 
L 85.899944 57.200348 
L 87.060253 57.012628 
L 87.524377 56.810965 
L 88.684686 56.257293 
L 90.077058 55.932833 
L 90.541181 55.921015 
L 91.005305 56.144207 
L 91.933553 56.024843 
L 93.325924 55.778241 
L 93.790047 55.472442 
L 96.57479 53.856453 
L 97.503037 53.683214 
L 99.12747 53.642194 
L 99.359532 53.772542 
L 99.823656 53.737014 
L 100.28778 53.944229 
L 100.751903 54.004588 
L 101.912213 54.135132 
L 102.376336 54.136833 
L 102.608398 54.063199 
L 103.072522 54.148019 
L 103.304584 54.095926 
L 103.768708 54.128826 
L 104.929017 53.975895 
L 105.161079 54.132785 
L 105.393141 54.024127 
L 107.017574 54.08441 
L 107.481697 54.016801 
L 109.338192 54.02638 
L 110.034378 54.092185 
L 111.890873 54.155808 
L 113.515306 54.068725 
L 113.747368 54.154287 
L 113.979429 53.960587 
L 114.211491 53.976393 
L 114.443553 54.128745 
L 114.907677 53.969186 
L 115.371801 53.962153 
L 115.835924 54.025691 
L 116.53211 54.002866 
L 117.460357 54.030935 
L 118.852729 54.13416 
L 120.709223 54.201121 
L 123.029842 54.184895 
L 124.190151 54.241349 
L 124.886337 54.33133 
L 125.118399 54.220778 
L 127.206956 54.317825 
L 127.671079 54.251655 
L 128.599327 54.105559 
L 128.831389 54.393748 
L 129.295512 54.256421 
L 131.848193 54.18093 
L 132.312317 54.262774 
L 133.472626 54.171067 
L 135.561183 54.161418 
L 135.793245 54.391758 
L 136.257368 54.213954 
L 136.48943 54.160685 
L 136.721492 54.287319 
L 139.274172 54.277749 
L 139.506234 54.358268 
L 139.738296 54.254656 
L 140.434482 54.295712 
L 142.290977 54.321117 
L 144.147472 54.355638 
L 144.611595 54.372264 
L 146.003966 54.462979 
L 146.46809 54.551174 
L 149.252833 54.437968 
L 149.484894 54.59729 
L 151.573451 54.402545 
L 156.44675 54.347201 
L 156.678812 54.483246 
L 162.944482 54.459288 
L 163.408606 54.578751 
L 165.729225 54.60381 
L 167.817782 54.709185 
L 172.459019 54.716714 
L 174.779637 54.592716 
L 175.011699 54.693224 
L 175.243761 54.60705 
L 175.475823 54.704869 
L 175.707885 54.623377 
L 176.172009 54.721525 
L 178.956751 54.773171 
L 179.188813 54.866679 
L 179.420875 54.731288 
L 179.884998 54.723067 
L 180.11706 54.835701 
L 181.27737 54.675417 
L 181.741493 54.735957 
L 184.526236 54.713032 
L 185.454483 54.740477 
L 185.686545 54.841618 
L 187.078916 54.706307 
L 187.310978 54.85517 
L 187.54304 54.853323 
L 187.775102 54.717214 
L 188.007164 54.739078 
L 188.239225 54.879403 
L 188.471287 54.755542 
L 189.167473 54.904713 
L 189.399535 54.772378 
L 189.631597 54.904786 
L 189.863658 54.722597 
L 190.559844 54.850076 
L 190.791906 54.708952 
L 191.023968 54.772464 
L 191.25603 54.66882 
L 191.952215 54.763993 
L 192.648401 54.76099 
L 192.880463 54.823076 
L 193.112525 54.63442 
L 193.576648 54.723789 
L 193.80871 54.653547 
L 194.504896 54.822175 
L 195.897267 54.863445 
L 196.129329 54.676421 
L 196.361391 54.792459 
L 197.057576 54.819931 
L 197.5217 54.882579 
L 197.985824 54.730536 
L 198.217886 54.768897 
L 198.449947 54.622715 
L 201.002628 54.739684 
L 201.466752 54.766733 
L 202.394999 54.780978 
L 202.859123 54.782404 
L 203.555308 54.942182 
L 204.019432 54.922974 
L 204.483556 54.98329 
L 204.94768 54.973099 
L 205.179741 54.861314 
L 205.411803 54.983585 
L 207.036236 54.988729 
L 207.268298 55.10202 
L 208.196546 55.017388 
L 208.428607 54.893593 
L 208.892731 55.019672 
L 209.124793 54.872156 
L 209.356855 55.025634 
L 210.517164 54.996549 
L 210.749226 54.910255 
L 211.21335 54.971982 
L 211.677474 54.898218 
L 211.909535 54.857207 
L 212.141597 54.978254 
L 213.069845 54.937512 
L 213.301907 54.911724 
L 213.533968 55.081123 
L 213.76603 55.110227 
L 214.230154 54.945768 
L 214.462216 54.981797 
L 214.694278 54.878981 
L 215.622525 55.092032 
L 215.854587 54.866113 
L 217.014896 54.863098 
L 217.246958 54.945188 
L 217.943144 54.841293 
L 218.407268 54.906201 
L 218.639329 54.835935 
L 218.871391 54.967187 
L 219.103453 54.89062 
L 219.335515 55.011208 
L 219.567577 54.92706 
L 220.031701 55.157386 
L 220.263762 55.145757 
L 220.495824 54.984945 
L 220.727886 55.116291 
L 222.584381 55.061709 
L 224.440876 55.110037 
L 224.672938 55.02706 
L 225.137062 55.032962 
L 228.385928 54.909123 
L 228.850051 55.072192 
L 229.082113 54.965449 
L 229.314175 55.095299 
L 229.778299 54.997735 
L 230.010361 55.033963 
L 230.242423 54.925123 
L 230.706546 55.00579 
L 231.402732 55.086904 
L 232.098917 55.220414 
L 232.563041 55.215555 
L 233.72335 55.257445 
L 234.88366 55.156534 
L 235.115722 55.298013 
L 235.811907 55.109937 
L 236.276031 54.898472 
L 237.668402 54.580521 
L 237.900464 54.653145 
L 238.132526 54.566017 
L 238.59665 54.641927 
L 239.060773 54.591467 
L 240.221083 54.815421 
L 241.14933 55.034434 
L 241.381392 54.941383 
L 241.845516 55.098366 
L 244.630258 55.228691 
L 244.86232 55.042599 
L 245.326444 55.138399 
L 245.558505 55.145052 
L 245.790567 54.967436 
L 246.022629 55.142522 
L 247.647062 55.131857 
L 248.111186 55.144478 
L 248.343248 54.878005 
L 248.57531 55.18449 
L 248.807371 55.050963 
L 249.271495 55.137902 
L 249.967681 55.249497 
L 250.431805 55.241574 
L 250.663866 54.938004 
L 250.895928 55.251871 
L 252.520361 55.260744 
L 252.752423 55.196445 
L 252.984485 55.277533 
L 253.680671 55.17809 
L 254.144794 55.25186 
L 254.608918 55.255043 
L 254.84098 55.10446 
L 256.233351 55.103786 
L 256.465413 55.335369 
L 256.697475 55.09692 
L 256.929537 55.111042 
L 257.161599 55.345927 
L 257.39366 55.084032 
L 261.338712 55.338203 
L 261.570774 55.511627 
L 262.963145 55.336375 
L 263.427269 55.268421 
L 265.283764 55.368482 
L 265.515826 55.668774 
L 265.747887 55.276743 
L 266.676135 55.177926 
L 269.228815 55.301468 
L 269.692939 55.302447 
L 269.925001 55.155779 
L 270.157063 55.283648 
L 271.08531 55.13472 
L 271.317372 55.311839 
L 271.781496 55.318444 
L 275.494486 55.342581 
L 275.726548 55.185541 
L 275.958609 55.36241 
L 280.367785 55.286886 
L 280.599847 55.192535 
L 281.06397 55.301456 
L 284.312836 55.497163 
L 285.241084 55.51553 
L 286.401393 55.45984 
L 286.633455 55.54847 
L 286.865517 55.450439 
L 287.097579 55.634693 
L 287.561703 55.557161 
L 288.722012 55.535423 
L 288.954074 55.596214 
L 289.186136 55.523483 
L 289.650259 55.586236 
L 290.346445 55.517784 
L 291.274692 55.416266 
L 291.738816 55.267609 
L 291.970878 55.668324 
L 292.435002 55.798378 
L 292.899125 55.631242 
L 293.595311 56.02415 
L 294.059435 56.105811 
L 294.291497 55.701364 
L 294.523558 55.634724 
L 294.75562 55.944779 
L 294.987682 55.69749 
L 295.683868 55.522848 
L 295.91593 55.677089 
L 296.147991 55.573459 
L 296.380053 55.74508 
L 296.844177 55.538829 
L 297.076239 55.518409 
L 297.540363 56.102923 
L 297.772424 55.647855 
L 298.004486 55.918769 
L 298.236548 55.919477 
L 298.700672 55.652454 
L 299.396857 55.560468 
L 299.628919 55.828211 
L 299.860981 55.876504 
L 300.093043 55.795723 
L 300.325105 55.838729 
L 301.021291 55.503741 
L 301.485414 55.985082 
L 301.717476 55.664455 
L 301.949538 55.629015 
L 302.413662 55.738533 
L 302.877785 55.772088 
L 303.341909 55.898818 
L 303.806033 55.749282 
L 304.270157 55.965667 
L 304.502218 55.802152 
L 304.966342 55.880154 
L 305.430466 55.790435 
L 306.358713 55.664601 
L 307.054899 55.71047 
L 307.519023 55.649297 
L 308.679332 55.584837 
L 308.911394 55.718167 
L 309.143456 55.527821 
L 309.607579 55.540028 
L 310.071703 55.715365 
L 310.535827 55.608297 
L 310.767889 55.729344 
L 310.999951 55.610983 
L 311.232012 55.692003 
L 311.464074 55.582237 
L 312.16026 55.693875 
L 312.392322 55.594615 
L 312.624384 55.717452 
L 313.552631 55.739399 
L 313.784693 55.857358 
L 315.409126 55.457836 
L 315.641188 55.853982 
L 315.87325 55.981962 
L 316.105312 55.782085 
L 316.569435 56.220064 
L 316.801497 56.327029 
L 317.033559 55.856279 
L 317.265621 55.697832 
L 317.729745 55.96742 
L 318.193868 55.884066 
L 318.42593 56.087996 
L 318.657992 55.890877 
L 319.354178 55.956895 
L 319.818301 55.810204 
L 320.746549 55.755486 
L 320.978611 55.647247 
L 321.210673 55.786892 
L 321.674796 55.802595 
L 321.906858 55.563467 
L 322.370982 55.457561 
L 322.603044 55.688987 
L 322.835106 55.46695 
L 323.531291 55.760811 
L 323.763353 55.594015 
L 324.459539 55.704135 
L 324.6916 56.008939 
L 324.923662 55.878336 
L 325.619848 55.929429 
L 325.85191 55.756438 
L 326.083972 55.724564 
L 326.548095 55.369594 
L 327.012219 55.808381 
L 327.244281 56.075065 
L 327.476343 56.169414 
L 327.708405 55.954095 
L 327.940467 56.12075 
L 328.40459 55.803231 
L 328.868714 55.749181 
L 329.100776 55.85298 
L 329.332838 55.691018 
L 329.796961 55.713523 
L 330.029023 55.730553 
L 330.261085 55.555244 
L 330.493147 55.554457 
L 330.725209 56.145404 
L 330.957271 55.788835 
L 331.189333 55.926651 
L 331.653456 55.787611 
L 331.885518 55.905829 
L 332.11758 55.776204 
L 332.581704 56.038774 
L 333.045828 55.895549 
L 333.277889 55.84051 
L 333.509951 55.92298 
L 333.742013 55.849399 
L 333.974075 55.952295 
L 334.902322 55.852367 
L 335.598508 56.113851 
L 336.062632 55.930252 
L 337.687065 55.926336 
L 337.919127 55.987219 
L 338.151189 56.229192 
L 339.311498 56.047166 
L 339.54356 56.164888 
L 340.007683 55.808485 
L 341.167993 55.963158 
L 341.400055 56.110765 
L 341.632116 55.944166 
L 341.864178 56.100022 
L 342.09624 55.985354 
L 342.792426 56.107855 
L 343.024488 55.954319 
L 343.256549 56.408312 
L 343.488611 56.068898 
L 344.184797 56.031189 
L 344.416859 56.13516 
L 344.648921 55.984501 
L 344.880983 56.01392 
L 345.113044 56.602202 
L 345.577168 56.095696 
L 345.80923 56.257649 
L 346.273354 55.86638 
L 346.505416 55.896397 
L 346.737477 55.700336 
L 346.969539 55.734624 
L 347.201601 55.621503 
L 347.897787 55.806346 
L 348.129849 56.097254 
L 348.826034 55.78711 
L 349.290158 55.944177 
L 350.450467 56.139968 
L 351.146653 56.125087 
L 351.378715 55.927472 
L 352.0749 55.887299 
L 352.306962 55.697603 
L 352.539024 56.162769 
L 352.771086 56.007894 
L 353.699333 55.963081 
L 353.931395 56.561356 
L 354.395519 56.244944 
L 354.859643 56.038513 
L 355.78789 56.146395 
L 356.252014 56.059083 
L 358.108509 56.085311 
L 358.340571 56.448808 
L 358.572632 56.210211 
L 358.804694 56.235973 
L 359.268818 56.40377 
L 359.732942 56.249724 
L 359.965004 56.289158 
L 360.429127 56.158921 
L 360.893251 56.109417 
L 361.125313 56.195407 
L 361.357375 56.006089 
L 362.749746 56.016998 
L 363.445932 55.866221 
L 363.677993 55.869596 
L 363.910055 56.285174 
L 364.142117 56.022146 
L 364.374179 56.975861 
L 364.606241 56.201063 
L 365.302426 55.828705 
L 366.230674 56.122944 
L 366.462736 55.918322 
L 366.694798 56.035111 
L 366.926859 55.934066 
L 367.158921 56.169289 
L 367.390983 56.164385 
L 367.623045 56.032229 
L 368.087169 56.460549 
L 368.319231 56.267248 
L 368.551292 56.314532 
L 368.783354 56.005471 
L 369.015416 55.912044 
L 369.711602 55.993324 
L 370.175726 56.050147 
L 370.639849 56.143003 
L 371.336035 56.041551 
L 374.120777 56.180603 
L 375.049025 56.359777 
L 375.513148 56.145741 
L 375.977272 56.503101 
L 376.209334 56.264312 
L 376.441396 56.380411 
L 376.90552 56.002766 
L 377.137581 56.278468 
L 377.369643 56.109149 
L 378.065829 56.241887 
L 378.529953 56.142553 
L 378.762014 56.352186 
L 378.994076 56.18816 
L 379.226138 56.253349 
L 379.4582 56.153076 
L 379.690262 56.243143 
L 379.922324 56.196394 
L 380.154386 55.999867 
L 380.386447 56.111292 
L 380.850571 55.987098 
L 381.082633 56.128498 
L 381.314695 56.480971 
L 381.546757 56.160561 
L 382.707066 56.053648 
L 383.17119 56.245883 
L 383.403252 56.085144 
L 383.867375 56.157257 
L 385.027685 56.161109 
L 385.491808 56.333514 
L 385.72387 56.396225 
L 385.955932 56.191265 
L 386.187994 56.249491 
L 386.420056 56.139565 
L 386.88418 56.111067 
L 387.348303 56.924741 
L 387.580365 56.256442 
L 387.812427 56.801724 
L 388.044489 56.514997 
L 388.276551 56.43514 
L 388.740675 56.707305 
L 388.972736 56.834911 
L 389.43686 56.404917 
L 389.668922 56.485132 
L 390.365108 56.436667 
L 391.293355 56.403402 
L 391.525417 56.748732 
L 391.757479 56.612148 
L 391.989541 56.861755 
L 392.453664 56.354305 
L 393.381912 56.378467 
L 393.846035 56.192977 
L 394.310159 56.157133 
L 394.774283 56.075524 
L 395.238407 56.65609 
L 395.934592 56.991433 
L 396.398716 57.096437 
L 396.630778 56.684494 
L 396.86284 56.514966 
L 397.559025 56.45144 
L 397.791087 56.6782 
L 398.023149 56.347278 
L 398.255211 56.318016 
L 398.487273 56.517465 
L 398.487273 56.517465 
" style="fill:none;stroke:#1f77b4;stroke-linecap:square;stroke-width:1.5;"/>
   </g>
   <g id="line2d_16">
    <path clip-path="url(#p1e2b51318b)" d="M 73.832727 295.244916 
L 74.064789 295.184082 
L 74.528913 295.361978 
L 74.760975 295.129298 
L 75.45716 295.215951 
L 75.689222 295.136062 
L 75.921284 295.288591 
L 76.385408 295.203746 
L 78.938088 295.237853 
L 79.17015 295.120022 
L 79.866336 295.270251 
L 80.098398 295.078161 
L 80.794583 295.291064 
L 81.258707 295.225305 
L 81.490769 295.242542 
L 81.722831 295.378135 
L 82.419016 295.322313 
L 82.651078 295.184699 
L 82.88314 295.291558 
L 83.115202 295.209834 
L 83.579325 295.270242 
L 84.739635 295.151368 
L 85.203759 295.280771 
L 88.684686 295.173386 
L 89.14881 295.348106 
L 91.005305 295.297353 
L 91.237367 295.369222 
L 91.701491 295.217929 
L 92.397676 295.171728 
L 92.8618 295.3286 
L 93.325924 295.085014 
L 93.557986 295.086215 
L 93.790047 295.214712 
L 94.022109 295.092465 
L 94.254171 295.433898 
L 94.486233 295.22414 
L 95.182419 295.301751 
L 95.41448 295.004785 
L 95.646542 295.286052 
L 95.878604 295.134707 
L 96.110666 295.11723 
L 96.342728 295.248494 
L 96.57479 295.159221 
L 96.806852 295.240624 
L 97.038914 295.202114 
L 97.270975 295.283068 
L 97.503037 295.243494 
L 97.735099 295.068064 
L 98.199223 295.342374 
L 98.663347 295.276979 
L 98.895408 295.101977 
L 99.12747 295.320978 
L 100.055718 295.270733 
L 101.680151 295.212683 
L 102.144274 295.252957 
L 103.072522 295.222318 
L 103.304584 295.310533 
L 103.768708 295.178373 
L 104.232831 295.269416 
L 104.464893 295.319181 
L 104.696955 295.134 
L 105.625202 295.38163 
L 110.034378 295.195938 
L 110.26644 295.357694 
L 111.194687 295.155807 
L 112.587058 295.203583 
L 112.81912 295.379183 
L 115.371801 295.154665 
L 115.603862 295.368084 
L 116.53211 295.19268 
L 117.228296 295.304737 
L 119.780976 295.277722 
L 120.013038 295.310736 
L 120.2451 295.090092 
L 120.709223 295.127767 
L 121.405409 295.148883 
L 123.95809 295.138797 
L 124.190151 295.274763 
L 124.654275 295.044201 
L 129.759636 295.176848 
L 130.455822 295.174725 
L 132.544378 295.197783 
L 133.93675 295.115897 
L 135.561183 295.13784 
L 143.451286 295.160058 
L 143.91541 295.330683 
L 144.843657 295.311804 
L 146.932214 295.175685 
L 147.164276 295.016635 
L 147.396338 295.17272 
L 148.092523 295.192401 
L 148.324585 295.25928 
L 148.556647 295.156775 
L 149.484894 295.241752 
L 149.716956 295.144517 
L 150.413142 295.218875 
L 150.877266 295.18265 
L 154.126132 295.160027 
L 154.358194 295.183594 
L 154.822317 295.11225 
L 155.750565 295.130642 
L 156.910874 295.072181 
L 158.071183 295.169628 
L 159.927678 295.158626 
L 160.15974 295.218322 
L 160.623864 295.14511 
L 160.855926 295.203561 
L 161.087988 295.146125 
L 161.552111 295.219992 
L 163.176544 295.193446 
L 163.640668 295.147885 
L 164.104792 295.210373 
L 165.033039 295.21181 
L 165.729225 295.157719 
L 171.762833 295.236772 
L 171.994895 294.975595 
L 172.226957 295.134425 
L 172.459019 295.076573 
L 172.923143 295.161547 
L 173.387266 295.107801 
L 174.083452 295.27633 
L 174.315514 295.149466 
L 174.547576 295.246722 
L 175.011699 295.074637 
L 175.243761 295.13522 
L 175.475823 295.075387 
L 175.939947 295.20849 
L 178.028503 295.15106 
L 178.260565 295.256194 
L 178.492627 295.146447 
L 178.724689 295.260427 
L 179.188813 295.179716 
L 180.11706 295.180037 
L 182.901803 295.095785 
L 184.990359 295.185237 
L 185.222421 295.065215 
L 186.382731 295.216244 
L 186.614792 295.269373 
L 187.078916 295.156761 
L 188.471287 295.165964 
L 188.935411 295.114728 
L 189.167473 295.243994 
L 189.399535 295.149074 
L 189.631597 295.248574 
L 190.09572 295.146568 
L 190.327782 295.225474 
L 191.023968 295.056309 
L 191.488091 295.197204 
L 191.952215 295.134885 
L 192.416339 295.223846 
L 192.648401 295.13345 
L 192.880463 295.239807 
L 194.040772 295.120054 
L 194.272834 295.157153 
L 194.736958 295.084761 
L 195.201081 295.202384 
L 195.433143 295.032091 
L 195.665205 295.164466 
L 196.129329 295.159015 
L 196.593452 295.137629 
L 196.825514 295.103226 
L 197.289638 295.177151 
L 199.146133 295.146376 
L 199.378195 295.238129 
L 200.770566 295.12448 
L 201.930875 295.200326 
L 202.394999 295.174109 
L 203.091185 295.235924 
L 203.555308 295.143602 
L 203.78737 295.084644 
L 204.483556 295.213828 
L 204.94768 295.271879 
L 205.179741 295.368269 
L 205.411803 295.178207 
L 205.875927 295.301356 
L 206.340051 295.221689 
L 207.50036 295.184628 
L 207.732422 295.237786 
L 208.196546 295.146676 
L 208.660669 295.261986 
L 208.892731 295.144836 
L 210.285102 295.20631 
L 210.517164 294.9924 
L 210.749226 295.149848 
L 211.21335 295.055361 
L 211.445412 295.178534 
L 211.909535 295.209643 
L 212.837783 295.218598 
L 213.069845 295.271955 
L 213.533968 295.156189 
L 213.76603 295.23417 
L 213.998092 295.095109 
L 214.92634 295.239701 
L 217.47902 295.207271 
L 217.711082 295.24799 
L 218.175206 295.134314 
L 219.567577 295.202818 
L 220.495824 295.205527 
L 220.727886 294.943197 
L 220.959948 295.236365 
L 221.424072 295.194678 
L 221.656134 295.272942 
L 222.352319 295.207089 
L 232.563041 295.103125 
L 232.795103 295.260144 
L 233.027165 295.126365 
L 235.347783 295.231217 
L 235.579845 295.176122 
L 235.811907 295.347402 
L 236.043969 295.34651 
L 236.276031 295.111261 
L 236.740155 295.157406 
L 237.43634 295.132541 
L 238.132526 295.13128 
L 238.364588 295.005838 
L 238.59665 295.095108 
L 238.828711 295.027658 
L 239.292835 295.231753 
L 239.524897 295.178583 
L 240.221083 295.278885 
L 240.453144 295.145158 
L 240.685206 295.224484 
L 240.917268 295.185441 
L 241.14933 295.262586 
L 241.845516 295.064175 
L 242.077577 295.155067 
L 242.309639 295.45126 
L 242.541701 295.459368 
L 242.773763 295.237914 
L 243.005825 295.368679 
L 243.237887 295.070809 
L 243.469949 295.140296 
L 243.702011 295.332743 
L 243.934072 295.034413 
L 244.398196 295.143321 
L 244.86232 295.235351 
L 245.326444 295.17984 
L 246.254691 295.172242 
L 248.111186 295.227447 
L 248.343248 294.851895 
L 248.807371 294.964319 
L 249.039433 295.234663 
L 249.503557 295.148057 
L 249.735619 295.200931 
L 249.967681 295.108408 
L 250.431805 295.186639 
L 251.12799 295.209465 
L 251.824176 295.045987 
L 252.056238 295.488 
L 252.288299 295.139724 
L 252.520361 295.229882 
L 252.984485 295.095603 
L 253.216547 295.458323 
L 253.448609 295.114506 
L 254.144794 295.111181 
L 254.376856 295.328822 
L 254.84098 295.271228 
L 255.769227 295.245353 
L 256.001289 295.358823 
L 256.929537 295.307363 
L 258.321908 295.3262 
L 258.55397 295.086347 
L 258.786032 295.223415 
L 259.250155 295.17062 
L 261.802836 295.241179 
L 262.26696 295.362839 
L 262.499021 295.095613 
L 264.123454 295.20808 
L 264.355516 295.361542 
L 264.587578 295.161256 
L 265.051702 295.1623 
L 265.283764 294.988722 
L 265.979949 295.264655 
L 266.444073 295.150572 
L 267.37232 295.368763 
L 267.604382 295.151357 
L 267.836444 295.358055 
L 268.300568 295.281885 
L 268.764692 295.104827 
L 268.996754 295.202896 
L 269.228815 295.067126 
L 269.692939 295.200161 
L 270.621187 295.130666 
L 271.549434 295.333015 
L 271.781496 295.163299 
L 272.941805 295.152821 
L 277.350981 295.168675 
L 277.583042 295.019903 
L 278.279228 295.183014 
L 279.207475 295.08586 
L 279.439537 295.149383 
L 279.671599 294.858288 
L 279.903661 295.183877 
L 280.135723 295.039701 
L 280.599847 295.097368 
L 280.831909 295.097132 
L 281.06397 295.332551 
L 281.296032 295.182201 
L 281.760156 295.282176 
L 286.169331 295.284453 
L 286.401393 295.18233 
L 286.633455 295.286685 
L 287.329641 295.12932 
L 290.346445 295.160481 
L 291.738816 295.150053 
L 298.46861 295.123068 
L 298.700672 295.261345 
L 298.932734 295.136631 
L 299.164796 295.22538 
L 299.860981 295.180345 
L 307.983146 295.137385 
L 308.215208 295.012498 
L 308.44727 295.165879 
L 310.999951 295.157518 
L 311.232012 295.040673 
L 311.696136 295.203444 
L 311.928198 295.042552 
L 312.392322 295.146375 
L 314.480879 295.165161 
L 323.067167 295.065277 
L 324.923662 295.07077 
L 325.387786 295.173456 
L 330.261085 295.096853 
L 330.957271 295.046219 
L 331.421395 295.159667 
L 332.581704 295.122799 
L 332.813766 295.042133 
L 333.045828 295.195391 
L 333.509951 295.046299 
L 333.742013 295.039849 
L 334.206137 295.199888 
L 334.670261 295.068232 
L 334.902322 294.995272 
L 335.134384 295.194485 
L 336.062632 294.997365 
L 336.294694 295.19284 
L 338.151189 295.072493 
L 338.615312 295.172825 
L 342.560364 295.159983 
L 343.024488 294.968486 
L 343.488611 295.117868 
L 343.720673 295.156722 
L 344.184797 295.034283 
L 344.648921 295.08538 
L 346.505416 295.031086 
L 346.969539 295.157335 
L 360.197065 295.076184 
L 360.661189 295.131253 
L 360.893251 295.192352 
L 361.125313 295.047997 
L 361.589437 295.23141 
L 362.517684 295.193752 
L 362.749746 295.048603 
L 363.21387 295.077093 
L 363.677993 295.189164 
L 364.142117 295.172006 
L 364.606241 295.293776 
L 365.76655 295.310242 
L 365.998612 295.145083 
L 366.230674 295.269373 
L 366.462736 295.018193 
L 367.158921 295.133839 
L 368.783354 295.238404 
L 369.015416 295.314205 
L 369.247478 295.129791 
L 370.871911 295.141308 
L 371.103973 295.273015 
L 371.336035 295.118512 
L 371.800159 295.16088 
L 372.03222 295.373229 
L 372.264282 295.178954 
L 373.424592 295.219613 
L 373.888715 295.062051 
L 374.584901 295.1224 
L 375.049025 295.159098 
L 375.281086 294.93655 
L 375.513148 295.162817 
L 378.762014 295.160728 
L 378.994076 295.041439 
L 379.4582 295.182718 
L 380.154386 295.167785 
L 380.618509 295.147433 
L 381.082633 295.169351 
L 383.403252 295.161474 
L 383.635314 295.054516 
L 384.099437 295.162462 
L 385.259747 295.131562 
L 389.900984 295.152495 
L 390.133046 295.043532 
L 390.365108 295.26186 
L 390.597169 294.983555 
L 390.829231 295.147203 
L 391.989541 295.146657 
L 392.917788 295.113665 
L 395.238407 295.150632 
L 395.470469 295.244753 
L 395.934592 295.123439 
L 396.166654 295.07724 
L 396.398716 295.239335 
L 397.326963 295.117261 
L 398.023149 295.139093 
L 398.487273 295.121697 
L 398.487273 295.121697 
" style="fill:none;stroke:#ff7f0e;stroke-linecap:square;stroke-width:1.5;"/>
   </g>
   <g id="patch_3">
    <path d="M 57.6 307.584 
L 57.6 41.472 
" style="fill:none;stroke:#000000;stroke-linecap:square;stroke-linejoin:miter;stroke-width:0.8;"/>
   </g>
   <g id="patch_4">
    <path d="M 414.72 307.584 
L 414.72 41.472 
" style="fill:none;stroke:#000000;stroke-linecap:square;stroke-linejoin:miter;stroke-width:0.8;"/>
   </g>
   <g id="patch_5">
    <path d="M 57.6 307.584 
L 414.72 307.584 
" style="fill:none;stroke:#000000;stroke-linecap:square;stroke-linejoin:miter;stroke-width:0.8;"/>
   </g>
   <g id="patch_6">
    <path d="M 57.6 41.472 
L 414.72 41.472 
" style="fill:none;stroke:#000000;stroke-linecap:square;stroke-linejoin:miter;stroke-width:0.8;"/>
   </g>
  </g>
 </g>
 <defs>
  <clipPath id="p1e2b51318b">
   <rect height="266.112" width="357.12" x="57.6" y="41.472"/>
  </clipPath>
 </defs>
</svg>
