<?xml version="1.0" encoding="utf-8" standalone="no"?>
<!DOCTYPE svg PUBLIC "-//W3C//DTD SVG 1.1//EN"
  "http://www.w3.org/Graphics/SVG/1.1/DTD/svg11.dtd">
<!-- Created with matplotlib (https://matplotlib.org/) -->
<svg height="345.6pt" version="1.1" viewBox="0 0 460.8 345.6" width="460.8pt" xmlns="http://www.w3.org/2000/svg" xmlns:xlink="http://www.w3.org/1999/xlink">
 <defs>
  <style type="text/css">
*{stroke-linecap:butt;stroke-linejoin:round;}
  </style>
 </defs>
 <g id="figure_1">
  <g id="patch_1">
   <path d="M 0 345.6 
L 460.8 345.6 
L 460.8 0 
L 0 0 
z
" style="fill:#ffffff;"/>
  </g>
  <g id="axes_1">
   <g id="patch_2">
    <path d="M 57.6 307.584 
L 414.72 307.584 
L 414.72 41.472 
L 57.6 41.472 
z
" style="fill:#ffffff;"/>
   </g>
   <g id="matplotlib.axis_1">
    <g id="xtick_1">
     <g id="line2d_1">
      <defs>
       <path d="M 0 0 
L 0 3.5 
" id="me4f6df26db" style="stroke:#000000;stroke-width:0.8;"/>
      </defs>
      <g>
       <use style="stroke:#000000;stroke-width:0.8;" x="73.832727" xlink:href="#me4f6df26db" y="307.584"/>
      </g>
     </g>
     <g id="text_1">
      <!-- 0 -->
      <defs>
       <path d="M 31.78125 66.40625 
Q 24.171875 66.40625 20.328125 58.90625 
Q 16.5 51.421875 16.5 36.375 
Q 16.5 21.390625 20.328125 13.890625 
Q 24.171875 6.390625 31.78125 6.390625 
Q 39.453125 6.390625 43.28125 13.890625 
Q 47.125 21.390625 47.125 36.375 
Q 47.125 51.421875 43.28125 58.90625 
Q 39.453125 66.40625 31.78125 66.40625 
z
M 31.78125 74.21875 
Q 44.046875 74.21875 50.515625 64.515625 
Q 56.984375 54.828125 56.984375 36.375 
Q 56.984375 17.96875 50.515625 8.265625 
Q 44.046875 -1.421875 31.78125 -1.421875 
Q 19.53125 -1.421875 13.0625 8.265625 
Q 6.59375 17.96875 6.59375 36.375 
Q 6.59375 54.828125 13.0625 64.515625 
Q 19.53125 74.21875 31.78125 74.21875 
z
" id="DejaVuSans-48"/>
      </defs>
      <g transform="translate(70.651477 322.182437)scale(0.1 -0.1)">
       <use xlink:href="#DejaVuSans-48"/>
      </g>
     </g>
    </g>
    <g id="xtick_2">
     <g id="line2d_2">
      <g>
       <use style="stroke:#000000;stroke-width:0.8;" x="120.2451" xlink:href="#me4f6df26db" y="307.584"/>
      </g>
     </g>
     <g id="text_2">
      <!-- 200 -->
      <defs>
       <path d="M 19.1875 8.296875 
L 53.609375 8.296875 
L 53.609375 0 
L 7.328125 0 
L 7.328125 8.296875 
Q 12.9375 14.109375 22.625 23.890625 
Q 32.328125 33.6875 34.8125 36.53125 
Q 39.546875 41.84375 41.421875 45.53125 
Q 43.3125 49.21875 43.3125 52.78125 
Q 43.3125 58.59375 39.234375 62.25 
Q 35.15625 65.921875 28.609375 65.921875 
Q 23.96875 65.921875 18.8125 64.3125 
Q 13.671875 62.703125 7.8125 59.421875 
L 7.8125 69.390625 
Q 13.765625 71.78125 18.9375 73 
Q 24.125 74.21875 28.421875 74.21875 
Q 39.75 74.21875 46.484375 68.546875 
Q 53.21875 62.890625 53.21875 53.421875 
Q 53.21875 48.921875 51.53125 44.890625 
Q 49.859375 40.875 45.40625 35.40625 
Q 44.1875 33.984375 37.640625 27.21875 
Q 31.109375 20.453125 19.1875 8.296875 
z
" id="DejaVuSans-50"/>
      </defs>
      <g transform="translate(110.70135 322.182437)scale(0.1 -0.1)">
       <use xlink:href="#DejaVuSans-50"/>
       <use x="63.623047" xlink:href="#DejaVuSans-48"/>
       <use x="127.246094" xlink:href="#DejaVuSans-48"/>
      </g>
     </g>
    </g>
    <g id="xtick_3">
     <g id="line2d_3">
      <g>
       <use style="stroke:#000000;stroke-width:0.8;" x="166.657472" xlink:href="#me4f6df26db" y="307.584"/>
      </g>
     </g>
     <g id="text_3">
      <!-- 400 -->
      <defs>
       <path d="M 37.796875 64.3125 
L 12.890625 25.390625 
L 37.796875 25.390625 
z
M 35.203125 72.90625 
L 47.609375 72.90625 
L 47.609375 25.390625 
L 58.015625 25.390625 
L 58.015625 17.1875 
L 47.609375 17.1875 
L 47.609375 0 
L 37.796875 0 
L 37.796875 17.1875 
L 4.890625 17.1875 
L 4.890625 26.703125 
z
" id="DejaVuSans-52"/>
      </defs>
      <g transform="translate(157.113722 322.182437)scale(0.1 -0.1)">
       <use xlink:href="#DejaVuSans-52"/>
       <use x="63.623047" xlink:href="#DejaVuSans-48"/>
       <use x="127.246094" xlink:href="#DejaVuSans-48"/>
      </g>
     </g>
    </g>
    <g id="xtick_4">
     <g id="line2d_4">
      <g>
       <use style="stroke:#000000;stroke-width:0.8;" x="213.069845" xlink:href="#me4f6df26db" y="307.584"/>
      </g>
     </g>
     <g id="text_4">
      <!-- 600 -->
      <defs>
       <path d="M 33.015625 40.375 
Q 26.375 40.375 22.484375 35.828125 
Q 18.609375 31.296875 18.609375 23.390625 
Q 18.609375 15.53125 22.484375 10.953125 
Q 26.375 6.390625 33.015625 6.390625 
Q 39.65625 6.390625 43.53125 10.953125 
Q 47.40625 15.53125 47.40625 23.390625 
Q 47.40625 31.296875 43.53125 35.828125 
Q 39.65625 40.375 33.015625 40.375 
z
M 52.59375 71.296875 
L 52.59375 62.3125 
Q 48.875 64.0625 45.09375 64.984375 
Q 41.3125 65.921875 37.59375 65.921875 
Q 27.828125 65.921875 22.671875 59.328125 
Q 17.53125 52.734375 16.796875 39.40625 
Q 19.671875 43.65625 24.015625 45.921875 
Q 28.375 48.1875 33.59375 48.1875 
Q 44.578125 48.1875 50.953125 41.515625 
Q 57.328125 34.859375 57.328125 23.390625 
Q 57.328125 12.15625 50.6875 5.359375 
Q 44.046875 -1.421875 33.015625 -1.421875 
Q 20.359375 -1.421875 13.671875 8.265625 
Q 6.984375 17.96875 6.984375 36.375 
Q 6.984375 53.65625 15.1875 63.9375 
Q 23.390625 74.21875 37.203125 74.21875 
Q 40.921875 74.21875 44.703125 73.484375 
Q 48.484375 72.75 52.59375 71.296875 
z
" id="DejaVuSans-54"/>
      </defs>
      <g transform="translate(203.526095 322.182437)scale(0.1 -0.1)">
       <use xlink:href="#DejaVuSans-54"/>
       <use x="63.623047" xlink:href="#DejaVuSans-48"/>
       <use x="127.246094" xlink:href="#DejaVuSans-48"/>
      </g>
     </g>
    </g>
    <g id="xtick_5">
     <g id="line2d_5">
      <g>
       <use style="stroke:#000000;stroke-width:0.8;" x="259.482217" xlink:href="#me4f6df26db" y="307.584"/>
      </g>
     </g>
     <g id="text_5">
      <!-- 800 -->
      <defs>
       <path d="M 31.78125 34.625 
Q 24.75 34.625 20.71875 30.859375 
Q 16.703125 27.09375 16.703125 20.515625 
Q 16.703125 13.921875 20.71875 10.15625 
Q 24.75 6.390625 31.78125 6.390625 
Q 38.8125 6.390625 42.859375 10.171875 
Q 46.921875 13.96875 46.921875 20.515625 
Q 46.921875 27.09375 42.890625 30.859375 
Q 38.875 34.625 31.78125 34.625 
z
M 21.921875 38.8125 
Q 15.578125 40.375 12.03125 44.71875 
Q 8.5 49.078125 8.5 55.328125 
Q 8.5 64.0625 14.71875 69.140625 
Q 20.953125 74.21875 31.78125 74.21875 
Q 42.671875 74.21875 48.875 69.140625 
Q 55.078125 64.0625 55.078125 55.328125 
Q 55.078125 49.078125 51.53125 44.71875 
Q 48 40.375 41.703125 38.8125 
Q 48.828125 37.15625 52.796875 32.3125 
Q 56.78125 27.484375 56.78125 20.515625 
Q 56.78125 9.90625 50.3125 4.234375 
Q 43.84375 -1.421875 31.78125 -1.421875 
Q 19.734375 -1.421875 13.25 4.234375 
Q 6.78125 9.90625 6.78125 20.515625 
Q 6.78125 27.484375 10.78125 32.3125 
Q 14.796875 37.15625 21.921875 38.8125 
z
M 18.3125 54.390625 
Q 18.3125 48.734375 21.84375 45.5625 
Q 25.390625 42.390625 31.78125 42.390625 
Q 38.140625 42.390625 41.71875 45.5625 
Q 45.3125 48.734375 45.3125 54.390625 
Q 45.3125 60.0625 41.71875 63.234375 
Q 38.140625 66.40625 31.78125 66.40625 
Q 25.390625 66.40625 21.84375 63.234375 
Q 18.3125 60.0625 18.3125 54.390625 
z
" id="DejaVuSans-56"/>
      </defs>
      <g transform="translate(249.938467 322.182437)scale(0.1 -0.1)">
       <use xlink:href="#DejaVuSans-56"/>
       <use x="63.623047" xlink:href="#DejaVuSans-48"/>
       <use x="127.246094" xlink:href="#DejaVuSans-48"/>
      </g>
     </g>
    </g>
    <g id="xtick_6">
     <g id="line2d_6">
      <g>
       <use style="stroke:#000000;stroke-width:0.8;" x="305.89459" xlink:href="#me4f6df26db" y="307.584"/>
      </g>
     </g>
     <g id="text_6">
      <!-- 1000 -->
      <defs>
       <path d="M 12.40625 8.296875 
L 28.515625 8.296875 
L 28.515625 63.921875 
L 10.984375 60.40625 
L 10.984375 69.390625 
L 28.421875 72.90625 
L 38.28125 72.90625 
L 38.28125 8.296875 
L 54.390625 8.296875 
L 54.390625 0 
L 12.40625 0 
z
" id="DejaVuSans-49"/>
      </defs>
      <g transform="translate(293.16959 322.182437)scale(0.1 -0.1)">
       <use xlink:href="#DejaVuSans-49"/>
       <use x="63.623047" xlink:href="#DejaVuSans-48"/>
       <use x="127.246094" xlink:href="#DejaVuSans-48"/>
       <use x="190.869141" xlink:href="#DejaVuSans-48"/>
      </g>
     </g>
    </g>
    <g id="xtick_7">
     <g id="line2d_7">
      <g>
       <use style="stroke:#000000;stroke-width:0.8;" x="352.306962" xlink:href="#me4f6df26db" y="307.584"/>
      </g>
     </g>
     <g id="text_7">
      <!-- 1200 -->
      <g transform="translate(339.581962 322.182437)scale(0.1 -0.1)">
       <use xlink:href="#DejaVuSans-49"/>
       <use x="63.623047" xlink:href="#DejaVuSans-50"/>
       <use x="127.246094" xlink:href="#DejaVuSans-48"/>
       <use x="190.869141" xlink:href="#DejaVuSans-48"/>
      </g>
     </g>
    </g>
    <g id="xtick_8">
     <g id="line2d_8">
      <g>
       <use style="stroke:#000000;stroke-width:0.8;" x="398.719335" xlink:href="#me4f6df26db" y="307.584"/>
      </g>
     </g>
     <g id="text_8">
      <!-- 1400 -->
      <g transform="translate(385.994335 322.182437)scale(0.1 -0.1)">
       <use xlink:href="#DejaVuSans-49"/>
       <use x="63.623047" xlink:href="#DejaVuSans-52"/>
       <use x="127.246094" xlink:href="#DejaVuSans-48"/>
       <use x="190.869141" xlink:href="#DejaVuSans-48"/>
      </g>
     </g>
    </g>
   </g>
   <g id="matplotlib.axis_2">
    <g id="ytick_1">
     <g id="line2d_9">
      <defs>
       <path d="M 0 0 
L -3.5 0 
" id="mcf9c62b29e" style="stroke:#000000;stroke-width:0.8;"/>
      </defs>
      <g>
       <use style="stroke:#000000;stroke-width:0.8;" x="57.6" xlink:href="#mcf9c62b29e" y="295.490607"/>
      </g>
     </g>
     <g id="text_9">
      <!-- 0.0 -->
      <defs>
       <path d="M 10.6875 12.40625 
L 21 12.40625 
L 21 0 
L 10.6875 0 
z
" id="DejaVuSans-46"/>
      </defs>
      <g transform="translate(34.696875 299.289826)scale(0.1 -0.1)">
       <use xlink:href="#DejaVuSans-48"/>
       <use x="63.623047" xlink:href="#DejaVuSans-46"/>
       <use x="95.410156" xlink:href="#DejaVuSans-48"/>
      </g>
     </g>
    </g>
    <g id="ytick_2">
     <g id="line2d_10">
      <g>
       <use style="stroke:#000000;stroke-width:0.8;" x="57.6" xlink:href="#mcf9c62b29e" y="252.894495"/>
      </g>
     </g>
     <g id="text_10">
      <!-- 0.2 -->
      <g transform="translate(34.696875 256.693714)scale(0.1 -0.1)">
       <use xlink:href="#DejaVuSans-48"/>
       <use x="63.623047" xlink:href="#DejaVuSans-46"/>
       <use x="95.410156" xlink:href="#DejaVuSans-50"/>
      </g>
     </g>
    </g>
    <g id="ytick_3">
     <g id="line2d_11">
      <g>
       <use style="stroke:#000000;stroke-width:0.8;" x="57.6" xlink:href="#mcf9c62b29e" y="210.298383"/>
      </g>
     </g>
     <g id="text_11">
      <!-- 0.4 -->
      <g transform="translate(34.696875 214.097602)scale(0.1 -0.1)">
       <use xlink:href="#DejaVuSans-48"/>
       <use x="63.623047" xlink:href="#DejaVuSans-46"/>
       <use x="95.410156" xlink:href="#DejaVuSans-52"/>
      </g>
     </g>
    </g>
    <g id="ytick_4">
     <g id="line2d_12">
      <g>
       <use style="stroke:#000000;stroke-width:0.8;" x="57.6" xlink:href="#mcf9c62b29e" y="167.702272"/>
      </g>
     </g>
     <g id="text_12">
      <!-- 0.6 -->
      <g transform="translate(34.696875 171.50149)scale(0.1 -0.1)">
       <use xlink:href="#DejaVuSans-48"/>
       <use x="63.623047" xlink:href="#DejaVuSans-46"/>
       <use x="95.410156" xlink:href="#DejaVuSans-54"/>
      </g>
     </g>
    </g>
    <g id="ytick_5">
     <g id="line2d_13">
      <g>
       <use style="stroke:#000000;stroke-width:0.8;" x="57.6" xlink:href="#mcf9c62b29e" y="125.10616"/>
      </g>
     </g>
     <g id="text_13">
      <!-- 0.8 -->
      <g transform="translate(34.696875 128.905378)scale(0.1 -0.1)">
       <use xlink:href="#DejaVuSans-48"/>
       <use x="63.623047" xlink:href="#DejaVuSans-46"/>
       <use x="95.410156" xlink:href="#DejaVuSans-56"/>
      </g>
     </g>
    </g>
    <g id="ytick_6">
     <g id="line2d_14">
      <g>
       <use style="stroke:#000000;stroke-width:0.8;" x="57.6" xlink:href="#mcf9c62b29e" y="82.510048"/>
      </g>
     </g>
     <g id="text_14">
      <!-- 1.0 -->
      <g transform="translate(34.696875 86.309266)scale(0.1 -0.1)">
       <use xlink:href="#DejaVuSans-49"/>
       <use x="63.623047" xlink:href="#DejaVuSans-46"/>
       <use x="95.410156" xlink:href="#DejaVuSans-48"/>
      </g>
     </g>
    </g>
   </g>
   <g id="line2d_15">
    <path clip-path="url(#p41fc75feae)" d="M 73.832727 66.670645 
L 75.225098 107.177818 
L 75.689222 113.585233 
L 75.921284 115.185767 
L 76.153346 115.647701 
L 76.385408 115.185534 
L 76.61747 113.779387 
L 77.081593 108.455078 
L 77.777779 95.50751 
L 78.938088 71.801592 
L 79.402212 67.158136 
L 79.866336 64.579944 
L 80.330459 63.430842 
L 80.562521 63.237104 
L 80.794583 63.205651 
L 81.490769 63.906991 
L 81.722831 63.801306 
L 82.186954 64.261416 
L 83.347264 66.932373 
L 83.579325 67.116205 
L 84.043449 67.894081 
L 84.275511 68.106017 
L 84.971697 68.148123 
L 85.43582 67.762472 
L 86.364068 66.864392 
L 88.220563 65.015975 
L 88.684686 64.488438 
L 89.14881 64.269973 
L 89.380872 64.233992 
L 89.844996 64.045444 
L 90.30912 64.195085 
L 91.005305 64.429348 
L 91.469429 64.16831 
L 91.701491 64.106109 
L 92.165614 64.46965 
L 93.093862 64.464707 
L 94.022109 64.71882 
L 94.486233 64.096864 
L 94.718295 63.899748 
L 95.182419 64.182546 
L 96.110666 64.408098 
L 98.199223 64.210971 
L 101.448089 63.976719 
L 101.912213 64.090535 
L 102.376336 64.008282 
L 102.608398 64.081274 
L 102.84046 64.003061 
L 103.072522 64.131684 
L 103.768708 64.000869 
L 104.000769 64.022801 
L 104.464893 63.759619 
L 106.321388 63.155238 
L 106.55345 63.305913 
L 108.409945 62.864289 
L 109.570254 62.565346 
L 109.802316 62.207615 
L 110.26644 62.387961 
L 110.498502 62.368147 
L 110.730563 62.487573 
L 110.962625 62.256267 
L 111.890873 62.223661 
L 112.354996 62.403213 
L 113.515306 61.884597 
L 114.211491 61.399189 
L 115.371801 60.922726 
L 115.603862 61.020416 
L 115.835924 60.755108 
L 116.067986 60.69032 
L 116.300048 60.84412 
L 116.53211 60.535171 
L 117.692419 60.210032 
L 117.924481 60.051497 
L 118.388605 59.967401 
L 119.548914 59.465791 
L 121.173347 58.897774 
L 121.637471 58.777169 
L 121.869533 58.822268 
L 122.101595 58.584744 
L 126.51077 57.502708 
L 126.974894 57.244636 
L 127.671079 57.119704 
L 130.455822 56.673802 
L 131.152007 56.436498 
L 131.616131 56.567023 
L 132.080255 56.406566 
L 132.312317 56.318768 
L 132.77644 56.008142 
L 133.704688 55.795513 
L 134.400873 55.958107 
L 135.097059 55.953538 
L 136.48943 55.740862 
L 136.721492 55.558578 
L 136.953554 55.5946 
L 138.577987 55.09438 
L 139.274172 54.966236 
L 139.506234 54.742459 
L 139.738296 54.974059 
L 140.666544 54.838106 
L 140.898605 54.570939 
L 141.826853 54.685571 
L 142.290977 54.646328 
L 142.523039 54.903005 
L 142.7551 54.596111 
L 143.91541 54.633887 
L 144.379533 54.591439 
L 144.611595 54.854319 
L 145.307781 54.688682 
L 145.539843 54.351185 
L 146.700152 54.54391 
L 146.932214 54.379873 
L 147.164276 54.380195 
L 147.396338 54.526023 
L 147.6284 54.356158 
L 147.860461 54.364287 
L 148.092523 54.515057 
L 148.324585 54.354705 
L 148.556647 54.36642 
L 148.788709 54.515588 
L 149.020771 54.360601 
L 149.252833 54.514039 
L 149.484894 54.367838 
L 149.716956 54.521429 
L 149.949018 54.385465 
L 150.645204 54.449805 
L 150.877266 54.641114 
L 151.573451 54.641134 
L 151.805513 54.482426 
L 155.518503 54.379545 
L 155.750565 54.581279 
L 155.982627 54.521089 
L 156.214688 54.319217 
L 156.44675 54.537628 
L 156.678812 54.495396 
L 156.910874 54.241665 
L 157.60706 54.265565 
L 157.839121 54.473781 
L 158.071183 54.433177 
L 158.303245 54.187334 
L 158.535307 54.19292 
L 158.767369 54.39811 
L 158.999431 54.154621 
L 159.463554 54.15707 
L 159.695616 54.37988 
L 159.927678 54.126999 
L 160.391802 54.154247 
L 160.623864 54.356423 
L 160.855926 54.100082 
L 161.087988 54.102576 
L 161.320049 54.285558 
L 161.552111 54.029448 
L 161.784173 54.203334 
L 162.016235 53.957426 
L 162.480359 53.940105 
L 162.712421 54.085343 
L 163.640668 53.802504 
L 163.87273 53.916376 
L 164.104792 53.776212 
L 164.336854 53.879016 
L 165.033039 53.728272 
L 165.265101 53.890392 
L 165.497163 53.886456 
L 165.729225 53.739988 
L 165.961287 53.937719 
L 166.193348 53.773228 
L 166.657472 53.857624 
L 166.889534 54.045449 
L 167.121596 53.852971 
L 167.353658 53.886009 
L 167.58572 54.066745 
L 167.817782 53.86781 
L 168.049843 53.89233 
L 168.281905 54.060393 
L 168.513967 53.858588 
L 168.746029 54.021927 
L 168.978091 53.823874 
L 169.210153 53.977914 
L 169.442215 53.922139 
L 169.674276 53.733052 
L 171.530771 53.709803 
L 171.762833 53.714388 
L 171.994895 53.850847 
L 172.459019 53.801213 
L 172.923143 53.59208 
L 173.155204 53.694322 
L 173.387266 53.656305 
L 173.85139 53.880302 
L 174.083452 53.626758 
L 174.315514 53.895518 
L 175.011699 53.962752 
L 175.243761 53.635736 
L 175.475823 53.958033 
L 175.707885 53.693501 
L 175.939947 53.95294 
L 176.40407 53.927711 
L 176.636132 53.675663 
L 176.868194 53.683113 
L 177.332318 53.8525 
L 177.796442 53.887528 
L 178.028503 54.06937 
L 178.492627 53.982977 
L 178.724689 53.761398 
L 178.956751 53.96526 
L 179.188813 53.888823 
L 179.652937 53.913851 
L 179.884998 53.79651 
L 180.11706 53.985783 
L 181.27737 53.736503 
L 181.509431 53.907569 
L 182.901803 53.779506 
L 184.062112 54.074683 
L 184.294174 53.870655 
L 184.526236 53.892468 
L 184.758297 54.073999 
L 184.990359 53.884845 
L 185.686545 54.067266 
L 185.918607 53.81161 
L 186.382731 53.827669 
L 186.614792 54.194075 
L 186.846854 53.823972 
L 187.54304 53.86538 
L 187.775102 54.237626 
L 188.007164 53.82802 
L 188.471287 53.850232 
L 188.935411 54.339577 
L 189.399535 54.191353 
L 189.631597 53.915086 
L 189.863658 53.967672 
L 190.09572 54.366261 
L 190.327782 54.350271 
L 190.559844 54.025396 
L 190.791906 54.245289 
L 191.023968 54.068317 
L 191.25603 54.270156 
L 191.720153 54.022634 
L 192.184277 54.2998 
L 192.416339 54.046083 
L 193.112525 53.977909 
L 193.344586 54.367147 
L 193.80871 54.147233 
L 194.504896 54.011228 
L 196.593452 53.982318 
L 196.825514 53.980723 
L 197.057576 54.256915 
L 197.289638 53.985916 
L 197.5217 54.377341 
L 197.753762 54.1856 
L 197.985824 54.215338 
L 198.217886 54.110759 
L 198.449947 54.234818 
L 199.378195 54.172829 
L 199.610257 54.478028 
L 200.07438 54.590272 
L 200.306442 54.229612 
L 200.538504 54.505489 
L 200.770566 54.173033 
L 201.002628 54.203475 
L 201.23469 54.119089 
L 201.466752 54.41434 
L 201.698813 54.211608 
L 201.930875 54.230548 
L 202.162937 54.497648 
L 202.627061 54.166679 
L 202.859123 54.162514 
L 203.091185 54.42836 
L 203.323246 54.45814 
L 203.555308 54.13406 
L 204.019432 53.96948 
L 204.251494 54.241214 
L 204.483556 53.963108 
L 204.715618 53.886685 
L 204.94768 54.070285 
L 205.179741 53.852047 
L 205.875927 54.372656 
L 206.107989 54.150037 
L 206.340051 54.195795 
L 206.572113 53.892223 
L 206.804174 53.906918 
L 207.036236 54.132477 
L 207.268298 53.814877 
L 207.50036 54.12442 
L 207.732422 54.18002 
L 207.964484 53.854449 
L 208.196546 54.15549 
L 208.428607 53.933923 
L 208.660669 54.153748 
L 209.124793 54.236805 
L 209.588917 54.474267 
L 210.05304 54.500904 
L 210.517164 54.315186 
L 210.749226 54.448287 
L 210.981288 54.308972 
L 211.445412 54.462927 
L 211.677474 53.984806 
L 211.909535 54.418229 
L 212.141597 53.956659 
L 212.373659 53.809527 
L 212.605721 54.175727 
L 212.837783 53.867834 
L 213.301907 53.74543 
L 213.533968 54.027321 
L 213.76603 53.731225 
L 214.462216 53.712867 
L 215.622525 53.761678 
L 215.854587 53.794587 
L 216.086649 54.172983 
L 216.318711 53.798753 
L 216.550773 53.843977 
L 216.782834 54.221467 
L 217.014896 53.832816 
L 217.246958 54.177773 
L 217.47902 53.739311 
L 217.943144 54.327644 
L 218.175206 54.456007 
L 218.407268 54.069037 
L 218.639329 53.939381 
L 218.871391 54.306246 
L 219.103453 53.912451 
L 219.335515 54.28602 
L 219.567577 54.311955 
L 219.799639 53.936483 
L 220.031701 54.286421 
L 220.263762 53.92031 
L 220.727886 53.961508 
L 220.959948 53.968458 
L 221.19201 54.211079 
L 221.424072 53.97566 
L 221.888195 53.798604 
L 222.120257 54.162658 
L 222.584381 54.340102 
L 222.816443 53.950608 
L 223.048505 54.331889 
L 223.512629 54.267094 
L 223.976752 54.388 
L 224.208814 53.989417 
L 224.440876 54.258547 
L 224.672938 54.315981 
L 224.905 53.934517 
L 225.137062 54.271559 
L 225.369123 53.944573 
L 225.601185 54.257583 
L 225.833247 53.95136 
L 227.225618 53.613075 
L 228.153866 53.756746 
L 228.385928 53.57603 
L 229.546237 53.611393 
L 230.242423 53.691338 
L 231.17067 53.806826 
L 231.634794 53.765979 
L 231.866856 53.899526 
L 232.330979 53.820683 
L 233.027165 53.937486 
L 234.419536 54.008494 
L 234.88366 53.958134 
L 235.115722 54.144881 
L 235.579845 53.943892 
L 235.811907 53.91648 
L 236.043969 54.04004 
L 237.668402 53.974284 
L 238.132526 53.95407 
L 238.364588 53.934094 
L 238.59665 54.07883 
L 238.828711 53.943794 
L 239.060773 54.091253 
L 239.292835 54.102569 
L 239.524897 53.997133 
L 239.989021 54.003319 
L 240.453144 54.050654 
L 241.381392 54.081534 
L 245.326444 54.006671 
L 246.254691 53.874308 
L 246.486753 53.943072 
L 247.182938 53.852141 
L 248.57531 53.888263 
L 248.807371 53.977548 
L 249.503557 53.922075 
L 250.431805 53.956701 
L 250.663866 54.041511 
L 251.12799 53.977764 
L 251.360052 54.06165 
L 252.056238 53.980686 
L 252.288299 54.067843 
L 252.752423 53.992869 
L 252.984485 54.080019 
L 253.216547 54.304364 
L 253.448609 54.13986 
L 253.680671 54.489397 
L 253.912732 54.192968 
L 254.144794 54.359009 
L 254.608918 54.397568 
L 254.84098 54.251863 
L 255.073042 54.375918 
L 255.305104 54.212982 
L 256.001289 54.178914 
L 256.233351 54.502004 
L 256.465413 54.323642 
L 256.697475 54.468523 
L 257.161599 54.34614 
L 258.089846 54.350203 
L 258.55397 54.496988 
L 259.018093 54.527648 
L 259.250155 54.378545 
L 260.410465 54.335842 
L 260.642526 54.462033 
L 260.874588 54.354179 
L 261.570774 54.451228 
L 261.802836 54.226895 
L 262.034898 54.197392 
L 262.26696 54.394468 
L 262.499021 54.361412 
L 262.731083 54.163862 
L 263.195207 54.209273 
L 264.355516 54.33058 
L 264.81964 54.37044 
L 265.051702 54.171992 
L 265.283764 54.378523 
L 265.515826 54.218504 
L 265.979949 54.333766 
L 266.212011 54.258111 
L 266.444073 54.347729 
L 266.676135 54.260901 
L 267.140259 54.31647 
L 267.604382 54.237329 
L 267.836444 54.258389 
L 268.068506 54.539288 
L 268.300568 54.564952 
L 268.764692 54.338017 
L 268.996754 54.426198 
L 269.228815 54.33548 
L 269.460877 54.423555 
L 269.692939 54.332094 
L 269.925001 54.417913 
L 270.389125 54.34245 
L 274.102114 54.275578 
L 275.494486 54.385884 
L 275.726548 54.254883 
L 277.118919 54.37893 
L 277.350981 54.264986 
L 277.583042 54.365256 
L 278.047166 54.165854 
L 278.51129 54.253429 
L 279.207475 54.331985 
L 279.439537 54.138538 
L 279.671599 54.153395 
L 279.903661 54.357287 
L 280.135723 54.342444 
L 280.367785 54.140175 
L 280.599847 54.157853 
L 280.831909 54.367189 
L 281.06397 54.352278 
L 281.296032 54.189715 
L 281.528094 54.195922 
L 281.760156 54.352768 
L 282.22428 54.165552 
L 282.456342 54.183862 
L 282.688403 54.391335 
L 282.920465 54.225127 
L 283.152527 54.376385 
L 283.848713 54.345862 
L 284.080775 54.199541 
L 284.312836 54.35251 
L 284.77696 54.176213 
L 285.009022 54.32956 
L 285.241084 54.200396 
L 285.473146 54.310693 
L 285.705208 54.242102 
L 285.937269 54.315065 
L 286.633455 54.238219 
L 287.329641 54.234689 
L 287.793764 54.508094 
L 288.025826 54.27786 
L 288.722012 54.367356 
L 288.954074 54.405374 
L 289.418197 54.326006 
L 289.650259 54.414495 
L 289.882321 54.339633 
L 290.578507 54.454068 
L 290.810569 54.466106 
L 291.04263 54.601054 
L 291.506754 54.436055 
L 291.970878 54.378854 
L 292.20294 54.441895 
L 292.667063 54.379827 
L 293.827373 54.405522 
L 295.91593 54.398681 
L 296.612115 54.375137 
L 300.789229 54.357004 
L 301.021291 54.114108 
L 301.485414 54.192261 
L 302.1816 54.063058 
L 302.413662 54.158649 
L 302.645724 54.071403 
L 303.109847 54.209725 
L 303.573971 54.049979 
L 303.806033 54.16968 
L 304.270157 54.050896 
L 304.73428 54.283799 
L 304.966342 54.16329 
L 305.430466 54.386183 
L 306.590775 54.142806 
L 307.054899 54.584047 
L 307.286961 54.454273 
L 307.519023 54.6779 
L 307.983146 54.522328 
L 311.464074 54.493278 
L 311.928198 54.400034 
L 313.320569 54.611263 
L 313.784693 54.523855 
L 314.945002 54.497628 
L 315.409126 54.680207 
L 315.87325 54.569993 
L 318.657992 54.564689 
L 318.890054 54.664907 
L 319.122116 54.513558 
L 320.050363 54.627097 
L 320.282425 54.429806 
L 323.067167 54.53792 
L 323.299229 54.629244 
L 323.531291 54.541315 
L 324.227477 54.741852 
L 325.155724 54.473266 
L 325.387786 54.543226 
L 325.619848 54.429906 
L 326.083972 54.43831 
L 329.100776 54.481693 
L 330.725209 54.681349 
L 331.421395 54.992909 
L 331.653456 54.720527 
L 331.885518 55.007135 
L 332.11758 54.748885 
L 335.134384 54.761268 
L 335.366446 54.873959 
L 335.598508 54.711206 
L 336.758817 54.709718 
L 336.990879 54.844413 
L 337.222941 54.66942 
L 337.455003 54.810234 
L 337.687065 54.816235 
L 337.919127 54.632276 
L 338.151189 54.787717 
L 338.38325 54.758606 
L 338.615312 54.58383 
L 338.847374 54.748722 
L 340.239745 54.573847 
L 340.471807 54.699364 
L 340.703869 54.646562 
L 340.935931 54.753399 
L 341.864178 54.561456 
L 342.09624 54.883326 
L 342.328302 54.920489 
L 342.560364 54.546514 
L 342.792426 54.683452 
L 343.024488 54.528069 
L 343.256549 54.66044 
L 343.488611 54.536336 
L 343.952735 54.662486 
L 344.184797 54.548056 
L 345.113044 54.767166 
L 346.273354 54.613629 
L 346.505416 54.81148 
L 346.969539 54.805618 
L 347.201601 54.652634 
L 347.433663 54.842645 
L 347.665725 54.626727 
L 347.897787 54.650455 
L 348.129849 54.918849 
L 348.36191 54.908987 
L 348.593972 54.74749 
L 348.826034 54.754697 
L 349.290158 54.949774 
L 349.52222 54.70692 
L 350.218405 54.730333 
L 350.450467 55.137348 
L 350.682529 54.964949 
L 351.378715 54.934445 
L 351.610777 54.695544 
L 351.842838 54.976976 
L 352.0749 54.956382 
L 352.306962 54.709025 
L 352.539024 54.662353 
L 353.003148 54.737148 
L 354.163457 54.829268 
L 354.395519 54.973065 
L 355.78789 54.796515 
L 356.019952 54.621111 
L 356.252014 54.814601 
L 356.484076 54.636092 
L 356.716138 54.664633 
L 356.948199 54.847512 
L 358.572632 54.627038 
L 358.804694 54.833889 
L 359.036756 54.666606 
L 359.50088 54.711807 
L 359.965004 54.678661 
L 363.445932 54.839437 
L 363.910055 54.853144 
L 366.230674 54.859296 
L 366.462736 54.789586 
L 366.926859 54.88125 
L 367.855107 54.909747 
L 368.551292 54.726585 
L 369.015416 54.83583 
L 372.264282 55.054755 
L 374.352839 54.749 
L 374.816963 54.774182 
L 375.049025 54.682413 
L 375.977272 54.826466 
L 377.137581 54.713768 
L 377.369643 54.575524 
L 377.601705 54.664043 
L 377.833767 54.569029 
L 378.297891 54.67917 
L 378.529953 54.586194 
L 379.226138 54.778444 
L 379.690262 54.725652 
L 380.618509 54.711367 
L 385.027685 54.740248 
L 386.88418 54.865085 
L 387.580365 54.866287 
L 389.900984 54.914593 
L 398.023149 55.024253 
L 398.487273 55.090846 
L 398.487273 55.090846 
" style="fill:none;stroke:#1f77b4;stroke-linecap:square;stroke-width:1.5;"/>
   </g>
   <g id="line2d_16">
    <path clip-path="url(#p41fc75feae)" d="M 73.832727 295.458789 
L 77.545717 295.473595 
L 86.132006 295.466959 
L 88.916748 295.480423 
L 132.544378 295.47737 
L 133.704688 295.456069 
L 137.417678 295.445071 
L 137.649739 295.287881 
L 137.881801 295.4583 
L 139.042111 295.477698 
L 140.434482 295.478021 
L 359.50088 295.48009 
L 365.998612 295.481485 
L 398.487273 295.439504 
L 398.487273 295.439504 
" style="fill:none;stroke:#ff7f0e;stroke-linecap:square;stroke-width:1.5;"/>
   </g>
   <g id="patch_3">
    <path d="M 57.6 307.584 
L 57.6 41.472 
" style="fill:none;stroke:#000000;stroke-linecap:square;stroke-linejoin:miter;stroke-width:0.8;"/>
   </g>
   <g id="patch_4">
    <path d="M 414.72 307.584 
L 414.72 41.472 
" style="fill:none;stroke:#000000;stroke-linecap:square;stroke-linejoin:miter;stroke-width:0.8;"/>
   </g>
   <g id="patch_5">
    <path d="M 57.6 307.584 
L 414.72 307.584 
" style="fill:none;stroke:#000000;stroke-linecap:square;stroke-linejoin:miter;stroke-width:0.8;"/>
   </g>
   <g id="patch_6">
    <path d="M 57.6 41.472 
L 414.72 41.472 
" style="fill:none;stroke:#000000;stroke-linecap:square;stroke-linejoin:miter;stroke-width:0.8;"/>
   </g>
  </g>
 </g>
 <defs>
  <clipPath id="p41fc75feae">
   <rect height="266.112" width="357.12" x="57.6" y="41.472"/>
  </clipPath>
 </defs>
</svg>
