<?xml version="1.0" encoding="utf-8" standalone="no"?>
<!DOCTYPE svg PUBLIC "-//W3C//DTD SVG 1.1//EN"
  "http://www.w3.org/Graphics/SVG/1.1/DTD/svg11.dtd">
<!-- Created with matplotlib (https://matplotlib.org/) -->
<svg height="345.6pt" version="1.1" viewBox="0 0 460.8 345.6" width="460.8pt" xmlns="http://www.w3.org/2000/svg" xmlns:xlink="http://www.w3.org/1999/xlink">
 <defs>
  <style type="text/css">
*{stroke-linecap:butt;stroke-linejoin:round;}
  </style>
 </defs>
 <g id="figure_1">
  <g id="patch_1">
   <path d="M 0 345.6 
L 460.8 345.6 
L 460.8 0 
L 0 0 
z
" style="fill:#ffffff;"/>
  </g>
  <g id="axes_1">
   <g id="patch_2">
    <path d="M 57.6 307.584 
L 414.72 307.584 
L 414.72 41.472 
L 57.6 41.472 
z
" style="fill:#ffffff;"/>
   </g>
   <g id="matplotlib.axis_1">
    <g id="xtick_1">
     <g id="line2d_1">
      <defs>
       <path d="M 0 0 
L 0 3.5 
" id="m2ab61d68db" style="stroke:#000000;stroke-width:0.8;"/>
      </defs>
      <g>
       <use style="stroke:#000000;stroke-width:0.8;" x="73.832727" xlink:href="#m2ab61d68db" y="307.584"/>
      </g>
     </g>
     <g id="text_1">
      <!-- 0 -->
      <defs>
       <path d="M 31.78125 66.40625 
Q 24.171875 66.40625 20.328125 58.90625 
Q 16.5 51.421875 16.5 36.375 
Q 16.5 21.390625 20.328125 13.890625 
Q 24.171875 6.390625 31.78125 6.390625 
Q 39.453125 6.390625 43.28125 13.890625 
Q 47.125 21.390625 47.125 36.375 
Q 47.125 51.421875 43.28125 58.90625 
Q 39.453125 66.40625 31.78125 66.40625 
z
M 31.78125 74.21875 
Q 44.046875 74.21875 50.515625 64.515625 
Q 56.984375 54.828125 56.984375 36.375 
Q 56.984375 17.96875 50.515625 8.265625 
Q 44.046875 -1.421875 31.78125 -1.421875 
Q 19.53125 -1.421875 13.0625 8.265625 
Q 6.59375 17.96875 6.59375 36.375 
Q 6.59375 54.828125 13.0625 64.515625 
Q 19.53125 74.21875 31.78125 74.21875 
z
" id="DejaVuSans-48"/>
      </defs>
      <g transform="translate(70.651477 322.182437)scale(0.1 -0.1)">
       <use xlink:href="#DejaVuSans-48"/>
      </g>
     </g>
    </g>
    <g id="xtick_2">
     <g id="line2d_2">
      <g>
       <use style="stroke:#000000;stroke-width:0.8;" x="120.2451" xlink:href="#m2ab61d68db" y="307.584"/>
      </g>
     </g>
     <g id="text_2">
      <!-- 200 -->
      <defs>
       <path d="M 19.1875 8.296875 
L 53.609375 8.296875 
L 53.609375 0 
L 7.328125 0 
L 7.328125 8.296875 
Q 12.9375 14.109375 22.625 23.890625 
Q 32.328125 33.6875 34.8125 36.53125 
Q 39.546875 41.84375 41.421875 45.53125 
Q 43.3125 49.21875 43.3125 52.78125 
Q 43.3125 58.59375 39.234375 62.25 
Q 35.15625 65.921875 28.609375 65.921875 
Q 23.96875 65.921875 18.8125 64.3125 
Q 13.671875 62.703125 7.8125 59.421875 
L 7.8125 69.390625 
Q 13.765625 71.78125 18.9375 73 
Q 24.125 74.21875 28.421875 74.21875 
Q 39.75 74.21875 46.484375 68.546875 
Q 53.21875 62.890625 53.21875 53.421875 
Q 53.21875 48.921875 51.53125 44.890625 
Q 49.859375 40.875 45.40625 35.40625 
Q 44.1875 33.984375 37.640625 27.21875 
Q 31.109375 20.453125 19.1875 8.296875 
z
" id="DejaVuSans-50"/>
      </defs>
      <g transform="translate(110.70135 322.182437)scale(0.1 -0.1)">
       <use xlink:href="#DejaVuSans-50"/>
       <use x="63.623047" xlink:href="#DejaVuSans-48"/>
       <use x="127.246094" xlink:href="#DejaVuSans-48"/>
      </g>
     </g>
    </g>
    <g id="xtick_3">
     <g id="line2d_3">
      <g>
       <use style="stroke:#000000;stroke-width:0.8;" x="166.657472" xlink:href="#m2ab61d68db" y="307.584"/>
      </g>
     </g>
     <g id="text_3">
      <!-- 400 -->
      <defs>
       <path d="M 37.796875 64.3125 
L 12.890625 25.390625 
L 37.796875 25.390625 
z
M 35.203125 72.90625 
L 47.609375 72.90625 
L 47.609375 25.390625 
L 58.015625 25.390625 
L 58.015625 17.1875 
L 47.609375 17.1875 
L 47.609375 0 
L 37.796875 0 
L 37.796875 17.1875 
L 4.890625 17.1875 
L 4.890625 26.703125 
z
" id="DejaVuSans-52"/>
      </defs>
      <g transform="translate(157.113722 322.182437)scale(0.1 -0.1)">
       <use xlink:href="#DejaVuSans-52"/>
       <use x="63.623047" xlink:href="#DejaVuSans-48"/>
       <use x="127.246094" xlink:href="#DejaVuSans-48"/>
      </g>
     </g>
    </g>
    <g id="xtick_4">
     <g id="line2d_4">
      <g>
       <use style="stroke:#000000;stroke-width:0.8;" x="213.069845" xlink:href="#m2ab61d68db" y="307.584"/>
      </g>
     </g>
     <g id="text_4">
      <!-- 600 -->
      <defs>
       <path d="M 33.015625 40.375 
Q 26.375 40.375 22.484375 35.828125 
Q 18.609375 31.296875 18.609375 23.390625 
Q 18.609375 15.53125 22.484375 10.953125 
Q 26.375 6.390625 33.015625 6.390625 
Q 39.65625 6.390625 43.53125 10.953125 
Q 47.40625 15.53125 47.40625 23.390625 
Q 47.40625 31.296875 43.53125 35.828125 
Q 39.65625 40.375 33.015625 40.375 
z
M 52.59375 71.296875 
L 52.59375 62.3125 
Q 48.875 64.0625 45.09375 64.984375 
Q 41.3125 65.921875 37.59375 65.921875 
Q 27.828125 65.921875 22.671875 59.328125 
Q 17.53125 52.734375 16.796875 39.40625 
Q 19.671875 43.65625 24.015625 45.921875 
Q 28.375 48.1875 33.59375 48.1875 
Q 44.578125 48.1875 50.953125 41.515625 
Q 57.328125 34.859375 57.328125 23.390625 
Q 57.328125 12.15625 50.6875 5.359375 
Q 44.046875 -1.421875 33.015625 -1.421875 
Q 20.359375 -1.421875 13.671875 8.265625 
Q 6.984375 17.96875 6.984375 36.375 
Q 6.984375 53.65625 15.1875 63.9375 
Q 23.390625 74.21875 37.203125 74.21875 
Q 40.921875 74.21875 44.703125 73.484375 
Q 48.484375 72.75 52.59375 71.296875 
z
" id="DejaVuSans-54"/>
      </defs>
      <g transform="translate(203.526095 322.182437)scale(0.1 -0.1)">
       <use xlink:href="#DejaVuSans-54"/>
       <use x="63.623047" xlink:href="#DejaVuSans-48"/>
       <use x="127.246094" xlink:href="#DejaVuSans-48"/>
      </g>
     </g>
    </g>
    <g id="xtick_5">
     <g id="line2d_5">
      <g>
       <use style="stroke:#000000;stroke-width:0.8;" x="259.482217" xlink:href="#m2ab61d68db" y="307.584"/>
      </g>
     </g>
     <g id="text_5">
      <!-- 800 -->
      <defs>
       <path d="M 31.78125 34.625 
Q 24.75 34.625 20.71875 30.859375 
Q 16.703125 27.09375 16.703125 20.515625 
Q 16.703125 13.921875 20.71875 10.15625 
Q 24.75 6.390625 31.78125 6.390625 
Q 38.8125 6.390625 42.859375 10.171875 
Q 46.921875 13.96875 46.921875 20.515625 
Q 46.921875 27.09375 42.890625 30.859375 
Q 38.875 34.625 31.78125 34.625 
z
M 21.921875 38.8125 
Q 15.578125 40.375 12.03125 44.71875 
Q 8.5 49.078125 8.5 55.328125 
Q 8.5 64.0625 14.71875 69.140625 
Q 20.953125 74.21875 31.78125 74.21875 
Q 42.671875 74.21875 48.875 69.140625 
Q 55.078125 64.0625 55.078125 55.328125 
Q 55.078125 49.078125 51.53125 44.71875 
Q 48 40.375 41.703125 38.8125 
Q 48.828125 37.15625 52.796875 32.3125 
Q 56.78125 27.484375 56.78125 20.515625 
Q 56.78125 9.90625 50.3125 4.234375 
Q 43.84375 -1.421875 31.78125 -1.421875 
Q 19.734375 -1.421875 13.25 4.234375 
Q 6.78125 9.90625 6.78125 20.515625 
Q 6.78125 27.484375 10.78125 32.3125 
Q 14.796875 37.15625 21.921875 38.8125 
z
M 18.3125 54.390625 
Q 18.3125 48.734375 21.84375 45.5625 
Q 25.390625 42.390625 31.78125 42.390625 
Q 38.140625 42.390625 41.71875 45.5625 
Q 45.3125 48.734375 45.3125 54.390625 
Q 45.3125 60.0625 41.71875 63.234375 
Q 38.140625 66.40625 31.78125 66.40625 
Q 25.390625 66.40625 21.84375 63.234375 
Q 18.3125 60.0625 18.3125 54.390625 
z
" id="DejaVuSans-56"/>
      </defs>
      <g transform="translate(249.938467 322.182437)scale(0.1 -0.1)">
       <use xlink:href="#DejaVuSans-56"/>
       <use x="63.623047" xlink:href="#DejaVuSans-48"/>
       <use x="127.246094" xlink:href="#DejaVuSans-48"/>
      </g>
     </g>
    </g>
    <g id="xtick_6">
     <g id="line2d_6">
      <g>
       <use style="stroke:#000000;stroke-width:0.8;" x="305.89459" xlink:href="#m2ab61d68db" y="307.584"/>
      </g>
     </g>
     <g id="text_6">
      <!-- 1000 -->
      <defs>
       <path d="M 12.40625 8.296875 
L 28.515625 8.296875 
L 28.515625 63.921875 
L 10.984375 60.40625 
L 10.984375 69.390625 
L 28.421875 72.90625 
L 38.28125 72.90625 
L 38.28125 8.296875 
L 54.390625 8.296875 
L 54.390625 0 
L 12.40625 0 
z
" id="DejaVuSans-49"/>
      </defs>
      <g transform="translate(293.16959 322.182437)scale(0.1 -0.1)">
       <use xlink:href="#DejaVuSans-49"/>
       <use x="63.623047" xlink:href="#DejaVuSans-48"/>
       <use x="127.246094" xlink:href="#DejaVuSans-48"/>
       <use x="190.869141" xlink:href="#DejaVuSans-48"/>
      </g>
     </g>
    </g>
    <g id="xtick_7">
     <g id="line2d_7">
      <g>
       <use style="stroke:#000000;stroke-width:0.8;" x="352.306962" xlink:href="#m2ab61d68db" y="307.584"/>
      </g>
     </g>
     <g id="text_7">
      <!-- 1200 -->
      <g transform="translate(339.581962 322.182437)scale(0.1 -0.1)">
       <use xlink:href="#DejaVuSans-49"/>
       <use x="63.623047" xlink:href="#DejaVuSans-50"/>
       <use x="127.246094" xlink:href="#DejaVuSans-48"/>
       <use x="190.869141" xlink:href="#DejaVuSans-48"/>
      </g>
     </g>
    </g>
    <g id="xtick_8">
     <g id="line2d_8">
      <g>
       <use style="stroke:#000000;stroke-width:0.8;" x="398.719335" xlink:href="#m2ab61d68db" y="307.584"/>
      </g>
     </g>
     <g id="text_8">
      <!-- 1400 -->
      <g transform="translate(385.994335 322.182437)scale(0.1 -0.1)">
       <use xlink:href="#DejaVuSans-49"/>
       <use x="63.623047" xlink:href="#DejaVuSans-52"/>
       <use x="127.246094" xlink:href="#DejaVuSans-48"/>
       <use x="190.869141" xlink:href="#DejaVuSans-48"/>
      </g>
     </g>
    </g>
   </g>
   <g id="matplotlib.axis_2">
    <g id="ytick_1">
     <g id="line2d_9">
      <defs>
       <path d="M 0 0 
L -3.5 0 
" id="m5533fa711a" style="stroke:#000000;stroke-width:0.8;"/>
      </defs>
      <g>
       <use style="stroke:#000000;stroke-width:0.8;" x="57.6" xlink:href="#m5533fa711a" y="295.489897"/>
      </g>
     </g>
     <g id="text_9">
      <!-- 0.0 -->
      <defs>
       <path d="M 10.6875 12.40625 
L 21 12.40625 
L 21 0 
L 10.6875 0 
z
" id="DejaVuSans-46"/>
      </defs>
      <g transform="translate(34.696875 299.289116)scale(0.1 -0.1)">
       <use xlink:href="#DejaVuSans-48"/>
       <use x="63.623047" xlink:href="#DejaVuSans-46"/>
       <use x="95.410156" xlink:href="#DejaVuSans-48"/>
      </g>
     </g>
    </g>
    <g id="ytick_2">
     <g id="line2d_10">
      <g>
       <use style="stroke:#000000;stroke-width:0.8;" x="57.6" xlink:href="#m5533fa711a" y="252.569225"/>
      </g>
     </g>
     <g id="text_10">
      <!-- 0.2 -->
      <g transform="translate(34.696875 256.368444)scale(0.1 -0.1)">
       <use xlink:href="#DejaVuSans-48"/>
       <use x="63.623047" xlink:href="#DejaVuSans-46"/>
       <use x="95.410156" xlink:href="#DejaVuSans-50"/>
      </g>
     </g>
    </g>
    <g id="ytick_3">
     <g id="line2d_11">
      <g>
       <use style="stroke:#000000;stroke-width:0.8;" x="57.6" xlink:href="#m5533fa711a" y="209.648554"/>
      </g>
     </g>
     <g id="text_11">
      <!-- 0.4 -->
      <g transform="translate(34.696875 213.447773)scale(0.1 -0.1)">
       <use xlink:href="#DejaVuSans-48"/>
       <use x="63.623047" xlink:href="#DejaVuSans-46"/>
       <use x="95.410156" xlink:href="#DejaVuSans-52"/>
      </g>
     </g>
    </g>
    <g id="ytick_4">
     <g id="line2d_12">
      <g>
       <use style="stroke:#000000;stroke-width:0.8;" x="57.6" xlink:href="#m5533fa711a" y="166.727882"/>
      </g>
     </g>
     <g id="text_12">
      <!-- 0.6 -->
      <g transform="translate(34.696875 170.527101)scale(0.1 -0.1)">
       <use xlink:href="#DejaVuSans-48"/>
       <use x="63.623047" xlink:href="#DejaVuSans-46"/>
       <use x="95.410156" xlink:href="#DejaVuSans-54"/>
      </g>
     </g>
    </g>
    <g id="ytick_5">
     <g id="line2d_13">
      <g>
       <use style="stroke:#000000;stroke-width:0.8;" x="57.6" xlink:href="#m5533fa711a" y="123.807211"/>
      </g>
     </g>
     <g id="text_13">
      <!-- 0.8 -->
      <g transform="translate(34.696875 127.606429)scale(0.1 -0.1)">
       <use xlink:href="#DejaVuSans-48"/>
       <use x="63.623047" xlink:href="#DejaVuSans-46"/>
       <use x="95.410156" xlink:href="#DejaVuSans-56"/>
      </g>
     </g>
    </g>
    <g id="ytick_6">
     <g id="line2d_14">
      <g>
       <use style="stroke:#000000;stroke-width:0.8;" x="57.6" xlink:href="#m5533fa711a" y="80.886539"/>
      </g>
     </g>
     <g id="text_14">
      <!-- 1.0 -->
      <g transform="translate(34.696875 84.685758)scale(0.1 -0.1)">
       <use xlink:href="#DejaVuSans-49"/>
       <use x="63.623047" xlink:href="#DejaVuSans-46"/>
       <use x="95.410156" xlink:href="#DejaVuSans-48"/>
      </g>
     </g>
    </g>
   </g>
   <g id="line2d_15">
    <path clip-path="url(#p9c586a3680)" d="M 73.832727 67.325846 
L 75.45716 109.782126 
L 75.921284 114.687176 
L 76.153346 115.625327 
L 76.385408 115.377354 
L 76.61747 114.239876 
L 77.081593 109.255087 
L 77.545717 101.147627 
L 78.473965 78.997474 
L 78.938088 68.771523 
L 79.634274 60.250087 
L 80.330459 55.534776 
L 80.562521 54.715923 
L 80.794583 54.427956 
L 81.258707 53.568 
L 81.490769 53.843797 
L 81.722831 53.82795 
L 81.954892 53.579933 
L 82.419016 54.42002 
L 84.971697 59.95442 
L 86.132006 61.116891 
L 87.292315 61.57152 
L 87.756439 61.550515 
L 90.077058 61.17003 
L 90.773243 61.060975 
L 91.237367 61.095573 
L 91.469429 60.974072 
L 91.701491 61.065145 
L 92.165614 60.984227 
L 92.629738 60.968582 
L 94.022109 60.887689 
L 97.270975 60.69975 
L 97.735099 60.605259 
L 98.431285 60.58231 
L 98.663347 60.715565 
L 99.591594 60.761494 
L 100.519841 61.136843 
L 101.216027 61.328384 
L 103.304584 61.602252 
L 103.536646 61.788371 
L 104.000769 61.673649 
L 104.464893 61.821564 
L 105.625202 61.510371 
L 107.249635 60.958744 
L 108.874068 60.267826 
L 110.034378 60.150941 
L 110.498502 60.008223 
L 114.907677 59.088213 
L 115.371801 58.8691 
L 116.067986 58.845066 
L 117.228296 58.582818 
L 120.709223 58.12657 
L 122.101595 57.874427 
L 122.79778 57.861412 
L 125.814584 57.48565 
L 126.742832 57.294649 
L 126.974894 57.455745 
L 127.206956 57.214016 
L 127.439017 57.335206 
L 127.671079 57.257057 
L 127.903141 57.058981 
L 129.759636 56.686164 
L 130.22376 56.970902 
L 130.919945 56.817326 
L 131.152007 56.517711 
L 131.616131 56.515877 
L 132.080255 56.728573 
L 132.544378 56.589417 
L 133.008502 56.737524 
L 133.240564 56.55534 
L 133.472626 56.559523 
L 133.704688 56.747775 
L 135.329121 56.819711 
L 136.025306 56.502491 
L 136.257368 56.655194 
L 136.48943 56.664122 
L 136.721492 56.559978 
L 137.417678 56.629365 
L 138.577987 56.470015 
L 138.810049 56.690073 
L 139.274172 56.584488 
L 139.506234 56.378303 
L 139.738296 56.581183 
L 139.970358 56.54986 
L 140.20242 56.291246 
L 140.898605 56.379471 
L 145.539843 56.518558 
L 145.771905 56.419926 
L 146.46809 56.549572 
L 146.932214 56.481585 
L 151.341389 56.405868 
L 151.573451 56.532288 
L 151.805513 56.342394 
L 154.126132 56.323267 
L 154.358194 56.205617 
L 155.054379 56.278151 
L 157.374998 56.31094 
L 157.60706 56.438435 
L 158.071183 56.314287 
L 158.767369 56.496231 
L 158.999431 56.368334 
L 159.463554 56.37363 
L 159.695616 56.282166 
L 159.927678 56.332768 
L 160.15974 56.25544 
L 160.391802 56.303404 
L 160.623864 56.185522 
L 161.087988 56.21796 
L 162.016235 56.213554 
L 162.712421 56.274782 
L 163.640668 56.265231 
L 163.87273 56.306001 
L 164.104792 56.207435 
L 164.568915 56.268653 
L 165.729225 56.196588 
L 166.193348 56.191623 
L 166.657472 56.235913 
L 167.58572 56.235351 
L 167.817782 56.338665 
L 168.281905 56.20181 
L 168.513967 56.345284 
L 168.746029 56.354817 
L 169.210153 56.239496 
L 169.674276 56.256263 
L 169.906338 56.349443 
L 170.370462 56.238306 
L 170.602524 56.343615 
L 171.762833 56.310845 
L 172.459019 56.307741 
L 174.779637 56.234127 
L 175.243761 56.242491 
L 175.475823 56.150201 
L 175.707885 56.239644 
L 175.939947 55.895691 
L 177.332318 56.194246 
L 177.796442 56.258778 
L 178.492627 56.343377 
L 179.188813 56.283104 
L 179.420875 56.251245 
L 179.652937 56.366176 
L 179.884998 56.213338 
L 185.454483 56.391546 
L 185.686545 56.50989 
L 187.078916 56.468908 
L 187.310978 56.279254 
L 187.54304 56.30585 
L 187.775102 56.149005 
L 188.007164 56.265758 
L 188.239225 56.148574 
L 188.471287 56.325474 
L 188.703349 56.292948 
L 188.935411 56.024564 
L 189.631597 56.088435 
L 189.863658 56.323085 
L 190.559844 56.423642 
L 191.25603 56.433766 
L 191.488091 56.278688 
L 191.720153 56.366448 
L 192.416339 56.306324 
L 192.648401 56.413585 
L 192.880463 56.340303 
L 193.344586 56.376558 
L 197.057576 56.416201 
L 197.289638 56.531548 
L 197.5217 56.461104 
L 197.753762 56.556304 
L 197.985824 56.466548 
L 199.146133 56.572479 
L 200.306442 56.589113 
L 200.770566 56.505822 
L 201.930875 56.456422 
L 202.859123 56.347537 
L 203.555308 56.394327 
L 203.78737 56.672105 
L 204.019432 56.41135 
L 204.483556 56.427427 
L 204.715618 56.702808 
L 204.94768 56.434838 
L 205.411803 56.672188 
L 205.643865 56.459492 
L 206.340051 56.427378 
L 207.732422 56.43321 
L 212.837783 56.36856 
L 213.301907 56.527047 
L 214.230154 56.490259 
L 214.462216 56.615353 
L 217.014896 56.48642 
L 217.246958 56.646111 
L 217.943144 56.633208 
L 218.175206 56.516909 
L 218.407268 56.618533 
L 219.335515 56.550162 
L 221.888195 56.395547 
L 222.120257 56.503427 
L 222.352319 56.412395 
L 222.584381 56.473309 
L 222.816443 56.18822 
L 223.048505 56.380309 
L 223.280567 56.207765 
L 223.512629 56.389512 
L 223.74469 56.381324 
L 223.976752 56.504 
L 224.208814 56.162901 
L 224.440876 56.448997 
L 224.672938 56.151719 
L 225.369123 56.178069 
L 225.833247 56.410164 
L 226.761495 56.428226 
L 226.993556 56.268024 
L 227.45768 56.686562 
L 227.921804 56.792765 
L 228.385928 56.805478 
L 229.546237 56.444698 
L 230.938608 56.48478 
L 231.634794 56.602375 
L 231.866856 56.757812 
L 232.098917 56.708573 
L 232.330979 56.844052 
L 232.563041 56.743239 
L 232.795103 56.889383 
L 233.259227 56.721165 
L 233.955412 56.610733 
L 234.187474 56.83381 
L 235.579845 56.737845 
L 235.811907 56.566964 
L 236.043969 56.687237 
L 238.132526 56.422741 
L 238.59665 56.59406 
L 239.060773 56.376216 
L 239.524897 56.394819 
L 239.756959 56.525991 
L 240.221083 56.47216 
L 240.453144 56.200428 
L 240.685206 56.497959 
L 240.917268 56.274789 
L 241.14933 56.442727 
L 241.381392 56.453454 
L 241.613454 56.229253 
L 243.469949 56.502922 
L 243.702011 56.436164 
L 243.934072 56.636785 
L 244.166134 56.550927 
L 244.398196 56.705958 
L 245.790567 56.511782 
L 246.254691 56.518891 
L 246.486753 56.717583 
L 246.718815 56.555165 
L 248.57531 56.550027 
L 249.039433 56.834483 
L 249.271495 56.682778 
L 249.735619 56.68187 
L 249.967681 56.892028 
L 250.199743 56.719155 
L 250.431805 56.881738 
L 250.663866 56.718907 
L 251.360052 56.681278 
L 251.592114 56.805859 
L 252.056238 56.705981 
L 252.984485 56.660777 
L 253.448609 56.564069 
L 254.144794 56.762586 
L 254.376856 56.642293 
L 254.84098 56.658896 
L 255.073042 56.944076 
L 255.305104 56.703433 
L 255.769227 56.694458 
L 256.001289 56.898377 
L 256.233351 56.905332 
L 256.465413 56.680901 
L 256.697475 56.896789 
L 256.929537 56.693572 
L 257.625722 56.709699 
L 257.857784 56.915217 
L 258.089846 56.780335 
L 259.250155 56.799303 
L 259.482217 56.939138 
L 259.946341 56.924535 
L 260.178403 56.534041 
L 260.410465 56.90164 
L 260.642526 56.461754 
L 260.874588 56.416937 
L 261.10665 56.713267 
L 264.123454 56.68279 
L 265.283764 56.631718 
L 266.212011 56.705934 
L 267.37232 56.657138 
L 268.068506 56.810796 
L 268.300568 56.71005 
L 268.53263 56.877689 
L 269.228815 56.812173 
L 269.692939 56.822291 
L 270.853248 56.7531 
L 271.08531 56.704488 
L 271.549434 56.852658 
L 271.781496 56.868994 
L 272.013558 57.033619 
L 272.709743 56.984324 
L 273.405929 56.547207 
L 273.870053 56.557091 
L 274.566238 56.626745 
L 274.7983 56.891723 
L 275.262424 56.742829 
L 276.190671 56.97938 
L 276.654795 56.908089 
L 277.350981 56.786641 
L 278.279228 56.856578 
L 278.975414 56.853165 
L 282.22428 56.90458 
L 282.688403 56.935419 
L 283.384589 56.829587 
L 283.848713 56.845045 
L 284.312836 56.705238 
L 284.77696 56.574001 
L 285.009022 56.780669 
L 285.705208 56.74816 
L 287.329641 56.637065 
L 287.793764 56.714564 
L 289.418197 56.749647 
L 290.346445 56.768843 
L 290.578507 56.646529 
L 291.04263 56.78127 
L 291.738816 56.715621 
L 292.435002 56.74665 
L 293.131187 57.210652 
L 293.363249 56.996908 
L 294.059435 57.023084 
L 294.291497 57.250081 
L 294.523558 57.045275 
L 294.75562 57.205261 
L 294.987682 57.045468 
L 295.219744 57.032129 
L 295.683868 56.843403 
L 295.91593 57.008886 
L 296.380053 57.006582 
L 296.612115 56.763869 
L 296.844177 56.966046 
L 297.772424 56.965151 
L 298.004486 57.112965 
L 298.236548 57.093099 
L 298.46861 56.930601 
L 302.413662 56.926362 
L 302.645724 56.880494 
L 303.109847 56.982527 
L 303.806033 56.889597 
L 306.126652 56.882767 
L 307.751085 56.949656 
L 309.143456 57.054588 
L 309.375518 56.869424 
L 309.839641 57.114401 
L 310.535827 57.053388 
L 311.464074 57.025234 
L 311.696136 57.182932 
L 312.16026 56.938244 
L 312.624384 57.083546 
L 312.856446 56.892302 
L 313.088507 56.939609 
L 313.320569 56.825393 
L 313.552631 57.082197 
L 314.016755 56.947529 
L 314.480879 56.926488 
L 314.71294 56.704961 
L 314.945002 57.017926 
L 315.177064 57.107624 
L 315.87325 56.851178 
L 316.337373 56.980325 
L 318.193868 56.806823 
L 318.42593 56.914564 
L 318.657992 56.820098 
L 319.122116 56.930318 
L 323.763353 56.941509 
L 324.227477 56.717035 
L 325.155724 56.848264 
L 325.387786 56.914758 
L 325.85191 56.831983 
L 326.083972 56.838278 
L 326.316034 56.730571 
L 326.548095 56.466463 
L 327.012219 56.594313 
L 327.244281 57.182364 
L 327.476343 57.216104 
L 327.940467 56.734643 
L 328.40459 56.778623 
L 328.868714 57.403334 
L 329.100776 56.964089 
L 329.332838 57.390251 
L 329.5649 57.160621 
L 330.493147 57.075067 
L 330.725209 57.281587 
L 330.957271 57.060704 
L 331.189333 57.029154 
L 331.421395 57.167376 
L 331.653456 57.033865 
L 331.885518 57.205043 
L 332.11758 57.017809 
L 332.581704 56.917524 
L 332.813766 57.174291 
L 333.045828 57.210262 
L 333.277889 56.943331 
L 333.509951 56.924832 
L 333.742013 57.219282 
L 333.974075 56.984755 
L 334.438199 57.020606 
L 334.670261 57.323536 
L 334.902322 57.139418 
L 335.134384 57.145131 
L 335.366446 57.413545 
L 335.598508 57.230121 
L 335.83057 57.223417 
L 336.062632 57.432924 
L 336.294694 57.279534 
L 336.526755 57.486119 
L 336.758817 57.326436 
L 336.990879 57.581434 
L 337.455003 57.284325 
L 337.687065 57.354466 
L 337.919127 57.643158 
L 338.38325 57.672231 
L 338.847374 57.216254 
L 339.311498 57.134424 
L 339.54356 57.474159 
L 340.007683 57.198569 
L 340.703869 57.033997 
L 340.935931 57.216235 
L 341.167993 57.249244 
L 341.400055 57.070034 
L 341.632116 57.258322 
L 341.864178 57.080927 
L 343.952735 56.964639 
L 344.648921 56.938472 
L 344.880983 56.845876 
L 345.113044 57.316426 
L 345.577168 56.73514 
L 345.80923 57.32963 
L 346.273354 57.378446 
L 346.505416 57.129223 
L 346.737477 57.060878 
L 346.969539 56.874729 
L 347.201601 57.037566 
L 347.665725 57.107038 
L 347.897787 57.161512 
L 348.129849 56.754528 
L 348.36191 56.768981 
L 348.593972 57.250944 
L 348.826034 57.430297 
L 349.52222 57.400783 
L 349.754282 57.170887 
L 350.218405 57.109089 
L 350.450467 57.309513 
L 350.682529 57.327501 
L 350.914591 57.126995 
L 351.146653 57.273519 
L 351.378715 57.152384 
L 351.842838 57.150673 
L 352.0749 57.099133 
L 352.306962 56.893916 
L 352.539024 57.094012 
L 356.019952 57.053218 
L 356.484076 57.208244 
L 356.716138 57.077465 
L 358.804694 57.286012 
L 359.036756 57.545588 
L 359.268818 57.242416 
L 359.732942 57.097493 
L 360.197065 57.13724 
L 360.429127 56.829198 
L 360.893251 57.094859 
L 361.125313 57.124012 
L 361.357375 56.964586 
L 362.05356 57.027412 
L 362.285622 57.123149 
L 362.517684 56.875991 
L 362.749746 57.054664 
L 363.21387 57.081899 
L 363.910055 57.267112 
L 364.142117 57.530361 
L 364.374179 57.475793 
L 364.606241 57.213949 
L 364.838303 57.13826 
L 365.070365 57.202879 
L 365.534488 57.025126 
L 366.462736 57.061615 
L 366.926859 57.137533 
L 367.158921 57.044867 
L 367.390983 57.183166 
L 367.855107 57.037519 
L 368.319231 57.03055 
L 368.551292 57.142481 
L 368.783354 57.088153 
L 369.247478 57.123603 
L 369.711602 57.108578 
L 370.639849 57.170646 
L 371.103973 57.119342 
L 371.336035 57.339808 
L 371.800159 57.349368 
L 372.03222 57.14799 
L 372.264282 57.343252 
L 375.049025 57.186279 
L 375.513148 57.170434 
L 375.74521 57.187879 
L 376.209334 57.419666 
L 376.673458 57.257794 
L 376.90552 57.241469 
L 377.137581 57.401416 
L 377.601705 57.241148 
L 377.833767 57.398995 
L 378.297891 57.224186 
L 378.529953 57.339745 
L 378.994076 57.190426 
L 379.226138 57.174677 
L 379.4582 57.274033 
L 379.690262 57.179459 
L 379.922324 57.429241 
L 380.386447 57.400247 
L 380.618509 57.174132 
L 381.778819 57.269865 
L 388.044489 57.16486 
L 389.204798 57.158925 
L 389.668922 57.365169 
L 391.989541 57.324342 
L 392.917788 57.235384 
L 393.14985 57.403215 
L 393.613974 57.115669 
L 394.078097 57.532521 
L 394.310159 57.416024 
L 394.542221 57.589981 
L 394.774283 57.467021 
L 395.934592 57.435377 
L 398.487273 57.384656 
L 398.487273 57.384656 
" style="fill:none;stroke:#1f77b4;stroke-linecap:square;stroke-width:1.5;"/>
   </g>
   <g id="line2d_16">
    <path clip-path="url(#p9c586a3680)" d="M 73.832727 295.360969 
L 74.064789 295.243965 
L 74.528913 295.397301 
L 74.993037 295.428399 
L 75.225098 295.241693 
L 75.45716 295.416723 
L 76.61747 295.313158 
L 76.849531 295.267802 
L 77.313655 295.413108 
L 82.651078 295.467307 
L 82.88314 295.339851 
L 83.347264 295.373699 
L 84.043449 295.40974 
L 84.275511 295.147832 
L 84.739635 295.173544 
L 84.971697 295.367794 
L 85.203759 295.048272 
L 85.43582 295.044788 
L 85.667882 295.393481 
L 85.899944 295.215526 
L 86.59613 295.319685 
L 86.828192 295.219404 
L 87.060253 295.361272 
L 87.524377 295.260995 
L 87.756439 295.397869 
L 87.988501 295.287412 
L 88.220563 295.437752 
L 88.452625 295.252843 
L 88.916748 295.247696 
L 89.380872 295.222847 
L 89.844996 295.335303 
L 93.093862 295.406298 
L 94.950357 295.329458 
L 95.646542 295.363401 
L 96.806852 295.347978 
L 97.270975 295.34598 
L 101.216027 295.41436 
L 103.768708 295.411975 
L 104.000769 295.284034 
L 104.696955 295.421768 
L 120.709223 295.471931 
L 120.941285 295.273631 
L 121.405409 295.420581 
L 139.042111 295.409242 
L 139.274172 295.279698 
L 139.506234 295.420954 
L 140.898605 295.403067 
L 141.594791 295.410015 
L 141.826853 295.340162 
L 142.290977 295.45125 
L 143.219224 295.404128 
L 144.611595 295.46293 
L 148.556647 295.42765 
L 153.197884 295.450502 
L 153.429946 295.312738 
L 153.89407 295.380241 
L 154.358194 295.402118 
L 155.054379 295.41735 
L 155.286441 295.231392 
L 155.518503 295.395962 
L 156.44675 295.353373 
L 156.678812 295.399589 
L 157.142936 295.364315 
L 162.248297 295.315666 
L 162.480359 295.265284 
L 162.712421 295.391364 
L 163.176544 295.373129 
L 163.408606 295.46591 
L 163.87273 295.355471 
L 164.336854 295.464092 
L 165.033039 295.407559 
L 165.265101 295.305028 
L 165.497163 295.408585 
L 165.729225 295.350891 
L 166.193348 295.395003 
L 166.889534 295.402694 
L 168.746029 295.42765 
L 169.210153 295.35791 
L 169.906338 295.421973 
L 173.155204 295.360547 
L 173.387266 295.258113 
L 173.619328 295.360163 
L 175.011699 295.331731 
L 175.707885 295.383858 
L 175.939947 295.322169 
L 176.172009 295.454461 
L 176.636132 295.330238 
L 176.868194 295.422293 
L 177.100256 295.33555 
L 177.332318 295.422808 
L 177.796442 295.304653 
L 178.492627 295.469139 
L 179.652937 295.342572 
L 180.11706 295.422813 
L 182.205617 295.407875 
L 183.365926 295.457719 
L 185.918607 295.416329 
L 203.555308 295.463177 
L 203.78737 295.345772 
L 204.251494 295.426177 
L 206.340051 295.437673 
L 207.964484 295.361107 
L 208.428607 295.445714 
L 209.356855 295.436524 
L 209.588917 295.293243 
L 217.014896 295.427254 
L 217.47902 295.353289 
L 220.031701 295.410296 
L 221.19201 295.453689 
L 221.888195 295.438407 
L 222.120257 295.291518 
L 222.352319 295.420776 
L 223.048505 295.411483 
L 223.512629 295.46982 
L 223.74469 295.469298 
L 223.976752 295.350953 
L 224.672938 295.469033 
L 224.905 295.349724 
L 225.369123 295.469405 
L 237.668402 295.447335 
L 238.59665 295.443388 
L 238.828711 295.344207 
L 239.756959 295.435841 
L 241.613454 295.396168 
L 242.541701 295.379091 
L 243.237887 295.433545 
L 245.326444 295.403176 
L 246.950877 295.431808 
L 247.647062 295.368739 
L 247.879124 295.360876 
L 248.343248 295.46849 
L 253.216547 295.382053 
L 253.680671 295.381634 
L 284.312836 295.426072 
L 285.241084 295.463839 
L 285.937269 295.413232 
L 286.865517 295.403768 
L 288.722012 295.399628 
L 289.418197 295.427025 
L 292.899125 295.426898 
L 293.131187 295.352969 
L 293.595311 295.400121 
L 294.059435 295.371404 
L 298.46861 295.444496 
L 298.932734 295.375107 
L 302.413662 295.357308 
L 302.645724 295.437992 
L 302.877785 295.271103 
L 303.109847 295.436677 
L 303.341909 295.440015 
L 303.573971 295.300126 
L 307.054899 295.368144 
L 307.983146 295.3632 
L 308.215208 295.453775 
L 309.143456 295.354292 
L 311.232012 295.445044 
L 311.464074 295.306965 
L 312.392322 295.448551 
L 313.088507 295.314412 
L 313.552631 295.370966 
L 313.784693 295.430362 
L 314.016755 295.235803 
L 314.480879 295.41718 
L 319.122116 295.400202 
L 319.354178 295.436821 
L 319.58624 295.294521 
L 320.050363 295.362229 
L 321.442734 295.464487 
L 322.370982 295.337962 
L 323.067167 295.402403 
L 323.531291 295.271713 
L 323.763353 295.358048 
L 324.227477 295.268086 
L 324.6916 295.382778 
L 324.923662 295.388804 
L 325.155724 295.275571 
L 325.619848 295.405883 
L 330.493147 295.416028 
L 331.189333 295.449725 
L 331.885518 295.396744 
L 332.813766 295.403798 
L 333.509951 295.377076 
L 334.206137 295.370232 
L 334.902322 295.401192 
L 335.366446 295.31204 
L 335.83057 295.401531 
L 336.062632 295.361947 
L 336.294694 295.478804 
L 336.526755 295.311264 
L 343.952735 295.358944 
L 344.416859 295.436556 
L 345.577168 295.375003 
L 346.041292 295.364057 
L 347.201601 295.376168 
L 347.665725 295.369302 
L 350.682529 295.335949 
L 350.914591 295.245374 
L 351.378715 295.450216 
L 351.842838 295.280591 
L 352.306962 295.439284 
L 352.539024 295.392509 
L 352.771086 295.462803 
L 353.23521 295.286479 
L 353.467271 295.441161 
L 354.163457 295.355415 
L 354.395519 295.417372 
L 354.627581 295.346124 
L 355.091704 295.451626 
L 355.555828 295.357162 
L 355.78789 295.464845 
L 356.716138 295.374816 
L 358.572632 295.46947 
L 360.197065 295.416773 
L 360.661189 295.456552 
L 361.589437 295.424161 
L 362.05356 295.404442 
L 362.749746 295.431358 
L 362.981808 295.379236 
L 363.445932 295.422844 
L 364.606241 295.410576 
L 366.462736 295.341039 
L 366.926859 295.307165 
L 367.623045 295.347091 
L 367.855107 295.348555 
L 368.087169 295.231772 
L 368.551292 295.446716 
L 379.4582 295.310815 
L 379.690262 295.195497 
L 379.922324 295.362635 
L 380.850571 295.364417 
L 381.082633 295.28965 
L 381.778819 295.426322 
L 382.939128 295.408884 
L 383.635314 295.405919 
L 394.542221 295.439776 
L 395.006345 295.362481 
L 395.238407 295.448744 
L 395.934592 295.336918 
L 396.630778 295.400495 
L 397.326963 295.323107 
L 398.487273 295.347229 
L 398.487273 295.347229 
" style="fill:none;stroke:#ff7f0e;stroke-linecap:square;stroke-width:1.5;"/>
   </g>
   <g id="patch_3">
    <path d="M 57.6 307.584 
L 57.6 41.472 
" style="fill:none;stroke:#000000;stroke-linecap:square;stroke-linejoin:miter;stroke-width:0.8;"/>
   </g>
   <g id="patch_4">
    <path d="M 414.72 307.584 
L 414.72 41.472 
" style="fill:none;stroke:#000000;stroke-linecap:square;stroke-linejoin:miter;stroke-width:0.8;"/>
   </g>
   <g id="patch_5">
    <path d="M 57.6 307.584 
L 414.72 307.584 
" style="fill:none;stroke:#000000;stroke-linecap:square;stroke-linejoin:miter;stroke-width:0.8;"/>
   </g>
   <g id="patch_6">
    <path d="M 57.6 41.472 
L 414.72 41.472 
" style="fill:none;stroke:#000000;stroke-linecap:square;stroke-linejoin:miter;stroke-width:0.8;"/>
   </g>
  </g>
 </g>
 <defs>
  <clipPath id="p9c586a3680">
   <rect height="266.112" width="357.12" x="57.6" y="41.472"/>
  </clipPath>
 </defs>
</svg>
