<?xml version="1.0" encoding="utf-8" standalone="no"?>
<!DOCTYPE svg PUBLIC "-//W3C//DTD SVG 1.1//EN"
  "http://www.w3.org/Graphics/SVG/1.1/DTD/svg11.dtd">
<!-- Created with matplotlib (https://matplotlib.org/) -->
<svg height="345.6pt" version="1.1" viewBox="0 0 460.8 345.6" width="460.8pt" xmlns="http://www.w3.org/2000/svg" xmlns:xlink="http://www.w3.org/1999/xlink">
 <defs>
  <style type="text/css">
*{stroke-linecap:butt;stroke-linejoin:round;}
  </style>
 </defs>
 <g id="figure_1">
  <g id="patch_1">
   <path d="M 0 345.6 
L 460.8 345.6 
L 460.8 0 
L 0 0 
z
" style="fill:#ffffff;"/>
  </g>
  <g id="axes_1">
   <g id="patch_2">
    <path d="M 57.6 307.584 
L 414.72 307.584 
L 414.72 41.472 
L 57.6 41.472 
z
" style="fill:#ffffff;"/>
   </g>
   <g id="matplotlib.axis_1">
    <g id="xtick_1">
     <g id="line2d_1">
      <defs>
       <path d="M 0 0 
L 0 3.5 
" id="m08f6029875" style="stroke:#000000;stroke-width:0.8;"/>
      </defs>
      <g>
       <use style="stroke:#000000;stroke-width:0.8;" x="73.832727" xlink:href="#m08f6029875" y="307.584"/>
      </g>
     </g>
     <g id="text_1">
      <!-- 0 -->
      <defs>
       <path d="M 31.78125 66.40625 
Q 24.171875 66.40625 20.328125 58.90625 
Q 16.5 51.421875 16.5 36.375 
Q 16.5 21.390625 20.328125 13.890625 
Q 24.171875 6.390625 31.78125 6.390625 
Q 39.453125 6.390625 43.28125 13.890625 
Q 47.125 21.390625 47.125 36.375 
Q 47.125 51.421875 43.28125 58.90625 
Q 39.453125 66.40625 31.78125 66.40625 
z
M 31.78125 74.21875 
Q 44.046875 74.21875 50.515625 64.515625 
Q 56.984375 54.828125 56.984375 36.375 
Q 56.984375 17.96875 50.515625 8.265625 
Q 44.046875 -1.421875 31.78125 -1.421875 
Q 19.53125 -1.421875 13.0625 8.265625 
Q 6.59375 17.96875 6.59375 36.375 
Q 6.59375 54.828125 13.0625 64.515625 
Q 19.53125 74.21875 31.78125 74.21875 
z
" id="DejaVuSans-48"/>
      </defs>
      <g transform="translate(70.651477 322.182437)scale(0.1 -0.1)">
       <use xlink:href="#DejaVuSans-48"/>
      </g>
     </g>
    </g>
    <g id="xtick_2">
     <g id="line2d_2">
      <g>
       <use style="stroke:#000000;stroke-width:0.8;" x="120.2451" xlink:href="#m08f6029875" y="307.584"/>
      </g>
     </g>
     <g id="text_2">
      <!-- 200 -->
      <defs>
       <path d="M 19.1875 8.296875 
L 53.609375 8.296875 
L 53.609375 0 
L 7.328125 0 
L 7.328125 8.296875 
Q 12.9375 14.109375 22.625 23.890625 
Q 32.328125 33.6875 34.8125 36.53125 
Q 39.546875 41.84375 41.421875 45.53125 
Q 43.3125 49.21875 43.3125 52.78125 
Q 43.3125 58.59375 39.234375 62.25 
Q 35.15625 65.921875 28.609375 65.921875 
Q 23.96875 65.921875 18.8125 64.3125 
Q 13.671875 62.703125 7.8125 59.421875 
L 7.8125 69.390625 
Q 13.765625 71.78125 18.9375 73 
Q 24.125 74.21875 28.421875 74.21875 
Q 39.75 74.21875 46.484375 68.546875 
Q 53.21875 62.890625 53.21875 53.421875 
Q 53.21875 48.921875 51.53125 44.890625 
Q 49.859375 40.875 45.40625 35.40625 
Q 44.1875 33.984375 37.640625 27.21875 
Q 31.109375 20.453125 19.1875 8.296875 
z
" id="DejaVuSans-50"/>
      </defs>
      <g transform="translate(110.70135 322.182437)scale(0.1 -0.1)">
       <use xlink:href="#DejaVuSans-50"/>
       <use x="63.623047" xlink:href="#DejaVuSans-48"/>
       <use x="127.246094" xlink:href="#DejaVuSans-48"/>
      </g>
     </g>
    </g>
    <g id="xtick_3">
     <g id="line2d_3">
      <g>
       <use style="stroke:#000000;stroke-width:0.8;" x="166.657472" xlink:href="#m08f6029875" y="307.584"/>
      </g>
     </g>
     <g id="text_3">
      <!-- 400 -->
      <defs>
       <path d="M 37.796875 64.3125 
L 12.890625 25.390625 
L 37.796875 25.390625 
z
M 35.203125 72.90625 
L 47.609375 72.90625 
L 47.609375 25.390625 
L 58.015625 25.390625 
L 58.015625 17.1875 
L 47.609375 17.1875 
L 47.609375 0 
L 37.796875 0 
L 37.796875 17.1875 
L 4.890625 17.1875 
L 4.890625 26.703125 
z
" id="DejaVuSans-52"/>
      </defs>
      <g transform="translate(157.113722 322.182437)scale(0.1 -0.1)">
       <use xlink:href="#DejaVuSans-52"/>
       <use x="63.623047" xlink:href="#DejaVuSans-48"/>
       <use x="127.246094" xlink:href="#DejaVuSans-48"/>
      </g>
     </g>
    </g>
    <g id="xtick_4">
     <g id="line2d_4">
      <g>
       <use style="stroke:#000000;stroke-width:0.8;" x="213.069845" xlink:href="#m08f6029875" y="307.584"/>
      </g>
     </g>
     <g id="text_4">
      <!-- 600 -->
      <defs>
       <path d="M 33.015625 40.375 
Q 26.375 40.375 22.484375 35.828125 
Q 18.609375 31.296875 18.609375 23.390625 
Q 18.609375 15.53125 22.484375 10.953125 
Q 26.375 6.390625 33.015625 6.390625 
Q 39.65625 6.390625 43.53125 10.953125 
Q 47.40625 15.53125 47.40625 23.390625 
Q 47.40625 31.296875 43.53125 35.828125 
Q 39.65625 40.375 33.015625 40.375 
z
M 52.59375 71.296875 
L 52.59375 62.3125 
Q 48.875 64.0625 45.09375 64.984375 
Q 41.3125 65.921875 37.59375 65.921875 
Q 27.828125 65.921875 22.671875 59.328125 
Q 17.53125 52.734375 16.796875 39.40625 
Q 19.671875 43.65625 24.015625 45.921875 
Q 28.375 48.1875 33.59375 48.1875 
Q 44.578125 48.1875 50.953125 41.515625 
Q 57.328125 34.859375 57.328125 23.390625 
Q 57.328125 12.15625 50.6875 5.359375 
Q 44.046875 -1.421875 33.015625 -1.421875 
Q 20.359375 -1.421875 13.671875 8.265625 
Q 6.984375 17.96875 6.984375 36.375 
Q 6.984375 53.65625 15.1875 63.9375 
Q 23.390625 74.21875 37.203125 74.21875 
Q 40.921875 74.21875 44.703125 73.484375 
Q 48.484375 72.75 52.59375 71.296875 
z
" id="DejaVuSans-54"/>
      </defs>
      <g transform="translate(203.526095 322.182437)scale(0.1 -0.1)">
       <use xlink:href="#DejaVuSans-54"/>
       <use x="63.623047" xlink:href="#DejaVuSans-48"/>
       <use x="127.246094" xlink:href="#DejaVuSans-48"/>
      </g>
     </g>
    </g>
    <g id="xtick_5">
     <g id="line2d_5">
      <g>
       <use style="stroke:#000000;stroke-width:0.8;" x="259.482217" xlink:href="#m08f6029875" y="307.584"/>
      </g>
     </g>
     <g id="text_5">
      <!-- 800 -->
      <defs>
       <path d="M 31.78125 34.625 
Q 24.75 34.625 20.71875 30.859375 
Q 16.703125 27.09375 16.703125 20.515625 
Q 16.703125 13.921875 20.71875 10.15625 
Q 24.75 6.390625 31.78125 6.390625 
Q 38.8125 6.390625 42.859375 10.171875 
Q 46.921875 13.96875 46.921875 20.515625 
Q 46.921875 27.09375 42.890625 30.859375 
Q 38.875 34.625 31.78125 34.625 
z
M 21.921875 38.8125 
Q 15.578125 40.375 12.03125 44.71875 
Q 8.5 49.078125 8.5 55.328125 
Q 8.5 64.0625 14.71875 69.140625 
Q 20.953125 74.21875 31.78125 74.21875 
Q 42.671875 74.21875 48.875 69.140625 
Q 55.078125 64.0625 55.078125 55.328125 
Q 55.078125 49.078125 51.53125 44.71875 
Q 48 40.375 41.703125 38.8125 
Q 48.828125 37.15625 52.796875 32.3125 
Q 56.78125 27.484375 56.78125 20.515625 
Q 56.78125 9.90625 50.3125 4.234375 
Q 43.84375 -1.421875 31.78125 -1.421875 
Q 19.734375 -1.421875 13.25 4.234375 
Q 6.78125 9.90625 6.78125 20.515625 
Q 6.78125 27.484375 10.78125 32.3125 
Q 14.796875 37.15625 21.921875 38.8125 
z
M 18.3125 54.390625 
Q 18.3125 48.734375 21.84375 45.5625 
Q 25.390625 42.390625 31.78125 42.390625 
Q 38.140625 42.390625 41.71875 45.5625 
Q 45.3125 48.734375 45.3125 54.390625 
Q 45.3125 60.0625 41.71875 63.234375 
Q 38.140625 66.40625 31.78125 66.40625 
Q 25.390625 66.40625 21.84375 63.234375 
Q 18.3125 60.0625 18.3125 54.390625 
z
" id="DejaVuSans-56"/>
      </defs>
      <g transform="translate(249.938467 322.182437)scale(0.1 -0.1)">
       <use xlink:href="#DejaVuSans-56"/>
       <use x="63.623047" xlink:href="#DejaVuSans-48"/>
       <use x="127.246094" xlink:href="#DejaVuSans-48"/>
      </g>
     </g>
    </g>
    <g id="xtick_6">
     <g id="line2d_6">
      <g>
       <use style="stroke:#000000;stroke-width:0.8;" x="305.89459" xlink:href="#m08f6029875" y="307.584"/>
      </g>
     </g>
     <g id="text_6">
      <!-- 1000 -->
      <defs>
       <path d="M 12.40625 8.296875 
L 28.515625 8.296875 
L 28.515625 63.921875 
L 10.984375 60.40625 
L 10.984375 69.390625 
L 28.421875 72.90625 
L 38.28125 72.90625 
L 38.28125 8.296875 
L 54.390625 8.296875 
L 54.390625 0 
L 12.40625 0 
z
" id="DejaVuSans-49"/>
      </defs>
      <g transform="translate(293.16959 322.182437)scale(0.1 -0.1)">
       <use xlink:href="#DejaVuSans-49"/>
       <use x="63.623047" xlink:href="#DejaVuSans-48"/>
       <use x="127.246094" xlink:href="#DejaVuSans-48"/>
       <use x="190.869141" xlink:href="#DejaVuSans-48"/>
      </g>
     </g>
    </g>
    <g id="xtick_7">
     <g id="line2d_7">
      <g>
       <use style="stroke:#000000;stroke-width:0.8;" x="352.306962" xlink:href="#m08f6029875" y="307.584"/>
      </g>
     </g>
     <g id="text_7">
      <!-- 1200 -->
      <g transform="translate(339.581962 322.182437)scale(0.1 -0.1)">
       <use xlink:href="#DejaVuSans-49"/>
       <use x="63.623047" xlink:href="#DejaVuSans-50"/>
       <use x="127.246094" xlink:href="#DejaVuSans-48"/>
       <use x="190.869141" xlink:href="#DejaVuSans-48"/>
      </g>
     </g>
    </g>
    <g id="xtick_8">
     <g id="line2d_8">
      <g>
       <use style="stroke:#000000;stroke-width:0.8;" x="398.719335" xlink:href="#m08f6029875" y="307.584"/>
      </g>
     </g>
     <g id="text_8">
      <!-- 1400 -->
      <g transform="translate(385.994335 322.182437)scale(0.1 -0.1)">
       <use xlink:href="#DejaVuSans-49"/>
       <use x="63.623047" xlink:href="#DejaVuSans-52"/>
       <use x="127.246094" xlink:href="#DejaVuSans-48"/>
       <use x="190.869141" xlink:href="#DejaVuSans-48"/>
      </g>
     </g>
    </g>
   </g>
   <g id="matplotlib.axis_2">
    <g id="ytick_1">
     <g id="line2d_9">
      <defs>
       <path d="M 0 0 
L -3.5 0 
" id="m5cfece65d0" style="stroke:#000000;stroke-width:0.8;"/>
      </defs>
      <g>
       <use style="stroke:#000000;stroke-width:0.8;" x="57.6" xlink:href="#m5cfece65d0" y="295.701456"/>
      </g>
     </g>
     <g id="text_9">
      <!-- 0 -->
      <g transform="translate(44.2375 299.500675)scale(0.1 -0.1)">
       <use xlink:href="#DejaVuSans-48"/>
      </g>
     </g>
    </g>
    <g id="ytick_2">
     <g id="line2d_10">
      <g>
       <use style="stroke:#000000;stroke-width:0.8;" x="57.6" xlink:href="#m5cfece65d0" y="249.541077"/>
      </g>
     </g>
     <g id="text_10">
      <!-- 5 -->
      <defs>
       <path d="M 10.796875 72.90625 
L 49.515625 72.90625 
L 49.515625 64.59375 
L 19.828125 64.59375 
L 19.828125 46.734375 
Q 21.96875 47.46875 24.109375 47.828125 
Q 26.265625 48.1875 28.421875 48.1875 
Q 40.625 48.1875 47.75 41.5 
Q 54.890625 34.8125 54.890625 23.390625 
Q 54.890625 11.625 47.5625 5.09375 
Q 40.234375 -1.421875 26.90625 -1.421875 
Q 22.3125 -1.421875 17.546875 -0.640625 
Q 12.796875 0.140625 7.71875 1.703125 
L 7.71875 11.625 
Q 12.109375 9.234375 16.796875 8.0625 
Q 21.484375 6.890625 26.703125 6.890625 
Q 35.15625 6.890625 40.078125 11.328125 
Q 45.015625 15.765625 45.015625 23.390625 
Q 45.015625 31 40.078125 35.4375 
Q 35.15625 39.890625 26.703125 39.890625 
Q 22.75 39.890625 18.8125 39.015625 
Q 14.890625 38.140625 10.796875 36.28125 
z
" id="DejaVuSans-53"/>
      </defs>
      <g transform="translate(44.2375 253.340296)scale(0.1 -0.1)">
       <use xlink:href="#DejaVuSans-53"/>
      </g>
     </g>
    </g>
    <g id="ytick_3">
     <g id="line2d_11">
      <g>
       <use style="stroke:#000000;stroke-width:0.8;" x="57.6" xlink:href="#m5cfece65d0" y="203.380697"/>
      </g>
     </g>
     <g id="text_11">
      <!-- 10 -->
      <g transform="translate(37.875 207.179916)scale(0.1 -0.1)">
       <use xlink:href="#DejaVuSans-49"/>
       <use x="63.623047" xlink:href="#DejaVuSans-48"/>
      </g>
     </g>
    </g>
    <g id="ytick_4">
     <g id="line2d_12">
      <g>
       <use style="stroke:#000000;stroke-width:0.8;" x="57.6" xlink:href="#m5cfece65d0" y="157.220318"/>
      </g>
     </g>
     <g id="text_12">
      <!-- 15 -->
      <g transform="translate(37.875 161.019537)scale(0.1 -0.1)">
       <use xlink:href="#DejaVuSans-49"/>
       <use x="63.623047" xlink:href="#DejaVuSans-53"/>
      </g>
     </g>
    </g>
    <g id="ytick_5">
     <g id="line2d_13">
      <g>
       <use style="stroke:#000000;stroke-width:0.8;" x="57.6" xlink:href="#m5cfece65d0" y="111.059939"/>
      </g>
     </g>
     <g id="text_13">
      <!-- 20 -->
      <g transform="translate(37.875 114.859157)scale(0.1 -0.1)">
       <use xlink:href="#DejaVuSans-50"/>
       <use x="63.623047" xlink:href="#DejaVuSans-48"/>
      </g>
     </g>
    </g>
    <g id="ytick_6">
     <g id="line2d_14">
      <g>
       <use style="stroke:#000000;stroke-width:0.8;" x="57.6" xlink:href="#m5cfece65d0" y="64.899559"/>
      </g>
     </g>
     <g id="text_14">
      <!-- 25 -->
      <g transform="translate(37.875 68.698778)scale(0.1 -0.1)">
       <use xlink:href="#DejaVuSans-50"/>
       <use x="63.623047" xlink:href="#DejaVuSans-53"/>
      </g>
     </g>
    </g>
   </g>
   <g id="line2d_15">
    <path clip-path="url(#p8bdd52fb8a)" d="M 73.832727 288.029958 
L 74.064789 289.184912 
L 74.296851 288.884679 
L 74.760975 288.664715 
L 75.45716 287.873337 
L 75.689222 288.032268 
L 75.921284 287.963672 
L 76.385408 289.396802 
L 76.61747 289.69281 
L 76.849531 288.966616 
L 77.081593 290.323863 
L 77.313655 290.147544 
L 77.777779 291.417941 
L 78.009841 290.797069 
L 78.241903 291.674747 
L 78.473965 291.209433 
L 78.706026 291.669085 
L 79.17015 291.102784 
L 80.562521 288.808885 
L 80.794583 288.740894 
L 81.026645 288.163915 
L 81.490769 288.380283 
L 81.722831 288.246738 
L 81.954892 288.271391 
L 82.419016 288.721863 
L 82.651078 288.639166 
L 82.88314 288.385328 
L 83.347264 288.865714 
L 83.579325 288.855771 
L 83.811387 287.199472 
L 84.043449 287.565502 
L 84.275511 286.849244 
L 84.507573 287.724338 
L 84.971697 287.01643 
L 85.43582 288.042477 
L 85.899944 290.482607 
L 86.364068 291.332705 
L 86.59613 291.175414 
L 86.828192 291.92815 
L 87.292315 291.457495 
L 87.756439 291.907974 
L 88.220563 291.22632 
L 88.452625 291.904068 
L 89.14881 290.52934 
L 89.380872 290.202317 
L 89.612934 289.205685 
L 89.844996 289.358007 
L 90.30912 289.030455 
L 91.469429 289.284622 
L 91.701491 289.384912 
L 91.933553 289.034252 
L 92.165614 289.041112 
L 92.629738 288.202859 
L 92.8618 288.222614 
L 93.325924 287.729407 
L 94.022109 287.337172 
L 94.254171 287.484072 
L 94.486233 287.267896 
L 94.718295 287.495857 
L 94.950357 288.126426 
L 95.41448 288.560307 
L 95.878604 289.026369 
L 97.038914 289.991217 
L 97.270975 290.119036 
L 97.503037 290.086109 
L 97.967161 290.276764 
L 98.199223 290.283638 
L 98.431285 290.54345 
L 98.663347 290.55046 
L 98.895408 291.036548 
L 99.12747 291.145578 
L 99.359532 290.955087 
L 99.591594 290.987613 
L 100.28778 290.693282 
L 100.519841 290.825441 
L 100.751903 290.785094 
L 100.983965 291.044593 
L 101.216027 290.70752 
L 101.448089 291.369694 
L 101.680151 290.558119 
L 101.912213 291.547508 
L 102.144274 291.225385 
L 102.376336 291.407836 
L 102.608398 290.871863 
L 102.84046 290.832939 
L 103.072522 291.014297 
L 103.304584 290.601212 
L 103.536646 290.587778 
L 103.768708 291.323819 
L 104.000769 291.387382 
L 104.232831 289.920512 
L 104.464893 290.469138 
L 104.696955 290.049617 
L 104.929017 290.048333 
L 105.393141 289.766534 
L 105.625202 289.905609 
L 105.857264 289.669231 
L 106.089326 290.079709 
L 106.321388 289.746965 
L 106.785512 289.818584 
L 107.017574 290.399233 
L 107.481697 290.221317 
L 107.713759 291.114155 
L 108.177883 291.039422 
L 108.409945 290.75081 
L 108.642007 291.063965 
L 108.874068 290.76611 
L 109.10613 291.656641 
L 109.338192 291.276265 
L 109.802316 291.645342 
L 110.26644 291.448131 
L 110.730563 291.588415 
L 110.962625 291.381706 
L 111.194687 290.837625 
L 111.658811 290.611775 
L 111.890873 290.402766 
L 112.122935 290.636023 
L 112.354996 290.614706 
L 112.587058 291.223919 
L 112.81912 291.095236 
L 113.051182 291.112295 
L 113.283244 290.980657 
L 113.747368 291.445541 
L 113.979429 290.787505 
L 114.211491 291.034217 
L 114.443553 290.770032 
L 115.139739 291.503664 
L 115.603862 291.36232 
L 115.835924 291.66193 
L 116.067986 291.35994 
L 116.300048 291.326594 
L 116.53211 290.035804 
L 116.764172 290.087292 
L 116.996234 289.951471 
L 117.460357 289.923676 
L 117.692419 290.208649 
L 117.924481 290.01415 
L 118.156543 290.165067 
L 118.388605 290.011463 
L 118.852729 289.928481 
L 119.316852 289.861824 
L 119.548914 290.156284 
L 120.477162 290.146074 
L 120.941285 290.035032 
L 121.173347 290.031117 
L 121.405409 290.422923 
L 121.869533 290.489879 
L 122.101595 290.872382 
L 122.79778 290.828142 
L 123.029842 290.623787 
L 123.261904 290.82025 
L 124.422213 290.525428 
L 124.654275 290.73707 
L 124.886337 290.755331 
L 125.350461 290.57236 
L 125.582523 290.601018 
L 125.814584 290.392084 
L 126.278708 290.445495 
L 126.742832 290.401205 
L 126.974894 290.184843 
L 127.671079 290.273329 
L 127.903141 290.037496 
L 128.135203 290.004399 
L 128.599327 290.13825 
L 128.831389 289.842855 
L 129.063451 290.043312 
L 129.295512 290.02189 
L 129.527574 290.181039 
L 129.991698 290.089958 
L 130.22376 289.867094 
L 130.919945 290.22396 
L 131.152007 290.222433 
L 131.384069 290.530385 
L 132.312317 290.225655 
L 133.008502 290.253627 
L 133.240564 289.999894 
L 135.793245 289.707 
L 137.185616 289.845822 
L 138.113863 290.065185 
L 138.345925 290.098611 
L 138.577987 290.281164 
L 138.810049 290.305361 
L 139.042111 290.190846 
L 139.274172 290.475858 
L 139.738296 290.386785 
L 139.970358 289.710635 
L 141.130667 289.479886 
L 141.362729 289.518846 
L 141.594791 289.316923 
L 143.219224 289.17405 
L 143.683348 289.241762 
L 143.91541 288.971327 
L 144.147472 289.280409 
L 145.075719 289.446382 
L 145.539843 289.687663 
L 145.771905 289.744985 
L 146.003966 289.632031 
L 146.236028 289.64439 
L 146.46809 289.482409 
L 146.700152 289.664213 
L 146.932214 289.667919 
L 147.164276 289.506898 
L 147.6284 289.63086 
L 148.092523 289.492132 
L 150.18108 288.974749 
L 150.877266 288.835025 
L 151.109327 288.620288 
L 151.341389 288.789517 
L 152.037575 288.856752 
L 152.73376 288.97017 
L 152.965822 288.890251 
L 153.429946 288.99129 
L 153.662008 289.213413 
L 154.590255 289.282454 
L 155.286441 289.139312 
L 155.518503 289.270411 
L 155.750565 289.200513 
L 155.982627 288.707933 
L 159.231493 288.304636 
L 161.087988 288.499302 
L 161.552111 288.748959 
L 161.784173 288.82533 
L 162.016235 288.549139 
L 162.712421 288.545749 
L 163.176544 288.438317 
L 164.104792 288.14182 
L 164.568915 287.958282 
L 164.800977 287.994454 
L 165.033039 287.874932 
L 165.497163 287.863946 
L 165.961287 287.93582 
L 166.193348 288.12078 
L 169.906338 288.39649 
L 170.370462 288.096663 
L 170.834586 288.133053 
L 171.298709 288.018449 
L 171.994895 287.939115 
L 172.226957 287.871244 
L 172.459019 287.966693 
L 173.85139 287.682233 
L 175.011699 287.725887 
L 175.707885 287.631658 
L 175.939947 287.789842 
L 176.172009 287.761274 
L 176.636132 287.903863 
L 178.260565 287.827682 
L 178.492627 287.962766 
L 181.741493 287.147435 
L 182.669741 287.154095 
L 183.83005 287.4441 
L 184.294174 287.799905 
L 190.09572 286.977222 
L 190.327782 287.075767 
L 190.791906 287.036414 
L 192.416339 287.289133 
L 194.040772 287.411362 
L 196.129329 286.902589 
L 196.825514 286.820762 
L 199.378195 287.152764 
L 199.842319 287.255945 
L 200.306442 287.280206 
L 202.162937 287.116563 
L 202.394999 286.968807 
L 202.627061 287.024463 
L 204.251494 286.698198 
L 207.036236 286.996739 
L 208.428607 287.104022 
L 208.892731 286.975136 
L 211.677474 286.420645 
L 214.694278 286.553787 
L 216.086649 286.664741 
L 216.782834 286.573028 
L 217.014896 286.653809 
L 219.799639 286.212197 
L 220.959948 286.275535 
L 224.440876 286.55632 
L 226.065309 286.162752 
L 228.153866 285.989801 
L 228.385928 286.079885 
L 228.850051 286.058555 
L 230.706546 286.307214 
L 231.866856 286.32738 
L 233.027165 286.128503 
L 233.955412 285.907887 
L 234.419536 285.978156 
L 235.115722 285.807233 
L 235.579845 285.954732 
L 236.043969 285.943216 
L 236.972217 286.2581 
L 237.204278 286.619303 
L 237.43634 286.596872 
L 237.900464 286.854607 
L 238.364588 287.165013 
L 239.756959 286.256174 
L 241.613454 285.890517 
L 242.541701 286.04426 
L 245.326444 286.60083 
L 247.415 286.340572 
L 247.879124 286.115123 
L 249.967681 285.696911 
L 251.12799 285.917539 
L 252.288299 286.337263 
L 252.520361 286.50789 
L 254.144794 286.409223 
L 255.537166 286.025182 
L 256.001289 285.88974 
L 257.625722 285.525996 
L 259.482217 285.843926 
L 260.642526 286.253559 
L 261.570774 286.258459 
L 263.891393 285.512735 
L 264.587578 285.299541 
L 265.747887 285.454254 
L 267.836444 285.977523 
L 268.764692 286.131497 
L 269.460877 286.116701 
L 270.157063 285.945241 
L 270.853248 285.758323 
L 272.24562 285.448701 
L 273.173867 285.562486 
L 278.047166 285.829125 
L 279.439537 285.590516 
L 280.135723 285.565814 
L 283.384589 285.707575 
L 285.473146 285.753357 
L 287.097579 285.538842 
L 290.114383 285.84015 
L 291.04263 285.620436 
L 291.738816 285.560892 
L 293.363249 285.672203 
L 293.827373 285.738692 
L 294.059435 285.830552 
L 294.523558 285.682824 
L 295.219744 285.897869 
L 295.683868 285.79836 
L 296.147991 286.067499 
L 297.076239 285.648843 
L 297.308301 285.793024 
L 298.236548 285.682771 
L 299.396857 285.761592 
L 300.789229 285.813188 
L 301.949538 285.848772 
L 302.645724 285.74955 
L 303.109847 285.91467 
L 306.126652 285.669483 
L 306.590775 285.789938 
L 307.054899 285.705478 
L 308.44727 285.829371 
L 308.911394 285.814749 
L 309.143456 285.957763 
L 309.607579 285.839816 
L 309.839641 285.922617 
L 311.928198 285.638523 
L 314.016755 285.634378 
L 314.480879 285.534507 
L 314.71294 285.61819 
L 315.177064 285.54894 
L 315.87325 285.619071 
L 316.337373 285.693548 
L 318.193868 285.809479 
L 318.657992 285.691192 
L 319.354178 285.684395 
L 320.050363 285.637871 
L 321.210673 285.615233 
L 321.674796 285.569328 
L 321.906858 285.692624 
L 322.13892 285.654758 
L 322.370982 285.799653 
L 322.603044 285.739386 
L 323.067167 285.916774 
L 323.299229 285.802212 
L 324.923662 285.850871 
L 325.619848 285.739217 
L 325.85191 285.800668 
L 327.012219 285.577179 
L 328.868714 285.68087 
L 329.5649 285.929152 
L 330.029023 285.740326 
L 331.653456 285.709647 
L 332.581704 285.824841 
L 334.670261 285.513313 
L 335.366446 285.573454 
L 337.919127 285.790296 
L 338.615312 285.970341 
L 339.311498 286.160842 
L 339.775622 286.013627 
L 340.703869 285.676073 
L 341.632116 285.619592 
L 345.345106 285.786633 
L 347.897787 285.739388 
L 348.36191 285.545174 
L 349.290158 285.680337 
L 350.450467 285.744383 
L 351.146653 285.861482 
L 352.771086 285.686455 
L 354.627581 285.572478 
L 355.323766 285.603559 
L 358.804694 285.822133 
L 359.965004 285.763981 
L 360.197065 285.913286 
L 361.357375 285.64968 
L 365.070365 285.914688 
L 365.998612 285.871677 
L 366.230674 286.071928 
L 366.926859 285.886294 
L 367.855107 285.653083 
L 372.960468 285.960117 
L 378.065829 286.062987 
L 379.226138 286.225602 
L 381.314695 286.210809 
L 383.867375 286.098019 
L 384.795623 286.159458 
L 385.027685 286.176817 
L 385.491808 286.062851 
L 386.652118 286.253367 
L 389.204798 286.259554 
L 390.829231 286.118047 
L 393.381912 286.193188 
L 394.310159 286.337779 
L 395.470469 286.382372 
L 397.559025 286.326456 
L 398.487273 286.257858 
L 398.487273 286.257858 
" style="fill:none;stroke:#1f77b4;stroke-linecap:square;stroke-width:1.5;"/>
   </g>
   <g id="line2d_16">
    <path clip-path="url(#p8bdd52fb8a)" d="M 73.832727 53.568 
L 74.064789 233.859636 
L 74.296851 257.25686 
L 74.993037 280.001457 
L 75.921284 295.488 
L 76.153346 294.670287 
L 76.61747 292.53514 
L 77.081593 282.377543 
L 77.313655 281.131655 
L 77.545717 287.213393 
L 78.009841 293.836326 
L 78.473965 292.895036 
L 79.17015 291.885338 
L 79.402212 290.988699 
L 79.866336 283.45801 
L 80.098398 287.507783 
L 80.330459 286.668704 
L 80.562521 287.565698 
L 80.794583 281.961086 
L 81.026645 287.323694 
L 81.258707 284.984865 
L 81.954892 286.558844 
L 82.186954 286.899802 
L 82.419016 285.791761 
L 82.651078 285.985834 
L 83.115202 289.649246 
L 83.347264 285.915426 
L 83.579325 291.432246 
L 83.811387 290.978171 
L 84.043449 290.865232 
L 84.275511 289.853541 
L 84.507573 290.096701 
L 84.739635 289.483055 
L 84.971697 289.429264 
L 85.203759 289.516854 
L 85.43582 288.676285 
L 85.667882 288.652462 
L 85.899944 289.053946 
L 86.364068 288.704328 
L 86.59613 289.028724 
L 86.828192 287.77917 
L 87.060253 285.595446 
L 87.292315 287.494845 
L 87.524377 285.479231 
L 87.756439 285.523096 
L 87.988501 286.847057 
L 88.220563 286.376197 
L 88.452625 287.159751 
L 88.684686 284.518872 
L 88.916748 288.321307 
L 89.14881 289.029357 
L 89.380872 288.702055 
L 89.844996 289.856611 
L 90.077058 289.329168 
L 90.30912 290.708364 
L 90.541181 289.788742 
L 90.773243 289.754664 
L 91.005305 289.198898 
L 91.469429 290.369793 
L 91.701491 287.943566 
L 91.933553 287.082154 
L 92.165614 286.87668 
L 92.397676 288.521888 
L 92.629738 288.689277 
L 93.093862 285.863605 
L 93.325924 288.355674 
L 93.557986 288.383412 
L 93.790047 288.656559 
L 94.022109 288.113915 
L 94.254171 286.642548 
L 94.486233 288.315325 
L 94.718295 288.391201 
L 94.950357 287.99694 
L 95.41448 288.291773 
L 95.646542 287.480015 
L 95.878604 287.88312 
L 96.110666 287.877036 
L 96.342728 287.654094 
L 96.806852 288.112682 
L 97.038914 287.669321 
L 97.503037 287.621505 
L 97.735099 286.178241 
L 97.967161 286.066085 
L 98.199223 286.14906 
L 98.431285 286.073798 
L 98.663347 286.182705 
L 98.895408 286.044183 
L 99.12747 286.721126 
L 99.359532 286.475211 
L 99.591594 286.716331 
L 99.823656 285.473017 
L 100.055718 285.527339 
L 100.28778 285.920026 
L 100.519841 285.663633 
L 100.751903 285.731727 
L 101.216027 285.447736 
L 101.448089 285.297394 
L 101.680151 284.714897 
L 101.912213 285.23969 
L 102.144274 285.464894 
L 102.376336 284.359374 
L 102.84046 284.426286 
L 103.072522 284.240228 
L 103.304584 283.856333 
L 103.536646 283.893544 
L 103.768708 283.580037 
L 104.000769 284.634 
L 104.232831 284.625125 
L 104.464893 284.796363 
L 104.696955 285.167598 
L 104.929017 284.648252 
L 105.161079 282.533779 
L 105.393141 284.757362 
L 105.625202 284.634789 
L 105.857264 284.228372 
L 106.089326 283.348279 
L 106.321388 284.653837 
L 106.785512 284.289596 
L 107.017574 284.223319 
L 107.249635 284.531212 
L 107.481697 284.528666 
L 107.713759 284.391582 
L 107.945821 283.91455 
L 108.177883 283.775458 
L 108.409945 284.048344 
L 108.642007 282.439752 
L 108.874068 284.234063 
L 109.10613 284.589275 
L 109.338192 284.498478 
L 109.570254 284.631065 
L 109.802316 283.545513 
L 110.034378 283.896082 
L 110.26644 283.847502 
L 110.498502 283.397051 
L 110.730563 284.272442 
L 110.962625 284.180233 
L 111.194687 283.870682 
L 111.426749 283.927954 
L 111.658811 283.729124 
L 112.122935 283.712551 
L 112.81912 283.892259 
L 113.051182 283.749247 
L 113.515306 283.859389 
L 113.747368 283.665768 
L 113.979429 283.810464 
L 114.443553 283.742199 
L 114.675615 283.882156 
L 115.139739 283.842751 
L 115.371801 283.142105 
L 115.603862 283.206173 
L 116.067986 282.764073 
L 116.53211 282.64037 
L 116.764172 282.664378 
L 116.996234 283.463624 
L 117.228296 282.511754 
L 117.924481 282.464817 
L 118.156543 283.511497 
L 119.548914 283.46945 
L 119.780976 283.473893 
L 120.2451 283.106164 
L 120.477162 281.809158 
L 120.709223 281.704097 
L 120.941285 282.920376 
L 121.173347 281.741754 
L 121.869533 281.623353 
L 122.101595 281.68909 
L 122.333657 283.370507 
L 123.029842 283.357468 
L 123.261904 282.970546 
L 123.726028 282.953309 
L 123.95809 283.023059 
L 124.190151 282.908697 
L 124.422213 282.988532 
L 124.654275 282.296437 
L 124.886337 282.282039 
L 125.118399 282.791183 
L 126.278708 282.713039 
L 126.51077 282.963953 
L 126.974894 282.987992 
L 127.671079 282.956444 
L 127.903141 282.758635 
L 128.135203 282.335623 
L 128.599327 282.250203 
L 128.831389 282.563811 
L 129.063451 282.646042 
L 129.295512 282.420446 
L 129.527574 282.749341 
L 129.991698 282.712191 
L 130.687884 282.690163 
L 130.919945 282.29158 
L 131.384069 282.514175 
L 131.616131 282.350761 
L 131.848193 281.948347 
L 132.080255 282.480367 
L 132.312317 281.848667 
L 132.544378 282.583928 
L 132.77644 282.018317 
L 133.008502 282.000817 
L 133.240564 282.405265 
L 133.93675 282.603066 
L 134.168811 282.814003 
L 134.400873 282.338388 
L 134.632935 282.6608 
L 135.329121 282.481085 
L 135.561183 282.496451 
L 135.793245 282.64424 
L 136.025306 282.604723 
L 136.257368 282.361158 
L 136.48943 282.445867 
L 137.185616 282.16367 
L 137.417678 282.564679 
L 137.649739 282.220517 
L 138.113863 282.542317 
L 138.810049 282.399922 
L 139.042111 282.521065 
L 140.898605 282.330604 
L 141.594791 282.379012 
L 141.826853 282.146524 
L 142.523039 282.062927 
L 142.7551 282.001911 
L 142.987162 282.119331 
L 144.147472 282.005738 
L 144.379533 282.152813 
L 144.611595 281.992901 
L 146.236028 281.978827 
L 146.932214 282.24642 
L 150.413142 282.073167 
L 150.877266 282.240892 
L 151.109327 282.483312 
L 151.341389 281.814976 
L 151.805513 281.752522 
L 152.269637 281.279382 
L 152.501699 281.500554 
L 152.73376 280.954667 
L 153.197884 281.450037 
L 153.429946 281.146145 
L 153.89407 281.036938 
L 154.126132 281.514083 
L 154.358194 281.465975 
L 154.590255 281.210379 
L 155.286441 281.774924 
L 155.982627 281.63849 
L 156.44675 281.701736 
L 156.678812 281.722817 
L 157.142936 281.588039 
L 157.374998 281.804133 
L 157.839121 281.167074 
L 158.071183 281.557957 
L 158.303245 281.476407 
L 158.535307 281.548222 
L 158.999431 281.39974 
L 159.463554 281.4905 
L 159.695616 281.268634 
L 160.15974 281.19938 
L 160.391802 281.330919 
L 160.855926 281.269029 
L 161.552111 281.196794 
L 162.016235 281.188751 
L 162.248297 280.579359 
L 162.480359 281.40727 
L 166.889534 281.090103 
L 167.817782 280.975659 
L 168.513967 281.14928 
L 169.906338 281.065675 
L 170.370462 281.062897 
L 170.834586 281.15521 
L 171.066648 280.875593 
L 171.298709 281.078959 
L 171.530771 281.044143 
L 171.762833 280.834522 
L 171.994895 280.85413 
L 172.226957 281.189839 
L 172.691081 281.176646 
L 174.315514 281.198307 
L 174.547576 281.247454 
L 174.779637 281.13215 
L 175.243761 281.125273 
L 176.40407 281.059943 
L 176.868194 281.024758 
L 177.100256 279.974234 
L 177.56438 280.258729 
L 178.492627 280.179698 
L 178.724689 280.533137 
L 178.956751 279.72045 
L 179.884998 279.492102 
L 181.509431 279.428426 
L 181.973555 279.326879 
L 182.205617 279.33043 
L 182.437679 279.681306 
L 182.901803 279.640966 
L 183.133864 279.497506 
L 183.365926 279.621534 
L 184.062112 279.528857 
L 184.294174 279.782377 
L 184.526236 279.310212 
L 184.758297 279.27038 
L 184.990359 279.456243 
L 185.686545 279.375134 
L 185.918607 279.46634 
L 187.078916 279.362845 
L 187.54304 279.358439 
L 187.775102 280.623948 
L 188.007164 279.720324 
L 188.239225 280.200709 
L 188.703349 280.23551 
L 188.935411 280.044215 
L 189.167473 280.015446 
L 189.399535 280.224655 
L 189.631597 280.206769 
L 189.863658 279.956889 
L 190.09572 280.242869 
L 190.327782 279.967839 
L 190.559844 280.061279 
L 190.791906 279.947795 
L 191.023968 279.2094 
L 191.25603 279.591018 
L 191.720153 279.373112 
L 191.952215 279.005775 
L 192.184277 278.964538 
L 192.416339 279.675763 
L 192.880463 279.655577 
L 193.112525 279.609784 
L 193.344586 279.977385 
L 194.040772 280.20126 
L 194.272834 280.026295 
L 194.504896 280.053096 
L 194.736958 279.828853 
L 195.201081 279.777775 
L 195.433143 279.957883 
L 195.665205 279.506196 
L 195.897267 280.150739 
L 196.361391 279.937293 
L 196.593452 279.648341 
L 197.289638 279.428545 
L 197.5217 279.746659 
L 197.985824 279.149097 
L 198.217886 279.034546 
L 198.449947 279.641024 
L 198.682009 279.566547 
L 198.914071 279.668543 
L 199.146133 279.501276 
L 199.378195 279.803244 
L 199.610257 279.123775 
L 199.842319 279.413501 
L 200.07438 279.345166 
L 200.306442 278.921861 
L 200.538504 278.905208 
L 200.770566 279.453538 
L 201.23469 279.474036 
L 203.091185 279.624086 
L 203.555308 279.579546 
L 203.78737 279.401232 
L 204.019432 279.601088 
L 204.483556 279.602204 
L 204.94768 279.085251 
L 205.179741 279.62329 
L 205.411803 279.537667 
L 205.643865 278.221737 
L 205.875927 279.352194 
L 206.107989 276.729942 
L 206.340051 279.029036 
L 206.572113 279.176158 
L 206.804174 279.146253 
L 207.268298 279.42544 
L 207.50036 278.508344 
L 207.732422 279.000068 
L 208.196546 278.719095 
L 208.892731 279.589065 
L 209.124793 278.748055 
L 209.588917 279.059158 
L 210.05304 278.195068 
L 210.285102 279.136135 
L 210.749226 279.094087 
L 210.981288 277.707765 
L 211.677474 277.524669 
L 211.909535 279.020138 
L 212.141597 278.311351 
L 212.373659 278.06201 
L 212.837783 278.03649 
L 213.301907 278.765858 
L 213.533968 278.644435 
L 213.76603 277.919862 
L 214.230154 278.65488 
L 214.462216 278.062661 
L 214.694278 278.11503 
L 214.92634 277.812114 
L 215.158401 278.617411 
L 215.390463 278.241611 
L 215.854587 278.516615 
L 216.318711 278.675605 
L 216.550773 278.964356 
L 216.782834 278.400007 
L 217.014896 278.902802 
L 217.246958 278.941672 
L 217.47902 278.074924 
L 217.711082 278.569197 
L 217.943144 278.540977 
L 218.175206 279.194736 
L 218.639329 279.099579 
L 219.103453 279.145431 
L 219.567577 278.236966 
L 219.799639 278.798478 
L 220.031701 278.8184 
L 220.263762 278.552095 
L 220.727886 278.768684 
L 221.19201 278.274335 
L 221.424072 278.230881 
L 221.656134 278.009079 
L 221.888195 278.433795 
L 222.120257 277.963966 
L 222.352319 278.397137 
L 222.584381 277.651026 
L 222.816443 278.3927 
L 223.048505 278.229257 
L 223.976752 278.476758 
L 224.208814 278.302965 
L 224.672938 278.449575 
L 224.905 278.122173 
L 225.137062 278.282555 
L 227.225618 278.212009 
L 227.45768 278.401265 
L 228.153866 278.097877 
L 228.385928 277.230385 
L 228.617989 278.11102 
L 229.314175 277.928542 
L 229.546237 276.666318 
L 230.242423 277.870604 
L 230.474484 277.102235 
L 230.706546 277.186513 
L 230.938608 278.221356 
L 231.17067 278.071154 
L 231.402732 278.096277 
L 231.634794 278.266716 
L 232.098917 278.261868 
L 232.330979 278.179979 
L 232.563041 277.531386 
L 232.795103 277.966864 
L 233.491289 277.891029 
L 234.187474 277.872726 
L 234.419536 277.557694 
L 234.651598 278.349717 
L 235.115722 278.414456 
L 235.579845 278.229932 
L 236.740155 278.068927 
L 236.972217 277.427579 
L 237.204278 277.993998 
L 237.668402 277.684103 
L 237.900464 277.985883 
L 238.132526 277.978598 
L 238.59665 277.436473 
L 238.828711 277.433104 
L 239.060773 277.715159 
L 239.292835 277.726043 
L 239.524897 277.902644 
L 242.541701 278.020923 
L 242.773763 278.187713 
L 243.005825 278.108362 
L 243.237887 278.27134 
L 243.934072 278.318885 
L 244.166134 277.584846 
L 246.254691 277.573561 
L 247.647062 277.723514 
L 248.111186 277.880677 
L 248.807371 277.894618 
L 249.967681 277.91118 
L 250.199743 277.895073 
L 250.431805 278.352058 
L 250.895928 278.285617 
L 251.360052 277.941091 
L 251.824176 278.006055 
L 252.056238 277.770392 
L 252.288299 277.959217 
L 252.520361 277.742338 
L 253.216547 277.737331 
L 253.680671 277.734948 
L 254.608918 277.702792 
L 255.073042 278.018565 
L 255.537166 278.104489 
L 256.001289 278.053129 
L 256.233351 278.080238 
L 256.465413 278.289415 
L 256.697475 277.947274 
L 256.929537 277.957905 
L 257.161599 278.086582 
L 257.39366 277.640661 
L 257.625722 277.622784 
L 257.857784 277.817529 
L 258.089846 277.566982 
L 258.321908 277.769536 
L 258.55397 277.527664 
L 258.786032 276.985042 
L 259.018093 276.929619 
L 259.250155 277.535499 
L 259.714279 277.528584 
L 259.946341 277.092875 
L 260.178403 277.326879 
L 260.642526 276.922635 
L 260.874588 276.269038 
L 261.10665 277.441139 
L 262.499021 277.538242 
L 262.731083 277.723641 
L 262.963145 277.446065 
L 263.195207 277.988625 
L 263.427269 277.900504 
L 263.659331 277.957951 
L 263.891393 277.719814 
L 264.123454 277.691143 
L 264.355516 277.90686 
L 264.81964 277.859902 
L 265.051702 277.293263 
L 265.283764 278.104501 
L 265.515826 277.851 
L 267.140259 277.736961 
L 267.604382 277.529144 
L 267.836444 277.45303 
L 268.068506 277.58624 
L 268.300568 277.569508 
L 268.53263 276.777997 
L 268.764692 277.511206 
L 268.996754 277.515687 
L 269.228815 277.28749 
L 269.692939 277.052716 
L 270.157063 277.71509 
L 270.389125 276.857511 
L 270.621187 276.901775 
L 270.853248 277.560651 
L 271.08531 277.209082 
L 271.317372 277.17674 
L 271.549434 276.230358 
L 271.781496 277.6461 
L 272.013558 277.362038 
L 272.24562 277.752255 
L 272.477681 277.317708 
L 272.709743 277.598512 
L 272.941805 277.227526 
L 273.405929 277.73275 
L 273.637991 277.562882 
L 274.102114 277.679947 
L 274.7983 276.643455 
L 275.030362 277.370015 
L 275.262424 277.326812 
L 275.726548 276.765395 
L 275.958609 277.432472 
L 276.190671 277.503048 
L 276.422733 277.389835 
L 276.654795 277.033569 
L 277.118919 277.288184 
L 277.350981 277.207019 
L 277.583042 276.903804 
L 277.815104 277.227041 
L 278.047166 277.216804 
L 278.279228 277.528923 
L 278.743352 277.198525 
L 278.975414 276.545339 
L 279.439537 277.606273 
L 279.903661 276.854597 
L 280.135723 277.44391 
L 280.599847 277.476097 
L 281.06397 277.279276 
L 281.528094 277.396409 
L 281.760156 277.448139 
L 281.992218 277.107117 
L 282.22428 277.33038 
L 282.456342 277.270164 
L 282.688403 277.045928 
L 282.920465 277.366793 
L 283.152527 277.015091 
L 283.384589 277.30275 
L 283.616651 277.234043 
L 283.848713 276.96528 
L 284.080775 277.000481 
L 284.312836 277.190414 
L 284.77696 277.196279 
L 285.009022 277.423359 
L 285.241084 277.435804 
L 285.473146 277.318138 
L 285.705208 277.423373 
L 286.169331 277.192181 
L 286.401393 277.122501 
L 286.633455 276.310101 
L 286.865517 276.570633 
L 287.097579 276.646507 
L 287.561703 276.411544 
L 288.025826 277.144735 
L 288.257888 276.74024 
L 288.722012 276.982775 
L 288.954074 277.34537 
L 289.186136 277.44082 
L 289.418197 277.245091 
L 289.650259 277.216588 
L 289.882321 276.940276 
L 290.114383 277.502742 
L 290.346445 277.324279 
L 290.578507 276.841427 
L 290.810569 276.655838 
L 291.274692 277.046854 
L 291.506754 277.011836 
L 291.738816 276.707534 
L 291.970878 277.199811 
L 292.20294 276.630587 
L 292.435002 277.03856 
L 292.667063 277.060037 
L 292.899125 276.861992 
L 293.131187 276.938592 
L 293.363249 276.581938 
L 293.595311 277.070652 
L 293.827373 276.451569 
L 294.291497 277.094832 
L 294.75562 277.297513 
L 295.219744 276.992894 
L 295.683868 277.344369 
L 295.91593 276.787347 
L 296.380053 276.829885 
L 296.844177 276.836706 
L 297.076239 277.213041 
L 297.308301 276.744844 
L 297.540363 276.911658 
L 297.772424 276.921032 
L 298.004486 276.548511 
L 298.236548 276.585416 
L 298.700672 277.078215 
L 298.932734 276.219502 
L 299.164796 276.80843 
L 299.860981 276.571037 
L 301.021291 276.563366 
L 301.485414 276.230762 
L 302.1816 276.195172 
L 302.413662 276.698588 
L 302.645724 275.983706 
L 303.341909 276.063337 
L 303.806033 276.092135 
L 304.038095 275.662099 
L 304.270157 276.187581 
L 304.966342 276.44513 
L 305.198404 276.302141 
L 305.430466 276.671621 
L 305.662528 276.803034 
L 305.89459 276.438922 
L 306.126652 276.384999 
L 306.358713 275.936771 
L 306.590775 276.220943 
L 306.822837 276.209474 
L 307.054899 276.64337 
L 307.286961 276.24788 
L 307.519023 276.407879 
L 307.751085 275.764918 
L 308.215208 276.642108 
L 308.44727 276.152189 
L 308.679332 276.299759 
L 308.911394 276.179898 
L 309.143456 276.306108 
L 309.375518 276.606218 
L 309.607579 276.342632 
L 309.839641 276.459553 
L 310.071703 276.789996 
L 310.999951 276.885503 
L 311.464074 277.013493 
L 311.696136 277.061517 
L 312.624384 276.651202 
L 313.088507 276.694043 
L 314.016755 276.580543 
L 314.480879 276.679941 
L 317.961806 276.551478 
L 318.657992 276.436907 
L 318.890054 276.309393 
L 319.122116 275.894448 
L 319.354178 276.315908 
L 319.58624 276.353754 
L 319.818301 276.09336 
L 320.746549 276.041776 
L 320.978611 276.303112 
L 321.210673 276.132271 
L 321.442734 276.291135 
L 321.674796 276.297237 
L 321.906858 276.781671 
L 322.370982 276.712513 
L 322.603044 276.761759 
L 323.067167 276.676093 
L 324.923662 276.915974 
L 325.85191 276.912037 
L 326.083972 276.08796 
L 326.316034 276.070023 
L 326.548095 276.340677 
L 326.780157 276.263985 
L 327.012219 276.01065 
L 327.476343 276.013037 
L 327.708405 276.685619 
L 327.940467 276.695149 
L 328.172528 276.467901 
L 328.40459 276.593266 
L 328.636652 276.10057 
L 328.868714 276.589213 
L 329.100776 276.708464 
L 329.332838 276.424818 
L 330.261085 276.519854 
L 330.493147 276.815415 
L 330.725209 276.416106 
L 330.957271 276.679489 
L 331.421395 276.538033 
L 332.11758 276.845324 
L 332.581704 276.637164 
L 332.813766 276.825558 
L 333.277889 276.600309 
L 333.509951 276.308006 
L 333.742013 276.486701 
L 334.670261 276.491316 
L 334.902322 276.466361 
L 335.134384 276.215149 
L 335.598508 276.211664 
L 335.83057 276.462117 
L 336.062632 276.453223 
L 336.294694 276.212205 
L 337.455003 276.176706 
L 337.687065 276.362498 
L 339.079436 276.506238 
L 339.54356 276.625665 
L 340.239745 276.608498 
L 340.703869 276.590596 
L 340.935931 276.300946 
L 341.400055 276.566792 
L 342.328302 276.202245 
L 342.560364 276.047664 
L 344.880983 275.966686 
L 345.345106 276.03085 
L 345.577168 275.959552 
L 346.041292 275.983549 
L 347.201601 276.051176 
L 347.665725 276.175985 
L 347.897787 275.961628 
L 348.129849 276.209868 
L 348.826034 276.197963 
L 349.058096 276.046902 
L 349.290158 276.411046 
L 349.754282 276.359648 
L 350.218405 275.966146 
L 350.450467 276.058145 
L 351.146653 275.845731 
L 351.378715 275.85662 
L 351.842838 276.058098 
L 352.539024 276.341939 
L 352.771086 276.128357 
L 353.699333 276.340259 
L 353.931395 275.994886 
L 354.395519 276.438082 
L 354.627581 276.286797 
L 354.859643 276.385461 
L 355.091704 276.26047 
L 355.323766 276.352923 
L 355.78789 276.292286 
L 356.019952 276.027468 
L 356.252014 276.37135 
L 356.948199 275.999574 
L 357.180261 275.903493 
L 357.644385 276.240393 
L 357.876447 276.010125 
L 358.340571 276.201485 
L 358.804694 276.297179 
L 359.036756 276.017787 
L 359.732942 276.239068 
L 361.125313 276.276113 
L 361.589437 276.204833 
L 361.821498 276.4211 
L 362.285622 276.448271 
L 362.517684 275.993875 
L 362.749746 276.309902 
L 363.677993 276.303712 
L 365.070365 275.97801 
L 365.302426 276.089417 
L 365.534488 276.002406 
L 365.76655 276.108763 
L 366.462736 276.049021 
L 367.158921 276.091326 
L 367.390983 275.942574 
L 367.623045 276.017983 
L 367.855107 275.932163 
L 368.319231 276.11921 
L 368.783354 276.100781 
L 369.015416 276.083704 
L 369.247478 275.895012 
L 369.47954 276.136873 
L 369.943664 276.052089 
L 370.407787 276.059619 
L 370.871911 275.835149 
L 371.103973 276.071475 
L 371.568097 275.990653 
L 371.800159 275.764872 
L 372.03222 276.163113 
L 372.496344 276.311095 
L 372.728406 275.936452 
L 372.960468 275.861968 
L 373.424592 276.127629 
L 373.656653 275.836708 
L 374.120777 276.016566 
L 374.352839 275.675347 
L 374.584901 275.755845 
L 374.816963 275.717487 
L 375.049025 275.543961 
L 375.513148 275.559941 
L 375.74521 275.827776 
L 376.209334 275.233871 
L 376.441396 275.470724 
L 376.90552 275.547673 
L 377.137581 275.619422 
L 377.369643 275.880106 
L 377.601705 275.732593 
L 378.297891 275.809697 
L 378.529953 275.438928 
L 378.762014 275.577773 
L 378.994076 275.344649 
L 379.226138 275.456177 
L 379.4582 275.859764 
L 379.922324 275.484508 
L 380.154386 275.529079 
L 380.618509 275.18268 
L 380.850571 275.561562 
L 381.082633 275.421943 
L 382.242942 275.47631 
L 382.707066 275.700104 
L 382.939128 275.640355 
L 383.17119 275.380756 
L 383.867375 275.395835 
L 384.099437 274.589872 
L 384.331499 275.402459 
L 384.563561 275.35018 
L 384.795623 274.525996 
L 385.259747 275.419346 
L 385.72387 275.481846 
L 385.955932 275.033462 
L 386.187994 275.542794 
L 387.348303 275.5541 
L 388.276551 275.574305 
L 388.508613 275.248815 
L 388.740675 275.700673 
L 388.972736 275.508601 
L 389.204798 275.656241 
L 389.43686 275.655691 
L 389.668922 275.833632 
L 389.900984 275.744208 
L 390.133046 275.780369 
L 390.365108 275.630402 
L 390.597169 273.764758 
L 390.829231 275.442039 
L 391.061293 275.860247 
L 391.293355 275.564936 
L 391.525417 275.729364 
L 391.757479 275.556436 
L 391.989541 275.551521 
L 392.221602 275.330548 
L 392.453664 275.475104 
L 392.917788 275.261528 
L 393.381912 275.464888 
L 393.846035 275.337425 
L 394.078097 275.761718 
L 394.542221 275.453802 
L 395.470469 275.526197 
L 395.934592 275.566155 
L 396.166654 275.00965 
L 396.630778 275.348787 
L 397.559025 275.567944 
L 398.023149 275.292156 
L 398.487273 275.44657 
L 398.487273 275.44657 
" style="fill:none;stroke:#ff7f0e;stroke-linecap:square;stroke-width:1.5;"/>
   </g>
   <g id="patch_3">
    <path d="M 57.6 307.584 
L 57.6 41.472 
" style="fill:none;stroke:#000000;stroke-linecap:square;stroke-linejoin:miter;stroke-width:0.8;"/>
   </g>
   <g id="patch_4">
    <path d="M 414.72 307.584 
L 414.72 41.472 
" style="fill:none;stroke:#000000;stroke-linecap:square;stroke-linejoin:miter;stroke-width:0.8;"/>
   </g>
   <g id="patch_5">
    <path d="M 57.6 307.584 
L 414.72 307.584 
" style="fill:none;stroke:#000000;stroke-linecap:square;stroke-linejoin:miter;stroke-width:0.8;"/>
   </g>
   <g id="patch_6">
    <path d="M 57.6 41.472 
L 414.72 41.472 
" style="fill:none;stroke:#000000;stroke-linecap:square;stroke-linejoin:miter;stroke-width:0.8;"/>
   </g>
  </g>
 </g>
 <defs>
  <clipPath id="p8bdd52fb8a">
   <rect height="266.112" width="357.12" x="57.6" y="41.472"/>
  </clipPath>
 </defs>
</svg>
