<?xml version="1.0" encoding="utf-8" standalone="no"?>
<!DOCTYPE svg PUBLIC "-//W3C//DTD SVG 1.1//EN"
  "http://www.w3.org/Graphics/SVG/1.1/DTD/svg11.dtd">
<!-- Created with matplotlib (https://matplotlib.org/) -->
<svg height="345.6pt" version="1.1" viewBox="0 0 460.8 345.6" width="460.8pt" xmlns="http://www.w3.org/2000/svg" xmlns:xlink="http://www.w3.org/1999/xlink">
 <defs>
  <style type="text/css">
*{stroke-linecap:butt;stroke-linejoin:round;}
  </style>
 </defs>
 <g id="figure_1">
  <g id="patch_1">
   <path d="M 0 345.6 
L 460.8 345.6 
L 460.8 0 
L 0 0 
z
" style="fill:#ffffff;"/>
  </g>
  <g id="axes_1">
   <g id="patch_2">
    <path d="M 57.6 307.584 
L 414.72 307.584 
L 414.72 41.472 
L 57.6 41.472 
z
" style="fill:#ffffff;"/>
   </g>
   <g id="matplotlib.axis_1">
    <g id="xtick_1">
     <g id="line2d_1">
      <defs>
       <path d="M 0 0 
L 0 3.5 
" id="m575e48e679" style="stroke:#000000;stroke-width:0.8;"/>
      </defs>
      <g>
       <use style="stroke:#000000;stroke-width:0.8;" x="73.832727" xlink:href="#m575e48e679" y="307.584"/>
      </g>
     </g>
     <g id="text_1">
      <!-- 0 -->
      <defs>
       <path d="M 31.78125 66.40625 
Q 24.171875 66.40625 20.328125 58.90625 
Q 16.5 51.421875 16.5 36.375 
Q 16.5 21.390625 20.328125 13.890625 
Q 24.171875 6.390625 31.78125 6.390625 
Q 39.453125 6.390625 43.28125 13.890625 
Q 47.125 21.390625 47.125 36.375 
Q 47.125 51.421875 43.28125 58.90625 
Q 39.453125 66.40625 31.78125 66.40625 
z
M 31.78125 74.21875 
Q 44.046875 74.21875 50.515625 64.515625 
Q 56.984375 54.828125 56.984375 36.375 
Q 56.984375 17.96875 50.515625 8.265625 
Q 44.046875 -1.421875 31.78125 -1.421875 
Q 19.53125 -1.421875 13.0625 8.265625 
Q 6.59375 17.96875 6.59375 36.375 
Q 6.59375 54.828125 13.0625 64.515625 
Q 19.53125 74.21875 31.78125 74.21875 
z
" id="DejaVuSans-48"/>
      </defs>
      <g transform="translate(70.651477 322.182437)scale(0.1 -0.1)">
       <use xlink:href="#DejaVuSans-48"/>
      </g>
     </g>
    </g>
    <g id="xtick_2">
     <g id="line2d_2">
      <g>
       <use style="stroke:#000000;stroke-width:0.8;" x="120.2451" xlink:href="#m575e48e679" y="307.584"/>
      </g>
     </g>
     <g id="text_2">
      <!-- 200 -->
      <defs>
       <path d="M 19.1875 8.296875 
L 53.609375 8.296875 
L 53.609375 0 
L 7.328125 0 
L 7.328125 8.296875 
Q 12.9375 14.109375 22.625 23.890625 
Q 32.328125 33.6875 34.8125 36.53125 
Q 39.546875 41.84375 41.421875 45.53125 
Q 43.3125 49.21875 43.3125 52.78125 
Q 43.3125 58.59375 39.234375 62.25 
Q 35.15625 65.921875 28.609375 65.921875 
Q 23.96875 65.921875 18.8125 64.3125 
Q 13.671875 62.703125 7.8125 59.421875 
L 7.8125 69.390625 
Q 13.765625 71.78125 18.9375 73 
Q 24.125 74.21875 28.421875 74.21875 
Q 39.75 74.21875 46.484375 68.546875 
Q 53.21875 62.890625 53.21875 53.421875 
Q 53.21875 48.921875 51.53125 44.890625 
Q 49.859375 40.875 45.40625 35.40625 
Q 44.1875 33.984375 37.640625 27.21875 
Q 31.109375 20.453125 19.1875 8.296875 
z
" id="DejaVuSans-50"/>
      </defs>
      <g transform="translate(110.70135 322.182437)scale(0.1 -0.1)">
       <use xlink:href="#DejaVuSans-50"/>
       <use x="63.623047" xlink:href="#DejaVuSans-48"/>
       <use x="127.246094" xlink:href="#DejaVuSans-48"/>
      </g>
     </g>
    </g>
    <g id="xtick_3">
     <g id="line2d_3">
      <g>
       <use style="stroke:#000000;stroke-width:0.8;" x="166.657472" xlink:href="#m575e48e679" y="307.584"/>
      </g>
     </g>
     <g id="text_3">
      <!-- 400 -->
      <defs>
       <path d="M 37.796875 64.3125 
L 12.890625 25.390625 
L 37.796875 25.390625 
z
M 35.203125 72.90625 
L 47.609375 72.90625 
L 47.609375 25.390625 
L 58.015625 25.390625 
L 58.015625 17.1875 
L 47.609375 17.1875 
L 47.609375 0 
L 37.796875 0 
L 37.796875 17.1875 
L 4.890625 17.1875 
L 4.890625 26.703125 
z
" id="DejaVuSans-52"/>
      </defs>
      <g transform="translate(157.113722 322.182437)scale(0.1 -0.1)">
       <use xlink:href="#DejaVuSans-52"/>
       <use x="63.623047" xlink:href="#DejaVuSans-48"/>
       <use x="127.246094" xlink:href="#DejaVuSans-48"/>
      </g>
     </g>
    </g>
    <g id="xtick_4">
     <g id="line2d_4">
      <g>
       <use style="stroke:#000000;stroke-width:0.8;" x="213.069845" xlink:href="#m575e48e679" y="307.584"/>
      </g>
     </g>
     <g id="text_4">
      <!-- 600 -->
      <defs>
       <path d="M 33.015625 40.375 
Q 26.375 40.375 22.484375 35.828125 
Q 18.609375 31.296875 18.609375 23.390625 
Q 18.609375 15.53125 22.484375 10.953125 
Q 26.375 6.390625 33.015625 6.390625 
Q 39.65625 6.390625 43.53125 10.953125 
Q 47.40625 15.53125 47.40625 23.390625 
Q 47.40625 31.296875 43.53125 35.828125 
Q 39.65625 40.375 33.015625 40.375 
z
M 52.59375 71.296875 
L 52.59375 62.3125 
Q 48.875 64.0625 45.09375 64.984375 
Q 41.3125 65.921875 37.59375 65.921875 
Q 27.828125 65.921875 22.671875 59.328125 
Q 17.53125 52.734375 16.796875 39.40625 
Q 19.671875 43.65625 24.015625 45.921875 
Q 28.375 48.1875 33.59375 48.1875 
Q 44.578125 48.1875 50.953125 41.515625 
Q 57.328125 34.859375 57.328125 23.390625 
Q 57.328125 12.15625 50.6875 5.359375 
Q 44.046875 -1.421875 33.015625 -1.421875 
Q 20.359375 -1.421875 13.671875 8.265625 
Q 6.984375 17.96875 6.984375 36.375 
Q 6.984375 53.65625 15.1875 63.9375 
Q 23.390625 74.21875 37.203125 74.21875 
Q 40.921875 74.21875 44.703125 73.484375 
Q 48.484375 72.75 52.59375 71.296875 
z
" id="DejaVuSans-54"/>
      </defs>
      <g transform="translate(203.526095 322.182437)scale(0.1 -0.1)">
       <use xlink:href="#DejaVuSans-54"/>
       <use x="63.623047" xlink:href="#DejaVuSans-48"/>
       <use x="127.246094" xlink:href="#DejaVuSans-48"/>
      </g>
     </g>
    </g>
    <g id="xtick_5">
     <g id="line2d_5">
      <g>
       <use style="stroke:#000000;stroke-width:0.8;" x="259.482217" xlink:href="#m575e48e679" y="307.584"/>
      </g>
     </g>
     <g id="text_5">
      <!-- 800 -->
      <defs>
       <path d="M 31.78125 34.625 
Q 24.75 34.625 20.71875 30.859375 
Q 16.703125 27.09375 16.703125 20.515625 
Q 16.703125 13.921875 20.71875 10.15625 
Q 24.75 6.390625 31.78125 6.390625 
Q 38.8125 6.390625 42.859375 10.171875 
Q 46.921875 13.96875 46.921875 20.515625 
Q 46.921875 27.09375 42.890625 30.859375 
Q 38.875 34.625 31.78125 34.625 
z
M 21.921875 38.8125 
Q 15.578125 40.375 12.03125 44.71875 
Q 8.5 49.078125 8.5 55.328125 
Q 8.5 64.0625 14.71875 69.140625 
Q 20.953125 74.21875 31.78125 74.21875 
Q 42.671875 74.21875 48.875 69.140625 
Q 55.078125 64.0625 55.078125 55.328125 
Q 55.078125 49.078125 51.53125 44.71875 
Q 48 40.375 41.703125 38.8125 
Q 48.828125 37.15625 52.796875 32.3125 
Q 56.78125 27.484375 56.78125 20.515625 
Q 56.78125 9.90625 50.3125 4.234375 
Q 43.84375 -1.421875 31.78125 -1.421875 
Q 19.734375 -1.421875 13.25 4.234375 
Q 6.78125 9.90625 6.78125 20.515625 
Q 6.78125 27.484375 10.78125 32.3125 
Q 14.796875 37.15625 21.921875 38.8125 
z
M 18.3125 54.390625 
Q 18.3125 48.734375 21.84375 45.5625 
Q 25.390625 42.390625 31.78125 42.390625 
Q 38.140625 42.390625 41.71875 45.5625 
Q 45.3125 48.734375 45.3125 54.390625 
Q 45.3125 60.0625 41.71875 63.234375 
Q 38.140625 66.40625 31.78125 66.40625 
Q 25.390625 66.40625 21.84375 63.234375 
Q 18.3125 60.0625 18.3125 54.390625 
z
" id="DejaVuSans-56"/>
      </defs>
      <g transform="translate(249.938467 322.182437)scale(0.1 -0.1)">
       <use xlink:href="#DejaVuSans-56"/>
       <use x="63.623047" xlink:href="#DejaVuSans-48"/>
       <use x="127.246094" xlink:href="#DejaVuSans-48"/>
      </g>
     </g>
    </g>
    <g id="xtick_6">
     <g id="line2d_6">
      <g>
       <use style="stroke:#000000;stroke-width:0.8;" x="305.89459" xlink:href="#m575e48e679" y="307.584"/>
      </g>
     </g>
     <g id="text_6">
      <!-- 1000 -->
      <defs>
       <path d="M 12.40625 8.296875 
L 28.515625 8.296875 
L 28.515625 63.921875 
L 10.984375 60.40625 
L 10.984375 69.390625 
L 28.421875 72.90625 
L 38.28125 72.90625 
L 38.28125 8.296875 
L 54.390625 8.296875 
L 54.390625 0 
L 12.40625 0 
z
" id="DejaVuSans-49"/>
      </defs>
      <g transform="translate(293.16959 322.182437)scale(0.1 -0.1)">
       <use xlink:href="#DejaVuSans-49"/>
       <use x="63.623047" xlink:href="#DejaVuSans-48"/>
       <use x="127.246094" xlink:href="#DejaVuSans-48"/>
       <use x="190.869141" xlink:href="#DejaVuSans-48"/>
      </g>
     </g>
    </g>
    <g id="xtick_7">
     <g id="line2d_7">
      <g>
       <use style="stroke:#000000;stroke-width:0.8;" x="352.306962" xlink:href="#m575e48e679" y="307.584"/>
      </g>
     </g>
     <g id="text_7">
      <!-- 1200 -->
      <g transform="translate(339.581962 322.182437)scale(0.1 -0.1)">
       <use xlink:href="#DejaVuSans-49"/>
       <use x="63.623047" xlink:href="#DejaVuSans-50"/>
       <use x="127.246094" xlink:href="#DejaVuSans-48"/>
       <use x="190.869141" xlink:href="#DejaVuSans-48"/>
      </g>
     </g>
    </g>
    <g id="xtick_8">
     <g id="line2d_8">
      <g>
       <use style="stroke:#000000;stroke-width:0.8;" x="398.719335" xlink:href="#m575e48e679" y="307.584"/>
      </g>
     </g>
     <g id="text_8">
      <!-- 1400 -->
      <g transform="translate(385.994335 322.182437)scale(0.1 -0.1)">
       <use xlink:href="#DejaVuSans-49"/>
       <use x="63.623047" xlink:href="#DejaVuSans-52"/>
       <use x="127.246094" xlink:href="#DejaVuSans-48"/>
       <use x="190.869141" xlink:href="#DejaVuSans-48"/>
      </g>
     </g>
    </g>
   </g>
   <g id="matplotlib.axis_2">
    <g id="ytick_1">
     <g id="line2d_9">
      <defs>
       <path d="M 0 0 
L -3.5 0 
" id="m7166d8c4cc" style="stroke:#000000;stroke-width:0.8;"/>
      </defs>
      <g>
       <use style="stroke:#000000;stroke-width:0.8;" x="57.6" xlink:href="#m7166d8c4cc" y="295.937021"/>
      </g>
     </g>
     <g id="text_9">
      <!-- 0.0 -->
      <defs>
       <path d="M 10.6875 12.40625 
L 21 12.40625 
L 21 0 
L 10.6875 0 
z
" id="DejaVuSans-46"/>
      </defs>
      <g transform="translate(34.696875 299.73624)scale(0.1 -0.1)">
       <use xlink:href="#DejaVuSans-48"/>
       <use x="63.623047" xlink:href="#DejaVuSans-46"/>
       <use x="95.410156" xlink:href="#DejaVuSans-48"/>
      </g>
     </g>
    </g>
    <g id="ytick_2">
     <g id="line2d_10">
      <g>
       <use style="stroke:#000000;stroke-width:0.8;" x="57.6" xlink:href="#m7166d8c4cc" y="246.845394"/>
      </g>
     </g>
     <g id="text_10">
      <!-- 0.2 -->
      <g transform="translate(34.696875 250.644613)scale(0.1 -0.1)">
       <use xlink:href="#DejaVuSans-48"/>
       <use x="63.623047" xlink:href="#DejaVuSans-46"/>
       <use x="95.410156" xlink:href="#DejaVuSans-50"/>
      </g>
     </g>
    </g>
    <g id="ytick_3">
     <g id="line2d_11">
      <g>
       <use style="stroke:#000000;stroke-width:0.8;" x="57.6" xlink:href="#m7166d8c4cc" y="197.753767"/>
      </g>
     </g>
     <g id="text_11">
      <!-- 0.4 -->
      <g transform="translate(34.696875 201.552986)scale(0.1 -0.1)">
       <use xlink:href="#DejaVuSans-48"/>
       <use x="63.623047" xlink:href="#DejaVuSans-46"/>
       <use x="95.410156" xlink:href="#DejaVuSans-52"/>
      </g>
     </g>
    </g>
    <g id="ytick_4">
     <g id="line2d_12">
      <g>
       <use style="stroke:#000000;stroke-width:0.8;" x="57.6" xlink:href="#m7166d8c4cc" y="148.662141"/>
      </g>
     </g>
     <g id="text_12">
      <!-- 0.6 -->
      <g transform="translate(34.696875 152.461359)scale(0.1 -0.1)">
       <use xlink:href="#DejaVuSans-48"/>
       <use x="63.623047" xlink:href="#DejaVuSans-46"/>
       <use x="95.410156" xlink:href="#DejaVuSans-54"/>
      </g>
     </g>
    </g>
    <g id="ytick_5">
     <g id="line2d_13">
      <g>
       <use style="stroke:#000000;stroke-width:0.8;" x="57.6" xlink:href="#m7166d8c4cc" y="99.570514"/>
      </g>
     </g>
     <g id="text_13">
      <!-- 0.8 -->
      <g transform="translate(34.696875 103.369733)scale(0.1 -0.1)">
       <use xlink:href="#DejaVuSans-48"/>
       <use x="63.623047" xlink:href="#DejaVuSans-46"/>
       <use x="95.410156" xlink:href="#DejaVuSans-56"/>
      </g>
     </g>
    </g>
    <g id="ytick_6">
     <g id="line2d_14">
      <g>
       <use style="stroke:#000000;stroke-width:0.8;" x="57.6" xlink:href="#m7166d8c4cc" y="50.478887"/>
      </g>
     </g>
     <g id="text_14">
      <!-- 1.0 -->
      <g transform="translate(34.696875 54.278106)scale(0.1 -0.1)">
       <use xlink:href="#DejaVuSans-49"/>
       <use x="63.623047" xlink:href="#DejaVuSans-46"/>
       <use x="95.410156" xlink:href="#DejaVuSans-48"/>
      </g>
     </g>
    </g>
   </g>
   <g id="line2d_15">
    <path clip-path="url(#p5a13561054)" d="M 73.832727 61.639902 
L 74.296851 82.036592 
L 74.528913 85.427211 
L 74.760975 86.480259 
L 74.993037 86.380318 
L 75.225098 86.658295 
L 75.45716 87.152707 
L 75.689222 86.384507 
L 75.921284 87.336886 
L 76.153346 87.745143 
L 76.385408 87.501294 
L 76.849531 87.636805 
L 77.081593 87.52731 
L 77.545717 86.849631 
L 78.009841 85.946586 
L 78.241903 86.283135 
L 78.473965 85.701472 
L 78.938088 85.318141 
L 79.17015 85.571472 
L 79.402212 84.819116 
L 79.634274 85.017484 
L 80.098398 83.742476 
L 80.330459 83.696155 
L 80.562521 83.216492 
L 80.794583 81.645577 
L 81.026645 81.05667 
L 82.186954 72.190458 
L 83.347264 66.11082 
L 83.579325 65.473106 
L 83.811387 65.501691 
L 84.043449 65.243124 
L 84.275511 65.434303 
L 84.507573 65.858126 
L 84.971697 67.652792 
L 85.667882 71.861442 
L 86.364068 76.943988 
L 86.828192 80.03078 
L 87.060253 79.518436 
L 87.292315 82.421278 
L 87.524377 83.575286 
L 87.988501 87.455807 
L 88.684686 90.898848 
L 88.916748 90.957701 
L 89.14881 91.201541 
L 89.380872 90.305567 
L 89.612934 88.917032 
L 89.844996 88.443196 
L 90.077058 88.581643 
L 90.30912 88.420064 
L 90.773243 86.71452 
L 91.005305 86.220744 
L 91.237367 84.820887 
L 92.8618 79.601584 
L 93.093862 78.384531 
L 93.325924 78.300891 
L 93.790047 77.18888 
L 94.254171 76.941214 
L 94.486233 76.885234 
L 94.950357 77.048821 
L 97.735099 81.153867 
L 97.967161 81.064822 
L 98.199223 81.487735 
L 98.431285 81.411926 
L 98.895408 82.186644 
L 99.359532 81.325096 
L 99.823656 80.964369 
L 100.28778 80.909563 
L 100.519841 80.788368 
L 100.983965 79.968842 
L 101.216027 80.757674 
L 101.448089 80.627341 
L 101.680151 78.525866 
L 101.912213 78.614813 
L 102.376336 78.966797 
L 102.84046 79.058813 
L 103.072522 78.772443 
L 103.768708 80.086067 
L 104.232831 80.458238 
L 104.464893 80.435563 
L 104.696955 80.731206 
L 104.929017 80.802379 
L 105.393141 82.147181 
L 105.625202 81.887411 
L 105.857264 82.146934 
L 106.321388 81.658328 
L 106.55345 82.369178 
L 107.249635 82.134772 
L 107.713759 81.933317 
L 107.945821 81.774747 
L 108.177883 81.297601 
L 108.409945 81.9612 
L 108.642007 81.852372 
L 108.874068 81.370927 
L 109.10613 81.221021 
L 109.338192 80.6568 
L 109.802316 78.999395 
L 110.034378 78.976684 
L 110.498502 78.569372 
L 110.730563 78.3874 
L 111.426749 77.21142 
L 111.890873 76.812885 
L 112.354996 76.693239 
L 113.051182 76.736573 
L 113.283244 76.686326 
L 113.747368 77.467223 
L 113.979429 77.168014 
L 114.443553 78.319563 
L 114.675615 78.055947 
L 114.907677 78.678428 
L 115.139739 78.824903 
L 115.371801 79.436206 
L 115.603862 79.312203 
L 116.067986 79.774353 
L 116.764172 79.902463 
L 117.228296 79.999296 
L 117.460357 80.327051 
L 117.692419 80.264087 
L 117.924481 80.417783 
L 118.156543 80.128611 
L 118.388605 81.034831 
L 118.620667 80.198354 
L 119.316852 79.381118 
L 120.941285 77.572337 
L 121.869533 76.87556 
L 122.565718 76.598271 
L 122.79778 76.985028 
L 123.029842 76.787324 
L 123.261904 76.828992 
L 123.493966 76.587119 
L 123.726028 76.787339 
L 124.190151 76.656054 
L 124.422213 77.251273 
L 124.654275 76.981589 
L 124.886337 77.045744 
L 125.582523 78.037169 
L 125.814584 77.819889 
L 127.206956 78.709354 
L 127.671079 77.791019 
L 128.135203 77.109829 
L 128.599327 76.933092 
L 128.831389 76.444894 
L 129.063451 76.988309 
L 129.527574 77.339109 
L 129.991698 77.362577 
L 130.455822 77.185072 
L 131.384069 76.733795 
L 131.848193 76.58584 
L 132.080255 76.470282 
L 132.312317 75.564829 
L 132.544378 75.834983 
L 132.77644 75.459752 
L 133.472626 76.129587 
L 133.704688 76.075665 
L 133.93675 76.150656 
L 134.168811 75.148773 
L 134.632935 75.192525 
L 134.864997 75.452883 
L 135.097059 76.08073 
L 135.329121 76.009059 
L 135.561183 76.406535 
L 135.793245 76.495034 
L 136.025306 76.726683 
L 136.257368 76.555747 
L 136.48943 76.561005 
L 136.953554 76.960294 
L 137.649739 76.382847 
L 138.113863 76.755802 
L 138.345925 76.115107 
L 138.577987 79.948453 
L 139.042111 76.978455 
L 139.274172 76.881613 
L 139.738296 76.042359 
L 140.20242 75.504228 
L 140.434482 75.352729 
L 142.290977 75.531252 
L 142.523039 75.455144 
L 142.7551 75.978876 
L 142.987162 76.170934 
L 143.219224 75.922899 
L 143.451286 76.122702 
L 143.683348 76.15047 
L 143.91541 75.974502 
L 144.147472 76.104049 
L 144.611595 76.036978 
L 144.843657 76.014567 
L 145.075719 76.422588 
L 145.307781 76.238421 
L 145.539843 76.334187 
L 145.771905 76.189855 
L 146.003966 76.551947 
L 146.236028 76.664581 
L 146.46809 76.280363 
L 146.700152 76.31744 
L 147.396338 75.545281 
L 147.6284 75.790957 
L 148.092523 75.78758 
L 148.324585 75.473288 
L 148.556647 75.392457 
L 148.788709 75.491003 
L 149.020771 74.845525 
L 149.252833 75.038931 
L 149.484894 73.718225 
L 149.716956 74.281695 
L 150.413142 74.041847 
L 150.877266 73.558683 
L 151.109327 73.611753 
L 151.341389 73.947568 
L 151.573451 73.2328 
L 151.805513 72.147339 
L 152.037575 73.281158 
L 152.501699 73.782621 
L 152.73376 74.328824 
L 152.965822 74.008561 
L 153.197884 73.498314 
L 153.89407 74.33537 
L 154.358194 74.309076 
L 154.590255 74.578746 
L 154.822317 74.631486 
L 155.054379 75.186861 
L 155.286441 74.979374 
L 155.518503 74.03368 
L 155.982627 74.742279 
L 156.44675 74.979874 
L 156.910874 74.942953 
L 157.142936 75.391185 
L 157.374998 75.276887 
L 157.60706 74.986627 
L 157.839121 74.938865 
L 158.071183 74.70298 
L 158.303245 74.973194 
L 158.535307 74.523857 
L 158.767369 74.816888 
L 158.999431 73.667263 
L 159.231493 74.175997 
L 159.695616 74.424295 
L 159.927678 74.475369 
L 160.15974 74.111579 
L 160.855926 73.698416 
L 161.320049 73.895319 
L 161.552111 73.481135 
L 161.784173 73.667125 
L 162.016235 73.592026 
L 162.248297 73.751584 
L 162.944482 72.703289 
L 163.408606 72.925964 
L 163.640668 72.585275 
L 163.87273 71.228487 
L 164.104792 71.845744 
L 164.336854 71.609906 
L 165.033039 72.431421 
L 165.265101 71.882766 
L 165.497163 72.526691 
L 165.729225 72.622238 
L 166.193348 73.205177 
L 166.657472 73.648054 
L 167.121596 73.818853 
L 167.58572 73.928228 
L 167.817782 73.735517 
L 168.049843 73.310252 
L 168.281905 73.532383 
L 168.513967 73.391885 
L 168.746029 72.946792 
L 168.978091 73.091195 
L 169.210153 73.072456 
L 169.442215 73.304479 
L 169.906338 73.125647 
L 170.370462 72.916363 
L 170.602524 73.248576 
L 170.834586 73.291335 
L 171.066648 73.125748 
L 171.298709 73.542848 
L 171.530771 72.592585 
L 171.762833 72.446588 
L 171.994895 72.459298 
L 172.459019 71.80378 
L 172.691081 72.074935 
L 172.923143 71.484135 
L 173.155204 72.14052 
L 174.083452 72.779854 
L 174.315514 72.672183 
L 174.547576 72.782723 
L 174.779637 72.143159 
L 175.011699 71.938845 
L 175.243761 72.517592 
L 175.707885 71.800468 
L 175.939947 71.842536 
L 176.172009 71.680233 
L 176.40407 71.370952 
L 176.636132 71.573626 
L 176.868194 72.252435 
L 177.100256 72.350946 
L 177.332318 72.323947 
L 177.796442 71.765982 
L 178.028503 71.823451 
L 178.492627 71.372791 
L 178.724689 72.028002 
L 178.956751 71.519113 
L 179.188813 71.608501 
L 179.420875 70.58347 
L 179.652937 71.465935 
L 179.884998 70.939927 
L 180.11706 71.192222 
L 180.813246 71.272137 
L 181.045308 71.229499 
L 181.27737 71.393315 
L 181.509431 71.212698 
L 181.973555 71.559127 
L 182.437679 72.022064 
L 182.669741 71.648494 
L 183.83005 71.887828 
L 184.062112 71.740184 
L 184.294174 71.967901 
L 184.526236 71.827087 
L 184.758297 71.827347 
L 184.990359 72.004953 
L 185.222421 71.76341 
L 185.454483 72.089403 
L 185.918607 71.704713 
L 186.150669 71.570686 
L 186.382731 71.230878 
L 186.614792 71.628564 
L 187.310978 71.276471 
L 187.54304 72.343752 
L 187.775102 71.839578 
L 188.239225 71.436303 
L 188.703349 71.262806 
L 188.935411 70.902226 
L 189.167473 71.652923 
L 189.399535 71.985899 
L 189.863658 70.762099 
L 190.327782 70.437725 
L 191.023968 70.291773 
L 191.25603 70.531361 
L 191.488091 70.278162 
L 191.720153 70.693215 
L 192.184277 69.895786 
L 192.416339 70.171831 
L 192.648401 70.18129 
L 193.112525 70.666834 
L 193.344586 70.816831 
L 193.80871 70.874628 
L 194.040772 70.596558 
L 194.736958 70.970847 
L 194.969019 70.817026 
L 195.201081 70.919581 
L 195.433143 71.359886 
L 195.665205 71.106268 
L 195.897267 71.77257 
L 196.361391 70.934376 
L 197.5217 71.169424 
L 197.753762 71.025608 
L 197.985824 71.12124 
L 198.217886 70.947693 
L 198.449947 70.609242 
L 198.914071 70.615025 
L 199.146133 70.970839 
L 200.07438 70.361028 
L 200.306442 69.97703 
L 201.002628 69.745326 
L 201.466752 70.122996 
L 201.930875 69.711519 
L 202.162937 69.820797 
L 202.627061 69.710324 
L 202.859123 70.044331 
L 203.091185 69.808936 
L 203.323246 70.252393 
L 203.555308 69.618555 
L 203.78737 69.719443 
L 204.019432 68.954454 
L 204.251494 68.74943 
L 204.483556 68.926018 
L 204.715618 69.388003 
L 207.036236 69.92662 
L 207.268298 69.619894 
L 207.50036 70.176958 
L 207.732422 69.77681 
L 208.428607 69.815187 
L 208.660669 69.618308 
L 208.892731 70.172999 
L 209.124793 69.722907 
L 209.356855 69.827634 
L 209.588917 69.380186 
L 210.05304 69.334563 
L 210.285102 69.596602 
L 210.517164 69.30216 
L 211.909535 68.658134 
L 212.141597 68.883085 
L 212.373659 68.740046 
L 213.069845 69.091401 
L 213.301907 69.097499 
L 213.533968 68.885567 
L 213.76603 68.979127 
L 213.998092 68.723962 
L 214.694278 68.645769 
L 214.92634 69.363663 
L 215.158401 69.268272 
L 215.390463 68.870187 
L 215.622525 69.000687 
L 216.086649 68.617395 
L 216.318711 68.61612 
L 216.782834 68.129214 
L 217.014896 68.278931 
L 217.246958 68.032722 
L 218.407268 67.695062 
L 218.639329 67.493202 
L 219.103453 67.723555 
L 219.567577 67.470855 
L 220.031701 67.954945 
L 220.263762 67.755684 
L 220.495824 67.929632 
L 220.727886 67.697876 
L 220.959948 67.770893 
L 221.424072 68.258049 
L 221.656134 68.000959 
L 222.584381 69.094212 
L 222.816443 69.069451 
L 223.048505 68.841957 
L 223.280567 68.882535 
L 223.512629 69.133481 
L 223.976752 68.823559 
L 224.208814 68.847533 
L 224.440876 68.655163 
L 224.672938 68.740211 
L 224.905 68.528874 
L 225.137062 68.502073 
L 225.369123 68.651723 
L 226.065309 68.645702 
L 226.993556 68.154873 
L 227.921804 67.115518 
L 228.153866 67.044503 
L 228.385928 66.714426 
L 228.617989 66.604797 
L 228.850051 66.689549 
L 229.082113 66.442084 
L 229.314175 66.401573 
L 229.546237 66.751426 
L 230.242423 66.605827 
L 230.474484 66.859234 
L 230.938608 66.71802 
L 231.17067 66.400854 
L 231.402732 66.664227 
L 231.634794 66.433458 
L 231.866856 67.034547 
L 232.098917 66.967891 
L 232.795103 67.206612 
L 233.027165 67.60708 
L 233.259227 67.496546 
L 233.72335 67.640964 
L 233.955412 67.877402 
L 234.187474 67.46641 
L 234.88366 68.108452 
L 235.115722 68.208535 
L 235.347783 67.97276 
L 235.579845 68.040368 
L 235.811907 67.922802 
L 236.276031 68.255032 
L 236.740155 67.859471 
L 236.972217 67.903677 
L 237.668402 66.597248 
L 238.59665 66.36907 
L 238.828711 65.949771 
L 239.060773 65.921787 
L 239.524897 66.481665 
L 239.756959 65.979636 
L 239.989021 65.829015 
L 240.221083 65.918055 
L 240.685206 65.752495 
L 240.917268 65.72932 
L 241.14933 65.550692 
L 241.381392 65.803489 
L 241.613454 63.529215 
L 241.845516 64.331241 
L 242.077577 64.448617 
L 242.773763 65.554282 
L 243.005825 65.541648 
L 243.237887 65.79322 
L 243.469949 65.648619 
L 243.702011 66.045776 
L 243.934072 65.927425 
L 244.166134 66.111097 
L 244.398196 66.111599 
L 244.630258 66.271828 
L 244.86232 66.114307 
L 245.094382 66.231962 
L 245.558505 66.720317 
L 245.790567 66.277292 
L 246.022629 66.539097 
L 246.254691 66.45602 
L 246.486753 66.143767 
L 247.182938 65.909107 
L 247.415 65.849354 
L 247.879124 66.229518 
L 248.111186 66.102477 
L 248.343248 66.126527 
L 248.57531 65.843784 
L 249.039433 65.768772 
L 249.503557 65.934208 
L 249.735619 66.312054 
L 249.967681 65.902684 
L 250.431805 65.806006 
L 250.663866 65.907697 
L 251.360052 65.277896 
L 251.592114 65.530355 
L 251.824176 65.580511 
L 252.056238 65.434847 
L 252.288299 65.459741 
L 252.520361 65.173176 
L 252.752423 65.263756 
L 252.984485 65.202144 
L 253.216547 64.879622 
L 253.448609 65.072576 
L 253.680671 65.115927 
L 254.144794 65.032507 
L 254.608918 65.260405 
L 255.073042 65.142154 
L 255.537166 65.065067 
L 256.001289 65.503002 
L 256.233351 65.381647 
L 256.465413 65.059501 
L 256.929537 65.21018 
L 257.625722 64.965236 
L 257.857784 65.321183 
L 258.089846 65.186275 
L 258.321908 65.241357 
L 258.55397 65.036938 
L 258.786032 65.066611 
L 259.018093 64.828932 
L 259.250155 64.918862 
L 259.482217 65.455217 
L 259.714279 65.359264 
L 259.946341 65.018422 
L 260.178403 65.259472 
L 260.642526 64.857381 
L 260.874588 64.276299 
L 261.10665 64.548829 
L 261.338712 64.513217 
L 261.570774 65.111723 
L 262.26696 64.556277 
L 262.499021 64.707796 
L 262.731083 64.059148 
L 262.963145 64.397274 
L 263.427269 64.017176 
L 264.123454 63.965766 
L 264.355516 64.176156 
L 264.587578 64.174685 
L 265.051702 63.594781 
L 265.515826 63.37467 
L 265.747887 64.022528 
L 265.979949 63.658873 
L 266.444073 64.168974 
L 266.908197 64.374744 
L 267.140259 64.298179 
L 267.37232 64.88544 
L 267.604382 64.765062 
L 268.068506 64.355961 
L 268.300568 64.588261 
L 268.53263 64.577609 
L 268.996754 63.881229 
L 269.228815 63.669026 
L 269.460877 63.657456 
L 270.157063 64.11975 
L 270.389125 63.995582 
L 270.621187 64.238328 
L 270.853248 63.865773 
L 271.08531 64.141755 
L 271.549434 64.06621 
L 271.781496 63.874532 
L 272.013558 63.935516 
L 272.24562 63.824393 
L 272.709743 63.910729 
L 273.173867 63.505786 
L 273.637991 63.292758 
L 273.870053 62.954661 
L 274.334176 63.775142 
L 274.566238 63.647389 
L 274.7983 63.237679 
L 275.030362 63.28157 
L 275.262424 63.498195 
L 275.494486 63.002233 
L 275.726548 63.183517 
L 276.422733 63.09621 
L 276.654795 62.579839 
L 277.118919 63.253906 
L 277.350981 62.909613 
L 277.583042 62.887717 
L 277.815104 62.702605 
L 278.743352 63.123933 
L 279.207475 62.886423 
L 279.439537 63.409737 
L 280.135723 63.602515 
L 280.367785 64.42258 
L 280.831909 63.920842 
L 281.296032 63.81993 
L 281.528094 63.534004 
L 282.22428 63.415133 
L 282.688403 63.843747 
L 283.152527 63.082931 
L 283.848713 62.796128 
L 284.080775 62.52393 
L 284.312836 62.542188 
L 284.544898 62.319535 
L 284.77696 62.498198 
L 285.241084 62.241432 
L 285.473146 62.21312 
L 285.705208 62.306125 
L 285.937269 62.16937 
L 286.169331 62.16171 
L 286.401393 62.580817 
L 286.633455 62.286632 
L 287.329641 62.29105 
L 287.561703 62.015468 
L 287.793764 62.025257 
L 288.025826 61.706439 
L 288.257888 61.723876 
L 288.722012 62.051284 
L 288.954074 62.035581 
L 289.186136 62.378094 
L 289.418197 62.947704 
L 290.346445 61.969298 
L 290.810569 61.950248 
L 291.04263 61.998888 
L 291.274692 62.740312 
L 291.506754 62.57278 
L 291.738816 62.582372 
L 291.970878 62.712988 
L 293.131187 62.593737 
L 293.827373 62.356258 
L 294.059435 63.11161 
L 294.523558 62.330659 
L 294.75562 62.12954 
L 295.219744 61.520883 
L 295.451806 61.58862 
L 295.683868 61.488141 
L 295.91593 61.690351 
L 296.147991 61.375262 
L 296.612115 61.247635 
L 296.844177 61.392676 
L 297.076239 61.177613 
L 297.308301 61.368428 
L 297.540363 61.163342 
L 297.772424 61.193978 
L 298.004486 60.258681 
L 298.236548 60.843744 
L 298.700672 60.088103 
L 298.932734 60.295661 
L 299.164796 59.938229 
L 299.396857 61.325094 
L 299.628919 61.196503 
L 299.860981 61.316552 
L 300.325105 61.889972 
L 300.557167 61.731666 
L 301.021291 61.209461 
L 301.717476 60.829846 
L 301.949538 59.952661 
L 302.1816 60.912465 
L 302.877785 61.292112 
L 303.109847 60.107228 
L 303.341909 60.655598 
L 303.573971 60.85661 
L 303.806033 60.536831 
L 304.038095 60.424153 
L 304.270157 61.155783 
L 304.502218 60.741982 
L 304.73428 60.556632 
L 305.198404 61.923995 
L 305.430466 62.51651 
L 305.662528 61.948356 
L 305.89459 61.704293 
L 306.126652 61.053094 
L 306.358713 61.206558 
L 306.822837 61.17491 
L 307.286961 60.366143 
L 307.519023 59.819569 
L 307.751085 60.57097 
L 309.143456 60.549243 
L 309.607579 60.681441 
L 309.839641 60.669868 
L 310.071703 60.299903 
L 310.535827 60.204194 
L 310.999951 60.273389 
L 311.696136 60.310834 
L 311.928198 60.296294 
L 312.16026 60.61524 
L 312.392322 60.426885 
L 312.624384 60.522536 
L 312.856446 59.102523 
L 313.088507 59.349859 
L 313.320569 59.934906 
L 313.784693 60.412085 
L 314.016755 60.760919 
L 314.248817 60.77313 
L 314.480879 60.99655 
L 314.71294 60.434016 
L 315.409126 60.655958 
L 315.87325 60.58935 
L 316.105312 60.614346 
L 316.801497 60.270799 
L 317.729745 59.954562 
L 317.961806 59.800649 
L 319.122116 59.591155 
L 320.050363 59.515827 
L 320.514487 59.436 
L 321.210673 59.338925 
L 323.299229 59.46364 
L 324.6916 59.49684 
L 324.923662 58.94897 
L 325.155724 59.119707 
L 325.619848 59.766833 
L 325.85191 59.761142 
L 326.083972 59.914586 
L 326.548095 59.55403 
L 327.708405 59.239226 
L 327.940467 59.274091 
L 328.636652 59.090794 
L 329.332838 58.971497 
L 329.5649 58.813569 
L 329.796961 58.334782 
L 330.029023 58.504624 
L 330.261085 58.222109 
L 330.493147 58.376114 
L 330.725209 58.22037 
L 330.957271 58.221984 
L 331.653456 56.1284 
L 331.885518 56.588128 
L 332.11758 58.051531 
L 332.581704 57.007658 
L 332.813766 57.934008 
L 333.045828 58.22393 
L 333.277889 59.190861 
L 333.742013 59.932388 
L 333.974075 59.465275 
L 334.206137 59.46178 
L 334.438199 59.106808 
L 334.902322 59.038722 
L 336.062632 58.851041 
L 336.526755 58.495955 
L 336.758817 58.471748 
L 337.222941 58.213785 
L 338.38325 57.819642 
L 339.079436 57.699096 
L 339.54356 57.968052 
L 340.239745 57.802829 
L 340.471807 57.814472 
L 340.703869 58.227394 
L 340.935931 57.882245 
L 341.167993 58.179957 
L 341.400055 57.990277 
L 341.632116 58.181223 
L 341.864178 58.021588 
L 342.09624 58.112688 
L 342.328302 58.515238 
L 342.792426 58.0221 
L 343.256549 57.879479 
L 343.488611 58.020091 
L 343.720673 57.90924 
L 344.184797 58.266914 
L 344.648921 57.978612 
L 344.880983 58.104971 
L 345.345106 57.83841 
L 345.577168 58.151811 
L 345.80923 58.166839 
L 346.041292 57.776712 
L 347.201601 57.865215 
L 347.433663 58.063801 
L 348.129849 57.150458 
L 348.36191 57.601439 
L 348.826034 56.84007 
L 349.058096 56.99057 
L 349.52222 56.781264 
L 349.754282 56.907147 
L 350.218405 56.589726 
L 350.450467 56.956765 
L 350.682529 56.717573 
L 350.914591 57.468523 
L 351.146653 56.91701 
L 351.842838 57.043062 
L 352.306962 56.919815 
L 352.771086 56.044263 
L 353.467271 56.75087 
L 353.699333 56.936064 
L 354.395519 56.691351 
L 354.859643 56.888151 
L 355.091704 57.191364 
L 355.323766 56.808717 
L 355.555828 56.82247 
L 356.019952 56.676718 
L 356.252014 56.873397 
L 356.948199 57.019104 
L 357.180261 56.265755 
L 357.412323 56.683616 
L 357.644385 57.383551 
L 357.876447 56.833928 
L 358.804694 56.913066 
L 359.036756 57.043722 
L 359.50088 56.997739 
L 360.197065 56.902888 
L 361.821498 56.413907 
L 362.285622 56.22458 
L 362.517684 55.908311 
L 362.981808 55.898756 
L 363.21387 56.072224 
L 363.445932 55.71274 
L 363.910055 55.885571 
L 364.374179 55.975322 
L 364.838303 55.991182 
L 365.070365 56.163494 
L 366.230674 56.274464 
L 366.462736 56.45069 
L 366.694798 56.39708 
L 366.926859 56.811338 
L 367.390983 56.897808 
L 367.623045 57.27932 
L 368.087169 57.465107 
L 368.319231 57.468356 
L 368.551292 56.725085 
L 368.783354 56.749646 
L 369.015416 56.951793 
L 369.711602 56.237799 
L 369.943664 56.362814 
L 370.175726 56.255468 
L 370.871911 55.486291 
L 372.03222 55.601165 
L 372.264282 55.888994 
L 372.728406 55.677179 
L 372.960468 55.746245 
L 373.19253 55.682854 
L 373.888715 55.742563 
L 374.352839 55.701388 
L 375.049025 55.574914 
L 375.281086 55.971337 
L 375.74521 55.517961 
L 375.977272 55.355813 
L 376.209334 55.432581 
L 376.441396 55.322603 
L 376.673458 55.430203 
L 376.90552 55.272196 
L 377.137581 55.463497 
L 378.065829 55.306585 
L 378.297891 54.981851 
L 378.762014 55.123478 
L 378.994076 54.931292 
L 379.4582 55.003413 
L 379.690262 54.90829 
L 379.922324 55.337212 
L 380.154386 55.236724 
L 380.386447 55.295939 
L 381.082633 55.005898 
L 381.314695 55.266544 
L 382.01088 55.285819 
L 382.242942 55.25054 
L 382.475004 55.096881 
L 382.707066 55.653253 
L 383.17119 55.125552 
L 384.331499 54.673668 
L 384.563561 54.636619 
L 384.795623 54.829503 
L 385.259747 54.142184 
L 385.72387 54.572537 
L 385.955932 54.310592 
L 386.187994 54.730604 
L 386.420056 54.544562 
L 386.88418 54.497138 
L 387.116241 55.314438 
L 387.348303 54.833389 
L 388.044489 54.475871 
L 388.276551 54.564535 
L 388.508613 54.441058 
L 389.43686 54.524409 
L 390.133046 54.519909 
L 390.365108 54.595156 
L 390.597169 54.48038 
L 391.061293 54.424417 
L 391.293355 54.6685 
L 391.757479 54.207949 
L 392.221602 54.502244 
L 392.453664 54.448997 
L 392.685726 54.238931 
L 393.14985 54.268795 
L 393.381912 53.97676 
L 394.542221 54.430073 
L 394.774283 54.419958 
L 395.238407 53.790828 
L 395.470469 53.638736 
L 395.934592 53.805419 
L 396.166654 53.751402 
L 396.398716 54.025353 
L 396.86284 53.930047 
L 397.791087 54.150692 
L 398.023149 53.939189 
L 398.255211 53.568 
L 398.487273 53.759263 
L 398.487273 53.759263 
" style="fill:none;stroke:#1f77b4;stroke-linecap:square;stroke-width:1.5;"/>
   </g>
   <g id="line2d_16">
    <path clip-path="url(#p5a13561054)" d="M 73.832727 278.166239 
L 74.064789 280.199555 
L 74.296851 285.814596 
L 74.760975 279.723984 
L 75.225098 276.038709 
L 75.45716 276.131958 
L 75.921284 278.371318 
L 76.153346 281.053728 
L 76.385408 288.53516 
L 76.61747 289.100514 
L 76.849531 289.124485 
L 77.081593 289.56326 
L 77.313655 289.272903 
L 78.009841 290.769794 
L 78.241903 291.113122 
L 78.938088 293.322417 
L 79.402212 294.225265 
L 79.866336 283.24998 
L 80.098398 283.529249 
L 80.330459 285.055611 
L 80.562521 290.69711 
L 80.794583 292.661961 
L 81.026645 289.844241 
L 81.258707 290.175439 
L 81.722831 280.398495 
L 81.954892 279.508792 
L 82.186954 275.902393 
L 83.115202 253.495225 
L 83.811387 257.945799 
L 84.275511 265.071976 
L 84.971697 295.308126 
L 85.203759 294.994669 
L 85.43582 294.478895 
L 85.667882 292.473639 
L 85.899944 293.238283 
L 86.132006 292.094731 
L 86.364068 292.744247 
L 86.59613 292.662241 
L 86.828192 291.55898 
L 87.060253 291.960798 
L 87.292315 292.094605 
L 87.524377 291.664783 
L 87.988501 292.434797 
L 88.220563 291.451559 
L 88.452625 292.13627 
L 88.684686 291.379194 
L 88.916748 292.373574 
L 89.380872 287.719813 
L 89.612934 283.163592 
L 89.844996 286.020005 
L 90.30912 282.178509 
L 90.541181 281.898909 
L 90.773243 282.125786 
L 91.005305 283.892594 
L 91.237367 280.980048 
L 91.469429 280.809367 
L 91.701491 281.803979 
L 91.933553 283.63713 
L 92.165614 284.126969 
L 92.397676 293.298928 
L 92.629738 295.204295 
L 92.8618 295.22855 
L 93.093862 292.445814 
L 93.325924 293.785708 
L 93.557986 294.104549 
L 93.790047 294.16802 
L 94.022109 294.750353 
L 94.254171 294.923945 
L 94.486233 295.253218 
L 94.718295 294.721223 
L 95.182419 295.143459 
L 95.646542 294.445901 
L 96.110666 294.419572 
L 96.342728 293.776118 
L 96.57479 294.351529 
L 96.806852 293.981148 
L 97.503037 293.841192 
L 97.735099 292.946806 
L 97.967161 293.995015 
L 98.431285 293.722353 
L 98.663347 293.88407 
L 98.895408 294.84087 
L 99.12747 294.14987 
L 99.359532 294.635717 
L 99.823656 294.484213 
L 100.055718 293.826805 
L 100.28778 294.894546 
L 100.519841 294.970901 
L 100.751903 295.418906 
L 100.983965 291.463498 
L 101.216027 289.773623 
L 101.448089 292.060382 
L 101.680151 286.991926 
L 101.912213 289.220105 
L 102.144274 288.31332 
L 102.376336 287.925236 
L 102.84046 291.622225 
L 103.072522 290.302112 
L 103.768708 293.237109 
L 104.000769 294.852357 
L 104.232831 294.673735 
L 104.464893 294.309559 
L 105.393141 293.909873 
L 105.625202 293.419731 
L 105.857264 293.938898 
L 106.321388 293.975965 
L 107.249635 294.439395 
L 107.481697 293.326879 
L 107.713759 293.168599 
L 107.945821 293.221114 
L 108.177883 294.467711 
L 108.409945 294.768457 
L 108.642007 294.814422 
L 108.874068 295.208109 
L 109.338192 295.36932 
L 110.034378 295.369833 
L 110.26644 294.679813 
L 110.498502 295.071555 
L 111.194687 295.334323 
L 111.426749 295.488 
L 111.658811 295.358742 
L 111.890873 294.747934 
L 112.122935 295.245647 
L 112.587058 294.424122 
L 112.81912 294.971382 
L 113.051182 294.070662 
L 113.283244 294.536053 
L 113.747368 294.274279 
L 113.979429 293.360002 
L 114.211491 292.951155 
L 114.443553 293.615621 
L 114.675615 293.79002 
L 114.907677 293.524135 
L 115.139739 293.523076 
L 115.371801 292.828135 
L 115.835924 293.943157 
L 116.067986 292.902688 
L 116.300048 293.7446 
L 116.53211 293.798728 
L 116.996234 294.14842 
L 117.228296 294.278038 
L 117.460357 293.605037 
L 117.692419 294.294033 
L 117.924481 294.548901 
L 118.156543 294.589931 
L 118.388605 294.37755 
L 118.620667 295.071193 
L 118.852729 294.346289 
L 119.08479 294.622462 
L 119.316852 294.672873 
L 119.548914 295.297952 
L 119.780976 294.686003 
L 120.013038 294.852322 
L 120.2451 295.463045 
L 120.477162 295.100864 
L 120.709223 294.964201 
L 121.173347 295.252479 
L 121.405409 295.034632 
L 121.637471 295.175432 
L 122.101595 295.041704 
L 122.333657 294.735853 
L 122.79778 294.394098 
L 123.029842 294.761724 
L 123.493966 294.130652 
L 123.726028 294.037937 
L 123.95809 294.257219 
L 124.422213 294.425117 
L 124.654275 293.680015 
L 125.118399 293.894361 
L 125.350461 293.646126 
L 126.278708 294.260161 
L 126.51077 293.379873 
L 126.742832 294.232217 
L 126.974894 293.842526 
L 127.206956 293.853506 
L 127.439017 294.695562 
L 127.671079 291.333779 
L 127.903141 293.889153 
L 128.135203 293.423435 
L 128.367265 294.058665 
L 128.599327 294.210509 
L 128.831389 292.057908 
L 129.063451 294.535522 
L 129.295512 294.876008 
L 129.527574 294.921595 
L 129.759636 294.503745 
L 129.991698 295.146333 
L 130.22376 293.586374 
L 130.455822 294.715405 
L 130.687884 293.994449 
L 130.919945 293.703948 
L 131.616131 294.735508 
L 132.080255 294.285143 
L 132.77644 294.452119 
L 133.240564 294.009172 
L 133.472626 294.363243 
L 133.704688 293.274274 
L 134.168811 294.535551 
L 134.400873 294.533668 
L 134.632935 293.790385 
L 134.864997 294.214265 
L 135.097059 294.282358 
L 135.561183 294.18051 
L 135.793245 294.638922 
L 136.257368 294.58858 
L 136.48943 294.6112 
L 136.721492 294.828954 
L 137.649739 294.587571 
L 137.881801 294.886656 
L 138.113863 294.825665 
L 138.345925 294.624427 
L 138.577987 295.027024 
L 138.810049 295.050849 
L 139.042111 294.924876 
L 139.274172 294.555133 
L 139.506234 294.562551 
L 139.738296 294.741202 
L 139.970358 294.160826 
L 140.434482 295.00831 
L 140.666544 294.279835 
L 140.898605 294.708403 
L 141.130667 294.810624 
L 141.362729 294.273072 
L 142.058915 294.157388 
L 142.290977 294.385944 
L 142.523039 293.750142 
L 142.7551 293.733626 
L 142.987162 293.530968 
L 143.219224 293.727071 
L 143.451286 293.612277 
L 143.683348 294.45903 
L 143.91541 294.015558 
L 144.147472 294.280239 
L 144.379533 293.72462 
L 144.611595 294.272291 
L 144.843657 293.395376 
L 145.307781 294.292151 
L 146.003966 294.204837 
L 146.236028 293.160534 
L 146.700152 295.266196 
L 146.932214 292.608944 
L 147.164276 293.568456 
L 147.396338 293.485521 
L 147.860461 290.692184 
L 148.092523 293.961772 
L 148.324585 293.869874 
L 148.556647 294.85417 
L 148.788709 293.716621 
L 149.020771 293.818774 
L 149.252833 294.442318 
L 149.484894 294.501692 
L 149.716956 294.802291 
L 149.949018 294.349859 
L 150.413142 294.580424 
L 150.645204 294.145842 
L 150.877266 294.175217 
L 151.109327 294.4091 
L 151.573451 294.366927 
L 152.037575 293.883645 
L 152.269637 294.414837 
L 153.197884 294.106095 
L 153.429946 293.729411 
L 153.662008 294.206031 
L 154.126132 294.046751 
L 154.358194 293.152678 
L 154.822317 293.090834 
L 155.286441 293.213413 
L 155.518503 294.385549 
L 155.750565 294.587995 
L 155.982627 294.371982 
L 156.44675 294.4797 
L 156.678812 294.376428 
L 156.910874 294.102749 
L 157.142936 294.47722 
L 157.374998 294.397208 
L 157.60706 294.660699 
L 157.839121 294.195204 
L 158.071183 294.290566 
L 158.303245 294.60385 
L 158.535307 294.347297 
L 158.999431 293.172408 
L 159.231493 294.092111 
L 159.463554 293.484791 
L 159.695616 294.192895 
L 159.927678 294.389109 
L 160.391802 294.169825 
L 160.623864 293.477953 
L 161.087988 293.850872 
L 161.320049 293.875178 
L 161.552111 293.72123 
L 161.784173 293.754274 
L 162.016235 293.598802 
L 162.480359 293.730123 
L 162.712421 293.620436 
L 162.944482 294.077118 
L 163.176544 294.127558 
L 163.408606 293.9616 
L 163.87273 293.979528 
L 164.336854 293.783913 
L 164.800977 294.470033 
L 165.033039 294.350171 
L 165.265101 294.547955 
L 165.497163 294.113705 
L 165.729225 293.333702 
L 165.961287 293.89226 
L 166.42541 294.488979 
L 166.889534 294.179137 
L 167.121596 294.463823 
L 167.353658 292.83124 
L 167.58572 294.38043 
L 167.817782 294.767827 
L 168.049843 294.024083 
L 168.281905 294.200869 
L 168.513967 294.124929 
L 168.746029 294.364357 
L 168.978091 293.574987 
L 169.210153 293.915991 
L 169.442215 293.775735 
L 169.674276 293.774384 
L 169.906338 294.350642 
L 170.602524 293.925417 
L 170.834586 293.889875 
L 171.066648 294.043645 
L 171.298709 293.824918 
L 171.762833 294.390594 
L 171.994895 294.13073 
L 172.459019 294.278501 
L 172.691081 294.212492 
L 172.923143 293.951151 
L 173.155204 294.728426 
L 173.387266 294.618883 
L 173.619328 294.660006 
L 173.85139 294.585945 
L 174.315514 294.668119 
L 175.011699 294.764058 
L 175.243761 294.339676 
L 175.707885 294.254126 
L 175.939947 294.390018 
L 176.172009 294.015763 
L 176.40407 294.733513 
L 176.868194 294.714965 
L 177.100256 294.285895 
L 177.332318 294.562285 
L 177.56438 294.329774 
L 178.028503 294.311746 
L 178.724689 294.685956 
L 178.956751 294.477857 
L 179.188813 293.68583 
L 179.420875 294.151248 
L 179.652937 294.124052 
L 179.884998 293.910111 
L 180.11706 294.491765 
L 180.349122 294.653885 
L 181.27737 294.511182 
L 181.509431 294.121298 
L 181.973555 294.12808 
L 182.205617 294.753065 
L 182.669741 294.47754 
L 182.901803 294.619735 
L 183.133864 294.469932 
L 183.365926 294.829092 
L 183.83005 293.593714 
L 184.062112 293.466063 
L 184.526236 293.631437 
L 184.758297 294.312317 
L 184.990359 293.631144 
L 185.454483 293.870661 
L 186.150669 292.957783 
L 186.382731 295.241574 
L 186.614792 294.48747 
L 186.846854 294.379921 
L 187.078916 293.85093 
L 187.310978 294.378507 
L 187.54304 294.104089 
L 188.471287 294.315664 
L 188.703349 295.212654 
L 188.935411 294.732416 
L 189.167473 294.581521 
L 189.399535 293.827216 
L 189.631597 293.710366 
L 189.863658 294.08004 
L 190.09572 294.806996 
L 190.327782 294.086094 
L 190.559844 294.232616 
L 190.791906 294.75106 
L 191.023968 294.346773 
L 191.25603 294.971276 
L 191.488091 294.808932 
L 192.648401 295.245297 
L 192.880463 294.323022 
L 193.112525 294.30615 
L 193.344586 294.48684 
L 193.576648 293.30767 
L 193.80871 294.343644 
L 194.272834 292.44702 
L 194.504896 291.663975 
L 194.736958 291.49669 
L 194.969019 292.309847 
L 195.201081 293.831151 
L 195.433143 293.772895 
L 195.665205 294.185869 
L 195.897267 293.651874 
L 196.129329 294.320902 
L 196.361391 293.326864 
L 196.593452 294.419173 
L 197.057576 293.80707 
L 197.289638 292.853586 
L 197.5217 294.016883 
L 197.753762 294.010776 
L 197.985824 293.785087 
L 198.217886 292.943819 
L 198.449947 293.588866 
L 198.682009 293.735944 
L 199.378195 293.625683 
L 199.610257 293.877913 
L 199.842319 294.797557 
L 200.07438 294.064862 
L 200.306442 293.99547 
L 200.538504 294.619857 
L 201.002628 294.109403 
L 201.23469 295.047765 
L 201.466752 294.03608 
L 201.698813 294.581184 
L 202.394999 294.266523 
L 202.627061 295.027371 
L 202.859123 294.121949 
L 203.091185 294.113948 
L 203.323246 293.642713 
L 203.555308 293.952377 
L 204.251494 294.06151 
L 204.715618 294.111949 
L 204.94768 293.385536 
L 205.179741 293.590966 
L 205.411803 292.469276 
L 205.643865 293.165087 
L 206.107989 293.097331 
L 206.340051 293.695597 
L 206.572113 294.664361 
L 206.804174 294.195841 
L 207.036236 294.195085 
L 207.268298 293.477318 
L 207.732422 294.937497 
L 207.964484 293.040864 
L 208.196546 294.641145 
L 208.428607 294.598009 
L 208.660669 294.682247 
L 208.892731 293.859008 
L 209.124793 295.322598 
L 209.356855 294.07443 
L 209.820979 294.590695 
L 210.05304 294.70319 
L 210.285102 295.053597 
L 210.517164 294.676971 
L 210.749226 293.513683 
L 210.981288 293.329554 
L 211.21335 294.140167 
L 211.445412 294.05222 
L 212.141597 293.303649 
L 212.373659 294.449248 
L 212.605721 293.646908 
L 212.837783 293.565042 
L 213.069845 293.774414 
L 213.533968 295.106777 
L 213.76603 294.343472 
L 213.998092 294.183067 
L 214.230154 293.710594 
L 214.462216 293.679857 
L 214.694278 294.349544 
L 215.158401 293.839994 
L 215.390463 293.908008 
L 215.622525 293.192289 
L 216.086649 294.672065 
L 216.318711 293.902934 
L 216.550773 294.05576 
L 216.782834 293.727885 
L 217.246958 294.837974 
L 217.711082 294.415195 
L 218.407268 294.324382 
L 218.639329 293.854001 
L 218.871391 294.477092 
L 219.335515 293.973796 
L 219.567577 293.682322 
L 219.799639 293.932407 
L 220.031701 293.115823 
L 220.263762 293.942851 
L 220.727886 294.518995 
L 220.959948 293.755929 
L 221.19201 293.871657 
L 221.424072 293.712434 
L 221.656134 293.942761 
L 221.888195 293.659656 
L 222.120257 291.331724 
L 222.352319 294.084347 
L 223.048505 293.52113 
L 223.74469 293.921979 
L 223.976752 294.202628 
L 224.208814 293.946972 
L 225.369123 294.409627 
L 225.601185 293.834803 
L 226.065309 294.36052 
L 226.529433 294.294988 
L 226.993556 294.509715 
L 227.45768 293.740919 
L 227.689742 293.474863 
L 227.921804 293.826504 
L 228.153866 293.520097 
L 228.617989 293.442756 
L 232.563041 293.511548 
L 232.795103 293.289264 
L 233.491289 293.453812 
L 233.72335 294.370349 
L 234.187474 294.400301 
L 234.419536 293.782681 
L 234.651598 293.880474 
L 234.88366 294.43502 
L 235.115722 294.510377 
L 235.811907 293.732517 
L 236.043969 293.894255 
L 236.276031 293.618821 
L 237.43634 293.895628 
L 237.668402 294.4515 
L 237.900464 294.431083 
L 238.364588 294.181069 
L 239.060773 294.075642 
L 239.524897 293.642317 
L 239.756959 292.879374 
L 239.989021 294.224977 
L 240.221083 293.487989 
L 240.453144 294.694489 
L 240.917268 294.373533 
L 241.14933 293.624661 
L 241.381392 294.773068 
L 242.077577 294.052755 
L 242.773763 294.262399 
L 243.005825 294.111148 
L 243.237887 294.295085 
L 243.702011 293.89003 
L 243.934072 293.776894 
L 244.166134 294.053443 
L 244.398196 293.708256 
L 244.630258 293.028606 
L 244.86232 292.826184 
L 245.094382 294.601505 
L 245.326444 293.792661 
L 245.558505 293.583463 
L 245.790567 294.030284 
L 246.022629 293.919055 
L 246.254691 293.951658 
L 246.486753 293.720193 
L 246.718815 293.9414 
L 246.950877 293.802573 
L 247.182938 294.249679 
L 247.415 293.924942 
L 247.647062 293.893923 
L 248.111186 294.424 
L 248.343248 294.006741 
L 249.039433 293.911606 
L 249.271495 293.585042 
L 249.503557 293.614508 
L 249.967681 294.009718 
L 250.199743 293.494296 
L 250.431805 293.950028 
L 250.663866 293.835513 
L 251.592114 294.287061 
L 252.520361 294.124839 
L 252.752423 293.667143 
L 252.984485 293.842765 
L 253.680671 293.721034 
L 254.608918 294.164794 
L 254.84098 294.159639 
L 255.073042 293.905957 
L 255.305104 294.286389 
L 256.929537 294.210055 
L 257.161599 293.775767 
L 258.321908 293.540437 
L 258.55397 293.850097 
L 259.250155 293.999881 
L 259.482217 293.73783 
L 259.714279 294.059053 
L 259.946341 294.187356 
L 260.874588 293.737973 
L 261.10665 293.780231 
L 261.338712 293.251204 
L 261.570774 293.767938 
L 262.26696 293.822901 
L 262.963145 293.895562 
L 263.195207 293.996663 
L 263.427269 293.480027 
L 263.659331 293.709898 
L 264.123454 293.597914 
L 264.355516 293.588051 
L 264.587578 293.229344 
L 264.81964 293.453725 
L 265.051702 292.695886 
L 265.283764 293.365103 
L 265.747887 293.246565 
L 265.979949 293.445253 
L 266.212011 292.998727 
L 266.444073 293.400012 
L 266.676135 293.329319 
L 266.908197 293.669143 
L 267.140259 293.628281 
L 267.604382 294.169833 
L 267.836444 293.904199 
L 268.300568 294.0161 
L 268.764692 292.82737 
L 269.228815 293.431786 
L 269.460877 293.352505 
L 269.692939 292.630272 
L 269.925001 292.566141 
L 270.157063 293.384307 
L 270.389125 293.213995 
L 270.621187 293.737884 
L 270.853248 293.397979 
L 271.08531 293.712439 
L 271.317372 294.224423 
L 271.781496 294.303577 
L 272.013558 293.472182 
L 272.24562 293.665596 
L 272.477681 293.158407 
L 272.709743 294.005991 
L 272.941805 294.069195 
L 273.173867 293.396441 
L 273.405929 293.627653 
L 273.637991 294.638625 
L 273.870053 293.466899 
L 274.102114 294.091151 
L 274.334176 293.462539 
L 274.566238 293.194564 
L 274.7983 293.121266 
L 275.030362 293.552043 
L 275.262424 293.095077 
L 275.494486 292.933303 
L 275.726548 293.530601 
L 275.958609 293.635096 
L 276.190671 294.215684 
L 276.422733 294.025418 
L 276.654795 294.125478 
L 276.886857 293.925978 
L 277.118919 293.193565 
L 277.350981 293.686011 
L 277.815104 293.353999 
L 278.279228 293.269402 
L 278.51129 293.92742 
L 278.975414 293.261701 
L 279.439537 292.485023 
L 279.671599 292.894323 
L 280.135723 294.403243 
L 280.367785 294.019073 
L 280.599847 293.915143 
L 280.831909 294.280857 
L 281.06397 293.501926 
L 281.296032 293.893622 
L 281.528094 293.563135 
L 281.760156 294.02928 
L 282.22428 293.02587 
L 282.456342 294.070122 
L 282.688403 294.448535 
L 282.920465 293.086406 
L 283.152527 293.802968 
L 283.384589 294.024786 
L 284.080775 294.253353 
L 284.312836 294.144979 
L 284.544898 291.115592 
L 284.77696 294.708492 
L 285.009022 293.464136 
L 285.241084 293.296314 
L 285.473146 293.637288 
L 285.937269 293.766937 
L 286.169331 293.227374 
L 286.401393 293.457318 
L 286.633455 292.787121 
L 286.865517 292.990986 
L 287.097579 293.674967 
L 287.329641 293.222106 
L 287.561703 293.626151 
L 287.793764 293.680112 
L 288.025826 293.309591 
L 288.257888 293.561174 
L 288.48995 293.392989 
L 288.722012 293.739691 
L 288.954074 294.890566 
L 289.186136 294.219336 
L 289.418197 293.943163 
L 289.650259 293.878998 
L 289.882321 294.054324 
L 290.114383 293.626682 
L 290.346445 294.383914 
L 290.810569 294.517227 
L 291.04263 294.200627 
L 291.274692 293.300144 
L 291.506754 293.528001 
L 291.738816 293.573635 
L 291.970878 293.965834 
L 292.20294 295.052834 
L 292.435002 294.280025 
L 292.667063 295.188835 
L 292.899125 294.828937 
L 293.363249 293.305079 
L 293.595311 293.551657 
L 293.827373 293.543664 
L 294.059435 294.540484 
L 294.291497 294.147679 
L 294.523558 293.099896 
L 294.75562 293.583784 
L 294.987682 293.457381 
L 295.219744 294.248281 
L 295.451806 293.595352 
L 296.147991 293.743965 
L 296.612115 294.480905 
L 296.844177 293.984067 
L 297.076239 294.449608 
L 297.540363 294.660566 
L 297.772424 294.093321 
L 298.004486 294.162785 
L 298.236548 293.670598 
L 298.46861 293.469441 
L 298.700672 294.036255 
L 298.932734 293.498713 
L 299.164796 294.214841 
L 299.628919 294.249324 
L 299.860981 294.09791 
L 300.093043 294.578385 
L 300.325105 293.609791 
L 300.557167 294.464257 
L 301.253352 293.536465 
L 301.485414 293.431091 
L 302.1816 295.184573 
L 302.645724 293.544935 
L 302.877785 294.325695 
L 303.109847 293.859822 
L 303.341909 294.027835 
L 303.806033 293.468449 
L 304.038095 293.82278 
L 304.270157 293.915465 
L 304.502218 291.609347 
L 304.73428 294.039213 
L 304.966342 293.679277 
L 305.198404 293.938706 
L 305.430466 293.053675 
L 306.126652 293.983013 
L 306.358713 293.940798 
L 306.590775 294.073592 
L 307.054899 293.209184 
L 307.286961 293.57382 
L 307.519023 293.591003 
L 307.983146 293.016396 
L 308.215208 293.526937 
L 308.679332 293.657003 
L 308.911394 293.622388 
L 309.375518 292.956834 
L 309.607579 293.680277 
L 310.071703 293.305298 
L 310.303765 293.612729 
L 310.535827 293.584542 
L 310.767889 293.159676 
L 310.999951 293.396503 
L 311.232012 292.968598 
L 311.464074 294.007345 
L 311.696136 293.026124 
L 311.928198 292.755708 
L 312.392322 293.924709 
L 312.624384 293.796309 
L 312.856446 293.167135 
L 313.088507 293.485353 
L 313.320569 293.064382 
L 313.784693 293.619399 
L 314.016755 293.476192 
L 314.248817 293.487483 
L 314.480879 293.72135 
L 314.71294 293.312078 
L 314.945002 293.952658 
L 315.177064 294.06686 
L 315.409126 292.756817 
L 315.641188 292.608122 
L 316.105312 293.894204 
L 316.337373 293.703923 
L 316.569435 293.765984 
L 316.801497 294.318781 
L 317.033559 293.309511 
L 317.265621 292.859835 
L 317.497683 292.834457 
L 317.729745 293.158581 
L 317.961806 294.238667 
L 318.193868 294.360822 
L 318.42593 293.915296 
L 318.657992 294.17193 
L 318.890054 294.668784 
L 319.122116 294.099007 
L 319.354178 294.15649 
L 319.58624 293.826006 
L 320.050363 294.762989 
L 320.282425 294.41796 
L 320.514487 293.69269 
L 320.746549 294.215992 
L 320.978611 293.686515 
L 321.210673 294.273481 
L 321.442734 294.142708 
L 321.674796 293.434914 
L 321.906858 290.219153 
L 322.370982 293.012252 
L 322.603044 293.421598 
L 322.835106 293.315509 
L 323.067167 293.769892 
L 323.995415 293.485408 
L 324.227477 293.928324 
L 324.923662 294.56788 
L 325.155724 293.259535 
L 325.387786 292.599668 
L 325.619848 293.606046 
L 325.85191 293.969061 
L 326.083972 294.04787 
L 326.316034 293.927862 
L 326.548095 293.563136 
L 326.780157 294.231755 
L 327.012219 294.552579 
L 327.244281 294.430076 
L 327.476343 293.578141 
L 327.708405 294.533579 
L 327.940467 292.59209 
L 328.172528 294.376356 
L 328.40459 294.449388 
L 328.636652 293.767266 
L 328.868714 294.167758 
L 329.100776 294.309171 
L 329.332838 294.1614 
L 329.5649 294.241491 
L 329.796961 293.955193 
L 330.029023 293.943867 
L 330.261085 294.533394 
L 330.493147 292.54479 
L 330.725209 293.695475 
L 330.957271 293.53027 
L 331.189333 293.632405 
L 331.885518 294.565982 
L 332.349642 293.720798 
L 332.581704 293.929805 
L 333.045828 293.524186 
L 333.277889 294.654331 
L 333.509951 293.994787 
L 333.974075 293.578954 
L 334.206137 293.483575 
L 334.670261 293.642704 
L 335.366446 293.52742 
L 335.598508 294.304149 
L 335.83057 294.433899 
L 336.062632 293.86702 
L 336.526755 294.009299 
L 336.758817 292.836286 
L 336.990879 294.588215 
L 337.455003 294.053117 
L 338.151189 293.809398 
L 338.38325 293.265939 
L 338.847374 293.768498 
L 339.079436 293.833303 
L 339.54356 294.128889 
L 339.775622 294.048301 
L 340.007683 293.43959 
L 340.239745 294.80402 
L 340.471807 293.749673 
L 340.703869 293.592922 
L 340.935931 293.694933 
L 341.167993 294.918279 
L 341.632116 293.949538 
L 341.864178 294.366088 
L 342.328302 294.09877 
L 342.560364 294.482683 
L 342.792426 294.565921 
L 343.024488 294.832814 
L 343.488611 294.32332 
L 343.720673 294.644338 
L 343.952735 293.773082 
L 344.184797 294.338274 
L 344.880983 294.933802 
L 345.113044 294.884599 
L 345.345106 294.338825 
L 345.577168 294.992988 
L 346.041292 293.582464 
L 346.273354 294.462903 
L 346.737477 294.352764 
L 346.969539 293.291499 
L 347.201601 294.749247 
L 347.433663 294.786924 
L 347.665725 294.994055 
L 347.897787 294.706498 
L 348.36191 295.035965 
L 348.826034 294.495546 
L 349.058096 294.684194 
L 349.290158 294.187833 
L 349.754282 294.365897 
L 349.986343 294.957096 
L 350.218405 294.323365 
L 350.450467 294.672409 
L 350.914591 293.579454 
L 351.146653 294.149671 
L 351.378715 294.167161 
L 351.842838 294.03399 
L 352.0749 293.522295 
L 352.306962 294.577976 
L 353.23521 294.676978 
L 353.467271 295.025754 
L 353.699333 294.963809 
L 353.931395 294.52989 
L 354.627581 294.145968 
L 354.859643 294.45176 
L 355.323766 294.17704 
L 355.555828 294.158841 
L 356.019952 293.969575 
L 356.252014 294.151892 
L 356.484076 294.036671 
L 356.948199 294.12515 
L 357.180261 293.719207 
L 357.412323 293.700462 
L 357.644385 294.064006 
L 357.876447 294.916611 
L 358.340571 293.987944 
L 358.572632 294.282198 
L 358.804694 294.204498 
L 359.036756 293.994514 
L 359.268818 294.466689 
L 359.732942 292.895285 
L 359.965004 293.888833 
L 360.197065 292.984212 
L 360.429127 293.076359 
L 360.661189 292.985693 
L 360.893251 293.623214 
L 361.125313 293.7576 
L 361.357375 293.478665 
L 361.589437 293.846163 
L 361.821498 294.813865 
L 362.05356 293.771651 
L 362.285622 294.56797 
L 362.981808 293.807155 
L 363.21387 293.814494 
L 363.445932 293.96798 
L 363.677993 294.691412 
L 363.910055 292.145574 
L 364.142117 294.477249 
L 364.606241 294.339049 
L 365.070365 294.047757 
L 365.534488 294.354867 
L 365.76655 294.719204 
L 365.998612 294.298375 
L 366.230674 294.317156 
L 366.462736 294.177037 
L 366.694798 294.369138 
L 366.926859 293.609024 
L 367.158921 294.303991 
L 367.390983 294.099218 
L 367.623045 294.065833 
L 367.855107 294.43266 
L 368.087169 293.710252 
L 368.783354 293.990448 
L 369.015416 293.777999 
L 369.247478 293.784124 
L 369.47954 292.306751 
L 369.711602 294.558157 
L 369.943664 294.337174 
L 370.639849 295.00635 
L 370.871911 294.372158 
L 371.103973 294.414873 
L 371.568097 293.815878 
L 371.800159 294.366872 
L 372.03222 294.33568 
L 372.264282 294.082685 
L 372.496344 294.448858 
L 372.728406 293.124131 
L 372.960468 293.256905 
L 373.424592 294.482161 
L 373.656653 294.614963 
L 374.352839 294.597168 
L 374.816963 294.109913 
L 375.049025 294.383353 
L 375.281086 294.934356 
L 375.74521 293.772092 
L 375.977272 294.721423 
L 376.209334 294.751303 
L 376.441396 293.488379 
L 376.673458 293.463875 
L 377.137581 294.315854 
L 377.601705 294.011004 
L 378.297891 294.660113 
L 378.529953 294.581202 
L 378.762014 294.343329 
L 378.994076 293.897743 
L 379.4582 295.228572 
L 379.690262 294.634385 
L 379.922324 294.949554 
L 380.154386 293.515645 
L 380.386447 293.542314 
L 380.618509 294.098773 
L 380.850571 293.914539 
L 381.082633 294.723403 
L 381.314695 292.775951 
L 381.546757 294.095672 
L 381.778819 294.167855 
L 382.01088 293.442404 
L 382.242942 294.512333 
L 382.475004 293.841707 
L 382.707066 293.928354 
L 382.939128 293.691631 
L 383.403252 294.385375 
L 383.635314 293.981995 
L 383.867375 294.180517 
L 384.099437 294.632209 
L 384.331499 294.609881 
L 384.563561 294.826952 
L 384.795623 294.518685 
L 385.027685 294.609685 
L 385.259747 294.504237 
L 385.491808 294.255585 
L 385.72387 294.572979 
L 385.955932 294.688103 
L 386.187994 293.624236 
L 386.420056 295.039977 
L 386.652118 294.974676 
L 386.88418 295.039225 
L 387.116241 294.556395 
L 387.348303 294.481729 
L 387.580365 294.788491 
L 388.276551 294.71767 
L 388.508613 293.071879 
L 388.740675 294.530231 
L 388.972736 295.021554 
L 389.204798 294.993775 
L 389.668922 294.481327 
L 390.133046 293.647318 
L 390.365108 293.684346 
L 390.597169 294.091677 
L 390.829231 293.76348 
L 391.525417 293.550804 
L 391.757479 294.202038 
L 391.989541 293.59346 
L 392.221602 291.090528 
L 392.453664 293.811022 
L 392.685726 294.696602 
L 392.917788 294.463666 
L 393.14985 291.329468 
L 393.613974 294.175615 
L 393.846035 293.568149 
L 394.078097 293.294361 
L 394.310159 294.596414 
L 394.542221 294.748749 
L 395.006345 294.698723 
L 395.238407 293.651604 
L 395.470469 293.430905 
L 395.70253 294.376934 
L 395.934592 294.391927 
L 396.166654 294.708125 
L 396.398716 294.649854 
L 396.630778 293.264433 
L 396.86284 294.27465 
L 397.094902 294.336981 
L 397.326963 295.051196 
L 397.559025 291.232452 
L 397.791087 291.692479 
L 398.023149 295.020181 
L 398.255211 289.962225 
L 398.487273 294.822343 
L 398.487273 294.822343 
" style="fill:none;stroke:#ff7f0e;stroke-linecap:square;stroke-width:1.5;"/>
   </g>
   <g id="patch_3">
    <path d="M 57.6 307.584 
L 57.6 41.472 
" style="fill:none;stroke:#000000;stroke-linecap:square;stroke-linejoin:miter;stroke-width:0.8;"/>
   </g>
   <g id="patch_4">
    <path d="M 414.72 307.584 
L 414.72 41.472 
" style="fill:none;stroke:#000000;stroke-linecap:square;stroke-linejoin:miter;stroke-width:0.8;"/>
   </g>
   <g id="patch_5">
    <path d="M 57.6 307.584 
L 414.72 307.584 
" style="fill:none;stroke:#000000;stroke-linecap:square;stroke-linejoin:miter;stroke-width:0.8;"/>
   </g>
   <g id="patch_6">
    <path d="M 57.6 41.472 
L 414.72 41.472 
" style="fill:none;stroke:#000000;stroke-linecap:square;stroke-linejoin:miter;stroke-width:0.8;"/>
   </g>
  </g>
 </g>
 <defs>
  <clipPath id="p5a13561054">
   <rect height="266.112" width="357.12" x="57.6" y="41.472"/>
  </clipPath>
 </defs>
</svg>
