<?xml version="1.0" encoding="utf-8" standalone="no"?>
<!DOCTYPE svg PUBLIC "-//W3C//DTD SVG 1.1//EN"
  "http://www.w3.org/Graphics/SVG/1.1/DTD/svg11.dtd">
<!-- Created with matplotlib (https://matplotlib.org/) -->
<svg height="345.6pt" version="1.1" viewBox="0 0 460.8 345.6" width="460.8pt" xmlns="http://www.w3.org/2000/svg" xmlns:xlink="http://www.w3.org/1999/xlink">
 <defs>
  <style type="text/css">
*{stroke-linecap:butt;stroke-linejoin:round;}
  </style>
 </defs>
 <g id="figure_1">
  <g id="patch_1">
   <path d="M 0 345.6 
L 460.8 345.6 
L 460.8 0 
L 0 0 
z
" style="fill:#ffffff;"/>
  </g>
  <g id="axes_1">
   <g id="patch_2">
    <path d="M 57.6 307.584 
L 414.72 307.584 
L 414.72 41.472 
L 57.6 41.472 
z
" style="fill:#ffffff;"/>
   </g>
   <g id="matplotlib.axis_1">
    <g id="xtick_1">
     <g id="line2d_1">
      <defs>
       <path d="M 0 0 
L 0 3.5 
" id="mc10df83c10" style="stroke:#000000;stroke-width:0.8;"/>
      </defs>
      <g>
       <use style="stroke:#000000;stroke-width:0.8;" x="73.832727" xlink:href="#mc10df83c10" y="307.584"/>
      </g>
     </g>
     <g id="text_1">
      <!-- 0 -->
      <defs>
       <path d="M 31.78125 66.40625 
Q 24.171875 66.40625 20.328125 58.90625 
Q 16.5 51.421875 16.5 36.375 
Q 16.5 21.390625 20.328125 13.890625 
Q 24.171875 6.390625 31.78125 6.390625 
Q 39.453125 6.390625 43.28125 13.890625 
Q 47.125 21.390625 47.125 36.375 
Q 47.125 51.421875 43.28125 58.90625 
Q 39.453125 66.40625 31.78125 66.40625 
z
M 31.78125 74.21875 
Q 44.046875 74.21875 50.515625 64.515625 
Q 56.984375 54.828125 56.984375 36.375 
Q 56.984375 17.96875 50.515625 8.265625 
Q 44.046875 -1.421875 31.78125 -1.421875 
Q 19.53125 -1.421875 13.0625 8.265625 
Q 6.59375 17.96875 6.59375 36.375 
Q 6.59375 54.828125 13.0625 64.515625 
Q 19.53125 74.21875 31.78125 74.21875 
z
" id="DejaVuSans-48"/>
      </defs>
      <g transform="translate(70.651477 322.182437)scale(0.1 -0.1)">
       <use xlink:href="#DejaVuSans-48"/>
      </g>
     </g>
    </g>
    <g id="xtick_2">
     <g id="line2d_2">
      <g>
       <use style="stroke:#000000;stroke-width:0.8;" x="120.2451" xlink:href="#mc10df83c10" y="307.584"/>
      </g>
     </g>
     <g id="text_2">
      <!-- 200 -->
      <defs>
       <path d="M 19.1875 8.296875 
L 53.609375 8.296875 
L 53.609375 0 
L 7.328125 0 
L 7.328125 8.296875 
Q 12.9375 14.109375 22.625 23.890625 
Q 32.328125 33.6875 34.8125 36.53125 
Q 39.546875 41.84375 41.421875 45.53125 
Q 43.3125 49.21875 43.3125 52.78125 
Q 43.3125 58.59375 39.234375 62.25 
Q 35.15625 65.921875 28.609375 65.921875 
Q 23.96875 65.921875 18.8125 64.3125 
Q 13.671875 62.703125 7.8125 59.421875 
L 7.8125 69.390625 
Q 13.765625 71.78125 18.9375 73 
Q 24.125 74.21875 28.421875 74.21875 
Q 39.75 74.21875 46.484375 68.546875 
Q 53.21875 62.890625 53.21875 53.421875 
Q 53.21875 48.921875 51.53125 44.890625 
Q 49.859375 40.875 45.40625 35.40625 
Q 44.1875 33.984375 37.640625 27.21875 
Q 31.109375 20.453125 19.1875 8.296875 
z
" id="DejaVuSans-50"/>
      </defs>
      <g transform="translate(110.70135 322.182437)scale(0.1 -0.1)">
       <use xlink:href="#DejaVuSans-50"/>
       <use x="63.623047" xlink:href="#DejaVuSans-48"/>
       <use x="127.246094" xlink:href="#DejaVuSans-48"/>
      </g>
     </g>
    </g>
    <g id="xtick_3">
     <g id="line2d_3">
      <g>
       <use style="stroke:#000000;stroke-width:0.8;" x="166.657472" xlink:href="#mc10df83c10" y="307.584"/>
      </g>
     </g>
     <g id="text_3">
      <!-- 400 -->
      <defs>
       <path d="M 37.796875 64.3125 
L 12.890625 25.390625 
L 37.796875 25.390625 
z
M 35.203125 72.90625 
L 47.609375 72.90625 
L 47.609375 25.390625 
L 58.015625 25.390625 
L 58.015625 17.1875 
L 47.609375 17.1875 
L 47.609375 0 
L 37.796875 0 
L 37.796875 17.1875 
L 4.890625 17.1875 
L 4.890625 26.703125 
z
" id="DejaVuSans-52"/>
      </defs>
      <g transform="translate(157.113722 322.182437)scale(0.1 -0.1)">
       <use xlink:href="#DejaVuSans-52"/>
       <use x="63.623047" xlink:href="#DejaVuSans-48"/>
       <use x="127.246094" xlink:href="#DejaVuSans-48"/>
      </g>
     </g>
    </g>
    <g id="xtick_4">
     <g id="line2d_4">
      <g>
       <use style="stroke:#000000;stroke-width:0.8;" x="213.069845" xlink:href="#mc10df83c10" y="307.584"/>
      </g>
     </g>
     <g id="text_4">
      <!-- 600 -->
      <defs>
       <path d="M 33.015625 40.375 
Q 26.375 40.375 22.484375 35.828125 
Q 18.609375 31.296875 18.609375 23.390625 
Q 18.609375 15.53125 22.484375 10.953125 
Q 26.375 6.390625 33.015625 6.390625 
Q 39.65625 6.390625 43.53125 10.953125 
Q 47.40625 15.53125 47.40625 23.390625 
Q 47.40625 31.296875 43.53125 35.828125 
Q 39.65625 40.375 33.015625 40.375 
z
M 52.59375 71.296875 
L 52.59375 62.3125 
Q 48.875 64.0625 45.09375 64.984375 
Q 41.3125 65.921875 37.59375 65.921875 
Q 27.828125 65.921875 22.671875 59.328125 
Q 17.53125 52.734375 16.796875 39.40625 
Q 19.671875 43.65625 24.015625 45.921875 
Q 28.375 48.1875 33.59375 48.1875 
Q 44.578125 48.1875 50.953125 41.515625 
Q 57.328125 34.859375 57.328125 23.390625 
Q 57.328125 12.15625 50.6875 5.359375 
Q 44.046875 -1.421875 33.015625 -1.421875 
Q 20.359375 -1.421875 13.671875 8.265625 
Q 6.984375 17.96875 6.984375 36.375 
Q 6.984375 53.65625 15.1875 63.9375 
Q 23.390625 74.21875 37.203125 74.21875 
Q 40.921875 74.21875 44.703125 73.484375 
Q 48.484375 72.75 52.59375 71.296875 
z
" id="DejaVuSans-54"/>
      </defs>
      <g transform="translate(203.526095 322.182437)scale(0.1 -0.1)">
       <use xlink:href="#DejaVuSans-54"/>
       <use x="63.623047" xlink:href="#DejaVuSans-48"/>
       <use x="127.246094" xlink:href="#DejaVuSans-48"/>
      </g>
     </g>
    </g>
    <g id="xtick_5">
     <g id="line2d_5">
      <g>
       <use style="stroke:#000000;stroke-width:0.8;" x="259.482217" xlink:href="#mc10df83c10" y="307.584"/>
      </g>
     </g>
     <g id="text_5">
      <!-- 800 -->
      <defs>
       <path d="M 31.78125 34.625 
Q 24.75 34.625 20.71875 30.859375 
Q 16.703125 27.09375 16.703125 20.515625 
Q 16.703125 13.921875 20.71875 10.15625 
Q 24.75 6.390625 31.78125 6.390625 
Q 38.8125 6.390625 42.859375 10.171875 
Q 46.921875 13.96875 46.921875 20.515625 
Q 46.921875 27.09375 42.890625 30.859375 
Q 38.875 34.625 31.78125 34.625 
z
M 21.921875 38.8125 
Q 15.578125 40.375 12.03125 44.71875 
Q 8.5 49.078125 8.5 55.328125 
Q 8.5 64.0625 14.71875 69.140625 
Q 20.953125 74.21875 31.78125 74.21875 
Q 42.671875 74.21875 48.875 69.140625 
Q 55.078125 64.0625 55.078125 55.328125 
Q 55.078125 49.078125 51.53125 44.71875 
Q 48 40.375 41.703125 38.8125 
Q 48.828125 37.15625 52.796875 32.3125 
Q 56.78125 27.484375 56.78125 20.515625 
Q 56.78125 9.90625 50.3125 4.234375 
Q 43.84375 -1.421875 31.78125 -1.421875 
Q 19.734375 -1.421875 13.25 4.234375 
Q 6.78125 9.90625 6.78125 20.515625 
Q 6.78125 27.484375 10.78125 32.3125 
Q 14.796875 37.15625 21.921875 38.8125 
z
M 18.3125 54.390625 
Q 18.3125 48.734375 21.84375 45.5625 
Q 25.390625 42.390625 31.78125 42.390625 
Q 38.140625 42.390625 41.71875 45.5625 
Q 45.3125 48.734375 45.3125 54.390625 
Q 45.3125 60.0625 41.71875 63.234375 
Q 38.140625 66.40625 31.78125 66.40625 
Q 25.390625 66.40625 21.84375 63.234375 
Q 18.3125 60.0625 18.3125 54.390625 
z
" id="DejaVuSans-56"/>
      </defs>
      <g transform="translate(249.938467 322.182437)scale(0.1 -0.1)">
       <use xlink:href="#DejaVuSans-56"/>
       <use x="63.623047" xlink:href="#DejaVuSans-48"/>
       <use x="127.246094" xlink:href="#DejaVuSans-48"/>
      </g>
     </g>
    </g>
    <g id="xtick_6">
     <g id="line2d_6">
      <g>
       <use style="stroke:#000000;stroke-width:0.8;" x="305.89459" xlink:href="#mc10df83c10" y="307.584"/>
      </g>
     </g>
     <g id="text_6">
      <!-- 1000 -->
      <defs>
       <path d="M 12.40625 8.296875 
L 28.515625 8.296875 
L 28.515625 63.921875 
L 10.984375 60.40625 
L 10.984375 69.390625 
L 28.421875 72.90625 
L 38.28125 72.90625 
L 38.28125 8.296875 
L 54.390625 8.296875 
L 54.390625 0 
L 12.40625 0 
z
" id="DejaVuSans-49"/>
      </defs>
      <g transform="translate(293.16959 322.182437)scale(0.1 -0.1)">
       <use xlink:href="#DejaVuSans-49"/>
       <use x="63.623047" xlink:href="#DejaVuSans-48"/>
       <use x="127.246094" xlink:href="#DejaVuSans-48"/>
       <use x="190.869141" xlink:href="#DejaVuSans-48"/>
      </g>
     </g>
    </g>
    <g id="xtick_7">
     <g id="line2d_7">
      <g>
       <use style="stroke:#000000;stroke-width:0.8;" x="352.306962" xlink:href="#mc10df83c10" y="307.584"/>
      </g>
     </g>
     <g id="text_7">
      <!-- 1200 -->
      <g transform="translate(339.581962 322.182437)scale(0.1 -0.1)">
       <use xlink:href="#DejaVuSans-49"/>
       <use x="63.623047" xlink:href="#DejaVuSans-50"/>
       <use x="127.246094" xlink:href="#DejaVuSans-48"/>
       <use x="190.869141" xlink:href="#DejaVuSans-48"/>
      </g>
     </g>
    </g>
    <g id="xtick_8">
     <g id="line2d_8">
      <g>
       <use style="stroke:#000000;stroke-width:0.8;" x="398.719335" xlink:href="#mc10df83c10" y="307.584"/>
      </g>
     </g>
     <g id="text_8">
      <!-- 1400 -->
      <g transform="translate(385.994335 322.182437)scale(0.1 -0.1)">
       <use xlink:href="#DejaVuSans-49"/>
       <use x="63.623047" xlink:href="#DejaVuSans-52"/>
       <use x="127.246094" xlink:href="#DejaVuSans-48"/>
       <use x="190.869141" xlink:href="#DejaVuSans-48"/>
      </g>
     </g>
    </g>
   </g>
   <g id="matplotlib.axis_2">
    <g id="ytick_1">
     <g id="line2d_9">
      <defs>
       <path d="M 0 0 
L -3.5 0 
" id="m92ba501a5e" style="stroke:#000000;stroke-width:0.8;"/>
      </defs>
      <g>
       <use style="stroke:#000000;stroke-width:0.8;" x="57.6" xlink:href="#m92ba501a5e" y="300.496358"/>
      </g>
     </g>
     <g id="text_9">
      <!-- 0.3 -->
      <defs>
       <path d="M 10.6875 12.40625 
L 21 12.40625 
L 21 0 
L 10.6875 0 
z
" id="DejaVuSans-46"/>
       <path d="M 40.578125 39.3125 
Q 47.65625 37.796875 51.625 33 
Q 55.609375 28.21875 55.609375 21.1875 
Q 55.609375 10.40625 48.1875 4.484375 
Q 40.765625 -1.421875 27.09375 -1.421875 
Q 22.515625 -1.421875 17.65625 -0.515625 
Q 12.796875 0.390625 7.625 2.203125 
L 7.625 11.71875 
Q 11.71875 9.328125 16.59375 8.109375 
Q 21.484375 6.890625 26.8125 6.890625 
Q 36.078125 6.890625 40.9375 10.546875 
Q 45.796875 14.203125 45.796875 21.1875 
Q 45.796875 27.640625 41.28125 31.265625 
Q 36.765625 34.90625 28.71875 34.90625 
L 20.21875 34.90625 
L 20.21875 43.015625 
L 29.109375 43.015625 
Q 36.375 43.015625 40.234375 45.921875 
Q 44.09375 48.828125 44.09375 54.296875 
Q 44.09375 59.90625 40.109375 62.90625 
Q 36.140625 65.921875 28.71875 65.921875 
Q 24.65625 65.921875 20.015625 65.03125 
Q 15.375 64.15625 9.8125 62.3125 
L 9.8125 71.09375 
Q 15.4375 72.65625 20.34375 73.4375 
Q 25.25 74.21875 29.59375 74.21875 
Q 40.828125 74.21875 47.359375 69.109375 
Q 53.90625 64.015625 53.90625 55.328125 
Q 53.90625 49.265625 50.4375 45.09375 
Q 46.96875 40.921875 40.578125 39.3125 
z
" id="DejaVuSans-51"/>
      </defs>
      <g transform="translate(34.696875 304.295577)scale(0.1 -0.1)">
       <use xlink:href="#DejaVuSans-48"/>
       <use x="63.623047" xlink:href="#DejaVuSans-46"/>
       <use x="95.410156" xlink:href="#DejaVuSans-51"/>
      </g>
     </g>
    </g>
    <g id="ytick_2">
     <g id="line2d_10">
      <g>
       <use style="stroke:#000000;stroke-width:0.8;" x="57.6" xlink:href="#m92ba501a5e" y="265.991495"/>
      </g>
     </g>
     <g id="text_10">
      <!-- 0.4 -->
      <g transform="translate(34.696875 269.790713)scale(0.1 -0.1)">
       <use xlink:href="#DejaVuSans-48"/>
       <use x="63.623047" xlink:href="#DejaVuSans-46"/>
       <use x="95.410156" xlink:href="#DejaVuSans-52"/>
      </g>
     </g>
    </g>
    <g id="ytick_3">
     <g id="line2d_11">
      <g>
       <use style="stroke:#000000;stroke-width:0.8;" x="57.6" xlink:href="#m92ba501a5e" y="231.486631"/>
      </g>
     </g>
     <g id="text_11">
      <!-- 0.5 -->
      <defs>
       <path d="M 10.796875 72.90625 
L 49.515625 72.90625 
L 49.515625 64.59375 
L 19.828125 64.59375 
L 19.828125 46.734375 
Q 21.96875 47.46875 24.109375 47.828125 
Q 26.265625 48.1875 28.421875 48.1875 
Q 40.625 48.1875 47.75 41.5 
Q 54.890625 34.8125 54.890625 23.390625 
Q 54.890625 11.625 47.5625 5.09375 
Q 40.234375 -1.421875 26.90625 -1.421875 
Q 22.3125 -1.421875 17.546875 -0.640625 
Q 12.796875 0.140625 7.71875 1.703125 
L 7.71875 11.625 
Q 12.109375 9.234375 16.796875 8.0625 
Q 21.484375 6.890625 26.703125 6.890625 
Q 35.15625 6.890625 40.078125 11.328125 
Q 45.015625 15.765625 45.015625 23.390625 
Q 45.015625 31 40.078125 35.4375 
Q 35.15625 39.890625 26.703125 39.890625 
Q 22.75 39.890625 18.8125 39.015625 
Q 14.890625 38.140625 10.796875 36.28125 
z
" id="DejaVuSans-53"/>
      </defs>
      <g transform="translate(34.696875 235.28585)scale(0.1 -0.1)">
       <use xlink:href="#DejaVuSans-48"/>
       <use x="63.623047" xlink:href="#DejaVuSans-46"/>
       <use x="95.410156" xlink:href="#DejaVuSans-53"/>
      </g>
     </g>
    </g>
    <g id="ytick_4">
     <g id="line2d_12">
      <g>
       <use style="stroke:#000000;stroke-width:0.8;" x="57.6" xlink:href="#m92ba501a5e" y="196.981767"/>
      </g>
     </g>
     <g id="text_12">
      <!-- 0.6 -->
      <g transform="translate(34.696875 200.780986)scale(0.1 -0.1)">
       <use xlink:href="#DejaVuSans-48"/>
       <use x="63.623047" xlink:href="#DejaVuSans-46"/>
       <use x="95.410156" xlink:href="#DejaVuSans-54"/>
      </g>
     </g>
    </g>
    <g id="ytick_5">
     <g id="line2d_13">
      <g>
       <use style="stroke:#000000;stroke-width:0.8;" x="57.6" xlink:href="#m92ba501a5e" y="162.476903"/>
      </g>
     </g>
     <g id="text_13">
      <!-- 0.7 -->
      <defs>
       <path d="M 8.203125 72.90625 
L 55.078125 72.90625 
L 55.078125 68.703125 
L 28.609375 0 
L 18.3125 0 
L 43.21875 64.59375 
L 8.203125 64.59375 
z
" id="DejaVuSans-55"/>
      </defs>
      <g transform="translate(34.696875 166.276122)scale(0.1 -0.1)">
       <use xlink:href="#DejaVuSans-48"/>
       <use x="63.623047" xlink:href="#DejaVuSans-46"/>
       <use x="95.410156" xlink:href="#DejaVuSans-55"/>
      </g>
     </g>
    </g>
    <g id="ytick_6">
     <g id="line2d_14">
      <g>
       <use style="stroke:#000000;stroke-width:0.8;" x="57.6" xlink:href="#m92ba501a5e" y="127.97204"/>
      </g>
     </g>
     <g id="text_14">
      <!-- 0.8 -->
      <g transform="translate(34.696875 131.771258)scale(0.1 -0.1)">
       <use xlink:href="#DejaVuSans-48"/>
       <use x="63.623047" xlink:href="#DejaVuSans-46"/>
       <use x="95.410156" xlink:href="#DejaVuSans-56"/>
      </g>
     </g>
    </g>
    <g id="ytick_7">
     <g id="line2d_15">
      <g>
       <use style="stroke:#000000;stroke-width:0.8;" x="57.6" xlink:href="#m92ba501a5e" y="93.467176"/>
      </g>
     </g>
     <g id="text_15">
      <!-- 0.9 -->
      <defs>
       <path d="M 10.984375 1.515625 
L 10.984375 10.5 
Q 14.703125 8.734375 18.5 7.8125 
Q 22.3125 6.890625 25.984375 6.890625 
Q 35.75 6.890625 40.890625 13.453125 
Q 46.046875 20.015625 46.78125 33.40625 
Q 43.953125 29.203125 39.59375 26.953125 
Q 35.25 24.703125 29.984375 24.703125 
Q 19.046875 24.703125 12.671875 31.3125 
Q 6.296875 37.9375 6.296875 49.421875 
Q 6.296875 60.640625 12.9375 67.421875 
Q 19.578125 74.21875 30.609375 74.21875 
Q 43.265625 74.21875 49.921875 64.515625 
Q 56.59375 54.828125 56.59375 36.375 
Q 56.59375 19.140625 48.40625 8.859375 
Q 40.234375 -1.421875 26.421875 -1.421875 
Q 22.703125 -1.421875 18.890625 -0.6875 
Q 15.09375 0.046875 10.984375 1.515625 
z
M 30.609375 32.421875 
Q 37.25 32.421875 41.125 36.953125 
Q 45.015625 41.5 45.015625 49.421875 
Q 45.015625 57.28125 41.125 61.84375 
Q 37.25 66.40625 30.609375 66.40625 
Q 23.96875 66.40625 20.09375 61.84375 
Q 16.21875 57.28125 16.21875 49.421875 
Q 16.21875 41.5 20.09375 36.953125 
Q 23.96875 32.421875 30.609375 32.421875 
z
" id="DejaVuSans-57"/>
      </defs>
      <g transform="translate(34.696875 97.266395)scale(0.1 -0.1)">
       <use xlink:href="#DejaVuSans-48"/>
       <use x="63.623047" xlink:href="#DejaVuSans-46"/>
       <use x="95.410156" xlink:href="#DejaVuSans-57"/>
      </g>
     </g>
    </g>
    <g id="ytick_8">
     <g id="line2d_16">
      <g>
       <use style="stroke:#000000;stroke-width:0.8;" x="57.6" xlink:href="#m92ba501a5e" y="58.962312"/>
      </g>
     </g>
     <g id="text_16">
      <!-- 1.0 -->
      <g transform="translate(34.696875 62.761531)scale(0.1 -0.1)">
       <use xlink:href="#DejaVuSans-49"/>
       <use x="63.623047" xlink:href="#DejaVuSans-46"/>
       <use x="95.410156" xlink:href="#DejaVuSans-48"/>
      </g>
     </g>
    </g>
   </g>
   <g id="line2d_17">
    <path clip-path="url(#pbf31635afe)" d="M 73.832727 58.320715 
L 74.064789 57.108049 
L 74.296851 59.121537 
L 74.528913 59.424384 
L 74.993037 60.840799 
L 75.225098 60.793912 
L 75.45716 61.113074 
L 75.689222 61.176635 
L 75.921284 61.095069 
L 76.153346 61.267984 
L 76.385408 61.932833 
L 76.61747 61.38174 
L 76.849531 60.213863 
L 77.081593 60.095005 
L 77.313655 59.506196 
L 77.545717 59.229384 
L 77.777779 59.476637 
L 78.009841 58.619197 
L 78.473965 57.984966 
L 78.938088 56.599381 
L 79.17015 56.618737 
L 79.402212 56.393998 
L 79.634274 56.759955 
L 79.866336 55.806393 
L 80.098398 56.110094 
L 80.330459 56.011687 
L 80.562521 54.944782 
L 80.794583 54.691068 
L 81.026645 54.678905 
L 81.490769 54.918181 
L 81.722831 54.543682 
L 81.954892 54.480861 
L 82.419016 53.986794 
L 82.651078 54.295093 
L 83.115202 54.01626 
L 83.347264 55.037552 
L 83.579325 54.11906 
L 84.043449 54.722614 
L 84.275511 55.752376 
L 84.739635 54.586854 
L 85.203759 55.407246 
L 85.43582 55.196214 
L 85.667882 55.357358 
L 85.899944 55.057385 
L 86.132006 55.065147 
L 86.364068 54.851638 
L 86.59613 55.876938 
L 86.828192 55.578266 
L 87.060253 55.557903 
L 87.292315 56.275361 
L 87.524377 55.662323 
L 87.988501 55.74451 
L 88.452625 56.064167 
L 89.14881 56.114859 
L 89.380872 56.03547 
L 89.612934 56.344619 
L 89.844996 56.066695 
L 90.077058 55.99376 
L 90.30912 56.344642 
L 91.005305 56.19468 
L 91.237367 57.390659 
L 91.701491 55.262795 
L 91.933553 55.337296 
L 92.165614 54.901102 
L 92.397676 55.728466 
L 92.629738 55.643528 
L 92.8618 55.181383 
L 93.093862 55.345368 
L 93.325924 54.973503 
L 93.557986 54.370071 
L 93.790047 54.677873 
L 94.022109 54.126801 
L 94.254171 54.358095 
L 94.486233 54.059923 
L 94.950357 53.978559 
L 95.182419 54.033078 
L 95.41448 53.905589 
L 95.646542 54.446854 
L 95.878604 54.647647 
L 96.110666 54.633636 
L 96.342728 55.279826 
L 96.57479 54.537309 
L 96.806852 54.608523 
L 97.270975 55.666687 
L 97.503037 57.370633 
L 97.735099 56.243228 
L 97.967161 55.838483 
L 98.199223 56.354508 
L 98.431285 55.680557 
L 98.663347 55.546114 
L 99.12747 55.833643 
L 99.591594 55.931526 
L 100.055718 55.666837 
L 100.28778 55.72389 
L 100.519841 55.299534 
L 100.751903 56.120977 
L 100.983965 55.05151 
L 101.216027 55.365399 
L 101.448089 55.427657 
L 101.680151 55.337094 
L 101.912213 55.465373 
L 102.144274 55.24949 
L 102.376336 54.839456 
L 102.608398 54.780041 
L 103.072522 55.319761 
L 103.536646 54.602643 
L 103.768708 55.329736 
L 104.000769 54.839146 
L 104.464893 54.908368 
L 104.696955 55.035872 
L 105.161079 54.782577 
L 105.393141 55.032056 
L 105.625202 54.895226 
L 105.857264 56.366655 
L 106.089326 56.225429 
L 106.55345 55.464283 
L 106.785512 55.63453 
L 107.249635 55.147176 
L 107.481697 55.133447 
L 107.713759 55.577182 
L 107.945821 55.53173 
L 108.177883 54.940236 
L 108.409945 55.951905 
L 108.642007 55.888349 
L 108.874068 55.055076 
L 109.338192 55.305329 
L 109.570254 55.585545 
L 109.802316 55.560621 
L 110.034378 55.156898 
L 110.26644 55.249757 
L 110.730563 55.699189 
L 110.962625 55.220044 
L 111.426749 55.754589 
L 111.890873 55.378418 
L 112.122935 55.619501 
L 113.283244 55.638309 
L 113.747368 55.757399 
L 113.979429 55.742094 
L 114.211491 55.569929 
L 114.443553 55.722683 
L 114.675615 56.073457 
L 114.907677 55.739061 
L 115.139739 55.605756 
L 115.371801 55.671536 
L 115.603862 55.410093 
L 115.835924 55.818391 
L 116.067986 56.489534 
L 116.53211 55.75225 
L 116.764172 55.806844 
L 116.996234 56.017289 
L 117.228296 55.230121 
L 117.460357 54.960953 
L 117.692419 54.877844 
L 117.924481 54.667979 
L 118.156543 54.794777 
L 118.388605 54.512727 
L 118.620667 54.521503 
L 118.852729 54.688212 
L 119.08479 54.626849 
L 119.548914 54.836441 
L 119.780976 55.014389 
L 120.2451 54.875627 
L 120.477162 55.305781 
L 120.709223 55.252359 
L 120.941285 55.66639 
L 121.405409 55.213271 
L 121.637471 55.731578 
L 121.869533 55.459342 
L 122.101595 55.516917 
L 122.333657 56.496272 
L 122.565718 56.501116 
L 122.79778 56.172068 
L 123.029842 56.366647 
L 123.493966 56.065928 
L 123.95809 56.35986 
L 124.190151 55.797124 
L 124.654275 55.638058 
L 124.886337 55.503186 
L 125.582523 55.570039 
L 125.814584 55.312937 
L 126.046646 55.505627 
L 126.51077 55.374281 
L 126.742832 55.688809 
L 127.439017 55.412039 
L 128.135203 55.566293 
L 128.599327 55.619877 
L 128.831389 56.013813 
L 129.063451 56.074053 
L 129.295512 55.872255 
L 129.527574 56.151931 
L 129.759636 55.902576 
L 130.919945 55.736584 
L 131.152007 55.468452 
L 131.384069 55.411637 
L 131.616131 55.541713 
L 131.848193 56.104182 
L 132.080255 55.744958 
L 132.77644 55.97166 
L 134.168811 56.082444 
L 134.864997 55.900698 
L 135.097059 56.164099 
L 135.329121 56.25166 
L 135.793245 56.990574 
L 136.025306 57.282893 
L 136.257368 58.997817 
L 136.48943 59.446423 
L 136.721492 58.302641 
L 136.953554 58.115539 
L 137.185616 58.528087 
L 137.649739 57.215509 
L 137.881801 57.758624 
L 138.113863 56.656392 
L 138.345925 56.517373 
L 138.810049 55.908874 
L 139.042111 56.581612 
L 139.274172 55.672816 
L 139.506234 55.283085 
L 140.434482 54.643799 
L 140.666544 54.422159 
L 141.594791 54.370192 
L 141.826853 54.23623 
L 142.058915 54.742112 
L 142.523039 54.192302 
L 143.219224 54.727551 
L 143.451286 54.83646 
L 143.683348 55.657412 
L 143.91541 55.449311 
L 144.147472 55.512089 
L 144.379533 56.290021 
L 144.611595 56.362971 
L 146.003966 57.698771 
L 146.236028 56.974594 
L 146.46809 56.963357 
L 147.396338 56.202902 
L 147.6284 56.350561 
L 147.860461 56.334639 
L 148.092523 56.112749 
L 148.324585 56.053649 
L 148.788709 55.637832 
L 149.020771 55.571005 
L 149.716956 55.728355 
L 149.949018 55.716896 
L 150.18108 55.546478 
L 150.413142 55.947777 
L 150.645204 55.50818 
L 150.877266 55.3159 
L 151.341389 55.299472 
L 151.805513 55.138828 
L 152.501699 54.673169 
L 153.197884 55.509242 
L 153.429946 55.49768 
L 153.662008 55.707433 
L 153.89407 55.741602 
L 154.358194 56.124843 
L 154.590255 55.910326 
L 154.822317 56.421628 
L 155.286441 55.979712 
L 155.518503 56.125595 
L 156.44675 56.111708 
L 156.678812 56.328543 
L 156.910874 56.34253 
L 157.142936 56.13788 
L 157.374998 56.324417 
L 157.839121 55.93222 
L 158.071183 56.077514 
L 158.303245 55.939355 
L 158.535307 56.326262 
L 158.767369 55.930137 
L 159.695616 55.849239 
L 161.087988 56.208951 
L 161.320049 56.209528 
L 162.016235 55.94627 
L 162.248297 56.285765 
L 162.480359 56.342136 
L 162.712421 56.236428 
L 162.944482 55.892614 
L 163.176544 55.970345 
L 163.408606 55.768574 
L 164.104792 55.813553 
L 164.336854 55.704008 
L 164.568915 55.81357 
L 164.800977 56.062823 
L 165.033039 56.015082 
L 165.497163 56.472006 
L 165.729225 56.354719 
L 165.961287 56.687793 
L 166.193348 56.435828 
L 166.42541 56.46752 
L 166.889534 57.240329 
L 167.817782 56.13746 
L 168.049843 56.09502 
L 168.281905 56.283596 
L 168.513967 56.317159 
L 168.746029 54.288949 
L 168.978091 54.962191 
L 169.210153 55.114994 
L 169.674276 54.006818 
L 170.1384 54.303002 
L 170.370462 54.732486 
L 170.602524 54.871246 
L 170.834586 55.224005 
L 171.066648 54.961629 
L 171.530771 56.201103 
L 171.762833 55.846324 
L 172.226957 56.360235 
L 173.155204 57.436025 
L 173.387266 57.033536 
L 173.619328 57.277947 
L 173.85139 57.336091 
L 174.083452 57.119423 
L 174.779637 56.930278 
L 175.011699 57.179027 
L 175.243761 56.759023 
L 175.475823 56.593223 
L 175.707885 56.839781 
L 176.172009 56.912637 
L 176.40407 56.80662 
L 176.868194 57.05566 
L 177.100256 56.840412 
L 177.332318 56.882769 
L 177.56438 57.07185 
L 177.796442 56.723975 
L 178.492627 56.831629 
L 178.724689 57.944277 
L 178.956751 57.091366 
L 179.652937 56.393402 
L 179.884998 56.904522 
L 180.11706 56.949002 
L 180.349122 56.401812 
L 180.581184 56.989833 
L 180.813246 55.560789 
L 181.045308 55.131161 
L 181.509431 55.532164 
L 181.741493 55.205467 
L 181.973555 56.219496 
L 182.205617 54.576667 
L 182.437679 55.163927 
L 182.669741 56.614315 
L 182.901803 55.553185 
L 183.133864 56.33564 
L 183.365926 56.407097 
L 183.83005 55.930446 
L 184.062112 56.363737 
L 184.294174 55.828959 
L 184.526236 56.29367 
L 184.758297 56.487779 
L 184.990359 56.341112 
L 185.222421 55.723349 
L 185.686545 56.744511 
L 185.918607 56.260609 
L 186.150669 56.344673 
L 186.382731 56.579133 
L 186.846854 56.366374 
L 187.078916 56.48711 
L 187.310978 57.003383 
L 187.54304 56.64861 
L 187.775102 56.828639 
L 188.007164 56.856033 
L 188.703349 57.486803 
L 188.935411 57.497227 
L 189.167473 57.739791 
L 189.399535 57.288292 
L 189.631597 57.518529 
L 189.863658 57.520559 
L 190.09572 57.698694 
L 190.327782 58.127342 
L 190.559844 57.111965 
L 190.791906 57.341824 
L 191.488091 57.05849 
L 191.952215 56.651459 
L 192.184277 56.885573 
L 192.416339 57.858286 
L 192.648401 56.874954 
L 192.880463 56.577611 
L 193.344586 56.718613 
L 193.576648 56.49162 
L 193.80871 56.752052 
L 194.272834 56.412528 
L 194.504896 55.739266 
L 194.736958 55.573361 
L 194.969019 55.641012 
L 195.665205 55.461507 
L 196.129329 55.671559 
L 196.361391 56.238477 
L 196.825514 55.999507 
L 197.057576 56.381501 
L 197.5217 55.599793 
L 197.753762 55.583191 
L 197.985824 55.452493 
L 198.449947 55.789342 
L 198.682009 56.191025 
L 199.146133 56.027775 
L 199.378195 56.216389 
L 199.842319 56.167506 
L 200.07438 56.893554 
L 200.306442 56.585947 
L 200.770566 57.265985 
L 201.23469 56.935056 
L 201.698813 56.593466 
L 201.930875 56.145258 
L 202.162937 56.361093 
L 202.394999 56.11108 
L 202.859123 56.069161 
L 203.091185 56.365089 
L 203.78737 56.229914 
L 204.019432 57.929904 
L 204.251494 56.739534 
L 204.483556 56.442966 
L 204.715618 56.623695 
L 204.94768 56.518091 
L 205.179741 56.842023 
L 205.411803 56.322903 
L 205.643865 57.419695 
L 205.875927 56.383788 
L 206.107989 56.300486 
L 206.572113 56.407832 
L 206.804174 56.223661 
L 207.036236 56.199753 
L 207.268298 56.337677 
L 207.50036 56.868972 
L 207.964484 56.850236 
L 208.196546 56.521986 
L 208.428607 57.092075 
L 208.660669 57.183786 
L 208.892731 56.60475 
L 209.124793 56.738673 
L 209.588917 56.509791 
L 209.820979 56.174797 
L 210.05304 56.299052 
L 210.517164 56.192609 
L 210.749226 56.672104 
L 210.981288 56.107884 
L 211.445412 55.98566 
L 211.677474 56.351939 
L 211.909535 56.331207 
L 212.141597 56.03933 
L 212.373659 56.671281 
L 212.605721 55.910864 
L 212.837783 56.237944 
L 213.069845 55.95583 
L 213.301907 55.920988 
L 213.533968 56.113136 
L 213.76603 56.009519 
L 213.998092 56.073903 
L 214.230154 56.33476 
L 215.158401 56.024043 
L 216.086649 56.38665 
L 216.318711 56.072922 
L 216.550773 56.009204 
L 217.014896 56.117084 
L 217.246958 56.421211 
L 217.711082 56.238584 
L 218.175206 56.334633 
L 218.407268 56.824156 
L 218.639329 56.460922 
L 218.871391 56.447264 
L 219.103453 56.008382 
L 219.335515 56.189599 
L 219.567577 56.21693 
L 219.799639 56.953624 
L 220.031701 56.248853 
L 220.959948 56.320644 
L 221.424072 56.882718 
L 221.656134 56.719264 
L 222.120257 56.75107 
L 222.352319 56.553102 
L 222.584381 56.677476 
L 222.816443 57.234596 
L 223.048505 56.525918 
L 223.280567 56.449994 
L 223.512629 56.17541 
L 223.74469 56.501239 
L 223.976752 56.353896 
L 224.208814 56.0285 
L 224.440876 56.007467 
L 224.905 56.357572 
L 225.137062 56.104118 
L 225.369123 56.651528 
L 225.601185 56.33966 
L 225.833247 56.290563 
L 226.761495 56.908555 
L 226.993556 57.046346 
L 227.225618 56.950524 
L 227.45768 57.198094 
L 227.689742 57.086071 
L 228.153866 57.380776 
L 228.617989 57.409113 
L 229.778299 57.616524 
L 230.010361 56.830842 
L 230.474484 56.479775 
L 230.706546 56.34235 
L 230.938608 56.560982 
L 231.17067 56.216615 
L 231.402732 56.176399 
L 231.866856 56.662019 
L 232.098917 56.885084 
L 232.330979 56.615749 
L 232.563041 56.133448 
L 232.795103 56.276185 
L 233.027165 56.072011 
L 233.259227 56.470385 
L 233.491289 56.379628 
L 233.72335 56.06756 
L 233.955412 56.100707 
L 234.187474 56.435583 
L 234.419536 56.551141 
L 234.651598 56.100956 
L 234.88366 56.410258 
L 235.115722 55.709726 
L 235.579845 55.671663 
L 236.043969 55.943398 
L 236.276031 56.279045 
L 236.508093 55.720259 
L 236.972217 56.091407 
L 237.43634 56.026793 
L 237.900464 56.234155 
L 238.132526 56.704295 
L 238.364588 56.685833 
L 238.59665 56.940906 
L 238.828711 56.758579 
L 239.060773 56.275263 
L 239.292835 56.750517 
L 239.524897 56.712119 
L 239.756959 56.423549 
L 239.989021 56.916301 
L 240.221083 56.811472 
L 240.453144 56.414974 
L 240.685206 57.060335 
L 240.917268 56.57447 
L 241.14933 56.91261 
L 241.381392 56.980664 
L 241.613454 56.84855 
L 242.077577 56.985075 
L 242.309639 56.536881 
L 242.541701 56.673462 
L 242.773763 56.516085 
L 243.237887 56.569405 
L 243.469949 56.441349 
L 243.934072 56.498393 
L 244.166134 57.005511 
L 244.398196 56.710361 
L 244.630258 56.697434 
L 244.86232 57.767773 
L 245.094382 57.007514 
L 245.326444 56.815318 
L 245.558505 57.048106 
L 245.790567 56.341914 
L 246.022629 56.660126 
L 246.486753 56.130958 
L 246.718815 56.907702 
L 246.950877 56.820207 
L 247.182938 56.348523 
L 247.415 56.206593 
L 247.647062 57.26788 
L 247.879124 56.370089 
L 248.111186 56.159063 
L 248.343248 56.345385 
L 248.57531 56.112414 
L 248.807371 56.429953 
L 249.039433 56.943797 
L 249.503557 57.204014 
L 249.735619 57.26426 
L 249.967681 56.900866 
L 250.199743 57.40693 
L 250.431805 56.806601 
L 250.663866 56.819435 
L 250.895928 57.364332 
L 251.12799 56.934474 
L 251.360052 56.833797 
L 251.592114 56.58508 
L 251.824176 56.16773 
L 252.288299 56.311188 
L 252.520361 57.077671 
L 252.752423 57.299158 
L 252.984485 56.667065 
L 253.216547 57.391533 
L 253.448609 57.400407 
L 253.680671 57.627241 
L 254.144794 57.622785 
L 254.376856 57.093132 
L 254.608918 57.644346 
L 254.84098 56.907569 
L 255.073042 57.669194 
L 256.001289 57.762069 
L 256.233351 56.833587 
L 257.857784 56.193598 
L 258.55397 56.059113 
L 259.018093 56.210593 
L 259.714279 56.189277 
L 259.946341 56.178721 
L 260.178403 56.385731 
L 260.410465 57.388363 
L 260.642526 57.230078 
L 260.874588 57.384059 
L 261.338712 56.78739 
L 262.034898 56.420905 
L 262.731083 56.069381 
L 262.963145 56.271551 
L 263.427269 55.797932 
L 263.659331 56.502826 
L 264.123454 56.709969 
L 264.355516 57.073715 
L 264.587578 57.185373 
L 264.81964 56.613983 
L 265.051702 57.615493 
L 265.283764 57.786035 
L 265.515826 57.451332 
L 265.747887 56.893475 
L 265.979949 56.846594 
L 266.212011 57.127857 
L 266.444073 57.053877 
L 266.676135 57.183094 
L 266.908197 58.736916 
L 267.140259 57.135027 
L 267.37232 57.095968 
L 267.604382 57.607456 
L 267.836444 56.656165 
L 268.300568 56.585006 
L 268.996754 56.597135 
L 269.228815 56.707841 
L 269.460877 56.637567 
L 269.692939 58.167581 
L 269.925001 57.044123 
L 270.389125 56.867769 
L 270.621187 56.759726 
L 270.853248 57.908445 
L 271.08531 57.915287 
L 271.317372 57.632581 
L 271.549434 57.158536 
L 272.013558 56.841748 
L 272.24562 56.692475 
L 272.477681 56.764127 
L 273.173867 56.49366 
L 273.405929 56.885791 
L 273.637991 56.654173 
L 274.334176 56.525099 
L 275.030362 56.791766 
L 275.262424 57.112075 
L 275.494486 56.715926 
L 276.422733 57.191419 
L 276.654795 57.610442 
L 276.886857 57.611549 
L 277.118919 56.823758 
L 277.350981 57.52623 
L 277.815104 56.408938 
L 278.047166 56.619009 
L 278.279228 56.454595 
L 278.51129 56.068797 
L 278.743352 56.277076 
L 279.207475 56.065779 
L 279.439537 56.025554 
L 279.671599 56.123467 
L 279.903661 55.714912 
L 280.135723 55.543367 
L 280.367785 55.135336 
L 280.599847 55.180165 
L 281.296032 54.881025 
L 281.528094 55.013236 
L 281.760156 54.989154 
L 281.992218 54.764282 
L 282.22428 55.16314 
L 282.456342 55.221831 
L 282.688403 54.981304 
L 282.920465 55.851048 
L 283.384589 56.480077 
L 283.616651 56.770705 
L 283.848713 57.466027 
L 284.312836 58.001325 
L 284.544898 58.648284 
L 284.77696 58.527159 
L 285.009022 58.684394 
L 285.705208 58.739907 
L 285.937269 58.627146 
L 286.169331 58.953991 
L 286.401393 58.839575 
L 286.633455 58.429187 
L 286.865517 58.57756 
L 287.097579 58.415609 
L 287.329641 58.117082 
L 287.561703 58.142811 
L 287.793764 57.834327 
L 288.025826 57.78608 
L 288.257888 58.406989 
L 288.48995 57.692796 
L 288.954074 57.273257 
L 289.186136 57.329514 
L 289.418197 57.577883 
L 289.650259 57.365185 
L 290.114383 57.767512 
L 290.578507 57.22947 
L 290.810569 57.240829 
L 291.04263 56.955562 
L 291.274692 57.802703 
L 291.506754 56.77297 
L 291.738816 57.755563 
L 291.970878 56.652322 
L 292.20294 57.546699 
L 292.435002 57.390244 
L 292.667063 57.383321 
L 293.131187 55.502713 
L 293.595311 56.26771 
L 293.827373 57.694806 
L 294.059435 57.221628 
L 294.291497 56.138299 
L 294.523558 56.632071 
L 294.75562 56.851597 
L 294.987682 56.071101 
L 295.219744 55.714439 
L 295.91593 57.064077 
L 296.147991 57.077569 
L 296.380053 57.650286 
L 296.612115 53.568 
L 296.844177 55.648989 
L 297.076239 56.192252 
L 297.540363 58.782438 
L 297.772424 58.009917 
L 298.004486 59.061259 
L 298.236548 57.502682 
L 298.46861 57.844794 
L 298.700672 57.900609 
L 298.932734 57.803177 
L 299.164796 58.483847 
L 299.628919 58.297315 
L 299.860981 61.703376 
L 300.093043 59.166867 
L 300.325105 57.931026 
L 300.789229 59.124785 
L 301.021291 59.036072 
L 301.253352 57.901056 
L 301.485414 58.419835 
L 301.717476 57.449205 
L 301.949538 58.45143 
L 302.1816 57.726456 
L 302.413662 57.875442 
L 302.645724 59.794694 
L 303.109847 56.785859 
L 303.341909 56.155189 
L 303.573971 55.944061 
L 303.806033 56.534735 
L 304.038095 55.830912 
L 304.270157 55.65394 
L 304.502218 56.160756 
L 304.73428 57.792948 
L 304.966342 57.423348 
L 305.198404 57.337346 
L 305.430466 57.634028 
L 305.662528 57.423888 
L 305.89459 57.78016 
L 306.126652 57.787865 
L 306.358713 60.002154 
L 306.590775 58.125834 
L 306.822837 58.418856 
L 307.054899 57.121749 
L 307.983146 57.005083 
L 308.215208 57.486576 
L 308.44727 58.312069 
L 308.679332 58.461284 
L 308.911394 57.813958 
L 309.143456 57.740603 
L 309.375518 57.507525 
L 309.607579 58.781441 
L 309.839641 57.619858 
L 310.071703 58.244566 
L 310.303765 58.015941 
L 310.767889 58.240898 
L 310.999951 57.425245 
L 311.232012 58.054589 
L 311.464074 60.317787 
L 311.696136 59.795038 
L 311.928198 58.170611 
L 312.16026 57.424626 
L 312.392322 57.46845 
L 312.856446 56.682728 
L 313.088507 56.044369 
L 313.320569 56.81426 
L 313.784693 56.28915 
L 314.016755 58.361309 
L 314.248817 57.618188 
L 314.480879 57.64677 
L 314.71294 57.464112 
L 314.945002 57.585309 
L 315.177064 58.635022 
L 315.641188 56.526381 
L 315.87325 57.003974 
L 316.105312 56.933689 
L 316.337373 58.040969 
L 316.569435 57.705088 
L 316.801497 59.403877 
L 317.033559 59.008991 
L 317.265621 57.037019 
L 317.729745 57.529206 
L 317.961806 57.242261 
L 318.193868 57.242526 
L 318.657992 56.922186 
L 318.890054 57.089071 
L 319.354178 57.751238 
L 319.58624 57.098727 
L 319.818301 56.846777 
L 320.282425 57.665095 
L 320.514487 58.508853 
L 320.746549 57.461261 
L 320.978611 58.064002 
L 321.442734 56.442213 
L 321.674796 56.91335 
L 321.906858 56.915063 
L 322.13892 57.09442 
L 322.370982 58.356731 
L 322.835106 56.241585 
L 323.067167 55.981894 
L 324.227477 57.123921 
L 324.459539 57.02188 
L 324.6916 57.1535 
L 324.923662 57.4694 
L 325.155724 57.595753 
L 325.387786 57.359983 
L 325.619848 57.59635 
L 325.85191 58.180465 
L 326.083972 57.683302 
L 326.316034 57.530115 
L 327.012219 57.68682 
L 327.244281 58.035652 
L 327.476343 57.427682 
L 327.708405 57.424801 
L 327.940467 57.672646 
L 328.40459 57.426236 
L 328.636652 57.609773 
L 328.868714 57.245842 
L 329.332838 57.698585 
L 329.5649 56.897541 
L 329.796961 57.402397 
L 330.029023 57.304379 
L 330.493147 57.426801 
L 330.725209 57.839794 
L 330.957271 57.463048 
L 331.189333 57.735393 
L 331.421395 57.596227 
L 331.653456 57.976119 
L 332.11758 57.104035 
L 332.349642 57.272827 
L 332.581704 57.019373 
L 332.813766 58.397362 
L 333.045828 57.412803 
L 333.277889 57.292296 
L 333.509951 58.3917 
L 334.206137 57.775076 
L 334.438199 57.89741 
L 334.670261 58.314181 
L 334.902322 58.39214 
L 335.134384 58.797654 
L 335.598508 58.026907 
L 336.526755 57.916091 
L 336.758817 57.866875 
L 336.990879 57.972471 
L 337.222941 57.789157 
L 337.455003 58.091544 
L 337.687065 57.513668 
L 337.919127 57.676959 
L 338.151189 57.29691 
L 338.38325 57.392242 
L 338.615312 58.858981 
L 338.847374 57.687077 
L 339.311498 57.668991 
L 339.54356 57.864243 
L 339.775622 57.840456 
L 340.007683 58.151343 
L 340.239745 57.673053 
L 340.471807 58.353252 
L 340.703869 57.808707 
L 340.935931 57.960777 
L 341.167993 56.852794 
L 341.400055 57.356989 
L 341.632116 56.660245 
L 341.864178 57.326605 
L 342.09624 56.750134 
L 342.328302 56.974601 
L 342.560364 56.813736 
L 342.792426 57.122404 
L 343.024488 56.960921 
L 343.720673 56.83251 
L 343.952735 56.99119 
L 344.184797 57.012652 
L 344.416859 57.341408 
L 344.648921 57.010394 
L 345.345106 57.124198 
L 345.577168 57.512938 
L 346.273354 57.569475 
L 346.737477 57.778251 
L 346.969539 58.221212 
L 347.665725 57.111053 
L 349.058096 57.862935 
L 349.290158 58.326516 
L 349.52222 57.766619 
L 349.754282 57.975444 
L 349.986343 57.807977 
L 350.218405 58.065579 
L 350.450467 57.542694 
L 350.682529 58.057014 
L 350.914591 58.21816 
L 351.146653 57.642197 
L 352.539024 57.371358 
L 352.771086 57.520072 
L 353.003148 56.976719 
L 353.23521 57.217994 
L 353.467271 57.229474 
L 353.699333 57.107294 
L 353.931395 57.300515 
L 354.395519 57.217619 
L 354.627581 57.119338 
L 355.555828 57.281625 
L 355.78789 58.590637 
L 356.019952 58.10118 
L 356.484076 57.913653 
L 356.716138 57.900618 
L 356.948199 58.456048 
L 357.180261 57.885429 
L 357.876447 57.744777 
L 358.108509 58.026143 
L 358.340571 57.605935 
L 358.572632 57.565744 
L 358.804694 57.29051 
L 359.036756 57.863578 
L 359.268818 57.314407 
L 360.197065 57.118063 
L 360.661189 57.336408 
L 360.893251 57.393741 
L 361.125313 57.810507 
L 361.357375 57.637797 
L 361.589437 57.663497 
L 361.821498 58.051841 
L 362.05356 57.709412 
L 362.285622 58.119301 
L 362.517684 57.748143 
L 362.749746 57.663082 
L 362.981808 58.014808 
L 363.21387 58.060424 
L 363.445932 57.732416 
L 364.374179 57.337568 
L 365.070365 57.274285 
L 365.302426 58.014541 
L 365.534488 57.393801 
L 365.76655 57.345834 
L 365.998612 58.026518 
L 366.230674 57.97978 
L 366.462736 58.252604 
L 366.694798 57.77628 
L 366.926859 57.579511 
L 367.390983 57.656672 
L 367.623045 59.050324 
L 367.855107 57.853488 
L 368.087169 58.044798 
L 368.319231 57.872324 
L 368.551292 58.036884 
L 369.247478 57.602658 
L 369.47954 57.910603 
L 369.711602 57.636015 
L 370.175726 57.819244 
L 370.407787 57.632646 
L 371.103973 57.984998 
L 371.336035 57.8559 
L 371.568097 57.485981 
L 371.800159 58.010823 
L 372.03222 57.468166 
L 372.728406 58.137646 
L 372.960468 57.832294 
L 373.888715 57.55137 
L 374.120777 57.982025 
L 374.584901 57.731808 
L 374.816963 57.863793 
L 375.049025 57.747565 
L 375.281086 57.852197 
L 375.513148 57.672153 
L 375.977272 57.953577 
L 376.209334 57.769391 
L 376.441396 57.754561 
L 376.673458 58.209789 
L 377.137581 58.109109 
L 377.833767 58.084454 
L 378.065829 57.937149 
L 378.297891 57.608834 
L 378.529953 57.528608 
L 378.762014 57.669303 
L 378.994076 57.586119 
L 379.226138 58.087936 
L 379.922324 57.693432 
L 380.154386 57.946668 
L 380.386447 57.617256 
L 380.850571 57.795705 
L 381.082633 57.588341 
L 381.546757 58.308525 
L 381.778819 58.301092 
L 382.01088 58.09325 
L 382.242942 58.162688 
L 382.475004 58.533217 
L 382.707066 57.960138 
L 382.939128 58.389785 
L 383.17119 57.894645 
L 383.403252 57.980685 
L 383.635314 57.585809 
L 383.867375 57.42985 
L 384.099437 57.580972 
L 384.331499 58.24645 
L 384.563561 58.167226 
L 385.027685 58.64365 
L 385.259747 58.690145 
L 385.491808 58.112927 
L 385.72387 58.038601 
L 385.955932 58.789885 
L 386.187994 58.329747 
L 386.652118 58.559454 
L 386.88418 58.515388 
L 387.116241 58.773292 
L 387.348303 58.490424 
L 387.580365 58.683971 
L 387.812427 58.452148 
L 388.276551 58.36345 
L 388.508613 59.013231 
L 388.740675 59.142185 
L 388.972736 58.519058 
L 389.204798 58.523364 
L 389.43686 58.76087 
L 389.668922 58.743531 
L 390.133046 58.344784 
L 390.365108 58.699379 
L 391.061293 58.339345 
L 391.293355 58.472888 
L 391.757479 58.058295 
L 391.989541 58.217491 
L 392.221602 58.871551 
L 392.453664 58.565509 
L 392.685726 57.284092 
L 392.917788 57.702641 
L 393.14985 57.573846 
L 393.381912 58.01843 
L 393.613974 57.586613 
L 393.846035 58.404059 
L 394.078097 58.464548 
L 394.310159 57.913703 
L 394.542221 57.705485 
L 394.774283 57.957466 
L 395.006345 58.016958 
L 395.238407 58.65925 
L 395.470469 58.148515 
L 395.70253 58.39411 
L 396.166654 58.162124 
L 396.630778 58.396809 
L 396.86284 59.188604 
L 397.094902 58.632187 
L 397.326963 58.493397 
L 397.791087 58.459245 
L 398.023149 58.793727 
L 398.487273 58.627776 
L 398.487273 58.627776 
" style="fill:none;stroke:#1f77b4;stroke-linecap:square;stroke-width:1.5;"/>
   </g>
   <g id="line2d_18">
    <path clip-path="url(#pbf31635afe)" d="M 73.832727 279.916808 
L 74.064789 282.824501 
L 74.296851 283.358132 
L 74.528913 280.402641 
L 74.760975 282.805169 
L 74.993037 278.087651 
L 75.225098 280.840307 
L 75.45716 281.609892 
L 75.689222 284.400547 
L 75.921284 282.91757 
L 76.153346 283.991388 
L 76.385408 281.438269 
L 76.61747 281.27066 
L 76.849531 283.798879 
L 77.081593 283.895469 
L 77.313655 282.803885 
L 77.545717 283.396253 
L 77.777779 285.110754 
L 78.009841 280.772426 
L 78.241903 280.156264 
L 78.473965 284.951305 
L 78.706026 284.607986 
L 78.938088 285.105957 
L 79.17015 281.156789 
L 79.402212 281.243843 
L 79.634274 277.743864 
L 79.866336 280.633257 
L 80.794583 280.441801 
L 81.026645 280.385903 
L 81.258707 280.44489 
L 81.490769 277.651954 
L 81.722831 277.742458 
L 81.954892 278.140676 
L 82.88314 278.371676 
L 83.115202 278.151275 
L 83.347264 278.133843 
L 83.811387 282.541032 
L 84.043449 278.785956 
L 84.507573 283.637999 
L 84.739635 283.467767 
L 84.971697 285.954584 
L 85.203759 283.494107 
L 85.43582 285.031549 
L 85.667882 282.071509 
L 85.899944 281.823806 
L 86.132006 282.541427 
L 86.364068 279.957888 
L 86.828192 284.57079 
L 87.060253 284.331293 
L 87.292315 283.266015 
L 87.524377 284.184534 
L 87.756439 278.175023 
L 87.988501 284.680142 
L 88.452625 281.691911 
L 88.684686 288.144566 
L 88.916748 279.634354 
L 89.380872 285.511748 
L 89.844996 282.533179 
L 90.077058 282.707902 
L 90.30912 283.177148 
L 90.541181 284.415167 
L 90.773243 284.60088 
L 91.005305 284.989659 
L 91.237367 280.161798 
L 91.469429 280.765797 
L 91.701491 278.860221 
L 91.933553 280.12196 
L 92.165614 280.260505 
L 92.397676 280.60192 
L 92.629738 281.829585 
L 92.8618 282.348347 
L 93.093862 285.593191 
L 93.325924 282.012921 
L 93.790047 285.252835 
L 94.254171 281.130672 
L 94.486233 285.156884 
L 94.718295 282.331852 
L 94.950357 286.045757 
L 95.182419 286.761572 
L 95.41448 287.035303 
L 95.646542 285.831879 
L 96.110666 286.347251 
L 96.342728 287.062994 
L 96.57479 281.391859 
L 96.806852 280.016103 
L 97.038914 281.029695 
L 97.270975 280.948653 
L 97.503037 285.810911 
L 97.967161 284.04101 
L 98.199223 279.546339 
L 98.431285 278.730843 
L 98.663347 278.589753 
L 98.895408 283.599972 
L 99.12747 284.521008 
L 99.359532 285.962806 
L 99.591594 286.066095 
L 99.823656 279.948868 
L 100.28778 280.522516 
L 100.519841 280.116874 
L 100.751903 278.860212 
L 100.983965 280.00967 
L 101.680151 280.485098 
L 101.912213 279.426376 
L 102.144274 284.559537 
L 102.376336 281.929726 
L 102.608398 282.925143 
L 102.84046 281.673235 
L 103.072522 283.218666 
L 103.304584 281.888209 
L 103.536646 281.992201 
L 103.768708 283.623553 
L 104.000769 282.170323 
L 104.232831 281.819665 
L 104.464893 285.987623 
L 104.696955 281.826372 
L 104.929017 286.596446 
L 105.161079 281.713483 
L 105.393141 280.310446 
L 105.625202 280.338137 
L 105.857264 286.679743 
L 106.321388 284.112461 
L 106.785512 286.40455 
L 107.481697 282.090765 
L 107.945821 283.964166 
L 108.177883 283.93214 
L 108.409945 284.352448 
L 108.642007 285.592342 
L 108.874068 285.047699 
L 109.10613 285.330284 
L 109.338192 281.267129 
L 109.570254 283.280074 
L 109.802316 281.50775 
L 110.034378 282.157672 
L 110.26644 283.789822 
L 110.730563 284.471426 
L 110.962625 282.50987 
L 111.194687 283.185938 
L 111.426749 283.315347 
L 111.658811 283.654609 
L 111.890873 279.558783 
L 112.122935 282.036134 
L 112.354996 280.024539 
L 112.587058 282.046061 
L 112.81912 277.530273 
L 113.051182 278.276553 
L 113.283244 276.458258 
L 113.515306 283.542496 
L 113.979429 282.890645 
L 114.211491 285.763172 
L 114.443553 283.691757 
L 114.907677 286.434379 
L 115.139739 282.342384 
L 115.371801 286.268873 
L 115.603862 283.298531 
L 115.835924 282.796979 
L 116.067986 279.468366 
L 116.300048 284.698289 
L 116.764172 272.812878 
L 116.996234 283.820146 
L 117.228296 283.552861 
L 117.460357 282.843938 
L 117.692419 285.469839 
L 117.924481 285.610663 
L 118.156543 282.591892 
L 118.620667 284.069607 
L 118.852729 283.924695 
L 119.08479 282.15669 
L 119.316852 281.722154 
L 119.548914 282.113654 
L 119.780976 280.942281 
L 120.013038 284.982336 
L 120.2451 283.015015 
L 120.477162 278.246448 
L 120.941285 283.7528 
L 121.173347 284.737967 
L 121.405409 283.370796 
L 121.637471 283.483846 
L 121.869533 282.991795 
L 122.101595 284.288274 
L 122.565718 277.640468 
L 122.79778 280.115902 
L 123.029842 286.89693 
L 123.261904 283.33406 
L 123.493966 282.570474 
L 123.726028 282.63442 
L 123.95809 284.50243 
L 124.190151 285.00548 
L 124.422213 283.247166 
L 124.654275 283.752786 
L 124.886337 283.944028 
L 125.118399 280.747625 
L 125.350461 283.766449 
L 125.582523 283.926384 
L 125.814584 279.813633 
L 126.046646 283.929607 
L 126.278708 281.603312 
L 126.51077 282.444292 
L 126.742832 281.532783 
L 126.974894 281.163666 
L 127.206956 280.010645 
L 127.439017 283.179446 
L 127.671079 270.723629 
L 127.903141 274.572165 
L 128.135203 285.801147 
L 128.599327 282.229406 
L 128.831389 283.966104 
L 129.063451 284.224974 
L 129.295512 284.183942 
L 129.527574 280.844996 
L 129.759636 283.025629 
L 129.991698 282.15312 
L 130.22376 282.264324 
L 130.455822 280.843564 
L 130.687884 282.332974 
L 130.919945 282.415331 
L 131.152007 285.725288 
L 131.384069 284.683584 
L 131.848193 279.636726 
L 132.080255 277.596471 
L 132.312317 278.162582 
L 132.544378 280.625457 
L 132.77644 281.167319 
L 133.008502 278.629152 
L 133.704688 283.855462 
L 133.93675 281.956876 
L 134.400873 283.930469 
L 134.632935 283.165112 
L 134.864997 278.912099 
L 135.097059 285.353979 
L 135.329121 282.584978 
L 135.561183 282.279754 
L 135.793245 283.794446 
L 136.025306 281.422864 
L 136.257368 284.698041 
L 136.48943 283.559949 
L 136.721492 286.227207 
L 136.953554 284.200252 
L 137.185616 283.983375 
L 137.417678 281.436171 
L 137.649739 281.94339 
L 137.881801 276.381778 
L 138.113863 284.482344 
L 138.345925 281.085163 
L 138.577987 279.921715 
L 138.810049 285.554481 
L 139.042111 286.339359 
L 139.274172 283.075386 
L 139.506234 283.368513 
L 139.738296 284.210956 
L 139.970358 283.869627 
L 140.20242 277.48056 
L 140.434482 283.546465 
L 140.666544 283.66052 
L 140.898605 281.672561 
L 141.130667 282.121466 
L 141.362729 279.455941 
L 141.594791 281.662187 
L 142.058915 282.189058 
L 142.290977 280.644499 
L 142.523039 285.023277 
L 142.7551 284.001093 
L 142.987162 285.653498 
L 143.219224 282.238292 
L 143.451286 284.877082 
L 143.683348 285.496375 
L 143.91541 280.356997 
L 144.147472 279.821299 
L 144.379533 283.400616 
L 144.611595 283.732581 
L 144.843657 283.830126 
L 145.075719 285.079508 
L 145.307781 284.21354 
L 145.539843 285.821057 
L 145.771905 284.353763 
L 146.003966 283.951626 
L 146.236028 284.585783 
L 146.46809 284.02673 
L 146.700152 283.132581 
L 146.932214 284.39647 
L 147.396338 279.461415 
L 147.6284 286.570405 
L 147.860461 285.874501 
L 148.092523 282.332687 
L 148.324585 284.923271 
L 148.556647 281.881504 
L 148.788709 283.8408 
L 149.020771 280.786495 
L 149.484894 284.223361 
L 149.716956 280.877077 
L 149.949018 284.260511 
L 150.18108 283.278526 
L 150.413142 283.489018 
L 150.645204 283.416805 
L 150.877266 278.182941 
L 151.109327 283.508304 
L 151.341389 284.353153 
L 151.573451 282.188077 
L 152.037575 283.221613 
L 152.269637 283.549035 
L 152.501699 285.024317 
L 152.73376 284.544358 
L 152.965822 283.576596 
L 153.197884 283.544389 
L 153.429946 281.053593 
L 153.662008 282.652339 
L 153.89407 282.43441 
L 154.126132 285.152546 
L 154.590255 281.123417 
L 154.822317 284.682709 
L 155.054379 278.201976 
L 155.286441 284.890166 
L 155.518503 285.301114 
L 155.750565 284.669061 
L 155.982627 293.092991 
L 156.214688 287.040178 
L 156.44675 284.107139 
L 156.678812 285.268655 
L 156.910874 284.969022 
L 157.142936 284.472773 
L 157.374998 281.621795 
L 157.60706 281.562061 
L 157.839121 281.860295 
L 158.071183 282.505286 
L 158.303245 282.603318 
L 158.535307 280.162412 
L 158.767369 281.506008 
L 158.999431 279.515281 
L 159.231493 282.651101 
L 159.463554 277.346193 
L 159.695616 279.260987 
L 159.927678 279.163955 
L 160.15974 281.220384 
L 160.391802 281.414411 
L 160.855926 280.527849 
L 161.087988 280.486117 
L 161.320049 283.881792 
L 161.552111 283.854916 
L 161.784173 283.549767 
L 162.016235 286.139117 
L 162.480359 288.127615 
L 162.712421 284.358159 
L 162.944482 286.137522 
L 163.176544 285.595482 
L 163.408606 286.40927 
L 163.640668 284.382182 
L 163.87273 284.25587 
L 164.104792 287.104302 
L 164.568915 284.672895 
L 164.800977 286.403726 
L 165.033039 283.673832 
L 165.265101 286.189363 
L 165.497163 284.582018 
L 165.729225 286.546336 
L 166.193348 283.412773 
L 166.42541 285.708805 
L 166.657472 284.928027 
L 166.889534 284.809428 
L 167.121596 285.520425 
L 167.353658 282.839762 
L 167.58572 283.514628 
L 168.049843 283.279604 
L 168.281905 285.809038 
L 168.513967 283.843683 
L 168.978091 285.581129 
L 169.210153 284.84241 
L 169.442215 288.718547 
L 169.906338 285.066676 
L 170.1384 284.042095 
L 170.370462 286.622858 
L 170.834586 286.767728 
L 171.066648 286.120721 
L 171.298709 286.188704 
L 171.530771 286.003677 
L 171.762833 286.306517 
L 171.994895 286.373773 
L 172.226957 286.150949 
L 172.459019 285.397294 
L 172.691081 285.513708 
L 172.923143 287.325363 
L 173.155204 286.772428 
L 173.387266 287.301762 
L 173.619328 286.585467 
L 173.85139 287.446132 
L 174.083452 286.315555 
L 174.315514 287.069132 
L 174.547576 287.048433 
L 174.779637 285.827756 
L 175.011699 285.250566 
L 175.243761 286.088334 
L 175.475823 285.70442 
L 175.707885 286.292924 
L 175.939947 286.550625 
L 176.172009 285.184761 
L 176.40407 286.229514 
L 176.636132 283.418699 
L 176.868194 283.839447 
L 177.100256 283.407742 
L 177.332318 283.346259 
L 177.56438 284.04422 
L 177.796442 285.418392 
L 178.028503 286.019345 
L 178.492627 284.802686 
L 178.724689 284.415599 
L 179.188813 286.681361 
L 179.420875 284.27479 
L 179.652937 284.945692 
L 180.11706 282.938083 
L 180.349122 283.722526 
L 180.581184 279.071832 
L 180.813246 280.203851 
L 181.045308 285.897324 
L 181.509431 285.750634 
L 181.741493 286.354566 
L 181.973555 286.171764 
L 182.205617 284.426028 
L 182.437679 284.506321 
L 182.669741 279.05721 
L 182.901803 279.417781 
L 183.133864 278.838078 
L 183.365926 285.552943 
L 183.597988 279.399762 
L 183.83005 278.135411 
L 184.062112 279.099616 
L 184.294174 279.168773 
L 184.526236 285.22186 
L 184.758297 285.439238 
L 184.990359 280.192047 
L 185.222421 281.773793 
L 185.454483 280.251012 
L 185.686545 280.569152 
L 185.918607 285.213827 
L 186.150669 281.659627 
L 186.382731 284.930656 
L 186.614792 284.098343 
L 187.078916 285.648449 
L 187.310978 285.213301 
L 187.54304 283.415385 
L 188.007164 283.37086 
L 188.239225 283.283089 
L 188.471287 285.194785 
L 188.703349 283.242982 
L 188.935411 283.323906 
L 189.167473 282.726789 
L 189.399535 283.712856 
L 189.631597 283.195009 
L 189.863658 285.006491 
L 190.09572 284.51487 
L 190.559844 286.031377 
L 190.791906 284.339984 
L 191.023968 285.092852 
L 191.25603 283.335618 
L 191.488091 285.596459 
L 191.720153 284.833499 
L 191.952215 284.982023 
L 192.184277 286.186395 
L 192.416339 285.296405 
L 192.648401 283.38813 
L 192.880463 284.900009 
L 193.112525 282.005292 
L 193.344586 285.487727 
L 193.576648 285.543024 
L 193.80871 285.38409 
L 194.040772 285.421826 
L 194.272834 285.590728 
L 194.504896 286.991115 
L 194.736958 285.409529 
L 194.969019 285.6965 
L 195.201081 286.484317 
L 195.433143 286.286074 
L 195.665205 283.017478 
L 195.897267 285.77598 
L 196.129329 285.775354 
L 196.593452 287.41911 
L 196.825514 286.503972 
L 197.057576 286.269364 
L 197.289638 287.174584 
L 197.5217 286.530553 
L 197.753762 284.054748 
L 197.985824 285.456705 
L 198.217886 285.740765 
L 198.449947 283.376418 
L 198.682009 284.765723 
L 199.146133 286.032499 
L 199.378195 285.783152 
L 199.610257 280.329066 
L 199.842319 284.286095 
L 200.07438 284.03581 
L 200.306442 279.803062 
L 200.538504 284.012869 
L 200.770566 284.104937 
L 201.002628 287.032101 
L 201.23469 288.235279 
L 201.466752 286.012782 
L 201.930875 286.80906 
L 202.162937 286.465094 
L 202.394999 284.549157 
L 202.627061 283.775174 
L 202.859123 284.943627 
L 203.091185 281.183093 
L 203.323246 282.996766 
L 203.555308 282.237471 
L 203.78737 287.126139 
L 204.019432 284.058 
L 204.251494 284.523285 
L 204.483556 285.772288 
L 204.94768 283.211034 
L 205.179741 285.645516 
L 205.411803 283.808812 
L 205.643865 287.453357 
L 205.875927 286.139986 
L 206.107989 274.523398 
L 206.340051 283.882869 
L 206.572113 284.898955 
L 206.804174 285.062789 
L 207.036236 286.478761 
L 207.268298 285.675995 
L 207.964484 285.983223 
L 208.660669 286.082812 
L 209.124793 286.002209 
L 210.285102 285.626476 
L 210.517164 286.582643 
L 210.981288 286.488908 
L 211.21335 286.321224 
L 211.445412 287.263254 
L 211.677474 285.582608 
L 212.141597 286.494108 
L 212.373659 285.703491 
L 212.605721 286.397481 
L 212.837783 285.760295 
L 213.069845 286.542997 
L 213.533968 286.686271 
L 213.76603 286.891588 
L 213.998092 286.746538 
L 214.230154 287.667721 
L 214.462216 287.835585 
L 214.694278 285.58064 
L 214.92634 286.619051 
L 215.158401 285.22398 
L 215.390463 286.4862 
L 215.622525 286.42342 
L 215.854587 285.354133 
L 216.318711 287.96907 
L 216.550773 287.324668 
L 216.782834 287.311522 
L 217.014896 287.459453 
L 217.246958 286.644393 
L 217.47902 286.529173 
L 217.711082 286.791902 
L 217.943144 285.257797 
L 218.175206 285.239872 
L 218.407268 286.06377 
L 218.639329 286.064016 
L 218.871391 285.161159 
L 219.103453 281.915012 
L 219.335515 285.780668 
L 219.567577 281.327364 
L 219.799639 284.977725 
L 220.031701 285.207988 
L 220.263762 284.438756 
L 221.424072 284.427865 
L 221.656134 285.437622 
L 221.888195 285.485915 
L 222.120257 284.40894 
L 222.352319 285.600468 
L 222.816443 285.709594 
L 223.048505 283.976147 
L 223.280567 286.801818 
L 223.512629 286.190803 
L 223.74469 286.23719 
L 223.976752 286.492928 
L 224.208814 286.256212 
L 224.440876 285.065882 
L 224.672938 286.179194 
L 224.905 286.633131 
L 225.137062 286.078894 
L 225.369123 287.4625 
L 225.601185 286.969961 
L 225.833247 286.753726 
L 226.065309 286.285787 
L 226.529433 283.208312 
L 226.761495 283.147492 
L 226.993556 285.193542 
L 227.225618 285.363716 
L 227.45768 285.370822 
L 227.921804 285.558716 
L 228.385928 285.6284 
L 228.617989 286.876352 
L 229.082113 282.421322 
L 229.546237 282.272998 
L 229.778299 286.499119 
L 230.010361 286.03441 
L 230.242423 287.049457 
L 230.474484 285.775105 
L 230.706546 286.503701 
L 230.938608 286.554146 
L 231.17067 286.121149 
L 232.330979 285.889456 
L 232.563041 285.85417 
L 232.795103 285.698005 
L 233.027165 285.826507 
L 233.491289 285.73657 
L 233.72335 282.391076 
L 233.955412 284.90341 
L 234.419536 286.66588 
L 234.651598 286.836783 
L 234.88366 285.88249 
L 235.115722 285.518082 
L 235.347783 284.942933 
L 235.579845 285.176732 
L 235.811907 285.095025 
L 236.043969 285.23675 
L 236.276031 285.523025 
L 236.740155 285.482878 
L 236.972217 285.248334 
L 237.204278 285.234413 
L 237.43634 285.094425 
L 237.900464 286.061071 
L 238.364588 285.873288 
L 238.59665 285.975732 
L 238.828711 285.698551 
L 239.060773 285.99659 
L 239.292835 285.000993 
L 239.756959 284.935175 
L 239.989021 283.793778 
L 240.221083 283.736477 
L 240.453144 285.1063 
L 240.685206 285.632862 
L 240.917268 285.555627 
L 241.14933 285.234259 
L 241.381392 286.138521 
L 241.613454 286.387698 
L 241.845516 286.174226 
L 242.077577 288.680212 
L 242.309639 286.643271 
L 242.773763 288.998869 
L 243.005825 286.549782 
L 243.237887 287.534107 
L 243.469949 286.59348 
L 243.934072 287.127456 
L 244.398196 286.960145 
L 245.326444 288.087857 
L 245.558505 286.437361 
L 245.790567 286.467418 
L 246.022629 286.824802 
L 246.254691 287.418896 
L 246.486753 286.575328 
L 246.718815 286.506451 
L 246.950877 284.164047 
L 247.182938 284.479431 
L 247.415 284.486473 
L 247.647062 284.656904 
L 248.343248 284.581446 
L 248.57531 285.046924 
L 248.807371 284.726869 
L 249.039433 283.221816 
L 249.271495 284.887888 
L 249.503557 284.309015 
L 250.199743 285.403304 
L 250.431805 285.683689 
L 250.663866 285.414934 
L 250.895928 284.511337 
L 251.12799 286.254692 
L 251.360052 286.260799 
L 251.592114 284.055197 
L 251.824176 284.741782 
L 252.056238 284.433018 
L 252.520361 284.313845 
L 252.752423 286.700196 
L 252.984485 287.89392 
L 253.216547 287.264651 
L 253.448609 285.860032 
L 253.680671 287.422561 
L 253.912732 287.897524 
L 254.144794 288.907482 
L 254.376856 287.586464 
L 254.608918 288.396136 
L 254.84098 285.143254 
L 255.305104 292.914543 
L 255.537166 289.003193 
L 256.001289 287.329773 
L 256.233351 287.072522 
L 256.465413 288.593811 
L 256.929537 284.763222 
L 257.161599 285.796321 
L 257.39366 282.992951 
L 257.625722 287.62198 
L 257.857784 286.000738 
L 258.089846 282.83364 
L 258.55397 282.94261 
L 259.018093 283.161082 
L 259.482217 283.64799 
L 259.714279 282.973186 
L 259.946341 285.836151 
L 260.178403 283.036079 
L 260.410465 287.061488 
L 260.642526 286.053491 
L 261.10665 286.85766 
L 261.338712 286.671482 
L 261.570774 287.490446 
L 261.802836 286.247695 
L 262.034898 286.307544 
L 262.26696 285.561557 
L 262.499021 284.136687 
L 262.731083 283.757215 
L 262.963145 285.378141 
L 263.195207 285.517004 
L 263.427269 286.392502 
L 263.659331 281.898137 
L 263.891393 284.151995 
L 264.123454 284.206855 
L 264.355516 285.575385 
L 264.587578 284.359486 
L 264.81964 284.039135 
L 265.051702 284.987664 
L 265.283764 286.607573 
L 265.747887 286.112622 
L 265.979949 285.958373 
L 266.444073 285.348244 
L 266.676135 285.417423 
L 266.908197 283.049492 
L 267.140259 284.057419 
L 267.37232 282.343387 
L 267.604382 282.517179 
L 268.068506 287.283272 
L 268.300568 285.997788 
L 268.764692 287.271328 
L 268.996754 286.479088 
L 269.228815 286.270188 
L 269.460877 285.561204 
L 269.925001 286.834277 
L 270.157063 284.551585 
L 270.389125 286.630396 
L 270.621187 286.83155 
L 270.853248 286.544987 
L 271.08531 286.6732 
L 271.317372 287.000872 
L 271.781496 283.07423 
L 272.013558 286.979085 
L 272.24562 285.481253 
L 272.709743 285.335628 
L 272.941805 285.677749 
L 273.173867 286.568619 
L 273.405929 283.821403 
L 273.637991 283.703402 
L 273.870053 285.402676 
L 274.102114 286.198521 
L 274.566238 285.100897 
L 274.7983 285.647481 
L 275.030362 285.508168 
L 275.262424 285.590926 
L 275.494486 285.322498 
L 275.726548 282.56505 
L 275.958609 283.392101 
L 276.190671 282.667664 
L 276.422733 279.754984 
L 276.654795 280.382373 
L 276.886857 280.591659 
L 277.350981 285.271667 
L 277.815104 281.360075 
L 278.047166 281.33462 
L 278.279228 280.895171 
L 278.51129 282.9175 
L 278.743352 281.833113 
L 278.975414 284.627317 
L 279.207475 284.321095 
L 279.439537 282.064453 
L 279.671599 285.198459 
L 279.903661 285.468521 
L 280.135723 285.318792 
L 280.367785 285.384138 
L 280.831909 286.422801 
L 281.296032 287.15534 
L 281.528094 286.862428 
L 281.760156 287.433882 
L 281.992218 289.356536 
L 282.22428 290.330659 
L 282.456342 286.608407 
L 282.688403 288.217329 
L 282.920465 286.049284 
L 283.152527 288.107038 
L 283.616651 286.137713 
L 283.848713 284.953758 
L 284.080775 281.934887 
L 284.312836 284.917791 
L 284.544898 285.647941 
L 284.77696 285.512638 
L 285.009022 284.180033 
L 285.241084 284.888596 
L 285.473146 283.030501 
L 285.705208 285.752202 
L 285.937269 282.719377 
L 286.401393 282.215202 
L 286.633455 281.721709 
L 286.865517 284.617625 
L 287.097579 283.449598 
L 287.329641 284.896763 
L 287.561703 282.947113 
L 287.793764 282.584564 
L 288.025826 285.552217 
L 288.257888 282.331576 
L 288.48995 282.249573 
L 288.722012 283.720567 
L 288.954074 283.832154 
L 289.186136 285.636369 
L 289.418197 285.081357 
L 289.650259 284.058255 
L 289.882321 285.040317 
L 290.346445 280.579587 
L 290.578507 286.211527 
L 290.810569 286.224293 
L 291.274692 283.306007 
L 291.506754 283.653988 
L 291.738816 284.221268 
L 292.20294 283.469227 
L 292.435002 283.592904 
L 292.667063 283.876964 
L 292.899125 280.051361 
L 293.131187 283.403268 
L 293.363249 278.429243 
L 293.595311 284.742389 
L 293.827373 286.967502 
L 294.059435 285.536967 
L 294.291497 285.600797 
L 294.523558 286.028918 
L 294.75562 286.128487 
L 294.987682 286.075349 
L 295.219744 286.944583 
L 295.451806 285.540672 
L 295.683868 286.503757 
L 295.91593 286.628526 
L 296.147991 287.985071 
L 296.380053 287.724125 
L 296.612115 285.203667 
L 296.844177 284.226346 
L 297.076239 286.456947 
L 297.308301 285.787066 
L 297.540363 286.293443 
L 297.772424 286.350281 
L 298.004486 287.06944 
L 298.236548 285.869331 
L 298.46861 287.16541 
L 298.700672 287.228702 
L 298.932734 286.93336 
L 299.164796 286.938669 
L 299.396857 286.321275 
L 299.628919 286.625224 
L 299.860981 287.588174 
L 300.093043 287.620671 
L 300.325105 287.328871 
L 300.557167 287.655499 
L 300.789229 285.535039 
L 301.253352 286.273042 
L 301.485414 286.053828 
L 301.717476 285.248383 
L 301.949538 285.62025 
L 302.1816 287.281367 
L 302.645724 288.859987 
L 302.877785 288.989156 
L 303.109847 288.508283 
L 303.341909 286.72815 
L 303.573971 288.836592 
L 303.806033 284.94016 
L 304.038095 285.175809 
L 304.270157 286.01872 
L 304.502218 286.29424 
L 304.966342 286.118999 
L 305.198404 282.645754 
L 305.662528 283.297653 
L 305.89459 281.248805 
L 306.126652 284.670781 
L 306.358713 285.959227 
L 306.590775 288.189446 
L 306.822837 288.342534 
L 307.054899 284.589989 
L 307.286961 286.324296 
L 307.519023 283.930034 
L 307.751085 286.344246 
L 307.983146 285.0573 
L 308.215208 284.988091 
L 308.44727 284.093788 
L 308.679332 286.052158 
L 308.911394 283.790978 
L 309.143456 286.219228 
L 309.375518 282.465458 
L 309.607579 286.784674 
L 309.839641 284.599134 
L 310.303765 285.363662 
L 310.535827 287.468311 
L 310.767889 287.469643 
L 310.999951 287.778592 
L 311.232012 288.779091 
L 311.464074 285.838444 
L 311.696136 286.617799 
L 311.928198 285.226387 
L 312.16026 287.345928 
L 312.392322 286.368201 
L 312.624384 289.799699 
L 312.856446 287.825557 
L 313.320569 286.26213 
L 313.552631 287.730079 
L 313.784693 293.73997 
L 314.016755 291.830133 
L 314.480879 292.093214 
L 314.71294 294.616537 
L 314.945002 295.488 
L 315.177064 285.557324 
L 315.409126 285.341232 
L 315.641188 285.735177 
L 315.87325 287.779928 
L 316.105312 284.912324 
L 316.337373 284.077121 
L 316.569435 284.446139 
L 316.801497 284.205688 
L 317.033559 286.858209 
L 317.729745 289.017985 
L 317.961806 289.388861 
L 318.193868 287.928035 
L 318.42593 288.510041 
L 318.657992 285.020105 
L 318.890054 285.409045 
L 319.122116 285.552637 
L 319.354178 287.887105 
L 319.58624 288.315175 
L 319.818301 286.0789 
L 320.050363 287.89982 
L 320.514487 287.887033 
L 320.746549 289.09993 
L 321.210673 289.114432 
L 321.674796 286.710088 
L 322.13892 286.590892 
L 322.370982 286.76807 
L 322.603044 289.060505 
L 322.835106 287.345174 
L 323.067167 287.613577 
L 323.995415 285.270486 
L 324.227477 285.535125 
L 324.459539 284.978132 
L 324.6916 284.864315 
L 324.923662 283.455322 
L 325.155724 285.193715 
L 325.619848 284.162058 
L 325.85191 284.777068 
L 326.083972 284.065152 
L 326.316034 283.803095 
L 326.548095 284.066047 
L 326.780157 285.769322 
L 327.012219 283.237007 
L 327.244281 288.008282 
L 327.476343 288.025761 
L 327.708405 287.537204 
L 327.940467 287.594062 
L 328.172528 289.47307 
L 328.40459 289.958587 
L 328.636652 288.729512 
L 329.100776 292.111884 
L 329.332838 286.500109 
L 329.5649 285.263347 
L 329.796961 286.308447 
L 330.029023 286.334352 
L 330.493147 286.982123 
L 330.725209 286.629654 
L 330.957271 289.393495 
L 331.189333 289.569172 
L 331.421395 286.377521 
L 331.885518 286.130436 
L 332.11758 286.014122 
L 332.349642 286.534673 
L 332.813766 286.344185 
L 333.045828 285.910691 
L 333.277889 286.39082 
L 333.509951 285.397284 
L 333.742013 285.178113 
L 333.974075 285.140164 
L 334.206137 286.726446 
L 334.438199 289.639271 
L 334.670261 289.283136 
L 334.902322 292.454722 
L 335.134384 286.483976 
L 335.598508 283.881497 
L 335.83057 286.84734 
L 336.294694 284.089688 
L 336.526755 284.890202 
L 336.758817 284.073572 
L 336.990879 282.047251 
L 337.919127 282.240731 
L 338.151189 283.165551 
L 338.38325 284.92401 
L 338.615312 285.183993 
L 338.847374 285.072274 
L 339.311498 285.397728 
L 339.54356 285.442442 
L 339.775622 292.180342 
L 340.007683 290.38254 
L 340.239745 283.150897 
L 340.471807 283.925021 
L 340.703869 285.217536 
L 340.935931 285.607123 
L 341.167993 285.627552 
L 341.400055 283.429726 
L 341.632116 283.547447 
L 341.864178 283.129755 
L 342.09624 283.101188 
L 342.328302 284.033282 
L 342.560364 283.181633 
L 342.792426 283.991773 
L 343.024488 281.640529 
L 343.256549 283.928724 
L 343.488611 284.352913 
L 343.952735 284.116484 
L 344.184797 284.798183 
L 344.416859 284.273615 
L 344.648921 282.232908 
L 344.880983 278.870097 
L 345.113044 280.398028 
L 345.345106 285.781997 
L 345.577168 284.486151 
L 345.80923 284.552855 
L 346.041292 282.824524 
L 346.273354 279.982403 
L 346.505416 283.449863 
L 346.737477 283.352283 
L 347.201601 281.151472 
L 347.665725 282.817098 
L 347.897787 282.073703 
L 348.129849 282.446832 
L 348.36191 282.042135 
L 348.593972 281.91791 
L 348.826034 284.976232 
L 349.058096 282.42943 
L 349.290158 285.499754 
L 349.52222 285.661304 
L 349.754282 284.950631 
L 349.986343 282.664371 
L 350.450467 285.308138 
L 350.682529 284.712282 
L 350.914591 282.179218 
L 351.146653 285.251804 
L 351.378715 283.667427 
L 351.610777 283.221244 
L 351.842838 280.700724 
L 352.0749 283.267995 
L 352.306962 283.412147 
L 352.539024 284.606406 
L 352.771086 283.82802 
L 353.003148 278.315687 
L 353.467271 284.317547 
L 353.699333 276.902431 
L 353.931395 280.94423 
L 354.163457 281.997142 
L 354.395519 285.232941 
L 354.859643 283.061991 
L 355.091704 285.173207 
L 355.323766 281.57231 
L 355.555828 284.663472 
L 355.78789 285.761589 
L 356.019952 285.393216 
L 356.252014 286.319315 
L 356.484076 286.035901 
L 356.716138 286.601283 
L 356.948199 287.595213 
L 357.644385 285.389345 
L 357.876447 286.935031 
L 358.108509 287.434456 
L 358.340571 285.219054 
L 358.572632 288.31494 
L 358.804694 285.223743 
L 359.036756 285.07882 
L 359.268818 285.279014 
L 359.50088 285.331145 
L 359.732942 285.099266 
L 359.965004 287.466543 
L 360.197065 285.085388 
L 360.429127 287.389783 
L 360.661189 285.687483 
L 360.893251 284.957832 
L 361.125313 284.958136 
L 361.357375 287.141003 
L 361.589437 285.460018 
L 361.821498 286.262989 
L 362.05356 286.01902 
L 362.517684 285.827485 
L 362.749746 285.410401 
L 362.981808 287.227617 
L 363.21387 286.791492 
L 363.445932 287.25414 
L 363.677993 287.449575 
L 363.910055 284.986169 
L 364.142117 284.95283 
L 364.374179 285.930141 
L 364.606241 285.111324 
L 364.838303 288.408581 
L 365.302426 288.615226 
L 365.534488 292.815041 
L 365.76655 288.167025 
L 365.998612 287.035525 
L 366.230674 287.380757 
L 366.462736 288.984417 
L 366.694798 288.807759 
L 366.926859 291.080901 
L 367.158921 289.552909 
L 367.390983 289.677652 
L 367.855107 287.062215 
L 368.087169 288.452652 
L 368.319231 287.335657 
L 368.551292 286.930447 
L 368.783354 286.878461 
L 369.015416 284.930926 
L 369.247478 284.621919 
L 369.47954 283.781491 
L 369.711602 285.683403 
L 369.943664 285.789977 
L 370.175726 287.806056 
L 370.407787 287.06376 
L 370.871911 286.82288 
L 371.103973 286.261987 
L 371.336035 286.694514 
L 371.568097 286.100085 
L 371.800159 285.980481 
L 372.03222 285.131526 
L 372.264282 286.102227 
L 372.496344 285.908758 
L 372.728406 284.253467 
L 372.960468 286.318356 
L 373.19253 286.385613 
L 373.424592 286.648335 
L 373.888715 286.294105 
L 374.120777 286.724517 
L 374.352839 287.454174 
L 374.584901 286.217986 
L 374.816963 287.009781 
L 375.049025 285.480278 
L 375.281086 285.616339 
L 375.513148 285.476117 
L 375.74521 284.860827 
L 375.977272 286.344195 
L 376.441396 285.719932 
L 376.673458 283.677286 
L 376.90552 283.693411 
L 377.137581 285.775639 
L 377.369643 283.692479 
L 377.601705 285.637962 
L 377.833767 283.586329 
L 378.065829 283.570881 
L 378.297891 283.432865 
L 379.226138 283.529782 
L 379.4582 283.989759 
L 379.690262 285.18689 
L 379.922324 285.133835 
L 380.154386 284.716165 
L 380.386447 285.17997 
L 380.618509 284.052066 
L 380.850571 284.117047 
L 381.082633 281.586556 
L 381.314695 281.2322 
L 381.546757 283.26373 
L 381.778819 287.723556 
L 382.01088 287.166875 
L 382.242942 284.616184 
L 382.475004 286.217084 
L 382.707066 285.611344 
L 383.17119 286.61895 
L 383.403252 281.953318 
L 383.635314 282.011729 
L 383.867375 283.734746 
L 384.099437 283.630948 
L 384.331499 282.011273 
L 384.563561 285.093489 
L 384.795623 285.068412 
L 385.027685 281.204571 
L 385.259747 284.279076 
L 385.491808 283.014275 
L 385.72387 280.187966 
L 385.955932 285.555747 
L 386.187994 285.463612 
L 386.420056 284.656679 
L 386.652118 284.699555 
L 387.116241 286.840214 
L 387.348303 286.402461 
L 387.580365 285.425565 
L 387.812427 282.492126 
L 388.044489 282.315126 
L 388.276551 283.967946 
L 388.508613 284.756971 
L 388.740675 281.829582 
L 388.972736 282.230423 
L 389.43686 287.932111 
L 389.668922 286.686251 
L 390.133046 285.643569 
L 390.597169 285.53604 
L 391.525417 285.606218 
L 391.757479 284.948133 
L 392.221602 286.094728 
L 392.453664 286.704535 
L 392.685726 286.399415 
L 392.917788 288.148363 
L 393.14985 288.516016 
L 393.381912 287.414534 
L 393.613974 287.683548 
L 393.846035 287.66346 
L 394.078097 287.476939 
L 394.310159 289.247009 
L 394.542221 287.358062 
L 394.774283 289.302924 
L 395.006345 289.382074 
L 395.470469 288.306906 
L 395.70253 286.700226 
L 395.934592 286.56174 
L 396.166654 283.210423 
L 396.86284 283.161351 
L 397.559025 283.205484 
L 397.791087 282.924388 
L 398.023149 284.629983 
L 398.255211 283.175389 
L 398.487273 283.158587 
L 398.487273 283.158587 
" style="fill:none;stroke:#ff7f0e;stroke-linecap:square;stroke-width:1.5;"/>
   </g>
   <g id="patch_3">
    <path d="M 57.6 307.584 
L 57.6 41.472 
" style="fill:none;stroke:#000000;stroke-linecap:square;stroke-linejoin:miter;stroke-width:0.8;"/>
   </g>
   <g id="patch_4">
    <path d="M 414.72 307.584 
L 414.72 41.472 
" style="fill:none;stroke:#000000;stroke-linecap:square;stroke-linejoin:miter;stroke-width:0.8;"/>
   </g>
   <g id="patch_5">
    <path d="M 57.6 307.584 
L 414.72 307.584 
" style="fill:none;stroke:#000000;stroke-linecap:square;stroke-linejoin:miter;stroke-width:0.8;"/>
   </g>
   <g id="patch_6">
    <path d="M 57.6 41.472 
L 414.72 41.472 
" style="fill:none;stroke:#000000;stroke-linecap:square;stroke-linejoin:miter;stroke-width:0.8;"/>
   </g>
  </g>
 </g>
 <defs>
  <clipPath id="pbf31635afe">
   <rect height="266.112" width="357.12" x="57.6" y="41.472"/>
  </clipPath>
 </defs>
</svg>
