<?xml version="1.0" encoding="utf-8" standalone="no"?>
<!DOCTYPE svg PUBLIC "-//W3C//DTD SVG 1.1//EN"
  "http://www.w3.org/Graphics/SVG/1.1/DTD/svg11.dtd">
<!-- Created with matplotlib (https://matplotlib.org/) -->
<svg height="345.6pt" version="1.1" viewBox="0 0 460.8 345.6" width="460.8pt" xmlns="http://www.w3.org/2000/svg" xmlns:xlink="http://www.w3.org/1999/xlink">
 <defs>
  <style type="text/css">
*{stroke-linecap:butt;stroke-linejoin:round;}
  </style>
 </defs>
 <g id="figure_1">
  <g id="patch_1">
   <path d="M 0 345.6 
L 460.8 345.6 
L 460.8 0 
L 0 0 
z
" style="fill:#ffffff;"/>
  </g>
  <g id="axes_1">
   <g id="patch_2">
    <path d="M 57.6 307.584 
L 414.72 307.584 
L 414.72 41.472 
L 57.6 41.472 
z
" style="fill:#ffffff;"/>
   </g>
   <g id="matplotlib.axis_1">
    <g id="xtick_1">
     <g id="line2d_1">
      <defs>
       <path d="M 0 0 
L 0 3.5 
" id="m9da4c6efef" style="stroke:#000000;stroke-width:0.8;"/>
      </defs>
      <g>
       <use style="stroke:#000000;stroke-width:0.8;" x="73.832727" xlink:href="#m9da4c6efef" y="307.584"/>
      </g>
     </g>
     <g id="text_1">
      <!-- 0 -->
      <defs>
       <path d="M 31.78125 66.40625 
Q 24.171875 66.40625 20.328125 58.90625 
Q 16.5 51.421875 16.5 36.375 
Q 16.5 21.390625 20.328125 13.890625 
Q 24.171875 6.390625 31.78125 6.390625 
Q 39.453125 6.390625 43.28125 13.890625 
Q 47.125 21.390625 47.125 36.375 
Q 47.125 51.421875 43.28125 58.90625 
Q 39.453125 66.40625 31.78125 66.40625 
z
M 31.78125 74.21875 
Q 44.046875 74.21875 50.515625 64.515625 
Q 56.984375 54.828125 56.984375 36.375 
Q 56.984375 17.96875 50.515625 8.265625 
Q 44.046875 -1.421875 31.78125 -1.421875 
Q 19.53125 -1.421875 13.0625 8.265625 
Q 6.59375 17.96875 6.59375 36.375 
Q 6.59375 54.828125 13.0625 64.515625 
Q 19.53125 74.21875 31.78125 74.21875 
z
" id="DejaVuSans-48"/>
      </defs>
      <g transform="translate(70.651477 322.182437)scale(0.1 -0.1)">
       <use xlink:href="#DejaVuSans-48"/>
      </g>
     </g>
    </g>
    <g id="xtick_2">
     <g id="line2d_2">
      <g>
       <use style="stroke:#000000;stroke-width:0.8;" x="120.2451" xlink:href="#m9da4c6efef" y="307.584"/>
      </g>
     </g>
     <g id="text_2">
      <!-- 200 -->
      <defs>
       <path d="M 19.1875 8.296875 
L 53.609375 8.296875 
L 53.609375 0 
L 7.328125 0 
L 7.328125 8.296875 
Q 12.9375 14.109375 22.625 23.890625 
Q 32.328125 33.6875 34.8125 36.53125 
Q 39.546875 41.84375 41.421875 45.53125 
Q 43.3125 49.21875 43.3125 52.78125 
Q 43.3125 58.59375 39.234375 62.25 
Q 35.15625 65.921875 28.609375 65.921875 
Q 23.96875 65.921875 18.8125 64.3125 
Q 13.671875 62.703125 7.8125 59.421875 
L 7.8125 69.390625 
Q 13.765625 71.78125 18.9375 73 
Q 24.125 74.21875 28.421875 74.21875 
Q 39.75 74.21875 46.484375 68.546875 
Q 53.21875 62.890625 53.21875 53.421875 
Q 53.21875 48.921875 51.53125 44.890625 
Q 49.859375 40.875 45.40625 35.40625 
Q 44.1875 33.984375 37.640625 27.21875 
Q 31.109375 20.453125 19.1875 8.296875 
z
" id="DejaVuSans-50"/>
      </defs>
      <g transform="translate(110.70135 322.182437)scale(0.1 -0.1)">
       <use xlink:href="#DejaVuSans-50"/>
       <use x="63.623047" xlink:href="#DejaVuSans-48"/>
       <use x="127.246094" xlink:href="#DejaVuSans-48"/>
      </g>
     </g>
    </g>
    <g id="xtick_3">
     <g id="line2d_3">
      <g>
       <use style="stroke:#000000;stroke-width:0.8;" x="166.657472" xlink:href="#m9da4c6efef" y="307.584"/>
      </g>
     </g>
     <g id="text_3">
      <!-- 400 -->
      <defs>
       <path d="M 37.796875 64.3125 
L 12.890625 25.390625 
L 37.796875 25.390625 
z
M 35.203125 72.90625 
L 47.609375 72.90625 
L 47.609375 25.390625 
L 58.015625 25.390625 
L 58.015625 17.1875 
L 47.609375 17.1875 
L 47.609375 0 
L 37.796875 0 
L 37.796875 17.1875 
L 4.890625 17.1875 
L 4.890625 26.703125 
z
" id="DejaVuSans-52"/>
      </defs>
      <g transform="translate(157.113722 322.182437)scale(0.1 -0.1)">
       <use xlink:href="#DejaVuSans-52"/>
       <use x="63.623047" xlink:href="#DejaVuSans-48"/>
       <use x="127.246094" xlink:href="#DejaVuSans-48"/>
      </g>
     </g>
    </g>
    <g id="xtick_4">
     <g id="line2d_4">
      <g>
       <use style="stroke:#000000;stroke-width:0.8;" x="213.069845" xlink:href="#m9da4c6efef" y="307.584"/>
      </g>
     </g>
     <g id="text_4">
      <!-- 600 -->
      <defs>
       <path d="M 33.015625 40.375 
Q 26.375 40.375 22.484375 35.828125 
Q 18.609375 31.296875 18.609375 23.390625 
Q 18.609375 15.53125 22.484375 10.953125 
Q 26.375 6.390625 33.015625 6.390625 
Q 39.65625 6.390625 43.53125 10.953125 
Q 47.40625 15.53125 47.40625 23.390625 
Q 47.40625 31.296875 43.53125 35.828125 
Q 39.65625 40.375 33.015625 40.375 
z
M 52.59375 71.296875 
L 52.59375 62.3125 
Q 48.875 64.0625 45.09375 64.984375 
Q 41.3125 65.921875 37.59375 65.921875 
Q 27.828125 65.921875 22.671875 59.328125 
Q 17.53125 52.734375 16.796875 39.40625 
Q 19.671875 43.65625 24.015625 45.921875 
Q 28.375 48.1875 33.59375 48.1875 
Q 44.578125 48.1875 50.953125 41.515625 
Q 57.328125 34.859375 57.328125 23.390625 
Q 57.328125 12.15625 50.6875 5.359375 
Q 44.046875 -1.421875 33.015625 -1.421875 
Q 20.359375 -1.421875 13.671875 8.265625 
Q 6.984375 17.96875 6.984375 36.375 
Q 6.984375 53.65625 15.1875 63.9375 
Q 23.390625 74.21875 37.203125 74.21875 
Q 40.921875 74.21875 44.703125 73.484375 
Q 48.484375 72.75 52.59375 71.296875 
z
" id="DejaVuSans-54"/>
      </defs>
      <g transform="translate(203.526095 322.182437)scale(0.1 -0.1)">
       <use xlink:href="#DejaVuSans-54"/>
       <use x="63.623047" xlink:href="#DejaVuSans-48"/>
       <use x="127.246094" xlink:href="#DejaVuSans-48"/>
      </g>
     </g>
    </g>
    <g id="xtick_5">
     <g id="line2d_5">
      <g>
       <use style="stroke:#000000;stroke-width:0.8;" x="259.482217" xlink:href="#m9da4c6efef" y="307.584"/>
      </g>
     </g>
     <g id="text_5">
      <!-- 800 -->
      <defs>
       <path d="M 31.78125 34.625 
Q 24.75 34.625 20.71875 30.859375 
Q 16.703125 27.09375 16.703125 20.515625 
Q 16.703125 13.921875 20.71875 10.15625 
Q 24.75 6.390625 31.78125 6.390625 
Q 38.8125 6.390625 42.859375 10.171875 
Q 46.921875 13.96875 46.921875 20.515625 
Q 46.921875 27.09375 42.890625 30.859375 
Q 38.875 34.625 31.78125 34.625 
z
M 21.921875 38.8125 
Q 15.578125 40.375 12.03125 44.71875 
Q 8.5 49.078125 8.5 55.328125 
Q 8.5 64.0625 14.71875 69.140625 
Q 20.953125 74.21875 31.78125 74.21875 
Q 42.671875 74.21875 48.875 69.140625 
Q 55.078125 64.0625 55.078125 55.328125 
Q 55.078125 49.078125 51.53125 44.71875 
Q 48 40.375 41.703125 38.8125 
Q 48.828125 37.15625 52.796875 32.3125 
Q 56.78125 27.484375 56.78125 20.515625 
Q 56.78125 9.90625 50.3125 4.234375 
Q 43.84375 -1.421875 31.78125 -1.421875 
Q 19.734375 -1.421875 13.25 4.234375 
Q 6.78125 9.90625 6.78125 20.515625 
Q 6.78125 27.484375 10.78125 32.3125 
Q 14.796875 37.15625 21.921875 38.8125 
z
M 18.3125 54.390625 
Q 18.3125 48.734375 21.84375 45.5625 
Q 25.390625 42.390625 31.78125 42.390625 
Q 38.140625 42.390625 41.71875 45.5625 
Q 45.3125 48.734375 45.3125 54.390625 
Q 45.3125 60.0625 41.71875 63.234375 
Q 38.140625 66.40625 31.78125 66.40625 
Q 25.390625 66.40625 21.84375 63.234375 
Q 18.3125 60.0625 18.3125 54.390625 
z
" id="DejaVuSans-56"/>
      </defs>
      <g transform="translate(249.938467 322.182437)scale(0.1 -0.1)">
       <use xlink:href="#DejaVuSans-56"/>
       <use x="63.623047" xlink:href="#DejaVuSans-48"/>
       <use x="127.246094" xlink:href="#DejaVuSans-48"/>
      </g>
     </g>
    </g>
    <g id="xtick_6">
     <g id="line2d_6">
      <g>
       <use style="stroke:#000000;stroke-width:0.8;" x="305.89459" xlink:href="#m9da4c6efef" y="307.584"/>
      </g>
     </g>
     <g id="text_6">
      <!-- 1000 -->
      <defs>
       <path d="M 12.40625 8.296875 
L 28.515625 8.296875 
L 28.515625 63.921875 
L 10.984375 60.40625 
L 10.984375 69.390625 
L 28.421875 72.90625 
L 38.28125 72.90625 
L 38.28125 8.296875 
L 54.390625 8.296875 
L 54.390625 0 
L 12.40625 0 
z
" id="DejaVuSans-49"/>
      </defs>
      <g transform="translate(293.16959 322.182437)scale(0.1 -0.1)">
       <use xlink:href="#DejaVuSans-49"/>
       <use x="63.623047" xlink:href="#DejaVuSans-48"/>
       <use x="127.246094" xlink:href="#DejaVuSans-48"/>
       <use x="190.869141" xlink:href="#DejaVuSans-48"/>
      </g>
     </g>
    </g>
    <g id="xtick_7">
     <g id="line2d_7">
      <g>
       <use style="stroke:#000000;stroke-width:0.8;" x="352.306962" xlink:href="#m9da4c6efef" y="307.584"/>
      </g>
     </g>
     <g id="text_7">
      <!-- 1200 -->
      <g transform="translate(339.581962 322.182437)scale(0.1 -0.1)">
       <use xlink:href="#DejaVuSans-49"/>
       <use x="63.623047" xlink:href="#DejaVuSans-50"/>
       <use x="127.246094" xlink:href="#DejaVuSans-48"/>
       <use x="190.869141" xlink:href="#DejaVuSans-48"/>
      </g>
     </g>
    </g>
    <g id="xtick_8">
     <g id="line2d_8">
      <g>
       <use style="stroke:#000000;stroke-width:0.8;" x="398.719335" xlink:href="#m9da4c6efef" y="307.584"/>
      </g>
     </g>
     <g id="text_8">
      <!-- 1400 -->
      <g transform="translate(385.994335 322.182437)scale(0.1 -0.1)">
       <use xlink:href="#DejaVuSans-49"/>
       <use x="63.623047" xlink:href="#DejaVuSans-52"/>
       <use x="127.246094" xlink:href="#DejaVuSans-48"/>
       <use x="190.869141" xlink:href="#DejaVuSans-48"/>
      </g>
     </g>
    </g>
   </g>
   <g id="matplotlib.axis_2">
    <g id="ytick_1">
     <g id="line2d_9">
      <defs>
       <path d="M 0 0 
L -3.5 0 
" id="meb02fcf143" style="stroke:#000000;stroke-width:0.8;"/>
      </defs>
      <g>
       <use style="stroke:#000000;stroke-width:0.8;" x="57.6" xlink:href="#meb02fcf143" y="306.663391"/>
      </g>
     </g>
     <g id="text_9">
      <!-- 0.2 -->
      <defs>
       <path d="M 10.6875 12.40625 
L 21 12.40625 
L 21 0 
L 10.6875 0 
z
" id="DejaVuSans-46"/>
      </defs>
      <g transform="translate(34.696875 310.46261)scale(0.1 -0.1)">
       <use xlink:href="#DejaVuSans-48"/>
       <use x="63.623047" xlink:href="#DejaVuSans-46"/>
       <use x="95.410156" xlink:href="#DejaVuSans-50"/>
      </g>
     </g>
    </g>
    <g id="ytick_2">
     <g id="line2d_10">
      <g>
       <use style="stroke:#000000;stroke-width:0.8;" x="57.6" xlink:href="#meb02fcf143" y="275.914023"/>
      </g>
     </g>
     <g id="text_10">
      <!-- 0.3 -->
      <defs>
       <path d="M 40.578125 39.3125 
Q 47.65625 37.796875 51.625 33 
Q 55.609375 28.21875 55.609375 21.1875 
Q 55.609375 10.40625 48.1875 4.484375 
Q 40.765625 -1.421875 27.09375 -1.421875 
Q 22.515625 -1.421875 17.65625 -0.515625 
Q 12.796875 0.390625 7.625 2.203125 
L 7.625 11.71875 
Q 11.71875 9.328125 16.59375 8.109375 
Q 21.484375 6.890625 26.8125 6.890625 
Q 36.078125 6.890625 40.9375 10.546875 
Q 45.796875 14.203125 45.796875 21.1875 
Q 45.796875 27.640625 41.28125 31.265625 
Q 36.765625 34.90625 28.71875 34.90625 
L 20.21875 34.90625 
L 20.21875 43.015625 
L 29.109375 43.015625 
Q 36.375 43.015625 40.234375 45.921875 
Q 44.09375 48.828125 44.09375 54.296875 
Q 44.09375 59.90625 40.109375 62.90625 
Q 36.140625 65.921875 28.71875 65.921875 
Q 24.65625 65.921875 20.015625 65.03125 
Q 15.375 64.15625 9.8125 62.3125 
L 9.8125 71.09375 
Q 15.4375 72.65625 20.34375 73.4375 
Q 25.25 74.21875 29.59375 74.21875 
Q 40.828125 74.21875 47.359375 69.109375 
Q 53.90625 64.015625 53.90625 55.328125 
Q 53.90625 49.265625 50.4375 45.09375 
Q 46.96875 40.921875 40.578125 39.3125 
z
" id="DejaVuSans-51"/>
      </defs>
      <g transform="translate(34.696875 279.713242)scale(0.1 -0.1)">
       <use xlink:href="#DejaVuSans-48"/>
       <use x="63.623047" xlink:href="#DejaVuSans-46"/>
       <use x="95.410156" xlink:href="#DejaVuSans-51"/>
      </g>
     </g>
    </g>
    <g id="ytick_3">
     <g id="line2d_11">
      <g>
       <use style="stroke:#000000;stroke-width:0.8;" x="57.6" xlink:href="#meb02fcf143" y="245.164656"/>
      </g>
     </g>
     <g id="text_11">
      <!-- 0.4 -->
      <g transform="translate(34.696875 248.963874)scale(0.1 -0.1)">
       <use xlink:href="#DejaVuSans-48"/>
       <use x="63.623047" xlink:href="#DejaVuSans-46"/>
       <use x="95.410156" xlink:href="#DejaVuSans-52"/>
      </g>
     </g>
    </g>
    <g id="ytick_4">
     <g id="line2d_12">
      <g>
       <use style="stroke:#000000;stroke-width:0.8;" x="57.6" xlink:href="#meb02fcf143" y="214.415288"/>
      </g>
     </g>
     <g id="text_12">
      <!-- 0.5 -->
      <defs>
       <path d="M 10.796875 72.90625 
L 49.515625 72.90625 
L 49.515625 64.59375 
L 19.828125 64.59375 
L 19.828125 46.734375 
Q 21.96875 47.46875 24.109375 47.828125 
Q 26.265625 48.1875 28.421875 48.1875 
Q 40.625 48.1875 47.75 41.5 
Q 54.890625 34.8125 54.890625 23.390625 
Q 54.890625 11.625 47.5625 5.09375 
Q 40.234375 -1.421875 26.90625 -1.421875 
Q 22.3125 -1.421875 17.546875 -0.640625 
Q 12.796875 0.140625 7.71875 1.703125 
L 7.71875 11.625 
Q 12.109375 9.234375 16.796875 8.0625 
Q 21.484375 6.890625 26.703125 6.890625 
Q 35.15625 6.890625 40.078125 11.328125 
Q 45.015625 15.765625 45.015625 23.390625 
Q 45.015625 31 40.078125 35.4375 
Q 35.15625 39.890625 26.703125 39.890625 
Q 22.75 39.890625 18.8125 39.015625 
Q 14.890625 38.140625 10.796875 36.28125 
z
" id="DejaVuSans-53"/>
      </defs>
      <g transform="translate(34.696875 218.214507)scale(0.1 -0.1)">
       <use xlink:href="#DejaVuSans-48"/>
       <use x="63.623047" xlink:href="#DejaVuSans-46"/>
       <use x="95.410156" xlink:href="#DejaVuSans-53"/>
      </g>
     </g>
    </g>
    <g id="ytick_5">
     <g id="line2d_13">
      <g>
       <use style="stroke:#000000;stroke-width:0.8;" x="57.6" xlink:href="#meb02fcf143" y="183.66592"/>
      </g>
     </g>
     <g id="text_13">
      <!-- 0.6 -->
      <g transform="translate(34.696875 187.465139)scale(0.1 -0.1)">
       <use xlink:href="#DejaVuSans-48"/>
       <use x="63.623047" xlink:href="#DejaVuSans-46"/>
       <use x="95.410156" xlink:href="#DejaVuSans-54"/>
      </g>
     </g>
    </g>
    <g id="ytick_6">
     <g id="line2d_14">
      <g>
       <use style="stroke:#000000;stroke-width:0.8;" x="57.6" xlink:href="#meb02fcf143" y="152.916552"/>
      </g>
     </g>
     <g id="text_14">
      <!-- 0.7 -->
      <defs>
       <path d="M 8.203125 72.90625 
L 55.078125 72.90625 
L 55.078125 68.703125 
L 28.609375 0 
L 18.3125 0 
L 43.21875 64.59375 
L 8.203125 64.59375 
z
" id="DejaVuSans-55"/>
      </defs>
      <g transform="translate(34.696875 156.715771)scale(0.1 -0.1)">
       <use xlink:href="#DejaVuSans-48"/>
       <use x="63.623047" xlink:href="#DejaVuSans-46"/>
       <use x="95.410156" xlink:href="#DejaVuSans-55"/>
      </g>
     </g>
    </g>
    <g id="ytick_7">
     <g id="line2d_15">
      <g>
       <use style="stroke:#000000;stroke-width:0.8;" x="57.6" xlink:href="#meb02fcf143" y="122.167185"/>
      </g>
     </g>
     <g id="text_15">
      <!-- 0.8 -->
      <g transform="translate(34.696875 125.966403)scale(0.1 -0.1)">
       <use xlink:href="#DejaVuSans-48"/>
       <use x="63.623047" xlink:href="#DejaVuSans-46"/>
       <use x="95.410156" xlink:href="#DejaVuSans-56"/>
      </g>
     </g>
    </g>
    <g id="ytick_8">
     <g id="line2d_16">
      <g>
       <use style="stroke:#000000;stroke-width:0.8;" x="57.6" xlink:href="#meb02fcf143" y="91.417817"/>
      </g>
     </g>
     <g id="text_16">
      <!-- 0.9 -->
      <defs>
       <path d="M 10.984375 1.515625 
L 10.984375 10.5 
Q 14.703125 8.734375 18.5 7.8125 
Q 22.3125 6.890625 25.984375 6.890625 
Q 35.75 6.890625 40.890625 13.453125 
Q 46.046875 20.015625 46.78125 33.40625 
Q 43.953125 29.203125 39.59375 26.953125 
Q 35.25 24.703125 29.984375 24.703125 
Q 19.046875 24.703125 12.671875 31.3125 
Q 6.296875 37.9375 6.296875 49.421875 
Q 6.296875 60.640625 12.9375 67.421875 
Q 19.578125 74.21875 30.609375 74.21875 
Q 43.265625 74.21875 49.921875 64.515625 
Q 56.59375 54.828125 56.59375 36.375 
Q 56.59375 19.140625 48.40625 8.859375 
Q 40.234375 -1.421875 26.421875 -1.421875 
Q 22.703125 -1.421875 18.890625 -0.6875 
Q 15.09375 0.046875 10.984375 1.515625 
z
M 30.609375 32.421875 
Q 37.25 32.421875 41.125 36.953125 
Q 45.015625 41.5 45.015625 49.421875 
Q 45.015625 57.28125 41.125 61.84375 
Q 37.25 66.40625 30.609375 66.40625 
Q 23.96875 66.40625 20.09375 61.84375 
Q 16.21875 57.28125 16.21875 49.421875 
Q 16.21875 41.5 20.09375 36.953125 
Q 23.96875 32.421875 30.609375 32.421875 
z
" id="DejaVuSans-57"/>
      </defs>
      <g transform="translate(34.696875 95.217036)scale(0.1 -0.1)">
       <use xlink:href="#DejaVuSans-48"/>
       <use x="63.623047" xlink:href="#DejaVuSans-46"/>
       <use x="95.410156" xlink:href="#DejaVuSans-57"/>
      </g>
     </g>
    </g>
    <g id="ytick_9">
     <g id="line2d_17">
      <g>
       <use style="stroke:#000000;stroke-width:0.8;" x="57.6" xlink:href="#meb02fcf143" y="60.668449"/>
      </g>
     </g>
     <g id="text_17">
      <!-- 1.0 -->
      <g transform="translate(34.696875 64.467668)scale(0.1 -0.1)">
       <use xlink:href="#DejaVuSans-49"/>
       <use x="63.623047" xlink:href="#DejaVuSans-46"/>
       <use x="95.410156" xlink:href="#DejaVuSans-48"/>
      </g>
     </g>
    </g>
   </g>
   <g id="line2d_18">
    <path clip-path="url(#pf6e2313f08)" d="M 73.832727 64.630557 
L 74.296851 70.602427 
L 75.689222 80.348323 
L 75.921284 81.551191 
L 76.153346 80.605352 
L 76.385408 80.927543 
L 76.61747 80.460917 
L 77.081593 77.753913 
L 77.313655 77.896418 
L 77.777779 73.306184 
L 78.009841 71.732587 
L 78.473965 66.599895 
L 78.706026 65.672533 
L 79.17015 60.630124 
L 79.402212 60.790662 
L 79.634274 57.586381 
L 79.866336 57.334667 
L 80.098398 58.179097 
L 80.330459 56.490036 
L 80.562521 59.34273 
L 80.794583 56.761042 
L 81.026645 56.919266 
L 81.258707 56.001222 
L 81.490769 56.259438 
L 81.954892 54.839338 
L 82.186954 54.894168 
L 82.419016 53.705836 
L 82.651078 53.624818 
L 82.88314 55.173367 
L 83.115202 54.369735 
L 83.347264 54.243844 
L 83.579325 54.671446 
L 83.811387 54.121433 
L 84.043449 54.38512 
L 84.275511 53.568 
L 84.507573 57.17078 
L 84.739635 54.889216 
L 84.971697 56.018198 
L 85.203759 55.963402 
L 85.43582 58.584874 
L 85.667882 57.404558 
L 85.899944 58.606576 
L 86.132006 58.495353 
L 86.364068 60.265673 
L 86.59613 59.012535 
L 86.828192 59.00628 
L 87.060253 60.041692 
L 87.292315 60.056435 
L 87.524377 60.250368 
L 87.756439 60.801721 
L 88.220563 60.832333 
L 88.684686 61.336458 
L 88.916748 61.967426 
L 89.14881 61.125863 
L 89.380872 61.571289 
L 89.844996 60.397178 
L 90.077058 60.188976 
L 90.30912 60.135588 
L 90.541181 59.136771 
L 90.773243 59.111671 
L 91.469429 57.761941 
L 91.701491 57.693166 
L 92.397676 57.158578 
L 92.629738 56.988501 
L 93.093862 56.86542 
L 93.325924 57.112291 
L 93.557986 56.864238 
L 93.790047 57.296591 
L 94.254171 56.973198 
L 95.182419 57.468956 
L 95.878604 58.114219 
L 96.110666 58.804773 
L 96.57479 58.596826 
L 97.038914 59.239359 
L 97.270975 59.21108 
L 97.735099 59.585577 
L 97.967161 60.122614 
L 98.199223 59.882414 
L 98.431285 60.609379 
L 98.895408 58.357016 
L 99.591594 59.028602 
L 99.823656 59.409814 
L 100.055718 59.106596 
L 100.28778 59.855831 
L 100.519841 59.121939 
L 100.751903 60.599506 
L 100.983965 60.529164 
L 101.216027 59.998364 
L 101.448089 60.180326 
L 101.680151 59.644823 
L 101.912213 60.287167 
L 102.144274 60.177076 
L 102.376336 60.35356 
L 102.84046 59.697733 
L 103.072522 59.064618 
L 103.304584 58.991815 
L 103.536646 58.585874 
L 103.768708 58.790405 
L 104.232831 58.770682 
L 104.464893 59.087782 
L 104.696955 58.210368 
L 105.161079 57.853815 
L 105.393141 57.530038 
L 105.625202 57.558631 
L 105.857264 57.318242 
L 106.089326 57.30893 
L 106.55345 57.123181 
L 107.249635 57.324273 
L 107.481697 57.596651 
L 107.713759 57.643794 
L 108.642007 58.539971 
L 109.338192 58.999118 
L 109.570254 59.408913 
L 109.802316 59.515794 
L 110.034378 59.437708 
L 110.498502 59.69885 
L 110.730563 59.541856 
L 110.962625 59.893301 
L 111.194687 59.5918 
L 111.426749 59.709638 
L 112.354996 59.575879 
L 112.81912 59.977033 
L 113.051182 59.500993 
L 113.283244 59.596037 
L 113.515306 59.521799 
L 113.747368 59.136202 
L 113.979429 58.993663 
L 114.443553 59.484466 
L 114.675615 59.141137 
L 114.907677 59.918821 
L 115.139739 58.880009 
L 115.371801 58.439344 
L 115.603862 58.259108 
L 115.835924 58.466955 
L 116.067986 58.478583 
L 116.300048 58.201357 
L 116.53211 58.171892 
L 116.764172 58.604359 
L 116.996234 58.328572 
L 117.228296 58.361533 
L 117.460357 57.951252 
L 117.692419 58.110377 
L 118.388605 57.917934 
L 118.852729 58.464302 
L 119.08479 58.20167 
L 119.548914 58.575149 
L 119.780976 58.204588 
L 120.2451 58.780903 
L 120.477162 58.775736 
L 120.941285 58.941845 
L 121.173347 58.813753 
L 121.405409 59.586727 
L 121.637471 59.128024 
L 122.101595 59.493368 
L 122.565718 59.330539 
L 122.79778 59.49185 
L 123.493966 59.109575 
L 123.726028 58.824961 
L 123.95809 58.737486 
L 124.190151 59.129491 
L 124.654275 59.256939 
L 124.886337 59.288993 
L 125.118399 59.471892 
L 125.582523 59.30902 
L 126.046646 59.454307 
L 126.278708 59.198735 
L 126.51077 59.130675 
L 126.974894 59.237859 
L 127.439017 59.141222 
L 127.671079 59.789844 
L 128.135203 59.797149 
L 128.367265 59.311775 
L 128.831389 60.299718 
L 129.063451 59.972822 
L 129.527574 60.077272 
L 129.759636 59.761001 
L 130.687884 59.399238 
L 130.919945 59.647013 
L 131.152007 59.720933 
L 131.384069 59.295562 
L 131.848193 58.946435 
L 132.080255 58.757518 
L 132.312317 58.895649 
L 132.544378 58.731562 
L 132.77644 59.145528 
L 133.008502 58.438571 
L 133.472626 58.360487 
L 133.93675 58.64745 
L 134.400873 59.092299 
L 135.097059 59.195524 
L 135.329121 59.069111 
L 135.561183 59.084746 
L 135.793245 58.706033 
L 137.185616 58.65644 
L 137.417678 58.384192 
L 138.345925 58.242632 
L 138.577987 57.999657 
L 138.810049 58.307989 
L 139.042111 58.206478 
L 139.274172 58.773013 
L 139.506234 58.646708 
L 139.970358 58.822873 
L 140.434482 59.346897 
L 140.666544 59.531558 
L 141.130667 59.533537 
L 142.7551 59.865872 
L 143.451286 59.280322 
L 143.683348 59.392021 
L 143.91541 59.096291 
L 144.147472 59.167567 
L 144.379533 58.996922 
L 145.075719 59.010763 
L 145.771905 58.2783 
L 146.236028 58.424222 
L 146.46809 59.016853 
L 147.164276 59.365846 
L 147.396338 59.11361 
L 147.860461 59.400997 
L 148.092523 59.469922 
L 148.324585 59.283005 
L 148.556647 59.284784 
L 148.788709 59.398685 
L 149.252833 59.284699 
L 149.484894 59.506106 
L 149.716956 59.419599 
L 150.413142 59.803298 
L 150.645204 59.622778 
L 151.109327 60.036524 
L 151.341389 59.716873 
L 151.805513 59.652269 
L 152.037575 59.373037 
L 152.269637 59.854428 
L 152.501699 59.852773 
L 152.73376 60.562846 
L 152.965822 59.900212 
L 153.429946 60.396314 
L 153.662008 59.907497 
L 153.89407 59.89687 
L 154.126132 59.173487 
L 154.358194 59.103216 
L 154.590255 59.80824 
L 154.822317 59.236402 
L 155.054379 59.087644 
L 155.518503 59.086765 
L 155.982627 59.765947 
L 156.214688 58.982065 
L 156.44675 59.038735 
L 156.678812 58.765381 
L 157.142936 58.896723 
L 157.60706 59.632681 
L 157.839121 58.986511 
L 158.071183 59.366101 
L 158.303245 59.016048 
L 158.767369 58.881973 
L 158.999431 59.046089 
L 159.463554 58.920532 
L 159.695616 59.130677 
L 160.15974 58.909347 
L 160.391802 59.084411 
L 160.623864 58.939017 
L 162.248297 59.248665 
L 162.712421 59.553416 
L 162.944482 59.372841 
L 163.87273 59.465912 
L 164.104792 59.561142 
L 164.336854 59.467524 
L 164.800977 59.5042 
L 165.033039 59.448803 
L 165.265101 59.598552 
L 165.497163 59.427977 
L 165.729225 59.603007 
L 165.961287 59.606109 
L 166.193348 59.407259 
L 166.657472 59.324737 
L 166.889534 59.182813 
L 167.121596 59.181176 
L 167.353658 59.302935 
L 167.58572 59.56632 
L 167.817782 59.200405 
L 168.049843 59.646093 
L 168.281905 59.268323 
L 169.210153 59.067011 
L 169.442215 59.655844 
L 169.674276 59.780753 
L 170.1384 59.37906 
L 170.370462 59.249803 
L 170.602524 59.282616 
L 171.066648 59.106795 
L 171.298709 59.22828 
L 172.459019 59.285931 
L 172.923143 59.392418 
L 173.155204 59.706351 
L 173.387266 59.631494 
L 173.619328 59.35518 
L 174.083452 59.22009 
L 174.315514 59.433983 
L 174.779637 59.508619 
L 175.707885 59.5183 
L 175.939947 59.397061 
L 176.172009 59.73982 
L 176.40407 59.477176 
L 176.636132 59.984223 
L 177.332318 60.343348 
L 177.56438 59.818106 
L 178.724689 59.610994 
L 178.956751 59.490546 
L 179.188813 59.754637 
L 179.420875 59.577056 
L 179.884998 59.725826 
L 180.11706 59.519328 
L 180.349122 59.839379 
L 180.581184 59.62622 
L 181.27737 59.626891 
L 181.509431 59.954766 
L 181.741493 59.628711 
L 182.669741 59.481541 
L 183.133864 59.697317 
L 183.365926 59.61565 
L 183.83005 59.10913 
L 184.294174 59.568977 
L 184.758297 59.314662 
L 184.990359 59.257194 
L 185.222421 59.316395 
L 185.454483 59.241477 
L 186.150669 59.642241 
L 186.382731 59.491814 
L 186.614792 59.667814 
L 186.846854 59.545643 
L 187.54304 59.713902 
L 188.007164 59.550528 
L 188.239225 59.629304 
L 188.703349 59.568348 
L 188.935411 59.957127 
L 189.399535 59.638224 
L 189.631597 59.849546 
L 189.863658 59.60396 
L 190.09572 59.735657 
L 190.327782 59.650651 
L 190.559844 59.945417 
L 190.791906 59.770295 
L 191.25603 59.906686 
L 191.488091 59.733571 
L 191.720153 59.780723 
L 191.952215 59.658043 
L 192.184277 59.847386 
L 192.416339 59.846859 
L 192.648401 59.650687 
L 192.880463 59.786239 
L 193.112525 59.611673 
L 193.344586 59.803482 
L 194.040772 59.555073 
L 194.272834 59.723928 
L 195.665205 59.652434 
L 195.897267 59.563069 
L 196.129329 59.604159 
L 196.593452 59.460344 
L 196.825514 59.75318 
L 197.057576 59.281454 
L 197.5217 59.36321 
L 197.753762 59.338177 
L 197.985824 59.512213 
L 198.217886 59.345775 
L 198.449947 59.453018 
L 198.914071 59.465311 
L 199.378195 59.499829 
L 199.610257 59.667798 
L 199.842319 59.44763 
L 200.07438 59.838942 
L 200.306442 59.688495 
L 200.538504 60.528597 
L 201.23469 59.763766 
L 201.466752 59.978929 
L 202.162937 59.829696 
L 202.394999 60.186987 
L 203.091185 60.070194 
L 203.555308 59.938475 
L 203.78737 59.987516 
L 204.019432 59.808066 
L 204.94768 60.089333 
L 205.179741 60.634324 
L 205.411803 59.802456 
L 205.643865 59.95879 
L 206.107989 59.883602 
L 206.340051 60.038672 
L 206.804174 59.946542 
L 207.036236 60.000785 
L 207.50036 59.717708 
L 207.964484 59.995301 
L 208.196546 59.769248 
L 208.428607 59.797116 
L 208.660669 60.073611 
L 208.892731 59.703279 
L 209.124793 59.649541 
L 209.356855 59.912136 
L 209.820979 59.67114 
L 210.285102 59.655364 
L 210.517164 59.647076 
L 211.445412 60.200582 
L 211.677474 60.163799 
L 211.909535 60.385217 
L 212.605721 60.337257 
L 212.837783 60.064257 
L 213.301907 60.038108 
L 213.533968 60.160367 
L 213.998092 59.672107 
L 214.230154 59.927715 
L 214.462216 59.82929 
L 214.694278 60.171803 
L 214.92634 59.843122 
L 215.158401 59.860588 
L 215.622525 58.526728 
L 215.854587 58.44331 
L 216.086649 58.589597 
L 216.318711 58.943288 
L 217.014896 59.319481 
L 217.246958 60.357784 
L 217.47902 59.648699 
L 217.943144 59.691834 
L 219.103453 60.251717 
L 219.335515 60.252621 
L 219.567577 60.08053 
L 219.799639 60.084084 
L 220.031701 59.8857 
L 220.263762 59.973636 
L 220.727886 60.393176 
L 220.959948 60.277619 
L 221.19201 60.631677 
L 221.424072 60.712736 
L 221.888195 60.610821 
L 222.120257 60.872825 
L 222.352319 60.731115 
L 222.584381 60.847282 
L 222.816443 60.786623 
L 223.048505 60.994399 
L 223.280567 60.801388 
L 223.512629 60.769868 
L 223.976752 60.403377 
L 224.440876 60.200293 
L 225.601185 60.194905 
L 225.833247 59.646546 
L 226.529433 59.488134 
L 226.761495 59.111967 
L 226.993556 59.282907 
L 227.225618 59.097952 
L 227.45768 59.517289 
L 227.689742 59.35351 
L 227.921804 59.441582 
L 228.153866 59.117276 
L 228.385928 59.281939 
L 228.850051 58.702759 
L 229.082113 59.176924 
L 229.314175 59.339558 
L 229.546237 58.864967 
L 229.778299 59.696044 
L 230.010361 59.641067 
L 230.474484 60.407908 
L 230.706546 60.061749 
L 231.17067 60.251789 
L 231.402732 60.601235 
L 231.634794 60.432575 
L 232.098917 61.186221 
L 232.330979 60.714618 
L 232.563041 61.267708 
L 232.795103 60.927415 
L 233.027165 60.982544 
L 233.72335 59.381219 
L 233.955412 59.477352 
L 234.187474 60.016271 
L 234.419536 60.226294 
L 234.651598 60.266287 
L 234.88366 59.998244 
L 235.347783 59.863864 
L 235.579845 60.616278 
L 236.043969 60.090737 
L 236.276031 59.968375 
L 236.508093 60.194612 
L 236.972217 60.0952 
L 237.204278 60.184022 
L 237.900464 57.087696 
L 238.364588 56.717297 
L 238.59665 58.282977 
L 239.060773 58.999568 
L 239.292835 59.337567 
L 239.524897 58.112856 
L 239.756959 59.192051 
L 240.221083 59.68171 
L 240.453144 60.132968 
L 240.685206 60.073427 
L 240.917268 60.86494 
L 241.381392 60.480844 
L 241.613454 61.455476 
L 241.845516 61.674503 
L 242.077577 62.146667 
L 242.309639 62.296067 
L 242.541701 62.135667 
L 242.773763 61.838446 
L 243.005825 62.33591 
L 243.237887 62.146003 
L 243.469949 62.231011 
L 244.166134 61.965185 
L 244.86232 61.601598 
L 245.094382 62.241317 
L 245.326444 61.317889 
L 245.558505 61.160401 
L 245.790567 61.339559 
L 246.022629 60.885744 
L 246.254691 61.080868 
L 246.486753 61.04938 
L 246.718815 60.473199 
L 246.950877 60.607002 
L 247.182938 59.994777 
L 247.415 60.585059 
L 247.879124 59.640994 
L 248.111186 59.918359 
L 248.343248 59.950437 
L 248.57531 59.794068 
L 248.807371 59.064175 
L 249.039433 59.033413 
L 249.271495 59.362879 
L 249.503557 60.542141 
L 249.735619 60.05879 
L 249.967681 59.914164 
L 250.431805 60.331433 
L 250.663866 60.222553 
L 250.895928 59.009903 
L 251.12799 59.224297 
L 251.824176 60.846606 
L 252.056238 60.810944 
L 252.288299 61.065023 
L 252.520361 61.100613 
L 252.752423 61.012932 
L 252.984485 61.280188 
L 253.216547 61.009507 
L 253.448609 61.104439 
L 254.144794 60.871577 
L 254.376856 61.431032 
L 254.608918 61.099988 
L 254.84098 61.638681 
L 255.073042 61.303027 
L 255.305104 61.705508 
L 255.769227 61.553225 
L 256.001289 61.810845 
L 256.233351 60.951339 
L 256.465413 61.407928 
L 256.697475 60.916141 
L 256.929537 60.923987 
L 257.161599 60.488899 
L 257.39366 59.785887 
L 257.857784 60.430963 
L 258.089846 60.529832 
L 258.321908 59.825754 
L 258.786032 59.544315 
L 259.018093 59.60378 
L 259.482217 59.406585 
L 259.714279 59.537847 
L 259.946341 59.416395 
L 260.410465 59.776434 
L 260.642526 59.599321 
L 260.874588 59.830621 
L 261.10665 59.658969 
L 261.570774 59.988854 
L 261.802836 60.639659 
L 262.034898 60.805839 
L 262.26696 60.291682 
L 262.499021 60.418072 
L 262.731083 61.501427 
L 262.963145 61.214211 
L 263.427269 61.073352 
L 263.659331 60.963447 
L 263.891393 61.117801 
L 264.587578 61.030068 
L 264.81964 61.435902 
L 265.051702 61.533517 
L 265.283764 61.175459 
L 265.515826 61.219074 
L 265.747887 60.914744 
L 265.979949 60.399215 
L 266.212011 60.560225 
L 266.444073 60.377566 
L 267.37232 61.004981 
L 267.604382 60.718629 
L 267.836444 60.769556 
L 268.068506 60.592241 
L 268.53263 60.607827 
L 268.764692 60.217432 
L 269.925001 59.426466 
L 270.157063 59.601178 
L 270.389125 59.949906 
L 270.621187 59.973562 
L 270.853248 59.674742 
L 271.08531 59.836556 
L 271.549434 60.5864 
L 271.781496 60.024614 
L 272.013558 59.914714 
L 272.24562 59.991988 
L 272.477681 60.213162 
L 272.941805 60.272685 
L 273.173867 60.359766 
L 273.405929 60.989303 
L 273.637991 60.76079 
L 273.870053 61.069445 
L 274.566238 61.313266 
L 274.7983 61.791135 
L 275.030362 61.536221 
L 276.190671 61.453417 
L 276.654795 61.697644 
L 276.886857 61.461205 
L 277.118919 61.651225 
L 277.583042 61.419762 
L 278.047166 61.836859 
L 278.279228 61.69088 
L 279.207475 61.668427 
L 279.903661 61.460013 
L 280.135723 60.786543 
L 280.367785 60.570666 
L 280.599847 60.716897 
L 280.831909 60.2928 
L 281.296032 60.085881 
L 281.760156 59.999829 
L 282.456342 59.847968 
L 282.688403 59.909428 
L 282.920465 59.704791 
L 283.152527 59.664323 
L 284.312836 60.294936 
L 284.544898 60.588091 
L 285.009022 60.600552 
L 286.401393 61.025343 
L 286.865517 61.225979 
L 287.793764 61.287952 
L 288.025826 61.101563 
L 288.257888 61.390956 
L 288.48995 61.2534 
L 288.722012 60.864866 
L 288.954074 60.793029 
L 289.186136 61.902779 
L 289.418197 60.628538 
L 289.650259 60.86255 
L 289.882321 61.550172 
L 290.114383 61.543335 
L 290.346445 61.301622 
L 290.578507 61.339693 
L 291.04263 61.08522 
L 291.506754 61.33367 
L 291.738816 61.079337 
L 292.20294 61.620574 
L 292.435002 62.1719 
L 293.363249 61.5735 
L 293.595311 61.672106 
L 293.827373 61.422964 
L 294.059435 60.876259 
L 294.75562 60.423172 
L 294.987682 60.558525 
L 295.219744 60.492966 
L 295.683868 60.181594 
L 296.147991 60.070653 
L 296.380053 60.198855 
L 296.612115 60.151797 
L 296.844177 60.231261 
L 297.076239 60.181069 
L 297.308301 60.291775 
L 297.772424 60.789251 
L 298.236548 60.892601 
L 298.46861 61.260619 
L 298.700672 61.243655 
L 298.932734 61.632193 
L 299.628919 61.959365 
L 300.093043 63.057385 
L 300.325105 62.585971 
L 300.557167 63.293937 
L 300.789229 62.943421 
L 301.253352 61.8237 
L 301.717476 61.211951 
L 302.413662 60.669609 
L 302.877785 61.093703 
L 303.341909 61.060043 
L 303.806033 60.941069 
L 304.038095 61.166919 
L 304.270157 61.17619 
L 304.73428 60.335631 
L 305.662528 59.547636 
L 307.054899 59.883723 
L 308.679332 60.622894 
L 309.607579 61.143052 
L 309.839641 61.393919 
L 310.071703 61.400692 
L 310.303765 61.231698 
L 310.535827 61.257051 
L 310.767889 61.152911 
L 311.232012 61.298012 
L 311.464074 61.580713 
L 311.696136 61.66157 
L 311.928198 61.575889 
L 312.16026 61.636723 
L 313.552631 61.162351 
L 314.016755 61.315971 
L 314.248817 61.084454 
L 314.945002 61.187897 
L 315.177064 60.718325 
L 315.409126 60.556261 
L 315.641188 60.537186 
L 315.87325 60.273578 
L 316.337373 60.33231 
L 316.569435 60.189 
L 317.729745 60.284793 
L 319.122116 60.466008 
L 319.354178 60.273245 
L 320.282425 61.016487 
L 320.514487 61.044642 
L 320.978611 61.386176 
L 321.674796 61.470905 
L 321.906858 61.515319 
L 322.13892 61.817068 
L 322.370982 61.538725 
L 322.835106 61.706402 
L 323.299229 61.709961 
L 323.531291 61.998972 
L 324.227477 61.773146 
L 324.6916 62.12861 
L 324.923662 61.654905 
L 325.387786 61.620803 
L 325.619848 62.102158 
L 325.85191 61.490347 
L 326.083972 61.502657 
L 327.476343 60.821534 
L 327.708405 61.1331 
L 327.940467 60.719307 
L 328.172528 60.794915 
L 328.40459 60.523327 
L 328.636652 61.009623 
L 328.868714 60.351912 
L 329.332838 60.545192 
L 330.029023 60.598205 
L 330.725209 60.858172 
L 330.957271 61.545387 
L 331.189333 61.186567 
L 332.11758 61.39257 
L 332.349642 61.003854 
L 332.813766 61.336206 
L 333.509951 61.315759 
L 334.206137 61.501381 
L 335.134384 61.480013 
L 335.83057 61.555035 
L 336.062632 61.674091 
L 336.294694 61.645051 
L 336.526755 61.94202 
L 336.990879 61.198082 
L 337.222941 61.321293 
L 337.455003 61.582023 
L 337.687065 61.02875 
L 338.151189 61.400021 
L 338.38325 61.296972 
L 338.847374 60.889306 
L 339.079436 60.825662 
L 339.311498 61.193458 
L 340.703869 61.385434 
L 341.167993 61.156525 
L 342.328302 61.544258 
L 342.560364 61.523263 
L 343.256549 61.866433 
L 343.488611 61.788 
L 343.720673 62.213294 
L 343.952735 61.914045 
L 344.648921 61.870121 
L 344.880983 61.558972 
L 345.113044 61.830997 
L 346.041292 61.789617 
L 346.273354 61.592552 
L 346.505416 61.81959 
L 346.969539 61.711216 
L 347.201601 61.898708 
L 347.665725 61.654057 
L 348.593972 61.372882 
L 348.826034 61.413726 
L 349.290158 61.205365 
L 349.52222 61.215142 
L 349.986343 60.871501 
L 350.218405 61.213816 
L 350.682529 61.035105 
L 350.914591 61.093332 
L 351.146653 61.680086 
L 351.378715 61.582788 
L 351.610777 61.920041 
L 351.842838 61.96671 
L 352.306962 61.74121 
L 352.539024 61.769834 
L 352.771086 61.957888 
L 353.23521 61.593547 
L 353.699333 61.365821 
L 353.931395 61.660708 
L 354.163457 61.730904 
L 354.395519 61.647831 
L 354.627581 61.329914 
L 355.323766 61.150861 
L 355.78789 61.665832 
L 356.484076 61.73369 
L 356.716138 61.911595 
L 356.948199 62.626615 
L 358.108509 61.974962 
L 358.804694 62.707562 
L 359.036756 63.322947 
L 359.732942 62.486211 
L 360.197065 61.904555 
L 360.429127 62.034118 
L 360.661189 61.558864 
L 360.893251 61.368298 
L 361.125313 61.661963 
L 361.589437 61.341024 
L 361.821498 61.583268 
L 362.05356 60.885342 
L 362.981808 60.028807 
L 363.21387 60.131357 
L 363.445932 59.900927 
L 363.677993 59.991401 
L 364.142117 59.686812 
L 364.606241 60.024944 
L 364.838303 59.850905 
L 365.070365 59.863316 
L 365.302426 60.026969 
L 365.534488 60.345449 
L 365.76655 60.423885 
L 366.230674 61.015567 
L 367.158921 61.61133 
L 367.855107 61.715414 
L 368.319231 62.257389 
L 368.783354 62.709259 
L 369.015416 62.844086 
L 369.247478 63.707341 
L 369.47954 63.905987 
L 369.711602 63.515628 
L 370.175726 63.32505 
L 370.871911 63.1064 
L 371.336035 62.601113 
L 372.03222 62.559831 
L 372.496344 62.232625 
L 373.888715 60.968344 
L 375.049025 60.76102 
L 375.977272 61.432666 
L 376.441396 61.491243 
L 376.90552 61.441814 
L 377.137581 61.434323 
L 377.369643 61.578111 
L 377.601705 61.241602 
L 377.833767 61.730336 
L 378.297891 61.739107 
L 378.762014 61.939928 
L 378.994076 62.242922 
L 379.226138 62.045213 
L 379.690262 62.234154 
L 380.386447 62.360424 
L 380.618509 62.800589 
L 380.850571 62.553749 
L 382.01088 62.564111 
L 382.242942 62.121123 
L 382.707066 62.12308 
L 382.939128 62.084149 
L 383.403252 62.55808 
L 383.635314 62.164609 
L 383.867375 62.136642 
L 384.331499 61.69011 
L 384.795623 61.893435 
L 385.259747 61.342918 
L 385.491808 61.292788 
L 385.72387 61.107103 
L 385.955932 61.160853 
L 386.187994 61.03068 
L 386.88418 61.212504 
L 387.116241 61.511409 
L 387.348303 61.291197 
L 387.580365 61.270311 
L 387.812427 61.05753 
L 388.044489 61.035991 
L 388.740675 61.467128 
L 388.972736 61.312336 
L 389.900984 61.346541 
L 390.133046 61.383188 
L 390.365108 61.628961 
L 391.061293 61.703701 
L 391.293355 61.70032 
L 391.525417 62.154984 
L 391.989541 62.107339 
L 392.221602 62.32682 
L 392.685726 62.295804 
L 393.613974 62.162597 
L 393.846035 62.407632 
L 394.774283 62.075871 
L 395.006345 62.159287 
L 395.238407 62.008585 
L 395.470469 62.112147 
L 395.70253 62.512138 
L 395.934592 62.660072 
L 396.166654 62.611107 
L 396.398716 62.227036 
L 396.630778 62.248812 
L 396.86284 62.154647 
L 397.094902 62.243746 
L 397.559025 61.449671 
L 397.791087 61.767492 
L 398.023149 61.445405 
L 398.487273 62.176408 
L 398.487273 62.176408 
" style="fill:none;stroke:#1f77b4;stroke-linecap:square;stroke-width:1.5;"/>
   </g>
   <g id="line2d_19">
    <path clip-path="url(#pf6e2313f08)" d="M 73.832727 286.900711 
L 74.064789 293.199203 
L 74.296851 293.306306 
L 74.528913 293.248914 
L 74.760975 290.759385 
L 74.993037 292.756521 
L 75.225098 291.393546 
L 75.45716 292.04117 
L 76.153346 289.289621 
L 76.385408 289.233558 
L 76.849531 289.536797 
L 77.081593 289.201115 
L 77.313655 289.668273 
L 77.545717 289.535744 
L 78.009841 289.874675 
L 78.473965 290.087002 
L 78.706026 290.144199 
L 79.17015 290.786171 
L 79.402212 289.921309 
L 79.634274 290.339037 
L 79.866336 292.624958 
L 80.098398 289.790624 
L 80.330459 289.975157 
L 81.026645 292.037567 
L 81.490769 290.246498 
L 81.722831 291.20221 
L 81.954892 290.677439 
L 82.186954 291.144898 
L 82.419016 290.176074 
L 82.651078 291.464107 
L 82.88314 290.277534 
L 83.115202 291.74147 
L 83.347264 291.475079 
L 83.811387 291.810284 
L 84.043449 289.655012 
L 84.275511 290.691077 
L 84.507573 290.382956 
L 85.667882 290.274846 
L 85.899944 290.601382 
L 86.132006 290.242048 
L 86.364068 290.503363 
L 86.59613 290.393516 
L 86.828192 290.724938 
L 87.060253 290.414164 
L 87.756439 290.060748 
L 87.988501 289.088382 
L 88.452625 288.743153 
L 88.684686 289.468987 
L 88.916748 288.773963 
L 89.14881 288.475518 
L 89.612934 289.298426 
L 89.844996 289.096497 
L 90.30912 289.113155 
L 90.541181 289.840332 
L 90.773243 288.909436 
L 91.005305 288.929665 
L 91.237367 288.741212 
L 91.701491 290.311002 
L 92.397676 290.322635 
L 92.629738 290.815718 
L 92.8618 290.945508 
L 93.093862 293.19039 
L 93.325924 290.512876 
L 93.557986 290.496082 
L 94.022109 290.074078 
L 94.254171 290.396466 
L 94.950357 290.428867 
L 95.182419 291.417489 
L 95.41448 290.09383 
L 95.878604 290.983976 
L 96.110666 290.841178 
L 96.57479 290.800252 
L 96.806852 289.751998 
L 97.038914 290.589229 
L 97.270975 290.404951 
L 97.503037 291.054819 
L 97.735099 290.783008 
L 97.967161 291.150783 
L 98.199223 289.820622 
L 98.431285 290.073798 
L 98.663347 289.925162 
L 99.12747 288.721038 
L 99.591594 289.686556 
L 99.823656 290.249174 
L 100.055718 289.305243 
L 100.28778 289.368867 
L 100.519841 289.249124 
L 101.680151 289.497687 
L 101.912213 289.358511 
L 102.144274 290.403599 
L 102.376336 289.588891 
L 102.608398 289.814934 
L 103.072522 289.314568 
L 103.536646 290.63905 
L 103.768708 290.015303 
L 104.232831 291.612325 
L 104.464893 290.840168 
L 104.696955 290.830877 
L 104.929017 290.969686 
L 105.393141 290.870397 
L 105.857264 290.583595 
L 106.089326 291.786316 
L 106.55345 292.17931 
L 106.785512 292.321608 
L 107.017574 292.2653 
L 107.249635 294.045295 
L 107.481697 294.699795 
L 107.713759 292.275884 
L 107.945821 292.483971 
L 108.409945 289.216133 
L 108.642007 289.463756 
L 108.874068 290.813949 
L 109.10613 290.503519 
L 109.338192 289.647348 
L 109.570254 289.975036 
L 109.802316 289.752088 
L 110.034378 290.417787 
L 110.26644 291.470302 
L 110.498502 291.957094 
L 110.730563 293.246121 
L 110.962625 292.873106 
L 111.426749 289.338659 
L 111.658811 289.883687 
L 111.890873 291.792453 
L 112.122935 290.218503 
L 112.587058 290.287289 
L 112.81912 291.647602 
L 113.283244 290.041385 
L 113.747368 289.908072 
L 113.979429 290.436233 
L 114.211491 290.272221 
L 114.675615 290.255203 
L 114.907677 290.747186 
L 115.139739 290.344494 
L 115.371801 290.305115 
L 115.603862 291.408702 
L 115.835924 291.77732 
L 116.53211 291.111731 
L 116.764172 290.473872 
L 116.996234 291.127977 
L 117.228296 290.552295 
L 117.460357 291.101845 
L 117.692419 290.206634 
L 117.924481 291.190377 
L 118.388605 290.500374 
L 118.620667 290.881692 
L 118.852729 290.249685 
L 119.08479 291.483874 
L 119.316852 291.170119 
L 119.548914 290.581919 
L 119.780976 291.533717 
L 120.013038 289.934602 
L 120.2451 291.284004 
L 120.477162 290.933193 
L 120.709223 291.52476 
L 120.941285 290.212571 
L 121.173347 290.841171 
L 121.405409 292.156971 
L 121.637471 292.383917 
L 121.869533 291.245688 
L 122.101595 291.677152 
L 122.333657 291.80861 
L 122.565718 289.999959 
L 122.79778 289.745018 
L 123.029842 289.89684 
L 123.493966 289.911722 
L 123.726028 290.198916 
L 123.95809 291.175017 
L 124.190151 290.465175 
L 124.422213 290.1884 
L 124.654275 290.195104 
L 124.886337 289.496198 
L 125.350461 290.817947 
L 125.582523 289.795228 
L 126.046646 291.379972 
L 126.278708 291.208229 
L 126.51077 292.051419 
L 126.742832 291.01902 
L 126.974894 292.085698 
L 127.206956 290.256863 
L 127.439017 290.91252 
L 127.903141 290.032429 
L 128.135203 290.400523 
L 128.367265 290.215305 
L 128.599327 289.836485 
L 129.063451 289.910075 
L 129.295512 290.18453 
L 129.527574 290.177941 
L 129.759636 290.378213 
L 129.991698 290.426273 
L 130.22376 290.336718 
L 130.455822 290.434985 
L 130.687884 290.007482 
L 130.919945 290.387263 
L 131.152007 289.986357 
L 131.384069 290.186762 
L 131.848193 289.804802 
L 132.544378 290.152966 
L 132.77644 290.051687 
L 133.008502 291.848568 
L 133.240564 290.62566 
L 133.472626 290.797551 
L 133.704688 289.241574 
L 133.93675 291.747484 
L 134.400873 289.813957 
L 134.632935 290.795128 
L 134.864997 289.542311 
L 135.097059 289.486822 
L 135.561183 292.232453 
L 135.793245 290.454333 
L 136.025306 289.832974 
L 136.257368 290.969137 
L 136.48943 290.197721 
L 136.721492 290.821468 
L 136.953554 290.844656 
L 137.185616 290.300881 
L 137.417678 290.217259 
L 137.649739 290.561232 
L 137.881801 290.219847 
L 138.113863 290.786767 
L 138.577987 290.76086 
L 138.810049 290.675385 
L 139.042111 290.1193 
L 139.274172 290.080958 
L 139.506234 290.608834 
L 139.738296 290.012346 
L 139.970358 290.385102 
L 140.20242 290.384166 
L 140.434482 291.727582 
L 140.666544 291.666382 
L 140.898605 290.023835 
L 141.130667 290.096273 
L 141.594791 290.415959 
L 141.826853 290.390803 
L 142.058915 290.177099 
L 142.290977 290.590046 
L 142.523039 289.436496 
L 142.7551 291.977778 
L 142.987162 291.285183 
L 143.219224 291.911987 
L 143.451286 290.333134 
L 143.683348 290.178419 
L 143.91541 289.859747 
L 144.147472 289.952691 
L 144.379533 289.671711 
L 144.611595 290.827884 
L 144.843657 291.287585 
L 145.075719 289.757347 
L 145.307781 291.917196 
L 145.771905 290.561097 
L 146.003966 290.334144 
L 146.236028 290.924419 
L 146.932214 291.11804 
L 147.164276 291.163259 
L 147.396338 291.382568 
L 147.6284 291.375493 
L 148.324585 289.603409 
L 148.556647 290.336315 
L 148.788709 289.430022 
L 149.020771 290.50164 
L 149.252833 290.146577 
L 149.484894 290.019835 
L 149.716956 289.506775 
L 149.949018 290.440775 
L 150.18108 290.546121 
L 150.413142 289.443111 
L 150.645204 292.009798 
L 151.109327 289.833852 
L 151.341389 290.790327 
L 151.573451 289.99203 
L 151.805513 290.541457 
L 152.037575 290.419731 
L 152.269637 289.425175 
L 152.501699 290.319386 
L 152.73376 290.421403 
L 152.965822 289.139232 
L 153.662008 289.87501 
L 153.89407 290.87321 
L 154.126132 290.231626 
L 154.358194 291.939865 
L 154.590255 289.536261 
L 154.822317 290.339458 
L 155.054379 290.069609 
L 155.286441 290.610817 
L 155.518503 289.518759 
L 155.982627 289.84747 
L 156.214688 289.726473 
L 156.678812 290.651083 
L 156.910874 289.699419 
L 157.142936 293.05398 
L 157.374998 290.357039 
L 157.60706 290.095156 
L 157.839121 289.277698 
L 158.071183 289.294549 
L 158.535307 292.123576 
L 158.767369 292.588143 
L 158.999431 290.089704 
L 159.231493 290.276362 
L 159.463554 289.94725 
L 159.695616 289.850147 
L 160.15974 290.13591 
L 160.391802 290.083576 
L 160.623864 293.297237 
L 160.855926 290.438658 
L 161.087988 290.492354 
L 161.320049 292.858404 
L 161.784173 288.947947 
L 162.016235 290.865688 
L 162.248297 289.970934 
L 162.712421 291.8663 
L 162.944482 291.722131 
L 163.176544 290.514045 
L 163.408606 290.605947 
L 163.640668 291.099209 
L 163.87273 292.87621 
L 164.104792 289.92277 
L 164.336854 290.092073 
L 164.568915 290.454355 
L 164.800977 290.00314 
L 165.033039 290.145746 
L 165.265101 290.013365 
L 165.497163 289.590661 
L 165.729225 289.948022 
L 165.961287 289.240333 
L 166.193348 290.458537 
L 166.42541 289.764748 
L 166.889534 289.942037 
L 167.121596 289.62881 
L 167.353658 291.34789 
L 167.58572 289.923294 
L 167.817782 289.513552 
L 168.049843 289.817207 
L 168.281905 291.55426 
L 168.513967 291.990759 
L 168.746029 290.498561 
L 168.978091 290.602272 
L 169.210153 290.146688 
L 169.442215 290.197806 
L 169.674276 290.96649 
L 169.906338 290.560725 
L 170.1384 291.20637 
L 170.370462 289.353019 
L 170.602524 290.414006 
L 170.834586 290.383178 
L 171.298709 291.161619 
L 171.530771 290.563371 
L 171.762833 290.47485 
L 171.994895 290.120312 
L 172.226957 291.088108 
L 172.459019 290.706491 
L 172.691081 290.711306 
L 173.155204 291.646999 
L 173.387266 290.701533 
L 173.619328 290.347035 
L 173.85139 289.249343 
L 174.083452 290.346875 
L 174.315514 290.295858 
L 174.547576 289.325567 
L 175.011699 290.03018 
L 175.243761 289.742702 
L 175.475823 289.684663 
L 175.707885 289.996566 
L 175.939947 289.884727 
L 176.172009 290.439901 
L 176.40407 290.263372 
L 176.636132 290.465287 
L 176.868194 291.784476 
L 177.332318 289.993954 
L 177.56438 289.372434 
L 177.796442 291.017941 
L 178.028503 289.943985 
L 178.492627 290.090925 
L 178.724689 293.311057 
L 178.956751 292.500164 
L 179.188813 292.116144 
L 179.420875 289.963415 
L 179.652937 289.66853 
L 179.884998 290.925546 
L 180.11706 291.455992 
L 180.349122 291.569648 
L 180.581184 290.41552 
L 180.813246 290.513697 
L 181.045308 292.329022 
L 181.27737 292.696701 
L 181.509431 291.057577 
L 181.741493 291.498941 
L 181.973555 290.28589 
L 182.205617 290.857748 
L 182.437679 290.129275 
L 182.669741 290.161643 
L 182.901803 290.950587 
L 183.133864 293.03689 
L 183.365926 290.679402 
L 183.597988 289.977424 
L 183.83005 289.889739 
L 184.062112 290.833801 
L 184.294174 290.319642 
L 184.758297 292.185275 
L 184.990359 290.405055 
L 185.222421 290.99236 
L 185.454483 290.450121 
L 185.686545 290.721514 
L 185.918607 291.836492 
L 186.150669 293.842483 
L 186.382731 290.465334 
L 186.614792 289.920962 
L 186.846854 290.863729 
L 187.078916 290.251116 
L 187.310978 290.361584 
L 187.54304 290.343666 
L 187.775102 290.617152 
L 188.007164 290.117736 
L 188.239225 290.028845 
L 188.471287 292.007591 
L 188.703349 289.848961 
L 188.935411 289.694505 
L 189.167473 290.06427 
L 189.399535 290.921323 
L 189.631597 291.050899 
L 190.09572 290.278052 
L 190.327782 292.442547 
L 190.559844 290.753731 
L 190.791906 290.07459 
L 191.25603 290.827728 
L 191.488091 290.403813 
L 191.720153 290.432351 
L 191.952215 291.35058 
L 192.184277 291.063507 
L 192.416339 291.399198 
L 192.648401 290.659651 
L 193.112525 290.193867 
L 193.344586 290.091944 
L 193.576648 290.666185 
L 193.80871 290.389536 
L 194.040772 291.270039 
L 194.272834 289.808354 
L 194.504896 290.981939 
L 194.736958 290.419004 
L 194.969019 290.513918 
L 195.201081 289.57304 
L 195.433143 289.464463 
L 195.665205 289.608965 
L 195.897267 290.446826 
L 196.129329 289.891641 
L 196.593452 289.51669 
L 196.825514 290.442508 
L 197.289638 290.528033 
L 197.5217 289.620555 
L 197.753762 289.509354 
L 198.217886 289.768945 
L 198.449947 289.842441 
L 198.682009 290.179466 
L 198.914071 289.8358 
L 199.610257 290.818127 
L 200.07438 290.858553 
L 200.306442 291.574839 
L 200.538504 290.911355 
L 200.770566 291.69389 
L 201.23469 291.717571 
L 201.466752 290.012994 
L 201.930875 290.606455 
L 202.162937 290.021939 
L 202.394999 290.710803 
L 202.627061 290.633031 
L 202.859123 290.703116 
L 203.091185 290.560927 
L 203.323246 290.269593 
L 203.555308 290.527815 
L 203.78737 290.183013 
L 204.019432 290.115121 
L 204.251494 291.20926 
L 204.483556 290.807039 
L 204.715618 290.95952 
L 204.94768 290.911133 
L 205.179741 290.017551 
L 205.411803 290.154794 
L 205.643865 289.723818 
L 205.875927 290.840796 
L 206.107989 290.093554 
L 206.572113 289.338431 
L 206.804174 289.89979 
L 207.036236 289.859637 
L 207.268298 289.966126 
L 207.50036 289.931545 
L 207.964484 290.792627 
L 208.196546 290.055737 
L 208.428607 290.343219 
L 209.124793 290.038371 
L 209.356855 290.136222 
L 209.588917 289.889673 
L 209.820979 290.472272 
L 210.05304 289.52655 
L 210.285102 290.311138 
L 210.517164 290.502129 
L 210.749226 289.945713 
L 210.981288 290.095743 
L 211.21335 290.034661 
L 211.445412 289.811136 
L 211.909535 289.83502 
L 212.141597 289.817958 
L 212.837783 290.162262 
L 213.301907 290.21371 
L 213.533968 290.868757 
L 213.76603 290.87033 
L 213.998092 290.220236 
L 214.230154 290.852299 
L 214.462216 290.570267 
L 214.694278 290.526904 
L 214.92634 290.283442 
L 215.158401 291.472742 
L 215.622525 289.961136 
L 215.854587 290.747229 
L 216.086649 290.028735 
L 216.318711 291.167028 
L 216.550773 290.805438 
L 216.782834 290.746217 
L 217.014896 291.240564 
L 217.47902 291.204729 
L 217.711082 290.336458 
L 217.943144 290.685033 
L 218.407268 289.310419 
L 218.871391 289.760963 
L 219.103453 290.827416 
L 219.335515 289.775482 
L 219.567577 290.815001 
L 219.799639 291.027066 
L 220.031701 290.970876 
L 220.263762 291.072244 
L 220.495824 292.821408 
L 220.727886 290.413816 
L 220.959948 293.899617 
L 221.19201 293.670353 
L 221.424072 289.960891 
L 221.656134 288.87035 
L 221.888195 292.877997 
L 222.120257 292.845764 
L 222.352319 290.788874 
L 222.584381 290.329082 
L 222.816443 290.159354 
L 223.048505 292.085228 
L 223.280567 290.194297 
L 223.512629 291.290855 
L 223.74469 291.07904 
L 223.976752 290.53223 
L 224.208814 289.341602 
L 224.440876 291.306636 
L 224.672938 290.235879 
L 224.905 290.163443 
L 225.137062 289.06108 
L 225.369123 291.703297 
L 225.601185 289.960888 
L 225.833247 292.992679 
L 226.065309 290.60796 
L 226.297371 295.488 
L 226.529433 290.780614 
L 226.761495 289.182722 
L 226.993556 290.125636 
L 227.225618 292.13619 
L 227.689742 291.307486 
L 228.153866 290.54753 
L 228.385928 290.410462 
L 228.617989 291.437785 
L 228.850051 290.244742 
L 229.082113 290.578872 
L 229.314175 291.172672 
L 229.546237 289.816187 
L 229.778299 290.611048 
L 230.010361 289.677093 
L 230.242423 289.916478 
L 230.474484 289.956713 
L 230.706546 290.489913 
L 230.938608 290.498837 
L 231.17067 289.867216 
L 231.402732 290.075457 
L 231.634794 289.910292 
L 231.866856 289.911116 
L 232.098917 289.448753 
L 232.330979 290.578877 
L 232.563041 290.959974 
L 232.795103 290.222696 
L 233.027165 290.088863 
L 233.259227 290.132684 
L 233.72335 291.007611 
L 233.955412 291.087249 
L 234.187474 290.008184 
L 234.419536 290.053565 
L 234.651598 290.597959 
L 234.88366 290.439379 
L 235.115722 289.670897 
L 235.347783 289.975315 
L 235.579845 289.707726 
L 235.811907 290.421891 
L 236.043969 290.119124 
L 236.740155 290.111445 
L 236.972217 290.422934 
L 237.204278 290.013805 
L 237.43634 289.98082 
L 237.900464 290.382501 
L 238.132526 290.101552 
L 238.364588 290.089269 
L 238.59665 290.425225 
L 238.828711 290.457635 
L 239.060773 290.726988 
L 239.292835 290.384256 
L 239.756959 290.234799 
L 240.221083 290.768278 
L 240.453144 290.731735 
L 240.685206 290.49032 
L 240.917268 290.605204 
L 241.613454 290.501529 
L 241.845516 291.270025 
L 242.077577 290.432341 
L 242.309639 290.165212 
L 242.541701 291.263223 
L 242.773763 289.453955 
L 243.005825 290.472547 
L 243.237887 290.374738 
L 243.469949 289.812873 
L 243.702011 290.029403 
L 243.934072 289.618961 
L 244.398196 290.264486 
L 244.630258 289.906811 
L 244.86232 291.07377 
L 245.094382 289.62415 
L 245.326444 290.441964 
L 245.558505 290.58841 
L 245.790567 289.834528 
L 246.254691 290.458191 
L 246.486753 289.924253 
L 246.718815 290.812074 
L 246.950877 290.654931 
L 247.182938 290.336339 
L 247.415 290.765475 
L 247.647062 290.047082 
L 247.879124 289.941517 
L 248.111186 290.815893 
L 248.343248 290.024475 
L 248.57531 289.975816 
L 249.039433 291.060056 
L 249.271495 290.468068 
L 249.503557 290.269144 
L 249.735619 290.40296 
L 249.967681 290.767886 
L 250.663866 290.826941 
L 250.895928 290.242833 
L 251.12799 290.456969 
L 251.360052 290.333035 
L 251.592114 291.407246 
L 251.824176 290.850888 
L 252.288299 290.853014 
L 252.520361 290.313302 
L 252.752423 290.917052 
L 253.216547 291.060563 
L 253.680671 290.240043 
L 253.912732 290.294362 
L 254.144794 289.467904 
L 254.376856 290.186282 
L 254.608918 290.244619 
L 254.84098 290.522592 
L 255.305104 290.539155 
L 255.537166 289.43612 
L 255.769227 290.432124 
L 256.001289 290.585543 
L 257.161599 290.407905 
L 257.39366 290.9817 
L 257.625722 290.492553 
L 258.089846 290.318596 
L 258.321908 289.637105 
L 258.786032 291.815638 
L 259.018093 291.662754 
L 259.250155 291.22899 
L 259.482217 290.305549 
L 259.714279 290.977797 
L 259.946341 289.632067 
L 260.178403 290.583257 
L 260.410465 290.891752 
L 260.642526 290.95408 
L 260.874588 290.351639 
L 261.10665 290.525933 
L 261.338712 290.026416 
L 261.570774 290.240205 
L 261.802836 290.134694 
L 262.034898 290.181206 
L 262.26696 290.902306 
L 262.499021 290.621353 
L 262.731083 291.587379 
L 263.427269 290.759808 
L 263.659331 289.731979 
L 263.891393 290.771126 
L 264.123454 294.45597 
L 264.587578 290.844493 
L 264.81964 292.226005 
L 265.051702 294.468456 
L 265.979949 294.272327 
L 266.212011 294.33018 
L 266.444073 292.501845 
L 266.676135 289.662945 
L 266.908197 289.557685 
L 267.140259 290.341871 
L 267.37232 289.204619 
L 267.604382 290.128495 
L 267.836444 289.570423 
L 268.068506 290.791814 
L 268.300568 291.229907 
L 268.53263 290.388217 
L 268.996754 290.301566 
L 269.228815 289.676136 
L 269.692939 290.134129 
L 269.925001 291.103982 
L 270.157063 290.921477 
L 270.389125 289.674423 
L 270.621187 290.963548 
L 270.853248 289.736364 
L 271.08531 290.421953 
L 271.317372 290.598127 
L 271.549434 289.812461 
L 271.781496 290.617128 
L 272.24562 290.94255 
L 272.477681 289.976326 
L 272.709743 290.266496 
L 272.941805 290.796314 
L 273.173867 290.167245 
L 273.637991 290.457347 
L 273.870053 290.472278 
L 274.102114 291.140903 
L 274.334176 291.045917 
L 274.566238 290.786225 
L 274.7983 290.838052 
L 275.030362 290.692757 
L 275.262424 290.713736 
L 275.494486 290.348005 
L 275.958609 290.699186 
L 276.654795 290.712292 
L 276.886857 291.417535 
L 277.118919 290.410929 
L 277.350981 291.472405 
L 277.583042 291.218436 
L 277.815104 291.191057 
L 278.047166 290.948216 
L 278.279228 291.618111 
L 278.51129 290.799053 
L 279.439537 289.499049 
L 279.671599 290.328018 
L 280.135723 290.329369 
L 280.367785 289.897523 
L 280.599847 290.691907 
L 280.831909 290.626565 
L 281.06397 290.712751 
L 281.296032 290.372685 
L 281.528094 290.49029 
L 281.760156 291.426911 
L 281.992218 290.883624 
L 282.22428 289.94487 
L 282.456342 290.54518 
L 282.688403 289.977294 
L 283.152527 289.664205 
L 283.384589 289.974821 
L 284.080775 290.017137 
L 284.312836 290.129997 
L 284.544898 290.755328 
L 284.77696 290.655077 
L 285.009022 291.109786 
L 285.473146 290.884112 
L 285.705208 291.104818 
L 286.169331 291.245481 
L 286.401393 289.949012 
L 286.633455 290.975985 
L 286.865517 291.16458 
L 287.329641 290.641686 
L 287.561703 290.699604 
L 287.793764 291.167398 
L 288.025826 291.152869 
L 288.257888 290.638172 
L 288.48995 290.403063 
L 288.722012 290.866287 
L 289.186136 290.986503 
L 289.418197 290.301812 
L 289.650259 290.163673 
L 289.882321 290.690787 
L 290.578507 290.458584 
L 290.810569 290.132785 
L 291.04263 290.832655 
L 291.274692 290.383889 
L 291.506754 290.247567 
L 291.738816 289.676412 
L 291.970878 290.253771 
L 292.20294 290.15388 
L 292.435002 288.739704 
L 292.667063 289.690788 
L 292.899125 289.734622 
L 293.131187 290.846017 
L 293.363249 290.045877 
L 294.059435 290.235488 
L 294.523558 290.14611 
L 294.75562 290.584979 
L 294.987682 290.196039 
L 295.219744 290.053099 
L 295.451806 289.751386 
L 295.683868 291.126076 
L 295.91593 290.28702 
L 296.147991 289.993652 
L 296.380053 291.030638 
L 297.076239 291.215515 
L 297.308301 291.470883 
L 297.540363 290.834212 
L 298.004486 290.686668 
L 298.236548 290.129814 
L 298.46861 290.539093 
L 299.164796 290.665039 
L 299.396857 290.314993 
L 300.093043 291.180904 
L 300.325105 290.416574 
L 300.557167 290.750844 
L 301.253352 290.809571 
L 301.485414 290.682963 
L 301.717476 290.697078 
L 301.949538 290.173937 
L 302.1816 289.954337 
L 302.413662 289.936893 
L 302.645724 289.802401 
L 302.877785 289.52036 
L 303.109847 289.48292 
L 303.341909 290.09821 
L 303.573971 290.009091 
L 303.806033 291.354705 
L 304.038095 289.807295 
L 304.270157 291.18538 
L 304.502218 289.981965 
L 304.73428 289.667266 
L 304.966342 289.769926 
L 305.198404 289.266923 
L 305.430466 289.167434 
L 305.89459 289.328245 
L 306.358713 290.95204 
L 306.590775 290.148423 
L 307.054899 289.979086 
L 307.286961 290.07138 
L 307.519023 289.989482 
L 307.751085 289.5744 
L 308.215208 289.71124 
L 308.44727 289.610083 
L 308.679332 289.018072 
L 308.911394 289.88248 
L 309.143456 289.558197 
L 309.375518 289.524793 
L 309.607579 290.545546 
L 310.071703 289.277427 
L 310.303765 289.218539 
L 310.535827 290.040781 
L 310.999951 290.125288 
L 311.464074 290.20315 
L 311.696136 291.534802 
L 311.928198 289.389208 
L 312.16026 290.575699 
L 312.392322 291.044431 
L 312.624384 291.053895 
L 312.856446 291.522 
L 313.088507 290.797649 
L 313.320569 290.442387 
L 313.552631 289.687562 
L 313.784693 289.607397 
L 314.016755 290.09992 
L 314.248817 290.11615 
L 314.480879 289.981061 
L 314.945002 290.093539 
L 315.177064 290.618806 
L 315.409126 289.956852 
L 315.87325 291.286736 
L 316.105312 290.313443 
L 316.337373 290.875701 
L 316.569435 290.86067 
L 316.801497 291.298113 
L 317.033559 289.880818 
L 317.265621 289.778329 
L 317.497683 289.832518 
L 317.729745 290.139277 
L 317.961806 291.507676 
L 318.193868 289.557069 
L 318.42593 289.906069 
L 318.657992 289.512598 
L 318.890054 290.00102 
L 319.122116 289.627312 
L 319.58624 289.487817 
L 319.818301 289.559085 
L 320.050363 291.524461 
L 320.282425 291.217907 
L 320.514487 291.358209 
L 320.746549 290.522186 
L 321.210673 290.129507 
L 321.442734 291.151904 
L 321.674796 290.854333 
L 321.906858 290.750242 
L 322.13892 290.434385 
L 322.603044 290.376155 
L 322.835106 290.509999 
L 323.299229 289.708503 
L 323.763353 290.256348 
L 324.227477 289.993866 
L 324.459539 290.252844 
L 324.6916 290.175457 
L 324.923662 290.276357 
L 325.155724 289.834652 
L 325.619848 289.876138 
L 325.85191 289.885464 
L 326.083972 290.069561 
L 326.316034 289.891879 
L 330.029023 290.159643 
L 330.261085 290.692071 
L 330.493147 290.812335 
L 330.725209 290.788711 
L 331.189333 291.016638 
L 331.421395 291.087009 
L 331.653456 290.650621 
L 332.349642 290.475088 
L 332.813766 290.41689 
L 333.045828 289.593351 
L 333.742013 289.857387 
L 335.366446 290.019279 
L 335.598508 290.09334 
L 336.062632 290.654535 
L 336.294694 290.050494 
L 336.526755 290.224844 
L 336.758817 290.962727 
L 336.990879 290.920906 
L 337.222941 290.318989 
L 337.455003 291.611412 
L 337.687065 291.714502 
L 337.919127 290.448321 
L 338.151189 290.746983 
L 338.38325 290.191807 
L 338.615312 290.516345 
L 338.847374 291.417771 
L 339.54356 290.623852 
L 339.775622 290.826097 
L 340.007683 290.810711 
L 340.239745 291.926001 
L 340.471807 291.011441 
L 340.703869 291.631095 
L 340.935931 291.290963 
L 341.167993 290.288497 
L 341.400055 290.232807 
L 341.632116 289.627854 
L 341.864178 289.893544 
L 342.09624 289.811725 
L 342.328302 289.483614 
L 342.792426 289.900602 
L 343.952735 289.786577 
L 344.648921 289.626177 
L 344.880983 290.179373 
L 345.345106 289.964223 
L 345.577168 290.127134 
L 345.80923 289.82931 
L 346.041292 289.862327 
L 346.273354 290.090749 
L 354.163457 290.276649 
L 355.78789 289.955414 
L 356.019952 290.295302 
L 358.108509 290.068659 
L 358.340571 290.061103 
L 358.572632 289.606629 
L 358.804694 289.585075 
L 359.268818 289.851908 
L 359.50088 289.740623 
L 359.732942 289.176436 
L 360.429127 289.321658 
L 360.661189 289.147286 
L 360.893251 289.455675 
L 361.125313 289.573581 
L 361.357375 289.410142 
L 361.589437 289.590672 
L 361.821498 289.354875 
L 362.517684 289.549647 
L 362.981808 289.627505 
L 363.21387 291.221783 
L 363.445932 290.891053 
L 363.677993 291.173591 
L 363.910055 290.500952 
L 364.838303 290.532109 
L 365.070365 290.010637 
L 365.302426 290.585481 
L 365.534488 290.718027 
L 365.76655 290.376554 
L 365.998612 290.36842 
L 366.230674 291.091321 
L 366.462736 290.728295 
L 366.694798 290.964098 
L 366.926859 290.878707 
L 367.158921 290.645698 
L 367.390983 290.077526 
L 367.623045 290.121885 
L 367.855107 289.530062 
L 368.087169 289.852055 
L 368.319231 289.855354 
L 368.783354 290.354507 
L 369.015416 290.160972 
L 369.711602 290.213656 
L 369.943664 290.563499 
L 370.407787 290.476184 
L 370.639849 290.43544 
L 370.871911 290.216344 
L 371.103973 290.469345 
L 371.568097 290.04597 
L 371.800159 290.601848 
L 373.19253 290.346939 
L 373.424592 289.915552 
L 373.656653 290.251867 
L 374.352839 290.215344 
L 374.816963 290.251814 
L 375.049025 290.503337 
L 375.281086 290.13041 
L 375.513148 291.148045 
L 375.74521 289.762595 
L 375.977272 289.400835 
L 376.209334 290.51115 
L 376.441396 290.140275 
L 376.90552 290.247538 
L 377.137581 289.927313 
L 377.369643 290.389638 
L 377.601705 289.9365 
L 377.833767 290.508691 
L 378.065829 290.645169 
L 378.297891 290.185975 
L 378.529953 291.007427 
L 378.762014 290.20885 
L 378.994076 290.848693 
L 379.226138 291.061864 
L 381.082633 290.581302 
L 381.314695 290.143862 
L 381.778819 290.136125 
L 382.242942 290.01959 
L 382.475004 289.798348 
L 382.707066 289.738074 
L 382.939128 289.17623 
L 383.17119 289.65146 
L 383.867375 289.662837 
L 384.099437 289.113837 
L 384.331499 289.634968 
L 384.563561 289.6901 
L 384.795623 289.156121 
L 385.259747 289.987144 
L 385.491808 289.410746 
L 385.955932 289.62541 
L 386.187994 289.643726 
L 386.420056 289.354279 
L 386.652118 289.712731 
L 386.88418 289.414643 
L 387.116241 289.778577 
L 387.812427 289.913405 
L 388.044489 289.898839 
L 388.276551 289.610935 
L 388.508613 289.944918 
L 388.740675 289.695964 
L 388.972736 290.033093 
L 389.204798 290.169481 
L 389.900984 290.268032 
L 390.133046 290.289994 
L 390.365108 290.069883 
L 390.597169 290.016986 
L 390.829231 289.77029 
L 391.061293 290.238873 
L 391.293355 289.746405 
L 391.525417 290.169111 
L 391.989541 290.096364 
L 392.221602 289.581473 
L 392.685726 290.338942 
L 392.917788 289.372286 
L 393.14985 290.477909 
L 393.381912 290.243133 
L 393.613974 291.403687 
L 394.078097 289.259443 
L 394.310159 290.086175 
L 394.542221 289.830833 
L 394.774283 290.011396 
L 395.006345 289.158729 
L 395.238407 290.185662 
L 395.470469 290.080309 
L 395.70253 289.262619 
L 395.934592 290.420202 
L 396.166654 289.931394 
L 396.398716 289.907167 
L 396.630778 289.032944 
L 397.094902 289.83222 
L 397.326963 289.554332 
L 397.559025 290.821242 
L 397.791087 289.967102 
L 398.023149 289.561922 
L 398.255211 289.783926 
L 398.487273 290.178866 
L 398.487273 290.178866 
" style="fill:none;stroke:#ff7f0e;stroke-linecap:square;stroke-width:1.5;"/>
   </g>
   <g id="patch_3">
    <path d="M 57.6 307.584 
L 57.6 41.472 
" style="fill:none;stroke:#000000;stroke-linecap:square;stroke-linejoin:miter;stroke-width:0.8;"/>
   </g>
   <g id="patch_4">
    <path d="M 414.72 307.584 
L 414.72 41.472 
" style="fill:none;stroke:#000000;stroke-linecap:square;stroke-linejoin:miter;stroke-width:0.8;"/>
   </g>
   <g id="patch_5">
    <path d="M 57.6 307.584 
L 414.72 307.584 
" style="fill:none;stroke:#000000;stroke-linecap:square;stroke-linejoin:miter;stroke-width:0.8;"/>
   </g>
   <g id="patch_6">
    <path d="M 57.6 41.472 
L 414.72 41.472 
" style="fill:none;stroke:#000000;stroke-linecap:square;stroke-linejoin:miter;stroke-width:0.8;"/>
   </g>
  </g>
 </g>
 <defs>
  <clipPath id="pf6e2313f08">
   <rect height="266.112" width="357.12" x="57.6" y="41.472"/>
  </clipPath>
 </defs>
</svg>
