<?xml version="1.0" encoding="utf-8" standalone="no"?>
<!DOCTYPE svg PUBLIC "-//W3C//DTD SVG 1.1//EN"
  "http://www.w3.org/Graphics/SVG/1.1/DTD/svg11.dtd">
<!-- Created with matplotlib (https://matplotlib.org/) -->
<svg height="345.6pt" version="1.1" viewBox="0 0 460.8 345.6" width="460.8pt" xmlns="http://www.w3.org/2000/svg" xmlns:xlink="http://www.w3.org/1999/xlink">
 <defs>
  <style type="text/css">
*{stroke-linecap:butt;stroke-linejoin:round;}
  </style>
 </defs>
 <g id="figure_1">
  <g id="patch_1">
   <path d="M 0 345.6 
L 460.8 345.6 
L 460.8 0 
L 0 0 
z
" style="fill:#ffffff;"/>
  </g>
  <g id="axes_1">
   <g id="patch_2">
    <path d="M 57.6 307.584 
L 414.72 307.584 
L 414.72 41.472 
L 57.6 41.472 
z
" style="fill:#ffffff;"/>
   </g>
   <g id="matplotlib.axis_1">
    <g id="xtick_1">
     <g id="line2d_1">
      <defs>
       <path d="M 0 0 
L 0 3.5 
" id="m11e3f8bc06" style="stroke:#000000;stroke-width:0.8;"/>
      </defs>
      <g>
       <use style="stroke:#000000;stroke-width:0.8;" x="73.832727" xlink:href="#m11e3f8bc06" y="307.584"/>
      </g>
     </g>
     <g id="text_1">
      <!-- 0 -->
      <defs>
       <path d="M 31.78125 66.40625 
Q 24.171875 66.40625 20.328125 58.90625 
Q 16.5 51.421875 16.5 36.375 
Q 16.5 21.390625 20.328125 13.890625 
Q 24.171875 6.390625 31.78125 6.390625 
Q 39.453125 6.390625 43.28125 13.890625 
Q 47.125 21.390625 47.125 36.375 
Q 47.125 51.421875 43.28125 58.90625 
Q 39.453125 66.40625 31.78125 66.40625 
z
M 31.78125 74.21875 
Q 44.046875 74.21875 50.515625 64.515625 
Q 56.984375 54.828125 56.984375 36.375 
Q 56.984375 17.96875 50.515625 8.265625 
Q 44.046875 -1.421875 31.78125 -1.421875 
Q 19.53125 -1.421875 13.0625 8.265625 
Q 6.59375 17.96875 6.59375 36.375 
Q 6.59375 54.828125 13.0625 64.515625 
Q 19.53125 74.21875 31.78125 74.21875 
z
" id="DejaVuSans-48"/>
      </defs>
      <g transform="translate(70.651477 322.182437)scale(0.1 -0.1)">
       <use xlink:href="#DejaVuSans-48"/>
      </g>
     </g>
    </g>
    <g id="xtick_2">
     <g id="line2d_2">
      <g>
       <use style="stroke:#000000;stroke-width:0.8;" x="120.2451" xlink:href="#m11e3f8bc06" y="307.584"/>
      </g>
     </g>
     <g id="text_2">
      <!-- 200 -->
      <defs>
       <path d="M 19.1875 8.296875 
L 53.609375 8.296875 
L 53.609375 0 
L 7.328125 0 
L 7.328125 8.296875 
Q 12.9375 14.109375 22.625 23.890625 
Q 32.328125 33.6875 34.8125 36.53125 
Q 39.546875 41.84375 41.421875 45.53125 
Q 43.3125 49.21875 43.3125 52.78125 
Q 43.3125 58.59375 39.234375 62.25 
Q 35.15625 65.921875 28.609375 65.921875 
Q 23.96875 65.921875 18.8125 64.3125 
Q 13.671875 62.703125 7.8125 59.421875 
L 7.8125 69.390625 
Q 13.765625 71.78125 18.9375 73 
Q 24.125 74.21875 28.421875 74.21875 
Q 39.75 74.21875 46.484375 68.546875 
Q 53.21875 62.890625 53.21875 53.421875 
Q 53.21875 48.921875 51.53125 44.890625 
Q 49.859375 40.875 45.40625 35.40625 
Q 44.1875 33.984375 37.640625 27.21875 
Q 31.109375 20.453125 19.1875 8.296875 
z
" id="DejaVuSans-50"/>
      </defs>
      <g transform="translate(110.70135 322.182437)scale(0.1 -0.1)">
       <use xlink:href="#DejaVuSans-50"/>
       <use x="63.623047" xlink:href="#DejaVuSans-48"/>
       <use x="127.246094" xlink:href="#DejaVuSans-48"/>
      </g>
     </g>
    </g>
    <g id="xtick_3">
     <g id="line2d_3">
      <g>
       <use style="stroke:#000000;stroke-width:0.8;" x="166.657472" xlink:href="#m11e3f8bc06" y="307.584"/>
      </g>
     </g>
     <g id="text_3">
      <!-- 400 -->
      <defs>
       <path d="M 37.796875 64.3125 
L 12.890625 25.390625 
L 37.796875 25.390625 
z
M 35.203125 72.90625 
L 47.609375 72.90625 
L 47.609375 25.390625 
L 58.015625 25.390625 
L 58.015625 17.1875 
L 47.609375 17.1875 
L 47.609375 0 
L 37.796875 0 
L 37.796875 17.1875 
L 4.890625 17.1875 
L 4.890625 26.703125 
z
" id="DejaVuSans-52"/>
      </defs>
      <g transform="translate(157.113722 322.182437)scale(0.1 -0.1)">
       <use xlink:href="#DejaVuSans-52"/>
       <use x="63.623047" xlink:href="#DejaVuSans-48"/>
       <use x="127.246094" xlink:href="#DejaVuSans-48"/>
      </g>
     </g>
    </g>
    <g id="xtick_4">
     <g id="line2d_4">
      <g>
       <use style="stroke:#000000;stroke-width:0.8;" x="213.069845" xlink:href="#m11e3f8bc06" y="307.584"/>
      </g>
     </g>
     <g id="text_4">
      <!-- 600 -->
      <defs>
       <path d="M 33.015625 40.375 
Q 26.375 40.375 22.484375 35.828125 
Q 18.609375 31.296875 18.609375 23.390625 
Q 18.609375 15.53125 22.484375 10.953125 
Q 26.375 6.390625 33.015625 6.390625 
Q 39.65625 6.390625 43.53125 10.953125 
Q 47.40625 15.53125 47.40625 23.390625 
Q 47.40625 31.296875 43.53125 35.828125 
Q 39.65625 40.375 33.015625 40.375 
z
M 52.59375 71.296875 
L 52.59375 62.3125 
Q 48.875 64.0625 45.09375 64.984375 
Q 41.3125 65.921875 37.59375 65.921875 
Q 27.828125 65.921875 22.671875 59.328125 
Q 17.53125 52.734375 16.796875 39.40625 
Q 19.671875 43.65625 24.015625 45.921875 
Q 28.375 48.1875 33.59375 48.1875 
Q 44.578125 48.1875 50.953125 41.515625 
Q 57.328125 34.859375 57.328125 23.390625 
Q 57.328125 12.15625 50.6875 5.359375 
Q 44.046875 -1.421875 33.015625 -1.421875 
Q 20.359375 -1.421875 13.671875 8.265625 
Q 6.984375 17.96875 6.984375 36.375 
Q 6.984375 53.65625 15.1875 63.9375 
Q 23.390625 74.21875 37.203125 74.21875 
Q 40.921875 74.21875 44.703125 73.484375 
Q 48.484375 72.75 52.59375 71.296875 
z
" id="DejaVuSans-54"/>
      </defs>
      <g transform="translate(203.526095 322.182437)scale(0.1 -0.1)">
       <use xlink:href="#DejaVuSans-54"/>
       <use x="63.623047" xlink:href="#DejaVuSans-48"/>
       <use x="127.246094" xlink:href="#DejaVuSans-48"/>
      </g>
     </g>
    </g>
    <g id="xtick_5">
     <g id="line2d_5">
      <g>
       <use style="stroke:#000000;stroke-width:0.8;" x="259.482217" xlink:href="#m11e3f8bc06" y="307.584"/>
      </g>
     </g>
     <g id="text_5">
      <!-- 800 -->
      <defs>
       <path d="M 31.78125 34.625 
Q 24.75 34.625 20.71875 30.859375 
Q 16.703125 27.09375 16.703125 20.515625 
Q 16.703125 13.921875 20.71875 10.15625 
Q 24.75 6.390625 31.78125 6.390625 
Q 38.8125 6.390625 42.859375 10.171875 
Q 46.921875 13.96875 46.921875 20.515625 
Q 46.921875 27.09375 42.890625 30.859375 
Q 38.875 34.625 31.78125 34.625 
z
M 21.921875 38.8125 
Q 15.578125 40.375 12.03125 44.71875 
Q 8.5 49.078125 8.5 55.328125 
Q 8.5 64.0625 14.71875 69.140625 
Q 20.953125 74.21875 31.78125 74.21875 
Q 42.671875 74.21875 48.875 69.140625 
Q 55.078125 64.0625 55.078125 55.328125 
Q 55.078125 49.078125 51.53125 44.71875 
Q 48 40.375 41.703125 38.8125 
Q 48.828125 37.15625 52.796875 32.3125 
Q 56.78125 27.484375 56.78125 20.515625 
Q 56.78125 9.90625 50.3125 4.234375 
Q 43.84375 -1.421875 31.78125 -1.421875 
Q 19.734375 -1.421875 13.25 4.234375 
Q 6.78125 9.90625 6.78125 20.515625 
Q 6.78125 27.484375 10.78125 32.3125 
Q 14.796875 37.15625 21.921875 38.8125 
z
M 18.3125 54.390625 
Q 18.3125 48.734375 21.84375 45.5625 
Q 25.390625 42.390625 31.78125 42.390625 
Q 38.140625 42.390625 41.71875 45.5625 
Q 45.3125 48.734375 45.3125 54.390625 
Q 45.3125 60.0625 41.71875 63.234375 
Q 38.140625 66.40625 31.78125 66.40625 
Q 25.390625 66.40625 21.84375 63.234375 
Q 18.3125 60.0625 18.3125 54.390625 
z
" id="DejaVuSans-56"/>
      </defs>
      <g transform="translate(249.938467 322.182437)scale(0.1 -0.1)">
       <use xlink:href="#DejaVuSans-56"/>
       <use x="63.623047" xlink:href="#DejaVuSans-48"/>
       <use x="127.246094" xlink:href="#DejaVuSans-48"/>
      </g>
     </g>
    </g>
    <g id="xtick_6">
     <g id="line2d_6">
      <g>
       <use style="stroke:#000000;stroke-width:0.8;" x="305.89459" xlink:href="#m11e3f8bc06" y="307.584"/>
      </g>
     </g>
     <g id="text_6">
      <!-- 1000 -->
      <defs>
       <path d="M 12.40625 8.296875 
L 28.515625 8.296875 
L 28.515625 63.921875 
L 10.984375 60.40625 
L 10.984375 69.390625 
L 28.421875 72.90625 
L 38.28125 72.90625 
L 38.28125 8.296875 
L 54.390625 8.296875 
L 54.390625 0 
L 12.40625 0 
z
" id="DejaVuSans-49"/>
      </defs>
      <g transform="translate(293.16959 322.182437)scale(0.1 -0.1)">
       <use xlink:href="#DejaVuSans-49"/>
       <use x="63.623047" xlink:href="#DejaVuSans-48"/>
       <use x="127.246094" xlink:href="#DejaVuSans-48"/>
       <use x="190.869141" xlink:href="#DejaVuSans-48"/>
      </g>
     </g>
    </g>
    <g id="xtick_7">
     <g id="line2d_7">
      <g>
       <use style="stroke:#000000;stroke-width:0.8;" x="352.306962" xlink:href="#m11e3f8bc06" y="307.584"/>
      </g>
     </g>
     <g id="text_7">
      <!-- 1200 -->
      <g transform="translate(339.581962 322.182437)scale(0.1 -0.1)">
       <use xlink:href="#DejaVuSans-49"/>
       <use x="63.623047" xlink:href="#DejaVuSans-50"/>
       <use x="127.246094" xlink:href="#DejaVuSans-48"/>
       <use x="190.869141" xlink:href="#DejaVuSans-48"/>
      </g>
     </g>
    </g>
    <g id="xtick_8">
     <g id="line2d_8">
      <g>
       <use style="stroke:#000000;stroke-width:0.8;" x="398.719335" xlink:href="#m11e3f8bc06" y="307.584"/>
      </g>
     </g>
     <g id="text_8">
      <!-- 1400 -->
      <g transform="translate(385.994335 322.182437)scale(0.1 -0.1)">
       <use xlink:href="#DejaVuSans-49"/>
       <use x="63.623047" xlink:href="#DejaVuSans-52"/>
       <use x="127.246094" xlink:href="#DejaVuSans-48"/>
       <use x="190.869141" xlink:href="#DejaVuSans-48"/>
      </g>
     </g>
    </g>
   </g>
   <g id="matplotlib.axis_2">
    <g id="ytick_1">
     <g id="line2d_9">
      <defs>
       <path d="M 0 0 
L -3.5 0 
" id="m5123453ef8" style="stroke:#000000;stroke-width:0.8;"/>
      </defs>
      <g>
       <use style="stroke:#000000;stroke-width:0.8;" x="57.6" xlink:href="#m5123453ef8" y="258.260995"/>
      </g>
     </g>
     <g id="text_9">
      <!-- 0.2 -->
      <defs>
       <path d="M 10.6875 12.40625 
L 21 12.40625 
L 21 0 
L 10.6875 0 
z
" id="DejaVuSans-46"/>
      </defs>
      <g transform="translate(34.696875 262.060214)scale(0.1 -0.1)">
       <use xlink:href="#DejaVuSans-48"/>
       <use x="63.623047" xlink:href="#DejaVuSans-46"/>
       <use x="95.410156" xlink:href="#DejaVuSans-50"/>
      </g>
     </g>
    </g>
    <g id="ytick_2">
     <g id="line2d_10">
      <g>
       <use style="stroke:#000000;stroke-width:0.8;" x="57.6" xlink:href="#m5123453ef8" y="208.015562"/>
      </g>
     </g>
     <g id="text_10">
      <!-- 0.4 -->
      <g transform="translate(34.696875 211.81478)scale(0.1 -0.1)">
       <use xlink:href="#DejaVuSans-48"/>
       <use x="63.623047" xlink:href="#DejaVuSans-46"/>
       <use x="95.410156" xlink:href="#DejaVuSans-52"/>
      </g>
     </g>
    </g>
    <g id="ytick_3">
     <g id="line2d_11">
      <g>
       <use style="stroke:#000000;stroke-width:0.8;" x="57.6" xlink:href="#m5123453ef8" y="157.770128"/>
      </g>
     </g>
     <g id="text_11">
      <!-- 0.6 -->
      <g transform="translate(34.696875 161.569347)scale(0.1 -0.1)">
       <use xlink:href="#DejaVuSans-48"/>
       <use x="63.623047" xlink:href="#DejaVuSans-46"/>
       <use x="95.410156" xlink:href="#DejaVuSans-54"/>
      </g>
     </g>
    </g>
    <g id="ytick_4">
     <g id="line2d_12">
      <g>
       <use style="stroke:#000000;stroke-width:0.8;" x="57.6" xlink:href="#m5123453ef8" y="107.524695"/>
      </g>
     </g>
     <g id="text_12">
      <!-- 0.8 -->
      <g transform="translate(34.696875 111.323913)scale(0.1 -0.1)">
       <use xlink:href="#DejaVuSans-48"/>
       <use x="63.623047" xlink:href="#DejaVuSans-46"/>
       <use x="95.410156" xlink:href="#DejaVuSans-56"/>
      </g>
     </g>
    </g>
    <g id="ytick_5">
     <g id="line2d_13">
      <g>
       <use style="stroke:#000000;stroke-width:0.8;" x="57.6" xlink:href="#m5123453ef8" y="57.279261"/>
      </g>
     </g>
     <g id="text_13">
      <!-- 1.0 -->
      <g transform="translate(34.696875 61.07848)scale(0.1 -0.1)">
       <use xlink:href="#DejaVuSans-49"/>
       <use x="63.623047" xlink:href="#DejaVuSans-46"/>
       <use x="95.410156" xlink:href="#DejaVuSans-48"/>
      </g>
     </g>
    </g>
   </g>
   <g id="line2d_14">
    <path clip-path="url(#p202146d1fb)" d="M 73.832727 63.146688 
L 74.296851 69.306109 
L 74.760975 75.17461 
L 75.225098 81.017425 
L 75.689222 84.603307 
L 75.921284 85.783019 
L 76.153346 86.191217 
L 76.385408 86.139415 
L 76.61747 85.815533 
L 77.081593 83.204919 
L 77.777779 75.890893 
L 78.706026 64.586903 
L 79.634274 56.614129 
L 80.098398 54.768883 
L 80.562521 53.89859 
L 81.490769 53.568 
L 81.954892 54.112828 
L 82.419016 53.858992 
L 82.651078 54.007198 
L 82.88314 53.973764 
L 83.115202 54.154079 
L 83.347264 53.942121 
L 83.579325 53.911903 
L 83.811387 54.041267 
L 84.507573 55.148758 
L 84.739635 56.016797 
L 84.971697 56.333009 
L 85.667882 58.165977 
L 86.364068 59.708432 
L 86.59613 59.639939 
L 87.060253 60.541409 
L 87.292315 60.632424 
L 87.756439 61.095102 
L 88.220563 61.198859 
L 88.452625 60.804977 
L 88.916748 60.527909 
L 89.844996 58.567666 
L 90.077058 57.932053 
L 90.773243 57.5883 
L 91.237367 57.198854 
L 91.469429 57.100867 
L 91.933553 56.36502 
L 92.165614 56.485135 
L 92.397676 56.064564 
L 92.629738 55.994673 
L 93.093862 55.391056 
L 93.325924 55.536702 
L 93.790047 54.779595 
L 94.022109 54.873352 
L 94.254171 55.566394 
L 94.718295 55.395425 
L 95.182419 55.99083 
L 95.41448 56.368851 
L 95.646542 56.505214 
L 95.878604 56.953864 
L 96.110666 57.004119 
L 96.57479 57.753573 
L 96.806852 57.92241 
L 97.503037 58.920225 
L 97.735099 59.114434 
L 97.967161 59.026196 
L 98.895408 59.628219 
L 99.359532 59.884011 
L 99.823656 59.570034 
L 100.055718 59.237368 
L 100.28778 59.300662 
L 100.751903 58.825799 
L 101.216027 58.350582 
L 101.680151 57.802851 
L 102.608398 57.371476 
L 102.84046 57.819476 
L 103.072522 57.320586 
L 103.304584 57.249372 
L 103.536646 56.975625 
L 103.768708 56.269238 
L 104.000769 56.317112 
L 104.232831 56.642789 
L 104.464893 56.26864 
L 105.161079 56.251355 
L 105.393141 56.296693 
L 105.625202 55.788877 
L 105.857264 55.833906 
L 106.321388 56.263079 
L 106.55345 56.267761 
L 107.249635 56.764124 
L 107.713759 57.511112 
L 108.177883 58.204889 
L 109.570254 59.110029 
L 110.26644 59.241168 
L 110.498502 59.099546 
L 110.730563 59.218356 
L 110.962625 59.099739 
L 111.194687 59.110948 
L 111.426749 58.955295 
L 111.890873 58.913802 
L 112.122935 58.692389 
L 112.354996 58.697735 
L 112.587058 58.91393 
L 113.051182 58.283712 
L 113.283244 58.202375 
L 113.515306 57.859106 
L 113.747368 57.753637 
L 113.979429 57.466876 
L 114.675615 57.207247 
L 115.139739 56.892559 
L 115.371801 56.876562 
L 115.603862 56.70465 
L 116.300048 56.661242 
L 116.53211 56.498384 
L 118.156543 57.407771 
L 118.388605 57.653937 
L 118.852729 57.837027 
L 119.08479 58.153386 
L 119.316852 58.122494 
L 119.780976 58.459782 
L 121.405409 58.772077 
L 122.101595 58.498214 
L 122.333657 58.556584 
L 122.565718 58.307911 
L 122.79778 57.861912 
L 123.029842 57.718993 
L 123.726028 58.385276 
L 123.95809 58.411627 
L 124.422213 58.71833 
L 124.654275 58.532434 
L 124.886337 58.707129 
L 125.118399 57.878486 
L 125.350461 57.717876 
L 125.582523 57.869173 
L 125.814584 57.574722 
L 126.046646 57.714856 
L 126.278708 57.543305 
L 126.51077 57.529988 
L 126.742832 57.759707 
L 127.439017 57.595101 
L 128.135203 57.580974 
L 128.599327 57.570365 
L 129.063451 57.631852 
L 129.295512 57.815793 
L 129.759636 57.817103 
L 129.991698 57.806247 
L 130.687884 58.043263 
L 131.848193 58.467004 
L 132.080255 58.256866 
L 132.312317 58.376924 
L 132.544378 58.348833 
L 132.77644 58.516839 
L 133.240564 58.50975 
L 133.704688 58.763459 
L 134.632935 58.343786 
L 135.097059 58.328333 
L 135.561183 58.078055 
L 135.793245 58.161091 
L 136.025306 57.98939 
L 136.257368 58.022696 
L 136.48943 57.891996 
L 136.721492 57.931749 
L 136.953554 57.733792 
L 139.042111 58.025381 
L 139.274172 57.895597 
L 139.738296 57.953852 
L 139.970358 58.101729 
L 140.434482 58.048927 
L 141.130667 57.960859 
L 142.7551 58.019503 
L 143.219224 58.308324 
L 143.451286 58.171773 
L 144.147472 58.494123 
L 144.611595 58.306182 
L 144.843657 58.330352 
L 145.075719 58.192984 
L 145.307781 58.341222 
L 145.771905 58.245348 
L 146.700152 58.489288 
L 147.396338 58.333278 
L 148.092523 58.742082 
L 148.556647 58.37464 
L 148.788709 58.34829 
L 149.020771 58.021906 
L 149.949018 57.690093 
L 150.18108 58.163924 
L 150.413142 58.339798 
L 151.573451 57.849294 
L 152.037575 57.819404 
L 152.501699 57.528242 
L 152.73376 57.529836 
L 152.965822 57.398358 
L 153.429946 57.789579 
L 153.662008 57.671313 
L 154.590255 57.746503 
L 154.822317 58.022751 
L 155.982627 58.117097 
L 156.214688 58.464525 
L 156.44675 59.72882 
L 156.678812 59.393674 
L 156.910874 58.689436 
L 157.142936 59.230451 
L 157.374998 58.549205 
L 157.60706 58.948942 
L 157.839121 58.853652 
L 158.071183 59.05569 
L 158.303245 59.097814 
L 158.535307 58.696577 
L 158.767369 59.026348 
L 159.231493 58.442539 
L 159.463554 58.385724 
L 159.927678 58.01817 
L 160.855926 57.8434 
L 161.784173 57.801847 
L 162.712421 57.780947 
L 166.42541 58.231024 
L 166.657472 58.18034 
L 167.121596 58.406784 
L 168.049843 58.536226 
L 168.513967 58.498266 
L 168.746029 57.555343 
L 169.210153 58.045131 
L 169.442215 57.926706 
L 169.674276 57.993057 
L 169.906338 58.426435 
L 170.370462 58.168309 
L 170.602524 58.421162 
L 171.066648 58.198092 
L 171.298709 58.42723 
L 171.762833 58.470506 
L 171.994895 58.327883 
L 172.226957 58.57978 
L 172.459019 58.484015 
L 172.691081 58.256507 
L 172.923143 58.222405 
L 173.155204 58.348667 
L 173.619328 58.25325 
L 173.85139 58.416892 
L 174.083452 58.216095 
L 174.547576 58.312216 
L 174.779637 58.595102 
L 175.011699 58.40606 
L 175.475823 58.340313 
L 175.939947 58.297168 
L 176.172009 58.698499 
L 176.868194 57.743409 
L 177.100256 58.092662 
L 177.332318 58.190314 
L 177.796442 58.603088 
L 178.028503 58.728497 
L 178.260565 58.358544 
L 178.492627 58.928246 
L 178.724689 58.720266 
L 179.188813 58.72938 
L 179.420875 59.161689 
L 179.652937 59.088532 
L 179.884998 58.869401 
L 180.11706 58.857095 
L 180.581184 58.978121 
L 180.813246 58.810126 
L 181.045308 58.873425 
L 181.27737 58.718926 
L 181.509431 58.898501 
L 181.741493 58.547825 
L 181.973555 58.524567 
L 182.205617 58.352324 
L 182.669741 58.200476 
L 182.901803 58.077923 
L 183.133864 58.189824 
L 183.597988 58.026334 
L 183.83005 58.060711 
L 184.062112 57.747819 
L 184.758297 58.075529 
L 184.990359 58.002682 
L 185.454483 58.053625 
L 185.686545 58.022759 
L 186.150669 58.289399 
L 186.382731 58.18847 
L 186.614792 58.374776 
L 186.846854 58.204877 
L 187.310978 58.323432 
L 187.775102 58.406672 
L 188.007164 58.286488 
L 188.471287 58.434551 
L 188.703349 58.422574 
L 188.935411 58.674923 
L 189.167473 58.645316 
L 189.631597 58.774291 
L 189.863658 58.71635 
L 190.09572 58.424363 
L 190.327782 58.853305 
L 190.559844 58.641824 
L 190.791906 58.669527 
L 191.023968 58.540886 
L 191.25603 58.738397 
L 192.648401 58.570974 
L 192.880463 58.802184 
L 193.112525 58.549046 
L 193.344586 58.683878 
L 193.576648 58.454676 
L 193.80871 58.559858 
L 194.040772 58.436603 
L 194.272834 58.479154 
L 194.504896 58.406701 
L 194.736958 58.506938 
L 195.201081 58.296602 
L 195.433143 58.274342 
L 195.665205 58.376173 
L 196.361391 58.340926 
L 196.593452 58.557182 
L 196.825514 58.485723 
L 197.057576 58.531951 
L 197.289638 58.42581 
L 197.753762 58.495871 
L 197.985824 58.419928 
L 198.449947 58.615032 
L 198.682009 58.59445 
L 198.914071 58.433438 
L 199.146133 58.676057 
L 199.378195 58.736195 
L 199.610257 58.48632 
L 199.842319 58.502395 
L 200.306442 58.697552 
L 200.538504 58.646981 
L 200.770566 58.741122 
L 201.23469 58.636155 
L 201.698813 58.616862 
L 201.930875 58.934158 
L 202.162937 58.69118 
L 202.627061 58.626272 
L 203.78737 58.549031 
L 204.251494 58.542077 
L 204.715618 58.629176 
L 204.94768 58.497331 
L 207.036236 58.419706 
L 207.50036 58.421539 
L 207.732422 58.51086 
L 207.964484 58.799568 
L 208.196546 58.466252 
L 208.660669 58.675955 
L 209.124793 58.569277 
L 209.356855 59.089427 
L 209.588917 58.838095 
L 210.05304 58.890252 
L 210.285102 58.411222 
L 210.517164 58.612656 
L 210.749226 58.466627 
L 211.21335 58.666232 
L 211.445412 58.633884 
L 211.909535 58.747434 
L 212.141597 58.760338 
L 212.373659 58.899674 
L 212.605721 58.903279 
L 212.837783 58.705667 
L 213.069845 58.815812 
L 214.462216 58.401534 
L 215.390463 58.469201 
L 215.622525 58.631237 
L 216.318711 58.548396 
L 216.550773 58.811766 
L 217.246958 58.678637 
L 217.47902 58.445275 
L 218.175206 58.595718 
L 218.407268 58.374792 
L 218.871391 58.533562 
L 219.103453 57.840365 
L 219.335515 57.919427 
L 219.567577 56.913738 
L 220.031701 57.984825 
L 220.959948 58.516763 
L 221.424072 58.821811 
L 221.656134 59.136252 
L 221.888195 58.983605 
L 222.816443 59.358618 
L 223.048505 59.350473 
L 223.280567 59.199717 
L 223.512629 59.251148 
L 223.74469 59.126167 
L 223.976752 59.255015 
L 224.672938 59.075499 
L 226.993556 58.924542 
L 227.45768 59.155369 
L 227.689742 59.308361 
L 227.921804 59.20852 
L 228.153866 59.278855 
L 228.385928 58.948982 
L 228.617989 59.176722 
L 229.082113 59.071864 
L 229.778299 58.630394 
L 230.010361 58.651095 
L 230.474484 58.438642 
L 231.17067 58.438356 
L 231.402732 58.109077 
L 231.634794 58.437803 
L 231.866856 58.177386 
L 232.330979 58.410741 
L 232.563041 58.305412 
L 233.027165 58.582874 
L 233.259227 58.508206 
L 233.72335 58.65834 
L 234.651598 58.821928 
L 234.88366 58.655942 
L 235.115722 58.805798 
L 235.347783 58.743728 
L 236.043969 58.830035 
L 236.508093 58.866107 
L 236.972217 58.910792 
L 237.204278 59.178226 
L 237.43634 59.139073 
L 238.132526 59.354112 
L 238.59665 59.116478 
L 239.292835 59.086188 
L 239.524897 58.973401 
L 239.989021 59.481887 
L 240.221083 59.438379 
L 240.453144 59.520587 
L 240.685206 59.196519 
L 241.381392 59.003591 
L 241.845516 58.81287 
L 242.309639 58.782926 
L 242.541701 58.52963 
L 242.773763 58.441611 
L 243.005825 58.53558 
L 243.934072 58.341121 
L 244.166134 58.417572 
L 244.398196 58.248042 
L 244.630258 58.237708 
L 245.094382 58.40289 
L 246.950877 58.837482 
L 247.182938 58.691936 
L 247.415 58.877222 
L 248.111186 59.028495 
L 248.343248 59.237381 
L 249.735619 59.133793 
L 250.199743 58.855979 
L 250.431805 59.122407 
L 250.895928 59.191684 
L 251.592114 59.245864 
L 251.824176 59.005841 
L 252.520361 58.920108 
L 252.984485 58.773656 
L 253.680671 58.739408 
L 253.912732 58.615314 
L 254.144794 58.116804 
L 254.608918 58.223357 
L 254.84098 58.436126 
L 256.233351 58.841363 
L 256.465413 58.545959 
L 256.929537 58.823786 
L 257.39366 58.946293 
L 257.625722 59.194296 
L 257.857784 58.910491 
L 258.321908 59.281711 
L 258.55397 58.873529 
L 259.018093 58.92942 
L 259.482217 59.106646 
L 259.946341 59.183347 
L 260.178403 58.885672 
L 260.874588 59.260529 
L 261.10665 59.306561 
L 261.570774 59.782791 
L 262.034898 59.817221 
L 262.499021 59.637697 
L 262.963145 59.316178 
L 263.195207 59.20556 
L 263.427269 59.256582 
L 264.123454 58.971295 
L 264.355516 59.188183 
L 264.587578 59.200817 
L 264.81964 58.953506 
L 265.051702 58.876022 
L 265.283764 58.995369 
L 265.515826 58.810646 
L 265.979949 59.140174 
L 266.212011 58.917431 
L 266.908197 58.798681 
L 267.140259 58.995561 
L 267.836444 58.806047 
L 268.068506 59.142049 
L 268.300568 58.965889 
L 268.764692 59.046262 
L 268.996754 58.983376 
L 269.460877 59.132632 
L 269.692939 59.078037 
L 269.925001 59.19992 
L 270.157063 59.056693 
L 270.389125 59.251021 
L 270.621187 59.227633 
L 271.08531 58.865359 
L 271.549434 58.850866 
L 271.781496 58.959651 
L 272.013558 59.222734 
L 272.24562 59.100916 
L 272.709743 59.229017 
L 272.941805 59.11063 
L 273.173867 59.339515 
L 273.405929 59.241728 
L 273.637991 59.388241 
L 274.566238 59.1923 
L 274.7983 58.811447 
L 275.726548 58.839173 
L 275.958609 58.915723 
L 276.422733 58.775914 
L 276.886857 59.279125 
L 277.118919 59.210106 
L 277.350981 59.294666 
L 277.815104 59.126375 
L 278.047166 59.370633 
L 278.279228 59.288673 
L 278.51129 58.166616 
L 278.743352 58.505548 
L 279.207475 58.560002 
L 279.439537 58.768539 
L 279.903661 58.433197 
L 280.599847 58.841758 
L 281.528094 59.19185 
L 281.760156 59.225355 
L 281.992218 59.597605 
L 282.22428 59.582195 
L 282.456342 59.699336 
L 284.080775 59.612228 
L 284.312836 59.823847 
L 285.009022 59.756991 
L 285.473146 59.914839 
L 285.705208 59.139238 
L 285.937269 59.30595 
L 287.329641 58.759225 
L 287.793764 58.799478 
L 288.48995 58.664123 
L 288.722012 59.062609 
L 289.186136 58.656679 
L 289.650259 58.771964 
L 290.578507 58.980758 
L 290.810569 59.216481 
L 291.04263 59.228532 
L 291.274692 59.429664 
L 291.970878 59.364659 
L 292.20294 59.466853 
L 292.435002 59.346228 
L 292.667063 59.63113 
L 292.899125 59.556393 
L 293.131187 59.238437 
L 293.363249 59.260058 
L 293.595311 59.414123 
L 294.059435 59.533577 
L 294.291497 59.359856 
L 294.523558 59.455512 
L 294.75562 59.323539 
L 294.987682 59.378555 
L 295.219744 59.592133 
L 295.451806 59.258685 
L 295.91593 59.123812 
L 296.147991 59.260762 
L 296.844177 59.247071 
L 297.076239 59.07835 
L 297.308301 59.275624 
L 297.540363 59.147681 
L 297.772424 59.189217 
L 298.004486 59.105349 
L 298.236548 59.238202 
L 298.46861 59.177185 
L 298.700672 59.301332 
L 299.396857 59.096366 
L 299.628919 59.32146 
L 300.093043 59.275088 
L 300.557167 59.554962 
L 301.021291 59.420012 
L 301.253352 59.523451 
L 301.485414 59.417084 
L 301.949538 59.736152 
L 302.645724 59.494791 
L 302.877785 59.209893 
L 303.341909 59.348796 
L 303.573971 59.189127 
L 304.038095 59.279757 
L 304.73428 59.212058 
L 305.198404 59.247793 
L 305.430466 59.184297 
L 305.662528 59.34503 
L 305.89459 59.046178 
L 306.358713 59.231745 
L 306.590775 59.405419 
L 306.822837 59.366324 
L 307.286961 59.676147 
L 307.751085 59.33903 
L 307.983146 59.377047 
L 308.215208 59.690601 
L 308.44727 59.463322 
L 308.679332 59.576447 
L 309.375518 59.405107 
L 309.839641 59.441611 
L 310.071703 59.450309 
L 310.303765 59.231149 
L 310.767889 59.365284 
L 310.999951 59.24207 
L 311.464074 59.222651 
L 312.16026 59.127692 
L 312.624384 58.843576 
L 312.856446 58.840697 
L 313.088507 58.696358 
L 313.552631 59.004137 
L 314.016755 59.007289 
L 314.248817 59.241946 
L 315.177064 59.422095 
L 315.409126 59.606862 
L 316.105312 59.778152 
L 316.569435 58.412683 
L 316.801497 58.726338 
L 317.033559 58.760573 
L 317.265621 59.198079 
L 317.729745 59.12386 
L 318.42593 58.454734 
L 318.657992 58.235849 
L 318.890054 58.944833 
L 319.122116 58.768298 
L 319.354178 58.394294 
L 319.58624 58.576229 
L 319.818301 58.472697 
L 320.050363 58.785635 
L 320.282425 58.489174 
L 320.514487 58.714643 
L 320.746549 58.727056 
L 321.210673 59.071138 
L 321.674796 59.978247 
L 321.906858 59.143209 
L 322.370982 59.576001 
L 322.603044 59.607565 
L 322.835106 59.920029 
L 323.531291 60.137374 
L 323.763353 60.289394 
L 324.227477 60.046866 
L 324.459539 60.042143 
L 324.6916 60.342346 
L 325.155724 60.135778 
L 325.619848 60.189878 
L 325.85191 60.130581 
L 326.316034 60.240471 
L 326.548095 60.158232 
L 326.780157 60.284347 
L 327.012219 60.047004 
L 327.244281 60.134662 
L 327.708405 59.727902 
L 328.40459 58.938911 
L 328.636652 59.212956 
L 329.332838 59.264371 
L 329.5649 59.082639 
L 330.493147 59.378065 
L 330.725209 59.31033 
L 331.189333 59.368232 
L 331.653456 58.92649 
L 332.581704 59.341422 
L 333.045828 59.479547 
L 333.277889 59.421434 
L 333.742013 59.679988 
L 333.974075 59.543516 
L 334.438199 59.692036 
L 334.670261 59.598441 
L 335.366446 59.794018 
L 336.062632 59.8102 
L 336.294694 59.700015 
L 336.526755 59.885679 
L 337.222941 59.961771 
L 338.38325 59.836894 
L 338.615312 59.931309 
L 338.847374 59.604381 
L 339.311498 59.66137 
L 340.471807 59.495107 
L 340.703869 59.441233 
L 340.935931 59.513798 
L 341.167993 59.449771 
L 342.09624 59.759696 
L 342.328302 59.537926 
L 343.024488 59.598199 
L 343.952735 59.610346 
L 344.184797 59.29869 
L 344.648921 59.430024 
L 345.113044 59.424365 
L 345.345106 58.413435 
L 345.577168 58.337458 
L 345.80923 58.75557 
L 346.041292 58.878832 
L 346.273354 59.277049 
L 346.505416 58.974627 
L 346.737477 59.233098 
L 346.969539 59.285108 
L 347.433663 59.605008 
L 347.665725 59.628457 
L 347.897787 59.866346 
L 348.129849 59.744747 
L 348.826034 60.042298 
L 349.754282 60.169529 
L 349.986343 60.190335 
L 350.218405 60.338005 
L 350.682529 60.30566 
L 351.146653 60.222733 
L 351.378715 60.339239 
L 351.842838 60.081517 
L 352.0749 59.910167 
L 352.306962 59.891446 
L 352.539024 59.758359 
L 352.771086 59.831273 
L 353.003148 59.610595 
L 353.23521 59.782714 
L 353.699333 59.784978 
L 354.395519 59.38941 
L 354.859643 59.432015 
L 355.323766 59.452221 
L 355.555828 59.549566 
L 356.019952 59.526287 
L 356.948199 59.699176 
L 357.180261 59.639076 
L 357.412323 59.705667 
L 357.876447 59.422143 
L 358.340571 59.619171 
L 358.804694 59.638251 
L 359.036756 59.479189 
L 360.197065 59.681431 
L 360.429127 59.504256 
L 360.893251 59.583699 
L 361.125313 59.828247 
L 361.821498 59.857516 
L 362.05356 60.06269 
L 362.517684 59.994353 
L 362.749746 59.847265 
L 362.981808 60.022461 
L 363.910055 59.999256 
L 364.142117 59.825007 
L 364.374179 59.918107 
L 364.838303 59.729955 
L 365.070365 59.743359 
L 365.302426 59.636843 
L 365.534488 59.752612 
L 365.998612 59.718241 
L 366.694798 59.645399 
L 366.926859 59.466962 
L 367.158921 59.643893 
L 367.855107 59.651545 
L 368.087169 59.877282 
L 368.551292 59.66186 
L 368.783354 59.954926 
L 369.015416 59.910779 
L 369.47954 59.97352 
L 369.711602 59.858629 
L 370.407787 60.083068 
L 370.639849 59.950864 
L 371.103973 59.939756 
L 372.03222 59.661127 
L 373.424592 59.856863 
L 373.656653 59.953629 
L 374.352839 59.811883 
L 374.584901 59.943559 
L 375.281086 59.853425 
L 375.513148 60.07958 
L 375.977272 60.112402 
L 376.209334 60.292733 
L 377.601705 59.839737 
L 378.065829 59.813623 
L 378.994076 59.728196 
L 379.226138 59.852882 
L 379.922324 59.759567 
L 380.154386 59.848489 
L 381.082633 59.654574 
L 381.314695 59.435408 
L 381.546757 59.614595 
L 382.242942 59.787788 
L 382.707066 59.910834 
L 383.17119 59.922516 
L 383.635314 60.184563 
L 383.867375 60.05811 
L 384.099437 60.148152 
L 384.331499 60.110404 
L 384.795623 60.199 
L 385.027685 60.102322 
L 385.259747 60.208536 
L 385.72387 60.12622 
L 385.955932 59.921443 
L 386.652118 60.034642 
L 387.580365 60.024562 
L 387.812427 60.201321 
L 388.276551 59.882337 
L 388.508613 60.082309 
L 388.972736 60.018209 
L 390.365108 59.803813 
L 390.597169 59.844132 
L 390.829231 60.012786 
L 391.061293 59.893693 
L 391.989541 60.008999 
L 392.221602 60.502947 
L 392.917788 60.367146 
L 393.14985 60.216566 
L 393.381912 60.248463 
L 393.846035 60.052976 
L 394.774283 59.899902 
L 395.470469 59.93823 
L 395.70253 59.549804 
L 396.630778 59.992898 
L 397.094902 59.9917 
L 397.326963 60.134337 
L 398.023149 59.956977 
L 398.255211 60.312898 
L 398.487273 60.188502 
L 398.487273 60.188502 
" style="fill:none;stroke:#1f77b4;stroke-linecap:square;stroke-width:1.5;"/>
   </g>
   <g id="line2d_15">
    <path clip-path="url(#p202146d1fb)" d="M 73.832727 293.552981 
L 74.064789 294.404733 
L 74.528913 294.879375 
L 74.760975 294.861516 
L 75.45716 294.179481 
L 75.921284 294.609587 
L 76.153346 294.391746 
L 76.61747 294.415142 
L 76.849531 294.649431 
L 77.313655 294.68818 
L 77.777779 294.696837 
L 78.009841 294.331582 
L 78.241903 295.283128 
L 78.473965 294.59028 
L 78.706026 294.423614 
L 78.938088 294.549867 
L 79.17015 294.468685 
L 79.402212 294.818776 
L 79.634274 294.510301 
L 80.330459 294.6326 
L 80.794583 294.503841 
L 81.490769 294.463991 
L 81.722831 294.653901 
L 81.954892 294.699326 
L 82.186954 294.234959 
L 82.419016 294.5267 
L 82.651078 294.119944 
L 82.88314 293.96107 
L 83.115202 294.602312 
L 83.347264 293.994154 
L 83.579325 293.793199 
L 83.811387 294.544835 
L 84.043449 294.129483 
L 84.275511 294.25719 
L 84.507573 294.144982 
L 84.739635 293.867748 
L 84.971697 293.863373 
L 85.203759 293.587248 
L 85.43582 294.184128 
L 85.899944 294.064607 
L 86.132006 294.086867 
L 86.364068 293.984245 
L 86.59613 294.184381 
L 87.292315 293.996708 
L 87.988501 294.389055 
L 88.220563 293.798931 
L 88.452625 294.182672 
L 88.684686 293.705141 
L 88.916748 294.179582 
L 89.14881 294.163954 
L 89.380872 294.305315 
L 89.612934 294.199436 
L 89.844996 293.807353 
L 90.30912 293.86274 
L 90.541181 294.715892 
L 90.773243 294.732834 
L 91.005305 294.029196 
L 91.469429 294.154955 
L 91.933553 294.187537 
L 92.397676 294.04824 
L 92.629738 294.036863 
L 92.8618 293.860148 
L 93.325924 294.367827 
L 93.557986 294.933572 
L 93.790047 294.860218 
L 94.022109 294.641828 
L 94.254171 294.608141 
L 94.486233 294.7231 
L 95.646542 294.388022 
L 95.878604 294.089875 
L 96.110666 294.063649 
L 96.342728 294.496491 
L 96.57479 294.502918 
L 96.806852 293.990978 
L 97.270975 294.057605 
L 97.503037 294.036124 
L 97.735099 294.151541 
L 97.967161 294.474907 
L 98.199223 294.453635 
L 98.431285 293.938864 
L 98.663347 294.573241 
L 98.895408 294.483415 
L 99.12747 294.526091 
L 99.359532 294.876297 
L 99.591594 293.977914 
L 99.823656 294.414749 
L 100.055718 294.42293 
L 100.28778 294.873197 
L 100.519841 294.033083 
L 100.983965 293.970262 
L 101.216027 294.318006 
L 101.680151 294.330301 
L 101.912213 294.655852 
L 102.144274 294.722179 
L 102.376336 294.157177 
L 102.608398 294.239063 
L 102.84046 294.160275 
L 103.072522 294.941623 
L 103.304584 294.257856 
L 103.536646 294.23041 
L 104.000769 294.812478 
L 104.232831 294.249393 
L 104.464893 294.159404 
L 104.696955 294.24188 
L 105.161079 294.242781 
L 105.625202 294.254934 
L 105.857264 294.63817 
L 106.089326 294.555634 
L 106.55345 294.590647 
L 110.26644 294.433451 
L 113.747368 294.522954 
L 114.211491 294.53622 
L 114.443553 294.776298 
L 114.675615 294.697717 
L 114.907677 294.790426 
L 115.371801 294.728152 
L 118.852729 294.761535 
L 119.780976 294.746026 
L 123.261904 294.593349 
L 123.493966 294.605947 
L 123.726028 294.35205 
L 124.190151 294.372821 
L 124.422213 294.620174 
L 125.814584 294.655104 
L 126.046646 294.107535 
L 126.278708 294.713665 
L 126.51077 294.547095 
L 126.742832 294.657577 
L 126.974894 294.149092 
L 127.206956 294.557898 
L 127.439017 294.561156 
L 127.671079 294.720766 
L 128.135203 294.661065 
L 128.367265 294.150893 
L 128.599327 294.533812 
L 128.831389 294.701199 
L 129.063451 294.685562 
L 129.295512 294.372828 
L 129.527574 294.672605 
L 130.22376 294.372608 
L 130.455822 294.594253 
L 130.687884 294.494931 
L 130.919945 294.695326 
L 131.152007 294.516605 
L 131.384069 294.861545 
L 131.848193 294.823907 
L 132.080255 294.535436 
L 132.312317 294.49692 
L 132.544378 294.601591 
L 132.77644 294.545051 
L 133.008502 294.272847 
L 133.472626 294.240743 
L 133.704688 294.602666 
L 133.93675 294.242278 
L 134.168811 294.602816 
L 134.400873 294.291222 
L 134.632935 294.271405 
L 134.864997 294.642223 
L 135.097059 294.30307 
L 135.329121 294.640069 
L 135.561183 294.632438 
L 135.793245 294.36427 
L 136.48943 294.440225 
L 136.721492 294.683654 
L 137.185616 294.764345 
L 138.810049 294.77045 
L 139.970358 294.672188 
L 140.20242 294.082408 
L 140.434482 294.075521 
L 140.666544 294.275438 
L 142.058915 294.185591 
L 142.290977 294.176712 
L 142.523039 294.388942 
L 142.7551 294.162811 
L 143.219224 294.154545 
L 143.451286 294.375572 
L 143.91541 293.908991 
L 144.147472 293.936489 
L 144.379533 293.786818 
L 144.843657 293.923448 
L 145.075719 294.677979 
L 145.307781 294.273021 
L 145.771905 294.292613 
L 146.003966 295.120749 
L 146.236028 294.357777 
L 146.700152 294.872979 
L 147.164276 294.538766 
L 147.396338 294.145881 
L 147.6284 294.743844 
L 147.860461 294.47663 
L 148.092523 294.489667 
L 148.324585 294.338555 
L 148.556647 294.352689 
L 148.788709 293.979275 
L 149.252833 294.393514 
L 149.716956 294.378892 
L 149.949018 294.600117 
L 150.18108 294.615536 
L 150.413142 294.316807 
L 150.645204 294.246502 
L 151.109327 294.34617 
L 151.573451 294.240808 
L 151.805513 294.465815 
L 152.037575 294.502766 
L 152.269637 294.1904 
L 152.501699 294.398593 
L 152.965822 294.406544 
L 153.197884 294.087145 
L 153.662008 294.100218 
L 153.89407 294.441305 
L 154.358194 294.339448 
L 154.590255 293.899321 
L 156.44675 294.040973 
L 156.678812 293.833892 
L 156.910874 294.054768 
L 157.142936 294.079782 
L 157.374998 294.370461 
L 158.535307 294.436373 
L 158.767369 294.284047 
L 158.999431 294.615149 
L 159.463554 294.43144 
L 159.927678 294.548451 
L 162.016235 294.52382 
L 162.248297 294.350778 
L 162.480359 294.520789 
L 162.712421 294.501824 
L 162.944482 294.322119 
L 163.87273 294.496327 
L 164.104792 294.20534 
L 164.568915 294.000052 
L 164.800977 294.515559 
L 165.033039 294.600964 
L 165.265101 295.14778 
L 165.497163 294.42665 
L 165.729225 294.628044 
L 165.961287 294.381778 
L 166.889534 294.458157 
L 167.121596 294.61462 
L 167.353658 294.59707 
L 167.58572 294.228717 
L 168.049843 294.41518 
L 168.746029 294.079815 
L 168.978091 294.436131 
L 169.210153 294.584132 
L 169.442215 294.913477 
L 169.674276 294.267493 
L 169.906338 294.709932 
L 170.1384 294.316342 
L 170.370462 294.560393 
L 170.602524 294.608759 
L 170.834586 294.19788 
L 171.066648 294.382566 
L 171.298709 294.9737 
L 171.530771 294.779359 
L 171.762833 294.104186 
L 171.994895 294.043268 
L 172.226957 294.191957 
L 172.459019 294.107338 
L 172.691081 294.216411 
L 172.923143 294.020104 
L 173.155204 294.186858 
L 173.619328 293.859575 
L 173.85139 294.606843 
L 174.083452 294.044687 
L 174.315514 294.146154 
L 174.547576 293.815275 
L 174.779637 294.04389 
L 175.243761 294.016199 
L 175.707885 294.060014 
L 175.939947 294.092623 
L 176.40407 293.81096 
L 176.636132 293.758779 
L 176.868194 294.143196 
L 177.100256 293.767461 
L 177.332318 293.676905 
L 177.796442 294.339265 
L 178.028503 293.862658 
L 178.260565 293.679677 
L 178.492627 293.807906 
L 178.724689 294.150009 
L 178.956751 293.878369 
L 179.188813 294.177572 
L 179.420875 295.020014 
L 179.652937 294.877917 
L 179.884998 294.00939 
L 180.11706 294.541514 
L 180.349122 293.93432 
L 180.581184 294.701434 
L 180.813246 294.84883 
L 181.045308 294.359891 
L 181.27737 295.056147 
L 181.509431 295.017038 
L 181.973555 294.30024 
L 182.437679 293.878362 
L 182.669741 294.958729 
L 182.901803 294.081936 
L 183.133864 295.089447 
L 183.597988 294.036303 
L 183.83005 294.018652 
L 184.062112 294.318124 
L 184.294174 293.915826 
L 184.758297 293.917958 
L 185.222421 294.37622 
L 185.918607 293.772307 
L 186.150669 293.840305 
L 186.382731 294.461263 
L 186.614792 293.95901 
L 186.846854 294.3689 
L 187.078916 293.840231 
L 187.310978 293.865013 
L 187.775102 294.11251 
L 188.007164 293.940336 
L 188.239225 294.017061 
L 188.471287 294.503189 
L 188.703349 294.112687 
L 188.935411 294.40373 
L 189.167473 294.053849 
L 189.399535 293.965759 
L 189.631597 294.136525 
L 190.09572 294.174504 
L 190.327782 293.578597 
L 190.559844 294.289709 
L 190.791906 293.963141 
L 191.023968 294.00305 
L 191.488091 294.391553 
L 191.720153 294.859526 
L 191.952215 294.244415 
L 192.184277 294.262459 
L 192.648401 294.063051 
L 192.880463 294.646573 
L 193.112525 293.985632 
L 193.344586 294.450066 
L 193.576648 294.458179 
L 193.80871 294.223038 
L 194.040772 294.453018 
L 194.272834 294.472313 
L 194.504896 294.126262 
L 194.736958 295.334653 
L 194.969019 294.1333 
L 195.201081 294.908502 
L 195.665205 294.878993 
L 195.897267 294.122121 
L 196.129329 294.625266 
L 196.361391 294.013265 
L 196.593452 293.959426 
L 196.825514 294.044909 
L 197.057576 294.340858 
L 197.289638 293.92884 
L 197.753762 293.836767 
L 197.985824 294.141177 
L 198.217886 293.726448 
L 198.682009 294.058964 
L 198.914071 293.867702 
L 199.146133 293.996082 
L 199.378195 293.774972 
L 199.842319 293.934869 
L 200.07438 294.083705 
L 200.306442 293.943245 
L 200.538504 294.250363 
L 200.770566 294.138217 
L 201.002628 294.178452 
L 201.23469 294.00059 
L 201.466752 293.678531 
L 201.698813 295.488 
L 201.930875 294.54721 
L 202.162937 294.099245 
L 202.394999 294.437646 
L 202.627061 294.117727 
L 203.091185 294.262429 
L 203.323246 294.004205 
L 203.78737 294.823304 
L 204.251494 294.265381 
L 204.483556 294.48307 
L 204.715618 294.447375 
L 204.94768 293.953311 
L 205.179741 294.09295 
L 205.411803 294.58432 
L 205.643865 294.25762 
L 205.875927 294.567658 
L 206.107989 294.062871 
L 206.340051 294.535654 
L 206.572113 293.899687 
L 206.804174 294.271175 
L 207.036236 293.895359 
L 207.268298 294.228909 
L 207.50036 293.984069 
L 207.732422 294.181354 
L 207.964484 293.840584 
L 208.196546 294.360617 
L 208.428607 293.843952 
L 208.660669 294.014376 
L 208.892731 294.350813 
L 209.124793 294.24703 
L 209.588917 294.244981 
L 209.820979 294.627393 
L 210.05304 294.585979 
L 210.285102 293.936526 
L 210.749226 293.976071 
L 210.981288 293.756814 
L 211.909535 294.071172 
L 212.141597 293.987244 
L 212.373659 294.395819 
L 212.605721 294.412284 
L 212.837783 294.273287 
L 213.069845 293.966068 
L 213.301907 293.96106 
L 213.533968 294.249641 
L 213.76603 294.332619 
L 213.998092 293.97512 
L 214.230154 294.590237 
L 214.92634 293.891957 
L 215.622525 294.084483 
L 215.854587 294.110991 
L 216.086649 294.259856 
L 216.318711 294.07495 
L 216.550773 294.950478 
L 216.782834 294.601906 
L 217.014896 294.6308 
L 217.246958 295.223999 
L 217.47902 294.119936 
L 218.175206 294.101893 
L 218.639329 295.142126 
L 218.871391 295.117645 
L 219.335515 293.999353 
L 219.567577 294.848595 
L 219.799639 294.557336 
L 220.031701 295.151647 
L 220.263762 293.989809 
L 220.495824 294.427841 
L 220.727886 293.743779 
L 221.19201 293.923946 
L 221.424072 294.66523 
L 221.656134 294.083238 
L 221.888195 294.310851 
L 222.120257 294.314136 
L 222.352319 293.987736 
L 222.584381 294.736886 
L 222.816443 294.181481 
L 223.048505 294.778741 
L 223.280567 294.273536 
L 223.512629 294.824185 
L 223.74469 293.922739 
L 223.976752 293.969452 
L 224.208814 294.564356 
L 224.440876 294.120156 
L 225.137062 294.218671 
L 225.369123 294.009542 
L 226.297371 293.974583 
L 226.761495 293.962632 
L 226.993556 293.786155 
L 227.225618 293.852103 
L 227.689742 294.435373 
L 227.921804 294.147708 
L 228.153866 294.367843 
L 228.385928 295.014649 
L 228.617989 293.900759 
L 228.850051 294.055075 
L 229.082113 293.749898 
L 229.314175 293.782827 
L 229.546237 293.966996 
L 229.778299 294.363488 
L 230.010361 293.903872 
L 230.242423 294.09222 
L 230.474484 294.083314 
L 231.17067 294.699227 
L 231.402732 294.573236 
L 231.634794 294.023231 
L 231.866856 294.277119 
L 232.098917 294.232075 
L 232.330979 294.486655 
L 232.563041 293.9878 
L 233.027165 294.540012 
L 233.259227 293.868598 
L 233.491289 294.586058 
L 233.72335 294.297558 
L 234.419536 294.287016 
L 234.88366 294.653108 
L 235.115722 294.628228 
L 235.347783 294.098321 
L 235.579845 294.492047 
L 235.811907 294.447756 
L 236.043969 294.09041 
L 236.276031 294.477773 
L 236.508093 293.746675 
L 236.740155 294.115023 
L 236.972217 294.083011 
L 237.204278 293.92681 
L 237.900464 294.282099 
L 238.828711 294.277448 
L 239.060773 294.471722 
L 239.292835 294.434452 
L 239.524897 294.090291 
L 239.756959 294.600669 
L 240.453144 294.161423 
L 240.685206 294.164203 
L 240.917268 294.451383 
L 241.613454 294.145601 
L 241.845516 294.252175 
L 242.077577 294.116017 
L 242.309639 294.406339 
L 242.773763 294.001444 
L 243.005825 294.238373 
L 243.237887 294.683675 
L 243.469949 293.883869 
L 243.934072 294.601429 
L 244.166134 294.282278 
L 244.398196 294.622026 
L 244.86232 294.465572 
L 245.094382 294.702119 
L 245.326444 294.242187 
L 245.558505 294.177185 
L 246.022629 294.447749 
L 246.254691 294.25251 
L 246.486753 294.325946 
L 246.718815 294.256139 
L 246.950877 294.068036 
L 247.182938 294.108461 
L 247.415 294.309676 
L 247.647062 294.138804 
L 247.879124 294.330703 
L 248.111186 294.681695 
L 248.343248 294.308892 
L 248.57531 294.676211 
L 248.807371 294.18738 
L 249.039433 294.287622 
L 249.271495 294.236181 
L 249.503557 293.839271 
L 249.735619 294.378008 
L 250.199743 294.273819 
L 250.663866 294.318463 
L 250.895928 294.259335 
L 251.360052 294.311884 
L 251.824176 294.257911 
L 252.056238 293.863077 
L 252.288299 293.872939 
L 252.520361 294.37799 
L 252.752423 294.540848 
L 252.984485 293.992556 
L 253.216547 294.475968 
L 253.448609 294.484801 
L 253.680671 294.270965 
L 253.912732 294.510327 
L 254.144794 294.286296 
L 254.608918 294.808114 
L 254.84098 294.80012 
L 255.073042 293.922016 
L 255.305104 293.937038 
L 255.537166 294.815766 
L 255.769227 294.010601 
L 256.001289 294.335125 
L 256.233351 293.98123 
L 256.465413 293.98075 
L 256.697475 294.33366 
L 256.929537 293.990092 
L 258.321908 294.041039 
L 258.55397 294.270822 
L 258.786032 294.291793 
L 259.018093 294.562464 
L 259.250155 294.142853 
L 259.482217 294.018937 
L 259.714279 294.09653 
L 259.946341 294.310421 
L 260.178403 294.296916 
L 260.410465 293.940468 
L 260.642526 294.287653 
L 260.874588 294.285094 
L 261.10665 293.945077 
L 261.338712 294.287068 
L 261.570774 294.278362 
L 261.802836 294.399104 
L 262.034898 294.737821 
L 262.26696 294.087098 
L 262.499021 293.990332 
L 262.731083 294.249611 
L 262.963145 294.902956 
L 263.891393 294.882807 
L 264.355516 294.752226 
L 264.587578 294.095384 
L 265.051702 295.067208 
L 265.283764 295.351143 
L 265.515826 293.872339 
L 265.747887 293.879259 
L 265.979949 294.506835 
L 266.212011 294.373853 
L 266.676135 294.540026 
L 266.908197 294.553082 
L 267.140259 294.68332 
L 267.37232 294.200775 
L 267.836444 294.732315 
L 268.068506 294.932204 
L 268.300568 294.095044 
L 268.996754 294.475705 
L 269.228815 294.347626 
L 269.460877 294.464683 
L 269.692939 294.456582 
L 269.925001 294.22504 
L 270.621187 294.273329 
L 270.853248 294.440427 
L 271.08531 294.395697 
L 271.317372 294.16108 
L 271.549434 294.141764 
L 272.013558 294.255885 
L 272.24562 294.126568 
L 272.477681 294.295736 
L 272.709743 294.136805 
L 272.941805 294.239397 
L 273.173867 293.952974 
L 273.637991 294.287063 
L 273.870053 294.992854 
L 274.102114 294.074508 
L 275.030362 294.333222 
L 275.262424 294.190783 
L 275.494486 294.78824 
L 275.726548 294.027842 
L 276.190671 294.062062 
L 276.422733 294.604557 
L 276.886857 294.050784 
L 277.350981 294.484235 
L 277.815104 293.894934 
L 278.743352 294.284316 
L 278.975414 293.950096 
L 279.207475 293.997109 
L 279.439537 294.270145 
L 280.367785 293.964853 
L 280.831909 294.161878 
L 281.296032 294.758141 
L 281.760156 294.016612 
L 281.992218 294.391171 
L 282.456342 294.116191 
L 282.688403 294.286647 
L 282.920465 294.098872 
L 283.616651 294.023835 
L 283.848713 294.368059 
L 284.080775 294.142746 
L 284.312836 294.846033 
L 284.544898 294.804372 
L 285.241084 294.037992 
L 285.473146 294.316393 
L 285.705208 294.097258 
L 285.937269 294.295663 
L 286.169331 294.247405 
L 286.401393 294.726869 
L 286.633455 294.908383 
L 286.865517 294.219193 
L 287.097579 294.090901 
L 287.561703 295.079132 
L 287.793764 294.900901 
L 288.48995 294.768519 
L 288.722012 294.673503 
L 288.954074 294.916839 
L 289.650259 294.122939 
L 289.882321 294.278676 
L 290.114383 294.196174 
L 290.346445 294.273158 
L 290.578507 294.652644 
L 290.810569 294.801932 
L 291.04263 294.575922 
L 291.274692 294.791622 
L 291.506754 294.417337 
L 291.738816 294.700342 
L 291.970878 294.210185 
L 292.20294 294.625105 
L 292.435002 294.236351 
L 292.667063 294.358342 
L 292.899125 294.195458 
L 293.131187 295.342883 
L 293.595311 294.267744 
L 293.827373 294.423815 
L 294.523558 293.953641 
L 294.75562 294.150046 
L 294.987682 294.598981 
L 295.451806 293.958661 
L 295.683868 294.286802 
L 296.147991 294.13388 
L 296.380053 294.860011 
L 296.612115 293.798007 
L 297.308301 294.181911 
L 297.540363 294.174172 
L 297.772424 294.377437 
L 298.004486 294.032622 
L 298.236548 294.399563 
L 298.700672 294.308953 
L 298.932734 294.454119 
L 299.164796 294.807597 
L 299.396857 294.345063 
L 299.628919 294.554122 
L 299.860981 294.315838 
L 300.093043 294.510326 
L 300.325105 294.467033 
L 300.557167 294.725217 
L 300.789229 293.974023 
L 301.021291 294.34019 
L 301.253352 293.893129 
L 301.485414 294.438384 
L 301.717476 294.265084 
L 302.1816 294.685601 
L 302.413662 294.165447 
L 302.645724 294.563835 
L 302.877785 294.39818 
L 303.109847 294.802424 
L 303.573971 294.789661 
L 303.806033 295.22207 
L 304.038095 293.961526 
L 304.502218 293.979435 
L 304.73428 294.295078 
L 304.966342 293.998138 
L 305.430466 295.222418 
L 305.89459 294.130519 
L 306.822837 294.163503 
L 307.054899 294.398716 
L 307.286961 293.993966 
L 307.751085 294.137868 
L 307.983146 294.461142 
L 308.44727 294.457562 
L 308.679332 294.082276 
L 310.071703 293.960226 
L 310.535827 294.18442 
L 310.767889 293.942082 
L 311.232012 294.299112 
L 311.464074 294.053552 
L 311.696136 294.49827 
L 311.928198 294.240072 
L 312.16026 294.221079 
L 312.392322 294.000193 
L 312.624384 294.095758 
L 312.856446 294.597804 
L 313.088507 294.423683 
L 313.320569 294.676592 
L 313.552631 294.555139 
L 314.016755 294.107265 
L 314.248817 294.496577 
L 314.480879 294.402383 
L 314.71294 294.817981 
L 314.945002 294.610451 
L 315.177064 294.201768 
L 315.409126 294.072189 
L 315.641188 294.437828 
L 315.87325 294.07887 
L 316.105312 294.640091 
L 316.337373 294.180269 
L 316.801497 294.451641 
L 317.033559 294.357951 
L 317.265621 294.402499 
L 317.497683 294.062435 
L 317.729745 294.283339 
L 317.961806 295.035911 
L 318.193868 294.254901 
L 318.42593 294.863321 
L 318.890054 294.460881 
L 319.122116 294.768013 
L 319.354178 294.639876 
L 319.58624 294.738137 
L 319.818301 294.448015 
L 320.050363 294.512129 
L 320.514487 294.171016 
L 320.746549 294.48899 
L 320.978611 294.523135 
L 321.442734 294.294725 
L 321.906858 294.494148 
L 322.13892 294.722398 
L 322.603044 294.350357 
L 322.835106 294.775622 
L 323.067167 294.537323 
L 323.299229 293.997262 
L 323.531291 293.905592 
L 323.763353 294.4861 
L 323.995415 294.495121 
L 324.227477 294.141898 
L 324.459539 294.689219 
L 324.6916 294.058138 
L 324.923662 294.619102 
L 325.155724 294.639124 
L 325.387786 294.080081 
L 325.85191 294.308713 
L 326.780157 294.219962 
L 327.012219 294.251069 
L 327.244281 294.627362 
L 327.476343 294.391402 
L 327.708405 294.314635 
L 328.40459 294.392947 
L 328.868714 294.335442 
L 329.100776 294.816928 
L 329.5649 294.824973 
L 329.796961 294.67712 
L 330.261085 294.675201 
L 330.493147 294.410302 
L 330.957271 294.367904 
L 331.189333 294.397723 
L 331.421395 294.02802 
L 331.653456 294.048307 
L 331.885518 294.259503 
L 332.11758 294.07688 
L 332.349642 294.426242 
L 332.581704 294.298098 
L 332.813766 294.407075 
L 333.277889 294.225852 
L 333.509951 294.51493 
L 333.742013 294.31269 
L 333.974075 294.371452 
L 334.206137 294.81245 
L 334.438199 294.272412 
L 334.670261 294.055495 
L 334.902322 294.120351 
L 335.134384 294.737444 
L 335.598508 294.056591 
L 335.83057 294.587292 
L 336.062632 294.362135 
L 336.294694 294.505331 
L 336.526755 294.218598 
L 336.758817 293.753046 
L 336.990879 294.338427 
L 337.222941 294.396228 
L 337.455003 294.959796 
L 337.687065 293.985257 
L 337.919127 294.062536 
L 338.151189 294.504255 
L 338.615312 294.497961 
L 339.079436 294.482498 
L 339.54356 294.043347 
L 339.775622 294.853015 
L 340.007683 294.626022 
L 340.239745 294.108559 
L 340.471807 294.721702 
L 340.935931 293.907925 
L 341.167993 295.009382 
L 341.400055 294.866349 
L 341.632116 294.497821 
L 342.09624 294.392439 
L 342.328302 294.76837 
L 344.416859 294.997452 
L 344.648921 294.604728 
L 344.880983 294.89665 
L 345.577168 294.29424 
L 346.041292 294.102972 
L 346.273354 294.31698 
L 346.505416 294.017765 
L 346.737477 294.43959 
L 346.969539 293.983241 
L 347.201601 294.096541 
L 347.433663 294.745163 
L 347.665725 294.51289 
L 347.897787 294.069493 
L 348.129849 294.130665 
L 348.36191 294.835493 
L 348.593972 294.047901 
L 349.058096 294.268893 
L 349.290158 294.248591 
L 349.52222 294.775599 
L 349.986343 294.848524 
L 350.218405 294.338753 
L 350.450467 294.809728 
L 351.146653 294.808652 
L 351.378715 294.157896 
L 352.539024 293.97288 
L 352.771086 294.341734 
L 353.467271 294.391569 
L 353.699333 294.467854 
L 354.163457 293.761611 
L 354.395519 294.073647 
L 354.627581 293.837596 
L 355.323766 293.878881 
L 355.555828 294.301641 
L 355.78789 294.078178 
L 356.019952 294.87103 
L 356.252014 294.703497 
L 356.484076 294.032818 
L 357.180261 294.614217 
L 357.412323 294.595311 
L 357.644385 294.916113 
L 358.108509 294.614355 
L 358.340571 294.77178 
L 358.572632 294.654343 
L 358.804694 294.386785 
L 359.036756 294.555011 
L 359.268818 294.167839 
L 359.50088 294.709764 
L 359.965004 295.329763 
L 360.661189 293.971462 
L 360.893251 294.232273 
L 361.589437 294.033379 
L 361.821498 294.200443 
L 362.05356 294.097694 
L 362.285622 294.773423 
L 362.517684 294.779543 
L 362.749746 295.266373 
L 363.445932 294.133758 
L 363.910055 294.415287 
L 364.374179 294.472529 
L 364.606241 294.768564 
L 364.838303 294.030094 
L 365.070365 294.385538 
L 365.302426 294.418001 
L 365.76655 293.804022 
L 365.998612 294.151847 
L 366.230674 293.934022 
L 366.462736 294.193963 
L 367.158921 294.13091 
L 367.390983 294.614593 
L 367.623045 293.944306 
L 367.855107 294.117143 
L 368.087169 294.510438 
L 368.319231 294.466668 
L 368.551292 294.853613 
L 368.783354 294.00704 
L 369.015416 294.440719 
L 369.247478 294.257509 
L 369.47954 294.952891 
L 369.711602 294.943777 
L 369.943664 294.102981 
L 370.175726 294.916654 
L 370.407787 294.402667 
L 370.639849 294.280194 
L 370.871911 293.900267 
L 371.103973 294.503501 
L 371.568097 294.002312 
L 371.800159 294.146316 
L 372.03222 294.43483 
L 372.496344 294.528765 
L 372.728406 294.629695 
L 372.960468 294.065487 
L 373.19253 294.459862 
L 373.424592 294.417739 
L 373.888715 295.051007 
L 374.120777 295.071478 
L 374.352839 294.472236 
L 374.584901 294.584558 
L 374.816963 294.027006 
L 375.281086 293.613508 
L 375.513148 294.149668 
L 375.74521 294.388042 
L 375.977272 293.923073 
L 376.209334 293.713332 
L 376.441396 294.221694 
L 376.673458 294.306345 
L 376.90552 293.959304 
L 377.369643 294.662789 
L 377.833767 294.395421 
L 378.065829 294.881976 
L 378.297891 294.269429 
L 378.762014 294.804939 
L 378.994076 294.856536 
L 379.226138 294.460023 
L 379.690262 294.4505 
L 379.922324 294.479532 
L 380.154386 294.22943 
L 380.386447 293.662646 
L 380.618509 294.120824 
L 380.850571 295.177768 
L 381.082633 295.142288 
L 381.546757 294.67103 
L 381.778819 294.761832 
L 382.01088 294.328053 
L 382.242942 294.35755 
L 382.475004 294.002713 
L 382.707066 294.464206 
L 382.939128 294.533903 
L 383.17119 294.359094 
L 383.403252 294.690808 
L 383.635314 294.519316 
L 383.867375 294.489283 
L 384.099437 294.152045 
L 384.331499 294.012954 
L 384.563561 294.524365 
L 384.795623 294.139286 
L 385.027685 294.081558 
L 385.72387 294.440883 
L 385.955932 295.259816 
L 386.187994 293.999008 
L 386.88418 294.158945 
L 387.116241 294.106866 
L 387.348303 294.400522 
L 387.580365 294.339819 
L 387.812427 294.74702 
L 388.044489 294.193376 
L 388.276551 294.194963 
L 388.508613 294.946827 
L 388.740675 295.207915 
L 388.972736 295.22054 
L 389.204798 294.740135 
L 390.133046 294.737943 
L 390.365108 294.714964 
L 390.597169 294.903515 
L 390.829231 294.244982 
L 391.061293 294.517378 
L 392.221602 294.652897 
L 392.453664 294.13443 
L 392.917788 294.039372 
L 393.14985 294.390909 
L 393.846035 294.006772 
L 394.310159 294.285256 
L 394.542221 294.071484 
L 395.238407 294.083089 
L 395.470469 294.43743 
L 395.70253 294.425405 
L 395.934592 294.58905 
L 396.166654 294.095892 
L 396.398716 293.288299 
L 396.630778 294.276343 
L 397.094902 294.473122 
L 397.791087 294.210672 
L 398.023149 294.21403 
L 398.255211 293.970087 
L 398.487273 294.061424 
L 398.487273 294.061424 
" style="fill:none;stroke:#ff7f0e;stroke-linecap:square;stroke-width:1.5;"/>
   </g>
   <g id="patch_3">
    <path d="M 57.6 307.584 
L 57.6 41.472 
" style="fill:none;stroke:#000000;stroke-linecap:square;stroke-linejoin:miter;stroke-width:0.8;"/>
   </g>
   <g id="patch_4">
    <path d="M 414.72 307.584 
L 414.72 41.472 
" style="fill:none;stroke:#000000;stroke-linecap:square;stroke-linejoin:miter;stroke-width:0.8;"/>
   </g>
   <g id="patch_5">
    <path d="M 57.6 307.584 
L 414.72 307.584 
" style="fill:none;stroke:#000000;stroke-linecap:square;stroke-linejoin:miter;stroke-width:0.8;"/>
   </g>
   <g id="patch_6">
    <path d="M 57.6 41.472 
L 414.72 41.472 
" style="fill:none;stroke:#000000;stroke-linecap:square;stroke-linejoin:miter;stroke-width:0.8;"/>
   </g>
  </g>
 </g>
 <defs>
  <clipPath id="p202146d1fb">
   <rect height="266.112" width="357.12" x="57.6" y="41.472"/>
  </clipPath>
 </defs>
</svg>
