<?xml version="1.0" encoding="utf-8" standalone="no"?>
<!DOCTYPE svg PUBLIC "-//W3C//DTD SVG 1.1//EN"
  "http://www.w3.org/Graphics/SVG/1.1/DTD/svg11.dtd">
<!-- Created with matplotlib (https://matplotlib.org/) -->
<svg height="345.6pt" version="1.1" viewBox="0 0 460.8 345.6" width="460.8pt" xmlns="http://www.w3.org/2000/svg" xmlns:xlink="http://www.w3.org/1999/xlink">
 <defs>
  <style type="text/css">
*{stroke-linecap:butt;stroke-linejoin:round;}
  </style>
 </defs>
 <g id="figure_1">
  <g id="patch_1">
   <path d="M 0 345.6 
L 460.8 345.6 
L 460.8 0 
L 0 0 
z
" style="fill:#ffffff;"/>
  </g>
  <g id="axes_1">
   <g id="patch_2">
    <path d="M 57.6 307.584 
L 414.72 307.584 
L 414.72 41.472 
L 57.6 41.472 
z
" style="fill:#ffffff;"/>
   </g>
   <g id="matplotlib.axis_1">
    <g id="xtick_1">
     <g id="line2d_1">
      <defs>
       <path d="M 0 0 
L 0 3.5 
" id="m7ab4d92f4a" style="stroke:#000000;stroke-width:0.8;"/>
      </defs>
      <g>
       <use style="stroke:#000000;stroke-width:0.8;" x="73.832727" xlink:href="#m7ab4d92f4a" y="307.584"/>
      </g>
     </g>
     <g id="text_1">
      <!-- 0 -->
      <defs>
       <path d="M 31.78125 66.40625 
Q 24.171875 66.40625 20.328125 58.90625 
Q 16.5 51.421875 16.5 36.375 
Q 16.5 21.390625 20.328125 13.890625 
Q 24.171875 6.390625 31.78125 6.390625 
Q 39.453125 6.390625 43.28125 13.890625 
Q 47.125 21.390625 47.125 36.375 
Q 47.125 51.421875 43.28125 58.90625 
Q 39.453125 66.40625 31.78125 66.40625 
z
M 31.78125 74.21875 
Q 44.046875 74.21875 50.515625 64.515625 
Q 56.984375 54.828125 56.984375 36.375 
Q 56.984375 17.96875 50.515625 8.265625 
Q 44.046875 -1.421875 31.78125 -1.421875 
Q 19.53125 -1.421875 13.0625 8.265625 
Q 6.59375 17.96875 6.59375 36.375 
Q 6.59375 54.828125 13.0625 64.515625 
Q 19.53125 74.21875 31.78125 74.21875 
z
" id="DejaVuSans-48"/>
      </defs>
      <g transform="translate(70.651477 322.182437)scale(0.1 -0.1)">
       <use xlink:href="#DejaVuSans-48"/>
      </g>
     </g>
    </g>
    <g id="xtick_2">
     <g id="line2d_2">
      <g>
       <use style="stroke:#000000;stroke-width:0.8;" x="120.2451" xlink:href="#m7ab4d92f4a" y="307.584"/>
      </g>
     </g>
     <g id="text_2">
      <!-- 200 -->
      <defs>
       <path d="M 19.1875 8.296875 
L 53.609375 8.296875 
L 53.609375 0 
L 7.328125 0 
L 7.328125 8.296875 
Q 12.9375 14.109375 22.625 23.890625 
Q 32.328125 33.6875 34.8125 36.53125 
Q 39.546875 41.84375 41.421875 45.53125 
Q 43.3125 49.21875 43.3125 52.78125 
Q 43.3125 58.59375 39.234375 62.25 
Q 35.15625 65.921875 28.609375 65.921875 
Q 23.96875 65.921875 18.8125 64.3125 
Q 13.671875 62.703125 7.8125 59.421875 
L 7.8125 69.390625 
Q 13.765625 71.78125 18.9375 73 
Q 24.125 74.21875 28.421875 74.21875 
Q 39.75 74.21875 46.484375 68.546875 
Q 53.21875 62.890625 53.21875 53.421875 
Q 53.21875 48.921875 51.53125 44.890625 
Q 49.859375 40.875 45.40625 35.40625 
Q 44.1875 33.984375 37.640625 27.21875 
Q 31.109375 20.453125 19.1875 8.296875 
z
" id="DejaVuSans-50"/>
      </defs>
      <g transform="translate(110.70135 322.182437)scale(0.1 -0.1)">
       <use xlink:href="#DejaVuSans-50"/>
       <use x="63.623047" xlink:href="#DejaVuSans-48"/>
       <use x="127.246094" xlink:href="#DejaVuSans-48"/>
      </g>
     </g>
    </g>
    <g id="xtick_3">
     <g id="line2d_3">
      <g>
       <use style="stroke:#000000;stroke-width:0.8;" x="166.657472" xlink:href="#m7ab4d92f4a" y="307.584"/>
      </g>
     </g>
     <g id="text_3">
      <!-- 400 -->
      <defs>
       <path d="M 37.796875 64.3125 
L 12.890625 25.390625 
L 37.796875 25.390625 
z
M 35.203125 72.90625 
L 47.609375 72.90625 
L 47.609375 25.390625 
L 58.015625 25.390625 
L 58.015625 17.1875 
L 47.609375 17.1875 
L 47.609375 0 
L 37.796875 0 
L 37.796875 17.1875 
L 4.890625 17.1875 
L 4.890625 26.703125 
z
" id="DejaVuSans-52"/>
      </defs>
      <g transform="translate(157.113722 322.182437)scale(0.1 -0.1)">
       <use xlink:href="#DejaVuSans-52"/>
       <use x="63.623047" xlink:href="#DejaVuSans-48"/>
       <use x="127.246094" xlink:href="#DejaVuSans-48"/>
      </g>
     </g>
    </g>
    <g id="xtick_4">
     <g id="line2d_4">
      <g>
       <use style="stroke:#000000;stroke-width:0.8;" x="213.069845" xlink:href="#m7ab4d92f4a" y="307.584"/>
      </g>
     </g>
     <g id="text_4">
      <!-- 600 -->
      <defs>
       <path d="M 33.015625 40.375 
Q 26.375 40.375 22.484375 35.828125 
Q 18.609375 31.296875 18.609375 23.390625 
Q 18.609375 15.53125 22.484375 10.953125 
Q 26.375 6.390625 33.015625 6.390625 
Q 39.65625 6.390625 43.53125 10.953125 
Q 47.40625 15.53125 47.40625 23.390625 
Q 47.40625 31.296875 43.53125 35.828125 
Q 39.65625 40.375 33.015625 40.375 
z
M 52.59375 71.296875 
L 52.59375 62.3125 
Q 48.875 64.0625 45.09375 64.984375 
Q 41.3125 65.921875 37.59375 65.921875 
Q 27.828125 65.921875 22.671875 59.328125 
Q 17.53125 52.734375 16.796875 39.40625 
Q 19.671875 43.65625 24.015625 45.921875 
Q 28.375 48.1875 33.59375 48.1875 
Q 44.578125 48.1875 50.953125 41.515625 
Q 57.328125 34.859375 57.328125 23.390625 
Q 57.328125 12.15625 50.6875 5.359375 
Q 44.046875 -1.421875 33.015625 -1.421875 
Q 20.359375 -1.421875 13.671875 8.265625 
Q 6.984375 17.96875 6.984375 36.375 
Q 6.984375 53.65625 15.1875 63.9375 
Q 23.390625 74.21875 37.203125 74.21875 
Q 40.921875 74.21875 44.703125 73.484375 
Q 48.484375 72.75 52.59375 71.296875 
z
" id="DejaVuSans-54"/>
      </defs>
      <g transform="translate(203.526095 322.182437)scale(0.1 -0.1)">
       <use xlink:href="#DejaVuSans-54"/>
       <use x="63.623047" xlink:href="#DejaVuSans-48"/>
       <use x="127.246094" xlink:href="#DejaVuSans-48"/>
      </g>
     </g>
    </g>
    <g id="xtick_5">
     <g id="line2d_5">
      <g>
       <use style="stroke:#000000;stroke-width:0.8;" x="259.482217" xlink:href="#m7ab4d92f4a" y="307.584"/>
      </g>
     </g>
     <g id="text_5">
      <!-- 800 -->
      <defs>
       <path d="M 31.78125 34.625 
Q 24.75 34.625 20.71875 30.859375 
Q 16.703125 27.09375 16.703125 20.515625 
Q 16.703125 13.921875 20.71875 10.15625 
Q 24.75 6.390625 31.78125 6.390625 
Q 38.8125 6.390625 42.859375 10.171875 
Q 46.921875 13.96875 46.921875 20.515625 
Q 46.921875 27.09375 42.890625 30.859375 
Q 38.875 34.625 31.78125 34.625 
z
M 21.921875 38.8125 
Q 15.578125 40.375 12.03125 44.71875 
Q 8.5 49.078125 8.5 55.328125 
Q 8.5 64.0625 14.71875 69.140625 
Q 20.953125 74.21875 31.78125 74.21875 
Q 42.671875 74.21875 48.875 69.140625 
Q 55.078125 64.0625 55.078125 55.328125 
Q 55.078125 49.078125 51.53125 44.71875 
Q 48 40.375 41.703125 38.8125 
Q 48.828125 37.15625 52.796875 32.3125 
Q 56.78125 27.484375 56.78125 20.515625 
Q 56.78125 9.90625 50.3125 4.234375 
Q 43.84375 -1.421875 31.78125 -1.421875 
Q 19.734375 -1.421875 13.25 4.234375 
Q 6.78125 9.90625 6.78125 20.515625 
Q 6.78125 27.484375 10.78125 32.3125 
Q 14.796875 37.15625 21.921875 38.8125 
z
M 18.3125 54.390625 
Q 18.3125 48.734375 21.84375 45.5625 
Q 25.390625 42.390625 31.78125 42.390625 
Q 38.140625 42.390625 41.71875 45.5625 
Q 45.3125 48.734375 45.3125 54.390625 
Q 45.3125 60.0625 41.71875 63.234375 
Q 38.140625 66.40625 31.78125 66.40625 
Q 25.390625 66.40625 21.84375 63.234375 
Q 18.3125 60.0625 18.3125 54.390625 
z
" id="DejaVuSans-56"/>
      </defs>
      <g transform="translate(249.938467 322.182437)scale(0.1 -0.1)">
       <use xlink:href="#DejaVuSans-56"/>
       <use x="63.623047" xlink:href="#DejaVuSans-48"/>
       <use x="127.246094" xlink:href="#DejaVuSans-48"/>
      </g>
     </g>
    </g>
    <g id="xtick_6">
     <g id="line2d_6">
      <g>
       <use style="stroke:#000000;stroke-width:0.8;" x="305.89459" xlink:href="#m7ab4d92f4a" y="307.584"/>
      </g>
     </g>
     <g id="text_6">
      <!-- 1000 -->
      <defs>
       <path d="M 12.40625 8.296875 
L 28.515625 8.296875 
L 28.515625 63.921875 
L 10.984375 60.40625 
L 10.984375 69.390625 
L 28.421875 72.90625 
L 38.28125 72.90625 
L 38.28125 8.296875 
L 54.390625 8.296875 
L 54.390625 0 
L 12.40625 0 
z
" id="DejaVuSans-49"/>
      </defs>
      <g transform="translate(293.16959 322.182437)scale(0.1 -0.1)">
       <use xlink:href="#DejaVuSans-49"/>
       <use x="63.623047" xlink:href="#DejaVuSans-48"/>
       <use x="127.246094" xlink:href="#DejaVuSans-48"/>
       <use x="190.869141" xlink:href="#DejaVuSans-48"/>
      </g>
     </g>
    </g>
    <g id="xtick_7">
     <g id="line2d_7">
      <g>
       <use style="stroke:#000000;stroke-width:0.8;" x="352.306962" xlink:href="#m7ab4d92f4a" y="307.584"/>
      </g>
     </g>
     <g id="text_7">
      <!-- 1200 -->
      <g transform="translate(339.581962 322.182437)scale(0.1 -0.1)">
       <use xlink:href="#DejaVuSans-49"/>
       <use x="63.623047" xlink:href="#DejaVuSans-50"/>
       <use x="127.246094" xlink:href="#DejaVuSans-48"/>
       <use x="190.869141" xlink:href="#DejaVuSans-48"/>
      </g>
     </g>
    </g>
    <g id="xtick_8">
     <g id="line2d_8">
      <g>
       <use style="stroke:#000000;stroke-width:0.8;" x="398.719335" xlink:href="#m7ab4d92f4a" y="307.584"/>
      </g>
     </g>
     <g id="text_8">
      <!-- 1400 -->
      <g transform="translate(385.994335 322.182437)scale(0.1 -0.1)">
       <use xlink:href="#DejaVuSans-49"/>
       <use x="63.623047" xlink:href="#DejaVuSans-52"/>
       <use x="127.246094" xlink:href="#DejaVuSans-48"/>
       <use x="190.869141" xlink:href="#DejaVuSans-48"/>
      </g>
     </g>
    </g>
   </g>
   <g id="matplotlib.axis_2">
    <g id="ytick_1">
     <g id="line2d_9">
      <defs>
       <path d="M 0 0 
L -3.5 0 
" id="meb2d645e17" style="stroke:#000000;stroke-width:0.8;"/>
      </defs>
      <g>
       <use style="stroke:#000000;stroke-width:0.8;" x="57.6" xlink:href="#meb2d645e17" y="303.130961"/>
      </g>
     </g>
     <g id="text_9">
      <!-- 0.0 -->
      <defs>
       <path d="M 10.6875 12.40625 
L 21 12.40625 
L 21 0 
L 10.6875 0 
z
" id="DejaVuSans-46"/>
      </defs>
      <g transform="translate(34.696875 306.93018)scale(0.1 -0.1)">
       <use xlink:href="#DejaVuSans-48"/>
       <use x="63.623047" xlink:href="#DejaVuSans-46"/>
       <use x="95.410156" xlink:href="#DejaVuSans-48"/>
      </g>
     </g>
    </g>
    <g id="ytick_2">
     <g id="line2d_10">
      <g>
       <use style="stroke:#000000;stroke-width:0.8;" x="57.6" xlink:href="#meb2d645e17" y="254.826474"/>
      </g>
     </g>
     <g id="text_10">
      <!-- 0.2 -->
      <g transform="translate(34.696875 258.625693)scale(0.1 -0.1)">
       <use xlink:href="#DejaVuSans-48"/>
       <use x="63.623047" xlink:href="#DejaVuSans-46"/>
       <use x="95.410156" xlink:href="#DejaVuSans-50"/>
      </g>
     </g>
    </g>
    <g id="ytick_3">
     <g id="line2d_11">
      <g>
       <use style="stroke:#000000;stroke-width:0.8;" x="57.6" xlink:href="#meb2d645e17" y="206.521987"/>
      </g>
     </g>
     <g id="text_11">
      <!-- 0.4 -->
      <g transform="translate(34.696875 210.321206)scale(0.1 -0.1)">
       <use xlink:href="#DejaVuSans-48"/>
       <use x="63.623047" xlink:href="#DejaVuSans-46"/>
       <use x="95.410156" xlink:href="#DejaVuSans-52"/>
      </g>
     </g>
    </g>
    <g id="ytick_4">
     <g id="line2d_12">
      <g>
       <use style="stroke:#000000;stroke-width:0.8;" x="57.6" xlink:href="#meb2d645e17" y="158.2175"/>
      </g>
     </g>
     <g id="text_12">
      <!-- 0.6 -->
      <g transform="translate(34.696875 162.016719)scale(0.1 -0.1)">
       <use xlink:href="#DejaVuSans-48"/>
       <use x="63.623047" xlink:href="#DejaVuSans-46"/>
       <use x="95.410156" xlink:href="#DejaVuSans-54"/>
      </g>
     </g>
    </g>
    <g id="ytick_5">
     <g id="line2d_13">
      <g>
       <use style="stroke:#000000;stroke-width:0.8;" x="57.6" xlink:href="#meb2d645e17" y="109.913013"/>
      </g>
     </g>
     <g id="text_13">
      <!-- 0.8 -->
      <g transform="translate(34.696875 113.712232)scale(0.1 -0.1)">
       <use xlink:href="#DejaVuSans-48"/>
       <use x="63.623047" xlink:href="#DejaVuSans-46"/>
       <use x="95.410156" xlink:href="#DejaVuSans-56"/>
      </g>
     </g>
    </g>
    <g id="ytick_6">
     <g id="line2d_14">
      <g>
       <use style="stroke:#000000;stroke-width:0.8;" x="57.6" xlink:href="#meb2d645e17" y="61.608526"/>
      </g>
     </g>
     <g id="text_14">
      <!-- 1.0 -->
      <g transform="translate(34.696875 65.407745)scale(0.1 -0.1)">
       <use xlink:href="#DejaVuSans-49"/>
       <use x="63.623047" xlink:href="#DejaVuSans-46"/>
       <use x="95.410156" xlink:href="#DejaVuSans-48"/>
      </g>
     </g>
    </g>
   </g>
   <g id="line2d_15">
    <path clip-path="url(#p2834c00a61)" d="M 73.832727 68.214727 
L 75.689222 94.934832 
L 75.921284 96.569993 
L 76.153346 97.411755 
L 76.385408 97.48996 
L 76.61747 96.997385 
L 77.081593 94.220775 
L 77.545717 89.106652 
L 78.009841 82.644849 
L 78.706026 71.850481 
L 79.866336 59.346802 
L 80.562521 54.76797 
L 81.026645 53.737283 
L 81.258707 53.568 
L 81.722831 54.11042 
L 82.88314 56.842506 
L 83.811387 60.133189 
L 85.43582 65.665312 
L 86.364068 67.555472 
L 86.828192 68.025914 
L 87.524377 68.128723 
L 88.220563 67.455627 
L 89.380872 65.454983 
L 89.844996 64.326629 
L 91.237367 61.795774 
L 91.469429 61.593082 
L 91.701491 61.595541 
L 91.933553 61.388665 
L 92.165614 61.422648 
L 92.397676 61.589328 
L 92.8618 61.360645 
L 93.325924 61.307463 
L 93.790047 60.978446 
L 94.486233 61.062642 
L 94.950357 61.260519 
L 95.646542 61.69538 
L 97.270975 63.368483 
L 97.503037 63.824099 
L 97.735099 63.827901 
L 97.967161 63.962135 
L 98.431285 64.416389 
L 99.359532 64.831677 
L 100.519841 64.499461 
L 101.680151 63.899126 
L 101.912213 63.571075 
L 102.144274 63.480723 
L 102.376336 62.971256 
L 102.608398 62.772439 
L 103.536646 62.721679 
L 103.768708 62.554139 
L 104.929017 62.538356 
L 105.161079 62.678295 
L 105.393141 62.595875 
L 105.625202 62.956694 
L 105.857264 62.835029 
L 107.017574 63.518342 
L 107.249635 63.832133 
L 107.481697 63.897582 
L 107.713759 64.218409 
L 108.177883 64.155932 
L 108.409945 64.423594 
L 108.642007 64.354045 
L 108.874068 64.508983 
L 109.802316 64.570188 
L 110.034378 64.715662 
L 110.26644 64.591819 
L 110.498502 64.601125 
L 110.962625 64.376343 
L 111.426749 64.396255 
L 111.658811 64.289897 
L 111.890873 64.450159 
L 112.122935 64.46584 
L 113.051182 63.971841 
L 113.283244 64.303965 
L 113.515306 64.110014 
L 113.979429 64.188918 
L 114.211491 63.949245 
L 114.443553 64.119032 
L 114.675615 64.001137 
L 114.907677 64.135513 
L 115.139739 63.969722 
L 116.067986 64.211593 
L 116.300048 64.040104 
L 116.53211 64.213732 
L 116.764172 64.216373 
L 117.460357 64.707884 
L 117.692419 64.728069 
L 117.924481 64.935878 
L 118.156543 64.938287 
L 118.620667 65.362106 
L 118.852729 65.090337 
L 120.477162 65.460582 
L 120.941285 65.489787 
L 121.173347 65.599043 
L 121.637471 65.532396 
L 122.333657 65.52605 
L 122.565718 65.190062 
L 122.79778 65.406942 
L 123.029842 65.382853 
L 123.261904 65.569175 
L 123.95809 65.219049 
L 124.190151 65.312437 
L 124.422213 65.576437 
L 124.654275 65.286233 
L 124.886337 65.452177 
L 125.118399 65.210831 
L 125.350461 65.137949 
L 125.582523 65.504689 
L 126.278708 65.238437 
L 126.51077 65.397006 
L 126.974894 65.268246 
L 127.206956 65.463193 
L 128.367265 65.603664 
L 129.063451 65.73553 
L 129.295512 66.020067 
L 129.991698 66.031799 
L 130.22376 66.149629 
L 130.455822 65.915714 
L 131.384069 66.129916 
L 131.616131 66.063813 
L 131.848193 66.205769 
L 132.312317 66.16143 
L 133.008502 66.105176 
L 133.472626 66.215519 
L 133.704688 66.019624 
L 134.864997 65.933851 
L 135.097059 65.93731 
L 135.329121 66.093313 
L 135.793245 65.630726 
L 136.48943 65.742203 
L 136.721492 65.629805 
L 136.953554 65.377607 
L 137.417678 65.685551 
L 137.881801 65.929746 
L 138.113863 66.150209 
L 138.345925 66.107633 
L 138.577987 65.912142 
L 138.810049 66.082376 
L 139.042111 66.109504 
L 139.506234 65.974559 
L 139.738296 66.160852 
L 140.20242 66.134788 
L 140.666544 66.510763 
L 140.898605 66.447903 
L 141.130667 66.198292 
L 141.594791 66.167822 
L 141.826853 66.392104 
L 142.290977 66.339217 
L 142.523039 66.473871 
L 142.7551 66.267787 
L 143.219224 66.284641 
L 143.91541 66.262703 
L 144.379533 66.090674 
L 144.611595 66.383429 
L 144.843657 66.224129 
L 145.075719 66.231846 
L 145.539843 66.055176 
L 146.236028 66.145218 
L 146.46809 66.543449 
L 146.932214 66.312564 
L 147.164276 66.197624 
L 147.860461 66.129518 
L 148.092523 65.989003 
L 148.324585 66.225036 
L 148.788709 65.928437 
L 149.020771 66.17285 
L 149.484894 65.955823 
L 150.645204 66.142408 
L 151.573451 66.023192 
L 152.037575 66.191002 
L 152.269637 66.102779 
L 152.965822 66.388949 
L 153.197884 66.593128 
L 154.358194 66.245605 
L 155.054379 66.201702 
L 155.286441 66.382676 
L 155.518503 66.155585 
L 155.750565 66.124122 
L 155.982627 66.583979 
L 156.44675 66.083744 
L 156.678812 66.318615 
L 156.910874 66.041491 
L 157.60706 65.790423 
L 157.839121 66.163003 
L 158.535307 65.622989 
L 159.463554 65.721772 
L 159.695616 65.78614 
L 160.15974 65.714721 
L 160.855926 66.024344 
L 161.087988 65.992504 
L 161.784173 66.41248 
L 162.016235 66.243525 
L 162.480359 66.355493 
L 162.712421 66.261154 
L 163.87273 66.307158 
L 164.104792 66.991071 
L 164.336854 66.856532 
L 164.568915 66.495992 
L 164.800977 66.448098 
L 165.033039 66.53004 
L 165.265101 66.426733 
L 165.497163 66.506737 
L 166.193348 65.97403 
L 166.42541 65.992738 
L 166.657472 66.231913 
L 166.889534 66.229428 
L 167.121596 65.856542 
L 167.58572 65.821903 
L 167.817782 65.546099 
L 168.049843 65.717903 
L 168.513967 65.679709 
L 168.746029 65.819401 
L 168.978091 65.82147 
L 169.210153 65.649306 
L 169.442215 65.828614 
L 169.674276 65.719161 
L 170.370462 65.95354 
L 170.602524 65.867166 
L 171.298709 65.882378 
L 171.530771 65.846291 
L 171.762833 66.007517 
L 171.994895 66.586875 
L 172.226957 66.079711 
L 172.459019 66.044015 
L 172.691081 66.631528 
L 172.923143 66.227801 
L 173.155204 66.162242 
L 173.387266 66.985894 
L 173.619328 66.179544 
L 174.083452 66.041333 
L 174.779637 66.260982 
L 175.011699 66.215631 
L 175.243761 66.321226 
L 175.939947 66.280239 
L 176.172009 65.966197 
L 176.40407 65.948799 
L 176.636132 66.042838 
L 178.028503 65.785735 
L 178.260565 65.871484 
L 178.724689 65.517199 
L 178.956751 65.614085 
L 179.188813 65.545948 
L 179.420875 65.705453 
L 179.652937 65.572424 
L 179.884998 65.835476 
L 180.349122 65.48683 
L 180.813246 65.715748 
L 181.509431 65.792112 
L 182.205617 65.71287 
L 182.669741 66.046471 
L 183.365926 65.720971 
L 183.83005 65.943925 
L 184.062112 65.967332 
L 184.294174 66.398728 
L 184.526236 65.898334 
L 185.222421 65.846755 
L 185.686545 65.925099 
L 186.150669 66.234989 
L 186.614792 65.904568 
L 186.846854 66.081288 
L 188.703349 65.839044 
L 188.935411 65.622898 
L 190.09572 65.438517 
L 190.327782 65.870587 
L 190.559844 65.410324 
L 190.791906 65.453297 
L 191.488091 65.205963 
L 191.720153 65.597538 
L 192.184277 65.62798 
L 192.416339 65.573458 
L 192.648401 65.796671 
L 192.880463 65.581506 
L 193.112525 65.799277 
L 193.576648 65.642184 
L 194.040772 65.826194 
L 194.969019 65.844055 
L 195.201081 65.973415 
L 195.433143 65.881092 
L 195.897267 66.028488 
L 196.361391 65.995541 
L 196.593452 66.117314 
L 196.825514 65.821135 
L 197.057576 65.968529 
L 197.753762 65.754848 
L 197.985824 66.090901 
L 198.217886 65.999229 
L 198.449947 66.163931 
L 198.682009 65.665093 
L 198.914071 65.959436 
L 199.378195 65.664173 
L 200.306442 65.59518 
L 200.538504 65.716104 
L 200.770566 65.433612 
L 201.002628 65.358815 
L 201.23469 65.832802 
L 201.466752 65.506019 
L 201.698813 65.585923 
L 201.930875 65.326787 
L 202.627061 65.21675 
L 202.859123 65.184609 
L 203.091185 65.272376 
L 203.323246 65.691641 
L 203.78737 65.603171 
L 204.019432 65.709617 
L 204.94768 65.535772 
L 205.179741 65.782904 
L 205.411803 65.557852 
L 205.875927 65.898109 
L 206.107989 65.661113 
L 206.340051 65.827064 
L 206.572113 65.662077 
L 206.804174 66.032712 
L 207.036236 65.622009 
L 207.268298 65.842953 
L 207.50036 65.72041 
L 208.660669 65.849711 
L 208.892731 65.688385 
L 209.124793 65.698262 
L 209.356855 65.981962 
L 209.820979 65.559231 
L 211.677474 65.495887 
L 211.909535 65.093006 
L 212.373659 65.549711 
L 212.837783 65.30803 
L 213.069845 65.381075 
L 213.533968 65.225493 
L 213.76603 65.447297 
L 213.998092 65.236477 
L 215.158401 65.509974 
L 215.390463 65.485559 
L 215.622525 65.614325 
L 216.086649 65.589618 
L 216.318711 65.69966 
L 216.550773 65.532076 
L 217.711082 65.887933 
L 217.943144 65.71831 
L 218.407268 65.726831 
L 218.639329 66.181527 
L 218.871391 66.04162 
L 219.103453 65.650426 
L 219.335515 65.730864 
L 219.799639 65.595113 
L 220.031701 65.621975 
L 220.495824 65.463573 
L 221.888195 65.283468 
L 222.120257 65.223386 
L 222.352319 65.367094 
L 222.816443 65.240177 
L 224.208814 65.148028 
L 224.440876 65.235538 
L 224.905 65.233174 
L 226.297371 65.270959 
L 226.761495 65.335541 
L 227.45768 65.422027 
L 227.689742 65.64301 
L 228.153866 65.470206 
L 228.617989 65.678218 
L 228.850051 65.476399 
L 230.010361 65.507603 
L 230.242423 65.379606 
L 230.706546 65.484719 
L 230.938608 65.380093 
L 231.17067 65.492488 
L 231.402732 65.327046 
L 231.634794 65.399747 
L 232.098917 65.325532 
L 232.330979 65.385712 
L 232.563041 65.279956 
L 233.027165 65.338943 
L 233.491289 65.175804 
L 233.955412 65.251028 
L 234.187474 65.102103 
L 234.419536 65.246083 
L 234.88366 65.098939 
L 235.579845 65.230851 
L 236.043969 65.113879 
L 236.508093 65.200544 
L 236.740155 65.576427 
L 236.972217 65.350057 
L 237.900464 65.569941 
L 238.364588 65.450799 
L 238.59665 65.541427 
L 239.524897 65.209711 
L 239.989021 65.33411 
L 240.221083 65.297082 
L 240.917268 65.509381 
L 241.613454 65.473214 
L 242.077577 65.680005 
L 242.309639 65.586529 
L 242.773763 65.631397 
L 243.237887 65.585005 
L 243.469949 65.606018 
L 243.934072 65.509237 
L 245.094382 65.411288 
L 246.254691 65.184224 
L 246.718815 65.013487 
L 247.415 65.001416 
L 247.647062 65.099757 
L 247.879124 65.013171 
L 248.343248 65.092996 
L 248.807371 65.157326 
L 249.039433 65.306836 
L 249.503557 65.286907 
L 249.967681 65.268415 
L 253.448609 65.740654 
L 253.912732 65.526674 
L 254.376856 65.493585 
L 255.073042 65.401574 
L 255.305104 65.426382 
L 255.769227 65.311618 
L 257.625722 65.259779 
L 258.321908 65.180481 
L 258.55397 65.360244 
L 259.018093 65.310053 
L 259.714279 65.278375 
L 260.642526 65.518211 
L 260.874588 65.421537 
L 261.338712 65.474327 
L 263.195207 65.530592 
L 263.427269 66.018337 
L 263.659331 65.65549 
L 264.587578 65.606218 
L 264.81964 65.686958 
L 265.283764 65.544478 
L 266.444073 65.431183 
L 266.676135 65.207615 
L 267.140259 65.2214 
L 267.836444 65.219964 
L 268.996754 65.296773 
L 272.24562 65.687246 
L 272.709743 65.588149 
L 275.958609 65.398544 
L 278.279228 65.246944 
L 279.207475 65.311283 
L 280.831909 65.497287 
L 281.760156 65.568835 
L 282.688403 65.491497 
L 283.152527 65.614398 
L 284.544898 65.531637 
L 285.241084 65.626853 
L 285.937269 65.623116 
L 287.793764 65.702608 
L 288.025826 65.611277 
L 290.114383 65.855684 
L 292.435002 65.663004 
L 292.899125 65.52581 
L 293.827373 65.554978 
L 294.523558 65.666561 
L 296.612115 65.581351 
L 298.700672 65.671249 
L 300.093043 65.608611 
L 301.717476 65.566683 
L 303.341909 65.525215 
L 306.126652 65.626776 
L 307.519023 65.656927 
L 309.607579 65.757751 
L 311.696136 65.704658 
L 312.856446 65.720743 
L 315.87325 65.685918 
L 316.105312 66.74747 
L 316.337373 65.701217 
L 320.282425 65.726446 
L 321.906858 65.686193 
L 323.763353 65.634106 
L 325.85191 65.836131 
L 326.780157 65.793934 
L 328.636652 65.669766 
L 329.100776 65.747527 
L 330.493147 65.760643 
L 338.151189 65.916262 
L 340.007683 66.075277 
L 345.113044 66.077904 
L 345.577168 66.003687 
L 346.041292 66.011314 
L 346.737477 65.941894 
L 349.52222 65.900291 
L 349.754282 65.753069 
L 350.450467 65.834376 
L 350.914591 65.805252 
L 351.610777 65.854893 
L 352.306962 65.931935 
L 354.627581 65.918533 
L 355.555828 65.766581 
L 356.716138 65.847673 
L 356.948199 65.753997 
L 357.412323 65.739546 
L 358.108509 65.793084 
L 359.036756 65.857503 
L 359.732942 65.868212 
L 360.429127 65.849633 
L 360.661189 65.996576 
L 361.357375 66.009487 
L 364.374179 66.08175 
L 366.926859 65.990967 
L 367.390983 66.06048 
L 367.855107 66.015375 
L 370.639849 65.984633 
L 372.960468 65.85145 
L 374.584901 66.070162 
L 375.977272 65.970747 
L 376.209334 65.857282 
L 376.673458 65.898937 
L 376.90552 65.807381 
L 377.369643 65.822872 
L 378.065829 65.856116 
L 381.314695 66.197134 
L 382.939128 66.194853 
L 383.403252 66.218295 
L 385.027685 66.130566 
L 385.259747 66.046144 
L 385.72387 66.178182 
L 386.652118 66.253185 
L 387.580365 65.979903 
L 387.812427 66.018078 
L 388.044489 65.879427 
L 388.740675 66.104093 
L 388.972736 66.038982 
L 389.204798 66.123396 
L 389.43686 66.010486 
L 391.989541 66.265841 
L 393.14985 66.367285 
L 395.934592 66.286048 
L 398.487273 65.922234 
L 398.487273 65.922234 
" style="fill:none;stroke:#1f77b4;stroke-linecap:square;stroke-width:1.5;"/>
   </g>
   <g id="line2d_16">
    <path clip-path="url(#p2834c00a61)" d="M 73.832727 295.272607 
L 74.064789 293.988494 
L 74.296851 294.48268 
L 74.528913 294.393179 
L 74.760975 294.43569 
L 74.993037 294.287127 
L 75.225098 294.415574 
L 75.45716 294.252557 
L 75.689222 293.514508 
L 75.921284 294.692724 
L 76.385408 294.561807 
L 76.61747 293.989982 
L 76.849531 294.162984 
L 77.081593 293.602645 
L 77.313655 294.105758 
L 77.545717 294.059003 
L 77.777779 294.243791 
L 78.473965 293.261582 
L 78.706026 293.564441 
L 78.938088 293.175592 
L 79.402212 293.071187 
L 79.634274 293.106546 
L 79.866336 293.380715 
L 80.098398 293.277554 
L 80.330459 293.545095 
L 80.562521 293.451244 
L 80.794583 293.635199 
L 81.258707 293.211162 
L 81.490769 293.173872 
L 82.419016 293.450596 
L 82.651078 293.388059 
L 82.88314 293.865639 
L 83.347264 293.918125 
L 83.579325 293.60818 
L 83.811387 293.490425 
L 84.043449 294.083769 
L 84.507573 293.699831 
L 84.739635 293.849175 
L 84.971697 293.801365 
L 85.43582 294.008727 
L 85.667882 294.047557 
L 85.899944 293.895309 
L 86.132006 294.146406 
L 86.364068 294.127387 
L 86.59613 294.230339 
L 86.828192 294.580182 
L 87.060253 294.663678 
L 87.292315 294.43083 
L 87.524377 294.553009 
L 87.756439 294.901712 
L 88.220563 295.071375 
L 88.452625 294.995493 
L 89.14881 295.061967 
L 89.380872 294.651936 
L 89.612934 295.067964 
L 90.077058 295.010604 
L 90.30912 294.719301 
L 90.541181 295.007112 
L 92.397676 294.381638 
L 93.557986 293.625561 
L 93.790047 294.282339 
L 94.254171 294.243248 
L 94.486233 293.535791 
L 94.950357 293.637509 
L 95.878604 293.705188 
L 96.110666 294.360586 
L 96.342728 293.953503 
L 96.57479 294.216146 
L 97.038914 294.047197 
L 97.503037 293.907356 
L 97.735099 294.242486 
L 98.199223 294.387707 
L 98.895408 294.981937 
L 99.12747 294.133311 
L 99.359532 294.712139 
L 99.591594 294.952383 
L 99.823656 294.64117 
L 100.055718 295.044295 
L 100.751903 294.797094 
L 100.983965 294.292537 
L 101.216027 294.524947 
L 101.448089 293.262468 
L 101.680151 293.713748 
L 101.912213 294.840232 
L 102.144274 294.683844 
L 102.376336 294.273537 
L 102.84046 294.635312 
L 103.072522 294.722514 
L 103.304584 294.134332 
L 103.536646 293.101842 
L 103.768708 294.603775 
L 104.000769 293.80076 
L 104.464893 293.990809 
L 104.696955 294.678347 
L 104.929017 293.458756 
L 105.161079 293.216032 
L 105.393141 293.16882 
L 105.625202 293.803578 
L 106.321388 293.690442 
L 106.55345 293.611006 
L 106.785512 293.315861 
L 107.017574 293.436548 
L 107.249635 293.398711 
L 107.481697 293.556691 
L 107.713759 293.387135 
L 107.945821 293.68678 
L 108.177883 294.183854 
L 108.409945 293.866378 
L 108.642007 294.38634 
L 108.874068 294.368738 
L 109.10613 294.74272 
L 109.570254 294.665965 
L 110.962625 295.088484 
L 111.890873 295.134777 
L 112.81912 295.0061 
L 113.051182 294.610728 
L 113.283244 294.796511 
L 113.747368 294.377784 
L 113.979429 294.458636 
L 114.211491 294.291433 
L 114.443553 294.348654 
L 114.675615 294.253058 
L 114.907677 294.279177 
L 115.139739 294.188942 
L 115.371801 294.235177 
L 115.603862 293.994342 
L 115.835924 294.19977 
L 116.067986 294.03605 
L 116.300048 293.728793 
L 116.53211 294.042024 
L 116.764172 294.163234 
L 116.996234 293.769509 
L 117.228296 293.914907 
L 117.460357 293.785406 
L 117.692419 294.006293 
L 117.924481 294.069728 
L 118.156543 293.949583 
L 118.852729 294.137312 
L 119.548914 294.305961 
L 119.780976 294.469621 
L 120.2451 294.518249 
L 120.709223 294.763156 
L 121.869533 295.049067 
L 122.101595 294.947961 
L 122.565718 295.060786 
L 122.79778 294.791592 
L 123.029842 294.765128 
L 123.261904 294.371228 
L 123.493966 294.855612 
L 123.726028 294.719457 
L 123.95809 294.782729 
L 124.190151 294.629017 
L 124.422213 294.230942 
L 124.654275 294.517749 
L 124.886337 294.30299 
L 125.118399 293.554078 
L 125.350461 294.183783 
L 126.278708 294.115584 
L 126.51077 293.775223 
L 126.742832 294.011816 
L 126.974894 293.604354 
L 127.206956 293.826962 
L 127.671079 293.759186 
L 127.903141 293.891791 
L 128.367265 293.907788 
L 128.599327 293.92826 
L 128.831389 294.105332 
L 129.063451 293.634771 
L 129.295512 294.480202 
L 129.759636 293.967859 
L 129.991698 294.143757 
L 130.455822 293.933538 
L 130.687884 294.158343 
L 130.919945 294.184833 
L 131.152007 294.364497 
L 131.616131 294.395431 
L 131.848193 294.783538 
L 132.312317 294.91662 
L 132.544378 295.123022 
L 132.77644 295.054071 
L 133.240564 295.488 
L 133.472626 295.123126 
L 133.704688 295.264388 
L 133.93675 294.926869 
L 134.400873 294.709521 
L 134.632935 294.541794 
L 134.864997 295.05462 
L 135.097059 294.492486 
L 135.329121 294.937388 
L 135.793245 294.859085 
L 136.257368 294.35326 
L 136.48943 294.661183 
L 136.721492 294.674085 
L 137.185616 293.972896 
L 137.417678 293.942172 
L 137.649739 293.16152 
L 137.881801 293.919661 
L 138.113863 294.140197 
L 138.345925 293.64617 
L 138.810049 293.538319 
L 139.042111 293.777273 
L 139.274172 293.557166 
L 139.506234 293.869089 
L 140.20242 293.952714 
L 140.434482 293.856546 
L 140.666544 294.389895 
L 140.898605 294.136523 
L 141.130667 294.488355 
L 141.362729 294.24897 
L 141.594791 294.335666 
L 141.826853 293.989017 
L 142.058915 294.006442 
L 142.290977 294.711146 
L 142.523039 294.146057 
L 142.7551 294.500978 
L 143.219224 294.690893 
L 143.451286 294.920784 
L 143.683348 294.951599 
L 144.147472 294.783312 
L 144.611595 294.757715 
L 144.843657 294.839929 
L 145.539843 294.465127 
L 145.771905 294.936496 
L 146.003966 294.893039 
L 146.236028 294.427758 
L 146.46809 294.303486 
L 146.700152 294.318523 
L 146.932214 293.997558 
L 147.164276 294.194987 
L 147.396338 294.242214 
L 148.092523 294.076474 
L 148.324585 294.158149 
L 148.788709 293.90227 
L 149.020771 293.276428 
L 149.252833 293.134453 
L 149.484894 293.572553 
L 149.949018 293.601726 
L 150.645204 294.009019 
L 150.877266 293.930321 
L 152.269637 294.197775 
L 152.501699 294.455389 
L 152.73376 294.520902 
L 152.965822 294.212577 
L 153.197884 294.425412 
L 153.429946 293.896877 
L 153.662008 293.781075 
L 153.89407 294.59662 
L 154.126132 294.650249 
L 154.358194 294.848641 
L 155.054379 294.607555 
L 155.286441 294.759456 
L 155.518503 294.580096 
L 155.750565 294.885698 
L 156.214688 294.724295 
L 156.44675 294.44167 
L 156.678812 294.650777 
L 157.374998 294.559101 
L 157.839121 294.316488 
L 158.071183 294.38889 
L 158.303245 294.21757 
L 158.999431 294.226526 
L 160.15974 293.740315 
L 160.391802 293.916404 
L 160.623864 293.765038 
L 160.855926 293.949072 
L 161.087988 293.679831 
L 161.320049 294.035347 
L 161.552111 294.089984 
L 162.016235 293.871528 
L 162.248297 294.616449 
L 162.480359 294.270153 
L 162.712421 294.495258 
L 162.944482 294.199695 
L 165.265101 294.739952 
L 165.497163 294.975318 
L 165.961287 294.587205 
L 166.193348 294.719516 
L 166.42541 294.646242 
L 166.657472 294.226876 
L 167.121596 294.90116 
L 167.353658 294.485767 
L 167.817782 294.587104 
L 168.513967 294.312626 
L 168.746029 294.522751 
L 168.978091 294.512129 
L 169.210153 294.080013 
L 169.442215 294.140434 
L 169.906338 294.027448 
L 170.1384 294.208724 
L 170.370462 293.943455 
L 170.602524 293.954129 
L 170.834586 293.583014 
L 171.066648 293.73132 
L 171.298709 293.436779 
L 171.530771 293.368765 
L 171.762833 293.958056 
L 171.994895 293.967819 
L 172.459019 293.56704 
L 172.691081 293.613613 
L 172.923143 293.991553 
L 173.155204 294.127256 
L 173.387266 294.073821 
L 173.619328 294.136851 
L 173.85139 294.059464 
L 174.315514 294.322287 
L 174.547576 294.109306 
L 174.779637 294.296647 
L 175.011699 294.242357 
L 175.243761 294.5548 
L 175.707885 294.694691 
L 177.56438 294.686662 
L 177.796442 294.562378 
L 178.260565 294.636527 
L 178.724689 294.326224 
L 178.956751 294.301013 
L 179.188813 294.42345 
L 179.420875 294.730057 
L 179.652937 294.34863 
L 179.884998 294.211362 
L 180.11706 294.510751 
L 180.581184 293.798129 
L 181.045308 294.251292 
L 181.27737 293.860075 
L 181.509431 294.036276 
L 181.741493 293.958474 
L 182.205617 294.029699 
L 182.437679 293.888885 
L 182.669741 294.12977 
L 182.901803 294.060212 
L 183.133864 293.547452 
L 183.597988 294.372286 
L 183.83005 294.083043 
L 184.294174 294.115563 
L 184.526236 294.313734 
L 184.758297 294.170575 
L 185.222421 294.282514 
L 185.686545 294.649277 
L 186.150669 294.375567 
L 186.614792 294.717214 
L 186.846854 294.642532 
L 187.078916 294.805917 
L 187.310978 294.636174 
L 187.54304 294.877475 
L 187.775102 294.730036 
L 188.007164 294.725187 
L 188.239225 294.857598 
L 188.471287 294.732001 
L 188.703349 294.73919 
L 188.935411 294.935813 
L 189.167473 294.547882 
L 189.399535 294.721126 
L 189.631597 294.451852 
L 189.863658 294.427033 
L 190.09572 294.620748 
L 190.327782 294.089893 
L 190.791906 294.322717 
L 191.023968 294.766942 
L 191.488091 293.811377 
L 192.416339 293.989691 
L 192.648401 293.986857 
L 192.880463 294.302711 
L 193.112525 294.369116 
L 193.576648 293.852513 
L 193.80871 294.089436 
L 194.272834 293.618814 
L 194.504896 294.001575 
L 194.736958 293.944272 
L 194.969019 294.489732 
L 195.201081 294.175111 
L 195.433143 294.418479 
L 195.665205 294.25483 
L 196.129329 294.668194 
L 196.593452 294.431433 
L 196.825514 295.077074 
L 197.057576 294.648745 
L 197.289638 294.919989 
L 197.5217 294.475042 
L 197.753762 294.566342 
L 197.985824 294.537413 
L 198.217886 294.648298 
L 198.449947 294.488934 
L 199.146133 294.483866 
L 199.378195 295.21943 
L 200.07438 294.424177 
L 200.306442 294.746116 
L 200.770566 294.222748 
L 201.002628 294.529263 
L 201.466752 294.215796 
L 202.162937 294.072603 
L 202.859123 293.830529 
L 203.091185 294.128752 
L 203.323246 293.877005 
L 203.555308 293.865959 
L 203.78737 293.74299 
L 204.019432 293.796195 
L 204.251494 293.711558 
L 204.483556 294.01595 
L 204.715618 293.671725 
L 204.94768 293.898743 
L 205.179741 293.760486 
L 205.411803 293.903507 
L 205.643865 294.25789 
L 205.875927 293.832199 
L 206.107989 294.190833 
L 206.572113 294.217311 
L 207.036236 294.393738 
L 207.268298 294.612133 
L 207.50036 294.450525 
L 207.732422 294.577287 
L 207.964484 294.515918 
L 208.196546 294.608072 
L 208.660669 294.584327 
L 208.892731 294.600248 
L 209.124793 294.470842 
L 209.588917 294.819878 
L 209.820979 294.66595 
L 210.749226 294.565791 
L 211.445412 294.502807 
L 211.677474 294.143348 
L 211.909535 294.457638 
L 212.141597 294.25165 
L 212.605721 294.231831 
L 213.301907 294.064124 
L 213.533968 293.611908 
L 213.76603 293.882855 
L 214.462216 293.793595 
L 214.694278 293.847159 
L 214.92634 293.780376 
L 215.158401 293.891008 
L 215.390463 293.811805 
L 217.014896 294.074766 
L 217.246958 294.406877 
L 217.47902 294.256929 
L 217.711082 294.463814 
L 217.943144 294.360652 
L 218.407268 294.51301 
L 218.639329 294.455594 
L 218.871391 294.704858 
L 219.103453 294.752345 
L 219.335515 294.612602 
L 219.567577 294.666337 
L 220.031701 294.512401 
L 220.263762 294.717183 
L 220.495824 294.617284 
L 220.727886 294.807738 
L 220.959948 294.660662 
L 221.19201 294.735144 
L 221.424072 294.369803 
L 221.888195 294.50413 
L 222.120257 294.272483 
L 222.352319 294.509896 
L 222.584381 294.289582 
L 222.816443 294.387627 
L 223.048505 294.319313 
L 223.280567 294.516683 
L 223.976752 293.936265 
L 224.208814 293.892817 
L 224.440876 294.030974 
L 224.905 294.003022 
L 225.137062 294.088142 
L 225.601185 293.917672 
L 225.833247 293.579371 
L 226.297371 294.084621 
L 226.529433 293.82287 
L 226.993556 293.97883 
L 227.45768 294.067178 
L 228.153866 294.173957 
L 228.385928 294.293742 
L 228.850051 294.270361 
L 230.010361 294.682521 
L 230.242423 294.837716 
L 230.938608 294.542437 
L 231.402732 294.791892 
L 231.866856 294.630498 
L 232.098917 294.738554 
L 232.330979 294.631282 
L 232.563041 294.395552 
L 233.027165 294.524023 
L 233.259227 294.241812 
L 233.491289 294.437126 
L 233.72335 294.386168 
L 234.187474 294.011777 
L 234.419536 294.317396 
L 235.347783 294.057679 
L 235.579845 294.033389 
L 235.811907 294.220988 
L 236.276031 294.039298 
L 236.740155 293.805786 
L 236.972217 294.18519 
L 237.43634 293.906698 
L 238.132526 294.146306 
L 238.828711 294.347225 
L 239.060773 294.180714 
L 239.524897 294.355939 
L 239.989021 294.405692 
L 240.221083 294.589366 
L 240.685206 294.441784 
L 241.14933 294.553119 
L 241.381392 294.421089 
L 241.613454 294.456252 
L 241.845516 294.675837 
L 242.077577 294.509591 
L 242.309639 294.815846 
L 242.541701 294.739113 
L 242.773763 293.842544 
L 243.237887 294.870197 
L 243.469949 294.455462 
L 243.702011 294.854953 
L 243.934072 294.480137 
L 244.166134 294.667799 
L 244.86232 294.514602 
L 245.094382 294.203876 
L 245.326444 294.32811 
L 246.022629 294.069832 
L 246.254691 294.200251 
L 246.486753 294.015072 
L 247.182938 293.900431 
L 247.415 294.008008 
L 248.111186 293.988836 
L 249.967681 294.170409 
L 250.199743 294.465586 
L 250.663866 294.481696 
L 250.895928 294.430958 
L 251.12799 294.596268 
L 251.360052 294.550443 
L 251.824176 294.741331 
L 252.056238 294.572604 
L 252.520361 294.659767 
L 252.752423 294.489447 
L 252.984485 294.697062 
L 253.216547 294.442476 
L 253.448609 294.570283 
L 253.680671 294.934112 
L 253.912732 294.618868 
L 254.144794 294.650563 
L 254.376856 294.490052 
L 254.84098 294.579739 
L 255.305104 294.185759 
L 255.537166 294.328355 
L 255.769227 294.12283 
L 256.001289 294.573137 
L 256.233351 294.233262 
L 256.697475 294.26013 
L 257.161599 293.788553 
L 257.39366 294.237303 
L 257.625722 294.274484 
L 258.089846 293.956907 
L 258.321908 293.805578 
L 258.786032 294.004102 
L 259.018093 293.978908 
L 259.250155 294.092798 
L 259.482217 294.431714 
L 259.946341 293.756988 
L 260.410465 294.175719 
L 260.642526 294.354799 
L 261.338712 294.221228 
L 261.570774 294.480092 
L 261.802836 294.513186 
L 262.034898 294.094108 
L 262.26696 294.49839 
L 262.499021 294.553984 
L 262.731083 294.019293 
L 262.963145 294.636775 
L 263.195207 294.462865 
L 263.427269 294.640925 
L 263.659331 294.226116 
L 263.891393 294.380054 
L 264.123454 294.670706 
L 264.81964 294.413612 
L 265.051702 294.71849 
L 265.283764 294.328588 
L 265.515826 294.904365 
L 265.747887 294.739582 
L 265.979949 294.228397 
L 266.212011 294.393627 
L 266.676135 294.311742 
L 266.908197 294.194156 
L 267.140259 294.224095 
L 267.37232 293.802135 
L 268.300568 293.644158 
L 268.996754 293.601794 
L 269.228815 293.778886 
L 270.157063 293.808593 
L 271.317372 293.955193 
L 271.781496 294.136192 
L 273.405929 294.340718 
L 273.870053 294.309367 
L 275.262424 294.382843 
L 275.494486 294.170474 
L 277.815104 293.908846 
L 278.047166 294.171445 
L 278.51129 294.132213 
L 278.975414 294.219986 
L 279.439537 294.123269 
L 281.296032 294.198909 
L 281.528094 293.963669 
L 282.688403 293.957246 
L 282.920465 294.275186 
L 283.152527 294.114404 
L 283.384589 294.307466 
L 283.616651 294.345611 
L 283.848713 294.110311 
L 284.544898 294.16272 
L 284.77696 294.401964 
L 285.473146 294.493434 
L 286.633455 294.475687 
L 288.48995 294.292104 
L 290.578507 294.038964 
L 290.810569 293.656174 
L 291.04263 293.625175 
L 291.274692 293.858603 
L 291.506754 293.862087 
L 291.738816 294.637883 
L 291.970878 294.690885 
L 292.20294 294.564803 
L 292.435002 294.607896 
L 292.667063 294.141015 
L 292.899125 294.069834 
L 293.131187 294.125363 
L 293.363249 294.650828 
L 293.595311 294.733385 
L 293.827373 294.423669 
L 294.059435 294.567878 
L 294.291497 295.017491 
L 294.987682 294.456607 
L 295.219744 294.589212 
L 295.91593 294.508083 
L 296.147991 295.04741 
L 296.612115 294.425936 
L 296.844177 294.519706 
L 297.076239 294.392166 
L 297.308301 294.546003 
L 297.540363 294.192277 
L 297.772424 294.302633 
L 298.004486 294.582026 
L 298.46861 294.857081 
L 298.700672 294.594329 
L 298.932734 295.027714 
L 299.396857 295.029436 
L 299.628919 294.250567 
L 299.860981 294.553006 
L 300.093043 294.368083 
L 300.325105 294.503743 
L 300.557167 294.271837 
L 301.021291 294.318667 
L 301.253352 294.969279 
L 301.485414 294.240015 
L 301.717476 294.219953 
L 301.949538 293.743739 
L 302.1816 294.039156 
L 304.270157 294.222756 
L 304.502218 294.479151 
L 306.358713 294.717989 
L 306.590775 294.501003 
L 307.054899 294.649674 
L 307.983146 294.484038 
L 308.44727 294.810863 
L 308.679332 294.899741 
L 309.143456 294.729115 
L 309.607579 294.416378 
L 309.839641 294.609893 
L 310.767889 294.585738 
L 310.999951 294.395135 
L 311.232012 294.378901 
L 311.696136 294.573304 
L 311.928198 294.246916 
L 313.552631 294.165605 
L 314.016755 294.290346 
L 314.480879 294.407866 
L 315.641188 294.416049 
L 316.569435 294.492118 
L 316.801497 294.885503 
L 317.033559 294.404754 
L 317.497683 294.66549 
L 317.961806 294.483537 
L 318.657992 294.6198 
L 319.354178 294.396925 
L 319.58624 294.588537 
L 320.050363 294.43947 
L 320.282425 295.17502 
L 320.514487 294.792082 
L 320.746549 294.854656 
L 320.978611 294.385961 
L 321.674796 294.260472 
L 321.906858 294.080859 
L 322.13892 294.198728 
L 322.603044 294.173797 
L 322.835106 293.696216 
L 323.067167 293.720805 
L 323.299229 294.123362 
L 323.995415 294.219234 
L 324.459539 294.98329 
L 324.6916 294.236096 
L 325.387786 294.278419 
L 325.85191 294.451444 
L 326.780157 294.537014 
L 327.244281 294.332644 
L 327.476343 294.672361 
L 327.940467 294.468951 
L 328.172528 294.349408 
L 328.40459 294.86764 
L 328.636652 294.850043 
L 328.868714 294.528271 
L 329.100776 294.436317 
L 329.5649 294.477357 
L 331.189333 294.450032 
L 331.421395 294.210836 
L 331.653456 295.061021 
L 331.885518 294.357597 
L 332.11758 294.355031 
L 332.349642 294.146055 
L 332.581704 294.547719 
L 332.813766 294.307912 
L 333.277889 294.230007 
L 333.509951 294.39082 
L 334.438199 294.254905 
L 335.134384 294.215974 
L 335.366446 294.083551 
L 336.062632 294.110122 
L 336.294694 294.312697 
L 337.222941 294.434884 
L 337.455003 294.381856 
L 337.687065 294.601056 
L 338.38325 294.574244 
L 339.54356 294.292841 
L 339.775622 294.567782 
L 340.471807 294.605005 
L 340.703869 294.112928 
L 340.935931 294.465724 
L 341.167993 294.455784 
L 341.400055 294.239443 
L 342.328302 294.162867 
L 342.560364 293.972969 
L 342.792426 293.955074 
L 343.024488 294.424445 
L 344.184797 294.3423 
L 344.416859 294.2037 
L 346.969539 294.211769 
L 347.433663 294.355728 
L 348.129849 294.383869 
L 348.36191 294.07119 
L 348.826034 294.432304 
L 349.058096 294.245597 
L 349.986343 294.297805 
L 350.450467 294.437551 
L 350.682529 294.3194 
L 350.914591 294.503834 
L 351.146653 294.364528 
L 353.003148 294.29359 
L 355.091704 294.15432 
L 355.323766 294.306399 
L 355.555828 294.149788 
L 359.036756 294.157691 
L 359.268818 294.276512 
L 359.50088 294.241564 
L 360.197065 294.508169 
L 360.429127 294.973285 
L 360.661189 294.521821 
L 361.125313 294.55944 
L 361.357375 294.457882 
L 361.589437 294.576292 
L 362.285622 294.436003 
L 362.517684 294.673062 
L 362.981808 294.677389 
L 363.21387 294.356218 
L 363.445932 294.751085 
L 363.910055 293.929626 
L 364.374179 294.492614 
L 364.838303 294.372125 
L 365.070365 294.532614 
L 365.534488 294.464174 
L 365.76655 294.375336 
L 365.998612 294.570973 
L 366.230674 294.283472 
L 366.462736 294.195476 
L 366.694798 293.803834 
L 366.926859 294.334694 
L 367.623045 294.200633 
L 367.855107 294.129583 
L 368.087169 294.374342 
L 368.319231 294.242537 
L 368.551292 294.810872 
L 368.783354 294.29466 
L 369.247478 294.671777 
L 369.943664 294.154708 
L 370.175726 294.267244 
L 370.407787 294.992903 
L 370.639849 294.296769 
L 370.871911 294.106215 
L 371.103973 294.394801 
L 371.568097 294.443771 
L 371.800159 294.865358 
L 372.03222 294.358687 
L 372.496344 294.376244 
L 372.960468 294.917462 
L 373.19253 294.347631 
L 373.424592 294.521153 
L 373.656653 293.982535 
L 373.888715 294.564928 
L 374.120777 294.297454 
L 374.584901 294.421451 
L 374.816963 295.093565 
L 375.049025 294.363974 
L 375.74521 294.306119 
L 375.977272 294.396101 
L 376.441396 294.059029 
L 376.673458 295.201468 
L 377.369643 294.212182 
L 377.601705 294.535811 
L 377.833767 294.041825 
L 378.297891 294.694489 
L 378.529953 293.469183 
L 378.762014 294.739583 
L 378.994076 294.840732 
L 379.226138 294.405223 
L 379.4582 293.098078 
L 379.690262 294.736155 
L 379.922324 294.218208 
L 380.154386 294.232802 
L 380.386447 294.485255 
L 380.618509 294.268337 
L 380.850571 294.707105 
L 381.082633 294.141758 
L 381.546757 294.476603 
L 382.01088 294.401446 
L 382.242942 294.88328 
L 382.707066 294.072321 
L 383.17119 294.350194 
L 383.403252 294.65689 
L 383.635314 294.745504 
L 383.867375 294.444377 
L 384.795623 294.370097 
L 385.027685 294.659504 
L 385.259747 294.454999 
L 385.491808 294.596655 
L 385.72387 294.441295 
L 385.955932 294.557803 
L 386.187994 294.265316 
L 386.420056 294.501876 
L 386.88418 294.614536 
L 387.116241 294.45512 
L 387.348303 294.046891 
L 387.580365 294.458076 
L 387.812427 294.07847 
L 388.276551 294.213726 
L 388.508613 294.306092 
L 388.740675 294.191534 
L 388.972736 294.319286 
L 389.204798 294.114269 
L 389.43686 294.475951 
L 389.668922 294.425035 
L 389.900984 294.710567 
L 390.133046 294.139546 
L 390.365108 294.032575 
L 390.597169 294.255633 
L 391.757479 294.394916 
L 391.989541 294.537456 
L 392.221602 294.261423 
L 392.453664 294.244989 
L 392.685726 294.439414 
L 392.917788 294.06201 
L 393.381912 294.616462 
L 393.613974 294.351496 
L 393.846035 294.532453 
L 394.078097 295.091637 
L 394.310159 294.648259 
L 394.542221 294.507917 
L 394.774283 294.159479 
L 395.238407 294.358797 
L 395.470469 294.114874 
L 395.70253 294.516702 
L 396.166654 294.409791 
L 396.398716 294.717228 
L 396.630778 294.298667 
L 397.094902 294.294965 
L 397.326963 294.082029 
L 397.559025 294.465902 
L 397.791087 293.461699 
L 398.023149 294.369076 
L 398.487273 294.342413 
L 398.487273 294.342413 
" style="fill:none;stroke:#ff7f0e;stroke-linecap:square;stroke-width:1.5;"/>
   </g>
   <g id="patch_3">
    <path d="M 57.6 307.584 
L 57.6 41.472 
" style="fill:none;stroke:#000000;stroke-linecap:square;stroke-linejoin:miter;stroke-width:0.8;"/>
   </g>
   <g id="patch_4">
    <path d="M 414.72 307.584 
L 414.72 41.472 
" style="fill:none;stroke:#000000;stroke-linecap:square;stroke-linejoin:miter;stroke-width:0.8;"/>
   </g>
   <g id="patch_5">
    <path d="M 57.6 307.584 
L 414.72 307.584 
" style="fill:none;stroke:#000000;stroke-linecap:square;stroke-linejoin:miter;stroke-width:0.8;"/>
   </g>
   <g id="patch_6">
    <path d="M 57.6 41.472 
L 414.72 41.472 
" style="fill:none;stroke:#000000;stroke-linecap:square;stroke-linejoin:miter;stroke-width:0.8;"/>
   </g>
  </g>
 </g>
 <defs>
  <clipPath id="p2834c00a61">
   <rect height="266.112" width="357.12" x="57.6" y="41.472"/>
  </clipPath>
 </defs>
</svg>
