<?xml version="1.0" encoding="utf-8" standalone="no"?>
<!DOCTYPE svg PUBLIC "-//W3C//DTD SVG 1.1//EN"
  "http://www.w3.org/Graphics/SVG/1.1/DTD/svg11.dtd">
<!-- Created with matplotlib (https://matplotlib.org/) -->
<svg height="345.6pt" version="1.1" viewBox="0 0 460.8 345.6" width="460.8pt" xmlns="http://www.w3.org/2000/svg" xmlns:xlink="http://www.w3.org/1999/xlink">
 <defs>
  <style type="text/css">
*{stroke-linecap:butt;stroke-linejoin:round;}
  </style>
 </defs>
 <g id="figure_1">
  <g id="patch_1">
   <path d="M 0 345.6 
L 460.8 345.6 
L 460.8 0 
L 0 0 
z
" style="fill:#ffffff;"/>
  </g>
  <g id="axes_1">
   <g id="patch_2">
    <path d="M 57.6 307.584 
L 414.72 307.584 
L 414.72 41.472 
L 57.6 41.472 
z
" style="fill:#ffffff;"/>
   </g>
   <g id="matplotlib.axis_1">
    <g id="xtick_1">
     <g id="line2d_1">
      <defs>
       <path d="M 0 0 
L 0 3.5 
" id="m01f79610b7" style="stroke:#000000;stroke-width:0.8;"/>
      </defs>
      <g>
       <use style="stroke:#000000;stroke-width:0.8;" x="73.832727" xlink:href="#m01f79610b7" y="307.584"/>
      </g>
     </g>
     <g id="text_1">
      <!-- 0 -->
      <defs>
       <path d="M 31.78125 66.40625 
Q 24.171875 66.40625 20.328125 58.90625 
Q 16.5 51.421875 16.5 36.375 
Q 16.5 21.390625 20.328125 13.890625 
Q 24.171875 6.390625 31.78125 6.390625 
Q 39.453125 6.390625 43.28125 13.890625 
Q 47.125 21.390625 47.125 36.375 
Q 47.125 51.421875 43.28125 58.90625 
Q 39.453125 66.40625 31.78125 66.40625 
z
M 31.78125 74.21875 
Q 44.046875 74.21875 50.515625 64.515625 
Q 56.984375 54.828125 56.984375 36.375 
Q 56.984375 17.96875 50.515625 8.265625 
Q 44.046875 -1.421875 31.78125 -1.421875 
Q 19.53125 -1.421875 13.0625 8.265625 
Q 6.59375 17.96875 6.59375 36.375 
Q 6.59375 54.828125 13.0625 64.515625 
Q 19.53125 74.21875 31.78125 74.21875 
z
" id="DejaVuSans-48"/>
      </defs>
      <g transform="translate(70.651477 322.182437)scale(0.1 -0.1)">
       <use xlink:href="#DejaVuSans-48"/>
      </g>
     </g>
    </g>
    <g id="xtick_2">
     <g id="line2d_2">
      <g>
       <use style="stroke:#000000;stroke-width:0.8;" x="114.465336" xlink:href="#m01f79610b7" y="307.584"/>
      </g>
     </g>
     <g id="text_2">
      <!-- 100 -->
      <defs>
       <path d="M 12.40625 8.296875 
L 28.515625 8.296875 
L 28.515625 63.921875 
L 10.984375 60.40625 
L 10.984375 69.390625 
L 28.421875 72.90625 
L 38.28125 72.90625 
L 38.28125 8.296875 
L 54.390625 8.296875 
L 54.390625 0 
L 12.40625 0 
z
" id="DejaVuSans-49"/>
      </defs>
      <g transform="translate(104.921586 322.182437)scale(0.1 -0.1)">
       <use xlink:href="#DejaVuSans-49"/>
       <use x="63.623047" xlink:href="#DejaVuSans-48"/>
       <use x="127.246094" xlink:href="#DejaVuSans-48"/>
      </g>
     </g>
    </g>
    <g id="xtick_3">
     <g id="line2d_3">
      <g>
       <use style="stroke:#000000;stroke-width:0.8;" x="155.097945" xlink:href="#m01f79610b7" y="307.584"/>
      </g>
     </g>
     <g id="text_3">
      <!-- 200 -->
      <defs>
       <path d="M 19.1875 8.296875 
L 53.609375 8.296875 
L 53.609375 0 
L 7.328125 0 
L 7.328125 8.296875 
Q 12.9375 14.109375 22.625 23.890625 
Q 32.328125 33.6875 34.8125 36.53125 
Q 39.546875 41.84375 41.421875 45.53125 
Q 43.3125 49.21875 43.3125 52.78125 
Q 43.3125 58.59375 39.234375 62.25 
Q 35.15625 65.921875 28.609375 65.921875 
Q 23.96875 65.921875 18.8125 64.3125 
Q 13.671875 62.703125 7.8125 59.421875 
L 7.8125 69.390625 
Q 13.765625 71.78125 18.9375 73 
Q 24.125 74.21875 28.421875 74.21875 
Q 39.75 74.21875 46.484375 68.546875 
Q 53.21875 62.890625 53.21875 53.421875 
Q 53.21875 48.921875 51.53125 44.890625 
Q 49.859375 40.875 45.40625 35.40625 
Q 44.1875 33.984375 37.640625 27.21875 
Q 31.109375 20.453125 19.1875 8.296875 
z
" id="DejaVuSans-50"/>
      </defs>
      <g transform="translate(145.554195 322.182437)scale(0.1 -0.1)">
       <use xlink:href="#DejaVuSans-50"/>
       <use x="63.623047" xlink:href="#DejaVuSans-48"/>
       <use x="127.246094" xlink:href="#DejaVuSans-48"/>
      </g>
     </g>
    </g>
    <g id="xtick_4">
     <g id="line2d_4">
      <g>
       <use style="stroke:#000000;stroke-width:0.8;" x="195.730554" xlink:href="#m01f79610b7" y="307.584"/>
      </g>
     </g>
     <g id="text_4">
      <!-- 300 -->
      <defs>
       <path d="M 40.578125 39.3125 
Q 47.65625 37.796875 51.625 33 
Q 55.609375 28.21875 55.609375 21.1875 
Q 55.609375 10.40625 48.1875 4.484375 
Q 40.765625 -1.421875 27.09375 -1.421875 
Q 22.515625 -1.421875 17.65625 -0.515625 
Q 12.796875 0.390625 7.625 2.203125 
L 7.625 11.71875 
Q 11.71875 9.328125 16.59375 8.109375 
Q 21.484375 6.890625 26.8125 6.890625 
Q 36.078125 6.890625 40.9375 10.546875 
Q 45.796875 14.203125 45.796875 21.1875 
Q 45.796875 27.640625 41.28125 31.265625 
Q 36.765625 34.90625 28.71875 34.90625 
L 20.21875 34.90625 
L 20.21875 43.015625 
L 29.109375 43.015625 
Q 36.375 43.015625 40.234375 45.921875 
Q 44.09375 48.828125 44.09375 54.296875 
Q 44.09375 59.90625 40.109375 62.90625 
Q 36.140625 65.921875 28.71875 65.921875 
Q 24.65625 65.921875 20.015625 65.03125 
Q 15.375 64.15625 9.8125 62.3125 
L 9.8125 71.09375 
Q 15.4375 72.65625 20.34375 73.4375 
Q 25.25 74.21875 29.59375 74.21875 
Q 40.828125 74.21875 47.359375 69.109375 
Q 53.90625 64.015625 53.90625 55.328125 
Q 53.90625 49.265625 50.4375 45.09375 
Q 46.96875 40.921875 40.578125 39.3125 
z
" id="DejaVuSans-51"/>
      </defs>
      <g transform="translate(186.186804 322.182437)scale(0.1 -0.1)">
       <use xlink:href="#DejaVuSans-51"/>
       <use x="63.623047" xlink:href="#DejaVuSans-48"/>
       <use x="127.246094" xlink:href="#DejaVuSans-48"/>
      </g>
     </g>
    </g>
    <g id="xtick_5">
     <g id="line2d_5">
      <g>
       <use style="stroke:#000000;stroke-width:0.8;" x="236.363163" xlink:href="#m01f79610b7" y="307.584"/>
      </g>
     </g>
     <g id="text_5">
      <!-- 400 -->
      <defs>
       <path d="M 37.796875 64.3125 
L 12.890625 25.390625 
L 37.796875 25.390625 
z
M 35.203125 72.90625 
L 47.609375 72.90625 
L 47.609375 25.390625 
L 58.015625 25.390625 
L 58.015625 17.1875 
L 47.609375 17.1875 
L 47.609375 0 
L 37.796875 0 
L 37.796875 17.1875 
L 4.890625 17.1875 
L 4.890625 26.703125 
z
" id="DejaVuSans-52"/>
      </defs>
      <g transform="translate(226.819413 322.182437)scale(0.1 -0.1)">
       <use xlink:href="#DejaVuSans-52"/>
       <use x="63.623047" xlink:href="#DejaVuSans-48"/>
       <use x="127.246094" xlink:href="#DejaVuSans-48"/>
      </g>
     </g>
    </g>
    <g id="xtick_6">
     <g id="line2d_6">
      <g>
       <use style="stroke:#000000;stroke-width:0.8;" x="276.995772" xlink:href="#m01f79610b7" y="307.584"/>
      </g>
     </g>
     <g id="text_6">
      <!-- 500 -->
      <defs>
       <path d="M 10.796875 72.90625 
L 49.515625 72.90625 
L 49.515625 64.59375 
L 19.828125 64.59375 
L 19.828125 46.734375 
Q 21.96875 47.46875 24.109375 47.828125 
Q 26.265625 48.1875 28.421875 48.1875 
Q 40.625 48.1875 47.75 41.5 
Q 54.890625 34.8125 54.890625 23.390625 
Q 54.890625 11.625 47.5625 5.09375 
Q 40.234375 -1.421875 26.90625 -1.421875 
Q 22.3125 -1.421875 17.546875 -0.640625 
Q 12.796875 0.140625 7.71875 1.703125 
L 7.71875 11.625 
Q 12.109375 9.234375 16.796875 8.0625 
Q 21.484375 6.890625 26.703125 6.890625 
Q 35.15625 6.890625 40.078125 11.328125 
Q 45.015625 15.765625 45.015625 23.390625 
Q 45.015625 31 40.078125 35.4375 
Q 35.15625 39.890625 26.703125 39.890625 
Q 22.75 39.890625 18.8125 39.015625 
Q 14.890625 38.140625 10.796875 36.28125 
z
" id="DejaVuSans-53"/>
      </defs>
      <g transform="translate(267.452022 322.182437)scale(0.1 -0.1)">
       <use xlink:href="#DejaVuSans-53"/>
       <use x="63.623047" xlink:href="#DejaVuSans-48"/>
       <use x="127.246094" xlink:href="#DejaVuSans-48"/>
      </g>
     </g>
    </g>
    <g id="xtick_7">
     <g id="line2d_7">
      <g>
       <use style="stroke:#000000;stroke-width:0.8;" x="317.628381" xlink:href="#m01f79610b7" y="307.584"/>
      </g>
     </g>
     <g id="text_7">
      <!-- 600 -->
      <defs>
       <path d="M 33.015625 40.375 
Q 26.375 40.375 22.484375 35.828125 
Q 18.609375 31.296875 18.609375 23.390625 
Q 18.609375 15.53125 22.484375 10.953125 
Q 26.375 6.390625 33.015625 6.390625 
Q 39.65625 6.390625 43.53125 10.953125 
Q 47.40625 15.53125 47.40625 23.390625 
Q 47.40625 31.296875 43.53125 35.828125 
Q 39.65625 40.375 33.015625 40.375 
z
M 52.59375 71.296875 
L 52.59375 62.3125 
Q 48.875 64.0625 45.09375 64.984375 
Q 41.3125 65.921875 37.59375 65.921875 
Q 27.828125 65.921875 22.671875 59.328125 
Q 17.53125 52.734375 16.796875 39.40625 
Q 19.671875 43.65625 24.015625 45.921875 
Q 28.375 48.1875 33.59375 48.1875 
Q 44.578125 48.1875 50.953125 41.515625 
Q 57.328125 34.859375 57.328125 23.390625 
Q 57.328125 12.15625 50.6875 5.359375 
Q 44.046875 -1.421875 33.015625 -1.421875 
Q 20.359375 -1.421875 13.671875 8.265625 
Q 6.984375 17.96875 6.984375 36.375 
Q 6.984375 53.65625 15.1875 63.9375 
Q 23.390625 74.21875 37.203125 74.21875 
Q 40.921875 74.21875 44.703125 73.484375 
Q 48.484375 72.75 52.59375 71.296875 
z
" id="DejaVuSans-54"/>
      </defs>
      <g transform="translate(308.084631 322.182437)scale(0.1 -0.1)">
       <use xlink:href="#DejaVuSans-54"/>
       <use x="63.623047" xlink:href="#DejaVuSans-48"/>
       <use x="127.246094" xlink:href="#DejaVuSans-48"/>
      </g>
     </g>
    </g>
    <g id="xtick_8">
     <g id="line2d_8">
      <g>
       <use style="stroke:#000000;stroke-width:0.8;" x="358.26099" xlink:href="#m01f79610b7" y="307.584"/>
      </g>
     </g>
     <g id="text_8">
      <!-- 700 -->
      <defs>
       <path d="M 8.203125 72.90625 
L 55.078125 72.90625 
L 55.078125 68.703125 
L 28.609375 0 
L 18.3125 0 
L 43.21875 64.59375 
L 8.203125 64.59375 
z
" id="DejaVuSans-55"/>
      </defs>
      <g transform="translate(348.71724 322.182437)scale(0.1 -0.1)">
       <use xlink:href="#DejaVuSans-55"/>
       <use x="63.623047" xlink:href="#DejaVuSans-48"/>
       <use x="127.246094" xlink:href="#DejaVuSans-48"/>
      </g>
     </g>
    </g>
    <g id="xtick_9">
     <g id="line2d_9">
      <g>
       <use style="stroke:#000000;stroke-width:0.8;" x="398.893599" xlink:href="#m01f79610b7" y="307.584"/>
      </g>
     </g>
     <g id="text_9">
      <!-- 800 -->
      <defs>
       <path d="M 31.78125 34.625 
Q 24.75 34.625 20.71875 30.859375 
Q 16.703125 27.09375 16.703125 20.515625 
Q 16.703125 13.921875 20.71875 10.15625 
Q 24.75 6.390625 31.78125 6.390625 
Q 38.8125 6.390625 42.859375 10.171875 
Q 46.921875 13.96875 46.921875 20.515625 
Q 46.921875 27.09375 42.890625 30.859375 
Q 38.875 34.625 31.78125 34.625 
z
M 21.921875 38.8125 
Q 15.578125 40.375 12.03125 44.71875 
Q 8.5 49.078125 8.5 55.328125 
Q 8.5 64.0625 14.71875 69.140625 
Q 20.953125 74.21875 31.78125 74.21875 
Q 42.671875 74.21875 48.875 69.140625 
Q 55.078125 64.0625 55.078125 55.328125 
Q 55.078125 49.078125 51.53125 44.71875 
Q 48 40.375 41.703125 38.8125 
Q 48.828125 37.15625 52.796875 32.3125 
Q 56.78125 27.484375 56.78125 20.515625 
Q 56.78125 9.90625 50.3125 4.234375 
Q 43.84375 -1.421875 31.78125 -1.421875 
Q 19.734375 -1.421875 13.25 4.234375 
Q 6.78125 9.90625 6.78125 20.515625 
Q 6.78125 27.484375 10.78125 32.3125 
Q 14.796875 37.15625 21.921875 38.8125 
z
M 18.3125 54.390625 
Q 18.3125 48.734375 21.84375 45.5625 
Q 25.390625 42.390625 31.78125 42.390625 
Q 38.140625 42.390625 41.71875 45.5625 
Q 45.3125 48.734375 45.3125 54.390625 
Q 45.3125 60.0625 41.71875 63.234375 
Q 38.140625 66.40625 31.78125 66.40625 
Q 25.390625 66.40625 21.84375 63.234375 
Q 18.3125 60.0625 18.3125 54.390625 
z
" id="DejaVuSans-56"/>
      </defs>
      <g transform="translate(389.349849 322.182437)scale(0.1 -0.1)">
       <use xlink:href="#DejaVuSans-56"/>
       <use x="63.623047" xlink:href="#DejaVuSans-48"/>
       <use x="127.246094" xlink:href="#DejaVuSans-48"/>
      </g>
     </g>
    </g>
   </g>
   <g id="matplotlib.axis_2">
    <g id="ytick_1">
     <g id="line2d_10">
      <defs>
       <path d="M 0 0 
L -3.5 0 
" id="ma243c8cbb0" style="stroke:#000000;stroke-width:0.8;"/>
      </defs>
      <g>
       <use style="stroke:#000000;stroke-width:0.8;" x="57.6" xlink:href="#ma243c8cbb0" y="288.118938"/>
      </g>
     </g>
     <g id="text_10">
      <!-- −0.6 -->
      <defs>
       <path d="M 10.59375 35.5 
L 73.1875 35.5 
L 73.1875 27.203125 
L 10.59375 27.203125 
z
" id="DejaVuSans-8722"/>
       <path d="M 10.6875 12.40625 
L 21 12.40625 
L 21 0 
L 10.6875 0 
z
" id="DejaVuSans-46"/>
      </defs>
      <g transform="translate(26.317187 291.918157)scale(0.1 -0.1)">
       <use xlink:href="#DejaVuSans-8722"/>
       <use x="83.789062" xlink:href="#DejaVuSans-48"/>
       <use x="147.412109" xlink:href="#DejaVuSans-46"/>
       <use x="179.199219" xlink:href="#DejaVuSans-54"/>
      </g>
     </g>
    </g>
    <g id="ytick_2">
     <g id="line2d_11">
      <g>
       <use style="stroke:#000000;stroke-width:0.8;" x="57.6" xlink:href="#ma243c8cbb0" y="238.336976"/>
      </g>
     </g>
     <g id="text_11">
      <!-- −0.4 -->
      <g transform="translate(26.317187 242.136195)scale(0.1 -0.1)">
       <use xlink:href="#DejaVuSans-8722"/>
       <use x="83.789062" xlink:href="#DejaVuSans-48"/>
       <use x="147.412109" xlink:href="#DejaVuSans-46"/>
       <use x="179.199219" xlink:href="#DejaVuSans-52"/>
      </g>
     </g>
    </g>
    <g id="ytick_3">
     <g id="line2d_12">
      <g>
       <use style="stroke:#000000;stroke-width:0.8;" x="57.6" xlink:href="#ma243c8cbb0" y="188.555014"/>
      </g>
     </g>
     <g id="text_12">
      <!-- −0.2 -->
      <g transform="translate(26.317187 192.354232)scale(0.1 -0.1)">
       <use xlink:href="#DejaVuSans-8722"/>
       <use x="83.789062" xlink:href="#DejaVuSans-48"/>
       <use x="147.412109" xlink:href="#DejaVuSans-46"/>
       <use x="179.199219" xlink:href="#DejaVuSans-50"/>
      </g>
     </g>
    </g>
    <g id="ytick_4">
     <g id="line2d_13">
      <g>
       <use style="stroke:#000000;stroke-width:0.8;" x="57.6" xlink:href="#ma243c8cbb0" y="138.773051"/>
      </g>
     </g>
     <g id="text_13">
      <!-- 0.0 -->
      <g transform="translate(34.696875 142.57227)scale(0.1 -0.1)">
       <use xlink:href="#DejaVuSans-48"/>
       <use x="63.623047" xlink:href="#DejaVuSans-46"/>
       <use x="95.410156" xlink:href="#DejaVuSans-48"/>
      </g>
     </g>
    </g>
    <g id="ytick_5">
     <g id="line2d_14">
      <g>
       <use style="stroke:#000000;stroke-width:0.8;" x="57.6" xlink:href="#ma243c8cbb0" y="88.991089"/>
      </g>
     </g>
     <g id="text_14">
      <!-- 0.2 -->
      <g transform="translate(34.696875 92.790307)scale(0.1 -0.1)">
       <use xlink:href="#DejaVuSans-48"/>
       <use x="63.623047" xlink:href="#DejaVuSans-46"/>
       <use x="95.410156" xlink:href="#DejaVuSans-50"/>
      </g>
     </g>
    </g>
   </g>
   <g id="line2d_15">
    <path clip-path="url(#p3aed3a62bb)" d="M 73.832727 136.421923 
L 74.239053 140.364946 
L 75.051706 144.659516 
L 75.458032 146.063252 
L 75.864358 146.54487 
L 76.67701 144.816862 
L 78.70864 139.878596 
L 79.521293 138.605105 
L 80.333945 136.682211 
L 81.146597 135.2753 
L 81.552923 134.816754 
L 81.959249 134.528581 
L 82.365575 134.384046 
L 82.771901 134.395747 
L 83.178227 134.567334 
L 83.99088 135.290721 
L 84.803532 136.410155 
L 87.647814 140.819536 
L 88.460466 141.535363 
L 89.273119 141.829614 
L 90.085771 141.689676 
L 90.898423 141.163586 
L 91.711075 140.360153 
L 94.555358 137.169194 
L 95.36801 136.652587 
L 96.180662 136.450137 
L 96.993314 136.555193 
L 97.805967 136.937949 
L 99.024945 137.861805 
L 101.056575 139.560889 
L 101.869227 140.040557 
L 102.68188 140.320432 
L 103.494532 140.366214 
L 104.307184 140.202132 
L 105.526162 139.626781 
L 108.370445 137.929129 
L 109.589423 137.564067 
L 110.402075 137.529097 
L 111.214728 137.670687 
L 112.433706 138.122202 
L 115.277988 139.377911 
L 116.496967 139.623324 
L 117.715945 139.58506 
L 118.934923 139.303498 
L 122.591858 138.202103 
L 123.810836 138.091115 
L 125.029815 138.201104 
L 127.061445 138.660395 
L 129.093075 139.109501 
L 130.71838 139.223051 
L 132.343684 139.078157 
L 137.219597 138.391522 
L 138.844902 138.461259 
L 142.09551 138.88463 
L 142.908162 138.99462 
L 145.346119 138.981541 
L 152.253663 138.585551 
L 159.567532 138.880475 
L 166.06875 138.60617 
L 172.569967 138.903033 
L 176.226902 138.64582 
L 178.664858 138.572349 
L 181.509141 138.748423 
L 184.75975 138.9379 
L 187.604032 138.808562 
L 191.667293 138.553102 
L 194.10525 138.68937 
L 198.574837 138.944165 
L 201.825445 138.74858 
L 204.263402 138.633033 
L 207.107685 138.621125 
L 214.82788 138.86895 
L 220.516446 138.600292 
L 224.17338 138.833103 
L 227.017663 138.912947 
L 230.268272 138.732727 
L 233.51888 138.595007 
L 236.363163 138.734401 
L 239.613772 138.923618 
L 242.051728 138.849686 
L 247.333967 138.601675 
L 255.460489 138.83098 
L 260.336402 138.592509 
L 263.180685 138.742863 
L 266.431294 138.919848 
L 268.86925 138.834538 
L 273.338837 138.576656 
L 275.776794 138.678668 
L 280.246381 138.922443 
L 283.090663 138.778308 
L 286.747598 138.581829 
L 289.185555 138.685036 
L 293.248816 138.890773 
L 296.093098 138.787746 
L 300.562685 138.599482 
L 305.032272 138.801101 
L 308.282881 138.872881 
L 317.628381 138.692269 
L 322.504294 138.859999 
L 331.443468 138.707121 
L 335.100403 138.868706 
L 338.351011 138.745319 
L 341.60162 138.592087 
L 344.852229 138.719824 
L 348.509164 138.859064 
L 352.166099 138.697949 
L 355.416707 138.595469 
L 364.355881 138.796888 
L 368.825468 138.601192 
L 371.669751 138.739443 
L 374.92036 138.91949 
L 377.764642 138.835201 
L 381.421577 138.626705 
L 384.672186 138.680563 
L 390.360751 138.905695 
L 393.61136 138.726919 
L 397.268294 138.632063 
L 398.487273 138.699744 
L 398.487273 138.699744 
" style="fill:none;stroke:#1f77b4;stroke-linecap:square;stroke-width:1.5;"/>
   </g>
   <g id="line2d_16">
    <path clip-path="url(#p3aed3a62bb)" d="M 73.832727 136.928345 
L 74.239053 140.813187 
L 75.051706 145.949774 
L 75.458032 147.241548 
L 75.864358 147.719463 
L 76.67701 146.567697 
L 77.489662 144.915371 
L 78.302314 143.129349 
L 79.521293 141.154256 
L 80.740271 137.877345 
L 81.552923 136.168016 
L 82.365575 135.008798 
L 82.771901 134.645174 
L 83.178227 134.447061 
L 83.584553 134.397521 
L 83.99088 134.499849 
L 84.803532 135.105582 
L 85.616184 136.143737 
L 88.866793 141.134632 
L 89.679445 141.75772 
L 90.492097 141.938751 
L 91.304749 141.685903 
L 92.117401 141.067671 
L 93.33638 139.686103 
L 94.961684 137.729703 
L 95.774336 136.994472 
L 96.586988 136.546639 
L 97.39964 136.416254 
L 98.212293 136.607121 
L 99.024945 137.063094 
L 100.243923 138.063378 
L 102.275554 139.814288 
L 103.088206 140.257643 
L 103.900858 140.484839 
L 104.71351 140.468506 
L 105.526162 140.223479 
L 106.745141 139.545767 
L 109.183097 137.979058 
L 109.995749 137.646471 
L 110.808401 137.550034 
L 111.621054 137.660792 
L 112.840032 138.075879 
L 116.090641 139.483293 
L 117.309619 139.679053 
L 118.528597 139.532066 
L 120.153901 139.05931 
L 122.185532 138.466347 
L 123.810836 138.216131 
L 125.029815 138.249766 
L 126.655119 138.515407 
L 129.905728 139.141671 
L 131.531032 139.186892 
L 133.562662 138.963949 
L 138.032249 138.46348 
L 140.06388 138.604393 
L 144.533467 139.01439 
L 146.971423 138.894606 
L 151.44101 138.609256 
L 154.285293 138.730841 
L 158.75488 138.935519 
L 161.599163 138.79624 
L 165.256097 138.623982 
L 168.506706 138.790898 
L 171.757315 138.937161 
L 175.007924 138.808712 
L 179.071184 138.623335 
L 181.915467 138.782917 
L 185.166076 138.944481 
L 188.010358 138.82846 
L 192.479945 138.611325 
L 196.13688 138.851541 
L 198.981163 138.952901 
L 204.263402 138.693459 
L 207.107685 138.636115 
L 210.764619 138.844091 
L 213.608902 138.958818 
L 215.640532 138.874021 
L 220.110119 138.622665 
L 222.548076 138.70343 
L 227.423989 138.943166 
L 230.674598 138.765781 
L 233.925207 138.615761 
L 236.769489 138.759025 
L 240.83275 138.945503 
L 243.677033 138.784147 
L 246.927641 138.620897 
L 249.771924 138.740224 
L 253.428859 138.940379 
L 256.273141 138.841665 
L 260.742728 138.620301 
L 263.587011 138.776259 
L 267.243946 138.950854 
L 270.088228 138.80742 
L 273.745163 138.609236 
L 276.589446 138.739729 
L 280.246381 138.952423 
L 282.684337 138.871873 
L 287.153924 138.613605 
L 289.998207 138.749655 
L 294.061468 138.921134 
L 297.312076 138.775064 
L 300.562685 138.637581 
L 304.21962 138.776088 
L 311.127163 138.816383 
L 314.784098 138.637996 
L 317.628381 138.705834 
L 322.91062 138.916888 
L 326.567555 138.703416 
L 329.411838 138.637614 
L 332.662446 138.81975 
L 336.319381 138.919478 
L 340.788968 138.662641 
L 343.226925 138.641734 
L 350.134468 138.894307 
L 356.635686 138.656606 
L 360.29262 138.871802 
L 363.136903 138.927149 
L 366.793838 138.696926 
L 369.63812 138.632429 
L 372.482403 138.796241 
L 375.733012 138.945009 
L 378.170968 138.853571 
L 383.453207 138.631043 
L 386.29749 138.798989 
L 389.954425 138.94153 
L 393.205034 138.77736 
L 397.268294 138.648739 
L 398.487273 138.706852 
L 398.487273 138.706852 
" style="fill:none;stroke:#ff7f0e;stroke-linecap:square;stroke-width:1.5;"/>
   </g>
   <g id="line2d_17">
    <path clip-path="url(#p3aed3a62bb)" d="M 73.832727 161.757111 
L 75.051706 225.060521 
L 75.864358 258.154707 
L 76.67701 281.289769 
L 77.083336 288.835604 
L 77.489662 293.576437 
L 77.895988 295.488 
L 78.302314 294.611139 
L 78.70864 291.013281 
L 79.114966 284.800141 
L 79.927619 265.255149 
L 80.740271 237.649103 
L 81.959249 185.944051 
L 83.99088 96.638323 
L 84.803532 71.113983 
L 85.209858 62.29297 
L 85.616184 56.413574 
L 86.02251 53.568 
L 86.428836 53.741953 
L 86.835162 56.825224 
L 87.241488 62.60399 
L 88.05414 80.984176 
L 89.273119 119.455777 
L 90.492097 159.252584 
L 91.304749 180.578303 
L 92.117401 194.820158 
L 92.523727 198.761967 
L 92.930053 200.48007 
L 93.33638 199.998501 
L 93.742706 197.411304 
L 94.149032 192.885301 
L 94.961684 178.858762 
L 96.180662 150.479611 
L 97.39964 121.63806 
L 98.212293 106.450234 
L 99.024945 96.658369 
L 99.431271 94.109214 
L 99.837597 93.172368 
L 100.243923 93.836991 
L 100.650249 96.022809 
L 101.056575 99.575393 
L 101.869227 110.091701 
L 103.088206 130.90985 
L 104.307184 151.6868 
L 105.119836 162.441999 
L 105.526162 166.376715 
L 105.932488 169.208897 
L 106.338814 170.876424 
L 106.745141 171.368208 
L 107.151467 170.711379 
L 107.557793 168.971415 
L 107.964119 166.248937 
L 108.776771 158.400691 
L 110.808401 135.550786 
L 111.621054 130.238376 
L 112.433706 126.434354 
L 112.840032 125.246234 
L 113.246358 124.570291 
L 113.652684 124.412255 
L 114.05901 124.759446 
L 114.465336 125.574537 
L 114.871662 126.814533 
L 115.684314 130.344576 
L 117.715945 140.460193 
L 118.934923 143.519924 
L 119.747575 145.081306 
L 120.560228 146.143638 
L 120.966554 146.467937 
L 121.37288 146.632289 
L 121.779206 146.615028 
L 122.185532 146.402764 
L 122.591858 145.916882 
L 123.40451 144.393085 
L 124.623488 140.784492 
L 126.248793 135.972491 
L 127.061445 134.206143 
L 127.467771 133.594365 
L 127.874097 133.186718 
L 128.280423 132.987421 
L 128.686749 132.994891 
L 129.093075 133.202129 
L 129.499402 133.592641 
L 130.312054 134.849994 
L 131.531032 137.476035 
L 133.156336 140.97159 
L 133.968989 142.247964 
L 134.781641 142.937481 
L 135.187967 143.087104 
L 135.594293 143.051534 
L 136.000619 142.856301 
L 136.813271 142.119522 
L 137.625923 140.986964 
L 140.470206 136.488946 
L 141.282858 135.798609 
L 142.09551 135.558975 
L 142.908162 135.819888 
L 143.720815 136.403183 
L 144.939793 137.749459 
L 146.158771 139.315784 
L 147.377749 140.543784 
L 148.190402 140.974249 
L 149.003054 141.097756 
L 149.815706 140.926346 
L 150.628358 140.478825 
L 151.847336 139.452501 
L 153.472641 137.956849 
L 154.691619 137.093913 
L 155.504271 136.829937 
L 156.316923 136.819266 
L 157.129576 137.069799 
L 157.942228 137.558617 
L 159.161206 138.578224 
L 161.192837 140.274194 
L 162.005489 140.610291 
L 162.818141 140.704037 
L 163.630793 140.519651 
L 164.849771 139.818495 
L 168.10038 137.275392 
L 168.913032 136.964996 
L 169.725684 136.895642 
L 170.538337 137.111463 
L 171.757315 137.86104 
L 175.007924 140.397813 
L 175.820576 140.6222 
L 176.633228 140.631607 
L 177.039554 140.510967 
L 179.071184 139.137002 
L 181.102815 137.489116 
L 182.321793 136.996453 
L 183.134445 136.963018 
L 183.947098 137.180634 
L 184.75975 137.620492 
L 186.79138 139.249604 
L 188.010358 140.124911 
L 188.823011 140.509807 
L 189.635663 140.612203 
L 190.448315 140.439691 
L 191.260967 140.1138 
L 192.479945 139.191199 
L 194.511576 137.514778 
L 195.324228 137.090894 
L 196.13688 136.908594 
L 196.949532 136.988792 
L 197.762185 137.352409 
L 198.981163 138.197959 
L 201.419119 140.131631 
L 202.231772 140.514608 
L 203.044424 140.645665 
L 203.857076 140.513422 
L 204.669728 140.1199 
L 205.888706 139.193849 
L 207.920337 137.539823 
L 208.732989 137.10664 
L 209.545641 136.901857 
L 210.358293 137.004611 
L 211.170946 137.324446 
L 212.79625 138.529381 
L 214.82788 140.083276 
L 215.640532 140.449141 
L 216.453185 140.588909 
L 216.859511 140.557045 
L 218.891141 139.587919 
L 221.735424 137.393794 
L 222.548076 137.082048 
L 223.360728 136.986636 
L 224.17338 137.146895 
L 224.986033 137.543232 
L 226.205011 138.435088 
L 228.236641 140.031691 
L 229.049293 140.417327 
L 229.861946 140.577174 
L 230.674598 140.484669 
L 231.48725 140.127869 
L 232.706228 139.271221 
L 234.737859 137.650046 
L 235.956837 137.131498 
L 236.769489 137.03292 
L 237.582141 137.16984 
L 238.394793 137.529647 
L 239.613772 138.385889 
L 241.645402 139.922266 
L 242.458054 140.324712 
L 243.270707 140.488463 
L 244.083359 140.413899 
L 244.896011 140.109107 
L 245.708663 139.634176 
L 248.959272 137.342889 
L 249.771924 137.103423 
L 250.584576 137.096042 
L 251.397228 137.330362 
L 252.209881 137.765396 
L 253.835185 138.989601 
L 255.460489 140.128623 
L 256.273141 140.443425 
L 257.085794 140.489042 
L 257.898446 140.318506 
L 258.711098 139.889764 
L 259.930076 139.003214 
L 261.555381 137.733634 
L 262.368033 137.298119 
L 263.180685 137.081466 
L 263.993337 137.073957 
L 264.805989 137.378461 
L 266.024968 138.087291 
L 268.86925 140.103557 
L 269.681902 140.399682 
L 270.494555 140.448591 
L 271.307207 140.247639 
L 272.119859 139.835857 
L 273.745163 138.623675 
L 275.370468 137.501153 
L 276.18312 137.194841 
L 276.995772 137.11404 
L 277.808424 137.270139 
L 279.027402 137.871524 
L 282.278011 140.061491 
L 283.090663 140.333488 
L 283.903316 140.367088 
L 284.715968 140.181884 
L 285.934946 139.560319 
L 288.779229 137.628304 
L 289.591881 137.323603 
L 290.404533 137.212992 
L 291.217185 137.295315 
L 292.029837 137.583671 
L 293.248816 138.313909 
L 295.686772 139.915911 
L 296.499424 140.208807 
L 297.312076 140.293097 
L 298.124729 140.173204 
L 298.937381 139.844524 
L 300.156359 139.082105 
L 302.18799 137.711996 
L 303.000642 137.367308 
L 303.813294 137.227496 
L 304.625946 137.323363 
L 305.438598 137.597057 
L 306.657577 138.336015 
L 309.095533 139.870511 
L 309.908185 140.14658 
L 310.720837 140.224935 
L 311.53349 140.108826 
L 312.346142 139.842207 
L 313.56512 139.093846 
L 315.59675 137.786037 
L 316.815729 137.345452 
L 317.628381 137.278847 
L 318.441033 137.424173 
L 319.660011 137.998659 
L 322.91062 139.914813 
L 323.723272 140.120129 
L 324.535924 140.128151 
L 325.348577 139.948539 
L 326.567555 139.373843 
L 329.411838 137.699844 
L 330.22449 137.439216 
L 331.037142 137.358062 
L 331.849794 137.47948 
L 333.068772 137.992649 
L 336.725707 140.041477 
L 337.538359 140.16667 
L 338.351011 140.090497 
L 339.56999 139.613279 
L 340.788968 138.862079 
L 342.414272 137.849658 
L 343.226925 137.496139 
L 344.039577 137.348252 
L 344.852229 137.41943 
L 345.664881 137.647394 
L 346.883859 138.264191 
L 349.321816 139.712128 
L 350.134468 140.007414 
L 350.94712 140.124957 
L 351.759772 140.046394 
L 352.572425 139.763918 
L 353.791403 139.090577 
L 355.823033 137.820405 
L 357.042012 137.394467 
L 357.854664 137.366837 
L 358.667316 137.498878 
L 359.886294 138.047006 
L 363.136903 139.939592 
L 363.949555 140.14339 
L 364.762207 140.153268 
L 365.574859 139.955784 
L 366.387512 139.585677 
L 368.419142 138.295618 
L 369.63812 137.639107 
L 370.450773 137.383605 
L 371.263425 137.337122 
L 372.076077 137.50207 
L 373.295055 138.069387 
L 376.545664 139.989441 
L 377.358316 140.187667 
L 378.170968 140.20336 
L 378.98362 139.985365 
L 379.796273 139.596906 
L 383.453207 137.470088 
L 384.26586 137.336823 
L 385.078512 137.395741 
L 385.891164 137.649901 
L 387.110142 138.305532 
L 389.548099 139.854265 
L 390.360751 140.142212 
L 391.173403 140.236627 
L 391.986055 140.123743 
L 392.798707 139.830748 
L 394.017686 139.120529 
L 396.455642 137.571062 
L 397.268294 137.311535 
L 398.080947 137.304258 
L 398.487273 137.381617 
L 398.487273 137.381617 
" style="fill:none;stroke:#2ca02c;stroke-linecap:square;stroke-width:1.5;"/>
   </g>
   <g id="line2d_18">
    <path clip-path="url(#p3aed3a62bb)" d="M 73.832727 60.013912 
L 74.239053 61.498523 
L 74.645379 63.558529 
L 75.458032 69.588752 
L 76.270684 77.879525 
L 77.083336 88.192515 
L 78.302314 106.783722 
L 79.521293 127.683814 
L 80.333945 135.358931 
L 80.740271 137.841658 
L 81.146597 139.345267 
L 81.552923 140.125773 
L 82.365575 140.704136 
L 83.178227 140.719464 
L 86.428836 140.15127 
L 90.085771 140.89698 
L 90.898423 140.878918 
L 94.555358 140.541962 
L 95.774336 140.431433 
L 100.243923 139.783487 
L 102.68188 139.875453 
L 103.088206 140.032899 
L 105.526162 139.832482 
L 110.402075 139.116683 
L 112.02738 139.199165 
L 118.934923 139.225169 
L 120.560228 139.156075 
L 123.40451 139.205473 
L 125.029815 139.117112 
L 126.655119 139.228357 
L 127.874097 139.184786 
L 130.312054 139.131569 
L 132.75001 139.292769 
L 133.968989 139.245674 
L 134.781641 139.356248 
L 135.594293 139.227978 
L 136.406945 139.262792 
L 138.032249 139.107805 
L 142.09551 139.067395 
L 155.910597 139.170707 
L 156.72325 139.287182 
L 157.942228 139.290366 
L 159.973858 139.024752 
L 161.192837 139.057056 
L 164.849771 139.062886 
L 166.475076 139.129904 
L 167.287728 138.997742 
L 167.694054 139.084343 
L 169.319358 138.927052 
L 173.788945 138.871774 
L 177.852206 138.97396 
L 181.102815 139.228079 
L 183.134445 138.893601 
L 189.635663 138.826251 
L 191.667293 138.843983 
L 196.949532 138.901798 
L 197.762185 139.189384 
L 198.168511 139.233493 
L 198.981163 139.140396 
L 199.793815 139.154697 
L 201.419119 138.906498 
L 202.638098 139.077616 
L 203.45075 139.034242 
L 204.669728 138.893727 
L 205.48238 139.017555 
L 207.107685 138.879661 
L 209.545641 138.983033 
L 210.764619 138.790393 
L 212.79625 139.050676 
L 214.015228 139.022129 
L 216.046859 139.089776 
L 217.265837 138.822222 
L 222.14175 138.874621 
L 224.17338 138.658927 
L 224.986033 138.618838 
L 225.798685 138.773301 
L 226.611337 138.801947 
L 229.049293 138.908675 
L 229.861946 138.839128 
L 230.674598 138.941384 
L 232.706228 138.808668 
L 233.51888 138.748036 
L 233.925207 138.733573 
L 234.331533 138.834511 
L 235.956837 138.730781 
L 236.769489 138.740979 
L 238.394793 138.667722 
L 239.207446 138.745903 
L 243.677033 138.77925 
L 244.489685 138.791375 
L 246.114989 138.801805 
L 248.14662 139.031032 
L 248.959272 139.112566 
L 249.365598 139.015882 
L 249.771924 139.072213 
L 251.803554 138.833336 
L 253.022533 138.947915 
L 255.866815 139.179522 
L 256.679468 138.999447 
L 258.711098 138.928561 
L 259.930076 139.041236 
L 261.149054 138.962916 
L 261.555381 138.948885 
L 262.368033 139.154822 
L 263.180685 139.265358 
L 263.993337 139.002365 
L 265.618641 139.128773 
L 266.024968 139.066659 
L 267.243946 139.149436 
L 268.056598 139.086258 
L 268.462924 139.030544 
L 269.681902 139.198056 
L 271.307207 139.03269 
L 272.119859 139.153595 
L 276.18312 139.064019 
L 276.995772 138.946644 
L 278.621076 138.967464 
L 279.027402 138.951643 
L 279.433729 139.097757 
L 294.467794 139.300631 
L 300.562685 139.409353 
L 306.25125 139.509741 
L 313.158794 139.649737 
L 317.222055 139.668606 
L 321.285316 139.779796 
L 322.91062 139.80458 
L 327.786533 139.856403 
L 328.599185 139.838064 
L 329.818164 139.838395 
L 332.25612 139.848627 
L 333.068772 139.899291 
L 339.56999 140.005962 
L 339.976316 139.929409 
L 340.788968 139.980123 
L 351.353446 140.015808 
L 352.166099 139.994023 
L 355.416707 139.955795 
L 356.229359 139.844229 
L 357.042012 139.982133 
L 357.448338 139.868014 
L 357.854664 139.898825 
L 358.26099 139.771878 
L 358.667316 139.844694 
L 359.073642 139.714191 
L 365.981186 139.598908 
L 366.387512 139.760564 
L 367.200164 139.72455 
L 367.60649 139.579368 
L 368.419142 139.624217 
L 371.263425 138.829605 
L 371.669751 138.488785 
L 372.482403 138.235538 
L 373.295055 138.074812 
L 374.107707 138.012738 
L 374.514033 137.909043 
L 375.733012 138.303597 
L 376.139338 138.322609 
L 376.95199 138.57285 
L 377.358316 138.679307 
L 377.764642 138.581163 
L 378.98362 138.892924 
L 379.796273 138.820825 
L 381.015251 139.117813 
L 382.640555 138.890703 
L 383.046881 139.058023 
L 383.859534 139.01854 
L 384.672186 138.96184 
L 385.078512 138.907659 
L 385.891164 139.074832 
L 386.29749 139.056611 
L 386.703816 139.183646 
L 387.110142 139.190359 
L 387.516468 139.06194 
L 387.922794 139.05149 
L 388.735447 138.36929 
L 389.141773 137.934768 
L 389.954425 137.558948 
L 390.360751 137.527797 
L 390.767077 137.350218 
L 392.798707 137.907425 
L 394.017686 138.565541 
L 394.830338 139.146749 
L 396.049316 139.776019 
L 396.861968 139.851817 
L 397.268294 139.806769 
L 398.080947 139.439501 
L 398.487273 139.256173 
L 398.487273 139.256173 
" style="fill:none;stroke:#d62728;stroke-linecap:square;stroke-width:1.5;"/>
   </g>
   <g id="line2d_19">
    <path clip-path="url(#p3aed3a62bb)" d="M 73.832727 130.579924 
L 74.239053 130.841029 
L 75.051706 130.940623 
L 75.864358 131.367781 
L 76.270684 132.789702 
L 77.083336 133.668407 
L 77.895988 134.836336 
L 79.114966 137.09196 
L 82.365575 143.757976 
L 83.178227 144.786172 
L 83.584553 144.99902 
L 83.99088 145.021216 
L 84.397206 144.853405 
L 84.803532 144.479232 
L 85.616184 143.206247 
L 86.835162 140.469422 
L 88.460466 136.463067 
L 89.273119 134.959395 
L 90.085771 134.007534 
L 90.492097 133.775417 
L 90.898423 133.706565 
L 91.304749 133.805188 
L 91.711075 134.048525 
L 92.523727 134.941258 
L 93.742706 136.992163 
L 95.36801 139.977631 
L 96.180662 141.138998 
L 96.993314 141.885371 
L 97.39964 142.080094 
L 98.212293 142.079119 
L 99.024945 141.699301 
L 99.837597 140.990233 
L 101.462901 139.087967 
L 102.68188 137.755476 
L 103.494532 137.175175 
L 104.307184 136.875826 
L 105.119836 136.899051 
L 105.932488 137.191617 
L 107.151467 138.022263 
L 109.183097 139.595271 
L 109.995749 140.018114 
L 110.808401 140.236025 
L 111.621054 140.284261 
L 112.433706 140.047068 
L 113.652684 139.387032 
L 116.090641 137.822433 
L 117.309619 137.38892 
L 118.122271 137.390455 
L 119.341249 137.613732 
L 120.560228 138.120975 
L 123.40451 139.402038 
L 124.623488 139.650788 
L 125.842467 139.626937 
L 127.061445 139.39256 
L 130.71838 138.440469 
L 131.937358 138.379931 
L 133.156336 138.492475 
L 134.781641 138.880617 
L 137.625923 139.2853 
L 139.251228 139.108436 
L 143.720815 138.188044 
L 144.939793 138.082965 
L 145.752445 138.209567 
L 147.784076 138.519531 
L 152.253663 139.267634 
L 153.472641 139.264888 
L 154.691619 139.127916 
L 156.72325 138.933 
L 159.973858 138.576171 
L 160.78651 138.571058 
L 161.599163 138.632903 
L 163.224467 138.695075 
L 168.10038 138.854525 
L 171.350989 138.510625 
L 172.163641 138.399401 
L 173.788945 138.44057 
L 175.007924 138.531237 
L 179.883837 139.136749 
L 186.79138 138.863394 
L 189.635663 138.898099 
L 193.292598 138.62398 
L 196.543206 138.311194 
L 198.168511 138.340815 
L 201.012793 138.697395 
L 205.48238 139.327719 
L 206.295032 139.314974 
L 208.326663 139.014963 
L 211.983598 138.533788 
L 214.82788 138.560554 
L 220.110119 138.936234 
L 222.548076 138.742214 
L 224.986033 138.493961 
L 227.017663 138.434617 
L 229.45562 138.734147 
L 231.893576 139.063729 
L 233.51888 139.129382 
L 236.769489 139.09553 
L 240.426424 138.583543 
L 242.458054 138.536108 
L 243.270707 138.648685 
L 247.740294 138.651896 
L 248.959272 138.521702 
L 250.584576 138.518571 
L 254.241511 138.619806 
L 258.304772 139.255202 
L 260.336402 139.350631 
L 266.431294 138.400789 
L 268.86925 138.379441 
L 270.900881 138.687899 
L 272.932511 138.89784 
L 274.964142 138.910483 
L 277.402098 138.740761 
L 278.621076 138.508942 
L 280.652707 138.51863 
L 283.090663 138.810255 
L 285.52862 139.107818 
L 286.747598 139.189041 
L 288.779229 138.895525 
L 289.998207 138.735996 
L 292.029837 138.715836 
L 296.90575 138.76498 
L 304.21962 138.525076 
L 308.689207 138.970611 
L 310.314511 139.005243 
L 311.127163 139.038309 
L 312.346142 139.057443 
L 314.377772 139.199357 
L 316.409403 139.026954 
L 322.097968 138.227754 
L 323.723272 138.290364 
L 325.348577 138.590013 
L 328.192859 139.210641 
L 329.818164 139.279281 
L 331.443468 139.057162 
L 334.694077 138.394101 
L 336.319381 138.389672 
L 337.944685 138.624913 
L 341.60162 139.297383 
L 343.226925 139.304108 
L 345.258555 138.92823 
L 348.509164 138.201801 
L 349.728142 138.111887 
L 351.759772 138.338772 
L 357.854664 139.194129 
L 360.29262 139.028417 
L 364.355881 138.650904 
L 372.076077 138.750476 
L 378.170968 138.629372 
L 388.32912 138.853668 
L 390.767077 138.636599 
L 392.392381 138.67595 
L 395.64299 139.178564 
L 397.674621 138.993931 
L 398.487273 138.928209 
L 398.487273 138.928209 
" style="fill:none;stroke:#9467bd;stroke-linecap:square;stroke-width:1.5;"/>
   </g>
   <g id="line2d_20">
    <path clip-path="url(#p3aed3a62bb)" d="M 73.832727 126.82239 
L 74.239053 130.984178 
L 75.051706 134.677805 
L 75.458032 134.917479 
L 75.864358 134.984843 
L 76.270684 136.216956 
L 77.083336 136.691669 
L 77.895988 137.418953 
L 79.114966 138.976199 
L 81.146597 141.985274 
L 81.959249 142.695113 
L 82.365575 142.852539 
L 82.771901 142.856303 
L 83.584553 142.477915 
L 84.397206 141.679846 
L 85.616184 139.940768 
L 87.647814 136.901375 
L 88.460466 136.076801 
L 89.273119 135.627696 
L 90.085771 135.596476 
L 90.898423 135.939725 
L 91.711075 136.57761 
L 93.33638 138.334352 
L 94.555358 139.591474 
L 95.36801 140.19103 
L 96.180662 140.552444 
L 96.993314 140.63555 
L 97.805967 140.511573 
L 99.024945 139.908694 
L 102.275554 137.997448 
L 103.088206 137.835982 
L 103.900858 137.861958 
L 105.119836 138.170824 
L 108.776771 139.621925 
L 109.995749 139.692501 
L 111.214728 139.474117 
L 113.246358 138.672449 
L 114.871662 138.073363 
L 116.090641 137.844295 
L 117.309619 137.849583 
L 118.528597 138.080755 
L 122.998184 139.282234 
L 124.217162 139.315247 
L 125.842467 139.120501 
L 129.093075 138.59634 
L 130.71838 138.59991 
L 132.75001 138.840728 
L 135.187967 139.127368 
L 136.406945 139.152877 
L 139.657554 138.746387 
L 143.720815 138.154561 
L 146.971423 138.50904 
L 151.44101 139.213866 
L 153.472641 139.213826 
L 154.691619 139.122857 
L 155.910597 138.977214 
L 158.75488 138.639704 
L 160.78651 138.619791 
L 164.037119 138.847818 
L 166.06875 138.856413 
L 168.913032 138.627213 
L 172.163641 138.364649 
L 173.788945 138.498408 
L 177.852206 139.102244 
L 179.883837 139.121083 
L 182.728119 138.872011 
L 184.75975 138.726183 
L 186.79138 138.740059 
L 191.667293 138.916643 
L 194.10525 138.678457 
L 196.949532 138.240814 
L 198.574837 138.215543 
L 200.200141 138.41361 
L 203.044424 139.091932 
L 203.857076 139.320022 
L 205.48238 139.482763 
L 206.701359 139.427763 
L 208.732989 139.059211 
L 211.170946 138.513384 
L 213.608902 138.335481 
L 215.234206 138.474424 
L 218.484815 138.835781 
L 220.516446 138.974209 
L 222.548076 138.797485 
L 226.611337 138.411915 
L 228.236641 138.507859 
L 229.861946 138.83094 
L 232.299902 139.174668 
L 234.331533 139.213398 
L 237.175815 138.884101 
L 239.207446 138.619114 
L 241.239076 138.592282 
L 246.927641 138.716516 
L 251.803554 138.375029 
L 253.428859 138.554749 
L 258.304772 139.448889 
L 259.930076 139.330695 
L 261.961707 138.893107 
L 263.993337 138.36286 
L 265.212315 138.321781 
L 266.83762 138.350205 
L 272.526185 138.996719 
L 274.964142 138.723955 
L 276.995772 138.53056 
L 278.621076 138.538641 
L 281.059033 138.694016 
L 285.934946 139.177772 
L 289.185555 138.988121 
L 293.248816 138.425711 
L 295.280446 138.499664 
L 299.750033 138.856935 
L 302.18799 138.728893 
L 305.032272 138.553541 
L 306.25125 138.620131 
L 312.346142 139.276811 
L 314.377772 139.021633 
L 317.628381 138.350488 
L 319.660011 138.335568 
L 321.285316 138.525107 
L 324.942251 139.027586 
L 326.567555 139.030287 
L 329.005511 138.760061 
L 331.443468 138.492421 
L 333.068772 138.501028 
L 335.100403 138.748612 
L 338.351011 139.196601 
L 339.976316 139.187599 
L 342.007946 138.940972 
L 345.664881 138.433212 
L 347.696512 138.450358 
L 354.197729 138.809829 
L 357.042012 138.6825 
L 359.886294 138.774345 
L 365.981186 139.147123 
L 368.012816 138.838967 
L 371.263425 138.289496 
L 373.295055 138.295983 
L 375.326686 138.605046 
L 379.389947 139.161128 
L 381.421577 139.009512 
L 385.891164 138.41694 
L 387.516468 138.560559 
L 392.798707 139.305157 
L 394.424012 139.190233 
L 396.049316 138.792322 
L 397.674621 138.364317 
L 398.487273 138.255184 
L 398.487273 138.255184 
" style="fill:none;stroke:#8c564b;stroke-linecap:square;stroke-width:1.5;"/>
   </g>
   <g id="line2d_21">
    <path clip-path="url(#p3aed3a62bb)" d="M 73.832727 97.840609 
L 75.051706 109.081508 
L 75.864358 118.050091 
L 76.270684 120.384787 
L 77.083336 119.465365 
L 77.489662 119.195989 
L 77.895988 119.079035 
L 78.302314 119.112197 
L 78.70864 119.300814 
L 79.114966 119.622349 
L 79.927619 120.665443 
L 80.740271 122.16459 
L 81.959249 125.022714 
L 83.99088 130.110359 
L 84.803532 131.629223 
L 85.616184 132.614311 
L 86.02251 132.884968 
L 86.428836 133.017613 
L 86.835162 132.991102 
L 87.241488 132.827792 
L 88.05414 132.156454 
L 89.273119 130.58054 
L 90.898423 128.407691 
L 91.711075 127.666427 
L 92.523727 127.313738 
L 93.33638 127.386917 
L 94.149032 127.864073 
L 94.961684 128.677302 
L 96.586988 130.786288 
L 97.805967 132.262929 
L 98.618619 133.020639 
L 99.431271 133.474822 
L 100.243923 133.652372 
L 101.056575 133.554841 
L 101.869227 133.21928 
L 103.494532 132.212371 
L 104.71351 131.516438 
L 105.526162 131.225822 
L 106.338814 131.134526 
L 107.151467 131.258125 
L 107.964119 131.577548 
L 109.183097 132.344565 
L 110.808401 133.495102 
L 112.433706 134.282819 
L 113.652684 134.579567 
L 115.684314 134.776727 
L 120.560228 134.86124 
L 123.810836 135.319686 
L 125.029815 135.347532 
L 126.655119 135.188746 
L 129.905728 134.907641 
L 132.75001 134.894684 
L 137.219597 135.178178 
L 142.09551 135.385233 
L 144.939793 135.385662 
L 146.971423 135.424413 
L 149.815706 135.371968 
L 156.316923 135.071915 
L 159.973858 134.920735 
L 162.411815 134.986965 
L 167.287728 135.394839 
L 170.944663 135.679612 
L 172.976293 135.650386 
L 175.41425 135.339648 
L 178.258532 134.990834 
L 180.696489 134.836027 
L 184.353424 134.968504 
L 191.667293 135.428409 
L 206.701359 135.24306 
L 213.608902 134.821551 
L 216.046859 135.004589 
L 222.954402 135.804854 
L 225.392359 135.649852 
L 233.112554 134.647617 
L 235.144185 134.744458 
L 237.988467 135.155835 
L 240.83275 135.530585 
L 243.270707 135.621577 
L 246.114989 135.436424 
L 250.17825 135.123555 
L 251.803554 135.136371 
L 261.555381 135.122381 
L 266.024968 135.021305 
L 269.275576 135.170008 
L 275.776794 135.62562 
L 277.808424 135.505368 
L 283.090663 134.927325 
L 285.934946 134.821918 
L 289.998207 135.021026 
L 292.436163 135.343201 
L 295.280446 135.622902 
L 297.718403 135.616955 
L 300.969011 135.301406 
L 304.625946 134.974346 
L 307.470229 134.978686 
L 314.377772 135.306317 
L 318.034707 135.175475 
L 329.005511 135.331668 
L 336.319381 134.973401 
L 339.56999 135.134379 
L 345.258555 135.440717 
L 348.91549 135.351111 
L 355.010381 135.12902 
L 371.669751 135.248845 
L 376.95199 135.491766 
L 379.796273 135.377686 
L 386.703816 134.905203 
L 389.954425 135.052855 
L 396.455642 135.534202 
L 398.487273 135.484043 
L 398.487273 135.484043 
" style="fill:none;stroke:#e377c2;stroke-linecap:square;stroke-width:1.5;"/>
   </g>
   <g id="line2d_22">
    <path clip-path="url(#p3aed3a62bb)" d="M 73.832727 99.67237 
L 74.645379 106.501194 
L 75.864358 119.320621 
L 76.270684 119.110857 
L 77.083336 118.271635 
L 77.489662 118.082146 
L 77.895988 118.045309 
L 78.302314 118.164411 
L 78.70864 118.423553 
L 79.521293 119.377975 
L 80.333945 120.817333 
L 81.552923 123.596738 
L 84.397206 130.615587 
L 85.209858 131.959001 
L 86.02251 132.735904 
L 86.428836 132.907585 
L 86.835162 132.940822 
L 87.241488 132.844725 
L 88.05414 132.31788 
L 89.273119 130.984708 
L 90.898423 129.11042 
L 91.711075 128.491106 
L 92.523727 128.211877 
L 93.33638 128.320421 
L 94.149032 128.789809 
L 94.961684 129.541403 
L 97.805967 132.628981 
L 98.618619 133.155784 
L 99.431271 133.417176 
L 100.243923 133.36345 
L 101.056575 133.036683 
L 102.275554 132.215627 
L 104.307184 130.730559 
L 105.119836 130.365643 
L 105.932488 130.228734 
L 106.745141 130.34936 
L 107.557793 130.717551 
L 108.776771 131.657043 
L 111.214728 133.859275 
L 112.433706 134.648123 
L 113.652684 135.106499 
L 114.871662 135.355682 
L 116.496967 135.401614 
L 120.560228 135.235986 
L 124.217162 135.296872 
L 126.655119 134.926598 
L 129.499402 134.526106 
L 131.531032 134.434463 
L 133.968989 134.554688 
L 136.406945 134.896523 
L 140.06388 135.57278 
L 143.720815 136.054145 
L 146.158771 135.940634 
L 149.003054 135.515007 
L 154.691619 134.568493 
L 156.72325 134.431119 
L 159.161206 134.544513 
L 162.005489 134.944957 
L 168.10038 135.973222 
L 170.538337 136.018416 
L 177.039554 135.144298 
L 181.915467 134.443573 
L 184.353424 134.462291 
L 186.79138 134.751011 
L 190.854641 135.480753 
L 193.698924 135.963556 
L 195.324228 136.082463 
L 197.355858 136.049939 
L 200.200141 135.664997 
L 207.514011 134.350871 
L 209.545641 134.360438 
L 211.577272 134.544885 
L 214.015228 135.007769 
L 218.078489 135.77903 
L 221.735424 136.055746 
L 224.17338 135.893337 
L 227.017663 135.417419 
L 232.299902 134.545347 
L 234.737859 134.451218 
L 237.175815 134.599519 
L 239.613772 134.952517 
L 245.708663 135.981837 
L 247.740294 136.073641 
L 249.771924 135.935338 
L 252.209881 135.488574 
L 255.054163 134.934288 
L 260.336402 134.482599 
L 262.774359 134.64674 
L 265.618641 135.067805 
L 270.900881 135.86931 
L 273.338837 135.933282 
L 275.776794 135.761643 
L 279.433729 135.245632 
L 283.090663 134.706171 
L 285.52862 134.543526 
L 288.372902 134.650585 
L 296.499424 135.742122 
L 299.343707 135.831205 
L 301.781663 135.68748 
L 305.844924 135.145318 
L 310.720837 134.601224 
L 311.939816 134.624707 
L 313.56512 134.718709 
L 314.784098 134.875389 
L 318.034707 135.413451 
L 321.691642 135.667765 
L 324.535924 135.612632 
L 328.599185 135.27474 
L 333.881425 134.844163 
L 336.725707 134.83695 
L 340.382642 135.054349 
L 348.91549 135.655167 
L 351.759772 135.559348 
L 356.229359 135.108101 
L 360.29262 134.76318 
L 362.730577 134.747553 
L 365.574859 134.97087 
L 372.888729 135.687791 
L 375.733012 135.671394 
L 378.98362 135.41677 
L 385.484838 134.823315 
L 388.32912 134.790024 
L 391.986055 135.051286 
L 398.080947 135.562028 
L 398.487273 135.575255 
L 398.487273 135.575255 
" style="fill:none;stroke:#7f7f7f;stroke-linecap:square;stroke-width:1.5;"/>
   </g>
   <g id="patch_3">
    <path d="M 57.6 307.584 
L 57.6 41.472 
" style="fill:none;stroke:#000000;stroke-linecap:square;stroke-linejoin:miter;stroke-width:0.8;"/>
   </g>
   <g id="patch_4">
    <path d="M 414.72 307.584 
L 414.72 41.472 
" style="fill:none;stroke:#000000;stroke-linecap:square;stroke-linejoin:miter;stroke-width:0.8;"/>
   </g>
   <g id="patch_5">
    <path d="M 57.6 307.584 
L 414.72 307.584 
" style="fill:none;stroke:#000000;stroke-linecap:square;stroke-linejoin:miter;stroke-width:0.8;"/>
   </g>
   <g id="patch_6">
    <path d="M 57.6 41.472 
L 414.72 41.472 
" style="fill:none;stroke:#000000;stroke-linecap:square;stroke-linejoin:miter;stroke-width:0.8;"/>
   </g>
   <g id="legend_1">
    <g id="patch_7">
     <path d="M 353.190313 302.584 
L 407.72 302.584 
Q 409.72 302.584 409.72 300.584 
L 409.72 184.159 
Q 409.72 182.159 407.72 182.159 
L 353.190313 182.159 
Q 351.190313 182.159 351.190313 184.159 
L 351.190313 300.584 
Q 351.190313 302.584 353.190313 302.584 
z
" style="fill:#ffffff;opacity:0.8;stroke:#cccccc;stroke-linejoin:miter;"/>
    </g>
    <g id="line2d_23">
     <path d="M 355.190313 190.257437 
L 375.190313 190.257437 
" style="fill:none;stroke:#1f77b4;stroke-linecap:square;stroke-width:1.5;"/>
    </g>
    <g id="line2d_24"/>
    <g id="text_15">
     <!-- diff0 -->
     <defs>
      <path d="M 45.40625 46.390625 
L 45.40625 75.984375 
L 54.390625 75.984375 
L 54.390625 0 
L 45.40625 0 
L 45.40625 8.203125 
Q 42.578125 3.328125 38.25 0.953125 
Q 33.9375 -1.421875 27.875 -1.421875 
Q 17.96875 -1.421875 11.734375 6.484375 
Q 5.515625 14.40625 5.515625 27.296875 
Q 5.515625 40.1875 11.734375 48.09375 
Q 17.96875 56 27.875 56 
Q 33.9375 56 38.25 53.625 
Q 42.578125 51.265625 45.40625 46.390625 
z
M 14.796875 27.296875 
Q 14.796875 17.390625 18.875 11.75 
Q 22.953125 6.109375 30.078125 6.109375 
Q 37.203125 6.109375 41.296875 11.75 
Q 45.40625 17.390625 45.40625 27.296875 
Q 45.40625 37.203125 41.296875 42.84375 
Q 37.203125 48.484375 30.078125 48.484375 
Q 22.953125 48.484375 18.875 42.84375 
Q 14.796875 37.203125 14.796875 27.296875 
z
" id="DejaVuSans-100"/>
      <path d="M 9.421875 54.6875 
L 18.40625 54.6875 
L 18.40625 0 
L 9.421875 0 
z
M 9.421875 75.984375 
L 18.40625 75.984375 
L 18.40625 64.59375 
L 9.421875 64.59375 
z
" id="DejaVuSans-105"/>
      <path d="M 37.109375 75.984375 
L 37.109375 68.5 
L 28.515625 68.5 
Q 23.6875 68.5 21.796875 66.546875 
Q 19.921875 64.59375 19.921875 59.515625 
L 19.921875 54.6875 
L 34.71875 54.6875 
L 34.71875 47.703125 
L 19.921875 47.703125 
L 19.921875 0 
L 10.890625 0 
L 10.890625 47.703125 
L 2.296875 47.703125 
L 2.296875 54.6875 
L 10.890625 54.6875 
L 10.890625 58.5 
Q 10.890625 67.625 15.140625 71.796875 
Q 19.390625 75.984375 28.609375 75.984375 
z
" id="DejaVuSans-102"/>
     </defs>
     <g transform="translate(383.190313 193.757437)scale(0.1 -0.1)">
      <use xlink:href="#DejaVuSans-100"/>
      <use x="63.476562" xlink:href="#DejaVuSans-105"/>
      <use x="91.259766" xlink:href="#DejaVuSans-102"/>
      <use x="126.464844" xlink:href="#DejaVuSans-102"/>
      <use x="161.669922" xlink:href="#DejaVuSans-48"/>
     </g>
    </g>
    <g id="line2d_25">
     <path d="M 355.190313 204.935563 
L 375.190313 204.935563 
" style="fill:none;stroke:#ff7f0e;stroke-linecap:square;stroke-width:1.5;"/>
    </g>
    <g id="line2d_26"/>
    <g id="text_16">
     <!-- diff1 -->
     <g transform="translate(383.190313 208.435563)scale(0.1 -0.1)">
      <use xlink:href="#DejaVuSans-100"/>
      <use x="63.476562" xlink:href="#DejaVuSans-105"/>
      <use x="91.259766" xlink:href="#DejaVuSans-102"/>
      <use x="126.464844" xlink:href="#DejaVuSans-102"/>
      <use x="161.669922" xlink:href="#DejaVuSans-49"/>
     </g>
    </g>
    <g id="line2d_27">
     <path d="M 355.190313 219.613687 
L 375.190313 219.613687 
" style="fill:none;stroke:#2ca02c;stroke-linecap:square;stroke-width:1.5;"/>
    </g>
    <g id="line2d_28"/>
    <g id="text_17">
     <!-- diff2 -->
     <g transform="translate(383.190313 223.113687)scale(0.1 -0.1)">
      <use xlink:href="#DejaVuSans-100"/>
      <use x="63.476562" xlink:href="#DejaVuSans-105"/>
      <use x="91.259766" xlink:href="#DejaVuSans-102"/>
      <use x="126.464844" xlink:href="#DejaVuSans-102"/>
      <use x="161.669922" xlink:href="#DejaVuSans-50"/>
     </g>
    </g>
    <g id="line2d_29">
     <path d="M 355.190313 234.291812 
L 375.190313 234.291812 
" style="fill:none;stroke:#d62728;stroke-linecap:square;stroke-width:1.5;"/>
    </g>
    <g id="line2d_30"/>
    <g id="text_18">
     <!-- diff3 -->
     <g transform="translate(383.190313 237.791812)scale(0.1 -0.1)">
      <use xlink:href="#DejaVuSans-100"/>
      <use x="63.476562" xlink:href="#DejaVuSans-105"/>
      <use x="91.259766" xlink:href="#DejaVuSans-102"/>
      <use x="126.464844" xlink:href="#DejaVuSans-102"/>
      <use x="161.669922" xlink:href="#DejaVuSans-51"/>
     </g>
    </g>
    <g id="line2d_31">
     <path d="M 355.190313 248.969937 
L 375.190313 248.969937 
" style="fill:none;stroke:#9467bd;stroke-linecap:square;stroke-width:1.5;"/>
    </g>
    <g id="line2d_32"/>
    <g id="text_19">
     <!-- diff4 -->
     <g transform="translate(383.190313 252.469937)scale(0.1 -0.1)">
      <use xlink:href="#DejaVuSans-100"/>
      <use x="63.476562" xlink:href="#DejaVuSans-105"/>
      <use x="91.259766" xlink:href="#DejaVuSans-102"/>
      <use x="126.464844" xlink:href="#DejaVuSans-102"/>
      <use x="161.669922" xlink:href="#DejaVuSans-52"/>
     </g>
    </g>
    <g id="line2d_33">
     <path d="M 355.190313 263.648062 
L 375.190313 263.648062 
" style="fill:none;stroke:#8c564b;stroke-linecap:square;stroke-width:1.5;"/>
    </g>
    <g id="line2d_34"/>
    <g id="text_20">
     <!-- diff5 -->
     <g transform="translate(383.190313 267.148062)scale(0.1 -0.1)">
      <use xlink:href="#DejaVuSans-100"/>
      <use x="63.476562" xlink:href="#DejaVuSans-105"/>
      <use x="91.259766" xlink:href="#DejaVuSans-102"/>
      <use x="126.464844" xlink:href="#DejaVuSans-102"/>
      <use x="161.669922" xlink:href="#DejaVuSans-53"/>
     </g>
    </g>
    <g id="line2d_35">
     <path d="M 355.190313 278.326187 
L 375.190313 278.326187 
" style="fill:none;stroke:#e377c2;stroke-linecap:square;stroke-width:1.5;"/>
    </g>
    <g id="line2d_36"/>
    <g id="text_21">
     <!-- diff6 -->
     <g transform="translate(383.190313 281.826187)scale(0.1 -0.1)">
      <use xlink:href="#DejaVuSans-100"/>
      <use x="63.476562" xlink:href="#DejaVuSans-105"/>
      <use x="91.259766" xlink:href="#DejaVuSans-102"/>
      <use x="126.464844" xlink:href="#DejaVuSans-102"/>
      <use x="161.669922" xlink:href="#DejaVuSans-54"/>
     </g>
    </g>
    <g id="line2d_37">
     <path d="M 355.190313 293.004312 
L 375.190313 293.004312 
" style="fill:none;stroke:#7f7f7f;stroke-linecap:square;stroke-width:1.5;"/>
    </g>
    <g id="line2d_38"/>
    <g id="text_22">
     <!-- diff7 -->
     <g transform="translate(383.190313 296.504312)scale(0.1 -0.1)">
      <use xlink:href="#DejaVuSans-100"/>
      <use x="63.476562" xlink:href="#DejaVuSans-105"/>
      <use x="91.259766" xlink:href="#DejaVuSans-102"/>
      <use x="126.464844" xlink:href="#DejaVuSans-102"/>
      <use x="161.669922" xlink:href="#DejaVuSans-55"/>
     </g>
    </g>
   </g>
  </g>
 </g>
 <defs>
  <clipPath id="p3aed3a62bb">
   <rect height="266.112" width="357.12" x="57.6" y="41.472"/>
  </clipPath>
 </defs>
</svg>
