<?xml version="1.0" encoding="utf-8" standalone="no"?>
<!DOCTYPE svg PUBLIC "-//W3C//DTD SVG 1.1//EN"
  "http://www.w3.org/Graphics/SVG/1.1/DTD/svg11.dtd">
<!-- Created with matplotlib (https://matplotlib.org/) -->
<svg height="345.6pt" version="1.1" viewBox="0 0 460.8 345.6" width="460.8pt" xmlns="http://www.w3.org/2000/svg" xmlns:xlink="http://www.w3.org/1999/xlink">
 <defs>
  <style type="text/css">
*{stroke-linecap:butt;stroke-linejoin:round;}
  </style>
 </defs>
 <g id="figure_1">
  <g id="patch_1">
   <path d="M 0 345.6 
L 460.8 345.6 
L 460.8 0 
L 0 0 
z
" style="fill:#ffffff;"/>
  </g>
  <g id="axes_1">
   <g id="patch_2">
    <path d="M 57.6 307.584 
L 414.72 307.584 
L 414.72 41.472 
L 57.6 41.472 
z
" style="fill:#ffffff;"/>
   </g>
   <g id="matplotlib.axis_1">
    <g id="xtick_1">
     <g id="line2d_1">
      <defs>
       <path d="M 0 0 
L 0 3.5 
" id="m422812e0bc" style="stroke:#000000;stroke-width:0.8;"/>
      </defs>
      <g>
       <use style="stroke:#000000;stroke-width:0.8;" x="73.832727" xlink:href="#m422812e0bc" y="307.584"/>
      </g>
     </g>
     <g id="text_1">
      <!-- 0 -->
      <defs>
       <path d="M 31.78125 66.40625 
Q 24.171875 66.40625 20.328125 58.90625 
Q 16.5 51.421875 16.5 36.375 
Q 16.5 21.390625 20.328125 13.890625 
Q 24.171875 6.390625 31.78125 6.390625 
Q 39.453125 6.390625 43.28125 13.890625 
Q 47.125 21.390625 47.125 36.375 
Q 47.125 51.421875 43.28125 58.90625 
Q 39.453125 66.40625 31.78125 66.40625 
z
M 31.78125 74.21875 
Q 44.046875 74.21875 50.515625 64.515625 
Q 56.984375 54.828125 56.984375 36.375 
Q 56.984375 17.96875 50.515625 8.265625 
Q 44.046875 -1.421875 31.78125 -1.421875 
Q 19.53125 -1.421875 13.0625 8.265625 
Q 6.59375 17.96875 6.59375 36.375 
Q 6.59375 54.828125 13.0625 64.515625 
Q 19.53125 74.21875 31.78125 74.21875 
z
" id="DejaVuSans-48"/>
      </defs>
      <g transform="translate(70.651477 322.182437)scale(0.1 -0.1)">
       <use xlink:href="#DejaVuSans-48"/>
      </g>
     </g>
    </g>
    <g id="xtick_2">
     <g id="line2d_2">
      <g>
       <use style="stroke:#000000;stroke-width:0.8;" x="114.465336" xlink:href="#m422812e0bc" y="307.584"/>
      </g>
     </g>
     <g id="text_2">
      <!-- 100 -->
      <defs>
       <path d="M 12.40625 8.296875 
L 28.515625 8.296875 
L 28.515625 63.921875 
L 10.984375 60.40625 
L 10.984375 69.390625 
L 28.421875 72.90625 
L 38.28125 72.90625 
L 38.28125 8.296875 
L 54.390625 8.296875 
L 54.390625 0 
L 12.40625 0 
z
" id="DejaVuSans-49"/>
      </defs>
      <g transform="translate(104.921586 322.182437)scale(0.1 -0.1)">
       <use xlink:href="#DejaVuSans-49"/>
       <use x="63.623047" xlink:href="#DejaVuSans-48"/>
       <use x="127.246094" xlink:href="#DejaVuSans-48"/>
      </g>
     </g>
    </g>
    <g id="xtick_3">
     <g id="line2d_3">
      <g>
       <use style="stroke:#000000;stroke-width:0.8;" x="155.097945" xlink:href="#m422812e0bc" y="307.584"/>
      </g>
     </g>
     <g id="text_3">
      <!-- 200 -->
      <defs>
       <path d="M 19.1875 8.296875 
L 53.609375 8.296875 
L 53.609375 0 
L 7.328125 0 
L 7.328125 8.296875 
Q 12.9375 14.109375 22.625 23.890625 
Q 32.328125 33.6875 34.8125 36.53125 
Q 39.546875 41.84375 41.421875 45.53125 
Q 43.3125 49.21875 43.3125 52.78125 
Q 43.3125 58.59375 39.234375 62.25 
Q 35.15625 65.921875 28.609375 65.921875 
Q 23.96875 65.921875 18.8125 64.3125 
Q 13.671875 62.703125 7.8125 59.421875 
L 7.8125 69.390625 
Q 13.765625 71.78125 18.9375 73 
Q 24.125 74.21875 28.421875 74.21875 
Q 39.75 74.21875 46.484375 68.546875 
Q 53.21875 62.890625 53.21875 53.421875 
Q 53.21875 48.921875 51.53125 44.890625 
Q 49.859375 40.875 45.40625 35.40625 
Q 44.1875 33.984375 37.640625 27.21875 
Q 31.109375 20.453125 19.1875 8.296875 
z
" id="DejaVuSans-50"/>
      </defs>
      <g transform="translate(145.554195 322.182437)scale(0.1 -0.1)">
       <use xlink:href="#DejaVuSans-50"/>
       <use x="63.623047" xlink:href="#DejaVuSans-48"/>
       <use x="127.246094" xlink:href="#DejaVuSans-48"/>
      </g>
     </g>
    </g>
    <g id="xtick_4">
     <g id="line2d_4">
      <g>
       <use style="stroke:#000000;stroke-width:0.8;" x="195.730554" xlink:href="#m422812e0bc" y="307.584"/>
      </g>
     </g>
     <g id="text_4">
      <!-- 300 -->
      <defs>
       <path d="M 40.578125 39.3125 
Q 47.65625 37.796875 51.625 33 
Q 55.609375 28.21875 55.609375 21.1875 
Q 55.609375 10.40625 48.1875 4.484375 
Q 40.765625 -1.421875 27.09375 -1.421875 
Q 22.515625 -1.421875 17.65625 -0.515625 
Q 12.796875 0.390625 7.625 2.203125 
L 7.625 11.71875 
Q 11.71875 9.328125 16.59375 8.109375 
Q 21.484375 6.890625 26.8125 6.890625 
Q 36.078125 6.890625 40.9375 10.546875 
Q 45.796875 14.203125 45.796875 21.1875 
Q 45.796875 27.640625 41.28125 31.265625 
Q 36.765625 34.90625 28.71875 34.90625 
L 20.21875 34.90625 
L 20.21875 43.015625 
L 29.109375 43.015625 
Q 36.375 43.015625 40.234375 45.921875 
Q 44.09375 48.828125 44.09375 54.296875 
Q 44.09375 59.90625 40.109375 62.90625 
Q 36.140625 65.921875 28.71875 65.921875 
Q 24.65625 65.921875 20.015625 65.03125 
Q 15.375 64.15625 9.8125 62.3125 
L 9.8125 71.09375 
Q 15.4375 72.65625 20.34375 73.4375 
Q 25.25 74.21875 29.59375 74.21875 
Q 40.828125 74.21875 47.359375 69.109375 
Q 53.90625 64.015625 53.90625 55.328125 
Q 53.90625 49.265625 50.4375 45.09375 
Q 46.96875 40.921875 40.578125 39.3125 
z
" id="DejaVuSans-51"/>
      </defs>
      <g transform="translate(186.186804 322.182437)scale(0.1 -0.1)">
       <use xlink:href="#DejaVuSans-51"/>
       <use x="63.623047" xlink:href="#DejaVuSans-48"/>
       <use x="127.246094" xlink:href="#DejaVuSans-48"/>
      </g>
     </g>
    </g>
    <g id="xtick_5">
     <g id="line2d_5">
      <g>
       <use style="stroke:#000000;stroke-width:0.8;" x="236.363163" xlink:href="#m422812e0bc" y="307.584"/>
      </g>
     </g>
     <g id="text_5">
      <!-- 400 -->
      <defs>
       <path d="M 37.796875 64.3125 
L 12.890625 25.390625 
L 37.796875 25.390625 
z
M 35.203125 72.90625 
L 47.609375 72.90625 
L 47.609375 25.390625 
L 58.015625 25.390625 
L 58.015625 17.1875 
L 47.609375 17.1875 
L 47.609375 0 
L 37.796875 0 
L 37.796875 17.1875 
L 4.890625 17.1875 
L 4.890625 26.703125 
z
" id="DejaVuSans-52"/>
      </defs>
      <g transform="translate(226.819413 322.182437)scale(0.1 -0.1)">
       <use xlink:href="#DejaVuSans-52"/>
       <use x="63.623047" xlink:href="#DejaVuSans-48"/>
       <use x="127.246094" xlink:href="#DejaVuSans-48"/>
      </g>
     </g>
    </g>
    <g id="xtick_6">
     <g id="line2d_6">
      <g>
       <use style="stroke:#000000;stroke-width:0.8;" x="276.995772" xlink:href="#m422812e0bc" y="307.584"/>
      </g>
     </g>
     <g id="text_6">
      <!-- 500 -->
      <defs>
       <path d="M 10.796875 72.90625 
L 49.515625 72.90625 
L 49.515625 64.59375 
L 19.828125 64.59375 
L 19.828125 46.734375 
Q 21.96875 47.46875 24.109375 47.828125 
Q 26.265625 48.1875 28.421875 48.1875 
Q 40.625 48.1875 47.75 41.5 
Q 54.890625 34.8125 54.890625 23.390625 
Q 54.890625 11.625 47.5625 5.09375 
Q 40.234375 -1.421875 26.90625 -1.421875 
Q 22.3125 -1.421875 17.546875 -0.640625 
Q 12.796875 0.140625 7.71875 1.703125 
L 7.71875 11.625 
Q 12.109375 9.234375 16.796875 8.0625 
Q 21.484375 6.890625 26.703125 6.890625 
Q 35.15625 6.890625 40.078125 11.328125 
Q 45.015625 15.765625 45.015625 23.390625 
Q 45.015625 31 40.078125 35.4375 
Q 35.15625 39.890625 26.703125 39.890625 
Q 22.75 39.890625 18.8125 39.015625 
Q 14.890625 38.140625 10.796875 36.28125 
z
" id="DejaVuSans-53"/>
      </defs>
      <g transform="translate(267.452022 322.182437)scale(0.1 -0.1)">
       <use xlink:href="#DejaVuSans-53"/>
       <use x="63.623047" xlink:href="#DejaVuSans-48"/>
       <use x="127.246094" xlink:href="#DejaVuSans-48"/>
      </g>
     </g>
    </g>
    <g id="xtick_7">
     <g id="line2d_7">
      <g>
       <use style="stroke:#000000;stroke-width:0.8;" x="317.628381" xlink:href="#m422812e0bc" y="307.584"/>
      </g>
     </g>
     <g id="text_7">
      <!-- 600 -->
      <defs>
       <path d="M 33.015625 40.375 
Q 26.375 40.375 22.484375 35.828125 
Q 18.609375 31.296875 18.609375 23.390625 
Q 18.609375 15.53125 22.484375 10.953125 
Q 26.375 6.390625 33.015625 6.390625 
Q 39.65625 6.390625 43.53125 10.953125 
Q 47.40625 15.53125 47.40625 23.390625 
Q 47.40625 31.296875 43.53125 35.828125 
Q 39.65625 40.375 33.015625 40.375 
z
M 52.59375 71.296875 
L 52.59375 62.3125 
Q 48.875 64.0625 45.09375 64.984375 
Q 41.3125 65.921875 37.59375 65.921875 
Q 27.828125 65.921875 22.671875 59.328125 
Q 17.53125 52.734375 16.796875 39.40625 
Q 19.671875 43.65625 24.015625 45.921875 
Q 28.375 48.1875 33.59375 48.1875 
Q 44.578125 48.1875 50.953125 41.515625 
Q 57.328125 34.859375 57.328125 23.390625 
Q 57.328125 12.15625 50.6875 5.359375 
Q 44.046875 -1.421875 33.015625 -1.421875 
Q 20.359375 -1.421875 13.671875 8.265625 
Q 6.984375 17.96875 6.984375 36.375 
Q 6.984375 53.65625 15.1875 63.9375 
Q 23.390625 74.21875 37.203125 74.21875 
Q 40.921875 74.21875 44.703125 73.484375 
Q 48.484375 72.75 52.59375 71.296875 
z
" id="DejaVuSans-54"/>
      </defs>
      <g transform="translate(308.084631 322.182437)scale(0.1 -0.1)">
       <use xlink:href="#DejaVuSans-54"/>
       <use x="63.623047" xlink:href="#DejaVuSans-48"/>
       <use x="127.246094" xlink:href="#DejaVuSans-48"/>
      </g>
     </g>
    </g>
    <g id="xtick_8">
     <g id="line2d_8">
      <g>
       <use style="stroke:#000000;stroke-width:0.8;" x="358.26099" xlink:href="#m422812e0bc" y="307.584"/>
      </g>
     </g>
     <g id="text_8">
      <!-- 700 -->
      <defs>
       <path d="M 8.203125 72.90625 
L 55.078125 72.90625 
L 55.078125 68.703125 
L 28.609375 0 
L 18.3125 0 
L 43.21875 64.59375 
L 8.203125 64.59375 
z
" id="DejaVuSans-55"/>
      </defs>
      <g transform="translate(348.71724 322.182437)scale(0.1 -0.1)">
       <use xlink:href="#DejaVuSans-55"/>
       <use x="63.623047" xlink:href="#DejaVuSans-48"/>
       <use x="127.246094" xlink:href="#DejaVuSans-48"/>
      </g>
     </g>
    </g>
    <g id="xtick_9">
     <g id="line2d_9">
      <g>
       <use style="stroke:#000000;stroke-width:0.8;" x="398.893599" xlink:href="#m422812e0bc" y="307.584"/>
      </g>
     </g>
     <g id="text_9">
      <!-- 800 -->
      <defs>
       <path d="M 31.78125 34.625 
Q 24.75 34.625 20.71875 30.859375 
Q 16.703125 27.09375 16.703125 20.515625 
Q 16.703125 13.921875 20.71875 10.15625 
Q 24.75 6.390625 31.78125 6.390625 
Q 38.8125 6.390625 42.859375 10.171875 
Q 46.921875 13.96875 46.921875 20.515625 
Q 46.921875 27.09375 42.890625 30.859375 
Q 38.875 34.625 31.78125 34.625 
z
M 21.921875 38.8125 
Q 15.578125 40.375 12.03125 44.71875 
Q 8.5 49.078125 8.5 55.328125 
Q 8.5 64.0625 14.71875 69.140625 
Q 20.953125 74.21875 31.78125 74.21875 
Q 42.671875 74.21875 48.875 69.140625 
Q 55.078125 64.0625 55.078125 55.328125 
Q 55.078125 49.078125 51.53125 44.71875 
Q 48 40.375 41.703125 38.8125 
Q 48.828125 37.15625 52.796875 32.3125 
Q 56.78125 27.484375 56.78125 20.515625 
Q 56.78125 9.90625 50.3125 4.234375 
Q 43.84375 -1.421875 31.78125 -1.421875 
Q 19.734375 -1.421875 13.25 4.234375 
Q 6.78125 9.90625 6.78125 20.515625 
Q 6.78125 27.484375 10.78125 32.3125 
Q 14.796875 37.15625 21.921875 38.8125 
z
M 18.3125 54.390625 
Q 18.3125 48.734375 21.84375 45.5625 
Q 25.390625 42.390625 31.78125 42.390625 
Q 38.140625 42.390625 41.71875 45.5625 
Q 45.3125 48.734375 45.3125 54.390625 
Q 45.3125 60.0625 41.71875 63.234375 
Q 38.140625 66.40625 31.78125 66.40625 
Q 25.390625 66.40625 21.84375 63.234375 
Q 18.3125 60.0625 18.3125 54.390625 
z
" id="DejaVuSans-56"/>
      </defs>
      <g transform="translate(389.349849 322.182437)scale(0.1 -0.1)">
       <use xlink:href="#DejaVuSans-56"/>
       <use x="63.623047" xlink:href="#DejaVuSans-48"/>
       <use x="127.246094" xlink:href="#DejaVuSans-48"/>
      </g>
     </g>
    </g>
   </g>
   <g id="matplotlib.axis_2">
    <g id="ytick_1">
     <g id="line2d_10">
      <defs>
       <path d="M 0 0 
L -3.5 0 
" id="mc1815d9ebf" style="stroke:#000000;stroke-width:0.8;"/>
      </defs>
      <g>
       <use style="stroke:#000000;stroke-width:0.8;" x="57.6" xlink:href="#mc1815d9ebf" y="292.954068"/>
      </g>
     </g>
     <g id="text_10">
      <!-- 0 -->
      <g transform="translate(44.2375 296.753287)scale(0.1 -0.1)">
       <use xlink:href="#DejaVuSans-48"/>
      </g>
     </g>
    </g>
    <g id="ytick_2">
     <g id="line2d_11">
      <g>
       <use style="stroke:#000000;stroke-width:0.8;" x="57.6" xlink:href="#mc1815d9ebf" y="242.275437"/>
      </g>
     </g>
     <g id="text_11">
      <!-- 200 -->
      <g transform="translate(31.5125 246.074655)scale(0.1 -0.1)">
       <use xlink:href="#DejaVuSans-50"/>
       <use x="63.623047" xlink:href="#DejaVuSans-48"/>
       <use x="127.246094" xlink:href="#DejaVuSans-48"/>
      </g>
     </g>
    </g>
    <g id="ytick_3">
     <g id="line2d_12">
      <g>
       <use style="stroke:#000000;stroke-width:0.8;" x="57.6" xlink:href="#mc1815d9ebf" y="191.596805"/>
      </g>
     </g>
     <g id="text_12">
      <!-- 400 -->
      <g transform="translate(31.5125 195.396024)scale(0.1 -0.1)">
       <use xlink:href="#DejaVuSans-52"/>
       <use x="63.623047" xlink:href="#DejaVuSans-48"/>
       <use x="127.246094" xlink:href="#DejaVuSans-48"/>
      </g>
     </g>
    </g>
    <g id="ytick_4">
     <g id="line2d_13">
      <g>
       <use style="stroke:#000000;stroke-width:0.8;" x="57.6" xlink:href="#mc1815d9ebf" y="140.918173"/>
      </g>
     </g>
     <g id="text_13">
      <!-- 600 -->
      <g transform="translate(31.5125 144.717392)scale(0.1 -0.1)">
       <use xlink:href="#DejaVuSans-54"/>
       <use x="63.623047" xlink:href="#DejaVuSans-48"/>
       <use x="127.246094" xlink:href="#DejaVuSans-48"/>
      </g>
     </g>
    </g>
    <g id="ytick_5">
     <g id="line2d_14">
      <g>
       <use style="stroke:#000000;stroke-width:0.8;" x="57.6" xlink:href="#mc1815d9ebf" y="90.239542"/>
      </g>
     </g>
     <g id="text_14">
      <!-- 800 -->
      <g transform="translate(31.5125 94.03876)scale(0.1 -0.1)">
       <use xlink:href="#DejaVuSans-56"/>
       <use x="63.623047" xlink:href="#DejaVuSans-48"/>
       <use x="127.246094" xlink:href="#DejaVuSans-48"/>
      </g>
     </g>
    </g>
   </g>
   <g id="line2d_15">
    <path clip-path="url(#pb22d799546)" d="M 73.832727 295.488 
L 74.645379 295.488 
L 75.051706 184.091555 
L 75.458032 190.744094 
L 75.864358 144.976281 
L 76.270684 167.771052 
L 76.67701 158.547655 
L 77.083336 240.573758 
L 77.489662 188.21172 
L 77.895988 209.779887 
L 78.302314 264.912091 
L 78.70864 249.977973 
L 79.114966 260.649941 
L 79.521293 262.771603 
L 79.927619 266.26487 
L 80.333945 264.12023 
L 80.740271 242.367654 
L 81.146597 192.875515 
L 81.552923 74.615978 
L 81.959249 295.488 
L 84.397206 295.488 
L 84.803532 163.407593 
L 85.209858 295.488 
L 87.647814 295.488 
L 88.05414 168.025412 
L 88.460466 295.488 
L 94.555358 295.488 
L 94.961684 202.230301 
L 95.36801 174.159612 
L 95.774336 53.814554 
L 96.180662 295.488 
L 96.586988 77.511366 
L 96.993314 295.488 
L 97.39964 295.488 
L 97.805967 174.570722 
L 98.212293 295.488 
L 99.431271 295.488 
L 99.837597 76.875088 
L 100.243923 184.859989 
L 100.650249 204.548746 
L 101.056575 236.616483 
L 101.462901 247.536634 
L 101.869227 253.304427 
L 102.275554 265.094897 
L 102.68188 253.58628 
L 103.088206 277.052824 
L 103.494532 267.716933 
L 103.900858 274.980345 
L 104.307184 263.799294 
L 104.71351 264.110824 
L 105.119836 261.575771 
L 105.526162 266.56588 
L 106.338814 253.26828 
L 107.151467 198.683477 
L 107.557793 242.837555 
L 107.964119 219.813175 
L 108.370445 212.037447 
L 108.776771 166.669278 
L 109.183097 163.5768 
L 109.589423 167.287129 
L 109.995749 224.382628 
L 110.808401 254.707456 
L 111.214728 190.995979 
L 111.621054 254.013997 
L 112.02738 241.277932 
L 112.433706 252.456232 
L 112.840032 258.33971 
L 113.246358 243.184961 
L 113.652684 245.22554 
L 114.05901 240.284718 
L 114.465336 295.488 
L 114.871662 242.022407 
L 115.277988 127.041668 
L 115.684314 295.488 
L 116.090641 222.628895 
L 116.496967 230.319456 
L 116.903293 295.488 
L 117.309619 159.053334 
L 117.715945 295.488 
L 118.122271 295.488 
L 118.528597 114.212417 
L 118.934923 295.488 
L 126.655119 295.488 
L 127.061445 64.096049 
L 127.467771 121.993045 
L 127.874097 154.691994 
L 128.686749 195.429335 
L 129.093075 198.468725 
L 129.499402 211.596697 
L 129.905728 216.845521 
L 130.312054 201.231029 
L 130.71838 202.430685 
L 131.124706 204.195518 
L 131.531032 204.557594 
L 131.937358 202.5537 
L 132.343684 205.93238 
L 132.75001 194.883206 
L 133.156336 60.696843 
L 133.562662 165.249821 
L 133.968989 237.223129 
L 134.375315 261.67212 
L 135.594293 237.732945 
L 136.000619 242.539563 
L 136.406945 243.535095 
L 136.813271 238.275777 
L 137.219597 242.174168 
L 137.625923 220.512622 
L 138.032249 255.659525 
L 138.438575 139.78231 
L 138.844902 237.618171 
L 139.251228 205.953679 
L 139.657554 223.667055 
L 140.06388 295.488 
L 140.470206 225.480367 
L 140.876532 295.488 
L 141.282858 211.464641 
L 141.689184 53.568 
L 142.09551 295.488 
L 143.314489 295.488 
L 143.720815 152.825665 
L 144.127141 295.488 
L 151.034684 295.488 
L 151.44101 109.408167 
L 151.847336 131.003217 
L 152.253663 160.26324 
L 152.659989 207.84091 
L 153.066315 237.337538 
L 153.472641 258.625502 
L 153.878967 264.747433 
L 154.285293 277.042417 
L 154.691619 273.260818 
L 155.097945 280.792167 
L 155.504271 270.799744 
L 155.910597 279.454467 
L 156.316923 276.568894 
L 156.72325 280.061331 
L 157.129576 276.690369 
L 157.535902 274.758676 
L 157.942228 279.443841 
L 158.348554 274.008544 
L 158.75488 275.153481 
L 159.161206 275.801058 
L 159.567532 273.824274 
L 159.973858 267.159971 
L 160.380184 273.258191 
L 160.78651 261.253105 
L 161.192837 260.86367 
L 161.599163 271.093164 
L 162.005489 262.647902 
L 162.411815 272.473764 
L 162.818141 268.876242 
L 163.224467 270.787835 
L 163.630793 277.107527 
L 164.037119 171.21119 
L 164.443445 233.612715 
L 164.849771 192.140032 
L 165.256097 246.669427 
L 165.662423 202.945612 
L 166.06875 122.054587 
L 166.475076 228.234698 
L 166.881402 295.488 
L 167.287728 295.488 
L 167.694054 254.999091 
L 168.10038 295.488 
L 168.506706 84.335891 
L 168.913032 295.488 
L 170.538337 295.488 
L 171.350989 192.818351 
L 171.757315 240.341446 
L 172.163641 228.378357 
L 172.569967 207.320405 
L 172.976293 157.193363 
L 173.382619 244.764483 
L 173.788945 233.096424 
L 174.195271 230.654599 
L 175.007924 195.349799 
L 175.41425 201.265004 
L 175.820576 204.027691 
L 176.226902 209.79169 
L 176.633228 231.438145 
L 177.039554 194.452175 
L 177.44588 212.748212 
L 177.852206 261.28463 
L 178.258532 275.894211 
L 178.664858 274.554347 
L 179.071184 282.517706 
L 179.477511 269.476416 
L 179.883837 284.690586 
L 180.290163 281.768543 
L 180.696489 284.268929 
L 181.509141 287.453637 
L 181.915467 287.742642 
L 182.321793 276.4597 
L 182.728119 279.918077 
L 183.134445 288.834766 
L 183.540771 284.544493 
L 183.947098 282.745873 
L 184.353424 285.004581 
L 184.75975 284.845617 
L 185.166076 284.953216 
L 185.978728 284.11051 
L 187.197706 278.209496 
L 187.604032 282.156385 
L 188.010358 280.421494 
L 188.416684 279.685755 
L 188.823011 278.144154 
L 189.229337 272.045857 
L 189.635663 261.392957 
L 190.041989 259.183781 
L 190.448315 260.253951 
L 190.854641 252.497055 
L 191.260967 210.401981 
L 191.667293 213.656914 
L 192.073619 228.475848 
L 192.479945 204.437849 
L 192.886271 187.671009 
L 193.292598 242.765985 
L 193.698924 244.154137 
L 194.10525 213.075434 
L 194.511576 210.817281 
L 194.917902 185.155131 
L 195.324228 240.52005 
L 195.730554 218.158624 
L 196.13688 220.668827 
L 196.543206 194.741536 
L 196.949532 222.913535 
L 197.355858 190.085532 
L 197.762185 206.301655 
L 198.168511 194.642839 
L 198.574837 228.115335 
L 198.981163 227.077783 
L 199.387489 231.457796 
L 200.200141 253.114655 
L 200.606467 251.046875 
L 201.012793 251.656867 
L 201.419119 260.928598 
L 201.825445 259.990449 
L 202.231772 271.682172 
L 202.638098 274.568141 
L 203.044424 275.049102 
L 203.857076 280.806488 
L 204.263402 280.975523 
L 204.669728 280.88656 
L 205.076054 280.605322 
L 205.48238 280.637331 
L 205.888706 280.959992 
L 206.295032 278.273164 
L 206.701359 280.461292 
L 207.107685 279.837366 
L 207.514011 281.8807 
L 207.920337 279.715606 
L 208.326663 279.040208 
L 208.732989 278.735743 
L 209.139315 280.408518 
L 209.545641 278.645086 
L 209.951967 278.314323 
L 210.358293 286.292089 
L 210.764619 281.746328 
L 211.170946 282.954152 
L 211.577272 282.048831 
L 211.983598 283.593309 
L 212.389924 280.071726 
L 212.79625 278.254258 
L 213.202576 272.73673 
L 213.608902 270.989485 
L 214.015228 278.609895 
L 214.421554 266.413756 
L 214.82788 265.68995 
L 215.234206 259.319608 
L 216.453185 235.036981 
L 216.859511 246.08586 
L 217.265837 250.06033 
L 217.672163 153.407569 
L 218.078489 206.791335 
L 218.891141 254.336709 
L 219.297467 262.30464 
L 220.516446 204.379031 
L 220.922772 195.955868 
L 221.329098 206.423475 
L 222.14175 231.674936 
L 222.548076 259.724708 
L 222.954402 264.999291 
L 223.360728 264.168777 
L 223.767054 265.403733 
L 224.17338 267.549927 
L 224.579706 273.906207 
L 224.986033 277.099722 
L 225.392359 274.937552 
L 225.798685 275.231103 
L 226.611337 278.307932 
L 227.017663 279.803187 
L 227.423989 279.085237 
L 227.830315 280.389848 
L 228.236641 282.379282 
L 228.642967 283.602391 
L 229.049293 284.117654 
L 229.861946 284.456084 
L 230.268272 285.154296 
L 230.674598 284.974747 
L 231.080924 272.366917 
L 231.48725 270.163635 
L 231.893576 273.852482 
L 232.299902 272.882698 
L 232.706228 274.009482 
L 233.112554 273.153027 
L 233.51888 273.633051 
L 233.925207 273.823694 
L 234.331533 281.237935 
L 234.737859 275.759761 
L 235.144185 279.07113 
L 235.550511 276.892629 
L 235.956837 272.911463 
L 236.363163 274.930741 
L 236.769489 278.879701 
L 237.175815 273.121513 
L 237.582141 280.407239 
L 237.988467 279.845293 
L 238.394793 279.816698 
L 238.80112 283.171781 
L 239.613772 282.758262 
L 240.020098 280.752867 
L 240.426424 280.588197 
L 240.83275 280.118667 
L 241.239076 281.443729 
L 241.645402 281.73566 
L 242.051728 280.387113 
L 242.458054 276.95081 
L 242.86438 280.600082 
L 243.270707 275.594512 
L 243.677033 274.591116 
L 244.083359 276.086844 
L 244.489685 276.151823 
L 244.896011 274.245616 
L 245.302337 273.718668 
L 245.708663 265.050403 
L 246.114989 262.354493 
L 246.521315 264.518218 
L 246.927641 249.255715 
L 247.333967 254.238198 
L 247.740294 266.670877 
L 248.14662 260.556297 
L 248.959272 267.189161 
L 249.365598 268.019863 
L 249.771924 269.467749 
L 250.17825 271.609244 
L 250.584576 272.431562 
L 250.990902 277.790618 
L 251.397228 274.666664 
L 251.803554 283.630674 
L 252.209881 278.282889 
L 252.616207 285.379084 
L 253.022533 281.564021 
L 253.428859 284.732473 
L 253.835185 278.536566 
L 254.241511 281.129914 
L 255.054163 280.595688 
L 255.460489 282.328686 
L 255.866815 282.139489 
L 256.273141 282.089038 
L 256.679468 278.864187 
L 257.085794 278.812109 
L 257.49212 282.919207 
L 257.898446 281.695386 
L 258.304772 281.326187 
L 258.711098 283.758326 
L 259.117424 279.852193 
L 259.52375 283.418239 
L 259.930076 282.340752 
L 260.336402 277.470338 
L 260.742728 279.303178 
L 261.149054 282.106314 
L 261.555381 281.314375 
L 261.961707 280.009846 
L 262.368033 277.994056 
L 263.180685 283.331397 
L 263.993337 280.104081 
L 264.399663 282.162995 
L 264.805989 280.922679 
L 265.212315 282.177537 
L 265.618641 278.941266 
L 266.024968 282.027592 
L 266.431294 273.781555 
L 266.83762 279.605851 
L 267.243946 278.247671 
L 267.650272 273.661827 
L 268.056598 276.90834 
L 268.462924 273.854256 
L 268.86925 279.144381 
L 269.275576 278.934175 
L 269.681902 276.888579 
L 270.088228 269.461934 
L 270.494555 267.734801 
L 270.900881 267.798111 
L 271.307207 260.727897 
L 271.713533 265.382825 
L 272.119859 265.742763 
L 272.526185 264.038242 
L 272.932511 265.293718 
L 273.338837 267.39091 
L 274.557815 275.39325 
L 274.964142 276.15096 
L 275.370468 277.330852 
L 275.776794 279.131703 
L 276.18312 279.644853 
L 276.589446 282.145552 
L 277.402098 280.239388 
L 277.808424 286.023078 
L 278.21475 285.741224 
L 278.621076 279.437294 
L 279.027402 279.210189 
L 279.433729 278.53484 
L 279.840055 280.441527 
L 280.246381 280.510687 
L 281.059033 278.306944 
L 281.465359 281.500425 
L 281.871685 276.962017 
L 282.278011 275.560592 
L 282.684337 283.666958 
L 283.090663 283.910947 
L 283.496989 282.746629 
L 285.122294 282.564139 
L 285.52862 284.916467 
L 286.341272 284.278494 
L 286.747598 285.215526 
L 287.153924 284.003692 
L 287.56025 284.150152 
L 288.372902 284.180061 
L 288.779229 283.894578 
L 289.591881 284.436455 
L 290.404533 284.484245 
L 291.217185 279.971849 
L 291.623511 280.413339 
L 292.029837 279.899955 
L 292.436163 279.752795 
L 292.842489 279.389542 
L 293.248816 281.591607 
L 293.655142 279.344033 
L 294.467794 278.478891 
L 294.87412 278.557053 
L 295.280446 277.072926 
L 296.90575 276.831828 
L 297.312076 276.512793 
L 297.718403 272.41568 
L 298.124729 270.860425 
L 298.531055 270.082697 
L 298.937381 269.828611 
L 299.343707 268.976713 
L 299.750033 269.694735 
L 300.156359 270.121375 
L 300.562685 271.863453 
L 300.969011 275.403628 
L 301.375337 277.378205 
L 301.781663 278.658714 
L 302.18799 281.09511 
L 302.594316 282.570392 
L 303.000642 283.579492 
L 303.406968 282.904703 
L 303.813294 286.167242 
L 304.625946 286.802863 
L 305.032272 284.965983 
L 305.438598 285.401666 
L 305.844924 286.704964 
L 306.657577 286.841733 
L 307.063903 284.618955 
L 307.470229 284.222861 
L 307.876555 284.113013 
L 308.282881 284.130962 
L 308.689207 283.581734 
L 309.095533 285.012971 
L 309.501859 284.321481 
L 309.908185 285.329427 
L 310.314511 284.49494 
L 310.720837 284.644946 
L 311.53349 283.588056 
L 311.939816 284.915361 
L 312.346142 284.483751 
L 312.752468 283.716617 
L 313.158794 282.58841 
L 313.56512 280.019962 
L 313.971446 282.154776 
L 314.377772 281.69969 
L 314.784098 281.637829 
L 316.409403 282.111062 
L 316.815729 281.500972 
L 317.222055 281.409642 
L 317.628381 281.892353 
L 318.034707 272.552792 
L 318.441033 267.635414 
L 319.253685 276.581193 
L 319.660011 276.682369 
L 320.472664 273.801614 
L 320.87899 274.387685 
L 321.285316 272.744765 
L 321.691642 267.353927 
L 322.097968 266.423027 
L 322.504294 265.805495 
L 322.91062 264.676116 
L 323.316946 264.262838 
L 323.723272 264.755411 
L 324.535924 267.332053 
L 324.942251 269.146493 
L 325.754903 271.242984 
L 326.161229 270.459815 
L 326.567555 271.171197 
L 326.973881 274.231519 
L 327.380207 273.898563 
L 329.005511 273.507351 
L 330.22449 273.611697 
L 330.630816 274.635876 
L 331.037142 267.553764 
L 331.443468 267.874552 
L 331.849794 267.641927 
L 332.25612 266.607548 
L 332.662446 267.544205 
L 333.068772 267.77171 
L 333.881425 268.860085 
L 334.287751 269.60439 
L 334.694077 273.271066 
L 335.506729 274.255137 
L 335.913055 275.178638 
L 336.319381 275.03079 
L 336.725707 275.619376 
L 337.132033 276.450719 
L 337.538359 276.810387 
L 337.944685 276.864144 
L 338.351011 277.12489 
L 338.757338 277.914911 
L 339.163664 278.454806 
L 339.976316 279.074864 
L 340.382642 279.090426 
L 340.788968 278.769949 
L 341.195294 277.215487 
L 341.60162 277.34241 
L 342.414272 276.374239 
L 342.820598 274.469051 
L 343.226925 276.326857 
L 343.633251 273.169441 
L 344.039577 274.004408 
L 344.445903 273.141285 
L 344.852229 270.447165 
L 345.258555 271.060278 
L 346.071207 268.85297 
L 346.477533 268.513059 
L 347.290185 266.690961 
L 348.102838 265.375143 
L 348.509164 263.801581 
L 348.91549 264.568388 
L 349.321816 264.199566 
L 349.728142 262.869171 
L 350.134468 261.964144 
L 350.540794 263.247329 
L 350.94712 264.07623 
L 351.353446 264.179478 
L 351.759772 266.004833 
L 352.166099 253.843251 
L 352.978751 255.328884 
L 353.385077 259.377254 
L 353.791403 260.418227 
L 354.197729 260.68094 
L 354.604055 259.22872 
L 355.823033 264.722283 
L 356.229359 265.627559 
L 356.635686 265.477432 
L 357.042012 260.793242 
L 357.854664 265.394007 
L 358.26099 265.100194 
L 358.667316 259.710331 
L 359.073642 259.292702 
L 359.479968 242.718793 
L 359.886294 242.877371 
L 360.29262 247.296026 
L 360.698946 247.774921 
L 361.105272 247.465045 
L 361.511599 251.256107 
L 361.917925 253.019884 
L 362.324251 253.035527 
L 362.730577 254.207361 
L 363.136903 255.006844 
L 363.543229 257.518206 
L 363.949555 259.14724 
L 364.355881 260.252655 
L 364.762207 264.92168 
L 365.168533 261.556436 
L 365.574859 260.532726 
L 365.981186 258.907258 
L 366.387512 258.409287 
L 367.60649 254.489799 
L 368.825468 250.385636 
L 369.231794 234.210959 
L 369.63812 249.908707 
L 370.044446 249.83183 
L 370.450773 250.239702 
L 370.857099 250.114632 
L 371.263425 249.614422 
L 371.669751 250.35831 
L 372.076077 263.044087 
L 372.482403 263.135892 
L 372.888729 250.962514 
L 373.701381 251.919589 
L 374.107707 250.721119 
L 374.514033 250.430129 
L 374.92036 255.411105 
L 375.733012 257.334206 
L 376.139338 254.372954 
L 376.545664 257.611001 
L 376.95199 259.47217 
L 378.170968 262.286145 
L 378.577294 262.506817 
L 378.98362 262.586928 
L 379.796273 263.095642 
L 380.202599 265.446823 
L 380.608925 264.696483 
L 381.015251 262.540689 
L 381.421577 263.667017 
L 381.827903 264.004295 
L 382.234229 262.423662 
L 382.640555 261.964153 
L 383.046881 262.14182 
L 383.453207 261.531165 
L 383.859534 261.708359 
L 384.26586 261.632618 
L 385.078512 261.842616 
L 387.110142 264.269831 
L 387.922794 265.85302 
L 388.32912 267.925399 
L 389.548099 272.036484 
L 389.954425 272.912441 
L 390.360751 273.384026 
L 390.767077 274.157202 
L 391.173403 274.515436 
L 391.579729 274.69495 
L 391.986055 273.875237 
L 392.392381 274.254921 
L 392.798707 273.536366 
L 393.205034 271.942314 
L 393.61136 271.903391 
L 394.424012 268.829174 
L 394.830338 272.362564 
L 395.236664 272.474532 
L 395.64299 271.430938 
L 396.049316 267.772958 
L 396.455642 266.998954 
L 396.861968 266.688309 
L 397.268294 262.489583 
L 397.674621 264.550194 
L 398.080947 263.31267 
L 398.487273 249.491224 
L 398.487273 249.491224 
" style="fill:none;stroke:#1f77b4;stroke-linecap:square;stroke-width:1.5;"/>
   </g>
   <g id="line2d_16">
    <path clip-path="url(#pb22d799546)" d="M 73.832727 292.337947 
L 74.645379 292.292851 
L 75.458032 292.518672 
L 76.270684 292.749856 
L 81.552923 292.654382 
L 89.679445 292.73623 
L 98.212293 292.688105 
L 99.431271 292.737934 
L 108.776771 292.689516 
L 117.309619 292.71179 
L 136.813271 292.70089 
L 190.041989 292.680813 
L 232.706228 292.678279 
L 398.487273 292.761584 
L 398.487273 292.761584 
" style="fill:none;stroke:#ff7f0e;stroke-linecap:square;stroke-width:1.5;"/>
   </g>
   <g id="patch_3">
    <path d="M 57.6 307.584 
L 57.6 41.472 
" style="fill:none;stroke:#000000;stroke-linecap:square;stroke-linejoin:miter;stroke-width:0.8;"/>
   </g>
   <g id="patch_4">
    <path d="M 414.72 307.584 
L 414.72 41.472 
" style="fill:none;stroke:#000000;stroke-linecap:square;stroke-linejoin:miter;stroke-width:0.8;"/>
   </g>
   <g id="patch_5">
    <path d="M 57.6 307.584 
L 414.72 307.584 
" style="fill:none;stroke:#000000;stroke-linecap:square;stroke-linejoin:miter;stroke-width:0.8;"/>
   </g>
   <g id="patch_6">
    <path d="M 57.6 41.472 
L 414.72 41.472 
" style="fill:none;stroke:#000000;stroke-linecap:square;stroke-linejoin:miter;stroke-width:0.8;"/>
   </g>
  </g>
 </g>
 <defs>
  <clipPath id="pb22d799546">
   <rect height="266.112" width="357.12" x="57.6" y="41.472"/>
  </clipPath>
 </defs>
</svg>
