<?xml version="1.0" encoding="utf-8" standalone="no"?>
<!DOCTYPE svg PUBLIC "-//W3C//DTD SVG 1.1//EN"
  "http://www.w3.org/Graphics/SVG/1.1/DTD/svg11.dtd">
<!-- Created with matplotlib (https://matplotlib.org/) -->
<svg height="345.6pt" version="1.1" viewBox="0 0 460.8 345.6" width="460.8pt" xmlns="http://www.w3.org/2000/svg" xmlns:xlink="http://www.w3.org/1999/xlink">
 <defs>
  <style type="text/css">
*{stroke-linecap:butt;stroke-linejoin:round;}
  </style>
 </defs>
 <g id="figure_1">
  <g id="patch_1">
   <path d="M 0 345.6 
L 460.8 345.6 
L 460.8 0 
L 0 0 
z
" style="fill:#ffffff;"/>
  </g>
  <g id="axes_1">
   <g id="patch_2">
    <path d="M 57.6 307.584 
L 414.72 307.584 
L 414.72 41.472 
L 57.6 41.472 
z
" style="fill:#ffffff;"/>
   </g>
   <g id="matplotlib.axis_1">
    <g id="xtick_1">
     <g id="line2d_1">
      <defs>
       <path d="M 0 0 
L 0 3.5 
" id="m7aaa1f370c" style="stroke:#000000;stroke-width:0.8;"/>
      </defs>
      <g>
       <use style="stroke:#000000;stroke-width:0.8;" x="73.832727" xlink:href="#m7aaa1f370c" y="307.584"/>
      </g>
     </g>
     <g id="text_1">
      <!-- 0 -->
      <defs>
       <path d="M 31.78125 66.40625 
Q 24.171875 66.40625 20.328125 58.90625 
Q 16.5 51.421875 16.5 36.375 
Q 16.5 21.390625 20.328125 13.890625 
Q 24.171875 6.390625 31.78125 6.390625 
Q 39.453125 6.390625 43.28125 13.890625 
Q 47.125 21.390625 47.125 36.375 
Q 47.125 51.421875 43.28125 58.90625 
Q 39.453125 66.40625 31.78125 66.40625 
z
M 31.78125 74.21875 
Q 44.046875 74.21875 50.515625 64.515625 
Q 56.984375 54.828125 56.984375 36.375 
Q 56.984375 17.96875 50.515625 8.265625 
Q 44.046875 -1.421875 31.78125 -1.421875 
Q 19.53125 -1.421875 13.0625 8.265625 
Q 6.59375 17.96875 6.59375 36.375 
Q 6.59375 54.828125 13.0625 64.515625 
Q 19.53125 74.21875 31.78125 74.21875 
z
" id="DejaVuSans-48"/>
      </defs>
      <g transform="translate(70.651477 322.182437)scale(0.1 -0.1)">
       <use xlink:href="#DejaVuSans-48"/>
      </g>
     </g>
    </g>
    <g id="xtick_2">
     <g id="line2d_2">
      <g>
       <use style="stroke:#000000;stroke-width:0.8;" x="114.465336" xlink:href="#m7aaa1f370c" y="307.584"/>
      </g>
     </g>
     <g id="text_2">
      <!-- 100 -->
      <defs>
       <path d="M 12.40625 8.296875 
L 28.515625 8.296875 
L 28.515625 63.921875 
L 10.984375 60.40625 
L 10.984375 69.390625 
L 28.421875 72.90625 
L 38.28125 72.90625 
L 38.28125 8.296875 
L 54.390625 8.296875 
L 54.390625 0 
L 12.40625 0 
z
" id="DejaVuSans-49"/>
      </defs>
      <g transform="translate(104.921586 322.182437)scale(0.1 -0.1)">
       <use xlink:href="#DejaVuSans-49"/>
       <use x="63.623047" xlink:href="#DejaVuSans-48"/>
       <use x="127.246094" xlink:href="#DejaVuSans-48"/>
      </g>
     </g>
    </g>
    <g id="xtick_3">
     <g id="line2d_3">
      <g>
       <use style="stroke:#000000;stroke-width:0.8;" x="155.097945" xlink:href="#m7aaa1f370c" y="307.584"/>
      </g>
     </g>
     <g id="text_3">
      <!-- 200 -->
      <defs>
       <path d="M 19.1875 8.296875 
L 53.609375 8.296875 
L 53.609375 0 
L 7.328125 0 
L 7.328125 8.296875 
Q 12.9375 14.109375 22.625 23.890625 
Q 32.328125 33.6875 34.8125 36.53125 
Q 39.546875 41.84375 41.421875 45.53125 
Q 43.3125 49.21875 43.3125 52.78125 
Q 43.3125 58.59375 39.234375 62.25 
Q 35.15625 65.921875 28.609375 65.921875 
Q 23.96875 65.921875 18.8125 64.3125 
Q 13.671875 62.703125 7.8125 59.421875 
L 7.8125 69.390625 
Q 13.765625 71.78125 18.9375 73 
Q 24.125 74.21875 28.421875 74.21875 
Q 39.75 74.21875 46.484375 68.546875 
Q 53.21875 62.890625 53.21875 53.421875 
Q 53.21875 48.921875 51.53125 44.890625 
Q 49.859375 40.875 45.40625 35.40625 
Q 44.1875 33.984375 37.640625 27.21875 
Q 31.109375 20.453125 19.1875 8.296875 
z
" id="DejaVuSans-50"/>
      </defs>
      <g transform="translate(145.554195 322.182437)scale(0.1 -0.1)">
       <use xlink:href="#DejaVuSans-50"/>
       <use x="63.623047" xlink:href="#DejaVuSans-48"/>
       <use x="127.246094" xlink:href="#DejaVuSans-48"/>
      </g>
     </g>
    </g>
    <g id="xtick_4">
     <g id="line2d_4">
      <g>
       <use style="stroke:#000000;stroke-width:0.8;" x="195.730554" xlink:href="#m7aaa1f370c" y="307.584"/>
      </g>
     </g>
     <g id="text_4">
      <!-- 300 -->
      <defs>
       <path d="M 40.578125 39.3125 
Q 47.65625 37.796875 51.625 33 
Q 55.609375 28.21875 55.609375 21.1875 
Q 55.609375 10.40625 48.1875 4.484375 
Q 40.765625 -1.421875 27.09375 -1.421875 
Q 22.515625 -1.421875 17.65625 -0.515625 
Q 12.796875 0.390625 7.625 2.203125 
L 7.625 11.71875 
Q 11.71875 9.328125 16.59375 8.109375 
Q 21.484375 6.890625 26.8125 6.890625 
Q 36.078125 6.890625 40.9375 10.546875 
Q 45.796875 14.203125 45.796875 21.1875 
Q 45.796875 27.640625 41.28125 31.265625 
Q 36.765625 34.90625 28.71875 34.90625 
L 20.21875 34.90625 
L 20.21875 43.015625 
L 29.109375 43.015625 
Q 36.375 43.015625 40.234375 45.921875 
Q 44.09375 48.828125 44.09375 54.296875 
Q 44.09375 59.90625 40.109375 62.90625 
Q 36.140625 65.921875 28.71875 65.921875 
Q 24.65625 65.921875 20.015625 65.03125 
Q 15.375 64.15625 9.8125 62.3125 
L 9.8125 71.09375 
Q 15.4375 72.65625 20.34375 73.4375 
Q 25.25 74.21875 29.59375 74.21875 
Q 40.828125 74.21875 47.359375 69.109375 
Q 53.90625 64.015625 53.90625 55.328125 
Q 53.90625 49.265625 50.4375 45.09375 
Q 46.96875 40.921875 40.578125 39.3125 
z
" id="DejaVuSans-51"/>
      </defs>
      <g transform="translate(186.186804 322.182437)scale(0.1 -0.1)">
       <use xlink:href="#DejaVuSans-51"/>
       <use x="63.623047" xlink:href="#DejaVuSans-48"/>
       <use x="127.246094" xlink:href="#DejaVuSans-48"/>
      </g>
     </g>
    </g>
    <g id="xtick_5">
     <g id="line2d_5">
      <g>
       <use style="stroke:#000000;stroke-width:0.8;" x="236.363163" xlink:href="#m7aaa1f370c" y="307.584"/>
      </g>
     </g>
     <g id="text_5">
      <!-- 400 -->
      <defs>
       <path d="M 37.796875 64.3125 
L 12.890625 25.390625 
L 37.796875 25.390625 
z
M 35.203125 72.90625 
L 47.609375 72.90625 
L 47.609375 25.390625 
L 58.015625 25.390625 
L 58.015625 17.1875 
L 47.609375 17.1875 
L 47.609375 0 
L 37.796875 0 
L 37.796875 17.1875 
L 4.890625 17.1875 
L 4.890625 26.703125 
z
" id="DejaVuSans-52"/>
      </defs>
      <g transform="translate(226.819413 322.182437)scale(0.1 -0.1)">
       <use xlink:href="#DejaVuSans-52"/>
       <use x="63.623047" xlink:href="#DejaVuSans-48"/>
       <use x="127.246094" xlink:href="#DejaVuSans-48"/>
      </g>
     </g>
    </g>
    <g id="xtick_6">
     <g id="line2d_6">
      <g>
       <use style="stroke:#000000;stroke-width:0.8;" x="276.995772" xlink:href="#m7aaa1f370c" y="307.584"/>
      </g>
     </g>
     <g id="text_6">
      <!-- 500 -->
      <defs>
       <path d="M 10.796875 72.90625 
L 49.515625 72.90625 
L 49.515625 64.59375 
L 19.828125 64.59375 
L 19.828125 46.734375 
Q 21.96875 47.46875 24.109375 47.828125 
Q 26.265625 48.1875 28.421875 48.1875 
Q 40.625 48.1875 47.75 41.5 
Q 54.890625 34.8125 54.890625 23.390625 
Q 54.890625 11.625 47.5625 5.09375 
Q 40.234375 -1.421875 26.90625 -1.421875 
Q 22.3125 -1.421875 17.546875 -0.640625 
Q 12.796875 0.140625 7.71875 1.703125 
L 7.71875 11.625 
Q 12.109375 9.234375 16.796875 8.0625 
Q 21.484375 6.890625 26.703125 6.890625 
Q 35.15625 6.890625 40.078125 11.328125 
Q 45.015625 15.765625 45.015625 23.390625 
Q 45.015625 31 40.078125 35.4375 
Q 35.15625 39.890625 26.703125 39.890625 
Q 22.75 39.890625 18.8125 39.015625 
Q 14.890625 38.140625 10.796875 36.28125 
z
" id="DejaVuSans-53"/>
      </defs>
      <g transform="translate(267.452022 322.182437)scale(0.1 -0.1)">
       <use xlink:href="#DejaVuSans-53"/>
       <use x="63.623047" xlink:href="#DejaVuSans-48"/>
       <use x="127.246094" xlink:href="#DejaVuSans-48"/>
      </g>
     </g>
    </g>
    <g id="xtick_7">
     <g id="line2d_7">
      <g>
       <use style="stroke:#000000;stroke-width:0.8;" x="317.628381" xlink:href="#m7aaa1f370c" y="307.584"/>
      </g>
     </g>
     <g id="text_7">
      <!-- 600 -->
      <defs>
       <path d="M 33.015625 40.375 
Q 26.375 40.375 22.484375 35.828125 
Q 18.609375 31.296875 18.609375 23.390625 
Q 18.609375 15.53125 22.484375 10.953125 
Q 26.375 6.390625 33.015625 6.390625 
Q 39.65625 6.390625 43.53125 10.953125 
Q 47.40625 15.53125 47.40625 23.390625 
Q 47.40625 31.296875 43.53125 35.828125 
Q 39.65625 40.375 33.015625 40.375 
z
M 52.59375 71.296875 
L 52.59375 62.3125 
Q 48.875 64.0625 45.09375 64.984375 
Q 41.3125 65.921875 37.59375 65.921875 
Q 27.828125 65.921875 22.671875 59.328125 
Q 17.53125 52.734375 16.796875 39.40625 
Q 19.671875 43.65625 24.015625 45.921875 
Q 28.375 48.1875 33.59375 48.1875 
Q 44.578125 48.1875 50.953125 41.515625 
Q 57.328125 34.859375 57.328125 23.390625 
Q 57.328125 12.15625 50.6875 5.359375 
Q 44.046875 -1.421875 33.015625 -1.421875 
Q 20.359375 -1.421875 13.671875 8.265625 
Q 6.984375 17.96875 6.984375 36.375 
Q 6.984375 53.65625 15.1875 63.9375 
Q 23.390625 74.21875 37.203125 74.21875 
Q 40.921875 74.21875 44.703125 73.484375 
Q 48.484375 72.75 52.59375 71.296875 
z
" id="DejaVuSans-54"/>
      </defs>
      <g transform="translate(308.084631 322.182437)scale(0.1 -0.1)">
       <use xlink:href="#DejaVuSans-54"/>
       <use x="63.623047" xlink:href="#DejaVuSans-48"/>
       <use x="127.246094" xlink:href="#DejaVuSans-48"/>
      </g>
     </g>
    </g>
    <g id="xtick_8">
     <g id="line2d_8">
      <g>
       <use style="stroke:#000000;stroke-width:0.8;" x="358.26099" xlink:href="#m7aaa1f370c" y="307.584"/>
      </g>
     </g>
     <g id="text_8">
      <!-- 700 -->
      <defs>
       <path d="M 8.203125 72.90625 
L 55.078125 72.90625 
L 55.078125 68.703125 
L 28.609375 0 
L 18.3125 0 
L 43.21875 64.59375 
L 8.203125 64.59375 
z
" id="DejaVuSans-55"/>
      </defs>
      <g transform="translate(348.71724 322.182437)scale(0.1 -0.1)">
       <use xlink:href="#DejaVuSans-55"/>
       <use x="63.623047" xlink:href="#DejaVuSans-48"/>
       <use x="127.246094" xlink:href="#DejaVuSans-48"/>
      </g>
     </g>
    </g>
    <g id="xtick_9">
     <g id="line2d_9">
      <g>
       <use style="stroke:#000000;stroke-width:0.8;" x="398.893599" xlink:href="#m7aaa1f370c" y="307.584"/>
      </g>
     </g>
     <g id="text_9">
      <!-- 800 -->
      <defs>
       <path d="M 31.78125 34.625 
Q 24.75 34.625 20.71875 30.859375 
Q 16.703125 27.09375 16.703125 20.515625 
Q 16.703125 13.921875 20.71875 10.15625 
Q 24.75 6.390625 31.78125 6.390625 
Q 38.8125 6.390625 42.859375 10.171875 
Q 46.921875 13.96875 46.921875 20.515625 
Q 46.921875 27.09375 42.890625 30.859375 
Q 38.875 34.625 31.78125 34.625 
z
M 21.921875 38.8125 
Q 15.578125 40.375 12.03125 44.71875 
Q 8.5 49.078125 8.5 55.328125 
Q 8.5 64.0625 14.71875 69.140625 
Q 20.953125 74.21875 31.78125 74.21875 
Q 42.671875 74.21875 48.875 69.140625 
Q 55.078125 64.0625 55.078125 55.328125 
Q 55.078125 49.078125 51.53125 44.71875 
Q 48 40.375 41.703125 38.8125 
Q 48.828125 37.15625 52.796875 32.3125 
Q 56.78125 27.484375 56.78125 20.515625 
Q 56.78125 9.90625 50.3125 4.234375 
Q 43.84375 -1.421875 31.78125 -1.421875 
Q 19.734375 -1.421875 13.25 4.234375 
Q 6.78125 9.90625 6.78125 20.515625 
Q 6.78125 27.484375 10.78125 32.3125 
Q 14.796875 37.15625 21.921875 38.8125 
z
M 18.3125 54.390625 
Q 18.3125 48.734375 21.84375 45.5625 
Q 25.390625 42.390625 31.78125 42.390625 
Q 38.140625 42.390625 41.71875 45.5625 
Q 45.3125 48.734375 45.3125 54.390625 
Q 45.3125 60.0625 41.71875 63.234375 
Q 38.140625 66.40625 31.78125 66.40625 
Q 25.390625 66.40625 21.84375 63.234375 
Q 18.3125 60.0625 18.3125 54.390625 
z
" id="DejaVuSans-56"/>
      </defs>
      <g transform="translate(389.349849 322.182437)scale(0.1 -0.1)">
       <use xlink:href="#DejaVuSans-56"/>
       <use x="63.623047" xlink:href="#DejaVuSans-48"/>
       <use x="127.246094" xlink:href="#DejaVuSans-48"/>
      </g>
     </g>
    </g>
   </g>
   <g id="matplotlib.axis_2">
    <g id="ytick_1">
     <g id="line2d_10">
      <defs>
       <path d="M 0 0 
L -3.5 0 
" id="md8176ac2ed" style="stroke:#000000;stroke-width:0.8;"/>
      </defs>
      <g>
       <use style="stroke:#000000;stroke-width:0.8;" x="57.6" xlink:href="#md8176ac2ed" y="293.845956"/>
      </g>
     </g>
     <g id="text_10">
      <!-- 0.0 -->
      <defs>
       <path d="M 10.6875 12.40625 
L 21 12.40625 
L 21 0 
L 10.6875 0 
z
" id="DejaVuSans-46"/>
      </defs>
      <g transform="translate(34.696875 297.645175)scale(0.1 -0.1)">
       <use xlink:href="#DejaVuSans-48"/>
       <use x="63.623047" xlink:href="#DejaVuSans-46"/>
       <use x="95.410156" xlink:href="#DejaVuSans-48"/>
      </g>
     </g>
    </g>
    <g id="ytick_2">
     <g id="line2d_11">
      <g>
       <use style="stroke:#000000;stroke-width:0.8;" x="57.6" xlink:href="#md8176ac2ed" y="238.487707"/>
      </g>
     </g>
     <g id="text_11">
      <!-- 0.1 -->
      <g transform="translate(34.696875 242.286926)scale(0.1 -0.1)">
       <use xlink:href="#DejaVuSans-48"/>
       <use x="63.623047" xlink:href="#DejaVuSans-46"/>
       <use x="95.410156" xlink:href="#DejaVuSans-49"/>
      </g>
     </g>
    </g>
    <g id="ytick_3">
     <g id="line2d_12">
      <g>
       <use style="stroke:#000000;stroke-width:0.8;" x="57.6" xlink:href="#md8176ac2ed" y="183.129459"/>
      </g>
     </g>
     <g id="text_12">
      <!-- 0.2 -->
      <g transform="translate(34.696875 186.928677)scale(0.1 -0.1)">
       <use xlink:href="#DejaVuSans-48"/>
       <use x="63.623047" xlink:href="#DejaVuSans-46"/>
       <use x="95.410156" xlink:href="#DejaVuSans-50"/>
      </g>
     </g>
    </g>
    <g id="ytick_4">
     <g id="line2d_13">
      <g>
       <use style="stroke:#000000;stroke-width:0.8;" x="57.6" xlink:href="#md8176ac2ed" y="127.77121"/>
      </g>
     </g>
     <g id="text_13">
      <!-- 0.3 -->
      <g transform="translate(34.696875 131.570429)scale(0.1 -0.1)">
       <use xlink:href="#DejaVuSans-48"/>
       <use x="63.623047" xlink:href="#DejaVuSans-46"/>
       <use x="95.410156" xlink:href="#DejaVuSans-51"/>
      </g>
     </g>
    </g>
    <g id="ytick_5">
     <g id="line2d_14">
      <g>
       <use style="stroke:#000000;stroke-width:0.8;" x="57.6" xlink:href="#md8176ac2ed" y="72.412961"/>
      </g>
     </g>
     <g id="text_14">
      <!-- 0.4 -->
      <g transform="translate(34.696875 76.21218)scale(0.1 -0.1)">
       <use xlink:href="#DejaVuSans-48"/>
       <use x="63.623047" xlink:href="#DejaVuSans-46"/>
       <use x="95.410156" xlink:href="#DejaVuSans-52"/>
      </g>
     </g>
    </g>
   </g>
   <g id="line2d_15">
    <path clip-path="url(#p1c441082fd)" d="M 73.832727 55.056489 
L 76.270684 54.295638 
L 77.895988 53.881755 
L 79.114966 53.80467 
L 80.333945 53.961166 
L 81.552923 54.351626 
L 84.803532 55.296368 
L 85.616184 55.351635 
L 86.835162 55.181844 
L 88.460466 54.690037 
L 90.492097 54.039777 
L 91.711075 53.867951 
L 92.930053 53.929212 
L 94.555358 54.319749 
L 97.805967 55.249127 
L 99.024945 55.316448 
L 100.243923 55.152486 
L 101.869227 54.682872 
L 104.307184 53.968951 
L 105.526162 53.86275 
L 106.338814 54.029549 
L 107.964119 54.369637 
L 111.214728 55.199595 
L 112.433706 55.257701 
L 114.05901 55.023342 
L 118.528597 53.954592 
L 119.747575 53.977172 
L 121.779206 54.324195 
L 124.623488 54.91524 
L 126.248793 54.852227 
L 127.061445 54.803159 
L 127.467771 54.914274 
L 128.280423 54.675203 
L 133.156336 53.621381 
L 134.781641 53.727003 
L 135.594293 54.00448 
L 139.657554 54.877182 
L 140.876532 54.812591 
L 142.501836 54.489173 
L 145.346119 53.673641 
L 146.565097 53.568 
L 147.784076 53.672532 
L 149.003054 53.957735 
L 150.222032 54.403279 
L 152.659989 55.026353 
L 153.878967 54.985729 
L 155.097945 54.738691 
L 159.161206 53.624964 
L 160.380184 53.603436 
L 161.599163 53.801786 
L 162.818141 54.154061 
L 165.662423 55.133265 
L 166.06875 55.155804 
L 166.475076 54.996842 
L 167.694054 54.874265 
L 169.725684 54.32587 
L 171.350989 53.807204 
L 172.569967 53.591256 
L 172.976293 53.569737 
L 179.071184 54.956374 
L 180.696489 54.859062 
L 181.915467 54.598694 
L 183.134445 54.196173 
L 184.75975 53.784809 
L 185.978728 53.629649 
L 187.197706 53.655569 
L 188.823011 53.954267 
L 192.479945 54.80366 
L 194.10525 54.779178 
L 196.13688 54.245051 
L 197.355858 53.965528 
L 198.981163 53.657218 
L 200.200141 53.753639 
L 203.857076 54.552804 
L 204.669728 54.764054 
L 205.888706 54.861735 
L 208.326663 54.753224 
L 210.764619 54.290305 
L 212.79625 54.054703 
L 214.015228 54.046723 
L 215.640532 54.27964 
L 219.297467 55.010176 
L 220.516446 55.047383 
L 222.14175 54.832732 
L 226.611337 53.978852 
L 227.830315 54.024032 
L 229.45562 54.314932 
L 230.674598 54.605589 
L 231.080924 54.418169 
L 231.893576 54.655647 
L 232.706228 54.891534 
L 233.51888 54.93634 
L 233.925207 54.668397 
L 235.550511 54.553798 
L 238.394793 54.10804 
L 240.426424 54.031116 
L 242.458054 54.174365 
L 243.677033 54.43423 
L 244.083359 54.925823 
L 245.302337 54.943919 
L 251.803554 54.235619 
L 254.241511 54.348139 
L 258.711098 54.991318 
L 259.930076 54.911988 
L 261.961707 54.549045 
L 265.212315 53.981306 
L 266.83762 54.105138 
L 268.056598 54.391683 
L 270.900881 54.88909 
L 273.338837 54.957657 
L 274.151489 54.950294 
L 274.964142 54.861911 
L 275.776794 54.766672 
L 279.433729 54.040537 
L 280.652707 54.131754 
L 282.278011 54.503565 
L 285.122294 55.213893 
L 286.341272 55.28427 
L 287.966576 55.142454 
L 289.591881 54.655584 
L 289.998207 54.659157 
L 292.029837 54.161806 
L 293.248816 54.068616 
L 293.655142 54.38 
L 294.467794 54.43728 
L 294.87412 54.112068 
L 296.093098 54.440431 
L 297.718403 54.958335 
L 298.531055 55.051519 
L 299.343707 55.145842 
L 299.750033 55.069267 
L 300.156359 54.520146 
L 302.18799 54.471652 
L 305.032272 54.245511 
L 305.438598 53.955023 
L 305.844924 54.123087 
L 306.657577 54.076682 
L 307.063903 54.376528 
L 307.470229 54.405958 
L 307.876555 54.69349 
L 308.282881 54.720585 
L 309.501859 55.177666 
L 311.53349 54.964325 
L 314.377772 54.637559 
L 316.409403 54.763557 
L 322.504294 55.209777 
L 329.411838 54.702062 
L 332.25612 55.022605 
L 334.694077 55.205962 
L 336.319381 55.12768 
L 341.195294 54.522204 
L 341.60162 54.504947 
L 342.414272 54.645197 
L 344.445903 54.797029 
L 345.664881 55.093285 
L 347.696512 55.141542 
L 348.509164 55.094013 
L 349.728142 55.533654 
L 351.353446 55.175465 
L 351.759772 55.285968 
L 352.572425 55.189396 
L 356.229359 54.691698 
L 357.854664 54.890944 
L 359.073642 55.161584 
L 359.479968 55.462955 
L 359.886294 55.556231 
L 360.698946 56.231219 
L 361.511599 56.353535 
L 361.917925 56.340504 
L 362.324251 56.493551 
L 362.730577 56.419174 
L 363.136903 56.5124 
L 363.543229 56.383223 
L 363.949555 56.417259 
L 364.355881 56.240004 
L 364.762207 56.365359 
L 366.387512 55.562866 
L 368.012816 55.726825 
L 369.231794 56.071914 
L 369.63812 56.017826 
L 370.044446 56.183625 
L 370.450773 56.175447 
L 370.857099 56.616625 
L 371.263425 56.869616 
L 372.076077 56.900291 
L 372.888729 57.150089 
L 373.701381 57.225451 
L 376.545664 57.306066 
L 376.95199 57.357988 
L 378.98362 57.109755 
L 379.796273 57.580842 
L 380.608925 57.430513 
L 381.421577 57.800661 
L 381.827903 58.163432 
L 385.078512 57.575628 
L 385.484838 57.903684 
L 386.29749 57.844145 
L 386.703816 58.112397 
L 388.32912 58.118136 
L 389.141773 58.240256 
L 391.579729 58.300009 
L 394.017686 58.283705 
L 396.861968 58.385426 
L 397.268294 58.726624 
L 398.487273 58.586635 
L 398.487273 58.586635 
" style="fill:none;stroke:#1f77b4;stroke-linecap:square;stroke-width:1.5;"/>
   </g>
   <g id="line2d_16">
    <path clip-path="url(#p1c441082fd)" d="M 73.832727 54.039153 
L 75.864358 54.668728 
L 77.489662 55.125466 
L 78.70864 55.265829 
L 79.927619 55.17451 
L 81.552923 54.750031 
L 83.99088 54.007667 
L 85.209858 53.859344 
L 86.428836 53.943321 
L 88.05414 54.364682 
L 90.898423 55.224573 
L 92.117401 55.334882 
L 93.33638 55.212056 
L 94.961684 54.766602 
L 97.39964 54.033864 
L 98.618619 53.885767 
L 99.837597 53.964779 
L 101.462901 54.3689 
L 104.307184 55.188893 
L 105.526162 55.294488 
L 106.745141 55.178615 
L 108.370445 54.77127 
L 110.808401 54.096576 
L 112.02738 53.961362 
L 113.246358 54.031519 
L 114.871662 54.393425 
L 117.715945 55.141734 
L 118.934923 55.247632 
L 120.153901 55.149293 
L 121.779206 54.751204 
L 125.029815 53.837549 
L 126.248793 53.724899 
L 127.467771 53.791195 
L 129.093075 54.126772 
L 131.937358 54.792171 
L 133.156336 54.870784 
L 134.375315 54.756833 
L 136.000619 54.356094 
L 138.438575 53.707184 
L 139.657554 53.584076 
L 140.876532 53.666836 
L 142.501836 54.048448 
L 145.346119 54.83279 
L 146.565097 54.936885 
L 147.784076 54.82442 
L 149.40938 54.406069 
L 151.847336 53.722912 
L 153.066315 53.606113 
L 154.285293 53.715173 
L 155.910597 54.14323 
L 158.348554 54.872979 
L 159.567532 55.026077 
L 160.78651 54.951692 
L 162.411815 54.547216 
L 165.256097 53.69121 
L 166.475076 53.599019 
L 167.694054 53.73857 
L 169.319358 54.188035 
L 171.757315 54.907464 
L 172.976293 55.033524 
L 174.195271 54.930896 
L 175.820576 54.535117 
L 178.664858 53.776267 
L 179.883837 53.680651 
L 181.102815 53.786815 
L 182.728119 54.156086 
L 185.166076 54.722139 
L 186.385054 54.807826 
L 187.604032 54.705853 
L 189.229337 54.336467 
L 191.667293 53.727531 
L 192.886271 53.616485 
L 194.10525 53.694423 
L 195.730554 54.039398 
L 198.574837 54.729899 
L 199.793815 54.822756 
L 201.012793 54.739443 
L 203.044424 54.330445 
L 205.076054 53.943379 
L 206.701359 53.886807 
L 208.326663 54.119556 
L 212.79625 55.064532 
L 214.015228 55.066856 
L 215.640532 54.82093 
L 219.297467 54.053353 
L 220.922772 54.029867 
L 222.548076 54.276136 
L 226.205011 55.009398 
L 227.830315 54.991431 
L 229.45562 54.707067 
L 233.112554 53.948988 
L 234.737859 53.912861 
L 236.769489 54.130516 
L 240.020098 54.547472 
L 242.051728 54.528814 
L 246.114989 54.292565 
L 248.14662 54.511526 
L 251.397228 54.959804 
L 253.022533 54.928103 
L 255.054163 54.610456 
L 257.898446 54.157418 
L 259.52375 54.163634 
L 261.555381 54.463622 
L 264.805989 54.940308 
L 266.431294 54.86211 
L 268.462924 54.473913 
L 270.900881 54.038955 
L 272.526185 54.018803 
L 274.151489 54.274399 
L 278.21475 55.233277 
L 279.433729 55.314064 
L 280.652707 55.198735 
L 282.278011 54.829229 
L 285.122294 54.100797 
L 286.341272 54.019394 
L 287.56025 54.14173 
L 289.185555 54.541999 
L 291.623511 55.201464 
L 292.842489 55.349881 
L 294.061468 55.299556 
L 295.686772 55.004506 
L 299.343707 54.044657 
L 300.969011 53.974407 
L 303.000642 54.124155 
L 307.470229 54.5602 
L 310.720837 54.820545 
L 314.377772 55.240412 
L 316.409403 55.164603 
L 321.691642 54.690376 
L 323.723272 54.837977 
L 327.786533 55.24824 
L 329.411838 55.194084 
L 331.849794 54.890676 
L 334.287751 54.632181 
L 336.319381 54.662482 
L 342.007946 55.093213 
L 344.445903 54.838943 
L 346.883859 54.592452 
L 348.91549 54.640854 
L 350.540794 54.869803 
L 355.010381 55.732725 
L 356.635686 55.691803 
L 358.26099 55.400262 
L 361.105272 54.819822 
L 362.324251 54.851507 
L 363.543229 55.137252 
L 365.168533 55.782064 
L 367.60649 56.796137 
L 368.825468 57.062103 
L 370.044446 57.148699 
L 372.076077 57.006939 
L 374.92036 56.813192 
L 376.95199 56.931796 
L 380.202599 57.465153 
L 385.891164 58.386941 
L 387.516468 58.375684 
L 387.922794 58.569019 
L 390.767077 58.269619 
L 391.986055 58.172753 
L 392.798707 58.184882 
L 396.049316 58.0467 
L 398.487273 58.200583 
L 398.487273 58.200583 
" style="fill:none;stroke:#ff0000;stroke-linecap:square;stroke-width:1.5;"/>
   </g>
   <g id="line2d_17">
    <path clip-path="url(#p1c441082fd)" d="M 73.832727 294.863292 
L 75.458032 293.883834 
L 77.083336 292.866637 
L 77.895988 292.531018 
L 78.70864 292.385233 
L 79.521293 292.447564 
L 80.333945 292.711927 
L 81.146597 293.144564 
L 83.178227 294.599383 
L 84.397206 295.16221 
L 85.209858 295.343493 
L 86.02251 295.2785 
L 86.835162 295.006488 
L 88.05414 294.312035 
L 90.492097 292.746095 
L 91.304749 292.446624 
L 92.117401 292.376343 
L 92.930053 292.497334 
L 93.742706 292.816174 
L 95.36801 293.801699 
L 96.993314 294.80988 
L 97.805967 295.134054 
L 98.618619 295.274414 
L 99.431271 295.217943 
L 100.243923 294.959122 
L 101.462901 294.295018 
L 103.900858 292.792806 
L 104.71351 292.504314 
L 105.526162 292.414219 
L 108.370445 293.560595 
L 110.402075 294.718469 
L 111.621054 295.102866 
L 112.433706 295.141777 
L 113.246358 294.996186 
L 114.465336 294.483738 
L 117.715945 292.776275 
L 118.934923 292.537261 
L 119.747575 292.619094 
L 120.966554 293.040717 
L 121.779206 293.418947 
L 124.623488 294.848761 
L 125.029815 294.933358 
L 125.842467 294.963754 
L 127.467771 294.969035 
L 127.874097 294.84137 
L 129.093075 294.195902 
L 131.531032 292.963363 
L 132.75001 292.669007 
L 133.562662 292.612451 
L 134.781641 292.895977 
L 136.406945 293.839179 
L 138.032249 294.721241 
L 139.251228 295.092977 
L 140.06388 295.135889 
L 141.282858 294.861056 
L 142.501836 294.286681 
L 144.939793 292.880725 
L 145.752445 292.572688 
L 146.565097 292.477072 
L 147.377749 292.578031 
L 148.190402 292.855499 
L 149.003054 293.273451 
L 150.222032 294.100276 
L 151.847336 295.054423 
L 152.659989 295.25199 
L 153.472641 295.250652 
L 154.285293 295.055099 
L 155.504271 294.454469 
L 158.348554 292.727766 
L 159.161206 292.471982 
L 159.973858 292.408378 
L 160.78651 292.53689 
L 162.005489 293.072828 
L 163.224467 293.885051 
L 164.443445 294.762643 
L 165.256097 295.256894 
L 166.06875 295.39982 
L 166.881402 295.200926 
L 167.694054 294.981651 
L 169.319358 294.119075 
L 171.350989 292.834522 
L 172.163641 292.513652 
L 172.976293 292.382169 
L 175.007924 293.037706 
L 176.633228 293.977469 
L 178.258532 294.838924 
L 179.071184 295.079983 
L 179.883837 295.126586 
L 181.102815 294.852881 
L 181.915467 294.497703 
L 183.540771 293.543665 
L 184.75975 292.975702 
L 185.978728 292.675348 
L 186.79138 292.679283 
L 187.604032 292.845177 
L 188.823011 293.354999 
L 192.073619 294.944495 
L 192.886271 295.052546 
L 194.10525 294.930711 
L 195.324228 294.392593 
L 197.762185 293.133848 
L 198.981163 292.721984 
L 199.793815 292.714898 
L 200.606467 292.893481 
L 203.044424 293.892414 
L 205.076054 294.718898 
L 206.295032 294.833174 
L 207.107685 294.81564 
L 208.732989 294.290527 
L 209.545641 293.94852 
L 210.764619 293.405472 
L 211.983598 293.020292 
L 213.202576 292.79566 
L 214.015228 292.825823 
L 215.234206 293.144907 
L 216.859511 293.878411 
L 218.484815 294.583443 
L 219.703793 294.865417 
L 220.516446 294.885038 
L 221.735424 294.625732 
L 222.954402 294.128198 
L 225.392359 293.030325 
L 226.611337 292.794837 
L 227.423989 292.817284 
L 228.236641 292.983081 
L 229.45562 293.453821 
L 230.674598 294.033778 
L 231.080924 293.948264 
L 233.112554 294.828874 
L 233.51888 294.868935 
L 233.925207 294.612537 
L 235.144185 294.514646 
L 236.769489 294.068747 
L 239.207446 293.385794 
L 240.426424 293.312218 
L 242.458054 293.523123 
L 243.677033 293.906113 
L 244.083359 294.44003 
L 245.302337 294.51476 
L 247.740294 294.116571 
L 251.397228 293.133743 
L 253.022533 293.107036 
L 254.241511 293.433049 
L 257.898446 294.658453 
L 259.117424 294.689453 
L 259.930076 294.554197 
L 264.805989 292.898193 
L 266.024968 292.950194 
L 266.83762 293.147484 
L 268.462924 293.844295 
L 270.088228 294.489967 
L 271.307207 294.755134 
L 272.526185 294.89079 
L 274.557815 294.427729 
L 278.21475 292.772937 
L 279.433729 292.57243 
L 280.246381 292.668895 
L 281.465359 293.092868 
L 285.52862 295.056458 
L 286.341272 295.110832 
L 287.56025 294.932077 
L 288.779229 294.320707 
L 290.404533 293.493327 
L 291.623511 292.880553 
L 292.436163 292.637813 
L 293.248816 292.560315 
L 293.655142 292.889663 
L 294.467794 293.035561 
L 294.87412 292.768484 
L 295.686772 293.1787 
L 297.312076 294.163219 
L 297.718403 294.417354 
L 298.531055 294.712647 
L 299.343707 294.947142 
L 299.750033 294.911965 
L 300.156359 294.384229 
L 301.375337 294.3815 
L 303.000642 294.116898 
L 303.813294 293.914735 
L 304.21962 293.941019 
L 305.032272 293.704847 
L 305.438598 293.373388 
L 305.844924 293.50357 
L 306.657577 293.395724 
L 307.063903 293.669066 
L 307.470229 293.691715 
L 307.876555 293.960004 
L 308.282881 293.967171 
L 309.501859 294.354536 
L 311.127163 293.989736 
L 313.56512 293.325461 
L 314.784098 293.244742 
L 316.003077 293.363541 
L 318.847359 294.037601 
L 320.472664 294.336505 
L 322.097968 294.388311 
L 324.129598 294.016646 
L 327.380207 293.294595 
L 328.599185 293.267904 
L 329.818164 293.420518 
L 334.694077 294.434429 
L 335.913055 294.369327 
L 337.132033 294.111251 
L 340.788968 293.275795 
L 341.60162 293.241422 
L 342.414272 293.424094 
L 344.039577 293.715177 
L 344.852229 293.987852 
L 345.664881 294.255177 
L 347.290185 294.416492 
L 348.91549 294.453677 
L 349.728142 294.6499 
L 355.010381 292.845074 
L 356.229359 292.807788 
L 357.448338 293.08984 
L 359.073642 293.799275 
L 359.479968 294.20022 
L 359.886294 294.386513 
L 360.698946 295.213187 
L 361.105272 295.370416 
L 362.324251 295.488 
L 362.730577 295.34605 
L 363.136903 295.341244 
L 363.543229 295.091927 
L 363.949555 294.986993 
L 364.355881 294.649023 
L 364.762207 294.604406 
L 366.387512 293.071807 
L 367.60649 292.669617 
L 368.419142 292.732059 
L 368.825468 292.879562 
L 369.63812 292.728349 
L 370.044446 292.880882 
L 370.450773 292.880191 
L 370.857099 293.346253 
L 371.263425 293.633427 
L 372.076077 293.739309 
L 373.295055 294.183886 
L 375.733012 294.338231 
L 376.545664 294.254631 
L 376.95199 294.272149 
L 378.98362 293.703232 
L 379.796273 294.033121 
L 380.608925 293.737793 
L 381.827903 294.23464 
L 384.672186 293.184122 
L 385.078512 293.079125 
L 385.484838 293.386696 
L 386.29749 293.293745 
L 386.703816 293.577558 
L 387.516468 293.565108 
L 387.922794 293.381993 
L 388.32912 293.421976 
L 389.141773 293.636548 
L 391.579729 293.959108 
L 394.017686 294.022128 
L 396.455642 294.190394 
L 396.861968 294.162321 
L 397.268294 294.484222 
L 398.487273 294.232009 
L 398.487273 294.232009 
" style="fill:none;stroke:#008000;stroke-linecap:square;stroke-width:1.5;"/>
   </g>
   <g id="patch_3">
    <path d="M 57.6 307.584 
L 57.6 41.472 
" style="fill:none;stroke:#000000;stroke-linecap:square;stroke-linejoin:miter;stroke-width:0.8;"/>
   </g>
   <g id="patch_4">
    <path d="M 414.72 307.584 
L 414.72 41.472 
" style="fill:none;stroke:#000000;stroke-linecap:square;stroke-linejoin:miter;stroke-width:0.8;"/>
   </g>
   <g id="patch_5">
    <path d="M 57.6 307.584 
L 414.72 307.584 
" style="fill:none;stroke:#000000;stroke-linecap:square;stroke-linejoin:miter;stroke-width:0.8;"/>
   </g>
   <g id="patch_6">
    <path d="M 57.6 41.472 
L 414.72 41.472 
" style="fill:none;stroke:#000000;stroke-linecap:square;stroke-linejoin:miter;stroke-width:0.8;"/>
   </g>
   <g id="legend_1">
    <g id="patch_7">
     <path d="M 351.0075 198.045187 
L 407.72 198.045187 
Q 409.72 198.045187 409.72 196.045187 
L 409.72 153.010812 
Q 409.72 151.010812 407.72 151.010812 
L 351.0075 151.010812 
Q 349.0075 151.010812 349.0075 153.010812 
L 349.0075 196.045187 
Q 349.0075 198.045187 351.0075 198.045187 
z
" style="fill:#ffffff;opacity:0.8;stroke:#cccccc;stroke-linejoin:miter;"/>
    </g>
    <g id="line2d_18">
     <path d="M 353.0075 159.10925 
L 373.0075 159.10925 
" style="fill:none;stroke:#1f77b4;stroke-linecap:square;stroke-width:1.5;"/>
    </g>
    <g id="line2d_19"/>
    <g id="text_15">
     <!-- 0-&gt;1 -->
     <defs>
      <path d="M 4.890625 31.390625 
L 31.203125 31.390625 
L 31.203125 23.390625 
L 4.890625 23.390625 
z
" id="DejaVuSans-45"/>
      <path d="M 10.59375 49.21875 
L 10.59375 58.109375 
L 73.1875 35.40625 
L 73.1875 27.296875 
L 10.59375 4.59375 
L 10.59375 13.484375 
L 60.890625 31.296875 
z
" id="DejaVuSans-62"/>
     </defs>
     <g transform="translate(381.0075 162.60925)scale(0.1 -0.1)">
      <use xlink:href="#DejaVuSans-48"/>
      <use x="63.623047" xlink:href="#DejaVuSans-45"/>
      <use x="99.707031" xlink:href="#DejaVuSans-62"/>
      <use x="183.496094" xlink:href="#DejaVuSans-49"/>
     </g>
    </g>
    <g id="line2d_20">
     <path d="M 353.0075 173.787375 
L 373.0075 173.787375 
" style="fill:none;stroke:#ff0000;stroke-linecap:square;stroke-width:1.5;"/>
    </g>
    <g id="line2d_21"/>
    <g id="text_16">
     <!-- 1-&gt;0 -->
     <g transform="translate(381.0075 177.287375)scale(0.1 -0.1)">
      <use xlink:href="#DejaVuSans-49"/>
      <use x="63.623047" xlink:href="#DejaVuSans-45"/>
      <use x="99.707031" xlink:href="#DejaVuSans-62"/>
      <use x="183.496094" xlink:href="#DejaVuSans-48"/>
     </g>
    </g>
    <g id="line2d_22">
     <path d="M 353.0075 188.4655 
L 373.0075 188.4655 
" style="fill:none;stroke:#008000;stroke-linecap:square;stroke-width:1.5;"/>
    </g>
    <g id="line2d_23"/>
    <g id="text_17">
     <!-- diff -->
     <defs>
      <path d="M 45.40625 46.390625 
L 45.40625 75.984375 
L 54.390625 75.984375 
L 54.390625 0 
L 45.40625 0 
L 45.40625 8.203125 
Q 42.578125 3.328125 38.25 0.953125 
Q 33.9375 -1.421875 27.875 -1.421875 
Q 17.96875 -1.421875 11.734375 6.484375 
Q 5.515625 14.40625 5.515625 27.296875 
Q 5.515625 40.1875 11.734375 48.09375 
Q 17.96875 56 27.875 56 
Q 33.9375 56 38.25 53.625 
Q 42.578125 51.265625 45.40625 46.390625 
z
M 14.796875 27.296875 
Q 14.796875 17.390625 18.875 11.75 
Q 22.953125 6.109375 30.078125 6.109375 
Q 37.203125 6.109375 41.296875 11.75 
Q 45.40625 17.390625 45.40625 27.296875 
Q 45.40625 37.203125 41.296875 42.84375 
Q 37.203125 48.484375 30.078125 48.484375 
Q 22.953125 48.484375 18.875 42.84375 
Q 14.796875 37.203125 14.796875 27.296875 
z
" id="DejaVuSans-100"/>
      <path d="M 9.421875 54.6875 
L 18.40625 54.6875 
L 18.40625 0 
L 9.421875 0 
z
M 9.421875 75.984375 
L 18.40625 75.984375 
L 18.40625 64.59375 
L 9.421875 64.59375 
z
" id="DejaVuSans-105"/>
      <path d="M 37.109375 75.984375 
L 37.109375 68.5 
L 28.515625 68.5 
Q 23.6875 68.5 21.796875 66.546875 
Q 19.921875 64.59375 19.921875 59.515625 
L 19.921875 54.6875 
L 34.71875 54.6875 
L 34.71875 47.703125 
L 19.921875 47.703125 
L 19.921875 0 
L 10.890625 0 
L 10.890625 47.703125 
L 2.296875 47.703125 
L 2.296875 54.6875 
L 10.890625 54.6875 
L 10.890625 58.5 
Q 10.890625 67.625 15.140625 71.796875 
Q 19.390625 75.984375 28.609375 75.984375 
z
" id="DejaVuSans-102"/>
     </defs>
     <g transform="translate(381.0075 191.9655)scale(0.1 -0.1)">
      <use xlink:href="#DejaVuSans-100"/>
      <use x="63.476562" xlink:href="#DejaVuSans-105"/>
      <use x="91.259766" xlink:href="#DejaVuSans-102"/>
      <use x="126.464844" xlink:href="#DejaVuSans-102"/>
     </g>
    </g>
   </g>
  </g>
 </g>
 <defs>
  <clipPath id="p1c441082fd">
   <rect height="266.112" width="357.12" x="57.6" y="41.472"/>
  </clipPath>
 </defs>
</svg>
