<?xml version="1.0" encoding="utf-8" standalone="no"?>
<!DOCTYPE svg PUBLIC "-//W3C//DTD SVG 1.1//EN"
  "http://www.w3.org/Graphics/SVG/1.1/DTD/svg11.dtd">
<!-- Created with matplotlib (https://matplotlib.org/) -->
<svg height="345.6pt" version="1.1" viewBox="0 0 460.8 345.6" width="460.8pt" xmlns="http://www.w3.org/2000/svg" xmlns:xlink="http://www.w3.org/1999/xlink">
 <defs>
  <style type="text/css">
*{stroke-linecap:butt;stroke-linejoin:round;}
  </style>
 </defs>
 <g id="figure_1">
  <g id="patch_1">
   <path d="M 0 345.6 
L 460.8 345.6 
L 460.8 0 
L 0 0 
z
" style="fill:#ffffff;"/>
  </g>
  <g id="axes_1">
   <g id="patch_2">
    <path d="M 57.6 307.584 
L 414.72 307.584 
L 414.72 41.472 
L 57.6 41.472 
z
" style="fill:#ffffff;"/>
   </g>
   <g id="matplotlib.axis_1">
    <g id="xtick_1">
     <g id="line2d_1">
      <defs>
       <path d="M 0 0 
L 0 3.5 
" id="me5acf6b124" style="stroke:#000000;stroke-width:0.8;"/>
      </defs>
      <g>
       <use style="stroke:#000000;stroke-width:0.8;" x="73.832727" xlink:href="#me5acf6b124" y="307.584"/>
      </g>
     </g>
     <g id="text_1">
      <!-- 0 -->
      <defs>
       <path d="M 31.78125 66.40625 
Q 24.171875 66.40625 20.328125 58.90625 
Q 16.5 51.421875 16.5 36.375 
Q 16.5 21.390625 20.328125 13.890625 
Q 24.171875 6.390625 31.78125 6.390625 
Q 39.453125 6.390625 43.28125 13.890625 
Q 47.125 21.390625 47.125 36.375 
Q 47.125 51.421875 43.28125 58.90625 
Q 39.453125 66.40625 31.78125 66.40625 
z
M 31.78125 74.21875 
Q 44.046875 74.21875 50.515625 64.515625 
Q 56.984375 54.828125 56.984375 36.375 
Q 56.984375 17.96875 50.515625 8.265625 
Q 44.046875 -1.421875 31.78125 -1.421875 
Q 19.53125 -1.421875 13.0625 8.265625 
Q 6.59375 17.96875 6.59375 36.375 
Q 6.59375 54.828125 13.0625 64.515625 
Q 19.53125 74.21875 31.78125 74.21875 
z
" id="DejaVuSans-48"/>
      </defs>
      <g transform="translate(70.651477 322.182437)scale(0.1 -0.1)">
       <use xlink:href="#DejaVuSans-48"/>
      </g>
     </g>
    </g>
    <g id="xtick_2">
     <g id="line2d_2">
      <g>
       <use style="stroke:#000000;stroke-width:0.8;" x="114.465336" xlink:href="#me5acf6b124" y="307.584"/>
      </g>
     </g>
     <g id="text_2">
      <!-- 100 -->
      <defs>
       <path d="M 12.40625 8.296875 
L 28.515625 8.296875 
L 28.515625 63.921875 
L 10.984375 60.40625 
L 10.984375 69.390625 
L 28.421875 72.90625 
L 38.28125 72.90625 
L 38.28125 8.296875 
L 54.390625 8.296875 
L 54.390625 0 
L 12.40625 0 
z
" id="DejaVuSans-49"/>
      </defs>
      <g transform="translate(104.921586 322.182437)scale(0.1 -0.1)">
       <use xlink:href="#DejaVuSans-49"/>
       <use x="63.623047" xlink:href="#DejaVuSans-48"/>
       <use x="127.246094" xlink:href="#DejaVuSans-48"/>
      </g>
     </g>
    </g>
    <g id="xtick_3">
     <g id="line2d_3">
      <g>
       <use style="stroke:#000000;stroke-width:0.8;" x="155.097945" xlink:href="#me5acf6b124" y="307.584"/>
      </g>
     </g>
     <g id="text_3">
      <!-- 200 -->
      <defs>
       <path d="M 19.1875 8.296875 
L 53.609375 8.296875 
L 53.609375 0 
L 7.328125 0 
L 7.328125 8.296875 
Q 12.9375 14.109375 22.625 23.890625 
Q 32.328125 33.6875 34.8125 36.53125 
Q 39.546875 41.84375 41.421875 45.53125 
Q 43.3125 49.21875 43.3125 52.78125 
Q 43.3125 58.59375 39.234375 62.25 
Q 35.15625 65.921875 28.609375 65.921875 
Q 23.96875 65.921875 18.8125 64.3125 
Q 13.671875 62.703125 7.8125 59.421875 
L 7.8125 69.390625 
Q 13.765625 71.78125 18.9375 73 
Q 24.125 74.21875 28.421875 74.21875 
Q 39.75 74.21875 46.484375 68.546875 
Q 53.21875 62.890625 53.21875 53.421875 
Q 53.21875 48.921875 51.53125 44.890625 
Q 49.859375 40.875 45.40625 35.40625 
Q 44.1875 33.984375 37.640625 27.21875 
Q 31.109375 20.453125 19.1875 8.296875 
z
" id="DejaVuSans-50"/>
      </defs>
      <g transform="translate(145.554195 322.182437)scale(0.1 -0.1)">
       <use xlink:href="#DejaVuSans-50"/>
       <use x="63.623047" xlink:href="#DejaVuSans-48"/>
       <use x="127.246094" xlink:href="#DejaVuSans-48"/>
      </g>
     </g>
    </g>
    <g id="xtick_4">
     <g id="line2d_4">
      <g>
       <use style="stroke:#000000;stroke-width:0.8;" x="195.730554" xlink:href="#me5acf6b124" y="307.584"/>
      </g>
     </g>
     <g id="text_4">
      <!-- 300 -->
      <defs>
       <path d="M 40.578125 39.3125 
Q 47.65625 37.796875 51.625 33 
Q 55.609375 28.21875 55.609375 21.1875 
Q 55.609375 10.40625 48.1875 4.484375 
Q 40.765625 -1.421875 27.09375 -1.421875 
Q 22.515625 -1.421875 17.65625 -0.515625 
Q 12.796875 0.390625 7.625 2.203125 
L 7.625 11.71875 
Q 11.71875 9.328125 16.59375 8.109375 
Q 21.484375 6.890625 26.8125 6.890625 
Q 36.078125 6.890625 40.9375 10.546875 
Q 45.796875 14.203125 45.796875 21.1875 
Q 45.796875 27.640625 41.28125 31.265625 
Q 36.765625 34.90625 28.71875 34.90625 
L 20.21875 34.90625 
L 20.21875 43.015625 
L 29.109375 43.015625 
Q 36.375 43.015625 40.234375 45.921875 
Q 44.09375 48.828125 44.09375 54.296875 
Q 44.09375 59.90625 40.109375 62.90625 
Q 36.140625 65.921875 28.71875 65.921875 
Q 24.65625 65.921875 20.015625 65.03125 
Q 15.375 64.15625 9.8125 62.3125 
L 9.8125 71.09375 
Q 15.4375 72.65625 20.34375 73.4375 
Q 25.25 74.21875 29.59375 74.21875 
Q 40.828125 74.21875 47.359375 69.109375 
Q 53.90625 64.015625 53.90625 55.328125 
Q 53.90625 49.265625 50.4375 45.09375 
Q 46.96875 40.921875 40.578125 39.3125 
z
" id="DejaVuSans-51"/>
      </defs>
      <g transform="translate(186.186804 322.182437)scale(0.1 -0.1)">
       <use xlink:href="#DejaVuSans-51"/>
       <use x="63.623047" xlink:href="#DejaVuSans-48"/>
       <use x="127.246094" xlink:href="#DejaVuSans-48"/>
      </g>
     </g>
    </g>
    <g id="xtick_5">
     <g id="line2d_5">
      <g>
       <use style="stroke:#000000;stroke-width:0.8;" x="236.363163" xlink:href="#me5acf6b124" y="307.584"/>
      </g>
     </g>
     <g id="text_5">
      <!-- 400 -->
      <defs>
       <path d="M 37.796875 64.3125 
L 12.890625 25.390625 
L 37.796875 25.390625 
z
M 35.203125 72.90625 
L 47.609375 72.90625 
L 47.609375 25.390625 
L 58.015625 25.390625 
L 58.015625 17.1875 
L 47.609375 17.1875 
L 47.609375 0 
L 37.796875 0 
L 37.796875 17.1875 
L 4.890625 17.1875 
L 4.890625 26.703125 
z
" id="DejaVuSans-52"/>
      </defs>
      <g transform="translate(226.819413 322.182437)scale(0.1 -0.1)">
       <use xlink:href="#DejaVuSans-52"/>
       <use x="63.623047" xlink:href="#DejaVuSans-48"/>
       <use x="127.246094" xlink:href="#DejaVuSans-48"/>
      </g>
     </g>
    </g>
    <g id="xtick_6">
     <g id="line2d_6">
      <g>
       <use style="stroke:#000000;stroke-width:0.8;" x="276.995772" xlink:href="#me5acf6b124" y="307.584"/>
      </g>
     </g>
     <g id="text_6">
      <!-- 500 -->
      <defs>
       <path d="M 10.796875 72.90625 
L 49.515625 72.90625 
L 49.515625 64.59375 
L 19.828125 64.59375 
L 19.828125 46.734375 
Q 21.96875 47.46875 24.109375 47.828125 
Q 26.265625 48.1875 28.421875 48.1875 
Q 40.625 48.1875 47.75 41.5 
Q 54.890625 34.8125 54.890625 23.390625 
Q 54.890625 11.625 47.5625 5.09375 
Q 40.234375 -1.421875 26.90625 -1.421875 
Q 22.3125 -1.421875 17.546875 -0.640625 
Q 12.796875 0.140625 7.71875 1.703125 
L 7.71875 11.625 
Q 12.109375 9.234375 16.796875 8.0625 
Q 21.484375 6.890625 26.703125 6.890625 
Q 35.15625 6.890625 40.078125 11.328125 
Q 45.015625 15.765625 45.015625 23.390625 
Q 45.015625 31 40.078125 35.4375 
Q 35.15625 39.890625 26.703125 39.890625 
Q 22.75 39.890625 18.8125 39.015625 
Q 14.890625 38.140625 10.796875 36.28125 
z
" id="DejaVuSans-53"/>
      </defs>
      <g transform="translate(267.452022 322.182437)scale(0.1 -0.1)">
       <use xlink:href="#DejaVuSans-53"/>
       <use x="63.623047" xlink:href="#DejaVuSans-48"/>
       <use x="127.246094" xlink:href="#DejaVuSans-48"/>
      </g>
     </g>
    </g>
    <g id="xtick_7">
     <g id="line2d_7">
      <g>
       <use style="stroke:#000000;stroke-width:0.8;" x="317.628381" xlink:href="#me5acf6b124" y="307.584"/>
      </g>
     </g>
     <g id="text_7">
      <!-- 600 -->
      <defs>
       <path d="M 33.015625 40.375 
Q 26.375 40.375 22.484375 35.828125 
Q 18.609375 31.296875 18.609375 23.390625 
Q 18.609375 15.53125 22.484375 10.953125 
Q 26.375 6.390625 33.015625 6.390625 
Q 39.65625 6.390625 43.53125 10.953125 
Q 47.40625 15.53125 47.40625 23.390625 
Q 47.40625 31.296875 43.53125 35.828125 
Q 39.65625 40.375 33.015625 40.375 
z
M 52.59375 71.296875 
L 52.59375 62.3125 
Q 48.875 64.0625 45.09375 64.984375 
Q 41.3125 65.921875 37.59375 65.921875 
Q 27.828125 65.921875 22.671875 59.328125 
Q 17.53125 52.734375 16.796875 39.40625 
Q 19.671875 43.65625 24.015625 45.921875 
Q 28.375 48.1875 33.59375 48.1875 
Q 44.578125 48.1875 50.953125 41.515625 
Q 57.328125 34.859375 57.328125 23.390625 
Q 57.328125 12.15625 50.6875 5.359375 
Q 44.046875 -1.421875 33.015625 -1.421875 
Q 20.359375 -1.421875 13.671875 8.265625 
Q 6.984375 17.96875 6.984375 36.375 
Q 6.984375 53.65625 15.1875 63.9375 
Q 23.390625 74.21875 37.203125 74.21875 
Q 40.921875 74.21875 44.703125 73.484375 
Q 48.484375 72.75 52.59375 71.296875 
z
" id="DejaVuSans-54"/>
      </defs>
      <g transform="translate(308.084631 322.182437)scale(0.1 -0.1)">
       <use xlink:href="#DejaVuSans-54"/>
       <use x="63.623047" xlink:href="#DejaVuSans-48"/>
       <use x="127.246094" xlink:href="#DejaVuSans-48"/>
      </g>
     </g>
    </g>
    <g id="xtick_8">
     <g id="line2d_8">
      <g>
       <use style="stroke:#000000;stroke-width:0.8;" x="358.26099" xlink:href="#me5acf6b124" y="307.584"/>
      </g>
     </g>
     <g id="text_8">
      <!-- 700 -->
      <defs>
       <path d="M 8.203125 72.90625 
L 55.078125 72.90625 
L 55.078125 68.703125 
L 28.609375 0 
L 18.3125 0 
L 43.21875 64.59375 
L 8.203125 64.59375 
z
" id="DejaVuSans-55"/>
      </defs>
      <g transform="translate(348.71724 322.182437)scale(0.1 -0.1)">
       <use xlink:href="#DejaVuSans-55"/>
       <use x="63.623047" xlink:href="#DejaVuSans-48"/>
       <use x="127.246094" xlink:href="#DejaVuSans-48"/>
      </g>
     </g>
    </g>
    <g id="xtick_9">
     <g id="line2d_9">
      <g>
       <use style="stroke:#000000;stroke-width:0.8;" x="398.893599" xlink:href="#me5acf6b124" y="307.584"/>
      </g>
     </g>
     <g id="text_9">
      <!-- 800 -->
      <defs>
       <path d="M 31.78125 34.625 
Q 24.75 34.625 20.71875 30.859375 
Q 16.703125 27.09375 16.703125 20.515625 
Q 16.703125 13.921875 20.71875 10.15625 
Q 24.75 6.390625 31.78125 6.390625 
Q 38.8125 6.390625 42.859375 10.171875 
Q 46.921875 13.96875 46.921875 20.515625 
Q 46.921875 27.09375 42.890625 30.859375 
Q 38.875 34.625 31.78125 34.625 
z
M 21.921875 38.8125 
Q 15.578125 40.375 12.03125 44.71875 
Q 8.5 49.078125 8.5 55.328125 
Q 8.5 64.0625 14.71875 69.140625 
Q 20.953125 74.21875 31.78125 74.21875 
Q 42.671875 74.21875 48.875 69.140625 
Q 55.078125 64.0625 55.078125 55.328125 
Q 55.078125 49.078125 51.53125 44.71875 
Q 48 40.375 41.703125 38.8125 
Q 48.828125 37.15625 52.796875 32.3125 
Q 56.78125 27.484375 56.78125 20.515625 
Q 56.78125 9.90625 50.3125 4.234375 
Q 43.84375 -1.421875 31.78125 -1.421875 
Q 19.734375 -1.421875 13.25 4.234375 
Q 6.78125 9.90625 6.78125 20.515625 
Q 6.78125 27.484375 10.78125 32.3125 
Q 14.796875 37.15625 21.921875 38.8125 
z
M 18.3125 54.390625 
Q 18.3125 48.734375 21.84375 45.5625 
Q 25.390625 42.390625 31.78125 42.390625 
Q 38.140625 42.390625 41.71875 45.5625 
Q 45.3125 48.734375 45.3125 54.390625 
Q 45.3125 60.0625 41.71875 63.234375 
Q 38.140625 66.40625 31.78125 66.40625 
Q 25.390625 66.40625 21.84375 63.234375 
Q 18.3125 60.0625 18.3125 54.390625 
z
" id="DejaVuSans-56"/>
      </defs>
      <g transform="translate(389.349849 322.182437)scale(0.1 -0.1)">
       <use xlink:href="#DejaVuSans-56"/>
       <use x="63.623047" xlink:href="#DejaVuSans-48"/>
       <use x="127.246094" xlink:href="#DejaVuSans-48"/>
      </g>
     </g>
    </g>
   </g>
   <g id="matplotlib.axis_2">
    <g id="ytick_1">
     <g id="line2d_10">
      <defs>
       <path d="M 0 0 
L -3.5 0 
" id="m5d47ed60dc" style="stroke:#000000;stroke-width:0.8;"/>
      </defs>
      <g>
       <use style="stroke:#000000;stroke-width:0.8;" x="57.6" xlink:href="#m5d47ed60dc" y="293.128078"/>
      </g>
     </g>
     <g id="text_10">
      <!-- 0.0 -->
      <defs>
       <path d="M 10.6875 12.40625 
L 21 12.40625 
L 21 0 
L 10.6875 0 
z
" id="DejaVuSans-46"/>
      </defs>
      <g transform="translate(34.696875 296.927296)scale(0.1 -0.1)">
       <use xlink:href="#DejaVuSans-48"/>
       <use x="63.623047" xlink:href="#DejaVuSans-46"/>
       <use x="95.410156" xlink:href="#DejaVuSans-48"/>
      </g>
     </g>
    </g>
    <g id="ytick_2">
     <g id="line2d_11">
      <g>
       <use style="stroke:#000000;stroke-width:0.8;" x="57.6" xlink:href="#m5d47ed60dc" y="236.984273"/>
      </g>
     </g>
     <g id="text_11">
      <!-- 0.1 -->
      <g transform="translate(34.696875 240.783491)scale(0.1 -0.1)">
       <use xlink:href="#DejaVuSans-48"/>
       <use x="63.623047" xlink:href="#DejaVuSans-46"/>
       <use x="95.410156" xlink:href="#DejaVuSans-49"/>
      </g>
     </g>
    </g>
    <g id="ytick_3">
     <g id="line2d_12">
      <g>
       <use style="stroke:#000000;stroke-width:0.8;" x="57.6" xlink:href="#m5d47ed60dc" y="180.840468"/>
      </g>
     </g>
     <g id="text_12">
      <!-- 0.2 -->
      <g transform="translate(34.696875 184.639687)scale(0.1 -0.1)">
       <use xlink:href="#DejaVuSans-48"/>
       <use x="63.623047" xlink:href="#DejaVuSans-46"/>
       <use x="95.410156" xlink:href="#DejaVuSans-50"/>
      </g>
     </g>
    </g>
    <g id="ytick_4">
     <g id="line2d_13">
      <g>
       <use style="stroke:#000000;stroke-width:0.8;" x="57.6" xlink:href="#m5d47ed60dc" y="124.696663"/>
      </g>
     </g>
     <g id="text_13">
      <!-- 0.3 -->
      <g transform="translate(34.696875 128.495882)scale(0.1 -0.1)">
       <use xlink:href="#DejaVuSans-48"/>
       <use x="63.623047" xlink:href="#DejaVuSans-46"/>
       <use x="95.410156" xlink:href="#DejaVuSans-51"/>
      </g>
     </g>
    </g>
    <g id="ytick_5">
     <g id="line2d_14">
      <g>
       <use style="stroke:#000000;stroke-width:0.8;" x="57.6" xlink:href="#m5d47ed60dc" y="68.552858"/>
      </g>
     </g>
     <g id="text_14">
      <!-- 0.4 -->
      <g transform="translate(34.696875 72.352077)scale(0.1 -0.1)">
       <use xlink:href="#DejaVuSans-48"/>
       <use x="63.623047" xlink:href="#DejaVuSans-46"/>
       <use x="95.410156" xlink:href="#DejaVuSans-52"/>
      </g>
     </g>
    </g>
   </g>
   <g id="line2d_15">
    <path clip-path="url(#p99da3abba8)" d="M 73.832727 56.404523 
L 74.645379 56.544766 
L 75.864358 57.017858 
L 79.114966 58.550168 
L 79.927619 58.689281 
L 80.740271 58.658332 
L 81.959249 58.311748 
L 83.584553 57.483473 
L 85.209858 56.664817 
L 86.428836 56.330619 
L 87.241488 56.307797 
L 88.05414 56.451517 
L 89.273119 56.92462 
L 92.117401 58.311707 
L 93.33638 58.559293 
L 94.149032 58.524321 
L 95.36801 58.171657 
L 96.993314 57.344013 
L 98.618619 56.530257 
L 99.837597 56.198166 
L 100.650249 56.173832 
L 101.462901 56.314327 
L 102.68188 56.78048 
L 105.932488 58.288258 
L 106.745141 58.422561 
L 107.557793 58.389703 
L 108.776771 58.054807 
L 110.402075 57.242427 
L 112.02738 56.43211 
L 113.246358 56.094049 
L 114.05901 56.062332 
L 114.871662 56.192955 
L 116.090641 56.643944 
L 119.341249 58.135423 
L 120.153901 58.278504 
L 120.966554 58.260687 
L 122.185532 57.935395 
L 123.810836 57.132514 
L 125.842467 56.173954 
L 127.061445 55.938162 
L 127.874097 55.982701 
L 129.093075 56.333984 
L 130.71838 57.128058 
L 132.343684 57.87529 
L 133.562662 58.145957 
L 134.375315 58.130748 
L 135.594293 57.819767 
L 137.219597 57.023798 
L 139.251228 56.071215 
L 140.06388 55.868755 
L 140.876532 55.826643 
L 141.689184 55.944733 
L 142.908162 56.374845 
L 146.158771 57.864116 
L 146.971423 58.015685 
L 147.784076 58.005522 
L 149.003054 57.698282 
L 150.222032 57.140959 
L 152.659989 55.946458 
L 153.878967 55.678297 
L 154.691619 55.703928 
L 155.504271 55.899499 
L 156.72325 56.405341 
L 159.567532 57.711267 
L 160.380184 57.868579 
L 161.192837 57.865801 
L 162.411815 57.566947 
L 163.630793 56.999095 
L 166.06875 55.800172 
L 167.287728 55.539948 
L 168.10038 55.564255 
L 169.319358 55.881089 
L 170.944663 56.651428 
L 172.569967 57.402356 
L 173.382619 57.630365 
L 175.41425 57.467466 
L 176.633228 57.011764 
L 179.883837 55.54554 
L 180.696489 55.40324 
L 181.915467 55.481328 
L 183.134445 55.872502 
L 186.79138 57.402186 
L 187.604032 57.492202 
L 188.416684 57.429083 
L 189.635663 57.072099 
L 191.667293 56.094991 
L 192.886271 55.585421 
L 194.10525 55.31805 
L 194.917902 55.324723 
L 196.13688 55.610099 
L 197.762185 56.331191 
L 199.387489 57.068032 
L 200.606467 57.36286 
L 201.825445 57.324321 
L 203.044424 56.969273 
L 205.076054 55.987587 
L 206.295032 55.467472 
L 207.514011 55.2 
L 208.326663 55.204406 
L 209.545641 55.48542 
L 211.170946 56.210063 
L 212.79625 56.936618 
L 214.015228 57.237815 
L 215.234206 57.216009 
L 216.453185 56.869779 
L 218.484815 55.905129 
L 220.110119 55.254566 
L 221.329098 55.08275 
L 222.548076 55.252195 
L 223.767054 55.702258 
L 226.611337 56.941403 
L 227.830315 57.144917 
L 228.642967 57.094241 
L 229.861946 56.749446 
L 231.893576 55.794738 
L 233.51888 55.145371 
L 234.737859 54.974237 
L 235.956837 55.138201 
L 237.175815 55.578467 
L 240.020098 56.819394 
L 241.239076 57.034958 
L 242.051728 56.995487 
L 243.270707 56.712689 
L 245.302337 55.761541 
L 246.927641 55.087486 
L 248.14662 54.880258 
L 248.959272 54.931987 
L 250.17825 55.283749 
L 252.209881 56.234209 
L 253.428859 56.726403 
L 254.647837 56.955931 
L 255.460489 56.92418 
L 256.679468 56.607633 
L 258.304772 55.862585 
L 259.930076 55.118136 
L 261.149054 54.814234 
L 262.368033 54.829079 
L 263.587011 55.168798 
L 265.618641 56.091883 
L 266.83762 56.585141 
L 268.056598 56.805995 
L 268.86925 56.774644 
L 269.681902 56.596264 
L 271.307207 55.919638 
L 273.338837 54.983305 
L 274.557815 54.676134 
L 275.370468 54.654522 
L 276.589446 54.888962 
L 278.21475 55.567558 
L 280.246381 56.424941 
L 281.465359 56.660896 
L 282.278011 56.638342 
L 283.496989 56.335882 
L 284.715968 55.753036 
L 286.341272 54.96216 
L 287.56025 54.583244 
L 288.372902 54.491223 
L 289.591881 54.632581 
L 291.217185 55.199382 
L 293.248816 56.091521 
L 294.467794 56.39648 
L 295.280446 56.443703 
L 296.499424 56.242645 
L 298.124729 55.586449 
L 300.156359 54.662004 
L 301.375337 54.358969 
L 302.594316 54.375434 
L 303.813294 54.69606 
L 305.844924 55.605618 
L 307.470229 56.203503 
L 308.689207 56.340639 
L 309.908185 56.15106 
L 311.127163 55.691916 
L 313.971446 54.445748 
L 315.190424 54.229189 
L 316.409403 54.321042 
L 317.222055 54.540498 
L 319.253685 55.466758 
L 320.87899 56.092338 
L 322.097968 56.238519 
L 323.316946 56.058012 
L 324.535924 55.603984 
L 327.380207 54.33644 
L 328.599185 54.116725 
L 329.818164 54.233837 
L 331.037142 54.639895 
L 334.287751 56.001222 
L 335.100403 56.165565 
L 336.319381 56.089196 
L 337.538359 55.715502 
L 341.195294 54.169507 
L 342.414272 54.054684 
L 343.633251 54.26962 
L 344.852229 54.746185 
L 347.290185 55.82652 
L 348.509164 56.091895 
L 349.321816 56.081091 
L 350.540794 55.799125 
L 352.166099 55.074267 
L 353.791403 54.328494 
L 355.010381 54.011303 
L 356.229359 53.996909 
L 357.448338 54.293492 
L 359.073642 55.012462 
L 360.698946 55.702261 
L 361.917925 55.96496 
L 363.136903 55.903004 
L 364.355881 55.530938 
L 368.419142 53.88522 
L 369.231794 53.835812 
L 370.450773 54.037677 
L 371.669751 54.494462 
L 374.514033 55.685125 
L 375.733012 55.84823 
L 376.95199 55.682802 
L 378.170968 55.238602 
L 381.421577 53.848408 
L 382.640555 53.715954 
L 383.859534 53.901789 
L 385.078512 54.354 
L 387.922794 55.54373 
L 389.141773 55.710173 
L 389.954425 55.638006 
L 391.173403 55.281173 
L 395.236664 53.626496 
L 396.455642 53.59481 
L 397.674621 53.88271 
L 398.487273 54.208852 
L 398.487273 54.208852 
" style="fill:none;stroke:#1f77b4;stroke-linecap:square;stroke-width:1.5;"/>
   </g>
   <g id="line2d_16">
    <path clip-path="url(#p99da3abba8)" d="M 73.832727 58.770044 
L 75.051706 58.451943 
L 76.270684 57.877322 
L 78.70864 56.631212 
L 79.927619 56.347258 
L 80.740271 56.369816 
L 81.552923 56.550184 
L 82.771901 57.069044 
L 85.616184 58.442798 
L 86.428836 58.626064 
L 87.241488 58.630382 
L 88.05414 58.478098 
L 88.866793 58.181164 
L 92.117401 56.521509 
L 93.33638 56.240396 
L 94.149032 56.255299 
L 95.36801 56.581439 
L 96.993314 57.371334 
L 98.618619 58.154773 
L 99.837597 58.468565 
L 100.650249 58.477671 
L 101.462901 58.322623 
L 102.68188 57.836917 
L 105.932488 56.274708 
L 106.745141 56.124332 
L 107.557793 56.137399 
L 108.370445 56.312304 
L 109.589423 56.817857 
L 112.433706 58.150555 
L 113.246358 58.327391 
L 114.05901 58.341923 
L 114.871662 58.197658 
L 116.090641 57.725427 
L 119.341249 56.164122 
L 120.153901 56.008607 
L 120.966554 56.012297 
L 121.779206 56.173967 
L 122.998184 56.667242 
L 125.842467 58.019999 
L 127.061445 58.234689 
L 127.874097 58.175536 
L 129.093075 57.792312 
L 131.124706 56.746525 
L 132.343684 56.187076 
L 133.562662 55.892298 
L 134.375315 55.895056 
L 135.594293 56.188043 
L 137.219597 56.950612 
L 138.844902 57.733234 
L 140.06388 58.063837 
L 140.876532 58.093586 
L 141.689184 57.962371 
L 142.908162 57.507473 
L 146.158771 55.949984 
L 147.377749 55.759625 
L 148.190402 55.831422 
L 149.40938 56.21361 
L 153.472641 57.902735 
L 154.285293 57.948024 
L 155.097945 57.83138 
L 156.316923 57.391957 
L 159.973858 55.704308 
L 160.78651 55.609713 
L 161.599163 55.678629 
L 162.818141 56.040133 
L 164.443445 56.841263 
L 166.06875 57.561499 
L 167.287728 57.785107 
L 168.10038 57.745452 
L 169.319358 57.399771 
L 171.350989 56.384299 
L 172.569967 55.805178 
L 173.788945 55.487992 
L 174.601597 55.465299 
L 175.820576 55.713004 
L 177.039554 56.217454 
L 179.477511 57.316779 
L 180.696489 57.559877 
L 181.509141 57.53157 
L 182.728119 57.212847 
L 184.353424 56.449936 
L 185.978728 55.69196 
L 187.197706 55.379228 
L 188.010358 55.351658 
L 189.229337 55.589715 
L 190.448315 56.085734 
L 192.886271 57.183179 
L 194.10525 57.431847 
L 194.917902 57.41754 
L 196.13688 57.115434 
L 197.762185 56.365789 
L 199.387489 55.59852 
L 200.606467 55.275661 
L 201.419119 55.245495 
L 202.638098 55.477097 
L 203.857076 55.970231 
L 206.295032 57.065342 
L 207.514011 57.313994 
L 208.326663 57.294636 
L 209.545641 56.991958 
L 211.170946 56.249765 
L 212.79625 55.501299 
L 214.015228 55.178964 
L 214.82788 55.143039 
L 216.046859 55.367971 
L 217.672163 56.050825 
L 219.703793 56.950984 
L 220.922772 57.20596 
L 221.735424 57.19244 
L 222.954402 56.891307 
L 224.579706 56.145953 
L 226.205011 55.389033 
L 227.423989 55.069232 
L 228.236641 55.029361 
L 229.45562 55.248385 
L 230.674598 55.727185 
L 233.112554 56.814208 
L 234.331533 57.073596 
L 235.144185 57.064395 
L 236.363163 56.782441 
L 237.988467 56.061544 
L 240.020098 55.162398 
L 241.239076 54.928539 
L 242.051728 54.957763 
L 243.270707 55.266313 
L 244.896011 56.002507 
L 246.521315 56.727356 
L 247.740294 57.009608 
L 248.552946 57.017093 
L 249.771924 56.740844 
L 251.397228 56.01414 
L 253.428859 55.102182 
L 254.647837 54.846275 
L 255.460489 54.864569 
L 256.679468 55.158184 
L 258.304772 55.879072 
L 259.930076 56.586717 
L 261.149054 56.856101 
L 261.961707 56.864266 
L 263.180685 56.598471 
L 264.805989 55.89354 
L 266.83762 54.982436 
L 268.056598 54.727884 
L 268.86925 54.742163 
L 270.088228 55.02784 
L 271.713533 55.729519 
L 273.338837 56.437271 
L 274.557815 56.718456 
L 275.776794 56.678054 
L 276.995772 56.322994 
L 281.059033 54.650266 
L 281.871685 54.582501 
L 283.090663 54.760075 
L 284.309642 55.205405 
L 287.153924 56.388767 
L 288.372902 56.552328 
L 289.591881 56.39061 
L 290.810859 55.95225 
L 294.061468 54.515553 
L 295.280446 54.36992 
L 296.499424 54.552343 
L 297.718403 55.00097 
L 300.562685 56.208859 
L 301.781663 56.394755 
L 303.000642 56.253375 
L 304.21962 55.827526 
L 307.470229 54.431246 
L 308.689207 54.276008 
L 309.908185 54.446759 
L 311.127163 54.886832 
L 313.971446 56.09614 
L 315.190424 56.289247 
L 316.409403 56.156798 
L 317.628381 55.734969 
L 320.87899 54.310308 
L 322.097968 54.140973 
L 323.316946 54.304049 
L 324.535924 54.756955 
L 327.380207 55.997479 
L 328.599185 56.205288 
L 329.411838 56.160879 
L 330.630816 55.817302 
L 334.694077 54.151367 
L 335.506729 54.079843 
L 336.725707 54.249528 
L 337.944685 54.691034 
L 340.788968 55.936727 
L 342.007946 56.150728 
L 343.226925 56.021567 
L 344.445903 55.600176 
L 347.696512 54.16802 
L 348.91549 53.998264 
L 350.134468 54.161664 
L 351.353446 54.603864 
L 354.197729 55.844036 
L 355.416707 56.052221 
L 356.229359 56.008737 
L 357.448338 55.677176 
L 359.073642 54.924002 
L 360.698946 54.192073 
L 361.917925 53.907579 
L 362.730577 53.898102 
L 363.949555 54.155844 
L 365.574859 54.848732 
L 367.60649 55.702943 
L 368.825468 55.913567 
L 370.044446 55.793321 
L 371.263425 55.383793 
L 374.92036 53.859749 
L 376.139338 53.783599 
L 377.358316 54.029764 
L 378.98362 54.70908 
L 381.015251 55.56505 
L 382.234229 55.785294 
L 383.046881 55.752792 
L 384.26586 55.434973 
L 386.29749 54.486252 
L 387.922794 53.826691 
L 389.141773 53.630298 
L 390.360751 53.764454 
L 391.579729 54.185269 
L 394.424012 55.413615 
L 395.64299 55.649565 
L 396.455642 55.622941 
L 397.674621 55.316458 
L 398.487273 54.977514 
L 398.487273 54.977514 
" style="fill:none;stroke:#ff0000;stroke-linecap:square;stroke-width:1.5;"/>
   </g>
   <g id="line2d_17">
    <path clip-path="url(#p99da3abba8)" d="M 73.832727 290.762556 
L 74.645379 291.086295 
L 75.458032 291.676542 
L 76.67701 292.917219 
L 78.302314 294.59865 
L 79.114966 295.180315 
L 79.927619 295.4701 
L 80.740271 295.416593 
L 81.552923 295.041234 
L 82.365575 294.389333 
L 85.616184 291.202682 
L 86.428836 290.832632 
L 87.241488 290.805492 
L 88.05414 291.101497 
L 88.866793 291.686232 
L 92.523727 295.1669 
L 93.33638 295.446975 
L 94.149032 295.397099 
L 94.961684 295.012588 
L 95.774336 294.361768 
L 99.024945 291.216893 
L 99.837597 290.857679 
L 100.650249 290.824238 
L 101.462901 291.119781 
L 102.275554 291.701897 
L 103.494532 292.913853 
L 105.119836 294.568182 
L 105.932488 295.141628 
L 106.745141 295.426306 
L 107.557793 295.380381 
L 108.370445 295.017556 
L 109.183097 294.378947 
L 110.808401 292.699135 
L 112.02738 291.550182 
L 112.840032 291.041078 
L 113.652684 290.830569 
L 114.465336 290.947284 
L 115.277988 291.372453 
L 116.090641 292.046594 
L 118.934923 294.842272 
L 119.747575 295.286355 
L 120.560228 295.427355 
L 121.37288 295.24336 
L 122.185532 294.752673 
L 123.40451 293.608454 
L 125.436141 291.579317 
L 126.248793 291.055507 
L 127.061445 290.83155 
L 127.874097 290.935242 
L 128.686749 291.350766 
L 129.905728 292.432451 
L 131.937358 294.495385 
L 132.75001 295.076197 
L 133.562662 295.381737 
L 134.375315 295.363769 
L 135.187967 295.033712 
L 136.000619 294.425607 
L 138.032249 292.357242 
L 139.251228 291.322146 
L 140.06388 290.932996 
L 140.876532 290.861135 
L 141.689184 291.11044 
L 142.501836 291.645667 
L 143.720815 292.823801 
L 145.346119 294.458595 
L 146.158771 295.04221 
L 146.971423 295.356815 
L 147.784076 295.359586 
L 148.596728 295.037408 
L 149.40938 294.45142 
L 151.034684 292.8377 
L 152.253663 291.678091 
L 153.066315 291.129436 
L 153.878967 290.860669 
L 154.691619 290.922465 
L 155.504271 291.311888 
L 156.316923 291.949805 
L 159.567532 295.029275 
L 160.380184 295.360136 
L 161.192837 295.369905 
L 162.005489 295.063176 
L 162.818141 294.489237 
L 164.037119 293.281154 
L 165.662423 291.661954 
L 166.475076 291.130677 
L 167.287728 290.882919 
L 168.10038 290.946881 
L 168.913032 291.319902 
L 169.725684 291.959045 
L 172.976293 294.999684 
L 173.382619 295.20114 
L 174.601597 295.278649 
L 175.41425 294.999579 
L 176.226902 294.45848 
L 177.44588 293.318845 
L 179.071184 291.778407 
L 179.883837 291.240754 
L 180.696489 290.971441 
L 181.509141 291.014636 
L 182.321793 291.355523 
L 183.134445 291.954898 
L 186.385054 294.876506 
L 187.197706 295.214649 
L 188.010358 295.25594 
L 188.823011 294.99405 
L 189.635663 294.468032 
L 190.854641 293.353084 
L 192.479945 291.826301 
L 193.292598 291.291915 
L 194.10525 291.014281 
L 194.917902 291.035261 
L 195.730554 291.360454 
L 196.543206 291.93867 
L 198.168511 293.503473 
L 199.387489 294.59759 
L 200.200141 295.077434 
L 201.012793 295.270835 
L 201.825445 295.164376 
L 202.638098 294.769137 
L 203.857076 293.761456 
L 205.888706 291.829442 
L 206.701359 291.288026 
L 207.514011 291.014084 
L 208.326663 291.037847 
L 209.139315 291.361067 
L 209.951967 291.937289 
L 211.577272 293.491829 
L 212.79625 294.563396 
L 213.608902 295.045917 
L 214.421554 295.253726 
L 215.234206 295.161735 
L 216.046859 294.776126 
L 217.265837 293.781535 
L 219.703793 291.556772 
L 220.516446 291.132538 
L 221.329098 290.992567 
L 222.14175 291.16258 
L 222.954402 291.613342 
L 224.17338 292.66501 
L 226.205011 294.545549 
L 227.017663 295.030005 
L 227.830315 295.242477 
L 228.642967 295.155308 
L 229.45562 294.772212 
L 230.674598 293.796744 
L 233.112554 291.585922 
L 233.925207 291.157714 
L 234.737859 291.014299 
L 235.550511 291.172159 
L 236.363163 291.604994 
L 237.582141 292.63098 
L 239.613772 294.507585 
L 240.426424 295.003881 
L 241.239076 295.234497 
L 242.051728 295.165801 
L 242.86438 294.803793 
L 243.677033 294.246895 
L 245.302337 292.687118 
L 246.521315 291.623962 
L 247.333967 291.162346 
L 248.14662 290.975633 
L 248.959272 291.102319 
L 249.771924 291.52389 
L 250.990902 292.547258 
L 253.022533 294.458477 
L 253.835185 294.984628 
L 254.647837 295.237734 
L 255.460489 295.187688 
L 256.273141 294.843277 
L 257.085794 294.260308 
L 260.336402 291.401443 
L 261.149054 291.086211 
L 261.961707 291.053372 
L 262.774359 291.312826 
L 263.587011 291.846507 
L 264.805989 292.939039 
L 266.431294 294.451249 
L 267.243946 294.958869 
L 268.056598 295.206189 
L 268.86925 295.160559 
L 269.681902 294.821008 
L 270.900881 293.891629 
L 273.338837 291.674112 
L 274.151489 291.216993 
L 274.964142 291.031532 
L 275.776794 291.147314 
L 276.589446 291.545043 
L 277.808424 292.541708 
L 279.840055 294.412139 
L 280.652707 294.928565 
L 281.465359 295.191166 
L 282.278011 295.160306 
L 283.090663 294.835598 
L 283.903316 294.27046 
L 286.341272 291.969305 
L 287.153924 291.418251 
L 287.966576 291.11408 
L 288.779229 291.096318 
L 289.591881 291.370049 
L 290.810859 292.194401 
L 293.655142 294.702586 
L 294.467794 295.093722 
L 295.280446 295.20186 
L 296.093098 295.015079 
L 296.90575 294.558686 
L 298.124729 293.527342 
L 300.156359 291.708245 
L 300.969011 291.248915 
L 301.781663 291.061075 
L 302.594316 291.167209 
L 303.406968 291.552644 
L 304.21962 292.156899 
L 307.063903 294.667931 
L 307.876555 295.067148 
L 308.689207 295.192708 
L 309.501859 295.022145 
L 310.314511 294.581305 
L 311.53349 293.563489 
L 313.56512 291.741626 
L 314.377772 291.271478 
L 315.190424 291.06802 
L 316.003077 291.161162 
L 316.815729 291.490877 
L 317.628381 292.096592 
L 320.87899 294.910108 
L 321.691642 295.191591 
L 322.504294 295.183972 
L 323.316946 294.88204 
L 324.129598 294.3239 
L 325.754903 292.806949 
L 326.973881 291.736657 
L 327.786533 291.255702 
L 328.599185 291.039514 
L 329.411838 291.125177 
L 330.22449 291.50161 
L 331.443468 292.490192 
L 333.881425 294.648705 
L 334.694077 295.092122 
L 335.506729 295.224615 
L 336.319381 295.059448 
L 337.132033 294.625473 
L 338.351011 293.603286 
L 340.382642 291.745526 
L 341.195294 291.252955 
L 342.007946 291.033101 
L 342.820598 291.118418 
L 343.633251 291.488691 
L 344.445903 292.092136 
L 347.696512 294.904567 
L 348.509164 295.201776 
L 349.321816 295.192906 
L 350.134468 294.891525 
L 350.94712 294.338697 
L 352.572425 292.815908 
L 353.791403 291.746563 
L 354.604055 291.269317 
L 355.416707 291.045442 
L 356.229359 291.116249 
L 357.042012 291.473725 
L 357.854664 292.067886 
L 361.105272 294.88563 
L 361.917925 295.185458 
L 362.730577 295.190201 
L 363.543229 294.898813 
L 364.355881 294.356738 
L 365.981186 292.848539 
L 367.200164 291.779196 
L 368.012816 291.28608 
L 368.825468 291.057298 
L 369.63812 291.129184 
L 370.450773 291.480574 
L 371.263425 292.063552 
L 374.514033 294.856521 
L 375.326686 295.156464 
L 376.139338 295.173733 
L 376.95199 294.896332 
L 377.764642 294.366188 
L 379.389947 292.87936 
L 380.608925 291.804634 
L 381.421577 291.303103 
L 382.234229 291.068546 
L 383.046881 291.116476 
L 383.859534 291.456188 
L 384.672186 292.043698 
L 387.922794 294.845116 
L 388.735447 295.159442 
L 389.548099 295.183424 
L 390.360751 294.908853 
L 391.173403 294.391268 
L 392.798707 292.897205 
L 394.017686 291.821592 
L 394.830338 291.312291 
L 395.64299 291.057227 
L 396.455642 291.099946 
L 397.268294 291.432945 
L 398.080947 292.00696 
L 398.487273 292.359415 
L 398.487273 292.359415 
" style="fill:none;stroke:#008000;stroke-linecap:square;stroke-width:1.5;"/>
   </g>
   <g id="patch_3">
    <path d="M 57.6 307.584 
L 57.6 41.472 
" style="fill:none;stroke:#000000;stroke-linecap:square;stroke-linejoin:miter;stroke-width:0.8;"/>
   </g>
   <g id="patch_4">
    <path d="M 414.72 307.584 
L 414.72 41.472 
" style="fill:none;stroke:#000000;stroke-linecap:square;stroke-linejoin:miter;stroke-width:0.8;"/>
   </g>
   <g id="patch_5">
    <path d="M 57.6 307.584 
L 414.72 307.584 
" style="fill:none;stroke:#000000;stroke-linecap:square;stroke-linejoin:miter;stroke-width:0.8;"/>
   </g>
   <g id="patch_6">
    <path d="M 57.6 41.472 
L 414.72 41.472 
" style="fill:none;stroke:#000000;stroke-linecap:square;stroke-linejoin:miter;stroke-width:0.8;"/>
   </g>
   <g id="legend_1">
    <g id="patch_7">
     <path d="M 351.0075 198.045187 
L 407.72 198.045187 
Q 409.72 198.045187 409.72 196.045187 
L 409.72 153.010812 
Q 409.72 151.010812 407.72 151.010812 
L 351.0075 151.010812 
Q 349.0075 151.010812 349.0075 153.010812 
L 349.0075 196.045187 
Q 349.0075 198.045187 351.0075 198.045187 
z
" style="fill:#ffffff;opacity:0.8;stroke:#cccccc;stroke-linejoin:miter;"/>
    </g>
    <g id="line2d_18">
     <path d="M 353.0075 159.10925 
L 373.0075 159.10925 
" style="fill:none;stroke:#1f77b4;stroke-linecap:square;stroke-width:1.5;"/>
    </g>
    <g id="line2d_19"/>
    <g id="text_15">
     <!-- 0-&gt;1 -->
     <defs>
      <path d="M 4.890625 31.390625 
L 31.203125 31.390625 
L 31.203125 23.390625 
L 4.890625 23.390625 
z
" id="DejaVuSans-45"/>
      <path d="M 10.59375 49.21875 
L 10.59375 58.109375 
L 73.1875 35.40625 
L 73.1875 27.296875 
L 10.59375 4.59375 
L 10.59375 13.484375 
L 60.890625 31.296875 
z
" id="DejaVuSans-62"/>
     </defs>
     <g transform="translate(381.0075 162.60925)scale(0.1 -0.1)">
      <use xlink:href="#DejaVuSans-48"/>
      <use x="63.623047" xlink:href="#DejaVuSans-45"/>
      <use x="99.707031" xlink:href="#DejaVuSans-62"/>
      <use x="183.496094" xlink:href="#DejaVuSans-49"/>
     </g>
    </g>
    <g id="line2d_20">
     <path d="M 353.0075 173.787375 
L 373.0075 173.787375 
" style="fill:none;stroke:#ff0000;stroke-linecap:square;stroke-width:1.5;"/>
    </g>
    <g id="line2d_21"/>
    <g id="text_16">
     <!-- 1-&gt;0 -->
     <g transform="translate(381.0075 177.287375)scale(0.1 -0.1)">
      <use xlink:href="#DejaVuSans-49"/>
      <use x="63.623047" xlink:href="#DejaVuSans-45"/>
      <use x="99.707031" xlink:href="#DejaVuSans-62"/>
      <use x="183.496094" xlink:href="#DejaVuSans-48"/>
     </g>
    </g>
    <g id="line2d_22">
     <path d="M 353.0075 188.4655 
L 373.0075 188.4655 
" style="fill:none;stroke:#008000;stroke-linecap:square;stroke-width:1.5;"/>
    </g>
    <g id="line2d_23"/>
    <g id="text_17">
     <!-- diff -->
     <defs>
      <path d="M 45.40625 46.390625 
L 45.40625 75.984375 
L 54.390625 75.984375 
L 54.390625 0 
L 45.40625 0 
L 45.40625 8.203125 
Q 42.578125 3.328125 38.25 0.953125 
Q 33.9375 -1.421875 27.875 -1.421875 
Q 17.96875 -1.421875 11.734375 6.484375 
Q 5.515625 14.40625 5.515625 27.296875 
Q 5.515625 40.1875 11.734375 48.09375 
Q 17.96875 56 27.875 56 
Q 33.9375 56 38.25 53.625 
Q 42.578125 51.265625 45.40625 46.390625 
z
M 14.796875 27.296875 
Q 14.796875 17.390625 18.875 11.75 
Q 22.953125 6.109375 30.078125 6.109375 
Q 37.203125 6.109375 41.296875 11.75 
Q 45.40625 17.390625 45.40625 27.296875 
Q 45.40625 37.203125 41.296875 42.84375 
Q 37.203125 48.484375 30.078125 48.484375 
Q 22.953125 48.484375 18.875 42.84375 
Q 14.796875 37.203125 14.796875 27.296875 
z
" id="DejaVuSans-100"/>
      <path d="M 9.421875 54.6875 
L 18.40625 54.6875 
L 18.40625 0 
L 9.421875 0 
z
M 9.421875 75.984375 
L 18.40625 75.984375 
L 18.40625 64.59375 
L 9.421875 64.59375 
z
" id="DejaVuSans-105"/>
      <path d="M 37.109375 75.984375 
L 37.109375 68.5 
L 28.515625 68.5 
Q 23.6875 68.5 21.796875 66.546875 
Q 19.921875 64.59375 19.921875 59.515625 
L 19.921875 54.6875 
L 34.71875 54.6875 
L 34.71875 47.703125 
L 19.921875 47.703125 
L 19.921875 0 
L 10.890625 0 
L 10.890625 47.703125 
L 2.296875 47.703125 
L 2.296875 54.6875 
L 10.890625 54.6875 
L 10.890625 58.5 
Q 10.890625 67.625 15.140625 71.796875 
Q 19.390625 75.984375 28.609375 75.984375 
z
" id="DejaVuSans-102"/>
     </defs>
     <g transform="translate(381.0075 191.9655)scale(0.1 -0.1)">
      <use xlink:href="#DejaVuSans-100"/>
      <use x="63.476562" xlink:href="#DejaVuSans-105"/>
      <use x="91.259766" xlink:href="#DejaVuSans-102"/>
      <use x="126.464844" xlink:href="#DejaVuSans-102"/>
     </g>
    </g>
   </g>
  </g>
 </g>
 <defs>
  <clipPath id="p99da3abba8">
   <rect height="266.112" width="357.12" x="57.6" y="41.472"/>
  </clipPath>
 </defs>
</svg>
