<?xml version="1.0" encoding="utf-8" standalone="no"?>
<!DOCTYPE svg PUBLIC "-//W3C//DTD SVG 1.1//EN"
  "http://www.w3.org/Graphics/SVG/1.1/DTD/svg11.dtd">
<!-- Created with matplotlib (https://matplotlib.org/) -->
<svg height="345.6pt" version="1.1" viewBox="0 0 460.8 345.6" width="460.8pt" xmlns="http://www.w3.org/2000/svg" xmlns:xlink="http://www.w3.org/1999/xlink">
 <defs>
  <style type="text/css">
*{stroke-linecap:butt;stroke-linejoin:round;}
  </style>
 </defs>
 <g id="figure_1">
  <g id="patch_1">
   <path d="M 0 345.6 
L 460.8 345.6 
L 460.8 0 
L 0 0 
z
" style="fill:#ffffff;"/>
  </g>
  <g id="axes_1">
   <g id="patch_2">
    <path d="M 57.6 307.584 
L 414.72 307.584 
L 414.72 41.472 
L 57.6 41.472 
z
" style="fill:#ffffff;"/>
   </g>
   <g id="matplotlib.axis_1">
    <g id="xtick_1">
     <g id="line2d_1">
      <defs>
       <path d="M 0 0 
L 0 3.5 
" id="mcd94f1699f" style="stroke:#000000;stroke-width:0.8;"/>
      </defs>
      <g>
       <use style="stroke:#000000;stroke-width:0.8;" x="73.832727" xlink:href="#mcd94f1699f" y="307.584"/>
      </g>
     </g>
     <g id="text_1">
      <!-- 0 -->
      <defs>
       <path d="M 31.78125 66.40625 
Q 24.171875 66.40625 20.328125 58.90625 
Q 16.5 51.421875 16.5 36.375 
Q 16.5 21.390625 20.328125 13.890625 
Q 24.171875 6.390625 31.78125 6.390625 
Q 39.453125 6.390625 43.28125 13.890625 
Q 47.125 21.390625 47.125 36.375 
Q 47.125 51.421875 43.28125 58.90625 
Q 39.453125 66.40625 31.78125 66.40625 
z
M 31.78125 74.21875 
Q 44.046875 74.21875 50.515625 64.515625 
Q 56.984375 54.828125 56.984375 36.375 
Q 56.984375 17.96875 50.515625 8.265625 
Q 44.046875 -1.421875 31.78125 -1.421875 
Q 19.53125 -1.421875 13.0625 8.265625 
Q 6.59375 17.96875 6.59375 36.375 
Q 6.59375 54.828125 13.0625 64.515625 
Q 19.53125 74.21875 31.78125 74.21875 
z
" id="DejaVuSans-48"/>
      </defs>
      <g transform="translate(70.651477 322.182437)scale(0.1 -0.1)">
       <use xlink:href="#DejaVuSans-48"/>
      </g>
     </g>
    </g>
    <g id="xtick_2">
     <g id="line2d_2">
      <g>
       <use style="stroke:#000000;stroke-width:0.8;" x="114.465336" xlink:href="#mcd94f1699f" y="307.584"/>
      </g>
     </g>
     <g id="text_2">
      <!-- 100 -->
      <defs>
       <path d="M 12.40625 8.296875 
L 28.515625 8.296875 
L 28.515625 63.921875 
L 10.984375 60.40625 
L 10.984375 69.390625 
L 28.421875 72.90625 
L 38.28125 72.90625 
L 38.28125 8.296875 
L 54.390625 8.296875 
L 54.390625 0 
L 12.40625 0 
z
" id="DejaVuSans-49"/>
      </defs>
      <g transform="translate(104.921586 322.182437)scale(0.1 -0.1)">
       <use xlink:href="#DejaVuSans-49"/>
       <use x="63.623047" xlink:href="#DejaVuSans-48"/>
       <use x="127.246094" xlink:href="#DejaVuSans-48"/>
      </g>
     </g>
    </g>
    <g id="xtick_3">
     <g id="line2d_3">
      <g>
       <use style="stroke:#000000;stroke-width:0.8;" x="155.097945" xlink:href="#mcd94f1699f" y="307.584"/>
      </g>
     </g>
     <g id="text_3">
      <!-- 200 -->
      <defs>
       <path d="M 19.1875 8.296875 
L 53.609375 8.296875 
L 53.609375 0 
L 7.328125 0 
L 7.328125 8.296875 
Q 12.9375 14.109375 22.625 23.890625 
Q 32.328125 33.6875 34.8125 36.53125 
Q 39.546875 41.84375 41.421875 45.53125 
Q 43.3125 49.21875 43.3125 52.78125 
Q 43.3125 58.59375 39.234375 62.25 
Q 35.15625 65.921875 28.609375 65.921875 
Q 23.96875 65.921875 18.8125 64.3125 
Q 13.671875 62.703125 7.8125 59.421875 
L 7.8125 69.390625 
Q 13.765625 71.78125 18.9375 73 
Q 24.125 74.21875 28.421875 74.21875 
Q 39.75 74.21875 46.484375 68.546875 
Q 53.21875 62.890625 53.21875 53.421875 
Q 53.21875 48.921875 51.53125 44.890625 
Q 49.859375 40.875 45.40625 35.40625 
Q 44.1875 33.984375 37.640625 27.21875 
Q 31.109375 20.453125 19.1875 8.296875 
z
" id="DejaVuSans-50"/>
      </defs>
      <g transform="translate(145.554195 322.182437)scale(0.1 -0.1)">
       <use xlink:href="#DejaVuSans-50"/>
       <use x="63.623047" xlink:href="#DejaVuSans-48"/>
       <use x="127.246094" xlink:href="#DejaVuSans-48"/>
      </g>
     </g>
    </g>
    <g id="xtick_4">
     <g id="line2d_4">
      <g>
       <use style="stroke:#000000;stroke-width:0.8;" x="195.730554" xlink:href="#mcd94f1699f" y="307.584"/>
      </g>
     </g>
     <g id="text_4">
      <!-- 300 -->
      <defs>
       <path d="M 40.578125 39.3125 
Q 47.65625 37.796875 51.625 33 
Q 55.609375 28.21875 55.609375 21.1875 
Q 55.609375 10.40625 48.1875 4.484375 
Q 40.765625 -1.421875 27.09375 -1.421875 
Q 22.515625 -1.421875 17.65625 -0.515625 
Q 12.796875 0.390625 7.625 2.203125 
L 7.625 11.71875 
Q 11.71875 9.328125 16.59375 8.109375 
Q 21.484375 6.890625 26.8125 6.890625 
Q 36.078125 6.890625 40.9375 10.546875 
Q 45.796875 14.203125 45.796875 21.1875 
Q 45.796875 27.640625 41.28125 31.265625 
Q 36.765625 34.90625 28.71875 34.90625 
L 20.21875 34.90625 
L 20.21875 43.015625 
L 29.109375 43.015625 
Q 36.375 43.015625 40.234375 45.921875 
Q 44.09375 48.828125 44.09375 54.296875 
Q 44.09375 59.90625 40.109375 62.90625 
Q 36.140625 65.921875 28.71875 65.921875 
Q 24.65625 65.921875 20.015625 65.03125 
Q 15.375 64.15625 9.8125 62.3125 
L 9.8125 71.09375 
Q 15.4375 72.65625 20.34375 73.4375 
Q 25.25 74.21875 29.59375 74.21875 
Q 40.828125 74.21875 47.359375 69.109375 
Q 53.90625 64.015625 53.90625 55.328125 
Q 53.90625 49.265625 50.4375 45.09375 
Q 46.96875 40.921875 40.578125 39.3125 
z
" id="DejaVuSans-51"/>
      </defs>
      <g transform="translate(186.186804 322.182437)scale(0.1 -0.1)">
       <use xlink:href="#DejaVuSans-51"/>
       <use x="63.623047" xlink:href="#DejaVuSans-48"/>
       <use x="127.246094" xlink:href="#DejaVuSans-48"/>
      </g>
     </g>
    </g>
    <g id="xtick_5">
     <g id="line2d_5">
      <g>
       <use style="stroke:#000000;stroke-width:0.8;" x="236.363163" xlink:href="#mcd94f1699f" y="307.584"/>
      </g>
     </g>
     <g id="text_5">
      <!-- 400 -->
      <defs>
       <path d="M 37.796875 64.3125 
L 12.890625 25.390625 
L 37.796875 25.390625 
z
M 35.203125 72.90625 
L 47.609375 72.90625 
L 47.609375 25.390625 
L 58.015625 25.390625 
L 58.015625 17.1875 
L 47.609375 17.1875 
L 47.609375 0 
L 37.796875 0 
L 37.796875 17.1875 
L 4.890625 17.1875 
L 4.890625 26.703125 
z
" id="DejaVuSans-52"/>
      </defs>
      <g transform="translate(226.819413 322.182437)scale(0.1 -0.1)">
       <use xlink:href="#DejaVuSans-52"/>
       <use x="63.623047" xlink:href="#DejaVuSans-48"/>
       <use x="127.246094" xlink:href="#DejaVuSans-48"/>
      </g>
     </g>
    </g>
    <g id="xtick_6">
     <g id="line2d_6">
      <g>
       <use style="stroke:#000000;stroke-width:0.8;" x="276.995772" xlink:href="#mcd94f1699f" y="307.584"/>
      </g>
     </g>
     <g id="text_6">
      <!-- 500 -->
      <defs>
       <path d="M 10.796875 72.90625 
L 49.515625 72.90625 
L 49.515625 64.59375 
L 19.828125 64.59375 
L 19.828125 46.734375 
Q 21.96875 47.46875 24.109375 47.828125 
Q 26.265625 48.1875 28.421875 48.1875 
Q 40.625 48.1875 47.75 41.5 
Q 54.890625 34.8125 54.890625 23.390625 
Q 54.890625 11.625 47.5625 5.09375 
Q 40.234375 -1.421875 26.90625 -1.421875 
Q 22.3125 -1.421875 17.546875 -0.640625 
Q 12.796875 0.140625 7.71875 1.703125 
L 7.71875 11.625 
Q 12.109375 9.234375 16.796875 8.0625 
Q 21.484375 6.890625 26.703125 6.890625 
Q 35.15625 6.890625 40.078125 11.328125 
Q 45.015625 15.765625 45.015625 23.390625 
Q 45.015625 31 40.078125 35.4375 
Q 35.15625 39.890625 26.703125 39.890625 
Q 22.75 39.890625 18.8125 39.015625 
Q 14.890625 38.140625 10.796875 36.28125 
z
" id="DejaVuSans-53"/>
      </defs>
      <g transform="translate(267.452022 322.182437)scale(0.1 -0.1)">
       <use xlink:href="#DejaVuSans-53"/>
       <use x="63.623047" xlink:href="#DejaVuSans-48"/>
       <use x="127.246094" xlink:href="#DejaVuSans-48"/>
      </g>
     </g>
    </g>
    <g id="xtick_7">
     <g id="line2d_7">
      <g>
       <use style="stroke:#000000;stroke-width:0.8;" x="317.628381" xlink:href="#mcd94f1699f" y="307.584"/>
      </g>
     </g>
     <g id="text_7">
      <!-- 600 -->
      <defs>
       <path d="M 33.015625 40.375 
Q 26.375 40.375 22.484375 35.828125 
Q 18.609375 31.296875 18.609375 23.390625 
Q 18.609375 15.53125 22.484375 10.953125 
Q 26.375 6.390625 33.015625 6.390625 
Q 39.65625 6.390625 43.53125 10.953125 
Q 47.40625 15.53125 47.40625 23.390625 
Q 47.40625 31.296875 43.53125 35.828125 
Q 39.65625 40.375 33.015625 40.375 
z
M 52.59375 71.296875 
L 52.59375 62.3125 
Q 48.875 64.0625 45.09375 64.984375 
Q 41.3125 65.921875 37.59375 65.921875 
Q 27.828125 65.921875 22.671875 59.328125 
Q 17.53125 52.734375 16.796875 39.40625 
Q 19.671875 43.65625 24.015625 45.921875 
Q 28.375 48.1875 33.59375 48.1875 
Q 44.578125 48.1875 50.953125 41.515625 
Q 57.328125 34.859375 57.328125 23.390625 
Q 57.328125 12.15625 50.6875 5.359375 
Q 44.046875 -1.421875 33.015625 -1.421875 
Q 20.359375 -1.421875 13.671875 8.265625 
Q 6.984375 17.96875 6.984375 36.375 
Q 6.984375 53.65625 15.1875 63.9375 
Q 23.390625 74.21875 37.203125 74.21875 
Q 40.921875 74.21875 44.703125 73.484375 
Q 48.484375 72.75 52.59375 71.296875 
z
" id="DejaVuSans-54"/>
      </defs>
      <g transform="translate(308.084631 322.182437)scale(0.1 -0.1)">
       <use xlink:href="#DejaVuSans-54"/>
       <use x="63.623047" xlink:href="#DejaVuSans-48"/>
       <use x="127.246094" xlink:href="#DejaVuSans-48"/>
      </g>
     </g>
    </g>
    <g id="xtick_8">
     <g id="line2d_8">
      <g>
       <use style="stroke:#000000;stroke-width:0.8;" x="358.26099" xlink:href="#mcd94f1699f" y="307.584"/>
      </g>
     </g>
     <g id="text_8">
      <!-- 700 -->
      <defs>
       <path d="M 8.203125 72.90625 
L 55.078125 72.90625 
L 55.078125 68.703125 
L 28.609375 0 
L 18.3125 0 
L 43.21875 64.59375 
L 8.203125 64.59375 
z
" id="DejaVuSans-55"/>
      </defs>
      <g transform="translate(348.71724 322.182437)scale(0.1 -0.1)">
       <use xlink:href="#DejaVuSans-55"/>
       <use x="63.623047" xlink:href="#DejaVuSans-48"/>
       <use x="127.246094" xlink:href="#DejaVuSans-48"/>
      </g>
     </g>
    </g>
    <g id="xtick_9">
     <g id="line2d_9">
      <g>
       <use style="stroke:#000000;stroke-width:0.8;" x="398.893599" xlink:href="#mcd94f1699f" y="307.584"/>
      </g>
     </g>
     <g id="text_9">
      <!-- 800 -->
      <defs>
       <path d="M 31.78125 34.625 
Q 24.75 34.625 20.71875 30.859375 
Q 16.703125 27.09375 16.703125 20.515625 
Q 16.703125 13.921875 20.71875 10.15625 
Q 24.75 6.390625 31.78125 6.390625 
Q 38.8125 6.390625 42.859375 10.171875 
Q 46.921875 13.96875 46.921875 20.515625 
Q 46.921875 27.09375 42.890625 30.859375 
Q 38.875 34.625 31.78125 34.625 
z
M 21.921875 38.8125 
Q 15.578125 40.375 12.03125 44.71875 
Q 8.5 49.078125 8.5 55.328125 
Q 8.5 64.0625 14.71875 69.140625 
Q 20.953125 74.21875 31.78125 74.21875 
Q 42.671875 74.21875 48.875 69.140625 
Q 55.078125 64.0625 55.078125 55.328125 
Q 55.078125 49.078125 51.53125 44.71875 
Q 48 40.375 41.703125 38.8125 
Q 48.828125 37.15625 52.796875 32.3125 
Q 56.78125 27.484375 56.78125 20.515625 
Q 56.78125 9.90625 50.3125 4.234375 
Q 43.84375 -1.421875 31.78125 -1.421875 
Q 19.734375 -1.421875 13.25 4.234375 
Q 6.78125 9.90625 6.78125 20.515625 
Q 6.78125 27.484375 10.78125 32.3125 
Q 14.796875 37.15625 21.921875 38.8125 
z
M 18.3125 54.390625 
Q 18.3125 48.734375 21.84375 45.5625 
Q 25.390625 42.390625 31.78125 42.390625 
Q 38.140625 42.390625 41.71875 45.5625 
Q 45.3125 48.734375 45.3125 54.390625 
Q 45.3125 60.0625 41.71875 63.234375 
Q 38.140625 66.40625 31.78125 66.40625 
Q 25.390625 66.40625 21.84375 63.234375 
Q 18.3125 60.0625 18.3125 54.390625 
z
" id="DejaVuSans-56"/>
      </defs>
      <g transform="translate(389.349849 322.182437)scale(0.1 -0.1)">
       <use xlink:href="#DejaVuSans-56"/>
       <use x="63.623047" xlink:href="#DejaVuSans-48"/>
       <use x="127.246094" xlink:href="#DejaVuSans-48"/>
      </g>
     </g>
    </g>
   </g>
   <g id="matplotlib.axis_2">
    <g id="ytick_1">
     <g id="line2d_10">
      <defs>
       <path d="M 0 0 
L -3.5 0 
" id="m9f4122d961" style="stroke:#000000;stroke-width:0.8;"/>
      </defs>
      <g>
       <use style="stroke:#000000;stroke-width:0.8;" x="57.6" xlink:href="#m9f4122d961" y="294.055898"/>
      </g>
     </g>
     <g id="text_10">
      <!-- 0.0 -->
      <defs>
       <path d="M 10.6875 12.40625 
L 21 12.40625 
L 21 0 
L 10.6875 0 
z
" id="DejaVuSans-46"/>
      </defs>
      <g transform="translate(34.696875 297.855117)scale(0.1 -0.1)">
       <use xlink:href="#DejaVuSans-48"/>
       <use x="63.623047" xlink:href="#DejaVuSans-46"/>
       <use x="95.410156" xlink:href="#DejaVuSans-48"/>
      </g>
     </g>
    </g>
    <g id="ytick_2">
     <g id="line2d_11">
      <g>
       <use style="stroke:#000000;stroke-width:0.8;" x="57.6" xlink:href="#m9f4122d961" y="241.31267"/>
      </g>
     </g>
     <g id="text_11">
      <!-- 0.1 -->
      <g transform="translate(34.696875 245.111889)scale(0.1 -0.1)">
       <use xlink:href="#DejaVuSans-48"/>
       <use x="63.623047" xlink:href="#DejaVuSans-46"/>
       <use x="95.410156" xlink:href="#DejaVuSans-49"/>
      </g>
     </g>
    </g>
    <g id="ytick_3">
     <g id="line2d_12">
      <g>
       <use style="stroke:#000000;stroke-width:0.8;" x="57.6" xlink:href="#m9f4122d961" y="188.569443"/>
      </g>
     </g>
     <g id="text_12">
      <!-- 0.2 -->
      <g transform="translate(34.696875 192.368662)scale(0.1 -0.1)">
       <use xlink:href="#DejaVuSans-48"/>
       <use x="63.623047" xlink:href="#DejaVuSans-46"/>
       <use x="95.410156" xlink:href="#DejaVuSans-50"/>
      </g>
     </g>
    </g>
    <g id="ytick_4">
     <g id="line2d_13">
      <g>
       <use style="stroke:#000000;stroke-width:0.8;" x="57.6" xlink:href="#m9f4122d961" y="135.826215"/>
      </g>
     </g>
     <g id="text_13">
      <!-- 0.3 -->
      <g transform="translate(34.696875 139.625434)scale(0.1 -0.1)">
       <use xlink:href="#DejaVuSans-48"/>
       <use x="63.623047" xlink:href="#DejaVuSans-46"/>
       <use x="95.410156" xlink:href="#DejaVuSans-51"/>
      </g>
     </g>
    </g>
    <g id="ytick_5">
     <g id="line2d_14">
      <g>
       <use style="stroke:#000000;stroke-width:0.8;" x="57.6" xlink:href="#m9f4122d961" y="83.082988"/>
      </g>
     </g>
     <g id="text_14">
      <!-- 0.4 -->
      <g transform="translate(34.696875 86.882206)scale(0.1 -0.1)">
       <use xlink:href="#DejaVuSans-48"/>
       <use x="63.623047" xlink:href="#DejaVuSans-46"/>
       <use x="95.410156" xlink:href="#DejaVuSans-52"/>
      </g>
     </g>
    </g>
   </g>
   <g id="line2d_15">
    <path clip-path="url(#p47ae76b21d)" d="M 73.832727 54.015281 
L 75.051706 54.345423 
L 75.458032 54.485299 
L 75.864358 55.09416 
L 78.302314 55.438063 
L 79.521293 55.217345 
L 83.178227 54.187499 
L 84.397206 54.088354 
L 85.616184 54.412285 
L 86.428836 54.592703 
L 86.835162 54.442001 
L 89.679445 55.206261 
L 90.492097 55.30764 
L 91.711075 55.391708 
L 93.33638 54.981494 
L 93.742706 54.669942 
L 96.993314 53.988997 
L 97.39964 53.905112 
L 97.805967 53.633381 
L 99.024945 53.769182 
L 100.650249 54.174404 
L 102.275554 54.714444 
L 103.088206 54.711248 
L 103.900858 54.848605 
L 104.71351 54.755655 
L 105.932488 54.64872 
L 107.557793 54.282296 
L 109.589423 53.748834 
L 111.214728 53.569854 
L 113.246358 53.791423 
L 117.309619 54.625417 
L 118.934923 54.635938 
L 120.966554 54.32899 
L 122.998184 53.942184 
L 124.623488 53.730515 
L 127.061445 53.971783 
L 131.937358 54.798983 
L 133.562662 54.680245 
L 136.000619 54.163415 
L 138.032249 53.83518 
L 139.251228 53.823429 
L 140.876532 54.047313 
L 144.939793 54.829904 
L 146.158771 54.810262 
L 147.784076 54.564375 
L 150.222032 54.020718 
L 150.628358 54.305158 
L 152.659989 54.150095 
L 154.285293 54.232627 
L 157.535902 54.770988 
L 159.161206 54.930194 
L 160.78651 54.870362 
L 163.224467 54.487376 
L 165.662423 54.106798 
L 167.287728 54.138688 
L 169.319358 54.455261 
L 172.163641 54.906451 
L 173.788945 54.914014 
L 175.007924 54.779307 
L 175.820576 54.557712 
L 179.071184 54.084521 
L 180.696489 54.160058 
L 183.134445 54.572692 
L 185.166076 54.880035 
L 186.79138 54.892668 
L 188.823011 54.642036 
L 192.073619 54.154781 
L 193.698924 54.171119 
L 195.730554 54.47123 
L 198.574837 54.929448 
L 200.200141 54.959135 
L 201.825445 54.773816 
L 205.888706 54.204161 
L 207.514011 54.268152 
L 209.951967 54.65738 
L 211.983598 54.900332 
L 213.608902 54.939605 
L 215.640532 54.716892 
L 220.110119 54.074816 
L 221.735424 54.26719 
L 225.798685 54.945213 
L 227.423989 54.92557 
L 229.45562 54.583653 
L 232.706228 54.095166 
L 234.331533 54.151217 
L 236.363163 54.509505 
L 238.80112 54.93546 
L 240.426424 54.977247 
L 242.051728 54.783988 
L 246.114989 54.114924 
L 247.333967 54.133682 
L 249.365598 54.438606 
L 250.584576 54.734661 
L 252.616207 55.024083 
L 254.241511 55.000198 
L 255.866815 54.750232 
L 259.117424 54.177242 
L 260.742728 54.184536 
L 261.961707 54.347275 
L 266.024968 55.086825 
L 268.056598 55.040062 
L 270.494555 54.576802 
L 272.526185 54.251674 
L 274.151489 54.260895 
L 276.18312 54.589024 
L 279.433729 55.273313 
L 281.059033 55.203899 
L 282.684337 54.90731 
L 285.122294 54.398117 
L 286.747598 54.27923 
L 288.372902 54.435262 
L 288.779229 54.692272 
L 292.436163 55.355339 
L 294.87412 55.368132 
L 295.686772 55.162738 
L 296.093098 55.215719 
L 298.531055 54.626403 
L 300.156359 54.470532 
L 300.969011 54.640256 
L 302.594316 54.921854 
L 305.844924 55.585227 
L 307.470229 55.604308 
L 309.095533 55.338333 
L 312.752468 54.618262 
L 314.377772 54.631841 
L 317.222055 55.13728 
L 319.253685 55.522782 
L 320.472664 55.580795 
L 321.691642 55.494163 
L 323.316946 55.095934 
L 326.567555 54.413323 
L 327.786533 54.446872 
L 329.411838 54.744425 
L 333.068772 55.548863 
L 334.287751 55.533157 
L 335.913055 55.253423 
L 339.163664 54.525796 
L 340.382642 54.464616 
L 342.007946 54.642024 
L 346.883859 55.565038 
L 348.91549 55.343913 
L 353.791403 54.478124 
L 355.010381 54.567513 
L 357.042012 55.010168 
L 359.479968 55.510034 
L 360.698946 55.549823 
L 362.324251 55.361607 
L 364.355881 54.871557 
L 365.981186 54.563622 
L 367.60649 54.549522 
L 368.825468 54.710945 
L 373.701381 55.618394 
L 375.326686 55.500215 
L 380.608925 54.582018 
L 381.827903 54.67559 
L 383.453207 55.00801 
L 386.29749 55.619013 
L 387.516468 55.675398 
L 389.141773 55.491193 
L 394.017686 54.614733 
L 395.64299 54.769768 
L 398.080947 55.343713 
L 398.487273 55.438806 
L 398.487273 55.438806 
" style="fill:none;stroke:#1f77b4;stroke-linecap:square;stroke-width:1.5;"/>
   </g>
   <g id="line2d_16">
    <path clip-path="url(#p47ae76b21d)" d="M 73.832727 54.63157 
L 77.489662 54.030786 
L 78.70864 54.151413 
L 80.333945 54.608739 
L 82.771901 55.392362 
L 83.99088 55.56999 
L 85.209858 55.517139 
L 86.835162 55.156793 
L 90.492097 54.116957 
L 91.711075 54.043298 
L 92.930053 54.177481 
L 97.39964 55.051542 
L 98.618619 54.991079 
L 100.243923 54.606241 
L 103.494532 53.671932 
L 104.71351 53.568 
L 105.932488 53.652105 
L 107.964119 54.117776 
L 109.995749 54.591973 
L 111.214728 54.707065 
L 112.433706 54.641555 
L 114.465336 54.217517 
L 116.496967 53.732007 
L 118.122271 53.593152 
L 119.747575 53.746864 
L 122.185532 54.329938 
L 124.217162 54.745128 
L 125.436141 54.80404 
L 127.061445 54.631775 
L 131.937358 53.788881 
L 133.562662 53.919936 
L 136.000619 54.450634 
L 137.625923 54.75188 
L 139.251228 54.807991 
L 140.876532 54.592425 
L 144.939793 53.837141 
L 146.565097 53.89921 
L 148.596728 54.298357 
L 151.034684 54.791787 
L 152.659989 54.92841 
L 154.285293 54.851453 
L 156.72325 54.452136 
L 158.348554 54.211482 
L 159.973858 54.151057 
L 162.005489 54.368447 
L 165.662423 54.908774 
L 167.287728 54.872803 
L 169.319358 54.56989 
L 171.757315 54.172334 
L 173.382619 54.130962 
L 175.007924 54.298032 
L 179.071184 54.894363 
L 180.696489 54.829357 
L 183.134445 54.428601 
L 185.166076 54.139378 
L 186.79138 54.130921 
L 188.823011 54.401294 
L 192.073619 54.918745 
L 193.698924 54.914982 
L 195.730554 54.635048 
L 198.168511 54.219586 
L 200.606467 54.251676 
L 202.638098 54.548465 
L 205.48238 54.959005 
L 207.107685 54.951856 
L 209.139315 54.676173 
L 211.983598 54.25044 
L 213.608902 54.219197 
L 215.640532 54.448769 
L 219.297467 54.962093 
L 220.922772 54.893004 
L 222.954402 54.531263 
L 225.392359 54.11149 
L 227.017663 54.07954 
L 229.049293 54.374064 
L 232.299902 54.942136 
L 233.925207 54.955513 
L 235.550511 54.733542 
L 239.207446 54.118768 
L 240.83275 54.142228 
L 242.458054 54.389285 
L 245.708663 54.978265 
L 247.333967 54.986233 
L 248.959272 54.760124 
L 252.616207 54.152073 
L 254.241511 54.193025 
L 256.273141 54.550145 
L 259.117424 55.04228 
L 260.742728 55.045639 
L 262.774359 54.729008 
L 265.618641 54.214105 
L 267.243946 54.183558 
L 268.462924 54.33167 
L 269.681902 54.630565 
L 272.119859 55.092904 
L 273.745163 55.152352 
L 275.370468 54.956906 
L 279.433729 54.25685 
L 281.059033 54.322686 
L 282.684337 54.634037 
L 285.52862 55.228169 
L 287.153924 55.283393 
L 288.779229 55.065754 
L 292.029837 54.480417 
L 293.248816 54.441404 
L 294.87412 54.624368 
L 300.156359 55.611851 
L 301.375337 55.509376 
L 303.406968 55.094705 
L 305.438598 54.686374 
L 307.063903 54.593822 
L 308.689207 54.79194 
L 313.158794 55.64357 
L 314.377772 55.596997 
L 316.003077 55.310112 
L 319.660011 54.564639 
L 321.285316 54.583618 
L 322.91062 54.845199 
L 325.754903 55.425142 
L 326.973881 55.513625 
L 328.599185 55.36011 
L 331.037142 54.783402 
L 332.662446 54.474691 
L 333.881425 54.429635 
L 335.100403 54.560469 
L 337.538359 55.149697 
L 339.163664 55.485522 
L 340.788968 55.554644 
L 342.414272 55.330034 
L 346.477533 54.501088 
L 348.102838 54.569043 
L 350.134468 54.961484 
L 352.572425 55.457539 
L 353.791403 55.535364 
L 355.416707 55.375784 
L 360.29262 54.492551 
L 361.511599 54.562773 
L 363.543229 54.981993 
L 365.981186 55.49766 
L 367.60649 55.572025 
L 369.231794 55.353653 
L 373.295055 54.566782 
L 374.92036 54.627997 
L 376.545664 54.951802 
L 379.389947 55.580585 
L 380.608925 55.668032 
L 382.234229 55.516099 
L 387.110142 54.595536 
L 388.32912 54.659342 
L 389.954425 54.975505 
L 392.798707 55.608817 
L 394.424012 55.685249 
L 396.049316 55.476955 
L 398.487273 54.891168 
L 398.487273 54.891168 
" style="fill:none;stroke:#ff0000;stroke-linecap:square;stroke-width:1.5;"/>
   </g>
   <g id="line2d_17">
    <path clip-path="url(#p47ae76b21d)" d="M 73.832727 293.439609 
L 75.051706 294.022917 
L 75.458032 294.256441 
L 75.864358 294.951964 
L 77.489662 295.429806 
L 77.895988 295.488 
L 78.70864 295.302361 
L 79.927619 294.678745 
L 83.178227 292.767307 
L 83.99088 292.556997 
L 84.397206 292.566452 
L 86.428836 293.380675 
L 86.835162 293.341106 
L 89.679445 294.986531 
L 90.492097 295.246582 
L 91.304749 295.398605 
L 91.711075 295.404308 
L 92.523727 295.179972 
L 95.36801 293.57843 
L 96.586988 293.127738 
L 97.39964 292.909468 
L 97.805967 292.632527 
L 98.618619 292.764941 
L 99.837597 293.290753 
L 101.056575 294.030255 
L 102.275554 294.821227 
L 103.088206 295.020915 
L 103.900858 295.289825 
L 104.71351 295.243553 
L 105.526162 295.149675 
L 106.745141 294.74824 
L 108.370445 293.868036 
L 109.995749 293.140934 
L 110.808401 292.955617 
L 111.621054 292.943981 
L 112.433706 293.07329 
L 113.652684 293.521308 
L 116.496967 294.842582 
L 117.715945 295.111648 
L 118.934923 295.057557 
L 120.153901 294.687004 
L 123.810836 293.173865 
L 124.623488 293.000982 
L 125.842467 293.085087 
L 127.061445 293.395906 
L 128.686749 294.106528 
L 129.905728 294.599758 
L 131.124706 294.977953 
L 132.343684 295.055004 
L 133.562662 294.816207 
L 135.187967 294.147397 
L 137.219597 293.289193 
L 138.438575 293.051214 
L 139.657554 293.135708 
L 140.876532 293.510786 
L 144.533467 294.987947 
L 145.346119 295.077484 
L 146.565097 294.926948 
L 147.784076 294.507603 
L 150.222032 293.415896 
L 150.628358 293.630927 
L 151.847336 293.365859 
L 153.066315 293.279001 
L 154.285293 293.437072 
L 155.910597 293.938713 
L 157.942228 294.627257 
L 159.161206 294.825825 
L 160.380184 294.792434 
L 162.005489 294.389488 
L 165.256097 293.303594 
L 166.475076 293.232205 
L 167.694054 293.407319 
L 169.319358 293.941269 
L 171.350989 294.661869 
L 172.569967 294.861727 
L 173.788945 294.816302 
L 175.007924 294.537172 
L 175.820576 294.173126 
L 178.258532 293.355473 
L 179.477511 293.24247 
L 180.696489 293.386599 
L 182.321793 293.889645 
L 184.353424 294.614443 
L 185.572402 294.845598 
L 186.79138 294.817645 
L 188.010358 294.563785 
L 192.479945 293.253085 
L 193.698924 293.312035 
L 194.917902 293.608225 
L 198.574837 294.774345 
L 199.793815 294.8547 
L 200.606467 294.735767 
L 202.231772 294.286231 
L 205.076054 293.382321 
L 206.295032 293.2751 
L 207.514011 293.408538 
L 209.139315 293.890413 
L 211.170946 294.571555 
L 213.608902 294.776305 
L 214.82788 294.561598 
L 217.265837 293.773211 
L 219.297467 293.159866 
L 220.516446 293.218203 
L 221.735424 293.547746 
L 225.392359 294.856749 
L 226.611337 294.964367 
L 227.830315 294.76855 
L 229.45562 294.185584 
L 231.893576 293.315226 
L 233.112554 293.160778 
L 234.331533 293.287933 
L 235.550511 293.661524 
L 238.80112 294.840885 
L 240.020098 294.94713 
L 241.239076 294.77539 
L 242.86438 294.209446 
L 245.302337 293.301781 
L 246.521315 293.143776 
L 247.740294 293.283021 
L 248.959272 293.653846 
L 252.209881 294.865566 
L 253.428859 294.960104 
L 254.647837 294.771795 
L 256.273141 294.172816 
L 258.304772 293.374644 
L 259.52375 293.142468 
L 260.742728 293.194795 
L 261.961707 293.517417 
L 266.024968 294.962722 
L 266.83762 294.969405 
L 268.056598 294.82719 
L 268.86925 294.486854 
L 272.119859 293.252771 
L 273.338837 293.108375 
L 274.557815 293.28 
L 275.776794 293.68878 
L 279.433729 295.072361 
L 280.652707 295.020493 
L 281.871685 294.680061 
L 285.52862 293.169642 
L 286.747598 293.037941 
L 287.966576 293.223335 
L 288.372902 293.350057 
L 288.779229 293.682416 
L 291.623511 294.809439 
L 292.842489 294.987089 
L 294.467794 294.944323 
L 296.499424 294.138474 
L 298.531055 293.198241 
L 299.343707 293.015376 
L 300.156359 292.914579 
L 301.375337 293.237336 
L 302.594316 293.693319 
L 305.438598 294.89761 
L 306.657577 295.099084 
L 307.470229 295.039954 
L 308.689207 294.686899 
L 312.752468 293.054676 
L 313.971446 293.022159 
L 315.190424 293.338527 
L 318.034707 294.55719 
L 319.253685 294.973763 
L 320.066337 295.097064 
L 321.285316 295.013522 
L 322.504294 294.632108 
L 324.129598 293.825567 
L 325.348577 293.327327 
L 326.973881 292.942056 
L 327.786533 293.027938 
L 329.005511 293.421031 
L 332.662446 295.095511 
L 333.475098 295.195003 
L 334.287751 295.137649 
L 335.506729 294.75872 
L 337.538359 293.739541 
L 338.757338 293.224338 
L 339.56999 293.008831 
L 340.382642 292.955601 
L 341.60162 293.156728 
L 342.820598 293.628655 
L 345.664881 294.927534 
L 346.477533 295.1051 
L 347.290185 295.088047 
L 348.509164 294.84222 
L 349.728142 294.365732 
L 352.572425 293.142716 
L 353.791403 292.998658 
L 354.604055 293.081061 
L 355.823033 293.47319 
L 359.479968 295.030232 
L 360.698946 295.111886 
L 361.917925 294.863678 
L 363.543229 294.155367 
L 365.574859 293.232479 
L 366.793838 293.010895 
L 368.012816 293.099956 
L 369.231794 293.493995 
L 372.888729 295.02433 
L 373.701381 295.116925 
L 374.92036 294.985547 
L 376.139338 294.539934 
L 378.98362 293.270758 
L 380.202599 292.993342 
L 381.015251 292.991657 
L 382.234229 293.278789 
L 383.859534 294.022272 
L 385.484838 294.775517 
L 386.703816 295.099765 
L 387.516468 295.133258 
L 388.735447 294.900618 
L 389.954425 294.397163 
L 392.392381 293.269416 
L 393.61136 292.99544 
L 394.424012 292.996622 
L 395.64299 293.27223 
L 397.268294 294.002989 
L 398.487273 294.603536 
L 398.487273 294.603536 
" style="fill:none;stroke:#008000;stroke-linecap:square;stroke-width:1.5;"/>
   </g>
   <g id="patch_3">
    <path d="M 57.6 307.584 
L 57.6 41.472 
" style="fill:none;stroke:#000000;stroke-linecap:square;stroke-linejoin:miter;stroke-width:0.8;"/>
   </g>
   <g id="patch_4">
    <path d="M 414.72 307.584 
L 414.72 41.472 
" style="fill:none;stroke:#000000;stroke-linecap:square;stroke-linejoin:miter;stroke-width:0.8;"/>
   </g>
   <g id="patch_5">
    <path d="M 57.6 307.584 
L 414.72 307.584 
" style="fill:none;stroke:#000000;stroke-linecap:square;stroke-linejoin:miter;stroke-width:0.8;"/>
   </g>
   <g id="patch_6">
    <path d="M 57.6 41.472 
L 414.72 41.472 
" style="fill:none;stroke:#000000;stroke-linecap:square;stroke-linejoin:miter;stroke-width:0.8;"/>
   </g>
   <g id="legend_1">
    <g id="patch_7">
     <path d="M 351.0075 198.045187 
L 407.72 198.045187 
Q 409.72 198.045187 409.72 196.045187 
L 409.72 153.010812 
Q 409.72 151.010812 407.72 151.010812 
L 351.0075 151.010812 
Q 349.0075 151.010812 349.0075 153.010812 
L 349.0075 196.045187 
Q 349.0075 198.045187 351.0075 198.045187 
z
" style="fill:#ffffff;opacity:0.8;stroke:#cccccc;stroke-linejoin:miter;"/>
    </g>
    <g id="line2d_18">
     <path d="M 353.0075 159.10925 
L 373.0075 159.10925 
" style="fill:none;stroke:#1f77b4;stroke-linecap:square;stroke-width:1.5;"/>
    </g>
    <g id="line2d_19"/>
    <g id="text_15">
     <!-- 0-&gt;1 -->
     <defs>
      <path d="M 4.890625 31.390625 
L 31.203125 31.390625 
L 31.203125 23.390625 
L 4.890625 23.390625 
z
" id="DejaVuSans-45"/>
      <path d="M 10.59375 49.21875 
L 10.59375 58.109375 
L 73.1875 35.40625 
L 73.1875 27.296875 
L 10.59375 4.59375 
L 10.59375 13.484375 
L 60.890625 31.296875 
z
" id="DejaVuSans-62"/>
     </defs>
     <g transform="translate(381.0075 162.60925)scale(0.1 -0.1)">
      <use xlink:href="#DejaVuSans-48"/>
      <use x="63.623047" xlink:href="#DejaVuSans-45"/>
      <use x="99.707031" xlink:href="#DejaVuSans-62"/>
      <use x="183.496094" xlink:href="#DejaVuSans-49"/>
     </g>
    </g>
    <g id="line2d_20">
     <path d="M 353.0075 173.787375 
L 373.0075 173.787375 
" style="fill:none;stroke:#ff0000;stroke-linecap:square;stroke-width:1.5;"/>
    </g>
    <g id="line2d_21"/>
    <g id="text_16">
     <!-- 1-&gt;0 -->
     <g transform="translate(381.0075 177.287375)scale(0.1 -0.1)">
      <use xlink:href="#DejaVuSans-49"/>
      <use x="63.623047" xlink:href="#DejaVuSans-45"/>
      <use x="99.707031" xlink:href="#DejaVuSans-62"/>
      <use x="183.496094" xlink:href="#DejaVuSans-48"/>
     </g>
    </g>
    <g id="line2d_22">
     <path d="M 353.0075 188.4655 
L 373.0075 188.4655 
" style="fill:none;stroke:#008000;stroke-linecap:square;stroke-width:1.5;"/>
    </g>
    <g id="line2d_23"/>
    <g id="text_17">
     <!-- diff -->
     <defs>
      <path d="M 45.40625 46.390625 
L 45.40625 75.984375 
L 54.390625 75.984375 
L 54.390625 0 
L 45.40625 0 
L 45.40625 8.203125 
Q 42.578125 3.328125 38.25 0.953125 
Q 33.9375 -1.421875 27.875 -1.421875 
Q 17.96875 -1.421875 11.734375 6.484375 
Q 5.515625 14.40625 5.515625 27.296875 
Q 5.515625 40.1875 11.734375 48.09375 
Q 17.96875 56 27.875 56 
Q 33.9375 56 38.25 53.625 
Q 42.578125 51.265625 45.40625 46.390625 
z
M 14.796875 27.296875 
Q 14.796875 17.390625 18.875 11.75 
Q 22.953125 6.109375 30.078125 6.109375 
Q 37.203125 6.109375 41.296875 11.75 
Q 45.40625 17.390625 45.40625 27.296875 
Q 45.40625 37.203125 41.296875 42.84375 
Q 37.203125 48.484375 30.078125 48.484375 
Q 22.953125 48.484375 18.875 42.84375 
Q 14.796875 37.203125 14.796875 27.296875 
z
" id="DejaVuSans-100"/>
      <path d="M 9.421875 54.6875 
L 18.40625 54.6875 
L 18.40625 0 
L 9.421875 0 
z
M 9.421875 75.984375 
L 18.40625 75.984375 
L 18.40625 64.59375 
L 9.421875 64.59375 
z
" id="DejaVuSans-105"/>
      <path d="M 37.109375 75.984375 
L 37.109375 68.5 
L 28.515625 68.5 
Q 23.6875 68.5 21.796875 66.546875 
Q 19.921875 64.59375 19.921875 59.515625 
L 19.921875 54.6875 
L 34.71875 54.6875 
L 34.71875 47.703125 
L 19.921875 47.703125 
L 19.921875 0 
L 10.890625 0 
L 10.890625 47.703125 
L 2.296875 47.703125 
L 2.296875 54.6875 
L 10.890625 54.6875 
L 10.890625 58.5 
Q 10.890625 67.625 15.140625 71.796875 
Q 19.390625 75.984375 28.609375 75.984375 
z
" id="DejaVuSans-102"/>
     </defs>
     <g transform="translate(381.0075 191.9655)scale(0.1 -0.1)">
      <use xlink:href="#DejaVuSans-100"/>
      <use x="63.476562" xlink:href="#DejaVuSans-105"/>
      <use x="91.259766" xlink:href="#DejaVuSans-102"/>
      <use x="126.464844" xlink:href="#DejaVuSans-102"/>
     </g>
    </g>
   </g>
  </g>
 </g>
 <defs>
  <clipPath id="p47ae76b21d">
   <rect height="266.112" width="357.12" x="57.6" y="41.472"/>
  </clipPath>
 </defs>
</svg>
