<?xml version="1.0" encoding="utf-8" standalone="no"?>
<!DOCTYPE svg PUBLIC "-//W3C//DTD SVG 1.1//EN"
  "http://www.w3.org/Graphics/SVG/1.1/DTD/svg11.dtd">
<!-- Created with matplotlib (https://matplotlib.org/) -->
<svg height="345.6pt" version="1.1" viewBox="0 0 460.8 345.6" width="460.8pt" xmlns="http://www.w3.org/2000/svg" xmlns:xlink="http://www.w3.org/1999/xlink">
 <defs>
  <style type="text/css">
*{stroke-linecap:butt;stroke-linejoin:round;}
  </style>
 </defs>
 <g id="figure_1">
  <g id="patch_1">
   <path d="M 0 345.6 
L 460.8 345.6 
L 460.8 0 
L 0 0 
z
" style="fill:#ffffff;"/>
  </g>
  <g id="axes_1">
   <g id="patch_2">
    <path d="M 57.6 307.584 
L 414.72 307.584 
L 414.72 41.472 
L 57.6 41.472 
z
" style="fill:#ffffff;"/>
   </g>
   <g id="matplotlib.axis_1">
    <g id="xtick_1">
     <g id="line2d_1">
      <defs>
       <path d="M 0 0 
L 0 3.5 
" id="mddb16b13c5" style="stroke:#000000;stroke-width:0.8;"/>
      </defs>
      <g>
       <use style="stroke:#000000;stroke-width:0.8;" x="73.832727" xlink:href="#mddb16b13c5" y="307.584"/>
      </g>
     </g>
     <g id="text_1">
      <!-- 0 -->
      <defs>
       <path d="M 31.78125 66.40625 
Q 24.171875 66.40625 20.328125 58.90625 
Q 16.5 51.421875 16.5 36.375 
Q 16.5 21.390625 20.328125 13.890625 
Q 24.171875 6.390625 31.78125 6.390625 
Q 39.453125 6.390625 43.28125 13.890625 
Q 47.125 21.390625 47.125 36.375 
Q 47.125 51.421875 43.28125 58.90625 
Q 39.453125 66.40625 31.78125 66.40625 
z
M 31.78125 74.21875 
Q 44.046875 74.21875 50.515625 64.515625 
Q 56.984375 54.828125 56.984375 36.375 
Q 56.984375 17.96875 50.515625 8.265625 
Q 44.046875 -1.421875 31.78125 -1.421875 
Q 19.53125 -1.421875 13.0625 8.265625 
Q 6.59375 17.96875 6.59375 36.375 
Q 6.59375 54.828125 13.0625 64.515625 
Q 19.53125 74.21875 31.78125 74.21875 
z
" id="DejaVuSans-48"/>
      </defs>
      <g transform="translate(70.651477 322.182437)scale(0.1 -0.1)">
       <use xlink:href="#DejaVuSans-48"/>
      </g>
     </g>
    </g>
    <g id="xtick_2">
     <g id="line2d_2">
      <g>
       <use style="stroke:#000000;stroke-width:0.8;" x="114.465336" xlink:href="#mddb16b13c5" y="307.584"/>
      </g>
     </g>
     <g id="text_2">
      <!-- 100 -->
      <defs>
       <path d="M 12.40625 8.296875 
L 28.515625 8.296875 
L 28.515625 63.921875 
L 10.984375 60.40625 
L 10.984375 69.390625 
L 28.421875 72.90625 
L 38.28125 72.90625 
L 38.28125 8.296875 
L 54.390625 8.296875 
L 54.390625 0 
L 12.40625 0 
z
" id="DejaVuSans-49"/>
      </defs>
      <g transform="translate(104.921586 322.182437)scale(0.1 -0.1)">
       <use xlink:href="#DejaVuSans-49"/>
       <use x="63.623047" xlink:href="#DejaVuSans-48"/>
       <use x="127.246094" xlink:href="#DejaVuSans-48"/>
      </g>
     </g>
    </g>
    <g id="xtick_3">
     <g id="line2d_3">
      <g>
       <use style="stroke:#000000;stroke-width:0.8;" x="155.097945" xlink:href="#mddb16b13c5" y="307.584"/>
      </g>
     </g>
     <g id="text_3">
      <!-- 200 -->
      <defs>
       <path d="M 19.1875 8.296875 
L 53.609375 8.296875 
L 53.609375 0 
L 7.328125 0 
L 7.328125 8.296875 
Q 12.9375 14.109375 22.625 23.890625 
Q 32.328125 33.6875 34.8125 36.53125 
Q 39.546875 41.84375 41.421875 45.53125 
Q 43.3125 49.21875 43.3125 52.78125 
Q 43.3125 58.59375 39.234375 62.25 
Q 35.15625 65.921875 28.609375 65.921875 
Q 23.96875 65.921875 18.8125 64.3125 
Q 13.671875 62.703125 7.8125 59.421875 
L 7.8125 69.390625 
Q 13.765625 71.78125 18.9375 73 
Q 24.125 74.21875 28.421875 74.21875 
Q 39.75 74.21875 46.484375 68.546875 
Q 53.21875 62.890625 53.21875 53.421875 
Q 53.21875 48.921875 51.53125 44.890625 
Q 49.859375 40.875 45.40625 35.40625 
Q 44.1875 33.984375 37.640625 27.21875 
Q 31.109375 20.453125 19.1875 8.296875 
z
" id="DejaVuSans-50"/>
      </defs>
      <g transform="translate(145.554195 322.182437)scale(0.1 -0.1)">
       <use xlink:href="#DejaVuSans-50"/>
       <use x="63.623047" xlink:href="#DejaVuSans-48"/>
       <use x="127.246094" xlink:href="#DejaVuSans-48"/>
      </g>
     </g>
    </g>
    <g id="xtick_4">
     <g id="line2d_4">
      <g>
       <use style="stroke:#000000;stroke-width:0.8;" x="195.730554" xlink:href="#mddb16b13c5" y="307.584"/>
      </g>
     </g>
     <g id="text_4">
      <!-- 300 -->
      <defs>
       <path d="M 40.578125 39.3125 
Q 47.65625 37.796875 51.625 33 
Q 55.609375 28.21875 55.609375 21.1875 
Q 55.609375 10.40625 48.1875 4.484375 
Q 40.765625 -1.421875 27.09375 -1.421875 
Q 22.515625 -1.421875 17.65625 -0.515625 
Q 12.796875 0.390625 7.625 2.203125 
L 7.625 11.71875 
Q 11.71875 9.328125 16.59375 8.109375 
Q 21.484375 6.890625 26.8125 6.890625 
Q 36.078125 6.890625 40.9375 10.546875 
Q 45.796875 14.203125 45.796875 21.1875 
Q 45.796875 27.640625 41.28125 31.265625 
Q 36.765625 34.90625 28.71875 34.90625 
L 20.21875 34.90625 
L 20.21875 43.015625 
L 29.109375 43.015625 
Q 36.375 43.015625 40.234375 45.921875 
Q 44.09375 48.828125 44.09375 54.296875 
Q 44.09375 59.90625 40.109375 62.90625 
Q 36.140625 65.921875 28.71875 65.921875 
Q 24.65625 65.921875 20.015625 65.03125 
Q 15.375 64.15625 9.8125 62.3125 
L 9.8125 71.09375 
Q 15.4375 72.65625 20.34375 73.4375 
Q 25.25 74.21875 29.59375 74.21875 
Q 40.828125 74.21875 47.359375 69.109375 
Q 53.90625 64.015625 53.90625 55.328125 
Q 53.90625 49.265625 50.4375 45.09375 
Q 46.96875 40.921875 40.578125 39.3125 
z
" id="DejaVuSans-51"/>
      </defs>
      <g transform="translate(186.186804 322.182437)scale(0.1 -0.1)">
       <use xlink:href="#DejaVuSans-51"/>
       <use x="63.623047" xlink:href="#DejaVuSans-48"/>
       <use x="127.246094" xlink:href="#DejaVuSans-48"/>
      </g>
     </g>
    </g>
    <g id="xtick_5">
     <g id="line2d_5">
      <g>
       <use style="stroke:#000000;stroke-width:0.8;" x="236.363163" xlink:href="#mddb16b13c5" y="307.584"/>
      </g>
     </g>
     <g id="text_5">
      <!-- 400 -->
      <defs>
       <path d="M 37.796875 64.3125 
L 12.890625 25.390625 
L 37.796875 25.390625 
z
M 35.203125 72.90625 
L 47.609375 72.90625 
L 47.609375 25.390625 
L 58.015625 25.390625 
L 58.015625 17.1875 
L 47.609375 17.1875 
L 47.609375 0 
L 37.796875 0 
L 37.796875 17.1875 
L 4.890625 17.1875 
L 4.890625 26.703125 
z
" id="DejaVuSans-52"/>
      </defs>
      <g transform="translate(226.819413 322.182437)scale(0.1 -0.1)">
       <use xlink:href="#DejaVuSans-52"/>
       <use x="63.623047" xlink:href="#DejaVuSans-48"/>
       <use x="127.246094" xlink:href="#DejaVuSans-48"/>
      </g>
     </g>
    </g>
    <g id="xtick_6">
     <g id="line2d_6">
      <g>
       <use style="stroke:#000000;stroke-width:0.8;" x="276.995772" xlink:href="#mddb16b13c5" y="307.584"/>
      </g>
     </g>
     <g id="text_6">
      <!-- 500 -->
      <defs>
       <path d="M 10.796875 72.90625 
L 49.515625 72.90625 
L 49.515625 64.59375 
L 19.828125 64.59375 
L 19.828125 46.734375 
Q 21.96875 47.46875 24.109375 47.828125 
Q 26.265625 48.1875 28.421875 48.1875 
Q 40.625 48.1875 47.75 41.5 
Q 54.890625 34.8125 54.890625 23.390625 
Q 54.890625 11.625 47.5625 5.09375 
Q 40.234375 -1.421875 26.90625 -1.421875 
Q 22.3125 -1.421875 17.546875 -0.640625 
Q 12.796875 0.140625 7.71875 1.703125 
L 7.71875 11.625 
Q 12.109375 9.234375 16.796875 8.0625 
Q 21.484375 6.890625 26.703125 6.890625 
Q 35.15625 6.890625 40.078125 11.328125 
Q 45.015625 15.765625 45.015625 23.390625 
Q 45.015625 31 40.078125 35.4375 
Q 35.15625 39.890625 26.703125 39.890625 
Q 22.75 39.890625 18.8125 39.015625 
Q 14.890625 38.140625 10.796875 36.28125 
z
" id="DejaVuSans-53"/>
      </defs>
      <g transform="translate(267.452022 322.182437)scale(0.1 -0.1)">
       <use xlink:href="#DejaVuSans-53"/>
       <use x="63.623047" xlink:href="#DejaVuSans-48"/>
       <use x="127.246094" xlink:href="#DejaVuSans-48"/>
      </g>
     </g>
    </g>
    <g id="xtick_7">
     <g id="line2d_7">
      <g>
       <use style="stroke:#000000;stroke-width:0.8;" x="317.628381" xlink:href="#mddb16b13c5" y="307.584"/>
      </g>
     </g>
     <g id="text_7">
      <!-- 600 -->
      <defs>
       <path d="M 33.015625 40.375 
Q 26.375 40.375 22.484375 35.828125 
Q 18.609375 31.296875 18.609375 23.390625 
Q 18.609375 15.53125 22.484375 10.953125 
Q 26.375 6.390625 33.015625 6.390625 
Q 39.65625 6.390625 43.53125 10.953125 
Q 47.40625 15.53125 47.40625 23.390625 
Q 47.40625 31.296875 43.53125 35.828125 
Q 39.65625 40.375 33.015625 40.375 
z
M 52.59375 71.296875 
L 52.59375 62.3125 
Q 48.875 64.0625 45.09375 64.984375 
Q 41.3125 65.921875 37.59375 65.921875 
Q 27.828125 65.921875 22.671875 59.328125 
Q 17.53125 52.734375 16.796875 39.40625 
Q 19.671875 43.65625 24.015625 45.921875 
Q 28.375 48.1875 33.59375 48.1875 
Q 44.578125 48.1875 50.953125 41.515625 
Q 57.328125 34.859375 57.328125 23.390625 
Q 57.328125 12.15625 50.6875 5.359375 
Q 44.046875 -1.421875 33.015625 -1.421875 
Q 20.359375 -1.421875 13.671875 8.265625 
Q 6.984375 17.96875 6.984375 36.375 
Q 6.984375 53.65625 15.1875 63.9375 
Q 23.390625 74.21875 37.203125 74.21875 
Q 40.921875 74.21875 44.703125 73.484375 
Q 48.484375 72.75 52.59375 71.296875 
z
" id="DejaVuSans-54"/>
      </defs>
      <g transform="translate(308.084631 322.182437)scale(0.1 -0.1)">
       <use xlink:href="#DejaVuSans-54"/>
       <use x="63.623047" xlink:href="#DejaVuSans-48"/>
       <use x="127.246094" xlink:href="#DejaVuSans-48"/>
      </g>
     </g>
    </g>
    <g id="xtick_8">
     <g id="line2d_8">
      <g>
       <use style="stroke:#000000;stroke-width:0.8;" x="358.26099" xlink:href="#mddb16b13c5" y="307.584"/>
      </g>
     </g>
     <g id="text_8">
      <!-- 700 -->
      <defs>
       <path d="M 8.203125 72.90625 
L 55.078125 72.90625 
L 55.078125 68.703125 
L 28.609375 0 
L 18.3125 0 
L 43.21875 64.59375 
L 8.203125 64.59375 
z
" id="DejaVuSans-55"/>
      </defs>
      <g transform="translate(348.71724 322.182437)scale(0.1 -0.1)">
       <use xlink:href="#DejaVuSans-55"/>
       <use x="63.623047" xlink:href="#DejaVuSans-48"/>
       <use x="127.246094" xlink:href="#DejaVuSans-48"/>
      </g>
     </g>
    </g>
    <g id="xtick_9">
     <g id="line2d_9">
      <g>
       <use style="stroke:#000000;stroke-width:0.8;" x="398.893599" xlink:href="#mddb16b13c5" y="307.584"/>
      </g>
     </g>
     <g id="text_9">
      <!-- 800 -->
      <defs>
       <path d="M 31.78125 34.625 
Q 24.75 34.625 20.71875 30.859375 
Q 16.703125 27.09375 16.703125 20.515625 
Q 16.703125 13.921875 20.71875 10.15625 
Q 24.75 6.390625 31.78125 6.390625 
Q 38.8125 6.390625 42.859375 10.171875 
Q 46.921875 13.96875 46.921875 20.515625 
Q 46.921875 27.09375 42.890625 30.859375 
Q 38.875 34.625 31.78125 34.625 
z
M 21.921875 38.8125 
Q 15.578125 40.375 12.03125 44.71875 
Q 8.5 49.078125 8.5 55.328125 
Q 8.5 64.0625 14.71875 69.140625 
Q 20.953125 74.21875 31.78125 74.21875 
Q 42.671875 74.21875 48.875 69.140625 
Q 55.078125 64.0625 55.078125 55.328125 
Q 55.078125 49.078125 51.53125 44.71875 
Q 48 40.375 41.703125 38.8125 
Q 48.828125 37.15625 52.796875 32.3125 
Q 56.78125 27.484375 56.78125 20.515625 
Q 56.78125 9.90625 50.3125 4.234375 
Q 43.84375 -1.421875 31.78125 -1.421875 
Q 19.734375 -1.421875 13.25 4.234375 
Q 6.78125 9.90625 6.78125 20.515625 
Q 6.78125 27.484375 10.78125 32.3125 
Q 14.796875 37.15625 21.921875 38.8125 
z
M 18.3125 54.390625 
Q 18.3125 48.734375 21.84375 45.5625 
Q 25.390625 42.390625 31.78125 42.390625 
Q 38.140625 42.390625 41.71875 45.5625 
Q 45.3125 48.734375 45.3125 54.390625 
Q 45.3125 60.0625 41.71875 63.234375 
Q 38.140625 66.40625 31.78125 66.40625 
Q 25.390625 66.40625 21.84375 63.234375 
Q 18.3125 60.0625 18.3125 54.390625 
z
" id="DejaVuSans-56"/>
      </defs>
      <g transform="translate(389.349849 322.182437)scale(0.1 -0.1)">
       <use xlink:href="#DejaVuSans-56"/>
       <use x="63.623047" xlink:href="#DejaVuSans-48"/>
       <use x="127.246094" xlink:href="#DejaVuSans-48"/>
      </g>
     </g>
    </g>
   </g>
   <g id="matplotlib.axis_2">
    <g id="ytick_1">
     <g id="line2d_10">
      <defs>
       <path d="M 0 0 
L -3.5 0 
" id="ma2693f3a07" style="stroke:#000000;stroke-width:0.8;"/>
      </defs>
      <g>
       <use style="stroke:#000000;stroke-width:0.8;" x="57.6" xlink:href="#ma2693f3a07" y="293.795743"/>
      </g>
     </g>
     <g id="text_10">
      <!-- 0.0 -->
      <defs>
       <path d="M 10.6875 12.40625 
L 21 12.40625 
L 21 0 
L 10.6875 0 
z
" id="DejaVuSans-46"/>
      </defs>
      <g transform="translate(34.696875 297.594962)scale(0.1 -0.1)">
       <use xlink:href="#DejaVuSans-48"/>
       <use x="63.623047" xlink:href="#DejaVuSans-46"/>
       <use x="95.410156" xlink:href="#DejaVuSans-48"/>
      </g>
     </g>
    </g>
    <g id="ytick_2">
     <g id="line2d_11">
      <g>
       <use style="stroke:#000000;stroke-width:0.8;" x="57.6" xlink:href="#ma2693f3a07" y="240.035901"/>
      </g>
     </g>
     <g id="text_11">
      <!-- 0.1 -->
      <g transform="translate(34.696875 243.835119)scale(0.1 -0.1)">
       <use xlink:href="#DejaVuSans-48"/>
       <use x="63.623047" xlink:href="#DejaVuSans-46"/>
       <use x="95.410156" xlink:href="#DejaVuSans-49"/>
      </g>
     </g>
    </g>
    <g id="ytick_3">
     <g id="line2d_12">
      <g>
       <use style="stroke:#000000;stroke-width:0.8;" x="57.6" xlink:href="#ma2693f3a07" y="186.276058"/>
      </g>
     </g>
     <g id="text_12">
      <!-- 0.2 -->
      <g transform="translate(34.696875 190.075277)scale(0.1 -0.1)">
       <use xlink:href="#DejaVuSans-48"/>
       <use x="63.623047" xlink:href="#DejaVuSans-46"/>
       <use x="95.410156" xlink:href="#DejaVuSans-50"/>
      </g>
     </g>
    </g>
    <g id="ytick_4">
     <g id="line2d_13">
      <g>
       <use style="stroke:#000000;stroke-width:0.8;" x="57.6" xlink:href="#ma2693f3a07" y="132.516216"/>
      </g>
     </g>
     <g id="text_13">
      <!-- 0.3 -->
      <g transform="translate(34.696875 136.315435)scale(0.1 -0.1)">
       <use xlink:href="#DejaVuSans-48"/>
       <use x="63.623047" xlink:href="#DejaVuSans-46"/>
       <use x="95.410156" xlink:href="#DejaVuSans-51"/>
      </g>
     </g>
    </g>
    <g id="ytick_5">
     <g id="line2d_14">
      <g>
       <use style="stroke:#000000;stroke-width:0.8;" x="57.6" xlink:href="#ma2693f3a07" y="78.756374"/>
      </g>
     </g>
     <g id="text_14">
      <!-- 0.4 -->
      <g transform="translate(34.696875 82.555593)scale(0.1 -0.1)">
       <use xlink:href="#DejaVuSans-48"/>
       <use x="63.623047" xlink:href="#DejaVuSans-46"/>
       <use x="95.410156" xlink:href="#DejaVuSans-52"/>
      </g>
     </g>
    </g>
   </g>
   <g id="line2d_15">
    <path clip-path="url(#p62c2bd1f15)" d="M 73.832727 53.808357 
L 76.270684 54.721092 
L 77.895988 55.184077 
L 79.114966 55.246958 
L 80.333945 55.052268 
L 81.959249 54.501341 
L 83.99088 53.781507 
L 85.209858 53.580766 
L 86.428836 53.641739 
L 87.647814 53.943283 
L 91.711075 55.234904 
L 92.930053 55.225336 
L 94.149032 54.96315 
L 96.180662 54.216635 
L 97.39964 53.807128 
L 98.618619 53.601231 
L 99.837597 53.660144 
L 101.056575 53.958058 
L 104.71351 55.189545 
L 105.932488 55.257109 
L 107.151467 55.076661 
L 108.776771 54.520761 
L 110.808401 53.801893 
L 112.02738 53.604716 
L 113.246358 53.664634 
L 114.465336 53.966046 
L 118.528597 55.225174 
L 119.747575 55.217479 
L 120.966554 54.959934 
L 125.436141 53.641638 
L 126.655119 53.701229 
L 127.874097 53.989997 
L 131.937358 55.239706 
L 133.156336 55.233213 
L 134.375315 54.987381 
L 136.813271 54.114452 
L 138.032249 53.769469 
L 139.251228 53.646757 
L 140.470206 53.781901 
L 142.09551 54.285997 
L 144.533467 55.127453 
L 145.752445 55.298206 
L 146.971423 55.207556 
L 148.190402 54.884446 
L 151.847336 53.708533 
L 153.066315 53.66748 
L 154.285293 53.886051 
L 155.910597 54.45616 
L 157.942228 55.161143 
L 159.161206 55.340721 
L 160.380184 55.253149 
L 161.599163 54.92767 
L 165.256097 53.725204 
L 166.475076 53.67659 
L 167.694054 53.889401 
L 169.319358 54.454389 
L 171.350989 55.162187 
L 172.569967 55.346783 
L 173.788945 55.269043 
L 175.007924 54.954049 
L 178.664858 53.754221 
L 179.883837 53.695914 
L 181.102815 53.897919 
L 182.728119 54.451019 
L 184.75975 55.152624 
L 185.978728 55.340916 
L 187.197706 55.270095 
L 188.416684 54.953442 
L 192.073619 53.737266 
L 193.292598 53.687107 
L 194.511576 53.897115 
L 196.13688 54.457517 
L 198.168511 55.157884 
L 199.387489 55.337554 
L 200.606467 55.255473 
L 201.825445 54.937322 
L 205.48238 53.747617 
L 206.701359 53.702921 
L 207.920337 53.915491 
L 209.545641 54.479142 
L 211.577272 55.178093 
L 212.79625 55.35907 
L 214.015228 55.277862 
L 215.234206 54.970898 
L 218.891141 53.799981 
L 220.110119 53.747271 
L 221.329098 53.95417 
L 222.954402 54.51335 
L 224.986033 55.216206 
L 226.205011 55.403325 
L 227.423989 55.329648 
L 228.642967 55.022016 
L 232.299902 53.831092 
L 233.51888 53.769002 
L 234.737859 53.962803 
L 236.363163 54.511305 
L 238.394793 55.214203 
L 239.613772 55.409774 
L 240.83275 55.347019 
L 242.051728 55.046324 
L 245.708663 53.850642 
L 246.927641 53.779523 
L 248.14662 53.965996 
L 249.771924 54.503433 
L 251.803554 55.204388 
L 253.022533 55.402798 
L 254.241511 55.344496 
L 255.460489 55.048141 
L 259.117424 53.851493 
L 260.336402 53.7729 
L 261.555381 53.951121 
L 263.180685 54.479503 
L 265.212315 55.193955 
L 266.431294 55.405552 
L 267.650272 55.358365 
L 268.86925 55.066342 
L 272.932511 53.772935 
L 274.151489 53.773931 
L 275.370468 54.036002 
L 277.808424 54.939359 
L 279.027402 55.296507 
L 280.246381 55.404917 
L 281.465359 55.225512 
L 283.090663 54.678353 
L 284.715968 54.066063 
L 285.934946 53.782258 
L 287.153924 53.734654 
L 288.372902 53.917678 
L 290.404533 54.615559 
L 292.029837 55.132716 
L 293.248816 55.320486 
L 294.467794 55.245285 
L 295.686772 54.936951 
L 299.343707 53.79892 
L 300.562685 53.744004 
L 301.781663 53.93526 
L 303.406968 54.456536 
L 305.438598 55.114956 
L 306.657577 55.282229 
L 307.876555 55.193664 
L 309.501859 54.743521 
L 312.346142 53.82018 
L 313.56512 53.693025 
L 314.784098 53.816833 
L 316.409403 54.277454 
L 318.847359 55.062468 
L 320.066337 55.225721 
L 321.285316 55.148121 
L 322.504294 54.85615 
L 326.161229 53.760377 
L 327.380207 53.705787 
L 328.599185 53.891616 
L 330.630816 54.516297 
L 332.662446 55.076256 
L 333.881425 55.144208 
L 335.506729 54.906534 
L 337.538359 54.295974 
L 339.163664 53.847154 
L 340.382642 53.700154 
L 341.60162 53.813793 
L 343.226925 54.264419 
L 346.477533 55.229472 
L 347.696512 55.220429 
L 348.91549 55.010783 
L 353.385077 53.81314 
L 354.604055 53.864133 
L 356.229359 54.23186 
L 359.479968 55.183938 
L 360.698946 55.261758 
L 361.917925 55.109441 
L 363.543229 54.64784 
L 365.981186 53.943853 
L 367.200164 53.815673 
L 368.419142 53.920908 
L 370.044446 54.348901 
L 372.482403 55.108058 
L 373.701381 55.27682 
L 374.92036 55.207491 
L 376.139338 54.934493 
L 379.796273 53.877854 
L 381.015251 53.819421 
L 382.234229 53.988523 
L 383.859534 54.471338 
L 385.891164 55.094409 
L 387.110142 55.259947 
L 388.32912 55.196547 
L 389.954425 54.802555 
L 392.798707 53.943627 
L 394.017686 53.799172 
L 395.236664 53.888714 
L 396.861968 54.313045 
L 398.487273 54.845058 
L 398.487273 54.845058 
" style="fill:none;stroke:#1f77b4;stroke-linecap:square;stroke-width:1.5;"/>
   </g>
   <g id="line2d_16">
    <path clip-path="url(#p62c2bd1f15)" d="M 73.832727 55.002444 
L 75.864358 54.262299 
L 77.489662 53.729313 
L 78.70864 53.568 
L 79.927619 53.675322 
L 81.146597 54.013326 
L 84.397206 55.136438 
L 85.616184 55.249659 
L 86.835162 55.10804 
L 88.460466 54.590483 
L 90.898423 53.739597 
L 92.117401 53.587816 
L 93.33638 53.691659 
L 94.555358 54.023748 
L 97.805967 55.146923 
L 99.024945 55.276199 
L 100.243923 55.131828 
L 101.869227 54.610257 
L 104.307184 53.757497 
L 105.526162 53.593839 
L 106.745141 53.70204 
L 107.964119 54.031985 
L 111.214728 55.12644 
L 112.433706 55.239648 
L 113.652684 55.096321 
L 115.277988 54.590296 
L 117.715945 53.76957 
L 118.934923 53.612199 
L 120.153901 53.717349 
L 121.37288 54.048668 
L 124.623488 55.146226 
L 125.842467 55.271534 
L 127.061445 55.134775 
L 128.686749 54.633741 
L 131.124706 53.805784 
L 132.343684 53.637406 
L 133.562662 53.730984 
L 134.781641 54.054891 
L 138.032249 55.157401 
L 139.251228 55.289545 
L 140.06388 55.241998 
L 141.282858 54.952463 
L 145.346119 53.679322 
L 146.565097 53.676716 
L 147.784076 53.929732 
L 152.253663 55.28791 
L 153.066315 55.322155 
L 154.285293 55.107068 
L 155.910597 54.543381 
L 157.942228 53.836713 
L 159.161206 53.658227 
L 160.380184 53.745981 
L 161.599163 54.076462 
L 165.256097 55.283025 
L 166.475076 55.333396 
L 167.694054 55.122797 
L 169.319358 54.559786 
L 171.350989 53.865346 
L 172.569967 53.684505 
L 173.788945 53.764429 
L 175.007924 54.08034 
L 178.664858 55.287339 
L 179.883837 55.345216 
L 181.102815 55.133801 
L 182.728119 54.584405 
L 184.75975 53.885668 
L 185.978728 53.698007 
L 187.197706 53.770748 
L 188.416684 54.079734 
L 192.073619 55.270521 
L 193.292598 55.323701 
L 194.511576 55.119629 
L 196.13688 54.562823 
L 198.168511 53.867855 
L 199.387489 53.684422 
L 200.606467 53.764275 
L 201.825445 54.080238 
L 205.48238 55.272722 
L 206.701359 55.330072 
L 207.920337 55.128663 
L 209.545641 54.579902 
L 211.577272 53.893486 
L 212.79625 53.719907 
L 214.015228 53.802569 
L 215.234206 54.120811 
L 218.891141 55.315508 
L 220.110119 55.385447 
L 221.329098 55.193496 
L 222.954402 54.642254 
L 224.986033 53.939259 
L 226.205011 53.754798 
L 227.423989 53.829423 
L 228.642967 54.139663 
L 232.299902 55.340553 
L 233.51888 55.406968 
L 234.737859 55.215554 
L 236.363163 54.671998 
L 238.394793 53.972348 
L 239.613772 53.777723 
L 240.83275 53.841273 
L 242.051728 54.142808 
L 245.708663 55.33977 
L 246.927641 55.40987 
L 248.14662 55.222746 
L 249.771924 54.685535 
L 251.803554 53.980786 
L 253.022533 53.781789 
L 254.241511 53.837127 
L 255.460489 54.134153 
L 259.117424 55.330954 
L 260.336402 55.40447 
L 261.555381 55.222415 
L 263.180685 54.686278 
L 265.212315 53.97802 
L 266.431294 53.77331 
L 267.650272 53.825935 
L 268.86925 54.121078 
L 272.932511 55.388701 
L 274.151489 55.378897 
L 275.370468 55.116369 
L 279.840055 53.753115 
L 281.059033 53.804438 
L 282.278011 54.092389 
L 285.934946 55.240812 
L 287.153924 55.294309 
L 288.372902 55.094191 
L 289.998207 54.574776 
L 292.029837 53.916492 
L 293.248816 53.74405 
L 294.467794 53.822845 
L 295.686772 54.123226 
L 299.343707 55.266631 
L 300.562685 55.314596 
L 301.781663 55.112575 
L 303.406968 54.577767 
L 305.438598 53.897318 
L 306.657577 53.714891 
L 307.876555 53.780104 
L 309.095533 54.068816 
L 312.752468 55.167453 
L 313.971446 55.218819 
L 315.190424 55.028741 
L 316.815729 54.518502 
L 318.847359 53.878649 
L 320.066337 53.711271 
L 321.285316 53.777548 
L 322.504294 54.067506 
L 326.161229 55.144359 
L 327.380207 55.202106 
L 328.599185 55.021645 
L 330.22449 54.519451 
L 332.25612 53.879821 
L 333.475098 53.699802 
L 334.694077 53.747625 
L 335.913055 54.00234 
L 339.976316 55.099099 
L 341.195294 55.095657 
L 342.414272 54.879655 
L 346.477533 53.823391 
L 347.696512 53.826283 
L 348.91549 54.056499 
L 353.385077 55.26052 
L 354.604055 55.218726 
L 355.823033 54.960111 
L 359.886294 53.830408 
L 361.105272 53.826241 
L 362.324251 54.049834 
L 366.793838 55.258138 
L 368.012816 55.230538 
L 369.231794 54.988074 
L 373.701381 53.825769 
L 374.92036 53.889058 
L 376.139338 54.161797 
L 379.796273 55.211469 
L 381.015251 55.262258 
L 382.234229 55.086692 
L 384.26586 54.467123 
L 385.891164 53.982664 
L 387.110142 53.813232 
L 388.32912 53.871149 
L 389.548099 54.139809 
L 393.205034 55.189681 
L 394.424012 55.248937 
L 395.64299 55.079988 
L 397.268294 54.599728 
L 398.487273 54.193889 
L 398.487273 54.193889 
" style="fill:none;stroke:#ff0000;stroke-linecap:square;stroke-width:1.5;"/>
   </g>
   <g id="line2d_17">
    <path clip-path="url(#p62c2bd1f15)" d="M 73.832727 292.601656 
L 75.051706 293.458796 
L 77.083336 294.947712 
L 77.895988 295.333531 
L 78.70864 295.488 
L 79.521293 295.393921 
L 80.333945 295.081186 
L 81.552923 294.2924 
L 83.99088 292.536491 
L 84.803532 292.211136 
L 85.616184 292.116537 
L 86.428836 292.25467 
L 87.241488 292.613672 
L 88.460466 293.440325 
L 90.492097 294.925434 
L 91.304749 295.293851 
L 92.117401 295.46983 
L 92.930053 295.39122 
L 93.742706 295.091344 
L 94.961684 294.311845 
L 97.39964 292.553805 
L 98.212293 292.218844 
L 99.024945 292.113765 
L 99.837597 292.247735 
L 100.650249 292.606972 
L 101.869227 293.436969 
L 103.900858 294.928208 
L 104.71351 295.310588 
L 105.526162 295.468222 
L 106.338814 295.382444 
L 107.151467 295.082348 
L 108.370445 294.298296 
L 110.808401 292.564762 
L 111.621054 292.247316 
L 112.433706 292.151235 
L 113.246358 292.288606 
L 114.05901 292.642779 
L 115.277988 293.460609 
L 117.309619 294.908771 
L 118.122271 295.276221 
L 118.934923 295.434958 
L 119.747575 295.358679 
L 120.560228 295.059781 
L 121.779206 294.292934 
L 124.217162 292.58501 
L 125.029815 292.261929 
L 125.842467 292.156715 
L 126.655119 292.289905 
L 127.467771 292.629707 
L 128.686749 293.4335 
L 130.71838 294.880335 
L 131.531032 295.255561 
L 132.343684 295.425077 
L 133.156336 295.357456 
L 133.968989 295.069315 
L 135.187967 294.315699 
L 137.625923 292.601959 
L 138.438575 292.268805 
L 139.251228 292.152954 
L 140.06388 292.262049 
L 140.876532 292.604632 
L 142.09551 293.414538 
L 144.127141 294.886978 
L 144.939793 295.269825 
L 145.752445 295.446405 
L 146.565097 295.385832 
L 147.377749 295.098215 
L 148.596728 294.333124 
L 151.034684 292.593113 
L 151.847336 292.256652 
L 152.659989 292.107747 
L 153.472641 292.231329 
L 154.285293 292.574726 
L 155.504271 293.392514 
L 157.535902 294.894705 
L 158.348554 295.295808 
L 159.161206 295.478237 
L 159.973858 295.42095 
L 160.78651 295.127705 
L 162.005489 294.356318 
L 164.443445 292.587796 
L 165.256097 292.237921 
L 166.06875 292.111587 
L 166.881402 292.225724 
L 167.694054 292.562346 
L 168.913032 293.374796 
L 170.944663 294.869379 
L 171.757315 295.268816 
L 172.569967 295.45802 
L 173.382619 295.411819 
L 174.195271 295.135302 
L 175.41425 294.385082 
L 177.852206 292.617193 
L 178.664858 292.262625 
L 179.477511 292.125936 
L 180.290163 292.237192 
L 181.102815 292.55986 
L 182.321793 293.352062 
L 184.353424 294.838446 
L 185.166076 295.241937 
L 185.978728 295.438653 
L 186.79138 295.401203 
L 187.604032 295.134575 
L 188.416684 294.669451 
L 191.667293 292.412866 
L 192.479945 292.166923 
L 193.292598 292.159149 
L 194.10525 292.38161 
L 194.917902 292.809514 
L 196.543206 294.008534 
L 197.762185 294.864564 
L 198.574837 295.259401 
L 199.387489 295.448875 
L 200.200141 295.400075 
L 201.012793 295.120395 
L 202.231772 294.368443 
L 204.669728 292.617459 
L 205.48238 292.270638 
L 206.295032 292.143025 
L 207.107685 292.249239 
L 207.920337 292.582571 
L 209.139315 293.383934 
L 211.170946 294.859213 
L 211.983598 295.250459 
L 212.79625 295.434907 
L 213.608902 295.383676 
L 214.421554 295.108784 
L 215.640532 294.363748 
L 218.078489 292.625464 
L 218.891141 292.280215 
L 219.703793 292.138857 
L 220.516446 292.236726 
L 221.329098 292.556417 
L 222.548076 293.356121 
L 224.579706 294.847372 
L 225.392359 295.250128 
L 226.205011 295.44427 
L 227.017663 295.403066 
L 227.830315 295.136225 
L 229.049293 294.39576 
L 231.48725 292.644965 
L 232.299902 292.286282 
L 233.112554 292.139675 
L 233.925207 292.233613 
L 234.737859 292.542992 
L 235.956837 293.328651 
L 238.394793 295.037597 
L 239.207446 295.35215 
L 240.020098 295.444714 
L 240.83275 295.301489 
L 241.645402 294.943718 
L 242.86438 294.122412 
L 244.896011 292.671487 
L 245.708663 292.306615 
L 246.521315 292.155813 
L 247.333967 292.236143 
L 248.14662 292.538993 
L 249.365598 293.308842 
L 251.803554 295.019345 
L 252.616207 295.33887 
L 253.428859 295.43624 
L 254.241511 295.303112 
L 255.054163 294.951011 
L 256.273141 294.137641 
L 258.304772 292.687914 
L 259.117424 292.316281 
L 259.930076 292.1571 
L 260.742728 292.229542 
L 261.555381 292.524449 
L 262.774359 293.284648 
L 265.212315 295.011678 
L 266.024968 295.342972 
L 266.83762 295.45384 
L 267.650272 295.328173 
L 268.462924 294.983788 
L 269.681902 294.165794 
L 271.713533 292.683406 
L 272.526185 292.296595 
L 273.338837 292.121197 
L 274.151489 292.190776 
L 274.964142 292.491245 
L 276.18312 293.273185 
L 278.621076 295.033732 
L 279.433729 295.360046 
L 280.246381 295.459963 
L 281.059033 295.302771 
L 281.871685 294.936576 
L 283.090663 294.102293 
L 284.715968 292.912149 
L 285.52862 292.481483 
L 286.341272 292.246322 
L 287.153924 292.236088 
L 287.966576 292.436351 
L 289.185555 293.103025 
L 292.029837 295.011967 
L 292.842489 295.305478 
L 293.655142 295.379201 
L 294.467794 295.218183 
L 295.280446 294.857375 
L 296.90575 293.741812 
L 298.531055 292.658082 
L 299.343707 292.328032 
L 300.156359 292.201775 
L 300.969011 292.303615 
L 301.781663 292.618428 
L 303.000642 293.378734 
L 305.032272 294.80195 
L 305.844924 295.181024 
L 306.657577 295.36308 
L 307.470229 295.317916 
L 308.282881 295.047023 
L 309.501859 294.339259 
L 311.939816 292.705374 
L 312.752468 292.380118 
L 313.56512 292.259174 
L 314.377772 292.357576 
L 315.59675 292.888063 
L 317.222055 293.98727 
L 318.441033 294.775706 
L 319.253685 295.138708 
L 320.066337 295.310194 
L 320.87899 295.264547 
L 321.691642 295.01306 
L 322.91062 294.323595 
L 325.348577 292.733631 
L 326.161229 292.41176 
L 326.973881 292.284107 
L 327.786533 292.371901 
L 328.599185 292.665714 
L 329.818164 293.379216 
L 331.849794 294.708716 
L 332.662446 295.075773 
L 333.475098 295.25257 
L 334.287751 295.197558 
L 335.506729 294.804121 
L 336.725707 294.107926 
L 338.757338 292.850248 
L 339.976316 292.422211 
L 340.788968 292.382181 
L 341.60162 292.565279 
L 342.820598 293.161568 
L 346.071207 295.101113 
L 346.883859 295.247541 
L 347.696512 295.189889 
L 348.509164 294.946971 
L 349.728142 294.262817 
L 352.166099 292.720146 
L 352.978751 292.423505 
L 353.791403 292.331429 
L 354.604055 292.44115 
L 355.823033 292.946723 
L 357.854664 294.277167 
L 359.073642 294.946888 
L 359.886294 295.20107 
L 360.698946 295.256751 
L 361.511599 295.102977 
L 362.730577 294.533717 
L 365.981186 292.589948 
L 366.793838 292.372435 
L 367.60649 292.352182 
L 368.419142 292.543924 
L 369.63812 293.144826 
L 372.888729 295.068372 
L 373.701381 295.246794 
L 374.514033 295.210508 
L 375.326686 294.977514 
L 376.545664 294.319388 
L 378.98362 292.779037 
L 379.796273 292.462128 
L 380.608925 292.337022 
L 381.421577 292.419665 
L 382.234229 292.697573 
L 383.453207 293.391532 
L 385.891164 294.907488 
L 386.703816 295.179727 
L 387.516468 295.25425 
L 388.32912 295.121141 
L 389.548099 294.583402 
L 393.205034 292.475006 
L 394.017686 292.339829 
L 394.830338 292.41245 
L 395.64299 292.68231 
L 396.861968 293.373153 
L 398.487273 294.446912 
L 398.487273 294.446912 
" style="fill:none;stroke:#008000;stroke-linecap:square;stroke-width:1.5;"/>
   </g>
   <g id="patch_3">
    <path d="M 57.6 307.584 
L 57.6 41.472 
" style="fill:none;stroke:#000000;stroke-linecap:square;stroke-linejoin:miter;stroke-width:0.8;"/>
   </g>
   <g id="patch_4">
    <path d="M 414.72 307.584 
L 414.72 41.472 
" style="fill:none;stroke:#000000;stroke-linecap:square;stroke-linejoin:miter;stroke-width:0.8;"/>
   </g>
   <g id="patch_5">
    <path d="M 57.6 307.584 
L 414.72 307.584 
" style="fill:none;stroke:#000000;stroke-linecap:square;stroke-linejoin:miter;stroke-width:0.8;"/>
   </g>
   <g id="patch_6">
    <path d="M 57.6 41.472 
L 414.72 41.472 
" style="fill:none;stroke:#000000;stroke-linecap:square;stroke-linejoin:miter;stroke-width:0.8;"/>
   </g>
   <g id="legend_1">
    <g id="patch_7">
     <path d="M 351.0075 198.045187 
L 407.72 198.045187 
Q 409.72 198.045187 409.72 196.045187 
L 409.72 153.010812 
Q 409.72 151.010812 407.72 151.010812 
L 351.0075 151.010812 
Q 349.0075 151.010812 349.0075 153.010812 
L 349.0075 196.045187 
Q 349.0075 198.045187 351.0075 198.045187 
z
" style="fill:#ffffff;opacity:0.8;stroke:#cccccc;stroke-linejoin:miter;"/>
    </g>
    <g id="line2d_18">
     <path d="M 353.0075 159.10925 
L 373.0075 159.10925 
" style="fill:none;stroke:#1f77b4;stroke-linecap:square;stroke-width:1.5;"/>
    </g>
    <g id="line2d_19"/>
    <g id="text_15">
     <!-- 0-&gt;1 -->
     <defs>
      <path d="M 4.890625 31.390625 
L 31.203125 31.390625 
L 31.203125 23.390625 
L 4.890625 23.390625 
z
" id="DejaVuSans-45"/>
      <path d="M 10.59375 49.21875 
L 10.59375 58.109375 
L 73.1875 35.40625 
L 73.1875 27.296875 
L 10.59375 4.59375 
L 10.59375 13.484375 
L 60.890625 31.296875 
z
" id="DejaVuSans-62"/>
     </defs>
     <g transform="translate(381.0075 162.60925)scale(0.1 -0.1)">
      <use xlink:href="#DejaVuSans-48"/>
      <use x="63.623047" xlink:href="#DejaVuSans-45"/>
      <use x="99.707031" xlink:href="#DejaVuSans-62"/>
      <use x="183.496094" xlink:href="#DejaVuSans-49"/>
     </g>
    </g>
    <g id="line2d_20">
     <path d="M 353.0075 173.787375 
L 373.0075 173.787375 
" style="fill:none;stroke:#ff0000;stroke-linecap:square;stroke-width:1.5;"/>
    </g>
    <g id="line2d_21"/>
    <g id="text_16">
     <!-- 1-&gt;0 -->
     <g transform="translate(381.0075 177.287375)scale(0.1 -0.1)">
      <use xlink:href="#DejaVuSans-49"/>
      <use x="63.623047" xlink:href="#DejaVuSans-45"/>
      <use x="99.707031" xlink:href="#DejaVuSans-62"/>
      <use x="183.496094" xlink:href="#DejaVuSans-48"/>
     </g>
    </g>
    <g id="line2d_22">
     <path d="M 353.0075 188.4655 
L 373.0075 188.4655 
" style="fill:none;stroke:#008000;stroke-linecap:square;stroke-width:1.5;"/>
    </g>
    <g id="line2d_23"/>
    <g id="text_17">
     <!-- diff -->
     <defs>
      <path d="M 45.40625 46.390625 
L 45.40625 75.984375 
L 54.390625 75.984375 
L 54.390625 0 
L 45.40625 0 
L 45.40625 8.203125 
Q 42.578125 3.328125 38.25 0.953125 
Q 33.9375 -1.421875 27.875 -1.421875 
Q 17.96875 -1.421875 11.734375 6.484375 
Q 5.515625 14.40625 5.515625 27.296875 
Q 5.515625 40.1875 11.734375 48.09375 
Q 17.96875 56 27.875 56 
Q 33.9375 56 38.25 53.625 
Q 42.578125 51.265625 45.40625 46.390625 
z
M 14.796875 27.296875 
Q 14.796875 17.390625 18.875 11.75 
Q 22.953125 6.109375 30.078125 6.109375 
Q 37.203125 6.109375 41.296875 11.75 
Q 45.40625 17.390625 45.40625 27.296875 
Q 45.40625 37.203125 41.296875 42.84375 
Q 37.203125 48.484375 30.078125 48.484375 
Q 22.953125 48.484375 18.875 42.84375 
Q 14.796875 37.203125 14.796875 27.296875 
z
" id="DejaVuSans-100"/>
      <path d="M 9.421875 54.6875 
L 18.40625 54.6875 
L 18.40625 0 
L 9.421875 0 
z
M 9.421875 75.984375 
L 18.40625 75.984375 
L 18.40625 64.59375 
L 9.421875 64.59375 
z
" id="DejaVuSans-105"/>
      <path d="M 37.109375 75.984375 
L 37.109375 68.5 
L 28.515625 68.5 
Q 23.6875 68.5 21.796875 66.546875 
Q 19.921875 64.59375 19.921875 59.515625 
L 19.921875 54.6875 
L 34.71875 54.6875 
L 34.71875 47.703125 
L 19.921875 47.703125 
L 19.921875 0 
L 10.890625 0 
L 10.890625 47.703125 
L 2.296875 47.703125 
L 2.296875 54.6875 
L 10.890625 54.6875 
L 10.890625 58.5 
Q 10.890625 67.625 15.140625 71.796875 
Q 19.390625 75.984375 28.609375 75.984375 
z
" id="DejaVuSans-102"/>
     </defs>
     <g transform="translate(381.0075 191.9655)scale(0.1 -0.1)">
      <use xlink:href="#DejaVuSans-100"/>
      <use x="63.476562" xlink:href="#DejaVuSans-105"/>
      <use x="91.259766" xlink:href="#DejaVuSans-102"/>
      <use x="126.464844" xlink:href="#DejaVuSans-102"/>
     </g>
    </g>
   </g>
  </g>
 </g>
 <defs>
  <clipPath id="p62c2bd1f15">
   <rect height="266.112" width="357.12" x="57.6" y="41.472"/>
  </clipPath>
 </defs>
</svg>
