<?xml version="1.0" encoding="utf-8" standalone="no"?>
<!DOCTYPE svg PUBLIC "-//W3C//DTD SVG 1.1//EN"
  "http://www.w3.org/Graphics/SVG/1.1/DTD/svg11.dtd">
<!-- Created with matplotlib (https://matplotlib.org/) -->
<svg height="345.6pt" version="1.1" viewBox="0 0 460.8 345.6" width="460.8pt" xmlns="http://www.w3.org/2000/svg" xmlns:xlink="http://www.w3.org/1999/xlink">
 <defs>
  <style type="text/css">
*{stroke-linecap:butt;stroke-linejoin:round;}
  </style>
 </defs>
 <g id="figure_1">
  <g id="patch_1">
   <path d="M 0 345.6 
L 460.8 345.6 
L 460.8 0 
L 0 0 
z
" style="fill:#ffffff;"/>
  </g>
  <g id="axes_1">
   <g id="patch_2">
    <path d="M 57.6 307.584 
L 414.72 307.584 
L 414.72 41.472 
L 57.6 41.472 
z
" style="fill:#ffffff;"/>
   </g>
   <g id="matplotlib.axis_1">
    <g id="xtick_1">
     <g id="line2d_1">
      <defs>
       <path d="M 0 0 
L 0 3.5 
" id="m02cb27238e" style="stroke:#000000;stroke-width:0.8;"/>
      </defs>
      <g>
       <use style="stroke:#000000;stroke-width:0.8;" x="73.832727" xlink:href="#m02cb27238e" y="307.584"/>
      </g>
     </g>
     <g id="text_1">
      <!-- 0 -->
      <defs>
       <path d="M 31.78125 66.40625 
Q 24.171875 66.40625 20.328125 58.90625 
Q 16.5 51.421875 16.5 36.375 
Q 16.5 21.390625 20.328125 13.890625 
Q 24.171875 6.390625 31.78125 6.390625 
Q 39.453125 6.390625 43.28125 13.890625 
Q 47.125 21.390625 47.125 36.375 
Q 47.125 51.421875 43.28125 58.90625 
Q 39.453125 66.40625 31.78125 66.40625 
z
M 31.78125 74.21875 
Q 44.046875 74.21875 50.515625 64.515625 
Q 56.984375 54.828125 56.984375 36.375 
Q 56.984375 17.96875 50.515625 8.265625 
Q 44.046875 -1.421875 31.78125 -1.421875 
Q 19.53125 -1.421875 13.0625 8.265625 
Q 6.59375 17.96875 6.59375 36.375 
Q 6.59375 54.828125 13.0625 64.515625 
Q 19.53125 74.21875 31.78125 74.21875 
z
" id="DejaVuSans-48"/>
      </defs>
      <g transform="translate(70.651477 322.182437)scale(0.1 -0.1)">
       <use xlink:href="#DejaVuSans-48"/>
      </g>
     </g>
    </g>
    <g id="xtick_2">
     <g id="line2d_2">
      <g>
       <use style="stroke:#000000;stroke-width:0.8;" x="114.465336" xlink:href="#m02cb27238e" y="307.584"/>
      </g>
     </g>
     <g id="text_2">
      <!-- 100 -->
      <defs>
       <path d="M 12.40625 8.296875 
L 28.515625 8.296875 
L 28.515625 63.921875 
L 10.984375 60.40625 
L 10.984375 69.390625 
L 28.421875 72.90625 
L 38.28125 72.90625 
L 38.28125 8.296875 
L 54.390625 8.296875 
L 54.390625 0 
L 12.40625 0 
z
" id="DejaVuSans-49"/>
      </defs>
      <g transform="translate(104.921586 322.182437)scale(0.1 -0.1)">
       <use xlink:href="#DejaVuSans-49"/>
       <use x="63.623047" xlink:href="#DejaVuSans-48"/>
       <use x="127.246094" xlink:href="#DejaVuSans-48"/>
      </g>
     </g>
    </g>
    <g id="xtick_3">
     <g id="line2d_3">
      <g>
       <use style="stroke:#000000;stroke-width:0.8;" x="155.097945" xlink:href="#m02cb27238e" y="307.584"/>
      </g>
     </g>
     <g id="text_3">
      <!-- 200 -->
      <defs>
       <path d="M 19.1875 8.296875 
L 53.609375 8.296875 
L 53.609375 0 
L 7.328125 0 
L 7.328125 8.296875 
Q 12.9375 14.109375 22.625 23.890625 
Q 32.328125 33.6875 34.8125 36.53125 
Q 39.546875 41.84375 41.421875 45.53125 
Q 43.3125 49.21875 43.3125 52.78125 
Q 43.3125 58.59375 39.234375 62.25 
Q 35.15625 65.921875 28.609375 65.921875 
Q 23.96875 65.921875 18.8125 64.3125 
Q 13.671875 62.703125 7.8125 59.421875 
L 7.8125 69.390625 
Q 13.765625 71.78125 18.9375 73 
Q 24.125 74.21875 28.421875 74.21875 
Q 39.75 74.21875 46.484375 68.546875 
Q 53.21875 62.890625 53.21875 53.421875 
Q 53.21875 48.921875 51.53125 44.890625 
Q 49.859375 40.875 45.40625 35.40625 
Q 44.1875 33.984375 37.640625 27.21875 
Q 31.109375 20.453125 19.1875 8.296875 
z
" id="DejaVuSans-50"/>
      </defs>
      <g transform="translate(145.554195 322.182437)scale(0.1 -0.1)">
       <use xlink:href="#DejaVuSans-50"/>
       <use x="63.623047" xlink:href="#DejaVuSans-48"/>
       <use x="127.246094" xlink:href="#DejaVuSans-48"/>
      </g>
     </g>
    </g>
    <g id="xtick_4">
     <g id="line2d_4">
      <g>
       <use style="stroke:#000000;stroke-width:0.8;" x="195.730554" xlink:href="#m02cb27238e" y="307.584"/>
      </g>
     </g>
     <g id="text_4">
      <!-- 300 -->
      <defs>
       <path d="M 40.578125 39.3125 
Q 47.65625 37.796875 51.625 33 
Q 55.609375 28.21875 55.609375 21.1875 
Q 55.609375 10.40625 48.1875 4.484375 
Q 40.765625 -1.421875 27.09375 -1.421875 
Q 22.515625 -1.421875 17.65625 -0.515625 
Q 12.796875 0.390625 7.625 2.203125 
L 7.625 11.71875 
Q 11.71875 9.328125 16.59375 8.109375 
Q 21.484375 6.890625 26.8125 6.890625 
Q 36.078125 6.890625 40.9375 10.546875 
Q 45.796875 14.203125 45.796875 21.1875 
Q 45.796875 27.640625 41.28125 31.265625 
Q 36.765625 34.90625 28.71875 34.90625 
L 20.21875 34.90625 
L 20.21875 43.015625 
L 29.109375 43.015625 
Q 36.375 43.015625 40.234375 45.921875 
Q 44.09375 48.828125 44.09375 54.296875 
Q 44.09375 59.90625 40.109375 62.90625 
Q 36.140625 65.921875 28.71875 65.921875 
Q 24.65625 65.921875 20.015625 65.03125 
Q 15.375 64.15625 9.8125 62.3125 
L 9.8125 71.09375 
Q 15.4375 72.65625 20.34375 73.4375 
Q 25.25 74.21875 29.59375 74.21875 
Q 40.828125 74.21875 47.359375 69.109375 
Q 53.90625 64.015625 53.90625 55.328125 
Q 53.90625 49.265625 50.4375 45.09375 
Q 46.96875 40.921875 40.578125 39.3125 
z
" id="DejaVuSans-51"/>
      </defs>
      <g transform="translate(186.186804 322.182437)scale(0.1 -0.1)">
       <use xlink:href="#DejaVuSans-51"/>
       <use x="63.623047" xlink:href="#DejaVuSans-48"/>
       <use x="127.246094" xlink:href="#DejaVuSans-48"/>
      </g>
     </g>
    </g>
    <g id="xtick_5">
     <g id="line2d_5">
      <g>
       <use style="stroke:#000000;stroke-width:0.8;" x="236.363163" xlink:href="#m02cb27238e" y="307.584"/>
      </g>
     </g>
     <g id="text_5">
      <!-- 400 -->
      <defs>
       <path d="M 37.796875 64.3125 
L 12.890625 25.390625 
L 37.796875 25.390625 
z
M 35.203125 72.90625 
L 47.609375 72.90625 
L 47.609375 25.390625 
L 58.015625 25.390625 
L 58.015625 17.1875 
L 47.609375 17.1875 
L 47.609375 0 
L 37.796875 0 
L 37.796875 17.1875 
L 4.890625 17.1875 
L 4.890625 26.703125 
z
" id="DejaVuSans-52"/>
      </defs>
      <g transform="translate(226.819413 322.182437)scale(0.1 -0.1)">
       <use xlink:href="#DejaVuSans-52"/>
       <use x="63.623047" xlink:href="#DejaVuSans-48"/>
       <use x="127.246094" xlink:href="#DejaVuSans-48"/>
      </g>
     </g>
    </g>
    <g id="xtick_6">
     <g id="line2d_6">
      <g>
       <use style="stroke:#000000;stroke-width:0.8;" x="276.995772" xlink:href="#m02cb27238e" y="307.584"/>
      </g>
     </g>
     <g id="text_6">
      <!-- 500 -->
      <defs>
       <path d="M 10.796875 72.90625 
L 49.515625 72.90625 
L 49.515625 64.59375 
L 19.828125 64.59375 
L 19.828125 46.734375 
Q 21.96875 47.46875 24.109375 47.828125 
Q 26.265625 48.1875 28.421875 48.1875 
Q 40.625 48.1875 47.75 41.5 
Q 54.890625 34.8125 54.890625 23.390625 
Q 54.890625 11.625 47.5625 5.09375 
Q 40.234375 -1.421875 26.90625 -1.421875 
Q 22.3125 -1.421875 17.546875 -0.640625 
Q 12.796875 0.140625 7.71875 1.703125 
L 7.71875 11.625 
Q 12.109375 9.234375 16.796875 8.0625 
Q 21.484375 6.890625 26.703125 6.890625 
Q 35.15625 6.890625 40.078125 11.328125 
Q 45.015625 15.765625 45.015625 23.390625 
Q 45.015625 31 40.078125 35.4375 
Q 35.15625 39.890625 26.703125 39.890625 
Q 22.75 39.890625 18.8125 39.015625 
Q 14.890625 38.140625 10.796875 36.28125 
z
" id="DejaVuSans-53"/>
      </defs>
      <g transform="translate(267.452022 322.182437)scale(0.1 -0.1)">
       <use xlink:href="#DejaVuSans-53"/>
       <use x="63.623047" xlink:href="#DejaVuSans-48"/>
       <use x="127.246094" xlink:href="#DejaVuSans-48"/>
      </g>
     </g>
    </g>
    <g id="xtick_7">
     <g id="line2d_7">
      <g>
       <use style="stroke:#000000;stroke-width:0.8;" x="317.628381" xlink:href="#m02cb27238e" y="307.584"/>
      </g>
     </g>
     <g id="text_7">
      <!-- 600 -->
      <defs>
       <path d="M 33.015625 40.375 
Q 26.375 40.375 22.484375 35.828125 
Q 18.609375 31.296875 18.609375 23.390625 
Q 18.609375 15.53125 22.484375 10.953125 
Q 26.375 6.390625 33.015625 6.390625 
Q 39.65625 6.390625 43.53125 10.953125 
Q 47.40625 15.53125 47.40625 23.390625 
Q 47.40625 31.296875 43.53125 35.828125 
Q 39.65625 40.375 33.015625 40.375 
z
M 52.59375 71.296875 
L 52.59375 62.3125 
Q 48.875 64.0625 45.09375 64.984375 
Q 41.3125 65.921875 37.59375 65.921875 
Q 27.828125 65.921875 22.671875 59.328125 
Q 17.53125 52.734375 16.796875 39.40625 
Q 19.671875 43.65625 24.015625 45.921875 
Q 28.375 48.1875 33.59375 48.1875 
Q 44.578125 48.1875 50.953125 41.515625 
Q 57.328125 34.859375 57.328125 23.390625 
Q 57.328125 12.15625 50.6875 5.359375 
Q 44.046875 -1.421875 33.015625 -1.421875 
Q 20.359375 -1.421875 13.671875 8.265625 
Q 6.984375 17.96875 6.984375 36.375 
Q 6.984375 53.65625 15.1875 63.9375 
Q 23.390625 74.21875 37.203125 74.21875 
Q 40.921875 74.21875 44.703125 73.484375 
Q 48.484375 72.75 52.59375 71.296875 
z
" id="DejaVuSans-54"/>
      </defs>
      <g transform="translate(308.084631 322.182437)scale(0.1 -0.1)">
       <use xlink:href="#DejaVuSans-54"/>
       <use x="63.623047" xlink:href="#DejaVuSans-48"/>
       <use x="127.246094" xlink:href="#DejaVuSans-48"/>
      </g>
     </g>
    </g>
    <g id="xtick_8">
     <g id="line2d_8">
      <g>
       <use style="stroke:#000000;stroke-width:0.8;" x="358.26099" xlink:href="#m02cb27238e" y="307.584"/>
      </g>
     </g>
     <g id="text_8">
      <!-- 700 -->
      <defs>
       <path d="M 8.203125 72.90625 
L 55.078125 72.90625 
L 55.078125 68.703125 
L 28.609375 0 
L 18.3125 0 
L 43.21875 64.59375 
L 8.203125 64.59375 
z
" id="DejaVuSans-55"/>
      </defs>
      <g transform="translate(348.71724 322.182437)scale(0.1 -0.1)">
       <use xlink:href="#DejaVuSans-55"/>
       <use x="63.623047" xlink:href="#DejaVuSans-48"/>
       <use x="127.246094" xlink:href="#DejaVuSans-48"/>
      </g>
     </g>
    </g>
    <g id="xtick_9">
     <g id="line2d_9">
      <g>
       <use style="stroke:#000000;stroke-width:0.8;" x="398.893599" xlink:href="#m02cb27238e" y="307.584"/>
      </g>
     </g>
     <g id="text_9">
      <!-- 800 -->
      <defs>
       <path d="M 31.78125 34.625 
Q 24.75 34.625 20.71875 30.859375 
Q 16.703125 27.09375 16.703125 20.515625 
Q 16.703125 13.921875 20.71875 10.15625 
Q 24.75 6.390625 31.78125 6.390625 
Q 38.8125 6.390625 42.859375 10.171875 
Q 46.921875 13.96875 46.921875 20.515625 
Q 46.921875 27.09375 42.890625 30.859375 
Q 38.875 34.625 31.78125 34.625 
z
M 21.921875 38.8125 
Q 15.578125 40.375 12.03125 44.71875 
Q 8.5 49.078125 8.5 55.328125 
Q 8.5 64.0625 14.71875 69.140625 
Q 20.953125 74.21875 31.78125 74.21875 
Q 42.671875 74.21875 48.875 69.140625 
Q 55.078125 64.0625 55.078125 55.328125 
Q 55.078125 49.078125 51.53125 44.71875 
Q 48 40.375 41.703125 38.8125 
Q 48.828125 37.15625 52.796875 32.3125 
Q 56.78125 27.484375 56.78125 20.515625 
Q 56.78125 9.90625 50.3125 4.234375 
Q 43.84375 -1.421875 31.78125 -1.421875 
Q 19.734375 -1.421875 13.25 4.234375 
Q 6.78125 9.90625 6.78125 20.515625 
Q 6.78125 27.484375 10.78125 32.3125 
Q 14.796875 37.15625 21.921875 38.8125 
z
M 18.3125 54.390625 
Q 18.3125 48.734375 21.84375 45.5625 
Q 25.390625 42.390625 31.78125 42.390625 
Q 38.140625 42.390625 41.71875 45.5625 
Q 45.3125 48.734375 45.3125 54.390625 
Q 45.3125 60.0625 41.71875 63.234375 
Q 38.140625 66.40625 31.78125 66.40625 
Q 25.390625 66.40625 21.84375 63.234375 
Q 18.3125 60.0625 18.3125 54.390625 
z
" id="DejaVuSans-56"/>
      </defs>
      <g transform="translate(389.349849 322.182437)scale(0.1 -0.1)">
       <use xlink:href="#DejaVuSans-56"/>
       <use x="63.623047" xlink:href="#DejaVuSans-48"/>
       <use x="127.246094" xlink:href="#DejaVuSans-48"/>
      </g>
     </g>
    </g>
   </g>
   <g id="matplotlib.axis_2">
    <g id="ytick_1">
     <g id="line2d_10">
      <defs>
       <path d="M 0 0 
L -3.5 0 
" id="mc6db5f405a" style="stroke:#000000;stroke-width:0.8;"/>
      </defs>
      <g>
       <use style="stroke:#000000;stroke-width:0.8;" x="57.6" xlink:href="#mc6db5f405a" y="293.479714"/>
      </g>
     </g>
     <g id="text_10">
      <!-- 0.0 -->
      <defs>
       <path d="M 10.6875 12.40625 
L 21 12.40625 
L 21 0 
L 10.6875 0 
z
" id="DejaVuSans-46"/>
      </defs>
      <g transform="translate(34.696875 297.278933)scale(0.1 -0.1)">
       <use xlink:href="#DejaVuSans-48"/>
       <use x="63.623047" xlink:href="#DejaVuSans-46"/>
       <use x="95.410156" xlink:href="#DejaVuSans-48"/>
      </g>
     </g>
    </g>
    <g id="ytick_2">
     <g id="line2d_11">
      <g>
       <use style="stroke:#000000;stroke-width:0.8;" x="57.6" xlink:href="#mc6db5f405a" y="239.915376"/>
      </g>
     </g>
     <g id="text_11">
      <!-- 0.1 -->
      <g transform="translate(34.696875 243.714595)scale(0.1 -0.1)">
       <use xlink:href="#DejaVuSans-48"/>
       <use x="63.623047" xlink:href="#DejaVuSans-46"/>
       <use x="95.410156" xlink:href="#DejaVuSans-49"/>
      </g>
     </g>
    </g>
    <g id="ytick_3">
     <g id="line2d_12">
      <g>
       <use style="stroke:#000000;stroke-width:0.8;" x="57.6" xlink:href="#mc6db5f405a" y="186.351038"/>
      </g>
     </g>
     <g id="text_12">
      <!-- 0.2 -->
      <g transform="translate(34.696875 190.150257)scale(0.1 -0.1)">
       <use xlink:href="#DejaVuSans-48"/>
       <use x="63.623047" xlink:href="#DejaVuSans-46"/>
       <use x="95.410156" xlink:href="#DejaVuSans-50"/>
      </g>
     </g>
    </g>
    <g id="ytick_4">
     <g id="line2d_13">
      <g>
       <use style="stroke:#000000;stroke-width:0.8;" x="57.6" xlink:href="#mc6db5f405a" y="132.7867"/>
      </g>
     </g>
     <g id="text_13">
      <!-- 0.3 -->
      <g transform="translate(34.696875 136.585918)scale(0.1 -0.1)">
       <use xlink:href="#DejaVuSans-48"/>
       <use x="63.623047" xlink:href="#DejaVuSans-46"/>
       <use x="95.410156" xlink:href="#DejaVuSans-51"/>
      </g>
     </g>
    </g>
    <g id="ytick_5">
     <g id="line2d_14">
      <g>
       <use style="stroke:#000000;stroke-width:0.8;" x="57.6" xlink:href="#mc6db5f405a" y="79.222362"/>
      </g>
     </g>
     <g id="text_14">
      <!-- 0.4 -->
      <g transform="translate(34.696875 83.02158)scale(0.1 -0.1)">
       <use xlink:href="#DejaVuSans-48"/>
       <use x="63.623047" xlink:href="#DejaVuSans-46"/>
       <use x="95.410156" xlink:href="#DejaVuSans-52"/>
      </g>
     </g>
    </g>
   </g>
   <g id="line2d_15">
    <path clip-path="url(#pec0a7652b2)" d="M 73.832727 53.679375 
L 75.051706 53.568 
L 75.864358 53.677194 
L 77.083336 54.09547 
L 80.333945 55.444582 
L 81.552923 55.596581 
L 82.771901 55.425453 
L 83.99088 54.991803 
L 86.835162 53.797424 
L 88.05414 53.614064 
L 89.273119 53.746064 
L 90.492097 54.149706 
L 94.149032 55.50576 
L 95.36801 55.575388 
L 96.586988 55.346243 
L 98.212293 54.694856 
L 100.243923 53.904413 
L 101.462901 53.672499 
L 102.68188 53.76687 
L 103.900858 54.12775 
L 107.557793 55.559536 
L 108.776771 55.627452 
L 109.995749 55.38409 
L 111.214728 54.920803 
L 113.652684 53.899817 
L 114.871662 53.688577 
L 116.090641 53.772296 
L 117.309619 54.12901 
L 120.966554 55.529724 
L 122.185532 55.599413 
L 123.40451 55.372509 
L 124.623488 54.849405 
L 127.061445 53.866016 
L 128.280423 53.660532 
L 129.093075 53.688523 
L 130.312054 53.977327 
L 132.343684 54.801885 
L 133.968989 55.355816 
L 135.594293 55.474053 
L 136.406945 55.382955 
L 137.625923 55.000169 
L 140.470206 53.884234 
L 141.689184 53.699584 
L 142.908162 53.80222 
L 144.127141 54.151352 
L 147.784076 55.520473 
L 149.003054 55.548049 
L 150.628358 55.147295 
L 152.253663 54.478506 
L 153.472641 54.024887 
L 155.097945 53.676666 
L 156.316923 53.800223 
L 157.535902 54.156097 
L 158.348554 54.472269 
L 158.75488 54.80294 
L 160.380184 55.312355 
L 161.599163 55.433449 
L 162.818141 55.283008 
L 164.443445 54.755675 
L 166.475076 53.98605 
L 167.694054 53.748429 
L 168.913032 53.748042 
L 170.13201 53.990378 
L 172.163641 54.652661 
L 173.788945 55.203506 
L 175.007924 55.404753 
L 175.820576 55.38369 
L 177.039554 55.110409 
L 179.477511 54.177873 
L 180.696489 53.808958 
L 181.915467 53.67888 
L 183.134445 53.813782 
L 184.353424 54.236007 
L 185.978728 54.895427 
L 187.604032 55.341761 
L 188.823011 55.401353 
L 190.041989 55.216602 
L 191.667293 54.665706 
L 193.698924 53.963038 
L 194.917902 53.752493 
L 196.13688 53.80798 
L 197.355858 54.094054 
L 201.012793 55.316552 
L 202.231772 55.398812 
L 203.45075 55.225287 
L 205.48238 54.551594 
L 207.514011 53.861843 
L 208.732989 53.726699 
L 209.951967 53.8563 
L 211.983598 54.53661 
L 214.015228 55.274669 
L 215.234206 55.474978 
L 216.453185 55.384705 
L 217.672163 55.0649 
L 221.329098 53.841468 
L 222.548076 53.785341 
L 223.767054 53.996164 
L 225.392359 54.564551 
L 227.830315 55.425157 
L 229.049293 55.502092 
L 230.268272 55.314249 
L 231.893576 54.753888 
L 233.925207 54.007643 
L 235.144185 53.773944 
L 236.363163 53.803362 
L 237.582141 54.087612 
L 241.645402 55.416042 
L 242.86438 55.437653 
L 244.083359 55.194542 
L 245.708663 54.589849 
L 247.333967 53.9848 
L 248.552946 53.756293 
L 249.771924 53.787689 
L 250.990902 54.081568 
L 255.054163 55.394087 
L 256.273141 55.426608 
L 257.49212 55.197711 
L 259.117424 54.612325 
L 261.149054 53.915693 
L 262.368033 53.753823 
L 263.587011 53.853889 
L 264.805989 54.20168 
L 268.056598 55.330525 
L 269.275576 55.427416 
L 270.494555 55.270034 
L 272.119859 54.728248 
L 274.151489 53.989257 
L 275.370468 53.755086 
L 276.589446 53.773058 
L 277.808424 54.051692 
L 281.871685 55.384492 
L 283.090663 55.426212 
L 284.309642 55.193648 
L 285.934946 54.614158 
L 287.966576 53.915029 
L 289.185555 53.743056 
L 290.404533 53.848607 
L 291.623511 54.193504 
L 294.87412 55.330918 
L 296.093098 55.451158 
L 297.312076 55.305197 
L 298.937381 54.790552 
L 301.375337 53.939039 
L 302.594316 53.779398 
L 303.813294 53.882591 
L 305.032272 54.215924 
L 308.282881 55.330264 
L 309.501859 55.453225 
L 310.720837 55.311161 
L 312.346142 54.792032 
L 314.784098 53.935839 
L 316.003077 53.77114 
L 317.222055 53.876061 
L 318.441033 54.219012 
L 321.691642 55.358861 
L 322.91062 55.488388 
L 324.129598 55.346014 
L 325.754903 54.822565 
L 328.192859 53.943276 
L 329.411838 53.762212 
L 330.630816 53.856414 
L 331.849794 54.192834 
L 335.100403 55.324335 
L 336.319381 55.448261 
L 337.132033 55.363911 
L 338.351011 55.043901 
L 339.976316 54.449899 
L 342.820598 53.761634 
L 344.039577 53.83511 
L 345.258555 54.136015 
L 348.91549 55.278971 
L 350.134468 55.335554 
L 351.353446 55.144683 
L 352.978751 54.619066 
L 355.010381 53.979593 
L 356.229359 53.820355 
L 357.448338 53.892454 
L 359.073642 54.279714 
L 362.324251 55.254065 
L 363.543229 55.319146 
L 364.762207 55.15056 
L 369.63812 53.899425 
L 370.857099 53.934237 
L 372.888729 54.484971 
L 374.107707 54.920978 
L 375.733012 55.274334 
L 376.95199 55.343044 
L 378.170968 55.182142 
L 379.796273 54.715609 
L 381.827903 54.106911 
L 383.046881 53.929131 
L 384.26586 53.973376 
L 385.891164 54.335924 
L 389.548099 55.354849 
L 390.360751 55.483789 
L 391.173403 55.44487 
L 392.392381 55.268714 
L 396.455642 54.119483 
L 397.674621 54.106824 
L 398.487273 54.25934 
L 398.487273 54.25934 
" style="fill:none;stroke:#1f77b4;stroke-linecap:square;stroke-width:1.5;"/>
   </g>
   <g id="line2d_16">
    <path clip-path="url(#pec0a7652b2)" d="M 73.832727 55.52895 
L 74.645379 55.673229 
L 75.458032 55.596762 
L 76.67701 55.256864 
L 78.70864 54.323956 
L 80.333945 53.735205 
L 81.552923 53.588295 
L 82.771901 53.756289 
L 83.99088 54.188443 
L 86.835162 55.385354 
L 88.05414 55.584162 
L 89.273119 55.468646 
L 90.492097 55.098327 
L 93.742706 53.80847 
L 94.961684 53.652154 
L 96.180662 53.804685 
L 97.39964 54.214869 
L 100.650249 55.500636 
L 101.869227 55.632092 
L 103.088206 55.449191 
L 104.307184 55.008404 
L 107.151467 53.846375 
L 108.370445 53.674488 
L 109.589423 53.813726 
L 110.808401 54.217405 
L 114.05901 55.494088 
L 115.277988 55.604789 
L 116.496967 55.411525 
L 118.122271 54.810326 
L 120.153901 53.986071 
L 121.37288 53.72033 
L 122.185532 53.709944 
L 123.40451 53.943917 
L 125.029815 54.559627 
L 127.061445 55.338729 
L 128.280423 55.531231 
L 129.093075 55.502004 
L 130.312054 55.212754 
L 134.375315 53.722629 
L 135.594293 53.661552 
L 136.406945 53.771621 
L 137.625923 54.158782 
L 140.876532 55.449536 
L 142.09551 55.568569 
L 143.314489 55.38046 
L 147.377749 53.890018 
L 148.596728 53.753888 
L 149.815706 53.910519 
L 151.44101 54.46732 
L 153.472641 55.243709 
L 154.691619 55.474926 
L 155.504271 55.465909 
L 156.316923 55.348004 
L 160.78651 53.758738 
L 162.005489 53.728203 
L 163.224467 53.965263 
L 165.256097 54.690352 
L 166.475076 55.134182 
L 168.506706 55.365817 
L 169.725684 55.242004 
L 170.944663 54.846213 
L 173.788945 53.855061 
L 175.007924 53.699522 
L 176.226902 53.794316 
L 177.44588 54.127682 
L 180.696489 55.272054 
L 181.915467 55.407303 
L 183.134445 55.261799 
L 184.75975 54.745853 
L 186.79138 54.017012 
L 188.010358 53.782404 
L 189.229337 53.798991 
L 190.448315 54.063223 
L 194.917902 55.40291 
L 196.13688 55.334576 
L 197.355858 55.026915 
L 201.012793 53.790408 
L 202.231772 53.71327 
L 203.45075 53.899197 
L 205.076054 54.457368 
L 207.107685 55.197265 
L 208.326663 55.420921 
L 209.545641 55.385649 
L 210.764619 55.09852 
L 214.82788 53.784628 
L 216.046859 53.782437 
L 217.265837 54.038484 
L 219.297467 54.816814 
L 220.922772 55.336682 
L 222.14175 55.478343 
L 223.360728 55.350517 
L 224.579706 54.998471 
L 227.830315 53.903127 
L 229.049293 53.814622 
L 230.268272 53.968642 
L 231.893576 54.499507 
L 234.331533 55.323022 
L 235.550511 55.465421 
L 236.769489 55.344716 
L 237.988467 54.984828 
L 241.239076 53.858196 
L 242.458054 53.755612 
L 243.677033 53.912854 
L 245.302337 54.453099 
L 247.333967 55.18521 
L 248.552946 55.414165 
L 249.771924 55.380344 
L 250.990902 55.093511 
L 255.054163 53.804733 
L 256.273141 53.79047 
L 257.49212 54.033064 
L 259.117424 54.620664 
L 261.149054 55.31386 
L 262.368033 55.461648 
L 263.587011 55.34013 
L 264.805989 54.983802 
L 268.462924 53.758843 
L 269.681902 53.741744 
L 270.900881 53.988697 
L 272.932511 54.742384 
L 274.557815 55.275825 
L 275.776794 55.434249 
L 276.995772 55.31972 
L 278.21475 54.97142 
L 281.059033 53.934684 
L 282.278011 53.739568 
L 283.496989 53.806048 
L 284.715968 54.119366 
L 288.372902 55.373955 
L 289.591881 55.452109 
L 290.810859 55.260875 
L 292.436163 54.703723 
L 294.467794 53.977985 
L 295.686772 53.77762 
L 296.90575 53.839612 
L 298.124729 54.144039 
L 301.781663 55.376382 
L 303.000642 55.451786 
L 304.21962 55.257041 
L 305.844924 54.714242 
L 307.876555 53.993307 
L 309.095533 53.778745 
L 310.314511 53.830826 
L 311.53349 54.134995 
L 315.59675 55.438855 
L 316.815729 55.43756 
L 318.034707 55.179362 
L 322.504294 53.783939 
L 323.723272 53.834844 
L 324.942251 54.133918 
L 329.005511 55.458379 
L 330.22449 55.464551 
L 331.443468 55.19425 
L 335.913055 53.770544 
L 337.132033 53.798671 
L 338.351011 54.07435 
L 342.414272 55.333132 
L 343.633251 55.339154 
L 344.852229 55.09938 
L 349.321816 53.780536 
L 350.540794 53.809376 
L 351.759772 54.071596 
L 355.823033 55.298521 
L 357.042012 55.326956 
L 358.26099 55.118753 
L 360.29262 54.460568 
L 361.917925 53.976195 
L 363.136903 53.827003 
L 364.355881 53.91469 
L 365.981186 54.346589 
L 368.825468 55.220554 
L 370.044446 55.347261 
L 371.263425 55.244244 
L 372.888729 54.80774 
L 375.326686 54.080288 
L 376.545664 53.929835 
L 377.764642 54.008497 
L 379.389947 54.418848 
L 381.827903 55.149265 
L 383.046881 55.322506 
L 384.26586 55.2802 
L 385.484838 55.026228 
L 389.548099 53.93047 
L 390.767077 53.950007 
L 391.986055 54.216539 
L 393.61136 54.824196 
L 395.64299 55.577725 
L 396.861968 55.792431 
L 398.080947 55.737262 
L 398.487273 55.661679 
L 398.487273 55.661679 
" style="fill:none;stroke:#ff0000;stroke-linecap:square;stroke-width:1.5;"/>
   </g>
   <g id="line2d_17">
    <path clip-path="url(#pec0a7652b2)" d="M 73.832727 291.630139 
L 74.645379 291.375755 
L 75.458032 291.487554 
L 76.270684 291.88464 
L 77.083336 292.482117 
L 79.521293 294.678225 
L 80.333945 295.189091 
L 81.146597 295.46081 
L 81.959249 295.440611 
L 82.771901 295.148879 
L 83.584553 294.61464 
L 85.209858 293.164833 
L 86.428836 292.144335 
L 87.241488 291.695425 
L 88.05414 291.509617 
L 88.866793 291.604074 
L 89.679445 291.9684 
L 90.898423 292.863105 
L 93.33638 294.874167 
L 94.149032 295.264797 
L 94.961684 295.414197 
L 95.774336 295.287494 
L 96.586988 294.908105 
L 97.805967 293.959553 
L 99.837597 292.252549 
L 100.650249 291.777263 
L 101.462901 291.533068 
L 102.275554 291.578382 
L 103.088206 291.893609 
L 104.307184 292.769261 
L 106.745141 294.866689 
L 107.557793 295.283337 
L 108.370445 295.446807 
L 109.183097 295.326043 
L 109.995749 294.942287 
L 111.214728 294.010141 
L 113.246358 292.250091 
L 114.05901 291.78081 
L 114.871662 291.56726 
L 115.684314 291.613125 
L 116.496967 291.9333 
L 117.715945 292.783689 
L 120.153901 294.79048 
L 120.966554 295.231673 
L 121.779206 295.397031 
L 122.591858 295.280018 
L 123.40451 294.908306 
L 124.217162 294.321575 
L 126.248793 292.544732 
L 127.061445 292.007001 
L 127.874097 291.681043 
L 128.686749 291.60132 
L 129.499402 291.812982 
L 130.312054 292.244287 
L 131.937358 293.549901 
L 133.156336 294.557389 
L 133.968989 295.035093 
L 135.187967 295.301178 
L 136.000619 295.240284 
L 136.813271 294.886106 
L 138.032249 293.985977 
L 140.470206 292.015933 
L 141.282858 291.687392 
L 142.09551 291.616804 
L 142.908162 291.807961 
L 143.720815 292.268361 
L 144.939793 293.252957 
L 147.377749 295.01366 
L 148.190402 295.275261 
L 149.003054 295.254853 
L 149.815706 294.95885 
L 151.034684 294.178838 
L 153.472641 292.260893 
L 154.691619 291.714089 
L 155.097945 291.644272 
L 155.910597 291.776229 
L 156.72325 292.180226 
L 158.348554 293.432488 
L 158.75488 293.932172 
L 159.973858 294.765961 
L 160.78651 295.102605 
L 161.599163 295.208024 
L 162.411815 295.06336 
L 163.224467 294.693677 
L 164.443445 293.863488 
L 166.475076 292.331582 
L 167.694054 291.895721 
L 168.506706 291.832836 
L 169.319358 291.979284 
L 170.13201 292.334371 
L 171.350989 293.149088 
L 173.382619 294.615097 
L 174.195271 295.005289 
L 175.007924 295.184945 
L 175.820576 295.130768 
L 176.633228 294.831469 
L 177.852206 294.023441 
L 180.290163 292.217831 
L 181.102815 291.867992 
L 181.915467 291.751292 
L 182.728119 291.880146 
L 183.540771 292.241036 
L 187.197706 294.828095 
L 188.010358 295.082392 
L 188.823011 295.117289 
L 189.635663 294.922041 
L 190.448315 294.518838 
L 192.073619 293.335998 
L 193.292598 292.468361 
L 194.10525 292.050342 
L 194.917902 291.829297 
L 195.730554 291.853432 
L 196.543206 292.102271 
L 197.355858 292.546853 
L 201.012793 295.005858 
L 201.825445 295.172505 
L 202.638098 295.103078 
L 203.45075 294.805804 
L 204.669728 294.03625 
L 207.514011 292.044491 
L 208.326663 291.801075 
L 209.139315 291.791619 
L 209.951967 292.020234 
L 211.170946 292.742141 
L 214.421554 295.005713 
L 215.234206 295.199796 
L 216.046859 295.141804 
L 216.859511 294.848489 
L 218.078489 294.07332 
L 220.516446 292.266652 
L 221.329098 291.910944 
L 222.14175 291.776787 
L 222.954402 291.889798 
L 223.767054 292.219735 
L 224.986033 293.036005 
L 227.423989 294.833094 
L 228.236641 295.120741 
L 229.049293 295.167184 
L 229.861946 294.989238 
L 230.674598 294.598182 
L 231.893576 293.734095 
L 233.925207 292.262778 
L 234.737859 291.905649 
L 235.550511 291.764992 
L 236.363163 291.86872 
L 237.175815 292.196568 
L 238.394793 293.018687 
L 240.426424 294.554444 
L 241.239076 294.97292 
L 242.051728 295.173306 
L 242.86438 295.137415 
L 243.677033 294.86908 
L 244.896011 294.107053 
L 247.333967 292.279305 
L 248.14662 291.92186 
L 248.959272 291.782391 
L 249.771924 291.88706 
L 250.584576 292.230785 
L 251.803554 293.031647 
L 253.835185 294.531313 
L 254.647837 294.939691 
L 255.460489 295.144522 
L 256.273141 295.115852 
L 257.085794 294.856111 
L 258.304772 294.104245 
L 260.742728 292.291533 
L 261.555381 291.92383 
L 262.368033 291.771889 
L 263.180685 291.856774 
L 263.993337 292.182231 
L 265.212315 292.995819 
L 267.650272 294.801229 
L 268.462924 295.114109 
L 269.275576 295.189751 
L 270.088228 295.034184 
L 270.900881 294.652304 
L 272.119859 293.78803 
L 274.151489 292.299599 
L 274.964142 291.931874 
L 275.776794 291.777738 
L 276.589446 291.863181 
L 277.402098 292.187007 
L 278.621076 293.006497 
L 280.652707 294.525837 
L 281.465359 294.951668 
L 282.278011 295.169996 
L 283.090663 295.152373 
L 283.903316 294.885783 
L 284.715968 294.432275 
L 288.372902 291.934937 
L 289.185555 291.766063 
L 289.998207 291.845201 
L 290.810859 292.157364 
L 292.029837 292.960597 
L 294.061468 294.498766 
L 294.87412 294.928277 
L 295.686772 295.14306 
L 296.499424 295.121489 
L 297.312076 294.867622 
L 298.531055 294.135541 
L 301.375337 292.126492 
L 302.18799 291.851701 
L 303.000642 291.813657 
L 303.813294 292.013534 
L 304.625946 292.425035 
L 306.25125 293.597538 
L 307.470229 294.486825 
L 308.282881 294.916631 
L 309.095533 295.143825 
L 309.908185 295.129702 
L 310.720837 294.881526 
L 311.939816 294.148147 
L 314.784098 292.124758 
L 315.59675 291.837681 
L 316.409403 291.790377 
L 317.222055 291.97512 
L 318.034707 292.384967 
L 319.660011 293.589204 
L 321.285316 294.734586 
L 322.097968 295.08072 
L 322.91062 295.196821 
L 323.723272 295.067326 
L 324.535924 294.714033 
L 325.754903 293.872514 
L 327.786533 292.343679 
L 328.599185 291.939037 
L 329.411838 291.749779 
L 330.22449 291.810069 
L 331.037142 292.112762 
L 332.25612 292.906061 
L 334.694077 294.708052 
L 335.506729 295.053064 
L 336.319381 295.177845 
L 337.132033 295.044955 
L 338.351011 294.449265 
L 341.195294 292.456856 
L 342.007946 292.064011 
L 342.820598 291.879384 
L 343.633251 291.92298 
L 344.445903 292.193912 
L 345.664881 292.912249 
L 348.102838 294.593147 
L 348.91549 294.931617 
L 349.728142 295.062818 
L 350.540794 294.968309 
L 351.353446 294.661336 
L 352.572425 293.910072 
L 354.604055 292.516973 
L 355.416707 292.14591 
L 356.229359 291.966396 
L 357.042012 292.002108 
L 357.854664 292.228382 
L 359.073642 292.883495 
L 361.917925 294.684884 
L 362.730577 294.931639 
L 363.543229 294.969077 
L 364.355881 294.793999 
L 365.168533 294.426044 
L 368.825468 292.255968 
L 369.63812 292.048857 
L 370.450773 292.037847 
L 371.263425 292.266298 
L 372.482403 292.87165 
L 374.514033 294.224231 
L 375.733012 294.746043 
L 376.545664 294.896942 
L 377.358316 294.838529 
L 378.170968 294.577439 
L 379.389947 293.909613 
L 381.827903 292.437361 
L 382.640555 292.1585 
L 383.453207 292.067311 
L 384.26586 292.17289 
L 385.078512 292.466098 
L 386.703816 293.425257 
L 388.32912 294.447838 
L 389.548099 294.904094 
L 389.954425 295.035589 
L 390.767077 295.036948 
L 391.986055 294.638376 
L 393.205034 293.870052 
L 394.424012 292.952131 
L 395.64299 292.185672 
L 396.455642 291.850202 
L 397.268294 291.755459 
L 398.080947 291.930847 
L 398.487273 292.077375 
L 398.487273 292.077375 
" style="fill:none;stroke:#008000;stroke-linecap:square;stroke-width:1.5;"/>
   </g>
   <g id="patch_3">
    <path d="M 57.6 307.584 
L 57.6 41.472 
" style="fill:none;stroke:#000000;stroke-linecap:square;stroke-linejoin:miter;stroke-width:0.8;"/>
   </g>
   <g id="patch_4">
    <path d="M 414.72 307.584 
L 414.72 41.472 
" style="fill:none;stroke:#000000;stroke-linecap:square;stroke-linejoin:miter;stroke-width:0.8;"/>
   </g>
   <g id="patch_5">
    <path d="M 57.6 307.584 
L 414.72 307.584 
" style="fill:none;stroke:#000000;stroke-linecap:square;stroke-linejoin:miter;stroke-width:0.8;"/>
   </g>
   <g id="patch_6">
    <path d="M 57.6 41.472 
L 414.72 41.472 
" style="fill:none;stroke:#000000;stroke-linecap:square;stroke-linejoin:miter;stroke-width:0.8;"/>
   </g>
   <g id="legend_1">
    <g id="patch_7">
     <path d="M 351.0075 198.045187 
L 407.72 198.045187 
Q 409.72 198.045187 409.72 196.045187 
L 409.72 153.010812 
Q 409.72 151.010812 407.72 151.010812 
L 351.0075 151.010812 
Q 349.0075 151.010812 349.0075 153.010812 
L 349.0075 196.045187 
Q 349.0075 198.045187 351.0075 198.045187 
z
" style="fill:#ffffff;opacity:0.8;stroke:#cccccc;stroke-linejoin:miter;"/>
    </g>
    <g id="line2d_18">
     <path d="M 353.0075 159.10925 
L 373.0075 159.10925 
" style="fill:none;stroke:#1f77b4;stroke-linecap:square;stroke-width:1.5;"/>
    </g>
    <g id="line2d_19"/>
    <g id="text_15">
     <!-- 0-&gt;1 -->
     <defs>
      <path d="M 4.890625 31.390625 
L 31.203125 31.390625 
L 31.203125 23.390625 
L 4.890625 23.390625 
z
" id="DejaVuSans-45"/>
      <path d="M 10.59375 49.21875 
L 10.59375 58.109375 
L 73.1875 35.40625 
L 73.1875 27.296875 
L 10.59375 4.59375 
L 10.59375 13.484375 
L 60.890625 31.296875 
z
" id="DejaVuSans-62"/>
     </defs>
     <g transform="translate(381.0075 162.60925)scale(0.1 -0.1)">
      <use xlink:href="#DejaVuSans-48"/>
      <use x="63.623047" xlink:href="#DejaVuSans-45"/>
      <use x="99.707031" xlink:href="#DejaVuSans-62"/>
      <use x="183.496094" xlink:href="#DejaVuSans-49"/>
     </g>
    </g>
    <g id="line2d_20">
     <path d="M 353.0075 173.787375 
L 373.0075 173.787375 
" style="fill:none;stroke:#ff0000;stroke-linecap:square;stroke-width:1.5;"/>
    </g>
    <g id="line2d_21"/>
    <g id="text_16">
     <!-- 1-&gt;0 -->
     <g transform="translate(381.0075 177.287375)scale(0.1 -0.1)">
      <use xlink:href="#DejaVuSans-49"/>
      <use x="63.623047" xlink:href="#DejaVuSans-45"/>
      <use x="99.707031" xlink:href="#DejaVuSans-62"/>
      <use x="183.496094" xlink:href="#DejaVuSans-48"/>
     </g>
    </g>
    <g id="line2d_22">
     <path d="M 353.0075 188.4655 
L 373.0075 188.4655 
" style="fill:none;stroke:#008000;stroke-linecap:square;stroke-width:1.5;"/>
    </g>
    <g id="line2d_23"/>
    <g id="text_17">
     <!-- diff -->
     <defs>
      <path d="M 45.40625 46.390625 
L 45.40625 75.984375 
L 54.390625 75.984375 
L 54.390625 0 
L 45.40625 0 
L 45.40625 8.203125 
Q 42.578125 3.328125 38.25 0.953125 
Q 33.9375 -1.421875 27.875 -1.421875 
Q 17.96875 -1.421875 11.734375 6.484375 
Q 5.515625 14.40625 5.515625 27.296875 
Q 5.515625 40.1875 11.734375 48.09375 
Q 17.96875 56 27.875 56 
Q 33.9375 56 38.25 53.625 
Q 42.578125 51.265625 45.40625 46.390625 
z
M 14.796875 27.296875 
Q 14.796875 17.390625 18.875 11.75 
Q 22.953125 6.109375 30.078125 6.109375 
Q 37.203125 6.109375 41.296875 11.75 
Q 45.40625 17.390625 45.40625 27.296875 
Q 45.40625 37.203125 41.296875 42.84375 
Q 37.203125 48.484375 30.078125 48.484375 
Q 22.953125 48.484375 18.875 42.84375 
Q 14.796875 37.203125 14.796875 27.296875 
z
" id="DejaVuSans-100"/>
      <path d="M 9.421875 54.6875 
L 18.40625 54.6875 
L 18.40625 0 
L 9.421875 0 
z
M 9.421875 75.984375 
L 18.40625 75.984375 
L 18.40625 64.59375 
L 9.421875 64.59375 
z
" id="DejaVuSans-105"/>
      <path d="M 37.109375 75.984375 
L 37.109375 68.5 
L 28.515625 68.5 
Q 23.6875 68.5 21.796875 66.546875 
Q 19.921875 64.59375 19.921875 59.515625 
L 19.921875 54.6875 
L 34.71875 54.6875 
L 34.71875 47.703125 
L 19.921875 47.703125 
L 19.921875 0 
L 10.890625 0 
L 10.890625 47.703125 
L 2.296875 47.703125 
L 2.296875 54.6875 
L 10.890625 54.6875 
L 10.890625 58.5 
Q 10.890625 67.625 15.140625 71.796875 
Q 19.390625 75.984375 28.609375 75.984375 
z
" id="DejaVuSans-102"/>
     </defs>
     <g transform="translate(381.0075 191.9655)scale(0.1 -0.1)">
      <use xlink:href="#DejaVuSans-100"/>
      <use x="63.476562" xlink:href="#DejaVuSans-105"/>
      <use x="91.259766" xlink:href="#DejaVuSans-102"/>
      <use x="126.464844" xlink:href="#DejaVuSans-102"/>
     </g>
    </g>
   </g>
  </g>
 </g>
 <defs>
  <clipPath id="pec0a7652b2">
   <rect height="266.112" width="357.12" x="57.6" y="41.472"/>
  </clipPath>
 </defs>
</svg>
