<?xml version="1.0" encoding="utf-8" standalone="no"?>
<!DOCTYPE svg PUBLIC "-//W3C//DTD SVG 1.1//EN"
  "http://www.w3.org/Graphics/SVG/1.1/DTD/svg11.dtd">
<!-- Created with matplotlib (https://matplotlib.org/) -->
<svg height="345.6pt" version="1.1" viewBox="0 0 460.8 345.6" width="460.8pt" xmlns="http://www.w3.org/2000/svg" xmlns:xlink="http://www.w3.org/1999/xlink">
 <defs>
  <style type="text/css">
*{stroke-linecap:butt;stroke-linejoin:round;}
  </style>
 </defs>
 <g id="figure_1">
  <g id="patch_1">
   <path d="M 0 345.6 
L 460.8 345.6 
L 460.8 0 
L 0 0 
z
" style="fill:#ffffff;"/>
  </g>
  <g id="axes_1">
   <g id="patch_2">
    <path d="M 57.6 307.584 
L 414.72 307.584 
L 414.72 41.472 
L 57.6 41.472 
z
" style="fill:#ffffff;"/>
   </g>
   <g id="matplotlib.axis_1">
    <g id="xtick_1">
     <g id="line2d_1">
      <defs>
       <path d="M 0 0 
L 0 3.5 
" id="m3ee8249d0a" style="stroke:#000000;stroke-width:0.8;"/>
      </defs>
      <g>
       <use style="stroke:#000000;stroke-width:0.8;" x="73.832727" xlink:href="#m3ee8249d0a" y="307.584"/>
      </g>
     </g>
     <g id="text_1">
      <!-- 0 -->
      <defs>
       <path d="M 31.78125 66.40625 
Q 24.171875 66.40625 20.328125 58.90625 
Q 16.5 51.421875 16.5 36.375 
Q 16.5 21.390625 20.328125 13.890625 
Q 24.171875 6.390625 31.78125 6.390625 
Q 39.453125 6.390625 43.28125 13.890625 
Q 47.125 21.390625 47.125 36.375 
Q 47.125 51.421875 43.28125 58.90625 
Q 39.453125 66.40625 31.78125 66.40625 
z
M 31.78125 74.21875 
Q 44.046875 74.21875 50.515625 64.515625 
Q 56.984375 54.828125 56.984375 36.375 
Q 56.984375 17.96875 50.515625 8.265625 
Q 44.046875 -1.421875 31.78125 -1.421875 
Q 19.53125 -1.421875 13.0625 8.265625 
Q 6.59375 17.96875 6.59375 36.375 
Q 6.59375 54.828125 13.0625 64.515625 
Q 19.53125 74.21875 31.78125 74.21875 
z
" id="DejaVuSans-48"/>
      </defs>
      <g transform="translate(70.651477 322.182437)scale(0.1 -0.1)">
       <use xlink:href="#DejaVuSans-48"/>
      </g>
     </g>
    </g>
    <g id="xtick_2">
     <g id="line2d_2">
      <g>
       <use style="stroke:#000000;stroke-width:0.8;" x="114.465336" xlink:href="#m3ee8249d0a" y="307.584"/>
      </g>
     </g>
     <g id="text_2">
      <!-- 100 -->
      <defs>
       <path d="M 12.40625 8.296875 
L 28.515625 8.296875 
L 28.515625 63.921875 
L 10.984375 60.40625 
L 10.984375 69.390625 
L 28.421875 72.90625 
L 38.28125 72.90625 
L 38.28125 8.296875 
L 54.390625 8.296875 
L 54.390625 0 
L 12.40625 0 
z
" id="DejaVuSans-49"/>
      </defs>
      <g transform="translate(104.921586 322.182437)scale(0.1 -0.1)">
       <use xlink:href="#DejaVuSans-49"/>
       <use x="63.623047" xlink:href="#DejaVuSans-48"/>
       <use x="127.246094" xlink:href="#DejaVuSans-48"/>
      </g>
     </g>
    </g>
    <g id="xtick_3">
     <g id="line2d_3">
      <g>
       <use style="stroke:#000000;stroke-width:0.8;" x="155.097945" xlink:href="#m3ee8249d0a" y="307.584"/>
      </g>
     </g>
     <g id="text_3">
      <!-- 200 -->
      <defs>
       <path d="M 19.1875 8.296875 
L 53.609375 8.296875 
L 53.609375 0 
L 7.328125 0 
L 7.328125 8.296875 
Q 12.9375 14.109375 22.625 23.890625 
Q 32.328125 33.6875 34.8125 36.53125 
Q 39.546875 41.84375 41.421875 45.53125 
Q 43.3125 49.21875 43.3125 52.78125 
Q 43.3125 58.59375 39.234375 62.25 
Q 35.15625 65.921875 28.609375 65.921875 
Q 23.96875 65.921875 18.8125 64.3125 
Q 13.671875 62.703125 7.8125 59.421875 
L 7.8125 69.390625 
Q 13.765625 71.78125 18.9375 73 
Q 24.125 74.21875 28.421875 74.21875 
Q 39.75 74.21875 46.484375 68.546875 
Q 53.21875 62.890625 53.21875 53.421875 
Q 53.21875 48.921875 51.53125 44.890625 
Q 49.859375 40.875 45.40625 35.40625 
Q 44.1875 33.984375 37.640625 27.21875 
Q 31.109375 20.453125 19.1875 8.296875 
z
" id="DejaVuSans-50"/>
      </defs>
      <g transform="translate(145.554195 322.182437)scale(0.1 -0.1)">
       <use xlink:href="#DejaVuSans-50"/>
       <use x="63.623047" xlink:href="#DejaVuSans-48"/>
       <use x="127.246094" xlink:href="#DejaVuSans-48"/>
      </g>
     </g>
    </g>
    <g id="xtick_4">
     <g id="line2d_4">
      <g>
       <use style="stroke:#000000;stroke-width:0.8;" x="195.730554" xlink:href="#m3ee8249d0a" y="307.584"/>
      </g>
     </g>
     <g id="text_4">
      <!-- 300 -->
      <defs>
       <path d="M 40.578125 39.3125 
Q 47.65625 37.796875 51.625 33 
Q 55.609375 28.21875 55.609375 21.1875 
Q 55.609375 10.40625 48.1875 4.484375 
Q 40.765625 -1.421875 27.09375 -1.421875 
Q 22.515625 -1.421875 17.65625 -0.515625 
Q 12.796875 0.390625 7.625 2.203125 
L 7.625 11.71875 
Q 11.71875 9.328125 16.59375 8.109375 
Q 21.484375 6.890625 26.8125 6.890625 
Q 36.078125 6.890625 40.9375 10.546875 
Q 45.796875 14.203125 45.796875 21.1875 
Q 45.796875 27.640625 41.28125 31.265625 
Q 36.765625 34.90625 28.71875 34.90625 
L 20.21875 34.90625 
L 20.21875 43.015625 
L 29.109375 43.015625 
Q 36.375 43.015625 40.234375 45.921875 
Q 44.09375 48.828125 44.09375 54.296875 
Q 44.09375 59.90625 40.109375 62.90625 
Q 36.140625 65.921875 28.71875 65.921875 
Q 24.65625 65.921875 20.015625 65.03125 
Q 15.375 64.15625 9.8125 62.3125 
L 9.8125 71.09375 
Q 15.4375 72.65625 20.34375 73.4375 
Q 25.25 74.21875 29.59375 74.21875 
Q 40.828125 74.21875 47.359375 69.109375 
Q 53.90625 64.015625 53.90625 55.328125 
Q 53.90625 49.265625 50.4375 45.09375 
Q 46.96875 40.921875 40.578125 39.3125 
z
" id="DejaVuSans-51"/>
      </defs>
      <g transform="translate(186.186804 322.182437)scale(0.1 -0.1)">
       <use xlink:href="#DejaVuSans-51"/>
       <use x="63.623047" xlink:href="#DejaVuSans-48"/>
       <use x="127.246094" xlink:href="#DejaVuSans-48"/>
      </g>
     </g>
    </g>
    <g id="xtick_5">
     <g id="line2d_5">
      <g>
       <use style="stroke:#000000;stroke-width:0.8;" x="236.363163" xlink:href="#m3ee8249d0a" y="307.584"/>
      </g>
     </g>
     <g id="text_5">
      <!-- 400 -->
      <defs>
       <path d="M 37.796875 64.3125 
L 12.890625 25.390625 
L 37.796875 25.390625 
z
M 35.203125 72.90625 
L 47.609375 72.90625 
L 47.609375 25.390625 
L 58.015625 25.390625 
L 58.015625 17.1875 
L 47.609375 17.1875 
L 47.609375 0 
L 37.796875 0 
L 37.796875 17.1875 
L 4.890625 17.1875 
L 4.890625 26.703125 
z
" id="DejaVuSans-52"/>
      </defs>
      <g transform="translate(226.819413 322.182437)scale(0.1 -0.1)">
       <use xlink:href="#DejaVuSans-52"/>
       <use x="63.623047" xlink:href="#DejaVuSans-48"/>
       <use x="127.246094" xlink:href="#DejaVuSans-48"/>
      </g>
     </g>
    </g>
    <g id="xtick_6">
     <g id="line2d_6">
      <g>
       <use style="stroke:#000000;stroke-width:0.8;" x="276.995772" xlink:href="#m3ee8249d0a" y="307.584"/>
      </g>
     </g>
     <g id="text_6">
      <!-- 500 -->
      <defs>
       <path d="M 10.796875 72.90625 
L 49.515625 72.90625 
L 49.515625 64.59375 
L 19.828125 64.59375 
L 19.828125 46.734375 
Q 21.96875 47.46875 24.109375 47.828125 
Q 26.265625 48.1875 28.421875 48.1875 
Q 40.625 48.1875 47.75 41.5 
Q 54.890625 34.8125 54.890625 23.390625 
Q 54.890625 11.625 47.5625 5.09375 
Q 40.234375 -1.421875 26.90625 -1.421875 
Q 22.3125 -1.421875 17.546875 -0.640625 
Q 12.796875 0.140625 7.71875 1.703125 
L 7.71875 11.625 
Q 12.109375 9.234375 16.796875 8.0625 
Q 21.484375 6.890625 26.703125 6.890625 
Q 35.15625 6.890625 40.078125 11.328125 
Q 45.015625 15.765625 45.015625 23.390625 
Q 45.015625 31 40.078125 35.4375 
Q 35.15625 39.890625 26.703125 39.890625 
Q 22.75 39.890625 18.8125 39.015625 
Q 14.890625 38.140625 10.796875 36.28125 
z
" id="DejaVuSans-53"/>
      </defs>
      <g transform="translate(267.452022 322.182437)scale(0.1 -0.1)">
       <use xlink:href="#DejaVuSans-53"/>
       <use x="63.623047" xlink:href="#DejaVuSans-48"/>
       <use x="127.246094" xlink:href="#DejaVuSans-48"/>
      </g>
     </g>
    </g>
    <g id="xtick_7">
     <g id="line2d_7">
      <g>
       <use style="stroke:#000000;stroke-width:0.8;" x="317.628381" xlink:href="#m3ee8249d0a" y="307.584"/>
      </g>
     </g>
     <g id="text_7">
      <!-- 600 -->
      <defs>
       <path d="M 33.015625 40.375 
Q 26.375 40.375 22.484375 35.828125 
Q 18.609375 31.296875 18.609375 23.390625 
Q 18.609375 15.53125 22.484375 10.953125 
Q 26.375 6.390625 33.015625 6.390625 
Q 39.65625 6.390625 43.53125 10.953125 
Q 47.40625 15.53125 47.40625 23.390625 
Q 47.40625 31.296875 43.53125 35.828125 
Q 39.65625 40.375 33.015625 40.375 
z
M 52.59375 71.296875 
L 52.59375 62.3125 
Q 48.875 64.0625 45.09375 64.984375 
Q 41.3125 65.921875 37.59375 65.921875 
Q 27.828125 65.921875 22.671875 59.328125 
Q 17.53125 52.734375 16.796875 39.40625 
Q 19.671875 43.65625 24.015625 45.921875 
Q 28.375 48.1875 33.59375 48.1875 
Q 44.578125 48.1875 50.953125 41.515625 
Q 57.328125 34.859375 57.328125 23.390625 
Q 57.328125 12.15625 50.6875 5.359375 
Q 44.046875 -1.421875 33.015625 -1.421875 
Q 20.359375 -1.421875 13.671875 8.265625 
Q 6.984375 17.96875 6.984375 36.375 
Q 6.984375 53.65625 15.1875 63.9375 
Q 23.390625 74.21875 37.203125 74.21875 
Q 40.921875 74.21875 44.703125 73.484375 
Q 48.484375 72.75 52.59375 71.296875 
z
" id="DejaVuSans-54"/>
      </defs>
      <g transform="translate(308.084631 322.182437)scale(0.1 -0.1)">
       <use xlink:href="#DejaVuSans-54"/>
       <use x="63.623047" xlink:href="#DejaVuSans-48"/>
       <use x="127.246094" xlink:href="#DejaVuSans-48"/>
      </g>
     </g>
    </g>
    <g id="xtick_8">
     <g id="line2d_8">
      <g>
       <use style="stroke:#000000;stroke-width:0.8;" x="358.26099" xlink:href="#m3ee8249d0a" y="307.584"/>
      </g>
     </g>
     <g id="text_8">
      <!-- 700 -->
      <defs>
       <path d="M 8.203125 72.90625 
L 55.078125 72.90625 
L 55.078125 68.703125 
L 28.609375 0 
L 18.3125 0 
L 43.21875 64.59375 
L 8.203125 64.59375 
z
" id="DejaVuSans-55"/>
      </defs>
      <g transform="translate(348.71724 322.182437)scale(0.1 -0.1)">
       <use xlink:href="#DejaVuSans-55"/>
       <use x="63.623047" xlink:href="#DejaVuSans-48"/>
       <use x="127.246094" xlink:href="#DejaVuSans-48"/>
      </g>
     </g>
    </g>
    <g id="xtick_9">
     <g id="line2d_9">
      <g>
       <use style="stroke:#000000;stroke-width:0.8;" x="398.893599" xlink:href="#m3ee8249d0a" y="307.584"/>
      </g>
     </g>
     <g id="text_9">
      <!-- 800 -->
      <defs>
       <path d="M 31.78125 34.625 
Q 24.75 34.625 20.71875 30.859375 
Q 16.703125 27.09375 16.703125 20.515625 
Q 16.703125 13.921875 20.71875 10.15625 
Q 24.75 6.390625 31.78125 6.390625 
Q 38.8125 6.390625 42.859375 10.171875 
Q 46.921875 13.96875 46.921875 20.515625 
Q 46.921875 27.09375 42.890625 30.859375 
Q 38.875 34.625 31.78125 34.625 
z
M 21.921875 38.8125 
Q 15.578125 40.375 12.03125 44.71875 
Q 8.5 49.078125 8.5 55.328125 
Q 8.5 64.0625 14.71875 69.140625 
Q 20.953125 74.21875 31.78125 74.21875 
Q 42.671875 74.21875 48.875 69.140625 
Q 55.078125 64.0625 55.078125 55.328125 
Q 55.078125 49.078125 51.53125 44.71875 
Q 48 40.375 41.703125 38.8125 
Q 48.828125 37.15625 52.796875 32.3125 
Q 56.78125 27.484375 56.78125 20.515625 
Q 56.78125 9.90625 50.3125 4.234375 
Q 43.84375 -1.421875 31.78125 -1.421875 
Q 19.734375 -1.421875 13.25 4.234375 
Q 6.78125 9.90625 6.78125 20.515625 
Q 6.78125 27.484375 10.78125 32.3125 
Q 14.796875 37.15625 21.921875 38.8125 
z
M 18.3125 54.390625 
Q 18.3125 48.734375 21.84375 45.5625 
Q 25.390625 42.390625 31.78125 42.390625 
Q 38.140625 42.390625 41.71875 45.5625 
Q 45.3125 48.734375 45.3125 54.390625 
Q 45.3125 60.0625 41.71875 63.234375 
Q 38.140625 66.40625 31.78125 66.40625 
Q 25.390625 66.40625 21.84375 63.234375 
Q 18.3125 60.0625 18.3125 54.390625 
z
" id="DejaVuSans-56"/>
      </defs>
      <g transform="translate(389.349849 322.182437)scale(0.1 -0.1)">
       <use xlink:href="#DejaVuSans-56"/>
       <use x="63.623047" xlink:href="#DejaVuSans-48"/>
       <use x="127.246094" xlink:href="#DejaVuSans-48"/>
      </g>
     </g>
    </g>
   </g>
   <g id="matplotlib.axis_2">
    <g id="ytick_1">
     <g id="line2d_10">
      <defs>
       <path d="M 0 0 
L -3.5 0 
" id="m53b60da3c5" style="stroke:#000000;stroke-width:0.8;"/>
      </defs>
      <g>
       <use style="stroke:#000000;stroke-width:0.8;" x="57.6" xlink:href="#m53b60da3c5" y="294.123349"/>
      </g>
     </g>
     <g id="text_10">
      <!-- 0.0 -->
      <defs>
       <path d="M 10.6875 12.40625 
L 21 12.40625 
L 21 0 
L 10.6875 0 
z
" id="DejaVuSans-46"/>
      </defs>
      <g transform="translate(34.696875 297.922568)scale(0.1 -0.1)">
       <use xlink:href="#DejaVuSans-48"/>
       <use x="63.623047" xlink:href="#DejaVuSans-46"/>
       <use x="95.410156" xlink:href="#DejaVuSans-48"/>
      </g>
     </g>
    </g>
    <g id="ytick_2">
     <g id="line2d_11">
      <g>
       <use style="stroke:#000000;stroke-width:0.8;" x="57.6" xlink:href="#m53b60da3c5" y="240.314683"/>
      </g>
     </g>
     <g id="text_11">
      <!-- 0.1 -->
      <g transform="translate(34.696875 244.113902)scale(0.1 -0.1)">
       <use xlink:href="#DejaVuSans-48"/>
       <use x="63.623047" xlink:href="#DejaVuSans-46"/>
       <use x="95.410156" xlink:href="#DejaVuSans-49"/>
      </g>
     </g>
    </g>
    <g id="ytick_3">
     <g id="line2d_12">
      <g>
       <use style="stroke:#000000;stroke-width:0.8;" x="57.6" xlink:href="#m53b60da3c5" y="186.506017"/>
      </g>
     </g>
     <g id="text_12">
      <!-- 0.2 -->
      <g transform="translate(34.696875 190.305236)scale(0.1 -0.1)">
       <use xlink:href="#DejaVuSans-48"/>
       <use x="63.623047" xlink:href="#DejaVuSans-46"/>
       <use x="95.410156" xlink:href="#DejaVuSans-50"/>
      </g>
     </g>
    </g>
    <g id="ytick_4">
     <g id="line2d_13">
      <g>
       <use style="stroke:#000000;stroke-width:0.8;" x="57.6" xlink:href="#m53b60da3c5" y="132.697351"/>
      </g>
     </g>
     <g id="text_13">
      <!-- 0.3 -->
      <g transform="translate(34.696875 136.49657)scale(0.1 -0.1)">
       <use xlink:href="#DejaVuSans-48"/>
       <use x="63.623047" xlink:href="#DejaVuSans-46"/>
       <use x="95.410156" xlink:href="#DejaVuSans-51"/>
      </g>
     </g>
    </g>
    <g id="ytick_5">
     <g id="line2d_14">
      <g>
       <use style="stroke:#000000;stroke-width:0.8;" x="57.6" xlink:href="#m53b60da3c5" y="78.888685"/>
      </g>
     </g>
     <g id="text_14">
      <!-- 0.4 -->
      <g transform="translate(34.696875 82.687904)scale(0.1 -0.1)">
       <use xlink:href="#DejaVuSans-48"/>
       <use x="63.623047" xlink:href="#DejaVuSans-46"/>
       <use x="95.410156" xlink:href="#DejaVuSans-52"/>
      </g>
     </g>
    </g>
   </g>
   <g id="line2d_15">
    <path clip-path="url(#pe790414aa0)" d="M 73.832727 54.932651 
L 75.051706 54.691405 
L 78.302314 53.732181 
L 79.927619 53.780194 
L 81.959249 54.057184 
L 86.02251 54.999012 
L 87.241488 54.993712 
L 88.866793 54.715509 
L 92.523727 53.855707 
L 93.742706 53.823364 
L 94.961684 53.977826 
L 97.39964 54.605596 
L 99.024945 54.944646 
L 100.243923 55.009251 
L 101.462901 54.883792 
L 103.494532 54.388959 
L 105.526162 53.909927 
L 106.745141 53.810442 
L 107.964119 53.900562 
L 109.589423 54.258528 
L 112.433706 54.9322 
L 113.652684 55.002628 
L 114.871662 54.842221 
L 116.903293 54.316115 
L 119.341249 53.822146 
L 120.560228 53.807932 
L 122.185532 54.062479 
L 126.655119 54.988602 
L 128.280423 54.885637 
L 129.905728 54.610194 
L 132.343684 53.974191 
L 133.562662 53.852281 
L 134.781641 53.947057 
L 136.406945 54.318326 
L 139.251228 55.037114 
L 140.470206 55.129644 
L 141.689184 55.014103 
L 143.314489 54.633919 
L 145.346119 54.075896 
L 146.565097 53.929437 
L 147.784076 53.979599 
L 148.596728 54.136755 
L 150.222032 54.584454 
L 151.847336 55.103532 
L 153.066315 55.319535 
L 154.285293 55.273236 
L 155.910597 54.990179 
L 159.161206 54.20305 
L 160.78651 54.244449 
L 162.411815 54.552666 
L 164.849771 55.209632 
L 166.475076 55.488417 
L 167.694054 55.445146 
L 169.319358 55.12095 
L 172.569967 54.351738 
L 173.788945 54.303704 
L 175.41425 54.524253 
L 179.883837 55.471515 
L 181.102815 55.423353 
L 182.728119 55.10003 
L 185.978728 54.328313 
L 187.197706 54.275868 
L 188.416684 54.40693 
L 190.448315 54.900183 
L 192.479945 55.354411 
L 193.698924 55.436333 
L 194.917902 55.32574 
L 196.543206 54.953687 
L 198.981163 54.347042 
L 200.200141 54.229791 
L 201.419119 54.29991 
L 203.044424 54.639426 
L 205.48238 55.258289 
L 206.701359 55.400296 
L 207.920337 55.358746 
L 209.545641 55.042085 
L 212.79625 54.264248 
L 214.015228 54.207427 
L 215.234206 54.338116 
L 217.265837 54.838945 
L 219.297467 55.305322 
L 220.516446 55.394206 
L 221.735424 55.289896 
L 223.360728 54.926839 
L 225.798685 54.313324 
L 227.017663 54.1943 
L 228.236641 54.264457 
L 229.861946 54.607616 
L 232.706228 55.308416 
L 233.925207 55.407001 
L 235.144185 55.306937 
L 236.769489 54.944143 
L 239.613772 54.27275 
L 240.83275 54.204267 
L 242.051728 54.323778 
L 244.083359 54.813871 
L 246.114989 55.294011 
L 247.333967 55.400031 
L 248.552946 55.318715 
L 250.17825 54.966209 
L 253.022533 54.277948 
L 254.241511 54.199061 
L 255.866815 54.388703 
L 258.304772 55.020145 
L 259.930076 55.344365 
L 261.149054 55.395271 
L 262.368033 55.259258 
L 264.399663 54.752623 
L 266.431294 54.285951 
L 267.650272 54.201536 
L 268.86925 54.309244 
L 270.494555 54.676893 
L 272.932511 55.283192 
L 274.151489 55.395268 
L 275.370468 55.32222 
L 276.995772 54.985303 
L 279.840055 54.30392 
L 281.059033 54.218881 
L 282.278011 54.327958 
L 283.903316 54.708176 
L 286.341272 55.309063 
L 287.56025 55.423619 
L 288.779229 55.346188 
L 290.810859 54.890879 
L 293.655142 54.27714 
L 294.87412 54.255065 
L 296.093098 54.418959 
L 298.124729 54.939531 
L 300.156359 55.373231 
L 301.375337 55.429898 
L 302.594316 55.299638 
L 304.625946 54.808837 
L 306.657577 54.348492 
L 307.876555 54.263417 
L 309.501859 54.417682 
L 311.53349 54.917178 
L 313.158794 55.305775 
L 314.377772 55.427626 
L 315.59675 55.369186 
L 317.222055 55.050994 
L 320.066337 54.370646 
L 321.285316 54.278745 
L 322.504294 54.364985 
L 324.129598 54.714605 
L 326.973881 55.381603 
L 328.192859 55.453975 
L 329.411838 55.338365 
L 331.443468 54.858599 
L 333.475098 54.39083 
L 334.694077 54.353322 
L 336.319381 54.570227 
L 338.757338 55.25228 
L 339.976316 55.525386 
L 341.60162 55.58308 
L 343.226925 55.418225 
L 347.290185 54.70143 
L 348.91549 54.771031 
L 350.540794 55.086473 
L 353.791403 55.766539 
L 355.416707 55.79494 
L 357.042012 55.548234 
L 360.698946 54.906381 
L 362.324251 54.95282 
L 363.949555 55.237617 
L 367.200164 55.889822 
L 368.825468 55.953508 
L 370.044446 55.806466 
L 374.107707 55.109955 
L 375.733012 55.139836 
L 377.358316 55.436798 
L 380.202599 56.029384 
L 381.827903 56.124597 
L 383.453207 56.002463 
L 388.32912 55.276854 
L 389.954425 55.398914 
L 395.236664 56.236425 
L 396.861968 56.121199 
L 398.487273 55.818709 
L 398.487273 55.818709 
" style="fill:none;stroke:#1f77b4;stroke-linecap:square;stroke-width:1.5;"/>
   </g>
   <g id="line2d_16">
    <path clip-path="url(#pe790414aa0)" d="M 73.832727 53.568 
L 75.051706 53.824427 
L 79.114966 54.970984 
L 80.333945 55.005002 
L 81.552923 54.84822 
L 83.99088 54.21305 
L 85.616184 53.875706 
L 86.835162 53.813723 
L 88.05414 53.942027 
L 90.085771 54.445749 
L 92.117401 54.923605 
L 93.33638 55.019435 
L 94.555358 54.92415 
L 96.180662 54.56037 
L 99.024945 53.880933 
L 100.243923 53.813896 
L 101.462901 53.936258 
L 103.494532 54.430755 
L 105.526162 54.907692 
L 106.745141 55.007329 
L 107.964119 54.915891 
L 109.589423 54.559742 
L 112.433706 53.884249 
L 113.652684 53.813924 
L 114.871662 53.931122 
L 116.903293 54.404712 
L 118.934923 54.845897 
L 120.153901 54.927065 
L 121.37288 54.82887 
L 123.40451 54.376809 
L 125.436141 53.921366 
L 126.655119 53.819918 
L 127.874097 53.899353 
L 129.499402 54.253526 
L 132.343684 55.008618 
L 133.562662 55.127072 
L 134.781641 55.040082 
L 136.406945 54.671594 
L 139.251228 53.955691 
L 140.470206 53.873115 
L 141.689184 53.98609 
L 143.314489 54.375039 
L 145.752445 55.009622 
L 146.971423 55.133138 
L 148.190402 55.063852 
L 149.815706 54.733846 
L 152.253663 54.171474 
L 153.472641 54.08567 
L 154.691619 54.1956 
L 156.316923 54.588571 
L 158.75488 55.256749 
L 159.973858 55.399914 
L 161.192837 55.351291 
L 162.818141 55.031791 
L 165.662423 54.374312 
L 166.881402 54.300381 
L 168.10038 54.415202 
L 170.13201 54.906483 
L 172.163641 55.39015 
L 173.382619 55.50081 
L 174.601597 55.422674 
L 176.226902 55.068533 
L 179.071184 54.371181 
L 180.290163 54.284118 
L 181.509141 54.38768 
L 183.540771 54.865193 
L 185.572402 55.344577 
L 186.79138 55.454502 
L 188.010358 55.377079 
L 189.635663 55.030141 
L 192.479945 54.33696 
L 193.698924 54.249395 
L 194.917902 54.349831 
L 196.543206 54.71213 
L 198.981163 55.306336 
L 200.200141 55.419071 
L 201.419119 55.343532 
L 203.044424 54.99758 
L 205.888706 54.303904 
L 207.107685 54.215901 
L 208.326663 54.316341 
L 209.951967 54.680281 
L 212.389924 55.279893 
L 213.608902 55.396148 
L 214.82788 55.324645 
L 216.453185 54.983572 
L 219.297467 54.291071 
L 220.516446 54.201273 
L 221.735424 54.300004 
L 223.360728 54.663204 
L 225.798685 55.272115 
L 227.017663 55.391329 
L 228.236641 55.320735 
L 229.861946 54.976738 
L 232.706228 54.27404 
L 233.925207 54.179235 
L 235.144185 54.276385 
L 236.769489 54.645927 
L 239.613772 55.343171 
L 240.83275 55.422155 
L 242.051728 55.308852 
L 243.677033 54.910147 
L 246.114989 54.311914 
L 247.333967 54.20342 
L 248.552946 54.284105 
L 250.17825 54.633691 
L 253.022533 55.323551 
L 254.241511 55.402745 
L 255.460489 55.291504 
L 257.085794 54.916752 
L 259.52375 54.313614 
L 260.742728 54.202041 
L 261.961707 54.279143 
L 263.587011 54.629395 
L 266.431294 55.320012 
L 267.650272 55.401867 
L 268.86925 55.295507 
L 270.494555 54.924128 
L 272.932511 54.320673 
L 274.151489 54.212585 
L 275.370468 54.290811 
L 276.995772 54.635858 
L 279.840055 55.32269 
L 281.059033 55.405786 
L 282.278011 55.304234 
L 283.903316 54.940327 
L 286.341272 54.352376 
L 287.56025 54.237604 
L 288.779229 54.309593 
L 290.404533 54.648748 
L 293.248816 55.333418 
L 294.467794 55.421575 
L 295.686772 55.323002 
L 297.312076 54.965889 
L 299.750033 54.374635 
L 300.969011 54.256389 
L 302.18799 54.325759 
L 303.813294 54.659864 
L 306.657577 55.341287 
L 307.876555 55.431995 
L 309.095533 55.33397 
L 311.127163 54.871414 
L 313.158794 54.38365 
L 314.784098 54.262955 
L 316.409403 54.46253 
L 320.87899 55.436937 
L 322.097968 55.411834 
L 323.723272 55.114121 
L 327.380207 54.311342 
L 328.599185 54.304442 
L 329.818164 54.471717 
L 334.287751 55.44339 
L 335.913055 55.385239 
L 337.538359 55.088851 
L 339.976316 54.606869 
L 341.60162 54.567233 
L 342.820598 54.720186 
L 348.102838 55.723719 
L 349.321816 55.65029 
L 351.759772 55.176124 
L 353.791403 54.848121 
L 355.416707 54.860918 
L 357.042012 55.122993 
L 360.29262 55.80971 
L 361.917925 55.869437 
L 363.543229 55.665281 
L 367.200164 54.98729 
L 368.825468 54.990219 
L 370.450773 55.256536 
L 374.107707 56.033018 
L 375.733012 56.054213 
L 377.358316 55.833642 
L 380.608925 55.252819 
L 381.827903 55.211229 
L 383.453207 55.38425 
L 388.32912 56.17891 
L 389.954425 56.063797 
L 391.986055 55.692983 
L 394.017686 55.375707 
L 395.64299 55.352059 
L 397.268294 55.568264 
L 398.487273 55.830297 
L 398.487273 55.830297 
" style="fill:none;stroke:#ff0000;stroke-linecap:square;stroke-width:1.5;"/>
   </g>
   <g id="line2d_17">
    <path clip-path="url(#pe790414aa0)" d="M 73.832727 295.488 
L 74.645379 295.201837 
L 75.864358 294.482475 
L 77.895988 293.154111 
L 78.70864 292.932664 
L 79.521293 292.846301 
L 81.146597 293.109528 
L 81.959249 293.419348 
L 85.616184 295.198508 
L 86.428836 295.330092 
L 87.241488 295.280958 
L 88.460466 294.910829 
L 90.085771 294.062341 
L 91.711075 293.248723 
L 92.930053 292.938884 
L 93.742706 292.938041 
L 94.555358 293.107085 
L 95.774336 293.618461 
L 98.618619 295.063376 
L 99.837597 295.320489 
L 100.650249 295.27816 
L 101.869227 294.916783 
L 103.494532 294.081553 
L 105.119836 293.268655 
L 106.338814 292.95196 
L 107.151467 292.945802 
L 107.964119 293.10802 
L 109.183097 293.609965 
L 112.02738 295.046183 
L 113.246358 295.307473 
L 114.05901 295.271196 
L 114.871662 295.034449 
L 116.090641 294.495457 
L 118.122271 293.433251 
L 119.341249 293.053121 
L 120.153901 292.98628 
L 120.966554 293.088543 
L 122.185532 293.508198 
L 125.842467 295.146226 
L 126.655119 295.292033 
L 127.467771 295.233262 
L 128.686749 294.919282 
L 130.71838 293.877323 
L 131.937358 293.247565 
L 133.156336 292.885051 
L 133.968989 292.865296 
L 135.187967 293.168682 
L 136.406945 293.770082 
L 138.844902 295.061083 
L 139.657554 295.309113 
L 140.470206 295.379878 
L 141.282858 295.275396 
L 142.501836 294.810366 
L 146.158771 293.005474 
L 147.377749 292.912446 
L 148.596728 293.258474 
L 150.222032 294.078141 
L 151.847336 294.986828 
L 152.659989 295.277178 
L 153.472641 295.362957 
L 154.285293 295.258484 
L 155.504271 294.842183 
L 157.129576 293.943388 
L 158.348554 293.294031 
L 159.161206 293.0012 
L 160.380184 292.950004 
L 161.192837 293.070903 
L 162.411815 293.5448 
L 164.849771 294.814876 
L 166.06875 295.259541 
L 166.881402 295.31638 
L 167.694054 295.211551 
L 168.913032 294.76389 
L 172.569967 293.028017 
L 173.382619 292.920808 
L 174.195271 292.985247 
L 175.41425 293.375638 
L 177.039554 294.225583 
L 178.664858 295.017699 
L 179.883837 295.302627 
L 180.696489 295.286909 
L 181.509141 295.101716 
L 182.728119 294.575509 
L 185.572402 293.164995 
L 186.385054 292.974251 
L 187.197706 292.949653 
L 188.010358 293.088572 
L 189.229337 293.567262 
L 192.479945 295.140801 
L 193.292598 295.294407 
L 194.10525 295.280812 
L 195.324228 294.954773 
L 196.949532 294.140167 
L 198.574837 293.315507 
L 199.793815 292.969141 
L 200.606467 292.940108 
L 201.419119 293.079728 
L 202.638098 293.556049 
L 205.888706 295.145024 
L 206.701359 295.299224 
L 207.514011 295.288384 
L 208.326663 295.112067 
L 209.545641 294.592323 
L 212.389924 293.167358 
L 213.202576 292.969482 
L 214.015228 292.937465 
L 214.82788 293.074254 
L 216.046859 293.546507 
L 219.297467 295.137601 
L 220.110119 295.29989 
L 220.922772 295.290394 
L 221.735424 295.113241 
L 222.954402 294.60266 
L 225.798685 293.164558 
L 226.611337 292.964767 
L 227.423989 292.931024 
L 228.236641 293.067072 
L 229.45562 293.541851 
L 232.706228 295.157725 
L 233.51888 295.328554 
L 234.331533 295.329222 
L 235.144185 295.153901 
L 236.363163 294.637826 
L 239.207446 293.179086 
L 240.426424 292.912192 
L 241.239076 292.942854 
L 242.051728 293.138275 
L 243.270707 293.688688 
L 245.708663 294.958706 
L 246.927641 295.288509 
L 247.740294 295.30637 
L 248.552946 295.157959 
L 249.771924 294.667851 
L 253.022533 293.077746 
L 253.835185 292.929722 
L 254.647837 292.958177 
L 255.460489 293.146639 
L 256.679468 293.673067 
L 259.52375 295.096462 
L 260.336402 295.28752 
L 261.149054 295.31184 
L 261.961707 295.1692 
L 263.180685 294.682472 
L 266.431294 293.089289 
L 267.243946 292.937664 
L 268.056598 292.953097 
L 268.86925 293.137086 
L 270.088228 293.65906 
L 272.932511 295.085868 
L 273.745163 295.278367 
L 274.557815 295.299776 
L 275.776794 295.027444 
L 276.995772 294.472795 
L 279.433729 293.236986 
L 280.652707 292.954371 
L 281.465359 292.965568 
L 282.684337 293.291443 
L 283.903316 293.891199 
L 285.934946 294.933922 
L 287.153924 295.272955 
L 287.966576 295.30237 
L 289.185555 295.025951 
L 290.404533 294.47478 
L 292.842489 293.251276 
L 294.061468 292.960445 
L 294.87412 292.969279 
L 295.686772 293.146404 
L 296.90575 293.659294 
L 299.750033 295.066283 
L 300.969011 295.298231 
L 301.781663 295.246881 
L 303.000642 294.877096 
L 304.625946 294.052291 
L 306.25125 293.266368 
L 307.470229 292.968495 
L 308.689207 293.037851 
L 309.908185 293.445503 
L 311.939816 294.499194 
L 313.158794 295.045475 
L 314.377772 295.282727 
L 315.190424 295.246682 
L 316.409403 294.902296 
L 318.441033 293.858161 
L 320.066337 293.143902 
L 321.285316 292.953422 
L 322.097968 293.027338 
L 323.316946 293.424764 
L 326.973881 295.149769 
L 327.786533 295.291599 
L 329.005511 295.180453 
L 330.22449 294.733826 
L 333.475098 293.16376 
L 334.287751 293.026219 
L 335.506729 293.11867 
L 336.725707 293.532756 
L 338.351011 294.35771 
L 339.56999 294.911489 
L 340.382642 295.112729 
L 341.60162 295.139196 
L 342.820598 294.875601 
L 344.039577 294.379094 
L 346.477533 293.317305 
L 347.696512 293.103129 
L 348.91549 293.204792 
L 350.134468 293.587682 
L 353.385077 294.946904 
L 354.604055 295.118031 
L 355.416707 295.057371 
L 356.635686 294.710197 
L 360.698946 293.184374 
L 361.917925 293.169148 
L 363.136903 293.456348 
L 367.60649 295.086876 
L 368.419142 295.118319 
L 369.63812 294.912433 
L 374.107707 293.200286 
L 375.326686 293.147274 
L 376.545664 293.415811 
L 378.170968 294.093335 
L 379.796273 294.747556 
L 381.015251 295.006944 
L 382.234229 295.004956 
L 383.453207 294.741562 
L 385.078512 294.095677 
L 386.703816 293.441922 
L 387.922794 293.233764 
L 389.141773 293.280986 
L 390.360751 293.584436 
L 394.017686 294.911247 
L 395.236664 295.023499 
L 396.455642 294.857043 
L 397.674621 294.442758 
L 398.487273 294.111762 
L 398.487273 294.111762 
" style="fill:none;stroke:#008000;stroke-linecap:square;stroke-width:1.5;"/>
   </g>
   <g id="patch_3">
    <path d="M 57.6 307.584 
L 57.6 41.472 
" style="fill:none;stroke:#000000;stroke-linecap:square;stroke-linejoin:miter;stroke-width:0.8;"/>
   </g>
   <g id="patch_4">
    <path d="M 414.72 307.584 
L 414.72 41.472 
" style="fill:none;stroke:#000000;stroke-linecap:square;stroke-linejoin:miter;stroke-width:0.8;"/>
   </g>
   <g id="patch_5">
    <path d="M 57.6 307.584 
L 414.72 307.584 
" style="fill:none;stroke:#000000;stroke-linecap:square;stroke-linejoin:miter;stroke-width:0.8;"/>
   </g>
   <g id="patch_6">
    <path d="M 57.6 41.472 
L 414.72 41.472 
" style="fill:none;stroke:#000000;stroke-linecap:square;stroke-linejoin:miter;stroke-width:0.8;"/>
   </g>
   <g id="legend_1">
    <g id="patch_7">
     <path d="M 351.0075 198.045187 
L 407.72 198.045187 
Q 409.72 198.045187 409.72 196.045187 
L 409.72 153.010812 
Q 409.72 151.010812 407.72 151.010812 
L 351.0075 151.010812 
Q 349.0075 151.010812 349.0075 153.010812 
L 349.0075 196.045187 
Q 349.0075 198.045187 351.0075 198.045187 
z
" style="fill:#ffffff;opacity:0.8;stroke:#cccccc;stroke-linejoin:miter;"/>
    </g>
    <g id="line2d_18">
     <path d="M 353.0075 159.10925 
L 373.0075 159.10925 
" style="fill:none;stroke:#1f77b4;stroke-linecap:square;stroke-width:1.5;"/>
    </g>
    <g id="line2d_19"/>
    <g id="text_15">
     <!-- 0-&gt;1 -->
     <defs>
      <path d="M 4.890625 31.390625 
L 31.203125 31.390625 
L 31.203125 23.390625 
L 4.890625 23.390625 
z
" id="DejaVuSans-45"/>
      <path d="M 10.59375 49.21875 
L 10.59375 58.109375 
L 73.1875 35.40625 
L 73.1875 27.296875 
L 10.59375 4.59375 
L 10.59375 13.484375 
L 60.890625 31.296875 
z
" id="DejaVuSans-62"/>
     </defs>
     <g transform="translate(381.0075 162.60925)scale(0.1 -0.1)">
      <use xlink:href="#DejaVuSans-48"/>
      <use x="63.623047" xlink:href="#DejaVuSans-45"/>
      <use x="99.707031" xlink:href="#DejaVuSans-62"/>
      <use x="183.496094" xlink:href="#DejaVuSans-49"/>
     </g>
    </g>
    <g id="line2d_20">
     <path d="M 353.0075 173.787375 
L 373.0075 173.787375 
" style="fill:none;stroke:#ff0000;stroke-linecap:square;stroke-width:1.5;"/>
    </g>
    <g id="line2d_21"/>
    <g id="text_16">
     <!-- 1-&gt;0 -->
     <g transform="translate(381.0075 177.287375)scale(0.1 -0.1)">
      <use xlink:href="#DejaVuSans-49"/>
      <use x="63.623047" xlink:href="#DejaVuSans-45"/>
      <use x="99.707031" xlink:href="#DejaVuSans-62"/>
      <use x="183.496094" xlink:href="#DejaVuSans-48"/>
     </g>
    </g>
    <g id="line2d_22">
     <path d="M 353.0075 188.4655 
L 373.0075 188.4655 
" style="fill:none;stroke:#008000;stroke-linecap:square;stroke-width:1.5;"/>
    </g>
    <g id="line2d_23"/>
    <g id="text_17">
     <!-- diff -->
     <defs>
      <path d="M 45.40625 46.390625 
L 45.40625 75.984375 
L 54.390625 75.984375 
L 54.390625 0 
L 45.40625 0 
L 45.40625 8.203125 
Q 42.578125 3.328125 38.25 0.953125 
Q 33.9375 -1.421875 27.875 -1.421875 
Q 17.96875 -1.421875 11.734375 6.484375 
Q 5.515625 14.40625 5.515625 27.296875 
Q 5.515625 40.1875 11.734375 48.09375 
Q 17.96875 56 27.875 56 
Q 33.9375 56 38.25 53.625 
Q 42.578125 51.265625 45.40625 46.390625 
z
M 14.796875 27.296875 
Q 14.796875 17.390625 18.875 11.75 
Q 22.953125 6.109375 30.078125 6.109375 
Q 37.203125 6.109375 41.296875 11.75 
Q 45.40625 17.390625 45.40625 27.296875 
Q 45.40625 37.203125 41.296875 42.84375 
Q 37.203125 48.484375 30.078125 48.484375 
Q 22.953125 48.484375 18.875 42.84375 
Q 14.796875 37.203125 14.796875 27.296875 
z
" id="DejaVuSans-100"/>
      <path d="M 9.421875 54.6875 
L 18.40625 54.6875 
L 18.40625 0 
L 9.421875 0 
z
M 9.421875 75.984375 
L 18.40625 75.984375 
L 18.40625 64.59375 
L 9.421875 64.59375 
z
" id="DejaVuSans-105"/>
      <path d="M 37.109375 75.984375 
L 37.109375 68.5 
L 28.515625 68.5 
Q 23.6875 68.5 21.796875 66.546875 
Q 19.921875 64.59375 19.921875 59.515625 
L 19.921875 54.6875 
L 34.71875 54.6875 
L 34.71875 47.703125 
L 19.921875 47.703125 
L 19.921875 0 
L 10.890625 0 
L 10.890625 47.703125 
L 2.296875 47.703125 
L 2.296875 54.6875 
L 10.890625 54.6875 
L 10.890625 58.5 
Q 10.890625 67.625 15.140625 71.796875 
Q 19.390625 75.984375 28.609375 75.984375 
z
" id="DejaVuSans-102"/>
     </defs>
     <g transform="translate(381.0075 191.9655)scale(0.1 -0.1)">
      <use xlink:href="#DejaVuSans-100"/>
      <use x="63.476562" xlink:href="#DejaVuSans-105"/>
      <use x="91.259766" xlink:href="#DejaVuSans-102"/>
      <use x="126.464844" xlink:href="#DejaVuSans-102"/>
     </g>
    </g>
   </g>
  </g>
 </g>
 <defs>
  <clipPath id="pe790414aa0">
   <rect height="266.112" width="357.12" x="57.6" y="41.472"/>
  </clipPath>
 </defs>
</svg>
