<?xml version="1.0" encoding="utf-8" standalone="no"?>
<!DOCTYPE svg PUBLIC "-//W3C//DTD SVG 1.1//EN"
  "http://www.w3.org/Graphics/SVG/1.1/DTD/svg11.dtd">
<!-- Created with matplotlib (https://matplotlib.org/) -->
<svg height="345.6pt" version="1.1" viewBox="0 0 460.8 345.6" width="460.8pt" xmlns="http://www.w3.org/2000/svg" xmlns:xlink="http://www.w3.org/1999/xlink">
 <defs>
  <style type="text/css">
*{stroke-linecap:butt;stroke-linejoin:round;}
  </style>
 </defs>
 <g id="figure_1">
  <g id="patch_1">
   <path d="M 0 345.6 
L 460.8 345.6 
L 460.8 0 
L 0 0 
z
" style="fill:#ffffff;"/>
  </g>
  <g id="axes_1">
   <g id="patch_2">
    <path d="M 57.6 307.584 
L 414.72 307.584 
L 414.72 41.472 
L 57.6 41.472 
z
" style="fill:#ffffff;"/>
   </g>
   <g id="matplotlib.axis_1">
    <g id="xtick_1">
     <g id="line2d_1">
      <defs>
       <path d="M 0 0 
L 0 3.5 
" id="m70dc5fd551" style="stroke:#000000;stroke-width:0.8;"/>
      </defs>
      <g>
       <use style="stroke:#000000;stroke-width:0.8;" x="73.832727" xlink:href="#m70dc5fd551" y="307.584"/>
      </g>
     </g>
     <g id="text_1">
      <!-- 0 -->
      <defs>
       <path d="M 31.78125 66.40625 
Q 24.171875 66.40625 20.328125 58.90625 
Q 16.5 51.421875 16.5 36.375 
Q 16.5 21.390625 20.328125 13.890625 
Q 24.171875 6.390625 31.78125 6.390625 
Q 39.453125 6.390625 43.28125 13.890625 
Q 47.125 21.390625 47.125 36.375 
Q 47.125 51.421875 43.28125 58.90625 
Q 39.453125 66.40625 31.78125 66.40625 
z
M 31.78125 74.21875 
Q 44.046875 74.21875 50.515625 64.515625 
Q 56.984375 54.828125 56.984375 36.375 
Q 56.984375 17.96875 50.515625 8.265625 
Q 44.046875 -1.421875 31.78125 -1.421875 
Q 19.53125 -1.421875 13.0625 8.265625 
Q 6.59375 17.96875 6.59375 36.375 
Q 6.59375 54.828125 13.0625 64.515625 
Q 19.53125 74.21875 31.78125 74.21875 
z
" id="DejaVuSans-48"/>
      </defs>
      <g transform="translate(70.651477 322.182437)scale(0.1 -0.1)">
       <use xlink:href="#DejaVuSans-48"/>
      </g>
     </g>
    </g>
    <g id="xtick_2">
     <g id="line2d_2">
      <g>
       <use style="stroke:#000000;stroke-width:0.8;" x="114.465336" xlink:href="#m70dc5fd551" y="307.584"/>
      </g>
     </g>
     <g id="text_2">
      <!-- 100 -->
      <defs>
       <path d="M 12.40625 8.296875 
L 28.515625 8.296875 
L 28.515625 63.921875 
L 10.984375 60.40625 
L 10.984375 69.390625 
L 28.421875 72.90625 
L 38.28125 72.90625 
L 38.28125 8.296875 
L 54.390625 8.296875 
L 54.390625 0 
L 12.40625 0 
z
" id="DejaVuSans-49"/>
      </defs>
      <g transform="translate(104.921586 322.182437)scale(0.1 -0.1)">
       <use xlink:href="#DejaVuSans-49"/>
       <use x="63.623047" xlink:href="#DejaVuSans-48"/>
       <use x="127.246094" xlink:href="#DejaVuSans-48"/>
      </g>
     </g>
    </g>
    <g id="xtick_3">
     <g id="line2d_3">
      <g>
       <use style="stroke:#000000;stroke-width:0.8;" x="155.097945" xlink:href="#m70dc5fd551" y="307.584"/>
      </g>
     </g>
     <g id="text_3">
      <!-- 200 -->
      <defs>
       <path d="M 19.1875 8.296875 
L 53.609375 8.296875 
L 53.609375 0 
L 7.328125 0 
L 7.328125 8.296875 
Q 12.9375 14.109375 22.625 23.890625 
Q 32.328125 33.6875 34.8125 36.53125 
Q 39.546875 41.84375 41.421875 45.53125 
Q 43.3125 49.21875 43.3125 52.78125 
Q 43.3125 58.59375 39.234375 62.25 
Q 35.15625 65.921875 28.609375 65.921875 
Q 23.96875 65.921875 18.8125 64.3125 
Q 13.671875 62.703125 7.8125 59.421875 
L 7.8125 69.390625 
Q 13.765625 71.78125 18.9375 73 
Q 24.125 74.21875 28.421875 74.21875 
Q 39.75 74.21875 46.484375 68.546875 
Q 53.21875 62.890625 53.21875 53.421875 
Q 53.21875 48.921875 51.53125 44.890625 
Q 49.859375 40.875 45.40625 35.40625 
Q 44.1875 33.984375 37.640625 27.21875 
Q 31.109375 20.453125 19.1875 8.296875 
z
" id="DejaVuSans-50"/>
      </defs>
      <g transform="translate(145.554195 322.182437)scale(0.1 -0.1)">
       <use xlink:href="#DejaVuSans-50"/>
       <use x="63.623047" xlink:href="#DejaVuSans-48"/>
       <use x="127.246094" xlink:href="#DejaVuSans-48"/>
      </g>
     </g>
    </g>
    <g id="xtick_4">
     <g id="line2d_4">
      <g>
       <use style="stroke:#000000;stroke-width:0.8;" x="195.730554" xlink:href="#m70dc5fd551" y="307.584"/>
      </g>
     </g>
     <g id="text_4">
      <!-- 300 -->
      <defs>
       <path d="M 40.578125 39.3125 
Q 47.65625 37.796875 51.625 33 
Q 55.609375 28.21875 55.609375 21.1875 
Q 55.609375 10.40625 48.1875 4.484375 
Q 40.765625 -1.421875 27.09375 -1.421875 
Q 22.515625 -1.421875 17.65625 -0.515625 
Q 12.796875 0.390625 7.625 2.203125 
L 7.625 11.71875 
Q 11.71875 9.328125 16.59375 8.109375 
Q 21.484375 6.890625 26.8125 6.890625 
Q 36.078125 6.890625 40.9375 10.546875 
Q 45.796875 14.203125 45.796875 21.1875 
Q 45.796875 27.640625 41.28125 31.265625 
Q 36.765625 34.90625 28.71875 34.90625 
L 20.21875 34.90625 
L 20.21875 43.015625 
L 29.109375 43.015625 
Q 36.375 43.015625 40.234375 45.921875 
Q 44.09375 48.828125 44.09375 54.296875 
Q 44.09375 59.90625 40.109375 62.90625 
Q 36.140625 65.921875 28.71875 65.921875 
Q 24.65625 65.921875 20.015625 65.03125 
Q 15.375 64.15625 9.8125 62.3125 
L 9.8125 71.09375 
Q 15.4375 72.65625 20.34375 73.4375 
Q 25.25 74.21875 29.59375 74.21875 
Q 40.828125 74.21875 47.359375 69.109375 
Q 53.90625 64.015625 53.90625 55.328125 
Q 53.90625 49.265625 50.4375 45.09375 
Q 46.96875 40.921875 40.578125 39.3125 
z
" id="DejaVuSans-51"/>
      </defs>
      <g transform="translate(186.186804 322.182437)scale(0.1 -0.1)">
       <use xlink:href="#DejaVuSans-51"/>
       <use x="63.623047" xlink:href="#DejaVuSans-48"/>
       <use x="127.246094" xlink:href="#DejaVuSans-48"/>
      </g>
     </g>
    </g>
    <g id="xtick_5">
     <g id="line2d_5">
      <g>
       <use style="stroke:#000000;stroke-width:0.8;" x="236.363163" xlink:href="#m70dc5fd551" y="307.584"/>
      </g>
     </g>
     <g id="text_5">
      <!-- 400 -->
      <defs>
       <path d="M 37.796875 64.3125 
L 12.890625 25.390625 
L 37.796875 25.390625 
z
M 35.203125 72.90625 
L 47.609375 72.90625 
L 47.609375 25.390625 
L 58.015625 25.390625 
L 58.015625 17.1875 
L 47.609375 17.1875 
L 47.609375 0 
L 37.796875 0 
L 37.796875 17.1875 
L 4.890625 17.1875 
L 4.890625 26.703125 
z
" id="DejaVuSans-52"/>
      </defs>
      <g transform="translate(226.819413 322.182437)scale(0.1 -0.1)">
       <use xlink:href="#DejaVuSans-52"/>
       <use x="63.623047" xlink:href="#DejaVuSans-48"/>
       <use x="127.246094" xlink:href="#DejaVuSans-48"/>
      </g>
     </g>
    </g>
    <g id="xtick_6">
     <g id="line2d_6">
      <g>
       <use style="stroke:#000000;stroke-width:0.8;" x="276.995772" xlink:href="#m70dc5fd551" y="307.584"/>
      </g>
     </g>
     <g id="text_6">
      <!-- 500 -->
      <defs>
       <path d="M 10.796875 72.90625 
L 49.515625 72.90625 
L 49.515625 64.59375 
L 19.828125 64.59375 
L 19.828125 46.734375 
Q 21.96875 47.46875 24.109375 47.828125 
Q 26.265625 48.1875 28.421875 48.1875 
Q 40.625 48.1875 47.75 41.5 
Q 54.890625 34.8125 54.890625 23.390625 
Q 54.890625 11.625 47.5625 5.09375 
Q 40.234375 -1.421875 26.90625 -1.421875 
Q 22.3125 -1.421875 17.546875 -0.640625 
Q 12.796875 0.140625 7.71875 1.703125 
L 7.71875 11.625 
Q 12.109375 9.234375 16.796875 8.0625 
Q 21.484375 6.890625 26.703125 6.890625 
Q 35.15625 6.890625 40.078125 11.328125 
Q 45.015625 15.765625 45.015625 23.390625 
Q 45.015625 31 40.078125 35.4375 
Q 35.15625 39.890625 26.703125 39.890625 
Q 22.75 39.890625 18.8125 39.015625 
Q 14.890625 38.140625 10.796875 36.28125 
z
" id="DejaVuSans-53"/>
      </defs>
      <g transform="translate(267.452022 322.182437)scale(0.1 -0.1)">
       <use xlink:href="#DejaVuSans-53"/>
       <use x="63.623047" xlink:href="#DejaVuSans-48"/>
       <use x="127.246094" xlink:href="#DejaVuSans-48"/>
      </g>
     </g>
    </g>
    <g id="xtick_7">
     <g id="line2d_7">
      <g>
       <use style="stroke:#000000;stroke-width:0.8;" x="317.628381" xlink:href="#m70dc5fd551" y="307.584"/>
      </g>
     </g>
     <g id="text_7">
      <!-- 600 -->
      <defs>
       <path d="M 33.015625 40.375 
Q 26.375 40.375 22.484375 35.828125 
Q 18.609375 31.296875 18.609375 23.390625 
Q 18.609375 15.53125 22.484375 10.953125 
Q 26.375 6.390625 33.015625 6.390625 
Q 39.65625 6.390625 43.53125 10.953125 
Q 47.40625 15.53125 47.40625 23.390625 
Q 47.40625 31.296875 43.53125 35.828125 
Q 39.65625 40.375 33.015625 40.375 
z
M 52.59375 71.296875 
L 52.59375 62.3125 
Q 48.875 64.0625 45.09375 64.984375 
Q 41.3125 65.921875 37.59375 65.921875 
Q 27.828125 65.921875 22.671875 59.328125 
Q 17.53125 52.734375 16.796875 39.40625 
Q 19.671875 43.65625 24.015625 45.921875 
Q 28.375 48.1875 33.59375 48.1875 
Q 44.578125 48.1875 50.953125 41.515625 
Q 57.328125 34.859375 57.328125 23.390625 
Q 57.328125 12.15625 50.6875 5.359375 
Q 44.046875 -1.421875 33.015625 -1.421875 
Q 20.359375 -1.421875 13.671875 8.265625 
Q 6.984375 17.96875 6.984375 36.375 
Q 6.984375 53.65625 15.1875 63.9375 
Q 23.390625 74.21875 37.203125 74.21875 
Q 40.921875 74.21875 44.703125 73.484375 
Q 48.484375 72.75 52.59375 71.296875 
z
" id="DejaVuSans-54"/>
      </defs>
      <g transform="translate(308.084631 322.182437)scale(0.1 -0.1)">
       <use xlink:href="#DejaVuSans-54"/>
       <use x="63.623047" xlink:href="#DejaVuSans-48"/>
       <use x="127.246094" xlink:href="#DejaVuSans-48"/>
      </g>
     </g>
    </g>
    <g id="xtick_8">
     <g id="line2d_8">
      <g>
       <use style="stroke:#000000;stroke-width:0.8;" x="358.26099" xlink:href="#m70dc5fd551" y="307.584"/>
      </g>
     </g>
     <g id="text_8">
      <!-- 700 -->
      <defs>
       <path d="M 8.203125 72.90625 
L 55.078125 72.90625 
L 55.078125 68.703125 
L 28.609375 0 
L 18.3125 0 
L 43.21875 64.59375 
L 8.203125 64.59375 
z
" id="DejaVuSans-55"/>
      </defs>
      <g transform="translate(348.71724 322.182437)scale(0.1 -0.1)">
       <use xlink:href="#DejaVuSans-55"/>
       <use x="63.623047" xlink:href="#DejaVuSans-48"/>
       <use x="127.246094" xlink:href="#DejaVuSans-48"/>
      </g>
     </g>
    </g>
    <g id="xtick_9">
     <g id="line2d_9">
      <g>
       <use style="stroke:#000000;stroke-width:0.8;" x="398.893599" xlink:href="#m70dc5fd551" y="307.584"/>
      </g>
     </g>
     <g id="text_9">
      <!-- 800 -->
      <defs>
       <path d="M 31.78125 34.625 
Q 24.75 34.625 20.71875 30.859375 
Q 16.703125 27.09375 16.703125 20.515625 
Q 16.703125 13.921875 20.71875 10.15625 
Q 24.75 6.390625 31.78125 6.390625 
Q 38.8125 6.390625 42.859375 10.171875 
Q 46.921875 13.96875 46.921875 20.515625 
Q 46.921875 27.09375 42.890625 30.859375 
Q 38.875 34.625 31.78125 34.625 
z
M 21.921875 38.8125 
Q 15.578125 40.375 12.03125 44.71875 
Q 8.5 49.078125 8.5 55.328125 
Q 8.5 64.0625 14.71875 69.140625 
Q 20.953125 74.21875 31.78125 74.21875 
Q 42.671875 74.21875 48.875 69.140625 
Q 55.078125 64.0625 55.078125 55.328125 
Q 55.078125 49.078125 51.53125 44.71875 
Q 48 40.375 41.703125 38.8125 
Q 48.828125 37.15625 52.796875 32.3125 
Q 56.78125 27.484375 56.78125 20.515625 
Q 56.78125 9.90625 50.3125 4.234375 
Q 43.84375 -1.421875 31.78125 -1.421875 
Q 19.734375 -1.421875 13.25 4.234375 
Q 6.78125 9.90625 6.78125 20.515625 
Q 6.78125 27.484375 10.78125 32.3125 
Q 14.796875 37.15625 21.921875 38.8125 
z
M 18.3125 54.390625 
Q 18.3125 48.734375 21.84375 45.5625 
Q 25.390625 42.390625 31.78125 42.390625 
Q 38.140625 42.390625 41.71875 45.5625 
Q 45.3125 48.734375 45.3125 54.390625 
Q 45.3125 60.0625 41.71875 63.234375 
Q 38.140625 66.40625 31.78125 66.40625 
Q 25.390625 66.40625 21.84375 63.234375 
Q 18.3125 60.0625 18.3125 54.390625 
z
" id="DejaVuSans-56"/>
      </defs>
      <g transform="translate(389.349849 322.182437)scale(0.1 -0.1)">
       <use xlink:href="#DejaVuSans-56"/>
       <use x="63.623047" xlink:href="#DejaVuSans-48"/>
       <use x="127.246094" xlink:href="#DejaVuSans-48"/>
      </g>
     </g>
    </g>
   </g>
   <g id="matplotlib.axis_2">
    <g id="ytick_1">
     <g id="line2d_10">
      <defs>
       <path d="M 0 0 
L -3.5 0 
" id="m79e8e54e97" style="stroke:#000000;stroke-width:0.8;"/>
      </defs>
      <g>
       <use style="stroke:#000000;stroke-width:0.8;" x="57.6" xlink:href="#m79e8e54e97" y="289.408553"/>
      </g>
     </g>
     <g id="text_10">
      <!-- 0.00 -->
      <defs>
       <path d="M 10.6875 12.40625 
L 21 12.40625 
L 21 0 
L 10.6875 0 
z
" id="DejaVuSans-46"/>
      </defs>
      <g transform="translate(28.334375 293.207772)scale(0.1 -0.1)">
       <use xlink:href="#DejaVuSans-48"/>
       <use x="63.623047" xlink:href="#DejaVuSans-46"/>
       <use x="95.410156" xlink:href="#DejaVuSans-48"/>
       <use x="159.033203" xlink:href="#DejaVuSans-48"/>
      </g>
     </g>
    </g>
    <g id="ytick_2">
     <g id="line2d_11">
      <g>
       <use style="stroke:#000000;stroke-width:0.8;" x="57.6" xlink:href="#m79e8e54e97" y="256.056332"/>
      </g>
     </g>
     <g id="text_11">
      <!-- 0.05 -->
      <g transform="translate(28.334375 259.855551)scale(0.1 -0.1)">
       <use xlink:href="#DejaVuSans-48"/>
       <use x="63.623047" xlink:href="#DejaVuSans-46"/>
       <use x="95.410156" xlink:href="#DejaVuSans-48"/>
       <use x="159.033203" xlink:href="#DejaVuSans-53"/>
      </g>
     </g>
    </g>
    <g id="ytick_3">
     <g id="line2d_12">
      <g>
       <use style="stroke:#000000;stroke-width:0.8;" x="57.6" xlink:href="#m79e8e54e97" y="222.704111"/>
      </g>
     </g>
     <g id="text_12">
      <!-- 0.10 -->
      <g transform="translate(28.334375 226.50333)scale(0.1 -0.1)">
       <use xlink:href="#DejaVuSans-48"/>
       <use x="63.623047" xlink:href="#DejaVuSans-46"/>
       <use x="95.410156" xlink:href="#DejaVuSans-49"/>
       <use x="159.033203" xlink:href="#DejaVuSans-48"/>
      </g>
     </g>
    </g>
    <g id="ytick_4">
     <g id="line2d_13">
      <g>
       <use style="stroke:#000000;stroke-width:0.8;" x="57.6" xlink:href="#m79e8e54e97" y="189.351891"/>
      </g>
     </g>
     <g id="text_13">
      <!-- 0.15 -->
      <g transform="translate(28.334375 193.151109)scale(0.1 -0.1)">
       <use xlink:href="#DejaVuSans-48"/>
       <use x="63.623047" xlink:href="#DejaVuSans-46"/>
       <use x="95.410156" xlink:href="#DejaVuSans-49"/>
       <use x="159.033203" xlink:href="#DejaVuSans-53"/>
      </g>
     </g>
    </g>
    <g id="ytick_5">
     <g id="line2d_14">
      <g>
       <use style="stroke:#000000;stroke-width:0.8;" x="57.6" xlink:href="#m79e8e54e97" y="155.99967"/>
      </g>
     </g>
     <g id="text_14">
      <!-- 0.20 -->
      <g transform="translate(28.334375 159.798889)scale(0.1 -0.1)">
       <use xlink:href="#DejaVuSans-48"/>
       <use x="63.623047" xlink:href="#DejaVuSans-46"/>
       <use x="95.410156" xlink:href="#DejaVuSans-50"/>
       <use x="159.033203" xlink:href="#DejaVuSans-48"/>
      </g>
     </g>
    </g>
    <g id="ytick_6">
     <g id="line2d_15">
      <g>
       <use style="stroke:#000000;stroke-width:0.8;" x="57.6" xlink:href="#m79e8e54e97" y="122.647449"/>
      </g>
     </g>
     <g id="text_15">
      <!-- 0.25 -->
      <g transform="translate(28.334375 126.446668)scale(0.1 -0.1)">
       <use xlink:href="#DejaVuSans-48"/>
       <use x="63.623047" xlink:href="#DejaVuSans-46"/>
       <use x="95.410156" xlink:href="#DejaVuSans-50"/>
       <use x="159.033203" xlink:href="#DejaVuSans-53"/>
      </g>
     </g>
    </g>
    <g id="ytick_7">
     <g id="line2d_16">
      <g>
       <use style="stroke:#000000;stroke-width:0.8;" x="57.6" xlink:href="#m79e8e54e97" y="89.295228"/>
      </g>
     </g>
     <g id="text_16">
      <!-- 0.30 -->
      <g transform="translate(28.334375 93.094447)scale(0.1 -0.1)">
       <use xlink:href="#DejaVuSans-48"/>
       <use x="63.623047" xlink:href="#DejaVuSans-46"/>
       <use x="95.410156" xlink:href="#DejaVuSans-51"/>
       <use x="159.033203" xlink:href="#DejaVuSans-48"/>
      </g>
     </g>
    </g>
    <g id="ytick_8">
     <g id="line2d_17">
      <g>
       <use style="stroke:#000000;stroke-width:0.8;" x="57.6" xlink:href="#m79e8e54e97" y="55.943007"/>
      </g>
     </g>
     <g id="text_17">
      <!-- 0.35 -->
      <g transform="translate(28.334375 59.742226)scale(0.1 -0.1)">
       <use xlink:href="#DejaVuSans-48"/>
       <use x="63.623047" xlink:href="#DejaVuSans-46"/>
       <use x="95.410156" xlink:href="#DejaVuSans-51"/>
       <use x="159.033203" xlink:href="#DejaVuSans-53"/>
      </g>
     </g>
    </g>
   </g>
   <g id="line2d_18">
    <path clip-path="url(#p5c6e800226)" d="M 73.832727 67.495684 
L 74.645379 67.295757 
L 75.458032 66.688578 
L 76.270684 65.764037 
L 79.114966 62.071327 
L 79.927619 61.50124 
L 80.740271 61.338333 
L 81.552923 61.605541 
L 82.365575 62.255328 
L 83.584553 63.731331 
L 85.209858 65.868791 
L 86.02251 66.658206 
L 86.835162 67.096903 
L 87.647814 67.119687 
L 88.460466 66.72858 
L 89.273119 65.970231 
L 90.492097 64.401614 
L 92.117401 62.263487 
L 92.930053 61.515555 
L 93.742706 61.132905 
L 94.555358 61.166915 
L 95.36801 61.606405 
L 96.180662 62.38543 
L 97.805967 64.48469 
L 99.024945 65.906967 
L 99.837597 66.518783 
L 100.650249 66.745017 
L 101.462901 66.551742 
L 102.275554 65.959567 
L 103.088206 65.051025 
L 105.932488 61.347583 
L 106.745141 60.747787 
L 107.557793 60.541178 
L 108.370445 60.75122 
L 109.183097 61.35025 
L 110.402075 62.746855 
L 112.433706 65.246067 
L 113.246358 65.879957 
L 114.05901 66.142875 
L 114.871662 65.995061 
L 115.684314 65.455594 
L 116.496967 64.601671 
L 119.747575 60.70383 
L 120.560228 60.294692 
L 121.37288 60.288438 
L 122.185532 60.680139 
L 122.998184 61.421579 
L 124.217162 62.913666 
L 125.842467 64.864242 
L 126.655119 65.500593 
L 127.467771 65.772838 
L 128.280423 65.637672 
L 129.093075 65.111481 
L 129.905728 64.266313 
L 133.156336 60.354616 
L 133.968989 59.937219 
L 134.781641 59.920644 
L 135.594293 60.307749 
L 136.406945 61.036467 
L 137.625923 62.520555 
L 139.251228 64.450546 
L 140.06388 65.072621 
L 140.876532 65.329275 
L 141.689184 65.185832 
L 142.501836 64.655162 
L 143.314489 63.81388 
L 146.565097 59.972794 
L 147.377749 59.579193 
L 148.190402 59.579838 
L 149.003054 59.975364 
L 149.815706 60.709113 
L 151.44101 62.716922 
L 152.659989 64.119903 
L 153.472641 64.745221 
L 154.285293 65.010095 
L 155.097945 64.870891 
L 155.910597 64.341765 
L 156.72325 63.50331 
L 159.973858 59.643471 
L 160.78651 59.235987 
L 161.599163 59.227212 
L 162.411815 59.612718 
L 163.224467 60.329783 
L 164.443445 61.788207 
L 165.662423 63.277107 
L 166.475076 64.024419 
L 167.287728 64.446124 
L 168.10038 64.484264 
L 168.913032 64.120505 
L 169.725684 63.407345 
L 170.944663 61.913012 
L 172.569967 59.870588 
L 173.382619 59.152113 
L 174.195271 58.780695 
L 175.007924 58.80867 
L 175.820576 59.216422 
L 176.633228 59.951169 
L 178.258532 61.938696 
L 179.477511 63.318226 
L 180.290163 63.92575 
L 181.102815 64.171688 
L 181.915467 64.028798 
L 182.728119 63.500237 
L 183.540771 62.667923 
L 186.385054 59.204951 
L 187.197706 58.631874 
L 188.010358 58.43338 
L 188.823011 58.635796 
L 189.635663 59.196041 
L 190.854641 60.537767 
L 192.886271 62.951376 
L 193.698924 63.564226 
L 194.511576 63.829711 
L 195.324228 63.702529 
L 196.13688 63.195775 
L 196.949532 62.381835 
L 200.200141 58.622622 
L 201.012793 58.224458 
L 201.825445 58.207456 
L 202.638098 58.56986 
L 203.45075 59.264714 
L 204.669728 60.689661 
L 206.295032 62.582707 
L 207.107685 63.202506 
L 207.920337 63.481628 
L 208.732989 63.371026 
L 209.545641 62.884678 
L 210.358293 62.089504 
L 213.608902 58.340109 
L 214.421554 57.920058 
L 215.234206 57.893517 
L 216.046859 58.246968 
L 216.859511 58.926633 
L 218.078489 60.351479 
L 219.703793 62.254382 
L 220.516446 62.889877 
L 221.329098 63.180214 
L 222.14175 63.081412 
L 222.954402 62.606796 
L 223.767054 61.819323 
L 227.017663 58.074831 
L 227.830315 57.652921 
L 228.642967 57.609127 
L 229.45562 57.947286 
L 230.268272 58.613709 
L 231.48725 60.012983 
L 233.112554 61.884187 
L 233.925207 62.517035 
L 234.737859 62.807791 
L 235.550511 62.716059 
L 236.363163 62.254144 
L 237.175815 61.481646 
L 240.426424 57.744507 
L 241.239076 57.309075 
L 242.051728 57.250673 
L 242.86438 57.579219 
L 243.677033 58.234388 
L 244.896011 59.608564 
L 246.521315 61.458751 
L 247.333967 62.087072 
L 248.14662 62.382183 
L 248.959272 62.299277 
L 249.771924 61.845812 
L 250.584576 61.086268 
L 253.835185 57.410244 
L 254.647837 56.983127 
L 255.460489 56.923972 
L 256.273141 57.242938 
L 257.085794 57.888441 
L 258.304772 59.247334 
L 259.930076 61.071762 
L 260.742728 61.686272 
L 261.555381 61.973919 
L 262.368033 61.885607 
L 263.180685 61.436148 
L 263.993337 60.682573 
L 267.243946 57.012509 
L 268.056598 56.578462 
L 268.86925 56.511712 
L 269.681902 56.825459 
L 270.494555 57.468673 
L 271.713533 58.823157 
L 273.338837 60.668185 
L 274.151489 61.307958 
L 274.964142 61.614901 
L 275.776794 61.552242 
L 276.589446 61.121199 
L 277.402098 60.38076 
L 279.027402 58.423385 
L 280.246381 57.072986 
L 281.059033 56.468529 
L 281.871685 56.205141 
L 282.684337 56.318523 
L 283.496989 56.784681 
L 284.309642 57.543359 
L 287.153924 60.693316 
L 287.966576 61.192208 
L 288.779229 61.335317 
L 289.591881 61.102067 
L 290.404533 60.521309 
L 291.623511 59.189775 
L 293.655142 56.823335 
L 294.467794 56.213895 
L 295.280446 55.946124 
L 296.093098 56.05705 
L 296.90575 56.52923 
L 297.718403 57.294326 
L 300.562685 60.492085 
L 301.375337 61.001312 
L 302.18799 61.147651 
L 303.000642 60.90482 
L 303.813294 60.307007 
L 305.032272 58.923241 
L 307.063903 56.448816 
L 307.876555 55.798999 
L 308.689207 55.4996 
L 309.501859 55.587171 
L 310.314511 56.048481 
L 311.127163 56.813787 
L 314.377772 60.391291 
L 315.190424 60.738295 
L 316.003077 60.702887 
L 316.815729 60.292972 
L 317.628381 59.556546 
L 318.847359 58.080119 
L 320.472664 56.136091 
L 321.285316 55.484803 
L 322.097968 55.173279 
L 322.91062 55.249144 
L 323.723272 55.692247 
L 324.535924 56.437176 
L 327.786533 59.965825 
L 328.599185 60.336471 
L 329.411838 60.328485 
L 330.22449 59.945675 
L 331.037142 59.241004 
L 332.25612 57.802536 
L 333.881425 55.894162 
L 334.694077 55.245389 
L 335.506729 54.925351 
L 336.319381 54.985292 
L 337.132033 55.407746 
L 337.944685 56.130985 
L 341.195294 59.622618 
L 342.007946 59.998614 
L 342.820598 60.001077 
L 343.633251 59.630094 
L 344.445903 58.935146 
L 345.664881 57.506123 
L 347.290185 55.589365 
L 348.102838 54.920197 
L 348.91549 54.587564 
L 349.728142 54.634628 
L 350.540794 55.051673 
L 351.353446 55.775054 
L 352.978751 57.685003 
L 354.197729 58.984667 
L 355.010381 59.542227 
L 355.823033 59.752922 
L 356.635686 59.587983 
L 357.448338 59.069356 
L 358.26099 58.267912 
L 361.105272 55.020926 
L 361.917925 54.511523 
L 362.730577 54.354184 
L 363.543229 54.569528 
L 364.355881 55.121182 
L 365.574859 56.38539 
L 367.60649 58.608609 
L 368.419142 59.159399 
L 369.231794 59.372108 
L 370.044446 59.21414 
L 370.857099 58.707729 
L 371.669751 57.920453 
L 374.514033 54.707402 
L 375.326686 54.193307 
L 376.139338 54.023678 
L 376.95199 54.223861 
L 377.764642 54.760031 
L 378.98362 56.015578 
L 381.015251 58.240712 
L 381.827903 58.795848 
L 382.640555 59.016557 
L 383.453207 58.86844 
L 384.26586 58.368751 
L 385.078512 57.585477 
L 387.922794 54.377243 
L 388.735447 53.858291 
L 389.548099 53.693484 
L 390.360751 53.896629 
L 391.173403 54.434972 
L 392.392381 55.696759 
L 394.424012 57.945185 
L 395.236664 58.514091 
L 396.049316 58.744622 
L 396.861968 58.607716 
L 397.674621 58.115267 
L 398.487273 57.339425 
L 398.487273 57.339425 
" style="fill:none;stroke:#1f77b4;stroke-linecap:square;stroke-width:1.5;"/>
   </g>
   <g id="line2d_19">
    <path clip-path="url(#p5c6e800226)" d="M 73.832727 61.416237 
L 74.645379 61.583586 
L 75.458032 62.217118 
L 76.270684 63.100633 
L 79.114966 66.676369 
L 79.927619 67.221421 
L 80.740271 67.333626 
L 81.552923 67.033605 
L 82.365575 66.329685 
L 83.584553 64.81177 
L 85.616184 62.099878 
L 86.428836 61.436298 
L 87.241488 61.171163 
L 88.460466 61.653512 
L 89.273119 62.365471 
L 90.492097 63.862118 
L 92.523727 66.342832 
L 93.33638 66.868759 
L 94.149032 66.974283 
L 94.961684 66.690862 
L 95.774336 65.993037 
L 96.993314 64.510605 
L 99.024945 61.822166 
L 99.837597 61.12212 
L 100.243923 60.916128 
L 101.056575 60.86245 
L 101.462901 60.954381 
L 102.275554 61.478254 
L 103.088206 62.309097 
L 105.932488 65.733516 
L 106.745141 66.257521 
L 107.557793 66.389915 
L 108.370445 66.123864 
L 109.183097 65.45368 
L 109.995749 64.541065 
L 112.433706 61.38963 
L 113.246358 60.70286 
L 114.05901 60.39368 
L 114.871662 60.519977 
L 115.684314 61.041373 
L 116.903293 62.34143 
L 119.341249 65.236108 
L 120.153901 65.788026 
L 120.966554 65.959296 
L 121.779206 65.722448 
L 122.591858 65.104387 
L 123.810836 63.668122 
L 125.842467 61.072665 
L 126.655119 60.389137 
L 127.467771 60.069586 
L 128.280423 60.156109 
L 129.093075 60.631034 
L 129.905728 61.426767 
L 132.75001 64.885231 
L 133.562662 65.423923 
L 134.375315 65.605389 
L 135.187967 65.381829 
L 136.000619 64.777884 
L 139.251228 60.618956 
L 140.06388 59.971411 
L 140.876532 59.672399 
L 141.689184 59.777863 
L 142.501836 60.292467 
L 143.314489 61.081172 
L 146.565097 64.846999 
L 146.971423 65.068375 
L 147.784076 65.173351 
L 148.596728 64.907743 
L 149.40938 64.324536 
L 150.628358 62.903853 
L 152.659989 60.359322 
L 153.472641 59.704133 
L 154.285293 59.359747 
L 154.691619 59.342386 
L 155.504271 59.641304 
L 156.316923 60.299012 
L 157.535902 61.721321 
L 159.161206 63.732341 
L 159.973858 64.44113 
L 160.78651 64.795492 
L 161.192837 64.812484 
L 162.005489 64.556348 
L 162.818141 63.97344 
L 163.630793 63.06151 
L 166.475076 59.449018 
L 166.881402 59.138244 
L 167.694054 58.884217 
L 168.506706 59.019451 
L 169.319358 59.526492 
L 170.13201 60.332225 
L 172.976293 63.681371 
L 173.788945 64.170679 
L 174.601597 64.31353 
L 175.41425 64.06122 
L 176.226902 63.417045 
L 177.039554 62.535406 
L 179.883837 59.189587 
L 180.696489 58.707111 
L 181.509141 58.621771 
L 182.321793 58.935121 
L 183.134445 59.578301 
L 184.353424 60.996846 
L 185.978728 62.931073 
L 186.79138 63.624854 
L 187.604032 63.980217 
L 188.416684 63.937646 
L 189.229337 63.497221 
L 190.041989 62.730039 
L 191.667293 60.672055 
L 192.886271 59.247654 
L 193.698924 58.615258 
L 194.511576 58.333035 
L 195.324228 58.422081 
L 196.13688 58.890623 
L 196.949532 59.666976 
L 200.200141 63.301025 
L 201.012793 63.593473 
L 201.825445 63.55328 
L 202.638098 63.197658 
L 203.45075 62.465873 
L 204.669728 60.984865 
L 206.295032 58.990738 
L 207.107685 58.344333 
L 207.920337 58.044576 
L 208.732989 58.112026 
L 209.545641 58.559326 
L 210.358293 59.304866 
L 213.608902 62.932613 
L 214.421554 63.338118 
L 215.234206 63.291937 
L 216.046859 62.902742 
L 216.859511 62.173084 
L 218.078489 60.712401 
L 219.703793 58.730418 
L 220.516446 58.056802 
L 221.329098 57.727847 
L 222.14175 57.783407 
L 222.954402 58.226057 
L 223.767054 58.994077 
L 227.017663 62.609586 
L 227.830315 62.984829 
L 228.236641 63.029106 
L 229.049293 62.789833 
L 229.861946 62.260727 
L 230.674598 61.411876 
L 233.51888 58.071828 
L 234.331533 57.561531 
L 234.737859 57.429895 
L 235.550511 57.493485 
L 236.363163 57.888249 
L 237.175815 58.60945 
L 240.426424 62.213235 
L 241.239076 62.607618 
L 242.051728 62.622684 
L 242.458054 62.469576 
L 243.270707 61.85848 
L 244.489685 60.526081 
L 246.521315 58.090798 
L 247.333967 57.418417 
L 248.14662 57.081395 
L 248.959272 57.120475 
L 249.771924 57.537597 
L 250.584576 58.258208 
L 253.835185 61.79314 
L 254.647837 62.179805 
L 255.460489 62.214523 
L 256.273141 61.801322 
L 257.085794 61.124419 
L 258.304772 59.683992 
L 259.52375 58.134087 
L 260.742728 57.065836 
L 261.555381 56.738503 
L 262.368033 56.769061 
L 263.180685 57.163302 
L 263.993337 57.874658 
L 265.212315 59.218268 
L 266.431294 60.645869 
L 267.243946 61.353378 
L 268.056598 61.749477 
L 268.86925 61.791024 
L 269.681902 61.435758 
L 270.494555 60.726413 
L 271.713533 59.32581 
L 273.338837 57.416633 
L 274.151489 56.735877 
L 274.964142 56.388115 
L 275.776794 56.404009 
L 276.589446 56.778234 
L 277.402098 57.517099 
L 278.621076 58.888992 
L 279.840055 60.26149 
L 280.652707 60.983421 
L 281.465359 61.408322 
L 282.278011 61.449222 
L 283.090663 61.122903 
L 283.903316 60.467557 
L 285.122294 59.06478 
L 286.747598 57.13944 
L 287.56025 56.458347 
L 288.372902 56.093282 
L 289.185555 56.113555 
L 289.998207 56.486172 
L 290.810859 57.180131 
L 292.029837 58.589567 
L 293.248816 59.989294 
L 294.061468 60.730936 
L 294.87412 61.159525 
L 295.686772 61.244245 
L 296.499424 60.931466 
L 297.312076 60.270983 
L 298.937381 58.361592 
L 300.562685 56.507274 
L 301.375337 55.921845 
L 302.18799 55.683853 
L 303.000642 55.885756 
L 303.813294 56.439551 
L 305.032272 57.728214 
L 307.063903 60.093727 
L 307.876555 60.677643 
L 308.689207 60.942978 
L 309.501859 60.81652 
L 310.314511 60.325486 
L 311.127163 59.496375 
L 314.377772 55.739119 
L 315.190424 55.346684 
L 316.003077 55.342278 
L 316.815729 55.722141 
L 317.628381 56.431848 
L 319.253685 58.378769 
L 320.472664 59.706185 
L 321.285316 60.316035 
L 321.691642 60.500079 
L 322.504294 60.525516 
L 323.316946 60.203608 
L 324.129598 59.550728 
L 325.348577 58.187517 
L 326.973881 56.216638 
L 327.786533 55.474412 
L 328.599185 55.066351 
L 329.411838 55.051986 
L 330.22449 55.413365 
L 331.037142 56.099655 
L 332.25612 57.50428 
L 333.881425 59.340577 
L 334.694077 59.928521 
L 335.506729 60.190218 
L 336.319381 60.074412 
L 337.132033 59.611787 
L 337.944685 58.875892 
L 341.195294 55.232196 
L 342.007946 54.82058 
L 342.820598 54.768698 
L 343.633251 55.08744 
L 344.445903 55.716595 
L 345.664881 57.085093 
L 347.290185 58.962953 
L 348.102838 59.603326 
L 348.91549 59.90173 
L 349.728142 59.808283 
L 350.540794 59.35394 
L 351.353446 58.597452 
L 352.572425 57.133426 
L 353.791403 55.672571 
L 354.604055 54.939114 
L 355.416707 54.527841 
L 356.229359 54.489747 
L 357.042012 54.816146 
L 357.854664 55.4751 
L 359.073642 56.842195 
L 360.29262 58.248499 
L 361.511599 59.258061 
L 362.324251 59.539201 
L 363.136903 59.463258 
L 363.949555 59.015631 
L 364.762207 58.273644 
L 368.012816 54.686673 
L 368.825468 54.263521 
L 369.63812 54.216882 
L 370.450773 54.507066 
L 371.263425 55.127386 
L 372.482403 56.45675 
L 374.107707 58.25843 
L 374.92036 58.866873 
L 375.733012 59.167304 
L 376.545664 59.113036 
L 377.358316 58.712411 
L 378.170968 57.995313 
L 379.389947 56.5637 
L 381.015251 54.701933 
L 381.827903 54.104749 
L 382.640555 53.840975 
L 383.453207 53.948841 
L 384.26586 54.413238 
L 385.078512 55.15358 
L 387.922794 58.2637 
L 388.735447 58.712221 
L 389.548099 58.860993 
L 390.360751 58.646006 
L 391.173403 58.077849 
L 392.392381 56.768119 
L 394.424012 54.420657 
L 395.236664 53.825482 
L 396.049316 53.568 
L 396.861968 53.658191 
L 397.674621 54.116803 
L 398.487273 54.897655 
L 398.487273 54.897655 
" style="fill:none;stroke:#ff0000;stroke-linecap:square;stroke-width:1.5;"/>
   </g>
   <g id="line2d_20">
    <path clip-path="url(#p5c6e800226)" d="M 73.832727 295.488 
L 74.239053 295.412914 
L 74.645379 295.120724 
L 75.458032 293.880014 
L 76.270684 292.071956 
L 79.114966 284.803511 
L 79.927619 283.688372 
L 80.333945 283.442685 
L 80.740271 283.413259 
L 81.146597 283.588385 
L 81.552923 283.980489 
L 82.365575 285.334196 
L 83.178227 287.237563 
L 85.616184 293.611735 
L 86.428836 294.89754 
L 86.835162 295.25401 
L 87.241488 295.400148 
L 88.05414 294.952869 
L 88.460466 294.483621 
L 89.273119 293.013313 
L 90.492097 289.948049 
L 92.117401 285.723251 
L 92.930053 284.261665 
L 93.33638 283.81315 
L 93.742706 283.56996 
L 94.149032 283.531568 
L 94.555358 283.687221 
L 94.961684 284.056097 
L 95.774336 285.375523 
L 96.586988 287.230324 
L 99.024945 293.493355 
L 99.837597 294.805216 
L 100.243923 295.177092 
L 100.650249 295.30524 
L 101.056575 295.245908 
L 101.462901 295.005913 
L 102.275554 293.889866 
L 103.088206 292.150481 
L 105.932488 285.02262 
L 106.745141 283.898819 
L 107.151467 283.627367 
L 107.557793 283.559817 
L 107.964119 283.692796 
L 108.370445 284.035909 
L 109.183097 285.305123 
L 109.995749 287.102564 
L 112.433706 293.264991 
L 113.246358 294.58565 
L 113.652684 294.9781 
L 114.05901 295.157748 
L 114.465336 295.124783 
L 114.871662 294.883636 
L 115.277988 294.443457 
L 116.090641 293.043688 
L 117.309619 290.114562 
L 118.934923 286.024275 
L 119.747575 284.556697 
L 120.153901 284.071681 
L 120.560228 283.778926 
L 120.966554 283.68875 
L 121.37288 283.80567 
L 121.779206 284.122034 
L 122.591858 285.314456 
L 123.40451 287.09771 
L 125.842467 293.20013 
L 126.655119 294.520009 
L 127.061445 294.913087 
L 127.467771 295.111806 
L 127.874097 295.104382 
L 128.280423 294.890116 
L 128.686749 294.480315 
L 129.499402 293.134685 
L 130.312054 291.243255 
L 132.343684 286.042251 
L 133.156336 284.567154 
L 133.562662 284.082493 
L 133.968989 283.782042 
L 134.375315 283.679677 
L 134.781641 283.785077 
L 135.187967 284.092672 
L 136.000619 285.265411 
L 137.625923 289.221215 
L 138.844902 292.375442 
L 139.657554 293.957653 
L 140.470206 294.88651 
L 140.876532 295.065429 
L 141.282858 295.043002 
L 141.689184 294.816521 
L 142.09551 294.382751 
L 142.908162 293.021318 
L 143.720815 291.148377 
L 145.752445 286.009075 
L 146.565097 284.534348 
L 146.971423 284.06388 
L 147.377749 283.836664 
L 147.784076 283.765791 
L 148.190402 283.909846 
L 148.596728 284.230902 
L 149.003054 284.71748 
L 149.815706 286.22509 
L 151.034684 289.238668 
L 152.253663 292.298394 
L 153.066315 293.87303 
L 153.878967 294.856997 
L 154.285293 295.0589 
L 154.691619 295.05616 
L 155.097945 294.83573 
L 155.504271 294.416086 
L 156.316923 293.06471 
L 157.129576 291.204325 
L 159.161206 286.068091 
L 159.973858 284.610894 
L 160.380184 284.139291 
L 160.78651 283.849048 
L 161.192837 283.777894 
L 161.599163 283.917604 
L 162.005489 284.225674 
L 162.818141 285.370526 
L 163.630793 287.129355 
L 166.06875 293.239538 
L 166.881402 294.555084 
L 167.694054 295.040537 
L 168.10038 294.987929 
L 168.506706 294.739954 
L 168.913032 294.300942 
L 169.725684 292.911509 
L 170.538337 291.028444 
L 172.569967 285.962389 
L 173.382619 284.587559 
L 173.788945 284.155112 
L 174.195271 283.900815 
L 174.601597 283.841665 
L 175.007924 283.988124 
L 175.41425 284.313389 
L 175.820576 284.834477 
L 176.633228 286.348859 
L 177.852206 289.324902 
L 179.071184 292.34281 
L 179.883837 293.881838 
L 180.290163 294.43724 
L 180.696489 294.797727 
L 181.102815 294.965514 
L 181.509141 294.940301 
L 181.915467 294.703126 
L 182.321793 294.283219 
L 183.134445 292.945956 
L 183.947098 291.092353 
L 185.978728 286.084027 
L 186.79138 284.658784 
L 187.197706 284.192209 
L 187.604032 283.910179 
L 188.010358 283.829762 
L 188.416684 283.956263 
L 188.823011 284.278396 
L 189.635663 285.458911 
L 190.448315 287.197451 
L 192.886271 293.112275 
L 193.698924 294.357521 
L 194.10525 294.717682 
L 194.511576 294.905228 
L 194.917902 294.896798 
L 195.324228 294.689001 
L 195.730554 294.288639 
L 196.543206 292.983019 
L 197.762185 290.148362 
L 199.387489 286.166034 
L 200.200141 284.730151 
L 201.012793 284.039538 
L 201.419119 283.956983 
L 201.825445 284.062729 
L 202.638098 284.780755 
L 203.45075 286.207394 
L 204.669728 289.113349 
L 206.295032 293.000523 
L 207.107685 294.266726 
L 207.514011 294.650956 
L 207.920337 294.845605 
L 208.326663 294.851602 
L 208.732989 294.667553 
L 209.139315 294.28806 
L 209.951967 293.023165 
L 210.764619 291.254221 
L 213.202576 285.485768 
L 214.015228 284.311508 
L 214.421554 283.990493 
L 214.82788 283.919106 
L 215.234206 284.010133 
L 215.640532 284.290387 
L 216.046859 284.752779 
L 216.859511 286.162102 
L 218.078489 289.047631 
L 219.703793 292.932516 
L 220.516446 294.241628 
L 220.922772 294.645852 
L 221.329098 294.86092 
L 221.735424 294.884591 
L 222.14175 294.706558 
L 222.548076 294.335131 
L 223.360728 293.085086 
L 224.579706 290.284659 
L 226.205011 286.347564 
L 227.017663 284.873798 
L 227.830315 284.076645 
L 228.236641 283.961021 
L 228.642967 284.079986 
L 229.049293 284.351035 
L 229.861946 285.391487 
L 230.674598 287.038541 
L 233.51888 293.574947 
L 234.331533 294.554994 
L 234.737859 294.786448 
L 235.144185 294.795234 
L 235.550511 294.631128 
L 235.956837 294.284215 
L 236.769489 293.096773 
L 237.582141 291.345098 
L 240.020098 285.607142 
L 240.83275 284.438084 
L 241.239076 284.11001 
L 241.645402 283.985349 
L 242.051728 284.036542 
L 242.458054 284.308176 
L 243.270707 285.421241 
L 244.083359 287.050365 
L 246.927641 293.494694 
L 247.740294 294.47625 
L 248.14662 294.709341 
L 248.552946 294.742925 
L 248.959272 294.587355 
L 249.365598 294.24019 
L 250.17825 293.042004 
L 250.990902 291.32827 
L 253.428859 285.688616 
L 254.241511 284.54515 
L 254.647837 284.211875 
L 255.054163 284.070463 
L 255.460489 284.118002 
L 255.866815 284.388565 
L 256.679468 285.444148 
L 257.49212 287.022404 
L 260.336402 293.466646 
L 261.149054 294.431652 
L 261.555381 294.643969 
L 261.961707 294.671484 
L 262.368033 294.525098 
L 262.774359 294.189225 
L 263.587011 293.013149 
L 264.805989 290.392716 
L 266.83762 285.724831 
L 267.650272 284.567016 
L 268.056598 284.237537 
L 268.462924 284.088843 
L 268.86925 284.12924 
L 269.275576 284.374706 
L 269.681902 284.798254 
L 270.494555 286.150813 
L 271.713533 288.905901 
L 273.338837 292.660105 
L 274.151489 293.980634 
L 274.557815 294.399902 
L 274.964142 294.635339 
L 275.370468 294.696531 
L 275.776794 294.556787 
L 276.589446 293.751519 
L 277.402098 292.272214 
L 278.621076 289.448384 
L 279.840055 286.626513 
L 280.652707 285.157391 
L 281.465359 284.291181 
L 281.871685 284.136611 
L 282.278011 284.173626 
L 282.684337 284.394445 
L 283.090663 284.796678 
L 283.903316 286.073979 
L 285.122294 288.821372 
L 286.747598 292.600762 
L 287.56025 293.933502 
L 287.966576 294.368775 
L 288.372902 294.626311 
L 288.779229 294.679922 
L 289.185555 294.560984 
L 289.591881 294.259309 
L 290.404533 293.124764 
L 291.217185 291.476986 
L 293.655142 285.838129 
L 294.467794 284.633723 
L 294.87412 284.282914 
L 295.280446 284.103871 
L 295.686772 284.118591 
L 296.093098 284.331834 
L 296.499424 284.728325 
L 297.312076 286.018826 
L 298.531055 288.776826 
L 300.156359 292.606954 
L 300.969011 294.043418 
L 301.375337 294.48802 
L 302.18799 294.872351 
L 302.594316 294.752992 
L 303.000642 294.427616 
L 303.813294 293.276009 
L 304.625946 291.587491 
L 307.063903 285.763642 
L 307.876555 284.52991 
L 308.282881 284.148464 
L 308.689207 283.965175 
L 309.095533 283.972327 
L 309.501859 284.179205 
L 309.908185 284.575959 
L 310.720837 285.859354 
L 311.939816 288.626679 
L 313.56512 292.644776 
L 314.377772 294.060725 
L 314.784098 294.524638 
L 315.190424 294.800163 
L 315.59675 294.88313 
L 316.003077 294.769162 
L 316.409403 294.464115 
L 317.222055 293.326208 
L 318.034707 291.629698 
L 320.472664 285.838458 
L 321.285316 284.577321 
L 321.691642 284.192383 
L 322.097968 284.028722 
L 322.504294 284.045296 
L 322.91062 284.253075 
L 323.316946 284.633103 
L 324.129598 285.891359 
L 325.348577 288.594836 
L 326.973881 292.465229 
L 327.786533 293.899966 
L 328.192859 294.383436 
L 328.599185 294.678673 
L 329.005511 294.777521 
L 329.411838 294.685052 
L 329.818164 294.398225 
L 330.22449 293.940864 
L 331.037142 292.549903 
L 332.25612 289.70681 
L 333.881425 285.962139 
L 334.694077 284.725421 
L 335.100403 284.351045 
L 335.506729 284.143686 
L 335.913055 284.157232 
L 336.319381 284.319433 
L 336.725707 284.675084 
L 337.538359 285.878275 
L 338.351011 287.567178 
L 340.382642 292.367638 
L 341.195294 293.798975 
L 341.60162 294.287561 
L 342.007946 294.586588 
L 342.414272 294.698682 
L 342.820598 294.640933 
L 343.226925 294.392087 
L 343.633251 293.951207 
L 344.445903 292.627105 
L 345.664881 289.829583 
L 347.290185 286.034964 
L 348.102838 284.725424 
L 348.509164 284.314253 
L 348.91549 284.094387 
L 349.321816 284.067627 
L 349.728142 284.234898 
L 350.134468 284.5846 
L 350.94712 285.779878 
L 351.759772 287.479995 
L 354.197729 293.121412 
L 355.010381 294.263076 
L 355.416707 294.572866 
L 355.823033 294.700246 
L 356.229359 294.637338 
L 356.635686 294.389439 
L 357.042012 293.96206 
L 357.854664 292.631009 
L 359.073642 289.860278 
L 360.698946 286.160339 
L 361.511599 284.875436 
L 361.917925 284.47554 
L 362.324251 284.255544 
L 362.730577 284.215968 
L 363.136903 284.362581 
L 363.543229 284.707059 
L 364.355881 285.852524 
L 365.168533 287.51236 
L 367.60649 292.993178 
L 368.419142 294.137974 
L 368.825468 294.456254 
L 369.231794 294.584625 
L 369.63812 294.530022 
L 370.044446 294.299758 
L 370.450773 293.902922 
L 371.263425 292.623874 
L 372.482403 289.914272 
L 374.107707 286.225496 
L 374.92036 284.953663 
L 375.326686 284.534014 
L 375.733012 284.30356 
L 376.139338 284.254899 
L 376.545664 284.373512 
L 376.95199 284.682962 
L 377.764642 285.781016 
L 378.577294 287.400922 
L 381.015251 292.947332 
L 381.827903 294.099652 
L 382.234229 294.425846 
L 382.640555 294.584135 
L 383.046881 294.549218 
L 383.453207 294.328152 
L 383.859534 293.925096 
L 384.672186 292.670998 
L 385.891164 289.949263 
L 387.516468 286.242923 
L 388.32912 284.959653 
L 389.141773 284.305701 
L 389.548099 284.241044 
L 389.954425 284.357528 
L 390.360751 284.659176 
L 391.173403 285.765676 
L 391.986055 287.392673 
L 394.424012 292.933081 
L 395.236664 294.097163 
L 395.64299 294.433062 
L 396.049316 294.585175 
L 396.455642 294.561609 
L 396.861968 294.358077 
L 397.268294 293.974507 
L 398.080947 292.694694 
L 398.487273 291.850323 
L 398.487273 291.850323 
" style="fill:none;stroke:#008000;stroke-linecap:square;stroke-width:1.5;"/>
   </g>
   <g id="patch_3">
    <path d="M 57.6 307.584 
L 57.6 41.472 
" style="fill:none;stroke:#000000;stroke-linecap:square;stroke-linejoin:miter;stroke-width:0.8;"/>
   </g>
   <g id="patch_4">
    <path d="M 414.72 307.584 
L 414.72 41.472 
" style="fill:none;stroke:#000000;stroke-linecap:square;stroke-linejoin:miter;stroke-width:0.8;"/>
   </g>
   <g id="patch_5">
    <path d="M 57.6 307.584 
L 414.72 307.584 
" style="fill:none;stroke:#000000;stroke-linecap:square;stroke-linejoin:miter;stroke-width:0.8;"/>
   </g>
   <g id="patch_6">
    <path d="M 57.6 41.472 
L 414.72 41.472 
" style="fill:none;stroke:#000000;stroke-linecap:square;stroke-linejoin:miter;stroke-width:0.8;"/>
   </g>
   <g id="legend_1">
    <g id="patch_7">
     <path d="M 351.0075 198.045187 
L 407.72 198.045187 
Q 409.72 198.045187 409.72 196.045187 
L 409.72 153.010812 
Q 409.72 151.010812 407.72 151.010812 
L 351.0075 151.010812 
Q 349.0075 151.010812 349.0075 153.010812 
L 349.0075 196.045187 
Q 349.0075 198.045187 351.0075 198.045187 
z
" style="fill:#ffffff;opacity:0.8;stroke:#cccccc;stroke-linejoin:miter;"/>
    </g>
    <g id="line2d_21">
     <path d="M 353.0075 159.10925 
L 373.0075 159.10925 
" style="fill:none;stroke:#1f77b4;stroke-linecap:square;stroke-width:1.5;"/>
    </g>
    <g id="line2d_22"/>
    <g id="text_18">
     <!-- 0-&gt;1 -->
     <defs>
      <path d="M 4.890625 31.390625 
L 31.203125 31.390625 
L 31.203125 23.390625 
L 4.890625 23.390625 
z
" id="DejaVuSans-45"/>
      <path d="M 10.59375 49.21875 
L 10.59375 58.109375 
L 73.1875 35.40625 
L 73.1875 27.296875 
L 10.59375 4.59375 
L 10.59375 13.484375 
L 60.890625 31.296875 
z
" id="DejaVuSans-62"/>
     </defs>
     <g transform="translate(381.0075 162.60925)scale(0.1 -0.1)">
      <use xlink:href="#DejaVuSans-48"/>
      <use x="63.623047" xlink:href="#DejaVuSans-45"/>
      <use x="99.707031" xlink:href="#DejaVuSans-62"/>
      <use x="183.496094" xlink:href="#DejaVuSans-49"/>
     </g>
    </g>
    <g id="line2d_23">
     <path d="M 353.0075 173.787375 
L 373.0075 173.787375 
" style="fill:none;stroke:#ff0000;stroke-linecap:square;stroke-width:1.5;"/>
    </g>
    <g id="line2d_24"/>
    <g id="text_19">
     <!-- 1-&gt;0 -->
     <g transform="translate(381.0075 177.287375)scale(0.1 -0.1)">
      <use xlink:href="#DejaVuSans-49"/>
      <use x="63.623047" xlink:href="#DejaVuSans-45"/>
      <use x="99.707031" xlink:href="#DejaVuSans-62"/>
      <use x="183.496094" xlink:href="#DejaVuSans-48"/>
     </g>
    </g>
    <g id="line2d_25">
     <path d="M 353.0075 188.4655 
L 373.0075 188.4655 
" style="fill:none;stroke:#008000;stroke-linecap:square;stroke-width:1.5;"/>
    </g>
    <g id="line2d_26"/>
    <g id="text_20">
     <!-- diff -->
     <defs>
      <path d="M 45.40625 46.390625 
L 45.40625 75.984375 
L 54.390625 75.984375 
L 54.390625 0 
L 45.40625 0 
L 45.40625 8.203125 
Q 42.578125 3.328125 38.25 0.953125 
Q 33.9375 -1.421875 27.875 -1.421875 
Q 17.96875 -1.421875 11.734375 6.484375 
Q 5.515625 14.40625 5.515625 27.296875 
Q 5.515625 40.1875 11.734375 48.09375 
Q 17.96875 56 27.875 56 
Q 33.9375 56 38.25 53.625 
Q 42.578125 51.265625 45.40625 46.390625 
z
M 14.796875 27.296875 
Q 14.796875 17.390625 18.875 11.75 
Q 22.953125 6.109375 30.078125 6.109375 
Q 37.203125 6.109375 41.296875 11.75 
Q 45.40625 17.390625 45.40625 27.296875 
Q 45.40625 37.203125 41.296875 42.84375 
Q 37.203125 48.484375 30.078125 48.484375 
Q 22.953125 48.484375 18.875 42.84375 
Q 14.796875 37.203125 14.796875 27.296875 
z
" id="DejaVuSans-100"/>
      <path d="M 9.421875 54.6875 
L 18.40625 54.6875 
L 18.40625 0 
L 9.421875 0 
z
M 9.421875 75.984375 
L 18.40625 75.984375 
L 18.40625 64.59375 
L 9.421875 64.59375 
z
" id="DejaVuSans-105"/>
      <path d="M 37.109375 75.984375 
L 37.109375 68.5 
L 28.515625 68.5 
Q 23.6875 68.5 21.796875 66.546875 
Q 19.921875 64.59375 19.921875 59.515625 
L 19.921875 54.6875 
L 34.71875 54.6875 
L 34.71875 47.703125 
L 19.921875 47.703125 
L 19.921875 0 
L 10.890625 0 
L 10.890625 47.703125 
L 2.296875 47.703125 
L 2.296875 54.6875 
L 10.890625 54.6875 
L 10.890625 58.5 
Q 10.890625 67.625 15.140625 71.796875 
Q 19.390625 75.984375 28.609375 75.984375 
z
" id="DejaVuSans-102"/>
     </defs>
     <g transform="translate(381.0075 191.9655)scale(0.1 -0.1)">
      <use xlink:href="#DejaVuSans-100"/>
      <use x="63.476562" xlink:href="#DejaVuSans-105"/>
      <use x="91.259766" xlink:href="#DejaVuSans-102"/>
      <use x="126.464844" xlink:href="#DejaVuSans-102"/>
     </g>
    </g>
   </g>
  </g>
 </g>
 <defs>
  <clipPath id="p5c6e800226">
   <rect height="266.112" width="357.12" x="57.6" y="41.472"/>
  </clipPath>
 </defs>
</svg>
