<?xml version="1.0" encoding="utf-8" standalone="no"?>
<!DOCTYPE svg PUBLIC "-//W3C//DTD SVG 1.1//EN"
  "http://www.w3.org/Graphics/SVG/1.1/DTD/svg11.dtd">
<!-- Created with matplotlib (https://matplotlib.org/) -->
<svg height="345.6pt" version="1.1" viewBox="0 0 460.8 345.6" width="460.8pt" xmlns="http://www.w3.org/2000/svg" xmlns:xlink="http://www.w3.org/1999/xlink">
 <defs>
  <style type="text/css">
*{stroke-linecap:butt;stroke-linejoin:round;}
  </style>
 </defs>
 <g id="figure_1">
  <g id="patch_1">
   <path d="M 0 345.6 
L 460.8 345.6 
L 460.8 0 
L 0 0 
z
" style="fill:#ffffff;"/>
  </g>
  <g id="axes_1">
   <g id="patch_2">
    <path d="M 57.6 307.584 
L 414.72 307.584 
L 414.72 41.472 
L 57.6 41.472 
z
" style="fill:#ffffff;"/>
   </g>
   <g id="matplotlib.axis_1">
    <g id="xtick_1">
     <g id="line2d_1">
      <defs>
       <path d="M 0 0 
L 0 3.5 
" id="mf29638f5ca" style="stroke:#000000;stroke-width:0.8;"/>
      </defs>
      <g>
       <use style="stroke:#000000;stroke-width:0.8;" x="73.832727" xlink:href="#mf29638f5ca" y="307.584"/>
      </g>
     </g>
     <g id="text_1">
      <!-- 0 -->
      <defs>
       <path d="M 31.78125 66.40625 
Q 24.171875 66.40625 20.328125 58.90625 
Q 16.5 51.421875 16.5 36.375 
Q 16.5 21.390625 20.328125 13.890625 
Q 24.171875 6.390625 31.78125 6.390625 
Q 39.453125 6.390625 43.28125 13.890625 
Q 47.125 21.390625 47.125 36.375 
Q 47.125 51.421875 43.28125 58.90625 
Q 39.453125 66.40625 31.78125 66.40625 
z
M 31.78125 74.21875 
Q 44.046875 74.21875 50.515625 64.515625 
Q 56.984375 54.828125 56.984375 36.375 
Q 56.984375 17.96875 50.515625 8.265625 
Q 44.046875 -1.421875 31.78125 -1.421875 
Q 19.53125 -1.421875 13.0625 8.265625 
Q 6.59375 17.96875 6.59375 36.375 
Q 6.59375 54.828125 13.0625 64.515625 
Q 19.53125 74.21875 31.78125 74.21875 
z
" id="DejaVuSans-48"/>
      </defs>
      <g transform="translate(70.651477 322.182437)scale(0.1 -0.1)">
       <use xlink:href="#DejaVuSans-48"/>
      </g>
     </g>
    </g>
    <g id="xtick_2">
     <g id="line2d_2">
      <g>
       <use style="stroke:#000000;stroke-width:0.8;" x="114.465336" xlink:href="#mf29638f5ca" y="307.584"/>
      </g>
     </g>
     <g id="text_2">
      <!-- 100 -->
      <defs>
       <path d="M 12.40625 8.296875 
L 28.515625 8.296875 
L 28.515625 63.921875 
L 10.984375 60.40625 
L 10.984375 69.390625 
L 28.421875 72.90625 
L 38.28125 72.90625 
L 38.28125 8.296875 
L 54.390625 8.296875 
L 54.390625 0 
L 12.40625 0 
z
" id="DejaVuSans-49"/>
      </defs>
      <g transform="translate(104.921586 322.182437)scale(0.1 -0.1)">
       <use xlink:href="#DejaVuSans-49"/>
       <use x="63.623047" xlink:href="#DejaVuSans-48"/>
       <use x="127.246094" xlink:href="#DejaVuSans-48"/>
      </g>
     </g>
    </g>
    <g id="xtick_3">
     <g id="line2d_3">
      <g>
       <use style="stroke:#000000;stroke-width:0.8;" x="155.097945" xlink:href="#mf29638f5ca" y="307.584"/>
      </g>
     </g>
     <g id="text_3">
      <!-- 200 -->
      <defs>
       <path d="M 19.1875 8.296875 
L 53.609375 8.296875 
L 53.609375 0 
L 7.328125 0 
L 7.328125 8.296875 
Q 12.9375 14.109375 22.625 23.890625 
Q 32.328125 33.6875 34.8125 36.53125 
Q 39.546875 41.84375 41.421875 45.53125 
Q 43.3125 49.21875 43.3125 52.78125 
Q 43.3125 58.59375 39.234375 62.25 
Q 35.15625 65.921875 28.609375 65.921875 
Q 23.96875 65.921875 18.8125 64.3125 
Q 13.671875 62.703125 7.8125 59.421875 
L 7.8125 69.390625 
Q 13.765625 71.78125 18.9375 73 
Q 24.125 74.21875 28.421875 74.21875 
Q 39.75 74.21875 46.484375 68.546875 
Q 53.21875 62.890625 53.21875 53.421875 
Q 53.21875 48.921875 51.53125 44.890625 
Q 49.859375 40.875 45.40625 35.40625 
Q 44.1875 33.984375 37.640625 27.21875 
Q 31.109375 20.453125 19.1875 8.296875 
z
" id="DejaVuSans-50"/>
      </defs>
      <g transform="translate(145.554195 322.182437)scale(0.1 -0.1)">
       <use xlink:href="#DejaVuSans-50"/>
       <use x="63.623047" xlink:href="#DejaVuSans-48"/>
       <use x="127.246094" xlink:href="#DejaVuSans-48"/>
      </g>
     </g>
    </g>
    <g id="xtick_4">
     <g id="line2d_4">
      <g>
       <use style="stroke:#000000;stroke-width:0.8;" x="195.730554" xlink:href="#mf29638f5ca" y="307.584"/>
      </g>
     </g>
     <g id="text_4">
      <!-- 300 -->
      <defs>
       <path d="M 40.578125 39.3125 
Q 47.65625 37.796875 51.625 33 
Q 55.609375 28.21875 55.609375 21.1875 
Q 55.609375 10.40625 48.1875 4.484375 
Q 40.765625 -1.421875 27.09375 -1.421875 
Q 22.515625 -1.421875 17.65625 -0.515625 
Q 12.796875 0.390625 7.625 2.203125 
L 7.625 11.71875 
Q 11.71875 9.328125 16.59375 8.109375 
Q 21.484375 6.890625 26.8125 6.890625 
Q 36.078125 6.890625 40.9375 10.546875 
Q 45.796875 14.203125 45.796875 21.1875 
Q 45.796875 27.640625 41.28125 31.265625 
Q 36.765625 34.90625 28.71875 34.90625 
L 20.21875 34.90625 
L 20.21875 43.015625 
L 29.109375 43.015625 
Q 36.375 43.015625 40.234375 45.921875 
Q 44.09375 48.828125 44.09375 54.296875 
Q 44.09375 59.90625 40.109375 62.90625 
Q 36.140625 65.921875 28.71875 65.921875 
Q 24.65625 65.921875 20.015625 65.03125 
Q 15.375 64.15625 9.8125 62.3125 
L 9.8125 71.09375 
Q 15.4375 72.65625 20.34375 73.4375 
Q 25.25 74.21875 29.59375 74.21875 
Q 40.828125 74.21875 47.359375 69.109375 
Q 53.90625 64.015625 53.90625 55.328125 
Q 53.90625 49.265625 50.4375 45.09375 
Q 46.96875 40.921875 40.578125 39.3125 
z
" id="DejaVuSans-51"/>
      </defs>
      <g transform="translate(186.186804 322.182437)scale(0.1 -0.1)">
       <use xlink:href="#DejaVuSans-51"/>
       <use x="63.623047" xlink:href="#DejaVuSans-48"/>
       <use x="127.246094" xlink:href="#DejaVuSans-48"/>
      </g>
     </g>
    </g>
    <g id="xtick_5">
     <g id="line2d_5">
      <g>
       <use style="stroke:#000000;stroke-width:0.8;" x="236.363163" xlink:href="#mf29638f5ca" y="307.584"/>
      </g>
     </g>
     <g id="text_5">
      <!-- 400 -->
      <defs>
       <path d="M 37.796875 64.3125 
L 12.890625 25.390625 
L 37.796875 25.390625 
z
M 35.203125 72.90625 
L 47.609375 72.90625 
L 47.609375 25.390625 
L 58.015625 25.390625 
L 58.015625 17.1875 
L 47.609375 17.1875 
L 47.609375 0 
L 37.796875 0 
L 37.796875 17.1875 
L 4.890625 17.1875 
L 4.890625 26.703125 
z
" id="DejaVuSans-52"/>
      </defs>
      <g transform="translate(226.819413 322.182437)scale(0.1 -0.1)">
       <use xlink:href="#DejaVuSans-52"/>
       <use x="63.623047" xlink:href="#DejaVuSans-48"/>
       <use x="127.246094" xlink:href="#DejaVuSans-48"/>
      </g>
     </g>
    </g>
    <g id="xtick_6">
     <g id="line2d_6">
      <g>
       <use style="stroke:#000000;stroke-width:0.8;" x="276.995772" xlink:href="#mf29638f5ca" y="307.584"/>
      </g>
     </g>
     <g id="text_6">
      <!-- 500 -->
      <defs>
       <path d="M 10.796875 72.90625 
L 49.515625 72.90625 
L 49.515625 64.59375 
L 19.828125 64.59375 
L 19.828125 46.734375 
Q 21.96875 47.46875 24.109375 47.828125 
Q 26.265625 48.1875 28.421875 48.1875 
Q 40.625 48.1875 47.75 41.5 
Q 54.890625 34.8125 54.890625 23.390625 
Q 54.890625 11.625 47.5625 5.09375 
Q 40.234375 -1.421875 26.90625 -1.421875 
Q 22.3125 -1.421875 17.546875 -0.640625 
Q 12.796875 0.140625 7.71875 1.703125 
L 7.71875 11.625 
Q 12.109375 9.234375 16.796875 8.0625 
Q 21.484375 6.890625 26.703125 6.890625 
Q 35.15625 6.890625 40.078125 11.328125 
Q 45.015625 15.765625 45.015625 23.390625 
Q 45.015625 31 40.078125 35.4375 
Q 35.15625 39.890625 26.703125 39.890625 
Q 22.75 39.890625 18.8125 39.015625 
Q 14.890625 38.140625 10.796875 36.28125 
z
" id="DejaVuSans-53"/>
      </defs>
      <g transform="translate(267.452022 322.182437)scale(0.1 -0.1)">
       <use xlink:href="#DejaVuSans-53"/>
       <use x="63.623047" xlink:href="#DejaVuSans-48"/>
       <use x="127.246094" xlink:href="#DejaVuSans-48"/>
      </g>
     </g>
    </g>
    <g id="xtick_7">
     <g id="line2d_7">
      <g>
       <use style="stroke:#000000;stroke-width:0.8;" x="317.628381" xlink:href="#mf29638f5ca" y="307.584"/>
      </g>
     </g>
     <g id="text_7">
      <!-- 600 -->
      <defs>
       <path d="M 33.015625 40.375 
Q 26.375 40.375 22.484375 35.828125 
Q 18.609375 31.296875 18.609375 23.390625 
Q 18.609375 15.53125 22.484375 10.953125 
Q 26.375 6.390625 33.015625 6.390625 
Q 39.65625 6.390625 43.53125 10.953125 
Q 47.40625 15.53125 47.40625 23.390625 
Q 47.40625 31.296875 43.53125 35.828125 
Q 39.65625 40.375 33.015625 40.375 
z
M 52.59375 71.296875 
L 52.59375 62.3125 
Q 48.875 64.0625 45.09375 64.984375 
Q 41.3125 65.921875 37.59375 65.921875 
Q 27.828125 65.921875 22.671875 59.328125 
Q 17.53125 52.734375 16.796875 39.40625 
Q 19.671875 43.65625 24.015625 45.921875 
Q 28.375 48.1875 33.59375 48.1875 
Q 44.578125 48.1875 50.953125 41.515625 
Q 57.328125 34.859375 57.328125 23.390625 
Q 57.328125 12.15625 50.6875 5.359375 
Q 44.046875 -1.421875 33.015625 -1.421875 
Q 20.359375 -1.421875 13.671875 8.265625 
Q 6.984375 17.96875 6.984375 36.375 
Q 6.984375 53.65625 15.1875 63.9375 
Q 23.390625 74.21875 37.203125 74.21875 
Q 40.921875 74.21875 44.703125 73.484375 
Q 48.484375 72.75 52.59375 71.296875 
z
" id="DejaVuSans-54"/>
      </defs>
      <g transform="translate(308.084631 322.182437)scale(0.1 -0.1)">
       <use xlink:href="#DejaVuSans-54"/>
       <use x="63.623047" xlink:href="#DejaVuSans-48"/>
       <use x="127.246094" xlink:href="#DejaVuSans-48"/>
      </g>
     </g>
    </g>
    <g id="xtick_8">
     <g id="line2d_8">
      <g>
       <use style="stroke:#000000;stroke-width:0.8;" x="358.26099" xlink:href="#mf29638f5ca" y="307.584"/>
      </g>
     </g>
     <g id="text_8">
      <!-- 700 -->
      <defs>
       <path d="M 8.203125 72.90625 
L 55.078125 72.90625 
L 55.078125 68.703125 
L 28.609375 0 
L 18.3125 0 
L 43.21875 64.59375 
L 8.203125 64.59375 
z
" id="DejaVuSans-55"/>
      </defs>
      <g transform="translate(348.71724 322.182437)scale(0.1 -0.1)">
       <use xlink:href="#DejaVuSans-55"/>
       <use x="63.623047" xlink:href="#DejaVuSans-48"/>
       <use x="127.246094" xlink:href="#DejaVuSans-48"/>
      </g>
     </g>
    </g>
    <g id="xtick_9">
     <g id="line2d_9">
      <g>
       <use style="stroke:#000000;stroke-width:0.8;" x="398.893599" xlink:href="#mf29638f5ca" y="307.584"/>
      </g>
     </g>
     <g id="text_9">
      <!-- 800 -->
      <defs>
       <path d="M 31.78125 34.625 
Q 24.75 34.625 20.71875 30.859375 
Q 16.703125 27.09375 16.703125 20.515625 
Q 16.703125 13.921875 20.71875 10.15625 
Q 24.75 6.390625 31.78125 6.390625 
Q 38.8125 6.390625 42.859375 10.171875 
Q 46.921875 13.96875 46.921875 20.515625 
Q 46.921875 27.09375 42.890625 30.859375 
Q 38.875 34.625 31.78125 34.625 
z
M 21.921875 38.8125 
Q 15.578125 40.375 12.03125 44.71875 
Q 8.5 49.078125 8.5 55.328125 
Q 8.5 64.0625 14.71875 69.140625 
Q 20.953125 74.21875 31.78125 74.21875 
Q 42.671875 74.21875 48.875 69.140625 
Q 55.078125 64.0625 55.078125 55.328125 
Q 55.078125 49.078125 51.53125 44.71875 
Q 48 40.375 41.703125 38.8125 
Q 48.828125 37.15625 52.796875 32.3125 
Q 56.78125 27.484375 56.78125 20.515625 
Q 56.78125 9.90625 50.3125 4.234375 
Q 43.84375 -1.421875 31.78125 -1.421875 
Q 19.734375 -1.421875 13.25 4.234375 
Q 6.78125 9.90625 6.78125 20.515625 
Q 6.78125 27.484375 10.78125 32.3125 
Q 14.796875 37.15625 21.921875 38.8125 
z
M 18.3125 54.390625 
Q 18.3125 48.734375 21.84375 45.5625 
Q 25.390625 42.390625 31.78125 42.390625 
Q 38.140625 42.390625 41.71875 45.5625 
Q 45.3125 48.734375 45.3125 54.390625 
Q 45.3125 60.0625 41.71875 63.234375 
Q 38.140625 66.40625 31.78125 66.40625 
Q 25.390625 66.40625 21.84375 63.234375 
Q 18.3125 60.0625 18.3125 54.390625 
z
" id="DejaVuSans-56"/>
      </defs>
      <g transform="translate(389.349849 322.182437)scale(0.1 -0.1)">
       <use xlink:href="#DejaVuSans-56"/>
       <use x="63.623047" xlink:href="#DejaVuSans-48"/>
       <use x="127.246094" xlink:href="#DejaVuSans-48"/>
      </g>
     </g>
    </g>
   </g>
   <g id="matplotlib.axis_2">
    <g id="ytick_1">
     <g id="line2d_10">
      <defs>
       <path d="M 0 0 
L -3.5 0 
" id="me9c2d85071" style="stroke:#000000;stroke-width:0.8;"/>
      </defs>
      <g>
       <use style="stroke:#000000;stroke-width:0.8;" x="57.6" xlink:href="#me9c2d85071" y="293.167054"/>
      </g>
     </g>
     <g id="text_10">
      <!-- 0.0 -->
      <defs>
       <path d="M 10.6875 12.40625 
L 21 12.40625 
L 21 0 
L 10.6875 0 
z
" id="DejaVuSans-46"/>
      </defs>
      <g transform="translate(34.696875 296.966273)scale(0.1 -0.1)">
       <use xlink:href="#DejaVuSans-48"/>
       <use x="63.623047" xlink:href="#DejaVuSans-46"/>
       <use x="95.410156" xlink:href="#DejaVuSans-48"/>
      </g>
     </g>
    </g>
    <g id="ytick_2">
     <g id="line2d_11">
      <g>
       <use style="stroke:#000000;stroke-width:0.8;" x="57.6" xlink:href="#me9c2d85071" y="237.509353"/>
      </g>
     </g>
     <g id="text_11">
      <!-- 0.1 -->
      <g transform="translate(34.696875 241.308572)scale(0.1 -0.1)">
       <use xlink:href="#DejaVuSans-48"/>
       <use x="63.623047" xlink:href="#DejaVuSans-46"/>
       <use x="95.410156" xlink:href="#DejaVuSans-49"/>
      </g>
     </g>
    </g>
    <g id="ytick_3">
     <g id="line2d_12">
      <g>
       <use style="stroke:#000000;stroke-width:0.8;" x="57.6" xlink:href="#me9c2d85071" y="181.851652"/>
      </g>
     </g>
     <g id="text_12">
      <!-- 0.2 -->
      <g transform="translate(34.696875 185.65087)scale(0.1 -0.1)">
       <use xlink:href="#DejaVuSans-48"/>
       <use x="63.623047" xlink:href="#DejaVuSans-46"/>
       <use x="95.410156" xlink:href="#DejaVuSans-50"/>
      </g>
     </g>
    </g>
    <g id="ytick_4">
     <g id="line2d_13">
      <g>
       <use style="stroke:#000000;stroke-width:0.8;" x="57.6" xlink:href="#me9c2d85071" y="126.19395"/>
      </g>
     </g>
     <g id="text_13">
      <!-- 0.3 -->
      <g transform="translate(34.696875 129.993169)scale(0.1 -0.1)">
       <use xlink:href="#DejaVuSans-48"/>
       <use x="63.623047" xlink:href="#DejaVuSans-46"/>
       <use x="95.410156" xlink:href="#DejaVuSans-51"/>
      </g>
     </g>
    </g>
    <g id="ytick_5">
     <g id="line2d_14">
      <g>
       <use style="stroke:#000000;stroke-width:0.8;" x="57.6" xlink:href="#me9c2d85071" y="70.536249"/>
      </g>
     </g>
     <g id="text_14">
      <!-- 0.4 -->
      <g transform="translate(34.696875 74.335468)scale(0.1 -0.1)">
       <use xlink:href="#DejaVuSans-48"/>
       <use x="63.623047" xlink:href="#DejaVuSans-46"/>
       <use x="95.410156" xlink:href="#DejaVuSans-52"/>
      </g>
     </g>
    </g>
   </g>
   <g id="line2d_15">
    <path clip-path="url(#p50d81b5fc5)" d="M 73.832727 56.501435 
L 75.864358 57.390646 
L 77.083336 57.669929 
L 77.895988 57.682244 
L 79.114966 57.430736 
L 80.740271 56.748596 
L 82.771901 55.859328 
L 83.99088 55.604266 
L 85.209858 55.670855 
L 86.428836 56.032559 
L 90.492097 57.544556 
L 91.711075 57.52202 
L 92.930053 57.194955 
L 94.961684 56.277632 
L 96.586988 55.665405 
L 97.805967 55.50872 
L 99.024945 55.662953 
L 100.243923 56.086174 
L 102.275554 57.022576 
L 102.68188 57.352858 
L 104.307184 57.795192 
L 105.526162 57.572892 
L 106.745141 57.06909 
L 109.183097 55.872558 
L 110.402075 55.520255 
L 110.808401 55.722025 
L 112.02738 55.798454 
L 112.840032 56.015523 
L 113.652684 56.468773 
L 116.090641 57.482349 
L 117.309619 57.726872 
L 118.122271 57.733063 
L 119.341249 57.466112 
L 120.966554 56.782291 
L 122.998184 55.934993 
L 124.217162 55.723558 
L 125.436141 55.817285 
L 126.655119 56.19442 
L 130.312054 57.583668 
L 131.531032 57.628233 
L 132.75001 57.369253 
L 134.375315 56.691353 
L 136.406945 55.849297 
L 137.625923 55.625854 
L 138.844902 55.715823 
L 140.06388 56.086481 
L 143.314489 57.396416 
L 144.533467 57.547624 
L 145.752445 57.390639 
L 146.971423 56.970446 
L 150.222032 55.66232 
L 151.44101 55.547862 
L 152.659989 55.735458 
L 153.878967 56.167066 
L 156.72325 57.294309 
L 157.942228 57.454442 
L 159.161206 57.306281 
L 160.380184 56.893183 
L 163.630793 55.594824 
L 164.849771 55.456786 
L 166.06875 55.629958 
L 168.10038 56.417696 
L 169.725684 57.075164 
L 170.944663 57.338451 
L 172.163641 57.308763 
L 173.382619 56.984621 
L 177.44588 55.442496 
L 178.664858 55.402773 
L 179.883837 55.662114 
L 181.509141 56.310082 
L 183.540771 57.087773 
L 184.75975 57.26418 
L 185.978728 57.136993 
L 187.197706 56.740039 
L 190.448315 55.429472 
L 191.667293 55.282708 
L 192.886271 55.430735 
L 194.10525 55.82974 
L 196.949532 56.951572 
L 198.168511 57.127007 
L 199.387489 56.990847 
L 200.606467 56.607569 
L 203.857076 55.310587 
L 205.076054 55.174733 
L 206.295032 55.327449 
L 207.514011 55.72582 
L 210.358293 56.816464 
L 211.577272 56.991716 
L 212.79625 56.865586 
L 214.015228 56.478386 
L 217.265837 55.205895 
L 218.484815 55.062423 
L 219.703793 55.215533 
L 220.922772 55.612682 
L 223.767054 56.704737 
L 224.986033 56.881576 
L 226.205011 56.760497 
L 227.423989 56.375545 
L 230.674598 55.096866 
L 231.893576 54.952293 
L 233.112554 55.100865 
L 234.331533 55.501113 
L 237.175815 56.59733 
L 238.394793 56.775966 
L 239.613772 56.656659 
L 240.83275 56.280712 
L 244.083359 54.997497 
L 245.302337 54.843368 
L 246.521315 54.986601 
L 247.740294 55.375309 
L 250.584576 56.46879 
L 251.803554 56.655985 
L 253.022533 56.548683 
L 254.647837 55.992913 
L 257.49212 54.894129 
L 258.711098 54.741066 
L 259.930076 54.877606 
L 261.149054 55.257608 
L 263.993337 56.339633 
L 265.212315 56.500196 
L 266.431294 56.39015 
L 267.650272 56.034916 
L 271.307207 54.715429 
L 272.526185 54.651763 
L 273.745163 54.867596 
L 275.370468 55.4472 
L 277.402098 56.19337 
L 278.621076 56.378553 
L 279.840055 56.285045 
L 281.059033 55.940207 
L 284.715968 54.619417 
L 285.934946 54.550533 
L 287.153924 54.758964 
L 288.779229 55.340915 
L 290.810859 56.080258 
L 292.029837 56.276279 
L 293.248816 56.187337 
L 294.467794 55.844327 
L 298.124729 54.520684 
L 299.343707 54.44727 
L 300.562685 54.649704 
L 302.18799 55.222326 
L 304.21962 55.961057 
L 305.438598 56.15969 
L 306.657577 56.080915 
L 307.876555 55.744153 
L 311.53349 54.420346 
L 312.752468 54.338023 
L 313.971446 54.535668 
L 315.59675 55.10591 
L 317.628381 55.835979 
L 318.847359 56.038642 
L 320.066337 55.962925 
L 321.285316 55.628226 
L 325.348577 54.258709 
L 326.567555 54.271874 
L 327.786533 54.551045 
L 331.849794 55.819441 
L 333.068772 55.79983 
L 334.287751 55.51709 
L 336.319381 54.731664 
L 337.944685 54.192298 
L 339.163664 54.044145 
L 340.382642 54.182045 
L 342.007946 54.696114 
L 344.445903 55.560822 
L 345.664881 55.730817 
L 346.883859 55.61947 
L 348.102838 55.259788 
L 351.759772 53.972058 
L 352.978751 53.920125 
L 354.197729 54.137843 
L 355.823033 54.717763 
L 357.854664 55.41905 
L 359.073642 55.56511 
L 360.29262 55.455531 
L 361.511599 55.107983 
L 364.762207 53.906722 
L 365.981186 53.759553 
L 367.200164 53.886513 
L 368.825468 54.39436 
L 371.263425 55.244248 
L 372.482403 55.405147 
L 373.701381 55.298583 
L 374.92036 54.954768 
L 378.577294 53.694597 
L 379.796273 53.631248 
L 381.015251 53.834124 
L 382.640555 54.392474 
L 384.672186 55.099931 
L 385.891164 55.292671 
L 386.703816 55.287788 
L 387.922794 55.057852 
L 389.548099 54.452511 
L 391.579729 53.732612 
L 392.798707 53.568 
L 394.017686 53.669433 
L 395.236664 54.010727 
L 398.487273 55.139397 
L 398.487273 55.139397 
" style="fill:none;stroke:#1f77b4;stroke-linecap:square;stroke-width:1.5;"/>
   </g>
   <g id="line2d_16">
    <path clip-path="url(#p50d81b5fc5)" d="M 73.832727 56.887713 
L 75.864358 55.966635 
L 77.083336 55.672505 
L 77.895988 55.649167 
L 79.114966 55.877948 
L 80.740271 56.530979 
L 82.771901 57.391957 
L 83.99088 57.623226 
L 85.209858 57.543162 
L 86.428836 57.165682 
L 90.085771 55.655631 
L 91.304749 55.550949 
L 92.523727 55.766686 
L 93.742706 56.227894 
L 96.180662 57.256217 
L 97.39964 57.499542 
L 98.618619 57.435813 
L 99.837597 57.077551 
L 103.900858 55.493533 
L 104.71351 55.498129 
L 105.932488 55.800048 
L 107.557793 56.567854 
L 109.589423 57.522177 
L 110.808401 57.768657 
L 112.02738 57.6714 
L 113.246358 57.280088 
L 116.903293 55.833195 
L 118.122271 55.77498 
L 119.341249 56.025937 
L 120.966554 56.688574 
L 122.591858 57.376644 
L 123.810836 57.668219 
L 125.029815 57.656862 
L 126.248793 57.348368 
L 127.874097 56.640656 
L 129.499402 55.957673 
L 130.71838 55.692718 
L 131.937358 55.733568 
L 133.156336 56.066458 
L 137.219597 57.557039 
L 138.438575 57.554571 
L 139.657554 57.2517 
L 141.689184 56.364426 
L 143.314489 55.749233 
L 144.533467 55.58167 
L 145.752445 55.721845 
L 146.971423 56.125293 
L 150.222032 57.39357 
L 151.44101 57.500109 
L 152.659989 57.298084 
L 153.878967 56.849212 
L 156.72325 55.682749 
L 157.942228 55.506536 
L 159.161206 55.640243 
L 160.380184 56.035777 
L 163.630793 57.286643 
L 164.849771 57.403738 
L 166.06875 57.214053 
L 167.287728 56.776045 
L 170.13201 55.613577 
L 171.350989 55.428302 
L 172.569967 55.548341 
L 173.788945 55.93618 
L 177.039554 57.190188 
L 178.258532 57.313299 
L 179.477511 57.133983 
L 180.696489 56.703709 
L 183.540771 55.533884 
L 184.75975 55.337193 
L 185.978728 55.443413 
L 187.197706 55.82051 
L 190.448315 57.072774 
L 191.667293 57.174642 
L 192.886271 57.014944 
L 194.10525 56.597174 
L 196.949532 55.446494 
L 198.168511 55.247265 
L 199.387489 55.345003 
L 200.606467 55.703809 
L 203.857076 56.913515 
L 205.076054 57.031531 
L 206.295032 56.861021 
L 207.514011 56.445357 
L 210.358293 55.310578 
L 211.577272 55.118439 
L 212.79625 55.227493 
L 214.015228 55.595777 
L 217.265837 56.815102 
L 218.484815 56.938017 
L 219.703793 56.764919 
L 220.922772 56.345274 
L 223.767054 55.203124 
L 224.986033 55.010401 
L 226.205011 55.112676 
L 227.423989 55.477744 
L 230.674598 56.697181 
L 231.893576 56.82938 
L 233.112554 56.665123 
L 234.331533 56.252217 
L 237.175815 55.100982 
L 238.394793 54.902191 
L 239.613772 55.00016 
L 240.83275 55.357702 
L 244.083359 56.578827 
L 245.302337 56.714125 
L 246.521315 56.554173 
L 247.740294 56.146648 
L 250.584576 55.005497 
L 251.803554 54.798963 
L 253.022533 54.887196 
L 254.241511 55.237583 
L 257.49212 56.444443 
L 258.711098 56.580497 
L 259.930076 56.425688 
L 261.149054 56.028586 
L 264.399663 54.803202 
L 265.618641 54.689819 
L 266.83762 54.863675 
L 268.462924 55.426579 
L 270.494555 56.19407 
L 271.713533 56.424024 
L 272.932511 56.375474 
L 274.151489 56.0628 
L 278.21475 54.640836 
L 279.433729 54.614178 
L 280.652707 54.862819 
L 282.684337 55.63651 
L 284.309642 56.182546 
L 285.52862 56.332269 
L 286.747598 56.200801 
L 287.966576 55.824578 
L 291.217185 54.620501 
L 292.436163 54.495009 
L 293.655142 54.651427 
L 294.87412 55.0336 
L 297.718403 56.059798 
L 298.937381 56.212454 
L 300.156359 56.082535 
L 301.375337 55.712764 
L 304.625946 54.521679 
L 305.844924 54.399643 
L 307.063903 54.553171 
L 308.689207 55.091481 
L 311.127163 55.945261 
L 312.346142 56.100762 
L 313.56512 55.976409 
L 314.784098 55.609713 
L 318.034707 54.423442 
L 319.253685 54.28399 
L 320.472664 54.427083 
L 321.691642 54.812722 
L 324.535924 55.828498 
L 325.754903 55.980449 
L 326.973881 55.858656 
L 328.192859 55.496011 
L 328.599185 55.339917 
L 329.411838 54.873001 
L 331.037142 54.308445 
L 332.25612 54.121157 
L 333.475098 54.210475 
L 334.694077 54.540473 
L 337.944685 55.664612 
L 339.163664 55.784683 
L 340.382642 55.629485 
L 342.007946 55.085382 
L 344.445903 54.182366 
L 345.664881 53.996378 
L 346.883859 54.084179 
L 348.102838 54.413865 
L 351.353446 55.534406 
L 352.572425 55.650808 
L 353.791403 55.492148 
L 355.416707 54.941769 
L 357.854664 54.033898 
L 359.073642 53.846546 
L 360.29262 53.927869 
L 361.511599 54.251862 
L 365.168533 55.424325 
L 366.387512 55.458705 
L 367.60649 55.219582 
L 369.63812 54.455036 
L 371.263425 53.884305 
L 372.482403 53.69168 
L 373.701381 53.767215 
L 374.92036 54.078017 
L 378.577294 55.279007 
L 379.796273 55.323113 
L 381.015251 55.109197 
L 382.640555 54.537098 
L 384.672186 53.80906 
L 385.891164 53.601346 
L 387.110142 53.672472 
L 388.32912 53.984736 
L 391.986055 55.220621 
L 393.205034 55.285395 
L 394.424012 55.078698 
L 396.049316 54.500034 
L 398.080947 53.754167 
L 398.487273 53.655567 
L 398.487273 53.655567 
" style="fill:none;stroke:#ff0000;stroke-linecap:square;stroke-width:1.5;"/>
   </g>
   <g id="line2d_17">
    <path clip-path="url(#p50d81b5fc5)" d="M 73.832727 292.780776 
L 75.864358 294.591065 
L 76.67701 295.040208 
L 77.489662 295.220189 
L 78.302314 295.107056 
L 79.114966 294.719842 
L 80.333945 293.75966 
L 82.771901 291.634426 
L 83.584553 291.242183 
L 84.397206 291.124558 
L 85.209858 291.294746 
L 86.02251 291.732646 
L 87.241488 292.741509 
L 89.273119 294.543204 
L 90.085771 294.990631 
L 90.898423 295.189244 
L 91.711075 295.10185 
L 92.523727 294.733017 
L 93.742706 293.791966 
L 95.774336 291.969346 
L 96.586988 291.465067 
L 97.39964 291.196947 
L 98.212293 291.201444 
L 99.024945 291.485225 
L 99.837597 292.013649 
L 101.462901 293.46506 
L 103.494532 295.180983 
L 103.900858 295.457798 
L 104.71351 295.41785 
L 105.526162 295.076428 
L 106.338814 294.468054 
L 109.995749 291.130542 
L 110.402075 290.9605 
L 110.808401 291.120421 
L 111.621054 291.164903 
L 112.433706 291.486191 
L 112.840032 291.744984 
L 113.652684 292.529922 
L 116.090641 294.6102 
L 116.903293 295.011765 
L 117.715945 295.164027 
L 118.528597 295.015774 
L 119.341249 294.60723 
L 120.560228 293.630714 
L 122.591858 291.862407 
L 123.40451 291.402914 
L 124.217162 291.190425 
L 125.029815 291.26256 
L 125.842467 291.601852 
L 127.061445 292.510862 
L 129.499402 294.595571 
L 130.312054 295.001643 
L 131.124706 295.144833 
L 131.937358 295.007349 
L 132.75001 294.608152 
L 133.968989 293.647217 
L 136.000619 291.889505 
L 136.813271 291.421647 
L 137.625923 291.201391 
L 138.438575 291.263784 
L 139.251228 291.598896 
L 140.06388 292.155705 
L 143.314489 294.814237 
L 144.127141 295.093166 
L 144.939793 295.101504 
L 145.752445 294.835847 
L 146.565097 294.330201 
L 148.190402 292.922778 
L 149.40938 291.909994 
L 150.222032 291.435804 
L 151.034684 291.222276 
L 151.847336 291.277206 
L 152.659989 291.604427 
L 153.878967 292.484908 
L 156.316923 294.543053 
L 157.129576 294.956701 
L 157.942228 295.11496 
L 158.75488 294.995393 
L 159.567532 294.612382 
L 160.78651 293.681017 
L 162.818141 291.961722 
L 163.630793 291.475235 
L 164.443445 291.234565 
L 165.256097 291.274386 
L 166.06875 291.582959 
L 167.287728 292.462337 
L 170.13201 294.746614 
L 170.944663 295.048768 
L 171.757315 295.082845 
L 172.569967 294.848056 
L 173.382619 294.367932 
L 175.007924 292.996114 
L 176.226902 291.983382 
L 177.039554 291.50061 
L 177.852206 291.257584 
L 178.664858 291.283021 
L 179.477511 291.579208 
L 180.290163 292.102598 
L 182.321793 293.852581 
L 183.540771 294.720943 
L 184.353424 295.034236 
L 185.166076 295.085744 
L 185.978728 294.860634 
L 186.79138 294.391906 
L 188.010358 293.388725 
L 189.635663 292.008275 
L 190.448315 291.523751 
L 191.260967 291.292516 
L 192.073619 291.320249 
L 192.886271 291.582845 
L 193.698924 292.084033 
L 195.324228 293.462296 
L 196.543206 294.427278 
L 197.355858 294.862242 
L 198.168511 295.046796 
L 198.981163 294.957861 
L 199.793815 294.609914 
L 201.012793 293.74249 
L 203.45075 291.771336 
L 204.263402 291.415189 
L 205.076054 291.310255 
L 205.888706 291.462474 
L 206.701359 291.858846 
L 207.920337 292.786265 
L 209.951967 294.433263 
L 210.764619 294.856816 
L 211.577272 295.040331 
L 212.389924 294.950439 
L 213.202576 294.603811 
L 214.421554 293.720638 
L 216.859511 291.770653 
L 217.672163 291.405628 
L 218.484815 291.29146 
L 219.297467 291.445377 
L 220.110119 291.846612 
L 221.329098 292.775111 
L 223.360728 294.427966 
L 224.17338 294.854492 
L 224.986033 295.03823 
L 225.798685 294.953412 
L 226.611337 294.61461 
L 227.830315 293.738462 
L 230.268272 291.780353 
L 231.080924 291.409764 
L 231.893576 291.289966 
L 232.706228 291.43569 
L 233.51888 291.828977 
L 234.737859 292.753232 
L 236.769489 294.414782 
L 237.582141 294.850801 
L 238.394793 295.040829 
L 239.207446 294.961488 
L 240.020098 294.629513 
L 241.239076 293.764022 
L 243.677033 291.802967 
L 244.489685 291.42617 
L 245.302337 291.296297 
L 246.114989 291.435627 
L 246.927641 291.820893 
L 248.14662 292.7312 
L 250.17825 294.386935 
L 250.990902 294.821803 
L 251.803554 295.024076 
L 252.616207 294.958422 
L 253.428859 294.618829 
L 254.647837 293.766006 
L 257.085794 291.833071 
L 257.898446 291.457399 
L 258.711098 291.327623 
L 259.52375 291.459286 
L 260.336402 291.833294 
L 261.555381 292.72534 
L 263.587011 294.363784 
L 264.399663 294.79177 
L 265.212315 294.972086 
L 266.024968 294.908441 
L 266.83762 294.599495 
L 268.056598 293.779889 
L 270.494555 291.882818 
L 271.307207 291.506175 
L 272.119859 291.368003 
L 272.932511 291.486092 
L 273.745163 291.843076 
L 274.964142 292.697431 
L 276.995772 294.311304 
L 277.808424 294.735748 
L 278.621076 294.944906 
L 279.433729 294.897185 
L 280.246381 294.609038 
L 281.465359 293.807316 
L 283.903316 291.908225 
L 284.715968 291.524537 
L 285.52862 291.377187 
L 286.341272 291.482504 
L 287.153924 291.82857 
L 288.372902 292.681478 
L 290.404533 294.281603 
L 291.217185 294.720561 
L 292.029837 294.937664 
L 292.842489 294.896914 
L 293.655142 294.614639 
L 294.467794 294.124087 
L 297.718403 291.713709 
L 298.531055 291.4389 
L 299.343707 291.413808 
L 300.156359 291.637745 
L 300.969011 292.079286 
L 302.594316 293.338641 
L 303.813294 294.264362 
L 304.625946 294.700748 
L 305.438598 294.9185 
L 306.25125 294.884447 
L 307.063903 294.606005 
L 308.282881 293.822977 
L 310.720837 291.950451 
L 311.53349 291.560834 
L 312.346142 291.399477 
L 313.158794 291.493418 
L 313.971446 291.826695 
L 315.190424 292.657938 
L 317.222055 294.237856 
L 318.441033 294.821707 
L 319.253685 294.927625 
L 320.066337 294.780218 
L 320.87899 294.397795 
L 322.504294 293.191541 
L 324.129598 291.962261 
L 324.942251 291.576683 
L 325.754903 291.418512 
L 326.567555 291.497798 
L 327.380207 291.841166 
L 328.599185 292.665391 
L 329.411838 293.432805 
L 330.630816 294.316933 
L 331.443468 294.712662 
L 332.25612 294.890856 
L 333.068772 294.816316 
L 333.881425 294.51059 
L 335.100403 293.71133 
L 337.538359 291.898685 
L 338.351011 291.549323 
L 339.163664 291.426516 
L 339.976316 291.562644 
L 340.788968 291.927746 
L 342.007946 292.777787 
L 344.039577 294.319485 
L 344.852229 294.721251 
L 345.664881 294.901493 
L 346.477533 294.827659 
L 347.290185 294.5162 
L 348.509164 293.713367 
L 350.94712 291.885249 
L 351.759772 291.535884 
L 352.572425 291.425868 
L 353.385077 291.558027 
L 354.197729 291.922039 
L 355.416707 292.786675 
L 357.448338 294.327739 
L 358.26099 294.720465 
L 359.073642 294.885618 
L 359.886294 294.817372 
L 360.698946 294.512472 
L 361.917925 293.722207 
L 364.355881 291.92213 
L 365.168533 291.573105 
L 365.981186 291.449011 
L 366.793838 291.571466 
L 367.60649 291.932654 
L 368.825468 292.771344 
L 370.857099 294.302624 
L 371.669751 294.702471 
L 372.482403 294.88052 
L 373.295055 294.817809 
L 374.107707 294.524349 
L 375.326686 293.753776 
L 377.764642 291.944535 
L 378.577294 291.582644 
L 379.389947 291.446936 
L 380.202599 291.560953 
L 381.015251 291.891981 
L 382.234229 292.701796 
L 384.26586 294.225481 
L 385.078512 294.643879 
L 385.891164 294.858378 
L 386.703816 294.834222 
L 387.516468 294.583024 
L 388.735447 293.817652 
L 391.173403 291.975923 
L 391.986055 291.598591 
L 392.798707 291.440646 
L 393.61136 291.527127 
L 394.424012 291.849232 
L 395.64299 292.662987 
L 398.080947 294.453316 
L 398.487273 294.650885 
L 398.487273 294.650885 
" style="fill:none;stroke:#008000;stroke-linecap:square;stroke-width:1.5;"/>
   </g>
   <g id="patch_3">
    <path d="M 57.6 307.584 
L 57.6 41.472 
" style="fill:none;stroke:#000000;stroke-linecap:square;stroke-linejoin:miter;stroke-width:0.8;"/>
   </g>
   <g id="patch_4">
    <path d="M 414.72 307.584 
L 414.72 41.472 
" style="fill:none;stroke:#000000;stroke-linecap:square;stroke-linejoin:miter;stroke-width:0.8;"/>
   </g>
   <g id="patch_5">
    <path d="M 57.6 307.584 
L 414.72 307.584 
" style="fill:none;stroke:#000000;stroke-linecap:square;stroke-linejoin:miter;stroke-width:0.8;"/>
   </g>
   <g id="patch_6">
    <path d="M 57.6 41.472 
L 414.72 41.472 
" style="fill:none;stroke:#000000;stroke-linecap:square;stroke-linejoin:miter;stroke-width:0.8;"/>
   </g>
   <g id="legend_1">
    <g id="patch_7">
     <path d="M 351.0075 198.045187 
L 407.72 198.045187 
Q 409.72 198.045187 409.72 196.045187 
L 409.72 153.010812 
Q 409.72 151.010812 407.72 151.010812 
L 351.0075 151.010812 
Q 349.0075 151.010812 349.0075 153.010812 
L 349.0075 196.045187 
Q 349.0075 198.045187 351.0075 198.045187 
z
" style="fill:#ffffff;opacity:0.8;stroke:#cccccc;stroke-linejoin:miter;"/>
    </g>
    <g id="line2d_18">
     <path d="M 353.0075 159.10925 
L 373.0075 159.10925 
" style="fill:none;stroke:#1f77b4;stroke-linecap:square;stroke-width:1.5;"/>
    </g>
    <g id="line2d_19"/>
    <g id="text_15">
     <!-- 0-&gt;1 -->
     <defs>
      <path d="M 4.890625 31.390625 
L 31.203125 31.390625 
L 31.203125 23.390625 
L 4.890625 23.390625 
z
" id="DejaVuSans-45"/>
      <path d="M 10.59375 49.21875 
L 10.59375 58.109375 
L 73.1875 35.40625 
L 73.1875 27.296875 
L 10.59375 4.59375 
L 10.59375 13.484375 
L 60.890625 31.296875 
z
" id="DejaVuSans-62"/>
     </defs>
     <g transform="translate(381.0075 162.60925)scale(0.1 -0.1)">
      <use xlink:href="#DejaVuSans-48"/>
      <use x="63.623047" xlink:href="#DejaVuSans-45"/>
      <use x="99.707031" xlink:href="#DejaVuSans-62"/>
      <use x="183.496094" xlink:href="#DejaVuSans-49"/>
     </g>
    </g>
    <g id="line2d_20">
     <path d="M 353.0075 173.787375 
L 373.0075 173.787375 
" style="fill:none;stroke:#ff0000;stroke-linecap:square;stroke-width:1.5;"/>
    </g>
    <g id="line2d_21"/>
    <g id="text_16">
     <!-- 1-&gt;0 -->
     <g transform="translate(381.0075 177.287375)scale(0.1 -0.1)">
      <use xlink:href="#DejaVuSans-49"/>
      <use x="63.623047" xlink:href="#DejaVuSans-45"/>
      <use x="99.707031" xlink:href="#DejaVuSans-62"/>
      <use x="183.496094" xlink:href="#DejaVuSans-48"/>
     </g>
    </g>
    <g id="line2d_22">
     <path d="M 353.0075 188.4655 
L 373.0075 188.4655 
" style="fill:none;stroke:#008000;stroke-linecap:square;stroke-width:1.5;"/>
    </g>
    <g id="line2d_23"/>
    <g id="text_17">
     <!-- diff -->
     <defs>
      <path d="M 45.40625 46.390625 
L 45.40625 75.984375 
L 54.390625 75.984375 
L 54.390625 0 
L 45.40625 0 
L 45.40625 8.203125 
Q 42.578125 3.328125 38.25 0.953125 
Q 33.9375 -1.421875 27.875 -1.421875 
Q 17.96875 -1.421875 11.734375 6.484375 
Q 5.515625 14.40625 5.515625 27.296875 
Q 5.515625 40.1875 11.734375 48.09375 
Q 17.96875 56 27.875 56 
Q 33.9375 56 38.25 53.625 
Q 42.578125 51.265625 45.40625 46.390625 
z
M 14.796875 27.296875 
Q 14.796875 17.390625 18.875 11.75 
Q 22.953125 6.109375 30.078125 6.109375 
Q 37.203125 6.109375 41.296875 11.75 
Q 45.40625 17.390625 45.40625 27.296875 
Q 45.40625 37.203125 41.296875 42.84375 
Q 37.203125 48.484375 30.078125 48.484375 
Q 22.953125 48.484375 18.875 42.84375 
Q 14.796875 37.203125 14.796875 27.296875 
z
" id="DejaVuSans-100"/>
      <path d="M 9.421875 54.6875 
L 18.40625 54.6875 
L 18.40625 0 
L 9.421875 0 
z
M 9.421875 75.984375 
L 18.40625 75.984375 
L 18.40625 64.59375 
L 9.421875 64.59375 
z
" id="DejaVuSans-105"/>
      <path d="M 37.109375 75.984375 
L 37.109375 68.5 
L 28.515625 68.5 
Q 23.6875 68.5 21.796875 66.546875 
Q 19.921875 64.59375 19.921875 59.515625 
L 19.921875 54.6875 
L 34.71875 54.6875 
L 34.71875 47.703125 
L 19.921875 47.703125 
L 19.921875 0 
L 10.890625 0 
L 10.890625 47.703125 
L 2.296875 47.703125 
L 2.296875 54.6875 
L 10.890625 54.6875 
L 10.890625 58.5 
Q 10.890625 67.625 15.140625 71.796875 
Q 19.390625 75.984375 28.609375 75.984375 
z
" id="DejaVuSans-102"/>
     </defs>
     <g transform="translate(381.0075 191.9655)scale(0.1 -0.1)">
      <use xlink:href="#DejaVuSans-100"/>
      <use x="63.476562" xlink:href="#DejaVuSans-105"/>
      <use x="91.259766" xlink:href="#DejaVuSans-102"/>
      <use x="126.464844" xlink:href="#DejaVuSans-102"/>
     </g>
    </g>
   </g>
  </g>
 </g>
 <defs>
  <clipPath id="p50d81b5fc5">
   <rect height="266.112" width="357.12" x="57.6" y="41.472"/>
  </clipPath>
 </defs>
</svg>
