<?xml version="1.0" encoding="utf-8" standalone="no"?>
<!DOCTYPE svg PUBLIC "-//W3C//DTD SVG 1.1//EN"
  "http://www.w3.org/Graphics/SVG/1.1/DTD/svg11.dtd">
<!-- Created with matplotlib (https://matplotlib.org/) -->
<svg height="345.6pt" version="1.1" viewBox="0 0 460.8 345.6" width="460.8pt" xmlns="http://www.w3.org/2000/svg" xmlns:xlink="http://www.w3.org/1999/xlink">
 <defs>
  <style type="text/css">
*{stroke-linecap:butt;stroke-linejoin:round;}
  </style>
 </defs>
 <g id="figure_1">
  <g id="patch_1">
   <path d="M 0 345.6 
L 460.8 345.6 
L 460.8 0 
L 0 0 
z
" style="fill:#ffffff;"/>
  </g>
  <g id="axes_1">
   <g id="patch_2">
    <path d="M 57.6 307.584 
L 414.72 307.584 
L 414.72 41.472 
L 57.6 41.472 
z
" style="fill:#ffffff;"/>
   </g>
   <g id="matplotlib.axis_1">
    <g id="xtick_1">
     <g id="line2d_1">
      <defs>
       <path d="M 0 0 
L 0 3.5 
" id="m3d3ee9b331" style="stroke:#000000;stroke-width:0.8;"/>
      </defs>
      <g>
       <use style="stroke:#000000;stroke-width:0.8;" x="73.832727" xlink:href="#m3d3ee9b331" y="307.584"/>
      </g>
     </g>
     <g id="text_1">
      <!-- 0 -->
      <defs>
       <path d="M 31.78125 66.40625 
Q 24.171875 66.40625 20.328125 58.90625 
Q 16.5 51.421875 16.5 36.375 
Q 16.5 21.390625 20.328125 13.890625 
Q 24.171875 6.390625 31.78125 6.390625 
Q 39.453125 6.390625 43.28125 13.890625 
Q 47.125 21.390625 47.125 36.375 
Q 47.125 51.421875 43.28125 58.90625 
Q 39.453125 66.40625 31.78125 66.40625 
z
M 31.78125 74.21875 
Q 44.046875 74.21875 50.515625 64.515625 
Q 56.984375 54.828125 56.984375 36.375 
Q 56.984375 17.96875 50.515625 8.265625 
Q 44.046875 -1.421875 31.78125 -1.421875 
Q 19.53125 -1.421875 13.0625 8.265625 
Q 6.59375 17.96875 6.59375 36.375 
Q 6.59375 54.828125 13.0625 64.515625 
Q 19.53125 74.21875 31.78125 74.21875 
z
" id="DejaVuSans-48"/>
      </defs>
      <g transform="translate(70.651477 322.182437)scale(0.1 -0.1)">
       <use xlink:href="#DejaVuSans-48"/>
      </g>
     </g>
    </g>
    <g id="xtick_2">
     <g id="line2d_2">
      <g>
       <use style="stroke:#000000;stroke-width:0.8;" x="114.465336" xlink:href="#m3d3ee9b331" y="307.584"/>
      </g>
     </g>
     <g id="text_2">
      <!-- 100 -->
      <defs>
       <path d="M 12.40625 8.296875 
L 28.515625 8.296875 
L 28.515625 63.921875 
L 10.984375 60.40625 
L 10.984375 69.390625 
L 28.421875 72.90625 
L 38.28125 72.90625 
L 38.28125 8.296875 
L 54.390625 8.296875 
L 54.390625 0 
L 12.40625 0 
z
" id="DejaVuSans-49"/>
      </defs>
      <g transform="translate(104.921586 322.182437)scale(0.1 -0.1)">
       <use xlink:href="#DejaVuSans-49"/>
       <use x="63.623047" xlink:href="#DejaVuSans-48"/>
       <use x="127.246094" xlink:href="#DejaVuSans-48"/>
      </g>
     </g>
    </g>
    <g id="xtick_3">
     <g id="line2d_3">
      <g>
       <use style="stroke:#000000;stroke-width:0.8;" x="155.097945" xlink:href="#m3d3ee9b331" y="307.584"/>
      </g>
     </g>
     <g id="text_3">
      <!-- 200 -->
      <defs>
       <path d="M 19.1875 8.296875 
L 53.609375 8.296875 
L 53.609375 0 
L 7.328125 0 
L 7.328125 8.296875 
Q 12.9375 14.109375 22.625 23.890625 
Q 32.328125 33.6875 34.8125 36.53125 
Q 39.546875 41.84375 41.421875 45.53125 
Q 43.3125 49.21875 43.3125 52.78125 
Q 43.3125 58.59375 39.234375 62.25 
Q 35.15625 65.921875 28.609375 65.921875 
Q 23.96875 65.921875 18.8125 64.3125 
Q 13.671875 62.703125 7.8125 59.421875 
L 7.8125 69.390625 
Q 13.765625 71.78125 18.9375 73 
Q 24.125 74.21875 28.421875 74.21875 
Q 39.75 74.21875 46.484375 68.546875 
Q 53.21875 62.890625 53.21875 53.421875 
Q 53.21875 48.921875 51.53125 44.890625 
Q 49.859375 40.875 45.40625 35.40625 
Q 44.1875 33.984375 37.640625 27.21875 
Q 31.109375 20.453125 19.1875 8.296875 
z
" id="DejaVuSans-50"/>
      </defs>
      <g transform="translate(145.554195 322.182437)scale(0.1 -0.1)">
       <use xlink:href="#DejaVuSans-50"/>
       <use x="63.623047" xlink:href="#DejaVuSans-48"/>
       <use x="127.246094" xlink:href="#DejaVuSans-48"/>
      </g>
     </g>
    </g>
    <g id="xtick_4">
     <g id="line2d_4">
      <g>
       <use style="stroke:#000000;stroke-width:0.8;" x="195.730554" xlink:href="#m3d3ee9b331" y="307.584"/>
      </g>
     </g>
     <g id="text_4">
      <!-- 300 -->
      <defs>
       <path d="M 40.578125 39.3125 
Q 47.65625 37.796875 51.625 33 
Q 55.609375 28.21875 55.609375 21.1875 
Q 55.609375 10.40625 48.1875 4.484375 
Q 40.765625 -1.421875 27.09375 -1.421875 
Q 22.515625 -1.421875 17.65625 -0.515625 
Q 12.796875 0.390625 7.625 2.203125 
L 7.625 11.71875 
Q 11.71875 9.328125 16.59375 8.109375 
Q 21.484375 6.890625 26.8125 6.890625 
Q 36.078125 6.890625 40.9375 10.546875 
Q 45.796875 14.203125 45.796875 21.1875 
Q 45.796875 27.640625 41.28125 31.265625 
Q 36.765625 34.90625 28.71875 34.90625 
L 20.21875 34.90625 
L 20.21875 43.015625 
L 29.109375 43.015625 
Q 36.375 43.015625 40.234375 45.921875 
Q 44.09375 48.828125 44.09375 54.296875 
Q 44.09375 59.90625 40.109375 62.90625 
Q 36.140625 65.921875 28.71875 65.921875 
Q 24.65625 65.921875 20.015625 65.03125 
Q 15.375 64.15625 9.8125 62.3125 
L 9.8125 71.09375 
Q 15.4375 72.65625 20.34375 73.4375 
Q 25.25 74.21875 29.59375 74.21875 
Q 40.828125 74.21875 47.359375 69.109375 
Q 53.90625 64.015625 53.90625 55.328125 
Q 53.90625 49.265625 50.4375 45.09375 
Q 46.96875 40.921875 40.578125 39.3125 
z
" id="DejaVuSans-51"/>
      </defs>
      <g transform="translate(186.186804 322.182437)scale(0.1 -0.1)">
       <use xlink:href="#DejaVuSans-51"/>
       <use x="63.623047" xlink:href="#DejaVuSans-48"/>
       <use x="127.246094" xlink:href="#DejaVuSans-48"/>
      </g>
     </g>
    </g>
    <g id="xtick_5">
     <g id="line2d_5">
      <g>
       <use style="stroke:#000000;stroke-width:0.8;" x="236.363163" xlink:href="#m3d3ee9b331" y="307.584"/>
      </g>
     </g>
     <g id="text_5">
      <!-- 400 -->
      <defs>
       <path d="M 37.796875 64.3125 
L 12.890625 25.390625 
L 37.796875 25.390625 
z
M 35.203125 72.90625 
L 47.609375 72.90625 
L 47.609375 25.390625 
L 58.015625 25.390625 
L 58.015625 17.1875 
L 47.609375 17.1875 
L 47.609375 0 
L 37.796875 0 
L 37.796875 17.1875 
L 4.890625 17.1875 
L 4.890625 26.703125 
z
" id="DejaVuSans-52"/>
      </defs>
      <g transform="translate(226.819413 322.182437)scale(0.1 -0.1)">
       <use xlink:href="#DejaVuSans-52"/>
       <use x="63.623047" xlink:href="#DejaVuSans-48"/>
       <use x="127.246094" xlink:href="#DejaVuSans-48"/>
      </g>
     </g>
    </g>
    <g id="xtick_6">
     <g id="line2d_6">
      <g>
       <use style="stroke:#000000;stroke-width:0.8;" x="276.995772" xlink:href="#m3d3ee9b331" y="307.584"/>
      </g>
     </g>
     <g id="text_6">
      <!-- 500 -->
      <defs>
       <path d="M 10.796875 72.90625 
L 49.515625 72.90625 
L 49.515625 64.59375 
L 19.828125 64.59375 
L 19.828125 46.734375 
Q 21.96875 47.46875 24.109375 47.828125 
Q 26.265625 48.1875 28.421875 48.1875 
Q 40.625 48.1875 47.75 41.5 
Q 54.890625 34.8125 54.890625 23.390625 
Q 54.890625 11.625 47.5625 5.09375 
Q 40.234375 -1.421875 26.90625 -1.421875 
Q 22.3125 -1.421875 17.546875 -0.640625 
Q 12.796875 0.140625 7.71875 1.703125 
L 7.71875 11.625 
Q 12.109375 9.234375 16.796875 8.0625 
Q 21.484375 6.890625 26.703125 6.890625 
Q 35.15625 6.890625 40.078125 11.328125 
Q 45.015625 15.765625 45.015625 23.390625 
Q 45.015625 31 40.078125 35.4375 
Q 35.15625 39.890625 26.703125 39.890625 
Q 22.75 39.890625 18.8125 39.015625 
Q 14.890625 38.140625 10.796875 36.28125 
z
" id="DejaVuSans-53"/>
      </defs>
      <g transform="translate(267.452022 322.182437)scale(0.1 -0.1)">
       <use xlink:href="#DejaVuSans-53"/>
       <use x="63.623047" xlink:href="#DejaVuSans-48"/>
       <use x="127.246094" xlink:href="#DejaVuSans-48"/>
      </g>
     </g>
    </g>
    <g id="xtick_7">
     <g id="line2d_7">
      <g>
       <use style="stroke:#000000;stroke-width:0.8;" x="317.628381" xlink:href="#m3d3ee9b331" y="307.584"/>
      </g>
     </g>
     <g id="text_7">
      <!-- 600 -->
      <defs>
       <path d="M 33.015625 40.375 
Q 26.375 40.375 22.484375 35.828125 
Q 18.609375 31.296875 18.609375 23.390625 
Q 18.609375 15.53125 22.484375 10.953125 
Q 26.375 6.390625 33.015625 6.390625 
Q 39.65625 6.390625 43.53125 10.953125 
Q 47.40625 15.53125 47.40625 23.390625 
Q 47.40625 31.296875 43.53125 35.828125 
Q 39.65625 40.375 33.015625 40.375 
z
M 52.59375 71.296875 
L 52.59375 62.3125 
Q 48.875 64.0625 45.09375 64.984375 
Q 41.3125 65.921875 37.59375 65.921875 
Q 27.828125 65.921875 22.671875 59.328125 
Q 17.53125 52.734375 16.796875 39.40625 
Q 19.671875 43.65625 24.015625 45.921875 
Q 28.375 48.1875 33.59375 48.1875 
Q 44.578125 48.1875 50.953125 41.515625 
Q 57.328125 34.859375 57.328125 23.390625 
Q 57.328125 12.15625 50.6875 5.359375 
Q 44.046875 -1.421875 33.015625 -1.421875 
Q 20.359375 -1.421875 13.671875 8.265625 
Q 6.984375 17.96875 6.984375 36.375 
Q 6.984375 53.65625 15.1875 63.9375 
Q 23.390625 74.21875 37.203125 74.21875 
Q 40.921875 74.21875 44.703125 73.484375 
Q 48.484375 72.75 52.59375 71.296875 
z
" id="DejaVuSans-54"/>
      </defs>
      <g transform="translate(308.084631 322.182437)scale(0.1 -0.1)">
       <use xlink:href="#DejaVuSans-54"/>
       <use x="63.623047" xlink:href="#DejaVuSans-48"/>
       <use x="127.246094" xlink:href="#DejaVuSans-48"/>
      </g>
     </g>
    </g>
    <g id="xtick_8">
     <g id="line2d_8">
      <g>
       <use style="stroke:#000000;stroke-width:0.8;" x="358.26099" xlink:href="#m3d3ee9b331" y="307.584"/>
      </g>
     </g>
     <g id="text_8">
      <!-- 700 -->
      <defs>
       <path d="M 8.203125 72.90625 
L 55.078125 72.90625 
L 55.078125 68.703125 
L 28.609375 0 
L 18.3125 0 
L 43.21875 64.59375 
L 8.203125 64.59375 
z
" id="DejaVuSans-55"/>
      </defs>
      <g transform="translate(348.71724 322.182437)scale(0.1 -0.1)">
       <use xlink:href="#DejaVuSans-55"/>
       <use x="63.623047" xlink:href="#DejaVuSans-48"/>
       <use x="127.246094" xlink:href="#DejaVuSans-48"/>
      </g>
     </g>
    </g>
    <g id="xtick_9">
     <g id="line2d_9">
      <g>
       <use style="stroke:#000000;stroke-width:0.8;" x="398.893599" xlink:href="#m3d3ee9b331" y="307.584"/>
      </g>
     </g>
     <g id="text_9">
      <!-- 800 -->
      <defs>
       <path d="M 31.78125 34.625 
Q 24.75 34.625 20.71875 30.859375 
Q 16.703125 27.09375 16.703125 20.515625 
Q 16.703125 13.921875 20.71875 10.15625 
Q 24.75 6.390625 31.78125 6.390625 
Q 38.8125 6.390625 42.859375 10.171875 
Q 46.921875 13.96875 46.921875 20.515625 
Q 46.921875 27.09375 42.890625 30.859375 
Q 38.875 34.625 31.78125 34.625 
z
M 21.921875 38.8125 
Q 15.578125 40.375 12.03125 44.71875 
Q 8.5 49.078125 8.5 55.328125 
Q 8.5 64.0625 14.71875 69.140625 
Q 20.953125 74.21875 31.78125 74.21875 
Q 42.671875 74.21875 48.875 69.140625 
Q 55.078125 64.0625 55.078125 55.328125 
Q 55.078125 49.078125 51.53125 44.71875 
Q 48 40.375 41.703125 38.8125 
Q 48.828125 37.15625 52.796875 32.3125 
Q 56.78125 27.484375 56.78125 20.515625 
Q 56.78125 9.90625 50.3125 4.234375 
Q 43.84375 -1.421875 31.78125 -1.421875 
Q 19.734375 -1.421875 13.25 4.234375 
Q 6.78125 9.90625 6.78125 20.515625 
Q 6.78125 27.484375 10.78125 32.3125 
Q 14.796875 37.15625 21.921875 38.8125 
z
M 18.3125 54.390625 
Q 18.3125 48.734375 21.84375 45.5625 
Q 25.390625 42.390625 31.78125 42.390625 
Q 38.140625 42.390625 41.71875 45.5625 
Q 45.3125 48.734375 45.3125 54.390625 
Q 45.3125 60.0625 41.71875 63.234375 
Q 38.140625 66.40625 31.78125 66.40625 
Q 25.390625 66.40625 21.84375 63.234375 
Q 18.3125 60.0625 18.3125 54.390625 
z
" id="DejaVuSans-56"/>
      </defs>
      <g transform="translate(389.349849 322.182437)scale(0.1 -0.1)">
       <use xlink:href="#DejaVuSans-56"/>
       <use x="63.623047" xlink:href="#DejaVuSans-48"/>
       <use x="127.246094" xlink:href="#DejaVuSans-48"/>
      </g>
     </g>
    </g>
   </g>
   <g id="matplotlib.axis_2">
    <g id="ytick_1">
     <g id="line2d_10">
      <defs>
       <path d="M 0 0 
L -3.5 0 
" id="m5333008dbf" style="stroke:#000000;stroke-width:0.8;"/>
      </defs>
      <g>
       <use style="stroke:#000000;stroke-width:0.8;" x="57.6" xlink:href="#m5333008dbf" y="293.410044"/>
      </g>
     </g>
     <g id="text_10">
      <!-- 0.0 -->
      <defs>
       <path d="M 10.6875 12.40625 
L 21 12.40625 
L 21 0 
L 10.6875 0 
z
" id="DejaVuSans-46"/>
      </defs>
      <g transform="translate(34.696875 297.209263)scale(0.1 -0.1)">
       <use xlink:href="#DejaVuSans-48"/>
       <use x="63.623047" xlink:href="#DejaVuSans-46"/>
       <use x="95.410156" xlink:href="#DejaVuSans-48"/>
      </g>
     </g>
    </g>
    <g id="ytick_2">
     <g id="line2d_11">
      <g>
       <use style="stroke:#000000;stroke-width:0.8;" x="57.6" xlink:href="#m5333008dbf" y="240.223146"/>
      </g>
     </g>
     <g id="text_11">
      <!-- 0.1 -->
      <g transform="translate(34.696875 244.022364)scale(0.1 -0.1)">
       <use xlink:href="#DejaVuSans-48"/>
       <use x="63.623047" xlink:href="#DejaVuSans-46"/>
       <use x="95.410156" xlink:href="#DejaVuSans-49"/>
      </g>
     </g>
    </g>
    <g id="ytick_3">
     <g id="line2d_12">
      <g>
       <use style="stroke:#000000;stroke-width:0.8;" x="57.6" xlink:href="#m5333008dbf" y="187.036247"/>
      </g>
     </g>
     <g id="text_12">
      <!-- 0.2 -->
      <g transform="translate(34.696875 190.835466)scale(0.1 -0.1)">
       <use xlink:href="#DejaVuSans-48"/>
       <use x="63.623047" xlink:href="#DejaVuSans-46"/>
       <use x="95.410156" xlink:href="#DejaVuSans-50"/>
      </g>
     </g>
    </g>
    <g id="ytick_4">
     <g id="line2d_13">
      <g>
       <use style="stroke:#000000;stroke-width:0.8;" x="57.6" xlink:href="#m5333008dbf" y="133.849349"/>
      </g>
     </g>
     <g id="text_13">
      <!-- 0.3 -->
      <g transform="translate(34.696875 137.648568)scale(0.1 -0.1)">
       <use xlink:href="#DejaVuSans-48"/>
       <use x="63.623047" xlink:href="#DejaVuSans-46"/>
       <use x="95.410156" xlink:href="#DejaVuSans-51"/>
      </g>
     </g>
    </g>
    <g id="ytick_5">
     <g id="line2d_14">
      <g>
       <use style="stroke:#000000;stroke-width:0.8;" x="57.6" xlink:href="#m5333008dbf" y="80.662451"/>
      </g>
     </g>
     <g id="text_14">
      <!-- 0.4 -->
      <g transform="translate(34.696875 84.461669)scale(0.1 -0.1)">
       <use xlink:href="#DejaVuSans-48"/>
       <use x="63.623047" xlink:href="#DejaVuSans-46"/>
       <use x="95.410156" xlink:href="#DejaVuSans-52"/>
      </g>
     </g>
    </g>
   </g>
   <g id="line2d_15">
    <path clip-path="url(#p46f7648d76)" d="M 73.832727 54.726035 
L 76.67701 53.736677 
L 77.895988 53.568 
L 79.114966 53.661152 
L 80.333945 53.994378 
L 83.99088 55.200863 
L 85.209858 55.247324 
L 86.428836 55.012686 
L 89.273119 53.982771 
L 90.492097 53.688273 
L 91.711075 53.621048 
L 92.930053 53.812738 
L 94.555358 54.337453 
L 96.586988 55.011332 
L 97.805967 55.200165 
L 99.024945 55.135711 
L 100.243923 54.848084 
L 103.900858 53.758146 
L 105.119836 53.717946 
L 106.338814 53.919143 
L 107.964119 54.443766 
L 109.183097 54.903991 
L 110.402075 55.201854 
L 111.621054 55.274638 
L 112.840032 55.101617 
L 114.871662 54.460294 
L 116.090641 54.160281 
L 117.309619 53.922671 
L 118.528597 53.853598 
L 119.747575 54.007924 
L 124.623488 55.185322 
L 125.842467 55.120721 
L 127.874097 54.62991 
L 130.312054 53.962755 
L 131.531032 53.852731 
L 132.75001 53.956606 
L 133.562662 54.13205 
L 133.968989 54.516475 
L 136.813271 55.268657 
L 138.032249 55.350709 
L 139.251228 55.225077 
L 140.876532 54.816334 
L 143.314489 54.154357 
L 144.533467 54.030591 
L 145.752445 54.106857 
L 147.377749 54.494969 
L 150.222032 55.251824 
L 151.44101 55.345852 
L 152.659989 55.234363 
L 154.691619 54.734304 
L 156.72325 54.214398 
L 157.942228 54.082342 
L 159.161206 54.160887 
L 160.380184 54.428724 
L 163.224467 55.234218 
L 164.443445 55.386268 
L 165.662423 55.339872 
L 167.287728 55.010472 
L 170.538337 54.215916 
L 171.757315 54.163963 
L 172.976293 54.304748 
L 175.007924 54.828166 
L 177.039554 55.309792 
L 178.258532 55.403008 
L 179.477511 55.304437 
L 181.102815 54.948762 
L 183.947098 54.24961 
L 185.166076 54.187164 
L 186.385054 54.321436 
L 187.604032 54.662293 
L 190.041989 55.275753 
L 191.667293 55.476854 
L 192.886271 55.393871 
L 194.917902 54.906469 
L 197.355858 54.298428 
L 198.574837 54.229876 
L 199.793815 54.365509 
L 201.825445 54.854789 
L 203.857076 55.338205 
L 205.076054 55.443654 
L 206.295032 55.361196 
L 207.920337 55.016422 
L 210.764619 54.354621 
L 211.983598 54.285987 
L 213.202576 54.407345 
L 215.234206 54.89774 
L 217.265837 55.39386 
L 218.484815 55.499143 
L 219.703793 55.410149 
L 221.329098 55.048018 
L 224.17338 54.367111 
L 225.798685 54.325412 
L 227.423989 54.596701 
L 231.48725 55.514386 
L 232.706228 55.500134 
L 234.331533 55.207947 
L 237.988467 54.373461 
L 239.207446 54.364645 
L 240.426424 54.540865 
L 245.302337 55.593229 
L 246.521315 55.507078 
L 248.14662 55.136461 
L 250.990902 54.425208 
L 252.209881 54.346579 
L 253.428859 54.465868 
L 255.054163 54.857221 
L 257.898446 55.593502 
L 259.117424 55.644557 
L 260.336402 55.490036 
L 262.368033 54.947243 
L 263.993337 54.536255 
L 265.212315 54.406445 
L 266.431294 54.46791 
L 268.056598 54.816965 
L 270.900881 55.559981 
L 272.119859 55.666154 
L 273.338837 55.573492 
L 274.964142 55.204232 
L 277.808424 54.493155 
L 279.027402 54.420876 
L 280.246381 54.546538 
L 281.871685 54.944968 
L 284.309642 55.565725 
L 285.52862 55.674198 
L 286.747598 55.579521 
L 288.372902 55.201038 
L 291.217185 54.481637 
L 292.436163 54.406115 
L 293.655142 54.523897 
L 295.280446 54.924287 
L 297.718403 55.550376 
L 298.937381 55.658767 
L 300.156359 55.556868 
L 301.781663 55.17671 
L 304.625946 54.45699 
L 305.438598 54.355326 
L 306.657577 54.419905 
L 308.282881 54.804996 
L 311.127163 55.642603 
L 312.346142 55.777263 
L 313.56512 55.689481 
L 315.190424 55.290408 
L 318.034707 54.479358 
L 319.253685 54.38186 
L 320.472664 54.506586 
L 322.097968 54.9452 
L 324.535924 55.647179 
L 325.754903 55.790552 
L 326.973881 55.71121 
L 328.599185 55.308569 
L 331.443468 54.480586 
L 332.662446 54.369267 
L 333.881425 54.483543 
L 335.506729 54.913622 
L 336.725707 55.337046 
L 337.132033 55.790382 
L 338.351011 56.048853 
L 338.757338 56.421603 
L 340.382642 56.443377 
L 341.195294 56.197328 
L 343.633251 55.26809 
L 344.852229 54.948462 
L 346.071207 54.833879 
L 347.696512 55.117073 
L 348.91549 55.609011 
L 351.759772 56.807516 
L 352.572425 56.91861 
L 353.791403 56.829253 
L 355.010381 56.469303 
L 358.667316 55.094496 
L 359.886294 55.038086 
L 361.105272 55.295764 
L 362.730577 55.98029 
L 364.762207 56.831025 
L 365.981186 57.048588 
L 366.793838 57.067816 
L 368.012816 56.753887 
L 369.63812 56.026771 
L 370.857099 55.494104 
L 373.295055 55.161878 
L 374.514033 55.385224 
L 376.139338 56.060942 
L 378.170968 56.938741 
L 379.389947 57.17844 
L 380.608925 57.105391 
L 381.827903 56.753564 
L 385.484838 55.302279 
L 386.703816 55.195482 
L 387.516468 55.314229 
L 388.735447 55.716148 
L 391.986055 57.093272 
L 393.205034 57.258529 
L 394.424012 57.094762 
L 395.64299 56.651548 
L 398.487273 55.403613 
L 398.487273 55.403613 
" style="fill:none;stroke:#1f77b4;stroke-linecap:square;stroke-width:1.5;"/>
   </g>
   <g id="line2d_16">
    <path clip-path="url(#p46f7648d76)" d="M 73.832727 54.049861 
L 76.67701 55.067545 
L 77.895988 55.247233 
L 79.114966 55.160554 
L 80.333945 54.823525 
L 83.584553 53.715039 
L 84.803532 53.60992 
L 86.02251 53.747877 
L 87.647814 54.250422 
L 90.085771 55.067591 
L 91.304749 55.226928 
L 92.523727 55.112161 
L 94.149032 54.629941 
L 96.586988 53.804588 
L 97.805967 53.628353 
L 99.024945 53.710208 
L 100.243923 54.019366 
L 103.900858 55.187877 
L 105.119836 55.250775 
L 106.338814 55.058818 
L 107.964119 54.540664 
L 109.995749 53.885573 
L 111.214728 53.718485 
L 112.433706 53.807122 
L 114.05901 54.262699 
L 116.903293 55.165058 
L 118.122271 55.303727 
L 119.747575 55.10093 
L 120.966554 54.737081 
L 122.591858 54.144814 
L 124.217162 53.838096 
L 125.436141 53.846553 
L 126.655119 54.061533 
L 131.124706 55.22289 
L 132.343684 55.200925 
L 133.562662 54.97126 
L 136.813271 54.134267 
L 138.032249 54.038049 
L 139.657554 54.249598 
L 142.09551 54.932097 
L 143.720815 55.276914 
L 144.939793 55.328853 
L 146.158771 55.184132 
L 148.190402 54.639123 
L 150.222032 54.146112 
L 151.44101 54.060395 
L 152.659989 54.174316 
L 154.285293 54.576673 
L 156.72325 55.226353 
L 157.942228 55.358333 
L 159.161206 55.287702 
L 160.78651 54.931447 
L 163.630793 54.222049 
L 164.849771 54.138937 
L 166.06875 54.256179 
L 167.694054 54.650454 
L 170.13201 55.28266 
L 171.350989 55.407298 
L 172.569967 55.334527 
L 174.195271 54.980242 
L 177.039554 54.260322 
L 178.258532 54.166685 
L 179.477511 54.268608 
L 181.102815 54.64645 
L 183.947098 55.355036 
L 185.166076 55.440151 
L 186.385054 55.325912 
L 188.010358 54.934508 
L 190.448315 54.332375 
L 191.667293 54.228981 
L 192.886271 54.318751 
L 194.511576 54.68321 
L 197.355858 55.373478 
L 198.574837 55.444196 
L 199.793815 55.323104 
L 201.825445 54.829824 
L 203.857076 54.355046 
L 205.076054 54.257189 
L 206.295032 54.34888 
L 207.920337 54.709737 
L 210.764619 55.394462 
L 211.983598 55.469935 
L 213.202576 55.350574 
L 214.82788 54.980274 
L 217.265837 54.393998 
L 218.484815 54.295015 
L 219.703793 54.386426 
L 221.329098 54.747899 
L 224.17338 55.432885 
L 225.392359 55.506109 
L 226.611337 55.390363 
L 228.642967 54.90155 
L 230.674598 54.425399 
L 231.893576 54.32645 
L 233.112554 54.417617 
L 234.737859 54.774941 
L 237.582141 55.474334 
L 238.80112 55.552629 
L 240.020098 55.44029 
L 241.645402 55.063891 
L 244.083359 54.454601 
L 245.302337 54.353476 
L 246.521315 54.442469 
L 248.14662 54.811002 
L 250.990902 55.521065 
L 252.209881 55.596143 
L 253.428859 55.477635 
L 255.460489 54.970899 
L 257.49212 54.482626 
L 258.711098 54.382609 
L 260.336402 54.553185 
L 261.961707 54.98602 
L 263.993337 55.521711 
L 265.212315 55.659384 
L 266.431294 55.597785 
L 268.056598 55.247598 
L 270.900881 54.509177 
L 272.119859 54.407919 
L 273.338837 54.508508 
L 274.964142 54.885813 
L 277.808424 55.599174 
L 279.027402 55.67266 
L 280.246381 55.546704 
L 282.278011 55.030359 
L 284.309642 54.522115 
L 285.52862 54.410364 
L 286.747598 54.494541 
L 288.372902 54.881654 
L 291.217185 55.595478 
L 292.436163 55.666343 
L 293.655142 55.54164 
L 295.280446 55.137307 
L 297.718403 54.496036 
L 298.937381 54.379614 
L 300.156359 54.466532 
L 301.781663 54.845098 
L 304.21962 55.530779 
L 305.844924 55.699548 
L 307.063903 55.594188 
L 308.689207 55.189114 
L 311.127163 54.516627 
L 312.346142 54.383045 
L 313.56512 54.456725 
L 314.784098 54.74789 
L 318.034707 55.693055 
L 319.253685 55.790516 
L 320.472664 55.667663 
L 322.097968 55.23623 
L 324.535924 54.528336 
L 325.754903 54.380635 
L 326.973881 54.45982 
L 328.192859 54.732832 
L 331.849794 55.752046 
L 333.068772 55.786658 
L 334.287751 55.595008 
L 336.319381 54.980476 
L 337.944685 54.543811 
L 339.163664 54.469557 
L 340.382642 54.712343 
L 341.60162 55.212155 
L 344.852229 56.691938 
L 345.664881 56.862724 
L 346.883859 56.813998 
L 348.509164 56.321795 
L 351.353446 55.140936 
L 352.572425 54.948262 
L 353.791403 55.062854 
L 355.010381 55.46555 
L 358.26099 56.823105 
L 359.479968 57.00261 
L 360.698946 56.860472 
L 361.917925 56.444914 
L 365.168533 55.104579 
L 365.981186 55.017796 
L 366.793838 55.084484 
L 368.012816 55.425739 
L 370.044446 56.351637 
L 371.669751 56.998948 
L 372.888729 57.187886 
L 374.107707 57.064205 
L 375.326686 56.642773 
L 378.577294 55.266249 
L 379.796273 55.126801 
L 381.015251 55.313989 
L 382.234229 55.772807 
L 385.078512 57.046067 
L 386.29749 57.261288 
L 387.110142 57.225097 
L 388.32912 56.898828 
L 389.954425 56.176593 
L 391.579729 55.48325 
L 392.798707 55.204302 
L 394.017686 55.257698 
L 395.236664 55.615295 
L 398.487273 57.020615 
L 398.487273 57.020615 
" style="fill:none;stroke:#ff0000;stroke-linecap:square;stroke-width:1.5;"/>
   </g>
   <g id="line2d_17">
    <path clip-path="url(#p46f7648d76)" d="M 73.832727 294.086218 
L 76.67701 292.079176 
L 77.489662 291.791514 
L 78.302314 291.731335 
L 79.114966 291.910642 
L 79.927619 292.316174 
L 81.146597 293.189751 
L 82.771901 294.405027 
L 83.584553 294.80341 
L 84.397206 295.04259 
L 85.209858 295.029569 
L 86.02251 294.793365 
L 87.241488 294.027381 
L 90.085771 292.106233 
L 90.898423 291.850923 
L 91.711075 291.807975 
L 92.523727 292.019037 
L 93.742706 292.685295 
L 96.586988 294.616787 
L 97.39964 294.910783 
L 98.212293 294.989641 
L 99.024945 294.835547 
L 99.837597 294.478967 
L 101.056575 293.675308 
L 103.088206 292.296272 
L 103.900858 291.980313 
L 104.71351 291.856404 
L 105.526162 291.959876 
L 106.338814 292.270368 
L 107.557793 293.026612 
L 109.995749 294.64988 
L 110.808401 294.915183 
L 111.621054 294.971629 
L 112.433706 294.787378 
L 113.652684 294.154155 
L 116.090641 292.609935 
L 117.309619 292.098099 
L 118.122271 291.958204 
L 118.934923 292.062155 
L 119.747575 292.317038 
L 120.966554 293.013229 
L 122.591858 294.108575 
L 123.810836 294.637805 
L 124.623488 294.779783 
L 125.436141 294.723604 
L 126.248793 294.483418 
L 127.467771 293.85846 
L 130.312054 292.258259 
L 131.124706 292.054212 
L 131.937358 292.037284 
L 132.75001 292.22041 
L 133.562662 292.570833 
L 133.968989 293.069118 
L 136.406945 294.394641 
L 137.219597 294.64354 
L 138.032249 294.722704 
L 139.251228 294.46568 
L 140.470206 293.889826 
L 143.314489 292.348239 
L 144.127141 292.143528 
L 144.939793 292.112361 
L 145.752445 292.263292 
L 146.971423 292.794094 
L 150.222032 294.515755 
L 151.034684 294.683129 
L 151.847336 294.665346 
L 152.659989 294.47009 
L 153.878967 293.913933 
L 156.72325 292.398089 
L 157.535902 292.176931 
L 158.348554 292.140005 
L 159.161206 292.283229 
L 160.380184 292.798904 
L 163.224467 294.354115 
L 164.037119 294.597548 
L 164.849771 294.664757 
L 165.662423 294.553831 
L 166.881402 294.09541 
L 170.538337 292.280936 
L 171.350989 292.16029 
L 172.163641 292.218238 
L 172.976293 292.445988 
L 174.195271 293.023745 
L 176.633228 294.323635 
L 177.852206 294.621223 
L 178.664858 294.624228 
L 179.477511 294.445873 
L 180.696489 293.92502 
L 183.947098 292.304617 
L 184.75975 292.164277 
L 185.572402 292.197442 
L 186.385054 292.405568 
L 187.197706 292.75983 
L 188.416684 293.454343 
L 190.448315 294.431544 
L 191.260967 294.6277 
L 192.073619 294.644041 
L 192.886271 294.485164 
L 194.10525 293.964922 
L 197.355858 292.334993 
L 198.168511 292.198615 
L 198.981163 292.237898 
L 200.200141 292.606398 
L 201.825445 293.435009 
L 203.45075 294.249688 
L 204.669728 294.570795 
L 205.48238 294.58031 
L 206.295032 294.42236 
L 207.514011 293.928174 
L 210.358293 292.497393 
L 211.170946 292.281675 
L 211.983598 292.226095 
L 212.79625 292.343397 
L 214.015228 292.795099 
L 217.672163 294.517494 
L 218.484815 294.614172 
L 219.297467 294.537414 
L 220.516446 294.123122 
L 224.579706 292.261266 
L 225.392359 292.209376 
L 226.205011 292.327196 
L 227.423989 292.782067 
L 231.080924 294.51566 
L 231.893576 294.613915 
L 232.706228 294.543582 
L 233.925207 294.141859 
L 235.956837 293.061915 
L 237.175815 292.484487 
L 237.988467 292.26196 
L 238.80112 292.202836 
L 239.613772 292.315294 
L 240.83275 292.770565 
L 244.489685 294.548777 
L 245.302337 294.649796 
L 246.114989 294.578794 
L 247.333967 294.157668 
L 249.365598 293.032855 
L 250.584576 292.446239 
L 251.803554 292.166889 
L 252.616207 292.197184 
L 253.428859 292.398277 
L 254.647837 292.951979 
L 257.49212 294.463401 
L 258.711098 294.680237 
L 259.52375 294.595755 
L 260.742728 294.171509 
L 264.399663 292.292006 
L 265.212315 292.157105 
L 266.024968 292.194587 
L 266.83762 292.406946 
L 268.056598 292.979411 
L 270.494555 294.310861 
L 271.307207 294.573313 
L 272.119859 294.668279 
L 272.932511 294.585405 
L 274.151489 294.1526 
L 275.776794 293.256869 
L 277.402098 292.436089 
L 278.21475 292.21183 
L 279.027402 292.158261 
L 279.840055 292.284232 
L 281.059033 292.765303 
L 284.309642 294.453654 
L 285.122294 294.64057 
L 285.934946 294.660856 
L 286.747598 294.495024 
L 287.966576 293.956179 
L 290.810859 292.432382 
L 291.623511 292.204764 
L 292.436163 292.149816 
L 293.248816 292.267237 
L 294.467794 292.747521 
L 298.124729 294.580246 
L 298.937381 294.689197 
L 299.750033 294.61169 
L 300.969011 294.172932 
L 303.000642 293.023874 
L 304.21962 292.408164 
L 305.438598 292.075635 
L 306.25125 292.095542 
L 307.063903 292.306415 
L 308.282881 292.908685 
L 311.127163 294.53602 
L 311.939816 294.760108 
L 312.752468 294.804337 
L 313.56512 294.6428 
L 314.377772 294.298214 
L 316.003077 293.298305 
L 317.222055 292.550056 
L 318.441033 292.083104 
L 319.253685 292.001388 
L 320.066337 292.121739 
L 320.87899 292.420544 
L 322.097968 293.119014 
L 324.129598 294.34942 
L 324.942251 294.668827 
L 325.754903 294.819961 
L 326.567555 294.760898 
L 327.380207 294.516779 
L 328.599185 293.862521 
L 331.037142 292.374344 
L 331.849794 292.077098 
L 332.662446 291.978556 
L 333.475098 292.085713 
L 334.694077 292.586492 
L 336.319381 293.623456 
L 336.725707 293.898106 
L 337.132033 294.473455 
L 337.944685 294.864525 
L 338.351011 294.97183 
L 338.757338 295.370256 
L 339.56999 295.389977 
L 340.382642 295.141078 
L 341.195294 294.583137 
L 344.039577 292.141634 
L 344.852229 291.666568 
L 345.664881 291.374286 
L 346.477533 291.423331 
L 347.290185 291.697338 
L 348.102838 292.184496 
L 348.91549 292.878411 
L 351.353446 294.968326 
L 352.166099 295.315 
L 352.978751 295.371073 
L 353.791403 295.176443 
L 354.604055 294.720307 
L 355.823033 293.713357 
L 357.854664 292.002642 
L 358.667316 291.584516 
L 359.479968 291.432041 
L 360.29262 291.557306 
L 361.105272 291.960395 
L 362.324251 292.927148 
L 364.355881 294.764061 
L 365.168533 295.240624 
L 365.981186 295.440837 
L 366.387512 295.488 
L 367.200164 295.239072 
L 368.012816 294.738192 
L 369.231794 293.690416 
L 370.857099 292.182949 
L 372.482403 291.415083 
L 373.295055 291.406206 
L 374.107707 291.612542 
L 374.92036 292.131935 
L 376.139338 293.203335 
L 377.764642 294.691258 
L 378.577294 295.1953 
L 379.389947 295.44724 
L 380.202599 295.410516 
L 381.015251 295.113566 
L 381.827903 294.567152 
L 385.484838 291.564277 
L 386.29749 291.342903 
L 387.110142 291.418049 
L 387.922794 291.794105 
L 389.141773 292.738456 
L 391.579729 294.899656 
L 392.392381 295.326891 
L 393.205034 295.483357 
L 394.017686 295.337206 
L 394.830338 294.919897 
L 396.049316 293.901961 
L 398.080947 292.067952 
L 398.487273 291.793042 
L 398.487273 291.793042 
" style="fill:none;stroke:#008000;stroke-linecap:square;stroke-width:1.5;"/>
   </g>
   <g id="patch_3">
    <path d="M 57.6 307.584 
L 57.6 41.472 
" style="fill:none;stroke:#000000;stroke-linecap:square;stroke-linejoin:miter;stroke-width:0.8;"/>
   </g>
   <g id="patch_4">
    <path d="M 414.72 307.584 
L 414.72 41.472 
" style="fill:none;stroke:#000000;stroke-linecap:square;stroke-linejoin:miter;stroke-width:0.8;"/>
   </g>
   <g id="patch_5">
    <path d="M 57.6 307.584 
L 414.72 307.584 
" style="fill:none;stroke:#000000;stroke-linecap:square;stroke-linejoin:miter;stroke-width:0.8;"/>
   </g>
   <g id="patch_6">
    <path d="M 57.6 41.472 
L 414.72 41.472 
" style="fill:none;stroke:#000000;stroke-linecap:square;stroke-linejoin:miter;stroke-width:0.8;"/>
   </g>
   <g id="legend_1">
    <g id="patch_7">
     <path d="M 351.0075 198.045187 
L 407.72 198.045187 
Q 409.72 198.045187 409.72 196.045187 
L 409.72 153.010812 
Q 409.72 151.010812 407.72 151.010812 
L 351.0075 151.010812 
Q 349.0075 151.010812 349.0075 153.010812 
L 349.0075 196.045187 
Q 349.0075 198.045187 351.0075 198.045187 
z
" style="fill:#ffffff;opacity:0.8;stroke:#cccccc;stroke-linejoin:miter;"/>
    </g>
    <g id="line2d_18">
     <path d="M 353.0075 159.10925 
L 373.0075 159.10925 
" style="fill:none;stroke:#1f77b4;stroke-linecap:square;stroke-width:1.5;"/>
    </g>
    <g id="line2d_19"/>
    <g id="text_15">
     <!-- 0-&gt;1 -->
     <defs>
      <path d="M 4.890625 31.390625 
L 31.203125 31.390625 
L 31.203125 23.390625 
L 4.890625 23.390625 
z
" id="DejaVuSans-45"/>
      <path d="M 10.59375 49.21875 
L 10.59375 58.109375 
L 73.1875 35.40625 
L 73.1875 27.296875 
L 10.59375 4.59375 
L 10.59375 13.484375 
L 60.890625 31.296875 
z
" id="DejaVuSans-62"/>
     </defs>
     <g transform="translate(381.0075 162.60925)scale(0.1 -0.1)">
      <use xlink:href="#DejaVuSans-48"/>
      <use x="63.623047" xlink:href="#DejaVuSans-45"/>
      <use x="99.707031" xlink:href="#DejaVuSans-62"/>
      <use x="183.496094" xlink:href="#DejaVuSans-49"/>
     </g>
    </g>
    <g id="line2d_20">
     <path d="M 353.0075 173.787375 
L 373.0075 173.787375 
" style="fill:none;stroke:#ff0000;stroke-linecap:square;stroke-width:1.5;"/>
    </g>
    <g id="line2d_21"/>
    <g id="text_16">
     <!-- 1-&gt;0 -->
     <g transform="translate(381.0075 177.287375)scale(0.1 -0.1)">
      <use xlink:href="#DejaVuSans-49"/>
      <use x="63.623047" xlink:href="#DejaVuSans-45"/>
      <use x="99.707031" xlink:href="#DejaVuSans-62"/>
      <use x="183.496094" xlink:href="#DejaVuSans-48"/>
     </g>
    </g>
    <g id="line2d_22">
     <path d="M 353.0075 188.4655 
L 373.0075 188.4655 
" style="fill:none;stroke:#008000;stroke-linecap:square;stroke-width:1.5;"/>
    </g>
    <g id="line2d_23"/>
    <g id="text_17">
     <!-- diff -->
     <defs>
      <path d="M 45.40625 46.390625 
L 45.40625 75.984375 
L 54.390625 75.984375 
L 54.390625 0 
L 45.40625 0 
L 45.40625 8.203125 
Q 42.578125 3.328125 38.25 0.953125 
Q 33.9375 -1.421875 27.875 -1.421875 
Q 17.96875 -1.421875 11.734375 6.484375 
Q 5.515625 14.40625 5.515625 27.296875 
Q 5.515625 40.1875 11.734375 48.09375 
Q 17.96875 56 27.875 56 
Q 33.9375 56 38.25 53.625 
Q 42.578125 51.265625 45.40625 46.390625 
z
M 14.796875 27.296875 
Q 14.796875 17.390625 18.875 11.75 
Q 22.953125 6.109375 30.078125 6.109375 
Q 37.203125 6.109375 41.296875 11.75 
Q 45.40625 17.390625 45.40625 27.296875 
Q 45.40625 37.203125 41.296875 42.84375 
Q 37.203125 48.484375 30.078125 48.484375 
Q 22.953125 48.484375 18.875 42.84375 
Q 14.796875 37.203125 14.796875 27.296875 
z
" id="DejaVuSans-100"/>
      <path d="M 9.421875 54.6875 
L 18.40625 54.6875 
L 18.40625 0 
L 9.421875 0 
z
M 9.421875 75.984375 
L 18.40625 75.984375 
L 18.40625 64.59375 
L 9.421875 64.59375 
z
" id="DejaVuSans-105"/>
      <path d="M 37.109375 75.984375 
L 37.109375 68.5 
L 28.515625 68.5 
Q 23.6875 68.5 21.796875 66.546875 
Q 19.921875 64.59375 19.921875 59.515625 
L 19.921875 54.6875 
L 34.71875 54.6875 
L 34.71875 47.703125 
L 19.921875 47.703125 
L 19.921875 0 
L 10.890625 0 
L 10.890625 47.703125 
L 2.296875 47.703125 
L 2.296875 54.6875 
L 10.890625 54.6875 
L 10.890625 58.5 
Q 10.890625 67.625 15.140625 71.796875 
Q 19.390625 75.984375 28.609375 75.984375 
z
" id="DejaVuSans-102"/>
     </defs>
     <g transform="translate(381.0075 191.9655)scale(0.1 -0.1)">
      <use xlink:href="#DejaVuSans-100"/>
      <use x="63.476562" xlink:href="#DejaVuSans-105"/>
      <use x="91.259766" xlink:href="#DejaVuSans-102"/>
      <use x="126.464844" xlink:href="#DejaVuSans-102"/>
     </g>
    </g>
   </g>
  </g>
 </g>
 <defs>
  <clipPath id="p46f7648d76">
   <rect height="266.112" width="357.12" x="57.6" y="41.472"/>
  </clipPath>
 </defs>
</svg>
