<?xml version="1.0" encoding="utf-8" standalone="no"?>
<!DOCTYPE svg PUBLIC "-//W3C//DTD SVG 1.1//EN"
  "http://www.w3.org/Graphics/SVG/1.1/DTD/svg11.dtd">
<!-- Created with matplotlib (https://matplotlib.org/) -->
<svg height="345.6pt" version="1.1" viewBox="0 0 460.8 345.6" width="460.8pt" xmlns="http://www.w3.org/2000/svg" xmlns:xlink="http://www.w3.org/1999/xlink">
 <defs>
  <style type="text/css">
*{stroke-linecap:butt;stroke-linejoin:round;}
  </style>
 </defs>
 <g id="figure_1">
  <g id="patch_1">
   <path d="M 0 345.6 
L 460.8 345.6 
L 460.8 0 
L 0 0 
z
" style="fill:#ffffff;"/>
  </g>
  <g id="axes_1">
   <g id="patch_2">
    <path d="M 57.6 307.584 
L 414.72 307.584 
L 414.72 41.472 
L 57.6 41.472 
z
" style="fill:#ffffff;"/>
   </g>
   <g id="matplotlib.axis_1">
    <g id="xtick_1">
     <g id="line2d_1">
      <defs>
       <path d="M 0 0 
L 0 3.5 
" id="mb7a412adb2" style="stroke:#000000;stroke-width:0.8;"/>
      </defs>
      <g>
       <use style="stroke:#000000;stroke-width:0.8;" x="73.832727" xlink:href="#mb7a412adb2" y="307.584"/>
      </g>
     </g>
     <g id="text_1">
      <!-- 0 -->
      <defs>
       <path d="M 31.78125 66.40625 
Q 24.171875 66.40625 20.328125 58.90625 
Q 16.5 51.421875 16.5 36.375 
Q 16.5 21.390625 20.328125 13.890625 
Q 24.171875 6.390625 31.78125 6.390625 
Q 39.453125 6.390625 43.28125 13.890625 
Q 47.125 21.390625 47.125 36.375 
Q 47.125 51.421875 43.28125 58.90625 
Q 39.453125 66.40625 31.78125 66.40625 
z
M 31.78125 74.21875 
Q 44.046875 74.21875 50.515625 64.515625 
Q 56.984375 54.828125 56.984375 36.375 
Q 56.984375 17.96875 50.515625 8.265625 
Q 44.046875 -1.421875 31.78125 -1.421875 
Q 19.53125 -1.421875 13.0625 8.265625 
Q 6.59375 17.96875 6.59375 36.375 
Q 6.59375 54.828125 13.0625 64.515625 
Q 19.53125 74.21875 31.78125 74.21875 
z
" id="DejaVuSans-48"/>
      </defs>
      <g transform="translate(70.651477 322.182437)scale(0.1 -0.1)">
       <use xlink:href="#DejaVuSans-48"/>
      </g>
     </g>
    </g>
    <g id="xtick_2">
     <g id="line2d_2">
      <g>
       <use style="stroke:#000000;stroke-width:0.8;" x="114.465336" xlink:href="#mb7a412adb2" y="307.584"/>
      </g>
     </g>
     <g id="text_2">
      <!-- 100 -->
      <defs>
       <path d="M 12.40625 8.296875 
L 28.515625 8.296875 
L 28.515625 63.921875 
L 10.984375 60.40625 
L 10.984375 69.390625 
L 28.421875 72.90625 
L 38.28125 72.90625 
L 38.28125 8.296875 
L 54.390625 8.296875 
L 54.390625 0 
L 12.40625 0 
z
" id="DejaVuSans-49"/>
      </defs>
      <g transform="translate(104.921586 322.182437)scale(0.1 -0.1)">
       <use xlink:href="#DejaVuSans-49"/>
       <use x="63.623047" xlink:href="#DejaVuSans-48"/>
       <use x="127.246094" xlink:href="#DejaVuSans-48"/>
      </g>
     </g>
    </g>
    <g id="xtick_3">
     <g id="line2d_3">
      <g>
       <use style="stroke:#000000;stroke-width:0.8;" x="155.097945" xlink:href="#mb7a412adb2" y="307.584"/>
      </g>
     </g>
     <g id="text_3">
      <!-- 200 -->
      <defs>
       <path d="M 19.1875 8.296875 
L 53.609375 8.296875 
L 53.609375 0 
L 7.328125 0 
L 7.328125 8.296875 
Q 12.9375 14.109375 22.625 23.890625 
Q 32.328125 33.6875 34.8125 36.53125 
Q 39.546875 41.84375 41.421875 45.53125 
Q 43.3125 49.21875 43.3125 52.78125 
Q 43.3125 58.59375 39.234375 62.25 
Q 35.15625 65.921875 28.609375 65.921875 
Q 23.96875 65.921875 18.8125 64.3125 
Q 13.671875 62.703125 7.8125 59.421875 
L 7.8125 69.390625 
Q 13.765625 71.78125 18.9375 73 
Q 24.125 74.21875 28.421875 74.21875 
Q 39.75 74.21875 46.484375 68.546875 
Q 53.21875 62.890625 53.21875 53.421875 
Q 53.21875 48.921875 51.53125 44.890625 
Q 49.859375 40.875 45.40625 35.40625 
Q 44.1875 33.984375 37.640625 27.21875 
Q 31.109375 20.453125 19.1875 8.296875 
z
" id="DejaVuSans-50"/>
      </defs>
      <g transform="translate(145.554195 322.182437)scale(0.1 -0.1)">
       <use xlink:href="#DejaVuSans-50"/>
       <use x="63.623047" xlink:href="#DejaVuSans-48"/>
       <use x="127.246094" xlink:href="#DejaVuSans-48"/>
      </g>
     </g>
    </g>
    <g id="xtick_4">
     <g id="line2d_4">
      <g>
       <use style="stroke:#000000;stroke-width:0.8;" x="195.730554" xlink:href="#mb7a412adb2" y="307.584"/>
      </g>
     </g>
     <g id="text_4">
      <!-- 300 -->
      <defs>
       <path d="M 40.578125 39.3125 
Q 47.65625 37.796875 51.625 33 
Q 55.609375 28.21875 55.609375 21.1875 
Q 55.609375 10.40625 48.1875 4.484375 
Q 40.765625 -1.421875 27.09375 -1.421875 
Q 22.515625 -1.421875 17.65625 -0.515625 
Q 12.796875 0.390625 7.625 2.203125 
L 7.625 11.71875 
Q 11.71875 9.328125 16.59375 8.109375 
Q 21.484375 6.890625 26.8125 6.890625 
Q 36.078125 6.890625 40.9375 10.546875 
Q 45.796875 14.203125 45.796875 21.1875 
Q 45.796875 27.640625 41.28125 31.265625 
Q 36.765625 34.90625 28.71875 34.90625 
L 20.21875 34.90625 
L 20.21875 43.015625 
L 29.109375 43.015625 
Q 36.375 43.015625 40.234375 45.921875 
Q 44.09375 48.828125 44.09375 54.296875 
Q 44.09375 59.90625 40.109375 62.90625 
Q 36.140625 65.921875 28.71875 65.921875 
Q 24.65625 65.921875 20.015625 65.03125 
Q 15.375 64.15625 9.8125 62.3125 
L 9.8125 71.09375 
Q 15.4375 72.65625 20.34375 73.4375 
Q 25.25 74.21875 29.59375 74.21875 
Q 40.828125 74.21875 47.359375 69.109375 
Q 53.90625 64.015625 53.90625 55.328125 
Q 53.90625 49.265625 50.4375 45.09375 
Q 46.96875 40.921875 40.578125 39.3125 
z
" id="DejaVuSans-51"/>
      </defs>
      <g transform="translate(186.186804 322.182437)scale(0.1 -0.1)">
       <use xlink:href="#DejaVuSans-51"/>
       <use x="63.623047" xlink:href="#DejaVuSans-48"/>
       <use x="127.246094" xlink:href="#DejaVuSans-48"/>
      </g>
     </g>
    </g>
    <g id="xtick_5">
     <g id="line2d_5">
      <g>
       <use style="stroke:#000000;stroke-width:0.8;" x="236.363163" xlink:href="#mb7a412adb2" y="307.584"/>
      </g>
     </g>
     <g id="text_5">
      <!-- 400 -->
      <defs>
       <path d="M 37.796875 64.3125 
L 12.890625 25.390625 
L 37.796875 25.390625 
z
M 35.203125 72.90625 
L 47.609375 72.90625 
L 47.609375 25.390625 
L 58.015625 25.390625 
L 58.015625 17.1875 
L 47.609375 17.1875 
L 47.609375 0 
L 37.796875 0 
L 37.796875 17.1875 
L 4.890625 17.1875 
L 4.890625 26.703125 
z
" id="DejaVuSans-52"/>
      </defs>
      <g transform="translate(226.819413 322.182437)scale(0.1 -0.1)">
       <use xlink:href="#DejaVuSans-52"/>
       <use x="63.623047" xlink:href="#DejaVuSans-48"/>
       <use x="127.246094" xlink:href="#DejaVuSans-48"/>
      </g>
     </g>
    </g>
    <g id="xtick_6">
     <g id="line2d_6">
      <g>
       <use style="stroke:#000000;stroke-width:0.8;" x="276.995772" xlink:href="#mb7a412adb2" y="307.584"/>
      </g>
     </g>
     <g id="text_6">
      <!-- 500 -->
      <defs>
       <path d="M 10.796875 72.90625 
L 49.515625 72.90625 
L 49.515625 64.59375 
L 19.828125 64.59375 
L 19.828125 46.734375 
Q 21.96875 47.46875 24.109375 47.828125 
Q 26.265625 48.1875 28.421875 48.1875 
Q 40.625 48.1875 47.75 41.5 
Q 54.890625 34.8125 54.890625 23.390625 
Q 54.890625 11.625 47.5625 5.09375 
Q 40.234375 -1.421875 26.90625 -1.421875 
Q 22.3125 -1.421875 17.546875 -0.640625 
Q 12.796875 0.140625 7.71875 1.703125 
L 7.71875 11.625 
Q 12.109375 9.234375 16.796875 8.0625 
Q 21.484375 6.890625 26.703125 6.890625 
Q 35.15625 6.890625 40.078125 11.328125 
Q 45.015625 15.765625 45.015625 23.390625 
Q 45.015625 31 40.078125 35.4375 
Q 35.15625 39.890625 26.703125 39.890625 
Q 22.75 39.890625 18.8125 39.015625 
Q 14.890625 38.140625 10.796875 36.28125 
z
" id="DejaVuSans-53"/>
      </defs>
      <g transform="translate(267.452022 322.182437)scale(0.1 -0.1)">
       <use xlink:href="#DejaVuSans-53"/>
       <use x="63.623047" xlink:href="#DejaVuSans-48"/>
       <use x="127.246094" xlink:href="#DejaVuSans-48"/>
      </g>
     </g>
    </g>
    <g id="xtick_7">
     <g id="line2d_7">
      <g>
       <use style="stroke:#000000;stroke-width:0.8;" x="317.628381" xlink:href="#mb7a412adb2" y="307.584"/>
      </g>
     </g>
     <g id="text_7">
      <!-- 600 -->
      <defs>
       <path d="M 33.015625 40.375 
Q 26.375 40.375 22.484375 35.828125 
Q 18.609375 31.296875 18.609375 23.390625 
Q 18.609375 15.53125 22.484375 10.953125 
Q 26.375 6.390625 33.015625 6.390625 
Q 39.65625 6.390625 43.53125 10.953125 
Q 47.40625 15.53125 47.40625 23.390625 
Q 47.40625 31.296875 43.53125 35.828125 
Q 39.65625 40.375 33.015625 40.375 
z
M 52.59375 71.296875 
L 52.59375 62.3125 
Q 48.875 64.0625 45.09375 64.984375 
Q 41.3125 65.921875 37.59375 65.921875 
Q 27.828125 65.921875 22.671875 59.328125 
Q 17.53125 52.734375 16.796875 39.40625 
Q 19.671875 43.65625 24.015625 45.921875 
Q 28.375 48.1875 33.59375 48.1875 
Q 44.578125 48.1875 50.953125 41.515625 
Q 57.328125 34.859375 57.328125 23.390625 
Q 57.328125 12.15625 50.6875 5.359375 
Q 44.046875 -1.421875 33.015625 -1.421875 
Q 20.359375 -1.421875 13.671875 8.265625 
Q 6.984375 17.96875 6.984375 36.375 
Q 6.984375 53.65625 15.1875 63.9375 
Q 23.390625 74.21875 37.203125 74.21875 
Q 40.921875 74.21875 44.703125 73.484375 
Q 48.484375 72.75 52.59375 71.296875 
z
" id="DejaVuSans-54"/>
      </defs>
      <g transform="translate(308.084631 322.182437)scale(0.1 -0.1)">
       <use xlink:href="#DejaVuSans-54"/>
       <use x="63.623047" xlink:href="#DejaVuSans-48"/>
       <use x="127.246094" xlink:href="#DejaVuSans-48"/>
      </g>
     </g>
    </g>
    <g id="xtick_8">
     <g id="line2d_8">
      <g>
       <use style="stroke:#000000;stroke-width:0.8;" x="358.26099" xlink:href="#mb7a412adb2" y="307.584"/>
      </g>
     </g>
     <g id="text_8">
      <!-- 700 -->
      <defs>
       <path d="M 8.203125 72.90625 
L 55.078125 72.90625 
L 55.078125 68.703125 
L 28.609375 0 
L 18.3125 0 
L 43.21875 64.59375 
L 8.203125 64.59375 
z
" id="DejaVuSans-55"/>
      </defs>
      <g transform="translate(348.71724 322.182437)scale(0.1 -0.1)">
       <use xlink:href="#DejaVuSans-55"/>
       <use x="63.623047" xlink:href="#DejaVuSans-48"/>
       <use x="127.246094" xlink:href="#DejaVuSans-48"/>
      </g>
     </g>
    </g>
    <g id="xtick_9">
     <g id="line2d_9">
      <g>
       <use style="stroke:#000000;stroke-width:0.8;" x="398.893599" xlink:href="#mb7a412adb2" y="307.584"/>
      </g>
     </g>
     <g id="text_9">
      <!-- 800 -->
      <defs>
       <path d="M 31.78125 34.625 
Q 24.75 34.625 20.71875 30.859375 
Q 16.703125 27.09375 16.703125 20.515625 
Q 16.703125 13.921875 20.71875 10.15625 
Q 24.75 6.390625 31.78125 6.390625 
Q 38.8125 6.390625 42.859375 10.171875 
Q 46.921875 13.96875 46.921875 20.515625 
Q 46.921875 27.09375 42.890625 30.859375 
Q 38.875 34.625 31.78125 34.625 
z
M 21.921875 38.8125 
Q 15.578125 40.375 12.03125 44.71875 
Q 8.5 49.078125 8.5 55.328125 
Q 8.5 64.0625 14.71875 69.140625 
Q 20.953125 74.21875 31.78125 74.21875 
Q 42.671875 74.21875 48.875 69.140625 
Q 55.078125 64.0625 55.078125 55.328125 
Q 55.078125 49.078125 51.53125 44.71875 
Q 48 40.375 41.703125 38.8125 
Q 48.828125 37.15625 52.796875 32.3125 
Q 56.78125 27.484375 56.78125 20.515625 
Q 56.78125 9.90625 50.3125 4.234375 
Q 43.84375 -1.421875 31.78125 -1.421875 
Q 19.734375 -1.421875 13.25 4.234375 
Q 6.78125 9.90625 6.78125 20.515625 
Q 6.78125 27.484375 10.78125 32.3125 
Q 14.796875 37.15625 21.921875 38.8125 
z
M 18.3125 54.390625 
Q 18.3125 48.734375 21.84375 45.5625 
Q 25.390625 42.390625 31.78125 42.390625 
Q 38.140625 42.390625 41.71875 45.5625 
Q 45.3125 48.734375 45.3125 54.390625 
Q 45.3125 60.0625 41.71875 63.234375 
Q 38.140625 66.40625 31.78125 66.40625 
Q 25.390625 66.40625 21.84375 63.234375 
Q 18.3125 60.0625 18.3125 54.390625 
z
" id="DejaVuSans-56"/>
      </defs>
      <g transform="translate(389.349849 322.182437)scale(0.1 -0.1)">
       <use xlink:href="#DejaVuSans-56"/>
       <use x="63.623047" xlink:href="#DejaVuSans-48"/>
       <use x="127.246094" xlink:href="#DejaVuSans-48"/>
      </g>
     </g>
    </g>
   </g>
   <g id="matplotlib.axis_2">
    <g id="ytick_1">
     <g id="line2d_10">
      <defs>
       <path d="M 0 0 
L -3.5 0 
" id="m58e4d4984a" style="stroke:#000000;stroke-width:0.8;"/>
      </defs>
      <g>
       <use style="stroke:#000000;stroke-width:0.8;" x="57.6" xlink:href="#m58e4d4984a" y="278.969409"/>
      </g>
     </g>
     <g id="text_10">
      <!-- 0.00 -->
      <defs>
       <path d="M 10.6875 12.40625 
L 21 12.40625 
L 21 0 
L 10.6875 0 
z
" id="DejaVuSans-46"/>
      </defs>
      <g transform="translate(28.334375 282.768628)scale(0.1 -0.1)">
       <use xlink:href="#DejaVuSans-48"/>
       <use x="63.623047" xlink:href="#DejaVuSans-46"/>
       <use x="95.410156" xlink:href="#DejaVuSans-48"/>
       <use x="159.033203" xlink:href="#DejaVuSans-48"/>
      </g>
     </g>
    </g>
    <g id="ytick_2">
     <g id="line2d_11">
      <g>
       <use style="stroke:#000000;stroke-width:0.8;" x="57.6" xlink:href="#m58e4d4984a" y="245.328627"/>
      </g>
     </g>
     <g id="text_11">
      <!-- 0.05 -->
      <g transform="translate(28.334375 249.127846)scale(0.1 -0.1)">
       <use xlink:href="#DejaVuSans-48"/>
       <use x="63.623047" xlink:href="#DejaVuSans-46"/>
       <use x="95.410156" xlink:href="#DejaVuSans-48"/>
       <use x="159.033203" xlink:href="#DejaVuSans-53"/>
      </g>
     </g>
    </g>
    <g id="ytick_3">
     <g id="line2d_12">
      <g>
       <use style="stroke:#000000;stroke-width:0.8;" x="57.6" xlink:href="#m58e4d4984a" y="211.687846"/>
      </g>
     </g>
     <g id="text_12">
      <!-- 0.10 -->
      <g transform="translate(28.334375 215.487064)scale(0.1 -0.1)">
       <use xlink:href="#DejaVuSans-48"/>
       <use x="63.623047" xlink:href="#DejaVuSans-46"/>
       <use x="95.410156" xlink:href="#DejaVuSans-49"/>
       <use x="159.033203" xlink:href="#DejaVuSans-48"/>
      </g>
     </g>
    </g>
    <g id="ytick_4">
     <g id="line2d_13">
      <g>
       <use style="stroke:#000000;stroke-width:0.8;" x="57.6" xlink:href="#m58e4d4984a" y="178.047064"/>
      </g>
     </g>
     <g id="text_13">
      <!-- 0.15 -->
      <g transform="translate(28.334375 181.846283)scale(0.1 -0.1)">
       <use xlink:href="#DejaVuSans-48"/>
       <use x="63.623047" xlink:href="#DejaVuSans-46"/>
       <use x="95.410156" xlink:href="#DejaVuSans-49"/>
       <use x="159.033203" xlink:href="#DejaVuSans-53"/>
      </g>
     </g>
    </g>
    <g id="ytick_5">
     <g id="line2d_14">
      <g>
       <use style="stroke:#000000;stroke-width:0.8;" x="57.6" xlink:href="#m58e4d4984a" y="144.406282"/>
      </g>
     </g>
     <g id="text_14">
      <!-- 0.20 -->
      <g transform="translate(28.334375 148.205501)scale(0.1 -0.1)">
       <use xlink:href="#DejaVuSans-48"/>
       <use x="63.623047" xlink:href="#DejaVuSans-46"/>
       <use x="95.410156" xlink:href="#DejaVuSans-50"/>
       <use x="159.033203" xlink:href="#DejaVuSans-48"/>
      </g>
     </g>
    </g>
    <g id="ytick_6">
     <g id="line2d_15">
      <g>
       <use style="stroke:#000000;stroke-width:0.8;" x="57.6" xlink:href="#m58e4d4984a" y="110.765501"/>
      </g>
     </g>
     <g id="text_15">
      <!-- 0.25 -->
      <g transform="translate(28.334375 114.564719)scale(0.1 -0.1)">
       <use xlink:href="#DejaVuSans-48"/>
       <use x="63.623047" xlink:href="#DejaVuSans-46"/>
       <use x="95.410156" xlink:href="#DejaVuSans-50"/>
       <use x="159.033203" xlink:href="#DejaVuSans-53"/>
      </g>
     </g>
    </g>
    <g id="ytick_7">
     <g id="line2d_16">
      <g>
       <use style="stroke:#000000;stroke-width:0.8;" x="57.6" xlink:href="#m58e4d4984a" y="77.124719"/>
      </g>
     </g>
     <g id="text_16">
      <!-- 0.30 -->
      <g transform="translate(28.334375 80.923938)scale(0.1 -0.1)">
       <use xlink:href="#DejaVuSans-48"/>
       <use x="63.623047" xlink:href="#DejaVuSans-46"/>
       <use x="95.410156" xlink:href="#DejaVuSans-51"/>
       <use x="159.033203" xlink:href="#DejaVuSans-48"/>
      </g>
     </g>
    </g>
    <g id="ytick_8">
     <g id="line2d_17">
      <g>
       <use style="stroke:#000000;stroke-width:0.8;" x="57.6" xlink:href="#m58e4d4984a" y="43.483937"/>
      </g>
     </g>
     <g id="text_17">
      <!-- 0.35 -->
      <g transform="translate(28.334375 47.283156)scale(0.1 -0.1)">
       <use xlink:href="#DejaVuSans-48"/>
       <use x="63.623047" xlink:href="#DejaVuSans-46"/>
       <use x="95.410156" xlink:href="#DejaVuSans-51"/>
       <use x="159.033203" xlink:href="#DejaVuSans-53"/>
      </g>
     </g>
    </g>
   </g>
   <g id="line2d_18">
    <path clip-path="url(#p95d00f7a32)" d="M 73.832727 144.017341 
L 75.458032 149.000098 
L 76.270684 151.262842 
L 77.083336 152.824845 
L 77.489662 153.24444 
L 77.895988 153.386734 
L 78.302314 153.236703 
L 78.70864 152.789798 
L 79.114966 152.051838 
L 79.927619 149.779204 
L 80.740271 146.66329 
L 83.178227 136.170099 
L 83.99088 133.690305 
L 84.397206 132.830569 
L 84.803532 132.255611 
L 85.209858 131.974797 
L 85.616184 131.9888 
L 86.02251 132.285698 
L 86.428836 132.845618 
L 87.241488 134.620632 
L 88.460466 138.247721 
L 89.679445 141.746315 
L 90.492097 143.313217 
L 90.898423 143.73939 
L 91.304749 143.890457 
L 91.711075 143.75196 
L 92.117401 143.318704 
L 92.523727 142.594202 
L 93.33638 140.346272 
L 94.149032 137.247739 
L 96.993314 125.354912 
L 97.805967 123.325308 
L 98.212293 122.722385 
L 98.618619 122.412159 
L 99.024945 122.395381 
L 99.431271 122.662312 
L 99.837597 123.192841 
L 100.650249 124.915643 
L 101.869227 128.490444 
L 103.088206 131.975547 
L 103.900858 133.55254 
L 104.307184 133.996271 
L 104.71351 134.167969 
L 105.119836 134.050246 
L 105.526162 133.627165 
L 105.932488 132.917052 
L 106.745141 130.688984 
L 107.557793 127.5975 
L 110.402075 115.61419 
L 111.214728 113.53005 
L 111.621054 112.89525 
L 112.02738 112.553801 
L 112.433706 112.506454 
L 112.840032 112.743016 
L 113.246358 113.244117 
L 114.05901 114.917573 
L 115.277988 118.44651 
L 116.496967 121.925634 
L 117.309619 123.519728 
L 117.715945 123.970068 
L 118.122271 124.151112 
L 118.528597 124.045776 
L 118.934923 123.645487 
L 119.341249 122.953227 
L 120.153901 120.762962 
L 120.966554 117.700738 
L 123.810836 105.678819 
L 124.623488 103.545295 
L 125.029815 102.884535 
L 125.436141 102.514642 
L 125.842467 102.437153 
L 126.248793 102.645165 
L 126.655119 103.118212 
L 127.467771 104.741638 
L 128.686749 108.219037 
L 129.905728 111.684885 
L 130.71838 113.289239 
L 131.124706 113.751525 
L 131.531032 113.946398 
L 131.937358 113.857648 
L 132.343684 113.477238 
L 132.75001 112.80696 
L 133.562662 110.660281 
L 134.375315 107.638155 
L 137.219597 95.650727 
L 138.032249 93.489847 
L 138.438575 92.810257 
L 138.844902 92.418258 
L 139.251228 92.316534 
L 139.657554 92.498907 
L 140.06388 92.947332 
L 140.876532 94.52336 
L 142.09551 97.94838 
L 143.314489 101.397774 
L 144.127141 103.018298 
L 144.533467 103.494672 
L 144.939793 103.710288 
L 145.346119 103.646183 
L 145.752445 103.292873 
L 146.158771 102.654026 
L 146.971423 100.578161 
L 147.784076 97.628074 
L 150.628358 85.820964 
L 151.44101 83.670228 
L 151.847336 82.986648 
L 152.253663 82.585359 
L 152.659989 82.469642 
L 153.066315 82.635478 
L 153.472641 83.062381 
L 154.285293 84.585312 
L 155.504271 87.930197 
L 156.72325 91.322091 
L 157.535902 92.927183 
L 157.942228 93.406486 
L 158.348554 93.630033 
L 158.75488 93.578194 
L 159.161206 93.242846 
L 159.567532 92.628401 
L 160.380184 90.612168 
L 161.192837 87.717736 
L 164.037119 76.041396 
L 164.849771 73.9005 
L 165.256097 73.219418 
L 165.662423 72.819969 
L 166.06875 72.705699 
L 166.475076 72.868943 
L 166.881402 73.2952 
L 167.694054 74.822856 
L 168.913032 78.190359 
L 170.13201 81.683332 
L 170.944663 83.39695 
L 171.350989 83.939259 
L 171.757315 84.228122 
L 172.163641 84.243572 
L 172.569967 83.97164 
L 172.976293 83.413477 
L 173.382619 82.578014 
L 174.195271 80.163086 
L 175.41425 75.195232 
L 177.039554 68.127623 
L 177.852206 65.356635 
L 178.664858 63.54364 
L 179.071184 63.058112 
L 179.477511 62.865942 
L 179.883837 62.964491 
L 180.290163 63.34252 
L 180.696489 63.972293 
L 181.509141 65.853682 
L 184.353424 73.906704 
L 185.166076 75.114378 
L 185.572402 75.378226 
L 185.978728 75.395514 
L 186.385054 75.164659 
L 186.79138 74.693028 
L 187.604032 73.100686 
L 188.416684 70.805561 
L 191.260967 61.832126 
L 192.073619 60.245751 
L 192.479945 59.751761 
L 192.886271 59.472847 
L 193.292598 59.411501 
L 193.698924 59.559389 
L 194.10525 59.903629 
L 194.917902 61.100353 
L 196.13688 63.709002 
L 197.762185 67.306246 
L 198.574837 68.555607 
L 198.981163 68.950182 
L 199.387489 69.167849 
L 199.793815 69.200667 
L 200.200141 69.045572 
L 200.606467 68.70845 
L 201.419119 67.539811 
L 202.231772 65.849666 
L 204.669728 60.149374 
L 205.48238 58.902773 
L 205.888706 58.496332 
L 206.295032 58.247179 
L 206.701359 58.154474 
L 207.107685 58.218564 
L 207.514011 58.43647 
L 208.326663 59.293344 
L 209.139315 60.592748 
L 211.577272 65.090486 
L 212.389924 66.052127 
L 212.79625 66.329926 
L 213.202576 66.457587 
L 213.608902 66.430295 
L 214.015228 66.245755 
L 214.82788 65.440039 
L 215.640532 64.149299 
L 217.265837 60.831921 
L 218.484815 58.556017 
L 219.297467 57.535029 
L 219.703793 57.232381 
L 220.110119 57.083596 
L 220.516446 57.09139 
L 220.922772 57.253463 
L 221.735424 58.010682 
L 222.548076 59.243777 
L 225.392359 64.371863 
L 226.205011 65.17814 
L 226.611337 65.371936 
L 227.017663 65.409482 
L 227.423989 65.292255 
L 227.830315 65.024364 
L 228.642967 64.075344 
L 229.45562 62.695027 
L 231.893576 58.039003 
L 232.706228 57.043738 
L 233.112554 56.744561 
L 233.51888 56.59199 
L 233.925207 56.594125 
L 234.331533 56.74461 
L 235.144185 57.470897 
L 235.956837 58.675837 
L 238.80112 63.764202 
L 239.613772 64.589256 
L 240.020098 64.791739 
L 240.426424 64.84481 
L 240.83275 64.745572 
L 241.239076 64.496314 
L 242.051728 63.585319 
L 242.86438 62.239068 
L 245.302337 57.620899 
L 246.114989 56.610387 
L 246.521315 56.300901 
L 246.927641 56.132189 
L 247.333967 56.112883 
L 247.740294 56.240937 
L 248.552946 56.912458 
L 249.365598 58.044369 
L 252.616207 63.376128 
L 253.428859 63.904472 
L 253.835185 63.957133 
L 254.241511 63.864417 
L 254.647837 63.626877 
L 255.460489 62.75891 
L 256.273141 61.472686 
L 258.711098 57.061339 
L 259.52375 56.089969 
L 259.930076 55.792187 
L 260.336402 55.633252 
L 260.742728 55.618494 
L 261.149054 55.746041 
L 261.961707 56.393243 
L 262.774359 57.471997 
L 266.024968 62.560134 
L 266.83762 63.092499 
L 267.243946 63.142426 
L 267.650272 63.045432 
L 268.056598 62.806068 
L 268.86925 61.927773 
L 269.681902 60.633771 
L 272.119859 56.215404 
L 272.932511 55.250858 
L 273.338837 54.957145 
L 273.745163 54.802481 
L 274.151489 54.795424 
L 274.557815 54.937111 
L 275.370468 55.633408 
L 276.18312 56.801998 
L 277.808424 59.833636 
L 279.027402 61.863889 
L 279.840055 62.717161 
L 280.246381 62.944586 
L 280.652707 63.023535 
L 281.059033 62.960809 
L 281.465359 62.74305 
L 282.278011 61.904891 
L 283.090663 60.634803 
L 285.934946 55.613343 
L 286.747598 54.855443 
L 287.153924 54.678646 
L 287.56025 54.644458 
L 287.966576 54.753649 
L 288.779229 55.368809 
L 289.591881 56.43176 
L 291.217185 59.255516 
L 292.436163 61.149857 
L 293.248816 61.973643 
L 293.655142 62.198745 
L 294.061468 62.293768 
L 294.467794 62.249985 
L 294.87412 62.068688 
L 295.686772 61.320038 
L 296.499424 60.16201 
L 299.343707 55.381119 
L 300.156359 54.600495 
L 300.562685 54.399913 
L 300.969011 54.333603 
L 301.375337 54.409831 
L 302.18799 54.957617 
L 303.000642 55.972976 
L 304.21962 58.015941 
L 305.844924 60.687815 
L 306.657577 61.558603 
L 307.470229 61.943172 
L 307.876555 61.928249 
L 308.282881 61.783095 
L 309.095533 61.099753 
L 309.908185 59.991315 
L 313.158794 54.836304 
L 313.971446 54.296523 
L 314.377772 54.224112 
L 314.784098 54.290578 
L 315.190424 54.497787 
L 316.003077 55.274263 
L 316.815729 56.431768 
L 319.253685 60.42269 
L 320.066337 61.288837 
L 320.87899 61.674837 
L 321.285316 61.667509 
L 321.691642 61.524901 
L 322.504294 60.858936 
L 323.316946 59.768198 
L 326.567555 54.679356 
L 327.380207 54.141421 
L 327.786533 54.06928 
L 328.192859 54.134143 
L 328.599185 54.330916 
L 329.411838 55.092701 
L 330.22449 56.24402 
L 333.068772 60.747888 
L 333.881425 61.408682 
L 334.287751 61.556953 
L 334.694077 61.575982 
L 335.100403 61.463799 
L 335.913055 60.86974 
L 336.725707 59.852767 
L 338.351011 57.179934 
L 339.56999 55.366546 
L 340.382642 54.596293 
L 340.788968 54.386131 
L 341.195294 54.306102 
L 341.60162 54.357885 
L 342.007946 54.538134 
L 342.820598 55.254945 
L 343.633251 56.354047 
L 346.477533 60.643002 
L 347.290185 61.265619 
L 347.696512 61.406562 
L 348.102838 61.405486 
L 348.509164 61.277631 
L 349.321816 60.647034 
L 350.134468 59.617911 
L 353.385077 54.709314 
L 354.197729 54.121836 
L 354.604055 54.007387 
L 355.010381 54.020559 
L 355.416707 54.158689 
L 356.229359 54.781889 
L 357.042012 55.781869 
L 359.886294 59.960519 
L 360.698946 60.630736 
L 361.105272 60.795991 
L 361.511599 60.83809 
L 361.917925 60.755042 
L 362.730577 60.22884 
L 363.543229 59.293444 
L 364.762207 57.42477 
L 366.387512 54.994389 
L 367.200164 54.195661 
L 368.012816 53.842108 
L 368.419142 53.851979 
L 368.825468 53.988503 
L 369.63812 54.611149 
L 370.450773 55.619256 
L 373.295055 59.827704 
L 374.107707 60.489574 
L 374.514033 60.644443 
L 374.92036 60.673786 
L 375.326686 60.577935 
L 376.139338 60.029528 
L 376.95199 59.077075 
L 378.577294 56.54695 
L 379.796273 54.837671 
L 380.608925 54.11031 
L 381.015251 53.911847 
L 381.421577 53.837547 
L 381.827903 53.889078 
L 382.640555 54.358251 
L 383.453207 55.252598 
L 384.672186 57.112823 
L 386.29749 59.591927 
L 387.110142 60.431329 
L 387.922794 60.832405 
L 388.32912 60.844936 
L 388.735447 60.728926 
L 389.548099 60.148051 
L 390.360751 59.15693 
L 391.986055 56.522821 
L 393.205034 54.697717 
L 394.017686 53.902077 
L 394.830338 53.568 
L 395.236664 53.593562 
L 395.64299 53.748641 
L 396.455642 54.420163 
L 397.268294 55.476218 
L 398.487273 57.455456 
L 398.487273 57.455456 
" style="fill:none;stroke:#1f77b4;stroke-linecap:square;stroke-width:1.5;"/>
   </g>
   <g id="line2d_19">
    <path clip-path="url(#p95d00f7a32)" d="M 73.832727 152.090076 
L 77.083336 138.828575 
L 77.895988 137.132599 
L 78.302314 136.718112 
L 78.70864 136.595147 
L 79.114966 136.764106 
L 79.521293 137.211063 
L 80.333945 138.810778 
L 81.552923 142.348969 
L 82.771901 145.995598 
L 83.584553 147.770352 
L 83.99088 148.325823 
L 84.397206 148.616495 
L 84.803532 148.623247 
L 85.209858 148.33483 
L 85.616184 147.752862 
L 86.02251 146.88709 
L 86.835162 144.396153 
L 88.05414 139.334261 
L 89.679445 132.256757 
L 90.492097 129.523549 
L 91.304749 127.776269 
L 91.711075 127.331661 
L 92.117401 127.184386 
L 92.523727 127.318241 
L 92.930053 127.730957 
L 93.742706 129.268799 
L 94.555358 131.490168 
L 96.180662 136.339485 
L 96.993314 138.108821 
L 97.39964 138.665294 
L 97.805967 138.959865 
L 98.212293 138.974793 
L 98.618619 138.719815 
L 99.024945 138.168518 
L 99.837597 136.198767 
L 100.650249 133.298538 
L 103.900858 119.899413 
L 104.71351 118.099423 
L 105.119836 117.622566 
L 105.526162 117.437024 
L 105.932488 117.544826 
L 106.338814 117.933841 
L 106.745141 118.568749 
L 107.557793 120.473446 
L 109.995749 127.454972 
L 110.402075 128.248523 
L 110.808401 128.786708 
L 111.214728 129.102326 
L 111.621054 129.128064 
L 112.02738 128.860933 
L 112.433706 128.310933 
L 112.840032 127.472152 
L 113.652684 125.04542 
L 114.871662 120.025301 
L 116.496967 112.870993 
L 117.309619 110.06127 
L 118.122271 108.197252 
L 118.528597 107.684388 
L 118.934923 107.4857 
L 119.341249 107.560678 
L 119.747575 107.921469 
L 120.153901 108.524763 
L 120.966554 110.36026 
L 123.810836 118.086174 
L 124.217162 118.668424 
L 124.623488 118.996739 
L 125.029815 119.034708 
L 125.436141 118.791204 
L 125.842467 118.269098 
L 126.248793 117.441034 
L 127.061445 115.022191 
L 128.280423 110.022514 
L 129.905728 102.854037 
L 130.71838 100.035611 
L 131.531032 98.148816 
L 131.937358 97.626343 
L 132.343684 97.384084 
L 132.75001 97.44214 
L 133.156336 97.777901 
L 133.562662 98.358258 
L 134.375315 100.164263 
L 137.219597 107.830009 
L 137.625923 108.410496 
L 138.032249 108.75053 
L 138.438575 108.808113 
L 138.844902 108.581949 
L 139.251228 108.07412 
L 139.657554 107.27956 
L 140.470206 104.905217 
L 141.689184 99.956809 
L 143.314489 92.861795 
L 144.127141 90.035261 
L 144.939793 88.135615 
L 145.346119 87.638976 
L 145.752445 87.384519 
L 146.158771 87.432467 
L 146.565097 87.758698 
L 146.971423 88.322638 
L 147.784076 90.064207 
L 150.222032 96.886871 
L 151.034684 98.269214 
L 151.44101 98.60003 
L 151.847336 98.667366 
L 152.253663 98.456869 
L 152.659989 97.973985 
L 153.066315 97.20012 
L 153.878967 94.918095 
L 154.691619 91.762286 
L 157.129576 81.593428 
L 157.942228 79.202507 
L 158.348554 78.305375 
L 158.75488 77.795128 
L 159.567532 77.659488 
L 160.380184 78.198151 
L 160.78651 79.022521 
L 164.037119 87.767533 
L 164.443445 88.382748 
L 164.849771 88.73533 
L 165.256097 88.830496 
L 165.662423 88.639465 
L 166.06875 88.168719 
L 166.475076 87.466311 
L 167.287728 85.201734 
L 168.10038 82.193941 
L 170.13201 73.823579 
L 171.350989 69.917967 
L 171.757315 68.980401 
L 172.163641 68.343401 
L 172.569967 67.974706 
L 172.976293 68.001678 
L 173.382619 68.261372 
L 173.788945 68.673448 
L 174.601597 70.004133 
L 177.44588 78.038582 
L 177.852206 78.76439 
L 178.258532 79.247546 
L 178.664858 79.460066 
L 179.071184 79.3868 
L 179.477511 79.02144 
L 179.883837 78.367921 
L 180.696489 76.263563 
L 181.509141 73.314713 
L 183.134445 66.714353 
L 183.947098 64.403565 
L 184.75975 62.712768 
L 185.572402 61.682179 
L 185.978728 61.601051 
L 186.385054 61.782284 
L 186.79138 62.21237 
L 187.197706 62.857457 
L 187.604032 63.089857 
L 188.416684 65.224284 
L 189.229337 67.407546 
L 190.448315 69.705924 
L 190.854641 70.308819 
L 191.260967 71.130246 
L 191.667293 71.435998 
L 192.479945 71.668818 
L 192.886271 71.571915 
L 193.292598 71.114254 
L 194.10525 69.66738 
L 194.511576 68.949245 
L 195.324228 66.797561 
L 197.762185 61.00712 
L 198.574837 59.626595 
L 198.981163 59.148764 
L 199.387489 58.8871 
L 199.793815 58.808663 
L 200.200141 58.914834 
L 200.606467 59.204055 
L 201.419119 60.228579 
L 202.231772 61.803809 
L 204.669728 67.010686 
L 205.076054 67.176168 
L 205.888706 67.062908 
L 207.107685 66.764834 
L 207.514011 66.503258 
L 208.326663 65.544414 
L 209.139315 64.124429 
L 211.983598 58.750746 
L 212.79625 57.978939 
L 213.202576 57.784365 
L 213.608902 57.770711 
L 214.015228 57.913144 
L 214.82788 58.629913 
L 216.453185 60.970233 
L 217.265837 62.464467 
L 218.484815 64.576994 
L 219.297467 65.493534 
L 219.703793 65.729538 
L 220.110119 65.800452 
L 220.516446 65.712911 
L 220.922772 65.501901 
L 221.735424 64.718025 
L 222.548076 63.32919 
L 225.392359 57.962212 
L 226.205011 57.087328 
L 226.611337 56.873692 
L 227.017663 56.806736 
L 227.423989 56.887811 
L 228.236641 57.497769 
L 229.049293 58.59252 
L 231.080924 62.486964 
L 232.299902 64.313861 
L 233.112554 64.99183 
L 233.51888 65.061352 
L 234.331533 64.824825 
L 234.737859 64.571142 
L 235.550511 63.526188 
L 236.769489 61.293941 
L 238.394793 58.157013 
L 239.207446 57.050737 
L 240.020098 56.440481 
L 240.426424 56.357741 
L 240.83275 56.425415 
L 241.239076 56.63557 
L 242.051728 57.465339 
L 242.86438 58.755465 
L 244.489685 61.902007 
L 245.302337 63.165945 
L 246.114989 64.116119 
L 246.521315 64.299157 
L 247.333967 64.301197 
L 247.740294 64.145001 
L 248.552946 63.409172 
L 249.365598 62.211695 
L 250.17825 60.733639 
L 250.990902 58.948057 
L 252.209881 56.944706 
L 253.022533 56.137603 
L 253.835185 55.833304 
L 254.647837 56.096113 
L 255.460489 56.908031 
L 256.273141 58.165257 
L 258.711098 62.414237 
L 259.52375 63.323259 
L 260.336402 63.65129 
L 260.742728 63.535675 
L 261.149054 63.240846 
L 261.555381 62.76471 
L 261.961707 62.534056 
L 262.774359 61.403655 
L 263.180685 60.725011 
L 263.993337 59.067742 
L 265.212315 57.300669 
L 265.618641 56.62923 
L 266.024968 56.247856 
L 266.431294 55.257178 
L 267.243946 54.917669 
L 267.650272 55.001287 
L 268.056598 55.231384 
L 268.86925 56.097066 
L 270.088228 58.100348 
L 271.307207 60.308721 
L 272.932511 62.526411 
L 273.745163 62.950139 
L 274.151489 62.991885 
L 274.557815 62.876714 
L 274.964142 62.619016 
L 275.776794 61.690787 
L 276.995772 59.558316 
L 278.621076 56.521518 
L 279.433729 55.422451 
L 280.246381 54.809267 
L 280.652707 54.725095 
L 281.059033 54.781391 
L 281.465359 54.987506 
L 282.278011 55.804837 
L 283.090663 57.065361 
L 285.52862 61.422927 
L 285.934946 61.975879 
L 286.747598 62.538314 
L 287.153924 62.611957 
L 287.56025 62.544473 
L 287.966576 62.338516 
L 288.779229 61.613306 
L 289.591881 60.537651 
L 290.810859 58.397692 
L 292.029837 56.362538 
L 292.842489 55.331946 
L 293.655142 54.735255 
L 294.061468 54.623973 
L 294.467794 54.655339 
L 294.87412 54.799365 
L 295.686772 55.533921 
L 296.499424 56.552112 
L 299.343707 61.055463 
L 300.156359 61.829394 
L 300.562685 62.019118 
L 300.969011 62.082671 
L 301.375337 61.990661 
L 301.781663 61.777009 
L 302.594316 60.974267 
L 305.844924 55.587859 
L 306.657577 54.704141 
L 307.470229 54.307991 
L 307.876555 54.30626 
L 308.282881 54.442187 
L 309.095533 55.117144 
L 309.908185 56.202495 
L 313.158794 61.314609 
L 313.971446 61.84428 
L 314.377772 61.889343 
L 314.784098 61.812803 
L 315.190424 61.57416 
L 316.409403 60.110089 
L 317.628381 58.109424 
L 319.253685 55.468359 
L 320.066337 54.585067 
L 320.87899 54.183863 
L 321.691642 54.295934 
L 322.504294 54.904779 
L 323.316946 56.0068 
L 326.567555 61.037122 
L 327.380207 61.570017 
L 327.786533 61.634504 
L 328.192859 61.550461 
L 329.005511 61.031931 
L 329.818164 60.026601 
L 331.037142 58.022036 
L 332.662446 55.34535 
L 333.475098 54.735617 
L 334.287751 54.330073 
L 335.100403 54.384519 
L 335.506729 54.621219 
L 336.319381 55.450944 
L 337.132033 56.634335 
L 339.56999 60.614528 
L 340.382642 61.37535 
L 340.788968 61.565973 
L 341.195294 61.632604 
L 341.60162 61.565703 
L 342.414272 61.039747 
L 342.820598 60.590631 
L 346.477533 54.99604 
L 347.290185 54.356941 
L 347.696512 54.219301 
L 348.102838 54.208245 
L 348.509164 54.336247 
L 349.321816 54.972435 
L 350.540794 56.623579 
L 351.353446 57.949779 
L 351.759772 58.178007 
L 352.978751 59.960623 
L 353.791403 60.774313 
L 354.604055 61.088403 
L 355.823033 60.497112 
L 356.635686 59.649392 
L 357.854664 57.83767 
L 359.479968 55.317723 
L 360.29262 54.43898 
L 361.105272 53.965748 
L 361.511599 53.89566 
L 361.917925 53.963192 
L 362.324251 54.161914 
L 363.136903 54.907211 
L 363.949555 55.971566 
L 366.387512 59.637536 
L 367.200164 60.449399 
L 368.012816 60.820435 
L 368.419142 60.803417 
L 369.231794 60.419243 
L 370.044446 59.577225 
L 370.857099 58.388361 
L 373.295055 54.529491 
L 373.701381 54.092478 
L 374.514033 53.690574 
L 375.326686 53.776992 
L 376.139338 54.336675 
L 376.95199 55.334836 
L 380.202599 60.2364 
L 381.015251 60.773849 
L 381.421577 60.850993 
L 381.827903 60.803176 
L 382.640555 60.335641 
L 383.453207 59.462914 
L 384.672186 57.582761 
L 386.29749 55.082729 
L 387.110142 54.232465 
L 387.922794 53.827002 
L 388.32912 53.811257 
L 388.735447 53.922171 
L 389.954425 54.689077 
L 391.173403 56.502132 
L 392.798707 59.138343 
L 393.61136 60.116985 
L 394.424012 60.676606 
L 394.830338 60.772151 
L 395.236664 60.736068 
L 396.049316 60.27291 
L 396.861968 59.376834 
L 398.080947 57.495014 
L 398.487273 56.803778 
L 398.487273 56.803778 
" style="fill:none;stroke:#ff0000;stroke-linecap:square;stroke-width:1.5;"/>
   </g>
   <g id="line2d_20">
    <path clip-path="url(#p95d00f7a32)" d="M 73.832727 270.896674 
L 76.67701 291.056705 
L 77.489662 294.370248 
L 77.895988 295.223544 
L 78.302314 295.488 
L 78.70864 295.16406 
L 79.114966 294.257141 
L 79.521293 292.797892 
L 80.333945 288.465343 
L 81.552923 279.687615 
L 82.771901 270.695786 
L 83.584553 266.012371 
L 83.99088 264.333891 
L 84.397206 263.183483 
L 84.803532 262.601773 
L 85.209858 262.609376 
L 85.616184 263.205347 
L 86.02251 264.368017 
L 86.835162 268.209881 
L 87.647814 273.585126 
L 89.679445 288.458967 
L 90.492097 292.759078 
L 90.898423 294.194369 
L 91.304749 295.083597 
L 91.711075 295.389708 
L 92.117401 295.103727 
L 92.523727 294.245369 
L 92.930053 292.833037 
L 93.742706 288.582597 
L 94.961684 279.894339 
L 96.180662 270.925542 
L 96.993314 266.2155 
L 97.39964 264.513928 
L 97.805967 263.334853 
L 98.212293 262.717001 
L 98.618619 262.661753 
L 99.024945 263.196272 
L 99.431271 264.3233 
L 99.837597 265.963483 
L 100.650249 270.586514 
L 102.275554 282.585744 
L 103.494532 290.652338 
L 104.307184 294.103566 
L 104.71351 295.037956 
L 105.119836 295.397089 
L 105.526162 295.159551 
L 105.932488 294.341635 
L 106.338814 292.966053 
L 107.151467 288.760886 
L 108.370445 280.098345 
L 109.589423 271.09702 
L 110.402075 266.335076 
L 111.214728 263.397132 
L 111.621054 262.736596 
L 112.02738 262.662277 
L 112.433706 263.16493 
L 112.840032 264.240273 
L 113.246358 265.838924 
L 114.05901 270.372438 
L 115.277988 279.246439 
L 116.496967 288.02405 
L 117.309619 292.427866 
L 117.715945 293.944754 
L 118.122271 294.923269 
L 118.528597 295.330797 
L 118.934923 295.129197 
L 119.341249 294.361958 
L 119.747575 293.033425 
L 120.560228 288.935644 
L 121.779206 280.37207 
L 123.40451 268.783982 
L 124.217162 264.785095 
L 124.623488 263.517965 
L 125.029815 262.819236 
L 125.436141 262.692847 
L 125.842467 263.137464 
L 126.248793 264.173539 
L 126.655119 265.73564 
L 127.467771 270.215977 
L 128.686749 279.010845 
L 129.905728 287.800257 
L 130.71838 292.223038 
L 131.124706 293.759847 
L 131.531032 294.766991 
L 131.937358 295.200713 
L 132.343684 295.062564 
L 132.75001 294.334229 
L 133.156336 293.051326 
L 133.968989 289.023898 
L 135.187967 280.56993 
L 136.813271 269.017487 
L 137.625923 265.004108 
L 138.032249 263.708726 
L 138.438575 262.971553 
L 138.844902 262.805718 
L 139.251228 263.211823 
L 139.657554 264.188756 
L 140.06388 265.699037 
L 140.876532 270.095372 
L 142.09551 278.791719 
L 143.314489 287.505388 
L 144.127141 291.952446 
L 144.533467 293.509382 
L 144.939793 294.544082 
L 145.346119 294.976616 
L 145.752445 294.877763 
L 146.158771 294.190968 
L 146.565097 292.952173 
L 147.377749 289.049595 
L 148.190402 283.694039 
L 150.222032 269.315475 
L 151.034684 265.322824 
L 151.44101 264.039606 
L 151.847336 263.288691 
L 152.253663 263.097899 
L 152.659989 263.465067 
L 153.066315 264.404767 
L 153.472641 265.853604 
L 154.285293 270.095809 
L 155.910597 281.646832 
L 157.129576 289.596396 
L 157.942228 293.173388 
L 158.348554 294.294067 
L 158.75488 294.752475 
L 159.161206 294.510401 
L 159.567532 293.938322 
L 160.380184 291.383426 
L 161.192837 286.55109 
L 164.037119 267.243272 
L 164.443445 265.43477 
L 164.849771 264.134579 
L 165.256097 263.358331 
L 165.662423 263.149912 
L 166.06875 263.50639 
L 166.475076 264.372041 
L 166.881402 265.820737 
L 167.694054 269.990776 
L 169.319358 280.983636 
L 170.13201 286.829162 
L 170.944663 291.338998 
L 171.757315 294.21713 
L 172.163641 294.869579 
L 172.569967 294.966344 
L 172.976293 294.381207 
L 173.382619 293.286051 
L 174.195271 289.862076 
L 175.007924 284.764082 
L 177.44588 267.568266 
L 178.258532 264.037779 
L 178.664858 263.052983 
L 179.071184 262.640721 
L 179.477511 262.813912 
L 179.883837 263.565979 
L 180.290163 264.865461 
L 181.102815 268.915189 
L 181.915467 274.408597 
L 183.134445 283.037777 
L 183.947098 287.573786 
L 184.75975 290.874422 
L 185.572402 292.665457 
L 185.978728 292.763872 
L 186.385054 292.351784 
L 186.79138 291.450067 
L 187.604032 288.980238 
L 188.416684 284.550686 
L 189.635663 277.445007 
L 191.260967 269.67129 
L 192.073619 267.61276 
L 192.479945 267.052352 
L 192.886271 266.870341 
L 193.292598 267.266656 
L 193.698924 268.050471 
L 194.511576 270.445685 
L 197.762185 285.268535 
L 198.574837 287.89842 
L 198.981163 288.770826 
L 199.387489 289.250158 
L 199.793815 289.361414 
L 200.200141 289.100147 
L 200.606467 288.473805 
L 201.012793 287.529902 
L 201.825445 284.751987 
L 203.044424 279.190518 
L 204.263402 273.547028 
L 204.669728 272.108097 
L 205.076054 271.248522 
L 205.48238 270.697575 
L 205.888706 270.402833 
L 206.701359 270.217545 
L 207.107685 270.423139 
L 207.514011 270.902622 
L 207.920337 271.687066 
L 208.732989 273.973638 
L 209.951967 278.605453 
L 211.170946 283.358223 
L 211.983598 285.852212 
L 212.389924 286.720555 
L 212.79625 287.320396 
L 213.202576 287.642631 
L 213.608902 287.628993 
L 214.015228 287.30202 
L 214.421554 286.671784 
L 215.234206 284.636861 
L 216.453185 280.542724 
L 217.672163 275.74167 
L 218.484815 272.948432 
L 219.297467 271.010904 
L 219.703793 270.472252 
L 220.110119 270.252553 
L 220.516446 270.347887 
L 220.922772 270.720971 
L 221.735424 272.262066 
L 222.548076 274.883996 
L 225.392359 285.379061 
L 226.205011 287.060221 
L 226.611337 287.467653 
L 227.017663 287.572154 
L 227.423989 287.373853 
L 227.830315 286.84669 
L 228.236641 286.084925 
L 229.049293 283.806006 
L 231.893576 273.22202 
L 232.706228 271.293348 
L 233.112554 270.722139 
L 233.51888 270.500047 
L 233.925207 270.567029 
L 234.331533 270.889194 
L 234.737859 271.440973 
L 235.550511 273.465712 
L 236.769489 277.852191 
L 238.394793 283.988597 
L 239.207446 286.159123 
L 239.613772 286.881926 
L 240.020098 287.320666 
L 240.426424 287.456478 
L 240.83275 287.289565 
L 241.239076 286.830153 
L 241.645402 286.094616 
L 242.458054 283.868675 
L 243.677033 279.257732 
L 244.896011 274.645531 
L 245.708663 272.324592 
L 246.114989 271.463677 
L 246.521315 270.971153 
L 246.927641 270.774343 
L 247.333967 270.781095 
L 247.740294 271.065345 
L 248.14662 271.637109 
L 248.959272 273.540393 
L 249.771924 276.214839 
L 252.209881 284.94379 
L 253.022533 286.540408 
L 253.428859 286.950318 
L 253.835185 287.093238 
L 254.241511 286.924362 
L 254.647837 286.500173 
L 255.460489 284.820288 
L 256.273141 282.276838 
L 258.711098 273.616511 
L 259.52375 271.73612 
L 259.930076 271.250561 
L 260.336402 270.951371 
L 260.742728 271.052228 
L 261.149054 271.474604 
L 262.368033 273.839401 
L 263.180685 276.374671 
L 263.993337 279.452621 
L 265.618641 284.452527 
L 266.024968 285.281687 
L 266.431294 286.607506 
L 266.83762 287.014836 
L 267.243946 287.194166 
L 267.650272 287.013553 
L 268.056598 286.544093 
L 268.462924 285.796312 
L 269.275576 283.593848 
L 270.494555 279.207223 
L 271.713533 274.955787 
L 272.526185 272.536088 
L 272.932511 271.693856 
L 273.338837 271.123911 
L 273.745163 270.821751 
L 274.151489 270.772948 
L 274.557815 271.029806 
L 274.964142 271.569808 
L 275.370468 272.377624 
L 276.18312 274.723293 
L 277.808424 280.831315 
L 279.027402 284.916754 
L 279.840055 286.635973 
L 280.246381 287.104728 
L 280.652707 287.267849 
L 281.059033 287.148827 
L 281.465359 286.724953 
L 281.871685 286.020752 
L 282.684337 283.890641 
L 283.903316 279.484009 
L 285.122294 274.960487 
L 285.934946 272.606873 
L 286.341272 271.812598 
L 286.747598 271.286538 
L 287.153924 271.036098 
L 287.56025 271.069393 
L 287.966576 271.384541 
L 288.779229 272.724912 
L 289.591881 274.863518 
L 290.810859 279.102198 
L 292.029837 283.19531 
L 292.842489 285.254875 
L 293.248816 285.972511 
L 293.655142 286.432899 
L 294.061468 286.639204 
L 294.467794 286.564055 
L 294.87412 286.238733 
L 295.280446 285.620884 
L 296.093098 283.742084 
L 296.90575 281.222317 
L 299.343707 273.295065 
L 300.156359 271.740511 
L 300.562685 271.350204 
L 300.969011 271.22034 
L 301.375337 271.388579 
L 301.781663 271.813966 
L 302.594316 273.409049 
L 304.21962 278.707318 
L 305.438598 282.88829 
L 306.25125 285.061271 
L 306.657577 285.823871 
L 307.063903 286.34482 
L 307.470229 286.60459 
L 307.876555 286.591398 
L 308.282881 286.310317 
L 308.689207 285.754512 
L 309.501859 283.945384 
L 310.314511 281.425857 
L 312.752468 273.386013 
L 313.56512 271.823987 
L 313.971446 271.421652 
L 314.377772 271.304178 
L 314.784098 271.447185 
L 315.190424 271.893036 
L 316.003077 273.591902 
L 316.815729 275.913031 
L 319.253685 283.92374 
L 320.066337 285.673179 
L 320.472664 286.19636 
L 320.87899 286.460384 
L 321.285316 286.451254 
L 321.691642 286.198376 
L 322.097968 285.658855 
L 322.504294 284.923567 
L 323.316946 282.730807 
L 326.567555 272.611643 
L 326.973881 271.945918 
L 327.380207 271.540813 
L 327.786533 271.404185 
L 328.192859 271.553092 
L 328.599185 271.952236 
L 329.005511 272.592691 
L 329.818164 274.571397 
L 331.037142 278.568592 
L 332.25612 282.700177 
L 333.068772 284.748099 
L 333.881425 285.897393 
L 334.287751 286.196289 
L 334.694077 286.241962 
L 335.100403 286.048689 
L 335.506729 285.573692 
L 336.319381 283.923414 
L 337.132033 281.564002 
L 339.56999 273.721427 
L 340.382642 272.190352 
L 340.788968 271.789568 
L 341.195294 271.642907 
L 341.60162 271.76159 
L 342.007946 272.163346 
L 342.414272 272.771722 
L 342.820598 273.633723 
L 344.039577 277.253096 
L 346.071207 283.643151 
L 346.883859 285.361275 
L 347.290185 285.878087 
L 347.696512 286.156671 
L 348.102838 286.166651 
L 348.509164 285.910793 
L 348.91549 285.382686 
L 349.728142 283.678519 
L 350.94712 280.032628 
L 351.353446 278.67006 
L 351.759772 277.764696 
L 352.978751 274.174094 
L 353.791403 272.551554 
L 354.197729 272.105581 
L 354.604055 271.888394 
L 355.416707 272.369334 
L 355.823033 272.887882 
L 356.635686 274.562571 
L 357.854664 278.151348 
L 359.479968 283.131689 
L 360.29262 284.87888 
L 360.698946 285.45735 
L 361.105272 285.799651 
L 361.511599 285.911839 
L 361.917925 285.761259 
L 362.324251 285.357008 
L 363.136903 283.867465 
L 363.949555 281.709643 
L 366.387512 274.326262 
L 367.200164 272.715671 
L 367.60649 272.24169 
L 368.012816 271.991081 
L 368.419142 272.017971 
L 368.825468 272.295852 
L 369.231794 272.794189 
L 370.044446 274.465299 
L 370.857099 276.805682 
L 373.295055 284.267622 
L 373.701381 285.091832 
L 374.107707 285.632497 
L 374.514033 285.923278 
L 374.92036 285.964369 
L 375.326686 285.770352 
L 375.733012 285.319584 
L 376.139338 284.662262 
L 376.95199 282.711648 
L 378.577294 277.532023 
L 379.796273 273.995288 
L 380.608925 272.506394 
L 381.015251 272.107407 
L 381.421577 271.955964 
L 381.827903 272.055311 
L 382.234229 272.405112 
L 382.640555 272.992019 
L 383.453207 274.759093 
L 384.672186 278.499471 
L 386.29749 283.478607 
L 387.110142 285.168273 
L 387.516468 285.689641 
L 387.922794 285.974811 
L 388.32912 286.003088 
L 388.735447 285.776164 
L 389.141773 285.276045 
L 389.954425 283.979486 
L 390.767077 281.674045 
L 393.205034 273.991546 
L 394.017686 272.415724 
L 394.424012 271.96771 
L 394.830338 271.765258 
L 395.236664 271.826903 
L 395.64299 272.17002 
L 396.049316 272.728149 
L 396.861968 274.5009 
L 398.080947 278.250784 
L 398.487273 279.621087 
L 398.487273 279.621087 
" style="fill:none;stroke:#008000;stroke-linecap:square;stroke-width:1.5;"/>
   </g>
   <g id="patch_3">
    <path d="M 57.6 307.584 
L 57.6 41.472 
" style="fill:none;stroke:#000000;stroke-linecap:square;stroke-linejoin:miter;stroke-width:0.8;"/>
   </g>
   <g id="patch_4">
    <path d="M 414.72 307.584 
L 414.72 41.472 
" style="fill:none;stroke:#000000;stroke-linecap:square;stroke-linejoin:miter;stroke-width:0.8;"/>
   </g>
   <g id="patch_5">
    <path d="M 57.6 307.584 
L 414.72 307.584 
" style="fill:none;stroke:#000000;stroke-linecap:square;stroke-linejoin:miter;stroke-width:0.8;"/>
   </g>
   <g id="patch_6">
    <path d="M 57.6 41.472 
L 414.72 41.472 
" style="fill:none;stroke:#000000;stroke-linecap:square;stroke-linejoin:miter;stroke-width:0.8;"/>
   </g>
   <g id="legend_1">
    <g id="patch_7">
     <path d="M 64.6 93.506375 
L 121.3125 93.506375 
Q 123.3125 93.506375 123.3125 91.506375 
L 123.3125 48.472 
Q 123.3125 46.472 121.3125 46.472 
L 64.6 46.472 
Q 62.6 46.472 62.6 48.472 
L 62.6 91.506375 
Q 62.6 93.506375 64.6 93.506375 
z
" style="fill:#ffffff;opacity:0.8;stroke:#cccccc;stroke-linejoin:miter;"/>
    </g>
    <g id="line2d_21">
     <path d="M 66.6 54.570438 
L 86.6 54.570438 
" style="fill:none;stroke:#1f77b4;stroke-linecap:square;stroke-width:1.5;"/>
    </g>
    <g id="line2d_22"/>
    <g id="text_18">
     <!-- 0-&gt;1 -->
     <defs>
      <path d="M 4.890625 31.390625 
L 31.203125 31.390625 
L 31.203125 23.390625 
L 4.890625 23.390625 
z
" id="DejaVuSans-45"/>
      <path d="M 10.59375 49.21875 
L 10.59375 58.109375 
L 73.1875 35.40625 
L 73.1875 27.296875 
L 10.59375 4.59375 
L 10.59375 13.484375 
L 60.890625 31.296875 
z
" id="DejaVuSans-62"/>
     </defs>
     <g transform="translate(94.6 58.070438)scale(0.1 -0.1)">
      <use xlink:href="#DejaVuSans-48"/>
      <use x="63.623047" xlink:href="#DejaVuSans-45"/>
      <use x="99.707031" xlink:href="#DejaVuSans-62"/>
      <use x="183.496094" xlink:href="#DejaVuSans-49"/>
     </g>
    </g>
    <g id="line2d_23">
     <path d="M 66.6 69.248563 
L 86.6 69.248563 
" style="fill:none;stroke:#ff0000;stroke-linecap:square;stroke-width:1.5;"/>
    </g>
    <g id="line2d_24"/>
    <g id="text_19">
     <!-- 1-&gt;0 -->
     <g transform="translate(94.6 72.748563)scale(0.1 -0.1)">
      <use xlink:href="#DejaVuSans-49"/>
      <use x="63.623047" xlink:href="#DejaVuSans-45"/>
      <use x="99.707031" xlink:href="#DejaVuSans-62"/>
      <use x="183.496094" xlink:href="#DejaVuSans-48"/>
     </g>
    </g>
    <g id="line2d_25">
     <path d="M 66.6 83.926688 
L 86.6 83.926688 
" style="fill:none;stroke:#008000;stroke-linecap:square;stroke-width:1.5;"/>
    </g>
    <g id="line2d_26"/>
    <g id="text_20">
     <!-- diff -->
     <defs>
      <path d="M 45.40625 46.390625 
L 45.40625 75.984375 
L 54.390625 75.984375 
L 54.390625 0 
L 45.40625 0 
L 45.40625 8.203125 
Q 42.578125 3.328125 38.25 0.953125 
Q 33.9375 -1.421875 27.875 -1.421875 
Q 17.96875 -1.421875 11.734375 6.484375 
Q 5.515625 14.40625 5.515625 27.296875 
Q 5.515625 40.1875 11.734375 48.09375 
Q 17.96875 56 27.875 56 
Q 33.9375 56 38.25 53.625 
Q 42.578125 51.265625 45.40625 46.390625 
z
M 14.796875 27.296875 
Q 14.796875 17.390625 18.875 11.75 
Q 22.953125 6.109375 30.078125 6.109375 
Q 37.203125 6.109375 41.296875 11.75 
Q 45.40625 17.390625 45.40625 27.296875 
Q 45.40625 37.203125 41.296875 42.84375 
Q 37.203125 48.484375 30.078125 48.484375 
Q 22.953125 48.484375 18.875 42.84375 
Q 14.796875 37.203125 14.796875 27.296875 
z
" id="DejaVuSans-100"/>
      <path d="M 9.421875 54.6875 
L 18.40625 54.6875 
L 18.40625 0 
L 9.421875 0 
z
M 9.421875 75.984375 
L 18.40625 75.984375 
L 18.40625 64.59375 
L 9.421875 64.59375 
z
" id="DejaVuSans-105"/>
      <path d="M 37.109375 75.984375 
L 37.109375 68.5 
L 28.515625 68.5 
Q 23.6875 68.5 21.796875 66.546875 
Q 19.921875 64.59375 19.921875 59.515625 
L 19.921875 54.6875 
L 34.71875 54.6875 
L 34.71875 47.703125 
L 19.921875 47.703125 
L 19.921875 0 
L 10.890625 0 
L 10.890625 47.703125 
L 2.296875 47.703125 
L 2.296875 54.6875 
L 10.890625 54.6875 
L 10.890625 58.5 
Q 10.890625 67.625 15.140625 71.796875 
Q 19.390625 75.984375 28.609375 75.984375 
z
" id="DejaVuSans-102"/>
     </defs>
     <g transform="translate(94.6 87.426688)scale(0.1 -0.1)">
      <use xlink:href="#DejaVuSans-100"/>
      <use x="63.476562" xlink:href="#DejaVuSans-105"/>
      <use x="91.259766" xlink:href="#DejaVuSans-102"/>
      <use x="126.464844" xlink:href="#DejaVuSans-102"/>
     </g>
    </g>
   </g>
  </g>
 </g>
 <defs>
  <clipPath id="p95d00f7a32">
   <rect height="266.112" width="357.12" x="57.6" y="41.472"/>
  </clipPath>
 </defs>
</svg>
