<?xml version="1.0" encoding="utf-8" standalone="no"?>
<!DOCTYPE svg PUBLIC "-//W3C//DTD SVG 1.1//EN"
  "http://www.w3.org/Graphics/SVG/1.1/DTD/svg11.dtd">
<!-- Created with matplotlib (https://matplotlib.org/) -->
<svg height="345.6pt" version="1.1" viewBox="0 0 460.8 345.6" width="460.8pt" xmlns="http://www.w3.org/2000/svg" xmlns:xlink="http://www.w3.org/1999/xlink">
 <defs>
  <style type="text/css">
*{stroke-linecap:butt;stroke-linejoin:round;}
  </style>
 </defs>
 <g id="figure_1">
  <g id="patch_1">
   <path d="M 0 345.6 
L 460.8 345.6 
L 460.8 0 
L 0 0 
z
" style="fill:#ffffff;"/>
  </g>
  <g id="axes_1">
   <g id="patch_2">
    <path d="M 57.6 307.584 
L 414.72 307.584 
L 414.72 41.472 
L 57.6 41.472 
z
" style="fill:#ffffff;"/>
   </g>
   <g id="matplotlib.axis_1">
    <g id="xtick_1">
     <g id="line2d_1">
      <defs>
       <path d="M 0 0 
L 0 3.5 
" id="mb5ddea06ed" style="stroke:#000000;stroke-width:0.8;"/>
      </defs>
      <g>
       <use style="stroke:#000000;stroke-width:0.8;" x="73.832727" xlink:href="#mb5ddea06ed" y="307.584"/>
      </g>
     </g>
     <g id="text_1">
      <!-- 0 -->
      <defs>
       <path d="M 31.78125 66.40625 
Q 24.171875 66.40625 20.328125 58.90625 
Q 16.5 51.421875 16.5 36.375 
Q 16.5 21.390625 20.328125 13.890625 
Q 24.171875 6.390625 31.78125 6.390625 
Q 39.453125 6.390625 43.28125 13.890625 
Q 47.125 21.390625 47.125 36.375 
Q 47.125 51.421875 43.28125 58.90625 
Q 39.453125 66.40625 31.78125 66.40625 
z
M 31.78125 74.21875 
Q 44.046875 74.21875 50.515625 64.515625 
Q 56.984375 54.828125 56.984375 36.375 
Q 56.984375 17.96875 50.515625 8.265625 
Q 44.046875 -1.421875 31.78125 -1.421875 
Q 19.53125 -1.421875 13.0625 8.265625 
Q 6.59375 17.96875 6.59375 36.375 
Q 6.59375 54.828125 13.0625 64.515625 
Q 19.53125 74.21875 31.78125 74.21875 
z
" id="DejaVuSans-48"/>
      </defs>
      <g transform="translate(70.651477 322.182437)scale(0.1 -0.1)">
       <use xlink:href="#DejaVuSans-48"/>
      </g>
     </g>
    </g>
    <g id="xtick_2">
     <g id="line2d_2">
      <g>
       <use style="stroke:#000000;stroke-width:0.8;" x="114.465336" xlink:href="#mb5ddea06ed" y="307.584"/>
      </g>
     </g>
     <g id="text_2">
      <!-- 100 -->
      <defs>
       <path d="M 12.40625 8.296875 
L 28.515625 8.296875 
L 28.515625 63.921875 
L 10.984375 60.40625 
L 10.984375 69.390625 
L 28.421875 72.90625 
L 38.28125 72.90625 
L 38.28125 8.296875 
L 54.390625 8.296875 
L 54.390625 0 
L 12.40625 0 
z
" id="DejaVuSans-49"/>
      </defs>
      <g transform="translate(104.921586 322.182437)scale(0.1 -0.1)">
       <use xlink:href="#DejaVuSans-49"/>
       <use x="63.623047" xlink:href="#DejaVuSans-48"/>
       <use x="127.246094" xlink:href="#DejaVuSans-48"/>
      </g>
     </g>
    </g>
    <g id="xtick_3">
     <g id="line2d_3">
      <g>
       <use style="stroke:#000000;stroke-width:0.8;" x="155.097945" xlink:href="#mb5ddea06ed" y="307.584"/>
      </g>
     </g>
     <g id="text_3">
      <!-- 200 -->
      <defs>
       <path d="M 19.1875 8.296875 
L 53.609375 8.296875 
L 53.609375 0 
L 7.328125 0 
L 7.328125 8.296875 
Q 12.9375 14.109375 22.625 23.890625 
Q 32.328125 33.6875 34.8125 36.53125 
Q 39.546875 41.84375 41.421875 45.53125 
Q 43.3125 49.21875 43.3125 52.78125 
Q 43.3125 58.59375 39.234375 62.25 
Q 35.15625 65.921875 28.609375 65.921875 
Q 23.96875 65.921875 18.8125 64.3125 
Q 13.671875 62.703125 7.8125 59.421875 
L 7.8125 69.390625 
Q 13.765625 71.78125 18.9375 73 
Q 24.125 74.21875 28.421875 74.21875 
Q 39.75 74.21875 46.484375 68.546875 
Q 53.21875 62.890625 53.21875 53.421875 
Q 53.21875 48.921875 51.53125 44.890625 
Q 49.859375 40.875 45.40625 35.40625 
Q 44.1875 33.984375 37.640625 27.21875 
Q 31.109375 20.453125 19.1875 8.296875 
z
" id="DejaVuSans-50"/>
      </defs>
      <g transform="translate(145.554195 322.182437)scale(0.1 -0.1)">
       <use xlink:href="#DejaVuSans-50"/>
       <use x="63.623047" xlink:href="#DejaVuSans-48"/>
       <use x="127.246094" xlink:href="#DejaVuSans-48"/>
      </g>
     </g>
    </g>
    <g id="xtick_4">
     <g id="line2d_4">
      <g>
       <use style="stroke:#000000;stroke-width:0.8;" x="195.730554" xlink:href="#mb5ddea06ed" y="307.584"/>
      </g>
     </g>
     <g id="text_4">
      <!-- 300 -->
      <defs>
       <path d="M 40.578125 39.3125 
Q 47.65625 37.796875 51.625 33 
Q 55.609375 28.21875 55.609375 21.1875 
Q 55.609375 10.40625 48.1875 4.484375 
Q 40.765625 -1.421875 27.09375 -1.421875 
Q 22.515625 -1.421875 17.65625 -0.515625 
Q 12.796875 0.390625 7.625 2.203125 
L 7.625 11.71875 
Q 11.71875 9.328125 16.59375 8.109375 
Q 21.484375 6.890625 26.8125 6.890625 
Q 36.078125 6.890625 40.9375 10.546875 
Q 45.796875 14.203125 45.796875 21.1875 
Q 45.796875 27.640625 41.28125 31.265625 
Q 36.765625 34.90625 28.71875 34.90625 
L 20.21875 34.90625 
L 20.21875 43.015625 
L 29.109375 43.015625 
Q 36.375 43.015625 40.234375 45.921875 
Q 44.09375 48.828125 44.09375 54.296875 
Q 44.09375 59.90625 40.109375 62.90625 
Q 36.140625 65.921875 28.71875 65.921875 
Q 24.65625 65.921875 20.015625 65.03125 
Q 15.375 64.15625 9.8125 62.3125 
L 9.8125 71.09375 
Q 15.4375 72.65625 20.34375 73.4375 
Q 25.25 74.21875 29.59375 74.21875 
Q 40.828125 74.21875 47.359375 69.109375 
Q 53.90625 64.015625 53.90625 55.328125 
Q 53.90625 49.265625 50.4375 45.09375 
Q 46.96875 40.921875 40.578125 39.3125 
z
" id="DejaVuSans-51"/>
      </defs>
      <g transform="translate(186.186804 322.182437)scale(0.1 -0.1)">
       <use xlink:href="#DejaVuSans-51"/>
       <use x="63.623047" xlink:href="#DejaVuSans-48"/>
       <use x="127.246094" xlink:href="#DejaVuSans-48"/>
      </g>
     </g>
    </g>
    <g id="xtick_5">
     <g id="line2d_5">
      <g>
       <use style="stroke:#000000;stroke-width:0.8;" x="236.363163" xlink:href="#mb5ddea06ed" y="307.584"/>
      </g>
     </g>
     <g id="text_5">
      <!-- 400 -->
      <defs>
       <path d="M 37.796875 64.3125 
L 12.890625 25.390625 
L 37.796875 25.390625 
z
M 35.203125 72.90625 
L 47.609375 72.90625 
L 47.609375 25.390625 
L 58.015625 25.390625 
L 58.015625 17.1875 
L 47.609375 17.1875 
L 47.609375 0 
L 37.796875 0 
L 37.796875 17.1875 
L 4.890625 17.1875 
L 4.890625 26.703125 
z
" id="DejaVuSans-52"/>
      </defs>
      <g transform="translate(226.819413 322.182437)scale(0.1 -0.1)">
       <use xlink:href="#DejaVuSans-52"/>
       <use x="63.623047" xlink:href="#DejaVuSans-48"/>
       <use x="127.246094" xlink:href="#DejaVuSans-48"/>
      </g>
     </g>
    </g>
    <g id="xtick_6">
     <g id="line2d_6">
      <g>
       <use style="stroke:#000000;stroke-width:0.8;" x="276.995772" xlink:href="#mb5ddea06ed" y="307.584"/>
      </g>
     </g>
     <g id="text_6">
      <!-- 500 -->
      <defs>
       <path d="M 10.796875 72.90625 
L 49.515625 72.90625 
L 49.515625 64.59375 
L 19.828125 64.59375 
L 19.828125 46.734375 
Q 21.96875 47.46875 24.109375 47.828125 
Q 26.265625 48.1875 28.421875 48.1875 
Q 40.625 48.1875 47.75 41.5 
Q 54.890625 34.8125 54.890625 23.390625 
Q 54.890625 11.625 47.5625 5.09375 
Q 40.234375 -1.421875 26.90625 -1.421875 
Q 22.3125 -1.421875 17.546875 -0.640625 
Q 12.796875 0.140625 7.71875 1.703125 
L 7.71875 11.625 
Q 12.109375 9.234375 16.796875 8.0625 
Q 21.484375 6.890625 26.703125 6.890625 
Q 35.15625 6.890625 40.078125 11.328125 
Q 45.015625 15.765625 45.015625 23.390625 
Q 45.015625 31 40.078125 35.4375 
Q 35.15625 39.890625 26.703125 39.890625 
Q 22.75 39.890625 18.8125 39.015625 
Q 14.890625 38.140625 10.796875 36.28125 
z
" id="DejaVuSans-53"/>
      </defs>
      <g transform="translate(267.452022 322.182437)scale(0.1 -0.1)">
       <use xlink:href="#DejaVuSans-53"/>
       <use x="63.623047" xlink:href="#DejaVuSans-48"/>
       <use x="127.246094" xlink:href="#DejaVuSans-48"/>
      </g>
     </g>
    </g>
    <g id="xtick_7">
     <g id="line2d_7">
      <g>
       <use style="stroke:#000000;stroke-width:0.8;" x="317.628381" xlink:href="#mb5ddea06ed" y="307.584"/>
      </g>
     </g>
     <g id="text_7">
      <!-- 600 -->
      <defs>
       <path d="M 33.015625 40.375 
Q 26.375 40.375 22.484375 35.828125 
Q 18.609375 31.296875 18.609375 23.390625 
Q 18.609375 15.53125 22.484375 10.953125 
Q 26.375 6.390625 33.015625 6.390625 
Q 39.65625 6.390625 43.53125 10.953125 
Q 47.40625 15.53125 47.40625 23.390625 
Q 47.40625 31.296875 43.53125 35.828125 
Q 39.65625 40.375 33.015625 40.375 
z
M 52.59375 71.296875 
L 52.59375 62.3125 
Q 48.875 64.0625 45.09375 64.984375 
Q 41.3125 65.921875 37.59375 65.921875 
Q 27.828125 65.921875 22.671875 59.328125 
Q 17.53125 52.734375 16.796875 39.40625 
Q 19.671875 43.65625 24.015625 45.921875 
Q 28.375 48.1875 33.59375 48.1875 
Q 44.578125 48.1875 50.953125 41.515625 
Q 57.328125 34.859375 57.328125 23.390625 
Q 57.328125 12.15625 50.6875 5.359375 
Q 44.046875 -1.421875 33.015625 -1.421875 
Q 20.359375 -1.421875 13.671875 8.265625 
Q 6.984375 17.96875 6.984375 36.375 
Q 6.984375 53.65625 15.1875 63.9375 
Q 23.390625 74.21875 37.203125 74.21875 
Q 40.921875 74.21875 44.703125 73.484375 
Q 48.484375 72.75 52.59375 71.296875 
z
" id="DejaVuSans-54"/>
      </defs>
      <g transform="translate(308.084631 322.182437)scale(0.1 -0.1)">
       <use xlink:href="#DejaVuSans-54"/>
       <use x="63.623047" xlink:href="#DejaVuSans-48"/>
       <use x="127.246094" xlink:href="#DejaVuSans-48"/>
      </g>
     </g>
    </g>
    <g id="xtick_8">
     <g id="line2d_8">
      <g>
       <use style="stroke:#000000;stroke-width:0.8;" x="358.26099" xlink:href="#mb5ddea06ed" y="307.584"/>
      </g>
     </g>
     <g id="text_8">
      <!-- 700 -->
      <defs>
       <path d="M 8.203125 72.90625 
L 55.078125 72.90625 
L 55.078125 68.703125 
L 28.609375 0 
L 18.3125 0 
L 43.21875 64.59375 
L 8.203125 64.59375 
z
" id="DejaVuSans-55"/>
      </defs>
      <g transform="translate(348.71724 322.182437)scale(0.1 -0.1)">
       <use xlink:href="#DejaVuSans-55"/>
       <use x="63.623047" xlink:href="#DejaVuSans-48"/>
       <use x="127.246094" xlink:href="#DejaVuSans-48"/>
      </g>
     </g>
    </g>
    <g id="xtick_9">
     <g id="line2d_9">
      <g>
       <use style="stroke:#000000;stroke-width:0.8;" x="398.893599" xlink:href="#mb5ddea06ed" y="307.584"/>
      </g>
     </g>
     <g id="text_9">
      <!-- 800 -->
      <defs>
       <path d="M 31.78125 34.625 
Q 24.75 34.625 20.71875 30.859375 
Q 16.703125 27.09375 16.703125 20.515625 
Q 16.703125 13.921875 20.71875 10.15625 
Q 24.75 6.390625 31.78125 6.390625 
Q 38.8125 6.390625 42.859375 10.171875 
Q 46.921875 13.96875 46.921875 20.515625 
Q 46.921875 27.09375 42.890625 30.859375 
Q 38.875 34.625 31.78125 34.625 
z
M 21.921875 38.8125 
Q 15.578125 40.375 12.03125 44.71875 
Q 8.5 49.078125 8.5 55.328125 
Q 8.5 64.0625 14.71875 69.140625 
Q 20.953125 74.21875 31.78125 74.21875 
Q 42.671875 74.21875 48.875 69.140625 
Q 55.078125 64.0625 55.078125 55.328125 
Q 55.078125 49.078125 51.53125 44.71875 
Q 48 40.375 41.703125 38.8125 
Q 48.828125 37.15625 52.796875 32.3125 
Q 56.78125 27.484375 56.78125 20.515625 
Q 56.78125 9.90625 50.3125 4.234375 
Q 43.84375 -1.421875 31.78125 -1.421875 
Q 19.734375 -1.421875 13.25 4.234375 
Q 6.78125 9.90625 6.78125 20.515625 
Q 6.78125 27.484375 10.78125 32.3125 
Q 14.796875 37.15625 21.921875 38.8125 
z
M 18.3125 54.390625 
Q 18.3125 48.734375 21.84375 45.5625 
Q 25.390625 42.390625 31.78125 42.390625 
Q 38.140625 42.390625 41.71875 45.5625 
Q 45.3125 48.734375 45.3125 54.390625 
Q 45.3125 60.0625 41.71875 63.234375 
Q 38.140625 66.40625 31.78125 66.40625 
Q 25.390625 66.40625 21.84375 63.234375 
Q 18.3125 60.0625 18.3125 54.390625 
z
" id="DejaVuSans-56"/>
      </defs>
      <g transform="translate(389.349849 322.182437)scale(0.1 -0.1)">
       <use xlink:href="#DejaVuSans-56"/>
       <use x="63.623047" xlink:href="#DejaVuSans-48"/>
       <use x="127.246094" xlink:href="#DejaVuSans-48"/>
      </g>
     </g>
    </g>
   </g>
   <g id="matplotlib.axis_2">
    <g id="ytick_1">
     <g id="line2d_10">
      <defs>
       <path d="M 0 0 
L -3.5 0 
" id="m2907682659" style="stroke:#000000;stroke-width:0.8;"/>
      </defs>
      <g>
       <use style="stroke:#000000;stroke-width:0.8;" x="57.6" xlink:href="#m2907682659" y="293.074142"/>
      </g>
     </g>
     <g id="text_10">
      <!-- 0.0 -->
      <defs>
       <path d="M 10.6875 12.40625 
L 21 12.40625 
L 21 0 
L 10.6875 0 
z
" id="DejaVuSans-46"/>
      </defs>
      <g transform="translate(34.696875 296.873361)scale(0.1 -0.1)">
       <use xlink:href="#DejaVuSans-48"/>
       <use x="63.623047" xlink:href="#DejaVuSans-46"/>
       <use x="95.410156" xlink:href="#DejaVuSans-48"/>
      </g>
     </g>
    </g>
    <g id="ytick_2">
     <g id="line2d_11">
      <g>
       <use style="stroke:#000000;stroke-width:0.8;" x="57.6" xlink:href="#m2907682659" y="236.272206"/>
      </g>
     </g>
     <g id="text_11">
      <!-- 0.1 -->
      <g transform="translate(34.696875 240.071425)scale(0.1 -0.1)">
       <use xlink:href="#DejaVuSans-48"/>
       <use x="63.623047" xlink:href="#DejaVuSans-46"/>
       <use x="95.410156" xlink:href="#DejaVuSans-49"/>
      </g>
     </g>
    </g>
    <g id="ytick_3">
     <g id="line2d_12">
      <g>
       <use style="stroke:#000000;stroke-width:0.8;" x="57.6" xlink:href="#m2907682659" y="179.470271"/>
      </g>
     </g>
     <g id="text_12">
      <!-- 0.2 -->
      <g transform="translate(34.696875 183.269489)scale(0.1 -0.1)">
       <use xlink:href="#DejaVuSans-48"/>
       <use x="63.623047" xlink:href="#DejaVuSans-46"/>
       <use x="95.410156" xlink:href="#DejaVuSans-50"/>
      </g>
     </g>
    </g>
    <g id="ytick_4">
     <g id="line2d_13">
      <g>
       <use style="stroke:#000000;stroke-width:0.8;" x="57.6" xlink:href="#m2907682659" y="122.668335"/>
      </g>
     </g>
     <g id="text_13">
      <!-- 0.3 -->
      <g transform="translate(34.696875 126.467554)scale(0.1 -0.1)">
       <use xlink:href="#DejaVuSans-48"/>
       <use x="63.623047" xlink:href="#DejaVuSans-46"/>
       <use x="95.410156" xlink:href="#DejaVuSans-51"/>
      </g>
     </g>
    </g>
    <g id="ytick_5">
     <g id="line2d_14">
      <g>
       <use style="stroke:#000000;stroke-width:0.8;" x="57.6" xlink:href="#m2907682659" y="65.866399"/>
      </g>
     </g>
     <g id="text_14">
      <!-- 0.4 -->
      <g transform="translate(34.696875 69.665618)scale(0.1 -0.1)">
       <use xlink:href="#DejaVuSans-48"/>
       <use x="63.623047" xlink:href="#DejaVuSans-46"/>
       <use x="95.410156" xlink:href="#DejaVuSans-52"/>
      </g>
     </g>
    </g>
   </g>
   <g id="line2d_15">
    <path clip-path="url(#p85dbdbad48)" d="M 73.832727 57.924202 
L 75.051706 57.483105 
L 75.864358 57.381435 
L 76.67701 57.443574 
L 77.895988 57.834494 
L 81.552923 59.527519 
L 82.365575 59.649158 
L 83.178227 59.60343 
L 84.397206 59.237238 
L 86.02251 58.395667 
L 87.647814 57.574287 
L 88.866793 57.246058 
L 89.679445 57.232274 
L 90.492097 57.381871 
L 91.711075 57.858468 
L 94.555358 59.239163 
L 95.36801 59.440394 
L 96.180662 59.484152 
L 96.993314 59.362654 
L 98.212293 58.90067 
L 101.462901 57.288616 
L 102.275554 57.104752 
L 103.088206 57.085887 
L 103.900858 57.228817 
L 105.119836 57.699153 
L 107.964119 59.075296 
L 109.183097 59.321056 
L 109.995749 59.283979 
L 111.214728 58.933611 
L 112.840032 58.11125 
L 114.465336 57.282963 
L 115.684314 56.949791 
L 116.496967 56.924886 
L 117.715945 57.183652 
L 118.934923 57.723269 
L 121.37288 58.902138 
L 122.591858 59.155688 
L 123.40451 59.123601 
L 124.217162 58.931926 
L 125.436141 58.399155 
L 128.280423 56.998179 
L 129.499402 56.770262 
L 130.312054 56.823325 
L 131.531032 57.192918 
L 135.594293 58.930401 
L 136.406945 58.987762 
L 137.219597 58.881502 
L 138.438575 58.459442 
L 142.09551 56.767924 
L 142.908162 56.647443 
L 143.720815 56.686156 
L 144.939793 57.026829 
L 146.971423 58.012881 
L 148.596728 58.682967 
L 149.815706 58.848883 
L 150.628358 58.753089 
L 151.847336 58.33795 
L 155.504271 56.614174 
L 156.316923 56.472981 
L 157.129576 56.50399 
L 158.348554 56.841725 
L 160.380184 57.844907 
L 162.005489 58.530697 
L 162.818141 58.680308 
L 163.630793 58.669496 
L 164.849771 58.343597 
L 166.06875 57.777859 
L 168.506706 56.583926 
L 169.725684 56.330542 
L 170.944663 56.445101 
L 172.163641 56.869823 
L 175.41425 58.355122 
L 176.226902 58.508432 
L 177.039554 58.501122 
L 178.258532 58.199664 
L 179.883837 57.435949 
L 181.509141 56.611274 
L 182.728119 56.24392 
L 183.540771 56.184834 
L 184.353424 56.288476 
L 185.572402 56.698722 
L 189.229337 58.295181 
L 190.041989 58.384011 
L 190.854641 58.309871 
L 192.073619 57.925854 
L 193.698924 57.124978 
L 195.324228 56.340823 
L 196.543206 56.058995 
L 197.355858 56.069421 
L 198.574837 56.382393 
L 200.200141 57.153995 
L 201.825445 57.921745 
L 203.044424 58.223896 
L 203.857076 58.237744 
L 205.076054 57.980185 
L 206.295032 57.437347 
L 208.732989 56.233782 
L 209.951967 55.943513 
L 210.764619 55.94469 
L 211.983598 56.219306 
L 213.608902 56.980609 
L 215.234206 57.769581 
L 216.453185 58.101109 
L 217.265837 58.123094 
L 218.484815 57.860926 
L 219.703793 57.316741 
L 222.14175 56.107126 
L 223.360728 55.814403 
L 224.17338 55.813946 
L 225.392359 56.100852 
L 227.017663 56.844807 
L 228.642967 57.616681 
L 229.861946 57.955309 
L 230.674598 57.987812 
L 231.48725 57.860083 
L 232.706228 57.417825 
L 235.956837 55.89677 
L 236.769489 55.72935 
L 237.582141 55.713383 
L 238.80112 55.973972 
L 240.426424 56.69815 
L 242.458054 57.623931 
L 243.677033 57.862554 
L 244.489685 57.821262 
L 245.708663 57.48324 
L 246.927641 56.879759 
L 248.959272 55.901262 
L 250.17825 55.586403 
L 250.990902 55.556629 
L 252.209881 55.806826 
L 253.428859 56.316173 
L 255.866815 57.425911 
L 257.085794 57.665431 
L 257.898446 57.630101 
L 259.117424 57.301792 
L 260.742728 56.51456 
L 262.368033 55.74655 
L 263.587011 55.426633 
L 264.399663 55.4014 
L 265.618641 55.652663 
L 266.83762 56.172132 
L 269.275576 57.289966 
L 270.494555 57.533781 
L 271.307207 57.501524 
L 272.526185 57.170832 
L 274.151489 56.388898 
L 275.776794 55.610242 
L 276.995772 55.286674 
L 277.808424 55.256472 
L 279.027402 55.505174 
L 280.246381 56.017398 
L 282.684337 57.133537 
L 283.903316 57.373432 
L 284.715968 57.340901 
L 285.934946 57.012333 
L 287.56025 56.23464 
L 289.185555 55.461395 
L 290.404533 55.134359 
L 291.217185 55.105849 
L 292.436163 55.349257 
L 293.655142 55.858462 
L 296.093098 56.974393 
L 297.312076 57.217474 
L 298.124729 57.190831 
L 299.343707 56.87354 
L 300.969011 56.075278 
L 302.594316 55.308846 
L 303.813294 54.993188 
L 304.625946 54.965968 
L 305.844924 55.209227 
L 307.063903 55.704868 
L 309.501859 56.797191 
L 310.720837 57.03644 
L 311.53349 57.011481 
L 312.752468 56.69962 
L 314.377772 55.939184 
L 316.003077 55.179468 
L 317.222055 54.862849 
L 318.034707 54.83007 
L 319.253685 55.064988 
L 320.472664 55.564278 
L 322.91062 56.656194 
L 324.129598 56.902311 
L 324.942251 56.873354 
L 326.161229 56.563182 
L 327.786533 55.81872 
L 329.411838 55.061979 
L 330.630816 54.743055 
L 331.849794 54.754092 
L 333.068772 55.091737 
L 335.100403 56.025372 
L 336.319381 56.528254 
L 337.538359 56.775409 
L 338.351011 56.756372 
L 339.56999 56.453479 
L 341.195294 55.706797 
L 342.820598 54.948968 
L 344.039577 54.624495 
L 344.852229 54.584534 
L 346.071207 54.801429 
L 347.290185 55.280133 
L 349.728142 56.353845 
L 350.94712 56.600716 
L 351.759772 56.591248 
L 352.978751 56.304291 
L 354.197729 55.724631 
L 356.635686 54.402023 
L 357.448338 54.12441 
L 358.26099 54.028323 
L 359.073642 54.103446 
L 360.29262 54.511989 
L 364.355881 56.368016 
L 365.168533 56.396546 
L 365.981186 56.269916 
L 367.200164 55.792861 
L 370.450773 54.131581 
L 371.263425 53.947579 
L 372.076077 53.919923 
L 372.888729 54.068776 
L 374.107707 54.555462 
L 376.95199 55.920645 
L 377.764642 56.142698 
L 378.577294 56.210796 
L 379.796273 56.008925 
L 381.015251 55.47823 
L 383.859534 54.014809 
L 384.672186 53.806477 
L 385.484838 53.764206 
L 386.29749 53.892635 
L 387.516468 54.356127 
L 390.767077 55.936579 
L 391.579729 56.093917 
L 392.392381 56.083779 
L 393.205034 55.902419 
L 394.424012 55.373235 
L 396.861968 53.976907 
L 398.080947 53.604109 
L 398.487273 53.568 
L 398.487273 53.568 
" style="fill:none;stroke:#1f77b4;stroke-linecap:square;stroke-width:1.5;"/>
   </g>
   <g id="line2d_16">
    <path clip-path="url(#p85dbdbad48)" d="M 73.832727 59.25487 
L 75.051706 59.657117 
L 75.864358 59.736945 
L 76.67701 59.648663 
L 77.895988 59.23051 
L 81.959249 57.356539 
L 82.771901 57.288685 
L 83.584553 57.39943 
L 84.803532 57.837287 
L 88.05414 59.388462 
L 88.866793 59.553824 
L 89.679445 59.551585 
L 90.492097 59.385961 
L 91.711075 58.880909 
L 94.961684 57.306648 
L 95.774336 57.162797 
L 96.586988 57.182683 
L 97.805967 57.511768 
L 99.431271 58.301018 
L 101.056575 59.077099 
L 102.275554 59.378168 
L 103.088206 59.381008 
L 103.900858 59.220534 
L 105.119836 58.725638 
L 108.370445 57.16891 
L 109.183097 57.023741 
L 109.995749 57.039903 
L 111.214728 57.354715 
L 112.840032 58.137549 
L 114.465336 58.907013 
L 115.684314 59.209036 
L 116.496967 59.211625 
L 117.715945 58.922589 
L 118.934923 58.362944 
L 121.37288 57.140774 
L 122.591858 56.856275 
L 123.40451 56.870158 
L 124.623488 57.185272 
L 126.248793 57.966337 
L 127.874097 58.744311 
L 129.093075 59.046949 
L 129.905728 59.060478 
L 130.71838 58.90771 
L 131.937358 58.42513 
L 135.187967 56.867997 
L 136.000619 56.7146 
L 136.813271 56.72368 
L 138.032249 57.028104 
L 139.657554 57.796065 
L 141.282858 58.573411 
L 142.501836 58.894701 
L 143.314489 58.916723 
L 144.127141 58.776859 
L 145.346119 58.310055 
L 148.596728 56.742678 
L 149.40938 56.576276 
L 150.222032 56.570936 
L 151.44101 56.85709 
L 153.066315 57.615434 
L 154.691619 58.397073 
L 155.910597 58.726224 
L 156.72325 58.754429 
L 157.535902 58.620527 
L 158.75488 58.160121 
L 162.005489 56.59072 
L 162.818141 56.423781 
L 163.630793 56.414058 
L 164.849771 56.699358 
L 166.06875 57.24314 
L 168.10038 58.238799 
L 169.319358 58.571077 
L 170.13201 58.603693 
L 171.350989 58.351189 
L 172.569967 57.815278 
L 175.007924 56.588059 
L 176.226902 56.279501 
L 177.039554 56.267164 
L 178.258532 56.544554 
L 179.883837 57.286287 
L 181.509141 58.069328 
L 182.728119 58.409857 
L 183.540771 58.450918 
L 184.75975 58.214236 
L 185.978728 57.699222 
L 188.823011 56.322385 
L 190.041989 56.107069 
L 190.854641 56.164671 
L 192.073619 56.52785 
L 193.698924 57.324573 
L 195.324228 58.06768 
L 196.543206 58.32233 
L 197.355858 58.294337 
L 198.574837 57.961516 
L 200.200141 57.162234 
L 201.825445 56.360234 
L 203.044424 56.025832 
L 203.857076 55.994135 
L 205.076054 56.241639 
L 206.295032 56.763938 
L 208.732989 57.920644 
L 209.951967 58.183378 
L 210.764619 58.160071 
L 211.983598 57.843557 
L 213.608902 57.050468 
L 215.234206 56.244776 
L 216.453185 55.894379 
L 217.265837 55.85135 
L 218.078489 55.971822 
L 219.297467 56.408108 
L 222.548076 57.897222 
L 223.360728 58.044667 
L 224.17338 58.033441 
L 225.392359 57.72517 
L 227.017663 56.951221 
L 228.642967 56.146514 
L 229.861946 55.788445 
L 230.674598 55.739435 
L 231.48725 55.850967 
L 232.706228 56.275939 
L 235.956837 57.755032 
L 237.175815 57.932282 
L 237.988467 57.853536 
L 239.207446 57.465378 
L 243.270707 55.693805 
L 244.083359 55.633786 
L 244.896011 55.729753 
L 246.114989 56.139856 
L 249.365598 57.577116 
L 250.584576 57.759295 
L 251.803554 57.576215 
L 253.022533 57.101757 
L 256.273141 55.60962 
L 257.085794 55.469859 
L 257.898446 55.492877 
L 259.117424 55.807093 
L 260.742728 56.560317 
L 262.368033 57.301691 
L 263.587011 57.592531 
L 264.399663 57.597863 
L 265.212315 57.445171 
L 266.431294 56.967406 
L 269.681902 55.46804 
L 270.900881 55.31502 
L 272.119859 55.518602 
L 273.338837 55.999054 
L 276.18312 57.283871 
L 277.402098 57.468994 
L 278.21475 57.397588 
L 279.433729 57.023287 
L 281.059033 56.185092 
L 282.684337 55.449898 
L 283.903316 55.186096 
L 284.715968 55.200758 
L 285.934946 55.503583 
L 287.56025 56.248701 
L 289.185555 56.984392 
L 290.404533 57.280754 
L 291.623511 57.228016 
L 292.842489 56.858073 
L 294.87412 55.84986 
L 296.093098 55.311113 
L 297.312076 55.043069 
L 298.124729 55.051997 
L 299.343707 55.348447 
L 300.969011 56.088734 
L 302.594316 56.820557 
L 303.813294 57.114412 
L 304.625946 57.125645 
L 305.438598 56.97387 
L 307.063903 56.307967 
L 309.501859 55.166727 
L 310.720837 54.903447 
L 311.53349 54.914635 
L 312.752468 55.204924 
L 314.377772 55.930619 
L 316.003077 56.656619 
L 317.222055 56.94862 
L 318.034707 56.962357 
L 319.253685 56.702367 
L 320.472664 56.18454 
L 322.91062 55.049676 
L 324.129598 54.781381 
L 324.942251 54.789045 
L 326.161229 55.071821 
L 327.786533 55.790993 
L 329.411838 56.515795 
L 330.630816 56.809287 
L 331.849794 56.787741 
L 333.068772 56.436465 
L 335.100403 55.463453 
L 336.319381 54.939389 
L 337.538359 54.669548 
L 338.351011 54.671871 
L 339.56999 54.948322 
L 341.195294 55.658452 
L 342.820598 56.380006 
L 344.039577 56.667683 
L 345.258555 56.638353 
L 346.477533 56.291451 
L 348.509164 55.321569 
L 349.728142 54.825975 
L 350.94712 54.547344 
L 351.759772 54.540043 
L 352.572425 54.680323 
L 352.978751 54.339875 
L 354.197729 54.88488 
L 356.635686 56.149427 
L 357.854664 56.458206 
L 358.667316 56.461574 
L 359.479968 56.29162 
L 360.698946 55.771006 
L 363.543229 54.271137 
L 364.355881 54.040231 
L 365.168533 53.983059 
L 365.981186 54.096308 
L 366.793838 54.343804 
L 368.419142 55.172662 
L 370.044446 55.983846 
L 371.263425 56.302609 
L 372.076077 56.309262 
L 372.888729 56.144261 
L 374.107707 55.633866 
L 377.358316 53.99549 
L 378.170968 53.830002 
L 378.98362 53.833208 
L 379.796273 54.00886 
L 381.015251 54.520794 
L 383.859534 55.932639 
L 384.672186 56.129335 
L 385.484838 56.156349 
L 386.29749 56.013279 
L 387.516468 55.530285 
L 390.767077 53.894093 
L 391.579729 53.720338 
L 392.392381 53.716065 
L 393.205034 53.888808 
L 394.424012 54.394946 
L 397.268294 55.789524 
L 398.080947 55.968165 
L 398.487273 55.997572 
L 398.487273 55.997572 
" style="fill:none;stroke:#ff0000;stroke-linecap:square;stroke-width:1.5;"/>
   </g>
   <g id="line2d_17">
    <path clip-path="url(#p85dbdbad48)" d="M 73.832727 291.743475 
L 74.645379 291.119677 
L 75.458032 290.76016 
L 76.270684 290.747924 
L 77.083336 291.069505 
L 77.895988 291.678127 
L 79.521293 293.380731 
L 80.740271 294.592566 
L 81.552923 295.154979 
L 82.365575 295.416347 
L 83.178227 295.35397 
L 83.99088 294.955003 
L 84.803532 294.289238 
L 88.05414 291.11397 
L 88.866793 290.766376 
L 89.679445 290.754831 
L 90.492097 291.070052 
L 91.304749 291.670909 
L 92.523727 292.909913 
L 94.149032 294.567055 
L 94.961684 295.126646 
L 95.774336 295.394438 
L 96.586988 295.334542 
L 97.39964 294.950328 
L 98.212293 294.29074 
L 101.462901 291.149848 
L 102.275554 290.800726 
L 103.088206 290.779021 
L 103.900858 291.082425 
L 104.71351 291.672256 
L 105.932488 292.897453 
L 107.557793 294.53953 
L 108.370445 295.100332 
L 109.183097 295.371456 
L 109.995749 295.318218 
L 110.808401 294.947059 
L 111.621054 294.302625 
L 113.246358 292.605262 
L 114.465336 291.450092 
L 115.277988 290.952641 
L 116.090641 290.758228 
L 116.903293 290.897163 
L 117.715945 291.335205 
L 118.934923 292.434466 
L 120.966554 294.50986 
L 121.779206 295.09013 
L 122.591858 295.373555 
L 123.40451 295.327585 
L 124.217162 294.961004 
L 125.029815 294.318928 
L 126.655119 292.630067 
L 127.874097 291.474766 
L 128.686749 290.974801 
L 129.499402 290.769419 
L 130.312054 290.891701 
L 131.124706 291.330695 
L 132.343684 292.428691 
L 134.375315 294.470828 
L 135.187967 295.047132 
L 136.000619 295.338462 
L 136.813271 295.304897 
L 137.625923 294.953902 
L 138.438575 294.340022 
L 140.06388 292.672089 
L 141.282858 291.531456 
L 142.09551 291.018623 
L 142.908162 290.795393 
L 143.720815 290.893942 
L 144.533467 291.30324 
L 145.346119 291.964296 
L 148.596728 295.014431 
L 149.40938 295.330185 
L 150.222032 295.323838 
L 151.034684 294.995852 
L 151.847336 294.394003 
L 153.472641 292.742116 
L 154.691619 291.572699 
L 155.504271 291.036508 
L 156.316923 290.78621 
L 157.129576 290.870447 
L 157.942228 291.271339 
L 158.75488 291.935825 
L 162.005489 295.014119 
L 162.818141 295.330669 
L 163.630793 295.32958 
L 164.443445 294.989557 
L 165.256097 294.396887 
L 166.881402 292.745829 
L 168.10038 291.575183 
L 168.913032 291.040919 
L 169.725684 290.796953 
L 170.538337 290.887401 
L 171.350989 291.280731 
L 172.163641 291.928094 
L 175.41425 294.980287 
L 176.226902 295.303072 
L 177.039554 295.3081 
L 177.852206 294.99295 
L 178.664858 294.407228 
L 180.290163 292.785639 
L 181.509141 291.616088 
L 182.321793 291.074781 
L 183.134445 290.817352 
L 183.947098 290.88387 
L 184.75975 291.256874 
L 185.572402 291.874392 
L 188.823011 294.944976 
L 189.635663 295.293661 
L 190.448315 295.325828 
L 191.260967 295.035873 
L 192.073619 294.472146 
L 193.292598 293.302606 
L 194.917902 291.664474 
L 195.730554 291.093688 
L 196.543206 290.810807 
L 197.355858 290.849225 
L 198.168511 291.212937 
L 198.981163 291.833219 
L 200.606467 293.494968 
L 201.825445 294.635652 
L 202.638098 295.130301 
L 203.45075 295.336349 
L 204.263402 295.21956 
L 205.076054 294.812688 
L 206.295032 293.747551 
L 208.326663 291.702141 
L 209.139315 291.131807 
L 209.951967 290.834276 
L 210.764619 290.858761 
L 211.577272 291.174815 
L 212.389924 291.782579 
L 214.015228 293.435164 
L 215.234206 294.598947 
L 216.046859 295.126867 
L 216.859511 295.355 
L 217.672163 295.254954 
L 218.484815 294.848944 
L 219.297467 294.185303 
L 222.548076 291.151419 
L 223.360728 290.843878 
L 224.17338 290.854648 
L 224.986033 291.181616 
L 225.798685 291.772869 
L 227.423989 293.396102 
L 228.642967 294.544309 
L 229.45562 295.081259 
L 230.268272 295.324063 
L 231.080924 295.242305 
L 231.893576 294.851973 
L 232.706228 294.216028 
L 235.956837 291.21588 
L 236.769489 290.891606 
L 237.582141 290.875015 
L 238.394793 291.168856 
L 239.207446 291.735291 
L 240.426424 292.906441 
L 242.051728 294.48818 
L 242.86438 295.032769 
L 243.677033 295.292496 
L 244.489685 295.233302 
L 245.302337 294.869952 
L 246.114989 294.244231 
L 249.365598 291.25765 
L 250.17825 290.928385 
L 250.990902 290.896086 
L 251.803554 291.186173 
L 252.616207 291.742484 
L 253.835185 292.900821 
L 255.460489 294.472747 
L 256.273141 295.008162 
L 257.085794 295.269713 
L 257.898446 295.211365 
L 258.711098 294.845528 
L 259.52375 294.232412 
L 262.774359 291.24913 
L 263.587011 290.908244 
L 264.399663 290.87768 
L 265.212315 291.162461 
L 266.024968 291.725603 
L 267.243946 292.892915 
L 268.86925 294.464415 
L 269.681902 295.013662 
L 270.494555 295.275254 
L 271.307207 295.226863 
L 272.119859 294.87027 
L 272.932511 294.259594 
L 276.18312 291.257043 
L 276.995772 290.915773 
L 277.808424 290.877442 
L 278.621076 291.155465 
L 279.433729 291.704498 
L 280.652707 292.894827 
L 282.278011 294.459574 
L 283.090663 294.993062 
L 283.903316 295.261478 
L 284.715968 295.214285 
L 285.52862 294.861767 
L 286.341272 294.249517 
L 289.591881 291.279148 
L 290.404533 290.927747 
L 291.217185 290.898444 
L 292.029837 291.170609 
L 292.842489 291.712042 
L 294.061468 292.861778 
L 295.686772 294.428798 
L 296.499424 294.978075 
L 297.312076 295.248548 
L 298.124729 295.212976 
L 298.937381 294.871747 
L 299.750033 294.263354 
L 301.375337 292.646746 
L 302.594316 291.562431 
L 303.406968 291.08706 
L 304.21962 290.89434 
L 305.032272 291.015175 
L 305.844924 291.44813 
L 306.657577 292.090722 
L 309.501859 294.704606 
L 310.314511 295.111543 
L 311.127163 295.226322 
L 311.939816 295.036194 
L 312.752468 294.568838 
L 313.971446 293.489469 
L 316.003077 291.596991 
L 316.815729 291.123444 
L 317.628381 290.927696 
L 318.441033 291.035476 
L 319.253685 291.436762 
L 320.066337 292.076331 
L 322.91062 294.68066 
L 323.723272 295.095286 
L 324.535924 295.21692 
L 325.348577 295.029715 
L 326.161229 294.565503 
L 327.380207 293.507096 
L 329.411838 291.620326 
L 330.22449 291.144774 
L 331.037142 290.947902 
L 331.849794 291.040493 
L 332.662446 291.440669 
L 333.881425 292.435476 
L 336.319381 294.663006 
L 337.132033 295.077118 
L 337.944685 295.207397 
L 338.757338 295.032047 
L 339.56999 294.579299 
L 340.788968 293.524101 
L 342.820598 291.643103 
L 343.633251 291.169634 
L 344.445903 290.965478 
L 345.258555 291.058146 
L 346.071207 291.437921 
L 347.290185 292.422814 
L 349.321816 294.317702 
L 350.134468 294.843184 
L 350.94712 295.127514 
L 351.759772 295.125347 
L 352.572425 294.826317 
L 352.978751 295.038559 
L 353.791403 294.333994 
L 357.042012 291.029108 
L 357.854664 290.675455 
L 358.667316 290.65745 
L 359.479968 290.987893 
L 360.29262 291.613323 
L 361.511599 292.904164 
L 363.136903 294.634115 
L 363.949555 295.222467 
L 364.762207 295.486498 
L 365.574859 295.41211 
L 366.387512 295.017432 
L 367.200164 294.343073 
L 370.450773 291.078038 
L 371.263425 290.719112 
L 372.076077 290.684804 
L 372.888729 290.998657 
L 373.701381 291.607087 
L 375.326686 293.28261 
L 376.95199 294.859182 
L 377.764642 295.324373 
L 378.577294 295.474962 
L 379.389947 295.296519 
L 380.202599 294.783131 
L 381.421577 293.596461 
L 383.453207 291.464474 
L 384.26586 290.915012 
L 385.078512 290.673484 
L 385.891164 290.776532 
L 386.703816 291.207077 
L 387.516468 291.899984 
L 390.767077 295.116629 
L 391.579729 295.44772 
L 392.392381 295.441856 
L 393.205034 295.087753 
L 394.017686 294.451164 
L 395.236664 293.099487 
L 396.861968 291.407246 
L 397.674621 290.871411 
L 398.487273 290.64457 
L 398.487273 290.64457 
" style="fill:none;stroke:#008000;stroke-linecap:square;stroke-width:1.5;"/>
   </g>
   <g id="patch_3">
    <path d="M 57.6 307.584 
L 57.6 41.472 
" style="fill:none;stroke:#000000;stroke-linecap:square;stroke-linejoin:miter;stroke-width:0.8;"/>
   </g>
   <g id="patch_4">
    <path d="M 414.72 307.584 
L 414.72 41.472 
" style="fill:none;stroke:#000000;stroke-linecap:square;stroke-linejoin:miter;stroke-width:0.8;"/>
   </g>
   <g id="patch_5">
    <path d="M 57.6 307.584 
L 414.72 307.584 
" style="fill:none;stroke:#000000;stroke-linecap:square;stroke-linejoin:miter;stroke-width:0.8;"/>
   </g>
   <g id="patch_6">
    <path d="M 57.6 41.472 
L 414.72 41.472 
" style="fill:none;stroke:#000000;stroke-linecap:square;stroke-linejoin:miter;stroke-width:0.8;"/>
   </g>
   <g id="legend_1">
    <g id="patch_7">
     <path d="M 351.0075 198.045187 
L 407.72 198.045187 
Q 409.72 198.045187 409.72 196.045187 
L 409.72 153.010812 
Q 409.72 151.010812 407.72 151.010812 
L 351.0075 151.010812 
Q 349.0075 151.010812 349.0075 153.010812 
L 349.0075 196.045187 
Q 349.0075 198.045187 351.0075 198.045187 
z
" style="fill:#ffffff;opacity:0.8;stroke:#cccccc;stroke-linejoin:miter;"/>
    </g>
    <g id="line2d_18">
     <path d="M 353.0075 159.10925 
L 373.0075 159.10925 
" style="fill:none;stroke:#1f77b4;stroke-linecap:square;stroke-width:1.5;"/>
    </g>
    <g id="line2d_19"/>
    <g id="text_15">
     <!-- 0-&gt;1 -->
     <defs>
      <path d="M 4.890625 31.390625 
L 31.203125 31.390625 
L 31.203125 23.390625 
L 4.890625 23.390625 
z
" id="DejaVuSans-45"/>
      <path d="M 10.59375 49.21875 
L 10.59375 58.109375 
L 73.1875 35.40625 
L 73.1875 27.296875 
L 10.59375 4.59375 
L 10.59375 13.484375 
L 60.890625 31.296875 
z
" id="DejaVuSans-62"/>
     </defs>
     <g transform="translate(381.0075 162.60925)scale(0.1 -0.1)">
      <use xlink:href="#DejaVuSans-48"/>
      <use x="63.623047" xlink:href="#DejaVuSans-45"/>
      <use x="99.707031" xlink:href="#DejaVuSans-62"/>
      <use x="183.496094" xlink:href="#DejaVuSans-49"/>
     </g>
    </g>
    <g id="line2d_20">
     <path d="M 353.0075 173.787375 
L 373.0075 173.787375 
" style="fill:none;stroke:#ff0000;stroke-linecap:square;stroke-width:1.5;"/>
    </g>
    <g id="line2d_21"/>
    <g id="text_16">
     <!-- 1-&gt;0 -->
     <g transform="translate(381.0075 177.287375)scale(0.1 -0.1)">
      <use xlink:href="#DejaVuSans-49"/>
      <use x="63.623047" xlink:href="#DejaVuSans-45"/>
      <use x="99.707031" xlink:href="#DejaVuSans-62"/>
      <use x="183.496094" xlink:href="#DejaVuSans-48"/>
     </g>
    </g>
    <g id="line2d_22">
     <path d="M 353.0075 188.4655 
L 373.0075 188.4655 
" style="fill:none;stroke:#008000;stroke-linecap:square;stroke-width:1.5;"/>
    </g>
    <g id="line2d_23"/>
    <g id="text_17">
     <!-- diff -->
     <defs>
      <path d="M 45.40625 46.390625 
L 45.40625 75.984375 
L 54.390625 75.984375 
L 54.390625 0 
L 45.40625 0 
L 45.40625 8.203125 
Q 42.578125 3.328125 38.25 0.953125 
Q 33.9375 -1.421875 27.875 -1.421875 
Q 17.96875 -1.421875 11.734375 6.484375 
Q 5.515625 14.40625 5.515625 27.296875 
Q 5.515625 40.1875 11.734375 48.09375 
Q 17.96875 56 27.875 56 
Q 33.9375 56 38.25 53.625 
Q 42.578125 51.265625 45.40625 46.390625 
z
M 14.796875 27.296875 
Q 14.796875 17.390625 18.875 11.75 
Q 22.953125 6.109375 30.078125 6.109375 
Q 37.203125 6.109375 41.296875 11.75 
Q 45.40625 17.390625 45.40625 27.296875 
Q 45.40625 37.203125 41.296875 42.84375 
Q 37.203125 48.484375 30.078125 48.484375 
Q 22.953125 48.484375 18.875 42.84375 
Q 14.796875 37.203125 14.796875 27.296875 
z
" id="DejaVuSans-100"/>
      <path d="M 9.421875 54.6875 
L 18.40625 54.6875 
L 18.40625 0 
L 9.421875 0 
z
M 9.421875 75.984375 
L 18.40625 75.984375 
L 18.40625 64.59375 
L 9.421875 64.59375 
z
" id="DejaVuSans-105"/>
      <path d="M 37.109375 75.984375 
L 37.109375 68.5 
L 28.515625 68.5 
Q 23.6875 68.5 21.796875 66.546875 
Q 19.921875 64.59375 19.921875 59.515625 
L 19.921875 54.6875 
L 34.71875 54.6875 
L 34.71875 47.703125 
L 19.921875 47.703125 
L 19.921875 0 
L 10.890625 0 
L 10.890625 47.703125 
L 2.296875 47.703125 
L 2.296875 54.6875 
L 10.890625 54.6875 
L 10.890625 58.5 
Q 10.890625 67.625 15.140625 71.796875 
Q 19.390625 75.984375 28.609375 75.984375 
z
" id="DejaVuSans-102"/>
     </defs>
     <g transform="translate(381.0075 191.9655)scale(0.1 -0.1)">
      <use xlink:href="#DejaVuSans-100"/>
      <use x="63.476562" xlink:href="#DejaVuSans-105"/>
      <use x="91.259766" xlink:href="#DejaVuSans-102"/>
      <use x="126.464844" xlink:href="#DejaVuSans-102"/>
     </g>
    </g>
   </g>
  </g>
 </g>
 <defs>
  <clipPath id="p85dbdbad48">
   <rect height="266.112" width="357.12" x="57.6" y="41.472"/>
  </clipPath>
 </defs>
</svg>
