<?xml version="1.0" encoding="utf-8" standalone="no"?>
<!DOCTYPE svg PUBLIC "-//W3C//DTD SVG 1.1//EN"
  "http://www.w3.org/Graphics/SVG/1.1/DTD/svg11.dtd">
<!-- Created with matplotlib (https://matplotlib.org/) -->
<svg height="345.6pt" version="1.1" viewBox="0 0 460.8 345.6" width="460.8pt" xmlns="http://www.w3.org/2000/svg" xmlns:xlink="http://www.w3.org/1999/xlink">
 <defs>
  <style type="text/css">
*{stroke-linecap:butt;stroke-linejoin:round;}
  </style>
 </defs>
 <g id="figure_1">
  <g id="patch_1">
   <path d="M 0 345.6 
L 460.8 345.6 
L 460.8 0 
L 0 0 
z
" style="fill:#ffffff;"/>
  </g>
  <g id="axes_1">
   <g id="patch_2">
    <path d="M 57.6 307.584 
L 414.72 307.584 
L 414.72 41.472 
L 57.6 41.472 
z
" style="fill:#ffffff;"/>
   </g>
   <g id="matplotlib.axis_1">
    <g id="xtick_1">
     <g id="line2d_1">
      <defs>
       <path d="M 0 0 
L 0 3.5 
" id="m2697589af5" style="stroke:#000000;stroke-width:0.8;"/>
      </defs>
      <g>
       <use style="stroke:#000000;stroke-width:0.8;" x="73.832727" xlink:href="#m2697589af5" y="307.584"/>
      </g>
     </g>
     <g id="text_1">
      <!-- 0 -->
      <defs>
       <path d="M 31.78125 66.40625 
Q 24.171875 66.40625 20.328125 58.90625 
Q 16.5 51.421875 16.5 36.375 
Q 16.5 21.390625 20.328125 13.890625 
Q 24.171875 6.390625 31.78125 6.390625 
Q 39.453125 6.390625 43.28125 13.890625 
Q 47.125 21.390625 47.125 36.375 
Q 47.125 51.421875 43.28125 58.90625 
Q 39.453125 66.40625 31.78125 66.40625 
z
M 31.78125 74.21875 
Q 44.046875 74.21875 50.515625 64.515625 
Q 56.984375 54.828125 56.984375 36.375 
Q 56.984375 17.96875 50.515625 8.265625 
Q 44.046875 -1.421875 31.78125 -1.421875 
Q 19.53125 -1.421875 13.0625 8.265625 
Q 6.59375 17.96875 6.59375 36.375 
Q 6.59375 54.828125 13.0625 64.515625 
Q 19.53125 74.21875 31.78125 74.21875 
z
" id="DejaVuSans-48"/>
      </defs>
      <g transform="translate(70.651477 322.182437)scale(0.1 -0.1)">
       <use xlink:href="#DejaVuSans-48"/>
      </g>
     </g>
    </g>
    <g id="xtick_2">
     <g id="line2d_2">
      <g>
       <use style="stroke:#000000;stroke-width:0.8;" x="114.465336" xlink:href="#m2697589af5" y="307.584"/>
      </g>
     </g>
     <g id="text_2">
      <!-- 100 -->
      <defs>
       <path d="M 12.40625 8.296875 
L 28.515625 8.296875 
L 28.515625 63.921875 
L 10.984375 60.40625 
L 10.984375 69.390625 
L 28.421875 72.90625 
L 38.28125 72.90625 
L 38.28125 8.296875 
L 54.390625 8.296875 
L 54.390625 0 
L 12.40625 0 
z
" id="DejaVuSans-49"/>
      </defs>
      <g transform="translate(104.921586 322.182437)scale(0.1 -0.1)">
       <use xlink:href="#DejaVuSans-49"/>
       <use x="63.623047" xlink:href="#DejaVuSans-48"/>
       <use x="127.246094" xlink:href="#DejaVuSans-48"/>
      </g>
     </g>
    </g>
    <g id="xtick_3">
     <g id="line2d_3">
      <g>
       <use style="stroke:#000000;stroke-width:0.8;" x="155.097945" xlink:href="#m2697589af5" y="307.584"/>
      </g>
     </g>
     <g id="text_3">
      <!-- 200 -->
      <defs>
       <path d="M 19.1875 8.296875 
L 53.609375 8.296875 
L 53.609375 0 
L 7.328125 0 
L 7.328125 8.296875 
Q 12.9375 14.109375 22.625 23.890625 
Q 32.328125 33.6875 34.8125 36.53125 
Q 39.546875 41.84375 41.421875 45.53125 
Q 43.3125 49.21875 43.3125 52.78125 
Q 43.3125 58.59375 39.234375 62.25 
Q 35.15625 65.921875 28.609375 65.921875 
Q 23.96875 65.921875 18.8125 64.3125 
Q 13.671875 62.703125 7.8125 59.421875 
L 7.8125 69.390625 
Q 13.765625 71.78125 18.9375 73 
Q 24.125 74.21875 28.421875 74.21875 
Q 39.75 74.21875 46.484375 68.546875 
Q 53.21875 62.890625 53.21875 53.421875 
Q 53.21875 48.921875 51.53125 44.890625 
Q 49.859375 40.875 45.40625 35.40625 
Q 44.1875 33.984375 37.640625 27.21875 
Q 31.109375 20.453125 19.1875 8.296875 
z
" id="DejaVuSans-50"/>
      </defs>
      <g transform="translate(145.554195 322.182437)scale(0.1 -0.1)">
       <use xlink:href="#DejaVuSans-50"/>
       <use x="63.623047" xlink:href="#DejaVuSans-48"/>
       <use x="127.246094" xlink:href="#DejaVuSans-48"/>
      </g>
     </g>
    </g>
    <g id="xtick_4">
     <g id="line2d_4">
      <g>
       <use style="stroke:#000000;stroke-width:0.8;" x="195.730554" xlink:href="#m2697589af5" y="307.584"/>
      </g>
     </g>
     <g id="text_4">
      <!-- 300 -->
      <defs>
       <path d="M 40.578125 39.3125 
Q 47.65625 37.796875 51.625 33 
Q 55.609375 28.21875 55.609375 21.1875 
Q 55.609375 10.40625 48.1875 4.484375 
Q 40.765625 -1.421875 27.09375 -1.421875 
Q 22.515625 -1.421875 17.65625 -0.515625 
Q 12.796875 0.390625 7.625 2.203125 
L 7.625 11.71875 
Q 11.71875 9.328125 16.59375 8.109375 
Q 21.484375 6.890625 26.8125 6.890625 
Q 36.078125 6.890625 40.9375 10.546875 
Q 45.796875 14.203125 45.796875 21.1875 
Q 45.796875 27.640625 41.28125 31.265625 
Q 36.765625 34.90625 28.71875 34.90625 
L 20.21875 34.90625 
L 20.21875 43.015625 
L 29.109375 43.015625 
Q 36.375 43.015625 40.234375 45.921875 
Q 44.09375 48.828125 44.09375 54.296875 
Q 44.09375 59.90625 40.109375 62.90625 
Q 36.140625 65.921875 28.71875 65.921875 
Q 24.65625 65.921875 20.015625 65.03125 
Q 15.375 64.15625 9.8125 62.3125 
L 9.8125 71.09375 
Q 15.4375 72.65625 20.34375 73.4375 
Q 25.25 74.21875 29.59375 74.21875 
Q 40.828125 74.21875 47.359375 69.109375 
Q 53.90625 64.015625 53.90625 55.328125 
Q 53.90625 49.265625 50.4375 45.09375 
Q 46.96875 40.921875 40.578125 39.3125 
z
" id="DejaVuSans-51"/>
      </defs>
      <g transform="translate(186.186804 322.182437)scale(0.1 -0.1)">
       <use xlink:href="#DejaVuSans-51"/>
       <use x="63.623047" xlink:href="#DejaVuSans-48"/>
       <use x="127.246094" xlink:href="#DejaVuSans-48"/>
      </g>
     </g>
    </g>
    <g id="xtick_5">
     <g id="line2d_5">
      <g>
       <use style="stroke:#000000;stroke-width:0.8;" x="236.363163" xlink:href="#m2697589af5" y="307.584"/>
      </g>
     </g>
     <g id="text_5">
      <!-- 400 -->
      <defs>
       <path d="M 37.796875 64.3125 
L 12.890625 25.390625 
L 37.796875 25.390625 
z
M 35.203125 72.90625 
L 47.609375 72.90625 
L 47.609375 25.390625 
L 58.015625 25.390625 
L 58.015625 17.1875 
L 47.609375 17.1875 
L 47.609375 0 
L 37.796875 0 
L 37.796875 17.1875 
L 4.890625 17.1875 
L 4.890625 26.703125 
z
" id="DejaVuSans-52"/>
      </defs>
      <g transform="translate(226.819413 322.182437)scale(0.1 -0.1)">
       <use xlink:href="#DejaVuSans-52"/>
       <use x="63.623047" xlink:href="#DejaVuSans-48"/>
       <use x="127.246094" xlink:href="#DejaVuSans-48"/>
      </g>
     </g>
    </g>
    <g id="xtick_6">
     <g id="line2d_6">
      <g>
       <use style="stroke:#000000;stroke-width:0.8;" x="276.995772" xlink:href="#m2697589af5" y="307.584"/>
      </g>
     </g>
     <g id="text_6">
      <!-- 500 -->
      <defs>
       <path d="M 10.796875 72.90625 
L 49.515625 72.90625 
L 49.515625 64.59375 
L 19.828125 64.59375 
L 19.828125 46.734375 
Q 21.96875 47.46875 24.109375 47.828125 
Q 26.265625 48.1875 28.421875 48.1875 
Q 40.625 48.1875 47.75 41.5 
Q 54.890625 34.8125 54.890625 23.390625 
Q 54.890625 11.625 47.5625 5.09375 
Q 40.234375 -1.421875 26.90625 -1.421875 
Q 22.3125 -1.421875 17.546875 -0.640625 
Q 12.796875 0.140625 7.71875 1.703125 
L 7.71875 11.625 
Q 12.109375 9.234375 16.796875 8.0625 
Q 21.484375 6.890625 26.703125 6.890625 
Q 35.15625 6.890625 40.078125 11.328125 
Q 45.015625 15.765625 45.015625 23.390625 
Q 45.015625 31 40.078125 35.4375 
Q 35.15625 39.890625 26.703125 39.890625 
Q 22.75 39.890625 18.8125 39.015625 
Q 14.890625 38.140625 10.796875 36.28125 
z
" id="DejaVuSans-53"/>
      </defs>
      <g transform="translate(267.452022 322.182437)scale(0.1 -0.1)">
       <use xlink:href="#DejaVuSans-53"/>
       <use x="63.623047" xlink:href="#DejaVuSans-48"/>
       <use x="127.246094" xlink:href="#DejaVuSans-48"/>
      </g>
     </g>
    </g>
    <g id="xtick_7">
     <g id="line2d_7">
      <g>
       <use style="stroke:#000000;stroke-width:0.8;" x="317.628381" xlink:href="#m2697589af5" y="307.584"/>
      </g>
     </g>
     <g id="text_7">
      <!-- 600 -->
      <defs>
       <path d="M 33.015625 40.375 
Q 26.375 40.375 22.484375 35.828125 
Q 18.609375 31.296875 18.609375 23.390625 
Q 18.609375 15.53125 22.484375 10.953125 
Q 26.375 6.390625 33.015625 6.390625 
Q 39.65625 6.390625 43.53125 10.953125 
Q 47.40625 15.53125 47.40625 23.390625 
Q 47.40625 31.296875 43.53125 35.828125 
Q 39.65625 40.375 33.015625 40.375 
z
M 52.59375 71.296875 
L 52.59375 62.3125 
Q 48.875 64.0625 45.09375 64.984375 
Q 41.3125 65.921875 37.59375 65.921875 
Q 27.828125 65.921875 22.671875 59.328125 
Q 17.53125 52.734375 16.796875 39.40625 
Q 19.671875 43.65625 24.015625 45.921875 
Q 28.375 48.1875 33.59375 48.1875 
Q 44.578125 48.1875 50.953125 41.515625 
Q 57.328125 34.859375 57.328125 23.390625 
Q 57.328125 12.15625 50.6875 5.359375 
Q 44.046875 -1.421875 33.015625 -1.421875 
Q 20.359375 -1.421875 13.671875 8.265625 
Q 6.984375 17.96875 6.984375 36.375 
Q 6.984375 53.65625 15.1875 63.9375 
Q 23.390625 74.21875 37.203125 74.21875 
Q 40.921875 74.21875 44.703125 73.484375 
Q 48.484375 72.75 52.59375 71.296875 
z
" id="DejaVuSans-54"/>
      </defs>
      <g transform="translate(308.084631 322.182437)scale(0.1 -0.1)">
       <use xlink:href="#DejaVuSans-54"/>
       <use x="63.623047" xlink:href="#DejaVuSans-48"/>
       <use x="127.246094" xlink:href="#DejaVuSans-48"/>
      </g>
     </g>
    </g>
    <g id="xtick_8">
     <g id="line2d_8">
      <g>
       <use style="stroke:#000000;stroke-width:0.8;" x="358.26099" xlink:href="#m2697589af5" y="307.584"/>
      </g>
     </g>
     <g id="text_8">
      <!-- 700 -->
      <defs>
       <path d="M 8.203125 72.90625 
L 55.078125 72.90625 
L 55.078125 68.703125 
L 28.609375 0 
L 18.3125 0 
L 43.21875 64.59375 
L 8.203125 64.59375 
z
" id="DejaVuSans-55"/>
      </defs>
      <g transform="translate(348.71724 322.182437)scale(0.1 -0.1)">
       <use xlink:href="#DejaVuSans-55"/>
       <use x="63.623047" xlink:href="#DejaVuSans-48"/>
       <use x="127.246094" xlink:href="#DejaVuSans-48"/>
      </g>
     </g>
    </g>
    <g id="xtick_9">
     <g id="line2d_9">
      <g>
       <use style="stroke:#000000;stroke-width:0.8;" x="398.893599" xlink:href="#m2697589af5" y="307.584"/>
      </g>
     </g>
     <g id="text_9">
      <!-- 800 -->
      <defs>
       <path d="M 31.78125 34.625 
Q 24.75 34.625 20.71875 30.859375 
Q 16.703125 27.09375 16.703125 20.515625 
Q 16.703125 13.921875 20.71875 10.15625 
Q 24.75 6.390625 31.78125 6.390625 
Q 38.8125 6.390625 42.859375 10.171875 
Q 46.921875 13.96875 46.921875 20.515625 
Q 46.921875 27.09375 42.890625 30.859375 
Q 38.875 34.625 31.78125 34.625 
z
M 21.921875 38.8125 
Q 15.578125 40.375 12.03125 44.71875 
Q 8.5 49.078125 8.5 55.328125 
Q 8.5 64.0625 14.71875 69.140625 
Q 20.953125 74.21875 31.78125 74.21875 
Q 42.671875 74.21875 48.875 69.140625 
Q 55.078125 64.0625 55.078125 55.328125 
Q 55.078125 49.078125 51.53125 44.71875 
Q 48 40.375 41.703125 38.8125 
Q 48.828125 37.15625 52.796875 32.3125 
Q 56.78125 27.484375 56.78125 20.515625 
Q 56.78125 9.90625 50.3125 4.234375 
Q 43.84375 -1.421875 31.78125 -1.421875 
Q 19.734375 -1.421875 13.25 4.234375 
Q 6.78125 9.90625 6.78125 20.515625 
Q 6.78125 27.484375 10.78125 32.3125 
Q 14.796875 37.15625 21.921875 38.8125 
z
M 18.3125 54.390625 
Q 18.3125 48.734375 21.84375 45.5625 
Q 25.390625 42.390625 31.78125 42.390625 
Q 38.140625 42.390625 41.71875 45.5625 
Q 45.3125 48.734375 45.3125 54.390625 
Q 45.3125 60.0625 41.71875 63.234375 
Q 38.140625 66.40625 31.78125 66.40625 
Q 25.390625 66.40625 21.84375 63.234375 
Q 18.3125 60.0625 18.3125 54.390625 
z
" id="DejaVuSans-56"/>
      </defs>
      <g transform="translate(389.349849 322.182437)scale(0.1 -0.1)">
       <use xlink:href="#DejaVuSans-56"/>
       <use x="63.623047" xlink:href="#DejaVuSans-48"/>
       <use x="127.246094" xlink:href="#DejaVuSans-48"/>
      </g>
     </g>
    </g>
   </g>
   <g id="matplotlib.axis_2">
    <g id="ytick_1">
     <g id="line2d_10">
      <defs>
       <path d="M 0 0 
L -3.5 0 
" id="m324b0a7022" style="stroke:#000000;stroke-width:0.8;"/>
      </defs>
      <g>
       <use style="stroke:#000000;stroke-width:0.8;" x="57.6" xlink:href="#m324b0a7022" y="294.421164"/>
      </g>
     </g>
     <g id="text_10">
      <!-- 0.0 -->
      <defs>
       <path d="M 10.6875 12.40625 
L 21 12.40625 
L 21 0 
L 10.6875 0 
z
" id="DejaVuSans-46"/>
      </defs>
      <g transform="translate(34.696875 298.220383)scale(0.1 -0.1)">
       <use xlink:href="#DejaVuSans-48"/>
       <use x="63.623047" xlink:href="#DejaVuSans-46"/>
       <use x="95.410156" xlink:href="#DejaVuSans-48"/>
      </g>
     </g>
    </g>
    <g id="ytick_2">
     <g id="line2d_11">
      <g>
       <use style="stroke:#000000;stroke-width:0.8;" x="57.6" xlink:href="#m324b0a7022" y="241.702524"/>
      </g>
     </g>
     <g id="text_11">
      <!-- 0.1 -->
      <g transform="translate(34.696875 245.501743)scale(0.1 -0.1)">
       <use xlink:href="#DejaVuSans-48"/>
       <use x="63.623047" xlink:href="#DejaVuSans-46"/>
       <use x="95.410156" xlink:href="#DejaVuSans-49"/>
      </g>
     </g>
    </g>
    <g id="ytick_3">
     <g id="line2d_12">
      <g>
       <use style="stroke:#000000;stroke-width:0.8;" x="57.6" xlink:href="#m324b0a7022" y="188.983884"/>
      </g>
     </g>
     <g id="text_12">
      <!-- 0.2 -->
      <g transform="translate(34.696875 192.783102)scale(0.1 -0.1)">
       <use xlink:href="#DejaVuSans-48"/>
       <use x="63.623047" xlink:href="#DejaVuSans-46"/>
       <use x="95.410156" xlink:href="#DejaVuSans-50"/>
      </g>
     </g>
    </g>
    <g id="ytick_4">
     <g id="line2d_13">
      <g>
       <use style="stroke:#000000;stroke-width:0.8;" x="57.6" xlink:href="#m324b0a7022" y="136.265243"/>
      </g>
     </g>
     <g id="text_13">
      <!-- 0.3 -->
      <g transform="translate(34.696875 140.064462)scale(0.1 -0.1)">
       <use xlink:href="#DejaVuSans-48"/>
       <use x="63.623047" xlink:href="#DejaVuSans-46"/>
       <use x="95.410156" xlink:href="#DejaVuSans-51"/>
      </g>
     </g>
    </g>
    <g id="ytick_5">
     <g id="line2d_14">
      <g>
       <use style="stroke:#000000;stroke-width:0.8;" x="57.6" xlink:href="#m324b0a7022" y="83.546603"/>
      </g>
     </g>
     <g id="text_14">
      <!-- 0.4 -->
      <g transform="translate(34.696875 87.345821)scale(0.1 -0.1)">
       <use xlink:href="#DejaVuSans-48"/>
       <use x="63.623047" xlink:href="#DejaVuSans-46"/>
       <use x="95.410156" xlink:href="#DejaVuSans-52"/>
      </g>
     </g>
    </g>
   </g>
   <g id="line2d_15">
    <path clip-path="url(#p43a4d69260)" d="M 73.832727 55.291009 
L 75.458032 55.538955 
L 76.270684 55.529065 
L 76.67701 55.173126 
L 77.083336 55.160021 
L 77.489662 54.120633 
L 77.895988 53.991051 
L 78.302314 53.995859 
L 78.70864 53.815321 
L 80.740271 54.085418 
L 83.99088 54.632858 
L 85.616184 54.616472 
L 87.647814 54.302269 
L 90.898423 53.73834 
L 92.523727 53.760492 
L 93.742706 53.947551 
L 97.805967 54.713325 
L 99.024945 54.690769 
L 100.650249 54.440493 
L 103.900858 53.77119 
L 105.526162 53.717001 
L 107.151467 53.949577 
L 110.808401 54.641855 
L 112.433706 54.6992 
L 113.246358 54.517623 
L 118.528597 53.674561 
L 120.153901 53.816497 
L 121.779206 54.224636 
L 123.810836 54.617756 
L 125.436141 54.714811 
L 126.655119 54.533127 
L 127.874097 54.242859 
L 129.905728 53.73916 
L 131.124706 53.593021 
L 132.343684 53.602322 
L 134.375315 53.949179 
L 137.219597 54.500238 
L 138.844902 54.531359 
L 140.470206 54.307724 
L 144.127141 53.615776 
L 145.752445 53.642159 
L 147.784076 53.991395 
L 150.222032 54.496743 
L 151.847336 54.588013 
L 153.472641 54.400282 
L 157.535902 53.640127 
L 159.161206 53.726133 
L 159.567532 54.16691 
L 164.037119 54.625347 
L 166.06875 54.558346 
L 171.757315 54.090786 
L 173.788945 54.296613 
L 177.039554 54.659352 
L 179.071184 54.649206 
L 181.915467 54.309729 
L 184.353424 54.108918 
L 186.385054 54.207111 
L 191.667293 54.714002 
L 194.10525 54.501955 
L 196.949532 54.178381 
L 198.981163 54.179179 
L 201.012793 54.416877 
L 203.857076 54.755308 
L 205.48238 54.7598 
L 207.514011 54.554927 
L 211.170946 54.224011 
L 213.202576 54.334712 
L 218.484815 54.836721 
L 220.922772 54.628491 
L 224.17338 54.279593 
L 226.205011 54.331318 
L 232.706228 54.838688 
L 235.144185 54.544065 
L 237.582141 54.295042 
L 239.613772 54.336917 
L 242.458054 54.695385 
L 244.896011 54.896085 
L 246.927641 54.798513 
L 252.209881 54.317583 
L 254.241511 54.477926 
L 258.304772 54.928806 
L 260.336402 54.846383 
L 265.212315 54.331984 
L 267.243946 54.457963 
L 272.526185 55.029789 
L 276.18312 54.751733 
L 277.808424 54.517302 
L 278.621076 54.53532 
L 280.652707 54.599277 
L 281.465359 54.694213 
L 282.278011 54.907635 
L 285.122294 55.254861 
L 287.153924 55.230963 
L 287.56025 55.506009 
L 288.372902 54.178575 
L 289.998207 54.09236 
L 291.623511 54.245254 
L 296.093098 54.95303 
L 297.718403 54.885452 
L 299.750033 54.529665 
L 302.18799 54.141966 
L 303.813294 54.130093 
L 305.844924 54.415676 
L 309.501859 55.061487 
L 311.127163 54.971254 
L 313.158794 54.595415 
L 315.59675 54.192327 
L 317.222055 54.182014 
L 318.847359 54.4187 
L 322.504294 55.072333 
L 324.129598 55.063436 
L 326.161229 54.743956 
L 329.005511 54.235611 
L 330.630816 54.216365 
L 332.25612 54.430371 
L 335.913055 55.104315 
L 337.132033 55.134957 
L 339.163664 54.908663 
L 342.414272 54.282617 
L 344.039577 54.24367 
L 345.664881 54.464064 
L 349.728142 55.197433 
L 351.353446 55.137557 
L 353.385077 54.756463 
L 355.823033 54.303445 
L 357.448338 54.265642 
L 359.073642 54.483766 
L 362.730577 55.182539 
L 364.355881 55.19166 
L 365.981186 54.948182 
L 369.63812 54.285907 
L 370.857099 54.279786 
L 372.888729 54.571797 
L 376.139338 55.204433 
L 377.764642 55.203828 
L 379.389947 54.964986 
L 383.046881 54.302376 
L 384.672186 54.336034 
L 386.29749 54.6331 
L 389.548099 55.245732 
L 391.173403 55.243798 
L 392.798707 54.99794 
L 396.455642 54.339315 
L 398.080947 54.379461 
L 398.487273 54.423226 
L 398.487273 54.423226 
" style="fill:none;stroke:#1f77b4;stroke-linecap:square;stroke-width:1.5;"/>
   </g>
   <g id="line2d_16">
    <path clip-path="url(#p43a4d69260)" d="M 73.832727 54.942847 
L 75.458032 54.675051 
L 77.083336 54.64341 
L 79.114966 54.631595 
L 80.740271 54.394696 
L 83.99088 53.786865 
L 85.616184 53.805697 
L 87.647814 54.111449 
L 90.492097 54.616613 
L 92.117401 54.655807 
L 93.742706 54.43397 
L 97.39964 53.735667 
L 99.024945 53.75102 
L 100.650249 54.016955 
L 103.900858 54.678882 
L 105.526162 54.731179 
L 107.151467 54.505916 
L 111.621054 53.648271 
L 113.246358 53.747009 
L 115.277988 54.154008 
L 116.903293 54.493182 
L 118.528597 54.633005 
L 120.153901 54.515928 
L 125.029815 53.765485 
L 126.248793 53.839873 
L 128.686749 54.270732 
L 130.312054 54.480224 
L 131.531032 54.518428 
L 133.156336 54.361027 
L 138.032249 53.575062 
L 139.657554 53.711474 
L 141.689184 54.139924 
L 143.720815 54.519316 
L 144.939793 54.581791 
L 146.565097 54.422987 
L 151.44101 53.601034 
L 153.066315 53.726402 
L 155.504271 54.237832 
L 157.535902 54.567753 
L 159.161206 54.563838 
L 164.849771 54.046461 
L 166.475076 54.179059 
L 171.350989 54.680005 
L 173.382619 54.53967 
L 177.44588 54.087225 
L 179.071184 54.132984 
L 185.166076 54.689757 
L 187.197706 54.509101 
L 190.448315 54.141466 
L 192.479945 54.172563 
L 198.981163 54.721275 
L 201.419119 54.450784 
L 204.263402 54.172079 
L 205.888706 54.233908 
L 208.732989 54.603613 
L 210.764619 54.789817 
L 212.79625 54.758167 
L 218.891141 54.273626 
L 221.329098 54.531498 
L 224.17338 54.84204 
L 226.205011 54.801699 
L 232.706228 54.319378 
L 235.956837 54.707321 
L 237.988467 54.879154 
L 240.426424 54.755604 
L 244.896011 54.304612 
L 247.333967 54.450543 
L 251.397228 54.917267 
L 253.428859 54.848057 
L 259.117424 54.320609 
L 261.149054 54.512325 
L 264.805989 54.944453 
L 266.83762 54.885961 
L 272.932511 54.3989 
L 274.964142 54.655553 
L 278.621076 55.193687 
L 280.246381 55.190828 
L 282.278011 54.957289 
L 285.122294 54.645323 
L 286.747598 54.671552 
L 290.810859 54.907866 
L 292.436163 54.651313 
L 295.280446 54.156935 
L 296.90575 54.111525 
L 298.531055 54.297647 
L 302.594316 54.951274 
L 304.21962 54.907833 
L 306.25125 54.582864 
L 308.689207 54.181302 
L 310.314511 54.149343 
L 311.939816 54.356971 
L 316.003077 55.077307 
L 317.628381 55.029089 
L 319.660011 54.673979 
L 322.097968 54.237271 
L 323.723272 54.187932 
L 325.348577 54.388653 
L 329.411838 55.100052 
L 331.037142 55.060766 
L 333.068772 54.714097 
L 335.506729 54.267783 
L 337.132033 54.21494 
L 338.757338 54.414118 
L 343.226925 55.195628 
L 344.852229 55.104059 
L 346.883859 54.707951 
L 348.91549 54.320229 
L 350.540794 54.246854 
L 352.166099 54.437835 
L 356.635686 55.211439 
L 358.26099 55.119283 
L 360.29262 54.724013 
L 362.730577 54.295969 
L 364.355881 54.290205 
L 365.981186 54.532572 
L 369.63812 55.19946 
L 371.263425 55.173419 
L 373.295055 54.824553 
L 375.733012 54.354903 
L 377.358316 54.288429 
L 378.98362 54.47717 
L 383.453207 55.242441 
L 385.078512 55.149563 
L 387.516468 54.672818 
L 389.548099 54.360963 
L 391.173403 54.372104 
L 392.798707 54.626126 
L 396.049316 55.238261 
L 397.674621 55.261583 
L 398.487273 55.173641 
L 398.487273 55.173641 
" style="fill:none;stroke:#ff0000;stroke-linecap:square;stroke-width:1.5;"/>
   </g>
   <g id="line2d_17">
    <path clip-path="url(#p43a4d69260)" d="M 73.832727 294.769326 
L 75.051706 295.198339 
L 75.864358 295.288484 
L 76.270684 295.317273 
L 76.67701 294.957133 
L 77.083336 294.937776 
L 77.489662 293.881062 
L 77.895988 293.744157 
L 78.302314 293.749865 
L 78.70864 293.583417 
L 79.927619 293.83688 
L 81.959249 294.617977 
L 83.178227 295.092825 
L 84.397206 295.304054 
L 85.616184 295.23194 
L 86.835162 294.913534 
L 90.898423 293.514074 
L 92.117401 293.523068 
L 92.930053 293.647898 
L 94.149032 294.109486 
L 96.586988 295.173789 
L 97.805967 295.421033 
L 99.024945 295.360913 
L 100.243923 295.013168 
L 104.307184 293.439539 
L 105.526162 293.406987 
L 106.745141 293.712628 
L 109.183097 294.731341 
L 110.402075 295.230721 
L 111.621054 295.482805 
L 112.433706 295.459865 
L 113.652684 295.058271 
L 115.277988 294.388039 
L 116.903293 293.728303 
L 118.122271 293.47832 
L 119.341249 293.524151 
L 120.560228 293.864282 
L 122.185532 294.627803 
L 123.810836 295.204072 
L 125.029815 295.377164 
L 125.842467 295.30638 
L 127.874097 294.558717 
L 129.499402 293.80788 
L 131.531032 293.473626 
L 132.343684 293.555875 
L 133.562662 293.937461 
L 136.813271 295.21804 
L 138.032249 295.393434 
L 138.844902 295.344104 
L 140.06388 295.022422 
L 142.09551 294.143617 
L 143.720815 293.553371 
L 144.939793 293.432811 
L 146.158771 293.627127 
L 147.784076 294.240703 
L 149.815706 295.109073 
L 151.034684 295.383975 
L 152.253663 295.358054 
L 153.472641 295.027866 
L 157.535902 293.493539 
L 159.161206 293.583459 
L 159.567532 294.066319 
L 163.630793 294.970099 
L 164.849771 295.003788 
L 166.06875 294.849111 
L 170.944663 293.817703 
L 172.163641 293.885667 
L 173.788945 294.230802 
L 176.633228 294.925605 
L 177.852206 295.031564 
L 179.071184 294.937387 
L 181.102815 294.453785 
L 183.540771 293.899164 
L 184.75975 293.831916 
L 185.978728 293.945019 
L 187.604032 294.332866 
L 190.041989 294.926335 
L 191.667293 295.006169 
L 193.292598 294.760971 
L 197.762185 293.832061 
L 198.981163 293.879069 
L 200.606467 294.213901 
L 203.45075 294.938694 
L 204.669728 295.034355 
L 205.888706 294.924328 
L 207.920337 294.436574 
L 209.951967 293.949839 
L 211.170946 293.845822 
L 212.79625 293.958033 
L 214.82788 294.448523 
L 217.265837 294.960274 
L 218.484815 294.999792 
L 220.110119 294.773883 
L 224.579706 293.835224 
L 225.798685 293.892907 
L 227.423989 294.217943 
L 231.080924 295.006999 
L 232.299902 294.986019 
L 233.51888 294.787604 
L 237.582141 293.852287 
L 238.80112 293.84047 
L 240.426424 294.084102 
L 244.489685 294.99622 
L 245.708663 294.984727 
L 247.333967 294.723795 
L 250.990902 293.860156 
L 252.209881 293.818574 
L 253.428859 293.970162 
L 255.866815 294.603212 
L 257.49212 294.961019 
L 258.711098 295.043605 
L 259.930076 294.932079 
L 261.555381 294.540878 
L 263.993337 293.918581 
L 265.212315 293.798331 
L 266.431294 293.875771 
L 268.056598 294.237795 
L 271.307207 295.025949 
L 272.526185 295.074908 
L 274.964142 294.728366 
L 277.808424 293.815551 
L 281.059033 293.943481 
L 281.871685 294.252192 
L 284.715968 294.981607 
L 285.934946 295.057286 
L 286.747598 295.019762 
L 287.153924 294.946706 
L 287.56025 295.178906 
L 288.372902 293.738296 
L 289.591881 293.556273 
L 290.810859 293.655601 
L 292.029837 294.007979 
L 295.280446 295.161938 
L 296.499424 295.279195 
L 297.718403 295.127539 
L 299.343707 294.596439 
L 301.375337 293.826044 
L 302.594316 293.587006 
L 303.813294 293.610157 
L 305.032272 293.893768 
L 309.501859 295.349682 
L 310.720837 295.250726 
L 311.939816 294.913047 
L 315.59675 293.565736 
L 316.815729 293.494862 
L 318.034707 293.71684 
L 319.660011 294.333467 
L 321.691642 295.121324 
L 322.91062 295.336156 
L 324.129598 295.268262 
L 325.348577 294.933084 
L 329.005511 293.58783 
L 330.22449 293.50408 
L 331.443468 293.707138 
L 333.068772 294.301288 
L 335.100403 295.109001 
L 336.319381 295.344368 
L 337.538359 295.284127 
L 338.351011 295.113694 
L 340.382642 294.299897 
L 342.007946 293.668525 
L 343.226925 293.45567 
L 344.445903 293.545484 
L 345.664881 293.915894 
L 349.321816 295.318998 
L 350.540794 295.377444 
L 351.759772 295.134229 
L 353.385077 294.484337 
L 355.416707 293.679888 
L 356.635686 293.458982 
L 357.854664 293.554075 
L 359.073642 293.919782 
L 362.324251 295.220081 
L 363.543229 295.384583 
L 364.762207 295.243335 
L 365.981186 294.836775 
L 369.231794 293.576995 
L 370.450773 293.461949 
L 371.669751 293.665666 
L 373.295055 294.260323 
L 375.326686 295.112035 
L 376.545664 295.364321 
L 377.764642 295.311028 
L 378.98362 294.986427 
L 383.046881 293.500512 
L 384.26586 293.494182 
L 385.484838 293.804043 
L 387.516468 294.6523 
L 389.141773 295.228046 
L 390.360751 295.367741 
L 391.579729 295.207082 
L 392.798707 294.792978 
L 396.049316 293.547887 
L 397.268294 293.468382 
L 398.487273 293.67075 
L 398.487273 293.67075 
" style="fill:none;stroke:#008000;stroke-linecap:square;stroke-width:1.5;"/>
   </g>
   <g id="patch_3">
    <path d="M 57.6 307.584 
L 57.6 41.472 
" style="fill:none;stroke:#000000;stroke-linecap:square;stroke-linejoin:miter;stroke-width:0.8;"/>
   </g>
   <g id="patch_4">
    <path d="M 414.72 307.584 
L 414.72 41.472 
" style="fill:none;stroke:#000000;stroke-linecap:square;stroke-linejoin:miter;stroke-width:0.8;"/>
   </g>
   <g id="patch_5">
    <path d="M 57.6 307.584 
L 414.72 307.584 
" style="fill:none;stroke:#000000;stroke-linecap:square;stroke-linejoin:miter;stroke-width:0.8;"/>
   </g>
   <g id="patch_6">
    <path d="M 57.6 41.472 
L 414.72 41.472 
" style="fill:none;stroke:#000000;stroke-linecap:square;stroke-linejoin:miter;stroke-width:0.8;"/>
   </g>
   <g id="legend_1">
    <g id="patch_7">
     <path d="M 351.0075 198.045187 
L 407.72 198.045187 
Q 409.72 198.045187 409.72 196.045187 
L 409.72 153.010812 
Q 409.72 151.010812 407.72 151.010812 
L 351.0075 151.010812 
Q 349.0075 151.010812 349.0075 153.010812 
L 349.0075 196.045187 
Q 349.0075 198.045187 351.0075 198.045187 
z
" style="fill:#ffffff;opacity:0.8;stroke:#cccccc;stroke-linejoin:miter;"/>
    </g>
    <g id="line2d_18">
     <path d="M 353.0075 159.10925 
L 373.0075 159.10925 
" style="fill:none;stroke:#1f77b4;stroke-linecap:square;stroke-width:1.5;"/>
    </g>
    <g id="line2d_19"/>
    <g id="text_15">
     <!-- 0-&gt;1 -->
     <defs>
      <path d="M 4.890625 31.390625 
L 31.203125 31.390625 
L 31.203125 23.390625 
L 4.890625 23.390625 
z
" id="DejaVuSans-45"/>
      <path d="M 10.59375 49.21875 
L 10.59375 58.109375 
L 73.1875 35.40625 
L 73.1875 27.296875 
L 10.59375 4.59375 
L 10.59375 13.484375 
L 60.890625 31.296875 
z
" id="DejaVuSans-62"/>
     </defs>
     <g transform="translate(381.0075 162.60925)scale(0.1 -0.1)">
      <use xlink:href="#DejaVuSans-48"/>
      <use x="63.623047" xlink:href="#DejaVuSans-45"/>
      <use x="99.707031" xlink:href="#DejaVuSans-62"/>
      <use x="183.496094" xlink:href="#DejaVuSans-49"/>
     </g>
    </g>
    <g id="line2d_20">
     <path d="M 353.0075 173.787375 
L 373.0075 173.787375 
" style="fill:none;stroke:#ff0000;stroke-linecap:square;stroke-width:1.5;"/>
    </g>
    <g id="line2d_21"/>
    <g id="text_16">
     <!-- 1-&gt;0 -->
     <g transform="translate(381.0075 177.287375)scale(0.1 -0.1)">
      <use xlink:href="#DejaVuSans-49"/>
      <use x="63.623047" xlink:href="#DejaVuSans-45"/>
      <use x="99.707031" xlink:href="#DejaVuSans-62"/>
      <use x="183.496094" xlink:href="#DejaVuSans-48"/>
     </g>
    </g>
    <g id="line2d_22">
     <path d="M 353.0075 188.4655 
L 373.0075 188.4655 
" style="fill:none;stroke:#008000;stroke-linecap:square;stroke-width:1.5;"/>
    </g>
    <g id="line2d_23"/>
    <g id="text_17">
     <!-- diff -->
     <defs>
      <path d="M 45.40625 46.390625 
L 45.40625 75.984375 
L 54.390625 75.984375 
L 54.390625 0 
L 45.40625 0 
L 45.40625 8.203125 
Q 42.578125 3.328125 38.25 0.953125 
Q 33.9375 -1.421875 27.875 -1.421875 
Q 17.96875 -1.421875 11.734375 6.484375 
Q 5.515625 14.40625 5.515625 27.296875 
Q 5.515625 40.1875 11.734375 48.09375 
Q 17.96875 56 27.875 56 
Q 33.9375 56 38.25 53.625 
Q 42.578125 51.265625 45.40625 46.390625 
z
M 14.796875 27.296875 
Q 14.796875 17.390625 18.875 11.75 
Q 22.953125 6.109375 30.078125 6.109375 
Q 37.203125 6.109375 41.296875 11.75 
Q 45.40625 17.390625 45.40625 27.296875 
Q 45.40625 37.203125 41.296875 42.84375 
Q 37.203125 48.484375 30.078125 48.484375 
Q 22.953125 48.484375 18.875 42.84375 
Q 14.796875 37.203125 14.796875 27.296875 
z
" id="DejaVuSans-100"/>
      <path d="M 9.421875 54.6875 
L 18.40625 54.6875 
L 18.40625 0 
L 9.421875 0 
z
M 9.421875 75.984375 
L 18.40625 75.984375 
L 18.40625 64.59375 
L 9.421875 64.59375 
z
" id="DejaVuSans-105"/>
      <path d="M 37.109375 75.984375 
L 37.109375 68.5 
L 28.515625 68.5 
Q 23.6875 68.5 21.796875 66.546875 
Q 19.921875 64.59375 19.921875 59.515625 
L 19.921875 54.6875 
L 34.71875 54.6875 
L 34.71875 47.703125 
L 19.921875 47.703125 
L 19.921875 0 
L 10.890625 0 
L 10.890625 47.703125 
L 2.296875 47.703125 
L 2.296875 54.6875 
L 10.890625 54.6875 
L 10.890625 58.5 
Q 10.890625 67.625 15.140625 71.796875 
Q 19.390625 75.984375 28.609375 75.984375 
z
" id="DejaVuSans-102"/>
     </defs>
     <g transform="translate(381.0075 191.9655)scale(0.1 -0.1)">
      <use xlink:href="#DejaVuSans-100"/>
      <use x="63.476562" xlink:href="#DejaVuSans-105"/>
      <use x="91.259766" xlink:href="#DejaVuSans-102"/>
      <use x="126.464844" xlink:href="#DejaVuSans-102"/>
     </g>
    </g>
   </g>
  </g>
 </g>
 <defs>
  <clipPath id="p43a4d69260">
   <rect height="266.112" width="357.12" x="57.6" y="41.472"/>
  </clipPath>
 </defs>
</svg>
