<?xml version="1.0" encoding="utf-8" standalone="no"?>
<!DOCTYPE svg PUBLIC "-//W3C//DTD SVG 1.1//EN"
  "http://www.w3.org/Graphics/SVG/1.1/DTD/svg11.dtd">
<!-- Created with matplotlib (https://matplotlib.org/) -->
<svg height="345.6pt" version="1.1" viewBox="0 0 460.8 345.6" width="460.8pt" xmlns="http://www.w3.org/2000/svg" xmlns:xlink="http://www.w3.org/1999/xlink">
 <defs>
  <style type="text/css">
*{stroke-linecap:butt;stroke-linejoin:round;}
  </style>
 </defs>
 <g id="figure_1">
  <g id="patch_1">
   <path d="M 0 345.6 
L 460.8 345.6 
L 460.8 0 
L 0 0 
z
" style="fill:#ffffff;"/>
  </g>
  <g id="axes_1">
   <g id="patch_2">
    <path d="M 57.6 307.584 
L 414.72 307.584 
L 414.72 41.472 
L 57.6 41.472 
z
" style="fill:#ffffff;"/>
   </g>
   <g id="matplotlib.axis_1">
    <g id="xtick_1">
     <g id="line2d_1">
      <defs>
       <path d="M 0 0 
L 0 3.5 
" id="m325056d48f" style="stroke:#000000;stroke-width:0.8;"/>
      </defs>
      <g>
       <use style="stroke:#000000;stroke-width:0.8;" x="73.832727" xlink:href="#m325056d48f" y="307.584"/>
      </g>
     </g>
     <g id="text_1">
      <!-- 0 -->
      <defs>
       <path d="M 31.78125 66.40625 
Q 24.171875 66.40625 20.328125 58.90625 
Q 16.5 51.421875 16.5 36.375 
Q 16.5 21.390625 20.328125 13.890625 
Q 24.171875 6.390625 31.78125 6.390625 
Q 39.453125 6.390625 43.28125 13.890625 
Q 47.125 21.390625 47.125 36.375 
Q 47.125 51.421875 43.28125 58.90625 
Q 39.453125 66.40625 31.78125 66.40625 
z
M 31.78125 74.21875 
Q 44.046875 74.21875 50.515625 64.515625 
Q 56.984375 54.828125 56.984375 36.375 
Q 56.984375 17.96875 50.515625 8.265625 
Q 44.046875 -1.421875 31.78125 -1.421875 
Q 19.53125 -1.421875 13.0625 8.265625 
Q 6.59375 17.96875 6.59375 36.375 
Q 6.59375 54.828125 13.0625 64.515625 
Q 19.53125 74.21875 31.78125 74.21875 
z
" id="DejaVuSans-48"/>
      </defs>
      <g transform="translate(70.651477 322.182437)scale(0.1 -0.1)">
       <use xlink:href="#DejaVuSans-48"/>
      </g>
     </g>
    </g>
    <g id="xtick_2">
     <g id="line2d_2">
      <g>
       <use style="stroke:#000000;stroke-width:0.8;" x="114.465336" xlink:href="#m325056d48f" y="307.584"/>
      </g>
     </g>
     <g id="text_2">
      <!-- 100 -->
      <defs>
       <path d="M 12.40625 8.296875 
L 28.515625 8.296875 
L 28.515625 63.921875 
L 10.984375 60.40625 
L 10.984375 69.390625 
L 28.421875 72.90625 
L 38.28125 72.90625 
L 38.28125 8.296875 
L 54.390625 8.296875 
L 54.390625 0 
L 12.40625 0 
z
" id="DejaVuSans-49"/>
      </defs>
      <g transform="translate(104.921586 322.182437)scale(0.1 -0.1)">
       <use xlink:href="#DejaVuSans-49"/>
       <use x="63.623047" xlink:href="#DejaVuSans-48"/>
       <use x="127.246094" xlink:href="#DejaVuSans-48"/>
      </g>
     </g>
    </g>
    <g id="xtick_3">
     <g id="line2d_3">
      <g>
       <use style="stroke:#000000;stroke-width:0.8;" x="155.097945" xlink:href="#m325056d48f" y="307.584"/>
      </g>
     </g>
     <g id="text_3">
      <!-- 200 -->
      <defs>
       <path d="M 19.1875 8.296875 
L 53.609375 8.296875 
L 53.609375 0 
L 7.328125 0 
L 7.328125 8.296875 
Q 12.9375 14.109375 22.625 23.890625 
Q 32.328125 33.6875 34.8125 36.53125 
Q 39.546875 41.84375 41.421875 45.53125 
Q 43.3125 49.21875 43.3125 52.78125 
Q 43.3125 58.59375 39.234375 62.25 
Q 35.15625 65.921875 28.609375 65.921875 
Q 23.96875 65.921875 18.8125 64.3125 
Q 13.671875 62.703125 7.8125 59.421875 
L 7.8125 69.390625 
Q 13.765625 71.78125 18.9375 73 
Q 24.125 74.21875 28.421875 74.21875 
Q 39.75 74.21875 46.484375 68.546875 
Q 53.21875 62.890625 53.21875 53.421875 
Q 53.21875 48.921875 51.53125 44.890625 
Q 49.859375 40.875 45.40625 35.40625 
Q 44.1875 33.984375 37.640625 27.21875 
Q 31.109375 20.453125 19.1875 8.296875 
z
" id="DejaVuSans-50"/>
      </defs>
      <g transform="translate(145.554195 322.182437)scale(0.1 -0.1)">
       <use xlink:href="#DejaVuSans-50"/>
       <use x="63.623047" xlink:href="#DejaVuSans-48"/>
       <use x="127.246094" xlink:href="#DejaVuSans-48"/>
      </g>
     </g>
    </g>
    <g id="xtick_4">
     <g id="line2d_4">
      <g>
       <use style="stroke:#000000;stroke-width:0.8;" x="195.730554" xlink:href="#m325056d48f" y="307.584"/>
      </g>
     </g>
     <g id="text_4">
      <!-- 300 -->
      <defs>
       <path d="M 40.578125 39.3125 
Q 47.65625 37.796875 51.625 33 
Q 55.609375 28.21875 55.609375 21.1875 
Q 55.609375 10.40625 48.1875 4.484375 
Q 40.765625 -1.421875 27.09375 -1.421875 
Q 22.515625 -1.421875 17.65625 -0.515625 
Q 12.796875 0.390625 7.625 2.203125 
L 7.625 11.71875 
Q 11.71875 9.328125 16.59375 8.109375 
Q 21.484375 6.890625 26.8125 6.890625 
Q 36.078125 6.890625 40.9375 10.546875 
Q 45.796875 14.203125 45.796875 21.1875 
Q 45.796875 27.640625 41.28125 31.265625 
Q 36.765625 34.90625 28.71875 34.90625 
L 20.21875 34.90625 
L 20.21875 43.015625 
L 29.109375 43.015625 
Q 36.375 43.015625 40.234375 45.921875 
Q 44.09375 48.828125 44.09375 54.296875 
Q 44.09375 59.90625 40.109375 62.90625 
Q 36.140625 65.921875 28.71875 65.921875 
Q 24.65625 65.921875 20.015625 65.03125 
Q 15.375 64.15625 9.8125 62.3125 
L 9.8125 71.09375 
Q 15.4375 72.65625 20.34375 73.4375 
Q 25.25 74.21875 29.59375 74.21875 
Q 40.828125 74.21875 47.359375 69.109375 
Q 53.90625 64.015625 53.90625 55.328125 
Q 53.90625 49.265625 50.4375 45.09375 
Q 46.96875 40.921875 40.578125 39.3125 
z
" id="DejaVuSans-51"/>
      </defs>
      <g transform="translate(186.186804 322.182437)scale(0.1 -0.1)">
       <use xlink:href="#DejaVuSans-51"/>
       <use x="63.623047" xlink:href="#DejaVuSans-48"/>
       <use x="127.246094" xlink:href="#DejaVuSans-48"/>
      </g>
     </g>
    </g>
    <g id="xtick_5">
     <g id="line2d_5">
      <g>
       <use style="stroke:#000000;stroke-width:0.8;" x="236.363163" xlink:href="#m325056d48f" y="307.584"/>
      </g>
     </g>
     <g id="text_5">
      <!-- 400 -->
      <defs>
       <path d="M 37.796875 64.3125 
L 12.890625 25.390625 
L 37.796875 25.390625 
z
M 35.203125 72.90625 
L 47.609375 72.90625 
L 47.609375 25.390625 
L 58.015625 25.390625 
L 58.015625 17.1875 
L 47.609375 17.1875 
L 47.609375 0 
L 37.796875 0 
L 37.796875 17.1875 
L 4.890625 17.1875 
L 4.890625 26.703125 
z
" id="DejaVuSans-52"/>
      </defs>
      <g transform="translate(226.819413 322.182437)scale(0.1 -0.1)">
       <use xlink:href="#DejaVuSans-52"/>
       <use x="63.623047" xlink:href="#DejaVuSans-48"/>
       <use x="127.246094" xlink:href="#DejaVuSans-48"/>
      </g>
     </g>
    </g>
    <g id="xtick_6">
     <g id="line2d_6">
      <g>
       <use style="stroke:#000000;stroke-width:0.8;" x="276.995772" xlink:href="#m325056d48f" y="307.584"/>
      </g>
     </g>
     <g id="text_6">
      <!-- 500 -->
      <defs>
       <path d="M 10.796875 72.90625 
L 49.515625 72.90625 
L 49.515625 64.59375 
L 19.828125 64.59375 
L 19.828125 46.734375 
Q 21.96875 47.46875 24.109375 47.828125 
Q 26.265625 48.1875 28.421875 48.1875 
Q 40.625 48.1875 47.75 41.5 
Q 54.890625 34.8125 54.890625 23.390625 
Q 54.890625 11.625 47.5625 5.09375 
Q 40.234375 -1.421875 26.90625 -1.421875 
Q 22.3125 -1.421875 17.546875 -0.640625 
Q 12.796875 0.140625 7.71875 1.703125 
L 7.71875 11.625 
Q 12.109375 9.234375 16.796875 8.0625 
Q 21.484375 6.890625 26.703125 6.890625 
Q 35.15625 6.890625 40.078125 11.328125 
Q 45.015625 15.765625 45.015625 23.390625 
Q 45.015625 31 40.078125 35.4375 
Q 35.15625 39.890625 26.703125 39.890625 
Q 22.75 39.890625 18.8125 39.015625 
Q 14.890625 38.140625 10.796875 36.28125 
z
" id="DejaVuSans-53"/>
      </defs>
      <g transform="translate(267.452022 322.182437)scale(0.1 -0.1)">
       <use xlink:href="#DejaVuSans-53"/>
       <use x="63.623047" xlink:href="#DejaVuSans-48"/>
       <use x="127.246094" xlink:href="#DejaVuSans-48"/>
      </g>
     </g>
    </g>
    <g id="xtick_7">
     <g id="line2d_7">
      <g>
       <use style="stroke:#000000;stroke-width:0.8;" x="317.628381" xlink:href="#m325056d48f" y="307.584"/>
      </g>
     </g>
     <g id="text_7">
      <!-- 600 -->
      <defs>
       <path d="M 33.015625 40.375 
Q 26.375 40.375 22.484375 35.828125 
Q 18.609375 31.296875 18.609375 23.390625 
Q 18.609375 15.53125 22.484375 10.953125 
Q 26.375 6.390625 33.015625 6.390625 
Q 39.65625 6.390625 43.53125 10.953125 
Q 47.40625 15.53125 47.40625 23.390625 
Q 47.40625 31.296875 43.53125 35.828125 
Q 39.65625 40.375 33.015625 40.375 
z
M 52.59375 71.296875 
L 52.59375 62.3125 
Q 48.875 64.0625 45.09375 64.984375 
Q 41.3125 65.921875 37.59375 65.921875 
Q 27.828125 65.921875 22.671875 59.328125 
Q 17.53125 52.734375 16.796875 39.40625 
Q 19.671875 43.65625 24.015625 45.921875 
Q 28.375 48.1875 33.59375 48.1875 
Q 44.578125 48.1875 50.953125 41.515625 
Q 57.328125 34.859375 57.328125 23.390625 
Q 57.328125 12.15625 50.6875 5.359375 
Q 44.046875 -1.421875 33.015625 -1.421875 
Q 20.359375 -1.421875 13.671875 8.265625 
Q 6.984375 17.96875 6.984375 36.375 
Q 6.984375 53.65625 15.1875 63.9375 
Q 23.390625 74.21875 37.203125 74.21875 
Q 40.921875 74.21875 44.703125 73.484375 
Q 48.484375 72.75 52.59375 71.296875 
z
" id="DejaVuSans-54"/>
      </defs>
      <g transform="translate(308.084631 322.182437)scale(0.1 -0.1)">
       <use xlink:href="#DejaVuSans-54"/>
       <use x="63.623047" xlink:href="#DejaVuSans-48"/>
       <use x="127.246094" xlink:href="#DejaVuSans-48"/>
      </g>
     </g>
    </g>
    <g id="xtick_8">
     <g id="line2d_8">
      <g>
       <use style="stroke:#000000;stroke-width:0.8;" x="358.26099" xlink:href="#m325056d48f" y="307.584"/>
      </g>
     </g>
     <g id="text_8">
      <!-- 700 -->
      <defs>
       <path d="M 8.203125 72.90625 
L 55.078125 72.90625 
L 55.078125 68.703125 
L 28.609375 0 
L 18.3125 0 
L 43.21875 64.59375 
L 8.203125 64.59375 
z
" id="DejaVuSans-55"/>
      </defs>
      <g transform="translate(348.71724 322.182437)scale(0.1 -0.1)">
       <use xlink:href="#DejaVuSans-55"/>
       <use x="63.623047" xlink:href="#DejaVuSans-48"/>
       <use x="127.246094" xlink:href="#DejaVuSans-48"/>
      </g>
     </g>
    </g>
    <g id="xtick_9">
     <g id="line2d_9">
      <g>
       <use style="stroke:#000000;stroke-width:0.8;" x="398.893599" xlink:href="#m325056d48f" y="307.584"/>
      </g>
     </g>
     <g id="text_9">
      <!-- 800 -->
      <defs>
       <path d="M 31.78125 34.625 
Q 24.75 34.625 20.71875 30.859375 
Q 16.703125 27.09375 16.703125 20.515625 
Q 16.703125 13.921875 20.71875 10.15625 
Q 24.75 6.390625 31.78125 6.390625 
Q 38.8125 6.390625 42.859375 10.171875 
Q 46.921875 13.96875 46.921875 20.515625 
Q 46.921875 27.09375 42.890625 30.859375 
Q 38.875 34.625 31.78125 34.625 
z
M 21.921875 38.8125 
Q 15.578125 40.375 12.03125 44.71875 
Q 8.5 49.078125 8.5 55.328125 
Q 8.5 64.0625 14.71875 69.140625 
Q 20.953125 74.21875 31.78125 74.21875 
Q 42.671875 74.21875 48.875 69.140625 
Q 55.078125 64.0625 55.078125 55.328125 
Q 55.078125 49.078125 51.53125 44.71875 
Q 48 40.375 41.703125 38.8125 
Q 48.828125 37.15625 52.796875 32.3125 
Q 56.78125 27.484375 56.78125 20.515625 
Q 56.78125 9.90625 50.3125 4.234375 
Q 43.84375 -1.421875 31.78125 -1.421875 
Q 19.734375 -1.421875 13.25 4.234375 
Q 6.78125 9.90625 6.78125 20.515625 
Q 6.78125 27.484375 10.78125 32.3125 
Q 14.796875 37.15625 21.921875 38.8125 
z
M 18.3125 54.390625 
Q 18.3125 48.734375 21.84375 45.5625 
Q 25.390625 42.390625 31.78125 42.390625 
Q 38.140625 42.390625 41.71875 45.5625 
Q 45.3125 48.734375 45.3125 54.390625 
Q 45.3125 60.0625 41.71875 63.234375 
Q 38.140625 66.40625 31.78125 66.40625 
Q 25.390625 66.40625 21.84375 63.234375 
Q 18.3125 60.0625 18.3125 54.390625 
z
" id="DejaVuSans-56"/>
      </defs>
      <g transform="translate(389.349849 322.182437)scale(0.1 -0.1)">
       <use xlink:href="#DejaVuSans-56"/>
       <use x="63.623047" xlink:href="#DejaVuSans-48"/>
       <use x="127.246094" xlink:href="#DejaVuSans-48"/>
      </g>
     </g>
    </g>
   </g>
   <g id="matplotlib.axis_2">
    <g id="ytick_1">
     <g id="line2d_10">
      <defs>
       <path d="M 0 0 
L -3.5 0 
" id="mb528da2b3a" style="stroke:#000000;stroke-width:0.8;"/>
      </defs>
      <g>
       <use style="stroke:#000000;stroke-width:0.8;" x="57.6" xlink:href="#mb528da2b3a" y="292.647572"/>
      </g>
     </g>
     <g id="text_10">
      <!-- 0.0 -->
      <defs>
       <path d="M 10.6875 12.40625 
L 21 12.40625 
L 21 0 
L 10.6875 0 
z
" id="DejaVuSans-46"/>
      </defs>
      <g transform="translate(34.696875 296.446791)scale(0.1 -0.1)">
       <use xlink:href="#DejaVuSans-48"/>
       <use x="63.623047" xlink:href="#DejaVuSans-46"/>
       <use x="95.410156" xlink:href="#DejaVuSans-48"/>
      </g>
     </g>
    </g>
    <g id="ytick_2">
     <g id="line2d_11">
      <g>
       <use style="stroke:#000000;stroke-width:0.8;" x="57.6" xlink:href="#mb528da2b3a" y="234.069844"/>
      </g>
     </g>
     <g id="text_11">
      <!-- 0.1 -->
      <g transform="translate(34.696875 237.869063)scale(0.1 -0.1)">
       <use xlink:href="#DejaVuSans-48"/>
       <use x="63.623047" xlink:href="#DejaVuSans-46"/>
       <use x="95.410156" xlink:href="#DejaVuSans-49"/>
      </g>
     </g>
    </g>
    <g id="ytick_3">
     <g id="line2d_12">
      <g>
       <use style="stroke:#000000;stroke-width:0.8;" x="57.6" xlink:href="#mb528da2b3a" y="175.492116"/>
      </g>
     </g>
     <g id="text_12">
      <!-- 0.2 -->
      <g transform="translate(34.696875 179.291334)scale(0.1 -0.1)">
       <use xlink:href="#DejaVuSans-48"/>
       <use x="63.623047" xlink:href="#DejaVuSans-46"/>
       <use x="95.410156" xlink:href="#DejaVuSans-50"/>
      </g>
     </g>
    </g>
    <g id="ytick_4">
     <g id="line2d_13">
      <g>
       <use style="stroke:#000000;stroke-width:0.8;" x="57.6" xlink:href="#mb528da2b3a" y="116.914387"/>
      </g>
     </g>
     <g id="text_13">
      <!-- 0.3 -->
      <g transform="translate(34.696875 120.713606)scale(0.1 -0.1)">
       <use xlink:href="#DejaVuSans-48"/>
       <use x="63.623047" xlink:href="#DejaVuSans-46"/>
       <use x="95.410156" xlink:href="#DejaVuSans-51"/>
      </g>
     </g>
    </g>
    <g id="ytick_5">
     <g id="line2d_14">
      <g>
       <use style="stroke:#000000;stroke-width:0.8;" x="57.6" xlink:href="#mb528da2b3a" y="58.336659"/>
      </g>
     </g>
     <g id="text_14">
      <!-- 0.4 -->
      <g transform="translate(34.696875 62.135877)scale(0.1 -0.1)">
       <use xlink:href="#DejaVuSans-48"/>
       <use x="63.623047" xlink:href="#DejaVuSans-46"/>
       <use x="95.410156" xlink:href="#DejaVuSans-52"/>
      </g>
     </g>
    </g>
   </g>
   <g id="line2d_15">
    <path clip-path="url(#pffd1450cfb)" d="M 73.832727 60.904957 
L 74.645379 60.91784 
L 75.458032 60.731703 
L 76.67701 60.1389 
L 79.521293 58.367692 
L 80.333945 58.089123 
L 81.146597 57.997336 
L 81.959249 58.107247 
L 82.771901 58.399886 
L 83.99088 59.080134 
L 86.02251 60.306972 
L 86.835162 60.60748 
L 87.647814 60.723832 
L 88.460466 60.642261 
L 89.273119 60.364854 
L 90.492097 59.677164 
L 92.930053 58.17547 
L 93.742706 57.848266 
L 94.555358 57.735639 
L 95.36801 57.841903 
L 96.180662 58.137359 
L 97.39964 58.82637 
L 99.431271 60.029269 
L 100.243923 60.331286 
L 101.056575 60.452943 
L 101.869227 60.376267 
L 102.68188 60.10556 
L 103.900858 59.415871 
L 106.338814 57.899488 
L 107.151467 57.60597 
L 107.964119 57.500212 
L 108.776771 57.596741 
L 109.589423 57.877748 
L 110.808401 58.558655 
L 112.840032 59.781178 
L 113.652684 60.082426 
L 114.465336 60.2039 
L 115.277988 60.127864 
L 116.090641 59.862969 
L 117.309619 59.193631 
L 119.747575 57.698436 
L 120.560228 57.414755 
L 121.37288 57.311513 
L 122.185532 57.408843 
L 122.998184 57.687996 
L 124.217162 58.353867 
L 126.248793 59.555668 
L 127.061445 59.86584 
L 127.874097 59.995788 
L 128.686749 59.927095 
L 129.499402 59.667531 
L 130.71838 59.003446 
L 133.156336 57.501514 
L 133.968989 57.205563 
L 134.781641 57.095164 
L 135.594293 57.184258 
L 136.406945 57.459773 
L 137.625923 58.12536 
L 140.06388 59.544191 
L 140.876532 59.778495 
L 141.689184 59.809703 
L 142.501836 59.641223 
L 143.720815 59.072839 
L 146.971423 57.140056 
L 147.784076 56.932063 
L 148.596728 56.91937 
L 149.40938 57.098795 
L 150.628358 57.671233 
L 153.472641 59.341699 
L 154.285293 59.582618 
L 155.097945 59.624602 
L 155.910597 59.466274 
L 157.129576 58.903781 
L 160.380184 56.942327 
L 161.192837 56.750427 
L 162.005489 56.748769 
L 162.818141 56.950432 
L 164.037119 57.525166 
L 166.881402 59.167126 
L 167.694054 59.402559 
L 168.506706 59.449321 
L 169.319358 59.315695 
L 170.538337 58.767418 
L 173.788945 56.85097 
L 174.601597 56.635614 
L 175.41425 56.615392 
L 176.226902 56.788677 
L 177.44588 57.347236 
L 178.258532 57.794575 
L 180.290163 58.96819 
L 181.102815 59.202553 
L 181.915467 59.246993 
L 182.728119 59.100404 
L 183.540771 58.771383 
L 185.166076 57.767915 
L 186.79138 56.801919 
L 187.604032 56.498179 
L 188.416684 56.376446 
L 189.229337 56.45142 
L 190.041989 56.708362 
L 191.260967 57.34649 
L 193.292598 58.528234 
L 194.511576 58.931917 
L 195.324228 58.973681 
L 196.13688 58.823461 
L 197.355858 58.279996 
L 200.606467 56.379434 
L 201.419119 56.165834 
L 202.231772 56.143939 
L 203.044424 56.315228 
L 204.263402 56.873574 
L 207.107685 58.484434 
L 207.920337 58.718074 
L 208.732989 58.765456 
L 209.545641 58.618726 
L 210.764619 58.082901 
L 214.015228 56.201171 
L 214.82788 55.993446 
L 215.640532 55.967985 
L 216.453185 56.132697 
L 217.672163 56.677745 
L 220.516446 58.280587 
L 221.329098 58.519961 
L 222.14175 58.57465 
L 222.954402 58.434579 
L 224.17338 57.909232 
L 227.830315 55.898897 
L 228.642967 55.768192 
L 229.45562 55.83157 
L 230.268272 56.076853 
L 231.48725 56.701299 
L 233.925207 58.076314 
L 234.737859 58.324663 
L 235.550511 58.386911 
L 236.363163 58.257221 
L 237.582141 57.740331 
L 239.613772 56.474496 
L 240.83275 55.850799 
L 241.645402 55.622584 
L 242.458054 55.584246 
L 243.270707 55.740257 
L 244.489685 56.279866 
L 247.740294 58.063905 
L 248.552946 58.247731 
L 249.365598 58.22395 
L 250.17825 58.00669 
L 251.397228 57.388209 
L 254.241511 55.692943 
L 255.054163 55.449644 
L 255.866815 55.397128 
L 256.679468 55.540763 
L 257.898446 56.069242 
L 261.149054 57.865011 
L 261.961707 58.039981 
L 262.774359 58.020359 
L 263.587011 57.808141 
L 264.805989 57.195864 
L 267.650272 55.505374 
L 268.462924 55.249231 
L 269.275576 55.19836 
L 270.088228 55.339885 
L 271.307207 55.8662 
L 274.557815 57.670385 
L 275.370468 57.844991 
L 276.18312 57.826251 
L 276.995772 57.612679 
L 278.21475 56.994904 
L 281.059033 55.267886 
L 281.871685 55.014352 
L 282.684337 54.952162 
L 283.496989 55.088967 
L 284.715968 55.613378 
L 287.966576 57.439046 
L 288.779229 57.628688 
L 289.591881 57.62015 
L 290.404533 57.415114 
L 291.623511 56.808147 
L 294.467794 55.088892 
L 295.280446 54.828868 
L 296.093098 54.758926 
L 296.90575 54.886096 
L 298.124729 55.395939 
L 301.375337 57.247554 
L 302.18799 57.456299 
L 303.000642 57.44946 
L 303.813294 57.242639 
L 305.032272 56.634827 
L 308.282881 54.782447 
L 309.095533 54.617085 
L 309.908185 54.637515 
L 310.720837 54.849527 
L 311.939816 55.449608 
L 314.784098 57.058347 
L 315.59675 57.268161 
L 316.409403 57.275884 
L 317.222055 57.086344 
L 318.441033 56.491257 
L 321.285316 54.754697 
L 322.097968 54.547358 
L 322.91062 54.54692 
L 323.723272 54.65783 
L 324.942251 55.126024 
L 328.599185 57.010977 
L 329.411838 57.123652 
L 330.22449 57.049173 
L 331.037142 56.795239 
L 332.25612 56.161777 
L 334.694077 54.74478 
L 335.506729 54.471369 
L 336.319381 54.375842 
L 337.132033 54.470535 
L 338.351011 54.925636 
L 342.007946 56.829937 
L 342.820598 56.957512 
L 343.633251 56.895613 
L 344.445903 56.648362 
L 345.664881 56.02005 
L 348.102838 54.604543 
L 348.91549 54.322106 
L 349.728142 54.214078 
L 350.540794 54.295643 
L 351.759772 54.735753 
L 355.416707 56.624203 
L 356.229359 56.755605 
L 357.042012 56.70252 
L 357.854664 56.468913 
L 359.073642 55.85375 
L 361.511599 54.419838 
L 362.324251 54.126748 
L 363.136903 54.008244 
L 363.949555 54.077844 
L 364.762207 54.325708 
L 365.981186 54.94306 
L 368.419142 56.283203 
L 369.231794 56.51573 
L 370.044446 56.566748 
L 370.857099 56.423956 
L 372.076077 55.907309 
L 375.733012 53.952003 
L 376.545664 53.823276 
L 377.358316 53.884626 
L 378.170968 54.127359 
L 379.389947 54.739317 
L 381.827903 56.075739 
L 382.640555 56.31387 
L 383.453207 56.375248 
L 384.26586 56.247802 
L 385.484838 55.746448 
L 389.141773 53.784811 
L 389.954425 53.657893 
L 390.767077 53.716125 
L 391.579729 53.950371 
L 392.798707 54.553628 
L 395.236664 55.891137 
L 396.049316 56.135428 
L 396.861968 56.200995 
L 397.674621 56.081099 
L 398.487273 55.787373 
L 398.487273 55.787373 
" style="fill:none;stroke:#1f77b4;stroke-linecap:square;stroke-width:1.5;"/>
   </g>
   <g id="line2d_16">
    <path clip-path="url(#pffd1450cfb)" d="M 73.832727 58.163058 
L 74.645379 58.124423 
L 75.458032 58.28658 
L 76.67701 58.839838 
L 79.927619 60.645673 
L 80.740271 60.809752 
L 81.552923 60.776616 
L 82.365575 60.544554 
L 83.584553 59.903013 
L 86.428836 58.17962 
L 87.241488 57.940267 
L 88.05414 57.897574 
L 88.866793 58.055579 
L 90.085771 58.608197 
L 93.33638 60.428702 
L 94.149032 60.596835 
L 94.961684 60.563679 
L 95.774336 60.324894 
L 96.993314 59.665243 
L 99.837597 57.91813 
L 100.650249 57.672677 
L 101.462901 57.612338 
L 102.275554 57.763346 
L 103.494532 58.303522 
L 106.745141 60.137636 
L 107.557793 60.308876 
L 108.370445 60.280456 
L 109.183097 60.057751 
L 110.402075 59.431302 
L 113.246358 57.711304 
L 114.05901 57.471422 
L 114.871662 57.423634 
L 115.684314 57.573252 
L 116.903293 58.109238 
L 120.153901 59.911372 
L 120.966554 60.082835 
L 121.779206 60.059393 
L 122.591858 59.84527 
L 123.810836 59.22886 
L 126.655119 57.517006 
L 127.467771 57.266465 
L 128.280423 57.207908 
L 129.093075 57.342297 
L 130.312054 57.869417 
L 133.562662 59.688531 
L 134.375315 59.87165 
L 135.187967 59.863268 
L 136.000619 59.648526 
L 137.219597 59.034852 
L 140.06388 57.316013 
L 140.876532 57.065559 
L 141.689184 57.011187 
L 142.501836 57.153663 
L 143.720815 57.686577 
L 146.971423 59.518905 
L 147.784076 59.701097 
L 148.596728 59.689706 
L 149.40938 59.477353 
L 150.628358 58.857109 
L 153.472641 57.117679 
L 154.285293 56.861125 
L 155.097945 56.80079 
L 155.910597 56.942203 
L 157.129576 57.474632 
L 160.380184 59.331572 
L 161.192837 59.5226 
L 162.005489 59.519082 
L 162.818141 59.317039 
L 164.037119 58.708856 
L 166.881402 56.997627 
L 167.694054 56.743535 
L 168.506706 56.678751 
L 169.319358 56.811477 
L 170.538337 57.332422 
L 173.788945 59.163716 
L 174.601597 59.356382 
L 175.41425 59.351108 
L 176.226902 59.132512 
L 177.44588 58.530982 
L 180.290163 56.808048 
L 181.102815 56.542682 
L 181.915467 56.475555 
L 182.728119 56.606169 
L 183.947098 57.121301 
L 187.197706 58.930056 
L 188.010358 59.116844 
L 188.823011 59.101036 
L 189.635663 58.891979 
L 190.854641 58.285779 
L 193.698924 56.576819 
L 194.511576 56.316972 
L 195.324228 56.245422 
L 196.13688 56.370363 
L 197.355858 56.872106 
L 200.606467 58.661613 
L 201.419119 58.852992 
L 202.231772 58.849183 
L 203.044424 58.652114 
L 204.263402 58.060543 
L 207.107685 56.363969 
L 207.920337 56.105816 
L 208.732989 56.034136 
L 209.545641 56.157289 
L 210.764619 56.658281 
L 214.015228 58.459534 
L 214.82788 58.65279 
L 215.640532 58.659807 
L 216.453185 58.470179 
L 217.672163 57.887445 
L 220.516446 56.203441 
L 221.329098 55.939601 
L 222.14175 55.863447 
L 222.954402 55.9801 
L 224.17338 56.468128 
L 227.830315 58.370248 
L 228.642967 58.477959 
L 229.45562 58.390513 
L 230.268272 58.121981 
L 231.48725 57.460723 
L 233.925207 56.017782 
L 234.737859 55.749684 
L 235.550511 55.664556 
L 236.363163 55.77435 
L 237.582141 56.262155 
L 241.239076 58.202956 
L 242.051728 58.315711 
L 242.86438 58.239171 
L 243.677033 57.980077 
L 244.896011 57.333284 
L 247.333967 55.867923 
L 248.14662 55.579515 
L 248.959272 55.483407 
L 249.771924 55.583218 
L 250.584576 55.863247 
L 251.803554 56.535216 
L 253.835185 57.731724 
L 254.647837 58.034363 
L 255.460489 58.161655 
L 256.273141 58.090697 
L 257.085794 57.829744 
L 258.304772 57.165462 
L 260.742728 55.685038 
L 261.555381 55.395837 
L 262.368033 55.292526 
L 263.180685 55.386578 
L 263.993337 55.662628 
L 265.212315 56.324131 
L 267.243946 57.522667 
L 268.056598 57.828335 
L 268.86925 57.958612 
L 269.681902 57.8929 
L 270.494555 57.637545 
L 271.713533 56.982229 
L 274.151489 55.488185 
L 274.964142 55.186773 
L 275.776794 55.074339 
L 276.589446 55.157195 
L 277.402098 55.42443 
L 278.621076 56.080883 
L 280.652707 57.295905 
L 281.465359 57.611577 
L 282.278011 57.749174 
L 283.090663 57.68606 
L 283.903316 57.431466 
L 285.122294 56.772608 
L 287.56025 55.270514 
L 288.372902 54.971737 
L 289.185555 54.855175 
L 289.998207 54.939861 
L 290.810859 55.208881 
L 292.029837 55.864355 
L 294.061468 57.073383 
L 294.87412 57.395637 
L 295.686772 57.539906 
L 296.499424 57.485619 
L 297.312076 57.238906 
L 298.531055 56.595285 
L 300.969011 55.089561 
L 301.781663 54.785478 
L 302.594316 54.671447 
L 303.406968 54.755681 
L 304.21962 55.025857 
L 305.438598 55.687018 
L 307.470229 56.900649 
L 308.282881 57.224607 
L 309.095533 57.370308 
L 309.908185 57.323136 
L 310.720837 57.086282 
L 311.939816 56.446311 
L 314.377772 54.954531 
L 315.190424 54.639129 
L 316.003077 54.510044 
L 316.815729 54.575277 
L 317.628381 54.831942 
L 318.847359 55.474882 
L 321.285316 56.88666 
L 322.097968 57.140035 
L 322.91062 57.206029 
L 323.723272 57.084446 
L 324.942251 56.59004 
L 328.599185 54.612816 
L 329.411838 54.474266 
L 330.22449 54.526313 
L 331.443468 54.934556 
L 333.068772 55.845052 
L 334.694077 56.704775 
L 335.506729 56.957284 
L 336.319381 57.026007 
L 337.132033 56.919078 
L 337.944685 56.634922 
L 339.56999 55.718596 
L 341.195294 54.771204 
L 342.414272 54.355056 
L 343.226925 54.302296 
L 344.039577 54.435617 
L 345.258555 54.933351 
L 348.509164 56.664387 
L 349.321816 56.839549 
L 350.134468 56.832619 
L 350.94712 56.635499 
L 352.166099 56.057119 
L 355.416707 54.281507 
L 356.229359 54.138643 
L 357.042012 54.174582 
L 358.26099 54.534462 
L 359.479968 55.163037 
L 361.511599 56.29216 
L 362.324251 56.560519 
L 363.136903 56.658826 
L 363.949555 56.574691 
L 364.762207 56.308858 
L 366.387512 55.392471 
L 368.012816 54.42539 
L 369.231794 53.988655 
L 370.044446 53.912595 
L 370.857099 54.025716 
L 372.076077 54.506368 
L 375.733012 56.370823 
L 376.545664 56.474129 
L 377.358316 56.387505 
L 378.170968 56.123167 
L 379.389947 55.477466 
L 381.827903 54.077111 
L 382.640555 53.815939 
L 383.453207 53.732984 
L 384.26586 53.837259 
L 385.484838 54.306083 
L 389.141773 56.182045 
L 389.954425 56.295148 
L 390.767077 56.21662 
L 391.579729 55.963471 
L 392.798707 55.331507 
L 395.236664 53.924391 
L 396.049316 53.657578 
L 396.861968 53.568 
L 397.674621 53.66657 
L 398.487273 53.937543 
L 398.487273 53.937543 
" style="fill:none;stroke:#ff0000;stroke-linecap:square;stroke-width:1.5;"/>
   </g>
   <g id="line2d_17">
    <path clip-path="url(#pffd1450cfb)" d="M 73.832727 295.389471 
L 74.645379 295.440989 
L 75.458032 295.092695 
L 76.270684 294.398729 
L 77.489662 292.917429 
L 79.114966 290.903013 
L 79.927619 290.210159 
L 80.740271 289.856773 
L 81.552923 289.897989 
L 82.365575 290.334753 
L 83.178227 291.103007 
L 84.397206 292.625023 
L 85.616184 294.163581 
L 86.428836 294.945484 
L 87.241488 295.3983 
L 88.05414 295.460437 
L 88.866793 295.117931 
L 89.679445 294.422116 
L 90.898423 292.951148 
L 92.523727 290.939479 
L 93.33638 290.187189 
L 94.149032 289.808498 
L 94.961684 289.848367 
L 95.774336 290.291202 
L 96.586988 291.07129 
L 98.212293 293.151946 
L 99.431271 294.571312 
L 100.243923 295.205579 
L 101.056575 295.488 
L 101.869227 295.362048 
L 102.68188 294.848878 
L 103.494532 294.014747 
L 106.338814 290.561791 
L 107.151467 290.006608 
L 107.964119 289.829761 
L 108.776771 290.054414 
L 109.589423 290.641753 
L 110.402075 291.516116 
L 112.840032 294.532989 
L 113.652684 295.162077 
L 114.465336 295.430016 
L 115.277988 295.299809 
L 116.090641 294.795715 
L 116.903293 293.980245 
L 120.153901 290.271306 
L 120.966554 289.903748 
L 121.779206 289.924309 
L 122.591858 290.33038 
L 123.40451 291.065711 
L 125.029815 293.079576 
L 126.248793 294.49865 
L 127.061445 295.144133 
L 127.874097 295.431224 
L 128.686749 295.323726 
L 129.499402 294.835759 
L 130.312054 294.029908 
L 133.562662 290.291344 
L 134.375315 289.901545 
L 135.187967 289.899291 
L 136.000619 290.299282 
L 136.813271 291.033074 
L 138.032249 292.521109 
L 139.657554 294.502707 
L 140.470206 295.157945 
L 141.282858 295.455148 
L 142.09551 295.339057 
L 142.908162 294.842133 
L 143.720815 294.033834 
L 146.971423 290.268723 
L 147.784076 289.878538 
L 148.596728 289.877237 
L 149.40938 290.269014 
L 150.222032 291.000923 
L 151.44101 292.517738 
L 153.066315 294.502457 
L 153.878967 295.165983 
L 154.691619 295.470889 
L 155.504271 295.374022 
L 156.316923 294.880109 
L 157.129576 294.076721 
L 160.380184 290.258327 
L 161.192837 289.875399 
L 162.005489 289.877259 
L 162.818141 290.280966 
L 163.630793 291.006376 
L 164.849771 292.491059 
L 166.475076 294.451393 
L 167.287728 295.106016 
L 168.10038 295.411869 
L 168.913032 295.333054 
L 169.725684 294.871376 
L 170.538337 294.082568 
L 173.788945 290.334826 
L 174.601597 289.926804 
L 175.41425 289.911857 
L 176.226902 290.303737 
L 177.039554 291.012994 
L 178.664858 292.962477 
L 179.883837 294.436555 
L 180.696489 295.1025 
L 181.509141 295.412964 
L 182.321793 295.328033 
L 183.134445 294.863084 
L 183.947098 294.077252 
L 187.197706 290.34702 
L 188.010358 289.943678 
L 188.823011 289.936085 
L 189.635663 290.315459 
L 190.448315 291.014768 
L 192.073619 292.996295 
L 193.292598 294.408782 
L 194.10525 295.061174 
L 194.917902 295.368114 
L 195.730554 295.284303 
L 196.543206 294.828317 
L 197.355858 294.055463 
L 200.606467 290.365394 
L 201.419119 289.960415 
L 202.231772 289.942328 
L 203.044424 290.310687 
L 203.857076 291.014681 
L 205.076054 292.463075 
L 206.701359 294.402219 
L 207.514011 295.057643 
L 208.326663 295.36863 
L 209.139315 295.29132 
L 209.951967 294.837654 
L 210.764619 294.072192 
L 214.015228 290.38921 
L 214.82788 289.988229 
L 215.640532 289.95575 
L 216.453185 290.31009 
L 217.265837 290.996529 
L 218.484815 292.430349 
L 220.110119 294.356926 
L 220.922772 295.019457 
L 221.735424 295.343181 
L 222.548076 295.277241 
L 223.360728 294.838906 
L 224.17338 294.088676 
L 227.423989 290.431561 
L 228.236641 290.009157 
L 229.049293 289.964033 
L 229.861946 290.30509 
L 230.674598 290.976504 
L 231.893576 292.393444 
L 233.51888 294.327468 
L 234.331533 295.008918 
L 235.144185 295.34563 
L 235.956837 295.297878 
L 236.769489 294.871105 
L 237.582141 294.125748 
L 238.80112 292.652941 
L 240.020098 291.179284 
L 240.83275 290.426387 
L 241.645402 289.985624 
L 242.458054 289.929068 
L 243.270707 290.25757 
L 244.083359 290.919575 
L 245.302337 292.341027 
L 246.927641 294.288565 
L 247.740294 295.010486 
L 248.552946 295.388165 
L 249.365598 295.363074 
L 250.17825 294.951538 
L 250.990902 294.210348 
L 252.616207 292.196151 
L 253.835185 290.792454 
L 254.647837 290.162154 
L 255.460489 289.884305 
L 256.273141 290.002067 
L 257.085794 290.49834 
L 257.898446 291.30212 
L 260.742728 294.674283 
L 261.555381 295.227589 
L 262.368033 295.410259 
L 263.180685 295.19838 
L 263.993337 294.622022 
L 265.212315 293.265398 
L 267.243946 290.814518 
L 268.056598 290.17728 
L 268.86925 289.886603 
L 269.681902 289.999992 
L 270.494555 290.489992 
L 271.307207 291.286066 
L 274.557815 295.001693 
L 275.370468 295.388543 
L 276.18312 295.382655 
L 276.995772 294.990508 
L 277.808424 294.264546 
L 279.027402 292.773482 
L 280.652707 290.808316 
L 281.465359 290.154731 
L 282.278011 289.856624 
L 283.090663 289.957828 
L 283.903316 290.442356 
L 284.715968 291.240904 
L 287.966576 294.986571 
L 288.779229 295.387453 
L 289.591881 295.394485 
L 290.404533 295.009468 
L 291.217185 294.289777 
L 292.436163 292.813795 
L 294.061468 290.854204 
L 294.87412 290.188705 
L 295.686772 289.876657 
L 296.499424 289.960822 
L 297.312076 290.426899 
L 298.124729 291.204868 
L 301.375337 294.979062 
L 302.18799 295.401921 
L 303.000642 295.407841 
L 303.813294 295.020707 
L 304.625946 294.299335 
L 305.844924 292.820826 
L 307.470229 290.871457 
L 308.282881 290.205413 
L 309.095533 289.894349 
L 309.908185 289.961952 
L 310.720837 290.410818 
L 311.53349 291.178467 
L 314.784098 294.929661 
L 315.59675 295.368066 
L 316.409403 295.405635 
L 317.222055 295.049973 
L 318.034707 294.351682 
L 319.253685 292.885889 
L 320.87899 290.899512 
L 321.691642 290.239257 
L 322.504294 289.972214 
L 323.316946 290.062532 
L 324.129598 290.471027 
L 324.942251 291.183557 
L 326.567555 293.120132 
L 327.786533 294.451841 
L 328.599185 295.045732 
L 329.411838 295.296959 
L 330.22449 295.170432 
L 331.037142 294.677833 
L 331.849794 293.908821 
L 335.100403 290.384352 
L 335.913055 290.032675 
L 336.725707 290.056263 
L 337.538359 290.436213 
L 338.351011 291.138808 
L 339.976316 293.051457 
L 341.195294 294.407901 
L 342.007946 295.024086 
L 342.820598 295.301225 
L 343.633251 295.198285 
L 344.445903 294.72955 
L 345.258555 293.970343 
L 348.509164 290.426623 
L 349.321816 290.053164 
L 350.134468 290.046414 
L 350.94712 290.416168 
L 351.759772 291.102688 
L 352.978751 292.509664 
L 354.604055 294.371328 
L 355.416707 294.990268 
L 356.229359 295.264535 
L 357.042012 295.175511 
L 357.854664 294.735139 
L 358.667316 294.01515 
L 361.917925 290.455217 
L 362.730577 290.058166 
L 363.543229 290.022407 
L 364.355881 290.362036 
L 365.168533 291.042969 
L 366.387512 292.442623 
L 368.012816 294.331774 
L 368.825468 294.973266 
L 369.63812 295.285655 
L 370.450773 295.218794 
L 371.263425 294.785696 
L 372.076077 294.048513 
L 373.701381 292.115815 
L 374.92036 290.80044 
L 375.733012 290.228752 
L 376.545664 289.996719 
L 377.358316 290.144694 
L 378.170968 290.651765 
L 378.98362 291.441202 
L 381.827903 294.646201 
L 382.640555 295.145503 
L 383.453207 295.289836 
L 384.26586 295.058116 
L 385.078512 294.481034 
L 386.29749 293.162566 
L 388.32912 290.836495 
L 389.141773 290.250338 
L 389.954425 290.010318 
L 390.767077 290.147078 
L 391.579729 290.634472 
L 392.392381 291.408572 
L 395.236664 294.614318 
L 396.049316 295.125422 
L 396.861968 295.280567 
L 397.674621 295.062102 
L 398.487273 294.497403 
L 398.487273 294.497403 
" style="fill:none;stroke:#008000;stroke-linecap:square;stroke-width:1.5;"/>
   </g>
   <g id="patch_3">
    <path d="M 57.6 307.584 
L 57.6 41.472 
" style="fill:none;stroke:#000000;stroke-linecap:square;stroke-linejoin:miter;stroke-width:0.8;"/>
   </g>
   <g id="patch_4">
    <path d="M 414.72 307.584 
L 414.72 41.472 
" style="fill:none;stroke:#000000;stroke-linecap:square;stroke-linejoin:miter;stroke-width:0.8;"/>
   </g>
   <g id="patch_5">
    <path d="M 57.6 307.584 
L 414.72 307.584 
" style="fill:none;stroke:#000000;stroke-linecap:square;stroke-linejoin:miter;stroke-width:0.8;"/>
   </g>
   <g id="patch_6">
    <path d="M 57.6 41.472 
L 414.72 41.472 
" style="fill:none;stroke:#000000;stroke-linecap:square;stroke-linejoin:miter;stroke-width:0.8;"/>
   </g>
   <g id="legend_1">
    <g id="patch_7">
     <path d="M 351.0075 198.045187 
L 407.72 198.045187 
Q 409.72 198.045187 409.72 196.045187 
L 409.72 153.010812 
Q 409.72 151.010812 407.72 151.010812 
L 351.0075 151.010812 
Q 349.0075 151.010812 349.0075 153.010812 
L 349.0075 196.045187 
Q 349.0075 198.045187 351.0075 198.045187 
z
" style="fill:#ffffff;opacity:0.8;stroke:#cccccc;stroke-linejoin:miter;"/>
    </g>
    <g id="line2d_18">
     <path d="M 353.0075 159.10925 
L 373.0075 159.10925 
" style="fill:none;stroke:#1f77b4;stroke-linecap:square;stroke-width:1.5;"/>
    </g>
    <g id="line2d_19"/>
    <g id="text_15">
     <!-- 0-&gt;1 -->
     <defs>
      <path d="M 4.890625 31.390625 
L 31.203125 31.390625 
L 31.203125 23.390625 
L 4.890625 23.390625 
z
" id="DejaVuSans-45"/>
      <path d="M 10.59375 49.21875 
L 10.59375 58.109375 
L 73.1875 35.40625 
L 73.1875 27.296875 
L 10.59375 4.59375 
L 10.59375 13.484375 
L 60.890625 31.296875 
z
" id="DejaVuSans-62"/>
     </defs>
     <g transform="translate(381.0075 162.60925)scale(0.1 -0.1)">
      <use xlink:href="#DejaVuSans-48"/>
      <use x="63.623047" xlink:href="#DejaVuSans-45"/>
      <use x="99.707031" xlink:href="#DejaVuSans-62"/>
      <use x="183.496094" xlink:href="#DejaVuSans-49"/>
     </g>
    </g>
    <g id="line2d_20">
     <path d="M 353.0075 173.787375 
L 373.0075 173.787375 
" style="fill:none;stroke:#ff0000;stroke-linecap:square;stroke-width:1.5;"/>
    </g>
    <g id="line2d_21"/>
    <g id="text_16">
     <!-- 1-&gt;0 -->
     <g transform="translate(381.0075 177.287375)scale(0.1 -0.1)">
      <use xlink:href="#DejaVuSans-49"/>
      <use x="63.623047" xlink:href="#DejaVuSans-45"/>
      <use x="99.707031" xlink:href="#DejaVuSans-62"/>
      <use x="183.496094" xlink:href="#DejaVuSans-48"/>
     </g>
    </g>
    <g id="line2d_22">
     <path d="M 353.0075 188.4655 
L 373.0075 188.4655 
" style="fill:none;stroke:#008000;stroke-linecap:square;stroke-width:1.5;"/>
    </g>
    <g id="line2d_23"/>
    <g id="text_17">
     <!-- diff -->
     <defs>
      <path d="M 45.40625 46.390625 
L 45.40625 75.984375 
L 54.390625 75.984375 
L 54.390625 0 
L 45.40625 0 
L 45.40625 8.203125 
Q 42.578125 3.328125 38.25 0.953125 
Q 33.9375 -1.421875 27.875 -1.421875 
Q 17.96875 -1.421875 11.734375 6.484375 
Q 5.515625 14.40625 5.515625 27.296875 
Q 5.515625 40.1875 11.734375 48.09375 
Q 17.96875 56 27.875 56 
Q 33.9375 56 38.25 53.625 
Q 42.578125 51.265625 45.40625 46.390625 
z
M 14.796875 27.296875 
Q 14.796875 17.390625 18.875 11.75 
Q 22.953125 6.109375 30.078125 6.109375 
Q 37.203125 6.109375 41.296875 11.75 
Q 45.40625 17.390625 45.40625 27.296875 
Q 45.40625 37.203125 41.296875 42.84375 
Q 37.203125 48.484375 30.078125 48.484375 
Q 22.953125 48.484375 18.875 42.84375 
Q 14.796875 37.203125 14.796875 27.296875 
z
" id="DejaVuSans-100"/>
      <path d="M 9.421875 54.6875 
L 18.40625 54.6875 
L 18.40625 0 
L 9.421875 0 
z
M 9.421875 75.984375 
L 18.40625 75.984375 
L 18.40625 64.59375 
L 9.421875 64.59375 
z
" id="DejaVuSans-105"/>
      <path d="M 37.109375 75.984375 
L 37.109375 68.5 
L 28.515625 68.5 
Q 23.6875 68.5 21.796875 66.546875 
Q 19.921875 64.59375 19.921875 59.515625 
L 19.921875 54.6875 
L 34.71875 54.6875 
L 34.71875 47.703125 
L 19.921875 47.703125 
L 19.921875 0 
L 10.890625 0 
L 10.890625 47.703125 
L 2.296875 47.703125 
L 2.296875 54.6875 
L 10.890625 54.6875 
L 10.890625 58.5 
Q 10.890625 67.625 15.140625 71.796875 
Q 19.390625 75.984375 28.609375 75.984375 
z
" id="DejaVuSans-102"/>
     </defs>
     <g transform="translate(381.0075 191.9655)scale(0.1 -0.1)">
      <use xlink:href="#DejaVuSans-100"/>
      <use x="63.476562" xlink:href="#DejaVuSans-105"/>
      <use x="91.259766" xlink:href="#DejaVuSans-102"/>
      <use x="126.464844" xlink:href="#DejaVuSans-102"/>
     </g>
    </g>
   </g>
  </g>
 </g>
 <defs>
  <clipPath id="pffd1450cfb">
   <rect height="266.112" width="357.12" x="57.6" y="41.472"/>
  </clipPath>
 </defs>
</svg>
