<?xml version="1.0" encoding="utf-8" standalone="no"?>
<!DOCTYPE svg PUBLIC "-//W3C//DTD SVG 1.1//EN"
  "http://www.w3.org/Graphics/SVG/1.1/DTD/svg11.dtd">
<!-- Created with matplotlib (https://matplotlib.org/) -->
<svg height="345.6pt" version="1.1" viewBox="0 0 460.8 345.6" width="460.8pt" xmlns="http://www.w3.org/2000/svg" xmlns:xlink="http://www.w3.org/1999/xlink">
 <defs>
  <style type="text/css">
*{stroke-linecap:butt;stroke-linejoin:round;}
  </style>
 </defs>
 <g id="figure_1">
  <g id="patch_1">
   <path d="M 0 345.6 
L 460.8 345.6 
L 460.8 0 
L 0 0 
z
" style="fill:#ffffff;"/>
  </g>
  <g id="axes_1">
   <g id="patch_2">
    <path d="M 57.6 307.584 
L 414.72 307.584 
L 414.72 41.472 
L 57.6 41.472 
z
" style="fill:#ffffff;"/>
   </g>
   <g id="matplotlib.axis_1">
    <g id="xtick_1">
     <g id="line2d_1">
      <defs>
       <path d="M 0 0 
L 0 3.5 
" id="me7f9a8cc4c" style="stroke:#000000;stroke-width:0.8;"/>
      </defs>
      <g>
       <use style="stroke:#000000;stroke-width:0.8;" x="73.832727" xlink:href="#me7f9a8cc4c" y="307.584"/>
      </g>
     </g>
     <g id="text_1">
      <!-- 0 -->
      <defs>
       <path d="M 31.78125 66.40625 
Q 24.171875 66.40625 20.328125 58.90625 
Q 16.5 51.421875 16.5 36.375 
Q 16.5 21.390625 20.328125 13.890625 
Q 24.171875 6.390625 31.78125 6.390625 
Q 39.453125 6.390625 43.28125 13.890625 
Q 47.125 21.390625 47.125 36.375 
Q 47.125 51.421875 43.28125 58.90625 
Q 39.453125 66.40625 31.78125 66.40625 
z
M 31.78125 74.21875 
Q 44.046875 74.21875 50.515625 64.515625 
Q 56.984375 54.828125 56.984375 36.375 
Q 56.984375 17.96875 50.515625 8.265625 
Q 44.046875 -1.421875 31.78125 -1.421875 
Q 19.53125 -1.421875 13.0625 8.265625 
Q 6.59375 17.96875 6.59375 36.375 
Q 6.59375 54.828125 13.0625 64.515625 
Q 19.53125 74.21875 31.78125 74.21875 
z
" id="DejaVuSans-48"/>
      </defs>
      <g transform="translate(70.651477 322.182437)scale(0.1 -0.1)">
       <use xlink:href="#DejaVuSans-48"/>
      </g>
     </g>
    </g>
    <g id="xtick_2">
     <g id="line2d_2">
      <g>
       <use style="stroke:#000000;stroke-width:0.8;" x="114.465336" xlink:href="#me7f9a8cc4c" y="307.584"/>
      </g>
     </g>
     <g id="text_2">
      <!-- 100 -->
      <defs>
       <path d="M 12.40625 8.296875 
L 28.515625 8.296875 
L 28.515625 63.921875 
L 10.984375 60.40625 
L 10.984375 69.390625 
L 28.421875 72.90625 
L 38.28125 72.90625 
L 38.28125 8.296875 
L 54.390625 8.296875 
L 54.390625 0 
L 12.40625 0 
z
" id="DejaVuSans-49"/>
      </defs>
      <g transform="translate(104.921586 322.182437)scale(0.1 -0.1)">
       <use xlink:href="#DejaVuSans-49"/>
       <use x="63.623047" xlink:href="#DejaVuSans-48"/>
       <use x="127.246094" xlink:href="#DejaVuSans-48"/>
      </g>
     </g>
    </g>
    <g id="xtick_3">
     <g id="line2d_3">
      <g>
       <use style="stroke:#000000;stroke-width:0.8;" x="155.097945" xlink:href="#me7f9a8cc4c" y="307.584"/>
      </g>
     </g>
     <g id="text_3">
      <!-- 200 -->
      <defs>
       <path d="M 19.1875 8.296875 
L 53.609375 8.296875 
L 53.609375 0 
L 7.328125 0 
L 7.328125 8.296875 
Q 12.9375 14.109375 22.625 23.890625 
Q 32.328125 33.6875 34.8125 36.53125 
Q 39.546875 41.84375 41.421875 45.53125 
Q 43.3125 49.21875 43.3125 52.78125 
Q 43.3125 58.59375 39.234375 62.25 
Q 35.15625 65.921875 28.609375 65.921875 
Q 23.96875 65.921875 18.8125 64.3125 
Q 13.671875 62.703125 7.8125 59.421875 
L 7.8125 69.390625 
Q 13.765625 71.78125 18.9375 73 
Q 24.125 74.21875 28.421875 74.21875 
Q 39.75 74.21875 46.484375 68.546875 
Q 53.21875 62.890625 53.21875 53.421875 
Q 53.21875 48.921875 51.53125 44.890625 
Q 49.859375 40.875 45.40625 35.40625 
Q 44.1875 33.984375 37.640625 27.21875 
Q 31.109375 20.453125 19.1875 8.296875 
z
" id="DejaVuSans-50"/>
      </defs>
      <g transform="translate(145.554195 322.182437)scale(0.1 -0.1)">
       <use xlink:href="#DejaVuSans-50"/>
       <use x="63.623047" xlink:href="#DejaVuSans-48"/>
       <use x="127.246094" xlink:href="#DejaVuSans-48"/>
      </g>
     </g>
    </g>
    <g id="xtick_4">
     <g id="line2d_4">
      <g>
       <use style="stroke:#000000;stroke-width:0.8;" x="195.730554" xlink:href="#me7f9a8cc4c" y="307.584"/>
      </g>
     </g>
     <g id="text_4">
      <!-- 300 -->
      <defs>
       <path d="M 40.578125 39.3125 
Q 47.65625 37.796875 51.625 33 
Q 55.609375 28.21875 55.609375 21.1875 
Q 55.609375 10.40625 48.1875 4.484375 
Q 40.765625 -1.421875 27.09375 -1.421875 
Q 22.515625 -1.421875 17.65625 -0.515625 
Q 12.796875 0.390625 7.625 2.203125 
L 7.625 11.71875 
Q 11.71875 9.328125 16.59375 8.109375 
Q 21.484375 6.890625 26.8125 6.890625 
Q 36.078125 6.890625 40.9375 10.546875 
Q 45.796875 14.203125 45.796875 21.1875 
Q 45.796875 27.640625 41.28125 31.265625 
Q 36.765625 34.90625 28.71875 34.90625 
L 20.21875 34.90625 
L 20.21875 43.015625 
L 29.109375 43.015625 
Q 36.375 43.015625 40.234375 45.921875 
Q 44.09375 48.828125 44.09375 54.296875 
Q 44.09375 59.90625 40.109375 62.90625 
Q 36.140625 65.921875 28.71875 65.921875 
Q 24.65625 65.921875 20.015625 65.03125 
Q 15.375 64.15625 9.8125 62.3125 
L 9.8125 71.09375 
Q 15.4375 72.65625 20.34375 73.4375 
Q 25.25 74.21875 29.59375 74.21875 
Q 40.828125 74.21875 47.359375 69.109375 
Q 53.90625 64.015625 53.90625 55.328125 
Q 53.90625 49.265625 50.4375 45.09375 
Q 46.96875 40.921875 40.578125 39.3125 
z
" id="DejaVuSans-51"/>
      </defs>
      <g transform="translate(186.186804 322.182437)scale(0.1 -0.1)">
       <use xlink:href="#DejaVuSans-51"/>
       <use x="63.623047" xlink:href="#DejaVuSans-48"/>
       <use x="127.246094" xlink:href="#DejaVuSans-48"/>
      </g>
     </g>
    </g>
    <g id="xtick_5">
     <g id="line2d_5">
      <g>
       <use style="stroke:#000000;stroke-width:0.8;" x="236.363163" xlink:href="#me7f9a8cc4c" y="307.584"/>
      </g>
     </g>
     <g id="text_5">
      <!-- 400 -->
      <defs>
       <path d="M 37.796875 64.3125 
L 12.890625 25.390625 
L 37.796875 25.390625 
z
M 35.203125 72.90625 
L 47.609375 72.90625 
L 47.609375 25.390625 
L 58.015625 25.390625 
L 58.015625 17.1875 
L 47.609375 17.1875 
L 47.609375 0 
L 37.796875 0 
L 37.796875 17.1875 
L 4.890625 17.1875 
L 4.890625 26.703125 
z
" id="DejaVuSans-52"/>
      </defs>
      <g transform="translate(226.819413 322.182437)scale(0.1 -0.1)">
       <use xlink:href="#DejaVuSans-52"/>
       <use x="63.623047" xlink:href="#DejaVuSans-48"/>
       <use x="127.246094" xlink:href="#DejaVuSans-48"/>
      </g>
     </g>
    </g>
    <g id="xtick_6">
     <g id="line2d_6">
      <g>
       <use style="stroke:#000000;stroke-width:0.8;" x="276.995772" xlink:href="#me7f9a8cc4c" y="307.584"/>
      </g>
     </g>
     <g id="text_6">
      <!-- 500 -->
      <defs>
       <path d="M 10.796875 72.90625 
L 49.515625 72.90625 
L 49.515625 64.59375 
L 19.828125 64.59375 
L 19.828125 46.734375 
Q 21.96875 47.46875 24.109375 47.828125 
Q 26.265625 48.1875 28.421875 48.1875 
Q 40.625 48.1875 47.75 41.5 
Q 54.890625 34.8125 54.890625 23.390625 
Q 54.890625 11.625 47.5625 5.09375 
Q 40.234375 -1.421875 26.90625 -1.421875 
Q 22.3125 -1.421875 17.546875 -0.640625 
Q 12.796875 0.140625 7.71875 1.703125 
L 7.71875 11.625 
Q 12.109375 9.234375 16.796875 8.0625 
Q 21.484375 6.890625 26.703125 6.890625 
Q 35.15625 6.890625 40.078125 11.328125 
Q 45.015625 15.765625 45.015625 23.390625 
Q 45.015625 31 40.078125 35.4375 
Q 35.15625 39.890625 26.703125 39.890625 
Q 22.75 39.890625 18.8125 39.015625 
Q 14.890625 38.140625 10.796875 36.28125 
z
" id="DejaVuSans-53"/>
      </defs>
      <g transform="translate(267.452022 322.182437)scale(0.1 -0.1)">
       <use xlink:href="#DejaVuSans-53"/>
       <use x="63.623047" xlink:href="#DejaVuSans-48"/>
       <use x="127.246094" xlink:href="#DejaVuSans-48"/>
      </g>
     </g>
    </g>
    <g id="xtick_7">
     <g id="line2d_7">
      <g>
       <use style="stroke:#000000;stroke-width:0.8;" x="317.628381" xlink:href="#me7f9a8cc4c" y="307.584"/>
      </g>
     </g>
     <g id="text_7">
      <!-- 600 -->
      <defs>
       <path d="M 33.015625 40.375 
Q 26.375 40.375 22.484375 35.828125 
Q 18.609375 31.296875 18.609375 23.390625 
Q 18.609375 15.53125 22.484375 10.953125 
Q 26.375 6.390625 33.015625 6.390625 
Q 39.65625 6.390625 43.53125 10.953125 
Q 47.40625 15.53125 47.40625 23.390625 
Q 47.40625 31.296875 43.53125 35.828125 
Q 39.65625 40.375 33.015625 40.375 
z
M 52.59375 71.296875 
L 52.59375 62.3125 
Q 48.875 64.0625 45.09375 64.984375 
Q 41.3125 65.921875 37.59375 65.921875 
Q 27.828125 65.921875 22.671875 59.328125 
Q 17.53125 52.734375 16.796875 39.40625 
Q 19.671875 43.65625 24.015625 45.921875 
Q 28.375 48.1875 33.59375 48.1875 
Q 44.578125 48.1875 50.953125 41.515625 
Q 57.328125 34.859375 57.328125 23.390625 
Q 57.328125 12.15625 50.6875 5.359375 
Q 44.046875 -1.421875 33.015625 -1.421875 
Q 20.359375 -1.421875 13.671875 8.265625 
Q 6.984375 17.96875 6.984375 36.375 
Q 6.984375 53.65625 15.1875 63.9375 
Q 23.390625 74.21875 37.203125 74.21875 
Q 40.921875 74.21875 44.703125 73.484375 
Q 48.484375 72.75 52.59375 71.296875 
z
" id="DejaVuSans-54"/>
      </defs>
      <g transform="translate(308.084631 322.182437)scale(0.1 -0.1)">
       <use xlink:href="#DejaVuSans-54"/>
       <use x="63.623047" xlink:href="#DejaVuSans-48"/>
       <use x="127.246094" xlink:href="#DejaVuSans-48"/>
      </g>
     </g>
    </g>
    <g id="xtick_8">
     <g id="line2d_8">
      <g>
       <use style="stroke:#000000;stroke-width:0.8;" x="358.26099" xlink:href="#me7f9a8cc4c" y="307.584"/>
      </g>
     </g>
     <g id="text_8">
      <!-- 700 -->
      <defs>
       <path d="M 8.203125 72.90625 
L 55.078125 72.90625 
L 55.078125 68.703125 
L 28.609375 0 
L 18.3125 0 
L 43.21875 64.59375 
L 8.203125 64.59375 
z
" id="DejaVuSans-55"/>
      </defs>
      <g transform="translate(348.71724 322.182437)scale(0.1 -0.1)">
       <use xlink:href="#DejaVuSans-55"/>
       <use x="63.623047" xlink:href="#DejaVuSans-48"/>
       <use x="127.246094" xlink:href="#DejaVuSans-48"/>
      </g>
     </g>
    </g>
    <g id="xtick_9">
     <g id="line2d_9">
      <g>
       <use style="stroke:#000000;stroke-width:0.8;" x="398.893599" xlink:href="#me7f9a8cc4c" y="307.584"/>
      </g>
     </g>
     <g id="text_9">
      <!-- 800 -->
      <defs>
       <path d="M 31.78125 34.625 
Q 24.75 34.625 20.71875 30.859375 
Q 16.703125 27.09375 16.703125 20.515625 
Q 16.703125 13.921875 20.71875 10.15625 
Q 24.75 6.390625 31.78125 6.390625 
Q 38.8125 6.390625 42.859375 10.171875 
Q 46.921875 13.96875 46.921875 20.515625 
Q 46.921875 27.09375 42.890625 30.859375 
Q 38.875 34.625 31.78125 34.625 
z
M 21.921875 38.8125 
Q 15.578125 40.375 12.03125 44.71875 
Q 8.5 49.078125 8.5 55.328125 
Q 8.5 64.0625 14.71875 69.140625 
Q 20.953125 74.21875 31.78125 74.21875 
Q 42.671875 74.21875 48.875 69.140625 
Q 55.078125 64.0625 55.078125 55.328125 
Q 55.078125 49.078125 51.53125 44.71875 
Q 48 40.375 41.703125 38.8125 
Q 48.828125 37.15625 52.796875 32.3125 
Q 56.78125 27.484375 56.78125 20.515625 
Q 56.78125 9.90625 50.3125 4.234375 
Q 43.84375 -1.421875 31.78125 -1.421875 
Q 19.734375 -1.421875 13.25 4.234375 
Q 6.78125 9.90625 6.78125 20.515625 
Q 6.78125 27.484375 10.78125 32.3125 
Q 14.796875 37.15625 21.921875 38.8125 
z
M 18.3125 54.390625 
Q 18.3125 48.734375 21.84375 45.5625 
Q 25.390625 42.390625 31.78125 42.390625 
Q 38.140625 42.390625 41.71875 45.5625 
Q 45.3125 48.734375 45.3125 54.390625 
Q 45.3125 60.0625 41.71875 63.234375 
Q 38.140625 66.40625 31.78125 66.40625 
Q 25.390625 66.40625 21.84375 63.234375 
Q 18.3125 60.0625 18.3125 54.390625 
z
" id="DejaVuSans-56"/>
      </defs>
      <g transform="translate(389.349849 322.182437)scale(0.1 -0.1)">
       <use xlink:href="#DejaVuSans-56"/>
       <use x="63.623047" xlink:href="#DejaVuSans-48"/>
       <use x="127.246094" xlink:href="#DejaVuSans-48"/>
      </g>
     </g>
    </g>
   </g>
   <g id="matplotlib.axis_2">
    <g id="ytick_1">
     <g id="line2d_10">
      <defs>
       <path d="M 0 0 
L -3.5 0 
" id="mf59b8d9118" style="stroke:#000000;stroke-width:0.8;"/>
      </defs>
      <g>
       <use style="stroke:#000000;stroke-width:0.8;" x="57.6" xlink:href="#mf59b8d9118" y="292.463726"/>
      </g>
     </g>
     <g id="text_10">
      <!-- 0.0 -->
      <defs>
       <path d="M 10.6875 12.40625 
L 21 12.40625 
L 21 0 
L 10.6875 0 
z
" id="DejaVuSans-46"/>
      </defs>
      <g transform="translate(34.696875 296.262945)scale(0.1 -0.1)">
       <use xlink:href="#DejaVuSans-48"/>
       <use x="63.623047" xlink:href="#DejaVuSans-46"/>
       <use x="95.410156" xlink:href="#DejaVuSans-48"/>
      </g>
     </g>
    </g>
    <g id="ytick_2">
     <g id="line2d_11">
      <g>
       <use style="stroke:#000000;stroke-width:0.8;" x="57.6" xlink:href="#mf59b8d9118" y="238.489165"/>
      </g>
     </g>
     <g id="text_11">
      <!-- 0.1 -->
      <g transform="translate(34.696875 242.288384)scale(0.1 -0.1)">
       <use xlink:href="#DejaVuSans-48"/>
       <use x="63.623047" xlink:href="#DejaVuSans-46"/>
       <use x="95.410156" xlink:href="#DejaVuSans-49"/>
      </g>
     </g>
    </g>
    <g id="ytick_3">
     <g id="line2d_12">
      <g>
       <use style="stroke:#000000;stroke-width:0.8;" x="57.6" xlink:href="#mf59b8d9118" y="184.514604"/>
      </g>
     </g>
     <g id="text_12">
      <!-- 0.2 -->
      <g transform="translate(34.696875 188.313823)scale(0.1 -0.1)">
       <use xlink:href="#DejaVuSans-48"/>
       <use x="63.623047" xlink:href="#DejaVuSans-46"/>
       <use x="95.410156" xlink:href="#DejaVuSans-50"/>
      </g>
     </g>
    </g>
    <g id="ytick_4">
     <g id="line2d_13">
      <g>
       <use style="stroke:#000000;stroke-width:0.8;" x="57.6" xlink:href="#mf59b8d9118" y="130.540043"/>
      </g>
     </g>
     <g id="text_13">
      <!-- 0.3 -->
      <g transform="translate(34.696875 134.339262)scale(0.1 -0.1)">
       <use xlink:href="#DejaVuSans-48"/>
       <use x="63.623047" xlink:href="#DejaVuSans-46"/>
       <use x="95.410156" xlink:href="#DejaVuSans-51"/>
      </g>
     </g>
    </g>
    <g id="ytick_5">
     <g id="line2d_14">
      <g>
       <use style="stroke:#000000;stroke-width:0.8;" x="57.6" xlink:href="#mf59b8d9118" y="76.565482"/>
      </g>
     </g>
     <g id="text_14">
      <!-- 0.4 -->
      <g transform="translate(34.696875 80.364701)scale(0.1 -0.1)">
       <use xlink:href="#DejaVuSans-48"/>
       <use x="63.623047" xlink:href="#DejaVuSans-46"/>
       <use x="95.410156" xlink:href="#DejaVuSans-52"/>
      </g>
     </g>
    </g>
   </g>
   <g id="line2d_15">
    <path clip-path="url(#p665c7e41d9)" d="M 73.832727 63.02516 
L 77.895988 62.492778 
L 79.927619 62.619417 
L 84.397206 63.141508 
L 86.02251 63.06386 
L 88.866793 62.651681 
L 89.273119 63.798605 
L 90.898423 63.458348 
L 92.930053 62.962148 
L 94.555358 62.809373 
L 96.180662 62.95234 
L 101.462901 63.887883 
L 101.869227 63.890103 
L 103.088206 63.637805 
L 104.71351 63.180901 
L 105.119836 62.86112 
L 106.338814 62.502137 
L 107.151467 62.135076 
L 107.557793 62.493627 
L 107.964119 62.39898 
L 109.589423 62.717588 
L 110.402075 62.958279 
L 111.214728 63.645995 
L 112.433706 63.886499 
L 113.246358 63.81646 
L 114.465336 63.729805 
L 115.684314 63.410905 
L 118.934923 62.484638 
L 120.153901 62.401615 
L 121.37288 62.530231 
L 122.998184 62.967955 
L 124.623488 63.436907 
L 125.436141 63.519978 
L 126.655119 63.627432 
L 128.280423 63.446272 
L 130.312054 62.889934 
L 132.343684 62.397864 
L 133.562662 62.322178 
L 134.781641 62.434088 
L 136.000619 62.751182 
L 137.219597 63.127787 
L 137.625923 63.386078 
L 139.251228 63.663524 
L 140.06388 63.675761 
L 146.158771 62.330211 
L 147.377749 62.376336 
L 148.596728 62.639735 
L 150.628358 63.240127 
L 152.253663 63.59498 
L 153.878967 63.562557 
L 155.504271 63.195856 
L 158.348554 62.415604 
L 159.973858 62.338209 
L 161.599163 62.588601 
L 163.630793 63.1766 
L 164.443445 63.451762 
L 165.662423 63.627381 
L 166.881402 63.596559 
L 168.506706 63.279437 
L 171.757315 62.36751 
L 172.976293 62.280981 
L 174.195271 62.402551 
L 175.820576 62.807328 
L 178.258532 63.472166 
L 179.477511 63.572548 
L 180.696489 63.46557 
L 181.509141 63.179011 
L 185.166076 62.347609 
L 185.572402 62.301806 
L 185.978728 62.105249 
L 187.197706 62.347922 
L 188.823011 62.596288 
L 189.229337 62.933154 
L 189.635663 63.032161 
L 190.448315 62.965856 
L 190.854641 63.448533 
L 191.260967 63.51831 
L 192.886271 63.297614 
L 194.511576 63.127301 
L 194.917902 63.056181 
L 196.13688 62.327314 
L 197.762185 62.089978 
L 198.981163 61.940528 
L 200.606467 62.203242 
L 203.857076 62.867242 
L 205.076054 62.927361 
L 206.295032 62.833847 
L 207.920337 62.489602 
L 210.764619 61.851023 
L 211.983598 61.78164 
L 213.608902 61.971025 
L 218.078489 62.85106 
L 218.484815 62.440957 
L 218.891141 61.808019 
L 231.080924 61.563477 
L 231.48725 61.289289 
L 231.893576 61.291509 
L 232.299902 61.056535 
L 233.112554 60.182671 
L 233.925207 60.284203 
L 235.956837 60.902718 
L 237.175815 61.196549 
L 238.394793 61.334354 
L 239.613772 60.906763 
L 241.239076 60.596513 
L 241.645402 60.228492 
L 242.051728 60.099301 
L 242.458054 59.725088 
L 243.677033 59.436922 
L 245.708663 59.026021 
L 246.114989 58.626127 
L 247.740294 59.261132 
L 248.14662 59.446603 
L 248.552946 59.211552 
L 249.365598 59.561615 
L 249.771924 59.427591 
L 250.584576 59.726919 
L 251.397228 59.826334 
L 252.616207 59.820463 
L 253.428859 59.616522 
L 253.835185 59.182897 
L 258.304772 57.894052 
L 259.117424 57.914671 
L 259.52375 57.968881 
L 259.930076 57.660312 
L 261.555381 58.110511 
L 262.368033 58.425188 
L 263.587011 58.946403 
L 264.399663 59.093644 
L 264.805989 58.645338 
L 266.024968 58.762338 
L 266.431294 58.156743 
L 266.83762 58.147397 
L 267.243946 58.331323 
L 267.650272 57.66981 
L 268.462924 57.842486 
L 268.86925 57.27975 
L 270.900881 56.59624 
L 272.119859 56.681772 
L 272.526185 56.721352 
L 272.932511 56.252167 
L 273.338837 56.273171 
L 273.745163 56.408324 
L 274.964142 55.989135 
L 275.370468 56.176966 
L 276.18312 56.668576 
L 276.995772 56.941991 
L 278.21475 57.326844 
L 279.433729 57.428264 
L 280.246381 57.228718 
L 281.465359 57.182543 
L 283.090663 56.121693 
L 284.309642 55.656409 
L 284.715968 55.153715 
L 286.747598 54.648542 
L 287.966576 55.16118 
L 291.623511 57.32727 
L 292.436163 57.502909 
L 293.248816 57.432539 
L 294.061468 57.163342 
L 295.280446 56.459453 
L 297.718403 54.864592 
L 298.531055 54.567725 
L 299.343707 54.473451 
L 300.562685 54.837703 
L 302.18799 55.894532 
L 304.21962 57.127684 
L 305.032272 57.376679 
L 305.844924 57.413663 
L 306.657577 57.283231 
L 307.876555 56.756476 
L 309.095533 55.964155 
L 310.720837 54.934418 
L 311.939816 54.506414 
L 312.752468 54.463184 
L 313.56512 54.552529 
L 314.784098 55.130012 
L 318.034707 56.990058 
L 318.441033 57.106804 
L 320.87899 56.93425 
L 324.535924 54.880974 
L 324.942251 54.732117 
L 327.380207 54.994645 
L 328.192859 55.287295 
L 329.818164 56.168592 
L 331.443468 56.960588 
L 332.25612 57.249369 
L 333.068772 57.33095 
L 333.881425 57.231509 
L 334.287751 57.115287 
L 334.694077 56.698599 
L 335.100403 56.50062 
L 335.506729 56.161905 
L 335.913055 55.659466 
L 337.538359 54.901585 
L 338.757338 54.608412 
L 339.56999 54.601299 
L 340.788968 54.860091 
L 342.820598 55.741287 
L 344.445903 56.465482 
L 345.664881 56.654829 
L 346.477533 56.545181 
L 348.509164 55.849892 
L 350.94712 54.709752 
L 352.166099 54.459442 
L 353.385077 54.571322 
L 354.197729 54.707352 
L 355.010381 54.952246 
L 357.042012 55.766334 
L 359.073642 56.158843 
L 360.698946 55.956757 
L 361.105272 55.706192 
L 361.917925 55.612614 
L 364.355881 54.67829 
L 365.168533 54.12443 
L 366.793838 53.873502 
L 368.012816 54.056062 
L 368.825468 54.368865 
L 369.63812 54.810897 
L 370.044446 54.85604 
L 371.263425 55.568263 
L 372.888729 56.103651 
L 373.701381 56.040234 
L 374.514033 55.798891 
L 374.92036 55.625272 
L 375.326686 56.055001 
L 376.95199 54.984934 
L 378.170968 54.234639 
L 379.389947 53.756874 
L 380.202599 53.657106 
L 381.015251 53.759961 
L 382.234229 54.283208 
L 385.891164 56.460373 
L 386.703816 56.600187 
L 387.516468 56.472801 
L 388.32912 56.193478 
L 389.548099 55.493318 
L 391.986055 53.951926 
L 392.798707 53.661984 
L 393.61136 53.568769 
L 394.424012 53.688727 
L 395.236664 54.006013 
L 398.487273 55.845431 
L 398.487273 55.845431 
" style="fill:none;stroke:#1f77b4;stroke-linecap:square;stroke-width:1.5;"/>
   </g>
   <g id="line2d_16">
    <path clip-path="url(#p665c7e41d9)" d="M 73.832727 62.763103 
L 77.489662 63.1955 
L 79.114966 63.126109 
L 81.552923 62.769609 
L 83.99088 62.47 
L 85.616184 62.488378 
L 88.05414 62.790688 
L 90.898423 63.316334 
L 93.33638 63.824667 
L 94.961684 63.88093 
L 96.586988 63.64572 
L 100.650249 62.775273 
L 101.869227 62.7698 
L 103.494532 63.017464 
L 106.745141 63.666735 
L 107.964119 63.630478 
L 109.589423 63.293553 
L 112.433706 62.551949 
L 113.652684 62.506431 
L 114.871662 62.667567 
L 116.903293 63.2282 
L 118.528597 63.637799 
L 119.747575 63.756169 
L 120.966554 63.662164 
L 122.591858 63.25295 
L 125.436141 62.437984 
L 126.655119 62.325219 
L 127.874097 62.419069 
L 129.499402 62.800676 
L 131.937358 63.453929 
L 133.156336 63.585777 
L 134.375315 63.518371 
L 136.000619 63.164547 
L 138.844902 62.456076 
L 140.06388 62.394658 
L 141.282858 62.530373 
L 143.314489 63.037544 
L 145.346119 63.468092 
L 146.565097 63.529211 
L 147.784076 63.398378 
L 149.815706 62.888174 
L 151.847336 62.428471 
L 153.066315 62.344841 
L 154.285293 62.472605 
L 155.910597 62.889275 
L 158.348554 63.524685 
L 159.567532 63.627552 
L 160.78651 63.52509 
L 162.411815 63.122765 
L 164.849771 62.446304 
L 166.06875 62.313459 
L 167.287728 62.393092 
L 168.913032 62.771872 
L 171.757315 63.539932 
L 172.976293 63.624093 
L 174.195271 63.502651 
L 175.820576 63.078318 
L 178.258532 62.38299 
L 179.477511 62.246545 
L 180.696489 62.312567 
L 182.321793 62.662423 
L 184.75975 63.270803 
L 185.978728 63.406119 
L 187.197706 63.351918 
L 188.823011 63.040032 
L 191.667293 62.412335 
L 193.292598 62.382375 
L 194.917902 62.597743 
L 197.355858 62.992818 
L 198.981163 62.98688 
L 200.606467 62.70709 
L 204.263402 61.892004 
L 205.48238 61.861149 
L 207.107685 62.060083 
L 211.170946 62.878743 
L 212.389924 62.862751 
L 214.015228 62.589366 
L 217.672163 61.774068 
L 219.297467 61.740401 
L 226.205011 61.716885 
L 233.51888 61.377863 
L 235.144185 60.936945 
L 237.582141 60.218445 
L 238.80112 60.063829 
L 240.426424 60.102708 
L 244.489685 60.448767 
L 246.521315 59.975628 
L 248.14662 59.283271 
L 250.17825 58.421284 
L 251.397228 58.128487 
L 252.616207 58.110164 
L 253.835185 58.35936 
L 257.49212 59.426011 
L 258.711098 59.472183 
L 259.930076 59.267854 
L 261.149054 58.832831 
L 264.399663 57.484789 
L 265.618641 57.286306 
L 266.83762 57.308812 
L 268.86925 57.61688 
L 270.494555 57.823514 
L 271.713533 57.776451 
L 272.932511 57.548955 
L 274.151489 57.139957 
L 276.18312 56.169912 
L 277.808424 55.503432 
L 279.027402 55.301489 
L 279.840055 55.355052 
L 281.059033 55.692237 
L 282.684337 56.484265 
L 284.309642 57.22711 
L 285.122294 57.450167 
L 285.934946 57.500918 
L 286.747598 57.356091 
L 287.56025 57.022355 
L 288.779229 56.281948 
L 290.810859 54.975079 
L 291.623511 54.644828 
L 292.436163 54.491168 
L 293.248816 54.563677 
L 294.061468 54.83671 
L 295.280446 55.535179 
L 297.718403 57.106397 
L 298.531055 57.398788 
L 299.343707 57.490814 
L 300.156359 57.374473 
L 301.375337 56.848597 
L 304.625946 54.881102 
L 305.438598 54.665998 
L 306.25125 54.649542 
L 307.063903 54.829823 
L 308.282881 55.403463 
L 311.127163 56.995577 
L 311.939816 57.205647 
L 312.752468 57.218642 
L 313.56512 57.04662 
L 314.784098 56.472399 
L 318.034707 54.563915 
L 318.847359 54.373603 
L 319.660011 54.377904 
L 320.472664 54.574088 
L 321.691642 55.186996 
L 324.535924 56.956847 
L 325.348577 57.238823 
L 326.161229 57.34592 
L 326.973881 57.276898 
L 328.192859 56.867999 
L 329.818164 55.96646 
L 331.443468 55.12202 
L 332.25612 54.873536 
L 333.068772 54.796562 
L 333.881425 54.898471 
L 335.100403 55.343858 
L 337.944685 56.653343 
L 338.757338 56.810753 
L 339.56999 56.807643 
L 340.788968 56.513111 
L 342.414272 55.748754 
L 344.445903 54.779963 
L 345.664881 54.502989 
L 346.477533 54.507118 
L 347.696512 54.778153 
L 349.321816 55.463574 
L 350.94712 56.140901 
L 352.166099 56.407336 
L 353.385077 56.364255 
L 354.604055 56.032671 
L 356.635686 55.110557 
L 358.26099 54.48654 
L 359.479968 54.320032 
L 360.698946 54.439667 
L 362.324251 54.940131 
L 365.168533 55.946019 
L 366.387512 56.027737 
L 367.200164 55.889151 
L 368.419142 55.414255 
L 372.076077 53.677205 
L 372.888729 53.568 
L 373.701381 53.632267 
L 374.92036 54.047459 
L 376.139338 54.751426 
L 378.577294 56.27339 
L 379.389947 56.536669 
L 380.202599 56.608939 
L 381.015251 56.471192 
L 381.827903 56.141756 
L 383.046881 55.392203 
L 385.078512 54.061179 
L 385.891164 53.718785 
L 386.703816 53.575914 
L 387.516468 53.648464 
L 388.32912 53.925517 
L 389.548099 54.620088 
L 391.986055 56.178287 
L 392.798707 56.464427 
L 393.61136 56.548593 
L 394.424012 56.422249 
L 395.236664 56.096718 
L 396.455642 55.358095 
L 398.487273 54.001567 
L 398.487273 54.001567 
" style="fill:none;stroke:#ff0000;stroke-linecap:square;stroke-width:1.5;"/>
   </g>
   <g id="line2d_17">
    <path clip-path="url(#p665c7e41d9)" d="M 73.832727 292.725783 
L 77.083336 291.803138 
L 78.302314 291.777644 
L 79.521293 291.953419 
L 81.552923 292.56131 
L 83.178227 293.000615 
L 84.397206 293.150753 
L 85.616184 293.075894 
L 87.241488 292.703857 
L 88.866793 292.204769 
L 89.273119 293.298478 
L 90.492097 292.797817 
L 93.33638 291.537123 
L 94.555358 291.3767 
L 95.774336 291.5562 
L 96.993314 292.02922 
L 100.243923 293.43167 
L 101.462901 293.600356 
L 101.869227 293.584029 
L 103.900858 292.804906 
L 105.932488 291.588112 
L 107.151467 290.91848 
L 107.557793 291.290477 
L 107.964119 291.232228 
L 109.183097 291.677648 
L 110.402075 292.372099 
L 111.214728 293.308598 
L 112.02738 293.679746 
L 112.433706 293.798276 
L 113.246358 293.782349 
L 114.05901 293.724123 
L 114.871662 293.445617 
L 117.309619 292.00825 
L 118.528597 291.386802 
L 119.341249 291.144172 
L 120.153901 291.116345 
L 120.966554 291.269674 
L 121.779206 291.592533 
L 123.40451 292.565464 
L 124.623488 293.281592 
L 126.655119 293.765939 
L 127.874097 293.565783 
L 129.093075 293.022578 
L 131.937358 291.477641 
L 132.75001 291.250097 
L 133.562662 291.200256 
L 134.375315 291.319134 
L 135.187967 291.604916 
L 137.219597 292.777368 
L 137.625923 293.146139 
L 138.844902 293.631347 
L 139.657554 293.752887 
L 140.06388 293.74483 
L 141.689184 293.187354 
L 145.752445 291.310734 
L 146.565097 291.260636 
L 147.377749 291.377417 
L 148.190402 291.650376 
L 151.44101 293.431192 
L 152.253663 293.678903 
L 153.472641 293.709853 
L 154.285293 293.485377 
L 155.504271 292.890489 
L 157.942228 291.509294 
L 158.75488 291.251507 
L 159.567532 291.163744 
L 160.380184 291.255263 
L 161.192837 291.51498 
L 162.411815 292.145648 
L 164.849771 293.552297 
L 165.662423 293.757936 
L 166.475076 293.779294 
L 167.694054 293.481434 
L 168.913032 292.850844 
L 171.350989 291.453661 
L 172.163641 291.1923 
L 172.976293 291.120614 
L 173.788945 291.229573 
L 175.007924 291.728837 
L 178.664858 293.672121 
L 179.477511 293.78973 
L 180.290163 293.720448 
L 180.696489 293.61673 
L 181.509141 293.180606 
L 183.134445 292.304975 
L 184.353424 291.675801 
L 185.572402 291.385413 
L 185.978728 291.162856 
L 188.416684 291.829918 
L 188.823011 292.019983 
L 189.229337 292.462902 
L 189.635663 292.66713 
L 190.448315 292.798641 
L 190.854641 293.371806 
L 191.260967 293.515641 
L 193.292598 293.362654 
L 194.511576 293.063135 
L 194.917902 292.922165 
L 196.13688 291.957589 
L 197.355858 291.592193 
L 198.981163 291.417375 
L 200.200141 291.780923 
L 204.263402 293.482809 
L 205.076054 293.54063 
L 206.295032 293.371263 
L 207.514011 292.907391 
L 210.358293 291.583812 
L 211.170946 291.39044 
L 212.389924 291.403829 
L 213.608902 291.755089 
L 215.234206 292.55423 
L 216.859511 293.286524 
L 218.078489 293.57071 
L 218.484815 293.17058 
L 218.891141 292.535095 
L 226.611337 292.434867 
L 230.268272 292.4876 
L 231.080924 292.459665 
L 231.48725 292.197229 
L 231.893576 292.216188 
L 232.299902 292.002092 
L 233.112554 291.20212 
L 233.925207 291.454532 
L 235.144185 292.155516 
L 236.769489 293.180338 
L 237.988467 293.603262 
L 238.394793 293.706695 
L 241.239076 292.862559 
L 241.645402 292.428249 
L 242.051728 292.238397 
L 242.458054 291.809276 
L 243.270707 291.530667 
L 244.083359 291.342457 
L 244.489685 291.385807 
L 245.302337 291.298256 
L 245.708663 291.275393 
L 246.114989 290.983349 
L 247.333967 291.885562 
L 248.14662 292.627058 
L 248.552946 292.584252 
L 249.365598 293.296327 
L 249.771924 293.325706 
L 250.584576 293.892157 
L 250.990902 294.091061 
L 252.209881 294.227859 
L 253.022533 294.014643 
L 253.428859 293.830578 
L 253.835185 293.287263 
L 255.866815 291.92518 
L 256.679468 291.403794 
L 257.898446 290.931117 
L 258.711098 290.867438 
L 259.52375 291.070943 
L 259.930076 290.856185 
L 261.961707 292.237089 
L 263.587011 293.667554 
L 264.399663 294.072581 
L 264.805989 293.71452 
L 265.618641 293.92772 
L 266.024968 293.954855 
L 266.431294 293.338367 
L 266.83762 293.302312 
L 267.243946 293.444814 
L 267.650272 292.724728 
L 268.462924 292.763656 
L 268.86925 292.126597 
L 270.088228 291.442565 
L 271.307207 291.246236 
L 272.526185 291.540546 
L 272.932511 291.166938 
L 273.338837 291.303933 
L 273.745163 291.57783 
L 274.557815 291.600229 
L 274.964142 291.670127 
L 277.402098 293.926978 
L 278.21475 294.391482 
L 279.433729 294.583714 
L 281.465359 293.785951 
L 283.090663 291.895422 
L 284.309642 290.893025 
L 284.715968 290.256912 
L 285.934946 289.754156 
L 286.341272 289.849184 
L 286.747598 289.756177 
L 287.56025 290.422218 
L 288.372902 291.326235 
L 290.810859 294.480196 
L 291.623511 295.146168 
L 292.029837 295.377254 
L 292.436163 295.475467 
L 293.248816 295.332589 
L 294.061468 294.790359 
L 294.87412 293.917152 
L 297.718403 290.221922 
L 298.531055 289.632663 
L 299.343707 289.446364 
L 300.156359 289.735607 
L 300.969011 290.473327 
L 302.594316 292.573182 
L 303.406968 293.677441 
L 304.625946 294.871349 
L 305.438598 295.220635 
L 306.25125 295.197474 
L 307.063903 294.762622 
L 307.876555 294.041487 
L 309.095533 292.538528 
L 310.720837 290.572973 
L 311.53349 289.96551 
L 312.346142 289.678584 
L 313.158794 289.796777 
L 313.56512 289.969635 
L 314.377772 290.67625 
L 315.59675 292.150971 
L 317.628381 294.566806 
L 318.441033 295.125645 
L 319.253685 295.170461 
L 320.472664 294.991469 
L 321.285316 294.209047 
L 324.129598 290.681486 
L 324.942251 290.076374 
L 325.348577 289.983183 
L 326.161229 289.988203 
L 326.973881 290.125377 
L 327.786533 290.540764 
L 328.599185 291.27807 
L 331.443468 294.302294 
L 332.25612 294.83956 
L 333.068772 294.998115 
L 333.881425 294.796764 
L 334.287751 294.567812 
L 335.100403 293.620489 
L 336.725707 291.536154 
L 337.944685 290.577468 
L 338.757338 290.261385 
L 339.56999 290.257382 
L 340.382642 290.564661 
L 341.195294 291.131408 
L 342.414272 292.265244 
L 344.039577 293.860054 
L 344.852229 294.378323 
L 345.664881 294.615566 
L 346.071207 294.617753 
L 346.883859 294.314633 
L 347.696512 293.893011 
L 349.728142 292.081781 
L 350.94712 291.032578 
L 351.759772 290.606332 
L 352.572425 290.497066 
L 353.385077 290.670793 
L 354.197729 291.000831 
L 355.010381 291.544597 
L 357.448338 293.5687 
L 358.26099 294.085225 
L 359.479968 294.254337 
L 360.29262 294.123483 
L 360.698946 293.980816 
L 361.105272 293.629766 
L 361.917925 293.282368 
L 364.355881 291.410627 
L 365.168533 290.642137 
L 366.387512 290.262124 
L 367.200164 290.494938 
L 368.012816 290.922395 
L 368.825468 291.617927 
L 371.263425 294.08717 
L 372.482403 294.937246 
L 373.295055 294.976367 
L 374.107707 294.672169 
L 374.92036 294.04154 
L 375.326686 294.267378 
L 376.545664 292.715889 
L 377.764642 291.085852 
L 378.577294 290.226344 
L 379.389947 289.683932 
L 379.796273 289.52739 
L 380.608925 289.563323 
L 381.421577 290.036412 
L 382.234229 290.832118 
L 383.859534 293.011532 
L 385.078512 294.524588 
L 385.891164 295.205314 
L 386.703816 295.488 
L 387.110142 295.468681 
L 387.922794 295.055061 
L 388.735447 294.326485 
L 389.954425 292.795093 
L 391.579729 290.655127 
L 392.392381 289.902699 
L 393.205034 289.521067 
L 394.017686 289.553217 
L 394.830338 290.003781 
L 395.64299 290.811466 
L 398.487273 294.30759 
L 398.487273 294.30759 
" style="fill:none;stroke:#008000;stroke-linecap:square;stroke-width:1.5;"/>
   </g>
   <g id="patch_3">
    <path d="M 57.6 307.584 
L 57.6 41.472 
" style="fill:none;stroke:#000000;stroke-linecap:square;stroke-linejoin:miter;stroke-width:0.8;"/>
   </g>
   <g id="patch_4">
    <path d="M 414.72 307.584 
L 414.72 41.472 
" style="fill:none;stroke:#000000;stroke-linecap:square;stroke-linejoin:miter;stroke-width:0.8;"/>
   </g>
   <g id="patch_5">
    <path d="M 57.6 307.584 
L 414.72 307.584 
" style="fill:none;stroke:#000000;stroke-linecap:square;stroke-linejoin:miter;stroke-width:0.8;"/>
   </g>
   <g id="patch_6">
    <path d="M 57.6 41.472 
L 414.72 41.472 
" style="fill:none;stroke:#000000;stroke-linecap:square;stroke-linejoin:miter;stroke-width:0.8;"/>
   </g>
   <g id="legend_1">
    <g id="patch_7">
     <path d="M 351.0075 198.045187 
L 407.72 198.045187 
Q 409.72 198.045187 409.72 196.045187 
L 409.72 153.010812 
Q 409.72 151.010812 407.72 151.010812 
L 351.0075 151.010812 
Q 349.0075 151.010812 349.0075 153.010812 
L 349.0075 196.045187 
Q 349.0075 198.045187 351.0075 198.045187 
z
" style="fill:#ffffff;opacity:0.8;stroke:#cccccc;stroke-linejoin:miter;"/>
    </g>
    <g id="line2d_18">
     <path d="M 353.0075 159.10925 
L 373.0075 159.10925 
" style="fill:none;stroke:#1f77b4;stroke-linecap:square;stroke-width:1.5;"/>
    </g>
    <g id="line2d_19"/>
    <g id="text_15">
     <!-- 0-&gt;1 -->
     <defs>
      <path d="M 4.890625 31.390625 
L 31.203125 31.390625 
L 31.203125 23.390625 
L 4.890625 23.390625 
z
" id="DejaVuSans-45"/>
      <path d="M 10.59375 49.21875 
L 10.59375 58.109375 
L 73.1875 35.40625 
L 73.1875 27.296875 
L 10.59375 4.59375 
L 10.59375 13.484375 
L 60.890625 31.296875 
z
" id="DejaVuSans-62"/>
     </defs>
     <g transform="translate(381.0075 162.60925)scale(0.1 -0.1)">
      <use xlink:href="#DejaVuSans-48"/>
      <use x="63.623047" xlink:href="#DejaVuSans-45"/>
      <use x="99.707031" xlink:href="#DejaVuSans-62"/>
      <use x="183.496094" xlink:href="#DejaVuSans-49"/>
     </g>
    </g>
    <g id="line2d_20">
     <path d="M 353.0075 173.787375 
L 373.0075 173.787375 
" style="fill:none;stroke:#ff0000;stroke-linecap:square;stroke-width:1.5;"/>
    </g>
    <g id="line2d_21"/>
    <g id="text_16">
     <!-- 1-&gt;0 -->
     <g transform="translate(381.0075 177.287375)scale(0.1 -0.1)">
      <use xlink:href="#DejaVuSans-49"/>
      <use x="63.623047" xlink:href="#DejaVuSans-45"/>
      <use x="99.707031" xlink:href="#DejaVuSans-62"/>
      <use x="183.496094" xlink:href="#DejaVuSans-48"/>
     </g>
    </g>
    <g id="line2d_22">
     <path d="M 353.0075 188.4655 
L 373.0075 188.4655 
" style="fill:none;stroke:#008000;stroke-linecap:square;stroke-width:1.5;"/>
    </g>
    <g id="line2d_23"/>
    <g id="text_17">
     <!-- diff -->
     <defs>
      <path d="M 45.40625 46.390625 
L 45.40625 75.984375 
L 54.390625 75.984375 
L 54.390625 0 
L 45.40625 0 
L 45.40625 8.203125 
Q 42.578125 3.328125 38.25 0.953125 
Q 33.9375 -1.421875 27.875 -1.421875 
Q 17.96875 -1.421875 11.734375 6.484375 
Q 5.515625 14.40625 5.515625 27.296875 
Q 5.515625 40.1875 11.734375 48.09375 
Q 17.96875 56 27.875 56 
Q 33.9375 56 38.25 53.625 
Q 42.578125 51.265625 45.40625 46.390625 
z
M 14.796875 27.296875 
Q 14.796875 17.390625 18.875 11.75 
Q 22.953125 6.109375 30.078125 6.109375 
Q 37.203125 6.109375 41.296875 11.75 
Q 45.40625 17.390625 45.40625 27.296875 
Q 45.40625 37.203125 41.296875 42.84375 
Q 37.203125 48.484375 30.078125 48.484375 
Q 22.953125 48.484375 18.875 42.84375 
Q 14.796875 37.203125 14.796875 27.296875 
z
" id="DejaVuSans-100"/>
      <path d="M 9.421875 54.6875 
L 18.40625 54.6875 
L 18.40625 0 
L 9.421875 0 
z
M 9.421875 75.984375 
L 18.40625 75.984375 
L 18.40625 64.59375 
L 9.421875 64.59375 
z
" id="DejaVuSans-105"/>
      <path d="M 37.109375 75.984375 
L 37.109375 68.5 
L 28.515625 68.5 
Q 23.6875 68.5 21.796875 66.546875 
Q 19.921875 64.59375 19.921875 59.515625 
L 19.921875 54.6875 
L 34.71875 54.6875 
L 34.71875 47.703125 
L 19.921875 47.703125 
L 19.921875 0 
L 10.890625 0 
L 10.890625 47.703125 
L 2.296875 47.703125 
L 2.296875 54.6875 
L 10.890625 54.6875 
L 10.890625 58.5 
Q 10.890625 67.625 15.140625 71.796875 
Q 19.390625 75.984375 28.609375 75.984375 
z
" id="DejaVuSans-102"/>
     </defs>
     <g transform="translate(381.0075 191.9655)scale(0.1 -0.1)">
      <use xlink:href="#DejaVuSans-100"/>
      <use x="63.476562" xlink:href="#DejaVuSans-105"/>
      <use x="91.259766" xlink:href="#DejaVuSans-102"/>
      <use x="126.464844" xlink:href="#DejaVuSans-102"/>
     </g>
    </g>
   </g>
  </g>
 </g>
 <defs>
  <clipPath id="p665c7e41d9">
   <rect height="266.112" width="357.12" x="57.6" y="41.472"/>
  </clipPath>
 </defs>
</svg>
