<?xml version="1.0" encoding="utf-8" standalone="no"?>
<!DOCTYPE svg PUBLIC "-//W3C//DTD SVG 1.1//EN"
  "http://www.w3.org/Graphics/SVG/1.1/DTD/svg11.dtd">
<!-- Created with matplotlib (https://matplotlib.org/) -->
<svg height="345.6pt" version="1.1" viewBox="0 0 460.8 345.6" width="460.8pt" xmlns="http://www.w3.org/2000/svg" xmlns:xlink="http://www.w3.org/1999/xlink">
 <defs>
  <style type="text/css">
*{stroke-linecap:butt;stroke-linejoin:round;}
  </style>
 </defs>
 <g id="figure_1">
  <g id="patch_1">
   <path d="M 0 345.6 
L 460.8 345.6 
L 460.8 0 
L 0 0 
z
" style="fill:#ffffff;"/>
  </g>
  <g id="axes_1">
   <g id="patch_2">
    <path d="M 57.6 307.584 
L 414.72 307.584 
L 414.72 41.472 
L 57.6 41.472 
z
" style="fill:#ffffff;"/>
   </g>
   <g id="matplotlib.axis_1">
    <g id="xtick_1">
     <g id="line2d_1">
      <defs>
       <path d="M 0 0 
L 0 3.5 
" id="mffe74edc3d" style="stroke:#000000;stroke-width:0.8;"/>
      </defs>
      <g>
       <use style="stroke:#000000;stroke-width:0.8;" x="73.832727" xlink:href="#mffe74edc3d" y="307.584"/>
      </g>
     </g>
     <g id="text_1">
      <!-- 0 -->
      <defs>
       <path d="M 31.78125 66.40625 
Q 24.171875 66.40625 20.328125 58.90625 
Q 16.5 51.421875 16.5 36.375 
Q 16.5 21.390625 20.328125 13.890625 
Q 24.171875 6.390625 31.78125 6.390625 
Q 39.453125 6.390625 43.28125 13.890625 
Q 47.125 21.390625 47.125 36.375 
Q 47.125 51.421875 43.28125 58.90625 
Q 39.453125 66.40625 31.78125 66.40625 
z
M 31.78125 74.21875 
Q 44.046875 74.21875 50.515625 64.515625 
Q 56.984375 54.828125 56.984375 36.375 
Q 56.984375 17.96875 50.515625 8.265625 
Q 44.046875 -1.421875 31.78125 -1.421875 
Q 19.53125 -1.421875 13.0625 8.265625 
Q 6.59375 17.96875 6.59375 36.375 
Q 6.59375 54.828125 13.0625 64.515625 
Q 19.53125 74.21875 31.78125 74.21875 
z
" id="DejaVuSans-48"/>
      </defs>
      <g transform="translate(70.651477 322.182437)scale(0.1 -0.1)">
       <use xlink:href="#DejaVuSans-48"/>
      </g>
     </g>
    </g>
    <g id="xtick_2">
     <g id="line2d_2">
      <g>
       <use style="stroke:#000000;stroke-width:0.8;" x="114.465336" xlink:href="#mffe74edc3d" y="307.584"/>
      </g>
     </g>
     <g id="text_2">
      <!-- 100 -->
      <defs>
       <path d="M 12.40625 8.296875 
L 28.515625 8.296875 
L 28.515625 63.921875 
L 10.984375 60.40625 
L 10.984375 69.390625 
L 28.421875 72.90625 
L 38.28125 72.90625 
L 38.28125 8.296875 
L 54.390625 8.296875 
L 54.390625 0 
L 12.40625 0 
z
" id="DejaVuSans-49"/>
      </defs>
      <g transform="translate(104.921586 322.182437)scale(0.1 -0.1)">
       <use xlink:href="#DejaVuSans-49"/>
       <use x="63.623047" xlink:href="#DejaVuSans-48"/>
       <use x="127.246094" xlink:href="#DejaVuSans-48"/>
      </g>
     </g>
    </g>
    <g id="xtick_3">
     <g id="line2d_3">
      <g>
       <use style="stroke:#000000;stroke-width:0.8;" x="155.097945" xlink:href="#mffe74edc3d" y="307.584"/>
      </g>
     </g>
     <g id="text_3">
      <!-- 200 -->
      <defs>
       <path d="M 19.1875 8.296875 
L 53.609375 8.296875 
L 53.609375 0 
L 7.328125 0 
L 7.328125 8.296875 
Q 12.9375 14.109375 22.625 23.890625 
Q 32.328125 33.6875 34.8125 36.53125 
Q 39.546875 41.84375 41.421875 45.53125 
Q 43.3125 49.21875 43.3125 52.78125 
Q 43.3125 58.59375 39.234375 62.25 
Q 35.15625 65.921875 28.609375 65.921875 
Q 23.96875 65.921875 18.8125 64.3125 
Q 13.671875 62.703125 7.8125 59.421875 
L 7.8125 69.390625 
Q 13.765625 71.78125 18.9375 73 
Q 24.125 74.21875 28.421875 74.21875 
Q 39.75 74.21875 46.484375 68.546875 
Q 53.21875 62.890625 53.21875 53.421875 
Q 53.21875 48.921875 51.53125 44.890625 
Q 49.859375 40.875 45.40625 35.40625 
Q 44.1875 33.984375 37.640625 27.21875 
Q 31.109375 20.453125 19.1875 8.296875 
z
" id="DejaVuSans-50"/>
      </defs>
      <g transform="translate(145.554195 322.182437)scale(0.1 -0.1)">
       <use xlink:href="#DejaVuSans-50"/>
       <use x="63.623047" xlink:href="#DejaVuSans-48"/>
       <use x="127.246094" xlink:href="#DejaVuSans-48"/>
      </g>
     </g>
    </g>
    <g id="xtick_4">
     <g id="line2d_4">
      <g>
       <use style="stroke:#000000;stroke-width:0.8;" x="195.730554" xlink:href="#mffe74edc3d" y="307.584"/>
      </g>
     </g>
     <g id="text_4">
      <!-- 300 -->
      <defs>
       <path d="M 40.578125 39.3125 
Q 47.65625 37.796875 51.625 33 
Q 55.609375 28.21875 55.609375 21.1875 
Q 55.609375 10.40625 48.1875 4.484375 
Q 40.765625 -1.421875 27.09375 -1.421875 
Q 22.515625 -1.421875 17.65625 -0.515625 
Q 12.796875 0.390625 7.625 2.203125 
L 7.625 11.71875 
Q 11.71875 9.328125 16.59375 8.109375 
Q 21.484375 6.890625 26.8125 6.890625 
Q 36.078125 6.890625 40.9375 10.546875 
Q 45.796875 14.203125 45.796875 21.1875 
Q 45.796875 27.640625 41.28125 31.265625 
Q 36.765625 34.90625 28.71875 34.90625 
L 20.21875 34.90625 
L 20.21875 43.015625 
L 29.109375 43.015625 
Q 36.375 43.015625 40.234375 45.921875 
Q 44.09375 48.828125 44.09375 54.296875 
Q 44.09375 59.90625 40.109375 62.90625 
Q 36.140625 65.921875 28.71875 65.921875 
Q 24.65625 65.921875 20.015625 65.03125 
Q 15.375 64.15625 9.8125 62.3125 
L 9.8125 71.09375 
Q 15.4375 72.65625 20.34375 73.4375 
Q 25.25 74.21875 29.59375 74.21875 
Q 40.828125 74.21875 47.359375 69.109375 
Q 53.90625 64.015625 53.90625 55.328125 
Q 53.90625 49.265625 50.4375 45.09375 
Q 46.96875 40.921875 40.578125 39.3125 
z
" id="DejaVuSans-51"/>
      </defs>
      <g transform="translate(186.186804 322.182437)scale(0.1 -0.1)">
       <use xlink:href="#DejaVuSans-51"/>
       <use x="63.623047" xlink:href="#DejaVuSans-48"/>
       <use x="127.246094" xlink:href="#DejaVuSans-48"/>
      </g>
     </g>
    </g>
    <g id="xtick_5">
     <g id="line2d_5">
      <g>
       <use style="stroke:#000000;stroke-width:0.8;" x="236.363163" xlink:href="#mffe74edc3d" y="307.584"/>
      </g>
     </g>
     <g id="text_5">
      <!-- 400 -->
      <defs>
       <path d="M 37.796875 64.3125 
L 12.890625 25.390625 
L 37.796875 25.390625 
z
M 35.203125 72.90625 
L 47.609375 72.90625 
L 47.609375 25.390625 
L 58.015625 25.390625 
L 58.015625 17.1875 
L 47.609375 17.1875 
L 47.609375 0 
L 37.796875 0 
L 37.796875 17.1875 
L 4.890625 17.1875 
L 4.890625 26.703125 
z
" id="DejaVuSans-52"/>
      </defs>
      <g transform="translate(226.819413 322.182437)scale(0.1 -0.1)">
       <use xlink:href="#DejaVuSans-52"/>
       <use x="63.623047" xlink:href="#DejaVuSans-48"/>
       <use x="127.246094" xlink:href="#DejaVuSans-48"/>
      </g>
     </g>
    </g>
    <g id="xtick_6">
     <g id="line2d_6">
      <g>
       <use style="stroke:#000000;stroke-width:0.8;" x="276.995772" xlink:href="#mffe74edc3d" y="307.584"/>
      </g>
     </g>
     <g id="text_6">
      <!-- 500 -->
      <defs>
       <path d="M 10.796875 72.90625 
L 49.515625 72.90625 
L 49.515625 64.59375 
L 19.828125 64.59375 
L 19.828125 46.734375 
Q 21.96875 47.46875 24.109375 47.828125 
Q 26.265625 48.1875 28.421875 48.1875 
Q 40.625 48.1875 47.75 41.5 
Q 54.890625 34.8125 54.890625 23.390625 
Q 54.890625 11.625 47.5625 5.09375 
Q 40.234375 -1.421875 26.90625 -1.421875 
Q 22.3125 -1.421875 17.546875 -0.640625 
Q 12.796875 0.140625 7.71875 1.703125 
L 7.71875 11.625 
Q 12.109375 9.234375 16.796875 8.0625 
Q 21.484375 6.890625 26.703125 6.890625 
Q 35.15625 6.890625 40.078125 11.328125 
Q 45.015625 15.765625 45.015625 23.390625 
Q 45.015625 31 40.078125 35.4375 
Q 35.15625 39.890625 26.703125 39.890625 
Q 22.75 39.890625 18.8125 39.015625 
Q 14.890625 38.140625 10.796875 36.28125 
z
" id="DejaVuSans-53"/>
      </defs>
      <g transform="translate(267.452022 322.182437)scale(0.1 -0.1)">
       <use xlink:href="#DejaVuSans-53"/>
       <use x="63.623047" xlink:href="#DejaVuSans-48"/>
       <use x="127.246094" xlink:href="#DejaVuSans-48"/>
      </g>
     </g>
    </g>
    <g id="xtick_7">
     <g id="line2d_7">
      <g>
       <use style="stroke:#000000;stroke-width:0.8;" x="317.628381" xlink:href="#mffe74edc3d" y="307.584"/>
      </g>
     </g>
     <g id="text_7">
      <!-- 600 -->
      <defs>
       <path d="M 33.015625 40.375 
Q 26.375 40.375 22.484375 35.828125 
Q 18.609375 31.296875 18.609375 23.390625 
Q 18.609375 15.53125 22.484375 10.953125 
Q 26.375 6.390625 33.015625 6.390625 
Q 39.65625 6.390625 43.53125 10.953125 
Q 47.40625 15.53125 47.40625 23.390625 
Q 47.40625 31.296875 43.53125 35.828125 
Q 39.65625 40.375 33.015625 40.375 
z
M 52.59375 71.296875 
L 52.59375 62.3125 
Q 48.875 64.0625 45.09375 64.984375 
Q 41.3125 65.921875 37.59375 65.921875 
Q 27.828125 65.921875 22.671875 59.328125 
Q 17.53125 52.734375 16.796875 39.40625 
Q 19.671875 43.65625 24.015625 45.921875 
Q 28.375 48.1875 33.59375 48.1875 
Q 44.578125 48.1875 50.953125 41.515625 
Q 57.328125 34.859375 57.328125 23.390625 
Q 57.328125 12.15625 50.6875 5.359375 
Q 44.046875 -1.421875 33.015625 -1.421875 
Q 20.359375 -1.421875 13.671875 8.265625 
Q 6.984375 17.96875 6.984375 36.375 
Q 6.984375 53.65625 15.1875 63.9375 
Q 23.390625 74.21875 37.203125 74.21875 
Q 40.921875 74.21875 44.703125 73.484375 
Q 48.484375 72.75 52.59375 71.296875 
z
" id="DejaVuSans-54"/>
      </defs>
      <g transform="translate(308.084631 322.182437)scale(0.1 -0.1)">
       <use xlink:href="#DejaVuSans-54"/>
       <use x="63.623047" xlink:href="#DejaVuSans-48"/>
       <use x="127.246094" xlink:href="#DejaVuSans-48"/>
      </g>
     </g>
    </g>
    <g id="xtick_8">
     <g id="line2d_8">
      <g>
       <use style="stroke:#000000;stroke-width:0.8;" x="358.26099" xlink:href="#mffe74edc3d" y="307.584"/>
      </g>
     </g>
     <g id="text_8">
      <!-- 700 -->
      <defs>
       <path d="M 8.203125 72.90625 
L 55.078125 72.90625 
L 55.078125 68.703125 
L 28.609375 0 
L 18.3125 0 
L 43.21875 64.59375 
L 8.203125 64.59375 
z
" id="DejaVuSans-55"/>
      </defs>
      <g transform="translate(348.71724 322.182437)scale(0.1 -0.1)">
       <use xlink:href="#DejaVuSans-55"/>
       <use x="63.623047" xlink:href="#DejaVuSans-48"/>
       <use x="127.246094" xlink:href="#DejaVuSans-48"/>
      </g>
     </g>
    </g>
    <g id="xtick_9">
     <g id="line2d_9">
      <g>
       <use style="stroke:#000000;stroke-width:0.8;" x="398.893599" xlink:href="#mffe74edc3d" y="307.584"/>
      </g>
     </g>
     <g id="text_9">
      <!-- 800 -->
      <defs>
       <path d="M 31.78125 34.625 
Q 24.75 34.625 20.71875 30.859375 
Q 16.703125 27.09375 16.703125 20.515625 
Q 16.703125 13.921875 20.71875 10.15625 
Q 24.75 6.390625 31.78125 6.390625 
Q 38.8125 6.390625 42.859375 10.171875 
Q 46.921875 13.96875 46.921875 20.515625 
Q 46.921875 27.09375 42.890625 30.859375 
Q 38.875 34.625 31.78125 34.625 
z
M 21.921875 38.8125 
Q 15.578125 40.375 12.03125 44.71875 
Q 8.5 49.078125 8.5 55.328125 
Q 8.5 64.0625 14.71875 69.140625 
Q 20.953125 74.21875 31.78125 74.21875 
Q 42.671875 74.21875 48.875 69.140625 
Q 55.078125 64.0625 55.078125 55.328125 
Q 55.078125 49.078125 51.53125 44.71875 
Q 48 40.375 41.703125 38.8125 
Q 48.828125 37.15625 52.796875 32.3125 
Q 56.78125 27.484375 56.78125 20.515625 
Q 56.78125 9.90625 50.3125 4.234375 
Q 43.84375 -1.421875 31.78125 -1.421875 
Q 19.734375 -1.421875 13.25 4.234375 
Q 6.78125 9.90625 6.78125 20.515625 
Q 6.78125 27.484375 10.78125 32.3125 
Q 14.796875 37.15625 21.921875 38.8125 
z
M 18.3125 54.390625 
Q 18.3125 48.734375 21.84375 45.5625 
Q 25.390625 42.390625 31.78125 42.390625 
Q 38.140625 42.390625 41.71875 45.5625 
Q 45.3125 48.734375 45.3125 54.390625 
Q 45.3125 60.0625 41.71875 63.234375 
Q 38.140625 66.40625 31.78125 66.40625 
Q 25.390625 66.40625 21.84375 63.234375 
Q 18.3125 60.0625 18.3125 54.390625 
z
" id="DejaVuSans-56"/>
      </defs>
      <g transform="translate(389.349849 322.182437)scale(0.1 -0.1)">
       <use xlink:href="#DejaVuSans-56"/>
       <use x="63.623047" xlink:href="#DejaVuSans-48"/>
       <use x="127.246094" xlink:href="#DejaVuSans-48"/>
      </g>
     </g>
    </g>
   </g>
   <g id="matplotlib.axis_2">
    <g id="ytick_1">
     <g id="line2d_10">
      <defs>
       <path d="M 0 0 
L -3.5 0 
" id="m7781670d86" style="stroke:#000000;stroke-width:0.8;"/>
      </defs>
      <g>
       <use style="stroke:#000000;stroke-width:0.8;" x="57.6" xlink:href="#m7781670d86" y="292.491527"/>
      </g>
     </g>
     <g id="text_10">
      <!-- 0.0 -->
      <defs>
       <path d="M 10.6875 12.40625 
L 21 12.40625 
L 21 0 
L 10.6875 0 
z
" id="DejaVuSans-46"/>
      </defs>
      <g transform="translate(34.696875 296.290746)scale(0.1 -0.1)">
       <use xlink:href="#DejaVuSans-48"/>
       <use x="63.623047" xlink:href="#DejaVuSans-46"/>
       <use x="95.410156" xlink:href="#DejaVuSans-48"/>
      </g>
     </g>
    </g>
    <g id="ytick_2">
     <g id="line2d_11">
      <g>
       <use style="stroke:#000000;stroke-width:0.8;" x="57.6" xlink:href="#m7781670d86" y="239.961959"/>
      </g>
     </g>
     <g id="text_11">
      <!-- 0.1 -->
      <g transform="translate(34.696875 243.761178)scale(0.1 -0.1)">
       <use xlink:href="#DejaVuSans-48"/>
       <use x="63.623047" xlink:href="#DejaVuSans-46"/>
       <use x="95.410156" xlink:href="#DejaVuSans-49"/>
      </g>
     </g>
    </g>
    <g id="ytick_3">
     <g id="line2d_12">
      <g>
       <use style="stroke:#000000;stroke-width:0.8;" x="57.6" xlink:href="#m7781670d86" y="187.432392"/>
      </g>
     </g>
     <g id="text_12">
      <!-- 0.2 -->
      <g transform="translate(34.696875 191.23161)scale(0.1 -0.1)">
       <use xlink:href="#DejaVuSans-48"/>
       <use x="63.623047" xlink:href="#DejaVuSans-46"/>
       <use x="95.410156" xlink:href="#DejaVuSans-50"/>
      </g>
     </g>
    </g>
    <g id="ytick_4">
     <g id="line2d_13">
      <g>
       <use style="stroke:#000000;stroke-width:0.8;" x="57.6" xlink:href="#m7781670d86" y="134.902824"/>
      </g>
     </g>
     <g id="text_13">
      <!-- 0.3 -->
      <g transform="translate(34.696875 138.702043)scale(0.1 -0.1)">
       <use xlink:href="#DejaVuSans-48"/>
       <use x="63.623047" xlink:href="#DejaVuSans-46"/>
       <use x="95.410156" xlink:href="#DejaVuSans-51"/>
      </g>
     </g>
    </g>
    <g id="ytick_5">
     <g id="line2d_14">
      <g>
       <use style="stroke:#000000;stroke-width:0.8;" x="57.6" xlink:href="#m7781670d86" y="82.373256"/>
      </g>
     </g>
     <g id="text_14">
      <!-- 0.4 -->
      <g transform="translate(34.696875 86.172475)scale(0.1 -0.1)">
       <use xlink:href="#DejaVuSans-48"/>
       <use x="63.623047" xlink:href="#DejaVuSans-46"/>
       <use x="95.410156" xlink:href="#DejaVuSans-52"/>
      </g>
     </g>
    </g>
   </g>
   <g id="line2d_15">
    <path clip-path="url(#p364c4f08f5)" d="M 73.832727 62.414823 
L 74.645379 62.694483 
L 75.458032 62.776249 
L 76.270684 62.651372 
L 77.083336 62.337117 
L 78.302314 61.60889 
L 80.333945 60.278787 
L 81.146597 59.960463 
L 81.959249 59.827501 
L 82.771901 59.906511 
L 83.584553 60.181923 
L 84.397206 60.673014 
L 86.835162 62.226439 
L 88.460466 62.873478 
L 89.273119 62.813783 
L 90.085771 62.547076 
L 90.898423 62.045272 
L 91.304749 61.04331 
L 92.117401 60.519796 
L 92.523727 60.564014 
L 93.742706 59.985879 
L 94.555358 59.829443 
L 95.36801 59.822501 
L 96.180662 59.997289 
L 97.39964 60.540249 
L 100.650249 62.267813 
L 101.462901 62.420513 
L 102.275554 62.373912 
L 103.088206 62.151084 
L 104.307184 61.56136 
L 105.932488 60.616119 
L 107.151467 60.039266 
L 107.557793 59.924313 
L 107.964119 60.076717 
L 108.776771 60.058563 
L 109.589423 60.225769 
L 111.214728 60.944946 
L 113.652684 62.1814 
L 114.871662 62.451258 
L 116.090641 62.397613 
L 117.309619 61.949912 
L 120.966554 60.345217 
L 122.185532 60.240446 
L 123.40451 60.577668 
L 124.217162 60.8746 
L 124.623488 61.3063 
L 127.061445 62.394313 
L 128.280423 62.588348 
L 129.093075 62.545767 
L 129.905728 62.362522 
L 134.375315 60.512131 
L 135.594293 60.467887 
L 136.813271 60.748014 
L 138.844902 61.681776 
L 140.06388 62.204806 
L 141.282858 62.498265 
L 142.09551 62.514714 
L 143.314489 62.292593 
L 143.720815 62.143393 
L 144.939793 61.350823 
L 147.784076 60.007514 
L 148.190402 59.865977 
L 149.40938 60.014661 
L 149.815706 60.171941 
L 150.628358 60.692613 
L 153.472641 62.188896 
L 154.285293 62.343535 
L 154.691619 62.351525 
L 157.535902 61.15637 
L 158.75488 60.410133 
L 159.161206 60.106719 
L 160.380184 59.746644 
L 161.192837 59.632649 
L 162.005489 59.752888 
L 162.818141 60.025091 
L 163.630793 60.493015 
L 166.06875 61.624186 
L 167.287728 61.817031 
L 168.10038 61.782868 
L 168.913032 61.59402 
L 170.13201 61.149737 
L 173.382619 59.74828 
L 174.601597 59.650997 
L 175.41425 59.711148 
L 177.039554 60.25034 
L 180.290163 61.591348 
L 181.509141 61.654459 
L 182.728119 61.303891 
L 184.353424 60.622644 
L 186.79138 59.58591 
L 188.010358 59.388345 
L 189.635663 59.549539 
L 191.260967 60.332349 
L 192.073619 60.762974 
L 192.886271 61.033459 
L 194.10525 61.36995 
L 194.917902 61.411071 
L 195.730554 61.288131 
L 198.981163 59.385089 
L 200.606467 58.800534 
L 201.419119 58.813677 
L 202.638098 59.1189 
L 203.45075 59.535671 
L 205.888706 60.675214 
L 207.514011 60.977936 
L 208.732989 60.768685 
L 209.139315 60.414892 
L 210.764619 59.753802 
L 212.79625 58.930912 
L 213.608902 58.777144 
L 215.234206 58.97298 
L 216.453185 59.344344 
L 219.703793 60.561611 
L 220.922772 60.689886 
L 221.735424 60.648403 
L 222.954402 60.318704 
L 226.611337 58.934364 
L 227.830315 58.84167 
L 229.049293 59.027893 
L 230.674598 59.650253 
L 231.080924 59.832795 
L 232.299902 60.756507 
L 233.51888 61.006191 
L 234.331533 60.998844 
L 235.550511 60.735841 
L 239.207446 59.35511 
L 239.613772 59.841456 
L 240.426424 59.782246 
L 240.83275 59.434156 
L 242.051728 59.455583 
L 242.458054 59.213857 
L 244.083359 59.891537 
L 246.521315 61.041257 
L 247.740294 61.265585 
L 248.552946 61.234476 
L 251.397228 60.693468 
L 252.209881 60.287287 
L 253.022533 60.153019 
L 253.428859 59.965897 
L 254.647837 60.069544 
L 255.054163 60.250758 
L 256.273141 60.207315 
L 257.49212 60.40601 
L 257.898446 60.524536 
L 258.304772 60.37481 
L 259.117424 59.824278 
L 259.52375 59.830146 
L 259.930076 60.03932 
L 260.742728 60.165008 
L 261.555381 59.660068 
L 262.368033 60.123525 
L 262.774359 60.148895 
L 263.180685 59.967283 
L 263.587011 60.127557 
L 264.805989 59.195957 
L 266.024968 59.281699 
L 267.243946 59.30588 
L 268.056598 59.180829 
L 268.462924 58.695441 
L 268.86925 58.626686 
L 269.681902 57.758219 
L 270.494555 57.645777 
L 270.900881 57.250981 
L 272.119859 57.315662 
L 273.745163 57.691779 
L 276.589446 58.547714 
L 278.21475 58.643539 
L 279.433729 58.459383 
L 282.278011 57.695404 
L 283.903316 57.318979 
L 285.52862 57.256722 
L 286.747598 57.48039 
L 288.779229 58.178105 
L 290.404533 58.592399 
L 291.623511 58.683286 
L 292.842489 58.524339 
L 294.467794 58.037214 
L 296.90575 57.313884 
L 298.124729 57.194945 
L 299.343707 57.312203 
L 303.813294 58.579558 
L 305.032272 58.65096 
L 306.25125 58.522895 
L 307.876555 58.058602 
L 309.908185 57.487013 
L 311.127163 57.329723 
L 312.346142 57.377008 
L 313.971446 57.734522 
L 317.222055 58.623616 
L 318.441033 58.71951 
L 319.660011 58.583131 
L 321.285316 58.140183 
L 323.723272 57.425057 
L 324.942251 57.300638 
L 326.161229 57.341825 
L 327.380207 57.683636 
L 330.630816 58.604816 
L 332.662446 58.824618 
L 333.475098 58.675707 
L 333.881425 58.290383 
L 334.694077 58.273127 
L 335.100403 58.129924 
L 335.913055 57.475203 
L 337.538359 57.085575 
L 339.163664 56.947504 
L 340.382642 57.20123 
L 340.788968 57.109325 
L 343.226925 57.910965 
L 344.039577 57.224092 
L 344.852229 57.378354 
L 345.664881 57.408434 
L 346.071207 57.4376 
L 346.883859 56.736178 
L 347.290185 56.271865 
L 349.321816 56.224409 
L 349.728142 56.068335 
L 350.540794 55.995041 
L 350.94712 55.870588 
L 351.353446 55.436075 
L 352.166099 55.376015 
L 354.197729 55.67937 
L 355.823033 56.03455 
L 356.635686 55.807752 
L 357.854664 55.866556 
L 358.26099 55.51697 
L 359.073642 55.357647 
L 362.324251 55.085886 
L 364.355881 55.023573 
L 365.981186 55.037563 
L 366.387512 54.814264 
L 366.793838 54.727828 
L 368.419142 54.80529 
L 369.231794 54.775398 
L 369.63812 54.403348 
L 372.888729 54.753039 
L 374.107707 54.970393 
L 375.733012 54.993201 
L 377.358316 54.715226 
L 381.421577 53.641809 
L 382.640555 53.743288 
L 384.26586 54.144303 
L 386.703816 54.868541 
L 387.922794 55.054976 
L 388.32912 54.864916 
L 389.141773 54.827191 
L 389.548099 54.67713 
L 389.954425 54.375607 
L 394.424012 53.582392 
L 395.64299 53.594513 
L 397.674621 53.893479 
L 398.487273 54.130989 
L 398.487273 54.130989 
" style="fill:none;stroke:#1f77b4;stroke-linecap:square;stroke-width:1.5;"/>
   </g>
   <g id="line2d_16">
    <path clip-path="url(#p364c4f08f5)" d="M 73.832727 60.215404 
L 74.645379 59.946121 
L 75.458032 59.870562 
L 76.270684 59.999157 
L 77.083336 60.309076 
L 78.302314 61.026998 
L 80.333945 62.296999 
L 81.146597 62.614311 
L 81.959249 62.754376 
L 82.771901 62.667147 
L 83.584553 62.38359 
L 84.803532 61.689041 
L 86.835162 60.379563 
L 87.647814 60.035389 
L 88.460466 59.877005 
L 89.273119 59.93122 
L 90.085771 60.193122 
L 91.304749 60.890173 
L 92.930053 61.867762 
L 93.742706 62.211155 
L 94.961684 62.412963 
L 95.774336 62.327557 
L 96.993314 61.87819 
L 99.024945 60.697687 
L 100.243923 60.100623 
L 101.056575 59.869852 
L 101.869227 59.816034 
L 102.68188 59.940502 
L 103.900858 60.430713 
L 107.151467 62.230314 
L 107.964119 62.423583 
L 108.776771 62.440067 
L 109.589423 62.286103 
L 110.808401 61.804034 
L 114.05901 60.233425 
L 114.871662 60.091129 
L 115.684314 60.110949 
L 116.496967 60.296674 
L 117.715945 60.832757 
L 120.560228 62.298024 
L 121.779206 62.569834 
L 122.591858 62.53623 
L 123.810836 62.208588 
L 125.436141 61.436908 
L 127.061445 60.745236 
L 128.280423 60.513111 
L 129.093075 60.53361 
L 130.312054 60.84957 
L 132.343684 61.759175 
L 133.968989 62.370701 
L 135.187967 62.515115 
L 136.406945 62.337851 
L 137.625923 61.890685 
L 140.470206 60.665723 
L 141.689184 60.468277 
L 142.501836 60.514249 
L 143.720815 60.827312 
L 147.377749 62.226487 
L 148.190402 62.275988 
L 149.003054 62.156614 
L 150.222032 61.683274 
L 153.472641 60.077095 
L 154.285293 59.923917 
L 155.097945 59.943048 
L 156.316923 60.258653 
L 157.942228 61.010298 
L 159.567532 61.718962 
L 160.78651 61.953454 
L 162.005489 61.817876 
L 163.224467 61.361358 
L 166.475076 59.869295 
L 167.287728 59.712534 
L 168.10038 59.708829 
L 169.319358 59.978582 
L 170.944663 60.679741 
L 172.569967 61.401187 
L 173.788945 61.704894 
L 174.601597 61.734385 
L 175.820576 61.502761 
L 177.039554 61.006467 
L 179.883837 59.714531 
L 181.102815 59.515146 
L 181.915467 59.57492 
L 183.134445 59.917636 
L 187.197706 61.500756 
L 188.416684 61.497414 
L 189.229337 61.311526 
L 190.854641 60.578481 
L 192.886271 59.549476 
L 194.10525 59.183177 
L 194.917902 59.133317 
L 195.730554 59.249172 
L 196.949532 59.680459 
L 199.793815 60.88897 
L 200.606467 61.036897 
L 201.419119 61.020926 
L 202.231772 60.843163 
L 203.45075 60.331967 
L 205.888706 59.125952 
L 207.107685 58.811583 
L 207.920337 58.794494 
L 209.139315 59.053917 
L 210.764619 59.71616 
L 212.79625 60.512361 
L 214.015228 60.696507 
L 215.234206 60.579291 
L 216.453185 60.207653 
L 219.703793 58.983758 
L 220.922772 58.854419 
L 222.14175 59.017291 
L 223.360728 59.424402 
L 226.205011 60.529276 
L 227.423989 60.70392 
L 228.642967 60.583532 
L 229.861946 60.201361 
L 232.706228 59.079597 
L 233.925207 58.942139 
L 235.144185 59.140459 
L 236.363163 59.606451 
L 239.207446 60.884839 
L 240.426424 61.16449 
L 241.645402 61.211013 
L 242.86438 60.970633 
L 244.489685 60.287888 
L 246.521315 59.409383 
L 247.740294 59.165456 
L 248.552946 59.195769 
L 249.771924 59.506515 
L 251.397228 60.267532 
L 253.428859 61.309277 
L 254.647837 61.704491 
L 255.866815 61.849268 
L 257.085794 61.729442 
L 258.711098 61.236113 
L 260.336402 60.412694 
L 263.180685 58.865232 
L 264.399663 58.441405 
L 266.024968 58.153019 
L 267.243946 58.136585 
L 268.86925 58.378543 
L 270.900881 58.685226 
L 272.119859 58.624869 
L 273.338837 58.353563 
L 276.995772 57.302859 
L 278.21475 57.226319 
L 279.433729 57.378497 
L 281.059033 57.837593 
L 283.496989 58.547794 
L 284.715968 58.679651 
L 285.934946 58.585354 
L 287.56025 58.153177 
L 290.404533 57.307167 
L 291.623511 57.21128 
L 292.842489 57.351725 
L 294.467794 57.810692 
L 296.90575 58.517814 
L 298.124729 58.634257 
L 299.343707 58.522872 
L 300.969011 58.10543 
L 303.406968 57.413125 
L 304.625946 57.280194 
L 305.844924 57.365865 
L 307.470229 57.763831 
L 310.314511 58.567293 
L 311.53349 58.683531 
L 312.752468 58.584214 
L 314.377772 58.175511 
L 316.815729 57.487973 
L 318.034707 57.331737 
L 319.253685 57.386539 
L 320.87899 57.76353 
L 324.129598 58.643494 
L 325.348577 58.696373 
L 326.567555 58.536852 
L 328.192859 58.073581 
L 330.22449 57.478156 
L 331.443468 57.31193 
L 332.662446 57.349501 
L 333.881425 57.627023 
L 337.132033 58.536999 
L 338.351011 58.578442 
L 339.56999 58.356834 
L 341.195294 57.75247 
L 343.633251 56.766447 
L 345.258555 56.386255 
L 346.883859 56.28718 
L 350.540794 56.319183 
L 352.166099 56.174337 
L 354.197729 55.698946 
L 356.229359 55.210146 
L 357.854664 55.038063 
L 359.886294 55.075836 
L 365.981186 55.367263 
L 368.012816 55.1657 
L 370.857099 54.610872 
L 373.295055 54.029507 
L 374.514033 53.896886 
L 375.733012 53.935386 
L 377.358316 54.249838 
L 380.608925 55.032742 
L 381.827903 55.089338 
L 383.046881 54.916366 
L 385.078512 54.314156 
L 387.110142 53.742405 
L 388.32912 53.608998 
L 389.548099 53.697 
L 391.986055 54.19464 
L 394.017686 54.493384 
L 395.64299 54.479928 
L 397.674621 54.147844 
L 398.487273 53.955625 
L 398.487273 53.955625 
" style="fill:none;stroke:#ff0000;stroke-linecap:square;stroke-width:1.5;"/>
   </g>
   <g id="line2d_17">
    <path clip-path="url(#p364c4f08f5)" d="M 73.832727 294.690946 
L 74.645379 295.239889 
L 75.458032 295.397214 
L 76.270684 295.143742 
L 77.083336 294.519567 
L 78.302314 293.073419 
L 80.333945 290.473315 
L 81.146597 289.837679 
L 81.959249 289.564653 
L 82.771901 289.730891 
L 83.584553 290.28986 
L 84.397206 291.218872 
L 86.835162 294.338403 
L 88.05414 295.384451 
L 88.866793 295.48254 
L 89.679445 295.158847 
L 90.492097 294.446195 
L 90.898423 293.908705 
L 91.304749 292.644664 
L 92.117401 291.60303 
L 92.523727 291.408172 
L 93.33638 290.579325 
L 94.149032 290.046589 
L 94.961684 289.879767 
L 95.774336 290.050775 
L 96.586988 290.574295 
L 97.805967 291.82645 
L 99.837597 294.138093 
L 100.650249 294.79465 
L 101.462901 295.084841 
L 102.275554 295.00991 
L 103.088206 294.570198 
L 103.900858 293.84662 
L 107.151467 290.300479 
L 107.557793 290.06642 
L 107.964119 290.144661 
L 108.776771 290.110023 
L 109.589423 290.431193 
L 110.808401 291.419681 
L 113.652684 294.311178 
L 114.465336 294.751822 
L 115.277988 294.870123 
L 115.684314 294.849571 
L 116.496967 294.473368 
L 117.309619 293.817339 
L 119.341249 291.74574 
L 120.560228 290.603239 
L 121.37288 290.280984 
L 122.185532 290.149751 
L 122.998184 290.429356 
L 124.217162 291.322157 
L 124.623488 291.941639 
L 126.655119 293.877291 
L 127.467771 294.342452 
L 128.280423 294.566765 
L 129.093075 294.503683 
L 129.905728 294.144573 
L 131.124706 293.13293 
L 133.156336 291.245766 
L 133.968989 290.7191 
L 134.781641 290.449983 
L 135.594293 290.469037 
L 136.406945 290.772694 
L 137.219597 291.34124 
L 138.844902 292.858177 
L 140.06388 293.899173 
L 140.876532 294.360633 
L 141.689184 294.549 
L 142.501836 294.44379 
L 143.314489 294.097834 
L 143.720815 293.807608 
L 145.752445 291.591062 
L 146.971423 290.616356 
L 148.190402 290.081516 
L 149.003054 290.223046 
L 149.815706 290.789909 
L 151.034684 292.161515 
L 153.066315 294.335125 
L 153.878967 294.79925 
L 154.691619 294.931791 
L 155.910597 294.276041 
L 157.129576 293.254258 
L 158.75488 291.496598 
L 159.161206 291.019374 
L 159.973858 290.48899 
L 160.78651 290.183149 
L 161.599163 290.265677 
L 162.411815 290.66106 
L 162.818141 290.967469 
L 164.443445 292.650037 
L 165.662423 293.80353 
L 166.475076 294.344327 
L 167.287728 294.596024 
L 168.10038 294.565567 
L 168.913032 294.229135 
L 169.725684 293.687429 
L 171.350989 292.184332 
L 172.976293 290.814426 
L 173.788945 290.469058 
L 174.601597 290.408139 
L 175.41425 290.587997 
L 176.226902 291.097452 
L 177.039554 291.7354 
L 179.883837 294.270095 
L 180.696489 294.585523 
L 181.509141 294.620154 
L 183.134445 293.733764 
L 184.353424 292.655921 
L 186.385054 290.865373 
L 187.197706 290.500724 
L 188.010358 290.342039 
L 189.229337 290.661635 
L 190.041989 291.228377 
L 191.667293 292.903956 
L 192.479945 293.617198 
L 193.292598 294.280209 
L 194.10525 294.6783 
L 194.917902 294.769281 
L 195.730554 294.530486 
L 196.949532 293.434962 
L 197.762185 292.510307 
L 199.387489 290.96346 
L 200.606467 290.255165 
L 201.419119 290.284279 
L 202.231772 290.630133 
L 203.044424 291.244865 
L 205.076054 293.365021 
L 205.888706 294.040789 
L 207.107685 294.633547 
L 207.514011 294.688867 
L 208.732989 294.32943 
L 209.139315 293.852501 
L 210.358293 292.896716 
L 212.389924 291.156364 
L 213.202576 290.728281 
L 213.608902 290.599276 
L 214.82788 290.711239 
L 216.046859 291.336328 
L 217.265837 292.292283 
L 218.891141 293.606429 
L 219.703793 294.06938 
L 220.516446 294.306474 
L 221.329098 294.318113 
L 222.14175 294.036275 
L 223.360728 293.227432 
L 225.392359 291.490377 
L 226.205011 290.986304 
L 227.017663 290.695359 
L 227.830315 290.637637 
L 228.642967 290.804249 
L 229.861946 291.596211 
L 231.080924 292.647417 
L 232.299902 294.054703 
L 233.112554 294.449067 
L 233.925207 294.57542 
L 234.737859 294.38252 
L 235.550511 293.957324 
L 237.175815 292.602028 
L 238.394793 291.561102 
L 239.207446 290.961797 
L 239.613772 291.335008 
L 240.426424 291.109283 
L 240.83275 290.712144 
L 241.645402 290.698681 
L 242.051728 290.784334 
L 242.458054 290.621571 
L 243.270707 291.163257 
L 246.521315 294.123402 
L 247.333967 294.50203 
L 248.14662 294.600076 
L 248.959272 294.38764 
L 250.17825 293.772584 
L 250.990902 293.199825 
L 251.397228 292.917464 
L 252.209881 292.068502 
L 253.022533 291.519263 
L 253.428859 291.148147 
L 254.647837 290.85658 
L 255.054163 290.96091 
L 255.866815 290.840089 
L 256.679468 290.942174 
L 257.49212 291.267063 
L 257.898446 291.501264 
L 258.711098 291.350588 
L 259.117424 291.259965 
L 259.52375 291.470337 
L 260.336402 292.186897 
L 260.742728 292.478273 
L 261.555381 292.444989 
L 262.368033 293.359806 
L 262.774359 293.590187 
L 263.180685 293.593578 
L 263.587011 293.919531 
L 265.212315 293.414151 
L 266.431294 293.675247 
L 267.243946 293.660823 
L 268.056598 293.445648 
L 268.462924 292.88752 
L 268.86925 292.73967 
L 269.681902 291.708289 
L 270.494555 291.482559 
L 270.900881 291.057282 
L 271.713533 291.090938 
L 272.526185 291.322097 
L 273.745163 291.952722 
L 276.18312 293.480148 
L 276.995772 293.785404 
L 277.808424 293.923699 
L 278.621076 293.853643 
L 279.433729 293.572413 
L 281.059033 292.696375 
L 283.903316 291.195268 
L 284.715968 291.067841 
L 285.52862 291.104655 
L 286.341272 291.381583 
L 287.56025 292.062819 
L 289.998207 293.618239 
L 290.810859 293.884843 
L 291.623511 293.963532 
L 292.436163 293.815053 
L 293.655142 293.251593 
L 296.499424 291.458908 
L 297.312076 291.159378 
L 298.124729 291.052214 
L 298.937381 291.152709 
L 299.750033 291.485703 
L 300.969011 292.19337 
L 303.000642 293.402763 
L 304.21962 293.820667 
L 305.032272 293.85769 
L 305.844924 293.718264 
L 307.063903 293.174144 
L 309.501859 291.676387 
L 310.720837 291.219048 
L 311.53349 291.127757 
L 312.346142 291.228859 
L 313.56512 291.704145 
L 315.59675 292.943098 
L 316.815729 293.55433 
L 317.628381 293.80278 
L 318.441033 293.886293 
L 319.253685 293.760297 
L 320.472664 293.220884 
L 322.097968 292.205648 
L 323.316946 291.492995 
L 324.129598 291.207183 
L 324.942251 291.088519 
L 325.754903 291.161067 
L 326.567555 291.382199 
L 328.599185 292.613807 
L 329.818164 293.373592 
L 331.037142 293.805608 
L 332.662446 293.966645 
L 333.475098 293.655357 
L 333.881425 293.154887 
L 334.694077 292.883859 
L 335.100403 292.606997 
L 335.913055 291.695997 
L 337.132033 291.098407 
L 338.351011 290.832562 
L 339.163664 290.980312 
L 341.195294 291.987406 
L 342.820598 293.321105 
L 343.226925 293.507984 
L 344.039577 293.06393 
L 344.852229 293.410535 
L 346.071207 293.627031 
L 346.883859 292.940526 
L 347.290185 292.462796 
L 350.540794 292.167385 
L 350.94712 292.060953 
L 351.353446 291.65135 
L 352.166099 291.693205 
L 353.791403 292.261461 
L 355.823033 293.239877 
L 356.635686 293.150567 
L 357.854664 293.32002 
L 358.26099 292.978509 
L 359.073642 292.805329 
L 360.698946 292.598604 
L 363.949555 292.100399 
L 365.981186 292.161827 
L 366.387512 291.961003 
L 366.793838 291.905134 
L 369.231794 292.305155 
L 369.63812 292.009727 
L 370.857099 292.464579 
L 374.107707 293.543009 
L 375.326686 293.62231 
L 376.545664 293.315917 
L 377.764642 292.731083 
L 379.796273 291.62373 
L 381.421577 291.037916 
L 382.234229 291.128834 
L 383.046881 291.401626 
L 383.859534 291.805883 
L 387.110142 293.70495 
L 387.922794 293.912885 
L 388.32912 293.747446 
L 389.141773 293.671089 
L 389.548099 293.471658 
L 389.954425 293.105325 
L 393.61136 291.678665 
L 394.830338 291.541079 
L 396.049316 291.695799 
L 397.268294 292.079451 
L 398.487273 292.666892 
L 398.487273 292.666892 
" style="fill:none;stroke:#008000;stroke-linecap:square;stroke-width:1.5;"/>
   </g>
   <g id="patch_3">
    <path d="M 57.6 307.584 
L 57.6 41.472 
" style="fill:none;stroke:#000000;stroke-linecap:square;stroke-linejoin:miter;stroke-width:0.8;"/>
   </g>
   <g id="patch_4">
    <path d="M 414.72 307.584 
L 414.72 41.472 
" style="fill:none;stroke:#000000;stroke-linecap:square;stroke-linejoin:miter;stroke-width:0.8;"/>
   </g>
   <g id="patch_5">
    <path d="M 57.6 307.584 
L 414.72 307.584 
" style="fill:none;stroke:#000000;stroke-linecap:square;stroke-linejoin:miter;stroke-width:0.8;"/>
   </g>
   <g id="patch_6">
    <path d="M 57.6 41.472 
L 414.72 41.472 
" style="fill:none;stroke:#000000;stroke-linecap:square;stroke-linejoin:miter;stroke-width:0.8;"/>
   </g>
   <g id="legend_1">
    <g id="patch_7">
     <path d="M 351.0075 198.045187 
L 407.72 198.045187 
Q 409.72 198.045187 409.72 196.045187 
L 409.72 153.010812 
Q 409.72 151.010812 407.72 151.010812 
L 351.0075 151.010812 
Q 349.0075 151.010812 349.0075 153.010812 
L 349.0075 196.045187 
Q 349.0075 198.045187 351.0075 198.045187 
z
" style="fill:#ffffff;opacity:0.8;stroke:#cccccc;stroke-linejoin:miter;"/>
    </g>
    <g id="line2d_18">
     <path d="M 353.0075 159.10925 
L 373.0075 159.10925 
" style="fill:none;stroke:#1f77b4;stroke-linecap:square;stroke-width:1.5;"/>
    </g>
    <g id="line2d_19"/>
    <g id="text_15">
     <!-- 0-&gt;1 -->
     <defs>
      <path d="M 4.890625 31.390625 
L 31.203125 31.390625 
L 31.203125 23.390625 
L 4.890625 23.390625 
z
" id="DejaVuSans-45"/>
      <path d="M 10.59375 49.21875 
L 10.59375 58.109375 
L 73.1875 35.40625 
L 73.1875 27.296875 
L 10.59375 4.59375 
L 10.59375 13.484375 
L 60.890625 31.296875 
z
" id="DejaVuSans-62"/>
     </defs>
     <g transform="translate(381.0075 162.60925)scale(0.1 -0.1)">
      <use xlink:href="#DejaVuSans-48"/>
      <use x="63.623047" xlink:href="#DejaVuSans-45"/>
      <use x="99.707031" xlink:href="#DejaVuSans-62"/>
      <use x="183.496094" xlink:href="#DejaVuSans-49"/>
     </g>
    </g>
    <g id="line2d_20">
     <path d="M 353.0075 173.787375 
L 373.0075 173.787375 
" style="fill:none;stroke:#ff0000;stroke-linecap:square;stroke-width:1.5;"/>
    </g>
    <g id="line2d_21"/>
    <g id="text_16">
     <!-- 1-&gt;0 -->
     <g transform="translate(381.0075 177.287375)scale(0.1 -0.1)">
      <use xlink:href="#DejaVuSans-49"/>
      <use x="63.623047" xlink:href="#DejaVuSans-45"/>
      <use x="99.707031" xlink:href="#DejaVuSans-62"/>
      <use x="183.496094" xlink:href="#DejaVuSans-48"/>
     </g>
    </g>
    <g id="line2d_22">
     <path d="M 353.0075 188.4655 
L 373.0075 188.4655 
" style="fill:none;stroke:#008000;stroke-linecap:square;stroke-width:1.5;"/>
    </g>
    <g id="line2d_23"/>
    <g id="text_17">
     <!-- diff -->
     <defs>
      <path d="M 45.40625 46.390625 
L 45.40625 75.984375 
L 54.390625 75.984375 
L 54.390625 0 
L 45.40625 0 
L 45.40625 8.203125 
Q 42.578125 3.328125 38.25 0.953125 
Q 33.9375 -1.421875 27.875 -1.421875 
Q 17.96875 -1.421875 11.734375 6.484375 
Q 5.515625 14.40625 5.515625 27.296875 
Q 5.515625 40.1875 11.734375 48.09375 
Q 17.96875 56 27.875 56 
Q 33.9375 56 38.25 53.625 
Q 42.578125 51.265625 45.40625 46.390625 
z
M 14.796875 27.296875 
Q 14.796875 17.390625 18.875 11.75 
Q 22.953125 6.109375 30.078125 6.109375 
Q 37.203125 6.109375 41.296875 11.75 
Q 45.40625 17.390625 45.40625 27.296875 
Q 45.40625 37.203125 41.296875 42.84375 
Q 37.203125 48.484375 30.078125 48.484375 
Q 22.953125 48.484375 18.875 42.84375 
Q 14.796875 37.203125 14.796875 27.296875 
z
" id="DejaVuSans-100"/>
      <path d="M 9.421875 54.6875 
L 18.40625 54.6875 
L 18.40625 0 
L 9.421875 0 
z
M 9.421875 75.984375 
L 18.40625 75.984375 
L 18.40625 64.59375 
L 9.421875 64.59375 
z
" id="DejaVuSans-105"/>
      <path d="M 37.109375 75.984375 
L 37.109375 68.5 
L 28.515625 68.5 
Q 23.6875 68.5 21.796875 66.546875 
Q 19.921875 64.59375 19.921875 59.515625 
L 19.921875 54.6875 
L 34.71875 54.6875 
L 34.71875 47.703125 
L 19.921875 47.703125 
L 19.921875 0 
L 10.890625 0 
L 10.890625 47.703125 
L 2.296875 47.703125 
L 2.296875 54.6875 
L 10.890625 54.6875 
L 10.890625 58.5 
Q 10.890625 67.625 15.140625 71.796875 
Q 19.390625 75.984375 28.609375 75.984375 
z
" id="DejaVuSans-102"/>
     </defs>
     <g transform="translate(381.0075 191.9655)scale(0.1 -0.1)">
      <use xlink:href="#DejaVuSans-100"/>
      <use x="63.476562" xlink:href="#DejaVuSans-105"/>
      <use x="91.259766" xlink:href="#DejaVuSans-102"/>
      <use x="126.464844" xlink:href="#DejaVuSans-102"/>
     </g>
    </g>
   </g>
  </g>
 </g>
 <defs>
  <clipPath id="p364c4f08f5">
   <rect height="266.112" width="357.12" x="57.6" y="41.472"/>
  </clipPath>
 </defs>
</svg>
