<?xml version="1.0" encoding="utf-8" standalone="no"?>
<!DOCTYPE svg PUBLIC "-//W3C//DTD SVG 1.1//EN"
  "http://www.w3.org/Graphics/SVG/1.1/DTD/svg11.dtd">
<!-- Created with matplotlib (https://matplotlib.org/) -->
<svg height="345.6pt" version="1.1" viewBox="0 0 460.8 345.6" width="460.8pt" xmlns="http://www.w3.org/2000/svg" xmlns:xlink="http://www.w3.org/1999/xlink">
 <defs>
  <style type="text/css">
*{stroke-linecap:butt;stroke-linejoin:round;}
  </style>
 </defs>
 <g id="figure_1">
  <g id="patch_1">
   <path d="M 0 345.6 
L 460.8 345.6 
L 460.8 0 
L 0 0 
z
" style="fill:#ffffff;"/>
  </g>
  <g id="axes_1">
   <g id="patch_2">
    <path d="M 57.6 307.584 
L 414.72 307.584 
L 414.72 41.472 
L 57.6 41.472 
z
" style="fill:#ffffff;"/>
   </g>
   <g id="matplotlib.axis_1">
    <g id="xtick_1">
     <g id="line2d_1">
      <defs>
       <path d="M 0 0 
L 0 3.5 
" id="m01866a7bf5" style="stroke:#000000;stroke-width:0.8;"/>
      </defs>
      <g>
       <use style="stroke:#000000;stroke-width:0.8;" x="73.832727" xlink:href="#m01866a7bf5" y="307.584"/>
      </g>
     </g>
     <g id="text_1">
      <!-- 0 -->
      <defs>
       <path d="M 31.78125 66.40625 
Q 24.171875 66.40625 20.328125 58.90625 
Q 16.5 51.421875 16.5 36.375 
Q 16.5 21.390625 20.328125 13.890625 
Q 24.171875 6.390625 31.78125 6.390625 
Q 39.453125 6.390625 43.28125 13.890625 
Q 47.125 21.390625 47.125 36.375 
Q 47.125 51.421875 43.28125 58.90625 
Q 39.453125 66.40625 31.78125 66.40625 
z
M 31.78125 74.21875 
Q 44.046875 74.21875 50.515625 64.515625 
Q 56.984375 54.828125 56.984375 36.375 
Q 56.984375 17.96875 50.515625 8.265625 
Q 44.046875 -1.421875 31.78125 -1.421875 
Q 19.53125 -1.421875 13.0625 8.265625 
Q 6.59375 17.96875 6.59375 36.375 
Q 6.59375 54.828125 13.0625 64.515625 
Q 19.53125 74.21875 31.78125 74.21875 
z
" id="DejaVuSans-48"/>
      </defs>
      <g transform="translate(70.651477 322.182437)scale(0.1 -0.1)">
       <use xlink:href="#DejaVuSans-48"/>
      </g>
     </g>
    </g>
    <g id="xtick_2">
     <g id="line2d_2">
      <g>
       <use style="stroke:#000000;stroke-width:0.8;" x="114.465336" xlink:href="#m01866a7bf5" y="307.584"/>
      </g>
     </g>
     <g id="text_2">
      <!-- 100 -->
      <defs>
       <path d="M 12.40625 8.296875 
L 28.515625 8.296875 
L 28.515625 63.921875 
L 10.984375 60.40625 
L 10.984375 69.390625 
L 28.421875 72.90625 
L 38.28125 72.90625 
L 38.28125 8.296875 
L 54.390625 8.296875 
L 54.390625 0 
L 12.40625 0 
z
" id="DejaVuSans-49"/>
      </defs>
      <g transform="translate(104.921586 322.182437)scale(0.1 -0.1)">
       <use xlink:href="#DejaVuSans-49"/>
       <use x="63.623047" xlink:href="#DejaVuSans-48"/>
       <use x="127.246094" xlink:href="#DejaVuSans-48"/>
      </g>
     </g>
    </g>
    <g id="xtick_3">
     <g id="line2d_3">
      <g>
       <use style="stroke:#000000;stroke-width:0.8;" x="155.097945" xlink:href="#m01866a7bf5" y="307.584"/>
      </g>
     </g>
     <g id="text_3">
      <!-- 200 -->
      <defs>
       <path d="M 19.1875 8.296875 
L 53.609375 8.296875 
L 53.609375 0 
L 7.328125 0 
L 7.328125 8.296875 
Q 12.9375 14.109375 22.625 23.890625 
Q 32.328125 33.6875 34.8125 36.53125 
Q 39.546875 41.84375 41.421875 45.53125 
Q 43.3125 49.21875 43.3125 52.78125 
Q 43.3125 58.59375 39.234375 62.25 
Q 35.15625 65.921875 28.609375 65.921875 
Q 23.96875 65.921875 18.8125 64.3125 
Q 13.671875 62.703125 7.8125 59.421875 
L 7.8125 69.390625 
Q 13.765625 71.78125 18.9375 73 
Q 24.125 74.21875 28.421875 74.21875 
Q 39.75 74.21875 46.484375 68.546875 
Q 53.21875 62.890625 53.21875 53.421875 
Q 53.21875 48.921875 51.53125 44.890625 
Q 49.859375 40.875 45.40625 35.40625 
Q 44.1875 33.984375 37.640625 27.21875 
Q 31.109375 20.453125 19.1875 8.296875 
z
" id="DejaVuSans-50"/>
      </defs>
      <g transform="translate(145.554195 322.182437)scale(0.1 -0.1)">
       <use xlink:href="#DejaVuSans-50"/>
       <use x="63.623047" xlink:href="#DejaVuSans-48"/>
       <use x="127.246094" xlink:href="#DejaVuSans-48"/>
      </g>
     </g>
    </g>
    <g id="xtick_4">
     <g id="line2d_4">
      <g>
       <use style="stroke:#000000;stroke-width:0.8;" x="195.730554" xlink:href="#m01866a7bf5" y="307.584"/>
      </g>
     </g>
     <g id="text_4">
      <!-- 300 -->
      <defs>
       <path d="M 40.578125 39.3125 
Q 47.65625 37.796875 51.625 33 
Q 55.609375 28.21875 55.609375 21.1875 
Q 55.609375 10.40625 48.1875 4.484375 
Q 40.765625 -1.421875 27.09375 -1.421875 
Q 22.515625 -1.421875 17.65625 -0.515625 
Q 12.796875 0.390625 7.625 2.203125 
L 7.625 11.71875 
Q 11.71875 9.328125 16.59375 8.109375 
Q 21.484375 6.890625 26.8125 6.890625 
Q 36.078125 6.890625 40.9375 10.546875 
Q 45.796875 14.203125 45.796875 21.1875 
Q 45.796875 27.640625 41.28125 31.265625 
Q 36.765625 34.90625 28.71875 34.90625 
L 20.21875 34.90625 
L 20.21875 43.015625 
L 29.109375 43.015625 
Q 36.375 43.015625 40.234375 45.921875 
Q 44.09375 48.828125 44.09375 54.296875 
Q 44.09375 59.90625 40.109375 62.90625 
Q 36.140625 65.921875 28.71875 65.921875 
Q 24.65625 65.921875 20.015625 65.03125 
Q 15.375 64.15625 9.8125 62.3125 
L 9.8125 71.09375 
Q 15.4375 72.65625 20.34375 73.4375 
Q 25.25 74.21875 29.59375 74.21875 
Q 40.828125 74.21875 47.359375 69.109375 
Q 53.90625 64.015625 53.90625 55.328125 
Q 53.90625 49.265625 50.4375 45.09375 
Q 46.96875 40.921875 40.578125 39.3125 
z
" id="DejaVuSans-51"/>
      </defs>
      <g transform="translate(186.186804 322.182437)scale(0.1 -0.1)">
       <use xlink:href="#DejaVuSans-51"/>
       <use x="63.623047" xlink:href="#DejaVuSans-48"/>
       <use x="127.246094" xlink:href="#DejaVuSans-48"/>
      </g>
     </g>
    </g>
    <g id="xtick_5">
     <g id="line2d_5">
      <g>
       <use style="stroke:#000000;stroke-width:0.8;" x="236.363163" xlink:href="#m01866a7bf5" y="307.584"/>
      </g>
     </g>
     <g id="text_5">
      <!-- 400 -->
      <defs>
       <path d="M 37.796875 64.3125 
L 12.890625 25.390625 
L 37.796875 25.390625 
z
M 35.203125 72.90625 
L 47.609375 72.90625 
L 47.609375 25.390625 
L 58.015625 25.390625 
L 58.015625 17.1875 
L 47.609375 17.1875 
L 47.609375 0 
L 37.796875 0 
L 37.796875 17.1875 
L 4.890625 17.1875 
L 4.890625 26.703125 
z
" id="DejaVuSans-52"/>
      </defs>
      <g transform="translate(226.819413 322.182437)scale(0.1 -0.1)">
       <use xlink:href="#DejaVuSans-52"/>
       <use x="63.623047" xlink:href="#DejaVuSans-48"/>
       <use x="127.246094" xlink:href="#DejaVuSans-48"/>
      </g>
     </g>
    </g>
    <g id="xtick_6">
     <g id="line2d_6">
      <g>
       <use style="stroke:#000000;stroke-width:0.8;" x="276.995772" xlink:href="#m01866a7bf5" y="307.584"/>
      </g>
     </g>
     <g id="text_6">
      <!-- 500 -->
      <defs>
       <path d="M 10.796875 72.90625 
L 49.515625 72.90625 
L 49.515625 64.59375 
L 19.828125 64.59375 
L 19.828125 46.734375 
Q 21.96875 47.46875 24.109375 47.828125 
Q 26.265625 48.1875 28.421875 48.1875 
Q 40.625 48.1875 47.75 41.5 
Q 54.890625 34.8125 54.890625 23.390625 
Q 54.890625 11.625 47.5625 5.09375 
Q 40.234375 -1.421875 26.90625 -1.421875 
Q 22.3125 -1.421875 17.546875 -0.640625 
Q 12.796875 0.140625 7.71875 1.703125 
L 7.71875 11.625 
Q 12.109375 9.234375 16.796875 8.0625 
Q 21.484375 6.890625 26.703125 6.890625 
Q 35.15625 6.890625 40.078125 11.328125 
Q 45.015625 15.765625 45.015625 23.390625 
Q 45.015625 31 40.078125 35.4375 
Q 35.15625 39.890625 26.703125 39.890625 
Q 22.75 39.890625 18.8125 39.015625 
Q 14.890625 38.140625 10.796875 36.28125 
z
" id="DejaVuSans-53"/>
      </defs>
      <g transform="translate(267.452022 322.182437)scale(0.1 -0.1)">
       <use xlink:href="#DejaVuSans-53"/>
       <use x="63.623047" xlink:href="#DejaVuSans-48"/>
       <use x="127.246094" xlink:href="#DejaVuSans-48"/>
      </g>
     </g>
    </g>
    <g id="xtick_7">
     <g id="line2d_7">
      <g>
       <use style="stroke:#000000;stroke-width:0.8;" x="317.628381" xlink:href="#m01866a7bf5" y="307.584"/>
      </g>
     </g>
     <g id="text_7">
      <!-- 600 -->
      <defs>
       <path d="M 33.015625 40.375 
Q 26.375 40.375 22.484375 35.828125 
Q 18.609375 31.296875 18.609375 23.390625 
Q 18.609375 15.53125 22.484375 10.953125 
Q 26.375 6.390625 33.015625 6.390625 
Q 39.65625 6.390625 43.53125 10.953125 
Q 47.40625 15.53125 47.40625 23.390625 
Q 47.40625 31.296875 43.53125 35.828125 
Q 39.65625 40.375 33.015625 40.375 
z
M 52.59375 71.296875 
L 52.59375 62.3125 
Q 48.875 64.0625 45.09375 64.984375 
Q 41.3125 65.921875 37.59375 65.921875 
Q 27.828125 65.921875 22.671875 59.328125 
Q 17.53125 52.734375 16.796875 39.40625 
Q 19.671875 43.65625 24.015625 45.921875 
Q 28.375 48.1875 33.59375 48.1875 
Q 44.578125 48.1875 50.953125 41.515625 
Q 57.328125 34.859375 57.328125 23.390625 
Q 57.328125 12.15625 50.6875 5.359375 
Q 44.046875 -1.421875 33.015625 -1.421875 
Q 20.359375 -1.421875 13.671875 8.265625 
Q 6.984375 17.96875 6.984375 36.375 
Q 6.984375 53.65625 15.1875 63.9375 
Q 23.390625 74.21875 37.203125 74.21875 
Q 40.921875 74.21875 44.703125 73.484375 
Q 48.484375 72.75 52.59375 71.296875 
z
" id="DejaVuSans-54"/>
      </defs>
      <g transform="translate(308.084631 322.182437)scale(0.1 -0.1)">
       <use xlink:href="#DejaVuSans-54"/>
       <use x="63.623047" xlink:href="#DejaVuSans-48"/>
       <use x="127.246094" xlink:href="#DejaVuSans-48"/>
      </g>
     </g>
    </g>
    <g id="xtick_8">
     <g id="line2d_8">
      <g>
       <use style="stroke:#000000;stroke-width:0.8;" x="358.26099" xlink:href="#m01866a7bf5" y="307.584"/>
      </g>
     </g>
     <g id="text_8">
      <!-- 700 -->
      <defs>
       <path d="M 8.203125 72.90625 
L 55.078125 72.90625 
L 55.078125 68.703125 
L 28.609375 0 
L 18.3125 0 
L 43.21875 64.59375 
L 8.203125 64.59375 
z
" id="DejaVuSans-55"/>
      </defs>
      <g transform="translate(348.71724 322.182437)scale(0.1 -0.1)">
       <use xlink:href="#DejaVuSans-55"/>
       <use x="63.623047" xlink:href="#DejaVuSans-48"/>
       <use x="127.246094" xlink:href="#DejaVuSans-48"/>
      </g>
     </g>
    </g>
    <g id="xtick_9">
     <g id="line2d_9">
      <g>
       <use style="stroke:#000000;stroke-width:0.8;" x="398.893599" xlink:href="#m01866a7bf5" y="307.584"/>
      </g>
     </g>
     <g id="text_9">
      <!-- 800 -->
      <defs>
       <path d="M 31.78125 34.625 
Q 24.75 34.625 20.71875 30.859375 
Q 16.703125 27.09375 16.703125 20.515625 
Q 16.703125 13.921875 20.71875 10.15625 
Q 24.75 6.390625 31.78125 6.390625 
Q 38.8125 6.390625 42.859375 10.171875 
Q 46.921875 13.96875 46.921875 20.515625 
Q 46.921875 27.09375 42.890625 30.859375 
Q 38.875 34.625 31.78125 34.625 
z
M 21.921875 38.8125 
Q 15.578125 40.375 12.03125 44.71875 
Q 8.5 49.078125 8.5 55.328125 
Q 8.5 64.0625 14.71875 69.140625 
Q 20.953125 74.21875 31.78125 74.21875 
Q 42.671875 74.21875 48.875 69.140625 
Q 55.078125 64.0625 55.078125 55.328125 
Q 55.078125 49.078125 51.53125 44.71875 
Q 48 40.375 41.703125 38.8125 
Q 48.828125 37.15625 52.796875 32.3125 
Q 56.78125 27.484375 56.78125 20.515625 
Q 56.78125 9.90625 50.3125 4.234375 
Q 43.84375 -1.421875 31.78125 -1.421875 
Q 19.734375 -1.421875 13.25 4.234375 
Q 6.78125 9.90625 6.78125 20.515625 
Q 6.78125 27.484375 10.78125 32.3125 
Q 14.796875 37.15625 21.921875 38.8125 
z
M 18.3125 54.390625 
Q 18.3125 48.734375 21.84375 45.5625 
Q 25.390625 42.390625 31.78125 42.390625 
Q 38.140625 42.390625 41.71875 45.5625 
Q 45.3125 48.734375 45.3125 54.390625 
Q 45.3125 60.0625 41.71875 63.234375 
Q 38.140625 66.40625 31.78125 66.40625 
Q 25.390625 66.40625 21.84375 63.234375 
Q 18.3125 60.0625 18.3125 54.390625 
z
" id="DejaVuSans-56"/>
      </defs>
      <g transform="translate(389.349849 322.182437)scale(0.1 -0.1)">
       <use xlink:href="#DejaVuSans-56"/>
       <use x="63.623047" xlink:href="#DejaVuSans-48"/>
       <use x="127.246094" xlink:href="#DejaVuSans-48"/>
      </g>
     </g>
    </g>
   </g>
   <g id="matplotlib.axis_2">
    <g id="ytick_1">
     <g id="line2d_10">
      <defs>
       <path d="M 0 0 
L -3.5 0 
" id="ma016e321eb" style="stroke:#000000;stroke-width:0.8;"/>
      </defs>
      <g>
       <use style="stroke:#000000;stroke-width:0.8;" x="57.6" xlink:href="#ma016e321eb" y="292.921767"/>
      </g>
     </g>
     <g id="text_10">
      <!-- 0.0 -->
      <defs>
       <path d="M 10.6875 12.40625 
L 21 12.40625 
L 21 0 
L 10.6875 0 
z
" id="DejaVuSans-46"/>
      </defs>
      <g transform="translate(34.696875 296.720985)scale(0.1 -0.1)">
       <use xlink:href="#DejaVuSans-48"/>
       <use x="63.623047" xlink:href="#DejaVuSans-46"/>
       <use x="95.410156" xlink:href="#DejaVuSans-48"/>
      </g>
     </g>
    </g>
    <g id="ytick_2">
     <g id="line2d_11">
      <g>
       <use style="stroke:#000000;stroke-width:0.8;" x="57.6" xlink:href="#ma016e321eb" y="235.225441"/>
      </g>
     </g>
     <g id="text_11">
      <!-- 0.1 -->
      <g transform="translate(34.696875 239.024659)scale(0.1 -0.1)">
       <use xlink:href="#DejaVuSans-48"/>
       <use x="63.623047" xlink:href="#DejaVuSans-46"/>
       <use x="95.410156" xlink:href="#DejaVuSans-49"/>
      </g>
     </g>
    </g>
    <g id="ytick_3">
     <g id="line2d_12">
      <g>
       <use style="stroke:#000000;stroke-width:0.8;" x="57.6" xlink:href="#ma016e321eb" y="177.529115"/>
      </g>
     </g>
     <g id="text_12">
      <!-- 0.2 -->
      <g transform="translate(34.696875 181.328334)scale(0.1 -0.1)">
       <use xlink:href="#DejaVuSans-48"/>
       <use x="63.623047" xlink:href="#DejaVuSans-46"/>
       <use x="95.410156" xlink:href="#DejaVuSans-50"/>
      </g>
     </g>
    </g>
    <g id="ytick_4">
     <g id="line2d_13">
      <g>
       <use style="stroke:#000000;stroke-width:0.8;" x="57.6" xlink:href="#ma016e321eb" y="119.832789"/>
      </g>
     </g>
     <g id="text_13">
      <!-- 0.3 -->
      <g transform="translate(34.696875 123.632008)scale(0.1 -0.1)">
       <use xlink:href="#DejaVuSans-48"/>
       <use x="63.623047" xlink:href="#DejaVuSans-46"/>
       <use x="95.410156" xlink:href="#DejaVuSans-51"/>
      </g>
     </g>
    </g>
    <g id="ytick_5">
     <g id="line2d_14">
      <g>
       <use style="stroke:#000000;stroke-width:0.8;" x="57.6" xlink:href="#ma016e321eb" y="62.136463"/>
      </g>
     </g>
     <g id="text_14">
      <!-- 0.4 -->
      <g transform="translate(34.696875 65.935682)scale(0.1 -0.1)">
       <use xlink:href="#DejaVuSans-48"/>
       <use x="63.623047" xlink:href="#DejaVuSans-46"/>
       <use x="95.410156" xlink:href="#DejaVuSans-52"/>
      </g>
     </g>
    </g>
   </g>
   <g id="line2d_15">
    <path clip-path="url(#p03197398c4)" d="M 73.832727 59.429929 
L 77.489662 57.494044 
L 78.302314 57.356906 
L 79.114966 57.401268 
L 79.927619 57.621972 
L 81.146597 58.20052 
L 83.584553 59.507077 
L 84.397206 59.749637 
L 85.209858 59.821676 
L 86.02251 59.710632 
L 87.241488 59.239514 
L 90.898423 57.304816 
L 91.711075 57.15798 
L 92.523727 57.205627 
L 93.742706 57.594327 
L 95.36801 58.465398 
L 96.993314 59.300752 
L 97.805967 59.546106 
L 98.618619 59.621347 
L 99.431271 59.505962 
L 100.650249 59.03828 
L 104.307184 57.102453 
L 105.526162 56.952665 
L 106.338814 57.088078 
L 107.964119 57.817883 
L 110.402075 59.112258 
L 111.621054 59.404182 
L 112.433706 59.378952 
L 113.246358 59.184155 
L 114.465336 58.623205 
L 117.309619 57.080441 
L 118.122271 56.852502 
L 118.934923 56.797104 
L 119.747575 56.919632 
L 120.966554 57.389732 
L 124.623488 59.119407 
L 125.436141 59.201027 
L 126.248793 59.103833 
L 127.467771 58.655795 
L 131.124706 56.77184 
L 131.937358 56.618592 
L 132.75001 56.641825 
L 133.968989 56.942395 
L 135.187967 57.584743 
L 137.219597 58.657853 
L 138.032249 58.916939 
L 138.844902 59.011487 
L 139.657554 58.91956 
L 140.876532 58.486212 
L 144.939793 56.463895 
L 145.752445 56.3923 
L 146.565097 56.499252 
L 147.784076 56.95264 
L 151.44101 58.722265 
L 152.253663 58.823847 
L 153.066315 58.744733 
L 154.285293 58.312605 
L 156.316923 57.145803 
L 157.535902 56.523034 
L 158.75488 56.214676 
L 159.567532 56.222259 
L 160.380184 56.390242 
L 161.599163 56.921859 
L 164.443445 58.384789 
L 165.256097 58.582751 
L 166.06875 58.604177 
L 166.881402 58.447324 
L 168.10038 57.929881 
L 171.350989 56.201293 
L 172.163641 56.01824 
L 172.976293 56.019523 
L 173.788945 56.225395 
L 175.007924 56.790429 
L 177.44588 58.083608 
L 178.664858 58.429113 
L 179.883837 58.42635 
L 181.102815 58.0694 
L 183.134445 56.964737 
L 184.353424 56.344423 
L 185.572402 55.99487 
L 186.385054 55.994617 
L 187.604032 56.313006 
L 188.823011 56.884038 
L 191.260967 58.116778 
L 192.073619 58.314185 
L 192.886271 58.363841 
L 193.698924 58.235153 
L 194.917902 57.762161 
L 198.574837 55.955142 
L 199.387489 55.844755 
L 200.200141 55.905438 
L 201.419119 56.293839 
L 203.45075 57.351491 
L 204.669728 57.9083 
L 205.48238 58.124801 
L 206.295032 58.177206 
L 207.107685 58.057664 
L 208.326663 57.595428 
L 211.983598 55.817485 
L 212.79625 55.690367 
L 213.608902 55.734174 
L 214.82788 56.115945 
L 216.453185 56.955796 
L 218.078489 57.737088 
L 219.297467 58.006062 
L 220.110119 57.977987 
L 220.922772 57.768644 
L 222.14175 57.236623 
L 224.579706 55.959744 
L 225.798685 55.598464 
L 226.611337 55.55013 
L 227.423989 55.670968 
L 228.642967 56.12759 
L 231.893576 57.673523 
L 232.706228 57.822166 
L 233.51888 57.805339 
L 234.331533 57.619969 
L 235.956837 56.877898 
L 237.988467 55.783947 
L 239.207446 55.406434 
L 240.020098 55.357524 
L 240.83275 55.478318 
L 242.051728 55.930443 
L 245.302337 57.4859 
L 246.114989 57.63735 
L 246.927641 57.62444 
L 247.740294 57.440188 
L 248.959272 56.90811 
L 251.803554 55.422886 
L 253.022533 55.202782 
L 253.835185 55.235837 
L 254.647837 55.425712 
L 255.866815 55.952541 
L 258.304772 57.164668 
L 259.52375 57.460107 
L 260.336402 57.454359 
L 261.149054 57.282434 
L 262.368033 56.76741 
L 265.212315 55.303752 
L 266.431294 55.027156 
L 267.243946 55.050678 
L 268.462924 55.374329 
L 270.088228 56.164113 
L 271.713533 56.932802 
L 272.932511 57.222889 
L 273.745163 57.216549 
L 274.557815 57.045764 
L 275.776794 56.538426 
L 278.621076 55.094324 
L 279.840055 54.823227 
L 280.652707 54.846267 
L 281.871685 55.174433 
L 283.496989 55.966656 
L 285.122294 56.742493 
L 286.341272 57.039603 
L 287.153924 57.039005 
L 287.966576 56.873093 
L 289.185555 56.370005 
L 292.029837 54.926884 
L 293.248816 54.649239 
L 294.061468 54.667811 
L 295.280446 54.998627 
L 296.90575 55.784243 
L 298.531055 56.560772 
L 299.750033 56.868305 
L 300.562685 56.875717 
L 301.781663 56.587785 
L 303.000642 56.015875 
L 305.438598 54.790273 
L 306.657577 54.500791 
L 307.470229 54.526571 
L 308.689207 54.848663 
L 310.314511 55.647484 
L 311.939816 56.424422 
L 313.158794 56.731093 
L 313.971446 56.739101 
L 314.784098 56.584143 
L 316.003077 56.090975 
L 319.253685 54.527889 
L 320.066337 54.393929 
L 320.87899 54.395904 
L 322.097968 54.697998 
L 323.723272 55.458226 
L 325.348577 56.217703 
L 326.567555 56.522205 
L 327.380207 56.532519 
L 328.599185 56.254118 
L 330.22449 55.484291 
L 332.25612 54.498646 
L 333.475098 54.219849 
L 334.287751 54.230931 
L 335.506729 54.536897 
L 337.132033 55.310779 
L 338.757338 56.07891 
L 339.976316 56.37975 
L 340.788968 56.38782 
L 342.007946 56.111273 
L 343.226925 55.564736 
L 345.664881 54.366459 
L 346.883859 54.085601 
L 347.696512 54.095768 
L 348.91549 54.402662 
L 350.540794 55.16501 
L 352.166099 55.938016 
L 353.385077 56.254889 
L 354.197729 56.273004 
L 355.010381 56.130026 
L 356.229359 55.661652 
L 359.479968 54.09882 
L 360.29262 53.938165 
L 361.105272 53.939125 
L 362.324251 54.233307 
L 363.949555 54.992609 
L 365.574859 55.771279 
L 366.793838 56.093939 
L 367.60649 56.117136 
L 368.419142 55.983311 
L 369.63812 55.517737 
L 372.888729 53.955229 
L 373.701381 53.791802 
L 374.514033 53.7903 
L 375.733012 54.082185 
L 377.358316 54.843309 
L 378.98362 55.628365 
L 380.202599 55.955781 
L 381.015251 55.979539 
L 381.827903 55.840935 
L 383.046881 55.376739 
L 386.29749 53.814377 
L 387.516468 53.616749 
L 388.32912 53.687807 
L 389.548099 54.07957 
L 393.205034 55.757788 
L 394.424012 55.89221 
L 395.236664 55.7655 
L 396.861968 55.142104 
L 398.487273 54.271479 
L 398.487273 54.271479 
" style="fill:none;stroke:#1f77b4;stroke-linecap:square;stroke-width:1.5;"/>
   </g>
   <g id="line2d_16">
    <path clip-path="url(#p03197398c4)" d="M 73.832727 57.987567 
L 77.489662 59.817714 
L 78.302314 59.923051 
L 79.114966 59.854605 
L 79.927619 59.60781 
L 81.146597 58.994125 
L 83.584553 57.617194 
L 84.397206 57.350075 
L 85.209858 57.255442 
L 86.02251 57.342856 
L 87.241488 57.780544 
L 90.898423 59.60298 
L 91.711075 59.720071 
L 92.523727 59.655691 
L 93.742706 59.243048 
L 95.36801 58.314146 
L 96.993314 57.428463 
L 97.805967 57.162476 
L 98.618619 57.067463 
L 99.431271 57.152597 
L 100.650249 57.584047 
L 104.307184 59.394617 
L 105.119836 59.51158 
L 105.932488 59.447165 
L 106.745141 59.208621 
L 107.964119 58.601764 
L 110.402075 57.248206 
L 111.214728 56.986499 
L 112.02738 56.892568 
L 112.840032 56.978072 
L 114.05901 57.402323 
L 117.715945 59.182295 
L 118.528597 59.305001 
L 119.341249 59.244606 
L 120.153901 59.015418 
L 121.37288 58.419627 
L 123.810836 57.07012 
L 125.029815 56.725432 
L 125.842467 56.708175 
L 126.655119 56.865494 
L 127.874097 57.373025 
L 130.71838 58.84143 
L 131.531032 59.055123 
L 132.343684 59.098875 
L 133.156336 58.961691 
L 134.375315 58.470913 
L 138.032249 56.602078 
L 138.844902 56.487127 
L 139.657554 56.551168 
L 140.470206 56.784397 
L 141.689184 57.371134 
L 144.127141 58.636703 
L 144.939793 58.858469 
L 145.752445 58.908529 
L 146.565097 58.778814 
L 147.784076 58.292008 
L 151.44101 56.424798 
L 152.253663 56.304951 
L 153.066315 56.36473 
L 154.285293 56.760512 
L 155.910597 57.634543 
L 157.535902 58.439169 
L 158.348554 58.658341 
L 159.161206 58.714721 
L 159.973858 58.591515 
L 161.192837 58.110925 
L 164.849771 56.210795 
L 165.662423 56.078009 
L 166.475076 56.125784 
L 167.694054 56.511637 
L 169.319358 57.386945 
L 170.944663 58.214521 
L 171.757315 58.457369 
L 172.569967 58.52798 
L 173.382619 58.429557 
L 174.601597 57.971464 
L 178.258532 56.140637 
L 179.071184 56.020845 
L 179.883837 56.062008 
L 180.696489 56.270371 
L 181.915467 56.827113 
L 184.353424 58.128995 
L 185.572402 58.45248 
L 186.385054 58.454076 
L 187.197706 58.2803 
L 188.416684 57.751229 
L 191.260967 56.226645 
L 192.073619 55.990631 
L 192.886271 55.920916 
L 193.698924 56.028667 
L 194.917902 56.469414 
L 198.168511 58.075025 
L 198.981163 58.252116 
L 199.793815 58.257855 
L 200.606467 58.092186 
L 201.825445 57.576787 
L 205.076054 55.930159 
L 205.888706 55.771607 
L 206.701359 55.78124 
L 207.514011 55.962415 
L 208.732989 56.481354 
L 211.577272 57.881009 
L 212.389924 58.064908 
L 213.202576 58.083485 
L 214.015228 57.930301 
L 215.234206 57.432189 
L 218.484815 55.803189 
L 219.297467 55.639798 
L 220.110119 55.645766 
L 221.329098 55.958044 
L 222.954402 56.751255 
L 224.579706 57.55402 
L 225.798685 57.887225 
L 226.611337 57.910136 
L 227.423989 57.764633 
L 228.642967 57.277698 
L 231.893576 55.652222 
L 232.706228 55.480969 
L 233.51888 55.476853 
L 234.737859 55.767909 
L 236.363163 56.559687 
L 237.988467 57.362812 
L 239.207446 57.70405 
L 240.020098 57.734025 
L 240.83275 57.592283 
L 242.051728 57.108771 
L 245.302337 55.458034 
L 246.114989 55.277433 
L 246.927641 55.267834 
L 247.740294 55.42315 
L 248.959272 55.924493 
L 251.803554 57.330252 
L 252.616207 57.52605 
L 253.428859 57.559479 
L 254.241511 57.424513 
L 255.460489 56.951186 
L 258.711098 55.317159 
L 259.52375 55.137228 
L 260.336402 55.122942 
L 261.149054 55.274638 
L 262.368033 55.757684 
L 265.212315 57.127123 
L 266.024968 57.3206 
L 266.83762 57.349392 
L 267.650272 57.207633 
L 268.86925 56.741348 
L 272.526185 55.00224 
L 273.338837 54.908106 
L 274.151489 54.978739 
L 275.370468 55.364658 
L 279.027402 57.021022 
L 279.840055 57.142842 
L 280.652707 57.10051 
L 281.871685 56.743134 
L 283.496989 55.910824 
L 285.122294 55.087485 
L 286.341272 54.758108 
L 287.153924 54.736033 
L 287.966576 54.878179 
L 289.185555 55.341512 
L 292.029837 56.716208 
L 293.248816 56.964842 
L 294.061468 56.927454 
L 295.280446 56.576848 
L 296.90575 55.750093 
L 298.531055 54.931676 
L 299.750033 54.597898 
L 300.562685 54.57171 
L 301.375337 54.7142 
L 302.594316 55.184588 
L 305.844924 56.686263 
L 306.657577 56.81842 
L 307.470229 56.78532 
L 308.689207 56.440968 
L 310.314511 55.625176 
L 311.939816 54.811272 
L 313.158794 54.474585 
L 313.971446 54.447165 
L 314.784098 54.583074 
L 316.003077 55.041024 
L 319.253685 56.525143 
L 320.066337 56.656119 
L 321.285316 56.554235 
L 322.097968 56.274285 
L 324.535924 55.02164 
L 325.754903 54.507457 
L 326.973881 54.284669 
L 327.786533 54.337 
L 329.005511 54.688738 
L 331.037142 55.687058 
L 332.25612 56.214807 
L 333.475098 56.464833 
L 334.287751 56.434503 
L 335.506729 56.10397 
L 337.132033 55.30571 
L 338.757338 54.512098 
L 339.976316 54.18199 
L 340.788968 54.153302 
L 341.60162 54.283046 
L 342.820598 54.731544 
L 346.071207 56.202685 
L 347.290185 56.350661 
L 348.102838 56.241823 
L 349.321816 55.814639 
L 352.978751 54.117008 
L 353.791403 54.000665 
L 354.604055 54.046043 
L 355.823033 54.396836 
L 357.448338 55.184638 
L 359.073642 55.932716 
L 360.29262 56.199699 
L 361.105272 56.180455 
L 362.324251 55.856727 
L 363.949555 55.053925 
L 365.574859 54.238615 
L 366.793838 53.887723 
L 367.60649 53.846381 
L 368.419142 53.967458 
L 369.63812 54.408801 
L 372.888729 55.903398 
L 373.701381 56.050684 
L 374.514033 56.034274 
L 375.733012 55.714446 
L 377.358316 54.915932 
L 378.98362 54.097404 
L 380.202599 53.742121 
L 381.015251 53.699241 
L 381.827903 53.821753 
L 383.046881 54.266529 
L 386.29749 55.743728 
L 387.110142 55.892933 
L 387.922794 55.87759 
L 389.141773 55.561784 
L 390.360751 54.987765 
L 392.392381 53.952239 
L 393.61136 53.608672 
L 394.424012 53.574285 
L 395.236664 53.705961 
L 396.455642 54.164773 
L 398.487273 55.229688 
L 398.487273 55.229688 
" style="fill:none;stroke:#ff0000;stroke-linecap:square;stroke-width:1.5;"/>
   </g>
   <g id="line2d_17">
    <path clip-path="url(#p03197398c4)" d="M 73.832727 294.364129 
L 75.458032 292.486222 
L 76.67701 291.181268 
L 77.489662 290.598097 
L 78.302314 290.355622 
L 79.114966 290.468429 
L 79.927619 290.935928 
L 80.740271 291.681607 
L 83.99088 295.106534 
L 84.803532 295.450364 
L 85.616184 295.434385 
L 86.428836 295.059996 
L 87.241488 294.380737 
L 88.866793 292.520848 
L 90.085771 291.215491 
L 90.898423 290.623602 
L 91.711075 290.359675 
L 92.523727 290.471702 
L 93.33638 290.934794 
L 94.149032 291.669941 
L 97.39964 295.089592 
L 98.212293 295.437356 
L 99.024945 295.425738 
L 99.837597 295.044199 
L 100.650249 294.376 
L 102.275554 292.537937 
L 103.494532 291.216059 
L 104.307184 290.629603 
L 105.119836 290.381656 
L 105.526162 290.371904 
L 106.338814 290.661628 
L 107.557793 291.697366 
L 110.808401 295.069624 
L 111.621054 295.408548 
L 112.433706 295.387692 
L 113.246358 295.021031 
L 114.05901 294.35689 
L 115.684314 292.540443 
L 116.903293 291.271276 
L 117.715945 290.686088 
L 118.528597 290.419063 
L 119.341249 290.513674 
L 120.153901 290.949233 
L 120.966554 291.667656 
L 124.217162 295.020442 
L 125.029815 295.37867 
L 125.842467 295.388211 
L 126.655119 295.047227 
L 127.467771 294.401599 
L 128.686749 293.076199 
L 130.312054 291.313946 
L 131.124706 290.725391 
L 131.937358 290.44112 
L 132.75001 290.509417 
L 133.562662 290.858692 
L 134.375315 291.57821 
L 137.219597 294.696836 
L 138.032249 295.236628 
L 138.844902 295.446127 
L 139.657554 295.290159 
L 140.470206 294.801676 
L 141.282858 294.043172 
L 144.127141 290.995084 
L 144.939793 290.527193 
L 145.752445 290.405538 
L 146.565097 290.642205 
L 147.377749 291.202406 
L 148.596728 292.471301 
L 150.222032 294.299341 
L 151.034684 294.98344 
L 151.847336 295.373584 
L 152.659989 295.413906 
L 153.472641 295.099439 
L 154.285293 294.473859 
L 155.504271 293.155448 
L 157.129576 291.353851 
L 157.942228 290.741448 
L 158.75488 290.427569 
L 159.567532 290.468897 
L 160.380184 290.844917 
L 161.192837 291.533938 
L 162.411815 292.887434 
L 164.037119 294.643543 
L 164.849771 295.214849 
L 165.662423 295.459374 
L 166.475076 295.342903 
L 167.287728 294.886202 
L 168.10038 294.148412 
L 170.944663 291.059952 
L 171.757315 290.553061 
L 172.569967 290.391736 
L 172.976293 290.437187 
L 173.788945 290.83288 
L 174.601597 291.527713 
L 177.852206 294.890449 
L 178.664858 295.297988 
L 179.477511 295.357205 
L 180.290163 295.106213 
L 181.102815 294.562367 
L 182.321793 293.31238 
L 183.947098 291.499443 
L 184.75975 290.83945 
L 185.572402 290.464156 
L 186.385054 290.462308 
L 187.197706 290.819652 
L 188.010358 291.440083 
L 189.229337 292.74105 
L 190.854641 294.480755 
L 191.667293 295.067708 
L 192.479945 295.345441 
L 193.292598 295.287924 
L 194.10525 294.890877 
L 194.917902 294.214513 
L 198.168511 290.920868 
L 198.981163 290.548368 
L 199.793815 290.517594 
L 200.606467 290.82961 
L 201.419119 291.43849 
L 202.638098 292.705069 
L 204.263402 294.42984 
L 205.076054 295.028743 
L 205.888706 295.322757 
L 206.701359 295.279226 
L 207.514011 294.895846 
L 208.326663 294.234084 
L 209.951967 292.466801 
L 211.170946 291.271636 
L 211.983598 290.746797 
L 212.79625 290.515516 
L 213.608902 290.628242 
L 214.421554 291.085593 
L 215.234206 291.789455 
L 218.078489 294.71662 
L 218.891141 295.175094 
L 219.703793 295.314248 
L 220.516446 295.114019 
L 221.329098 294.581266 
L 222.548076 293.403522 
L 224.579706 291.327491 
L 225.392359 290.790383 
L 226.205011 290.554501 
L 227.017663 290.652257 
L 227.830315 291.079352 
L 228.642967 291.771658 
L 231.48725 294.669972 
L 232.299902 295.143569 
L 233.112554 295.300125 
L 233.925207 295.116172 
L 234.737859 294.612051 
L 235.550511 293.890737 
L 238.394793 291.034528 
L 239.207446 290.624151 
L 240.020098 290.545266 
L 240.83275 290.807802 
L 241.645402 291.372949 
L 242.86438 292.598446 
L 244.489685 294.326804 
L 245.302337 294.949633 
L 246.114989 295.281684 
L 246.927641 295.278372 
L 247.740294 294.938804 
L 248.552946 294.303206 
L 250.17825 292.560013 
L 251.397228 291.325589 
L 252.209881 290.805301 
L 253.022533 290.560537 
L 253.835185 290.645131 
L 254.647837 291.04894 
L 255.460489 291.72236 
L 258.711098 294.905118 
L 259.52375 295.244645 
L 260.336402 295.253183 
L 261.149054 294.929562 
L 261.961707 294.318889 
L 263.180685 293.060128 
L 264.805989 291.408098 
L 265.618641 290.852637 
L 266.431294 290.591246 
L 267.243946 290.673533 
L 268.056598 291.07368 
L 268.86925 291.727418 
L 272.119859 294.879536 
L 272.932511 295.209959 
L 273.745163 295.216577 
L 274.557815 294.892933 
L 275.370468 294.291692 
L 276.995772 292.624907 
L 278.21475 291.422602 
L 279.027402 290.866492 
L 279.840055 290.602152 
L 280.652707 290.667524 
L 281.465359 291.054173 
L 282.278011 291.708215 
L 285.52862 294.858032 
L 286.341272 295.203261 
L 287.153924 295.224738 
L 287.966576 294.91668 
L 288.779229 294.326404 
L 289.998207 293.09793 
L 291.623511 291.447061 
L 292.436163 290.882175 
L 293.248816 290.606163 
L 294.061468 290.662124 
L 294.87412 291.048949 
L 295.686772 291.693872 
L 298.937381 294.834347 
L 299.750033 295.192174 
L 300.562685 295.225774 
L 301.375337 294.924346 
L 302.18799 294.343197 
L 303.406968 293.113771 
L 305.032272 291.467221 
L 305.844924 290.8943 
L 306.657577 290.604137 
L 307.470229 290.663017 
L 308.282881 291.038806 
L 309.095533 291.675915 
L 310.720837 293.379782 
L 311.939816 294.534917 
L 312.752468 295.037938 
L 313.56512 295.237675 
L 314.377772 295.107859 
L 315.190424 294.665744 
L 316.409403 293.568478 
L 318.441033 291.497263 
L 319.253685 290.924513 
L 320.066337 290.659576 
L 320.87899 290.687698 
L 321.691642 291.038548 
L 322.91062 292.082054 
L 325.348577 294.486961 
L 326.161229 294.982559 
L 326.973881 295.183735 
L 327.786533 295.060955 
L 328.599185 294.636615 
L 329.818164 293.562657 
L 331.849794 291.517037 
L 332.662446 290.956052 
L 333.475098 290.676783 
L 334.287751 290.718195 
L 335.100403 291.07407 
L 335.913055 291.689954 
L 339.163664 294.769889 
L 339.976316 295.119526 
L 340.788968 295.156285 
L 341.60162 294.877415 
L 342.414272 294.320739 
L 343.633251 293.141273 
L 345.258555 291.527315 
L 346.071207 290.956177 
L 346.883859 290.668227 
L 347.696512 290.702539 
L 348.509164 291.056262 
L 349.321816 291.673466 
L 350.94712 293.335573 
L 352.166099 294.480796 
L 352.978751 294.989545 
L 353.791403 295.206103 
L 354.604055 295.096813 
L 355.416707 294.679266 
L 356.635686 293.613143 
L 359.073642 291.222911 
L 359.886294 290.772618 
L 360.698946 290.628865 
L 361.511599 290.814123 
L 362.324251 291.298347 
L 363.543229 292.428421 
L 365.574859 294.454431 
L 366.387512 294.975702 
L 367.200164 295.201753 
L 368.012816 295.10475 
L 368.825468 294.697387 
L 370.044446 293.632861 
L 372.482403 291.236431 
L 373.295055 290.780016 
L 374.107707 290.627452 
L 374.92036 290.807352 
L 375.733012 291.289505 
L 376.95199 292.416949 
L 378.98362 294.452727 
L 379.796273 294.977054 
L 380.608925 295.20753 
L 381.421577 295.112457 
L 382.234229 294.691209 
L 383.046881 294.031977 
L 386.29749 290.992416 
L 387.110142 290.674483 
L 387.922794 290.673515 
L 388.735447 291.003091 
L 389.548099 291.607981 
L 391.173403 293.284945 
L 392.392381 294.466645 
L 393.205034 294.990893 
L 394.017686 295.22923 
L 394.830338 295.158747 
L 395.64299 294.736393 
L 396.455642 294.102833 
L 398.487273 291.963558 
L 398.487273 291.963558 
" style="fill:none;stroke:#008000;stroke-linecap:square;stroke-width:1.5;"/>
   </g>
   <g id="patch_3">
    <path d="M 57.6 307.584 
L 57.6 41.472 
" style="fill:none;stroke:#000000;stroke-linecap:square;stroke-linejoin:miter;stroke-width:0.8;"/>
   </g>
   <g id="patch_4">
    <path d="M 414.72 307.584 
L 414.72 41.472 
" style="fill:none;stroke:#000000;stroke-linecap:square;stroke-linejoin:miter;stroke-width:0.8;"/>
   </g>
   <g id="patch_5">
    <path d="M 57.6 307.584 
L 414.72 307.584 
" style="fill:none;stroke:#000000;stroke-linecap:square;stroke-linejoin:miter;stroke-width:0.8;"/>
   </g>
   <g id="patch_6">
    <path d="M 57.6 41.472 
L 414.72 41.472 
" style="fill:none;stroke:#000000;stroke-linecap:square;stroke-linejoin:miter;stroke-width:0.8;"/>
   </g>
   <g id="legend_1">
    <g id="patch_7">
     <path d="M 351.0075 198.045187 
L 407.72 198.045187 
Q 409.72 198.045187 409.72 196.045187 
L 409.72 153.010812 
Q 409.72 151.010812 407.72 151.010812 
L 351.0075 151.010812 
Q 349.0075 151.010812 349.0075 153.010812 
L 349.0075 196.045187 
Q 349.0075 198.045187 351.0075 198.045187 
z
" style="fill:#ffffff;opacity:0.8;stroke:#cccccc;stroke-linejoin:miter;"/>
    </g>
    <g id="line2d_18">
     <path d="M 353.0075 159.10925 
L 373.0075 159.10925 
" style="fill:none;stroke:#1f77b4;stroke-linecap:square;stroke-width:1.5;"/>
    </g>
    <g id="line2d_19"/>
    <g id="text_15">
     <!-- 0-&gt;1 -->
     <defs>
      <path d="M 4.890625 31.390625 
L 31.203125 31.390625 
L 31.203125 23.390625 
L 4.890625 23.390625 
z
" id="DejaVuSans-45"/>
      <path d="M 10.59375 49.21875 
L 10.59375 58.109375 
L 73.1875 35.40625 
L 73.1875 27.296875 
L 10.59375 4.59375 
L 10.59375 13.484375 
L 60.890625 31.296875 
z
" id="DejaVuSans-62"/>
     </defs>
     <g transform="translate(381.0075 162.60925)scale(0.1 -0.1)">
      <use xlink:href="#DejaVuSans-48"/>
      <use x="63.623047" xlink:href="#DejaVuSans-45"/>
      <use x="99.707031" xlink:href="#DejaVuSans-62"/>
      <use x="183.496094" xlink:href="#DejaVuSans-49"/>
     </g>
    </g>
    <g id="line2d_20">
     <path d="M 353.0075 173.787375 
L 373.0075 173.787375 
" style="fill:none;stroke:#ff0000;stroke-linecap:square;stroke-width:1.5;"/>
    </g>
    <g id="line2d_21"/>
    <g id="text_16">
     <!-- 1-&gt;0 -->
     <g transform="translate(381.0075 177.287375)scale(0.1 -0.1)">
      <use xlink:href="#DejaVuSans-49"/>
      <use x="63.623047" xlink:href="#DejaVuSans-45"/>
      <use x="99.707031" xlink:href="#DejaVuSans-62"/>
      <use x="183.496094" xlink:href="#DejaVuSans-48"/>
     </g>
    </g>
    <g id="line2d_22">
     <path d="M 353.0075 188.4655 
L 373.0075 188.4655 
" style="fill:none;stroke:#008000;stroke-linecap:square;stroke-width:1.5;"/>
    </g>
    <g id="line2d_23"/>
    <g id="text_17">
     <!-- diff -->
     <defs>
      <path d="M 45.40625 46.390625 
L 45.40625 75.984375 
L 54.390625 75.984375 
L 54.390625 0 
L 45.40625 0 
L 45.40625 8.203125 
Q 42.578125 3.328125 38.25 0.953125 
Q 33.9375 -1.421875 27.875 -1.421875 
Q 17.96875 -1.421875 11.734375 6.484375 
Q 5.515625 14.40625 5.515625 27.296875 
Q 5.515625 40.1875 11.734375 48.09375 
Q 17.96875 56 27.875 56 
Q 33.9375 56 38.25 53.625 
Q 42.578125 51.265625 45.40625 46.390625 
z
M 14.796875 27.296875 
Q 14.796875 17.390625 18.875 11.75 
Q 22.953125 6.109375 30.078125 6.109375 
Q 37.203125 6.109375 41.296875 11.75 
Q 45.40625 17.390625 45.40625 27.296875 
Q 45.40625 37.203125 41.296875 42.84375 
Q 37.203125 48.484375 30.078125 48.484375 
Q 22.953125 48.484375 18.875 42.84375 
Q 14.796875 37.203125 14.796875 27.296875 
z
" id="DejaVuSans-100"/>
      <path d="M 9.421875 54.6875 
L 18.40625 54.6875 
L 18.40625 0 
L 9.421875 0 
z
M 9.421875 75.984375 
L 18.40625 75.984375 
L 18.40625 64.59375 
L 9.421875 64.59375 
z
" id="DejaVuSans-105"/>
      <path d="M 37.109375 75.984375 
L 37.109375 68.5 
L 28.515625 68.5 
Q 23.6875 68.5 21.796875 66.546875 
Q 19.921875 64.59375 19.921875 59.515625 
L 19.921875 54.6875 
L 34.71875 54.6875 
L 34.71875 47.703125 
L 19.921875 47.703125 
L 19.921875 0 
L 10.890625 0 
L 10.890625 47.703125 
L 2.296875 47.703125 
L 2.296875 54.6875 
L 10.890625 54.6875 
L 10.890625 58.5 
Q 10.890625 67.625 15.140625 71.796875 
Q 19.390625 75.984375 28.609375 75.984375 
z
" id="DejaVuSans-102"/>
     </defs>
     <g transform="translate(381.0075 191.9655)scale(0.1 -0.1)">
      <use xlink:href="#DejaVuSans-100"/>
      <use x="63.476562" xlink:href="#DejaVuSans-105"/>
      <use x="91.259766" xlink:href="#DejaVuSans-102"/>
      <use x="126.464844" xlink:href="#DejaVuSans-102"/>
     </g>
    </g>
   </g>
  </g>
 </g>
 <defs>
  <clipPath id="p03197398c4">
   <rect height="266.112" width="357.12" x="57.6" y="41.472"/>
  </clipPath>
 </defs>
</svg>
