<?xml version="1.0" encoding="utf-8" standalone="no"?>
<!DOCTYPE svg PUBLIC "-//W3C//DTD SVG 1.1//EN"
  "http://www.w3.org/Graphics/SVG/1.1/DTD/svg11.dtd">
<!-- Created with matplotlib (https://matplotlib.org/) -->
<svg height="345.6pt" version="1.1" viewBox="0 0 460.8 345.6" width="460.8pt" xmlns="http://www.w3.org/2000/svg" xmlns:xlink="http://www.w3.org/1999/xlink">
 <defs>
  <style type="text/css">
*{stroke-linecap:butt;stroke-linejoin:round;}
  </style>
 </defs>
 <g id="figure_1">
  <g id="patch_1">
   <path d="M 0 345.6 
L 460.8 345.6 
L 460.8 0 
L 0 0 
z
" style="fill:#ffffff;"/>
  </g>
  <g id="axes_1">
   <g id="patch_2">
    <path d="M 57.6 307.584 
L 414.72 307.584 
L 414.72 41.472 
L 57.6 41.472 
z
" style="fill:#ffffff;"/>
   </g>
   <g id="matplotlib.axis_1">
    <g id="xtick_1">
     <g id="line2d_1">
      <defs>
       <path d="M 0 0 
L 0 3.5 
" id="ma685430d53" style="stroke:#000000;stroke-width:0.8;"/>
      </defs>
      <g>
       <use style="stroke:#000000;stroke-width:0.8;" x="73.832727" xlink:href="#ma685430d53" y="307.584"/>
      </g>
     </g>
     <g id="text_1">
      <!-- 0 -->
      <defs>
       <path d="M 31.78125 66.40625 
Q 24.171875 66.40625 20.328125 58.90625 
Q 16.5 51.421875 16.5 36.375 
Q 16.5 21.390625 20.328125 13.890625 
Q 24.171875 6.390625 31.78125 6.390625 
Q 39.453125 6.390625 43.28125 13.890625 
Q 47.125 21.390625 47.125 36.375 
Q 47.125 51.421875 43.28125 58.90625 
Q 39.453125 66.40625 31.78125 66.40625 
z
M 31.78125 74.21875 
Q 44.046875 74.21875 50.515625 64.515625 
Q 56.984375 54.828125 56.984375 36.375 
Q 56.984375 17.96875 50.515625 8.265625 
Q 44.046875 -1.421875 31.78125 -1.421875 
Q 19.53125 -1.421875 13.0625 8.265625 
Q 6.59375 17.96875 6.59375 36.375 
Q 6.59375 54.828125 13.0625 64.515625 
Q 19.53125 74.21875 31.78125 74.21875 
z
" id="DejaVuSans-48"/>
      </defs>
      <g transform="translate(70.651477 322.182437)scale(0.1 -0.1)">
       <use xlink:href="#DejaVuSans-48"/>
      </g>
     </g>
    </g>
    <g id="xtick_2">
     <g id="line2d_2">
      <g>
       <use style="stroke:#000000;stroke-width:0.8;" x="114.465336" xlink:href="#ma685430d53" y="307.584"/>
      </g>
     </g>
     <g id="text_2">
      <!-- 100 -->
      <defs>
       <path d="M 12.40625 8.296875 
L 28.515625 8.296875 
L 28.515625 63.921875 
L 10.984375 60.40625 
L 10.984375 69.390625 
L 28.421875 72.90625 
L 38.28125 72.90625 
L 38.28125 8.296875 
L 54.390625 8.296875 
L 54.390625 0 
L 12.40625 0 
z
" id="DejaVuSans-49"/>
      </defs>
      <g transform="translate(104.921586 322.182437)scale(0.1 -0.1)">
       <use xlink:href="#DejaVuSans-49"/>
       <use x="63.623047" xlink:href="#DejaVuSans-48"/>
       <use x="127.246094" xlink:href="#DejaVuSans-48"/>
      </g>
     </g>
    </g>
    <g id="xtick_3">
     <g id="line2d_3">
      <g>
       <use style="stroke:#000000;stroke-width:0.8;" x="155.097945" xlink:href="#ma685430d53" y="307.584"/>
      </g>
     </g>
     <g id="text_3">
      <!-- 200 -->
      <defs>
       <path d="M 19.1875 8.296875 
L 53.609375 8.296875 
L 53.609375 0 
L 7.328125 0 
L 7.328125 8.296875 
Q 12.9375 14.109375 22.625 23.890625 
Q 32.328125 33.6875 34.8125 36.53125 
Q 39.546875 41.84375 41.421875 45.53125 
Q 43.3125 49.21875 43.3125 52.78125 
Q 43.3125 58.59375 39.234375 62.25 
Q 35.15625 65.921875 28.609375 65.921875 
Q 23.96875 65.921875 18.8125 64.3125 
Q 13.671875 62.703125 7.8125 59.421875 
L 7.8125 69.390625 
Q 13.765625 71.78125 18.9375 73 
Q 24.125 74.21875 28.421875 74.21875 
Q 39.75 74.21875 46.484375 68.546875 
Q 53.21875 62.890625 53.21875 53.421875 
Q 53.21875 48.921875 51.53125 44.890625 
Q 49.859375 40.875 45.40625 35.40625 
Q 44.1875 33.984375 37.640625 27.21875 
Q 31.109375 20.453125 19.1875 8.296875 
z
" id="DejaVuSans-50"/>
      </defs>
      <g transform="translate(145.554195 322.182437)scale(0.1 -0.1)">
       <use xlink:href="#DejaVuSans-50"/>
       <use x="63.623047" xlink:href="#DejaVuSans-48"/>
       <use x="127.246094" xlink:href="#DejaVuSans-48"/>
      </g>
     </g>
    </g>
    <g id="xtick_4">
     <g id="line2d_4">
      <g>
       <use style="stroke:#000000;stroke-width:0.8;" x="195.730554" xlink:href="#ma685430d53" y="307.584"/>
      </g>
     </g>
     <g id="text_4">
      <!-- 300 -->
      <defs>
       <path d="M 40.578125 39.3125 
Q 47.65625 37.796875 51.625 33 
Q 55.609375 28.21875 55.609375 21.1875 
Q 55.609375 10.40625 48.1875 4.484375 
Q 40.765625 -1.421875 27.09375 -1.421875 
Q 22.515625 -1.421875 17.65625 -0.515625 
Q 12.796875 0.390625 7.625 2.203125 
L 7.625 11.71875 
Q 11.71875 9.328125 16.59375 8.109375 
Q 21.484375 6.890625 26.8125 6.890625 
Q 36.078125 6.890625 40.9375 10.546875 
Q 45.796875 14.203125 45.796875 21.1875 
Q 45.796875 27.640625 41.28125 31.265625 
Q 36.765625 34.90625 28.71875 34.90625 
L 20.21875 34.90625 
L 20.21875 43.015625 
L 29.109375 43.015625 
Q 36.375 43.015625 40.234375 45.921875 
Q 44.09375 48.828125 44.09375 54.296875 
Q 44.09375 59.90625 40.109375 62.90625 
Q 36.140625 65.921875 28.71875 65.921875 
Q 24.65625 65.921875 20.015625 65.03125 
Q 15.375 64.15625 9.8125 62.3125 
L 9.8125 71.09375 
Q 15.4375 72.65625 20.34375 73.4375 
Q 25.25 74.21875 29.59375 74.21875 
Q 40.828125 74.21875 47.359375 69.109375 
Q 53.90625 64.015625 53.90625 55.328125 
Q 53.90625 49.265625 50.4375 45.09375 
Q 46.96875 40.921875 40.578125 39.3125 
z
" id="DejaVuSans-51"/>
      </defs>
      <g transform="translate(186.186804 322.182437)scale(0.1 -0.1)">
       <use xlink:href="#DejaVuSans-51"/>
       <use x="63.623047" xlink:href="#DejaVuSans-48"/>
       <use x="127.246094" xlink:href="#DejaVuSans-48"/>
      </g>
     </g>
    </g>
    <g id="xtick_5">
     <g id="line2d_5">
      <g>
       <use style="stroke:#000000;stroke-width:0.8;" x="236.363163" xlink:href="#ma685430d53" y="307.584"/>
      </g>
     </g>
     <g id="text_5">
      <!-- 400 -->
      <defs>
       <path d="M 37.796875 64.3125 
L 12.890625 25.390625 
L 37.796875 25.390625 
z
M 35.203125 72.90625 
L 47.609375 72.90625 
L 47.609375 25.390625 
L 58.015625 25.390625 
L 58.015625 17.1875 
L 47.609375 17.1875 
L 47.609375 0 
L 37.796875 0 
L 37.796875 17.1875 
L 4.890625 17.1875 
L 4.890625 26.703125 
z
" id="DejaVuSans-52"/>
      </defs>
      <g transform="translate(226.819413 322.182437)scale(0.1 -0.1)">
       <use xlink:href="#DejaVuSans-52"/>
       <use x="63.623047" xlink:href="#DejaVuSans-48"/>
       <use x="127.246094" xlink:href="#DejaVuSans-48"/>
      </g>
     </g>
    </g>
    <g id="xtick_6">
     <g id="line2d_6">
      <g>
       <use style="stroke:#000000;stroke-width:0.8;" x="276.995772" xlink:href="#ma685430d53" y="307.584"/>
      </g>
     </g>
     <g id="text_6">
      <!-- 500 -->
      <defs>
       <path d="M 10.796875 72.90625 
L 49.515625 72.90625 
L 49.515625 64.59375 
L 19.828125 64.59375 
L 19.828125 46.734375 
Q 21.96875 47.46875 24.109375 47.828125 
Q 26.265625 48.1875 28.421875 48.1875 
Q 40.625 48.1875 47.75 41.5 
Q 54.890625 34.8125 54.890625 23.390625 
Q 54.890625 11.625 47.5625 5.09375 
Q 40.234375 -1.421875 26.90625 -1.421875 
Q 22.3125 -1.421875 17.546875 -0.640625 
Q 12.796875 0.140625 7.71875 1.703125 
L 7.71875 11.625 
Q 12.109375 9.234375 16.796875 8.0625 
Q 21.484375 6.890625 26.703125 6.890625 
Q 35.15625 6.890625 40.078125 11.328125 
Q 45.015625 15.765625 45.015625 23.390625 
Q 45.015625 31 40.078125 35.4375 
Q 35.15625 39.890625 26.703125 39.890625 
Q 22.75 39.890625 18.8125 39.015625 
Q 14.890625 38.140625 10.796875 36.28125 
z
" id="DejaVuSans-53"/>
      </defs>
      <g transform="translate(267.452022 322.182437)scale(0.1 -0.1)">
       <use xlink:href="#DejaVuSans-53"/>
       <use x="63.623047" xlink:href="#DejaVuSans-48"/>
       <use x="127.246094" xlink:href="#DejaVuSans-48"/>
      </g>
     </g>
    </g>
    <g id="xtick_7">
     <g id="line2d_7">
      <g>
       <use style="stroke:#000000;stroke-width:0.8;" x="317.628381" xlink:href="#ma685430d53" y="307.584"/>
      </g>
     </g>
     <g id="text_7">
      <!-- 600 -->
      <defs>
       <path d="M 33.015625 40.375 
Q 26.375 40.375 22.484375 35.828125 
Q 18.609375 31.296875 18.609375 23.390625 
Q 18.609375 15.53125 22.484375 10.953125 
Q 26.375 6.390625 33.015625 6.390625 
Q 39.65625 6.390625 43.53125 10.953125 
Q 47.40625 15.53125 47.40625 23.390625 
Q 47.40625 31.296875 43.53125 35.828125 
Q 39.65625 40.375 33.015625 40.375 
z
M 52.59375 71.296875 
L 52.59375 62.3125 
Q 48.875 64.0625 45.09375 64.984375 
Q 41.3125 65.921875 37.59375 65.921875 
Q 27.828125 65.921875 22.671875 59.328125 
Q 17.53125 52.734375 16.796875 39.40625 
Q 19.671875 43.65625 24.015625 45.921875 
Q 28.375 48.1875 33.59375 48.1875 
Q 44.578125 48.1875 50.953125 41.515625 
Q 57.328125 34.859375 57.328125 23.390625 
Q 57.328125 12.15625 50.6875 5.359375 
Q 44.046875 -1.421875 33.015625 -1.421875 
Q 20.359375 -1.421875 13.671875 8.265625 
Q 6.984375 17.96875 6.984375 36.375 
Q 6.984375 53.65625 15.1875 63.9375 
Q 23.390625 74.21875 37.203125 74.21875 
Q 40.921875 74.21875 44.703125 73.484375 
Q 48.484375 72.75 52.59375 71.296875 
z
" id="DejaVuSans-54"/>
      </defs>
      <g transform="translate(308.084631 322.182437)scale(0.1 -0.1)">
       <use xlink:href="#DejaVuSans-54"/>
       <use x="63.623047" xlink:href="#DejaVuSans-48"/>
       <use x="127.246094" xlink:href="#DejaVuSans-48"/>
      </g>
     </g>
    </g>
    <g id="xtick_8">
     <g id="line2d_8">
      <g>
       <use style="stroke:#000000;stroke-width:0.8;" x="358.26099" xlink:href="#ma685430d53" y="307.584"/>
      </g>
     </g>
     <g id="text_8">
      <!-- 700 -->
      <defs>
       <path d="M 8.203125 72.90625 
L 55.078125 72.90625 
L 55.078125 68.703125 
L 28.609375 0 
L 18.3125 0 
L 43.21875 64.59375 
L 8.203125 64.59375 
z
" id="DejaVuSans-55"/>
      </defs>
      <g transform="translate(348.71724 322.182437)scale(0.1 -0.1)">
       <use xlink:href="#DejaVuSans-55"/>
       <use x="63.623047" xlink:href="#DejaVuSans-48"/>
       <use x="127.246094" xlink:href="#DejaVuSans-48"/>
      </g>
     </g>
    </g>
    <g id="xtick_9">
     <g id="line2d_9">
      <g>
       <use style="stroke:#000000;stroke-width:0.8;" x="398.893599" xlink:href="#ma685430d53" y="307.584"/>
      </g>
     </g>
     <g id="text_9">
      <!-- 800 -->
      <defs>
       <path d="M 31.78125 34.625 
Q 24.75 34.625 20.71875 30.859375 
Q 16.703125 27.09375 16.703125 20.515625 
Q 16.703125 13.921875 20.71875 10.15625 
Q 24.75 6.390625 31.78125 6.390625 
Q 38.8125 6.390625 42.859375 10.171875 
Q 46.921875 13.96875 46.921875 20.515625 
Q 46.921875 27.09375 42.890625 30.859375 
Q 38.875 34.625 31.78125 34.625 
z
M 21.921875 38.8125 
Q 15.578125 40.375 12.03125 44.71875 
Q 8.5 49.078125 8.5 55.328125 
Q 8.5 64.0625 14.71875 69.140625 
Q 20.953125 74.21875 31.78125 74.21875 
Q 42.671875 74.21875 48.875 69.140625 
Q 55.078125 64.0625 55.078125 55.328125 
Q 55.078125 49.078125 51.53125 44.71875 
Q 48 40.375 41.703125 38.8125 
Q 48.828125 37.15625 52.796875 32.3125 
Q 56.78125 27.484375 56.78125 20.515625 
Q 56.78125 9.90625 50.3125 4.234375 
Q 43.84375 -1.421875 31.78125 -1.421875 
Q 19.734375 -1.421875 13.25 4.234375 
Q 6.78125 9.90625 6.78125 20.515625 
Q 6.78125 27.484375 10.78125 32.3125 
Q 14.796875 37.15625 21.921875 38.8125 
z
M 18.3125 54.390625 
Q 18.3125 48.734375 21.84375 45.5625 
Q 25.390625 42.390625 31.78125 42.390625 
Q 38.140625 42.390625 41.71875 45.5625 
Q 45.3125 48.734375 45.3125 54.390625 
Q 45.3125 60.0625 41.71875 63.234375 
Q 38.140625 66.40625 31.78125 66.40625 
Q 25.390625 66.40625 21.84375 63.234375 
Q 18.3125 60.0625 18.3125 54.390625 
z
" id="DejaVuSans-56"/>
      </defs>
      <g transform="translate(389.349849 322.182437)scale(0.1 -0.1)">
       <use xlink:href="#DejaVuSans-56"/>
       <use x="63.623047" xlink:href="#DejaVuSans-48"/>
       <use x="127.246094" xlink:href="#DejaVuSans-48"/>
      </g>
     </g>
    </g>
   </g>
   <g id="matplotlib.axis_2">
    <g id="ytick_1">
     <g id="line2d_10">
      <defs>
       <path d="M 0 0 
L -3.5 0 
" id="m7127ca9f41" style="stroke:#000000;stroke-width:0.8;"/>
      </defs>
      <g>
       <use style="stroke:#000000;stroke-width:0.8;" x="57.6" xlink:href="#m7127ca9f41" y="291.248437"/>
      </g>
     </g>
     <g id="text_10">
      <!-- 0.00 -->
      <defs>
       <path d="M 10.6875 12.40625 
L 21 12.40625 
L 21 0 
L 10.6875 0 
z
" id="DejaVuSans-46"/>
      </defs>
      <g transform="translate(28.334375 295.047656)scale(0.1 -0.1)">
       <use xlink:href="#DejaVuSans-48"/>
       <use x="63.623047" xlink:href="#DejaVuSans-46"/>
       <use x="95.410156" xlink:href="#DejaVuSans-48"/>
       <use x="159.033203" xlink:href="#DejaVuSans-48"/>
      </g>
     </g>
    </g>
    <g id="ytick_2">
     <g id="line2d_11">
      <g>
       <use style="stroke:#000000;stroke-width:0.8;" x="57.6" xlink:href="#m7127ca9f41" y="259.749549"/>
      </g>
     </g>
     <g id="text_11">
      <!-- 0.05 -->
      <g transform="translate(28.334375 263.548768)scale(0.1 -0.1)">
       <use xlink:href="#DejaVuSans-48"/>
       <use x="63.623047" xlink:href="#DejaVuSans-46"/>
       <use x="95.410156" xlink:href="#DejaVuSans-48"/>
       <use x="159.033203" xlink:href="#DejaVuSans-53"/>
      </g>
     </g>
    </g>
    <g id="ytick_3">
     <g id="line2d_12">
      <g>
       <use style="stroke:#000000;stroke-width:0.8;" x="57.6" xlink:href="#m7127ca9f41" y="228.250661"/>
      </g>
     </g>
     <g id="text_12">
      <!-- 0.10 -->
      <g transform="translate(28.334375 232.04988)scale(0.1 -0.1)">
       <use xlink:href="#DejaVuSans-48"/>
       <use x="63.623047" xlink:href="#DejaVuSans-46"/>
       <use x="95.410156" xlink:href="#DejaVuSans-49"/>
       <use x="159.033203" xlink:href="#DejaVuSans-48"/>
      </g>
     </g>
    </g>
    <g id="ytick_4">
     <g id="line2d_13">
      <g>
       <use style="stroke:#000000;stroke-width:0.8;" x="57.6" xlink:href="#m7127ca9f41" y="196.751773"/>
      </g>
     </g>
     <g id="text_13">
      <!-- 0.15 -->
      <g transform="translate(28.334375 200.550991)scale(0.1 -0.1)">
       <use xlink:href="#DejaVuSans-48"/>
       <use x="63.623047" xlink:href="#DejaVuSans-46"/>
       <use x="95.410156" xlink:href="#DejaVuSans-49"/>
       <use x="159.033203" xlink:href="#DejaVuSans-53"/>
      </g>
     </g>
    </g>
    <g id="ytick_5">
     <g id="line2d_14">
      <g>
       <use style="stroke:#000000;stroke-width:0.8;" x="57.6" xlink:href="#m7127ca9f41" y="165.252884"/>
      </g>
     </g>
     <g id="text_14">
      <!-- 0.20 -->
      <g transform="translate(28.334375 169.052103)scale(0.1 -0.1)">
       <use xlink:href="#DejaVuSans-48"/>
       <use x="63.623047" xlink:href="#DejaVuSans-46"/>
       <use x="95.410156" xlink:href="#DejaVuSans-50"/>
       <use x="159.033203" xlink:href="#DejaVuSans-48"/>
      </g>
     </g>
    </g>
    <g id="ytick_6">
     <g id="line2d_15">
      <g>
       <use style="stroke:#000000;stroke-width:0.8;" x="57.6" xlink:href="#m7127ca9f41" y="133.753996"/>
      </g>
     </g>
     <g id="text_15">
      <!-- 0.25 -->
      <g transform="translate(28.334375 137.553215)scale(0.1 -0.1)">
       <use xlink:href="#DejaVuSans-48"/>
       <use x="63.623047" xlink:href="#DejaVuSans-46"/>
       <use x="95.410156" xlink:href="#DejaVuSans-50"/>
       <use x="159.033203" xlink:href="#DejaVuSans-53"/>
      </g>
     </g>
    </g>
    <g id="ytick_7">
     <g id="line2d_16">
      <g>
       <use style="stroke:#000000;stroke-width:0.8;" x="57.6" xlink:href="#m7127ca9f41" y="102.255108"/>
      </g>
     </g>
     <g id="text_16">
      <!-- 0.30 -->
      <g transform="translate(28.334375 106.054327)scale(0.1 -0.1)">
       <use xlink:href="#DejaVuSans-48"/>
       <use x="63.623047" xlink:href="#DejaVuSans-46"/>
       <use x="95.410156" xlink:href="#DejaVuSans-51"/>
       <use x="159.033203" xlink:href="#DejaVuSans-48"/>
      </g>
     </g>
    </g>
    <g id="ytick_8">
     <g id="line2d_17">
      <g>
       <use style="stroke:#000000;stroke-width:0.8;" x="57.6" xlink:href="#m7127ca9f41" y="70.75622"/>
      </g>
     </g>
     <g id="text_17">
      <!-- 0.35 -->
      <g transform="translate(28.334375 74.555438)scale(0.1 -0.1)">
       <use xlink:href="#DejaVuSans-48"/>
       <use x="63.623047" xlink:href="#DejaVuSans-46"/>
       <use x="95.410156" xlink:href="#DejaVuSans-51"/>
       <use x="159.033203" xlink:href="#DejaVuSans-53"/>
      </g>
     </g>
    </g>
   </g>
   <g id="line2d_18">
    <path clip-path="url(#p93a3d8432d)" d="M 73.832727 61.144881 
L 74.645379 60.784175 
L 75.458032 60.71777 
L 76.270684 60.949432 
L 77.083336 61.443358 
L 78.302314 62.50352 
L 79.927619 63.970061 
L 80.740271 64.483857 
L 81.552923 64.736399 
L 82.365575 64.68801 
L 83.178227 64.341409 
L 83.99088 63.746551 
L 85.616184 62.182476 
L 86.835162 61.084781 
L 87.647814 60.588136 
L 88.460466 60.363591 
L 89.273119 60.440384 
L 90.085771 60.807687 
L 90.898423 61.403323 
L 94.149032 64.146628 
L 94.961684 64.411946 
L 95.774336 64.383618 
L 96.586988 64.057217 
L 97.39964 63.480577 
L 99.024945 61.918448 
L 100.243923 60.819892 
L 101.056575 60.317308 
L 101.869227 60.084637 
L 102.68188 60.153372 
L 103.494532 60.508825 
L 104.307184 61.09856 
L 107.557793 63.841159 
L 108.370445 64.116027 
L 109.183097 64.093912 
L 109.995749 63.780562 
L 110.808401 63.215167 
L 112.433706 61.669585 
L 113.652684 60.572091 
L 114.465336 60.064848 
L 115.277988 59.823383 
L 116.090641 59.877258 
L 116.903293 60.214805 
L 117.715945 60.78915 
L 120.966554 63.495756 
L 121.779206 63.773058 
L 122.591858 63.75985 
L 123.40451 63.459422 
L 124.217162 62.907959 
L 125.842467 61.37601 
L 127.061445 60.273701 
L 127.874097 59.756726 
L 128.686749 59.501583 
L 129.499402 59.541124 
L 130.312054 59.867456 
L 131.124706 60.43206 
L 134.375315 63.156914 
L 135.187967 63.44701 
L 136.000619 63.446913 
L 136.813271 63.154511 
L 137.625923 62.609104 
L 139.251228 61.087382 
L 140.470206 59.98216 
L 141.282858 59.457735 
L 142.09551 59.193763 
L 142.908162 59.224004 
L 143.720815 59.54032 
L 144.533467 60.094203 
L 147.784076 62.808429 
L 148.596728 63.110036 
L 149.40938 63.123779 
L 150.222032 62.848083 
L 151.034684 62.316469 
L 152.253663 61.209558 
L 153.878967 59.701978 
L 154.691619 59.171187 
L 155.504271 58.893263 
L 156.316923 58.909064 
L 157.129576 59.213461 
L 157.942228 59.755003 
L 159.567532 61.213342 
L 160.78651 62.212507 
L 161.599163 62.653488 
L 162.411815 62.822516 
L 163.224467 62.6965 
L 164.037119 62.295886 
L 165.256097 61.301647 
L 167.694054 59.098848 
L 168.506706 58.675437 
L 169.319358 58.527201 
L 170.13201 58.666914 
L 170.944663 59.078211 
L 172.163641 60.05223 
L 174.195271 61.802801 
L 175.007924 62.246991 
L 175.820576 62.430952 
L 176.633228 62.32534 
L 177.44588 61.94127 
L 178.664858 60.965609 
L 181.102815 58.7653 
L 181.915467 58.336599 
L 182.728119 58.175464 
L 183.540771 58.306718 
L 184.353424 58.709371 
L 185.572402 59.675655 
L 187.604032 61.437889 
L 188.416684 61.892268 
L 189.229337 62.086445 
L 190.041989 61.990902 
L 190.854641 61.614992 
L 192.073619 60.660142 
L 194.511576 58.513204 
L 195.324228 58.096914 
L 196.13688 57.951505 
L 196.949532 58.097027 
L 197.762185 58.51136 
L 198.981163 59.489716 
L 201.012793 61.262789 
L 201.825445 61.724153 
L 202.638098 61.924742 
L 203.45075 61.834319 
L 204.263402 61.466225 
L 205.48238 60.509623 
L 207.920337 58.297662 
L 208.732989 57.841062 
L 209.545641 57.648835 
L 210.358293 57.744315 
L 211.170946 58.113724 
L 212.389924 59.045282 
L 214.421554 60.803297 
L 215.234206 61.275599 
L 216.046859 61.498316 
L 216.859511 61.438557 
L 217.672163 61.102454 
L 218.484815 60.531802 
L 222.14175 57.536454 
L 222.954402 57.324695 
L 223.767054 57.399496 
L 224.579706 57.740268 
L 225.798685 58.625869 
L 228.236641 60.579835 
L 229.049293 60.937022 
L 229.861946 61.033785 
L 230.674598 60.851925 
L 231.48725 60.422439 
L 232.706228 59.460913 
L 234.737859 57.763288 
L 235.550511 57.329447 
L 236.363163 57.139057 
L 237.175815 57.216349 
L 237.988467 57.545493 
L 239.207446 58.397487 
L 241.239076 60.030463 
L 242.051728 60.477558 
L 242.86438 60.691856 
L 243.677033 60.642215 
L 244.489685 60.322044 
L 245.302337 59.780059 
L 248.552946 57.142485 
L 249.365598 56.837299 
L 250.17825 56.791148 
L 250.990902 57.008997 
L 251.803554 57.45828 
L 253.428859 58.746471 
L 254.647837 59.663193 
L 255.460489 60.091076 
L 256.273141 60.289793 
L 257.085794 60.227021 
L 257.898446 59.904662 
L 259.117424 59.04746 
L 261.555381 57.003856 
L 262.368033 56.580581 
L 263.180685 56.398911 
L 263.993337 56.481383 
L 264.805989 56.814606 
L 266.024968 57.663477 
L 268.056598 59.279531 
L 268.86925 59.723241 
L 269.681902 59.941529 
L 270.494555 59.899052 
L 271.307207 59.598515 
L 272.119859 59.078512 
L 274.151489 57.337652 
L 275.370468 56.479722 
L 276.18312 56.162333 
L 276.995772 56.100362 
L 277.808424 56.298364 
L 278.621076 56.725182 
L 279.840055 57.654419 
L 281.465359 58.935106 
L 282.278011 59.386015 
L 283.090663 59.615049 
L 283.903316 59.59118 
L 284.715968 59.311794 
L 285.52862 58.8099 
L 287.153924 57.446224 
L 288.372902 56.479299 
L 289.185555 56.032051 
L 289.998207 55.814827 
L 290.810859 55.86235 
L 291.623511 56.154295 
L 292.842489 56.969937 
L 295.280446 58.830903 
L 296.093098 59.184133 
L 296.90575 59.292522 
L 297.718403 59.140732 
L 298.531055 58.757918 
L 299.750033 57.8378 
L 301.781663 56.174377 
L 302.594316 55.730998 
L 303.406968 55.514478 
L 304.21962 55.557269 
L 305.032272 55.842853 
L 306.25125 56.63582 
L 308.689207 58.489823 
L 309.501859 58.857747 
L 310.314511 58.979936 
L 311.127163 58.844975 
L 311.939816 58.473386 
L 313.158794 57.573014 
L 315.190424 55.896819 
L 316.003077 55.431093 
L 316.815729 55.191653 
L 317.628381 55.213025 
L 318.441033 55.485762 
L 319.660011 56.262321 
L 322.097968 58.111283 
L 322.91062 58.4936 
L 323.723272 58.637305 
L 324.535924 58.523158 
L 325.348577 58.174577 
L 326.567555 57.291737 
L 328.599185 55.632132 
L 329.411838 55.171484 
L 330.22449 54.935573 
L 331.037142 54.954184 
L 331.849794 55.223371 
L 333.068772 55.996985 
L 335.506729 57.850216 
L 336.319381 58.230307 
L 337.132033 58.380219 
L 337.944685 58.269391 
L 338.757338 57.912094 
L 339.976316 57.032884 
L 342.414272 55.108016 
L 343.226925 54.739742 
L 344.039577 54.621365 
L 344.852229 54.761234 
L 345.664881 55.141531 
L 346.883859 56.012251 
L 348.91549 57.55703 
L 349.728142 57.946228 
L 350.540794 58.107252 
L 351.353446 58.016271 
L 352.166099 57.662413 
L 353.385077 56.79056 
L 355.823033 54.861246 
L 356.635686 54.491651 
L 357.448338 54.362725 
L 358.26099 54.491346 
L 359.073642 54.853975 
L 360.29262 55.717162 
L 362.324251 57.264345 
L 363.136903 57.655825 
L 363.949555 57.817308 
L 364.762207 57.723445 
L 365.574859 57.381819 
L 366.793838 56.523222 
L 369.231794 54.605727 
L 370.044446 54.234575 
L 370.857099 54.101981 
L 371.669751 54.222447 
L 372.482403 54.571258 
L 373.701381 55.401018 
L 375.733012 56.892445 
L 376.545664 57.269969 
L 377.358316 57.42647 
L 378.170968 57.338209 
L 378.98362 57.024758 
L 380.202599 56.200185 
L 382.640555 54.339012 
L 383.453207 53.972055 
L 384.26586 53.845174 
L 385.078512 53.954957 
L 385.891164 54.288315 
L 387.110142 55.094889 
L 389.141773 56.554909 
L 389.954425 56.925762 
L 390.767077 57.090583 
L 391.579729 57.017133 
L 392.392381 56.709754 
L 393.61136 55.910709 
L 396.049316 54.080316 
L 396.861968 53.712394 
L 397.674621 53.568 
L 398.487273 53.662116 
L 398.487273 53.662116 
" style="fill:none;stroke:#1f77b4;stroke-linecap:square;stroke-width:1.5;"/>
   </g>
   <g id="line2d_19">
    <path clip-path="url(#p93a3d8432d)" d="M 73.832727 64.571668 
L 74.645379 64.881781 
L 75.458032 64.900607 
L 76.270684 64.623916 
L 77.083336 64.090917 
L 78.302314 62.955874 
L 79.927619 61.398611 
L 80.740271 60.838017 
L 81.552923 60.541411 
L 82.365575 60.55009 
L 83.178227 60.855709 
L 83.99088 61.409532 
L 85.616184 62.909134 
L 86.835162 63.942156 
L 87.647814 64.400505 
L 88.460466 64.590582 
L 89.273119 64.478944 
L 90.085771 64.079565 
L 91.304749 63.070217 
L 93.742706 60.808454 
L 94.555358 60.369564 
L 95.36801 60.21431 
L 96.180662 60.359387 
L 96.993314 60.783183 
L 98.212293 61.794179 
L 100.243923 63.620729 
L 101.056575 64.088469 
L 101.869227 64.287015 
L 102.68188 64.185841 
L 103.494532 63.797116 
L 104.71351 62.800741 
L 107.151467 60.547464 
L 107.964119 60.109414 
L 108.776771 59.950198 
L 109.589423 60.089222 
L 110.402075 60.504062 
L 111.621054 61.503466 
L 113.652684 63.306787 
L 114.465336 63.781803 
L 115.277988 63.979116 
L 116.090641 63.864928 
L 116.903293 63.478503 
L 118.122271 62.514765 
L 120.560228 60.28566 
L 121.37288 59.837355 
L 122.185532 59.658135 
L 122.998184 59.769829 
L 123.810836 60.152588 
L 125.029815 61.109351 
L 127.061445 62.947674 
L 127.874097 63.432572 
L 128.686749 63.654149 
L 129.499402 63.583703 
L 130.312054 63.209805 
L 131.124706 62.596371 
L 134.375315 59.712763 
L 135.187967 59.380572 
L 136.000619 59.338311 
L 136.813271 59.597783 
L 137.625923 60.095508 
L 138.844902 61.170046 
L 140.470206 62.603814 
L 141.282858 63.086845 
L 142.09551 63.304154 
L 142.908162 63.225438 
L 143.720815 62.869392 
L 144.533467 62.286489 
L 147.784076 59.448003 
L 148.596728 59.114155 
L 149.40938 59.054347 
L 150.222032 59.287697 
L 151.034684 59.768693 
L 152.253663 60.80933 
L 153.878967 62.243536 
L 154.691619 62.73544 
L 155.504271 62.970694 
L 156.316923 62.908879 
L 157.129576 62.571045 
L 157.942228 61.985073 
L 161.599163 58.917227 
L 162.411815 58.720149 
L 163.224467 58.80312 
L 164.037119 59.159861 
L 165.256097 60.082074 
L 167.694054 62.138194 
L 168.506706 62.513534 
L 169.319358 62.615394 
L 170.13201 62.425949 
L 170.944663 61.973862 
L 172.163641 60.935327 
L 174.195271 59.083491 
L 175.007924 58.602546 
L 175.820576 58.373944 
L 176.633228 58.41774 
L 177.44588 58.753612 
L 178.258532 59.326345 
L 181.509141 61.988648 
L 182.321793 62.236863 
L 183.134445 62.210973 
L 183.947098 61.889446 
L 184.75975 61.338825 
L 186.385054 59.850438 
L 187.604032 58.749276 
L 188.416684 58.241234 
L 189.229337 58.027618 
L 190.041989 58.109048 
L 190.854641 58.466908 
L 192.073619 59.387622 
L 194.511576 61.484084 
L 195.324228 61.883952 
L 196.13688 62.013577 
L 196.949532 61.843603 
L 197.762185 61.412451 
L 198.981163 60.409624 
L 201.012793 58.587827 
L 201.825445 58.100766 
L 202.638098 57.867673 
L 203.45075 57.920683 
L 204.263402 58.254161 
L 205.076054 58.810763 
L 207.920337 61.138923 
L 208.732989 61.537304 
L 209.545641 61.693338 
L 210.358293 61.550577 
L 211.170946 61.142932 
L 212.389924 60.146588 
L 214.421554 58.285818 
L 215.234206 57.774139 
L 216.046859 57.519595 
L 216.859511 57.550819 
L 217.672163 57.85104 
L 218.891141 58.714946 
L 221.329098 60.71459 
L 222.14175 61.124742 
L 222.954402 61.293269 
L 223.767054 61.119169 
L 224.579706 60.723584 
L 225.798685 59.733603 
L 228.236641 57.692565 
L 229.049293 57.313729 
L 229.861946 57.205288 
L 230.674598 57.372565 
L 231.48725 57.789224 
L 233.112554 59.067171 
L 234.737859 60.328591 
L 235.550511 60.724169 
L 236.363163 60.883077 
L 237.175815 60.770248 
L 237.988467 60.402866 
L 239.207446 59.498509 
L 241.239076 57.715845 
L 242.051728 57.215093 
L 242.86438 56.94553 
L 243.677033 56.956671 
L 244.489685 57.241212 
L 245.302337 57.744035 
L 246.927641 59.091137 
L 248.14662 60.014443 
L 248.959272 60.410956 
L 249.771924 60.561341 
L 250.584576 60.439369 
L 251.397228 60.0018 
L 253.022533 58.644315 
L 254.647837 57.313681 
L 255.460489 56.840885 
L 256.273141 56.606327 
L 257.085794 56.640395 
L 257.898446 56.930245 
L 259.117424 57.717765 
L 261.961707 59.812386 
L 262.774359 60.06621 
L 263.587011 60.074876 
L 264.399663 59.826457 
L 265.212315 59.34844 
L 266.83762 57.992406 
L 268.056598 57.026119 
L 268.86925 56.537538 
L 269.681902 56.280343 
L 270.494555 56.283873 
L 271.307207 56.546237 
L 272.526185 57.329847 
L 275.370468 59.492237 
L 276.18312 59.736865 
L 276.995772 59.750975 
L 277.808424 59.516755 
L 278.621076 59.054026 
L 280.246381 57.72961 
L 281.871685 56.482244 
L 282.684337 56.110292 
L 283.496989 55.976279 
L 284.309642 56.098039 
L 285.122294 56.452074 
L 286.341272 57.311373 
L 288.372902 58.901784 
L 289.185555 59.31281 
L 289.998207 59.477552 
L 290.810859 59.382934 
L 291.623511 59.028794 
L 292.842489 58.153854 
L 295.280446 56.183153 
L 296.093098 55.794492 
L 296.90575 55.645143 
L 297.718403 55.752747 
L 298.531055 56.111167 
L 299.750033 56.963351 
L 301.781663 58.53633 
L 302.594316 58.936305 
L 303.406968 59.120449 
L 304.21962 59.050876 
L 305.032272 58.726035 
L 306.25125 57.880588 
L 308.689207 55.915924 
L 309.501859 55.516328 
L 310.314511 55.353122 
L 311.127163 55.455016 
L 311.939816 55.78951 
L 313.158794 56.626088 
L 315.59675 58.401994 
L 316.409403 58.703226 
L 317.222055 58.771564 
L 318.034707 58.582623 
L 318.847359 58.165031 
L 320.066337 57.231893 
L 322.097968 55.613752 
L 322.91062 55.208419 
L 323.723272 55.037774 
L 324.535924 55.131872 
L 325.348577 55.462879 
L 326.567555 56.293705 
L 328.599185 57.878231 
L 329.411838 58.304568 
L 330.22449 58.507528 
L 331.037142 58.460324 
L 331.849794 58.153911 
L 333.068772 57.32907 
L 335.506729 55.375047 
L 336.319381 54.959453 
L 337.132033 54.773455 
L 337.944685 54.850038 
L 338.757338 55.173619 
L 339.976316 55.99526 
L 342.414272 57.816258 
L 343.226925 58.144331 
L 344.039577 58.231002 
L 344.852229 58.057489 
L 345.664881 57.650367 
L 346.883859 56.726792 
L 348.91549 55.103798 
L 349.728142 54.685816 
L 350.540794 54.504914 
L 351.353446 54.584958 
L 352.166099 54.904302 
L 353.385077 55.730879 
L 355.416707 57.293735 
L 356.229359 57.724326 
L 357.042012 57.938939 
L 357.854664 57.907884 
L 358.667316 57.618877 
L 359.886294 56.825201 
L 362.730577 54.630777 
L 363.543229 54.303345 
L 364.355881 54.23239 
L 365.168533 54.421681 
L 365.981186 54.848417 
L 367.200164 55.750456 
L 368.825468 56.988298 
L 369.63812 57.42802 
L 370.450773 57.653701 
L 370.857099 57.676667 
L 372.482403 57.041749 
L 373.701381 56.151327 
L 375.733012 54.566812 
L 376.545664 54.155786 
L 377.358316 53.968535 
L 378.170968 54.042261 
L 378.98362 54.344847 
L 380.202599 55.119597 
L 382.640555 56.837096 
L 383.453207 57.146461 
L 384.26586 57.24227 
L 385.078512 57.10353 
L 385.891164 56.748935 
L 387.110142 55.8945 
L 389.141773 54.3628 
L 389.954425 53.94748 
L 390.767077 53.728826 
L 391.579729 53.761139 
L 392.392381 54.034324 
L 393.61136 54.778692 
L 396.049316 56.505746 
L 396.861968 56.836345 
L 397.674621 56.943825 
L 398.487273 56.823785 
L 398.487273 56.823785 
" style="fill:none;stroke:#ff0000;stroke-linecap:square;stroke-width:1.5;"/>
   </g>
   <g id="line2d_20">
    <path clip-path="url(#p93a3d8432d)" d="M 73.832727 287.82165 
L 74.645379 287.150831 
L 75.051706 287.032355 
L 75.458032 287.065601 
L 75.864358 287.248677 
L 76.67701 288.029243 
L 77.489662 289.271857 
L 80.333945 294.413502 
L 81.146597 295.240358 
L 81.552923 295.443425 
L 81.959249 295.488 
L 82.365575 295.386357 
L 82.771901 295.130118 
L 83.584553 294.212211 
L 84.397206 292.880939 
L 86.835162 288.391062 
L 87.647814 287.436069 
L 88.05414 287.155003 
L 88.460466 287.021447 
L 88.866793 287.039982 
L 89.273119 287.209877 
L 90.085771 287.97656 
L 90.898423 289.204392 
L 93.742706 294.354832 
L 94.555358 295.194164 
L 94.961684 295.404986 
L 95.36801 295.468343 
L 95.774336 295.382576 
L 96.180662 295.143539 
L 96.993314 294.260018 
L 97.805967 292.948636 
L 100.243923 288.4476 
L 101.056575 287.477276 
L 101.462901 287.187692 
L 101.869227 287.046059 
L 102.275554 287.055491 
L 102.68188 287.215968 
L 103.494532 287.960146 
L 104.307184 289.172936 
L 107.557793 294.79311 
L 108.370445 295.371801 
L 108.776771 295.44021 
L 109.183097 295.359107 
L 109.589423 295.131555 
L 110.402075 294.269754 
L 111.214728 292.976608 
L 113.652684 288.513741 
L 114.465336 287.531482 
L 114.871662 287.240195 
L 115.277988 287.092705 
L 115.684314 287.102351 
L 116.090641 287.260767 
L 116.903293 287.984739 
L 117.715945 289.161313 
L 119.341249 292.183998 
L 120.560228 294.22378 
L 121.37288 295.076467 
L 121.779206 295.307798 
L 122.185532 295.394372 
L 122.591858 295.328005 
L 122.998184 295.123852 
L 123.810836 294.307101 
L 124.623488 293.054382 
L 127.467771 288.014691 
L 128.280423 287.261927 
L 128.686749 287.095871 
L 129.093075 287.081233 
L 129.499402 287.205859 
L 129.905728 287.481383 
L 130.71838 288.445913 
L 131.937358 290.560191 
L 133.562662 293.578516 
L 134.375315 294.692588 
L 135.187967 295.314875 
L 135.594293 295.410711 
L 136.000619 295.357039 
L 136.406945 295.150582 
L 137.219597 294.3464 
L 138.032249 293.096242 
L 140.470206 288.626783 
L 141.282858 287.619328 
L 141.689184 287.307384 
L 142.09551 287.138047 
L 142.501836 287.117367 
L 142.908162 287.247003 
L 143.314489 287.515085 
L 144.127141 288.437669 
L 144.939793 289.760573 
L 147.377749 294.105749 
L 148.190402 294.993944 
L 148.596728 295.244318 
L 149.003054 295.356622 
L 149.40938 295.317869 
L 149.815706 295.131598 
L 150.628358 294.361044 
L 151.44101 293.142041 
L 154.285293 288.142909 
L 155.097945 287.36194 
L 155.504271 287.171006 
L 155.910597 287.13795 
L 156.316923 287.248622 
L 157.129576 287.890854 
L 157.942228 289.018368 
L 159.161206 291.225893 
L 160.380184 293.43937 
L 161.192837 294.586834 
L 162.005489 295.231942 
L 162.411815 295.350804 
L 162.818141 295.31849 
L 163.224467 295.141817 
L 164.037119 294.384462 
L 164.849771 293.183376 
L 167.694054 288.209091 
L 168.506706 287.41034 
L 168.913032 287.214586 
L 169.319358 287.160244 
L 169.725684 287.25526 
L 170.13201 287.489402 
L 170.944663 288.352787 
L 171.757315 289.628763 
L 174.195271 293.967747 
L 175.007924 294.892882 
L 175.41425 295.167863 
L 175.820576 295.305445 
L 176.226902 295.291506 
L 176.633228 295.156037 
L 177.44588 294.436096 
L 178.258532 293.252659 
L 181.509141 287.78167 
L 182.321793 287.231273 
L 182.728119 287.16113 
L 183.134445 287.242462 
L 183.947098 287.835688 
L 184.75975 288.903827 
L 185.978728 291.061398 
L 187.604032 293.93705 
L 188.416684 294.899471 
L 188.823011 295.17641 
L 189.229337 295.307264 
L 189.635663 295.292008 
L 190.041989 295.130291 
L 190.854641 294.396521 
L 191.667293 293.221417 
L 194.917902 287.807527 
L 195.730554 287.251525 
L 196.13688 287.186365 
L 196.543206 287.267613 
L 196.949532 287.501861 
L 197.762185 288.347346 
L 198.574837 289.598466 
L 201.012793 293.923399 
L 201.825445 294.871825 
L 202.231772 295.15786 
L 202.638098 295.305506 
L 203.044424 295.307297 
L 203.45075 295.162073 
L 204.263402 294.460501 
L 205.076054 293.306892 
L 208.326663 287.918137 
L 209.139315 287.303583 
L 209.545641 287.203934 
L 209.951967 287.254992 
L 210.358293 287.442175 
L 211.170946 288.21923 
L 211.983598 289.428964 
L 214.82788 294.317285 
L 215.640532 295.054798 
L 216.046859 295.227159 
L 216.453185 295.25532 
L 216.859511 295.136176 
L 217.672163 294.499852 
L 218.484815 293.396493 
L 221.735424 288.036395 
L 222.548076 287.400845 
L 222.954402 287.279864 
L 223.360728 287.332321 
L 224.17338 287.820858 
L 224.986033 288.81573 
L 226.611337 291.569277 
L 227.830315 293.603393 
L 228.642967 294.561842 
L 229.45562 295.051881 
L 229.861946 295.076934 
L 230.268272 294.971692 
L 231.080924 294.362789 
L 231.893576 293.307965 
L 233.51888 290.566303 
L 234.737859 288.683134 
L 235.550511 287.853716 
L 236.363163 287.504417 
L 236.769489 287.53125 
L 237.175815 287.694539 
L 237.988467 288.391065 
L 238.80112 289.492144 
L 241.645402 294.093874 
L 242.458054 294.82706 
L 242.86438 294.994764 
L 243.270707 295.026642 
L 243.677033 294.933981 
L 244.489685 294.329269 
L 245.302337 293.284461 
L 246.521315 291.231947 
L 247.740294 289.182458 
L 248.552946 288.150295 
L 249.365598 287.566683 
L 249.771924 287.468946 
L 250.17825 287.507032 
L 250.584576 287.67713 
L 251.397228 288.455312 
L 252.616207 290.312959 
L 254.647837 293.59795 
L 255.460489 294.498628 
L 256.273141 294.931903 
L 256.679468 294.951051 
L 257.085794 294.835063 
L 257.898446 294.222854 
L 258.711098 293.193647 
L 259.930076 291.201018 
L 261.149054 289.203661 
L 261.961707 288.201645 
L 262.774359 287.639164 
L 263.180685 287.543827 
L 263.587011 287.581212 
L 263.993337 287.748702 
L 264.805989 288.45 
L 265.618641 289.552891 
L 268.462924 294.01698 
L 269.275576 294.733688 
L 269.681902 294.909623 
L 270.088228 294.953349 
L 270.494555 294.863616 
L 270.900881 294.645266 
L 271.713533 293.845098 
L 272.526185 292.677111 
L 274.964142 288.703569 
L 275.776794 287.872638 
L 276.589446 287.56526 
L 276.995772 287.597824 
L 277.402098 287.751745 
L 278.21475 288.424698 
L 279.027402 289.498682 
L 281.871685 293.951384 
L 282.684337 294.669759 
L 283.090663 294.85324 
L 283.496989 294.907639 
L 283.903316 294.835228 
L 284.715968 294.313867 
L 285.52862 293.350259 
L 286.747598 291.401214 
L 288.372902 288.825952 
L 289.185555 287.967678 
L 289.591881 287.708887 
L 289.998207 287.585712 
L 290.404533 287.587872 
L 290.810859 287.727854 
L 291.623511 288.373938 
L 292.436163 289.43068 
L 295.686772 294.323773 
L 296.499424 294.828606 
L 296.90575 294.895817 
L 297.312076 294.830801 
L 298.124729 294.324992 
L 298.937381 293.370609 
L 300.156359 291.437403 
L 301.781663 288.886484 
L 302.594316 288.04313 
L 303.406968 287.642466 
L 303.813294 287.630796 
L 304.21962 287.75483 
L 305.032272 288.365255 
L 305.844924 289.384585 
L 307.470229 292.034068 
L 308.689207 293.822337 
L 309.501859 294.589857 
L 309.908185 294.795117 
L 310.314511 294.875251 
L 310.720837 294.823675 
L 311.53349 294.33783 
L 312.346142 293.420652 
L 313.56512 291.530004 
L 315.190424 288.975832 
L 316.003077 288.092364 
L 316.815729 287.670832 
L 317.222055 287.646815 
L 317.628381 287.752102 
L 318.441033 288.333235 
L 319.253685 289.327239 
L 320.87899 291.959441 
L 322.097968 293.745968 
L 322.91062 294.533618 
L 323.316946 294.758121 
L 323.723272 294.847969 
L 324.129598 294.804718 
L 324.535924 294.639723 
L 325.348577 293.960136 
L 326.161229 292.88456 
L 329.005511 288.512042 
L 329.818164 287.832269 
L 330.22449 287.676483 
L 330.630816 287.644202 
L 331.037142 287.742298 
L 331.443468 287.966438 
L 332.25612 288.76991 
L 333.068772 289.916352 
L 335.506729 293.723606 
L 336.319381 294.519291 
L 337.132033 294.855201 
L 337.538359 294.824103 
L 337.944685 294.66779 
L 338.757338 293.986912 
L 339.56999 292.916069 
L 342.414272 288.540196 
L 343.226925 287.843849 
L 343.633251 287.676228 
L 344.039577 287.638801 
L 344.445903 287.731247 
L 345.258555 288.292936 
L 346.071207 289.282831 
L 347.696512 291.893206 
L 348.91549 293.701669 
L 349.728142 294.50885 
L 350.134468 294.750985 
L 350.540794 294.850775 
L 350.94712 294.828655 
L 351.353446 294.67975 
L 352.166099 294.006549 
L 352.978751 292.943794 
L 355.823033 288.575651 
L 356.635686 287.880709 
L 357.042012 287.704438 
L 357.448338 287.652791 
L 357.854664 287.73581 
L 358.667316 288.275499 
L 359.479968 289.22768 
L 360.698946 291.148115 
L 361.917925 293.100302 
L 362.730577 294.103814 
L 363.543229 294.713474 
L 363.949555 294.83035 
L 364.355881 294.818418 
L 364.762207 294.679335 
L 365.574859 294.017946 
L 366.387512 292.975385 
L 369.231794 288.623366 
L 370.044446 287.91201 
L 370.450773 287.731817 
L 370.857099 287.673751 
L 371.669751 288.059405 
L 372.482403 288.777947 
L 373.295055 289.870716 
L 375.733012 293.57407 
L 376.545664 294.36262 
L 377.358316 294.706372 
L 377.764642 294.690241 
L 378.577294 294.285427 
L 379.389947 293.471668 
L 380.608925 291.693815 
L 382.234229 289.229445 
L 383.046881 288.360338 
L 383.859534 287.909559 
L 384.26586 287.851342 
L 385.078512 288.099864 
L 385.891164 288.787817 
L 387.110142 290.448826 
L 389.141773 293.440547 
L 389.954425 294.22672 
L 390.767077 294.610195 
L 391.173403 294.622702 
L 391.579729 294.504431 
L 392.392381 293.923868 
L 393.205034 292.96527 
L 396.455642 288.423898 
L 397.268294 287.937486 
L 398.080947 287.920044 
L 398.487273 288.086768 
L 398.487273 288.086768 
" style="fill:none;stroke:#008000;stroke-linecap:square;stroke-width:1.5;"/>
   </g>
   <g id="patch_3">
    <path d="M 57.6 307.584 
L 57.6 41.472 
" style="fill:none;stroke:#000000;stroke-linecap:square;stroke-linejoin:miter;stroke-width:0.8;"/>
   </g>
   <g id="patch_4">
    <path d="M 414.72 307.584 
L 414.72 41.472 
" style="fill:none;stroke:#000000;stroke-linecap:square;stroke-linejoin:miter;stroke-width:0.8;"/>
   </g>
   <g id="patch_5">
    <path d="M 57.6 307.584 
L 414.72 307.584 
" style="fill:none;stroke:#000000;stroke-linecap:square;stroke-linejoin:miter;stroke-width:0.8;"/>
   </g>
   <g id="patch_6">
    <path d="M 57.6 41.472 
L 414.72 41.472 
" style="fill:none;stroke:#000000;stroke-linecap:square;stroke-linejoin:miter;stroke-width:0.8;"/>
   </g>
   <g id="legend_1">
    <g id="patch_7">
     <path d="M 351.0075 198.045187 
L 407.72 198.045187 
Q 409.72 198.045187 409.72 196.045187 
L 409.72 153.010812 
Q 409.72 151.010812 407.72 151.010812 
L 351.0075 151.010812 
Q 349.0075 151.010812 349.0075 153.010812 
L 349.0075 196.045187 
Q 349.0075 198.045187 351.0075 198.045187 
z
" style="fill:#ffffff;opacity:0.8;stroke:#cccccc;stroke-linejoin:miter;"/>
    </g>
    <g id="line2d_21">
     <path d="M 353.0075 159.10925 
L 373.0075 159.10925 
" style="fill:none;stroke:#1f77b4;stroke-linecap:square;stroke-width:1.5;"/>
    </g>
    <g id="line2d_22"/>
    <g id="text_18">
     <!-- 0-&gt;1 -->
     <defs>
      <path d="M 4.890625 31.390625 
L 31.203125 31.390625 
L 31.203125 23.390625 
L 4.890625 23.390625 
z
" id="DejaVuSans-45"/>
      <path d="M 10.59375 49.21875 
L 10.59375 58.109375 
L 73.1875 35.40625 
L 73.1875 27.296875 
L 10.59375 4.59375 
L 10.59375 13.484375 
L 60.890625 31.296875 
z
" id="DejaVuSans-62"/>
     </defs>
     <g transform="translate(381.0075 162.60925)scale(0.1 -0.1)">
      <use xlink:href="#DejaVuSans-48"/>
      <use x="63.623047" xlink:href="#DejaVuSans-45"/>
      <use x="99.707031" xlink:href="#DejaVuSans-62"/>
      <use x="183.496094" xlink:href="#DejaVuSans-49"/>
     </g>
    </g>
    <g id="line2d_23">
     <path d="M 353.0075 173.787375 
L 373.0075 173.787375 
" style="fill:none;stroke:#ff0000;stroke-linecap:square;stroke-width:1.5;"/>
    </g>
    <g id="line2d_24"/>
    <g id="text_19">
     <!-- 1-&gt;0 -->
     <g transform="translate(381.0075 177.287375)scale(0.1 -0.1)">
      <use xlink:href="#DejaVuSans-49"/>
      <use x="63.623047" xlink:href="#DejaVuSans-45"/>
      <use x="99.707031" xlink:href="#DejaVuSans-62"/>
      <use x="183.496094" xlink:href="#DejaVuSans-48"/>
     </g>
    </g>
    <g id="line2d_25">
     <path d="M 353.0075 188.4655 
L 373.0075 188.4655 
" style="fill:none;stroke:#008000;stroke-linecap:square;stroke-width:1.5;"/>
    </g>
    <g id="line2d_26"/>
    <g id="text_20">
     <!-- diff -->
     <defs>
      <path d="M 45.40625 46.390625 
L 45.40625 75.984375 
L 54.390625 75.984375 
L 54.390625 0 
L 45.40625 0 
L 45.40625 8.203125 
Q 42.578125 3.328125 38.25 0.953125 
Q 33.9375 -1.421875 27.875 -1.421875 
Q 17.96875 -1.421875 11.734375 6.484375 
Q 5.515625 14.40625 5.515625 27.296875 
Q 5.515625 40.1875 11.734375 48.09375 
Q 17.96875 56 27.875 56 
Q 33.9375 56 38.25 53.625 
Q 42.578125 51.265625 45.40625 46.390625 
z
M 14.796875 27.296875 
Q 14.796875 17.390625 18.875 11.75 
Q 22.953125 6.109375 30.078125 6.109375 
Q 37.203125 6.109375 41.296875 11.75 
Q 45.40625 17.390625 45.40625 27.296875 
Q 45.40625 37.203125 41.296875 42.84375 
Q 37.203125 48.484375 30.078125 48.484375 
Q 22.953125 48.484375 18.875 42.84375 
Q 14.796875 37.203125 14.796875 27.296875 
z
" id="DejaVuSans-100"/>
      <path d="M 9.421875 54.6875 
L 18.40625 54.6875 
L 18.40625 0 
L 9.421875 0 
z
M 9.421875 75.984375 
L 18.40625 75.984375 
L 18.40625 64.59375 
L 9.421875 64.59375 
z
" id="DejaVuSans-105"/>
      <path d="M 37.109375 75.984375 
L 37.109375 68.5 
L 28.515625 68.5 
Q 23.6875 68.5 21.796875 66.546875 
Q 19.921875 64.59375 19.921875 59.515625 
L 19.921875 54.6875 
L 34.71875 54.6875 
L 34.71875 47.703125 
L 19.921875 47.703125 
L 19.921875 0 
L 10.890625 0 
L 10.890625 47.703125 
L 2.296875 47.703125 
L 2.296875 54.6875 
L 10.890625 54.6875 
L 10.890625 58.5 
Q 10.890625 67.625 15.140625 71.796875 
Q 19.390625 75.984375 28.609375 75.984375 
z
" id="DejaVuSans-102"/>
     </defs>
     <g transform="translate(381.0075 191.9655)scale(0.1 -0.1)">
      <use xlink:href="#DejaVuSans-100"/>
      <use x="63.476562" xlink:href="#DejaVuSans-105"/>
      <use x="91.259766" xlink:href="#DejaVuSans-102"/>
      <use x="126.464844" xlink:href="#DejaVuSans-102"/>
     </g>
    </g>
   </g>
  </g>
 </g>
 <defs>
  <clipPath id="p93a3d8432d">
   <rect height="266.112" width="357.12" x="57.6" y="41.472"/>
  </clipPath>
 </defs>
</svg>
