<?xml version="1.0" encoding="utf-8" standalone="no"?>
<!DOCTYPE svg PUBLIC "-//W3C//DTD SVG 1.1//EN"
  "http://www.w3.org/Graphics/SVG/1.1/DTD/svg11.dtd">
<!-- Created with matplotlib (https://matplotlib.org/) -->
<svg height="345.6pt" version="1.1" viewBox="0 0 460.8 345.6" width="460.8pt" xmlns="http://www.w3.org/2000/svg" xmlns:xlink="http://www.w3.org/1999/xlink">
 <defs>
  <style type="text/css">
*{stroke-linecap:butt;stroke-linejoin:round;}
  </style>
 </defs>
 <g id="figure_1">
  <g id="patch_1">
   <path d="M 0 345.6 
L 460.8 345.6 
L 460.8 0 
L 0 0 
z
" style="fill:#ffffff;"/>
  </g>
  <g id="axes_1">
   <g id="patch_2">
    <path d="M 57.6 307.584 
L 414.72 307.584 
L 414.72 41.472 
L 57.6 41.472 
z
" style="fill:#ffffff;"/>
   </g>
   <g id="matplotlib.axis_1">
    <g id="xtick_1">
     <g id="line2d_1">
      <defs>
       <path d="M 0 0 
L 0 3.5 
" id="ma2ee2c8d78" style="stroke:#000000;stroke-width:0.8;"/>
      </defs>
      <g>
       <use style="stroke:#000000;stroke-width:0.8;" x="73.832727" xlink:href="#ma2ee2c8d78" y="307.584"/>
      </g>
     </g>
     <g id="text_1">
      <!-- 0 -->
      <defs>
       <path d="M 31.78125 66.40625 
Q 24.171875 66.40625 20.328125 58.90625 
Q 16.5 51.421875 16.5 36.375 
Q 16.5 21.390625 20.328125 13.890625 
Q 24.171875 6.390625 31.78125 6.390625 
Q 39.453125 6.390625 43.28125 13.890625 
Q 47.125 21.390625 47.125 36.375 
Q 47.125 51.421875 43.28125 58.90625 
Q 39.453125 66.40625 31.78125 66.40625 
z
M 31.78125 74.21875 
Q 44.046875 74.21875 50.515625 64.515625 
Q 56.984375 54.828125 56.984375 36.375 
Q 56.984375 17.96875 50.515625 8.265625 
Q 44.046875 -1.421875 31.78125 -1.421875 
Q 19.53125 -1.421875 13.0625 8.265625 
Q 6.59375 17.96875 6.59375 36.375 
Q 6.59375 54.828125 13.0625 64.515625 
Q 19.53125 74.21875 31.78125 74.21875 
z
" id="DejaVuSans-48"/>
      </defs>
      <g transform="translate(70.651477 322.182437)scale(0.1 -0.1)">
       <use xlink:href="#DejaVuSans-48"/>
      </g>
     </g>
    </g>
    <g id="xtick_2">
     <g id="line2d_2">
      <g>
       <use style="stroke:#000000;stroke-width:0.8;" x="114.465336" xlink:href="#ma2ee2c8d78" y="307.584"/>
      </g>
     </g>
     <g id="text_2">
      <!-- 100 -->
      <defs>
       <path d="M 12.40625 8.296875 
L 28.515625 8.296875 
L 28.515625 63.921875 
L 10.984375 60.40625 
L 10.984375 69.390625 
L 28.421875 72.90625 
L 38.28125 72.90625 
L 38.28125 8.296875 
L 54.390625 8.296875 
L 54.390625 0 
L 12.40625 0 
z
" id="DejaVuSans-49"/>
      </defs>
      <g transform="translate(104.921586 322.182437)scale(0.1 -0.1)">
       <use xlink:href="#DejaVuSans-49"/>
       <use x="63.623047" xlink:href="#DejaVuSans-48"/>
       <use x="127.246094" xlink:href="#DejaVuSans-48"/>
      </g>
     </g>
    </g>
    <g id="xtick_3">
     <g id="line2d_3">
      <g>
       <use style="stroke:#000000;stroke-width:0.8;" x="155.097945" xlink:href="#ma2ee2c8d78" y="307.584"/>
      </g>
     </g>
     <g id="text_3">
      <!-- 200 -->
      <defs>
       <path d="M 19.1875 8.296875 
L 53.609375 8.296875 
L 53.609375 0 
L 7.328125 0 
L 7.328125 8.296875 
Q 12.9375 14.109375 22.625 23.890625 
Q 32.328125 33.6875 34.8125 36.53125 
Q 39.546875 41.84375 41.421875 45.53125 
Q 43.3125 49.21875 43.3125 52.78125 
Q 43.3125 58.59375 39.234375 62.25 
Q 35.15625 65.921875 28.609375 65.921875 
Q 23.96875 65.921875 18.8125 64.3125 
Q 13.671875 62.703125 7.8125 59.421875 
L 7.8125 69.390625 
Q 13.765625 71.78125 18.9375 73 
Q 24.125 74.21875 28.421875 74.21875 
Q 39.75 74.21875 46.484375 68.546875 
Q 53.21875 62.890625 53.21875 53.421875 
Q 53.21875 48.921875 51.53125 44.890625 
Q 49.859375 40.875 45.40625 35.40625 
Q 44.1875 33.984375 37.640625 27.21875 
Q 31.109375 20.453125 19.1875 8.296875 
z
" id="DejaVuSans-50"/>
      </defs>
      <g transform="translate(145.554195 322.182437)scale(0.1 -0.1)">
       <use xlink:href="#DejaVuSans-50"/>
       <use x="63.623047" xlink:href="#DejaVuSans-48"/>
       <use x="127.246094" xlink:href="#DejaVuSans-48"/>
      </g>
     </g>
    </g>
    <g id="xtick_4">
     <g id="line2d_4">
      <g>
       <use style="stroke:#000000;stroke-width:0.8;" x="195.730554" xlink:href="#ma2ee2c8d78" y="307.584"/>
      </g>
     </g>
     <g id="text_4">
      <!-- 300 -->
      <defs>
       <path d="M 40.578125 39.3125 
Q 47.65625 37.796875 51.625 33 
Q 55.609375 28.21875 55.609375 21.1875 
Q 55.609375 10.40625 48.1875 4.484375 
Q 40.765625 -1.421875 27.09375 -1.421875 
Q 22.515625 -1.421875 17.65625 -0.515625 
Q 12.796875 0.390625 7.625 2.203125 
L 7.625 11.71875 
Q 11.71875 9.328125 16.59375 8.109375 
Q 21.484375 6.890625 26.8125 6.890625 
Q 36.078125 6.890625 40.9375 10.546875 
Q 45.796875 14.203125 45.796875 21.1875 
Q 45.796875 27.640625 41.28125 31.265625 
Q 36.765625 34.90625 28.71875 34.90625 
L 20.21875 34.90625 
L 20.21875 43.015625 
L 29.109375 43.015625 
Q 36.375 43.015625 40.234375 45.921875 
Q 44.09375 48.828125 44.09375 54.296875 
Q 44.09375 59.90625 40.109375 62.90625 
Q 36.140625 65.921875 28.71875 65.921875 
Q 24.65625 65.921875 20.015625 65.03125 
Q 15.375 64.15625 9.8125 62.3125 
L 9.8125 71.09375 
Q 15.4375 72.65625 20.34375 73.4375 
Q 25.25 74.21875 29.59375 74.21875 
Q 40.828125 74.21875 47.359375 69.109375 
Q 53.90625 64.015625 53.90625 55.328125 
Q 53.90625 49.265625 50.4375 45.09375 
Q 46.96875 40.921875 40.578125 39.3125 
z
" id="DejaVuSans-51"/>
      </defs>
      <g transform="translate(186.186804 322.182437)scale(0.1 -0.1)">
       <use xlink:href="#DejaVuSans-51"/>
       <use x="63.623047" xlink:href="#DejaVuSans-48"/>
       <use x="127.246094" xlink:href="#DejaVuSans-48"/>
      </g>
     </g>
    </g>
    <g id="xtick_5">
     <g id="line2d_5">
      <g>
       <use style="stroke:#000000;stroke-width:0.8;" x="236.363163" xlink:href="#ma2ee2c8d78" y="307.584"/>
      </g>
     </g>
     <g id="text_5">
      <!-- 400 -->
      <defs>
       <path d="M 37.796875 64.3125 
L 12.890625 25.390625 
L 37.796875 25.390625 
z
M 35.203125 72.90625 
L 47.609375 72.90625 
L 47.609375 25.390625 
L 58.015625 25.390625 
L 58.015625 17.1875 
L 47.609375 17.1875 
L 47.609375 0 
L 37.796875 0 
L 37.796875 17.1875 
L 4.890625 17.1875 
L 4.890625 26.703125 
z
" id="DejaVuSans-52"/>
      </defs>
      <g transform="translate(226.819413 322.182437)scale(0.1 -0.1)">
       <use xlink:href="#DejaVuSans-52"/>
       <use x="63.623047" xlink:href="#DejaVuSans-48"/>
       <use x="127.246094" xlink:href="#DejaVuSans-48"/>
      </g>
     </g>
    </g>
    <g id="xtick_6">
     <g id="line2d_6">
      <g>
       <use style="stroke:#000000;stroke-width:0.8;" x="276.995772" xlink:href="#ma2ee2c8d78" y="307.584"/>
      </g>
     </g>
     <g id="text_6">
      <!-- 500 -->
      <defs>
       <path d="M 10.796875 72.90625 
L 49.515625 72.90625 
L 49.515625 64.59375 
L 19.828125 64.59375 
L 19.828125 46.734375 
Q 21.96875 47.46875 24.109375 47.828125 
Q 26.265625 48.1875 28.421875 48.1875 
Q 40.625 48.1875 47.75 41.5 
Q 54.890625 34.8125 54.890625 23.390625 
Q 54.890625 11.625 47.5625 5.09375 
Q 40.234375 -1.421875 26.90625 -1.421875 
Q 22.3125 -1.421875 17.546875 -0.640625 
Q 12.796875 0.140625 7.71875 1.703125 
L 7.71875 11.625 
Q 12.109375 9.234375 16.796875 8.0625 
Q 21.484375 6.890625 26.703125 6.890625 
Q 35.15625 6.890625 40.078125 11.328125 
Q 45.015625 15.765625 45.015625 23.390625 
Q 45.015625 31 40.078125 35.4375 
Q 35.15625 39.890625 26.703125 39.890625 
Q 22.75 39.890625 18.8125 39.015625 
Q 14.890625 38.140625 10.796875 36.28125 
z
" id="DejaVuSans-53"/>
      </defs>
      <g transform="translate(267.452022 322.182437)scale(0.1 -0.1)">
       <use xlink:href="#DejaVuSans-53"/>
       <use x="63.623047" xlink:href="#DejaVuSans-48"/>
       <use x="127.246094" xlink:href="#DejaVuSans-48"/>
      </g>
     </g>
    </g>
    <g id="xtick_7">
     <g id="line2d_7">
      <g>
       <use style="stroke:#000000;stroke-width:0.8;" x="317.628381" xlink:href="#ma2ee2c8d78" y="307.584"/>
      </g>
     </g>
     <g id="text_7">
      <!-- 600 -->
      <defs>
       <path d="M 33.015625 40.375 
Q 26.375 40.375 22.484375 35.828125 
Q 18.609375 31.296875 18.609375 23.390625 
Q 18.609375 15.53125 22.484375 10.953125 
Q 26.375 6.390625 33.015625 6.390625 
Q 39.65625 6.390625 43.53125 10.953125 
Q 47.40625 15.53125 47.40625 23.390625 
Q 47.40625 31.296875 43.53125 35.828125 
Q 39.65625 40.375 33.015625 40.375 
z
M 52.59375 71.296875 
L 52.59375 62.3125 
Q 48.875 64.0625 45.09375 64.984375 
Q 41.3125 65.921875 37.59375 65.921875 
Q 27.828125 65.921875 22.671875 59.328125 
Q 17.53125 52.734375 16.796875 39.40625 
Q 19.671875 43.65625 24.015625 45.921875 
Q 28.375 48.1875 33.59375 48.1875 
Q 44.578125 48.1875 50.953125 41.515625 
Q 57.328125 34.859375 57.328125 23.390625 
Q 57.328125 12.15625 50.6875 5.359375 
Q 44.046875 -1.421875 33.015625 -1.421875 
Q 20.359375 -1.421875 13.671875 8.265625 
Q 6.984375 17.96875 6.984375 36.375 
Q 6.984375 53.65625 15.1875 63.9375 
Q 23.390625 74.21875 37.203125 74.21875 
Q 40.921875 74.21875 44.703125 73.484375 
Q 48.484375 72.75 52.59375 71.296875 
z
" id="DejaVuSans-54"/>
      </defs>
      <g transform="translate(308.084631 322.182437)scale(0.1 -0.1)">
       <use xlink:href="#DejaVuSans-54"/>
       <use x="63.623047" xlink:href="#DejaVuSans-48"/>
       <use x="127.246094" xlink:href="#DejaVuSans-48"/>
      </g>
     </g>
    </g>
    <g id="xtick_8">
     <g id="line2d_8">
      <g>
       <use style="stroke:#000000;stroke-width:0.8;" x="358.26099" xlink:href="#ma2ee2c8d78" y="307.584"/>
      </g>
     </g>
     <g id="text_8">
      <!-- 700 -->
      <defs>
       <path d="M 8.203125 72.90625 
L 55.078125 72.90625 
L 55.078125 68.703125 
L 28.609375 0 
L 18.3125 0 
L 43.21875 64.59375 
L 8.203125 64.59375 
z
" id="DejaVuSans-55"/>
      </defs>
      <g transform="translate(348.71724 322.182437)scale(0.1 -0.1)">
       <use xlink:href="#DejaVuSans-55"/>
       <use x="63.623047" xlink:href="#DejaVuSans-48"/>
       <use x="127.246094" xlink:href="#DejaVuSans-48"/>
      </g>
     </g>
    </g>
    <g id="xtick_9">
     <g id="line2d_9">
      <g>
       <use style="stroke:#000000;stroke-width:0.8;" x="398.893599" xlink:href="#ma2ee2c8d78" y="307.584"/>
      </g>
     </g>
     <g id="text_9">
      <!-- 800 -->
      <defs>
       <path d="M 31.78125 34.625 
Q 24.75 34.625 20.71875 30.859375 
Q 16.703125 27.09375 16.703125 20.515625 
Q 16.703125 13.921875 20.71875 10.15625 
Q 24.75 6.390625 31.78125 6.390625 
Q 38.8125 6.390625 42.859375 10.171875 
Q 46.921875 13.96875 46.921875 20.515625 
Q 46.921875 27.09375 42.890625 30.859375 
Q 38.875 34.625 31.78125 34.625 
z
M 21.921875 38.8125 
Q 15.578125 40.375 12.03125 44.71875 
Q 8.5 49.078125 8.5 55.328125 
Q 8.5 64.0625 14.71875 69.140625 
Q 20.953125 74.21875 31.78125 74.21875 
Q 42.671875 74.21875 48.875 69.140625 
Q 55.078125 64.0625 55.078125 55.328125 
Q 55.078125 49.078125 51.53125 44.71875 
Q 48 40.375 41.703125 38.8125 
Q 48.828125 37.15625 52.796875 32.3125 
Q 56.78125 27.484375 56.78125 20.515625 
Q 56.78125 9.90625 50.3125 4.234375 
Q 43.84375 -1.421875 31.78125 -1.421875 
Q 19.734375 -1.421875 13.25 4.234375 
Q 6.78125 9.90625 6.78125 20.515625 
Q 6.78125 27.484375 10.78125 32.3125 
Q 14.796875 37.15625 21.921875 38.8125 
z
M 18.3125 54.390625 
Q 18.3125 48.734375 21.84375 45.5625 
Q 25.390625 42.390625 31.78125 42.390625 
Q 38.140625 42.390625 41.71875 45.5625 
Q 45.3125 48.734375 45.3125 54.390625 
Q 45.3125 60.0625 41.71875 63.234375 
Q 38.140625 66.40625 31.78125 66.40625 
Q 25.390625 66.40625 21.84375 63.234375 
Q 18.3125 60.0625 18.3125 54.390625 
z
" id="DejaVuSans-56"/>
      </defs>
      <g transform="translate(389.349849 322.182437)scale(0.1 -0.1)">
       <use xlink:href="#DejaVuSans-56"/>
       <use x="63.623047" xlink:href="#DejaVuSans-48"/>
       <use x="127.246094" xlink:href="#DejaVuSans-48"/>
      </g>
     </g>
    </g>
   </g>
   <g id="matplotlib.axis_2">
    <g id="ytick_1">
     <g id="line2d_10">
      <defs>
       <path d="M 0 0 
L -3.5 0 
" id="m604e447976" style="stroke:#000000;stroke-width:0.8;"/>
      </defs>
      <g>
       <use style="stroke:#000000;stroke-width:0.8;" x="57.6" xlink:href="#m604e447976" y="292.073889"/>
      </g>
     </g>
     <g id="text_10">
      <!-- 0.00 -->
      <defs>
       <path d="M 10.6875 12.40625 
L 21 12.40625 
L 21 0 
L 10.6875 0 
z
" id="DejaVuSans-46"/>
      </defs>
      <g transform="translate(28.334375 295.873108)scale(0.1 -0.1)">
       <use xlink:href="#DejaVuSans-48"/>
       <use x="63.623047" xlink:href="#DejaVuSans-46"/>
       <use x="95.410156" xlink:href="#DejaVuSans-48"/>
       <use x="159.033203" xlink:href="#DejaVuSans-48"/>
      </g>
     </g>
    </g>
    <g id="ytick_2">
     <g id="line2d_11">
      <g>
       <use style="stroke:#000000;stroke-width:0.8;" x="57.6" xlink:href="#m604e447976" y="261.461664"/>
      </g>
     </g>
     <g id="text_11">
      <!-- 0.05 -->
      <g transform="translate(28.334375 265.260882)scale(0.1 -0.1)">
       <use xlink:href="#DejaVuSans-48"/>
       <use x="63.623047" xlink:href="#DejaVuSans-46"/>
       <use x="95.410156" xlink:href="#DejaVuSans-48"/>
       <use x="159.033203" xlink:href="#DejaVuSans-53"/>
      </g>
     </g>
    </g>
    <g id="ytick_3">
     <g id="line2d_12">
      <g>
       <use style="stroke:#000000;stroke-width:0.8;" x="57.6" xlink:href="#m604e447976" y="230.849438"/>
      </g>
     </g>
     <g id="text_12">
      <!-- 0.10 -->
      <g transform="translate(28.334375 234.648657)scale(0.1 -0.1)">
       <use xlink:href="#DejaVuSans-48"/>
       <use x="63.623047" xlink:href="#DejaVuSans-46"/>
       <use x="95.410156" xlink:href="#DejaVuSans-49"/>
       <use x="159.033203" xlink:href="#DejaVuSans-48"/>
      </g>
     </g>
    </g>
    <g id="ytick_4">
     <g id="line2d_13">
      <g>
       <use style="stroke:#000000;stroke-width:0.8;" x="57.6" xlink:href="#m604e447976" y="200.237213"/>
      </g>
     </g>
     <g id="text_13">
      <!-- 0.15 -->
      <g transform="translate(28.334375 204.036432)scale(0.1 -0.1)">
       <use xlink:href="#DejaVuSans-48"/>
       <use x="63.623047" xlink:href="#DejaVuSans-46"/>
       <use x="95.410156" xlink:href="#DejaVuSans-49"/>
       <use x="159.033203" xlink:href="#DejaVuSans-53"/>
      </g>
     </g>
    </g>
    <g id="ytick_5">
     <g id="line2d_14">
      <g>
       <use style="stroke:#000000;stroke-width:0.8;" x="57.6" xlink:href="#m604e447976" y="169.624988"/>
      </g>
     </g>
     <g id="text_14">
      <!-- 0.20 -->
      <g transform="translate(28.334375 173.424207)scale(0.1 -0.1)">
       <use xlink:href="#DejaVuSans-48"/>
       <use x="63.623047" xlink:href="#DejaVuSans-46"/>
       <use x="95.410156" xlink:href="#DejaVuSans-50"/>
       <use x="159.033203" xlink:href="#DejaVuSans-48"/>
      </g>
     </g>
    </g>
    <g id="ytick_6">
     <g id="line2d_15">
      <g>
       <use style="stroke:#000000;stroke-width:0.8;" x="57.6" xlink:href="#m604e447976" y="139.012763"/>
      </g>
     </g>
     <g id="text_15">
      <!-- 0.25 -->
      <g transform="translate(28.334375 142.811981)scale(0.1 -0.1)">
       <use xlink:href="#DejaVuSans-48"/>
       <use x="63.623047" xlink:href="#DejaVuSans-46"/>
       <use x="95.410156" xlink:href="#DejaVuSans-50"/>
       <use x="159.033203" xlink:href="#DejaVuSans-53"/>
      </g>
     </g>
    </g>
    <g id="ytick_7">
     <g id="line2d_16">
      <g>
       <use style="stroke:#000000;stroke-width:0.8;" x="57.6" xlink:href="#m604e447976" y="108.400537"/>
      </g>
     </g>
     <g id="text_16">
      <!-- 0.30 -->
      <g transform="translate(28.334375 112.199756)scale(0.1 -0.1)">
       <use xlink:href="#DejaVuSans-48"/>
       <use x="63.623047" xlink:href="#DejaVuSans-46"/>
       <use x="95.410156" xlink:href="#DejaVuSans-51"/>
       <use x="159.033203" xlink:href="#DejaVuSans-48"/>
      </g>
     </g>
    </g>
    <g id="ytick_8">
     <g id="line2d_17">
      <g>
       <use style="stroke:#000000;stroke-width:0.8;" x="57.6" xlink:href="#m604e447976" y="77.788312"/>
      </g>
     </g>
     <g id="text_17">
      <!-- 0.35 -->
      <g transform="translate(28.334375 81.587531)scale(0.1 -0.1)">
       <use xlink:href="#DejaVuSans-48"/>
       <use x="63.623047" xlink:href="#DejaVuSans-46"/>
       <use x="95.410156" xlink:href="#DejaVuSans-51"/>
       <use x="159.033203" xlink:href="#DejaVuSans-53"/>
      </g>
     </g>
    </g>
    <g id="ytick_9">
     <g id="line2d_18">
      <g>
       <use style="stroke:#000000;stroke-width:0.8;" x="57.6" xlink:href="#m604e447976" y="47.176087"/>
      </g>
     </g>
     <g id="text_18">
      <!-- 0.40 -->
      <g transform="translate(28.334375 50.975305)scale(0.1 -0.1)">
       <use xlink:href="#DejaVuSans-48"/>
       <use x="63.623047" xlink:href="#DejaVuSans-46"/>
       <use x="95.410156" xlink:href="#DejaVuSans-52"/>
       <use x="159.033203" xlink:href="#DejaVuSans-48"/>
      </g>
     </g>
    </g>
   </g>
   <g id="line2d_19">
    <path clip-path="url(#pea21fa883a)" d="M 73.832727 61.301907 
L 75.051706 61.979549 
L 77.895988 63.918616 
L 78.70864 64.205683 
L 79.521293 64.274528 
L 80.333945 64.11143 
L 81.146597 63.727737 
L 82.365575 62.869613 
L 84.397206 61.390606 
L 85.209858 61.016952 
L 86.02251 60.859654 
L 86.835162 60.938608 
L 87.647814 61.240402 
L 88.866793 62.003076 
L 90.898423 63.442297 
L 91.711075 63.82436 
L 92.523727 63.999537 
L 93.33638 63.937722 
L 94.149032 63.643229 
L 95.36801 62.862378 
L 97.805967 61.027051 
L 98.618619 60.644037 
L 99.431271 60.484754 
L 100.243923 60.561531 
L 101.056575 60.861922 
L 102.275554 61.63204 
L 104.307184 63.057664 
L 105.119836 63.439479 
L 105.932488 63.615293 
L 106.745141 63.561701 
L 107.557793 63.26866 
L 108.776771 62.496016 
L 111.214728 60.685819 
L 112.02738 60.304995 
L 112.840032 60.13644 
L 113.652684 60.202059 
L 114.465336 60.4822 
L 115.684314 61.235331 
L 118.122271 62.896284 
L 118.934923 63.193863 
L 119.747575 63.2693 
L 120.560228 63.108836 
L 121.37288 62.733956 
L 122.591858 61.886123 
L 124.623488 60.384022 
L 125.436141 59.996875 
L 126.248793 59.82603 
L 127.061445 59.874025 
L 127.874097 60.145136 
L 129.093075 60.878701 
L 131.531032 62.551962 
L 132.343684 62.869816 
L 133.156336 62.964669 
L 133.968989 62.813718 
L 134.781641 62.446255 
L 136.000619 61.607998 
L 138.032249 60.074874 
L 138.844902 59.666089 
L 139.657554 59.46917 
L 140.470206 59.505486 
L 141.282858 59.776541 
L 142.501836 60.51424 
L 144.939793 62.226678 
L 145.752445 62.559712 
L 146.565097 62.670607 
L 147.377749 62.54236 
L 148.190402 62.190144 
L 149.40938 61.345881 
L 151.44101 59.79056 
L 152.253663 59.369642 
L 153.066315 59.162187 
L 153.878967 59.194833 
L 154.691619 59.460924 
L 155.910597 60.196558 
L 158.348554 61.922476 
L 159.161206 62.258676 
L 159.973858 62.37163 
L 160.78651 62.243314 
L 161.599163 61.888738 
L 162.818141 61.040953 
L 164.849771 59.466747 
L 165.662423 59.03437 
L 166.475076 58.815127 
L 167.287728 58.837166 
L 168.10038 59.095021 
L 169.319358 59.820997 
L 171.757315 61.565285 
L 172.569967 61.92143 
L 173.382619 62.056448 
L 174.195271 61.949257 
L 175.007924 61.610796 
L 176.226902 60.782884 
L 178.664858 58.969024 
L 179.477511 58.625163 
L 180.290163 58.510295 
L 181.102815 58.639722 
L 181.915467 58.991366 
L 183.134445 59.816357 
L 185.166076 61.266292 
L 185.978728 61.625814 
L 186.79138 61.767267 
L 187.604032 61.662312 
L 188.416684 61.329549 
L 189.635663 60.503517 
L 192.073619 58.668299 
L 192.886271 58.317188 
L 193.698924 58.198647 
L 194.511576 58.3185 
L 195.324228 58.660251 
L 196.543206 59.456682 
L 198.574837 60.894466 
L 199.387489 61.255707 
L 200.200141 61.399334 
L 201.012793 61.302803 
L 201.825445 60.977755 
L 203.044424 60.168741 
L 205.48238 58.333805 
L 206.295032 57.973051 
L 207.107685 57.841031 
L 207.920337 57.952209 
L 208.732989 58.285377 
L 209.951967 59.088534 
L 211.983598 60.532238 
L 212.79625 60.89706 
L 213.608902 61.04868 
L 214.421554 60.959238 
L 215.234206 60.640916 
L 216.453185 59.839352 
L 218.891141 58.029845 
L 219.703793 57.671757 
L 220.516446 57.531763 
L 221.329098 57.639522 
L 222.14175 57.967536 
L 223.360728 58.756405 
L 225.392359 60.180623 
L 226.205011 60.539508 
L 227.017663 60.684722 
L 227.830315 60.593997 
L 228.642967 60.271888 
L 229.861946 59.468803 
L 232.299902 57.681972 
L 233.112554 57.334674 
L 233.925207 57.208648 
L 234.737859 57.317523 
L 235.550511 57.643193 
L 236.769489 58.420533 
L 238.80112 59.817382 
L 239.613772 60.17652 
L 240.426424 60.32608 
L 241.239076 60.234051 
L 242.051728 59.914653 
L 243.270707 59.119427 
L 245.708663 57.339899 
L 246.521315 56.987367 
L 247.333967 56.851082 
L 248.14662 56.947806 
L 248.959272 57.258117 
L 250.17825 58.027096 
L 252.209881 59.428323 
L 253.022533 59.789497 
L 253.835185 59.944121 
L 254.647837 59.865599 
L 255.460489 59.56383 
L 256.679468 58.787116 
L 259.117424 57.009032 
L 259.930076 56.651654 
L 260.742728 56.511651 
L 261.555381 56.606363 
L 262.368033 56.919578 
L 263.587011 57.68782 
L 265.618641 59.104241 
L 266.431294 59.476171 
L 267.243946 59.641474 
L 268.056598 59.572999 
L 268.86925 59.277431 
L 270.088228 58.501544 
L 272.526185 56.71594 
L 273.338837 56.351533 
L 274.151489 56.202232 
L 274.964142 56.285837 
L 275.776794 56.587145 
L 276.995772 57.334882 
L 279.027402 58.760746 
L 279.840055 59.141973 
L 280.652707 59.317008 
L 281.465359 59.258031 
L 282.278011 58.972662 
L 283.496989 58.196402 
L 285.52862 56.634198 
L 286.747598 56.037266 
L 287.56025 55.885776 
L 288.372902 55.968288 
L 289.185555 56.266516 
L 290.404533 57.014013 
L 292.436163 58.431753 
L 293.248816 58.809064 
L 294.061468 58.985134 
L 294.87412 58.932726 
L 295.686772 58.64939 
L 296.90575 57.908409 
L 299.343707 56.113903 
L 300.156359 55.734989 
L 300.969011 55.571153 
L 301.781663 55.63755 
L 302.594316 55.935021 
L 303.813294 56.694294 
L 305.844924 58.105206 
L 306.657577 58.486156 
L 307.470229 58.666385 
L 308.282881 58.616131 
L 309.095533 58.342672 
L 310.314511 57.596629 
L 313.158794 55.619332 
L 313.971446 55.341449 
L 314.784098 55.287566 
L 315.59675 55.458693 
L 316.409403 55.837654 
L 318.034707 56.948107 
L 319.660011 57.976778 
L 320.472664 58.267981 
L 321.285316 58.346788 
L 322.097968 58.19632 
L 322.91062 57.836138 
L 324.129598 57.013684 
L 326.161229 55.544809 
L 326.973881 55.164617 
L 327.786533 54.986867 
L 328.599185 55.035998 
L 329.411838 55.303848 
L 330.630816 56.022113 
L 333.068772 57.642695 
L 333.881425 57.944954 
L 334.694077 58.033964 
L 335.506729 57.895041 
L 336.319381 57.543483 
L 337.538359 56.73019 
L 339.56999 55.26038 
L 340.382642 54.870774 
L 341.195294 54.685005 
L 342.007946 54.725713 
L 342.820598 54.986968 
L 344.039577 55.696655 
L 346.477533 57.331457 
L 347.290185 57.641252 
L 348.102838 57.739804 
L 348.91549 57.603986 
L 349.728142 57.263522 
L 350.94712 56.45888 
L 352.978751 55.000774 
L 353.791403 54.600789 
L 354.604055 54.400775 
L 355.416707 54.431725 
L 356.229359 54.681429 
L 357.448338 55.37578 
L 359.886294 57.000767 
L 360.698946 57.316154 
L 361.511599 57.420024 
L 362.324251 57.297311 
L 363.136903 56.963109 
L 364.355881 56.186632 
L 366.387512 54.724646 
L 367.200164 54.323335 
L 368.012816 54.125659 
L 368.825468 54.149304 
L 369.63812 54.391351 
L 370.857099 55.073277 
L 373.295055 56.687176 
L 374.107707 57.019273 
L 374.92036 57.142324 
L 375.733012 57.032707 
L 376.545664 56.709673 
L 377.764642 55.928683 
L 379.796273 54.469496 
L 380.608925 54.064546 
L 381.421577 53.854723 
L 382.234229 53.86907 
L 383.046881 54.101275 
L 384.26586 54.774516 
L 386.703816 56.404409 
L 387.516468 56.735498 
L 388.32912 56.861229 
L 389.141773 56.76118 
L 389.954425 56.448628 
L 391.173403 55.679346 
L 393.61136 53.996513 
L 394.424012 53.676031 
L 395.236664 53.568 
L 396.049316 53.681995 
L 396.861968 54.000822 
L 398.080947 54.755426 
L 398.487273 55.042123 
L 398.487273 55.042123 
" style="fill:none;stroke:#1f77b4;stroke-linecap:square;stroke-width:1.5;"/>
   </g>
   <g id="line2d_20">
    <path clip-path="url(#pea21fa883a)" d="M 73.832727 64.101805 
L 75.051706 63.406807 
L 77.895988 61.398081 
L 78.70864 61.070077 
L 79.521293 60.972777 
L 80.333945 61.11329 
L 81.146597 61.468206 
L 82.365575 62.283089 
L 84.397206 63.700977 
L 85.209858 64.044936 
L 86.02251 64.171361 
L 86.835162 64.063305 
L 87.647814 63.725951 
L 88.866793 62.906335 
L 90.898423 61.337962 
L 91.711075 60.900098 
L 92.523727 60.678889 
L 93.33638 60.694516 
L 94.149032 60.948283 
L 95.36801 61.660504 
L 98.212293 63.570503 
L 99.024945 63.798568 
L 99.837597 63.797411 
L 100.650249 63.560351 
L 101.462901 63.111893 
L 103.088206 61.850058 
L 104.71351 60.743496 
L 105.526162 60.422068 
L 106.338814 60.32869 
L 107.151467 60.454102 
L 108.370445 61.028562 
L 111.621054 63.160328 
L 112.433706 63.401463 
L 113.246358 63.415747 
L 114.05901 63.193776 
L 114.871662 62.766341 
L 116.496967 61.547818 
L 118.122271 60.408492 
L 118.934923 60.072789 
L 119.747575 59.959136 
L 120.560228 60.084261 
L 121.37288 60.420988 
L 122.591858 61.216752 
L 124.623488 62.644985 
L 125.436141 63.000071 
L 126.248793 63.141509 
L 127.061445 63.044935 
L 127.874097 62.722917 
L 129.093075 61.915168 
L 131.531032 60.100231 
L 132.343684 59.744363 
L 133.156336 59.615076 
L 133.968989 59.722467 
L 134.781641 60.045614 
L 136.000619 60.831641 
L 138.032249 62.267013 
L 138.844902 62.635399 
L 139.657554 62.789258 
L 140.470206 62.713222 
L 141.282858 62.412207 
L 142.501836 61.646849 
L 145.346119 59.617263 
L 146.158771 59.343323 
L 146.971423 59.305989 
L 147.784076 59.507017 
L 148.596728 59.927991 
L 150.222032 61.119462 
L 151.44101 61.972059 
L 152.253663 62.360637 
L 153.066315 62.528354 
L 153.878967 62.456642 
L 154.691619 62.154204 
L 155.910597 61.367842 
L 158.348554 59.517686 
L 159.161206 59.135252 
L 159.973858 58.969947 
L 160.78651 59.050171 
L 161.599163 59.359979 
L 162.818141 60.145637 
L 164.849771 61.620626 
L 165.662423 62.017034 
L 166.475076 62.202085 
L 167.287728 62.145136 
L 168.10038 61.856343 
L 169.319358 61.074259 
L 171.757315 59.232785 
L 172.569967 58.831416 
L 173.382619 58.65514 
L 174.195271 58.71762 
L 175.007924 59.013439 
L 176.226902 59.79608 
L 178.664858 61.51775 
L 179.477511 61.842664 
L 180.290163 61.931236 
L 181.102815 61.773418 
L 181.915467 61.370825 
L 183.134445 60.488024 
L 185.166076 58.93697 
L 185.978728 58.541006 
L 186.79138 58.353156 
L 187.604032 58.42643 
L 188.416684 58.728597 
L 189.229337 59.204579 
L 192.073619 61.198616 
L 192.886271 61.506124 
L 193.698924 61.587775 
L 194.511576 61.427265 
L 195.324228 61.044171 
L 196.543206 60.171662 
L 198.574837 58.617932 
L 199.387489 58.212854 
L 200.200141 58.021583 
L 201.012793 58.072654 
L 201.825445 58.356195 
L 203.044424 59.1161 
L 205.48238 60.828119 
L 206.295032 61.147285 
L 207.107685 61.226873 
L 207.920337 61.081514 
L 208.732989 60.707261 
L 209.951967 59.852277 
L 211.983598 58.310142 
L 212.79625 57.899492 
L 213.608902 57.706056 
L 214.421554 57.750323 
L 215.234206 58.029117 
L 216.453185 58.770866 
L 218.891141 60.464396 
L 219.703793 60.782412 
L 220.516446 60.875704 
L 221.329098 60.731148 
L 222.14175 60.35796 
L 223.360728 59.508658 
L 224.986033 58.211855 
L 226.205011 57.547079 
L 227.017663 57.358337 
L 227.830315 57.414629 
L 228.642967 57.703289 
L 229.861946 58.44786 
L 232.299902 60.123444 
L 233.112554 60.431332 
L 233.925207 60.515269 
L 234.737859 60.353965 
L 235.550511 59.970956 
L 236.769489 59.132993 
L 238.80112 57.637177 
L 239.613772 57.238798 
L 240.426424 57.057952 
L 241.239076 57.102691 
L 242.051728 57.377497 
L 243.270707 58.071706 
L 245.708663 59.703941 
L 246.521315 60.019363 
L 247.333967 60.118789 
L 248.14662 59.978463 
L 248.959272 59.630153 
L 250.17825 58.796466 
L 252.209881 57.304474 
L 253.022533 56.89818 
L 253.835185 56.69598 
L 254.647837 56.729086 
L 255.460489 56.986227 
L 256.679468 57.699408 
L 259.117424 59.370227 
L 259.930076 59.695867 
L 260.742728 59.804496 
L 261.555381 59.669867 
L 262.368033 59.317706 
L 263.587011 58.491823 
L 265.618641 56.982167 
L 266.431294 56.581048 
L 267.243946 56.379496 
L 268.056598 56.401768 
L 268.86925 56.657706 
L 270.088228 57.371722 
L 272.526185 59.042027 
L 273.338837 59.373636 
L 274.151489 59.48041 
L 274.964142 59.357314 
L 275.776794 59.01749 
L 276.995772 58.203467 
L 279.027402 56.685335 
L 279.840055 56.269589 
L 280.652707 56.058778 
L 281.465359 56.079753 
L 282.278011 56.328445 
L 283.496989 57.032041 
L 285.934946 58.699036 
L 286.747598 59.025981 
L 287.56025 59.142133 
L 288.372902 59.025822 
L 289.185555 58.702504 
L 290.404533 57.900203 
L 292.436163 56.389149 
L 293.248816 55.971703 
L 294.061468 55.756839 
L 294.87412 55.769237 
L 295.686772 56.008175 
L 296.90575 56.70215 
L 299.343707 58.36859 
L 300.156359 58.705954 
L 300.969011 58.830163 
L 301.781663 58.722377 
L 302.594316 58.394579 
L 303.813294 57.59495 
L 306.25125 55.859557 
L 307.063903 55.53551 
L 307.876555 55.437447 
L 308.689207 55.562239 
L 309.501859 55.895727 
L 310.720837 56.670389 
L 312.752468 58.031553 
L 313.56512 58.371279 
L 314.377772 58.502121 
L 315.190424 58.403621 
L 316.003077 58.088142 
L 317.222055 57.300242 
L 319.660011 55.580737 
L 320.472664 55.256075 
L 321.285316 55.146321 
L 322.097968 55.258557 
L 322.91062 55.57926 
L 324.129598 56.336927 
L 326.567555 57.893981 
L 327.380207 58.145232 
L 328.192859 58.174297 
L 329.005511 57.975517 
L 329.818164 57.574628 
L 331.443468 56.406426 
L 333.068772 55.292569 
L 333.881425 54.950002 
L 334.694077 54.819392 
L 335.506729 54.924252 
L 336.319381 55.240257 
L 337.538359 56.002487 
L 339.56999 57.379367 
L 340.382642 57.731283 
L 341.195294 57.886806 
L 342.007946 57.8101 
L 342.820598 57.510855 
L 344.039577 56.754985 
L 346.477533 55.014997 
L 347.290185 54.664224 
L 348.102838 54.527483 
L 348.91549 54.618992 
L 349.728142 54.922144 
L 350.94712 55.672325 
L 352.978751 57.055221 
L 353.791403 57.417936 
L 354.604055 57.580747 
L 355.416707 57.516935 
L 356.229359 57.229497 
L 357.448338 56.467883 
L 359.886294 54.734853 
L 360.698946 54.386723 
L 361.511599 54.244168 
L 362.324251 54.327541 
L 363.136903 54.625778 
L 364.355881 55.360725 
L 366.387512 56.739875 
L 367.200164 57.106506 
L 368.012816 57.27538 
L 368.825468 57.215818 
L 369.63812 56.93647 
L 370.857099 56.198173 
L 373.295055 54.47543 
L 374.107707 54.119198 
L 374.92036 53.9685 
L 375.733012 54.043918 
L 376.545664 54.333003 
L 377.764642 55.065837 
L 379.796273 56.445297 
L 380.608925 56.815983 
L 381.421577 56.99032 
L 382.234229 56.941329 
L 383.046881 56.67315 
L 384.26586 55.951188 
L 387.110142 54.017734 
L 387.922794 53.750777 
L 388.735447 53.703803 
L 389.548099 53.887507 
L 390.360751 54.259935 
L 391.986055 55.35018 
L 393.61136 56.360323 
L 394.424012 56.645149 
L 395.236664 56.719204 
L 396.049316 56.568312 
L 396.861968 56.210704 
L 398.080947 55.400938 
L 398.487273 55.095884 
L 398.487273 55.095884 
" style="fill:none;stroke:#ff0000;stroke-linecap:square;stroke-width:1.5;"/>
   </g>
   <g id="line2d_21">
    <path clip-path="url(#pea21fa883a)" d="M 73.832727 289.273991 
L 74.645379 290.117237 
L 75.864358 291.830823 
L 77.489662 294.13398 
L 78.302314 294.952262 
L 79.114966 295.350908 
L 79.521293 295.37564 
L 79.927619 295.284002 
L 80.740271 294.74974 
L 81.552923 293.832685 
L 83.178227 291.415835 
L 84.397206 289.763518 
L 85.209858 289.045905 
L 86.02251 288.762182 
L 86.428836 288.796242 
L 87.241488 289.218281 
L 88.05414 290.048745 
L 89.273119 291.797819 
L 90.898423 294.178224 
L 91.711075 294.998151 
L 92.523727 295.394537 
L 92.930053 295.417064 
L 93.33638 295.317095 
L 94.149032 294.768835 
L 94.961684 293.843077 
L 96.586988 291.39316 
L 97.805967 289.733688 
L 98.618619 289.002403 
L 99.431271 288.73273 
L 99.837597 288.769808 
L 100.650249 289.19866 
L 101.462901 290.045518 
L 102.68188 291.827521 
L 103.900858 293.638493 
L 104.71351 294.601727 
L 105.526162 295.207344 
L 106.338814 295.363937 
L 106.745141 295.282433 
L 107.557793 294.733958 
L 108.370445 293.834574 
L 111.621054 289.383598 
L 112.433706 288.864403 
L 112.840032 288.770806 
L 113.246358 288.798873 
L 114.05901 289.196146 
L 114.871662 290.006371 
L 116.090641 291.734586 
L 117.715945 294.102273 
L 118.528597 294.928102 
L 119.341249 295.346666 
L 119.747575 295.384053 
L 120.153901 295.300254 
L 120.966554 294.792534 
L 121.779206 293.898536 
L 122.998184 292.117204 
L 124.217162 290.315894 
L 125.029815 289.393154 
L 125.842467 288.857432 
L 126.248793 288.75841 
L 126.655119 288.773914 
L 127.467771 289.147823 
L 128.280423 289.940782 
L 129.499402 291.654284 
L 131.124706 294.053257 
L 131.937358 294.913766 
L 132.75001 295.371705 
L 133.156336 295.423482 
L 133.562662 295.352906 
L 134.375315 294.865834 
L 135.187967 293.995839 
L 136.406945 292.223297 
L 138.032249 289.88175 
L 138.844902 289.104578 
L 139.657554 288.753801 
L 140.06388 288.751315 
L 140.470206 288.866153 
L 141.282858 289.438224 
L 142.09551 290.375961 
L 143.720815 292.809615 
L 144.939793 294.468089 
L 145.752445 295.181347 
L 146.565097 295.450402 
L 146.971423 295.403561 
L 147.784076 294.958892 
L 148.596728 294.087494 
L 149.815706 292.288982 
L 151.44101 289.89239 
L 152.253663 289.082894 
L 153.066315 288.707721 
L 153.878967 288.81208 
L 154.691619 289.380609 
L 155.504271 290.324451 
L 158.75488 294.886897 
L 159.567532 295.395995 
L 159.973858 295.475571 
L 160.380184 295.432664 
L 161.192837 294.984997 
L 162.005489 294.12422 
L 163.224467 292.331068 
L 164.849771 289.920009 
L 165.662423 289.091226 
L 166.475076 288.686931 
L 166.881402 288.66186 
L 167.694054 288.981836 
L 168.506706 289.739899 
L 169.725684 291.436155 
L 171.350989 293.90246 
L 172.163641 294.840866 
L 172.976293 295.379072 
L 173.382619 295.475198 
L 173.788945 295.451061 
L 174.195271 295.305526 
L 175.007924 294.671246 
L 175.820576 293.663443 
L 178.664858 289.525163 
L 179.477511 288.856388 
L 179.883837 288.694008 
L 180.290163 288.652948 
L 180.696489 288.735299 
L 181.509141 289.261968 
L 182.321793 290.204217 
L 183.947098 292.68891 
L 185.166076 294.403211 
L 185.978728 295.158697 
L 186.79138 295.488 
L 187.197706 295.459189 
L 188.010358 295.046796 
L 188.823011 294.221334 
L 190.041989 292.446084 
L 191.667293 290.015947 
L 192.479945 289.16196 
L 193.292598 288.72314 
L 193.698924 288.684761 
L 194.10525 288.766353 
L 194.917902 289.277485 
L 195.730554 290.18816 
L 196.949532 291.998799 
L 198.574837 294.350422 
L 199.387489 295.116742 
L 200.200141 295.45164 
L 200.606467 295.440946 
L 201.419119 295.052139 
L 202.231772 294.247709 
L 203.45075 292.497645 
L 205.076054 290.056641 
L 205.888706 289.189319 
L 206.701359 288.740598 
L 207.107685 288.688046 
L 207.514011 288.757085 
L 208.326663 289.248344 
L 209.139315 290.145862 
L 210.358293 291.952644 
L 211.577272 293.784033 
L 212.389924 294.729677 
L 213.202576 295.300781 
L 213.608902 295.416513 
L 214.015228 295.40954 
L 214.421554 295.282804 
L 215.234206 294.685688 
L 216.046859 293.720857 
L 219.297467 289.252366 
L 220.110119 288.789359 
L 220.516446 288.729948 
L 220.922772 288.798349 
L 221.735424 289.284791 
L 222.548076 290.170449 
L 223.767054 291.980544 
L 224.986033 293.798825 
L 225.798685 294.729993 
L 226.611337 295.29572 
L 227.017663 295.400274 
L 227.423989 295.387279 
L 227.830315 295.253257 
L 228.642967 294.642488 
L 229.45562 293.673357 
L 232.299902 289.632416 
L 233.112554 288.977231 
L 233.925207 288.767268 
L 234.737859 289.037447 
L 235.550511 289.746126 
L 236.363163 290.770046 
L 238.80112 294.254094 
L 239.613772 295.011611 
L 240.426424 295.342017 
L 240.83275 295.331131 
L 241.239076 295.205249 
L 242.051728 294.611044 
L 242.86438 293.668297 
L 244.489685 291.300307 
L 245.708663 289.709847 
L 246.521315 289.041893 
L 247.333967 288.806182 
L 247.740294 288.866592 
L 248.552946 289.319289 
L 249.365598 290.168999 
L 250.990902 292.533441 
L 252.209881 294.197738 
L 253.022533 294.965205 
L 253.835185 295.322029 
L 254.241511 295.326294 
L 255.054163 294.982477 
L 255.866815 294.227225 
L 257.085794 292.559409 
L 258.711098 290.188787 
L 259.52375 289.32101 
L 260.336402 288.847719 
L 260.742728 288.781044 
L 261.149054 288.837939 
L 261.961707 289.29296 
L 262.774359 290.143253 
L 263.993337 291.887219 
L 265.618641 294.195963 
L 266.431294 294.969012 
L 267.243946 295.335867 
L 268.056598 295.24512 
L 268.86925 294.693614 
L 269.681902 293.767752 
L 272.932511 289.359143 
L 273.745163 288.866209 
L 274.151489 288.79571 
L 274.557815 288.84182 
L 275.370468 289.273543 
L 276.18312 290.102169 
L 277.402098 291.823066 
L 279.027402 294.1493 
L 279.840055 294.946272 
L 280.652707 295.332119 
L 281.059033 295.350857 
L 281.465359 295.252167 
L 282.278011 294.718106 
L 283.090663 293.804546 
L 284.715968 291.373463 
L 285.934946 289.770911 
L 286.747598 289.085173 
L 287.56025 288.817532 
L 287.966576 288.857214 
L 288.779229 289.277382 
L 289.591881 290.090297 
L 290.810859 291.797589 
L 292.436163 294.116492 
L 293.248816 294.91125 
L 294.061468 295.302184 
L 294.467794 295.32828 
L 294.87412 295.237377 
L 295.686772 294.715104 
L 296.499424 293.822846 
L 297.718403 292.061752 
L 298.937381 290.306002 
L 299.750033 289.413229 
L 300.562685 288.90336 
L 300.969011 288.814879 
L 301.375337 288.844026 
L 302.18799 289.245547 
L 303.000642 290.071063 
L 304.21962 291.778888 
L 305.844924 294.087922 
L 306.657577 294.887845 
L 307.470229 295.281493 
L 307.876555 295.307693 
L 308.689207 295.017307 
L 309.501859 294.305925 
L 310.720837 292.698297 
L 312.346142 290.352444 
L 313.158794 289.468571 
L 313.971446 288.951105 
L 314.377772 288.857797 
L 314.784098 288.878551 
L 315.59675 289.261298 
L 316.409403 290.054601 
L 317.628381 291.731942 
L 319.253685 294.025383 
L 320.066337 294.828403 
L 320.87899 295.234485 
L 321.285316 295.274356 
L 321.691642 295.200085 
L 322.504294 294.718198 
L 323.316946 293.86279 
L 324.535924 292.159073 
L 326.161229 289.923843 
L 326.973881 289.193888 
L 327.786533 288.872099 
L 328.192859 288.882299 
L 329.005511 289.242836 
L 329.818164 290.008015 
L 331.037142 291.663738 
L 332.662446 293.967025 
L 333.475098 294.79634 
L 334.287751 295.238383 
L 334.694077 295.288462 
L 335.506729 295.044678 
L 336.319381 294.377115 
L 337.132033 293.38006 
L 339.56999 289.954902 
L 340.382642 289.21338 
L 341.195294 288.872088 
L 341.60162 288.870981 
L 342.414272 289.218634 
L 343.226925 289.972105 
L 344.445903 291.604053 
L 346.071207 293.928171 
L 346.883859 294.768832 
L 347.696512 295.224453 
L 348.102838 295.28621 
L 348.509164 295.228901 
L 349.321816 294.785113 
L 350.134468 293.958656 
L 351.353446 292.260007 
L 352.978751 290.019443 
L 353.791403 289.256742 
L 354.604055 288.893917 
L 355.010381 288.883636 
L 355.823033 289.205174 
L 356.635686 289.946895 
L 357.854664 291.569259 
L 359.479968 293.877163 
L 360.29262 294.720644 
L 361.105272 295.179258 
L 361.511599 295.249745 
L 361.917925 295.204576 
L 362.730577 294.775977 
L 363.543229 293.965276 
L 364.762207 292.303586 
L 366.387512 290.05866 
L 367.200164 289.290718 
L 368.012816 288.924167 
L 368.419142 288.908904 
L 369.231794 289.216835 
L 370.044446 289.931413 
L 371.263425 291.527167 
L 372.888729 293.81759 
L 373.701381 294.674118 
L 374.514033 295.167192 
L 374.92036 295.247712 
L 375.326686 295.211644 
L 376.139338 294.806309 
L 376.95199 294.009368 
L 378.170968 292.344046 
L 379.796273 290.098088 
L 380.608925 289.322451 
L 381.421577 288.938292 
L 381.827903 288.912928 
L 382.640555 289.200813 
L 383.453207 289.896987 
L 384.672186 291.47035 
L 386.29749 293.781512 
L 387.110142 294.648855 
L 387.922794 295.149514 
L 388.32912 295.236479 
L 388.735447 295.209217 
L 389.548099 294.816157 
L 390.360751 294.038411 
L 391.579729 292.392001 
L 393.205034 290.146653 
L 394.017686 289.358505 
L 394.830338 288.957531 
L 395.64299 288.998398 
L 396.455642 289.476437 
L 397.268294 290.326781 
L 398.487273 292.020127 
L 398.487273 292.020127 
" style="fill:none;stroke:#008000;stroke-linecap:square;stroke-width:1.5;"/>
   </g>
   <g id="patch_3">
    <path d="M 57.6 307.584 
L 57.6 41.472 
" style="fill:none;stroke:#000000;stroke-linecap:square;stroke-linejoin:miter;stroke-width:0.8;"/>
   </g>
   <g id="patch_4">
    <path d="M 414.72 307.584 
L 414.72 41.472 
" style="fill:none;stroke:#000000;stroke-linecap:square;stroke-linejoin:miter;stroke-width:0.8;"/>
   </g>
   <g id="patch_5">
    <path d="M 57.6 307.584 
L 414.72 307.584 
" style="fill:none;stroke:#000000;stroke-linecap:square;stroke-linejoin:miter;stroke-width:0.8;"/>
   </g>
   <g id="patch_6">
    <path d="M 57.6 41.472 
L 414.72 41.472 
" style="fill:none;stroke:#000000;stroke-linecap:square;stroke-linejoin:miter;stroke-width:0.8;"/>
   </g>
   <g id="legend_1">
    <g id="patch_7">
     <path d="M 351.0075 198.045187 
L 407.72 198.045187 
Q 409.72 198.045187 409.72 196.045187 
L 409.72 153.010812 
Q 409.72 151.010812 407.72 151.010812 
L 351.0075 151.010812 
Q 349.0075 151.010812 349.0075 153.010812 
L 349.0075 196.045187 
Q 349.0075 198.045187 351.0075 198.045187 
z
" style="fill:#ffffff;opacity:0.8;stroke:#cccccc;stroke-linejoin:miter;"/>
    </g>
    <g id="line2d_22">
     <path d="M 353.0075 159.10925 
L 373.0075 159.10925 
" style="fill:none;stroke:#1f77b4;stroke-linecap:square;stroke-width:1.5;"/>
    </g>
    <g id="line2d_23"/>
    <g id="text_19">
     <!-- 0-&gt;1 -->
     <defs>
      <path d="M 4.890625 31.390625 
L 31.203125 31.390625 
L 31.203125 23.390625 
L 4.890625 23.390625 
z
" id="DejaVuSans-45"/>
      <path d="M 10.59375 49.21875 
L 10.59375 58.109375 
L 73.1875 35.40625 
L 73.1875 27.296875 
L 10.59375 4.59375 
L 10.59375 13.484375 
L 60.890625 31.296875 
z
" id="DejaVuSans-62"/>
     </defs>
     <g transform="translate(381.0075 162.60925)scale(0.1 -0.1)">
      <use xlink:href="#DejaVuSans-48"/>
      <use x="63.623047" xlink:href="#DejaVuSans-45"/>
      <use x="99.707031" xlink:href="#DejaVuSans-62"/>
      <use x="183.496094" xlink:href="#DejaVuSans-49"/>
     </g>
    </g>
    <g id="line2d_24">
     <path d="M 353.0075 173.787375 
L 373.0075 173.787375 
" style="fill:none;stroke:#ff0000;stroke-linecap:square;stroke-width:1.5;"/>
    </g>
    <g id="line2d_25"/>
    <g id="text_20">
     <!-- 1-&gt;0 -->
     <g transform="translate(381.0075 177.287375)scale(0.1 -0.1)">
      <use xlink:href="#DejaVuSans-49"/>
      <use x="63.623047" xlink:href="#DejaVuSans-45"/>
      <use x="99.707031" xlink:href="#DejaVuSans-62"/>
      <use x="183.496094" xlink:href="#DejaVuSans-48"/>
     </g>
    </g>
    <g id="line2d_26">
     <path d="M 353.0075 188.4655 
L 373.0075 188.4655 
" style="fill:none;stroke:#008000;stroke-linecap:square;stroke-width:1.5;"/>
    </g>
    <g id="line2d_27"/>
    <g id="text_21">
     <!-- diff -->
     <defs>
      <path d="M 45.40625 46.390625 
L 45.40625 75.984375 
L 54.390625 75.984375 
L 54.390625 0 
L 45.40625 0 
L 45.40625 8.203125 
Q 42.578125 3.328125 38.25 0.953125 
Q 33.9375 -1.421875 27.875 -1.421875 
Q 17.96875 -1.421875 11.734375 6.484375 
Q 5.515625 14.40625 5.515625 27.296875 
Q 5.515625 40.1875 11.734375 48.09375 
Q 17.96875 56 27.875 56 
Q 33.9375 56 38.25 53.625 
Q 42.578125 51.265625 45.40625 46.390625 
z
M 14.796875 27.296875 
Q 14.796875 17.390625 18.875 11.75 
Q 22.953125 6.109375 30.078125 6.109375 
Q 37.203125 6.109375 41.296875 11.75 
Q 45.40625 17.390625 45.40625 27.296875 
Q 45.40625 37.203125 41.296875 42.84375 
Q 37.203125 48.484375 30.078125 48.484375 
Q 22.953125 48.484375 18.875 42.84375 
Q 14.796875 37.203125 14.796875 27.296875 
z
" id="DejaVuSans-100"/>
      <path d="M 9.421875 54.6875 
L 18.40625 54.6875 
L 18.40625 0 
L 9.421875 0 
z
M 9.421875 75.984375 
L 18.40625 75.984375 
L 18.40625 64.59375 
L 9.421875 64.59375 
z
" id="DejaVuSans-105"/>
      <path d="M 37.109375 75.984375 
L 37.109375 68.5 
L 28.515625 68.5 
Q 23.6875 68.5 21.796875 66.546875 
Q 19.921875 64.59375 19.921875 59.515625 
L 19.921875 54.6875 
L 34.71875 54.6875 
L 34.71875 47.703125 
L 19.921875 47.703125 
L 19.921875 0 
L 10.890625 0 
L 10.890625 47.703125 
L 2.296875 47.703125 
L 2.296875 54.6875 
L 10.890625 54.6875 
L 10.890625 58.5 
Q 10.890625 67.625 15.140625 71.796875 
Q 19.390625 75.984375 28.609375 75.984375 
z
" id="DejaVuSans-102"/>
     </defs>
     <g transform="translate(381.0075 191.9655)scale(0.1 -0.1)">
      <use xlink:href="#DejaVuSans-100"/>
      <use x="63.476562" xlink:href="#DejaVuSans-105"/>
      <use x="91.259766" xlink:href="#DejaVuSans-102"/>
      <use x="126.464844" xlink:href="#DejaVuSans-102"/>
     </g>
    </g>
   </g>
  </g>
 </g>
 <defs>
  <clipPath id="pea21fa883a">
   <rect height="266.112" width="357.12" x="57.6" y="41.472"/>
  </clipPath>
 </defs>
</svg>
