<?xml version="1.0" encoding="utf-8" standalone="no"?>
<!DOCTYPE svg PUBLIC "-//W3C//DTD SVG 1.1//EN"
  "http://www.w3.org/Graphics/SVG/1.1/DTD/svg11.dtd">
<!-- Created with matplotlib (https://matplotlib.org/) -->
<svg height="345.6pt" version="1.1" viewBox="0 0 460.8 345.6" width="460.8pt" xmlns="http://www.w3.org/2000/svg" xmlns:xlink="http://www.w3.org/1999/xlink">
 <defs>
  <style type="text/css">
*{stroke-linecap:butt;stroke-linejoin:round;}
  </style>
 </defs>
 <g id="figure_1">
  <g id="patch_1">
   <path d="M 0 345.6 
L 460.8 345.6 
L 460.8 0 
L 0 0 
z
" style="fill:#ffffff;"/>
  </g>
  <g id="axes_1">
   <g id="patch_2">
    <path d="M 57.6 307.584 
L 414.72 307.584 
L 414.72 41.472 
L 57.6 41.472 
z
" style="fill:#ffffff;"/>
   </g>
   <g id="matplotlib.axis_1">
    <g id="xtick_1">
     <g id="line2d_1">
      <defs>
       <path d="M 0 0 
L 0 3.5 
" id="m7d63a01541" style="stroke:#000000;stroke-width:0.8;"/>
      </defs>
      <g>
       <use style="stroke:#000000;stroke-width:0.8;" x="73.832727" xlink:href="#m7d63a01541" y="307.584"/>
      </g>
     </g>
     <g id="text_1">
      <!-- 0 -->
      <defs>
       <path d="M 31.78125 66.40625 
Q 24.171875 66.40625 20.328125 58.90625 
Q 16.5 51.421875 16.5 36.375 
Q 16.5 21.390625 20.328125 13.890625 
Q 24.171875 6.390625 31.78125 6.390625 
Q 39.453125 6.390625 43.28125 13.890625 
Q 47.125 21.390625 47.125 36.375 
Q 47.125 51.421875 43.28125 58.90625 
Q 39.453125 66.40625 31.78125 66.40625 
z
M 31.78125 74.21875 
Q 44.046875 74.21875 50.515625 64.515625 
Q 56.984375 54.828125 56.984375 36.375 
Q 56.984375 17.96875 50.515625 8.265625 
Q 44.046875 -1.421875 31.78125 -1.421875 
Q 19.53125 -1.421875 13.0625 8.265625 
Q 6.59375 17.96875 6.59375 36.375 
Q 6.59375 54.828125 13.0625 64.515625 
Q 19.53125 74.21875 31.78125 74.21875 
z
" id="DejaVuSans-48"/>
      </defs>
      <g transform="translate(70.651477 322.182437)scale(0.1 -0.1)">
       <use xlink:href="#DejaVuSans-48"/>
      </g>
     </g>
    </g>
    <g id="xtick_2">
     <g id="line2d_2">
      <g>
       <use style="stroke:#000000;stroke-width:0.8;" x="114.465336" xlink:href="#m7d63a01541" y="307.584"/>
      </g>
     </g>
     <g id="text_2">
      <!-- 100 -->
      <defs>
       <path d="M 12.40625 8.296875 
L 28.515625 8.296875 
L 28.515625 63.921875 
L 10.984375 60.40625 
L 10.984375 69.390625 
L 28.421875 72.90625 
L 38.28125 72.90625 
L 38.28125 8.296875 
L 54.390625 8.296875 
L 54.390625 0 
L 12.40625 0 
z
" id="DejaVuSans-49"/>
      </defs>
      <g transform="translate(104.921586 322.182437)scale(0.1 -0.1)">
       <use xlink:href="#DejaVuSans-49"/>
       <use x="63.623047" xlink:href="#DejaVuSans-48"/>
       <use x="127.246094" xlink:href="#DejaVuSans-48"/>
      </g>
     </g>
    </g>
    <g id="xtick_3">
     <g id="line2d_3">
      <g>
       <use style="stroke:#000000;stroke-width:0.8;" x="155.097945" xlink:href="#m7d63a01541" y="307.584"/>
      </g>
     </g>
     <g id="text_3">
      <!-- 200 -->
      <defs>
       <path d="M 19.1875 8.296875 
L 53.609375 8.296875 
L 53.609375 0 
L 7.328125 0 
L 7.328125 8.296875 
Q 12.9375 14.109375 22.625 23.890625 
Q 32.328125 33.6875 34.8125 36.53125 
Q 39.546875 41.84375 41.421875 45.53125 
Q 43.3125 49.21875 43.3125 52.78125 
Q 43.3125 58.59375 39.234375 62.25 
Q 35.15625 65.921875 28.609375 65.921875 
Q 23.96875 65.921875 18.8125 64.3125 
Q 13.671875 62.703125 7.8125 59.421875 
L 7.8125 69.390625 
Q 13.765625 71.78125 18.9375 73 
Q 24.125 74.21875 28.421875 74.21875 
Q 39.75 74.21875 46.484375 68.546875 
Q 53.21875 62.890625 53.21875 53.421875 
Q 53.21875 48.921875 51.53125 44.890625 
Q 49.859375 40.875 45.40625 35.40625 
Q 44.1875 33.984375 37.640625 27.21875 
Q 31.109375 20.453125 19.1875 8.296875 
z
" id="DejaVuSans-50"/>
      </defs>
      <g transform="translate(145.554195 322.182437)scale(0.1 -0.1)">
       <use xlink:href="#DejaVuSans-50"/>
       <use x="63.623047" xlink:href="#DejaVuSans-48"/>
       <use x="127.246094" xlink:href="#DejaVuSans-48"/>
      </g>
     </g>
    </g>
    <g id="xtick_4">
     <g id="line2d_4">
      <g>
       <use style="stroke:#000000;stroke-width:0.8;" x="195.730554" xlink:href="#m7d63a01541" y="307.584"/>
      </g>
     </g>
     <g id="text_4">
      <!-- 300 -->
      <defs>
       <path d="M 40.578125 39.3125 
Q 47.65625 37.796875 51.625 33 
Q 55.609375 28.21875 55.609375 21.1875 
Q 55.609375 10.40625 48.1875 4.484375 
Q 40.765625 -1.421875 27.09375 -1.421875 
Q 22.515625 -1.421875 17.65625 -0.515625 
Q 12.796875 0.390625 7.625 2.203125 
L 7.625 11.71875 
Q 11.71875 9.328125 16.59375 8.109375 
Q 21.484375 6.890625 26.8125 6.890625 
Q 36.078125 6.890625 40.9375 10.546875 
Q 45.796875 14.203125 45.796875 21.1875 
Q 45.796875 27.640625 41.28125 31.265625 
Q 36.765625 34.90625 28.71875 34.90625 
L 20.21875 34.90625 
L 20.21875 43.015625 
L 29.109375 43.015625 
Q 36.375 43.015625 40.234375 45.921875 
Q 44.09375 48.828125 44.09375 54.296875 
Q 44.09375 59.90625 40.109375 62.90625 
Q 36.140625 65.921875 28.71875 65.921875 
Q 24.65625 65.921875 20.015625 65.03125 
Q 15.375 64.15625 9.8125 62.3125 
L 9.8125 71.09375 
Q 15.4375 72.65625 20.34375 73.4375 
Q 25.25 74.21875 29.59375 74.21875 
Q 40.828125 74.21875 47.359375 69.109375 
Q 53.90625 64.015625 53.90625 55.328125 
Q 53.90625 49.265625 50.4375 45.09375 
Q 46.96875 40.921875 40.578125 39.3125 
z
" id="DejaVuSans-51"/>
      </defs>
      <g transform="translate(186.186804 322.182437)scale(0.1 -0.1)">
       <use xlink:href="#DejaVuSans-51"/>
       <use x="63.623047" xlink:href="#DejaVuSans-48"/>
       <use x="127.246094" xlink:href="#DejaVuSans-48"/>
      </g>
     </g>
    </g>
    <g id="xtick_5">
     <g id="line2d_5">
      <g>
       <use style="stroke:#000000;stroke-width:0.8;" x="236.363163" xlink:href="#m7d63a01541" y="307.584"/>
      </g>
     </g>
     <g id="text_5">
      <!-- 400 -->
      <defs>
       <path d="M 37.796875 64.3125 
L 12.890625 25.390625 
L 37.796875 25.390625 
z
M 35.203125 72.90625 
L 47.609375 72.90625 
L 47.609375 25.390625 
L 58.015625 25.390625 
L 58.015625 17.1875 
L 47.609375 17.1875 
L 47.609375 0 
L 37.796875 0 
L 37.796875 17.1875 
L 4.890625 17.1875 
L 4.890625 26.703125 
z
" id="DejaVuSans-52"/>
      </defs>
      <g transform="translate(226.819413 322.182437)scale(0.1 -0.1)">
       <use xlink:href="#DejaVuSans-52"/>
       <use x="63.623047" xlink:href="#DejaVuSans-48"/>
       <use x="127.246094" xlink:href="#DejaVuSans-48"/>
      </g>
     </g>
    </g>
    <g id="xtick_6">
     <g id="line2d_6">
      <g>
       <use style="stroke:#000000;stroke-width:0.8;" x="276.995772" xlink:href="#m7d63a01541" y="307.584"/>
      </g>
     </g>
     <g id="text_6">
      <!-- 500 -->
      <defs>
       <path d="M 10.796875 72.90625 
L 49.515625 72.90625 
L 49.515625 64.59375 
L 19.828125 64.59375 
L 19.828125 46.734375 
Q 21.96875 47.46875 24.109375 47.828125 
Q 26.265625 48.1875 28.421875 48.1875 
Q 40.625 48.1875 47.75 41.5 
Q 54.890625 34.8125 54.890625 23.390625 
Q 54.890625 11.625 47.5625 5.09375 
Q 40.234375 -1.421875 26.90625 -1.421875 
Q 22.3125 -1.421875 17.546875 -0.640625 
Q 12.796875 0.140625 7.71875 1.703125 
L 7.71875 11.625 
Q 12.109375 9.234375 16.796875 8.0625 
Q 21.484375 6.890625 26.703125 6.890625 
Q 35.15625 6.890625 40.078125 11.328125 
Q 45.015625 15.765625 45.015625 23.390625 
Q 45.015625 31 40.078125 35.4375 
Q 35.15625 39.890625 26.703125 39.890625 
Q 22.75 39.890625 18.8125 39.015625 
Q 14.890625 38.140625 10.796875 36.28125 
z
" id="DejaVuSans-53"/>
      </defs>
      <g transform="translate(267.452022 322.182437)scale(0.1 -0.1)">
       <use xlink:href="#DejaVuSans-53"/>
       <use x="63.623047" xlink:href="#DejaVuSans-48"/>
       <use x="127.246094" xlink:href="#DejaVuSans-48"/>
      </g>
     </g>
    </g>
    <g id="xtick_7">
     <g id="line2d_7">
      <g>
       <use style="stroke:#000000;stroke-width:0.8;" x="317.628381" xlink:href="#m7d63a01541" y="307.584"/>
      </g>
     </g>
     <g id="text_7">
      <!-- 600 -->
      <defs>
       <path d="M 33.015625 40.375 
Q 26.375 40.375 22.484375 35.828125 
Q 18.609375 31.296875 18.609375 23.390625 
Q 18.609375 15.53125 22.484375 10.953125 
Q 26.375 6.390625 33.015625 6.390625 
Q 39.65625 6.390625 43.53125 10.953125 
Q 47.40625 15.53125 47.40625 23.390625 
Q 47.40625 31.296875 43.53125 35.828125 
Q 39.65625 40.375 33.015625 40.375 
z
M 52.59375 71.296875 
L 52.59375 62.3125 
Q 48.875 64.0625 45.09375 64.984375 
Q 41.3125 65.921875 37.59375 65.921875 
Q 27.828125 65.921875 22.671875 59.328125 
Q 17.53125 52.734375 16.796875 39.40625 
Q 19.671875 43.65625 24.015625 45.921875 
Q 28.375 48.1875 33.59375 48.1875 
Q 44.578125 48.1875 50.953125 41.515625 
Q 57.328125 34.859375 57.328125 23.390625 
Q 57.328125 12.15625 50.6875 5.359375 
Q 44.046875 -1.421875 33.015625 -1.421875 
Q 20.359375 -1.421875 13.671875 8.265625 
Q 6.984375 17.96875 6.984375 36.375 
Q 6.984375 53.65625 15.1875 63.9375 
Q 23.390625 74.21875 37.203125 74.21875 
Q 40.921875 74.21875 44.703125 73.484375 
Q 48.484375 72.75 52.59375 71.296875 
z
" id="DejaVuSans-54"/>
      </defs>
      <g transform="translate(308.084631 322.182437)scale(0.1 -0.1)">
       <use xlink:href="#DejaVuSans-54"/>
       <use x="63.623047" xlink:href="#DejaVuSans-48"/>
       <use x="127.246094" xlink:href="#DejaVuSans-48"/>
      </g>
     </g>
    </g>
    <g id="xtick_8">
     <g id="line2d_8">
      <g>
       <use style="stroke:#000000;stroke-width:0.8;" x="358.26099" xlink:href="#m7d63a01541" y="307.584"/>
      </g>
     </g>
     <g id="text_8">
      <!-- 700 -->
      <defs>
       <path d="M 8.203125 72.90625 
L 55.078125 72.90625 
L 55.078125 68.703125 
L 28.609375 0 
L 18.3125 0 
L 43.21875 64.59375 
L 8.203125 64.59375 
z
" id="DejaVuSans-55"/>
      </defs>
      <g transform="translate(348.71724 322.182437)scale(0.1 -0.1)">
       <use xlink:href="#DejaVuSans-55"/>
       <use x="63.623047" xlink:href="#DejaVuSans-48"/>
       <use x="127.246094" xlink:href="#DejaVuSans-48"/>
      </g>
     </g>
    </g>
    <g id="xtick_9">
     <g id="line2d_9">
      <g>
       <use style="stroke:#000000;stroke-width:0.8;" x="398.893599" xlink:href="#m7d63a01541" y="307.584"/>
      </g>
     </g>
     <g id="text_9">
      <!-- 800 -->
      <defs>
       <path d="M 31.78125 34.625 
Q 24.75 34.625 20.71875 30.859375 
Q 16.703125 27.09375 16.703125 20.515625 
Q 16.703125 13.921875 20.71875 10.15625 
Q 24.75 6.390625 31.78125 6.390625 
Q 38.8125 6.390625 42.859375 10.171875 
Q 46.921875 13.96875 46.921875 20.515625 
Q 46.921875 27.09375 42.890625 30.859375 
Q 38.875 34.625 31.78125 34.625 
z
M 21.921875 38.8125 
Q 15.578125 40.375 12.03125 44.71875 
Q 8.5 49.078125 8.5 55.328125 
Q 8.5 64.0625 14.71875 69.140625 
Q 20.953125 74.21875 31.78125 74.21875 
Q 42.671875 74.21875 48.875 69.140625 
Q 55.078125 64.0625 55.078125 55.328125 
Q 55.078125 49.078125 51.53125 44.71875 
Q 48 40.375 41.703125 38.8125 
Q 48.828125 37.15625 52.796875 32.3125 
Q 56.78125 27.484375 56.78125 20.515625 
Q 56.78125 9.90625 50.3125 4.234375 
Q 43.84375 -1.421875 31.78125 -1.421875 
Q 19.734375 -1.421875 13.25 4.234375 
Q 6.78125 9.90625 6.78125 20.515625 
Q 6.78125 27.484375 10.78125 32.3125 
Q 14.796875 37.15625 21.921875 38.8125 
z
M 18.3125 54.390625 
Q 18.3125 48.734375 21.84375 45.5625 
Q 25.390625 42.390625 31.78125 42.390625 
Q 38.140625 42.390625 41.71875 45.5625 
Q 45.3125 48.734375 45.3125 54.390625 
Q 45.3125 60.0625 41.71875 63.234375 
Q 38.140625 66.40625 31.78125 66.40625 
Q 25.390625 66.40625 21.84375 63.234375 
Q 18.3125 60.0625 18.3125 54.390625 
z
" id="DejaVuSans-56"/>
      </defs>
      <g transform="translate(389.349849 322.182437)scale(0.1 -0.1)">
       <use xlink:href="#DejaVuSans-56"/>
       <use x="63.623047" xlink:href="#DejaVuSans-48"/>
       <use x="127.246094" xlink:href="#DejaVuSans-48"/>
      </g>
     </g>
    </g>
   </g>
   <g id="matplotlib.axis_2">
    <g id="ytick_1">
     <g id="line2d_10">
      <defs>
       <path d="M 0 0 
L -3.5 0 
" id="m668f8e049f" style="stroke:#000000;stroke-width:0.8;"/>
      </defs>
      <g>
       <use style="stroke:#000000;stroke-width:0.8;" x="57.6" xlink:href="#m668f8e049f" y="293.675019"/>
      </g>
     </g>
     <g id="text_10">
      <!-- 0.0 -->
      <defs>
       <path d="M 10.6875 12.40625 
L 21 12.40625 
L 21 0 
L 10.6875 0 
z
" id="DejaVuSans-46"/>
      </defs>
      <g transform="translate(34.696875 297.474238)scale(0.1 -0.1)">
       <use xlink:href="#DejaVuSans-48"/>
       <use x="63.623047" xlink:href="#DejaVuSans-46"/>
       <use x="95.410156" xlink:href="#DejaVuSans-48"/>
      </g>
     </g>
    </g>
    <g id="ytick_2">
     <g id="line2d_11">
      <g>
       <use style="stroke:#000000;stroke-width:0.8;" x="57.6" xlink:href="#m668f8e049f" y="240.591385"/>
      </g>
     </g>
     <g id="text_11">
      <!-- 0.1 -->
      <g transform="translate(34.696875 244.390604)scale(0.1 -0.1)">
       <use xlink:href="#DejaVuSans-48"/>
       <use x="63.623047" xlink:href="#DejaVuSans-46"/>
       <use x="95.410156" xlink:href="#DejaVuSans-49"/>
      </g>
     </g>
    </g>
    <g id="ytick_3">
     <g id="line2d_12">
      <g>
       <use style="stroke:#000000;stroke-width:0.8;" x="57.6" xlink:href="#m668f8e049f" y="187.507752"/>
      </g>
     </g>
     <g id="text_12">
      <!-- 0.2 -->
      <g transform="translate(34.696875 191.30697)scale(0.1 -0.1)">
       <use xlink:href="#DejaVuSans-48"/>
       <use x="63.623047" xlink:href="#DejaVuSans-46"/>
       <use x="95.410156" xlink:href="#DejaVuSans-50"/>
      </g>
     </g>
    </g>
    <g id="ytick_4">
     <g id="line2d_13">
      <g>
       <use style="stroke:#000000;stroke-width:0.8;" x="57.6" xlink:href="#m668f8e049f" y="134.424118"/>
      </g>
     </g>
     <g id="text_13">
      <!-- 0.3 -->
      <g transform="translate(34.696875 138.223337)scale(0.1 -0.1)">
       <use xlink:href="#DejaVuSans-48"/>
       <use x="63.623047" xlink:href="#DejaVuSans-46"/>
       <use x="95.410156" xlink:href="#DejaVuSans-51"/>
      </g>
     </g>
    </g>
    <g id="ytick_5">
     <g id="line2d_14">
      <g>
       <use style="stroke:#000000;stroke-width:0.8;" x="57.6" xlink:href="#m668f8e049f" y="81.340484"/>
      </g>
     </g>
     <g id="text_14">
      <!-- 0.4 -->
      <g transform="translate(34.696875 85.139703)scale(0.1 -0.1)">
       <use xlink:href="#DejaVuSans-48"/>
       <use x="63.623047" xlink:href="#DejaVuSans-46"/>
       <use x="95.410156" xlink:href="#DejaVuSans-52"/>
      </g>
     </g>
    </g>
   </g>
   <g id="line2d_15">
    <path clip-path="url(#p2e94c1d1d7)" d="M 73.832727 55.252098 
L 75.458032 54.808671 
L 78.302314 53.800537 
L 79.521293 53.662062 
L 80.740271 53.794109 
L 81.959249 54.136903 
L 85.209858 55.25779 
L 86.428836 55.347504 
L 87.647814 55.201726 
L 88.866793 54.84092 
L 91.304749 53.967286 
L 92.523727 53.746552 
L 93.742706 53.816357 
L 95.36801 54.273599 
L 98.618619 55.407725 
L 99.837597 55.513568 
L 101.056575 55.37339 
L 102.275554 55.027486 
L 105.526162 53.949592 
L 106.745141 53.876899 
L 107.964119 54.076486 
L 109.589423 54.637911 
L 111.621054 55.366746 
L 112.840032 55.575677 
L 114.05901 55.533741 
L 115.277988 55.250458 
L 118.934923 54.037797 
L 120.153901 53.961128 
L 121.37288 54.149806 
L 123.40451 54.861644 
L 125.029815 55.426595 
L 126.248793 55.644237 
L 127.467771 55.59706 
L 128.686749 55.316195 
L 132.75001 54.04383 
L 133.968989 54.03861 
L 135.187967 54.287515 
L 137.219597 55.021971 
L 138.844902 55.520533 
L 140.06388 55.660434 
L 141.282858 55.532867 
L 142.501836 55.198206 
L 145.752445 54.147311 
L 146.971423 54.057544 
L 148.190402 54.219105 
L 149.815706 54.728763 
L 151.847336 55.426651 
L 153.066315 55.635661 
L 154.285293 55.597121 
L 155.504271 55.324382 
L 159.567532 54.105762 
L 160.78651 54.097673 
L 162.005489 54.319746 
L 164.037119 55.015857 
L 165.662423 55.496123 
L 166.881402 55.637052 
L 168.10038 55.527464 
L 169.319358 55.210529 
L 172.569967 54.160442 
L 173.788945 54.068544 
L 175.007924 54.196971 
L 176.633228 54.696209 
L 179.071184 55.490945 
L 180.290163 55.632617 
L 181.509141 55.529287 
L 182.728119 55.214561 
L 185.978728 54.156061 
L 187.197706 54.055426 
L 188.416684 54.202938 
L 190.041989 54.695096 
L 192.479945 55.484349 
L 193.698924 55.626324 
L 194.917902 55.513784 
L 196.13688 55.196308 
L 199.387489 54.15615 
L 200.606467 54.050438 
L 201.825445 54.137517 
L 205.48238 54.929761 
L 207.107685 55.285054 
L 208.326663 55.322961 
L 209.545641 55.106862 
L 211.170946 54.557035 
L 213.202576 53.881237 
L 214.421554 53.704751 
L 215.640532 53.761316 
L 217.265837 54.174037 
L 218.891141 54.66169 
L 220.516446 55.151096 
L 221.735424 55.270366 
L 222.954402 55.131634 
L 224.579706 54.607004 
L 226.611337 53.862009 
L 227.830315 53.621188 
L 229.049293 53.639729 
L 230.268272 53.914537 
L 234.737859 55.314534 
L 235.956837 55.280167 
L 237.175815 54.988268 
L 241.239076 53.68352 
L 242.458054 53.68701 
L 243.677033 53.954088 
L 245.302337 54.575626 
L 246.927641 55.162912 
L 248.14662 55.393 
L 249.365598 55.35462 
L 250.584576 55.060012 
L 254.647837 53.723697 
L 255.866815 53.721715 
L 257.085794 53.981038 
L 259.117424 54.756126 
L 260.742728 55.299129 
L 261.961707 55.460018 
L 263.180685 55.331004 
L 264.399663 54.969239 
L 267.650272 53.8109 
L 268.86925 53.715802 
L 270.088228 53.898374 
L 271.713533 54.464456 
L 274.151489 55.328956 
L 275.370468 55.476369 
L 276.18312 55.443435 
L 277.402098 55.151023 
L 279.433729 54.367287 
L 281.059033 53.871425 
L 282.278011 53.765193 
L 283.496989 53.934489 
L 284.715968 54.383503 
L 286.747598 55.19813 
L 287.966576 55.495489 
L 289.185555 55.551553 
L 290.810859 55.342004 
L 292.029837 54.890826 
L 294.061468 54.113559 
L 295.280446 53.8845 
L 296.499424 53.943607 
L 297.718403 54.269831 
L 301.375337 55.605668 
L 302.594316 55.686841 
L 303.813294 55.509402 
L 305.438598 54.914308 
L 307.470229 54.12766 
L 308.689207 53.912 
L 309.908185 53.977875 
L 312.346142 54.823044 
L 314.784098 55.621804 
L 316.003077 55.707686 
L 317.222055 55.512795 
L 318.847359 54.936386 
L 320.87899 54.187756 
L 322.097968 53.975251 
L 323.316946 54.022426 
L 324.535924 54.33111 
L 328.599185 55.702431 
L 329.818164 55.706418 
L 331.037142 55.442748 
L 332.662446 54.830271 
L 334.287751 54.255815 
L 335.506729 54.027562 
L 336.725707 54.05781 
L 337.944685 54.349454 
L 342.007946 55.712755 
L 343.226925 55.735495 
L 344.445903 55.485028 
L 346.477533 54.727968 
L 348.102838 54.190137 
L 349.321816 54.030516 
L 350.540794 54.151966 
L 351.759772 54.513548 
L 355.010381 55.663014 
L 356.229359 55.774228 
L 357.448338 55.610717 
L 359.073642 55.064888 
L 361.105272 54.303502 
L 362.324251 54.058648 
L 363.543229 54.115155 
L 364.762207 54.395148 
L 368.825468 55.722634 
L 370.044446 55.738122 
L 371.263425 55.488022 
L 373.295055 54.735576 
L 374.92036 54.216754 
L 376.139338 54.076312 
L 377.358316 54.201508 
L 378.577294 54.555327 
L 381.827903 55.685141 
L 383.046881 55.796564 
L 384.26586 55.635039 
L 385.891164 55.108861 
L 387.922794 54.372465 
L 389.141773 54.139074 
L 389.954425 54.238923 
L 391.173403 54.420028 
L 393.205034 55.115603 
L 394.830338 55.639586 
L 396.049316 55.837191 
L 397.674621 55.806759 
L 398.487273 55.592521 
L 398.487273 55.592521 
" style="fill:none;stroke:#1f77b4;stroke-linecap:square;stroke-width:1.5;"/>
   </g>
   <g id="line2d_16">
    <path clip-path="url(#p2e94c1d1d7)" d="M 73.832727 53.786722 
L 75.051706 54.102703 
L 78.70864 55.28665 
L 79.927619 55.339748 
L 81.146597 55.114974 
L 83.178227 54.376368 
L 84.803532 53.810934 
L 86.02251 53.638914 
L 87.241488 53.735313 
L 88.460466 54.076488 
L 92.117401 55.368807 
L 93.33638 55.466587 
L 94.555358 55.277184 
L 96.180662 54.731889 
L 98.212293 54.041111 
L 99.431271 53.85346 
L 100.650249 53.930229 
L 101.869227 54.245441 
L 105.526162 55.488226 
L 106.745141 55.566264 
L 107.964119 55.375232 
L 109.589423 54.824301 
L 111.621054 54.102998 
L 112.840032 53.911931 
L 114.05901 53.977839 
L 115.277988 54.286561 
L 119.341249 55.617334 
L 120.560228 55.627733 
L 121.779206 55.3656 
L 123.810836 54.623345 
L 125.436141 54.130717 
L 126.655119 54.002327 
L 127.874097 54.138768 
L 129.499402 54.630733 
L 131.937358 55.475433 
L 133.156336 55.656681 
L 134.375315 55.569696 
L 135.594293 55.254648 
L 139.251228 54.084713 
L 140.470206 54.031146 
L 141.689184 54.240535 
L 143.314489 54.798804 
L 145.346119 55.494861 
L 146.565097 55.655938 
L 147.784076 55.579433 
L 149.003054 55.276168 
L 152.659989 54.131377 
L 153.878967 54.07685 
L 155.097945 54.254724 
L 156.72325 54.791772 
L 158.348554 55.358249 
L 159.567532 55.603936 
L 160.78651 55.617754 
L 162.005489 55.391931 
L 163.630793 54.837767 
L 165.662423 54.201585 
L 166.881402 54.071202 
L 168.10038 54.180978 
L 169.725684 54.637792 
L 172.163641 55.446494 
L 173.382619 55.627208 
L 174.601597 55.557507 
L 175.820576 55.264752 
L 179.477511 54.12886 
L 180.696489 54.066399 
L 181.915467 54.252061 
L 183.540771 54.772811 
L 185.572402 55.442083 
L 186.79138 55.626979 
L 188.010358 55.567291 
L 189.229337 55.272965 
L 192.886271 54.114336 
L 194.10525 54.04976 
L 195.324228 54.236399 
L 196.949532 54.76045 
L 198.981163 55.430822 
L 200.200141 55.615443 
L 201.419119 55.55239 
L 202.638098 55.257998 
L 205.076054 54.326095 
L 206.701359 53.821555 
L 207.920337 53.694181 
L 209.139315 53.823242 
L 210.764619 54.317312 
L 213.202576 55.146217 
L 214.421554 55.320275 
L 215.640532 55.236724 
L 216.859511 54.923184 
L 220.922772 53.608038 
L 222.14175 53.591653 
L 223.360728 53.841566 
L 224.986033 54.441116 
L 227.017663 55.148647 
L 228.236641 55.315165 
L 229.45562 55.210694 
L 230.674598 54.86448 
L 233.925207 53.723561 
L 235.144185 53.600956 
L 236.363163 53.755123 
L 237.582141 54.136228 
L 240.83275 55.295542 
L 242.051728 55.395005 
L 243.270707 55.220541 
L 244.896011 54.66945 
L 246.927641 53.917052 
L 248.14662 53.690549 
L 249.365598 53.735358 
L 250.584576 54.037941 
L 254.647837 55.38421 
L 255.866815 55.3922 
L 257.085794 55.135276 
L 258.711098 54.550579 
L 260.336402 53.95905 
L 261.555381 53.726304 
L 262.774359 53.763812 
L 263.993337 54.062713 
L 268.056598 55.425896 
L 269.275576 55.430436 
L 270.494555 55.174819 
L 272.526185 54.402627 
L 274.151489 53.872188 
L 275.370468 53.73935 
L 276.589446 53.887043 
L 277.808424 54.253676 
L 281.059033 55.407914 
L 282.278011 55.512849 
L 283.496989 55.346863 
L 285.122294 54.802003 
L 287.153924 54.070469 
L 288.372902 53.858051 
L 289.591881 53.905336 
L 290.810859 54.205472 
L 295.280446 55.680689 
L 296.499424 55.620804 
L 297.718403 55.296973 
L 301.375337 53.965009 
L 302.594316 53.885959 
L 303.813294 54.093197 
L 305.438598 54.695577 
L 307.470229 55.487367 
L 308.689207 55.714967 
L 309.908185 55.654871 
L 311.127163 55.332632 
L 315.190424 53.957016 
L 316.409403 53.968342 
L 317.628381 54.248408 
L 320.066337 55.209981 
L 321.285316 55.585762 
L 322.504294 55.727829 
L 323.723272 55.58994 
L 324.942251 55.214065 
L 327.786533 54.161482 
L 329.005511 53.973072 
L 330.22449 54.061669 
L 331.443468 54.400125 
L 335.100403 55.682993 
L 336.319381 55.748633 
L 337.538359 55.534729 
L 339.163664 54.938934 
L 341.195294 54.208216 
L 342.414272 54.014575 
L 343.633251 54.094841 
L 344.852229 54.426735 
L 348.509164 55.703746 
L 349.728142 55.778687 
L 350.94712 55.567746 
L 352.166099 55.147325 
L 354.604055 54.24234 
L 355.823033 54.040012 
L 357.042012 54.11562 
L 358.26099 54.433685 
L 361.917925 55.697693 
L 363.136903 55.771939 
L 364.355881 55.565322 
L 365.574859 55.146937 
L 368.012816 54.246477 
L 369.231794 54.058625 
L 370.450773 54.141431 
L 371.669751 54.474375 
L 374.92036 55.641607 
L 376.139338 55.782179 
L 377.358316 55.663196 
L 378.98362 55.159057 
L 381.421577 54.280511 
L 382.640555 54.089097 
L 383.859534 54.163854 
L 385.078512 54.48202 
L 388.735447 55.736837 
L 389.954425 55.813413 
L 391.173403 55.637023 
L 392.798707 55.126416 
L 394.830338 54.444751 
L 396.049316 54.260167 
L 397.268294 54.33223 
L 398.487273 54.638502 
L 398.487273 54.638502 
" style="fill:none;stroke:#ff0000;stroke-linecap:square;stroke-width:1.5;"/>
   </g>
   <g id="line2d_17">
    <path clip-path="url(#p2e94c1d1d7)" d="M 73.832727 295.140395 
L 74.645379 294.780675 
L 75.864358 293.931555 
L 77.489662 292.715419 
L 78.302314 292.261177 
L 79.114966 292.010568 
L 79.927619 292.011924 
L 80.740271 292.251118 
L 81.552923 292.691791 
L 82.771901 293.592274 
L 84.397206 294.812234 
L 85.209858 295.206119 
L 86.02251 295.384797 
L 86.835162 295.324606 
L 87.647814 295.051184 
L 88.866793 294.287346 
L 91.304749 292.473364 
L 92.117401 292.100782 
L 92.930053 291.939588 
L 93.742706 292.05985 
L 94.961684 292.650341 
L 96.586988 293.839402 
L 97.805967 294.718298 
L 98.618619 295.130864 
L 99.431271 295.328589 
L 100.243923 295.298146 
L 101.056575 295.035505 
L 101.869227 294.593987 
L 105.526162 292.136385 
L 106.338814 291.982498 
L 107.151467 292.062202 
L 107.964119 292.376273 
L 109.183097 293.173981 
L 111.621054 294.938767 
L 112.433706 295.268348 
L 113.246358 295.358363 
L 114.05901 295.230921 
L 114.871662 294.880838 
L 116.090641 294.053014 
L 118.122271 292.563221 
L 118.934923 292.158737 
L 119.747575 291.97513 
L 120.560228 292.048333 
L 121.37288 292.346679 
L 122.591858 293.125889 
L 124.623488 294.640352 
L 125.436141 295.069293 
L 126.248793 295.301394 
L 127.061445 295.300364 
L 127.874097 295.065765 
L 129.093075 294.372479 
L 131.937358 292.387284 
L 132.75001 292.093899 
L 133.562662 292.02919 
L 134.375315 292.201869 
L 135.187967 292.581633 
L 136.406945 293.421438 
L 138.032249 294.606642 
L 138.844902 295.040823 
L 139.657554 295.275293 
L 140.470206 295.283997 
L 141.282858 295.060801 
L 142.09551 294.649548 
L 143.720815 293.468464 
L 144.939793 292.626146 
L 145.752445 292.244193 
L 146.565097 292.077932 
L 147.377749 292.124646 
L 148.190402 292.393002 
L 149.40938 293.1152 
L 151.847336 294.802686 
L 152.659989 295.139048 
L 153.472641 295.25572 
L 154.285293 295.155109 
L 155.097945 294.857027 
L 156.316923 294.101955 
L 158.348554 292.670249 
L 159.161206 292.292787 
L 159.973858 292.11436 
L 160.78651 292.154938 
L 161.599163 292.410844 
L 162.411815 292.838089 
L 165.662423 294.969557 
L 166.475076 295.198823 
L 167.287728 295.224903 
L 168.10038 295.021505 
L 169.319358 294.385719 
L 172.163641 292.475638 
L 172.976293 292.184345 
L 173.788945 292.111435 
L 174.601597 292.262899 
L 175.41425 292.588932 
L 176.633228 293.381885 
L 178.664858 294.767457 
L 179.477511 295.117218 
L 180.290163 295.248707 
L 181.102815 295.161057 
L 181.915467 294.868526 
L 183.134445 294.117409 
L 185.572402 292.474155 
L 186.385054 292.179079 
L 187.197706 292.095697 
L 188.010358 292.235996 
L 188.823011 292.582841 
L 190.041989 293.382008 
L 192.073619 294.76866 
L 192.886271 295.121245 
L 193.698924 295.257992 
L 194.511576 295.168197 
L 195.324228 294.866703 
L 196.543206 294.117671 
L 198.981163 292.489268 
L 199.793815 292.189392 
L 200.606467 292.103273 
L 201.419119 292.186832 
L 202.638098 292.725937 
L 203.857076 293.449154 
L 205.076054 294.141799 
L 206.295032 294.900914 
L 207.514011 295.295358 
L 208.326663 295.286823 
L 209.139315 295.059135 
L 210.358293 294.35985 
L 213.202576 292.41004 
L 214.015228 292.121755 
L 214.82788 292.052402 
L 215.640532 292.199612 
L 216.859511 292.798299 
L 220.516446 295.153119 
L 221.329098 295.361354 
L 222.14175 295.334231 
L 222.954402 295.074379 
L 224.17338 294.318676 
L 226.611337 292.497971 
L 227.423989 292.116386 
L 228.236641 291.956296 
L 229.049293 292.037866 
L 229.861946 292.356496 
L 231.080924 293.161948 
L 233.51888 294.953543 
L 234.331533 295.288518 
L 235.144185 295.405417 
L 235.956837 295.281594 
L 236.769489 294.924201 
L 237.988467 294.073765 
L 240.020098 292.52658 
L 240.83275 292.121971 
L 241.645402 291.939895 
L 242.458054 291.995997 
L 243.270707 292.293454 
L 244.489685 293.086463 
L 246.927641 294.920879 
L 247.740294 295.280489 
L 248.552946 295.412682 
L 249.365598 295.29428 
L 250.17825 294.945459 
L 251.397228 294.099789 
L 253.428859 292.549013 
L 254.241511 292.139098 
L 255.054163 291.94823 
L 255.866815 292.004534 
L 256.679468 292.297335 
L 257.898446 293.076639 
L 260.742728 295.11965 
L 261.555381 295.388511 
L 262.368033 295.403497 
L 263.180685 295.168922 
L 263.993337 294.722292 
L 265.618641 293.450957 
L 266.83762 292.540889 
L 267.650272 292.123894 
L 268.462924 291.934916 
L 269.275576 291.990212 
L 270.088228 292.286195 
L 271.307207 293.084439 
L 273.745163 294.921653 
L 274.557815 295.288609 
L 275.370468 295.412038 
L 276.18312 295.310558 
L 276.995772 294.962571 
L 278.21475 294.123699 
L 280.246381 292.557886 
L 281.059033 292.138531 
L 281.871685 291.936555 
L 282.684337 291.981206 
L 283.496989 292.262645 
L 284.309642 292.758335 
L 286.747598 294.683466 
L 287.56025 295.124698 
L 288.372902 295.348126 
L 289.185555 295.368764 
L 289.998207 295.13213 
L 291.217185 294.541983 
L 294.467794 292.127111 
L 295.280446 291.878831 
L 296.093098 291.896657 
L 296.90575 292.161915 
L 297.718403 292.647876 
L 299.750033 294.318898 
L 300.969011 295.139581 
L 301.781663 295.433136 
L 302.594316 295.475901 
L 303.406968 295.286166 
L 304.21962 294.844532 
L 305.438598 293.89375 
L 307.063903 292.572952 
L 307.876555 292.107289 
L 308.689207 291.872052 
L 309.501859 291.894227 
L 310.314511 292.203198 
L 311.53349 292.980641 
L 313.971446 294.865974 
L 314.784098 295.280341 
L 315.59675 295.457338 
L 316.409403 295.379422 
L 317.222055 295.059263 
L 318.441033 294.229808 
L 320.87899 292.38058 
L 321.691642 292.036595 
L 322.504294 291.905327 
L 323.316946 292.0321 
L 324.129598 292.391695 
L 325.348577 293.25478 
L 327.380207 294.828392 
L 328.192859 295.242806 
L 329.005511 295.437984 
L 329.818164 295.381982 
L 330.630816 295.074466 
L 331.443468 294.589141 
L 334.694077 292.225649 
L 335.506729 291.967216 
L 336.319381 291.943116 
L 337.132033 292.16988 
L 337.944685 292.612035 
L 339.56999 293.871199 
L 340.788968 294.770793 
L 341.60162 295.200209 
L 342.414272 295.408697 
L 343.226925 295.373957 
L 344.039577 295.083974 
L 345.258555 294.30933 
L 348.102838 292.243895 
L 348.91549 291.970688 
L 349.728142 291.934189 
L 350.540794 292.154796 
L 351.759772 292.873897 
L 354.604055 295.00158 
L 355.416707 295.328241 
L 356.229359 295.415409 
L 357.042012 295.253723 
L 357.854664 294.872258 
L 359.073642 293.999083 
L 361.105272 292.473074 
L 361.917925 292.089831 
L 362.730577 291.941647 
L 363.543229 292.055454 
L 364.355881 292.386889 
L 365.574859 293.210162 
L 367.60649 294.7607 
L 368.419142 295.179446 
L 369.231794 295.374948 
L 370.044446 295.330085 
L 370.857099 295.044849 
L 372.076077 294.266509 
L 374.514033 292.453246 
L 375.326686 292.098424 
L 376.139338 291.969152 
L 376.95199 292.074449 
L 377.764642 292.408874 
L 378.98362 293.223829 
L 381.015251 294.750887 
L 381.827903 295.171658 
L 382.640555 295.376585 
L 383.453207 295.337628 
L 384.26586 295.064487 
L 385.484838 294.312388 
L 387.922794 292.500821 
L 388.735447 292.128849 
L 389.548099 291.996344 
L 391.173403 292.458025 
L 392.392381 293.211852 
L 394.830338 294.869855 
L 395.64299 295.172073 
L 396.455642 295.264851 
L 397.674621 295.06853 
L 398.487273 294.629038 
L 398.487273 294.629038 
" style="fill:none;stroke:#008000;stroke-linecap:square;stroke-width:1.5;"/>
   </g>
   <g id="patch_3">
    <path d="M 57.6 307.584 
L 57.6 41.472 
" style="fill:none;stroke:#000000;stroke-linecap:square;stroke-linejoin:miter;stroke-width:0.8;"/>
   </g>
   <g id="patch_4">
    <path d="M 414.72 307.584 
L 414.72 41.472 
" style="fill:none;stroke:#000000;stroke-linecap:square;stroke-linejoin:miter;stroke-width:0.8;"/>
   </g>
   <g id="patch_5">
    <path d="M 57.6 307.584 
L 414.72 307.584 
" style="fill:none;stroke:#000000;stroke-linecap:square;stroke-linejoin:miter;stroke-width:0.8;"/>
   </g>
   <g id="patch_6">
    <path d="M 57.6 41.472 
L 414.72 41.472 
" style="fill:none;stroke:#000000;stroke-linecap:square;stroke-linejoin:miter;stroke-width:0.8;"/>
   </g>
   <g id="legend_1">
    <g id="patch_7">
     <path d="M 351.0075 198.045187 
L 407.72 198.045187 
Q 409.72 198.045187 409.72 196.045187 
L 409.72 153.010812 
Q 409.72 151.010812 407.72 151.010812 
L 351.0075 151.010812 
Q 349.0075 151.010812 349.0075 153.010812 
L 349.0075 196.045187 
Q 349.0075 198.045187 351.0075 198.045187 
z
" style="fill:#ffffff;opacity:0.8;stroke:#cccccc;stroke-linejoin:miter;"/>
    </g>
    <g id="line2d_18">
     <path d="M 353.0075 159.10925 
L 373.0075 159.10925 
" style="fill:none;stroke:#1f77b4;stroke-linecap:square;stroke-width:1.5;"/>
    </g>
    <g id="line2d_19"/>
    <g id="text_15">
     <!-- 0-&gt;1 -->
     <defs>
      <path d="M 4.890625 31.390625 
L 31.203125 31.390625 
L 31.203125 23.390625 
L 4.890625 23.390625 
z
" id="DejaVuSans-45"/>
      <path d="M 10.59375 49.21875 
L 10.59375 58.109375 
L 73.1875 35.40625 
L 73.1875 27.296875 
L 10.59375 4.59375 
L 10.59375 13.484375 
L 60.890625 31.296875 
z
" id="DejaVuSans-62"/>
     </defs>
     <g transform="translate(381.0075 162.60925)scale(0.1 -0.1)">
      <use xlink:href="#DejaVuSans-48"/>
      <use x="63.623047" xlink:href="#DejaVuSans-45"/>
      <use x="99.707031" xlink:href="#DejaVuSans-62"/>
      <use x="183.496094" xlink:href="#DejaVuSans-49"/>
     </g>
    </g>
    <g id="line2d_20">
     <path d="M 353.0075 173.787375 
L 373.0075 173.787375 
" style="fill:none;stroke:#ff0000;stroke-linecap:square;stroke-width:1.5;"/>
    </g>
    <g id="line2d_21"/>
    <g id="text_16">
     <!-- 1-&gt;0 -->
     <g transform="translate(381.0075 177.287375)scale(0.1 -0.1)">
      <use xlink:href="#DejaVuSans-49"/>
      <use x="63.623047" xlink:href="#DejaVuSans-45"/>
      <use x="99.707031" xlink:href="#DejaVuSans-62"/>
      <use x="183.496094" xlink:href="#DejaVuSans-48"/>
     </g>
    </g>
    <g id="line2d_22">
     <path d="M 353.0075 188.4655 
L 373.0075 188.4655 
" style="fill:none;stroke:#008000;stroke-linecap:square;stroke-width:1.5;"/>
    </g>
    <g id="line2d_23"/>
    <g id="text_17">
     <!-- diff -->
     <defs>
      <path d="M 45.40625 46.390625 
L 45.40625 75.984375 
L 54.390625 75.984375 
L 54.390625 0 
L 45.40625 0 
L 45.40625 8.203125 
Q 42.578125 3.328125 38.25 0.953125 
Q 33.9375 -1.421875 27.875 -1.421875 
Q 17.96875 -1.421875 11.734375 6.484375 
Q 5.515625 14.40625 5.515625 27.296875 
Q 5.515625 40.1875 11.734375 48.09375 
Q 17.96875 56 27.875 56 
Q 33.9375 56 38.25 53.625 
Q 42.578125 51.265625 45.40625 46.390625 
z
M 14.796875 27.296875 
Q 14.796875 17.390625 18.875 11.75 
Q 22.953125 6.109375 30.078125 6.109375 
Q 37.203125 6.109375 41.296875 11.75 
Q 45.40625 17.390625 45.40625 27.296875 
Q 45.40625 37.203125 41.296875 42.84375 
Q 37.203125 48.484375 30.078125 48.484375 
Q 22.953125 48.484375 18.875 42.84375 
Q 14.796875 37.203125 14.796875 27.296875 
z
" id="DejaVuSans-100"/>
      <path d="M 9.421875 54.6875 
L 18.40625 54.6875 
L 18.40625 0 
L 9.421875 0 
z
M 9.421875 75.984375 
L 18.40625 75.984375 
L 18.40625 64.59375 
L 9.421875 64.59375 
z
" id="DejaVuSans-105"/>
      <path d="M 37.109375 75.984375 
L 37.109375 68.5 
L 28.515625 68.5 
Q 23.6875 68.5 21.796875 66.546875 
Q 19.921875 64.59375 19.921875 59.515625 
L 19.921875 54.6875 
L 34.71875 54.6875 
L 34.71875 47.703125 
L 19.921875 47.703125 
L 19.921875 0 
L 10.890625 0 
L 10.890625 47.703125 
L 2.296875 47.703125 
L 2.296875 54.6875 
L 10.890625 54.6875 
L 10.890625 58.5 
Q 10.890625 67.625 15.140625 71.796875 
Q 19.390625 75.984375 28.609375 75.984375 
z
" id="DejaVuSans-102"/>
     </defs>
     <g transform="translate(381.0075 191.9655)scale(0.1 -0.1)">
      <use xlink:href="#DejaVuSans-100"/>
      <use x="63.476562" xlink:href="#DejaVuSans-105"/>
      <use x="91.259766" xlink:href="#DejaVuSans-102"/>
      <use x="126.464844" xlink:href="#DejaVuSans-102"/>
     </g>
    </g>
   </g>
  </g>
 </g>
 <defs>
  <clipPath id="p2e94c1d1d7">
   <rect height="266.112" width="357.12" x="57.6" y="41.472"/>
  </clipPath>
 </defs>
</svg>
