<?xml version="1.0" encoding="utf-8" standalone="no"?>
<!DOCTYPE svg PUBLIC "-//W3C//DTD SVG 1.1//EN"
  "http://www.w3.org/Graphics/SVG/1.1/DTD/svg11.dtd">
<!-- Created with matplotlib (https://matplotlib.org/) -->
<svg height="345.6pt" version="1.1" viewBox="0 0 460.8 345.6" width="460.8pt" xmlns="http://www.w3.org/2000/svg" xmlns:xlink="http://www.w3.org/1999/xlink">
 <defs>
  <style type="text/css">
*{stroke-linecap:butt;stroke-linejoin:round;}
  </style>
 </defs>
 <g id="figure_1">
  <g id="patch_1">
   <path d="M 0 345.6 
L 460.8 345.6 
L 460.8 0 
L 0 0 
z
" style="fill:#ffffff;"/>
  </g>
  <g id="axes_1">
   <g id="patch_2">
    <path d="M 57.6 307.584 
L 414.72 307.584 
L 414.72 41.472 
L 57.6 41.472 
z
" style="fill:#ffffff;"/>
   </g>
   <g id="matplotlib.axis_1">
    <g id="xtick_1">
     <g id="line2d_1">
      <defs>
       <path d="M 0 0 
L 0 3.5 
" id="m423a479506" style="stroke:#000000;stroke-width:0.8;"/>
      </defs>
      <g>
       <use style="stroke:#000000;stroke-width:0.8;" x="73.832727" xlink:href="#m423a479506" y="307.584"/>
      </g>
     </g>
     <g id="text_1">
      <!-- 0 -->
      <defs>
       <path d="M 31.78125 66.40625 
Q 24.171875 66.40625 20.328125 58.90625 
Q 16.5 51.421875 16.5 36.375 
Q 16.5 21.390625 20.328125 13.890625 
Q 24.171875 6.390625 31.78125 6.390625 
Q 39.453125 6.390625 43.28125 13.890625 
Q 47.125 21.390625 47.125 36.375 
Q 47.125 51.421875 43.28125 58.90625 
Q 39.453125 66.40625 31.78125 66.40625 
z
M 31.78125 74.21875 
Q 44.046875 74.21875 50.515625 64.515625 
Q 56.984375 54.828125 56.984375 36.375 
Q 56.984375 17.96875 50.515625 8.265625 
Q 44.046875 -1.421875 31.78125 -1.421875 
Q 19.53125 -1.421875 13.0625 8.265625 
Q 6.59375 17.96875 6.59375 36.375 
Q 6.59375 54.828125 13.0625 64.515625 
Q 19.53125 74.21875 31.78125 74.21875 
z
" id="DejaVuSans-48"/>
      </defs>
      <g transform="translate(70.651477 322.182437)scale(0.1 -0.1)">
       <use xlink:href="#DejaVuSans-48"/>
      </g>
     </g>
    </g>
    <g id="xtick_2">
     <g id="line2d_2">
      <g>
       <use style="stroke:#000000;stroke-width:0.8;" x="114.465336" xlink:href="#m423a479506" y="307.584"/>
      </g>
     </g>
     <g id="text_2">
      <!-- 100 -->
      <defs>
       <path d="M 12.40625 8.296875 
L 28.515625 8.296875 
L 28.515625 63.921875 
L 10.984375 60.40625 
L 10.984375 69.390625 
L 28.421875 72.90625 
L 38.28125 72.90625 
L 38.28125 8.296875 
L 54.390625 8.296875 
L 54.390625 0 
L 12.40625 0 
z
" id="DejaVuSans-49"/>
      </defs>
      <g transform="translate(104.921586 322.182437)scale(0.1 -0.1)">
       <use xlink:href="#DejaVuSans-49"/>
       <use x="63.623047" xlink:href="#DejaVuSans-48"/>
       <use x="127.246094" xlink:href="#DejaVuSans-48"/>
      </g>
     </g>
    </g>
    <g id="xtick_3">
     <g id="line2d_3">
      <g>
       <use style="stroke:#000000;stroke-width:0.8;" x="155.097945" xlink:href="#m423a479506" y="307.584"/>
      </g>
     </g>
     <g id="text_3">
      <!-- 200 -->
      <defs>
       <path d="M 19.1875 8.296875 
L 53.609375 8.296875 
L 53.609375 0 
L 7.328125 0 
L 7.328125 8.296875 
Q 12.9375 14.109375 22.625 23.890625 
Q 32.328125 33.6875 34.8125 36.53125 
Q 39.546875 41.84375 41.421875 45.53125 
Q 43.3125 49.21875 43.3125 52.78125 
Q 43.3125 58.59375 39.234375 62.25 
Q 35.15625 65.921875 28.609375 65.921875 
Q 23.96875 65.921875 18.8125 64.3125 
Q 13.671875 62.703125 7.8125 59.421875 
L 7.8125 69.390625 
Q 13.765625 71.78125 18.9375 73 
Q 24.125 74.21875 28.421875 74.21875 
Q 39.75 74.21875 46.484375 68.546875 
Q 53.21875 62.890625 53.21875 53.421875 
Q 53.21875 48.921875 51.53125 44.890625 
Q 49.859375 40.875 45.40625 35.40625 
Q 44.1875 33.984375 37.640625 27.21875 
Q 31.109375 20.453125 19.1875 8.296875 
z
" id="DejaVuSans-50"/>
      </defs>
      <g transform="translate(145.554195 322.182437)scale(0.1 -0.1)">
       <use xlink:href="#DejaVuSans-50"/>
       <use x="63.623047" xlink:href="#DejaVuSans-48"/>
       <use x="127.246094" xlink:href="#DejaVuSans-48"/>
      </g>
     </g>
    </g>
    <g id="xtick_4">
     <g id="line2d_4">
      <g>
       <use style="stroke:#000000;stroke-width:0.8;" x="195.730554" xlink:href="#m423a479506" y="307.584"/>
      </g>
     </g>
     <g id="text_4">
      <!-- 300 -->
      <defs>
       <path d="M 40.578125 39.3125 
Q 47.65625 37.796875 51.625 33 
Q 55.609375 28.21875 55.609375 21.1875 
Q 55.609375 10.40625 48.1875 4.484375 
Q 40.765625 -1.421875 27.09375 -1.421875 
Q 22.515625 -1.421875 17.65625 -0.515625 
Q 12.796875 0.390625 7.625 2.203125 
L 7.625 11.71875 
Q 11.71875 9.328125 16.59375 8.109375 
Q 21.484375 6.890625 26.8125 6.890625 
Q 36.078125 6.890625 40.9375 10.546875 
Q 45.796875 14.203125 45.796875 21.1875 
Q 45.796875 27.640625 41.28125 31.265625 
Q 36.765625 34.90625 28.71875 34.90625 
L 20.21875 34.90625 
L 20.21875 43.015625 
L 29.109375 43.015625 
Q 36.375 43.015625 40.234375 45.921875 
Q 44.09375 48.828125 44.09375 54.296875 
Q 44.09375 59.90625 40.109375 62.90625 
Q 36.140625 65.921875 28.71875 65.921875 
Q 24.65625 65.921875 20.015625 65.03125 
Q 15.375 64.15625 9.8125 62.3125 
L 9.8125 71.09375 
Q 15.4375 72.65625 20.34375 73.4375 
Q 25.25 74.21875 29.59375 74.21875 
Q 40.828125 74.21875 47.359375 69.109375 
Q 53.90625 64.015625 53.90625 55.328125 
Q 53.90625 49.265625 50.4375 45.09375 
Q 46.96875 40.921875 40.578125 39.3125 
z
" id="DejaVuSans-51"/>
      </defs>
      <g transform="translate(186.186804 322.182437)scale(0.1 -0.1)">
       <use xlink:href="#DejaVuSans-51"/>
       <use x="63.623047" xlink:href="#DejaVuSans-48"/>
       <use x="127.246094" xlink:href="#DejaVuSans-48"/>
      </g>
     </g>
    </g>
    <g id="xtick_5">
     <g id="line2d_5">
      <g>
       <use style="stroke:#000000;stroke-width:0.8;" x="236.363163" xlink:href="#m423a479506" y="307.584"/>
      </g>
     </g>
     <g id="text_5">
      <!-- 400 -->
      <defs>
       <path d="M 37.796875 64.3125 
L 12.890625 25.390625 
L 37.796875 25.390625 
z
M 35.203125 72.90625 
L 47.609375 72.90625 
L 47.609375 25.390625 
L 58.015625 25.390625 
L 58.015625 17.1875 
L 47.609375 17.1875 
L 47.609375 0 
L 37.796875 0 
L 37.796875 17.1875 
L 4.890625 17.1875 
L 4.890625 26.703125 
z
" id="DejaVuSans-52"/>
      </defs>
      <g transform="translate(226.819413 322.182437)scale(0.1 -0.1)">
       <use xlink:href="#DejaVuSans-52"/>
       <use x="63.623047" xlink:href="#DejaVuSans-48"/>
       <use x="127.246094" xlink:href="#DejaVuSans-48"/>
      </g>
     </g>
    </g>
    <g id="xtick_6">
     <g id="line2d_6">
      <g>
       <use style="stroke:#000000;stroke-width:0.8;" x="276.995772" xlink:href="#m423a479506" y="307.584"/>
      </g>
     </g>
     <g id="text_6">
      <!-- 500 -->
      <defs>
       <path d="M 10.796875 72.90625 
L 49.515625 72.90625 
L 49.515625 64.59375 
L 19.828125 64.59375 
L 19.828125 46.734375 
Q 21.96875 47.46875 24.109375 47.828125 
Q 26.265625 48.1875 28.421875 48.1875 
Q 40.625 48.1875 47.75 41.5 
Q 54.890625 34.8125 54.890625 23.390625 
Q 54.890625 11.625 47.5625 5.09375 
Q 40.234375 -1.421875 26.90625 -1.421875 
Q 22.3125 -1.421875 17.546875 -0.640625 
Q 12.796875 0.140625 7.71875 1.703125 
L 7.71875 11.625 
Q 12.109375 9.234375 16.796875 8.0625 
Q 21.484375 6.890625 26.703125 6.890625 
Q 35.15625 6.890625 40.078125 11.328125 
Q 45.015625 15.765625 45.015625 23.390625 
Q 45.015625 31 40.078125 35.4375 
Q 35.15625 39.890625 26.703125 39.890625 
Q 22.75 39.890625 18.8125 39.015625 
Q 14.890625 38.140625 10.796875 36.28125 
z
" id="DejaVuSans-53"/>
      </defs>
      <g transform="translate(267.452022 322.182437)scale(0.1 -0.1)">
       <use xlink:href="#DejaVuSans-53"/>
       <use x="63.623047" xlink:href="#DejaVuSans-48"/>
       <use x="127.246094" xlink:href="#DejaVuSans-48"/>
      </g>
     </g>
    </g>
    <g id="xtick_7">
     <g id="line2d_7">
      <g>
       <use style="stroke:#000000;stroke-width:0.8;" x="317.628381" xlink:href="#m423a479506" y="307.584"/>
      </g>
     </g>
     <g id="text_7">
      <!-- 600 -->
      <defs>
       <path d="M 33.015625 40.375 
Q 26.375 40.375 22.484375 35.828125 
Q 18.609375 31.296875 18.609375 23.390625 
Q 18.609375 15.53125 22.484375 10.953125 
Q 26.375 6.390625 33.015625 6.390625 
Q 39.65625 6.390625 43.53125 10.953125 
Q 47.40625 15.53125 47.40625 23.390625 
Q 47.40625 31.296875 43.53125 35.828125 
Q 39.65625 40.375 33.015625 40.375 
z
M 52.59375 71.296875 
L 52.59375 62.3125 
Q 48.875 64.0625 45.09375 64.984375 
Q 41.3125 65.921875 37.59375 65.921875 
Q 27.828125 65.921875 22.671875 59.328125 
Q 17.53125 52.734375 16.796875 39.40625 
Q 19.671875 43.65625 24.015625 45.921875 
Q 28.375 48.1875 33.59375 48.1875 
Q 44.578125 48.1875 50.953125 41.515625 
Q 57.328125 34.859375 57.328125 23.390625 
Q 57.328125 12.15625 50.6875 5.359375 
Q 44.046875 -1.421875 33.015625 -1.421875 
Q 20.359375 -1.421875 13.671875 8.265625 
Q 6.984375 17.96875 6.984375 36.375 
Q 6.984375 53.65625 15.1875 63.9375 
Q 23.390625 74.21875 37.203125 74.21875 
Q 40.921875 74.21875 44.703125 73.484375 
Q 48.484375 72.75 52.59375 71.296875 
z
" id="DejaVuSans-54"/>
      </defs>
      <g transform="translate(308.084631 322.182437)scale(0.1 -0.1)">
       <use xlink:href="#DejaVuSans-54"/>
       <use x="63.623047" xlink:href="#DejaVuSans-48"/>
       <use x="127.246094" xlink:href="#DejaVuSans-48"/>
      </g>
     </g>
    </g>
    <g id="xtick_8">
     <g id="line2d_8">
      <g>
       <use style="stroke:#000000;stroke-width:0.8;" x="358.26099" xlink:href="#m423a479506" y="307.584"/>
      </g>
     </g>
     <g id="text_8">
      <!-- 700 -->
      <defs>
       <path d="M 8.203125 72.90625 
L 55.078125 72.90625 
L 55.078125 68.703125 
L 28.609375 0 
L 18.3125 0 
L 43.21875 64.59375 
L 8.203125 64.59375 
z
" id="DejaVuSans-55"/>
      </defs>
      <g transform="translate(348.71724 322.182437)scale(0.1 -0.1)">
       <use xlink:href="#DejaVuSans-55"/>
       <use x="63.623047" xlink:href="#DejaVuSans-48"/>
       <use x="127.246094" xlink:href="#DejaVuSans-48"/>
      </g>
     </g>
    </g>
    <g id="xtick_9">
     <g id="line2d_9">
      <g>
       <use style="stroke:#000000;stroke-width:0.8;" x="398.893599" xlink:href="#m423a479506" y="307.584"/>
      </g>
     </g>
     <g id="text_9">
      <!-- 800 -->
      <defs>
       <path d="M 31.78125 34.625 
Q 24.75 34.625 20.71875 30.859375 
Q 16.703125 27.09375 16.703125 20.515625 
Q 16.703125 13.921875 20.71875 10.15625 
Q 24.75 6.390625 31.78125 6.390625 
Q 38.8125 6.390625 42.859375 10.171875 
Q 46.921875 13.96875 46.921875 20.515625 
Q 46.921875 27.09375 42.890625 30.859375 
Q 38.875 34.625 31.78125 34.625 
z
M 21.921875 38.8125 
Q 15.578125 40.375 12.03125 44.71875 
Q 8.5 49.078125 8.5 55.328125 
Q 8.5 64.0625 14.71875 69.140625 
Q 20.953125 74.21875 31.78125 74.21875 
Q 42.671875 74.21875 48.875 69.140625 
Q 55.078125 64.0625 55.078125 55.328125 
Q 55.078125 49.078125 51.53125 44.71875 
Q 48 40.375 41.703125 38.8125 
Q 48.828125 37.15625 52.796875 32.3125 
Q 56.78125 27.484375 56.78125 20.515625 
Q 56.78125 9.90625 50.3125 4.234375 
Q 43.84375 -1.421875 31.78125 -1.421875 
Q 19.734375 -1.421875 13.25 4.234375 
Q 6.78125 9.90625 6.78125 20.515625 
Q 6.78125 27.484375 10.78125 32.3125 
Q 14.796875 37.15625 21.921875 38.8125 
z
M 18.3125 54.390625 
Q 18.3125 48.734375 21.84375 45.5625 
Q 25.390625 42.390625 31.78125 42.390625 
Q 38.140625 42.390625 41.71875 45.5625 
Q 45.3125 48.734375 45.3125 54.390625 
Q 45.3125 60.0625 41.71875 63.234375 
Q 38.140625 66.40625 31.78125 66.40625 
Q 25.390625 66.40625 21.84375 63.234375 
Q 18.3125 60.0625 18.3125 54.390625 
z
" id="DejaVuSans-56"/>
      </defs>
      <g transform="translate(389.349849 322.182437)scale(0.1 -0.1)">
       <use xlink:href="#DejaVuSans-56"/>
       <use x="63.623047" xlink:href="#DejaVuSans-48"/>
       <use x="127.246094" xlink:href="#DejaVuSans-48"/>
      </g>
     </g>
    </g>
   </g>
   <g id="matplotlib.axis_2">
    <g id="ytick_1">
     <g id="line2d_10">
      <defs>
       <path d="M 0 0 
L -3.5 0 
" id="m723279f973" style="stroke:#000000;stroke-width:0.8;"/>
      </defs>
      <g>
       <use style="stroke:#000000;stroke-width:0.8;" x="57.6" xlink:href="#m723279f973" y="295.509361"/>
      </g>
     </g>
     <g id="text_10">
      <!-- 0.000 -->
      <defs>
       <path d="M 10.6875 12.40625 
L 21 12.40625 
L 21 0 
L 10.6875 0 
z
" id="DejaVuSans-46"/>
      </defs>
      <g transform="translate(21.971875 299.308579)scale(0.1 -0.1)">
       <use xlink:href="#DejaVuSans-48"/>
       <use x="63.623047" xlink:href="#DejaVuSans-46"/>
       <use x="95.410156" xlink:href="#DejaVuSans-48"/>
       <use x="159.033203" xlink:href="#DejaVuSans-48"/>
       <use x="222.65625" xlink:href="#DejaVuSans-48"/>
      </g>
     </g>
    </g>
    <g id="ytick_2">
     <g id="line2d_11">
      <g>
       <use style="stroke:#000000;stroke-width:0.8;" x="57.6" xlink:href="#m723279f973" y="241.885934"/>
      </g>
     </g>
     <g id="text_11">
      <!-- 0.001 -->
      <g transform="translate(21.971875 245.685153)scale(0.1 -0.1)">
       <use xlink:href="#DejaVuSans-48"/>
       <use x="63.623047" xlink:href="#DejaVuSans-46"/>
       <use x="95.410156" xlink:href="#DejaVuSans-48"/>
       <use x="159.033203" xlink:href="#DejaVuSans-48"/>
       <use x="222.65625" xlink:href="#DejaVuSans-49"/>
      </g>
     </g>
    </g>
    <g id="ytick_3">
     <g id="line2d_12">
      <g>
       <use style="stroke:#000000;stroke-width:0.8;" x="57.6" xlink:href="#m723279f973" y="188.262508"/>
      </g>
     </g>
     <g id="text_12">
      <!-- 0.002 -->
      <g transform="translate(21.971875 192.061727)scale(0.1 -0.1)">
       <use xlink:href="#DejaVuSans-48"/>
       <use x="63.623047" xlink:href="#DejaVuSans-46"/>
       <use x="95.410156" xlink:href="#DejaVuSans-48"/>
       <use x="159.033203" xlink:href="#DejaVuSans-48"/>
       <use x="222.65625" xlink:href="#DejaVuSans-50"/>
      </g>
     </g>
    </g>
    <g id="ytick_4">
     <g id="line2d_13">
      <g>
       <use style="stroke:#000000;stroke-width:0.8;" x="57.6" xlink:href="#m723279f973" y="134.639082"/>
      </g>
     </g>
     <g id="text_13">
      <!-- 0.003 -->
      <g transform="translate(21.971875 138.4383)scale(0.1 -0.1)">
       <use xlink:href="#DejaVuSans-48"/>
       <use x="63.623047" xlink:href="#DejaVuSans-46"/>
       <use x="95.410156" xlink:href="#DejaVuSans-48"/>
       <use x="159.033203" xlink:href="#DejaVuSans-48"/>
       <use x="222.65625" xlink:href="#DejaVuSans-51"/>
      </g>
     </g>
    </g>
    <g id="ytick_5">
     <g id="line2d_14">
      <g>
       <use style="stroke:#000000;stroke-width:0.8;" x="57.6" xlink:href="#m723279f973" y="81.015655"/>
      </g>
     </g>
     <g id="text_14">
      <!-- 0.004 -->
      <g transform="translate(21.971875 84.814874)scale(0.1 -0.1)">
       <use xlink:href="#DejaVuSans-48"/>
       <use x="63.623047" xlink:href="#DejaVuSans-46"/>
       <use x="95.410156" xlink:href="#DejaVuSans-48"/>
       <use x="159.033203" xlink:href="#DejaVuSans-48"/>
       <use x="222.65625" xlink:href="#DejaVuSans-52"/>
      </g>
     </g>
    </g>
   </g>
   <g id="line2d_15">
    <path clip-path="url(#pb4efc3cd9f)" d="M 73.832727 167.324558 
L 74.239053 143.833468 
L 74.645379 132.56273 
L 75.051706 115.877275 
L 75.458032 112.323136 
L 75.864358 53.568 
L 76.67701 112.456154 
L 77.083336 118.304115 
L 77.489662 107.658657 
L 77.895988 104.509021 
L 78.302314 121.276934 
L 78.70864 123.673366 
L 79.114966 127.337523 
L 79.927619 128.951094 
L 80.333945 120.58253 
L 80.740271 131.510738 
L 81.146597 132.350723 
L 81.552923 135.186337 
L 81.959249 136.264305 
L 82.365575 132.093556 
L 82.771901 134.877856 
L 83.178227 133.621515 
L 83.584553 134.234534 
L 83.99088 135.299818 
L 84.397206 126.777797 
L 84.803532 110.679596 
L 85.209858 129.544849 
L 85.616184 124.527297 
L 86.02251 137.886243 
L 86.428836 141.641592 
L 86.835162 118.068667 
L 87.241488 135.768344 
L 87.647814 144.15862 
L 88.460466 148.239235 
L 88.866793 148.517949 
L 89.273119 142.891806 
L 89.679445 149.397877 
L 90.085771 152.133426 
L 90.492097 145.129931 
L 90.898423 150.419024 
L 91.304749 151.648282 
L 91.711075 153.861696 
L 92.117401 148.364768 
L 92.523727 148.959498 
L 92.930053 144.130737 
L 93.33638 151.853039 
L 93.742706 134.265971 
L 94.149032 148.872062 
L 94.961684 156.513971 
L 95.774336 159.639577 
L 96.180662 155.070011 
L 96.586988 157.858177 
L 96.993314 155.045559 
L 97.39964 154.93634 
L 97.805967 132.999253 
L 98.212293 150.44098 
L 98.618619 159.23536 
L 99.024945 162.28041 
L 99.837597 161.710548 
L 100.243923 160.535122 
L 101.056575 163.942579 
L 101.462901 163.027684 
L 101.869227 164.261898 
L 102.275554 164.727735 
L 102.68188 145.866973 
L 103.494532 162.722111 
L 103.900858 165.579834 
L 104.307184 149.575685 
L 104.71351 160.833818 
L 105.119836 166.314538 
L 105.526162 160.760434 
L 105.932488 164.836023 
L 106.338814 166.360043 
L 106.745141 167.092264 
L 107.151467 166.349537 
L 107.557793 164.072653 
L 107.964119 163.686761 
L 108.370445 163.750014 
L 109.183097 167.888662 
L 109.589423 166.333463 
L 109.995749 166.691977 
L 110.402075 167.408339 
L 110.808401 165.961201 
L 111.214728 168.59228 
L 111.621054 146.546869 
L 112.433706 165.905239 
L 112.840032 169.924243 
L 113.246358 171.114307 
L 114.05901 170.120038 
L 114.465336 169.70123 
L 114.871662 170.536925 
L 115.277988 170.63641 
L 115.684314 169.744479 
L 116.090641 171.134894 
L 116.496967 168.077334 
L 116.903293 168.848654 
L 117.309619 167.17536 
L 117.715945 170.053937 
L 118.122271 171.303311 
L 118.528597 168.476608 
L 118.934923 171.377541 
L 119.341249 169.836442 
L 119.747575 170.897174 
L 120.153901 171.621279 
L 120.560228 173.887978 
L 120.966554 113.929513 
L 121.37288 146.823328 
L 121.779206 102.147368 
L 122.185532 142.618731 
L 122.591858 168.212614 
L 122.998184 173.845061 
L 123.40451 174.921541 
L 123.810836 178.520879 
L 124.217162 170.692307 
L 124.623488 165.778222 
L 125.029815 166.123012 
L 125.436141 167.648147 
L 125.842467 171.62729 
L 126.248793 173.6274 
L 126.655119 173.387908 
L 127.061445 174.88815 
L 127.467771 174.07359 
L 127.874097 174.707785 
L 128.280423 173.214641 
L 128.686749 172.575128 
L 129.093075 173.074511 
L 129.499402 177.248469 
L 129.905728 174.135504 
L 130.312054 172.063226 
L 130.71838 176.482083 
L 131.124706 174.149296 
L 131.531032 176.135655 
L 131.937358 180.802718 
L 132.343684 177.08437 
L 132.75001 177.144918 
L 133.156336 177.376904 
L 133.968989 176.214457 
L 134.375315 175.986017 
L 134.781641 177.02162 
L 135.187967 175.685809 
L 135.594293 177.359539 
L 136.000619 176.163639 
L 136.406945 175.795481 
L 136.813271 177.124119 
L 137.219597 177.130648 
L 137.625923 174.671605 
L 138.032249 175.587195 
L 138.438575 172.888017 
L 138.844902 174.469705 
L 140.06388 175.538707 
L 140.876532 176.20652 
L 141.282858 175.86075 
L 141.689184 174.437448 
L 142.09551 176.797356 
L 142.501836 175.885176 
L 142.908162 177.113985 
L 143.314489 174.610344 
L 143.720815 179.161348 
L 144.127141 175.646348 
L 144.533467 176.082624 
L 144.939793 176.291101 
L 145.346119 177.863786 
L 145.752445 156.540455 
L 146.158771 169.480053 
L 146.565097 177.878725 
L 146.971423 179.191009 
L 147.377749 178.948037 
L 147.784076 178.966495 
L 148.190402 176.775693 
L 149.003054 176.129725 
L 149.815706 172.115114 
L 150.222032 175.896772 
L 150.628358 115.760278 
L 151.034684 150.441245 
L 151.44101 166.723264 
L 151.847336 171.652838 
L 152.253663 173.776526 
L 152.659989 173.808263 
L 153.066315 176.788761 
L 153.472641 170.010506 
L 153.878967 177.138533 
L 154.285293 178.954074 
L 154.691619 179.980256 
L 155.097945 165.443693 
L 155.504271 176.977576 
L 156.316923 183.504354 
L 157.129576 180.293723 
L 158.348554 177.745992 
L 158.75488 177.856983 
L 159.161206 181.230643 
L 159.567532 178.101631 
L 159.973858 177.270254 
L 160.380184 181.838254 
L 160.78651 167.01468 
L 161.192837 176.353865 
L 161.599163 178.15436 
L 162.005489 178.400762 
L 162.411815 180.999479 
L 162.818141 178.888711 
L 163.224467 171.631634 
L 163.630793 175.707865 
L 164.037119 177.942561 
L 164.443445 176.256451 
L 165.662423 173.096712 
L 166.06875 178.917842 
L 166.475076 179.047857 
L 166.881402 179.365253 
L 167.287728 176.093759 
L 167.694054 180.184967 
L 168.10038 179.451918 
L 168.506706 181.210363 
L 168.913032 178.025228 
L 169.725684 179.040113 
L 170.538337 177.886947 
L 170.944663 180.339262 
L 171.350989 180.178887 
L 171.757315 180.376743 
L 172.163641 178.124323 
L 172.569967 179.217675 
L 172.976293 179.57852 
L 173.382619 179.647608 
L 173.788945 179.384621 
L 174.195271 177.746269 
L 174.601597 181.330812 
L 175.007924 181.079924 
L 175.41425 137.364983 
L 175.820576 149.199355 
L 176.633228 183.997173 
L 177.039554 187.810624 
L 177.44588 177.358495 
L 177.852206 175.211379 
L 178.258532 176.589653 
L 178.664858 180.972586 
L 179.477511 176.103279 
L 180.290163 179.732738 
L 180.696489 179.26763 
L 181.102815 182.486615 
L 181.509141 184.703929 
L 181.915467 176.547753 
L 182.321793 184.17808 
L 182.728119 178.197412 
L 183.134445 176.204802 
L 183.540771 176.604103 
L 183.947098 177.696427 
L 184.353424 178.225047 
L 184.75975 179.22577 
L 185.166076 179.504353 
L 185.572402 179.558754 
L 186.385054 181.990326 
L 186.79138 180.229109 
L 187.197706 179.916489 
L 187.604032 178.685459 
L 188.010358 183.219084 
L 188.416684 177.700003 
L 188.823011 180.309411 
L 189.229337 184.41195 
L 189.635663 181.636985 
L 190.041989 176.084524 
L 190.448315 180.037833 
L 190.854641 182.8448 
L 191.260967 181.536495 
L 191.667293 182.047082 
L 192.073619 182.242539 
L 192.479945 183.168225 
L 192.886271 182.005189 
L 193.292598 182.17499 
L 193.698924 181.854441 
L 194.10525 180.383937 
L 194.511576 182.135486 
L 195.324228 184.65643 
L 195.730554 184.76188 
L 196.13688 183.506653 
L 196.543206 183.358247 
L 196.949532 183.663194 
L 197.355858 181.578265 
L 197.762185 180.360232 
L 198.168511 183.347356 
L 198.574837 185.163644 
L 198.981163 181.235121 
L 199.387489 180.471808 
L 199.793815 181.010777 
L 200.200141 182.260743 
L 200.606467 181.050616 
L 201.012793 183.23135 
L 201.419119 182.66032 
L 201.825445 182.767172 
L 202.231772 181.877784 
L 202.638098 182.907125 
L 203.044424 181.932555 
L 203.45075 181.916225 
L 203.857076 181.189375 
L 204.263402 178.672836 
L 204.669728 177.965928 
L 205.076054 181.777639 
L 205.48238 182.559518 
L 205.888706 182.460853 
L 206.295032 182.925759 
L 206.701359 182.404969 
L 207.107685 178.877455 
L 207.514011 181.64896 
L 207.920337 182.536325 
L 208.326663 185.421118 
L 208.732989 187.26746 
L 209.139315 176.4585 
L 209.545641 181.497527 
L 209.951967 181.463426 
L 210.358293 181.683009 
L 210.764619 182.056774 
L 211.170946 182.097002 
L 211.577272 124.7725 
L 211.983598 141.527633 
L 212.389924 171.260503 
L 212.79625 181.488989 
L 213.202576 183.851045 
L 213.608902 184.865477 
L 214.015228 184.261713 
L 214.421554 184.742578 
L 214.82788 184.652209 
L 215.234206 183.166936 
L 215.640532 188.049209 
L 216.046859 188.862417 
L 216.859511 180.979016 
L 217.265837 187.796605 
L 217.672163 184.228796 
L 218.078489 189.07212 
L 218.484815 189.300563 
L 218.891141 181.352157 
L 219.297467 146.971472 
L 219.703793 172.972449 
L 220.110119 186.955926 
L 220.516446 188.177909 
L 220.922772 186.728015 
L 221.329098 185.904837 
L 221.735424 185.748938 
L 222.14175 186.194117 
L 222.548076 185.573512 
L 222.954402 173.939492 
L 223.360728 175.52606 
L 223.767054 189.52357 
L 224.17338 187.594576 
L 224.579706 188.149591 
L 224.986033 184.431058 
L 225.392359 186.11173 
L 225.798685 185.69734 
L 226.205011 184.716191 
L 226.611337 186.598944 
L 227.017663 184.643255 
L 227.423989 183.759542 
L 227.830315 182.186083 
L 228.236641 174.121628 
L 228.642967 182.345112 
L 229.049293 183.204637 
L 229.45562 183.437561 
L 229.861946 186.515007 
L 230.268272 184.690938 
L 230.674598 185.446062 
L 231.080924 193.171007 
L 231.48725 194.023353 
L 231.893576 194.343234 
L 232.299902 188.761996 
L 232.706228 189.989083 
L 233.112554 187.315225 
L 233.51888 187.911992 
L 233.925207 189.860226 
L 234.331533 186.976226 
L 234.737859 185.091693 
L 235.144185 191.092864 
L 235.550511 191.974684 
L 235.956837 191.979838 
L 236.363163 189.623435 
L 236.769489 185.316503 
L 237.175815 184.042616 
L 237.582141 189.024848 
L 237.988467 189.941608 
L 238.394793 197.827877 
L 238.80112 194.858719 
L 239.207446 193.507631 
L 239.613772 188.879079 
L 240.020098 190.914955 
L 240.426424 191.319763 
L 240.83275 187.951114 
L 241.239076 196.079162 
L 241.645402 190.852412 
L 242.051728 187.116274 
L 242.458054 181.067433 
L 242.86438 184.187727 
L 243.270707 183.302697 
L 243.677033 181.132407 
L 244.083359 182.549915 
L 244.489685 183.537753 
L 244.896011 179.073577 
L 245.302337 179.300711 
L 245.708663 182.87133 
L 246.114989 181.880609 
L 246.521315 182.008651 
L 246.927641 186.256985 
L 247.333967 182.886144 
L 247.740294 185.857198 
L 248.14662 183.434486 
L 248.552946 184.342869 
L 248.959272 182.091578 
L 249.365598 184.888647 
L 249.771924 175.547499 
L 250.17825 187.164166 
L 250.584576 186.269107 
L 250.990902 184.470082 
L 251.397228 183.808888 
L 251.803554 185.627987 
L 252.209881 185.748559 
L 252.616207 185.502346 
L 253.022533 189.279596 
L 253.428859 188.261222 
L 253.835185 188.494024 
L 254.241511 180.880703 
L 254.647837 185.403408 
L 255.054163 182.858326 
L 255.866815 184.057988 
L 256.273141 190.475963 
L 256.679468 185.77623 
L 257.085794 187.733976 
L 257.49212 186.957481 
L 257.898446 191.706542 
L 258.304772 188.255624 
L 258.711098 181.623065 
L 259.117424 184.740139 
L 259.52375 184.52648 
L 259.930076 187.355717 
L 260.336402 181.986864 
L 260.742728 182.736565 
L 261.149054 186.578525 
L 261.555381 186.5956 
L 261.961707 187.939861 
L 262.368033 187.460892 
L 262.774359 183.774985 
L 263.180685 187.217437 
L 263.587011 184.363105 
L 263.993337 189.85007 
L 264.399663 186.950084 
L 265.212315 184.975609 
L 265.618641 194.277884 
L 266.024968 187.893126 
L 266.431294 184.754762 
L 266.83762 190.877087 
L 267.243946 185.032011 
L 267.650272 187.177776 
L 268.056598 186.968886 
L 268.462924 185.460341 
L 268.86925 152.861781 
L 269.275576 171.506676 
L 269.681902 181.17327 
L 270.494555 184.316601 
L 270.900881 184.792927 
L 271.307207 171.474736 
L 272.119859 185.480971 
L 272.526185 186.270664 
L 272.932511 185.032067 
L 273.338837 183.112764 
L 273.745163 187.602692 
L 274.151489 186.765617 
L 274.557815 186.769538 
L 274.964142 185.263483 
L 275.370468 185.525949 
L 275.776794 187.42506 
L 276.18312 184.802522 
L 276.589446 186.5525 
L 276.995772 185.553158 
L 277.402098 173.236628 
L 277.808424 184.301748 
L 278.21475 186.219738 
L 278.621076 187.411454 
L 279.027402 188.256862 
L 279.433729 122.691979 
L 280.246381 167.077815 
L 280.652707 181.478362 
L 281.059033 183.147901 
L 281.465359 184.230838 
L 281.871685 188.012427 
L 282.278011 185.351021 
L 282.684337 189.800977 
L 283.090663 183.833937 
L 283.496989 187.646225 
L 283.903316 193.942624 
L 284.309642 193.375946 
L 284.715968 192.337432 
L 285.122294 190.853739 
L 285.52862 186.743709 
L 285.934946 187.771572 
L 286.341272 189.180302 
L 286.747598 189.071444 
L 287.153924 189.633411 
L 287.56025 194.739656 
L 287.966576 191.68781 
L 288.372902 189.865319 
L 288.779229 165.662374 
L 289.591881 185.359731 
L 289.998207 151.327983 
L 290.810859 185.87602 
L 291.217185 190.403165 
L 291.623511 189.189466 
L 292.029837 189.767108 
L 292.436163 188.029391 
L 292.842489 189.323724 
L 293.248816 184.670184 
L 293.655142 185.8003 
L 294.061468 148.228556 
L 294.467794 168.893496 
L 294.87412 180.807553 
L 295.280446 186.713438 
L 295.686772 187.572257 
L 296.093098 141.829741 
L 296.90575 182.197683 
L 297.312076 185.680469 
L 298.124729 187.600772 
L 298.531055 186.507318 
L 298.937381 187.107437 
L 299.343707 179.112019 
L 299.750033 184.745357 
L 300.156359 182.077137 
L 300.562685 164.90339 
L 300.969011 171.096982 
L 301.375337 186.645726 
L 301.781663 190.507148 
L 302.18799 182.129946 
L 302.594316 184.23781 
L 303.000642 189.154129 
L 303.406968 188.812008 
L 303.813294 178.285465 
L 304.21962 184.424672 
L 304.625946 187.094339 
L 305.032272 187.532435 
L 305.438598 187.067197 
L 305.844924 158.227983 
L 306.25125 176.949937 
L 306.657577 178.61609 
L 307.063903 184.789633 
L 307.470229 182.20778 
L 307.876555 176.711611 
L 308.282881 191.190409 
L 309.095533 185.571699 
L 309.501859 187.861927 
L 309.908185 184.380526 
L 310.314511 186.75676 
L 310.720837 183.968978 
L 311.127163 186.820298 
L 311.939816 185.126063 
L 312.346142 187.411415 
L 312.752468 187.461375 
L 313.56512 182.936737 
L 314.784098 191.220724 
L 315.190424 188.817702 
L 315.59675 188.195459 
L 316.003077 188.218197 
L 316.409403 160.915071 
L 316.815729 151.564446 
L 317.222055 163.05324 
L 317.628381 184.21909 
L 318.034707 187.601662 
L 318.441033 188.340037 
L 318.847359 188.518215 
L 319.253685 187.514096 
L 319.660011 192.236772 
L 320.472664 183.064162 
L 320.87899 187.178536 
L 321.285316 189.208442 
L 321.691642 189.919455 
L 322.097968 185.397206 
L 322.504294 184.624046 
L 322.91062 186.935523 
L 323.316946 157.736279 
L 323.723272 165.93285 
L 324.129598 184.093981 
L 324.535924 185.204227 
L 324.942251 188.97079 
L 325.348577 190.151774 
L 325.754903 190.819552 
L 326.161229 183.679513 
L 326.567555 151.393928 
L 326.973881 159.234381 
L 327.380207 179.909384 
L 327.786533 190.259246 
L 328.192859 189.879248 
L 328.599185 187.286754 
L 329.005511 188.88254 
L 329.411838 191.448048 
L 329.818164 187.870979 
L 330.22449 189.516616 
L 330.630816 179.7413 
L 331.037142 186.017749 
L 331.443468 188.775729 
L 331.849794 182.659518 
L 332.25612 182.75802 
L 332.662446 181.151385 
L 333.475098 186.183062 
L 333.881425 186.947852 
L 334.287751 188.26611 
L 334.694077 186.251479 
L 335.100403 183.63471 
L 335.506729 182.234025 
L 335.913055 182.67554 
L 336.725707 188.503367 
L 337.132033 188.989771 
L 337.538359 189.123181 
L 337.944685 188.400668 
L 338.351011 189.304219 
L 338.757338 160.585598 
L 339.163664 174.472247 
L 339.56999 182.626574 
L 339.976316 186.864726 
L 340.382642 184.809668 
L 340.788968 187.468958 
L 341.195294 187.772199 
L 341.60162 189.964493 
L 342.007946 188.776173 
L 342.414272 188.802804 
L 342.820598 187.369314 
L 343.226925 188.994588 
L 343.633251 189.614729 
L 344.039577 190.009906 
L 344.445903 192.549234 
L 344.852229 189.137625 
L 345.258555 186.90568 
L 345.664881 187.599726 
L 346.071207 191.064352 
L 346.477533 190.775333 
L 346.883859 189.917011 
L 347.290185 181.327956 
L 347.696512 175.812334 
L 348.102838 175.24001 
L 348.91549 189.087802 
L 349.321816 192.486887 
L 350.134468 195.13681 
L 350.540794 190.775902 
L 350.94712 192.558734 
L 351.353446 192.831246 
L 351.759772 190.299366 
L 352.166099 185.152648 
L 352.572425 169.636985 
L 352.978751 170.211699 
L 353.385077 185.440229 
L 353.791403 190.149831 
L 354.197729 188.470576 
L 354.604055 188.275624 
L 355.010381 189.791569 
L 355.416707 189.739931 
L 355.823033 188.700572 
L 356.229359 189.016338 
L 356.635686 188.471159 
L 357.042012 191.010492 
L 357.448338 192.636344 
L 357.854664 191.406721 
L 358.26099 196.479454 
L 359.073642 189.835153 
L 359.479968 191.928916 
L 359.886294 189.338097 
L 360.29262 188.826458 
L 360.698946 187.679243 
L 361.105272 188.466355 
L 361.511599 188.36582 
L 361.917925 192.701708 
L 362.324251 195.78237 
L 362.730577 193.399349 
L 363.136903 184.826864 
L 363.543229 185.495948 
L 363.949555 184.551628 
L 364.355881 201.745939 
L 364.762207 189.720338 
L 365.168533 189.028922 
L 365.574859 189.586249 
L 365.981186 189.357151 
L 366.387512 186.864809 
L 366.793838 188.978119 
L 367.200164 184.506739 
L 367.60649 187.674674 
L 368.012816 188.418549 
L 368.419142 188.183021 
L 368.825468 186.646626 
L 369.231794 189.254051 
L 370.044446 191.784112 
L 370.450773 190.223313 
L 370.857099 190.864346 
L 372.076077 190.145554 
L 372.482403 190.191431 
L 372.888729 190.85932 
L 373.295055 190.453911 
L 373.701381 188.987229 
L 374.107707 189.725668 
L 374.514033 192.775041 
L 374.92036 191.602533 
L 375.326686 189.183893 
L 375.733012 188.579606 
L 376.139338 190.089242 
L 376.545664 190.018675 
L 376.95199 191.198819 
L 377.358316 183.127682 
L 377.764642 183.108238 
L 378.170968 185.132995 
L 378.98362 191.700762 
L 379.389947 191.958157 
L 379.796273 191.482688 
L 380.202599 190.138687 
L 380.608925 191.902878 
L 381.015251 188.91123 
L 381.421577 191.656251 
L 381.827903 190.044329 
L 382.234229 189.267227 
L 382.640555 191.999122 
L 383.046881 192.57032 
L 383.453207 192.829662 
L 383.859534 193.981748 
L 384.26586 193.403934 
L 384.672186 193.651839 
L 385.078512 194.360198 
L 385.484838 194.569666 
L 385.891164 194.289819 
L 386.29749 191.230187 
L 386.703816 191.10887 
L 387.110142 192.578263 
L 387.922794 190.83833 
L 388.735447 191.967078 
L 389.141773 191.095347 
L 389.548099 191.267902 
L 389.954425 190.786638 
L 390.360751 190.760653 
L 390.767077 191.939597 
L 391.579729 192.595518 
L 391.986055 192.058978 
L 392.392381 192.12992 
L 392.798707 191.219597 
L 393.205034 190.694139 
L 393.61136 190.372922 
L 394.017686 192.160515 
L 394.424012 191.100601 
L 394.830338 192.348416 
L 395.236664 192.749442 
L 396.049316 192.510967 
L 396.455642 192.705006 
L 396.861968 192.580126 
L 397.268294 192.621599 
L 397.674621 192.53076 
L 398.487273 193.331294 
L 398.487273 193.331294 
" style="fill:none;stroke:#1f77b4;stroke-linecap:square;stroke-width:1.5;"/>
   </g>
   <g id="line2d_16">
    <path clip-path="url(#pb4efc3cd9f)" d="M 73.832727 294.103076 
L 74.239053 294.152883 
L 74.645379 294.655001 
L 75.051706 293.164708 
L 75.458032 293.501262 
L 75.864358 294.271275 
L 76.67701 292.950551 
L 77.489662 294.94042 
L 77.895988 294.844542 
L 78.302314 293.948762 
L 78.70864 294.818715 
L 79.114966 294.232306 
L 79.521293 295.056736 
L 79.927619 294.869434 
L 81.552923 294.854042 
L 81.959249 294.601684 
L 82.365575 294.689707 
L 83.178227 295.195261 
L 83.584553 292.345389 
L 83.99088 294.73899 
L 84.803532 295.300704 
L 85.209858 295.012572 
L 85.616184 291.806674 
L 86.02251 293.550659 
L 86.428836 294.699094 
L 86.835162 295.250894 
L 87.241488 295.242465 
L 87.647814 293.383083 
L 88.05414 294.026241 
L 88.460466 292.868154 
L 88.866793 294.695337 
L 89.273119 295.049174 
L 89.679445 293.844151 
L 90.085771 295.090388 
L 90.492097 294.982314 
L 91.304749 294.300743 
L 91.711075 294.986085 
L 92.117401 293.546535 
L 92.930053 295.400832 
L 93.33638 293.880881 
L 94.149032 294.008581 
L 94.961684 295.427867 
L 95.36801 293.004999 
L 95.774336 294.150049 
L 96.180662 293.789511 
L 96.586988 294.622716 
L 96.993314 294.791261 
L 97.39964 294.002513 
L 97.805967 293.962437 
L 98.212293 291.498779 
L 98.618619 295.360251 
L 99.024945 293.64118 
L 99.431271 295.090662 
L 99.837597 294.662973 
L 100.243923 291.446789 
L 100.650249 294.559423 
L 101.462901 293.962563 
L 101.869227 293.567663 
L 102.275554 294.807891 
L 102.68188 293.537141 
L 103.088206 292.882029 
L 103.494532 292.933098 
L 103.900858 294.122949 
L 104.307184 294.257511 
L 104.71351 290.172663 
L 105.119836 294.914779 
L 105.526162 295.337422 
L 105.932488 294.213806 
L 106.338814 289.018082 
L 106.745141 294.613184 
L 107.151467 295.351966 
L 107.557793 293.475901 
L 107.964119 293.507962 
L 108.370445 295.456321 
L 108.776771 294.762209 
L 109.183097 295.282071 
L 109.589423 295.410154 
L 109.995749 295.418332 
L 110.402075 294.666125 
L 110.808401 295.40382 
L 111.214728 295.387933 
L 111.621054 294.647963 
L 112.02738 290.371679 
L 112.433706 295.012072 
L 112.840032 287.361578 
L 113.246358 294.63769 
L 113.652684 295.325628 
L 114.05901 295.440021 
L 114.465336 291.375636 
L 114.871662 294.71015 
L 115.277988 294.082312 
L 115.684314 294.864675 
L 116.090641 295.017722 
L 116.496967 295.316663 
L 116.903293 295.154711 
L 117.309619 295.479011 
L 117.715945 295.411207 
L 118.122271 294.495062 
L 118.934923 294.90776 
L 119.341249 294.714248 
L 120.153901 294.635299 
L 120.560228 292.795109 
L 120.966554 295.035227 
L 121.37288 295.142619 
L 121.779206 292.675307 
L 122.185532 295.218815 
L 122.591858 294.044344 
L 122.998184 294.694741 
L 123.40451 294.058375 
L 123.810836 294.293216 
L 124.217162 294.924221 
L 124.623488 293.61026 
L 125.029815 295.263365 
L 127.467771 295.284224 
L 127.874097 293.387569 
L 128.280423 294.472163 
L 128.686749 294.817232 
L 129.093075 294.743194 
L 129.905728 294.85824 
L 130.312054 292.8701 
L 130.71838 294.059644 
L 131.124706 294.801714 
L 131.531032 295.155 
L 131.937358 294.949174 
L 133.156336 295.08519 
L 133.968989 295.088903 
L 134.375315 293.732387 
L 134.781641 295.1539 
L 135.187967 293.593685 
L 136.000619 294.786055 
L 136.406945 294.315143 
L 136.813271 294.430194 
L 137.219597 295.281956 
L 137.625923 295.390242 
L 138.032249 295.219865 
L 138.438575 295.455603 
L 138.844902 294.731327 
L 139.251228 294.630488 
L 139.657554 294.400233 
L 140.06388 295.433174 
L 140.470206 295.440244 
L 140.876532 294.414417 
L 141.282858 294.446721 
L 141.689184 295.171047 
L 142.09551 294.566083 
L 142.501836 294.252566 
L 142.908162 295.288766 
L 143.314489 294.198942 
L 143.720815 294.59266 
L 144.127141 294.549942 
L 144.533467 294.064796 
L 144.939793 291.278427 
L 145.346119 292.851309 
L 145.752445 292.787273 
L 146.158771 293.517479 
L 146.565097 294.64543 
L 147.377749 293.416921 
L 147.784076 293.319029 
L 148.190402 293.402854 
L 148.596728 294.65987 
L 149.40938 293.731191 
L 149.815706 294.667502 
L 150.222032 294.55039 
L 150.628358 292.931226 
L 151.034684 292.88351 
L 151.44101 291.321897 
L 151.847336 294.446393 
L 152.659989 294.286603 
L 153.066315 294.397671 
L 153.472641 295.072873 
L 153.878967 294.444382 
L 154.285293 294.775029 
L 154.691619 294.642194 
L 155.097945 294.878565 
L 155.504271 295.270464 
L 155.910597 295.356884 
L 156.316923 294.582697 
L 156.72325 295.474188 
L 157.129576 295.382081 
L 157.535902 295.110464 
L 157.942228 294.653971 
L 158.348554 295.393705 
L 158.75488 294.795992 
L 159.161206 295.463723 
L 159.567532 294.033562 
L 159.973858 294.251087 
L 160.380184 294.051795 
L 160.78651 295.438468 
L 161.192837 294.073625 
L 161.599163 295.352699 
L 162.005489 294.778938 
L 162.411815 294.609874 
L 162.818141 295.103236 
L 163.224467 294.468498 
L 163.630793 294.718944 
L 164.037119 294.399872 
L 164.443445 293.829173 
L 164.849771 295.169041 
L 165.256097 294.607839 
L 165.662423 294.341384 
L 166.475076 295.18582 
L 166.881402 294.519377 
L 167.287728 295.488 
L 167.694054 295.437097 
L 168.10038 294.725017 
L 168.506706 295.440618 
L 168.913032 295.415272 
L 169.319358 295.267914 
L 169.725684 294.857608 
L 170.13201 295.46213 
L 170.538337 295.148806 
L 170.944663 295.377963 
L 171.350989 294.282731 
L 171.757315 293.642343 
L 172.163641 295.177993 
L 172.569967 294.123187 
L 172.976293 295.178731 
L 173.382619 294.053759 
L 173.788945 294.980617 
L 174.195271 294.921479 
L 174.601597 295.1396 
L 175.007924 288.012915 
L 175.41425 295.316864 
L 175.820576 295.007572 
L 176.226902 295.383153 
L 176.633228 295.220302 
L 177.039554 295.373372 
L 177.44588 290.011249 
L 177.852206 293.535883 
L 178.258532 295.255636 
L 178.664858 295.450913 
L 179.071184 295.209662 
L 179.883837 295.395388 
L 180.290163 295.092014 
L 180.696489 295.116334 
L 181.102815 295.014671 
L 181.509141 295.319024 
L 181.915467 295.46592 
L 182.321793 295.480822 
L 182.728119 295.119406 
L 183.134445 295.356725 
L 183.947098 295.453895 
L 184.75975 295.476209 
L 185.166076 295.153662 
L 185.572402 295.467299 
L 187.197706 295.476801 
L 187.604032 294.987759 
L 188.010358 295.373955 
L 188.416684 295.383406 
L 188.823011 295.098302 
L 189.229337 295.408193 
L 189.635663 295.007784 
L 190.041989 295.387718 
L 190.448315 295.233289 
L 192.479945 295.353284 
L 192.886271 294.915392 
L 193.292598 295.109499 
L 193.698924 293.881646 
L 194.10525 294.773323 
L 194.511576 295.030454 
L 194.917902 294.40397 
L 195.324228 295.426521 
L 195.730554 295.274901 
L 196.13688 293.078604 
L 196.543206 294.852514 
L 196.949532 295.429004 
L 197.355858 294.673541 
L 198.168511 294.718477 
L 198.574837 294.374112 
L 198.981163 295.176965 
L 200.200141 295.174625 
L 200.606467 294.207906 
L 201.012793 295.168221 
L 201.825445 295.175065 
L 202.231772 294.57886 
L 202.638098 294.715017 
L 203.044424 295.191235 
L 203.45075 294.66594 
L 203.857076 295.035022 
L 204.263402 295.10736 
L 204.669728 294.610783 
L 205.076054 295.25963 
L 205.48238 294.777516 
L 206.701359 294.881967 
L 207.107685 295.1999 
L 207.514011 294.880126 
L 207.920337 295.222562 
L 208.326663 294.939176 
L 208.732989 294.893985 
L 209.139315 295.476293 
L 209.545641 295.419903 
L 209.951967 294.859242 
L 210.358293 291.638689 
L 210.764619 295.173558 
L 211.170946 295.370201 
L 211.983598 295.420976 
L 212.389924 295.400815 
L 212.79625 295.13141 
L 213.202576 295.387211 
L 214.015228 295.467448 
L 216.046859 295.297477 
L 216.453185 295.152407 
L 216.859511 295.286441 
L 217.265837 295.268858 
L 217.672163 294.576113 
L 218.078489 295.297019 
L 218.484815 293.36618 
L 218.891141 294.755357 
L 219.297467 294.821526 
L 219.703793 295.232972 
L 220.516446 295.458206 
L 221.329098 293.602709 
L 221.735424 295.430846 
L 222.14175 294.447933 
L 222.548076 295.178637 
L 222.954402 293.405717 
L 223.360728 295.081106 
L 223.767054 295.44985 
L 224.17338 293.145696 
L 224.579706 294.441215 
L 224.986033 295.04193 
L 225.392359 295.001402 
L 225.798685 295.440515 
L 226.205011 294.824227 
L 226.611337 295.479159 
L 227.017663 294.748661 
L 227.423989 295.167696 
L 228.642967 294.807481 
L 229.049293 295.437826 
L 229.45562 295.108737 
L 229.861946 295.33957 
L 231.893576 295.228249 
L 232.299902 295.243115 
L 232.706228 295.411513 
L 233.112554 295.266562 
L 233.51888 295.41187 
L 233.925207 295.184322 
L 234.331533 295.291158 
L 234.737859 295.034224 
L 235.956837 294.933595 
L 236.363163 295.427812 
L 236.769489 294.913362 
L 237.175815 295.41497 
L 237.582141 294.881111 
L 238.80112 294.877246 
L 239.207446 295.425582 
L 239.613772 294.905634 
L 241.239076 294.807035 
L 241.645402 294.150665 
L 242.051728 294.003397 
L 242.458054 295.244129 
L 242.86438 295.28166 
L 243.270707 290.104411 
L 243.677033 293.757241 
L 244.083359 294.126064 
L 244.489685 292.643822 
L 244.896011 295.306861 
L 245.708663 294.261073 
L 246.114989 291.379064 
L 246.521315 295.085468 
L 246.927641 295.288104 
L 247.333967 295.260175 
L 247.740294 294.888569 
L 248.14662 295.37707 
L 248.552946 295.180749 
L 248.959272 294.486531 
L 249.365598 293.038371 
L 249.771924 294.356423 
L 250.17825 293.782071 
L 250.584576 293.818144 
L 250.990902 294.779195 
L 251.397228 293.39115 
L 251.803554 294.948188 
L 252.209881 294.717683 
L 252.616207 295.367986 
L 253.022533 295.378119 
L 253.428859 295.14876 
L 253.835185 294.346005 
L 254.241511 295.109091 
L 254.647837 293.639647 
L 255.054163 295.043852 
L 255.460489 295.422127 
L 256.273141 295.299205 
L 256.679468 295.416932 
L 257.085794 294.733102 
L 257.49212 294.302623 
L 257.898446 294.662873 
L 258.304772 294.406061 
L 258.711098 294.58276 
L 259.117424 294.331659 
L 259.52375 294.652584 
L 259.930076 295.45875 
L 260.742728 295.484541 
L 261.555381 294.590589 
L 262.368033 295.167036 
L 262.774359 294.849776 
L 263.180685 294.797194 
L 263.587011 295.383456 
L 263.993337 295.264468 
L 264.399663 294.023261 
L 264.805989 295.235685 
L 265.212315 295.298624 
L 266.024968 293.237996 
L 266.431294 295.116611 
L 266.83762 295.426244 
L 267.243946 295.272229 
L 267.650272 295.447049 
L 268.056598 294.125477 
L 268.462924 295.445217 
L 268.86925 294.791226 
L 269.275576 294.627788 
L 269.681902 295.272817 
L 270.494555 295.405144 
L 270.900881 294.212339 
L 271.307207 294.947437 
L 271.713533 295.346993 
L 272.526185 294.962176 
L 272.932511 294.710525 
L 273.338837 294.641899 
L 273.745163 294.078715 
L 274.151489 295.346147 
L 274.557815 294.76068 
L 274.964142 295.209033 
L 275.370468 295.085571 
L 275.776794 294.469065 
L 276.589446 295.282994 
L 276.995772 293.922603 
L 277.402098 293.542136 
L 277.808424 294.646587 
L 278.21475 292.624064 
L 278.621076 292.954745 
L 279.027402 292.495735 
L 279.433729 292.457974 
L 280.246381 292.864127 
L 280.652707 293.470372 
L 281.059033 294.686859 
L 281.465359 292.61727 
L 281.871685 293.832999 
L 282.278011 293.750677 
L 282.684337 294.422465 
L 283.090663 293.694832 
L 283.496989 295.193382 
L 283.903316 289.375777 
L 284.309642 294.105253 
L 284.715968 294.946041 
L 285.122294 293.930382 
L 285.934946 294.063578 
L 286.341272 294.89008 
L 286.747598 294.10023 
L 287.153924 294.454409 
L 287.56025 294.359893 
L 287.966576 294.10541 
L 288.372902 294.328062 
L 288.779229 294.380965 
L 289.185555 294.945886 
L 289.591881 294.387271 
L 289.998207 294.468439 
L 290.404533 295.150009 
L 290.810859 295.447738 
L 291.217185 295.346061 
L 291.623511 294.576951 
L 292.436163 294.057433 
L 292.842489 295.406499 
L 293.248816 295.302189 
L 293.655142 294.538114 
L 294.061468 295.390105 
L 294.467794 293.614554 
L 294.87412 294.501002 
L 295.280446 293.855188 
L 296.093098 295.113784 
L 296.499424 295.168403 
L 296.90575 294.990324 
L 297.312076 293.883453 
L 297.718403 294.718451 
L 298.124729 294.983192 
L 298.531055 295.403839 
L 299.343707 294.220474 
L 299.750033 294.461254 
L 300.156359 293.894083 
L 300.562685 295.344847 
L 301.375337 291.94269 
L 301.781663 294.55329 
L 302.18799 294.568532 
L 302.594316 293.341101 
L 303.000642 294.641327 
L 303.406968 294.056272 
L 303.813294 294.12197 
L 304.21962 295.329479 
L 304.625946 294.701704 
L 305.032272 295.397845 
L 305.438598 295.280678 
L 305.844924 294.984237 
L 306.25125 294.878685 
L 306.657577 293.242974 
L 307.063903 295.296757 
L 307.470229 295.135808 
L 307.876555 294.390902 
L 308.282881 295.020786 
L 308.689207 291.04283 
L 309.095533 295.081797 
L 309.501859 294.910953 
L 309.908185 293.942808 
L 310.314511 293.737206 
L 311.939816 293.786576 
L 313.158794 293.840995 
L 313.56512 295.125401 
L 313.971446 294.752531 
L 314.377772 293.10956 
L 314.784098 293.199802 
L 315.190424 293.540592 
L 315.59675 295.268625 
L 316.815729 295.280425 
L 317.222055 295.026929 
L 317.628381 295.36269 
L 318.034707 295.378647 
L 318.441033 294.853282 
L 318.847359 295.143584 
L 319.253685 294.595452 
L 319.660011 294.891775 
L 320.066337 294.768438 
L 320.472664 294.894084 
L 320.87899 295.440314 
L 321.285316 294.962257 
L 321.691642 295.363534 
L 322.097968 294.72474 
L 322.504294 294.784794 
L 322.91062 295.223952 
L 323.316946 295.433638 
L 323.723272 294.574723 
L 324.129598 294.918206 
L 324.535924 294.461575 
L 324.942251 294.608139 
L 325.348577 295.218314 
L 325.754903 295.132437 
L 326.161229 294.830059 
L 326.567555 294.681832 
L 326.973881 294.832513 
L 327.380207 294.319853 
L 327.786533 295.386426 
L 328.599185 294.01668 
L 329.005511 295.305614 
L 329.818164 295.056588 
L 330.22449 294.444377 
L 330.630816 294.929566 
L 331.037142 293.697961 
L 331.849794 293.902815 
L 332.25612 293.450908 
L 333.068772 295.148432 
L 333.475098 294.927196 
L 333.881425 295.151865 
L 334.287751 294.552685 
L 334.694077 293.493707 
L 335.100403 294.809056 
L 335.506729 295.41278 
L 336.319381 294.076115 
L 337.132033 295.392573 
L 337.538359 294.833207 
L 338.351011 295.064853 
L 339.163664 295.473327 
L 339.56999 294.840737 
L 339.976316 295.192825 
L 340.382642 295.333694 
L 340.788968 295.25763 
L 341.195294 294.928131 
L 341.60162 294.00125 
L 342.414272 295.4415 
L 342.820598 294.371736 
L 343.226925 295.256318 
L 343.633251 294.461974 
L 344.445903 295.210512 
L 344.852229 295.203776 
L 345.258555 294.09343 
L 345.664881 295.138982 
L 346.071207 294.908489 
L 346.477533 294.886538 
L 346.883859 295.064607 
L 347.290185 294.562021 
L 347.696512 294.306361 
L 348.102838 293.716978 
L 348.509164 294.531678 
L 348.91549 294.397006 
L 349.321816 294.567731 
L 349.728142 293.885111 
L 350.134468 291.924442 
L 350.540794 293.757415 
L 350.94712 292.938397 
L 351.353446 294.470323 
L 351.759772 291.536082 
L 352.166099 293.941132 
L 352.572425 291.741708 
L 352.978751 292.158129 
L 353.385077 294.962087 
L 353.791403 294.282325 
L 354.197729 294.47417 
L 354.604055 295.034231 
L 355.010381 287.005765 
L 355.416707 292.793984 
L 355.823033 290.515422 
L 356.229359 294.456737 
L 356.635686 295.158679 
L 357.042012 294.561191 
L 357.448338 293.274422 
L 357.854664 294.631479 
L 358.26099 295.049079 
L 358.667316 295.04334 
L 359.073642 294.033546 
L 359.479968 295.27059 
L 360.29262 295.420149 
L 360.698946 293.884392 
L 361.105272 295.343156 
L 361.511599 295.275813 
L 362.324251 295.28828 
L 362.730577 295.110065 
L 363.136903 295.418262 
L 363.543229 295.370293 
L 363.949555 295.182646 
L 364.355881 295.392949 
L 365.574859 295.361245 
L 365.981186 294.942924 
L 366.793838 295.435875 
L 367.60649 293.811956 
L 368.012816 294.913062 
L 368.419142 295.422235 
L 368.825468 295.20035 
L 370.450773 295.476384 
L 370.857099 294.70429 
L 371.263425 295.457399 
L 371.669751 294.332495 
L 372.482403 295.353794 
L 372.888729 295.09652 
L 373.295055 295.396239 
L 373.701381 294.993469 
L 374.107707 295.428163 
L 374.514033 295.383573 
L 374.92036 294.86942 
L 375.326686 295.207295 
L 375.733012 294.777759 
L 376.139338 295.165173 
L 376.545664 293.979198 
L 376.95199 294.321067 
L 377.358316 295.113321 
L 377.764642 294.433652 
L 378.170968 294.074055 
L 378.577294 294.118462 
L 378.98362 295.185306 
L 379.389947 294.193105 
L 379.796273 294.970891 
L 380.202599 294.8702 
L 380.608925 294.897474 
L 381.015251 294.329547 
L 381.421577 295.242218 
L 381.827903 293.722287 
L 382.234229 295.394648 
L 382.640555 294.724517 
L 383.046881 295.186155 
L 383.453207 294.84009 
L 383.859534 294.776557 
L 384.26586 295.279369 
L 384.672186 294.991489 
L 385.078512 295.346236 
L 385.484838 293.088827 
L 385.891164 295.337599 
L 386.29749 294.614655 
L 386.703816 295.446979 
L 387.110142 294.970173 
L 387.516468 294.902114 
L 388.32912 295.254512 
L 388.735447 295.285918 
L 389.141773 294.704809 
L 389.548099 294.587258 
L 389.954425 295.195602 
L 390.360751 294.881216 
L 390.767077 295.211611 
L 391.173403 295.198794 
L 391.579729 294.685428 
L 391.986055 295.462637 
L 392.392381 294.883643 
L 392.798707 295.190098 
L 393.205034 295.040157 
L 393.61136 295.14237 
L 394.017686 295.386818 
L 394.424012 292.486767 
L 394.830338 295.431382 
L 395.236664 294.943061 
L 395.64299 295.230536 
L 396.049316 294.838482 
L 396.455642 295.26634 
L 396.861968 294.464357 
L 397.268294 295.22048 
L 397.674621 295.328832 
L 398.487273 295.134259 
L 398.487273 295.134259 
" style="fill:none;stroke:#ff7f0e;stroke-linecap:square;stroke-width:1.5;"/>
   </g>
   <g id="patch_3">
    <path d="M 57.6 307.584 
L 57.6 41.472 
" style="fill:none;stroke:#000000;stroke-linecap:square;stroke-linejoin:miter;stroke-width:0.8;"/>
   </g>
   <g id="patch_4">
    <path d="M 414.72 307.584 
L 414.72 41.472 
" style="fill:none;stroke:#000000;stroke-linecap:square;stroke-linejoin:miter;stroke-width:0.8;"/>
   </g>
   <g id="patch_5">
    <path d="M 57.6 307.584 
L 414.72 307.584 
" style="fill:none;stroke:#000000;stroke-linecap:square;stroke-linejoin:miter;stroke-width:0.8;"/>
   </g>
   <g id="patch_6">
    <path d="M 57.6 41.472 
L 414.72 41.472 
" style="fill:none;stroke:#000000;stroke-linecap:square;stroke-linejoin:miter;stroke-width:0.8;"/>
   </g>
  </g>
 </g>
 <defs>
  <clipPath id="pb4efc3cd9f">
   <rect height="266.112" width="357.12" x="57.6" y="41.472"/>
  </clipPath>
 </defs>
</svg>
