<?xml version="1.0" encoding="utf-8" standalone="no"?>
<!DOCTYPE svg PUBLIC "-//W3C//DTD SVG 1.1//EN"
  "http://www.w3.org/Graphics/SVG/1.1/DTD/svg11.dtd">
<!-- Created with matplotlib (https://matplotlib.org/) -->
<svg height="345.6pt" version="1.1" viewBox="0 0 460.8 345.6" width="460.8pt" xmlns="http://www.w3.org/2000/svg" xmlns:xlink="http://www.w3.org/1999/xlink">
 <defs>
  <style type="text/css">
*{stroke-linecap:butt;stroke-linejoin:round;}
  </style>
 </defs>
 <g id="figure_1">
  <g id="patch_1">
   <path d="M 0 345.6 
L 460.8 345.6 
L 460.8 0 
L 0 0 
z
" style="fill:#ffffff;"/>
  </g>
  <g id="axes_1">
   <g id="patch_2">
    <path d="M 57.6 307.584 
L 414.72 307.584 
L 414.72 41.472 
L 57.6 41.472 
z
" style="fill:#ffffff;"/>
   </g>
   <g id="matplotlib.axis_1">
    <g id="xtick_1">
     <g id="line2d_1">
      <defs>
       <path d="M 0 0 
L 0 3.5 
" id="m827510ae59" style="stroke:#000000;stroke-width:0.8;"/>
      </defs>
      <g>
       <use style="stroke:#000000;stroke-width:0.8;" x="73.832727" xlink:href="#m827510ae59" y="307.584"/>
      </g>
     </g>
     <g id="text_1">
      <!-- 0 -->
      <defs>
       <path d="M 31.78125 66.40625 
Q 24.171875 66.40625 20.328125 58.90625 
Q 16.5 51.421875 16.5 36.375 
Q 16.5 21.390625 20.328125 13.890625 
Q 24.171875 6.390625 31.78125 6.390625 
Q 39.453125 6.390625 43.28125 13.890625 
Q 47.125 21.390625 47.125 36.375 
Q 47.125 51.421875 43.28125 58.90625 
Q 39.453125 66.40625 31.78125 66.40625 
z
M 31.78125 74.21875 
Q 44.046875 74.21875 50.515625 64.515625 
Q 56.984375 54.828125 56.984375 36.375 
Q 56.984375 17.96875 50.515625 8.265625 
Q 44.046875 -1.421875 31.78125 -1.421875 
Q 19.53125 -1.421875 13.0625 8.265625 
Q 6.59375 17.96875 6.59375 36.375 
Q 6.59375 54.828125 13.0625 64.515625 
Q 19.53125 74.21875 31.78125 74.21875 
z
" id="DejaVuSans-48"/>
      </defs>
      <g transform="translate(70.651477 322.182437)scale(0.1 -0.1)">
       <use xlink:href="#DejaVuSans-48"/>
      </g>
     </g>
    </g>
    <g id="xtick_2">
     <g id="line2d_2">
      <g>
       <use style="stroke:#000000;stroke-width:0.8;" x="114.465336" xlink:href="#m827510ae59" y="307.584"/>
      </g>
     </g>
     <g id="text_2">
      <!-- 100 -->
      <defs>
       <path d="M 12.40625 8.296875 
L 28.515625 8.296875 
L 28.515625 63.921875 
L 10.984375 60.40625 
L 10.984375 69.390625 
L 28.421875 72.90625 
L 38.28125 72.90625 
L 38.28125 8.296875 
L 54.390625 8.296875 
L 54.390625 0 
L 12.40625 0 
z
" id="DejaVuSans-49"/>
      </defs>
      <g transform="translate(104.921586 322.182437)scale(0.1 -0.1)">
       <use xlink:href="#DejaVuSans-49"/>
       <use x="63.623047" xlink:href="#DejaVuSans-48"/>
       <use x="127.246094" xlink:href="#DejaVuSans-48"/>
      </g>
     </g>
    </g>
    <g id="xtick_3">
     <g id="line2d_3">
      <g>
       <use style="stroke:#000000;stroke-width:0.8;" x="155.097945" xlink:href="#m827510ae59" y="307.584"/>
      </g>
     </g>
     <g id="text_3">
      <!-- 200 -->
      <defs>
       <path d="M 19.1875 8.296875 
L 53.609375 8.296875 
L 53.609375 0 
L 7.328125 0 
L 7.328125 8.296875 
Q 12.9375 14.109375 22.625 23.890625 
Q 32.328125 33.6875 34.8125 36.53125 
Q 39.546875 41.84375 41.421875 45.53125 
Q 43.3125 49.21875 43.3125 52.78125 
Q 43.3125 58.59375 39.234375 62.25 
Q 35.15625 65.921875 28.609375 65.921875 
Q 23.96875 65.921875 18.8125 64.3125 
Q 13.671875 62.703125 7.8125 59.421875 
L 7.8125 69.390625 
Q 13.765625 71.78125 18.9375 73 
Q 24.125 74.21875 28.421875 74.21875 
Q 39.75 74.21875 46.484375 68.546875 
Q 53.21875 62.890625 53.21875 53.421875 
Q 53.21875 48.921875 51.53125 44.890625 
Q 49.859375 40.875 45.40625 35.40625 
Q 44.1875 33.984375 37.640625 27.21875 
Q 31.109375 20.453125 19.1875 8.296875 
z
" id="DejaVuSans-50"/>
      </defs>
      <g transform="translate(145.554195 322.182437)scale(0.1 -0.1)">
       <use xlink:href="#DejaVuSans-50"/>
       <use x="63.623047" xlink:href="#DejaVuSans-48"/>
       <use x="127.246094" xlink:href="#DejaVuSans-48"/>
      </g>
     </g>
    </g>
    <g id="xtick_4">
     <g id="line2d_4">
      <g>
       <use style="stroke:#000000;stroke-width:0.8;" x="195.730554" xlink:href="#m827510ae59" y="307.584"/>
      </g>
     </g>
     <g id="text_4">
      <!-- 300 -->
      <defs>
       <path d="M 40.578125 39.3125 
Q 47.65625 37.796875 51.625 33 
Q 55.609375 28.21875 55.609375 21.1875 
Q 55.609375 10.40625 48.1875 4.484375 
Q 40.765625 -1.421875 27.09375 -1.421875 
Q 22.515625 -1.421875 17.65625 -0.515625 
Q 12.796875 0.390625 7.625 2.203125 
L 7.625 11.71875 
Q 11.71875 9.328125 16.59375 8.109375 
Q 21.484375 6.890625 26.8125 6.890625 
Q 36.078125 6.890625 40.9375 10.546875 
Q 45.796875 14.203125 45.796875 21.1875 
Q 45.796875 27.640625 41.28125 31.265625 
Q 36.765625 34.90625 28.71875 34.90625 
L 20.21875 34.90625 
L 20.21875 43.015625 
L 29.109375 43.015625 
Q 36.375 43.015625 40.234375 45.921875 
Q 44.09375 48.828125 44.09375 54.296875 
Q 44.09375 59.90625 40.109375 62.90625 
Q 36.140625 65.921875 28.71875 65.921875 
Q 24.65625 65.921875 20.015625 65.03125 
Q 15.375 64.15625 9.8125 62.3125 
L 9.8125 71.09375 
Q 15.4375 72.65625 20.34375 73.4375 
Q 25.25 74.21875 29.59375 74.21875 
Q 40.828125 74.21875 47.359375 69.109375 
Q 53.90625 64.015625 53.90625 55.328125 
Q 53.90625 49.265625 50.4375 45.09375 
Q 46.96875 40.921875 40.578125 39.3125 
z
" id="DejaVuSans-51"/>
      </defs>
      <g transform="translate(186.186804 322.182437)scale(0.1 -0.1)">
       <use xlink:href="#DejaVuSans-51"/>
       <use x="63.623047" xlink:href="#DejaVuSans-48"/>
       <use x="127.246094" xlink:href="#DejaVuSans-48"/>
      </g>
     </g>
    </g>
    <g id="xtick_5">
     <g id="line2d_5">
      <g>
       <use style="stroke:#000000;stroke-width:0.8;" x="236.363163" xlink:href="#m827510ae59" y="307.584"/>
      </g>
     </g>
     <g id="text_5">
      <!-- 400 -->
      <defs>
       <path d="M 37.796875 64.3125 
L 12.890625 25.390625 
L 37.796875 25.390625 
z
M 35.203125 72.90625 
L 47.609375 72.90625 
L 47.609375 25.390625 
L 58.015625 25.390625 
L 58.015625 17.1875 
L 47.609375 17.1875 
L 47.609375 0 
L 37.796875 0 
L 37.796875 17.1875 
L 4.890625 17.1875 
L 4.890625 26.703125 
z
" id="DejaVuSans-52"/>
      </defs>
      <g transform="translate(226.819413 322.182437)scale(0.1 -0.1)">
       <use xlink:href="#DejaVuSans-52"/>
       <use x="63.623047" xlink:href="#DejaVuSans-48"/>
       <use x="127.246094" xlink:href="#DejaVuSans-48"/>
      </g>
     </g>
    </g>
    <g id="xtick_6">
     <g id="line2d_6">
      <g>
       <use style="stroke:#000000;stroke-width:0.8;" x="276.995772" xlink:href="#m827510ae59" y="307.584"/>
      </g>
     </g>
     <g id="text_6">
      <!-- 500 -->
      <defs>
       <path d="M 10.796875 72.90625 
L 49.515625 72.90625 
L 49.515625 64.59375 
L 19.828125 64.59375 
L 19.828125 46.734375 
Q 21.96875 47.46875 24.109375 47.828125 
Q 26.265625 48.1875 28.421875 48.1875 
Q 40.625 48.1875 47.75 41.5 
Q 54.890625 34.8125 54.890625 23.390625 
Q 54.890625 11.625 47.5625 5.09375 
Q 40.234375 -1.421875 26.90625 -1.421875 
Q 22.3125 -1.421875 17.546875 -0.640625 
Q 12.796875 0.140625 7.71875 1.703125 
L 7.71875 11.625 
Q 12.109375 9.234375 16.796875 8.0625 
Q 21.484375 6.890625 26.703125 6.890625 
Q 35.15625 6.890625 40.078125 11.328125 
Q 45.015625 15.765625 45.015625 23.390625 
Q 45.015625 31 40.078125 35.4375 
Q 35.15625 39.890625 26.703125 39.890625 
Q 22.75 39.890625 18.8125 39.015625 
Q 14.890625 38.140625 10.796875 36.28125 
z
" id="DejaVuSans-53"/>
      </defs>
      <g transform="translate(267.452022 322.182437)scale(0.1 -0.1)">
       <use xlink:href="#DejaVuSans-53"/>
       <use x="63.623047" xlink:href="#DejaVuSans-48"/>
       <use x="127.246094" xlink:href="#DejaVuSans-48"/>
      </g>
     </g>
    </g>
    <g id="xtick_7">
     <g id="line2d_7">
      <g>
       <use style="stroke:#000000;stroke-width:0.8;" x="317.628381" xlink:href="#m827510ae59" y="307.584"/>
      </g>
     </g>
     <g id="text_7">
      <!-- 600 -->
      <defs>
       <path d="M 33.015625 40.375 
Q 26.375 40.375 22.484375 35.828125 
Q 18.609375 31.296875 18.609375 23.390625 
Q 18.609375 15.53125 22.484375 10.953125 
Q 26.375 6.390625 33.015625 6.390625 
Q 39.65625 6.390625 43.53125 10.953125 
Q 47.40625 15.53125 47.40625 23.390625 
Q 47.40625 31.296875 43.53125 35.828125 
Q 39.65625 40.375 33.015625 40.375 
z
M 52.59375 71.296875 
L 52.59375 62.3125 
Q 48.875 64.0625 45.09375 64.984375 
Q 41.3125 65.921875 37.59375 65.921875 
Q 27.828125 65.921875 22.671875 59.328125 
Q 17.53125 52.734375 16.796875 39.40625 
Q 19.671875 43.65625 24.015625 45.921875 
Q 28.375 48.1875 33.59375 48.1875 
Q 44.578125 48.1875 50.953125 41.515625 
Q 57.328125 34.859375 57.328125 23.390625 
Q 57.328125 12.15625 50.6875 5.359375 
Q 44.046875 -1.421875 33.015625 -1.421875 
Q 20.359375 -1.421875 13.671875 8.265625 
Q 6.984375 17.96875 6.984375 36.375 
Q 6.984375 53.65625 15.1875 63.9375 
Q 23.390625 74.21875 37.203125 74.21875 
Q 40.921875 74.21875 44.703125 73.484375 
Q 48.484375 72.75 52.59375 71.296875 
z
" id="DejaVuSans-54"/>
      </defs>
      <g transform="translate(308.084631 322.182437)scale(0.1 -0.1)">
       <use xlink:href="#DejaVuSans-54"/>
       <use x="63.623047" xlink:href="#DejaVuSans-48"/>
       <use x="127.246094" xlink:href="#DejaVuSans-48"/>
      </g>
     </g>
    </g>
    <g id="xtick_8">
     <g id="line2d_8">
      <g>
       <use style="stroke:#000000;stroke-width:0.8;" x="358.26099" xlink:href="#m827510ae59" y="307.584"/>
      </g>
     </g>
     <g id="text_8">
      <!-- 700 -->
      <defs>
       <path d="M 8.203125 72.90625 
L 55.078125 72.90625 
L 55.078125 68.703125 
L 28.609375 0 
L 18.3125 0 
L 43.21875 64.59375 
L 8.203125 64.59375 
z
" id="DejaVuSans-55"/>
      </defs>
      <g transform="translate(348.71724 322.182437)scale(0.1 -0.1)">
       <use xlink:href="#DejaVuSans-55"/>
       <use x="63.623047" xlink:href="#DejaVuSans-48"/>
       <use x="127.246094" xlink:href="#DejaVuSans-48"/>
      </g>
     </g>
    </g>
    <g id="xtick_9">
     <g id="line2d_9">
      <g>
       <use style="stroke:#000000;stroke-width:0.8;" x="398.893599" xlink:href="#m827510ae59" y="307.584"/>
      </g>
     </g>
     <g id="text_9">
      <!-- 800 -->
      <defs>
       <path d="M 31.78125 34.625 
Q 24.75 34.625 20.71875 30.859375 
Q 16.703125 27.09375 16.703125 20.515625 
Q 16.703125 13.921875 20.71875 10.15625 
Q 24.75 6.390625 31.78125 6.390625 
Q 38.8125 6.390625 42.859375 10.171875 
Q 46.921875 13.96875 46.921875 20.515625 
Q 46.921875 27.09375 42.890625 30.859375 
Q 38.875 34.625 31.78125 34.625 
z
M 21.921875 38.8125 
Q 15.578125 40.375 12.03125 44.71875 
Q 8.5 49.078125 8.5 55.328125 
Q 8.5 64.0625 14.71875 69.140625 
Q 20.953125 74.21875 31.78125 74.21875 
Q 42.671875 74.21875 48.875 69.140625 
Q 55.078125 64.0625 55.078125 55.328125 
Q 55.078125 49.078125 51.53125 44.71875 
Q 48 40.375 41.703125 38.8125 
Q 48.828125 37.15625 52.796875 32.3125 
Q 56.78125 27.484375 56.78125 20.515625 
Q 56.78125 9.90625 50.3125 4.234375 
Q 43.84375 -1.421875 31.78125 -1.421875 
Q 19.734375 -1.421875 13.25 4.234375 
Q 6.78125 9.90625 6.78125 20.515625 
Q 6.78125 27.484375 10.78125 32.3125 
Q 14.796875 37.15625 21.921875 38.8125 
z
M 18.3125 54.390625 
Q 18.3125 48.734375 21.84375 45.5625 
Q 25.390625 42.390625 31.78125 42.390625 
Q 38.140625 42.390625 41.71875 45.5625 
Q 45.3125 48.734375 45.3125 54.390625 
Q 45.3125 60.0625 41.71875 63.234375 
Q 38.140625 66.40625 31.78125 66.40625 
Q 25.390625 66.40625 21.84375 63.234375 
Q 18.3125 60.0625 18.3125 54.390625 
z
" id="DejaVuSans-56"/>
      </defs>
      <g transform="translate(389.349849 322.182437)scale(0.1 -0.1)">
       <use xlink:href="#DejaVuSans-56"/>
       <use x="63.623047" xlink:href="#DejaVuSans-48"/>
       <use x="127.246094" xlink:href="#DejaVuSans-48"/>
      </g>
     </g>
    </g>
   </g>
   <g id="matplotlib.axis_2">
    <g id="ytick_1">
     <g id="line2d_10">
      <defs>
       <path d="M 0 0 
L -3.5 0 
" id="m97b3e49090" style="stroke:#000000;stroke-width:0.8;"/>
      </defs>
      <g>
       <use style="stroke:#000000;stroke-width:0.8;" x="57.6" xlink:href="#m97b3e49090" y="295.502126"/>
      </g>
     </g>
     <g id="text_10">
      <!-- 0.0000 -->
      <defs>
       <path d="M 10.6875 12.40625 
L 21 12.40625 
L 21 0 
L 10.6875 0 
z
" id="DejaVuSans-46"/>
      </defs>
      <g transform="translate(15.609375 299.301344)scale(0.1 -0.1)">
       <use xlink:href="#DejaVuSans-48"/>
       <use x="63.623047" xlink:href="#DejaVuSans-46"/>
       <use x="95.410156" xlink:href="#DejaVuSans-48"/>
       <use x="159.033203" xlink:href="#DejaVuSans-48"/>
       <use x="222.65625" xlink:href="#DejaVuSans-48"/>
       <use x="286.279297" xlink:href="#DejaVuSans-48"/>
      </g>
     </g>
    </g>
    <g id="ytick_2">
     <g id="line2d_11">
      <g>
       <use style="stroke:#000000;stroke-width:0.8;" x="57.6" xlink:href="#m97b3e49090" y="258.797613"/>
      </g>
     </g>
     <g id="text_11">
      <!-- 0.0025 -->
      <g transform="translate(15.609375 262.596832)scale(0.1 -0.1)">
       <use xlink:href="#DejaVuSans-48"/>
       <use x="63.623047" xlink:href="#DejaVuSans-46"/>
       <use x="95.410156" xlink:href="#DejaVuSans-48"/>
       <use x="159.033203" xlink:href="#DejaVuSans-48"/>
       <use x="222.65625" xlink:href="#DejaVuSans-50"/>
       <use x="286.279297" xlink:href="#DejaVuSans-53"/>
      </g>
     </g>
    </g>
    <g id="ytick_3">
     <g id="line2d_12">
      <g>
       <use style="stroke:#000000;stroke-width:0.8;" x="57.6" xlink:href="#m97b3e49090" y="222.0931"/>
      </g>
     </g>
     <g id="text_12">
      <!-- 0.0050 -->
      <g transform="translate(15.609375 225.892319)scale(0.1 -0.1)">
       <use xlink:href="#DejaVuSans-48"/>
       <use x="63.623047" xlink:href="#DejaVuSans-46"/>
       <use x="95.410156" xlink:href="#DejaVuSans-48"/>
       <use x="159.033203" xlink:href="#DejaVuSans-48"/>
       <use x="222.65625" xlink:href="#DejaVuSans-53"/>
       <use x="286.279297" xlink:href="#DejaVuSans-48"/>
      </g>
     </g>
    </g>
    <g id="ytick_4">
     <g id="line2d_13">
      <g>
       <use style="stroke:#000000;stroke-width:0.8;" x="57.6" xlink:href="#m97b3e49090" y="185.388587"/>
      </g>
     </g>
     <g id="text_13">
      <!-- 0.0075 -->
      <g transform="translate(15.609375 189.187806)scale(0.1 -0.1)">
       <use xlink:href="#DejaVuSans-48"/>
       <use x="63.623047" xlink:href="#DejaVuSans-46"/>
       <use x="95.410156" xlink:href="#DejaVuSans-48"/>
       <use x="159.033203" xlink:href="#DejaVuSans-48"/>
       <use x="222.65625" xlink:href="#DejaVuSans-55"/>
       <use x="286.279297" xlink:href="#DejaVuSans-53"/>
      </g>
     </g>
    </g>
    <g id="ytick_5">
     <g id="line2d_14">
      <g>
       <use style="stroke:#000000;stroke-width:0.8;" x="57.6" xlink:href="#m97b3e49090" y="148.684075"/>
      </g>
     </g>
     <g id="text_14">
      <!-- 0.0100 -->
      <g transform="translate(15.609375 152.483293)scale(0.1 -0.1)">
       <use xlink:href="#DejaVuSans-48"/>
       <use x="63.623047" xlink:href="#DejaVuSans-46"/>
       <use x="95.410156" xlink:href="#DejaVuSans-48"/>
       <use x="159.033203" xlink:href="#DejaVuSans-49"/>
       <use x="222.65625" xlink:href="#DejaVuSans-48"/>
       <use x="286.279297" xlink:href="#DejaVuSans-48"/>
      </g>
     </g>
    </g>
    <g id="ytick_6">
     <g id="line2d_15">
      <g>
       <use style="stroke:#000000;stroke-width:0.8;" x="57.6" xlink:href="#m97b3e49090" y="111.979562"/>
      </g>
     </g>
     <g id="text_15">
      <!-- 0.0125 -->
      <g transform="translate(15.609375 115.778781)scale(0.1 -0.1)">
       <use xlink:href="#DejaVuSans-48"/>
       <use x="63.623047" xlink:href="#DejaVuSans-46"/>
       <use x="95.410156" xlink:href="#DejaVuSans-48"/>
       <use x="159.033203" xlink:href="#DejaVuSans-49"/>
       <use x="222.65625" xlink:href="#DejaVuSans-50"/>
       <use x="286.279297" xlink:href="#DejaVuSans-53"/>
      </g>
     </g>
    </g>
    <g id="ytick_7">
     <g id="line2d_16">
      <g>
       <use style="stroke:#000000;stroke-width:0.8;" x="57.6" xlink:href="#m97b3e49090" y="75.275049"/>
      </g>
     </g>
     <g id="text_16">
      <!-- 0.0150 -->
      <g transform="translate(15.609375 79.074268)scale(0.1 -0.1)">
       <use xlink:href="#DejaVuSans-48"/>
       <use x="63.623047" xlink:href="#DejaVuSans-46"/>
       <use x="95.410156" xlink:href="#DejaVuSans-48"/>
       <use x="159.033203" xlink:href="#DejaVuSans-49"/>
       <use x="222.65625" xlink:href="#DejaVuSans-53"/>
       <use x="286.279297" xlink:href="#DejaVuSans-48"/>
      </g>
     </g>
    </g>
   </g>
   <g id="line2d_17">
    <path clip-path="url(#pb261b03f10)" d="M 73.832727 109.278695 
L 74.239053 92.039709 
L 74.645379 89.306168 
L 75.051706 89.735916 
L 76.270684 85.992445 
L 76.67701 86.739621 
L 77.083336 86.050771 
L 77.489662 87.016066 
L 77.895988 87.502222 
L 78.302314 86.911399 
L 78.70864 87.768905 
L 79.114966 87.043411 
L 79.521293 90.266554 
L 79.927619 88.546446 
L 80.333945 88.924918 
L 80.740271 88.724387 
L 81.146597 89.705831 
L 81.959249 89.782367 
L 82.365575 90.067133 
L 82.771901 89.803085 
L 83.178227 91.066527 
L 83.584553 91.188495 
L 83.99088 91.15615 
L 84.397206 90.706351 
L 84.803532 92.989859 
L 85.209858 93.08653 
L 85.616184 92.306896 
L 86.02251 92.654209 
L 86.428836 91.716027 
L 86.835162 101.658582 
L 87.241488 91.798475 
L 87.647814 93.318939 
L 88.05414 93.147838 
L 88.866793 93.097063 
L 89.273119 93.634071 
L 89.679445 97.466922 
L 90.085771 96.008165 
L 90.898423 96.824033 
L 91.304749 96.896158 
L 91.711075 96.752731 
L 92.117401 97.668889 
L 92.523727 95.867599 
L 92.930053 96.623402 
L 93.33638 94.62845 
L 93.742706 94.400504 
L 94.149032 94.658508 
L 94.555358 92.42058 
L 94.961684 92.946446 
L 95.36801 92.598997 
L 95.774336 91.370397 
L 96.180662 92.363238 
L 96.586988 92.437496 
L 96.993314 92.935929 
L 97.39964 91.879441 
L 97.805967 92.72158 
L 98.212293 91.700578 
L 99.024945 91.581832 
L 99.431271 91.200595 
L 101.056575 91.98045 
L 101.462901 92.070476 
L 101.869227 91.425234 
L 103.088206 90.868699 
L 103.494532 91.607216 
L 103.900858 91.122826 
L 104.307184 91.016014 
L 104.71351 91.214668 
L 105.119836 90.470662 
L 105.526162 90.672822 
L 105.932488 90.173207 
L 106.338814 90.193158 
L 106.745141 89.682104 
L 107.151467 89.866937 
L 107.557793 89.082497 
L 107.964119 89.299502 
L 108.370445 88.928426 
L 108.776771 89.147249 
L 109.183097 87.924832 
L 109.589423 87.777907 
L 109.995749 87.226819 
L 110.402075 86.368581 
L 110.808401 86.43472 
L 112.02738 84.486938 
L 112.433706 84.049533 
L 112.840032 83.92935 
L 113.246358 83.246303 
L 113.652684 83.143745 
L 114.05901 83.385006 
L 114.465336 83.215069 
L 114.871662 83.193206 
L 115.277988 84.095152 
L 115.684314 85.573205 
L 116.090641 83.816164 
L 116.496967 84.705392 
L 116.903293 84.796029 
L 117.309619 85.038095 
L 117.715945 84.382562 
L 118.122271 85.325175 
L 118.934923 86.569012 
L 119.341249 86.773906 
L 119.747575 87.203214 
L 120.153901 87.976937 
L 120.560228 88.106724 
L 120.966554 87.933404 
L 121.37288 88.447923 
L 121.779206 88.637203 
L 122.185532 88.961896 
L 122.591858 89.80528 
L 122.998184 88.580619 
L 123.40451 89.130876 
L 123.810836 89.269686 
L 124.217162 90.19257 
L 124.623488 89.05104 
L 125.029815 88.786664 
L 125.436141 88.664127 
L 125.842467 87.680421 
L 126.248793 88.930102 
L 126.655119 87.66995 
L 127.061445 87.843626 
L 127.467771 87.535732 
L 127.874097 86.649278 
L 128.280423 86.075194 
L 129.093075 85.85605 
L 129.905728 84.207432 
L 130.312054 84.062948 
L 130.71838 83.029849 
L 131.124706 82.51559 
L 131.531032 82.360671 
L 133.156336 80.920008 
L 133.562662 81.121333 
L 133.968989 81.125189 
L 134.375315 81.483712 
L 134.781641 80.982232 
L 135.187967 81.953566 
L 135.594293 81.059598 
L 136.000619 81.200245 
L 136.406945 80.506021 
L 136.813271 80.879461 
L 137.219597 80.878939 
L 138.438575 81.189859 
L 138.844902 81.19411 
L 139.251228 83.181787 
L 139.657554 81.370801 
L 140.06388 81.359735 
L 140.470206 81.782703 
L 140.876532 81.061921 
L 141.282858 80.659205 
L 141.689184 81.139904 
L 142.09551 81.950556 
L 142.501836 81.797638 
L 142.908162 81.334744 
L 143.314489 82.449558 
L 144.533467 81.344666 
L 144.939793 81.071324 
L 145.346119 81.376497 
L 145.752445 82.730976 
L 146.158771 81.913273 
L 146.971423 83.066086 
L 147.377749 82.246466 
L 148.190402 82.453922 
L 149.003054 82.870123 
L 149.40938 84.160823 
L 149.815706 83.24113 
L 150.222032 83.842807 
L 150.628358 83.711822 
L 151.034684 83.802937 
L 151.44101 83.142504 
L 151.847336 83.97847 
L 152.253663 85.112236 
L 152.659989 85.762488 
L 153.472641 84.081513 
L 153.878967 83.799706 
L 154.285293 86.520008 
L 154.691619 85.281559 
L 155.097945 85.408499 
L 155.504271 85.684926 
L 155.910597 84.652325 
L 156.316923 84.630219 
L 156.72325 84.912861 
L 157.129576 84.544916 
L 157.535902 84.897771 
L 157.942228 84.805636 
L 158.348554 84.496372 
L 158.75488 84.413056 
L 159.161206 84.025774 
L 159.567532 84.191564 
L 159.973858 83.969335 
L 160.380184 83.322143 
L 160.78651 83.835846 
L 161.599163 83.280641 
L 162.005489 83.554269 
L 162.411815 83.053067 
L 162.818141 82.934591 
L 163.224467 82.979709 
L 163.630793 82.731718 
L 164.037119 83.869626 
L 164.443445 82.511491 
L 164.849771 83.155296 
L 165.256097 82.439988 
L 165.662423 81.316031 
L 166.06875 81.672704 
L 166.475076 80.163593 
L 166.881402 81.184949 
L 167.287728 80.694552 
L 167.694054 80.51971 
L 168.10038 81.008336 
L 169.319358 81.359357 
L 169.725684 80.081181 
L 170.13201 82.783205 
L 170.538337 82.052348 
L 170.944663 82.559718 
L 171.350989 83.356268 
L 171.757315 82.967106 
L 172.163641 82.785328 
L 172.569967 83.62788 
L 172.976293 83.786198 
L 173.382619 83.335707 
L 173.788945 91.047004 
L 174.195271 81.414894 
L 174.601597 83.137679 
L 175.007924 83.223589 
L 175.41425 83.816269 
L 175.820576 82.981536 
L 176.226902 83.124215 
L 176.633228 83.811558 
L 177.039554 83.404933 
L 177.44588 84.658301 
L 177.852206 84.817391 
L 178.258532 86.044855 
L 178.664858 84.751554 
L 179.071184 88.405071 
L 179.477511 86.928256 
L 179.883837 87.517683 
L 180.290163 87.819954 
L 180.696489 87.692879 
L 181.102815 88.321757 
L 181.915467 88.012378 
L 182.321793 87.742099 
L 182.728119 88.847925 
L 183.134445 86.656415 
L 183.540771 85.125668 
L 183.947098 85.815428 
L 184.353424 85.551461 
L 184.75975 85.651886 
L 185.166076 85.951537 
L 185.572402 85.705851 
L 185.978728 86.062337 
L 186.385054 85.391367 
L 186.79138 85.0773 
L 187.197706 84.375198 
L 187.604032 83.122683 
L 188.823011 80.86773 
L 189.635663 79.281022 
L 190.041989 78.387262 
L 190.448315 78.329501 
L 191.260967 76.668192 
L 191.667293 75.223987 
L 192.073619 76.609413 
L 192.479945 74.359465 
L 192.886271 73.703215 
L 193.292598 72.285282 
L 193.698924 72.592075 
L 194.10525 72.69196 
L 194.511576 73.235501 
L 194.917902 72.189146 
L 195.324228 71.787374 
L 195.730554 72.023347 
L 196.13688 73.033963 
L 196.543206 72.507067 
L 196.949532 72.478433 
L 197.355858 72.75737 
L 197.762185 72.416079 
L 198.168511 70.866926 
L 198.574837 69.92731 
L 198.981163 71.353863 
L 199.387489 74.134046 
L 199.793815 72.186835 
L 200.200141 72.150822 
L 200.606467 70.770647 
L 201.012793 71.707122 
L 201.419119 70.585044 
L 202.231772 72.502363 
L 202.638098 72.865859 
L 203.044424 69.882553 
L 203.45075 70.73793 
L 203.857076 72.610061 
L 204.263402 71.580677 
L 204.669728 72.1057 
L 205.076054 70.933068 
L 205.48238 70.744297 
L 205.888706 70.906834 
L 206.701359 69.372338 
L 207.107685 69.596859 
L 207.514011 68.469901 
L 207.920337 69.164203 
L 208.326663 67.433539 
L 208.732989 68.238746 
L 209.139315 67.825291 
L 209.545641 67.602473 
L 209.951967 67.846789 
L 210.358293 65.079928 
L 210.764619 68.943074 
L 211.170946 68.675513 
L 211.577272 67.774559 
L 211.983598 66.339538 
L 212.389924 66.522898 
L 212.79625 65.763603 
L 213.202576 67.164166 
L 213.608902 66.929593 
L 214.015228 66.969674 
L 214.421554 67.562599 
L 214.82788 67.573826 
L 215.234206 66.124043 
L 215.640532 66.932926 
L 216.453185 67.093426 
L 216.859511 68.217179 
L 217.265837 67.88414 
L 217.672163 68.617141 
L 218.078489 67.91768 
L 218.484815 67.59723 
L 219.297467 67.406432 
L 219.703793 67.761514 
L 220.516446 67.638725 
L 220.922772 67.803796 
L 221.329098 65.727748 
L 221.735424 67.179028 
L 222.14175 67.333563 
L 222.548076 67.732889 
L 222.954402 67.717374 
L 223.360728 68.431326 
L 223.767054 68.181462 
L 224.17338 66.994139 
L 224.579706 69.301914 
L 224.986033 67.973223 
L 225.392359 68.456179 
L 225.798685 68.576221 
L 226.205011 68.994081 
L 226.611337 70.050952 
L 227.017663 69.919301 
L 227.830315 68.960598 
L 228.236641 69.49401 
L 228.642967 69.053637 
L 229.049293 67.668102 
L 229.45562 68.439526 
L 231.893576 67.219547 
L 232.299902 67.404776 
L 232.706228 66.953167 
L 233.112554 66.805997 
L 233.51888 66.5277 
L 233.925207 66.461697 
L 234.331533 65.993365 
L 234.737859 66.207934 
L 235.144185 66.179687 
L 235.956837 65.519496 
L 236.769489 65.009817 
L 238.80112 64.31312 
L 239.207446 64.476318 
L 239.613772 63.43942 
L 240.020098 65.203842 
L 240.426424 65.352546 
L 240.83275 65.04442 
L 241.239076 65.560438 
L 242.051728 65.667085 
L 242.458054 66.15016 
L 242.86438 66.300313 
L 243.677033 71.156694 
L 244.083359 69.007008 
L 244.489685 69.874191 
L 245.708663 68.084814 
L 246.114989 68.261704 
L 246.521315 68.584684 
L 247.333967 67.68759 
L 247.740294 66.655658 
L 248.14662 68.576985 
L 248.959272 67.06281 
L 249.365598 68.088194 
L 249.771924 67.064664 
L 250.17825 67.089856 
L 250.990902 66.686374 
L 251.397228 66.22034 
L 251.803554 66.792887 
L 252.209881 65.524913 
L 252.616207 65.060417 
L 253.022533 64.417807 
L 253.428859 65.025258 
L 253.835185 64.101266 
L 254.241511 63.853984 
L 254.647837 62.90029 
L 255.054163 63.212114 
L 255.460489 62.883837 
L 255.866815 63.017482 
L 256.273141 62.130984 
L 256.679468 61.749182 
L 257.085794 62.024765 
L 257.49212 62.492402 
L 257.898446 61.7927 
L 258.304772 61.83979 
L 258.711098 61.715144 
L 259.117424 60.878661 
L 259.930076 62.405964 
L 260.336402 61.961088 
L 261.149054 62.12438 
L 261.555381 62.164679 
L 261.961707 62.614377 
L 262.368033 62.357943 
L 262.774359 63.14102 
L 263.180685 63.553906 
L 263.587011 64.810474 
L 263.993337 64.069258 
L 264.399663 64.030727 
L 265.212315 64.721927 
L 265.618641 64.445308 
L 266.024968 64.510127 
L 266.431294 63.309465 
L 267.650272 63.430943 
L 268.056598 62.450624 
L 268.462924 63.220455 
L 269.275576 63.045907 
L 269.681902 62.392279 
L 270.088228 64.7515 
L 270.900881 62.215037 
L 271.307207 61.271806 
L 271.713533 61.593119 
L 272.119859 61.664914 
L 272.526185 62.02279 
L 272.932511 62.554692 
L 273.338837 62.456365 
L 273.745163 61.735334 
L 274.151489 62.097618 
L 274.557815 61.83188 
L 274.964142 61.2212 
L 275.370468 61.005186 
L 275.776794 61.554839 
L 276.589446 61.652066 
L 276.995772 61.108088 
L 277.402098 70.672914 
L 277.808424 68.286127 
L 278.21475 68.305954 
L 278.621076 62.909339 
L 279.027402 61.924445 
L 279.433729 59.492922 
L 279.840055 60.803844 
L 280.246381 59.987501 
L 280.652707 60.529441 
L 281.059033 64.897469 
L 281.465359 61.705948 
L 281.871685 61.011688 
L 282.278011 60.673628 
L 282.684337 59.936678 
L 283.090663 59.751518 
L 283.496989 59.854747 
L 283.903316 60.083394 
L 284.309642 65.892309 
L 284.715968 64.640099 
L 285.122294 66.837433 
L 285.52862 65.40459 
L 285.934946 62.92254 
L 286.747598 62.024908 
L 287.153924 61.967274 
L 287.966576 61.540081 
L 288.372902 62.297664 
L 289.185555 60.926109 
L 289.591881 60.624287 
L 289.998207 60.11345 
L 290.404533 64.305168 
L 290.810859 62.118612 
L 291.217185 60.584366 
L 291.623511 59.538408 
L 292.029837 63.465913 
L 292.436163 60.90325 
L 292.842489 59.580317 
L 293.248816 56.777425 
L 293.655142 61.042194 
L 294.061468 60.891192 
L 294.467794 62.613503 
L 294.87412 58.736651 
L 295.280446 57.864966 
L 295.686772 59.955062 
L 296.093098 58.932049 
L 296.499424 56.868097 
L 296.90575 56.769939 
L 297.312076 55.931288 
L 297.718403 58.111725 
L 298.124729 54.72857 
L 298.531055 56.959777 
L 298.937381 55.460478 
L 299.343707 55.056164 
L 300.156359 56.094216 
L 300.562685 55.951695 
L 300.969011 56.694563 
L 301.375337 61.407524 
L 301.781663 58.256115 
L 302.18799 57.02445 
L 302.594316 59.840813 
L 303.000642 58.337013 
L 303.406968 57.614576 
L 303.813294 56.238184 
L 304.21962 60.084569 
L 304.625946 59.594349 
L 305.032272 58.222355 
L 305.438598 59.513292 
L 305.844924 59.678442 
L 306.25125 59.383969 
L 307.063903 59.940731 
L 307.470229 59.908964 
L 308.689207 60.555572 
L 309.095533 60.384666 
L 309.908185 60.300727 
L 310.720837 60.010216 
L 311.127163 59.628058 
L 311.53349 60.016267 
L 311.939816 59.695823 
L 312.346142 58.570042 
L 312.752468 59.119753 
L 313.158794 58.796628 
L 313.56512 58.800688 
L 313.971446 58.205718 
L 314.377772 55.840613 
L 314.784098 58.171816 
L 316.003077 58.862533 
L 316.409403 59.090459 
L 316.815729 61.820076 
L 317.222055 59.787356 
L 317.628381 59.675456 
L 318.034707 58.804554 
L 318.441033 59.109468 
L 318.847359 58.887202 
L 319.253685 59.386412 
L 319.660011 58.773896 
L 320.066337 59.166178 
L 320.472664 58.691613 
L 320.87899 59.941865 
L 321.285316 58.003364 
L 321.691642 58.984427 
L 322.504294 59.440708 
L 322.91062 59.571193 
L 323.316946 59.552195 
L 323.723272 59.965914 
L 324.129598 59.98491 
L 324.535924 59.492434 
L 324.942251 60.097296 
L 325.348577 68.996987 
L 325.754903 65.042082 
L 326.161229 62.914966 
L 326.973881 60.673354 
L 327.380207 60.683131 
L 327.786533 60.466636 
L 328.192859 59.759508 
L 328.599185 59.609084 
L 329.005511 59.805955 
L 329.411838 59.100346 
L 330.22449 58.785867 
L 330.630816 57.920142 
L 331.443468 57.278817 
L 331.849794 56.508274 
L 332.25612 57.250129 
L 332.662446 56.62381 
L 333.068772 57.123774 
L 333.475098 56.351108 
L 333.881425 55.993446 
L 334.287751 56.086948 
L 334.694077 53.568 
L 335.100403 55.507739 
L 335.913055 55.549078 
L 336.319381 55.218322 
L 336.725707 55.88345 
L 337.132033 57.260418 
L 337.538359 56.973439 
L 337.944685 57.955556 
L 338.351011 58.122289 
L 338.757338 57.350378 
L 339.163664 57.660271 
L 339.976316 57.925547 
L 340.382642 58.63028 
L 340.788968 58.532655 
L 341.195294 58.298153 
L 341.60162 58.342852 
L 342.007946 58.592469 
L 342.820598 58.62798 
L 343.226925 58.657195 
L 343.633251 58.991191 
L 344.039577 58.986345 
L 344.445903 58.847214 
L 344.852229 59.549147 
L 345.258555 59.238962 
L 345.664881 59.114826 
L 346.071207 59.476196 
L 346.477533 59.080416 
L 346.883859 59.16593 
L 347.696512 58.700342 
L 348.102838 59.567755 
L 348.509164 59.37363 
L 348.91549 58.601643 
L 349.321816 58.641703 
L 349.728142 58.530644 
L 350.540794 57.870859 
L 350.94712 58.361114 
L 351.353446 58.546826 
L 351.759772 58.515554 
L 352.166099 58.273 
L 352.572425 57.411222 
L 352.978751 57.929631 
L 353.385077 57.434293 
L 353.791403 58.610269 
L 354.604055 58.72483 
L 355.010381 57.846994 
L 355.823033 58.281695 
L 356.229359 58.076606 
L 356.635686 57.719642 
L 357.042012 58.994697 
L 357.448338 58.384463 
L 358.667316 59.839148 
L 359.073642 64.418824 
L 359.479968 60.356605 
L 359.886294 60.338206 
L 360.29262 59.923005 
L 360.698946 60.462535 
L 361.105272 60.604663 
L 361.917925 61.570577 
L 362.324251 62.006271 
L 362.730577 60.720113 
L 363.136903 62.807716 
L 364.355881 62.638304 
L 364.762207 63.903852 
L 365.168533 61.587536 
L 365.574859 62.528916 
L 365.981186 62.630817 
L 366.387512 63.175295 
L 366.793838 62.953311 
L 367.200164 63.500938 
L 367.60649 62.914025 
L 368.012816 62.985188 
L 368.419142 63.480665 
L 368.825468 63.694298 
L 369.231794 63.659908 
L 369.63812 64.573354 
L 370.044446 64.610588 
L 370.450773 64.791499 
L 370.857099 64.48232 
L 371.263425 65.767089 
L 371.669751 65.780448 
L 372.076077 65.629928 
L 372.482403 67.471798 
L 372.888729 65.858395 
L 373.295055 66.625367 
L 373.701381 66.032389 
L 374.107707 66.128991 
L 374.514033 66.009131 
L 374.92036 66.158574 
L 375.326686 65.925547 
L 375.733012 66.129298 
L 376.545664 65.396245 
L 376.95199 65.63256 
L 377.764642 65.446648 
L 378.170968 65.224571 
L 378.577294 65.376814 
L 378.98362 65.009898 
L 379.389947 65.14408 
L 379.796273 64.715858 
L 380.608925 64.243076 
L 381.421577 64.54395 
L 381.827903 64.108331 
L 382.234229 64.131888 
L 383.046881 63.047798 
L 383.453207 63.188635 
L 383.859534 62.939626 
L 384.26586 63.053917 
L 385.078512 62.702562 
L 385.484838 62.865103 
L 385.891164 62.63084 
L 387.516468 62.579643 
L 387.922794 62.708789 
L 388.32912 62.611224 
L 388.735447 62.391108 
L 389.141773 62.297778 
L 389.548099 62.481527 
L 389.954425 62.296503 
L 390.360751 61.718053 
L 390.767077 62.090366 
L 391.173403 62.687051 
L 391.579729 62.724145 
L 392.798707 61.083472 
L 394.017686 60.038403 
L 394.424012 59.89995 
L 394.830338 59.120702 
L 395.64299 58.241432 
L 396.861968 57.488679 
L 397.268294 57.95588 
L 397.674621 57.276151 
L 398.080947 57.138267 
L 398.487273 57.415614 
L 398.487273 57.415614 
" style="fill:none;stroke:#1f77b4;stroke-linecap:square;stroke-width:1.5;"/>
   </g>
   <g id="line2d_18">
    <path clip-path="url(#pb261b03f10)" d="M 73.832727 294.517482 
L 74.645379 295.055115 
L 75.051706 294.683385 
L 75.458032 294.797712 
L 75.864358 295.330275 
L 76.270684 294.606834 
L 76.67701 294.99779 
L 77.083336 295.056992 
L 77.489662 295.276739 
L 78.302314 295.029861 
L 78.70864 295.302949 
L 79.521293 295.345549 
L 79.927619 295.001823 
L 80.333945 295.25743 
L 80.740271 294.448656 
L 81.146597 295.386397 
L 81.552923 294.005943 
L 81.959249 294.767449 
L 82.365575 295.12692 
L 82.771901 294.409424 
L 83.584553 294.941924 
L 83.99088 294.718746 
L 84.397206 295.033754 
L 84.803532 294.518893 
L 85.209858 294.560375 
L 85.616184 294.726165 
L 86.02251 292.396343 
L 86.428836 294.515961 
L 86.835162 294.938599 
L 87.241488 294.928209 
L 87.647814 294.429911 
L 88.05414 294.859994 
L 88.460466 294.360732 
L 88.866793 294.83848 
L 89.273119 295.085748 
L 89.679445 294.383638 
L 90.085771 295.347647 
L 91.711075 295.21904 
L 92.523727 295.18081 
L 92.930053 294.181689 
L 93.33638 294.264044 
L 93.742706 293.746782 
L 94.149032 294.164362 
L 94.555358 293.372581 
L 94.961684 293.111893 
L 95.36801 292.134141 
L 96.180662 292.725545 
L 96.586988 293.607566 
L 97.39964 294.199752 
L 97.805967 293.994888 
L 98.212293 295.120306 
L 98.618619 294.723883 
L 99.024945 295.168297 
L 99.431271 294.971838 
L 99.837597 294.12943 
L 100.243923 294.394578 
L 100.650249 294.52478 
L 101.056575 294.935746 
L 101.462901 294.934301 
L 101.869227 294.509454 
L 102.275554 294.479473 
L 102.68188 294.300515 
L 103.088206 294.422104 
L 103.900858 295.063908 
L 104.307184 294.530306 
L 104.71351 293.716738 
L 105.119836 294.128645 
L 105.526162 295.352568 
L 106.338814 295.335306 
L 106.745141 294.694677 
L 107.151467 294.768372 
L 107.964119 295.309355 
L 108.370445 294.688533 
L 108.776771 294.665717 
L 109.183097 295.245812 
L 109.589423 294.655091 
L 109.995749 293.244221 
L 110.402075 294.8733 
L 110.808401 295.367234 
L 111.621054 295.18118 
L 112.02738 295.177268 
L 112.433706 295.413109 
L 112.840032 295.001918 
L 113.246358 295.422099 
L 113.652684 294.465272 
L 114.05901 294.592176 
L 114.465336 294.55501 
L 114.871662 294.650423 
L 115.277988 295.352922 
L 116.090641 295.307094 
L 116.496967 294.948118 
L 116.903293 294.890695 
L 117.309619 295.32732 
L 118.122271 295.368303 
L 118.934923 295.307346 
L 119.341249 295.440861 
L 119.747575 295.352917 
L 120.153901 294.754006 
L 120.560228 295.398906 
L 120.966554 295.242159 
L 121.37288 295.239986 
L 121.779206 295.374844 
L 122.998184 295.152759 
L 123.40451 295.347659 
L 123.810836 294.875692 
L 124.217162 294.110568 
L 124.623488 295.344035 
L 125.029815 295.146905 
L 125.436141 294.461938 
L 125.842467 295.154575 
L 127.061445 295.403788 
L 127.467771 293.706928 
L 127.874097 295.358722 
L 128.280423 294.908022 
L 128.686749 295.319024 
L 129.093075 295.036598 
L 129.499402 294.209455 
L 129.905728 295.325447 
L 130.312054 295.008117 
L 131.124706 295.47869 
L 131.531032 295.164151 
L 131.937358 295.17279 
L 132.75001 295.042178 
L 133.156336 295.344924 
L 139.657554 295.30134 
L 140.06388 295.07187 
L 140.470206 295.360593 
L 141.282858 295.26063 
L 141.689184 295.360925 
L 142.09551 295.19004 
L 142.501836 295.325187 
L 142.908162 295.282848 
L 143.314489 295.039977 
L 143.720815 295.305199 
L 144.127141 294.052787 
L 144.533467 294.735813 
L 145.346119 294.752389 
L 145.752445 294.325658 
L 146.158771 294.217533 
L 146.565097 294.520494 
L 146.971423 294.508104 
L 147.377749 294.612844 
L 147.784076 295.005694 
L 148.596728 295.073135 
L 149.003054 294.505972 
L 149.40938 295.041031 
L 149.815706 295.033461 
L 150.222032 294.877909 
L 150.628358 294.975471 
L 151.44101 294.89036 
L 151.847336 294.888227 
L 152.253663 294.603527 
L 152.659989 294.598371 
L 153.066315 294.837973 
L 153.472641 294.698572 
L 153.878967 294.17476 
L 154.285293 294.144344 
L 154.691619 293.675018 
L 155.097945 293.712725 
L 155.504271 294.269591 
L 155.910597 293.717734 
L 156.72325 294.664816 
L 157.535902 294.673899 
L 157.942228 295.264792 
L 158.348554 295.050247 
L 158.75488 295.050747 
L 159.161206 294.608683 
L 159.973858 294.749474 
L 160.380184 294.769331 
L 160.78651 294.633408 
L 161.599163 294.643714 
L 162.005489 295.054435 
L 163.224467 295.081231 
L 163.630793 293.956547 
L 164.443445 294.676348 
L 164.849771 294.279283 
L 165.256097 294.689378 
L 165.662423 294.292764 
L 166.06875 294.887574 
L 166.881402 294.720838 
L 168.506706 294.88876 
L 169.319358 294.834952 
L 169.725684 294.410388 
L 170.13201 295.401751 
L 170.538337 294.716614 
L 170.944663 295.343735 
L 171.350989 295.345069 
L 171.757315 294.623196 
L 172.163641 294.872226 
L 173.788945 295.054295 
L 174.601597 295.020621 
L 175.007924 294.731376 
L 177.852206 294.749111 
L 178.258532 295.013568 
L 178.664858 294.878377 
L 179.071184 295.134311 
L 182.321793 294.76954 
L 182.728119 294.788055 
L 183.134445 294.514574 
L 183.540771 295.171384 
L 183.947098 295.101397 
L 184.353424 294.47886 
L 184.75975 295.050361 
L 185.166076 295.334676 
L 185.572402 295.30269 
L 185.978728 293.452662 
L 186.385054 295.098368 
L 186.79138 295.082354 
L 187.197706 295.402638 
L 187.604032 295.181209 
L 188.010358 294.657681 
L 188.416684 294.727362 
L 189.229337 295.302905 
L 189.635663 295.255056 
L 190.041989 294.604185 
L 190.448315 295.223278 
L 190.854641 295.295427 
L 191.260967 293.992149 
L 191.667293 295.376989 
L 192.073619 295.435351 
L 192.479945 295.341424 
L 192.886271 294.973136 
L 193.292598 295.193806 
L 193.698924 294.828062 
L 194.10525 294.813468 
L 194.511576 293.431002 
L 194.917902 295.346225 
L 195.324228 294.721915 
L 195.730554 295.05605 
L 199.387489 295.008205 
L 199.793815 295.366771 
L 200.200141 295.363793 
L 200.606467 294.981813 
L 201.012793 294.93117 
L 201.419119 295.293143 
L 201.825445 295.38113 
L 202.231772 295.189891 
L 203.044424 295.347478 
L 203.45075 295.265181 
L 204.263402 295.328706 
L 205.076054 295.192261 
L 205.48238 295.275778 
L 205.888706 295.160722 
L 206.295032 294.83106 
L 206.701359 295.332179 
L 209.139315 295.362288 
L 209.951967 295.458012 
L 210.358293 295.452515 
L 210.764619 294.246616 
L 211.170946 294.470889 
L 211.577272 294.839406 
L 211.983598 294.755876 
L 212.389924 295.177885 
L 212.79625 294.794044 
L 213.202576 294.597618 
L 213.608902 295.464679 
L 216.046859 295.339319 
L 216.453185 295.0121 
L 216.859511 295.365741 
L 217.265837 295.038461 
L 217.672163 295.199086 
L 221.329098 295.197181 
L 221.735424 295.015414 
L 222.14175 295.104074 
L 222.548076 295.025339 
L 222.954402 295.302565 
L 223.360728 295.069782 
L 223.767054 295.026238 
L 224.579706 295.084068 
L 224.986033 295.420827 
L 225.392359 295.153278 
L 225.798685 295.369854 
L 228.236641 295.3324 
L 228.642967 295.451843 
L 229.049293 295.452121 
L 229.45562 295.297216 
L 229.861946 295.429744 
L 230.268272 295.272687 
L 230.674598 295.431302 
L 231.080924 295.281164 
L 231.48725 295.392208 
L 232.299902 295.300059 
L 233.112554 295.488 
L 233.925207 295.423215 
L 234.737859 295.478028 
L 235.550511 295.407725 
L 236.363163 295.328389 
L 237.988467 295.324364 
L 238.80112 295.072776 
L 239.207446 295.230351 
L 240.020098 295.180065 
L 240.426424 295.239117 
L 240.83275 295.130125 
L 244.083359 295.271246 
L 244.489685 294.763316 
L 244.896011 294.547588 
L 246.521315 294.792334 
L 246.927641 295.147901 
L 248.14662 295.203827 
L 248.552946 294.709343 
L 248.959272 295.104402 
L 249.365598 295.240068 
L 249.771924 295.197871 
L 250.17825 295.378333 
L 250.584576 295.405394 
L 250.990902 295.149565 
L 251.397228 295.133027 
L 251.803554 295.38556 
L 252.209881 295.175917 
L 252.616207 294.701094 
L 253.022533 295.187988 
L 253.428859 295.224912 
L 253.835185 295.033728 
L 254.241511 295.043555 
L 254.647837 295.285681 
L 255.054163 295.140292 
L 256.273141 295.108713 
L 256.679468 295.31576 
L 257.085794 295.317565 
L 257.49212 295.163483 
L 257.898446 295.154512 
L 258.304772 295.296692 
L 260.742728 295.220658 
L 261.555381 294.765196 
L 262.368033 294.854468 
L 262.774359 294.58673 
L 263.180685 295.045859 
L 263.587011 295.15082 
L 264.399663 294.591911 
L 264.805989 295.29811 
L 266.024968 295.250311 
L 266.83762 294.596618 
L 267.243946 295.244983 
L 268.056598 295.252374 
L 268.462924 295.061979 
L 269.681902 295.151533 
L 270.088228 294.706559 
L 270.900881 295.142174 
L 271.307207 294.760186 
L 271.713533 295.11584 
L 272.119859 294.975627 
L 272.526185 295.092282 
L 272.932511 294.960947 
L 273.338837 295.077704 
L 273.745163 294.953876 
L 274.557815 295.054591 
L 274.964142 294.815367 
L 275.370468 295.020431 
L 275.776794 295.096416 
L 276.18312 294.735962 
L 276.589446 295.032168 
L 276.995772 294.975899 
L 277.402098 294.671009 
L 277.808424 294.995005 
L 278.621076 295.032919 
L 279.027402 294.613185 
L 279.433729 294.982631 
L 279.840055 295.035347 
L 280.246381 294.79289 
L 280.652707 295.013473 
L 282.684337 295.089005 
L 283.090663 294.828759 
L 283.496989 295.059372 
L 284.715968 294.997315 
L 285.52862 295.067519 
L 285.934946 295.461868 
L 286.747598 295.408057 
L 287.153924 295.404419 
L 287.56025 295.09535 
L 287.966576 295.07775 
L 288.372902 295.39747 
L 288.779229 295.352812 
L 289.185555 295.135278 
L 290.404533 295.33488 
L 291.217185 295.324417 
L 291.623511 294.760401 
L 292.029837 295.423222 
L 292.436163 295.14234 
L 294.061468 295.154136 
L 294.467794 295.456907 
L 294.87412 295.354831 
L 295.280446 294.910308 
L 295.686772 294.687283 
L 296.093098 295.225496 
L 296.499424 295.13648 
L 296.90575 295.211198 
L 298.124729 295.118608 
L 298.531055 295.372521 
L 298.937381 294.94947 
L 299.343707 294.697199 
L 300.156359 295.261694 
L 300.562685 295.202577 
L 300.969011 295.355493 
L 301.375337 295.171881 
L 301.781663 295.366109 
L 302.18799 294.330917 
L 302.594316 295.320557 
L 303.406968 295.388097 
L 304.21962 295.214466 
L 304.625946 295.125369 
L 305.032272 295.175252 
L 305.438598 294.59488 
L 305.844924 294.641174 
L 306.25125 295.455671 
L 306.657577 294.7843 
L 307.063903 295.103216 
L 307.876555 294.860935 
L 308.282881 295.401635 
L 310.720837 295.353047 
L 311.127163 295.280204 
L 311.53349 294.958175 
L 311.939816 295.307977 
L 312.346142 294.954361 
L 312.752468 294.991178 
L 313.158794 294.796244 
L 313.56512 295.14733 
L 314.377772 295.244799 
L 314.784098 295.202891 
L 315.190424 295.003707 
L 315.59675 294.30404 
L 316.003077 295.10861 
L 316.815729 294.98226 
L 317.222055 294.24778 
L 317.628381 294.891521 
L 318.034707 294.171167 
L 318.441033 294.961528 
L 318.847359 293.989507 
L 319.253685 294.991269 
L 321.285316 294.966439 
L 324.129598 295.140257 
L 324.942251 295.273896 
L 325.754903 294.923679 
L 326.161229 294.465334 
L 326.567555 295.218046 
L 328.599185 295.254949 
L 329.411838 295.205206 
L 329.818164 294.859124 
L 330.22449 295.045156 
L 330.630816 294.995067 
L 331.037142 295.127988 
L 331.443468 294.964569 
L 331.849794 295.308814 
L 332.25612 295.264706 
L 332.662446 295.078681 
L 333.475098 294.979507 
L 333.881425 295.156728 
L 337.538359 295.169803 
L 337.944685 295.013322 
L 339.56999 295.313945 
L 339.976316 295.009057 
L 340.382642 295.08936 
L 340.788968 295.296484 
L 341.60162 295.298666 
L 342.007946 293.875571 
L 342.414272 293.413978 
L 342.820598 294.287994 
L 343.633251 294.278235 
L 344.039577 294.190707 
L 344.445903 293.968551 
L 344.852229 294.096026 
L 345.258555 293.909746 
L 347.290185 293.813237 
L 347.696512 294.232418 
L 348.91549 294.368432 
L 354.197729 294.546206 
L 354.604055 294.878677 
L 355.010381 294.932999 
L 355.416707 294.728287 
L 356.229359 294.828653 
L 358.26099 294.880744 
L 358.667316 294.251645 
L 359.479968 294.506596 
L 360.698946 294.585253 
L 361.511599 294.676958 
L 362.324251 294.787372 
L 362.730577 294.880113 
L 369.231794 294.537922 
L 370.857099 294.667448 
L 372.482403 294.454441 
L 374.514033 294.419315 
L 374.92036 294.446657 
L 375.326686 295.122462 
L 375.733012 294.440134 
L 376.545664 294.583904 
L 376.95199 295.061117 
L 377.358316 294.837017 
L 378.170968 294.954236 
L 380.202599 294.885611 
L 380.608925 295.130578 
L 382.234229 295.046481 
L 382.640555 295.31476 
L 383.046881 295.044428 
L 384.26586 295.098875 
L 384.672186 294.840977 
L 385.891164 294.852719 
L 386.29749 294.872282 
L 386.703816 295.067209 
L 387.110142 294.897354 
L 389.141773 294.863172 
L 389.954425 294.909648 
L 392.392381 295.156616 
L 394.017686 295.142947 
L 394.830338 295.16276 
L 396.861968 295.108301 
L 398.487273 295.105114 
L 398.487273 295.105114 
" style="fill:none;stroke:#ff7f0e;stroke-linecap:square;stroke-width:1.5;"/>
   </g>
   <g id="patch_3">
    <path d="M 57.6 307.584 
L 57.6 41.472 
" style="fill:none;stroke:#000000;stroke-linecap:square;stroke-linejoin:miter;stroke-width:0.8;"/>
   </g>
   <g id="patch_4">
    <path d="M 414.72 307.584 
L 414.72 41.472 
" style="fill:none;stroke:#000000;stroke-linecap:square;stroke-linejoin:miter;stroke-width:0.8;"/>
   </g>
   <g id="patch_5">
    <path d="M 57.6 307.584 
L 414.72 307.584 
" style="fill:none;stroke:#000000;stroke-linecap:square;stroke-linejoin:miter;stroke-width:0.8;"/>
   </g>
   <g id="patch_6">
    <path d="M 57.6 41.472 
L 414.72 41.472 
" style="fill:none;stroke:#000000;stroke-linecap:square;stroke-linejoin:miter;stroke-width:0.8;"/>
   </g>
  </g>
 </g>
 <defs>
  <clipPath id="pb261b03f10">
   <rect height="266.112" width="357.12" x="57.6" y="41.472"/>
  </clipPath>
 </defs>
</svg>
