<?xml version="1.0" encoding="utf-8" standalone="no"?>
<!DOCTYPE svg PUBLIC "-//W3C//DTD SVG 1.1//EN"
  "http://www.w3.org/Graphics/SVG/1.1/DTD/svg11.dtd">
<!-- Created with matplotlib (https://matplotlib.org/) -->
<svg height="345.6pt" version="1.1" viewBox="0 0 460.8 345.6" width="460.8pt" xmlns="http://www.w3.org/2000/svg" xmlns:xlink="http://www.w3.org/1999/xlink">
 <defs>
  <style type="text/css">
*{stroke-linecap:butt;stroke-linejoin:round;}
  </style>
 </defs>
 <g id="figure_1">
  <g id="patch_1">
   <path d="M 0 345.6 
L 460.8 345.6 
L 460.8 0 
L 0 0 
z
" style="fill:#ffffff;"/>
  </g>
  <g id="axes_1">
   <g id="patch_2">
    <path d="M 57.6 307.584 
L 414.72 307.584 
L 414.72 41.472 
L 57.6 41.472 
z
" style="fill:#ffffff;"/>
   </g>
   <g id="matplotlib.axis_1">
    <g id="xtick_1">
     <g id="line2d_1">
      <defs>
       <path d="M 0 0 
L 0 3.5 
" id="mffcdaf9cb4" style="stroke:#000000;stroke-width:0.8;"/>
      </defs>
      <g>
       <use style="stroke:#000000;stroke-width:0.8;" x="73.832727" xlink:href="#mffcdaf9cb4" y="307.584"/>
      </g>
     </g>
     <g id="text_1">
      <!-- 0 -->
      <defs>
       <path d="M 31.78125 66.40625 
Q 24.171875 66.40625 20.328125 58.90625 
Q 16.5 51.421875 16.5 36.375 
Q 16.5 21.390625 20.328125 13.890625 
Q 24.171875 6.390625 31.78125 6.390625 
Q 39.453125 6.390625 43.28125 13.890625 
Q 47.125 21.390625 47.125 36.375 
Q 47.125 51.421875 43.28125 58.90625 
Q 39.453125 66.40625 31.78125 66.40625 
z
M 31.78125 74.21875 
Q 44.046875 74.21875 50.515625 64.515625 
Q 56.984375 54.828125 56.984375 36.375 
Q 56.984375 17.96875 50.515625 8.265625 
Q 44.046875 -1.421875 31.78125 -1.421875 
Q 19.53125 -1.421875 13.0625 8.265625 
Q 6.59375 17.96875 6.59375 36.375 
Q 6.59375 54.828125 13.0625 64.515625 
Q 19.53125 74.21875 31.78125 74.21875 
z
" id="DejaVuSans-48"/>
      </defs>
      <g transform="translate(70.651477 322.182437)scale(0.1 -0.1)">
       <use xlink:href="#DejaVuSans-48"/>
      </g>
     </g>
    </g>
    <g id="xtick_2">
     <g id="line2d_2">
      <g>
       <use style="stroke:#000000;stroke-width:0.8;" x="114.465336" xlink:href="#mffcdaf9cb4" y="307.584"/>
      </g>
     </g>
     <g id="text_2">
      <!-- 100 -->
      <defs>
       <path d="M 12.40625 8.296875 
L 28.515625 8.296875 
L 28.515625 63.921875 
L 10.984375 60.40625 
L 10.984375 69.390625 
L 28.421875 72.90625 
L 38.28125 72.90625 
L 38.28125 8.296875 
L 54.390625 8.296875 
L 54.390625 0 
L 12.40625 0 
z
" id="DejaVuSans-49"/>
      </defs>
      <g transform="translate(104.921586 322.182437)scale(0.1 -0.1)">
       <use xlink:href="#DejaVuSans-49"/>
       <use x="63.623047" xlink:href="#DejaVuSans-48"/>
       <use x="127.246094" xlink:href="#DejaVuSans-48"/>
      </g>
     </g>
    </g>
    <g id="xtick_3">
     <g id="line2d_3">
      <g>
       <use style="stroke:#000000;stroke-width:0.8;" x="155.097945" xlink:href="#mffcdaf9cb4" y="307.584"/>
      </g>
     </g>
     <g id="text_3">
      <!-- 200 -->
      <defs>
       <path d="M 19.1875 8.296875 
L 53.609375 8.296875 
L 53.609375 0 
L 7.328125 0 
L 7.328125 8.296875 
Q 12.9375 14.109375 22.625 23.890625 
Q 32.328125 33.6875 34.8125 36.53125 
Q 39.546875 41.84375 41.421875 45.53125 
Q 43.3125 49.21875 43.3125 52.78125 
Q 43.3125 58.59375 39.234375 62.25 
Q 35.15625 65.921875 28.609375 65.921875 
Q 23.96875 65.921875 18.8125 64.3125 
Q 13.671875 62.703125 7.8125 59.421875 
L 7.8125 69.390625 
Q 13.765625 71.78125 18.9375 73 
Q 24.125 74.21875 28.421875 74.21875 
Q 39.75 74.21875 46.484375 68.546875 
Q 53.21875 62.890625 53.21875 53.421875 
Q 53.21875 48.921875 51.53125 44.890625 
Q 49.859375 40.875 45.40625 35.40625 
Q 44.1875 33.984375 37.640625 27.21875 
Q 31.109375 20.453125 19.1875 8.296875 
z
" id="DejaVuSans-50"/>
      </defs>
      <g transform="translate(145.554195 322.182437)scale(0.1 -0.1)">
       <use xlink:href="#DejaVuSans-50"/>
       <use x="63.623047" xlink:href="#DejaVuSans-48"/>
       <use x="127.246094" xlink:href="#DejaVuSans-48"/>
      </g>
     </g>
    </g>
    <g id="xtick_4">
     <g id="line2d_4">
      <g>
       <use style="stroke:#000000;stroke-width:0.8;" x="195.730554" xlink:href="#mffcdaf9cb4" y="307.584"/>
      </g>
     </g>
     <g id="text_4">
      <!-- 300 -->
      <defs>
       <path d="M 40.578125 39.3125 
Q 47.65625 37.796875 51.625 33 
Q 55.609375 28.21875 55.609375 21.1875 
Q 55.609375 10.40625 48.1875 4.484375 
Q 40.765625 -1.421875 27.09375 -1.421875 
Q 22.515625 -1.421875 17.65625 -0.515625 
Q 12.796875 0.390625 7.625 2.203125 
L 7.625 11.71875 
Q 11.71875 9.328125 16.59375 8.109375 
Q 21.484375 6.890625 26.8125 6.890625 
Q 36.078125 6.890625 40.9375 10.546875 
Q 45.796875 14.203125 45.796875 21.1875 
Q 45.796875 27.640625 41.28125 31.265625 
Q 36.765625 34.90625 28.71875 34.90625 
L 20.21875 34.90625 
L 20.21875 43.015625 
L 29.109375 43.015625 
Q 36.375 43.015625 40.234375 45.921875 
Q 44.09375 48.828125 44.09375 54.296875 
Q 44.09375 59.90625 40.109375 62.90625 
Q 36.140625 65.921875 28.71875 65.921875 
Q 24.65625 65.921875 20.015625 65.03125 
Q 15.375 64.15625 9.8125 62.3125 
L 9.8125 71.09375 
Q 15.4375 72.65625 20.34375 73.4375 
Q 25.25 74.21875 29.59375 74.21875 
Q 40.828125 74.21875 47.359375 69.109375 
Q 53.90625 64.015625 53.90625 55.328125 
Q 53.90625 49.265625 50.4375 45.09375 
Q 46.96875 40.921875 40.578125 39.3125 
z
" id="DejaVuSans-51"/>
      </defs>
      <g transform="translate(186.186804 322.182437)scale(0.1 -0.1)">
       <use xlink:href="#DejaVuSans-51"/>
       <use x="63.623047" xlink:href="#DejaVuSans-48"/>
       <use x="127.246094" xlink:href="#DejaVuSans-48"/>
      </g>
     </g>
    </g>
    <g id="xtick_5">
     <g id="line2d_5">
      <g>
       <use style="stroke:#000000;stroke-width:0.8;" x="236.363163" xlink:href="#mffcdaf9cb4" y="307.584"/>
      </g>
     </g>
     <g id="text_5">
      <!-- 400 -->
      <defs>
       <path d="M 37.796875 64.3125 
L 12.890625 25.390625 
L 37.796875 25.390625 
z
M 35.203125 72.90625 
L 47.609375 72.90625 
L 47.609375 25.390625 
L 58.015625 25.390625 
L 58.015625 17.1875 
L 47.609375 17.1875 
L 47.609375 0 
L 37.796875 0 
L 37.796875 17.1875 
L 4.890625 17.1875 
L 4.890625 26.703125 
z
" id="DejaVuSans-52"/>
      </defs>
      <g transform="translate(226.819413 322.182437)scale(0.1 -0.1)">
       <use xlink:href="#DejaVuSans-52"/>
       <use x="63.623047" xlink:href="#DejaVuSans-48"/>
       <use x="127.246094" xlink:href="#DejaVuSans-48"/>
      </g>
     </g>
    </g>
    <g id="xtick_6">
     <g id="line2d_6">
      <g>
       <use style="stroke:#000000;stroke-width:0.8;" x="276.995772" xlink:href="#mffcdaf9cb4" y="307.584"/>
      </g>
     </g>
     <g id="text_6">
      <!-- 500 -->
      <defs>
       <path d="M 10.796875 72.90625 
L 49.515625 72.90625 
L 49.515625 64.59375 
L 19.828125 64.59375 
L 19.828125 46.734375 
Q 21.96875 47.46875 24.109375 47.828125 
Q 26.265625 48.1875 28.421875 48.1875 
Q 40.625 48.1875 47.75 41.5 
Q 54.890625 34.8125 54.890625 23.390625 
Q 54.890625 11.625 47.5625 5.09375 
Q 40.234375 -1.421875 26.90625 -1.421875 
Q 22.3125 -1.421875 17.546875 -0.640625 
Q 12.796875 0.140625 7.71875 1.703125 
L 7.71875 11.625 
Q 12.109375 9.234375 16.796875 8.0625 
Q 21.484375 6.890625 26.703125 6.890625 
Q 35.15625 6.890625 40.078125 11.328125 
Q 45.015625 15.765625 45.015625 23.390625 
Q 45.015625 31 40.078125 35.4375 
Q 35.15625 39.890625 26.703125 39.890625 
Q 22.75 39.890625 18.8125 39.015625 
Q 14.890625 38.140625 10.796875 36.28125 
z
" id="DejaVuSans-53"/>
      </defs>
      <g transform="translate(267.452022 322.182437)scale(0.1 -0.1)">
       <use xlink:href="#DejaVuSans-53"/>
       <use x="63.623047" xlink:href="#DejaVuSans-48"/>
       <use x="127.246094" xlink:href="#DejaVuSans-48"/>
      </g>
     </g>
    </g>
    <g id="xtick_7">
     <g id="line2d_7">
      <g>
       <use style="stroke:#000000;stroke-width:0.8;" x="317.628381" xlink:href="#mffcdaf9cb4" y="307.584"/>
      </g>
     </g>
     <g id="text_7">
      <!-- 600 -->
      <defs>
       <path d="M 33.015625 40.375 
Q 26.375 40.375 22.484375 35.828125 
Q 18.609375 31.296875 18.609375 23.390625 
Q 18.609375 15.53125 22.484375 10.953125 
Q 26.375 6.390625 33.015625 6.390625 
Q 39.65625 6.390625 43.53125 10.953125 
Q 47.40625 15.53125 47.40625 23.390625 
Q 47.40625 31.296875 43.53125 35.828125 
Q 39.65625 40.375 33.015625 40.375 
z
M 52.59375 71.296875 
L 52.59375 62.3125 
Q 48.875 64.0625 45.09375 64.984375 
Q 41.3125 65.921875 37.59375 65.921875 
Q 27.828125 65.921875 22.671875 59.328125 
Q 17.53125 52.734375 16.796875 39.40625 
Q 19.671875 43.65625 24.015625 45.921875 
Q 28.375 48.1875 33.59375 48.1875 
Q 44.578125 48.1875 50.953125 41.515625 
Q 57.328125 34.859375 57.328125 23.390625 
Q 57.328125 12.15625 50.6875 5.359375 
Q 44.046875 -1.421875 33.015625 -1.421875 
Q 20.359375 -1.421875 13.671875 8.265625 
Q 6.984375 17.96875 6.984375 36.375 
Q 6.984375 53.65625 15.1875 63.9375 
Q 23.390625 74.21875 37.203125 74.21875 
Q 40.921875 74.21875 44.703125 73.484375 
Q 48.484375 72.75 52.59375 71.296875 
z
" id="DejaVuSans-54"/>
      </defs>
      <g transform="translate(308.084631 322.182437)scale(0.1 -0.1)">
       <use xlink:href="#DejaVuSans-54"/>
       <use x="63.623047" xlink:href="#DejaVuSans-48"/>
       <use x="127.246094" xlink:href="#DejaVuSans-48"/>
      </g>
     </g>
    </g>
    <g id="xtick_8">
     <g id="line2d_8">
      <g>
       <use style="stroke:#000000;stroke-width:0.8;" x="358.26099" xlink:href="#mffcdaf9cb4" y="307.584"/>
      </g>
     </g>
     <g id="text_8">
      <!-- 700 -->
      <defs>
       <path d="M 8.203125 72.90625 
L 55.078125 72.90625 
L 55.078125 68.703125 
L 28.609375 0 
L 18.3125 0 
L 43.21875 64.59375 
L 8.203125 64.59375 
z
" id="DejaVuSans-55"/>
      </defs>
      <g transform="translate(348.71724 322.182437)scale(0.1 -0.1)">
       <use xlink:href="#DejaVuSans-55"/>
       <use x="63.623047" xlink:href="#DejaVuSans-48"/>
       <use x="127.246094" xlink:href="#DejaVuSans-48"/>
      </g>
     </g>
    </g>
    <g id="xtick_9">
     <g id="line2d_9">
      <g>
       <use style="stroke:#000000;stroke-width:0.8;" x="398.893599" xlink:href="#mffcdaf9cb4" y="307.584"/>
      </g>
     </g>
     <g id="text_9">
      <!-- 800 -->
      <defs>
       <path d="M 31.78125 34.625 
Q 24.75 34.625 20.71875 30.859375 
Q 16.703125 27.09375 16.703125 20.515625 
Q 16.703125 13.921875 20.71875 10.15625 
Q 24.75 6.390625 31.78125 6.390625 
Q 38.8125 6.390625 42.859375 10.171875 
Q 46.921875 13.96875 46.921875 20.515625 
Q 46.921875 27.09375 42.890625 30.859375 
Q 38.875 34.625 31.78125 34.625 
z
M 21.921875 38.8125 
Q 15.578125 40.375 12.03125 44.71875 
Q 8.5 49.078125 8.5 55.328125 
Q 8.5 64.0625 14.71875 69.140625 
Q 20.953125 74.21875 31.78125 74.21875 
Q 42.671875 74.21875 48.875 69.140625 
Q 55.078125 64.0625 55.078125 55.328125 
Q 55.078125 49.078125 51.53125 44.71875 
Q 48 40.375 41.703125 38.8125 
Q 48.828125 37.15625 52.796875 32.3125 
Q 56.78125 27.484375 56.78125 20.515625 
Q 56.78125 9.90625 50.3125 4.234375 
Q 43.84375 -1.421875 31.78125 -1.421875 
Q 19.734375 -1.421875 13.25 4.234375 
Q 6.78125 9.90625 6.78125 20.515625 
Q 6.78125 27.484375 10.78125 32.3125 
Q 14.796875 37.15625 21.921875 38.8125 
z
M 18.3125 54.390625 
Q 18.3125 48.734375 21.84375 45.5625 
Q 25.390625 42.390625 31.78125 42.390625 
Q 38.140625 42.390625 41.71875 45.5625 
Q 45.3125 48.734375 45.3125 54.390625 
Q 45.3125 60.0625 41.71875 63.234375 
Q 38.140625 66.40625 31.78125 66.40625 
Q 25.390625 66.40625 21.84375 63.234375 
Q 18.3125 60.0625 18.3125 54.390625 
z
" id="DejaVuSans-56"/>
      </defs>
      <g transform="translate(389.349849 322.182437)scale(0.1 -0.1)">
       <use xlink:href="#DejaVuSans-56"/>
       <use x="63.623047" xlink:href="#DejaVuSans-48"/>
       <use x="127.246094" xlink:href="#DejaVuSans-48"/>
      </g>
     </g>
    </g>
   </g>
   <g id="matplotlib.axis_2">
    <g id="ytick_1">
     <g id="line2d_10">
      <defs>
       <path d="M 0 0 
L -3.5 0 
" id="m51726e7fbf" style="stroke:#000000;stroke-width:0.8;"/>
      </defs>
      <g>
       <use style="stroke:#000000;stroke-width:0.8;" x="57.6" xlink:href="#m51726e7fbf" y="295.504735"/>
      </g>
     </g>
     <g id="text_10">
      <!-- 0.000 -->
      <defs>
       <path d="M 10.6875 12.40625 
L 21 12.40625 
L 21 0 
L 10.6875 0 
z
" id="DejaVuSans-46"/>
      </defs>
      <g transform="translate(21.971875 299.303954)scale(0.1 -0.1)">
       <use xlink:href="#DejaVuSans-48"/>
       <use x="63.623047" xlink:href="#DejaVuSans-46"/>
       <use x="95.410156" xlink:href="#DejaVuSans-48"/>
       <use x="159.033203" xlink:href="#DejaVuSans-48"/>
       <use x="222.65625" xlink:href="#DejaVuSans-48"/>
      </g>
     </g>
    </g>
    <g id="ytick_2">
     <g id="line2d_11">
      <g>
       <use style="stroke:#000000;stroke-width:0.8;" x="57.6" xlink:href="#m51726e7fbf" y="259.521786"/>
      </g>
     </g>
     <g id="text_11">
      <!-- 0.001 -->
      <g transform="translate(21.971875 263.321005)scale(0.1 -0.1)">
       <use xlink:href="#DejaVuSans-48"/>
       <use x="63.623047" xlink:href="#DejaVuSans-46"/>
       <use x="95.410156" xlink:href="#DejaVuSans-48"/>
       <use x="159.033203" xlink:href="#DejaVuSans-48"/>
       <use x="222.65625" xlink:href="#DejaVuSans-49"/>
      </g>
     </g>
    </g>
    <g id="ytick_3">
     <g id="line2d_12">
      <g>
       <use style="stroke:#000000;stroke-width:0.8;" x="57.6" xlink:href="#m51726e7fbf" y="223.538838"/>
      </g>
     </g>
     <g id="text_12">
      <!-- 0.002 -->
      <g transform="translate(21.971875 227.338057)scale(0.1 -0.1)">
       <use xlink:href="#DejaVuSans-48"/>
       <use x="63.623047" xlink:href="#DejaVuSans-46"/>
       <use x="95.410156" xlink:href="#DejaVuSans-48"/>
       <use x="159.033203" xlink:href="#DejaVuSans-48"/>
       <use x="222.65625" xlink:href="#DejaVuSans-50"/>
      </g>
     </g>
    </g>
    <g id="ytick_4">
     <g id="line2d_13">
      <g>
       <use style="stroke:#000000;stroke-width:0.8;" x="57.6" xlink:href="#m51726e7fbf" y="187.55589"/>
      </g>
     </g>
     <g id="text_13">
      <!-- 0.003 -->
      <g transform="translate(21.971875 191.355109)scale(0.1 -0.1)">
       <use xlink:href="#DejaVuSans-48"/>
       <use x="63.623047" xlink:href="#DejaVuSans-46"/>
       <use x="95.410156" xlink:href="#DejaVuSans-48"/>
       <use x="159.033203" xlink:href="#DejaVuSans-48"/>
       <use x="222.65625" xlink:href="#DejaVuSans-51"/>
      </g>
     </g>
    </g>
    <g id="ytick_5">
     <g id="line2d_14">
      <g>
       <use style="stroke:#000000;stroke-width:0.8;" x="57.6" xlink:href="#m51726e7fbf" y="151.572941"/>
      </g>
     </g>
     <g id="text_14">
      <!-- 0.004 -->
      <g transform="translate(21.971875 155.37216)scale(0.1 -0.1)">
       <use xlink:href="#DejaVuSans-48"/>
       <use x="63.623047" xlink:href="#DejaVuSans-46"/>
       <use x="95.410156" xlink:href="#DejaVuSans-48"/>
       <use x="159.033203" xlink:href="#DejaVuSans-48"/>
       <use x="222.65625" xlink:href="#DejaVuSans-52"/>
      </g>
     </g>
    </g>
    <g id="ytick_6">
     <g id="line2d_15">
      <g>
       <use style="stroke:#000000;stroke-width:0.8;" x="57.6" xlink:href="#m51726e7fbf" y="115.589993"/>
      </g>
     </g>
     <g id="text_15">
      <!-- 0.005 -->
      <g transform="translate(21.971875 119.389212)scale(0.1 -0.1)">
       <use xlink:href="#DejaVuSans-48"/>
       <use x="63.623047" xlink:href="#DejaVuSans-46"/>
       <use x="95.410156" xlink:href="#DejaVuSans-48"/>
       <use x="159.033203" xlink:href="#DejaVuSans-48"/>
       <use x="222.65625" xlink:href="#DejaVuSans-53"/>
      </g>
     </g>
    </g>
    <g id="ytick_7">
     <g id="line2d_16">
      <g>
       <use style="stroke:#000000;stroke-width:0.8;" x="57.6" xlink:href="#m51726e7fbf" y="79.607045"/>
      </g>
     </g>
     <g id="text_16">
      <!-- 0.006 -->
      <g transform="translate(21.971875 83.406264)scale(0.1 -0.1)">
       <use xlink:href="#DejaVuSans-48"/>
       <use x="63.623047" xlink:href="#DejaVuSans-46"/>
       <use x="95.410156" xlink:href="#DejaVuSans-48"/>
       <use x="159.033203" xlink:href="#DejaVuSans-48"/>
       <use x="222.65625" xlink:href="#DejaVuSans-54"/>
      </g>
     </g>
    </g>
    <g id="ytick_8">
     <g id="line2d_17">
      <g>
       <use style="stroke:#000000;stroke-width:0.8;" x="57.6" xlink:href="#m51726e7fbf" y="43.624096"/>
      </g>
     </g>
     <g id="text_17">
      <!-- 0.007 -->
      <g transform="translate(21.971875 47.423315)scale(0.1 -0.1)">
       <use xlink:href="#DejaVuSans-48"/>
       <use x="63.623047" xlink:href="#DejaVuSans-46"/>
       <use x="95.410156" xlink:href="#DejaVuSans-48"/>
       <use x="159.033203" xlink:href="#DejaVuSans-48"/>
       <use x="222.65625" xlink:href="#DejaVuSans-55"/>
      </g>
     </g>
    </g>
   </g>
   <g id="line2d_18">
    <path clip-path="url(#pefbea7cbdc)" d="M 73.832727 107.007628 
L 74.239053 78.517085 
L 75.458032 53.568 
L 76.270684 65.203409 
L 76.67701 54.954887 
L 77.489662 61.493424 
L 77.895988 64.071795 
L 78.302314 65.008139 
L 78.70864 65.376758 
L 79.521293 67.185148 
L 79.927619 66.359014 
L 80.333945 68.577407 
L 80.740271 69.029489 
L 81.146597 69.928088 
L 81.552923 69.786821 
L 81.959249 70.003266 
L 82.365575 69.624894 
L 82.771901 71.159182 
L 83.178227 77.942486 
L 83.584553 77.232872 
L 83.99088 76.770557 
L 84.397206 80.107188 
L 84.803532 79.565442 
L 85.209858 81.501362 
L 85.616184 79.611701 
L 86.02251 81.66577 
L 86.428836 87.343927 
L 86.835162 87.6607 
L 87.241488 91.175787 
L 87.647814 86.166416 
L 88.05414 86.921571 
L 88.460466 85.171713 
L 88.866793 88.505465 
L 89.273119 89.089181 
L 89.679445 74.424977 
L 90.085771 82.092393 
L 90.492097 86.966264 
L 90.898423 97.687556 
L 91.304749 95.518557 
L 91.711075 84.155743 
L 92.117401 84.981561 
L 92.523727 92.88864 
L 92.930053 84.555805 
L 93.33638 89.538327 
L 93.742706 92.193791 
L 94.149032 97.061735 
L 94.555358 92.348054 
L 94.961684 91.993413 
L 95.36801 93.879547 
L 95.774336 92.895016 
L 96.180662 96.917842 
L 96.586988 97.704535 
L 96.993314 97.842011 
L 97.39964 92.235812 
L 97.805967 89.136889 
L 98.212293 84.392386 
L 99.024945 95.698252 
L 99.431271 91.322877 
L 99.837597 95.344894 
L 100.650249 95.45346 
L 101.056575 108.240393 
L 101.462901 94.556053 
L 101.869227 98.922919 
L 102.275554 100.775253 
L 102.68188 95.802496 
L 103.088206 95.740004 
L 103.494532 98.710614 
L 103.900858 96.9445 
L 104.307184 100.821628 
L 104.71351 96.230238 
L 105.119836 94.849602 
L 105.526162 94.455311 
L 105.932488 93.536838 
L 106.338814 96.038839 
L 106.745141 92.788485 
L 107.151467 87.383984 
L 107.557793 101.858126 
L 107.964119 131.037022 
L 108.370445 100.058932 
L 108.776771 99.678854 
L 109.183097 100.391819 
L 109.589423 100.168328 
L 109.995749 104.883725 
L 110.402075 101.173505 
L 110.808401 112.539818 
L 111.214728 111.05311 
L 111.621054 101.368854 
L 112.02738 103.11844 
L 112.433706 101.883106 
L 112.840032 124.722726 
L 113.246358 99.289752 
L 113.652684 98.080308 
L 114.05901 99.654554 
L 114.465336 103.747044 
L 114.871662 100.065049 
L 115.277988 90.448323 
L 115.684314 96.703674 
L 116.090641 98.108053 
L 116.496967 102.431603 
L 116.903293 86.89758 
L 117.309619 83.300827 
L 117.715945 126.923063 
L 118.122271 107.69919 
L 118.528597 98.0644 
L 118.934923 114.753287 
L 119.341249 97.091869 
L 119.747575 93.208906 
L 120.153901 100.771993 
L 120.560228 101.591366 
L 120.966554 100.839968 
L 121.779206 101.930623 
L 122.185532 103.262283 
L 122.591858 105.650276 
L 122.998184 98.74904 
L 123.40451 89.407145 
L 123.810836 99.123843 
L 124.217162 105.017387 
L 124.623488 103.624995 
L 125.029815 124.557877 
L 125.436141 106.129442 
L 125.842467 106.819892 
L 126.248793 108.08891 
L 126.655119 106.149348 
L 127.061445 107.834773 
L 127.467771 107.431383 
L 127.874097 104.587109 
L 128.280423 104.170839 
L 128.686749 104.904728 
L 129.093075 100.150572 
L 129.905728 106.559092 
L 130.312054 104.763302 
L 130.71838 103.668798 
L 131.124706 103.957588 
L 131.531032 105.598717 
L 131.937358 105.677705 
L 132.343684 105.313513 
L 132.75001 107.767988 
L 133.156336 102.914617 
L 133.562662 100.315311 
L 133.968989 100.409786 
L 134.375315 121.609718 
L 134.781641 109.9829 
L 135.187967 108.260097 
L 135.594293 94.90119 
L 136.000619 93.218017 
L 136.406945 97.629719 
L 136.813271 88.24447 
L 137.625923 120.629567 
L 138.032249 107.461748 
L 138.438575 107.028324 
L 138.844902 106.852635 
L 139.251228 110.821251 
L 139.657554 107.903316 
L 140.06388 106.790954 
L 140.470206 119.570461 
L 140.876532 108.636777 
L 141.282858 108.423652 
L 141.689184 108.366316 
L 142.09551 109.154269 
L 142.501836 96.939421 
L 142.908162 110.803244 
L 143.314489 111.439614 
L 144.127141 110.433859 
L 144.533467 110.540738 
L 144.939793 112.015592 
L 145.346119 110.568174 
L 145.752445 114.515035 
L 146.158771 110.70345 
L 146.565097 112.400682 
L 146.971423 109.756888 
L 147.784076 110.131285 
L 148.190402 109.386007 
L 148.596728 99.260014 
L 149.003054 102.192197 
L 149.40938 110.71835 
L 149.815706 109.866876 
L 150.222032 97.442642 
L 150.628358 98.965433 
L 151.034684 99.891343 
L 151.44101 99.246307 
L 151.847336 96.892763 
L 152.659989 111.229591 
L 153.066315 112.231462 
L 153.472641 109.275984 
L 153.878967 112.883168 
L 154.285293 112.95321 
L 154.691619 112.757512 
L 155.097945 106.538811 
L 155.504271 107.695148 
L 155.910597 109.941611 
L 156.316923 108.515933 
L 156.72325 108.01123 
L 157.129576 111.498483 
L 157.535902 111.31494 
L 157.942228 112.111797 
L 158.348554 114.278289 
L 158.75488 109.99415 
L 159.161206 104.078464 
L 159.567532 105.766796 
L 159.973858 112.408495 
L 160.380184 115.787409 
L 160.78651 114.74471 
L 161.192837 115.256246 
L 161.599163 115.475875 
L 162.411815 113.029059 
L 162.818141 113.467266 
L 163.224467 115.076049 
L 163.630793 111.639899 
L 164.037119 121.78008 
L 164.443445 111.519787 
L 164.849771 115.539939 
L 165.256097 112.016253 
L 165.662423 113.315147 
L 166.06875 110.212782 
L 166.475076 115.303059 
L 166.881402 116.088819 
L 167.287728 112.812071 
L 167.694054 122.49825 
L 168.10038 115.258995 
L 168.506706 114.577502 
L 168.913032 113.568016 
L 169.319358 114.162525 
L 169.725684 110.838059 
L 170.13201 111.597827 
L 170.538337 112.036636 
L 170.944663 113.215196 
L 171.350989 108.953692 
L 171.757315 108.611852 
L 172.163641 109.047995 
L 172.569967 109.25761 
L 172.976293 112.265416 
L 173.382619 111.728197 
L 173.788945 111.658457 
L 174.195271 112.63447 
L 174.601597 111.412321 
L 175.007924 106.74329 
L 175.41425 109.993449 
L 175.820576 108.537546 
L 176.226902 108.791961 
L 176.633228 109.722158 
L 177.039554 109.686201 
L 177.44588 109.999761 
L 177.852206 109.210239 
L 178.258532 111.447253 
L 179.071184 103.045686 
L 179.477511 108.439635 
L 179.883837 108.098792 
L 180.290163 104.232982 
L 180.696489 111.640924 
L 181.102815 106.531122 
L 181.509141 103.678514 
L 181.915467 110.900464 
L 182.321793 114.801429 
L 183.134445 111.781333 
L 183.540771 111.463948 
L 183.947098 125.211985 
L 184.353424 103.658389 
L 184.75975 126.513943 
L 185.166076 110.77432 
L 185.572402 111.77312 
L 185.978728 128.627659 
L 186.385054 132.814236 
L 186.79138 133.697762 
L 187.197706 112.706674 
L 187.604032 112.769663 
L 188.416684 111.622296 
L 188.823011 111.969827 
L 189.229337 125.905773 
L 189.635663 108.604905 
L 190.041989 109.952241 
L 190.448315 106.030318 
L 190.854641 120.774045 
L 191.260967 111.266851 
L 191.667293 106.663532 
L 192.073619 105.948893 
L 192.479945 122.139939 
L 192.886271 113.859204 
L 193.292598 113.160006 
L 193.698924 111.290917 
L 194.10525 121.219118 
L 194.511576 119.566561 
L 195.324228 106.629396 
L 195.730554 105.970014 
L 196.13688 103.886853 
L 196.543206 111.132249 
L 196.949532 112.787472 
L 197.355858 103.10738 
L 197.762185 108.483023 
L 198.168511 105.39768 
L 198.574837 107.478719 
L 198.981163 96.125934 
L 199.387489 105.471264 
L 199.793815 110.632324 
L 200.200141 113.317178 
L 200.606467 112.829513 
L 201.012793 113.92642 
L 201.419119 117.310213 
L 201.825445 103.282748 
L 202.638098 110.532378 
L 203.044424 111.920328 
L 203.45075 99.839471 
L 203.857076 99.670469 
L 204.263402 107.186354 
L 204.669728 111.969319 
L 205.076054 106.242571 
L 205.48238 112.489963 
L 205.888706 113.205243 
L 206.295032 111.618428 
L 206.701359 110.536318 
L 207.107685 105.189447 
L 207.514011 107.89407 
L 207.920337 105.747823 
L 208.326663 111.858929 
L 208.732989 111.545593 
L 209.139315 110.915433 
L 209.545641 106.250214 
L 209.951967 107.991309 
L 210.358293 102.09336 
L 210.764619 105.211945 
L 211.170946 107.128267 
L 211.577272 106.600004 
L 211.983598 113.849829 
L 212.389924 111.801316 
L 212.79625 113.426394 
L 213.202576 112.498136 
L 213.608902 121.428917 
L 214.015228 114.943266 
L 214.421554 111.870232 
L 214.82788 112.624012 
L 215.234206 112.322503 
L 215.640532 107.747374 
L 216.046859 107.368962 
L 216.859511 114.870667 
L 217.265837 116.25078 
L 217.672163 111.573139 
L 218.078489 112.789004 
L 218.484815 103.189197 
L 218.891141 96.327078 
L 220.110119 115.428483 
L 220.922772 113.865813 
L 221.735424 107.192926 
L 222.14175 108.224115 
L 222.548076 108.300683 
L 222.954402 103.218349 
L 223.360728 109.238567 
L 223.767054 111.732515 
L 224.17338 109.525861 
L 224.579706 110.627112 
L 224.986033 105.478097 
L 225.392359 107.413929 
L 225.798685 111.687957 
L 226.205011 113.699617 
L 226.611337 108.208906 
L 227.017663 109.945506 
L 227.423989 110.841443 
L 227.830315 110.954654 
L 228.236641 97.256966 
L 228.642967 93.218285 
L 229.049293 92.115056 
L 229.45562 95.724507 
L 230.268272 113.366311 
L 230.674598 96.617314 
L 231.080924 104.557894 
L 231.48725 107.312345 
L 231.893576 109.020351 
L 232.706228 106.578358 
L 233.112554 104.412648 
L 233.51888 105.39555 
L 233.925207 110.854451 
L 234.331533 112.594127 
L 234.737859 112.741104 
L 235.550511 111.222771 
L 235.956837 110.466716 
L 236.769489 107.131443 
L 237.582141 106.822633 
L 238.394793 110.129257 
L 238.80112 106.662629 
L 239.207446 105.171361 
L 239.613772 106.028273 
L 240.426424 109.292785 
L 241.239076 112.022212 
L 241.645402 109.44768 
L 242.051728 106.094653 
L 242.458054 108.243633 
L 242.86438 105.140973 
L 243.270707 108.32197 
L 243.677033 109.521007 
L 244.489685 106.689781 
L 244.896011 109.041704 
L 245.302337 108.604648 
L 245.708663 106.114891 
L 246.114989 107.612029 
L 246.521315 103.628802 
L 246.927641 108.957994 
L 247.333967 111.042234 
L 247.740294 112.464791 
L 248.14662 111.562756 
L 248.552946 108.381885 
L 248.959272 102.301292 
L 249.365598 108.481914 
L 249.771924 108.307272 
L 250.17825 104.127407 
L 250.584576 106.16327 
L 250.990902 110.36208 
L 251.397228 108.656756 
L 251.803554 104.477618 
L 252.209881 110.465711 
L 252.616207 106.824473 
L 253.022533 104.225016 
L 253.428859 104.968434 
L 253.835185 107.986575 
L 254.241511 103.030352 
L 254.647837 107.2016 
L 255.054163 108.161782 
L 255.460489 107.300348 
L 255.866815 110.865738 
L 256.273141 105.181042 
L 256.679468 102.778761 
L 257.085794 105.170503 
L 257.49212 104.670818 
L 257.898446 101.169359 
L 258.711098 105.407496 
L 259.117424 102.279438 
L 259.52375 111.716279 
L 259.930076 110.375471 
L 260.336402 102.569966 
L 261.555381 108.23151 
L 261.961707 105.186164 
L 262.368033 103.893524 
L 262.774359 106.653252 
L 263.180685 107.264312 
L 263.587011 105.62071 
L 263.993337 108.154624 
L 264.399663 103.646671 
L 264.805989 117.884847 
L 265.212315 101.601739 
L 265.618641 110.637461 
L 266.024968 109.814405 
L 266.431294 119.301437 
L 266.83762 107.488198 
L 267.243946 116.366985 
L 267.650272 117.52197 
L 268.056598 115.620861 
L 268.462924 114.488126 
L 268.86925 112.447844 
L 269.275576 102.061086 
L 269.681902 102.9622 
L 270.088228 101.371099 
L 270.494555 101.448132 
L 270.900881 103.548421 
L 271.307207 102.675554 
L 271.713533 106.458204 
L 272.119859 107.739614 
L 272.526185 108.404356 
L 272.932511 118.205093 
L 273.338837 101.815462 
L 273.745163 101.661721 
L 274.151489 117.038259 
L 274.557815 115.649843 
L 274.964142 115.550905 
L 275.370468 108.290736 
L 275.776794 87.242294 
L 276.18312 101.690337 
L 276.589446 104.38589 
L 276.995772 114.669854 
L 277.402098 105.334038 
L 277.808424 105.731972 
L 278.21475 103.129582 
L 278.621076 114.030035 
L 279.027402 101.234398 
L 279.433729 100.114045 
L 279.840055 104.675904 
L 280.246381 101.968837 
L 280.652707 121.651445 
L 281.059033 105.382529 
L 281.465359 108.945702 
L 281.871685 98.667935 
L 282.278011 94.863432 
L 282.684337 89.52869 
L 283.090663 102.105547 
L 283.496989 92.191895 
L 283.903316 97.100043 
L 284.309642 103.529675 
L 284.715968 123.928264 
L 285.122294 107.298113 
L 285.52862 110.138082 
L 285.934946 110.169265 
L 286.341272 109.072143 
L 286.747598 115.177082 
L 287.153924 108.146436 
L 287.56025 108.535423 
L 287.966576 114.000476 
L 288.372902 106.992037 
L 288.779229 103.362886 
L 289.185555 103.326356 
L 289.591881 104.299075 
L 289.998207 110.779651 
L 290.404533 104.015283 
L 290.810859 103.777375 
L 291.217185 108.745944 
L 291.623511 105.103287 
L 292.029837 134.503458 
L 292.436163 105.506888 
L 292.842489 106.63493 
L 293.248816 106.251303 
L 293.655142 106.922833 
L 294.061468 108.913854 
L 294.467794 108.287894 
L 294.87412 107.330973 
L 295.686772 103.148596 
L 296.093098 120.088114 
L 296.499424 105.414736 
L 297.312076 119.730593 
L 297.718403 103.418306 
L 298.124729 106.155653 
L 298.531055 100.59146 
L 298.937381 101.57835 
L 299.343707 104.841272 
L 299.750033 91.633496 
L 300.156359 88.452645 
L 300.562685 91.551196 
L 300.969011 80.813851 
L 301.375337 80.417761 
L 301.781663 88.420735 
L 302.594316 96.122085 
L 303.000642 92.899757 
L 303.406968 92.319856 
L 303.813294 102.118902 
L 304.21962 92.421614 
L 304.625946 105.823156 
L 305.032272 103.874521 
L 305.438598 94.343367 
L 305.844924 96.088919 
L 306.25125 89.331173 
L 306.657577 101.677505 
L 307.470229 96.346016 
L 307.876555 104.932589 
L 308.282881 109.7491 
L 308.689207 111.455329 
L 309.095533 100.046792 
L 309.501859 94.519649 
L 309.908185 101.786807 
L 310.314511 100.650373 
L 310.720837 97.331766 
L 311.127163 96.621634 
L 311.53349 98.218811 
L 311.939816 96.972275 
L 312.346142 110.405204 
L 312.752468 101.955311 
L 313.158794 114.510068 
L 313.971446 118.512405 
L 314.377772 104.555992 
L 314.784098 104.685002 
L 315.190424 103.95372 
L 315.59675 106.212177 
L 316.003077 110.42511 
L 316.409403 101.574243 
L 316.815729 101.557178 
L 317.222055 102.952451 
L 317.628381 102.041039 
L 318.034707 102.141347 
L 318.441033 101.215326 
L 318.847359 129.988391 
L 319.253685 115.379537 
L 319.660011 105.795495 
L 320.066337 109.827792 
L 320.472664 108.242343 
L 320.87899 101.890598 
L 321.285316 121.827611 
L 321.691642 118.620914 
L 322.097968 117.783905 
L 322.504294 106.337729 
L 322.91062 86.184221 
L 323.723272 99.429682 
L 324.129598 98.503561 
L 324.535924 90.290772 
L 324.942251 96.509987 
L 325.348577 90.09324 
L 325.754903 85.770642 
L 326.161229 94.882956 
L 326.567555 99.034661 
L 326.973881 99.887694 
L 327.380207 81.261691 
L 327.786533 93.015801 
L 328.192859 100.244526 
L 328.599185 103.639814 
L 329.005511 104.383888 
L 329.411838 104.015012 
L 329.818164 97.811447 
L 330.22449 88.026457 
L 330.630816 102.90656 
L 331.037142 102.34353 
L 331.443468 95.170558 
L 331.849794 96.262077 
L 332.25612 103.247136 
L 332.662446 107.271762 
L 333.068772 102.413084 
L 333.475098 101.153908 
L 333.881425 102.915097 
L 334.287751 103.418424 
L 334.694077 117.48786 
L 335.100403 101.254643 
L 335.506729 106.543995 
L 335.913055 114.34634 
L 336.319381 112.176861 
L 336.725707 112.171732 
L 337.132033 105.905777 
L 337.538359 103.208508 
L 338.351011 106.276521 
L 339.163664 105.78722 
L 339.56999 103.748898 
L 339.976316 103.125063 
L 340.382642 101.268122 
L 340.788968 108.405806 
L 341.195294 103.263703 
L 341.60162 108.172703 
L 342.007946 107.282552 
L 342.414272 108.218284 
L 342.820598 107.627184 
L 343.226925 101.174887 
L 343.633251 103.488916 
L 344.039577 103.06015 
L 344.445903 105.410719 
L 344.852229 104.41504 
L 345.258555 104.036095 
L 345.664881 102.758106 
L 346.071207 104.080835 
L 346.477533 107.174888 
L 346.883859 105.222113 
L 347.290185 99.893763 
L 347.696512 108.056027 
L 348.102838 96.641667 
L 348.509164 91.999106 
L 348.91549 76.831273 
L 349.321816 86.622169 
L 349.728142 99.960808 
L 350.134468 103.485293 
L 350.540794 82.215018 
L 350.94712 86.228242 
L 351.353446 100.868799 
L 351.759772 103.20498 
L 352.166099 94.650702 
L 352.572425 90.763629 
L 352.978751 89.485976 
L 353.385077 89.178871 
L 353.791403 80.223161 
L 354.197729 91.436521 
L 354.604055 85.426805 
L 355.416707 103.806692 
L 355.823033 105.584503 
L 356.229359 104.43993 
L 356.635686 107.354802 
L 357.042012 91.585339 
L 357.448338 92.892065 
L 357.854664 106.79308 
L 358.26099 103.578199 
L 358.667316 98.881004 
L 359.073642 97.996626 
L 359.479968 81.324863 
L 359.886294 88.441013 
L 360.29262 101.627894 
L 360.698946 108.174658 
L 361.105272 98.589216 
L 361.511599 112.3938 
L 361.917925 113.968596 
L 362.324251 104.06936 
L 362.730577 107.72418 
L 363.136903 104.482108 
L 363.543229 103.485667 
L 363.949555 101.841038 
L 364.355881 102.22548 
L 364.762207 110.917389 
L 365.574859 105.232985 
L 365.981186 105.557661 
L 366.387512 111.497482 
L 366.793838 101.752102 
L 367.200164 129.51801 
L 367.60649 141.721267 
L 368.012816 141.797549 
L 368.825468 108.616505 
L 369.231794 105.065248 
L 369.63812 102.826105 
L 370.044446 140.793025 
L 370.450773 108.394092 
L 370.857099 95.391041 
L 371.263425 99.587162 
L 371.669751 91.833345 
L 372.076077 98.301015 
L 372.482403 94.387285 
L 372.888729 88.411169 
L 373.701381 99.827372 
L 374.107707 98.975002 
L 374.514033 94.638085 
L 374.92036 97.09684 
L 375.326686 54.546737 
L 376.139338 91.58749 
L 376.545664 99.004492 
L 376.95199 99.348831 
L 377.358316 95.814587 
L 377.764642 107.957558 
L 378.170968 98.935908 
L 378.577294 100.835772 
L 378.98362 97.729511 
L 379.389947 98.640947 
L 379.796273 108.839149 
L 380.202599 100.713161 
L 380.608925 110.632113 
L 381.015251 99.359918 
L 381.421577 101.669598 
L 381.827903 111.590713 
L 382.234229 99.480623 
L 383.046881 102.853206 
L 383.453207 102.448312 
L 383.859534 110.222614 
L 384.26586 100.171178 
L 384.672186 101.970655 
L 385.078512 102.183252 
L 385.891164 101.714404 
L 386.29749 100.865244 
L 386.703816 101.034781 
L 387.110142 102.18187 
L 387.516468 104.389498 
L 387.922794 95.664427 
L 388.32912 102.168851 
L 388.735447 103.676118 
L 389.141773 104.337268 
L 389.548099 103.926084 
L 389.954425 105.66977 
L 390.360751 100.910818 
L 390.767077 103.34099 
L 391.173403 99.148379 
L 391.579729 110.465732 
L 391.986055 103.591194 
L 392.392381 102.212318 
L 392.798707 103.260926 
L 393.205034 105.51749 
L 393.61136 103.671947 
L 394.017686 102.751693 
L 394.424012 102.294261 
L 394.830338 102.378379 
L 395.236664 103.489406 
L 395.64299 101.847085 
L 396.049316 103.250097 
L 397.268294 146.874844 
L 397.674621 103.619117 
L 398.080947 101.051345 
L 398.487273 85.048044 
L 398.487273 85.048044 
" style="fill:none;stroke:#1f77b4;stroke-linecap:square;stroke-width:1.5;"/>
   </g>
   <g id="line2d_19">
    <path clip-path="url(#pefbea7cbdc)" d="M 73.832727 293.867352 
L 74.239053 284.65434 
L 74.645379 290.494052 
L 75.051706 290.069875 
L 75.458032 294.342822 
L 75.864358 292.050449 
L 76.270684 295.099695 
L 76.67701 295.187081 
L 77.083336 294.530514 
L 77.489662 294.941266 
L 77.895988 295.185617 
L 78.302314 295.112986 
L 78.70864 294.912499 
L 80.333945 294.996225 
L 80.740271 294.673931 
L 81.146597 295.367453 
L 81.552923 294.735957 
L 82.771901 295.401422 
L 83.178227 295.022351 
L 83.584553 295.442594 
L 84.397206 295.307437 
L 84.803532 295.224622 
L 85.209858 295.321105 
L 86.02251 295.144573 
L 86.428836 295.425795 
L 86.835162 295.228592 
L 87.241488 295.294084 
L 88.05414 295.221064 
L 88.460466 295.43782 
L 88.866793 295.188608 
L 89.273119 295.150784 
L 89.679445 294.565533 
L 90.085771 294.53471 
L 90.492097 295.17236 
L 90.898423 294.863638 
L 91.304749 294.217424 
L 91.711075 294.579256 
L 92.117401 295.345822 
L 92.523727 293.642747 
L 93.33638 295.01683 
L 93.742706 294.475823 
L 94.149032 294.873984 
L 94.555358 294.379319 
L 94.961684 294.261677 
L 95.36801 294.992039 
L 96.180662 295.47711 
L 96.993314 295.117712 
L 97.39964 295.350502 
L 97.805967 294.986107 
L 98.212293 295.15678 
L 98.618619 294.712368 
L 99.024945 294.959424 
L 99.431271 294.598449 
L 99.837597 294.59144 
L 100.243923 295.151038 
L 100.650249 295.12349 
L 101.056575 293.494511 
L 101.462901 295.377019 
L 101.869227 293.930152 
L 102.275554 295.220415 
L 102.68188 295.190645 
L 103.088206 292.86701 
L 103.494532 295.144664 
L 103.900858 295.29577 
L 105.119836 295.205111 
L 105.526162 294.443898 
L 105.932488 294.920738 
L 106.338814 294.925403 
L 106.745141 294.276902 
L 107.151467 295.256234 
L 108.370445 295.124681 
L 108.776771 295.398948 
L 109.183097 294.778055 
L 109.589423 295.233506 
L 110.402075 295.331723 
L 110.808401 294.002983 
L 111.214728 295.121037 
L 111.621054 291.593915 
L 112.02738 295.031226 
L 112.433706 295.127357 
L 112.840032 294.906354 
L 113.652684 295.196458 
L 114.05901 295.206478 
L 114.465336 295.062102 
L 114.871662 293.828872 
L 115.277988 294.707646 
L 115.684314 294.028599 
L 116.090641 295.018535 
L 116.496967 295.396281 
L 117.309619 295.399457 
L 117.715945 294.999931 
L 118.122271 295.072608 
L 118.528597 293.511714 
L 118.934923 295.036915 
L 119.341249 291.757052 
L 119.747575 294.848817 
L 120.153901 295.076968 
L 120.560228 295.468634 
L 120.966554 295.470601 
L 121.37288 295.123662 
L 122.185532 295.27029 
L 122.591858 295.292733 
L 123.40451 294.970698 
L 123.810836 295.27369 
L 124.217162 294.970991 
L 124.623488 295.32068 
L 125.029815 295.265264 
L 125.842467 294.234214 
L 126.248793 294.833556 
L 126.655119 294.853438 
L 127.061445 295.015379 
L 127.467771 294.689835 
L 127.874097 294.817665 
L 130.71838 294.719263 
L 131.124706 294.768486 
L 131.531032 295.0846 
L 131.937358 294.594044 
L 132.75001 294.960358 
L 133.562662 295.056261 
L 133.968989 294.88466 
L 134.375315 294.967273 
L 134.781641 294.821767 
L 135.187967 295.327714 
L 136.813271 295.374703 
L 137.219597 295.159992 
L 137.625923 295.09799 
L 138.032249 295.394267 
L 141.282858 295.393556 
L 141.689184 295.150524 
L 143.314489 295.167048 
L 143.720815 295.409742 
L 144.127141 295.321814 
L 144.533467 295.0316 
L 144.939793 294.476217 
L 145.346119 295.399662 
L 148.190402 295.372839 
L 148.596728 294.77397 
L 149.003054 295.224164 
L 149.40938 295.23708 
L 149.815706 295.386582 
L 150.222032 295.188791 
L 150.628358 294.658281 
L 151.034684 295.250875 
L 151.847336 295.160274 
L 152.253663 294.831252 
L 152.659989 295.397944 
L 153.066315 294.512972 
L 153.472641 294.972341 
L 154.285293 294.842548 
L 154.691619 294.913678 
L 155.097945 294.86056 
L 155.504271 295.044686 
L 155.910597 294.993148 
L 156.316923 295.232404 
L 156.72325 295.018062 
L 157.129576 295.103561 
L 157.535902 294.980323 
L 157.942228 294.397638 
L 158.348554 295.253699 
L 158.75488 294.921049 
L 160.380184 294.954434 
L 160.78651 295.247546 
L 161.192837 294.391835 
L 161.599163 295.417411 
L 163.224467 295.455495 
L 164.443445 295.407694 
L 165.256097 295.325002 
L 165.662423 295.316132 
L 166.06875 294.87797 
L 166.475076 294.773911 
L 166.881402 295.359304 
L 167.694054 295.271745 
L 168.10038 294.872174 
L 168.913032 295.408719 
L 169.319358 295.231069 
L 169.725684 295.235197 
L 170.13201 294.862388 
L 170.538337 295.356434 
L 171.350989 295.296473 
L 171.757315 292.618158 
L 172.163641 294.80598 
L 172.569967 295.229671 
L 172.976293 295.057044 
L 173.382619 294.012364 
L 173.788945 294.064872 
L 174.195271 295.40816 
L 174.601597 294.136866 
L 175.007924 294.133253 
L 175.41425 295.028315 
L 175.820576 295.372761 
L 176.633228 295.302525 
L 177.039554 294.140869 
L 177.44588 295.252625 
L 177.852206 295.142899 
L 178.258532 295.245501 
L 178.664858 294.698105 
L 179.071184 294.55999 
L 179.477511 295.303738 
L 179.883837 294.36994 
L 180.290163 295.127212 
L 180.696489 295.368168 
L 181.102815 295.148416 
L 181.509141 295.384732 
L 181.915467 294.71193 
L 182.321793 295.064514 
L 182.728119 295.028698 
L 183.134445 295.25318 
L 183.540771 294.934208 
L 184.353424 295.317424 
L 184.75975 293.674825 
L 185.166076 295.155586 
L 185.572402 295.448498 
L 185.978728 294.230846 
L 186.385054 294.987492 
L 186.79138 294.674766 
L 187.197706 295.077687 
L 187.604032 295.153487 
L 188.010358 294.869919 
L 188.416684 294.393921 
L 188.823011 295.391055 
L 189.229337 295.294612 
L 189.635663 293.983558 
L 190.448315 293.901554 
L 190.854641 295.28296 
L 191.260967 294.473472 
L 191.667293 294.657372 
L 192.073619 293.15192 
L 192.479945 295.446897 
L 192.886271 293.648979 
L 193.292598 293.974638 
L 193.698924 294.012737 
L 194.10525 294.290677 
L 194.511576 295.190563 
L 194.917902 294.881944 
L 195.324228 294.317326 
L 195.730554 295.396766 
L 196.13688 295.38161 
L 196.949532 294.772244 
L 197.355858 295.384243 
L 197.762185 294.985676 
L 198.168511 294.227023 
L 198.574837 295.095478 
L 198.981163 294.941806 
L 199.387489 295.470775 
L 199.793815 295.488 
L 200.200141 295.382137 
L 200.606467 295.121808 
L 201.012793 294.645595 
L 202.231772 294.772324 
L 202.638098 295.315565 
L 203.857076 294.410965 
L 204.263402 294.382256 
L 204.669728 295.370546 
L 205.076054 295.042521 
L 205.48238 293.027921 
L 205.888706 295.268984 
L 206.295032 295.269092 
L 206.701359 294.894459 
L 207.107685 295.259976 
L 207.514011 294.90602 
L 207.920337 293.174455 
L 209.545641 293.212928 
L 209.951967 294.93857 
L 210.358293 294.271817 
L 210.764619 294.535654 
L 211.170946 295.473178 
L 211.577272 295.467917 
L 211.983598 295.226197 
L 214.015228 295.368366 
L 214.421554 294.981949 
L 214.82788 295.249679 
L 215.234206 295.008449 
L 215.640532 295.44268 
L 219.703793 295.365742 
L 220.110119 295.307234 
L 220.516446 294.451243 
L 222.548076 294.460424 
L 222.954402 295.29882 
L 223.360728 294.444568 
L 223.767054 294.619827 
L 224.17338 294.567518 
L 224.579706 294.332591 
L 224.986033 294.50733 
L 225.392359 294.492595 
L 225.798685 295.221566 
L 226.205011 295.154262 
L 226.611337 295.337689 
L 227.017663 295.195769 
L 227.423989 294.886171 
L 227.830315 293.681057 
L 228.236641 292.900999 
L 228.642967 292.794338 
L 229.049293 294.234898 
L 229.45562 295.241809 
L 229.861946 295.465181 
L 231.080924 294.730123 
L 231.48725 294.980026 
L 231.893576 294.302613 
L 232.706228 293.647769 
L 233.112554 293.864236 
L 233.51888 295.427978 
L 233.925207 294.936682 
L 234.331533 295.186851 
L 234.737859 295.118818 
L 235.144185 295.267463 
L 235.550511 295.014846 
L 235.956837 291.730992 
L 236.363163 294.845236 
L 236.769489 292.591336 
L 237.175815 295.393283 
L 237.582141 295.126652 
L 237.988467 294.725116 
L 238.394793 295.44169 
L 238.80112 295.238204 
L 239.207446 294.245197 
L 239.613772 295.429486 
L 240.020098 295.280731 
L 240.83275 294.666467 
L 241.239076 292.546248 
L 241.645402 292.278804 
L 242.051728 295.42914 
L 242.86438 295.348867 
L 243.270707 294.861219 
L 243.677033 295.368602 
L 244.083359 294.97704 
L 244.489685 295.207115 
L 244.896011 294.862159 
L 245.708663 294.981554 
L 246.114989 294.58187 
L 246.521315 294.412437 
L 247.333967 295.349215 
L 247.740294 294.935565 
L 248.14662 295.285787 
L 248.552946 286.511494 
L 248.959272 295.078974 
L 249.365598 294.765221 
L 250.17825 295.177181 
L 250.584576 295.228467 
L 250.990902 293.546777 
L 251.397228 294.719461 
L 251.803554 295.433621 
L 252.209881 294.593008 
L 252.616207 295.285762 
L 253.022533 293.984509 
L 253.428859 295.326446 
L 253.835185 295.27964 
L 254.241511 295.39544 
L 254.647837 294.779969 
L 255.054163 294.414753 
L 255.460489 295.266527 
L 255.866815 294.431213 
L 256.273141 295.170997 
L 257.085794 295.049301 
L 257.49212 295.438876 
L 259.52375 295.185219 
L 259.930076 292.402515 
L 260.336402 295.35097 
L 260.742728 295.250987 
L 261.149054 295.003147 
L 261.555381 295.089975 
L 261.961707 294.943847 
L 262.774359 294.943454 
L 263.180685 295.181123 
L 263.993337 293.403098 
L 264.399663 295.017968 
L 264.805989 294.914042 
L 265.212315 295.269781 
L 265.618641 295.248413 
L 266.024968 295.35745 
L 266.431294 294.845652 
L 266.83762 294.629691 
L 267.243946 294.23154 
L 267.650272 295.271901 
L 268.462924 295.484919 
L 268.86925 294.220219 
L 269.275576 291.344096 
L 269.681902 284.211538 
L 270.088228 293.255751 
L 270.494555 295.45029 
L 271.307207 295.297534 
L 271.713533 295.451517 
L 272.119859 294.930086 
L 272.526185 295.209728 
L 272.932511 294.656242 
L 273.338837 294.710751 
L 273.745163 293.433026 
L 274.151489 293.245221 
L 274.557815 294.306673 
L 274.964142 294.297989 
L 275.370468 294.537412 
L 276.18312 295.458359 
L 276.589446 295.060247 
L 276.995772 294.448839 
L 277.402098 294.755447 
L 277.808424 295.354101 
L 278.21475 295.295316 
L 278.621076 294.476676 
L 279.027402 295.246131 
L 279.433729 294.748579 
L 279.840055 294.857 
L 280.246381 295.293665 
L 280.652707 294.756678 
L 281.465359 295.425901 
L 281.871685 295.111929 
L 282.278011 295.360025 
L 283.090663 295.261584 
L 283.496989 295.365016 
L 283.903316 294.43861 
L 284.309642 291.87936 
L 284.715968 293.91349 
L 285.122294 294.987101 
L 285.52862 294.098188 
L 285.934946 295.365693 
L 286.341272 293.426101 
L 287.153924 293.965051 
L 287.56025 292.078195 
L 287.966576 295.109395 
L 288.372902 295.117688 
L 288.779229 295.304815 
L 289.185555 295.34833 
L 289.591881 294.257101 
L 289.998207 295.300598 
L 290.404533 295.385392 
L 290.810859 295.265221 
L 292.029837 295.387139 
L 292.436163 295.479034 
L 292.842489 294.721236 
L 293.655142 295.260969 
L 294.87412 295.27164 
L 295.280446 295.094142 
L 296.499424 295.042342 
L 296.90575 295.392439 
L 297.312076 295.252234 
L 298.124729 295.381859 
L 298.937381 295.470685 
L 299.343707 294.727372 
L 299.750033 294.363263 
L 300.156359 295.372193 
L 300.562685 295.460096 
L 300.969011 295.281138 
L 301.781663 295.101904 
L 302.18799 295.310859 
L 303.000642 295.325795 
L 303.406968 294.808277 
L 303.813294 294.766375 
L 304.21962 295.233932 
L 305.032272 295.263258 
L 305.438598 295.396787 
L 305.844924 295.359915 
L 306.25125 295.202856 
L 308.282881 295.349538 
L 308.689207 295.018288 
L 309.501859 295.451993 
L 309.908185 294.8754 
L 310.314511 295.180423 
L 311.53349 295.484934 
L 311.939816 295.444882 
L 312.346142 294.720681 
L 312.752468 294.505139 
L 313.158794 295.483365 
L 313.56512 294.874674 
L 313.971446 293.930784 
L 314.377772 294.983095 
L 314.784098 295.249898 
L 315.59675 295.388503 
L 316.003077 295.125902 
L 316.409403 295.134581 
L 317.222055 295.346376 
L 317.628381 295.135746 
L 318.034707 295.294113 
L 318.847359 295.023974 
L 319.253685 295.043025 
L 319.660011 295.390846 
L 320.066337 295.04403 
L 320.87899 295.028039 
L 321.285316 295.347766 
L 321.691642 295.351666 
L 322.097968 294.954962 
L 322.504294 294.959766 
L 322.91062 295.274273 
L 323.316946 295.111689 
L 323.723272 295.192824 
L 324.535924 294.78232 
L 325.348577 295.279627 
L 326.161229 295.322729 
L 326.567555 295.099908 
L 326.973881 295.274316 
L 327.380207 295.021142 
L 327.786533 295.079487 
L 328.192859 294.800403 
L 328.599185 293.451524 
L 329.005511 293.106245 
L 329.411838 295.073216 
L 330.22449 294.866676 
L 331.443468 295.45296 
L 331.849794 295.013135 
L 332.25612 293.852395 
L 332.662446 294.538304 
L 333.475098 295.040113 
L 333.881425 294.886031 
L 334.287751 294.892586 
L 334.694077 295.359803 
L 335.100403 295.11137 
L 335.506729 294.679811 
L 335.913055 295.343107 
L 336.319381 295.408766 
L 336.725707 295.267465 
L 337.132033 295.007175 
L 337.538359 293.947466 
L 337.944685 293.516985 
L 338.351011 295.412721 
L 338.757338 295.018509 
L 339.163664 295.443279 
L 339.56999 295.299162 
L 340.382642 294.399755 
L 340.788968 293.542229 
L 341.195294 294.713149 
L 341.60162 294.649226 
L 342.007946 295.154705 
L 342.414272 294.634044 
L 342.820598 295.151536 
L 343.226925 295.460925 
L 343.633251 295.102639 
L 344.039577 295.094872 
L 344.445903 295.31187 
L 344.852229 294.638816 
L 345.258555 295.153717 
L 345.664881 294.760186 
L 346.477533 294.452974 
L 347.696512 294.226495 
L 348.102838 295.06221 
L 348.91549 295.102698 
L 349.321816 295.340355 
L 349.728142 295.166522 
L 350.540794 293.688455 
L 350.94712 294.722443 
L 351.353446 294.056946 
L 351.759772 294.914001 
L 352.166099 295.341164 
L 352.572425 295.276027 
L 352.978751 295.367001 
L 353.385077 295.103124 
L 353.791403 295.103909 
L 354.197729 295.367487 
L 354.604055 295.210247 
L 355.416707 295.22151 
L 355.823033 295.417605 
L 356.635686 295.425286 
L 357.042012 294.836607 
L 357.448338 295.376249 
L 358.26099 294.091628 
L 358.667316 295.363045 
L 359.073642 294.775654 
L 359.886294 295.178124 
L 360.29262 294.808544 
L 360.698946 294.890745 
L 361.105272 294.282844 
L 361.917925 294.691267 
L 362.324251 294.565322 
L 362.730577 293.646748 
L 363.136903 294.807345 
L 363.543229 295.224398 
L 363.949555 294.597653 
L 364.355881 295.20596 
L 364.762207 294.705307 
L 365.168533 294.924178 
L 367.200164 294.749067 
L 367.60649 292.639846 
L 368.012816 292.458697 
L 368.419142 294.256277 
L 369.231794 295.387356 
L 370.044446 295.26471 
L 370.857099 295.357164 
L 374.107707 295.381558 
L 374.514033 295.220579 
L 374.92036 295.400738 
L 375.733012 295.401967 
L 376.139338 295.216226 
L 376.545664 295.31466 
L 376.95199 295.085767 
L 377.764642 295.380137 
L 378.170968 295.303434 
L 378.577294 293.631294 
L 378.98362 295.321091 
L 379.389947 295.390985 
L 379.796273 294.229757 
L 380.202599 295.42202 
L 380.608925 292.551825 
L 381.015251 295.393631 
L 381.421577 294.73394 
L 381.827903 295.447312 
L 382.234229 294.098058 
L 382.640555 290.363387 
L 383.046881 293.57825 
L 383.453207 294.779966 
L 384.26586 295.364789 
L 384.672186 294.717723 
L 385.484838 294.364079 
L 385.891164 294.917878 
L 386.29749 295.113702 
L 387.110142 294.760376 
L 387.516468 295.015059 
L 387.922794 294.557921 
L 388.32912 294.845134 
L 389.141773 294.76434 
L 389.548099 295.135301 
L 389.954425 295.144833 
L 390.360751 293.785363 
L 390.767077 294.238293 
L 391.173403 292.651607 
L 391.579729 294.132321 
L 391.986055 294.928449 
L 392.392381 295.410276 
L 392.798707 295.270727 
L 393.205034 294.495446 
L 393.61136 294.433437 
L 394.017686 295.093204 
L 396.049316 295.261992 
L 396.861968 293.818685 
L 397.268294 295.35016 
L 398.080947 295.321738 
L 398.487273 292.726256 
L 398.487273 292.726256 
" style="fill:none;stroke:#ff7f0e;stroke-linecap:square;stroke-width:1.5;"/>
   </g>
   <g id="patch_3">
    <path d="M 57.6 307.584 
L 57.6 41.472 
" style="fill:none;stroke:#000000;stroke-linecap:square;stroke-linejoin:miter;stroke-width:0.8;"/>
   </g>
   <g id="patch_4">
    <path d="M 414.72 307.584 
L 414.72 41.472 
" style="fill:none;stroke:#000000;stroke-linecap:square;stroke-linejoin:miter;stroke-width:0.8;"/>
   </g>
   <g id="patch_5">
    <path d="M 57.6 307.584 
L 414.72 307.584 
" style="fill:none;stroke:#000000;stroke-linecap:square;stroke-linejoin:miter;stroke-width:0.8;"/>
   </g>
   <g id="patch_6">
    <path d="M 57.6 41.472 
L 414.72 41.472 
" style="fill:none;stroke:#000000;stroke-linecap:square;stroke-linejoin:miter;stroke-width:0.8;"/>
   </g>
  </g>
 </g>
 <defs>
  <clipPath id="pefbea7cbdc">
   <rect height="266.112" width="357.12" x="57.6" y="41.472"/>
  </clipPath>
 </defs>
</svg>
