<?xml version="1.0" encoding="utf-8" standalone="no"?>
<!DOCTYPE svg PUBLIC "-//W3C//DTD SVG 1.1//EN"
  "http://www.w3.org/Graphics/SVG/1.1/DTD/svg11.dtd">
<!-- Created with matplotlib (https://matplotlib.org/) -->
<svg height="345.6pt" version="1.1" viewBox="0 0 460.8 345.6" width="460.8pt" xmlns="http://www.w3.org/2000/svg" xmlns:xlink="http://www.w3.org/1999/xlink">
 <defs>
  <style type="text/css">
*{stroke-linecap:butt;stroke-linejoin:round;}
  </style>
 </defs>
 <g id="figure_1">
  <g id="patch_1">
   <path d="M 0 345.6 
L 460.8 345.6 
L 460.8 0 
L 0 0 
z
" style="fill:#ffffff;"/>
  </g>
  <g id="axes_1">
   <g id="patch_2">
    <path d="M 57.6 307.584 
L 414.72 307.584 
L 414.72 41.472 
L 57.6 41.472 
z
" style="fill:#ffffff;"/>
   </g>
   <g id="matplotlib.axis_1">
    <g id="xtick_1">
     <g id="line2d_1">
      <defs>
       <path d="M 0 0 
L 0 3.5 
" id="m0a58c0197c" style="stroke:#000000;stroke-width:0.8;"/>
      </defs>
      <g>
       <use style="stroke:#000000;stroke-width:0.8;" x="73.832727" xlink:href="#m0a58c0197c" y="307.584"/>
      </g>
     </g>
     <g id="text_1">
      <!-- 0 -->
      <defs>
       <path d="M 31.78125 66.40625 
Q 24.171875 66.40625 20.328125 58.90625 
Q 16.5 51.421875 16.5 36.375 
Q 16.5 21.390625 20.328125 13.890625 
Q 24.171875 6.390625 31.78125 6.390625 
Q 39.453125 6.390625 43.28125 13.890625 
Q 47.125 21.390625 47.125 36.375 
Q 47.125 51.421875 43.28125 58.90625 
Q 39.453125 66.40625 31.78125 66.40625 
z
M 31.78125 74.21875 
Q 44.046875 74.21875 50.515625 64.515625 
Q 56.984375 54.828125 56.984375 36.375 
Q 56.984375 17.96875 50.515625 8.265625 
Q 44.046875 -1.421875 31.78125 -1.421875 
Q 19.53125 -1.421875 13.0625 8.265625 
Q 6.59375 17.96875 6.59375 36.375 
Q 6.59375 54.828125 13.0625 64.515625 
Q 19.53125 74.21875 31.78125 74.21875 
z
" id="DejaVuSans-48"/>
      </defs>
      <g transform="translate(70.651477 322.182437)scale(0.1 -0.1)">
       <use xlink:href="#DejaVuSans-48"/>
      </g>
     </g>
    </g>
    <g id="xtick_2">
     <g id="line2d_2">
      <g>
       <use style="stroke:#000000;stroke-width:0.8;" x="114.465336" xlink:href="#m0a58c0197c" y="307.584"/>
      </g>
     </g>
     <g id="text_2">
      <!-- 100 -->
      <defs>
       <path d="M 12.40625 8.296875 
L 28.515625 8.296875 
L 28.515625 63.921875 
L 10.984375 60.40625 
L 10.984375 69.390625 
L 28.421875 72.90625 
L 38.28125 72.90625 
L 38.28125 8.296875 
L 54.390625 8.296875 
L 54.390625 0 
L 12.40625 0 
z
" id="DejaVuSans-49"/>
      </defs>
      <g transform="translate(104.921586 322.182437)scale(0.1 -0.1)">
       <use xlink:href="#DejaVuSans-49"/>
       <use x="63.623047" xlink:href="#DejaVuSans-48"/>
       <use x="127.246094" xlink:href="#DejaVuSans-48"/>
      </g>
     </g>
    </g>
    <g id="xtick_3">
     <g id="line2d_3">
      <g>
       <use style="stroke:#000000;stroke-width:0.8;" x="155.097945" xlink:href="#m0a58c0197c" y="307.584"/>
      </g>
     </g>
     <g id="text_3">
      <!-- 200 -->
      <defs>
       <path d="M 19.1875 8.296875 
L 53.609375 8.296875 
L 53.609375 0 
L 7.328125 0 
L 7.328125 8.296875 
Q 12.9375 14.109375 22.625 23.890625 
Q 32.328125 33.6875 34.8125 36.53125 
Q 39.546875 41.84375 41.421875 45.53125 
Q 43.3125 49.21875 43.3125 52.78125 
Q 43.3125 58.59375 39.234375 62.25 
Q 35.15625 65.921875 28.609375 65.921875 
Q 23.96875 65.921875 18.8125 64.3125 
Q 13.671875 62.703125 7.8125 59.421875 
L 7.8125 69.390625 
Q 13.765625 71.78125 18.9375 73 
Q 24.125 74.21875 28.421875 74.21875 
Q 39.75 74.21875 46.484375 68.546875 
Q 53.21875 62.890625 53.21875 53.421875 
Q 53.21875 48.921875 51.53125 44.890625 
Q 49.859375 40.875 45.40625 35.40625 
Q 44.1875 33.984375 37.640625 27.21875 
Q 31.109375 20.453125 19.1875 8.296875 
z
" id="DejaVuSans-50"/>
      </defs>
      <g transform="translate(145.554195 322.182437)scale(0.1 -0.1)">
       <use xlink:href="#DejaVuSans-50"/>
       <use x="63.623047" xlink:href="#DejaVuSans-48"/>
       <use x="127.246094" xlink:href="#DejaVuSans-48"/>
      </g>
     </g>
    </g>
    <g id="xtick_4">
     <g id="line2d_4">
      <g>
       <use style="stroke:#000000;stroke-width:0.8;" x="195.730554" xlink:href="#m0a58c0197c" y="307.584"/>
      </g>
     </g>
     <g id="text_4">
      <!-- 300 -->
      <defs>
       <path d="M 40.578125 39.3125 
Q 47.65625 37.796875 51.625 33 
Q 55.609375 28.21875 55.609375 21.1875 
Q 55.609375 10.40625 48.1875 4.484375 
Q 40.765625 -1.421875 27.09375 -1.421875 
Q 22.515625 -1.421875 17.65625 -0.515625 
Q 12.796875 0.390625 7.625 2.203125 
L 7.625 11.71875 
Q 11.71875 9.328125 16.59375 8.109375 
Q 21.484375 6.890625 26.8125 6.890625 
Q 36.078125 6.890625 40.9375 10.546875 
Q 45.796875 14.203125 45.796875 21.1875 
Q 45.796875 27.640625 41.28125 31.265625 
Q 36.765625 34.90625 28.71875 34.90625 
L 20.21875 34.90625 
L 20.21875 43.015625 
L 29.109375 43.015625 
Q 36.375 43.015625 40.234375 45.921875 
Q 44.09375 48.828125 44.09375 54.296875 
Q 44.09375 59.90625 40.109375 62.90625 
Q 36.140625 65.921875 28.71875 65.921875 
Q 24.65625 65.921875 20.015625 65.03125 
Q 15.375 64.15625 9.8125 62.3125 
L 9.8125 71.09375 
Q 15.4375 72.65625 20.34375 73.4375 
Q 25.25 74.21875 29.59375 74.21875 
Q 40.828125 74.21875 47.359375 69.109375 
Q 53.90625 64.015625 53.90625 55.328125 
Q 53.90625 49.265625 50.4375 45.09375 
Q 46.96875 40.921875 40.578125 39.3125 
z
" id="DejaVuSans-51"/>
      </defs>
      <g transform="translate(186.186804 322.182437)scale(0.1 -0.1)">
       <use xlink:href="#DejaVuSans-51"/>
       <use x="63.623047" xlink:href="#DejaVuSans-48"/>
       <use x="127.246094" xlink:href="#DejaVuSans-48"/>
      </g>
     </g>
    </g>
    <g id="xtick_5">
     <g id="line2d_5">
      <g>
       <use style="stroke:#000000;stroke-width:0.8;" x="236.363163" xlink:href="#m0a58c0197c" y="307.584"/>
      </g>
     </g>
     <g id="text_5">
      <!-- 400 -->
      <defs>
       <path d="M 37.796875 64.3125 
L 12.890625 25.390625 
L 37.796875 25.390625 
z
M 35.203125 72.90625 
L 47.609375 72.90625 
L 47.609375 25.390625 
L 58.015625 25.390625 
L 58.015625 17.1875 
L 47.609375 17.1875 
L 47.609375 0 
L 37.796875 0 
L 37.796875 17.1875 
L 4.890625 17.1875 
L 4.890625 26.703125 
z
" id="DejaVuSans-52"/>
      </defs>
      <g transform="translate(226.819413 322.182437)scale(0.1 -0.1)">
       <use xlink:href="#DejaVuSans-52"/>
       <use x="63.623047" xlink:href="#DejaVuSans-48"/>
       <use x="127.246094" xlink:href="#DejaVuSans-48"/>
      </g>
     </g>
    </g>
    <g id="xtick_6">
     <g id="line2d_6">
      <g>
       <use style="stroke:#000000;stroke-width:0.8;" x="276.995772" xlink:href="#m0a58c0197c" y="307.584"/>
      </g>
     </g>
     <g id="text_6">
      <!-- 500 -->
      <defs>
       <path d="M 10.796875 72.90625 
L 49.515625 72.90625 
L 49.515625 64.59375 
L 19.828125 64.59375 
L 19.828125 46.734375 
Q 21.96875 47.46875 24.109375 47.828125 
Q 26.265625 48.1875 28.421875 48.1875 
Q 40.625 48.1875 47.75 41.5 
Q 54.890625 34.8125 54.890625 23.390625 
Q 54.890625 11.625 47.5625 5.09375 
Q 40.234375 -1.421875 26.90625 -1.421875 
Q 22.3125 -1.421875 17.546875 -0.640625 
Q 12.796875 0.140625 7.71875 1.703125 
L 7.71875 11.625 
Q 12.109375 9.234375 16.796875 8.0625 
Q 21.484375 6.890625 26.703125 6.890625 
Q 35.15625 6.890625 40.078125 11.328125 
Q 45.015625 15.765625 45.015625 23.390625 
Q 45.015625 31 40.078125 35.4375 
Q 35.15625 39.890625 26.703125 39.890625 
Q 22.75 39.890625 18.8125 39.015625 
Q 14.890625 38.140625 10.796875 36.28125 
z
" id="DejaVuSans-53"/>
      </defs>
      <g transform="translate(267.452022 322.182437)scale(0.1 -0.1)">
       <use xlink:href="#DejaVuSans-53"/>
       <use x="63.623047" xlink:href="#DejaVuSans-48"/>
       <use x="127.246094" xlink:href="#DejaVuSans-48"/>
      </g>
     </g>
    </g>
    <g id="xtick_7">
     <g id="line2d_7">
      <g>
       <use style="stroke:#000000;stroke-width:0.8;" x="317.628381" xlink:href="#m0a58c0197c" y="307.584"/>
      </g>
     </g>
     <g id="text_7">
      <!-- 600 -->
      <defs>
       <path d="M 33.015625 40.375 
Q 26.375 40.375 22.484375 35.828125 
Q 18.609375 31.296875 18.609375 23.390625 
Q 18.609375 15.53125 22.484375 10.953125 
Q 26.375 6.390625 33.015625 6.390625 
Q 39.65625 6.390625 43.53125 10.953125 
Q 47.40625 15.53125 47.40625 23.390625 
Q 47.40625 31.296875 43.53125 35.828125 
Q 39.65625 40.375 33.015625 40.375 
z
M 52.59375 71.296875 
L 52.59375 62.3125 
Q 48.875 64.0625 45.09375 64.984375 
Q 41.3125 65.921875 37.59375 65.921875 
Q 27.828125 65.921875 22.671875 59.328125 
Q 17.53125 52.734375 16.796875 39.40625 
Q 19.671875 43.65625 24.015625 45.921875 
Q 28.375 48.1875 33.59375 48.1875 
Q 44.578125 48.1875 50.953125 41.515625 
Q 57.328125 34.859375 57.328125 23.390625 
Q 57.328125 12.15625 50.6875 5.359375 
Q 44.046875 -1.421875 33.015625 -1.421875 
Q 20.359375 -1.421875 13.671875 8.265625 
Q 6.984375 17.96875 6.984375 36.375 
Q 6.984375 53.65625 15.1875 63.9375 
Q 23.390625 74.21875 37.203125 74.21875 
Q 40.921875 74.21875 44.703125 73.484375 
Q 48.484375 72.75 52.59375 71.296875 
z
" id="DejaVuSans-54"/>
      </defs>
      <g transform="translate(308.084631 322.182437)scale(0.1 -0.1)">
       <use xlink:href="#DejaVuSans-54"/>
       <use x="63.623047" xlink:href="#DejaVuSans-48"/>
       <use x="127.246094" xlink:href="#DejaVuSans-48"/>
      </g>
     </g>
    </g>
    <g id="xtick_8">
     <g id="line2d_8">
      <g>
       <use style="stroke:#000000;stroke-width:0.8;" x="358.26099" xlink:href="#m0a58c0197c" y="307.584"/>
      </g>
     </g>
     <g id="text_8">
      <!-- 700 -->
      <defs>
       <path d="M 8.203125 72.90625 
L 55.078125 72.90625 
L 55.078125 68.703125 
L 28.609375 0 
L 18.3125 0 
L 43.21875 64.59375 
L 8.203125 64.59375 
z
" id="DejaVuSans-55"/>
      </defs>
      <g transform="translate(348.71724 322.182437)scale(0.1 -0.1)">
       <use xlink:href="#DejaVuSans-55"/>
       <use x="63.623047" xlink:href="#DejaVuSans-48"/>
       <use x="127.246094" xlink:href="#DejaVuSans-48"/>
      </g>
     </g>
    </g>
    <g id="xtick_9">
     <g id="line2d_9">
      <g>
       <use style="stroke:#000000;stroke-width:0.8;" x="398.893599" xlink:href="#m0a58c0197c" y="307.584"/>
      </g>
     </g>
     <g id="text_9">
      <!-- 800 -->
      <defs>
       <path d="M 31.78125 34.625 
Q 24.75 34.625 20.71875 30.859375 
Q 16.703125 27.09375 16.703125 20.515625 
Q 16.703125 13.921875 20.71875 10.15625 
Q 24.75 6.390625 31.78125 6.390625 
Q 38.8125 6.390625 42.859375 10.171875 
Q 46.921875 13.96875 46.921875 20.515625 
Q 46.921875 27.09375 42.890625 30.859375 
Q 38.875 34.625 31.78125 34.625 
z
M 21.921875 38.8125 
Q 15.578125 40.375 12.03125 44.71875 
Q 8.5 49.078125 8.5 55.328125 
Q 8.5 64.0625 14.71875 69.140625 
Q 20.953125 74.21875 31.78125 74.21875 
Q 42.671875 74.21875 48.875 69.140625 
Q 55.078125 64.0625 55.078125 55.328125 
Q 55.078125 49.078125 51.53125 44.71875 
Q 48 40.375 41.703125 38.8125 
Q 48.828125 37.15625 52.796875 32.3125 
Q 56.78125 27.484375 56.78125 20.515625 
Q 56.78125 9.90625 50.3125 4.234375 
Q 43.84375 -1.421875 31.78125 -1.421875 
Q 19.734375 -1.421875 13.25 4.234375 
Q 6.78125 9.90625 6.78125 20.515625 
Q 6.78125 27.484375 10.78125 32.3125 
Q 14.796875 37.15625 21.921875 38.8125 
z
M 18.3125 54.390625 
Q 18.3125 48.734375 21.84375 45.5625 
Q 25.390625 42.390625 31.78125 42.390625 
Q 38.140625 42.390625 41.71875 45.5625 
Q 45.3125 48.734375 45.3125 54.390625 
Q 45.3125 60.0625 41.71875 63.234375 
Q 38.140625 66.40625 31.78125 66.40625 
Q 25.390625 66.40625 21.84375 63.234375 
Q 18.3125 60.0625 18.3125 54.390625 
z
" id="DejaVuSans-56"/>
      </defs>
      <g transform="translate(389.349849 322.182437)scale(0.1 -0.1)">
       <use xlink:href="#DejaVuSans-56"/>
       <use x="63.623047" xlink:href="#DejaVuSans-48"/>
       <use x="127.246094" xlink:href="#DejaVuSans-48"/>
      </g>
     </g>
    </g>
   </g>
   <g id="matplotlib.axis_2">
    <g id="ytick_1">
     <g id="line2d_10">
      <defs>
       <path d="M 0 0 
L -3.5 0 
" id="mfd42196e6e" style="stroke:#000000;stroke-width:0.8;"/>
      </defs>
      <g>
       <use style="stroke:#000000;stroke-width:0.8;" x="57.6" xlink:href="#mfd42196e6e" y="295.503018"/>
      </g>
     </g>
     <g id="text_10">
      <!-- 0.000 -->
      <defs>
       <path d="M 10.6875 12.40625 
L 21 12.40625 
L 21 0 
L 10.6875 0 
z
" id="DejaVuSans-46"/>
      </defs>
      <g transform="translate(21.971875 299.302237)scale(0.1 -0.1)">
       <use xlink:href="#DejaVuSans-48"/>
       <use x="63.623047" xlink:href="#DejaVuSans-46"/>
       <use x="95.410156" xlink:href="#DejaVuSans-48"/>
       <use x="159.033203" xlink:href="#DejaVuSans-48"/>
       <use x="222.65625" xlink:href="#DejaVuSans-48"/>
      </g>
     </g>
    </g>
    <g id="ytick_2">
     <g id="line2d_11">
      <g>
       <use style="stroke:#000000;stroke-width:0.8;" x="57.6" xlink:href="#mfd42196e6e" y="247.78728"/>
      </g>
     </g>
     <g id="text_11">
      <!-- 0.002 -->
      <g transform="translate(21.971875 251.586499)scale(0.1 -0.1)">
       <use xlink:href="#DejaVuSans-48"/>
       <use x="63.623047" xlink:href="#DejaVuSans-46"/>
       <use x="95.410156" xlink:href="#DejaVuSans-48"/>
       <use x="159.033203" xlink:href="#DejaVuSans-48"/>
       <use x="222.65625" xlink:href="#DejaVuSans-50"/>
      </g>
     </g>
    </g>
    <g id="ytick_3">
     <g id="line2d_12">
      <g>
       <use style="stroke:#000000;stroke-width:0.8;" x="57.6" xlink:href="#mfd42196e6e" y="200.071541"/>
      </g>
     </g>
     <g id="text_12">
      <!-- 0.004 -->
      <g transform="translate(21.971875 203.87076)scale(0.1 -0.1)">
       <use xlink:href="#DejaVuSans-48"/>
       <use x="63.623047" xlink:href="#DejaVuSans-46"/>
       <use x="95.410156" xlink:href="#DejaVuSans-48"/>
       <use x="159.033203" xlink:href="#DejaVuSans-48"/>
       <use x="222.65625" xlink:href="#DejaVuSans-52"/>
      </g>
     </g>
    </g>
    <g id="ytick_4">
     <g id="line2d_13">
      <g>
       <use style="stroke:#000000;stroke-width:0.8;" x="57.6" xlink:href="#mfd42196e6e" y="152.355803"/>
      </g>
     </g>
     <g id="text_13">
      <!-- 0.006 -->
      <g transform="translate(21.971875 156.155022)scale(0.1 -0.1)">
       <use xlink:href="#DejaVuSans-48"/>
       <use x="63.623047" xlink:href="#DejaVuSans-46"/>
       <use x="95.410156" xlink:href="#DejaVuSans-48"/>
       <use x="159.033203" xlink:href="#DejaVuSans-48"/>
       <use x="222.65625" xlink:href="#DejaVuSans-54"/>
      </g>
     </g>
    </g>
    <g id="ytick_5">
     <g id="line2d_14">
      <g>
       <use style="stroke:#000000;stroke-width:0.8;" x="57.6" xlink:href="#mfd42196e6e" y="104.640064"/>
      </g>
     </g>
     <g id="text_14">
      <!-- 0.008 -->
      <g transform="translate(21.971875 108.439283)scale(0.1 -0.1)">
       <use xlink:href="#DejaVuSans-48"/>
       <use x="63.623047" xlink:href="#DejaVuSans-46"/>
       <use x="95.410156" xlink:href="#DejaVuSans-48"/>
       <use x="159.033203" xlink:href="#DejaVuSans-48"/>
       <use x="222.65625" xlink:href="#DejaVuSans-56"/>
      </g>
     </g>
    </g>
    <g id="ytick_6">
     <g id="line2d_15">
      <g>
       <use style="stroke:#000000;stroke-width:0.8;" x="57.6" xlink:href="#mfd42196e6e" y="56.924326"/>
      </g>
     </g>
     <g id="text_15">
      <!-- 0.010 -->
      <g transform="translate(21.971875 60.723545)scale(0.1 -0.1)">
       <use xlink:href="#DejaVuSans-48"/>
       <use x="63.623047" xlink:href="#DejaVuSans-46"/>
       <use x="95.410156" xlink:href="#DejaVuSans-48"/>
       <use x="159.033203" xlink:href="#DejaVuSans-49"/>
       <use x="222.65625" xlink:href="#DejaVuSans-48"/>
      </g>
     </g>
    </g>
   </g>
   <g id="line2d_16">
    <path clip-path="url(#p7c94fe508c)" d="M 73.832727 86.895188 
L 74.239053 85.435117 
L 75.051706 93.480981 
L 75.864358 98.063895 
L 76.270684 98.536704 
L 76.67701 98.595661 
L 77.489662 97.687058 
L 77.895988 96.68652 
L 78.302314 94.838909 
L 78.70864 94.837824 
L 79.114966 94.321151 
L 79.521293 93.310797 
L 79.927619 93.060429 
L 80.333945 92.424523 
L 80.740271 92.49759 
L 81.146597 91.767296 
L 81.552923 89.343988 
L 81.959249 90.846242 
L 82.365575 89.148065 
L 82.771901 89.113185 
L 83.178227 88.588116 
L 83.584553 87.772467 
L 83.99088 87.887975 
L 84.397206 87.273281 
L 84.803532 87.501246 
L 85.616184 86.439093 
L 86.428836 84.609801 
L 86.835162 84.214072 
L 87.241488 84.758246 
L 87.647814 84.904058 
L 88.05414 84.788443 
L 88.460466 83.724146 
L 88.866793 83.21106 
L 89.273119 82.93349 
L 89.679445 82.377135 
L 90.085771 82.387465 
L 90.492097 79.726519 
L 90.898423 80.28048 
L 91.304749 80.105082 
L 92.523727 78.849219 
L 92.930053 78.745653 
L 93.742706 77.610237 
L 94.149032 77.272024 
L 94.555358 77.670359 
L 94.961684 76.359634 
L 95.36801 76.062452 
L 95.774336 76.952222 
L 96.180662 75.395532 
L 99.024945 73.286149 
L 99.431271 71.779101 
L 99.837597 73.666309 
L 100.243923 72.419053 
L 100.650249 72.263555 
L 101.056575 71.199044 
L 101.462901 71.295031 
L 101.869227 71.199776 
L 102.275554 70.892595 
L 102.68188 73.232893 
L 103.088206 68.974163 
L 103.900858 71.231505 
L 104.307184 67.891071 
L 104.71351 68.607522 
L 105.119836 68.99903 
L 105.526162 68.806075 
L 105.932488 69.171483 
L 106.338814 70.079217 
L 106.745141 68.704344 
L 107.151467 69.038859 
L 107.557793 70.21804 
L 107.964119 66.45403 
L 108.370445 66.966711 
L 108.776771 67.265065 
L 109.183097 66.556871 
L 109.995749 67.24359 
L 110.402075 66.64891 
L 110.808401 70.462506 
L 111.214728 65.065519 
L 111.621054 65.975288 
L 112.02738 66.23905 
L 112.433706 65.172422 
L 112.840032 66.264327 
L 113.246358 69.687332 
L 113.652684 64.875717 
L 114.05901 65.187684 
L 114.465336 65.686222 
L 114.871662 64.374061 
L 115.277988 65.66804 
L 116.496967 65.918582 
L 116.903293 65.559713 
L 117.309619 66.113819 
L 117.715945 68.046595 
L 118.122271 64.307031 
L 118.934923 65.026071 
L 119.341249 64.554894 
L 119.747575 64.628048 
L 120.153901 64.295446 
L 120.966554 65.6107 
L 121.37288 65.71139 
L 121.779206 64.829282 
L 122.185532 64.479564 
L 122.591858 64.43271 
L 122.998184 63.549617 
L 123.40451 65.176122 
L 123.810836 63.626419 
L 124.217162 63.414004 
L 124.623488 63.5043 
L 125.436141 62.730343 
L 125.842467 62.941402 
L 126.248793 63.507032 
L 126.655119 62.697913 
L 127.061445 62.460819 
L 127.467771 63.781322 
L 127.874097 62.850449 
L 128.280423 62.420617 
L 128.686749 63.022879 
L 129.093075 62.224559 
L 129.499402 62.444068 
L 129.905728 62.303962 
L 130.71838 61.778616 
L 131.124706 61.60013 
L 131.531032 60.803823 
L 131.937358 61.42979 
L 132.343684 60.573749 
L 132.75001 61.159684 
L 133.156336 61.078867 
L 133.562662 60.730616 
L 133.968989 60.588565 
L 134.375315 60.599887 
L 135.187967 60.256116 
L 136.000619 60.398582 
L 136.406945 59.82532 
L 136.813271 59.981945 
L 137.219597 60.300715 
L 137.625923 59.762216 
L 138.032249 60.092722 
L 138.438575 60.099326 
L 138.844902 59.552756 
L 139.251228 60.042402 
L 140.06388 59.871443 
L 140.470206 62.195 
L 140.876532 59.748608 
L 141.689184 59.333915 
L 142.501836 60.884464 
L 142.908162 58.304074 
L 143.314489 58.562359 
L 143.720815 58.982393 
L 144.127141 58.073052 
L 144.533467 58.889438 
L 144.939793 58.798648 
L 145.346119 58.310282 
L 145.752445 58.841987 
L 146.158771 59.026938 
L 147.377749 58.895278 
L 147.784076 59.098031 
L 148.190402 58.592807 
L 148.596728 58.456241 
L 149.003054 58.70053 
L 149.815706 58.436315 
L 150.222032 58.680863 
L 150.628358 60.559776 
L 151.034684 58.374712 
L 151.44101 58.047508 
L 151.847336 58.145452 
L 152.253663 58.466894 
L 152.659989 59.329545 
L 153.066315 58.059572 
L 153.472641 58.396238 
L 153.878967 58.087778 
L 154.285293 58.332784 
L 154.691619 58.432134 
L 155.504271 57.829731 
L 155.910597 56.656238 
L 156.316923 57.990427 
L 156.72325 61.15968 
L 157.129576 57.511386 
L 157.535902 58.109143 
L 158.348554 57.765677 
L 158.75488 57.704366 
L 159.567532 58.07964 
L 159.973858 57.61941 
L 160.380184 57.652549 
L 160.78651 58.155887 
L 161.192837 57.058331 
L 161.599163 59.398127 
L 162.005489 55.692046 
L 162.411815 55.310269 
L 162.818141 56.309021 
L 163.224467 57.904536 
L 163.630793 55.84565 
L 164.037119 57.17487 
L 164.443445 55.819696 
L 164.849771 57.40669 
L 165.256097 57.535753 
L 165.662423 57.37294 
L 166.06875 57.729671 
L 166.475076 66.318989 
L 166.881402 57.384939 
L 167.287728 56.30753 
L 167.694054 54.497513 
L 168.10038 55.937589 
L 168.506706 55.88718 
L 169.319358 56.265727 
L 169.725684 56.137893 
L 170.13201 56.476611 
L 170.538337 56.503164 
L 170.944663 56.814963 
L 171.350989 56.776167 
L 171.757315 56.451832 
L 172.163641 57.497978 
L 172.569967 56.722024 
L 172.976293 56.909189 
L 173.382619 56.650939 
L 174.195271 56.695063 
L 174.601597 57.173706 
L 175.007924 56.926061 
L 175.41425 55.868311 
L 175.820576 56.3821 
L 176.226902 56.415073 
L 177.039554 55.979812 
L 177.852206 56.472184 
L 178.258532 55.479448 
L 178.664858 55.904375 
L 179.071184 55.962397 
L 179.477511 56.651371 
L 179.883837 56.185283 
L 180.290163 56.372266 
L 180.696489 56.201172 
L 181.102815 55.624953 
L 181.509141 56.305541 
L 182.321793 56.495781 
L 182.728119 56.686923 
L 183.134445 56.353986 
L 183.540771 56.922948 
L 183.947098 55.008552 
L 184.353424 54.477685 
L 184.75975 54.372888 
L 185.166076 54.12698 
L 185.572402 57.072198 
L 185.978728 55.802409 
L 186.385054 56.313318 
L 186.79138 54.420283 
L 187.197706 54.124348 
L 187.604032 54.121859 
L 188.010358 55.32053 
L 188.416684 55.887105 
L 188.823011 55.974913 
L 189.229337 56.471818 
L 189.635663 55.776178 
L 190.041989 56.23244 
L 190.448315 55.6928 
L 190.854641 56.062055 
L 191.260967 57.178211 
L 192.073619 55.365996 
L 192.479945 55.467684 
L 192.886271 55.375029 
L 193.292598 57.259226 
L 193.698924 55.647735 
L 194.10525 53.568 
L 194.511576 54.19289 
L 194.917902 55.827771 
L 195.324228 55.093919 
L 195.730554 55.348083 
L 196.13688 55.468193 
L 196.543206 56.059779 
L 196.949532 56.210237 
L 197.355858 56.195272 
L 197.762185 58.834414 
L 198.168511 59.310472 
L 198.981163 59.893063 
L 199.387489 60.18992 
L 199.793815 59.812649 
L 200.200141 58.759371 
L 200.606467 58.140818 
L 201.012793 58.103687 
L 201.825445 59.131286 
L 202.231772 60.152554 
L 202.638098 59.816389 
L 203.044424 58.564337 
L 203.45075 60.289205 
L 204.263402 58.751304 
L 204.669728 58.699675 
L 205.076054 59.014913 
L 205.48238 57.931349 
L 205.888706 58.914704 
L 206.295032 58.936452 
L 206.701359 59.072371 
L 207.107685 59.569569 
L 207.514011 59.287488 
L 207.920337 59.236958 
L 208.326663 59.38684 
L 208.732989 59.203905 
L 209.545641 59.434921 
L 209.951967 59.81354 
L 210.358293 59.975294 
L 210.764619 60.729426 
L 211.170946 59.823093 
L 211.577272 60.816041 
L 211.983598 59.871611 
L 212.389924 59.678323 
L 212.79625 59.837649 
L 213.202576 59.630701 
L 213.608902 59.274597 
L 214.015228 59.687938 
L 214.421554 60.27285 
L 215.234206 59.838358 
L 215.640532 60.023995 
L 216.046859 60.409061 
L 216.453185 60.54997 
L 217.265837 60.308564 
L 217.672163 60.397873 
L 218.078489 60.645655 
L 218.484815 60.544977 
L 218.891141 60.593163 
L 219.297467 60.754046 
L 219.703793 60.684715 
L 220.110119 60.886896 
L 220.516446 61.319438 
L 220.922772 60.656511 
L 221.329098 60.958284 
L 221.735424 60.907025 
L 222.14175 61.098295 
L 222.548076 61.703088 
L 222.954402 61.350743 
L 223.360728 61.245085 
L 223.767054 61.522851 
L 224.579706 61.668485 
L 224.986033 61.275429 
L 225.392359 61.660185 
L 225.798685 61.743851 
L 226.205011 61.317661 
L 226.611337 62.119231 
L 227.423989 62.076029 
L 227.830315 62.058651 
L 228.236641 62.46066 
L 228.642967 62.620288 
L 229.049293 61.830105 
L 229.45562 62.803187 
L 229.861946 62.730484 
L 230.268272 62.784613 
L 230.674598 62.444463 
L 232.299902 63.135525 
L 232.706228 63.152069 
L 233.112554 63.499024 
L 233.51888 63.238178 
L 234.331533 63.931916 
L 234.737859 64.39002 
L 235.144185 63.438176 
L 235.550511 64.71687 
L 235.956837 64.343608 
L 236.363163 64.889549 
L 236.769489 65.027296 
L 237.175815 65.861189 
L 237.582141 64.727053 
L 238.394793 65.187045 
L 238.80112 65.239733 
L 239.207446 65.650732 
L 239.613772 65.826905 
L 240.020098 65.493986 
L 240.426424 65.627632 
L 241.239076 65.601324 
L 241.645402 66.206852 
L 242.051728 65.716367 
L 242.458054 66.168154 
L 242.86438 65.851675 
L 243.270707 66.033049 
L 243.677033 65.99013 
L 244.083359 66.602908 
L 244.489685 66.069881 
L 244.896011 66.054657 
L 246.114989 66.490024 
L 246.927641 66.47321 
L 247.333967 66.999977 
L 247.740294 67.189591 
L 248.14662 66.894265 
L 248.552946 67.55811 
L 248.959272 67.140853 
L 249.365598 67.385556 
L 249.771924 67.165275 
L 250.17825 67.526671 
L 250.584576 67.556619 
L 251.397228 67.406275 
L 251.803554 67.414833 
L 252.209881 67.654513 
L 252.616207 67.356415 
L 253.022533 67.306397 
L 253.428859 68.805017 
L 253.835185 68.671423 
L 254.241511 68.16322 
L 254.647837 67.844664 
L 255.054163 68.00261 
L 255.460489 67.846132 
L 255.866815 67.877494 
L 256.679468 67.369234 
L 257.085794 67.694695 
L 257.49212 67.413268 
L 257.898446 67.317788 
L 258.304772 67.387765 
L 258.711098 67.223806 
L 261.149054 67.245754 
L 261.555381 67.69342 
L 262.368033 67.60967 
L 262.774359 67.413595 
L 263.587011 68.783162 
L 263.993337 67.87185 
L 264.399663 67.899403 
L 264.805989 70.743243 
L 265.212315 68.364545 
L 265.618641 69.323133 
L 266.024968 68.21513 
L 266.431294 68.586217 
L 266.83762 68.171851 
L 267.650272 68.092233 
L 269.681902 69.015658 
L 270.494555 69.491163 
L 270.900881 69.202555 
L 271.307207 69.53337 
L 271.713533 69.300245 
L 272.119859 69.727647 
L 272.932511 69.888191 
L 273.338837 70.191789 
L 273.745163 70.232346 
L 274.151489 68.949573 
L 274.557815 70.44205 
L 274.964142 69.235076 
L 275.776794 71.651184 
L 276.18312 71.105766 
L 276.589446 71.423894 
L 277.402098 71.388972 
L 277.808424 72.119577 
L 278.21475 72.027091 
L 278.621076 72.308089 
L 279.027402 72.773035 
L 279.433729 72.700519 
L 279.840055 73.155587 
L 281.059033 73.261274 
L 281.465359 73.343702 
L 281.871685 73.671348 
L 282.278011 73.490951 
L 282.684337 75.638366 
L 283.090663 74.041436 
L 283.496989 74.219969 
L 283.903316 74.203512 
L 284.309642 73.932165 
L 284.715968 73.965367 
L 285.122294 73.818777 
L 285.52862 74.408855 
L 285.934946 73.928544 
L 286.341272 73.671905 
L 286.747598 73.924869 
L 287.153924 73.582824 
L 287.56025 73.791641 
L 287.966576 73.780752 
L 288.779229 73.362185 
L 289.998207 73.559332 
L 290.404533 72.279894 
L 290.810859 73.658173 
L 291.217185 73.368865 
L 291.623511 73.906411 
L 292.436163 73.986928 
L 292.842489 74.495858 
L 293.248816 73.507893 
L 293.655142 74.167719 
L 294.061468 74.166671 
L 294.467794 74.712589 
L 294.87412 74.625343 
L 295.280446 74.237085 
L 295.686772 74.174884 
L 296.093098 74.69358 
L 297.312076 74.236627 
L 298.531055 74.172756 
L 298.937381 73.932565 
L 299.343707 74.059058 
L 300.156359 73.786451 
L 300.562685 73.516274 
L 301.375337 74.14472 
L 301.781663 73.760505 
L 302.594316 73.977185 
L 303.000642 74.33454 
L 303.406968 74.158244 
L 303.813294 74.769195 
L 304.625946 74.447721 
L 305.032272 74.435555 
L 305.438598 74.544472 
L 305.844924 74.223653 
L 307.470229 74.649042 
L 307.876555 74.447318 
L 308.282881 74.895728 
L 308.689207 74.760853 
L 309.095533 75.266626 
L 309.501859 74.996771 
L 309.908185 75.183373 
L 310.314511 75.694259 
L 310.720837 75.821907 
L 311.127163 75.665162 
L 311.53349 75.705104 
L 311.939816 75.917683 
L 312.346142 75.788431 
L 313.56512 76.037983 
L 313.971446 75.801652 
L 316.409403 75.878836 
L 316.815729 75.786752 
L 317.222055 75.969065 
L 317.628381 76.345997 
L 318.034707 76.015289 
L 319.253685 76.419953 
L 319.660011 76.321876 
L 320.066337 76.348967 
L 320.472664 76.261894 
L 320.87899 74.773632 
L 321.285316 76.211515 
L 321.691642 76.003842 
L 322.504294 77.530184 
L 323.316946 76.592868 
L 323.723272 77.258163 
L 324.535924 77.622622 
L 324.942251 77.329029 
L 325.348577 77.498835 
L 325.754903 77.251425 
L 326.973881 77.183159 
L 327.380207 76.702703 
L 327.786533 77.08801 
L 328.192859 76.882027 
L 328.599185 76.861777 
L 329.005511 78.163291 
L 329.411838 76.830477 
L 329.818164 77.134719 
L 330.22449 77.295128 
L 330.630816 79.041558 
L 331.037142 76.901536 
L 331.443468 77.05063 
L 331.849794 76.916427 
L 332.25612 76.627099 
L 332.662446 76.118217 
L 333.068772 76.542654 
L 333.475098 75.85776 
L 333.881425 76.214554 
L 334.694077 76.522506 
L 335.100403 76.15079 
L 335.913055 76.339766 
L 336.319381 77.06364 
L 336.725707 76.556147 
L 337.132033 76.678043 
L 337.538359 77.360544 
L 337.944685 77.463342 
L 338.351011 77.095846 
L 338.757338 75.862114 
L 339.163664 77.772179 
L 339.56999 77.239465 
L 339.976316 76.927098 
L 340.382642 77.306258 
L 341.195294 77.402717 
L 341.60162 77.686405 
L 342.007946 77.142242 
L 342.414272 77.513052 
L 343.226925 77.339042 
L 344.039577 77.311562 
L 344.852229 77.139009 
L 345.258555 77.233998 
L 345.664881 76.939053 
L 346.071207 75.463699 
L 346.477533 76.762083 
L 346.883859 76.721867 
L 347.290185 77.00604 
L 347.696512 75.415143 
L 348.102838 76.83262 
L 348.91549 77.242733 
L 349.321816 77.348978 
L 349.728142 78.743392 
L 350.134468 77.132758 
L 350.540794 77.971658 
L 350.94712 77.56168 
L 351.353446 78.064311 
L 352.572425 77.91248 
L 352.978751 78.395187 
L 353.385077 78.0737 
L 353.791403 78.185615 
L 354.197729 78.587326 
L 354.604055 78.330032 
L 355.010381 78.707894 
L 355.416707 78.471573 
L 355.823033 78.852762 
L 356.229359 78.228106 
L 357.042012 78.157519 
L 357.448338 78.59779 
L 357.854664 77.921307 
L 358.26099 78.372832 
L 359.073642 78.159409 
L 359.479968 77.579499 
L 359.886294 77.625472 
L 360.698946 78.048027 
L 361.105272 77.714655 
L 361.511599 77.680568 
L 361.917925 78.14385 
L 362.730577 77.8738 
L 363.136903 78.278744 
L 363.543229 77.988461 
L 364.355881 78.364214 
L 364.762207 78.199276 
L 365.168533 78.23467 
L 365.574859 77.894925 
L 365.981186 78.165884 
L 366.387512 78.291838 
L 366.793838 78.246843 
L 367.200164 78.033917 
L 368.825468 77.751281 
L 369.231794 77.803491 
L 369.63812 78.693132 
L 370.044446 77.460229 
L 370.450773 77.805784 
L 370.857099 77.426497 
L 371.669751 77.651089 
L 372.076077 77.474875 
L 372.482403 78.072783 
L 372.888729 77.559291 
L 373.295055 78.067902 
L 373.701381 77.542199 
L 374.107707 77.951681 
L 374.514033 77.758137 
L 374.92036 77.316999 
L 375.326686 77.341467 
L 375.733012 77.103172 
L 376.545664 77.345186 
L 376.95199 75.464373 
L 377.358316 77.60448 
L 377.764642 77.179653 
L 378.170968 77.605222 
L 378.577294 77.292789 
L 378.98362 77.332739 
L 380.202599 76.988484 
L 380.608925 76.918046 
L 381.827903 77.343508 
L 382.234229 77.10717 
L 383.046881 77.321578 
L 383.453207 77.46087 
L 383.859534 77.358276 
L 384.26586 77.029723 
L 385.078512 76.747542 
L 385.484838 76.885431 
L 385.891164 76.456681 
L 386.29749 76.612666 
L 386.703816 76.12065 
L 387.110142 76.22757 
L 387.516468 76.868605 
L 387.922794 74.830048 
L 388.32912 75.901936 
L 388.735447 76.346882 
L 389.141773 76.251724 
L 389.548099 76.708513 
L 389.954425 76.401047 
L 390.767077 76.922435 
L 391.173403 76.71679 
L 391.579729 76.681055 
L 391.986055 77.879774 
L 392.392381 77.261725 
L 392.798707 77.193788 
L 393.205034 76.922286 
L 394.424012 77.658819 
L 394.830338 77.68747 
L 396.049316 78.354572 
L 396.455642 79.187093 
L 396.861968 78.690432 
L 397.268294 76.808334 
L 397.674621 78.569888 
L 398.080947 78.460234 
L 398.487273 79.379434 
L 398.487273 79.379434 
" style="fill:none;stroke:#1f77b4;stroke-linecap:square;stroke-width:1.5;"/>
   </g>
   <g id="line2d_17">
    <path clip-path="url(#p7c94fe508c)" d="M 73.832727 295.424067 
L 74.645379 295.213728 
L 75.051706 294.997071 
L 75.458032 294.003397 
L 75.864358 295.371475 
L 76.270684 295.176804 
L 76.67701 293.814187 
L 77.489662 295.314562 
L 77.895988 294.759555 
L 78.302314 294.925348 
L 78.70864 294.740137 
L 79.114966 295.486696 
L 79.521293 295.353841 
L 80.333945 295.437229 
L 81.146597 294.582285 
L 81.552923 294.496467 
L 81.959249 294.599605 
L 82.365575 293.468551 
L 82.771901 294.1748 
L 83.178227 293.862555 
L 83.584553 294.58735 
L 83.99088 292.597971 
L 84.397206 295.438965 
L 84.803532 295.459091 
L 85.209858 295.351812 
L 85.616184 295.473138 
L 86.02251 295.46881 
L 86.428836 295.127518 
L 86.835162 295.107206 
L 87.241488 295.444791 
L 87.647814 295.332043 
L 88.05414 293.735472 
L 88.460466 294.337092 
L 88.866793 294.369163 
L 89.273119 294.1079 
L 90.085771 294.345175 
L 90.492097 294.897912 
L 90.898423 294.323046 
L 91.304749 294.758154 
L 91.711075 294.937411 
L 92.117401 295.3898 
L 92.930053 295.088012 
L 93.33638 295.113623 
L 94.149032 294.784523 
L 94.555358 295.397023 
L 94.961684 295.222476 
L 95.36801 292.103137 
L 95.774336 294.837177 
L 96.180662 295.38963 
L 96.586988 294.805603 
L 96.993314 294.833573 
L 97.39964 295.05867 
L 97.805967 295.009467 
L 98.212293 294.715765 
L 98.618619 295.329066 
L 99.024945 292.629505 
L 99.431271 294.62755 
L 99.837597 294.417516 
L 100.243923 295.452769 
L 100.650249 294.860443 
L 101.056575 295.212925 
L 101.462901 294.383905 
L 101.869227 295.227616 
L 102.68188 294.910522 
L 103.088206 293.779885 
L 103.494532 293.778848 
L 103.900858 295.105311 
L 104.307184 293.670265 
L 104.71351 295.344115 
L 105.119836 295.42804 
L 105.526162 295.076848 
L 105.932488 295.347557 
L 106.338814 294.787567 
L 106.745141 294.660614 
L 107.151467 293.619891 
L 107.557793 295.213183 
L 107.964119 294.864081 
L 109.183097 295.46291 
L 109.589423 294.690711 
L 109.995749 294.899782 
L 110.402075 294.80454 
L 110.808401 295.238903 
L 111.214728 293.422094 
L 111.621054 294.97901 
L 112.02738 295.296389 
L 112.433706 295.092526 
L 112.840032 295.452243 
L 113.246358 295.247775 
L 113.652684 295.28482 
L 114.05901 293.828225 
L 114.465336 294.096778 
L 114.871662 295.242085 
L 115.277988 295.281704 
L 115.684314 295.196884 
L 116.090641 290.953891 
L 116.496967 295.285024 
L 116.903293 295.44875 
L 117.309619 295.432612 
L 117.715945 295.074534 
L 118.122271 294.048654 
L 118.528597 294.026452 
L 119.341249 293.244157 
L 119.747575 293.772749 
L 120.153901 294.804866 
L 120.560228 294.806488 
L 120.966554 295.1942 
L 121.37288 295.099044 
L 121.779206 294.732146 
L 122.185532 294.521072 
L 122.591858 295.457109 
L 122.998184 295.382293 
L 123.40451 294.628583 
L 123.810836 295.190817 
L 125.029815 294.674747 
L 125.842467 295.242344 
L 126.655119 295.378932 
L 127.467771 295.266604 
L 127.874097 295.447056 
L 128.280423 294.87126 
L 129.499402 295.031976 
L 129.905728 295.263846 
L 130.71838 295.26948 
L 131.124706 295.138675 
L 131.531032 295.140093 
L 131.937358 293.870158 
L 132.343684 295.146454 
L 132.75001 294.541174 
L 133.156336 294.986001 
L 133.562662 294.654434 
L 133.968989 295.297795 
L 134.375315 295.444939 
L 134.781641 295.44205 
L 135.187967 295.056352 
L 135.594293 293.896227 
L 136.000619 294.138388 
L 136.406945 293.77071 
L 136.813271 295.368364 
L 137.219597 294.815368 
L 137.625923 293.931896 
L 138.032249 294.983166 
L 139.251228 295.302593 
L 140.06388 295.287558 
L 140.470206 294.916654 
L 140.876532 293.656491 
L 141.282858 294.042095 
L 141.689184 294.587455 
L 142.09551 293.915697 
L 142.501836 293.662284 
L 142.908162 294.926554 
L 143.314489 295.304335 
L 143.720815 295.171193 
L 144.127141 295.31064 
L 144.533467 294.211402 
L 144.939793 294.496828 
L 145.346119 295.464562 
L 145.752445 295.306003 
L 146.158771 294.473223 
L 146.565097 295.072217 
L 147.377749 295.441027 
L 147.784076 294.635747 
L 148.190402 295.396331 
L 149.003054 294.026139 
L 149.40938 294.071273 
L 149.815706 294.618559 
L 150.222032 293.58106 
L 150.628358 294.950662 
L 151.034684 293.99045 
L 151.44101 294.649328 
L 151.847336 295.095009 
L 152.253663 294.450462 
L 152.659989 292.960012 
L 153.066315 295.41224 
L 153.472641 293.190458 
L 153.878967 294.921941 
L 154.285293 295.154715 
L 154.691619 294.849403 
L 155.097945 295.227563 
L 155.504271 294.59104 
L 155.910597 295.357676 
L 156.316923 294.966034 
L 157.129576 295.078259 
L 157.535902 295.326002 
L 157.942228 295.416973 
L 158.75488 295.092098 
L 159.161206 295.027029 
L 159.567532 295.240755 
L 159.973858 295.250997 
L 160.380184 295.482652 
L 160.78651 295.301454 
L 161.599163 295.249786 
L 162.411815 295.26134 
L 163.224467 295.183966 
L 163.630793 294.508495 
L 164.037119 295.211378 
L 164.443445 295.008673 
L 164.849771 294.425516 
L 165.256097 295.306601 
L 165.662423 295.27296 
L 166.06875 294.335971 
L 166.475076 295.108928 
L 166.881402 295.135086 
L 167.287728 294.062134 
L 167.694054 295.184334 
L 168.506706 295.32205 
L 168.913032 295.22359 
L 169.319358 292.685529 
L 169.725684 294.437474 
L 170.538337 294.75394 
L 171.350989 294.761394 
L 171.757315 294.09585 
L 172.163641 295.286003 
L 172.569967 295.146468 
L 172.976293 294.099521 
L 173.382619 295.321959 
L 173.788945 295.310542 
L 174.195271 294.907064 
L 174.601597 294.793984 
L 175.41425 294.991487 
L 175.820576 293.927676 
L 176.226902 294.232993 
L 176.633228 293.715928 
L 177.039554 295.065589 
L 177.44588 295.071266 
L 177.852206 294.648953 
L 178.258532 294.949857 
L 178.664858 294.234215 
L 179.071184 295.443514 
L 179.883837 295.454885 
L 180.696489 294.957761 
L 181.102815 295.165076 
L 181.509141 295.208125 
L 181.915467 295.411487 
L 182.728119 295.285685 
L 183.134445 294.083025 
L 183.540771 293.286491 
L 183.947098 295.420205 
L 184.353424 293.184519 
L 184.75975 294.522905 
L 185.572402 294.422769 
L 185.978728 293.746182 
L 186.385054 295.421658 
L 186.79138 295.33648 
L 187.197706 291.298526 
L 187.604032 294.551503 
L 188.416684 295.035341 
L 188.823011 293.986193 
L 190.041989 294.219286 
L 190.448315 292.340097 
L 190.854641 291.594988 
L 191.260967 291.562484 
L 191.667293 292.104582 
L 192.073619 293.074195 
L 192.479945 293.618653 
L 192.886271 293.469735 
L 193.292598 293.724054 
L 193.698924 295.240238 
L 194.10525 293.728483 
L 194.511576 293.885723 
L 194.917902 295.272206 
L 195.324228 294.981018 
L 195.730554 294.992863 
L 196.13688 295.247855 
L 196.543206 294.726824 
L 196.949532 295.135371 
L 197.355858 295.060904 
L 197.762185 295.208668 
L 198.168511 294.968235 
L 198.574837 295.406589 
L 199.387489 295.140373 
L 199.793815 295.366832 
L 200.200141 295.326269 
L 200.606467 294.514745 
L 201.012793 294.540308 
L 201.419119 295.146424 
L 201.825445 294.584229 
L 202.638098 294.779882 
L 203.044424 293.615447 
L 203.45075 293.730277 
L 203.857076 295.303266 
L 204.263402 294.588043 
L 204.669728 295.117073 
L 205.076054 294.799385 
L 205.48238 295.011357 
L 206.701359 294.749356 
L 207.107685 294.91609 
L 207.514011 293.873675 
L 207.920337 295.217668 
L 208.326663 294.982934 
L 208.732989 295.236675 
L 209.139315 293.950591 
L 209.545641 294.81731 
L 210.358293 294.650598 
L 210.764619 295.02989 
L 211.170946 294.555122 
L 211.577272 294.664189 
L 211.983598 295.071232 
L 212.389924 295.02768 
L 212.79625 295.223339 
L 214.015228 295.089464 
L 214.421554 294.825227 
L 214.82788 294.312456 
L 215.234206 294.448286 
L 216.046859 293.141364 
L 216.453185 293.316868 
L 216.859511 293.693132 
L 217.265837 295.124556 
L 217.672163 294.606893 
L 218.078489 293.575186 
L 218.484815 295.476486 
L 218.891141 295.412912 
L 219.297467 295.013897 
L 220.110119 295.347995 
L 220.516446 295.410698 
L 220.922772 294.977434 
L 221.735424 295.326271 
L 222.548076 295.389079 
L 223.767054 295.104219 
L 224.17338 294.829281 
L 224.579706 294.698301 
L 224.986033 294.977982 
L 225.392359 294.806943 
L 225.798685 293.742436 
L 226.205011 294.699968 
L 226.611337 294.630541 
L 227.017663 293.921778 
L 227.423989 295.080488 
L 227.830315 294.342719 
L 228.236641 295.095181 
L 228.642967 295.157545 
L 229.049293 294.292455 
L 229.45562 295.101172 
L 229.861946 294.54759 
L 230.268272 295.105838 
L 231.48725 294.920608 
L 231.893576 295.117125 
L 233.925207 295.246628 
L 234.331533 293.550073 
L 234.737859 295.042062 
L 235.144185 294.224625 
L 235.956837 295.433205 
L 236.363163 294.52702 
L 236.769489 295.102325 
L 237.175815 295.452801 
L 237.582141 292.689598 
L 237.988467 295.102553 
L 238.394793 294.210039 
L 239.207446 295.277355 
L 239.613772 295.25846 
L 240.020098 294.776912 
L 240.426424 293.552532 
L 240.83275 294.815805 
L 241.239076 294.996967 
L 241.645402 295.019355 
L 242.051728 295.379526 
L 242.458054 294.109363 
L 242.86438 294.088137 
L 243.270707 295.010127 
L 243.677033 295.265692 
L 244.083359 294.910772 
L 245.302337 295.042044 
L 245.708663 292.628535 
L 246.114989 295.35894 
L 246.521315 293.921328 
L 246.927641 295.39367 
L 247.333967 295.280983 
L 247.740294 294.578092 
L 248.14662 294.577073 
L 248.552946 293.568254 
L 248.959272 293.518498 
L 249.365598 294.264949 
L 249.771924 293.902697 
L 250.990902 293.827696 
L 251.397228 294.472799 
L 251.803554 294.451507 
L 252.209881 295.333396 
L 252.616207 294.619964 
L 253.022533 295.228779 
L 253.428859 295.417013 
L 253.835185 295.162176 
L 254.241511 295.225794 
L 254.647837 294.868263 
L 255.460489 294.851426 
L 255.866815 295.299961 
L 256.273141 295.297899 
L 256.679468 294.883792 
L 257.085794 295.264978 
L 257.49212 294.880125 
L 258.304772 294.917727 
L 258.711098 295.219298 
L 259.117424 295.200674 
L 259.52375 294.867363 
L 259.930076 295.31993 
L 260.336402 295.256594 
L 261.149054 294.788637 
L 261.961707 295.200588 
L 262.368033 295.004492 
L 263.180685 295.037357 
L 263.587011 292.094948 
L 263.993337 293.296066 
L 264.399663 294.880243 
L 265.212315 294.550412 
L 265.618641 295.224663 
L 266.024968 295.052479 
L 266.431294 295.261321 
L 275.370468 295.157658 
L 275.776794 295.402159 
L 276.589446 295.335421 
L 277.402098 294.748333 
L 277.808424 295.346635 
L 278.21475 295.115122 
L 278.621076 295.151485 
L 279.027402 294.953293 
L 279.433729 295.412942 
L 279.840055 294.809827 
L 280.246381 294.450903 
L 280.652707 295.101395 
L 281.059033 295.445813 
L 281.465359 295.175319 
L 281.871685 295.403618 
L 283.090663 295.485972 
L 283.496989 293.637706 
L 283.903316 293.592408 
L 284.309642 293.710504 
L 284.715968 295.363583 
L 285.122294 295.078892 
L 285.52862 293.826211 
L 285.934946 293.82818 
L 286.341272 295.132921 
L 286.747598 293.764221 
L 287.153924 295.138698 
L 287.56025 293.368665 
L 287.966576 295.115414 
L 288.372902 295.057281 
L 288.779229 295.357824 
L 289.185555 295.200437 
L 289.591881 295.324796 
L 289.998207 294.863412 
L 290.404533 295.016199 
L 290.810859 294.488904 
L 291.623511 295.375822 
L 292.436163 295.427874 
L 292.842489 295.21618 
L 293.248816 293.057384 
L 293.655142 295.144665 
L 294.061468 294.831648 
L 294.467794 295.377919 
L 294.87412 294.864202 
L 295.280446 295.394301 
L 295.686772 295.232908 
L 296.093098 295.412577 
L 296.499424 295.221106 
L 296.90575 295.38783 
L 297.312076 294.995257 
L 297.718403 295.059733 
L 298.124729 295.371584 
L 298.531055 294.014258 
L 298.937381 295.06097 
L 299.343707 295.346334 
L 299.750033 294.990994 
L 300.562685 295.075538 
L 301.375337 295.22614 
L 301.781663 295.095336 
L 302.18799 294.454514 
L 302.594316 294.191274 
L 303.000642 294.389086 
L 303.406968 294.904008 
L 303.813294 294.498724 
L 304.21962 295.170693 
L 304.625946 295.062734 
L 305.032272 295.190114 
L 305.438598 295.119687 
L 305.844924 294.575305 
L 306.25125 295.097742 
L 306.657577 295.29754 
L 307.063903 294.870204 
L 307.876555 295.27124 
L 308.282881 294.359203 
L 308.689207 295.450903 
L 309.095533 294.699969 
L 309.501859 295.072202 
L 309.908185 294.631528 
L 310.314511 295.37316 
L 311.53349 295.291614 
L 311.939816 294.150318 
L 312.346142 295.131 
L 312.752468 294.690091 
L 313.158794 295.049162 
L 313.56512 293.37633 
L 313.971446 293.370744 
L 314.377772 294.592049 
L 314.784098 295.105927 
L 315.190424 294.222532 
L 315.59675 294.440322 
L 316.003077 294.281905 
L 316.409403 294.770139 
L 316.815729 295.035919 
L 317.222055 294.650977 
L 317.628381 295.199419 
L 318.034707 295.401179 
L 318.441033 294.730263 
L 318.847359 291.846246 
L 319.253685 291.949886 
L 319.660011 293.742102 
L 320.066337 294.883324 
L 320.472664 293.768895 
L 320.87899 295.4227 
L 321.285316 295.176154 
L 321.691642 294.780308 
L 322.097968 295.213063 
L 322.504294 295.461858 
L 323.723272 295.401247 
L 324.129598 294.835647 
L 324.535924 294.934661 
L 324.942251 295.234427 
L 325.348577 294.60857 
L 325.754903 294.85974 
L 326.161229 295.271577 
L 326.567555 295.081729 
L 326.973881 294.068149 
L 327.380207 295.290551 
L 327.786533 294.973729 
L 328.599185 295.34032 
L 329.005511 294.553387 
L 329.818164 293.584339 
L 330.22449 295.387216 
L 330.630816 295.105509 
L 331.037142 295.463855 
L 331.443468 295.015302 
L 331.849794 295.343707 
L 332.25612 294.888492 
L 332.662446 295.44181 
L 333.068772 295.026405 
L 333.475098 294.938764 
L 333.881425 295.186177 
L 334.287751 294.935159 
L 335.100403 294.936969 
L 337.132033 294.935499 
L 337.538359 295.407782 
L 337.944685 295.4028 
L 338.351011 295.144791 
L 338.757338 295.433013 
L 339.56999 295.432502 
L 339.976316 293.946946 
L 340.382642 295.287692 
L 340.788968 293.989407 
L 341.195294 295.289176 
L 341.60162 294.004399 
L 342.007946 294.002378 
L 342.414272 295.304593 
L 343.226925 295.344616 
L 343.633251 294.458184 
L 344.039577 295.379828 
L 344.445903 294.768114 
L 344.852229 294.921021 
L 345.258555 295.452028 
L 345.664881 294.461238 
L 346.071207 294.535283 
L 346.477533 294.383049 
L 346.883859 295.40119 
L 347.290185 295.287 
L 347.696512 294.711912 
L 348.509164 295.479783 
L 348.91549 295.075466 
L 349.321816 294.208465 
L 350.134468 294.263009 
L 350.540794 295.470751 
L 351.353446 295.435058 
L 351.759772 294.118938 
L 352.166099 295.330972 
L 352.978751 295.302579 
L 353.385077 295.475095 
L 353.791403 295.129298 
L 354.197729 295.100666 
L 354.604055 295.415156 
L 355.010381 295.371893 
L 355.416707 294.951136 
L 357.042012 294.755148 
L 357.448338 295.160936 
L 357.854664 294.270765 
L 358.26099 294.411027 
L 358.667316 290.381575 
L 359.073642 294.059637 
L 359.479968 293.392153 
L 359.886294 294.960194 
L 360.29262 293.642822 
L 361.105272 294.373972 
L 361.511599 295.216503 
L 362.324251 295.34488 
L 362.730577 295.079531 
L 363.136903 295.083519 
L 363.949555 295.446856 
L 364.355881 294.560377 
L 364.762207 294.656057 
L 365.168533 295.132981 
L 365.574859 293.120146 
L 365.981186 294.938076 
L 366.387512 294.357848 
L 366.793838 294.353476 
L 367.200164 295.149695 
L 369.231794 295.209888 
L 373.295055 295.197717 
L 374.107707 295.126275 
L 375.733012 295.196755 
L 376.545664 295.280452 
L 376.95199 295.008109 
L 377.358316 295.064926 
L 377.764642 295.265971 
L 379.389947 295.232046 
L 379.796273 294.576499 
L 380.202599 294.305763 
L 380.608925 295.120758 
L 381.015251 295.39806 
L 381.421577 293.6988 
L 381.827903 294.806824 
L 382.234229 295.046801 
L 382.640555 294.963861 
L 383.046881 295.272154 
L 383.453207 295.060997 
L 383.859534 295.112591 
L 384.26586 295.289494 
L 385.078512 295.070724 
L 385.484838 294.845125 
L 385.891164 295.195721 
L 386.29749 294.9994 
L 386.703816 295.011872 
L 387.516468 295.179877 
L 388.735447 295.281584 
L 389.141773 295.119163 
L 389.548099 295.278925 
L 389.954425 294.774728 
L 390.360751 295.086914 
L 390.767077 295.117414 
L 391.173403 294.829796 
L 391.579729 295.279102 
L 392.392381 295.362647 
L 392.798707 295.265232 
L 393.205034 295.393302 
L 393.61136 295.235137 
L 394.017686 295.437866 
L 394.424012 295.19451 
L 394.830338 295.323655 
L 395.236664 294.885118 
L 396.455642 295.044719 
L 397.268294 295.190622 
L 397.674621 294.483329 
L 398.080947 294.966016 
L 398.487273 295.027877 
L 398.487273 295.027877 
" style="fill:none;stroke:#ff7f0e;stroke-linecap:square;stroke-width:1.5;"/>
   </g>
   <g id="patch_3">
    <path d="M 57.6 307.584 
L 57.6 41.472 
" style="fill:none;stroke:#000000;stroke-linecap:square;stroke-linejoin:miter;stroke-width:0.8;"/>
   </g>
   <g id="patch_4">
    <path d="M 414.72 307.584 
L 414.72 41.472 
" style="fill:none;stroke:#000000;stroke-linecap:square;stroke-linejoin:miter;stroke-width:0.8;"/>
   </g>
   <g id="patch_5">
    <path d="M 57.6 307.584 
L 414.72 307.584 
" style="fill:none;stroke:#000000;stroke-linecap:square;stroke-linejoin:miter;stroke-width:0.8;"/>
   </g>
   <g id="patch_6">
    <path d="M 57.6 41.472 
L 414.72 41.472 
" style="fill:none;stroke:#000000;stroke-linecap:square;stroke-linejoin:miter;stroke-width:0.8;"/>
   </g>
  </g>
 </g>
 <defs>
  <clipPath id="p7c94fe508c">
   <rect height="266.112" width="357.12" x="57.6" y="41.472"/>
  </clipPath>
 </defs>
</svg>
