<?xml version="1.0" encoding="utf-8" standalone="no"?>
<!DOCTYPE svg PUBLIC "-//W3C//DTD SVG 1.1//EN"
  "http://www.w3.org/Graphics/SVG/1.1/DTD/svg11.dtd">
<!-- Created with matplotlib (https://matplotlib.org/) -->
<svg height="345.6pt" version="1.1" viewBox="0 0 460.8 345.6" width="460.8pt" xmlns="http://www.w3.org/2000/svg" xmlns:xlink="http://www.w3.org/1999/xlink">
 <defs>
  <style type="text/css">
*{stroke-linecap:butt;stroke-linejoin:round;}
  </style>
 </defs>
 <g id="figure_1">
  <g id="patch_1">
   <path d="M 0 345.6 
L 460.8 345.6 
L 460.8 0 
L 0 0 
z
" style="fill:#ffffff;"/>
  </g>
  <g id="axes_1">
   <g id="patch_2">
    <path d="M 57.6 307.584 
L 414.72 307.584 
L 414.72 41.472 
L 57.6 41.472 
z
" style="fill:#ffffff;"/>
   </g>
   <g id="matplotlib.axis_1">
    <g id="xtick_1">
     <g id="line2d_1">
      <defs>
       <path d="M 0 0 
L 0 3.5 
" id="mc0f32acce8" style="stroke:#000000;stroke-width:0.8;"/>
      </defs>
      <g>
       <use style="stroke:#000000;stroke-width:0.8;" x="73.832727" xlink:href="#mc0f32acce8" y="307.584"/>
      </g>
     </g>
     <g id="text_1">
      <!-- 0 -->
      <defs>
       <path d="M 31.78125 66.40625 
Q 24.171875 66.40625 20.328125 58.90625 
Q 16.5 51.421875 16.5 36.375 
Q 16.5 21.390625 20.328125 13.890625 
Q 24.171875 6.390625 31.78125 6.390625 
Q 39.453125 6.390625 43.28125 13.890625 
Q 47.125 21.390625 47.125 36.375 
Q 47.125 51.421875 43.28125 58.90625 
Q 39.453125 66.40625 31.78125 66.40625 
z
M 31.78125 74.21875 
Q 44.046875 74.21875 50.515625 64.515625 
Q 56.984375 54.828125 56.984375 36.375 
Q 56.984375 17.96875 50.515625 8.265625 
Q 44.046875 -1.421875 31.78125 -1.421875 
Q 19.53125 -1.421875 13.0625 8.265625 
Q 6.59375 17.96875 6.59375 36.375 
Q 6.59375 54.828125 13.0625 64.515625 
Q 19.53125 74.21875 31.78125 74.21875 
z
" id="DejaVuSans-48"/>
      </defs>
      <g transform="translate(70.651477 322.182437)scale(0.1 -0.1)">
       <use xlink:href="#DejaVuSans-48"/>
      </g>
     </g>
    </g>
    <g id="xtick_2">
     <g id="line2d_2">
      <g>
       <use style="stroke:#000000;stroke-width:0.8;" x="114.465336" xlink:href="#mc0f32acce8" y="307.584"/>
      </g>
     </g>
     <g id="text_2">
      <!-- 100 -->
      <defs>
       <path d="M 12.40625 8.296875 
L 28.515625 8.296875 
L 28.515625 63.921875 
L 10.984375 60.40625 
L 10.984375 69.390625 
L 28.421875 72.90625 
L 38.28125 72.90625 
L 38.28125 8.296875 
L 54.390625 8.296875 
L 54.390625 0 
L 12.40625 0 
z
" id="DejaVuSans-49"/>
      </defs>
      <g transform="translate(104.921586 322.182437)scale(0.1 -0.1)">
       <use xlink:href="#DejaVuSans-49"/>
       <use x="63.623047" xlink:href="#DejaVuSans-48"/>
       <use x="127.246094" xlink:href="#DejaVuSans-48"/>
      </g>
     </g>
    </g>
    <g id="xtick_3">
     <g id="line2d_3">
      <g>
       <use style="stroke:#000000;stroke-width:0.8;" x="155.097945" xlink:href="#mc0f32acce8" y="307.584"/>
      </g>
     </g>
     <g id="text_3">
      <!-- 200 -->
      <defs>
       <path d="M 19.1875 8.296875 
L 53.609375 8.296875 
L 53.609375 0 
L 7.328125 0 
L 7.328125 8.296875 
Q 12.9375 14.109375 22.625 23.890625 
Q 32.328125 33.6875 34.8125 36.53125 
Q 39.546875 41.84375 41.421875 45.53125 
Q 43.3125 49.21875 43.3125 52.78125 
Q 43.3125 58.59375 39.234375 62.25 
Q 35.15625 65.921875 28.609375 65.921875 
Q 23.96875 65.921875 18.8125 64.3125 
Q 13.671875 62.703125 7.8125 59.421875 
L 7.8125 69.390625 
Q 13.765625 71.78125 18.9375 73 
Q 24.125 74.21875 28.421875 74.21875 
Q 39.75 74.21875 46.484375 68.546875 
Q 53.21875 62.890625 53.21875 53.421875 
Q 53.21875 48.921875 51.53125 44.890625 
Q 49.859375 40.875 45.40625 35.40625 
Q 44.1875 33.984375 37.640625 27.21875 
Q 31.109375 20.453125 19.1875 8.296875 
z
" id="DejaVuSans-50"/>
      </defs>
      <g transform="translate(145.554195 322.182437)scale(0.1 -0.1)">
       <use xlink:href="#DejaVuSans-50"/>
       <use x="63.623047" xlink:href="#DejaVuSans-48"/>
       <use x="127.246094" xlink:href="#DejaVuSans-48"/>
      </g>
     </g>
    </g>
    <g id="xtick_4">
     <g id="line2d_4">
      <g>
       <use style="stroke:#000000;stroke-width:0.8;" x="195.730554" xlink:href="#mc0f32acce8" y="307.584"/>
      </g>
     </g>
     <g id="text_4">
      <!-- 300 -->
      <defs>
       <path d="M 40.578125 39.3125 
Q 47.65625 37.796875 51.625 33 
Q 55.609375 28.21875 55.609375 21.1875 
Q 55.609375 10.40625 48.1875 4.484375 
Q 40.765625 -1.421875 27.09375 -1.421875 
Q 22.515625 -1.421875 17.65625 -0.515625 
Q 12.796875 0.390625 7.625 2.203125 
L 7.625 11.71875 
Q 11.71875 9.328125 16.59375 8.109375 
Q 21.484375 6.890625 26.8125 6.890625 
Q 36.078125 6.890625 40.9375 10.546875 
Q 45.796875 14.203125 45.796875 21.1875 
Q 45.796875 27.640625 41.28125 31.265625 
Q 36.765625 34.90625 28.71875 34.90625 
L 20.21875 34.90625 
L 20.21875 43.015625 
L 29.109375 43.015625 
Q 36.375 43.015625 40.234375 45.921875 
Q 44.09375 48.828125 44.09375 54.296875 
Q 44.09375 59.90625 40.109375 62.90625 
Q 36.140625 65.921875 28.71875 65.921875 
Q 24.65625 65.921875 20.015625 65.03125 
Q 15.375 64.15625 9.8125 62.3125 
L 9.8125 71.09375 
Q 15.4375 72.65625 20.34375 73.4375 
Q 25.25 74.21875 29.59375 74.21875 
Q 40.828125 74.21875 47.359375 69.109375 
Q 53.90625 64.015625 53.90625 55.328125 
Q 53.90625 49.265625 50.4375 45.09375 
Q 46.96875 40.921875 40.578125 39.3125 
z
" id="DejaVuSans-51"/>
      </defs>
      <g transform="translate(186.186804 322.182437)scale(0.1 -0.1)">
       <use xlink:href="#DejaVuSans-51"/>
       <use x="63.623047" xlink:href="#DejaVuSans-48"/>
       <use x="127.246094" xlink:href="#DejaVuSans-48"/>
      </g>
     </g>
    </g>
    <g id="xtick_5">
     <g id="line2d_5">
      <g>
       <use style="stroke:#000000;stroke-width:0.8;" x="236.363163" xlink:href="#mc0f32acce8" y="307.584"/>
      </g>
     </g>
     <g id="text_5">
      <!-- 400 -->
      <defs>
       <path d="M 37.796875 64.3125 
L 12.890625 25.390625 
L 37.796875 25.390625 
z
M 35.203125 72.90625 
L 47.609375 72.90625 
L 47.609375 25.390625 
L 58.015625 25.390625 
L 58.015625 17.1875 
L 47.609375 17.1875 
L 47.609375 0 
L 37.796875 0 
L 37.796875 17.1875 
L 4.890625 17.1875 
L 4.890625 26.703125 
z
" id="DejaVuSans-52"/>
      </defs>
      <g transform="translate(226.819413 322.182437)scale(0.1 -0.1)">
       <use xlink:href="#DejaVuSans-52"/>
       <use x="63.623047" xlink:href="#DejaVuSans-48"/>
       <use x="127.246094" xlink:href="#DejaVuSans-48"/>
      </g>
     </g>
    </g>
    <g id="xtick_6">
     <g id="line2d_6">
      <g>
       <use style="stroke:#000000;stroke-width:0.8;" x="276.995772" xlink:href="#mc0f32acce8" y="307.584"/>
      </g>
     </g>
     <g id="text_6">
      <!-- 500 -->
      <defs>
       <path d="M 10.796875 72.90625 
L 49.515625 72.90625 
L 49.515625 64.59375 
L 19.828125 64.59375 
L 19.828125 46.734375 
Q 21.96875 47.46875 24.109375 47.828125 
Q 26.265625 48.1875 28.421875 48.1875 
Q 40.625 48.1875 47.75 41.5 
Q 54.890625 34.8125 54.890625 23.390625 
Q 54.890625 11.625 47.5625 5.09375 
Q 40.234375 -1.421875 26.90625 -1.421875 
Q 22.3125 -1.421875 17.546875 -0.640625 
Q 12.796875 0.140625 7.71875 1.703125 
L 7.71875 11.625 
Q 12.109375 9.234375 16.796875 8.0625 
Q 21.484375 6.890625 26.703125 6.890625 
Q 35.15625 6.890625 40.078125 11.328125 
Q 45.015625 15.765625 45.015625 23.390625 
Q 45.015625 31 40.078125 35.4375 
Q 35.15625 39.890625 26.703125 39.890625 
Q 22.75 39.890625 18.8125 39.015625 
Q 14.890625 38.140625 10.796875 36.28125 
z
" id="DejaVuSans-53"/>
      </defs>
      <g transform="translate(267.452022 322.182437)scale(0.1 -0.1)">
       <use xlink:href="#DejaVuSans-53"/>
       <use x="63.623047" xlink:href="#DejaVuSans-48"/>
       <use x="127.246094" xlink:href="#DejaVuSans-48"/>
      </g>
     </g>
    </g>
    <g id="xtick_7">
     <g id="line2d_7">
      <g>
       <use style="stroke:#000000;stroke-width:0.8;" x="317.628381" xlink:href="#mc0f32acce8" y="307.584"/>
      </g>
     </g>
     <g id="text_7">
      <!-- 600 -->
      <defs>
       <path d="M 33.015625 40.375 
Q 26.375 40.375 22.484375 35.828125 
Q 18.609375 31.296875 18.609375 23.390625 
Q 18.609375 15.53125 22.484375 10.953125 
Q 26.375 6.390625 33.015625 6.390625 
Q 39.65625 6.390625 43.53125 10.953125 
Q 47.40625 15.53125 47.40625 23.390625 
Q 47.40625 31.296875 43.53125 35.828125 
Q 39.65625 40.375 33.015625 40.375 
z
M 52.59375 71.296875 
L 52.59375 62.3125 
Q 48.875 64.0625 45.09375 64.984375 
Q 41.3125 65.921875 37.59375 65.921875 
Q 27.828125 65.921875 22.671875 59.328125 
Q 17.53125 52.734375 16.796875 39.40625 
Q 19.671875 43.65625 24.015625 45.921875 
Q 28.375 48.1875 33.59375 48.1875 
Q 44.578125 48.1875 50.953125 41.515625 
Q 57.328125 34.859375 57.328125 23.390625 
Q 57.328125 12.15625 50.6875 5.359375 
Q 44.046875 -1.421875 33.015625 -1.421875 
Q 20.359375 -1.421875 13.671875 8.265625 
Q 6.984375 17.96875 6.984375 36.375 
Q 6.984375 53.65625 15.1875 63.9375 
Q 23.390625 74.21875 37.203125 74.21875 
Q 40.921875 74.21875 44.703125 73.484375 
Q 48.484375 72.75 52.59375 71.296875 
z
" id="DejaVuSans-54"/>
      </defs>
      <g transform="translate(308.084631 322.182437)scale(0.1 -0.1)">
       <use xlink:href="#DejaVuSans-54"/>
       <use x="63.623047" xlink:href="#DejaVuSans-48"/>
       <use x="127.246094" xlink:href="#DejaVuSans-48"/>
      </g>
     </g>
    </g>
    <g id="xtick_8">
     <g id="line2d_8">
      <g>
       <use style="stroke:#000000;stroke-width:0.8;" x="358.26099" xlink:href="#mc0f32acce8" y="307.584"/>
      </g>
     </g>
     <g id="text_8">
      <!-- 700 -->
      <defs>
       <path d="M 8.203125 72.90625 
L 55.078125 72.90625 
L 55.078125 68.703125 
L 28.609375 0 
L 18.3125 0 
L 43.21875 64.59375 
L 8.203125 64.59375 
z
" id="DejaVuSans-55"/>
      </defs>
      <g transform="translate(348.71724 322.182437)scale(0.1 -0.1)">
       <use xlink:href="#DejaVuSans-55"/>
       <use x="63.623047" xlink:href="#DejaVuSans-48"/>
       <use x="127.246094" xlink:href="#DejaVuSans-48"/>
      </g>
     </g>
    </g>
    <g id="xtick_9">
     <g id="line2d_9">
      <g>
       <use style="stroke:#000000;stroke-width:0.8;" x="398.893599" xlink:href="#mc0f32acce8" y="307.584"/>
      </g>
     </g>
     <g id="text_9">
      <!-- 800 -->
      <defs>
       <path d="M 31.78125 34.625 
Q 24.75 34.625 20.71875 30.859375 
Q 16.703125 27.09375 16.703125 20.515625 
Q 16.703125 13.921875 20.71875 10.15625 
Q 24.75 6.390625 31.78125 6.390625 
Q 38.8125 6.390625 42.859375 10.171875 
Q 46.921875 13.96875 46.921875 20.515625 
Q 46.921875 27.09375 42.890625 30.859375 
Q 38.875 34.625 31.78125 34.625 
z
M 21.921875 38.8125 
Q 15.578125 40.375 12.03125 44.71875 
Q 8.5 49.078125 8.5 55.328125 
Q 8.5 64.0625 14.71875 69.140625 
Q 20.953125 74.21875 31.78125 74.21875 
Q 42.671875 74.21875 48.875 69.140625 
Q 55.078125 64.0625 55.078125 55.328125 
Q 55.078125 49.078125 51.53125 44.71875 
Q 48 40.375 41.703125 38.8125 
Q 48.828125 37.15625 52.796875 32.3125 
Q 56.78125 27.484375 56.78125 20.515625 
Q 56.78125 9.90625 50.3125 4.234375 
Q 43.84375 -1.421875 31.78125 -1.421875 
Q 19.734375 -1.421875 13.25 4.234375 
Q 6.78125 9.90625 6.78125 20.515625 
Q 6.78125 27.484375 10.78125 32.3125 
Q 14.796875 37.15625 21.921875 38.8125 
z
M 18.3125 54.390625 
Q 18.3125 48.734375 21.84375 45.5625 
Q 25.390625 42.390625 31.78125 42.390625 
Q 38.140625 42.390625 41.71875 45.5625 
Q 45.3125 48.734375 45.3125 54.390625 
Q 45.3125 60.0625 41.71875 63.234375 
Q 38.140625 66.40625 31.78125 66.40625 
Q 25.390625 66.40625 21.84375 63.234375 
Q 18.3125 60.0625 18.3125 54.390625 
z
" id="DejaVuSans-56"/>
      </defs>
      <g transform="translate(389.349849 322.182437)scale(0.1 -0.1)">
       <use xlink:href="#DejaVuSans-56"/>
       <use x="63.623047" xlink:href="#DejaVuSans-48"/>
       <use x="127.246094" xlink:href="#DejaVuSans-48"/>
      </g>
     </g>
    </g>
   </g>
   <g id="matplotlib.axis_2">
    <g id="ytick_1">
     <g id="line2d_10">
      <defs>
       <path d="M 0 0 
L -3.5 0 
" id="m475465dfe3" style="stroke:#000000;stroke-width:0.8;"/>
      </defs>
      <g>
       <use style="stroke:#000000;stroke-width:0.8;" x="57.6" xlink:href="#m475465dfe3" y="295.80881"/>
      </g>
     </g>
     <g id="text_10">
      <!-- 0 -->
      <g transform="translate(44.2375 299.608028)scale(0.1 -0.1)">
       <use xlink:href="#DejaVuSans-48"/>
      </g>
     </g>
    </g>
    <g id="ytick_2">
     <g id="line2d_11">
      <g>
       <use style="stroke:#000000;stroke-width:0.8;" x="57.6" xlink:href="#m475465dfe3" y="241.517578"/>
      </g>
     </g>
     <g id="text_11">
      <!-- 5 -->
      <g transform="translate(44.2375 245.316796)scale(0.1 -0.1)">
       <use xlink:href="#DejaVuSans-53"/>
      </g>
     </g>
    </g>
    <g id="ytick_3">
     <g id="line2d_12">
      <g>
       <use style="stroke:#000000;stroke-width:0.8;" x="57.6" xlink:href="#m475465dfe3" y="187.226346"/>
      </g>
     </g>
     <g id="text_12">
      <!-- 10 -->
      <g transform="translate(37.875 191.025564)scale(0.1 -0.1)">
       <use xlink:href="#DejaVuSans-49"/>
       <use x="63.623047" xlink:href="#DejaVuSans-48"/>
      </g>
     </g>
    </g>
    <g id="ytick_4">
     <g id="line2d_13">
      <g>
       <use style="stroke:#000000;stroke-width:0.8;" x="57.6" xlink:href="#m475465dfe3" y="132.935114"/>
      </g>
     </g>
     <g id="text_13">
      <!-- 15 -->
      <g transform="translate(37.875 136.734332)scale(0.1 -0.1)">
       <use xlink:href="#DejaVuSans-49"/>
       <use x="63.623047" xlink:href="#DejaVuSans-53"/>
      </g>
     </g>
    </g>
    <g id="ytick_5">
     <g id="line2d_14">
      <g>
       <use style="stroke:#000000;stroke-width:0.8;" x="57.6" xlink:href="#m475465dfe3" y="78.643882"/>
      </g>
     </g>
     <g id="text_14">
      <!-- 20 -->
      <g transform="translate(37.875 82.4431)scale(0.1 -0.1)">
       <use xlink:href="#DejaVuSans-50"/>
       <use x="63.623047" xlink:href="#DejaVuSans-48"/>
      </g>
     </g>
    </g>
   </g>
   <g id="line2d_15">
    <path clip-path="url(#pf68b47ff31)" d="M 73.832727 287.600798 
L 74.239053 287.488502 
L 74.645379 287.731382 
L 75.458032 286.624247 
L 75.864358 286.656411 
L 76.270684 286.913472 
L 76.67701 286.764496 
L 77.083336 287.186019 
L 77.489662 287.125693 
L 77.895988 287.855689 
L 78.302314 287.186313 
L 78.70864 287.26707 
L 79.114966 289.181827 
L 79.521293 289.257715 
L 79.927619 288.896659 
L 80.333945 289.560778 
L 80.740271 289.945763 
L 81.146597 289.503449 
L 81.552923 290.364828 
L 82.365575 291.069871 
L 82.771901 291.082567 
L 83.584553 290.578808 
L 83.99088 289.587501 
L 84.397206 289.213104 
L 84.803532 288.328747 
L 86.02251 286.649029 
L 86.835162 286.333676 
L 87.241488 286.783991 
L 87.647814 286.547939 
L 88.05414 286.938702 
L 88.460466 287.662245 
L 88.866793 287.933612 
L 89.679445 289.155774 
L 90.085771 289.283973 
L 90.492097 289.575639 
L 90.898423 289.449921 
L 91.304749 289.649185 
L 92.117401 288.713334 
L 92.523727 288.839082 
L 92.930053 288.657839 
L 93.742706 289.193578 
L 94.149032 291.699485 
L 94.555358 291.824294 
L 95.36801 290.315719 
L 95.774336 290.697937 
L 96.180662 290.92447 
L 96.586988 290.715535 
L 96.993314 290.792812 
L 97.39964 290.329791 
L 99.024945 289.794191 
L 99.431271 289.557572 
L 99.837597 290.317442 
L 100.243923 289.838977 
L 100.650249 289.085537 
L 101.056575 288.676046 
L 101.462901 288.61123 
L 101.869227 289.258151 
L 102.275554 288.855135 
L 103.088206 288.541927 
L 103.494532 288.802055 
L 103.900858 289.380363 
L 104.307184 288.833824 
L 104.71351 288.955772 
L 105.119836 288.636207 
L 105.526162 288.529973 
L 106.745141 287.569666 
L 107.557793 286.717531 
L 107.964119 286.924304 
L 108.370445 286.599224 
L 108.776771 286.455634 
L 109.183097 286.483708 
L 109.589423 286.629915 
L 109.995749 286.63667 
L 110.808401 287.050175 
L 111.621054 287.628551 
L 113.652684 289.304301 
L 114.05901 289.290461 
L 114.871662 289.672749 
L 115.277988 289.515699 
L 116.090641 289.724474 
L 116.496967 289.644789 
L 116.903293 289.866465 
L 118.122271 290.056294 
L 118.528597 289.887521 
L 119.341249 289.838459 
L 120.560228 290.143502 
L 120.966554 289.812805 
L 121.37288 289.818811 
L 121.779206 290.583095 
L 122.185532 290.71946 
L 122.591858 291.38147 
L 123.40451 290.928119 
L 123.810836 291.065209 
L 124.217162 290.446413 
L 124.623488 290.332492 
L 125.029815 290.544845 
L 125.436141 290.487052 
L 125.842467 290.142485 
L 126.248793 290.525807 
L 126.655119 290.5196 
L 127.061445 289.887341 
L 127.467771 289.665464 
L 127.874097 290.165544 
L 128.280423 289.548003 
L 128.686749 290.664023 
L 129.093075 290.565804 
L 129.499402 291.06737 
L 130.312054 290.817675 
L 130.71838 290.333899 
L 131.124706 291.328294 
L 131.531032 290.21942 
L 133.156336 289.49309 
L 133.562662 289.466891 
L 134.375315 290.049276 
L 134.781641 290.190176 
L 135.187967 290.156242 
L 135.594293 291.162282 
L 136.000619 291.121219 
L 136.406945 289.287163 
L 136.813271 289.813702 
L 137.219597 289.31567 
L 137.625923 291.256159 
L 138.032249 289.402345 
L 138.438575 290.139627 
L 138.844902 290.370606 
L 139.251228 290.976453 
L 139.657554 290.014607 
L 140.06388 290.167407 
L 140.876532 289.639511 
L 141.282858 289.674112 
L 141.689184 289.900506 
L 142.09551 290.304177 
L 142.501836 289.792635 
L 142.908162 290.27156 
L 143.314489 290.026313 
L 143.720815 290.522085 
L 144.127141 290.733545 
L 144.533467 290.525267 
L 145.346119 290.732134 
L 145.752445 290.221798 
L 146.158771 290.419631 
L 146.565097 289.981765 
L 146.971423 289.915162 
L 147.377749 290.130483 
L 147.784076 289.863276 
L 148.190402 289.966183 
L 148.596728 290.315727 
L 149.003054 290.944296 
L 149.40938 290.729975 
L 149.815706 290.252885 
L 151.847336 290.744343 
L 152.253663 289.90312 
L 153.066315 289.401048 
L 153.472641 290.116723 
L 153.878967 290.007527 
L 154.285293 290.079344 
L 154.691619 290.014496 
L 155.097945 288.952261 
L 155.504271 288.835735 
L 155.910597 289.352802 
L 156.316923 289.169656 
L 157.129576 289.557353 
L 157.942228 289.650522 
L 158.75488 289.685387 
L 159.161206 288.504941 
L 159.567532 289.868872 
L 159.973858 289.931832 
L 160.380184 289.635922 
L 161.192837 289.852174 
L 161.599163 290.152354 
L 162.005489 289.515032 
L 162.411815 290.075487 
L 164.037119 289.849217 
L 165.662423 289.459621 
L 166.475076 289.314804 
L 166.881402 289.471332 
L 168.10038 289.444374 
L 168.506706 289.249392 
L 169.319358 289.302858 
L 169.725684 289.432872 
L 170.13201 289.179624 
L 170.538337 289.073653 
L 170.944663 289.162608 
L 171.350989 289.768648 
L 171.757315 289.829802 
L 172.163641 289.684771 
L 172.976293 289.747238 
L 173.382619 290.068946 
L 173.788945 289.51581 
L 174.195271 289.939348 
L 174.601597 289.580754 
L 175.820576 289.701196 
L 176.226902 290.041345 
L 176.633228 290.073185 
L 177.852206 289.339346 
L 178.258532 289.600271 
L 178.664858 289.672578 
L 179.071184 289.241881 
L 179.477511 289.145735 
L 180.290163 289.272261 
L 181.102815 289.20116 
L 181.509141 289.265217 
L 181.915467 289.149275 
L 182.321793 289.403108 
L 183.134445 289.423336 
L 183.540771 288.881426 
L 183.947098 288.956103 
L 184.353424 288.857998 
L 184.75975 289.024755 
L 185.166076 289.332935 
L 185.572402 289.34862 
L 185.978728 289.603617 
L 186.385054 289.619264 
L 186.79138 289.151831 
L 187.197706 289.398667 
L 188.010358 289.418721 
L 188.416684 289.595242 
L 189.635663 289.691499 
L 190.448315 289.420438 
L 191.260967 289.236522 
L 191.667293 288.657579 
L 192.073619 289.048456 
L 192.886271 288.728474 
L 193.292598 288.95538 
L 194.10525 288.564915 
L 194.917902 288.811841 
L 195.730554 288.469438 
L 196.13688 288.662764 
L 196.543206 288.431686 
L 198.574837 288.70473 
L 198.981163 289.309488 
L 199.387489 288.768143 
L 199.793815 289.431486 
L 201.825445 289.507792 
L 202.231772 288.768677 
L 202.638098 288.896518 
L 204.263402 288.63792 
L 205.076054 288.551945 
L 205.48238 288.406701 
L 206.295032 288.304677 
L 207.920337 287.965572 
L 208.326663 288.011315 
L 209.139315 287.925184 
L 210.358293 288.005509 
L 212.389924 288.409125 
L 214.015228 288.59265 
L 216.046859 288.280246 
L 220.516446 287.513945 
L 220.922772 287.122813 
L 221.329098 287.002783 
L 221.735424 287.199354 
L 222.14175 286.686975 
L 224.17338 286.773276 
L 224.579706 286.867016 
L 224.986033 287.228951 
L 225.392359 287.313879 
L 225.798685 287.572641 
L 226.205011 287.569837 
L 227.017663 287.684825 
L 227.423989 287.446488 
L 228.642967 287.767711 
L 229.049293 287.587455 
L 231.48725 287.449698 
L 232.299902 287.214725 
L 234.737859 286.669537 
L 236.363163 286.590176 
L 237.175815 286.667622 
L 238.394793 286.795213 
L 238.80112 286.755794 
L 239.207446 286.958662 
L 240.426424 287.15729 
L 240.83275 287.4115 
L 241.645402 287.09543 
L 242.458054 286.840859 
L 242.86438 286.527071 
L 243.270707 287.436904 
L 243.677033 287.311407 
L 244.083359 286.94622 
L 244.489685 286.405618 
L 244.896011 286.553421 
L 245.708663 285.988124 
L 246.114989 285.946166 
L 246.521315 286.310488 
L 247.740294 286.356433 
L 248.959272 286.014596 
L 249.365598 286.087697 
L 250.584576 285.764719 
L 251.397228 286.313258 
L 251.803554 286.519889 
L 253.428859 286.7369 
L 253.835185 286.305768 
L 254.241511 286.981005 
L 255.866815 287.056241 
L 257.49212 286.854424 
L 261.555381 286.082069 
L 263.587011 285.942796 
L 265.212315 286.154703 
L 267.243946 286.496186 
L 268.86925 286.653463 
L 272.119859 286.164474 
L 274.964142 285.662185 
L 275.776794 285.611567 
L 276.18312 285.447892 
L 277.402098 285.670482 
L 277.808424 285.373268 
L 280.246381 285.825826 
L 281.871685 286.382262 
L 282.684337 286.348051 
L 283.090663 286.240106 
L 283.496989 286.281076 
L 288.779229 285.349617 
L 290.404533 285.358731 
L 291.623511 285.582733 
L 292.436163 285.745539 
L 294.061468 286.003509 
L 296.499424 286.114513 
L 298.124729 285.86352 
L 299.343707 285.53853 
L 299.750033 285.530061 
L 300.969011 285.215347 
L 302.594316 285.011715 
L 303.000642 285.024539 
L 303.406968 285.200534 
L 305.032272 285.359486 
L 305.438598 285.12232 
L 307.470229 285.402558 
L 308.689207 285.513699 
L 310.720837 285.398966 
L 315.190424 284.608269 
L 316.003077 284.614102 
L 317.222055 284.476756 
L 319.253685 284.841794 
L 321.285316 285.223996 
L 322.91062 285.277151 
L 325.348577 284.99764 
L 326.567555 284.785029 
L 326.973881 284.814981 
L 327.786533 284.61555 
L 328.192859 284.751733 
L 329.005511 284.430149 
L 329.411838 284.506216 
L 329.818164 284.396599 
L 331.037142 284.574214 
L 336.319381 285.265858 
L 337.132033 285.069108 
L 339.56999 284.761442 
L 342.820598 284.449198 
L 344.039577 284.404085 
L 345.664881 284.572814 
L 348.91549 284.972883 
L 350.540794 285.043706 
L 352.572425 284.845172 
L 356.229359 284.308668 
L 358.667316 284.363371 
L 359.886294 284.523677 
L 360.29262 284.736397 
L 361.105272 284.799779 
L 362.324251 284.746444 
L 364.355881 284.685758 
L 368.419142 284.141634 
L 372.482403 284.26707 
L 375.733012 284.645468 
L 378.170968 284.682091 
L 379.389947 284.439777 
L 380.608925 284.246557 
L 381.421577 284.075462 
L 384.672186 284.211802 
L 389.954425 285.01063 
L 390.767077 284.834126 
L 392.798707 284.459941 
L 394.017686 284.166847 
L 398.080947 284.061328 
L 398.487273 284.094735 
L 398.487273 284.094735 
" style="fill:none;stroke:#1f77b4;stroke-linecap:square;stroke-width:1.5;"/>
   </g>
   <g id="line2d_16">
    <path clip-path="url(#pf68b47ff31)" d="M 73.832727 53.568 
L 74.239053 234.078617 
L 74.645379 249.881401 
L 75.458032 270.745025 
L 75.864358 277.306393 
L 76.270684 282.034117 
L 76.67701 288.826437 
L 77.083336 293.601114 
L 77.489662 295.488 
L 78.302314 292.210677 
L 78.70864 291.793866 
L 79.114966 284.311588 
L 79.521293 280.050995 
L 79.927619 279.458508 
L 80.333945 282.236195 
L 80.740271 288.370059 
L 81.146597 284.21837 
L 81.552923 285.8702 
L 81.959249 292.203707 
L 82.365575 294.835412 
L 82.771901 294.522161 
L 83.178227 294.389987 
L 83.584553 291.228124 
L 83.99088 283.420312 
L 84.397206 279.831798 
L 84.803532 278.873953 
L 85.209858 278.763137 
L 85.616184 279.459172 
L 86.02251 281.030014 
L 86.428836 281.864351 
L 86.835162 283.785547 
L 87.241488 288.127704 
L 87.647814 288.388249 
L 88.05414 284.0603 
L 88.866793 289.771861 
L 89.273119 289.246309 
L 89.679445 288.513589 
L 90.085771 285.890981 
L 90.492097 287.430671 
L 90.898423 288.118343 
L 91.304749 287.559116 
L 91.711075 286.542172 
L 92.117401 288.557945 
L 92.523727 288.327729 
L 92.930053 287.901805 
L 93.742706 287.922155 
L 94.149032 288.008291 
L 94.555358 286.753798 
L 95.774336 289.134262 
L 96.180662 288.680892 
L 96.586988 285.732607 
L 96.993314 283.741021 
L 97.39964 285.183925 
L 97.805967 281.264829 
L 98.212293 284.240832 
L 98.618619 283.404388 
L 99.431271 285.550075 
L 99.837597 283.555506 
L 100.243923 283.74379 
L 100.650249 284.246244 
L 101.056575 286.658286 
L 101.462901 286.209902 
L 101.869227 288.41827 
L 102.275554 288.691319 
L 103.088206 286.900315 
L 103.494532 286.610178 
L 103.900858 288.091007 
L 104.307184 288.486864 
L 104.71351 288.101664 
L 105.119836 288.535433 
L 105.526162 285.835357 
L 105.932488 285.648513 
L 106.338814 285.108893 
L 106.745141 284.051565 
L 107.151467 285.390903 
L 107.557793 285.470899 
L 107.964119 287.18558 
L 108.370445 284.555289 
L 108.776771 285.746441 
L 109.183097 284.803152 
L 109.589423 285.569608 
L 109.995749 287.27983 
L 110.402075 287.368191 
L 110.808401 287.101998 
L 111.214728 284.839173 
L 111.621054 284.926101 
L 112.02738 284.58339 
L 112.433706 283.166483 
L 112.840032 283.66139 
L 113.246358 283.577445 
L 113.652684 283.785601 
L 114.05901 283.030709 
L 114.465336 285.427444 
L 114.871662 284.917416 
L 115.277988 283.789305 
L 115.684314 285.653398 
L 116.090641 284.652339 
L 116.903293 284.610778 
L 117.309619 283.958921 
L 117.715945 285.350208 
L 118.122271 284.801719 
L 118.528597 284.935336 
L 118.934923 282.937419 
L 119.341249 284.559083 
L 119.747575 284.329582 
L 120.153901 284.798701 
L 120.966554 283.954991 
L 121.37288 283.931037 
L 121.779206 283.77498 
L 122.185532 283.750164 
L 122.591858 283.444858 
L 124.217162 283.234964 
L 124.623488 283.42242 
L 125.029815 282.950416 
L 125.436141 283.735125 
L 125.842467 283.016323 
L 126.248793 282.696103 
L 126.655119 280.216079 
L 127.061445 282.871807 
L 127.467771 282.746535 
L 127.874097 280.970015 
L 128.280423 281.953579 
L 128.686749 282.0055 
L 129.093075 281.152497 
L 129.499402 282.501928 
L 129.905728 282.267736 
L 130.71838 282.741716 
L 131.124706 282.236528 
L 131.531032 282.512586 
L 131.937358 282.605316 
L 132.343684 282.581826 
L 132.75001 281.900415 
L 133.156336 282.153778 
L 133.562662 281.972246 
L 133.968989 282.31819 
L 134.375315 282.038707 
L 134.781641 282.634282 
L 135.187967 282.518899 
L 135.594293 282.882446 
L 136.000619 282.711918 
L 136.406945 282.805884 
L 136.813271 281.097181 
L 137.219597 281.902118 
L 137.625923 281.768074 
L 138.032249 281.486759 
L 138.438575 282.361319 
L 138.844902 281.973717 
L 139.251228 282.36004 
L 139.657554 282.207096 
L 140.06388 281.565216 
L 140.470206 281.264414 
L 140.876532 281.698563 
L 141.282858 281.919387 
L 142.09551 281.494974 
L 142.501836 281.673215 
L 142.908162 282.000362 
L 143.314489 281.672411 
L 143.720815 281.756251 
L 144.127141 281.056078 
L 144.533467 280.729548 
L 144.939793 281.030906 
L 145.346119 281.163802 
L 145.752445 281.44428 
L 146.158771 281.41118 
L 146.565097 281.496398 
L 147.377749 281.272991 
L 147.784076 280.38664 
L 148.190402 280.284732 
L 149.003054 280.441924 
L 149.815706 280.46785 
L 151.44101 280.276276 
L 151.847336 280.007466 
L 152.659989 280.001238 
L 153.066315 280.392695 
L 153.472641 280.21936 
L 153.878967 280.989722 
L 154.285293 281.215417 
L 155.097945 281.177445 
L 155.504271 280.279609 
L 155.910597 281.061504 
L 156.316923 280.910317 
L 156.72325 280.957455 
L 157.129576 280.881489 
L 157.535902 280.202229 
L 157.942228 280.961441 
L 158.348554 281.037554 
L 158.75488 280.5683 
L 160.380184 280.584127 
L 160.78651 280.592186 
L 161.192837 281.098564 
L 161.599163 280.714983 
L 162.005489 280.488675 
L 162.818141 280.625499 
L 163.224467 280.867044 
L 163.630793 280.901973 
L 164.037119 280.349499 
L 164.849771 280.737413 
L 165.256097 280.750519 
L 165.662423 280.962388 
L 166.881402 280.993405 
L 167.287728 280.912882 
L 167.694054 280.525859 
L 168.10038 280.616529 
L 168.913032 280.663225 
L 169.319358 280.739133 
L 170.13201 280.672355 
L 170.538337 280.364283 
L 170.944663 280.735934 
L 171.350989 280.057412 
L 171.757315 280.440372 
L 173.382619 280.426294 
L 174.601597 280.196692 
L 175.007924 279.753045 
L 175.41425 280.35432 
L 175.820576 280.55489 
L 176.226902 280.17573 
L 176.633228 280.032706 
L 177.039554 280.062412 
L 177.44588 279.77813 
L 177.852206 280.487522 
L 178.258532 279.868292 
L 178.664858 280.373976 
L 179.071184 280.430336 
L 179.477511 280.606695 
L 179.883837 280.606438 
L 180.290163 280.291141 
L 180.696489 280.312445 
L 181.102815 280.20171 
L 181.915467 280.253729 
L 183.134445 280.302306 
L 183.540771 279.601655 
L 184.353424 279.419412 
L 184.75975 280.121262 
L 185.166076 280.035826 
L 185.572402 280.438457 
L 185.978728 280.482212 
L 186.385054 280.394301 
L 186.79138 280.152075 
L 187.604032 280.087452 
L 188.416684 280.036666 
L 188.823011 280.169543 
L 190.041989 280.039941 
L 190.854641 280.277395 
L 191.260967 280.014676 
L 191.667293 280.215962 
L 192.479945 280.177491 
L 194.10525 280.191088 
L 194.511576 279.995738 
L 194.917902 279.933999 
L 195.324228 280.062188 
L 195.730554 279.588865 
L 196.13688 279.603735 
L 196.543206 279.502516 
L 196.949532 279.523049 
L 197.355858 279.909401 
L 197.762185 279.775908 
L 198.168511 280.121245 
L 201.419119 280.051763 
L 201.825445 280.269931 
L 202.638098 280.356744 
L 203.45075 279.60911 
L 204.263402 279.557049 
L 204.669728 279.799765 
L 205.076054 279.512275 
L 205.48238 279.468212 
L 205.888706 279.287031 
L 207.107685 279.349442 
L 207.514011 279.322317 
L 207.920337 279.931125 
L 208.326663 280.072727 
L 211.170946 279.706266 
L 211.577272 279.345792 
L 212.389924 279.728577 
L 212.79625 279.408822 
L 213.202576 279.296595 
L 213.608902 279.431973 
L 214.015228 279.280543 
L 214.421554 279.251272 
L 214.82788 279.110254 
L 215.640532 279.107515 
L 216.453185 279.072292 
L 217.265837 279.098525 
L 217.672163 279.043201 
L 218.078489 279.144575 
L 218.484815 279.128222 
L 218.891141 278.832362 
L 219.297467 279.075794 
L 220.516446 279.165919 
L 220.922772 279.110453 
L 221.329098 278.890745 
L 224.17338 278.7687 
L 226.611337 278.579163 
L 227.017663 278.783947 
L 228.642967 278.785178 
L 229.049293 278.775813 
L 229.861946 279.006444 
L 230.674598 279.04855 
L 232.299902 279.05779 
L 233.51888 278.842654 
L 234.331533 278.861568 
L 234.737859 278.568169 
L 236.363163 278.397694 
L 236.769489 278.567215 
L 239.613772 278.454574 
L 240.020098 278.466329 
L 240.426424 278.617428 
L 242.051728 278.509907 
L 245.708663 278.524808 
L 246.114989 278.730079 
L 247.333967 278.629845 
L 248.552946 278.781109 
L 248.959272 278.546711 
L 249.365598 278.758066 
L 249.771924 278.787656 
L 250.17825 278.691435 
L 250.584576 278.415878 
L 251.397228 278.617447 
L 252.209881 278.669234 
L 252.616207 278.321978 
L 253.022533 278.345035 
L 253.428859 278.110834 
L 253.835185 278.585836 
L 254.241511 278.470626 
L 254.647837 278.478974 
L 255.054163 278.13722 
L 257.49212 277.978927 
L 257.898446 277.776094 
L 258.304772 277.744053 
L 258.711098 277.997301 
L 259.52375 277.912481 
L 259.930076 277.841429 
L 260.336402 277.023276 
L 260.742728 276.997494 
L 261.149054 277.168723 
L 261.961707 277.053381 
L 263.180685 276.522364 
L 264.399663 276.763763 
L 264.805989 276.935098 
L 265.212315 276.746957 
L 265.618641 277.82493 
L 266.024968 277.70943 
L 266.431294 276.548395 
L 267.243946 276.617574 
L 267.650272 276.704424 
L 268.056598 276.269962 
L 268.86925 275.990821 
L 269.681902 275.995046 
L 271.307207 275.937403 
L 272.932511 275.945434 
L 273.338837 275.88404 
L 273.745163 277.147689 
L 274.151489 277.161258 
L 274.557815 277.46148 
L 275.776794 277.57433 
L 277.808424 278.144605 
L 278.21475 277.797906 
L 278.621076 277.696823 
L 279.027402 277.862805 
L 279.433729 276.772501 
L 279.840055 277.197977 
L 280.246381 277.067071 
L 281.059033 276.564842 
L 281.465359 276.661448 
L 281.871685 276.622492 
L 282.278011 276.867594 
L 282.684337 276.470903 
L 283.090663 276.595144 
L 283.496989 276.941298 
L 284.309642 277.112741 
L 284.715968 277.491709 
L 285.122294 277.391255 
L 286.747598 277.505118 
L 287.153924 277.73591 
L 287.56025 277.50316 
L 287.966576 277.625966 
L 289.185555 277.690317 
L 289.998207 276.807519 
L 290.404533 277.112245 
L 291.217185 277.045703 
L 291.623511 277.164492 
L 292.029837 276.914531 
L 294.061468 276.503768 
L 294.467794 276.611684 
L 294.87412 275.810527 
L 295.280446 276.305334 
L 296.093098 276.443184 
L 296.499424 276.597648 
L 296.90575 276.191267 
L 297.312076 275.592579 
L 297.718403 276.347814 
L 298.124729 276.003576 
L 298.531055 276.219306 
L 298.937381 275.782513 
L 299.343707 275.598248 
L 299.750033 276.051274 
L 300.156359 276.676083 
L 300.562685 276.755379 
L 301.375337 275.991525 
L 301.781663 276.594712 
L 302.594316 276.740909 
L 303.406968 277.006666 
L 303.813294 276.793219 
L 304.625946 276.713775 
L 305.032272 275.979181 
L 305.438598 276.504388 
L 306.25125 276.564441 
L 306.657577 276.544952 
L 307.063903 276.678604 
L 307.470229 276.412874 
L 308.282881 276.432402 
L 308.689207 276.287526 
L 309.501859 276.427414 
L 310.314511 276.429427 
L 310.720837 275.913156 
L 311.939816 276.17544 
L 312.346142 276.409503 
L 312.752468 276.35666 
L 313.158794 276.446216 
L 313.56512 276.009456 
L 313.971446 276.531131 
L 314.377772 276.390074 
L 316.003077 276.19967 
L 316.409403 276.455079 
L 316.815729 275.998051 
L 317.222055 276.240201 
L 317.628381 275.873205 
L 318.034707 275.886127 
L 318.441033 276.262586 
L 318.847359 276.293868 
L 319.253685 275.988225 
L 319.660011 276.097951 
L 320.066337 275.939343 
L 320.472664 274.965087 
L 320.87899 276.092711 
L 321.285316 275.148637 
L 322.504294 274.99531 
L 322.91062 275.947206 
L 323.723272 275.735014 
L 324.129598 275.782169 
L 324.535924 275.5515 
L 324.942251 275.75638 
L 326.161229 275.721572 
L 326.567555 275.828644 
L 326.973881 275.399404 
L 328.192859 275.135147 
L 328.599185 275.505226 
L 329.818164 275.19879 
L 330.630816 275.911615 
L 331.443468 275.938017 
L 331.849794 275.694399 
L 332.25612 275.179756 
L 333.068772 275.159543 
L 333.475098 274.738766 
L 333.881425 275.419308 
L 334.287751 275.58459 
L 334.694077 275.226067 
L 335.100403 275.7953 
L 335.506729 275.929358 
L 335.913055 275.905528 
L 336.319381 275.645607 
L 336.725707 275.668112 
L 337.132033 275.843528 
L 337.538359 275.662384 
L 337.944685 275.722016 
L 338.351011 275.524699 
L 338.757338 275.614198 
L 339.56999 275.511374 
L 339.976316 275.258944 
L 340.788968 275.328285 
L 341.195294 274.966846 
L 342.007946 275.226142 
L 342.414272 275.650475 
L 342.820598 275.337198 
L 343.226925 275.270787 
L 343.633251 275.017772 
L 345.258555 275.424332 
L 345.664881 275.380865 
L 346.071207 275.007682 
L 346.883859 274.994042 
L 347.290185 275.394531 
L 348.102838 275.113244 
L 348.509164 275.345668 
L 348.91549 274.814075 
L 349.321816 275.251894 
L 349.728142 275.161898 
L 350.134468 275.363664 
L 350.94712 275.341292 
L 351.353446 275.224786 
L 351.759772 273.973698 
L 352.166099 273.891635 
L 352.572425 274.874989 
L 352.978751 274.306919 
L 353.385077 274.168889 
L 354.197729 274.40334 
L 355.010381 274.87901 
L 355.416707 274.93051 
L 355.823033 273.913291 
L 356.229359 275.134453 
L 356.635686 275.059002 
L 357.042012 274.715959 
L 357.448338 275.187425 
L 357.854664 275.23142 
L 358.26099 274.684017 
L 358.667316 274.461426 
L 359.479968 275.295903 
L 359.886294 273.986581 
L 360.29262 274.353335 
L 360.698946 274.23904 
L 361.105272 274.599186 
L 361.511599 275.127426 
L 361.917925 274.987458 
L 362.730577 275.131906 
L 363.136903 275.096759 
L 363.543229 274.661668 
L 363.949555 275.082119 
L 364.762207 275.061236 
L 365.168533 275.169421 
L 365.574859 274.834107 
L 367.200164 274.744063 
L 368.012816 274.590163 
L 369.63812 274.538901 
L 370.044446 274.671273 
L 370.450773 274.977387 
L 371.263425 274.758404 
L 371.669751 275.076804 
L 372.076077 274.813722 
L 372.482403 275.166517 
L 372.888729 275.160707 
L 373.295055 275.27124 
L 374.107707 274.90461 
L 374.92036 274.711413 
L 375.326686 275.023032 
L 375.733012 274.763395 
L 376.139338 274.865999 
L 376.545664 274.675023 
L 376.95199 274.315197 
L 377.358316 274.695203 
L 377.764642 273.964272 
L 381.827903 274.050626 
L 383.046881 274.076548 
L 383.453207 273.734066 
L 383.859534 274.236617 
L 386.29749 274.119623 
L 386.703816 274.567072 
L 387.110142 274.842063 
L 387.922794 274.792518 
L 388.32912 274.174126 
L 388.735447 274.881461 
L 389.141773 274.575358 
L 391.579729 274.542039 
L 394.424012 274.660756 
L 395.64299 274.865347 
L 396.049316 274.813052 
L 396.455642 274.644989 
L 396.861968 274.889118 
L 397.268294 274.277613 
L 398.080947 274.565264 
L 398.487273 274.5596 
L 398.487273 274.5596 
" style="fill:none;stroke:#ff7f0e;stroke-linecap:square;stroke-width:1.5;"/>
   </g>
   <g id="patch_3">
    <path d="M 57.6 307.584 
L 57.6 41.472 
" style="fill:none;stroke:#000000;stroke-linecap:square;stroke-linejoin:miter;stroke-width:0.8;"/>
   </g>
   <g id="patch_4">
    <path d="M 414.72 307.584 
L 414.72 41.472 
" style="fill:none;stroke:#000000;stroke-linecap:square;stroke-linejoin:miter;stroke-width:0.8;"/>
   </g>
   <g id="patch_5">
    <path d="M 57.6 307.584 
L 414.72 307.584 
" style="fill:none;stroke:#000000;stroke-linecap:square;stroke-linejoin:miter;stroke-width:0.8;"/>
   </g>
   <g id="patch_6">
    <path d="M 57.6 41.472 
L 414.72 41.472 
" style="fill:none;stroke:#000000;stroke-linecap:square;stroke-linejoin:miter;stroke-width:0.8;"/>
   </g>
  </g>
 </g>
 <defs>
  <clipPath id="pf68b47ff31">
   <rect height="266.112" width="357.12" x="57.6" y="41.472"/>
  </clipPath>
 </defs>
</svg>
