<?xml version="1.0" encoding="utf-8" standalone="no"?>
<!DOCTYPE svg PUBLIC "-//W3C//DTD SVG 1.1//EN"
  "http://www.w3.org/Graphics/SVG/1.1/DTD/svg11.dtd">
<!-- Created with matplotlib (https://matplotlib.org/) -->
<svg height="345.6pt" version="1.1" viewBox="0 0 460.8 345.6" width="460.8pt" xmlns="http://www.w3.org/2000/svg" xmlns:xlink="http://www.w3.org/1999/xlink">
 <defs>
  <style type="text/css">
*{stroke-linecap:butt;stroke-linejoin:round;}
  </style>
 </defs>
 <g id="figure_1">
  <g id="patch_1">
   <path d="M 0 345.6 
L 460.8 345.6 
L 460.8 0 
L 0 0 
z
" style="fill:#ffffff;"/>
  </g>
  <g id="axes_1">
   <g id="patch_2">
    <path d="M 57.6 307.584 
L 414.72 307.584 
L 414.72 41.472 
L 57.6 41.472 
z
" style="fill:#ffffff;"/>
   </g>
   <g id="matplotlib.axis_1">
    <g id="xtick_1">
     <g id="line2d_1">
      <defs>
       <path d="M 0 0 
L 0 3.5 
" id="m6690337db4" style="stroke:#000000;stroke-width:0.8;"/>
      </defs>
      <g>
       <use style="stroke:#000000;stroke-width:0.8;" x="73.832727" xlink:href="#m6690337db4" y="307.584"/>
      </g>
     </g>
     <g id="text_1">
      <!-- 0 -->
      <defs>
       <path d="M 31.78125 66.40625 
Q 24.171875 66.40625 20.328125 58.90625 
Q 16.5 51.421875 16.5 36.375 
Q 16.5 21.390625 20.328125 13.890625 
Q 24.171875 6.390625 31.78125 6.390625 
Q 39.453125 6.390625 43.28125 13.890625 
Q 47.125 21.390625 47.125 36.375 
Q 47.125 51.421875 43.28125 58.90625 
Q 39.453125 66.40625 31.78125 66.40625 
z
M 31.78125 74.21875 
Q 44.046875 74.21875 50.515625 64.515625 
Q 56.984375 54.828125 56.984375 36.375 
Q 56.984375 17.96875 50.515625 8.265625 
Q 44.046875 -1.421875 31.78125 -1.421875 
Q 19.53125 -1.421875 13.0625 8.265625 
Q 6.59375 17.96875 6.59375 36.375 
Q 6.59375 54.828125 13.0625 64.515625 
Q 19.53125 74.21875 31.78125 74.21875 
z
" id="DejaVuSans-48"/>
      </defs>
      <g transform="translate(70.651477 322.182437)scale(0.1 -0.1)">
       <use xlink:href="#DejaVuSans-48"/>
      </g>
     </g>
    </g>
    <g id="xtick_2">
     <g id="line2d_2">
      <g>
       <use style="stroke:#000000;stroke-width:0.8;" x="114.465336" xlink:href="#m6690337db4" y="307.584"/>
      </g>
     </g>
     <g id="text_2">
      <!-- 100 -->
      <defs>
       <path d="M 12.40625 8.296875 
L 28.515625 8.296875 
L 28.515625 63.921875 
L 10.984375 60.40625 
L 10.984375 69.390625 
L 28.421875 72.90625 
L 38.28125 72.90625 
L 38.28125 8.296875 
L 54.390625 8.296875 
L 54.390625 0 
L 12.40625 0 
z
" id="DejaVuSans-49"/>
      </defs>
      <g transform="translate(104.921586 322.182437)scale(0.1 -0.1)">
       <use xlink:href="#DejaVuSans-49"/>
       <use x="63.623047" xlink:href="#DejaVuSans-48"/>
       <use x="127.246094" xlink:href="#DejaVuSans-48"/>
      </g>
     </g>
    </g>
    <g id="xtick_3">
     <g id="line2d_3">
      <g>
       <use style="stroke:#000000;stroke-width:0.8;" x="155.097945" xlink:href="#m6690337db4" y="307.584"/>
      </g>
     </g>
     <g id="text_3">
      <!-- 200 -->
      <defs>
       <path d="M 19.1875 8.296875 
L 53.609375 8.296875 
L 53.609375 0 
L 7.328125 0 
L 7.328125 8.296875 
Q 12.9375 14.109375 22.625 23.890625 
Q 32.328125 33.6875 34.8125 36.53125 
Q 39.546875 41.84375 41.421875 45.53125 
Q 43.3125 49.21875 43.3125 52.78125 
Q 43.3125 58.59375 39.234375 62.25 
Q 35.15625 65.921875 28.609375 65.921875 
Q 23.96875 65.921875 18.8125 64.3125 
Q 13.671875 62.703125 7.8125 59.421875 
L 7.8125 69.390625 
Q 13.765625 71.78125 18.9375 73 
Q 24.125 74.21875 28.421875 74.21875 
Q 39.75 74.21875 46.484375 68.546875 
Q 53.21875 62.890625 53.21875 53.421875 
Q 53.21875 48.921875 51.53125 44.890625 
Q 49.859375 40.875 45.40625 35.40625 
Q 44.1875 33.984375 37.640625 27.21875 
Q 31.109375 20.453125 19.1875 8.296875 
z
" id="DejaVuSans-50"/>
      </defs>
      <g transform="translate(145.554195 322.182437)scale(0.1 -0.1)">
       <use xlink:href="#DejaVuSans-50"/>
       <use x="63.623047" xlink:href="#DejaVuSans-48"/>
       <use x="127.246094" xlink:href="#DejaVuSans-48"/>
      </g>
     </g>
    </g>
    <g id="xtick_4">
     <g id="line2d_4">
      <g>
       <use style="stroke:#000000;stroke-width:0.8;" x="195.730554" xlink:href="#m6690337db4" y="307.584"/>
      </g>
     </g>
     <g id="text_4">
      <!-- 300 -->
      <defs>
       <path d="M 40.578125 39.3125 
Q 47.65625 37.796875 51.625 33 
Q 55.609375 28.21875 55.609375 21.1875 
Q 55.609375 10.40625 48.1875 4.484375 
Q 40.765625 -1.421875 27.09375 -1.421875 
Q 22.515625 -1.421875 17.65625 -0.515625 
Q 12.796875 0.390625 7.625 2.203125 
L 7.625 11.71875 
Q 11.71875 9.328125 16.59375 8.109375 
Q 21.484375 6.890625 26.8125 6.890625 
Q 36.078125 6.890625 40.9375 10.546875 
Q 45.796875 14.203125 45.796875 21.1875 
Q 45.796875 27.640625 41.28125 31.265625 
Q 36.765625 34.90625 28.71875 34.90625 
L 20.21875 34.90625 
L 20.21875 43.015625 
L 29.109375 43.015625 
Q 36.375 43.015625 40.234375 45.921875 
Q 44.09375 48.828125 44.09375 54.296875 
Q 44.09375 59.90625 40.109375 62.90625 
Q 36.140625 65.921875 28.71875 65.921875 
Q 24.65625 65.921875 20.015625 65.03125 
Q 15.375 64.15625 9.8125 62.3125 
L 9.8125 71.09375 
Q 15.4375 72.65625 20.34375 73.4375 
Q 25.25 74.21875 29.59375 74.21875 
Q 40.828125 74.21875 47.359375 69.109375 
Q 53.90625 64.015625 53.90625 55.328125 
Q 53.90625 49.265625 50.4375 45.09375 
Q 46.96875 40.921875 40.578125 39.3125 
z
" id="DejaVuSans-51"/>
      </defs>
      <g transform="translate(186.186804 322.182437)scale(0.1 -0.1)">
       <use xlink:href="#DejaVuSans-51"/>
       <use x="63.623047" xlink:href="#DejaVuSans-48"/>
       <use x="127.246094" xlink:href="#DejaVuSans-48"/>
      </g>
     </g>
    </g>
    <g id="xtick_5">
     <g id="line2d_5">
      <g>
       <use style="stroke:#000000;stroke-width:0.8;" x="236.363163" xlink:href="#m6690337db4" y="307.584"/>
      </g>
     </g>
     <g id="text_5">
      <!-- 400 -->
      <defs>
       <path d="M 37.796875 64.3125 
L 12.890625 25.390625 
L 37.796875 25.390625 
z
M 35.203125 72.90625 
L 47.609375 72.90625 
L 47.609375 25.390625 
L 58.015625 25.390625 
L 58.015625 17.1875 
L 47.609375 17.1875 
L 47.609375 0 
L 37.796875 0 
L 37.796875 17.1875 
L 4.890625 17.1875 
L 4.890625 26.703125 
z
" id="DejaVuSans-52"/>
      </defs>
      <g transform="translate(226.819413 322.182437)scale(0.1 -0.1)">
       <use xlink:href="#DejaVuSans-52"/>
       <use x="63.623047" xlink:href="#DejaVuSans-48"/>
       <use x="127.246094" xlink:href="#DejaVuSans-48"/>
      </g>
     </g>
    </g>
    <g id="xtick_6">
     <g id="line2d_6">
      <g>
       <use style="stroke:#000000;stroke-width:0.8;" x="276.995772" xlink:href="#m6690337db4" y="307.584"/>
      </g>
     </g>
     <g id="text_6">
      <!-- 500 -->
      <defs>
       <path d="M 10.796875 72.90625 
L 49.515625 72.90625 
L 49.515625 64.59375 
L 19.828125 64.59375 
L 19.828125 46.734375 
Q 21.96875 47.46875 24.109375 47.828125 
Q 26.265625 48.1875 28.421875 48.1875 
Q 40.625 48.1875 47.75 41.5 
Q 54.890625 34.8125 54.890625 23.390625 
Q 54.890625 11.625 47.5625 5.09375 
Q 40.234375 -1.421875 26.90625 -1.421875 
Q 22.3125 -1.421875 17.546875 -0.640625 
Q 12.796875 0.140625 7.71875 1.703125 
L 7.71875 11.625 
Q 12.109375 9.234375 16.796875 8.0625 
Q 21.484375 6.890625 26.703125 6.890625 
Q 35.15625 6.890625 40.078125 11.328125 
Q 45.015625 15.765625 45.015625 23.390625 
Q 45.015625 31 40.078125 35.4375 
Q 35.15625 39.890625 26.703125 39.890625 
Q 22.75 39.890625 18.8125 39.015625 
Q 14.890625 38.140625 10.796875 36.28125 
z
" id="DejaVuSans-53"/>
      </defs>
      <g transform="translate(267.452022 322.182437)scale(0.1 -0.1)">
       <use xlink:href="#DejaVuSans-53"/>
       <use x="63.623047" xlink:href="#DejaVuSans-48"/>
       <use x="127.246094" xlink:href="#DejaVuSans-48"/>
      </g>
     </g>
    </g>
    <g id="xtick_7">
     <g id="line2d_7">
      <g>
       <use style="stroke:#000000;stroke-width:0.8;" x="317.628381" xlink:href="#m6690337db4" y="307.584"/>
      </g>
     </g>
     <g id="text_7">
      <!-- 600 -->
      <defs>
       <path d="M 33.015625 40.375 
Q 26.375 40.375 22.484375 35.828125 
Q 18.609375 31.296875 18.609375 23.390625 
Q 18.609375 15.53125 22.484375 10.953125 
Q 26.375 6.390625 33.015625 6.390625 
Q 39.65625 6.390625 43.53125 10.953125 
Q 47.40625 15.53125 47.40625 23.390625 
Q 47.40625 31.296875 43.53125 35.828125 
Q 39.65625 40.375 33.015625 40.375 
z
M 52.59375 71.296875 
L 52.59375 62.3125 
Q 48.875 64.0625 45.09375 64.984375 
Q 41.3125 65.921875 37.59375 65.921875 
Q 27.828125 65.921875 22.671875 59.328125 
Q 17.53125 52.734375 16.796875 39.40625 
Q 19.671875 43.65625 24.015625 45.921875 
Q 28.375 48.1875 33.59375 48.1875 
Q 44.578125 48.1875 50.953125 41.515625 
Q 57.328125 34.859375 57.328125 23.390625 
Q 57.328125 12.15625 50.6875 5.359375 
Q 44.046875 -1.421875 33.015625 -1.421875 
Q 20.359375 -1.421875 13.671875 8.265625 
Q 6.984375 17.96875 6.984375 36.375 
Q 6.984375 53.65625 15.1875 63.9375 
Q 23.390625 74.21875 37.203125 74.21875 
Q 40.921875 74.21875 44.703125 73.484375 
Q 48.484375 72.75 52.59375 71.296875 
z
" id="DejaVuSans-54"/>
      </defs>
      <g transform="translate(308.084631 322.182437)scale(0.1 -0.1)">
       <use xlink:href="#DejaVuSans-54"/>
       <use x="63.623047" xlink:href="#DejaVuSans-48"/>
       <use x="127.246094" xlink:href="#DejaVuSans-48"/>
      </g>
     </g>
    </g>
    <g id="xtick_8">
     <g id="line2d_8">
      <g>
       <use style="stroke:#000000;stroke-width:0.8;" x="358.26099" xlink:href="#m6690337db4" y="307.584"/>
      </g>
     </g>
     <g id="text_8">
      <!-- 700 -->
      <defs>
       <path d="M 8.203125 72.90625 
L 55.078125 72.90625 
L 55.078125 68.703125 
L 28.609375 0 
L 18.3125 0 
L 43.21875 64.59375 
L 8.203125 64.59375 
z
" id="DejaVuSans-55"/>
      </defs>
      <g transform="translate(348.71724 322.182437)scale(0.1 -0.1)">
       <use xlink:href="#DejaVuSans-55"/>
       <use x="63.623047" xlink:href="#DejaVuSans-48"/>
       <use x="127.246094" xlink:href="#DejaVuSans-48"/>
      </g>
     </g>
    </g>
    <g id="xtick_9">
     <g id="line2d_9">
      <g>
       <use style="stroke:#000000;stroke-width:0.8;" x="398.893599" xlink:href="#m6690337db4" y="307.584"/>
      </g>
     </g>
     <g id="text_9">
      <!-- 800 -->
      <defs>
       <path d="M 31.78125 34.625 
Q 24.75 34.625 20.71875 30.859375 
Q 16.703125 27.09375 16.703125 20.515625 
Q 16.703125 13.921875 20.71875 10.15625 
Q 24.75 6.390625 31.78125 6.390625 
Q 38.8125 6.390625 42.859375 10.171875 
Q 46.921875 13.96875 46.921875 20.515625 
Q 46.921875 27.09375 42.890625 30.859375 
Q 38.875 34.625 31.78125 34.625 
z
M 21.921875 38.8125 
Q 15.578125 40.375 12.03125 44.71875 
Q 8.5 49.078125 8.5 55.328125 
Q 8.5 64.0625 14.71875 69.140625 
Q 20.953125 74.21875 31.78125 74.21875 
Q 42.671875 74.21875 48.875 69.140625 
Q 55.078125 64.0625 55.078125 55.328125 
Q 55.078125 49.078125 51.53125 44.71875 
Q 48 40.375 41.703125 38.8125 
Q 48.828125 37.15625 52.796875 32.3125 
Q 56.78125 27.484375 56.78125 20.515625 
Q 56.78125 9.90625 50.3125 4.234375 
Q 43.84375 -1.421875 31.78125 -1.421875 
Q 19.734375 -1.421875 13.25 4.234375 
Q 6.78125 9.90625 6.78125 20.515625 
Q 6.78125 27.484375 10.78125 32.3125 
Q 14.796875 37.15625 21.921875 38.8125 
z
M 18.3125 54.390625 
Q 18.3125 48.734375 21.84375 45.5625 
Q 25.390625 42.390625 31.78125 42.390625 
Q 38.140625 42.390625 41.71875 45.5625 
Q 45.3125 48.734375 45.3125 54.390625 
Q 45.3125 60.0625 41.71875 63.234375 
Q 38.140625 66.40625 31.78125 66.40625 
Q 25.390625 66.40625 21.84375 63.234375 
Q 18.3125 60.0625 18.3125 54.390625 
z
" id="DejaVuSans-56"/>
      </defs>
      <g transform="translate(389.349849 322.182437)scale(0.1 -0.1)">
       <use xlink:href="#DejaVuSans-56"/>
       <use x="63.623047" xlink:href="#DejaVuSans-48"/>
       <use x="127.246094" xlink:href="#DejaVuSans-48"/>
      </g>
     </g>
    </g>
   </g>
   <g id="matplotlib.axis_2">
    <g id="ytick_1">
     <g id="line2d_10">
      <defs>
       <path d="M 0 0 
L -3.5 0 
" id="mb9746cbfbd" style="stroke:#000000;stroke-width:0.8;"/>
      </defs>
      <g>
       <use style="stroke:#000000;stroke-width:0.8;" x="57.6" xlink:href="#mb9746cbfbd" y="295.500851"/>
      </g>
     </g>
     <g id="text_10">
      <!-- 0.000 -->
      <defs>
       <path d="M 10.6875 12.40625 
L 21 12.40625 
L 21 0 
L 10.6875 0 
z
" id="DejaVuSans-46"/>
      </defs>
      <g transform="translate(21.971875 299.30007)scale(0.1 -0.1)">
       <use xlink:href="#DejaVuSans-48"/>
       <use x="63.623047" xlink:href="#DejaVuSans-46"/>
       <use x="95.410156" xlink:href="#DejaVuSans-48"/>
       <use x="159.033203" xlink:href="#DejaVuSans-48"/>
       <use x="222.65625" xlink:href="#DejaVuSans-48"/>
      </g>
     </g>
    </g>
    <g id="ytick_2">
     <g id="line2d_11">
      <g>
       <use style="stroke:#000000;stroke-width:0.8;" x="57.6" xlink:href="#mb9746cbfbd" y="247.418567"/>
      </g>
     </g>
     <g id="text_11">
      <!-- 0.001 -->
      <g transform="translate(21.971875 251.217785)scale(0.1 -0.1)">
       <use xlink:href="#DejaVuSans-48"/>
       <use x="63.623047" xlink:href="#DejaVuSans-46"/>
       <use x="95.410156" xlink:href="#DejaVuSans-48"/>
       <use x="159.033203" xlink:href="#DejaVuSans-48"/>
       <use x="222.65625" xlink:href="#DejaVuSans-49"/>
      </g>
     </g>
    </g>
    <g id="ytick_3">
     <g id="line2d_12">
      <g>
       <use style="stroke:#000000;stroke-width:0.8;" x="57.6" xlink:href="#mb9746cbfbd" y="199.336282"/>
      </g>
     </g>
     <g id="text_12">
      <!-- 0.002 -->
      <g transform="translate(21.971875 203.135501)scale(0.1 -0.1)">
       <use xlink:href="#DejaVuSans-48"/>
       <use x="63.623047" xlink:href="#DejaVuSans-46"/>
       <use x="95.410156" xlink:href="#DejaVuSans-48"/>
       <use x="159.033203" xlink:href="#DejaVuSans-48"/>
       <use x="222.65625" xlink:href="#DejaVuSans-50"/>
      </g>
     </g>
    </g>
    <g id="ytick_4">
     <g id="line2d_13">
      <g>
       <use style="stroke:#000000;stroke-width:0.8;" x="57.6" xlink:href="#mb9746cbfbd" y="151.253998"/>
      </g>
     </g>
     <g id="text_13">
      <!-- 0.003 -->
      <g transform="translate(21.971875 155.053217)scale(0.1 -0.1)">
       <use xlink:href="#DejaVuSans-48"/>
       <use x="63.623047" xlink:href="#DejaVuSans-46"/>
       <use x="95.410156" xlink:href="#DejaVuSans-48"/>
       <use x="159.033203" xlink:href="#DejaVuSans-48"/>
       <use x="222.65625" xlink:href="#DejaVuSans-51"/>
      </g>
     </g>
    </g>
    <g id="ytick_5">
     <g id="line2d_14">
      <g>
       <use style="stroke:#000000;stroke-width:0.8;" x="57.6" xlink:href="#mb9746cbfbd" y="103.171714"/>
      </g>
     </g>
     <g id="text_14">
      <!-- 0.004 -->
      <g transform="translate(21.971875 106.970932)scale(0.1 -0.1)">
       <use xlink:href="#DejaVuSans-48"/>
       <use x="63.623047" xlink:href="#DejaVuSans-46"/>
       <use x="95.410156" xlink:href="#DejaVuSans-48"/>
       <use x="159.033203" xlink:href="#DejaVuSans-48"/>
       <use x="222.65625" xlink:href="#DejaVuSans-52"/>
      </g>
     </g>
    </g>
    <g id="ytick_6">
     <g id="line2d_15">
      <g>
       <use style="stroke:#000000;stroke-width:0.8;" x="57.6" xlink:href="#mb9746cbfbd" y="55.089429"/>
      </g>
     </g>
     <g id="text_15">
      <!-- 0.005 -->
      <g transform="translate(21.971875 58.888648)scale(0.1 -0.1)">
       <use xlink:href="#DejaVuSans-48"/>
       <use x="63.623047" xlink:href="#DejaVuSans-46"/>
       <use x="95.410156" xlink:href="#DejaVuSans-48"/>
       <use x="159.033203" xlink:href="#DejaVuSans-48"/>
       <use x="222.65625" xlink:href="#DejaVuSans-53"/>
      </g>
     </g>
    </g>
   </g>
   <g id="line2d_16">
    <path clip-path="url(#ped12dbab46)" d="M 73.832727 121.474149 
L 74.239053 92.592392 
L 74.645379 78.144777 
L 75.051706 75.21404 
L 75.458032 74.729162 
L 75.864358 80.295751 
L 76.270684 74.755024 
L 76.67701 61.592894 
L 77.083336 65.415577 
L 77.489662 53.568 
L 78.302314 75.036297 
L 78.70864 59.16761 
L 79.114966 70.318696 
L 79.521293 56.793374 
L 79.927619 73.627325 
L 80.740271 80.135023 
L 81.146597 81.490606 
L 81.552923 81.856475 
L 81.959249 80.878034 
L 82.365575 83.026289 
L 82.771901 82.348929 
L 83.178227 85.258151 
L 83.584553 84.105932 
L 83.99088 84.709462 
L 84.397206 58.677768 
L 84.803532 69.595936 
L 85.209858 85.518115 
L 86.02251 88.506452 
L 86.428836 88.141221 
L 86.835162 91.795191 
L 87.241488 90.494067 
L 87.647814 91.535356 
L 88.05414 90.950851 
L 88.460466 93.974166 
L 88.866793 93.63491 
L 89.273119 91.869299 
L 89.679445 91.539959 
L 90.085771 94.215255 
L 90.492097 94.69153 
L 90.898423 94.901686 
L 91.304749 97.038444 
L 91.711075 97.917488 
L 92.117401 97.818965 
L 92.523727 85.751405 
L 92.930053 84.078374 
L 93.33638 96.444132 
L 93.742706 103.086349 
L 94.149032 103.368363 
L 94.555358 104.238396 
L 94.961684 102.344477 
L 95.36801 97.607475 
L 95.774336 103.066671 
L 96.180662 103.40219 
L 96.586988 104.67002 
L 96.993314 105.403866 
L 97.39964 104.590877 
L 97.805967 104.104476 
L 98.212293 106.104251 
L 98.618619 104.937077 
L 99.024945 103.123882 
L 99.431271 106.615477 
L 99.837597 106.11255 
L 100.243923 109.205598 
L 100.650249 104.845232 
L 101.056575 104.877965 
L 101.869227 105.481232 
L 102.275554 106.89002 
L 102.68188 106.089879 
L 103.494532 108.666816 
L 103.900858 107.885287 
L 104.71351 108.30959 
L 105.119836 106.307568 
L 105.526162 110.89195 
L 105.932488 111.55797 
L 106.338814 110.721204 
L 107.151467 107.610712 
L 107.964119 110.28641 
L 108.370445 133.738301 
L 108.776771 111.600144 
L 109.183097 111.935194 
L 109.589423 111.021141 
L 109.995749 112.321333 
L 110.402075 112.040448 
L 110.808401 113.612339 
L 111.214728 109.806104 
L 111.621054 112.454226 
L 112.02738 111.710346 
L 112.433706 111.615906 
L 112.840032 136.216314 
L 113.246358 115.140757 
L 113.652684 112.220861 
L 114.05901 114.843151 
L 115.684314 111.084782 
L 116.090641 113.476158 
L 116.496967 113.256988 
L 117.309619 114.912493 
L 117.715945 116.110147 
L 118.122271 116.164664 
L 118.528597 116.848882 
L 118.934923 116.203139 
L 119.341249 114.032429 
L 119.747575 116.407776 
L 120.153901 117.115194 
L 120.560228 114.649753 
L 120.966554 76.079871 
L 121.37288 86.710846 
L 121.779206 108.72687 
L 122.185532 116.967013 
L 122.591858 114.326393 
L 122.998184 117.586845 
L 123.40451 107.639889 
L 123.810836 113.681106 
L 124.217162 115.400476 
L 124.623488 87.252331 
L 125.029815 108.232826 
L 125.436141 116.379673 
L 125.842467 114.054465 
L 126.248793 108.38611 
L 126.655119 115.885623 
L 127.061445 118.076059 
L 127.467771 98.56898 
L 127.874097 94.033552 
L 128.280423 93.192949 
L 128.686749 94.867619 
L 129.499402 99.676369 
L 129.905728 118.494743 
L 130.312054 109.225048 
L 130.71838 108.549601 
L 131.124706 115.45682 
L 131.531032 107.892166 
L 131.937358 104.909395 
L 132.343684 116.407781 
L 132.75001 121.997552 
L 133.156336 123.384648 
L 133.562662 120.904813 
L 133.968989 116.822307 
L 134.781641 114.607667 
L 135.187967 117.534634 
L 135.594293 118.111295 
L 136.000619 119.645804 
L 136.406945 119.863396 
L 136.813271 117.365122 
L 137.219597 116.250869 
L 137.625923 118.12619 
L 138.032249 117.013443 
L 138.438575 119.573818 
L 138.844902 118.460579 
L 139.251228 118.157572 
L 139.657554 123.380632 
L 140.06388 115.947604 
L 140.470206 119.258317 
L 140.876532 118.185021 
L 141.282858 113.869756 
L 141.689184 116.795527 
L 142.09551 115.610158 
L 142.501836 117.398054 
L 142.908162 116.145281 
L 143.314489 118.333232 
L 143.720815 132.544301 
L 144.127141 122.064368 
L 144.533467 121.830561 
L 144.939793 119.868167 
L 145.346119 118.632894 
L 145.752445 116.242651 
L 146.158771 119.020024 
L 146.565097 119.352913 
L 146.971423 128.495273 
L 147.377749 120.692574 
L 147.784076 118.768377 
L 148.190402 117.499582 
L 148.596728 118.44035 
L 149.003054 117.681715 
L 149.40938 119.521285 
L 149.815706 117.217505 
L 150.222032 117.62822 
L 150.628358 120.731423 
L 151.034684 118.892286 
L 151.44101 118.254351 
L 151.847336 119.961111 
L 152.253663 119.128191 
L 152.659989 131.99119 
L 153.066315 121.296543 
L 153.472641 118.987191 
L 153.878967 122.167058 
L 154.285293 119.175946 
L 154.691619 119.862333 
L 155.097945 118.875221 
L 155.504271 118.288318 
L 155.910597 116.109381 
L 156.316923 118.171977 
L 156.72325 122.031136 
L 157.129576 115.720918 
L 157.535902 130.939989 
L 157.942228 120.538395 
L 158.348554 120.97303 
L 158.75488 118.459171 
L 159.161206 120.32539 
L 159.567532 146.627447 
L 159.973858 108.975946 
L 160.380184 115.171215 
L 160.78651 123.418613 
L 161.192837 108.226934 
L 161.599163 120.631983 
L 162.005489 120.631033 
L 162.411815 121.811993 
L 162.818141 117.089847 
L 163.224467 121.998257 
L 163.630793 121.237158 
L 164.037119 119.9696 
L 164.443445 118.237586 
L 164.849771 118.821937 
L 165.256097 117.637399 
L 165.662423 117.433721 
L 166.06875 118.175958 
L 166.475076 117.288725 
L 166.881402 119.266751 
L 167.287728 117.561611 
L 167.694054 121.055566 
L 168.10038 117.90099 
L 168.506706 122.055594 
L 168.913032 113.387188 
L 169.319358 113.747918 
L 169.725684 118.484369 
L 170.13201 119.975265 
L 170.538337 117.786403 
L 170.944663 112.462701 
L 172.163641 118.811411 
L 172.569967 118.089163 
L 172.976293 121.696502 
L 173.382619 119.295352 
L 173.788945 119.166997 
L 174.195271 119.21889 
L 174.601597 124.372113 
L 175.007924 110.968579 
L 175.41425 114.890009 
L 175.820576 123.11508 
L 176.226902 120.984336 
L 176.633228 120.396675 
L 177.039554 116.259044 
L 177.44588 123.835695 
L 178.258532 120.485122 
L 178.664858 119.038822 
L 179.071184 118.610101 
L 179.477511 117.616209 
L 179.883837 129.124343 
L 180.290163 119.080615 
L 180.696489 119.729279 
L 181.102815 120.937748 
L 181.915467 119.711535 
L 182.321793 117.36527 
L 182.728119 128.574534 
L 183.134445 119.015379 
L 183.540771 119.88494 
L 183.947098 118.487558 
L 184.75975 119.922492 
L 185.166076 129.419766 
L 185.572402 121.055669 
L 185.978728 115.809344 
L 186.385054 120.216257 
L 186.79138 119.43419 
L 187.197706 120.934658 
L 187.604032 118.841419 
L 188.010358 118.42923 
L 188.823011 120.440005 
L 189.229337 119.138921 
L 189.635663 118.892578 
L 190.041989 121.927859 
L 190.448315 116.363701 
L 190.854641 119.27026 
L 191.260967 118.571402 
L 191.667293 120.485409 
L 192.073619 117.559642 
L 192.479945 118.312035 
L 192.886271 120.54705 
L 193.292598 119.29441 
L 193.698924 119.072435 
L 194.10525 120.673198 
L 194.511576 116.193471 
L 194.917902 120.493209 
L 195.324228 119.368847 
L 195.730554 121.578501 
L 196.13688 117.144474 
L 196.543206 119.983851 
L 197.355858 119.97689 
L 197.762185 119.018004 
L 198.168511 118.975634 
L 198.574837 118.525837 
L 198.981163 119.023653 
L 199.387489 118.884335 
L 199.793815 117.425571 
L 200.200141 119.767945 
L 200.606467 123.275171 
L 201.012793 123.784093 
L 201.419119 118.686787 
L 201.825445 119.066446 
L 202.231772 123.104343 
L 202.638098 120.731436 
L 203.044424 123.340667 
L 203.45075 118.001228 
L 203.857076 117.890245 
L 204.263402 121.967403 
L 204.669728 120.488829 
L 205.076054 119.922668 
L 205.48238 120.359142 
L 205.888706 120.286154 
L 206.295032 116.963887 
L 206.701359 120.348356 
L 207.107685 120.133701 
L 207.514011 120.779713 
L 207.920337 121.687046 
L 208.326663 123.622496 
L 208.732989 119.751459 
L 209.139315 121.893953 
L 209.545641 120.308142 
L 209.951967 120.037311 
L 210.358293 121.018857 
L 210.764619 121.074087 
L 211.170946 123.852395 
L 211.577272 121.759863 
L 212.389924 120.000751 
L 212.79625 122.029936 
L 213.202576 119.782655 
L 213.608902 121.44296 
L 214.015228 119.465654 
L 214.421554 123.871407 
L 214.82788 122.142908 
L 215.234206 121.229486 
L 215.640532 118.538717 
L 216.046859 122.736406 
L 216.453185 120.87599 
L 216.859511 120.158884 
L 217.265837 119.203254 
L 217.672163 123.173706 
L 218.078489 121.578174 
L 218.484815 121.487517 
L 218.891141 117.292272 
L 219.297467 119.701941 
L 220.110119 122.11578 
L 220.516446 119.015869 
L 220.922772 114.147144 
L 221.329098 123.948429 
L 221.735424 124.79448 
L 222.14175 122.336184 
L 222.548076 122.46526 
L 222.954402 122.070172 
L 223.360728 122.351909 
L 223.767054 125.754823 
L 224.579706 122.863434 
L 224.986033 123.838623 
L 225.392359 124.341953 
L 225.798685 121.746926 
L 226.205011 121.675797 
L 226.611337 122.503273 
L 227.017663 122.557085 
L 227.423989 121.190963 
L 227.830315 133.799523 
L 228.236641 125.64376 
L 228.642967 122.534827 
L 229.049293 122.331895 
L 229.45562 121.43481 
L 229.861946 121.510214 
L 230.268272 122.489783 
L 230.674598 124.549741 
L 231.080924 129.081205 
L 231.893576 123.609449 
L 232.299902 123.754125 
L 233.112554 123.065659 
L 233.51888 121.628459 
L 233.925207 121.567889 
L 234.331533 123.510867 
L 234.737859 117.831261 
L 235.144185 123.306325 
L 235.550511 122.649996 
L 236.363163 125.606466 
L 236.769489 123.874231 
L 237.582141 128.027185 
L 237.988467 129.406644 
L 238.394793 126.809703 
L 238.80112 126.082266 
L 239.207446 124.434732 
L 239.613772 125.105872 
L 240.020098 123.074271 
L 240.426424 126.502931 
L 240.83275 126.085544 
L 241.239076 123.89757 
L 241.645402 123.248667 
L 242.051728 123.696725 
L 242.458054 123.837298 
L 242.86438 125.59037 
L 243.270707 123.221972 
L 243.677033 122.003807 
L 244.083359 124.871577 
L 244.489685 123.316463 
L 244.896011 122.693558 
L 245.302337 125.892786 
L 245.708663 124.643605 
L 246.114989 122.553711 
L 246.521315 124.545107 
L 246.927641 123.836522 
L 247.333967 124.340725 
L 247.740294 125.631906 
L 248.14662 122.527418 
L 248.552946 122.756706 
L 248.959272 124.95165 
L 249.365598 121.120177 
L 250.17825 123.824178 
L 250.584576 124.637937 
L 250.990902 119.484179 
L 251.397228 123.582464 
L 251.803554 128.883163 
L 252.209881 123.265652 
L 252.616207 123.395721 
L 253.022533 124.896895 
L 253.835185 123.309984 
L 254.241511 123.381109 
L 254.647837 118.25134 
L 255.054163 120.439299 
L 255.460489 121.04744 
L 256.273141 125.24738 
L 256.679468 121.740243 
L 257.49212 124.699023 
L 257.898446 125.564429 
L 258.304772 125.684577 
L 258.711098 123.711523 
L 259.117424 129.113848 
L 259.930076 123.9685 
L 260.336402 123.054407 
L 260.742728 123.594478 
L 261.149054 123.208865 
L 261.555381 124.141968 
L 261.961707 126.939301 
L 262.368033 126.429222 
L 263.180685 123.925576 
L 263.587011 127.417306 
L 263.993337 129.226777 
L 264.399663 124.762405 
L 265.212315 121.881113 
L 265.618641 122.97304 
L 266.024968 122.282486 
L 266.431294 124.427501 
L 266.83762 125.577049 
L 267.650272 123.917029 
L 268.056598 128.506402 
L 268.462924 122.368331 
L 268.86925 122.087082 
L 269.275576 123.134326 
L 269.681902 122.629269 
L 270.088228 120.701535 
L 270.900881 125.111778 
L 271.307207 123.916194 
L 271.713533 121.701151 
L 272.119859 122.808774 
L 272.526185 121.983283 
L 272.932511 122.76605 
L 273.338837 126.570293 
L 273.745163 122.769157 
L 274.151489 125.830979 
L 274.557815 109.615785 
L 274.964142 106.006123 
L 275.776794 125.852991 
L 276.18312 126.591427 
L 276.589446 125.054502 
L 276.995772 124.39621 
L 277.402098 124.657052 
L 277.808424 122.259274 
L 278.21475 110.817507 
L 278.621076 118.191549 
L 279.027402 122.123176 
L 279.433729 124.627913 
L 279.840055 123.505678 
L 280.246381 123.506394 
L 280.652707 124.027905 
L 281.059033 121.692587 
L 281.465359 123.203502 
L 281.871685 110.726057 
L 282.278011 119.694782 
L 282.684337 124.840101 
L 283.090663 124.155012 
L 283.496989 124.199892 
L 283.903316 127.979986 
L 284.309642 125.516673 
L 284.715968 124.345656 
L 285.52862 122.915609 
L 285.934946 124.041684 
L 286.341272 120.746282 
L 286.747598 122.485217 
L 287.153924 124.884007 
L 287.56025 104.645094 
L 287.966576 95.930709 
L 288.372902 98.380964 
L 289.185555 119.61185 
L 289.591881 115.317448 
L 290.404533 123.073749 
L 290.810859 124.36652 
L 291.217185 124.562733 
L 291.623511 122.722135 
L 292.029837 124.050246 
L 292.436163 132.083365 
L 292.842489 137.637753 
L 293.248816 133.341741 
L 293.655142 132.258158 
L 294.467794 131.830763 
L 294.87412 126.525566 
L 295.280446 124.687403 
L 295.686772 124.100982 
L 296.093098 131.423094 
L 296.499424 125.604554 
L 296.90575 123.621526 
L 297.312076 122.791705 
L 297.718403 125.221851 
L 298.124729 124.720415 
L 298.531055 124.934494 
L 298.937381 124.994914 
L 299.343707 123.634271 
L 299.750033 129.902304 
L 300.156359 120.808964 
L 300.562685 118.299279 
L 300.969011 122.638412 
L 301.375337 125.365165 
L 302.18799 125.275829 
L 302.594316 124.932248 
L 303.406968 123.575727 
L 303.813294 124.164238 
L 304.21962 127.490917 
L 304.625946 125.786824 
L 305.032272 125.584861 
L 305.438598 123.529283 
L 305.844924 134.579124 
L 306.25125 127.985762 
L 306.657577 124.331851 
L 307.063903 123.99541 
L 307.470229 121.601522 
L 307.876555 128.39849 
L 308.282881 123.112582 
L 308.689207 121.883273 
L 309.095533 124.934466 
L 309.501859 120.211349 
L 309.908185 119.413541 
L 310.314511 123.882361 
L 310.720837 123.724483 
L 311.127163 126.716791 
L 311.53349 126.652243 
L 311.939816 122.849873 
L 312.346142 126.103425 
L 312.752468 124.136831 
L 313.56512 123.511815 
L 313.971446 122.389622 
L 314.377772 120.617368 
L 314.784098 127.786581 
L 315.190424 131.56277 
L 315.59675 127.632909 
L 316.409403 123.307498 
L 316.815729 122.698035 
L 317.222055 120.588227 
L 317.628381 123.582083 
L 318.441033 121.662936 
L 319.253685 121.088967 
L 319.660011 121.619845 
L 320.066337 120.465997 
L 320.472664 121.613393 
L 320.87899 120.726038 
L 321.285316 122.128686 
L 321.691642 118.333809 
L 322.097968 120.746616 
L 322.504294 120.693939 
L 322.91062 120.894937 
L 323.316946 119.646747 
L 323.723272 123.613958 
L 324.129598 124.429609 
L 324.535924 123.767324 
L 324.942251 120.697696 
L 325.348577 121.070098 
L 325.754903 125.709127 
L 326.161229 122.525541 
L 326.567555 121.858887 
L 326.973881 129.144878 
L 327.380207 121.963562 
L 327.786533 124.713259 
L 328.192859 123.951356 
L 329.005511 119.742322 
L 329.411838 122.653005 
L 329.818164 120.612559 
L 330.22449 122.589131 
L 330.630816 121.897915 
L 331.037142 120.617934 
L 331.443468 122.749807 
L 331.849794 123.03194 
L 332.25612 119.482793 
L 332.662446 121.009481 
L 333.068772 123.428695 
L 333.475098 122.020609 
L 333.881425 123.051446 
L 334.287751 121.934058 
L 334.694077 121.904462 
L 335.100403 122.127406 
L 335.506729 122.68952 
L 335.913055 119.842551 
L 336.319381 124.060924 
L 336.725707 122.766046 
L 337.132033 122.573422 
L 337.538359 120.316221 
L 337.944685 126.208393 
L 338.351011 123.262332 
L 338.757338 123.970103 
L 339.163664 129.274798 
L 339.56999 122.950077 
L 339.976316 126.731509 
L 340.382642 127.949289 
L 340.788968 122.833495 
L 341.195294 123.431103 
L 341.60162 121.564299 
L 342.007946 123.362808 
L 342.414272 123.214401 
L 343.226925 121.890012 
L 343.633251 126.239479 
L 344.039577 119.121975 
L 344.445903 121.625129 
L 344.852229 121.496008 
L 345.258555 121.891979 
L 345.664881 121.558697 
L 346.071207 120.878069 
L 346.883859 121.256666 
L 347.290185 120.430036 
L 347.696512 121.245256 
L 348.102838 119.647833 
L 348.509164 119.713364 
L 349.321816 122.491426 
L 349.728142 124.658714 
L 350.134468 120.016527 
L 350.540794 120.016249 
L 350.94712 120.784571 
L 351.353446 122.092771 
L 351.759772 121.184498 
L 352.166099 121.89372 
L 353.791403 121.432636 
L 354.197729 123.704604 
L 354.604055 122.252937 
L 355.010381 122.481784 
L 355.416707 120.71668 
L 355.823033 123.182051 
L 356.229359 120.847754 
L 356.635686 125.443241 
L 357.042012 122.609373 
L 357.448338 122.984736 
L 357.854664 121.53494 
L 358.26099 121.057542 
L 358.667316 119.161266 
L 359.073642 120.913841 
L 359.479968 121.897758 
L 359.886294 118.29493 
L 360.29262 121.430649 
L 360.698946 122.233076 
L 361.105272 120.783715 
L 361.511599 123.965102 
L 361.917925 122.580128 
L 362.324251 123.292072 
L 362.730577 121.345724 
L 363.136903 122.575056 
L 363.543229 125.294819 
L 363.949555 126.168153 
L 364.355881 124.307523 
L 364.762207 124.970835 
L 365.168533 125.928322 
L 365.981186 122.988528 
L 366.387512 122.996995 
L 366.793838 123.586426 
L 367.200164 120.560009 
L 367.60649 124.013722 
L 368.012816 124.289141 
L 368.419142 126.258148 
L 368.825468 125.556852 
L 369.231794 123.973021 
L 369.63812 124.766673 
L 370.044446 120.87249 
L 370.450773 124.032799 
L 370.857099 124.312886 
L 371.263425 125.618402 
L 371.669751 124.462573 
L 372.076077 123.898261 
L 372.482403 125.023364 
L 372.888729 125.482209 
L 373.295055 122.605209 
L 373.701381 123.914325 
L 374.107707 125.749913 
L 374.514033 122.981335 
L 374.92036 122.326569 
L 375.326686 122.650173 
L 375.733012 123.304299 
L 376.139338 122.512753 
L 376.545664 122.938058 
L 376.95199 124.040249 
L 377.358316 123.756479 
L 377.764642 122.847746 
L 378.170968 124.1367 
L 378.98362 130.581409 
L 379.389947 123.087558 
L 379.796273 122.839369 
L 380.202599 127.82115 
L 380.608925 127.602625 
L 381.015251 124.743663 
L 381.827903 122.52808 
L 382.234229 122.096652 
L 382.640555 122.667549 
L 383.046881 121.975198 
L 383.453207 123.951471 
L 383.859534 124.085969 
L 384.26586 123.566204 
L 385.078512 124.306598 
L 385.484838 125.065681 
L 385.891164 122.023079 
L 386.29749 124.409631 
L 386.703816 124.025583 
L 387.110142 123.88134 
L 387.516468 123.96927 
L 387.922794 124.679224 
L 388.32912 124.750033 
L 388.735447 125.059182 
L 389.141773 123.897159 
L 389.548099 124.384601 
L 389.954425 123.546581 
L 390.360751 123.089773 
L 390.767077 124.86319 
L 391.173403 123.568775 
L 391.579729 123.393913 
L 391.986055 124.296985 
L 392.798707 123.303914 
L 393.205034 122.013439 
L 393.61136 125.223532 
L 394.017686 121.811959 
L 394.424012 120.099067 
L 394.830338 122.337244 
L 395.236664 121.266195 
L 395.64299 115.756323 
L 396.049316 114.138556 
L 396.455642 123.241305 
L 396.861968 122.035286 
L 397.268294 124.797792 
L 397.674621 122.848781 
L 398.080947 123.885501 
L 398.487273 125.341266 
L 398.487273 125.341266 
" style="fill:none;stroke:#1f77b4;stroke-linecap:square;stroke-width:1.5;"/>
   </g>
   <g id="line2d_17">
    <path clip-path="url(#ped12dbab46)" d="M 73.832727 295.190134 
L 74.239053 295.453794 
L 74.645379 295.253302 
L 75.458032 295.321232 
L 75.864358 294.77739 
L 76.270684 295.422758 
L 76.67701 295.418106 
L 77.083336 293.950004 
L 77.489662 295.328171 
L 77.895988 292.355886 
L 78.302314 295.332854 
L 79.114966 295.315784 
L 79.521293 295.201635 
L 79.927619 294.06251 
L 80.333945 294.797014 
L 80.740271 295.065727 
L 81.552923 293.671564 
L 81.959249 295.233709 
L 82.365575 295.112048 
L 83.178227 295.214159 
L 83.584553 295.084935 
L 83.99088 294.814531 
L 84.397206 294.701919 
L 84.803532 295.264365 
L 85.209858 295.326092 
L 86.02251 294.99301 
L 86.428836 294.719387 
L 86.835162 295.198178 
L 87.241488 295.162395 
L 87.647814 292.55617 
L 88.05414 295.218929 
L 88.460466 292.950636 
L 88.866793 292.77363 
L 89.273119 295.280823 
L 89.679445 294.284051 
L 90.085771 294.946044 
L 90.492097 293.826024 
L 90.898423 294.679114 
L 91.304749 293.729366 
L 91.711075 294.597367 
L 92.117401 293.107684 
L 92.523727 293.892027 
L 92.930053 293.073831 
L 93.33638 294.646718 
L 93.742706 295.440206 
L 94.149032 294.782933 
L 94.555358 295.361168 
L 94.961684 292.104566 
L 95.774336 293.401083 
L 96.180662 293.03269 
L 96.586988 295.432678 
L 96.993314 295.43728 
L 97.39964 294.89004 
L 97.805967 295.332341 
L 98.212293 292.797782 
L 98.618619 295.351237 
L 99.837597 295.371051 
L 100.243923 294.605327 
L 100.650249 294.821388 
L 101.056575 295.396142 
L 101.462901 295.076991 
L 101.869227 295.314693 
L 102.275554 295.14487 
L 102.68188 295.125321 
L 103.088206 295.434039 
L 103.494532 295.082445 
L 103.900858 294.307279 
L 104.307184 295.26834 
L 104.71351 295.072537 
L 105.119836 294.57057 
L 105.526162 295.157437 
L 105.932488 293.941819 
L 106.338814 294.542126 
L 106.745141 295.405478 
L 107.151467 295.182704 
L 107.557793 295.341988 
L 108.776771 294.745673 
L 109.183097 294.868292 
L 109.589423 295.319978 
L 110.402075 295.422735 
L 110.808401 293.605312 
L 111.214728 292.988248 
L 111.621054 294.163017 
L 112.02738 294.805411 
L 112.433706 295.0844 
L 112.840032 295.221387 
L 113.246358 294.807203 
L 113.652684 294.890451 
L 114.05901 295.403189 
L 114.871662 295.421232 
L 115.277988 292.877422 
L 115.684314 294.419909 
L 116.090641 294.929409 
L 116.496967 294.885938 
L 116.903293 294.71803 
L 117.309619 295.274012 
L 118.122271 295.43047 
L 118.528597 295.299733 
L 118.934923 295.336905 
L 119.341249 291.191366 
L 119.747575 292.762501 
L 120.153901 293.263523 
L 120.560228 295.026346 
L 120.966554 295.160223 
L 121.37288 294.809519 
L 121.779206 294.622689 
L 122.185532 295.424773 
L 122.591858 294.948474 
L 122.998184 293.935499 
L 123.40451 294.203779 
L 123.810836 295.054342 
L 124.217162 294.544804 
L 124.623488 293.161093 
L 125.029815 294.908506 
L 125.436141 295.276813 
L 125.842467 294.694315 
L 126.248793 293.607476 
L 126.655119 295.345346 
L 127.061445 295.203957 
L 127.467771 293.893697 
L 127.874097 294.317593 
L 128.280423 295.227678 
L 128.686749 294.642493 
L 129.093075 295.001158 
L 129.499402 293.576753 
L 129.905728 295.004273 
L 130.312054 295.21501 
L 131.531032 295.147457 
L 131.937358 295.056225 
L 132.343684 294.096325 
L 132.75001 295.040957 
L 133.156336 295.415542 
L 134.375315 295.282846 
L 134.781641 295.386755 
L 135.187967 294.95382 
L 135.594293 295.358576 
L 136.000619 293.82507 
L 136.406945 293.878119 
L 136.813271 295.10246 
L 137.219597 291.841237 
L 137.625923 295.151264 
L 138.032249 295.227142 
L 138.438575 295.002422 
L 139.251228 295.155619 
L 139.657554 290.616428 
L 140.06388 295.321858 
L 140.470206 295.161498 
L 140.876532 294.466721 
L 141.282858 294.333006 
L 141.689184 292.890599 
L 142.09551 294.414972 
L 142.501836 295.276216 
L 143.314489 295.032577 
L 143.720815 294.241697 
L 144.127141 294.988714 
L 144.533467 293.189055 
L 144.939793 295.145707 
L 145.346119 294.949508 
L 145.752445 294.888944 
L 146.158771 293.682688 
L 146.565097 295.203356 
L 146.971423 294.656336 
L 147.377749 295.233978 
L 147.784076 295.304739 
L 148.190402 295.184284 
L 148.596728 294.620734 
L 149.003054 294.464549 
L 149.40938 294.648519 
L 149.815706 295.454259 
L 151.034684 295.274629 
L 151.44101 294.859789 
L 151.847336 295.302881 
L 152.253663 294.923368 
L 153.066315 295.451115 
L 153.472641 293.807522 
L 153.878967 295.393144 
L 154.285293 294.52071 
L 154.691619 295.20707 
L 155.097945 290.948429 
L 155.504271 295.171044 
L 156.316923 295.451974 
L 156.72325 295.142565 
L 157.129576 295.431051 
L 157.535902 295.41143 
L 157.942228 295.083053 
L 158.348554 295.023054 
L 158.75488 295.285432 
L 159.161206 294.416843 
L 159.567532 295.431669 
L 159.973858 294.810346 
L 160.380184 294.616758 
L 160.78651 295.254768 
L 161.192837 295.346761 
L 161.599163 294.304355 
L 162.005489 291.633766 
L 162.411815 294.664224 
L 162.818141 295.10818 
L 163.630793 290.197777 
L 164.037119 294.990159 
L 164.849771 294.552592 
L 165.256097 291.957053 
L 165.662423 292.33483 
L 166.06875 295.427665 
L 166.475076 295.31516 
L 166.881402 294.428327 
L 167.287728 295.240067 
L 167.694054 295.10396 
L 168.10038 293.420134 
L 168.506706 292.298761 
L 168.913032 294.855373 
L 169.319358 295.208119 
L 169.725684 293.130708 
L 170.13201 295.023146 
L 170.538337 291.919795 
L 171.350989 294.698104 
L 171.757315 295.09816 
L 172.163641 292.498751 
L 172.569967 295.25872 
L 172.976293 292.978946 
L 173.382619 295.361215 
L 173.788945 294.2178 
L 174.195271 294.618912 
L 174.601597 294.429362 
L 175.007924 294.769529 
L 175.41425 295.276816 
L 175.820576 295.33693 
L 176.226902 294.902251 
L 176.633228 295.2025 
L 177.039554 294.766057 
L 178.258532 294.939753 
L 178.664858 294.911138 
L 179.071184 294.765189 
L 179.477511 295.031193 
L 179.883837 294.889451 
L 180.290163 294.923755 
L 180.696489 294.35559 
L 181.102815 295.319618 
L 181.509141 294.971477 
L 181.915467 288.316423 
L 182.321793 293.860534 
L 182.728119 295.219821 
L 183.134445 294.437653 
L 183.540771 292.322319 
L 183.947098 294.809972 
L 184.353424 294.300866 
L 184.75975 294.708714 
L 185.166076 295.339259 
L 185.572402 295.073963 
L 185.978728 295.321233 
L 186.385054 295.072204 
L 186.79138 294.123881 
L 187.197706 294.761307 
L 187.604032 295.06934 
L 188.010358 294.606495 
L 188.416684 294.87984 
L 188.823011 295.374199 
L 189.229337 295.160781 
L 189.635663 295.324353 
L 190.041989 295.002452 
L 190.448315 294.984425 
L 190.854641 295.166605 
L 191.667293 294.937913 
L 192.073619 295.022385 
L 192.479945 292.702316 
L 192.886271 294.257169 
L 193.292598 295.22357 
L 193.698924 293.696885 
L 194.10525 294.768891 
L 194.511576 295.041874 
L 194.917902 294.532444 
L 195.324228 295.347096 
L 195.730554 294.660918 
L 196.13688 295.313115 
L 196.543206 294.876124 
L 197.762185 295.297986 
L 198.168511 294.679462 
L 198.574837 295.448926 
L 198.981163 294.76698 
L 199.387489 294.967731 
L 199.793815 294.526478 
L 200.200141 294.683542 
L 200.606467 294.669476 
L 201.012793 294.802217 
L 201.419119 295.319306 
L 201.825445 294.791357 
L 202.231772 295.184428 
L 202.638098 294.548921 
L 203.044424 294.405488 
L 203.45075 294.634551 
L 203.857076 295.105239 
L 204.263402 294.873885 
L 204.669728 295.234569 
L 205.076054 293.937019 
L 205.48238 293.547629 
L 205.888706 295.41167 
L 206.295032 295.426661 
L 206.701359 294.829652 
L 207.107685 294.749471 
L 207.514011 295.18753 
L 207.920337 295.088785 
L 208.326663 294.866935 
L 208.732989 295.39309 
L 209.139315 295.159081 
L 209.545641 293.445264 
L 209.951967 295.339795 
L 210.358293 295.3383 
L 211.170946 295.124681 
L 211.577272 294.993347 
L 211.983598 294.400898 
L 212.389924 294.15195 
L 212.79625 294.750742 
L 213.608902 295.216155 
L 214.82788 295.219643 
L 215.234206 294.551267 
L 215.640532 294.252828 
L 216.046859 295.306581 
L 216.453185 294.716178 
L 216.859511 295.417102 
L 217.265837 295.405739 
L 217.672163 294.222774 
L 218.078489 295.360371 
L 218.484815 295.001068 
L 218.891141 295.287419 
L 219.297467 295.27668 
L 219.703793 294.396125 
L 220.110119 294.73125 
L 220.516446 295.376865 
L 221.329098 295.254326 
L 221.735424 295.409593 
L 222.14175 294.496495 
L 222.548076 295.410719 
L 222.954402 294.084562 
L 223.360728 295.114748 
L 223.767054 294.708912 
L 224.17338 295.370418 
L 224.579706 295.248087 
L 224.986033 294.89228 
L 225.392359 292.787035 
L 225.798685 294.286745 
L 226.205011 294.895578 
L 226.611337 294.277537 
L 227.017663 295.488 
L 227.423989 294.079738 
L 227.830315 291.035494 
L 228.236641 291.652311 
L 228.642967 294.876099 
L 229.049293 295.173717 
L 229.45562 292.767226 
L 229.861946 294.44382 
L 230.268272 291.93711 
L 230.674598 294.656682 
L 231.48725 295.145646 
L 231.893576 294.004512 
L 232.299902 295.359909 
L 232.706228 295.069835 
L 233.112554 295.441906 
L 233.51888 295.212193 
L 234.737859 295.473353 
L 235.144185 295.044032 
L 235.550511 295.418085 
L 235.956837 293.324038 
L 236.363163 295.019488 
L 237.175815 295.121267 
L 237.582141 295.359776 
L 237.988467 294.975713 
L 238.394793 292.926173 
L 238.80112 295.191271 
L 239.207446 291.199074 
L 239.613772 295.428096 
L 240.020098 294.688248 
L 240.426424 295.416726 
L 240.83275 295.439853 
L 241.239076 294.11421 
L 241.645402 293.508955 
L 242.051728 294.798955 
L 242.458054 294.445864 
L 242.86438 293.353258 
L 243.270707 295.443674 
L 243.677033 294.99929 
L 244.083359 295.12023 
L 244.489685 292.669329 
L 244.896011 293.258223 
L 245.302337 294.941144 
L 245.708663 295.16274 
L 246.114989 295.0702 
L 246.521315 295.42438 
L 246.927641 294.603783 
L 247.333967 292.457045 
L 247.740294 293.814094 
L 248.552946 295.109456 
L 248.959272 294.077446 
L 249.365598 294.837292 
L 249.771924 291.267618 
L 250.17825 295.19948 
L 250.584576 291.196301 
L 250.990902 294.10937 
L 251.397228 295.097259 
L 251.803554 295.38093 
L 252.209881 295.001473 
L 252.616207 293.076955 
L 253.022533 295.052963 
L 253.428859 295.273195 
L 253.835185 293.515185 
L 254.241511 294.879619 
L 254.647837 294.89935 
L 255.054163 294.699484 
L 255.460489 293.937149 
L 255.866815 294.759208 
L 256.273141 294.802837 
L 256.679468 295.237317 
L 257.085794 295.44359 
L 257.49212 295.184635 
L 257.898446 295.354041 
L 258.304772 295.187199 
L 258.711098 292.84629 
L 259.117424 295.451768 
L 259.930076 294.70876 
L 260.336402 295.291502 
L 260.742728 293.782921 
L 261.149054 295.36215 
L 261.555381 295.355498 
L 261.961707 293.257667 
L 262.368033 294.570554 
L 262.774359 293.66547 
L 263.180685 295.337226 
L 263.587011 295.201958 
L 263.993337 295.408967 
L 264.399663 294.613492 
L 264.805989 294.74877 
L 265.212315 295.367581 
L 265.618641 295.422916 
L 266.024968 294.884195 
L 266.431294 293.891949 
L 266.83762 295.116622 
L 267.243946 294.394102 
L 267.650272 293.003558 
L 268.056598 295.139921 
L 268.462924 294.287771 
L 268.86925 295.401173 
L 269.275576 293.844766 
L 269.681902 295.195875 
L 270.088228 295.437486 
L 270.494555 294.823613 
L 270.900881 293.344999 
L 271.307207 294.693924 
L 271.713533 295.389306 
L 272.119859 294.999303 
L 272.526185 294.068311 
L 272.932511 294.984615 
L 273.338837 293.933687 
L 273.745163 295.450572 
L 274.557815 294.267792 
L 274.964142 295.367225 
L 275.370468 293.198739 
L 275.776794 295.330653 
L 276.18312 295.397038 
L 276.995772 290.927785 
L 277.402098 295.122575 
L 277.808424 290.819007 
L 278.21475 295.468647 
L 278.621076 294.465917 
L 279.027402 294.889158 
L 279.433729 293.855145 
L 279.840055 294.538107 
L 280.246381 293.028565 
L 280.652707 294.952499 
L 281.059033 295.369927 
L 281.465359 295.166373 
L 281.871685 295.240362 
L 282.278011 294.086093 
L 282.684337 293.494906 
L 283.090663 293.70061 
L 283.496989 295.334432 
L 283.903316 294.719946 
L 284.309642 295.417742 
L 284.715968 294.563707 
L 285.122294 295.342951 
L 285.52862 294.472721 
L 285.934946 295.163344 
L 286.341272 295.375456 
L 286.747598 295.348393 
L 287.153924 294.990547 
L 287.56025 295.425318 
L 287.966576 295.004956 
L 288.372902 295.426068 
L 288.779229 295.152715 
L 289.591881 295.421394 
L 289.998207 295.446771 
L 290.404533 295.064735 
L 290.810859 295.208988 
L 291.217185 295.208048 
L 291.623511 294.833798 
L 292.029837 293.99951 
L 292.842489 293.029504 
L 293.248816 295.204259 
L 293.655142 295.422 
L 294.467794 294.561751 
L 294.87412 294.565811 
L 295.280446 295.299222 
L 295.686772 294.572268 
L 296.499424 295.082478 
L 296.90575 294.550302 
L 297.312076 294.702676 
L 297.718403 294.659881 
L 298.124729 294.475741 
L 298.937381 295.409795 
L 299.343707 294.108335 
L 299.750033 295.451314 
L 300.562685 295.333518 
L 300.969011 295.458838 
L 301.375337 295.261096 
L 301.781663 295.374197 
L 302.18799 295.358411 
L 302.594316 294.211373 
L 303.000642 295.265316 
L 303.813294 295.21019 
L 304.21962 294.284043 
L 304.625946 294.912496 
L 305.032272 293.664254 
L 305.438598 295.083271 
L 305.844924 294.725153 
L 306.25125 295.1545 
L 306.657577 295.22133 
L 307.063903 295.048083 
L 307.470229 295.225205 
L 307.876555 295.023156 
L 309.095533 295.159082 
L 309.501859 294.618858 
L 310.314511 293.268468 
L 310.720837 294.345997 
L 311.127163 294.93714 
L 311.53349 293.773222 
L 311.939816 294.720808 
L 312.346142 295.366252 
L 313.158794 295.277272 
L 313.971446 294.352165 
L 314.377772 295.357808 
L 314.784098 293.950346 
L 315.59675 295.211923 
L 316.003077 295.080965 
L 316.409403 295.447778 
L 316.815729 295.041218 
L 317.222055 295.176821 
L 317.628381 293.334465 
L 318.034707 293.605035 
L 318.441033 295.233994 
L 318.847359 293.774169 
L 319.253685 295.432532 
L 319.660011 293.716803 
L 320.066337 294.679617 
L 320.472664 295.312321 
L 320.87899 295.34304 
L 321.285316 295.114629 
L 321.691642 295.09851 
L 322.097968 294.491023 
L 322.504294 295.287222 
L 322.91062 294.242914 
L 323.316946 295.311708 
L 323.723272 294.199502 
L 324.129598 294.811045 
L 324.535924 294.393825 
L 324.942251 295.311617 
L 325.348577 294.764829 
L 325.754903 295.469432 
L 326.161229 293.450011 
L 326.567555 295.367525 
L 326.973881 294.930994 
L 327.380207 295.437357 
L 327.786533 293.145184 
L 328.192859 294.601093 
L 328.599185 294.778636 
L 329.005511 294.765788 
L 329.818164 295.009726 
L 330.22449 293.789934 
L 330.630816 294.177836 
L 331.037142 295.467424 
L 331.443468 295.150569 
L 332.25612 295.129766 
L 332.662446 294.360511 
L 333.068772 294.312913 
L 333.475098 294.559065 
L 333.881425 294.001509 
L 334.287751 294.225896 
L 334.694077 295.221953 
L 335.100403 295.405053 
L 335.506729 295.13479 
L 336.725707 295.407714 
L 337.132033 294.794351 
L 337.538359 295.319708 
L 337.944685 295.411755 
L 338.351011 293.982065 
L 338.757338 295.466271 
L 339.163664 293.458672 
L 339.56999 295.094977 
L 339.976316 293.469459 
L 340.382642 294.094665 
L 340.788968 294.962284 
L 341.195294 294.213561 
L 341.60162 295.355123 
L 342.007946 295.422205 
L 343.633251 294.741264 
L 344.039577 294.793173 
L 344.445903 295.213725 
L 344.852229 295.288649 
L 345.258555 295.104922 
L 346.071207 295.437155 
L 346.477533 295.110329 
L 346.883859 295.285912 
L 347.290185 294.900547 
L 347.696512 293.90714 
L 348.102838 294.451846 
L 348.509164 295.266909 
L 348.91549 294.694022 
L 349.321816 294.763801 
L 349.728142 293.909287 
L 350.134468 295.296985 
L 350.540794 295.307623 
L 350.94712 295.43514 
L 351.353446 295.234491 
L 352.166099 295.064615 
L 352.978751 295.442834 
L 353.791403 294.975023 
L 354.197729 292.773733 
L 355.010381 294.78844 
L 355.416707 294.440041 
L 355.823033 294.316119 
L 356.229359 293.631616 
L 356.635686 294.150924 
L 357.042012 294.855687 
L 357.448338 294.680773 
L 357.854664 293.656102 
L 358.26099 290.669119 
L 358.667316 294.294708 
L 359.073642 294.916489 
L 359.886294 294.234116 
L 360.29262 294.554504 
L 360.698946 295.183103 
L 361.105272 294.312652 
L 361.511599 293.112591 
L 361.917925 295.413991 
L 362.324251 292.858036 
L 362.730577 292.601566 
L 363.136903 291.714084 
L 363.543229 292.767534 
L 363.949555 289.620171 
L 364.355881 294.800984 
L 364.762207 294.927701 
L 365.168533 295.325014 
L 365.574859 293.651211 
L 365.981186 295.007064 
L 366.387512 293.44646 
L 366.793838 293.438618 
L 367.200164 295.477835 
L 367.60649 294.87341 
L 368.012816 295.48123 
L 368.419142 295.267678 
L 369.231794 295.241543 
L 369.63812 290.026862 
L 370.044446 295.388818 
L 370.450773 293.276347 
L 370.857099 293.686819 
L 371.263425 295.157295 
L 371.669751 295.323129 
L 372.076077 295.097149 
L 372.482403 295.097148 
L 372.888729 295.406974 
L 373.295055 293.277089 
L 373.701381 294.986159 
L 374.514033 295.207674 
L 375.733012 295.339997 
L 376.139338 294.924345 
L 376.545664 294.757359 
L 376.95199 293.788074 
L 377.358316 295.475755 
L 377.764642 295.032719 
L 378.170968 295.420705 
L 378.577294 295.381203 
L 378.98362 295.152276 
L 379.389947 295.473805 
L 379.796273 295.283884 
L 380.202599 295.403534 
L 381.015251 293.161273 
L 382.234229 294.659637 
L 382.640555 294.393446 
L 383.046881 295.295575 
L 383.453207 295.37849 
L 383.859534 294.997112 
L 384.26586 295.411151 
L 384.672186 295.026298 
L 385.078512 295.443191 
L 385.484838 295.134105 
L 385.891164 294.414429 
L 386.29749 291.726654 
L 386.703816 293.352674 
L 387.110142 294.255268 
L 387.516468 293.565367 
L 388.32912 295.476172 
L 388.735447 294.803349 
L 389.141773 295.306573 
L 389.954425 294.806285 
L 390.360751 295.366547 
L 390.767077 295.441855 
L 391.173403 294.514336 
L 391.579729 295.157325 
L 391.986055 295.415632 
L 392.392381 294.843589 
L 392.798707 295.409823 
L 393.205034 294.252637 
L 393.61136 295.104575 
L 394.017686 293.934961 
L 394.424012 295.112862 
L 394.830338 294.892285 
L 395.236664 294.987743 
L 395.64299 295.267832 
L 396.049316 295.082161 
L 396.455642 293.707785 
L 397.268294 295.051598 
L 397.674621 295.344573 
L 398.080947 294.693351 
L 398.487273 294.983468 
L 398.487273 294.983468 
" style="fill:none;stroke:#ff7f0e;stroke-linecap:square;stroke-width:1.5;"/>
   </g>
   <g id="patch_3">
    <path d="M 57.6 307.584 
L 57.6 41.472 
" style="fill:none;stroke:#000000;stroke-linecap:square;stroke-linejoin:miter;stroke-width:0.8;"/>
   </g>
   <g id="patch_4">
    <path d="M 414.72 307.584 
L 414.72 41.472 
" style="fill:none;stroke:#000000;stroke-linecap:square;stroke-linejoin:miter;stroke-width:0.8;"/>
   </g>
   <g id="patch_5">
    <path d="M 57.6 307.584 
L 414.72 307.584 
" style="fill:none;stroke:#000000;stroke-linecap:square;stroke-linejoin:miter;stroke-width:0.8;"/>
   </g>
   <g id="patch_6">
    <path d="M 57.6 41.472 
L 414.72 41.472 
" style="fill:none;stroke:#000000;stroke-linecap:square;stroke-linejoin:miter;stroke-width:0.8;"/>
   </g>
  </g>
 </g>
 <defs>
  <clipPath id="ped12dbab46">
   <rect height="266.112" width="357.12" x="57.6" y="41.472"/>
  </clipPath>
 </defs>
</svg>
