<?xml version="1.0" encoding="utf-8" standalone="no"?>
<!DOCTYPE svg PUBLIC "-//W3C//DTD SVG 1.1//EN"
  "http://www.w3.org/Graphics/SVG/1.1/DTD/svg11.dtd">
<!-- Created with matplotlib (https://matplotlib.org/) -->
<svg height="345.6pt" version="1.1" viewBox="0 0 460.8 345.6" width="460.8pt" xmlns="http://www.w3.org/2000/svg" xmlns:xlink="http://www.w3.org/1999/xlink">
 <defs>
  <style type="text/css">
*{stroke-linecap:butt;stroke-linejoin:round;}
  </style>
 </defs>
 <g id="figure_1">
  <g id="patch_1">
   <path d="M 0 345.6 
L 460.8 345.6 
L 460.8 0 
L 0 0 
z
" style="fill:#ffffff;"/>
  </g>
  <g id="axes_1">
   <g id="patch_2">
    <path d="M 57.6 307.584 
L 414.72 307.584 
L 414.72 41.472 
L 57.6 41.472 
z
" style="fill:#ffffff;"/>
   </g>
   <g id="matplotlib.axis_1">
    <g id="xtick_1">
     <g id="line2d_1">
      <defs>
       <path d="M 0 0 
L 0 3.5 
" id="mc7cd0c1cea" style="stroke:#000000;stroke-width:0.8;"/>
      </defs>
      <g>
       <use style="stroke:#000000;stroke-width:0.8;" x="73.832727" xlink:href="#mc7cd0c1cea" y="307.584"/>
      </g>
     </g>
     <g id="text_1">
      <!-- 0 -->
      <defs>
       <path d="M 31.78125 66.40625 
Q 24.171875 66.40625 20.328125 58.90625 
Q 16.5 51.421875 16.5 36.375 
Q 16.5 21.390625 20.328125 13.890625 
Q 24.171875 6.390625 31.78125 6.390625 
Q 39.453125 6.390625 43.28125 13.890625 
Q 47.125 21.390625 47.125 36.375 
Q 47.125 51.421875 43.28125 58.90625 
Q 39.453125 66.40625 31.78125 66.40625 
z
M 31.78125 74.21875 
Q 44.046875 74.21875 50.515625 64.515625 
Q 56.984375 54.828125 56.984375 36.375 
Q 56.984375 17.96875 50.515625 8.265625 
Q 44.046875 -1.421875 31.78125 -1.421875 
Q 19.53125 -1.421875 13.0625 8.265625 
Q 6.59375 17.96875 6.59375 36.375 
Q 6.59375 54.828125 13.0625 64.515625 
Q 19.53125 74.21875 31.78125 74.21875 
z
" id="DejaVuSans-48"/>
      </defs>
      <g transform="translate(70.651477 322.182437)scale(0.1 -0.1)">
       <use xlink:href="#DejaVuSans-48"/>
      </g>
     </g>
    </g>
    <g id="xtick_2">
     <g id="line2d_2">
      <g>
       <use style="stroke:#000000;stroke-width:0.8;" x="114.465336" xlink:href="#mc7cd0c1cea" y="307.584"/>
      </g>
     </g>
     <g id="text_2">
      <!-- 100 -->
      <defs>
       <path d="M 12.40625 8.296875 
L 28.515625 8.296875 
L 28.515625 63.921875 
L 10.984375 60.40625 
L 10.984375 69.390625 
L 28.421875 72.90625 
L 38.28125 72.90625 
L 38.28125 8.296875 
L 54.390625 8.296875 
L 54.390625 0 
L 12.40625 0 
z
" id="DejaVuSans-49"/>
      </defs>
      <g transform="translate(104.921586 322.182437)scale(0.1 -0.1)">
       <use xlink:href="#DejaVuSans-49"/>
       <use x="63.623047" xlink:href="#DejaVuSans-48"/>
       <use x="127.246094" xlink:href="#DejaVuSans-48"/>
      </g>
     </g>
    </g>
    <g id="xtick_3">
     <g id="line2d_3">
      <g>
       <use style="stroke:#000000;stroke-width:0.8;" x="155.097945" xlink:href="#mc7cd0c1cea" y="307.584"/>
      </g>
     </g>
     <g id="text_3">
      <!-- 200 -->
      <defs>
       <path d="M 19.1875 8.296875 
L 53.609375 8.296875 
L 53.609375 0 
L 7.328125 0 
L 7.328125 8.296875 
Q 12.9375 14.109375 22.625 23.890625 
Q 32.328125 33.6875 34.8125 36.53125 
Q 39.546875 41.84375 41.421875 45.53125 
Q 43.3125 49.21875 43.3125 52.78125 
Q 43.3125 58.59375 39.234375 62.25 
Q 35.15625 65.921875 28.609375 65.921875 
Q 23.96875 65.921875 18.8125 64.3125 
Q 13.671875 62.703125 7.8125 59.421875 
L 7.8125 69.390625 
Q 13.765625 71.78125 18.9375 73 
Q 24.125 74.21875 28.421875 74.21875 
Q 39.75 74.21875 46.484375 68.546875 
Q 53.21875 62.890625 53.21875 53.421875 
Q 53.21875 48.921875 51.53125 44.890625 
Q 49.859375 40.875 45.40625 35.40625 
Q 44.1875 33.984375 37.640625 27.21875 
Q 31.109375 20.453125 19.1875 8.296875 
z
" id="DejaVuSans-50"/>
      </defs>
      <g transform="translate(145.554195 322.182437)scale(0.1 -0.1)">
       <use xlink:href="#DejaVuSans-50"/>
       <use x="63.623047" xlink:href="#DejaVuSans-48"/>
       <use x="127.246094" xlink:href="#DejaVuSans-48"/>
      </g>
     </g>
    </g>
    <g id="xtick_4">
     <g id="line2d_4">
      <g>
       <use style="stroke:#000000;stroke-width:0.8;" x="195.730554" xlink:href="#mc7cd0c1cea" y="307.584"/>
      </g>
     </g>
     <g id="text_4">
      <!-- 300 -->
      <defs>
       <path d="M 40.578125 39.3125 
Q 47.65625 37.796875 51.625 33 
Q 55.609375 28.21875 55.609375 21.1875 
Q 55.609375 10.40625 48.1875 4.484375 
Q 40.765625 -1.421875 27.09375 -1.421875 
Q 22.515625 -1.421875 17.65625 -0.515625 
Q 12.796875 0.390625 7.625 2.203125 
L 7.625 11.71875 
Q 11.71875 9.328125 16.59375 8.109375 
Q 21.484375 6.890625 26.8125 6.890625 
Q 36.078125 6.890625 40.9375 10.546875 
Q 45.796875 14.203125 45.796875 21.1875 
Q 45.796875 27.640625 41.28125 31.265625 
Q 36.765625 34.90625 28.71875 34.90625 
L 20.21875 34.90625 
L 20.21875 43.015625 
L 29.109375 43.015625 
Q 36.375 43.015625 40.234375 45.921875 
Q 44.09375 48.828125 44.09375 54.296875 
Q 44.09375 59.90625 40.109375 62.90625 
Q 36.140625 65.921875 28.71875 65.921875 
Q 24.65625 65.921875 20.015625 65.03125 
Q 15.375 64.15625 9.8125 62.3125 
L 9.8125 71.09375 
Q 15.4375 72.65625 20.34375 73.4375 
Q 25.25 74.21875 29.59375 74.21875 
Q 40.828125 74.21875 47.359375 69.109375 
Q 53.90625 64.015625 53.90625 55.328125 
Q 53.90625 49.265625 50.4375 45.09375 
Q 46.96875 40.921875 40.578125 39.3125 
z
" id="DejaVuSans-51"/>
      </defs>
      <g transform="translate(186.186804 322.182437)scale(0.1 -0.1)">
       <use xlink:href="#DejaVuSans-51"/>
       <use x="63.623047" xlink:href="#DejaVuSans-48"/>
       <use x="127.246094" xlink:href="#DejaVuSans-48"/>
      </g>
     </g>
    </g>
    <g id="xtick_5">
     <g id="line2d_5">
      <g>
       <use style="stroke:#000000;stroke-width:0.8;" x="236.363163" xlink:href="#mc7cd0c1cea" y="307.584"/>
      </g>
     </g>
     <g id="text_5">
      <!-- 400 -->
      <defs>
       <path d="M 37.796875 64.3125 
L 12.890625 25.390625 
L 37.796875 25.390625 
z
M 35.203125 72.90625 
L 47.609375 72.90625 
L 47.609375 25.390625 
L 58.015625 25.390625 
L 58.015625 17.1875 
L 47.609375 17.1875 
L 47.609375 0 
L 37.796875 0 
L 37.796875 17.1875 
L 4.890625 17.1875 
L 4.890625 26.703125 
z
" id="DejaVuSans-52"/>
      </defs>
      <g transform="translate(226.819413 322.182437)scale(0.1 -0.1)">
       <use xlink:href="#DejaVuSans-52"/>
       <use x="63.623047" xlink:href="#DejaVuSans-48"/>
       <use x="127.246094" xlink:href="#DejaVuSans-48"/>
      </g>
     </g>
    </g>
    <g id="xtick_6">
     <g id="line2d_6">
      <g>
       <use style="stroke:#000000;stroke-width:0.8;" x="276.995772" xlink:href="#mc7cd0c1cea" y="307.584"/>
      </g>
     </g>
     <g id="text_6">
      <!-- 500 -->
      <defs>
       <path d="M 10.796875 72.90625 
L 49.515625 72.90625 
L 49.515625 64.59375 
L 19.828125 64.59375 
L 19.828125 46.734375 
Q 21.96875 47.46875 24.109375 47.828125 
Q 26.265625 48.1875 28.421875 48.1875 
Q 40.625 48.1875 47.75 41.5 
Q 54.890625 34.8125 54.890625 23.390625 
Q 54.890625 11.625 47.5625 5.09375 
Q 40.234375 -1.421875 26.90625 -1.421875 
Q 22.3125 -1.421875 17.546875 -0.640625 
Q 12.796875 0.140625 7.71875 1.703125 
L 7.71875 11.625 
Q 12.109375 9.234375 16.796875 8.0625 
Q 21.484375 6.890625 26.703125 6.890625 
Q 35.15625 6.890625 40.078125 11.328125 
Q 45.015625 15.765625 45.015625 23.390625 
Q 45.015625 31 40.078125 35.4375 
Q 35.15625 39.890625 26.703125 39.890625 
Q 22.75 39.890625 18.8125 39.015625 
Q 14.890625 38.140625 10.796875 36.28125 
z
" id="DejaVuSans-53"/>
      </defs>
      <g transform="translate(267.452022 322.182437)scale(0.1 -0.1)">
       <use xlink:href="#DejaVuSans-53"/>
       <use x="63.623047" xlink:href="#DejaVuSans-48"/>
       <use x="127.246094" xlink:href="#DejaVuSans-48"/>
      </g>
     </g>
    </g>
    <g id="xtick_7">
     <g id="line2d_7">
      <g>
       <use style="stroke:#000000;stroke-width:0.8;" x="317.628381" xlink:href="#mc7cd0c1cea" y="307.584"/>
      </g>
     </g>
     <g id="text_7">
      <!-- 600 -->
      <defs>
       <path d="M 33.015625 40.375 
Q 26.375 40.375 22.484375 35.828125 
Q 18.609375 31.296875 18.609375 23.390625 
Q 18.609375 15.53125 22.484375 10.953125 
Q 26.375 6.390625 33.015625 6.390625 
Q 39.65625 6.390625 43.53125 10.953125 
Q 47.40625 15.53125 47.40625 23.390625 
Q 47.40625 31.296875 43.53125 35.828125 
Q 39.65625 40.375 33.015625 40.375 
z
M 52.59375 71.296875 
L 52.59375 62.3125 
Q 48.875 64.0625 45.09375 64.984375 
Q 41.3125 65.921875 37.59375 65.921875 
Q 27.828125 65.921875 22.671875 59.328125 
Q 17.53125 52.734375 16.796875 39.40625 
Q 19.671875 43.65625 24.015625 45.921875 
Q 28.375 48.1875 33.59375 48.1875 
Q 44.578125 48.1875 50.953125 41.515625 
Q 57.328125 34.859375 57.328125 23.390625 
Q 57.328125 12.15625 50.6875 5.359375 
Q 44.046875 -1.421875 33.015625 -1.421875 
Q 20.359375 -1.421875 13.671875 8.265625 
Q 6.984375 17.96875 6.984375 36.375 
Q 6.984375 53.65625 15.1875 63.9375 
Q 23.390625 74.21875 37.203125 74.21875 
Q 40.921875 74.21875 44.703125 73.484375 
Q 48.484375 72.75 52.59375 71.296875 
z
" id="DejaVuSans-54"/>
      </defs>
      <g transform="translate(308.084631 322.182437)scale(0.1 -0.1)">
       <use xlink:href="#DejaVuSans-54"/>
       <use x="63.623047" xlink:href="#DejaVuSans-48"/>
       <use x="127.246094" xlink:href="#DejaVuSans-48"/>
      </g>
     </g>
    </g>
    <g id="xtick_8">
     <g id="line2d_8">
      <g>
       <use style="stroke:#000000;stroke-width:0.8;" x="358.26099" xlink:href="#mc7cd0c1cea" y="307.584"/>
      </g>
     </g>
     <g id="text_8">
      <!-- 700 -->
      <defs>
       <path d="M 8.203125 72.90625 
L 55.078125 72.90625 
L 55.078125 68.703125 
L 28.609375 0 
L 18.3125 0 
L 43.21875 64.59375 
L 8.203125 64.59375 
z
" id="DejaVuSans-55"/>
      </defs>
      <g transform="translate(348.71724 322.182437)scale(0.1 -0.1)">
       <use xlink:href="#DejaVuSans-55"/>
       <use x="63.623047" xlink:href="#DejaVuSans-48"/>
       <use x="127.246094" xlink:href="#DejaVuSans-48"/>
      </g>
     </g>
    </g>
    <g id="xtick_9">
     <g id="line2d_9">
      <g>
       <use style="stroke:#000000;stroke-width:0.8;" x="398.893599" xlink:href="#mc7cd0c1cea" y="307.584"/>
      </g>
     </g>
     <g id="text_9">
      <!-- 800 -->
      <defs>
       <path d="M 31.78125 34.625 
Q 24.75 34.625 20.71875 30.859375 
Q 16.703125 27.09375 16.703125 20.515625 
Q 16.703125 13.921875 20.71875 10.15625 
Q 24.75 6.390625 31.78125 6.390625 
Q 38.8125 6.390625 42.859375 10.171875 
Q 46.921875 13.96875 46.921875 20.515625 
Q 46.921875 27.09375 42.890625 30.859375 
Q 38.875 34.625 31.78125 34.625 
z
M 21.921875 38.8125 
Q 15.578125 40.375 12.03125 44.71875 
Q 8.5 49.078125 8.5 55.328125 
Q 8.5 64.0625 14.71875 69.140625 
Q 20.953125 74.21875 31.78125 74.21875 
Q 42.671875 74.21875 48.875 69.140625 
Q 55.078125 64.0625 55.078125 55.328125 
Q 55.078125 49.078125 51.53125 44.71875 
Q 48 40.375 41.703125 38.8125 
Q 48.828125 37.15625 52.796875 32.3125 
Q 56.78125 27.484375 56.78125 20.515625 
Q 56.78125 9.90625 50.3125 4.234375 
Q 43.84375 -1.421875 31.78125 -1.421875 
Q 19.734375 -1.421875 13.25 4.234375 
Q 6.78125 9.90625 6.78125 20.515625 
Q 6.78125 27.484375 10.78125 32.3125 
Q 14.796875 37.15625 21.921875 38.8125 
z
M 18.3125 54.390625 
Q 18.3125 48.734375 21.84375 45.5625 
Q 25.390625 42.390625 31.78125 42.390625 
Q 38.140625 42.390625 41.71875 45.5625 
Q 45.3125 48.734375 45.3125 54.390625 
Q 45.3125 60.0625 41.71875 63.234375 
Q 38.140625 66.40625 31.78125 66.40625 
Q 25.390625 66.40625 21.84375 63.234375 
Q 18.3125 60.0625 18.3125 54.390625 
z
" id="DejaVuSans-56"/>
      </defs>
      <g transform="translate(389.349849 322.182437)scale(0.1 -0.1)">
       <use xlink:href="#DejaVuSans-56"/>
       <use x="63.623047" xlink:href="#DejaVuSans-48"/>
       <use x="127.246094" xlink:href="#DejaVuSans-48"/>
      </g>
     </g>
    </g>
   </g>
   <g id="matplotlib.axis_2">
    <g id="ytick_1">
     <g id="line2d_10">
      <defs>
       <path d="M 0 0 
L -3.5 0 
" id="m8d48403e6c" style="stroke:#000000;stroke-width:0.8;"/>
      </defs>
      <g>
       <use style="stroke:#000000;stroke-width:0.8;" x="57.6" xlink:href="#m8d48403e6c" y="295.497579"/>
      </g>
     </g>
     <g id="text_10">
      <!-- 0.000 -->
      <defs>
       <path d="M 10.6875 12.40625 
L 21 12.40625 
L 21 0 
L 10.6875 0 
z
" id="DejaVuSans-46"/>
      </defs>
      <g transform="translate(21.971875 299.296797)scale(0.1 -0.1)">
       <use xlink:href="#DejaVuSans-48"/>
       <use x="63.623047" xlink:href="#DejaVuSans-46"/>
       <use x="95.410156" xlink:href="#DejaVuSans-48"/>
       <use x="159.033203" xlink:href="#DejaVuSans-48"/>
       <use x="222.65625" xlink:href="#DejaVuSans-48"/>
      </g>
     </g>
    </g>
    <g id="ytick_2">
     <g id="line2d_11">
      <g>
       <use style="stroke:#000000;stroke-width:0.8;" x="57.6" xlink:href="#m8d48403e6c" y="252.419812"/>
      </g>
     </g>
     <g id="text_11">
      <!-- 0.001 -->
      <g transform="translate(21.971875 256.219031)scale(0.1 -0.1)">
       <use xlink:href="#DejaVuSans-48"/>
       <use x="63.623047" xlink:href="#DejaVuSans-46"/>
       <use x="95.410156" xlink:href="#DejaVuSans-48"/>
       <use x="159.033203" xlink:href="#DejaVuSans-48"/>
       <use x="222.65625" xlink:href="#DejaVuSans-49"/>
      </g>
     </g>
    </g>
    <g id="ytick_3">
     <g id="line2d_12">
      <g>
       <use style="stroke:#000000;stroke-width:0.8;" x="57.6" xlink:href="#m8d48403e6c" y="209.342046"/>
      </g>
     </g>
     <g id="text_12">
      <!-- 0.002 -->
      <g transform="translate(21.971875 213.141264)scale(0.1 -0.1)">
       <use xlink:href="#DejaVuSans-48"/>
       <use x="63.623047" xlink:href="#DejaVuSans-46"/>
       <use x="95.410156" xlink:href="#DejaVuSans-48"/>
       <use x="159.033203" xlink:href="#DejaVuSans-48"/>
       <use x="222.65625" xlink:href="#DejaVuSans-50"/>
      </g>
     </g>
    </g>
    <g id="ytick_4">
     <g id="line2d_13">
      <g>
       <use style="stroke:#000000;stroke-width:0.8;" x="57.6" xlink:href="#m8d48403e6c" y="166.264279"/>
      </g>
     </g>
     <g id="text_13">
      <!-- 0.003 -->
      <g transform="translate(21.971875 170.063498)scale(0.1 -0.1)">
       <use xlink:href="#DejaVuSans-48"/>
       <use x="63.623047" xlink:href="#DejaVuSans-46"/>
       <use x="95.410156" xlink:href="#DejaVuSans-48"/>
       <use x="159.033203" xlink:href="#DejaVuSans-48"/>
       <use x="222.65625" xlink:href="#DejaVuSans-51"/>
      </g>
     </g>
    </g>
    <g id="ytick_5">
     <g id="line2d_14">
      <g>
       <use style="stroke:#000000;stroke-width:0.8;" x="57.6" xlink:href="#m8d48403e6c" y="123.186513"/>
      </g>
     </g>
     <g id="text_14">
      <!-- 0.004 -->
      <g transform="translate(21.971875 126.985731)scale(0.1 -0.1)">
       <use xlink:href="#DejaVuSans-48"/>
       <use x="63.623047" xlink:href="#DejaVuSans-46"/>
       <use x="95.410156" xlink:href="#DejaVuSans-48"/>
       <use x="159.033203" xlink:href="#DejaVuSans-48"/>
       <use x="222.65625" xlink:href="#DejaVuSans-52"/>
      </g>
     </g>
    </g>
    <g id="ytick_6">
     <g id="line2d_15">
      <g>
       <use style="stroke:#000000;stroke-width:0.8;" x="57.6" xlink:href="#m8d48403e6c" y="80.108746"/>
      </g>
     </g>
     <g id="text_15">
      <!-- 0.005 -->
      <g transform="translate(21.971875 83.907965)scale(0.1 -0.1)">
       <use xlink:href="#DejaVuSans-48"/>
       <use x="63.623047" xlink:href="#DejaVuSans-46"/>
       <use x="95.410156" xlink:href="#DejaVuSans-48"/>
       <use x="159.033203" xlink:href="#DejaVuSans-48"/>
       <use x="222.65625" xlink:href="#DejaVuSans-53"/>
      </g>
     </g>
    </g>
   </g>
   <g id="line2d_16">
    <path clip-path="url(#pa7b7c0a75a)" d="M 73.832727 137.409742 
L 74.239053 112.207467 
L 74.645379 100.467995 
L 75.458032 94.71713 
L 75.864358 93.337864 
L 76.270684 93.404646 
L 76.67701 92.946383 
L 77.083336 93.581101 
L 77.489662 93.186547 
L 77.895988 95.379388 
L 78.70864 96.716605 
L 79.521293 99.709857 
L 79.927619 105.508012 
L 80.333945 99.825024 
L 80.740271 104.414433 
L 81.146597 106.424309 
L 81.552923 104.752857 
L 81.959249 110.224381 
L 82.365575 110.157479 
L 82.771901 112.049665 
L 83.178227 113.308833 
L 83.584553 113.921389 
L 83.99088 112.578316 
L 84.397206 108.184357 
L 84.803532 110.721953 
L 85.209858 116.126242 
L 85.616184 119.691043 
L 86.02251 120.903279 
L 86.428836 121.258638 
L 86.835162 121.204103 
L 87.241488 122.967873 
L 87.647814 76.792616 
L 88.05414 107.15977 
L 88.460466 120.677932 
L 88.866793 124.46544 
L 89.273119 126.944712 
L 89.679445 127.475364 
L 90.085771 128.554921 
L 90.492097 129.067524 
L 90.898423 130.655737 
L 91.304749 154.931389 
L 91.711075 118.039454 
L 92.117401 127.487737 
L 92.523727 96.774919 
L 92.930053 115.477876 
L 93.33638 126.421131 
L 94.149032 135.198789 
L 94.555358 118.98457 
L 94.961684 131.990458 
L 95.36801 130.973679 
L 96.180662 135.655431 
L 96.993314 136.720444 
L 97.39964 136.227648 
L 98.212293 134.677725 
L 98.618619 135.353285 
L 99.024945 132.458076 
L 99.431271 130.524098 
L 99.837597 136.008229 
L 100.243923 135.366771 
L 100.650249 135.03778 
L 101.056575 132.81164 
L 101.869227 140.642453 
L 102.275554 138.007071 
L 102.68188 139.399233 
L 103.088206 138.354053 
L 103.494532 136.466057 
L 103.900858 135.65882 
L 104.307184 136.456785 
L 104.71351 136.915751 
L 105.119836 127.971206 
L 105.526162 137.45483 
L 105.932488 136.179925 
L 106.338814 135.789476 
L 106.745141 136.900437 
L 107.151467 135.434891 
L 107.557793 138.05765 
L 107.964119 134.339431 
L 108.370445 138.910196 
L 109.183097 144.717077 
L 109.589423 138.914922 
L 109.995749 137.207247 
L 110.402075 136.096236 
L 110.808401 134.622956 
L 111.214728 135.225845 
L 111.621054 136.896328 
L 112.02738 135.58267 
L 112.433706 138.468744 
L 112.840032 136.183401 
L 113.652684 133.884633 
L 114.05901 138.234247 
L 114.465336 137.529336 
L 114.871662 134.6577 
L 115.277988 134.394236 
L 115.684314 119.610141 
L 116.496967 129.611327 
L 116.903293 107.333502 
L 117.715945 127.324238 
L 118.122271 111.366375 
L 118.528597 123.664035 
L 118.934923 109.082749 
L 119.341249 117.633661 
L 119.747575 139.328059 
L 120.153901 137.950683 
L 120.560228 138.888937 
L 120.966554 119.828533 
L 121.37288 110.801306 
L 121.779206 125.26629 
L 122.185532 134.601744 
L 122.591858 94.162265 
L 122.998184 93.087407 
L 123.40451 115.94962 
L 123.810836 122.389008 
L 124.217162 130.73796 
L 125.029815 124.576265 
L 125.436141 129.167295 
L 125.842467 130.327821 
L 126.248793 130.648943 
L 126.655119 132.602622 
L 127.061445 118.622708 
L 127.467771 112.984881 
L 127.874097 109.134987 
L 128.686749 131.910663 
L 129.093075 132.42579 
L 129.499402 131.736605 
L 129.905728 120.802739 
L 130.312054 128.655126 
L 130.71838 128.10121 
L 131.124706 128.575224 
L 131.531032 133.264068 
L 131.937358 124.893146 
L 132.343684 127.501226 
L 132.75001 130.834966 
L 133.156336 136.737699 
L 133.562662 127.172239 
L 133.968989 131.043351 
L 134.375315 129.604909 
L 134.781641 131.791533 
L 135.187967 131.985882 
L 135.594293 130.337329 
L 136.000619 130.12075 
L 136.406945 121.931231 
L 136.813271 127.767508 
L 137.219597 128.577944 
L 137.625923 110.477695 
L 138.032249 123.099918 
L 138.438575 117.009875 
L 138.844902 127.372502 
L 139.657554 125.309469 
L 140.06388 112.223257 
L 140.470206 121.17531 
L 141.282858 129.451964 
L 141.689184 129.236262 
L 142.09551 130.282369 
L 142.501836 123.735771 
L 142.908162 125.730211 
L 143.314489 140.147238 
L 144.127141 123.447388 
L 144.533467 127.79299 
L 144.939793 123.65183 
L 145.346119 129.288737 
L 145.752445 124.962 
L 146.158771 126.096639 
L 146.565097 138.464185 
L 146.971423 143.583099 
L 147.377749 140.59575 
L 147.784076 150.023366 
L 148.190402 150.918679 
L 148.596728 140.823888 
L 149.003054 147.623908 
L 149.815706 135.734306 
L 150.222032 120.907905 
L 150.628358 116.131429 
L 151.034684 124.394747 
L 151.44101 124.04109 
L 151.847336 118.341337 
L 152.253663 120.025517 
L 152.659989 119.517705 
L 153.066315 123.171019 
L 153.472641 121.170428 
L 153.878967 124.036879 
L 154.285293 121.34651 
L 154.691619 119.609032 
L 155.097945 103.232197 
L 155.504271 102.241085 
L 155.910597 106.635189 
L 156.316923 115.038134 
L 156.72325 117.16118 
L 157.129576 121.262649 
L 157.535902 120.510264 
L 157.942228 123.822163 
L 158.348554 111.611968 
L 158.75488 116.989163 
L 159.161206 110.78524 
L 159.567532 112.5255 
L 159.973858 115.956461 
L 160.380184 116.51382 
L 160.78651 122.072066 
L 161.192837 112.04742 
L 161.599163 115.202185 
L 162.005489 120.548842 
L 162.411815 120.776102 
L 162.818141 126.662401 
L 163.224467 92.755749 
L 163.630793 94.973337 
L 164.037119 109.968923 
L 164.443445 109.932248 
L 164.849771 115.759447 
L 165.256097 115.46926 
L 165.662423 120.199167 
L 166.06875 114.681149 
L 166.475076 117.744307 
L 166.881402 116.57073 
L 167.287728 116.294376 
L 167.694054 110.856956 
L 168.10038 116.205052 
L 168.506706 111.248109 
L 168.913032 115.258817 
L 169.319358 108.377145 
L 169.725684 110.963713 
L 170.538337 108.969925 
L 170.944663 108.991816 
L 171.350989 107.603131 
L 171.757315 108.096236 
L 172.163641 112.970828 
L 172.569967 107.269508 
L 172.976293 103.672648 
L 173.382619 103.74181 
L 173.788945 110.264277 
L 174.195271 114.376363 
L 174.601597 106.81337 
L 175.007924 103.573477 
L 175.41425 103.31442 
L 176.226902 107.199954 
L 177.039554 100.715792 
L 177.44588 99.986643 
L 177.852206 105.970815 
L 178.258532 105.524371 
L 178.664858 111.147677 
L 179.071184 107.534298 
L 179.477511 105.698979 
L 179.883837 106.990036 
L 180.290163 100.995847 
L 180.696489 105.194596 
L 181.102815 102.400467 
L 181.509141 104.04004 
L 181.915467 113.109355 
L 182.321793 103.568117 
L 182.728119 104.118704 
L 183.134445 109.346603 
L 183.540771 107.941564 
L 183.947098 105.874189 
L 184.353424 106.408398 
L 184.75975 105.112622 
L 185.166076 109.307961 
L 185.978728 105.85243 
L 186.385054 103.436497 
L 186.79138 95.917174 
L 187.197706 104.596969 
L 187.604032 107.407624 
L 188.010358 102.79604 
L 188.416684 96.616492 
L 188.823011 104.097017 
L 189.229337 101.52689 
L 190.041989 98.681222 
L 190.448315 106.558998 
L 190.854641 106.565748 
L 191.260967 102.212201 
L 191.667293 108.479187 
L 192.073619 105.277928 
L 192.479945 107.330901 
L 192.886271 98.394973 
L 193.698924 107.796018 
L 194.10525 108.292561 
L 194.511576 106.270806 
L 194.917902 108.535526 
L 195.324228 108.398559 
L 195.730554 109.002038 
L 196.13688 108.811862 
L 196.543206 104.357432 
L 197.355858 106.009245 
L 197.762185 98.886338 
L 198.168511 108.34578 
L 198.574837 107.561544 
L 198.981163 99.700632 
L 199.387489 104.486464 
L 199.793815 106.744173 
L 200.200141 106.443783 
L 201.012793 97.33685 
L 201.825445 106.112577 
L 202.231772 105.953071 
L 202.638098 102.194764 
L 203.044424 100.303909 
L 203.45075 107.031297 
L 203.857076 107.613913 
L 204.263402 105.747193 
L 204.669728 105.755423 
L 205.076054 100.090937 
L 205.48238 102.903071 
L 205.888706 108.533697 
L 206.295032 109.481132 
L 206.701359 110.88888 
L 207.107685 111.760612 
L 207.514011 103.954796 
L 207.920337 115.547742 
L 208.326663 105.628431 
L 208.732989 108.477805 
L 209.139315 119.358752 
L 209.545641 105.828633 
L 209.951967 120.469764 
L 210.358293 102.85817 
L 210.764619 103.429572 
L 211.170946 99.924025 
L 211.577272 95.073789 
L 211.983598 97.09804 
L 212.389924 105.926277 
L 212.79625 100.777787 
L 213.202576 102.646931 
L 213.608902 102.628164 
L 214.015228 126.43178 
L 214.421554 104.612273 
L 215.234206 121.286345 
L 215.640532 98.746706 
L 216.046859 94.343142 
L 216.453185 92.20663 
L 216.859511 93.764929 
L 217.265837 93.675694 
L 217.672163 92.319848 
L 218.078489 101.188965 
L 218.484815 96.608578 
L 218.891141 99.099051 
L 219.297467 100.553005 
L 219.703793 101.214345 
L 220.110119 95.750777 
L 220.516446 99.423496 
L 220.922772 97.598139 
L 221.329098 86.187698 
L 221.735424 92.246507 
L 222.14175 95.57942 
L 222.548076 91.598826 
L 222.954402 92.403671 
L 223.360728 98.116951 
L 223.767054 115.194702 
L 224.17338 97.828943 
L 224.579706 99.872328 
L 224.986033 95.149156 
L 225.392359 94.185144 
L 225.798685 95.948461 
L 226.205011 95.347632 
L 226.611337 98.56074 
L 227.017663 98.254867 
L 227.423989 98.994105 
L 227.830315 92.588483 
L 228.236641 93.693748 
L 228.642967 94.201218 
L 229.049293 92.8621 
L 229.45562 94.452676 
L 230.268272 96.033888 
L 230.674598 101.970883 
L 231.080924 95.095249 
L 231.48725 95.660103 
L 231.893576 100.522814 
L 232.299902 99.312059 
L 232.706228 96.096362 
L 233.112554 93.828154 
L 233.51888 94.244938 
L 233.925207 90.123505 
L 234.331533 88.603565 
L 234.737859 94.976141 
L 235.956837 84.732867 
L 236.363163 97.929554 
L 236.769489 94.683487 
L 237.175815 109.535834 
L 237.582141 95.478757 
L 238.394793 107.757812 
L 238.80112 88.551694 
L 239.207446 95.922377 
L 239.613772 125.842299 
L 240.020098 95.06746 
L 240.426424 93.077165 
L 240.83275 115.425105 
L 241.239076 89.688487 
L 241.645402 88.876384 
L 242.051728 92.197542 
L 242.458054 130.786053 
L 242.86438 78.611862 
L 243.677033 72.865595 
L 244.083359 72.944387 
L 244.896011 85.962206 
L 245.302337 89.084434 
L 245.708663 90.455673 
L 246.114989 79.791654 
L 246.521315 72.299473 
L 246.927641 76.097546 
L 247.333967 83.252951 
L 248.14662 91.721128 
L 248.959272 94.484371 
L 249.771924 91.899701 
L 250.17825 89.270816 
L 250.584576 82.708018 
L 250.990902 94.314925 
L 251.397228 86.378533 
L 251.803554 83.405129 
L 252.209881 93.440133 
L 252.616207 92.226714 
L 253.022533 88.510912 
L 253.428859 94.909779 
L 253.835185 91.990454 
L 254.241511 86.49863 
L 254.647837 83.437326 
L 255.054163 89.499934 
L 255.460489 83.702532 
L 255.866815 90.751199 
L 256.273141 94.732833 
L 256.679468 93.513851 
L 257.085794 93.938111 
L 257.898446 93.213829 
L 258.304772 106.90422 
L 258.711098 128.306323 
L 259.117424 133.989481 
L 259.52375 103.862094 
L 259.930076 92.981781 
L 260.336402 100.964898 
L 260.742728 102.175602 
L 261.149054 135.030203 
L 261.555381 129.538894 
L 261.961707 94.161645 
L 262.368033 89.179868 
L 263.180685 122.049308 
L 263.587011 91.252537 
L 263.993337 132.313226 
L 264.399663 134.708909 
L 264.805989 134.411393 
L 265.212315 106.961089 
L 265.618641 92.527844 
L 266.024968 88.058518 
L 266.431294 91.506569 
L 266.83762 88.03178 
L 267.243946 86.101782 
L 267.650272 80.566709 
L 268.056598 85.764341 
L 268.462924 127.175551 
L 268.86925 94.819 
L 269.275576 127.248569 
L 269.681902 118.461112 
L 270.088228 94.153123 
L 270.494555 90.5897 
L 270.900881 120.211603 
L 271.307207 93.791569 
L 271.713533 87.64037 
L 272.119859 86.846794 
L 272.526185 83.604601 
L 272.932511 83.573755 
L 273.338837 88.464527 
L 273.745163 82.430135 
L 274.557815 89.023321 
L 274.964142 97.620934 
L 275.370468 85.603914 
L 275.776794 87.482442 
L 276.18312 86.644539 
L 276.589446 92.850856 
L 276.995772 114.989628 
L 277.402098 88.276305 
L 277.808424 92.774593 
L 278.21475 99.969116 
L 278.621076 94.332935 
L 279.027402 98.474532 
L 279.433729 114.414632 
L 279.840055 95.060424 
L 280.246381 90.33605 
L 280.652707 104.56223 
L 281.059033 92.306294 
L 281.465359 87.439026 
L 281.871685 90.071583 
L 282.278011 91.430671 
L 282.684337 86.274596 
L 283.496989 83.425346 
L 283.903316 81.638848 
L 284.309642 85.244735 
L 284.715968 76.257591 
L 285.122294 83.853537 
L 285.52862 81.72746 
L 285.934946 76.335083 
L 286.341272 76.803036 
L 287.153924 88.430326 
L 287.56025 80.504032 
L 287.966576 80.874236 
L 288.372902 81.77853 
L 288.779229 80.755838 
L 289.185555 73.965329 
L 289.998207 92.931862 
L 290.404533 81.757228 
L 290.810859 117.209171 
L 291.217185 93.329198 
L 291.623511 88.009645 
L 292.029837 93.824895 
L 292.436163 94.662724 
L 292.842489 96.344938 
L 293.248816 87.138489 
L 293.655142 91.585681 
L 294.061468 90.758516 
L 294.467794 80.383891 
L 294.87412 82.341472 
L 295.280446 83.635711 
L 295.686772 78.356424 
L 296.093098 70.376676 
L 296.499424 79.021798 
L 296.90575 75.674919 
L 297.718403 88.207035 
L 298.124729 94.164595 
L 298.531055 81.354652 
L 298.937381 81.586916 
L 299.343707 83.021927 
L 299.750033 92.122795 
L 300.156359 82.910176 
L 300.562685 95.286107 
L 300.969011 79.889585 
L 301.375337 81.969353 
L 301.781663 79.818517 
L 302.18799 80.615238 
L 302.594316 80.761983 
L 303.000642 80.28811 
L 303.406968 78.644317 
L 303.813294 81.226316 
L 304.21962 80.639747 
L 304.625946 73.236987 
L 305.032272 72.519542 
L 305.844924 83.50698 
L 306.25125 72.882556 
L 306.657577 73.825588 
L 307.063903 81.738798 
L 307.470229 84.815188 
L 307.876555 80.554168 
L 308.282881 79.504824 
L 308.689207 80.726026 
L 309.095533 77.445098 
L 309.501859 77.936581 
L 309.908185 77.362356 
L 310.314511 73.278657 
L 310.720837 74.545601 
L 311.127163 76.38979 
L 311.53349 72.916992 
L 311.939816 76.79599 
L 312.346142 76.179937 
L 312.752468 76.651272 
L 313.158794 74.494411 
L 313.56512 73.68929 
L 313.971446 74.755862 
L 314.377772 72.072668 
L 314.784098 60.959628 
L 315.190424 58.148606 
L 315.59675 60.167251 
L 316.003077 61.210545 
L 316.409403 56.367736 
L 316.815729 53.568 
L 317.222055 72.742705 
L 317.628381 74.175994 
L 318.034707 78.297146 
L 318.441033 76.950554 
L 318.847359 77.179495 
L 319.253685 80.578634 
L 319.660011 82.796514 
L 320.066337 80.260906 
L 320.472664 82.956574 
L 320.87899 82.375408 
L 321.285316 82.956797 
L 321.691642 82.721124 
L 322.097968 80.713026 
L 322.504294 82.127681 
L 322.91062 85.155115 
L 323.316946 80.300988 
L 323.723272 81.72608 
L 324.129598 77.991108 
L 324.535924 84.961008 
L 324.942251 78.77943 
L 325.754903 84.164651 
L 326.567555 78.399182 
L 326.973881 76.808031 
L 327.380207 82.688103 
L 327.786533 81.174124 
L 328.192859 83.403174 
L 329.411838 74.377733 
L 329.818164 82.751962 
L 330.22449 79.768438 
L 330.630816 82.390461 
L 331.037142 80.819422 
L 331.443468 83.501067 
L 331.849794 82.655277 
L 332.662446 64.079615 
L 333.068772 65.073875 
L 333.475098 75.278099 
L 334.694077 60.381735 
L 335.100403 61.875298 
L 335.506729 67.116662 
L 335.913055 69.343926 
L 336.319381 70.681822 
L 336.725707 70.170607 
L 337.132033 68.829388 
L 337.538359 70.152331 
L 337.944685 78.099725 
L 338.351011 77.660867 
L 338.757338 72.080178 
L 339.163664 76.667346 
L 339.56999 83.17004 
L 339.976316 74.441459 
L 340.382642 76.724164 
L 340.788968 66.620293 
L 341.195294 68.454476 
L 341.60162 72.980916 
L 342.007946 73.914878 
L 342.414272 77.729905 
L 342.820598 80.220589 
L 343.226925 70.47121 
L 343.633251 66.868428 
L 344.039577 60.356259 
L 344.445903 74.401822 
L 344.852229 69.912311 
L 345.258555 72.396871 
L 345.664881 78.193082 
L 346.071207 80.513022 
L 346.883859 66.904628 
L 347.290185 61.493932 
L 348.509164 82.504106 
L 348.91549 81.925227 
L 349.321816 85.366504 
L 349.728142 67.814164 
L 350.134468 65.227355 
L 350.540794 68.738335 
L 350.94712 61.508689 
L 351.353446 60.515687 
L 351.759772 65.309206 
L 352.166099 66.034196 
L 352.572425 67.511432 
L 352.978751 67.201111 
L 354.197729 83.195293 
L 354.604055 82.03652 
L 355.010381 83.679853 
L 355.416707 83.821583 
L 355.823033 83.643707 
L 356.229359 66.732073 
L 356.635686 62.889029 
L 357.854664 77.561336 
L 358.26099 66.075703 
L 358.667316 71.040402 
L 359.073642 71.8332 
L 359.479968 73.566966 
L 359.886294 80.381482 
L 360.29262 82.392404 
L 360.698946 78.979682 
L 361.105272 83.809165 
L 361.511599 79.235292 
L 361.917925 76.36953 
L 362.324251 81.900308 
L 362.730577 83.498174 
L 363.136903 81.438718 
L 363.543229 84.037689 
L 363.949555 83.923525 
L 364.355881 75.197355 
L 364.762207 73.240957 
L 365.168533 80.378079 
L 365.574859 71.001034 
L 365.981186 73.857964 
L 366.387512 62.79619 
L 366.793838 61.010137 
L 367.200164 65.290669 
L 367.60649 68.268991 
L 368.012816 78.126077 
L 368.419142 76.992705 
L 368.825468 75.185 
L 369.231794 75.993849 
L 369.63812 71.599405 
L 370.450773 71.052114 
L 370.857099 74.208455 
L 371.263425 74.237506 
L 371.669751 66.766485 
L 372.076077 65.291708 
L 372.482403 72.909374 
L 372.888729 76.452959 
L 373.295055 72.970062 
L 373.701381 63.381706 
L 374.107707 67.835993 
L 374.514033 78.527649 
L 374.92036 67.130302 
L 375.326686 69.188557 
L 375.733012 73.689888 
L 376.139338 76.712068 
L 376.545664 72.213855 
L 376.95199 70.030196 
L 377.358316 74.481729 
L 377.764642 81.336892 
L 378.577294 77.934093 
L 378.98362 76.856682 
L 380.202599 80.838879 
L 380.608925 86.815419 
L 381.015251 86.825193 
L 381.421577 97.335862 
L 381.827903 79.58682 
L 382.234229 85.896933 
L 382.640555 82.2205 
L 383.046881 77.296637 
L 383.453207 80.353515 
L 383.859534 78.11511 
L 384.26586 84.887357 
L 384.672186 83.873766 
L 385.078512 77.788169 
L 385.484838 74.714555 
L 385.891164 94.945404 
L 386.29749 86.037491 
L 386.703816 72.442327 
L 387.110142 78.298931 
L 387.516468 78.715979 
L 387.922794 77.990082 
L 388.32912 88.8943 
L 388.735447 74.795814 
L 389.141773 77.28535 
L 389.548099 82.436408 
L 389.954425 72.882886 
L 390.360751 60.144786 
L 390.767077 77.150951 
L 391.173403 77.643294 
L 391.986055 69.932275 
L 392.392381 69.878968 
L 393.205034 79.349349 
L 394.017686 70.426776 
L 394.424012 77.397887 
L 395.236664 66.450044 
L 395.64299 67.503343 
L 396.049316 62.784304 
L 396.455642 74.536485 
L 396.861968 73.810846 
L 397.268294 67.609937 
L 397.674621 82.342139 
L 398.080947 81.63272 
L 398.487273 83.091329 
L 398.487273 83.091329 
" style="fill:none;stroke:#1f77b4;stroke-linecap:square;stroke-width:1.5;"/>
   </g>
   <g id="line2d_17">
    <path clip-path="url(#pa7b7c0a75a)" d="M 73.832727 294.470828 
L 74.239053 294.233444 
L 75.864358 294.352513 
L 76.270684 294.271804 
L 76.67701 294.951196 
L 77.083336 294.500164 
L 77.489662 293.440564 
L 77.895988 295.01229 
L 78.302314 294.601386 
L 78.70864 295.003602 
L 79.114966 294.981415 
L 79.521293 293.685016 
L 79.927619 294.810791 
L 80.333945 294.742144 
L 80.740271 294.490662 
L 81.146597 295.293619 
L 81.552923 294.149422 
L 81.959249 295.281692 
L 82.365575 295.144372 
L 83.178227 295.144582 
L 83.584553 295.388033 
L 83.99088 295.216586 
L 84.803532 295.346365 
L 85.616184 295.220165 
L 86.02251 295.416578 
L 86.428836 294.805057 
L 86.835162 293.987659 
L 87.241488 294.898803 
L 87.647814 293.832067 
L 88.05414 295.100788 
L 88.460466 293.781829 
L 88.866793 295.286601 
L 89.273119 293.774007 
L 89.679445 294.214703 
L 90.085771 295.389387 
L 90.492097 292.356658 
L 90.898423 295.136881 
L 91.304749 291.967261 
L 91.711075 294.553531 
L 92.117401 294.376169 
L 92.523727 295.168237 
L 92.930053 293.99744 
L 93.33638 294.824785 
L 93.742706 294.479388 
L 94.149032 293.33895 
L 94.555358 294.749786 
L 94.961684 294.05012 
L 95.36801 292.718243 
L 95.774336 293.596457 
L 96.180662 293.527455 
L 96.586988 294.948714 
L 96.993314 294.861002 
L 97.39964 295.146712 
L 97.805967 294.307373 
L 98.212293 295.053363 
L 98.618619 290.999828 
L 99.024945 294.755132 
L 99.431271 295.107902 
L 99.837597 294.967539 
L 100.243923 294.147494 
L 100.650249 295.05114 
L 101.056575 294.928241 
L 101.462901 294.066284 
L 101.869227 295.148929 
L 102.275554 295.258869 
L 102.68188 295.138892 
L 103.494532 295.449469 
L 103.900858 295.449736 
L 104.307184 295.021382 
L 105.119836 295.10338 
L 105.526162 295.257053 
L 107.557793 295.372006 
L 107.964119 295.177322 
L 108.370445 295.19043 
L 109.589423 295.481861 
L 109.995749 295.233224 
L 110.402075 294.459809 
L 110.808401 295.234509 
L 111.214728 295.224947 
L 112.02738 294.96883 
L 112.433706 293.503573 
L 112.840032 295.379418 
L 113.246358 294.288733 
L 113.652684 295.436554 
L 114.05901 295.060735 
L 114.465336 295.345989 
L 114.871662 294.893813 
L 115.684314 295.274242 
L 116.090641 294.592533 
L 116.496967 294.22496 
L 116.903293 294.962046 
L 117.309619 292.67886 
L 117.715945 294.719904 
L 118.528597 295.40649 
L 120.560228 295.432358 
L 120.966554 294.672326 
L 121.37288 294.239654 
L 121.779206 294.545954 
L 122.185532 295.206725 
L 122.591858 294.632639 
L 122.998184 294.66001 
L 123.40451 293.711043 
L 123.810836 294.756774 
L 124.217162 294.272252 
L 124.623488 295.197229 
L 125.436141 294.562144 
L 125.842467 295.428822 
L 126.248793 295.365414 
L 126.655119 295.427141 
L 127.467771 293.596085 
L 127.874097 295.407106 
L 128.280423 294.660389 
L 128.686749 292.605894 
L 129.905728 294.94887 
L 130.312054 293.498696 
L 130.71838 295.398406 
L 131.531032 295.428856 
L 131.937358 295.326619 
L 132.343684 295.105216 
L 132.75001 293.823023 
L 133.968989 293.43439 
L 134.375315 294.557601 
L 134.781641 295.031242 
L 135.187967 294.571037 
L 135.594293 295.072355 
L 136.000619 295.348119 
L 136.406945 295.090928 
L 136.813271 295.065161 
L 137.219597 295.412338 
L 137.625923 295.356826 
L 138.032249 295.045913 
L 138.438575 295.176815 
L 138.844902 294.437695 
L 139.251228 294.488314 
L 139.657554 295.296795 
L 140.06388 294.933345 
L 140.470206 294.996587 
L 140.876532 291.624839 
L 141.282858 295.387075 
L 141.689184 294.562376 
L 142.09551 295.195964 
L 142.501836 294.041865 
L 142.908162 293.895711 
L 143.720815 295.270697 
L 144.127141 293.74227 
L 144.533467 295.007459 
L 144.939793 294.294587 
L 145.346119 295.08699 
L 145.752445 294.577106 
L 146.158771 294.915683 
L 146.565097 293.898585 
L 146.971423 293.595854 
L 147.377749 294.496253 
L 147.784076 290.663414 
L 148.190402 295.123016 
L 148.596728 291.772502 
L 149.003054 295.249247 
L 149.40938 294.542187 
L 149.815706 294.722692 
L 150.222032 294.655608 
L 150.628358 294.740329 
L 151.034684 294.639009 
L 151.44101 293.713765 
L 151.847336 294.663988 
L 152.253663 293.12057 
L 152.659989 292.228691 
L 153.066315 291.971087 
L 153.472641 290.739639 
L 153.878967 294.492852 
L 154.285293 295.127003 
L 154.691619 294.207938 
L 155.097945 295.226675 
L 155.504271 294.649484 
L 155.910597 294.509851 
L 156.316923 295.371152 
L 156.72325 293.277254 
L 157.129576 295.117092 
L 157.535902 295.198261 
L 157.942228 295.042992 
L 158.348554 294.340548 
L 158.75488 294.541881 
L 159.161206 295.29218 
L 159.567532 293.414019 
L 159.973858 294.652335 
L 160.380184 294.090561 
L 160.78651 295.370605 
L 161.192837 295.164583 
L 161.599163 295.465269 
L 162.005489 295.417156 
L 162.411815 294.983866 
L 162.818141 295.092723 
L 163.224467 295.010426 
L 163.630793 292.721566 
L 164.849771 295.231425 
L 165.256097 294.632675 
L 165.662423 295.152218 
L 166.06875 295.231481 
L 166.475076 295.148881 
L 166.881402 295.283444 
L 167.287728 295.300811 
L 168.10038 294.849826 
L 168.506706 295.213032 
L 168.913032 294.872008 
L 169.319358 294.868789 
L 169.725684 295.22857 
L 170.13201 294.732254 
L 170.538337 295.425705 
L 171.350989 295.315701 
L 171.757315 293.806616 
L 172.163641 295.017963 
L 172.569967 294.980114 
L 172.976293 294.47647 
L 173.382619 295.389674 
L 173.788945 295.440274 
L 174.195271 295.227747 
L 175.007924 295.178102 
L 175.41425 295.089246 
L 175.820576 295.222306 
L 176.633228 295.247451 
L 177.039554 294.834201 
L 177.44588 295.36928 
L 178.258532 295.322348 
L 179.071184 295.340327 
L 179.477511 294.921406 
L 179.883837 294.898337 
L 180.290163 295.179312 
L 180.696489 295.181281 
L 181.102815 295.368358 
L 185.572402 295.248859 
L 186.385054 294.837432 
L 186.79138 294.673182 
L 187.197706 294.946088 
L 187.604032 294.961683 
L 188.010358 294.712924 
L 188.416684 294.82906 
L 189.229337 294.710756 
L 190.041989 294.038522 
L 190.448315 295.009141 
L 190.854641 294.803851 
L 191.260967 295.156943 
L 191.667293 294.922571 
L 192.886271 295.109822 
L 194.511576 295.084673 
L 195.324228 294.978056 
L 196.13688 295.296882 
L 196.949532 295.392088 
L 197.355858 295.134619 
L 197.762185 295.037972 
L 198.168511 295.355725 
L 198.574837 294.774978 
L 198.981163 295.414122 
L 199.793815 295.4385 
L 200.200141 294.48932 
L 200.606467 294.288141 
L 201.012793 295.308209 
L 201.825445 295.280567 
L 202.231772 295.166501 
L 202.638098 295.18618 
L 203.044424 293.422647 
L 203.45075 294.842939 
L 203.857076 294.80069 
L 204.263402 295.268987 
L 204.669728 295.269753 
L 205.076054 293.423137 
L 205.48238 295.046911 
L 205.888706 294.824997 
L 206.295032 295.36104 
L 206.701359 295.386549 
L 207.107685 294.901747 
L 207.514011 295.322908 
L 207.920337 294.564155 
L 208.732989 295.387281 
L 209.139315 290.0136 
L 209.545641 295.347517 
L 209.951967 294.912392 
L 210.358293 295.286027 
L 210.764619 294.615278 
L 211.170946 294.656386 
L 211.577272 294.173845 
L 211.983598 295.431733 
L 212.389924 294.959375 
L 212.79625 295.447989 
L 213.202576 295.217258 
L 213.608902 295.364356 
L 214.015228 294.949757 
L 214.421554 295.347492 
L 214.82788 294.684855 
L 215.234206 292.567789 
L 215.640532 292.601161 
L 216.046859 294.371286 
L 216.453185 294.387323 
L 216.859511 295.322505 
L 217.265837 295.274649 
L 217.672163 294.810569 
L 218.078489 294.833849 
L 218.484815 293.243786 
L 218.891141 294.206207 
L 219.297467 294.53991 
L 219.703793 295.092769 
L 220.110119 295.043484 
L 220.516446 295.284333 
L 220.922772 294.467466 
L 221.329098 295.326241 
L 221.735424 293.47648 
L 222.14175 294.849426 
L 222.548076 294.031319 
L 222.954402 293.561917 
L 223.360728 295.19864 
L 223.767054 293.938649 
L 224.17338 294.275464 
L 224.579706 295.408084 
L 224.986033 288.020871 
L 225.392359 295.112783 
L 225.798685 293.255824 
L 226.205011 294.447755 
L 226.611337 294.350996 
L 227.017663 295.348155 
L 227.423989 295.396743 
L 227.830315 294.976032 
L 228.236641 295.260421 
L 229.049293 295.444 
L 229.45562 295.415079 
L 229.861946 294.114626 
L 230.268272 293.798421 
L 230.674598 291.181252 
L 231.080924 294.891733 
L 231.48725 295.35568 
L 231.893576 295.302603 
L 232.299902 292.829852 
L 232.706228 294.835338 
L 233.112554 294.927257 
L 233.925207 293.829942 
L 234.331533 294.179265 
L 235.144185 293.941645 
L 235.550511 295.21057 
L 235.956837 292.940366 
L 236.363163 289.907581 
L 236.769489 294.440665 
L 237.582141 295.363547 
L 237.988467 295.042133 
L 238.394793 295.412155 
L 238.80112 293.392988 
L 239.207446 294.306977 
L 240.020098 294.260541 
L 240.426424 294.770293 
L 240.83275 292.095767 
L 241.239076 294.948657 
L 241.645402 293.98298 
L 242.051728 295.334727 
L 242.458054 295.399731 
L 242.86438 293.467377 
L 243.270707 294.800707 
L 243.677033 294.127203 
L 244.083359 294.675856 
L 244.896011 294.488643 
L 245.302337 292.310152 
L 245.708663 294.90365 
L 246.114989 295.397318 
L 246.521315 295.188944 
L 246.927641 295.330793 
L 247.333967 295.28696 
L 247.740294 294.569094 
L 248.14662 295.300149 
L 248.552946 295.227696 
L 248.959272 291.733179 
L 249.771924 292.397363 
L 250.17825 294.103312 
L 250.584576 295.049407 
L 250.990902 292.413252 
L 251.397228 295.367899 
L 251.803554 295.370958 
L 252.209881 295.167676 
L 252.616207 294.785441 
L 253.022533 295.278776 
L 253.428859 295.355498 
L 253.835185 293.872304 
L 254.241511 295.197757 
L 254.647837 294.314049 
L 255.054163 291.258646 
L 255.460489 295.102383 
L 255.866815 295.395083 
L 256.273141 294.41692 
L 257.085794 294.459707 
L 257.49212 294.005318 
L 257.898446 292.95468 
L 258.304772 294.006758 
L 258.711098 294.24745 
L 259.930076 294.584499 
L 260.742728 295.426815 
L 261.149054 295.188038 
L 261.555381 295.131242 
L 261.961707 295.374838 
L 262.368033 295.131907 
L 263.587011 295.292208 
L 263.993337 295.119504 
L 264.399663 295.181327 
L 264.805989 294.784488 
L 265.212315 294.639044 
L 265.618641 294.619402 
L 266.431294 295.391323 
L 266.83762 294.865407 
L 267.243946 295.002163 
L 267.650272 295.356004 
L 268.056598 294.994366 
L 268.462924 294.956664 
L 268.86925 295.261812 
L 269.275576 294.886 
L 269.681902 295.294678 
L 270.088228 295.298661 
L 270.494555 294.998732 
L 271.713533 294.975992 
L 272.119859 294.933013 
L 272.526185 294.777877 
L 272.932511 295.163809 
L 275.370468 295.321781 
L 275.776794 295.02406 
L 277.808424 295.286156 
L 278.21475 294.955022 
L 278.621076 295.270533 
L 279.027402 294.960612 
L 279.433729 295.415928 
L 280.246381 295.43835 
L 280.652707 295.159258 
L 281.871685 295.438111 
L 282.278011 295.251629 
L 282.684337 294.334234 
L 283.090663 294.399274 
L 283.496989 295.434359 
L 283.903316 295.054485 
L 284.309642 295.002737 
L 284.715968 295.156387 
L 285.122294 294.948934 
L 285.52862 294.413879 
L 286.747598 294.494973 
L 287.56025 294.321589 
L 288.372902 295.405272 
L 288.779229 295.282618 
L 289.185555 295.427094 
L 289.591881 295.443984 
L 290.810859 295.141648 
L 291.217185 295.194821 
L 291.623511 295.412279 
L 292.842489 295.342443 
L 294.061468 295.346129 
L 294.467794 294.983488 
L 294.87412 295.439562 
L 300.156359 295.443848 
L 300.562685 295.118441 
L 301.375337 295.415806 
L 302.18799 295.121073 
L 302.594316 294.59699 
L 303.406968 295.20078 
L 303.813294 294.832269 
L 304.21962 295.042199 
L 305.438598 295.165328 
L 305.844924 294.865033 
L 306.657577 295.445693 
L 307.063903 295.260503 
L 307.876555 295.123509 
L 308.282881 295.469582 
L 310.314511 295.438555 
L 310.720837 295.404524 
L 311.127163 295.058159 
L 311.53349 295.387101 
L 311.939816 295.053979 
L 312.346142 294.997078 
L 312.752468 294.266613 
L 313.56512 295.239744 
L 313.971446 295.228814 
L 314.377772 295.336635 
L 316.003077 295.098881 
L 316.409403 295.184889 
L 316.815729 294.624602 
L 317.222055 294.931709 
L 317.628381 294.515734 
L 318.034707 294.947789 
L 318.847359 294.818424 
L 319.253685 295.014313 
L 319.660011 295.349489 
L 320.066337 295.299321 
L 320.472664 295.374353 
L 320.87899 294.916003 
L 321.285316 295.029012 
L 321.691642 295.338292 
L 322.504294 295.335898 
L 322.91062 295.14326 
L 323.316946 295.456282 
L 324.129598 295.247655 
L 324.535924 295.420351 
L 324.942251 295.457881 
L 325.348577 294.543625 
L 325.754903 294.468567 
L 326.161229 293.487584 
L 326.567555 294.499513 
L 326.973881 293.490521 
L 327.380207 294.154123 
L 327.786533 294.576839 
L 328.192859 295.364143 
L 328.599185 295.246964 
L 329.005511 293.759491 
L 329.411838 294.554532 
L 329.818164 294.899237 
L 330.630816 294.822354 
L 331.037142 295.241648 
L 331.849794 295.420679 
L 332.25612 295.297894 
L 332.662446 294.978466 
L 333.068772 295.410734 
L 333.475098 295.298283 
L 333.881425 294.36401 
L 334.287751 295.075266 
L 334.694077 294.546511 
L 335.100403 294.53987 
L 335.506729 295.306871 
L 335.913055 295.272898 
L 336.319381 293.862884 
L 336.725707 295.144428 
L 337.132033 294.69432 
L 337.538359 294.699016 
L 337.944685 295.050926 
L 338.351011 294.828252 
L 338.757338 295.008908 
L 339.56999 294.918673 
L 339.976316 294.752551 
L 340.382642 294.753156 
L 340.788968 295.170581 
L 341.195294 294.799879 
L 341.60162 295.211368 
L 342.007946 295.230959 
L 342.414272 294.75259 
L 342.820598 294.902081 
L 343.226925 294.917835 
L 343.633251 295.341924 
L 344.039577 295.068317 
L 344.852229 295.063197 
L 345.258555 294.540857 
L 345.664881 295.247428 
L 346.071207 295.309004 
L 346.477533 295.094989 
L 346.883859 294.667549 
L 347.290185 295.254342 
L 347.696512 295.281521 
L 348.102838 294.844771 
L 348.509164 295.273416 
L 348.91549 294.819565 
L 349.728142 294.772247 
L 350.134468 295.457872 
L 351.759772 295.455321 
L 352.166099 295.052966 
L 352.572425 295.440194 
L 353.385077 295.21974 
L 353.791403 295.23626 
L 354.604055 294.584644 
L 355.010381 294.620326 
L 355.416707 294.813961 
L 356.229359 294.820352 
L 356.635686 295.31523 
L 357.854664 295.256104 
L 358.26099 294.943518 
L 358.667316 294.946094 
L 359.073642 295.277374 
L 359.479968 293.863131 
L 359.886294 294.345226 
L 360.29262 293.849899 
L 360.698946 293.771946 
L 361.105272 294.999564 
L 361.511599 294.656303 
L 362.324251 294.611811 
L 362.730577 295.120931 
L 363.136903 295.208665 
L 363.543229 295.061795 
L 363.949555 294.539885 
L 364.355881 294.548204 
L 364.762207 295.268113 
L 365.168533 294.966109 
L 365.574859 295.22689 
L 365.981186 294.6655 
L 366.387512 294.994895 
L 366.793838 293.132234 
L 367.60649 293.047167 
L 368.012816 293.077719 
L 368.419142 295.387603 
L 368.825468 294.925276 
L 369.63812 294.65358 
L 370.044446 295.165444 
L 370.450773 294.974333 
L 370.857099 295.428234 
L 371.263425 292.767254 
L 371.669751 293.974789 
L 372.076077 293.8959 
L 372.482403 295.27377 
L 372.888729 295.485839 
L 373.295055 294.254124 
L 373.701381 293.512332 
L 374.107707 295.264905 
L 374.514033 295.488 
L 375.733012 295.069957 
L 376.139338 295.374765 
L 376.545664 294.972777 
L 376.95199 295.425564 
L 377.358316 294.984648 
L 377.764642 295.3561 
L 378.170968 295.35611 
L 378.577294 295.057562 
L 379.796273 295.34775 
L 380.202599 295.085591 
L 380.608925 294.213988 
L 381.421577 294.559831 
L 381.827903 295.115186 
L 382.234229 295.276724 
L 382.640555 294.828458 
L 383.046881 294.788349 
L 383.453207 295.223133 
L 383.859534 294.42873 
L 384.26586 294.696589 
L 384.672186 294.815168 
L 385.891164 294.569835 
L 386.29749 295.24343 
L 386.703816 295.247918 
L 387.516468 294.351451 
L 387.922794 294.901259 
L 388.32912 294.184122 
L 389.141773 295.108675 
L 389.548099 294.990004 
L 389.954425 295.280164 
L 390.360751 295.079517 
L 393.205034 295.07115 
L 393.61136 295.400271 
L 394.017686 294.886375 
L 395.236664 294.896443 
L 395.64299 295.077784 
L 396.049316 294.909187 
L 396.455642 295.081611 
L 398.487273 295.062766 
L 398.487273 295.062766 
" style="fill:none;stroke:#ff7f0e;stroke-linecap:square;stroke-width:1.5;"/>
   </g>
   <g id="patch_3">
    <path d="M 57.6 307.584 
L 57.6 41.472 
" style="fill:none;stroke:#000000;stroke-linecap:square;stroke-linejoin:miter;stroke-width:0.8;"/>
   </g>
   <g id="patch_4">
    <path d="M 414.72 307.584 
L 414.72 41.472 
" style="fill:none;stroke:#000000;stroke-linecap:square;stroke-linejoin:miter;stroke-width:0.8;"/>
   </g>
   <g id="patch_5">
    <path d="M 57.6 307.584 
L 414.72 307.584 
" style="fill:none;stroke:#000000;stroke-linecap:square;stroke-linejoin:miter;stroke-width:0.8;"/>
   </g>
   <g id="patch_6">
    <path d="M 57.6 41.472 
L 414.72 41.472 
" style="fill:none;stroke:#000000;stroke-linecap:square;stroke-linejoin:miter;stroke-width:0.8;"/>
   </g>
  </g>
 </g>
 <defs>
  <clipPath id="pa7b7c0a75a">
   <rect height="266.112" width="357.12" x="57.6" y="41.472"/>
  </clipPath>
 </defs>
</svg>
