<?xml version="1.0" encoding="utf-8" standalone="no"?>
<!DOCTYPE svg PUBLIC "-//W3C//DTD SVG 1.1//EN"
  "http://www.w3.org/Graphics/SVG/1.1/DTD/svg11.dtd">
<!-- Created with matplotlib (https://matplotlib.org/) -->
<svg height="345.6pt" version="1.1" viewBox="0 0 460.8 345.6" width="460.8pt" xmlns="http://www.w3.org/2000/svg" xmlns:xlink="http://www.w3.org/1999/xlink">
 <defs>
  <style type="text/css">
*{stroke-linecap:butt;stroke-linejoin:round;}
  </style>
 </defs>
 <g id="figure_1">
  <g id="patch_1">
   <path d="M 0 345.6 
L 460.8 345.6 
L 460.8 0 
L 0 0 
z
" style="fill:#ffffff;"/>
  </g>
  <g id="axes_1">
   <g id="patch_2">
    <path d="M 57.6 307.584 
L 414.72 307.584 
L 414.72 41.472 
L 57.6 41.472 
z
" style="fill:#ffffff;"/>
   </g>
   <g id="matplotlib.axis_1">
    <g id="xtick_1">
     <g id="line2d_1">
      <defs>
       <path d="M 0 0 
L 0 3.5 
" id="m633e23e1ff" style="stroke:#000000;stroke-width:0.8;"/>
      </defs>
      <g>
       <use style="stroke:#000000;stroke-width:0.8;" x="73.832727" xlink:href="#m633e23e1ff" y="307.584"/>
      </g>
     </g>
     <g id="text_1">
      <!-- 0 -->
      <defs>
       <path d="M 31.78125 66.40625 
Q 24.171875 66.40625 20.328125 58.90625 
Q 16.5 51.421875 16.5 36.375 
Q 16.5 21.390625 20.328125 13.890625 
Q 24.171875 6.390625 31.78125 6.390625 
Q 39.453125 6.390625 43.28125 13.890625 
Q 47.125 21.390625 47.125 36.375 
Q 47.125 51.421875 43.28125 58.90625 
Q 39.453125 66.40625 31.78125 66.40625 
z
M 31.78125 74.21875 
Q 44.046875 74.21875 50.515625 64.515625 
Q 56.984375 54.828125 56.984375 36.375 
Q 56.984375 17.96875 50.515625 8.265625 
Q 44.046875 -1.421875 31.78125 -1.421875 
Q 19.53125 -1.421875 13.0625 8.265625 
Q 6.59375 17.96875 6.59375 36.375 
Q 6.59375 54.828125 13.0625 64.515625 
Q 19.53125 74.21875 31.78125 74.21875 
z
" id="DejaVuSans-48"/>
      </defs>
      <g transform="translate(70.651477 322.182437)scale(0.1 -0.1)">
       <use xlink:href="#DejaVuSans-48"/>
      </g>
     </g>
    </g>
    <g id="xtick_2">
     <g id="line2d_2">
      <g>
       <use style="stroke:#000000;stroke-width:0.8;" x="114.465336" xlink:href="#m633e23e1ff" y="307.584"/>
      </g>
     </g>
     <g id="text_2">
      <!-- 100 -->
      <defs>
       <path d="M 12.40625 8.296875 
L 28.515625 8.296875 
L 28.515625 63.921875 
L 10.984375 60.40625 
L 10.984375 69.390625 
L 28.421875 72.90625 
L 38.28125 72.90625 
L 38.28125 8.296875 
L 54.390625 8.296875 
L 54.390625 0 
L 12.40625 0 
z
" id="DejaVuSans-49"/>
      </defs>
      <g transform="translate(104.921586 322.182437)scale(0.1 -0.1)">
       <use xlink:href="#DejaVuSans-49"/>
       <use x="63.623047" xlink:href="#DejaVuSans-48"/>
       <use x="127.246094" xlink:href="#DejaVuSans-48"/>
      </g>
     </g>
    </g>
    <g id="xtick_3">
     <g id="line2d_3">
      <g>
       <use style="stroke:#000000;stroke-width:0.8;" x="155.097945" xlink:href="#m633e23e1ff" y="307.584"/>
      </g>
     </g>
     <g id="text_3">
      <!-- 200 -->
      <defs>
       <path d="M 19.1875 8.296875 
L 53.609375 8.296875 
L 53.609375 0 
L 7.328125 0 
L 7.328125 8.296875 
Q 12.9375 14.109375 22.625 23.890625 
Q 32.328125 33.6875 34.8125 36.53125 
Q 39.546875 41.84375 41.421875 45.53125 
Q 43.3125 49.21875 43.3125 52.78125 
Q 43.3125 58.59375 39.234375 62.25 
Q 35.15625 65.921875 28.609375 65.921875 
Q 23.96875 65.921875 18.8125 64.3125 
Q 13.671875 62.703125 7.8125 59.421875 
L 7.8125 69.390625 
Q 13.765625 71.78125 18.9375 73 
Q 24.125 74.21875 28.421875 74.21875 
Q 39.75 74.21875 46.484375 68.546875 
Q 53.21875 62.890625 53.21875 53.421875 
Q 53.21875 48.921875 51.53125 44.890625 
Q 49.859375 40.875 45.40625 35.40625 
Q 44.1875 33.984375 37.640625 27.21875 
Q 31.109375 20.453125 19.1875 8.296875 
z
" id="DejaVuSans-50"/>
      </defs>
      <g transform="translate(145.554195 322.182437)scale(0.1 -0.1)">
       <use xlink:href="#DejaVuSans-50"/>
       <use x="63.623047" xlink:href="#DejaVuSans-48"/>
       <use x="127.246094" xlink:href="#DejaVuSans-48"/>
      </g>
     </g>
    </g>
    <g id="xtick_4">
     <g id="line2d_4">
      <g>
       <use style="stroke:#000000;stroke-width:0.8;" x="195.730554" xlink:href="#m633e23e1ff" y="307.584"/>
      </g>
     </g>
     <g id="text_4">
      <!-- 300 -->
      <defs>
       <path d="M 40.578125 39.3125 
Q 47.65625 37.796875 51.625 33 
Q 55.609375 28.21875 55.609375 21.1875 
Q 55.609375 10.40625 48.1875 4.484375 
Q 40.765625 -1.421875 27.09375 -1.421875 
Q 22.515625 -1.421875 17.65625 -0.515625 
Q 12.796875 0.390625 7.625 2.203125 
L 7.625 11.71875 
Q 11.71875 9.328125 16.59375 8.109375 
Q 21.484375 6.890625 26.8125 6.890625 
Q 36.078125 6.890625 40.9375 10.546875 
Q 45.796875 14.203125 45.796875 21.1875 
Q 45.796875 27.640625 41.28125 31.265625 
Q 36.765625 34.90625 28.71875 34.90625 
L 20.21875 34.90625 
L 20.21875 43.015625 
L 29.109375 43.015625 
Q 36.375 43.015625 40.234375 45.921875 
Q 44.09375 48.828125 44.09375 54.296875 
Q 44.09375 59.90625 40.109375 62.90625 
Q 36.140625 65.921875 28.71875 65.921875 
Q 24.65625 65.921875 20.015625 65.03125 
Q 15.375 64.15625 9.8125 62.3125 
L 9.8125 71.09375 
Q 15.4375 72.65625 20.34375 73.4375 
Q 25.25 74.21875 29.59375 74.21875 
Q 40.828125 74.21875 47.359375 69.109375 
Q 53.90625 64.015625 53.90625 55.328125 
Q 53.90625 49.265625 50.4375 45.09375 
Q 46.96875 40.921875 40.578125 39.3125 
z
" id="DejaVuSans-51"/>
      </defs>
      <g transform="translate(186.186804 322.182437)scale(0.1 -0.1)">
       <use xlink:href="#DejaVuSans-51"/>
       <use x="63.623047" xlink:href="#DejaVuSans-48"/>
       <use x="127.246094" xlink:href="#DejaVuSans-48"/>
      </g>
     </g>
    </g>
    <g id="xtick_5">
     <g id="line2d_5">
      <g>
       <use style="stroke:#000000;stroke-width:0.8;" x="236.363163" xlink:href="#m633e23e1ff" y="307.584"/>
      </g>
     </g>
     <g id="text_5">
      <!-- 400 -->
      <defs>
       <path d="M 37.796875 64.3125 
L 12.890625 25.390625 
L 37.796875 25.390625 
z
M 35.203125 72.90625 
L 47.609375 72.90625 
L 47.609375 25.390625 
L 58.015625 25.390625 
L 58.015625 17.1875 
L 47.609375 17.1875 
L 47.609375 0 
L 37.796875 0 
L 37.796875 17.1875 
L 4.890625 17.1875 
L 4.890625 26.703125 
z
" id="DejaVuSans-52"/>
      </defs>
      <g transform="translate(226.819413 322.182437)scale(0.1 -0.1)">
       <use xlink:href="#DejaVuSans-52"/>
       <use x="63.623047" xlink:href="#DejaVuSans-48"/>
       <use x="127.246094" xlink:href="#DejaVuSans-48"/>
      </g>
     </g>
    </g>
    <g id="xtick_6">
     <g id="line2d_6">
      <g>
       <use style="stroke:#000000;stroke-width:0.8;" x="276.995772" xlink:href="#m633e23e1ff" y="307.584"/>
      </g>
     </g>
     <g id="text_6">
      <!-- 500 -->
      <defs>
       <path d="M 10.796875 72.90625 
L 49.515625 72.90625 
L 49.515625 64.59375 
L 19.828125 64.59375 
L 19.828125 46.734375 
Q 21.96875 47.46875 24.109375 47.828125 
Q 26.265625 48.1875 28.421875 48.1875 
Q 40.625 48.1875 47.75 41.5 
Q 54.890625 34.8125 54.890625 23.390625 
Q 54.890625 11.625 47.5625 5.09375 
Q 40.234375 -1.421875 26.90625 -1.421875 
Q 22.3125 -1.421875 17.546875 -0.640625 
Q 12.796875 0.140625 7.71875 1.703125 
L 7.71875 11.625 
Q 12.109375 9.234375 16.796875 8.0625 
Q 21.484375 6.890625 26.703125 6.890625 
Q 35.15625 6.890625 40.078125 11.328125 
Q 45.015625 15.765625 45.015625 23.390625 
Q 45.015625 31 40.078125 35.4375 
Q 35.15625 39.890625 26.703125 39.890625 
Q 22.75 39.890625 18.8125 39.015625 
Q 14.890625 38.140625 10.796875 36.28125 
z
" id="DejaVuSans-53"/>
      </defs>
      <g transform="translate(267.452022 322.182437)scale(0.1 -0.1)">
       <use xlink:href="#DejaVuSans-53"/>
       <use x="63.623047" xlink:href="#DejaVuSans-48"/>
       <use x="127.246094" xlink:href="#DejaVuSans-48"/>
      </g>
     </g>
    </g>
    <g id="xtick_7">
     <g id="line2d_7">
      <g>
       <use style="stroke:#000000;stroke-width:0.8;" x="317.628381" xlink:href="#m633e23e1ff" y="307.584"/>
      </g>
     </g>
     <g id="text_7">
      <!-- 600 -->
      <defs>
       <path d="M 33.015625 40.375 
Q 26.375 40.375 22.484375 35.828125 
Q 18.609375 31.296875 18.609375 23.390625 
Q 18.609375 15.53125 22.484375 10.953125 
Q 26.375 6.390625 33.015625 6.390625 
Q 39.65625 6.390625 43.53125 10.953125 
Q 47.40625 15.53125 47.40625 23.390625 
Q 47.40625 31.296875 43.53125 35.828125 
Q 39.65625 40.375 33.015625 40.375 
z
M 52.59375 71.296875 
L 52.59375 62.3125 
Q 48.875 64.0625 45.09375 64.984375 
Q 41.3125 65.921875 37.59375 65.921875 
Q 27.828125 65.921875 22.671875 59.328125 
Q 17.53125 52.734375 16.796875 39.40625 
Q 19.671875 43.65625 24.015625 45.921875 
Q 28.375 48.1875 33.59375 48.1875 
Q 44.578125 48.1875 50.953125 41.515625 
Q 57.328125 34.859375 57.328125 23.390625 
Q 57.328125 12.15625 50.6875 5.359375 
Q 44.046875 -1.421875 33.015625 -1.421875 
Q 20.359375 -1.421875 13.671875 8.265625 
Q 6.984375 17.96875 6.984375 36.375 
Q 6.984375 53.65625 15.1875 63.9375 
Q 23.390625 74.21875 37.203125 74.21875 
Q 40.921875 74.21875 44.703125 73.484375 
Q 48.484375 72.75 52.59375 71.296875 
z
" id="DejaVuSans-54"/>
      </defs>
      <g transform="translate(308.084631 322.182437)scale(0.1 -0.1)">
       <use xlink:href="#DejaVuSans-54"/>
       <use x="63.623047" xlink:href="#DejaVuSans-48"/>
       <use x="127.246094" xlink:href="#DejaVuSans-48"/>
      </g>
     </g>
    </g>
    <g id="xtick_8">
     <g id="line2d_8">
      <g>
       <use style="stroke:#000000;stroke-width:0.8;" x="358.26099" xlink:href="#m633e23e1ff" y="307.584"/>
      </g>
     </g>
     <g id="text_8">
      <!-- 700 -->
      <defs>
       <path d="M 8.203125 72.90625 
L 55.078125 72.90625 
L 55.078125 68.703125 
L 28.609375 0 
L 18.3125 0 
L 43.21875 64.59375 
L 8.203125 64.59375 
z
" id="DejaVuSans-55"/>
      </defs>
      <g transform="translate(348.71724 322.182437)scale(0.1 -0.1)">
       <use xlink:href="#DejaVuSans-55"/>
       <use x="63.623047" xlink:href="#DejaVuSans-48"/>
       <use x="127.246094" xlink:href="#DejaVuSans-48"/>
      </g>
     </g>
    </g>
    <g id="xtick_9">
     <g id="line2d_9">
      <g>
       <use style="stroke:#000000;stroke-width:0.8;" x="398.893599" xlink:href="#m633e23e1ff" y="307.584"/>
      </g>
     </g>
     <g id="text_9">
      <!-- 800 -->
      <defs>
       <path d="M 31.78125 34.625 
Q 24.75 34.625 20.71875 30.859375 
Q 16.703125 27.09375 16.703125 20.515625 
Q 16.703125 13.921875 20.71875 10.15625 
Q 24.75 6.390625 31.78125 6.390625 
Q 38.8125 6.390625 42.859375 10.171875 
Q 46.921875 13.96875 46.921875 20.515625 
Q 46.921875 27.09375 42.890625 30.859375 
Q 38.875 34.625 31.78125 34.625 
z
M 21.921875 38.8125 
Q 15.578125 40.375 12.03125 44.71875 
Q 8.5 49.078125 8.5 55.328125 
Q 8.5 64.0625 14.71875 69.140625 
Q 20.953125 74.21875 31.78125 74.21875 
Q 42.671875 74.21875 48.875 69.140625 
Q 55.078125 64.0625 55.078125 55.328125 
Q 55.078125 49.078125 51.53125 44.71875 
Q 48 40.375 41.703125 38.8125 
Q 48.828125 37.15625 52.796875 32.3125 
Q 56.78125 27.484375 56.78125 20.515625 
Q 56.78125 9.90625 50.3125 4.234375 
Q 43.84375 -1.421875 31.78125 -1.421875 
Q 19.734375 -1.421875 13.25 4.234375 
Q 6.78125 9.90625 6.78125 20.515625 
Q 6.78125 27.484375 10.78125 32.3125 
Q 14.796875 37.15625 21.921875 38.8125 
z
M 18.3125 54.390625 
Q 18.3125 48.734375 21.84375 45.5625 
Q 25.390625 42.390625 31.78125 42.390625 
Q 38.140625 42.390625 41.71875 45.5625 
Q 45.3125 48.734375 45.3125 54.390625 
Q 45.3125 60.0625 41.71875 63.234375 
Q 38.140625 66.40625 31.78125 66.40625 
Q 25.390625 66.40625 21.84375 63.234375 
Q 18.3125 60.0625 18.3125 54.390625 
z
" id="DejaVuSans-56"/>
      </defs>
      <g transform="translate(389.349849 322.182437)scale(0.1 -0.1)">
       <use xlink:href="#DejaVuSans-56"/>
       <use x="63.623047" xlink:href="#DejaVuSans-48"/>
       <use x="127.246094" xlink:href="#DejaVuSans-48"/>
      </g>
     </g>
    </g>
   </g>
   <g id="matplotlib.axis_2">
    <g id="ytick_1">
     <g id="line2d_10">
      <defs>
       <path d="M 0 0 
L -3.5 0 
" id="md3ba735d7b" style="stroke:#000000;stroke-width:0.8;"/>
      </defs>
      <g>
       <use style="stroke:#000000;stroke-width:0.8;" x="57.6" xlink:href="#md3ba735d7b" y="295.52069"/>
      </g>
     </g>
     <g id="text_10">
      <!-- 0.0000 -->
      <defs>
       <path d="M 10.6875 12.40625 
L 21 12.40625 
L 21 0 
L 10.6875 0 
z
" id="DejaVuSans-46"/>
      </defs>
      <g transform="translate(15.609375 299.319908)scale(0.1 -0.1)">
       <use xlink:href="#DejaVuSans-48"/>
       <use x="63.623047" xlink:href="#DejaVuSans-46"/>
       <use x="95.410156" xlink:href="#DejaVuSans-48"/>
       <use x="159.033203" xlink:href="#DejaVuSans-48"/>
       <use x="222.65625" xlink:href="#DejaVuSans-48"/>
       <use x="286.279297" xlink:href="#DejaVuSans-48"/>
      </g>
     </g>
    </g>
    <g id="ytick_2">
     <g id="line2d_11">
      <g>
       <use style="stroke:#000000;stroke-width:0.8;" x="57.6" xlink:href="#md3ba735d7b" y="254.307703"/>
      </g>
     </g>
     <g id="text_11">
      <!-- 0.0005 -->
      <g transform="translate(15.609375 258.106922)scale(0.1 -0.1)">
       <use xlink:href="#DejaVuSans-48"/>
       <use x="63.623047" xlink:href="#DejaVuSans-46"/>
       <use x="95.410156" xlink:href="#DejaVuSans-48"/>
       <use x="159.033203" xlink:href="#DejaVuSans-48"/>
       <use x="222.65625" xlink:href="#DejaVuSans-48"/>
       <use x="286.279297" xlink:href="#DejaVuSans-53"/>
      </g>
     </g>
    </g>
    <g id="ytick_3">
     <g id="line2d_12">
      <g>
       <use style="stroke:#000000;stroke-width:0.8;" x="57.6" xlink:href="#md3ba735d7b" y="213.094717"/>
      </g>
     </g>
     <g id="text_12">
      <!-- 0.0010 -->
      <g transform="translate(15.609375 216.893936)scale(0.1 -0.1)">
       <use xlink:href="#DejaVuSans-48"/>
       <use x="63.623047" xlink:href="#DejaVuSans-46"/>
       <use x="95.410156" xlink:href="#DejaVuSans-48"/>
       <use x="159.033203" xlink:href="#DejaVuSans-48"/>
       <use x="222.65625" xlink:href="#DejaVuSans-49"/>
       <use x="286.279297" xlink:href="#DejaVuSans-48"/>
      </g>
     </g>
    </g>
    <g id="ytick_4">
     <g id="line2d_13">
      <g>
       <use style="stroke:#000000;stroke-width:0.8;" x="57.6" xlink:href="#md3ba735d7b" y="171.88173"/>
      </g>
     </g>
     <g id="text_13">
      <!-- 0.0015 -->
      <g transform="translate(15.609375 175.680949)scale(0.1 -0.1)">
       <use xlink:href="#DejaVuSans-48"/>
       <use x="63.623047" xlink:href="#DejaVuSans-46"/>
       <use x="95.410156" xlink:href="#DejaVuSans-48"/>
       <use x="159.033203" xlink:href="#DejaVuSans-48"/>
       <use x="222.65625" xlink:href="#DejaVuSans-49"/>
       <use x="286.279297" xlink:href="#DejaVuSans-53"/>
      </g>
     </g>
    </g>
    <g id="ytick_5">
     <g id="line2d_14">
      <g>
       <use style="stroke:#000000;stroke-width:0.8;" x="57.6" xlink:href="#md3ba735d7b" y="130.668744"/>
      </g>
     </g>
     <g id="text_14">
      <!-- 0.0020 -->
      <g transform="translate(15.609375 134.467963)scale(0.1 -0.1)">
       <use xlink:href="#DejaVuSans-48"/>
       <use x="63.623047" xlink:href="#DejaVuSans-46"/>
       <use x="95.410156" xlink:href="#DejaVuSans-48"/>
       <use x="159.033203" xlink:href="#DejaVuSans-48"/>
       <use x="222.65625" xlink:href="#DejaVuSans-50"/>
       <use x="286.279297" xlink:href="#DejaVuSans-48"/>
      </g>
     </g>
    </g>
    <g id="ytick_6">
     <g id="line2d_15">
      <g>
       <use style="stroke:#000000;stroke-width:0.8;" x="57.6" xlink:href="#md3ba735d7b" y="89.455758"/>
      </g>
     </g>
     <g id="text_15">
      <!-- 0.0025 -->
      <g transform="translate(15.609375 93.254976)scale(0.1 -0.1)">
       <use xlink:href="#DejaVuSans-48"/>
       <use x="63.623047" xlink:href="#DejaVuSans-46"/>
       <use x="95.410156" xlink:href="#DejaVuSans-48"/>
       <use x="159.033203" xlink:href="#DejaVuSans-48"/>
       <use x="222.65625" xlink:href="#DejaVuSans-50"/>
       <use x="286.279297" xlink:href="#DejaVuSans-53"/>
      </g>
     </g>
    </g>
    <g id="ytick_7">
     <g id="line2d_16">
      <g>
       <use style="stroke:#000000;stroke-width:0.8;" x="57.6" xlink:href="#md3ba735d7b" y="48.242771"/>
      </g>
     </g>
     <g id="text_16">
      <!-- 0.0030 -->
      <g transform="translate(15.609375 52.04199)scale(0.1 -0.1)">
       <use xlink:href="#DejaVuSans-48"/>
       <use x="63.623047" xlink:href="#DejaVuSans-46"/>
       <use x="95.410156" xlink:href="#DejaVuSans-48"/>
       <use x="159.033203" xlink:href="#DejaVuSans-48"/>
       <use x="222.65625" xlink:href="#DejaVuSans-51"/>
       <use x="286.279297" xlink:href="#DejaVuSans-48"/>
      </g>
     </g>
    </g>
   </g>
   <g id="line2d_17">
    <path clip-path="url(#p151509af0f)" d="M 73.832727 183.307191 
L 74.239053 166.410653 
L 74.645379 156.084861 
L 75.051706 150.427392 
L 75.458032 149.425715 
L 75.864358 148.053554 
L 76.270684 140.446949 
L 76.67701 144.083799 
L 77.083336 132.43071 
L 77.489662 145.596757 
L 77.895988 150.610814 
L 78.302314 149.272425 
L 78.70864 152.271624 
L 79.114966 156.384221 
L 79.521293 157.931438 
L 79.927619 156.087708 
L 80.740271 154.04625 
L 81.146597 155.716326 
L 81.552923 156.576641 
L 81.959249 156.514613 
L 82.365575 157.056918 
L 82.771901 159.898673 
L 83.178227 161.722518 
L 83.584553 161.404754 
L 83.99088 160.821412 
L 84.397206 161.392418 
L 84.803532 154.020889 
L 85.209858 161.286827 
L 85.616184 178.861853 
L 86.428836 165.498328 
L 86.835162 170.211576 
L 87.241488 167.301125 
L 87.647814 169.196365 
L 88.05414 168.080207 
L 88.460466 163.924572 
L 88.866793 168.788461 
L 89.273119 178.40419 
L 90.085771 167.119626 
L 90.492097 169.491133 
L 90.898423 174.060786 
L 91.304749 175.205325 
L 91.711075 175.726317 
L 92.117401 172.76132 
L 92.523727 174.371762 
L 92.930053 176.471376 
L 93.33638 173.552296 
L 93.742706 175.315857 
L 94.555358 176.500432 
L 94.961684 168.738553 
L 95.36801 174.357106 
L 95.774336 177.068934 
L 96.180662 173.57911 
L 96.586988 177.48558 
L 96.993314 178.169522 
L 97.39964 176.467353 
L 97.805967 179.369923 
L 98.212293 183.198663 
L 98.618619 178.401195 
L 99.024945 181.114783 
L 99.431271 174.111649 
L 99.837597 178.10965 
L 100.243923 183.853196 
L 100.650249 180.368639 
L 101.056575 181.270446 
L 101.462901 185.827334 
L 101.869227 182.030591 
L 102.275554 182.435808 
L 102.68188 184.678778 
L 103.494532 181.08418 
L 103.900858 177.838309 
L 104.307184 185.397446 
L 104.71351 185.27037 
L 105.119836 184.027383 
L 105.932488 177.064739 
L 106.338814 182.62334 
L 106.745141 192.192482 
L 107.557793 186.923821 
L 107.964119 181.228803 
L 108.776771 188.156302 
L 109.183097 185.751189 
L 109.589423 189.352647 
L 109.995749 191.304391 
L 110.402075 191.593695 
L 110.808401 185.398421 
L 111.214728 186.544225 
L 111.621054 179.996407 
L 112.02738 181.609201 
L 112.433706 186.275368 
L 112.840032 185.119795 
L 113.246358 183.183598 
L 113.652684 181.984571 
L 114.05901 186.220407 
L 114.465336 185.843716 
L 114.871662 140.350701 
L 115.277988 169.516756 
L 115.684314 188.576339 
L 116.090641 198.952933 
L 116.496967 194.189243 
L 116.903293 190.933743 
L 117.309619 189.660274 
L 117.715945 192.258388 
L 118.122271 187.988045 
L 118.528597 190.210814 
L 118.934923 174.878378 
L 119.341249 189.82019 
L 119.747575 189.913237 
L 120.153901 192.476549 
L 120.560228 188.466097 
L 120.966554 189.15126 
L 121.37288 193.54866 
L 121.779206 188.416465 
L 122.185532 187.572571 
L 122.591858 188.804348 
L 122.998184 187.125547 
L 123.40451 183.947717 
L 123.810836 192.054919 
L 124.217162 190.777944 
L 124.623488 194.026597 
L 125.029815 185.245749 
L 125.842467 184.444846 
L 126.248793 184.620584 
L 126.655119 186.063725 
L 127.061445 193.289091 
L 127.467771 188.960412 
L 127.874097 193.787218 
L 128.280423 94.047723 
L 129.093075 184.170644 
L 129.905728 193.421641 
L 130.312054 194.738174 
L 130.71838 192.610404 
L 131.124706 194.601707 
L 131.531032 190.214 
L 131.937358 189.735174 
L 132.343684 187.031821 
L 133.156336 192.606335 
L 133.562662 190.927559 
L 133.968989 185.974495 
L 134.375315 187.557356 
L 134.781641 186.638335 
L 135.187967 183.133423 
L 135.594293 182.268579 
L 136.000619 189.950279 
L 136.406945 194.373488 
L 136.813271 192.832809 
L 137.219597 192.944585 
L 137.625923 195.929677 
L 138.032249 196.381769 
L 138.438575 179.572643 
L 138.844902 191.272107 
L 139.251228 188.950549 
L 139.657554 195.425986 
L 140.06388 193.342827 
L 140.470206 193.065787 
L 140.876532 195.928746 
L 141.282858 196.592097 
L 141.689184 199.712961 
L 142.09551 194.893331 
L 142.501836 187.370097 
L 142.908162 195.628252 
L 143.314489 199.652017 
L 143.720815 97.995241 
L 144.127141 156.099325 
L 144.533467 187.754154 
L 144.939793 192.72804 
L 145.346119 194.251317 
L 145.752445 194.615308 
L 146.158771 195.51732 
L 146.565097 194.368414 
L 147.377749 195.612592 
L 147.784076 198.089733 
L 148.190402 196.729016 
L 148.596728 198.754514 
L 149.003054 191.701327 
L 149.40938 199.773301 
L 150.222032 196.582236 
L 150.628358 196.30703 
L 151.034684 195.411682 
L 151.44101 191.03488 
L 151.847336 196.851911 
L 152.253663 190.19299 
L 152.659989 188.708192 
L 153.066315 195.347565 
L 153.472641 191.529318 
L 153.878967 193.537456 
L 154.285293 184.752185 
L 154.691619 195.277168 
L 155.097945 211.705751 
L 155.504271 216.304593 
L 155.910597 217.228518 
L 156.316923 216.995903 
L 156.72325 217.035831 
L 157.129576 216.812125 
L 157.535902 210.796689 
L 157.942228 199.92199 
L 158.348554 198.430121 
L 158.75488 201.901806 
L 159.161206 202.215785 
L 159.567532 192.911488 
L 159.973858 193.609196 
L 160.380184 197.552532 
L 160.78651 195.220811 
L 161.192837 196.891919 
L 161.599163 196.527658 
L 162.005489 202.591909 
L 162.411815 178.69905 
L 162.818141 194.413131 
L 163.224467 200.906371 
L 163.630793 196.351166 
L 164.037119 197.015135 
L 164.443445 198.297809 
L 164.849771 119.843366 
L 165.256097 167.259225 
L 165.662423 189.050448 
L 166.06875 202.328381 
L 166.475076 187.382228 
L 166.881402 189.10345 
L 167.694054 206.091283 
L 168.10038 203.056922 
L 168.506706 202.996613 
L 168.913032 202.326791 
L 169.319358 201.407485 
L 169.725684 200.144517 
L 170.13201 199.435041 
L 170.538337 199.553774 
L 170.944663 194.05813 
L 171.350989 192.0494 
L 171.757315 188.195172 
L 172.163641 186.839311 
L 172.569967 188.898449 
L 172.976293 192.832687 
L 173.382619 181.617272 
L 173.788945 191.723447 
L 174.195271 195.473973 
L 175.007924 198.371334 
L 175.41425 201.095596 
L 175.820576 198.615771 
L 176.226902 192.686686 
L 176.633228 184.664616 
L 177.039554 194.884381 
L 177.44588 195.474191 
L 177.852206 200.702368 
L 178.258532 204.101071 
L 178.664858 200.512872 
L 179.071184 203.802041 
L 179.477511 204.859311 
L 179.883837 202.21036 
L 180.290163 119.681257 
L 180.696489 139.465487 
L 181.102815 182.499217 
L 181.509141 198.930604 
L 181.915467 200.28842 
L 182.321793 196.762752 
L 182.728119 196.495919 
L 183.134445 196.85727 
L 183.540771 199.693006 
L 183.947098 200.907678 
L 184.353424 197.866097 
L 184.75975 205.608391 
L 185.166076 177.170448 
L 185.572402 197.921737 
L 185.978728 201.668216 
L 186.385054 198.388579 
L 186.79138 192.502506 
L 187.197706 192.152136 
L 187.604032 197.416818 
L 188.010358 194.433625 
L 188.416684 197.220036 
L 188.823011 206.833325 
L 189.229337 203.797872 
L 189.635663 204.826493 
L 190.041989 204.940683 
L 190.448315 200.905865 
L 190.854641 201.876126 
L 191.260967 207.450883 
L 191.667293 205.27763 
L 192.073619 199.241267 
L 192.479945 208.139972 
L 192.886271 206.104573 
L 193.292598 204.909374 
L 193.698924 206.293748 
L 194.10525 206.857603 
L 194.511576 201.379048 
L 194.917902 203.480969 
L 195.324228 201.738276 
L 195.730554 196.742286 
L 196.13688 202.704521 
L 196.543206 204.450015 
L 196.949532 198.017566 
L 197.355858 206.257268 
L 197.762185 202.166775 
L 198.168511 205.087405 
L 198.574837 196.887078 
L 198.981163 203.981804 
L 199.387489 201.337852 
L 199.793815 202.081182 
L 200.200141 199.84348 
L 200.606467 195.9746 
L 201.012793 206.324224 
L 201.419119 203.902119 
L 201.825445 205.439607 
L 202.231772 201.157093 
L 202.638098 203.706725 
L 203.044424 202.563255 
L 203.45075 202.010954 
L 203.857076 202.327014 
L 204.263402 205.425345 
L 204.669728 213.140087 
L 205.076054 210.116747 
L 205.48238 203.607793 
L 205.888706 192.722223 
L 206.295032 199.683007 
L 206.701359 199.629924 
L 207.107685 201.765104 
L 207.514011 204.728835 
L 207.920337 205.105839 
L 208.326663 192.371923 
L 208.732989 198.979963 
L 209.139315 199.75039 
L 209.545641 203.208153 
L 209.951967 204.069618 
L 210.358293 167.738202 
L 210.764619 194.992943 
L 211.170946 205.423727 
L 211.577272 207.723112 
L 211.983598 203.817179 
L 212.389924 206.164095 
L 212.79625 211.025178 
L 213.202576 204.563402 
L 213.608902 204.188222 
L 214.015228 210.992988 
L 214.421554 197.959822 
L 214.82788 204.743039 
L 215.234206 208.82641 
L 215.640532 210.281548 
L 216.046859 204.596839 
L 216.453185 207.121622 
L 216.859511 195.796436 
L 217.265837 204.312514 
L 217.672163 201.37994 
L 218.078489 201.619901 
L 218.484815 198.484407 
L 218.891141 209.976287 
L 219.297467 206.014116 
L 219.703793 206.258179 
L 220.110119 206.645839 
L 220.516446 205.579347 
L 220.922772 200.21581 
L 221.329098 204.562554 
L 221.735424 201.938018 
L 222.14175 208.603289 
L 222.548076 208.543248 
L 222.954402 206.306654 
L 223.360728 203.295761 
L 224.17338 205.870129 
L 224.579706 194.714181 
L 224.986033 202.504876 
L 225.392359 203.443471 
L 225.798685 209.447301 
L 226.205011 207.804845 
L 226.611337 204.338072 
L 227.017663 202.290546 
L 227.423989 202.378148 
L 227.830315 208.310231 
L 228.236641 204.147615 
L 228.642967 211.408851 
L 229.45562 202.523634 
L 229.861946 205.778205 
L 230.268272 188.914174 
L 230.674598 206.596922 
L 231.080924 206.597499 
L 231.48725 208.962833 
L 231.893576 204.868439 
L 232.299902 205.138444 
L 232.706228 206.169471 
L 233.112554 202.959112 
L 233.51888 207.355548 
L 233.925207 199.711841 
L 234.331533 205.667276 
L 234.737859 204.06963 
L 235.144185 201.16882 
L 235.550511 199.395894 
L 235.956837 205.900168 
L 236.363163 210.341111 
L 236.769489 207.129297 
L 237.582141 211.320998 
L 237.988467 53.568 
L 238.394793 122.220616 
L 238.80112 168.339315 
L 239.207446 189.239083 
L 239.613772 181.966141 
L 240.020098 198.882283 
L 240.426424 199.087173 
L 240.83275 201.654611 
L 241.239076 188.816289 
L 241.645402 204.7477 
L 242.051728 210.023644 
L 242.458054 208.652676 
L 242.86438 209.06256 
L 243.270707 207.757081 
L 243.677033 202.698789 
L 244.083359 206.36711 
L 244.489685 200.869255 
L 244.896011 156.91269 
L 245.302337 188.517294 
L 246.114989 206.702275 
L 246.521315 201.228727 
L 246.927641 200.457272 
L 247.333967 204.751685 
L 247.740294 202.874892 
L 248.14662 200.358546 
L 248.552946 205.159213 
L 248.959272 204.976972 
L 249.365598 202.564612 
L 249.771924 205.696977 
L 250.17825 205.902464 
L 250.584576 206.442157 
L 250.990902 96.556748 
L 251.397228 173.424633 
L 251.803554 208.79259 
L 252.209881 208.620432 
L 252.616207 208.962526 
L 253.022533 208.993948 
L 253.428859 217.377158 
L 253.835185 214.711901 
L 254.241511 217.083935 
L 254.647837 214.728276 
L 255.054163 217.795733 
L 255.460489 215.233016 
L 255.866815 216.004329 
L 256.679468 205.70849 
L 257.085794 207.213069 
L 257.49212 207.244935 
L 257.898446 215.021282 
L 258.304772 207.522158 
L 258.711098 205.739828 
L 259.117424 204.845437 
L 259.52375 209.394467 
L 259.930076 209.304498 
L 260.336402 202.248676 
L 260.742728 206.024707 
L 261.149054 70.811381 
L 261.555381 147.285496 
L 261.961707 187.520172 
L 262.368033 200.986528 
L 262.774359 198.4912 
L 263.180685 201.706168 
L 263.587011 210.99584 
L 263.993337 210.575961 
L 264.805989 210.514955 
L 265.212315 210.886298 
L 265.618641 210.573188 
L 266.024968 211.7672 
L 266.83762 216.268263 
L 267.243946 205.913889 
L 267.650272 208.548589 
L 268.056598 211.937899 
L 268.462924 212.929204 
L 268.86925 214.563303 
L 269.275576 213.998395 
L 269.681902 215.259376 
L 270.088228 214.130128 
L 270.494555 217.326449 
L 270.900881 217.822136 
L 271.307207 212.50004 
L 271.713533 212.739289 
L 272.119859 209.660865 
L 272.526185 207.534453 
L 272.932511 204.445463 
L 273.338837 190.163103 
L 273.745163 183.168283 
L 274.557815 209.030285 
L 274.964142 211.709376 
L 275.370468 203.480113 
L 275.776794 212.310893 
L 276.18312 214.528404 
L 276.589446 209.10801 
L 276.995772 211.927038 
L 277.402098 211.294103 
L 278.621076 214.518378 
L 279.027402 208.65309 
L 279.433729 213.030095 
L 279.840055 215.838834 
L 280.246381 206.674739 
L 280.652707 207.252273 
L 281.059033 200.904099 
L 281.465359 200.854413 
L 281.871685 196.064041 
L 282.278011 204.125267 
L 283.090663 214.75967 
L 283.496989 201.121959 
L 283.903316 200.965122 
L 284.309642 211.365606 
L 284.715968 215.344511 
L 285.122294 217.054986 
L 285.52862 199.645743 
L 286.341272 210.57668 
L 286.747598 209.947936 
L 287.153924 214.289894 
L 287.56025 209.0112 
L 287.966576 209.653514 
L 288.372902 220.103962 
L 288.779229 222.016304 
L 289.185555 216.806494 
L 289.998207 218.499602 
L 290.810859 201.427774 
L 291.217185 181.939959 
L 291.623511 198.312386 
L 292.029837 206.032276 
L 292.842489 202.280105 
L 293.248816 192.746722 
L 294.061468 209.091887 
L 294.467794 197.139913 
L 294.87412 207.78071 
L 295.280446 198.860675 
L 295.686772 205.626498 
L 296.093098 200.5684 
L 296.499424 94.372192 
L 297.312076 196.590364 
L 297.718403 205.810939 
L 298.124729 207.059184 
L 298.531055 212.50207 
L 298.937381 209.199573 
L 299.343707 208.544408 
L 300.156359 210.328318 
L 301.375337 208.957674 
L 301.781663 209.749368 
L 302.18799 207.92541 
L 302.594316 210.897933 
L 303.000642 212.235705 
L 303.406968 215.497545 
L 303.813294 206.559545 
L 304.21962 213.467325 
L 304.625946 215.081636 
L 305.032272 215.009522 
L 305.438598 212.013383 
L 305.844924 211.062244 
L 306.25125 203.084667 
L 306.657577 208.545915 
L 307.063903 211.699331 
L 307.470229 210.701349 
L 307.876555 216.78181 
L 308.282881 211.478014 
L 308.689207 210.813174 
L 309.095533 210.626552 
L 309.908185 214.559707 
L 310.314511 208.945307 
L 310.720837 214.831707 
L 311.127163 214.544057 
L 311.53349 218.726177 
L 311.939816 213.144271 
L 312.752468 220.410911 
L 313.158794 215.459223 
L 314.377772 208.830824 
L 314.784098 204.259437 
L 315.190424 211.077631 
L 315.59675 212.571968 
L 316.003077 210.084344 
L 316.409403 206.131182 
L 316.815729 206.894446 
L 317.628381 207.555968 
L 318.034707 213.392854 
L 318.847359 209.645954 
L 319.253685 208.177495 
L 319.660011 211.87279 
L 320.066337 214.331521 
L 320.472664 210.185124 
L 320.87899 209.300105 
L 321.285316 212.87332 
L 321.691642 211.1799 
L 322.097968 212.474168 
L 322.504294 210.928044 
L 322.91062 211.129417 
L 323.316946 208.07707 
L 324.129598 209.828762 
L 324.535924 209.625757 
L 324.942251 210.289767 
L 325.348577 210.299795 
L 325.754903 209.91273 
L 326.161229 211.387855 
L 326.567555 209.521876 
L 326.973881 209.688539 
L 327.380207 209.677534 
L 327.786533 209.814262 
L 328.192859 212.538712 
L 329.005511 211.111972 
L 329.411838 209.959628 
L 329.818164 209.297648 
L 330.22449 207.458991 
L 330.630816 209.093136 
L 331.037142 205.266294 
L 331.443468 202.676476 
L 331.849794 193.1325 
L 332.25612 200.929324 
L 332.662446 191.575053 
L 333.068772 206.73204 
L 333.475098 190.423658 
L 333.881425 185.357961 
L 334.287751 199.940104 
L 334.694077 206.565515 
L 335.100403 219.010257 
L 335.506729 208.733927 
L 335.913055 207.516966 
L 336.319381 208.32952 
L 336.725707 204.862652 
L 337.132033 200.227283 
L 337.538359 202.445057 
L 337.944685 200.866839 
L 338.351011 193.4328 
L 338.757338 188.23027 
L 339.163664 207.961838 
L 339.56999 195.80175 
L 339.976316 205.425799 
L 340.382642 207.733884 
L 340.788968 212.727765 
L 341.195294 194.704354 
L 341.60162 189.901633 
L 342.007946 200.606489 
L 342.414272 206.620421 
L 343.226925 211.095049 
L 343.633251 209.006933 
L 344.039577 210.880455 
L 344.445903 210.048275 
L 344.852229 208.328089 
L 345.258555 208.54094 
L 345.664881 209.696402 
L 346.071207 209.059416 
L 346.477533 211.981544 
L 347.290185 211.251125 
L 347.696512 209.607927 
L 348.102838 204.151108 
L 348.509164 208.604823 
L 348.91549 204.870216 
L 349.321816 213.090959 
L 349.728142 212.244903 
L 350.134468 212.253101 
L 350.540794 206.784389 
L 350.94712 208.296867 
L 351.353446 195.952583 
L 351.759772 205.685937 
L 352.166099 191.199939 
L 352.572425 183.620915 
L 352.978751 179.541681 
L 353.385077 178.794681 
L 353.791403 183.163568 
L 354.604055 212.301445 
L 355.010381 211.018979 
L 355.416707 195.743315 
L 355.823033 193.150656 
L 356.635686 212.575408 
L 357.042012 213.487805 
L 357.448338 203.44952 
L 357.854664 205.116949 
L 358.26099 214.797892 
L 358.667316 209.91347 
L 359.073642 209.197531 
L 359.479968 211.257339 
L 359.886294 208.258864 
L 360.29262 200.067272 
L 360.698946 200.263234 
L 361.511599 209.532217 
L 361.917925 206.947322 
L 362.324251 209.080451 
L 362.730577 208.888101 
L 363.136903 208.037963 
L 363.543229 206.195982 
L 364.355881 206.034127 
L 364.762207 206.69295 
L 365.168533 203.320942 
L 365.574859 194.770665 
L 365.981186 207.816007 
L 366.387512 208.510118 
L 366.793838 209.993339 
L 367.200164 208.628352 
L 367.60649 205.677353 
L 368.012816 204.683544 
L 368.419142 207.776813 
L 368.825468 208.123236 
L 369.231794 205.461225 
L 369.63812 206.667508 
L 370.044446 202.909776 
L 370.450773 206.516077 
L 370.857099 206.572112 
L 371.263425 207.690498 
L 371.669751 202.719044 
L 372.076077 201.135664 
L 372.482403 199.101211 
L 372.888729 213.299382 
L 373.295055 213.919158 
L 373.701381 212.285562 
L 374.107707 212.213061 
L 374.514033 202.509815 
L 374.92036 209.299275 
L 375.326686 196.333733 
L 375.733012 191.483556 
L 376.139338 202.082573 
L 376.545664 198.657688 
L 377.358316 212.356345 
L 377.764642 208.253202 
L 378.170968 200.50189 
L 378.577294 208.183764 
L 378.98362 210.55287 
L 379.389947 203.30003 
L 379.796273 205.336267 
L 380.202599 220.167329 
L 380.608925 214.883115 
L 381.015251 215.425939 
L 381.421577 185.942118 
L 381.827903 188.246534 
L 383.046881 211.845601 
L 383.453207 209.00664 
L 383.859534 208.480673 
L 384.26586 213.532666 
L 384.672186 215.120223 
L 385.078512 211.814132 
L 385.484838 206.058349 
L 385.891164 204.783691 
L 386.29749 204.704763 
L 386.703816 194.252943 
L 387.110142 204.202477 
L 387.516468 209.133247 
L 388.32912 202.748285 
L 388.735447 207.00273 
L 389.141773 208.042981 
L 389.548099 206.280196 
L 389.954425 155.436114 
L 390.360751 190.577771 
L 390.767077 203.460746 
L 391.173403 207.809969 
L 391.579729 209.844365 
L 391.986055 204.83932 
L 392.392381 180.732 
L 392.798707 204.537465 
L 393.205034 211.740047 
L 393.61136 209.32388 
L 394.017686 212.908981 
L 394.424012 211.120386 
L 394.830338 207.352545 
L 395.236664 207.655647 
L 395.64299 209.376799 
L 396.049316 209.307149 
L 396.455642 199.900094 
L 396.861968 208.79259 
L 397.268294 209.628499 
L 397.674621 208.327985 
L 398.080947 201.5529 
L 398.487273 201.036133 
L 398.487273 201.036133 
" style="fill:none;stroke:#1f77b4;stroke-linecap:square;stroke-width:1.5;"/>
   </g>
   <g id="line2d_18">
    <path clip-path="url(#p151509af0f)" d="M 73.832727 293.882384 
L 75.051706 294.777853 
L 75.458032 294.186287 
L 75.864358 294.556401 
L 76.270684 294.671473 
L 76.67701 294.336427 
L 77.083336 295.10978 
L 77.489662 295.289364 
L 77.895988 293.153572 
L 79.114966 293.310375 
L 79.521293 295.356048 
L 79.927619 293.309494 
L 80.333945 293.693518 
L 80.740271 295.033648 
L 81.146597 294.287055 
L 81.552923 294.792071 
L 81.959249 294.386478 
L 82.365575 295.117958 
L 83.178227 295.033244 
L 83.584553 292.345536 
L 83.99088 293.755102 
L 84.397206 294.742412 
L 84.803532 295.263871 
L 85.209858 294.476026 
L 85.616184 294.213181 
L 86.428836 294.977678 
L 86.835162 294.303002 
L 87.647814 294.488733 
L 88.05414 293.737047 
L 88.866793 295.272528 
L 89.273119 294.846554 
L 89.679445 293.780411 
L 90.085771 295.393889 
L 90.492097 294.156469 
L 90.898423 295.387805 
L 91.304749 295.181277 
L 91.711075 295.397743 
L 92.117401 295.194182 
L 92.523727 290.85733 
L 92.930053 294.341037 
L 93.742706 294.749522 
L 94.149032 293.931888 
L 94.555358 294.368975 
L 94.961684 294.212609 
L 95.36801 295.052475 
L 95.774336 294.650759 
L 96.180662 294.830953 
L 96.586988 294.866152 
L 97.39964 294.270091 
L 97.805967 295.226933 
L 98.212293 295.262989 
L 98.618619 295.439382 
L 99.024945 293.475345 
L 99.431271 294.509309 
L 99.837597 293.090507 
L 100.243923 295.447627 
L 100.650249 291.419666 
L 101.056575 292.266061 
L 101.869227 295.170182 
L 102.275554 293.901755 
L 102.68188 294.777585 
L 103.088206 295.140534 
L 103.494532 294.630519 
L 103.900858 294.686022 
L 104.307184 295.379854 
L 104.71351 295.155987 
L 105.119836 295.166391 
L 105.526162 295.021519 
L 105.932488 294.37336 
L 106.338814 295.263414 
L 106.745141 293.606983 
L 107.151467 293.875928 
L 107.557793 293.82203 
L 107.964119 294.66485 
L 108.370445 294.419177 
L 108.776771 294.992744 
L 109.589423 294.039472 
L 109.995749 294.310381 
L 110.402075 294.969048 
L 110.808401 294.800905 
L 111.214728 295.162725 
L 111.621054 295.126042 
L 112.02738 291.652272 
L 112.433706 294.450501 
L 112.840032 294.07578 
L 113.246358 295.426928 
L 113.652684 295.325496 
L 114.05901 294.193911 
L 114.465336 295.260905 
L 114.871662 292.477729 
L 115.277988 292.640123 
L 115.684314 294.167833 
L 116.090641 294.998631 
L 116.496967 294.042484 
L 116.903293 294.794378 
L 117.309619 294.265291 
L 117.715945 294.483487 
L 118.122271 294.941672 
L 118.934923 295.292854 
L 119.341249 294.707253 
L 119.747575 294.633987 
L 120.153901 294.69555 
L 120.560228 294.929945 
L 120.966554 293.824151 
L 121.37288 294.901653 
L 121.779206 294.6661 
L 122.185532 294.960208 
L 122.591858 295.076397 
L 122.998184 292.932952 
L 123.40451 294.901226 
L 123.810836 293.431434 
L 124.623488 295.130568 
L 125.029815 293.008891 
L 125.436141 294.45727 
L 125.842467 294.853576 
L 126.248793 294.833827 
L 126.655119 293.747359 
L 127.061445 293.630893 
L 127.467771 294.985755 
L 127.874097 293.850883 
L 128.280423 293.887156 
L 128.686749 293.796154 
L 129.093075 295.093163 
L 129.905728 292.525919 
L 130.312054 293.097988 
L 130.71838 295.390487 
L 131.124706 294.16213 
L 131.531032 293.403805 
L 131.937358 294.942258 
L 132.343684 294.228285 
L 132.75001 295.173598 
L 133.156336 293.725067 
L 133.562662 293.753864 
L 133.968989 293.607351 
L 134.375315 295.04511 
L 134.781641 295.151938 
L 135.187967 293.579721 
L 135.594293 295.172463 
L 136.000619 294.266623 
L 136.406945 294.257895 
L 136.813271 294.806841 
L 137.219597 294.214001 
L 137.625923 295.058005 
L 138.032249 295.163783 
L 138.438575 294.329854 
L 138.844902 290.209187 
L 139.251228 295.012258 
L 139.657554 294.942427 
L 140.06388 294.736605 
L 140.470206 295.149297 
L 140.876532 294.449472 
L 141.282858 295.040737 
L 141.689184 294.623268 
L 142.09551 293.078726 
L 142.501836 292.908966 
L 142.908162 294.472811 
L 143.314489 295.12375 
L 143.720815 294.225058 
L 144.127141 291.215458 
L 144.533467 293.586097 
L 144.939793 294.658246 
L 145.346119 295.344391 
L 146.158771 295.363996 
L 146.565097 294.659271 
L 146.971423 294.516369 
L 147.377749 295.144011 
L 147.784076 295.475103 
L 148.596728 293.960939 
L 149.003054 294.256028 
L 149.40938 295.055367 
L 149.815706 294.360966 
L 150.222032 294.333059 
L 150.628358 295.174189 
L 151.034684 295.387229 
L 151.44101 295.425801 
L 151.847336 293.283258 
L 152.253663 292.038503 
L 152.659989 295.032844 
L 153.066315 294.648656 
L 153.472641 293.205869 
L 153.878967 294.993491 
L 154.285293 295.273784 
L 154.691619 294.312805 
L 155.097945 294.458822 
L 155.504271 294.247019 
L 155.910597 295.208953 
L 156.316923 294.503724 
L 156.72325 295.051438 
L 157.129576 295.045166 
L 157.535902 293.496938 
L 157.942228 293.44816 
L 158.348554 293.233064 
L 158.75488 294.521011 
L 159.161206 294.01915 
L 159.567532 294.317441 
L 159.973858 295.398359 
L 160.380184 294.056649 
L 160.78651 294.38631 
L 161.192837 293.252097 
L 161.599163 293.6987 
L 162.005489 293.934437 
L 162.411815 295.158707 
L 162.818141 293.929607 
L 163.224467 293.655198 
L 163.630793 294.088464 
L 164.037119 295.164911 
L 164.443445 294.924364 
L 164.849771 294.908426 
L 165.256097 295.430627 
L 165.662423 294.884454 
L 166.06875 293.240611 
L 166.881402 293.995522 
L 167.287728 294.759969 
L 167.694054 291.444947 
L 168.10038 294.530507 
L 168.506706 294.020736 
L 168.913032 293.297519 
L 169.319358 295.185229 
L 169.725684 292.022218 
L 170.13201 293.954811 
L 170.538337 294.735985 
L 170.944663 293.748822 
L 171.350989 294.63468 
L 171.757315 295.158734 
L 172.163641 294.348859 
L 172.976293 294.645524 
L 173.788945 293.762278 
L 174.195271 294.514811 
L 174.601597 294.953079 
L 175.007924 294.970833 
L 175.41425 293.141405 
L 175.820576 294.257507 
L 176.226902 294.348573 
L 176.633228 295.112346 
L 177.44588 294.200193 
L 177.852206 293.593323 
L 178.258532 294.640706 
L 178.664858 293.679967 
L 179.071184 294.054243 
L 179.477511 295.030583 
L 179.883837 294.468847 
L 180.290163 290.489063 
L 180.696489 294.8071 
L 181.102815 295.424301 
L 181.509141 294.43539 
L 181.915467 294.767105 
L 182.321793 295.392102 
L 182.728119 294.837057 
L 183.134445 295.098121 
L 183.540771 292.853646 
L 183.947098 295.093837 
L 184.353424 293.450941 
L 184.75975 294.61978 
L 185.166076 294.629625 
L 185.572402 294.340795 
L 185.978728 294.464549 
L 186.385054 293.764666 
L 186.79138 293.630465 
L 187.197706 294.038845 
L 187.604032 293.242175 
L 188.010358 289.529546 
L 188.416684 288.575346 
L 188.823011 293.495064 
L 189.229337 293.108819 
L 189.635663 295.185548 
L 190.041989 294.447781 
L 190.448315 294.115782 
L 190.854641 294.129586 
L 191.260967 294.498447 
L 191.667293 294.46911 
L 192.073619 294.008914 
L 192.479945 294.968121 
L 192.886271 291.582244 
L 193.292598 291.078424 
L 193.698924 292.350978 
L 194.10525 292.515373 
L 194.511576 293.791889 
L 194.917902 291.787674 
L 195.324228 292.233073 
L 195.730554 292.032312 
L 196.13688 294.374381 
L 196.543206 294.28177 
L 196.949532 293.4697 
L 197.355858 292.915457 
L 197.762185 295.224045 
L 198.168511 295.085616 
L 198.574837 294.478429 
L 198.981163 295.112579 
L 199.387489 293.670944 
L 199.793815 295.091715 
L 200.606467 295.323085 
L 201.012793 295.043488 
L 201.419119 295.044653 
L 201.825445 294.850798 
L 203.044424 295.262026 
L 203.45075 295.15923 
L 203.857076 295.280951 
L 204.263402 294.399449 
L 204.669728 294.644188 
L 205.076054 295.213317 
L 205.48238 294.849166 
L 205.888706 292.201045 
L 206.295032 290.545207 
L 206.701359 294.691091 
L 207.107685 287.236703 
L 207.514011 286.943447 
L 207.920337 293.860978 
L 208.326663 286.626951 
L 208.732989 285.361993 
L 209.951967 286.830201 
L 210.358293 283.19172 
L 210.764619 283.387932 
L 211.170946 293.502666 
L 211.577272 294.983283 
L 211.983598 294.856966 
L 212.389924 295.087203 
L 212.79625 293.151559 
L 213.202576 293.716878 
L 213.608902 291.88791 
L 214.015228 295.070595 
L 214.421554 295.072711 
L 214.82788 294.52153 
L 215.234206 295.032094 
L 216.453185 295.047842 
L 216.859511 293.315662 
L 217.672163 295.131512 
L 218.078489 295.398956 
L 218.484815 294.875476 
L 218.891141 293.886089 
L 219.297467 294.793904 
L 220.110119 294.829223 
L 220.516446 294.05801 
L 220.922772 294.950841 
L 221.329098 295.34795 
L 221.735424 294.470967 
L 222.14175 295.34927 
L 222.548076 294.083144 
L 222.954402 294.976153 
L 223.360728 295.300563 
L 223.767054 293.361261 
L 224.17338 294.38575 
L 224.579706 294.135791 
L 224.986033 292.44864 
L 225.392359 294.331202 
L 225.798685 295.029289 
L 226.205011 293.8969 
L 226.611337 294.783819 
L 227.017663 295.087213 
L 227.423989 294.593347 
L 227.830315 295.093237 
L 228.236641 294.479368 
L 228.642967 293.513396 
L 229.049293 294.096517 
L 229.45562 294.474601 
L 229.861946 295.019525 
L 230.268272 294.467058 
L 230.674598 289.600476 
L 231.080924 294.984028 
L 231.48725 294.356624 
L 231.893576 293.478876 
L 232.299902 293.591464 
L 232.706228 295.213776 
L 233.112554 293.349058 
L 233.51888 294.577074 
L 234.331533 294.720963 
L 234.737859 294.504284 
L 235.550511 295.360602 
L 235.956837 294.628671 
L 236.363163 294.82002 
L 236.769489 293.639613 
L 237.175815 293.275241 
L 237.582141 294.110087 
L 237.988467 293.175668 
L 238.394793 295.158176 
L 238.80112 293.599654 
L 239.207446 295.010414 
L 239.613772 294.826528 
L 240.020098 294.8164 
L 240.426424 292.73853 
L 240.83275 294.77074 
L 241.239076 295.019503 
L 241.645402 294.856108 
L 242.051728 295.161744 
L 242.458054 293.445351 
L 242.86438 292.83124 
L 243.270707 291.651736 
L 243.677033 291.355472 
L 244.083359 294.020386 
L 244.489685 295.210464 
L 244.896011 291.55949 
L 245.302337 291.264246 
L 245.708663 294.947959 
L 246.114989 294.18641 
L 246.521315 294.353285 
L 246.927641 294.001245 
L 247.333967 294.090143 
L 247.740294 292.339092 
L 248.14662 292.581707 
L 248.552946 292.0044 
L 248.959272 294.472234 
L 249.365598 294.464382 
L 249.771924 294.949203 
L 250.17825 295.0609 
L 250.584576 292.248952 
L 251.803554 294.845454 
L 252.209881 293.883951 
L 252.616207 291.452897 
L 253.022533 294.622269 
L 253.428859 294.112011 
L 253.835185 291.519832 
L 254.241511 293.566968 
L 254.647837 293.82329 
L 255.054163 293.118575 
L 255.460489 293.966568 
L 255.866815 293.768982 
L 256.273141 293.261368 
L 257.085794 294.387132 
L 257.49212 291.960703 
L 257.898446 293.745245 
L 258.304772 291.870416 
L 258.711098 294.668111 
L 259.117424 291.223275 
L 259.52375 295.12163 
L 259.930076 295.323695 
L 260.336402 294.146442 
L 260.742728 294.34661 
L 261.149054 293.845162 
L 261.555381 294.437998 
L 261.961707 292.653175 
L 262.368033 291.902566 
L 263.180685 292.095088 
L 263.587011 293.435613 
L 263.993337 292.192444 
L 264.399663 293.833848 
L 264.805989 294.304234 
L 265.212315 292.923711 
L 265.618641 295.285099 
L 266.024968 295.089777 
L 266.431294 295.27848 
L 266.83762 295.046174 
L 267.243946 294.609408 
L 267.650272 295.459914 
L 268.056598 294.712935 
L 268.462924 295.189674 
L 268.86925 294.341355 
L 269.275576 295.254673 
L 270.088228 294.804598 
L 270.900881 295.454824 
L 271.307207 294.917968 
L 272.119859 295.384974 
L 272.526185 295.06782 
L 272.932511 295.051639 
L 273.338837 294.129939 
L 273.745163 294.936252 
L 274.151489 294.812709 
L 274.557815 295.192957 
L 274.964142 295.381563 
L 275.370468 295.214021 
L 275.776794 295.216834 
L 276.18312 295.03724 
L 276.589446 295.251451 
L 276.995772 294.899846 
L 277.402098 295.190126 
L 277.808424 295.174644 
L 278.21475 295.270978 
L 278.621076 295.224955 
L 279.433729 294.748904 
L 279.840055 295.436932 
L 280.246381 295.262784 
L 280.652707 295.261051 
L 281.059033 294.59659 
L 281.465359 294.529852 
L 282.278011 295.451534 
L 282.684337 295.144962 
L 283.090663 295.123947 
L 283.496989 295.467794 
L 283.903316 295.033352 
L 286.341272 295.003219 
L 286.747598 295.141186 
L 287.153924 294.809121 
L 288.372902 295.174086 
L 288.779229 294.909539 
L 289.185555 295.106192 
L 289.591881 294.809098 
L 289.998207 295.094038 
L 290.404533 294.851598 
L 290.810859 295.147907 
L 292.029837 295.061283 
L 292.436163 295.475676 
L 293.248816 295.435551 
L 293.655142 295.178937 
L 294.061468 295.161988 
L 294.467794 295.488 
L 294.87412 294.63726 
L 295.686772 294.758329 
L 296.093098 295.098451 
L 296.499424 295.027095 
L 296.90575 294.784968 
L 297.312076 294.758585 
L 298.124729 295.283725 
L 298.531055 295.229562 
L 298.937381 294.958531 
L 299.750033 294.97821 
L 300.156359 294.427588 
L 300.562685 295.37541 
L 300.969011 294.762243 
L 301.375337 295.242114 
L 301.781663 294.258322 
L 302.18799 294.333351 
L 302.594316 294.644718 
L 303.000642 294.648694 
L 303.406968 294.93381 
L 303.813294 294.441754 
L 304.21962 294.51841 
L 304.625946 294.380473 
L 305.032272 295.372622 
L 305.844924 295.370822 
L 306.25125 295.363787 
L 306.657577 295.228044 
L 307.063903 295.459121 
L 309.095533 295.324399 
L 309.501859 294.522588 
L 310.314511 294.540465 
L 310.720837 294.173728 
L 311.127163 294.212621 
L 311.53349 294.989344 
L 311.939816 294.863028 
L 312.346142 294.905232 
L 312.752468 294.750451 
L 313.158794 294.46242 
L 314.377772 294.560487 
L 314.784098 294.732353 
L 315.190424 294.365776 
L 315.59675 294.438208 
L 316.815729 295.026893 
L 317.222055 294.2744 
L 317.628381 294.275153 
L 318.034707 295.302483 
L 320.066337 295.362496 
L 320.472664 294.799372 
L 320.87899 295.065272 
L 321.285316 295.184615 
L 321.691642 294.751273 
L 322.097968 295.0845 
L 322.504294 294.552206 
L 322.91062 295.294706 
L 323.316946 293.367305 
L 323.723272 294.298154 
L 324.129598 294.911477 
L 324.535924 294.733441 
L 324.942251 294.845541 
L 326.567555 294.697785 
L 326.973881 295.340269 
L 327.380207 294.906682 
L 327.786533 295.007277 
L 328.192859 292.48601 
L 328.599185 294.688393 
L 329.005511 295.446446 
L 329.411838 294.019084 
L 329.818164 294.829107 
L 330.22449 294.677216 
L 331.037142 295.390461 
L 331.443468 294.627852 
L 331.849794 295.196099 
L 332.25612 294.796053 
L 332.662446 293.934377 
L 333.068772 295.268849 
L 333.475098 294.843108 
L 333.881425 295.180286 
L 334.287751 294.786369 
L 334.694077 295.286643 
L 335.100403 295.360474 
L 335.506729 294.796479 
L 335.913055 294.441819 
L 336.319381 295.262924 
L 336.725707 295.273063 
L 337.132033 294.426059 
L 337.538359 294.731637 
L 339.56999 295.382939 
L 340.788968 295.385052 
L 341.60162 295.071041 
L 342.007946 295.41848 
L 342.414272 294.699197 
L 342.820598 294.448549 
L 343.226925 295.321528 
L 343.633251 295.399329 
L 344.039577 294.399249 
L 345.664881 294.609398 
L 346.071207 295.091705 
L 346.883859 295.247753 
L 347.290185 294.63067 
L 347.696512 294.623617 
L 348.102838 295.484438 
L 348.509164 294.376275 
L 348.91549 294.280229 
L 349.321816 294.964634 
L 349.728142 295.393271 
L 350.134468 295.281218 
L 350.540794 295.367952 
L 350.94712 294.648264 
L 351.353446 295.413509 
L 352.166099 294.519049 
L 352.572425 295.405805 
L 352.978751 295.315657 
L 353.385077 295.35544 
L 353.791403 295.234885 
L 354.197729 295.40889 
L 355.010381 295.378234 
L 355.416707 294.968558 
L 355.823033 294.951563 
L 356.229359 294.724997 
L 356.635686 295.368997 
L 357.448338 295.352479 
L 357.854664 294.995262 
L 358.26099 294.942199 
L 358.667316 295.413281 
L 359.073642 295.422888 
L 359.479968 295.042358 
L 359.886294 295.280332 
L 360.698946 294.168202 
L 361.105272 295.419265 
L 361.511599 295.396387 
L 361.917925 294.47209 
L 362.324251 295.346193 
L 363.136903 295.07061 
L 363.543229 294.190828 
L 364.355881 295.198098 
L 364.762207 295.21319 
L 365.168533 295.099668 
L 365.574859 295.320025 
L 365.981186 295.01147 
L 367.200164 295.104484 
L 368.012816 295.316222 
L 368.419142 294.474694 
L 368.825468 290.077286 
L 369.231794 293.394866 
L 369.63812 294.590553 
L 370.044446 294.399223 
L 370.450773 295.209384 
L 370.857099 295.453797 
L 371.669751 295.476737 
L 372.076077 295.150233 
L 372.482403 291.838385 
L 372.888729 295.367014 
L 373.701381 295.357448 
L 374.107707 294.316236 
L 374.514033 295.35574 
L 374.92036 292.778126 
L 375.326686 292.609252 
L 375.733012 295.219906 
L 376.139338 295.344334 
L 376.545664 294.782121 
L 376.95199 294.454824 
L 377.358316 294.562382 
L 377.764642 295.466375 
L 378.577294 295.429446 
L 378.98362 295.068279 
L 379.389947 295.448434 
L 379.796273 295.358528 
L 381.015251 295.397417 
L 381.421577 295.428086 
L 381.827903 295.305388 
L 382.234229 293.69841 
L 382.640555 294.680091 
L 383.046881 295.215032 
L 383.453207 295.047486 
L 383.859534 294.436045 
L 384.26586 295.326399 
L 385.078512 295.16942 
L 385.891164 294.05984 
L 386.29749 293.920292 
L 386.703816 294.162275 
L 387.110142 295.260186 
L 387.922794 295.023607 
L 388.32912 294.935607 
L 388.735447 292.866306 
L 389.141773 295.239765 
L 389.548099 294.598843 
L 389.954425 294.380393 
L 390.767077 293.469711 
L 391.173403 295.249184 
L 391.579729 293.075539 
L 391.986055 292.493274 
L 392.392381 292.786063 
L 392.798707 295.451329 
L 393.205034 295.456579 
L 393.61136 292.896904 
L 394.017686 292.902373 
L 394.424012 294.006521 
L 394.830338 291.2154 
L 395.236664 293.92775 
L 395.64299 294.199147 
L 396.049316 295.236988 
L 396.455642 295.056573 
L 396.861968 293.98516 
L 397.268294 295.283184 
L 398.080947 295.075337 
L 398.487273 295.067597 
L 398.487273 295.067597 
" style="fill:none;stroke:#ff7f0e;stroke-linecap:square;stroke-width:1.5;"/>
   </g>
   <g id="patch_3">
    <path d="M 57.6 307.584 
L 57.6 41.472 
" style="fill:none;stroke:#000000;stroke-linecap:square;stroke-linejoin:miter;stroke-width:0.8;"/>
   </g>
   <g id="patch_4">
    <path d="M 414.72 307.584 
L 414.72 41.472 
" style="fill:none;stroke:#000000;stroke-linecap:square;stroke-linejoin:miter;stroke-width:0.8;"/>
   </g>
   <g id="patch_5">
    <path d="M 57.6 307.584 
L 414.72 307.584 
" style="fill:none;stroke:#000000;stroke-linecap:square;stroke-linejoin:miter;stroke-width:0.8;"/>
   </g>
   <g id="patch_6">
    <path d="M 57.6 41.472 
L 414.72 41.472 
" style="fill:none;stroke:#000000;stroke-linecap:square;stroke-linejoin:miter;stroke-width:0.8;"/>
   </g>
  </g>
 </g>
 <defs>
  <clipPath id="p151509af0f">
   <rect height="266.112" width="357.12" x="57.6" y="41.472"/>
  </clipPath>
 </defs>
</svg>
