<?xml version="1.0" encoding="utf-8" standalone="no"?>
<!DOCTYPE svg PUBLIC "-//W3C//DTD SVG 1.1//EN"
  "http://www.w3.org/Graphics/SVG/1.1/DTD/svg11.dtd">
<!-- Created with matplotlib (https://matplotlib.org/) -->
<svg height="345.6pt" version="1.1" viewBox="0 0 460.8 345.6" width="460.8pt" xmlns="http://www.w3.org/2000/svg" xmlns:xlink="http://www.w3.org/1999/xlink">
 <defs>
  <style type="text/css">
*{stroke-linecap:butt;stroke-linejoin:round;}
  </style>
 </defs>
 <g id="figure_1">
  <g id="patch_1">
   <path d="M 0 345.6 
L 460.8 345.6 
L 460.8 0 
L 0 0 
z
" style="fill:#ffffff;"/>
  </g>
  <g id="axes_1">
   <g id="patch_2">
    <path d="M 57.6 307.584 
L 414.72 307.584 
L 414.72 41.472 
L 57.6 41.472 
z
" style="fill:#ffffff;"/>
   </g>
   <g id="matplotlib.axis_1">
    <g id="xtick_1">
     <g id="line2d_1">
      <defs>
       <path d="M 0 0 
L 0 3.5 
" id="m38a395b42f" style="stroke:#000000;stroke-width:0.8;"/>
      </defs>
      <g>
       <use style="stroke:#000000;stroke-width:0.8;" x="73.832727" xlink:href="#m38a395b42f" y="307.584"/>
      </g>
     </g>
     <g id="text_1">
      <!-- 0 -->
      <defs>
       <path d="M 31.78125 66.40625 
Q 24.171875 66.40625 20.328125 58.90625 
Q 16.5 51.421875 16.5 36.375 
Q 16.5 21.390625 20.328125 13.890625 
Q 24.171875 6.390625 31.78125 6.390625 
Q 39.453125 6.390625 43.28125 13.890625 
Q 47.125 21.390625 47.125 36.375 
Q 47.125 51.421875 43.28125 58.90625 
Q 39.453125 66.40625 31.78125 66.40625 
z
M 31.78125 74.21875 
Q 44.046875 74.21875 50.515625 64.515625 
Q 56.984375 54.828125 56.984375 36.375 
Q 56.984375 17.96875 50.515625 8.265625 
Q 44.046875 -1.421875 31.78125 -1.421875 
Q 19.53125 -1.421875 13.0625 8.265625 
Q 6.59375 17.96875 6.59375 36.375 
Q 6.59375 54.828125 13.0625 64.515625 
Q 19.53125 74.21875 31.78125 74.21875 
z
" id="DejaVuSans-48"/>
      </defs>
      <g transform="translate(70.651477 322.182437)scale(0.1 -0.1)">
       <use xlink:href="#DejaVuSans-48"/>
      </g>
     </g>
    </g>
    <g id="xtick_2">
     <g id="line2d_2">
      <g>
       <use style="stroke:#000000;stroke-width:0.8;" x="114.465336" xlink:href="#m38a395b42f" y="307.584"/>
      </g>
     </g>
     <g id="text_2">
      <!-- 100 -->
      <defs>
       <path d="M 12.40625 8.296875 
L 28.515625 8.296875 
L 28.515625 63.921875 
L 10.984375 60.40625 
L 10.984375 69.390625 
L 28.421875 72.90625 
L 38.28125 72.90625 
L 38.28125 8.296875 
L 54.390625 8.296875 
L 54.390625 0 
L 12.40625 0 
z
" id="DejaVuSans-49"/>
      </defs>
      <g transform="translate(104.921586 322.182437)scale(0.1 -0.1)">
       <use xlink:href="#DejaVuSans-49"/>
       <use x="63.623047" xlink:href="#DejaVuSans-48"/>
       <use x="127.246094" xlink:href="#DejaVuSans-48"/>
      </g>
     </g>
    </g>
    <g id="xtick_3">
     <g id="line2d_3">
      <g>
       <use style="stroke:#000000;stroke-width:0.8;" x="155.097945" xlink:href="#m38a395b42f" y="307.584"/>
      </g>
     </g>
     <g id="text_3">
      <!-- 200 -->
      <defs>
       <path d="M 19.1875 8.296875 
L 53.609375 8.296875 
L 53.609375 0 
L 7.328125 0 
L 7.328125 8.296875 
Q 12.9375 14.109375 22.625 23.890625 
Q 32.328125 33.6875 34.8125 36.53125 
Q 39.546875 41.84375 41.421875 45.53125 
Q 43.3125 49.21875 43.3125 52.78125 
Q 43.3125 58.59375 39.234375 62.25 
Q 35.15625 65.921875 28.609375 65.921875 
Q 23.96875 65.921875 18.8125 64.3125 
Q 13.671875 62.703125 7.8125 59.421875 
L 7.8125 69.390625 
Q 13.765625 71.78125 18.9375 73 
Q 24.125 74.21875 28.421875 74.21875 
Q 39.75 74.21875 46.484375 68.546875 
Q 53.21875 62.890625 53.21875 53.421875 
Q 53.21875 48.921875 51.53125 44.890625 
Q 49.859375 40.875 45.40625 35.40625 
Q 44.1875 33.984375 37.640625 27.21875 
Q 31.109375 20.453125 19.1875 8.296875 
z
" id="DejaVuSans-50"/>
      </defs>
      <g transform="translate(145.554195 322.182437)scale(0.1 -0.1)">
       <use xlink:href="#DejaVuSans-50"/>
       <use x="63.623047" xlink:href="#DejaVuSans-48"/>
       <use x="127.246094" xlink:href="#DejaVuSans-48"/>
      </g>
     </g>
    </g>
    <g id="xtick_4">
     <g id="line2d_4">
      <g>
       <use style="stroke:#000000;stroke-width:0.8;" x="195.730554" xlink:href="#m38a395b42f" y="307.584"/>
      </g>
     </g>
     <g id="text_4">
      <!-- 300 -->
      <defs>
       <path d="M 40.578125 39.3125 
Q 47.65625 37.796875 51.625 33 
Q 55.609375 28.21875 55.609375 21.1875 
Q 55.609375 10.40625 48.1875 4.484375 
Q 40.765625 -1.421875 27.09375 -1.421875 
Q 22.515625 -1.421875 17.65625 -0.515625 
Q 12.796875 0.390625 7.625 2.203125 
L 7.625 11.71875 
Q 11.71875 9.328125 16.59375 8.109375 
Q 21.484375 6.890625 26.8125 6.890625 
Q 36.078125 6.890625 40.9375 10.546875 
Q 45.796875 14.203125 45.796875 21.1875 
Q 45.796875 27.640625 41.28125 31.265625 
Q 36.765625 34.90625 28.71875 34.90625 
L 20.21875 34.90625 
L 20.21875 43.015625 
L 29.109375 43.015625 
Q 36.375 43.015625 40.234375 45.921875 
Q 44.09375 48.828125 44.09375 54.296875 
Q 44.09375 59.90625 40.109375 62.90625 
Q 36.140625 65.921875 28.71875 65.921875 
Q 24.65625 65.921875 20.015625 65.03125 
Q 15.375 64.15625 9.8125 62.3125 
L 9.8125 71.09375 
Q 15.4375 72.65625 20.34375 73.4375 
Q 25.25 74.21875 29.59375 74.21875 
Q 40.828125 74.21875 47.359375 69.109375 
Q 53.90625 64.015625 53.90625 55.328125 
Q 53.90625 49.265625 50.4375 45.09375 
Q 46.96875 40.921875 40.578125 39.3125 
z
" id="DejaVuSans-51"/>
      </defs>
      <g transform="translate(186.186804 322.182437)scale(0.1 -0.1)">
       <use xlink:href="#DejaVuSans-51"/>
       <use x="63.623047" xlink:href="#DejaVuSans-48"/>
       <use x="127.246094" xlink:href="#DejaVuSans-48"/>
      </g>
     </g>
    </g>
    <g id="xtick_5">
     <g id="line2d_5">
      <g>
       <use style="stroke:#000000;stroke-width:0.8;" x="236.363163" xlink:href="#m38a395b42f" y="307.584"/>
      </g>
     </g>
     <g id="text_5">
      <!-- 400 -->
      <defs>
       <path d="M 37.796875 64.3125 
L 12.890625 25.390625 
L 37.796875 25.390625 
z
M 35.203125 72.90625 
L 47.609375 72.90625 
L 47.609375 25.390625 
L 58.015625 25.390625 
L 58.015625 17.1875 
L 47.609375 17.1875 
L 47.609375 0 
L 37.796875 0 
L 37.796875 17.1875 
L 4.890625 17.1875 
L 4.890625 26.703125 
z
" id="DejaVuSans-52"/>
      </defs>
      <g transform="translate(226.819413 322.182437)scale(0.1 -0.1)">
       <use xlink:href="#DejaVuSans-52"/>
       <use x="63.623047" xlink:href="#DejaVuSans-48"/>
       <use x="127.246094" xlink:href="#DejaVuSans-48"/>
      </g>
     </g>
    </g>
    <g id="xtick_6">
     <g id="line2d_6">
      <g>
       <use style="stroke:#000000;stroke-width:0.8;" x="276.995772" xlink:href="#m38a395b42f" y="307.584"/>
      </g>
     </g>
     <g id="text_6">
      <!-- 500 -->
      <defs>
       <path d="M 10.796875 72.90625 
L 49.515625 72.90625 
L 49.515625 64.59375 
L 19.828125 64.59375 
L 19.828125 46.734375 
Q 21.96875 47.46875 24.109375 47.828125 
Q 26.265625 48.1875 28.421875 48.1875 
Q 40.625 48.1875 47.75 41.5 
Q 54.890625 34.8125 54.890625 23.390625 
Q 54.890625 11.625 47.5625 5.09375 
Q 40.234375 -1.421875 26.90625 -1.421875 
Q 22.3125 -1.421875 17.546875 -0.640625 
Q 12.796875 0.140625 7.71875 1.703125 
L 7.71875 11.625 
Q 12.109375 9.234375 16.796875 8.0625 
Q 21.484375 6.890625 26.703125 6.890625 
Q 35.15625 6.890625 40.078125 11.328125 
Q 45.015625 15.765625 45.015625 23.390625 
Q 45.015625 31 40.078125 35.4375 
Q 35.15625 39.890625 26.703125 39.890625 
Q 22.75 39.890625 18.8125 39.015625 
Q 14.890625 38.140625 10.796875 36.28125 
z
" id="DejaVuSans-53"/>
      </defs>
      <g transform="translate(267.452022 322.182437)scale(0.1 -0.1)">
       <use xlink:href="#DejaVuSans-53"/>
       <use x="63.623047" xlink:href="#DejaVuSans-48"/>
       <use x="127.246094" xlink:href="#DejaVuSans-48"/>
      </g>
     </g>
    </g>
    <g id="xtick_7">
     <g id="line2d_7">
      <g>
       <use style="stroke:#000000;stroke-width:0.8;" x="317.628381" xlink:href="#m38a395b42f" y="307.584"/>
      </g>
     </g>
     <g id="text_7">
      <!-- 600 -->
      <defs>
       <path d="M 33.015625 40.375 
Q 26.375 40.375 22.484375 35.828125 
Q 18.609375 31.296875 18.609375 23.390625 
Q 18.609375 15.53125 22.484375 10.953125 
Q 26.375 6.390625 33.015625 6.390625 
Q 39.65625 6.390625 43.53125 10.953125 
Q 47.40625 15.53125 47.40625 23.390625 
Q 47.40625 31.296875 43.53125 35.828125 
Q 39.65625 40.375 33.015625 40.375 
z
M 52.59375 71.296875 
L 52.59375 62.3125 
Q 48.875 64.0625 45.09375 64.984375 
Q 41.3125 65.921875 37.59375 65.921875 
Q 27.828125 65.921875 22.671875 59.328125 
Q 17.53125 52.734375 16.796875 39.40625 
Q 19.671875 43.65625 24.015625 45.921875 
Q 28.375 48.1875 33.59375 48.1875 
Q 44.578125 48.1875 50.953125 41.515625 
Q 57.328125 34.859375 57.328125 23.390625 
Q 57.328125 12.15625 50.6875 5.359375 
Q 44.046875 -1.421875 33.015625 -1.421875 
Q 20.359375 -1.421875 13.671875 8.265625 
Q 6.984375 17.96875 6.984375 36.375 
Q 6.984375 53.65625 15.1875 63.9375 
Q 23.390625 74.21875 37.203125 74.21875 
Q 40.921875 74.21875 44.703125 73.484375 
Q 48.484375 72.75 52.59375 71.296875 
z
" id="DejaVuSans-54"/>
      </defs>
      <g transform="translate(308.084631 322.182437)scale(0.1 -0.1)">
       <use xlink:href="#DejaVuSans-54"/>
       <use x="63.623047" xlink:href="#DejaVuSans-48"/>
       <use x="127.246094" xlink:href="#DejaVuSans-48"/>
      </g>
     </g>
    </g>
    <g id="xtick_8">
     <g id="line2d_8">
      <g>
       <use style="stroke:#000000;stroke-width:0.8;" x="358.26099" xlink:href="#m38a395b42f" y="307.584"/>
      </g>
     </g>
     <g id="text_8">
      <!-- 700 -->
      <defs>
       <path d="M 8.203125 72.90625 
L 55.078125 72.90625 
L 55.078125 68.703125 
L 28.609375 0 
L 18.3125 0 
L 43.21875 64.59375 
L 8.203125 64.59375 
z
" id="DejaVuSans-55"/>
      </defs>
      <g transform="translate(348.71724 322.182437)scale(0.1 -0.1)">
       <use xlink:href="#DejaVuSans-55"/>
       <use x="63.623047" xlink:href="#DejaVuSans-48"/>
       <use x="127.246094" xlink:href="#DejaVuSans-48"/>
      </g>
     </g>
    </g>
    <g id="xtick_9">
     <g id="line2d_9">
      <g>
       <use style="stroke:#000000;stroke-width:0.8;" x="398.893599" xlink:href="#m38a395b42f" y="307.584"/>
      </g>
     </g>
     <g id="text_9">
      <!-- 800 -->
      <defs>
       <path d="M 31.78125 34.625 
Q 24.75 34.625 20.71875 30.859375 
Q 16.703125 27.09375 16.703125 20.515625 
Q 16.703125 13.921875 20.71875 10.15625 
Q 24.75 6.390625 31.78125 6.390625 
Q 38.8125 6.390625 42.859375 10.171875 
Q 46.921875 13.96875 46.921875 20.515625 
Q 46.921875 27.09375 42.890625 30.859375 
Q 38.875 34.625 31.78125 34.625 
z
M 21.921875 38.8125 
Q 15.578125 40.375 12.03125 44.71875 
Q 8.5 49.078125 8.5 55.328125 
Q 8.5 64.0625 14.71875 69.140625 
Q 20.953125 74.21875 31.78125 74.21875 
Q 42.671875 74.21875 48.875 69.140625 
Q 55.078125 64.0625 55.078125 55.328125 
Q 55.078125 49.078125 51.53125 44.71875 
Q 48 40.375 41.703125 38.8125 
Q 48.828125 37.15625 52.796875 32.3125 
Q 56.78125 27.484375 56.78125 20.515625 
Q 56.78125 9.90625 50.3125 4.234375 
Q 43.84375 -1.421875 31.78125 -1.421875 
Q 19.734375 -1.421875 13.25 4.234375 
Q 6.78125 9.90625 6.78125 20.515625 
Q 6.78125 27.484375 10.78125 32.3125 
Q 14.796875 37.15625 21.921875 38.8125 
z
M 18.3125 54.390625 
Q 18.3125 48.734375 21.84375 45.5625 
Q 25.390625 42.390625 31.78125 42.390625 
Q 38.140625 42.390625 41.71875 45.5625 
Q 45.3125 48.734375 45.3125 54.390625 
Q 45.3125 60.0625 41.71875 63.234375 
Q 38.140625 66.40625 31.78125 66.40625 
Q 25.390625 66.40625 21.84375 63.234375 
Q 18.3125 60.0625 18.3125 54.390625 
z
" id="DejaVuSans-56"/>
      </defs>
      <g transform="translate(389.349849 322.182437)scale(0.1 -0.1)">
       <use xlink:href="#DejaVuSans-56"/>
       <use x="63.623047" xlink:href="#DejaVuSans-48"/>
       <use x="127.246094" xlink:href="#DejaVuSans-48"/>
      </g>
     </g>
    </g>
   </g>
   <g id="matplotlib.axis_2">
    <g id="ytick_1">
     <g id="line2d_10">
      <defs>
       <path d="M 0 0 
L -3.5 0 
" id="m399b39a0eb" style="stroke:#000000;stroke-width:0.8;"/>
      </defs>
      <g>
       <use style="stroke:#000000;stroke-width:0.8;" x="57.6" xlink:href="#m399b39a0eb" y="295.582051"/>
      </g>
     </g>
     <g id="text_10">
      <!-- 0.0000 -->
      <defs>
       <path d="M 10.6875 12.40625 
L 21 12.40625 
L 21 0 
L 10.6875 0 
z
" id="DejaVuSans-46"/>
      </defs>
      <g transform="translate(15.609375 299.38127)scale(0.1 -0.1)">
       <use xlink:href="#DejaVuSans-48"/>
       <use x="63.623047" xlink:href="#DejaVuSans-46"/>
       <use x="95.410156" xlink:href="#DejaVuSans-48"/>
       <use x="159.033203" xlink:href="#DejaVuSans-48"/>
       <use x="222.65625" xlink:href="#DejaVuSans-48"/>
       <use x="286.279297" xlink:href="#DejaVuSans-48"/>
      </g>
     </g>
    </g>
    <g id="ytick_2">
     <g id="line2d_11">
      <g>
       <use style="stroke:#000000;stroke-width:0.8;" x="57.6" xlink:href="#m399b39a0eb" y="245.276199"/>
      </g>
     </g>
     <g id="text_11">
      <!-- 0.0001 -->
      <g transform="translate(15.609375 249.075418)scale(0.1 -0.1)">
       <use xlink:href="#DejaVuSans-48"/>
       <use x="63.623047" xlink:href="#DejaVuSans-46"/>
       <use x="95.410156" xlink:href="#DejaVuSans-48"/>
       <use x="159.033203" xlink:href="#DejaVuSans-48"/>
       <use x="222.65625" xlink:href="#DejaVuSans-48"/>
       <use x="286.279297" xlink:href="#DejaVuSans-49"/>
      </g>
     </g>
    </g>
    <g id="ytick_3">
     <g id="line2d_12">
      <g>
       <use style="stroke:#000000;stroke-width:0.8;" x="57.6" xlink:href="#m399b39a0eb" y="194.970347"/>
      </g>
     </g>
     <g id="text_12">
      <!-- 0.0002 -->
      <g transform="translate(15.609375 198.769566)scale(0.1 -0.1)">
       <use xlink:href="#DejaVuSans-48"/>
       <use x="63.623047" xlink:href="#DejaVuSans-46"/>
       <use x="95.410156" xlink:href="#DejaVuSans-48"/>
       <use x="159.033203" xlink:href="#DejaVuSans-48"/>
       <use x="222.65625" xlink:href="#DejaVuSans-48"/>
       <use x="286.279297" xlink:href="#DejaVuSans-50"/>
      </g>
     </g>
    </g>
    <g id="ytick_4">
     <g id="line2d_13">
      <g>
       <use style="stroke:#000000;stroke-width:0.8;" x="57.6" xlink:href="#m399b39a0eb" y="144.664495"/>
      </g>
     </g>
     <g id="text_13">
      <!-- 0.0003 -->
      <g transform="translate(15.609375 148.463714)scale(0.1 -0.1)">
       <use xlink:href="#DejaVuSans-48"/>
       <use x="63.623047" xlink:href="#DejaVuSans-46"/>
       <use x="95.410156" xlink:href="#DejaVuSans-48"/>
       <use x="159.033203" xlink:href="#DejaVuSans-48"/>
       <use x="222.65625" xlink:href="#DejaVuSans-48"/>
       <use x="286.279297" xlink:href="#DejaVuSans-51"/>
      </g>
     </g>
    </g>
    <g id="ytick_5">
     <g id="line2d_14">
      <g>
       <use style="stroke:#000000;stroke-width:0.8;" x="57.6" xlink:href="#m399b39a0eb" y="94.358643"/>
      </g>
     </g>
     <g id="text_14">
      <!-- 0.0004 -->
      <g transform="translate(15.609375 98.157862)scale(0.1 -0.1)">
       <use xlink:href="#DejaVuSans-48"/>
       <use x="63.623047" xlink:href="#DejaVuSans-46"/>
       <use x="95.410156" xlink:href="#DejaVuSans-48"/>
       <use x="159.033203" xlink:href="#DejaVuSans-48"/>
       <use x="222.65625" xlink:href="#DejaVuSans-48"/>
       <use x="286.279297" xlink:href="#DejaVuSans-52"/>
      </g>
     </g>
    </g>
    <g id="ytick_6">
     <g id="line2d_15">
      <g>
       <use style="stroke:#000000;stroke-width:0.8;" x="57.6" xlink:href="#m399b39a0eb" y="44.052791"/>
      </g>
     </g>
     <g id="text_15">
      <!-- 0.0005 -->
      <g transform="translate(15.609375 47.85201)scale(0.1 -0.1)">
       <use xlink:href="#DejaVuSans-48"/>
       <use x="63.623047" xlink:href="#DejaVuSans-46"/>
       <use x="95.410156" xlink:href="#DejaVuSans-48"/>
       <use x="159.033203" xlink:href="#DejaVuSans-48"/>
       <use x="222.65625" xlink:href="#DejaVuSans-48"/>
       <use x="286.279297" xlink:href="#DejaVuSans-53"/>
      </g>
     </g>
    </g>
   </g>
   <g id="line2d_16">
    <path clip-path="url(#ped04e2c38a)" d="M 73.832727 135.748063 
L 74.239053 116.485139 
L 74.645379 119.34118 
L 75.051706 116.818661 
L 75.458032 131.944909 
L 76.270684 101.985537 
L 76.67701 102.947396 
L 77.083336 67.79844 
L 77.489662 97.520171 
L 77.895988 105.863667 
L 78.302314 148.678416 
L 78.70864 121.067681 
L 79.114966 139.260512 
L 79.521293 86.379234 
L 79.927619 127.629822 
L 80.333945 70.545351 
L 81.146597 227.599546 
L 81.552923 229.17766 
L 81.959249 157.93254 
L 82.365575 149.909405 
L 83.178227 228.124346 
L 83.584553 233.530654 
L 83.99088 127.657807 
L 84.397206 144.367247 
L 84.803532 152.945209 
L 85.209858 226.716925 
L 85.616184 164.931691 
L 86.02251 211.074137 
L 86.428836 222.818997 
L 86.835162 182.627737 
L 87.241488 231.415263 
L 87.647814 226.395995 
L 88.05414 241.11178 
L 88.460466 247.158842 
L 88.866793 201.325302 
L 89.273119 193.961214 
L 89.679445 224.258859 
L 90.085771 224.533025 
L 90.492097 223.193381 
L 90.898423 224.266677 
L 91.304749 212.80824 
L 91.711075 194.497991 
L 92.117401 214.245782 
L 92.523727 216.385816 
L 92.930053 225.571582 
L 93.742706 227.766257 
L 94.149032 194.712009 
L 94.555358 221.649996 
L 94.961684 225.995937 
L 95.36801 227.466538 
L 95.774336 213.456915 
L 96.180662 173.788219 
L 96.993314 236.079715 
L 97.39964 158.054341 
L 97.805967 169.944509 
L 98.212293 169.200737 
L 98.618619 177.799711 
L 99.024945 232.522285 
L 99.431271 226.75772 
L 99.837597 204.791656 
L 100.243923 169.941166 
L 100.650249 171.94639 
L 101.462901 155.962423 
L 101.869227 181.433537 
L 102.275554 138.843353 
L 102.68188 173.076665 
L 103.900858 209.517449 
L 104.307184 170.002387 
L 104.71351 158.082383 
L 105.119836 130.218671 
L 105.526162 178.11495 
L 105.932488 167.142278 
L 106.338814 188.421734 
L 106.745141 164.020228 
L 107.151467 200.295396 
L 107.557793 165.750903 
L 107.964119 236.485985 
L 108.370445 250.108221 
L 108.776771 259.151355 
L 109.183097 257.365953 
L 109.589423 254.494339 
L 109.995749 215.84247 
L 110.402075 228.98638 
L 110.808401 233.429449 
L 111.214728 241.821516 
L 112.02738 164.281286 
L 112.433706 174.807938 
L 112.840032 170.788002 
L 113.246358 169.752139 
L 113.652684 136.667909 
L 114.05901 154.663411 
L 114.465336 109.804046 
L 114.871662 165.831131 
L 115.277988 147.280642 
L 115.684314 167.23173 
L 116.090641 149.236152 
L 116.496967 160.792489 
L 116.903293 176.545459 
L 117.309619 146.797617 
L 117.715945 153.688214 
L 118.122271 164.283673 
L 118.528597 137.973307 
L 118.934923 153.350111 
L 119.341249 142.016643 
L 119.747575 135.253304 
L 120.153901 157.391071 
L 120.560228 140.705286 
L 120.966554 139.944088 
L 121.37288 146.114013 
L 121.779206 159.295043 
L 122.185532 141.089847 
L 122.591858 163.0942 
L 122.998184 149.843457 
L 123.40451 141.229082 
L 123.810836 169.092746 
L 124.217162 172.440962 
L 124.623488 182.754679 
L 125.029815 137.621842 
L 125.436141 131.681963 
L 126.248793 156.132464 
L 126.655119 156.891887 
L 127.061445 193.251637 
L 127.467771 200.951287 
L 128.280423 207.542653 
L 128.686749 206.767277 
L 129.093075 208.053401 
L 129.499402 221.620527 
L 129.905728 173.495589 
L 130.312054 204.240279 
L 130.71838 191.225058 
L 131.124706 202.190154 
L 131.531032 185.761388 
L 131.937358 200.557339 
L 132.343684 208.91677 
L 132.75001 211.263204 
L 133.156336 193.82817 
L 133.562662 199.325479 
L 133.968989 154.609306 
L 134.375315 142.484565 
L 134.781641 203.031651 
L 135.594293 203.253115 
L 136.000619 207.272965 
L 136.406945 208.482573 
L 136.813271 178.051693 
L 137.219597 197.605466 
L 137.625923 200.691377 
L 138.032249 198.991751 
L 138.438575 203.107207 
L 138.844902 201.815829 
L 139.251228 166.135374 
L 139.657554 197.855587 
L 140.06388 199.7954 
L 140.470206 192.686029 
L 140.876532 196.198658 
L 141.282858 171.490176 
L 141.689184 191.643154 
L 142.09551 188.870065 
L 143.314489 194.956544 
L 143.720815 196.289133 
L 144.127141 196.668655 
L 144.533467 190.78458 
L 144.939793 182.179573 
L 145.346119 197.460695 
L 145.752445 196.11251 
L 146.158771 194.26052 
L 146.565097 196.249748 
L 146.971423 194.869148 
L 147.377749 187.734851 
L 147.784076 182.927504 
L 148.190402 193.541254 
L 148.596728 192.77893 
L 149.003054 184.742282 
L 149.40938 171.302925 
L 149.815706 186.782796 
L 150.222032 165.581045 
L 150.628358 185.430056 
L 151.034684 170.560623 
L 151.44101 186.511539 
L 151.847336 181.940009 
L 152.253663 170.405304 
L 152.659989 186.42336 
L 153.066315 188.46277 
L 153.472641 187.507267 
L 153.878967 194.308034 
L 154.285293 197.575847 
L 154.691619 194.686405 
L 155.097945 198.539546 
L 155.504271 192.183045 
L 155.910597 198.335794 
L 156.316923 194.078872 
L 156.72325 191.964779 
L 157.129576 170.304293 
L 157.535902 189.278473 
L 157.942228 176.809594 
L 158.348554 234.153114 
L 158.75488 200.987423 
L 159.161206 197.564922 
L 159.567532 190.679383 
L 159.973858 198.261235 
L 160.380184 170.966818 
L 160.78651 192.386779 
L 161.192837 186.087214 
L 161.599163 184.942577 
L 162.005489 192.771298 
L 162.411815 175.213863 
L 162.818141 178.581552 
L 163.224467 193.354588 
L 163.630793 180.888991 
L 164.037119 192.422674 
L 164.443445 187.962425 
L 164.849771 195.230204 
L 165.256097 193.397986 
L 165.662423 193.111282 
L 166.475076 173.245567 
L 166.881402 174.81113 
L 167.287728 212.087569 
L 168.10038 171.481507 
L 168.506706 189.40369 
L 168.913032 212.937962 
L 169.319358 196.750168 
L 169.725684 193.917428 
L 170.13201 200.125131 
L 170.538337 145.337808 
L 171.350989 188.8053 
L 171.757315 200.100262 
L 172.163641 201.735455 
L 172.569967 198.649013 
L 172.976293 200.591572 
L 173.382619 170.557661 
L 173.788945 165.625229 
L 174.601597 161.166737 
L 175.007924 159.720005 
L 175.41425 160.004605 
L 175.820576 185.207809 
L 176.226902 182.644498 
L 177.039554 199.889696 
L 177.44588 194.599719 
L 177.852206 194.799345 
L 178.258532 190.611742 
L 178.664858 143.489215 
L 179.071184 184.307483 
L 179.477511 206.97008 
L 179.883837 193.174035 
L 180.290163 214.151425 
L 180.696489 194.220044 
L 181.102815 198.340967 
L 181.509141 170.395723 
L 181.915467 165.586676 
L 182.321793 190.623325 
L 182.728119 180.932871 
L 183.134445 176.494861 
L 183.540771 192.711889 
L 183.947098 198.200859 
L 184.353424 215.771771 
L 184.75975 175.99573 
L 185.166076 201.336514 
L 185.572402 201.403968 
L 185.978728 191.378739 
L 186.385054 195.018453 
L 186.79138 170.355235 
L 187.604032 204.610474 
L 188.010358 158.3942 
L 188.416684 127.615277 
L 188.823011 170.479603 
L 189.229337 151.18141 
L 189.635663 121.58212 
L 190.041989 119.733367 
L 190.448315 163.467978 
L 190.854641 184.658988 
L 191.260967 165.531218 
L 191.667293 174.415044 
L 192.073619 197.12557 
L 192.479945 201.351624 
L 192.886271 230.79479 
L 193.292598 227.683975 
L 193.698924 222.135285 
L 194.10525 221.867954 
L 194.511576 221.156949 
L 194.917902 221.094018 
L 195.324228 221.915958 
L 195.730554 223.989467 
L 196.543206 174.394378 
L 196.949532 187.757596 
L 197.355858 208.725901 
L 197.762185 217.12133 
L 198.168511 216.090616 
L 198.574837 191.532049 
L 198.981163 185.845645 
L 199.387489 184.742683 
L 199.793815 185.288515 
L 200.606467 187.371699 
L 201.012793 187.794202 
L 201.419119 189.054503 
L 201.825445 184.083018 
L 202.231772 183.99407 
L 202.638098 185.651762 
L 203.044424 186.821487 
L 203.45075 189.038595 
L 203.857076 188.698733 
L 204.263402 190.017625 
L 204.669728 190.280164 
L 205.076054 147.048977 
L 205.48238 151.448816 
L 205.888706 153.983629 
L 206.295032 159.380155 
L 206.701359 159.527773 
L 207.107685 209.243344 
L 207.514011 159.5667 
L 207.920337 132.551788 
L 208.326663 152.873752 
L 208.732989 147.249737 
L 209.139315 168.975247 
L 209.545641 148.740425 
L 209.951967 156.154524 
L 210.358293 114.83783 
L 210.764619 106.838381 
L 211.170946 177.75683 
L 211.577272 124.16138 
L 211.983598 166.573811 
L 212.389924 117.048774 
L 212.79625 209.749503 
L 213.202576 220.915392 
L 213.608902 174.323914 
L 214.015228 198.385856 
L 214.82788 137.45432 
L 215.234206 153.16267 
L 215.640532 141.008629 
L 216.046859 154.364371 
L 216.453185 197.389353 
L 216.859511 205.586884 
L 217.672163 212.239686 
L 218.484815 89.130673 
L 219.297467 177.829268 
L 219.703793 170.253133 
L 220.110119 196.46676 
L 220.516446 214.11445 
L 220.922772 200.81363 
L 221.329098 97.300145 
L 221.735424 194.732162 
L 222.14175 213.306771 
L 222.548076 104.489434 
L 222.954402 171.998448 
L 223.360728 198.474373 
L 223.767054 203.230254 
L 224.17338 210.488426 
L 224.579706 191.560342 
L 224.986033 150.708814 
L 225.392359 138.364917 
L 225.798685 151.688252 
L 226.205011 184.950892 
L 226.611337 192.456923 
L 227.017663 165.435076 
L 227.423989 181.326548 
L 227.830315 159.445238 
L 228.236641 165.347296 
L 228.642967 151.903704 
L 229.049293 165.447333 
L 229.45562 159.519072 
L 229.861946 175.072422 
L 230.674598 184.903208 
L 231.48725 134.840151 
L 231.893576 186.239711 
L 232.299902 117.645364 
L 233.112554 208.010508 
L 233.51888 170.193791 
L 233.925207 199.986658 
L 234.331533 212.966007 
L 234.737859 212.343876 
L 235.144185 152.20666 
L 235.550511 191.459683 
L 235.956837 169.647093 
L 236.363163 208.703187 
L 236.769489 211.632786 
L 237.175815 212.552514 
L 237.582141 210.619361 
L 237.988467 209.579011 
L 238.394793 208.927792 
L 238.80112 209.086485 
L 239.207446 207.898484 
L 239.613772 209.139675 
L 240.020098 209.357683 
L 240.83275 209.471068 
L 241.239076 206.431886 
L 241.645402 206.623551 
L 242.051728 206.941968 
L 242.458054 207.027712 
L 242.86438 208.578128 
L 243.270707 208.886024 
L 243.677033 210.454614 
L 244.083359 210.210026 
L 244.489685 211.43337 
L 244.896011 202.815563 
L 245.708663 212.509358 
L 246.114989 212.41097 
L 246.521315 213.332215 
L 246.927641 212.190306 
L 247.333967 212.556552 
L 247.740294 212.2275 
L 248.552946 211.35995 
L 248.959272 211.32884 
L 249.365598 210.462772 
L 249.771924 210.129414 
L 250.17825 209.24326 
L 250.584576 208.950678 
L 250.990902 208.004136 
L 251.397228 208.99752 
L 251.803554 209.205767 
L 252.209881 210.216677 
L 252.616207 208.865725 
L 253.022533 210.002988 
L 253.428859 209.925254 
L 253.835185 210.232301 
L 254.241511 210.352674 
L 254.647837 211.031279 
L 255.054163 210.842626 
L 255.460489 211.017972 
L 255.866815 212.833805 
L 256.273141 212.690929 
L 257.085794 213.915738 
L 257.49212 216.468479 
L 257.898446 213.907932 
L 258.304772 214.993058 
L 258.711098 215.661368 
L 259.117424 193.901702 
L 259.52375 188.848694 
L 259.930076 188.18352 
L 260.336402 188.816543 
L 261.149054 175.818949 
L 261.555381 182.976333 
L 261.961707 168.190887 
L 262.368033 162.630519 
L 262.774359 160.996055 
L 263.180685 161.267953 
L 263.587011 178.528101 
L 263.993337 165.191191 
L 264.399663 160.428635 
L 264.805989 153.952473 
L 265.212315 155.231969 
L 265.618641 152.054773 
L 266.024968 150.886684 
L 266.431294 147.42729 
L 266.83762 150.50022 
L 267.243946 152.687275 
L 267.650272 151.024018 
L 268.056598 150.919229 
L 268.462924 152.560436 
L 269.275576 200.61117 
L 269.681902 264.112939 
L 270.088228 224.4105 
L 270.494555 164.604812 
L 270.900881 138.698245 
L 271.307207 136.84753 
L 271.713533 140.189564 
L 272.119859 99.037297 
L 272.526185 134.980711 
L 272.932511 119.368618 
L 273.338837 114.593832 
L 273.745163 236.825846 
L 274.151489 260.275837 
L 274.557815 255.774671 
L 274.964142 239.206389 
L 275.370468 229.725165 
L 275.776794 212.371708 
L 276.18312 206.411136 
L 276.589446 189.301087 
L 276.995772 214.823761 
L 277.402098 218.263071 
L 277.808424 196.167649 
L 278.21475 162.240525 
L 279.027402 211.460035 
L 279.433729 215.439893 
L 279.840055 209.07821 
L 280.246381 216.061028 
L 280.652707 177.520943 
L 281.059033 189.709721 
L 281.871685 184.736121 
L 282.278011 160.616288 
L 282.684337 174.994667 
L 283.090663 181.412112 
L 283.496989 139.989808 
L 284.309642 209.173311 
L 284.715968 243.662657 
L 285.122294 229.15917 
L 285.52862 247.735651 
L 286.341272 199.944892 
L 286.747598 205.5262 
L 287.153924 240.429046 
L 287.56025 187.724093 
L 287.966576 207.12631 
L 288.372902 206.159043 
L 288.779229 200.503295 
L 289.185555 201.430914 
L 289.591881 203.879277 
L 289.998207 202.536987 
L 290.404533 211.093287 
L 290.810859 206.626418 
L 291.217185 199.363023 
L 292.029837 232.267524 
L 292.436163 213.700999 
L 292.842489 207.107384 
L 293.248816 206.745705 
L 293.655142 223.742623 
L 294.061468 266.9995 
L 294.467794 257.408774 
L 294.87412 255.546023 
L 295.280446 250.853105 
L 295.686772 226.506189 
L 296.093098 270.349542 
L 296.499424 275.53165 
L 297.312076 249.023715 
L 297.718403 245.556503 
L 298.124729 240.612042 
L 298.531055 244.322763 
L 298.937381 244.43435 
L 299.343707 246.557774 
L 299.750033 251.857549 
L 300.156359 212.206861 
L 300.562685 203.595259 
L 300.969011 208.37551 
L 301.781663 203.356645 
L 302.18799 201.819294 
L 302.594316 199.817861 
L 303.000642 199.100462 
L 303.406968 196.89872 
L 303.813294 204.243128 
L 304.21962 219.511328 
L 304.625946 182.350656 
L 305.032272 195.344852 
L 305.438598 187.731616 
L 305.844924 192.71054 
L 306.657577 196.629422 
L 307.063903 205.982997 
L 307.470229 156.156829 
L 307.876555 155.808402 
L 308.282881 154.104343 
L 308.689207 193.967115 
L 309.095533 191.703141 
L 309.501859 174.402263 
L 309.908185 192.386469 
L 310.314511 172.906623 
L 310.720837 170.236453 
L 311.127163 210.299663 
L 311.53349 207.87527 
L 311.939816 219.219952 
L 312.346142 248.344197 
L 312.752468 242.17999 
L 313.158794 240.093128 
L 313.56512 239.343926 
L 313.971446 244.772472 
L 314.377772 259.394555 
L 314.784098 214.378099 
L 315.190424 232.624531 
L 315.59675 241.103639 
L 316.409403 240.646265 
L 316.815729 248.894639 
L 317.222055 250.439328 
L 317.628381 214.650673 
L 318.034707 240.488911 
L 318.441033 216.996201 
L 318.847359 228.999399 
L 319.253685 194.177577 
L 319.660011 226.820225 
L 320.066337 224.450101 
L 320.87899 228.421144 
L 321.285316 178.60727 
L 321.691642 185.072431 
L 322.097968 238.523029 
L 322.504294 207.691245 
L 322.91062 227.800169 
L 323.316946 202.178564 
L 324.129598 191.896947 
L 324.535924 210.428345 
L 324.942251 212.919043 
L 325.348577 218.031394 
L 325.754903 161.472449 
L 326.161229 203.142047 
L 326.567555 196.341131 
L 327.380207 160.1192 
L 327.786533 154.360985 
L 328.192859 205.507024 
L 328.599185 153.273681 
L 329.005511 171.830485 
L 329.411838 181.034444 
L 329.818164 167.106606 
L 330.22449 199.979363 
L 330.630816 125.74165 
L 331.037142 142.389449 
L 331.849794 236.083189 
L 332.25612 234.029821 
L 332.662446 172.133114 
L 333.068772 188.100456 
L 333.475098 196.601312 
L 333.881425 151.282685 
L 334.287751 139.590947 
L 334.694077 137.791256 
L 335.100403 137.653637 
L 335.506729 114.45199 
L 336.319381 136.949496 
L 336.725707 114.096553 
L 337.132033 115.061846 
L 337.538359 101.919825 
L 337.944685 99.553061 
L 338.351011 166.714918 
L 338.757338 111.421826 
L 339.163664 165.13731 
L 339.56999 178.191691 
L 339.976316 175.696785 
L 340.382642 190.93893 
L 340.788968 155.751061 
L 341.195294 79.457053 
L 341.60162 61.731111 
L 342.007946 110.703492 
L 342.414272 113.776213 
L 342.820598 53.568 
L 343.633251 151.99209 
L 344.039577 125.721645 
L 344.445903 176.816359 
L 344.852229 187.228325 
L 345.258555 103.950621 
L 345.664881 164.639106 
L 346.071207 90.292889 
L 346.477533 196.872182 
L 346.883859 247.531142 
L 347.290185 214.810192 
L 347.696512 201.846212 
L 348.102838 197.482147 
L 348.509164 216.440455 
L 348.91549 271.149824 
L 349.321816 231.50917 
L 349.728142 222.316886 
L 350.134468 252.07123 
L 350.540794 193.243218 
L 351.353446 127.477621 
L 351.759772 208.890357 
L 352.166099 209.167151 
L 352.572425 159.868292 
L 352.978751 212.609004 
L 353.385077 213.263557 
L 353.791403 158.042352 
L 354.604055 228.484032 
L 355.010381 236.601109 
L 355.416707 129.982302 
L 355.823033 106.273369 
L 356.229359 240.601045 
L 356.635686 245.920083 
L 357.042012 198.067008 
L 357.448338 246.905953 
L 357.854664 176.263355 
L 358.26099 181.266641 
L 358.667316 247.287328 
L 359.479968 191.217194 
L 359.886294 255.159302 
L 360.29262 257.012768 
L 360.698946 211.323003 
L 361.105272 256.92356 
L 361.511599 244.96484 
L 361.917925 259.319791 
L 362.324251 196.884589 
L 362.730577 211.091211 
L 363.136903 177.437895 
L 363.543229 199.90194 
L 363.949555 72.888887 
L 364.355881 124.917843 
L 364.762207 73.043011 
L 365.168533 105.289902 
L 365.574859 83.699823 
L 366.387512 226.004363 
L 366.793838 229.200436 
L 367.200164 237.661143 
L 367.60649 238.785286 
L 368.012816 233.480707 
L 368.419142 242.010381 
L 368.825468 230.622617 
L 369.231794 242.344263 
L 370.450773 235.835557 
L 370.857099 244.885679 
L 371.263425 246.400446 
L 371.669751 245.648206 
L 372.076077 237.020777 
L 372.482403 251.780482 
L 372.888729 245.392566 
L 373.295055 245.41717 
L 373.701381 236.873239 
L 374.107707 246.387091 
L 374.514033 246.056859 
L 375.326686 233.498717 
L 375.733012 240.99041 
L 376.139338 239.018869 
L 376.545664 239.819466 
L 376.95199 238.515912 
L 377.358316 238.337384 
L 377.764642 239.472899 
L 378.170968 242.734364 
L 378.577294 232.518492 
L 378.98362 251.276332 
L 379.389947 242.988199 
L 379.796273 241.241638 
L 380.202599 239.990629 
L 380.608925 239.603866 
L 381.015251 238.744282 
L 381.421577 241.121177 
L 381.827903 240.461631 
L 382.234229 237.650397 
L 383.046881 236.630022 
L 383.453207 230.421779 
L 383.859534 235.438043 
L 384.26586 233.485512 
L 384.672186 243.989477 
L 385.078512 243.657994 
L 385.484838 249.279285 
L 385.891164 244.93904 
L 386.29749 242.921022 
L 386.703816 242.543964 
L 387.110142 241.784546 
L 387.516468 242.576396 
L 387.922794 241.937156 
L 388.32912 246.744772 
L 388.735447 236.088259 
L 389.141773 235.986016 
L 389.548099 230.407257 
L 389.954425 236.492953 
L 390.360751 236.012792 
L 390.767077 237.178255 
L 391.173403 236.211982 
L 391.579729 237.281875 
L 391.986055 228.780948 
L 392.392381 227.681355 
L 392.798707 230.861935 
L 393.205034 196.389123 
L 393.61136 211.183287 
L 394.017686 217.363482 
L 394.424012 228.715594 
L 394.830338 236.91779 
L 395.236664 237.012127 
L 395.64299 237.344962 
L 396.049316 234.915908 
L 396.455642 228.015479 
L 396.861968 237.920356 
L 397.268294 234.416385 
L 397.674621 233.951194 
L 398.080947 231.108231 
L 398.487273 236.923598 
L 398.487273 236.923598 
" style="fill:none;stroke:#1f77b4;stroke-linecap:square;stroke-width:1.5;"/>
   </g>
   <g id="line2d_17">
    <path clip-path="url(#ped04e2c38a)" d="M 73.832727 293.38347 
L 74.239053 286.528459 
L 74.645379 293.481673 
L 75.051706 288.331498 
L 75.864358 288.22914 
L 76.270684 289.752547 
L 76.67701 292.858185 
L 77.083336 294.346498 
L 77.489662 294.52226 
L 77.895988 293.82367 
L 78.302314 293.419758 
L 78.70864 292.51354 
L 79.114966 292.445567 
L 79.927619 293.246197 
L 80.333945 290.013758 
L 80.740271 290.285281 
L 81.146597 293.742166 
L 81.552923 293.875766 
L 81.959249 293.469862 
L 82.365575 295.084344 
L 82.771901 295.220207 
L 83.178227 294.273735 
L 83.584553 294.68935 
L 83.99088 294.331021 
L 84.397206 291.778209 
L 84.803532 294.613392 
L 85.209858 294.691239 
L 85.616184 293.42599 
L 86.02251 294.593969 
L 86.428836 294.838411 
L 86.835162 288.918396 
L 87.241488 293.066675 
L 87.647814 294.391688 
L 88.460466 293.625216 
L 88.866793 282.795337 
L 89.273119 292.98119 
L 89.679445 292.897309 
L 90.085771 284.858473 
L 90.492097 292.898467 
L 90.898423 292.59049 
L 91.304749 293.539846 
L 91.711075 293.229382 
L 92.117401 293.29521 
L 92.523727 290.362076 
L 92.930053 295.04925 
L 93.33638 293.302728 
L 94.149032 293.667783 
L 94.555358 287.561687 
L 94.961684 295.284055 
L 95.36801 294.705236 
L 95.774336 295.066206 
L 96.180662 286.420061 
L 96.586988 295.047929 
L 97.39964 292.106556 
L 97.805967 294.298618 
L 98.618619 294.384542 
L 99.024945 294.503112 
L 99.431271 295.323816 
L 99.837597 294.763313 
L 100.243923 293.45563 
L 100.650249 290.492713 
L 101.056575 293.68669 
L 101.462901 294.175786 
L 101.869227 291.880188 
L 102.275554 295.193336 
L 102.68188 295.023937 
L 103.088206 293.982458 
L 103.494532 295.141379 
L 103.900858 288.94754 
L 104.307184 293.878812 
L 105.526162 293.272368 
L 105.932488 291.612313 
L 106.338814 295.374876 
L 106.745141 294.353375 
L 107.151467 295.175028 
L 107.557793 294.743851 
L 108.370445 294.783258 
L 108.776771 295.326812 
L 109.589423 294.336755 
L 109.995749 291.783127 
L 110.402075 294.942504 
L 110.808401 291.98465 
L 111.214728 294.263763 
L 111.621054 292.77125 
L 112.02738 293.228199 
L 112.433706 295.149798 
L 112.840032 294.619251 
L 113.246358 295.183776 
L 113.652684 291.837442 
L 114.05901 293.262736 
L 114.465336 293.355544 
L 114.871662 295.398454 
L 115.277988 292.186013 
L 115.684314 292.641856 
L 116.090641 291.051897 
L 116.496967 292.428427 
L 116.903293 294.346514 
L 117.309619 292.723975 
L 117.715945 292.974882 
L 118.122271 292.86564 
L 118.528597 293.461258 
L 118.934923 292.603852 
L 120.153901 294.261262 
L 120.560228 291.055291 
L 120.966554 290.394392 
L 121.37288 293.488765 
L 121.779206 293.531374 
L 122.185532 289.765637 
L 122.591858 287.436136 
L 122.998184 293.40859 
L 123.40451 294.352196 
L 123.810836 290.968161 
L 124.217162 294.577889 
L 124.623488 294.705881 
L 125.029815 291.536153 
L 125.436141 294.624688 
L 125.842467 282.586444 
L 126.248793 295.22846 
L 126.655119 285.333076 
L 127.061445 293.900775 
L 127.467771 292.747078 
L 127.874097 290.833411 
L 128.280423 293.629889 
L 128.686749 293.207107 
L 129.093075 294.192703 
L 129.905728 286.116343 
L 130.312054 292.344145 
L 130.71838 291.789145 
L 131.124706 290.433284 
L 131.531032 293.803231 
L 131.937358 293.35448 
L 132.343684 294.510115 
L 132.75001 282.402445 
L 133.156336 295.223937 
L 133.562662 288.680528 
L 133.968989 289.248687 
L 134.375315 290.02148 
L 134.781641 288.202191 
L 135.187967 294.873936 
L 135.594293 291.636515 
L 136.000619 295.17067 
L 136.406945 295.073847 
L 136.813271 287.686197 
L 137.219597 291.128723 
L 137.625923 291.851155 
L 138.032249 287.894406 
L 138.438575 289.181281 
L 138.844902 293.620493 
L 139.251228 287.951171 
L 139.657554 289.219923 
L 140.06388 292.364627 
L 140.470206 294.38257 
L 140.876532 291.441245 
L 141.282858 293.507024 
L 142.09551 291.315182 
L 142.501836 291.151361 
L 142.908162 293.930159 
L 143.314489 293.952648 
L 143.720815 293.591822 
L 144.127141 281.111454 
L 144.533467 294.072284 
L 144.939793 279.261711 
L 145.346119 287.80994 
L 145.752445 276.329214 
L 146.158771 285.558769 
L 146.565097 288.087626 
L 146.971423 288.195527 
L 147.377749 294.738011 
L 147.784076 291.919276 
L 148.190402 294.611884 
L 148.596728 291.751367 
L 149.003054 291.448478 
L 149.40938 291.328523 
L 149.815706 291.819852 
L 150.222032 285.152492 
L 150.628358 288.984795 
L 151.034684 294.812595 
L 151.44101 295.473264 
L 151.847336 290.600835 
L 152.253663 293.631879 
L 152.659989 292.452475 
L 153.066315 295.001963 
L 153.472641 295.448551 
L 153.878967 293.803848 
L 154.285293 293.392674 
L 154.691619 288.657709 
L 155.097945 287.986707 
L 155.504271 288.353075 
L 155.910597 292.245766 
L 156.316923 292.846965 
L 156.72325 294.479772 
L 157.129576 294.535319 
L 157.942228 290.350313 
L 158.348554 293.981456 
L 158.75488 290.214959 
L 159.161206 294.335719 
L 159.567532 295.187758 
L 160.380184 293.504712 
L 160.78651 290.275957 
L 161.192837 293.082905 
L 161.599163 287.714755 
L 162.005489 295.066235 
L 162.411815 290.462646 
L 162.818141 291.178419 
L 163.224467 294.774595 
L 163.630793 294.239637 
L 164.037119 294.105116 
L 164.443445 293.258782 
L 164.849771 295.257583 
L 165.256097 295.272839 
L 165.662423 292.369682 
L 166.06875 294.589205 
L 166.475076 294.449512 
L 166.881402 293.618442 
L 167.287728 295.269516 
L 167.694054 292.719354 
L 168.10038 291.576412 
L 168.506706 291.649332 
L 168.913032 291.05745 
L 169.319358 293.033515 
L 169.725684 293.272733 
L 170.13201 288.545365 
L 170.538337 288.443409 
L 170.944663 284.421371 
L 171.350989 292.226816 
L 171.757315 288.239483 
L 172.163641 288.026968 
L 172.569967 294.45597 
L 172.976293 292.945713 
L 173.382619 294.632956 
L 173.788945 290.649338 
L 174.195271 293.382236 
L 174.601597 293.426759 
L 175.007924 290.211919 
L 175.41425 294.64713 
L 175.820576 295.040516 
L 176.226902 295.033474 
L 176.633228 294.278178 
L 177.039554 294.081597 
L 177.44588 291.467808 
L 177.852206 293.914395 
L 178.258532 291.141147 
L 178.664858 295.336947 
L 179.071184 293.699867 
L 179.477511 295.083257 
L 180.290163 294.125958 
L 180.696489 295.239232 
L 181.102815 294.848611 
L 181.509141 292.917873 
L 181.915467 293.854704 
L 182.321793 295.131088 
L 182.728119 295.141529 
L 183.134445 293.340792 
L 183.540771 295.34041 
L 183.947098 295.483067 
L 184.353424 294.479786 
L 184.75975 295.319625 
L 185.166076 287.255484 
L 185.572402 294.099479 
L 186.385054 292.244261 
L 186.79138 291.78908 
L 187.604032 292.629232 
L 188.010358 291.341596 
L 188.416684 291.200559 
L 188.823011 293.283076 
L 189.229337 292.220626 
L 189.635663 285.314888 
L 190.041989 280.98423 
L 190.448315 288.544799 
L 190.854641 284.878815 
L 191.260967 294.36624 
L 191.667293 286.787387 
L 192.073619 293.623838 
L 192.479945 291.576619 
L 192.886271 288.087167 
L 193.292598 293.805665 
L 193.698924 294.28369 
L 194.10525 288.795566 
L 194.511576 294.741511 
L 194.917902 292.173861 
L 195.324228 290.424925 
L 195.730554 295.102031 
L 196.13688 293.862189 
L 196.543206 295.122243 
L 196.949532 292.14957 
L 197.355858 291.795178 
L 197.762185 284.463061 
L 198.168511 295.221058 
L 198.574837 289.394525 
L 199.387489 293.902411 
L 199.793815 294.564932 
L 200.200141 288.711878 
L 200.606467 295.457685 
L 201.012793 295.343693 
L 201.419119 277.43097 
L 201.825445 280.469438 
L 202.231772 294.300361 
L 202.638098 288.397408 
L 203.044424 293.88955 
L 203.45075 293.79755 
L 203.857076 289.09814 
L 204.263402 275.721838 
L 204.669728 292.51389 
L 205.076054 292.926583 
L 205.48238 261.509967 
L 205.888706 285.301108 
L 206.295032 295.016008 
L 206.701359 295.180749 
L 207.107685 294.765338 
L 207.514011 282.368206 
L 207.920337 283.932445 
L 208.326663 293.565254 
L 208.732989 293.646261 
L 209.139315 292.794335 
L 209.545641 294.886851 
L 209.951967 281.591245 
L 210.358293 281.01813 
L 210.764619 294.9954 
L 211.170946 292.599677 
L 211.577272 291.784199 
L 211.983598 294.936181 
L 212.389924 282.931899 
L 212.79625 283.787133 
L 213.202576 283.335431 
L 214.015228 292.850984 
L 214.421554 292.828077 
L 214.82788 289.735279 
L 215.640532 294.894853 
L 216.046859 289.773653 
L 216.453185 292.567849 
L 216.859511 292.98471 
L 217.265837 295.31666 
L 217.672163 295.409092 
L 218.078489 294.943975 
L 218.484815 295.204981 
L 218.891141 295.272734 
L 219.297467 294.841294 
L 219.703793 288.261842 
L 220.516446 295.488 
L 220.922772 288.252771 
L 221.329098 295.124675 
L 221.735424 294.782171 
L 222.14175 295.042586 
L 222.548076 293.369188 
L 222.954402 294.96608 
L 223.360728 292.852082 
L 223.767054 291.895826 
L 224.17338 295.291336 
L 224.579706 293.231843 
L 224.986033 295.100152 
L 225.392359 290.316137 
L 225.798685 289.615221 
L 226.205011 295.120491 
L 226.611337 293.292911 
L 227.017663 286.444994 
L 227.423989 291.073205 
L 227.830315 290.88942 
L 228.236641 289.869869 
L 228.642967 292.923436 
L 229.049293 292.987927 
L 229.45562 291.137563 
L 229.861946 292.690546 
L 230.674598 294.905637 
L 231.080924 293.676702 
L 231.48725 294.036819 
L 231.893576 295.081549 
L 232.299902 294.553322 
L 232.706228 294.310834 
L 233.112554 293.035365 
L 233.51888 292.957056 
L 233.925207 294.995833 
L 234.331533 291.656292 
L 234.737859 292.703736 
L 235.144185 295.093927 
L 235.550511 294.705927 
L 235.956837 294.675694 
L 236.363163 288.858276 
L 236.769489 290.416581 
L 237.175815 283.183216 
L 237.582141 291.32267 
L 237.988467 295.044327 
L 238.394793 295.33538 
L 238.80112 294.531174 
L 239.207446 295.332845 
L 239.613772 294.461749 
L 240.020098 292.486607 
L 240.426424 295.355638 
L 240.83275 294.976197 
L 241.239076 293.648423 
L 241.645402 294.814162 
L 242.051728 295.243536 
L 242.458054 295.168989 
L 242.86438 292.021286 
L 243.270707 294.007565 
L 243.677033 294.115684 
L 244.083359 290.531351 
L 244.489685 295.011079 
L 244.896011 294.302278 
L 245.302337 294.783555 
L 245.708663 294.682471 
L 246.114989 294.711632 
L 246.521315 285.688382 
L 246.927641 294.707871 
L 247.333967 290.933996 
L 247.740294 294.05316 
L 248.14662 290.748682 
L 248.552946 293.521846 
L 248.959272 289.68958 
L 249.365598 292.413707 
L 249.771924 292.970492 
L 250.17825 294.138326 
L 250.584576 293.070255 
L 250.990902 293.693126 
L 251.397228 293.208989 
L 251.803554 293.277155 
L 252.209881 293.965347 
L 252.616207 292.298619 
L 253.022533 295.216932 
L 253.428859 294.277597 
L 253.835185 294.194059 
L 254.241511 290.643011 
L 254.647837 293.30388 
L 255.054163 291.211948 
L 255.460489 293.697527 
L 255.866815 294.401742 
L 256.273141 295.340704 
L 257.085794 289.726176 
L 257.49212 295.063733 
L 257.898446 294.521062 
L 259.117424 294.480215 
L 259.52375 294.412403 
L 259.930076 292.540649 
L 260.336402 287.691209 
L 260.742728 290.128599 
L 261.555381 292.826196 
L 261.961707 294.863635 
L 262.368033 292.831935 
L 262.774359 291.63819 
L 263.180685 290.83591 
L 263.587011 294.227856 
L 263.993337 293.014783 
L 264.399663 290.65762 
L 264.805989 294.728696 
L 265.212315 294.581725 
L 265.618641 294.763703 
L 266.024968 290.524706 
L 266.431294 291.502121 
L 266.83762 295.357813 
L 267.243946 295.194235 
L 267.650272 295.459707 
L 268.056598 294.394038 
L 268.462924 294.681005 
L 268.86925 294.546648 
L 269.275576 294.933742 
L 269.681902 290.897077 
L 270.494555 294.659897 
L 270.900881 293.095119 
L 271.307207 294.900626 
L 271.713533 295.424655 
L 272.119859 292.356662 
L 272.526185 290.702582 
L 272.932511 295.441971 
L 273.338837 292.540736 
L 273.745163 292.76587 
L 274.151489 295.46062 
L 274.557815 295.458696 
L 274.964142 293.016059 
L 275.370468 295.418779 
L 275.776794 295.26493 
L 277.808424 295.227517 
L 278.21475 294.649554 
L 278.621076 295.25936 
L 279.027402 295.36195 
L 279.433729 295.283147 
L 279.840055 293.937889 
L 280.246381 295.392255 
L 281.059033 295.424833 
L 281.465359 293.882655 
L 281.871685 293.823984 
L 282.278011 285.16294 
L 282.684337 295.393214 
L 283.090663 295.368461 
L 283.496989 291.536938 
L 283.903316 291.65509 
L 284.309642 294.786534 
L 284.715968 289.423554 
L 285.122294 292.48786 
L 285.52862 292.424578 
L 285.934946 286.610659 
L 286.341272 293.747439 
L 286.747598 293.660879 
L 287.153924 293.804214 
L 287.56025 294.590095 
L 287.966576 275.461304 
L 288.372902 292.613868 
L 288.779229 288.696313 
L 289.185555 286.10525 
L 289.591881 293.319527 
L 289.998207 288.690072 
L 290.404533 295.024364 
L 291.217185 283.000606 
L 291.623511 282.124387 
L 292.029837 288.556379 
L 292.436163 283.376298 
L 292.842489 293.80352 
L 293.248816 293.235863 
L 293.655142 294.808273 
L 294.061468 295.063041 
L 294.87412 293.335326 
L 295.280446 292.47979 
L 295.686772 292.554489 
L 296.093098 293.719741 
L 296.499424 291.753932 
L 297.312076 295.326199 
L 297.718403 288.607341 
L 298.531055 295.059238 
L 298.937381 294.710672 
L 299.343707 295.212584 
L 299.750033 290.993679 
L 300.156359 292.62454 
L 300.562685 291.100575 
L 300.969011 291.858264 
L 301.375337 291.552887 
L 301.781663 292.210742 
L 302.18799 293.57782 
L 302.594316 295.466273 
L 303.000642 294.716654 
L 303.406968 295.054251 
L 303.813294 291.574257 
L 304.21962 286.480225 
L 304.625946 294.941424 
L 305.032272 290.359718 
L 305.438598 293.482241 
L 306.25125 293.678425 
L 306.657577 290.700091 
L 307.470229 295.468183 
L 307.876555 291.389133 
L 308.282881 291.518652 
L 308.689207 291.935182 
L 309.095533 293.375245 
L 309.501859 294.172712 
L 309.908185 289.556368 
L 310.314511 295.480294 
L 310.720837 291.200217 
L 311.127163 291.275889 
L 311.53349 294.053942 
L 311.939816 293.337964 
L 312.346142 293.710114 
L 312.752468 286.587613 
L 313.158794 288.314646 
L 313.56512 288.629385 
L 313.971446 292.899868 
L 314.377772 292.426412 
L 314.784098 293.043098 
L 315.190424 290.969322 
L 315.59675 293.9881 
L 316.003077 295.162683 
L 316.409403 293.29266 
L 316.815729 293.557261 
L 317.222055 291.941209 
L 317.628381 295.301172 
L 318.034707 294.372587 
L 318.441033 292.626769 
L 318.847359 291.774706 
L 319.253685 288.171532 
L 319.660011 292.33257 
L 320.066337 290.830513 
L 320.472664 293.949324 
L 320.87899 294.041126 
L 321.285316 293.653883 
L 321.691642 295.043694 
L 322.097968 293.78319 
L 322.504294 294.884141 
L 322.91062 295.134304 
L 323.316946 291.747918 
L 323.723272 290.742405 
L 324.129598 294.192809 
L 324.535924 295.033471 
L 324.942251 291.927276 
L 325.348577 293.000459 
L 325.754903 295.350228 
L 326.161229 294.322557 
L 326.567555 292.396624 
L 326.973881 295.07164 
L 327.380207 295.456104 
L 327.786533 289.415096 
L 328.192859 295.277051 
L 328.599185 292.020278 
L 329.005511 292.619877 
L 329.411838 289.505982 
L 330.22449 293.187998 
L 330.630816 293.294961 
L 331.037142 294.73816 
L 331.443468 294.096147 
L 331.849794 294.711726 
L 332.25612 294.842398 
L 332.662446 294.85183 
L 333.068772 292.752656 
L 333.475098 293.767559 
L 333.881425 295.421148 
L 334.287751 291.523226 
L 334.694077 291.105031 
L 335.100403 292.100047 
L 335.506729 294.256045 
L 335.913055 293.00791 
L 336.319381 294.726193 
L 336.725707 287.451272 
L 337.132033 287.503889 
L 337.538359 291.884988 
L 337.944685 292.963997 
L 338.351011 294.782733 
L 338.757338 292.899144 
L 339.163664 295.108905 
L 339.56999 295.364649 
L 339.976316 289.4968 
L 340.382642 287.089919 
L 340.788968 291.695278 
L 341.195294 292.500835 
L 341.60162 291.158127 
L 342.007946 293.345744 
L 342.414272 294.219707 
L 342.820598 294.134133 
L 343.226925 291.050168 
L 343.633251 293.864079 
L 344.039577 290.903115 
L 344.445903 291.075131 
L 344.852229 293.629255 
L 345.258555 294.264667 
L 345.664881 289.407465 
L 346.071207 289.607826 
L 346.477533 295.269591 
L 346.883859 292.999038 
L 347.290185 291.730276 
L 347.696512 290.918603 
L 348.102838 294.85922 
L 348.509164 295.429983 
L 348.91549 291.936699 
L 349.321816 291.536381 
L 349.728142 291.560951 
L 350.134468 290.790618 
L 350.540794 291.111641 
L 350.94712 294.822458 
L 351.353446 294.887376 
L 351.759772 290.127161 
L 352.166099 294.136299 
L 352.572425 289.653066 
L 352.978751 289.455255 
L 353.385077 294.585778 
L 353.791403 289.858931 
L 354.197729 290.790046 
L 354.604055 292.548828 
L 355.416707 292.836605 
L 355.823033 294.464534 
L 356.229359 293.616616 
L 356.635686 295.282539 
L 357.042012 294.178078 
L 357.448338 294.98899 
L 357.854664 291.722234 
L 358.26099 294.721664 
L 358.667316 294.465619 
L 359.073642 290.42528 
L 359.479968 294.305453 
L 360.29262 293.188416 
L 360.698946 292.820588 
L 361.105272 293.61018 
L 361.511599 294.742191 
L 361.917925 289.037371 
L 362.324251 293.914462 
L 362.730577 288.825489 
L 363.136903 294.902531 
L 363.949555 293.536566 
L 364.355881 295.150581 
L 364.762207 292.867828 
L 365.168533 291.626184 
L 365.574859 294.916741 
L 365.981186 294.509528 
L 366.387512 293.682652 
L 366.793838 294.974379 
L 367.200164 293.191008 
L 367.60649 290.50669 
L 368.012816 293.541268 
L 368.419142 294.777039 
L 368.825468 294.743192 
L 369.231794 290.586082 
L 369.63812 289.756012 
L 370.044446 295.140021 
L 370.450773 294.968133 
L 370.857099 294.469823 
L 371.263425 295.444476 
L 371.669751 293.565564 
L 372.076077 293.126724 
L 372.482403 294.032217 
L 373.295055 293.997024 
L 373.701381 291.396796 
L 374.107707 291.223243 
L 374.514033 294.529206 
L 374.92036 295.026689 
L 375.326686 292.003635 
L 375.733012 290.690259 
L 376.139338 291.035069 
L 376.545664 292.472816 
L 376.95199 288.032732 
L 377.358316 294.44572 
L 377.764642 295.117268 
L 378.170968 294.506068 
L 378.577294 291.509236 
L 378.98362 289.611311 
L 379.796273 289.755116 
L 380.202599 289.647775 
L 380.608925 293.465849 
L 381.015251 294.876097 
L 381.421577 289.895486 
L 381.827903 295.189981 
L 382.234229 293.497457 
L 382.640555 294.067047 
L 383.046881 287.565644 
L 383.453207 295.145944 
L 383.859534 291.44408 
L 384.26586 294.264006 
L 384.672186 294.074809 
L 385.078512 291.680019 
L 385.484838 294.607552 
L 385.891164 291.819428 
L 386.703816 294.918692 
L 387.110142 288.826739 
L 387.516468 293.699615 
L 387.922794 294.447886 
L 388.32912 294.652282 
L 388.735447 294.594246 
L 389.141773 291.696018 
L 389.548099 294.862987 
L 389.954425 293.684191 
L 390.360751 294.946246 
L 390.767077 294.233188 
L 391.173403 295.360714 
L 391.986055 295.167956 
L 392.392381 289.495907 
L 392.798707 293.80612 
L 393.205034 293.805543 
L 393.61136 289.386783 
L 394.017686 295.45013 
L 394.424012 292.063038 
L 394.830338 295.148031 
L 395.236664 293.226523 
L 395.64299 292.73932 
L 396.049316 295.370437 
L 396.455642 294.23482 
L 396.861968 295.405819 
L 397.268294 292.458064 
L 397.674621 291.787873 
L 398.080947 293.025959 
L 398.487273 293.668999 
L 398.487273 293.668999 
" style="fill:none;stroke:#ff7f0e;stroke-linecap:square;stroke-width:1.5;"/>
   </g>
   <g id="patch_3">
    <path d="M 57.6 307.584 
L 57.6 41.472 
" style="fill:none;stroke:#000000;stroke-linecap:square;stroke-linejoin:miter;stroke-width:0.8;"/>
   </g>
   <g id="patch_4">
    <path d="M 414.72 307.584 
L 414.72 41.472 
" style="fill:none;stroke:#000000;stroke-linecap:square;stroke-linejoin:miter;stroke-width:0.8;"/>
   </g>
   <g id="patch_5">
    <path d="M 57.6 307.584 
L 414.72 307.584 
" style="fill:none;stroke:#000000;stroke-linecap:square;stroke-linejoin:miter;stroke-width:0.8;"/>
   </g>
   <g id="patch_6">
    <path d="M 57.6 41.472 
L 414.72 41.472 
" style="fill:none;stroke:#000000;stroke-linecap:square;stroke-linejoin:miter;stroke-width:0.8;"/>
   </g>
  </g>
 </g>
 <defs>
  <clipPath id="ped04e2c38a">
   <rect height="266.112" width="357.12" x="57.6" y="41.472"/>
  </clipPath>
 </defs>
</svg>
