<?xml version="1.0" encoding="utf-8" standalone="no"?>
<!DOCTYPE svg PUBLIC "-//W3C//DTD SVG 1.1//EN"
  "http://www.w3.org/Graphics/SVG/1.1/DTD/svg11.dtd">
<!-- Created with matplotlib (https://matplotlib.org/) -->
<svg height="345.6pt" version="1.1" viewBox="0 0 460.8 345.6" width="460.8pt" xmlns="http://www.w3.org/2000/svg" xmlns:xlink="http://www.w3.org/1999/xlink">
 <defs>
  <style type="text/css">
*{stroke-linecap:butt;stroke-linejoin:round;}
  </style>
 </defs>
 <g id="figure_1">
  <g id="patch_1">
   <path d="M 0 345.6 
L 460.8 345.6 
L 460.8 0 
L 0 0 
z
" style="fill:#ffffff;"/>
  </g>
  <g id="axes_1">
   <g id="patch_2">
    <path d="M 57.6 307.584 
L 414.72 307.584 
L 414.72 41.472 
L 57.6 41.472 
z
" style="fill:#ffffff;"/>
   </g>
   <g id="matplotlib.axis_1">
    <g id="xtick_1">
     <g id="line2d_1">
      <defs>
       <path d="M 0 0 
L 0 3.5 
" id="me9dc488e83" style="stroke:#000000;stroke-width:0.8;"/>
      </defs>
      <g>
       <use style="stroke:#000000;stroke-width:0.8;" x="73.832727" xlink:href="#me9dc488e83" y="307.584"/>
      </g>
     </g>
     <g id="text_1">
      <!-- 0 -->
      <defs>
       <path d="M 31.78125 66.40625 
Q 24.171875 66.40625 20.328125 58.90625 
Q 16.5 51.421875 16.5 36.375 
Q 16.5 21.390625 20.328125 13.890625 
Q 24.171875 6.390625 31.78125 6.390625 
Q 39.453125 6.390625 43.28125 13.890625 
Q 47.125 21.390625 47.125 36.375 
Q 47.125 51.421875 43.28125 58.90625 
Q 39.453125 66.40625 31.78125 66.40625 
z
M 31.78125 74.21875 
Q 44.046875 74.21875 50.515625 64.515625 
Q 56.984375 54.828125 56.984375 36.375 
Q 56.984375 17.96875 50.515625 8.265625 
Q 44.046875 -1.421875 31.78125 -1.421875 
Q 19.53125 -1.421875 13.0625 8.265625 
Q 6.59375 17.96875 6.59375 36.375 
Q 6.59375 54.828125 13.0625 64.515625 
Q 19.53125 74.21875 31.78125 74.21875 
z
" id="DejaVuSans-48"/>
      </defs>
      <g transform="translate(70.651477 322.182437)scale(0.1 -0.1)">
       <use xlink:href="#DejaVuSans-48"/>
      </g>
     </g>
    </g>
    <g id="xtick_2">
     <g id="line2d_2">
      <g>
       <use style="stroke:#000000;stroke-width:0.8;" x="114.465336" xlink:href="#me9dc488e83" y="307.584"/>
      </g>
     </g>
     <g id="text_2">
      <!-- 100 -->
      <defs>
       <path d="M 12.40625 8.296875 
L 28.515625 8.296875 
L 28.515625 63.921875 
L 10.984375 60.40625 
L 10.984375 69.390625 
L 28.421875 72.90625 
L 38.28125 72.90625 
L 38.28125 8.296875 
L 54.390625 8.296875 
L 54.390625 0 
L 12.40625 0 
z
" id="DejaVuSans-49"/>
      </defs>
      <g transform="translate(104.921586 322.182437)scale(0.1 -0.1)">
       <use xlink:href="#DejaVuSans-49"/>
       <use x="63.623047" xlink:href="#DejaVuSans-48"/>
       <use x="127.246094" xlink:href="#DejaVuSans-48"/>
      </g>
     </g>
    </g>
    <g id="xtick_3">
     <g id="line2d_3">
      <g>
       <use style="stroke:#000000;stroke-width:0.8;" x="155.097945" xlink:href="#me9dc488e83" y="307.584"/>
      </g>
     </g>
     <g id="text_3">
      <!-- 200 -->
      <defs>
       <path d="M 19.1875 8.296875 
L 53.609375 8.296875 
L 53.609375 0 
L 7.328125 0 
L 7.328125 8.296875 
Q 12.9375 14.109375 22.625 23.890625 
Q 32.328125 33.6875 34.8125 36.53125 
Q 39.546875 41.84375 41.421875 45.53125 
Q 43.3125 49.21875 43.3125 52.78125 
Q 43.3125 58.59375 39.234375 62.25 
Q 35.15625 65.921875 28.609375 65.921875 
Q 23.96875 65.921875 18.8125 64.3125 
Q 13.671875 62.703125 7.8125 59.421875 
L 7.8125 69.390625 
Q 13.765625 71.78125 18.9375 73 
Q 24.125 74.21875 28.421875 74.21875 
Q 39.75 74.21875 46.484375 68.546875 
Q 53.21875 62.890625 53.21875 53.421875 
Q 53.21875 48.921875 51.53125 44.890625 
Q 49.859375 40.875 45.40625 35.40625 
Q 44.1875 33.984375 37.640625 27.21875 
Q 31.109375 20.453125 19.1875 8.296875 
z
" id="DejaVuSans-50"/>
      </defs>
      <g transform="translate(145.554195 322.182437)scale(0.1 -0.1)">
       <use xlink:href="#DejaVuSans-50"/>
       <use x="63.623047" xlink:href="#DejaVuSans-48"/>
       <use x="127.246094" xlink:href="#DejaVuSans-48"/>
      </g>
     </g>
    </g>
    <g id="xtick_4">
     <g id="line2d_4">
      <g>
       <use style="stroke:#000000;stroke-width:0.8;" x="195.730554" xlink:href="#me9dc488e83" y="307.584"/>
      </g>
     </g>
     <g id="text_4">
      <!-- 300 -->
      <defs>
       <path d="M 40.578125 39.3125 
Q 47.65625 37.796875 51.625 33 
Q 55.609375 28.21875 55.609375 21.1875 
Q 55.609375 10.40625 48.1875 4.484375 
Q 40.765625 -1.421875 27.09375 -1.421875 
Q 22.515625 -1.421875 17.65625 -0.515625 
Q 12.796875 0.390625 7.625 2.203125 
L 7.625 11.71875 
Q 11.71875 9.328125 16.59375 8.109375 
Q 21.484375 6.890625 26.8125 6.890625 
Q 36.078125 6.890625 40.9375 10.546875 
Q 45.796875 14.203125 45.796875 21.1875 
Q 45.796875 27.640625 41.28125 31.265625 
Q 36.765625 34.90625 28.71875 34.90625 
L 20.21875 34.90625 
L 20.21875 43.015625 
L 29.109375 43.015625 
Q 36.375 43.015625 40.234375 45.921875 
Q 44.09375 48.828125 44.09375 54.296875 
Q 44.09375 59.90625 40.109375 62.90625 
Q 36.140625 65.921875 28.71875 65.921875 
Q 24.65625 65.921875 20.015625 65.03125 
Q 15.375 64.15625 9.8125 62.3125 
L 9.8125 71.09375 
Q 15.4375 72.65625 20.34375 73.4375 
Q 25.25 74.21875 29.59375 74.21875 
Q 40.828125 74.21875 47.359375 69.109375 
Q 53.90625 64.015625 53.90625 55.328125 
Q 53.90625 49.265625 50.4375 45.09375 
Q 46.96875 40.921875 40.578125 39.3125 
z
" id="DejaVuSans-51"/>
      </defs>
      <g transform="translate(186.186804 322.182437)scale(0.1 -0.1)">
       <use xlink:href="#DejaVuSans-51"/>
       <use x="63.623047" xlink:href="#DejaVuSans-48"/>
       <use x="127.246094" xlink:href="#DejaVuSans-48"/>
      </g>
     </g>
    </g>
    <g id="xtick_5">
     <g id="line2d_5">
      <g>
       <use style="stroke:#000000;stroke-width:0.8;" x="236.363163" xlink:href="#me9dc488e83" y="307.584"/>
      </g>
     </g>
     <g id="text_5">
      <!-- 400 -->
      <defs>
       <path d="M 37.796875 64.3125 
L 12.890625 25.390625 
L 37.796875 25.390625 
z
M 35.203125 72.90625 
L 47.609375 72.90625 
L 47.609375 25.390625 
L 58.015625 25.390625 
L 58.015625 17.1875 
L 47.609375 17.1875 
L 47.609375 0 
L 37.796875 0 
L 37.796875 17.1875 
L 4.890625 17.1875 
L 4.890625 26.703125 
z
" id="DejaVuSans-52"/>
      </defs>
      <g transform="translate(226.819413 322.182437)scale(0.1 -0.1)">
       <use xlink:href="#DejaVuSans-52"/>
       <use x="63.623047" xlink:href="#DejaVuSans-48"/>
       <use x="127.246094" xlink:href="#DejaVuSans-48"/>
      </g>
     </g>
    </g>
    <g id="xtick_6">
     <g id="line2d_6">
      <g>
       <use style="stroke:#000000;stroke-width:0.8;" x="276.995772" xlink:href="#me9dc488e83" y="307.584"/>
      </g>
     </g>
     <g id="text_6">
      <!-- 500 -->
      <defs>
       <path d="M 10.796875 72.90625 
L 49.515625 72.90625 
L 49.515625 64.59375 
L 19.828125 64.59375 
L 19.828125 46.734375 
Q 21.96875 47.46875 24.109375 47.828125 
Q 26.265625 48.1875 28.421875 48.1875 
Q 40.625 48.1875 47.75 41.5 
Q 54.890625 34.8125 54.890625 23.390625 
Q 54.890625 11.625 47.5625 5.09375 
Q 40.234375 -1.421875 26.90625 -1.421875 
Q 22.3125 -1.421875 17.546875 -0.640625 
Q 12.796875 0.140625 7.71875 1.703125 
L 7.71875 11.625 
Q 12.109375 9.234375 16.796875 8.0625 
Q 21.484375 6.890625 26.703125 6.890625 
Q 35.15625 6.890625 40.078125 11.328125 
Q 45.015625 15.765625 45.015625 23.390625 
Q 45.015625 31 40.078125 35.4375 
Q 35.15625 39.890625 26.703125 39.890625 
Q 22.75 39.890625 18.8125 39.015625 
Q 14.890625 38.140625 10.796875 36.28125 
z
" id="DejaVuSans-53"/>
      </defs>
      <g transform="translate(267.452022 322.182437)scale(0.1 -0.1)">
       <use xlink:href="#DejaVuSans-53"/>
       <use x="63.623047" xlink:href="#DejaVuSans-48"/>
       <use x="127.246094" xlink:href="#DejaVuSans-48"/>
      </g>
     </g>
    </g>
    <g id="xtick_7">
     <g id="line2d_7">
      <g>
       <use style="stroke:#000000;stroke-width:0.8;" x="317.628381" xlink:href="#me9dc488e83" y="307.584"/>
      </g>
     </g>
     <g id="text_7">
      <!-- 600 -->
      <defs>
       <path d="M 33.015625 40.375 
Q 26.375 40.375 22.484375 35.828125 
Q 18.609375 31.296875 18.609375 23.390625 
Q 18.609375 15.53125 22.484375 10.953125 
Q 26.375 6.390625 33.015625 6.390625 
Q 39.65625 6.390625 43.53125 10.953125 
Q 47.40625 15.53125 47.40625 23.390625 
Q 47.40625 31.296875 43.53125 35.828125 
Q 39.65625 40.375 33.015625 40.375 
z
M 52.59375 71.296875 
L 52.59375 62.3125 
Q 48.875 64.0625 45.09375 64.984375 
Q 41.3125 65.921875 37.59375 65.921875 
Q 27.828125 65.921875 22.671875 59.328125 
Q 17.53125 52.734375 16.796875 39.40625 
Q 19.671875 43.65625 24.015625 45.921875 
Q 28.375 48.1875 33.59375 48.1875 
Q 44.578125 48.1875 50.953125 41.515625 
Q 57.328125 34.859375 57.328125 23.390625 
Q 57.328125 12.15625 50.6875 5.359375 
Q 44.046875 -1.421875 33.015625 -1.421875 
Q 20.359375 -1.421875 13.671875 8.265625 
Q 6.984375 17.96875 6.984375 36.375 
Q 6.984375 53.65625 15.1875 63.9375 
Q 23.390625 74.21875 37.203125 74.21875 
Q 40.921875 74.21875 44.703125 73.484375 
Q 48.484375 72.75 52.59375 71.296875 
z
" id="DejaVuSans-54"/>
      </defs>
      <g transform="translate(308.084631 322.182437)scale(0.1 -0.1)">
       <use xlink:href="#DejaVuSans-54"/>
       <use x="63.623047" xlink:href="#DejaVuSans-48"/>
       <use x="127.246094" xlink:href="#DejaVuSans-48"/>
      </g>
     </g>
    </g>
    <g id="xtick_8">
     <g id="line2d_8">
      <g>
       <use style="stroke:#000000;stroke-width:0.8;" x="358.26099" xlink:href="#me9dc488e83" y="307.584"/>
      </g>
     </g>
     <g id="text_8">
      <!-- 700 -->
      <defs>
       <path d="M 8.203125 72.90625 
L 55.078125 72.90625 
L 55.078125 68.703125 
L 28.609375 0 
L 18.3125 0 
L 43.21875 64.59375 
L 8.203125 64.59375 
z
" id="DejaVuSans-55"/>
      </defs>
      <g transform="translate(348.71724 322.182437)scale(0.1 -0.1)">
       <use xlink:href="#DejaVuSans-55"/>
       <use x="63.623047" xlink:href="#DejaVuSans-48"/>
       <use x="127.246094" xlink:href="#DejaVuSans-48"/>
      </g>
     </g>
    </g>
    <g id="xtick_9">
     <g id="line2d_9">
      <g>
       <use style="stroke:#000000;stroke-width:0.8;" x="398.893599" xlink:href="#me9dc488e83" y="307.584"/>
      </g>
     </g>
     <g id="text_9">
      <!-- 800 -->
      <defs>
       <path d="M 31.78125 34.625 
Q 24.75 34.625 20.71875 30.859375 
Q 16.703125 27.09375 16.703125 20.515625 
Q 16.703125 13.921875 20.71875 10.15625 
Q 24.75 6.390625 31.78125 6.390625 
Q 38.8125 6.390625 42.859375 10.171875 
Q 46.921875 13.96875 46.921875 20.515625 
Q 46.921875 27.09375 42.890625 30.859375 
Q 38.875 34.625 31.78125 34.625 
z
M 21.921875 38.8125 
Q 15.578125 40.375 12.03125 44.71875 
Q 8.5 49.078125 8.5 55.328125 
Q 8.5 64.0625 14.71875 69.140625 
Q 20.953125 74.21875 31.78125 74.21875 
Q 42.671875 74.21875 48.875 69.140625 
Q 55.078125 64.0625 55.078125 55.328125 
Q 55.078125 49.078125 51.53125 44.71875 
Q 48 40.375 41.703125 38.8125 
Q 48.828125 37.15625 52.796875 32.3125 
Q 56.78125 27.484375 56.78125 20.515625 
Q 56.78125 9.90625 50.3125 4.234375 
Q 43.84375 -1.421875 31.78125 -1.421875 
Q 19.734375 -1.421875 13.25 4.234375 
Q 6.78125 9.90625 6.78125 20.515625 
Q 6.78125 27.484375 10.78125 32.3125 
Q 14.796875 37.15625 21.921875 38.8125 
z
M 18.3125 54.390625 
Q 18.3125 48.734375 21.84375 45.5625 
Q 25.390625 42.390625 31.78125 42.390625 
Q 38.140625 42.390625 41.71875 45.5625 
Q 45.3125 48.734375 45.3125 54.390625 
Q 45.3125 60.0625 41.71875 63.234375 
Q 38.140625 66.40625 31.78125 66.40625 
Q 25.390625 66.40625 21.84375 63.234375 
Q 18.3125 60.0625 18.3125 54.390625 
z
" id="DejaVuSans-56"/>
      </defs>
      <g transform="translate(389.349849 322.182437)scale(0.1 -0.1)">
       <use xlink:href="#DejaVuSans-56"/>
       <use x="63.623047" xlink:href="#DejaVuSans-48"/>
       <use x="127.246094" xlink:href="#DejaVuSans-48"/>
      </g>
     </g>
    </g>
   </g>
   <g id="matplotlib.axis_2">
    <g id="ytick_1">
     <g id="line2d_10">
      <defs>
       <path d="M 0 0 
L -3.5 0 
" id="mccdff4fb80" style="stroke:#000000;stroke-width:0.8;"/>
      </defs>
      <g>
       <use style="stroke:#000000;stroke-width:0.8;" x="57.6" xlink:href="#mccdff4fb80" y="295.501678"/>
      </g>
     </g>
     <g id="text_10">
      <!-- 0.0000 -->
      <defs>
       <path d="M 10.6875 12.40625 
L 21 12.40625 
L 21 0 
L 10.6875 0 
z
" id="DejaVuSans-46"/>
      </defs>
      <g transform="translate(15.609375 299.300897)scale(0.1 -0.1)">
       <use xlink:href="#DejaVuSans-48"/>
       <use x="63.623047" xlink:href="#DejaVuSans-46"/>
       <use x="95.410156" xlink:href="#DejaVuSans-48"/>
       <use x="159.033203" xlink:href="#DejaVuSans-48"/>
       <use x="222.65625" xlink:href="#DejaVuSans-48"/>
       <use x="286.279297" xlink:href="#DejaVuSans-48"/>
      </g>
     </g>
    </g>
    <g id="ytick_2">
     <g id="line2d_11">
      <g>
       <use style="stroke:#000000;stroke-width:0.8;" x="57.6" xlink:href="#mccdff4fb80" y="245.83688"/>
      </g>
     </g>
     <g id="text_11">
      <!-- 0.0005 -->
      <g transform="translate(15.609375 249.636099)scale(0.1 -0.1)">
       <use xlink:href="#DejaVuSans-48"/>
       <use x="63.623047" xlink:href="#DejaVuSans-46"/>
       <use x="95.410156" xlink:href="#DejaVuSans-48"/>
       <use x="159.033203" xlink:href="#DejaVuSans-48"/>
       <use x="222.65625" xlink:href="#DejaVuSans-48"/>
       <use x="286.279297" xlink:href="#DejaVuSans-53"/>
      </g>
     </g>
    </g>
    <g id="ytick_3">
     <g id="line2d_12">
      <g>
       <use style="stroke:#000000;stroke-width:0.8;" x="57.6" xlink:href="#mccdff4fb80" y="196.172082"/>
      </g>
     </g>
     <g id="text_12">
      <!-- 0.0010 -->
      <g transform="translate(15.609375 199.9713)scale(0.1 -0.1)">
       <use xlink:href="#DejaVuSans-48"/>
       <use x="63.623047" xlink:href="#DejaVuSans-46"/>
       <use x="95.410156" xlink:href="#DejaVuSans-48"/>
       <use x="159.033203" xlink:href="#DejaVuSans-48"/>
       <use x="222.65625" xlink:href="#DejaVuSans-49"/>
       <use x="286.279297" xlink:href="#DejaVuSans-48"/>
      </g>
     </g>
    </g>
    <g id="ytick_4">
     <g id="line2d_13">
      <g>
       <use style="stroke:#000000;stroke-width:0.8;" x="57.6" xlink:href="#mccdff4fb80" y="146.507283"/>
      </g>
     </g>
     <g id="text_13">
      <!-- 0.0015 -->
      <g transform="translate(15.609375 150.306502)scale(0.1 -0.1)">
       <use xlink:href="#DejaVuSans-48"/>
       <use x="63.623047" xlink:href="#DejaVuSans-46"/>
       <use x="95.410156" xlink:href="#DejaVuSans-48"/>
       <use x="159.033203" xlink:href="#DejaVuSans-48"/>
       <use x="222.65625" xlink:href="#DejaVuSans-49"/>
       <use x="286.279297" xlink:href="#DejaVuSans-53"/>
      </g>
     </g>
    </g>
    <g id="ytick_5">
     <g id="line2d_14">
      <g>
       <use style="stroke:#000000;stroke-width:0.8;" x="57.6" xlink:href="#mccdff4fb80" y="96.842485"/>
      </g>
     </g>
     <g id="text_14">
      <!-- 0.0020 -->
      <g transform="translate(15.609375 100.641704)scale(0.1 -0.1)">
       <use xlink:href="#DejaVuSans-48"/>
       <use x="63.623047" xlink:href="#DejaVuSans-46"/>
       <use x="95.410156" xlink:href="#DejaVuSans-48"/>
       <use x="159.033203" xlink:href="#DejaVuSans-48"/>
       <use x="222.65625" xlink:href="#DejaVuSans-50"/>
       <use x="286.279297" xlink:href="#DejaVuSans-48"/>
      </g>
     </g>
    </g>
    <g id="ytick_6">
     <g id="line2d_15">
      <g>
       <use style="stroke:#000000;stroke-width:0.8;" x="57.6" xlink:href="#mccdff4fb80" y="47.177687"/>
      </g>
     </g>
     <g id="text_15">
      <!-- 0.0025 -->
      <g transform="translate(15.609375 50.976905)scale(0.1 -0.1)">
       <use xlink:href="#DejaVuSans-48"/>
       <use x="63.623047" xlink:href="#DejaVuSans-46"/>
       <use x="95.410156" xlink:href="#DejaVuSans-48"/>
       <use x="159.033203" xlink:href="#DejaVuSans-48"/>
       <use x="222.65625" xlink:href="#DejaVuSans-50"/>
       <use x="286.279297" xlink:href="#DejaVuSans-53"/>
      </g>
     </g>
    </g>
   </g>
   <g id="line2d_16">
    <path clip-path="url(#p915256f51e)" d="M 73.832727 254.464245 
L 74.239053 248.671038 
L 74.645379 248.784926 
L 75.051706 249.885624 
L 75.458032 250.535797 
L 75.864358 249.772501 
L 76.270684 247.849271 
L 77.083336 245.793716 
L 77.489662 248.072879 
L 77.895988 249.401317 
L 78.302314 249.280056 
L 78.70864 247.580304 
L 79.114966 244.582995 
L 79.521293 247.569546 
L 79.927619 246.132507 
L 80.333945 247.597263 
L 80.740271 249.9857 
L 81.146597 254.14194 
L 81.552923 247.950788 
L 81.959249 245.708152 
L 82.771901 248.960502 
L 83.178227 247.942685 
L 83.584553 250.349152 
L 83.99088 250.493281 
L 84.397206 246.226698 
L 84.803532 246.727513 
L 85.209858 247.863827 
L 86.02251 251.061837 
L 86.428836 253.709777 
L 86.835162 247.985183 
L 87.241488 247.07943 
L 87.647814 246.963659 
L 88.05414 246.579591 
L 88.460466 245.835727 
L 88.866793 246.767704 
L 89.273119 246.189435 
L 89.679445 246.806545 
L 90.492097 245.173264 
L 90.898423 243.384483 
L 91.304749 245.001388 
L 91.711075 248.62885 
L 92.117401 248.673796 
L 92.523727 254.089077 
L 92.930053 251.68087 
L 93.33638 245.788899 
L 93.742706 236.500492 
L 94.149032 240.058463 
L 94.555358 241.190212 
L 94.961684 241.306666 
L 95.36801 241.665522 
L 95.774336 241.794584 
L 96.180662 242.501208 
L 96.586988 242.929636 
L 96.993314 240.025536 
L 97.39964 234.132747 
L 97.805967 244.562529 
L 98.212293 246.355106 
L 98.618619 245.26219 
L 99.024945 244.704703 
L 99.431271 239.440683 
L 99.837597 241.575841 
L 100.243923 243.000761 
L 100.650249 250.054834 
L 101.056575 245.005123 
L 101.462901 246.077829 
L 101.869227 247.725079 
L 102.275554 248.376589 
L 102.68188 247.99025 
L 103.088206 246.344891 
L 103.494532 249.019208 
L 104.307184 237.16602 
L 104.71351 219.068764 
L 105.119836 245.545546 
L 105.526162 244.374867 
L 105.932488 249.610595 
L 106.338814 249.565063 
L 106.745141 260.335513 
L 107.151467 247.754437 
L 107.557793 248.606361 
L 107.964119 242.010057 
L 108.370445 246.385041 
L 108.776771 243.369544 
L 109.183097 247.036119 
L 109.589423 247.816242 
L 109.995749 245.802889 
L 110.402075 245.247981 
L 110.808401 253.073485 
L 111.214728 244.55632 
L 111.621054 250.985325 
L 112.02738 246.032423 
L 112.433706 250.867154 
L 113.246358 236.10907 
L 113.652684 247.791988 
L 114.05901 245.293284 
L 114.871662 244.709077 
L 115.277988 249.354347 
L 115.684314 250.956272 
L 116.496967 243.426632 
L 116.903293 248.238187 
L 117.309619 249.854255 
L 117.715945 245.968086 
L 118.122271 246.963363 
L 118.528597 244.064024 
L 118.934923 244.865917 
L 119.341249 252.066134 
L 119.747575 255.417594 
L 120.153901 251.000455 
L 120.560228 243.691333 
L 120.966554 239.254622 
L 121.779206 251.512101 
L 122.185532 252.460278 
L 122.591858 250.453516 
L 123.40451 255.858153 
L 123.810836 256.313599 
L 124.217162 245.771107 
L 124.623488 244.105797 
L 125.029815 244.755138 
L 125.436141 249.997422 
L 125.842467 241.455455 
L 126.248793 246.777723 
L 127.061445 250.148516 
L 127.874097 250.936719 
L 128.280423 250.655238 
L 128.686749 250.552606 
L 129.093075 246.887079 
L 129.905728 247.095983 
L 130.312054 247.503975 
L 130.71838 247.24344 
L 131.124706 247.166528 
L 131.531032 247.923389 
L 131.937358 246.989335 
L 132.343684 248.48263 
L 132.75001 247.792343 
L 133.968989 248.008945 
L 134.375315 241.950364 
L 134.781641 246.221188 
L 135.187967 246.431155 
L 135.594293 255.006645 
L 136.000619 238.673859 
L 136.406945 235.609679 
L 136.813271 240.06136 
L 137.219597 237.080178 
L 138.032249 241.179538 
L 138.438575 247.03195 
L 138.844902 255.483057 
L 139.251228 237.023721 
L 139.657554 245.503149 
L 140.06388 236.182177 
L 140.470206 244.580144 
L 140.876532 237.016166 
L 141.282858 240.153419 
L 141.689184 244.261798 
L 142.09551 245.116788 
L 142.501836 225.961849 
L 143.314489 245.51291 
L 143.720815 233.202948 
L 144.533467 249.993309 
L 144.939793 252.627731 
L 145.346119 254.361837 
L 145.752445 255.212347 
L 146.158771 255.543812 
L 146.565097 257.078573 
L 146.971423 253.457757 
L 147.377749 247.738908 
L 147.784076 237.782003 
L 148.190402 241.966233 
L 148.596728 254.592419 
L 149.003054 250.528174 
L 149.40938 272.574044 
L 149.815706 260.464252 
L 150.628358 248.689167 
L 151.034684 240.736842 
L 151.44101 243.368031 
L 151.847336 248.045555 
L 152.253663 250.156056 
L 152.659989 250.981109 
L 153.066315 244.44879 
L 153.472641 244.134454 
L 154.285293 225.452301 
L 155.504271 252.261664 
L 155.910597 256.300566 
L 156.316923 251.587746 
L 156.72325 252.383032 
L 157.129576 251.714054 
L 157.535902 239.261772 
L 157.942228 250.195582 
L 158.348554 252.266171 
L 158.75488 53.568 
L 159.161206 196.90493 
L 159.567532 212.736443 
L 159.973858 234.79388 
L 160.380184 244.470973 
L 160.78651 259.503215 
L 161.192837 283.905627 
L 161.599163 266.149128 
L 162.005489 257.09926 
L 162.411815 270.675956 
L 162.818141 259.994588 
L 163.630793 255.512326 
L 164.443445 254.248462 
L 164.849771 265.847685 
L 165.256097 251.608931 
L 165.662423 257.512358 
L 166.06875 252.843672 
L 166.475076 255.841958 
L 166.881402 253.189911 
L 167.287728 258.926301 
L 168.10038 242.111449 
L 168.506706 254.246959 
L 168.913032 251.937477 
L 169.319358 253.416231 
L 169.725684 245.6594 
L 170.13201 247.91397 
L 170.944663 239.44374 
L 171.350989 237.736825 
L 171.757315 236.525136 
L 172.163641 236.303936 
L 172.569967 251.268063 
L 172.976293 249.610246 
L 173.382619 244.660876 
L 173.788945 251.823507 
L 174.195271 249.18699 
L 174.601597 242.50351 
L 175.007924 242.064068 
L 175.41425 240.543663 
L 175.820576 259.924639 
L 176.226902 269.17833 
L 176.633228 267.838786 
L 177.039554 270.495093 
L 177.852206 269.139124 
L 178.258532 251.224417 
L 178.664858 254.727137 
L 179.071184 253.64513 
L 179.477511 245.57799 
L 179.883837 257.136666 
L 180.290163 247.492123 
L 180.696489 261.037024 
L 181.102815 263.616701 
L 181.509141 275.210236 
L 181.915467 264.059757 
L 182.321793 278.085455 
L 182.728119 264.247897 
L 183.134445 264.331999 
L 183.540771 263.622474 
L 183.947098 261.517875 
L 184.75975 255.698394 
L 185.166076 254.949942 
L 185.572402 263.889228 
L 185.978728 258.963307 
L 186.385054 259.937947 
L 186.79138 257.480494 
L 187.197706 251.943707 
L 187.604032 254.729183 
L 188.010358 248.200946 
L 188.416684 246.201148 
L 188.823011 257.705606 
L 189.229337 258.120637 
L 189.635663 255.465448 
L 190.041989 255.974176 
L 190.448315 254.468674 
L 190.854641 255.999519 
L 191.260967 256.115775 
L 191.667293 255.877203 
L 192.073619 255.320272 
L 192.479945 257.264249 
L 192.886271 256.532599 
L 193.292598 256.952302 
L 193.698924 261.84795 
L 194.10525 261.843525 
L 194.511576 256.718677 
L 194.917902 253.271838 
L 195.324228 254.055947 
L 195.730554 254.526643 
L 196.13688 249.950002 
L 196.543206 250.423296 
L 196.949532 247.864579 
L 197.355858 250.57209 
L 197.762185 255.374126 
L 198.168511 261.71112 
L 198.574837 251.052624 
L 198.981163 254.903355 
L 199.387489 251.017051 
L 199.793815 251.455649 
L 200.200141 257.348943 
L 200.606467 257.937772 
L 201.012793 254.434872 
L 201.419119 254.359946 
L 201.825445 260.780631 
L 202.231772 258.794621 
L 202.638098 257.409925 
L 203.044424 265.023463 
L 203.45075 259.488311 
L 203.857076 258.986859 
L 204.263402 258.842711 
L 204.669728 237.476496 
L 205.076054 237.209393 
L 205.48238 253.358273 
L 205.888706 258.422621 
L 206.295032 260.25931 
L 206.701359 259.526228 
L 207.107685 254.435565 
L 207.920337 263.160684 
L 208.326663 256.87983 
L 208.732989 259.742551 
L 209.139315 263.835675 
L 209.545641 265.075306 
L 209.951967 262.5438 
L 210.358293 240.764115 
L 210.764619 249.080399 
L 211.170946 246.761642 
L 211.577272 249.416254 
L 211.983598 244.059561 
L 212.389924 242.636955 
L 212.79625 246.058722 
L 213.202576 246.093992 
L 213.608902 238.87773 
L 214.015228 251.221154 
L 214.421554 241.062506 
L 214.82788 250.920901 
L 215.234206 252.254175 
L 215.640532 252.859286 
L 216.046859 251.787265 
L 216.453185 257.958067 
L 216.859511 257.739085 
L 217.672163 240.692842 
L 218.078489 245.735189 
L 218.484815 244.783806 
L 218.891141 251.375436 
L 219.297467 248.214607 
L 219.703793 248.48745 
L 220.516446 257.143451 
L 220.922772 256.599688 
L 221.329098 241.891141 
L 221.735424 244.328965 
L 222.14175 244.073452 
L 222.548076 244.985271 
L 222.954402 238.267711 
L 223.360728 249.68866 
L 223.767054 251.170744 
L 224.17338 255.759938 
L 224.986033 245.386073 
L 225.392359 247.611135 
L 225.798685 251.547174 
L 226.205011 162.71759 
L 226.611337 213.25896 
L 227.017663 230.97928 
L 227.423989 240.292074 
L 227.830315 237.946879 
L 228.236641 248.745883 
L 228.642967 255.695221 
L 229.049293 252.211061 
L 229.45562 256.717567 
L 229.861946 256.897727 
L 230.268272 265.183708 
L 230.674598 259.190057 
L 231.080924 254.881109 
L 231.48725 258.496312 
L 231.893576 259.335495 
L 232.299902 253.270228 
L 232.706228 257.864519 
L 233.112554 251.961518 
L 233.51888 256.448705 
L 233.925207 250.546076 
L 234.331533 248.505101 
L 234.737859 252.422132 
L 235.144185 262.066194 
L 235.550511 249.234895 
L 235.956837 252.848729 
L 236.363163 259.223848 
L 236.769489 256.266587 
L 237.175815 258.607862 
L 237.988467 245.837902 
L 238.394793 247.304163 
L 238.80112 251.907828 
L 239.207446 254.239541 
L 239.613772 254.985079 
L 240.020098 256.467585 
L 240.426424 255.466251 
L 240.83275 254.809451 
L 241.239076 256.835023 
L 241.645402 256.955542 
L 242.051728 259.605706 
L 242.458054 258.633214 
L 242.86438 258.605202 
L 243.270707 256.420813 
L 243.677033 255.169126 
L 244.083359 255.45621 
L 244.489685 256.240956 
L 244.896011 256.099593 
L 245.302337 251.33126 
L 245.708663 249.66175 
L 246.114989 251.073178 
L 246.521315 250.774249 
L 246.927641 251.142729 
L 247.333967 247.925741 
L 247.740294 251.135951 
L 248.14662 260.59876 
L 248.552946 256.43484 
L 248.959272 253.712701 
L 249.365598 254.558694 
L 249.771924 260.649812 
L 250.17825 235.410297 
L 250.990902 259.898578 
L 251.397228 257.787518 
L 251.803554 259.416571 
L 252.209881 251.717066 
L 252.616207 256.864066 
L 253.022533 252.083138 
L 253.428859 252.143105 
L 254.241511 251.028077 
L 254.647837 252.576942 
L 255.054163 251.22914 
L 255.460489 243.089149 
L 255.866815 239.720747 
L 256.273141 250.03195 
L 256.679468 242.135382 
L 257.085794 240.257318 
L 257.49212 254.503731 
L 257.898446 252.944366 
L 258.304772 257.422652 
L 259.117424 270.209624 
L 259.52375 271.862197 
L 259.930076 263.07938 
L 260.336402 263.696885 
L 260.742728 259.506148 
L 261.149054 263.223988 
L 261.555381 263.135235 
L 261.961707 265.453196 
L 262.368033 251.970528 
L 262.774359 250.632435 
L 263.180685 247.432869 
L 263.587011 259.706114 
L 263.993337 261.6879 
L 264.399663 259.190629 
L 264.805989 260.571219 
L 265.212315 250.629833 
L 265.618641 262.76221 
L 266.024968 258.798935 
L 266.431294 256.123133 
L 266.83762 259.571511 
L 267.243946 258.385484 
L 267.650272 249.591283 
L 268.056598 257.931017 
L 268.462924 253.641269 
L 268.86925 258.276597 
L 269.275576 249.000264 
L 269.681902 260.048299 
L 270.900881 265.458861 
L 271.713533 260.222269 
L 272.119859 273.424475 
L 272.932511 265.8525 
L 273.338837 269.638331 
L 273.745163 255.861515 
L 274.557815 247.33641 
L 275.370468 259.65195 
L 276.18312 261.217703 
L 276.589446 256.628635 
L 276.995772 257.711502 
L 277.402098 260.520534 
L 277.808424 260.213785 
L 278.21475 261.544274 
L 278.621076 259.454073 
L 279.027402 259.941146 
L 279.433729 256.757797 
L 279.840055 256.270489 
L 280.246381 257.802487 
L 280.652707 258.1478 
L 281.059033 258.29981 
L 281.465359 252.203881 
L 281.871685 249.90315 
L 282.278011 246.95134 
L 282.684337 246.074864 
L 283.090663 247.824438 
L 283.496989 255.228735 
L 283.903316 259.110402 
L 284.309642 250.794218 
L 284.715968 247.798144 
L 285.122294 246.88138 
L 285.52862 255.087608 
L 285.934946 259.419893 
L 286.341272 260.545342 
L 286.747598 253.146229 
L 287.153924 250.205703 
L 287.56025 256.169969 
L 287.966576 251.890267 
L 288.372902 256.807069 
L 288.779229 259.6969 
L 289.185555 260.235263 
L 289.591881 253.647694 
L 289.998207 257.619659 
L 290.404533 252.754524 
L 290.810859 257.34 
L 291.623511 249.524952 
L 292.029837 248.513925 
L 292.436163 248.949487 
L 292.842489 255.049007 
L 293.655142 249.372027 
L 294.061468 248.851703 
L 294.467794 250.276871 
L 294.87412 252.333955 
L 295.280446 251.15397 
L 295.686772 251.338696 
L 296.093098 255.310292 
L 296.499424 255.012804 
L 296.90575 252.197549 
L 297.312076 256.457626 
L 297.718403 258.248126 
L 298.124729 255.160669 
L 298.531055 256.555719 
L 298.937381 252.572237 
L 299.343707 252.251389 
L 299.750033 249.754702 
L 300.562685 246.643007 
L 300.969011 239.200475 
L 301.375337 246.426538 
L 301.781663 248.31215 
L 302.18799 247.951997 
L 302.594316 246.799465 
L 303.000642 247.688962 
L 303.406968 252.952401 
L 303.813294 256.2491 
L 304.21962 256.077709 
L 304.625946 251.728313 
L 305.032272 255.680068 
L 305.438598 255.94855 
L 305.844924 257.659533 
L 306.25125 258.444392 
L 306.657577 252.841771 
L 307.063903 255.896309 
L 307.470229 251.355657 
L 307.876555 255.350341 
L 308.282881 257.354172 
L 308.689207 257.777705 
L 309.095533 251.00356 
L 309.501859 254.829967 
L 309.908185 256.841251 
L 310.314511 249.672394 
L 310.720837 245.582156 
L 311.127163 252.382707 
L 311.53349 247.439265 
L 311.939816 257.805892 
L 312.346142 247.791574 
L 312.752468 258.720036 
L 313.158794 255.117183 
L 313.56512 252.766424 
L 313.971446 245.138956 
L 314.377772 242.934765 
L 314.784098 248.534871 
L 315.190424 243.799357 
L 315.59675 250.970976 
L 316.003077 248.852396 
L 316.409403 242.173011 
L 316.815729 248.445517 
L 317.222055 245.841631 
L 317.628381 244.936035 
L 318.034707 242.655877 
L 318.441033 246.644173 
L 318.847359 247.903255 
L 319.660011 256.945338 
L 320.066337 249.801898 
L 320.472664 249.646684 
L 320.87899 254.192462 
L 321.285316 255.05498 
L 321.691642 248.072401 
L 322.097968 248.639021 
L 322.504294 247.328874 
L 322.91062 250.948135 
L 323.316946 248.257568 
L 323.723272 251.503775 
L 324.129598 249.508191 
L 324.535924 251.46464 
L 324.942251 248.207638 
L 325.348577 247.49636 
L 325.754903 248.552373 
L 326.161229 248.607534 
L 326.567555 253.206735 
L 326.973881 249.738455 
L 327.380207 253.846131 
L 327.786533 255.852794 
L 328.192859 250.809697 
L 328.599185 254.869797 
L 329.005511 256.899114 
L 329.411838 257.613941 
L 329.818164 256.925349 
L 330.22449 252.201618 
L 330.630816 254.882874 
L 331.037142 256.015984 
L 331.443468 254.37928 
L 331.849794 256.983775 
L 332.25612 254.163706 
L 332.662446 252.828225 
L 333.475098 255.868453 
L 333.881425 254.045634 
L 334.287751 257.340815 
L 334.694077 258.040581 
L 335.100403 253.464882 
L 335.506729 256.497889 
L 335.913055 254.86642 
L 336.319381 255.421869 
L 336.725707 256.220657 
L 337.132033 245.759724 
L 337.538359 243.948443 
L 337.944685 253.446667 
L 338.351011 250.707786 
L 338.757338 241.90226 
L 339.163664 254.259437 
L 339.56999 255.870856 
L 339.976316 256.333712 
L 340.382642 260.096119 
L 340.788968 248.527471 
L 341.195294 250.361765 
L 341.60162 250.030729 
L 342.007946 249.431728 
L 342.414272 249.264942 
L 343.226925 248.140828 
L 344.039577 248.900718 
L 344.852229 249.346886 
L 345.258555 261.057055 
L 345.664881 265.139812 
L 346.071207 244.494814 
L 346.477533 238.558635 
L 346.883859 237.268563 
L 347.290185 237.078576 
L 347.696512 236.714729 
L 348.509164 236.867376 
L 348.91549 236.807582 
L 349.321816 237.001246 
L 350.134468 237.621825 
L 350.540794 237.814568 
L 350.94712 238.158606 
L 351.353446 237.988159 
L 352.166099 238.633145 
L 352.572425 238.399473 
L 352.978751 238.458637 
L 353.385077 238.323969 
L 353.791403 238.407476 
L 354.197729 238.919443 
L 354.604055 239.632985 
L 355.010381 237.828348 
L 355.416707 233.521229 
L 355.823033 237.97361 
L 356.229359 231.624551 
L 356.635686 229.885579 
L 357.042012 229.373534 
L 357.448338 249.775055 
L 357.854664 256.632891 
L 358.26099 257.109426 
L 358.667316 253.922718 
L 359.073642 243.329334 
L 359.479968 242.23929 
L 359.886294 267.48237 
L 360.29262 263.525921 
L 360.698946 262.408086 
L 361.105272 253.39435 
L 361.511599 253.450088 
L 361.917925 264.068278 
L 362.324251 257.637496 
L 362.730577 257.79086 
L 363.543229 239.31981 
L 363.949555 253.397278 
L 364.355881 242.440231 
L 364.762207 249.653558 
L 365.168533 244.703341 
L 365.981186 253.622306 
L 366.387512 256.143135 
L 366.793838 250.931581 
L 367.200164 238.756042 
L 367.60649 253.305093 
L 368.012816 260.472156 
L 368.419142 259.596715 
L 368.825468 264.425201 
L 369.231794 262.055365 
L 369.63812 247.375422 
L 370.044446 265.797731 
L 370.450773 253.710515 
L 370.857099 253.117118 
L 371.263425 238.504008 
L 372.076077 258.660232 
L 372.482403 264.121622 
L 373.295055 232.400935 
L 373.701381 249.298661 
L 374.107707 255.394099 
L 374.514033 247.784572 
L 374.92036 252.440304 
L 375.326686 280.312984 
L 375.733012 281.27905 
L 376.139338 260.714235 
L 376.545664 250.627716 
L 376.95199 252.073784 
L 377.358316 258.689627 
L 377.764642 261.91778 
L 378.170968 255.166323 
L 378.577294 261.844948 
L 378.98362 265.384541 
L 379.389947 266.775696 
L 379.796273 257.698901 
L 380.202599 263.757517 
L 380.608925 266.131226 
L 381.015251 257.09035 
L 381.421577 263.555259 
L 381.827903 259.492829 
L 382.234229 262.733473 
L 382.640555 257.755094 
L 383.046881 264.086018 
L 383.859534 271.590763 
L 384.26586 272.446452 
L 384.672186 281.375877 
L 385.078512 274.354816 
L 385.484838 257.928457 
L 385.891164 247.116011 
L 386.29749 250.476779 
L 386.703816 252.496909 
L 387.110142 251.917864 
L 387.516468 252.189486 
L 387.922794 236.960053 
L 388.32912 236.884747 
L 388.735447 253.558225 
L 389.141773 250.045942 
L 389.548099 247.545416 
L 389.954425 222.297727 
L 390.360751 238.691216 
L 390.767077 238.81243 
L 391.173403 251.742748 
L 391.986055 231.287938 
L 392.392381 241.384586 
L 392.798707 242.367545 
L 393.205034 237.876996 
L 393.61136 251.396116 
L 394.017686 240.393738 
L 394.424012 242.293371 
L 394.830338 241.948581 
L 395.236664 241.256793 
L 395.64299 246.033844 
L 396.455642 261.864372 
L 396.861968 263.314073 
L 397.268294 257.185441 
L 397.674621 255.539153 
L 398.080947 238.521424 
L 398.487273 248.808372 
L 398.487273 248.808372 
" style="fill:none;stroke:#1f77b4;stroke-linecap:square;stroke-width:1.5;"/>
   </g>
   <g id="line2d_17">
    <path clip-path="url(#p915256f51e)" d="M 73.832727 295.207949 
L 74.239053 295.353353 
L 74.645379 295.227178 
L 75.051706 294.747427 
L 75.458032 294.584696 
L 75.864358 295.283499 
L 76.270684 295.387684 
L 76.67701 295.216579 
L 77.083336 295.312322 
L 77.489662 295.128653 
L 77.895988 295.382617 
L 78.302314 295.144275 
L 78.70864 295.379638 
L 79.114966 295.019052 
L 79.521293 295.340936 
L 79.927619 295.314868 
L 80.333945 295.45701 
L 80.740271 295.126183 
L 81.146597 294.532652 
L 81.552923 295.426429 
L 83.178227 295.402492 
L 83.584553 295.371263 
L 83.99088 294.951149 
L 84.397206 295.43082 
L 84.803532 295.270872 
L 85.209858 295.407205 
L 85.616184 294.873244 
L 86.02251 293.664428 
L 86.428836 294.501565 
L 86.835162 293.755845 
L 87.241488 295.450723 
L 87.647814 294.046086 
L 88.05414 293.79117 
L 88.460466 293.796638 
L 89.273119 295.368842 
L 89.679445 294.932624 
L 90.085771 294.23974 
L 90.492097 294.500325 
L 90.898423 295.086998 
L 91.304749 294.375846 
L 91.711075 295.220828 
L 92.117401 294.501873 
L 92.523727 294.934095 
L 92.930053 294.659772 
L 93.33638 294.992638 
L 93.742706 294.914141 
L 94.149032 295.02921 
L 94.961684 294.580536 
L 95.36801 295.126275 
L 95.774336 295.296218 
L 96.180662 295.259874 
L 96.586988 294.542023 
L 96.993314 295.383217 
L 97.39964 293.887966 
L 97.805967 295.400624 
L 98.212293 295.131515 
L 98.618619 294.622199 
L 99.024945 294.941446 
L 99.431271 294.369924 
L 99.837597 294.029613 
L 100.243923 295.088096 
L 100.650249 294.971655 
L 101.056575 295.37447 
L 101.462901 294.711225 
L 101.869227 295.096935 
L 102.275554 294.730943 
L 102.68188 294.816321 
L 103.088206 295.439289 
L 103.494532 295.184097 
L 104.307184 295.478944 
L 104.71351 294.881683 
L 105.526162 294.826903 
L 105.932488 295.413051 
L 106.745141 295.39226 
L 107.151467 294.607125 
L 107.557793 295.173119 
L 107.964119 295.199362 
L 108.370445 294.91727 
L 108.776771 295.123951 
L 109.183097 294.803835 
L 109.589423 295.144127 
L 109.995749 294.380185 
L 110.402075 295.418285 
L 110.808401 295.442401 
L 112.02738 295.060192 
L 112.433706 295.388163 
L 112.840032 295.109914 
L 113.246358 295.106874 
L 113.652684 295.255134 
L 114.05901 295.049259 
L 114.465336 295.326369 
L 114.871662 295.072944 
L 115.277988 295.052458 
L 115.684314 295.469481 
L 116.090641 295.392401 
L 116.496967 295.049035 
L 116.903293 295.256211 
L 117.309619 295.301377 
L 117.715945 295.152494 
L 118.122271 294.849332 
L 118.528597 294.693675 
L 119.747575 295.447505 
L 120.153901 295.482931 
L 120.560228 294.552219 
L 120.966554 295.43909 
L 121.37288 294.115688 
L 121.779206 295.042742 
L 122.185532 293.415532 
L 122.591858 294.753778 
L 122.998184 294.783604 
L 123.40451 292.213124 
L 123.810836 295.335442 
L 124.217162 294.375613 
L 124.623488 294.404073 
L 125.029815 295.443616 
L 125.436141 295.32531 
L 125.842467 294.701037 
L 126.248793 294.774919 
L 126.655119 295.222117 
L 127.061445 295.124548 
L 127.874097 295.290915 
L 128.280423 295.427075 
L 128.686749 294.669112 
L 129.093075 294.614989 
L 129.499402 295.074789 
L 129.905728 295.047369 
L 130.312054 292.1976 
L 130.71838 295.409517 
L 131.124706 295.177057 
L 131.531032 295.368407 
L 131.937358 294.879035 
L 132.343684 295.329279 
L 132.75001 295.162262 
L 133.156336 295.342716 
L 133.562662 295.238767 
L 133.968989 294.40801 
L 134.375315 295.06917 
L 135.187967 294.453972 
L 135.594293 295.29541 
L 136.000619 293.846477 
L 136.406945 291.19841 
L 136.813271 295.218733 
L 137.219597 294.714134 
L 137.625923 295.33937 
L 138.032249 294.862883 
L 138.844902 294.9835 
L 139.251228 295.472471 
L 139.657554 295.421701 
L 140.06388 294.739857 
L 140.470206 295.419675 
L 140.876532 294.812608 
L 141.282858 295.257333 
L 141.689184 295.432718 
L 142.501836 295.325973 
L 143.314489 295.372344 
L 143.720815 295.270383 
L 144.127141 294.750703 
L 144.533467 295.324904 
L 144.939793 295.40618 
L 145.346119 294.94925 
L 145.752445 295.280761 
L 147.784076 295.349394 
L 148.190402 294.580261 
L 148.596728 294.880313 
L 149.40938 294.948823 
L 149.815706 295.277867 
L 150.222032 295.324997 
L 150.628358 295.161113 
L 151.44101 295.030258 
L 151.847336 294.45204 
L 152.253663 294.735662 
L 152.659989 295.345385 
L 154.691619 295.41095 
L 155.097945 295.214695 
L 155.504271 294.512899 
L 155.910597 295.311792 
L 156.316923 295.181439 
L 156.72325 295.327661 
L 157.129576 295.341535 
L 157.535902 294.685715 
L 157.942228 295.327192 
L 158.348554 295.470088 
L 158.75488 295.245815 
L 159.161206 295.464768 
L 159.567532 295.480737 
L 159.973858 294.671882 
L 160.380184 295.182087 
L 161.192837 295.384558 
L 161.599163 294.696749 
L 162.005489 295.393292 
L 162.411815 294.88824 
L 162.818141 295.411079 
L 163.224467 294.816502 
L 163.630793 295.180237 
L 164.037119 295.124157 
L 164.849771 295.488 
L 165.256097 295.115181 
L 165.662423 295.387934 
L 166.06875 295.390061 
L 166.475076 294.854763 
L 166.881402 295.202142 
L 167.287728 295.326144 
L 167.694054 295.04133 
L 168.10038 295.063934 
L 168.506706 295.39787 
L 168.913032 294.784792 
L 169.725684 295.368606 
L 170.13201 295.403055 
L 170.538337 294.755412 
L 170.944663 294.5849 
L 171.350989 294.665225 
L 172.163641 294.568717 
L 172.569967 294.31021 
L 172.976293 294.299623 
L 173.382619 295.091725 
L 173.788945 294.300575 
L 174.195271 294.943786 
L 174.601597 294.481825 
L 175.007924 294.301687 
L 175.41425 294.94331 
L 176.226902 294.951431 
L 176.633228 294.412867 
L 177.039554 294.305842 
L 177.44588 293.944375 
L 177.852206 293.985255 
L 178.258532 295.313003 
L 179.071184 295.400471 
L 179.477511 294.886072 
L 179.883837 294.677981 
L 180.290163 295.472157 
L 180.696489 295.452834 
L 181.102815 294.833574 
L 181.509141 294.954146 
L 181.915467 295.34061 
L 182.321793 295.211193 
L 182.728119 295.438654 
L 183.540771 295.487967 
L 184.353424 295.414397 
L 184.75975 295.417045 
L 185.166076 294.269813 
L 185.572402 295.170281 
L 185.978728 294.984744 
L 186.385054 294.348783 
L 186.79138 295.14204 
L 187.604032 295.017445 
L 188.823011 295.139221 
L 189.229337 294.941348 
L 190.041989 295.247813 
L 190.448315 294.89577 
L 191.667293 295.132472 
L 192.073619 295.037821 
L 192.479945 294.76499 
L 192.886271 295.237331 
L 193.292598 295.485473 
L 193.698924 294.58516 
L 194.10525 294.488371 
L 194.511576 295.415862 
L 195.324228 295.419108 
L 195.730554 294.362414 
L 196.13688 294.33244 
L 196.543206 295.349969 
L 196.949532 294.352809 
L 197.355858 295.420847 
L 198.168511 295.332357 
L 200.606467 295.258838 
L 201.012793 294.817692 
L 201.419119 295.049299 
L 201.825445 294.954637 
L 202.231772 295.310009 
L 202.638098 294.91796 
L 203.857076 294.940717 
L 204.263402 294.601224 
L 204.669728 295.060468 
L 205.076054 295.091432 
L 205.48238 295.449512 
L 205.888706 294.70401 
L 206.295032 295.257667 
L 207.514011 295.266936 
L 207.920337 294.058946 
L 208.326663 295.35399 
L 209.139315 295.371612 
L 211.170946 295.267241 
L 211.577272 295.407782 
L 211.983598 295.300397 
L 212.389924 294.475659 
L 212.79625 295.341433 
L 213.202576 295.154102 
L 213.608902 294.129273 
L 214.015228 295.233754 
L 214.82788 294.832679 
L 215.640532 295.242924 
L 217.265837 295.222995 
L 217.672163 295.348706 
L 218.078489 295.228577 
L 218.484815 295.282093 
L 218.891141 294.300737 
L 219.297467 295.054385 
L 219.703793 294.844518 
L 220.516446 294.849038 
L 220.922772 295.319861 
L 221.329098 294.261349 
L 222.14175 295.250601 
L 222.548076 294.885311 
L 222.954402 295.288442 
L 223.360728 294.838137 
L 223.767054 295.34964 
L 224.17338 294.888399 
L 224.579706 295.201306 
L 225.392359 295.140214 
L 226.611337 295.242209 
L 227.017663 294.852588 
L 227.423989 295.230944 
L 227.830315 295.327584 
L 228.236641 294.087978 
L 228.642967 295.471076 
L 229.049293 294.384178 
L 229.45562 294.987017 
L 230.268272 294.661461 
L 230.674598 294.295058 
L 231.080924 294.993404 
L 231.48725 295.241346 
L 231.893576 295.030079 
L 232.706228 295.224748 
L 233.51888 295.244081 
L 233.925207 294.343497 
L 234.331533 295.153971 
L 234.737859 295.392658 
L 235.144185 295.163136 
L 235.956837 295.210622 
L 236.363163 295.139625 
L 236.769489 295.405974 
L 237.175815 294.876284 
L 237.582141 295.180026 
L 237.988467 294.728741 
L 238.394793 295.213628 
L 238.80112 294.915473 
L 239.207446 295.328542 
L 240.020098 295.270224 
L 240.426424 294.421997 
L 240.83275 294.672454 
L 241.239076 295.4268 
L 241.645402 293.120937 
L 242.051728 295.285384 
L 242.86438 295.38698 
L 243.270707 295.392138 
L 243.677033 295.191433 
L 244.083359 295.144448 
L 244.489685 294.861771 
L 244.896011 295.112042 
L 245.302337 295.163169 
L 245.708663 295.344638 
L 246.114989 294.365668 
L 246.521315 294.863218 
L 246.927641 295.091221 
L 247.333967 294.857608 
L 247.740294 295.087834 
L 248.14662 294.859917 
L 248.552946 295.076793 
L 249.365598 295.066277 
L 249.771924 295.344023 
L 250.17825 294.86572 
L 250.584576 295.081427 
L 251.397228 295.344304 
L 251.803554 294.868249 
L 252.209881 295.33648 
L 253.428859 295.452246 
L 253.835185 294.77508 
L 254.241511 293.309327 
L 254.647837 293.853803 
L 255.054163 295.306929 
L 255.460489 295.35182 
L 255.866815 295.254358 
L 256.273141 294.695273 
L 256.679468 294.921748 
L 257.085794 294.470174 
L 257.49212 295.389532 
L 257.898446 295.412983 
L 258.304772 295.200181 
L 259.117424 295.143361 
L 259.930076 295.450257 
L 260.336402 294.689235 
L 260.742728 295.063223 
L 261.149054 295.270819 
L 261.961707 295.291705 
L 262.774359 295.333347 
L 263.180685 295.184433 
L 263.993337 295.291847 
L 264.399663 294.89665 
L 264.805989 294.86653 
L 265.212315 295.00567 
L 265.618641 295.448002 
L 266.024968 295.286994 
L 266.83762 293.251172 
L 267.243946 294.122245 
L 267.650272 295.413904 
L 268.056598 295.430411 
L 268.86925 294.631901 
L 269.275576 294.660462 
L 269.681902 293.708331 
L 270.088228 294.716286 
L 270.494555 294.876735 
L 270.900881 295.292872 
L 271.307207 295.343104 
L 271.713533 294.836996 
L 272.119859 294.719443 
L 272.526185 294.481873 
L 272.932511 293.687811 
L 273.338837 295.322373 
L 273.745163 295.436493 
L 274.151489 295.256854 
L 274.557815 295.277258 
L 274.964142 295.138991 
L 275.370468 295.298894 
L 276.18312 295.347945 
L 276.589446 295.354559 
L 277.808424 294.385541 
L 278.21475 294.260585 
L 278.621076 294.603778 
L 279.027402 294.10299 
L 279.433729 294.873625 
L 279.840055 295.142169 
L 280.652707 295.144907 
L 281.059033 295.339364 
L 281.465359 295.31257 
L 281.871685 295.446117 
L 282.684337 295.312384 
L 283.496989 295.310425 
L 283.903316 294.967634 
L 284.715968 295.316356 
L 285.122294 294.809373 
L 285.52862 294.793362 
L 285.934946 295.121026 
L 287.153924 295.137685 
L 287.56025 295.349441 
L 288.372902 295.111701 
L 289.185555 295.122789 
L 291.217185 295.144316 
L 291.623511 295.161525 
L 292.029837 294.823375 
L 292.436163 295.34271 
L 292.842489 295.338205 
L 293.248816 295.167577 
L 293.655142 295.330046 
L 294.061468 294.837785 
L 294.87412 295.292544 
L 296.093098 295.295394 
L 296.499424 295.209163 
L 296.90575 294.842581 
L 299.343707 294.856014 
L 300.562685 294.837466 
L 300.969011 295.176028 
L 301.375337 295.224935 
L 301.781663 294.85016 
L 302.594316 295.331752 
L 303.000642 294.826558 
L 303.406968 295.264448 
L 304.21962 295.130507 
L 305.438598 295.084218 
L 305.844924 295.359286 
L 306.25125 295.335861 
L 306.657577 295.428465 
L 309.908185 295.091653 
L 310.314511 295.167316 
L 310.720837 294.83894 
L 311.127163 295.068058 
L 311.53349 294.835585 
L 311.939816 295.09047 
L 312.346142 294.862598 
L 313.158794 295.333025 
L 313.56512 295.209458 
L 313.971446 294.853096 
L 314.377772 294.826932 
L 314.784098 295.189062 
L 316.003077 295.321138 
L 316.409403 295.227336 
L 316.815729 295.442626 
L 317.222055 295.447122 
L 317.628381 295.339141 
L 318.034707 294.857803 
L 318.441033 294.867845 
L 318.847359 295.105605 
L 319.253685 294.8502 
L 319.660011 295.127367 
L 320.066337 294.862086 
L 320.472664 295.101757 
L 320.87899 294.832279 
L 321.285316 295.129101 
L 322.097968 295.167839 
L 322.504294 295.363792 
L 324.129598 295.095766 
L 324.535924 295.347471 
L 324.942251 294.815641 
L 325.348577 294.750377 
L 325.754903 295.409614 
L 326.161229 295.315598 
L 326.973881 295.392076 
L 327.786533 295.363504 
L 329.411838 295.359221 
L 330.630816 295.433964 
L 331.037142 295.101875 
L 331.443468 295.431211 
L 331.849794 294.753952 
L 332.25612 295.445339 
L 332.662446 295.247219 
L 335.506729 295.38081 
L 335.913055 295.227759 
L 336.319381 295.372534 
L 336.725707 295.254479 
L 337.538359 295.383655 
L 339.163664 295.222784 
L 339.976316 295.381938 
L 346.883859 295.442758 
L 347.290185 295.281083 
L 347.696512 295.442327 
L 349.728142 295.440727 
L 350.134468 295.160837 
L 350.540794 295.434784 
L 351.353446 295.419877 
L 351.759772 295.171131 
L 352.166099 295.398762 
L 352.572425 295.385124 
L 352.978751 294.315458 
L 353.385077 295.330883 
L 354.197729 295.239307 
L 355.823033 295.333529 
L 357.448338 295.439714 
L 358.26099 295.386629 
L 358.667316 295.282064 
L 359.479968 295.443533 
L 360.29262 295.25263 
L 360.698946 294.883313 
L 361.511599 294.767862 
L 361.917925 295.300061 
L 362.324251 295.232935 
L 362.730577 294.848277 
L 363.136903 294.884352 
L 363.543229 295.458805 
L 364.355881 295.266977 
L 371.263425 295.209855 
L 371.669751 294.884438 
L 372.482403 294.851621 
L 372.888729 295.149798 
L 373.295055 294.87903 
L 374.107707 295.365715 
L 374.92036 294.794591 
L 375.326686 294.846242 
L 375.733012 295.455244 
L 376.545664 294.832142 
L 376.95199 295.429502 
L 377.764642 295.342203 
L 381.015251 295.433956 
L 381.421577 295.119811 
L 381.827903 295.384386 
L 382.234229 294.844253 
L 383.046881 294.911721 
L 383.453207 295.310377 
L 384.672186 295.296429 
L 385.484838 295.383481 
L 386.29749 295.436223 
L 387.922794 295.381232 
L 391.579729 295.305673 
L 392.392381 294.857912 
L 392.798707 294.82603 
L 393.205034 295.338097 
L 394.017686 295.336238 
L 398.487273 295.357998 
L 398.487273 295.357998 
" style="fill:none;stroke:#ff7f0e;stroke-linecap:square;stroke-width:1.5;"/>
   </g>
   <g id="patch_3">
    <path d="M 57.6 307.584 
L 57.6 41.472 
" style="fill:none;stroke:#000000;stroke-linecap:square;stroke-linejoin:miter;stroke-width:0.8;"/>
   </g>
   <g id="patch_4">
    <path d="M 414.72 307.584 
L 414.72 41.472 
" style="fill:none;stroke:#000000;stroke-linecap:square;stroke-linejoin:miter;stroke-width:0.8;"/>
   </g>
   <g id="patch_5">
    <path d="M 57.6 307.584 
L 414.72 307.584 
" style="fill:none;stroke:#000000;stroke-linecap:square;stroke-linejoin:miter;stroke-width:0.8;"/>
   </g>
   <g id="patch_6">
    <path d="M 57.6 41.472 
L 414.72 41.472 
" style="fill:none;stroke:#000000;stroke-linecap:square;stroke-linejoin:miter;stroke-width:0.8;"/>
   </g>
  </g>
 </g>
 <defs>
  <clipPath id="p915256f51e">
   <rect height="266.112" width="357.12" x="57.6" y="41.472"/>
  </clipPath>
 </defs>
</svg>
