<?xml version="1.0" encoding="utf-8" standalone="no"?>
<!DOCTYPE svg PUBLIC "-//W3C//DTD SVG 1.1//EN"
  "http://www.w3.org/Graphics/SVG/1.1/DTD/svg11.dtd">
<!-- Created with matplotlib (https://matplotlib.org/) -->
<svg height="345.6pt" version="1.1" viewBox="0 0 460.8 345.6" width="460.8pt" xmlns="http://www.w3.org/2000/svg" xmlns:xlink="http://www.w3.org/1999/xlink">
 <defs>
  <style type="text/css">
*{stroke-linecap:butt;stroke-linejoin:round;}
  </style>
 </defs>
 <g id="figure_1">
  <g id="patch_1">
   <path d="M 0 345.6 
L 460.8 345.6 
L 460.8 0 
L 0 0 
z
" style="fill:#ffffff;"/>
  </g>
  <g id="axes_1">
   <g id="patch_2">
    <path d="M 57.6 307.584 
L 414.72 307.584 
L 414.72 41.472 
L 57.6 41.472 
z
" style="fill:#ffffff;"/>
   </g>
   <g id="matplotlib.axis_1">
    <g id="xtick_1">
     <g id="line2d_1">
      <defs>
       <path d="M 0 0 
L 0 3.5 
" id="m3a583dbb3e" style="stroke:#000000;stroke-width:0.8;"/>
      </defs>
      <g>
       <use style="stroke:#000000;stroke-width:0.8;" x="73.832727" xlink:href="#m3a583dbb3e" y="307.584"/>
      </g>
     </g>
     <g id="text_1">
      <!-- 0 -->
      <defs>
       <path d="M 31.78125 66.40625 
Q 24.171875 66.40625 20.328125 58.90625 
Q 16.5 51.421875 16.5 36.375 
Q 16.5 21.390625 20.328125 13.890625 
Q 24.171875 6.390625 31.78125 6.390625 
Q 39.453125 6.390625 43.28125 13.890625 
Q 47.125 21.390625 47.125 36.375 
Q 47.125 51.421875 43.28125 58.90625 
Q 39.453125 66.40625 31.78125 66.40625 
z
M 31.78125 74.21875 
Q 44.046875 74.21875 50.515625 64.515625 
Q 56.984375 54.828125 56.984375 36.375 
Q 56.984375 17.96875 50.515625 8.265625 
Q 44.046875 -1.421875 31.78125 -1.421875 
Q 19.53125 -1.421875 13.0625 8.265625 
Q 6.59375 17.96875 6.59375 36.375 
Q 6.59375 54.828125 13.0625 64.515625 
Q 19.53125 74.21875 31.78125 74.21875 
z
" id="DejaVuSans-48"/>
      </defs>
      <g transform="translate(70.651477 322.182437)scale(0.1 -0.1)">
       <use xlink:href="#DejaVuSans-48"/>
      </g>
     </g>
    </g>
    <g id="xtick_2">
     <g id="line2d_2">
      <g>
       <use style="stroke:#000000;stroke-width:0.8;" x="114.465336" xlink:href="#m3a583dbb3e" y="307.584"/>
      </g>
     </g>
     <g id="text_2">
      <!-- 100 -->
      <defs>
       <path d="M 12.40625 8.296875 
L 28.515625 8.296875 
L 28.515625 63.921875 
L 10.984375 60.40625 
L 10.984375 69.390625 
L 28.421875 72.90625 
L 38.28125 72.90625 
L 38.28125 8.296875 
L 54.390625 8.296875 
L 54.390625 0 
L 12.40625 0 
z
" id="DejaVuSans-49"/>
      </defs>
      <g transform="translate(104.921586 322.182437)scale(0.1 -0.1)">
       <use xlink:href="#DejaVuSans-49"/>
       <use x="63.623047" xlink:href="#DejaVuSans-48"/>
       <use x="127.246094" xlink:href="#DejaVuSans-48"/>
      </g>
     </g>
    </g>
    <g id="xtick_3">
     <g id="line2d_3">
      <g>
       <use style="stroke:#000000;stroke-width:0.8;" x="155.097945" xlink:href="#m3a583dbb3e" y="307.584"/>
      </g>
     </g>
     <g id="text_3">
      <!-- 200 -->
      <defs>
       <path d="M 19.1875 8.296875 
L 53.609375 8.296875 
L 53.609375 0 
L 7.328125 0 
L 7.328125 8.296875 
Q 12.9375 14.109375 22.625 23.890625 
Q 32.328125 33.6875 34.8125 36.53125 
Q 39.546875 41.84375 41.421875 45.53125 
Q 43.3125 49.21875 43.3125 52.78125 
Q 43.3125 58.59375 39.234375 62.25 
Q 35.15625 65.921875 28.609375 65.921875 
Q 23.96875 65.921875 18.8125 64.3125 
Q 13.671875 62.703125 7.8125 59.421875 
L 7.8125 69.390625 
Q 13.765625 71.78125 18.9375 73 
Q 24.125 74.21875 28.421875 74.21875 
Q 39.75 74.21875 46.484375 68.546875 
Q 53.21875 62.890625 53.21875 53.421875 
Q 53.21875 48.921875 51.53125 44.890625 
Q 49.859375 40.875 45.40625 35.40625 
Q 44.1875 33.984375 37.640625 27.21875 
Q 31.109375 20.453125 19.1875 8.296875 
z
" id="DejaVuSans-50"/>
      </defs>
      <g transform="translate(145.554195 322.182437)scale(0.1 -0.1)">
       <use xlink:href="#DejaVuSans-50"/>
       <use x="63.623047" xlink:href="#DejaVuSans-48"/>
       <use x="127.246094" xlink:href="#DejaVuSans-48"/>
      </g>
     </g>
    </g>
    <g id="xtick_4">
     <g id="line2d_4">
      <g>
       <use style="stroke:#000000;stroke-width:0.8;" x="195.730554" xlink:href="#m3a583dbb3e" y="307.584"/>
      </g>
     </g>
     <g id="text_4">
      <!-- 300 -->
      <defs>
       <path d="M 40.578125 39.3125 
Q 47.65625 37.796875 51.625 33 
Q 55.609375 28.21875 55.609375 21.1875 
Q 55.609375 10.40625 48.1875 4.484375 
Q 40.765625 -1.421875 27.09375 -1.421875 
Q 22.515625 -1.421875 17.65625 -0.515625 
Q 12.796875 0.390625 7.625 2.203125 
L 7.625 11.71875 
Q 11.71875 9.328125 16.59375 8.109375 
Q 21.484375 6.890625 26.8125 6.890625 
Q 36.078125 6.890625 40.9375 10.546875 
Q 45.796875 14.203125 45.796875 21.1875 
Q 45.796875 27.640625 41.28125 31.265625 
Q 36.765625 34.90625 28.71875 34.90625 
L 20.21875 34.90625 
L 20.21875 43.015625 
L 29.109375 43.015625 
Q 36.375 43.015625 40.234375 45.921875 
Q 44.09375 48.828125 44.09375 54.296875 
Q 44.09375 59.90625 40.109375 62.90625 
Q 36.140625 65.921875 28.71875 65.921875 
Q 24.65625 65.921875 20.015625 65.03125 
Q 15.375 64.15625 9.8125 62.3125 
L 9.8125 71.09375 
Q 15.4375 72.65625 20.34375 73.4375 
Q 25.25 74.21875 29.59375 74.21875 
Q 40.828125 74.21875 47.359375 69.109375 
Q 53.90625 64.015625 53.90625 55.328125 
Q 53.90625 49.265625 50.4375 45.09375 
Q 46.96875 40.921875 40.578125 39.3125 
z
" id="DejaVuSans-51"/>
      </defs>
      <g transform="translate(186.186804 322.182437)scale(0.1 -0.1)">
       <use xlink:href="#DejaVuSans-51"/>
       <use x="63.623047" xlink:href="#DejaVuSans-48"/>
       <use x="127.246094" xlink:href="#DejaVuSans-48"/>
      </g>
     </g>
    </g>
    <g id="xtick_5">
     <g id="line2d_5">
      <g>
       <use style="stroke:#000000;stroke-width:0.8;" x="236.363163" xlink:href="#m3a583dbb3e" y="307.584"/>
      </g>
     </g>
     <g id="text_5">
      <!-- 400 -->
      <defs>
       <path d="M 37.796875 64.3125 
L 12.890625 25.390625 
L 37.796875 25.390625 
z
M 35.203125 72.90625 
L 47.609375 72.90625 
L 47.609375 25.390625 
L 58.015625 25.390625 
L 58.015625 17.1875 
L 47.609375 17.1875 
L 47.609375 0 
L 37.796875 0 
L 37.796875 17.1875 
L 4.890625 17.1875 
L 4.890625 26.703125 
z
" id="DejaVuSans-52"/>
      </defs>
      <g transform="translate(226.819413 322.182437)scale(0.1 -0.1)">
       <use xlink:href="#DejaVuSans-52"/>
       <use x="63.623047" xlink:href="#DejaVuSans-48"/>
       <use x="127.246094" xlink:href="#DejaVuSans-48"/>
      </g>
     </g>
    </g>
    <g id="xtick_6">
     <g id="line2d_6">
      <g>
       <use style="stroke:#000000;stroke-width:0.8;" x="276.995772" xlink:href="#m3a583dbb3e" y="307.584"/>
      </g>
     </g>
     <g id="text_6">
      <!-- 500 -->
      <defs>
       <path d="M 10.796875 72.90625 
L 49.515625 72.90625 
L 49.515625 64.59375 
L 19.828125 64.59375 
L 19.828125 46.734375 
Q 21.96875 47.46875 24.109375 47.828125 
Q 26.265625 48.1875 28.421875 48.1875 
Q 40.625 48.1875 47.75 41.5 
Q 54.890625 34.8125 54.890625 23.390625 
Q 54.890625 11.625 47.5625 5.09375 
Q 40.234375 -1.421875 26.90625 -1.421875 
Q 22.3125 -1.421875 17.546875 -0.640625 
Q 12.796875 0.140625 7.71875 1.703125 
L 7.71875 11.625 
Q 12.109375 9.234375 16.796875 8.0625 
Q 21.484375 6.890625 26.703125 6.890625 
Q 35.15625 6.890625 40.078125 11.328125 
Q 45.015625 15.765625 45.015625 23.390625 
Q 45.015625 31 40.078125 35.4375 
Q 35.15625 39.890625 26.703125 39.890625 
Q 22.75 39.890625 18.8125 39.015625 
Q 14.890625 38.140625 10.796875 36.28125 
z
" id="DejaVuSans-53"/>
      </defs>
      <g transform="translate(267.452022 322.182437)scale(0.1 -0.1)">
       <use xlink:href="#DejaVuSans-53"/>
       <use x="63.623047" xlink:href="#DejaVuSans-48"/>
       <use x="127.246094" xlink:href="#DejaVuSans-48"/>
      </g>
     </g>
    </g>
    <g id="xtick_7">
     <g id="line2d_7">
      <g>
       <use style="stroke:#000000;stroke-width:0.8;" x="317.628381" xlink:href="#m3a583dbb3e" y="307.584"/>
      </g>
     </g>
     <g id="text_7">
      <!-- 600 -->
      <defs>
       <path d="M 33.015625 40.375 
Q 26.375 40.375 22.484375 35.828125 
Q 18.609375 31.296875 18.609375 23.390625 
Q 18.609375 15.53125 22.484375 10.953125 
Q 26.375 6.390625 33.015625 6.390625 
Q 39.65625 6.390625 43.53125 10.953125 
Q 47.40625 15.53125 47.40625 23.390625 
Q 47.40625 31.296875 43.53125 35.828125 
Q 39.65625 40.375 33.015625 40.375 
z
M 52.59375 71.296875 
L 52.59375 62.3125 
Q 48.875 64.0625 45.09375 64.984375 
Q 41.3125 65.921875 37.59375 65.921875 
Q 27.828125 65.921875 22.671875 59.328125 
Q 17.53125 52.734375 16.796875 39.40625 
Q 19.671875 43.65625 24.015625 45.921875 
Q 28.375 48.1875 33.59375 48.1875 
Q 44.578125 48.1875 50.953125 41.515625 
Q 57.328125 34.859375 57.328125 23.390625 
Q 57.328125 12.15625 50.6875 5.359375 
Q 44.046875 -1.421875 33.015625 -1.421875 
Q 20.359375 -1.421875 13.671875 8.265625 
Q 6.984375 17.96875 6.984375 36.375 
Q 6.984375 53.65625 15.1875 63.9375 
Q 23.390625 74.21875 37.203125 74.21875 
Q 40.921875 74.21875 44.703125 73.484375 
Q 48.484375 72.75 52.59375 71.296875 
z
" id="DejaVuSans-54"/>
      </defs>
      <g transform="translate(308.084631 322.182437)scale(0.1 -0.1)">
       <use xlink:href="#DejaVuSans-54"/>
       <use x="63.623047" xlink:href="#DejaVuSans-48"/>
       <use x="127.246094" xlink:href="#DejaVuSans-48"/>
      </g>
     </g>
    </g>
    <g id="xtick_8">
     <g id="line2d_8">
      <g>
       <use style="stroke:#000000;stroke-width:0.8;" x="358.26099" xlink:href="#m3a583dbb3e" y="307.584"/>
      </g>
     </g>
     <g id="text_8">
      <!-- 700 -->
      <defs>
       <path d="M 8.203125 72.90625 
L 55.078125 72.90625 
L 55.078125 68.703125 
L 28.609375 0 
L 18.3125 0 
L 43.21875 64.59375 
L 8.203125 64.59375 
z
" id="DejaVuSans-55"/>
      </defs>
      <g transform="translate(348.71724 322.182437)scale(0.1 -0.1)">
       <use xlink:href="#DejaVuSans-55"/>
       <use x="63.623047" xlink:href="#DejaVuSans-48"/>
       <use x="127.246094" xlink:href="#DejaVuSans-48"/>
      </g>
     </g>
    </g>
    <g id="xtick_9">
     <g id="line2d_9">
      <g>
       <use style="stroke:#000000;stroke-width:0.8;" x="398.893599" xlink:href="#m3a583dbb3e" y="307.584"/>
      </g>
     </g>
     <g id="text_9">
      <!-- 800 -->
      <defs>
       <path d="M 31.78125 34.625 
Q 24.75 34.625 20.71875 30.859375 
Q 16.703125 27.09375 16.703125 20.515625 
Q 16.703125 13.921875 20.71875 10.15625 
Q 24.75 6.390625 31.78125 6.390625 
Q 38.8125 6.390625 42.859375 10.171875 
Q 46.921875 13.96875 46.921875 20.515625 
Q 46.921875 27.09375 42.890625 30.859375 
Q 38.875 34.625 31.78125 34.625 
z
M 21.921875 38.8125 
Q 15.578125 40.375 12.03125 44.71875 
Q 8.5 49.078125 8.5 55.328125 
Q 8.5 64.0625 14.71875 69.140625 
Q 20.953125 74.21875 31.78125 74.21875 
Q 42.671875 74.21875 48.875 69.140625 
Q 55.078125 64.0625 55.078125 55.328125 
Q 55.078125 49.078125 51.53125 44.71875 
Q 48 40.375 41.703125 38.8125 
Q 48.828125 37.15625 52.796875 32.3125 
Q 56.78125 27.484375 56.78125 20.515625 
Q 56.78125 9.90625 50.3125 4.234375 
Q 43.84375 -1.421875 31.78125 -1.421875 
Q 19.734375 -1.421875 13.25 4.234375 
Q 6.78125 9.90625 6.78125 20.515625 
Q 6.78125 27.484375 10.78125 32.3125 
Q 14.796875 37.15625 21.921875 38.8125 
z
M 18.3125 54.390625 
Q 18.3125 48.734375 21.84375 45.5625 
Q 25.390625 42.390625 31.78125 42.390625 
Q 38.140625 42.390625 41.71875 45.5625 
Q 45.3125 48.734375 45.3125 54.390625 
Q 45.3125 60.0625 41.71875 63.234375 
Q 38.140625 66.40625 31.78125 66.40625 
Q 25.390625 66.40625 21.84375 63.234375 
Q 18.3125 60.0625 18.3125 54.390625 
z
" id="DejaVuSans-56"/>
      </defs>
      <g transform="translate(389.349849 322.182437)scale(0.1 -0.1)">
       <use xlink:href="#DejaVuSans-56"/>
       <use x="63.623047" xlink:href="#DejaVuSans-48"/>
       <use x="127.246094" xlink:href="#DejaVuSans-48"/>
      </g>
     </g>
    </g>
   </g>
   <g id="matplotlib.axis_2">
    <g id="ytick_1">
     <g id="line2d_10">
      <defs>
       <path d="M 0 0 
L -3.5 0 
" id="mbb9591b149" style="stroke:#000000;stroke-width:0.8;"/>
      </defs>
      <g>
       <use style="stroke:#000000;stroke-width:0.8;" x="57.6" xlink:href="#mbb9591b149" y="295.538282"/>
      </g>
     </g>
     <g id="text_10">
      <!-- 0.00000 -->
      <defs>
       <path d="M 10.6875 12.40625 
L 21 12.40625 
L 21 0 
L 10.6875 0 
z
" id="DejaVuSans-46"/>
      </defs>
      <g transform="translate(9.246875 299.337501)scale(0.1 -0.1)">
       <use xlink:href="#DejaVuSans-48"/>
       <use x="63.623047" xlink:href="#DejaVuSans-46"/>
       <use x="95.410156" xlink:href="#DejaVuSans-48"/>
       <use x="159.033203" xlink:href="#DejaVuSans-48"/>
       <use x="222.65625" xlink:href="#DejaVuSans-48"/>
       <use x="286.279297" xlink:href="#DejaVuSans-48"/>
       <use x="349.902344" xlink:href="#DejaVuSans-48"/>
      </g>
     </g>
    </g>
    <g id="ytick_2">
     <g id="line2d_11">
      <g>
       <use style="stroke:#000000;stroke-width:0.8;" x="57.6" xlink:href="#mbb9591b149" y="260.581353"/>
      </g>
     </g>
     <g id="text_11">
      <!-- 0.00002 -->
      <g transform="translate(9.246875 264.380572)scale(0.1 -0.1)">
       <use xlink:href="#DejaVuSans-48"/>
       <use x="63.623047" xlink:href="#DejaVuSans-46"/>
       <use x="95.410156" xlink:href="#DejaVuSans-48"/>
       <use x="159.033203" xlink:href="#DejaVuSans-48"/>
       <use x="222.65625" xlink:href="#DejaVuSans-48"/>
       <use x="286.279297" xlink:href="#DejaVuSans-48"/>
       <use x="349.902344" xlink:href="#DejaVuSans-50"/>
      </g>
     </g>
    </g>
    <g id="ytick_3">
     <g id="line2d_12">
      <g>
       <use style="stroke:#000000;stroke-width:0.8;" x="57.6" xlink:href="#mbb9591b149" y="225.624424"/>
      </g>
     </g>
     <g id="text_12">
      <!-- 0.00004 -->
      <g transform="translate(9.246875 229.423643)scale(0.1 -0.1)">
       <use xlink:href="#DejaVuSans-48"/>
       <use x="63.623047" xlink:href="#DejaVuSans-46"/>
       <use x="95.410156" xlink:href="#DejaVuSans-48"/>
       <use x="159.033203" xlink:href="#DejaVuSans-48"/>
       <use x="222.65625" xlink:href="#DejaVuSans-48"/>
       <use x="286.279297" xlink:href="#DejaVuSans-48"/>
       <use x="349.902344" xlink:href="#DejaVuSans-52"/>
      </g>
     </g>
    </g>
    <g id="ytick_4">
     <g id="line2d_13">
      <g>
       <use style="stroke:#000000;stroke-width:0.8;" x="57.6" xlink:href="#mbb9591b149" y="190.667496"/>
      </g>
     </g>
     <g id="text_13">
      <!-- 0.00006 -->
      <g transform="translate(9.246875 194.466714)scale(0.1 -0.1)">
       <use xlink:href="#DejaVuSans-48"/>
       <use x="63.623047" xlink:href="#DejaVuSans-46"/>
       <use x="95.410156" xlink:href="#DejaVuSans-48"/>
       <use x="159.033203" xlink:href="#DejaVuSans-48"/>
       <use x="222.65625" xlink:href="#DejaVuSans-48"/>
       <use x="286.279297" xlink:href="#DejaVuSans-48"/>
       <use x="349.902344" xlink:href="#DejaVuSans-54"/>
      </g>
     </g>
    </g>
    <g id="ytick_5">
     <g id="line2d_14">
      <g>
       <use style="stroke:#000000;stroke-width:0.8;" x="57.6" xlink:href="#mbb9591b149" y="155.710567"/>
      </g>
     </g>
     <g id="text_14">
      <!-- 0.00008 -->
      <g transform="translate(9.246875 159.509786)scale(0.1 -0.1)">
       <use xlink:href="#DejaVuSans-48"/>
       <use x="63.623047" xlink:href="#DejaVuSans-46"/>
       <use x="95.410156" xlink:href="#DejaVuSans-48"/>
       <use x="159.033203" xlink:href="#DejaVuSans-48"/>
       <use x="222.65625" xlink:href="#DejaVuSans-48"/>
       <use x="286.279297" xlink:href="#DejaVuSans-48"/>
       <use x="349.902344" xlink:href="#DejaVuSans-56"/>
      </g>
     </g>
    </g>
    <g id="ytick_6">
     <g id="line2d_15">
      <g>
       <use style="stroke:#000000;stroke-width:0.8;" x="57.6" xlink:href="#mbb9591b149" y="120.753638"/>
      </g>
     </g>
     <g id="text_15">
      <!-- 0.00010 -->
      <g transform="translate(9.246875 124.552857)scale(0.1 -0.1)">
       <use xlink:href="#DejaVuSans-48"/>
       <use x="63.623047" xlink:href="#DejaVuSans-46"/>
       <use x="95.410156" xlink:href="#DejaVuSans-48"/>
       <use x="159.033203" xlink:href="#DejaVuSans-48"/>
       <use x="222.65625" xlink:href="#DejaVuSans-48"/>
       <use x="286.279297" xlink:href="#DejaVuSans-49"/>
       <use x="349.902344" xlink:href="#DejaVuSans-48"/>
      </g>
     </g>
    </g>
    <g id="ytick_7">
     <g id="line2d_16">
      <g>
       <use style="stroke:#000000;stroke-width:0.8;" x="57.6" xlink:href="#mbb9591b149" y="85.79671"/>
      </g>
     </g>
     <g id="text_16">
      <!-- 0.00012 -->
      <g transform="translate(9.246875 89.595928)scale(0.1 -0.1)">
       <use xlink:href="#DejaVuSans-48"/>
       <use x="63.623047" xlink:href="#DejaVuSans-46"/>
       <use x="95.410156" xlink:href="#DejaVuSans-48"/>
       <use x="159.033203" xlink:href="#DejaVuSans-48"/>
       <use x="222.65625" xlink:href="#DejaVuSans-48"/>
       <use x="286.279297" xlink:href="#DejaVuSans-49"/>
       <use x="349.902344" xlink:href="#DejaVuSans-50"/>
      </g>
     </g>
    </g>
    <g id="ytick_8">
     <g id="line2d_17">
      <g>
       <use style="stroke:#000000;stroke-width:0.8;" x="57.6" xlink:href="#mbb9591b149" y="50.839781"/>
      </g>
     </g>
     <g id="text_17">
      <!-- 0.00014 -->
      <g transform="translate(9.246875 54.639)scale(0.1 -0.1)">
       <use xlink:href="#DejaVuSans-48"/>
       <use x="63.623047" xlink:href="#DejaVuSans-46"/>
       <use x="95.410156" xlink:href="#DejaVuSans-48"/>
       <use x="159.033203" xlink:href="#DejaVuSans-48"/>
       <use x="222.65625" xlink:href="#DejaVuSans-48"/>
       <use x="286.279297" xlink:href="#DejaVuSans-49"/>
       <use x="349.902344" xlink:href="#DejaVuSans-52"/>
      </g>
     </g>
    </g>
   </g>
   <g id="line2d_18">
    <path clip-path="url(#pb8d361b74a)" d="M 73.832727 235.268872 
L 74.239053 249.500302 
L 74.645379 249.238465 
L 75.051706 280.208527 
L 75.458032 241.638724 
L 75.864358 236.129628 
L 76.270684 283.311806 
L 76.67701 284.704004 
L 77.083336 287.170843 
L 77.489662 242.454182 
L 77.895988 242.589283 
L 78.302314 243.512579 
L 78.70864 281.945249 
L 79.114966 243.371217 
L 79.521293 249.194547 
L 79.927619 271.467264 
L 80.333945 232.033841 
L 80.740271 272.5395 
L 81.146597 228.787878 
L 81.552923 226.498681 
L 81.959249 287.762808 
L 82.365575 223.030358 
L 82.771901 227.532628 
L 83.178227 228.932614 
L 83.584553 291.851431 
L 83.99088 233.589564 
L 84.803532 190.833432 
L 85.209858 233.497729 
L 86.02251 240.126064 
L 86.428836 249.423962 
L 86.835162 287.927953 
L 87.241488 246.485776 
L 87.647814 226.907797 
L 88.05414 236.03834 
L 88.460466 231.482473 
L 88.866793 218.084629 
L 89.273119 208.968697 
L 89.679445 171.761509 
L 90.085771 206.212412 
L 90.492097 261.655816 
L 90.898423 262.147901 
L 91.304749 229.034157 
L 91.711075 231.864041 
L 92.117401 201.4259 
L 92.523727 201.151357 
L 93.33638 207.864977 
L 93.742706 205.001885 
L 94.149032 216.610448 
L 94.555358 283.542601 
L 94.961684 223.597288 
L 95.36801 225.060784 
L 95.774336 257.333957 
L 96.180662 213.748598 
L 96.586988 223.025045 
L 96.993314 249.367047 
L 97.39964 208.865356 
L 97.805967 253.396569 
L 98.212293 204.575087 
L 98.618619 251.898448 
L 99.024945 206.869023 
L 99.431271 265.510589 
L 99.837597 209.415785 
L 100.243923 234.866483 
L 100.650249 217.628093 
L 101.056575 228.147331 
L 101.462901 207.921006 
L 101.869227 227.591646 
L 102.275554 227.916391 
L 102.68188 223.738559 
L 103.088206 246.615174 
L 103.494532 291.528074 
L 103.900858 213.130732 
L 104.307184 188.080133 
L 104.71351 198.738461 
L 105.119836 219.752125 
L 105.526162 246.965676 
L 105.932488 199.94104 
L 106.338814 198.312048 
L 107.151467 283.079758 
L 107.557793 232.832489 
L 107.964119 235.217638 
L 108.370445 238.686718 
L 108.776771 239.719846 
L 109.183097 184.262057 
L 109.589423 234.321607 
L 109.995749 224.625584 
L 110.402075 291.642211 
L 110.808401 231.332471 
L 111.214728 222.608851 
L 111.621054 271.793095 
L 112.02738 229.335265 
L 112.433706 238.75031 
L 112.840032 207.170691 
L 113.246358 231.446171 
L 113.652684 242.224885 
L 114.05901 248.666103 
L 114.465336 224.553447 
L 114.871662 227.101494 
L 115.277988 213.148842 
L 115.684314 230.460119 
L 116.090641 230.508548 
L 116.903293 214.248032 
L 117.309619 222.258605 
L 117.715945 206.335528 
L 118.122271 214.775902 
L 118.528597 211.914499 
L 118.934923 205.935157 
L 119.341249 193.499512 
L 119.747575 215.931543 
L 120.153901 206.217468 
L 120.560228 183.543624 
L 120.966554 204.750251 
L 121.37288 205.927169 
L 121.779206 237.167363 
L 122.185532 223.090449 
L 122.591858 242.846869 
L 122.998184 226.187961 
L 123.40451 224.367034 
L 123.810836 240.961226 
L 124.217162 213.036324 
L 124.623488 214.987747 
L 125.029815 230.306625 
L 125.436141 127.777484 
L 125.842467 286.377493 
L 126.248793 288.109457 
L 126.655119 204.197253 
L 127.061445 261.109122 
L 127.467771 264.85817 
L 127.874097 188.88157 
L 128.280423 250.547626 
L 128.686749 226.099703 
L 129.093075 248.421299 
L 129.499402 229.693579 
L 129.905728 254.701671 
L 130.312054 229.232205 
L 130.71838 221.47687 
L 131.124706 253.467897 
L 131.531032 253.734049 
L 131.937358 274.976051 
L 132.343684 243.902454 
L 132.75001 255.665145 
L 133.968989 224.31691 
L 134.375315 243.205132 
L 134.781641 252.652568 
L 135.594293 172.002435 
L 136.000619 257.757785 
L 136.406945 241.978011 
L 136.813271 217.626247 
L 137.219597 252.989766 
L 137.625923 253.608715 
L 138.032249 226.469434 
L 138.438575 249.461975 
L 138.844902 249.285701 
L 139.251228 266.992622 
L 139.657554 266.265565 
L 140.06388 211.460253 
L 140.470206 266.417716 
L 140.876532 288.179718 
L 141.282858 265.042286 
L 141.689184 290.648327 
L 142.09551 254.142064 
L 142.501836 278.301223 
L 142.908162 250.929729 
L 143.314489 248.82628 
L 143.720815 248.760936 
L 144.127141 262.851456 
L 144.533467 290.145582 
L 144.939793 268.145957 
L 145.346119 191.375333 
L 145.752445 237.993155 
L 146.158771 245.56821 
L 146.565097 244.272201 
L 146.971423 103.871842 
L 147.377749 223.414783 
L 147.784076 264.351138 
L 148.190402 290.713065 
L 148.596728 287.526298 
L 149.003054 273.299214 
L 149.40938 265.236646 
L 149.815706 285.644328 
L 150.222032 268.914879 
L 150.628358 268.613841 
L 151.034684 124.637625 
L 151.847336 279.649502 
L 152.253663 252.132154 
L 152.659989 268.160476 
L 153.066315 271.205784 
L 153.472641 217.789785 
L 153.878967 188.48343 
L 154.285293 215.504435 
L 154.691619 232.594998 
L 155.097945 243.956176 
L 155.504271 268.522848 
L 155.910597 214.382193 
L 156.316923 272.469446 
L 156.72325 207.507339 
L 157.129576 272.196458 
L 157.535902 284.897715 
L 157.942228 235.015572 
L 158.348554 254.80223 
L 158.75488 129.814415 
L 159.161206 283.06505 
L 159.567532 246.396629 
L 160.380184 252.577498 
L 160.78651 288.358908 
L 161.192837 227.23819 
L 161.599163 252.178198 
L 162.005489 169.854386 
L 162.411815 292.259844 
L 162.818141 250.654166 
L 163.224467 260.287061 
L 163.630793 256.298877 
L 164.037119 277.005706 
L 164.443445 251.852777 
L 164.849771 278.706828 
L 165.256097 239.359702 
L 165.662423 245.145601 
L 166.06875 264.866217 
L 166.475076 242.236891 
L 166.881402 289.089065 
L 167.287728 287.642101 
L 167.694054 274.200244 
L 168.10038 286.415962 
L 168.506706 290.03452 
L 168.913032 267.965712 
L 169.319358 289.215004 
L 169.725684 237.275084 
L 170.13201 200.372879 
L 170.538337 276.379522 
L 170.944663 242.782774 
L 171.350989 224.680128 
L 171.757315 280.925595 
L 172.163641 241.590322 
L 172.569967 234.695034 
L 173.382619 280.504793 
L 173.788945 281.286639 
L 174.195271 288.570375 
L 174.601597 249.541327 
L 175.007924 177.322697 
L 175.41425 246.432028 
L 175.820576 286.01867 
L 176.226902 254.72893 
L 176.633228 253.764474 
L 177.039554 284.994162 
L 177.44588 288.097774 
L 177.852206 285.087018 
L 178.258532 286.604015 
L 178.664858 267.855264 
L 179.071184 286.177707 
L 179.477511 267.517244 
L 179.883837 281.228016 
L 180.290163 243.708517 
L 180.696489 263.983598 
L 181.102815 237.159684 
L 181.509141 281.623233 
L 181.915467 278.940349 
L 182.321793 259.358434 
L 182.728119 249.097185 
L 183.134445 263.248621 
L 183.540771 210.78435 
L 183.947098 272.571502 
L 184.353424 287.034926 
L 184.75975 272.180916 
L 185.166076 282.85528 
L 185.572402 211.539819 
L 186.385054 286.578968 
L 186.79138 288.231171 
L 187.197706 206.368523 
L 187.604032 274.377396 
L 188.010358 285.538131 
L 188.416684 209.567683 
L 188.823011 285.949769 
L 189.229337 235.09097 
L 189.635663 253.41228 
L 190.041989 235.528242 
L 190.448315 235.253764 
L 190.854641 254.671317 
L 191.260967 232.806321 
L 191.667293 264.818988 
L 192.073619 256.445108 
L 192.479945 280.435018 
L 192.886271 244.843827 
L 193.292598 273.918335 
L 193.698924 250.903848 
L 194.10525 169.398517 
L 194.511576 283.223098 
L 194.917902 179.081514 
L 195.324228 253.350683 
L 195.730554 282.547555 
L 196.13688 259.39813 
L 196.543206 255.564423 
L 196.949532 260.197717 
L 197.355858 271.544191 
L 197.762185 272.780894 
L 198.168511 261.578429 
L 198.574837 284.501515 
L 198.981163 277.84027 
L 199.387489 274.379155 
L 199.793815 264.387346 
L 200.200141 266.278965 
L 200.606467 283.743724 
L 201.012793 289.934085 
L 201.419119 287.798267 
L 201.825445 258.851655 
L 202.231772 279.253706 
L 202.638098 274.309802 
L 203.044424 254.474667 
L 203.45075 258.537345 
L 203.857076 280.93997 
L 204.263402 258.688087 
L 204.669728 261.399817 
L 205.076054 261.810115 
L 205.48238 286.41751 
L 205.888706 265.353544 
L 206.295032 265.396601 
L 206.701359 283.809841 
L 207.107685 260.207581 
L 207.514011 258.195577 
L 207.920337 285.580075 
L 208.326663 281.353989 
L 208.732989 280.352722 
L 209.139315 256.543595 
L 209.951967 279.218682 
L 210.358293 291.290591 
L 211.170946 286.542816 
L 211.577272 282.16651 
L 212.389924 221.727419 
L 212.79625 282.087726 
L 213.202576 291.31295 
L 213.608902 238.939684 
L 214.015228 246.546072 
L 214.421554 265.666808 
L 215.234206 290.71751 
L 215.640532 200.499543 
L 216.046859 269.029627 
L 216.859511 263.655539 
L 217.265837 254.548093 
L 217.672163 132.664839 
L 218.078489 266.135172 
L 218.484815 245.742819 
L 218.891141 251.077371 
L 219.297467 247.963006 
L 219.703793 249.802283 
L 220.110119 236.08283 
L 220.516446 233.077675 
L 220.922772 261.1844 
L 221.329098 273.584187 
L 221.735424 201.147118 
L 222.14175 244.557669 
L 222.548076 196.425951 
L 223.360728 281.781382 
L 223.767054 279.137113 
L 224.17338 148.612322 
L 224.579706 258.721183 
L 224.986033 266.014904 
L 225.392359 288.50074 
L 225.798685 226.337082 
L 226.205011 108.489201 
L 226.611337 115.664847 
L 227.017663 147.421805 
L 227.423989 258.639494 
L 227.830315 274.701567 
L 228.236641 266.640013 
L 228.642967 233.78366 
L 229.049293 247.826472 
L 229.45562 213.674765 
L 229.861946 253.624882 
L 230.268272 260.35011 
L 230.674598 261.551409 
L 231.080924 243.322361 
L 231.48725 270.401263 
L 231.893576 233.267386 
L 232.299902 244.45387 
L 232.706228 228.466847 
L 233.112554 291.265666 
L 233.51888 282.144326 
L 233.925207 251.252247 
L 234.331533 274.756405 
L 234.737859 283.479318 
L 235.144185 249.767243 
L 235.956837 268.306299 
L 236.363163 266.551545 
L 236.769489 274.545518 
L 237.175815 259.284574 
L 237.582141 258.722603 
L 237.988467 252.985947 
L 238.394793 256.483542 
L 238.80112 250.112443 
L 239.207446 262.567863 
L 239.613772 222.841746 
L 240.020098 276.190933 
L 240.426424 232.488824 
L 240.83275 246.209189 
L 241.239076 247.261833 
L 241.645402 122.881094 
L 242.051728 241.218833 
L 242.458054 260.658563 
L 242.86438 205.847394 
L 243.270707 280.841475 
L 244.083359 249.964703 
L 244.489685 272.430784 
L 244.896011 277.682407 
L 245.302337 273.105247 
L 245.708663 262.974077 
L 246.521315 287.440423 
L 246.927641 287.344164 
L 247.740294 289.427066 
L 248.14662 264.631731 
L 248.552946 253.859486 
L 248.959272 279.762041 
L 249.365598 269.432975 
L 249.771924 291.324055 
L 250.17825 264.232223 
L 250.584576 263.851468 
L 250.990902 287.876323 
L 251.397228 287.937365 
L 251.803554 282.372364 
L 252.209881 243.590429 
L 252.616207 235.449159 
L 253.022533 290.36287 
L 253.428859 284.801778 
L 253.835185 287.488959 
L 254.241511 265.250048 
L 254.647837 287.633996 
L 255.054163 288.822452 
L 255.460489 228.888736 
L 255.866815 290.767729 
L 256.273141 281.813823 
L 256.679468 285.926735 
L 257.085794 249.159735 
L 257.49212 288.22604 
L 257.898446 268.034768 
L 258.711098 286.696713 
L 259.117424 288.765533 
L 259.930076 238.081579 
L 260.336402 237.746497 
L 260.742728 261.717021 
L 261.149054 274.648081 
L 261.555381 270.823561 
L 261.961707 275.212478 
L 262.368033 285.460741 
L 262.774359 271.587946 
L 263.180685 287.775111 
L 263.587011 285.733564 
L 263.993337 286.256947 
L 264.399663 281.027301 
L 264.805989 290.694092 
L 265.212315 281.620664 
L 265.618641 276.360765 
L 266.024968 291.764376 
L 266.431294 164.530561 
L 266.83762 287.411748 
L 267.243946 289.365387 
L 268.056598 280.866344 
L 268.462924 289.828268 
L 268.86925 283.940468 
L 269.275576 289.006852 
L 269.681902 270.93417 
L 270.088228 281.0006 
L 270.494555 270.251256 
L 270.900881 292.086405 
L 271.307207 292.339346 
L 271.713533 293.597131 
L 272.119859 291.079927 
L 272.526185 291.914472 
L 272.932511 291.273881 
L 273.338837 276.821377 
L 274.151489 293.919227 
L 274.557815 292.314072 
L 274.964142 293.303163 
L 275.370468 291.240617 
L 275.776794 292.567186 
L 276.18312 292.415795 
L 276.589446 258.083497 
L 276.995772 292.236617 
L 277.402098 293.522603 
L 277.808424 288.349328 
L 278.21475 286.458555 
L 278.621076 291.423574 
L 279.027402 288.051437 
L 279.433729 176.219267 
L 279.840055 284.834104 
L 280.246381 285.479853 
L 280.652707 288.279305 
L 281.059033 286.388807 
L 281.465359 292.601558 
L 282.278011 293.316212 
L 282.684337 282.896907 
L 283.090663 281.495516 
L 283.496989 293.042667 
L 283.903316 290.477538 
L 284.309642 286.295647 
L 284.715968 293.35412 
L 285.52862 281.466184 
L 286.341272 289.867928 
L 286.747598 284.554025 
L 287.153924 289.362831 
L 287.56025 291.144214 
L 287.966576 289.793208 
L 288.372902 291.330835 
L 288.779229 292.051248 
L 289.185555 291.700837 
L 289.591881 286.414413 
L 289.998207 276.392356 
L 290.404533 269.937863 
L 290.810859 286.114865 
L 291.217185 271.814622 
L 291.623511 262.77787 
L 292.029837 293.969317 
L 292.842489 271.505345 
L 293.248816 283.55795 
L 293.655142 288.885512 
L 294.061468 272.262239 
L 294.467794 293.822739 
L 294.87412 293.064256 
L 295.280446 238.249714 
L 295.686772 230.810325 
L 296.093098 152.739823 
L 296.499424 290.813223 
L 296.90575 286.41263 
L 297.312076 286.243441 
L 297.718403 274.481735 
L 298.124729 286.26741 
L 298.531055 290.948166 
L 298.937381 275.348997 
L 299.343707 276.541065 
L 299.750033 284.68323 
L 300.156359 287.039506 
L 300.562685 269.196286 
L 300.969011 277.098734 
L 301.375337 281.659233 
L 301.781663 292.861784 
L 302.18799 279.442876 
L 302.594316 284.236818 
L 303.406968 230.980398 
L 303.813294 286.269265 
L 304.21962 283.777911 
L 304.625946 276.606417 
L 305.032272 228.925344 
L 305.438598 290.617153 
L 305.844924 290.870681 
L 306.25125 291.362637 
L 306.657577 291.430123 
L 307.063903 289.823429 
L 307.470229 268.851584 
L 307.876555 285.77178 
L 308.282881 269.925234 
L 308.689207 287.653063 
L 309.095533 287.446972 
L 309.501859 292.583284 
L 309.908185 289.674189 
L 310.314511 290.498321 
L 310.720837 285.715546 
L 311.127163 290.875652 
L 311.53349 190.338261 
L 312.346142 287.554983 
L 312.752468 285.655906 
L 313.158794 288.725215 
L 313.56512 289.58013 
L 313.971446 285.608941 
L 314.377772 285.750023 
L 314.784098 289.844505 
L 315.190424 231.307509 
L 315.59675 292.672664 
L 316.003077 294.504031 
L 316.409403 245.990009 
L 316.815729 280.149038 
L 317.222055 281.313936 
L 317.628381 258.621345 
L 318.034707 287.036866 
L 318.441033 286.749677 
L 318.847359 289.507895 
L 319.253685 243.074449 
L 319.660011 288.120579 
L 320.066337 286.513267 
L 320.472664 288.470583 
L 320.87899 288.237533 
L 321.285316 287.692713 
L 321.691642 291.118271 
L 322.097968 246.445611 
L 322.504294 234.047521 
L 322.91062 246.563687 
L 323.316946 227.907802 
L 323.723272 222.048527 
L 324.129598 287.16853 
L 324.535924 284.74595 
L 324.942251 171.440402 
L 325.348577 185.399597 
L 325.754903 252.338167 
L 326.161229 53.568 
L 326.567555 246.808209 
L 326.973881 258.117625 
L 327.380207 251.399064 
L 327.786533 249.481971 
L 328.192859 287.033335 
L 328.599185 289.874597 
L 329.005511 284.076552 
L 329.411838 281.714071 
L 329.818164 284.421743 
L 330.22449 288.462482 
L 330.630816 291.253614 
L 331.037142 288.149358 
L 331.443468 291.023148 
L 331.849794 280.480868 
L 332.25612 249.234675 
L 332.662446 249.237566 
L 333.068772 291.462043 
L 333.475098 236.491778 
L 333.881425 282.976194 
L 334.287751 192.919962 
L 334.694077 265.135327 
L 335.100403 244.447285 
L 335.506729 253.061857 
L 335.913055 233.532795 
L 336.319381 231.037101 
L 336.725707 226.525789 
L 337.132033 282.79012 
L 337.538359 248.388233 
L 337.944685 246.063779 
L 338.351011 285.878426 
L 338.757338 285.355994 
L 339.163664 286.53408 
L 339.56999 281.992216 
L 339.976316 260.629548 
L 340.382642 289.86654 
L 340.788968 282.26399 
L 341.195294 285.623574 
L 341.60162 237.770476 
L 342.007946 288.423996 
L 342.414272 279.332984 
L 342.820598 289.440484 
L 343.226925 291.157904 
L 343.633251 285.590903 
L 344.039577 282.379059 
L 344.445903 284.722605 
L 344.852229 285.605608 
L 345.258555 281.019942 
L 345.664881 288.271768 
L 346.071207 284.707528 
L 346.477533 251.694739 
L 346.883859 284.042778 
L 347.290185 271.18977 
L 347.696512 284.500349 
L 348.102838 284.40648 
L 348.509164 284.078063 
L 348.91549 286.95561 
L 349.321816 278.176844 
L 349.728142 277.161495 
L 350.134468 277.138328 
L 350.540794 241.643671 
L 350.94712 273.02857 
L 351.353446 286.708563 
L 351.759772 287.466087 
L 352.166099 282.960324 
L 352.572425 286.886205 
L 352.978751 263.327378 
L 353.385077 277.784813 
L 353.791403 256.169797 
L 354.197729 247.433061 
L 354.604055 255.547214 
L 355.010381 268.567666 
L 355.416707 262.258362 
L 355.823033 268.809344 
L 356.229359 178.032374 
L 356.635686 270.166151 
L 357.448338 264.198107 
L 357.854664 271.702463 
L 358.26099 269.043533 
L 358.667316 271.1938 
L 359.073642 266.543795 
L 359.479968 267.787581 
L 359.886294 271.092955 
L 360.29262 281.24853 
L 360.698946 245.203767 
L 361.105272 269.569709 
L 361.511599 279.050287 
L 361.917925 291.947163 
L 362.324251 251.560006 
L 362.730577 254.221536 
L 363.136903 285.547386 
L 363.543229 266.994683 
L 363.949555 270.127096 
L 364.355881 278.464806 
L 364.762207 279.30696 
L 365.168533 254.106527 
L 365.574859 253.412941 
L 365.981186 276.858058 
L 366.387512 285.986908 
L 366.793838 265.048547 
L 367.200164 287.552777 
L 367.60649 283.862168 
L 368.012816 285.399292 
L 368.419142 275.947618 
L 368.825468 289.870061 
L 369.231794 289.160783 
L 369.63812 282.543692 
L 370.044446 280.626736 
L 370.450773 289.272175 
L 370.857099 287.437569 
L 371.263425 290.123159 
L 371.669751 282.613919 
L 372.076077 268.483897 
L 372.482403 291.429751 
L 372.888729 288.424501 
L 373.295055 280.513754 
L 373.701381 284.917817 
L 374.107707 251.127881 
L 374.514033 285.999335 
L 374.92036 285.057491 
L 375.326686 283.217478 
L 375.733012 289.921103 
L 376.139338 173.87602 
L 376.545664 269.288176 
L 376.95199 286.006452 
L 377.358316 285.473687 
L 377.764642 260.464233 
L 378.170968 275.177648 
L 378.577294 213.10724 
L 378.98362 280.354352 
L 379.389947 273.746354 
L 379.796273 273.121287 
L 380.202599 275.203836 
L 380.608925 280.381206 
L 381.015251 277.7323 
L 381.421577 283.359193 
L 381.827903 265.413811 
L 382.234229 286.720787 
L 382.640555 285.89077 
L 383.046881 286.879945 
L 383.453207 287.136415 
L 383.859534 286.9961 
L 384.26586 185.303064 
L 384.672186 286.195288 
L 385.078512 288.207832 
L 385.891164 253.319522 
L 386.29749 286.388639 
L 386.703816 287.898197 
L 387.110142 288.327824 
L 387.516468 284.63529 
L 387.922794 287.50822 
L 388.32912 287.55362 
L 389.141773 265.497523 
L 389.548099 264.367069 
L 389.954425 277.154962 
L 390.360751 206.50695 
L 390.767077 270.210729 
L 391.173403 271.216282 
L 391.579729 271.142947 
L 391.986055 278.421863 
L 392.392381 269.743424 
L 392.798707 271.394802 
L 393.205034 242.970145 
L 393.61136 280.667081 
L 394.017686 279.740846 
L 394.424012 262.411602 
L 394.830338 268.900349 
L 395.236664 287.877963 
L 395.64299 200.147037 
L 396.049316 285.787327 
L 396.455642 227.021594 
L 396.861968 288.558493 
L 397.268294 290.209609 
L 397.674621 289.046888 
L 398.080947 286.198488 
L 398.487273 293.345809 
L 398.487273 293.345809 
" style="fill:none;stroke:#1f77b4;stroke-linecap:square;stroke-width:1.5;"/>
   </g>
   <g id="line2d_19">
    <path clip-path="url(#pb8d361b74a)" d="M 73.832727 293.398037 
L 74.239053 294.17166 
L 74.645379 293.861939 
L 75.051706 293.901836 
L 75.458032 292.774805 
L 76.270684 292.783273 
L 76.67701 292.419891 
L 77.083336 292.46326 
L 77.489662 293.541664 
L 77.895988 292.408805 
L 78.70864 292.340746 
L 79.114966 293.76847 
L 79.521293 292.069587 
L 79.927619 291.952958 
L 80.333945 288.462511 
L 80.740271 287.644159 
L 81.146597 292.047878 
L 81.552923 291.962615 
L 81.959249 291.033301 
L 82.365575 291.812424 
L 82.771901 292.115093 
L 84.397206 292.132814 
L 85.209858 292.184855 
L 85.616184 291.118341 
L 86.02251 291.908067 
L 86.428836 291.98605 
L 86.835162 291.442821 
L 87.241488 287.208177 
L 87.647814 287.563105 
L 88.05414 292.821337 
L 88.460466 288.174478 
L 88.866793 288.382133 
L 89.273119 291.389584 
L 89.679445 289.903109 
L 90.492097 292.470959 
L 90.898423 290.916286 
L 91.304749 290.367961 
L 91.711075 293.013152 
L 92.117401 290.447324 
L 92.523727 292.102897 
L 92.930053 290.870293 
L 93.33638 282.702271 
L 93.742706 293.889016 
L 94.149032 295.104809 
L 94.555358 289.742206 
L 94.961684 288.521457 
L 95.36801 280.762024 
L 95.774336 280.222146 
L 96.180662 266.610424 
L 96.586988 259.898796 
L 96.993314 271.63385 
L 97.39964 272.544775 
L 97.805967 271.2556 
L 98.212293 272.734523 
L 98.618619 294.782938 
L 99.024945 270.253789 
L 99.431271 286.463136 
L 99.837597 294.847567 
L 100.243923 290.337628 
L 100.650249 279.952701 
L 101.056575 292.620493 
L 101.462901 279.38439 
L 101.869227 291.280656 
L 102.275554 292.778163 
L 102.68188 287.931843 
L 103.088206 266.948849 
L 103.494532 287.768381 
L 103.900858 273.67108 
L 104.307184 288.613624 
L 104.71351 284.277835 
L 105.119836 289.800639 
L 105.526162 284.015413 
L 105.932488 281.472297 
L 106.338814 272.26052 
L 106.745141 237.55431 
L 107.151467 287.495885 
L 107.964119 281.880852 
L 108.776771 293.224385 
L 109.183097 293.301167 
L 109.589423 285.516039 
L 109.995749 293.812596 
L 110.402075 282.057719 
L 110.808401 281.543885 
L 111.214728 287.630239 
L 111.621054 280.91152 
L 112.02738 286.806946 
L 112.433706 286.582433 
L 112.840032 280.668034 
L 113.246358 277.575248 
L 113.652684 280.11791 
L 114.05901 289.376642 
L 114.465336 294.611355 
L 114.871662 287.29431 
L 115.277988 294.226141 
L 115.684314 293.559066 
L 116.090641 290.570424 
L 116.496967 293.714151 
L 116.903293 294.342924 
L 117.309619 294.153392 
L 117.715945 294.964035 
L 118.122271 279.825254 
L 118.528597 292.911391 
L 118.934923 292.983254 
L 119.341249 293.235552 
L 119.747575 294.013187 
L 120.153901 293.339041 
L 120.560228 287.492955 
L 120.966554 277.3561 
L 121.37288 290.721426 
L 121.779206 289.672055 
L 122.185532 291.441254 
L 122.591858 291.7488 
L 122.998184 286.393213 
L 123.40451 291.077798 
L 123.810836 289.184056 
L 124.217162 293.966937 
L 124.623488 289.204979 
L 125.029815 295.328134 
L 125.842467 278.685732 
L 126.248793 288.328284 
L 126.655119 291.719848 
L 127.061445 291.882759 
L 127.467771 289.874255 
L 127.874097 286.062241 
L 128.280423 281.169408 
L 128.686749 284.701591 
L 129.093075 294.375607 
L 129.499402 288.428118 
L 130.312054 291.663267 
L 130.71838 291.274998 
L 131.124706 291.224567 
L 131.531032 291.900149 
L 132.343684 289.222749 
L 132.75001 289.162621 
L 133.156336 289.406556 
L 133.562662 288.526298 
L 134.781641 288.499342 
L 135.594293 287.810303 
L 136.813271 286.812304 
L 137.219597 292.657119 
L 137.625923 286.521857 
L 138.032249 284.952649 
L 138.438575 291.794383 
L 138.844902 293.289206 
L 139.251228 282.972719 
L 139.657554 289.136354 
L 140.06388 287.130687 
L 140.470206 292.291669 
L 140.876532 292.110752 
L 141.282858 290.909713 
L 141.689184 294.95056 
L 142.09551 290.971909 
L 142.501836 291.170262 
L 142.908162 290.782698 
L 143.314489 291.263557 
L 144.127141 291.692627 
L 145.346119 291.882343 
L 145.752445 291.897701 
L 146.158771 285.932209 
L 146.565097 294.508912 
L 146.971423 292.854328 
L 147.377749 294.56366 
L 147.784076 291.41445 
L 148.190402 295.021968 
L 148.596728 294.58285 
L 149.40938 294.57621 
L 149.815706 295.168848 
L 150.222032 294.546548 
L 150.628358 295.115603 
L 151.034684 294.380263 
L 151.44101 293.954565 
L 151.847336 293.974983 
L 152.253663 295.17762 
L 152.659989 286.927367 
L 153.066315 288.602437 
L 153.472641 294.401889 
L 153.878967 295.021369 
L 154.285293 290.049913 
L 154.691619 289.173961 
L 155.504271 289.008553 
L 155.910597 288.693318 
L 156.316923 286.723744 
L 156.72325 286.963115 
L 157.129576 287.450496 
L 157.535902 275.537703 
L 157.942228 290.531224 
L 158.348554 280.803665 
L 158.75488 288.279463 
L 159.161206 288.154906 
L 159.973858 288.283787 
L 160.380184 286.499673 
L 160.78651 286.680142 
L 161.192837 291.50144 
L 161.599163 291.265585 
L 162.005489 291.449476 
L 162.411815 288.879261 
L 163.224467 294.394479 
L 163.630793 294.396702 
L 164.037119 289.430606 
L 164.443445 290.252855 
L 164.849771 294.958273 
L 165.256097 285.534677 
L 165.662423 295.355902 
L 166.475076 294.912104 
L 166.881402 295.101042 
L 167.287728 290.339698 
L 167.694054 295.182833 
L 168.10038 286.458005 
L 168.506706 286.55842 
L 168.913032 291.497685 
L 169.319358 292.65804 
L 169.725684 291.52458 
L 170.538337 282.021922 
L 170.944663 290.976012 
L 171.350989 276.817685 
L 171.757315 290.810282 
L 172.163641 288.509626 
L 172.569967 290.900426 
L 172.976293 290.838802 
L 173.382619 291.738127 
L 173.788945 291.061159 
L 174.601597 291.0518 
L 175.007924 293.527 
L 175.41425 290.678248 
L 176.226902 294.540919 
L 176.633228 293.973288 
L 177.039554 293.784759 
L 177.44588 294.56462 
L 177.852206 288.983564 
L 178.258532 292.022202 
L 178.664858 292.07435 
L 179.071184 291.410008 
L 179.477511 284.878378 
L 179.883837 290.172194 
L 180.290163 291.834711 
L 181.915467 291.603764 
L 182.728119 293.73322 
L 183.134445 294.950378 
L 183.540771 291.076968 
L 183.947098 291.670609 
L 184.353424 294.638095 
L 184.75975 292.743774 
L 185.572402 292.811134 
L 185.978728 294.876534 
L 186.385054 294.935156 
L 186.79138 292.397597 
L 187.197706 294.779534 
L 187.604032 290.891065 
L 188.010358 288.12514 
L 188.416684 288.187531 
L 188.823011 288.968358 
L 189.229337 288.750036 
L 189.635663 290.655596 
L 190.041989 284.243236 
L 190.448315 288.262127 
L 190.854641 288.986712 
L 191.260967 291.513756 
L 191.667293 286.710082 
L 192.073619 287.545431 
L 192.479945 294.152072 
L 192.886271 294.274552 
L 193.292598 291.628958 
L 193.698924 294.319572 
L 194.10525 294.343811 
L 194.511576 282.050981 
L 194.917902 287.590344 
L 195.324228 290.456093 
L 195.730554 288.749721 
L 196.13688 285.164849 
L 196.543206 285.269 
L 197.355858 288.349602 
L 197.762185 293.205609 
L 198.168511 290.302182 
L 198.574837 293.066065 
L 198.981163 293.714131 
L 199.387489 293.024773 
L 199.793815 294.696507 
L 200.200141 294.898821 
L 200.606467 294.697336 
L 201.012793 295.003648 
L 201.419119 294.520466 
L 201.825445 287.256587 
L 202.231772 294.384398 
L 202.638098 294.994707 
L 203.044424 293.668701 
L 203.45075 294.68396 
L 203.857076 294.217633 
L 204.263402 291.955168 
L 204.669728 294.985549 
L 205.076054 292.271766 
L 205.48238 294.473086 
L 205.888706 295.488 
L 206.295032 292.750535 
L 206.701359 293.81618 
L 207.514011 292.105807 
L 207.920337 292.513928 
L 208.326663 293.788108 
L 208.732989 292.376566 
L 209.139315 292.172249 
L 209.545641 291.24409 
L 209.951967 293.249371 
L 210.358293 294.08835 
L 210.764619 290.894024 
L 211.170946 284.350191 
L 211.577272 294.867995 
L 211.983598 293.33757 
L 212.389924 294.473244 
L 212.79625 293.477225 
L 213.202576 291.029223 
L 213.608902 291.36755 
L 214.015228 287.377167 
L 214.421554 294.310561 
L 214.82788 282.150569 
L 215.234206 293.59601 
L 215.640532 289.852642 
L 216.046859 288.866224 
L 216.453185 287.530646 
L 216.859511 286.816002 
L 217.265837 295.286612 
L 217.672163 288.55303 
L 218.078489 289.458759 
L 218.484815 289.574366 
L 218.891141 288.941229 
L 219.703793 288.880106 
L 220.110119 288.99885 
L 220.516446 289.503735 
L 220.922772 289.091923 
L 221.329098 290.081801 
L 221.735424 280.455255 
L 222.14175 290.977821 
L 222.548076 292.122421 
L 222.954402 294.931698 
L 223.360728 290.710848 
L 223.767054 292.864725 
L 224.17338 293.895282 
L 224.579706 292.538411 
L 225.392359 294.24226 
L 225.798685 292.408331 
L 226.205011 293.319492 
L 227.017663 283.126989 
L 227.423989 293.574959 
L 227.830315 291.493777 
L 228.236641 290.859013 
L 228.642967 294.820233 
L 229.049293 293.061497 
L 229.861946 292.784291 
L 230.268272 291.59835 
L 230.674598 289.064768 
L 231.48725 279.550665 
L 231.893576 281.321421 
L 232.706228 294.770331 
L 233.112554 286.104477 
L 233.51888 284.792597 
L 233.925207 289.760544 
L 234.331533 289.848171 
L 234.737859 294.361666 
L 235.144185 288.876332 
L 235.550511 289.51319 
L 235.956837 271.679098 
L 236.363163 287.837343 
L 236.769489 290.36847 
L 237.175815 282.462662 
L 237.582141 294.363359 
L 237.988467 282.453627 
L 238.394793 294.721814 
L 238.80112 288.376457 
L 239.207446 291.590378 
L 239.613772 263.696116 
L 240.020098 269.511113 
L 240.426424 290.367722 
L 240.83275 274.383596 
L 241.239076 271.868466 
L 241.645402 283.195936 
L 242.051728 279.762197 
L 242.458054 269.940839 
L 242.86438 266.852614 
L 243.270707 265.128841 
L 243.677033 286.489973 
L 244.083359 284.726441 
L 244.489685 273.228763 
L 244.896011 278.866871 
L 245.302337 293.393972 
L 245.708663 287.460674 
L 246.114989 258.859504 
L 246.521315 253.540407 
L 246.927641 290.757761 
L 247.333967 263.838408 
L 247.740294 293.636598 
L 248.14662 293.102655 
L 248.552946 292.132588 
L 248.959272 288.501942 
L 249.365598 290.809824 
L 249.771924 291.090549 
L 250.17825 273.983419 
L 250.584576 282.312654 
L 250.990902 293.122861 
L 251.397228 249.028887 
L 251.803554 276.576559 
L 252.209881 282.833565 
L 252.616207 284.280374 
L 253.022533 294.869051 
L 253.428859 294.523647 
L 253.835185 295.008893 
L 254.241511 291.886116 
L 254.647837 294.326939 
L 255.054163 280.434466 
L 255.460489 293.206612 
L 255.866815 287.882072 
L 256.273141 294.901057 
L 256.679468 280.4852 
L 257.085794 281.7497 
L 257.49212 293.207711 
L 257.898446 293.790047 
L 258.304772 295.153581 
L 258.711098 293.093334 
L 259.52375 295.052311 
L 259.930076 294.344954 
L 260.336402 295.153354 
L 260.742728 276.600835 
L 261.149054 285.279501 
L 261.555381 279.813933 
L 261.961707 294.962976 
L 262.774359 287.276166 
L 263.180685 289.597478 
L 263.587011 293.676861 
L 263.993337 294.932588 
L 264.399663 295.437543 
L 264.805989 293.095767 
L 265.212315 283.249371 
L 265.618641 294.123542 
L 266.024968 289.900386 
L 266.431294 293.380106 
L 266.83762 292.406813 
L 267.243946 293.124491 
L 267.650272 293.430134 
L 268.056598 288.29888 
L 268.462924 264.266759 
L 268.86925 274.957373 
L 269.275576 294.706706 
L 269.681902 293.817727 
L 270.088228 248.826997 
L 270.900881 283.620138 
L 271.713533 292.950082 
L 272.119859 293.255828 
L 272.526185 286.917477 
L 272.932511 287.732141 
L 273.338837 287.220361 
L 273.745163 283.08759 
L 274.151489 292.709269 
L 274.557815 292.634913 
L 274.964142 292.884246 
L 275.370468 286.506433 
L 275.776794 293.542025 
L 276.18312 285.439658 
L 276.589446 289.139926 
L 276.995772 286.442922 
L 277.402098 291.876151 
L 277.808424 290.431098 
L 278.21475 285.45278 
L 278.621076 292.504348 
L 279.027402 292.942371 
L 279.433729 294.738198 
L 279.840055 292.607265 
L 280.246381 293.156583 
L 280.652707 293.120611 
L 281.059033 292.334006 
L 281.465359 294.058147 
L 281.871685 284.813563 
L 282.278011 289.469767 
L 282.684337 291.721113 
L 283.090663 279.785018 
L 283.496989 272.197999 
L 283.903316 292.385886 
L 284.309642 293.017933 
L 284.715968 88.651362 
L 285.122294 294.904386 
L 285.52862 288.761864 
L 285.934946 294.722995 
L 286.341272 282.699874 
L 286.747598 292.674658 
L 287.153924 293.537737 
L 287.56025 293.523431 
L 287.966576 292.72727 
L 288.372902 288.836367 
L 288.779229 293.989231 
L 289.185555 294.694537 
L 289.591881 292.864984 
L 290.404533 273.354771 
L 290.810859 280.329382 
L 291.217185 260.738512 
L 291.623511 291.334864 
L 292.029837 253.292926 
L 292.436163 290.317399 
L 292.842489 250.348679 
L 293.248816 241.281596 
L 293.655142 272.54898 
L 294.061468 275.533551 
L 294.87412 263.05906 
L 295.280446 254.904099 
L 295.686772 258.590264 
L 296.093098 287.881368 
L 296.90575 293.370914 
L 297.312076 291.54223 
L 297.718403 293.07726 
L 298.124729 276.873857 
L 298.531055 273.458362 
L 298.937381 291.380968 
L 299.343707 292.059996 
L 299.750033 287.742405 
L 300.156359 271.67731 
L 300.562685 290.614718 
L 300.969011 287.769982 
L 301.375337 293.195788 
L 301.781663 286.804691 
L 302.18799 288.627591 
L 303.000642 281.342028 
L 303.406968 280.380406 
L 303.813294 267.314884 
L 304.21962 284.099616 
L 304.625946 290.10269 
L 305.438598 292.501935 
L 305.844924 269.942675 
L 306.25125 271.780992 
L 306.657577 269.425315 
L 307.063903 291.334375 
L 307.470229 275.137191 
L 307.876555 288.19097 
L 308.282881 285.15878 
L 308.689207 295.034078 
L 309.095533 293.461862 
L 309.501859 293.49473 
L 309.908185 292.504602 
L 310.314511 287.841179 
L 310.720837 294.16545 
L 311.127163 288.007686 
L 311.53349 294.918433 
L 311.939816 286.669648 
L 312.346142 288.430193 
L 312.752468 294.211248 
L 313.158794 294.586372 
L 313.56512 295.259515 
L 313.971446 295.305249 
L 314.377772 293.971475 
L 314.784098 295.004372 
L 315.190424 288.184918 
L 315.59675 295.154865 
L 316.003077 153.585413 
L 316.409403 292.363401 
L 316.815729 239.925962 
L 317.222055 292.007802 
L 317.628381 287.676355 
L 318.034707 263.085766 
L 318.441033 294.351823 
L 318.847359 292.014236 
L 319.253685 294.364256 
L 319.660011 293.526686 
L 320.066337 289.632214 
L 320.472664 290.273302 
L 320.87899 288.778799 
L 321.285316 292.822557 
L 321.691642 291.735241 
L 322.097968 293.045459 
L 322.504294 291.084992 
L 322.91062 291.202078 
L 323.316946 291.702237 
L 323.723272 267.078963 
L 324.129598 288.779542 
L 324.535924 295.091446 
L 324.942251 283.067638 
L 325.348577 290.975784 
L 325.754903 295.092488 
L 326.161229 255.032624 
L 326.567555 293.546348 
L 326.973881 284.922351 
L 327.380207 287.882926 
L 327.786533 280.761723 
L 328.192859 271.028609 
L 328.599185 286.056688 
L 329.005511 285.442738 
L 329.411838 288.245372 
L 329.818164 277.933764 
L 330.22449 285.33499 
L 330.630816 279.175454 
L 331.037142 280.941599 
L 331.443468 266.436646 
L 331.849794 283.060915 
L 332.25612 291.639016 
L 332.662446 293.773741 
L 333.068772 290.961191 
L 333.475098 294.297912 
L 333.881425 289.091965 
L 334.287751 273.548879 
L 334.694077 291.280257 
L 335.100403 277.764356 
L 335.506729 278.748988 
L 336.319381 285.605668 
L 336.725707 286.151732 
L 337.132033 284.41034 
L 337.538359 292.88697 
L 338.351011 295.042298 
L 338.757338 288.82535 
L 339.163664 288.813747 
L 339.56999 294.945713 
L 339.976316 257.985248 
L 340.382642 268.748696 
L 340.788968 258.140101 
L 341.195294 283.388237 
L 341.60162 289.506201 
L 342.007946 283.288737 
L 342.414272 286.133999 
L 342.820598 289.894085 
L 343.226925 289.610479 
L 343.633251 264.294249 
L 344.039577 267.282126 
L 344.445903 292.625164 
L 344.852229 293.132608 
L 345.258555 288.594625 
L 345.664881 290.529891 
L 346.071207 294.023126 
L 346.477533 289.230798 
L 346.883859 294.146856 
L 347.696512 294.235291 
L 348.91549 294.471408 
L 349.321816 293.74368 
L 349.728142 293.30543 
L 350.134468 293.659279 
L 350.540794 292.985066 
L 350.94712 258.087302 
L 351.353446 282.664311 
L 351.759772 249.543138 
L 352.166099 291.538562 
L 352.572425 290.401497 
L 352.978751 247.925266 
L 353.385077 288.219004 
L 354.197729 251.371741 
L 354.604055 277.219245 
L 355.010381 280.36882 
L 355.416707 287.815244 
L 355.823033 289.773379 
L 356.229359 276.783326 
L 356.635686 245.507877 
L 357.042012 280.859268 
L 357.448338 269.886767 
L 357.854664 292.714097 
L 358.26099 294.516949 
L 358.667316 292.924539 
L 359.479968 294.417665 
L 359.886294 293.330543 
L 360.698946 294.973928 
L 361.105272 288.418958 
L 361.511599 293.675869 
L 361.917925 292.285192 
L 362.324251 293.772974 
L 362.730577 284.701008 
L 363.136903 290.124119 
L 363.543229 289.740464 
L 363.949555 295.036775 
L 364.355881 294.595034 
L 364.762207 292.869417 
L 365.168533 294.895866 
L 365.574859 295.153669 
L 365.981186 283.828784 
L 366.387512 279.14855 
L 366.793838 290.697223 
L 367.200164 280.615925 
L 367.60649 294.80088 
L 368.012816 287.483686 
L 368.419142 265.587956 
L 368.825468 292.639685 
L 369.231794 285.981432 
L 369.63812 286.830484 
L 370.044446 292.807897 
L 370.450773 288.875453 
L 371.263425 294.082908 
L 372.076077 267.56101 
L 372.482403 270.589559 
L 372.888729 253.962409 
L 373.295055 265.949675 
L 373.701381 264.256582 
L 374.107707 290.201803 
L 374.514033 290.035131 
L 374.92036 288.940847 
L 375.326686 289.301736 
L 375.733012 287.455131 
L 376.139338 257.553633 
L 376.545664 284.604196 
L 376.95199 278.011055 
L 377.358316 287.418096 
L 377.764642 289.220055 
L 378.170968 282.653396 
L 378.577294 294.403966 
L 378.98362 292.684659 
L 379.389947 293.857838 
L 379.796273 294.147445 
L 380.202599 275.702525 
L 380.608925 285.192778 
L 381.015251 290.131379 
L 381.421577 286.632504 
L 381.827903 280.562589 
L 382.234229 255.341401 
L 382.640555 285.276328 
L 383.046881 282.930434 
L 383.453207 257.905697 
L 383.859534 255.087991 
L 384.26586 275.74921 
L 384.672186 253.009215 
L 385.078512 288.916015 
L 385.484838 257.319984 
L 385.891164 278.366294 
L 386.29749 291.458667 
L 386.703816 294.44212 
L 387.110142 292.77526 
L 387.516468 290.394912 
L 387.922794 284.549005 
L 388.32912 293.393334 
L 388.735447 294.957061 
L 389.548099 291.410219 
L 389.954425 294.758106 
L 390.360751 254.875485 
L 391.173403 295.185926 
L 391.579729 280.375066 
L 392.392381 291.875409 
L 392.798707 290.411771 
L 393.205034 294.64492 
L 393.61136 292.757814 
L 394.017686 293.536763 
L 394.424012 293.958532 
L 394.830338 291.64925 
L 395.236664 286.079203 
L 395.64299 287.475432 
L 396.049316 287.477772 
L 396.455642 292.422566 
L 396.861968 292.109444 
L 397.268294 284.179367 
L 397.674621 288.533297 
L 398.080947 294.652506 
L 398.487273 287.544009 
L 398.487273 287.544009 
" style="fill:none;stroke:#ff7f0e;stroke-linecap:square;stroke-width:1.5;"/>
   </g>
   <g id="patch_3">
    <path d="M 57.6 307.584 
L 57.6 41.472 
" style="fill:none;stroke:#000000;stroke-linecap:square;stroke-linejoin:miter;stroke-width:0.8;"/>
   </g>
   <g id="patch_4">
    <path d="M 414.72 307.584 
L 414.72 41.472 
" style="fill:none;stroke:#000000;stroke-linecap:square;stroke-linejoin:miter;stroke-width:0.8;"/>
   </g>
   <g id="patch_5">
    <path d="M 57.6 307.584 
L 414.72 307.584 
" style="fill:none;stroke:#000000;stroke-linecap:square;stroke-linejoin:miter;stroke-width:0.8;"/>
   </g>
   <g id="patch_6">
    <path d="M 57.6 41.472 
L 414.72 41.472 
" style="fill:none;stroke:#000000;stroke-linecap:square;stroke-linejoin:miter;stroke-width:0.8;"/>
   </g>
  </g>
 </g>
 <defs>
  <clipPath id="pb8d361b74a">
   <rect height="266.112" width="357.12" x="57.6" y="41.472"/>
  </clipPath>
 </defs>
</svg>
