<?xml version="1.0" encoding="utf-8" standalone="no"?>
<!DOCTYPE svg PUBLIC "-//W3C//DTD SVG 1.1//EN"
  "http://www.w3.org/Graphics/SVG/1.1/DTD/svg11.dtd">
<!-- Created with matplotlib (https://matplotlib.org/) -->
<svg height="345.6pt" version="1.1" viewBox="0 0 460.8 345.6" width="460.8pt" xmlns="http://www.w3.org/2000/svg" xmlns:xlink="http://www.w3.org/1999/xlink">
 <defs>
  <style type="text/css">
*{stroke-linecap:butt;stroke-linejoin:round;}
  </style>
 </defs>
 <g id="figure_1">
  <g id="patch_1">
   <path d="M 0 345.6 
L 460.8 345.6 
L 460.8 0 
L 0 0 
z
" style="fill:#ffffff;"/>
  </g>
  <g id="axes_1">
   <g id="patch_2">
    <path d="M 57.6 307.584 
L 414.72 307.584 
L 414.72 41.472 
L 57.6 41.472 
z
" style="fill:#ffffff;"/>
   </g>
   <g id="matplotlib.axis_1">
    <g id="xtick_1">
     <g id="line2d_1">
      <defs>
       <path d="M 0 0 
L 0 3.5 
" id="m66ba93e825" style="stroke:#000000;stroke-width:0.8;"/>
      </defs>
      <g>
       <use style="stroke:#000000;stroke-width:0.8;" x="73.832727" xlink:href="#m66ba93e825" y="307.584"/>
      </g>
     </g>
     <g id="text_1">
      <!-- 0 -->
      <defs>
       <path d="M 31.78125 66.40625 
Q 24.171875 66.40625 20.328125 58.90625 
Q 16.5 51.421875 16.5 36.375 
Q 16.5 21.390625 20.328125 13.890625 
Q 24.171875 6.390625 31.78125 6.390625 
Q 39.453125 6.390625 43.28125 13.890625 
Q 47.125 21.390625 47.125 36.375 
Q 47.125 51.421875 43.28125 58.90625 
Q 39.453125 66.40625 31.78125 66.40625 
z
M 31.78125 74.21875 
Q 44.046875 74.21875 50.515625 64.515625 
Q 56.984375 54.828125 56.984375 36.375 
Q 56.984375 17.96875 50.515625 8.265625 
Q 44.046875 -1.421875 31.78125 -1.421875 
Q 19.53125 -1.421875 13.0625 8.265625 
Q 6.59375 17.96875 6.59375 36.375 
Q 6.59375 54.828125 13.0625 64.515625 
Q 19.53125 74.21875 31.78125 74.21875 
z
" id="DejaVuSans-48"/>
      </defs>
      <g transform="translate(70.651477 322.182437)scale(0.1 -0.1)">
       <use xlink:href="#DejaVuSans-48"/>
      </g>
     </g>
    </g>
    <g id="xtick_2">
     <g id="line2d_2">
      <g>
       <use style="stroke:#000000;stroke-width:0.8;" x="114.465336" xlink:href="#m66ba93e825" y="307.584"/>
      </g>
     </g>
     <g id="text_2">
      <!-- 100 -->
      <defs>
       <path d="M 12.40625 8.296875 
L 28.515625 8.296875 
L 28.515625 63.921875 
L 10.984375 60.40625 
L 10.984375 69.390625 
L 28.421875 72.90625 
L 38.28125 72.90625 
L 38.28125 8.296875 
L 54.390625 8.296875 
L 54.390625 0 
L 12.40625 0 
z
" id="DejaVuSans-49"/>
      </defs>
      <g transform="translate(104.921586 322.182437)scale(0.1 -0.1)">
       <use xlink:href="#DejaVuSans-49"/>
       <use x="63.623047" xlink:href="#DejaVuSans-48"/>
       <use x="127.246094" xlink:href="#DejaVuSans-48"/>
      </g>
     </g>
    </g>
    <g id="xtick_3">
     <g id="line2d_3">
      <g>
       <use style="stroke:#000000;stroke-width:0.8;" x="155.097945" xlink:href="#m66ba93e825" y="307.584"/>
      </g>
     </g>
     <g id="text_3">
      <!-- 200 -->
      <defs>
       <path d="M 19.1875 8.296875 
L 53.609375 8.296875 
L 53.609375 0 
L 7.328125 0 
L 7.328125 8.296875 
Q 12.9375 14.109375 22.625 23.890625 
Q 32.328125 33.6875 34.8125 36.53125 
Q 39.546875 41.84375 41.421875 45.53125 
Q 43.3125 49.21875 43.3125 52.78125 
Q 43.3125 58.59375 39.234375 62.25 
Q 35.15625 65.921875 28.609375 65.921875 
Q 23.96875 65.921875 18.8125 64.3125 
Q 13.671875 62.703125 7.8125 59.421875 
L 7.8125 69.390625 
Q 13.765625 71.78125 18.9375 73 
Q 24.125 74.21875 28.421875 74.21875 
Q 39.75 74.21875 46.484375 68.546875 
Q 53.21875 62.890625 53.21875 53.421875 
Q 53.21875 48.921875 51.53125 44.890625 
Q 49.859375 40.875 45.40625 35.40625 
Q 44.1875 33.984375 37.640625 27.21875 
Q 31.109375 20.453125 19.1875 8.296875 
z
" id="DejaVuSans-50"/>
      </defs>
      <g transform="translate(145.554195 322.182437)scale(0.1 -0.1)">
       <use xlink:href="#DejaVuSans-50"/>
       <use x="63.623047" xlink:href="#DejaVuSans-48"/>
       <use x="127.246094" xlink:href="#DejaVuSans-48"/>
      </g>
     </g>
    </g>
    <g id="xtick_4">
     <g id="line2d_4">
      <g>
       <use style="stroke:#000000;stroke-width:0.8;" x="195.730554" xlink:href="#m66ba93e825" y="307.584"/>
      </g>
     </g>
     <g id="text_4">
      <!-- 300 -->
      <defs>
       <path d="M 40.578125 39.3125 
Q 47.65625 37.796875 51.625 33 
Q 55.609375 28.21875 55.609375 21.1875 
Q 55.609375 10.40625 48.1875 4.484375 
Q 40.765625 -1.421875 27.09375 -1.421875 
Q 22.515625 -1.421875 17.65625 -0.515625 
Q 12.796875 0.390625 7.625 2.203125 
L 7.625 11.71875 
Q 11.71875 9.328125 16.59375 8.109375 
Q 21.484375 6.890625 26.8125 6.890625 
Q 36.078125 6.890625 40.9375 10.546875 
Q 45.796875 14.203125 45.796875 21.1875 
Q 45.796875 27.640625 41.28125 31.265625 
Q 36.765625 34.90625 28.71875 34.90625 
L 20.21875 34.90625 
L 20.21875 43.015625 
L 29.109375 43.015625 
Q 36.375 43.015625 40.234375 45.921875 
Q 44.09375 48.828125 44.09375 54.296875 
Q 44.09375 59.90625 40.109375 62.90625 
Q 36.140625 65.921875 28.71875 65.921875 
Q 24.65625 65.921875 20.015625 65.03125 
Q 15.375 64.15625 9.8125 62.3125 
L 9.8125 71.09375 
Q 15.4375 72.65625 20.34375 73.4375 
Q 25.25 74.21875 29.59375 74.21875 
Q 40.828125 74.21875 47.359375 69.109375 
Q 53.90625 64.015625 53.90625 55.328125 
Q 53.90625 49.265625 50.4375 45.09375 
Q 46.96875 40.921875 40.578125 39.3125 
z
" id="DejaVuSans-51"/>
      </defs>
      <g transform="translate(186.186804 322.182437)scale(0.1 -0.1)">
       <use xlink:href="#DejaVuSans-51"/>
       <use x="63.623047" xlink:href="#DejaVuSans-48"/>
       <use x="127.246094" xlink:href="#DejaVuSans-48"/>
      </g>
     </g>
    </g>
    <g id="xtick_5">
     <g id="line2d_5">
      <g>
       <use style="stroke:#000000;stroke-width:0.8;" x="236.363163" xlink:href="#m66ba93e825" y="307.584"/>
      </g>
     </g>
     <g id="text_5">
      <!-- 400 -->
      <defs>
       <path d="M 37.796875 64.3125 
L 12.890625 25.390625 
L 37.796875 25.390625 
z
M 35.203125 72.90625 
L 47.609375 72.90625 
L 47.609375 25.390625 
L 58.015625 25.390625 
L 58.015625 17.1875 
L 47.609375 17.1875 
L 47.609375 0 
L 37.796875 0 
L 37.796875 17.1875 
L 4.890625 17.1875 
L 4.890625 26.703125 
z
" id="DejaVuSans-52"/>
      </defs>
      <g transform="translate(226.819413 322.182437)scale(0.1 -0.1)">
       <use xlink:href="#DejaVuSans-52"/>
       <use x="63.623047" xlink:href="#DejaVuSans-48"/>
       <use x="127.246094" xlink:href="#DejaVuSans-48"/>
      </g>
     </g>
    </g>
    <g id="xtick_6">
     <g id="line2d_6">
      <g>
       <use style="stroke:#000000;stroke-width:0.8;" x="276.995772" xlink:href="#m66ba93e825" y="307.584"/>
      </g>
     </g>
     <g id="text_6">
      <!-- 500 -->
      <defs>
       <path d="M 10.796875 72.90625 
L 49.515625 72.90625 
L 49.515625 64.59375 
L 19.828125 64.59375 
L 19.828125 46.734375 
Q 21.96875 47.46875 24.109375 47.828125 
Q 26.265625 48.1875 28.421875 48.1875 
Q 40.625 48.1875 47.75 41.5 
Q 54.890625 34.8125 54.890625 23.390625 
Q 54.890625 11.625 47.5625 5.09375 
Q 40.234375 -1.421875 26.90625 -1.421875 
Q 22.3125 -1.421875 17.546875 -0.640625 
Q 12.796875 0.140625 7.71875 1.703125 
L 7.71875 11.625 
Q 12.109375 9.234375 16.796875 8.0625 
Q 21.484375 6.890625 26.703125 6.890625 
Q 35.15625 6.890625 40.078125 11.328125 
Q 45.015625 15.765625 45.015625 23.390625 
Q 45.015625 31 40.078125 35.4375 
Q 35.15625 39.890625 26.703125 39.890625 
Q 22.75 39.890625 18.8125 39.015625 
Q 14.890625 38.140625 10.796875 36.28125 
z
" id="DejaVuSans-53"/>
      </defs>
      <g transform="translate(267.452022 322.182437)scale(0.1 -0.1)">
       <use xlink:href="#DejaVuSans-53"/>
       <use x="63.623047" xlink:href="#DejaVuSans-48"/>
       <use x="127.246094" xlink:href="#DejaVuSans-48"/>
      </g>
     </g>
    </g>
    <g id="xtick_7">
     <g id="line2d_7">
      <g>
       <use style="stroke:#000000;stroke-width:0.8;" x="317.628381" xlink:href="#m66ba93e825" y="307.584"/>
      </g>
     </g>
     <g id="text_7">
      <!-- 600 -->
      <defs>
       <path d="M 33.015625 40.375 
Q 26.375 40.375 22.484375 35.828125 
Q 18.609375 31.296875 18.609375 23.390625 
Q 18.609375 15.53125 22.484375 10.953125 
Q 26.375 6.390625 33.015625 6.390625 
Q 39.65625 6.390625 43.53125 10.953125 
Q 47.40625 15.53125 47.40625 23.390625 
Q 47.40625 31.296875 43.53125 35.828125 
Q 39.65625 40.375 33.015625 40.375 
z
M 52.59375 71.296875 
L 52.59375 62.3125 
Q 48.875 64.0625 45.09375 64.984375 
Q 41.3125 65.921875 37.59375 65.921875 
Q 27.828125 65.921875 22.671875 59.328125 
Q 17.53125 52.734375 16.796875 39.40625 
Q 19.671875 43.65625 24.015625 45.921875 
Q 28.375 48.1875 33.59375 48.1875 
Q 44.578125 48.1875 50.953125 41.515625 
Q 57.328125 34.859375 57.328125 23.390625 
Q 57.328125 12.15625 50.6875 5.359375 
Q 44.046875 -1.421875 33.015625 -1.421875 
Q 20.359375 -1.421875 13.671875 8.265625 
Q 6.984375 17.96875 6.984375 36.375 
Q 6.984375 53.65625 15.1875 63.9375 
Q 23.390625 74.21875 37.203125 74.21875 
Q 40.921875 74.21875 44.703125 73.484375 
Q 48.484375 72.75 52.59375 71.296875 
z
" id="DejaVuSans-54"/>
      </defs>
      <g transform="translate(308.084631 322.182437)scale(0.1 -0.1)">
       <use xlink:href="#DejaVuSans-54"/>
       <use x="63.623047" xlink:href="#DejaVuSans-48"/>
       <use x="127.246094" xlink:href="#DejaVuSans-48"/>
      </g>
     </g>
    </g>
    <g id="xtick_8">
     <g id="line2d_8">
      <g>
       <use style="stroke:#000000;stroke-width:0.8;" x="358.26099" xlink:href="#m66ba93e825" y="307.584"/>
      </g>
     </g>
     <g id="text_8">
      <!-- 700 -->
      <defs>
       <path d="M 8.203125 72.90625 
L 55.078125 72.90625 
L 55.078125 68.703125 
L 28.609375 0 
L 18.3125 0 
L 43.21875 64.59375 
L 8.203125 64.59375 
z
" id="DejaVuSans-55"/>
      </defs>
      <g transform="translate(348.71724 322.182437)scale(0.1 -0.1)">
       <use xlink:href="#DejaVuSans-55"/>
       <use x="63.623047" xlink:href="#DejaVuSans-48"/>
       <use x="127.246094" xlink:href="#DejaVuSans-48"/>
      </g>
     </g>
    </g>
    <g id="xtick_9">
     <g id="line2d_9">
      <g>
       <use style="stroke:#000000;stroke-width:0.8;" x="398.893599" xlink:href="#m66ba93e825" y="307.584"/>
      </g>
     </g>
     <g id="text_9">
      <!-- 800 -->
      <defs>
       <path d="M 31.78125 34.625 
Q 24.75 34.625 20.71875 30.859375 
Q 16.703125 27.09375 16.703125 20.515625 
Q 16.703125 13.921875 20.71875 10.15625 
Q 24.75 6.390625 31.78125 6.390625 
Q 38.8125 6.390625 42.859375 10.171875 
Q 46.921875 13.96875 46.921875 20.515625 
Q 46.921875 27.09375 42.890625 30.859375 
Q 38.875 34.625 31.78125 34.625 
z
M 21.921875 38.8125 
Q 15.578125 40.375 12.03125 44.71875 
Q 8.5 49.078125 8.5 55.328125 
Q 8.5 64.0625 14.71875 69.140625 
Q 20.953125 74.21875 31.78125 74.21875 
Q 42.671875 74.21875 48.875 69.140625 
Q 55.078125 64.0625 55.078125 55.328125 
Q 55.078125 49.078125 51.53125 44.71875 
Q 48 40.375 41.703125 38.8125 
Q 48.828125 37.15625 52.796875 32.3125 
Q 56.78125 27.484375 56.78125 20.515625 
Q 56.78125 9.90625 50.3125 4.234375 
Q 43.84375 -1.421875 31.78125 -1.421875 
Q 19.734375 -1.421875 13.25 4.234375 
Q 6.78125 9.90625 6.78125 20.515625 
Q 6.78125 27.484375 10.78125 32.3125 
Q 14.796875 37.15625 21.921875 38.8125 
z
M 18.3125 54.390625 
Q 18.3125 48.734375 21.84375 45.5625 
Q 25.390625 42.390625 31.78125 42.390625 
Q 38.140625 42.390625 41.71875 45.5625 
Q 45.3125 48.734375 45.3125 54.390625 
Q 45.3125 60.0625 41.71875 63.234375 
Q 38.140625 66.40625 31.78125 66.40625 
Q 25.390625 66.40625 21.84375 63.234375 
Q 18.3125 60.0625 18.3125 54.390625 
z
" id="DejaVuSans-56"/>
      </defs>
      <g transform="translate(389.349849 322.182437)scale(0.1 -0.1)">
       <use xlink:href="#DejaVuSans-56"/>
       <use x="63.623047" xlink:href="#DejaVuSans-48"/>
       <use x="127.246094" xlink:href="#DejaVuSans-48"/>
      </g>
     </g>
    </g>
   </g>
   <g id="matplotlib.axis_2">
    <g id="ytick_1">
     <g id="line2d_10">
      <defs>
       <path d="M 0 0 
L -3.5 0 
" id="m3436e6c4e6" style="stroke:#000000;stroke-width:0.8;"/>
      </defs>
      <g>
       <use style="stroke:#000000;stroke-width:0.8;" x="57.6" xlink:href="#m3436e6c4e6" y="295.497844"/>
      </g>
     </g>
     <g id="text_10">
      <!-- 0.0000 -->
      <defs>
       <path d="M 10.6875 12.40625 
L 21 12.40625 
L 21 0 
L 10.6875 0 
z
" id="DejaVuSans-46"/>
      </defs>
      <g transform="translate(15.609375 299.297063)scale(0.1 -0.1)">
       <use xlink:href="#DejaVuSans-48"/>
       <use x="63.623047" xlink:href="#DejaVuSans-46"/>
       <use x="95.410156" xlink:href="#DejaVuSans-48"/>
       <use x="159.033203" xlink:href="#DejaVuSans-48"/>
       <use x="222.65625" xlink:href="#DejaVuSans-48"/>
       <use x="286.279297" xlink:href="#DejaVuSans-48"/>
      </g>
     </g>
    </g>
    <g id="ytick_2">
     <g id="line2d_11">
      <g>
       <use style="stroke:#000000;stroke-width:0.8;" x="57.6" xlink:href="#m3436e6c4e6" y="239.554501"/>
      </g>
     </g>
     <g id="text_11">
      <!-- 0.0005 -->
      <g transform="translate(15.609375 243.35372)scale(0.1 -0.1)">
       <use xlink:href="#DejaVuSans-48"/>
       <use x="63.623047" xlink:href="#DejaVuSans-46"/>
       <use x="95.410156" xlink:href="#DejaVuSans-48"/>
       <use x="159.033203" xlink:href="#DejaVuSans-48"/>
       <use x="222.65625" xlink:href="#DejaVuSans-48"/>
       <use x="286.279297" xlink:href="#DejaVuSans-53"/>
      </g>
     </g>
    </g>
    <g id="ytick_3">
     <g id="line2d_12">
      <g>
       <use style="stroke:#000000;stroke-width:0.8;" x="57.6" xlink:href="#m3436e6c4e6" y="183.611157"/>
      </g>
     </g>
     <g id="text_12">
      <!-- 0.0010 -->
      <g transform="translate(15.609375 187.410376)scale(0.1 -0.1)">
       <use xlink:href="#DejaVuSans-48"/>
       <use x="63.623047" xlink:href="#DejaVuSans-46"/>
       <use x="95.410156" xlink:href="#DejaVuSans-48"/>
       <use x="159.033203" xlink:href="#DejaVuSans-48"/>
       <use x="222.65625" xlink:href="#DejaVuSans-49"/>
       <use x="286.279297" xlink:href="#DejaVuSans-48"/>
      </g>
     </g>
    </g>
    <g id="ytick_4">
     <g id="line2d_13">
      <g>
       <use style="stroke:#000000;stroke-width:0.8;" x="57.6" xlink:href="#m3436e6c4e6" y="127.667814"/>
      </g>
     </g>
     <g id="text_13">
      <!-- 0.0015 -->
      <g transform="translate(15.609375 131.467033)scale(0.1 -0.1)">
       <use xlink:href="#DejaVuSans-48"/>
       <use x="63.623047" xlink:href="#DejaVuSans-46"/>
       <use x="95.410156" xlink:href="#DejaVuSans-48"/>
       <use x="159.033203" xlink:href="#DejaVuSans-48"/>
       <use x="222.65625" xlink:href="#DejaVuSans-49"/>
       <use x="286.279297" xlink:href="#DejaVuSans-53"/>
      </g>
     </g>
    </g>
    <g id="ytick_5">
     <g id="line2d_14">
      <g>
       <use style="stroke:#000000;stroke-width:0.8;" x="57.6" xlink:href="#m3436e6c4e6" y="71.724471"/>
      </g>
     </g>
     <g id="text_14">
      <!-- 0.0020 -->
      <g transform="translate(15.609375 75.523689)scale(0.1 -0.1)">
       <use xlink:href="#DejaVuSans-48"/>
       <use x="63.623047" xlink:href="#DejaVuSans-46"/>
       <use x="95.410156" xlink:href="#DejaVuSans-48"/>
       <use x="159.033203" xlink:href="#DejaVuSans-48"/>
       <use x="222.65625" xlink:href="#DejaVuSans-50"/>
       <use x="286.279297" xlink:href="#DejaVuSans-48"/>
      </g>
     </g>
    </g>
   </g>
   <g id="line2d_15">
    <path clip-path="url(#p60d6bd9968)" d="M 73.832727 206.46336 
L 74.239053 193.542787 
L 74.645379 173.621177 
L 75.051706 180.765095 
L 75.458032 175.5914 
L 75.864358 182.173016 
L 76.270684 165.804901 
L 76.67701 179.280643 
L 77.083336 172.99535 
L 77.489662 180.823469 
L 77.895988 166.613741 
L 78.302314 170.097684 
L 78.70864 169.470317 
L 79.114966 180.47031 
L 79.521293 184.498642 
L 79.927619 184.974443 
L 80.333945 188.733128 
L 80.740271 189.862879 
L 81.146597 176.706943 
L 81.552923 183.236936 
L 81.959249 175.360541 
L 82.365575 189.676881 
L 82.771901 193.694195 
L 83.178227 190.526351 
L 83.584553 191.722636 
L 83.99088 183.98467 
L 84.397206 183.824916 
L 85.209858 187.116298 
L 85.616184 184.379374 
L 86.02251 190.528342 
L 86.428836 185.182185 
L 86.835162 194.587349 
L 87.241488 182.519015 
L 87.647814 187.401073 
L 88.05414 188.263092 
L 88.460466 192.239203 
L 88.866793 192.517961 
L 89.273119 197.191606 
L 89.679445 193.410042 
L 90.085771 198.165555 
L 90.492097 199.320099 
L 90.898423 195.846098 
L 91.304749 194.221492 
L 91.711075 189.423821 
L 92.117401 196.618727 
L 92.523727 198.226466 
L 92.930053 189.508562 
L 93.33638 192.362136 
L 93.742706 196.991794 
L 94.149032 193.130475 
L 94.555358 207.344765 
L 94.961684 207.969323 
L 95.36801 209.330735 
L 95.774336 202.405366 
L 96.180662 207.25577 
L 96.586988 203.445975 
L 96.993314 190.656829 
L 97.39964 201.012229 
L 97.805967 193.243197 
L 98.212293 196.400784 
L 98.618619 202.418649 
L 99.024945 200.360278 
L 99.431271 199.953816 
L 99.837597 198.530594 
L 100.243923 179.443993 
L 100.650249 178.3358 
L 101.056575 194.116651 
L 101.462901 171.803084 
L 101.869227 168.132212 
L 102.275554 170.48217 
L 102.68188 171.372757 
L 103.088206 197.281498 
L 103.494532 208.071174 
L 103.900858 211.216246 
L 104.307184 211.123707 
L 104.71351 210.373527 
L 105.119836 203.933621 
L 105.526162 206.694824 
L 105.932488 201.034245 
L 106.338814 206.968424 
L 107.151467 195.056986 
L 107.557793 192.606618 
L 107.964119 196.239115 
L 108.370445 191.76972 
L 108.776771 200.525064 
L 109.183097 202.519984 
L 109.589423 206.676314 
L 109.995749 201.923611 
L 110.402075 207.417963 
L 110.808401 206.817817 
L 111.214728 205.393886 
L 111.621054 205.813143 
L 112.433706 201.235901 
L 112.840032 210.272419 
L 113.246358 209.66668 
L 113.652684 193.075867 
L 114.05901 188.280006 
L 114.465336 187.851491 
L 115.277988 189.683807 
L 115.684314 204.763816 
L 116.090641 195.897699 
L 116.496967 192.751803 
L 117.715945 189.162957 
L 118.528597 210.862571 
L 118.934923 207.478704 
L 119.341249 206.392885 
L 119.747575 206.043306 
L 120.153901 193.203038 
L 120.560228 196.964468 
L 120.966554 212.691653 
L 121.37288 212.209251 
L 121.779206 202.337626 
L 122.185532 215.004667 
L 122.591858 216.197024 
L 122.998184 219.615058 
L 123.40451 219.593013 
L 123.810836 216.423395 
L 124.217162 219.530714 
L 124.623488 219.42891 
L 125.436141 216.16183 
L 125.842467 215.432926 
L 126.248793 221.44554 
L 126.655119 202.953188 
L 127.061445 205.903123 
L 127.467771 216.710243 
L 127.874097 221.835622 
L 128.280423 215.783969 
L 128.686749 215.977122 
L 129.093075 213.456621 
L 129.499402 213.721974 
L 129.905728 204.090589 
L 130.312054 210.64099 
L 130.71838 210.419506 
L 131.124706 202.002219 
L 131.531032 216.012431 
L 131.937358 208.995983 
L 132.343684 211.218886 
L 132.75001 210.391926 
L 133.156336 215.375203 
L 133.562662 205.209202 
L 133.968989 208.158129 
L 134.375315 212.417367 
L 134.781641 204.045724 
L 135.187967 216.495393 
L 135.594293 220.326703 
L 136.000619 220.526363 
L 136.406945 216.080212 
L 136.813271 220.597641 
L 137.219597 218.81691 
L 138.032249 210.995894 
L 138.438575 208.686864 
L 138.844902 216.823283 
L 139.251228 216.505027 
L 139.657554 224.061565 
L 140.06388 223.829454 
L 140.470206 210.284581 
L 140.876532 219.325274 
L 141.282858 239.416803 
L 141.689184 237.484616 
L 142.09551 225.092454 
L 142.501836 225.905569 
L 143.314489 216.576104 
L 143.720815 218.367923 
L 144.127141 211.292083 
L 144.533467 209.1239 
L 144.939793 216.852919 
L 145.346119 219.256606 
L 145.752445 216.949314 
L 146.158771 218.733598 
L 146.565097 221.252934 
L 146.971423 217.908472 
L 147.377749 221.269814 
L 147.784076 221.155677 
L 148.190402 217.510867 
L 148.596728 215.053148 
L 149.003054 205.98492 
L 149.40938 214.002908 
L 149.815706 215.881086 
L 150.222032 214.246378 
L 150.628358 208.547479 
L 151.034684 213.520852 
L 151.44101 208.794576 
L 151.847336 217.550988 
L 152.253663 210.486696 
L 152.659989 216.684847 
L 153.066315 193.009679 
L 153.472641 187.366335 
L 153.878967 204.422917 
L 154.285293 206.455656 
L 154.691619 198.160965 
L 155.097945 195.807411 
L 155.504271 199.240081 
L 156.316923 216.023634 
L 156.72325 216.119139 
L 157.129576 204.266518 
L 157.535902 209.10279 
L 157.942228 209.828264 
L 158.348554 202.51966 
L 158.75488 199.80833 
L 159.567532 214.750411 
L 159.973858 217.186635 
L 160.380184 206.725749 
L 160.78651 214.371257 
L 161.192837 189.727583 
L 161.599163 207.246251 
L 162.005489 201.526499 
L 162.411815 208.623054 
L 162.818141 208.945323 
L 163.224467 209.019159 
L 163.630793 208.756959 
L 164.037119 217.361935 
L 164.443445 197.761934 
L 164.849771 214.37636 
L 165.256097 211.072417 
L 165.662423 202.829481 
L 166.06875 211.672191 
L 166.475076 205.80937 
L 166.881402 213.039536 
L 167.287728 212.907765 
L 167.694054 201.687569 
L 168.10038 210.396763 
L 168.506706 215.024297 
L 168.913032 204.049721 
L 169.319358 207.683473 
L 169.725684 208.685178 
L 170.13201 210.448793 
L 170.538337 210.621204 
L 170.944663 209.511531 
L 171.350989 210.49251 
L 171.757315 212.510604 
L 172.163641 208.525187 
L 172.569967 213.32465 
L 172.976293 215.050624 
L 173.382619 204.738944 
L 173.788945 205.106582 
L 174.195271 203.448905 
L 174.601597 160.373444 
L 175.007924 201.981839 
L 175.41425 207.29103 
L 175.820576 211.141811 
L 176.226902 208.834804 
L 176.633228 222.335835 
L 177.039554 218.346179 
L 177.44588 218.970087 
L 177.852206 211.767305 
L 178.258532 211.064168 
L 178.664858 208.508062 
L 179.071184 208.938755 
L 179.477511 201.207322 
L 179.883837 208.631382 
L 180.290163 208.985559 
L 180.696489 197.926151 
L 181.102815 198.929919 
L 181.509141 204.105983 
L 181.915467 211.544143 
L 182.728119 213.957879 
L 183.134445 210.999415 
L 183.540771 214.638303 
L 183.947098 212.622084 
L 184.353424 212.004817 
L 184.75975 212.295133 
L 185.166076 214.945312 
L 185.572402 211.172168 
L 185.978728 203.774866 
L 186.385054 201.313526 
L 186.79138 196.197195 
L 187.197706 196.018482 
L 187.604032 194.588107 
L 188.010358 215.676609 
L 188.416684 199.83861 
L 188.823011 210.091184 
L 189.229337 196.510275 
L 189.635663 209.299603 
L 190.448315 204.971792 
L 190.854641 210.816184 
L 191.260967 197.754799 
L 191.667293 207.000118 
L 192.073619 197.363672 
L 192.479945 214.340837 
L 192.886271 201.454212 
L 193.292598 210.641315 
L 193.698924 212.998773 
L 194.10525 213.802182 
L 194.511576 214.032996 
L 194.917902 213.377768 
L 195.324228 214.784778 
L 195.730554 214.005322 
L 196.543206 209.306368 
L 196.949532 209.114449 
L 197.355858 208.467429 
L 197.762185 208.279628 
L 198.574837 207.199658 
L 198.981163 208.837158 
L 199.387489 206.182136 
L 200.200141 208.337393 
L 200.606467 207.890999 
L 201.012793 197.808196 
L 201.419119 196.965386 
L 201.825445 208.654484 
L 202.231772 204.02925 
L 202.638098 203.122883 
L 203.044424 211.046679 
L 203.45075 189.213857 
L 203.857076 183.486779 
L 204.263402 189.320208 
L 204.669728 184.628555 
L 205.076054 195.47546 
L 205.48238 217.829242 
L 205.888706 209.890401 
L 206.295032 210.146185 
L 206.701359 207.694069 
L 207.107685 210.931275 
L 207.514011 211.962091 
L 207.920337 213.685711 
L 208.326663 209.822909 
L 208.732989 207.502175 
L 209.139315 209.804785 
L 209.545641 205.354256 
L 209.951967 208.134764 
L 210.358293 206.558431 
L 210.764619 203.387257 
L 211.170946 203.161229 
L 211.577272 204.035594 
L 211.983598 205.830004 
L 212.389924 205.385331 
L 212.79625 199.914684 
L 213.202576 200.027959 
L 213.608902 199.589417 
L 214.421554 206.348758 
L 214.82788 203.423262 
L 215.234206 202.843842 
L 215.640532 199.960988 
L 216.046859 203.500264 
L 216.453185 202.614292 
L 216.859511 204.982686 
L 217.265837 203.800689 
L 217.672163 199.271388 
L 218.078489 200.435875 
L 218.484815 204.821949 
L 218.891141 205.540871 
L 219.297467 213.666503 
L 219.703793 192.329122 
L 220.110119 191.986874 
L 220.516446 196.036622 
L 220.922772 195.760091 
L 221.329098 199.03703 
L 221.735424 194.95385 
L 222.548076 193.462519 
L 222.954402 197.336477 
L 223.767054 214.85068 
L 224.17338 185.132018 
L 224.579706 202.739276 
L 224.986033 210.582083 
L 225.392359 193.059256 
L 225.798685 198.625924 
L 226.611337 185.912884 
L 227.017663 203.224971 
L 227.423989 202.40384 
L 227.830315 184.828907 
L 228.236641 200.85942 
L 228.642967 221.574094 
L 229.049293 212.424175 
L 229.45562 206.26618 
L 229.861946 202.737417 
L 230.268272 194.442583 
L 230.674598 195.765287 
L 231.080924 197.506176 
L 231.48725 190.428976 
L 231.893576 199.1368 
L 232.299902 200.995301 
L 232.706228 203.95299 
L 233.112554 195.936583 
L 233.51888 193.554858 
L 233.925207 196.997602 
L 234.331533 208.242096 
L 234.737859 204.607714 
L 235.144185 203.78029 
L 235.550511 204.950925 
L 235.956837 205.583655 
L 236.363163 206.735402 
L 236.769489 206.286382 
L 237.175815 206.251408 
L 237.582141 198.456415 
L 237.988467 196.982907 
L 238.394793 205.430539 
L 238.80112 196.392454 
L 239.207446 194.453442 
L 239.613772 204.11839 
L 240.020098 198.090302 
L 240.426424 203.347601 
L 240.83275 197.24353 
L 241.239076 199.782376 
L 241.645402 198.88397 
L 242.051728 200.480744 
L 242.458054 205.856722 
L 242.86438 205.954269 
L 243.270707 201.555898 
L 243.677033 202.553832 
L 244.083359 200.336301 
L 244.489685 196.773287 
L 244.896011 195.577415 
L 245.302337 194.971374 
L 245.708663 195.317976 
L 246.114989 199.256817 
L 246.521315 200.519063 
L 246.927641 201.183267 
L 247.333967 200.324236 
L 247.740294 204.970509 
L 248.14662 202.933144 
L 248.959272 214.241402 
L 249.771924 203.512256 
L 250.17825 201.109108 
L 250.584576 201.577204 
L 250.990902 202.841212 
L 251.397228 208.776171 
L 251.803554 204.219366 
L 252.209881 206.440816 
L 252.616207 205.254626 
L 253.022533 204.4514 
L 253.835185 203.525306 
L 254.241511 203.491239 
L 254.647837 204.28351 
L 255.054163 203.957222 
L 255.460489 193.567008 
L 255.866815 201.670458 
L 256.273141 204.684258 
L 256.679468 200.718062 
L 257.085794 199.571193 
L 257.49212 204.882106 
L 257.898446 199.660106 
L 258.304772 197.748524 
L 258.711098 197.242978 
L 259.117424 197.180113 
L 259.52375 203.970924 
L 259.930076 218.622801 
L 260.336402 216.791747 
L 260.742728 219.033086 
L 261.149054 218.944969 
L 261.555381 198.244861 
L 261.961707 205.914243 
L 262.368033 207.324567 
L 262.774359 196.013383 
L 263.180685 200.11748 
L 263.587011 208.010103 
L 263.993337 209.210216 
L 264.805989 199.768612 
L 265.212315 202.294953 
L 265.618641 198.315361 
L 266.024968 199.668967 
L 266.431294 204.62409 
L 266.83762 200.377395 
L 267.243946 205.052407 
L 267.650272 207.183024 
L 268.056598 198.619865 
L 268.462924 206.785201 
L 268.86925 208.916986 
L 269.275576 205.053284 
L 269.681902 205.045807 
L 270.088228 199.941648 
L 270.494555 199.728456 
L 270.900881 207.171605 
L 271.307207 196.713187 
L 271.713533 199.572987 
L 272.119859 204.267912 
L 272.526185 203.614431 
L 272.932511 211.883951 
L 273.338837 212.393473 
L 273.745163 211.31576 
L 274.151489 201.043682 
L 274.964142 205.363282 
L 275.370468 206.208288 
L 275.776794 183.999477 
L 276.18312 204.143252 
L 276.589446 201.503723 
L 276.995772 201.929317 
L 277.402098 202.071098 
L 277.808424 196.563576 
L 278.21475 202.003035 
L 278.621076 203.69686 
L 279.027402 207.211084 
L 279.433729 204.089938 
L 279.840055 203.800443 
L 280.652707 195.899554 
L 281.059033 198.182751 
L 281.465359 201.367375 
L 281.871685 203.666626 
L 282.278011 207.131098 
L 282.684337 203.441746 
L 283.090663 203.708513 
L 283.496989 200.587961 
L 283.903316 196.262533 
L 284.309642 205.941854 
L 284.715968 155.451924 
L 285.52862 202.557996 
L 285.934946 209.732381 
L 286.341272 208.576961 
L 286.747598 204.710533 
L 287.153924 209.286395 
L 287.56025 205.446206 
L 287.966576 204.857707 
L 288.372902 213.660468 
L 288.779229 207.547496 
L 289.185555 205.92829 
L 289.591881 205.430357 
L 289.998207 205.569076 
L 290.404533 203.351383 
L 290.810859 98.279714 
L 291.217185 135.46026 
L 291.623511 189.451954 
L 292.029837 202.788834 
L 292.842489 205.079278 
L 293.248816 205.383788 
L 293.655142 206.503879 
L 294.061468 213.430298 
L 294.467794 211.575353 
L 294.87412 194.255122 
L 295.280446 194.054057 
L 295.686772 203.642993 
L 296.093098 206.926769 
L 296.499424 204.035084 
L 297.312076 218.67799 
L 297.718403 205.932393 
L 298.124729 209.280819 
L 298.531055 199.705081 
L 298.937381 208.651704 
L 299.343707 199.789439 
L 299.750033 214.112393 
L 300.156359 208.911761 
L 300.562685 208.883928 
L 300.969011 208.522835 
L 301.375337 209.029401 
L 301.781663 212.383224 
L 302.18799 207.409515 
L 302.594316 205.410122 
L 303.000642 205.441222 
L 303.406968 193.073934 
L 304.21962 206.042958 
L 304.625946 205.735607 
L 305.032272 205.058779 
L 305.438598 205.290792 
L 306.25125 203.62648 
L 306.657577 206.878643 
L 307.063903 197.485596 
L 307.470229 205.968476 
L 307.876555 200.991984 
L 308.282881 202.975761 
L 308.689207 185.474141 
L 309.095533 186.027153 
L 309.501859 201.257868 
L 309.908185 200.081481 
L 310.314511 134.26231 
L 310.720837 153.920972 
L 311.127163 193.805053 
L 311.939816 208.662512 
L 312.346142 207.727559 
L 312.752468 195.053449 
L 313.158794 203.433119 
L 313.56512 205.23704 
L 313.971446 206.061807 
L 314.377772 203.864793 
L 314.784098 198.016543 
L 315.190424 205.773962 
L 315.59675 209.31151 
L 316.003077 206.04242 
L 316.409403 205.7744 
L 316.815729 205.027426 
L 317.222055 205.139492 
L 317.628381 204.267458 
L 318.034707 203.852546 
L 318.441033 195.784859 
L 318.847359 200.390397 
L 319.253685 198.117401 
L 319.660011 194.33514 
L 320.066337 197.997001 
L 320.472664 196.927584 
L 320.87899 203.636381 
L 321.285316 197.570257 
L 321.691642 203.509702 
L 322.097968 201.202904 
L 322.504294 206.473845 
L 322.91062 209.499852 
L 323.316946 202.531669 
L 324.129598 205.357945 
L 324.942251 210.076675 
L 325.754903 203.686692 
L 326.161229 207.948398 
L 326.567555 206.109342 
L 326.973881 202.873633 
L 327.380207 193.367214 
L 327.786533 191.086827 
L 328.192859 197.295512 
L 328.599185 200.763762 
L 329.005511 186.436806 
L 329.411838 195.120437 
L 329.818164 181.068068 
L 330.22449 195.416537 
L 330.630816 83.850053 
L 331.037142 53.568 
L 331.443468 116.630927 
L 331.849794 127.247378 
L 332.25612 118.522701 
L 332.662446 175.933266 
L 333.068772 196.775002 
L 333.475098 192.006981 
L 333.881425 86.281442 
L 334.287751 144.566628 
L 334.694077 174.258456 
L 335.100403 194.812933 
L 335.506729 185.722392 
L 335.913055 208.426693 
L 336.319381 209.441716 
L 336.725707 216.730878 
L 337.132033 210.164802 
L 337.538359 190.934281 
L 337.944685 209.027441 
L 338.351011 203.752707 
L 338.757338 200.653806 
L 339.163664 201.215951 
L 339.56999 205.130145 
L 339.976316 210.866883 
L 340.382642 211.600813 
L 340.788968 214.359003 
L 341.195294 213.692693 
L 341.60162 205.234236 
L 342.007946 207.887424 
L 342.820598 217.847324 
L 343.226925 208.178219 
L 343.633251 218.695405 
L 344.039577 220.665453 
L 344.445903 205.282848 
L 344.852229 204.644899 
L 345.258555 205.071965 
L 345.664881 202.248725 
L 346.071207 213.011392 
L 346.477533 197.322191 
L 346.883859 214.945 
L 347.290185 220.938104 
L 347.696512 199.462744 
L 348.509164 203.046827 
L 348.91549 215.370345 
L 349.321816 220.031172 
L 349.728142 222.15072 
L 350.134468 218.556357 
L 350.540794 222.067559 
L 350.94712 213.535944 
L 351.353446 196.369783 
L 351.759772 205.611677 
L 352.166099 209.962596 
L 352.572425 218.301858 
L 352.978751 218.558589 
L 353.385077 223.908621 
L 353.791403 210.857501 
L 354.197729 209.838936 
L 354.604055 202.97902 
L 355.010381 213.202425 
L 355.416707 212.003121 
L 355.823033 218.205024 
L 356.229359 219.012601 
L 356.635686 218.995586 
L 357.042012 219.36827 
L 357.448338 214.612635 
L 357.854664 211.274777 
L 358.667316 216.475783 
L 359.073642 219.921728 
L 359.479968 213.914466 
L 359.886294 196.46915 
L 360.29262 192.059867 
L 360.698946 191.724827 
L 361.105272 201.341631 
L 361.511599 202.583834 
L 361.917925 213.667357 
L 362.324251 213.234855 
L 362.730577 183.644234 
L 363.136903 173.348557 
L 363.543229 195.999076 
L 363.949555 225.217192 
L 364.762207 216.026564 
L 365.168533 213.989286 
L 365.574859 216.578476 
L 365.981186 216.110599 
L 366.387512 214.593963 
L 366.793838 215.936205 
L 367.200164 221.760419 
L 367.60649 214.247053 
L 368.419142 232.354346 
L 368.825468 226.095597 
L 369.231794 227.97723 
L 370.450773 222.807455 
L 370.857099 216.043624 
L 371.263425 212.483807 
L 371.669751 206.211169 
L 372.076077 210.690419 
L 372.482403 206.880149 
L 372.888729 198.73419 
L 373.295055 197.346713 
L 373.701381 205.626093 
L 374.514033 215.432788 
L 374.92036 210.51779 
L 375.326686 200.575074 
L 375.733012 202.767379 
L 376.139338 203.741591 
L 376.545664 187.725571 
L 376.95199 203.070198 
L 377.358316 197.301138 
L 378.170968 180.349629 
L 378.577294 200.261083 
L 378.98362 202.274343 
L 379.389947 207.76327 
L 379.796273 206.639713 
L 380.202599 195.734459 
L 380.608925 193.187327 
L 381.015251 194.860318 
L 381.421577 186.116458 
L 381.827903 212.173774 
L 382.234229 210.243193 
L 382.640555 209.685617 
L 383.859534 197.821882 
L 384.26586 200.401033 
L 384.672186 193.390303 
L 385.078512 210.580392 
L 385.484838 197.90074 
L 385.891164 210.377414 
L 386.29749 215.397105 
L 386.703816 217.110623 
L 387.110142 208.657377 
L 387.516468 197.483226 
L 387.922794 193.594258 
L 388.32912 210.402272 
L 388.735447 202.992643 
L 389.141773 185.746245 
L 389.548099 92.306242 
L 389.954425 79.752137 
L 390.767077 173.403663 
L 391.173403 190.392503 
L 391.579729 164.635268 
L 392.392381 200.581739 
L 392.798707 205.60892 
L 393.205034 214.163358 
L 393.61136 214.542971 
L 394.017686 205.304922 
L 394.424012 202.422212 
L 394.830338 205.875638 
L 395.236664 206.711583 
L 395.64299 209.037689 
L 396.049316 205.633286 
L 396.455642 190.365042 
L 396.861968 198.406768 
L 397.268294 129.136247 
L 397.674621 182.883678 
L 398.080947 185.544233 
L 398.487273 202.568651 
L 398.487273 202.568651 
" style="fill:none;stroke:#1f77b4;stroke-linecap:square;stroke-width:1.5;"/>
   </g>
   <g id="line2d_16">
    <path clip-path="url(#p60d6bd9968)" d="M 73.832727 294.221598 
L 74.239053 294.35584 
L 74.645379 292.832718 
L 75.051706 294.409003 
L 75.458032 293.893178 
L 75.864358 294.651271 
L 76.270684 293.610908 
L 76.67701 295.438615 
L 77.083336 294.428196 
L 77.489662 295.134612 
L 77.895988 294.386794 
L 78.70864 295.2859 
L 79.114966 294.240911 
L 79.521293 295.162762 
L 79.927619 295.091741 
L 81.146597 295.365417 
L 81.552923 294.077366 
L 81.959249 295.269195 
L 82.771901 294.992301 
L 83.178227 294.946692 
L 83.584553 294.609563 
L 83.99088 294.443199 
L 84.397206 294.474957 
L 84.803532 294.153285 
L 85.209858 294.88081 
L 85.616184 295.329863 
L 86.02251 295.04129 
L 86.428836 295.397625 
L 86.835162 294.887336 
L 87.241488 295.313901 
L 88.05414 295.399509 
L 89.273119 295.310419 
L 89.679445 294.46865 
L 90.085771 292.7338 
L 90.492097 294.451155 
L 90.898423 294.731275 
L 91.304749 295.401171 
L 91.711075 295.24569 
L 92.117401 293.796867 
L 92.930053 293.772586 
L 93.33638 292.549856 
L 93.742706 293.175026 
L 94.149032 294.245794 
L 94.555358 293.041672 
L 94.961684 293.654221 
L 95.36801 295.029845 
L 95.774336 294.677228 
L 96.180662 290.334701 
L 96.586988 293.396502 
L 96.993314 294.918777 
L 97.39964 293.969726 
L 97.805967 294.924259 
L 98.212293 294.721144 
L 98.618619 295.092885 
L 99.024945 294.686573 
L 99.431271 294.457768 
L 99.837597 294.918926 
L 100.243923 294.417159 
L 100.650249 295.018635 
L 101.056575 295.118592 
L 101.462901 292.98911 
L 101.869227 294.166913 
L 102.275554 294.85795 
L 102.68188 295.260699 
L 103.088206 294.73114 
L 103.494532 293.831084 
L 103.900858 294.94282 
L 104.307184 294.801531 
L 104.71351 295.327413 
L 105.119836 294.559786 
L 105.526162 293.205027 
L 105.932488 292.797632 
L 106.745141 295.19672 
L 107.151467 294.577389 
L 107.557793 294.806079 
L 107.964119 294.197857 
L 108.370445 294.649323 
L 108.776771 294.676365 
L 109.183097 295.038813 
L 109.589423 295.035618 
L 109.995749 295.27398 
L 110.402075 294.598542 
L 110.808401 294.642705 
L 111.214728 294.951742 
L 111.621054 294.191277 
L 112.02738 294.576068 
L 112.433706 294.105625 
L 112.840032 293.873559 
L 113.246358 293.479495 
L 113.652684 293.395738 
L 114.05901 292.58892 
L 114.465336 293.693229 
L 114.871662 289.604219 
L 115.277988 293.423224 
L 115.684314 294.960923 
L 116.090641 294.686323 
L 116.496967 294.953118 
L 116.903293 291.302559 
L 117.309619 293.618686 
L 117.715945 293.926217 
L 118.122271 291.477346 
L 118.528597 292.760992 
L 118.934923 294.788171 
L 119.341249 292.774215 
L 119.747575 294.192885 
L 120.153901 294.324155 
L 120.560228 294.676674 
L 120.966554 293.946337 
L 121.37288 294.117024 
L 121.779206 294.127544 
L 122.185532 292.819046 
L 122.591858 292.679115 
L 122.998184 294.213145 
L 123.40451 294.607838 
L 123.810836 294.199416 
L 124.623488 294.306583 
L 125.029815 294.672019 
L 125.436141 292.392277 
L 125.842467 294.119064 
L 126.248793 293.213421 
L 126.655119 294.229257 
L 127.061445 291.948396 
L 127.467771 290.972016 
L 127.874097 290.766636 
L 128.280423 291.009317 
L 129.093075 294.402606 
L 129.499402 294.321591 
L 129.905728 293.186809 
L 130.312054 294.531488 
L 130.71838 294.419519 
L 131.124706 294.612094 
L 131.531032 293.865495 
L 131.937358 293.857633 
L 132.343684 294.881549 
L 132.75001 290.824255 
L 133.562662 294.68241 
L 133.968989 293.459913 
L 134.375315 295.050884 
L 134.781641 294.666383 
L 135.187967 294.025695 
L 135.594293 294.609835 
L 136.000619 294.795211 
L 136.406945 290.396986 
L 136.813271 294.724379 
L 137.219597 294.626615 
L 137.625923 292.336725 
L 138.032249 293.938526 
L 138.438575 293.081955 
L 138.844902 294.967428 
L 139.251228 292.868385 
L 139.657554 294.052708 
L 140.06388 293.762718 
L 140.470206 294.123796 
L 140.876532 293.234914 
L 141.282858 291.60994 
L 141.689184 292.505525 
L 142.09551 292.371813 
L 142.501836 292.64316 
L 142.908162 294.403877 
L 143.314489 291.233306 
L 143.720815 291.402659 
L 144.127141 291.373453 
L 144.533467 289.033485 
L 144.939793 291.089818 
L 145.346119 292.466472 
L 145.752445 293.348354 
L 146.565097 293.232752 
L 146.971423 292.449254 
L 147.377749 294.08309 
L 147.784076 295.2102 
L 148.596728 292.70529 
L 149.003054 295.133135 
L 149.40938 292.643863 
L 149.815706 294.974966 
L 150.222032 293.887575 
L 150.628358 294.076582 
L 151.034684 293.97604 
L 151.847336 293.622643 
L 152.253663 294.360254 
L 152.659989 295.342203 
L 153.066315 292.889534 
L 153.472641 294.506027 
L 153.878967 294.589961 
L 154.285293 293.3881 
L 154.691619 295.074534 
L 155.097945 294.755628 
L 155.504271 294.118398 
L 155.910597 294.623902 
L 156.316923 294.887031 
L 156.72325 293.607245 
L 157.129576 293.544895 
L 157.535902 294.926276 
L 157.942228 294.916354 
L 158.348554 295.18393 
L 158.75488 295.153425 
L 159.161206 294.9881 
L 159.567532 295.121477 
L 159.973858 294.790649 
L 160.380184 294.750561 
L 160.78651 295.353806 
L 161.192837 294.320735 
L 161.599163 294.382012 
L 162.005489 294.884476 
L 162.411815 294.594427 
L 162.818141 295.03496 
L 163.224467 293.805148 
L 163.630793 293.190282 
L 164.037119 295.142422 
L 164.443445 295.333281 
L 165.256097 294.803871 
L 166.475076 294.864519 
L 166.881402 294.501615 
L 167.287728 294.309525 
L 167.694054 295.359068 
L 168.10038 295.314061 
L 168.506706 294.380521 
L 168.913032 294.471466 
L 169.319358 294.849302 
L 170.13201 294.93165 
L 170.944663 294.91738 
L 171.350989 295.156533 
L 172.976293 295.105316 
L 173.382619 294.768011 
L 173.788945 294.794206 
L 174.195271 295.404322 
L 174.601597 294.481523 
L 175.007924 294.495373 
L 175.41425 295.264437 
L 175.820576 295.380177 
L 176.226902 295.255491 
L 176.633228 295.386904 
L 177.039554 295.017611 
L 177.44588 295.308795 
L 177.852206 295.292818 
L 178.258532 295.396215 
L 178.664858 295.250424 
L 179.071184 295.386688 
L 179.477511 294.491308 
L 179.883837 294.436604 
L 180.290163 295.054036 
L 180.696489 294.178132 
L 181.102815 294.025829 
L 181.509141 294.997599 
L 181.915467 295.027379 
L 182.321793 294.824282 
L 182.728119 295.206614 
L 183.134445 294.93451 
L 183.540771 295.432923 
L 183.947098 294.069176 
L 184.353424 295.157003 
L 184.75975 295.415258 
L 185.166076 294.896933 
L 186.385054 294.712891 
L 186.79138 294.950234 
L 187.197706 295.023169 
L 187.604032 294.645227 
L 188.010358 294.94574 
L 188.416684 294.787342 
L 188.823011 294.888799 
L 189.229337 295.303517 
L 189.635663 295.02446 
L 190.041989 294.044131 
L 190.854641 294.208685 
L 191.260967 294.879708 
L 191.667293 293.899638 
L 192.073619 294.670965 
L 192.479945 294.057663 
L 192.886271 293.696565 
L 193.292598 294.624934 
L 193.698924 295.003653 
L 194.10525 295.199777 
L 194.917902 295.286379 
L 195.324228 294.353194 
L 195.730554 294.524214 
L 196.13688 290.286201 
L 196.543206 294.730096 
L 196.949532 294.840969 
L 197.355858 295.37058 
L 197.762185 294.222701 
L 198.168511 292.303531 
L 198.574837 293.109919 
L 198.981163 295.321335 
L 199.387489 294.460266 
L 199.793815 295.379465 
L 200.200141 295.319326 
L 200.606467 293.948075 
L 201.012793 293.816263 
L 201.419119 294.057514 
L 201.825445 294.969952 
L 202.231772 295.379468 
L 202.638098 294.736335 
L 203.044424 294.891479 
L 203.45075 294.17344 
L 203.857076 294.886579 
L 204.263402 294.258678 
L 204.669728 295.395433 
L 205.076054 292.505841 
L 205.48238 295.396762 
L 205.888706 294.164874 
L 206.295032 294.713534 
L 206.701359 294.872902 
L 207.107685 294.476054 
L 207.514011 295.351498 
L 207.920337 295.287846 
L 208.326663 294.171562 
L 208.732989 289.247988 
L 209.139315 292.904356 
L 209.545641 295.009656 
L 209.951967 294.93628 
L 210.764619 295.411075 
L 211.170946 294.860806 
L 211.577272 294.665104 
L 211.983598 291.302706 
L 212.389924 294.089383 
L 212.79625 295.407904 
L 213.202576 295.287069 
L 214.015228 292.620025 
L 214.421554 295.173153 
L 214.82788 295.300086 
L 215.234206 295.130106 
L 215.640532 293.944437 
L 216.046859 294.865895 
L 216.453185 294.894811 
L 216.859511 295.041684 
L 217.265837 295.353786 
L 218.078489 294.863201 
L 218.484815 292.307891 
L 218.891141 292.449814 
L 219.297467 293.625072 
L 219.703793 295.345544 
L 220.110119 295.443478 
L 220.516446 294.373996 
L 220.922772 294.922581 
L 221.329098 295.039208 
L 221.735424 295.302727 
L 222.14175 293.208632 
L 222.548076 293.803585 
L 222.954402 293.969069 
L 223.360728 295.408752 
L 223.767054 295.008 
L 224.17338 294.070681 
L 224.579706 295.021449 
L 224.986033 295.090158 
L 225.392359 295.035379 
L 225.798685 294.606709 
L 226.205011 294.619171 
L 226.611337 292.580705 
L 227.017663 294.443863 
L 227.423989 295.32232 
L 227.830315 295.346183 
L 228.236641 293.262512 
L 228.642967 292.745505 
L 229.049293 293.90684 
L 229.45562 291.507982 
L 229.861946 294.296959 
L 230.268272 294.891995 
L 230.674598 294.52186 
L 231.080924 295.336303 
L 231.48725 294.977001 
L 231.893576 295.393804 
L 232.299902 294.737336 
L 232.706228 294.658738 
L 233.112554 295.141591 
L 233.51888 295.382862 
L 233.925207 294.905755 
L 234.331533 293.856673 
L 235.144185 294.259702 
L 235.550511 294.1585 
L 235.956837 295.420011 
L 236.769489 294.113561 
L 237.175815 295.423793 
L 237.988467 294.466148 
L 238.394793 294.582021 
L 238.80112 294.175673 
L 239.207446 295.154679 
L 239.613772 293.923963 
L 240.020098 295.013581 
L 240.426424 295.254659 
L 241.239076 294.984454 
L 241.645402 295.035292 
L 242.051728 294.651877 
L 242.458054 295.201413 
L 242.86438 294.314807 
L 243.270707 295.087431 
L 243.677033 293.817793 
L 244.083359 294.511859 
L 244.489685 293.234278 
L 244.896011 294.000931 
L 245.302337 293.923137 
L 245.708663 293.456257 
L 246.114989 295.217083 
L 246.521315 294.797452 
L 246.927641 295.255703 
L 247.333967 293.958796 
L 247.740294 292.08217 
L 248.14662 293.770819 
L 248.552946 294.116049 
L 248.959272 295.204964 
L 249.365598 295.439167 
L 250.17825 295.293745 
L 250.584576 294.454362 
L 250.990902 295.432157 
L 251.397228 295.045098 
L 252.209881 294.991652 
L 252.616207 295.071729 
L 253.022533 293.942957 
L 253.428859 294.116224 
L 253.835185 295.058026 
L 254.241511 294.529312 
L 254.647837 293.708501 
L 255.054163 294.375758 
L 255.460489 294.599138 
L 255.866815 295.02644 
L 256.273141 294.764567 
L 256.679468 295.420314 
L 257.085794 295.436943 
L 257.49212 293.177794 
L 257.898446 294.57913 
L 258.304772 294.419381 
L 258.711098 292.54961 
L 259.117424 292.581946 
L 259.52375 292.7309 
L 259.930076 292.730748 
L 260.336402 295.046373 
L 260.742728 292.516258 
L 261.555381 295.115195 
L 262.368033 295.120264 
L 262.774359 294.423151 
L 263.180685 295.063952 
L 263.587011 294.6305 
L 263.993337 295.260263 
L 264.399663 293.550799 
L 264.805989 293.243269 
L 265.212315 294.710716 
L 265.618641 295.062322 
L 266.024968 295.252673 
L 266.83762 294.617737 
L 267.243946 295.37121 
L 267.650272 294.94135 
L 268.056598 295.105982 
L 268.462924 295.0224 
L 268.86925 295.280598 
L 269.275576 295.076474 
L 269.681902 295.422144 
L 270.088228 292.15917 
L 270.494555 295.352981 
L 270.900881 295.331137 
L 271.307207 295.478353 
L 271.713533 294.443441 
L 272.119859 292.477789 
L 272.526185 295.10927 
L 272.932511 292.26842 
L 273.338837 295.477182 
L 273.745163 295.476844 
L 274.557815 294.135593 
L 274.964142 293.915564 
L 275.776794 293.943843 
L 276.589446 293.896435 
L 276.995772 294.331273 
L 277.402098 294.080851 
L 277.808424 295.303147 
L 278.21475 294.45264 
L 279.027402 295.128925 
L 280.246381 295.097563 
L 280.652707 294.975499 
L 281.059033 293.244174 
L 281.465359 293.705501 
L 281.871685 294.659885 
L 282.278011 294.158532 
L 282.684337 294.093559 
L 283.090663 294.870231 
L 283.496989 294.868654 
L 283.903316 295.345974 
L 284.309642 294.929178 
L 284.715968 294.767454 
L 285.122294 293.824378 
L 285.52862 293.260277 
L 285.934946 294.899732 
L 286.341272 294.149438 
L 287.56025 294.179693 
L 287.966576 295.261176 
L 288.372902 294.213149 
L 288.779229 294.402256 
L 289.185555 294.365052 
L 289.591881 295.087099 
L 289.998207 295.26414 
L 290.404533 294.594902 
L 290.810859 294.905569 
L 291.217185 295.026337 
L 291.623511 294.272418 
L 292.029837 294.066064 
L 292.436163 294.224324 
L 292.842489 292.203511 
L 293.248816 294.940344 
L 293.655142 294.927004 
L 294.061468 294.264709 
L 294.467794 294.287314 
L 294.87412 290.814333 
L 295.280446 295.12298 
L 295.686772 294.486049 
L 296.093098 294.4171 
L 296.499424 295.278244 
L 296.90575 294.652454 
L 297.312076 294.644025 
L 297.718403 294.218164 
L 298.124729 293.564897 
L 298.531055 288.946346 
L 298.937381 292.650093 
L 299.343707 294.612608 
L 299.750033 294.058218 
L 300.156359 293.866293 
L 300.562685 294.028514 
L 300.969011 295.261929 
L 301.375337 295.044093 
L 301.781663 292.550574 
L 302.18799 284.553365 
L 302.594316 292.362584 
L 303.000642 294.20082 
L 303.406968 293.826326 
L 303.813294 294.614497 
L 304.21962 294.965437 
L 304.625946 294.894958 
L 305.032272 294.648637 
L 305.438598 293.777397 
L 305.844924 295.321938 
L 306.25125 292.920984 
L 306.657577 294.697155 
L 307.470229 294.169042 
L 307.876555 295.011758 
L 308.282881 294.807539 
L 308.689207 295.037604 
L 309.095533 294.98369 
L 309.501859 294.700744 
L 310.314511 294.654931 
L 310.720837 295.225196 
L 311.127163 294.58129 
L 311.53349 292.408429 
L 311.939816 294.167214 
L 312.346142 294.889365 
L 313.158794 294.410539 
L 313.56512 293.089976 
L 313.971446 292.993086 
L 314.784098 295.124544 
L 315.59675 295.117041 
L 316.003077 293.807826 
L 316.409403 286.912047 
L 316.815729 294.094101 
L 317.222055 294.957771 
L 317.628381 295.141606 
L 318.034707 292.728294 
L 318.441033 294.397434 
L 318.847359 294.675908 
L 319.253685 295.414944 
L 319.660011 294.191497 
L 320.066337 295.423488 
L 320.472664 295.435774 
L 320.87899 293.266865 
L 321.285316 295.190791 
L 322.097968 294.160652 
L 322.504294 295.409295 
L 322.91062 295.290072 
L 323.316946 294.715132 
L 323.723272 294.779118 
L 324.129598 294.664358 
L 324.535924 293.896883 
L 324.942251 294.368342 
L 325.348577 294.457861 
L 325.754903 295.134679 
L 326.161229 293.606278 
L 326.567555 293.738994 
L 326.973881 295.299317 
L 327.380207 293.007021 
L 327.786533 294.755179 
L 328.192859 295.388713 
L 328.599185 294.115714 
L 329.005511 295.265804 
L 329.411838 293.570201 
L 329.818164 295.073567 
L 330.22449 294.311497 
L 330.630816 295.234068 
L 331.037142 292.853594 
L 331.443468 294.998341 
L 331.849794 294.509242 
L 332.25612 295.432194 
L 332.662446 294.566662 
L 333.475098 294.322517 
L 333.881425 292.516118 
L 334.287751 295.451973 
L 334.694077 293.985199 
L 335.100403 294.75443 
L 335.913055 295.382434 
L 336.319381 295.183137 
L 336.725707 294.111813 
L 337.132033 295.431597 
L 337.538359 293.897462 
L 337.944685 294.929324 
L 338.351011 293.446857 
L 338.757338 293.293317 
L 339.163664 294.764319 
L 339.56999 294.404139 
L 340.382642 295.162879 
L 340.788968 294.467022 
L 341.195294 294.528979 
L 342.007946 294.881198 
L 342.414272 295.488 
L 342.820598 293.431016 
L 343.226925 294.935708 
L 343.633251 295.385066 
L 344.039577 295.016978 
L 344.445903 294.79987 
L 344.852229 295.349273 
L 345.258555 293.672855 
L 345.664881 289.600083 
L 346.071207 295.288418 
L 346.477533 295.252702 
L 346.883859 294.958917 
L 347.696512 294.914291 
L 348.102838 293.434749 
L 348.91549 295.045714 
L 349.321816 294.156895 
L 349.728142 294.482075 
L 350.134468 295.021489 
L 350.540794 295.058305 
L 350.94712 293.737084 
L 351.759772 295.428931 
L 352.166099 293.506487 
L 352.572425 295.12255 
L 352.978751 294.842597 
L 353.385077 293.761729 
L 353.791403 295.016934 
L 354.197729 295.140764 
L 354.604055 293.649166 
L 355.010381 295.304626 
L 355.416707 292.197345 
L 355.823033 294.692581 
L 356.229359 293.845238 
L 356.635686 294.416336 
L 357.042012 295.337495 
L 357.854664 292.633714 
L 358.26099 293.887647 
L 358.667316 294.543376 
L 359.479968 294.988393 
L 359.886294 294.734992 
L 360.698946 294.636833 
L 361.105272 294.26821 
L 361.511599 293.155861 
L 361.917925 294.476914 
L 362.324251 294.350613 
L 362.730577 294.581285 
L 363.136903 295.264096 
L 363.543229 295.212278 
L 363.949555 293.705368 
L 364.355881 292.893576 
L 364.762207 295.400376 
L 365.574859 291.57589 
L 365.981186 294.211729 
L 366.387512 293.580908 
L 366.793838 295.417882 
L 367.200164 294.028487 
L 367.60649 295.460052 
L 368.419142 294.576101 
L 368.825468 294.553886 
L 369.231794 295.189845 
L 369.63812 294.7389 
L 370.044446 294.928482 
L 370.450773 295.353741 
L 370.857099 294.803164 
L 371.263425 295.053525 
L 371.669751 294.902986 
L 372.076077 294.063298 
L 372.482403 293.65875 
L 373.295055 295.29643 
L 374.107707 294.579587 
L 374.514033 294.408976 
L 374.92036 294.674543 
L 375.326686 295.374297 
L 375.733012 294.316875 
L 376.139338 294.022855 
L 376.545664 295.273165 
L 376.95199 293.66347 
L 377.358316 293.829546 
L 378.170968 295.317588 
L 378.577294 294.780445 
L 379.389947 294.82247 
L 379.796273 295.201867 
L 380.202599 294.565159 
L 380.608925 295.163362 
L 381.015251 295.290205 
L 381.421577 294.890317 
L 381.827903 294.276503 
L 382.234229 294.666674 
L 382.640555 294.711285 
L 383.046881 294.564042 
L 383.859534 294.531501 
L 384.26586 294.495451 
L 384.672186 294.745413 
L 385.078512 294.275982 
L 385.484838 295.087393 
L 385.891164 295.266637 
L 386.29749 294.762502 
L 386.703816 295.158444 
L 387.110142 294.513036 
L 387.516468 294.913731 
L 387.922794 294.61946 
L 388.32912 295.312121 
L 388.735447 295.272185 
L 389.141773 293.099383 
L 389.548099 294.719138 
L 389.954425 294.849392 
L 390.360751 293.513016 
L 390.767077 292.948253 
L 391.579729 295.213892 
L 391.986055 295.454045 
L 392.392381 294.875248 
L 392.798707 294.650635 
L 393.205034 294.797622 
L 393.61136 295.422543 
L 394.424012 295.052493 
L 394.830338 294.663093 
L 395.236664 289.890563 
L 395.64299 294.612835 
L 396.049316 294.531899 
L 396.455642 294.100402 
L 396.861968 294.682924 
L 397.268294 292.70202 
L 397.674621 285.564873 
L 398.080947 294.877993 
L 398.487273 295.32025 
L 398.487273 295.32025 
" style="fill:none;stroke:#ff7f0e;stroke-linecap:square;stroke-width:1.5;"/>
   </g>
   <g id="patch_3">
    <path d="M 57.6 307.584 
L 57.6 41.472 
" style="fill:none;stroke:#000000;stroke-linecap:square;stroke-linejoin:miter;stroke-width:0.8;"/>
   </g>
   <g id="patch_4">
    <path d="M 414.72 307.584 
L 414.72 41.472 
" style="fill:none;stroke:#000000;stroke-linecap:square;stroke-linejoin:miter;stroke-width:0.8;"/>
   </g>
   <g id="patch_5">
    <path d="M 57.6 307.584 
L 414.72 307.584 
" style="fill:none;stroke:#000000;stroke-linecap:square;stroke-linejoin:miter;stroke-width:0.8;"/>
   </g>
   <g id="patch_6">
    <path d="M 57.6 41.472 
L 414.72 41.472 
" style="fill:none;stroke:#000000;stroke-linecap:square;stroke-linejoin:miter;stroke-width:0.8;"/>
   </g>
  </g>
 </g>
 <defs>
  <clipPath id="p60d6bd9968">
   <rect height="266.112" width="357.12" x="57.6" y="41.472"/>
  </clipPath>
 </defs>
</svg>
