<?xml version="1.0" encoding="utf-8" standalone="no"?>
<!DOCTYPE svg PUBLIC "-//W3C//DTD SVG 1.1//EN"
  "http://www.w3.org/Graphics/SVG/1.1/DTD/svg11.dtd">
<!-- Created with matplotlib (https://matplotlib.org/) -->
<svg height="345.6pt" version="1.1" viewBox="0 0 460.8 345.6" width="460.8pt" xmlns="http://www.w3.org/2000/svg" xmlns:xlink="http://www.w3.org/1999/xlink">
 <defs>
  <style type="text/css">
*{stroke-linecap:butt;stroke-linejoin:round;}
  </style>
 </defs>
 <g id="figure_1">
  <g id="patch_1">
   <path d="M 0 345.6 
L 460.8 345.6 
L 460.8 0 
L 0 0 
z
" style="fill:#ffffff;"/>
  </g>
  <g id="axes_1">
   <g id="patch_2">
    <path d="M 57.6 307.584 
L 414.72 307.584 
L 414.72 41.472 
L 57.6 41.472 
z
" style="fill:#ffffff;"/>
   </g>
   <g id="matplotlib.axis_1">
    <g id="xtick_1">
     <g id="line2d_1">
      <defs>
       <path d="M 0 0 
L 0 3.5 
" id="m184bd41bde" style="stroke:#000000;stroke-width:0.8;"/>
      </defs>
      <g>
       <use style="stroke:#000000;stroke-width:0.8;" x="73.832727" xlink:href="#m184bd41bde" y="307.584"/>
      </g>
     </g>
     <g id="text_1">
      <!-- 0 -->
      <defs>
       <path d="M 31.78125 66.40625 
Q 24.171875 66.40625 20.328125 58.90625 
Q 16.5 51.421875 16.5 36.375 
Q 16.5 21.390625 20.328125 13.890625 
Q 24.171875 6.390625 31.78125 6.390625 
Q 39.453125 6.390625 43.28125 13.890625 
Q 47.125 21.390625 47.125 36.375 
Q 47.125 51.421875 43.28125 58.90625 
Q 39.453125 66.40625 31.78125 66.40625 
z
M 31.78125 74.21875 
Q 44.046875 74.21875 50.515625 64.515625 
Q 56.984375 54.828125 56.984375 36.375 
Q 56.984375 17.96875 50.515625 8.265625 
Q 44.046875 -1.421875 31.78125 -1.421875 
Q 19.53125 -1.421875 13.0625 8.265625 
Q 6.59375 17.96875 6.59375 36.375 
Q 6.59375 54.828125 13.0625 64.515625 
Q 19.53125 74.21875 31.78125 74.21875 
z
" id="DejaVuSans-48"/>
      </defs>
      <g transform="translate(70.651477 322.182437)scale(0.1 -0.1)">
       <use xlink:href="#DejaVuSans-48"/>
      </g>
     </g>
    </g>
    <g id="xtick_2">
     <g id="line2d_2">
      <g>
       <use style="stroke:#000000;stroke-width:0.8;" x="114.465336" xlink:href="#m184bd41bde" y="307.584"/>
      </g>
     </g>
     <g id="text_2">
      <!-- 100 -->
      <defs>
       <path d="M 12.40625 8.296875 
L 28.515625 8.296875 
L 28.515625 63.921875 
L 10.984375 60.40625 
L 10.984375 69.390625 
L 28.421875 72.90625 
L 38.28125 72.90625 
L 38.28125 8.296875 
L 54.390625 8.296875 
L 54.390625 0 
L 12.40625 0 
z
" id="DejaVuSans-49"/>
      </defs>
      <g transform="translate(104.921586 322.182437)scale(0.1 -0.1)">
       <use xlink:href="#DejaVuSans-49"/>
       <use x="63.623047" xlink:href="#DejaVuSans-48"/>
       <use x="127.246094" xlink:href="#DejaVuSans-48"/>
      </g>
     </g>
    </g>
    <g id="xtick_3">
     <g id="line2d_3">
      <g>
       <use style="stroke:#000000;stroke-width:0.8;" x="155.097945" xlink:href="#m184bd41bde" y="307.584"/>
      </g>
     </g>
     <g id="text_3">
      <!-- 200 -->
      <defs>
       <path d="M 19.1875 8.296875 
L 53.609375 8.296875 
L 53.609375 0 
L 7.328125 0 
L 7.328125 8.296875 
Q 12.9375 14.109375 22.625 23.890625 
Q 32.328125 33.6875 34.8125 36.53125 
Q 39.546875 41.84375 41.421875 45.53125 
Q 43.3125 49.21875 43.3125 52.78125 
Q 43.3125 58.59375 39.234375 62.25 
Q 35.15625 65.921875 28.609375 65.921875 
Q 23.96875 65.921875 18.8125 64.3125 
Q 13.671875 62.703125 7.8125 59.421875 
L 7.8125 69.390625 
Q 13.765625 71.78125 18.9375 73 
Q 24.125 74.21875 28.421875 74.21875 
Q 39.75 74.21875 46.484375 68.546875 
Q 53.21875 62.890625 53.21875 53.421875 
Q 53.21875 48.921875 51.53125 44.890625 
Q 49.859375 40.875 45.40625 35.40625 
Q 44.1875 33.984375 37.640625 27.21875 
Q 31.109375 20.453125 19.1875 8.296875 
z
" id="DejaVuSans-50"/>
      </defs>
      <g transform="translate(145.554195 322.182437)scale(0.1 -0.1)">
       <use xlink:href="#DejaVuSans-50"/>
       <use x="63.623047" xlink:href="#DejaVuSans-48"/>
       <use x="127.246094" xlink:href="#DejaVuSans-48"/>
      </g>
     </g>
    </g>
    <g id="xtick_4">
     <g id="line2d_4">
      <g>
       <use style="stroke:#000000;stroke-width:0.8;" x="195.730554" xlink:href="#m184bd41bde" y="307.584"/>
      </g>
     </g>
     <g id="text_4">
      <!-- 300 -->
      <defs>
       <path d="M 40.578125 39.3125 
Q 47.65625 37.796875 51.625 33 
Q 55.609375 28.21875 55.609375 21.1875 
Q 55.609375 10.40625 48.1875 4.484375 
Q 40.765625 -1.421875 27.09375 -1.421875 
Q 22.515625 -1.421875 17.65625 -0.515625 
Q 12.796875 0.390625 7.625 2.203125 
L 7.625 11.71875 
Q 11.71875 9.328125 16.59375 8.109375 
Q 21.484375 6.890625 26.8125 6.890625 
Q 36.078125 6.890625 40.9375 10.546875 
Q 45.796875 14.203125 45.796875 21.1875 
Q 45.796875 27.640625 41.28125 31.265625 
Q 36.765625 34.90625 28.71875 34.90625 
L 20.21875 34.90625 
L 20.21875 43.015625 
L 29.109375 43.015625 
Q 36.375 43.015625 40.234375 45.921875 
Q 44.09375 48.828125 44.09375 54.296875 
Q 44.09375 59.90625 40.109375 62.90625 
Q 36.140625 65.921875 28.71875 65.921875 
Q 24.65625 65.921875 20.015625 65.03125 
Q 15.375 64.15625 9.8125 62.3125 
L 9.8125 71.09375 
Q 15.4375 72.65625 20.34375 73.4375 
Q 25.25 74.21875 29.59375 74.21875 
Q 40.828125 74.21875 47.359375 69.109375 
Q 53.90625 64.015625 53.90625 55.328125 
Q 53.90625 49.265625 50.4375 45.09375 
Q 46.96875 40.921875 40.578125 39.3125 
z
" id="DejaVuSans-51"/>
      </defs>
      <g transform="translate(186.186804 322.182437)scale(0.1 -0.1)">
       <use xlink:href="#DejaVuSans-51"/>
       <use x="63.623047" xlink:href="#DejaVuSans-48"/>
       <use x="127.246094" xlink:href="#DejaVuSans-48"/>
      </g>
     </g>
    </g>
    <g id="xtick_5">
     <g id="line2d_5">
      <g>
       <use style="stroke:#000000;stroke-width:0.8;" x="236.363163" xlink:href="#m184bd41bde" y="307.584"/>
      </g>
     </g>
     <g id="text_5">
      <!-- 400 -->
      <defs>
       <path d="M 37.796875 64.3125 
L 12.890625 25.390625 
L 37.796875 25.390625 
z
M 35.203125 72.90625 
L 47.609375 72.90625 
L 47.609375 25.390625 
L 58.015625 25.390625 
L 58.015625 17.1875 
L 47.609375 17.1875 
L 47.609375 0 
L 37.796875 0 
L 37.796875 17.1875 
L 4.890625 17.1875 
L 4.890625 26.703125 
z
" id="DejaVuSans-52"/>
      </defs>
      <g transform="translate(226.819413 322.182437)scale(0.1 -0.1)">
       <use xlink:href="#DejaVuSans-52"/>
       <use x="63.623047" xlink:href="#DejaVuSans-48"/>
       <use x="127.246094" xlink:href="#DejaVuSans-48"/>
      </g>
     </g>
    </g>
    <g id="xtick_6">
     <g id="line2d_6">
      <g>
       <use style="stroke:#000000;stroke-width:0.8;" x="276.995772" xlink:href="#m184bd41bde" y="307.584"/>
      </g>
     </g>
     <g id="text_6">
      <!-- 500 -->
      <defs>
       <path d="M 10.796875 72.90625 
L 49.515625 72.90625 
L 49.515625 64.59375 
L 19.828125 64.59375 
L 19.828125 46.734375 
Q 21.96875 47.46875 24.109375 47.828125 
Q 26.265625 48.1875 28.421875 48.1875 
Q 40.625 48.1875 47.75 41.5 
Q 54.890625 34.8125 54.890625 23.390625 
Q 54.890625 11.625 47.5625 5.09375 
Q 40.234375 -1.421875 26.90625 -1.421875 
Q 22.3125 -1.421875 17.546875 -0.640625 
Q 12.796875 0.140625 7.71875 1.703125 
L 7.71875 11.625 
Q 12.109375 9.234375 16.796875 8.0625 
Q 21.484375 6.890625 26.703125 6.890625 
Q 35.15625 6.890625 40.078125 11.328125 
Q 45.015625 15.765625 45.015625 23.390625 
Q 45.015625 31 40.078125 35.4375 
Q 35.15625 39.890625 26.703125 39.890625 
Q 22.75 39.890625 18.8125 39.015625 
Q 14.890625 38.140625 10.796875 36.28125 
z
" id="DejaVuSans-53"/>
      </defs>
      <g transform="translate(267.452022 322.182437)scale(0.1 -0.1)">
       <use xlink:href="#DejaVuSans-53"/>
       <use x="63.623047" xlink:href="#DejaVuSans-48"/>
       <use x="127.246094" xlink:href="#DejaVuSans-48"/>
      </g>
     </g>
    </g>
    <g id="xtick_7">
     <g id="line2d_7">
      <g>
       <use style="stroke:#000000;stroke-width:0.8;" x="317.628381" xlink:href="#m184bd41bde" y="307.584"/>
      </g>
     </g>
     <g id="text_7">
      <!-- 600 -->
      <defs>
       <path d="M 33.015625 40.375 
Q 26.375 40.375 22.484375 35.828125 
Q 18.609375 31.296875 18.609375 23.390625 
Q 18.609375 15.53125 22.484375 10.953125 
Q 26.375 6.390625 33.015625 6.390625 
Q 39.65625 6.390625 43.53125 10.953125 
Q 47.40625 15.53125 47.40625 23.390625 
Q 47.40625 31.296875 43.53125 35.828125 
Q 39.65625 40.375 33.015625 40.375 
z
M 52.59375 71.296875 
L 52.59375 62.3125 
Q 48.875 64.0625 45.09375 64.984375 
Q 41.3125 65.921875 37.59375 65.921875 
Q 27.828125 65.921875 22.671875 59.328125 
Q 17.53125 52.734375 16.796875 39.40625 
Q 19.671875 43.65625 24.015625 45.921875 
Q 28.375 48.1875 33.59375 48.1875 
Q 44.578125 48.1875 50.953125 41.515625 
Q 57.328125 34.859375 57.328125 23.390625 
Q 57.328125 12.15625 50.6875 5.359375 
Q 44.046875 -1.421875 33.015625 -1.421875 
Q 20.359375 -1.421875 13.671875 8.265625 
Q 6.984375 17.96875 6.984375 36.375 
Q 6.984375 53.65625 15.1875 63.9375 
Q 23.390625 74.21875 37.203125 74.21875 
Q 40.921875 74.21875 44.703125 73.484375 
Q 48.484375 72.75 52.59375 71.296875 
z
" id="DejaVuSans-54"/>
      </defs>
      <g transform="translate(308.084631 322.182437)scale(0.1 -0.1)">
       <use xlink:href="#DejaVuSans-54"/>
       <use x="63.623047" xlink:href="#DejaVuSans-48"/>
       <use x="127.246094" xlink:href="#DejaVuSans-48"/>
      </g>
     </g>
    </g>
    <g id="xtick_8">
     <g id="line2d_8">
      <g>
       <use style="stroke:#000000;stroke-width:0.8;" x="358.26099" xlink:href="#m184bd41bde" y="307.584"/>
      </g>
     </g>
     <g id="text_8">
      <!-- 700 -->
      <defs>
       <path d="M 8.203125 72.90625 
L 55.078125 72.90625 
L 55.078125 68.703125 
L 28.609375 0 
L 18.3125 0 
L 43.21875 64.59375 
L 8.203125 64.59375 
z
" id="DejaVuSans-55"/>
      </defs>
      <g transform="translate(348.71724 322.182437)scale(0.1 -0.1)">
       <use xlink:href="#DejaVuSans-55"/>
       <use x="63.623047" xlink:href="#DejaVuSans-48"/>
       <use x="127.246094" xlink:href="#DejaVuSans-48"/>
      </g>
     </g>
    </g>
    <g id="xtick_9">
     <g id="line2d_9">
      <g>
       <use style="stroke:#000000;stroke-width:0.8;" x="398.893599" xlink:href="#m184bd41bde" y="307.584"/>
      </g>
     </g>
     <g id="text_9">
      <!-- 800 -->
      <defs>
       <path d="M 31.78125 34.625 
Q 24.75 34.625 20.71875 30.859375 
Q 16.703125 27.09375 16.703125 20.515625 
Q 16.703125 13.921875 20.71875 10.15625 
Q 24.75 6.390625 31.78125 6.390625 
Q 38.8125 6.390625 42.859375 10.171875 
Q 46.921875 13.96875 46.921875 20.515625 
Q 46.921875 27.09375 42.890625 30.859375 
Q 38.875 34.625 31.78125 34.625 
z
M 21.921875 38.8125 
Q 15.578125 40.375 12.03125 44.71875 
Q 8.5 49.078125 8.5 55.328125 
Q 8.5 64.0625 14.71875 69.140625 
Q 20.953125 74.21875 31.78125 74.21875 
Q 42.671875 74.21875 48.875 69.140625 
Q 55.078125 64.0625 55.078125 55.328125 
Q 55.078125 49.078125 51.53125 44.71875 
Q 48 40.375 41.703125 38.8125 
Q 48.828125 37.15625 52.796875 32.3125 
Q 56.78125 27.484375 56.78125 20.515625 
Q 56.78125 9.90625 50.3125 4.234375 
Q 43.84375 -1.421875 31.78125 -1.421875 
Q 19.734375 -1.421875 13.25 4.234375 
Q 6.78125 9.90625 6.78125 20.515625 
Q 6.78125 27.484375 10.78125 32.3125 
Q 14.796875 37.15625 21.921875 38.8125 
z
M 18.3125 54.390625 
Q 18.3125 48.734375 21.84375 45.5625 
Q 25.390625 42.390625 31.78125 42.390625 
Q 38.140625 42.390625 41.71875 45.5625 
Q 45.3125 48.734375 45.3125 54.390625 
Q 45.3125 60.0625 41.71875 63.234375 
Q 38.140625 66.40625 31.78125 66.40625 
Q 25.390625 66.40625 21.84375 63.234375 
Q 18.3125 60.0625 18.3125 54.390625 
z
" id="DejaVuSans-56"/>
      </defs>
      <g transform="translate(389.349849 322.182437)scale(0.1 -0.1)">
       <use xlink:href="#DejaVuSans-56"/>
       <use x="63.623047" xlink:href="#DejaVuSans-48"/>
       <use x="127.246094" xlink:href="#DejaVuSans-48"/>
      </g>
     </g>
    </g>
   </g>
   <g id="matplotlib.axis_2">
    <g id="ytick_1">
     <g id="line2d_10">
      <defs>
       <path d="M 0 0 
L -3.5 0 
" id="m82dc98d391" style="stroke:#000000;stroke-width:0.8;"/>
      </defs>
      <g>
       <use style="stroke:#000000;stroke-width:0.8;" x="57.6" xlink:href="#m82dc98d391" y="295.556064"/>
      </g>
     </g>
     <g id="text_10">
      <!-- 0.0000 -->
      <defs>
       <path d="M 10.6875 12.40625 
L 21 12.40625 
L 21 0 
L 10.6875 0 
z
" id="DejaVuSans-46"/>
      </defs>
      <g transform="translate(15.609375 299.355282)scale(0.1 -0.1)">
       <use xlink:href="#DejaVuSans-48"/>
       <use x="63.623047" xlink:href="#DejaVuSans-46"/>
       <use x="95.410156" xlink:href="#DejaVuSans-48"/>
       <use x="159.033203" xlink:href="#DejaVuSans-48"/>
       <use x="222.65625" xlink:href="#DejaVuSans-48"/>
       <use x="286.279297" xlink:href="#DejaVuSans-48"/>
      </g>
     </g>
    </g>
    <g id="ytick_2">
     <g id="line2d_11">
      <g>
       <use style="stroke:#000000;stroke-width:0.8;" x="57.6" xlink:href="#m82dc98d391" y="254.217339"/>
      </g>
     </g>
     <g id="text_11">
      <!-- 0.0001 -->
      <g transform="translate(15.609375 258.016558)scale(0.1 -0.1)">
       <use xlink:href="#DejaVuSans-48"/>
       <use x="63.623047" xlink:href="#DejaVuSans-46"/>
       <use x="95.410156" xlink:href="#DejaVuSans-48"/>
       <use x="159.033203" xlink:href="#DejaVuSans-48"/>
       <use x="222.65625" xlink:href="#DejaVuSans-48"/>
       <use x="286.279297" xlink:href="#DejaVuSans-49"/>
      </g>
     </g>
    </g>
    <g id="ytick_3">
     <g id="line2d_12">
      <g>
       <use style="stroke:#000000;stroke-width:0.8;" x="57.6" xlink:href="#m82dc98d391" y="212.878614"/>
      </g>
     </g>
     <g id="text_12">
      <!-- 0.0002 -->
      <g transform="translate(15.609375 216.677833)scale(0.1 -0.1)">
       <use xlink:href="#DejaVuSans-48"/>
       <use x="63.623047" xlink:href="#DejaVuSans-46"/>
       <use x="95.410156" xlink:href="#DejaVuSans-48"/>
       <use x="159.033203" xlink:href="#DejaVuSans-48"/>
       <use x="222.65625" xlink:href="#DejaVuSans-48"/>
       <use x="286.279297" xlink:href="#DejaVuSans-50"/>
      </g>
     </g>
    </g>
    <g id="ytick_4">
     <g id="line2d_13">
      <g>
       <use style="stroke:#000000;stroke-width:0.8;" x="57.6" xlink:href="#m82dc98d391" y="171.53989"/>
      </g>
     </g>
     <g id="text_13">
      <!-- 0.0003 -->
      <g transform="translate(15.609375 175.339108)scale(0.1 -0.1)">
       <use xlink:href="#DejaVuSans-48"/>
       <use x="63.623047" xlink:href="#DejaVuSans-46"/>
       <use x="95.410156" xlink:href="#DejaVuSans-48"/>
       <use x="159.033203" xlink:href="#DejaVuSans-48"/>
       <use x="222.65625" xlink:href="#DejaVuSans-48"/>
       <use x="286.279297" xlink:href="#DejaVuSans-51"/>
      </g>
     </g>
    </g>
    <g id="ytick_5">
     <g id="line2d_14">
      <g>
       <use style="stroke:#000000;stroke-width:0.8;" x="57.6" xlink:href="#m82dc98d391" y="130.201165"/>
      </g>
     </g>
     <g id="text_14">
      <!-- 0.0004 -->
      <g transform="translate(15.609375 134.000384)scale(0.1 -0.1)">
       <use xlink:href="#DejaVuSans-48"/>
       <use x="63.623047" xlink:href="#DejaVuSans-46"/>
       <use x="95.410156" xlink:href="#DejaVuSans-48"/>
       <use x="159.033203" xlink:href="#DejaVuSans-48"/>
       <use x="222.65625" xlink:href="#DejaVuSans-48"/>
       <use x="286.279297" xlink:href="#DejaVuSans-52"/>
      </g>
     </g>
    </g>
    <g id="ytick_6">
     <g id="line2d_15">
      <g>
       <use style="stroke:#000000;stroke-width:0.8;" x="57.6" xlink:href="#m82dc98d391" y="88.86244"/>
      </g>
     </g>
     <g id="text_15">
      <!-- 0.0005 -->
      <g transform="translate(15.609375 92.661659)scale(0.1 -0.1)">
       <use xlink:href="#DejaVuSans-48"/>
       <use x="63.623047" xlink:href="#DejaVuSans-46"/>
       <use x="95.410156" xlink:href="#DejaVuSans-48"/>
       <use x="159.033203" xlink:href="#DejaVuSans-48"/>
       <use x="222.65625" xlink:href="#DejaVuSans-48"/>
       <use x="286.279297" xlink:href="#DejaVuSans-53"/>
      </g>
     </g>
    </g>
    <g id="ytick_7">
     <g id="line2d_16">
      <g>
       <use style="stroke:#000000;stroke-width:0.8;" x="57.6" xlink:href="#m82dc98d391" y="47.523716"/>
      </g>
     </g>
     <g id="text_16">
      <!-- 0.0006 -->
      <g transform="translate(15.609375 51.322934)scale(0.1 -0.1)">
       <use xlink:href="#DejaVuSans-48"/>
       <use x="63.623047" xlink:href="#DejaVuSans-46"/>
       <use x="95.410156" xlink:href="#DejaVuSans-48"/>
       <use x="159.033203" xlink:href="#DejaVuSans-48"/>
       <use x="222.65625" xlink:href="#DejaVuSans-48"/>
       <use x="286.279297" xlink:href="#DejaVuSans-54"/>
      </g>
     </g>
    </g>
   </g>
   <g id="line2d_17">
    <path clip-path="url(#p29056da4a8)" d="M 73.832727 233.047124 
L 74.239053 249.265704 
L 74.645379 198.165525 
L 75.051706 250.524999 
L 75.458032 269.119751 
L 75.864358 257.595261 
L 76.270684 265.136581 
L 76.67701 267.705561 
L 77.083336 247.145939 
L 77.489662 173.411103 
L 77.895988 244.454872 
L 78.302314 222.422459 
L 78.70864 216.387063 
L 79.114966 197.773631 
L 79.521293 214.490103 
L 79.927619 199.120673 
L 80.333945 234.146311 
L 80.740271 215.679653 
L 81.146597 206.681959 
L 81.552923 168.144794 
L 81.959249 151.259311 
L 82.365575 192.453383 
L 82.771901 197.273707 
L 83.178227 239.174844 
L 83.584553 255.123665 
L 83.99088 207.422652 
L 84.397206 230.397262 
L 84.803532 210.239788 
L 85.209858 219.894743 
L 85.616184 203.750555 
L 86.02251 148.118123 
L 86.428836 229.413119 
L 86.835162 224.764491 
L 87.241488 272.771403 
L 88.05414 230.35107 
L 88.866793 258.257195 
L 89.273119 265.388154 
L 89.679445 234.250103 
L 90.085771 242.070768 
L 90.492097 216.58597 
L 90.898423 228.383424 
L 91.304749 186.363719 
L 91.711075 230.526444 
L 92.117401 254.091894 
L 92.523727 225.946048 
L 92.930053 217.480938 
L 93.33638 234.319555 
L 93.742706 203.210213 
L 94.555358 262.147604 
L 94.961684 218.895057 
L 95.36801 254.966899 
L 95.774336 261.766706 
L 96.586988 260.747859 
L 96.993314 265.674144 
L 97.39964 255.219331 
L 97.805967 259.348327 
L 98.212293 261.89485 
L 98.618619 279.570276 
L 99.024945 251.356752 
L 99.431271 265.964555 
L 99.837597 257.567637 
L 100.243923 243.668496 
L 100.650249 269.809877 
L 101.056575 212.789326 
L 101.462901 246.388058 
L 101.869227 267.001934 
L 102.275554 273.712996 
L 102.68188 277.240827 
L 103.088206 279.089375 
L 103.494532 266.956929 
L 103.900858 277.88766 
L 104.307184 277.210103 
L 104.71351 278.469134 
L 105.119836 288.067311 
L 105.932488 258.773596 
L 106.338814 263.715218 
L 106.745141 263.527755 
L 107.151467 263.915439 
L 107.557793 261.298678 
L 108.370445 260.546183 
L 108.776771 282.886854 
L 109.589423 249.79916 
L 109.995749 255.681015 
L 110.402075 239.703531 
L 110.808401 253.774615 
L 111.214728 237.248133 
L 111.621054 253.114176 
L 112.02738 230.916605 
L 112.433706 228.760499 
L 112.840032 255.360424 
L 113.246358 239.357501 
L 113.652684 276.116789 
L 114.05901 258.060083 
L 114.465336 53.568 
L 114.871662 193.986737 
L 115.277988 223.899963 
L 115.684314 266.289839 
L 116.090641 274.803615 
L 116.496967 254.562594 
L 116.903293 256.597721 
L 117.309619 233.386499 
L 117.715945 281.350648 
L 118.122271 266.430487 
L 118.528597 231.497472 
L 118.934923 228.417768 
L 119.341249 228.287264 
L 119.747575 228.846361 
L 120.153901 212.56684 
L 120.560228 230.8871 
L 120.966554 233.864292 
L 121.37288 234.822163 
L 121.779206 235.179604 
L 122.185532 183.238487 
L 122.591858 232.428554 
L 122.998184 242.083796 
L 123.40451 245.652241 
L 123.810836 206.126221 
L 124.217162 235.345644 
L 124.623488 226.933176 
L 125.029815 225.165208 
L 125.436141 255.530911 
L 125.842467 233.997929 
L 126.248793 168.063394 
L 126.655119 233.700079 
L 127.061445 241.384183 
L 127.467771 240.100205 
L 127.874097 196.845974 
L 128.280423 203.132602 
L 128.686749 187.999708 
L 129.093075 209.530091 
L 129.499402 120.470818 
L 130.312054 240.9557 
L 130.71838 255.272877 
L 131.124706 255.077478 
L 131.531032 214.627955 
L 131.937358 271.761521 
L 132.343684 273.124914 
L 132.75001 255.483162 
L 133.156336 255.037273 
L 133.562662 268.159595 
L 133.968989 230.890856 
L 134.375315 154.11985 
L 134.781641 197.431546 
L 135.187967 216.757838 
L 135.594293 254.976461 
L 136.000619 268.433918 
L 136.406945 276.843819 
L 136.813271 291.864871 
L 137.219597 285.103645 
L 137.625923 265.52676 
L 138.032249 263.146351 
L 138.438575 280.701829 
L 138.844902 282.435486 
L 139.251228 252.231478 
L 139.657554 245.338173 
L 140.06388 279.330952 
L 140.470206 283.146779 
L 140.876532 288.915906 
L 141.282858 256.30993 
L 141.689184 267.096619 
L 142.09551 288.299958 
L 142.501836 289.05614 
L 142.908162 273.936759 
L 143.314489 267.674057 
L 143.720815 227.064182 
L 144.127141 231.944046 
L 144.533467 210.726149 
L 144.939793 247.999466 
L 145.346119 258.322445 
L 145.752445 219.991859 
L 146.158771 119.168735 
L 146.565097 142.175594 
L 146.971423 124.016982 
L 147.377749 241.368783 
L 147.784076 192.568322 
L 148.190402 194.091914 
L 148.596728 189.087373 
L 149.003054 222.506453 
L 149.40938 219.756747 
L 149.815706 218.841641 
L 150.222032 206.632861 
L 150.628358 184.585809 
L 151.034684 236.697102 
L 151.44101 192.640166 
L 151.847336 204.578841 
L 152.253663 189.966013 
L 152.659989 199.882675 
L 153.066315 206.143936 
L 153.472641 244.110448 
L 153.878967 260.505846 
L 154.285293 263.7106 
L 154.691619 242.733413 
L 155.097945 248.796733 
L 155.504271 211.393899 
L 155.910597 204.054537 
L 156.316923 237.291647 
L 156.72325 211.056397 
L 157.129576 253.73188 
L 157.535902 265.611635 
L 157.942228 254.976461 
L 158.348554 254.802875 
L 158.75488 265.87152 
L 159.567532 167.99379 
L 159.973858 225.387112 
L 160.380184 167.839418 
L 160.78651 220.852538 
L 161.192837 203.301084 
L 162.005489 213.884935 
L 162.411815 208.395954 
L 162.818141 200.712479 
L 163.224467 252.951083 
L 163.630793 277.501642 
L 164.037119 271.346136 
L 164.443445 257.9381 
L 164.849771 212.99436 
L 165.256097 205.987245 
L 165.662423 179.596063 
L 166.06875 202.783464 
L 166.475076 249.092617 
L 166.881402 239.553308 
L 167.287728 245.265988 
L 167.694054 220.636861 
L 168.10038 223.751415 
L 168.506706 248.891918 
L 168.913032 211.971732 
L 169.319358 186.272091 
L 169.725684 218.796238 
L 170.13201 213.184548 
L 170.538337 241.766845 
L 170.944663 251.02722 
L 171.350989 226.43166 
L 171.757315 249.484622 
L 172.163641 243.653297 
L 172.569967 235.928779 
L 172.976293 240.630389 
L 173.788945 243.730551 
L 174.195271 199.558874 
L 174.601597 228.841735 
L 175.007924 227.438264 
L 175.41425 269.988395 
L 175.820576 239.127046 
L 176.226902 239.400475 
L 177.039554 232.483632 
L 177.44588 231.657763 
L 177.852206 231.730502 
L 178.258532 234.876444 
L 178.664858 225.198404 
L 179.071184 219.56243 
L 179.477511 252.351595 
L 179.883837 226.498384 
L 180.290163 261.835716 
L 180.696489 228.070697 
L 181.102815 220.368295 
L 181.509141 218.891817 
L 181.915467 219.287098 
L 182.728119 220.53626 
L 183.134445 228.786532 
L 183.947098 220.418552 
L 184.353424 219.563192 
L 185.166076 218.693851 
L 185.572402 258.719108 
L 185.978728 276.071162 
L 186.385054 236.405905 
L 186.79138 263.703158 
L 187.197706 243.670215 
L 187.604032 268.752045 
L 188.010358 233.862994 
L 188.416684 232.305636 
L 188.823011 270.577519 
L 189.229337 274.172194 
L 189.635663 233.594254 
L 190.041989 253.027209 
L 190.448315 230.758449 
L 190.854641 223.043868 
L 191.260967 223.456976 
L 191.667293 222.851968 
L 192.073619 264.583112 
L 192.479945 272.746424 
L 192.886271 242.109063 
L 193.292598 278.262847 
L 193.698924 245.864048 
L 194.10525 234.49832 
L 194.511576 229.407062 
L 194.917902 228.253246 
L 195.324228 272.738386 
L 195.730554 281.214319 
L 196.13688 239.897857 
L 196.543206 230.44871 
L 196.949532 228.266879 
L 197.355858 226.810367 
L 197.762185 221.861693 
L 198.168511 254.335969 
L 198.574837 231.11061 
L 198.981163 223.457242 
L 199.387489 222.265003 
L 199.793815 221.95099 
L 200.200141 270.897243 
L 200.606467 232.025944 
L 201.012793 259.066395 
L 201.419119 231.954768 
L 201.825445 253.622864 
L 202.231772 231.103856 
L 202.638098 222.532211 
L 203.044424 258.60477 
L 203.45075 206.68033 
L 203.857076 221.75699 
L 204.263402 221.572794 
L 204.669728 220.353909 
L 205.076054 220.731836 
L 205.48238 234.94633 
L 205.888706 258.878682 
L 206.295032 237.330056 
L 206.701359 230.674272 
L 207.107685 273.801029 
L 207.514011 252.026166 
L 207.920337 272.797915 
L 208.326663 286.894783 
L 208.732989 277.090855 
L 209.139315 282.388353 
L 209.545641 275.999554 
L 209.951967 240.919889 
L 210.358293 231.274019 
L 210.764619 273.492787 
L 211.170946 275.145353 
L 211.577272 284.304822 
L 211.983598 275.120871 
L 212.389924 239.747242 
L 213.202576 277.677626 
L 213.608902 281.348567 
L 214.015228 256.62057 
L 214.421554 282.725497 
L 214.82788 282.243114 
L 215.234206 281.954661 
L 215.640532 276.799639 
L 216.046859 282.54109 
L 216.453185 282.561772 
L 216.859511 255.248883 
L 217.265837 278.491729 
L 217.672163 274.743545 
L 218.078489 238.112429 
L 218.484815 253.780777 
L 219.297467 247.879646 
L 219.703793 270.439155 
L 220.110119 248.807898 
L 220.922772 267.624798 
L 221.329098 258.804861 
L 221.735424 258.707174 
L 222.548076 285.831531 
L 222.954402 274.845928 
L 223.360728 273.566586 
L 223.767054 257.358373 
L 224.17338 254.432617 
L 224.579706 284.042559 
L 225.392359 269.289479 
L 225.798685 282.842631 
L 226.205011 278.993643 
L 226.611337 262.096014 
L 227.017663 268.992618 
L 227.423989 269.185426 
L 227.830315 275.200978 
L 228.236641 268.388873 
L 228.642967 274.448341 
L 229.049293 268.38998 
L 229.45562 273.558377 
L 229.861946 274.546144 
L 230.268272 262.706071 
L 230.674598 257.665825 
L 231.080924 273.681779 
L 231.48725 273.697524 
L 231.893576 251.486398 
L 232.299902 246.332564 
L 232.706228 247.616331 
L 233.112554 243.309226 
L 233.51888 242.29375 
L 233.925207 241.838233 
L 234.331533 243.383164 
L 234.737859 244.386589 
L 235.144185 247.191789 
L 235.550511 222.47879 
L 235.956837 248.244392 
L 236.363163 219.266759 
L 236.769489 213.024176 
L 237.175815 213.169838 
L 237.582141 212.77855 
L 237.988467 223.618928 
L 238.394793 217.859294 
L 238.80112 189.460674 
L 239.207446 170.482994 
L 239.613772 176.269652 
L 240.020098 227.113507 
L 240.426424 180.984563 
L 240.83275 197.858344 
L 241.239076 184.714317 
L 241.645402 205.738538 
L 242.051728 204.885566 
L 242.458054 195.531192 
L 242.86438 219.475015 
L 243.270707 226.778923 
L 243.677033 263.56622 
L 244.083359 283.756799 
L 244.489685 279.621371 
L 244.896011 282.221243 
L 245.302337 282.543447 
L 245.708663 279.260548 
L 246.114989 279.333929 
L 246.521315 276.924484 
L 246.927641 261.011386 
L 247.740294 255.071124 
L 248.14662 271.190833 
L 248.552946 259.903964 
L 248.959272 287.242434 
L 249.365598 282.614945 
L 249.771924 288.797614 
L 250.17825 254.842084 
L 250.584576 269.767897 
L 250.990902 276.022983 
L 251.397228 256.588763 
L 251.803554 278.385217 
L 252.209881 281.195101 
L 252.616207 281.628321 
L 253.022533 260.134817 
L 253.835185 279.508294 
L 254.241511 280.444679 
L 255.054163 255.157671 
L 255.460489 258.930417 
L 255.866815 284.821299 
L 256.679468 250.287319 
L 257.085794 252.905851 
L 257.49212 247.343378 
L 257.898446 265.969026 
L 258.304772 257.2225 
L 259.117424 277.247505 
L 259.52375 267.007995 
L 259.930076 268.451477 
L 260.336402 271.69749 
L 260.742728 268.416926 
L 261.149054 255.508935 
L 261.555381 258.477738 
L 261.961707 250.260972 
L 262.368033 254.271015 
L 262.774359 264.324777 
L 263.180685 279.732324 
L 263.587011 257.986017 
L 263.993337 252.964652 
L 264.399663 262.826719 
L 264.805989 264.161367 
L 265.212315 252.385435 
L 265.618641 252.052496 
L 266.024968 247.178067 
L 266.431294 251.687879 
L 266.83762 252.480402 
L 267.243946 249.265289 
L 267.650272 248.205059 
L 268.056598 257.943324 
L 268.462924 260.220263 
L 268.86925 263.54894 
L 269.275576 268.251344 
L 269.681902 264.729924 
L 270.088228 224.528149 
L 270.494555 233.302761 
L 270.900881 277.913229 
L 271.307207 256.023201 
L 271.713533 253.392998 
L 272.119859 261.44478 
L 272.526185 263.093096 
L 272.932511 250.944769 
L 273.338837 259.815485 
L 273.745163 249.995086 
L 274.151489 221.105421 
L 274.557815 253.105076 
L 274.964142 248.230085 
L 275.370468 259.374723 
L 275.776794 246.917282 
L 276.18312 258.404525 
L 276.589446 261.947174 
L 276.995772 285.333671 
L 277.402098 252.170313 
L 277.808424 230.790412 
L 278.21475 274.918689 
L 278.621076 277.550504 
L 279.027402 251.501974 
L 279.433729 272.96326 
L 279.840055 260.415299 
L 280.246381 258.9493 
L 280.652707 265.783168 
L 281.059033 249.239668 
L 281.871685 273.408951 
L 282.278011 260.816825 
L 282.684337 273.679301 
L 283.090663 260.594356 
L 283.496989 261.051075 
L 283.903316 257.191055 
L 284.309642 276.087382 
L 284.715968 277.738541 
L 285.122294 278.317058 
L 285.52862 275.864419 
L 285.934946 276.03456 
L 286.341272 239.71928 
L 286.747598 277.145268 
L 287.153924 259.637276 
L 287.56025 273.520184 
L 287.966576 242.445095 
L 288.779229 260.992538 
L 289.185555 239.634852 
L 289.591881 271.951065 
L 289.998207 282.003563 
L 290.404533 276.355647 
L 290.810859 284.379249 
L 291.623511 255.262146 
L 292.029837 255.667601 
L 292.436163 254.647448 
L 292.842489 270.717074 
L 293.248816 291.249144 
L 293.655142 254.507756 
L 294.061468 284.329416 
L 294.467794 285.100962 
L 294.87412 280.444221 
L 295.280446 280.467738 
L 295.686772 244.650113 
L 296.093098 242.225833 
L 296.499424 265.432434 
L 296.90575 274.703616 
L 297.312076 280.430578 
L 297.718403 280.047029 
L 298.124729 277.074149 
L 298.531055 246.815112 
L 298.937381 267.355406 
L 299.343707 281.594737 
L 299.750033 271.083596 
L 300.156359 265.218617 
L 300.562685 276.321277 
L 300.969011 249.293561 
L 301.375337 276.46603 
L 301.781663 275.080201 
L 302.18799 274.849414 
L 302.594316 289.496964 
L 303.000642 254.426336 
L 303.406968 281.948407 
L 303.813294 279.538659 
L 304.21962 284.743256 
L 304.625946 257.157318 
L 305.032272 277.875594 
L 305.438598 273.80005 
L 305.844924 274.355735 
L 306.25125 284.928329 
L 306.657577 287.24474 
L 307.063903 291.896778 
L 307.470229 284.627396 
L 307.876555 266.664683 
L 308.282881 285.606206 
L 308.689207 283.680706 
L 309.095533 286.595517 
L 309.501859 256.623958 
L 310.314511 287.828057 
L 310.720837 273.805993 
L 311.127163 275.364782 
L 311.53349 279.743348 
L 311.939816 267.137594 
L 312.346142 279.304523 
L 312.752468 277.653397 
L 313.158794 285.007199 
L 313.56512 282.415307 
L 313.971446 276.819018 
L 314.377772 288.087605 
L 314.784098 281.711406 
L 315.190424 270.378674 
L 315.59675 271.909481 
L 316.003077 269.980075 
L 316.409403 279.862251 
L 317.222055 264.046477 
L 317.628381 285.559165 
L 318.034707 271.486891 
L 318.441033 279.335 
L 318.847359 283.096354 
L 319.253685 282.144555 
L 319.660011 270.187371 
L 320.066337 277.818418 
L 320.472664 265.427282 
L 320.87899 273.458954 
L 321.285316 272.252419 
L 321.691642 279.116685 
L 322.097968 275.007157 
L 322.504294 279.94611 
L 322.91062 283.23501 
L 323.316946 267.828857 
L 323.723272 262.46829 
L 324.129598 258.803517 
L 324.535924 268.30731 
L 324.942251 283.944155 
L 325.348577 264.109747 
L 325.754903 275.134198 
L 326.161229 268.975143 
L 326.567555 275.958675 
L 326.973881 252.206776 
L 327.380207 265.164416 
L 327.786533 246.445172 
L 328.192859 261.253474 
L 328.599185 267.620994 
L 329.411838 272.196557 
L 329.818164 280.75449 
L 330.22449 250.611802 
L 330.630816 262.413296 
L 331.037142 268.076821 
L 331.443468 264.156442 
L 331.849794 277.407748 
L 332.25612 272.493682 
L 332.662446 270.903936 
L 333.068772 269.823521 
L 333.475098 264.284048 
L 333.881425 242.658921 
L 334.287751 238.373455 
L 334.694077 237.4106 
L 335.100403 236.784604 
L 335.913055 236.039484 
L 336.319381 238.586787 
L 336.725707 236.566293 
L 337.132033 235.415127 
L 337.538359 222.286917 
L 337.944685 229.114321 
L 338.351011 225.106965 
L 338.757338 228.531675 
L 339.163664 230.771928 
L 339.56999 230.836853 
L 339.976316 240.097262 
L 340.382642 266.270175 
L 340.788968 263.230165 
L 341.195294 267.688823 
L 341.60162 253.528335 
L 342.007946 248.813977 
L 342.414272 245.858932 
L 342.820598 249.396654 
L 343.226925 233.621865 
L 343.633251 242.493105 
L 344.039577 245.494746 
L 344.445903 247.294118 
L 344.852229 244.81285 
L 345.258555 234.931311 
L 345.664881 254.085954 
L 346.071207 246.556809 
L 346.477533 244.960492 
L 346.883859 244.132879 
L 347.290185 243.038287 
L 347.696512 235.10705 
L 348.102838 242.703488 
L 348.509164 243.60809 
L 348.91549 242.35059 
L 349.321816 252.591841 
L 349.728142 237.25193 
L 350.134468 251.755216 
L 350.540794 243.538306 
L 350.94712 253.079339 
L 351.353446 256.154779 
L 351.759772 257.160793 
L 352.166099 248.646816 
L 352.572425 255.243974 
L 352.978751 256.796857 
L 353.385077 251.082288 
L 353.791403 255.244467 
L 354.604055 257.632604 
L 355.010381 257.722382 
L 355.416707 257.52407 
L 355.823033 257.947571 
L 356.229359 268.495166 
L 356.635686 261.118528 
L 357.042012 263.066379 
L 357.448338 258.68627 
L 358.667316 257.88816 
L 359.073642 257.975413 
L 359.479968 257.929536 
L 359.886294 259.253138 
L 360.29262 258.300876 
L 360.698946 258.372261 
L 361.511599 257.736437 
L 361.917925 258.918715 
L 362.324251 257.860678 
L 362.730577 259.880872 
L 363.136903 260.564131 
L 363.543229 247.877449 
L 363.949555 257.724927 
L 364.355881 260.35037 
L 364.762207 261.237119 
L 365.574859 262.03734 
L 365.981186 250.86418 
L 366.387512 253.526324 
L 366.793838 259.199459 
L 367.200164 249.426946 
L 367.60649 248.274433 
L 368.012816 244.537772 
L 368.419142 243.864288 
L 369.231794 241.202048 
L 369.63812 240.450421 
L 370.044446 260.565753 
L 370.857099 243.448996 
L 371.263425 246.255906 
L 371.669751 240.301805 
L 372.076077 240.8491 
L 372.888729 241.59428 
L 373.295055 245.840768 
L 373.701381 241.864579 
L 374.107707 241.306362 
L 374.514033 240.556837 
L 374.92036 248.865455 
L 375.326686 251.735861 
L 375.733012 242.955923 
L 376.545664 240.614093 
L 376.95199 240.202697 
L 377.358316 241.388219 
L 378.170968 241.684208 
L 378.577294 241.411889 
L 379.389947 265.672938 
L 379.796273 264.524123 
L 380.202599 260.790327 
L 380.608925 272.584444 
L 381.015251 267.827011 
L 381.421577 261.419154 
L 381.827903 215.661081 
L 382.234229 201.801941 
L 382.640555 198.0265 
L 383.046881 197.011617 
L 383.453207 199.90343 
L 383.859534 209.997399 
L 384.26586 248.916356 
L 384.672186 225.932058 
L 385.078512 217.971282 
L 385.484838 253.002548 
L 385.891164 264.386421 
L 386.29749 261.812722 
L 386.703816 236.833559 
L 387.110142 236.822422 
L 387.516468 239.765079 
L 387.922794 241.388087 
L 388.32912 245.400861 
L 388.735447 247.842328 
L 389.141773 248.996983 
L 389.548099 260.714529 
L 389.954425 258.786698 
L 390.360751 217.788562 
L 390.767077 202.05251 
L 391.173403 247.218111 
L 391.579729 212.032423 
L 391.986055 199.559182 
L 392.392381 195.642857 
L 392.798707 193.999744 
L 393.205034 193.861937 
L 393.61136 242.26827 
L 394.017686 263.598272 
L 394.424012 217.423354 
L 394.830338 202.017473 
L 395.236664 197.557796 
L 395.64299 194.649796 
L 396.049316 164.938019 
L 396.455642 182.234384 
L 396.861968 190.156048 
L 397.268294 191.939118 
L 397.674621 238.245639 
L 398.080947 210.38068 
L 398.487273 199.720042 
L 398.487273 199.720042 
" style="fill:none;stroke:#1f77b4;stroke-linecap:square;stroke-width:1.5;"/>
   </g>
   <g id="line2d_18">
    <path clip-path="url(#p29056da4a8)" d="M 73.832727 293.493269 
L 74.239053 293.448294 
L 74.645379 295.254301 
L 75.051706 293.147937 
L 75.458032 295.267699 
L 77.489662 295.276699 
L 77.895988 293.047266 
L 78.302314 293.120966 
L 78.70864 295.256984 
L 79.114966 293.441366 
L 79.521293 295.261712 
L 80.333945 295.256971 
L 80.740271 294.791226 
L 81.552923 294.893275 
L 81.959249 294.740628 
L 82.365575 294.774894 
L 82.771901 294.343339 
L 83.178227 294.468762 
L 83.584553 294.176334 
L 83.99088 294.074777 
L 84.397206 294.37268 
L 84.803532 294.057042 
L 85.209858 294.036044 
L 85.616184 294.314415 
L 86.02251 295.354428 
L 86.428836 295.344514 
L 86.835162 295.150363 
L 87.241488 295.251071 
L 87.647814 295.138891 
L 88.05414 295.39561 
L 88.460466 295.157517 
L 88.866793 295.12039 
L 89.273119 294.163659 
L 89.679445 295.281032 
L 90.085771 295.045496 
L 91.304749 295.18657 
L 91.711075 294.904036 
L 92.117401 295.458378 
L 92.523727 294.938327 
L 92.930053 295.00929 
L 93.33638 295.254638 
L 93.742706 295.051432 
L 94.555358 295.173318 
L 94.961684 294.772103 
L 95.36801 295.29095 
L 95.774336 295.096713 
L 96.180662 295.060278 
L 96.586988 295.356856 
L 96.993314 291.87481 
L 97.39964 295.0358 
L 97.805967 293.74122 
L 98.212293 290.698935 
L 98.618619 293.408949 
L 99.024945 294.462364 
L 99.431271 295.064311 
L 99.837597 293.624258 
L 100.243923 295.340059 
L 100.650249 295.230226 
L 101.056575 295.291161 
L 101.462901 294.816619 
L 101.869227 295.186582 
L 102.275554 295.346662 
L 102.68188 295.19425 
L 103.088206 295.381145 
L 103.494532 294.58555 
L 103.900858 295.170455 
L 104.71351 295.313048 
L 105.119836 295.383618 
L 105.526162 295.256935 
L 106.338814 295.18716 
L 106.745141 292.530453 
L 107.151467 293.180484 
L 107.557793 295.158448 
L 108.776771 295.099269 
L 109.183097 295.187643 
L 109.995749 294.771447 
L 110.402075 294.789327 
L 110.808401 294.629398 
L 111.214728 295.428097 
L 112.02738 295.412384 
L 112.433706 295.416675 
L 112.840032 294.956534 
L 113.246358 294.897123 
L 113.652684 294.582345 
L 114.05901 295.336464 
L 114.465336 294.190164 
L 114.871662 295.340213 
L 115.277988 293.8585 
L 115.684314 295.052919 
L 116.090641 294.25211 
L 116.496967 292.051267 
L 116.903293 294.814746 
L 117.309619 295.324608 
L 117.715945 295.245655 
L 118.122271 294.59311 
L 118.528597 295.289162 
L 118.934923 295.244824 
L 119.341249 293.967141 
L 119.747575 295.085793 
L 121.37288 295.006797 
L 121.779206 293.898934 
L 122.185532 295.34278 
L 122.591858 294.090374 
L 123.40451 294.834731 
L 123.810836 294.252372 
L 124.217162 294.831191 
L 124.623488 293.218203 
L 125.029815 295.192607 
L 125.436141 295.23154 
L 125.842467 294.273386 
L 126.248793 295.43949 
L 126.655119 295.158585 
L 127.061445 293.320941 
L 127.467771 294.491733 
L 127.874097 294.288486 
L 128.280423 294.664648 
L 128.686749 294.706706 
L 129.499402 294.51485 
L 129.905728 295.334219 
L 130.312054 294.035708 
L 130.71838 294.028231 
L 131.124706 295.325987 
L 131.531032 294.006141 
L 131.937358 295.314226 
L 132.343684 294.465432 
L 133.156336 294.356398 
L 133.562662 294.485657 
L 133.968989 280.254226 
L 134.375315 294.894664 
L 134.781641 294.57559 
L 135.187967 295.071803 
L 135.594293 295.228156 
L 136.000619 295.165404 
L 136.406945 289.491756 
L 136.813271 294.629531 
L 137.219597 293.669664 
L 137.625923 288.530061 
L 138.032249 290.830644 
L 138.438575 291.478798 
L 138.844902 293.396342 
L 139.251228 289.221103 
L 139.657554 290.115314 
L 140.06388 293.690898 
L 140.470206 294.909974 
L 140.876532 292.419641 
L 141.282858 294.65468 
L 141.689184 295.322244 
L 142.09551 294.434108 
L 142.501836 294.579056 
L 142.908162 294.344262 
L 143.314489 294.606344 
L 143.720815 294.592307 
L 144.127141 295.224905 
L 144.533467 294.557349 
L 144.939793 294.552958 
L 145.346119 295.182181 
L 145.752445 294.546673 
L 147.784076 294.557672 
L 148.190402 295.311391 
L 148.596728 294.499666 
L 149.003054 295.426074 
L 149.40938 294.597256 
L 150.222032 294.397701 
L 150.628358 293.053121 
L 151.034684 293.811804 
L 155.504271 293.79018 
L 155.910597 293.022614 
L 156.316923 293.025034 
L 156.72325 294.405525 
L 157.129576 294.451078 
L 157.535902 294.363807 
L 157.942228 294.520916 
L 159.567532 294.552585 
L 159.973858 295.401363 
L 160.380184 294.513261 
L 160.78651 295.415224 
L 161.192837 295.416584 
L 161.599163 293.288498 
L 162.005489 292.015548 
L 162.411815 293.829171 
L 164.037119 293.964981 
L 164.849771 294.095654 
L 167.694054 294.167387 
L 170.13201 294.095435 
L 171.757315 293.833311 
L 172.163641 293.58695 
L 172.569967 292.658236 
L 174.601597 292.920594 
L 175.007924 293.932983 
L 176.226902 294.118806 
L 180.696489 294.247742 
L 181.102815 294.248027 
L 181.509141 294.115022 
L 182.321793 294.1477 
L 183.540771 293.892102 
L 183.947098 293.573715 
L 184.353424 293.42099 
L 185.166076 293.500287 
L 185.978728 293.794572 
L 188.823011 293.847049 
L 189.229337 293.712782 
L 189.635663 293.439292 
L 190.854641 293.208531 
L 192.073619 293.237973 
L 197.355858 293.606815 
L 198.981163 292.911451 
L 199.793815 292.856409 
L 201.012793 293.020799 
L 203.857076 293.692043 
L 206.295032 293.785878 
L 210.358293 293.796863 
L 212.79625 293.609253 
L 214.421554 293.325945 
L 216.046859 293.320515 
L 222.954402 293.784942 
L 223.360728 294.76314 
L 223.767054 295.330557 
L 224.579706 293.663502 
L 226.205011 293.721248 
L 226.611337 294.55458 
L 227.423989 294.510489 
L 227.830315 293.672926 
L 228.236641 294.511963 
L 228.642967 294.511309 
L 229.049293 293.699697 
L 230.268272 293.682382 
L 230.674598 293.153146 
L 232.706228 292.977178 
L 233.112554 292.956229 
L 233.51888 293.381687 
L 235.956837 293.375391 
L 237.175815 293.429171 
L 240.020098 293.311451 
L 242.458054 293.189775 
L 242.86438 293.38141 
L 243.270707 289.958881 
L 243.677033 290.387242 
L 244.489685 293.80729 
L 244.896011 295.19404 
L 245.302337 293.831924 
L 245.708663 295.196169 
L 246.114989 293.711822 
L 246.521315 293.686103 
L 246.927641 295.20429 
L 247.333967 293.686246 
L 247.740294 295.188916 
L 248.14662 293.427371 
L 248.959272 293.407808 
L 249.365598 294.888716 
L 249.771924 293.431016 
L 250.17825 294.441237 
L 250.584576 294.081226 
L 250.990902 293.955217 
L 251.397228 294.210072 
L 251.803554 294.650763 
L 252.209881 293.074793 
L 252.616207 294.805189 
L 253.428859 294.807204 
L 253.835185 295.335731 
L 254.241511 294.240586 
L 254.647837 293.96481 
L 257.898446 293.902756 
L 259.52375 293.981608 
L 259.930076 292.969876 
L 260.336402 294.443216 
L 260.742728 294.844304 
L 261.149054 292.956903 
L 261.555381 294.6853 
L 261.961707 294.686954 
L 262.368033 295.422186 
L 262.774359 293.367874 
L 263.180685 293.605461 
L 263.587011 292.349475 
L 263.993337 292.359509 
L 264.399663 295.119331 
L 264.805989 292.371936 
L 265.618641 292.361071 
L 266.024968 295.248444 
L 266.431294 292.534949 
L 266.83762 294.708993 
L 267.243946 292.921582 
L 267.650272 292.967282 
L 268.056598 294.819643 
L 268.462924 294.076212 
L 268.86925 292.213613 
L 269.275576 294.256952 
L 269.681902 292.720564 
L 270.088228 294.307219 
L 270.494555 294.821058 
L 270.900881 292.976081 
L 271.307207 295.107934 
L 271.713533 292.579852 
L 272.119859 292.216906 
L 272.526185 294.900469 
L 272.932511 291.828498 
L 273.338837 293.768784 
L 273.745163 291.707134 
L 274.151489 291.824491 
L 274.557815 293.811493 
L 274.964142 291.698076 
L 275.370468 293.877146 
L 275.776794 293.827858 
L 276.18312 292.010189 
L 276.589446 291.994631 
L 276.995772 293.903663 
L 277.402098 291.964877 
L 277.808424 293.909839 
L 278.21475 291.969171 
L 279.027402 292.01312 
L 279.433729 293.912858 
L 279.840055 292.044237 
L 280.246381 292.072925 
L 280.652707 294.756648 
L 281.059033 294.675473 
L 281.465359 293.453954 
L 283.090663 293.432734 
L 283.496989 293.401245 
L 283.903316 294.763306 
L 284.309642 294.764432 
L 284.715968 293.334546 
L 285.122294 293.256438 
L 285.52862 294.382515 
L 285.934946 293.082883 
L 286.341272 293.659614 
L 286.747598 293.703017 
L 287.153924 293.867777 
L 287.56025 294.618028 
L 287.966576 293.806228 
L 289.591881 293.863312 
L 289.998207 293.277136 
L 292.842489 293.309929 
L 293.248816 293.67555 
L 294.87412 293.666305 
L 295.280446 294.371364 
L 295.686772 294.605389 
L 296.093098 294.108417 
L 296.499424 293.226122 
L 297.312076 293.974394 
L 297.718403 293.222371 
L 300.156359 293.20378 
L 300.562685 281.405382 
L 300.969011 293.644672 
L 304.21962 293.688958 
L 304.625946 293.33301 
L 305.438598 293.347159 
L 305.844924 293.665748 
L 306.657577 293.681494 
L 307.063903 294.66589 
L 307.470229 293.679452 
L 307.876555 293.663786 
L 308.282881 293.998628 
L 308.689207 292.211564 
L 309.095533 293.803803 
L 309.908185 294.41813 
L 310.314511 294.931558 
L 310.720837 294.39124 
L 311.127163 294.933765 
L 311.53349 294.407148 
L 311.939816 294.989486 
L 312.346142 294.23326 
L 312.752468 295.003548 
L 313.158794 294.248723 
L 313.56512 295.004421 
L 313.971446 294.261097 
L 314.377772 294.998496 
L 314.784098 294.270591 
L 315.190424 295.033736 
L 315.59675 294.470625 
L 316.003077 295.026938 
L 316.409403 294.288461 
L 316.815729 294.991798 
L 317.222055 294.229348 
L 317.628381 295.121241 
L 318.034707 295.292579 
L 318.441033 295.134617 
L 318.847359 295.439526 
L 319.253685 293.989856 
L 319.660011 295.087558 
L 320.066337 295.370571 
L 320.472664 293.988914 
L 320.87899 295.101318 
L 321.285316 295.423523 
L 321.691642 293.986862 
L 322.097968 295.10611 
L 322.504294 295.488 
L 322.91062 293.983199 
L 323.316946 294.906177 
L 323.723272 293.966471 
L 324.129598 295.097065 
L 324.535924 295.338614 
L 324.942251 293.986148 
L 325.348577 295.190543 
L 326.161229 295.245326 
L 326.567555 293.998959 
L 326.973881 295.087777 
L 327.380207 295.403312 
L 327.786533 293.992292 
L 328.192859 294.332434 
L 328.599185 295.418394 
L 329.005511 293.98965 
L 329.411838 295.102246 
L 329.818164 294.017717 
L 330.22449 295.087533 
L 330.630816 295.424454 
L 331.037142 293.976329 
L 331.443468 295.080381 
L 331.849794 295.339656 
L 332.25612 293.992015 
L 332.662446 295.083467 
L 333.068772 295.339886 
L 333.475098 294.000581 
L 333.881425 295.09353 
L 334.287751 295.339786 
L 334.694077 294.008655 
L 335.100403 295.088159 
L 335.506729 295.425029 
L 335.913055 293.978949 
L 336.319381 295.189924 
L 336.725707 294.015506 
L 337.132033 295.087238 
L 337.538359 295.428609 
L 337.944685 293.986823 
L 338.351011 294.196612 
L 338.757338 294.023549 
L 339.163664 295.09597 
L 339.56999 295.459586 
L 339.976316 293.994988 
L 340.382642 295.082131 
L 340.788968 295.424048 
L 341.195294 294.002833 
L 341.60162 295.195272 
L 342.007946 293.989255 
L 342.414272 295.095508 
L 342.820598 293.992802 
L 343.226925 294.434433 
L 343.633251 294.063795 
L 344.039577 295.338798 
L 344.445903 294.099803 
L 344.852229 295.097201 
L 345.258555 295.40243 
L 345.664881 294.027117 
L 346.071207 295.092581 
L 346.477533 295.412001 
L 346.883859 294.033746 
L 347.290185 295.089216 
L 347.696512 295.456952 
L 348.102838 294.041819 
L 348.509164 295.097925 
L 348.91549 294.006529 
L 349.321816 295.192803 
L 349.728142 294.096337 
L 350.134468 295.193764 
L 350.540794 294.10151 
L 350.94712 295.094586 
L 351.353446 295.465268 
L 351.759772 294.041255 
L 352.166099 294.949495 
L 352.572425 295.461751 
L 352.978751 294.042884 
L 353.385077 295.00102 
L 353.791403 294.079359 
L 354.197729 295.086034 
L 354.604055 295.369597 
L 355.010381 294.04548 
L 355.416707 295.194445 
L 355.823033 294.095365 
L 356.229359 295.078289 
L 356.635686 295.469427 
L 357.042012 294.05656 
L 357.448338 295.078782 
L 357.854664 295.164622 
L 358.26099 294.079442 
L 358.667316 294.757115 
L 359.073642 294.121881 
L 359.479968 295.262421 
L 359.886294 294.125438 
L 360.29262 295.088517 
L 360.698946 294.037603 
L 361.105272 295.191187 
L 361.511599 294.125975 
L 361.917925 295.103164 
L 362.324251 294.042869 
L 362.730577 294.942638 
L 363.136903 294.1201 
L 363.543229 294.643727 
L 363.949555 294.130715 
L 364.355881 295.089852 
L 364.762207 294.052731 
L 365.168533 295.100413 
L 365.574859 294.047313 
L 365.981186 295.082796 
L 366.387512 294.04683 
L 366.793838 295.354046 
L 367.200164 294.15175 
L 367.60649 295.098671 
L 368.012816 294.058873 
L 368.419142 294.578277 
L 368.825468 294.05362 
L 369.231794 294.987199 
L 369.63812 294.13587 
L 370.044446 294.829749 
L 370.450773 294.058854 
L 370.857099 295.197153 
L 371.263425 294.129392 
L 371.669751 294.621813 
L 372.076077 294.69939 
L 372.482403 294.11128 
L 372.888729 295.064345 
L 373.295055 295.444852 
L 373.701381 294.118552 
L 374.107707 295.199371 
L 374.514033 294.128655 
L 374.92036 295.078062 
L 375.326686 295.420223 
L 375.733012 294.119068 
L 376.139338 284.906886 
L 376.545664 295.197773 
L 376.95199 295.06702 
L 377.358316 295.254094 
L 377.764642 294.127181 
L 378.577294 295.419548 
L 378.98362 294.125441 
L 379.389947 295.199193 
L 379.796273 294.134475 
L 380.202599 295.090517 
L 380.608925 295.447759 
L 381.015251 294.139794 
L 381.421577 295.078124 
L 381.827903 294.080999 
L 382.234229 293.47903 
L 383.453207 295.436955 
L 383.859534 294.118237 
L 384.26586 295.062605 
L 384.672186 295.344524 
L 385.078512 294.107363 
L 385.484838 295.057118 
L 385.891164 294.750778 
L 386.29749 294.102262 
L 386.703816 295.197223 
L 387.110142 295.200095 
L 387.516468 294.088844 
L 387.922794 294.079575 
L 388.32912 295.126179 
L 388.735447 294.089151 
L 389.141773 295.196815 
L 389.548099 295.166582 
L 389.954425 294.10093 
L 390.360751 295.065337 
L 390.767077 295.129553 
L 391.173403 294.121696 
L 391.579729 295.062041 
L 391.986055 295.22495 
L 392.392381 294.152331 
L 392.798707 294.970163 
L 393.205034 295.446718 
L 393.61136 294.13943 
L 394.017686 295.059689 
L 394.424012 295.443932 
L 394.830338 294.135042 
L 395.236664 295.058908 
L 395.64299 295.239191 
L 396.049316 294.151336 
L 396.455642 295.064733 
L 396.861968 295.016931 
L 397.268294 294.097824 
L 397.674621 295.050459 
L 398.080947 294.262453 
L 398.487273 295.211647 
L 398.487273 295.211647 
" style="fill:none;stroke:#ff7f0e;stroke-linecap:square;stroke-width:1.5;"/>
   </g>
   <g id="patch_3">
    <path d="M 57.6 307.584 
L 57.6 41.472 
" style="fill:none;stroke:#000000;stroke-linecap:square;stroke-linejoin:miter;stroke-width:0.8;"/>
   </g>
   <g id="patch_4">
    <path d="M 414.72 307.584 
L 414.72 41.472 
" style="fill:none;stroke:#000000;stroke-linecap:square;stroke-linejoin:miter;stroke-width:0.8;"/>
   </g>
   <g id="patch_5">
    <path d="M 57.6 307.584 
L 414.72 307.584 
" style="fill:none;stroke:#000000;stroke-linecap:square;stroke-linejoin:miter;stroke-width:0.8;"/>
   </g>
   <g id="patch_6">
    <path d="M 57.6 41.472 
L 414.72 41.472 
" style="fill:none;stroke:#000000;stroke-linecap:square;stroke-linejoin:miter;stroke-width:0.8;"/>
   </g>
  </g>
 </g>
 <defs>
  <clipPath id="p29056da4a8">
   <rect height="266.112" width="357.12" x="57.6" y="41.472"/>
  </clipPath>
 </defs>
</svg>
