<?xml version="1.0" encoding="utf-8" standalone="no"?>
<!DOCTYPE svg PUBLIC "-//W3C//DTD SVG 1.1//EN"
  "http://www.w3.org/Graphics/SVG/1.1/DTD/svg11.dtd">
<!-- Created with matplotlib (https://matplotlib.org/) -->
<svg height="345.6pt" version="1.1" viewBox="0 0 460.8 345.6" width="460.8pt" xmlns="http://www.w3.org/2000/svg" xmlns:xlink="http://www.w3.org/1999/xlink">
 <defs>
  <style type="text/css">
*{stroke-linecap:butt;stroke-linejoin:round;}
  </style>
 </defs>
 <g id="figure_1">
  <g id="patch_1">
   <path d="M 0 345.6 
L 460.8 345.6 
L 460.8 0 
L 0 0 
z
" style="fill:#ffffff;"/>
  </g>
  <g id="axes_1">
   <g id="patch_2">
    <path d="M 57.6 307.584 
L 414.72 307.584 
L 414.72 41.472 
L 57.6 41.472 
z
" style="fill:#ffffff;"/>
   </g>
   <g id="matplotlib.axis_1">
    <g id="xtick_1">
     <g id="line2d_1">
      <defs>
       <path d="M 0 0 
L 0 3.5 
" id="m7ab544b575" style="stroke:#000000;stroke-width:0.8;"/>
      </defs>
      <g>
       <use style="stroke:#000000;stroke-width:0.8;" x="73.832727" xlink:href="#m7ab544b575" y="307.584"/>
      </g>
     </g>
     <g id="text_1">
      <!-- 0 -->
      <defs>
       <path d="M 31.78125 66.40625 
Q 24.171875 66.40625 20.328125 58.90625 
Q 16.5 51.421875 16.5 36.375 
Q 16.5 21.390625 20.328125 13.890625 
Q 24.171875 6.390625 31.78125 6.390625 
Q 39.453125 6.390625 43.28125 13.890625 
Q 47.125 21.390625 47.125 36.375 
Q 47.125 51.421875 43.28125 58.90625 
Q 39.453125 66.40625 31.78125 66.40625 
z
M 31.78125 74.21875 
Q 44.046875 74.21875 50.515625 64.515625 
Q 56.984375 54.828125 56.984375 36.375 
Q 56.984375 17.96875 50.515625 8.265625 
Q 44.046875 -1.421875 31.78125 -1.421875 
Q 19.53125 -1.421875 13.0625 8.265625 
Q 6.59375 17.96875 6.59375 36.375 
Q 6.59375 54.828125 13.0625 64.515625 
Q 19.53125 74.21875 31.78125 74.21875 
z
" id="DejaVuSans-48"/>
      </defs>
      <g transform="translate(70.651477 322.182437)scale(0.1 -0.1)">
       <use xlink:href="#DejaVuSans-48"/>
      </g>
     </g>
    </g>
    <g id="xtick_2">
     <g id="line2d_2">
      <g>
       <use style="stroke:#000000;stroke-width:0.8;" x="114.465336" xlink:href="#m7ab544b575" y="307.584"/>
      </g>
     </g>
     <g id="text_2">
      <!-- 100 -->
      <defs>
       <path d="M 12.40625 8.296875 
L 28.515625 8.296875 
L 28.515625 63.921875 
L 10.984375 60.40625 
L 10.984375 69.390625 
L 28.421875 72.90625 
L 38.28125 72.90625 
L 38.28125 8.296875 
L 54.390625 8.296875 
L 54.390625 0 
L 12.40625 0 
z
" id="DejaVuSans-49"/>
      </defs>
      <g transform="translate(104.921586 322.182437)scale(0.1 -0.1)">
       <use xlink:href="#DejaVuSans-49"/>
       <use x="63.623047" xlink:href="#DejaVuSans-48"/>
       <use x="127.246094" xlink:href="#DejaVuSans-48"/>
      </g>
     </g>
    </g>
    <g id="xtick_3">
     <g id="line2d_3">
      <g>
       <use style="stroke:#000000;stroke-width:0.8;" x="155.097945" xlink:href="#m7ab544b575" y="307.584"/>
      </g>
     </g>
     <g id="text_3">
      <!-- 200 -->
      <defs>
       <path d="M 19.1875 8.296875 
L 53.609375 8.296875 
L 53.609375 0 
L 7.328125 0 
L 7.328125 8.296875 
Q 12.9375 14.109375 22.625 23.890625 
Q 32.328125 33.6875 34.8125 36.53125 
Q 39.546875 41.84375 41.421875 45.53125 
Q 43.3125 49.21875 43.3125 52.78125 
Q 43.3125 58.59375 39.234375 62.25 
Q 35.15625 65.921875 28.609375 65.921875 
Q 23.96875 65.921875 18.8125 64.3125 
Q 13.671875 62.703125 7.8125 59.421875 
L 7.8125 69.390625 
Q 13.765625 71.78125 18.9375 73 
Q 24.125 74.21875 28.421875 74.21875 
Q 39.75 74.21875 46.484375 68.546875 
Q 53.21875 62.890625 53.21875 53.421875 
Q 53.21875 48.921875 51.53125 44.890625 
Q 49.859375 40.875 45.40625 35.40625 
Q 44.1875 33.984375 37.640625 27.21875 
Q 31.109375 20.453125 19.1875 8.296875 
z
" id="DejaVuSans-50"/>
      </defs>
      <g transform="translate(145.554195 322.182437)scale(0.1 -0.1)">
       <use xlink:href="#DejaVuSans-50"/>
       <use x="63.623047" xlink:href="#DejaVuSans-48"/>
       <use x="127.246094" xlink:href="#DejaVuSans-48"/>
      </g>
     </g>
    </g>
    <g id="xtick_4">
     <g id="line2d_4">
      <g>
       <use style="stroke:#000000;stroke-width:0.8;" x="195.730554" xlink:href="#m7ab544b575" y="307.584"/>
      </g>
     </g>
     <g id="text_4">
      <!-- 300 -->
      <defs>
       <path d="M 40.578125 39.3125 
Q 47.65625 37.796875 51.625 33 
Q 55.609375 28.21875 55.609375 21.1875 
Q 55.609375 10.40625 48.1875 4.484375 
Q 40.765625 -1.421875 27.09375 -1.421875 
Q 22.515625 -1.421875 17.65625 -0.515625 
Q 12.796875 0.390625 7.625 2.203125 
L 7.625 11.71875 
Q 11.71875 9.328125 16.59375 8.109375 
Q 21.484375 6.890625 26.8125 6.890625 
Q 36.078125 6.890625 40.9375 10.546875 
Q 45.796875 14.203125 45.796875 21.1875 
Q 45.796875 27.640625 41.28125 31.265625 
Q 36.765625 34.90625 28.71875 34.90625 
L 20.21875 34.90625 
L 20.21875 43.015625 
L 29.109375 43.015625 
Q 36.375 43.015625 40.234375 45.921875 
Q 44.09375 48.828125 44.09375 54.296875 
Q 44.09375 59.90625 40.109375 62.90625 
Q 36.140625 65.921875 28.71875 65.921875 
Q 24.65625 65.921875 20.015625 65.03125 
Q 15.375 64.15625 9.8125 62.3125 
L 9.8125 71.09375 
Q 15.4375 72.65625 20.34375 73.4375 
Q 25.25 74.21875 29.59375 74.21875 
Q 40.828125 74.21875 47.359375 69.109375 
Q 53.90625 64.015625 53.90625 55.328125 
Q 53.90625 49.265625 50.4375 45.09375 
Q 46.96875 40.921875 40.578125 39.3125 
z
" id="DejaVuSans-51"/>
      </defs>
      <g transform="translate(186.186804 322.182437)scale(0.1 -0.1)">
       <use xlink:href="#DejaVuSans-51"/>
       <use x="63.623047" xlink:href="#DejaVuSans-48"/>
       <use x="127.246094" xlink:href="#DejaVuSans-48"/>
      </g>
     </g>
    </g>
    <g id="xtick_5">
     <g id="line2d_5">
      <g>
       <use style="stroke:#000000;stroke-width:0.8;" x="236.363163" xlink:href="#m7ab544b575" y="307.584"/>
      </g>
     </g>
     <g id="text_5">
      <!-- 400 -->
      <defs>
       <path d="M 37.796875 64.3125 
L 12.890625 25.390625 
L 37.796875 25.390625 
z
M 35.203125 72.90625 
L 47.609375 72.90625 
L 47.609375 25.390625 
L 58.015625 25.390625 
L 58.015625 17.1875 
L 47.609375 17.1875 
L 47.609375 0 
L 37.796875 0 
L 37.796875 17.1875 
L 4.890625 17.1875 
L 4.890625 26.703125 
z
" id="DejaVuSans-52"/>
      </defs>
      <g transform="translate(226.819413 322.182437)scale(0.1 -0.1)">
       <use xlink:href="#DejaVuSans-52"/>
       <use x="63.623047" xlink:href="#DejaVuSans-48"/>
       <use x="127.246094" xlink:href="#DejaVuSans-48"/>
      </g>
     </g>
    </g>
    <g id="xtick_6">
     <g id="line2d_6">
      <g>
       <use style="stroke:#000000;stroke-width:0.8;" x="276.995772" xlink:href="#m7ab544b575" y="307.584"/>
      </g>
     </g>
     <g id="text_6">
      <!-- 500 -->
      <defs>
       <path d="M 10.796875 72.90625 
L 49.515625 72.90625 
L 49.515625 64.59375 
L 19.828125 64.59375 
L 19.828125 46.734375 
Q 21.96875 47.46875 24.109375 47.828125 
Q 26.265625 48.1875 28.421875 48.1875 
Q 40.625 48.1875 47.75 41.5 
Q 54.890625 34.8125 54.890625 23.390625 
Q 54.890625 11.625 47.5625 5.09375 
Q 40.234375 -1.421875 26.90625 -1.421875 
Q 22.3125 -1.421875 17.546875 -0.640625 
Q 12.796875 0.140625 7.71875 1.703125 
L 7.71875 11.625 
Q 12.109375 9.234375 16.796875 8.0625 
Q 21.484375 6.890625 26.703125 6.890625 
Q 35.15625 6.890625 40.078125 11.328125 
Q 45.015625 15.765625 45.015625 23.390625 
Q 45.015625 31 40.078125 35.4375 
Q 35.15625 39.890625 26.703125 39.890625 
Q 22.75 39.890625 18.8125 39.015625 
Q 14.890625 38.140625 10.796875 36.28125 
z
" id="DejaVuSans-53"/>
      </defs>
      <g transform="translate(267.452022 322.182437)scale(0.1 -0.1)">
       <use xlink:href="#DejaVuSans-53"/>
       <use x="63.623047" xlink:href="#DejaVuSans-48"/>
       <use x="127.246094" xlink:href="#DejaVuSans-48"/>
      </g>
     </g>
    </g>
    <g id="xtick_7">
     <g id="line2d_7">
      <g>
       <use style="stroke:#000000;stroke-width:0.8;" x="317.628381" xlink:href="#m7ab544b575" y="307.584"/>
      </g>
     </g>
     <g id="text_7">
      <!-- 600 -->
      <defs>
       <path d="M 33.015625 40.375 
Q 26.375 40.375 22.484375 35.828125 
Q 18.609375 31.296875 18.609375 23.390625 
Q 18.609375 15.53125 22.484375 10.953125 
Q 26.375 6.390625 33.015625 6.390625 
Q 39.65625 6.390625 43.53125 10.953125 
Q 47.40625 15.53125 47.40625 23.390625 
Q 47.40625 31.296875 43.53125 35.828125 
Q 39.65625 40.375 33.015625 40.375 
z
M 52.59375 71.296875 
L 52.59375 62.3125 
Q 48.875 64.0625 45.09375 64.984375 
Q 41.3125 65.921875 37.59375 65.921875 
Q 27.828125 65.921875 22.671875 59.328125 
Q 17.53125 52.734375 16.796875 39.40625 
Q 19.671875 43.65625 24.015625 45.921875 
Q 28.375 48.1875 33.59375 48.1875 
Q 44.578125 48.1875 50.953125 41.515625 
Q 57.328125 34.859375 57.328125 23.390625 
Q 57.328125 12.15625 50.6875 5.359375 
Q 44.046875 -1.421875 33.015625 -1.421875 
Q 20.359375 -1.421875 13.671875 8.265625 
Q 6.984375 17.96875 6.984375 36.375 
Q 6.984375 53.65625 15.1875 63.9375 
Q 23.390625 74.21875 37.203125 74.21875 
Q 40.921875 74.21875 44.703125 73.484375 
Q 48.484375 72.75 52.59375 71.296875 
z
" id="DejaVuSans-54"/>
      </defs>
      <g transform="translate(308.084631 322.182437)scale(0.1 -0.1)">
       <use xlink:href="#DejaVuSans-54"/>
       <use x="63.623047" xlink:href="#DejaVuSans-48"/>
       <use x="127.246094" xlink:href="#DejaVuSans-48"/>
      </g>
     </g>
    </g>
    <g id="xtick_8">
     <g id="line2d_8">
      <g>
       <use style="stroke:#000000;stroke-width:0.8;" x="358.26099" xlink:href="#m7ab544b575" y="307.584"/>
      </g>
     </g>
     <g id="text_8">
      <!-- 700 -->
      <defs>
       <path d="M 8.203125 72.90625 
L 55.078125 72.90625 
L 55.078125 68.703125 
L 28.609375 0 
L 18.3125 0 
L 43.21875 64.59375 
L 8.203125 64.59375 
z
" id="DejaVuSans-55"/>
      </defs>
      <g transform="translate(348.71724 322.182437)scale(0.1 -0.1)">
       <use xlink:href="#DejaVuSans-55"/>
       <use x="63.623047" xlink:href="#DejaVuSans-48"/>
       <use x="127.246094" xlink:href="#DejaVuSans-48"/>
      </g>
     </g>
    </g>
    <g id="xtick_9">
     <g id="line2d_9">
      <g>
       <use style="stroke:#000000;stroke-width:0.8;" x="398.893599" xlink:href="#m7ab544b575" y="307.584"/>
      </g>
     </g>
     <g id="text_9">
      <!-- 800 -->
      <defs>
       <path d="M 31.78125 34.625 
Q 24.75 34.625 20.71875 30.859375 
Q 16.703125 27.09375 16.703125 20.515625 
Q 16.703125 13.921875 20.71875 10.15625 
Q 24.75 6.390625 31.78125 6.390625 
Q 38.8125 6.390625 42.859375 10.171875 
Q 46.921875 13.96875 46.921875 20.515625 
Q 46.921875 27.09375 42.890625 30.859375 
Q 38.875 34.625 31.78125 34.625 
z
M 21.921875 38.8125 
Q 15.578125 40.375 12.03125 44.71875 
Q 8.5 49.078125 8.5 55.328125 
Q 8.5 64.0625 14.71875 69.140625 
Q 20.953125 74.21875 31.78125 74.21875 
Q 42.671875 74.21875 48.875 69.140625 
Q 55.078125 64.0625 55.078125 55.328125 
Q 55.078125 49.078125 51.53125 44.71875 
Q 48 40.375 41.703125 38.8125 
Q 48.828125 37.15625 52.796875 32.3125 
Q 56.78125 27.484375 56.78125 20.515625 
Q 56.78125 9.90625 50.3125 4.234375 
Q 43.84375 -1.421875 31.78125 -1.421875 
Q 19.734375 -1.421875 13.25 4.234375 
Q 6.78125 9.90625 6.78125 20.515625 
Q 6.78125 27.484375 10.78125 32.3125 
Q 14.796875 37.15625 21.921875 38.8125 
z
M 18.3125 54.390625 
Q 18.3125 48.734375 21.84375 45.5625 
Q 25.390625 42.390625 31.78125 42.390625 
Q 38.140625 42.390625 41.71875 45.5625 
Q 45.3125 48.734375 45.3125 54.390625 
Q 45.3125 60.0625 41.71875 63.234375 
Q 38.140625 66.40625 31.78125 66.40625 
Q 25.390625 66.40625 21.84375 63.234375 
Q 18.3125 60.0625 18.3125 54.390625 
z
" id="DejaVuSans-56"/>
      </defs>
      <g transform="translate(389.349849 322.182437)scale(0.1 -0.1)">
       <use xlink:href="#DejaVuSans-56"/>
       <use x="63.623047" xlink:href="#DejaVuSans-48"/>
       <use x="127.246094" xlink:href="#DejaVuSans-48"/>
      </g>
     </g>
    </g>
   </g>
   <g id="matplotlib.axis_2">
    <g id="ytick_1">
     <g id="line2d_10">
      <defs>
       <path d="M 0 0 
L -3.5 0 
" id="mf73feda453" style="stroke:#000000;stroke-width:0.8;"/>
      </defs>
      <g>
       <use style="stroke:#000000;stroke-width:0.8;" x="57.6" xlink:href="#mf73feda453" y="258.556"/>
      </g>
     </g>
     <g id="text_10">
      <!-- 0.3 -->
      <defs>
       <path d="M 10.6875 12.40625 
L 21 12.40625 
L 21 0 
L 10.6875 0 
z
" id="DejaVuSans-46"/>
      </defs>
      <g transform="translate(34.696875 262.355218)scale(0.1 -0.1)">
       <use xlink:href="#DejaVuSans-48"/>
       <use x="63.623047" xlink:href="#DejaVuSans-46"/>
       <use x="95.410156" xlink:href="#DejaVuSans-51"/>
      </g>
     </g>
    </g>
    <g id="ytick_2">
     <g id="line2d_11">
      <g>
       <use style="stroke:#000000;stroke-width:0.8;" x="57.6" xlink:href="#mf73feda453" y="202.015428"/>
      </g>
     </g>
     <g id="text_11">
      <!-- 0.4 -->
      <g transform="translate(34.696875 205.814647)scale(0.1 -0.1)">
       <use xlink:href="#DejaVuSans-48"/>
       <use x="63.623047" xlink:href="#DejaVuSans-46"/>
       <use x="95.410156" xlink:href="#DejaVuSans-52"/>
      </g>
     </g>
    </g>
    <g id="ytick_3">
     <g id="line2d_12">
      <g>
       <use style="stroke:#000000;stroke-width:0.8;" x="57.6" xlink:href="#mf73feda453" y="145.474857"/>
      </g>
     </g>
     <g id="text_12">
      <!-- 0.5 -->
      <g transform="translate(34.696875 149.274076)scale(0.1 -0.1)">
       <use xlink:href="#DejaVuSans-48"/>
       <use x="63.623047" xlink:href="#DejaVuSans-46"/>
       <use x="95.410156" xlink:href="#DejaVuSans-53"/>
      </g>
     </g>
    </g>
    <g id="ytick_4">
     <g id="line2d_13">
      <g>
       <use style="stroke:#000000;stroke-width:0.8;" x="57.6" xlink:href="#mf73feda453" y="88.934285"/>
      </g>
     </g>
     <g id="text_13">
      <!-- 0.6 -->
      <g transform="translate(34.696875 92.733504)scale(0.1 -0.1)">
       <use xlink:href="#DejaVuSans-48"/>
       <use x="63.623047" xlink:href="#DejaVuSans-46"/>
       <use x="95.410156" xlink:href="#DejaVuSans-54"/>
      </g>
     </g>
    </g>
   </g>
   <g id="line2d_14">
    <path clip-path="url(#p6d0f6b9558)" d="M 73.832727 141.422763 
L 74.239053 154.462969 
L 75.051706 127.333504 
L 75.458032 125.433923 
L 75.864358 120.956524 
L 76.270684 123.362781 
L 76.67701 124.44499 
L 77.083336 124.499286 
L 77.489662 127.799853 
L 77.895988 134.591205 
L 78.302314 137.581681 
L 78.70864 141.661722 
L 79.521293 147.348147 
L 79.927619 148.347197 
L 80.333945 149.808488 
L 80.740271 151.97981 
L 81.146597 150.163201 
L 81.552923 149.679794 
L 82.365575 142.819683 
L 82.771901 144.625928 
L 83.178227 140.253669 
L 83.584553 134.230958 
L 84.397206 127.899461 
L 84.803532 122.076983 
L 85.209858 121.73655 
L 85.616184 122.961646 
L 86.02251 116.385787 
L 86.835162 113.051976 
L 87.241488 112.444912 
L 87.647814 112.331984 
L 88.460466 108.979134 
L 88.866793 110.3234 
L 89.679445 106.574184 
L 90.085771 107.809723 
L 90.492097 107.24465 
L 91.304749 106.465667 
L 91.711075 103.321301 
L 92.117401 103.48053 
L 92.523727 102.868825 
L 92.930053 103.627569 
L 93.33638 102.68721 
L 94.149032 102.569537 
L 94.555358 101.80709 
L 94.961684 98.806359 
L 95.36801 99.855029 
L 95.774336 100.552636 
L 96.180662 100.957081 
L 96.586988 99.556798 
L 96.993314 99.116051 
L 97.39964 98.473309 
L 97.805967 98.914912 
L 98.212293 98.519213 
L 98.618619 96.987174 
L 99.837597 97.399697 
L 100.650249 98.041223 
L 101.462901 98.855568 
L 101.869227 97.958317 
L 102.275554 98.440453 
L 102.68188 100.436466 
L 103.088206 101.043709 
L 103.494532 101.198178 
L 104.71351 104.136208 
L 105.526162 106.784077 
L 105.932488 107.403189 
L 106.338814 108.843352 
L 107.557793 110.799411 
L 107.964119 110.855652 
L 108.370445 111.636316 
L 109.183097 112.270405 
L 109.589423 112.444834 
L 109.995749 113.152544 
L 110.402075 112.111345 
L 110.808401 111.760685 
L 111.621054 109.834803 
L 112.02738 110.156008 
L 112.433706 108.167949 
L 113.246358 106.254202 
L 113.652684 106.75324 
L 114.05901 106.302709 
L 115.684314 103.054272 
L 116.496967 100.723736 
L 116.903293 101.493714 
L 117.715945 101.125109 
L 118.122271 100.038197 
L 118.528597 99.937853 
L 118.934923 99.557653 
L 119.341249 99.544148 
L 120.153901 99.856562 
L 120.966554 100.851917 
L 121.37288 100.988439 
L 122.185532 102.582474 
L 122.591858 102.617335 
L 122.998184 103.401427 
L 123.40451 103.725711 
L 124.623488 103.666551 
L 125.029815 104.061471 
L 125.436141 106.208335 
L 125.842467 104.139927 
L 126.248793 105.77951 
L 126.655119 106.085681 
L 127.061445 107.071974 
L 127.467771 107.101153 
L 127.874097 107.898711 
L 128.280423 105.033745 
L 128.686749 105.30186 
L 129.093075 104.096005 
L 129.499402 104.287559 
L 129.905728 102.657898 
L 130.71838 101.133479 
L 131.124706 104.187515 
L 131.531032 100.907189 
L 131.937358 102.682619 
L 132.343684 102.909221 
L 133.156336 99.283692 
L 133.562662 99.140412 
L 133.968989 98.851445 
L 134.375315 99.197989 
L 134.781641 98.989679 
L 135.594293 98.129156 
L 136.000619 98.019681 
L 136.406945 99.546044 
L 136.813271 99.646052 
L 137.219597 100.643557 
L 137.625923 98.869951 
L 138.032249 97.666604 
L 138.438575 98.094119 
L 138.844902 98.090925 
L 139.251228 99.207661 
L 139.657554 97.916247 
L 140.470206 97.690216 
L 141.282858 97.754295 
L 141.689184 98.097812 
L 142.09551 100.664928 
L 142.501836 100.083799 
L 142.908162 100.119727 
L 143.720815 98.410874 
L 144.127141 98.87172 
L 144.533467 99.083607 
L 144.939793 98.877149 
L 145.346119 98.421579 
L 145.752445 98.223324 
L 146.158771 98.218702 
L 146.565097 98.562802 
L 146.971423 97.294552 
L 148.190402 95.566985 
L 148.596728 95.794375 
L 149.003054 96.303608 
L 149.815706 96.267269 
L 150.222032 95.588636 
L 150.628358 95.39755 
L 151.034684 96.120433 
L 151.847336 96.134154 
L 152.253663 95.777226 
L 152.659989 95.572993 
L 153.066315 93.961724 
L 153.472641 94.317193 
L 153.878967 94.047379 
L 154.285293 94.230416 
L 154.691619 93.872102 
L 155.097945 92.934542 
L 155.910597 94.041983 
L 156.316923 92.832335 
L 156.72325 93.251739 
L 157.129576 95.090154 
L 157.942228 93.276114 
L 158.348554 95.62506 
L 159.567532 94.096797 
L 159.973858 95.201001 
L 160.78651 92.965351 
L 161.192837 91.757862 
L 161.599163 93.186874 
L 162.005489 93.263485 
L 162.411815 93.018267 
L 162.818141 93.570642 
L 163.630793 96.582626 
L 164.037119 95.595459 
L 164.443445 95.527721 
L 164.849771 94.730773 
L 165.256097 96.414282 
L 165.662423 97.024084 
L 166.06875 93.704311 
L 166.475076 95.406046 
L 166.881402 95.677849 
L 167.287728 97.323256 
L 168.10038 93.275079 
L 168.506706 93.711664 
L 168.913032 93.333732 
L 169.319358 94.069545 
L 169.725684 95.201378 
L 170.13201 94.128325 
L 170.538337 94.431603 
L 170.944663 95.312426 
L 171.757315 93.402101 
L 172.163641 93.567558 
L 172.569967 92.675183 
L 172.976293 92.59721 
L 173.382619 91.410473 
L 173.788945 91.035569 
L 174.195271 90.353331 
L 174.601597 90.395761 
L 175.007924 90.014046 
L 175.41425 90.612257 
L 175.820576 90.996049 
L 176.226902 91.021013 
L 176.633228 90.686233 
L 177.039554 90.557144 
L 177.44588 91.226823 
L 178.664858 89.023315 
L 179.477511 89.777981 
L 179.883837 90.543491 
L 180.290163 90.090424 
L 180.696489 90.244287 
L 181.102815 89.895521 
L 181.509141 90.109971 
L 182.321793 94.587172 
L 182.728119 90.908356 
L 183.134445 90.390864 
L 183.540771 90.798395 
L 183.947098 89.689124 
L 184.353424 89.596107 
L 185.572402 89.872293 
L 185.978728 90.318801 
L 186.385054 90.316885 
L 187.197706 87.971043 
L 187.604032 87.190582 
L 188.010358 87.509752 
L 188.416684 90.594207 
L 188.823011 89.995672 
L 189.229337 89.755159 
L 189.635663 88.297349 
L 190.041989 89.120714 
L 190.448315 91.247236 
L 190.854641 89.532318 
L 191.260967 91.269129 
L 191.667293 89.722065 
L 192.886271 86.906603 
L 193.698924 88.721164 
L 194.10525 92.016803 
L 194.511576 91.542839 
L 194.917902 89.636952 
L 195.324228 89.804624 
L 195.730554 88.37667 
L 196.13688 87.629834 
L 196.543206 89.379764 
L 196.949532 87.20833 
L 197.355858 86.243546 
L 197.762185 85.95001 
L 198.168511 86.174616 
L 198.981163 87.456256 
L 199.793815 86.567807 
L 200.606467 87.361999 
L 201.012793 89.216882 
L 201.419119 89.261699 
L 201.825445 87.075117 
L 202.231772 86.546234 
L 202.638098 88.227502 
L 203.044424 89.041158 
L 203.45075 88.940556 
L 203.857076 87.014578 
L 204.263402 87.495952 
L 204.669728 92.396259 
L 205.076054 89.262755 
L 205.48238 88.668875 
L 205.888706 87.262722 
L 207.107685 86.818648 
L 207.514011 86.75825 
L 207.920337 87.596738 
L 208.326663 88.945646 
L 208.732989 88.641558 
L 209.139315 87.551867 
L 209.545641 87.333633 
L 210.358293 86.478873 
L 211.170946 86.818586 
L 211.577272 86.807602 
L 211.983598 85.604553 
L 213.202576 84.125005 
L 213.608902 84.562873 
L 214.015228 83.82002 
L 214.421554 82.48133 
L 214.82788 82.919973 
L 215.234206 82.872549 
L 215.640532 83.51474 
L 216.046859 82.730448 
L 216.453185 80.865725 
L 216.859511 82.081608 
L 217.265837 82.010249 
L 217.672163 81.344512 
L 218.078489 81.003307 
L 218.484815 82.02117 
L 218.891141 81.539248 
L 219.297467 80.734309 
L 219.703793 80.635622 
L 220.922772 80.81209 
L 221.735424 81.005868 
L 222.14175 81.036759 
L 222.548076 81.417318 
L 223.767054 81.977133 
L 224.17338 81.900875 
L 224.579706 85.538012 
L 224.986033 82.485134 
L 225.392359 82.009741 
L 226.205011 81.778597 
L 229.049293 81.524077 
L 229.45562 82.274915 
L 230.268272 81.176308 
L 230.674598 81.784643 
L 231.080924 80.947874 
L 231.48725 81.946538 
L 231.893576 81.467696 
L 232.299902 82.444839 
L 232.706228 81.388456 
L 233.112554 80.842416 
L 233.925207 78.350731 
L 234.331533 77.906971 
L 234.737859 79.439209 
L 235.144185 76.818943 
L 235.550511 76.290976 
L 235.956837 75.545472 
L 236.363163 75.542623 
L 236.769489 73.525951 
L 237.175815 74.396568 
L 237.582141 73.870564 
L 237.988467 72.885968 
L 238.394793 75.942429 
L 238.80112 74.656552 
L 239.613772 73.554441 
L 240.020098 74.280795 
L 240.426424 73.332646 
L 240.83275 72.913212 
L 241.239076 73.241979 
L 241.645402 74.147079 
L 242.051728 77.151327 
L 242.458054 75.310767 
L 242.86438 76.783196 
L 243.270707 76.690837 
L 243.677033 79.788895 
L 244.083359 79.815939 
L 244.489685 79.539206 
L 245.302337 78.208121 
L 245.708663 79.749209 
L 246.114989 80.025587 
L 246.521315 79.24454 
L 246.927641 80.696661 
L 247.333967 80.270666 
L 248.14662 81.207826 
L 248.552946 81.211267 
L 248.959272 81.830867 
L 249.365598 80.218054 
L 249.771924 80.556773 
L 250.17825 81.856791 
L 250.584576 80.431863 
L 250.990902 80.036164 
L 251.397228 80.33286 
L 251.803554 80.487169 
L 252.209881 80.980182 
L 252.616207 79.592466 
L 253.022533 79.705916 
L 253.428859 78.206206 
L 253.835185 77.720975 
L 254.241511 77.591389 
L 254.647837 75.727423 
L 255.054163 75.658554 
L 255.460489 75.361945 
L 255.866815 75.480882 
L 257.085794 74.692629 
L 257.49212 74.533523 
L 257.898446 74.630994 
L 258.304772 74.147217 
L 258.711098 74.043632 
L 259.117424 75.320346 
L 259.52375 75.679099 
L 259.930076 74.858837 
L 260.336402 74.742611 
L 261.149054 74.945293 
L 261.555381 75.73681 
L 261.961707 75.736303 
L 262.368033 75.560117 
L 262.774359 76.065551 
L 263.180685 75.723354 
L 263.587011 75.653485 
L 263.993337 75.785752 
L 264.399663 75.471184 
L 264.805989 74.456681 
L 265.212315 74.479686 
L 265.618641 72.842249 
L 266.024968 75.187476 
L 266.431294 75.427723 
L 266.83762 74.446209 
L 267.243946 75.565714 
L 267.650272 74.003353 
L 268.056598 73.815113 
L 268.462924 73.300256 
L 268.86925 73.23241 
L 269.275576 72.943406 
L 269.681902 73.280265 
L 270.088228 74.024929 
L 270.494555 73.614839 
L 270.900881 73.629818 
L 271.307207 72.763219 
L 271.713533 72.932005 
L 272.119859 72.123957 
L 272.526185 74.974458 
L 273.338837 73.43251 
L 273.745163 73.317748 
L 274.151489 75.755161 
L 274.557815 74.325541 
L 274.964142 73.912665 
L 275.370468 73.72958 
L 275.776794 72.980254 
L 276.589446 74.21597 
L 276.995772 72.780732 
L 277.808424 73.291799 
L 278.21475 74.080079 
L 278.621076 73.000524 
L 279.027402 73.197214 
L 279.433729 74.108985 
L 279.840055 74.129574 
L 280.652707 75.524512 
L 281.059033 72.592037 
L 281.465359 72.785029 
L 281.871685 72.054859 
L 282.278011 74.228051 
L 282.684337 75.763069 
L 283.090663 71.687598 
L 283.496989 71.048086 
L 283.903316 70.797192 
L 284.309642 69.858404 
L 285.122294 69.409217 
L 285.52862 68.670566 
L 285.934946 68.703358 
L 286.341272 68.887461 
L 286.747598 69.47677 
L 287.56025 69.986243 
L 287.966576 70.293827 
L 288.372902 69.343859 
L 288.779229 70.007 
L 289.185555 70.228488 
L 289.591881 71.468402 
L 289.998207 71.08556 
L 290.810859 69.864611 
L 291.217185 69.539785 
L 291.623511 69.827164 
L 292.029837 69.840419 
L 292.842489 70.90159 
L 293.248816 70.444993 
L 293.655142 70.659559 
L 294.061468 70.410369 
L 294.467794 74.05266 
L 294.87412 71.30697 
L 295.280446 71.770878 
L 295.686772 71.373996 
L 296.093098 71.970681 
L 296.499424 72.178042 
L 296.90575 70.952021 
L 297.312076 70.859007 
L 297.718403 71.381346 
L 298.124729 70.267924 
L 298.937381 72.237743 
L 299.343707 70.405414 
L 299.750033 69.662507 
L 300.156359 69.29861 
L 300.562685 69.499379 
L 300.969011 69.403384 
L 301.375337 68.98316 
L 301.781663 69.017035 
L 302.18799 68.884604 
L 302.594316 68.199429 
L 303.000642 68.221667 
L 303.406968 67.543859 
L 303.813294 67.57689 
L 304.21962 68.358131 
L 304.625946 68.667807 
L 305.032272 68.429168 
L 305.438598 68.332431 
L 305.844924 67.993004 
L 306.25125 68.326409 
L 306.657577 70.097544 
L 307.063903 66.198875 
L 307.470229 66.357014 
L 308.282881 67.714951 
L 308.689207 66.832109 
L 309.501859 68.851848 
L 309.908185 68.406652 
L 310.314511 69.850786 
L 310.720837 68.152545 
L 311.127163 69.554452 
L 311.53349 70.221367 
L 311.939816 67.99722 
L 312.346142 69.64358 
L 312.752468 67.652483 
L 313.158794 67.348432 
L 313.56512 67.661411 
L 313.971446 67.320072 
L 314.377772 67.266509 
L 314.784098 68.311634 
L 315.190424 66.999282 
L 315.59675 67.421761 
L 316.409403 67.526565 
L 316.815729 67.835091 
L 317.222055 66.800037 
L 317.628381 66.770091 
L 318.441033 65.453802 
L 318.847359 67.575189 
L 319.253685 66.213629 
L 319.660011 66.137806 
L 320.066337 69.305924 
L 320.87899 64.438699 
L 321.691642 66.238426 
L 322.097968 64.324422 
L 322.504294 65.269313 
L 322.91062 63.751551 
L 323.316946 64.877489 
L 323.723272 64.962469 
L 324.129598 65.82318 
L 324.535924 66.066156 
L 324.942251 65.822787 
L 325.348577 64.687592 
L 325.754903 65.216142 
L 326.161229 64.920329 
L 326.567555 65.824567 
L 326.973881 66.246895 
L 327.380207 67.324628 
L 327.786533 67.846377 
L 328.192859 65.640331 
L 329.005511 66.251814 
L 329.411838 66.193493 
L 329.818164 66.381985 
L 330.22449 67.315457 
L 330.630816 67.826888 
L 331.037142 65.888368 
L 331.849794 65.592018 
L 332.25612 64.901214 
L 332.662446 65.278132 
L 333.068772 65.397013 
L 333.475098 64.816252 
L 333.881425 65.969967 
L 334.287751 64.877858 
L 334.694077 64.366019 
L 335.100403 65.846742 
L 335.506729 65.029808 
L 335.913055 65.147297 
L 336.319381 66.170987 
L 336.725707 63.679733 
L 337.132033 64.903253 
L 337.538359 63.320022 
L 338.351011 62.27838 
L 338.757338 62.092249 
L 339.56999 60.965822 
L 339.976316 61.375038 
L 340.382642 61.123474 
L 340.788968 62.189261 
L 341.195294 61.39755 
L 341.60162 61.02158 
L 342.007946 61.245359 
L 342.414272 62.470656 
L 342.820598 61.742298 
L 343.226925 62.11474 
L 343.633251 61.053019 
L 344.039577 61.499283 
L 344.445903 60.856368 
L 344.852229 62.362057 
L 345.258555 62.229698 
L 345.664881 61.823568 
L 346.071207 62.600217 
L 346.477533 61.844211 
L 346.883859 62.327592 
L 347.290185 62.237531 
L 347.696512 62.744923 
L 348.91549 60.608231 
L 349.321816 62.0669 
L 349.728142 61.987754 
L 350.540794 66.496698 
L 350.94712 63.278247 
L 351.353446 64.403014 
L 352.166099 60.823306 
L 352.572425 61.037717 
L 352.978751 63.725576 
L 353.385077 62.478161 
L 353.791403 63.465302 
L 354.197729 60.432083 
L 354.604055 60.215018 
L 355.010381 59.241394 
L 355.416707 60.690419 
L 355.823033 60.347048 
L 356.229359 60.321187 
L 356.635686 61.860114 
L 357.042012 61.341962 
L 357.448338 60.12191 
L 357.854664 60.890051 
L 358.26099 59.891061 
L 358.667316 59.91338 
L 359.073642 59.500365 
L 359.479968 59.901749 
L 359.886294 59.774177 
L 360.29262 57.831943 
L 360.698946 59.962377 
L 361.105272 58.973394 
L 361.511599 59.423923 
L 361.917925 58.161704 
L 362.324251 58.440473 
L 362.730577 57.492006 
L 363.136903 57.450552 
L 363.543229 57.805252 
L 363.949555 58.679414 
L 364.355881 58.170474 
L 364.762207 58.289152 
L 365.168533 57.397045 
L 365.981186 57.52248 
L 366.387512 54.143914 
L 366.793838 54.62833 
L 367.200164 54.712343 
L 367.60649 56.463112 
L 368.012816 57.692948 
L 368.419142 57.783503 
L 368.825468 60.582816 
L 369.63812 59.15343 
L 370.044446 60.524058 
L 370.857099 57.978525 
L 371.669751 58.593076 
L 372.076077 57.201788 
L 372.482403 59.119603 
L 372.888729 58.697468 
L 373.295055 57.677377 
L 373.701381 58.306002 
L 374.107707 59.402079 
L 374.514033 57.927442 
L 374.92036 61.027568 
L 375.326686 57.233446 
L 375.733012 58.754289 
L 376.139338 56.404464 
L 376.95199 60.393232 
L 377.358316 58.581389 
L 377.764642 58.064995 
L 378.170968 58.118467 
L 378.577294 60.431615 
L 378.98362 58.460526 
L 379.389947 58.641312 
L 379.796273 58.539686 
L 380.202599 57.553818 
L 380.608925 57.645451 
L 381.421577 56.50479 
L 381.827903 59.305377 
L 382.640555 55.576858 
L 383.046881 55.959308 
L 383.453207 57.274085 
L 383.859534 59.24733 
L 384.672186 55.272891 
L 385.078512 55.720128 
L 385.484838 55.264869 
L 385.891164 56.799218 
L 386.703816 55.056857 
L 387.110142 55.931919 
L 387.516468 55.85324 
L 387.922794 55.581241 
L 388.735447 53.931968 
L 389.141773 56.656032 
L 389.548099 56.424053 
L 389.954425 55.499488 
L 390.360751 55.035932 
L 390.767077 54.790086 
L 391.173403 55.406056 
L 391.579729 54.277728 
L 391.986055 57.073854 
L 392.392381 55.502307 
L 392.798707 54.735174 
L 393.205034 55.71544 
L 393.61136 55.216019 
L 394.017686 56.957827 
L 394.424012 55.216511 
L 394.830338 54.214751 
L 395.236664 53.911556 
L 395.64299 53.99161 
L 396.049316 54.271354 
L 396.455642 54.399107 
L 396.861968 55.12582 
L 397.268294 55.542517 
L 397.674621 54.383404 
L 398.080947 53.568 
L 398.487273 54.169678 
L 398.487273 54.169678 
" style="fill:none;stroke:#1f77b4;stroke-linecap:square;stroke-width:1.5;"/>
   </g>
   <g id="line2d_15">
    <path clip-path="url(#p6d0f6b9558)" d="M 73.832727 271.070002 
L 74.239053 276.881534 
L 74.645379 265.305809 
L 75.051706 266.494547 
L 75.864358 266.998127 
L 76.270684 266.720416 
L 76.67701 264.232316 
L 77.083336 264.23132 
L 77.489662 264.392817 
L 77.895988 262.579851 
L 78.302314 261.477276 
L 78.70864 258.935722 
L 79.114966 260.929819 
L 79.521293 261.891313 
L 79.927619 265.429774 
L 80.333945 265.150622 
L 80.740271 262.708996 
L 81.146597 268.959779 
L 81.552923 266.785739 
L 81.959249 265.86871 
L 82.365575 263.721931 
L 82.771901 263.681812 
L 83.178227 265.431645 
L 83.584553 267.792726 
L 83.99088 267.725884 
L 84.397206 265.196125 
L 84.803532 266.779481 
L 85.209858 261.490338 
L 85.616184 267.35396 
L 86.02251 267.241855 
L 86.428836 268.603019 
L 86.835162 269.08152 
L 87.241488 266.887778 
L 87.647814 268.138411 
L 88.05414 272.603481 
L 88.460466 279.818766 
L 88.866793 281.142679 
L 89.273119 280.2114 
L 89.679445 266.589934 
L 90.085771 289.517102 
L 90.492097 287.909387 
L 90.898423 281.319116 
L 91.304749 284.468463 
L 91.711075 292.279056 
L 92.117401 290.440291 
L 92.523727 291.271054 
L 92.930053 289.988415 
L 93.33638 292.714103 
L 93.742706 291.129652 
L 94.149032 293.453923 
L 94.961684 287.691409 
L 95.36801 294.012528 
L 95.774336 280.885409 
L 96.180662 280.5368 
L 96.586988 277.702841 
L 96.993314 276.819184 
L 97.39964 283.124631 
L 97.805967 276.311292 
L 98.212293 278.469991 
L 98.618619 277.420227 
L 99.024945 272.92656 
L 99.431271 270.117117 
L 99.837597 269.491957 
L 100.243923 266.448911 
L 100.650249 264.394463 
L 101.056575 260.374218 
L 101.462901 267.316435 
L 101.869227 266.438961 
L 102.275554 269.687452 
L 102.68188 266.033269 
L 103.088206 265.3216 
L 103.494532 261.576061 
L 103.900858 261.709413 
L 104.307184 264.346365 
L 104.71351 259.681682 
L 105.119836 269.206913 
L 105.526162 267.042797 
L 105.932488 264.057497 
L 106.338814 259.914323 
L 106.745141 267.078225 
L 107.151467 268.987749 
L 107.557793 266.298802 
L 107.964119 268.178647 
L 108.370445 265.01706 
L 108.776771 254.256733 
L 109.183097 265.587916 
L 109.589423 271.522111 
L 109.995749 271.766666 
L 110.402075 261.053876 
L 110.808401 256.658481 
L 111.214728 274.594711 
L 111.621054 277.793368 
L 112.02738 277.985943 
L 112.433706 278.510581 
L 112.840032 277.85974 
L 113.246358 281.94372 
L 113.652684 275.256695 
L 114.05901 272.611977 
L 114.465336 276.830633 
L 114.871662 272.770138 
L 115.277988 270.909269 
L 115.684314 270.430173 
L 116.496967 276.244232 
L 116.903293 275.879873 
L 117.309619 274.839586 
L 117.715945 274.725353 
L 118.122271 278.27704 
L 118.528597 271.758498 
L 118.934923 268.764772 
L 119.341249 269.857492 
L 119.747575 269.955592 
L 120.153901 267.444752 
L 120.966554 267.037834 
L 121.37288 274.617137 
L 121.779206 269.148764 
L 122.185532 256.114592 
L 122.591858 265.577967 
L 122.998184 267.767477 
L 123.40451 267.707435 
L 123.810836 263.480991 
L 124.217162 269.020831 
L 124.623488 272.349714 
L 125.029815 263.338124 
L 125.436141 270.587144 
L 125.842467 273.236311 
L 126.248793 265.71777 
L 126.655119 274.970431 
L 127.061445 277.716259 
L 127.467771 275.774754 
L 127.874097 277.212174 
L 128.280423 279.570533 
L 128.686749 272.725364 
L 129.093075 268.138281 
L 129.499402 272.390521 
L 129.905728 270.042777 
L 130.312054 276.024218 
L 130.71838 276.872297 
L 131.124706 273.822224 
L 131.531032 272.186864 
L 131.937358 273.847609 
L 132.343684 276.980858 
L 132.75001 272.226316 
L 133.156336 273.268662 
L 133.562662 269.73111 
L 133.968989 268.597638 
L 134.375315 270.044462 
L 134.781641 275.030215 
L 135.187967 271.613841 
L 135.594293 274.534971 
L 136.406945 269.968414 
L 136.813271 269.392417 
L 137.219597 266.911397 
L 138.032249 267.174751 
L 138.438575 267.474131 
L 138.844902 270.186197 
L 139.251228 271.328835 
L 139.657554 271.065096 
L 140.470206 279.330508 
L 140.876532 264.328344 
L 141.282858 277.451027 
L 141.689184 274.372757 
L 142.09551 269.061661 
L 142.501836 282.122825 
L 142.908162 276.930293 
L 143.314489 279.729621 
L 143.720815 274.126559 
L 144.127141 273.251743 
L 144.533467 275.812432 
L 144.939793 277.091212 
L 145.346119 276.591464 
L 145.752445 279.164586 
L 146.158771 278.784598 
L 146.565097 283.10801 
L 146.971423 278.681342 
L 147.377749 276.529668 
L 147.784076 276.376809 
L 148.190402 275.703231 
L 148.596728 274.676801 
L 149.003054 272.096186 
L 149.40938 279.294045 
L 149.815706 273.64158 
L 150.222032 272.886845 
L 150.628358 276.30741 
L 151.034684 274.994942 
L 151.44101 274.80837 
L 152.253663 271.553848 
L 153.066315 274.008114 
L 154.691619 272.889869 
L 155.097945 271.884741 
L 155.504271 271.783654 
L 155.910597 271.178362 
L 156.72325 270.967226 
L 157.129576 271.334851 
L 157.942228 268.398223 
L 158.348554 269.519953 
L 158.75488 271.725663 
L 159.161206 269.279884 
L 159.567532 269.572922 
L 160.380184 274.259927 
L 161.192837 271.168402 
L 161.599163 263.256746 
L 162.005489 274.833239 
L 162.411815 269.317602 
L 162.818141 274.582035 
L 163.224467 275.986201 
L 163.630793 270.101796 
L 164.037119 277.332333 
L 164.443445 273.298319 
L 164.849771 273.205883 
L 165.256097 272.668982 
L 165.662423 271.451733 
L 166.06875 274.468468 
L 166.475076 273.160186 
L 166.881402 278.047702 
L 167.287728 278.399909 
L 167.694054 277.566371 
L 168.10038 276.255204 
L 168.506706 276.193542 
L 169.319358 277.396704 
L 169.725684 277.334461 
L 170.13201 278.236553 
L 170.538337 269.222391 
L 170.944663 274.698562 
L 171.350989 274.003339 
L 171.757315 273.77281 
L 172.163641 271.744499 
L 172.569967 264.366057 
L 172.976293 273.751637 
L 173.382619 275.512278 
L 173.788945 281.341012 
L 174.601597 272.653935 
L 175.007924 270.063293 
L 175.41425 270.643632 
L 175.820576 270.789925 
L 176.226902 273.933936 
L 176.633228 272.812949 
L 177.039554 276.954828 
L 177.44588 286.427142 
L 177.852206 282.201833 
L 178.258532 281.692159 
L 178.664858 284.023701 
L 179.071184 283.496751 
L 179.477511 279.40266 
L 179.883837 279.352107 
L 180.290163 281.31199 
L 180.696489 280.00208 
L 181.915467 280.159731 
L 182.321793 282.219688 
L 182.728119 282.28703 
L 183.540771 282.094464 
L 184.75975 281.461195 
L 185.166076 282.078158 
L 185.572402 281.596947 
L 185.978728 281.349838 
L 186.385054 278.915784 
L 186.79138 279.760831 
L 187.197706 279.925311 
L 187.604032 277.103677 
L 188.010358 278.091222 
L 188.416684 275.633058 
L 188.823011 274.237824 
L 189.229337 273.681397 
L 190.041989 273.804721 
L 190.448315 273.706944 
L 190.854641 271.94188 
L 191.260967 283.893569 
L 191.667293 284.044024 
L 192.073619 277.090503 
L 192.479945 278.222419 
L 192.886271 278.521674 
L 193.698924 278.680395 
L 194.10525 279.688686 
L 194.511576 279.058093 
L 194.917902 277.612594 
L 195.324228 280.714712 
L 195.730554 281.714746 
L 196.13688 273.123964 
L 196.543206 273.337438 
L 196.949532 278.429302 
L 197.355858 274.236165 
L 197.762185 281.304681 
L 198.168511 279.749151 
L 198.574837 276.80932 
L 198.981163 277.147121 
L 199.387489 278.463664 
L 199.793815 279.377704 
L 200.200141 282.075545 
L 200.606467 276.959907 
L 201.419119 276.336557 
L 202.231772 275.923698 
L 202.638098 275.946216 
L 203.044424 278.966097 
L 203.45075 273.353071 
L 203.857076 276.416875 
L 204.263402 276.115341 
L 204.669728 282.123677 
L 205.076054 282.025706 
L 205.48238 276.925736 
L 205.888706 275.658495 
L 206.295032 279.164544 
L 206.701359 278.064573 
L 207.107685 273.930987 
L 207.514011 280.657535 
L 207.920337 282.667024 
L 208.326663 271.316726 
L 209.139315 274.32541 
L 209.545641 274.869226 
L 209.951967 277.589447 
L 210.764619 279.077379 
L 211.170946 280.933486 
L 211.577272 276.896814 
L 211.983598 274.817432 
L 212.389924 281.820183 
L 212.79625 278.134841 
L 213.202576 281.24525 
L 213.608902 283.395458 
L 214.015228 281.292366 
L 214.421554 282.964226 
L 214.82788 281.408969 
L 215.234206 281.684805 
L 215.640532 280.124335 
L 216.046859 276.674978 
L 216.453185 280.696498 
L 216.859511 280.780637 
L 217.265837 279.389302 
L 217.672163 281.988565 
L 218.078489 278.427038 
L 218.484815 277.406132 
L 218.891141 277.343249 
L 219.297467 275.962289 
L 219.703793 277.176226 
L 220.110119 279.261712 
L 220.516446 279.530259 
L 220.922772 278.29035 
L 221.329098 262.499433 
L 221.735424 279.374231 
L 222.14175 273.271092 
L 222.548076 274.665626 
L 222.954402 276.580924 
L 223.360728 280.186765 
L 223.767054 277.325959 
L 224.17338 276.633352 
L 224.579706 281.60412 
L 224.986033 281.88102 
L 225.798685 282.576904 
L 226.205011 283.63467 
L 226.611337 284.135537 
L 227.017663 282.83115 
L 228.236641 282.330201 
L 229.049293 281.864253 
L 230.268272 281.512577 
L 230.674598 274.410387 
L 231.080924 273.271405 
L 231.48725 273.208298 
L 231.893576 273.65516 
L 232.706228 275.901512 
L 233.112554 273.890732 
L 233.51888 273.846075 
L 233.925207 275.437309 
L 234.331533 278.351325 
L 234.737859 278.975165 
L 235.144185 279.363898 
L 235.550511 280.068285 
L 235.956837 279.949885 
L 236.363163 278.638152 
L 237.175815 279.122981 
L 237.988467 279.249327 
L 238.394793 279.714896 
L 238.80112 281.597966 
L 239.207446 280.846273 
L 239.613772 277.723601 
L 240.426424 281.197399 
L 241.239076 283.577224 
L 241.645402 282.826508 
L 242.051728 280.961359 
L 242.458054 283.088923 
L 242.86438 277.697793 
L 243.270707 278.214064 
L 243.677033 279.66491 
L 244.083359 283.351172 
L 244.489685 276.637936 
L 244.896011 288.298016 
L 245.302337 278.448181 
L 245.708663 276.491244 
L 246.114989 287.258909 
L 246.521315 285.815799 
L 246.927641 284.92602 
L 247.333967 283.469221 
L 247.740294 278.776241 
L 248.14662 280.526614 
L 248.552946 280.391298 
L 248.959272 276.536602 
L 249.365598 278.472354 
L 249.771924 278.568358 
L 250.17825 282.832373 
L 250.584576 277.434984 
L 250.990902 277.365857 
L 251.397228 279.953922 
L 251.803554 279.212949 
L 252.209881 281.533961 
L 252.616207 280.891565 
L 253.022533 280.999932 
L 253.428859 280.65108 
L 253.835185 277.499371 
L 254.241511 281.323836 
L 254.647837 277.77253 
L 255.054163 278.673627 
L 255.460489 279.918696 
L 255.866815 284.52846 
L 256.273141 284.749934 
L 256.679468 289.57413 
L 257.085794 282.712556 
L 257.49212 285.560628 
L 257.898446 273.749449 
L 258.304772 291.513583 
L 258.711098 283.018575 
L 259.117424 285.690055 
L 259.52375 278.949618 
L 259.930076 280.366596 
L 260.336402 282.648139 
L 260.742728 277.570918 
L 261.149054 284.555798 
L 261.555381 282.492326 
L 261.961707 282.771322 
L 262.774359 281.983335 
L 263.180685 283.972343 
L 263.587011 282.698529 
L 264.399663 285.869025 
L 264.805989 282.783969 
L 265.618641 288.243701 
L 266.024968 288.219224 
L 266.431294 278.201286 
L 266.83762 280.521674 
L 267.243946 278.642779 
L 267.650272 284.056344 
L 268.056598 283.682496 
L 268.462924 277.642945 
L 268.86925 284.188721 
L 269.275576 282.372215 
L 269.681902 284.203963 
L 270.088228 277.352184 
L 270.494555 281.701556 
L 270.900881 279.068027 
L 271.307207 275.082584 
L 271.713533 274.967088 
L 272.119859 273.146158 
L 272.526185 275.108749 
L 272.932511 278.478345 
L 273.338837 275.253197 
L 273.745163 278.478197 
L 274.151489 277.827605 
L 274.557815 276.488374 
L 274.964142 282.251222 
L 275.370468 277.489988 
L 275.776794 275.720129 
L 276.18312 275.270378 
L 276.589446 273.584299 
L 276.995772 277.853395 
L 277.402098 278.4158 
L 277.808424 279.299677 
L 278.21475 274.389658 
L 278.621076 276.010467 
L 279.027402 278.326093 
L 279.433729 285.065639 
L 279.840055 282.252548 
L 280.246381 282.374353 
L 280.652707 273.133858 
L 281.059033 270.392897 
L 281.465359 283.100171 
L 281.871685 278.504131 
L 282.278011 282.534072 
L 282.684337 277.983423 
L 283.090663 277.561116 
L 283.496989 275.851445 
L 283.903316 276.269457 
L 284.309642 274.7624 
L 284.715968 272.543401 
L 285.122294 281.627858 
L 285.52862 280.298373 
L 285.934946 280.125741 
L 286.341272 280.462203 
L 286.747598 268.095522 
L 287.153924 282.120482 
L 287.56025 283.727623 
L 287.966576 282.501545 
L 288.372902 280.140416 
L 288.779229 284.98589 
L 289.185555 282.767224 
L 289.591881 286.843097 
L 289.998207 280.353943 
L 290.810859 283.81662 
L 291.217185 283.739824 
L 291.623511 284.172631 
L 292.029837 281.530536 
L 292.436163 285.515691 
L 292.842489 283.693154 
L 293.248816 278.560073 
L 293.655142 280.689721 
L 294.061468 279.541896 
L 294.467794 279.921814 
L 294.87412 278.303507 
L 295.686772 281.160346 
L 296.093098 280.536343 
L 296.499424 272.618225 
L 296.90575 280.984651 
L 297.312076 279.277395 
L 297.718403 280.373376 
L 298.124729 279.480383 
L 298.531055 279.353759 
L 298.937381 279.772164 
L 299.343707 280.636891 
L 299.750033 279.806369 
L 300.156359 280.54612 
L 300.562685 286.845479 
L 300.969011 280.005847 
L 301.375337 287.644123 
L 301.781663 281.700556 
L 302.18799 281.042923 
L 302.594316 279.915544 
L 303.000642 281.971314 
L 303.406968 279.554508 
L 303.813294 281.684829 
L 304.625946 281.182758 
L 305.032272 278.368815 
L 305.438598 280.381058 
L 305.844924 277.680496 
L 306.25125 282.233914 
L 306.657577 279.539291 
L 307.063903 282.304255 
L 307.876555 282.610267 
L 308.689207 282.655016 
L 309.095533 282.604216 
L 309.501859 281.051972 
L 309.908185 280.368383 
L 310.314511 280.104491 
L 310.720837 280.692967 
L 311.127163 283.97082 
L 311.53349 279.981867 
L 311.939816 285.049521 
L 312.346142 285.445737 
L 313.158794 285.214258 
L 313.56512 285.342718 
L 313.971446 281.036377 
L 314.377772 278.461102 
L 314.784098 283.061151 
L 315.190424 282.587991 
L 316.409403 274.636881 
L 317.628381 274.288492 
L 318.034707 273.61367 
L 318.441033 273.3116 
L 318.847359 273.221957 
L 319.253685 272.958841 
L 319.660011 277.775087 
L 320.066337 274.262425 
L 320.472664 278.472809 
L 320.87899 278.431102 
L 321.285316 267.334535 
L 321.691642 267.071584 
L 322.097968 272.626329 
L 322.504294 274.023422 
L 322.91062 273.946479 
L 323.316946 266.970493 
L 323.723272 266.965391 
L 324.129598 267.526362 
L 324.535924 270.492292 
L 324.942251 270.763436 
L 325.348577 271.891358 
L 325.754903 278.386357 
L 326.161229 273.064975 
L 326.567555 273.893417 
L 326.973881 275.449761 
L 327.380207 273.490361 
L 327.786533 273.726648 
L 328.599185 275.334452 
L 329.005511 278.628447 
L 329.411838 280.497728 
L 329.818164 280.292436 
L 330.22449 280.752791 
L 330.630816 285.586848 
L 331.037142 284.330894 
L 331.443468 279.275935 
L 331.849794 272.148552 
L 332.25612 279.80168 
L 332.662446 275.315263 
L 333.068772 282.091691 
L 333.881425 270.695376 
L 334.287751 281.115882 
L 334.694077 280.290483 
L 335.100403 285.221273 
L 335.506729 258.742524 
L 335.913055 279.40064 
L 336.319381 280.302504 
L 337.132033 280.54112 
L 337.538359 279.846941 
L 337.944685 278.277463 
L 338.351011 279.149727 
L 338.757338 285.064949 
L 339.163664 281.91621 
L 339.56999 281.965573 
L 339.976316 282.193717 
L 340.788968 282.173881 
L 341.195294 281.949704 
L 342.007946 282.043158 
L 342.414272 281.766833 
L 342.820598 278.824841 
L 343.226925 282.635935 
L 343.633251 280.549188 
L 344.039577 275.900233 
L 344.445903 279.950975 
L 344.852229 278.578203 
L 345.258555 279.405961 
L 345.664881 280.723703 
L 346.071207 281.258062 
L 346.477533 279.989876 
L 346.883859 279.928112 
L 347.290185 279.222764 
L 347.696512 278.81843 
L 348.102838 281.473492 
L 348.509164 281.49508 
L 348.91549 273.323808 
L 349.321816 281.751952 
L 349.728142 283.300567 
L 350.540794 273.8385 
L 350.94712 272.276186 
L 351.353446 273.947305 
L 352.166099 268.551237 
L 352.572425 279.243017 
L 352.978751 277.641525 
L 353.385077 279.381354 
L 353.791403 279.335811 
L 354.197729 280.482534 
L 354.604055 273.378671 
L 355.010381 282.242831 
L 355.416707 276.69143 
L 355.823033 277.467604 
L 356.229359 277.485505 
L 356.635686 278.045686 
L 357.042012 277.224995 
L 357.448338 282.972658 
L 357.854664 283.612983 
L 358.26099 295.488 
L 359.073642 275.920207 
L 359.479968 276.20501 
L 359.886294 276.156396 
L 360.29262 275.863636 
L 360.698946 275.733443 
L 361.105272 282.648 
L 361.511599 280.564575 
L 361.917925 279.417648 
L 362.324251 276.934057 
L 362.730577 279.327603 
L 363.136903 279.372399 
L 363.543229 273.476011 
L 363.949555 282.036998 
L 364.355881 282.286646 
L 364.762207 279.244066 
L 365.168533 280.411174 
L 365.574859 273.896087 
L 365.981186 285.590163 
L 366.387512 278.893066 
L 366.793838 279.706536 
L 367.200164 279.863811 
L 367.60649 280.585007 
L 368.012816 275.772422 
L 368.419142 277.422303 
L 368.825468 280.688213 
L 369.231794 281.176903 
L 370.044446 285.375421 
L 370.450773 276.151974 
L 370.857099 281.833707 
L 371.263425 279.706178 
L 371.669751 284.931428 
L 372.076077 285.984113 
L 372.482403 285.896326 
L 372.888729 281.58673 
L 373.295055 280.415329 
L 373.701381 282.30914 
L 374.107707 278.102373 
L 374.514033 281.29992 
L 374.92036 282.239078 
L 375.326686 276.811106 
L 376.139338 279.663845 
L 376.545664 281.781907 
L 376.95199 281.501179 
L 377.358316 281.426366 
L 377.764642 275.854973 
L 378.170968 280.360634 
L 378.577294 276.943605 
L 378.98362 282.633423 
L 379.389947 282.350886 
L 379.796273 283.26397 
L 380.202599 277.0336 
L 380.608925 281.232527 
L 381.015251 276.409232 
L 381.827903 284.434708 
L 382.234229 280.460111 
L 382.640555 280.614661 
L 383.046881 282.115189 
L 383.453207 276.582152 
L 383.859534 281.582687 
L 384.26586 284.236413 
L 384.672186 284.81037 
L 385.078512 281.420343 
L 385.484838 272.910795 
L 385.891164 278.077484 
L 386.29749 270.133762 
L 386.703816 280.759359 
L 387.110142 283.927898 
L 387.516468 279.302568 
L 387.922794 268.158486 
L 388.32912 284.735773 
L 388.735447 270.831395 
L 389.141773 287.798024 
L 389.548099 282.830588 
L 389.954425 281.878671 
L 390.360751 279.080431 
L 390.767077 283.35219 
L 391.173403 282.655548 
L 391.579729 276.689336 
L 391.986055 284.507671 
L 392.392381 281.607659 
L 392.798707 284.407174 
L 393.205034 282.023493 
L 393.61136 283.908872 
L 394.017686 284.863572 
L 394.424012 288.625251 
L 394.830338 281.946969 
L 395.64299 282.594661 
L 396.049316 277.027984 
L 396.455642 283.295929 
L 396.861968 280.725748 
L 397.268294 281.964116 
L 397.674621 281.137362 
L 398.080947 284.011922 
L 398.487273 283.743742 
L 398.487273 283.743742 
" style="fill:none;stroke:#ff7f0e;stroke-linecap:square;stroke-width:1.5;"/>
   </g>
   <g id="patch_3">
    <path d="M 57.6 307.584 
L 57.6 41.472 
" style="fill:none;stroke:#000000;stroke-linecap:square;stroke-linejoin:miter;stroke-width:0.8;"/>
   </g>
   <g id="patch_4">
    <path d="M 414.72 307.584 
L 414.72 41.472 
" style="fill:none;stroke:#000000;stroke-linecap:square;stroke-linejoin:miter;stroke-width:0.8;"/>
   </g>
   <g id="patch_5">
    <path d="M 57.6 307.584 
L 414.72 307.584 
" style="fill:none;stroke:#000000;stroke-linecap:square;stroke-linejoin:miter;stroke-width:0.8;"/>
   </g>
   <g id="patch_6">
    <path d="M 57.6 41.472 
L 414.72 41.472 
" style="fill:none;stroke:#000000;stroke-linecap:square;stroke-linejoin:miter;stroke-width:0.8;"/>
   </g>
  </g>
 </g>
 <defs>
  <clipPath id="p6d0f6b9558">
   <rect height="266.112" width="357.12" x="57.6" y="41.472"/>
  </clipPath>
 </defs>
</svg>
