<?xml version="1.0" encoding="utf-8" standalone="no"?>
<!DOCTYPE svg PUBLIC "-//W3C//DTD SVG 1.1//EN"
  "http://www.w3.org/Graphics/SVG/1.1/DTD/svg11.dtd">
<!-- Created with matplotlib (https://matplotlib.org/) -->
<svg height="345.6pt" version="1.1" viewBox="0 0 460.8 345.6" width="460.8pt" xmlns="http://www.w3.org/2000/svg" xmlns:xlink="http://www.w3.org/1999/xlink">
 <defs>
  <style type="text/css">
*{stroke-linecap:butt;stroke-linejoin:round;}
  </style>
 </defs>
 <g id="figure_1">
  <g id="patch_1">
   <path d="M 0 345.6 
L 460.8 345.6 
L 460.8 0 
L 0 0 
z
" style="fill:#ffffff;"/>
  </g>
  <g id="axes_1">
   <g id="patch_2">
    <path d="M 57.6 307.584 
L 414.72 307.584 
L 414.72 41.472 
L 57.6 41.472 
z
" style="fill:#ffffff;"/>
   </g>
   <g id="matplotlib.axis_1">
    <g id="xtick_1">
     <g id="line2d_1">
      <defs>
       <path d="M 0 0 
L 0 3.5 
" id="meff1cee48e" style="stroke:#000000;stroke-width:0.8;"/>
      </defs>
      <g>
       <use style="stroke:#000000;stroke-width:0.8;" x="73.832727" xlink:href="#meff1cee48e" y="307.584"/>
      </g>
     </g>
     <g id="text_1">
      <!-- 0 -->
      <defs>
       <path d="M 31.78125 66.40625 
Q 24.171875 66.40625 20.328125 58.90625 
Q 16.5 51.421875 16.5 36.375 
Q 16.5 21.390625 20.328125 13.890625 
Q 24.171875 6.390625 31.78125 6.390625 
Q 39.453125 6.390625 43.28125 13.890625 
Q 47.125 21.390625 47.125 36.375 
Q 47.125 51.421875 43.28125 58.90625 
Q 39.453125 66.40625 31.78125 66.40625 
z
M 31.78125 74.21875 
Q 44.046875 74.21875 50.515625 64.515625 
Q 56.984375 54.828125 56.984375 36.375 
Q 56.984375 17.96875 50.515625 8.265625 
Q 44.046875 -1.421875 31.78125 -1.421875 
Q 19.53125 -1.421875 13.0625 8.265625 
Q 6.59375 17.96875 6.59375 36.375 
Q 6.59375 54.828125 13.0625 64.515625 
Q 19.53125 74.21875 31.78125 74.21875 
z
" id="DejaVuSans-48"/>
      </defs>
      <g transform="translate(70.651477 322.182437)scale(0.1 -0.1)">
       <use xlink:href="#DejaVuSans-48"/>
      </g>
     </g>
    </g>
    <g id="xtick_2">
     <g id="line2d_2">
      <g>
       <use style="stroke:#000000;stroke-width:0.8;" x="114.465336" xlink:href="#meff1cee48e" y="307.584"/>
      </g>
     </g>
     <g id="text_2">
      <!-- 100 -->
      <defs>
       <path d="M 12.40625 8.296875 
L 28.515625 8.296875 
L 28.515625 63.921875 
L 10.984375 60.40625 
L 10.984375 69.390625 
L 28.421875 72.90625 
L 38.28125 72.90625 
L 38.28125 8.296875 
L 54.390625 8.296875 
L 54.390625 0 
L 12.40625 0 
z
" id="DejaVuSans-49"/>
      </defs>
      <g transform="translate(104.921586 322.182437)scale(0.1 -0.1)">
       <use xlink:href="#DejaVuSans-49"/>
       <use x="63.623047" xlink:href="#DejaVuSans-48"/>
       <use x="127.246094" xlink:href="#DejaVuSans-48"/>
      </g>
     </g>
    </g>
    <g id="xtick_3">
     <g id="line2d_3">
      <g>
       <use style="stroke:#000000;stroke-width:0.8;" x="155.097945" xlink:href="#meff1cee48e" y="307.584"/>
      </g>
     </g>
     <g id="text_3">
      <!-- 200 -->
      <defs>
       <path d="M 19.1875 8.296875 
L 53.609375 8.296875 
L 53.609375 0 
L 7.328125 0 
L 7.328125 8.296875 
Q 12.9375 14.109375 22.625 23.890625 
Q 32.328125 33.6875 34.8125 36.53125 
Q 39.546875 41.84375 41.421875 45.53125 
Q 43.3125 49.21875 43.3125 52.78125 
Q 43.3125 58.59375 39.234375 62.25 
Q 35.15625 65.921875 28.609375 65.921875 
Q 23.96875 65.921875 18.8125 64.3125 
Q 13.671875 62.703125 7.8125 59.421875 
L 7.8125 69.390625 
Q 13.765625 71.78125 18.9375 73 
Q 24.125 74.21875 28.421875 74.21875 
Q 39.75 74.21875 46.484375 68.546875 
Q 53.21875 62.890625 53.21875 53.421875 
Q 53.21875 48.921875 51.53125 44.890625 
Q 49.859375 40.875 45.40625 35.40625 
Q 44.1875 33.984375 37.640625 27.21875 
Q 31.109375 20.453125 19.1875 8.296875 
z
" id="DejaVuSans-50"/>
      </defs>
      <g transform="translate(145.554195 322.182437)scale(0.1 -0.1)">
       <use xlink:href="#DejaVuSans-50"/>
       <use x="63.623047" xlink:href="#DejaVuSans-48"/>
       <use x="127.246094" xlink:href="#DejaVuSans-48"/>
      </g>
     </g>
    </g>
    <g id="xtick_4">
     <g id="line2d_4">
      <g>
       <use style="stroke:#000000;stroke-width:0.8;" x="195.730554" xlink:href="#meff1cee48e" y="307.584"/>
      </g>
     </g>
     <g id="text_4">
      <!-- 300 -->
      <defs>
       <path d="M 40.578125 39.3125 
Q 47.65625 37.796875 51.625 33 
Q 55.609375 28.21875 55.609375 21.1875 
Q 55.609375 10.40625 48.1875 4.484375 
Q 40.765625 -1.421875 27.09375 -1.421875 
Q 22.515625 -1.421875 17.65625 -0.515625 
Q 12.796875 0.390625 7.625 2.203125 
L 7.625 11.71875 
Q 11.71875 9.328125 16.59375 8.109375 
Q 21.484375 6.890625 26.8125 6.890625 
Q 36.078125 6.890625 40.9375 10.546875 
Q 45.796875 14.203125 45.796875 21.1875 
Q 45.796875 27.640625 41.28125 31.265625 
Q 36.765625 34.90625 28.71875 34.90625 
L 20.21875 34.90625 
L 20.21875 43.015625 
L 29.109375 43.015625 
Q 36.375 43.015625 40.234375 45.921875 
Q 44.09375 48.828125 44.09375 54.296875 
Q 44.09375 59.90625 40.109375 62.90625 
Q 36.140625 65.921875 28.71875 65.921875 
Q 24.65625 65.921875 20.015625 65.03125 
Q 15.375 64.15625 9.8125 62.3125 
L 9.8125 71.09375 
Q 15.4375 72.65625 20.34375 73.4375 
Q 25.25 74.21875 29.59375 74.21875 
Q 40.828125 74.21875 47.359375 69.109375 
Q 53.90625 64.015625 53.90625 55.328125 
Q 53.90625 49.265625 50.4375 45.09375 
Q 46.96875 40.921875 40.578125 39.3125 
z
" id="DejaVuSans-51"/>
      </defs>
      <g transform="translate(186.186804 322.182437)scale(0.1 -0.1)">
       <use xlink:href="#DejaVuSans-51"/>
       <use x="63.623047" xlink:href="#DejaVuSans-48"/>
       <use x="127.246094" xlink:href="#DejaVuSans-48"/>
      </g>
     </g>
    </g>
    <g id="xtick_5">
     <g id="line2d_5">
      <g>
       <use style="stroke:#000000;stroke-width:0.8;" x="236.363163" xlink:href="#meff1cee48e" y="307.584"/>
      </g>
     </g>
     <g id="text_5">
      <!-- 400 -->
      <defs>
       <path d="M 37.796875 64.3125 
L 12.890625 25.390625 
L 37.796875 25.390625 
z
M 35.203125 72.90625 
L 47.609375 72.90625 
L 47.609375 25.390625 
L 58.015625 25.390625 
L 58.015625 17.1875 
L 47.609375 17.1875 
L 47.609375 0 
L 37.796875 0 
L 37.796875 17.1875 
L 4.890625 17.1875 
L 4.890625 26.703125 
z
" id="DejaVuSans-52"/>
      </defs>
      <g transform="translate(226.819413 322.182437)scale(0.1 -0.1)">
       <use xlink:href="#DejaVuSans-52"/>
       <use x="63.623047" xlink:href="#DejaVuSans-48"/>
       <use x="127.246094" xlink:href="#DejaVuSans-48"/>
      </g>
     </g>
    </g>
    <g id="xtick_6">
     <g id="line2d_6">
      <g>
       <use style="stroke:#000000;stroke-width:0.8;" x="276.995772" xlink:href="#meff1cee48e" y="307.584"/>
      </g>
     </g>
     <g id="text_6">
      <!-- 500 -->
      <defs>
       <path d="M 10.796875 72.90625 
L 49.515625 72.90625 
L 49.515625 64.59375 
L 19.828125 64.59375 
L 19.828125 46.734375 
Q 21.96875 47.46875 24.109375 47.828125 
Q 26.265625 48.1875 28.421875 48.1875 
Q 40.625 48.1875 47.75 41.5 
Q 54.890625 34.8125 54.890625 23.390625 
Q 54.890625 11.625 47.5625 5.09375 
Q 40.234375 -1.421875 26.90625 -1.421875 
Q 22.3125 -1.421875 17.546875 -0.640625 
Q 12.796875 0.140625 7.71875 1.703125 
L 7.71875 11.625 
Q 12.109375 9.234375 16.796875 8.0625 
Q 21.484375 6.890625 26.703125 6.890625 
Q 35.15625 6.890625 40.078125 11.328125 
Q 45.015625 15.765625 45.015625 23.390625 
Q 45.015625 31 40.078125 35.4375 
Q 35.15625 39.890625 26.703125 39.890625 
Q 22.75 39.890625 18.8125 39.015625 
Q 14.890625 38.140625 10.796875 36.28125 
z
" id="DejaVuSans-53"/>
      </defs>
      <g transform="translate(267.452022 322.182437)scale(0.1 -0.1)">
       <use xlink:href="#DejaVuSans-53"/>
       <use x="63.623047" xlink:href="#DejaVuSans-48"/>
       <use x="127.246094" xlink:href="#DejaVuSans-48"/>
      </g>
     </g>
    </g>
    <g id="xtick_7">
     <g id="line2d_7">
      <g>
       <use style="stroke:#000000;stroke-width:0.8;" x="317.628381" xlink:href="#meff1cee48e" y="307.584"/>
      </g>
     </g>
     <g id="text_7">
      <!-- 600 -->
      <defs>
       <path d="M 33.015625 40.375 
Q 26.375 40.375 22.484375 35.828125 
Q 18.609375 31.296875 18.609375 23.390625 
Q 18.609375 15.53125 22.484375 10.953125 
Q 26.375 6.390625 33.015625 6.390625 
Q 39.65625 6.390625 43.53125 10.953125 
Q 47.40625 15.53125 47.40625 23.390625 
Q 47.40625 31.296875 43.53125 35.828125 
Q 39.65625 40.375 33.015625 40.375 
z
M 52.59375 71.296875 
L 52.59375 62.3125 
Q 48.875 64.0625 45.09375 64.984375 
Q 41.3125 65.921875 37.59375 65.921875 
Q 27.828125 65.921875 22.671875 59.328125 
Q 17.53125 52.734375 16.796875 39.40625 
Q 19.671875 43.65625 24.015625 45.921875 
Q 28.375 48.1875 33.59375 48.1875 
Q 44.578125 48.1875 50.953125 41.515625 
Q 57.328125 34.859375 57.328125 23.390625 
Q 57.328125 12.15625 50.6875 5.359375 
Q 44.046875 -1.421875 33.015625 -1.421875 
Q 20.359375 -1.421875 13.671875 8.265625 
Q 6.984375 17.96875 6.984375 36.375 
Q 6.984375 53.65625 15.1875 63.9375 
Q 23.390625 74.21875 37.203125 74.21875 
Q 40.921875 74.21875 44.703125 73.484375 
Q 48.484375 72.75 52.59375 71.296875 
z
" id="DejaVuSans-54"/>
      </defs>
      <g transform="translate(308.084631 322.182437)scale(0.1 -0.1)">
       <use xlink:href="#DejaVuSans-54"/>
       <use x="63.623047" xlink:href="#DejaVuSans-48"/>
       <use x="127.246094" xlink:href="#DejaVuSans-48"/>
      </g>
     </g>
    </g>
    <g id="xtick_8">
     <g id="line2d_8">
      <g>
       <use style="stroke:#000000;stroke-width:0.8;" x="358.26099" xlink:href="#meff1cee48e" y="307.584"/>
      </g>
     </g>
     <g id="text_8">
      <!-- 700 -->
      <defs>
       <path d="M 8.203125 72.90625 
L 55.078125 72.90625 
L 55.078125 68.703125 
L 28.609375 0 
L 18.3125 0 
L 43.21875 64.59375 
L 8.203125 64.59375 
z
" id="DejaVuSans-55"/>
      </defs>
      <g transform="translate(348.71724 322.182437)scale(0.1 -0.1)">
       <use xlink:href="#DejaVuSans-55"/>
       <use x="63.623047" xlink:href="#DejaVuSans-48"/>
       <use x="127.246094" xlink:href="#DejaVuSans-48"/>
      </g>
     </g>
    </g>
    <g id="xtick_9">
     <g id="line2d_9">
      <g>
       <use style="stroke:#000000;stroke-width:0.8;" x="398.893599" xlink:href="#meff1cee48e" y="307.584"/>
      </g>
     </g>
     <g id="text_9">
      <!-- 800 -->
      <defs>
       <path d="M 31.78125 34.625 
Q 24.75 34.625 20.71875 30.859375 
Q 16.703125 27.09375 16.703125 20.515625 
Q 16.703125 13.921875 20.71875 10.15625 
Q 24.75 6.390625 31.78125 6.390625 
Q 38.8125 6.390625 42.859375 10.171875 
Q 46.921875 13.96875 46.921875 20.515625 
Q 46.921875 27.09375 42.890625 30.859375 
Q 38.875 34.625 31.78125 34.625 
z
M 21.921875 38.8125 
Q 15.578125 40.375 12.03125 44.71875 
Q 8.5 49.078125 8.5 55.328125 
Q 8.5 64.0625 14.71875 69.140625 
Q 20.953125 74.21875 31.78125 74.21875 
Q 42.671875 74.21875 48.875 69.140625 
Q 55.078125 64.0625 55.078125 55.328125 
Q 55.078125 49.078125 51.53125 44.71875 
Q 48 40.375 41.703125 38.8125 
Q 48.828125 37.15625 52.796875 32.3125 
Q 56.78125 27.484375 56.78125 20.515625 
Q 56.78125 9.90625 50.3125 4.234375 
Q 43.84375 -1.421875 31.78125 -1.421875 
Q 19.734375 -1.421875 13.25 4.234375 
Q 6.78125 9.90625 6.78125 20.515625 
Q 6.78125 27.484375 10.78125 32.3125 
Q 14.796875 37.15625 21.921875 38.8125 
z
M 18.3125 54.390625 
Q 18.3125 48.734375 21.84375 45.5625 
Q 25.390625 42.390625 31.78125 42.390625 
Q 38.140625 42.390625 41.71875 45.5625 
Q 45.3125 48.734375 45.3125 54.390625 
Q 45.3125 60.0625 41.71875 63.234375 
Q 38.140625 66.40625 31.78125 66.40625 
Q 25.390625 66.40625 21.84375 63.234375 
Q 18.3125 60.0625 18.3125 54.390625 
z
" id="DejaVuSans-56"/>
      </defs>
      <g transform="translate(389.349849 322.182437)scale(0.1 -0.1)">
       <use xlink:href="#DejaVuSans-56"/>
       <use x="63.623047" xlink:href="#DejaVuSans-48"/>
       <use x="127.246094" xlink:href="#DejaVuSans-48"/>
      </g>
     </g>
    </g>
   </g>
   <g id="matplotlib.axis_2">
    <g id="ytick_1">
     <g id="line2d_10">
      <defs>
       <path d="M 0 0 
L -3.5 0 
" id="m8781481a8d" style="stroke:#000000;stroke-width:0.8;"/>
      </defs>
      <g>
       <use style="stroke:#000000;stroke-width:0.8;" x="57.6" xlink:href="#m8781481a8d" y="268.381016"/>
      </g>
     </g>
     <g id="text_10">
      <!-- 0.3 -->
      <defs>
       <path d="M 10.6875 12.40625 
L 21 12.40625 
L 21 0 
L 10.6875 0 
z
" id="DejaVuSans-46"/>
      </defs>
      <g transform="translate(34.696875 272.180235)scale(0.1 -0.1)">
       <use xlink:href="#DejaVuSans-48"/>
       <use x="63.623047" xlink:href="#DejaVuSans-46"/>
       <use x="95.410156" xlink:href="#DejaVuSans-51"/>
      </g>
     </g>
    </g>
    <g id="ytick_2">
     <g id="line2d_11">
      <g>
       <use style="stroke:#000000;stroke-width:0.8;" x="57.6" xlink:href="#m8781481a8d" y="220.124848"/>
      </g>
     </g>
     <g id="text_11">
      <!-- 0.4 -->
      <g transform="translate(34.696875 223.924067)scale(0.1 -0.1)">
       <use xlink:href="#DejaVuSans-48"/>
       <use x="63.623047" xlink:href="#DejaVuSans-46"/>
       <use x="95.410156" xlink:href="#DejaVuSans-52"/>
      </g>
     </g>
    </g>
    <g id="ytick_3">
     <g id="line2d_12">
      <g>
       <use style="stroke:#000000;stroke-width:0.8;" x="57.6" xlink:href="#m8781481a8d" y="171.86868"/>
      </g>
     </g>
     <g id="text_12">
      <!-- 0.5 -->
      <g transform="translate(34.696875 175.667899)scale(0.1 -0.1)">
       <use xlink:href="#DejaVuSans-48"/>
       <use x="63.623047" xlink:href="#DejaVuSans-46"/>
       <use x="95.410156" xlink:href="#DejaVuSans-53"/>
      </g>
     </g>
    </g>
    <g id="ytick_4">
     <g id="line2d_13">
      <g>
       <use style="stroke:#000000;stroke-width:0.8;" x="57.6" xlink:href="#m8781481a8d" y="123.612512"/>
      </g>
     </g>
     <g id="text_13">
      <!-- 0.6 -->
      <g transform="translate(34.696875 127.411731)scale(0.1 -0.1)">
       <use xlink:href="#DejaVuSans-48"/>
       <use x="63.623047" xlink:href="#DejaVuSans-46"/>
       <use x="95.410156" xlink:href="#DejaVuSans-54"/>
      </g>
     </g>
    </g>
    <g id="ytick_5">
     <g id="line2d_14">
      <g>
       <use style="stroke:#000000;stroke-width:0.8;" x="57.6" xlink:href="#m8781481a8d" y="75.356344"/>
      </g>
     </g>
     <g id="text_14">
      <!-- 0.7 -->
      <g transform="translate(34.696875 79.155563)scale(0.1 -0.1)">
       <use xlink:href="#DejaVuSans-48"/>
       <use x="63.623047" xlink:href="#DejaVuSans-46"/>
       <use x="95.410156" xlink:href="#DejaVuSans-55"/>
      </g>
     </g>
    </g>
   </g>
   <g id="line2d_15">
    <path clip-path="url(#p95877839a7)" d="M 73.832727 124.366273 
L 74.645379 194.761693 
L 75.051706 221.46779 
L 75.864358 248.926185 
L 76.67701 262.807193 
L 77.083336 268.287815 
L 77.489662 270.510942 
L 77.895988 272.105463 
L 78.302314 271.801514 
L 78.70864 269.981733 
L 79.114966 265.766393 
L 79.521293 262.995107 
L 80.333945 252.559342 
L 82.365575 223.155858 
L 82.771901 218.965893 
L 83.178227 211.760669 
L 83.99088 204.510986 
L 84.397206 200.804326 
L 84.803532 198.5518 
L 85.209858 198.576027 
L 86.02251 199.794417 
L 86.428836 198.284966 
L 86.835162 199.367909 
L 87.647814 200.910247 
L 88.460466 203.902204 
L 88.866793 206.345145 
L 89.273119 206.326754 
L 89.679445 206.193888 
L 90.085771 206.4227 
L 90.492097 206.094446 
L 91.304749 203.49611 
L 92.117401 199.549785 
L 92.523727 195.489415 
L 92.930053 193.988833 
L 93.33638 186.711187 
L 93.742706 183.19334 
L 94.149032 176.000312 
L 94.555358 171.14169 
L 94.961684 164.090089 
L 96.180662 149.285136 
L 96.586988 141.046321 
L 98.212293 121.075026 
L 99.024945 117.729504 
L 99.431271 116.090175 
L 99.837597 115.040496 
L 100.243923 114.523658 
L 100.650249 113.428195 
L 101.056575 113.567505 
L 101.462901 112.775006 
L 102.275554 115.741775 
L 103.494532 120.158942 
L 103.900858 121.913603 
L 104.307184 125.230612 
L 104.71351 126.267488 
L 105.932488 131.619425 
L 106.338814 130.864698 
L 106.745141 134.770172 
L 107.151467 134.87674 
L 108.370445 138.097828 
L 108.776771 137.818139 
L 109.183097 138.045798 
L 109.589423 136.246887 
L 109.995749 138.847431 
L 110.402075 137.035518 
L 110.808401 134.67199 
L 111.214728 136.935772 
L 111.621054 136.348409 
L 112.02738 135.512287 
L 112.433706 135.238345 
L 112.840032 134.317291 
L 113.246358 132.309525 
L 113.652684 131.738888 
L 114.05901 132.87141 
L 114.465336 133.039722 
L 114.871662 132.850853 
L 115.277988 133.47771 
L 115.684314 133.802432 
L 116.496967 134.763357 
L 116.903293 135.792765 
L 117.309619 136.25527 
L 117.715945 137.530193 
L 118.528597 139.315661 
L 118.934923 140.931651 
L 119.747575 142.830231 
L 120.153901 144.558396 
L 120.560228 145.215444 
L 120.966554 145.509081 
L 121.779206 146.696608 
L 122.591858 147.568173 
L 122.998184 147.769239 
L 123.40451 147.09519 
L 123.810836 148.337322 
L 124.217162 147.513255 
L 124.623488 146.321777 
L 125.029815 146.77868 
L 125.436141 146.619701 
L 125.842467 145.433522 
L 126.248793 145.330233 
L 127.467771 143.284208 
L 127.874097 143.184516 
L 128.280423 140.955652 
L 128.686749 139.983402 
L 129.093075 140.580605 
L 129.499402 137.835681 
L 129.905728 138.132932 
L 130.312054 137.75421 
L 130.71838 136.184244 
L 131.124706 135.774411 
L 131.531032 134.894041 
L 131.937358 134.576686 
L 132.343684 135.871527 
L 133.156336 135.507575 
L 133.562662 137.977384 
L 133.968989 135.914755 
L 134.375315 135.85477 
L 134.781641 137.853871 
L 135.187967 141.721238 
L 136.000619 139.351159 
L 136.406945 140.113815 
L 136.813271 138.166582 
L 137.219597 138.896883 
L 137.625923 138.635523 
L 138.032249 139.813036 
L 138.438575 139.853895 
L 138.844902 142.443478 
L 139.251228 141.470278 
L 139.657554 139.417502 
L 140.06388 142.9097 
L 140.470206 139.562705 
L 140.876532 138.75245 
L 141.282858 137.533341 
L 141.689184 137.979461 
L 142.09551 136.207128 
L 142.501836 137.08493 
L 142.908162 136.279969 
L 143.314489 134.539046 
L 143.720815 135.151539 
L 144.127141 134.895972 
L 144.533467 134.835202 
L 146.158771 133.636047 
L 146.565097 134.667288 
L 146.971423 133.111991 
L 147.377749 132.56967 
L 147.784076 131.010222 
L 148.190402 131.775041 
L 148.596728 131.811716 
L 149.003054 131.345981 
L 149.40938 131.532171 
L 149.815706 132.441886 
L 150.222032 132.786747 
L 150.628358 132.725382 
L 151.034684 132.107544 
L 151.44101 131.899721 
L 151.847336 131.858702 
L 152.253663 133.227865 
L 152.659989 132.743663 
L 153.066315 132.032051 
L 153.472641 132.001404 
L 154.285293 133.267752 
L 154.691619 132.321894 
L 155.097945 131.96976 
L 155.504271 131.789769 
L 155.910597 131.062562 
L 156.316923 130.596782 
L 156.72325 131.688212 
L 157.129576 132.406078 
L 157.535902 132.184034 
L 157.942228 132.137781 
L 158.348554 130.664366 
L 159.161206 130.315944 
L 159.567532 129.415506 
L 159.973858 129.103486 
L 160.380184 131.377827 
L 161.192837 130.3536 
L 161.599163 129.397043 
L 162.005489 130.008596 
L 162.411815 130.223193 
L 162.818141 132.807275 
L 163.224467 132.765062 
L 163.630793 131.082407 
L 164.037119 130.646855 
L 164.443445 129.997753 
L 164.849771 127.307256 
L 165.256097 126.878104 
L 165.662423 126.800938 
L 166.06875 127.059525 
L 166.475076 126.852144 
L 166.881402 129.529396 
L 167.287728 127.496139 
L 168.10038 126.964395 
L 168.506706 126.806554 
L 169.319358 129.151317 
L 170.13201 128.051065 
L 170.538337 129.242803 
L 170.944663 126.384437 
L 171.350989 128.086492 
L 171.757315 124.832834 
L 172.163641 126.486361 
L 172.569967 129.379497 
L 172.976293 126.818021 
L 173.382619 125.736109 
L 173.788945 125.748795 
L 174.195271 126.568724 
L 174.601597 126.995562 
L 175.007924 123.761726 
L 175.41425 124.849818 
L 175.820576 128.716907 
L 176.226902 130.582939 
L 176.633228 128.336301 
L 177.039554 123.204021 
L 177.44588 126.777571 
L 177.852206 125.47777 
L 178.258532 125.463805 
L 178.664858 126.455948 
L 179.071184 125.831268 
L 179.477511 127.051727 
L 179.883837 126.607611 
L 180.290163 128.254883 
L 180.696489 125.633872 
L 181.102815 126.85938 
L 181.509141 127.015296 
L 181.915467 126.358741 
L 182.321793 126.334197 
L 182.728119 125.216786 
L 183.134445 125.08449 
L 183.947098 124.614511 
L 184.353424 124.436361 
L 184.75975 125.472048 
L 185.166076 124.759845 
L 185.978728 124.88424 
L 186.385054 123.66972 
L 186.79138 124.16755 
L 187.197706 125.70098 
L 187.604032 124.009355 
L 188.010358 123.915254 
L 188.416684 125.544289 
L 188.823011 124.188981 
L 189.229337 124.240361 
L 189.635663 124.432515 
L 190.041989 124.155431 
L 190.448315 124.404399 
L 190.854641 124.924322 
L 191.260967 126.686384 
L 191.667293 126.548819 
L 192.479945 124.410801 
L 192.886271 122.916398 
L 193.292598 124.393372 
L 194.10525 124.38613 
L 194.511576 122.244309 
L 194.917902 118.673763 
L 195.324228 121.314256 
L 195.730554 121.099022 
L 196.13688 121.436914 
L 196.543206 120.877482 
L 196.949532 120.991307 
L 198.168511 115.517399 
L 198.574837 118.676723 
L 198.981163 117.613264 
L 199.387489 115.94459 
L 199.793815 115.805259 
L 200.200141 115.239133 
L 200.606467 114.156169 
L 201.012793 114.123459 
L 201.419119 114.238551 
L 201.825445 113.545734 
L 202.231772 113.884356 
L 202.638098 114.012067 
L 203.044424 113.950014 
L 203.45075 113.139915 
L 203.857076 113.54679 
L 204.263402 117.814063 
L 204.669728 114.018381 
L 205.076054 114.56969 
L 205.48238 116.395137 
L 205.888706 115.273822 
L 206.295032 116.319853 
L 206.701359 115.929424 
L 207.107685 116.78985 
L 207.514011 118.290944 
L 207.920337 116.935147 
L 208.326663 117.291711 
L 208.732989 117.171647 
L 209.545641 115.647416 
L 209.951967 116.522473 
L 210.358293 115.317429 
L 210.764619 115.425222 
L 211.170946 115.265426 
L 211.577272 115.75374 
L 211.983598 115.230027 
L 212.389924 112.250036 
L 212.79625 114.541417 
L 213.202576 112.599879 
L 213.608902 113.238586 
L 214.015228 113.035207 
L 214.421554 111.920962 
L 214.82788 113.280437 
L 215.234206 113.379831 
L 215.640532 113.126639 
L 216.046859 114.068088 
L 216.453185 112.984332 
L 216.859511 114.489405 
L 217.265837 112.218055 
L 217.672163 112.988538 
L 218.078489 112.678387 
L 218.891141 112.234796 
L 219.297467 111.853693 
L 220.110119 111.725689 
L 220.922772 114.07138 
L 221.329098 110.095142 
L 221.735424 109.224422 
L 222.14175 109.257398 
L 222.548076 112.041212 
L 222.954402 109.18223 
L 223.360728 110.031046 
L 223.767054 107.603709 
L 224.579706 106.55959 
L 224.986033 109.567858 
L 225.392359 108.816642 
L 225.798685 108.616532 
L 226.205011 108.583234 
L 226.611337 108.359909 
L 227.017663 107.946462 
L 227.423989 106.717484 
L 227.830315 106.427738 
L 228.236641 106.970167 
L 228.642967 107.113298 
L 229.049293 106.03262 
L 229.45562 106.499487 
L 229.861946 105.740447 
L 230.268272 106.574846 
L 230.674598 104.480717 
L 231.080924 105.071108 
L 231.48725 106.181605 
L 231.893576 104.637136 
L 232.299902 106.035576 
L 232.706228 105.832196 
L 233.51888 107.35601 
L 233.925207 108.871139 
L 234.331533 108.929969 
L 235.144185 107.959866 
L 235.550511 109.945168 
L 235.956837 109.788155 
L 236.363163 108.856722 
L 236.769489 108.926538 
L 237.175815 108.842312 
L 237.582141 109.030217 
L 237.988467 109.07951 
L 238.394793 109.407235 
L 238.80112 107.606851 
L 239.207446 106.428314 
L 239.613772 105.745312 
L 240.020098 104.291269 
L 240.426424 105.291562 
L 240.83275 105.571643 
L 241.239076 103.866975 
L 242.051728 103.400262 
L 242.458054 100.952541 
L 242.86438 100.645258 
L 243.677033 100.338509 
L 244.083359 102.845272 
L 244.489685 101.938598 
L 244.896011 101.951867 
L 245.708663 103.993653 
L 246.114989 102.734891 
L 246.521315 102.580175 
L 246.927641 102.550378 
L 247.333967 102.286038 
L 247.740294 102.418515 
L 248.14662 103.213145 
L 248.552946 102.368955 
L 248.959272 100.416117 
L 249.365598 99.488175 
L 249.771924 101.388801 
L 250.17825 99.238865 
L 250.584576 98.799326 
L 250.990902 102.592176 
L 251.397228 100.681463 
L 251.803554 100.993521 
L 252.209881 98.682833 
L 252.616207 98.468302 
L 253.022533 98.599532 
L 253.835185 98.279597 
L 254.241511 97.040015 
L 255.054163 99.301518 
L 255.460489 96.961556 
L 255.866815 96.34652 
L 256.273141 96.199407 
L 257.085794 96.227277 
L 257.898446 96.381258 
L 258.304772 96.591016 
L 258.711098 97.354694 
L 259.117424 97.627991 
L 259.52375 96.347822 
L 260.336402 95.280361 
L 260.742728 96.411907 
L 261.149054 98.287868 
L 261.555381 97.880391 
L 261.961707 95.910924 
L 262.774359 96.62285 
L 263.180685 96.20388 
L 263.587011 96.33275 
L 263.993337 96.313027 
L 264.399663 95.865088 
L 264.805989 99.496492 
L 265.212315 96.376696 
L 265.618641 96.770087 
L 266.024968 96.74102 
L 266.431294 96.015431 
L 266.83762 95.892129 
L 267.243946 94.835281 
L 267.650272 100.223322 
L 268.056598 96.284136 
L 268.462924 95.135239 
L 268.86925 93.511089 
L 269.275576 94.963619 
L 270.494555 94.365365 
L 270.900881 93.165469 
L 271.307207 93.712412 
L 271.713533 93.088746 
L 272.119859 93.090661 
L 272.526185 91.218484 
L 272.932511 92.756224 
L 273.338837 93.435606 
L 273.745163 91.191574 
L 274.151489 91.693319 
L 274.557815 89.326157 
L 274.964142 93.040028 
L 275.776794 89.63415 
L 276.18312 89.08397 
L 276.589446 89.981269 
L 276.995772 88.976888 
L 277.402098 88.880133 
L 278.21475 88.945452 
L 278.621076 89.108107 
L 279.027402 89.615527 
L 279.433729 89.341734 
L 279.840055 90.218143 
L 280.246381 89.690876 
L 281.465359 90.92988 
L 281.871685 91.599471 
L 282.278011 89.211735 
L 282.684337 90.049747 
L 283.090663 89.799347 
L 283.496989 89.710667 
L 283.903316 94.266095 
L 284.309642 96.132571 
L 284.715968 91.103637 
L 285.122294 88.99966 
L 285.52862 88.154855 
L 285.934946 92.77771 
L 286.341272 89.831425 
L 287.153924 87.763749 
L 287.966576 86.915822 
L 288.372902 87.25207 
L 289.185555 85.710735 
L 289.591881 85.760882 
L 289.998207 81.916484 
L 290.404533 86.517819 
L 291.217185 82.301271 
L 291.623511 83.78284 
L 292.029837 83.609221 
L 292.436163 84.713581 
L 292.842489 79.162527 
L 293.248816 82.477626 
L 293.655142 82.874667 
L 294.061468 83.091418 
L 294.467794 82.69441 
L 294.87412 81.47728 
L 295.280446 82.439439 
L 295.686772 86.249543 
L 296.093098 82.568668 
L 296.499424 82.019644 
L 296.90575 82.298324 
L 297.312076 81.675424 
L 297.718403 82.079314 
L 298.124729 83.066437 
L 298.531055 81.225293 
L 298.937381 84.669835 
L 299.343707 83.266705 
L 299.750033 84.432128 
L 300.156359 83.783077 
L 300.562685 84.337788 
L 300.969011 83.873824 
L 301.781663 84.305582 
L 302.18799 80.865866 
L 302.594316 84.590227 
L 303.000642 83.681001 
L 303.406968 82.38798 
L 303.813294 82.16907 
L 304.21962 83.081249 
L 304.625946 81.676252 
L 305.032272 82.322668 
L 305.438598 80.96111 
L 306.25125 80.007227 
L 306.657577 79.908312 
L 307.063903 79.521304 
L 307.470229 79.429789 
L 307.876555 78.645062 
L 308.282881 78.445765 
L 308.689207 75.854501 
L 309.095533 74.641097 
L 309.501859 75.162947 
L 309.908185 74.419438 
L 310.314511 74.104105 
L 310.720837 76.192025 
L 311.127163 74.886416 
L 311.939816 74.67593 
L 312.346142 74.70611 
L 312.752468 74.866701 
L 313.56512 75.940908 
L 313.971446 76.767103 
L 314.784098 77.765476 
L 315.190424 77.950959 
L 315.59675 78.875517 
L 316.003077 82.72384 
L 316.409403 77.181584 
L 316.815729 78.965287 
L 317.628381 70.085299 
L 318.034707 69.691003 
L 318.441033 70.543855 
L 318.847359 70.645984 
L 319.253685 70.508815 
L 319.660011 70.152251 
L 320.066337 70.568733 
L 320.472664 70.257462 
L 320.87899 70.86461 
L 321.285316 68.539851 
L 322.097968 66.883333 
L 322.504294 66.274978 
L 322.91062 66.06068 
L 323.316946 65.661047 
L 323.723272 64.007739 
L 324.535924 65.88929 
L 325.348577 69.176337 
L 325.754903 68.981984 
L 326.161229 70.536376 
L 327.380207 73.753566 
L 327.786533 74.097088 
L 328.192859 74.735377 
L 328.599185 74.05183 
L 329.005511 74.070278 
L 329.411838 73.024178 
L 329.818164 72.521727 
L 330.22449 73.850297 
L 330.630816 73.884066 
L 331.037142 73.420766 
L 331.443468 73.242015 
L 331.849794 73.217146 
L 332.25612 72.809701 
L 332.662446 71.477569 
L 333.068772 72.197383 
L 333.881425 72.021065 
L 334.287751 73.069448 
L 334.694077 71.968372 
L 335.100403 71.639887 
L 335.506729 73.319205 
L 335.913055 71.867552 
L 336.319381 71.804842 
L 336.725707 71.611893 
L 337.944685 71.714258 
L 338.351011 70.885113 
L 338.757338 70.755356 
L 339.56999 71.262606 
L 339.976316 70.062702 
L 340.382642 71.092081 
L 340.788968 71.43943 
L 341.195294 71.47371 
L 341.60162 71.862835 
L 343.226925 75.048783 
L 343.633251 74.308116 
L 344.039577 74.001021 
L 344.445903 72.699764 
L 344.852229 72.648534 
L 345.664881 69.693009 
L 346.071207 70.105401 
L 346.477533 70.050753 
L 346.883859 68.78934 
L 347.290185 68.324456 
L 347.696512 68.094118 
L 348.509164 67.238035 
L 348.91549 67.34714 
L 349.321816 68.147488 
L 349.728142 64.720524 
L 350.134468 64.336593 
L 350.540794 64.847224 
L 350.94712 64.631795 
L 351.353446 67.520024 
L 351.759772 64.491243 
L 352.166099 64.071218 
L 352.572425 63.480585 
L 352.978751 63.809609 
L 353.385077 62.792029 
L 353.791403 60.597533 
L 354.197729 60.681015 
L 354.604055 62.087011 
L 355.010381 62.001771 
L 355.823033 60.402886 
L 356.229359 62.449198 
L 356.635686 60.765094 
L 357.042012 61.911059 
L 357.448338 60.612858 
L 357.854664 59.896465 
L 358.26099 60.333332 
L 358.667316 61.907477 
L 359.073642 60.364354 
L 359.479968 60.447851 
L 359.886294 59.102385 
L 360.29262 61.648667 
L 360.698946 59.091319 
L 361.105272 59.684402 
L 361.511599 61.303382 
L 361.917925 60.925495 
L 362.324251 60.05453 
L 363.136903 58.986961 
L 363.543229 59.190354 
L 363.949555 59.687009 
L 364.355881 60.718526 
L 364.762207 59.508052 
L 365.168533 62.170687 
L 365.574859 62.689069 
L 365.981186 60.083592 
L 366.387512 62.352999 
L 366.793838 61.596988 
L 367.200164 60.433564 
L 367.60649 56.237003 
L 368.012816 54.609189 
L 368.419142 57.11561 
L 368.825468 56.859829 
L 369.231794 59.870592 
L 369.63812 58.960055 
L 370.044446 61.246345 
L 370.450773 60.177483 
L 370.857099 57.489091 
L 372.076077 58.98445 
L 372.482403 59.8697 
L 372.888729 59.638493 
L 373.295055 57.964155 
L 373.701381 58.073453 
L 374.107707 57.720844 
L 374.514033 56.474887 
L 374.92036 57.450179 
L 375.733012 56.145131 
L 376.139338 55.877537 
L 376.545664 58.208236 
L 376.95199 58.662022 
L 377.358316 57.334794 
L 377.764642 57.808661 
L 378.170968 59.182459 
L 378.577294 58.159721 
L 379.389947 57.147939 
L 379.796273 58.154096 
L 380.202599 57.682025 
L 380.608925 57.8939 
L 381.015251 58.259738 
L 381.421577 57.693458 
L 381.827903 57.823418 
L 382.234229 59.34104 
L 382.640555 58.709615 
L 383.453207 54.976691 
L 383.859534 54.752613 
L 384.26586 55.715688 
L 384.672186 54.705213 
L 385.078512 54.2526 
L 385.484838 53.990466 
L 385.891164 56.686924 
L 386.29749 54.58964 
L 386.703816 53.887881 
L 387.110142 55.829995 
L 387.516468 54.116059 
L 387.922794 54.287558 
L 388.32912 53.994654 
L 388.735447 53.865267 
L 389.141773 55.780661 
L 389.548099 55.898256 
L 389.954425 55.595792 
L 390.360751 55.729485 
L 390.767077 56.303411 
L 391.579729 56.626787 
L 391.986055 56.785572 
L 392.798707 55.833596 
L 393.205034 59.666005 
L 393.61136 53.568 
L 394.017686 54.80136 
L 394.424012 55.148472 
L 394.830338 55.333702 
L 395.236664 55.645395 
L 395.64299 56.183804 
L 396.049316 58.16167 
L 396.455642 56.671062 
L 396.861968 56.792843 
L 397.268294 56.588397 
L 397.674621 56.760252 
L 398.080947 55.658073 
L 398.487273 58.387882 
L 398.487273 58.387882 
" style="fill:none;stroke:#1f77b4;stroke-linecap:square;stroke-width:1.5;"/>
   </g>
   <g id="line2d_16">
    <path clip-path="url(#p95877839a7)" d="M 73.832727 285.868379 
L 74.239053 288.217533 
L 74.645379 287.20986 
L 75.051706 288.599792 
L 75.458032 290.521708 
L 75.864358 290.32616 
L 76.270684 289.201241 
L 76.67701 289.504029 
L 77.083336 289.385299 
L 77.489662 292.072517 
L 77.895988 292.310183 
L 78.302314 290.802092 
L 78.70864 291.096083 
L 79.114966 291.972862 
L 79.521293 292.37119 
L 79.927619 292.245023 
L 80.333945 292.628308 
L 80.740271 292.793977 
L 81.146597 294.110887 
L 81.552923 293.407014 
L 81.959249 292.267006 
L 82.365575 293.139082 
L 82.771901 293.527821 
L 83.178227 293.69813 
L 83.584553 294.526194 
L 83.99088 293.785706 
L 84.397206 294.12367 
L 84.803532 293.916759 
L 86.02251 293.920817 
L 86.428836 295.488 
L 86.835162 294.08373 
L 87.241488 294.453017 
L 87.647814 293.958754 
L 88.05414 293.782713 
L 88.460466 293.418349 
L 89.679445 293.099511 
L 90.085771 294.020627 
L 90.492097 292.095492 
L 91.711075 291.903594 
L 92.117401 291.574231 
L 92.523727 291.57987 
L 92.930053 291.385608 
L 93.33638 291.504099 
L 93.742706 292.473346 
L 94.149032 291.665945 
L 94.555358 291.506732 
L 94.961684 290.665355 
L 95.36801 290.927584 
L 95.774336 289.627059 
L 96.180662 289.528545 
L 96.586988 291.423539 
L 96.993314 290.105492 
L 97.39964 289.919336 
L 97.805967 288.717144 
L 98.212293 288.527506 
L 98.618619 289.060001 
L 99.024945 288.689349 
L 99.431271 288.507461 
L 99.837597 289.588327 
L 100.243923 288.605971 
L 100.650249 287.940489 
L 101.056575 288.265449 
L 101.462901 287.026457 
L 101.869227 287.338375 
L 102.275554 288.841785 
L 102.68188 287.067886 
L 103.088206 286.83068 
L 103.494532 287.775234 
L 103.900858 288.279894 
L 104.307184 289.107766 
L 105.119836 289.392087 
L 105.932488 287.715261 
L 106.338814 289.045424 
L 106.745141 289.848982 
L 107.151467 288.691247 
L 107.557793 289.114926 
L 109.183097 289.7576 
L 109.589423 290.7227 
L 109.995749 289.752143 
L 110.402075 289.271622 
L 110.808401 289.457664 
L 111.214728 290.578587 
L 111.621054 289.405949 
L 112.02738 289.399146 
L 112.840032 289.676101 
L 113.246358 292.60726 
L 113.652684 289.320328 
L 114.05901 289.654224 
L 114.465336 292.245469 
L 114.871662 292.2054 
L 115.277988 290.090881 
L 115.684314 289.733515 
L 116.496967 289.823618 
L 116.903293 289.959223 
L 117.309619 289.77792 
L 117.715945 290.951717 
L 118.122271 289.405648 
L 118.528597 290.408642 
L 118.934923 288.918126 
L 119.341249 291.050574 
L 119.747575 290.414082 
L 120.153901 289.043395 
L 120.560228 289.793667 
L 120.966554 289.060316 
L 121.37288 289.261114 
L 121.779206 289.029746 
L 122.185532 290.168313 
L 122.591858 290.608451 
L 122.998184 289.667455 
L 123.40451 288.305435 
L 123.810836 289.572082 
L 124.217162 290.260471 
L 124.623488 289.356483 
L 125.029815 289.411504 
L 125.436141 289.966399 
L 125.842467 290.946202 
L 126.248793 291.048755 
L 126.655119 291.930082 
L 127.061445 288.738058 
L 127.467771 290.082608 
L 127.874097 291.817908 
L 128.280423 288.871254 
L 128.686749 290.849605 
L 129.093075 290.402667 
L 129.499402 289.472118 
L 129.905728 288.997204 
L 130.312054 290.621878 
L 130.71838 290.210128 
L 131.124706 288.710312 
L 131.531032 289.547875 
L 131.937358 290.934473 
L 132.343684 288.772958 
L 132.75001 289.773117 
L 133.156336 289.071474 
L 133.968989 288.333891 
L 134.375315 287.942361 
L 134.781641 289.04248 
L 135.187967 288.114491 
L 136.000619 290.547506 
L 136.406945 290.104815 
L 136.813271 288.895434 
L 137.219597 289.11374 
L 137.625923 290.413131 
L 138.032249 289.089715 
L 138.438575 288.8213 
L 138.844902 290.100881 
L 139.251228 289.157713 
L 139.657554 289.967694 
L 140.06388 289.986825 
L 140.470206 289.005488 
L 140.876532 289.313819 
L 141.282858 288.587512 
L 141.689184 288.616994 
L 142.09551 290.375231 
L 142.501836 289.642025 
L 142.908162 289.343126 
L 143.314489 288.608036 
L 143.720815 288.502963 
L 144.127141 288.817538 
L 144.939793 291.151186 
L 145.346119 289.436949 
L 145.752445 289.011799 
L 146.158771 289.468203 
L 146.971423 291.13896 
L 147.377749 288.898101 
L 147.784076 288.943643 
L 148.190402 289.194978 
L 148.596728 288.862998 
L 149.003054 289.176073 
L 149.40938 289.957636 
L 149.815706 290.051603 
L 150.222032 288.580569 
L 150.628358 288.754229 
L 151.034684 290.441261 
L 151.44101 288.62383 
L 151.847336 289.644467 
L 152.253663 289.696538 
L 152.659989 288.910488 
L 153.066315 289.927258 
L 153.472641 288.720927 
L 153.878967 289.194303 
L 154.285293 288.428911 
L 155.097945 290.103848 
L 155.504271 289.683158 
L 155.910597 290.079394 
L 156.316923 288.844135 
L 156.72325 290.234744 
L 157.535902 289.692388 
L 157.942228 289.943918 
L 158.75488 290.118913 
L 159.161206 289.017909 
L 159.567532 289.383305 
L 159.973858 290.498398 
L 160.78651 289.980986 
L 161.599163 290.694889 
L 162.005489 289.883785 
L 162.411815 290.659215 
L 163.224467 288.243751 
L 163.630793 289.497838 
L 164.037119 288.822426 
L 164.443445 290.761169 
L 164.849771 289.671793 
L 165.256097 290.206289 
L 165.662423 288.427892 
L 166.06875 290.180424 
L 166.475076 288.448628 
L 166.881402 289.825973 
L 167.287728 288.560736 
L 167.694054 289.409007 
L 168.10038 288.521335 
L 168.506706 289.247689 
L 168.913032 289.590428 
L 169.319358 290.198766 
L 169.725684 289.011116 
L 170.13201 289.130234 
L 170.538337 289.845426 
L 170.944663 289.02896 
L 171.757315 290.740806 
L 172.163641 289.90335 
L 172.569967 290.333438 
L 173.788945 288.611375 
L 174.195271 289.947764 
L 175.007924 290.339259 
L 175.41425 290.207347 
L 175.820576 292.618302 
L 176.226902 289.688501 
L 176.633228 288.997939 
L 177.039554 288.617198 
L 177.44588 289.284275 
L 178.664858 290.07293 
L 179.071184 290.615955 
L 179.477511 288.872141 
L 179.883837 288.398191 
L 180.290163 289.644422 
L 180.696489 289.838208 
L 181.102815 288.799108 
L 181.509141 288.874206 
L 181.915467 291.990461 
L 182.321793 289.854781 
L 182.728119 289.655384 
L 183.134445 289.662381 
L 183.540771 289.829215 
L 183.947098 288.822595 
L 184.353424 289.843855 
L 184.75975 288.693253 
L 185.166076 290.431276 
L 185.572402 289.339202 
L 186.385054 288.692386 
L 186.79138 289.402209 
L 187.197706 289.673812 
L 187.604032 289.061392 
L 188.010358 289.977429 
L 188.416684 289.755261 
L 188.823011 288.887675 
L 189.229337 290.399295 
L 189.635663 289.222801 
L 190.041989 288.916231 
L 190.448315 289.183106 
L 191.260967 289.144573 
L 191.667293 288.576474 
L 192.073619 289.056847 
L 192.479945 289.266947 
L 192.886271 289.930691 
L 193.292598 290.11981 
L 194.10525 288.709956 
L 195.324228 288.642923 
L 195.730554 289.103111 
L 196.13688 289.893958 
L 196.543206 289.306118 
L 196.949532 289.22225 
L 197.355858 290.229008 
L 197.762185 290.687544 
L 198.168511 288.369574 
L 198.574837 290.731919 
L 198.981163 290.796401 
L 199.387489 290.70213 
L 200.200141 290.867481 
L 200.606467 290.720738 
L 201.012793 290.867939 
L 201.419119 290.669191 
L 201.825445 290.863004 
L 202.231772 290.560728 
L 202.638098 290.890859 
L 203.044424 290.982749 
L 203.45075 289.195846 
L 203.857076 290.155759 
L 204.263402 290.460344 
L 204.669728 291.045312 
L 205.076054 289.703845 
L 205.888706 289.75243 
L 206.295032 289.961079 
L 207.920337 290.127865 
L 208.732989 290.143171 
L 209.139315 291.510873 
L 209.545641 291.912553 
L 210.358293 291.885552 
L 211.170946 291.987406 
L 211.577272 291.997434 
L 212.79625 289.03797 
L 213.202576 289.033981 
L 213.608902 289.714962 
L 214.015228 290.835077 
L 214.421554 288.595492 
L 214.82788 288.594241 
L 215.640532 289.548809 
L 216.046859 288.04079 
L 216.453185 291.545814 
L 216.859511 289.901779 
L 217.265837 290.62565 
L 217.672163 290.706456 
L 218.078489 288.548963 
L 218.484815 289.373965 
L 219.297467 289.289357 
L 219.703793 288.927305 
L 220.110119 289.07741 
L 220.516446 290.161103 
L 220.922772 288.784106 
L 221.329098 289.436382 
L 221.735424 288.407592 
L 222.954402 288.093699 
L 223.767054 288.005988 
L 224.17338 289.400258 
L 224.579706 287.95094 
L 225.392359 289.314205 
L 225.798685 288.562704 
L 226.205011 288.761226 
L 226.611337 289.794872 
L 227.017663 289.532741 
L 227.423989 289.431077 
L 227.830315 289.103741 
L 228.236641 290.539212 
L 228.642967 288.597356 
L 229.049293 288.736398 
L 229.45562 291.284389 
L 229.861946 288.880317 
L 230.268272 289.254172 
L 230.674598 289.100194 
L 231.080924 291.186719 
L 231.48725 290.695808 
L 231.893576 288.966873 
L 232.299902 288.300349 
L 232.706228 288.061057 
L 233.112554 288.548636 
L 233.51888 290.681335 
L 233.925207 288.361884 
L 234.331533 289.479867 
L 234.737859 289.141294 
L 235.144185 288.423284 
L 235.550511 289.746613 
L 235.956837 289.80904 
L 236.363163 288.449821 
L 236.769489 289.032799 
L 237.175815 289.890514 
L 237.582141 290.00077 
L 237.988467 289.910881 
L 238.394793 288.452228 
L 238.80112 289.316638 
L 239.207446 289.274086 
L 239.613772 291.525297 
L 240.020098 289.616849 
L 240.426424 289.052423 
L 240.83275 289.540815 
L 241.645402 288.806441 
L 242.051728 289.629603 
L 242.458054 288.745586 
L 242.86438 290.081259 
L 243.270707 290.142479 
L 243.677033 290.442733 
L 244.083359 289.041369 
L 244.489685 289.358215 
L 244.896011 289.862237 
L 245.708663 288.424188 
L 246.114989 290.284338 
L 246.521315 289.08665 
L 246.927641 288.964209 
L 247.333967 289.631427 
L 247.740294 289.043103 
L 248.14662 288.162543 
L 248.959272 288.87105 
L 249.365598 288.292992 
L 249.771924 288.238712 
L 250.17825 289.586651 
L 250.584576 288.310186 
L 250.990902 288.389426 
L 251.397228 288.803097 
L 251.803554 288.928325 
L 252.209881 288.664732 
L 252.616207 290.143005 
L 253.022533 290.659721 
L 253.428859 289.110638 
L 253.835185 289.230897 
L 254.241511 289.171929 
L 254.647837 289.965885 
L 255.054163 289.181349 
L 255.460489 288.845965 
L 255.866815 289.162663 
L 256.679468 289.076218 
L 257.085794 290.931525 
L 257.49212 290.713318 
L 257.898446 289.893745 
L 258.304772 289.597453 
L 258.711098 290.344955 
L 259.117424 289.923718 
L 259.52375 289.334975 
L 259.930076 290.053357 
L 260.336402 291.274752 
L 260.742728 289.729933 
L 261.149054 289.72147 
L 261.555381 291.205175 
L 261.961707 289.740672 
L 262.368033 291.22697 
L 262.774359 291.254652 
L 263.180685 288.914061 
L 263.587011 291.259528 
L 263.993337 289.810752 
L 264.399663 289.809811 
L 264.805989 291.402322 
L 265.212315 291.1229 
L 266.024968 291.060306 
L 266.431294 289.824786 
L 266.83762 289.808313 
L 267.243946 289.353499 
L 267.650272 288.277987 
L 268.056598 288.487497 
L 268.462924 288.21661 
L 268.86925 288.366111 
L 269.275576 289.088256 
L 269.681902 288.889845 
L 270.088228 289.052384 
L 270.494555 288.454835 
L 270.900881 289.016225 
L 271.307207 290.395714 
L 271.713533 290.086386 
L 272.119859 290.192168 
L 272.526185 289.311981 
L 272.932511 289.679504 
L 273.338837 289.098908 
L 274.151489 289.461421 
L 274.964142 289.312127 
L 275.370468 290.04731 
L 276.589446 289.270599 
L 276.995772 289.785185 
L 277.808424 291.25954 
L 278.21475 291.126808 
L 278.621076 290.470123 
L 279.027402 291.002191 
L 279.433729 290.434045 
L 279.840055 290.799255 
L 280.652707 290.770907 
L 281.059033 290.575919 
L 281.465359 290.564573 
L 281.871685 290.763123 
L 283.090663 290.769645 
L 283.496989 290.346151 
L 283.903316 290.767372 
L 285.52862 290.820434 
L 285.934946 290.409059 
L 286.341272 290.881755 
L 286.747598 290.475679 
L 287.153924 290.588492 
L 287.56025 289.476334 
L 287.966576 289.854056 
L 288.372902 289.561865 
L 288.779229 291.22222 
L 289.185555 290.912181 
L 289.591881 289.460555 
L 289.998207 288.896954 
L 290.404533 288.892987 
L 290.810859 290.020002 
L 291.217185 290.020808 
L 291.623511 288.90682 
L 293.655142 288.867058 
L 294.061468 291.118656 
L 294.87412 291.013423 
L 295.280446 290.239078 
L 295.686772 290.879978 
L 296.093098 290.828196 
L 296.499424 289.981227 
L 296.90575 290.987252 
L 297.312076 290.992016 
L 297.718403 288.9201 
L 300.156359 288.871257 
L 300.562685 290.950531 
L 301.375337 290.963241 
L 302.18799 288.84881 
L 302.594316 288.686053 
L 303.406968 288.706532 
L 303.813294 289.618501 
L 304.21962 289.715502 
L 304.625946 287.986765 
L 305.032272 288.315844 
L 305.438598 289.725965 
L 305.844924 289.600581 
L 306.657577 290.092938 
L 307.063903 288.995656 
L 307.470229 289.579694 
L 307.876555 289.572339 
L 308.282881 289.952883 
L 308.689207 290.540189 
L 309.095533 288.809385 
L 309.501859 291.267541 
L 309.908185 290.200387 
L 310.720837 288.974941 
L 311.127163 290.106737 
L 311.53349 289.52557 
L 311.939816 289.249871 
L 312.752468 290.936799 
L 313.56512 288.579995 
L 313.971446 290.053189 
L 314.377772 289.29834 
L 314.784098 287.992402 
L 315.190424 289.698812 
L 315.59675 289.289954 
L 316.003077 288.552692 
L 317.222055 288.482279 
L 317.628381 289.152179 
L 319.253685 288.955832 
L 321.285316 288.788802 
L 322.504294 288.764675 
L 323.723272 288.717156 
L 324.129598 288.915905 
L 324.535924 288.690105 
L 325.754903 288.643024 
L 326.161229 288.962716 
L 326.567555 288.635009 
L 327.786533 288.690916 
L 328.192859 290.783668 
L 328.599185 290.151454 
L 329.005511 290.716358 
L 329.411838 290.794153 
L 329.818164 289.380389 
L 331.037142 289.432702 
L 331.443468 288.750074 
L 331.849794 289.027363 
L 332.25612 288.536843 
L 332.662446 288.602341 
L 333.068772 291.12439 
L 333.881425 291.111381 
L 334.287751 289.372361 
L 334.694077 291.264265 
L 335.100403 291.025157 
L 335.913055 290.973754 
L 336.319381 291.110777 
L 336.725707 290.783068 
L 337.132033 291.079657 
L 337.538359 291.076057 
L 337.944685 290.198795 
L 338.351011 290.99129 
L 339.163664 290.895544 
L 339.56999 290.030774 
L 339.976316 290.828703 
L 340.382642 289.998387 
L 341.195294 290.067175 
L 341.60162 290.775719 
L 342.414272 290.736259 
L 343.226925 290.869663 
L 343.633251 290.590346 
L 344.039577 290.876613 
L 344.445903 290.593025 
L 344.852229 290.48495 
L 345.258555 289.950854 
L 345.664881 288.927746 
L 346.071207 289.589061 
L 347.290185 289.820785 
L 347.696512 289.256893 
L 348.102838 289.820588 
L 349.321816 289.992739 
L 350.134468 289.028485 
L 350.540794 289.267231 
L 350.94712 289.888384 
L 351.353446 289.256019 
L 352.166099 289.26747 
L 352.572425 289.947648 
L 352.978751 289.931584 
L 353.385077 290.059371 
L 353.791403 289.539114 
L 354.604055 289.47247 
L 355.010381 289.989169 
L 355.416707 289.452111 
L 356.635686 289.333654 
L 357.042012 289.855196 
L 357.448338 289.843574 
L 357.854664 289.27343 
L 358.26099 289.811343 
L 358.667316 289.808422 
L 359.073642 289.24197 
L 359.479968 289.23499 
L 359.886294 289.802202 
L 360.29262 289.809241 
L 360.698946 289.249233 
L 361.917925 289.288266 
L 362.324251 289.875518 
L 362.730577 288.976925 
L 363.543229 288.96485 
L 363.949555 288.447631 
L 364.355881 288.917391 
L 364.762207 290.540776 
L 365.168533 288.924806 
L 365.574859 288.516679 
L 366.793838 288.489635 
L 367.200164 288.441869 
L 367.60649 288.606417 
L 368.012816 288.016919 
L 368.419142 289.090124 
L 368.825468 290.53066 
L 369.231794 288.954963 
L 369.63812 289.136376 
L 370.044446 289.028632 
L 370.450773 289.056237 
L 370.857099 289.249588 
L 372.076077 289.19665 
L 372.482403 291.012708 
L 372.888729 288.870851 
L 373.295055 289.577423 
L 374.514033 289.722273 
L 374.92036 289.536016 
L 375.326686 288.754368 
L 375.733012 288.680133 
L 376.545664 288.782094 
L 377.358316 288.709273 
L 378.170968 289.134144 
L 378.577294 288.846444 
L 378.98362 288.876103 
L 379.389947 289.340989 
L 379.796273 289.376106 
L 380.202599 288.961022 
L 380.608925 288.780175 
L 381.015251 288.753174 
L 381.421577 288.376963 
L 381.827903 288.618268 
L 382.234229 288.17958 
L 382.640555 289.813659 
L 383.046881 289.878613 
L 383.453207 288.825189 
L 383.859534 289.69034 
L 384.672186 289.642923 
L 385.078512 288.399433 
L 385.484838 291.200048 
L 385.891164 289.028963 
L 386.29749 290.54738 
L 386.703816 291.284238 
L 387.110142 289.564116 
L 387.922794 289.524331 
L 388.32912 289.856079 
L 388.735447 289.814731 
L 389.141773 288.759966 
L 389.548099 289.09257 
L 389.954425 288.756263 
L 390.360751 289.897289 
L 390.767077 288.759607 
L 391.173403 288.704405 
L 391.579729 288.477376 
L 391.986055 288.755938 
L 392.392381 289.368418 
L 392.798707 290.427064 
L 393.205034 288.877678 
L 393.61136 288.490874 
L 394.017686 288.381731 
L 394.424012 289.521138 
L 394.830338 289.638159 
L 395.236664 290.089069 
L 395.64299 290.099385 
L 396.049316 288.601972 
L 396.455642 290.120395 
L 396.861968 290.129606 
L 397.268294 288.611032 
L 397.674621 288.29281 
L 398.080947 288.89857 
L 398.487273 288.918959 
L 398.487273 288.918959 
" style="fill:none;stroke:#ff7f0e;stroke-linecap:square;stroke-width:1.5;"/>
   </g>
   <g id="patch_3">
    <path d="M 57.6 307.584 
L 57.6 41.472 
" style="fill:none;stroke:#000000;stroke-linecap:square;stroke-linejoin:miter;stroke-width:0.8;"/>
   </g>
   <g id="patch_4">
    <path d="M 414.72 307.584 
L 414.72 41.472 
" style="fill:none;stroke:#000000;stroke-linecap:square;stroke-linejoin:miter;stroke-width:0.8;"/>
   </g>
   <g id="patch_5">
    <path d="M 57.6 307.584 
L 414.72 307.584 
" style="fill:none;stroke:#000000;stroke-linecap:square;stroke-linejoin:miter;stroke-width:0.8;"/>
   </g>
   <g id="patch_6">
    <path d="M 57.6 41.472 
L 414.72 41.472 
" style="fill:none;stroke:#000000;stroke-linecap:square;stroke-linejoin:miter;stroke-width:0.8;"/>
   </g>
  </g>
 </g>
 <defs>
  <clipPath id="p95877839a7">
   <rect height="266.112" width="357.12" x="57.6" y="41.472"/>
  </clipPath>
 </defs>
</svg>
