<?xml version="1.0" encoding="utf-8" standalone="no"?>
<!DOCTYPE svg PUBLIC "-//W3C//DTD SVG 1.1//EN"
  "http://www.w3.org/Graphics/SVG/1.1/DTD/svg11.dtd">
<!-- Created with matplotlib (https://matplotlib.org/) -->
<svg height="345.6pt" version="1.1" viewBox="0 0 460.8 345.6" width="460.8pt" xmlns="http://www.w3.org/2000/svg" xmlns:xlink="http://www.w3.org/1999/xlink">
 <defs>
  <style type="text/css">
*{stroke-linecap:butt;stroke-linejoin:round;}
  </style>
 </defs>
 <g id="figure_1">
  <g id="patch_1">
   <path d="M 0 345.6 
L 460.8 345.6 
L 460.8 0 
L 0 0 
z
" style="fill:#ffffff;"/>
  </g>
  <g id="axes_1">
   <g id="patch_2">
    <path d="M 57.6 307.584 
L 414.72 307.584 
L 414.72 41.472 
L 57.6 41.472 
z
" style="fill:#ffffff;"/>
   </g>
   <g id="matplotlib.axis_1">
    <g id="xtick_1">
     <g id="line2d_1">
      <defs>
       <path d="M 0 0 
L 0 3.5 
" id="mdcff61a098" style="stroke:#000000;stroke-width:0.8;"/>
      </defs>
      <g>
       <use style="stroke:#000000;stroke-width:0.8;" x="73.832727" xlink:href="#mdcff61a098" y="307.584"/>
      </g>
     </g>
     <g id="text_1">
      <!-- 0 -->
      <defs>
       <path d="M 31.78125 66.40625 
Q 24.171875 66.40625 20.328125 58.90625 
Q 16.5 51.421875 16.5 36.375 
Q 16.5 21.390625 20.328125 13.890625 
Q 24.171875 6.390625 31.78125 6.390625 
Q 39.453125 6.390625 43.28125 13.890625 
Q 47.125 21.390625 47.125 36.375 
Q 47.125 51.421875 43.28125 58.90625 
Q 39.453125 66.40625 31.78125 66.40625 
z
M 31.78125 74.21875 
Q 44.046875 74.21875 50.515625 64.515625 
Q 56.984375 54.828125 56.984375 36.375 
Q 56.984375 17.96875 50.515625 8.265625 
Q 44.046875 -1.421875 31.78125 -1.421875 
Q 19.53125 -1.421875 13.0625 8.265625 
Q 6.59375 17.96875 6.59375 36.375 
Q 6.59375 54.828125 13.0625 64.515625 
Q 19.53125 74.21875 31.78125 74.21875 
z
" id="DejaVuSans-48"/>
      </defs>
      <g transform="translate(70.651477 322.182437)scale(0.1 -0.1)">
       <use xlink:href="#DejaVuSans-48"/>
      </g>
     </g>
    </g>
    <g id="xtick_2">
     <g id="line2d_2">
      <g>
       <use style="stroke:#000000;stroke-width:0.8;" x="114.465336" xlink:href="#mdcff61a098" y="307.584"/>
      </g>
     </g>
     <g id="text_2">
      <!-- 100 -->
      <defs>
       <path d="M 12.40625 8.296875 
L 28.515625 8.296875 
L 28.515625 63.921875 
L 10.984375 60.40625 
L 10.984375 69.390625 
L 28.421875 72.90625 
L 38.28125 72.90625 
L 38.28125 8.296875 
L 54.390625 8.296875 
L 54.390625 0 
L 12.40625 0 
z
" id="DejaVuSans-49"/>
      </defs>
      <g transform="translate(104.921586 322.182437)scale(0.1 -0.1)">
       <use xlink:href="#DejaVuSans-49"/>
       <use x="63.623047" xlink:href="#DejaVuSans-48"/>
       <use x="127.246094" xlink:href="#DejaVuSans-48"/>
      </g>
     </g>
    </g>
    <g id="xtick_3">
     <g id="line2d_3">
      <g>
       <use style="stroke:#000000;stroke-width:0.8;" x="155.097945" xlink:href="#mdcff61a098" y="307.584"/>
      </g>
     </g>
     <g id="text_3">
      <!-- 200 -->
      <defs>
       <path d="M 19.1875 8.296875 
L 53.609375 8.296875 
L 53.609375 0 
L 7.328125 0 
L 7.328125 8.296875 
Q 12.9375 14.109375 22.625 23.890625 
Q 32.328125 33.6875 34.8125 36.53125 
Q 39.546875 41.84375 41.421875 45.53125 
Q 43.3125 49.21875 43.3125 52.78125 
Q 43.3125 58.59375 39.234375 62.25 
Q 35.15625 65.921875 28.609375 65.921875 
Q 23.96875 65.921875 18.8125 64.3125 
Q 13.671875 62.703125 7.8125 59.421875 
L 7.8125 69.390625 
Q 13.765625 71.78125 18.9375 73 
Q 24.125 74.21875 28.421875 74.21875 
Q 39.75 74.21875 46.484375 68.546875 
Q 53.21875 62.890625 53.21875 53.421875 
Q 53.21875 48.921875 51.53125 44.890625 
Q 49.859375 40.875 45.40625 35.40625 
Q 44.1875 33.984375 37.640625 27.21875 
Q 31.109375 20.453125 19.1875 8.296875 
z
" id="DejaVuSans-50"/>
      </defs>
      <g transform="translate(145.554195 322.182437)scale(0.1 -0.1)">
       <use xlink:href="#DejaVuSans-50"/>
       <use x="63.623047" xlink:href="#DejaVuSans-48"/>
       <use x="127.246094" xlink:href="#DejaVuSans-48"/>
      </g>
     </g>
    </g>
    <g id="xtick_4">
     <g id="line2d_4">
      <g>
       <use style="stroke:#000000;stroke-width:0.8;" x="195.730554" xlink:href="#mdcff61a098" y="307.584"/>
      </g>
     </g>
     <g id="text_4">
      <!-- 300 -->
      <defs>
       <path d="M 40.578125 39.3125 
Q 47.65625 37.796875 51.625 33 
Q 55.609375 28.21875 55.609375 21.1875 
Q 55.609375 10.40625 48.1875 4.484375 
Q 40.765625 -1.421875 27.09375 -1.421875 
Q 22.515625 -1.421875 17.65625 -0.515625 
Q 12.796875 0.390625 7.625 2.203125 
L 7.625 11.71875 
Q 11.71875 9.328125 16.59375 8.109375 
Q 21.484375 6.890625 26.8125 6.890625 
Q 36.078125 6.890625 40.9375 10.546875 
Q 45.796875 14.203125 45.796875 21.1875 
Q 45.796875 27.640625 41.28125 31.265625 
Q 36.765625 34.90625 28.71875 34.90625 
L 20.21875 34.90625 
L 20.21875 43.015625 
L 29.109375 43.015625 
Q 36.375 43.015625 40.234375 45.921875 
Q 44.09375 48.828125 44.09375 54.296875 
Q 44.09375 59.90625 40.109375 62.90625 
Q 36.140625 65.921875 28.71875 65.921875 
Q 24.65625 65.921875 20.015625 65.03125 
Q 15.375 64.15625 9.8125 62.3125 
L 9.8125 71.09375 
Q 15.4375 72.65625 20.34375 73.4375 
Q 25.25 74.21875 29.59375 74.21875 
Q 40.828125 74.21875 47.359375 69.109375 
Q 53.90625 64.015625 53.90625 55.328125 
Q 53.90625 49.265625 50.4375 45.09375 
Q 46.96875 40.921875 40.578125 39.3125 
z
" id="DejaVuSans-51"/>
      </defs>
      <g transform="translate(186.186804 322.182437)scale(0.1 -0.1)">
       <use xlink:href="#DejaVuSans-51"/>
       <use x="63.623047" xlink:href="#DejaVuSans-48"/>
       <use x="127.246094" xlink:href="#DejaVuSans-48"/>
      </g>
     </g>
    </g>
    <g id="xtick_5">
     <g id="line2d_5">
      <g>
       <use style="stroke:#000000;stroke-width:0.8;" x="236.363163" xlink:href="#mdcff61a098" y="307.584"/>
      </g>
     </g>
     <g id="text_5">
      <!-- 400 -->
      <defs>
       <path d="M 37.796875 64.3125 
L 12.890625 25.390625 
L 37.796875 25.390625 
z
M 35.203125 72.90625 
L 47.609375 72.90625 
L 47.609375 25.390625 
L 58.015625 25.390625 
L 58.015625 17.1875 
L 47.609375 17.1875 
L 47.609375 0 
L 37.796875 0 
L 37.796875 17.1875 
L 4.890625 17.1875 
L 4.890625 26.703125 
z
" id="DejaVuSans-52"/>
      </defs>
      <g transform="translate(226.819413 322.182437)scale(0.1 -0.1)">
       <use xlink:href="#DejaVuSans-52"/>
       <use x="63.623047" xlink:href="#DejaVuSans-48"/>
       <use x="127.246094" xlink:href="#DejaVuSans-48"/>
      </g>
     </g>
    </g>
    <g id="xtick_6">
     <g id="line2d_6">
      <g>
       <use style="stroke:#000000;stroke-width:0.8;" x="276.995772" xlink:href="#mdcff61a098" y="307.584"/>
      </g>
     </g>
     <g id="text_6">
      <!-- 500 -->
      <defs>
       <path d="M 10.796875 72.90625 
L 49.515625 72.90625 
L 49.515625 64.59375 
L 19.828125 64.59375 
L 19.828125 46.734375 
Q 21.96875 47.46875 24.109375 47.828125 
Q 26.265625 48.1875 28.421875 48.1875 
Q 40.625 48.1875 47.75 41.5 
Q 54.890625 34.8125 54.890625 23.390625 
Q 54.890625 11.625 47.5625 5.09375 
Q 40.234375 -1.421875 26.90625 -1.421875 
Q 22.3125 -1.421875 17.546875 -0.640625 
Q 12.796875 0.140625 7.71875 1.703125 
L 7.71875 11.625 
Q 12.109375 9.234375 16.796875 8.0625 
Q 21.484375 6.890625 26.703125 6.890625 
Q 35.15625 6.890625 40.078125 11.328125 
Q 45.015625 15.765625 45.015625 23.390625 
Q 45.015625 31 40.078125 35.4375 
Q 35.15625 39.890625 26.703125 39.890625 
Q 22.75 39.890625 18.8125 39.015625 
Q 14.890625 38.140625 10.796875 36.28125 
z
" id="DejaVuSans-53"/>
      </defs>
      <g transform="translate(267.452022 322.182437)scale(0.1 -0.1)">
       <use xlink:href="#DejaVuSans-53"/>
       <use x="63.623047" xlink:href="#DejaVuSans-48"/>
       <use x="127.246094" xlink:href="#DejaVuSans-48"/>
      </g>
     </g>
    </g>
    <g id="xtick_7">
     <g id="line2d_7">
      <g>
       <use style="stroke:#000000;stroke-width:0.8;" x="317.628381" xlink:href="#mdcff61a098" y="307.584"/>
      </g>
     </g>
     <g id="text_7">
      <!-- 600 -->
      <defs>
       <path d="M 33.015625 40.375 
Q 26.375 40.375 22.484375 35.828125 
Q 18.609375 31.296875 18.609375 23.390625 
Q 18.609375 15.53125 22.484375 10.953125 
Q 26.375 6.390625 33.015625 6.390625 
Q 39.65625 6.390625 43.53125 10.953125 
Q 47.40625 15.53125 47.40625 23.390625 
Q 47.40625 31.296875 43.53125 35.828125 
Q 39.65625 40.375 33.015625 40.375 
z
M 52.59375 71.296875 
L 52.59375 62.3125 
Q 48.875 64.0625 45.09375 64.984375 
Q 41.3125 65.921875 37.59375 65.921875 
Q 27.828125 65.921875 22.671875 59.328125 
Q 17.53125 52.734375 16.796875 39.40625 
Q 19.671875 43.65625 24.015625 45.921875 
Q 28.375 48.1875 33.59375 48.1875 
Q 44.578125 48.1875 50.953125 41.515625 
Q 57.328125 34.859375 57.328125 23.390625 
Q 57.328125 12.15625 50.6875 5.359375 
Q 44.046875 -1.421875 33.015625 -1.421875 
Q 20.359375 -1.421875 13.671875 8.265625 
Q 6.984375 17.96875 6.984375 36.375 
Q 6.984375 53.65625 15.1875 63.9375 
Q 23.390625 74.21875 37.203125 74.21875 
Q 40.921875 74.21875 44.703125 73.484375 
Q 48.484375 72.75 52.59375 71.296875 
z
" id="DejaVuSans-54"/>
      </defs>
      <g transform="translate(308.084631 322.182437)scale(0.1 -0.1)">
       <use xlink:href="#DejaVuSans-54"/>
       <use x="63.623047" xlink:href="#DejaVuSans-48"/>
       <use x="127.246094" xlink:href="#DejaVuSans-48"/>
      </g>
     </g>
    </g>
    <g id="xtick_8">
     <g id="line2d_8">
      <g>
       <use style="stroke:#000000;stroke-width:0.8;" x="358.26099" xlink:href="#mdcff61a098" y="307.584"/>
      </g>
     </g>
     <g id="text_8">
      <!-- 700 -->
      <defs>
       <path d="M 8.203125 72.90625 
L 55.078125 72.90625 
L 55.078125 68.703125 
L 28.609375 0 
L 18.3125 0 
L 43.21875 64.59375 
L 8.203125 64.59375 
z
" id="DejaVuSans-55"/>
      </defs>
      <g transform="translate(348.71724 322.182437)scale(0.1 -0.1)">
       <use xlink:href="#DejaVuSans-55"/>
       <use x="63.623047" xlink:href="#DejaVuSans-48"/>
       <use x="127.246094" xlink:href="#DejaVuSans-48"/>
      </g>
     </g>
    </g>
    <g id="xtick_9">
     <g id="line2d_9">
      <g>
       <use style="stroke:#000000;stroke-width:0.8;" x="398.893599" xlink:href="#mdcff61a098" y="307.584"/>
      </g>
     </g>
     <g id="text_9">
      <!-- 800 -->
      <defs>
       <path d="M 31.78125 34.625 
Q 24.75 34.625 20.71875 30.859375 
Q 16.703125 27.09375 16.703125 20.515625 
Q 16.703125 13.921875 20.71875 10.15625 
Q 24.75 6.390625 31.78125 6.390625 
Q 38.8125 6.390625 42.859375 10.171875 
Q 46.921875 13.96875 46.921875 20.515625 
Q 46.921875 27.09375 42.890625 30.859375 
Q 38.875 34.625 31.78125 34.625 
z
M 21.921875 38.8125 
Q 15.578125 40.375 12.03125 44.71875 
Q 8.5 49.078125 8.5 55.328125 
Q 8.5 64.0625 14.71875 69.140625 
Q 20.953125 74.21875 31.78125 74.21875 
Q 42.671875 74.21875 48.875 69.140625 
Q 55.078125 64.0625 55.078125 55.328125 
Q 55.078125 49.078125 51.53125 44.71875 
Q 48 40.375 41.703125 38.8125 
Q 48.828125 37.15625 52.796875 32.3125 
Q 56.78125 27.484375 56.78125 20.515625 
Q 56.78125 9.90625 50.3125 4.234375 
Q 43.84375 -1.421875 31.78125 -1.421875 
Q 19.734375 -1.421875 13.25 4.234375 
Q 6.78125 9.90625 6.78125 20.515625 
Q 6.78125 27.484375 10.78125 32.3125 
Q 14.796875 37.15625 21.921875 38.8125 
z
M 18.3125 54.390625 
Q 18.3125 48.734375 21.84375 45.5625 
Q 25.390625 42.390625 31.78125 42.390625 
Q 38.140625 42.390625 41.71875 45.5625 
Q 45.3125 48.734375 45.3125 54.390625 
Q 45.3125 60.0625 41.71875 63.234375 
Q 38.140625 66.40625 31.78125 66.40625 
Q 25.390625 66.40625 21.84375 63.234375 
Q 18.3125 60.0625 18.3125 54.390625 
z
" id="DejaVuSans-56"/>
      </defs>
      <g transform="translate(389.349849 322.182437)scale(0.1 -0.1)">
       <use xlink:href="#DejaVuSans-56"/>
       <use x="63.623047" xlink:href="#DejaVuSans-48"/>
       <use x="127.246094" xlink:href="#DejaVuSans-48"/>
      </g>
     </g>
    </g>
   </g>
   <g id="matplotlib.axis_2">
    <g id="ytick_1">
     <g id="line2d_10">
      <defs>
       <path d="M 0 0 
L -3.5 0 
" id="m066d727467" style="stroke:#000000;stroke-width:0.8;"/>
      </defs>
      <g>
       <use style="stroke:#000000;stroke-width:0.8;" x="57.6" xlink:href="#m066d727467" y="267.946227"/>
      </g>
     </g>
     <g id="text_10">
      <!-- 0.1 -->
      <defs>
       <path d="M 10.6875 12.40625 
L 21 12.40625 
L 21 0 
L 10.6875 0 
z
" id="DejaVuSans-46"/>
      </defs>
      <g transform="translate(34.696875 271.745446)scale(0.1 -0.1)">
       <use xlink:href="#DejaVuSans-48"/>
       <use x="63.623047" xlink:href="#DejaVuSans-46"/>
       <use x="95.410156" xlink:href="#DejaVuSans-49"/>
      </g>
     </g>
    </g>
    <g id="ytick_2">
     <g id="line2d_11">
      <g>
       <use style="stroke:#000000;stroke-width:0.8;" x="57.6" xlink:href="#m066d727467" y="212.514341"/>
      </g>
     </g>
     <g id="text_11">
      <!-- 0.2 -->
      <g transform="translate(34.696875 216.31356)scale(0.1 -0.1)">
       <use xlink:href="#DejaVuSans-48"/>
       <use x="63.623047" xlink:href="#DejaVuSans-46"/>
       <use x="95.410156" xlink:href="#DejaVuSans-50"/>
      </g>
     </g>
    </g>
    <g id="ytick_3">
     <g id="line2d_12">
      <g>
       <use style="stroke:#000000;stroke-width:0.8;" x="57.6" xlink:href="#m066d727467" y="157.082454"/>
      </g>
     </g>
     <g id="text_12">
      <!-- 0.3 -->
      <g transform="translate(34.696875 160.881673)scale(0.1 -0.1)">
       <use xlink:href="#DejaVuSans-48"/>
       <use x="63.623047" xlink:href="#DejaVuSans-46"/>
       <use x="95.410156" xlink:href="#DejaVuSans-51"/>
      </g>
     </g>
    </g>
    <g id="ytick_4">
     <g id="line2d_13">
      <g>
       <use style="stroke:#000000;stroke-width:0.8;" x="57.6" xlink:href="#m066d727467" y="101.650568"/>
      </g>
     </g>
     <g id="text_13">
      <!-- 0.4 -->
      <g transform="translate(34.696875 105.449786)scale(0.1 -0.1)">
       <use xlink:href="#DejaVuSans-48"/>
       <use x="63.623047" xlink:href="#DejaVuSans-46"/>
       <use x="95.410156" xlink:href="#DejaVuSans-52"/>
      </g>
     </g>
    </g>
    <g id="ytick_5">
     <g id="line2d_14">
      <g>
       <use style="stroke:#000000;stroke-width:0.8;" x="57.6" xlink:href="#m066d727467" y="46.218681"/>
      </g>
     </g>
     <g id="text_14">
      <!-- 0.5 -->
      <g transform="translate(34.696875 50.0179)scale(0.1 -0.1)">
       <use xlink:href="#DejaVuSans-48"/>
       <use x="63.623047" xlink:href="#DejaVuSans-46"/>
       <use x="95.410156" xlink:href="#DejaVuSans-53"/>
      </g>
     </g>
    </g>
   </g>
   <g id="line2d_15">
    <path clip-path="url(#p4566f1bcde)" d="M 73.832727 81.589073 
L 74.239053 140.517624 
L 75.051706 209.704879 
L 75.864358 248.561806 
L 76.67701 272.441219 
L 77.083336 280.272753 
L 77.489662 285.665103 
L 77.895988 288.886104 
L 78.302314 290.059415 
L 78.70864 289.583069 
L 79.114966 287.38449 
L 79.521293 283.694748 
L 80.740271 265.463582 
L 81.959249 238.323164 
L 84.397206 180.486886 
L 85.209858 167.005024 
L 86.02251 157.971916 
L 86.428836 155.528526 
L 86.835162 153.921677 
L 87.241488 153.35463 
L 87.647814 153.71779 
L 88.05414 154.750352 
L 88.460466 156.52472 
L 89.273119 161.84975 
L 92.117401 182.746603 
L 92.930053 185.79178 
L 93.33638 186.184589 
L 93.742706 187.633806 
L 94.149032 188.263257 
L 94.555358 187.83607 
L 95.36801 184.662926 
L 95.774336 182.196335 
L 96.180662 180.520041 
L 96.586988 176.96618 
L 96.993314 174.683537 
L 97.805967 167.756501 
L 98.618619 161.913205 
L 99.837597 152.241285 
L 101.056575 145.007629 
L 101.462901 143.158192 
L 101.869227 141.87737 
L 102.275554 141.264393 
L 102.68188 140.357635 
L 103.088206 140.151648 
L 103.494532 140.323768 
L 103.900858 140.725089 
L 105.119836 144.261983 
L 105.526162 145.803592 
L 107.151467 154.007292 
L 108.370445 161.43313 
L 109.589423 167.473043 
L 110.402075 169.726282 
L 110.808401 170.410686 
L 111.214728 170.522306 
L 111.621054 171.257236 
L 112.02738 173.017367 
L 112.433706 173.36593 
L 112.840032 173.420167 
L 113.246358 173.191122 
L 113.652684 172.642823 
L 114.05901 171.727908 
L 114.465336 168.824046 
L 115.277988 166.042788 
L 116.496967 158.464774 
L 117.309619 153.995272 
L 118.122271 148.957699 
L 119.747575 141.458876 
L 120.966554 138.556545 
L 121.37288 137.805001 
L 121.779206 137.330556 
L 122.185532 137.206837 
L 122.998184 137.334848 
L 123.810836 138.19465 
L 124.217162 138.573471 
L 125.436141 140.627021 
L 125.842467 141.143349 
L 126.248793 141.952374 
L 126.655119 143.779935 
L 127.061445 144.225588 
L 127.874097 143.721245 
L 128.686749 142.516281 
L 129.093075 142.623714 
L 130.312054 139.849104 
L 131.124706 137.318577 
L 132.75001 131.234117 
L 133.562662 127.417766 
L 134.781641 122.299021 
L 136.000619 118.300687 
L 136.813271 116.59531 
L 137.625923 115.493469 
L 138.032249 114.961604 
L 138.438575 114.886276 
L 138.844902 115.392159 
L 139.251228 115.569489 
L 140.06388 116.778856 
L 140.470206 118.029053 
L 141.282858 118.331916 
L 142.908162 121.717177 
L 144.127141 123.47386 
L 144.533467 123.870965 
L 144.939793 123.960821 
L 145.346119 124.594164 
L 145.752445 124.678925 
L 147.784076 122.963323 
L 148.596728 121.890163 
L 149.40938 120.389171 
L 149.815706 119.780065 
L 150.628358 118.216408 
L 151.034684 118.224671 
L 151.847336 116.782694 
L 152.253663 116.46693 
L 152.659989 115.890744 
L 153.066315 115.773038 
L 153.472641 115.372111 
L 154.285293 115.395411 
L 154.691619 115.242259 
L 155.097945 115.351089 
L 155.910597 116.130182 
L 156.316923 116.243235 
L 156.72325 116.859931 
L 157.129576 117.04074 
L 157.942228 117.929606 
L 158.348554 118.969878 
L 159.161206 119.542771 
L 160.78651 120.799233 
L 161.192837 120.76691 
L 161.599163 120.420139 
L 162.005489 121.315246 
L 162.411815 120.462523 
L 162.818141 121.103695 
L 163.224467 121.025008 
L 164.037119 120.568048 
L 165.256097 119.476123 
L 166.475076 118.006923 
L 167.287728 116.748137 
L 169.725684 109.043836 
L 170.13201 108.578821 
L 170.538337 106.905314 
L 170.944663 106.506524 
L 171.350989 105.575817 
L 171.757315 105.175018 
L 172.163641 104.371323 
L 172.569967 104.75858 
L 172.976293 103.441154 
L 173.382619 102.989466 
L 173.788945 103.002763 
L 174.601597 102.415902 
L 176.633228 101.299011 
L 178.258532 100.267394 
L 179.883837 98.593695 
L 181.102815 97.041139 
L 181.509141 95.970882 
L 181.915467 95.568724 
L 182.321793 94.806304 
L 182.728119 94.379369 
L 183.947098 92.413353 
L 184.353424 92.878773 
L 185.166076 92.077811 
L 185.572402 91.223245 
L 185.978728 91.09308 
L 186.385054 90.562915 
L 187.604032 89.991638 
L 188.010358 90.085028 
L 188.416684 89.309846 
L 188.823011 89.250849 
L 189.229337 89.94994 
L 189.635663 89.530349 
L 190.041989 89.90127 
L 190.448315 88.631912 
L 190.854641 89.250863 
L 191.260967 89.664037 
L 191.667293 90.79721 
L 192.073619 88.391284 
L 192.479945 89.11966 
L 192.886271 87.779149 
L 193.292598 88.381622 
L 193.698924 87.556566 
L 194.10525 87.823148 
L 194.511576 87.801531 
L 194.917902 86.086516 
L 195.324228 86.680823 
L 196.543206 86.587139 
L 196.949532 86.261141 
L 197.355858 85.53502 
L 197.762185 85.266275 
L 198.168511 86.030749 
L 198.574837 85.141268 
L 198.981163 84.631175 
L 199.387489 85.166554 
L 199.793815 84.894254 
L 200.606467 84.996832 
L 201.012793 85.275648 
L 201.825445 85.069924 
L 203.044424 85.47438 
L 203.45075 85.304608 
L 203.857076 85.791164 
L 204.263402 85.674367 
L 204.669728 86.330794 
L 205.076054 86.717396 
L 205.888706 86.102875 
L 206.295032 85.916519 
L 206.701359 86.616845 
L 207.107685 85.491823 
L 207.514011 85.897606 
L 207.920337 85.887442 
L 208.326663 85.395888 
L 208.732989 86.120408 
L 209.139315 85.954998 
L 209.545641 86.282582 
L 209.951967 86.321359 
L 210.764619 86.577792 
L 211.170946 86.350728 
L 211.577272 86.280777 
L 211.983598 86.693946 
L 212.389924 86.735132 
L 212.79625 86.987325 
L 213.202576 86.522828 
L 213.608902 87.1189 
L 214.82788 86.955797 
L 215.234206 87.261165 
L 216.453185 86.87202 
L 216.859511 86.388382 
L 217.265837 86.210151 
L 217.672163 84.35648 
L 218.078489 83.691155 
L 218.484815 83.383129 
L 218.891141 84.015023 
L 219.297467 82.932532 
L 219.703793 82.661764 
L 220.110119 83.297808 
L 220.516446 83.727402 
L 220.922772 83.656913 
L 221.735424 84.477974 
L 222.14175 84.157017 
L 222.548076 84.561158 
L 222.954402 84.725377 
L 223.360728 84.766081 
L 223.767054 85.043133 
L 224.17338 85.125949 
L 224.986033 85.622792 
L 225.392359 85.959418 
L 225.798685 85.797519 
L 226.611337 86.418389 
L 227.017663 85.971893 
L 227.423989 85.913962 
L 228.642967 85.24899 
L 229.049293 85.290111 
L 229.861946 84.303377 
L 230.268272 84.218279 
L 230.674598 83.873206 
L 231.48725 82.689729 
L 231.893576 82.338667 
L 232.299902 81.677708 
L 233.112554 80.913653 
L 233.925207 80.100598 
L 235.144185 79.449764 
L 235.550511 80.307805 
L 235.956837 79.919103 
L 236.769489 79.764963 
L 237.582141 79.747671 
L 237.988467 79.848662 
L 238.394793 80.116573 
L 238.80112 80.53156 
L 239.207446 80.523826 
L 239.613772 80.825095 
L 240.020098 80.853803 
L 240.426424 81.014108 
L 240.83275 81.412053 
L 241.239076 81.583044 
L 241.645402 81.560776 
L 242.051728 81.179583 
L 242.458054 81.429283 
L 243.270707 81.428094 
L 243.677033 81.002656 
L 244.083359 81.397253 
L 244.489685 81.037065 
L 244.896011 81.455104 
L 245.708663 81.255031 
L 246.114989 81.546466 
L 246.521315 80.82368 
L 246.927641 80.739534 
L 248.552946 79.777042 
L 248.959272 79.22365 
L 249.365598 78.221036 
L 250.17825 78.170177 
L 250.990902 78.544058 
L 251.397228 78.13232 
L 251.803554 77.979011 
L 252.209881 77.244115 
L 252.616207 77.719502 
L 253.022533 78.416845 
L 253.428859 78.099007 
L 253.835185 77.563578 
L 254.241511 77.320018 
L 254.647837 77.401976 
L 255.054163 76.155379 
L 255.460489 76.726039 
L 255.866815 77.783487 
L 256.273141 77.591437 
L 257.085794 77.600583 
L 257.49212 78.100834 
L 258.304772 77.535589 
L 259.117424 74.542098 
L 259.52375 74.991789 
L 259.930076 75.155773 
L 260.336402 75.059244 
L 260.742728 75.680458 
L 261.149054 75.716241 
L 261.555381 76.072099 
L 261.961707 76.088934 
L 262.774359 76.621928 
L 263.993337 77.150365 
L 264.399663 77.398907 
L 264.805989 77.912026 
L 265.212315 77.97112 
L 266.024968 78.951664 
L 266.431294 78.715719 
L 267.243946 79.214465 
L 267.650272 79.126148 
L 268.056598 79.228562 
L 268.462924 78.970196 
L 268.86925 78.949385 
L 269.275576 78.766671 
L 269.681902 78.366232 
L 271.713533 77.666926 
L 272.119859 76.969214 
L 272.932511 76.768255 
L 273.338837 76.662287 
L 274.151489 76.167728 
L 274.964142 75.95693 
L 275.370468 75.785584 
L 276.589446 74.620703 
L 276.995772 74.56159 
L 277.402098 74.647973 
L 277.808424 74.381607 
L 278.21475 74.789695 
L 278.621076 74.834641 
L 279.027402 74.628781 
L 279.840055 74.700673 
L 280.652707 74.501751 
L 281.059033 74.670997 
L 281.871685 74.416706 
L 282.278011 74.422056 
L 283.090663 74.639437 
L 284.715968 73.294714 
L 285.52862 72.902785 
L 286.747598 72.002981 
L 288.779229 70.474952 
L 289.591881 70.042389 
L 289.998207 70.454876 
L 290.810859 70.006051 
L 291.623511 70.870314 
L 292.029837 70.365714 
L 292.436163 70.575024 
L 292.842489 70.534143 
L 293.655142 69.996997 
L 294.061468 70.426098 
L 294.467794 70.588244 
L 294.87412 70.191385 
L 295.280446 70.330703 
L 295.686772 70.24792 
L 296.499424 70.557276 
L 297.312076 70.432102 
L 297.718403 70.024929 
L 298.124729 70.511123 
L 298.531055 70.046824 
L 299.343707 70.154863 
L 299.750033 69.921951 
L 300.562685 69.918323 
L 300.969011 70.105174 
L 301.375337 70.038452 
L 302.594316 68.938487 
L 304.21962 67.982847 
L 304.625946 67.56316 
L 305.032272 67.993801 
L 305.438598 67.781393 
L 305.844924 67.719861 
L 306.25125 68.031083 
L 306.657577 68.070193 
L 307.063903 67.588496 
L 307.470229 67.708979 
L 307.876555 67.647828 
L 308.689207 68.120869 
L 309.095533 67.682257 
L 309.501859 67.665762 
L 309.908185 67.978853 
L 310.314511 67.921216 
L 310.720837 67.600653 
L 311.53349 67.544928 
L 311.939816 68.485785 
L 312.346142 67.952172 
L 312.752468 67.936041 
L 313.158794 68.563906 
L 314.377772 67.778026 
L 314.784098 67.896695 
L 315.59675 67.383353 
L 316.003077 67.251652 
L 316.409403 66.722018 
L 316.815729 66.431051 
L 317.628381 66.079856 
L 318.034707 65.456724 
L 318.441033 65.7937 
L 318.847359 65.920023 
L 319.253685 65.481813 
L 319.660011 65.607349 
L 320.066337 65.360775 
L 320.472664 65.781641 
L 321.285316 65.870832 
L 321.691642 65.846045 
L 322.097968 66.248665 
L 322.504294 65.931288 
L 323.723272 65.662992 
L 324.942251 65.620683 
L 325.348577 65.414321 
L 325.754903 65.683664 
L 326.161229 65.383338 
L 326.973881 65.577003 
L 327.380207 65.196876 
L 327.786533 65.234099 
L 328.192859 65.542362 
L 329.005511 65.482733 
L 329.411838 64.857449 
L 330.22449 64.784429 
L 330.630816 64.616395 
L 331.037142 65.186058 
L 331.849794 64.974449 
L 332.662446 64.718689 
L 333.068772 63.964332 
L 333.881425 63.731246 
L 334.287751 63.885012 
L 335.100403 63.617373 
L 336.319381 63.162764 
L 336.725707 63.52709 
L 337.132033 63.345227 
L 337.538359 62.732539 
L 337.944685 63.314683 
L 338.351011 62.572972 
L 338.757338 63.564493 
L 339.163664 63.380014 
L 339.56999 63.369768 
L 339.976316 63.509624 
L 340.382642 63.279587 
L 341.195294 63.179785 
L 342.414272 63.11588 
L 343.226925 63.280428 
L 343.633251 63.490226 
L 344.039577 63.011104 
L 344.445903 63.046505 
L 344.852229 62.859537 
L 345.258555 63.162812 
L 345.664881 63.052079 
L 346.071207 62.207494 
L 346.477533 62.615947 
L 347.290185 62.523578 
L 347.696512 62.785072 
L 348.102838 62.831893 
L 348.509164 61.828926 
L 348.91549 62.305503 
L 349.321816 61.266049 
L 349.728142 61.302721 
L 350.134468 59.983206 
L 350.540794 60.209571 
L 350.94712 59.681101 
L 351.353446 58.841869 
L 352.166099 59.740067 
L 352.978751 60.882419 
L 353.385077 60.804559 
L 354.197729 60.870178 
L 354.604055 61.229161 
L 355.823033 61.301096 
L 357.448338 61.355748 
L 358.26099 61.190979 
L 358.667316 60.733079 
L 359.073642 60.733873 
L 359.479968 60.585348 
L 359.886294 60.641271 
L 360.29262 60.813697 
L 360.698946 60.798669 
L 361.105272 60.540271 
L 361.511599 60.632307 
L 361.917925 60.387203 
L 363.136903 60.570265 
L 363.543229 60.895708 
L 363.949555 61.610328 
L 364.762207 61.696054 
L 365.168533 61.12997 
L 365.981186 60.775577 
L 366.387512 60.270115 
L 366.793838 60.340401 
L 367.60649 59.60576 
L 368.419142 59.018361 
L 368.825468 59.188674 
L 369.231794 59.075453 
L 369.63812 58.583868 
L 370.044446 58.51083 
L 370.450773 58.266394 
L 370.857099 57.817525 
L 371.263425 57.651986 
L 371.669751 58.319815 
L 372.482403 58.19593 
L 372.888729 57.890645 
L 373.701381 57.763408 
L 374.514033 57.688368 
L 374.92036 57.678038 
L 375.326686 57.786904 
L 375.733012 57.678949 
L 376.545664 57.917115 
L 376.95199 57.672004 
L 377.358316 57.851383 
L 377.764642 57.608954 
L 378.170968 57.663203 
L 378.577294 57.372295 
L 378.98362 57.228221 
L 379.389947 57.243825 
L 379.796273 56.868521 
L 380.202599 56.767473 
L 380.608925 57.220904 
L 381.421577 56.268446 
L 381.827903 56.333953 
L 382.640555 55.768746 
L 383.453207 55.572755 
L 383.859534 55.596086 
L 384.26586 54.890212 
L 385.078512 54.478217 
L 385.891164 54.27087 
L 386.29749 54.383258 
L 387.110142 54.086551 
L 387.516468 54.318664 
L 388.32912 54.264511 
L 388.735447 54.482066 
L 389.141773 55.333848 
L 389.548099 54.793987 
L 389.954425 55.111459 
L 390.360751 53.902079 
L 390.767077 54.129324 
L 391.173403 55.204497 
L 391.579729 53.917521 
L 391.986055 53.568 
L 392.798707 55.961162 
L 393.205034 54.936621 
L 393.61136 55.726732 
L 394.017686 56.005412 
L 394.424012 54.909275 
L 394.830338 56.019415 
L 395.236664 56.137247 
L 395.64299 55.978975 
L 396.455642 55.912695 
L 397.268294 55.183176 
L 397.674621 55.049338 
L 398.080947 57.164979 
L 398.487273 54.032575 
L 398.487273 54.032575 
" style="fill:none;stroke:#1f77b4;stroke-linecap:square;stroke-width:1.5;"/>
   </g>
   <g id="line2d_16">
    <path clip-path="url(#p4566f1bcde)" d="M 73.832727 292.590853 
L 74.239053 294.18304 
L 76.270684 295.488 
L 76.67701 295.02076 
L 77.083336 294.729874 
L 77.489662 294.968093 
L 79.521293 293.280584 
L 79.927619 292.769125 
L 80.333945 292.578801 
L 82.365575 290.990777 
L 83.178227 290.600077 
L 83.99088 290.438254 
L 85.209858 290.495441 
L 86.428836 290.840202 
L 87.241488 291.085316 
L 87.647814 290.789963 
L 88.460466 291.147616 
L 90.492097 291.617836 
L 92.930053 291.94083 
L 93.33638 291.631867 
L 93.742706 292.060709 
L 94.555358 292.089489 
L 94.961684 291.559936 
L 95.36801 292.044025 
L 96.586988 291.919659 
L 98.212293 291.723764 
L 98.618619 291.445002 
L 99.024945 291.627861 
L 104.307184 291.322281 
L 104.71351 291.303055 
L 105.932488 290.964372 
L 113.246358 290.743333 
L 113.652684 290.420616 
L 114.465336 290.711412 
L 114.871662 291.085817 
L 115.277988 291.172616 
L 115.684314 291.431312 
L 116.496967 291.363332 
L 116.903293 290.66745 
L 117.309619 290.489237 
L 117.715945 290.166381 
L 118.934923 290.214108 
L 120.153901 290.661195 
L 121.779206 290.695005 
L 122.185532 291.172034 
L 122.591858 291.037034 
L 122.998184 291.35327 
L 125.029815 291.430735 
L 125.436141 290.731673 
L 125.842467 290.729829 
L 126.248793 290.905937 
L 126.655119 290.716801 
L 128.686749 290.596633 
L 129.093075 290.793235 
L 129.499402 290.331274 
L 129.905728 290.412018 
L 130.71838 291.139042 
L 131.124706 290.891896 
L 131.531032 290.929697 
L 131.937358 290.548324 
L 132.343684 291.114633 
L 132.75001 290.815156 
L 133.968989 290.304962 
L 134.375315 290.481356 
L 134.781641 290.53441 
L 135.187967 290.32901 
L 136.000619 290.5768 
L 136.406945 290.248491 
L 136.813271 290.325952 
L 137.219597 291.415568 
L 137.625923 290.659605 
L 138.032249 290.935854 
L 138.438575 289.73592 
L 138.844902 291.018408 
L 139.251228 290.632026 
L 139.657554 290.562002 
L 140.06388 290.252711 
L 141.689184 290.65551 
L 142.908162 290.813129 
L 143.314489 290.444437 
L 143.720815 290.494612 
L 144.127141 290.317935 
L 144.533467 290.306311 
L 144.939793 290.518479 
L 145.346119 290.304024 
L 145.752445 290.359597 
L 146.565097 290.271399 
L 146.971423 290.463814 
L 149.003054 290.390506 
L 149.40938 290.195675 
L 149.815706 290.19522 
L 150.628358 291.34979 
L 151.034684 290.513542 
L 151.44101 290.650323 
L 151.847336 290.251289 
L 152.253663 290.178962 
L 152.659989 289.892897 
L 153.472641 290.532927 
L 153.878967 290.460363 
L 154.691619 290.179348 
L 155.097945 290.50435 
L 155.504271 290.093169 
L 155.910597 289.968564 
L 156.316923 290.05618 
L 156.72325 290.276837 
L 157.129576 290.086377 
L 157.535902 290.193679 
L 157.942228 291.358952 
L 158.348554 290.216527 
L 160.380184 290.119178 
L 160.78651 290.275611 
L 161.192837 291.107955 
L 161.599163 290.354489 
L 162.005489 290.01707 
L 162.411815 290.789824 
L 162.818141 290.256911 
L 163.224467 290.278797 
L 163.630793 290.101829 
L 164.443445 290.128488 
L 164.849771 290.037538 
L 165.662423 290.060902 
L 168.10038 290.013424 
L 172.163641 289.925503 
L 172.569967 289.770205 
L 172.976293 290.110494 
L 173.382619 289.696426 
L 173.788945 289.838916 
L 174.195271 289.769479 
L 175.007924 290.025999 
L 175.41425 289.912277 
L 175.820576 289.945551 
L 176.226902 289.807754 
L 176.633228 290.829415 
L 177.44588 289.229857 
L 177.852206 289.920665 
L 178.664858 289.784083 
L 179.477511 289.77996 
L 179.883837 289.765107 
L 180.290163 289.966012 
L 180.696489 289.914552 
L 181.102815 289.568123 
L 181.509141 289.618916 
L 181.915467 290.491936 
L 182.321793 290.325843 
L 182.728119 289.84247 
L 183.134445 290.05839 
L 183.540771 290.44541 
L 183.947098 289.798053 
L 185.166076 289.94436 
L 185.572402 289.582688 
L 185.978728 290.087239 
L 186.385054 289.408386 
L 186.79138 289.885196 
L 187.197706 291.063125 
L 187.604032 290.105845 
L 188.010358 290.075778 
L 188.416684 290.895834 
L 188.823011 289.775623 
L 189.229337 289.366834 
L 190.041989 289.424377 
L 190.854641 289.465559 
L 191.260967 289.255103 
L 191.667293 289.71774 
L 192.073619 289.809324 
L 192.479945 289.301857 
L 194.10525 289.282235 
L 194.511576 289.621644 
L 194.917902 289.224779 
L 196.543206 289.215029 
L 196.949532 289.823262 
L 197.355858 289.537155 
L 198.168511 289.183429 
L 198.574837 289.218752 
L 198.981163 289.531108 
L 200.200141 289.459074 
L 201.419119 289.571752 
L 201.825445 289.750114 
L 202.231772 289.655759 
L 202.638098 289.826017 
L 203.45075 289.860921 
L 203.857076 289.656106 
L 204.263402 290.036469 
L 205.48238 289.758487 
L 205.888706 290.170168 
L 206.295032 290.248645 
L 207.107685 290.049589 
L 207.514011 290.172719 
L 207.920337 290.063561 
L 208.326663 290.207777 
L 208.732989 290.85871 
L 209.139315 289.396604 
L 209.545641 289.907166 
L 209.951967 290.058078 
L 210.358293 290.078648 
L 210.764619 289.874339 
L 211.170946 290.419402 
L 211.983598 290.020079 
L 212.389924 289.84691 
L 212.79625 290.288354 
L 213.202576 290.001148 
L 213.608902 289.407923 
L 214.015228 289.793104 
L 214.82788 290.087004 
L 215.234206 289.892224 
L 215.640532 289.909709 
L 216.046859 290.231019 
L 216.453185 290.194141 
L 216.859511 289.535683 
L 217.265837 289.952523 
L 217.672163 290.019016 
L 218.078489 289.849108 
L 219.703793 290.081498 
L 220.110119 292.102775 
L 220.922772 290.124174 
L 222.14175 289.822772 
L 222.548076 290.183053 
L 222.954402 289.936932 
L 223.360728 290.731056 
L 223.767054 290.957961 
L 224.17338 289.885626 
L 224.579706 291.044897 
L 224.986033 291.042802 
L 225.392359 290.890518 
L 225.798685 290.423101 
L 226.205011 289.581602 
L 226.611337 289.885019 
L 227.017663 289.487632 
L 227.423989 289.548788 
L 227.830315 291.66138 
L 228.236641 289.670387 
L 228.642967 289.370731 
L 229.049293 289.76641 
L 229.45562 289.83251 
L 229.861946 289.000841 
L 230.268272 289.250255 
L 230.674598 288.989283 
L 231.080924 288.930411 
L 231.893576 289.187098 
L 232.706228 290.076177 
L 233.112554 290.13877 
L 233.51888 289.966201 
L 233.925207 290.26367 
L 234.331533 290.001445 
L 235.956837 290.136459 
L 236.363163 289.880095 
L 237.988467 290.189711 
L 238.394793 289.91399 
L 238.80112 290.159654 
L 239.207446 289.907372 
L 239.613772 290.507364 
L 240.020098 290.168715 
L 241.239076 290.120451 
L 241.645402 290.0281 
L 242.051728 290.131364 
L 242.458054 289.963238 
L 243.270707 290.238203 
L 243.677033 290.041162 
L 244.083359 290.234213 
L 244.489685 290.244229 
L 244.896011 290.094134 
L 245.708663 290.2098 
L 246.114989 289.960251 
L 249.771924 289.996714 
L 250.17825 290.206548 
L 250.584576 290.002584 
L 251.397228 291.053345 
L 251.803554 291.188563 
L 252.209881 290.316328 
L 252.616207 290.956336 
L 253.428859 290.284098 
L 254.647837 290.290814 
L 255.054163 291.18526 
L 255.460489 289.987364 
L 255.866815 290.388367 
L 257.085794 290.17726 
L 257.898446 290.054096 
L 258.304772 290.216864 
L 259.117424 290.05325 
L 259.52375 291.240846 
L 259.930076 290.249749 
L 260.336402 289.973647 
L 260.742728 290.027536 
L 261.149054 290.435069 
L 261.555381 290.293424 
L 262.368033 290.421372 
L 262.774359 290.887595 
L 263.180685 290.414891 
L 263.587011 290.287896 
L 263.993337 290.523944 
L 264.399663 290.2716 
L 264.805989 290.508746 
L 265.212315 290.380436 
L 265.618641 290.861575 
L 266.024968 290.349845 
L 266.83762 290.354262 
L 267.243946 290.481902 
L 267.650272 290.420287 
L 268.056598 290.66287 
L 268.462924 290.418405 
L 268.86925 290.641891 
L 269.275576 290.430947 
L 270.900881 290.504288 
L 271.307207 290.274578 
L 272.526185 290.136235 
L 272.932511 290.153727 
L 273.338837 290.051831 
L 273.745163 290.24732 
L 274.151489 290.20302 
L 274.557815 290.019986 
L 274.964142 289.34672 
L 275.370468 290.278251 
L 275.776794 290.080398 
L 276.18312 290.726334 
L 276.589446 290.185183 
L 276.995772 290.322699 
L 278.621076 290.017507 
L 279.027402 290.269815 
L 280.652707 290.023075 
L 283.496989 290.145271 
L 283.903316 290.73484 
L 284.309642 290.315315 
L 284.715968 291.062264 
L 285.122294 291.11825 
L 285.52862 290.492792 
L 285.934946 291.092844 
L 286.341272 290.16497 
L 287.56025 290.399668 
L 287.966576 290.370061 
L 288.372902 290.590039 
L 289.185555 290.522867 
L 289.591881 290.629912 
L 289.998207 290.857088 
L 290.404533 290.281406 
L 290.810859 290.474463 
L 291.217185 290.338354 
L 291.623511 290.886848 
L 292.029837 290.289044 
L 292.436163 290.62567 
L 292.842489 290.511343 
L 293.248816 290.830455 
L 293.655142 290.762131 
L 294.061468 290.811044 
L 294.467794 289.736691 
L 294.87412 290.315112 
L 295.280446 290.317843 
L 295.686772 290.942867 
L 296.499424 290.434485 
L 297.718403 290.687139 
L 298.124729 290.448062 
L 298.937381 290.325715 
L 299.343707 290.5762 
L 299.750033 290.223058 
L 301.375337 290.320715 
L 301.781663 290.32917 
L 302.18799 290.750242 
L 302.594316 290.381374 
L 303.813294 290.447127 
L 304.21962 290.547743 
L 304.625946 290.39861 
L 305.032272 290.747441 
L 305.438598 290.361581 
L 306.25125 290.359253 
L 307.063903 290.477088 
L 308.282881 290.352482 
L 308.689207 290.694856 
L 309.095533 290.404476 
L 309.501859 290.660513 
L 309.908185 290.536532 
L 310.314511 290.253413 
L 310.720837 290.523298 
L 311.127163 290.394168 
L 311.53349 290.588234 
L 312.346142 290.405986 
L 313.158794 290.597563 
L 313.56512 290.985824 
L 314.377772 290.535562 
L 315.190424 290.775392 
L 316.003077 290.482361 
L 316.409403 290.845321 
L 316.815729 290.511537 
L 317.628381 290.569945 
L 318.847359 290.579474 
L 319.660011 290.469009 
L 320.066337 290.312729 
L 320.472664 290.466189 
L 320.87899 290.416329 
L 322.097968 290.691092 
L 322.504294 290.54904 
L 325.754903 290.415641 
L 326.161229 290.31441 
L 326.973881 290.369624 
L 327.786533 290.450035 
L 328.599185 290.552872 
L 331.443468 290.518942 
L 331.849794 290.792173 
L 332.662446 290.608021 
L 333.068772 289.909153 
L 333.475098 290.589003 
L 333.881425 290.163937 
L 334.287751 289.413586 
L 334.694077 290.647251 
L 335.100403 290.41475 
L 335.506729 291.001971 
L 335.913055 290.372674 
L 336.319381 290.458701 
L 336.725707 290.385489 
L 337.132033 291.00126 
L 337.538359 290.695753 
L 337.944685 290.567073 
L 338.351011 290.766912 
L 338.757338 290.693503 
L 339.163664 290.464371 
L 339.56999 290.018152 
L 339.976316 290.816962 
L 340.382642 290.35211 
L 340.788968 290.621384 
L 341.195294 289.682681 
L 341.60162 290.517143 
L 342.007946 290.639747 
L 342.414272 291.319326 
L 342.820598 290.221506 
L 343.226925 290.642642 
L 343.633251 290.39662 
L 344.445903 290.325142 
L 344.852229 290.302343 
L 345.258555 290.399839 
L 345.664881 289.818598 
L 346.071207 290.987278 
L 346.883859 290.226221 
L 347.290185 290.676915 
L 347.696512 290.680014 
L 348.102838 291.236997 
L 348.91549 291.436876 
L 349.321816 290.660213 
L 349.728142 290.360103 
L 350.134468 290.360532 
L 350.540794 289.986752 
L 351.353446 290.006631 
L 351.759772 290.188023 
L 353.385077 290.358246 
L 353.791403 290.906148 
L 354.197729 290.933579 
L 354.604055 291.449705 
L 355.010381 291.582397 
L 355.823033 291.294425 
L 356.635686 291.473653 
L 357.448338 290.370979 
L 357.854664 290.810466 
L 359.073642 290.558564 
L 359.479968 290.14267 
L 359.886294 290.306495 
L 360.29262 290.711943 
L 360.698946 290.465775 
L 361.105272 290.838965 
L 361.511599 290.686827 
L 361.917925 290.00717 
L 362.324251 290.340603 
L 363.543229 290.789068 
L 363.949555 290.371685 
L 364.355881 290.858078 
L 364.762207 290.655447 
L 365.168533 289.757648 
L 365.574859 289.749644 
L 365.981186 290.361722 
L 367.200164 290.515048 
L 368.012816 290.694055 
L 369.231794 290.597423 
L 369.63812 290.462556 
L 370.044446 290.713947 
L 370.450773 290.705372 
L 370.857099 290.351325 
L 371.263425 291.634836 
L 371.669751 290.968379 
L 372.076077 290.745965 
L 372.482403 290.052647 
L 372.888729 290.933557 
L 373.295055 290.799972 
L 373.701381 291.078031 
L 374.107707 290.842869 
L 374.514033 290.899643 
L 374.92036 290.250676 
L 375.326686 290.978622 
L 375.733012 290.275762 
L 376.139338 290.744109 
L 376.545664 290.391587 
L 376.95199 290.51359 
L 377.358316 290.775729 
L 377.764642 290.788894 
L 378.170968 289.640981 
L 379.389947 290.763831 
L 381.015251 290.673356 
L 381.421577 291.103634 
L 381.827903 290.776165 
L 382.234229 290.977843 
L 382.640555 290.973735 
L 383.046881 290.752532 
L 383.453207 291.215261 
L 383.859534 291.234873 
L 384.26586 290.737151 
L 384.672186 291.096773 
L 385.078512 290.656574 
L 386.29749 290.820426 
L 386.703816 290.696169 
L 387.516468 290.797025 
L 388.32912 290.671811 
L 388.735447 290.614919 
L 389.141773 290.748761 
L 389.548099 290.435243 
L 390.360751 290.935909 
L 390.767077 290.858236 
L 391.173403 290.562332 
L 391.579729 290.561682 
L 391.986055 290.727174 
L 392.392381 290.558867 
L 393.205034 290.757046 
L 393.61136 290.438761 
L 394.017686 290.787263 
L 394.424012 290.629707 
L 394.830338 290.311369 
L 395.236664 290.294971 
L 395.64299 290.601421 
L 396.049316 290.752431 
L 396.455642 290.52099 
L 396.861968 290.701198 
L 397.268294 290.647022 
L 397.674621 291.464122 
L 398.080947 290.543694 
L 398.487273 290.84299 
L 398.487273 290.84299 
" style="fill:none;stroke:#ff7f0e;stroke-linecap:square;stroke-width:1.5;"/>
   </g>
   <g id="patch_3">
    <path d="M 57.6 307.584 
L 57.6 41.472 
" style="fill:none;stroke:#000000;stroke-linecap:square;stroke-linejoin:miter;stroke-width:0.8;"/>
   </g>
   <g id="patch_4">
    <path d="M 414.72 307.584 
L 414.72 41.472 
" style="fill:none;stroke:#000000;stroke-linecap:square;stroke-linejoin:miter;stroke-width:0.8;"/>
   </g>
   <g id="patch_5">
    <path d="M 57.6 307.584 
L 414.72 307.584 
" style="fill:none;stroke:#000000;stroke-linecap:square;stroke-linejoin:miter;stroke-width:0.8;"/>
   </g>
   <g id="patch_6">
    <path d="M 57.6 41.472 
L 414.72 41.472 
" style="fill:none;stroke:#000000;stroke-linecap:square;stroke-linejoin:miter;stroke-width:0.8;"/>
   </g>
  </g>
 </g>
 <defs>
  <clipPath id="p4566f1bcde">
   <rect height="266.112" width="357.12" x="57.6" y="41.472"/>
  </clipPath>
 </defs>
</svg>
