<?xml version="1.0" encoding="utf-8" standalone="no"?>
<!DOCTYPE svg PUBLIC "-//W3C//DTD SVG 1.1//EN"
  "http://www.w3.org/Graphics/SVG/1.1/DTD/svg11.dtd">
<!-- Created with matplotlib (https://matplotlib.org/) -->
<svg height="345.6pt" version="1.1" viewBox="0 0 460.8 345.6" width="460.8pt" xmlns="http://www.w3.org/2000/svg" xmlns:xlink="http://www.w3.org/1999/xlink">
 <defs>
  <style type="text/css">
*{stroke-linecap:butt;stroke-linejoin:round;}
  </style>
 </defs>
 <g id="figure_1">
  <g id="patch_1">
   <path d="M 0 345.6 
L 460.8 345.6 
L 460.8 0 
L 0 0 
z
" style="fill:#ffffff;"/>
  </g>
  <g id="axes_1">
   <g id="patch_2">
    <path d="M 57.6 307.584 
L 414.72 307.584 
L 414.72 41.472 
L 57.6 41.472 
z
" style="fill:#ffffff;"/>
   </g>
   <g id="matplotlib.axis_1">
    <g id="xtick_1">
     <g id="line2d_1">
      <defs>
       <path d="M 0 0 
L 0 3.5 
" id="m937c7fc6ab" style="stroke:#000000;stroke-width:0.8;"/>
      </defs>
      <g>
       <use style="stroke:#000000;stroke-width:0.8;" x="73.832727" xlink:href="#m937c7fc6ab" y="307.584"/>
      </g>
     </g>
     <g id="text_1">
      <!-- 0 -->
      <defs>
       <path d="M 31.78125 66.40625 
Q 24.171875 66.40625 20.328125 58.90625 
Q 16.5 51.421875 16.5 36.375 
Q 16.5 21.390625 20.328125 13.890625 
Q 24.171875 6.390625 31.78125 6.390625 
Q 39.453125 6.390625 43.28125 13.890625 
Q 47.125 21.390625 47.125 36.375 
Q 47.125 51.421875 43.28125 58.90625 
Q 39.453125 66.40625 31.78125 66.40625 
z
M 31.78125 74.21875 
Q 44.046875 74.21875 50.515625 64.515625 
Q 56.984375 54.828125 56.984375 36.375 
Q 56.984375 17.96875 50.515625 8.265625 
Q 44.046875 -1.421875 31.78125 -1.421875 
Q 19.53125 -1.421875 13.0625 8.265625 
Q 6.59375 17.96875 6.59375 36.375 
Q 6.59375 54.828125 13.0625 64.515625 
Q 19.53125 74.21875 31.78125 74.21875 
z
" id="DejaVuSans-48"/>
      </defs>
      <g transform="translate(70.651477 322.182437)scale(0.1 -0.1)">
       <use xlink:href="#DejaVuSans-48"/>
      </g>
     </g>
    </g>
    <g id="xtick_2">
     <g id="line2d_2">
      <g>
       <use style="stroke:#000000;stroke-width:0.8;" x="114.465336" xlink:href="#m937c7fc6ab" y="307.584"/>
      </g>
     </g>
     <g id="text_2">
      <!-- 100 -->
      <defs>
       <path d="M 12.40625 8.296875 
L 28.515625 8.296875 
L 28.515625 63.921875 
L 10.984375 60.40625 
L 10.984375 69.390625 
L 28.421875 72.90625 
L 38.28125 72.90625 
L 38.28125 8.296875 
L 54.390625 8.296875 
L 54.390625 0 
L 12.40625 0 
z
" id="DejaVuSans-49"/>
      </defs>
      <g transform="translate(104.921586 322.182437)scale(0.1 -0.1)">
       <use xlink:href="#DejaVuSans-49"/>
       <use x="63.623047" xlink:href="#DejaVuSans-48"/>
       <use x="127.246094" xlink:href="#DejaVuSans-48"/>
      </g>
     </g>
    </g>
    <g id="xtick_3">
     <g id="line2d_3">
      <g>
       <use style="stroke:#000000;stroke-width:0.8;" x="155.097945" xlink:href="#m937c7fc6ab" y="307.584"/>
      </g>
     </g>
     <g id="text_3">
      <!-- 200 -->
      <defs>
       <path d="M 19.1875 8.296875 
L 53.609375 8.296875 
L 53.609375 0 
L 7.328125 0 
L 7.328125 8.296875 
Q 12.9375 14.109375 22.625 23.890625 
Q 32.328125 33.6875 34.8125 36.53125 
Q 39.546875 41.84375 41.421875 45.53125 
Q 43.3125 49.21875 43.3125 52.78125 
Q 43.3125 58.59375 39.234375 62.25 
Q 35.15625 65.921875 28.609375 65.921875 
Q 23.96875 65.921875 18.8125 64.3125 
Q 13.671875 62.703125 7.8125 59.421875 
L 7.8125 69.390625 
Q 13.765625 71.78125 18.9375 73 
Q 24.125 74.21875 28.421875 74.21875 
Q 39.75 74.21875 46.484375 68.546875 
Q 53.21875 62.890625 53.21875 53.421875 
Q 53.21875 48.921875 51.53125 44.890625 
Q 49.859375 40.875 45.40625 35.40625 
Q 44.1875 33.984375 37.640625 27.21875 
Q 31.109375 20.453125 19.1875 8.296875 
z
" id="DejaVuSans-50"/>
      </defs>
      <g transform="translate(145.554195 322.182437)scale(0.1 -0.1)">
       <use xlink:href="#DejaVuSans-50"/>
       <use x="63.623047" xlink:href="#DejaVuSans-48"/>
       <use x="127.246094" xlink:href="#DejaVuSans-48"/>
      </g>
     </g>
    </g>
    <g id="xtick_4">
     <g id="line2d_4">
      <g>
       <use style="stroke:#000000;stroke-width:0.8;" x="195.730554" xlink:href="#m937c7fc6ab" y="307.584"/>
      </g>
     </g>
     <g id="text_4">
      <!-- 300 -->
      <defs>
       <path d="M 40.578125 39.3125 
Q 47.65625 37.796875 51.625 33 
Q 55.609375 28.21875 55.609375 21.1875 
Q 55.609375 10.40625 48.1875 4.484375 
Q 40.765625 -1.421875 27.09375 -1.421875 
Q 22.515625 -1.421875 17.65625 -0.515625 
Q 12.796875 0.390625 7.625 2.203125 
L 7.625 11.71875 
Q 11.71875 9.328125 16.59375 8.109375 
Q 21.484375 6.890625 26.8125 6.890625 
Q 36.078125 6.890625 40.9375 10.546875 
Q 45.796875 14.203125 45.796875 21.1875 
Q 45.796875 27.640625 41.28125 31.265625 
Q 36.765625 34.90625 28.71875 34.90625 
L 20.21875 34.90625 
L 20.21875 43.015625 
L 29.109375 43.015625 
Q 36.375 43.015625 40.234375 45.921875 
Q 44.09375 48.828125 44.09375 54.296875 
Q 44.09375 59.90625 40.109375 62.90625 
Q 36.140625 65.921875 28.71875 65.921875 
Q 24.65625 65.921875 20.015625 65.03125 
Q 15.375 64.15625 9.8125 62.3125 
L 9.8125 71.09375 
Q 15.4375 72.65625 20.34375 73.4375 
Q 25.25 74.21875 29.59375 74.21875 
Q 40.828125 74.21875 47.359375 69.109375 
Q 53.90625 64.015625 53.90625 55.328125 
Q 53.90625 49.265625 50.4375 45.09375 
Q 46.96875 40.921875 40.578125 39.3125 
z
" id="DejaVuSans-51"/>
      </defs>
      <g transform="translate(186.186804 322.182437)scale(0.1 -0.1)">
       <use xlink:href="#DejaVuSans-51"/>
       <use x="63.623047" xlink:href="#DejaVuSans-48"/>
       <use x="127.246094" xlink:href="#DejaVuSans-48"/>
      </g>
     </g>
    </g>
    <g id="xtick_5">
     <g id="line2d_5">
      <g>
       <use style="stroke:#000000;stroke-width:0.8;" x="236.363163" xlink:href="#m937c7fc6ab" y="307.584"/>
      </g>
     </g>
     <g id="text_5">
      <!-- 400 -->
      <defs>
       <path d="M 37.796875 64.3125 
L 12.890625 25.390625 
L 37.796875 25.390625 
z
M 35.203125 72.90625 
L 47.609375 72.90625 
L 47.609375 25.390625 
L 58.015625 25.390625 
L 58.015625 17.1875 
L 47.609375 17.1875 
L 47.609375 0 
L 37.796875 0 
L 37.796875 17.1875 
L 4.890625 17.1875 
L 4.890625 26.703125 
z
" id="DejaVuSans-52"/>
      </defs>
      <g transform="translate(226.819413 322.182437)scale(0.1 -0.1)">
       <use xlink:href="#DejaVuSans-52"/>
       <use x="63.623047" xlink:href="#DejaVuSans-48"/>
       <use x="127.246094" xlink:href="#DejaVuSans-48"/>
      </g>
     </g>
    </g>
    <g id="xtick_6">
     <g id="line2d_6">
      <g>
       <use style="stroke:#000000;stroke-width:0.8;" x="276.995772" xlink:href="#m937c7fc6ab" y="307.584"/>
      </g>
     </g>
     <g id="text_6">
      <!-- 500 -->
      <defs>
       <path d="M 10.796875 72.90625 
L 49.515625 72.90625 
L 49.515625 64.59375 
L 19.828125 64.59375 
L 19.828125 46.734375 
Q 21.96875 47.46875 24.109375 47.828125 
Q 26.265625 48.1875 28.421875 48.1875 
Q 40.625 48.1875 47.75 41.5 
Q 54.890625 34.8125 54.890625 23.390625 
Q 54.890625 11.625 47.5625 5.09375 
Q 40.234375 -1.421875 26.90625 -1.421875 
Q 22.3125 -1.421875 17.546875 -0.640625 
Q 12.796875 0.140625 7.71875 1.703125 
L 7.71875 11.625 
Q 12.109375 9.234375 16.796875 8.0625 
Q 21.484375 6.890625 26.703125 6.890625 
Q 35.15625 6.890625 40.078125 11.328125 
Q 45.015625 15.765625 45.015625 23.390625 
Q 45.015625 31 40.078125 35.4375 
Q 35.15625 39.890625 26.703125 39.890625 
Q 22.75 39.890625 18.8125 39.015625 
Q 14.890625 38.140625 10.796875 36.28125 
z
" id="DejaVuSans-53"/>
      </defs>
      <g transform="translate(267.452022 322.182437)scale(0.1 -0.1)">
       <use xlink:href="#DejaVuSans-53"/>
       <use x="63.623047" xlink:href="#DejaVuSans-48"/>
       <use x="127.246094" xlink:href="#DejaVuSans-48"/>
      </g>
     </g>
    </g>
    <g id="xtick_7">
     <g id="line2d_7">
      <g>
       <use style="stroke:#000000;stroke-width:0.8;" x="317.628381" xlink:href="#m937c7fc6ab" y="307.584"/>
      </g>
     </g>
     <g id="text_7">
      <!-- 600 -->
      <defs>
       <path d="M 33.015625 40.375 
Q 26.375 40.375 22.484375 35.828125 
Q 18.609375 31.296875 18.609375 23.390625 
Q 18.609375 15.53125 22.484375 10.953125 
Q 26.375 6.390625 33.015625 6.390625 
Q 39.65625 6.390625 43.53125 10.953125 
Q 47.40625 15.53125 47.40625 23.390625 
Q 47.40625 31.296875 43.53125 35.828125 
Q 39.65625 40.375 33.015625 40.375 
z
M 52.59375 71.296875 
L 52.59375 62.3125 
Q 48.875 64.0625 45.09375 64.984375 
Q 41.3125 65.921875 37.59375 65.921875 
Q 27.828125 65.921875 22.671875 59.328125 
Q 17.53125 52.734375 16.796875 39.40625 
Q 19.671875 43.65625 24.015625 45.921875 
Q 28.375 48.1875 33.59375 48.1875 
Q 44.578125 48.1875 50.953125 41.515625 
Q 57.328125 34.859375 57.328125 23.390625 
Q 57.328125 12.15625 50.6875 5.359375 
Q 44.046875 -1.421875 33.015625 -1.421875 
Q 20.359375 -1.421875 13.671875 8.265625 
Q 6.984375 17.96875 6.984375 36.375 
Q 6.984375 53.65625 15.1875 63.9375 
Q 23.390625 74.21875 37.203125 74.21875 
Q 40.921875 74.21875 44.703125 73.484375 
Q 48.484375 72.75 52.59375 71.296875 
z
" id="DejaVuSans-54"/>
      </defs>
      <g transform="translate(308.084631 322.182437)scale(0.1 -0.1)">
       <use xlink:href="#DejaVuSans-54"/>
       <use x="63.623047" xlink:href="#DejaVuSans-48"/>
       <use x="127.246094" xlink:href="#DejaVuSans-48"/>
      </g>
     </g>
    </g>
    <g id="xtick_8">
     <g id="line2d_8">
      <g>
       <use style="stroke:#000000;stroke-width:0.8;" x="358.26099" xlink:href="#m937c7fc6ab" y="307.584"/>
      </g>
     </g>
     <g id="text_8">
      <!-- 700 -->
      <defs>
       <path d="M 8.203125 72.90625 
L 55.078125 72.90625 
L 55.078125 68.703125 
L 28.609375 0 
L 18.3125 0 
L 43.21875 64.59375 
L 8.203125 64.59375 
z
" id="DejaVuSans-55"/>
      </defs>
      <g transform="translate(348.71724 322.182437)scale(0.1 -0.1)">
       <use xlink:href="#DejaVuSans-55"/>
       <use x="63.623047" xlink:href="#DejaVuSans-48"/>
       <use x="127.246094" xlink:href="#DejaVuSans-48"/>
      </g>
     </g>
    </g>
    <g id="xtick_9">
     <g id="line2d_9">
      <g>
       <use style="stroke:#000000;stroke-width:0.8;" x="398.893599" xlink:href="#m937c7fc6ab" y="307.584"/>
      </g>
     </g>
     <g id="text_9">
      <!-- 800 -->
      <defs>
       <path d="M 31.78125 34.625 
Q 24.75 34.625 20.71875 30.859375 
Q 16.703125 27.09375 16.703125 20.515625 
Q 16.703125 13.921875 20.71875 10.15625 
Q 24.75 6.390625 31.78125 6.390625 
Q 38.8125 6.390625 42.859375 10.171875 
Q 46.921875 13.96875 46.921875 20.515625 
Q 46.921875 27.09375 42.890625 30.859375 
Q 38.875 34.625 31.78125 34.625 
z
M 21.921875 38.8125 
Q 15.578125 40.375 12.03125 44.71875 
Q 8.5 49.078125 8.5 55.328125 
Q 8.5 64.0625 14.71875 69.140625 
Q 20.953125 74.21875 31.78125 74.21875 
Q 42.671875 74.21875 48.875 69.140625 
Q 55.078125 64.0625 55.078125 55.328125 
Q 55.078125 49.078125 51.53125 44.71875 
Q 48 40.375 41.703125 38.8125 
Q 48.828125 37.15625 52.796875 32.3125 
Q 56.78125 27.484375 56.78125 20.515625 
Q 56.78125 9.90625 50.3125 4.234375 
Q 43.84375 -1.421875 31.78125 -1.421875 
Q 19.734375 -1.421875 13.25 4.234375 
Q 6.78125 9.90625 6.78125 20.515625 
Q 6.78125 27.484375 10.78125 32.3125 
Q 14.796875 37.15625 21.921875 38.8125 
z
M 18.3125 54.390625 
Q 18.3125 48.734375 21.84375 45.5625 
Q 25.390625 42.390625 31.78125 42.390625 
Q 38.140625 42.390625 41.71875 45.5625 
Q 45.3125 48.734375 45.3125 54.390625 
Q 45.3125 60.0625 41.71875 63.234375 
Q 38.140625 66.40625 31.78125 66.40625 
Q 25.390625 66.40625 21.84375 63.234375 
Q 18.3125 60.0625 18.3125 54.390625 
z
" id="DejaVuSans-56"/>
      </defs>
      <g transform="translate(389.349849 322.182437)scale(0.1 -0.1)">
       <use xlink:href="#DejaVuSans-56"/>
       <use x="63.623047" xlink:href="#DejaVuSans-48"/>
       <use x="127.246094" xlink:href="#DejaVuSans-48"/>
      </g>
     </g>
    </g>
   </g>
   <g id="matplotlib.axis_2">
    <g id="ytick_1">
     <g id="line2d_10">
      <defs>
       <path d="M 0 0 
L -3.5 0 
" id="m93fe261378" style="stroke:#000000;stroke-width:0.8;"/>
      </defs>
      <g>
       <use style="stroke:#000000;stroke-width:0.8;" x="57.6" xlink:href="#m93fe261378" y="262.624324"/>
      </g>
     </g>
     <g id="text_10">
      <!-- 0.05 -->
      <defs>
       <path d="M 10.6875 12.40625 
L 21 12.40625 
L 21 0 
L 10.6875 0 
z
" id="DejaVuSans-46"/>
      </defs>
      <g transform="translate(28.334375 266.423543)scale(0.1 -0.1)">
       <use xlink:href="#DejaVuSans-48"/>
       <use x="63.623047" xlink:href="#DejaVuSans-46"/>
       <use x="95.410156" xlink:href="#DejaVuSans-48"/>
       <use x="159.033203" xlink:href="#DejaVuSans-53"/>
      </g>
     </g>
    </g>
    <g id="ytick_2">
     <g id="line2d_11">
      <g>
       <use style="stroke:#000000;stroke-width:0.8;" x="57.6" xlink:href="#m93fe261378" y="210.131974"/>
      </g>
     </g>
     <g id="text_11">
      <!-- 0.10 -->
      <g transform="translate(28.334375 213.931193)scale(0.1 -0.1)">
       <use xlink:href="#DejaVuSans-48"/>
       <use x="63.623047" xlink:href="#DejaVuSans-46"/>
       <use x="95.410156" xlink:href="#DejaVuSans-49"/>
       <use x="159.033203" xlink:href="#DejaVuSans-48"/>
      </g>
     </g>
    </g>
    <g id="ytick_3">
     <g id="line2d_12">
      <g>
       <use style="stroke:#000000;stroke-width:0.8;" x="57.6" xlink:href="#m93fe261378" y="157.639624"/>
      </g>
     </g>
     <g id="text_12">
      <!-- 0.15 -->
      <g transform="translate(28.334375 161.438843)scale(0.1 -0.1)">
       <use xlink:href="#DejaVuSans-48"/>
       <use x="63.623047" xlink:href="#DejaVuSans-46"/>
       <use x="95.410156" xlink:href="#DejaVuSans-49"/>
       <use x="159.033203" xlink:href="#DejaVuSans-53"/>
      </g>
     </g>
    </g>
    <g id="ytick_4">
     <g id="line2d_13">
      <g>
       <use style="stroke:#000000;stroke-width:0.8;" x="57.6" xlink:href="#m93fe261378" y="105.147274"/>
      </g>
     </g>
     <g id="text_13">
      <!-- 0.20 -->
      <g transform="translate(28.334375 108.946493)scale(0.1 -0.1)">
       <use xlink:href="#DejaVuSans-48"/>
       <use x="63.623047" xlink:href="#DejaVuSans-46"/>
       <use x="95.410156" xlink:href="#DejaVuSans-50"/>
       <use x="159.033203" xlink:href="#DejaVuSans-48"/>
      </g>
     </g>
    </g>
    <g id="ytick_5">
     <g id="line2d_14">
      <g>
       <use style="stroke:#000000;stroke-width:0.8;" x="57.6" xlink:href="#m93fe261378" y="52.654924"/>
      </g>
     </g>
     <g id="text_14">
      <!-- 0.25 -->
      <g transform="translate(28.334375 56.454143)scale(0.1 -0.1)">
       <use xlink:href="#DejaVuSans-48"/>
       <use x="63.623047" xlink:href="#DejaVuSans-46"/>
       <use x="95.410156" xlink:href="#DejaVuSans-50"/>
       <use x="159.033203" xlink:href="#DejaVuSans-53"/>
      </g>
     </g>
    </g>
   </g>
   <g id="line2d_15">
    <path clip-path="url(#p1d00382284)" d="M 73.832727 70.650239 
L 74.645379 249.772089 
L 75.051706 289.407726 
L 75.458032 292.412541 
L 75.864358 294.302971 
L 76.270684 295.367573 
L 76.67701 295.488 
L 77.083336 295.394556 
L 77.895988 294.583401 
L 80.740271 289.941868 
L 82.365575 287.696596 
L 82.771901 287.278066 
L 83.178227 287.090788 
L 84.397206 285.493018 
L 84.803532 281.954724 
L 86.428836 260.220294 
L 87.241488 251.568013 
L 88.05414 246.043332 
L 88.460466 244.413299 
L 88.866793 243.605852 
L 89.273119 243.616829 
L 89.679445 244.483411 
L 90.085771 246.083784 
L 90.898423 251.506808 
L 91.711075 258.647137 
L 92.117401 262.821813 
L 92.930053 274.913101 
L 93.33638 271.817166 
L 93.742706 271.067063 
L 94.149032 271.486664 
L 94.555358 272.392406 
L 94.961684 270.884635 
L 95.36801 270.569291 
L 95.774336 271.121376 
L 96.180662 271.018905 
L 96.586988 270.659259 
L 97.805967 270.222455 
L 98.212293 269.646849 
L 99.024945 269.115593 
L 99.431271 269.103149 
L 100.243923 267.506886 
L 100.650249 267.537512 
L 101.056575 266.782381 
L 101.462901 266.474642 
L 101.869227 266.608703 
L 102.275554 265.692803 
L 102.68188 265.448798 
L 103.088206 264.940566 
L 103.494532 265.370445 
L 104.307184 264.203176 
L 105.932488 262.755698 
L 106.338814 262.59544 
L 106.745141 261.381268 
L 107.151467 261.711862 
L 107.557793 259.776573 
L 107.964119 259.140006 
L 108.370445 258.922221 
L 108.776771 259.905793 
L 109.183097 259.322702 
L 109.589423 260.278599 
L 109.995749 260.845611 
L 110.402075 259.90555 
L 110.808401 259.905712 
L 111.214728 259.621912 
L 112.02738 260.099262 
L 112.433706 260.741792 
L 112.840032 260.85545 
L 113.246358 261.298977 
L 113.652684 261.491853 
L 115.277988 261.857145 
L 115.684314 262.50937 
L 116.090641 261.655448 
L 117.309619 253.558682 
L 119.341249 238.437677 
L 120.966554 226.653948 
L 122.185532 219.668601 
L 122.998184 216.29322 
L 123.40451 215.342067 
L 123.810836 213.75499 
L 124.217162 213.682755 
L 124.623488 213.38845 
L 125.029815 213.311088 
L 125.436141 212.913314 
L 125.842467 212.727816 
L 126.655119 215.013213 
L 127.061445 215.857141 
L 127.874097 218.529382 
L 129.093075 221.552582 
L 129.499402 222.613019 
L 129.905728 223.213069 
L 130.312054 224.069041 
L 130.71838 224.325953 
L 131.124706 224.872188 
L 131.531032 225.074396 
L 131.937358 225.08792 
L 132.343684 224.865375 
L 133.156336 224.018182 
L 133.562662 223.447798 
L 134.375315 222.089817 
L 134.781641 220.523917 
L 135.187967 217.998963 
L 135.594293 217.739517 
L 136.406945 215.372549 
L 136.813271 213.706781 
L 137.219597 213.288962 
L 138.032249 211.022609 
L 140.06388 206.4904 
L 140.470206 206.618158 
L 140.876532 205.591688 
L 141.282858 204.867985 
L 141.689184 204.445265 
L 142.09551 203.79089 
L 142.908162 203.152751 
L 143.314489 202.863648 
L 144.127141 202.568937 
L 144.533467 203.782788 
L 144.939793 204.446743 
L 145.346119 204.14673 
L 145.752445 202.241739 
L 146.158771 203.620703 
L 146.565097 202.253719 
L 146.971423 202.322176 
L 147.377749 201.414252 
L 147.784076 201.936855 
L 148.190402 202.276875 
L 148.596728 201.755706 
L 151.034684 201.109073 
L 152.253663 200.382303 
L 152.659989 200.101274 
L 153.472641 199.185682 
L 153.878967 199.242675 
L 154.285293 199.110897 
L 154.691619 196.902353 
L 155.504271 196.651583 
L 156.316923 194.991541 
L 157.129576 193.773432 
L 157.535902 191.95877 
L 157.942228 192.133543 
L 161.192837 187.792012 
L 163.224467 185.77798 
L 163.630793 184.475974 
L 164.037119 184.965603 
L 164.443445 185.129273 
L 164.849771 184.676711 
L 166.06875 184.511981 
L 167.287728 183.185569 
L 168.913032 181.888647 
L 169.319358 182.162645 
L 169.725684 181.941103 
L 170.538337 181.902024 
L 171.350989 181.491311 
L 171.757315 181.856521 
L 172.163641 181.054186 
L 172.569967 181.022862 
L 173.788945 180.399892 
L 174.195271 179.781149 
L 175.41425 178.577556 
L 177.852206 174.140522 
L 178.258532 173.814472 
L 179.071184 172.609938 
L 179.477511 172.203838 
L 180.290163 171.153333 
L 181.102815 170.12217 
L 182.321793 168.78393 
L 182.728119 169.1088 
L 183.134445 168.521612 
L 183.540771 167.513064 
L 183.947098 167.071954 
L 184.75975 166.666575 
L 185.166076 166.443758 
L 185.572402 166.058993 
L 185.978728 165.864536 
L 186.385054 166.118406 
L 186.79138 165.597406 
L 187.197706 165.723549 
L 188.010358 165.054333 
L 188.416684 165.01142 
L 188.823011 164.682521 
L 189.229337 165.059915 
L 189.635663 164.396163 
L 190.448315 163.818067 
L 190.854641 163.71466 
L 191.260967 163.792379 
L 191.667293 162.97918 
L 192.073619 162.763937 
L 192.479945 162.781507 
L 192.886271 162.017085 
L 193.292598 161.867773 
L 194.10525 161.023785 
L 194.511576 161.353712 
L 194.917902 160.134624 
L 195.324228 160.072064 
L 195.730554 159.20827 
L 196.543206 155.532376 
L 196.949532 156.810553 
L 197.355858 153.980343 
L 197.762185 152.866565 
L 198.168511 155.538566 
L 198.574837 153.878232 
L 199.387489 154.090292 
L 200.200141 153.579854 
L 200.606467 153.177351 
L 201.012793 153.072852 
L 201.419119 153.208721 
L 201.825445 152.775616 
L 202.638098 153.081984 
L 203.044424 152.926879 
L 203.45075 153.599904 
L 203.857076 151.858127 
L 204.263402 152.948623 
L 204.669728 152.964859 
L 205.076054 151.083773 
L 205.48238 150.398814 
L 205.888706 148.850724 
L 206.295032 149.29468 
L 206.701359 148.851464 
L 207.107685 148.212853 
L 207.920337 149.209593 
L 208.326663 148.029988 
L 208.732989 148.156989 
L 209.139315 146.906437 
L 209.545641 146.26531 
L 209.951967 143.667014 
L 210.358293 143.160838 
L 211.170946 140.647382 
L 211.577272 138.702412 
L 212.79625 135.882638 
L 213.202576 134.773852 
L 213.608902 134.5308 
L 214.015228 132.849003 
L 215.234206 130.962777 
L 216.046859 129.902792 
L 216.453185 128.571781 
L 217.265837 127.648904 
L 217.672163 127.753597 
L 218.891141 123.085698 
L 219.297467 122.79956 
L 219.703793 120.474855 
L 220.110119 118.944919 
L 220.516446 117.953388 
L 221.329098 118.062382 
L 221.735424 118.104657 
L 222.14175 117.535156 
L 222.548076 118.248822 
L 222.954402 118.087359 
L 223.360728 117.693298 
L 223.767054 118.212016 
L 224.17338 117.565158 
L 224.579706 118.228762 
L 224.986033 117.829263 
L 225.392359 117.832108 
L 225.798685 116.981415 
L 226.205011 116.564297 
L 226.611337 115.928211 
L 227.017663 115.505992 
L 227.423989 114.447777 
L 227.830315 115.445217 
L 229.45562 111.644096 
L 229.861946 111.118075 
L 230.674598 109.530765 
L 231.080924 109.301927 
L 231.48725 108.512427 
L 231.893576 106.700149 
L 232.299902 105.946811 
L 232.706228 105.820274 
L 233.112554 106.306414 
L 233.51888 106.470463 
L 233.925207 104.127697 
L 234.331533 104.514223 
L 234.737859 104.224544 
L 235.144185 105.814648 
L 235.550511 105.313579 
L 236.363163 107.32831 
L 237.175815 108.22682 
L 237.582141 109.900183 
L 238.394793 111.073983 
L 238.80112 111.145653 
L 239.207446 111.500611 
L 239.613772 110.823463 
L 240.020098 111.31679 
L 240.426424 111.522838 
L 240.83275 112.008906 
L 241.239076 110.97162 
L 242.051728 110.230312 
L 242.458054 110.546095 
L 242.86438 108.872449 
L 243.270707 108.105604 
L 243.677033 108.359244 
L 244.083359 106.390216 
L 244.489685 105.625991 
L 244.896011 106.015577 
L 245.708663 104.083464 
L 246.114989 103.209263 
L 246.521315 102.928557 
L 246.927641 102.283254 
L 247.333967 101.404237 
L 248.14662 100.857424 
L 248.552946 101.061095 
L 248.959272 100.537633 
L 249.365598 99.718392 
L 250.17825 99.839869 
L 250.584576 100.704982 
L 250.990902 100.406241 
L 251.397228 99.38392 
L 251.803554 99.291372 
L 252.209881 98.745701 
L 252.616207 99.54766 
L 253.022533 98.392954 
L 253.428859 98.538783 
L 253.835185 98.961825 
L 254.241511 99.158614 
L 255.054163 99.843337 
L 255.460489 98.632177 
L 255.866815 99.293449 
L 256.273141 98.397898 
L 256.679468 99.847479 
L 257.085794 99.200414 
L 257.49212 99.305839 
L 257.898446 100.549669 
L 258.304772 99.990604 
L 258.711098 100.175745 
L 259.117424 100.523727 
L 259.52375 100.020476 
L 259.930076 100.275545 
L 260.336402 100.106139 
L 260.742728 100.085534 
L 261.149054 100.344505 
L 261.555381 100.006644 
L 261.961707 100.178342 
L 262.368033 99.769612 
L 262.774359 99.912388 
L 263.587011 99.302933 
L 263.993337 99.948041 
L 264.399663 99.680095 
L 264.805989 98.98166 
L 265.212315 95.802177 
L 265.618641 96.284485 
L 266.83762 94.82744 
L 268.462924 92.453745 
L 268.86925 92.664345 
L 269.275576 92.49765 
L 270.900881 91.11533 
L 271.307207 91.17261 
L 271.713533 90.638814 
L 272.526185 90.379628 
L 273.338837 89.208699 
L 273.745163 88.763274 
L 274.557815 88.119791 
L 275.370468 86.823932 
L 275.776794 86.973081 
L 276.18312 86.716523 
L 276.589446 86.772898 
L 277.402098 88.363305 
L 277.808424 88.776943 
L 278.21475 89.703471 
L 278.621076 89.141736 
L 279.027402 89.083218 
L 279.433729 88.858073 
L 279.840055 89.757397 
L 280.246381 87.780708 
L 280.652707 90.283528 
L 281.059033 88.368205 
L 281.465359 87.618927 
L 281.871685 89.308821 
L 282.278011 88.727006 
L 282.684337 89.575681 
L 283.496989 90.529855 
L 284.309642 90.363526 
L 284.715968 90.121782 
L 285.122294 89.558022 
L 285.52862 89.459627 
L 285.934946 89.508501 
L 286.747598 90.638302 
L 287.153924 90.257877 
L 287.56025 88.942905 
L 287.966576 88.332411 
L 288.372902 88.336668 
L 288.779229 88.179442 
L 289.185555 87.189789 
L 289.591881 87.049499 
L 290.404533 86.989341 
L 290.810859 86.373067 
L 291.217185 85.525646 
L 292.029837 84.539448 
L 292.842489 84.219961 
L 293.655142 85.185859 
L 294.061468 84.824169 
L 294.467794 85.049248 
L 294.87412 84.981069 
L 295.280446 85.151696 
L 295.686772 84.76038 
L 296.499424 86.006719 
L 296.90575 87.231759 
L 297.312076 87.490721 
L 297.718403 87.462266 
L 298.124729 87.001118 
L 298.531055 86.369911 
L 300.156359 80.902809 
L 300.562685 81.054016 
L 301.375337 78.971933 
L 302.18799 77.26122 
L 302.594316 77.727206 
L 303.813294 79.939859 
L 305.844924 81.045471 
L 306.25125 80.9981 
L 306.657577 81.202779 
L 307.063903 81.562482 
L 307.470229 81.77241 
L 307.876555 81.436701 
L 308.282881 80.887802 
L 308.689207 81.527528 
L 309.095533 81.873729 
L 309.501859 79.57972 
L 309.908185 79.920516 
L 310.314511 81.372301 
L 310.720837 81.202222 
L 311.127163 81.262219 
L 311.53349 81.650174 
L 311.939816 80.820006 
L 312.346142 79.258471 
L 312.752468 79.636384 
L 313.158794 79.494288 
L 313.56512 78.791358 
L 313.971446 78.650901 
L 314.377772 78.935411 
L 314.784098 78.559888 
L 315.59675 78.217941 
L 316.409403 78.17838 
L 317.628381 78.351982 
L 318.034707 77.601195 
L 318.441033 78.691925 
L 318.847359 78.980552 
L 319.253685 79.883989 
L 319.660011 78.455004 
L 320.066337 79.033453 
L 320.472664 76.606081 
L 320.87899 76.616947 
L 321.285316 77.792199 
L 321.691642 77.062068 
L 322.097968 77.759446 
L 322.504294 76.338295 
L 322.91062 76.390113 
L 323.316946 75.731688 
L 324.535924 75.740605 
L 324.942251 76.645984 
L 325.348577 75.751115 
L 325.754903 76.958305 
L 326.161229 75.944574 
L 327.380207 77.005265 
L 327.786533 76.153341 
L 328.192859 76.642253 
L 329.411838 75.1608 
L 329.818164 75.183063 
L 330.22449 74.37476 
L 330.630816 74.432859 
L 331.037142 75.274539 
L 331.849794 74.388189 
L 333.068772 73.582469 
L 333.881425 72.859598 
L 334.694077 72.263559 
L 335.100403 71.213607 
L 335.506729 71.238067 
L 335.913055 70.742642 
L 337.132033 70.21841 
L 337.538359 71.000828 
L 337.944685 70.000464 
L 338.351011 69.638342 
L 338.757338 70.928505 
L 339.163664 70.694205 
L 339.56999 70.103432 
L 339.976316 70.716969 
L 340.382642 70.116809 
L 340.788968 70.923887 
L 341.195294 70.101185 
L 341.60162 70.903202 
L 342.820598 70.422149 
L 343.633251 70.036377 
L 344.039577 70.278426 
L 345.258555 69.472174 
L 345.664881 69.397565 
L 346.071207 69.839334 
L 346.477533 69.042601 
L 346.883859 70.75626 
L 348.102838 71.259246 
L 348.509164 71.206932 
L 348.91549 71.874604 
L 349.321816 71.758612 
L 350.540794 70.55606 
L 350.94712 69.734246 
L 351.353446 69.48982 
L 351.759772 68.879562 
L 352.166099 67.989291 
L 352.572425 69.189885 
L 352.978751 68.273325 
L 353.791403 67.101923 
L 354.604055 65.773902 
L 355.416707 65.492595 
L 355.823033 64.347051 
L 356.635686 64.331172 
L 357.042012 64.611582 
L 357.448338 64.669457 
L 357.854664 65.624735 
L 359.073642 66.806553 
L 360.29262 67.454658 
L 360.698946 67.579372 
L 361.105272 67.18042 
L 361.511599 66.980289 
L 361.917925 66.551344 
L 362.324251 66.576059 
L 362.730577 66.179121 
L 363.136903 65.987563 
L 363.543229 65.653585 
L 363.949555 65.469214 
L 364.355881 64.962909 
L 364.762207 63.630572 
L 365.574859 64.063422 
L 365.981186 63.971058 
L 366.387512 64.482576 
L 366.793838 64.247157 
L 367.200164 63.428281 
L 367.60649 64.015265 
L 368.012816 62.528266 
L 368.419142 63.154537 
L 369.231794 62.099406 
L 369.63812 61.442527 
L 370.450773 60.927446 
L 370.857099 61.001821 
L 371.263425 60.303165 
L 371.669751 60.483692 
L 372.076077 60.916153 
L 372.482403 60.087374 
L 372.888729 60.513715 
L 373.701381 59.911387 
L 374.107707 60.227684 
L 374.514033 59.54186 
L 374.92036 59.354413 
L 375.733012 58.627937 
L 376.545664 58.160936 
L 377.358316 57.941734 
L 378.577294 57.901487 
L 379.389947 58.267981 
L 379.796273 58.088629 
L 380.202599 58.765543 
L 380.608925 58.56071 
L 381.015251 59.080999 
L 381.421577 59.292908 
L 382.640555 59.306316 
L 383.046881 59.132829 
L 383.453207 59.299457 
L 383.859534 59.253386 
L 384.26586 59.32136 
L 384.672186 58.99694 
L 385.484838 59.239234 
L 386.703816 59.21653 
L 387.110142 59.149798 
L 387.516468 59.292262 
L 387.922794 58.991277 
L 388.32912 58.154066 
L 388.735447 57.819575 
L 389.141773 57.911939 
L 389.548099 57.321513 
L 389.954425 57.394498 
L 390.360751 57.065534 
L 391.173403 55.931366 
L 391.579729 55.909898 
L 391.986055 55.343398 
L 392.392381 54.971576 
L 392.798707 54.880558 
L 393.205034 56.09492 
L 394.017686 54.497726 
L 394.424012 54.721351 
L 394.830338 54.042324 
L 395.236664 54.254551 
L 395.64299 54.972076 
L 396.049316 54.26186 
L 396.455642 54.276146 
L 396.861968 54.590446 
L 397.268294 53.939911 
L 397.674621 53.568 
L 398.080947 53.778338 
L 398.487273 54.42443 
L 398.487273 54.42443 
" style="fill:none;stroke:#1f77b4;stroke-linecap:square;stroke-width:1.5;"/>
   </g>
   <g id="line2d_16">
    <path clip-path="url(#p1d00382284)" d="M 73.832727 267.928576 
L 74.239053 265.417129 
L 75.051706 264.751406 
L 75.458032 264.021816 
L 75.864358 262.93089 
L 76.270684 260.297915 
L 76.67701 259.45317 
L 77.083336 258.114773 
L 77.895988 248.918223 
L 78.70864 244.824421 
L 79.927619 237.583052 
L 80.333945 237.328956 
L 81.552923 232.201067 
L 81.959249 230.801225 
L 82.771901 229.247154 
L 83.178227 228.873217 
L 83.584553 228.762563 
L 83.99088 228.901312 
L 84.397206 229.314629 
L 84.803532 229.957111 
L 86.428836 234.915872 
L 87.241488 238.287489 
L 88.866793 246.820552 
L 89.273119 249.430994 
L 89.679445 250.476615 
L 90.492097 255.720548 
L 91.304749 260.032529 
L 93.742706 268.594189 
L 94.149032 269.445413 
L 94.555358 269.741127 
L 94.961684 269.342337 
L 95.36801 270.204791 
L 95.774336 269.474989 
L 96.180662 269.811851 
L 96.586988 269.547548 
L 97.39964 268.313409 
L 97.805967 267.526557 
L 98.212293 267.459682 
L 99.024945 263.927034 
L 99.431271 263.720536 
L 101.056575 259.48306 
L 101.462901 257.603008 
L 102.275554 255.992015 
L 102.68188 255.344126 
L 103.088206 254.962453 
L 103.494532 255.979674 
L 103.900858 255.036202 
L 104.307184 254.685982 
L 104.71351 254.099319 
L 105.119836 255.613861 
L 105.526162 254.914633 
L 105.932488 255.152735 
L 106.338814 256.096651 
L 106.745141 254.837213 
L 107.151467 257.017673 
L 107.557793 257.606241 
L 107.964119 256.709761 
L 108.370445 258.343926 
L 108.776771 259.278676 
L 109.589423 257.533981 
L 109.995749 258.565492 
L 110.402075 261.781745 
L 110.808401 261.992348 
L 111.214728 262.731589 
L 111.621054 262.8568 
L 112.433706 263.64377 
L 112.840032 263.843367 
L 113.246358 264.202932 
L 114.05901 264.541341 
L 114.871662 264.636158 
L 115.684314 264.528276 
L 116.903293 264.080655 
L 118.122271 263.439121 
L 118.528597 262.899493 
L 118.934923 263.022046 
L 119.341249 262.483516 
L 119.747575 262.633559 
L 120.153901 262.160638 
L 120.966554 262.856265 
L 121.37288 262.565445 
L 122.185532 262.214061 
L 122.591858 262.905178 
L 122.998184 262.219953 
L 123.40451 261.231259 
L 123.810836 262.445606 
L 124.217162 262.661081 
L 124.623488 261.767465 
L 125.029815 262.971947 
L 125.842467 263.407662 
L 126.248793 262.551993 
L 126.655119 263.833344 
L 127.061445 264.087544 
L 127.467771 263.235075 
L 127.874097 264.518009 
L 129.093075 265.164554 
L 129.499402 265.342928 
L 129.905728 264.82479 
L 130.71838 265.350512 
L 131.124706 265.939974 
L 132.343684 266.094771 
L 132.75001 264.945449 
L 133.156336 265.629128 
L 133.562662 265.620384 
L 133.968989 264.736299 
L 134.375315 264.697956 
L 134.781641 264.852611 
L 135.187967 264.798294 
L 135.594293 264.547885 
L 136.000619 265.188711 
L 136.813271 265.012739 
L 137.219597 265.250298 
L 137.625923 263.729524 
L 138.032249 263.482178 
L 138.438575 264.196859 
L 138.844902 264.172624 
L 139.251228 263.256833 
L 139.657554 263.160057 
L 140.06388 263.421867 
L 140.470206 264.1711 
L 141.689184 264.253774 
L 142.09551 263.992413 
L 143.314489 264.275922 
L 143.720815 264.076126 
L 144.127141 264.536245 
L 145.752445 265.224097 
L 147.377749 265.78601 
L 147.784076 265.387202 
L 148.190402 265.970867 
L 149.40938 266.264605 
L 151.034684 266.350977 
L 152.659989 266.319225 
L 153.066315 264.407037 
L 153.472641 264.74197 
L 153.878967 263.470773 
L 154.285293 265.641057 
L 154.691619 265.266867 
L 155.097945 265.806622 
L 155.910597 265.498893 
L 157.129576 265.912562 
L 157.535902 263.669207 
L 157.942228 265.875305 
L 158.348554 262.816146 
L 158.75488 266.320069 
L 159.161206 266.123431 
L 159.567532 265.048676 
L 159.973858 264.86883 
L 160.380184 264.853584 
L 160.78651 265.391046 
L 161.192837 266.803451 
L 161.599163 264.512191 
L 162.005489 264.442331 
L 162.411815 264.975986 
L 162.818141 266.264474 
L 163.224467 265.10149 
L 163.630793 265.203488 
L 164.037119 267.166101 
L 164.443445 264.361648 
L 164.849771 264.420219 
L 165.256097 265.807208 
L 165.662423 264.234372 
L 166.06875 266.699385 
L 166.475076 264.448663 
L 166.881402 266.387993 
L 167.287728 266.176587 
L 167.694054 265.715197 
L 168.10038 266.946307 
L 168.506706 265.760473 
L 168.913032 263.833415 
L 169.319358 264.524856 
L 169.725684 264.801086 
L 170.13201 264.575002 
L 170.538337 264.774096 
L 170.944663 263.144546 
L 171.350989 263.036522 
L 171.757315 262.129366 
L 172.163641 265.340072 
L 172.569967 264.370568 
L 172.976293 265.390899 
L 173.382619 265.70598 
L 173.788945 268.18977 
L 174.195271 268.469029 
L 174.601597 266.120596 
L 175.007924 265.96723 
L 175.41425 263.583084 
L 175.820576 264.98707 
L 176.226902 263.634421 
L 176.633228 265.902492 
L 177.852206 266.084933 
L 178.258532 264.450821 
L 178.664858 265.203778 
L 179.071184 265.428406 
L 179.477511 264.934104 
L 179.883837 265.410757 
L 180.290163 265.420692 
L 180.696489 266.444387 
L 181.509141 266.786227 
L 181.915467 264.731767 
L 182.321793 266.554751 
L 183.134445 267.13869 
L 183.540771 266.878582 
L 183.947098 266.87845 
L 184.353424 267.171585 
L 184.75975 266.87136 
L 185.166076 266.912356 
L 185.572402 268.16844 
L 185.978728 264.852804 
L 186.385054 266.864557 
L 186.79138 267.075149 
L 187.197706 264.434997 
L 187.604032 264.432627 
L 188.010358 265.685017 
L 188.416684 264.574061 
L 188.823011 266.048487 
L 189.229337 266.548217 
L 189.635663 266.766249 
L 190.041989 266.851624 
L 190.448315 267.532679 
L 190.854641 267.356161 
L 191.260967 266.920175 
L 191.667293 267.16683 
L 195.324228 267.319155 
L 196.949532 267.258437 
L 198.981163 267.416634 
L 199.793815 267.535564 
L 200.200141 267.187118 
L 200.606467 267.247837 
L 201.012793 269.189056 
L 201.419119 267.692073 
L 201.825445 267.881142 
L 202.231772 270.539797 
L 202.638098 268.268471 
L 203.044424 268.805456 
L 203.857076 269.175355 
L 204.263402 267.247663 
L 204.669728 266.734834 
L 205.076054 268.755893 
L 205.48238 267.544791 
L 205.888706 267.507496 
L 206.295032 266.441519 
L 206.701359 267.549192 
L 207.107685 266.756194 
L 207.514011 268.994786 
L 207.920337 268.505527 
L 208.326663 267.567797 
L 208.732989 268.81525 
L 209.139315 267.958695 
L 209.545641 269.049654 
L 209.951967 268.666688 
L 210.358293 267.907509 
L 210.764619 267.514693 
L 211.170946 268.950899 
L 211.983598 269.166766 
L 212.389924 268.812024 
L 212.79625 266.714413 
L 213.202576 268.073802 
L 214.421554 268.193355 
L 214.82788 267.954902 
L 215.640532 269.383902 
L 216.046859 269.246272 
L 216.453185 268.401384 
L 216.859511 268.040233 
L 217.265837 267.897313 
L 217.672163 267.481014 
L 218.078489 267.440217 
L 218.891141 268.064184 
L 219.703793 270.106201 
L 220.110119 267.766107 
L 220.516446 266.989656 
L 220.922772 269.728315 
L 221.329098 267.368679 
L 221.735424 267.432563 
L 222.14175 269.479859 
L 222.548076 266.666902 
L 222.954402 268.787644 
L 223.360728 269.170792 
L 224.17338 267.231176 
L 224.579706 268.396128 
L 224.986033 267.573809 
L 225.392359 270.409158 
L 225.798685 269.401127 
L 226.205011 268.025123 
L 226.611337 267.847996 
L 227.017663 270.087698 
L 227.423989 270.724046 
L 227.830315 270.461975 
L 228.236641 269.126326 
L 228.642967 268.760115 
L 229.049293 269.372529 
L 229.45562 269.760438 
L 229.861946 269.485487 
L 230.674598 269.303889 
L 231.48725 269.21091 
L 231.893576 269.102893 
L 232.299902 268.120616 
L 232.706228 268.916543 
L 233.112554 270.790623 
L 233.51888 268.270335 
L 233.925207 269.40477 
L 234.331533 265.336741 
L 234.737859 268.477875 
L 235.144185 264.847008 
L 235.550511 265.960984 
L 235.956837 268.733033 
L 236.363163 267.901926 
L 236.769489 269.818424 
L 237.175815 270.186638 
L 237.988467 269.728977 
L 238.394793 270.531518 
L 238.80112 270.313086 
L 239.207446 269.49603 
L 239.613772 270.599041 
L 240.020098 269.028175 
L 240.426424 272.87328 
L 240.83275 273.433782 
L 241.239076 273.699125 
L 241.645402 271.498843 
L 242.051728 271.368713 
L 242.458054 272.012176 
L 242.86438 271.33445 
L 243.270707 268.065971 
L 243.677033 270.441689 
L 244.083359 268.852244 
L 244.489685 269.732732 
L 244.896011 269.558469 
L 245.302337 270.334369 
L 245.708663 269.932883 
L 246.114989 270.338422 
L 246.521315 270.041043 
L 246.927641 270.592861 
L 247.333967 272.215489 
L 247.740294 269.59497 
L 248.14662 268.898507 
L 248.552946 274.071268 
L 248.959272 270.376331 
L 249.771924 268.514948 
L 250.17825 270.74014 
L 250.584576 268.890335 
L 250.990902 269.258012 
L 251.397228 270.417966 
L 251.803554 270.637575 
L 252.209881 271.816563 
L 252.616207 270.496123 
L 253.022533 270.992605 
L 253.428859 268.865062 
L 253.835185 271.008622 
L 254.647837 269.12194 
L 255.866815 268.778341 
L 256.273141 269.030719 
L 257.085794 268.959699 
L 257.898446 269.510636 
L 258.304772 269.645807 
L 258.711098 269.094683 
L 259.52375 269.060818 
L 259.930076 269.676211 
L 260.742728 269.622932 
L 261.149054 269.187765 
L 261.555381 270.267257 
L 261.961707 270.442609 
L 262.368033 270.826414 
L 262.774359 266.632695 
L 263.180685 270.594154 
L 263.587011 270.386775 
L 264.399663 271.07867 
L 264.805989 270.284439 
L 265.212315 270.191569 
L 265.618641 268.869081 
L 266.024968 268.956188 
L 266.431294 270.291939 
L 267.243946 270.364652 
L 267.650272 270.619149 
L 268.056598 270.028368 
L 268.462924 271.001432 
L 271.307207 271.302757 
L 271.713533 271.418153 
L 272.119859 271.187451 
L 272.526185 271.297493 
L 272.932511 270.93409 
L 273.338837 270.403235 
L 273.745163 271.253068 
L 274.151489 270.858002 
L 274.557815 270.106579 
L 274.964142 270.094672 
L 275.370468 270.374278 
L 275.776794 270.500894 
L 276.18312 269.960543 
L 276.589446 270.760237 
L 276.995772 270.963927 
L 277.808424 270.730213 
L 278.21475 271.746404 
L 278.621076 271.531838 
L 279.027402 270.670243 
L 279.433729 271.326843 
L 279.840055 271.323648 
L 280.246381 270.416089 
L 280.652707 270.202791 
L 281.059033 270.504987 
L 281.871685 270.37618 
L 282.684337 269.519145 
L 283.090663 270.829222 
L 283.496989 266.629012 
L 283.903316 272.136649 
L 284.715968 271.051252 
L 285.122294 271.197414 
L 285.52862 271.48271 
L 285.934946 270.26516 
L 286.341272 270.958601 
L 286.747598 270.025519 
L 287.153924 270.028394 
L 287.56025 269.604315 
L 287.966576 269.485975 
L 288.372902 270.882998 
L 288.779229 270.535433 
L 289.185555 270.490146 
L 289.591881 269.921148 
L 290.404533 269.885463 
L 290.810859 270.464734 
L 291.217185 270.163448 
L 291.623511 270.691714 
L 294.061468 270.991517 
L 294.467794 270.663556 
L 294.87412 270.758203 
L 295.280446 271.08758 
L 295.686772 270.486649 
L 296.093098 271.16828 
L 296.499424 271.033975 
L 296.90575 271.311312 
L 297.312076 271.294878 
L 297.718403 270.939092 
L 298.124729 270.839527 
L 298.937381 270.290208 
L 299.343707 270.339135 
L 299.750033 269.971467 
L 300.969011 269.537202 
L 301.375337 269.555662 
L 302.18799 270.104309 
L 303.000642 270.168548 
L 303.406968 269.938858 
L 303.813294 270.043286 
L 304.21962 270.846343 
L 307.063903 271.1878 
L 307.470229 270.573271 
L 307.876555 271.121871 
L 308.282881 270.743576 
L 308.689207 270.565438 
L 309.095533 270.595135 
L 309.501859 270.126415 
L 309.908185 270.513356 
L 310.314511 271.272652 
L 310.720837 271.677438 
L 311.127163 269.888586 
L 311.53349 271.115561 
L 311.939816 271.002507 
L 312.346142 269.057972 
L 312.752468 270.523464 
L 313.158794 270.744944 
L 313.56512 270.036735 
L 313.971446 270.153722 
L 314.377772 270.823903 
L 314.784098 270.813015 
L 315.190424 270.644232 
L 315.59675 271.198047 
L 316.003077 270.633417 
L 316.815729 268.613574 
L 317.222055 269.110694 
L 318.034707 270.856397 
L 318.441033 270.969563 
L 318.847359 270.572465 
L 319.253685 271.548803 
L 319.660011 271.050215 
L 320.066337 271.527502 
L 320.472664 269.987203 
L 320.87899 269.932181 
L 321.285316 271.56613 
L 321.691642 270.332841 
L 322.097968 270.180008 
L 322.504294 270.902007 
L 322.91062 270.26972 
L 323.723272 270.117653 
L 324.129598 270.877979 
L 324.535924 268.402522 
L 324.942251 270.217114 
L 325.348577 270.073778 
L 325.754903 270.645124 
L 326.161229 269.034659 
L 326.567555 272.174506 
L 326.973881 271.361876 
L 327.380207 269.678112 
L 327.786533 271.037605 
L 328.599185 271.127928 
L 329.005511 270.872481 
L 329.411838 268.841007 
L 330.22449 270.673649 
L 331.037142 271.156351 
L 331.443468 270.82796 
L 331.849794 270.72673 
L 332.25612 269.674393 
L 332.662446 269.860442 
L 333.068772 267.522226 
L 333.475098 267.96763 
L 333.881425 270.915042 
L 334.287751 270.171104 
L 334.694077 270.783653 
L 335.100403 270.668426 
L 335.506729 269.187202 
L 335.913055 271.126646 
L 336.319381 270.980478 
L 336.725707 269.528791 
L 337.132033 270.454099 
L 337.538359 272.703537 
L 337.944685 266.06744 
L 338.351011 270.601834 
L 338.757338 271.387868 
L 339.163664 270.924728 
L 339.56999 270.007437 
L 339.976316 270.34101 
L 340.382642 271.483094 
L 341.195294 270.339294 
L 341.60162 270.847324 
L 342.007946 271.080026 
L 342.414272 270.894246 
L 342.820598 271.077995 
L 343.226925 270.969624 
L 343.633251 270.694097 
L 344.039577 269.391839 
L 344.445903 270.451159 
L 344.852229 271.170747 
L 345.258555 271.368478 
L 345.664881 270.388202 
L 346.071207 269.835302 
L 346.477533 270.108594 
L 346.883859 270.727141 
L 347.290185 270.797777 
L 347.696512 270.601352 
L 348.102838 271.139732 
L 348.509164 271.468902 
L 348.91549 271.489287 
L 349.728142 270.358726 
L 350.134468 270.669866 
L 350.540794 270.449225 
L 350.94712 270.809917 
L 351.353446 270.774602 
L 351.759772 271.127071 
L 352.166099 270.831027 
L 352.978751 270.785118 
L 353.385077 271.238807 
L 353.791403 270.367437 
L 354.197729 270.865811 
L 354.604055 270.393158 
L 355.010381 270.411006 
L 355.416707 271.27439 
L 355.823033 271.002623 
L 356.635686 269.240939 
L 357.042012 270.122157 
L 357.448338 270.735331 
L 357.854664 270.177867 
L 358.26099 270.921264 
L 358.667316 270.459311 
L 359.073642 270.706795 
L 359.479968 270.26844 
L 359.886294 271.041468 
L 360.29262 269.844762 
L 360.698946 269.975805 
L 361.105272 269.956502 
L 361.511599 270.1456 
L 361.917925 269.900022 
L 362.324251 270.671761 
L 363.136903 270.691022 
L 363.543229 270.230602 
L 363.949555 270.269557 
L 364.355881 271.367493 
L 364.762207 269.849565 
L 365.168533 270.47753 
L 365.574859 271.825425 
L 365.981186 271.003388 
L 366.387512 271.074339 
L 366.793838 271.804374 
L 367.200164 271.121202 
L 367.60649 271.093723 
L 368.012816 270.892508 
L 368.419142 271.039252 
L 368.825468 270.194372 
L 369.231794 270.532888 
L 369.63812 273.25058 
L 370.044446 271.071996 
L 370.450773 270.76644 
L 371.263425 271.877606 
L 371.669751 271.983598 
L 372.076077 271.418868 
L 373.295055 271.29031 
L 373.701381 270.098326 
L 374.107707 270.036865 
L 374.514033 271.07409 
L 374.92036 270.029178 
L 375.326686 271.089491 
L 375.733012 271.213159 
L 376.545664 271.071606 
L 376.95199 271.007256 
L 377.358316 271.168626 
L 377.764642 270.124007 
L 378.170968 271.151066 
L 378.98362 269.94817 
L 379.389947 271.163955 
L 379.796273 271.148168 
L 380.202599 271.330428 
L 380.608925 269.545282 
L 381.015251 270.615556 
L 381.421577 270.605677 
L 381.827903 271.363012 
L 382.640555 271.114058 
L 383.046881 270.963602 
L 383.453207 270.402485 
L 384.26586 270.809857 
L 384.672186 270.127287 
L 385.078512 270.28359 
L 385.484838 270.176653 
L 385.891164 271.046304 
L 386.29749 271.427384 
L 386.703816 271.0526 
L 387.110142 271.962223 
L 387.516468 271.027832 
L 387.922794 270.76136 
L 388.735447 271.83395 
L 389.141773 270.774037 
L 389.548099 271.399816 
L 389.954425 270.552625 
L 390.360751 270.967108 
L 390.767077 270.289895 
L 391.173403 270.48637 
L 391.579729 271.140665 
L 392.798707 270.802351 
L 393.205034 270.877033 
L 393.61136 270.558412 
L 394.017686 270.541565 
L 394.424012 271.667957 
L 394.830338 270.670729 
L 395.236664 270.067618 
L 395.64299 270.551621 
L 396.049316 269.523492 
L 396.455642 270.639067 
L 396.861968 270.781658 
L 397.268294 270.250243 
L 397.674621 269.527224 
L 398.080947 270.644608 
L 398.487273 270.414441 
L 398.487273 270.414441 
" style="fill:none;stroke:#ff7f0e;stroke-linecap:square;stroke-width:1.5;"/>
   </g>
   <g id="patch_3">
    <path d="M 57.6 307.584 
L 57.6 41.472 
" style="fill:none;stroke:#000000;stroke-linecap:square;stroke-linejoin:miter;stroke-width:0.8;"/>
   </g>
   <g id="patch_4">
    <path d="M 414.72 307.584 
L 414.72 41.472 
" style="fill:none;stroke:#000000;stroke-linecap:square;stroke-linejoin:miter;stroke-width:0.8;"/>
   </g>
   <g id="patch_5">
    <path d="M 57.6 307.584 
L 414.72 307.584 
" style="fill:none;stroke:#000000;stroke-linecap:square;stroke-linejoin:miter;stroke-width:0.8;"/>
   </g>
   <g id="patch_6">
    <path d="M 57.6 41.472 
L 414.72 41.472 
" style="fill:none;stroke:#000000;stroke-linecap:square;stroke-linejoin:miter;stroke-width:0.8;"/>
   </g>
  </g>
 </g>
 <defs>
  <clipPath id="p1d00382284">
   <rect height="266.112" width="357.12" x="57.6" y="41.472"/>
  </clipPath>
 </defs>
</svg>
