<?xml version="1.0" encoding="utf-8" standalone="no"?>
<!DOCTYPE svg PUBLIC "-//W3C//DTD SVG 1.1//EN"
  "http://www.w3.org/Graphics/SVG/1.1/DTD/svg11.dtd">
<!-- Created with matplotlib (https://matplotlib.org/) -->
<svg height="345.6pt" version="1.1" viewBox="0 0 460.8 345.6" width="460.8pt" xmlns="http://www.w3.org/2000/svg" xmlns:xlink="http://www.w3.org/1999/xlink">
 <defs>
  <style type="text/css">
*{stroke-linecap:butt;stroke-linejoin:round;}
  </style>
 </defs>
 <g id="figure_1">
  <g id="patch_1">
   <path d="M 0 345.6 
L 460.8 345.6 
L 460.8 0 
L 0 0 
z
" style="fill:#ffffff;"/>
  </g>
  <g id="axes_1">
   <g id="patch_2">
    <path d="M 57.6 307.584 
L 414.72 307.584 
L 414.72 41.472 
L 57.6 41.472 
z
" style="fill:#ffffff;"/>
   </g>
   <g id="matplotlib.axis_1">
    <g id="xtick_1">
     <g id="line2d_1">
      <defs>
       <path d="M 0 0 
L 0 3.5 
" id="m5fd0c4f248" style="stroke:#000000;stroke-width:0.8;"/>
      </defs>
      <g>
       <use style="stroke:#000000;stroke-width:0.8;" x="73.832727" xlink:href="#m5fd0c4f248" y="307.584"/>
      </g>
     </g>
     <g id="text_1">
      <!-- 0 -->
      <defs>
       <path d="M 31.78125 66.40625 
Q 24.171875 66.40625 20.328125 58.90625 
Q 16.5 51.421875 16.5 36.375 
Q 16.5 21.390625 20.328125 13.890625 
Q 24.171875 6.390625 31.78125 6.390625 
Q 39.453125 6.390625 43.28125 13.890625 
Q 47.125 21.390625 47.125 36.375 
Q 47.125 51.421875 43.28125 58.90625 
Q 39.453125 66.40625 31.78125 66.40625 
z
M 31.78125 74.21875 
Q 44.046875 74.21875 50.515625 64.515625 
Q 56.984375 54.828125 56.984375 36.375 
Q 56.984375 17.96875 50.515625 8.265625 
Q 44.046875 -1.421875 31.78125 -1.421875 
Q 19.53125 -1.421875 13.0625 8.265625 
Q 6.59375 17.96875 6.59375 36.375 
Q 6.59375 54.828125 13.0625 64.515625 
Q 19.53125 74.21875 31.78125 74.21875 
z
" id="DejaVuSans-48"/>
      </defs>
      <g transform="translate(70.651477 322.182437)scale(0.1 -0.1)">
       <use xlink:href="#DejaVuSans-48"/>
      </g>
     </g>
    </g>
    <g id="xtick_2">
     <g id="line2d_2">
      <g>
       <use style="stroke:#000000;stroke-width:0.8;" x="114.465336" xlink:href="#m5fd0c4f248" y="307.584"/>
      </g>
     </g>
     <g id="text_2">
      <!-- 100 -->
      <defs>
       <path d="M 12.40625 8.296875 
L 28.515625 8.296875 
L 28.515625 63.921875 
L 10.984375 60.40625 
L 10.984375 69.390625 
L 28.421875 72.90625 
L 38.28125 72.90625 
L 38.28125 8.296875 
L 54.390625 8.296875 
L 54.390625 0 
L 12.40625 0 
z
" id="DejaVuSans-49"/>
      </defs>
      <g transform="translate(104.921586 322.182437)scale(0.1 -0.1)">
       <use xlink:href="#DejaVuSans-49"/>
       <use x="63.623047" xlink:href="#DejaVuSans-48"/>
       <use x="127.246094" xlink:href="#DejaVuSans-48"/>
      </g>
     </g>
    </g>
    <g id="xtick_3">
     <g id="line2d_3">
      <g>
       <use style="stroke:#000000;stroke-width:0.8;" x="155.097945" xlink:href="#m5fd0c4f248" y="307.584"/>
      </g>
     </g>
     <g id="text_3">
      <!-- 200 -->
      <defs>
       <path d="M 19.1875 8.296875 
L 53.609375 8.296875 
L 53.609375 0 
L 7.328125 0 
L 7.328125 8.296875 
Q 12.9375 14.109375 22.625 23.890625 
Q 32.328125 33.6875 34.8125 36.53125 
Q 39.546875 41.84375 41.421875 45.53125 
Q 43.3125 49.21875 43.3125 52.78125 
Q 43.3125 58.59375 39.234375 62.25 
Q 35.15625 65.921875 28.609375 65.921875 
Q 23.96875 65.921875 18.8125 64.3125 
Q 13.671875 62.703125 7.8125 59.421875 
L 7.8125 69.390625 
Q 13.765625 71.78125 18.9375 73 
Q 24.125 74.21875 28.421875 74.21875 
Q 39.75 74.21875 46.484375 68.546875 
Q 53.21875 62.890625 53.21875 53.421875 
Q 53.21875 48.921875 51.53125 44.890625 
Q 49.859375 40.875 45.40625 35.40625 
Q 44.1875 33.984375 37.640625 27.21875 
Q 31.109375 20.453125 19.1875 8.296875 
z
" id="DejaVuSans-50"/>
      </defs>
      <g transform="translate(145.554195 322.182437)scale(0.1 -0.1)">
       <use xlink:href="#DejaVuSans-50"/>
       <use x="63.623047" xlink:href="#DejaVuSans-48"/>
       <use x="127.246094" xlink:href="#DejaVuSans-48"/>
      </g>
     </g>
    </g>
    <g id="xtick_4">
     <g id="line2d_4">
      <g>
       <use style="stroke:#000000;stroke-width:0.8;" x="195.730554" xlink:href="#m5fd0c4f248" y="307.584"/>
      </g>
     </g>
     <g id="text_4">
      <!-- 300 -->
      <defs>
       <path d="M 40.578125 39.3125 
Q 47.65625 37.796875 51.625 33 
Q 55.609375 28.21875 55.609375 21.1875 
Q 55.609375 10.40625 48.1875 4.484375 
Q 40.765625 -1.421875 27.09375 -1.421875 
Q 22.515625 -1.421875 17.65625 -0.515625 
Q 12.796875 0.390625 7.625 2.203125 
L 7.625 11.71875 
Q 11.71875 9.328125 16.59375 8.109375 
Q 21.484375 6.890625 26.8125 6.890625 
Q 36.078125 6.890625 40.9375 10.546875 
Q 45.796875 14.203125 45.796875 21.1875 
Q 45.796875 27.640625 41.28125 31.265625 
Q 36.765625 34.90625 28.71875 34.90625 
L 20.21875 34.90625 
L 20.21875 43.015625 
L 29.109375 43.015625 
Q 36.375 43.015625 40.234375 45.921875 
Q 44.09375 48.828125 44.09375 54.296875 
Q 44.09375 59.90625 40.109375 62.90625 
Q 36.140625 65.921875 28.71875 65.921875 
Q 24.65625 65.921875 20.015625 65.03125 
Q 15.375 64.15625 9.8125 62.3125 
L 9.8125 71.09375 
Q 15.4375 72.65625 20.34375 73.4375 
Q 25.25 74.21875 29.59375 74.21875 
Q 40.828125 74.21875 47.359375 69.109375 
Q 53.90625 64.015625 53.90625 55.328125 
Q 53.90625 49.265625 50.4375 45.09375 
Q 46.96875 40.921875 40.578125 39.3125 
z
" id="DejaVuSans-51"/>
      </defs>
      <g transform="translate(186.186804 322.182437)scale(0.1 -0.1)">
       <use xlink:href="#DejaVuSans-51"/>
       <use x="63.623047" xlink:href="#DejaVuSans-48"/>
       <use x="127.246094" xlink:href="#DejaVuSans-48"/>
      </g>
     </g>
    </g>
    <g id="xtick_5">
     <g id="line2d_5">
      <g>
       <use style="stroke:#000000;stroke-width:0.8;" x="236.363163" xlink:href="#m5fd0c4f248" y="307.584"/>
      </g>
     </g>
     <g id="text_5">
      <!-- 400 -->
      <defs>
       <path d="M 37.796875 64.3125 
L 12.890625 25.390625 
L 37.796875 25.390625 
z
M 35.203125 72.90625 
L 47.609375 72.90625 
L 47.609375 25.390625 
L 58.015625 25.390625 
L 58.015625 17.1875 
L 47.609375 17.1875 
L 47.609375 0 
L 37.796875 0 
L 37.796875 17.1875 
L 4.890625 17.1875 
L 4.890625 26.703125 
z
" id="DejaVuSans-52"/>
      </defs>
      <g transform="translate(226.819413 322.182437)scale(0.1 -0.1)">
       <use xlink:href="#DejaVuSans-52"/>
       <use x="63.623047" xlink:href="#DejaVuSans-48"/>
       <use x="127.246094" xlink:href="#DejaVuSans-48"/>
      </g>
     </g>
    </g>
    <g id="xtick_6">
     <g id="line2d_6">
      <g>
       <use style="stroke:#000000;stroke-width:0.8;" x="276.995772" xlink:href="#m5fd0c4f248" y="307.584"/>
      </g>
     </g>
     <g id="text_6">
      <!-- 500 -->
      <defs>
       <path d="M 10.796875 72.90625 
L 49.515625 72.90625 
L 49.515625 64.59375 
L 19.828125 64.59375 
L 19.828125 46.734375 
Q 21.96875 47.46875 24.109375 47.828125 
Q 26.265625 48.1875 28.421875 48.1875 
Q 40.625 48.1875 47.75 41.5 
Q 54.890625 34.8125 54.890625 23.390625 
Q 54.890625 11.625 47.5625 5.09375 
Q 40.234375 -1.421875 26.90625 -1.421875 
Q 22.3125 -1.421875 17.546875 -0.640625 
Q 12.796875 0.140625 7.71875 1.703125 
L 7.71875 11.625 
Q 12.109375 9.234375 16.796875 8.0625 
Q 21.484375 6.890625 26.703125 6.890625 
Q 35.15625 6.890625 40.078125 11.328125 
Q 45.015625 15.765625 45.015625 23.390625 
Q 45.015625 31 40.078125 35.4375 
Q 35.15625 39.890625 26.703125 39.890625 
Q 22.75 39.890625 18.8125 39.015625 
Q 14.890625 38.140625 10.796875 36.28125 
z
" id="DejaVuSans-53"/>
      </defs>
      <g transform="translate(267.452022 322.182437)scale(0.1 -0.1)">
       <use xlink:href="#DejaVuSans-53"/>
       <use x="63.623047" xlink:href="#DejaVuSans-48"/>
       <use x="127.246094" xlink:href="#DejaVuSans-48"/>
      </g>
     </g>
    </g>
    <g id="xtick_7">
     <g id="line2d_7">
      <g>
       <use style="stroke:#000000;stroke-width:0.8;" x="317.628381" xlink:href="#m5fd0c4f248" y="307.584"/>
      </g>
     </g>
     <g id="text_7">
      <!-- 600 -->
      <defs>
       <path d="M 33.015625 40.375 
Q 26.375 40.375 22.484375 35.828125 
Q 18.609375 31.296875 18.609375 23.390625 
Q 18.609375 15.53125 22.484375 10.953125 
Q 26.375 6.390625 33.015625 6.390625 
Q 39.65625 6.390625 43.53125 10.953125 
Q 47.40625 15.53125 47.40625 23.390625 
Q 47.40625 31.296875 43.53125 35.828125 
Q 39.65625 40.375 33.015625 40.375 
z
M 52.59375 71.296875 
L 52.59375 62.3125 
Q 48.875 64.0625 45.09375 64.984375 
Q 41.3125 65.921875 37.59375 65.921875 
Q 27.828125 65.921875 22.671875 59.328125 
Q 17.53125 52.734375 16.796875 39.40625 
Q 19.671875 43.65625 24.015625 45.921875 
Q 28.375 48.1875 33.59375 48.1875 
Q 44.578125 48.1875 50.953125 41.515625 
Q 57.328125 34.859375 57.328125 23.390625 
Q 57.328125 12.15625 50.6875 5.359375 
Q 44.046875 -1.421875 33.015625 -1.421875 
Q 20.359375 -1.421875 13.671875 8.265625 
Q 6.984375 17.96875 6.984375 36.375 
Q 6.984375 53.65625 15.1875 63.9375 
Q 23.390625 74.21875 37.203125 74.21875 
Q 40.921875 74.21875 44.703125 73.484375 
Q 48.484375 72.75 52.59375 71.296875 
z
" id="DejaVuSans-54"/>
      </defs>
      <g transform="translate(308.084631 322.182437)scale(0.1 -0.1)">
       <use xlink:href="#DejaVuSans-54"/>
       <use x="63.623047" xlink:href="#DejaVuSans-48"/>
       <use x="127.246094" xlink:href="#DejaVuSans-48"/>
      </g>
     </g>
    </g>
    <g id="xtick_8">
     <g id="line2d_8">
      <g>
       <use style="stroke:#000000;stroke-width:0.8;" x="358.26099" xlink:href="#m5fd0c4f248" y="307.584"/>
      </g>
     </g>
     <g id="text_8">
      <!-- 700 -->
      <defs>
       <path d="M 8.203125 72.90625 
L 55.078125 72.90625 
L 55.078125 68.703125 
L 28.609375 0 
L 18.3125 0 
L 43.21875 64.59375 
L 8.203125 64.59375 
z
" id="DejaVuSans-55"/>
      </defs>
      <g transform="translate(348.71724 322.182437)scale(0.1 -0.1)">
       <use xlink:href="#DejaVuSans-55"/>
       <use x="63.623047" xlink:href="#DejaVuSans-48"/>
       <use x="127.246094" xlink:href="#DejaVuSans-48"/>
      </g>
     </g>
    </g>
    <g id="xtick_9">
     <g id="line2d_9">
      <g>
       <use style="stroke:#000000;stroke-width:0.8;" x="398.893599" xlink:href="#m5fd0c4f248" y="307.584"/>
      </g>
     </g>
     <g id="text_9">
      <!-- 800 -->
      <defs>
       <path d="M 31.78125 34.625 
Q 24.75 34.625 20.71875 30.859375 
Q 16.703125 27.09375 16.703125 20.515625 
Q 16.703125 13.921875 20.71875 10.15625 
Q 24.75 6.390625 31.78125 6.390625 
Q 38.8125 6.390625 42.859375 10.171875 
Q 46.921875 13.96875 46.921875 20.515625 
Q 46.921875 27.09375 42.890625 30.859375 
Q 38.875 34.625 31.78125 34.625 
z
M 21.921875 38.8125 
Q 15.578125 40.375 12.03125 44.71875 
Q 8.5 49.078125 8.5 55.328125 
Q 8.5 64.0625 14.71875 69.140625 
Q 20.953125 74.21875 31.78125 74.21875 
Q 42.671875 74.21875 48.875 69.140625 
Q 55.078125 64.0625 55.078125 55.328125 
Q 55.078125 49.078125 51.53125 44.71875 
Q 48 40.375 41.703125 38.8125 
Q 48.828125 37.15625 52.796875 32.3125 
Q 56.78125 27.484375 56.78125 20.515625 
Q 56.78125 9.90625 50.3125 4.234375 
Q 43.84375 -1.421875 31.78125 -1.421875 
Q 19.734375 -1.421875 13.25 4.234375 
Q 6.78125 9.90625 6.78125 20.515625 
Q 6.78125 27.484375 10.78125 32.3125 
Q 14.796875 37.15625 21.921875 38.8125 
z
M 18.3125 54.390625 
Q 18.3125 48.734375 21.84375 45.5625 
Q 25.390625 42.390625 31.78125 42.390625 
Q 38.140625 42.390625 41.71875 45.5625 
Q 45.3125 48.734375 45.3125 54.390625 
Q 45.3125 60.0625 41.71875 63.234375 
Q 38.140625 66.40625 31.78125 66.40625 
Q 25.390625 66.40625 21.84375 63.234375 
Q 18.3125 60.0625 18.3125 54.390625 
z
" id="DejaVuSans-56"/>
      </defs>
      <g transform="translate(389.349849 322.182437)scale(0.1 -0.1)">
       <use xlink:href="#DejaVuSans-56"/>
       <use x="63.623047" xlink:href="#DejaVuSans-48"/>
       <use x="127.246094" xlink:href="#DejaVuSans-48"/>
      </g>
     </g>
    </g>
   </g>
   <g id="matplotlib.axis_2">
    <g id="ytick_1">
     <g id="line2d_10">
      <defs>
       <path d="M 0 0 
L -3.5 0 
" id="m5351883599" style="stroke:#000000;stroke-width:0.8;"/>
      </defs>
      <g>
       <use style="stroke:#000000;stroke-width:0.8;" x="57.6" xlink:href="#m5351883599" y="262.196722"/>
      </g>
     </g>
     <g id="text_10">
      <!-- 0.04 -->
      <defs>
       <path d="M 10.6875 12.40625 
L 21 12.40625 
L 21 0 
L 10.6875 0 
z
" id="DejaVuSans-46"/>
      </defs>
      <g transform="translate(28.334375 265.995941)scale(0.1 -0.1)">
       <use xlink:href="#DejaVuSans-48"/>
       <use x="63.623047" xlink:href="#DejaVuSans-46"/>
       <use x="95.410156" xlink:href="#DejaVuSans-48"/>
       <use x="159.033203" xlink:href="#DejaVuSans-52"/>
      </g>
     </g>
    </g>
    <g id="ytick_2">
     <g id="line2d_11">
      <g>
       <use style="stroke:#000000;stroke-width:0.8;" x="57.6" xlink:href="#m5351883599" y="208.448478"/>
      </g>
     </g>
     <g id="text_11">
      <!-- 0.05 -->
      <g transform="translate(28.334375 212.247697)scale(0.1 -0.1)">
       <use xlink:href="#DejaVuSans-48"/>
       <use x="63.623047" xlink:href="#DejaVuSans-46"/>
       <use x="95.410156" xlink:href="#DejaVuSans-48"/>
       <use x="159.033203" xlink:href="#DejaVuSans-53"/>
      </g>
     </g>
    </g>
    <g id="ytick_3">
     <g id="line2d_12">
      <g>
       <use style="stroke:#000000;stroke-width:0.8;" x="57.6" xlink:href="#m5351883599" y="154.700233"/>
      </g>
     </g>
     <g id="text_12">
      <!-- 0.06 -->
      <g transform="translate(28.334375 158.499452)scale(0.1 -0.1)">
       <use xlink:href="#DejaVuSans-48"/>
       <use x="63.623047" xlink:href="#DejaVuSans-46"/>
       <use x="95.410156" xlink:href="#DejaVuSans-48"/>
       <use x="159.033203" xlink:href="#DejaVuSans-54"/>
      </g>
     </g>
    </g>
    <g id="ytick_4">
     <g id="line2d_13">
      <g>
       <use style="stroke:#000000;stroke-width:0.8;" x="57.6" xlink:href="#m5351883599" y="100.951989"/>
      </g>
     </g>
     <g id="text_13">
      <!-- 0.07 -->
      <g transform="translate(28.334375 104.751208)scale(0.1 -0.1)">
       <use xlink:href="#DejaVuSans-48"/>
       <use x="63.623047" xlink:href="#DejaVuSans-46"/>
       <use x="95.410156" xlink:href="#DejaVuSans-48"/>
       <use x="159.033203" xlink:href="#DejaVuSans-55"/>
      </g>
     </g>
    </g>
    <g id="ytick_5">
     <g id="line2d_14">
      <g>
       <use style="stroke:#000000;stroke-width:0.8;" x="57.6" xlink:href="#m5351883599" y="47.203745"/>
      </g>
     </g>
     <g id="text_14">
      <!-- 0.08 -->
      <g transform="translate(28.334375 51.002963)scale(0.1 -0.1)">
       <use xlink:href="#DejaVuSans-48"/>
       <use x="63.623047" xlink:href="#DejaVuSans-46"/>
       <use x="95.410156" xlink:href="#DejaVuSans-48"/>
       <use x="159.033203" xlink:href="#DejaVuSans-56"/>
      </g>
     </g>
    </g>
   </g>
   <g id="line2d_15">
    <path clip-path="url(#p2a8d46604e)" d="M 73.832727 215.98016 
L 74.239053 227.305993 
L 74.645379 265.00173 
L 75.051706 283.176251 
L 75.458032 291.206065 
L 75.864358 293.756973 
L 76.270684 295.488 
L 79.521293 257.60773 
L 81.552923 238.301092 
L 81.959249 237.613623 
L 82.365575 234.983088 
L 82.771901 230.695609 
L 83.178227 228.451125 
L 83.584553 224.660156 
L 83.99088 222.92424 
L 84.803532 214.987289 
L 85.209858 212.169876 
L 85.616184 210.82413 
L 86.02251 206.676109 
L 86.428836 205.419522 
L 86.835162 201.501669 
L 87.241488 200.190862 
L 87.647814 197.068918 
L 88.05414 196.506713 
L 88.460466 194.525595 
L 89.273119 189.436736 
L 90.492097 182.808605 
L 90.898423 179.638813 
L 91.711075 176.002865 
L 93.742706 167.432102 
L 94.149032 166.779564 
L 94.555358 166.677233 
L 94.961684 164.326958 
L 95.36801 160.793466 
L 95.774336 160.74689 
L 96.180662 159.745283 
L 96.586988 157.558715 
L 96.993314 157.460502 
L 97.39964 155.231292 
L 97.805967 154.726682 
L 98.212293 156.087643 
L 98.618619 152.630428 
L 99.024945 156.491418 
L 99.431271 158.868296 
L 100.243923 168.652402 
L 101.056575 180.918633 
L 102.275554 204.583266 
L 103.900858 238.557887 
L 104.307184 241.286165 
L 104.71351 246.74339 
L 105.119836 249.13891 
L 105.526162 250.653099 
L 105.932488 251.707428 
L 106.745141 258.190088 
L 107.151467 257.316828 
L 107.557793 260.578367 
L 107.964119 262.063665 
L 108.370445 264.17586 
L 108.776771 263.802793 
L 109.183097 264.919191 
L 109.589423 264.748754 
L 109.995749 264.989575 
L 110.808401 263.543925 
L 111.214728 264.807618 
L 111.621054 257.604256 
L 112.02738 259.980558 
L 112.433706 254.904464 
L 112.840032 251.554082 
L 113.246358 244.186342 
L 113.652684 246.297539 
L 114.05901 249.321124 
L 114.465336 249.760704 
L 114.871662 249.163329 
L 115.277988 245.41861 
L 115.684314 243.475284 
L 116.090641 245.421197 
L 116.903293 233.040598 
L 117.309619 232.271828 
L 117.715945 231.174386 
L 118.122271 224.555113 
L 118.528597 228.278935 
L 118.934923 228.829773 
L 119.341249 222.926905 
L 119.747575 214.835433 
L 120.153901 219.380653 
L 120.560228 213.013245 
L 120.966554 193.853563 
L 121.37288 207.510464 
L 121.779206 208.380663 
L 122.591858 218.714299 
L 122.998184 223.658772 
L 125.436141 244.302615 
L 126.248793 249.238043 
L 127.061445 252.162236 
L 127.874097 254.208206 
L 128.280423 254.540238 
L 128.686749 252.831908 
L 129.499402 252.76441 
L 129.905728 259.01124 
L 130.312054 251.937577 
L 131.124706 247.626914 
L 131.531032 242.424907 
L 131.937358 240.112448 
L 132.343684 242.305412 
L 132.75001 241.231118 
L 133.156336 235.346375 
L 133.562662 234.546841 
L 133.968989 231.199298 
L 134.375315 230.630952 
L 134.781641 229.310144 
L 135.187967 222.720144 
L 135.594293 223.934234 
L 136.406945 213.132998 
L 137.625923 204.135869 
L 138.032249 202.451102 
L 138.844902 211.569566 
L 139.251228 209.545609 
L 139.657554 215.653825 
L 140.06388 218.723787 
L 140.470206 223.15094 
L 140.876532 223.074209 
L 141.282858 229.364621 
L 141.689184 229.338408 
L 142.09551 235.265834 
L 142.501836 232.15891 
L 142.908162 235.921239 
L 143.314489 236.61725 
L 143.720815 235.561022 
L 144.127141 236.711476 
L 144.533467 236.973409 
L 144.939793 239.34258 
L 145.346119 238.202632 
L 145.752445 235.729288 
L 146.158771 226.619385 
L 146.565097 223.652129 
L 146.971423 216.326104 
L 147.377749 220.498713 
L 148.190402 216.286292 
L 148.596728 218.993792 
L 149.003054 225.737294 
L 149.40938 226.818893 
L 149.815706 235.30598 
L 150.628358 245.085374 
L 151.034684 248.267491 
L 151.44101 254.6454 
L 151.847336 258.038447 
L 152.253663 262.885942 
L 152.659989 262.781558 
L 153.066315 264.773767 
L 153.472641 268.937693 
L 153.878967 268.822406 
L 154.285293 270.069491 
L 154.691619 269.726591 
L 155.504271 267.637806 
L 155.910597 265.591935 
L 156.316923 262.046326 
L 157.129576 258.261647 
L 157.535902 258.011924 
L 157.942228 256.213511 
L 158.348554 253.674833 
L 158.75488 252.052688 
L 159.161206 251.047964 
L 159.973858 244.319885 
L 160.380184 244.165051 
L 160.78651 235.044615 
L 161.192837 235.722464 
L 162.005489 232.451445 
L 162.818141 221.150789 
L 163.224467 221.517601 
L 163.630793 231.393642 
L 164.037119 228.268342 
L 164.443445 234.42346 
L 164.849771 238.452823 
L 165.256097 238.556982 
L 165.662423 241.108204 
L 166.06875 240.996489 
L 166.475076 241.948244 
L 166.881402 241.509281 
L 167.287728 240.700276 
L 167.694054 241.388689 
L 168.10038 241.605007 
L 168.506706 241.289817 
L 168.913032 244.70795 
L 169.319358 246.185072 
L 170.13201 244.144005 
L 170.538337 246.319592 
L 170.944663 245.894659 
L 171.350989 242.464983 
L 171.757315 241.797388 
L 172.163641 241.673495 
L 172.569967 241.332159 
L 172.976293 238.745779 
L 173.382619 250.315727 
L 173.788945 251.131807 
L 176.226902 245.598325 
L 177.039554 244.317175 
L 177.44588 243.888014 
L 177.852206 239.618706 
L 178.258532 240.908383 
L 178.664858 236.878036 
L 179.071184 237.82569 
L 179.883837 240.432713 
L 180.290163 240.27527 
L 180.696489 236.647478 
L 181.102815 239.359975 
L 181.509141 240.361752 
L 181.915467 240.607841 
L 182.321793 241.28344 
L 183.134445 243.76606 
L 183.540771 244.756039 
L 183.947098 244.884913 
L 184.353424 243.567593 
L 185.166076 238.893076 
L 185.572402 241.489754 
L 185.978728 240.186838 
L 186.385054 241.460616 
L 186.79138 246.767826 
L 187.197706 248.677576 
L 187.604032 248.414123 
L 188.010358 249.708614 
L 188.416684 249.639758 
L 188.823011 250.77333 
L 189.229337 248.116216 
L 189.635663 253.615512 
L 190.041989 256.572993 
L 190.448315 254.832704 
L 190.854641 252.498585 
L 191.260967 254.933719 
L 191.667293 251.620021 
L 192.073619 254.559585 
L 192.479945 255.431464 
L 192.886271 259.489892 
L 193.292598 259.027968 
L 193.698924 257.735042 
L 194.10525 252.826314 
L 194.511576 249.589362 
L 194.917902 253.602141 
L 195.324228 261.806855 
L 195.730554 264.009504 
L 196.13688 256.834986 
L 196.543206 258.490398 
L 197.355858 253.422143 
L 197.762185 259.199141 
L 198.168511 259.542262 
L 198.574837 263.717235 
L 198.981163 266.714529 
L 199.793815 270.810306 
L 200.200141 272.85286 
L 200.606467 273.65353 
L 201.012793 274.958663 
L 201.419119 274.971882 
L 202.231772 276.256575 
L 202.638098 272.610991 
L 203.044424 272.89797 
L 203.45075 269.011097 
L 203.857076 268.265874 
L 204.263402 266.094624 
L 204.669728 261.980207 
L 205.076054 253.489712 
L 205.48238 257.24389 
L 205.888706 253.914889 
L 206.295032 252.013134 
L 206.701359 252.857498 
L 207.107685 252.031048 
L 207.514011 247.497629 
L 208.326663 250.341785 
L 208.732989 249.738666 
L 209.139315 249.48569 
L 209.545641 249.737565 
L 209.951967 234.532508 
L 210.358293 236.547324 
L 210.764619 230.09601 
L 211.170946 232.170565 
L 211.577272 231.542436 
L 211.983598 228.394786 
L 212.389924 227.595352 
L 212.79625 216.930468 
L 213.202576 209.72091 
L 213.608902 206.62073 
L 214.421554 204.48286 
L 214.82788 205.067274 
L 215.234206 206.106041 
L 215.640532 199.606892 
L 216.046859 202.221704 
L 216.453185 209.264254 
L 217.265837 200.922706 
L 217.672163 202.273794 
L 218.078489 213.336949 
L 218.484815 201.399358 
L 218.891141 210.495349 
L 219.297467 215.025494 
L 219.703793 216.025415 
L 220.516446 222.386063 
L 220.922772 220.164821 
L 221.735424 226.120586 
L 222.14175 218.908425 
L 222.548076 222.961619 
L 222.954402 222.561426 
L 223.360728 226.472518 
L 224.17338 219.332957 
L 224.986033 202.007595 
L 225.392359 199.670049 
L 225.798685 201.358041 
L 226.205011 201.772675 
L 227.017663 199.664862 
L 227.423989 199.832039 
L 227.830315 205.590125 
L 228.236641 198.74931 
L 228.642967 198.369311 
L 229.049293 199.967774 
L 229.45562 206.613224 
L 229.861946 207.949335 
L 230.268272 208.176586 
L 231.080924 207.098534 
L 231.48725 208.201705 
L 231.893576 207.865694 
L 232.299902 199.11847 
L 232.706228 199.177456 
L 233.112554 198.524134 
L 233.51888 197.339193 
L 233.925207 200.42649 
L 234.331533 195.079811 
L 234.737859 197.473657 
L 235.144185 197.198555 
L 235.550511 200.689119 
L 235.956837 198.188035 
L 236.363163 197.679747 
L 237.175815 199.244086 
L 237.582141 199.005933 
L 237.988467 201.187686 
L 238.394793 198.26654 
L 238.80112 199.196115 
L 239.207446 198.435167 
L 240.020098 194.255859 
L 240.426424 197.911349 
L 240.83275 197.19599 
L 241.239076 197.159012 
L 241.645402 200.719472 
L 242.051728 200.979062 
L 242.458054 200.163184 
L 242.86438 200.460695 
L 243.270707 198.243848 
L 243.677033 201.171993 
L 244.083359 197.987553 
L 244.489685 199.030993 
L 244.896011 198.752481 
L 245.302337 198.810389 
L 246.114989 201.398246 
L 246.521315 198.62038 
L 246.927641 203.381997 
L 247.333967 198.850684 
L 247.740294 198.090631 
L 248.14662 198.247833 
L 248.552946 201.090084 
L 248.959272 200.127809 
L 249.771924 201.664416 
L 250.17825 200.29438 
L 250.584576 197.488076 
L 250.990902 203.081336 
L 251.397228 198.03169 
L 251.803554 200.428246 
L 252.616207 200.649408 
L 253.022533 197.977508 
L 253.428859 200.579174 
L 253.835185 201.805935 
L 254.241511 200.030109 
L 254.647837 202.138839 
L 255.054163 200.835803 
L 255.460489 201.763785 
L 255.866815 197.456749 
L 256.273141 202.232522 
L 256.679468 197.42348 
L 257.085794 198.223546 
L 257.49212 202.82607 
L 257.898446 199.544778 
L 258.304772 200.598487 
L 258.711098 201.086045 
L 259.117424 198.856772 
L 259.52375 199.591765 
L 259.930076 199.899082 
L 260.336402 202.644687 
L 260.742728 200.71117 
L 261.149054 200.965426 
L 261.555381 201.812702 
L 261.961707 201.834756 
L 262.368033 202.122986 
L 262.774359 201.266734 
L 263.180685 201.243044 
L 263.587011 199.834633 
L 263.993337 200.956344 
L 264.399663 203.49961 
L 264.805989 200.515108 
L 265.212315 201.573381 
L 265.618641 202.052947 
L 266.024968 201.820655 
L 266.431294 200.757247 
L 266.83762 201.507358 
L 267.243946 204.297773 
L 267.650272 202.580809 
L 268.056598 203.396135 
L 268.462924 202.819315 
L 268.86925 201.502561 
L 269.275576 206.670339 
L 269.681902 205.624175 
L 270.088228 202.018866 
L 270.494555 201.185903 
L 270.900881 202.624416 
L 271.307207 202.27516 
L 271.713533 203.092124 
L 272.119859 203.578589 
L 272.932511 201.226087 
L 273.338837 202.43471 
L 273.745163 206.303511 
L 274.151489 207.387777 
L 274.557815 204.269335 
L 275.370468 204.39371 
L 275.776794 203.450094 
L 276.18312 205.141069 
L 276.589446 203.680491 
L 276.995772 204.09331 
L 277.402098 205.487076 
L 277.808424 202.509022 
L 278.21475 202.76159 
L 278.621076 206.526718 
L 279.027402 203.621477 
L 279.433729 203.465384 
L 279.840055 203.900102 
L 280.246381 203.529624 
L 280.652707 203.916644 
L 281.059033 204.132564 
L 281.465359 206.571414 
L 281.871685 206.018278 
L 282.278011 205.034698 
L 282.684337 205.967398 
L 283.090663 205.461717 
L 284.309642 205.995784 
L 284.715968 206.384153 
L 285.122294 202.1502 
L 285.52862 208.828998 
L 285.934946 205.345988 
L 286.341272 206.124338 
L 286.747598 209.084821 
L 287.153924 206.503192 
L 287.56025 206.337901 
L 288.372902 206.343069 
L 288.779229 206.474241 
L 289.185555 206.950285 
L 289.998207 207.262234 
L 290.404533 205.935221 
L 290.810859 209.355005 
L 291.217185 209.556548 
L 291.623511 206.136009 
L 292.029837 207.262863 
L 292.436163 207.372809 
L 293.248816 206.494067 
L 293.655142 207.002951 
L 294.061468 208.802223 
L 294.467794 208.64373 
L 294.87412 206.403623 
L 295.686772 207.403551 
L 296.093098 208.599691 
L 296.90575 209.110891 
L 297.312076 210.374112 
L 298.124729 210.184425 
L 298.531055 210.229582 
L 298.937381 208.4092 
L 299.750033 209.596781 
L 300.156359 207.770108 
L 300.562685 209.82203 
L 300.969011 210.81287 
L 301.375337 210.460646 
L 301.781663 210.29021 
L 302.18799 209.229185 
L 302.594316 210.133129 
L 303.000642 210.467831 
L 303.406968 212.031803 
L 303.813294 211.239888 
L 304.21962 211.136623 
L 304.625946 211.410476 
L 305.032272 211.43036 
L 305.438598 211.022081 
L 305.844924 210.980929 
L 306.25125 211.380671 
L 306.657577 212.398151 
L 308.282881 211.845842 
L 308.689207 211.292956 
L 309.095533 211.674434 
L 309.501859 213.922973 
L 309.908185 211.779198 
L 310.314511 210.472925 
L 310.720837 210.997973 
L 311.127163 211.314617 
L 311.53349 211.362775 
L 312.346142 213.203812 
L 312.752468 213.716746 
L 313.158794 212.694009 
L 313.56512 213.136109 
L 313.971446 214.019896 
L 314.784098 211.480668 
L 315.190424 213.723954 
L 315.59675 211.777509 
L 316.003077 212.426297 
L 316.409403 212.031634 
L 316.815729 211.993632 
L 317.222055 212.18681 
L 317.628381 213.292582 
L 318.034707 213.138972 
L 318.847359 214.31384 
L 319.253685 215.018466 
L 319.660011 214.480424 
L 320.066337 214.495324 
L 321.285316 214.975138 
L 322.097968 214.931214 
L 322.504294 215.716439 
L 323.316946 215.168126 
L 323.723272 215.990112 
L 324.129598 216.058514 
L 324.535924 215.166528 
L 324.942251 215.832349 
L 325.348577 216.256719 
L 325.754903 215.941383 
L 326.161229 216.361262 
L 326.567555 216.290972 
L 326.973881 216.616839 
L 327.380207 218.833044 
L 327.786533 216.686548 
L 328.192859 216.748244 
L 328.599185 212.877808 
L 329.005511 215.282081 
L 329.818164 215.636947 
L 330.22449 215.639468 
L 331.037142 216.173107 
L 331.443468 217.584984 
L 331.849794 216.972736 
L 332.25612 215.237353 
L 332.662446 218.474931 
L 333.068772 218.399152 
L 333.475098 218.915511 
L 333.881425 218.663085 
L 334.287751 218.797494 
L 335.100403 219.455926 
L 335.506729 219.637711 
L 335.913055 220.388821 
L 337.132033 219.211422 
L 337.538359 219.202781 
L 337.944685 218.90179 
L 338.351011 218.829714 
L 340.382642 219.141962 
L 341.195294 219.236775 
L 341.60162 219.071715 
L 342.007946 220.454349 
L 342.414272 219.386537 
L 343.226925 218.573356 
L 343.633251 220.693064 
L 344.039577 220.73959 
L 344.445903 221.15402 
L 344.852229 220.281893 
L 345.258555 220.816323 
L 345.664881 220.781325 
L 346.071207 220.18812 
L 346.477533 221.336598 
L 346.883859 220.245581 
L 347.290185 221.918867 
L 347.696512 219.935137 
L 348.509164 221.59355 
L 348.91549 221.931145 
L 349.321816 222.518021 
L 349.728142 222.353838 
L 350.134468 223.650591 
L 350.540794 223.141245 
L 351.353446 224.735067 
L 351.759772 223.751655 
L 352.166099 224.695457 
L 352.978751 225.256101 
L 353.385077 225.323521 
L 353.791403 225.653515 
L 354.197729 226.289546 
L 354.604055 222.669992 
L 355.010381 224.587893 
L 355.416707 225.619752 
L 355.823033 225.379225 
L 356.229359 222.752474 
L 356.635686 222.190267 
L 357.042012 224.186365 
L 357.448338 225.250273 
L 358.26099 225.478597 
L 358.667316 225.809307 
L 359.073642 226.643474 
L 359.479968 226.119239 
L 359.886294 226.318427 
L 360.29262 224.748172 
L 360.698946 226.17547 
L 361.105272 225.885351 
L 361.511599 226.83786 
L 361.917925 227.178984 
L 362.324251 227.275394 
L 363.136903 227.775068 
L 363.543229 226.761276 
L 363.949555 227.767621 
L 364.355881 228.091282 
L 364.762207 228.021464 
L 365.168533 229.044609 
L 365.574859 229.577216 
L 365.981186 228.8975 
L 366.387512 229.247525 
L 366.793838 227.193211 
L 367.200164 229.560182 
L 367.60649 228.120455 
L 368.012816 226.072729 
L 368.419142 229.714886 
L 368.825468 229.43492 
L 369.231794 230.150447 
L 369.63812 229.397258 
L 370.044446 229.59231 
L 370.450773 230.256979 
L 370.857099 230.208232 
L 371.263425 229.542037 
L 371.669751 230.979171 
L 372.482403 231.573919 
L 373.295055 231.323695 
L 373.701381 232.103051 
L 374.107707 233.122942 
L 374.514033 231.558169 
L 374.92036 233.069743 
L 375.326686 233.641955 
L 375.733012 232.721412 
L 376.139338 233.041796 
L 376.545664 231.973133 
L 376.95199 230.180321 
L 377.764642 234.216623 
L 378.170968 231.942444 
L 378.577294 232.774721 
L 378.98362 232.624436 
L 379.389947 235.40145 
L 379.796273 232.755999 
L 380.202599 232.90771 
L 380.608925 233.214983 
L 381.015251 233.738863 
L 381.421577 233.737075 
L 381.827903 233.531821 
L 382.234229 234.113554 
L 382.640555 234.09524 
L 383.046881 233.68894 
L 383.453207 233.632705 
L 383.859534 235.518632 
L 384.26586 234.134018 
L 384.672186 234.049112 
L 385.078512 233.073157 
L 385.484838 234.326889 
L 385.891164 233.209639 
L 386.29749 235.906555 
L 386.703816 236.155782 
L 387.110142 235.653056 
L 387.516468 235.443449 
L 388.32912 236.252335 
L 388.735447 236.171891 
L 389.141773 235.834632 
L 389.548099 236.711536 
L 389.954425 235.493351 
L 390.360751 236.977178 
L 390.767077 237.423502 
L 391.173403 237.252196 
L 391.579729 239.004284 
L 392.392381 236.813233 
L 392.798707 239.380347 
L 393.205034 237.937754 
L 393.61136 238.294754 
L 394.017686 238.263205 
L 394.424012 238.672767 
L 394.830338 237.621579 
L 395.236664 238.387156 
L 395.64299 237.965852 
L 396.049316 238.675464 
L 396.455642 240.555111 
L 396.861968 239.861873 
L 397.268294 239.654119 
L 397.674621 235.083006 
L 398.080947 234.951231 
L 398.487273 234.253298 
L 398.487273 234.253298 
" style="fill:none;stroke:#1f77b4;stroke-linecap:square;stroke-width:1.5;"/>
   </g>
   <g id="line2d_16">
    <path clip-path="url(#p2a8d46604e)" d="M 73.832727 147.531935 
L 74.645379 140.056736 
L 75.864358 128.618896 
L 77.489662 101.43179 
L 77.895988 98.996819 
L 78.302314 89.12905 
L 78.70864 85.519537 
L 79.114966 74.601583 
L 79.521293 73.832649 
L 79.927619 71.271778 
L 80.333945 65.859968 
L 80.740271 62.642804 
L 81.552923 59.626482 
L 81.959249 57.303828 
L 82.365575 56.968825 
L 82.771901 56.246808 
L 83.178227 53.568 
L 83.584553 57.603864 
L 83.99088 57.389323 
L 84.397206 57.55161 
L 84.803532 58.382876 
L 85.209858 59.58688 
L 85.616184 61.483607 
L 86.02251 60.206361 
L 86.428836 61.115317 
L 86.835162 67.015411 
L 87.241488 67.222553 
L 87.647814 69.634825 
L 88.05414 75.255859 
L 88.460466 76.239789 
L 88.866793 80.737031 
L 89.273119 83.482449 
L 89.679445 81.618956 
L 90.085771 88.470336 
L 90.492097 90.502053 
L 90.898423 89.047913 
L 91.304749 94.857341 
L 91.711075 93.26128 
L 92.117401 98.306266 
L 92.523727 96.592857 
L 92.930053 100.922478 
L 93.33638 98.983566 
L 93.742706 102.743566 
L 94.149032 103.381321 
L 94.555358 103.773235 
L 94.961684 103.9588 
L 95.36801 103.947381 
L 95.774336 103.758486 
L 96.180662 103.42319 
L 96.586988 102.943058 
L 96.993314 102.655191 
L 97.39964 101.964779 
L 97.805967 101.874923 
L 98.212293 102.842842 
L 98.618619 101.679566 
L 99.024945 100.960436 
L 99.431271 97.177847 
L 99.837597 100.914407 
L 100.243923 99.883259 
L 100.650249 93.07863 
L 101.462901 91.642163 
L 102.275554 90.47925 
L 102.68188 92.402838 
L 103.088206 92.928679 
L 103.494532 94.168617 
L 103.900858 92.345043 
L 104.307184 95.198179 
L 104.71351 95.05605 
L 105.119836 94.051413 
L 105.526162 96.316463 
L 105.932488 96.563576 
L 106.338814 97.76771 
L 106.745141 98.065243 
L 107.151467 98.562462 
L 107.557793 100.750322 
L 107.964119 102.249481 
L 108.370445 102.647353 
L 108.776771 99.772015 
L 109.183097 102.707712 
L 109.589423 104.263639 
L 109.995749 104.038715 
L 110.402075 104.855323 
L 110.808401 108.99683 
L 111.214728 105.710993 
L 111.621054 104.43368 
L 112.02738 105.925485 
L 112.840032 106.983564 
L 113.246358 104.686508 
L 113.652684 107.380556 
L 114.05901 106.125412 
L 114.465336 107.796954 
L 115.277988 108.182362 
L 116.903293 108.664287 
L 118.122271 108.901366 
L 118.528597 108.543414 
L 118.934923 111.275393 
L 119.747575 111.346792 
L 120.153901 114.392303 
L 120.560228 113.258114 
L 121.37288 113.380163 
L 121.779206 113.411249 
L 122.185532 113.310726 
L 122.591858 111.916981 
L 122.998184 109.458359 
L 123.40451 105.995414 
L 123.810836 108.100841 
L 124.217162 108.361546 
L 124.623488 107.71621 
L 125.029815 109.28721 
L 125.436141 109.610245 
L 125.842467 109.249943 
L 126.248793 109.878164 
L 126.655119 109.821419 
L 127.061445 110.129582 
L 127.874097 106.40465 
L 128.280423 103.743723 
L 129.093075 113.830587 
L 129.499402 110.478161 
L 129.905728 111.25505 
L 130.312054 114.268301 
L 130.71838 112.507548 
L 131.124706 114.328787 
L 131.531032 108.109079 
L 131.937358 113.005481 
L 132.75001 113.469133 
L 133.156336 113.855274 
L 133.562662 115.940542 
L 134.375315 108.133347 
L 134.781641 113.922597 
L 135.187967 116.4317 
L 135.594293 116.280231 
L 136.406945 117.797749 
L 137.219597 117.685305 
L 137.625923 117.472383 
L 138.032249 116.515472 
L 138.438575 117.365312 
L 139.251228 114.905036 
L 139.657554 115.780817 
L 140.470206 113.378623 
L 140.876532 113.070014 
L 141.282858 113.561366 
L 141.689184 111.27211 
L 142.09551 112.682904 
L 142.501836 112.455485 
L 142.908162 111.807086 
L 143.314489 111.907144 
L 143.720815 109.673581 
L 144.127141 110.598148 
L 144.533467 109.47664 
L 144.939793 109.512661 
L 145.346119 110.425567 
L 145.752445 110.771708 
L 146.158771 114.062345 
L 146.565097 111.201514 
L 146.971423 113.747565 
L 147.377749 112.185653 
L 147.784076 114.056797 
L 148.190402 112.65715 
L 148.596728 112.789672 
L 149.003054 112.773183 
L 149.40938 114.641652 
L 150.222032 115.14892 
L 150.628358 118.610277 
L 151.034684 116.063846 
L 151.847336 117.387333 
L 152.253663 117.754925 
L 152.659989 129.159191 
L 153.066315 119.143748 
L 153.472641 119.666878 
L 154.285293 117.542461 
L 154.691619 117.398311 
L 155.097945 115.437263 
L 155.504271 108.497811 
L 155.910597 111.352205 
L 156.316923 116.983514 
L 156.72325 115.532604 
L 157.129576 109.51079 
L 157.535902 113.913688 
L 157.942228 116.77774 
L 158.348554 114.352 
L 158.75488 114.634673 
L 159.161206 110.830196 
L 159.567532 112.754493 
L 159.973858 111.296924 
L 160.380184 120.166 
L 160.78651 123.271717 
L 161.192837 123.333555 
L 161.599163 111.230995 
L 162.005489 110.582727 
L 162.411815 113.91821 
L 162.818141 122.117985 
L 163.224467 122.798319 
L 163.630793 122.608147 
L 164.037119 121.060188 
L 164.443445 122.753695 
L 164.849771 117.44353 
L 165.256097 121.77121 
L 165.662423 120.537814 
L 166.06875 121.862274 
L 166.475076 121.861866 
L 166.881402 118.060835 
L 167.287728 121.104335 
L 167.694054 119.514575 
L 168.10038 116.870542 
L 168.506706 119.29584 
L 168.913032 116.094164 
L 169.319358 121.766557 
L 169.725684 118.579082 
L 170.13201 119.808399 
L 170.538337 119.345228 
L 170.944663 120.424382 
L 171.350989 118.393335 
L 171.757315 118.477125 
L 172.163641 119.249599 
L 172.569967 119.562878 
L 173.382619 120.434479 
L 173.788945 122.252133 
L 174.195271 122.375537 
L 174.601597 122.658026 
L 175.007924 122.76638 
L 175.41425 122.594963 
L 175.820576 124.935743 
L 176.226902 126.358257 
L 176.633228 124.444258 
L 177.039554 121.344567 
L 177.44588 121.509097 
L 177.852206 118.915989 
L 178.258532 126.223689 
L 178.664858 120.689428 
L 179.071184 120.023869 
L 179.883837 125.115592 
L 180.696489 120.628776 
L 181.102815 127.22121 
L 181.509141 129.603864 
L 182.321793 120.201885 
L 182.728119 124.080633 
L 183.134445 125.510679 
L 183.540771 125.302182 
L 183.947098 122.641046 
L 184.353424 123.526117 
L 184.75975 123.866515 
L 185.166076 127.109792 
L 185.572402 126.956152 
L 185.978728 127.768113 
L 186.385054 124.611523 
L 186.79138 124.83578 
L 187.197706 121.691946 
L 187.604032 126.775716 
L 188.010358 127.021485 
L 188.823011 127.047507 
L 189.229337 127.905329 
L 189.635663 126.927552 
L 190.041989 125.160283 
L 190.448315 126.514217 
L 190.854641 120.437186 
L 191.260967 124.007717 
L 191.667293 120.628337 
L 192.073619 126.712744 
L 192.479945 125.584772 
L 192.886271 121.729492 
L 193.292598 121.5096 
L 193.698924 124.506308 
L 194.10525 121.525506 
L 194.917902 126.199358 
L 195.324228 126.041264 
L 195.730554 125.51328 
L 196.13688 125.634459 
L 196.543206 123.713733 
L 196.949532 127.055075 
L 197.355858 126.666002 
L 197.762185 116.884495 
L 198.168511 126.575875 
L 198.574837 127.825588 
L 198.981163 127.649755 
L 199.387489 127.071201 
L 199.793815 127.8572 
L 200.200141 124.655695 
L 200.606467 126.298063 
L 201.012793 124.158925 
L 201.419119 123.958431 
L 201.825445 126.847073 
L 202.231772 127.784383 
L 202.638098 127.899239 
L 203.044424 128.583762 
L 203.45075 127.240138 
L 204.263402 127.367416 
L 204.669728 129.074501 
L 205.076054 129.21633 
L 205.48238 127.752828 
L 205.888706 130.873348 
L 206.295032 127.279561 
L 206.701359 129.130658 
L 207.107685 129.701744 
L 207.514011 133.863896 
L 207.920337 129.456992 
L 208.326663 129.594425 
L 209.139315 128.715023 
L 209.545641 122.374352 
L 209.951967 130.229822 
L 210.358293 125.913825 
L 210.764619 122.804215 
L 211.170946 131.352917 
L 211.577272 125.229718 
L 211.983598 129.765903 
L 212.389924 127.291982 
L 212.79625 126.078218 
L 213.202576 125.477089 
L 213.608902 129.165966 
L 214.015228 126.365535 
L 214.421554 130.202976 
L 214.82788 127.782382 
L 215.234206 128.524446 
L 215.640532 128.380806 
L 216.046859 129.186787 
L 216.453185 127.26305 
L 216.859511 127.172604 
L 217.265837 128.084155 
L 217.672163 129.816584 
L 218.078489 128.686533 
L 218.484815 128.623565 
L 218.891141 130.882331 
L 219.297467 127.754296 
L 219.703793 127.367656 
L 220.110119 130.857425 
L 220.516446 131.799372 
L 220.922772 128.80895 
L 221.329098 128.954023 
L 221.735424 129.346986 
L 222.14175 129.576758 
L 222.548076 129.543296 
L 222.954402 129.794899 
L 223.360728 133.578725 
L 223.767054 134.010719 
L 224.17338 133.961031 
L 224.579706 129.657306 
L 224.986033 130.187977 
L 225.392359 131.379085 
L 225.798685 130.025191 
L 226.611337 130.265063 
L 227.017663 132.131598 
L 227.423989 130.648747 
L 227.830315 130.5114 
L 228.642967 131.729183 
L 229.049293 133.363582 
L 229.45562 131.057205 
L 229.861946 126.167496 
L 230.268272 125.613612 
L 230.674598 128.667925 
L 231.080924 130.359682 
L 231.48725 130.622384 
L 231.893576 134.884277 
L 232.299902 132.791882 
L 232.706228 132.697094 
L 233.112554 122.823864 
L 233.51888 122.412495 
L 233.925207 122.31007 
L 234.331533 121.440791 
L 234.737859 122.315106 
L 235.144185 133.492415 
L 235.550511 133.881519 
L 235.956837 130.488945 
L 236.363163 128.244127 
L 236.769489 133.700891 
L 237.175815 133.704651 
L 237.582141 134.499063 
L 237.988467 134.728909 
L 238.394793 131.001167 
L 238.80112 133.433334 
L 239.207446 127.975472 
L 239.613772 135.338316 
L 240.020098 129.97853 
L 240.426424 130.065711 
L 240.83275 130.558922 
L 241.239076 134.230302 
L 241.645402 132.416158 
L 242.051728 132.635703 
L 242.458054 130.501295 
L 243.270707 131.718595 
L 243.677033 133.996434 
L 244.083359 132.274712 
L 244.489685 131.877545 
L 244.896011 134.550055 
L 245.302337 135.8281 
L 245.708663 136.518267 
L 246.114989 131.924565 
L 246.521315 140.891288 
L 246.927641 131.759691 
L 247.333967 136.997406 
L 247.740294 134.320502 
L 248.14662 137.010649 
L 248.552946 136.137752 
L 248.959272 140.777401 
L 249.365598 130.325719 
L 249.771924 137.800364 
L 250.17825 137.393541 
L 250.584576 138.783298 
L 250.990902 136.372811 
L 251.803554 134.746478 
L 252.209881 130.638011 
L 252.616207 131.641899 
L 253.022533 135.669119 
L 253.428859 133.302814 
L 253.835185 133.034999 
L 254.241511 133.915887 
L 254.647837 142.532091 
L 255.054163 137.893547 
L 255.460489 131.190139 
L 255.866815 136.268041 
L 256.273141 134.451252 
L 257.49212 134.710042 
L 257.898446 133.397689 
L 258.304772 134.059053 
L 258.711098 131.923939 
L 259.117424 142.535236 
L 259.52375 142.114586 
L 259.930076 133.295635 
L 260.336402 136.250828 
L 260.742728 134.270185 
L 261.149054 140.674387 
L 261.555381 140.253948 
L 261.961707 135.254617 
L 262.368033 136.432917 
L 262.774359 130.85775 
L 263.180685 138.628769 
L 263.587011 138.387934 
L 263.993337 132.433387 
L 264.399663 138.78775 
L 264.805989 139.776943 
L 265.212315 141.806915 
L 265.618641 137.835148 
L 266.024968 137.218914 
L 266.431294 140.433439 
L 266.83762 139.874241 
L 267.650272 136.449224 
L 268.056598 140.814993 
L 268.462924 138.859064 
L 268.86925 139.15406 
L 269.275576 132.310974 
L 269.681902 137.508883 
L 270.088228 140.915504 
L 270.494555 131.249043 
L 270.900881 127.520738 
L 271.713533 145.288922 
L 272.526185 136.512842 
L 272.932511 140.199307 
L 273.338837 140.556405 
L 273.745163 139.175042 
L 274.151489 138.885795 
L 274.557815 139.024723 
L 274.964142 138.790934 
L 275.370468 139.840436 
L 275.776794 140.40711 
L 276.18312 141.276477 
L 276.589446 141.469378 
L 276.995772 141.177029 
L 277.402098 141.430379 
L 277.808424 140.773078 
L 278.21475 142.433687 
L 278.621076 142.449531 
L 279.027402 140.162567 
L 279.433729 138.713217 
L 279.840055 135.996277 
L 280.246381 136.952327 
L 280.652707 137.54166 
L 281.059033 138.465747 
L 281.465359 137.661634 
L 281.871685 138.73543 
L 282.278011 139.484261 
L 282.684337 139.405529 
L 283.090663 138.396826 
L 283.496989 138.331982 
L 283.903316 140.591087 
L 284.309642 135.209704 
L 284.715968 135.124867 
L 285.122294 136.415878 
L 285.52862 139.617823 
L 285.934946 136.579817 
L 286.747598 140.223263 
L 287.153924 134.086156 
L 287.56025 139.923681 
L 287.966576 133.878236 
L 288.372902 140.86159 
L 288.779229 133.083639 
L 289.185555 132.799909 
L 289.591881 139.368348 
L 289.998207 139.426084 
L 290.404533 145.987566 
L 290.810859 141.552936 
L 291.217185 141.382879 
L 291.623511 146.572168 
L 292.436163 146.984644 
L 292.842489 147.127947 
L 293.248816 143.299412 
L 293.655142 140.716906 
L 294.061468 147.241073 
L 294.87412 147.314061 
L 295.280446 140.935821 
L 295.686772 147.189734 
L 296.093098 146.281352 
L 296.90575 146.169982 
L 297.718403 145.896232 
L 298.124729 145.301564 
L 298.531055 146.940976 
L 298.937381 144.002151 
L 299.343707 149.72789 
L 299.750033 141.737105 
L 300.156359 141.47095 
L 300.562685 142.396938 
L 301.375337 142.109151 
L 301.781663 137.870507 
L 302.18799 143.218987 
L 303.813294 143.358789 
L 304.21962 138.698428 
L 304.625946 143.373589 
L 305.032272 143.356325 
L 305.438598 142.850419 
L 305.844924 142.603374 
L 307.063903 142.880355 
L 307.470229 133.392931 
L 307.876555 133.10509 
L 308.282881 135.131063 
L 308.689207 140.260732 
L 309.095533 140.559284 
L 309.501859 141.487549 
L 309.908185 140.935169 
L 310.720837 141.169178 
L 311.127163 141.895903 
L 313.158794 142.297099 
L 313.56512 143.740583 
L 313.971446 141.29758 
L 314.377772 138.107445 
L 314.784098 137.831652 
L 315.190424 143.863821 
L 315.59675 144.240267 
L 316.003077 146.550501 
L 316.409403 145.789168 
L 316.815729 145.883177 
L 317.222055 146.228825 
L 317.628381 146.104041 
L 318.034707 144.730661 
L 318.441033 141.756365 
L 318.847359 143.9936 
L 319.253685 148.414874 
L 319.660011 148.512488 
L 320.472664 148.509738 
L 320.87899 146.498763 
L 321.285316 142.591669 
L 321.691642 146.211891 
L 322.097968 146.006271 
L 322.504294 147.447111 
L 322.91062 146.28119 
L 323.316946 147.756704 
L 323.723272 143.725619 
L 324.129598 147.825809 
L 326.161229 148.810956 
L 326.973881 148.893136 
L 327.786533 144.149859 
L 328.192859 146.307661 
L 328.599185 144.250589 
L 329.005511 144.300476 
L 329.411838 144.868483 
L 330.22449 145.190746 
L 332.25612 145.683096 
L 332.662446 146.483205 
L 333.068772 146.537076 
L 333.475098 143.135053 
L 334.287751 141.778908 
L 334.694077 140.604642 
L 335.100403 141.977934 
L 335.506729 141.85949 
L 335.913055 141.974656 
L 336.319381 145.160476 
L 336.725707 145.18191 
L 337.132033 141.069387 
L 337.944685 146.491605 
L 338.351011 146.535107 
L 338.757338 143.949642 
L 339.163664 143.593711 
L 339.56999 144.193675 
L 339.976316 149.100626 
L 340.382642 149.271514 
L 340.788968 147.615899 
L 341.195294 142.223081 
L 342.007946 147.646838 
L 342.414272 146.877802 
L 342.820598 148.557994 
L 343.226925 148.780099 
L 343.633251 148.595414 
L 344.039577 144.518762 
L 344.445903 149.214082 
L 344.852229 147.291252 
L 345.258555 144.450465 
L 345.664881 145.829518 
L 346.071207 144.655617 
L 346.477533 149.858325 
L 346.883859 150.470286 
L 347.290185 147.555418 
L 347.696512 152.116966 
L 348.102838 147.831991 
L 348.509164 152.673694 
L 348.91549 153.066152 
L 349.321816 152.301557 
L 349.728142 149.971128 
L 350.134468 148.342101 
L 350.540794 152.759406 
L 350.94712 150.886458 
L 351.353446 149.968022 
L 351.759772 152.749918 
L 352.166099 148.746893 
L 352.572425 147.77318 
L 352.978751 152.22334 
L 353.385077 143.216988 
L 353.791403 146.55454 
L 354.197729 147.790485 
L 354.604055 146.997716 
L 355.010381 149.590074 
L 355.416707 150.355413 
L 355.823033 150.286556 
L 356.229359 151.742106 
L 357.042012 151.629616 
L 357.448338 146.788055 
L 357.854664 148.682789 
L 358.26099 147.956126 
L 358.667316 148.976216 
L 359.073642 148.090285 
L 359.479968 148.13659 
L 359.886294 146.209214 
L 360.29262 147.548763 
L 360.698946 150.012769 
L 361.105272 150.302241 
L 361.511599 146.916558 
L 361.917925 150.451148 
L 362.730577 151.236279 
L 363.136903 152.747083 
L 363.543229 146.047862 
L 363.949555 148.237272 
L 364.355881 147.372232 
L 364.762207 146.929615 
L 365.168533 141.379105 
L 365.574859 147.218383 
L 365.981186 148.319308 
L 366.387512 147.248199 
L 366.793838 147.27421 
L 367.200164 148.743535 
L 367.60649 149.124805 
L 368.012816 151.261613 
L 368.419142 151.261859 
L 368.825468 151.484793 
L 369.231794 149.818311 
L 369.63812 153.780808 
L 370.044446 149.829177 
L 370.450773 153.055213 
L 370.857099 153.470563 
L 372.076077 146.502162 
L 372.888729 155.675947 
L 373.295055 156.988124 
L 374.107707 156.729214 
L 374.514033 154.735755 
L 374.92036 156.777809 
L 375.326686 154.982891 
L 375.733012 154.562756 
L 376.139338 158.144828 
L 376.545664 157.672729 
L 376.95199 157.872898 
L 377.764642 146.940754 
L 378.170968 149.413279 
L 378.577294 149.186012 
L 378.98362 150.089766 
L 379.389947 147.539446 
L 379.796273 149.058906 
L 380.202599 151.643815 
L 380.608925 151.741765 
L 381.015251 150.296777 
L 381.421577 145.269982 
L 381.827903 151.223832 
L 382.234229 151.958638 
L 382.640555 152.237304 
L 383.453207 154.041535 
L 383.859534 155.93693 
L 384.26586 152.793758 
L 384.672186 151.180854 
L 385.078512 152.152172 
L 385.484838 150.215564 
L 385.891164 150.222376 
L 386.29749 151.978146 
L 386.703816 152.820068 
L 387.110142 154.381454 
L 387.516468 149.932823 
L 387.922794 154.262771 
L 388.32912 154.632717 
L 388.735447 154.819432 
L 389.141773 150.846641 
L 389.548099 152.26306 
L 390.360751 151.691756 
L 390.767077 149.007166 
L 391.173403 148.988425 
L 391.579729 150.85978 
L 391.986055 153.334002 
L 392.392381 152.914714 
L 392.798707 152.844564 
L 393.205034 153.236883 
L 393.61136 149.740072 
L 394.017686 153.915172 
L 394.424012 152.73251 
L 394.830338 153.466138 
L 395.236664 149.267564 
L 395.64299 149.397602 
L 396.049316 153.170818 
L 396.455642 150.770193 
L 396.861968 150.62356 
L 397.268294 154.028679 
L 397.674621 152.016137 
L 398.080947 151.827158 
L 398.487273 154.15703 
L 398.487273 154.15703 
" style="fill:none;stroke:#ff7f0e;stroke-linecap:square;stroke-width:1.5;"/>
   </g>
   <g id="patch_3">
    <path d="M 57.6 307.584 
L 57.6 41.472 
" style="fill:none;stroke:#000000;stroke-linecap:square;stroke-linejoin:miter;stroke-width:0.8;"/>
   </g>
   <g id="patch_4">
    <path d="M 414.72 307.584 
L 414.72 41.472 
" style="fill:none;stroke:#000000;stroke-linecap:square;stroke-linejoin:miter;stroke-width:0.8;"/>
   </g>
   <g id="patch_5">
    <path d="M 57.6 307.584 
L 414.72 307.584 
" style="fill:none;stroke:#000000;stroke-linecap:square;stroke-linejoin:miter;stroke-width:0.8;"/>
   </g>
   <g id="patch_6">
    <path d="M 57.6 41.472 
L 414.72 41.472 
" style="fill:none;stroke:#000000;stroke-linecap:square;stroke-linejoin:miter;stroke-width:0.8;"/>
   </g>
  </g>
 </g>
 <defs>
  <clipPath id="p2a8d46604e">
   <rect height="266.112" width="357.12" x="57.6" y="41.472"/>
  </clipPath>
 </defs>
</svg>
