<?xml version="1.0" encoding="utf-8" standalone="no"?>
<!DOCTYPE svg PUBLIC "-//W3C//DTD SVG 1.1//EN"
  "http://www.w3.org/Graphics/SVG/1.1/DTD/svg11.dtd">
<!-- Created with matplotlib (https://matplotlib.org/) -->
<svg height="345.6pt" version="1.1" viewBox="0 0 460.8 345.6" width="460.8pt" xmlns="http://www.w3.org/2000/svg" xmlns:xlink="http://www.w3.org/1999/xlink">
 <defs>
  <style type="text/css">
*{stroke-linecap:butt;stroke-linejoin:round;}
  </style>
 </defs>
 <g id="figure_1">
  <g id="patch_1">
   <path d="M 0 345.6 
L 460.8 345.6 
L 460.8 0 
L 0 0 
z
" style="fill:#ffffff;"/>
  </g>
  <g id="axes_1">
   <g id="patch_2">
    <path d="M 57.6 307.584 
L 414.72 307.584 
L 414.72 41.472 
L 57.6 41.472 
z
" style="fill:#ffffff;"/>
   </g>
   <g id="matplotlib.axis_1">
    <g id="xtick_1">
     <g id="line2d_1">
      <defs>
       <path d="M 0 0 
L 0 3.5 
" id="m4dc2ac5b7b" style="stroke:#000000;stroke-width:0.8;"/>
      </defs>
      <g>
       <use style="stroke:#000000;stroke-width:0.8;" x="73.832727" xlink:href="#m4dc2ac5b7b" y="307.584"/>
      </g>
     </g>
     <g id="text_1">
      <!-- 0 -->
      <defs>
       <path d="M 31.78125 66.40625 
Q 24.171875 66.40625 20.328125 58.90625 
Q 16.5 51.421875 16.5 36.375 
Q 16.5 21.390625 20.328125 13.890625 
Q 24.171875 6.390625 31.78125 6.390625 
Q 39.453125 6.390625 43.28125 13.890625 
Q 47.125 21.390625 47.125 36.375 
Q 47.125 51.421875 43.28125 58.90625 
Q 39.453125 66.40625 31.78125 66.40625 
z
M 31.78125 74.21875 
Q 44.046875 74.21875 50.515625 64.515625 
Q 56.984375 54.828125 56.984375 36.375 
Q 56.984375 17.96875 50.515625 8.265625 
Q 44.046875 -1.421875 31.78125 -1.421875 
Q 19.53125 -1.421875 13.0625 8.265625 
Q 6.59375 17.96875 6.59375 36.375 
Q 6.59375 54.828125 13.0625 64.515625 
Q 19.53125 74.21875 31.78125 74.21875 
z
" id="DejaVuSans-48"/>
      </defs>
      <g transform="translate(70.651477 322.182437)scale(0.1 -0.1)">
       <use xlink:href="#DejaVuSans-48"/>
      </g>
     </g>
    </g>
    <g id="xtick_2">
     <g id="line2d_2">
      <g>
       <use style="stroke:#000000;stroke-width:0.8;" x="114.465336" xlink:href="#m4dc2ac5b7b" y="307.584"/>
      </g>
     </g>
     <g id="text_2">
      <!-- 100 -->
      <defs>
       <path d="M 12.40625 8.296875 
L 28.515625 8.296875 
L 28.515625 63.921875 
L 10.984375 60.40625 
L 10.984375 69.390625 
L 28.421875 72.90625 
L 38.28125 72.90625 
L 38.28125 8.296875 
L 54.390625 8.296875 
L 54.390625 0 
L 12.40625 0 
z
" id="DejaVuSans-49"/>
      </defs>
      <g transform="translate(104.921586 322.182437)scale(0.1 -0.1)">
       <use xlink:href="#DejaVuSans-49"/>
       <use x="63.623047" xlink:href="#DejaVuSans-48"/>
       <use x="127.246094" xlink:href="#DejaVuSans-48"/>
      </g>
     </g>
    </g>
    <g id="xtick_3">
     <g id="line2d_3">
      <g>
       <use style="stroke:#000000;stroke-width:0.8;" x="155.097945" xlink:href="#m4dc2ac5b7b" y="307.584"/>
      </g>
     </g>
     <g id="text_3">
      <!-- 200 -->
      <defs>
       <path d="M 19.1875 8.296875 
L 53.609375 8.296875 
L 53.609375 0 
L 7.328125 0 
L 7.328125 8.296875 
Q 12.9375 14.109375 22.625 23.890625 
Q 32.328125 33.6875 34.8125 36.53125 
Q 39.546875 41.84375 41.421875 45.53125 
Q 43.3125 49.21875 43.3125 52.78125 
Q 43.3125 58.59375 39.234375 62.25 
Q 35.15625 65.921875 28.609375 65.921875 
Q 23.96875 65.921875 18.8125 64.3125 
Q 13.671875 62.703125 7.8125 59.421875 
L 7.8125 69.390625 
Q 13.765625 71.78125 18.9375 73 
Q 24.125 74.21875 28.421875 74.21875 
Q 39.75 74.21875 46.484375 68.546875 
Q 53.21875 62.890625 53.21875 53.421875 
Q 53.21875 48.921875 51.53125 44.890625 
Q 49.859375 40.875 45.40625 35.40625 
Q 44.1875 33.984375 37.640625 27.21875 
Q 31.109375 20.453125 19.1875 8.296875 
z
" id="DejaVuSans-50"/>
      </defs>
      <g transform="translate(145.554195 322.182437)scale(0.1 -0.1)">
       <use xlink:href="#DejaVuSans-50"/>
       <use x="63.623047" xlink:href="#DejaVuSans-48"/>
       <use x="127.246094" xlink:href="#DejaVuSans-48"/>
      </g>
     </g>
    </g>
    <g id="xtick_4">
     <g id="line2d_4">
      <g>
       <use style="stroke:#000000;stroke-width:0.8;" x="195.730554" xlink:href="#m4dc2ac5b7b" y="307.584"/>
      </g>
     </g>
     <g id="text_4">
      <!-- 300 -->
      <defs>
       <path d="M 40.578125 39.3125 
Q 47.65625 37.796875 51.625 33 
Q 55.609375 28.21875 55.609375 21.1875 
Q 55.609375 10.40625 48.1875 4.484375 
Q 40.765625 -1.421875 27.09375 -1.421875 
Q 22.515625 -1.421875 17.65625 -0.515625 
Q 12.796875 0.390625 7.625 2.203125 
L 7.625 11.71875 
Q 11.71875 9.328125 16.59375 8.109375 
Q 21.484375 6.890625 26.8125 6.890625 
Q 36.078125 6.890625 40.9375 10.546875 
Q 45.796875 14.203125 45.796875 21.1875 
Q 45.796875 27.640625 41.28125 31.265625 
Q 36.765625 34.90625 28.71875 34.90625 
L 20.21875 34.90625 
L 20.21875 43.015625 
L 29.109375 43.015625 
Q 36.375 43.015625 40.234375 45.921875 
Q 44.09375 48.828125 44.09375 54.296875 
Q 44.09375 59.90625 40.109375 62.90625 
Q 36.140625 65.921875 28.71875 65.921875 
Q 24.65625 65.921875 20.015625 65.03125 
Q 15.375 64.15625 9.8125 62.3125 
L 9.8125 71.09375 
Q 15.4375 72.65625 20.34375 73.4375 
Q 25.25 74.21875 29.59375 74.21875 
Q 40.828125 74.21875 47.359375 69.109375 
Q 53.90625 64.015625 53.90625 55.328125 
Q 53.90625 49.265625 50.4375 45.09375 
Q 46.96875 40.921875 40.578125 39.3125 
z
" id="DejaVuSans-51"/>
      </defs>
      <g transform="translate(186.186804 322.182437)scale(0.1 -0.1)">
       <use xlink:href="#DejaVuSans-51"/>
       <use x="63.623047" xlink:href="#DejaVuSans-48"/>
       <use x="127.246094" xlink:href="#DejaVuSans-48"/>
      </g>
     </g>
    </g>
    <g id="xtick_5">
     <g id="line2d_5">
      <g>
       <use style="stroke:#000000;stroke-width:0.8;" x="236.363163" xlink:href="#m4dc2ac5b7b" y="307.584"/>
      </g>
     </g>
     <g id="text_5">
      <!-- 400 -->
      <defs>
       <path d="M 37.796875 64.3125 
L 12.890625 25.390625 
L 37.796875 25.390625 
z
M 35.203125 72.90625 
L 47.609375 72.90625 
L 47.609375 25.390625 
L 58.015625 25.390625 
L 58.015625 17.1875 
L 47.609375 17.1875 
L 47.609375 0 
L 37.796875 0 
L 37.796875 17.1875 
L 4.890625 17.1875 
L 4.890625 26.703125 
z
" id="DejaVuSans-52"/>
      </defs>
      <g transform="translate(226.819413 322.182437)scale(0.1 -0.1)">
       <use xlink:href="#DejaVuSans-52"/>
       <use x="63.623047" xlink:href="#DejaVuSans-48"/>
       <use x="127.246094" xlink:href="#DejaVuSans-48"/>
      </g>
     </g>
    </g>
    <g id="xtick_6">
     <g id="line2d_6">
      <g>
       <use style="stroke:#000000;stroke-width:0.8;" x="276.995772" xlink:href="#m4dc2ac5b7b" y="307.584"/>
      </g>
     </g>
     <g id="text_6">
      <!-- 500 -->
      <defs>
       <path d="M 10.796875 72.90625 
L 49.515625 72.90625 
L 49.515625 64.59375 
L 19.828125 64.59375 
L 19.828125 46.734375 
Q 21.96875 47.46875 24.109375 47.828125 
Q 26.265625 48.1875 28.421875 48.1875 
Q 40.625 48.1875 47.75 41.5 
Q 54.890625 34.8125 54.890625 23.390625 
Q 54.890625 11.625 47.5625 5.09375 
Q 40.234375 -1.421875 26.90625 -1.421875 
Q 22.3125 -1.421875 17.546875 -0.640625 
Q 12.796875 0.140625 7.71875 1.703125 
L 7.71875 11.625 
Q 12.109375 9.234375 16.796875 8.0625 
Q 21.484375 6.890625 26.703125 6.890625 
Q 35.15625 6.890625 40.078125 11.328125 
Q 45.015625 15.765625 45.015625 23.390625 
Q 45.015625 31 40.078125 35.4375 
Q 35.15625 39.890625 26.703125 39.890625 
Q 22.75 39.890625 18.8125 39.015625 
Q 14.890625 38.140625 10.796875 36.28125 
z
" id="DejaVuSans-53"/>
      </defs>
      <g transform="translate(267.452022 322.182437)scale(0.1 -0.1)">
       <use xlink:href="#DejaVuSans-53"/>
       <use x="63.623047" xlink:href="#DejaVuSans-48"/>
       <use x="127.246094" xlink:href="#DejaVuSans-48"/>
      </g>
     </g>
    </g>
    <g id="xtick_7">
     <g id="line2d_7">
      <g>
       <use style="stroke:#000000;stroke-width:0.8;" x="317.628381" xlink:href="#m4dc2ac5b7b" y="307.584"/>
      </g>
     </g>
     <g id="text_7">
      <!-- 600 -->
      <defs>
       <path d="M 33.015625 40.375 
Q 26.375 40.375 22.484375 35.828125 
Q 18.609375 31.296875 18.609375 23.390625 
Q 18.609375 15.53125 22.484375 10.953125 
Q 26.375 6.390625 33.015625 6.390625 
Q 39.65625 6.390625 43.53125 10.953125 
Q 47.40625 15.53125 47.40625 23.390625 
Q 47.40625 31.296875 43.53125 35.828125 
Q 39.65625 40.375 33.015625 40.375 
z
M 52.59375 71.296875 
L 52.59375 62.3125 
Q 48.875 64.0625 45.09375 64.984375 
Q 41.3125 65.921875 37.59375 65.921875 
Q 27.828125 65.921875 22.671875 59.328125 
Q 17.53125 52.734375 16.796875 39.40625 
Q 19.671875 43.65625 24.015625 45.921875 
Q 28.375 48.1875 33.59375 48.1875 
Q 44.578125 48.1875 50.953125 41.515625 
Q 57.328125 34.859375 57.328125 23.390625 
Q 57.328125 12.15625 50.6875 5.359375 
Q 44.046875 -1.421875 33.015625 -1.421875 
Q 20.359375 -1.421875 13.671875 8.265625 
Q 6.984375 17.96875 6.984375 36.375 
Q 6.984375 53.65625 15.1875 63.9375 
Q 23.390625 74.21875 37.203125 74.21875 
Q 40.921875 74.21875 44.703125 73.484375 
Q 48.484375 72.75 52.59375 71.296875 
z
" id="DejaVuSans-54"/>
      </defs>
      <g transform="translate(308.084631 322.182437)scale(0.1 -0.1)">
       <use xlink:href="#DejaVuSans-54"/>
       <use x="63.623047" xlink:href="#DejaVuSans-48"/>
       <use x="127.246094" xlink:href="#DejaVuSans-48"/>
      </g>
     </g>
    </g>
    <g id="xtick_8">
     <g id="line2d_8">
      <g>
       <use style="stroke:#000000;stroke-width:0.8;" x="358.26099" xlink:href="#m4dc2ac5b7b" y="307.584"/>
      </g>
     </g>
     <g id="text_8">
      <!-- 700 -->
      <defs>
       <path d="M 8.203125 72.90625 
L 55.078125 72.90625 
L 55.078125 68.703125 
L 28.609375 0 
L 18.3125 0 
L 43.21875 64.59375 
L 8.203125 64.59375 
z
" id="DejaVuSans-55"/>
      </defs>
      <g transform="translate(348.71724 322.182437)scale(0.1 -0.1)">
       <use xlink:href="#DejaVuSans-55"/>
       <use x="63.623047" xlink:href="#DejaVuSans-48"/>
       <use x="127.246094" xlink:href="#DejaVuSans-48"/>
      </g>
     </g>
    </g>
    <g id="xtick_9">
     <g id="line2d_9">
      <g>
       <use style="stroke:#000000;stroke-width:0.8;" x="398.893599" xlink:href="#m4dc2ac5b7b" y="307.584"/>
      </g>
     </g>
     <g id="text_9">
      <!-- 800 -->
      <defs>
       <path d="M 31.78125 34.625 
Q 24.75 34.625 20.71875 30.859375 
Q 16.703125 27.09375 16.703125 20.515625 
Q 16.703125 13.921875 20.71875 10.15625 
Q 24.75 6.390625 31.78125 6.390625 
Q 38.8125 6.390625 42.859375 10.171875 
Q 46.921875 13.96875 46.921875 20.515625 
Q 46.921875 27.09375 42.890625 30.859375 
Q 38.875 34.625 31.78125 34.625 
z
M 21.921875 38.8125 
Q 15.578125 40.375 12.03125 44.71875 
Q 8.5 49.078125 8.5 55.328125 
Q 8.5 64.0625 14.71875 69.140625 
Q 20.953125 74.21875 31.78125 74.21875 
Q 42.671875 74.21875 48.875 69.140625 
Q 55.078125 64.0625 55.078125 55.328125 
Q 55.078125 49.078125 51.53125 44.71875 
Q 48 40.375 41.703125 38.8125 
Q 48.828125 37.15625 52.796875 32.3125 
Q 56.78125 27.484375 56.78125 20.515625 
Q 56.78125 9.90625 50.3125 4.234375 
Q 43.84375 -1.421875 31.78125 -1.421875 
Q 19.734375 -1.421875 13.25 4.234375 
Q 6.78125 9.90625 6.78125 20.515625 
Q 6.78125 27.484375 10.78125 32.3125 
Q 14.796875 37.15625 21.921875 38.8125 
z
M 18.3125 54.390625 
Q 18.3125 48.734375 21.84375 45.5625 
Q 25.390625 42.390625 31.78125 42.390625 
Q 38.140625 42.390625 41.71875 45.5625 
Q 45.3125 48.734375 45.3125 54.390625 
Q 45.3125 60.0625 41.71875 63.234375 
Q 38.140625 66.40625 31.78125 66.40625 
Q 25.390625 66.40625 21.84375 63.234375 
Q 18.3125 60.0625 18.3125 54.390625 
z
" id="DejaVuSans-56"/>
      </defs>
      <g transform="translate(389.349849 322.182437)scale(0.1 -0.1)">
       <use xlink:href="#DejaVuSans-56"/>
       <use x="63.623047" xlink:href="#DejaVuSans-48"/>
       <use x="127.246094" xlink:href="#DejaVuSans-48"/>
      </g>
     </g>
    </g>
   </g>
   <g id="matplotlib.axis_2">
    <g id="ytick_1">
     <g id="line2d_10">
      <defs>
       <path d="M 0 0 
L -3.5 0 
" id="maf74507d1f" style="stroke:#000000;stroke-width:0.8;"/>
      </defs>
      <g>
       <use style="stroke:#000000;stroke-width:0.8;" x="57.6" xlink:href="#maf74507d1f" y="294.453301"/>
      </g>
     </g>
     <g id="text_10">
      <!-- 0.01 -->
      <defs>
       <path d="M 10.6875 12.40625 
L 21 12.40625 
L 21 0 
L 10.6875 0 
z
" id="DejaVuSans-46"/>
      </defs>
      <g transform="translate(28.334375 298.25252)scale(0.1 -0.1)">
       <use xlink:href="#DejaVuSans-48"/>
       <use x="63.623047" xlink:href="#DejaVuSans-46"/>
       <use x="95.410156" xlink:href="#DejaVuSans-48"/>
       <use x="159.033203" xlink:href="#DejaVuSans-49"/>
      </g>
     </g>
    </g>
    <g id="ytick_2">
     <g id="line2d_11">
      <g>
       <use style="stroke:#000000;stroke-width:0.8;" x="57.6" xlink:href="#maf74507d1f" y="235.54149"/>
      </g>
     </g>
     <g id="text_11">
      <!-- 0.02 -->
      <g transform="translate(28.334375 239.340708)scale(0.1 -0.1)">
       <use xlink:href="#DejaVuSans-48"/>
       <use x="63.623047" xlink:href="#DejaVuSans-46"/>
       <use x="95.410156" xlink:href="#DejaVuSans-48"/>
       <use x="159.033203" xlink:href="#DejaVuSans-50"/>
      </g>
     </g>
    </g>
    <g id="ytick_3">
     <g id="line2d_12">
      <g>
       <use style="stroke:#000000;stroke-width:0.8;" x="57.6" xlink:href="#maf74507d1f" y="176.629678"/>
      </g>
     </g>
     <g id="text_12">
      <!-- 0.03 -->
      <g transform="translate(28.334375 180.428896)scale(0.1 -0.1)">
       <use xlink:href="#DejaVuSans-48"/>
       <use x="63.623047" xlink:href="#DejaVuSans-46"/>
       <use x="95.410156" xlink:href="#DejaVuSans-48"/>
       <use x="159.033203" xlink:href="#DejaVuSans-51"/>
      </g>
     </g>
    </g>
    <g id="ytick_4">
     <g id="line2d_13">
      <g>
       <use style="stroke:#000000;stroke-width:0.8;" x="57.6" xlink:href="#maf74507d1f" y="117.717866"/>
      </g>
     </g>
     <g id="text_13">
      <!-- 0.04 -->
      <g transform="translate(28.334375 121.517085)scale(0.1 -0.1)">
       <use xlink:href="#DejaVuSans-48"/>
       <use x="63.623047" xlink:href="#DejaVuSans-46"/>
       <use x="95.410156" xlink:href="#DejaVuSans-48"/>
       <use x="159.033203" xlink:href="#DejaVuSans-52"/>
      </g>
     </g>
    </g>
    <g id="ytick_5">
     <g id="line2d_14">
      <g>
       <use style="stroke:#000000;stroke-width:0.8;" x="57.6" xlink:href="#maf74507d1f" y="58.806054"/>
      </g>
     </g>
     <g id="text_14">
      <!-- 0.05 -->
      <g transform="translate(28.334375 62.605273)scale(0.1 -0.1)">
       <use xlink:href="#DejaVuSans-48"/>
       <use x="63.623047" xlink:href="#DejaVuSans-46"/>
       <use x="95.410156" xlink:href="#DejaVuSans-48"/>
       <use x="159.033203" xlink:href="#DejaVuSans-53"/>
      </g>
     </g>
    </g>
   </g>
   <g id="line2d_15">
    <path clip-path="url(#pc6d16a5e83)" d="M 73.832727 271.913234 
L 74.239053 281.109441 
L 74.645379 286.062863 
L 75.051706 285.225356 
L 75.458032 284.843301 
L 75.864358 284.67166 
L 76.67701 284.814399 
L 77.489662 285.140536 
L 78.302314 285.629338 
L 78.70864 285.970221 
L 79.114966 286.593436 
L 79.927619 286.844279 
L 81.146597 287.884394 
L 81.552923 287.920105 
L 82.365575 288.542324 
L 82.771901 288.741669 
L 83.178227 287.905502 
L 83.584553 286.350684 
L 83.99088 285.863429 
L 84.803532 284.051424 
L 85.209858 283.968902 
L 85.616184 282.97055 
L 86.02251 282.60804 
L 86.428836 282.025553 
L 87.241488 281.64726 
L 87.647814 281.629432 
L 88.05414 280.550555 
L 88.460466 281.425343 
L 88.866793 281.535667 
L 89.273119 282.177333 
L 90.085771 282.347887 
L 90.492097 282.810258 
L 90.898423 281.455663 
L 91.304749 282.919293 
L 92.117401 284.811819 
L 92.523727 284.855245 
L 92.930053 285.723733 
L 93.33638 285.259611 
L 93.742706 285.781717 
L 94.149032 284.831444 
L 94.961684 285.328241 
L 95.36801 286.521178 
L 95.774336 285.958968 
L 96.180662 286.521513 
L 96.586988 286.767927 
L 96.993314 286.32418 
L 97.39964 286.861431 
L 97.805967 286.380477 
L 98.212293 286.139377 
L 98.618619 286.109571 
L 99.431271 285.245901 
L 99.837597 285.507984 
L 100.243923 285.53852 
L 101.056575 284.463489 
L 101.462901 284.909516 
L 101.869227 284.390389 
L 102.275554 284.640607 
L 102.68188 285.75015 
L 103.494532 286.578845 
L 103.900858 287.115592 
L 104.71351 285.800045 
L 105.119836 284.196845 
L 105.526162 285.310822 
L 105.932488 285.401049 
L 106.745141 283.575799 
L 107.151467 281.452202 
L 107.557793 280.824108 
L 107.964119 283.898075 
L 108.370445 282.041372 
L 108.776771 284.720611 
L 109.183097 281.941391 
L 109.589423 283.805866 
L 109.995749 283.444169 
L 110.402075 283.735254 
L 110.808401 283.198993 
L 111.214728 283.112655 
L 111.621054 284.042519 
L 112.02738 284.536294 
L 112.433706 284.339321 
L 113.652684 284.849018 
L 114.465336 284.416619 
L 114.871662 282.97415 
L 115.277988 283.666402 
L 115.684314 283.323211 
L 116.903293 284.587725 
L 117.309619 284.50205 
L 118.122271 283.818287 
L 118.528597 284.256274 
L 118.934923 284.168295 
L 119.341249 284.338347 
L 119.747575 284.812607 
L 120.153901 284.955243 
L 120.560228 285.27836 
L 120.966554 285.043952 
L 121.37288 285.471398 
L 121.779206 285.362943 
L 122.185532 285.560553 
L 122.998184 286.448284 
L 123.810836 286.495708 
L 124.217162 286.71917 
L 124.623488 286.585759 
L 125.436141 286.658543 
L 125.842467 286.290606 
L 126.248793 286.161687 
L 126.655119 286.434787 
L 129.093075 286.282779 
L 129.905728 286.332738 
L 130.312054 286.03647 
L 138.032249 288.605559 
L 138.438575 288.466657 
L 138.844902 288.877012 
L 139.251228 289.113884 
L 139.657554 289.064425 
L 140.06388 289.45129 
L 140.876532 289.811024 
L 142.908162 290.308479 
L 144.127141 290.578943 
L 144.533467 290.074364 
L 144.939793 289.786854 
L 145.346119 290.446119 
L 145.752445 290.545562 
L 146.565097 291.024151 
L 147.784076 291.570691 
L 148.190402 291.827459 
L 148.596728 291.834792 
L 149.003054 292.107469 
L 149.815706 292.085659 
L 150.222032 292.385806 
L 150.628358 292.512979 
L 151.034684 292.3007 
L 151.44101 292.589174 
L 151.847336 293.33275 
L 152.659989 293.874323 
L 153.066315 293.737886 
L 153.472641 294.084627 
L 153.878967 293.311726 
L 154.285293 293.586429 
L 154.691619 294.276229 
L 155.097945 294.435306 
L 155.504271 294.918055 
L 155.910597 294.478111 
L 157.129576 295.106897 
L 158.75488 295.017679 
L 159.161206 295.144318 
L 159.567532 294.704014 
L 159.973858 295.198172 
L 160.380184 295.255997 
L 161.192837 295.117956 
L 161.599163 295.217235 
L 162.005489 295.085444 
L 162.818141 295.122044 
L 163.224467 295.370052 
L 163.630793 295.426147 
L 164.037119 295.232069 
L 164.443445 295.240334 
L 165.256097 295.465417 
L 165.662423 295.477763 
L 166.06875 295.374236 
L 166.881402 295.488 
L 167.287728 295.369322 
L 168.506706 295.390879 
L 168.913032 295.067352 
L 169.319358 294.929548 
L 169.725684 295.156565 
L 170.944663 295.001442 
L 171.350989 295.198112 
L 172.569967 295.195482 
L 174.601597 295.072811 
L 175.007924 295.021018 
L 175.41425 295.229702 
L 175.820576 295.24007 
L 176.226902 295.395662 
L 176.633228 295.261936 
L 177.039554 295.4001 
L 177.44588 295.393303 
L 177.852206 295.025309 
L 178.258532 294.926281 
L 178.664858 295.106265 
L 179.071184 294.800328 
L 179.477511 294.886243 
L 179.883837 295.207264 
L 180.696489 295.24506 
L 181.102815 295.113019 
L 182.728119 295.091592 
L 183.134445 295.006028 
L 183.540771 295.047152 
L 184.353424 294.755638 
L 184.75975 294.823651 
L 185.166076 295.080044 
L 187.197706 294.899653 
L 188.010358 295.014867 
L 188.823011 294.772591 
L 189.635663 294.866154 
L 190.041989 294.420722 
L 190.448315 294.239815 
L 191.260967 294.793595 
L 191.667293 294.675972 
L 192.886271 294.739781 
L 193.292598 294.618622 
L 193.698924 294.773383 
L 194.10525 294.684261 
L 194.511576 294.825018 
L 195.324228 294.500055 
L 196.13688 294.992711 
L 197.355858 294.783369 
L 197.762185 294.213072 
L 199.387489 293.906773 
L 199.793815 293.917468 
L 200.200141 293.804785 
L 201.012793 294.452651 
L 201.419119 294.211371 
L 201.825445 294.434586 
L 202.231772 294.213527 
L 203.044424 294.581298 
L 203.45075 294.584171 
L 204.263402 294.285755 
L 204.669728 294.412243 
L 208.326663 294.436911 
L 208.732989 294.7086 
L 209.139315 294.338631 
L 210.358293 294.227793 
L 211.983598 294.328465 
L 212.79625 294.286351 
L 213.202576 294.079334 
L 215.234206 294.271062 
L 215.640532 294.196665 
L 216.453185 294.28937 
L 217.265837 294.304762 
L 217.672163 294.793201 
L 218.078489 294.552371 
L 218.484815 294.740834 
L 219.297467 294.126067 
L 219.703793 294.445106 
L 220.110119 294.501833 
L 220.516446 294.281898 
L 222.548076 294.091335 
L 224.17338 294.156313 
L 224.986033 293.987352 
L 226.205011 293.906399 
L 227.017663 293.946138 
L 228.642967 293.980383 
L 230.268272 293.962744 
L 232.299902 294.03234 
L 232.706228 294.056985 
L 233.112554 293.766001 
L 233.51888 293.681502 
L 233.925207 293.456041 
L 234.331533 293.426721 
L 234.737859 293.664411 
L 237.582141 293.619539 
L 237.988467 293.308116 
L 239.207446 293.791455 
L 242.458054 293.769648 
L 242.86438 293.845449 
L 244.083359 293.730523 
L 244.489685 293.741448 
L 245.302337 293.599298 
L 245.708663 293.841417 
L 246.114989 293.652211 
L 246.521315 293.298162 
L 246.927641 293.36666 
L 247.333967 293.586849 
L 247.740294 293.4144 
L 248.552946 293.482022 
L 249.365598 293.530907 
L 250.990902 293.602923 
L 252.209881 293.861041 
L 252.616207 293.598504 
L 257.085794 293.598726 
L 257.49212 293.480451 
L 258.711098 293.42411 
L 259.117424 293.344157 
L 259.52375 293.598242 
L 259.930076 293.668362 
L 261.555381 293.374573 
L 262.368033 293.570773 
L 263.587011 293.34828 
L 263.993337 293.361304 
L 264.399663 293.503187 
L 264.805989 293.286231 
L 265.212315 293.41869 
L 265.618641 293.340313 
L 266.024968 293.492756 
L 266.83762 293.32291 
L 267.243946 293.464819 
L 268.056598 293.339328 
L 268.462924 293.386022 
L 269.275576 293.244196 
L 270.088228 293.260018 
L 270.494555 293.106505 
L 270.900881 293.325391 
L 271.713533 293.338681 
L 272.119859 293.070844 
L 272.932511 293.284516 
L 276.18312 293.261324 
L 277.402098 293.179 
L 278.621076 293.207939 
L 279.027402 293.379486 
L 279.840055 293.363416 
L 280.246381 293.065653 
L 280.652707 293.325913 
L 281.871685 293.291572 
L 282.684337 293.278933 
L 283.090663 293.167254 
L 283.496989 293.4948 
L 283.903316 293.371319 
L 284.309642 293.48445 
L 284.715968 293.25439 
L 285.122294 293.478081 
L 285.52862 293.229478 
L 286.747598 293.00435 
L 287.153924 293.039763 
L 287.966576 292.95435 
L 298.531055 292.783008 
L 298.937381 292.731014 
L 299.343707 293.08238 
L 299.750033 292.275169 
L 300.156359 292.599934 
L 301.375337 292.662466 
L 301.781663 292.243972 
L 302.18799 292.568625 
L 304.21962 292.740313 
L 304.625946 292.66787 
L 305.032272 292.75406 
L 305.438598 292.440622 
L 305.844924 292.650163 
L 306.25125 292.635465 
L 306.657577 292.441233 
L 307.470229 292.424795 
L 307.876555 292.605564 
L 308.689207 292.561886 
L 309.501859 292.619239 
L 310.720837 292.73711 
L 313.971446 292.690756 
L 314.377772 292.439979 
L 314.784098 292.495505 
L 315.190424 292.348467 
L 316.003077 292.562827 
L 317.628381 292.615268 
L 318.034707 293.088495 
L 318.441033 292.972199 
L 318.847359 293.227833 
L 319.253685 293.286039 
L 319.660011 292.818589 
L 320.066337 292.755821 
L 320.472664 293.2142 
L 321.285316 293.187874 
L 321.691642 292.942325 
L 322.91062 292.789643 
L 323.316946 292.48359 
L 323.723272 293.049568 
L 324.129598 292.89444 
L 324.535924 292.538788 
L 324.942251 292.706055 
L 325.348577 292.493966 
L 325.754903 293.044841 
L 326.161229 292.52872 
L 326.567555 292.665649 
L 326.973881 292.425724 
L 327.380207 292.828072 
L 327.786533 292.659544 
L 328.192859 292.857745 
L 328.599185 292.738088 
L 329.005511 292.45312 
L 329.411838 292.9048 
L 329.818164 293.143838 
L 331.037142 293.25074 
L 331.443468 293.3079 
L 331.849794 292.987655 
L 332.25612 292.891612 
L 332.662446 292.421495 
L 333.068772 292.29162 
L 333.881425 292.762157 
L 334.694077 292.549425 
L 335.100403 292.988163 
L 335.506729 293.184073 
L 335.913055 292.613339 
L 336.725707 292.552236 
L 337.132033 293.089018 
L 337.538359 293.267247 
L 337.944685 291.54847 
L 338.351011 292.540876 
L 338.757338 292.684028 
L 339.56999 293.089476 
L 339.976316 293.068624 
L 340.382642 292.894358 
L 340.788968 292.924935 
L 341.195294 292.640595 
L 341.60162 293.084775 
L 342.007946 292.782476 
L 342.414272 293.407897 
L 342.820598 293.006415 
L 343.226925 293.53969 
L 343.633251 293.012068 
L 344.039577 293.291768 
L 344.445903 293.341629 
L 344.852229 292.702257 
L 345.258555 292.838676 
L 345.664881 293.613138 
L 346.477533 292.694232 
L 347.290185 292.719963 
L 347.696512 292.864692 
L 350.94712 292.909474 
L 353.791403 292.909085 
L 354.197729 292.80673 
L 354.604055 292.915835 
L 355.823033 292.810399 
L 357.448338 292.790221 
L 359.073642 292.786046 
L 359.886294 292.953229 
L 360.29262 292.669041 
L 360.698946 293.25073 
L 361.105272 292.856223 
L 361.511599 293.213165 
L 361.917925 292.843366 
L 362.730577 292.956239 
L 363.136903 292.980642 
L 363.949555 292.757994 
L 364.762207 292.844791 
L 365.168533 293.046957 
L 365.574859 292.714522 
L 365.981186 292.743738 
L 366.387512 292.999969 
L 366.793838 293.050891 
L 367.200164 292.936272 
L 368.012816 293.053155 
L 369.63812 292.914675 
L 372.482403 293.043104 
L 373.295055 293.045169 
L 374.514033 293.145909 
L 376.95199 292.947403 
L 377.358316 292.899304 
L 378.170968 293.053479 
L 378.98362 293.003202 
L 380.202599 293.119952 
L 382.640555 293.025939 
L 383.453207 293.493747 
L 383.859534 293.12413 
L 384.672186 293.228737 
L 385.891164 293.294828 
L 386.29749 293.086096 
L 386.703816 293.169217 
L 387.110142 292.925818 
L 387.922794 293.198935 
L 389.141773 293.005664 
L 389.548099 293.2287 
L 389.954425 292.972263 
L 391.579729 293.115117 
L 391.986055 293.218701 
L 392.392381 292.938224 
L 392.798707 293.232435 
L 393.61136 293.044163 
L 394.017686 293.265821 
L 395.236664 292.964742 
L 396.455642 293.261639 
L 398.487273 293.310813 
L 398.487273 293.310813 
" style="fill:none;stroke:#1f77b4;stroke-linecap:square;stroke-width:1.5;"/>
   </g>
   <g id="line2d_16">
    <path clip-path="url(#pc6d16a5e83)" d="M 73.832727 72.384495 
L 74.239053 79.378572 
L 74.645379 73.071341 
L 75.051706 76.962 
L 75.458032 78.739402 
L 75.864358 72.233613 
L 76.270684 74.66306 
L 76.67701 72.717913 
L 77.083336 73.306779 
L 77.489662 72.229324 
L 77.895988 79.153175 
L 78.302314 74.253087 
L 78.70864 77.711642 
L 79.114966 71.907212 
L 79.521293 68.98316 
L 79.927619 71.822994 
L 80.333945 70.724489 
L 80.740271 72.391001 
L 81.146597 71.104267 
L 81.552923 70.721153 
L 81.959249 69.26124 
L 82.771901 68.811155 
L 83.178227 67.810095 
L 83.584553 67.515223 
L 83.99088 67.753522 
L 84.803532 66.970429 
L 85.209858 66.340924 
L 85.616184 65.048067 
L 86.835162 65.746959 
L 87.241488 64.184763 
L 87.647814 65.226246 
L 88.05414 65.041373 
L 88.460466 65.016806 
L 88.866793 65.179067 
L 89.273119 64.448096 
L 89.679445 64.135883 
L 90.085771 64.669763 
L 90.492097 64.794656 
L 90.898423 63.730442 
L 91.304749 64.646565 
L 91.711075 64.32048 
L 92.117401 63.551059 
L 92.523727 64.451253 
L 92.930053 61.702506 
L 93.33638 60.507714 
L 93.742706 66.714646 
L 94.149032 58.343198 
L 94.555358 65.631815 
L 94.961684 66.573968 
L 95.36801 64.744517 
L 95.774336 65.15197 
L 96.180662 63.594766 
L 96.993314 71.784448 
L 97.39964 68.114258 
L 98.212293 69.69604 
L 98.618619 67.508708 
L 99.024945 68.159277 
L 99.431271 65.835539 
L 100.243923 70.716139 
L 100.650249 67.542782 
L 101.056575 65.433013 
L 101.869227 70.122139 
L 102.275554 68.823514 
L 102.68188 65.553405 
L 103.088206 68.878625 
L 103.494532 68.165432 
L 103.900858 65.62222 
L 104.307184 66.929702 
L 104.71351 70.77835 
L 105.119836 68.992758 
L 105.526162 67.732416 
L 105.932488 68.846017 
L 106.338814 68.344872 
L 107.557793 68.537363 
L 107.964119 68.068607 
L 108.370445 68.927946 
L 108.776771 68.217484 
L 109.183097 69.98199 
L 109.589423 70.029033 
L 109.995749 66.225729 
L 110.402075 67.678611 
L 112.433706 67.493931 
L 112.840032 68.544047 
L 113.246358 67.680491 
L 113.652684 68.232748 
L 114.05901 70.715617 
L 114.465336 67.337716 
L 114.871662 70.776255 
L 115.277988 70.814647 
L 115.684314 67.433899 
L 116.496967 67.486958 
L 116.903293 70.981146 
L 117.309619 67.569736 
L 117.715945 67.156474 
L 118.122271 68.59875 
L 118.528597 68.530332 
L 119.747575 68.732469 
L 120.153901 73.303935 
L 120.560228 68.849263 
L 121.37288 68.920361 
L 121.779206 69.889763 
L 122.185532 69.906554 
L 122.591858 73.270316 
L 122.998184 69.972202 
L 123.40451 73.329622 
L 123.810836 69.965375 
L 124.217162 69.931012 
L 124.623488 73.259947 
L 125.029815 69.882488 
L 125.436141 67.724334 
L 126.655119 67.597509 
L 127.061445 68.931301 
L 127.467771 68.876299 
L 127.874097 67.540776 
L 128.280423 67.527006 
L 128.686749 66.982827 
L 129.093075 66.626947 
L 129.499402 57.826565 
L 129.905728 65.72603 
L 130.312054 69.606963 
L 130.71838 70.741636 
L 131.124706 67.353216 
L 131.531032 57.825067 
L 131.937358 57.913326 
L 132.75001 71.473917 
L 133.156336 57.959259 
L 133.562662 64.800155 
L 134.781641 64.861087 
L 135.187967 72.094367 
L 135.594293 67.695389 
L 136.000619 58.094622 
L 136.406945 68.34783 
L 136.813271 67.346226 
L 137.219597 67.960396 
L 137.625923 66.949517 
L 138.032249 66.704598 
L 138.438575 68.040056 
L 138.844902 68.228797 
L 139.251228 68.180609 
L 139.657554 66.877272 
L 140.06388 67.923736 
L 140.470206 68.095699 
L 140.876532 68.051605 
L 141.282858 68.119802 
L 141.689184 66.613282 
L 142.09551 68.279149 
L 142.501836 68.390857 
L 142.908162 68.331067 
L 143.314489 67.954255 
L 143.720815 67.965419 
L 144.127141 68.518496 
L 144.533467 68.541865 
L 144.939793 67.469637 
L 145.346119 68.536286 
L 145.752445 68.456714 
L 146.565097 71.40317 
L 146.971423 67.578553 
L 147.377749 69.692916 
L 147.784076 66.699882 
L 148.190402 70.950925 
L 148.596728 69.887633 
L 149.003054 68.1097 
L 149.40938 69.116842 
L 149.815706 70.658183 
L 150.222032 68.201348 
L 150.628358 68.030531 
L 151.034684 72.944862 
L 151.44101 69.034844 
L 151.847336 72.91966 
L 152.253663 72.8992 
L 152.659989 73.997939 
L 153.066315 72.979686 
L 153.472641 73.878525 
L 153.878967 73.834022 
L 154.285293 72.157323 
L 154.691619 75.958019 
L 155.097945 71.355819 
L 155.504271 71.902712 
L 155.910597 74.13957 
L 156.316923 73.026121 
L 156.72325 70.773103 
L 157.129576 70.256741 
L 157.535902 73.191281 
L 157.942228 73.930717 
L 158.348554 72.285675 
L 158.75488 70.10282 
L 159.161206 70.470352 
L 159.567532 69.518068 
L 159.973858 71.140099 
L 160.380184 71.103858 
L 160.78651 71.281886 
L 161.192837 71.206523 
L 161.599163 71.274906 
L 162.005489 76.610162 
L 162.411815 76.740652 
L 162.818141 70.443999 
L 163.224467 70.60362 
L 163.630793 70.088241 
L 164.037119 75.398249 
L 164.443445 70.634176 
L 164.849771 74.322567 
L 165.256097 69.133539 
L 165.662423 72.186015 
L 166.06875 70.126945 
L 166.475076 69.701174 
L 166.881402 70.181052 
L 167.287728 69.750006 
L 167.694054 69.766555 
L 168.10038 68.866237 
L 168.506706 69.819354 
L 169.725684 69.88046 
L 170.13201 70.36727 
L 170.538337 70.341503 
L 171.350989 70.491059 
L 171.757315 69.778362 
L 173.382619 69.625938 
L 173.788945 68.752351 
L 174.195271 69.642137 
L 175.007924 69.670759 
L 175.41425 67.792011 
L 175.820576 69.717402 
L 176.226902 70.872227 
L 176.633228 71.459452 
L 177.039554 68.590202 
L 177.44588 71.734799 
L 177.852206 70.127139 
L 178.258532 66.712272 
L 178.664858 67.310478 
L 179.071184 67.656132 
L 179.477511 70.782038 
L 179.883837 68.097484 
L 180.290163 68.813995 
L 180.696489 68.793397 
L 181.102815 70.56619 
L 181.509141 70.554617 
L 181.915467 70.415157 
L 182.321793 70.95272 
L 182.728119 69.038192 
L 183.134445 72.417072 
L 183.540771 68.894582 
L 183.947098 69.488278 
L 184.353424 66.088123 
L 184.75975 72.165 
L 185.166076 67.190433 
L 185.572402 67.399865 
L 185.978728 66.14449 
L 186.385054 67.294869 
L 186.79138 69.139291 
L 187.197706 72.24641 
L 187.604032 67.294312 
L 188.010358 72.07165 
L 188.416684 69.57345 
L 189.229337 69.818894 
L 189.635663 68.013186 
L 190.041989 68.925621 
L 190.448315 70.429324 
L 190.854641 66.506656 
L 191.260967 66.820213 
L 191.667293 68.554626 
L 192.073619 68.690753 
L 192.479945 70.980718 
L 192.886271 69.678926 
L 193.292598 68.842773 
L 193.698924 68.647176 
L 194.10525 68.691852 
L 194.511576 69.220091 
L 194.917902 67.540291 
L 195.324228 67.741124 
L 195.730554 68.441912 
L 196.13688 68.55135 
L 196.543206 70.484685 
L 197.355858 69.380809 
L 197.762185 69.956547 
L 198.168511 68.755628 
L 198.574837 69.297587 
L 198.981163 69.303669 
L 199.387489 69.039733 
L 199.793815 69.203607 
L 200.200141 68.780702 
L 200.606467 70.054019 
L 201.012793 70.052718 
L 201.419119 71.05445 
L 201.825445 69.267342 
L 202.231772 68.623761 
L 202.638098 69.084407 
L 203.044424 69.089309 
L 203.45075 70.28508 
L 203.857076 68.110395 
L 204.263402 69.278909 
L 205.076054 69.821806 
L 207.107685 70.094533 
L 207.514011 70.331792 
L 207.920337 69.677143 
L 208.326663 70.659802 
L 208.732989 69.469187 
L 209.139315 70.569563 
L 209.545641 69.259409 
L 209.951967 69.177905 
L 210.358293 70.450483 
L 210.764619 70.462284 
L 211.170946 69.032356 
L 211.577272 69.653226 
L 211.983598 68.901494 
L 212.389924 70.945417 
L 212.79625 68.790814 
L 213.202576 69.93599 
L 213.608902 72.502867 
L 214.015228 70.346206 
L 214.421554 70.002849 
L 214.82788 70.285586 
L 215.234206 72.375099 
L 215.640532 70.075205 
L 216.046859 70.414936 
L 216.453185 69.756893 
L 216.859511 70.046153 
L 217.265837 70.046153 
L 217.672163 70.466919 
L 218.078489 70.495196 
L 218.484815 72.392464 
L 218.891141 71.24998 
L 219.703793 71.596921 
L 220.516446 71.512027 
L 220.922772 70.2349 
L 221.329098 71.446719 
L 221.735424 69.662332 
L 222.14175 69.26004 
L 222.548076 74.576082 
L 222.954402 69.639898 
L 223.360728 70.826751 
L 223.767054 70.155285 
L 224.17338 70.392109 
L 224.579706 68.234897 
L 224.986033 68.61375 
L 225.392359 70.231257 
L 225.798685 70.740617 
L 226.205011 68.963935 
L 226.611337 69.260751 
L 227.017663 69.137354 
L 227.423989 71.113608 
L 227.830315 71.293628 
L 229.049293 71.248951 
L 229.45562 69.20506 
L 229.861946 69.231835 
L 230.268272 73.740293 
L 230.674598 68.8575 
L 231.080924 70.188451 
L 231.48725 70.168351 
L 231.893576 67.634218 
L 232.299902 68.36958 
L 232.706228 68.315287 
L 233.112554 65.212327 
L 233.51888 69.52532 
L 233.925207 65.356493 
L 234.331533 68.192447 
L 234.737859 68.200326 
L 235.144185 65.424512 
L 235.550511 68.147563 
L 236.363163 68.12217 
L 236.769489 67.845726 
L 237.988467 67.743466 
L 238.394793 70.070514 
L 238.80112 68.668407 
L 239.207446 69.29764 
L 239.613772 67.009608 
L 240.020098 66.733317 
L 240.426424 65.560284 
L 240.83275 63.944912 
L 241.239076 68.804145 
L 241.645402 65.037875 
L 242.051728 68.2098 
L 242.458054 64.136474 
L 242.86438 65.23467 
L 243.677033 64.508036 
L 244.083359 64.368626 
L 244.489685 63.647619 
L 244.896011 66.095438 
L 245.302337 67.238903 
L 245.708663 67.438967 
L 246.114989 67.11858 
L 246.521315 69.707005 
L 246.927641 68.273703 
L 247.333967 68.381487 
L 247.740294 67.893573 
L 248.14662 68.055799 
L 248.552946 68.456479 
L 248.959272 69.72564 
L 249.771924 68.353498 
L 250.17825 68.238343 
L 250.584576 69.228411 
L 250.990902 71.016657 
L 251.397228 71.598836 
L 251.803554 71.820025 
L 252.209881 71.149576 
L 252.616207 71.449819 
L 253.022533 69.108179 
L 253.428859 69.318653 
L 253.835185 67.681033 
L 254.647837 70.35783 
L 255.054163 68.471601 
L 255.866815 68.50735 
L 256.273141 68.834575 
L 257.085794 68.239886 
L 257.49212 69.346645 
L 257.898446 68.322741 
L 258.304772 73.114109 
L 258.711098 64.777162 
L 259.52375 68.342172 
L 259.930076 68.697861 
L 260.336402 67.970117 
L 260.742728 72.480907 
L 261.149054 69.013597 
L 261.555381 69.709623 
L 261.961707 67.127473 
L 262.368033 68.303769 
L 262.774359 67.942186 
L 263.180685 67.756508 
L 263.993337 67.89508 
L 264.399663 65.740352 
L 264.805989 72.522141 
L 265.212315 71.498649 
L 265.618641 74.883381 
L 266.024968 74.925758 
L 266.431294 71.584049 
L 266.83762 74.97635 
L 267.243946 75.051809 
L 267.650272 71.760588 
L 268.056598 71.105852 
L 268.462924 72.815872 
L 268.86925 72.83417 
L 269.275576 75.059383 
L 269.681902 72.92019 
L 270.494555 72.91081 
L 270.900881 68.954597 
L 272.119859 68.933176 
L 272.526185 69.013303 
L 273.338837 68.963946 
L 273.745163 69.009662 
L 274.151489 65.825632 
L 274.557815 68.863369 
L 275.370468 68.736613 
L 275.776794 67.746334 
L 276.18312 65.739055 
L 276.589446 68.699441 
L 276.995772 68.660364 
L 277.402098 65.725914 
L 277.808424 68.669254 
L 278.21475 68.64602 
L 278.621076 67.41983 
L 279.027402 67.88068 
L 279.433729 67.709172 
L 279.840055 67.264569 
L 280.652707 68.435303 
L 281.059033 68.791641 
L 281.465359 68.881749 
L 281.871685 69.229314 
L 282.278011 68.480333 
L 282.684337 68.581387 
L 283.090663 69.310667 
L 283.496989 69.28715 
L 283.903316 68.748742 
L 285.122294 68.600302 
L 285.934946 68.740859 
L 286.747598 68.700573 
L 287.966576 68.558821 
L 289.591881 68.675785 
L 289.998207 67.82516 
L 290.404533 67.623906 
L 290.810859 68.702258 
L 291.217185 66.914328 
L 291.623511 68.441389 
L 292.029837 67.604757 
L 292.436163 68.348442 
L 292.842489 68.214179 
L 293.248816 67.089072 
L 293.655142 64.36241 
L 294.061468 67.68913 
L 294.467794 68.133496 
L 294.87412 68.278706 
L 295.280446 67.515461 
L 295.686772 67.88769 
L 296.093098 67.660644 
L 296.499424 68.109689 
L 296.90575 68.269149 
L 297.312076 64.737493 
L 297.718403 64.921087 
L 298.124729 64.81202 
L 298.531055 70.020148 
L 298.937381 68.120491 
L 299.750033 69.00184 
L 300.156359 67.617594 
L 300.969011 67.555404 
L 301.375337 67.325765 
L 301.781663 67.583647 
L 302.18799 67.658652 
L 302.594316 68.466976 
L 303.000642 66.430742 
L 303.406968 67.868785 
L 303.813294 68.075344 
L 304.625946 67.607149 
L 305.032272 67.628137 
L 305.438598 67.421328 
L 306.25125 67.551231 
L 307.063903 66.184149 
L 307.470229 67.778765 
L 308.282881 67.283083 
L 308.689207 68.505022 
L 309.095533 68.313982 
L 309.501859 68.307901 
L 309.908185 68.522352 
L 310.314511 67.925532 
L 311.53349 68.014061 
L 311.939816 68.430364 
L 312.346142 68.347478 
L 312.752468 67.769529 
L 313.158794 65.264136 
L 313.56512 68.054646 
L 313.971446 67.659269 
L 314.377772 68.032871 
L 314.784098 66.466232 
L 315.190424 66.559785 
L 315.59675 67.387564 
L 316.003077 65.727848 
L 316.409403 67.580981 
L 316.815729 67.540276 
L 317.222055 65.857758 
L 318.034707 68.148331 
L 318.441033 67.848147 
L 318.847359 66.977248 
L 319.253685 68.212506 
L 320.066337 73.146085 
L 320.472664 69.81873 
L 320.87899 68.990547 
L 321.285316 70.240675 
L 321.691642 70.552774 
L 322.097968 70.464506 
L 322.504294 70.05863 
L 322.91062 68.558006 
L 323.316946 68.450914 
L 323.723272 67.788601 
L 324.129598 73.197879 
L 324.535924 69.827965 
L 325.348577 68.094043 
L 325.754903 68.494405 
L 326.161229 70.827598 
L 326.567555 70.739695 
L 326.973881 70.922941 
L 327.380207 67.739409 
L 327.786533 68.843752 
L 328.192859 67.653134 
L 329.005511 70.793944 
L 329.411838 67.999392 
L 329.818164 69.415827 
L 330.22449 67.7196 
L 330.630816 69.29087 
L 331.037142 69.026805 
L 331.443468 75.36411 
L 331.849794 66.886654 
L 332.25612 69.484805 
L 332.662446 67.024656 
L 333.068772 66.879705 
L 333.475098 68.616581 
L 333.881425 68.345939 
L 334.287751 66.521151 
L 335.100403 70.411188 
L 335.506729 70.959154 
L 335.913055 67.14183 
L 336.319381 69.009591 
L 336.725707 67.780319 
L 337.132033 70.159872 
L 337.538359 71.40323 
L 337.944685 70.867363 
L 338.351011 70.004045 
L 338.757338 69.743053 
L 339.163664 69.664123 
L 339.56999 68.893982 
L 339.976316 68.831744 
L 340.382642 69.05644 
L 340.788968 68.592132 
L 341.195294 69.351071 
L 341.60162 68.543027 
L 342.007946 68.658085 
L 342.820598 69.390879 
L 343.226925 69.734256 
L 343.633251 67.840891 
L 344.039577 68.451541 
L 344.445903 68.821565 
L 344.852229 67.394707 
L 345.258555 67.733977 
L 345.664881 69.977341 
L 346.071207 68.529494 
L 346.883859 70.257089 
L 347.290185 71.799852 
L 347.696512 67.288194 
L 348.102838 67.469342 
L 348.509164 63.427698 
L 348.91549 69.655351 
L 349.321816 69.57486 
L 349.728142 71.192398 
L 350.134468 68.353621 
L 350.540794 68.595513 
L 351.353446 67.985539 
L 351.759772 67.865568 
L 352.166099 67.585496 
L 352.572425 65.233152 
L 352.978751 64.660085 
L 353.385077 67.310598 
L 353.791403 60.85764 
L 354.197729 68.127177 
L 354.604055 65.258537 
L 355.010381 70.910386 
L 355.416707 73.466714 
L 355.823033 74.427835 
L 356.229359 64.279568 
L 356.635686 67.333926 
L 357.042012 68.722412 
L 357.448338 69.549651 
L 357.854664 68.576682 
L 358.26099 69.087039 
L 358.667316 68.708087 
L 359.073642 68.883496 
L 359.479968 68.911984 
L 359.886294 69.109824 
L 360.29262 74.439891 
L 360.698946 71.363077 
L 361.511599 71.475815 
L 361.917925 69.054813 
L 362.324251 69.961716 
L 362.730577 69.537442 
L 363.136903 72.991233 
L 363.949555 63.675795 
L 364.355881 68.974851 
L 364.762207 68.796911 
L 365.168533 53.568 
L 365.574859 67.763005 
L 365.981186 69.462767 
L 366.387512 68.64758 
L 366.793838 69.378095 
L 367.200164 68.76593 
L 367.60649 73.363678 
L 368.012816 73.512413 
L 368.419142 69.440482 
L 368.825468 69.419701 
L 369.231794 71.274088 
L 369.63812 69.359975 
L 370.857099 69.269521 
L 371.263425 68.485513 
L 371.669751 68.580644 
L 372.482403 68.526624 
L 372.888729 68.982628 
L 373.295055 67.793679 
L 373.701381 69.615428 
L 374.107707 69.377438 
L 374.514033 69.558651 
L 374.92036 70.414618 
L 375.326686 69.326003 
L 375.733012 69.298575 
L 376.139338 68.597308 
L 376.545664 70.476356 
L 376.95199 65.369251 
L 377.358316 69.253345 
L 377.764642 68.582194 
L 378.170968 70.65544 
L 378.577294 69.278683 
L 378.98362 65.114712 
L 379.389947 65.444346 
L 379.796273 68.340845 
L 380.202599 68.151644 
L 383.859534 68.149712 
L 384.26586 68.779994 
L 384.672186 67.938536 
L 385.078512 64.691009 
L 385.484838 68.213295 
L 385.891164 63.64877 
L 386.29749 69.884659 
L 386.703816 71.276014 
L 387.110142 70.717972 
L 387.516468 72.749953 
L 387.922794 71.326791 
L 388.32912 70.762034 
L 388.735447 72.26744 
L 389.141773 71.296688 
L 389.954425 71.189928 
L 390.767077 70.290052 
L 391.173403 71.049712 
L 391.579729 70.683684 
L 392.798707 70.580684 
L 393.205034 71.516423 
L 393.61136 71.445242 
L 394.017686 72.415957 
L 394.424012 69.082445 
L 394.830338 72.241372 
L 395.64299 72.432123 
L 396.049316 73.36685 
L 397.268294 73.414596 
L 398.487273 73.299696 
L 398.487273 73.299696 
" style="fill:none;stroke:#ff7f0e;stroke-linecap:square;stroke-width:1.5;"/>
   </g>
   <g id="patch_3">
    <path d="M 57.6 307.584 
L 57.6 41.472 
" style="fill:none;stroke:#000000;stroke-linecap:square;stroke-linejoin:miter;stroke-width:0.8;"/>
   </g>
   <g id="patch_4">
    <path d="M 414.72 307.584 
L 414.72 41.472 
" style="fill:none;stroke:#000000;stroke-linecap:square;stroke-linejoin:miter;stroke-width:0.8;"/>
   </g>
   <g id="patch_5">
    <path d="M 57.6 307.584 
L 414.72 307.584 
" style="fill:none;stroke:#000000;stroke-linecap:square;stroke-linejoin:miter;stroke-width:0.8;"/>
   </g>
   <g id="patch_6">
    <path d="M 57.6 41.472 
L 414.72 41.472 
" style="fill:none;stroke:#000000;stroke-linecap:square;stroke-linejoin:miter;stroke-width:0.8;"/>
   </g>
  </g>
 </g>
 <defs>
  <clipPath id="pc6d16a5e83">
   <rect height="266.112" width="357.12" x="57.6" y="41.472"/>
  </clipPath>
 </defs>
</svg>
