<?xml version="1.0" encoding="utf-8" standalone="no"?>
<!DOCTYPE svg PUBLIC "-//W3C//DTD SVG 1.1//EN"
  "http://www.w3.org/Graphics/SVG/1.1/DTD/svg11.dtd">
<!-- Created with matplotlib (https://matplotlib.org/) -->
<svg height="345.6pt" version="1.1" viewBox="0 0 460.8 345.6" width="460.8pt" xmlns="http://www.w3.org/2000/svg" xmlns:xlink="http://www.w3.org/1999/xlink">
 <defs>
  <style type="text/css">
*{stroke-linecap:butt;stroke-linejoin:round;}
  </style>
 </defs>
 <g id="figure_1">
  <g id="patch_1">
   <path d="M 0 345.6 
L 460.8 345.6 
L 460.8 0 
L 0 0 
z
" style="fill:#ffffff;"/>
  </g>
  <g id="axes_1">
   <g id="patch_2">
    <path d="M 57.6 307.584 
L 414.72 307.584 
L 414.72 41.472 
L 57.6 41.472 
z
" style="fill:#ffffff;"/>
   </g>
   <g id="matplotlib.axis_1">
    <g id="xtick_1">
     <g id="line2d_1">
      <defs>
       <path d="M 0 0 
L 0 3.5 
" id="mb3ea1d8e1c" style="stroke:#000000;stroke-width:0.8;"/>
      </defs>
      <g>
       <use style="stroke:#000000;stroke-width:0.8;" x="73.832727" xlink:href="#mb3ea1d8e1c" y="307.584"/>
      </g>
     </g>
     <g id="text_1">
      <!-- 0 -->
      <defs>
       <path d="M 31.78125 66.40625 
Q 24.171875 66.40625 20.328125 58.90625 
Q 16.5 51.421875 16.5 36.375 
Q 16.5 21.390625 20.328125 13.890625 
Q 24.171875 6.390625 31.78125 6.390625 
Q 39.453125 6.390625 43.28125 13.890625 
Q 47.125 21.390625 47.125 36.375 
Q 47.125 51.421875 43.28125 58.90625 
Q 39.453125 66.40625 31.78125 66.40625 
z
M 31.78125 74.21875 
Q 44.046875 74.21875 50.515625 64.515625 
Q 56.984375 54.828125 56.984375 36.375 
Q 56.984375 17.96875 50.515625 8.265625 
Q 44.046875 -1.421875 31.78125 -1.421875 
Q 19.53125 -1.421875 13.0625 8.265625 
Q 6.59375 17.96875 6.59375 36.375 
Q 6.59375 54.828125 13.0625 64.515625 
Q 19.53125 74.21875 31.78125 74.21875 
z
" id="DejaVuSans-48"/>
      </defs>
      <g transform="translate(70.651477 322.182437)scale(0.1 -0.1)">
       <use xlink:href="#DejaVuSans-48"/>
      </g>
     </g>
    </g>
    <g id="xtick_2">
     <g id="line2d_2">
      <g>
       <use style="stroke:#000000;stroke-width:0.8;" x="120.2451" xlink:href="#mb3ea1d8e1c" y="307.584"/>
      </g>
     </g>
     <g id="text_2">
      <!-- 200 -->
      <defs>
       <path d="M 19.1875 8.296875 
L 53.609375 8.296875 
L 53.609375 0 
L 7.328125 0 
L 7.328125 8.296875 
Q 12.9375 14.109375 22.625 23.890625 
Q 32.328125 33.6875 34.8125 36.53125 
Q 39.546875 41.84375 41.421875 45.53125 
Q 43.3125 49.21875 43.3125 52.78125 
Q 43.3125 58.59375 39.234375 62.25 
Q 35.15625 65.921875 28.609375 65.921875 
Q 23.96875 65.921875 18.8125 64.3125 
Q 13.671875 62.703125 7.8125 59.421875 
L 7.8125 69.390625 
Q 13.765625 71.78125 18.9375 73 
Q 24.125 74.21875 28.421875 74.21875 
Q 39.75 74.21875 46.484375 68.546875 
Q 53.21875 62.890625 53.21875 53.421875 
Q 53.21875 48.921875 51.53125 44.890625 
Q 49.859375 40.875 45.40625 35.40625 
Q 44.1875 33.984375 37.640625 27.21875 
Q 31.109375 20.453125 19.1875 8.296875 
z
" id="DejaVuSans-50"/>
      </defs>
      <g transform="translate(110.70135 322.182437)scale(0.1 -0.1)">
       <use xlink:href="#DejaVuSans-50"/>
       <use x="63.623047" xlink:href="#DejaVuSans-48"/>
       <use x="127.246094" xlink:href="#DejaVuSans-48"/>
      </g>
     </g>
    </g>
    <g id="xtick_3">
     <g id="line2d_3">
      <g>
       <use style="stroke:#000000;stroke-width:0.8;" x="166.657472" xlink:href="#mb3ea1d8e1c" y="307.584"/>
      </g>
     </g>
     <g id="text_3">
      <!-- 400 -->
      <defs>
       <path d="M 37.796875 64.3125 
L 12.890625 25.390625 
L 37.796875 25.390625 
z
M 35.203125 72.90625 
L 47.609375 72.90625 
L 47.609375 25.390625 
L 58.015625 25.390625 
L 58.015625 17.1875 
L 47.609375 17.1875 
L 47.609375 0 
L 37.796875 0 
L 37.796875 17.1875 
L 4.890625 17.1875 
L 4.890625 26.703125 
z
" id="DejaVuSans-52"/>
      </defs>
      <g transform="translate(157.113722 322.182437)scale(0.1 -0.1)">
       <use xlink:href="#DejaVuSans-52"/>
       <use x="63.623047" xlink:href="#DejaVuSans-48"/>
       <use x="127.246094" xlink:href="#DejaVuSans-48"/>
      </g>
     </g>
    </g>
    <g id="xtick_4">
     <g id="line2d_4">
      <g>
       <use style="stroke:#000000;stroke-width:0.8;" x="213.069845" xlink:href="#mb3ea1d8e1c" y="307.584"/>
      </g>
     </g>
     <g id="text_4">
      <!-- 600 -->
      <defs>
       <path d="M 33.015625 40.375 
Q 26.375 40.375 22.484375 35.828125 
Q 18.609375 31.296875 18.609375 23.390625 
Q 18.609375 15.53125 22.484375 10.953125 
Q 26.375 6.390625 33.015625 6.390625 
Q 39.65625 6.390625 43.53125 10.953125 
Q 47.40625 15.53125 47.40625 23.390625 
Q 47.40625 31.296875 43.53125 35.828125 
Q 39.65625 40.375 33.015625 40.375 
z
M 52.59375 71.296875 
L 52.59375 62.3125 
Q 48.875 64.0625 45.09375 64.984375 
Q 41.3125 65.921875 37.59375 65.921875 
Q 27.828125 65.921875 22.671875 59.328125 
Q 17.53125 52.734375 16.796875 39.40625 
Q 19.671875 43.65625 24.015625 45.921875 
Q 28.375 48.1875 33.59375 48.1875 
Q 44.578125 48.1875 50.953125 41.515625 
Q 57.328125 34.859375 57.328125 23.390625 
Q 57.328125 12.15625 50.6875 5.359375 
Q 44.046875 -1.421875 33.015625 -1.421875 
Q 20.359375 -1.421875 13.671875 8.265625 
Q 6.984375 17.96875 6.984375 36.375 
Q 6.984375 53.65625 15.1875 63.9375 
Q 23.390625 74.21875 37.203125 74.21875 
Q 40.921875 74.21875 44.703125 73.484375 
Q 48.484375 72.75 52.59375 71.296875 
z
" id="DejaVuSans-54"/>
      </defs>
      <g transform="translate(203.526095 322.182437)scale(0.1 -0.1)">
       <use xlink:href="#DejaVuSans-54"/>
       <use x="63.623047" xlink:href="#DejaVuSans-48"/>
       <use x="127.246094" xlink:href="#DejaVuSans-48"/>
      </g>
     </g>
    </g>
    <g id="xtick_5">
     <g id="line2d_5">
      <g>
       <use style="stroke:#000000;stroke-width:0.8;" x="259.482217" xlink:href="#mb3ea1d8e1c" y="307.584"/>
      </g>
     </g>
     <g id="text_5">
      <!-- 800 -->
      <defs>
       <path d="M 31.78125 34.625 
Q 24.75 34.625 20.71875 30.859375 
Q 16.703125 27.09375 16.703125 20.515625 
Q 16.703125 13.921875 20.71875 10.15625 
Q 24.75 6.390625 31.78125 6.390625 
Q 38.8125 6.390625 42.859375 10.171875 
Q 46.921875 13.96875 46.921875 20.515625 
Q 46.921875 27.09375 42.890625 30.859375 
Q 38.875 34.625 31.78125 34.625 
z
M 21.921875 38.8125 
Q 15.578125 40.375 12.03125 44.71875 
Q 8.5 49.078125 8.5 55.328125 
Q 8.5 64.0625 14.71875 69.140625 
Q 20.953125 74.21875 31.78125 74.21875 
Q 42.671875 74.21875 48.875 69.140625 
Q 55.078125 64.0625 55.078125 55.328125 
Q 55.078125 49.078125 51.53125 44.71875 
Q 48 40.375 41.703125 38.8125 
Q 48.828125 37.15625 52.796875 32.3125 
Q 56.78125 27.484375 56.78125 20.515625 
Q 56.78125 9.90625 50.3125 4.234375 
Q 43.84375 -1.421875 31.78125 -1.421875 
Q 19.734375 -1.421875 13.25 4.234375 
Q 6.78125 9.90625 6.78125 20.515625 
Q 6.78125 27.484375 10.78125 32.3125 
Q 14.796875 37.15625 21.921875 38.8125 
z
M 18.3125 54.390625 
Q 18.3125 48.734375 21.84375 45.5625 
Q 25.390625 42.390625 31.78125 42.390625 
Q 38.140625 42.390625 41.71875 45.5625 
Q 45.3125 48.734375 45.3125 54.390625 
Q 45.3125 60.0625 41.71875 63.234375 
Q 38.140625 66.40625 31.78125 66.40625 
Q 25.390625 66.40625 21.84375 63.234375 
Q 18.3125 60.0625 18.3125 54.390625 
z
" id="DejaVuSans-56"/>
      </defs>
      <g transform="translate(249.938467 322.182437)scale(0.1 -0.1)">
       <use xlink:href="#DejaVuSans-56"/>
       <use x="63.623047" xlink:href="#DejaVuSans-48"/>
       <use x="127.246094" xlink:href="#DejaVuSans-48"/>
      </g>
     </g>
    </g>
    <g id="xtick_6">
     <g id="line2d_6">
      <g>
       <use style="stroke:#000000;stroke-width:0.8;" x="305.89459" xlink:href="#mb3ea1d8e1c" y="307.584"/>
      </g>
     </g>
     <g id="text_6">
      <!-- 1000 -->
      <defs>
       <path d="M 12.40625 8.296875 
L 28.515625 8.296875 
L 28.515625 63.921875 
L 10.984375 60.40625 
L 10.984375 69.390625 
L 28.421875 72.90625 
L 38.28125 72.90625 
L 38.28125 8.296875 
L 54.390625 8.296875 
L 54.390625 0 
L 12.40625 0 
z
" id="DejaVuSans-49"/>
      </defs>
      <g transform="translate(293.16959 322.182437)scale(0.1 -0.1)">
       <use xlink:href="#DejaVuSans-49"/>
       <use x="63.623047" xlink:href="#DejaVuSans-48"/>
       <use x="127.246094" xlink:href="#DejaVuSans-48"/>
       <use x="190.869141" xlink:href="#DejaVuSans-48"/>
      </g>
     </g>
    </g>
    <g id="xtick_7">
     <g id="line2d_7">
      <g>
       <use style="stroke:#000000;stroke-width:0.8;" x="352.306962" xlink:href="#mb3ea1d8e1c" y="307.584"/>
      </g>
     </g>
     <g id="text_7">
      <!-- 1200 -->
      <g transform="translate(339.581962 322.182437)scale(0.1 -0.1)">
       <use xlink:href="#DejaVuSans-49"/>
       <use x="63.623047" xlink:href="#DejaVuSans-50"/>
       <use x="127.246094" xlink:href="#DejaVuSans-48"/>
       <use x="190.869141" xlink:href="#DejaVuSans-48"/>
      </g>
     </g>
    </g>
    <g id="xtick_8">
     <g id="line2d_8">
      <g>
       <use style="stroke:#000000;stroke-width:0.8;" x="398.719335" xlink:href="#mb3ea1d8e1c" y="307.584"/>
      </g>
     </g>
     <g id="text_8">
      <!-- 1400 -->
      <g transform="translate(385.994335 322.182437)scale(0.1 -0.1)">
       <use xlink:href="#DejaVuSans-49"/>
       <use x="63.623047" xlink:href="#DejaVuSans-52"/>
       <use x="127.246094" xlink:href="#DejaVuSans-48"/>
       <use x="190.869141" xlink:href="#DejaVuSans-48"/>
      </g>
     </g>
    </g>
   </g>
   <g id="matplotlib.axis_2">
    <g id="ytick_1">
     <g id="line2d_9">
      <defs>
       <path d="M 0 0 
L -3.5 0 
" id="m612d219855" style="stroke:#000000;stroke-width:0.8;"/>
      </defs>
      <g>
       <use style="stroke:#000000;stroke-width:0.8;" x="57.6" xlink:href="#m612d219855" y="283.682447"/>
      </g>
     </g>
     <g id="text_9">
      <!-- 0.0 -->
      <defs>
       <path d="M 10.6875 12.40625 
L 21 12.40625 
L 21 0 
L 10.6875 0 
z
" id="DejaVuSans-46"/>
      </defs>
      <g transform="translate(34.696875 287.481666)scale(0.1 -0.1)">
       <use xlink:href="#DejaVuSans-48"/>
       <use x="63.623047" xlink:href="#DejaVuSans-46"/>
       <use x="95.410156" xlink:href="#DejaVuSans-48"/>
      </g>
     </g>
    </g>
    <g id="ytick_2">
     <g id="line2d_10">
      <g>
       <use style="stroke:#000000;stroke-width:0.8;" x="57.6" xlink:href="#m612d219855" y="243.106697"/>
      </g>
     </g>
     <g id="text_10">
      <!-- 0.1 -->
      <g transform="translate(34.696875 246.905915)scale(0.1 -0.1)">
       <use xlink:href="#DejaVuSans-48"/>
       <use x="63.623047" xlink:href="#DejaVuSans-46"/>
       <use x="95.410156" xlink:href="#DejaVuSans-49"/>
      </g>
     </g>
    </g>
    <g id="ytick_3">
     <g id="line2d_11">
      <g>
       <use style="stroke:#000000;stroke-width:0.8;" x="57.6" xlink:href="#m612d219855" y="202.530946"/>
      </g>
     </g>
     <g id="text_11">
      <!-- 0.2 -->
      <g transform="translate(34.696875 206.330165)scale(0.1 -0.1)">
       <use xlink:href="#DejaVuSans-48"/>
       <use x="63.623047" xlink:href="#DejaVuSans-46"/>
       <use x="95.410156" xlink:href="#DejaVuSans-50"/>
      </g>
     </g>
    </g>
    <g id="ytick_4">
     <g id="line2d_12">
      <g>
       <use style="stroke:#000000;stroke-width:0.8;" x="57.6" xlink:href="#m612d219855" y="161.955195"/>
      </g>
     </g>
     <g id="text_12">
      <!-- 0.3 -->
      <defs>
       <path d="M 40.578125 39.3125 
Q 47.65625 37.796875 51.625 33 
Q 55.609375 28.21875 55.609375 21.1875 
Q 55.609375 10.40625 48.1875 4.484375 
Q 40.765625 -1.421875 27.09375 -1.421875 
Q 22.515625 -1.421875 17.65625 -0.515625 
Q 12.796875 0.390625 7.625 2.203125 
L 7.625 11.71875 
Q 11.71875 9.328125 16.59375 8.109375 
Q 21.484375 6.890625 26.8125 6.890625 
Q 36.078125 6.890625 40.9375 10.546875 
Q 45.796875 14.203125 45.796875 21.1875 
Q 45.796875 27.640625 41.28125 31.265625 
Q 36.765625 34.90625 28.71875 34.90625 
L 20.21875 34.90625 
L 20.21875 43.015625 
L 29.109375 43.015625 
Q 36.375 43.015625 40.234375 45.921875 
Q 44.09375 48.828125 44.09375 54.296875 
Q 44.09375 59.90625 40.109375 62.90625 
Q 36.140625 65.921875 28.71875 65.921875 
Q 24.65625 65.921875 20.015625 65.03125 
Q 15.375 64.15625 9.8125 62.3125 
L 9.8125 71.09375 
Q 15.4375 72.65625 20.34375 73.4375 
Q 25.25 74.21875 29.59375 74.21875 
Q 40.828125 74.21875 47.359375 69.109375 
Q 53.90625 64.015625 53.90625 55.328125 
Q 53.90625 49.265625 50.4375 45.09375 
Q 46.96875 40.921875 40.578125 39.3125 
z
" id="DejaVuSans-51"/>
      </defs>
      <g transform="translate(34.696875 165.754414)scale(0.1 -0.1)">
       <use xlink:href="#DejaVuSans-48"/>
       <use x="63.623047" xlink:href="#DejaVuSans-46"/>
       <use x="95.410156" xlink:href="#DejaVuSans-51"/>
      </g>
     </g>
    </g>
    <g id="ytick_5">
     <g id="line2d_13">
      <g>
       <use style="stroke:#000000;stroke-width:0.8;" x="57.6" xlink:href="#m612d219855" y="121.379444"/>
      </g>
     </g>
     <g id="text_13">
      <!-- 0.4 -->
      <g transform="translate(34.696875 125.178663)scale(0.1 -0.1)">
       <use xlink:href="#DejaVuSans-48"/>
       <use x="63.623047" xlink:href="#DejaVuSans-46"/>
       <use x="95.410156" xlink:href="#DejaVuSans-52"/>
      </g>
     </g>
    </g>
    <g id="ytick_6">
     <g id="line2d_14">
      <g>
       <use style="stroke:#000000;stroke-width:0.8;" x="57.6" xlink:href="#m612d219855" y="80.803694"/>
      </g>
     </g>
     <g id="text_14">
      <!-- 0.5 -->
      <defs>
       <path d="M 10.796875 72.90625 
L 49.515625 72.90625 
L 49.515625 64.59375 
L 19.828125 64.59375 
L 19.828125 46.734375 
Q 21.96875 47.46875 24.109375 47.828125 
Q 26.265625 48.1875 28.421875 48.1875 
Q 40.625 48.1875 47.75 41.5 
Q 54.890625 34.8125 54.890625 23.390625 
Q 54.890625 11.625 47.5625 5.09375 
Q 40.234375 -1.421875 26.90625 -1.421875 
Q 22.3125 -1.421875 17.546875 -0.640625 
Q 12.796875 0.140625 7.71875 1.703125 
L 7.71875 11.625 
Q 12.109375 9.234375 16.796875 8.0625 
Q 21.484375 6.890625 26.703125 6.890625 
Q 35.15625 6.890625 40.078125 11.328125 
Q 45.015625 15.765625 45.015625 23.390625 
Q 45.015625 31 40.078125 35.4375 
Q 35.15625 39.890625 26.703125 39.890625 
Q 22.75 39.890625 18.8125 39.015625 
Q 14.890625 38.140625 10.796875 36.28125 
z
" id="DejaVuSans-53"/>
      </defs>
      <g transform="translate(34.696875 84.602913)scale(0.1 -0.1)">
       <use xlink:href="#DejaVuSans-48"/>
       <use x="63.623047" xlink:href="#DejaVuSans-46"/>
       <use x="95.410156" xlink:href="#DejaVuSans-53"/>
      </g>
     </g>
    </g>
   </g>
   <g id="line2d_15">
    <path clip-path="url(#p053cbc440d)" d="M 73.832727 54.746176 
L 74.296851 55.714715 
L 74.760975 57.344793 
L 76.61747 65.316666 
L 77.081593 66.190712 
L 77.313655 66.330247 
L 77.545717 66.206377 
L 77.777779 65.929582 
L 78.241903 64.796354 
L 78.938088 62.011895 
L 80.098398 56.810428 
L 80.562521 55.391019 
L 81.026645 54.688829 
L 81.258707 54.648056 
L 81.490769 54.814933 
L 81.954892 55.734042 
L 82.651078 58.345918 
L 84.043449 64.384809 
L 84.507573 65.600599 
L 84.739635 65.927995 
L 84.971697 66.047392 
L 85.203759 65.968663 
L 85.43582 65.720002 
L 85.899944 64.631994 
L 86.59613 61.942875 
L 87.988501 56.035097 
L 88.452625 54.967947 
L 88.684686 54.715444 
L 88.916748 54.663444 
L 89.14881 54.818392 
L 89.612934 55.708478 
L 90.077058 57.273219 
L 92.165614 65.462177 
L 92.629738 65.958508 
L 92.8618 65.857954 
L 93.093862 65.627787 
L 93.557986 64.543548 
L 94.254171 61.825404 
L 95.646542 55.903961 
L 96.110666 54.831223 
L 96.342728 54.605304 
L 96.57479 54.560949 
L 96.806852 54.726188 
L 97.270975 55.642051 
L 97.735099 57.226705 
L 98.663347 61.380379 
L 99.359532 64.199133 
L 99.823656 65.425687 
L 100.28778 65.907379 
L 100.519841 65.824769 
L 100.751903 65.586691 
L 101.216027 64.492172 
L 101.912213 61.763692 
L 103.072522 56.653796 
L 103.536646 55.23528 
L 104.000769 54.520854 
L 104.232831 54.473846 
L 104.464893 54.629206 
L 104.929017 55.505342 
L 105.393141 57.089851 
L 107.249635 64.981538 
L 107.713759 65.860935 
L 107.945821 65.964946 
L 108.177883 65.874606 
L 108.409945 65.634765 
L 108.874068 64.551344 
L 109.570254 61.8191 
L 110.962625 55.886628 
L 111.426749 54.828039 
L 111.890873 54.430092 
L 112.122935 54.591526 
L 112.587058 55.516705 
L 113.051182 57.085136 
L 114.907677 64.780937 
L 115.371801 65.649154 
L 115.603862 65.769045 
L 115.835924 65.699389 
L 116.067986 65.453571 
L 116.53211 64.368347 
L 117.228296 61.649915 
L 118.620667 55.771878 
L 119.08479 54.700822 
L 119.316852 54.453004 
L 119.548914 54.400234 
L 119.780976 54.551887 
L 120.013038 54.897699 
L 120.477162 56.130157 
L 121.173347 58.965247 
L 122.333657 63.867076 
L 122.79778 65.070188 
L 123.029842 65.410801 
L 123.261904 65.541934 
L 123.493966 65.536014 
L 123.726028 65.354503 
L 124.190151 64.370752 
L 124.654275 62.719266 
L 126.51077 55.169462 
L 126.974894 54.437592 
L 127.206956 54.277173 
L 127.439017 54.409104 
L 127.903141 55.247098 
L 128.367265 56.766559 
L 130.455822 65.197383 
L 130.919945 65.749437 
L 131.152007 65.718691 
L 131.384069 65.492604 
L 131.848193 64.465071 
L 132.312317 62.790642 
L 134.168811 55.008077 
L 134.632935 54.142612 
L 134.864997 54.046148 
L 135.097059 54.144286 
L 135.561183 54.952561 
L 136.025306 56.507812 
L 136.953554 60.73057 
L 137.649739 63.758093 
L 138.113863 65.071999 
L 138.577987 65.609008 
L 138.810049 65.590993 
L 139.042111 65.353769 
L 139.506234 64.346747 
L 139.970358 62.682945 
L 141.826853 54.937565 
L 142.290977 54.130672 
L 142.523039 54.031838 
L 142.7551 54.131521 
L 142.987162 54.430761 
L 143.451286 55.619304 
L 144.147472 58.467879 
L 145.307781 63.645207 
L 145.771905 64.982379 
L 146.236028 65.538717 
L 146.46809 65.52199 
L 146.700152 65.300958 
L 147.164276 64.285064 
L 147.860461 61.612584 
L 149.252833 55.527771 
L 149.716956 54.3337 
L 149.949018 54.026769 
L 150.18108 53.927228 
L 150.413142 54.019305 
L 150.645204 54.311639 
L 151.109327 55.47742 
L 152.037575 59.38775 
L 152.965822 63.539287 
L 153.429946 64.882961 
L 153.662008 65.311805 
L 153.89407 65.483498 
L 154.126132 65.501432 
L 154.590255 64.896175 
L 155.054379 63.525831 
L 155.750565 60.510639 
L 156.910874 55.427303 
L 157.374998 54.227433 
L 157.60706 53.913963 
L 157.839121 53.805508 
L 158.071183 53.873683 
L 158.303245 54.174671 
L 158.767369 55.374013 
L 159.463554 58.266087 
L 160.391802 62.731634 
L 160.855926 64.385012 
L 161.320049 65.347565 
L 161.552111 65.536976 
L 161.784173 65.525893 
L 162.016235 65.300495 
L 162.480359 64.299613 
L 163.176544 61.621674 
L 164.568915 55.500226 
L 165.033039 54.305656 
L 165.265101 53.999302 
L 165.497163 53.89592 
L 165.729225 54.000737 
L 165.961287 54.294009 
L 166.42541 55.485226 
L 167.121596 58.447733 
L 168.281905 63.65129 
L 168.746029 64.952783 
L 168.978091 65.331114 
L 169.210153 65.492735 
L 169.442215 65.477913 
L 169.674276 65.239228 
L 170.1384 64.214737 
L 170.834586 61.544397 
L 172.226957 55.488119 
L 172.691081 54.323696 
L 172.923143 54.023878 
L 173.155204 53.920965 
L 173.387266 54.028291 
L 173.619328 54.32601 
L 174.083452 55.516972 
L 174.779637 58.367116 
L 175.939947 63.618751 
L 176.40407 64.892393 
L 176.868194 65.448311 
L 177.100256 65.428066 
L 177.332318 65.216362 
L 177.796442 64.18752 
L 178.492627 61.520742 
L 179.884998 55.489441 
L 180.349122 54.330582 
L 180.581184 54.030533 
L 180.813246 53.935598 
L 181.045308 54.048911 
L 181.27737 54.33898 
L 181.741493 55.535248 
L 182.437679 58.371362 
L 183.597988 63.657006 
L 184.062112 64.967861 
L 184.294174 65.34571 
L 184.526236 65.503557 
L 184.758297 65.482101 
L 184.990359 65.267043 
L 185.454483 64.242748 
L 186.150669 61.592334 
L 187.54304 55.573209 
L 188.007164 54.421078 
L 188.239225 54.125247 
L 188.471287 54.036579 
L 188.703349 54.146331 
L 188.935411 54.461895 
L 189.399535 55.659089 
L 189.863658 57.546721 
L 191.25603 63.711939 
L 191.720153 65.027824 
L 191.952215 65.404435 
L 192.184277 65.563382 
L 192.416339 65.536391 
L 192.648401 65.310961 
L 193.112525 64.286804 
L 193.80871 61.62852 
L 195.201081 55.648435 
L 195.665205 54.506154 
L 195.897267 54.209694 
L 196.129329 54.120804 
L 196.361391 54.248312 
L 196.593452 54.555797 
L 197.057576 55.737521 
L 197.753762 58.591094 
L 198.914071 63.66923 
L 199.378195 64.95535 
L 199.842319 65.464611 
L 200.07438 65.463564 
L 200.306442 65.245769 
L 200.770566 64.214611 
L 201.466752 61.604472 
L 202.859123 55.691611 
L 203.323246 54.556592 
L 203.78737 54.133748 
L 204.019432 54.243973 
L 204.483556 55.066165 
L 204.94768 56.555458 
L 206.107989 61.684072 
L 206.572113 63.687514 
L 207.036236 64.954022 
L 207.268298 65.314241 
L 207.50036 65.457284 
L 207.732422 65.438131 
L 207.964484 65.212575 
L 208.428607 64.196299 
L 209.124793 61.566122 
L 210.517164 55.685875 
L 210.981288 54.566006 
L 211.21335 54.278225 
L 211.445412 54.257422 
L 211.677474 54.373583 
L 212.141597 55.148615 
L 212.605721 56.655554 
L 213.533968 60.68954 
L 214.230154 63.582685 
L 214.694278 64.850731 
L 214.92634 65.208416 
L 215.158401 65.361167 
L 215.390463 65.346838 
L 215.854587 64.790109 
L 216.318711 63.485678 
L 217.014896 60.642109 
L 218.175206 55.838058 
L 218.639329 54.71245 
L 218.871391 54.418189 
L 219.103453 54.323188 
L 219.335515 54.425813 
L 219.799639 55.154646 
L 220.263762 56.633377 
L 221.424072 61.695245 
L 222.120257 64.284467 
L 222.584381 65.198586 
L 222.816443 65.35825 
L 223.048505 65.350217 
L 223.280567 65.150213 
L 223.74469 64.199022 
L 224.208814 62.613243 
L 226.065309 55.115388 
L 226.529433 54.313428 
L 226.761495 54.205111 
L 226.993556 54.254689 
L 227.45768 55.008009 
L 227.921804 56.483993 
L 228.850051 60.562095 
L 229.546237 63.488627 
L 230.010361 64.762617 
L 230.474484 65.317917 
L 230.706546 65.319277 
L 230.938608 65.163912 
L 231.402732 64.244839 
L 231.866856 62.680596 
L 233.72335 55.229006 
L 234.187474 54.432147 
L 234.419536 54.318096 
L 234.651598 54.404652 
L 234.88366 54.649121 
L 235.347783 55.780875 
L 236.043969 58.488395 
L 237.204278 63.454886 
L 237.668402 64.707995 
L 238.132526 65.293808 
L 238.364588 65.331566 
L 238.59665 65.206343 
L 239.060773 64.317309 
L 239.524897 62.774738 
L 241.381392 55.230635 
L 241.845516 54.398873 
L 242.309639 54.230524 
L 242.541701 54.501136 
L 243.005825 55.639652 
L 243.702011 58.353637 
L 244.86232 63.450038 
L 245.326444 64.70696 
L 245.790567 65.374186 
L 246.022629 65.422676 
L 246.254691 65.253388 
L 246.718815 64.35089 
L 247.182938 62.794459 
L 249.039433 55.213105 
L 249.503557 54.375357 
L 249.967681 54.199449 
L 250.199743 54.472804 
L 250.663866 55.600073 
L 251.360052 58.318755 
L 252.520361 63.510679 
L 252.984485 64.831609 
L 253.448609 65.423253 
L 253.680671 65.449352 
L 253.912732 65.272779 
L 254.376856 64.351142 
L 254.84098 62.772553 
L 256.697475 55.138304 
L 257.161599 54.289031 
L 257.39366 54.156808 
L 257.625722 54.228311 
L 257.857784 54.499356 
L 258.321908 55.585836 
L 259.018093 58.323595 
L 260.410465 64.180353 
L 260.874588 65.168646 
L 261.10665 65.402137 
L 261.338712 65.422916 
L 261.570774 65.257739 
L 262.034898 64.350356 
L 262.499021 62.789552 
L 264.355516 55.131335 
L 264.81964 54.264604 
L 265.051702 54.133209 
L 265.283764 54.195875 
L 265.515826 54.461062 
L 265.979949 55.587617 
L 266.676135 58.308182 
L 268.068506 64.242289 
L 268.53263 65.251318 
L 268.764692 65.493249 
L 268.996754 65.489213 
L 269.228815 65.333429 
L 269.692939 64.454437 
L 270.157063 62.896201 
L 272.24562 54.68976 
L 272.709743 54.181799 
L 272.941805 54.231406 
L 273.173867 54.45356 
L 273.637991 55.519337 
L 274.102114 57.186179 
L 275.494486 63.432111 
L 275.958609 64.8007 
L 276.422733 65.477716 
L 276.654795 65.52449 
L 276.886857 65.372272 
L 277.118919 65.037926 
L 277.583042 63.80801 
L 278.279228 60.998721 
L 279.439537 56.00894 
L 279.903661 54.740516 
L 280.367785 54.215135 
L 280.599847 54.258572 
L 280.831909 54.498716 
L 281.296032 55.528818 
L 281.992218 58.190762 
L 282.920465 62.506811 
L 283.384589 64.21327 
L 283.848713 65.204306 
L 284.080775 65.468771 
L 284.312836 65.533305 
L 284.544898 65.426743 
L 284.77696 65.117501 
L 285.241084 63.931744 
L 285.937269 61.163329 
L 287.097579 56.146274 
L 287.561703 54.876799 
L 288.025826 54.318579 
L 288.257888 54.290622 
L 288.48995 54.50602 
L 288.954074 55.514944 
L 289.650259 58.112971 
L 291.04263 63.967374 
L 291.506754 65.088916 
L 291.738816 65.394687 
L 291.970878 65.488015 
L 292.20294 65.381068 
L 292.667063 64.596809 
L 293.131187 63.14978 
L 294.059435 59.114008 
L 294.75562 56.2444 
L 295.219744 54.936033 
L 295.683868 54.331676 
L 295.91593 54.326761 
L 296.147991 54.522061 
L 296.380053 54.879641 
L 296.844177 56.192642 
L 297.772424 60.211237 
L 298.700672 63.942463 
L 299.164796 65.083675 
L 299.396857 65.411603 
L 299.628919 65.546718 
L 299.860981 65.447863 
L 300.093043 65.168557 
L 300.557167 64.035294 
L 301.253352 61.3201 
L 302.645724 55.539376 
L 303.109847 54.533442 
L 303.341909 54.310315 
L 303.573971 54.251627 
L 303.806033 54.438112 
L 304.270157 55.325155 
L 304.73428 56.91996 
L 306.590775 64.573306 
L 307.054899 65.427705 
L 307.286961 65.586572 
L 307.519023 65.537642 
L 307.751085 65.298882 
L 308.215208 64.191492 
L 308.911394 61.451984 
L 310.303765 55.484636 
L 310.767889 54.391931 
L 310.999951 54.13865 
L 311.232012 54.095418 
L 311.464074 54.25557 
L 311.928198 55.186962 
L 312.392322 56.73803 
L 314.480879 65.067296 
L 314.71294 65.432579 
L 314.945002 65.587747 
L 315.177064 65.536942 
L 315.409126 65.300843 
L 315.87325 64.238111 
L 316.569435 61.536495 
L 317.961806 55.520152 
L 318.42593 54.398174 
L 318.657992 54.030018 
L 318.890054 53.956456 
L 319.122116 54.100351 
L 319.58624 54.984185 
L 320.282425 57.564735 
L 321.674796 63.764123 
L 322.13892 65.063245 
L 322.603044 65.661456 
L 322.835106 65.641158 
L 323.067167 65.395019 
L 323.531291 64.318758 
L 323.995415 62.610031 
L 325.85191 54.806449 
L 326.316034 54.04758 
L 326.548095 53.971332 
L 326.780157 54.102028 
L 327.012219 54.438841 
L 327.476343 55.682165 
L 328.172528 58.607895 
L 329.332838 63.780618 
L 329.796961 65.041978 
L 330.261085 65.606578 
L 330.493147 65.591811 
L 330.725209 65.356331 
L 331.189333 64.302092 
L 331.885518 61.588239 
L 333.277889 55.527917 
L 333.742013 54.382422 
L 333.974075 54.091782 
L 334.206137 54.010495 
L 334.438199 54.134851 
L 334.902322 54.952848 
L 335.366446 56.496394 
L 336.526755 61.744167 
L 337.222941 64.387046 
L 337.687065 65.361845 
L 337.919127 65.561939 
L 338.151189 65.578211 
L 338.38325 65.373698 
L 338.847374 64.331062 
L 339.54356 61.642724 
L 340.935931 55.581694 
L 341.400055 54.404183 
L 341.632116 54.050566 
L 341.864178 53.954358 
L 342.09624 54.063256 
L 342.328302 54.34567 
L 342.792426 55.518371 
L 343.488611 58.335308 
L 344.648921 63.563566 
L 345.113044 64.937265 
L 345.577168 65.5876 
L 345.80923 65.612383 
L 346.041292 65.407678 
L 346.505416 64.404256 
L 347.201601 61.707279 
L 348.593972 55.546183 
L 349.058096 54.322929 
L 349.290158 53.988904 
L 349.52222 53.889627 
L 349.754282 53.97909 
L 349.986343 54.241888 
L 350.450467 55.374654 
L 350.914591 57.153575 
L 352.306962 63.485713 
L 352.771086 64.858076 
L 353.23521 65.538518 
L 353.467271 65.55746 
L 353.699333 65.350675 
L 354.163457 64.36008 
L 354.627581 62.696236 
L 356.484076 54.822888 
L 356.948199 53.923952 
L 357.180261 53.755219 
L 357.412323 53.813141 
L 357.644385 54.114126 
L 358.108509 55.288402 
L 358.804694 58.104261 
L 359.965004 63.373521 
L 360.429127 64.762462 
L 360.893251 65.440053 
L 361.125313 65.477097 
L 361.357375 65.276171 
L 361.821498 64.274956 
L 362.517684 61.58788 
L 363.910055 55.371977 
L 364.374179 54.140722 
L 364.838303 53.661075 
L 365.070365 53.743281 
L 365.302426 54.027188 
L 365.76655 55.202498 
L 366.462736 58.028567 
L 367.855107 64.172445 
L 368.319231 65.188301 
L 368.551292 65.432913 
L 368.783354 65.469932 
L 369.015416 65.276812 
L 369.47954 64.275327 
L 370.175726 61.586583 
L 371.568097 55.36309 
L 372.03222 54.114598 
L 372.264282 53.771131 
L 372.496344 53.665663 
L 372.728406 53.709772 
L 372.960468 54.004214 
L 373.424592 55.179926 
L 374.120777 58.086865 
L 375.281086 63.352417 
L 375.74521 64.705934 
L 376.209334 65.3617 
L 376.441396 65.40677 
L 376.673458 65.226017 
L 377.137581 64.236878 
L 377.601705 62.568417 
L 379.4582 54.634388 
L 379.922324 53.765027 
L 380.154386 53.663007 
L 380.386447 53.70956 
L 380.618509 54.018841 
L 381.082633 55.222757 
L 381.778819 58.081326 
L 382.939128 63.328075 
L 383.403252 64.686504 
L 383.867375 65.348853 
L 384.099437 65.381082 
L 384.331499 65.198337 
L 384.795623 64.200027 
L 385.259747 62.566086 
L 387.116241 54.709313 
L 387.580365 53.772276 
L 387.812427 53.663419 
L 388.044489 53.744724 
L 388.276551 54.00197 
L 388.740675 55.167159 
L 389.43686 58.018441 
L 390.829231 64.109092 
L 391.293355 65.180621 
L 391.525417 65.440211 
L 391.757479 65.471794 
L 391.989541 65.304502 
L 392.453664 64.334981 
L 393.14985 61.67189 
L 394.774283 54.685056 
L 395.238407 53.819031 
L 395.470469 53.568 
L 395.70253 53.611067 
L 395.934592 53.900989 
L 396.398716 55.060526 
L 397.094902 57.947171 
L 398.255211 63.231965 
L 398.487273 64.010521 
L 398.487273 64.010521 
" style="fill:none;stroke:#1f77b4;stroke-linecap:square;stroke-width:1.5;"/>
   </g>
   <g id="line2d_16">
    <path clip-path="url(#p053cbc440d)" d="M 73.832727 65.935118 
L 74.296851 64.96852 
L 74.760975 63.350526 
L 76.61747 55.758621 
L 77.081593 54.882186 
L 77.313655 54.742858 
L 77.545717 54.806792 
L 77.777779 55.059021 
L 78.241903 56.167876 
L 78.938088 58.921369 
L 80.330459 64.831348 
L 80.794583 65.892902 
L 81.026645 66.137646 
L 81.258707 66.170132 
L 81.490769 65.997394 
L 81.722831 65.627899 
L 82.186954 64.308962 
L 82.88314 61.433127 
L 83.811387 57.307465 
L 84.275511 55.751459 
L 84.739635 54.86324 
L 84.971697 54.712714 
L 85.203759 54.76289 
L 85.43582 55.018823 
L 85.899944 56.077314 
L 86.59613 58.747255 
L 87.988501 64.661034 
L 88.452625 65.69855 
L 88.684686 65.942154 
L 88.916748 65.986757 
L 89.14881 65.824253 
L 89.612934 64.924396 
L 90.077058 63.369806 
L 92.165614 55.087595 
L 92.397676 54.746859 
L 92.629738 54.604817 
L 92.8618 54.667381 
L 93.093862 54.932386 
L 93.557986 55.987787 
L 94.254171 58.714011 
L 95.646542 64.610968 
L 96.110666 65.690847 
L 96.342728 65.938479 
L 96.57479 65.972423 
L 96.806852 65.796692 
L 97.270975 64.87137 
L 97.735099 63.280997 
L 99.823656 54.993353 
L 100.055718 54.648456 
L 100.28778 54.505356 
L 100.519841 54.564064 
L 100.751903 54.817994 
L 101.216027 55.905863 
L 101.912213 58.607174 
L 103.304584 64.504004 
L 103.768708 65.628695 
L 104.000769 65.876257 
L 104.232831 65.922327 
L 104.464893 65.760441 
L 104.929017 64.843944 
L 105.393141 63.272779 
L 107.249635 55.561072 
L 107.713759 54.722837 
L 107.945821 54.58225 
L 108.177883 54.651271 
L 108.409945 54.90893 
L 108.874068 56.003031 
L 109.570254 58.716604 
L 110.730563 63.808088 
L 111.194687 65.193538 
L 111.658811 65.878636 
L 111.890873 65.891091 
L 112.122935 65.723014 
L 112.587058 64.798103 
L 113.051182 63.205315 
L 114.907677 55.441683 
L 115.371801 54.546248 
L 115.603862 54.392487 
L 115.835924 54.450866 
L 116.067986 54.710745 
L 116.53211 55.784453 
L 117.228296 58.462236 
L 118.620667 64.366586 
L 119.08479 65.424048 
L 119.316852 65.669005 
L 119.548914 65.710944 
L 119.780976 65.554451 
L 120.2451 64.653418 
L 120.709223 63.116014 
L 122.79778 54.883121 
L 123.261904 54.359378 
L 123.493966 54.397762 
L 123.726028 54.633927 
L 124.190151 55.671569 
L 124.886337 58.357479 
L 126.278708 64.217972 
L 126.742832 65.347521 
L 127.206956 65.754154 
L 127.439017 65.613781 
L 127.903141 64.741787 
L 128.367265 63.207271 
L 130.455822 54.787372 
L 130.919945 54.207376 
L 131.152007 54.214737 
L 131.384069 54.426026 
L 131.848193 55.459574 
L 132.312317 57.125587 
L 134.168811 64.814872 
L 134.632935 65.609701 
L 134.864997 65.698925 
L 135.097059 65.57437 
L 135.329121 65.253279 
L 135.793245 64.064011 
L 136.48943 61.184221 
L 137.649739 55.993246 
L 138.113863 54.660936 
L 138.577987 54.075659 
L 138.810049 54.082617 
L 139.042111 54.292027 
L 139.506234 55.297936 
L 139.970358 56.937707 
L 141.826853 64.704332 
L 142.290977 65.494577 
L 142.523039 65.622853 
L 142.7551 65.507023 
L 142.987162 65.187594 
L 143.451286 63.984613 
L 144.147472 61.131811 
L 145.307781 55.955248 
L 145.771905 54.609275 
L 146.236028 54.031588 
L 146.46809 54.036543 
L 146.700152 54.248653 
L 147.164276 55.230853 
L 147.6284 56.873892 
L 149.484894 64.606574 
L 149.949018 65.417866 
L 150.18108 65.514876 
L 150.413142 65.402855 
L 150.645204 65.091601 
L 151.109327 63.904914 
L 151.805513 61.068996 
L 152.965822 55.828587 
L 153.429946 54.476159 
L 153.89407 53.865962 
L 154.126132 53.848358 
L 154.358194 54.06381 
L 154.822317 55.074621 
L 155.518503 57.796097 
L 156.910874 63.926028 
L 157.374998 65.109291 
L 157.60706 65.409584 
L 157.839121 65.511927 
L 158.071183 65.402451 
L 158.303245 65.098579 
L 158.767369 63.903431 
L 159.463554 61.068077 
L 160.623864 55.871683 
L 161.087988 54.509871 
L 161.552111 53.916679 
L 161.784173 53.921142 
L 162.016235 54.134117 
L 162.480359 55.14288 
L 162.944482 56.859605 
L 164.800977 64.634946 
L 165.265101 65.442127 
L 165.497163 65.545126 
L 165.729225 65.434751 
L 165.961287 65.117556 
L 166.42541 63.919353 
L 167.121596 61.088405 
L 168.281905 55.912974 
L 168.746029 54.561394 
L 169.210153 53.970012 
L 169.442215 53.976288 
L 169.674276 54.194487 
L 170.1384 55.228356 
L 170.834586 57.873593 
L 172.226957 63.912651 
L 172.691081 65.03672 
L 173.155204 65.398994 
L 173.387266 65.297655 
L 173.619328 64.984846 
L 174.083452 63.787334 
L 174.779637 60.99425 
L 176.172009 55.164222 
L 176.636132 54.187259 
L 176.868194 53.987627 
L 177.100256 54.030823 
L 177.332318 54.217569 
L 177.796442 55.231357 
L 178.492627 57.878228 
L 179.884998 63.899046 
L 180.349122 65.051353 
L 180.581184 65.345004 
L 180.813246 65.434816 
L 181.045308 65.317716 
L 181.27737 64.996968 
L 181.741493 63.832184 
L 182.205617 62.098027 
L 183.83005 55.213322 
L 184.294174 54.22615 
L 184.526236 54.030089 
L 184.758297 54.075493 
L 184.990359 54.292356 
L 185.454483 55.322565 
L 186.150669 57.975986 
L 187.54304 63.942357 
L 188.007164 65.08831 
L 188.239225 65.381462 
L 188.471287 65.470276 
L 188.703349 65.434029 
L 189.167473 64.59163 
L 189.631597 63.075224 
L 190.559844 58.998437 
L 191.25603 56.088033 
L 191.720153 54.778688 
L 192.184277 54.172572 
L 192.416339 54.186309 
L 192.648401 54.398979 
L 193.112525 55.40744 
L 193.80871 58.037885 
L 195.201081 64.018169 
L 195.665205 65.150914 
L 195.897267 65.437597 
L 196.129329 65.524219 
L 196.361391 65.4126 
L 196.825514 64.601687 
L 197.289638 63.098848 
L 198.449947 57.940655 
L 199.146133 55.343642 
L 199.610257 54.383479 
L 199.842319 54.213 
L 200.07438 54.216886 
L 200.306442 54.427097 
L 200.770566 55.450986 
L 201.466752 58.043099 
L 202.859123 63.90371 
L 203.323246 65.024838 
L 203.555308 65.311244 
L 203.78737 65.400819 
L 204.019432 65.28607 
L 204.251494 64.972959 
L 204.715618 63.801802 
L 205.411803 61.064757 
L 206.572113 56.074294 
L 207.036236 54.785446 
L 207.50036 54.217565 
L 207.732422 54.239957 
L 207.964484 54.464177 
L 208.428607 55.472996 
L 209.124793 58.106546 
L 210.517164 63.952155 
L 210.981288 65.068912 
L 211.21335 65.348324 
L 211.445412 65.426611 
L 211.677474 65.304986 
L 212.141597 64.469888 
L 212.605721 62.986389 
L 214.694278 54.874512 
L 215.158401 54.312027 
L 215.390463 54.338621 
L 215.622525 54.541338 
L 215.854587 54.931306 
L 216.550773 57.156664 
L 218.407268 64.551721 
L 218.871391 65.283706 
L 219.103453 65.374825 
L 219.335515 65.268688 
L 219.567577 65.013385 
L 220.031701 63.870171 
L 220.727886 61.21121 
L 222.120257 55.452133 
L 222.584381 54.495717 
L 222.816443 54.293598 
L 223.048505 54.266703 
L 223.280567 54.470383 
L 223.74469 55.419652 
L 224.208814 57.007619 
L 226.065309 64.477371 
L 226.529433 65.270038 
L 226.761495 65.433858 
L 226.993556 65.325917 
L 227.225618 65.024363 
L 227.689742 63.882642 
L 228.385928 61.142892 
L 229.546237 56.122516 
L 230.010361 54.801106 
L 230.474484 54.192175 
L 230.706546 54.19323 
L 231.17067 54.887995 
L 231.634794 56.204869 
L 232.330979 59.028336 
L 233.491289 63.85599 
L 233.955412 64.997037 
L 234.187474 65.301267 
L 234.419536 65.409485 
L 234.651598 65.322943 
L 235.115722 64.616685 
L 235.579845 63.159736 
L 236.508093 59.138721 
L 237.204278 56.25273 
L 237.668402 54.932757 
L 238.132526 54.313176 
L 238.364588 54.295309 
L 238.59665 54.469079 
L 239.060773 55.423623 
L 239.524897 56.970594 
L 241.381392 64.492396 
L 241.845516 65.291312 
L 242.077577 65.416586 
L 242.309639 65.334778 
L 242.773763 64.617446 
L 243.469949 62.253664 
L 245.326444 54.898329 
L 245.790567 54.261943 
L 246.022629 54.23573 
L 246.254691 54.414158 
L 246.718815 55.330091 
L 247.182938 56.933345 
L 249.039433 64.519742 
L 249.503557 65.347127 
L 249.735619 65.472801 
L 249.967681 65.388188 
L 250.431805 64.66814 
L 250.895928 63.223433 
L 251.824176 59.146355 
L 252.520361 56.208415 
L 252.984485 54.85228 
L 253.448609 54.216124 
L 253.680671 54.192375 
L 253.912732 54.374741 
L 254.376856 55.303073 
L 255.073042 57.878208 
L 256.465413 63.829978 
L 256.929537 65.01224 
L 257.161599 65.341251 
L 257.39366 65.45737 
L 257.857784 65.042215 
L 258.321908 63.959824 
L 259.018093 61.260655 
L 260.178403 56.260592 
L 260.642526 54.906206 
L 261.10665 54.217589 
L 261.338712 54.193222 
L 261.570774 54.368864 
L 262.034898 55.292178 
L 262.731083 57.802555 
L 264.123454 63.781193 
L 264.587578 64.993662 
L 264.81964 65.33072 
L 265.051702 65.466491 
L 265.283764 65.457502 
L 265.515826 65.185888 
L 265.979949 64.090358 
L 266.676135 61.384273 
L 268.068506 55.551133 
L 268.53263 54.494466 
L 268.764692 54.249052 
L 268.996754 54.205055 
L 269.228815 54.37299 
L 269.692939 55.264213 
L 270.157063 56.819297 
L 272.24562 65.011456 
L 272.477681 65.380446 
L 272.709743 65.529053 
L 272.941805 65.473183 
L 273.173867 65.215714 
L 273.637991 64.136336 
L 274.334176 61.462495 
L 275.726548 55.568791 
L 276.190671 54.496246 
L 276.422733 54.242825 
L 276.654795 54.210804 
L 277.118919 54.737137 
L 277.583042 55.986295 
L 278.279228 58.813646 
L 279.439537 63.782327 
L 279.903661 65.020063 
L 280.367785 65.547731 
L 280.599847 65.50103 
L 280.831909 65.258312 
L 281.296032 64.190872 
L 281.992218 61.525573 
L 283.384589 55.674748 
L 283.848713 54.662452 
L 284.080775 54.391088 
L 284.312836 54.327851 
L 284.544898 54.471298 
L 285.009022 55.319739 
L 285.473146 56.850907 
L 287.561703 64.950481 
L 288.025826 65.515278 
L 288.257888 65.497894 
L 288.48995 65.279029 
L 288.954074 64.292422 
L 289.650259 61.682152 
L 291.04263 55.765071 
L 291.506754 54.619641 
L 291.738816 54.328409 
L 291.970878 54.23769 
L 292.20294 54.382623 
L 292.435002 54.690479 
L 292.899125 55.873907 
L 293.595311 58.616713 
L 294.75562 63.604088 
L 295.219744 64.914731 
L 295.683868 65.50768 
L 295.91593 65.506229 
L 296.147991 65.300526 
L 296.612115 64.333063 
L 297.308301 61.774931 
L 298.700672 55.877013 
L 299.164796 54.725182 
L 299.628919 54.324776 
L 299.860981 54.418274 
L 300.325105 55.168472 
L 300.789229 56.618866 
L 301.717476 60.654833 
L 302.413662 63.554403 
L 302.877785 64.889849 
L 303.341909 65.544001 
L 303.573971 65.560229 
L 303.806033 65.368808 
L 304.270157 64.441437 
L 304.73428 62.824008 
L 306.590775 55.154886 
L 307.054899 54.300743 
L 307.286961 54.166922 
L 307.519023 54.237604 
L 307.751085 54.507938 
L 308.215208 55.600975 
L 308.911394 58.316835 
L 310.303765 64.246532 
L 310.767889 65.318348 
L 310.999951 65.588518 
L 311.232012 65.637766 
L 311.464074 65.473055 
L 311.928198 64.556032 
L 312.392322 62.965136 
L 314.480879 54.613313 
L 314.71294 54.250794 
L 314.945002 54.094544 
L 315.177064 54.141565 
L 315.409126 54.392197 
L 315.87325 55.463974 
L 316.569435 58.163995 
L 317.961806 64.169744 
L 318.42593 65.24142 
L 318.890054 65.651378 
L 319.122116 65.506763 
L 319.58624 64.616307 
L 320.050363 63.03367 
L 322.13892 54.573169 
L 322.603044 53.995962 
L 322.835106 54.014092 
L 323.067167 54.254808 
L 323.531291 55.324335 
L 324.227477 58.071961 
L 325.619848 64.17069 
L 326.083972 65.309244 
L 326.316034 65.589948 
L 326.548095 65.645124 
L 326.780157 65.508297 
L 327.244281 64.622758 
L 327.708405 63.057597 
L 329.796961 54.562532 
L 330.029023 54.185095 
L 330.261085 54.036854 
L 330.493147 54.044168 
L 330.725209 54.284122 
L 331.189333 55.38173 
L 331.885518 58.097024 
L 333.277889 64.125112 
L 333.742013 65.254447 
L 333.974075 65.537245 
L 334.206137 65.614039 
L 334.438199 65.481975 
L 334.670261 65.150284 
L 335.134384 63.867181 
L 335.83057 61.008529 
L 336.990879 55.919094 
L 337.455003 54.593779 
L 337.919127 54.009041 
L 338.151189 54.025662 
L 338.38325 54.249522 
L 338.847374 55.278065 
L 339.54356 57.980026 
L 340.935931 64.042257 
L 341.400055 65.214916 
L 341.632116 65.554674 
L 341.864178 65.649691 
L 342.09624 65.535539 
L 342.328302 65.214428 
L 342.792426 64.003266 
L 343.488611 61.136807 
L 344.648921 55.878377 
L 345.113044 54.498778 
L 345.345106 54.081406 
L 345.577168 53.90346 
L 345.80923 53.89664 
L 346.041292 54.101012 
L 346.505416 55.133071 
L 347.201601 57.807998 
L 348.593972 63.94198 
L 349.058096 65.156749 
L 349.290158 65.472907 
L 349.52222 65.577094 
L 349.754282 65.475882 
L 349.986343 65.177128 
L 350.450467 64.002147 
L 351.146653 61.179638 
L 352.539024 55.137215 
L 353.003148 54.097363 
L 353.23521 53.873479 
L 353.467271 53.863116 
L 353.699333 54.060114 
L 354.163457 55.076302 
L 354.627581 56.724454 
L 356.484076 64.575112 
L 356.948199 65.430282 
L 357.180261 65.549161 
L 357.412323 65.447935 
L 357.876447 64.618245 
L 358.340571 63.097773 
L 359.268818 58.808237 
L 360.197065 54.992414 
L 360.661189 53.935307 
L 360.893251 53.707273 
L 361.125313 53.689864 
L 361.357375 53.883646 
L 361.821498 54.893684 
L 362.285622 56.621511 
L 363.21387 60.868795 
L 363.910055 63.767474 
L 364.374179 65.012064 
L 364.606241 65.344118 
L 364.838303 65.465954 
L 365.070365 65.377274 
L 365.302426 65.083631 
L 365.76655 63.912381 
L 366.462736 61.073496 
L 367.623045 55.754284 
L 368.087169 54.354294 
L 368.551292 53.689956 
L 368.783354 53.664379 
L 369.015416 53.865901 
L 369.47954 54.861121 
L 369.943664 56.512552 
L 371.800159 64.499342 
L 372.264282 65.366141 
L 372.496344 65.491839 
L 372.728406 65.410288 
L 372.960468 65.112611 
L 373.19253 64.617874 
L 373.888715 62.069524 
L 375.513148 54.933297 
L 375.977272 53.885094 
L 376.209334 53.649964 
L 376.441396 53.639684 
L 376.673458 53.839007 
L 377.137581 54.839306 
L 377.833767 57.53435 
L 379.226138 63.767818 
L 379.690262 64.998904 
L 379.922324 65.327682 
L 380.154386 65.452549 
L 380.386447 65.352299 
L 380.618509 65.055569 
L 381.082633 63.806664 
L 381.778819 60.955482 
L 382.939128 55.81371 
L 383.403252 54.419237 
L 383.867375 53.750965 
L 384.099437 53.732532 
L 384.331499 53.938981 
L 384.795623 54.925437 
L 385.259747 56.564022 
L 387.116241 64.407628 
L 387.580365 65.26499 
L 387.812427 65.391532 
L 388.044489 65.309995 
L 388.276551 65.015473 
L 388.740675 63.866934 
L 389.43686 61.037669 
L 390.597169 55.849332 
L 391.061293 54.438087 
L 391.525417 53.742904 
L 391.757479 53.716428 
L 391.989541 53.8976 
L 392.453664 54.86797 
L 392.917788 56.51309 
L 394.774283 64.45892 
L 395.238407 65.34182 
L 395.470469 65.484617 
L 395.70253 65.406066 
L 395.934592 65.116274 
L 396.398716 63.94374 
L 397.094902 61.059904 
L 398.487273 54.861613 
L 398.487273 54.861613 
" style="fill:none;stroke:#ff0000;stroke-linecap:square;stroke-width:1.5;"/>
   </g>
   <g id="line2d_17">
    <path clip-path="url(#p053cbc440d)" d="M 73.832727 272.493505 
L 74.296851 274.428642 
L 74.760975 277.676714 
L 76.61747 293.240492 
L 77.081593 294.990974 
L 77.313655 295.269836 
L 77.545717 295.082032 
L 77.777779 294.553008 
L 78.241903 292.310925 
L 78.938088 286.772974 
L 80.330459 274.874594 
L 80.794583 272.73012 
L 81.026645 272.23363 
L 81.258707 272.160372 
L 81.490769 272.499987 
L 81.722831 273.238694 
L 82.186954 275.872894 
L 82.88314 281.634928 
L 84.043449 291.610836 
L 84.507573 294.06811 
L 84.739635 294.747202 
L 84.971697 295.017125 
L 85.203759 294.888221 
L 85.43582 294.383627 
L 85.899944 292.237127 
L 86.59613 286.878067 
L 87.988501 275.05651 
L 88.452625 272.951844 
L 88.684686 272.455737 
L 88.916748 272.359134 
L 89.14881 272.676586 
L 89.380872 273.384515 
L 89.844996 275.881439 
L 90.541181 281.549319 
L 91.701491 291.652649 
L 92.165614 294.057029 
L 92.397676 294.728206 
L 92.629738 295.036139 
L 92.8618 294.87302 
L 93.093862 294.377849 
L 93.557986 292.238208 
L 94.254171 286.79384 
L 95.646542 274.975441 
L 96.110666 272.822823 
L 96.342728 272.349273 
L 96.57479 272.270973 
L 96.806852 272.611943 
L 97.038914 273.34387 
L 97.503037 275.899207 
L 98.199223 281.582074 
L 99.359532 291.643097 
L 99.823656 294.114781 
L 100.055718 294.777914 
L 100.28778 295.08447 
L 100.519841 294.943152 
L 100.751903 294.451145 
L 101.216027 292.268756 
L 101.912213 286.838965 
L 103.304584 275.04595 
L 103.768708 272.828224 
L 104.000769 272.327044 
L 104.232831 272.233967 
L 104.464893 272.551212 
L 104.696955 273.26116 
L 105.161079 275.774777 
L 105.857264 281.63835 
L 107.017574 291.727976 
L 107.481697 294.122852 
L 107.713759 294.820545 
L 107.945821 295.065144 
L 108.177883 294.905782 
L 108.409945 294.408283 
L 108.874068 292.23076 
L 109.570254 286.784943 
L 110.962625 274.990204 
L 111.426749 272.879668 
L 111.658811 272.390143 
L 111.890873 272.221449 
L 112.122935 272.550959 
L 112.354996 273.28413 
L 112.81912 275.818523 
L 113.515306 281.615252 
L 114.675615 291.635715 
L 115.139739 294.087023 
L 115.371801 294.785353 
L 115.603862 295.059006 
L 115.835924 294.93097 
L 116.067986 294.425273 
L 116.53211 292.266341 
L 117.228296 286.870126 
L 118.620667 275.087739 
L 119.08479 272.959222 
L 119.316852 272.466446 
L 119.548914 272.371738 
L 119.780976 272.679883 
L 120.013038 273.380281 
L 120.477162 275.849716 
L 121.173347 281.500126 
L 122.333657 291.428653 
L 122.79778 293.869514 
L 123.029842 294.570901 
L 123.261904 294.865004 
L 123.493966 294.820699 
L 123.726028 294.403023 
L 124.190151 292.381631 
L 124.886337 287.041043 
L 126.278708 275.267724 
L 126.742832 273.044916 
L 127.206956 272.205467 
L 127.439017 272.477771 
L 127.671079 273.142836 
L 128.135203 275.54851 
L 128.831389 281.108489 
L 129.991698 291.467772 
L 130.455822 294.092458 
L 130.687884 294.848253 
L 130.919945 295.224509 
L 131.152007 295.186401 
L 131.384069 294.749026 
L 131.848193 292.687945 
L 132.312317 289.347503 
L 134.168811 273.875653 
L 134.632935 272.215358 
L 134.864997 272.029671 
L 135.097059 272.252364 
L 135.561183 273.899727 
L 136.025306 276.980706 
L 136.953554 285.438504 
L 137.649739 291.447294 
L 138.113863 294.093511 
L 138.577987 295.215797 
L 138.810049 295.190824 
L 139.042111 294.744189 
L 139.506234 292.731258 
L 139.970358 289.427685 
L 141.826853 273.915681 
L 142.290977 272.318543 
L 142.523039 272.091432 
L 142.7551 272.306946 
L 142.987162 272.925615 
L 143.451286 275.317138 
L 144.147472 281.018516 
L 145.307781 291.372407 
L 145.771905 294.055551 
L 146.236028 295.189576 
L 146.46809 295.167895 
L 146.700152 294.734753 
L 147.164276 292.736659 
L 147.6284 289.42832 
L 149.484894 273.912525 
L 149.949018 272.29135 
L 150.18108 272.094799 
L 150.413142 272.298897 
L 150.645204 272.902485 
L 151.109327 275.254954 
L 151.805513 280.993496 
L 153.197884 292.904147 
L 153.662008 294.922697 
L 153.89407 295.299983 
L 154.126132 295.335522 
L 154.358194 294.894467 
L 154.590255 294.098858 
L 155.054379 291.332247 
L 155.750565 285.316219 
L 156.910874 275.183722 
L 157.374998 272.800589 
L 157.60706 272.186826 
L 157.839121 271.976028 
L 158.071183 272.15368 
L 158.303245 272.758539 
L 158.767369 275.153029 
L 159.463554 280.880457 
L 160.623864 291.441838 
L 161.087988 294.122822 
L 161.552111 295.302744 
L 161.784173 295.287198 
L 162.016235 294.848825 
L 162.480359 292.83918 
L 163.176544 287.468254 
L 164.568915 275.226565 
L 165.033039 272.851223 
L 165.265101 272.239623 
L 165.497163 272.033242 
L 165.729225 272.248434 
L 165.961287 272.858901 
L 166.42541 275.248319 
L 167.121596 281.041775 
L 168.281905 291.420763 
L 168.746029 294.073837 
L 168.978091 294.849454 
L 169.210153 295.20517 
L 169.442215 295.184073 
L 169.674276 294.727189 
L 170.1384 292.668829 
L 170.834586 287.353251 
L 172.226957 275.257916 
L 172.691081 272.969424 
L 172.923143 272.406188 
L 173.155204 272.204419 
L 173.387266 272.413083 
L 173.619328 273.02361 
L 174.083452 275.412086 
L 174.779637 281.055313 
L 176.172009 292.856117 
L 176.636132 294.771332 
L 176.868194 295.143131 
L 177.100256 295.07969 
L 177.332318 294.68124 
L 177.796442 292.638611 
L 178.492627 287.324962 
L 179.884998 275.272843 
L 180.349122 272.961677 
L 180.581184 272.367976 
L 180.813246 272.18323 
L 181.045308 272.413642 
L 181.27737 273.024459 
L 181.741493 275.385511 
L 182.205617 278.919572 
L 183.83005 292.877298 
L 184.294174 294.802007 
L 184.526236 295.155915 
L 184.758297 295.089055 
L 184.990359 294.657134 
L 185.454483 292.60263 
L 186.150669 287.298795 
L 187.54304 275.313299 
L 188.007164 273.015215 
L 188.239225 272.426233 
L 188.471287 272.248751 
L 188.703349 272.394749 
L 188.935411 273.037707 
L 189.399535 275.432875 
L 190.09572 281.171073 
L 191.25603 291.306354 
L 191.720153 293.931584 
L 191.952215 294.718264 
L 192.184277 295.073257 
L 192.416339 295.032529 
L 192.648401 294.594429 
L 193.112525 292.561811 
L 193.576648 289.259032 
L 195.433143 274.001777 
L 195.897267 272.454545 
L 196.129329 272.279033 
L 196.361391 272.51816 
L 196.593452 273.14382 
L 197.057576 275.494134 
L 197.753762 281.134042 
L 198.914071 291.271106 
L 199.378195 293.86621 
L 199.610257 294.589149 
L 199.842319 294.934058 
L 200.07438 294.929125 
L 200.306442 294.501119 
L 200.770566 292.446072 
L 201.466752 287.24382 
L 202.859123 275.470348 
L 203.323246 273.214201 
L 203.555308 272.628296 
L 203.78737 272.415376 
L 204.019432 272.640351 
L 204.251494 273.279006 
L 204.715618 275.611869 
L 205.411803 281.129219 
L 206.804174 292.728271 
L 207.268298 294.587175 
L 207.50036 294.922166 
L 207.732422 294.880622 
L 207.964484 294.430845 
L 208.428607 292.405751 
L 209.124793 287.142023 
L 210.517164 275.416167 
L 210.981288 273.179541 
L 211.21335 272.612349 
L 211.445412 272.513258 
L 211.677474 272.751044 
L 212.141597 274.361174 
L 212.605721 277.351612 
L 213.76603 287.439774 
L 214.462216 292.537186 
L 214.92634 294.393769 
L 215.158401 294.731588 
L 215.390463 294.690665 
L 215.622525 294.267116 
L 215.854587 293.54125 
L 216.318711 290.869651 
L 217.014896 285.15451 
L 218.175206 275.607816 
L 218.639329 273.396697 
L 218.871391 272.81693 
L 219.103453 272.63081 
L 219.335515 272.839573 
L 219.567577 273.381532 
L 220.031701 275.62782 
L 220.727886 281.026809 
L 221.888195 291.074587 
L 222.352319 293.638658 
L 222.584381 294.385316 
L 222.816443 294.747099 
L 223.048505 294.765962 
L 223.280567 294.362278 
L 223.74469 292.461818 
L 224.208814 289.288072 
L 226.065309 274.320465 
L 226.529433 272.725838 
L 226.761495 272.4537 
L 226.993556 272.61122 
L 227.225618 273.204249 
L 227.689742 275.465551 
L 228.385928 280.959895 
L 229.546237 291.048559 
L 230.010361 293.643959 
L 230.242423 294.428149 
L 230.474484 294.808189 
L 230.706546 294.808494 
L 230.938608 294.346242 
L 231.17067 293.590195 
L 231.634794 291.009967 
L 232.330979 285.354809 
L 233.491289 275.713238 
L 233.955412 273.419863 
L 234.187474 272.813327 
L 234.419536 272.591059 
L 234.651598 272.764157 
L 234.88366 273.27929 
L 235.347783 275.51079 
L 236.043969 280.923891 
L 237.204278 290.884603 
L 237.668402 293.457685 
L 237.900464 294.264305 
L 238.132526 294.663079 
L 238.364588 294.718705 
L 238.59665 294.419711 
L 239.060773 292.576134 
L 239.524897 289.486592 
L 241.381392 274.420686 
L 241.845516 272.790008 
L 242.077577 272.5344 
L 242.309639 272.578193 
L 242.541701 273.123459 
L 243.005825 275.39136 
L 243.702011 280.756921 
L 244.86232 290.855554 
L 245.326444 293.491079 
L 245.790567 294.79469 
L 246.022629 294.869394 
L 246.254691 294.521677 
L 246.486753 293.796337 
L 246.950877 291.281437 
L 247.647062 285.574529 
L 248.807371 275.741271 
L 249.271495 273.345327 
L 249.503557 272.710677 
L 249.735619 272.451822 
L 249.967681 272.493709 
L 250.199743 273.044106 
L 250.663866 275.25814 
L 251.360052 280.709909 
L 252.520361 290.984711 
L 252.984485 293.661777 
L 253.448609 294.889576 
L 253.680671 294.939424 
L 253.912732 294.580485 
L 254.376856 292.730516 
L 254.84098 289.550738 
L 256.697475 274.311011 
L 257.161599 272.630228 
L 257.39366 272.381885 
L 257.625722 272.599195 
L 257.857784 273.139588 
L 258.321908 275.30846 
L 259.018093 280.745387 
L 260.178403 290.874505 
L 260.642526 293.532253 
L 261.10665 294.866995 
L 261.338712 294.912141 
L 261.570774 294.571322 
L 262.034898 292.740626 
L 262.499021 289.6302 
L 264.355516 274.341964 
L 264.81964 272.616331 
L 265.051702 272.349165 
L 265.283764 272.42082 
L 265.515826 272.957621 
L 265.979949 275.179707 
L 266.676135 280.606356 
L 268.068506 292.373604 
L 268.53263 294.439299 
L 268.764692 294.926644 
L 268.996754 294.966605 
L 269.228815 294.642886 
L 269.460877 293.942722 
L 269.925001 291.463629 
L 270.621187 285.767687 
L 271.781496 275.840492 
L 272.24562 273.360751 
L 272.477681 272.64058 
L 272.709743 272.335194 
L 272.941805 272.44067 
L 273.173867 272.920293 
L 273.637991 275.065448 
L 274.102114 278.400662 
L 275.726548 292.320288 
L 276.190671 294.410337 
L 276.422733 294.917338 
L 276.654795 294.996134 
L 276.886857 294.649772 
L 277.118919 293.983237 
L 277.583042 291.504163 
L 278.279228 285.867522 
L 279.439537 275.90906 
L 279.903661 273.402901 
L 280.135723 272.683465 
L 280.367785 272.349851 
L 280.599847 272.43999 
L 280.831909 272.922851 
L 281.296032 275.020393 
L 281.992218 280.347636 
L 283.152527 290.668245 
L 283.616651 293.367067 
L 284.080775 294.76013 
L 284.312836 294.887901 
L 284.544898 294.637892 
L 284.77696 294.00024 
L 285.241084 291.592782 
L 285.937269 286.034535 
L 287.097579 276.146794 
L 287.561703 273.608766 
L 287.793764 272.843259 
L 288.025826 272.485748 
L 288.257888 272.475175 
L 288.48995 272.909439 
L 288.954074 274.904969 
L 289.418197 278.149533 
L 291.274692 293.194105 
L 291.738816 294.748725 
L 291.970878 294.932773 
L 292.20294 294.680893 
L 292.435002 294.069809 
L 292.899125 291.758037 
L 293.595311 286.294323 
L 294.75562 276.322759 
L 295.219744 273.70375 
L 295.683868 272.506443 
L 295.91593 272.502979 
L 296.147991 272.903982 
L 296.380053 273.653142 
L 296.844177 276.282467 
L 297.772424 284.219495 
L 298.700672 291.747897 
L 299.164796 294.04094 
L 299.396857 294.653502 
L 299.628919 294.90439 
L 299.860981 294.712036 
L 300.093043 294.140299 
L 300.557167 291.898333 
L 301.253352 286.472203 
L 302.413662 276.42829 
L 302.877785 273.739716 
L 303.341909 272.448762 
L 303.573971 272.373845 
L 303.806033 272.751751 
L 304.038095 273.46879 
L 304.502218 276.018658 
L 305.198404 281.819507 
L 306.358713 291.730913 
L 306.822837 294.145344 
L 307.054899 294.809409 
L 307.286961 295.102097 
L 307.519023 294.982486 
L 307.751085 294.473392 
L 308.215208 292.272964 
L 308.911394 286.817596 
L 310.303765 274.920552 
L 310.767889 272.75603 
L 310.999951 272.232579 
L 311.232012 272.140099 
L 311.464074 272.464962 
L 311.696136 273.199629 
L 312.16026 275.727253 
L 312.856446 281.516156 
L 314.016755 291.659616 
L 314.480879 294.13643 
L 314.71294 294.864233 
L 314.945002 295.175651 
L 315.177064 295.077824 
L 315.409126 294.591094 
L 315.87325 292.456585 
L 316.569435 287.054947 
L 317.961806 275.032856 
L 318.42593 272.839201 
L 318.657992 272.200327 
L 318.890054 271.987525 
L 319.122116 272.276036 
L 319.354178 272.967639 
L 319.818301 275.517656 
L 320.514487 281.335388 
L 321.674796 291.57099 
L 322.13892 294.172524 
L 322.370982 294.969386 
L 322.603044 295.347941 
L 322.835106 295.309513 
L 323.067167 294.822658 
L 323.531291 292.67687 
L 323.995415 289.250066 
L 325.85191 273.658804 
L 326.316034 272.140079 
L 326.548095 272.008656 
L 326.780157 272.276178 
L 327.012219 272.959609 
L 327.476343 275.450394 
L 328.172528 281.249925 
L 329.332838 291.595947 
L 329.796961 294.161893 
L 330.029023 294.907744 
L 330.261085 295.252171 
L 330.493147 295.23009 
L 330.725209 294.754657 
L 331.189333 292.60281 
L 331.885518 287.173663 
L 333.277889 275.085253 
L 333.742013 272.810423 
L 333.974075 272.236984 
L 334.206137 272.078904 
L 334.438199 272.335324 
L 334.670261 272.997857 
L 335.134384 275.464934 
L 335.83057 281.17861 
L 336.990879 291.406541 
L 337.455003 294.041306 
L 337.687065 294.84354 
L 337.919127 295.235346 
L 338.151189 295.234996 
L 338.38325 294.806623 
L 338.847374 292.735444 
L 339.54356 287.345145 
L 340.935931 275.221885 
L 341.400055 272.871714 
L 341.632116 272.17834 
L 341.864178 271.987115 
L 342.09624 272.210165 
L 342.328302 272.813689 
L 342.792426 275.197552 
L 343.488611 280.880949 
L 344.648921 291.367636 
L 345.113044 294.120935 
L 345.345106 294.95382 
L 345.577168 295.366587 
L 345.80923 295.398191 
L 346.041292 294.989114 
L 346.273354 294.180356 
L 346.737477 291.412225 
L 347.433663 285.430796 
L 348.593972 275.28665 
L 349.058096 272.848628 
L 349.290158 272.198444 
L 349.52222 271.99498 
L 349.754282 272.185655 
L 349.986343 272.747208 
L 350.450467 275.054955 
L 351.146653 280.77408 
L 352.306962 291.253227 
L 352.771086 294.013418 
L 353.23521 295.347486 
L 353.467271 295.376792 
L 353.699333 294.973008 
L 353.931395 294.183837 
L 354.395519 291.451697 
L 355.091704 285.499442 
L 356.252014 275.319639 
L 356.716138 272.889213 
L 356.948199 272.176117 
L 357.180261 271.888505 
L 357.412323 272.047654 
L 357.644385 272.677198 
L 358.108509 275.036699 
L 358.804694 280.710436 
L 359.965004 291.28137 
L 360.429127 294.077709 
L 360.893251 295.415228 
L 361.125313 295.46968 
L 361.357375 295.074972 
L 361.589437 294.274201 
L 362.05356 291.536284 
L 362.981808 283.354456 
L 363.910055 275.28695 
L 364.374179 272.811105 
L 364.606241 272.144195 
L 364.838303 271.877569 
L 365.070365 272.048454 
L 365.302426 272.626005 
L 365.76655 274.972565 
L 366.462736 280.637519 
L 367.623045 291.330693 
L 368.087169 294.099336 
L 368.551292 295.425404 
L 368.783354 295.488 
L 369.015416 295.093359 
L 369.47954 293.096654 
L 369.943664 289.765011 
L 371.800159 273.830749 
L 372.264282 272.087438 
L 372.496344 271.856272 
L 372.728406 271.981932 
L 372.960468 272.574051 
L 373.424592 275.006653 
L 374.120777 280.752407 
L 375.281086 291.325358 
L 375.74521 294.07047 
L 376.209334 295.394183 
L 376.441396 295.449533 
L 376.673458 295.069457 
L 377.137581 293.080019 
L 377.601705 289.731757 
L 379.4582 273.842973 
L 379.922324 272.119793 
L 380.154386 271.892905 
L 380.386447 272.039708 
L 380.618509 272.645719 
L 381.082633 275.098541 
L 381.778819 280.808291 
L 382.939128 291.196812 
L 383.403252 293.949714 
L 383.867375 295.280335 
L 384.099437 295.330997 
L 384.331499 294.941803 
L 384.795623 292.957037 
L 385.259747 289.684511 
L 387.116241 273.984132 
L 387.580365 272.189733 
L 387.812427 271.954334 
L 388.044489 272.117177 
L 388.276551 272.668944 
L 388.740675 274.982672 
L 389.43686 280.663219 
L 390.597169 291.183164 
L 391.061293 293.959449 
L 391.525417 295.379755 
L 391.757479 295.437813 
L 391.989541 295.089349 
L 392.453664 293.149459 
L 392.917788 289.848051 
L 394.774283 273.908582 
L 395.238407 272.159658 
L 395.470469 271.76583 
L 395.70253 271.887449 
L 395.934592 272.467162 
L 396.398716 274.799233 
L 397.094902 280.569714 
L 398.487273 292.831355 
L 398.487273 292.831355 
" style="fill:none;stroke:#008000;stroke-linecap:square;stroke-width:1.5;"/>
   </g>
   <g id="patch_3">
    <path d="M 57.6 307.584 
L 57.6 41.472 
" style="fill:none;stroke:#000000;stroke-linecap:square;stroke-linejoin:miter;stroke-width:0.8;"/>
   </g>
   <g id="patch_4">
    <path d="M 414.72 307.584 
L 414.72 41.472 
" style="fill:none;stroke:#000000;stroke-linecap:square;stroke-linejoin:miter;stroke-width:0.8;"/>
   </g>
   <g id="patch_5">
    <path d="M 57.6 307.584 
L 414.72 307.584 
" style="fill:none;stroke:#000000;stroke-linecap:square;stroke-linejoin:miter;stroke-width:0.8;"/>
   </g>
   <g id="patch_6">
    <path d="M 57.6 41.472 
L 414.72 41.472 
" style="fill:none;stroke:#000000;stroke-linecap:square;stroke-linejoin:miter;stroke-width:0.8;"/>
   </g>
   <g id="legend_1">
    <g id="patch_7">
     <path d="M 351.0075 198.045187 
L 407.72 198.045187 
Q 409.72 198.045187 409.72 196.045187 
L 409.72 153.010812 
Q 409.72 151.010812 407.72 151.010812 
L 351.0075 151.010812 
Q 349.0075 151.010812 349.0075 153.010812 
L 349.0075 196.045187 
Q 349.0075 198.045187 351.0075 198.045187 
z
" style="fill:#ffffff;opacity:0.8;stroke:#cccccc;stroke-linejoin:miter;"/>
    </g>
    <g id="line2d_18">
     <path d="M 353.0075 159.10925 
L 373.0075 159.10925 
" style="fill:none;stroke:#1f77b4;stroke-linecap:square;stroke-width:1.5;"/>
    </g>
    <g id="line2d_19"/>
    <g id="text_15">
     <!-- 0-&gt;1 -->
     <defs>
      <path d="M 4.890625 31.390625 
L 31.203125 31.390625 
L 31.203125 23.390625 
L 4.890625 23.390625 
z
" id="DejaVuSans-45"/>
      <path d="M 10.59375 49.21875 
L 10.59375 58.109375 
L 73.1875 35.40625 
L 73.1875 27.296875 
L 10.59375 4.59375 
L 10.59375 13.484375 
L 60.890625 31.296875 
z
" id="DejaVuSans-62"/>
     </defs>
     <g transform="translate(381.0075 162.60925)scale(0.1 -0.1)">
      <use xlink:href="#DejaVuSans-48"/>
      <use x="63.623047" xlink:href="#DejaVuSans-45"/>
      <use x="99.707031" xlink:href="#DejaVuSans-62"/>
      <use x="183.496094" xlink:href="#DejaVuSans-49"/>
     </g>
    </g>
    <g id="line2d_20">
     <path d="M 353.0075 173.787375 
L 373.0075 173.787375 
" style="fill:none;stroke:#ff0000;stroke-linecap:square;stroke-width:1.5;"/>
    </g>
    <g id="line2d_21"/>
    <g id="text_16">
     <!-- 1-&gt;0 -->
     <g transform="translate(381.0075 177.287375)scale(0.1 -0.1)">
      <use xlink:href="#DejaVuSans-49"/>
      <use x="63.623047" xlink:href="#DejaVuSans-45"/>
      <use x="99.707031" xlink:href="#DejaVuSans-62"/>
      <use x="183.496094" xlink:href="#DejaVuSans-48"/>
     </g>
    </g>
    <g id="line2d_22">
     <path d="M 353.0075 188.4655 
L 373.0075 188.4655 
" style="fill:none;stroke:#008000;stroke-linecap:square;stroke-width:1.5;"/>
    </g>
    <g id="line2d_23"/>
    <g id="text_17">
     <!-- diff -->
     <defs>
      <path d="M 45.40625 46.390625 
L 45.40625 75.984375 
L 54.390625 75.984375 
L 54.390625 0 
L 45.40625 0 
L 45.40625 8.203125 
Q 42.578125 3.328125 38.25 0.953125 
Q 33.9375 -1.421875 27.875 -1.421875 
Q 17.96875 -1.421875 11.734375 6.484375 
Q 5.515625 14.40625 5.515625 27.296875 
Q 5.515625 40.1875 11.734375 48.09375 
Q 17.96875 56 27.875 56 
Q 33.9375 56 38.25 53.625 
Q 42.578125 51.265625 45.40625 46.390625 
z
M 14.796875 27.296875 
Q 14.796875 17.390625 18.875 11.75 
Q 22.953125 6.109375 30.078125 6.109375 
Q 37.203125 6.109375 41.296875 11.75 
Q 45.40625 17.390625 45.40625 27.296875 
Q 45.40625 37.203125 41.296875 42.84375 
Q 37.203125 48.484375 30.078125 48.484375 
Q 22.953125 48.484375 18.875 42.84375 
Q 14.796875 37.203125 14.796875 27.296875 
z
" id="DejaVuSans-100"/>
      <path d="M 9.421875 54.6875 
L 18.40625 54.6875 
L 18.40625 0 
L 9.421875 0 
z
M 9.421875 75.984375 
L 18.40625 75.984375 
L 18.40625 64.59375 
L 9.421875 64.59375 
z
" id="DejaVuSans-105"/>
      <path d="M 37.109375 75.984375 
L 37.109375 68.5 
L 28.515625 68.5 
Q 23.6875 68.5 21.796875 66.546875 
Q 19.921875 64.59375 19.921875 59.515625 
L 19.921875 54.6875 
L 34.71875 54.6875 
L 34.71875 47.703125 
L 19.921875 47.703125 
L 19.921875 0 
L 10.890625 0 
L 10.890625 47.703125 
L 2.296875 47.703125 
L 2.296875 54.6875 
L 10.890625 54.6875 
L 10.890625 58.5 
Q 10.890625 67.625 15.140625 71.796875 
Q 19.390625 75.984375 28.609375 75.984375 
z
" id="DejaVuSans-102"/>
     </defs>
     <g transform="translate(381.0075 191.9655)scale(0.1 -0.1)">
      <use xlink:href="#DejaVuSans-100"/>
      <use x="63.476562" xlink:href="#DejaVuSans-105"/>
      <use x="91.259766" xlink:href="#DejaVuSans-102"/>
      <use x="126.464844" xlink:href="#DejaVuSans-102"/>
     </g>
    </g>
   </g>
  </g>
 </g>
 <defs>
  <clipPath id="p053cbc440d">
   <rect height="266.112" width="357.12" x="57.6" y="41.472"/>
  </clipPath>
 </defs>
</svg>
