<?xml version="1.0" encoding="utf-8" standalone="no"?>
<!DOCTYPE svg PUBLIC "-//W3C//DTD SVG 1.1//EN"
  "http://www.w3.org/Graphics/SVG/1.1/DTD/svg11.dtd">
<!-- Created with matplotlib (https://matplotlib.org/) -->
<svg height="345.6pt" version="1.1" viewBox="0 0 460.8 345.6" width="460.8pt" xmlns="http://www.w3.org/2000/svg" xmlns:xlink="http://www.w3.org/1999/xlink">
 <defs>
  <style type="text/css">
*{stroke-linecap:butt;stroke-linejoin:round;}
  </style>
 </defs>
 <g id="figure_1">
  <g id="patch_1">
   <path d="M 0 345.6 
L 460.8 345.6 
L 460.8 0 
L 0 0 
z
" style="fill:#ffffff;"/>
  </g>
  <g id="axes_1">
   <g id="patch_2">
    <path d="M 57.6 307.584 
L 414.72 307.584 
L 414.72 41.472 
L 57.6 41.472 
z
" style="fill:#ffffff;"/>
   </g>
   <g id="matplotlib.axis_1">
    <g id="xtick_1">
     <g id="line2d_1">
      <defs>
       <path d="M 0 0 
L 0 3.5 
" id="m092a7cd305" style="stroke:#000000;stroke-width:0.8;"/>
      </defs>
      <g>
       <use style="stroke:#000000;stroke-width:0.8;" x="73.832727" xlink:href="#m092a7cd305" y="307.584"/>
      </g>
     </g>
     <g id="text_1">
      <!-- 0 -->
      <defs>
       <path d="M 31.78125 66.40625 
Q 24.171875 66.40625 20.328125 58.90625 
Q 16.5 51.421875 16.5 36.375 
Q 16.5 21.390625 20.328125 13.890625 
Q 24.171875 6.390625 31.78125 6.390625 
Q 39.453125 6.390625 43.28125 13.890625 
Q 47.125 21.390625 47.125 36.375 
Q 47.125 51.421875 43.28125 58.90625 
Q 39.453125 66.40625 31.78125 66.40625 
z
M 31.78125 74.21875 
Q 44.046875 74.21875 50.515625 64.515625 
Q 56.984375 54.828125 56.984375 36.375 
Q 56.984375 17.96875 50.515625 8.265625 
Q 44.046875 -1.421875 31.78125 -1.421875 
Q 19.53125 -1.421875 13.0625 8.265625 
Q 6.59375 17.96875 6.59375 36.375 
Q 6.59375 54.828125 13.0625 64.515625 
Q 19.53125 74.21875 31.78125 74.21875 
z
" id="DejaVuSans-48"/>
      </defs>
      <g transform="translate(70.651477 322.182437)scale(0.1 -0.1)">
       <use xlink:href="#DejaVuSans-48"/>
      </g>
     </g>
    </g>
    <g id="xtick_2">
     <g id="line2d_2">
      <g>
       <use style="stroke:#000000;stroke-width:0.8;" x="120.2451" xlink:href="#m092a7cd305" y="307.584"/>
      </g>
     </g>
     <g id="text_2">
      <!-- 200 -->
      <defs>
       <path d="M 19.1875 8.296875 
L 53.609375 8.296875 
L 53.609375 0 
L 7.328125 0 
L 7.328125 8.296875 
Q 12.9375 14.109375 22.625 23.890625 
Q 32.328125 33.6875 34.8125 36.53125 
Q 39.546875 41.84375 41.421875 45.53125 
Q 43.3125 49.21875 43.3125 52.78125 
Q 43.3125 58.59375 39.234375 62.25 
Q 35.15625 65.921875 28.609375 65.921875 
Q 23.96875 65.921875 18.8125 64.3125 
Q 13.671875 62.703125 7.8125 59.421875 
L 7.8125 69.390625 
Q 13.765625 71.78125 18.9375 73 
Q 24.125 74.21875 28.421875 74.21875 
Q 39.75 74.21875 46.484375 68.546875 
Q 53.21875 62.890625 53.21875 53.421875 
Q 53.21875 48.921875 51.53125 44.890625 
Q 49.859375 40.875 45.40625 35.40625 
Q 44.1875 33.984375 37.640625 27.21875 
Q 31.109375 20.453125 19.1875 8.296875 
z
" id="DejaVuSans-50"/>
      </defs>
      <g transform="translate(110.70135 322.182437)scale(0.1 -0.1)">
       <use xlink:href="#DejaVuSans-50"/>
       <use x="63.623047" xlink:href="#DejaVuSans-48"/>
       <use x="127.246094" xlink:href="#DejaVuSans-48"/>
      </g>
     </g>
    </g>
    <g id="xtick_3">
     <g id="line2d_3">
      <g>
       <use style="stroke:#000000;stroke-width:0.8;" x="166.657472" xlink:href="#m092a7cd305" y="307.584"/>
      </g>
     </g>
     <g id="text_3">
      <!-- 400 -->
      <defs>
       <path d="M 37.796875 64.3125 
L 12.890625 25.390625 
L 37.796875 25.390625 
z
M 35.203125 72.90625 
L 47.609375 72.90625 
L 47.609375 25.390625 
L 58.015625 25.390625 
L 58.015625 17.1875 
L 47.609375 17.1875 
L 47.609375 0 
L 37.796875 0 
L 37.796875 17.1875 
L 4.890625 17.1875 
L 4.890625 26.703125 
z
" id="DejaVuSans-52"/>
      </defs>
      <g transform="translate(157.113722 322.182437)scale(0.1 -0.1)">
       <use xlink:href="#DejaVuSans-52"/>
       <use x="63.623047" xlink:href="#DejaVuSans-48"/>
       <use x="127.246094" xlink:href="#DejaVuSans-48"/>
      </g>
     </g>
    </g>
    <g id="xtick_4">
     <g id="line2d_4">
      <g>
       <use style="stroke:#000000;stroke-width:0.8;" x="213.069845" xlink:href="#m092a7cd305" y="307.584"/>
      </g>
     </g>
     <g id="text_4">
      <!-- 600 -->
      <defs>
       <path d="M 33.015625 40.375 
Q 26.375 40.375 22.484375 35.828125 
Q 18.609375 31.296875 18.609375 23.390625 
Q 18.609375 15.53125 22.484375 10.953125 
Q 26.375 6.390625 33.015625 6.390625 
Q 39.65625 6.390625 43.53125 10.953125 
Q 47.40625 15.53125 47.40625 23.390625 
Q 47.40625 31.296875 43.53125 35.828125 
Q 39.65625 40.375 33.015625 40.375 
z
M 52.59375 71.296875 
L 52.59375 62.3125 
Q 48.875 64.0625 45.09375 64.984375 
Q 41.3125 65.921875 37.59375 65.921875 
Q 27.828125 65.921875 22.671875 59.328125 
Q 17.53125 52.734375 16.796875 39.40625 
Q 19.671875 43.65625 24.015625 45.921875 
Q 28.375 48.1875 33.59375 48.1875 
Q 44.578125 48.1875 50.953125 41.515625 
Q 57.328125 34.859375 57.328125 23.390625 
Q 57.328125 12.15625 50.6875 5.359375 
Q 44.046875 -1.421875 33.015625 -1.421875 
Q 20.359375 -1.421875 13.671875 8.265625 
Q 6.984375 17.96875 6.984375 36.375 
Q 6.984375 53.65625 15.1875 63.9375 
Q 23.390625 74.21875 37.203125 74.21875 
Q 40.921875 74.21875 44.703125 73.484375 
Q 48.484375 72.75 52.59375 71.296875 
z
" id="DejaVuSans-54"/>
      </defs>
      <g transform="translate(203.526095 322.182437)scale(0.1 -0.1)">
       <use xlink:href="#DejaVuSans-54"/>
       <use x="63.623047" xlink:href="#DejaVuSans-48"/>
       <use x="127.246094" xlink:href="#DejaVuSans-48"/>
      </g>
     </g>
    </g>
    <g id="xtick_5">
     <g id="line2d_5">
      <g>
       <use style="stroke:#000000;stroke-width:0.8;" x="259.482217" xlink:href="#m092a7cd305" y="307.584"/>
      </g>
     </g>
     <g id="text_5">
      <!-- 800 -->
      <defs>
       <path d="M 31.78125 34.625 
Q 24.75 34.625 20.71875 30.859375 
Q 16.703125 27.09375 16.703125 20.515625 
Q 16.703125 13.921875 20.71875 10.15625 
Q 24.75 6.390625 31.78125 6.390625 
Q 38.8125 6.390625 42.859375 10.171875 
Q 46.921875 13.96875 46.921875 20.515625 
Q 46.921875 27.09375 42.890625 30.859375 
Q 38.875 34.625 31.78125 34.625 
z
M 21.921875 38.8125 
Q 15.578125 40.375 12.03125 44.71875 
Q 8.5 49.078125 8.5 55.328125 
Q 8.5 64.0625 14.71875 69.140625 
Q 20.953125 74.21875 31.78125 74.21875 
Q 42.671875 74.21875 48.875 69.140625 
Q 55.078125 64.0625 55.078125 55.328125 
Q 55.078125 49.078125 51.53125 44.71875 
Q 48 40.375 41.703125 38.8125 
Q 48.828125 37.15625 52.796875 32.3125 
Q 56.78125 27.484375 56.78125 20.515625 
Q 56.78125 9.90625 50.3125 4.234375 
Q 43.84375 -1.421875 31.78125 -1.421875 
Q 19.734375 -1.421875 13.25 4.234375 
Q 6.78125 9.90625 6.78125 20.515625 
Q 6.78125 27.484375 10.78125 32.3125 
Q 14.796875 37.15625 21.921875 38.8125 
z
M 18.3125 54.390625 
Q 18.3125 48.734375 21.84375 45.5625 
Q 25.390625 42.390625 31.78125 42.390625 
Q 38.140625 42.390625 41.71875 45.5625 
Q 45.3125 48.734375 45.3125 54.390625 
Q 45.3125 60.0625 41.71875 63.234375 
Q 38.140625 66.40625 31.78125 66.40625 
Q 25.390625 66.40625 21.84375 63.234375 
Q 18.3125 60.0625 18.3125 54.390625 
z
" id="DejaVuSans-56"/>
      </defs>
      <g transform="translate(249.938467 322.182437)scale(0.1 -0.1)">
       <use xlink:href="#DejaVuSans-56"/>
       <use x="63.623047" xlink:href="#DejaVuSans-48"/>
       <use x="127.246094" xlink:href="#DejaVuSans-48"/>
      </g>
     </g>
    </g>
    <g id="xtick_6">
     <g id="line2d_6">
      <g>
       <use style="stroke:#000000;stroke-width:0.8;" x="305.89459" xlink:href="#m092a7cd305" y="307.584"/>
      </g>
     </g>
     <g id="text_6">
      <!-- 1000 -->
      <defs>
       <path d="M 12.40625 8.296875 
L 28.515625 8.296875 
L 28.515625 63.921875 
L 10.984375 60.40625 
L 10.984375 69.390625 
L 28.421875 72.90625 
L 38.28125 72.90625 
L 38.28125 8.296875 
L 54.390625 8.296875 
L 54.390625 0 
L 12.40625 0 
z
" id="DejaVuSans-49"/>
      </defs>
      <g transform="translate(293.16959 322.182437)scale(0.1 -0.1)">
       <use xlink:href="#DejaVuSans-49"/>
       <use x="63.623047" xlink:href="#DejaVuSans-48"/>
       <use x="127.246094" xlink:href="#DejaVuSans-48"/>
       <use x="190.869141" xlink:href="#DejaVuSans-48"/>
      </g>
     </g>
    </g>
    <g id="xtick_7">
     <g id="line2d_7">
      <g>
       <use style="stroke:#000000;stroke-width:0.8;" x="352.306962" xlink:href="#m092a7cd305" y="307.584"/>
      </g>
     </g>
     <g id="text_7">
      <!-- 1200 -->
      <g transform="translate(339.581962 322.182437)scale(0.1 -0.1)">
       <use xlink:href="#DejaVuSans-49"/>
       <use x="63.623047" xlink:href="#DejaVuSans-50"/>
       <use x="127.246094" xlink:href="#DejaVuSans-48"/>
       <use x="190.869141" xlink:href="#DejaVuSans-48"/>
      </g>
     </g>
    </g>
    <g id="xtick_8">
     <g id="line2d_8">
      <g>
       <use style="stroke:#000000;stroke-width:0.8;" x="398.719335" xlink:href="#m092a7cd305" y="307.584"/>
      </g>
     </g>
     <g id="text_8">
      <!-- 1400 -->
      <g transform="translate(385.994335 322.182437)scale(0.1 -0.1)">
       <use xlink:href="#DejaVuSans-49"/>
       <use x="63.623047" xlink:href="#DejaVuSans-52"/>
       <use x="127.246094" xlink:href="#DejaVuSans-48"/>
       <use x="190.869141" xlink:href="#DejaVuSans-48"/>
      </g>
     </g>
    </g>
   </g>
   <g id="matplotlib.axis_2">
    <g id="ytick_1">
     <g id="line2d_9">
      <defs>
       <path d="M 0 0 
L -3.5 0 
" id="mf2dd8c6566" style="stroke:#000000;stroke-width:0.8;"/>
      </defs>
      <g>
       <use style="stroke:#000000;stroke-width:0.8;" x="57.6" xlink:href="#mf2dd8c6566" y="294.870123"/>
      </g>
     </g>
     <g id="text_9">
      <!-- 0.0 -->
      <defs>
       <path d="M 10.6875 12.40625 
L 21 12.40625 
L 21 0 
L 10.6875 0 
z
" id="DejaVuSans-46"/>
      </defs>
      <g transform="translate(34.696875 298.669342)scale(0.1 -0.1)">
       <use xlink:href="#DejaVuSans-48"/>
       <use x="63.623047" xlink:href="#DejaVuSans-46"/>
       <use x="95.410156" xlink:href="#DejaVuSans-48"/>
      </g>
     </g>
    </g>
    <g id="ytick_2">
     <g id="line2d_10">
      <g>
       <use style="stroke:#000000;stroke-width:0.8;" x="57.6" xlink:href="#mf2dd8c6566" y="259.036598"/>
      </g>
     </g>
     <g id="text_10">
      <!-- 0.1 -->
      <g transform="translate(34.696875 262.835817)scale(0.1 -0.1)">
       <use xlink:href="#DejaVuSans-48"/>
       <use x="63.623047" xlink:href="#DejaVuSans-46"/>
       <use x="95.410156" xlink:href="#DejaVuSans-49"/>
      </g>
     </g>
    </g>
    <g id="ytick_3">
     <g id="line2d_11">
      <g>
       <use style="stroke:#000000;stroke-width:0.8;" x="57.6" xlink:href="#mf2dd8c6566" y="223.203073"/>
      </g>
     </g>
     <g id="text_11">
      <!-- 0.2 -->
      <g transform="translate(34.696875 227.002292)scale(0.1 -0.1)">
       <use xlink:href="#DejaVuSans-48"/>
       <use x="63.623047" xlink:href="#DejaVuSans-46"/>
       <use x="95.410156" xlink:href="#DejaVuSans-50"/>
      </g>
     </g>
    </g>
    <g id="ytick_4">
     <g id="line2d_12">
      <g>
       <use style="stroke:#000000;stroke-width:0.8;" x="57.6" xlink:href="#mf2dd8c6566" y="187.369549"/>
      </g>
     </g>
     <g id="text_12">
      <!-- 0.3 -->
      <defs>
       <path d="M 40.578125 39.3125 
Q 47.65625 37.796875 51.625 33 
Q 55.609375 28.21875 55.609375 21.1875 
Q 55.609375 10.40625 48.1875 4.484375 
Q 40.765625 -1.421875 27.09375 -1.421875 
Q 22.515625 -1.421875 17.65625 -0.515625 
Q 12.796875 0.390625 7.625 2.203125 
L 7.625 11.71875 
Q 11.71875 9.328125 16.59375 8.109375 
Q 21.484375 6.890625 26.8125 6.890625 
Q 36.078125 6.890625 40.9375 10.546875 
Q 45.796875 14.203125 45.796875 21.1875 
Q 45.796875 27.640625 41.28125 31.265625 
Q 36.765625 34.90625 28.71875 34.90625 
L 20.21875 34.90625 
L 20.21875 43.015625 
L 29.109375 43.015625 
Q 36.375 43.015625 40.234375 45.921875 
Q 44.09375 48.828125 44.09375 54.296875 
Q 44.09375 59.90625 40.109375 62.90625 
Q 36.140625 65.921875 28.71875 65.921875 
Q 24.65625 65.921875 20.015625 65.03125 
Q 15.375 64.15625 9.8125 62.3125 
L 9.8125 71.09375 
Q 15.4375 72.65625 20.34375 73.4375 
Q 25.25 74.21875 29.59375 74.21875 
Q 40.828125 74.21875 47.359375 69.109375 
Q 53.90625 64.015625 53.90625 55.328125 
Q 53.90625 49.265625 50.4375 45.09375 
Q 46.96875 40.921875 40.578125 39.3125 
z
" id="DejaVuSans-51"/>
      </defs>
      <g transform="translate(34.696875 191.168767)scale(0.1 -0.1)">
       <use xlink:href="#DejaVuSans-48"/>
       <use x="63.623047" xlink:href="#DejaVuSans-46"/>
       <use x="95.410156" xlink:href="#DejaVuSans-51"/>
      </g>
     </g>
    </g>
    <g id="ytick_5">
     <g id="line2d_13">
      <g>
       <use style="stroke:#000000;stroke-width:0.8;" x="57.6" xlink:href="#mf2dd8c6566" y="151.536024"/>
      </g>
     </g>
     <g id="text_13">
      <!-- 0.4 -->
      <g transform="translate(34.696875 155.335243)scale(0.1 -0.1)">
       <use xlink:href="#DejaVuSans-48"/>
       <use x="63.623047" xlink:href="#DejaVuSans-46"/>
       <use x="95.410156" xlink:href="#DejaVuSans-52"/>
      </g>
     </g>
    </g>
    <g id="ytick_6">
     <g id="line2d_14">
      <g>
       <use style="stroke:#000000;stroke-width:0.8;" x="57.6" xlink:href="#mf2dd8c6566" y="115.702499"/>
      </g>
     </g>
     <g id="text_14">
      <!-- 0.5 -->
      <defs>
       <path d="M 10.796875 72.90625 
L 49.515625 72.90625 
L 49.515625 64.59375 
L 19.828125 64.59375 
L 19.828125 46.734375 
Q 21.96875 47.46875 24.109375 47.828125 
Q 26.265625 48.1875 28.421875 48.1875 
Q 40.625 48.1875 47.75 41.5 
Q 54.890625 34.8125 54.890625 23.390625 
Q 54.890625 11.625 47.5625 5.09375 
Q 40.234375 -1.421875 26.90625 -1.421875 
Q 22.3125 -1.421875 17.546875 -0.640625 
Q 12.796875 0.140625 7.71875 1.703125 
L 7.71875 11.625 
Q 12.109375 9.234375 16.796875 8.0625 
Q 21.484375 6.890625 26.703125 6.890625 
Q 35.15625 6.890625 40.078125 11.328125 
Q 45.015625 15.765625 45.015625 23.390625 
Q 45.015625 31 40.078125 35.4375 
Q 35.15625 39.890625 26.703125 39.890625 
Q 22.75 39.890625 18.8125 39.015625 
Q 14.890625 38.140625 10.796875 36.28125 
z
" id="DejaVuSans-53"/>
      </defs>
      <g transform="translate(34.696875 119.501718)scale(0.1 -0.1)">
       <use xlink:href="#DejaVuSans-48"/>
       <use x="63.623047" xlink:href="#DejaVuSans-46"/>
       <use x="95.410156" xlink:href="#DejaVuSans-53"/>
      </g>
     </g>
    </g>
    <g id="ytick_7">
     <g id="line2d_15">
      <g>
       <use style="stroke:#000000;stroke-width:0.8;" x="57.6" xlink:href="#mf2dd8c6566" y="79.868975"/>
      </g>
     </g>
     <g id="text_15">
      <!-- 0.6 -->
      <g transform="translate(34.696875 83.668193)scale(0.1 -0.1)">
       <use xlink:href="#DejaVuSans-48"/>
       <use x="63.623047" xlink:href="#DejaVuSans-46"/>
       <use x="95.410156" xlink:href="#DejaVuSans-54"/>
      </g>
     </g>
    </g>
    <g id="ytick_8">
     <g id="line2d_16">
      <g>
       <use style="stroke:#000000;stroke-width:0.8;" x="57.6" xlink:href="#mf2dd8c6566" y="44.03545"/>
      </g>
     </g>
     <g id="text_16">
      <!-- 0.7 -->
      <defs>
       <path d="M 8.203125 72.90625 
L 55.078125 72.90625 
L 55.078125 68.703125 
L 28.609375 0 
L 18.3125 0 
L 43.21875 64.59375 
L 8.203125 64.59375 
z
" id="DejaVuSans-55"/>
      </defs>
      <g transform="translate(34.696875 47.834669)scale(0.1 -0.1)">
       <use xlink:href="#DejaVuSans-48"/>
       <use x="63.623047" xlink:href="#DejaVuSans-46"/>
       <use x="95.410156" xlink:href="#DejaVuSans-55"/>
      </g>
     </g>
    </g>
   </g>
   <g id="line2d_17">
    <path clip-path="url(#p19fd171774)" d="M 73.832727 60.151517 
L 74.528913 60.119043 
L 75.225098 60.060766 
L 76.153346 59.977936 
L 76.849531 59.825076 
L 77.777779 59.754623 
L 78.241903 59.730683 
L 80.330459 59.637599 
L 81.490769 59.382481 
L 83.811387 58.552406 
L 84.971697 58.170702 
L 86.364068 57.941352 
L 88.916748 57.570816 
L 90.077058 57.116333 
L 92.8618 55.844848 
L 94.022109 55.650969 
L 96.57479 55.390238 
L 98.895408 54.558074 
L 101.680151 53.704857 
L 102.84046 53.568173 
L 104.000769 53.661034 
L 106.089326 54.079581 
L 107.249635 54.29507 
L 108.642007 54.339136 
L 110.498502 54.102745 
L 112.354996 53.874429 
L 114.675615 53.856666 
L 116.996234 54.013856 
L 121.637471 54.05268 
L 126.742832 53.97364 
L 130.22376 53.925783 
L 134.632935 54.11373 
L 144.147472 54.039828 
L 146.700152 54.054761 
L 150.877266 54.019365 
L 155.982627 53.976391 
L 158.999431 54.04202 
L 165.497163 54.060058 
L 182.205617 54.087662 
L 184.990359 54.073698 
L 210.981288 54.046639 
L 216.086649 54.044063 
L 225.369123 54.136936 
L 227.689742 54.10739 
L 231.634794 54.017326 
L 234.187474 54.160139 
L 236.043969 54.16154 
L 237.900464 54.036485 
L 239.524897 53.968807 
L 244.86232 54.064105 
L 246.950877 54.00151 
L 251.592114 54.096749 
L 255.073042 53.999226 
L 259.250155 54.226014 
L 263.427269 53.965416 
L 267.140259 54.042072 
L 269.460877 54.087421 
L 272.013558 54.163359 
L 274.566238 53.993823 
L 276.654795 53.906485 
L 281.06397 54.038153 
L 284.080775 53.916612 
L 286.401393 54.092505 
L 288.257888 54.198778 
L 290.346445 54.050333 
L 291.970878 53.968361 
L 294.059435 54.144582 
L 295.683868 54.220481 
L 300.789229 53.916037 
L 303.341909 54.062526 
L 306.126652 53.997896 
L 307.983146 53.923017 
L 313.552631 53.991518 
L 315.409126 53.921751 
L 327.244281 54.025911 
L 333.277889 54.1926 
L 334.902322 54.179502 
L 338.847374 53.982761 
L 343.256549 54.079516 
L 346.273354 53.900871 
L 349.754282 54.191659 
L 351.610777 54.027822 
L 353.003148 53.889936 
L 355.091704 54.000845 
L 358.108509 54.141496 
L 362.05356 53.92343 
L 370.407787 54.107425 
L 379.690262 54.052946 
L 382.242942 53.987241 
L 383.635314 54.005608 
L 385.955932 54.10766 
L 388.972736 54.048277 
L 391.989541 53.890298 
L 396.86284 54.099382 
L 398.487273 53.990176 
L 398.487273 53.990176 
" style="fill:none;stroke:#1f77b4;stroke-linecap:square;stroke-width:1.5;"/>
   </g>
   <g id="line2d_18">
    <path clip-path="url(#p19fd171774)" d="M 73.832727 60.109363 
L 76.385408 60.284099 
L 78.241903 60.06823 
L 81.722831 59.045981 
L 82.419016 59.003132 
L 82.88314 58.897286 
L 84.971697 58.635475 
L 86.828192 58.015522 
L 87.524377 57.618618 
L 88.916748 57.070338 
L 90.773243 56.711362 
L 92.629738 56.539668 
L 93.093862 56.39833 
L 93.325924 56.454539 
L 94.254171 55.892292 
L 95.41448 55.201929 
L 96.342728 54.833108 
L 96.806852 54.808146 
L 97.967161 54.882913 
L 99.359532 54.427019 
L 100.519841 54.128118 
L 100.983965 54.136833 
L 102.84046 54.075096 
L 103.304584 54.140481 
L 103.768708 54.002227 
L 104.464893 53.986279 
L 105.625202 54.09957 
L 106.321388 53.9154 
L 107.945821 54.037547 
L 108.642007 54.035809 
L 108.874068 54.092116 
L 109.338192 54.013172 
L 114.211491 53.996627 
L 114.443553 53.935385 
L 114.907677 54.005132 
L 116.300048 53.999243 
L 116.764172 54.007556 
L 116.996234 53.938549 
L 117.460357 54.010281 
L 117.692419 53.947316 
L 118.156543 54.022117 
L 119.08479 53.995507 
L 119.316852 54.067089 
L 120.013038 53.95157 
L 120.709223 54.10294 
L 120.941285 53.973843 
L 125.582523 53.971785 
L 126.046646 53.955869 
L 126.742832 54.04548 
L 128.367265 53.952007 
L 128.599327 54.07332 
L 129.295512 53.996204 
L 131.616131 53.998348 
L 132.080255 53.994683 
L 135.561183 54.011689 
L 136.025306 53.964191 
L 136.48943 53.958018 
L 137.649739 54.01391 
L 141.130667 53.94292 
L 141.826853 54.001447 
L 142.523039 53.9835 
L 142.987162 53.998901 
L 143.91541 53.904552 
L 144.379533 53.972287 
L 146.003966 54.074411 
L 148.324585 53.990497 
L 149.020771 53.945243 
L 149.484894 54.030577 
L 150.18108 53.956392 
L 154.126132 54.058455 
L 155.054379 53.969302 
L 156.214688 53.951063 
L 156.910874 53.927461 
L 157.142936 54.021526 
L 158.071183 53.950664 
L 158.767369 53.950472 
L 158.999431 54.025007 
L 159.463554 53.968237 
L 159.695616 54.07129 
L 160.391802 54.015901 
L 160.855926 54.05785 
L 163.408606 54.018619 
L 163.640668 53.926411 
L 164.336854 53.992478 
L 167.121596 54.058835 
L 167.353658 53.941814 
L 168.513967 54.002454 
L 169.674276 54.036204 
L 170.602524 54.032178 
L 171.530771 53.93379 
L 172.923143 54.10075 
L 173.85139 54.087459 
L 175.243761 53.93212 
L 175.475823 53.977357 
L 175.707885 53.902328 
L 176.636132 54.088899 
L 178.492627 53.930337 
L 178.956751 54.047132 
L 179.420875 54.018807 
L 179.884998 54.148418 
L 180.349122 54.135925 
L 181.741493 54.07038 
L 182.669741 54.051999 
L 182.901803 53.959591 
L 183.597988 54.072267 
L 184.990359 54.042464 
L 185.918607 54.024572 
L 187.078916 54.051923 
L 187.54304 54.149193 
L 188.703349 53.930876 
L 190.791906 54.003302 
L 191.25603 54.01859 
L 191.720153 54.076593 
L 192.880463 54.059802 
L 193.576648 53.953617 
L 194.040772 54.045623 
L 194.736958 54.074447 
L 197.057576 53.976129 
L 197.5217 54.089514 
L 198.449947 53.991495 
L 202.859123 54.067472 
L 203.555308 53.94942 
L 204.715618 54.003552 
L 205.179741 54.086031 
L 205.643865 54.07348 
L 206.340051 54.038257 
L 207.50036 54.124476 
L 209.124793 53.911647 
L 209.820979 54.122647 
L 210.285102 54.183745 
L 211.677474 53.937403 
L 212.605721 53.969953 
L 213.069845 54.124879 
L 213.301907 54.048602 
L 213.998092 54.167718 
L 214.694278 54.055266 
L 215.390463 53.922755 
L 215.622525 54.009082 
L 216.086649 53.998692 
L 216.550773 54.022543 
L 217.47902 54.05533 
L 217.943144 54.139376 
L 219.103453 53.945811 
L 220.263762 53.987179 
L 220.959948 54.103745 
L 221.656134 54.020321 
L 222.120257 54.06685 
L 223.280567 54.061526 
L 223.976752 54.081325 
L 228.385928 54.164655 
L 228.850051 54.23687 
L 229.778299 54.038769 
L 231.866856 54.078723 
L 232.098917 54.274967 
L 233.027165 54.246417 
L 233.955412 54.01519 
L 235.811907 54.003744 
L 236.508093 54.104553 
L 237.668402 54.011375 
L 238.132526 54.134767 
L 238.828711 54.168715 
L 243.469949 53.997639 
L 243.702011 54.114215 
L 245.558505 54.064763 
L 246.486753 54.131826 
L 247.182938 54.083392 
L 247.879124 54.120764 
L 248.807371 54.038946 
L 251.824176 54.022268 
L 252.984485 54.137143 
L 253.680671 54.054599 
L 255.305104 54.314106 
L 256.233351 54.15666 
L 256.929537 53.989264 
L 259.018093 54.046226 
L 259.946341 54.06879 
L 260.410465 53.955212 
L 261.10665 54.188546 
L 261.802836 54.184934 
L 262.26696 54.08029 
L 262.963145 54.079074 
L 263.659331 54.029927 
L 264.81964 53.948921 
L 265.283764 53.974481 
L 267.140259 54.057883 
L 267.604382 54.192447 
L 268.53263 54.185341 
L 268.764692 54.113102 
L 269.228815 54.206837 
L 269.925001 53.956925 
L 270.389125 54.03572 
L 274.566238 54.020743 
L 275.262424 54.118452 
L 276.190671 54.133863 
L 276.654795 54.119739 
L 277.118919 54.114856 
L 277.815104 53.96688 
L 278.743352 53.926846 
L 279.671599 53.902326 
L 280.599847 53.963205 
L 282.920465 54.130102 
L 283.384589 54.110609 
L 283.848713 53.997511 
L 284.080775 54.069118 
L 284.312836 53.984221 
L 284.77696 54.081587 
L 285.241084 54.150908 
L 287.097579 53.968582 
L 287.793764 53.949168 
L 292.20294 54.201009 
L 296.147991 53.949529 
L 298.700672 54.166461 
L 298.932734 54.070988 
L 299.164796 54.119868 
L 299.628919 54.044003 
L 299.860981 54.121902 
L 300.557167 54.023332 
L 301.253352 54.018965 
L 304.038095 53.953251 
L 310.535827 53.964567 
L 311.696136 53.905255 
L 312.16026 53.925099 
L 312.856446 53.977523 
L 313.784693 54.033953 
L 317.497683 53.991603 
L 318.42593 53.913844 
L 319.818301 53.952907 
L 325.155724 54.004257 
L 326.083972 53.934507 
L 326.780157 53.966227 
L 328.172528 53.992083 
L 330.261085 54.110932 
L 332.11758 54.143291 
L 334.670261 53.963262 
L 335.134384 54.007485 
L 336.990879 54.14825 
L 337.455003 54.22036 
L 340.471807 54.024864 
L 341.400055 53.896403 
L 343.720673 53.991656 
L 344.648921 54.113715 
L 346.737477 54.132847 
L 349.986343 53.869854 
L 353.23521 54.159707 
L 358.572632 53.948659 
L 359.50088 54.144191 
L 361.125313 54.105839 
L 361.821498 54.074142 
L 362.981808 53.998761 
L 366.694798 54.045377 
L 367.390983 54.222219 
L 368.319231 54.115715 
L 374.352839 54.048314 
L 374.816963 54.179877 
L 376.441396 54.065054 
L 377.601705 53.999003 
L 378.297891 53.947141 
L 379.226138 53.981486 
L 381.778819 53.994989 
L 382.707066 54.210005 
L 383.867375 54.033323 
L 385.027685 54.007645 
L 386.420056 54.03834 
L 386.88418 54.068898 
L 389.204798 53.938476 
L 391.061293 54.043812 
L 391.757479 54.089107 
L 392.221602 54.086259 
L 393.14985 53.987749 
L 393.846035 54.020134 
L 397.326963 54.014519 
L 398.255211 54.073141 
L 398.487273 54.051116 
L 398.487273 54.051116 
" style="fill:none;stroke:#ff0000;stroke-linecap:square;stroke-width:1.5;"/>
   </g>
   <g id="line2d_19">
    <path clip-path="url(#p19fd171774)" d="M 73.832727 294.912277 
L 74.296851 294.846967 
L 74.993037 294.687121 
L 78.241903 294.532576 
L 80.562521 295.184168 
L 81.490769 295.171854 
L 83.115202 294.831541 
L 84.507573 294.431724 
L 85.43582 294.445112 
L 86.828192 294.756675 
L 87.524377 295.080399 
L 88.452625 295.358924 
L 89.380872 295.331436 
L 90.541181 295.03599 
L 92.165614 294.291425 
L 93.325924 294.154045 
L 94.022109 294.457497 
L 95.182419 295.14666 
L 96.110666 295.488 
L 96.806852 295.380328 
L 98.199223 294.862564 
L 98.895408 294.695999 
L 99.12747 294.868976 
L 99.591594 294.843017 
L 99.823656 294.952232 
L 100.519841 294.757094 
L 100.983965 294.620297 
L 101.448089 294.557008 
L 101.912213 294.546509 
L 103.072522 294.2878 
L 103.304584 294.313519 
L 103.768708 294.503608 
L 104.464893 294.625706 
L 105.393141 294.698976 
L 105.857264 294.903228 
L 106.785512 295.116231 
L 108.642007 295.17345 
L 108.874068 295.099678 
L 109.338192 295.135212 
L 113.283244 294.685492 
L 113.979429 294.721917 
L 115.139739 294.786343 
L 116.300048 294.8563 
L 116.764172 294.866166 
L 116.996234 294.94543 
L 117.460357 294.892641 
L 117.924481 294.918085 
L 119.548914 294.930646 
L 120.013038 294.985393 
L 120.709223 294.813967 
L 120.941285 294.942927 
L 128.367265 294.835615 
L 128.599327 294.701078 
L 129.063451 294.769032 
L 132.544378 294.907152 
L 133.008502 294.93188 
L 133.240564 294.917898 
L 133.472626 295.035869 
L 133.93675 295.053493 
L 134.632935 295.002155 
L 135.329121 294.960722 
L 140.666544 294.85225 
L 141.130667 294.886137 
L 141.826853 294.854432 
L 142.523039 294.88541 
L 142.987162 294.886067 
L 143.91541 295.005241 
L 144.379533 294.949059 
L 146.003966 294.837513 
L 148.324585 294.964109 
L 149.020771 294.999567 
L 149.484894 294.901172 
L 150.18108 294.96044 
L 153.662008 294.716984 
L 155.054379 294.860356 
L 155.982627 294.870119 
L 156.910874 294.96147 
L 157.142936 294.881499 
L 158.071183 294.972629 
L 158.767369 294.978491 
L 158.999431 294.887136 
L 159.463554 294.945166 
L 159.695616 294.844678 
L 160.391802 294.896951 
L 160.855926 294.849847 
L 163.176544 294.795816 
L 163.640668 294.992648 
L 164.336854 294.939838 
L 165.497163 294.823155 
L 166.42541 294.848609 
L 168.746029 294.943285 
L 169.906338 294.857755 
L 171.298709 294.885478 
L 171.530771 294.965885 
L 172.691081 294.776174 
L 173.85139 294.796039 
L 175.243761 295.010766 
L 175.475823 294.96842 
L 175.707885 295.047 
L 176.40407 294.857615 
L 178.028503 294.938326 
L 178.492627 295.020984 
L 178.956751 294.90339 
L 179.420875 294.930678 
L 179.884998 294.793767 
L 180.349122 294.806172 
L 181.741493 294.885107 
L 182.205617 294.924426 
L 182.669741 294.92308 
L 182.901803 295.009456 
L 183.597988 294.887608 
L 185.222421 294.880412 
L 186.150669 294.909206 
L 186.614792 294.956181 
L 188.007164 294.794034 
L 188.703349 294.930191 
L 190.559844 294.860421 
L 193.112525 294.876443 
L 193.576648 294.969049 
L 194.040772 294.878931 
L 194.504896 294.835633 
L 197.057576 294.956963 
L 197.5217 294.832526 
L 197.985824 294.851823 
L 200.538504 294.833599 
L 201.002628 294.859615 
L 201.23469 294.821301 
L 201.466752 294.905324 
L 202.162937 294.823909 
L 202.859123 294.859355 
L 203.555308 294.98988 
L 204.483556 295.004041 
L 205.411803 294.811865 
L 206.340051 294.862193 
L 207.50036 294.757358 
L 209.124793 294.995713 
L 209.588917 294.846109 
L 210.285102 294.723235 
L 211.677474 294.988761 
L 212.605721 294.960515 
L 213.069845 294.793111 
L 213.301907 294.860221 
L 213.998092 294.736876 
L 214.462216 294.87627 
L 214.92634 294.909557 
L 215.854587 294.975103 
L 216.550773 294.892644 
L 217.47902 294.847437 
L 217.943144 294.756315 
L 219.103453 294.949279 
L 220.263762 294.891977 
L 220.959948 294.757945 
L 221.424072 294.70064 
L 221.888195 294.884496 
L 222.352319 294.79665 
L 226.993556 294.991071 
L 228.153866 294.868272 
L 228.850051 294.684549 
L 229.778299 294.867357 
L 231.866856 294.811636 
L 232.098917 294.619038 
L 233.027165 294.696221 
L 233.955412 294.996382 
L 235.347783 295.076659 
L 236.276031 294.927651 
L 236.740155 294.938593 
L 237.204278 294.962345 
L 237.668402 294.91956 
L 238.132526 294.749287 
L 238.828711 294.676122 
L 240.685206 294.762968 
L 241.381392 294.99398 
L 242.773763 295.059246 
L 243.469949 294.99977 
L 243.702011 294.876702 
L 245.558505 294.838415 
L 246.486753 294.7425 
L 247.182938 294.798555 
L 247.647062 294.790036 
L 248.343248 294.851599 
L 249.967681 295.023398 
L 255.769227 294.661782 
L 256.233351 294.839195 
L 256.697475 295.056391 
L 258.089846 295.140194 
L 259.250155 295.023446 
L 260.178403 294.99432 
L 260.410465 295.0212 
L 261.10665 294.704797 
L 261.802836 294.645118 
L 262.26696 294.73204 
L 262.963145 294.730071 
L 263.659331 294.816909 
L 264.81964 294.939991 
L 265.283764 294.919308 
L 266.444073 294.943786 
L 267.140259 294.854312 
L 267.604382 294.705372 
L 268.53263 294.727871 
L 268.764692 294.806094 
L 269.228815 294.731896 
L 269.925001 295.027287 
L 270.389125 294.96288 
L 272.477681 295.027067 
L 273.637991 294.954646 
L 277.118919 294.689256 
L 277.815104 294.897033 
L 278.51129 294.945043 
L 279.439537 295.088582 
L 281.296032 294.923944 
L 281.992218 294.880161 
L 283.152527 294.632955 
L 284.312836 294.809176 
L 284.77696 294.732733 
L 285.241084 294.701106 
L 287.097579 295.064857 
L 287.561703 295.154414 
L 291.970878 294.581295 
L 292.899125 294.727259 
L 295.451806 295.137154 
L 296.380053 295.065902 
L 298.004486 294.718454 
L 298.700672 294.633708 
L 298.932734 294.72421 
L 299.164796 294.658018 
L 299.628919 294.714165 
L 299.860981 294.646148 
L 300.789229 294.797273 
L 301.717476 294.854137 
L 302.645724 294.962395 
L 309.607579 294.860024 
L 311.696136 295.037431 
L 312.16026 295.006864 
L 312.624384 294.966853 
L 314.248817 294.770367 
L 315.177064 294.777517 
L 315.409126 294.707618 
L 316.105312 294.775247 
L 317.961806 294.903787 
L 319.58624 294.987803 
L 321.442734 294.770205 
L 321.906858 294.788194 
L 322.370982 294.823675 
L 324.227477 294.857207 
L 325.155724 294.882854 
L 326.083972 294.973973 
L 327.012219 294.950386 
L 327.940467 294.913488 
L 329.796961 294.710655 
L 332.11758 294.807532 
L 334.438199 295.140801 
L 337.687065 294.603468 
L 339.54356 294.810893 
L 341.632116 295.142497 
L 342.09624 295.101562 
L 343.488611 294.976782 
L 344.648921 294.669203 
L 346.273354 294.629312 
L 347.201601 294.790042 
L 349.986343 295.182376 
L 351.378715 294.890563 
L 352.0749 294.615541 
L 352.771086 294.625302 
L 353.467271 294.608109 
L 355.091704 294.829588 
L 358.340571 295.07467 
L 360.429127 294.751208 
L 361.357375 294.655729 
L 362.285622 294.771522 
L 365.998612 294.972311 
L 366.694798 294.879764 
L 367.390983 294.693462 
L 368.551292 294.819211 
L 369.711602 294.920466 
L 371.568097 294.959452 
L 372.264282 294.976984 
L 373.19253 294.983396 
L 374.352839 294.796565 
L 374.816963 294.635306 
L 378.762014 294.942993 
L 381.778819 294.877901 
L 382.707066 294.629519 
L 383.867375 294.841843 
L 384.795623 294.886528 
L 385.72387 294.980906 
L 387.348303 294.949999 
L 389.204798 294.960696 
L 390.829231 294.706262 
L 391.757479 294.668817 
L 391.989541 294.617131 
L 392.917788 294.816936 
L 395.70253 295.072632 
L 398.487273 294.809183 
L 398.487273 294.809183 
" style="fill:none;stroke:#008000;stroke-linecap:square;stroke-width:1.5;"/>
   </g>
   <g id="patch_3">
    <path d="M 57.6 307.584 
L 57.6 41.472 
" style="fill:none;stroke:#000000;stroke-linecap:square;stroke-linejoin:miter;stroke-width:0.8;"/>
   </g>
   <g id="patch_4">
    <path d="M 414.72 307.584 
L 414.72 41.472 
" style="fill:none;stroke:#000000;stroke-linecap:square;stroke-linejoin:miter;stroke-width:0.8;"/>
   </g>
   <g id="patch_5">
    <path d="M 57.6 307.584 
L 414.72 307.584 
" style="fill:none;stroke:#000000;stroke-linecap:square;stroke-linejoin:miter;stroke-width:0.8;"/>
   </g>
   <g id="patch_6">
    <path d="M 57.6 41.472 
L 414.72 41.472 
" style="fill:none;stroke:#000000;stroke-linecap:square;stroke-linejoin:miter;stroke-width:0.8;"/>
   </g>
   <g id="legend_1">
    <g id="patch_7">
     <path d="M 351.0075 198.045187 
L 407.72 198.045187 
Q 409.72 198.045187 409.72 196.045187 
L 409.72 153.010812 
Q 409.72 151.010812 407.72 151.010812 
L 351.0075 151.010812 
Q 349.0075 151.010812 349.0075 153.010812 
L 349.0075 196.045187 
Q 349.0075 198.045187 351.0075 198.045187 
z
" style="fill:#ffffff;opacity:0.8;stroke:#cccccc;stroke-linejoin:miter;"/>
    </g>
    <g id="line2d_20">
     <path d="M 353.0075 159.10925 
L 373.0075 159.10925 
" style="fill:none;stroke:#1f77b4;stroke-linecap:square;stroke-width:1.5;"/>
    </g>
    <g id="line2d_21"/>
    <g id="text_17">
     <!-- 0-&gt;1 -->
     <defs>
      <path d="M 4.890625 31.390625 
L 31.203125 31.390625 
L 31.203125 23.390625 
L 4.890625 23.390625 
z
" id="DejaVuSans-45"/>
      <path d="M 10.59375 49.21875 
L 10.59375 58.109375 
L 73.1875 35.40625 
L 73.1875 27.296875 
L 10.59375 4.59375 
L 10.59375 13.484375 
L 60.890625 31.296875 
z
" id="DejaVuSans-62"/>
     </defs>
     <g transform="translate(381.0075 162.60925)scale(0.1 -0.1)">
      <use xlink:href="#DejaVuSans-48"/>
      <use x="63.623047" xlink:href="#DejaVuSans-45"/>
      <use x="99.707031" xlink:href="#DejaVuSans-62"/>
      <use x="183.496094" xlink:href="#DejaVuSans-49"/>
     </g>
    </g>
    <g id="line2d_22">
     <path d="M 353.0075 173.787375 
L 373.0075 173.787375 
" style="fill:none;stroke:#ff0000;stroke-linecap:square;stroke-width:1.5;"/>
    </g>
    <g id="line2d_23"/>
    <g id="text_18">
     <!-- 1-&gt;0 -->
     <g transform="translate(381.0075 177.287375)scale(0.1 -0.1)">
      <use xlink:href="#DejaVuSans-49"/>
      <use x="63.623047" xlink:href="#DejaVuSans-45"/>
      <use x="99.707031" xlink:href="#DejaVuSans-62"/>
      <use x="183.496094" xlink:href="#DejaVuSans-48"/>
     </g>
    </g>
    <g id="line2d_24">
     <path d="M 353.0075 188.4655 
L 373.0075 188.4655 
" style="fill:none;stroke:#008000;stroke-linecap:square;stroke-width:1.5;"/>
    </g>
    <g id="line2d_25"/>
    <g id="text_19">
     <!-- diff -->
     <defs>
      <path d="M 45.40625 46.390625 
L 45.40625 75.984375 
L 54.390625 75.984375 
L 54.390625 0 
L 45.40625 0 
L 45.40625 8.203125 
Q 42.578125 3.328125 38.25 0.953125 
Q 33.9375 -1.421875 27.875 -1.421875 
Q 17.96875 -1.421875 11.734375 6.484375 
Q 5.515625 14.40625 5.515625 27.296875 
Q 5.515625 40.1875 11.734375 48.09375 
Q 17.96875 56 27.875 56 
Q 33.9375 56 38.25 53.625 
Q 42.578125 51.265625 45.40625 46.390625 
z
M 14.796875 27.296875 
Q 14.796875 17.390625 18.875 11.75 
Q 22.953125 6.109375 30.078125 6.109375 
Q 37.203125 6.109375 41.296875 11.75 
Q 45.40625 17.390625 45.40625 27.296875 
Q 45.40625 37.203125 41.296875 42.84375 
Q 37.203125 48.484375 30.078125 48.484375 
Q 22.953125 48.484375 18.875 42.84375 
Q 14.796875 37.203125 14.796875 27.296875 
z
" id="DejaVuSans-100"/>
      <path d="M 9.421875 54.6875 
L 18.40625 54.6875 
L 18.40625 0 
L 9.421875 0 
z
M 9.421875 75.984375 
L 18.40625 75.984375 
L 18.40625 64.59375 
L 9.421875 64.59375 
z
" id="DejaVuSans-105"/>
      <path d="M 37.109375 75.984375 
L 37.109375 68.5 
L 28.515625 68.5 
Q 23.6875 68.5 21.796875 66.546875 
Q 19.921875 64.59375 19.921875 59.515625 
L 19.921875 54.6875 
L 34.71875 54.6875 
L 34.71875 47.703125 
L 19.921875 47.703125 
L 19.921875 0 
L 10.890625 0 
L 10.890625 47.703125 
L 2.296875 47.703125 
L 2.296875 54.6875 
L 10.890625 54.6875 
L 10.890625 58.5 
Q 10.890625 67.625 15.140625 71.796875 
Q 19.390625 75.984375 28.609375 75.984375 
z
" id="DejaVuSans-102"/>
     </defs>
     <g transform="translate(381.0075 191.9655)scale(0.1 -0.1)">
      <use xlink:href="#DejaVuSans-100"/>
      <use x="63.476562" xlink:href="#DejaVuSans-105"/>
      <use x="91.259766" xlink:href="#DejaVuSans-102"/>
      <use x="126.464844" xlink:href="#DejaVuSans-102"/>
     </g>
    </g>
   </g>
  </g>
 </g>
 <defs>
  <clipPath id="p19fd171774">
   <rect height="266.112" width="357.12" x="57.6" y="41.472"/>
  </clipPath>
 </defs>
</svg>
