<?xml version="1.0" encoding="utf-8" standalone="no"?>
<!DOCTYPE svg PUBLIC "-//W3C//DTD SVG 1.1//EN"
  "http://www.w3.org/Graphics/SVG/1.1/DTD/svg11.dtd">
<!-- Created with matplotlib (https://matplotlib.org/) -->
<svg height="345.6pt" version="1.1" viewBox="0 0 460.8 345.6" width="460.8pt" xmlns="http://www.w3.org/2000/svg" xmlns:xlink="http://www.w3.org/1999/xlink">
 <defs>
  <style type="text/css">
*{stroke-linecap:butt;stroke-linejoin:round;}
  </style>
 </defs>
 <g id="figure_1">
  <g id="patch_1">
   <path d="M 0 345.6 
L 460.8 345.6 
L 460.8 0 
L 0 0 
z
" style="fill:#ffffff;"/>
  </g>
  <g id="axes_1">
   <g id="patch_2">
    <path d="M 57.6 307.584 
L 414.72 307.584 
L 414.72 41.472 
L 57.6 41.472 
z
" style="fill:#ffffff;"/>
   </g>
   <g id="matplotlib.axis_1">
    <g id="xtick_1">
     <g id="line2d_1">
      <defs>
       <path d="M 0 0 
L 0 3.5 
" id="mf343ac6945" style="stroke:#000000;stroke-width:0.8;"/>
      </defs>
      <g>
       <use style="stroke:#000000;stroke-width:0.8;" x="73.832727" xlink:href="#mf343ac6945" y="307.584"/>
      </g>
     </g>
     <g id="text_1">
      <!-- 0 -->
      <defs>
       <path d="M 31.78125 66.40625 
Q 24.171875 66.40625 20.328125 58.90625 
Q 16.5 51.421875 16.5 36.375 
Q 16.5 21.390625 20.328125 13.890625 
Q 24.171875 6.390625 31.78125 6.390625 
Q 39.453125 6.390625 43.28125 13.890625 
Q 47.125 21.390625 47.125 36.375 
Q 47.125 51.421875 43.28125 58.90625 
Q 39.453125 66.40625 31.78125 66.40625 
z
M 31.78125 74.21875 
Q 44.046875 74.21875 50.515625 64.515625 
Q 56.984375 54.828125 56.984375 36.375 
Q 56.984375 17.96875 50.515625 8.265625 
Q 44.046875 -1.421875 31.78125 -1.421875 
Q 19.53125 -1.421875 13.0625 8.265625 
Q 6.59375 17.96875 6.59375 36.375 
Q 6.59375 54.828125 13.0625 64.515625 
Q 19.53125 74.21875 31.78125 74.21875 
z
" id="DejaVuSans-48"/>
      </defs>
      <g transform="translate(70.651477 322.182437)scale(0.1 -0.1)">
       <use xlink:href="#DejaVuSans-48"/>
      </g>
     </g>
    </g>
    <g id="xtick_2">
     <g id="line2d_2">
      <g>
       <use style="stroke:#000000;stroke-width:0.8;" x="120.2451" xlink:href="#mf343ac6945" y="307.584"/>
      </g>
     </g>
     <g id="text_2">
      <!-- 200 -->
      <defs>
       <path d="M 19.1875 8.296875 
L 53.609375 8.296875 
L 53.609375 0 
L 7.328125 0 
L 7.328125 8.296875 
Q 12.9375 14.109375 22.625 23.890625 
Q 32.328125 33.6875 34.8125 36.53125 
Q 39.546875 41.84375 41.421875 45.53125 
Q 43.3125 49.21875 43.3125 52.78125 
Q 43.3125 58.59375 39.234375 62.25 
Q 35.15625 65.921875 28.609375 65.921875 
Q 23.96875 65.921875 18.8125 64.3125 
Q 13.671875 62.703125 7.8125 59.421875 
L 7.8125 69.390625 
Q 13.765625 71.78125 18.9375 73 
Q 24.125 74.21875 28.421875 74.21875 
Q 39.75 74.21875 46.484375 68.546875 
Q 53.21875 62.890625 53.21875 53.421875 
Q 53.21875 48.921875 51.53125 44.890625 
Q 49.859375 40.875 45.40625 35.40625 
Q 44.1875 33.984375 37.640625 27.21875 
Q 31.109375 20.453125 19.1875 8.296875 
z
" id="DejaVuSans-50"/>
      </defs>
      <g transform="translate(110.70135 322.182437)scale(0.1 -0.1)">
       <use xlink:href="#DejaVuSans-50"/>
       <use x="63.623047" xlink:href="#DejaVuSans-48"/>
       <use x="127.246094" xlink:href="#DejaVuSans-48"/>
      </g>
     </g>
    </g>
    <g id="xtick_3">
     <g id="line2d_3">
      <g>
       <use style="stroke:#000000;stroke-width:0.8;" x="166.657472" xlink:href="#mf343ac6945" y="307.584"/>
      </g>
     </g>
     <g id="text_3">
      <!-- 400 -->
      <defs>
       <path d="M 37.796875 64.3125 
L 12.890625 25.390625 
L 37.796875 25.390625 
z
M 35.203125 72.90625 
L 47.609375 72.90625 
L 47.609375 25.390625 
L 58.015625 25.390625 
L 58.015625 17.1875 
L 47.609375 17.1875 
L 47.609375 0 
L 37.796875 0 
L 37.796875 17.1875 
L 4.890625 17.1875 
L 4.890625 26.703125 
z
" id="DejaVuSans-52"/>
      </defs>
      <g transform="translate(157.113722 322.182437)scale(0.1 -0.1)">
       <use xlink:href="#DejaVuSans-52"/>
       <use x="63.623047" xlink:href="#DejaVuSans-48"/>
       <use x="127.246094" xlink:href="#DejaVuSans-48"/>
      </g>
     </g>
    </g>
    <g id="xtick_4">
     <g id="line2d_4">
      <g>
       <use style="stroke:#000000;stroke-width:0.8;" x="213.069845" xlink:href="#mf343ac6945" y="307.584"/>
      </g>
     </g>
     <g id="text_4">
      <!-- 600 -->
      <defs>
       <path d="M 33.015625 40.375 
Q 26.375 40.375 22.484375 35.828125 
Q 18.609375 31.296875 18.609375 23.390625 
Q 18.609375 15.53125 22.484375 10.953125 
Q 26.375 6.390625 33.015625 6.390625 
Q 39.65625 6.390625 43.53125 10.953125 
Q 47.40625 15.53125 47.40625 23.390625 
Q 47.40625 31.296875 43.53125 35.828125 
Q 39.65625 40.375 33.015625 40.375 
z
M 52.59375 71.296875 
L 52.59375 62.3125 
Q 48.875 64.0625 45.09375 64.984375 
Q 41.3125 65.921875 37.59375 65.921875 
Q 27.828125 65.921875 22.671875 59.328125 
Q 17.53125 52.734375 16.796875 39.40625 
Q 19.671875 43.65625 24.015625 45.921875 
Q 28.375 48.1875 33.59375 48.1875 
Q 44.578125 48.1875 50.953125 41.515625 
Q 57.328125 34.859375 57.328125 23.390625 
Q 57.328125 12.15625 50.6875 5.359375 
Q 44.046875 -1.421875 33.015625 -1.421875 
Q 20.359375 -1.421875 13.671875 8.265625 
Q 6.984375 17.96875 6.984375 36.375 
Q 6.984375 53.65625 15.1875 63.9375 
Q 23.390625 74.21875 37.203125 74.21875 
Q 40.921875 74.21875 44.703125 73.484375 
Q 48.484375 72.75 52.59375 71.296875 
z
" id="DejaVuSans-54"/>
      </defs>
      <g transform="translate(203.526095 322.182437)scale(0.1 -0.1)">
       <use xlink:href="#DejaVuSans-54"/>
       <use x="63.623047" xlink:href="#DejaVuSans-48"/>
       <use x="127.246094" xlink:href="#DejaVuSans-48"/>
      </g>
     </g>
    </g>
    <g id="xtick_5">
     <g id="line2d_5">
      <g>
       <use style="stroke:#000000;stroke-width:0.8;" x="259.482217" xlink:href="#mf343ac6945" y="307.584"/>
      </g>
     </g>
     <g id="text_5">
      <!-- 800 -->
      <defs>
       <path d="M 31.78125 34.625 
Q 24.75 34.625 20.71875 30.859375 
Q 16.703125 27.09375 16.703125 20.515625 
Q 16.703125 13.921875 20.71875 10.15625 
Q 24.75 6.390625 31.78125 6.390625 
Q 38.8125 6.390625 42.859375 10.171875 
Q 46.921875 13.96875 46.921875 20.515625 
Q 46.921875 27.09375 42.890625 30.859375 
Q 38.875 34.625 31.78125 34.625 
z
M 21.921875 38.8125 
Q 15.578125 40.375 12.03125 44.71875 
Q 8.5 49.078125 8.5 55.328125 
Q 8.5 64.0625 14.71875 69.140625 
Q 20.953125 74.21875 31.78125 74.21875 
Q 42.671875 74.21875 48.875 69.140625 
Q 55.078125 64.0625 55.078125 55.328125 
Q 55.078125 49.078125 51.53125 44.71875 
Q 48 40.375 41.703125 38.8125 
Q 48.828125 37.15625 52.796875 32.3125 
Q 56.78125 27.484375 56.78125 20.515625 
Q 56.78125 9.90625 50.3125 4.234375 
Q 43.84375 -1.421875 31.78125 -1.421875 
Q 19.734375 -1.421875 13.25 4.234375 
Q 6.78125 9.90625 6.78125 20.515625 
Q 6.78125 27.484375 10.78125 32.3125 
Q 14.796875 37.15625 21.921875 38.8125 
z
M 18.3125 54.390625 
Q 18.3125 48.734375 21.84375 45.5625 
Q 25.390625 42.390625 31.78125 42.390625 
Q 38.140625 42.390625 41.71875 45.5625 
Q 45.3125 48.734375 45.3125 54.390625 
Q 45.3125 60.0625 41.71875 63.234375 
Q 38.140625 66.40625 31.78125 66.40625 
Q 25.390625 66.40625 21.84375 63.234375 
Q 18.3125 60.0625 18.3125 54.390625 
z
" id="DejaVuSans-56"/>
      </defs>
      <g transform="translate(249.938467 322.182437)scale(0.1 -0.1)">
       <use xlink:href="#DejaVuSans-56"/>
       <use x="63.623047" xlink:href="#DejaVuSans-48"/>
       <use x="127.246094" xlink:href="#DejaVuSans-48"/>
      </g>
     </g>
    </g>
    <g id="xtick_6">
     <g id="line2d_6">
      <g>
       <use style="stroke:#000000;stroke-width:0.8;" x="305.89459" xlink:href="#mf343ac6945" y="307.584"/>
      </g>
     </g>
     <g id="text_6">
      <!-- 1000 -->
      <defs>
       <path d="M 12.40625 8.296875 
L 28.515625 8.296875 
L 28.515625 63.921875 
L 10.984375 60.40625 
L 10.984375 69.390625 
L 28.421875 72.90625 
L 38.28125 72.90625 
L 38.28125 8.296875 
L 54.390625 8.296875 
L 54.390625 0 
L 12.40625 0 
z
" id="DejaVuSans-49"/>
      </defs>
      <g transform="translate(293.16959 322.182437)scale(0.1 -0.1)">
       <use xlink:href="#DejaVuSans-49"/>
       <use x="63.623047" xlink:href="#DejaVuSans-48"/>
       <use x="127.246094" xlink:href="#DejaVuSans-48"/>
       <use x="190.869141" xlink:href="#DejaVuSans-48"/>
      </g>
     </g>
    </g>
    <g id="xtick_7">
     <g id="line2d_7">
      <g>
       <use style="stroke:#000000;stroke-width:0.8;" x="352.306962" xlink:href="#mf343ac6945" y="307.584"/>
      </g>
     </g>
     <g id="text_7">
      <!-- 1200 -->
      <g transform="translate(339.581962 322.182437)scale(0.1 -0.1)">
       <use xlink:href="#DejaVuSans-49"/>
       <use x="63.623047" xlink:href="#DejaVuSans-50"/>
       <use x="127.246094" xlink:href="#DejaVuSans-48"/>
       <use x="190.869141" xlink:href="#DejaVuSans-48"/>
      </g>
     </g>
    </g>
    <g id="xtick_8">
     <g id="line2d_8">
      <g>
       <use style="stroke:#000000;stroke-width:0.8;" x="398.719335" xlink:href="#mf343ac6945" y="307.584"/>
      </g>
     </g>
     <g id="text_8">
      <!-- 1400 -->
      <g transform="translate(385.994335 322.182437)scale(0.1 -0.1)">
       <use xlink:href="#DejaVuSans-49"/>
       <use x="63.623047" xlink:href="#DejaVuSans-52"/>
       <use x="127.246094" xlink:href="#DejaVuSans-48"/>
       <use x="190.869141" xlink:href="#DejaVuSans-48"/>
      </g>
     </g>
    </g>
   </g>
   <g id="matplotlib.axis_2">
    <g id="ytick_1">
     <g id="line2d_9">
      <defs>
       <path d="M 0 0 
L -3.5 0 
" id="md3e3eb6bfc" style="stroke:#000000;stroke-width:0.8;"/>
      </defs>
      <g>
       <use style="stroke:#000000;stroke-width:0.8;" x="57.6" xlink:href="#md3e3eb6bfc" y="294.292004"/>
      </g>
     </g>
     <g id="text_9">
      <!-- 0.0 -->
      <defs>
       <path d="M 10.6875 12.40625 
L 21 12.40625 
L 21 0 
L 10.6875 0 
z
" id="DejaVuSans-46"/>
      </defs>
      <g transform="translate(34.696875 298.091223)scale(0.1 -0.1)">
       <use xlink:href="#DejaVuSans-48"/>
       <use x="63.623047" xlink:href="#DejaVuSans-46"/>
       <use x="95.410156" xlink:href="#DejaVuSans-48"/>
      </g>
     </g>
    </g>
    <g id="ytick_2">
     <g id="line2d_10">
      <g>
       <use style="stroke:#000000;stroke-width:0.8;" x="57.6" xlink:href="#md3e3eb6bfc" y="257.994158"/>
      </g>
     </g>
     <g id="text_10">
      <!-- 0.1 -->
      <g transform="translate(34.696875 261.793377)scale(0.1 -0.1)">
       <use xlink:href="#DejaVuSans-48"/>
       <use x="63.623047" xlink:href="#DejaVuSans-46"/>
       <use x="95.410156" xlink:href="#DejaVuSans-49"/>
      </g>
     </g>
    </g>
    <g id="ytick_3">
     <g id="line2d_11">
      <g>
       <use style="stroke:#000000;stroke-width:0.8;" x="57.6" xlink:href="#md3e3eb6bfc" y="221.696312"/>
      </g>
     </g>
     <g id="text_11">
      <!-- 0.2 -->
      <g transform="translate(34.696875 225.495531)scale(0.1 -0.1)">
       <use xlink:href="#DejaVuSans-48"/>
       <use x="63.623047" xlink:href="#DejaVuSans-46"/>
       <use x="95.410156" xlink:href="#DejaVuSans-50"/>
      </g>
     </g>
    </g>
    <g id="ytick_4">
     <g id="line2d_12">
      <g>
       <use style="stroke:#000000;stroke-width:0.8;" x="57.6" xlink:href="#md3e3eb6bfc" y="185.398466"/>
      </g>
     </g>
     <g id="text_12">
      <!-- 0.3 -->
      <defs>
       <path d="M 40.578125 39.3125 
Q 47.65625 37.796875 51.625 33 
Q 55.609375 28.21875 55.609375 21.1875 
Q 55.609375 10.40625 48.1875 4.484375 
Q 40.765625 -1.421875 27.09375 -1.421875 
Q 22.515625 -1.421875 17.65625 -0.515625 
Q 12.796875 0.390625 7.625 2.203125 
L 7.625 11.71875 
Q 11.71875 9.328125 16.59375 8.109375 
Q 21.484375 6.890625 26.8125 6.890625 
Q 36.078125 6.890625 40.9375 10.546875 
Q 45.796875 14.203125 45.796875 21.1875 
Q 45.796875 27.640625 41.28125 31.265625 
Q 36.765625 34.90625 28.71875 34.90625 
L 20.21875 34.90625 
L 20.21875 43.015625 
L 29.109375 43.015625 
Q 36.375 43.015625 40.234375 45.921875 
Q 44.09375 48.828125 44.09375 54.296875 
Q 44.09375 59.90625 40.109375 62.90625 
Q 36.140625 65.921875 28.71875 65.921875 
Q 24.65625 65.921875 20.015625 65.03125 
Q 15.375 64.15625 9.8125 62.3125 
L 9.8125 71.09375 
Q 15.4375 72.65625 20.34375 73.4375 
Q 25.25 74.21875 29.59375 74.21875 
Q 40.828125 74.21875 47.359375 69.109375 
Q 53.90625 64.015625 53.90625 55.328125 
Q 53.90625 49.265625 50.4375 45.09375 
Q 46.96875 40.921875 40.578125 39.3125 
z
" id="DejaVuSans-51"/>
      </defs>
      <g transform="translate(34.696875 189.197684)scale(0.1 -0.1)">
       <use xlink:href="#DejaVuSans-48"/>
       <use x="63.623047" xlink:href="#DejaVuSans-46"/>
       <use x="95.410156" xlink:href="#DejaVuSans-51"/>
      </g>
     </g>
    </g>
    <g id="ytick_5">
     <g id="line2d_13">
      <g>
       <use style="stroke:#000000;stroke-width:0.8;" x="57.6" xlink:href="#md3e3eb6bfc" y="149.100619"/>
      </g>
     </g>
     <g id="text_13">
      <!-- 0.4 -->
      <g transform="translate(34.696875 152.899838)scale(0.1 -0.1)">
       <use xlink:href="#DejaVuSans-48"/>
       <use x="63.623047" xlink:href="#DejaVuSans-46"/>
       <use x="95.410156" xlink:href="#DejaVuSans-52"/>
      </g>
     </g>
    </g>
    <g id="ytick_6">
     <g id="line2d_14">
      <g>
       <use style="stroke:#000000;stroke-width:0.8;" x="57.6" xlink:href="#md3e3eb6bfc" y="112.802773"/>
      </g>
     </g>
     <g id="text_14">
      <!-- 0.5 -->
      <defs>
       <path d="M 10.796875 72.90625 
L 49.515625 72.90625 
L 49.515625 64.59375 
L 19.828125 64.59375 
L 19.828125 46.734375 
Q 21.96875 47.46875 24.109375 47.828125 
Q 26.265625 48.1875 28.421875 48.1875 
Q 40.625 48.1875 47.75 41.5 
Q 54.890625 34.8125 54.890625 23.390625 
Q 54.890625 11.625 47.5625 5.09375 
Q 40.234375 -1.421875 26.90625 -1.421875 
Q 22.3125 -1.421875 17.546875 -0.640625 
Q 12.796875 0.140625 7.71875 1.703125 
L 7.71875 11.625 
Q 12.109375 9.234375 16.796875 8.0625 
Q 21.484375 6.890625 26.703125 6.890625 
Q 35.15625 6.890625 40.078125 11.328125 
Q 45.015625 15.765625 45.015625 23.390625 
Q 45.015625 31 40.078125 35.4375 
Q 35.15625 39.890625 26.703125 39.890625 
Q 22.75 39.890625 18.8125 39.015625 
Q 14.890625 38.140625 10.796875 36.28125 
z
" id="DejaVuSans-53"/>
      </defs>
      <g transform="translate(34.696875 116.601992)scale(0.1 -0.1)">
       <use xlink:href="#DejaVuSans-48"/>
       <use x="63.623047" xlink:href="#DejaVuSans-46"/>
       <use x="95.410156" xlink:href="#DejaVuSans-53"/>
      </g>
     </g>
    </g>
    <g id="ytick_7">
     <g id="line2d_15">
      <g>
       <use style="stroke:#000000;stroke-width:0.8;" x="57.6" xlink:href="#md3e3eb6bfc" y="76.504927"/>
      </g>
     </g>
     <g id="text_15">
      <!-- 0.6 -->
      <g transform="translate(34.696875 80.304146)scale(0.1 -0.1)">
       <use xlink:href="#DejaVuSans-48"/>
       <use x="63.623047" xlink:href="#DejaVuSans-46"/>
       <use x="95.410156" xlink:href="#DejaVuSans-54"/>
      </g>
     </g>
    </g>
   </g>
   <g id="line2d_16">
    <path clip-path="url(#p056e13a606)" d="M 73.832727 56.410113 
L 74.760975 56.267191 
L 75.689222 56.400165 
L 77.313655 57.087205 
L 78.241903 57.381243 
L 79.17015 57.451188 
L 79.866336 57.243529 
L 82.88314 55.817202 
L 83.811387 55.855443 
L 84.971697 56.23619 
L 86.132006 56.560549 
L 86.828192 56.575742 
L 87.756439 56.362826 
L 90.541181 55.240559 
L 91.469429 55.196352 
L 92.629738 55.420712 
L 94.022109 55.776701 
L 94.718295 55.794383 
L 95.646542 55.586323 
L 96.342728 55.301797 
L 98.663347 54.322002 
L 99.591594 54.285046 
L 102.608398 54.980717 
L 103.304584 54.898218 
L 104.232831 54.635204 
L 105.625202 54.144799 
L 106.55345 53.992539 
L 107.713759 54.087502 
L 110.034378 54.526251 
L 111.194687 54.404436 
L 112.354996 54.059235 
L 113.747368 53.674538 
L 114.907677 53.638604 
L 116.300048 53.979135 
L 117.692419 54.294926 
L 119.08479 54.20655 
L 122.333657 53.665201 
L 123.493966 53.894723 
L 125.814584 54.430743 
L 126.974894 54.293562 
L 129.063451 53.848075 
L 129.991698 53.873641 
L 131.152007 54.143965 
L 133.008502 54.655912 
L 133.93675 54.664815 
L 135.329121 54.381609 
L 136.721492 54.073287 
L 137.649739 54.080228 
L 138.810049 54.368188 
L 140.434482 54.877908 
L 141.362729 54.928582 
L 142.7551 54.65894 
L 144.611595 54.190743 
L 145.539843 54.204298 
L 146.700152 54.489892 
L 148.556647 55.096991 
L 149.252833 55.171798 
L 150.18108 55.049501 
L 152.501699 54.3414 
L 153.429946 54.371587 
L 154.358194 54.664474 
L 155.750565 55.229188 
L 156.678812 55.409176 
L 157.60706 55.38548 
L 159.231493 54.884418 
L 160.15974 54.648206 
L 160.855926 54.62768 
L 161.784173 54.784335 
L 164.800977 55.546359 
L 165.729225 55.411989 
L 168.049843 54.794112 
L 168.978091 54.830366 
L 170.602524 55.326649 
L 171.994895 55.731946 
L 172.923143 55.725351 
L 173.619328 55.578244 
L 175.475823 55.012411 
L 176.40407 54.963607 
L 177.796442 55.315546 
L 179.420875 55.865268 
L 180.349122 55.963389 
L 181.045308 55.865135 
L 183.597988 55.160525 
L 184.526236 55.233428 
L 185.454483 55.506341 
L 186.846854 55.944718 
L 188.007164 56.041398 
L 189.167473 55.854669 
L 191.023968 55.269818 
L 192.184277 55.281577 
L 193.344586 55.634399 
L 194.736958 56.059111 
L 195.665205 56.1587 
L 196.593452 56.052582 
L 199.378195 55.346309 
L 200.306442 55.476147 
L 203.091185 56.264341 
L 204.019432 56.148636 
L 205.179741 55.791473 
L 206.340051 55.468512 
L 207.50036 55.508519 
L 208.660669 55.848718 
L 210.285102 56.336959 
L 210.981288 56.351248 
L 212.141597 56.114278 
L 213.76603 55.624802 
L 214.694278 55.574923 
L 215.854587 55.790559 
L 218.407268 56.418845 
L 219.335515 56.293607 
L 222.584381 55.655946 
L 223.74469 55.886287 
L 226.065309 56.409242 
L 226.761495 56.348442 
L 230.010361 55.637031 
L 230.938608 55.791364 
L 233.491289 56.44001 
L 234.419536 56.378536 
L 235.579845 56.065517 
L 236.740155 55.730896 
L 237.900464 55.669944 
L 238.828711 55.860758 
L 241.381392 56.494038 
L 242.309639 56.398193 
L 245.326444 55.722159 
L 246.254691 55.808825 
L 249.503557 56.396978 
L 250.663866 56.177089 
L 252.520361 55.813152 
L 253.448609 55.87498 
L 255.073042 56.287771 
L 256.465413 56.534469 
L 257.625722 56.467262 
L 260.874588 55.829654 
L 262.034898 56.032925 
L 263.659331 56.458794 
L 264.587578 56.535618 
L 265.515826 56.445155 
L 266.676135 56.157395 
L 268.300568 55.851583 
L 269.228815 55.909155 
L 272.24562 56.543808 
L 273.637991 56.352204 
L 276.422733 55.934404 
L 277.583042 56.120149 
L 280.135723 56.543916 
L 281.528094 56.368893 
L 283.152527 56.070843 
L 284.080775 56.042661 
L 285.705208 56.267966 
L 287.561703 56.561005 
L 289.186136 56.467094 
L 292.435002 56.166343 
L 293.827373 56.363135 
L 295.451806 56.595246 
L 296.612115 56.56352 
L 299.860981 56.251913 
L 301.021291 56.373403 
L 302.877785 56.620167 
L 304.73428 56.568771 
L 307.983146 56.372584 
L 312.392322 56.639113 
L 316.105312 56.469768 
L 319.58624 56.686092 
L 321.906858 56.530746 
L 323.995415 56.462223 
L 327.012219 56.700303 
L 329.796961 56.490605 
L 331.189333 56.394279 
L 332.581704 56.510091 
L 335.134384 56.723316 
L 337.222941 56.534211 
L 339.311498 56.418963 
L 340.471807 56.541277 
L 343.488611 56.79591 
L 347.433663 56.412487 
L 349.058096 56.671199 
L 350.218405 56.807879 
L 351.610777 56.755416 
L 354.163457 56.404062 
L 355.323766 56.445265 
L 358.804694 56.732489 
L 362.285622 56.37276 
L 364.838303 56.627231 
L 365.998612 56.697876 
L 367.855107 56.523598 
L 368.783354 56.373072 
L 370.175726 56.330037 
L 371.336035 56.43642 
L 373.656653 56.717459 
L 374.816963 56.643914 
L 378.297891 56.330989 
L 381.082633 56.707532 
L 382.242942 56.675894 
L 386.420056 56.387457 
L 389.204798 56.672885 
L 390.829231 56.508481 
L 393.381912 56.289421 
L 395.238407 56.527751 
L 397.094902 56.674846 
L 398.487273 56.532637 
L 398.487273 56.532637 
" style="fill:none;stroke:#1f77b4;stroke-linecap:square;stroke-width:1.5;"/>
   </g>
   <g id="line2d_17">
    <path clip-path="url(#p056e13a606)" d="M 73.832727 57.112256 
L 75.921284 57.198596 
L 76.849531 56.8846 
L 77.777779 56.534142 
L 79.402212 56.24143 
L 79.866336 56.483482 
L 80.794583 56.728201 
L 81.954892 56.774994 
L 82.651078 57.034022 
L 83.347264 57.005024 
L 84.971697 56.2721 
L 86.132006 55.75892 
L 87.292315 55.492307 
L 87.988501 55.576442 
L 91.005305 56.090805 
L 92.165614 55.907012 
L 92.8618 55.654681 
L 94.486233 55.044238 
L 96.110666 54.787856 
L 98.663347 55.184396 
L 99.823656 55.030563 
L 101.216027 54.513868 
L 102.144274 54.204176 
L 102.84046 54.197911 
L 103.536646 54.228924 
L 104.232831 54.392753 
L 106.089326 54.726574 
L 107.017574 54.619757 
L 108.642007 54.161689 
L 109.802316 53.820628 
L 111.194687 53.74981 
L 112.354996 54.008569 
L 113.747368 54.336333 
L 115.371801 54.224988 
L 116.764172 53.838189 
L 117.924481 53.587579 
L 118.852729 53.610067 
L 119.780976 53.827137 
L 121.405409 54.270448 
L 122.565718 54.322658 
L 123.261904 54.17543 
L 125.582523 53.734217 
L 126.046646 53.714364 
L 129.063451 54.491672 
L 129.991698 54.569804 
L 131.848193 54.181932 
L 133.008502 53.955447 
L 134.168811 53.998587 
L 135.097059 54.296159 
L 136.953554 54.794885 
L 138.113863 54.758338 
L 139.506234 54.416815 
L 140.20242 54.180223 
L 142.058915 54.269092 
L 144.843657 54.934378 
L 146.003966 54.907899 
L 149.252833 54.234339 
L 150.18108 54.413005 
L 151.341389 54.903627 
L 152.501699 55.277274 
L 153.429946 55.28544 
L 154.358194 55.02438 
L 155.054379 54.773649 
L 156.214688 54.541822 
L 156.678812 54.578929 
L 157.60706 54.641425 
L 158.767369 54.997997 
L 159.695616 55.323145 
L 161.320049 55.43239 
L 162.944482 55.032454 
L 163.87273 54.818203 
L 165.033039 54.723251 
L 166.193348 55.011079 
L 167.817782 55.525534 
L 168.978091 55.623389 
L 170.602524 55.235984 
L 171.762833 54.935423 
L 172.923143 54.905639 
L 174.315514 55.366094 
L 175.475823 55.764564 
L 176.636132 55.834846 
L 177.332318 55.7236 
L 179.652937 55.078564 
L 180.581184 55.084929 
L 181.27737 55.263166 
L 183.365926 55.978688 
L 184.294174 56.021952 
L 188.007164 55.188453 
L 189.167473 55.44402 
L 190.791906 56.004012 
L 191.488091 56.102092 
L 192.416339 56.041487 
L 193.80871 55.658688 
L 194.736958 55.358879 
L 196.129329 55.36728 
L 197.057576 55.625769 
L 198.914071 56.159952 
L 200.07438 56.132595 
L 201.23469 55.80203 
L 202.394999 55.463078 
L 203.323246 55.396372 
L 204.251494 55.567059 
L 204.94768 55.830702 
L 206.340051 56.288232 
L 207.268298 56.3254 
L 208.428607 56.034386 
L 210.517164 55.450758 
L 211.445412 55.551362 
L 213.76603 56.313199 
L 214.694278 56.397347 
L 215.622525 56.260761 
L 218.639329 55.617336 
L 222.352319 56.389467 
L 223.280567 56.288581 
L 226.297371 55.643632 
L 226.993556 55.745697 
L 229.778299 56.405854 
L 230.938608 56.292327 
L 233.955412 55.638576 
L 234.88366 55.797185 
L 236.740155 56.324231 
L 237.900464 56.472453 
L 239.060773 56.245418 
L 240.917268 55.707482 
L 242.077577 55.767017 
L 244.86232 56.386578 
L 245.790567 56.376195 
L 246.950877 56.143896 
L 248.57531 55.752351 
L 249.503557 55.749183 
L 250.663866 55.98644 
L 253.216547 56.533732 
L 254.608918 56.245116 
L 255.769227 55.980251 
L 256.929537 55.833136 
L 258.55397 56.101127 
L 259.946341 56.479924 
L 261.10665 56.522283 
L 262.26696 56.311422 
L 264.123454 55.901261 
L 265.515826 55.953954 
L 266.676135 56.239196 
L 267.836444 56.504303 
L 268.764692 56.536255 
L 269.692939 56.363002 
L 272.477681 55.897643 
L 273.637991 56.068965 
L 275.958609 56.528042 
L 277.118919 56.444581 
L 279.207475 56.033141 
L 280.135723 55.979559 
L 284.080775 56.517803 
L 286.401393 56.25153 
L 287.561703 56.139007 
L 288.722012 56.203533 
L 290.114383 56.371682 
L 291.738816 56.552188 
L 293.131187 56.483953 
L 296.380053 56.186716 
L 297.540363 56.383923 
L 298.932734 56.599528 
L 300.557167 56.6064 
L 303.573971 56.279546 
L 308.44727 56.606006 
L 311.464074 56.431486 
L 313.088507 56.546457 
L 315.87325 56.66948 
L 317.265621 56.557762 
L 321.210673 56.550105 
L 323.299229 56.71417 
L 325.387786 56.575987 
L 326.548095 56.443494 
L 327.940467 56.447577 
L 331.885518 56.711778 
L 334.438199 56.431581 
L 334.902322 56.386309 
L 336.526755 56.505625 
L 338.38325 56.717035 
L 340.703869 56.712252 
L 343.952735 56.456505 
L 347.433663 56.822652 
L 349.754282 56.460969 
L 350.450467 56.375272 
L 352.539024 56.616102 
L 354.163457 56.785642 
L 355.555828 56.714376 
L 358.340571 56.355331 
L 360.429127 56.620205 
L 362.05356 56.765902 
L 363.445932 56.625809 
L 365.998612 56.34379 
L 367.855107 56.460349 
L 370.639849 56.704945 
L 374.120777 56.327207 
L 375.513148 56.476657 
L 377.833767 56.722947 
L 378.529953 56.656069 
L 380.850571 56.343284 
L 382.707066 56.402436 
L 385.027685 56.713983 
L 386.652118 56.597042 
L 388.972736 56.286106 
L 391.293355 56.48332 
L 392.685726 56.672298 
L 394.310159 56.579034 
L 396.398716 56.337606 
L 398.023149 56.413493 
L 398.487273 56.465838 
L 398.487273 56.465838 
" style="fill:none;stroke:#ff0000;stroke-linecap:square;stroke-width:1.5;"/>
   </g>
   <g id="line2d_18">
    <path clip-path="url(#p056e13a606)" d="M 73.832727 293.589861 
L 74.993037 293.298732 
L 75.45716 293.379732 
L 76.153346 293.719623 
L 78.009841 295.11594 
L 78.473965 295.257333 
L 78.938088 295.411404 
L 79.402212 295.459064 
L 79.866336 295.052051 
L 81.026645 294.189139 
L 81.954892 293.621245 
L 82.651078 293.121105 
L 83.115202 293.062866 
L 83.579325 293.194979 
L 84.507573 293.839301 
L 85.667882 294.79936 
L 86.364068 295.193134 
L 87.060253 295.322891 
L 87.756439 295.131902 
L 90.077058 293.656507 
L 91.005305 293.3895 
L 91.701491 293.470709 
L 92.629738 293.953925 
L 94.022109 294.880741 
L 94.718295 295.090713 
L 95.646542 295.100613 
L 97.503037 293.988445 
L 98.663347 293.42961 
L 99.359532 293.459565 
L 99.823656 293.605408 
L 100.983965 294.321981 
L 101.912213 294.951152 
L 102.376336 295.041521 
L 103.536646 294.913686 
L 104.696955 294.208867 
L 105.625202 293.72255 
L 106.321388 293.586007 
L 107.017574 293.653739 
L 107.713759 293.94753 
L 108.874068 294.565359 
L 109.802316 294.98222 
L 110.730563 295.04929 
L 111.426749 294.864046 
L 112.587058 294.196971 
L 113.283244 293.768654 
L 114.211491 293.570478 
L 114.907677 293.62265 
L 115.603862 293.889377 
L 117.460357 294.900746 
L 118.156543 295.031731 
L 119.08479 294.856227 
L 119.780976 294.505541 
L 120.941285 293.831829 
L 121.869533 293.616069 
L 122.565718 293.661097 
L 123.261904 293.954953 
L 125.582523 294.973592 
L 126.046646 295.002082 
L 127.206956 294.53895 
L 128.367265 293.904016 
L 129.063451 293.648408 
L 129.759636 293.56763 
L 130.455822 293.753488 
L 133.240564 295.027888 
L 133.93675 295.031392 
L 135.329121 294.306548 
L 136.257368 293.791995 
L 137.185616 293.530504 
L 137.881801 293.629483 
L 138.810049 294.020296 
L 140.20242 294.941874 
L 141.362729 295.054803 
L 142.290977 294.732488 
L 144.379533 293.62244 
L 145.307781 293.522182 
L 146.003966 293.669197 
L 147.6284 294.582061 
L 148.556647 295.096094 
L 149.484894 295.194266 
L 150.18108 294.9285 
L 151.341389 294.032983 
L 152.269637 293.435625 
L 152.965822 293.298962 
L 153.662008 293.472067 
L 154.358194 293.932098 
L 155.054379 294.486503 
L 155.982627 295.044196 
L 156.678812 295.122251 
L 157.374998 295.107488 
L 158.071183 294.795194 
L 159.231493 293.986632 
L 159.927678 293.629166 
L 160.623864 293.456108 
L 161.320049 293.548171 
L 162.248297 293.993037 
L 164.104792 295.005933 
L 164.568915 295.12826 
L 165.033039 295.101771 
L 165.729225 294.797905 
L 166.42541 294.38314 
L 167.353658 293.804578 
L 168.049843 293.519681 
L 168.513967 293.468768 
L 169.442215 293.679703 
L 170.370462 294.215342 
L 171.530771 294.940246 
L 172.226957 295.18395 
L 172.923143 295.111716 
L 173.619328 294.774809 
L 175.475823 293.539851 
L 176.172009 293.388841 
L 176.868194 293.514155 
L 177.56438 293.868611 
L 178.492627 294.513411 
L 179.420875 295.07749 
L 180.349122 295.208602 
L 181.045308 294.975244 
L 183.597988 293.448222 
L 184.294174 293.46141 
L 185.454483 294.029362 
L 187.078916 294.992949 
L 187.775102 295.123091 
L 188.239225 295.097858 
L 189.167473 294.702653 
L 190.559844 293.721136 
L 191.25603 293.461959 
L 191.952215 293.414899 
L 192.648401 293.692612 
L 195.201081 295.123917 
L 196.129329 295.045924 
L 196.825514 294.734382 
L 198.682009 293.558042 
L 199.378195 293.463728 
L 199.842319 293.506403 
L 200.538504 293.818645 
L 202.162937 294.865853 
L 202.859123 295.152139 
L 203.555308 295.11185 
L 204.251494 294.820729 
L 204.94768 294.32651 
L 206.107989 293.581494 
L 206.572113 293.435671 
L 207.268298 293.433794 
L 207.964484 293.724591 
L 210.285102 295.15524 
L 210.749226 295.19132 
L 211.445412 295.014873 
L 214.230154 293.482854 
L 214.92634 293.507143 
L 215.854587 293.878391 
L 217.943144 295.063994 
L 218.407268 295.093397 
L 218.871391 295.002746 
L 219.799639 294.61817 
L 221.424072 293.717051 
L 222.120257 293.549571 
L 222.816443 293.608185 
L 223.74469 294.00312 
L 225.601185 295.00777 
L 226.297371 295.070783 
L 226.993556 294.836309 
L 228.153866 294.148282 
L 229.082113 293.687574 
L 229.778299 293.529334 
L 230.474484 293.592084 
L 231.402732 294.047269 
L 233.259227 295.016486 
L 233.955412 295.093704 
L 234.88366 294.774652 
L 236.972217 293.61906 
L 237.900464 293.489495 
L 238.59665 293.713739 
L 241.14933 295.081715 
L 241.845516 295.077806 
L 243.237887 294.328059 
L 244.398196 293.747716 
L 245.326444 293.612946 
L 246.022629 293.70309 
L 246.950877 294.125946 
L 248.57531 294.922826 
L 249.271495 294.966628 
L 249.967681 294.796704 
L 251.12799 294.214474 
L 251.592114 293.935939 
L 252.752423 293.548541 
L 253.448609 293.663084 
L 254.376856 294.070854 
L 256.001289 294.843443 
L 256.929537 294.993547 
L 257.857784 294.842865 
L 259.714279 293.776196 
L 260.410465 293.585838 
L 261.10665 293.623376 
L 261.570774 293.743842 
L 264.355516 294.939434 
L 265.051702 294.927026 
L 266.444073 294.400054 
L 267.140259 293.964253 
L 268.068506 293.637416 
L 268.764692 293.599654 
L 269.460877 293.824977 
L 271.549434 294.842412 
L 272.24562 294.952256 
L 273.173867 294.740244 
L 274.334176 294.254314 
L 275.494486 293.742519 
L 276.190671 293.682173 
L 276.886857 293.797737 
L 278.279228 294.351988 
L 279.207475 294.745184 
L 279.903661 294.880636 
L 281.06397 294.6637 
L 281.760156 294.392192 
L 282.456342 294.05249 
L 283.384589 293.832995 
L 284.312836 293.849148 
L 285.473146 294.144257 
L 287.097579 294.64111 
L 288.025826 294.719657 
L 289.418197 294.480654 
L 291.274692 293.926133 
L 291.970878 293.876042 
L 293.363249 294.090306 
L 294.75562 294.581284 
L 295.91593 294.732301 
L 296.844177 294.579487 
L 298.46861 294.022992 
L 300.093043 293.926807 
L 300.789229 294.053213 
L 302.877785 294.606584 
L 303.806033 294.623216 
L 307.286961 294.0131 
L 308.44727 294.087395 
L 311.464074 294.523117 
L 312.392322 294.438493 
L 315.409126 294.051742 
L 316.569435 294.193625 
L 319.58624 294.511827 
L 320.978611 294.376029 
L 323.299229 294.025167 
L 324.6916 294.172314 
L 327.012219 294.570317 
L 328.636652 294.440364 
L 331.189333 293.955208 
L 332.349642 294.101064 
L 334.902322 294.63834 
L 336.294694 294.464472 
L 338.847374 293.968126 
L 340.471807 294.090004 
L 342.09624 294.600027 
L 342.792426 294.735865 
L 343.488611 294.689684 
L 346.969539 293.853399 
L 348.129849 294.065067 
L 350.682529 294.715674 
L 351.378715 294.639752 
L 352.306962 294.381569 
L 353.23521 294.08567 
L 354.163457 293.910424 
L 355.091704 293.925365 
L 358.108509 294.715004 
L 359.036756 294.582012 
L 360.197065 294.265826 
L 361.357375 293.944233 
L 362.517684 293.941274 
L 366.230674 294.635969 
L 366.694798 294.624597 
L 367.855107 294.355254 
L 369.247478 293.939635 
L 371.103973 294.047646 
L 373.424592 294.677906 
L 374.816963 294.550519 
L 376.209334 294.133031 
L 377.369643 293.86986 
L 378.297891 293.931284 
L 380.850571 294.656527 
L 382.242942 294.613937 
L 383.17119 294.366475 
L 384.795623 293.935767 
L 386.187994 293.977465 
L 388.740675 294.655348 
L 389.900984 294.638409 
L 391.293355 294.247721 
L 392.453664 293.930971 
L 393.613974 293.932659 
L 397.094902 294.624148 
L 398.487273 294.358803 
L 398.487273 294.358803 
" style="fill:none;stroke:#008000;stroke-linecap:square;stroke-width:1.5;"/>
   </g>
   <g id="patch_3">
    <path d="M 57.6 307.584 
L 57.6 41.472 
" style="fill:none;stroke:#000000;stroke-linecap:square;stroke-linejoin:miter;stroke-width:0.8;"/>
   </g>
   <g id="patch_4">
    <path d="M 414.72 307.584 
L 414.72 41.472 
" style="fill:none;stroke:#000000;stroke-linecap:square;stroke-linejoin:miter;stroke-width:0.8;"/>
   </g>
   <g id="patch_5">
    <path d="M 57.6 307.584 
L 414.72 307.584 
" style="fill:none;stroke:#000000;stroke-linecap:square;stroke-linejoin:miter;stroke-width:0.8;"/>
   </g>
   <g id="patch_6">
    <path d="M 57.6 41.472 
L 414.72 41.472 
" style="fill:none;stroke:#000000;stroke-linecap:square;stroke-linejoin:miter;stroke-width:0.8;"/>
   </g>
   <g id="legend_1">
    <g id="patch_7">
     <path d="M 351.0075 198.045187 
L 407.72 198.045187 
Q 409.72 198.045187 409.72 196.045187 
L 409.72 153.010812 
Q 409.72 151.010812 407.72 151.010812 
L 351.0075 151.010812 
Q 349.0075 151.010812 349.0075 153.010812 
L 349.0075 196.045187 
Q 349.0075 198.045187 351.0075 198.045187 
z
" style="fill:#ffffff;opacity:0.8;stroke:#cccccc;stroke-linejoin:miter;"/>
    </g>
    <g id="line2d_19">
     <path d="M 353.0075 159.10925 
L 373.0075 159.10925 
" style="fill:none;stroke:#1f77b4;stroke-linecap:square;stroke-width:1.5;"/>
    </g>
    <g id="line2d_20"/>
    <g id="text_16">
     <!-- 0-&gt;1 -->
     <defs>
      <path d="M 4.890625 31.390625 
L 31.203125 31.390625 
L 31.203125 23.390625 
L 4.890625 23.390625 
z
" id="DejaVuSans-45"/>
      <path d="M 10.59375 49.21875 
L 10.59375 58.109375 
L 73.1875 35.40625 
L 73.1875 27.296875 
L 10.59375 4.59375 
L 10.59375 13.484375 
L 60.890625 31.296875 
z
" id="DejaVuSans-62"/>
     </defs>
     <g transform="translate(381.0075 162.60925)scale(0.1 -0.1)">
      <use xlink:href="#DejaVuSans-48"/>
      <use x="63.623047" xlink:href="#DejaVuSans-45"/>
      <use x="99.707031" xlink:href="#DejaVuSans-62"/>
      <use x="183.496094" xlink:href="#DejaVuSans-49"/>
     </g>
    </g>
    <g id="line2d_21">
     <path d="M 353.0075 173.787375 
L 373.0075 173.787375 
" style="fill:none;stroke:#ff0000;stroke-linecap:square;stroke-width:1.5;"/>
    </g>
    <g id="line2d_22"/>
    <g id="text_17">
     <!-- 1-&gt;0 -->
     <g transform="translate(381.0075 177.287375)scale(0.1 -0.1)">
      <use xlink:href="#DejaVuSans-49"/>
      <use x="63.623047" xlink:href="#DejaVuSans-45"/>
      <use x="99.707031" xlink:href="#DejaVuSans-62"/>
      <use x="183.496094" xlink:href="#DejaVuSans-48"/>
     </g>
    </g>
    <g id="line2d_23">
     <path d="M 353.0075 188.4655 
L 373.0075 188.4655 
" style="fill:none;stroke:#008000;stroke-linecap:square;stroke-width:1.5;"/>
    </g>
    <g id="line2d_24"/>
    <g id="text_18">
     <!-- diff -->
     <defs>
      <path d="M 45.40625 46.390625 
L 45.40625 75.984375 
L 54.390625 75.984375 
L 54.390625 0 
L 45.40625 0 
L 45.40625 8.203125 
Q 42.578125 3.328125 38.25 0.953125 
Q 33.9375 -1.421875 27.875 -1.421875 
Q 17.96875 -1.421875 11.734375 6.484375 
Q 5.515625 14.40625 5.515625 27.296875 
Q 5.515625 40.1875 11.734375 48.09375 
Q 17.96875 56 27.875 56 
Q 33.9375 56 38.25 53.625 
Q 42.578125 51.265625 45.40625 46.390625 
z
M 14.796875 27.296875 
Q 14.796875 17.390625 18.875 11.75 
Q 22.953125 6.109375 30.078125 6.109375 
Q 37.203125 6.109375 41.296875 11.75 
Q 45.40625 17.390625 45.40625 27.296875 
Q 45.40625 37.203125 41.296875 42.84375 
Q 37.203125 48.484375 30.078125 48.484375 
Q 22.953125 48.484375 18.875 42.84375 
Q 14.796875 37.203125 14.796875 27.296875 
z
" id="DejaVuSans-100"/>
      <path d="M 9.421875 54.6875 
L 18.40625 54.6875 
L 18.40625 0 
L 9.421875 0 
z
M 9.421875 75.984375 
L 18.40625 75.984375 
L 18.40625 64.59375 
L 9.421875 64.59375 
z
" id="DejaVuSans-105"/>
      <path d="M 37.109375 75.984375 
L 37.109375 68.5 
L 28.515625 68.5 
Q 23.6875 68.5 21.796875 66.546875 
Q 19.921875 64.59375 19.921875 59.515625 
L 19.921875 54.6875 
L 34.71875 54.6875 
L 34.71875 47.703125 
L 19.921875 47.703125 
L 19.921875 0 
L 10.890625 0 
L 10.890625 47.703125 
L 2.296875 47.703125 
L 2.296875 54.6875 
L 10.890625 54.6875 
L 10.890625 58.5 
Q 10.890625 67.625 15.140625 71.796875 
Q 19.390625 75.984375 28.609375 75.984375 
z
" id="DejaVuSans-102"/>
     </defs>
     <g transform="translate(381.0075 191.9655)scale(0.1 -0.1)">
      <use xlink:href="#DejaVuSans-100"/>
      <use x="63.476562" xlink:href="#DejaVuSans-105"/>
      <use x="91.259766" xlink:href="#DejaVuSans-102"/>
      <use x="126.464844" xlink:href="#DejaVuSans-102"/>
     </g>
    </g>
   </g>
  </g>
 </g>
 <defs>
  <clipPath id="p056e13a606">
   <rect height="266.112" width="357.12" x="57.6" y="41.472"/>
  </clipPath>
 </defs>
</svg>
