<?xml version="1.0" encoding="utf-8" standalone="no"?>
<!DOCTYPE svg PUBLIC "-//W3C//DTD SVG 1.1//EN"
  "http://www.w3.org/Graphics/SVG/1.1/DTD/svg11.dtd">
<!-- Created with matplotlib (https://matplotlib.org/) -->
<svg height="345.6pt" version="1.1" viewBox="0 0 460.8 345.6" width="460.8pt" xmlns="http://www.w3.org/2000/svg" xmlns:xlink="http://www.w3.org/1999/xlink">
 <defs>
  <style type="text/css">
*{stroke-linecap:butt;stroke-linejoin:round;}
  </style>
 </defs>
 <g id="figure_1">
  <g id="patch_1">
   <path d="M 0 345.6 
L 460.8 345.6 
L 460.8 0 
L 0 0 
z
" style="fill:#ffffff;"/>
  </g>
  <g id="axes_1">
   <g id="patch_2">
    <path d="M 57.6 307.584 
L 414.72 307.584 
L 414.72 41.472 
L 57.6 41.472 
z
" style="fill:#ffffff;"/>
   </g>
   <g id="matplotlib.axis_1">
    <g id="xtick_1">
     <g id="line2d_1">
      <defs>
       <path d="M 0 0 
L 0 3.5 
" id="me0d9c0b4cb" style="stroke:#000000;stroke-width:0.8;"/>
      </defs>
      <g>
       <use style="stroke:#000000;stroke-width:0.8;" x="73.832727" xlink:href="#me0d9c0b4cb" y="307.584"/>
      </g>
     </g>
     <g id="text_1">
      <!-- 0 -->
      <defs>
       <path d="M 31.78125 66.40625 
Q 24.171875 66.40625 20.328125 58.90625 
Q 16.5 51.421875 16.5 36.375 
Q 16.5 21.390625 20.328125 13.890625 
Q 24.171875 6.390625 31.78125 6.390625 
Q 39.453125 6.390625 43.28125 13.890625 
Q 47.125 21.390625 47.125 36.375 
Q 47.125 51.421875 43.28125 58.90625 
Q 39.453125 66.40625 31.78125 66.40625 
z
M 31.78125 74.21875 
Q 44.046875 74.21875 50.515625 64.515625 
Q 56.984375 54.828125 56.984375 36.375 
Q 56.984375 17.96875 50.515625 8.265625 
Q 44.046875 -1.421875 31.78125 -1.421875 
Q 19.53125 -1.421875 13.0625 8.265625 
Q 6.59375 17.96875 6.59375 36.375 
Q 6.59375 54.828125 13.0625 64.515625 
Q 19.53125 74.21875 31.78125 74.21875 
z
" id="DejaVuSans-48"/>
      </defs>
      <g transform="translate(70.651477 322.182437)scale(0.1 -0.1)">
       <use xlink:href="#DejaVuSans-48"/>
      </g>
     </g>
    </g>
    <g id="xtick_2">
     <g id="line2d_2">
      <g>
       <use style="stroke:#000000;stroke-width:0.8;" x="120.2451" xlink:href="#me0d9c0b4cb" y="307.584"/>
      </g>
     </g>
     <g id="text_2">
      <!-- 200 -->
      <defs>
       <path d="M 19.1875 8.296875 
L 53.609375 8.296875 
L 53.609375 0 
L 7.328125 0 
L 7.328125 8.296875 
Q 12.9375 14.109375 22.625 23.890625 
Q 32.328125 33.6875 34.8125 36.53125 
Q 39.546875 41.84375 41.421875 45.53125 
Q 43.3125 49.21875 43.3125 52.78125 
Q 43.3125 58.59375 39.234375 62.25 
Q 35.15625 65.921875 28.609375 65.921875 
Q 23.96875 65.921875 18.8125 64.3125 
Q 13.671875 62.703125 7.8125 59.421875 
L 7.8125 69.390625 
Q 13.765625 71.78125 18.9375 73 
Q 24.125 74.21875 28.421875 74.21875 
Q 39.75 74.21875 46.484375 68.546875 
Q 53.21875 62.890625 53.21875 53.421875 
Q 53.21875 48.921875 51.53125 44.890625 
Q 49.859375 40.875 45.40625 35.40625 
Q 44.1875 33.984375 37.640625 27.21875 
Q 31.109375 20.453125 19.1875 8.296875 
z
" id="DejaVuSans-50"/>
      </defs>
      <g transform="translate(110.70135 322.182437)scale(0.1 -0.1)">
       <use xlink:href="#DejaVuSans-50"/>
       <use x="63.623047" xlink:href="#DejaVuSans-48"/>
       <use x="127.246094" xlink:href="#DejaVuSans-48"/>
      </g>
     </g>
    </g>
    <g id="xtick_3">
     <g id="line2d_3">
      <g>
       <use style="stroke:#000000;stroke-width:0.8;" x="166.657472" xlink:href="#me0d9c0b4cb" y="307.584"/>
      </g>
     </g>
     <g id="text_3">
      <!-- 400 -->
      <defs>
       <path d="M 37.796875 64.3125 
L 12.890625 25.390625 
L 37.796875 25.390625 
z
M 35.203125 72.90625 
L 47.609375 72.90625 
L 47.609375 25.390625 
L 58.015625 25.390625 
L 58.015625 17.1875 
L 47.609375 17.1875 
L 47.609375 0 
L 37.796875 0 
L 37.796875 17.1875 
L 4.890625 17.1875 
L 4.890625 26.703125 
z
" id="DejaVuSans-52"/>
      </defs>
      <g transform="translate(157.113722 322.182437)scale(0.1 -0.1)">
       <use xlink:href="#DejaVuSans-52"/>
       <use x="63.623047" xlink:href="#DejaVuSans-48"/>
       <use x="127.246094" xlink:href="#DejaVuSans-48"/>
      </g>
     </g>
    </g>
    <g id="xtick_4">
     <g id="line2d_4">
      <g>
       <use style="stroke:#000000;stroke-width:0.8;" x="213.069845" xlink:href="#me0d9c0b4cb" y="307.584"/>
      </g>
     </g>
     <g id="text_4">
      <!-- 600 -->
      <defs>
       <path d="M 33.015625 40.375 
Q 26.375 40.375 22.484375 35.828125 
Q 18.609375 31.296875 18.609375 23.390625 
Q 18.609375 15.53125 22.484375 10.953125 
Q 26.375 6.390625 33.015625 6.390625 
Q 39.65625 6.390625 43.53125 10.953125 
Q 47.40625 15.53125 47.40625 23.390625 
Q 47.40625 31.296875 43.53125 35.828125 
Q 39.65625 40.375 33.015625 40.375 
z
M 52.59375 71.296875 
L 52.59375 62.3125 
Q 48.875 64.0625 45.09375 64.984375 
Q 41.3125 65.921875 37.59375 65.921875 
Q 27.828125 65.921875 22.671875 59.328125 
Q 17.53125 52.734375 16.796875 39.40625 
Q 19.671875 43.65625 24.015625 45.921875 
Q 28.375 48.1875 33.59375 48.1875 
Q 44.578125 48.1875 50.953125 41.515625 
Q 57.328125 34.859375 57.328125 23.390625 
Q 57.328125 12.15625 50.6875 5.359375 
Q 44.046875 -1.421875 33.015625 -1.421875 
Q 20.359375 -1.421875 13.671875 8.265625 
Q 6.984375 17.96875 6.984375 36.375 
Q 6.984375 53.65625 15.1875 63.9375 
Q 23.390625 74.21875 37.203125 74.21875 
Q 40.921875 74.21875 44.703125 73.484375 
Q 48.484375 72.75 52.59375 71.296875 
z
" id="DejaVuSans-54"/>
      </defs>
      <g transform="translate(203.526095 322.182437)scale(0.1 -0.1)">
       <use xlink:href="#DejaVuSans-54"/>
       <use x="63.623047" xlink:href="#DejaVuSans-48"/>
       <use x="127.246094" xlink:href="#DejaVuSans-48"/>
      </g>
     </g>
    </g>
    <g id="xtick_5">
     <g id="line2d_5">
      <g>
       <use style="stroke:#000000;stroke-width:0.8;" x="259.482217" xlink:href="#me0d9c0b4cb" y="307.584"/>
      </g>
     </g>
     <g id="text_5">
      <!-- 800 -->
      <defs>
       <path d="M 31.78125 34.625 
Q 24.75 34.625 20.71875 30.859375 
Q 16.703125 27.09375 16.703125 20.515625 
Q 16.703125 13.921875 20.71875 10.15625 
Q 24.75 6.390625 31.78125 6.390625 
Q 38.8125 6.390625 42.859375 10.171875 
Q 46.921875 13.96875 46.921875 20.515625 
Q 46.921875 27.09375 42.890625 30.859375 
Q 38.875 34.625 31.78125 34.625 
z
M 21.921875 38.8125 
Q 15.578125 40.375 12.03125 44.71875 
Q 8.5 49.078125 8.5 55.328125 
Q 8.5 64.0625 14.71875 69.140625 
Q 20.953125 74.21875 31.78125 74.21875 
Q 42.671875 74.21875 48.875 69.140625 
Q 55.078125 64.0625 55.078125 55.328125 
Q 55.078125 49.078125 51.53125 44.71875 
Q 48 40.375 41.703125 38.8125 
Q 48.828125 37.15625 52.796875 32.3125 
Q 56.78125 27.484375 56.78125 20.515625 
Q 56.78125 9.90625 50.3125 4.234375 
Q 43.84375 -1.421875 31.78125 -1.421875 
Q 19.734375 -1.421875 13.25 4.234375 
Q 6.78125 9.90625 6.78125 20.515625 
Q 6.78125 27.484375 10.78125 32.3125 
Q 14.796875 37.15625 21.921875 38.8125 
z
M 18.3125 54.390625 
Q 18.3125 48.734375 21.84375 45.5625 
Q 25.390625 42.390625 31.78125 42.390625 
Q 38.140625 42.390625 41.71875 45.5625 
Q 45.3125 48.734375 45.3125 54.390625 
Q 45.3125 60.0625 41.71875 63.234375 
Q 38.140625 66.40625 31.78125 66.40625 
Q 25.390625 66.40625 21.84375 63.234375 
Q 18.3125 60.0625 18.3125 54.390625 
z
" id="DejaVuSans-56"/>
      </defs>
      <g transform="translate(249.938467 322.182437)scale(0.1 -0.1)">
       <use xlink:href="#DejaVuSans-56"/>
       <use x="63.623047" xlink:href="#DejaVuSans-48"/>
       <use x="127.246094" xlink:href="#DejaVuSans-48"/>
      </g>
     </g>
    </g>
    <g id="xtick_6">
     <g id="line2d_6">
      <g>
       <use style="stroke:#000000;stroke-width:0.8;" x="305.89459" xlink:href="#me0d9c0b4cb" y="307.584"/>
      </g>
     </g>
     <g id="text_6">
      <!-- 1000 -->
      <defs>
       <path d="M 12.40625 8.296875 
L 28.515625 8.296875 
L 28.515625 63.921875 
L 10.984375 60.40625 
L 10.984375 69.390625 
L 28.421875 72.90625 
L 38.28125 72.90625 
L 38.28125 8.296875 
L 54.390625 8.296875 
L 54.390625 0 
L 12.40625 0 
z
" id="DejaVuSans-49"/>
      </defs>
      <g transform="translate(293.16959 322.182437)scale(0.1 -0.1)">
       <use xlink:href="#DejaVuSans-49"/>
       <use x="63.623047" xlink:href="#DejaVuSans-48"/>
       <use x="127.246094" xlink:href="#DejaVuSans-48"/>
       <use x="190.869141" xlink:href="#DejaVuSans-48"/>
      </g>
     </g>
    </g>
    <g id="xtick_7">
     <g id="line2d_7">
      <g>
       <use style="stroke:#000000;stroke-width:0.8;" x="352.306962" xlink:href="#me0d9c0b4cb" y="307.584"/>
      </g>
     </g>
     <g id="text_7">
      <!-- 1200 -->
      <g transform="translate(339.581962 322.182437)scale(0.1 -0.1)">
       <use xlink:href="#DejaVuSans-49"/>
       <use x="63.623047" xlink:href="#DejaVuSans-50"/>
       <use x="127.246094" xlink:href="#DejaVuSans-48"/>
       <use x="190.869141" xlink:href="#DejaVuSans-48"/>
      </g>
     </g>
    </g>
    <g id="xtick_8">
     <g id="line2d_8">
      <g>
       <use style="stroke:#000000;stroke-width:0.8;" x="398.719335" xlink:href="#me0d9c0b4cb" y="307.584"/>
      </g>
     </g>
     <g id="text_8">
      <!-- 1400 -->
      <g transform="translate(385.994335 322.182437)scale(0.1 -0.1)">
       <use xlink:href="#DejaVuSans-49"/>
       <use x="63.623047" xlink:href="#DejaVuSans-52"/>
       <use x="127.246094" xlink:href="#DejaVuSans-48"/>
       <use x="190.869141" xlink:href="#DejaVuSans-48"/>
      </g>
     </g>
    </g>
   </g>
   <g id="matplotlib.axis_2">
    <g id="ytick_1">
     <g id="line2d_9">
      <defs>
       <path d="M 0 0 
L -3.5 0 
" id="m491ac92322" style="stroke:#000000;stroke-width:0.8;"/>
      </defs>
      <g>
       <use style="stroke:#000000;stroke-width:0.8;" x="57.6" xlink:href="#m491ac92322" y="307.346499"/>
      </g>
     </g>
     <g id="text_9">
      <!-- −0.6 -->
      <defs>
       <path d="M 10.59375 35.5 
L 73.1875 35.5 
L 73.1875 27.203125 
L 10.59375 27.203125 
z
" id="DejaVuSans-8722"/>
       <path d="M 10.6875 12.40625 
L 21 12.40625 
L 21 0 
L 10.6875 0 
z
" id="DejaVuSans-46"/>
      </defs>
      <g transform="translate(26.317187 311.145718)scale(0.1 -0.1)">
       <use xlink:href="#DejaVuSans-8722"/>
       <use x="83.789062" xlink:href="#DejaVuSans-48"/>
       <use x="147.412109" xlink:href="#DejaVuSans-46"/>
       <use x="179.199219" xlink:href="#DejaVuSans-54"/>
      </g>
     </g>
    </g>
    <g id="ytick_2">
     <g id="line2d_10">
      <g>
       <use style="stroke:#000000;stroke-width:0.8;" x="57.6" xlink:href="#m491ac92322" y="263.29846"/>
      </g>
     </g>
     <g id="text_10">
      <!-- −0.4 -->
      <g transform="translate(26.317187 267.097679)scale(0.1 -0.1)">
       <use xlink:href="#DejaVuSans-8722"/>
       <use x="83.789062" xlink:href="#DejaVuSans-48"/>
       <use x="147.412109" xlink:href="#DejaVuSans-46"/>
       <use x="179.199219" xlink:href="#DejaVuSans-52"/>
      </g>
     </g>
    </g>
    <g id="ytick_3">
     <g id="line2d_11">
      <g>
       <use style="stroke:#000000;stroke-width:0.8;" x="57.6" xlink:href="#m491ac92322" y="219.250421"/>
      </g>
     </g>
     <g id="text_11">
      <!-- −0.2 -->
      <g transform="translate(26.317187 223.049639)scale(0.1 -0.1)">
       <use xlink:href="#DejaVuSans-8722"/>
       <use x="83.789062" xlink:href="#DejaVuSans-48"/>
       <use x="147.412109" xlink:href="#DejaVuSans-46"/>
       <use x="179.199219" xlink:href="#DejaVuSans-50"/>
      </g>
     </g>
    </g>
    <g id="ytick_4">
     <g id="line2d_12">
      <g>
       <use style="stroke:#000000;stroke-width:0.8;" x="57.6" xlink:href="#m491ac92322" y="175.202381"/>
      </g>
     </g>
     <g id="text_12">
      <!-- 0.0 -->
      <g transform="translate(34.696875 179.0016)scale(0.1 -0.1)">
       <use xlink:href="#DejaVuSans-48"/>
       <use x="63.623047" xlink:href="#DejaVuSans-46"/>
       <use x="95.410156" xlink:href="#DejaVuSans-48"/>
      </g>
     </g>
    </g>
    <g id="ytick_5">
     <g id="line2d_13">
      <g>
       <use style="stroke:#000000;stroke-width:0.8;" x="57.6" xlink:href="#m491ac92322" y="131.154342"/>
      </g>
     </g>
     <g id="text_13">
      <!-- 0.2 -->
      <g transform="translate(34.696875 134.953561)scale(0.1 -0.1)">
       <use xlink:href="#DejaVuSans-48"/>
       <use x="63.623047" xlink:href="#DejaVuSans-46"/>
       <use x="95.410156" xlink:href="#DejaVuSans-50"/>
      </g>
     </g>
    </g>
    <g id="ytick_6">
     <g id="line2d_14">
      <g>
       <use style="stroke:#000000;stroke-width:0.8;" x="57.6" xlink:href="#m491ac92322" y="87.106303"/>
      </g>
     </g>
     <g id="text_14">
      <!-- 0.4 -->
      <g transform="translate(34.696875 90.905522)scale(0.1 -0.1)">
       <use xlink:href="#DejaVuSans-48"/>
       <use x="63.623047" xlink:href="#DejaVuSans-46"/>
       <use x="95.410156" xlink:href="#DejaVuSans-52"/>
      </g>
     </g>
    </g>
    <g id="ytick_7">
     <g id="line2d_15">
      <g>
       <use style="stroke:#000000;stroke-width:0.8;" x="57.6" xlink:href="#m491ac92322" y="43.058264"/>
      </g>
     </g>
     <g id="text_15">
      <!-- 0.6 -->
      <g transform="translate(34.696875 46.857482)scale(0.1 -0.1)">
       <use xlink:href="#DejaVuSans-48"/>
       <use x="63.623047" xlink:href="#DejaVuSans-46"/>
       <use x="95.410156" xlink:href="#DejaVuSans-54"/>
      </g>
     </g>
    </g>
   </g>
   <g id="line2d_16">
    <path clip-path="url(#pf85a785601)" d="M 73.832727 182.559374 
L 74.528913 209.072981 
L 74.760975 214.556746 
L 76.385408 214.548716 
L 76.61747 213.937088 
L 76.849531 212.352874 
L 77.313655 206.516672 
L 78.009841 192.28248 
L 78.938088 166.509195 
L 80.098398 133.109171 
L 80.562521 123.939357 
L 81.026645 118.94627 
L 81.258707 118.15441 
L 81.490769 118.495231 
L 81.722831 119.918092 
L 82.186954 125.61573 
L 82.88314 139.142047 
L 84.043449 162.888701 
L 84.507573 169.002192 
L 84.971697 171.934749 
L 85.203759 172.125313 
L 85.43582 171.479089 
L 85.667882 170.048181 
L 86.132006 165.085336 
L 86.828192 154.246095 
L 87.988501 136.036178 
L 88.452625 131.44792 
L 88.916748 129.240255 
L 89.14881 129.085206 
L 89.380872 129.537107 
L 89.612934 130.554675 
L 90.077058 134.035445 
L 91.005305 144.325388 
L 91.933553 153.814114 
L 92.397676 156.615881 
L 92.629738 157.357923 
L 92.8618 157.638634 
L 93.093862 157.446163 
L 93.325924 156.828395 
L 93.790047 154.416922 
L 94.486233 148.723118 
L 95.646542 138.409114 
L 96.110666 135.52924 
L 96.57479 133.893341 
L 96.806852 133.582286 
L 97.038914 133.603204 
L 97.270975 133.941376 
L 97.735099 135.452758 
L 98.431285 139.172467 
L 99.591594 145.762177 
L 100.055718 147.405351 
L 100.519841 148.111701 
L 100.751903 148.088191 
L 100.983965 147.825203 
L 101.448089 146.654422 
L 102.144274 143.644153 
L 103.536646 136.783548 
L 104.232831 134.616215 
L 104.696955 133.813533 
L 104.929017 133.709505 
L 105.393141 134.463966 
L 106.089326 136.563447 
L 107.249635 140.504833 
L 107.945821 142.115957 
L 108.409945 142.551522 
L 108.642007 142.51286 
L 108.874068 142.298474 
L 109.10613 141.914111 
L 109.802316 139.515094 
L 111.426749 133.256144 
L 111.890873 132.05512 
L 112.354996 131.439513 
L 112.587058 131.372629 
L 112.81912 131.46724 
L 113.283244 132.094552 
L 114.211491 134.820699 
L 115.139739 137.342211 
L 115.603862 138.196561 
L 116.067986 138.520547 
L 116.300048 138.453475 
L 116.764172 137.860093 
L 117.228296 136.705939 
L 119.316852 129.335024 
L 119.780976 128.477485 
L 120.2451 128.201188 
L 120.477162 128.289974 
L 120.941285 128.884929 
L 121.405409 129.998931 
L 122.79778 133.753745 
L 123.261904 134.57329 
L 123.726028 134.88263 
L 123.95809 134.821373 
L 124.422213 134.252314 
L 124.886337 133.152525 
L 125.582523 130.708528 
L 126.742832 126.691883 
L 127.206956 125.579433 
L 127.671079 124.990406 
L 127.903141 124.908764 
L 128.135203 124.976342 
L 128.599327 125.516177 
L 129.063451 126.57013 
L 130.455822 130.194951 
L 130.919945 130.996462 
L 131.384069 131.306955 
L 131.616131 131.251626 
L 132.080255 130.72685 
L 132.544378 129.681406 
L 133.240564 127.333349 
L 134.400873 123.429193 
L 134.864997 122.337429 
L 135.329121 121.746991 
L 135.561183 121.657942 
L 135.793245 121.709044 
L 136.257368 122.206215 
L 136.721492 123.13304 
L 138.113863 126.657745 
L 138.577987 127.455364 
L 139.042111 127.786388 
L 139.274172 127.751799 
L 139.738296 127.265878 
L 140.20242 126.275809 
L 140.898605 124.048697 
L 142.058915 120.162121 
L 142.523039 119.047217 
L 142.987162 118.416701 
L 143.219224 118.30618 
L 143.451286 118.333644 
L 143.91541 118.778945 
L 144.379533 119.661067 
L 146.236028 123.960414 
L 146.700152 124.338305 
L 146.932214 124.330718 
L 147.164276 124.185424 
L 147.6284 123.49304 
L 148.092523 122.332623 
L 149.252833 118.399868 
L 149.949018 116.299974 
L 150.413142 115.38494 
L 150.877266 114.985273 
L 151.109327 114.986937 
L 151.573451 115.377843 
L 152.037575 116.209155 
L 154.126132 120.758886 
L 154.358194 120.893531 
L 154.590255 120.896385 
L 154.822317 120.7639 
L 155.286441 120.1028 
L 155.750565 118.973787 
L 156.910874 115.130639 
L 157.60706 113.026126 
L 158.071183 112.088201 
L 158.535307 111.654493 
L 158.767369 111.639343 
L 158.999431 111.756101 
L 159.463554 112.350471 
L 160.15974 113.926254 
L 161.320049 116.664234 
L 161.784173 117.321623 
L 162.248297 117.503193 
L 162.480359 117.395546 
L 162.944482 116.784106 
L 163.408606 115.699977 
L 164.336854 112.664854 
L 165.265101 109.775802 
L 165.729225 108.810732 
L 166.193348 108.339133 
L 166.42541 108.302727 
L 166.657472 108.399343 
L 167.121596 108.950737 
L 167.817782 110.453171 
L 168.978091 113.214294 
L 169.442215 113.904185 
L 169.906338 114.129351 
L 170.1384 114.044764 
L 170.602524 113.477058 
L 171.066648 112.436689 
L 171.762833 110.238748 
L 172.923143 106.539958 
L 173.387266 105.546389 
L 173.85139 105.036042 
L 174.083452 104.979595 
L 174.315514 105.054419 
L 174.779637 105.568291 
L 175.475823 107.033076 
L 176.636132 109.803052 
L 177.100256 110.512966 
L 177.56438 110.767652 
L 177.796442 110.70063 
L 178.260565 110.171211 
L 178.724689 109.164454 
L 179.420875 107.023634 
L 180.581184 103.303158 
L 181.045308 102.280681 
L 181.509431 101.734262 
L 181.741493 101.657778 
L 181.973555 101.712034 
L 182.437679 102.187452 
L 182.901803 103.06431 
L 184.758297 107.129099 
L 185.222421 107.418098 
L 185.454483 107.37093 
L 185.918607 106.874684 
L 186.382731 105.903686 
L 187.078916 103.79676 
L 188.239225 100.059568 
L 188.703349 99.014877 
L 189.167473 98.437076 
L 189.399535 98.342951 
L 189.631597 98.379985 
L 190.09572 98.823178 
L 190.559844 99.67504 
L 192.416339 103.751627 
L 192.880463 104.077352 
L 193.112525 104.050394 
L 193.576648 103.604438 
L 194.040772 102.672587 
L 194.736958 100.608871 
L 195.897267 96.86309 
L 196.361391 95.794189 
L 196.825514 95.18217 
L 197.057576 95.069711 
L 197.289638 95.09036 
L 197.753762 95.497679 
L 198.217886 96.320912 
L 200.07438 100.412107 
L 200.538504 100.766434 
L 200.770566 100.755934 
L 201.23469 100.34366 
L 201.698813 99.442177 
L 202.394999 97.411407 
L 203.78737 93.076694 
L 204.251494 92.197089 
L 204.715618 91.811745 
L 204.94768 91.81313 
L 205.411803 92.191753 
L 205.875927 92.987803 
L 207.964484 97.348643 
L 208.428607 97.484848 
L 208.660669 97.35964 
L 209.124793 96.726792 
L 209.588917 95.636753 
L 210.517164 92.684689 
L 211.445412 89.888042 
L 211.909535 88.986529 
L 212.373659 88.569422 
L 212.605721 88.554647 
L 213.069845 88.898031 
L 213.533968 89.670828 
L 214.462216 91.910228 
L 215.158401 93.442068 
L 215.622525 94.064025 
L 216.086649 94.224832 
L 216.318711 94.113448 
L 216.782834 93.507916 
L 217.246958 92.447057 
L 218.175206 89.510005 
L 219.103453 86.694204 
L 219.567577 85.777392 
L 220.031701 85.341899 
L 220.263762 85.317247 
L 220.727886 85.643255 
L 221.19201 86.398547 
L 222.120257 88.600061 
L 222.816443 90.155647 
L 223.280567 90.805084 
L 223.74469 90.99507 
L 223.976752 90.89766 
L 224.440876 90.320737 
L 224.905 89.286333 
L 225.833247 86.370956 
L 226.761495 83.543195 
L 227.225618 82.606796 
L 227.689742 82.150973 
L 227.921804 82.118612 
L 228.153866 82.213098 
L 228.617989 82.757352 
L 229.314175 84.244705 
L 230.474484 87.016607 
L 230.938608 87.693084 
L 231.402732 87.909126 
L 231.634794 87.823514 
L 232.098917 87.264158 
L 232.563041 86.239227 
L 233.491289 83.316321 
L 234.419536 80.467841 
L 234.88366 79.499503 
L 235.347783 79.003939 
L 235.579845 78.94801 
L 235.811907 79.022604 
L 236.276031 79.527151 
L 236.972217 80.962984 
L 238.132526 83.723661 
L 238.59665 84.425455 
L 239.060773 84.674506 
L 239.292835 84.610005 
L 239.756959 84.095502 
L 240.221083 83.108862 
L 240.917268 81.013809 
L 242.077577 77.37579 
L 242.541701 76.383981 
L 243.005825 75.862226 
L 243.237887 75.792975 
L 243.469949 75.850658 
L 243.934072 76.323454 
L 244.398196 77.191497 
L 246.022629 80.870877 
L 246.486753 81.37732 
L 246.718815 81.453885 
L 246.950877 81.403092 
L 247.415 80.917948 
L 247.879124 79.963598 
L 248.57531 77.900965 
L 249.735619 74.24268 
L 250.199743 73.231873 
L 250.663866 72.683006 
L 250.895928 72.598595 
L 251.360052 72.791218 
L 251.824176 73.459495 
L 252.520361 75.027191 
L 253.680671 77.655883 
L 254.144794 78.197938 
L 254.376856 78.294112 
L 254.608918 78.262248 
L 255.073042 77.810903 
L 255.537166 76.881815 
L 256.233351 74.828939 
L 257.625722 70.580711 
L 258.089846 69.748063 
L 258.55397 69.413439 
L 258.786032 69.440325 
L 259.250155 69.857017 
L 259.714279 70.68272 
L 261.570774 74.744561 
L 262.034898 75.074833 
L 262.26696 75.054841 
L 262.731083 74.628917 
L 263.195207 73.724792 
L 263.891393 71.717396 
L 265.283764 67.482872 
L 265.747887 66.638291 
L 266.212011 66.276513 
L 266.444073 66.284973 
L 266.908197 66.665627 
L 267.37232 67.453367 
L 269.228815 71.458452 
L 269.692939 71.809637 
L 269.925001 71.803426 
L 270.157063 71.675351 
L 270.621187 71.038084 
L 271.08531 69.971809 
L 272.013558 67.084348 
L 272.941805 64.391455 
L 273.405929 63.543615 
L 273.870053 63.165402 
L 274.102114 63.166048 
L 274.566238 63.53352 
L 275.030362 64.308467 
L 276.886857 68.297607 
L 277.350981 68.660185 
L 277.583042 68.659519 
L 277.815104 68.535895 
L 278.279228 67.918844 
L 278.743352 66.866151 
L 279.671599 63.997984 
L 280.599847 61.305366 
L 281.06397 60.450158 
L 281.528094 60.063545 
L 281.760156 60.05751 
L 282.22428 60.411725 
L 282.688403 61.173178 
L 284.77696 65.428787 
L 285.241084 65.579243 
L 285.473146 65.464342 
L 285.937269 64.868806 
L 286.401393 63.839716 
L 287.329641 60.995239 
L 288.257888 58.290471 
L 288.722012 57.4461 
L 288.954074 57.293634 
L 289.418197 57.334022 
L 289.882321 57.652275 
L 290.346445 58.353291 
L 291.274692 60.364216 
L 291.970878 61.764936 
L 292.435002 62.339195 
L 292.899125 62.49112 
L 293.363249 62.174333 
L 293.827373 61.408429 
L 294.523558 59.613813 
L 295.451806 56.977139 
L 296.147991 55.804274 
L 296.612115 55.440454 
L 297.076239 55.473379 
L 297.540363 55.919679 
L 298.700672 57.861724 
L 299.628919 59.209669 
L 300.093043 59.6209 
L 300.557167 59.73736 
L 301.021291 59.50836 
L 301.717476 58.502687 
L 303.573971 55.335923 
L 304.038095 54.834322 
L 304.502218 54.588903 
L 304.966342 54.629497 
L 305.430466 54.972092 
L 306.126652 55.868321 
L 307.286961 57.497259 
L 307.751085 57.700544 
L 308.215208 57.704297 
L 308.679332 57.518791 
L 310.303765 56.242934 
L 311.696136 54.635235 
L 312.16026 54.364923 
L 312.624384 54.282831 
L 313.320569 54.571094 
L 314.016755 55.238219 
L 315.641188 57.108937 
L 316.105312 57.264393 
L 316.569435 57.264935 
L 317.033559 57.09998 
L 317.497683 56.718951 
L 319.818301 54.355926 
L 320.282425 54.261859 
L 320.978611 54.50967 
L 321.674796 55.178309 
L 323.299229 56.939729 
L 323.763353 57.152103 
L 324.227477 57.186122 
L 324.923662 56.887514 
L 325.85191 55.882652 
L 327.012219 54.615181 
L 327.476343 54.324136 
L 327.940467 54.215821 
L 328.40459 54.331469 
L 329.100776 54.849815 
L 330.261085 56.176017 
L 330.725209 56.688843 
L 331.421395 57.110438 
L 331.885518 57.091996 
L 332.349642 56.881512 
L 333.277889 56.112279 
L 334.670261 54.599929 
L 335.134384 54.305644 
L 335.598508 54.180794 
L 336.294694 54.379977 
L 336.990879 54.98075 
L 338.38325 56.541395 
L 338.847374 56.926759 
L 339.311498 57.100542 
L 339.775622 57.044126 
L 340.471807 56.586423 
L 342.328302 54.536228 
L 342.792426 54.236239 
L 343.256549 54.128929 
L 343.720673 54.23658 
L 344.184797 54.550986 
L 344.880983 55.258886 
L 346.273354 56.797035 
L 346.737477 57.117376 
L 347.201601 57.160234 
L 347.897787 56.842797 
L 348.36191 56.385574 
L 350.218405 54.276947 
L 350.682529 54.021437 
L 351.146653 54.020447 
L 351.610777 54.236587 
L 352.306962 54.890389 
L 354.163457 56.892583 
L 354.627581 57.086044 
L 355.091704 57.047415 
L 355.555828 56.748588 
L 356.252014 56.062546 
L 357.644385 54.421149 
L 358.340571 53.981733 
L 358.804694 53.957998 
L 359.268818 54.131563 
L 359.965004 54.787797 
L 361.821498 56.766908 
L 362.285622 56.938869 
L 362.749746 56.911811 
L 363.445932 56.490436 
L 364.606241 55.128494 
L 365.302426 54.350057 
L 365.998612 53.939899 
L 366.462736 53.914279 
L 366.926859 54.103972 
L 367.623045 54.730079 
L 369.47954 56.796006 
L 369.943664 56.998729 
L 370.407787 56.975856 
L 370.871911 56.716487 
L 371.568097 55.989168 
L 372.960468 54.320465 
L 373.656653 53.883383 
L 374.120777 53.849405 
L 374.584901 54.043074 
L 375.281086 54.709815 
L 377.137581 56.811821 
L 377.601705 57.034136 
L 378.065829 56.989518 
L 378.529953 56.724496 
L 379.226138 55.979547 
L 380.850571 54.070782 
L 381.314695 53.829025 
L 381.778819 53.809034 
L 382.242942 54.015835 
L 382.707066 54.416108 
L 385.027685 57.014387 
L 385.491808 57.142086 
L 385.955932 56.999968 
L 386.652118 56.359559 
L 388.740675 53.832341 
L 389.204798 53.68508 
L 389.668922 53.800782 
L 390.133046 54.12423 
L 390.829231 54.939915 
L 392.221602 56.827344 
L 393.14985 57.057419 
L 393.613974 56.894255 
L 394.078097 56.495602 
L 395.238407 54.949026 
L 395.934592 54.094973 
L 396.630778 53.608791 
L 397.094902 53.595059 
L 397.559025 53.849126 
L 398.255211 54.581513 
L 398.487273 54.884214 
L 398.487273 54.884214 
" style="fill:none;stroke:#1f77b4;stroke-linecap:square;stroke-width:1.5;"/>
   </g>
   <g id="line2d_17">
    <path clip-path="url(#pf85a785601)" d="M 73.832727 166.476716 
L 74.760975 127.917286 
L 75.45716 107.437141 
L 75.921284 98.720975 
L 76.385408 94.263097 
L 76.61747 93.658303 
L 76.849531 94.116255 
L 77.081593 95.597867 
L 77.545717 101.424314 
L 78.009841 110.563571 
L 78.706026 128.716454 
L 80.330459 173.077898 
L 80.794583 179.900528 
L 81.026645 181.647561 
L 81.258707 182.241258 
L 81.490769 181.692695 
L 81.722831 180.065865 
L 82.186954 173.958974 
L 82.88314 159.80002 
L 84.043449 134.958952 
L 84.507573 128.393304 
L 84.971697 125.010001 
L 85.203759 124.594799 
L 85.43582 125.016248 
L 85.667882 126.228889 
L 86.132006 130.74951 
L 86.828192 140.925586 
L 87.988501 158.081692 
L 88.452625 162.255148 
L 88.684686 163.459781 
L 88.916748 164.037514 
L 89.14881 163.986627 
L 89.380872 163.329654 
L 89.844996 160.373651 
L 90.541181 152.940045 
L 91.933553 136.71649 
L 92.397676 133.47437 
L 92.8618 132.008282 
L 93.093862 131.96477 
L 93.325924 132.358512 
L 93.790047 134.325769 
L 94.486233 139.355308 
L 95.646542 148.618095 
L 96.110666 151.078274 
L 96.57479 152.2984 
L 96.806852 152.404689 
L 97.038914 152.176182 
L 97.270975 151.631492 
L 97.735099 149.697935 
L 98.431285 145.353837 
L 99.591594 137.704747 
L 100.055718 135.634208 
L 100.519841 134.490952 
L 100.751903 134.287656 
L 100.983965 134.329591 
L 101.216027 134.602497 
L 101.680151 135.739224 
L 102.376336 138.444137 
L 103.536646 143.057229 
L 104.232831 144.60391 
L 104.464893 144.890865 
L 104.696955 144.983915 
L 104.929017 144.877603 
L 105.393141 143.708435 
L 106.089326 140.983223 
L 107.481697 135.210872 
L 107.945821 133.759048 
L 108.409945 132.901955 
L 108.642007 132.732764 
L 108.874068 132.744013 
L 109.10613 132.92048 
L 109.570254 134.00193 
L 111.658811 139.920672 
L 112.122935 140.42793 
L 112.354996 140.449763 
L 112.587058 140.295233 
L 113.051182 139.506611 
L 113.515306 138.089935 
L 115.371801 131.28949 
L 115.835924 130.265511 
L 116.300048 129.822992 
L 116.53211 129.834817 
L 116.764172 129.997882 
L 117.228296 130.732644 
L 119.316852 136.231695 
L 119.780976 136.67735 
L 120.013038 136.682709 
L 120.2451 136.537034 
L 120.709223 135.802772 
L 121.173347 134.549365 
L 123.029842 128.020283 
L 123.493966 127.025131 
L 123.95809 126.586058 
L 124.190151 126.588805 
L 124.422213 126.736065 
L 124.886337 127.419801 
L 125.350461 128.567824 
L 126.51077 131.710369 
L 126.974894 132.627854 
L 127.439017 133.07937 
L 127.671079 133.097385 
L 127.903141 132.969227 
L 128.367265 132.284233 
L 128.831389 131.093195 
L 130.687884 124.75924 
L 131.152007 123.773553 
L 131.616131 123.317629 
L 131.848193 123.303445 
L 132.080255 123.428773 
L 132.544378 124.060469 
L 133.008502 125.152557 
L 134.400873 128.671795 
L 134.864997 129.357004 
L 135.097059 129.517005 
L 135.329121 129.540451 
L 135.561183 129.423228 
L 136.025306 128.779753 
L 136.48943 127.642746 
L 137.417678 124.434728 
L 138.345925 121.513096 
L 138.810049 120.515086 
L 139.274172 120.00619 
L 139.506234 119.974009 
L 139.738296 120.078724 
L 140.20242 120.660298 
L 140.666544 121.649278 
L 142.058915 125.138007 
L 142.523039 125.852036 
L 142.987162 126.074565 
L 143.219224 125.982337 
L 143.683348 125.385466 
L 144.147472 124.298569 
L 145.075719 121.191606 
L 146.003966 118.249137 
L 146.46809 117.221019 
L 146.932214 116.69174 
L 147.164276 116.631614 
L 147.396338 116.707458 
L 147.860461 117.237102 
L 148.324585 118.175215 
L 149.716956 121.63979 
L 150.18108 122.351512 
L 150.645204 122.613335 
L 150.877266 122.545383 
L 151.341389 122.00253 
L 151.805513 120.968082 
L 152.501699 118.746946 
L 153.662008 114.95105 
L 154.126132 113.916232 
L 154.590255 113.369195 
L 154.822317 113.296774 
L 155.054379 113.359203 
L 155.518503 113.859015 
L 155.982627 114.76736 
L 157.60706 118.603107 
L 158.071183 119.136558 
L 158.303245 119.218693 
L 158.535307 119.16743 
L 158.999431 118.662269 
L 159.463554 117.664083 
L 160.15974 115.477231 
L 161.320049 111.72044 
L 161.784173 110.654374 
L 162.248297 110.064537 
L 162.480359 109.968191 
L 162.712421 110.005563 
L 163.176544 110.455941 
L 163.640668 111.322656 
L 165.497163 115.489223 
L 165.961287 115.814074 
L 166.193348 115.783739 
L 166.657472 115.323052 
L 167.121596 114.369731 
L 167.817782 112.261234 
L 168.978091 108.486874 
L 169.442215 107.392262 
L 169.906338 106.76192 
L 170.1384 106.642982 
L 170.370462 106.657282 
L 170.834586 107.064172 
L 171.298709 107.895603 
L 173.155204 112.074578 
L 173.619328 112.43732 
L 173.85139 112.426955 
L 174.083452 112.284322 
L 174.547576 111.609333 
L 175.011699 110.48098 
L 176.172009 106.69194 
L 176.868194 104.633639 
L 177.332318 103.73563 
L 177.796442 103.334847 
L 178.028503 103.332854 
L 178.492627 103.702602 
L 178.956751 104.509614 
L 181.045308 108.936303 
L 181.509431 109.081655 
L 181.741493 108.958874 
L 182.205617 108.322865 
L 182.669741 107.228366 
L 183.597988 104.220897 
L 184.526236 101.390584 
L 184.990359 100.461212 
L 185.454483 100.027346 
L 185.686545 100.007143 
L 186.150669 100.330905 
L 186.614792 101.104483 
L 187.54304 103.345086 
L 188.239225 104.914907 
L 188.703349 105.560562 
L 189.167473 105.739388 
L 189.399535 105.633885 
L 189.863658 105.036647 
L 190.327782 103.975938 
L 191.25603 101.01123 
L 192.184277 98.177666 
L 192.648401 97.220024 
L 193.112525 96.744776 
L 193.344586 96.70352 
L 193.576648 96.791596 
L 194.040772 97.323002 
L 194.736958 98.78943 
L 195.897267 101.53859 
L 196.361391 102.210058 
L 196.825514 102.426037 
L 197.057576 102.341078 
L 197.5217 101.782767 
L 197.985824 100.756973 
L 198.914071 97.830904 
L 199.842319 94.971327 
L 200.306442 93.986186 
L 200.770566 93.481961 
L 201.002628 93.420915 
L 201.23469 93.492304 
L 201.698813 94.004515 
L 202.394999 95.438627 
L 203.555308 98.190824 
L 204.019432 98.886315 
L 204.483556 99.133635 
L 204.715618 99.067136 
L 205.179741 98.540888 
L 205.643865 97.545702 
L 206.340051 95.433898 
L 207.50036 91.783345 
L 207.964484 90.782827 
L 208.428607 90.251246 
L 208.660669 90.178532 
L 208.892731 90.236216 
L 209.356855 90.71177 
L 209.820979 91.578857 
L 211.677474 95.569021 
L 212.141597 95.845584 
L 212.373659 95.794538 
L 212.837783 95.304937 
L 213.301907 94.341026 
L 213.998092 92.275859 
L 215.158401 88.60186 
L 215.622525 87.582253 
L 216.086649 87.027214 
L 216.318711 86.920881 
L 216.550773 86.965213 
L 217.014896 87.417467 
L 217.47902 88.269223 
L 219.335515 92.315821 
L 219.799639 92.607311 
L 220.031701 92.570092 
L 220.495824 92.103504 
L 220.959948 91.178621 
L 221.656134 89.102478 
L 222.816443 85.418114 
L 223.280567 84.389531 
L 223.74469 83.805507 
L 223.976752 83.709625 
L 224.208814 83.743265 
L 224.672938 84.162419 
L 225.137062 84.991879 
L 226.993556 89.10524 
L 227.45768 89.425083 
L 227.689742 89.396445 
L 228.153866 89.037321 
L 228.617989 88.111699 
L 229.314175 86.041789 
L 230.474484 82.313042 
L 230.938608 81.242273 
L 231.402732 80.643106 
L 231.634794 80.540965 
L 231.866856 80.5617 
L 232.330979 80.982799 
L 232.795103 81.825403 
L 234.651598 85.901933 
L 235.115722 86.264665 
L 235.347783 86.259825 
L 235.579845 86.129798 
L 236.043969 85.474991 
L 236.508093 84.372489 
L 237.668402 80.645227 
L 238.364588 78.636675 
L 238.828711 77.757353 
L 239.292835 77.368078 
L 239.524897 77.366877 
L 239.989021 77.741062 
L 240.685206 79.07445 
L 242.309639 82.664829 
L 242.773763 83.035759 
L 243.005825 83.044698 
L 243.237887 82.924427 
L 243.702011 82.313391 
L 244.398196 80.578925 
L 246.254691 75.03739 
L 246.718815 74.379017 
L 247.182938 74.205188 
L 247.647062 74.544124 
L 248.111186 75.313573 
L 250.199743 79.646632 
L 250.663866 79.83502 
L 250.895928 79.759746 
L 251.360052 79.16097 
L 251.824176 78.138066 
L 252.752423 75.231015 
L 253.680671 72.415096 
L 254.144794 71.493252 
L 254.608918 71.041378 
L 254.84098 71.01035 
L 255.073042 71.106661 
L 255.537166 71.656153 
L 256.233351 73.113394 
L 257.39366 75.789518 
L 257.857784 76.474712 
L 258.321908 76.685962 
L 258.55397 76.596038 
L 259.018093 76.041789 
L 259.482217 75.025871 
L 260.178403 72.912159 
L 261.10665 69.894209 
L 261.802836 68.340899 
L 262.26696 67.899088 
L 262.499021 67.855997 
L 262.731083 67.935369 
L 263.195207 68.46327 
L 263.891393 69.900744 
L 265.051702 72.549418 
L 265.515826 73.224045 
L 265.979949 73.453708 
L 266.444073 73.121244 
L 266.908197 72.363833 
L 267.604382 70.511016 
L 268.996754 66.197151 
L 269.460877 65.26171 
L 269.925001 64.767196 
L 270.157063 64.711802 
L 270.389125 64.782284 
L 270.853248 65.267422 
L 271.549434 66.663693 
L 272.709743 69.341524 
L 273.173867 70.022412 
L 273.637991 70.26681 
L 273.870053 70.203921 
L 274.334176 69.698715 
L 274.7983 68.71622 
L 275.494486 66.663044 
L 276.654795 63.111264 
L 277.118919 62.151556 
L 277.583042 61.65087 
L 277.815104 61.588829 
L 278.047166 61.652381 
L 278.51129 62.122784 
L 279.207475 63.500994 
L 280.599847 66.563927 
L 281.06397 67.0495 
L 281.296032 67.118841 
L 281.528094 67.063431 
L 281.992218 66.578968 
L 282.456342 65.641065 
L 283.152527 63.619429 
L 284.312836 60.094322 
L 284.77696 59.134756 
L 285.241084 58.610573 
L 285.705208 58.614235 
L 285.937269 58.731335 
L 286.401393 59.387832 
L 287.097579 60.926466 
L 288.025826 63.050973 
L 288.48995 63.754801 
L 288.954074 64.035691 
L 289.186136 63.99613 
L 289.650259 63.555479 
L 290.114383 62.680828 
L 291.04263 60.065249 
L 291.970878 57.400186 
L 292.435002 56.445758 
L 292.899125 55.922013 
L 293.131187 55.836312 
L 293.595311 56.016755 
L 294.059435 56.611159 
L 294.75562 57.99266 
L 295.91593 60.395157 
L 296.380053 60.936358 
L 296.844177 61.085402 
L 297.308301 60.835477 
L 297.772424 60.220251 
L 298.700672 58.307734 
L 299.860981 55.781201 
L 300.325105 55.151318 
L 300.789229 54.819771 
L 301.253352 54.79433 
L 301.717476 55.132044 
L 302.1816 55.700652 
L 303.806033 58.181124 
L 304.270157 58.558007 
L 304.73428 58.654327 
L 305.198404 58.458881 
L 305.662528 57.99989 
L 306.822837 56.219949 
L 307.751085 54.865764 
L 308.44727 54.381997 
L 308.911394 54.354252 
L 309.375518 54.533706 
L 310.071703 55.121784 
L 311.928198 57.141791 
L 312.392322 57.35482 
L 312.856446 57.318234 
L 313.320569 57.067339 
L 314.016755 56.378608 
L 315.641188 54.57053 
L 316.105312 54.329108 
L 316.569435 54.297019 
L 317.033559 54.470949 
L 317.729745 55.066931 
L 318.890054 56.473129 
L 319.58624 57.144342 
L 320.050363 57.259121 
L 320.746549 57.10784 
L 321.442734 56.550905 
L 323.299229 54.557844 
L 323.763353 54.32129 
L 324.227477 54.256141 
L 324.6916 54.410913 
L 325.387786 54.99153 
L 327.244281 56.931557 
L 327.708405 57.136018 
L 328.172528 57.131529 
L 328.636652 56.920216 
L 329.332838 56.295786 
L 330.957271 54.526571 
L 331.421395 54.278077 
L 331.885518 54.223057 
L 332.581704 54.516115 
L 333.277889 55.16227 
L 334.902322 56.851333 
L 335.366446 57.038142 
L 335.83057 57.038351 
L 336.294694 56.835738 
L 336.990879 56.220807 
L 338.847374 54.295726 
L 339.311498 54.139228 
L 339.775622 54.199632 
L 340.239745 54.449338 
L 340.935931 55.124094 
L 342.09624 56.487644 
L 342.792426 56.982349 
L 343.256549 57.08423 
L 343.720673 56.968209 
L 344.184797 56.687086 
L 345.113044 55.677692 
L 346.041292 54.654334 
L 346.505416 54.271733 
L 346.969539 54.091861 
L 347.433663 54.151256 
L 347.897787 54.423389 
L 348.593972 55.128181 
L 350.218405 56.897741 
L 350.682529 57.111868 
L 351.378715 56.965774 
L 352.0749 56.444763 
L 354.163457 54.228639 
L 354.627581 54.025273 
L 355.091704 54.052206 
L 355.555828 54.281767 
L 356.252014 54.950822 
L 357.876447 56.74948 
L 358.340571 56.979597 
L 358.804694 56.975623 
L 359.268818 56.784736 
L 359.965004 56.163994 
L 361.589437 54.225068 
L 362.05356 53.952648 
L 362.517684 53.913422 
L 362.981808 54.070258 
L 363.445932 54.407246 
L 364.374179 55.462668 
L 365.302426 56.520117 
L 365.998612 56.937465 
L 366.462736 56.959262 
L 366.926859 56.758642 
L 367.623045 56.121636 
L 369.015416 54.433208 
L 369.711602 53.918678 
L 370.175726 53.854036 
L 370.639849 54.010707 
L 371.103973 54.367897 
L 372.03222 55.469903 
L 372.960468 56.545307 
L 373.424592 56.885854 
L 373.888715 57.020968 
L 374.352839 56.927767 
L 375.049025 56.400838 
L 375.977272 55.238568 
L 376.673458 54.405704 
L 377.369643 53.896076 
L 377.833767 53.827125 
L 378.297891 53.984595 
L 378.994076 54.565394 
L 381.082633 56.899519 
L 381.546757 57.01879 
L 382.01088 56.932032 
L 382.475004 56.611292 
L 383.17119 55.810189 
L 384.331499 54.40532 
L 385.027685 53.883514 
L 385.491808 53.81021 
L 385.955932 53.940004 
L 386.420056 54.282996 
L 387.348303 55.449265 
L 388.276551 56.603764 
L 388.972736 57.058785 
L 389.43686 57.074037 
L 389.900984 56.838924 
L 390.365108 56.42283 
L 391.525417 54.894716 
L 392.221602 54.08643 
L 392.685726 53.722526 
L 393.14985 53.668123 
L 393.613974 53.844214 
L 394.310159 54.481602 
L 395.934592 56.562723 
L 396.630778 56.986837 
L 397.094902 56.982955 
L 397.559025 56.719537 
L 398.255211 55.993559 
L 398.487273 55.68426 
L 398.487273 55.68426 
" style="fill:none;stroke:#ff0000;stroke-linecap:square;stroke-width:1.5;"/>
   </g>
   <g id="line2d_18">
    <path clip-path="url(#pf85a785601)" d="M 73.832727 191.28504 
L 74.760975 261.841841 
L 75.45716 282.314102 
L 75.921284 291.029963 
L 76.385408 295.488 
L 76.61747 295.481166 
L 76.849531 293.439001 
L 77.313655 283.657238 
L 77.777779 267.197259 
L 78.473965 233.149358 
L 80.330459 130.174016 
L 80.794583 116.18486 
L 81.026645 112.501091 
L 81.258707 111.115534 
L 81.490769 112.004917 
L 81.722831 115.054609 
L 82.186954 126.859137 
L 82.88314 154.544408 
L 84.043449 203.132131 
L 84.507573 215.811269 
L 84.971697 222.127129 
L 85.203759 222.732895 
L 85.43582 221.665222 
L 85.667882 219.021673 
L 86.132006 209.538207 
L 86.828192 188.52289 
L 87.988501 153.156867 
L 88.452625 144.395153 
L 88.684686 141.76778 
L 88.916748 140.405122 
L 89.14881 140.30096 
L 89.380872 141.409834 
L 89.844996 146.9081 
L 90.541181 161.148485 
L 91.933553 192.300005 
L 92.397676 198.343893 
L 92.629738 200.049879 
L 92.8618 200.832733 
L 93.093862 200.683774 
L 93.325924 199.672264 
L 93.790047 195.293535 
L 94.486233 184.570191 
L 95.646542 164.993401 
L 96.110666 159.653348 
L 96.57479 156.797323 
L 96.806852 156.379979 
L 97.038914 156.629404 
L 97.270975 157.512266 
L 97.735099 160.957204 
L 98.431285 169.021012 
L 99.591594 183.259811 
L 100.055718 186.973525 
L 100.519841 188.823131 
L 100.751903 189.002916 
L 100.983965 188.697994 
L 101.216027 187.943839 
L 101.680151 185.248732 
L 102.376336 179.206776 
L 103.536646 168.9287 
L 104.232831 165.214686 
L 104.464893 164.425811 
L 104.696955 164.031999 
L 104.929017 164.034283 
L 105.393141 165.957913 
L 106.089326 170.782605 
L 107.249635 179.708885 
L 107.945821 183.559291 
L 108.409945 184.851949 
L 108.642007 184.982477 
L 108.874068 184.756843 
L 109.10613 184.196012 
L 109.570254 181.611587 
L 111.658811 167.871424 
L 112.122935 166.442989 
L 112.354996 166.192131 
L 112.587058 166.279778 
L 112.81912 166.707309 
L 113.283244 168.389489 
L 114.211491 174.674103 
L 115.139739 180.558459 
L 115.603862 182.688279 
L 116.067986 183.754824 
L 116.300048 183.832864 
L 116.53211 183.599821 
L 116.764172 183.064593 
L 117.228296 181.175677 
L 119.316852 168.305711 
L 119.780976 167.002517 
L 120.013038 166.785277 
L 120.2451 166.866536 
L 120.477162 167.251383 
L 120.941285 168.855013 
L 121.405409 171.498302 
L 122.79778 180.262547 
L 123.261904 182.31689 
L 123.726028 183.35377 
L 123.95809 183.437696 
L 124.190151 183.222492 
L 124.422213 182.71863 
L 124.886337 180.935105 
L 125.350461 178.222135 
L 126.742832 169.675163 
L 127.206956 167.862261 
L 127.439017 167.336927 
L 127.671079 167.095402 
L 127.903141 167.141919 
L 128.135203 167.482477 
L 128.599327 168.973963 
L 129.063451 171.493021 
L 130.455822 179.97815 
L 130.919945 181.994051 
L 131.384069 183.034471 
L 131.616131 183.136379 
L 131.848193 182.958028 
L 132.080255 182.500458 
L 132.544378 180.823318 
L 133.008502 178.229114 
L 134.400873 169.95978 
L 134.864997 168.182806 
L 135.097059 167.65787 
L 135.329121 167.408921 
L 135.561183 167.437096 
L 135.793245 167.741219 
L 136.257368 169.142759 
L 136.721492 171.405705 
L 138.113863 179.692215 
L 138.577987 181.707315 
L 139.042111 182.789899 
L 139.274172 182.947991 
L 139.506234 182.804119 
L 139.738296 182.389536 
L 140.20242 180.817892 
L 140.898605 176.97665 
L 142.058915 170.226495 
L 142.523039 168.397563 
L 142.987162 167.544517 
L 143.219224 167.526224 
L 143.451286 167.784946 
L 143.91541 169.085498 
L 144.379533 171.256684 
L 146.236028 181.484241 
L 146.700152 182.651312 
L 146.932214 182.84136 
L 147.164276 182.756191 
L 147.396338 182.398704 
L 147.860461 180.929377 
L 148.324585 178.645062 
L 149.716956 170.486855 
L 150.18108 168.634874 
L 150.645204 167.708338 
L 150.877266 167.642272 
L 151.109327 167.847651 
L 151.573451 169.040729 
L 152.037575 171.108836 
L 154.126132 182.045035 
L 154.358194 182.518821 
L 154.590255 182.729572 
L 154.822317 182.669507 
L 155.054379 182.339257 
L 155.518503 180.933405 
L 156.214688 177.39238 
L 157.374998 170.677373 
L 157.839121 168.773869 
L 158.303245 167.788497 
L 158.535307 167.689445 
L 158.767369 167.860781 
L 158.999431 168.296214 
L 159.463554 169.888769 
L 160.15974 173.651405 
L 161.320049 180.146175 
L 161.784173 181.869631 
L 162.248297 182.641037 
L 162.480359 182.629736 
L 162.712421 182.350656 
L 163.176544 181.040804 
L 163.87273 177.610395 
L 165.033039 170.896963 
L 165.497163 168.95013 
L 165.961287 167.897836 
L 166.193348 167.757775 
L 166.42541 167.88659 
L 166.657472 168.278673 
L 167.121596 169.783387 
L 167.817782 173.394318 
L 168.978091 179.929801 
L 169.442215 181.714304 
L 169.906338 182.569812 
L 170.1384 182.604163 
L 170.370462 182.373868 
L 170.834586 181.148988 
L 171.298709 179.079879 
L 173.155204 169.115994 
L 173.619328 167.991265 
L 173.85139 167.811469 
L 174.083452 167.897654 
L 174.315514 168.247425 
L 174.779637 169.675975 
L 175.475823 173.204094 
L 176.636132 179.765215 
L 177.100256 181.588141 
L 177.56438 182.500568 
L 177.796442 182.568164 
L 178.028503 182.371552 
L 178.260565 181.918626 
L 178.724689 180.306551 
L 179.420875 176.626967 
L 180.581184 170.190022 
L 181.045308 168.54676 
L 181.27737 168.071393 
L 181.509431 167.854989 
L 181.741493 167.901286 
L 181.973555 168.210235 
L 182.437679 169.564149 
L 183.133864 173.00398 
L 184.294174 179.576606 
L 184.758297 181.46271 
L 185.222421 182.440777 
L 185.454483 182.545965 
L 185.686545 182.38166 
L 186.150669 181.31557 
L 186.614792 179.367061 
L 188.703349 168.656696 
L 189.167473 167.900069 
L 189.399535 167.911448 
L 189.631597 168.183932 
L 190.09572 169.46756 
L 190.791906 172.83639 
L 192.184277 180.442664 
L 192.648401 181.957662 
L 192.880463 182.361454 
L 193.112525 182.507999 
L 193.344586 182.390951 
L 193.576648 182.015223 
L 194.040772 180.551966 
L 194.736958 177.021822 
L 195.897267 170.526882 
L 196.361391 168.786512 
L 196.825514 167.958514 
L 197.057576 167.931015 
L 197.289638 168.167506 
L 197.753762 169.37806 
L 198.217886 171.419869 
L 200.07438 181.19365 
L 200.538504 182.299698 
L 200.770566 182.476355 
L 201.002628 182.395847 
L 201.23469 182.053738 
L 201.698813 180.640043 
L 202.394999 177.175161 
L 203.78737 169.690159 
L 204.251494 168.327522 
L 204.483556 168.00804 
L 204.715618 167.946991 
L 204.94768 168.147956 
L 205.411803 169.297822 
L 205.875927 171.285699 
L 207.964484 181.768198 
L 208.196546 182.228664 
L 208.428607 182.435984 
L 208.660669 182.383489 
L 208.892731 182.071168 
L 209.356855 180.719126 
L 210.05304 177.321289 
L 211.445412 169.831625 
L 211.909535 168.420626 
L 212.141597 168.070742 
L 212.373659 167.977266 
L 212.605721 168.143609 
L 212.837783 168.564121 
L 213.301907 170.099129 
L 213.998092 173.65433 
L 215.158401 180.042589 
L 215.622525 181.684154 
L 216.086649 182.399999 
L 216.318711 182.394948 
L 216.550773 182.110257 
L 217.014896 180.812827 
L 217.711082 177.455325 
L 219.103453 169.900848 
L 219.567577 168.459938 
L 219.799639 168.088662 
L 220.031701 167.974188 
L 220.263762 168.117283 
L 220.495824 168.518933 
L 220.959948 169.998315 
L 221.656134 173.550206 
L 222.816443 179.939914 
L 223.280567 181.617934 
L 223.74469 182.391945 
L 223.976752 182.390416 
L 224.208814 182.131054 
L 224.672938 180.894566 
L 225.137062 178.843514 
L 226.993556 169.117957 
L 227.45768 168.091949 
L 227.689742 167.95691 
L 227.921804 168.083952 
L 228.153866 168.378159 
L 228.617989 169.848035 
L 229.314175 173.405298 
L 230.474484 179.905947 
L 230.938608 181.653193 
L 231.402732 182.468401 
L 231.634794 182.484931 
L 231.866856 182.247014 
L 232.330979 181.022583 
L 232.795103 178.963175 
L 234.651598 169.229504 
L 235.115722 168.126104 
L 235.347783 167.946496 
L 235.579845 168.020594 
L 235.811907 168.361424 
L 236.276031 169.757561 
L 236.972217 173.208666 
L 238.364588 180.690177 
L 238.828711 182.057359 
L 239.060773 182.376871 
L 239.292835 182.444309 
L 239.524897 182.250139 
L 239.989021 181.117155 
L 240.685206 177.895649 
L 242.309639 169.364306 
L 242.773763 168.22719 
L 243.005825 168.01991 
L 243.237887 168.07093 
L 243.469949 168.378041 
L 243.934072 169.712859 
L 244.630258 173.074212 
L 245.790567 179.529854 
L 246.254691 181.344301 
L 246.718815 182.277249 
L 246.950877 182.368938 
L 247.182938 182.220622 
L 247.415 181.803653 
L 247.879124 180.281856 
L 248.57531 176.73366 
L 249.735619 170.43073 
L 250.199743 168.787623 
L 250.663866 168.050368 
L 250.895928 168.04123 
L 251.12799 168.32158 
L 251.592114 169.569501 
L 252.288299 172.891927 
L 253.680671 180.443168 
L 254.144794 181.907068 
L 254.376856 182.290322 
L 254.608918 182.423251 
L 254.84098 182.292448 
L 255.073042 181.906623 
L 255.537166 180.428043 
L 256.233351 176.917927 
L 257.39366 170.567067 
L 257.857784 168.833661 
L 258.321908 168.031043 
L 258.55397 168.019783 
L 258.786032 168.26078 
L 259.250155 169.474275 
L 259.714279 171.504937 
L 261.570774 181.190752 
L 262.034898 182.207538 
L 262.26696 182.358134 
L 262.499021 182.251163 
L 262.731083 181.89593 
L 263.195207 180.463903 
L 263.891393 177.019033 
L 265.051702 170.714152 
L 265.515826 168.982629 
L 265.979949 168.142806 
L 266.212011 168.158153 
L 266.444073 168.36611 
L 266.908197 169.504175 
L 267.37232 171.452594 
L 269.460877 181.633311 
L 269.692939 182.054433 
L 269.925001 182.238611 
L 270.157063 182.16593 
L 270.389125 181.837177 
L 270.853248 180.487591 
L 271.549434 177.136984 
L 272.941805 169.863809 
L 273.405929 168.540843 
L 273.637991 168.225192 
L 273.870053 168.163863 
L 274.102114 168.35551 
L 274.334176 168.796919 
L 274.7983 170.363985 
L 275.494486 173.891397 
L 276.654795 180.045504 
L 277.118919 181.585865 
L 277.350981 182.022509 
L 277.583042 182.211031 
L 277.815104 182.149448 
L 278.047166 181.835258 
L 278.51129 180.520737 
L 279.207475 177.20127 
L 280.599847 169.943821 
L 281.06397 168.60304 
L 281.296032 168.278243 
L 281.528094 168.202496 
L 281.760156 168.377513 
L 282.22428 169.453796 
L 282.688403 171.344304 
L 284.77696 181.496413 
L 285.241084 182.171051 
L 285.473146 182.105268 
L 285.705208 181.812948 
L 285.937269 181.339853 
L 286.401393 179.654266 
L 287.329641 174.700871 
L 288.257888 170.043556 
L 288.722012 168.692269 
L 288.954074 168.460325 
L 289.186136 168.512267 
L 289.418197 168.703717 
L 289.882321 169.687035 
L 290.346445 171.464263 
L 291.506754 177.427543 
L 292.20294 180.416385 
L 292.667063 181.549709 
L 292.899125 181.771488 
L 293.131187 181.758037 
L 293.363249 181.505329 
L 293.827373 180.342656 
L 294.523558 177.33574 
L 295.683868 171.713651 
L 296.147991 170.298773 
L 296.612115 169.583436 
L 296.844177 169.521788 
L 297.076239 169.665107 
L 297.540363 170.550712 
L 298.004486 172.099275 
L 299.628919 178.204134 
L 300.093043 179.394534 
L 300.557167 180.007882 
L 300.789229 180.049612 
L 301.021291 179.941011 
L 301.485414 179.18617 
L 302.1816 177.092498 
L 303.806033 172.076747 
L 304.270157 171.323033 
L 304.502218 171.15042 
L 304.73428 171.121327 
L 304.966342 171.239134 
L 305.430466 171.915561 
L 305.89459 173.063693 
L 307.519023 177.636497 
L 307.983146 178.270585 
L 308.44727 178.459302 
L 308.911394 178.198167 
L 309.375518 177.798216 
L 309.839641 177.067347 
L 310.535827 175.500318 
L 311.464074 173.326948 
L 312.16026 172.279201 
L 312.624384 172.118643 
L 313.088507 172.415237 
L 313.552631 173.094542 
L 314.248817 174.618266 
L 315.409126 177.357582 
L 315.87325 178.012221 
L 316.337373 178.219214 
L 316.801497 178.060882 
L 317.265621 177.522416 
L 317.961806 176.028631 
L 319.354178 172.866512 
L 319.818301 172.297702 
L 320.282425 172.219606 
L 320.746549 172.466681 
L 321.210673 173.115999 
L 321.906858 174.630194 
L 323.299229 177.584266 
L 323.763353 178.033195 
L 324.227477 178.132363 
L 324.6916 177.80993 
L 325.155724 177.10827 
L 326.316034 174.458845 
L 327.012219 173.055655 
L 327.476343 172.467043 
L 327.940467 172.258235 
L 328.40459 172.48365 
L 328.868714 173.100223 
L 329.5649 174.520402 
L 330.957271 177.509231 
L 331.421395 178.034742 
L 331.653456 178.116847 
L 332.11758 177.934359 
L 332.581704 177.393237 
L 333.045828 176.642173 
L 334.902322 172.778816 
L 335.366446 172.389279 
L 335.598508 172.31919 
L 336.062632 172.50927 
L 336.526755 173.081275 
L 337.222941 174.507973 
L 338.615312 177.512477 
L 339.079436 178.042997 
L 339.54356 178.165546 
L 340.007683 177.82779 
L 340.471807 177.146582 
L 342.792426 172.456272 
L 343.256549 172.247081 
L 343.720673 172.470752 
L 344.184797 173.066281 
L 344.880983 174.50046 
L 346.041292 177.115671 
L 346.505416 177.942003 
L 346.969539 178.287765 
L 347.433663 178.14351 
L 347.897787 177.621789 
L 348.36191 176.721965 
L 350.218405 172.581587 
L 350.682529 172.111951 
L 351.146653 172.168868 
L 351.610777 172.610049 
L 352.0749 173.397097 
L 354.163457 177.866325 
L 354.627581 178.263152 
L 355.091704 178.19759 
L 355.555828 177.669203 
L 356.019952 176.841421 
L 357.876447 172.689672 
L 358.340571 172.204518 
L 358.572632 172.128626 
L 359.036756 172.336335 
L 359.268818 172.549209 
L 359.965004 173.826184 
L 361.589437 177.584065 
L 362.05356 178.137998 
L 362.285622 178.24797 
L 362.749746 178.147282 
L 363.21387 177.682394 
L 363.910055 176.274115 
L 365.302426 173.032321 
L 365.76655 172.38636 
L 366.230674 172.125409 
L 366.462736 172.157398 
L 366.926859 172.547712 
L 367.390983 173.319571 
L 368.319231 175.528892 
L 369.247478 177.606002 
L 369.711602 178.215171 
L 370.175726 178.356332 
L 370.407787 178.274357 
L 370.871911 177.75472 
L 371.568097 176.314146 
L 372.960468 172.977539 
L 373.424592 172.296735 
L 373.888715 172.015735 
L 374.352839 172.193397 
L 374.816963 172.808412 
L 375.513148 174.349849 
L 376.673458 177.216441 
L 377.137581 177.999023 
L 377.601705 178.405718 
L 377.833767 178.415831 
L 378.297891 178.107295 
L 378.762014 177.384742 
L 379.4582 175.754015 
L 380.618509 172.930774 
L 381.082633 172.226197 
L 381.546757 171.975843 
L 381.778819 172.005352 
L 382.242942 172.419474 
L 382.707066 173.234502 
L 383.635314 175.588666 
L 384.563561 177.65803 
L 385.027685 178.333255 
L 385.259747 178.507855 
L 385.491808 178.534258 
L 385.955932 178.262345 
L 386.420056 177.52653 
L 387.116241 175.761096 
L 388.276551 172.818002 
L 388.740675 172.076823 
L 389.204798 171.787892 
L 389.43686 171.831425 
L 389.900984 172.29848 
L 390.365108 173.148161 
L 391.293355 175.585108 
L 392.221602 177.943296 
L 392.917788 178.643429 
L 393.381912 178.482309 
L 393.846035 177.921002 
L 394.310159 176.940846 
L 396.166654 172.355523 
L 396.630778 171.824336 
L 396.86284 171.755362 
L 397.094902 171.814486 
L 397.559025 172.33197 
L 398.023149 173.21966 
L 398.487273 174.402335 
L 398.487273 174.402335 
" style="fill:none;stroke:#008000;stroke-linecap:square;stroke-width:1.5;"/>
   </g>
   <g id="patch_3">
    <path d="M 57.6 307.584 
L 57.6 41.472 
" style="fill:none;stroke:#000000;stroke-linecap:square;stroke-linejoin:miter;stroke-width:0.8;"/>
   </g>
   <g id="patch_4">
    <path d="M 414.72 307.584 
L 414.72 41.472 
" style="fill:none;stroke:#000000;stroke-linecap:square;stroke-linejoin:miter;stroke-width:0.8;"/>
   </g>
   <g id="patch_5">
    <path d="M 57.6 307.584 
L 414.72 307.584 
" style="fill:none;stroke:#000000;stroke-linecap:square;stroke-linejoin:miter;stroke-width:0.8;"/>
   </g>
   <g id="patch_6">
    <path d="M 57.6 41.472 
L 414.72 41.472 
" style="fill:none;stroke:#000000;stroke-linecap:square;stroke-linejoin:miter;stroke-width:0.8;"/>
   </g>
   <g id="legend_1">
    <g id="patch_7">
     <path d="M 64.6 93.506375 
L 121.3125 93.506375 
Q 123.3125 93.506375 123.3125 91.506375 
L 123.3125 48.472 
Q 123.3125 46.472 121.3125 46.472 
L 64.6 46.472 
Q 62.6 46.472 62.6 48.472 
L 62.6 91.506375 
Q 62.6 93.506375 64.6 93.506375 
z
" style="fill:#ffffff;opacity:0.8;stroke:#cccccc;stroke-linejoin:miter;"/>
    </g>
    <g id="line2d_19">
     <path d="M 66.6 54.570438 
L 86.6 54.570438 
" style="fill:none;stroke:#1f77b4;stroke-linecap:square;stroke-width:1.5;"/>
    </g>
    <g id="line2d_20"/>
    <g id="text_16">
     <!-- 0-&gt;1 -->
     <defs>
      <path d="M 4.890625 31.390625 
L 31.203125 31.390625 
L 31.203125 23.390625 
L 4.890625 23.390625 
z
" id="DejaVuSans-45"/>
      <path d="M 10.59375 49.21875 
L 10.59375 58.109375 
L 73.1875 35.40625 
L 73.1875 27.296875 
L 10.59375 4.59375 
L 10.59375 13.484375 
L 60.890625 31.296875 
z
" id="DejaVuSans-62"/>
     </defs>
     <g transform="translate(94.6 58.070438)scale(0.1 -0.1)">
      <use xlink:href="#DejaVuSans-48"/>
      <use x="63.623047" xlink:href="#DejaVuSans-45"/>
      <use x="99.707031" xlink:href="#DejaVuSans-62"/>
      <use x="183.496094" xlink:href="#DejaVuSans-49"/>
     </g>
    </g>
    <g id="line2d_21">
     <path d="M 66.6 69.248563 
L 86.6 69.248563 
" style="fill:none;stroke:#ff0000;stroke-linecap:square;stroke-width:1.5;"/>
    </g>
    <g id="line2d_22"/>
    <g id="text_17">
     <!-- 1-&gt;0 -->
     <g transform="translate(94.6 72.748563)scale(0.1 -0.1)">
      <use xlink:href="#DejaVuSans-49"/>
      <use x="63.623047" xlink:href="#DejaVuSans-45"/>
      <use x="99.707031" xlink:href="#DejaVuSans-62"/>
      <use x="183.496094" xlink:href="#DejaVuSans-48"/>
     </g>
    </g>
    <g id="line2d_23">
     <path d="M 66.6 83.926688 
L 86.6 83.926688 
" style="fill:none;stroke:#008000;stroke-linecap:square;stroke-width:1.5;"/>
    </g>
    <g id="line2d_24"/>
    <g id="text_18">
     <!-- diff -->
     <defs>
      <path d="M 45.40625 46.390625 
L 45.40625 75.984375 
L 54.390625 75.984375 
L 54.390625 0 
L 45.40625 0 
L 45.40625 8.203125 
Q 42.578125 3.328125 38.25 0.953125 
Q 33.9375 -1.421875 27.875 -1.421875 
Q 17.96875 -1.421875 11.734375 6.484375 
Q 5.515625 14.40625 5.515625 27.296875 
Q 5.515625 40.1875 11.734375 48.09375 
Q 17.96875 56 27.875 56 
Q 33.9375 56 38.25 53.625 
Q 42.578125 51.265625 45.40625 46.390625 
z
M 14.796875 27.296875 
Q 14.796875 17.390625 18.875 11.75 
Q 22.953125 6.109375 30.078125 6.109375 
Q 37.203125 6.109375 41.296875 11.75 
Q 45.40625 17.390625 45.40625 27.296875 
Q 45.40625 37.203125 41.296875 42.84375 
Q 37.203125 48.484375 30.078125 48.484375 
Q 22.953125 48.484375 18.875 42.84375 
Q 14.796875 37.203125 14.796875 27.296875 
z
" id="DejaVuSans-100"/>
      <path d="M 9.421875 54.6875 
L 18.40625 54.6875 
L 18.40625 0 
L 9.421875 0 
z
M 9.421875 75.984375 
L 18.40625 75.984375 
L 18.40625 64.59375 
L 9.421875 64.59375 
z
" id="DejaVuSans-105"/>
      <path d="M 37.109375 75.984375 
L 37.109375 68.5 
L 28.515625 68.5 
Q 23.6875 68.5 21.796875 66.546875 
Q 19.921875 64.59375 19.921875 59.515625 
L 19.921875 54.6875 
L 34.71875 54.6875 
L 34.71875 47.703125 
L 19.921875 47.703125 
L 19.921875 0 
L 10.890625 0 
L 10.890625 47.703125 
L 2.296875 47.703125 
L 2.296875 54.6875 
L 10.890625 54.6875 
L 10.890625 58.5 
Q 10.890625 67.625 15.140625 71.796875 
Q 19.390625 75.984375 28.609375 75.984375 
z
" id="DejaVuSans-102"/>
     </defs>
     <g transform="translate(94.6 87.426688)scale(0.1 -0.1)">
      <use xlink:href="#DejaVuSans-100"/>
      <use x="63.476562" xlink:href="#DejaVuSans-105"/>
      <use x="91.259766" xlink:href="#DejaVuSans-102"/>
      <use x="126.464844" xlink:href="#DejaVuSans-102"/>
     </g>
    </g>
   </g>
  </g>
 </g>
 <defs>
  <clipPath id="pf85a785601">
   <rect height="266.112" width="357.12" x="57.6" y="41.472"/>
  </clipPath>
 </defs>
</svg>
