<?xml version="1.0" encoding="utf-8" standalone="no"?>
<!DOCTYPE svg PUBLIC "-//W3C//DTD SVG 1.1//EN"
  "http://www.w3.org/Graphics/SVG/1.1/DTD/svg11.dtd">
<!-- Created with matplotlib (https://matplotlib.org/) -->
<svg height="345.6pt" version="1.1" viewBox="0 0 460.8 345.6" width="460.8pt" xmlns="http://www.w3.org/2000/svg" xmlns:xlink="http://www.w3.org/1999/xlink">
 <defs>
  <style type="text/css">
*{stroke-linecap:butt;stroke-linejoin:round;}
  </style>
 </defs>
 <g id="figure_1">
  <g id="patch_1">
   <path d="M 0 345.6 
L 460.8 345.6 
L 460.8 0 
L 0 0 
z
" style="fill:#ffffff;"/>
  </g>
  <g id="axes_1">
   <g id="patch_2">
    <path d="M 57.6 307.584 
L 414.72 307.584 
L 414.72 41.472 
L 57.6 41.472 
z
" style="fill:#ffffff;"/>
   </g>
   <g id="matplotlib.axis_1">
    <g id="xtick_1">
     <g id="line2d_1">
      <defs>
       <path d="M 0 0 
L 0 3.5 
" id="md7a93b999b" style="stroke:#000000;stroke-width:0.8;"/>
      </defs>
      <g>
       <use style="stroke:#000000;stroke-width:0.8;" x="73.832727" xlink:href="#md7a93b999b" y="307.584"/>
      </g>
     </g>
     <g id="text_1">
      <!-- 0 -->
      <defs>
       <path d="M 31.78125 66.40625 
Q 24.171875 66.40625 20.328125 58.90625 
Q 16.5 51.421875 16.5 36.375 
Q 16.5 21.390625 20.328125 13.890625 
Q 24.171875 6.390625 31.78125 6.390625 
Q 39.453125 6.390625 43.28125 13.890625 
Q 47.125 21.390625 47.125 36.375 
Q 47.125 51.421875 43.28125 58.90625 
Q 39.453125 66.40625 31.78125 66.40625 
z
M 31.78125 74.21875 
Q 44.046875 74.21875 50.515625 64.515625 
Q 56.984375 54.828125 56.984375 36.375 
Q 56.984375 17.96875 50.515625 8.265625 
Q 44.046875 -1.421875 31.78125 -1.421875 
Q 19.53125 -1.421875 13.0625 8.265625 
Q 6.59375 17.96875 6.59375 36.375 
Q 6.59375 54.828125 13.0625 64.515625 
Q 19.53125 74.21875 31.78125 74.21875 
z
" id="DejaVuSans-48"/>
      </defs>
      <g transform="translate(70.651477 322.182437)scale(0.1 -0.1)">
       <use xlink:href="#DejaVuSans-48"/>
      </g>
     </g>
    </g>
    <g id="xtick_2">
     <g id="line2d_2">
      <g>
       <use style="stroke:#000000;stroke-width:0.8;" x="120.2451" xlink:href="#md7a93b999b" y="307.584"/>
      </g>
     </g>
     <g id="text_2">
      <!-- 200 -->
      <defs>
       <path d="M 19.1875 8.296875 
L 53.609375 8.296875 
L 53.609375 0 
L 7.328125 0 
L 7.328125 8.296875 
Q 12.9375 14.109375 22.625 23.890625 
Q 32.328125 33.6875 34.8125 36.53125 
Q 39.546875 41.84375 41.421875 45.53125 
Q 43.3125 49.21875 43.3125 52.78125 
Q 43.3125 58.59375 39.234375 62.25 
Q 35.15625 65.921875 28.609375 65.921875 
Q 23.96875 65.921875 18.8125 64.3125 
Q 13.671875 62.703125 7.8125 59.421875 
L 7.8125 69.390625 
Q 13.765625 71.78125 18.9375 73 
Q 24.125 74.21875 28.421875 74.21875 
Q 39.75 74.21875 46.484375 68.546875 
Q 53.21875 62.890625 53.21875 53.421875 
Q 53.21875 48.921875 51.53125 44.890625 
Q 49.859375 40.875 45.40625 35.40625 
Q 44.1875 33.984375 37.640625 27.21875 
Q 31.109375 20.453125 19.1875 8.296875 
z
" id="DejaVuSans-50"/>
      </defs>
      <g transform="translate(110.70135 322.182437)scale(0.1 -0.1)">
       <use xlink:href="#DejaVuSans-50"/>
       <use x="63.623047" xlink:href="#DejaVuSans-48"/>
       <use x="127.246094" xlink:href="#DejaVuSans-48"/>
      </g>
     </g>
    </g>
    <g id="xtick_3">
     <g id="line2d_3">
      <g>
       <use style="stroke:#000000;stroke-width:0.8;" x="166.657472" xlink:href="#md7a93b999b" y="307.584"/>
      </g>
     </g>
     <g id="text_3">
      <!-- 400 -->
      <defs>
       <path d="M 37.796875 64.3125 
L 12.890625 25.390625 
L 37.796875 25.390625 
z
M 35.203125 72.90625 
L 47.609375 72.90625 
L 47.609375 25.390625 
L 58.015625 25.390625 
L 58.015625 17.1875 
L 47.609375 17.1875 
L 47.609375 0 
L 37.796875 0 
L 37.796875 17.1875 
L 4.890625 17.1875 
L 4.890625 26.703125 
z
" id="DejaVuSans-52"/>
      </defs>
      <g transform="translate(157.113722 322.182437)scale(0.1 -0.1)">
       <use xlink:href="#DejaVuSans-52"/>
       <use x="63.623047" xlink:href="#DejaVuSans-48"/>
       <use x="127.246094" xlink:href="#DejaVuSans-48"/>
      </g>
     </g>
    </g>
    <g id="xtick_4">
     <g id="line2d_4">
      <g>
       <use style="stroke:#000000;stroke-width:0.8;" x="213.069845" xlink:href="#md7a93b999b" y="307.584"/>
      </g>
     </g>
     <g id="text_4">
      <!-- 600 -->
      <defs>
       <path d="M 33.015625 40.375 
Q 26.375 40.375 22.484375 35.828125 
Q 18.609375 31.296875 18.609375 23.390625 
Q 18.609375 15.53125 22.484375 10.953125 
Q 26.375 6.390625 33.015625 6.390625 
Q 39.65625 6.390625 43.53125 10.953125 
Q 47.40625 15.53125 47.40625 23.390625 
Q 47.40625 31.296875 43.53125 35.828125 
Q 39.65625 40.375 33.015625 40.375 
z
M 52.59375 71.296875 
L 52.59375 62.3125 
Q 48.875 64.0625 45.09375 64.984375 
Q 41.3125 65.921875 37.59375 65.921875 
Q 27.828125 65.921875 22.671875 59.328125 
Q 17.53125 52.734375 16.796875 39.40625 
Q 19.671875 43.65625 24.015625 45.921875 
Q 28.375 48.1875 33.59375 48.1875 
Q 44.578125 48.1875 50.953125 41.515625 
Q 57.328125 34.859375 57.328125 23.390625 
Q 57.328125 12.15625 50.6875 5.359375 
Q 44.046875 -1.421875 33.015625 -1.421875 
Q 20.359375 -1.421875 13.671875 8.265625 
Q 6.984375 17.96875 6.984375 36.375 
Q 6.984375 53.65625 15.1875 63.9375 
Q 23.390625 74.21875 37.203125 74.21875 
Q 40.921875 74.21875 44.703125 73.484375 
Q 48.484375 72.75 52.59375 71.296875 
z
" id="DejaVuSans-54"/>
      </defs>
      <g transform="translate(203.526095 322.182437)scale(0.1 -0.1)">
       <use xlink:href="#DejaVuSans-54"/>
       <use x="63.623047" xlink:href="#DejaVuSans-48"/>
       <use x="127.246094" xlink:href="#DejaVuSans-48"/>
      </g>
     </g>
    </g>
    <g id="xtick_5">
     <g id="line2d_5">
      <g>
       <use style="stroke:#000000;stroke-width:0.8;" x="259.482217" xlink:href="#md7a93b999b" y="307.584"/>
      </g>
     </g>
     <g id="text_5">
      <!-- 800 -->
      <defs>
       <path d="M 31.78125 34.625 
Q 24.75 34.625 20.71875 30.859375 
Q 16.703125 27.09375 16.703125 20.515625 
Q 16.703125 13.921875 20.71875 10.15625 
Q 24.75 6.390625 31.78125 6.390625 
Q 38.8125 6.390625 42.859375 10.171875 
Q 46.921875 13.96875 46.921875 20.515625 
Q 46.921875 27.09375 42.890625 30.859375 
Q 38.875 34.625 31.78125 34.625 
z
M 21.921875 38.8125 
Q 15.578125 40.375 12.03125 44.71875 
Q 8.5 49.078125 8.5 55.328125 
Q 8.5 64.0625 14.71875 69.140625 
Q 20.953125 74.21875 31.78125 74.21875 
Q 42.671875 74.21875 48.875 69.140625 
Q 55.078125 64.0625 55.078125 55.328125 
Q 55.078125 49.078125 51.53125 44.71875 
Q 48 40.375 41.703125 38.8125 
Q 48.828125 37.15625 52.796875 32.3125 
Q 56.78125 27.484375 56.78125 20.515625 
Q 56.78125 9.90625 50.3125 4.234375 
Q 43.84375 -1.421875 31.78125 -1.421875 
Q 19.734375 -1.421875 13.25 4.234375 
Q 6.78125 9.90625 6.78125 20.515625 
Q 6.78125 27.484375 10.78125 32.3125 
Q 14.796875 37.15625 21.921875 38.8125 
z
M 18.3125 54.390625 
Q 18.3125 48.734375 21.84375 45.5625 
Q 25.390625 42.390625 31.78125 42.390625 
Q 38.140625 42.390625 41.71875 45.5625 
Q 45.3125 48.734375 45.3125 54.390625 
Q 45.3125 60.0625 41.71875 63.234375 
Q 38.140625 66.40625 31.78125 66.40625 
Q 25.390625 66.40625 21.84375 63.234375 
Q 18.3125 60.0625 18.3125 54.390625 
z
" id="DejaVuSans-56"/>
      </defs>
      <g transform="translate(249.938467 322.182437)scale(0.1 -0.1)">
       <use xlink:href="#DejaVuSans-56"/>
       <use x="63.623047" xlink:href="#DejaVuSans-48"/>
       <use x="127.246094" xlink:href="#DejaVuSans-48"/>
      </g>
     </g>
    </g>
    <g id="xtick_6">
     <g id="line2d_6">
      <g>
       <use style="stroke:#000000;stroke-width:0.8;" x="305.89459" xlink:href="#md7a93b999b" y="307.584"/>
      </g>
     </g>
     <g id="text_6">
      <!-- 1000 -->
      <defs>
       <path d="M 12.40625 8.296875 
L 28.515625 8.296875 
L 28.515625 63.921875 
L 10.984375 60.40625 
L 10.984375 69.390625 
L 28.421875 72.90625 
L 38.28125 72.90625 
L 38.28125 8.296875 
L 54.390625 8.296875 
L 54.390625 0 
L 12.40625 0 
z
" id="DejaVuSans-49"/>
      </defs>
      <g transform="translate(293.16959 322.182437)scale(0.1 -0.1)">
       <use xlink:href="#DejaVuSans-49"/>
       <use x="63.623047" xlink:href="#DejaVuSans-48"/>
       <use x="127.246094" xlink:href="#DejaVuSans-48"/>
       <use x="190.869141" xlink:href="#DejaVuSans-48"/>
      </g>
     </g>
    </g>
    <g id="xtick_7">
     <g id="line2d_7">
      <g>
       <use style="stroke:#000000;stroke-width:0.8;" x="352.306962" xlink:href="#md7a93b999b" y="307.584"/>
      </g>
     </g>
     <g id="text_7">
      <!-- 1200 -->
      <g transform="translate(339.581962 322.182437)scale(0.1 -0.1)">
       <use xlink:href="#DejaVuSans-49"/>
       <use x="63.623047" xlink:href="#DejaVuSans-50"/>
       <use x="127.246094" xlink:href="#DejaVuSans-48"/>
       <use x="190.869141" xlink:href="#DejaVuSans-48"/>
      </g>
     </g>
    </g>
    <g id="xtick_8">
     <g id="line2d_8">
      <g>
       <use style="stroke:#000000;stroke-width:0.8;" x="398.719335" xlink:href="#md7a93b999b" y="307.584"/>
      </g>
     </g>
     <g id="text_8">
      <!-- 1400 -->
      <g transform="translate(385.994335 322.182437)scale(0.1 -0.1)">
       <use xlink:href="#DejaVuSans-49"/>
       <use x="63.623047" xlink:href="#DejaVuSans-52"/>
       <use x="127.246094" xlink:href="#DejaVuSans-48"/>
       <use x="190.869141" xlink:href="#DejaVuSans-48"/>
      </g>
     </g>
    </g>
   </g>
   <g id="matplotlib.axis_2">
    <g id="ytick_1">
     <g id="line2d_9">
      <defs>
       <path d="M 0 0 
L -3.5 0 
" id="m87d4e611a3" style="stroke:#000000;stroke-width:0.8;"/>
      </defs>
      <g>
       <use style="stroke:#000000;stroke-width:0.8;" x="57.6" xlink:href="#m87d4e611a3" y="283.478505"/>
      </g>
     </g>
     <g id="text_9">
      <!-- 0.0 -->
      <defs>
       <path d="M 10.6875 12.40625 
L 21 12.40625 
L 21 0 
L 10.6875 0 
z
" id="DejaVuSans-46"/>
      </defs>
      <g transform="translate(34.696875 287.277723)scale(0.1 -0.1)">
       <use xlink:href="#DejaVuSans-48"/>
       <use x="63.623047" xlink:href="#DejaVuSans-46"/>
       <use x="95.410156" xlink:href="#DejaVuSans-48"/>
      </g>
     </g>
    </g>
    <g id="ytick_2">
     <g id="line2d_10">
      <g>
       <use style="stroke:#000000;stroke-width:0.8;" x="57.6" xlink:href="#m87d4e611a3" y="242.997524"/>
      </g>
     </g>
     <g id="text_10">
      <!-- 0.1 -->
      <g transform="translate(34.696875 246.796743)scale(0.1 -0.1)">
       <use xlink:href="#DejaVuSans-48"/>
       <use x="63.623047" xlink:href="#DejaVuSans-46"/>
       <use x="95.410156" xlink:href="#DejaVuSans-49"/>
      </g>
     </g>
    </g>
    <g id="ytick_3">
     <g id="line2d_11">
      <g>
       <use style="stroke:#000000;stroke-width:0.8;" x="57.6" xlink:href="#m87d4e611a3" y="202.516543"/>
      </g>
     </g>
     <g id="text_11">
      <!-- 0.2 -->
      <g transform="translate(34.696875 206.315762)scale(0.1 -0.1)">
       <use xlink:href="#DejaVuSans-48"/>
       <use x="63.623047" xlink:href="#DejaVuSans-46"/>
       <use x="95.410156" xlink:href="#DejaVuSans-50"/>
      </g>
     </g>
    </g>
    <g id="ytick_4">
     <g id="line2d_12">
      <g>
       <use style="stroke:#000000;stroke-width:0.8;" x="57.6" xlink:href="#m87d4e611a3" y="162.035563"/>
      </g>
     </g>
     <g id="text_12">
      <!-- 0.3 -->
      <defs>
       <path d="M 40.578125 39.3125 
Q 47.65625 37.796875 51.625 33 
Q 55.609375 28.21875 55.609375 21.1875 
Q 55.609375 10.40625 48.1875 4.484375 
Q 40.765625 -1.421875 27.09375 -1.421875 
Q 22.515625 -1.421875 17.65625 -0.515625 
Q 12.796875 0.390625 7.625 2.203125 
L 7.625 11.71875 
Q 11.71875 9.328125 16.59375 8.109375 
Q 21.484375 6.890625 26.8125 6.890625 
Q 36.078125 6.890625 40.9375 10.546875 
Q 45.796875 14.203125 45.796875 21.1875 
Q 45.796875 27.640625 41.28125 31.265625 
Q 36.765625 34.90625 28.71875 34.90625 
L 20.21875 34.90625 
L 20.21875 43.015625 
L 29.109375 43.015625 
Q 36.375 43.015625 40.234375 45.921875 
Q 44.09375 48.828125 44.09375 54.296875 
Q 44.09375 59.90625 40.109375 62.90625 
Q 36.140625 65.921875 28.71875 65.921875 
Q 24.65625 65.921875 20.015625 65.03125 
Q 15.375 64.15625 9.8125 62.3125 
L 9.8125 71.09375 
Q 15.4375 72.65625 20.34375 73.4375 
Q 25.25 74.21875 29.59375 74.21875 
Q 40.828125 74.21875 47.359375 69.109375 
Q 53.90625 64.015625 53.90625 55.328125 
Q 53.90625 49.265625 50.4375 45.09375 
Q 46.96875 40.921875 40.578125 39.3125 
z
" id="DejaVuSans-51"/>
      </defs>
      <g transform="translate(34.696875 165.834782)scale(0.1 -0.1)">
       <use xlink:href="#DejaVuSans-48"/>
       <use x="63.623047" xlink:href="#DejaVuSans-46"/>
       <use x="95.410156" xlink:href="#DejaVuSans-51"/>
      </g>
     </g>
    </g>
    <g id="ytick_5">
     <g id="line2d_13">
      <g>
       <use style="stroke:#000000;stroke-width:0.8;" x="57.6" xlink:href="#m87d4e611a3" y="121.554582"/>
      </g>
     </g>
     <g id="text_13">
      <!-- 0.4 -->
      <g transform="translate(34.696875 125.353801)scale(0.1 -0.1)">
       <use xlink:href="#DejaVuSans-48"/>
       <use x="63.623047" xlink:href="#DejaVuSans-46"/>
       <use x="95.410156" xlink:href="#DejaVuSans-52"/>
      </g>
     </g>
    </g>
    <g id="ytick_6">
     <g id="line2d_14">
      <g>
       <use style="stroke:#000000;stroke-width:0.8;" x="57.6" xlink:href="#m87d4e611a3" y="81.073602"/>
      </g>
     </g>
     <g id="text_14">
      <!-- 0.5 -->
      <defs>
       <path d="M 10.796875 72.90625 
L 49.515625 72.90625 
L 49.515625 64.59375 
L 19.828125 64.59375 
L 19.828125 46.734375 
Q 21.96875 47.46875 24.109375 47.828125 
Q 26.265625 48.1875 28.421875 48.1875 
Q 40.625 48.1875 47.75 41.5 
Q 54.890625 34.8125 54.890625 23.390625 
Q 54.890625 11.625 47.5625 5.09375 
Q 40.234375 -1.421875 26.90625 -1.421875 
Q 22.3125 -1.421875 17.546875 -0.640625 
Q 12.796875 0.140625 7.71875 1.703125 
L 7.71875 11.625 
Q 12.109375 9.234375 16.796875 8.0625 
Q 21.484375 6.890625 26.703125 6.890625 
Q 35.15625 6.890625 40.078125 11.328125 
Q 45.015625 15.765625 45.015625 23.390625 
Q 45.015625 31 40.078125 35.4375 
Q 35.15625 39.890625 26.703125 39.890625 
Q 22.75 39.890625 18.8125 39.015625 
Q 14.890625 38.140625 10.796875 36.28125 
z
" id="DejaVuSans-53"/>
      </defs>
      <g transform="translate(34.696875 84.87282)scale(0.1 -0.1)">
       <use xlink:href="#DejaVuSans-48"/>
       <use x="63.623047" xlink:href="#DejaVuSans-46"/>
       <use x="95.410156" xlink:href="#DejaVuSans-53"/>
      </g>
     </g>
    </g>
   </g>
   <g id="line2d_15">
    <path clip-path="url(#p6a7819da07)" d="M 73.832727 64.743466 
L 74.064789 65.296913 
L 74.528913 65.668894 
L 74.760975 65.533751 
L 75.225098 64.597166 
L 75.689222 62.988807 
L 77.777779 54.461879 
L 78.241903 53.92834 
L 78.473965 53.978834 
L 78.706026 54.237904 
L 79.17015 55.343791 
L 79.866336 58.091095 
L 81.258707 64.149533 
L 81.722831 65.235609 
L 81.954892 65.539018 
L 82.186954 65.614904 
L 82.419016 65.46872 
L 82.88314 64.557932 
L 83.347264 62.956152 
L 85.43582 54.412306 
L 85.899944 53.867762 
L 86.132006 53.91128 
L 86.364068 54.166937 
L 86.828192 55.25573 
L 87.524377 58.011619 
L 88.916748 64.195394 
L 89.380872 65.24691 
L 89.612934 65.542993 
L 89.844996 65.627984 
L 90.077058 65.464252 
L 90.30912 65.114039 
L 90.773243 63.837226 
L 91.469429 60.898646 
L 92.629738 55.747598 
L 93.093862 54.450062 
L 93.325924 54.077442 
L 93.557986 53.928473 
L 93.790047 53.987425 
L 94.022109 54.241982 
L 94.486233 55.318883 
L 95.182419 58.035173 
L 96.342728 63.331404 
L 96.806852 64.641676 
L 97.270975 65.34948 
L 97.503037 65.458146 
L 97.735099 65.362635 
L 98.199223 64.509265 
L 98.663347 62.93425 
L 100.751903 54.458367 
L 101.216027 53.904502 
L 101.448089 53.939099 
L 101.680151 54.18588 
L 102.144274 55.250895 
L 102.84046 57.941063 
L 104.232831 64.105671 
L 104.696955 65.253855 
L 104.929017 65.533742 
L 105.161079 65.573893 
L 105.393141 65.421736 
L 105.625202 65.087987 
L 106.089326 63.804564 
L 106.785512 60.875344 
L 107.945821 55.689116 
L 108.409945 54.37205 
L 108.642007 53.99186 
L 108.874068 53.83723 
L 109.10613 53.871655 
L 109.338192 54.132934 
L 109.802316 55.21838 
L 110.498502 57.944146 
L 111.890873 63.998817 
L 112.354996 65.17575 
L 112.587058 65.436567 
L 112.81912 65.512831 
L 113.051182 65.369237 
L 113.515306 64.44962 
L 114.211491 61.848591 
L 115.603862 55.642755 
L 116.067986 54.359922 
L 116.300048 54.001646 
L 116.53211 53.849511 
L 116.764172 53.895125 
L 116.996234 54.1456 
L 117.460357 55.243848 
L 118.156543 58.004203 
L 119.316852 63.372509 
L 120.013038 65.303293 
L 120.2451 65.552045 
L 120.477162 65.620833 
L 120.709223 65.505067 
L 121.173347 64.55009 
L 121.637471 62.933819 
L 123.726028 54.371589 
L 124.190151 53.837204 
L 124.422213 53.880881 
L 124.654275 54.139442 
L 125.118399 55.241015 
L 125.814584 57.985867 
L 127.439017 64.887595 
L 127.903141 65.542828 
L 128.135203 65.584761 
L 128.367265 65.439939 
L 128.831389 64.508358 
L 129.295512 62.885391 
L 131.384069 54.318146 
L 131.848193 53.774514 
L 132.080255 53.822007 
L 132.312317 54.081541 
L 132.77644 55.198004 
L 133.472626 57.954611 
L 134.864997 64.099661 
L 135.329121 65.197058 
L 135.561183 65.475929 
L 135.793245 65.525432 
L 136.025306 65.385845 
L 136.48943 64.457998 
L 136.953554 62.836066 
L 139.042111 54.264615 
L 139.506234 53.739048 
L 139.738296 53.781493 
L 139.970358 54.039208 
L 140.434482 55.151947 
L 141.130667 57.930727 
L 142.523039 64.281149 
L 142.987162 65.375002 
L 143.219224 65.637283 
L 143.451286 65.664178 
L 143.683348 65.481092 
L 144.147472 64.492488 
L 144.611595 62.820872 
L 146.46809 54.72836 
L 146.932214 53.816224 
L 147.164276 53.670575 
L 147.396338 53.729677 
L 147.6284 54.009534 
L 148.092523 55.170882 
L 148.788709 58.028013 
L 149.949018 63.371118 
L 150.413142 64.863597 
L 150.877266 65.551558 
L 151.109327 65.590987 
L 151.341389 65.440325 
L 151.805513 64.48148 
L 152.269637 62.834056 
L 154.126132 54.748818 
L 154.590255 53.825624 
L 154.822317 53.668264 
L 155.054379 53.724121 
L 155.286441 53.990386 
L 155.750565 55.130889 
L 156.44675 57.869159 
L 157.839121 64.139645 
L 158.303245 65.267073 
L 158.535307 65.536015 
L 158.767369 65.597253 
L 158.999431 65.454633 
L 159.463554 64.491178 
L 159.927678 62.84275 
L 162.016235 54.108225 
L 162.480359 53.568 
L 162.712421 53.619812 
L 162.944482 53.880155 
L 163.408606 55.002107 
L 164.104792 57.817655 
L 165.265101 63.311346 
L 165.729225 64.891244 
L 166.193348 65.599055 
L 166.42541 65.635293 
L 166.657472 65.457766 
L 166.889534 65.110255 
L 167.353658 63.783992 
L 168.049843 60.746626 
L 169.210153 55.45846 
L 169.674276 54.14206 
L 170.1384 53.604968 
L 170.370462 53.668444 
L 170.602524 53.934138 
L 171.066648 55.069337 
L 171.762833 57.894224 
L 173.155204 64.120747 
L 173.619328 65.23246 
L 173.85139 65.494527 
L 174.083452 65.549762 
L 174.315514 65.383795 
L 174.779637 64.442025 
L 175.243761 62.807958 
L 177.332318 54.129098 
L 177.796442 53.765511 
L 178.028503 53.798092 
L 178.260565 54.036871 
L 178.724689 55.100999 
L 179.188813 56.807657 
L 180.813246 63.920368 
L 181.27737 64.931764 
L 181.509431 65.193381 
L 181.741493 65.253598 
L 181.973555 65.129122 
L 182.437679 64.234129 
L 182.901803 62.698455 
L 184.990359 54.490105 
L 185.454483 53.94958 
L 185.686545 53.995932 
L 185.918607 54.235245 
L 186.382731 55.288954 
L 187.078916 57.95435 
L 188.239225 62.88785 
L 188.703349 64.250766 
L 189.167473 64.971886 
L 189.399535 65.048308 
L 189.631597 64.934569 
L 189.863658 64.619203 
L 190.327782 63.4297 
L 191.023968 60.660601 
L 192.184277 55.702971 
L 192.648401 54.431968 
L 193.112525 53.861862 
L 193.344586 53.894656 
L 193.576648 54.104952 
L 194.040772 55.112133 
L 194.736958 57.665173 
L 196.361391 64.107964 
L 197.057576 64.772994 
L 197.289638 64.676481 
L 197.5217 64.399977 
L 197.985824 63.293298 
L 198.682009 60.656888 
L 199.842319 55.838088 
L 200.306442 54.561394 
L 200.770566 53.965975 
L 201.002628 53.971598 
L 201.23469 54.152618 
L 201.698813 55.083615 
L 202.162937 56.629531 
L 204.019432 63.909927 
L 204.251494 64.331188 
L 204.94768 64.48036 
L 205.179741 64.229995 
L 205.643865 63.216975 
L 206.340051 60.740003 
L 207.732422 55.390101 
L 207.964484 54.82325 
L 208.196546 54.597291 
L 208.660669 54.501267 
L 208.892731 54.618032 
L 209.356855 55.349083 
L 209.820979 56.668467 
L 210.981288 61.019321 
L 211.677474 63.1658 
L 212.141597 63.953271 
L 212.373659 64.154875 
L 212.605721 64.136156 
L 212.837783 63.929552 
L 213.301907 63.012839 
L 213.998092 60.722838 
L 215.390463 55.652142 
L 215.622525 55.101264 
L 215.854587 54.863106 
L 216.318711 54.725809 
L 216.550773 54.806311 
L 217.014896 55.447776 
L 217.47902 56.798506 
L 218.175206 59.187602 
L 218.871391 61.779544 
L 219.567577 63.443852 
L 219.799639 63.757572 
L 220.495824 63.556044 
L 220.959948 62.773224 
L 221.656134 60.785306 
L 223.048505 56.362967 
L 223.512629 55.528227 
L 223.976752 55.262543 
L 224.208814 55.360409 
L 224.672938 56.015554 
L 225.137062 57.135764 
L 227.225618 63.253352 
L 227.689742 63.579356 
L 228.153866 63.456375 
L 228.617989 62.730601 
L 229.314175 60.827755 
L 230.706546 56.493857 
L 231.17067 55.643868 
L 231.634794 55.339171 
L 231.866856 55.40751 
L 232.330979 56.022612 
L 232.795103 57.079027 
L 233.491289 59.229016 
L 234.419536 62.164611 
L 234.88366 63.179537 
L 235.347783 63.364691 
L 235.579845 63.375431 
L 236.043969 63.022446 
L 236.508093 62.14886 
L 237.204278 60.188305 
L 238.364588 56.778592 
L 238.828711 55.944557 
L 239.292835 55.743952 
L 239.524897 55.794917 
L 239.989021 56.278884 
L 240.453144 57.200814 
L 241.381392 59.826336 
L 242.309639 62.317411 
L 242.541701 62.708966 
L 242.773763 62.870475 
L 243.469949 62.875803 
L 243.934072 62.336816 
L 244.398196 61.387349 
L 246.486753 56.281218 
L 246.950877 56.178155 
L 247.415 56.290922 
L 247.879124 56.862192 
L 248.57531 58.404002 
L 249.735619 61.475382 
L 250.199743 62.354659 
L 250.431805 62.597981 
L 250.895928 62.657065 
L 251.360052 62.369587 
L 251.824176 61.67099 
L 252.520361 60.096343 
L 253.680671 57.335461 
L 254.144794 56.73684 
L 254.608918 56.556537 
L 255.073042 56.73557 
L 255.537166 57.237925 
L 256.697475 59.718044 
L 257.625722 61.658168 
L 258.089846 62.353818 
L 258.786032 62.367235 
L 259.250155 61.935922 
L 259.714279 61.166055 
L 261.802836 57.012484 
L 262.26696 56.856941 
L 262.731083 56.982981 
L 263.195207 57.454425 
L 263.891393 58.69438 
L 265.051702 61.18477 
L 265.747887 62.092119 
L 266.212011 62.216298 
L 266.676135 62.068727 
L 267.140259 61.525992 
L 267.836444 60.231476 
L 268.996754 57.869434 
L 269.460877 57.23905 
L 269.692939 57.041657 
L 270.621187 57.359883 
L 271.08531 57.893879 
L 271.781496 59.104308 
L 273.173867 61.634868 
L 273.405929 61.85921 
L 274.102114 61.903976 
L 274.566238 61.577388 
L 275.030362 60.962499 
L 276.190671 58.809015 
L 276.886857 57.706931 
L 277.350981 57.35459 
L 278.047166 57.390957 
L 278.51129 57.724267 
L 278.975414 58.321156 
L 280.831909 61.353612 
L 281.06397 61.599937 
L 281.760156 61.639325 
L 282.22428 61.400088 
L 282.688403 60.88644 
L 283.616651 59.372622 
L 284.544898 57.946737 
L 285.009022 57.584061 
L 285.937269 57.726997 
L 286.633455 58.29753 
L 288.954074 61.36847 
L 289.418197 61.425399 
L 289.882321 61.224621 
L 290.346445 60.775456 
L 291.04263 59.771925 
L 292.20294 58.038327 
L 292.667063 57.624029 
L 293.131187 57.537841 
L 293.595311 57.643797 
L 294.059435 57.973915 
L 294.523558 58.474411 
L 296.612115 61.304337 
L 297.308301 61.258074 
L 297.772424 60.967868 
L 298.46861 60.158617 
L 300.093043 57.955407 
L 300.557167 57.780829 
L 301.253352 57.841561 
L 301.717476 58.124592 
L 302.413662 58.894341 
L 304.038095 60.82703 
L 304.73428 60.806398 
L 305.198404 60.687493 
L 305.662528 60.382585 
L 306.590775 59.376615 
L 307.519023 58.354656 
L 307.983146 58.022475 
L 308.679332 57.88003 
L 309.143456 58.011926 
L 309.839641 58.520638 
L 311.696136 60.485253 
L 312.392322 60.560617 
L 312.856446 60.476972 
L 313.320569 60.209726 
L 314.248817 59.308621 
L 315.177064 58.380559 
L 315.641188 58.064602 
L 316.337373 57.984673 
L 316.801497 58.102251 
L 317.497683 58.479662 
L 318.890054 59.879069 
L 319.354178 60.294014 
L 319.818301 60.404436 
L 320.514487 60.306002 
L 321.210673 59.902422 
L 323.531291 58.104588 
L 324.227477 58.162229 
L 324.923662 58.405799 
L 327.012219 60.0346 
L 327.708405 60.261767 
L 328.172528 60.230246 
L 328.868714 59.924079 
L 329.796961 59.196246 
L 330.725209 58.469623 
L 331.189333 58.260629 
L 331.885518 58.278217 
L 332.581704 58.489819 
L 333.509951 59.093784 
L 334.206137 59.64649 
L 335.134384 60.023652 
L 335.598508 60.067616 
L 336.294694 59.89967 
L 336.990879 59.506682 
L 338.615312 58.434344 
L 339.311498 58.278647 
L 340.007683 58.367931 
L 340.703869 58.673466 
L 342.560364 59.787609 
L 344.416859 59.456017 
L 346.737477 58.255285 
L 348.36191 58.520011 
L 349.058096 59.207523 
L 349.986343 59.601146 
L 350.682529 59.659349 
L 351.842838 59.40012 
L 354.163457 58.483672 
L 356.484076 58.957024 
L 358.108509 59.45184 
L 359.036756 59.427503 
L 359.965004 59.150657 
L 361.821498 58.503062 
L 362.749746 58.480414 
L 363.445932 58.662094 
L 365.070365 59.166305 
L 365.76655 59.339326 
L 366.694798 59.312189 
L 367.855107 59.010707 
L 369.47954 58.545339 
L 370.407787 58.554339 
L 371.800159 58.792135 
L 373.656653 59.203502 
L 374.352839 59.176697 
L 375.513148 58.896171 
L 377.137581 58.492859 
L 377.833767 58.491174 
L 379.4582 58.650189 
L 381.314695 59.020816 
L 382.939128 58.818816 
L 385.259747 58.295742 
L 389.43686 58.810528 
L 390.597169 58.610853 
L 392.453664 58.224685 
L 393.846035 58.253821 
L 395.70253 58.817325 
L 397.094902 58.836109 
L 398.487273 58.491769 
L 398.487273 58.491769 
" style="fill:none;stroke:#1f77b4;stroke-linecap:square;stroke-width:1.5;"/>
   </g>
   <g id="line2d_16">
    <path clip-path="url(#p6a7819da07)" d="M 73.832727 54.740854 
L 74.296851 54.024208 
L 74.528913 53.975369 
L 74.760975 54.135509 
L 75.225098 55.055866 
L 75.689222 56.655603 
L 77.777779 65.095869 
L 78.241903 65.612021 
L 78.473965 65.558883 
L 78.706026 65.297708 
L 79.17015 64.194633 
L 79.866336 61.422807 
L 81.258707 55.371711 
L 81.722831 54.217273 
L 81.954892 53.940236 
L 82.186954 53.879733 
L 82.419016 54.029916 
L 82.88314 54.969604 
L 83.347264 56.55636 
L 85.43582 65.036418 
L 85.667882 65.403229 
L 85.899944 65.561943 
L 86.132006 65.513874 
L 86.364068 65.258287 
L 86.828192 64.144785 
L 87.524377 61.377132 
L 88.916748 55.381504 
L 89.380872 54.316406 
L 89.612934 54.048284 
L 89.844996 53.994709 
L 90.077058 54.137905 
L 90.30912 54.453879 
L 90.773243 55.730983 
L 91.469429 58.621775 
L 92.629738 63.740414 
L 93.093862 65.023569 
L 93.557986 65.584355 
L 93.790047 65.53705 
L 94.022109 65.271826 
L 94.486233 64.173798 
L 95.182419 61.431809 
L 96.57479 55.397849 
L 97.038914 54.293828 
L 97.270975 54.009858 
L 97.503037 53.940894 
L 97.735099 54.087067 
L 97.967161 54.422843 
L 98.431285 55.677036 
L 99.12747 58.543092 
L 100.28778 63.625162 
L 100.751903 64.914002 
L 101.216027 65.455915 
L 101.448089 65.420876 
L 101.680151 65.178326 
L 102.144274 64.106408 
L 102.84046 61.399078 
L 104.232831 55.423618 
L 104.696955 54.227365 
L 104.929017 53.952767 
L 105.161079 53.894953 
L 105.393141 54.043135 
L 105.857264 54.914087 
L 106.321388 56.49858 
L 108.409945 64.993497 
L 108.642007 65.36671 
L 108.874068 65.528955 
L 109.10613 65.479037 
L 109.338192 65.234023 
L 109.570254 64.783427 
L 110.26644 62.321856 
L 112.122935 54.641493 
L 112.587058 53.906901 
L 112.81912 53.854186 
L 113.051182 54.007202 
L 113.515306 54.912356 
L 114.211491 57.505629 
L 115.835924 64.381628 
L 116.300048 65.340902 
L 116.53211 65.495205 
L 116.764172 65.439521 
L 116.996234 65.241168 
L 117.460357 64.097314 
L 118.156543 61.32205 
L 119.548914 55.298828 
L 120.013038 54.206495 
L 120.2451 53.953864 
L 120.477162 53.908732 
L 120.709223 54.074204 
L 120.941285 54.422438 
L 121.405409 55.720985 
L 122.101595 58.668326 
L 123.261904 63.756376 
L 123.726028 65.018377 
L 124.190151 65.543275 
L 124.422213 65.49787 
L 124.654275 65.237678 
L 125.118399 64.126855 
L 125.814584 61.368648 
L 127.206956 55.294268 
L 127.671079 54.173678 
L 127.903141 53.911405 
L 128.135203 53.864804 
L 128.367265 54.028082 
L 128.831389 54.924888 
L 129.295512 56.5441 
L 131.384069 65.020158 
L 131.616131 65.381856 
L 131.848193 65.496714 
L 132.080255 65.445291 
L 132.312317 65.178938 
L 132.77644 64.065747 
L 133.472626 61.283374 
L 134.864997 55.218965 
L 135.329121 54.079151 
L 135.561183 53.81148 
L 135.793245 53.760822 
L 136.025306 53.922636 
L 136.48943 54.84847 
L 136.953554 56.458331 
L 139.042111 64.989738 
L 139.506234 65.507463 
L 139.738296 65.435933 
L 139.970358 65.17073 
L 140.434482 64.057186 
L 141.130667 61.26143 
L 142.290977 55.934919 
L 142.7551 54.467872 
L 142.987162 54.006725 
L 143.219224 53.800509 
L 143.451286 53.776986 
L 143.683348 53.966726 
L 144.147472 54.939293 
L 144.843657 57.568258 
L 146.236028 63.832827 
L 146.700152 65.113123 
L 146.932214 65.46573 
L 147.164276 65.608505 
L 147.396338 65.531897 
L 147.6284 65.246929 
L 148.092523 64.089659 
L 148.788709 61.236073 
L 149.949018 55.894393 
L 150.413142 54.439909 
L 150.877266 53.728579 
L 151.109327 53.688206 
L 151.341389 53.861387 
L 151.805513 54.831686 
L 152.269637 56.476693 
L 154.358194 65.045164 
L 154.822317 65.55954 
L 155.054379 65.497208 
L 155.286441 65.221413 
L 155.750565 64.07175 
L 156.44675 61.236495 
L 157.839121 55.046853 
L 158.303245 53.888772 
L 158.535307 53.664121 
L 158.767369 53.619691 
L 158.999431 53.787764 
L 159.463554 54.734721 
L 159.927678 56.380926 
L 162.016235 65.040975 
L 162.248297 65.411187 
L 162.480359 65.536894 
L 162.712421 65.481624 
L 162.944482 65.217299 
L 163.408606 64.085555 
L 164.104792 61.243052 
L 165.497163 55.030344 
L 165.961287 53.92248 
L 166.193348 53.665392 
L 166.42541 53.625797 
L 166.657472 53.805791 
L 167.121596 54.77496 
L 167.58572 56.431593 
L 169.442215 64.527182 
L 169.906338 65.455459 
L 170.1384 65.611738 
L 170.370462 65.543862 
L 170.602524 65.274652 
L 171.066648 64.123899 
L 171.762833 61.258299 
L 173.155204 55.058578 
L 173.619328 53.931555 
L 173.85139 53.681213 
L 174.083452 53.632005 
L 174.315514 53.779553 
L 174.779637 54.713058 
L 175.243761 56.335122 
L 177.332318 64.965538 
L 177.796442 65.319706 
L 178.028503 65.280572 
L 178.260565 65.029855 
L 178.724689 63.961743 
L 179.420875 61.238774 
L 180.813246 55.234196 
L 181.27737 54.142715 
L 181.509431 53.874861 
L 181.973555 54.130469 
L 182.205617 54.460701 
L 182.669741 55.699236 
L 183.365926 58.492026 
L 184.526236 63.467324 
L 184.990359 64.704167 
L 185.454483 65.218954 
L 185.686545 65.185304 
L 185.918607 64.934641 
L 186.382731 63.884149 
L 187.078916 61.220136 
L 188.471287 55.352551 
L 188.935411 54.215034 
L 189.167473 53.939898 
L 189.399535 53.863796 
L 189.631597 54.012546 
L 190.09572 54.833238 
L 190.559844 56.330326 
L 192.648401 64.418312 
L 193.112525 64.965134 
L 193.344586 64.940304 
L 193.576648 64.720886 
L 194.040772 63.723218 
L 194.736958 61.147751 
L 196.129329 55.289003 
L 196.361391 54.643717 
L 196.825514 54.077456 
L 197.057576 53.986144 
L 197.289638 54.08781 
L 197.5217 54.357748 
L 197.985824 55.461005 
L 198.682009 58.076171 
L 199.842319 62.849686 
L 200.306442 64.104301 
L 200.770566 64.705455 
L 201.002628 64.71106 
L 201.23469 64.522518 
L 201.698813 63.597741 
L 202.162937 62.066166 
L 204.019432 54.978472 
L 204.251494 54.499056 
L 204.715618 54.238643 
L 204.94768 54.301918 
L 205.179741 54.547018 
L 205.643865 55.547758 
L 206.340051 57.979922 
L 207.732422 63.262279 
L 207.964484 63.819538 
L 208.428607 64.045551 
L 208.660669 64.102094 
L 208.892731 63.983419 
L 209.356855 63.230374 
L 209.820979 61.949871 
L 211.909535 54.933244 
L 212.373659 54.49781 
L 212.605721 54.532051 
L 212.837783 54.747122 
L 213.301907 55.696696 
L 213.998092 57.841558 
L 215.390463 62.872115 
L 215.622525 63.41707 
L 215.854587 63.645031 
L 216.318711 63.788131 
L 216.550773 63.693061 
L 217.014896 63.037437 
L 217.47902 61.851319 
L 218.639329 57.798642 
L 219.335515 55.743075 
L 219.567577 55.312992 
L 219.799639 55.172976 
L 220.263762 55.254586 
L 220.727886 55.856674 
L 221.19201 56.85755 
L 222.120257 59.834716 
L 223.048505 62.653539 
L 223.512629 63.445691 
L 223.976752 63.686955 
L 224.208814 63.596511 
L 224.672938 62.960751 
L 225.137062 61.825008 
L 227.225618 55.684965 
L 227.689742 55.399571 
L 227.921804 55.407808 
L 228.153866 55.556008 
L 228.617989 56.274903 
L 229.314175 58.146961 
L 230.706546 62.434209 
L 231.17067 63.270422 
L 231.634794 63.528305 
L 231.866856 63.454154 
L 232.330979 62.990286 
L 232.795103 61.921093 
L 233.72335 58.93752 
L 234.419536 56.877 
L 234.88366 55.900941 
L 235.347783 55.705149 
L 235.579845 55.656084 
L 235.811907 55.768724 
L 236.276031 56.383382 
L 236.740155 57.449871 
L 238.828711 63.017515 
L 239.524897 63.149739 
L 239.989021 62.680424 
L 240.453144 61.760031 
L 241.381392 59.122535 
L 242.309639 56.658497 
L 242.541701 56.25521 
L 243.005825 56.053515 
L 243.469949 56.05713 
L 243.934072 56.585302 
L 244.398196 57.519981 
L 246.486753 62.565049 
L 246.950877 62.631701 
L 247.182938 62.626627 
L 247.647062 62.259607 
L 248.111186 61.485589 
L 249.039433 59.211958 
L 249.967681 57.043341 
L 250.431805 56.463535 
L 250.895928 56.359062 
L 251.360052 56.628662 
L 252.056238 57.809508 
L 252.984485 60.05847 
L 253.680671 61.601121 
L 254.144794 62.209459 
L 254.84098 62.389686 
L 255.305104 62.065143 
L 256.001289 60.933293 
L 257.857784 57.059569 
L 258.089846 56.821504 
L 258.786032 56.80934 
L 259.250155 57.236213 
L 259.714279 57.987726 
L 261.802836 62.126503 
L 262.499021 62.293728 
L 262.963145 61.987968 
L 263.427269 61.336054 
L 264.355516 59.406011 
L 265.283764 57.566398 
L 265.747887 57.055945 
L 266.444073 57.002085 
L 266.908197 57.361757 
L 267.37232 58.03963 
L 268.53263 60.413481 
L 269.228815 61.635543 
L 269.692939 62.07252 
L 269.925001 61.954024 
L 270.389125 61.888053 
L 270.853248 61.492707 
L 271.549434 60.392826 
L 272.941805 57.822258 
L 273.405929 57.307941 
L 274.102114 57.239586 
L 274.566238 57.555226 
L 275.030362 58.163081 
L 276.190671 60.283382 
L 276.886857 61.368305 
L 277.118919 61.615317 
L 277.815104 61.711248 
L 278.279228 61.501299 
L 278.975414 60.717853 
L 281.06397 57.547137 
L 281.528094 57.468305 
L 281.992218 57.554807 
L 282.22428 57.649532 
L 282.688403 58.143448 
L 283.616651 59.634843 
L 284.312836 60.771555 
L 284.77696 61.30809 
L 285.241084 61.453032 
L 285.705208 61.45715 
L 286.169331 61.190647 
L 286.865517 60.359146 
L 288.722012 57.73008 
L 289.418197 57.561322 
L 289.650259 57.559809 
L 290.114383 57.849413 
L 290.810569 58.71197 
L 292.435002 61.001561 
L 292.899125 61.210053 
L 293.363249 61.238799 
L 293.827373 61.011692 
L 294.523558 60.277894 
L 296.380053 57.843276 
L 296.844177 57.677047 
L 297.308301 57.71261 
L 297.772424 57.986901 
L 298.46861 58.73535 
L 300.093043 60.923981 
L 300.557167 61.091993 
L 301.253352 61.023212 
L 301.717476 60.736087 
L 302.413662 59.978556 
L 304.038095 57.928885 
L 305.198404 58.002738 
L 305.662528 58.297455 
L 306.590775 59.25554 
L 307.519023 60.266869 
L 307.983146 60.601678 
L 308.679332 60.654876 
L 309.375518 60.360586 
L 310.071703 59.735037 
L 311.696136 58.089849 
L 312.392322 57.953501 
L 312.856446 58.051458 
L 313.552631 58.469895 
L 315.641188 60.388439 
L 316.569435 60.430462 
L 317.265621 60.063604 
L 318.42593 58.956313 
L 319.122116 58.310503 
L 319.58624 58.025144 
L 320.282425 58.0514 
L 320.746549 58.196889 
L 321.442734 58.675831 
L 322.370982 59.500776 
L 322.835106 59.935854 
L 323.299229 60.20919 
L 323.995415 60.253142 
L 324.6916 60.053173 
L 325.387786 59.583756 
L 326.780157 58.516355 
L 327.476343 58.230331 
L 328.40459 58.282539 
L 329.100776 58.651446 
L 331.189333 60.141166 
L 331.885518 60.148125 
L 332.581704 59.917039 
L 333.509951 59.283115 
L 334.670261 58.478663 
L 335.134384 58.33498 
L 336.062632 58.32827 
L 336.758817 58.641043 
L 338.615312 59.832969 
L 339.079436 59.94295 
L 339.775622 59.927436 
L 340.239745 59.777636 
L 342.328302 58.447681 
L 342.792426 58.315087 
L 343.720673 58.331115 
L 344.416859 58.550414 
L 345.577168 59.184351 
L 346.505416 59.569636 
L 347.201601 59.590524 
L 348.129849 59.412405 
L 349.058096 58.947074 
L 350.218405 58.465003 
L 351.610777 58.645305 
L 353.23521 59.254009 
L 353.931395 59.518107 
L 354.859643 59.516779 
L 356.019952 59.237701 
L 358.340571 58.527752 
L 359.50088 58.627974 
L 362.05356 59.340095 
L 362.749746 59.366645 
L 363.677993 59.146319 
L 365.998612 58.514934 
L 367.158921 58.642155 
L 369.943664 59.26413 
L 370.871911 59.181707 
L 373.656653 58.48231 
L 375.281086 58.690856 
L 377.137581 59.117577 
L 379.690262 58.729582 
L 381.082633 58.44433 
L 382.707066 58.45928 
L 385.491808 58.93806 
L 386.652118 58.801144 
L 387.348303 58.592112 
L 389.204798 58.267775 
L 390.597169 58.435554 
L 392.453664 58.769453 
L 393.613974 58.721168 
L 396.86284 58.275159 
L 398.023149 58.513368 
L 398.487273 58.630227 
L 398.487273 58.630227 
" style="fill:none;stroke:#ff0000;stroke-linecap:square;stroke-width:1.5;"/>
   </g>
   <g id="line2d_17">
    <path clip-path="url(#p6a7819da07)" d="M 73.832727 293.481116 
L 74.296851 295.009352 
L 74.528913 295.17203 
L 74.760975 294.876747 
L 74.993037 294.141703 
L 75.45716 291.56281 
L 76.153346 285.692901 
L 77.313655 275.400476 
L 77.777779 272.844515 
L 78.009841 272.115628 
L 78.241903 271.794824 
L 78.473965 271.898456 
L 78.706026 272.418701 
L 79.17015 274.627662 
L 79.866336 280.146792 
L 81.258707 292.256326 
L 81.722831 294.496841 
L 81.954892 295.077286 
L 82.186954 295.213676 
L 82.419016 294.917308 
L 82.651078 294.183807 
L 83.115202 291.617845 
L 83.811387 285.771422 
L 84.971697 275.446338 
L 85.43582 272.854393 
L 85.667882 272.109529 
L 85.899944 271.784323 
L 86.132006 271.875911 
L 86.364068 272.387155 
L 86.828192 274.589449 
L 87.524377 280.112991 
L 88.916748 292.292395 
L 89.380872 294.409009 
L 89.612934 294.973213 
L 89.844996 295.111779 
L 90.077058 294.804851 
L 90.30912 294.138665 
L 90.773243 291.584748 
L 91.469429 285.755375 
L 92.629738 275.485688 
L 93.093862 272.904997 
L 93.325924 272.166484 
L 93.557986 271.822623 
L 93.790047 271.928879 
L 94.022109 272.448661 
L 94.486233 274.62359 
L 95.182419 280.081868 
L 96.342728 290.615753 
L 96.806852 293.363857 
L 97.270975 294.818127 
L 97.503037 294.995757 
L 97.735099 294.754073 
L 97.967161 294.07744 
L 98.431285 291.592328 
L 99.12747 285.841454 
L 100.28778 275.615807 
L 100.751903 273.02287 
L 100.983965 272.269921 
L 101.216027 271.927092 
L 101.448089 271.996728 
L 101.680151 272.486059 
L 102.144274 274.622991 
L 102.84046 280.020489 
L 104.232831 292.160558 
L 104.696955 294.504995 
L 104.929017 295.05948 
L 105.161079 295.157445 
L 105.393141 294.857106 
L 105.625202 294.172162 
L 106.089326 291.653183 
L 106.785512 285.812841 
L 107.945821 275.472818 
L 108.409945 272.857058 
L 108.642007 272.103655 
L 108.874068 271.78678 
L 109.10613 271.871123 
L 109.338192 272.377416 
L 109.570254 273.286674 
L 110.26644 278.074899 
L 112.122935 293.517414 
L 112.587058 295.008171 
L 112.81912 295.13715 
L 113.051182 294.840539 
L 113.283244 294.126187 
L 113.747368 291.525582 
L 114.443553 285.689111 
L 115.603862 275.458922 
L 116.067986 272.857494 
L 116.300048 272.139248 
L 116.53211 271.832811 
L 116.764172 271.934109 
L 116.996234 272.382937 
L 117.460357 274.625039 
L 118.156543 280.160657 
L 119.316852 290.779472 
L 119.780976 293.641558 
L 120.2451 295.076686 
L 120.477162 295.190606 
L 120.709223 294.909367 
L 120.941285 294.188263 
L 121.405409 291.580312 
L 122.101595 285.664559 
L 123.261904 275.392004 
L 123.726028 272.831717 
L 123.95809 272.09966 
L 124.190151 271.772433 
L 124.422213 271.861515 
L 124.654275 272.380268 
L 125.118399 274.592665 
L 125.814584 280.095724 
L 127.206956 292.474525 
L 127.671079 294.592653 
L 127.903141 295.109928 
L 128.135203 295.198462 
L 128.367265 294.890362 
L 128.831389 293.061974 
L 129.295512 289.819795 
L 131.384069 272.776493 
L 131.616131 272.048115 
L 131.848193 271.756305 
L 132.080255 271.85522 
L 132.312317 272.381107 
L 132.77644 274.610762 
L 133.472626 280.149741 
L 134.864997 292.3592 
L 135.329121 294.596412 
L 135.561183 295.142953 
L 135.793245 295.243114 
L 136.025306 294.941713 
L 136.257368 294.206367 
L 136.721492 291.619385 
L 137.417678 285.738786 
L 138.577987 275.324388 
L 139.042111 272.753381 
L 139.274172 272.025163 
L 139.506234 271.71009 
L 139.738296 271.824065 
L 139.970358 272.346984 
L 140.434482 274.573265 
L 141.130667 280.147802 
L 142.523039 292.622874 
L 142.987162 294.846782 
L 143.219224 295.315278 
L 143.451286 295.365697 
L 143.683348 294.992871 
L 144.147472 293.031699 
L 144.611595 289.694616 
L 146.700152 272.539657 
L 146.932214 271.828998 
L 147.164276 271.540575 
L 147.396338 271.676284 
L 147.6284 272.241109 
L 148.092523 274.559728 
L 148.788709 280.270445 
L 149.949018 290.955229 
L 150.413142 293.902193 
L 150.877266 295.301484 
L 151.109327 295.381286 
L 151.341389 295.057443 
L 151.573451 294.287713 
L 152.037575 291.632609 
L 152.73376 285.624491 
L 153.89407 275.14956 
L 154.358194 272.621288 
L 154.590255 271.900155 
L 154.822317 271.587229 
L 155.054379 271.705418 
L 155.286441 272.247477 
L 155.750565 274.537643 
L 156.44675 280.111168 
L 157.839121 292.571297 
L 158.303245 294.856805 
L 158.535307 295.350399 
L 158.767369 295.456066 
L 158.999431 295.145375 
L 159.463554 293.234962 
L 159.927678 289.940329 
L 162.016235 272.545755 
L 162.248297 271.801862 
L 162.480359 271.509611 
L 162.712421 271.616693 
L 162.944482 272.14136 
L 163.408606 274.395057 
L 164.104792 280.053108 
L 165.265101 290.921472 
L 165.729225 293.991679 
L 166.193348 295.412168 
L 166.42541 295.488 
L 166.657472 295.13048 
L 166.889534 294.393352 
L 167.353658 291.732991 
L 168.049843 285.675623 
L 169.210153 275.118834 
L 169.674276 272.531841 
L 169.906338 271.792029 
L 170.1384 271.471734 
L 170.370462 271.603087 
L 170.602524 272.137991 
L 171.066648 274.423943 
L 171.762833 280.11443 
L 173.155204 292.540674 
L 173.619328 294.779409 
L 173.85139 295.291818 
L 174.083452 295.396262 
L 174.315514 295.082746 
L 174.547576 294.341913 
L 175.011699 291.73019 
L 175.707885 285.760942 
L 176.868194 275.26505 
L 177.332318 272.642064 
L 177.796442 271.924309 
L 178.028503 271.996024 
L 178.260565 272.485521 
L 178.724689 274.617761 
L 179.188813 278.027718 
L 180.813246 292.164677 
L 181.27737 294.267554 
L 181.509431 294.797025 
L 181.741493 294.755074 
L 181.973555 294.477157 
L 182.205617 293.786293 
L 182.669741 291.319195 
L 183.365926 285.705515 
L 184.526236 275.754324 
L 184.990359 273.264442 
L 185.222421 272.548145 
L 185.454483 272.209131 
L 185.686545 272.289133 
L 185.918607 272.779108 
L 186.382731 274.88331 
L 187.078916 280.212719 
L 188.471287 291.794755 
L 188.935411 293.970632 
L 189.167473 294.510493 
L 189.399535 294.663016 
L 189.631597 294.400528 
L 189.863658 293.767021 
L 190.327782 291.398981 
L 191.023968 285.876321 
L 192.184277 276.022738 
L 192.648401 273.492161 
L 192.880463 272.736962 
L 193.112525 272.375233 
L 193.344586 272.432856 
L 193.576648 272.86257 
L 194.040772 274.86742 
L 194.736958 279.995927 
L 196.129329 291.655115 
L 196.361391 292.942752 
L 196.825514 294.07865 
L 197.057576 294.265355 
L 197.289638 294.067176 
L 197.5217 293.520733 
L 197.985824 291.310798 
L 198.682009 286.059222 
L 199.842319 276.466907 
L 200.306442 273.935597 
L 200.770566 272.739024 
L 201.002628 272.739043 
L 201.23469 273.108604 
L 201.698813 274.964379 
L 202.162937 278.041869 
L 204.019432 292.409959 
L 204.251494 293.310636 
L 204.715618 293.769404 
L 204.94768 293.656946 
L 205.179741 293.161481 
L 205.643865 291.147721 
L 206.340051 286.238586 
L 207.732422 275.606326 
L 207.964484 274.482216 
L 208.196546 274.076851 
L 208.660669 273.877678 
L 208.892731 274.113118 
L 209.124793 274.698889 
L 209.588917 276.750057 
L 210.285102 281.551881 
L 211.445412 290.052113 
L 211.909535 292.190377 
L 212.373659 293.135569 
L 212.605721 293.082609 
L 212.837783 292.660934 
L 213.301907 290.794648 
L 213.998092 286.359784 
L 215.390463 276.258531 
L 215.622525 275.162699 
L 215.854587 274.696579 
L 216.318711 274.416183 
L 216.550773 274.591754 
L 217.014896 275.888843 
L 217.47902 278.425692 
L 218.407268 285.038972 
L 219.103453 289.620897 
L 219.567577 291.609364 
L 219.799639 292.063101 
L 220.263762 291.925047 
L 220.727886 290.852321 
L 221.19201 288.819699 
L 221.888195 284.444637 
L 222.816443 278.366987 
L 223.280567 276.233225 
L 223.74469 275.164604 
L 223.976752 275.054093 
L 224.208814 275.242403 
L 224.440876 275.749423 
L 224.905 277.560695 
L 225.601185 281.696017 
L 226.761495 289.090655 
L 227.225618 291.046891 
L 227.689742 291.658289 
L 227.921804 291.640223 
L 228.153866 291.378871 
L 228.617989 289.934202 
L 229.082113 287.578485 
L 230.938608 276.570846 
L 231.402732 275.441024 
L 231.634794 275.289371 
L 231.866856 275.431861 
L 232.330979 276.51083 
L 232.795103 278.636439 
L 233.72335 284.599514 
L 234.419536 288.766115 
L 234.88366 290.757101 
L 235.115722 291.055469 
L 235.579845 291.197851 
L 235.811907 290.964765 
L 236.043969 290.48294 
L 236.508093 288.762837 
L 237.204278 284.830307 
L 238.364588 278.064213 
L 238.828711 276.405546 
L 239.292835 276.037451 
L 239.524897 276.123683 
L 239.756959 276.485729 
L 240.221083 277.91027 
L 240.917268 281.369763 
L 242.077577 288.118415 
L 242.541701 289.932261 
L 242.773763 290.257609 
L 243.237887 290.407599 
L 243.469949 290.297178 
L 243.702011 289.882149 
L 244.166134 288.376678 
L 244.86232 284.896254 
L 246.022629 278.747193 
L 246.486753 277.194673 
L 246.718815 277.00418 
L 247.182938 277.031886 
L 247.415 277.271823 
L 247.879124 278.423517 
L 248.57531 281.46167 
L 249.735619 287.445158 
L 250.199743 289.154294 
L 250.431805 289.61295 
L 250.895928 289.776507 
L 251.12799 289.610016 
L 251.360052 289.21943 
L 251.824176 287.806075 
L 252.520361 284.693823 
L 253.680671 279.212844 
L 254.144794 278.005886 
L 254.608918 277.638161 
L 254.84098 277.688631 
L 255.073042 277.935747 
L 255.537166 278.966483 
L 256.233351 281.679358 
L 257.625722 287.748029 
L 258.089846 289.010819 
L 258.55397 289.152675 
L 258.786032 289.0364 
L 259.018093 288.708448 
L 259.482217 287.49216 
L 260.178403 284.662597 
L 261.338712 279.625443 
L 261.802836 278.364486 
L 262.26696 278.034028 
L 262.499021 278.054884 
L 262.731083 278.271384 
L 263.195207 279.231991 
L 263.891393 281.7382 
L 265.283764 287.463339 
L 265.747887 288.514678 
L 266.212011 288.735847 
L 266.444073 288.669833 
L 266.676135 288.409662 
L 267.140259 287.339263 
L 267.836444 284.769554 
L 268.996754 280.068393 
L 269.460877 278.791034 
L 269.692939 278.447641 
L 269.925001 278.62421 
L 270.157063 278.60304 
L 270.389125 278.761294 
L 270.853248 279.582409 
L 271.317372 280.926538 
L 273.405929 288.029774 
L 274.102114 288.142894 
L 274.566238 287.500666 
L 275.030362 286.277923 
L 275.958609 282.878805 
L 276.654795 280.445001 
L 277.118919 279.317535 
L 277.350981 279.152807 
L 277.815104 279.100775 
L 278.047166 279.221029 
L 278.51129 279.914915 
L 278.975414 281.081807 
L 280.831909 287.125125 
L 281.06397 287.531304 
L 281.296032 287.678244 
L 281.992218 287.486622 
L 282.22428 287.229061 
L 282.688403 286.221497 
L 283.384589 284.027156 
L 284.544898 280.364188 
L 284.77696 279.868031 
L 285.009022 279.64999 
L 285.705208 279.653936 
L 286.169331 280.173868 
L 286.865517 281.742298 
L 288.722012 287.030018 
L 289.186136 287.329051 
L 289.650259 287.276165 
L 290.114383 286.654656 
L 290.810569 284.903063 
L 292.20294 280.753543 
L 292.667063 279.927483 
L 293.131187 279.768267 
L 293.595311 279.968345 
L 294.059435 280.644926 
L 294.523558 281.675022 
L 296.380053 286.734951 
L 296.612115 287.087665 
L 297.308301 287.023969 
L 297.772424 286.459471 
L 298.46861 284.901771 
L 300.093043 280.50993 
L 300.557167 280.16734 
L 301.253352 280.296854 
L 301.717476 280.867009 
L 302.1816 281.808501 
L 304.038095 286.37665 
L 304.73428 286.391866 
L 304.966342 286.350558 
L 305.430466 285.919315 
L 306.126652 284.65183 
L 307.751085 281.188003 
L 307.983146 280.899302 
L 308.215208 280.793542 
L 308.44727 280.824438 
L 308.679332 280.703659 
L 309.143456 280.990691 
L 309.607579 281.61773 
L 310.303765 283.049572 
L 311.464074 285.550005 
L 311.696136 285.873908 
L 312.16026 286.030413 
L 312.624384 286.043686 
L 313.088507 285.685232 
L 313.552631 285.026501 
L 314.71294 282.645503 
L 315.409126 281.427805 
L 315.641188 281.154668 
L 316.105312 281.052086 
L 316.569435 281.070746 
L 317.033559 281.46839 
L 317.497683 282.093547 
L 319.58624 285.861221 
L 320.282425 285.799649 
L 320.746549 285.485341 
L 321.210673 284.889941 
L 322.370982 282.812588 
L 323.067167 281.666286 
L 323.531291 281.328317 
L 324.227477 281.41736 
L 324.6916 281.725535 
L 325.155724 282.307421 
L 327.244281 285.344763 
L 327.708405 285.504061 
L 328.172528 285.48755 
L 328.636652 285.157835 
L 329.332838 284.240264 
L 330.957271 281.768476 
L 331.421395 281.540586 
L 331.653456 281.499724 
L 332.581704 282.051284 
L 333.277889 282.941934 
L 334.670261 284.89677 
L 334.902322 285.108707 
L 335.598508 285.239566 
L 336.062632 285.133469 
L 336.526755 284.756134 
L 337.222941 283.860392 
L 338.615312 282.079879 
L 339.079436 281.832262 
L 339.54356 281.792373 
L 340.007683 281.980252 
L 340.471807 282.411294 
L 341.400055 283.581007 
L 342.328302 284.728998 
L 342.560364 284.908123 
L 343.720673 284.874607 
L 344.184797 284.584291 
L 344.880983 283.8712 
L 346.041292 282.58425 
L 346.505416 282.219166 
L 346.737477 282.129935 
L 348.129849 282.496138 
L 348.36191 282.674669 
L 349.058096 283.738953 
L 349.986343 284.552316 
L 350.450467 284.660275 
L 351.146653 284.548911 
L 351.842838 284.157801 
L 353.699333 282.615497 
L 354.163457 282.420985 
L 355.323766 282.708996 
L 356.484076 283.355779 
L 357.876447 284.344594 
L 358.572632 284.426546 
L 359.268818 284.242904 
L 359.732942 284.013106 
L 361.821498 282.65246 
L 362.749746 282.592274 
L 363.21387 282.728406 
L 363.910055 283.197099 
L 365.76655 284.288256 
L 366.462736 284.276279 
L 367.158921 284.058803 
L 368.319231 283.347828 
L 369.247478 282.8448 
L 369.711602 282.738018 
L 370.639849 282.833263 
L 371.336035 283.128327 
L 373.424592 284.234249 
L 374.816963 283.972541 
L 375.74521 283.477452 
L 376.673458 283.022521 
L 377.369643 282.850285 
L 378.762014 283.003471 
L 379.690262 283.458344 
L 380.386447 283.816829 
L 381.082633 284.048398 
L 382.242942 284.033518 
L 382.939128 283.791633 
L 385.027685 282.898955 
L 385.491808 282.868862 
L 386.187994 282.979651 
L 386.88418 283.373387 
L 388.508613 283.974087 
L 389.43686 284.009505 
L 390.365108 283.75897 
L 392.453664 282.933737 
L 393.381912 282.949404 
L 394.310159 283.258202 
L 394.774283 283.487416 
L 395.238407 283.853668 
L 395.934592 284.029387 
L 396.398716 284.106226 
L 396.630778 284.194636 
L 398.487273 283.340047 
L 398.487273 283.340047 
" style="fill:none;stroke:#008000;stroke-linecap:square;stroke-width:1.5;"/>
   </g>
   <g id="patch_3">
    <path d="M 57.6 307.584 
L 57.6 41.472 
" style="fill:none;stroke:#000000;stroke-linecap:square;stroke-linejoin:miter;stroke-width:0.8;"/>
   </g>
   <g id="patch_4">
    <path d="M 414.72 307.584 
L 414.72 41.472 
" style="fill:none;stroke:#000000;stroke-linecap:square;stroke-linejoin:miter;stroke-width:0.8;"/>
   </g>
   <g id="patch_5">
    <path d="M 57.6 307.584 
L 414.72 307.584 
" style="fill:none;stroke:#000000;stroke-linecap:square;stroke-linejoin:miter;stroke-width:0.8;"/>
   </g>
   <g id="patch_6">
    <path d="M 57.6 41.472 
L 414.72 41.472 
" style="fill:none;stroke:#000000;stroke-linecap:square;stroke-linejoin:miter;stroke-width:0.8;"/>
   </g>
   <g id="legend_1">
    <g id="patch_7">
     <path d="M 351.0075 198.045187 
L 407.72 198.045187 
Q 409.72 198.045187 409.72 196.045187 
L 409.72 153.010812 
Q 409.72 151.010812 407.72 151.010812 
L 351.0075 151.010812 
Q 349.0075 151.010812 349.0075 153.010812 
L 349.0075 196.045187 
Q 349.0075 198.045187 351.0075 198.045187 
z
" style="fill:#ffffff;opacity:0.8;stroke:#cccccc;stroke-linejoin:miter;"/>
    </g>
    <g id="line2d_18">
     <path d="M 353.0075 159.10925 
L 373.0075 159.10925 
" style="fill:none;stroke:#1f77b4;stroke-linecap:square;stroke-width:1.5;"/>
    </g>
    <g id="line2d_19"/>
    <g id="text_15">
     <!-- 0-&gt;1 -->
     <defs>
      <path d="M 4.890625 31.390625 
L 31.203125 31.390625 
L 31.203125 23.390625 
L 4.890625 23.390625 
z
" id="DejaVuSans-45"/>
      <path d="M 10.59375 49.21875 
L 10.59375 58.109375 
L 73.1875 35.40625 
L 73.1875 27.296875 
L 10.59375 4.59375 
L 10.59375 13.484375 
L 60.890625 31.296875 
z
" id="DejaVuSans-62"/>
     </defs>
     <g transform="translate(381.0075 162.60925)scale(0.1 -0.1)">
      <use xlink:href="#DejaVuSans-48"/>
      <use x="63.623047" xlink:href="#DejaVuSans-45"/>
      <use x="99.707031" xlink:href="#DejaVuSans-62"/>
      <use x="183.496094" xlink:href="#DejaVuSans-49"/>
     </g>
    </g>
    <g id="line2d_20">
     <path d="M 353.0075 173.787375 
L 373.0075 173.787375 
" style="fill:none;stroke:#ff0000;stroke-linecap:square;stroke-width:1.5;"/>
    </g>
    <g id="line2d_21"/>
    <g id="text_16">
     <!-- 1-&gt;0 -->
     <g transform="translate(381.0075 177.287375)scale(0.1 -0.1)">
      <use xlink:href="#DejaVuSans-49"/>
      <use x="63.623047" xlink:href="#DejaVuSans-45"/>
      <use x="99.707031" xlink:href="#DejaVuSans-62"/>
      <use x="183.496094" xlink:href="#DejaVuSans-48"/>
     </g>
    </g>
    <g id="line2d_22">
     <path d="M 353.0075 188.4655 
L 373.0075 188.4655 
" style="fill:none;stroke:#008000;stroke-linecap:square;stroke-width:1.5;"/>
    </g>
    <g id="line2d_23"/>
    <g id="text_17">
     <!-- diff -->
     <defs>
      <path d="M 45.40625 46.390625 
L 45.40625 75.984375 
L 54.390625 75.984375 
L 54.390625 0 
L 45.40625 0 
L 45.40625 8.203125 
Q 42.578125 3.328125 38.25 0.953125 
Q 33.9375 -1.421875 27.875 -1.421875 
Q 17.96875 -1.421875 11.734375 6.484375 
Q 5.515625 14.40625 5.515625 27.296875 
Q 5.515625 40.1875 11.734375 48.09375 
Q 17.96875 56 27.875 56 
Q 33.9375 56 38.25 53.625 
Q 42.578125 51.265625 45.40625 46.390625 
z
M 14.796875 27.296875 
Q 14.796875 17.390625 18.875 11.75 
Q 22.953125 6.109375 30.078125 6.109375 
Q 37.203125 6.109375 41.296875 11.75 
Q 45.40625 17.390625 45.40625 27.296875 
Q 45.40625 37.203125 41.296875 42.84375 
Q 37.203125 48.484375 30.078125 48.484375 
Q 22.953125 48.484375 18.875 42.84375 
Q 14.796875 37.203125 14.796875 27.296875 
z
" id="DejaVuSans-100"/>
      <path d="M 9.421875 54.6875 
L 18.40625 54.6875 
L 18.40625 0 
L 9.421875 0 
z
M 9.421875 75.984375 
L 18.40625 75.984375 
L 18.40625 64.59375 
L 9.421875 64.59375 
z
" id="DejaVuSans-105"/>
      <path d="M 37.109375 75.984375 
L 37.109375 68.5 
L 28.515625 68.5 
Q 23.6875 68.5 21.796875 66.546875 
Q 19.921875 64.59375 19.921875 59.515625 
L 19.921875 54.6875 
L 34.71875 54.6875 
L 34.71875 47.703125 
L 19.921875 47.703125 
L 19.921875 0 
L 10.890625 0 
L 10.890625 47.703125 
L 2.296875 47.703125 
L 2.296875 54.6875 
L 10.890625 54.6875 
L 10.890625 58.5 
Q 10.890625 67.625 15.140625 71.796875 
Q 19.390625 75.984375 28.609375 75.984375 
z
" id="DejaVuSans-102"/>
     </defs>
     <g transform="translate(381.0075 191.9655)scale(0.1 -0.1)">
      <use xlink:href="#DejaVuSans-100"/>
      <use x="63.476562" xlink:href="#DejaVuSans-105"/>
      <use x="91.259766" xlink:href="#DejaVuSans-102"/>
      <use x="126.464844" xlink:href="#DejaVuSans-102"/>
     </g>
    </g>
   </g>
  </g>
 </g>
 <defs>
  <clipPath id="p6a7819da07">
   <rect height="266.112" width="357.12" x="57.6" y="41.472"/>
  </clipPath>
 </defs>
</svg>
