<?xml version="1.0" encoding="utf-8" standalone="no"?>
<!DOCTYPE svg PUBLIC "-//W3C//DTD SVG 1.1//EN"
  "http://www.w3.org/Graphics/SVG/1.1/DTD/svg11.dtd">
<!-- Created with matplotlib (https://matplotlib.org/) -->
<svg height="345.6pt" version="1.1" viewBox="0 0 460.8 345.6" width="460.8pt" xmlns="http://www.w3.org/2000/svg" xmlns:xlink="http://www.w3.org/1999/xlink">
 <defs>
  <style type="text/css">
*{stroke-linecap:butt;stroke-linejoin:round;}
  </style>
 </defs>
 <g id="figure_1">
  <g id="patch_1">
   <path d="M 0 345.6 
L 460.8 345.6 
L 460.8 0 
L 0 0 
z
" style="fill:#ffffff;"/>
  </g>
  <g id="axes_1">
   <g id="patch_2">
    <path d="M 57.6 307.584 
L 414.72 307.584 
L 414.72 41.472 
L 57.6 41.472 
z
" style="fill:#ffffff;"/>
   </g>
   <g id="matplotlib.axis_1">
    <g id="xtick_1">
     <g id="line2d_1">
      <defs>
       <path d="M 0 0 
L 0 3.5 
" id="m15edc51822" style="stroke:#000000;stroke-width:0.8;"/>
      </defs>
      <g>
       <use style="stroke:#000000;stroke-width:0.8;" x="73.832727" xlink:href="#m15edc51822" y="307.584"/>
      </g>
     </g>
     <g id="text_1">
      <!-- 0 -->
      <defs>
       <path d="M 31.78125 66.40625 
Q 24.171875 66.40625 20.328125 58.90625 
Q 16.5 51.421875 16.5 36.375 
Q 16.5 21.390625 20.328125 13.890625 
Q 24.171875 6.390625 31.78125 6.390625 
Q 39.453125 6.390625 43.28125 13.890625 
Q 47.125 21.390625 47.125 36.375 
Q 47.125 51.421875 43.28125 58.90625 
Q 39.453125 66.40625 31.78125 66.40625 
z
M 31.78125 74.21875 
Q 44.046875 74.21875 50.515625 64.515625 
Q 56.984375 54.828125 56.984375 36.375 
Q 56.984375 17.96875 50.515625 8.265625 
Q 44.046875 -1.421875 31.78125 -1.421875 
Q 19.53125 -1.421875 13.0625 8.265625 
Q 6.59375 17.96875 6.59375 36.375 
Q 6.59375 54.828125 13.0625 64.515625 
Q 19.53125 74.21875 31.78125 74.21875 
z
" id="DejaVuSans-48"/>
      </defs>
      <g transform="translate(70.651477 322.182437)scale(0.1 -0.1)">
       <use xlink:href="#DejaVuSans-48"/>
      </g>
     </g>
    </g>
    <g id="xtick_2">
     <g id="line2d_2">
      <g>
       <use style="stroke:#000000;stroke-width:0.8;" x="120.2451" xlink:href="#m15edc51822" y="307.584"/>
      </g>
     </g>
     <g id="text_2">
      <!-- 200 -->
      <defs>
       <path d="M 19.1875 8.296875 
L 53.609375 8.296875 
L 53.609375 0 
L 7.328125 0 
L 7.328125 8.296875 
Q 12.9375 14.109375 22.625 23.890625 
Q 32.328125 33.6875 34.8125 36.53125 
Q 39.546875 41.84375 41.421875 45.53125 
Q 43.3125 49.21875 43.3125 52.78125 
Q 43.3125 58.59375 39.234375 62.25 
Q 35.15625 65.921875 28.609375 65.921875 
Q 23.96875 65.921875 18.8125 64.3125 
Q 13.671875 62.703125 7.8125 59.421875 
L 7.8125 69.390625 
Q 13.765625 71.78125 18.9375 73 
Q 24.125 74.21875 28.421875 74.21875 
Q 39.75 74.21875 46.484375 68.546875 
Q 53.21875 62.890625 53.21875 53.421875 
Q 53.21875 48.921875 51.53125 44.890625 
Q 49.859375 40.875 45.40625 35.40625 
Q 44.1875 33.984375 37.640625 27.21875 
Q 31.109375 20.453125 19.1875 8.296875 
z
" id="DejaVuSans-50"/>
      </defs>
      <g transform="translate(110.70135 322.182437)scale(0.1 -0.1)">
       <use xlink:href="#DejaVuSans-50"/>
       <use x="63.623047" xlink:href="#DejaVuSans-48"/>
       <use x="127.246094" xlink:href="#DejaVuSans-48"/>
      </g>
     </g>
    </g>
    <g id="xtick_3">
     <g id="line2d_3">
      <g>
       <use style="stroke:#000000;stroke-width:0.8;" x="166.657472" xlink:href="#m15edc51822" y="307.584"/>
      </g>
     </g>
     <g id="text_3">
      <!-- 400 -->
      <defs>
       <path d="M 37.796875 64.3125 
L 12.890625 25.390625 
L 37.796875 25.390625 
z
M 35.203125 72.90625 
L 47.609375 72.90625 
L 47.609375 25.390625 
L 58.015625 25.390625 
L 58.015625 17.1875 
L 47.609375 17.1875 
L 47.609375 0 
L 37.796875 0 
L 37.796875 17.1875 
L 4.890625 17.1875 
L 4.890625 26.703125 
z
" id="DejaVuSans-52"/>
      </defs>
      <g transform="translate(157.113722 322.182437)scale(0.1 -0.1)">
       <use xlink:href="#DejaVuSans-52"/>
       <use x="63.623047" xlink:href="#DejaVuSans-48"/>
       <use x="127.246094" xlink:href="#DejaVuSans-48"/>
      </g>
     </g>
    </g>
    <g id="xtick_4">
     <g id="line2d_4">
      <g>
       <use style="stroke:#000000;stroke-width:0.8;" x="213.069845" xlink:href="#m15edc51822" y="307.584"/>
      </g>
     </g>
     <g id="text_4">
      <!-- 600 -->
      <defs>
       <path d="M 33.015625 40.375 
Q 26.375 40.375 22.484375 35.828125 
Q 18.609375 31.296875 18.609375 23.390625 
Q 18.609375 15.53125 22.484375 10.953125 
Q 26.375 6.390625 33.015625 6.390625 
Q 39.65625 6.390625 43.53125 10.953125 
Q 47.40625 15.53125 47.40625 23.390625 
Q 47.40625 31.296875 43.53125 35.828125 
Q 39.65625 40.375 33.015625 40.375 
z
M 52.59375 71.296875 
L 52.59375 62.3125 
Q 48.875 64.0625 45.09375 64.984375 
Q 41.3125 65.921875 37.59375 65.921875 
Q 27.828125 65.921875 22.671875 59.328125 
Q 17.53125 52.734375 16.796875 39.40625 
Q 19.671875 43.65625 24.015625 45.921875 
Q 28.375 48.1875 33.59375 48.1875 
Q 44.578125 48.1875 50.953125 41.515625 
Q 57.328125 34.859375 57.328125 23.390625 
Q 57.328125 12.15625 50.6875 5.359375 
Q 44.046875 -1.421875 33.015625 -1.421875 
Q 20.359375 -1.421875 13.671875 8.265625 
Q 6.984375 17.96875 6.984375 36.375 
Q 6.984375 53.65625 15.1875 63.9375 
Q 23.390625 74.21875 37.203125 74.21875 
Q 40.921875 74.21875 44.703125 73.484375 
Q 48.484375 72.75 52.59375 71.296875 
z
" id="DejaVuSans-54"/>
      </defs>
      <g transform="translate(203.526095 322.182437)scale(0.1 -0.1)">
       <use xlink:href="#DejaVuSans-54"/>
       <use x="63.623047" xlink:href="#DejaVuSans-48"/>
       <use x="127.246094" xlink:href="#DejaVuSans-48"/>
      </g>
     </g>
    </g>
    <g id="xtick_5">
     <g id="line2d_5">
      <g>
       <use style="stroke:#000000;stroke-width:0.8;" x="259.482217" xlink:href="#m15edc51822" y="307.584"/>
      </g>
     </g>
     <g id="text_5">
      <!-- 800 -->
      <defs>
       <path d="M 31.78125 34.625 
Q 24.75 34.625 20.71875 30.859375 
Q 16.703125 27.09375 16.703125 20.515625 
Q 16.703125 13.921875 20.71875 10.15625 
Q 24.75 6.390625 31.78125 6.390625 
Q 38.8125 6.390625 42.859375 10.171875 
Q 46.921875 13.96875 46.921875 20.515625 
Q 46.921875 27.09375 42.890625 30.859375 
Q 38.875 34.625 31.78125 34.625 
z
M 21.921875 38.8125 
Q 15.578125 40.375 12.03125 44.71875 
Q 8.5 49.078125 8.5 55.328125 
Q 8.5 64.0625 14.71875 69.140625 
Q 20.953125 74.21875 31.78125 74.21875 
Q 42.671875 74.21875 48.875 69.140625 
Q 55.078125 64.0625 55.078125 55.328125 
Q 55.078125 49.078125 51.53125 44.71875 
Q 48 40.375 41.703125 38.8125 
Q 48.828125 37.15625 52.796875 32.3125 
Q 56.78125 27.484375 56.78125 20.515625 
Q 56.78125 9.90625 50.3125 4.234375 
Q 43.84375 -1.421875 31.78125 -1.421875 
Q 19.734375 -1.421875 13.25 4.234375 
Q 6.78125 9.90625 6.78125 20.515625 
Q 6.78125 27.484375 10.78125 32.3125 
Q 14.796875 37.15625 21.921875 38.8125 
z
M 18.3125 54.390625 
Q 18.3125 48.734375 21.84375 45.5625 
Q 25.390625 42.390625 31.78125 42.390625 
Q 38.140625 42.390625 41.71875 45.5625 
Q 45.3125 48.734375 45.3125 54.390625 
Q 45.3125 60.0625 41.71875 63.234375 
Q 38.140625 66.40625 31.78125 66.40625 
Q 25.390625 66.40625 21.84375 63.234375 
Q 18.3125 60.0625 18.3125 54.390625 
z
" id="DejaVuSans-56"/>
      </defs>
      <g transform="translate(249.938467 322.182437)scale(0.1 -0.1)">
       <use xlink:href="#DejaVuSans-56"/>
       <use x="63.623047" xlink:href="#DejaVuSans-48"/>
       <use x="127.246094" xlink:href="#DejaVuSans-48"/>
      </g>
     </g>
    </g>
    <g id="xtick_6">
     <g id="line2d_6">
      <g>
       <use style="stroke:#000000;stroke-width:0.8;" x="305.89459" xlink:href="#m15edc51822" y="307.584"/>
      </g>
     </g>
     <g id="text_6">
      <!-- 1000 -->
      <defs>
       <path d="M 12.40625 8.296875 
L 28.515625 8.296875 
L 28.515625 63.921875 
L 10.984375 60.40625 
L 10.984375 69.390625 
L 28.421875 72.90625 
L 38.28125 72.90625 
L 38.28125 8.296875 
L 54.390625 8.296875 
L 54.390625 0 
L 12.40625 0 
z
" id="DejaVuSans-49"/>
      </defs>
      <g transform="translate(293.16959 322.182437)scale(0.1 -0.1)">
       <use xlink:href="#DejaVuSans-49"/>
       <use x="63.623047" xlink:href="#DejaVuSans-48"/>
       <use x="127.246094" xlink:href="#DejaVuSans-48"/>
       <use x="190.869141" xlink:href="#DejaVuSans-48"/>
      </g>
     </g>
    </g>
    <g id="xtick_7">
     <g id="line2d_7">
      <g>
       <use style="stroke:#000000;stroke-width:0.8;" x="352.306962" xlink:href="#m15edc51822" y="307.584"/>
      </g>
     </g>
     <g id="text_7">
      <!-- 1200 -->
      <g transform="translate(339.581962 322.182437)scale(0.1 -0.1)">
       <use xlink:href="#DejaVuSans-49"/>
       <use x="63.623047" xlink:href="#DejaVuSans-50"/>
       <use x="127.246094" xlink:href="#DejaVuSans-48"/>
       <use x="190.869141" xlink:href="#DejaVuSans-48"/>
      </g>
     </g>
    </g>
    <g id="xtick_8">
     <g id="line2d_8">
      <g>
       <use style="stroke:#000000;stroke-width:0.8;" x="398.719335" xlink:href="#m15edc51822" y="307.584"/>
      </g>
     </g>
     <g id="text_8">
      <!-- 1400 -->
      <g transform="translate(385.994335 322.182437)scale(0.1 -0.1)">
       <use xlink:href="#DejaVuSans-49"/>
       <use x="63.623047" xlink:href="#DejaVuSans-52"/>
       <use x="127.246094" xlink:href="#DejaVuSans-48"/>
       <use x="190.869141" xlink:href="#DejaVuSans-48"/>
      </g>
     </g>
    </g>
   </g>
   <g id="matplotlib.axis_2">
    <g id="ytick_1">
     <g id="line2d_9">
      <defs>
       <path d="M 0 0 
L -3.5 0 
" id="m9855eacad2" style="stroke:#000000;stroke-width:0.8;"/>
      </defs>
      <g>
       <use style="stroke:#000000;stroke-width:0.8;" x="57.6" xlink:href="#m9855eacad2" y="294.243436"/>
      </g>
     </g>
     <g id="text_9">
      <!-- 0.0 -->
      <defs>
       <path d="M 10.6875 12.40625 
L 21 12.40625 
L 21 0 
L 10.6875 0 
z
" id="DejaVuSans-46"/>
      </defs>
      <g transform="translate(34.696875 298.042655)scale(0.1 -0.1)">
       <use xlink:href="#DejaVuSans-48"/>
       <use x="63.623047" xlink:href="#DejaVuSans-46"/>
       <use x="95.410156" xlink:href="#DejaVuSans-48"/>
      </g>
     </g>
    </g>
    <g id="ytick_2">
     <g id="line2d_10">
      <g>
       <use style="stroke:#000000;stroke-width:0.8;" x="57.6" xlink:href="#m9855eacad2" y="251.315174"/>
      </g>
     </g>
     <g id="text_10">
      <!-- 0.1 -->
      <g transform="translate(34.696875 255.114392)scale(0.1 -0.1)">
       <use xlink:href="#DejaVuSans-48"/>
       <use x="63.623047" xlink:href="#DejaVuSans-46"/>
       <use x="95.410156" xlink:href="#DejaVuSans-49"/>
      </g>
     </g>
    </g>
    <g id="ytick_3">
     <g id="line2d_11">
      <g>
       <use style="stroke:#000000;stroke-width:0.8;" x="57.6" xlink:href="#m9855eacad2" y="208.386911"/>
      </g>
     </g>
     <g id="text_11">
      <!-- 0.2 -->
      <g transform="translate(34.696875 212.18613)scale(0.1 -0.1)">
       <use xlink:href="#DejaVuSans-48"/>
       <use x="63.623047" xlink:href="#DejaVuSans-46"/>
       <use x="95.410156" xlink:href="#DejaVuSans-50"/>
      </g>
     </g>
    </g>
    <g id="ytick_4">
     <g id="line2d_12">
      <g>
       <use style="stroke:#000000;stroke-width:0.8;" x="57.6" xlink:href="#m9855eacad2" y="165.458648"/>
      </g>
     </g>
     <g id="text_12">
      <!-- 0.3 -->
      <defs>
       <path d="M 40.578125 39.3125 
Q 47.65625 37.796875 51.625 33 
Q 55.609375 28.21875 55.609375 21.1875 
Q 55.609375 10.40625 48.1875 4.484375 
Q 40.765625 -1.421875 27.09375 -1.421875 
Q 22.515625 -1.421875 17.65625 -0.515625 
Q 12.796875 0.390625 7.625 2.203125 
L 7.625 11.71875 
Q 11.71875 9.328125 16.59375 8.109375 
Q 21.484375 6.890625 26.8125 6.890625 
Q 36.078125 6.890625 40.9375 10.546875 
Q 45.796875 14.203125 45.796875 21.1875 
Q 45.796875 27.640625 41.28125 31.265625 
Q 36.765625 34.90625 28.71875 34.90625 
L 20.21875 34.90625 
L 20.21875 43.015625 
L 29.109375 43.015625 
Q 36.375 43.015625 40.234375 45.921875 
Q 44.09375 48.828125 44.09375 54.296875 
Q 44.09375 59.90625 40.109375 62.90625 
Q 36.140625 65.921875 28.71875 65.921875 
Q 24.65625 65.921875 20.015625 65.03125 
Q 15.375 64.15625 9.8125 62.3125 
L 9.8125 71.09375 
Q 15.4375 72.65625 20.34375 73.4375 
Q 25.25 74.21875 29.59375 74.21875 
Q 40.828125 74.21875 47.359375 69.109375 
Q 53.90625 64.015625 53.90625 55.328125 
Q 53.90625 49.265625 50.4375 45.09375 
Q 46.96875 40.921875 40.578125 39.3125 
z
" id="DejaVuSans-51"/>
      </defs>
      <g transform="translate(34.696875 169.257867)scale(0.1 -0.1)">
       <use xlink:href="#DejaVuSans-48"/>
       <use x="63.623047" xlink:href="#DejaVuSans-46"/>
       <use x="95.410156" xlink:href="#DejaVuSans-51"/>
      </g>
     </g>
    </g>
    <g id="ytick_5">
     <g id="line2d_13">
      <g>
       <use style="stroke:#000000;stroke-width:0.8;" x="57.6" xlink:href="#m9855eacad2" y="122.530385"/>
      </g>
     </g>
     <g id="text_13">
      <!-- 0.4 -->
      <g transform="translate(34.696875 126.329604)scale(0.1 -0.1)">
       <use xlink:href="#DejaVuSans-48"/>
       <use x="63.623047" xlink:href="#DejaVuSans-46"/>
       <use x="95.410156" xlink:href="#DejaVuSans-52"/>
      </g>
     </g>
    </g>
    <g id="ytick_6">
     <g id="line2d_14">
      <g>
       <use style="stroke:#000000;stroke-width:0.8;" x="57.6" xlink:href="#m9855eacad2" y="79.602122"/>
      </g>
     </g>
     <g id="text_14">
      <!-- 0.5 -->
      <defs>
       <path d="M 10.796875 72.90625 
L 49.515625 72.90625 
L 49.515625 64.59375 
L 19.828125 64.59375 
L 19.828125 46.734375 
Q 21.96875 47.46875 24.109375 47.828125 
Q 26.265625 48.1875 28.421875 48.1875 
Q 40.625 48.1875 47.75 41.5 
Q 54.890625 34.8125 54.890625 23.390625 
Q 54.890625 11.625 47.5625 5.09375 
Q 40.234375 -1.421875 26.90625 -1.421875 
Q 22.3125 -1.421875 17.546875 -0.640625 
Q 12.796875 0.140625 7.71875 1.703125 
L 7.71875 11.625 
Q 12.109375 9.234375 16.796875 8.0625 
Q 21.484375 6.890625 26.703125 6.890625 
Q 35.15625 6.890625 40.078125 11.328125 
Q 45.015625 15.765625 45.015625 23.390625 
Q 45.015625 31 40.078125 35.4375 
Q 35.15625 39.890625 26.703125 39.890625 
Q 22.75 39.890625 18.8125 39.015625 
Q 14.890625 38.140625 10.796875 36.28125 
z
" id="DejaVuSans-53"/>
      </defs>
      <g transform="translate(34.696875 83.401341)scale(0.1 -0.1)">
       <use xlink:href="#DejaVuSans-48"/>
       <use x="63.623047" xlink:href="#DejaVuSans-46"/>
       <use x="95.410156" xlink:href="#DejaVuSans-53"/>
      </g>
     </g>
    </g>
   </g>
   <g id="line2d_15">
    <path clip-path="url(#p12e7256d96)" d="M 73.832727 55.590195 
L 74.993037 55.375205 
L 75.921284 55.442206 
L 77.081593 55.686019 
L 78.706026 56.004233 
L 79.634274 55.920961 
L 81.258707 55.570912 
L 82.651078 55.364448 
L 84.275511 55.586402 
L 86.132006 55.949774 
L 87.060253 55.864807 
L 90.30912 55.251732 
L 91.005305 55.345297 
L 92.165614 55.715061 
L 93.325924 55.917208 
L 94.486233 55.881449 
L 95.878604 55.552525 
L 97.270975 55.232736 
L 98.199223 55.269416 
L 99.359532 55.499279 
L 100.751903 55.795399 
L 101.912213 55.830215 
L 103.304584 55.576526 
L 104.929017 55.287882 
L 106.089326 55.373671 
L 107.017574 55.616431 
L 108.177883 55.816069 
L 109.570254 55.81094 
L 113.051182 55.311796 
L 114.443553 55.549786 
L 116.53211 55.851733 
L 117.228296 55.793554 
L 119.316852 55.35068 
L 120.2451 55.2333 
L 121.173347 55.305167 
L 123.261904 55.757048 
L 124.654275 55.692989 
L 125.814584 55.474439 
L 127.439017 55.066901 
L 128.367265 55.052079 
L 129.527574 55.305799 
L 130.455822 55.590783 
L 131.616131 55.743057 
L 132.77644 55.596244 
L 135.561183 54.948018 
L 136.48943 55.069142 
L 139.042111 55.687124 
L 140.20242 55.547819 
L 142.987162 54.852375 
L 143.91541 54.968046 
L 146.46809 55.623168 
L 147.396338 55.569613 
L 148.324585 55.319276 
L 149.949018 54.786026 
L 150.877266 54.665947 
L 151.805513 54.82232 
L 154.358194 55.603972 
L 155.518503 55.569184 
L 156.44675 55.264149 
L 157.839121 54.759142 
L 158.767369 54.672735 
L 159.695616 54.852366 
L 162.016235 55.610471 
L 162.944482 55.514156 
L 163.87273 55.185989 
L 165.497163 54.576453 
L 166.193348 54.511713 
L 166.889534 54.617814 
L 167.58572 54.872544 
L 168.049843 55.190915 
L 169.442215 55.635366 
L 170.1384 55.628198 
L 171.066648 55.390401 
L 172.691081 54.765292 
L 173.619328 54.643568 
L 174.547576 54.810744 
L 177.100256 55.655127 
L 178.028503 55.558994 
L 178.956751 55.224702 
L 180.349122 54.636714 
L 181.045308 54.50867 
L 181.741493 54.562912 
L 182.669741 54.904925 
L 184.526236 55.610681 
L 185.222421 55.644164 
L 186.150669 55.467807 
L 188.471287 54.636404 
L 189.399535 54.639391 
L 190.327782 54.933782 
L 191.952215 55.531994 
L 192.880463 55.59188 
L 193.576648 55.42307 
L 196.361391 54.5486 
L 197.289638 54.708467 
L 198.682009 55.331087 
L 199.842319 55.697184 
L 200.538504 55.66861 
L 201.466752 55.381762 
L 203.323246 54.660207 
L 204.019432 54.588456 
L 204.94768 54.762327 
L 206.107989 55.29374 
L 207.268298 55.680861 
L 208.196546 55.651918 
L 208.892731 55.432927 
L 210.981288 54.673607 
L 211.909535 54.630117 
L 212.837783 54.87185 
L 214.92634 55.637817 
L 215.622525 55.654057 
L 216.550773 55.40357 
L 218.871391 54.534694 
L 219.567577 54.531313 
L 220.495824 54.790497 
L 222.584381 55.637434 
L 223.280567 55.652498 
L 224.208814 55.393378 
L 226.529433 54.531836 
L 227.45768 54.57885 
L 228.385928 54.909582 
L 230.010361 55.549655 
L 230.938608 55.595204 
L 231.866856 55.354977 
L 234.187474 54.59174 
L 235.115722 54.62222 
L 236.043969 54.903338 
L 237.668402 55.492495 
L 238.59665 55.547978 
L 239.524897 55.350227 
L 242.077577 54.614199 
L 242.773763 54.633596 
L 243.702011 54.880643 
L 245.558505 55.491356 
L 246.254691 55.515693 
L 247.182938 55.316061 
L 249.503557 54.642835 
L 250.431805 54.660253 
L 251.360052 54.890672 
L 252.984485 55.395712 
L 253.912732 55.435603 
L 255.073042 55.176176 
L 256.929537 54.65883 
L 257.857784 54.633792 
L 259.018093 54.87354 
L 260.642526 55.326078 
L 261.570774 55.342711 
L 262.731083 55.098716 
L 264.587578 54.651774 
L 265.515826 54.653499 
L 266.676135 54.898549 
L 268.53263 55.327854 
L 269.460877 55.27548 
L 270.621187 54.985292 
L 272.24562 54.538257 
L 273.173867 54.51144 
L 274.102114 54.70366 
L 276.422733 55.338968 
L 277.350981 55.262421 
L 280.831909 54.515767 
L 281.760156 54.699815 
L 283.848713 55.266362 
L 285.009022 55.20504 
L 288.257888 54.567707 
L 289.186136 54.724501 
L 291.738816 55.281975 
L 292.667063 55.188417 
L 294.059435 54.776465 
L 295.219744 54.517567 
L 296.147991 54.516889 
L 297.308301 54.778018 
L 298.932734 55.22261 
L 299.860981 55.222205 
L 301.021291 54.969222 
L 302.877785 54.463502 
L 303.806033 54.454782 
L 304.966342 54.71959 
L 306.590775 55.184418 
L 307.519023 55.206195 
L 308.44727 55.006557 
L 310.535827 54.366796 
L 311.464074 54.363843 
L 312.392322 54.587623 
L 314.480879 55.177567 
L 315.409126 55.129325 
L 316.569435 54.79266 
L 317.961806 54.363011 
L 318.890054 54.284299 
L 319.818301 54.454618 
L 322.370982 55.162409 
L 323.299229 55.068786 
L 324.6916 54.605708 
L 325.85191 54.258998 
L 326.780157 54.211721 
L 327.708405 54.402937 
L 330.261085 55.117908 
L 331.189333 55.040091 
L 332.813766 54.544985 
L 333.974075 54.249395 
L 334.902322 54.242372 
L 336.062632 54.544288 
L 337.687065 55.020627 
L 338.615312 55.050974 
L 339.54356 54.84172 
L 341.632116 54.244705 
L 342.560364 54.231353 
L 343.720673 54.536689 
L 345.345106 55.013583 
L 346.273354 55.046869 
L 347.201601 54.83166 
L 349.52222 54.046656 
L 350.450467 54.033139 
L 351.378715 54.293494 
L 353.23521 54.945901 
L 354.163457 54.984264 
L 355.091704 54.753525 
L 357.876447 53.985499 
L 358.804694 54.158533 
L 361.357375 54.921785 
L 362.05356 54.873628 
L 363.21387 54.506418 
L 364.606241 54.048703 
L 365.534488 53.982965 
L 366.462736 54.179235 
L 368.783354 54.868116 
L 369.711602 54.815839 
L 370.871911 54.485187 
L 372.496344 54.046489 
L 373.424592 54.025229 
L 374.816963 54.389268 
L 376.209334 54.731083 
L 377.137581 54.728212 
L 378.297891 54.443451 
L 379.922324 53.950111 
L 380.850571 53.881435 
L 381.778819 54.030537 
L 384.099437 54.660218 
L 385.027685 54.59446 
L 386.187994 54.241782 
L 387.580365 53.840067 
L 388.508613 53.800485 
L 389.43686 53.976611 
L 391.293355 54.486612 
L 392.221602 54.532286 
L 393.14985 54.303313 
L 395.238407 53.612997 
L 396.166654 53.592365 
L 397.094902 53.821598 
L 398.487273 54.317928 
L 398.487273 54.317928 
" style="fill:none;stroke:#1f77b4;stroke-linecap:square;stroke-width:1.5;"/>
   </g>
   <g id="line2d_16">
    <path clip-path="url(#p12e7256d96)" d="M 73.832727 55.860366 
L 74.993037 56.047278 
L 75.921284 55.97016 
L 77.545717 55.584052 
L 78.938088 55.356899 
L 81.490769 55.818563 
L 82.651078 55.950837 
L 83.579325 55.859321 
L 85.203759 55.487926 
L 85.899944 55.321188 
L 87.060253 55.346385 
L 90.541181 55.930141 
L 91.469429 55.737565 
L 93.557986 55.260688 
L 94.718295 55.304349 
L 97.967161 55.942063 
L 98.663347 55.770189 
L 101.912213 55.227528 
L 102.84046 55.488183 
L 105.161079 55.843958 
L 106.321388 55.725346 
L 107.017574 55.53968 
L 109.338192 55.360097 
L 110.730563 55.611833 
L 112.354996 55.848068 
L 113.747368 55.782872 
L 116.53211 55.276961 
L 117.692419 55.427185 
L 120.013038 55.833815 
L 120.941285 55.779159 
L 121.869533 55.55354 
L 122.79778 55.268282 
L 123.95809 55.175006 
L 125.582523 55.317537 
L 127.439017 55.73727 
L 128.599327 55.688269 
L 130.22376 55.261946 
L 130.919945 55.077735 
L 132.080255 55.010309 
L 133.008502 55.205588 
L 135.097059 55.722408 
L 136.025306 55.698426 
L 136.953554 55.43675 
L 138.810049 54.924485 
L 139.738296 54.945155 
L 141.130667 55.298472 
L 142.058915 55.587402 
L 143.219224 55.656753 
L 144.379533 55.396976 
L 146.003966 54.914742 
L 146.932214 54.849767 
L 148.324585 55.001972 
L 150.18108 55.512111 
L 151.109327 55.523446 
L 152.037575 55.310453 
L 153.429946 54.939898 
L 154.590255 54.740041 
L 155.518503 54.819594 
L 156.214688 55.013987 
L 158.071183 55.613973 
L 158.767369 55.617272 
L 159.695616 55.437292 
L 162.248297 54.621968 
L 163.408606 54.728806 
L 165.265101 55.499539 
L 166.193348 55.609438 
L 167.121596 55.42327 
L 169.210153 54.641679 
L 169.906338 54.561082 
L 170.834586 54.738986 
L 171.298709 55.037683 
L 172.923143 55.631416 
L 173.85139 55.670957 
L 174.779637 55.433894 
L 177.100256 54.551517 
L 177.796442 54.589763 
L 178.724689 54.866758 
L 180.581184 55.603915 
L 181.27737 55.645583 
L 182.205617 55.452885 
L 184.526236 54.651599 
L 185.222421 54.59102 
L 185.918607 54.703576 
L 187.54304 55.367208 
L 188.471287 55.625921 
L 189.167473 55.631457 
L 190.09572 55.413486 
L 192.648401 54.523575 
L 193.344586 54.612734 
L 194.040772 54.905462 
L 195.433143 55.436497 
L 196.593452 55.667863 
L 197.289638 55.519806 
L 198.682009 54.906337 
L 199.146133 54.682616 
L 199.842319 54.600777 
L 200.538504 54.603548 
L 201.23469 54.792248 
L 201.930875 55.127608 
L 202.859123 55.488578 
L 203.78737 55.672315 
L 204.483556 55.634615 
L 205.411803 55.326537 
L 206.804174 54.749007 
L 208.196546 54.65855 
L 209.356855 55.016321 
L 210.749226 55.564331 
L 211.677474 55.695635 
L 212.605721 55.514904 
L 215.390463 54.524086 
L 216.086649 54.594512 
L 217.014896 54.948468 
L 218.407268 55.542709 
L 219.335515 55.65009 
L 220.263762 55.451339 
L 223.048505 54.439639 
L 223.280567 54.407935 
L 223.74469 54.645896 
L 224.905 55.104594 
L 226.297371 55.591734 
L 226.993556 55.599538 
L 227.921804 55.417437 
L 230.474484 54.533319 
L 230.938608 54.614314 
L 231.866856 54.808341 
L 234.187474 55.551747 
L 235.115722 55.502493 
L 236.043969 55.219784 
L 238.132526 54.549561 
L 238.828711 54.676269 
L 239.524897 54.811071 
L 242.077577 55.523062 
L 242.773763 55.503801 
L 243.702011 55.2503 
L 245.094382 54.717361 
L 246.022629 54.551474 
L 246.486753 54.607827 
L 246.950877 54.783828 
L 247.647062 54.973587 
L 248.807371 55.362887 
L 249.735619 55.489073 
L 250.895928 55.292698 
L 253.680671 54.583423 
L 254.144794 54.644776 
L 254.608918 54.813372 
L 255.537166 55.047514 
L 256.929537 55.372179 
L 257.857784 55.357382 
L 258.786032 55.141249 
L 260.874588 54.604047 
L 261.338712 54.582211 
L 261.802836 54.67339 
L 262.731083 54.919146 
L 264.355516 55.30187 
L 265.283764 55.330993 
L 266.444073 55.09205 
L 268.300568 54.632315 
L 270.157063 54.71073 
L 272.013558 55.260499 
L 272.941805 55.323615 
L 274.102114 55.114427 
L 276.190671 54.487159 
L 277.118919 54.500882 
L 278.279228 54.879404 
L 280.135723 55.326518 
L 281.06397 55.279514 
L 281.992218 55.023173 
L 282.456342 54.786147 
L 283.848713 54.417044 
L 284.312836 54.527606 
L 285.241084 54.658411 
L 286.169331 55.008466 
L 287.329641 55.260145 
L 288.257888 55.270739 
L 289.186136 55.093994 
L 291.506754 54.531453 
L 292.20294 54.516073 
L 295.91593 55.258415 
L 296.844177 55.078494 
L 299.164796 54.466313 
L 300.789229 54.658184 
L 303.341909 55.251789 
L 304.270157 55.114869 
L 307.286961 54.361889 
L 308.215208 54.503287 
L 311.232012 55.206616 
L 312.16026 55.023359 
L 314.71294 54.296124 
L 316.801497 54.740975 
L 317.961806 55.085713 
L 318.657992 55.166174 
L 319.58624 55.040283 
L 320.978611 54.57924 
L 322.13892 54.286175 
L 322.835106 54.292023 
L 323.763353 54.463485 
L 325.619848 55.014024 
L 326.780157 55.094049 
L 327.708405 54.902339 
L 329.796961 54.254825 
L 330.029023 54.219303 
L 330.493147 54.323321 
L 331.421395 54.43398 
L 333.974075 55.054268 
L 334.902322 55.040017 
L 336.062632 54.717879 
L 337.455003 54.317215 
L 338.615312 54.191655 
L 339.54356 54.421255 
L 341.864178 55.057088 
L 342.792426 54.996165 
L 343.952735 54.635748 
L 345.113044 54.329541 
L 346.041292 54.19114 
L 347.433663 54.289942 
L 348.36191 54.667719 
L 349.52222 54.989116 
L 350.218405 54.991231 
L 351.146653 54.768524 
L 353.23521 54.034881 
L 354.395519 54.109207 
L 355.555828 54.419178 
L 357.180261 54.93553 
L 357.876447 54.959808 
L 358.804694 54.768839 
L 361.357375 53.900195 
L 362.285622 54.019932 
L 364.838303 54.895292 
L 365.76655 54.871993 
L 366.694798 54.605836 
L 368.783354 53.940127 
L 371.103973 54.459288 
L 372.496344 54.814437 
L 373.424592 54.80111 
L 374.120777 54.597217 
L 376.673458 53.90031 
L 377.601705 54.087733 
L 377.833767 54.026868 
L 380.618509 54.708201 
L 381.314695 54.650417 
L 382.707066 54.239986 
L 384.331499 53.765689 
L 385.027685 53.811161 
L 385.955932 54.144446 
L 388.508613 54.614126 
L 389.43686 54.416837 
L 391.061293 53.828531 
L 391.525417 53.653042 
L 392.221602 53.61381 
L 393.381912 53.906493 
L 395.238407 54.489579 
L 396.166654 54.49449 
L 397.094902 54.242129 
L 398.487273 53.693377 
L 398.487273 53.693377 
" style="fill:none;stroke:#ff0000;stroke-linecap:square;stroke-width:1.5;"/>
   </g>
   <g id="line2d_17">
    <path clip-path="url(#p12e7256d96)" d="M 73.832727 293.973265 
L 74.760975 293.615946 
L 75.45716 293.585497 
L 76.385408 293.87281 
L 78.706026 294.881354 
L 79.17015 294.851588 
L 80.098398 294.579715 
L 82.651078 293.657048 
L 83.579325 293.838121 
L 84.739635 294.346044 
L 85.667882 294.829284 
L 86.59613 294.870938 
L 87.292315 294.665325 
L 90.077058 293.541637 
L 90.773243 293.628235 
L 91.469429 294.014857 
L 92.629738 294.664551 
L 93.557986 294.913119 
L 94.486233 294.836075 
L 94.950357 294.674159 
L 97.503037 293.50862 
L 97.967161 293.54693 
L 100.519841 294.698993 
L 101.448089 294.892555 
L 101.912213 294.846124 
L 103.536646 294.134769 
L 104.929017 293.689039 
L 105.625202 293.734484 
L 106.55345 294.115463 
L 107.713759 294.57187 
L 108.642007 294.738885 
L 109.570254 294.669017 
L 112.587058 293.692517 
L 113.283244 293.747738 
L 113.979429 293.949709 
L 115.835924 294.769443 
L 116.764172 294.815407 
L 117.460357 294.615943 
L 120.2451 293.635979 
L 121.173347 293.805315 
L 122.565718 294.536024 
L 123.261904 294.798497 
L 124.190151 294.803162 
L 124.654275 294.724114 
L 126.046646 294.200498 
L 127.206956 293.640568 
L 127.903141 293.520482 
L 128.599327 293.642556 
L 129.527574 294.088631 
L 130.687884 294.763418 
L 131.384069 294.963032 
L 132.312317 294.902977 
L 133.240564 294.432005 
L 134.864997 293.572324 
L 135.561183 293.453304 
L 136.257368 293.605699 
L 138.577987 294.946756 
L 139.274172 295.012992 
L 139.970358 294.863964 
L 140.898605 294.33072 
L 142.523039 293.488119 
L 143.219224 293.44137 
L 143.91541 293.686245 
L 144.843657 294.279221 
L 145.307781 294.617241 
L 145.771905 294.784245 
L 146.46809 295.011978 
L 147.164276 294.98051 
L 148.092523 294.651905 
L 148.556647 294.395084 
L 149.949018 293.563514 
L 150.645204 293.363911 
L 151.341389 293.467604 
L 152.037575 293.831542 
L 154.358194 295.090362 
L 155.054379 295.081657 
L 155.518503 294.993027 
L 155.982627 294.754865 
L 157.839121 293.433685 
L 158.303245 293.287478 
L 159.231493 293.415716 
L 159.927678 293.826537 
L 161.784173 295.168262 
L 162.248297 295.22679 
L 163.176544 295.023701 
L 163.87273 294.499981 
L 165.497163 293.264494 
L 165.961287 293.146828 
L 166.657472 293.253014 
L 167.353658 293.699292 
L 169.210153 295.200024 
L 169.906338 295.330902 
L 170.602524 295.125117 
L 170.834586 294.98165 
L 171.530771 294.295053 
L 172.923143 293.319225 
L 173.619328 293.196949 
L 174.315514 293.403188 
L 175.011699 293.894208 
L 176.636132 295.201488 
L 177.100256 295.347047 
L 177.796442 295.268227 
L 178.724689 294.713205 
L 180.349122 293.333133 
L 180.813246 293.12944 
L 181.509431 293.150041 
L 182.205617 293.488295 
L 184.294174 295.143408 
L 185.222421 295.29658 
L 185.918607 295.054148 
L 186.382731 294.702004 
L 187.078916 294.154259 
L 188.239225 293.337367 
L 188.935411 293.19183 
L 189.631597 293.37492 
L 190.327782 293.851839 
L 192.184277 295.247562 
L 192.880463 295.306948 
L 193.576648 294.994386 
L 194.272834 294.375164 
L 195.433143 293.502663 
L 196.361391 293.104977 
L 197.057576 293.291133 
L 197.753762 293.802838 
L 199.146133 295.077812 
L 200.07438 295.376717 
L 200.538504 295.308499 
L 201.23469 294.926636 
L 202.162937 294.06551 
L 203.091185 293.4003 
L 203.78737 293.163392 
L 204.251494 293.189641 
L 204.715618 293.358448 
L 205.411803 293.856967 
L 206.340051 294.725497 
L 207.036236 295.165244 
L 207.50036 295.303045 
L 208.196546 295.236804 
L 208.892731 294.846584 
L 210.981288 293.301513 
L 211.677474 293.160389 
L 212.373659 293.376281 
L 213.069845 293.880025 
L 214.462216 295.058474 
L 215.158401 295.336027 
L 215.622525 295.368965 
L 216.318711 295.07587 
L 217.014896 294.494433 
L 218.175206 293.466322 
L 218.871391 293.142401 
L 219.335515 293.10925 
L 219.799639 293.232454 
L 220.495824 293.673847 
L 222.352319 295.200853 
L 223.280567 295.488 
L 226.065309 293.318604 
L 226.761495 293.119753 
L 227.689742 293.391607 
L 228.385928 293.925034 
L 229.778299 295.109107 
L 230.242423 295.273011 
L 230.474484 295.322777 
L 231.866856 294.790072 
L 233.955412 293.349548 
L 234.651598 293.250807 
L 235.347783 293.463976 
L 236.043969 293.92699 
L 237.668402 295.109644 
L 238.132526 295.251087 
L 239.524897 294.782592 
L 241.845516 293.372153 
L 242.541701 293.327455 
L 243.237887 293.572234 
L 244.166134 294.251851 
L 245.326444 295.041784 
L 246.022629 295.221353 
L 246.486753 295.120459 
L 247.182938 294.73382 
L 249.503557 293.409223 
L 249.967681 293.394164 
L 250.663866 293.595462 
L 251.592114 294.152938 
L 252.752423 294.889843 
L 253.680671 295.108452 
L 254.144794 295.002488 
L 254.84098 294.641258 
L 256.929537 293.530087 
L 257.625722 293.485525 
L 258.321908 293.684342 
L 259.250155 294.19912 
L 260.410465 294.853151 
L 261.10665 295.018569 
L 261.338712 295.020289 
L 262.034898 294.808114 
L 262.731083 294.423006 
L 264.123454 293.689617 
L 265.051702 293.52842 
L 265.747887 293.67264 
L 266.676135 294.117436 
L 268.068506 294.859963 
L 268.764692 294.965204 
L 269.925001 294.785379 
L 272.24562 293.484184 
L 272.941805 293.418846 
L 273.637991 293.579712 
L 274.566238 294.152824 
L 275.726548 294.915381 
L 276.422733 295.113163 
L 277.118919 295.039361 
L 279.903661 293.490153 
L 280.599847 293.411971 
L 281.296032 293.593984 
L 281.992218 293.992394 
L 282.456342 294.392942 
L 283.616651 295.043571 
L 283.848713 295.092754 
L 284.312836 294.995311 
L 285.009022 294.839053 
L 285.705208 294.418795 
L 287.097579 293.651951 
L 287.793764 293.516689 
L 288.48995 293.584609 
L 289.418197 293.998407 
L 291.04263 294.858021 
L 291.970878 295.026884 
L 292.667063 294.821775 
L 293.595311 294.2996 
L 294.987682 293.572375 
L 295.683868 293.461243 
L 296.380053 293.603184 
L 297.308301 294.085435 
L 298.700672 294.899727 
L 299.396857 295.014124 
L 300.093043 294.925719 
L 300.789229 294.618873 
L 303.109847 293.434799 
L 303.806033 293.492682 
L 304.502218 293.780188 
L 307.054899 295.115859 
L 307.751085 295.016446 
L 308.44727 294.685315 
L 310.535827 293.414939 
L 311.232012 293.375512 
L 311.928198 293.61937 
L 312.624384 294.042608 
L 314.016755 294.95987 
L 314.71294 295.136606 
L 315.87325 294.807849 
L 316.569435 294.372322 
L 317.961806 293.520735 
L 318.657992 293.358304 
L 319.354178 293.483573 
L 320.282425 294.019244 
L 321.674796 294.949025 
L 322.370982 295.140064 
L 323.531291 294.85485 
L 326.083972 293.384 
L 326.780157 293.361109 
L 327.476343 293.605643 
L 328.868714 294.552106 
L 329.796961 295.063884 
L 330.029023 295.128386 
L 330.493147 295.040485 
L 331.189333 294.908214 
L 332.813766 294.006557 
L 333.742013 293.511427 
L 334.438199 293.391174 
L 334.902322 293.445792 
L 335.598508 293.757966 
L 337.687065 294.994089 
L 338.38325 295.10605 
L 338.847374 295.033623 
L 339.775622 294.515016 
L 340.471807 294.003775 
L 341.400055 293.514647 
L 342.09624 293.397342 
L 342.560364 293.440313 
L 343.256549 293.763135 
L 345.345106 294.977604 
L 346.041292 295.112505 
L 346.969539 294.92982 
L 347.433663 294.700098 
L 348.36191 293.943859 
L 349.290158 293.380237 
L 349.986343 293.242815 
L 350.450467 293.322956 
L 351.146653 293.681343 
L 353.23521 295.154457 
L 353.931395 295.241357 
L 355.091704 294.770573 
L 356.716138 293.576481 
L 357.412323 293.292099 
L 358.108509 293.312801 
L 358.804694 293.633131 
L 361.357375 295.265027 
L 362.05356 295.148618 
L 362.749746 294.744063 
L 363.910055 293.807006 
L 364.606241 293.431329 
L 365.302426 293.301042 
L 365.998612 293.478951 
L 366.926859 294.060871 
L 368.551292 295.116265 
L 369.015416 295.138294 
L 370.639849 294.514358 
L 371.568097 293.883255 
L 372.496344 293.475489 
L 373.19253 293.418862 
L 373.888715 293.649848 
L 375.281086 294.529889 
L 376.441396 295.113562 
L 377.137581 295.005352 
L 378.529953 294.332951 
L 379.922324 293.552954 
L 380.618509 293.412863 
L 381.314695 293.525016 
L 382.01088 293.873601 
L 384.099437 295.12462 
L 384.795623 295.098625 
L 385.259747 294.860871 
L 387.812427 293.449337 
L 388.508613 293.429795 
L 389.204798 293.676386 
L 389.668922 293.949625 
L 390.133046 294.337032 
L 391.293355 295.017697 
L 391.989541 295.190763 
L 392.685726 294.993624 
L 393.381912 294.554005 
L 394.774283 293.562269 
L 395.470469 293.313133 
L 396.166654 293.341312 
L 396.86284 293.665241 
L 398.487273 294.867988 
L 398.487273 294.867988 
" style="fill:none;stroke:#008000;stroke-linecap:square;stroke-width:1.5;"/>
   </g>
   <g id="patch_3">
    <path d="M 57.6 307.584 
L 57.6 41.472 
" style="fill:none;stroke:#000000;stroke-linecap:square;stroke-linejoin:miter;stroke-width:0.8;"/>
   </g>
   <g id="patch_4">
    <path d="M 414.72 307.584 
L 414.72 41.472 
" style="fill:none;stroke:#000000;stroke-linecap:square;stroke-linejoin:miter;stroke-width:0.8;"/>
   </g>
   <g id="patch_5">
    <path d="M 57.6 307.584 
L 414.72 307.584 
" style="fill:none;stroke:#000000;stroke-linecap:square;stroke-linejoin:miter;stroke-width:0.8;"/>
   </g>
   <g id="patch_6">
    <path d="M 57.6 41.472 
L 414.72 41.472 
" style="fill:none;stroke:#000000;stroke-linecap:square;stroke-linejoin:miter;stroke-width:0.8;"/>
   </g>
   <g id="legend_1">
    <g id="patch_7">
     <path d="M 351.0075 198.045187 
L 407.72 198.045187 
Q 409.72 198.045187 409.72 196.045187 
L 409.72 153.010812 
Q 409.72 151.010812 407.72 151.010812 
L 351.0075 151.010812 
Q 349.0075 151.010812 349.0075 153.010812 
L 349.0075 196.045187 
Q 349.0075 198.045187 351.0075 198.045187 
z
" style="fill:#ffffff;opacity:0.8;stroke:#cccccc;stroke-linejoin:miter;"/>
    </g>
    <g id="line2d_18">
     <path d="M 353.0075 159.10925 
L 373.0075 159.10925 
" style="fill:none;stroke:#1f77b4;stroke-linecap:square;stroke-width:1.5;"/>
    </g>
    <g id="line2d_19"/>
    <g id="text_15">
     <!-- 0-&gt;1 -->
     <defs>
      <path d="M 4.890625 31.390625 
L 31.203125 31.390625 
L 31.203125 23.390625 
L 4.890625 23.390625 
z
" id="DejaVuSans-45"/>
      <path d="M 10.59375 49.21875 
L 10.59375 58.109375 
L 73.1875 35.40625 
L 73.1875 27.296875 
L 10.59375 4.59375 
L 10.59375 13.484375 
L 60.890625 31.296875 
z
" id="DejaVuSans-62"/>
     </defs>
     <g transform="translate(381.0075 162.60925)scale(0.1 -0.1)">
      <use xlink:href="#DejaVuSans-48"/>
      <use x="63.623047" xlink:href="#DejaVuSans-45"/>
      <use x="99.707031" xlink:href="#DejaVuSans-62"/>
      <use x="183.496094" xlink:href="#DejaVuSans-49"/>
     </g>
    </g>
    <g id="line2d_20">
     <path d="M 353.0075 173.787375 
L 373.0075 173.787375 
" style="fill:none;stroke:#ff0000;stroke-linecap:square;stroke-width:1.5;"/>
    </g>
    <g id="line2d_21"/>
    <g id="text_16">
     <!-- 1-&gt;0 -->
     <g transform="translate(381.0075 177.287375)scale(0.1 -0.1)">
      <use xlink:href="#DejaVuSans-49"/>
      <use x="63.623047" xlink:href="#DejaVuSans-45"/>
      <use x="99.707031" xlink:href="#DejaVuSans-62"/>
      <use x="183.496094" xlink:href="#DejaVuSans-48"/>
     </g>
    </g>
    <g id="line2d_22">
     <path d="M 353.0075 188.4655 
L 373.0075 188.4655 
" style="fill:none;stroke:#008000;stroke-linecap:square;stroke-width:1.5;"/>
    </g>
    <g id="line2d_23"/>
    <g id="text_17">
     <!-- diff -->
     <defs>
      <path d="M 45.40625 46.390625 
L 45.40625 75.984375 
L 54.390625 75.984375 
L 54.390625 0 
L 45.40625 0 
L 45.40625 8.203125 
Q 42.578125 3.328125 38.25 0.953125 
Q 33.9375 -1.421875 27.875 -1.421875 
Q 17.96875 -1.421875 11.734375 6.484375 
Q 5.515625 14.40625 5.515625 27.296875 
Q 5.515625 40.1875 11.734375 48.09375 
Q 17.96875 56 27.875 56 
Q 33.9375 56 38.25 53.625 
Q 42.578125 51.265625 45.40625 46.390625 
z
M 14.796875 27.296875 
Q 14.796875 17.390625 18.875 11.75 
Q 22.953125 6.109375 30.078125 6.109375 
Q 37.203125 6.109375 41.296875 11.75 
Q 45.40625 17.390625 45.40625 27.296875 
Q 45.40625 37.203125 41.296875 42.84375 
Q 37.203125 48.484375 30.078125 48.484375 
Q 22.953125 48.484375 18.875 42.84375 
Q 14.796875 37.203125 14.796875 27.296875 
z
" id="DejaVuSans-100"/>
      <path d="M 9.421875 54.6875 
L 18.40625 54.6875 
L 18.40625 0 
L 9.421875 0 
z
M 9.421875 75.984375 
L 18.40625 75.984375 
L 18.40625 64.59375 
L 9.421875 64.59375 
z
" id="DejaVuSans-105"/>
      <path d="M 37.109375 75.984375 
L 37.109375 68.5 
L 28.515625 68.5 
Q 23.6875 68.5 21.796875 66.546875 
Q 19.921875 64.59375 19.921875 59.515625 
L 19.921875 54.6875 
L 34.71875 54.6875 
L 34.71875 47.703125 
L 19.921875 47.703125 
L 19.921875 0 
L 10.890625 0 
L 10.890625 47.703125 
L 2.296875 47.703125 
L 2.296875 54.6875 
L 10.890625 54.6875 
L 10.890625 58.5 
Q 10.890625 67.625 15.140625 71.796875 
Q 19.390625 75.984375 28.609375 75.984375 
z
" id="DejaVuSans-102"/>
     </defs>
     <g transform="translate(381.0075 191.9655)scale(0.1 -0.1)">
      <use xlink:href="#DejaVuSans-100"/>
      <use x="63.476562" xlink:href="#DejaVuSans-105"/>
      <use x="91.259766" xlink:href="#DejaVuSans-102"/>
      <use x="126.464844" xlink:href="#DejaVuSans-102"/>
     </g>
    </g>
   </g>
  </g>
 </g>
 <defs>
  <clipPath id="p12e7256d96">
   <rect height="266.112" width="357.12" x="57.6" y="41.472"/>
  </clipPath>
 </defs>
</svg>
