<?xml version="1.0" encoding="utf-8" standalone="no"?>
<!DOCTYPE svg PUBLIC "-//W3C//DTD SVG 1.1//EN"
  "http://www.w3.org/Graphics/SVG/1.1/DTD/svg11.dtd">
<!-- Created with matplotlib (https://matplotlib.org/) -->
<svg height="345.6pt" version="1.1" viewBox="0 0 460.8 345.6" width="460.8pt" xmlns="http://www.w3.org/2000/svg" xmlns:xlink="http://www.w3.org/1999/xlink">
 <defs>
  <style type="text/css">
*{stroke-linecap:butt;stroke-linejoin:round;}
  </style>
 </defs>
 <g id="figure_1">
  <g id="patch_1">
   <path d="M 0 345.6 
L 460.8 345.6 
L 460.8 0 
L 0 0 
z
" style="fill:#ffffff;"/>
  </g>
  <g id="axes_1">
   <g id="patch_2">
    <path d="M 57.6 307.584 
L 414.72 307.584 
L 414.72 41.472 
L 57.6 41.472 
z
" style="fill:#ffffff;"/>
   </g>
   <g id="matplotlib.axis_1">
    <g id="xtick_1">
     <g id="line2d_1">
      <defs>
       <path d="M 0 0 
L 0 3.5 
" id="m89e4270aa2" style="stroke:#000000;stroke-width:0.8;"/>
      </defs>
      <g>
       <use style="stroke:#000000;stroke-width:0.8;" x="73.832727" xlink:href="#m89e4270aa2" y="307.584"/>
      </g>
     </g>
     <g id="text_1">
      <!-- 0 -->
      <defs>
       <path d="M 31.78125 66.40625 
Q 24.171875 66.40625 20.328125 58.90625 
Q 16.5 51.421875 16.5 36.375 
Q 16.5 21.390625 20.328125 13.890625 
Q 24.171875 6.390625 31.78125 6.390625 
Q 39.453125 6.390625 43.28125 13.890625 
Q 47.125 21.390625 47.125 36.375 
Q 47.125 51.421875 43.28125 58.90625 
Q 39.453125 66.40625 31.78125 66.40625 
z
M 31.78125 74.21875 
Q 44.046875 74.21875 50.515625 64.515625 
Q 56.984375 54.828125 56.984375 36.375 
Q 56.984375 17.96875 50.515625 8.265625 
Q 44.046875 -1.421875 31.78125 -1.421875 
Q 19.53125 -1.421875 13.0625 8.265625 
Q 6.59375 17.96875 6.59375 36.375 
Q 6.59375 54.828125 13.0625 64.515625 
Q 19.53125 74.21875 31.78125 74.21875 
z
" id="DejaVuSans-48"/>
      </defs>
      <g transform="translate(70.651477 322.182437)scale(0.1 -0.1)">
       <use xlink:href="#DejaVuSans-48"/>
      </g>
     </g>
    </g>
    <g id="xtick_2">
     <g id="line2d_2">
      <g>
       <use style="stroke:#000000;stroke-width:0.8;" x="120.2451" xlink:href="#m89e4270aa2" y="307.584"/>
      </g>
     </g>
     <g id="text_2">
      <!-- 200 -->
      <defs>
       <path d="M 19.1875 8.296875 
L 53.609375 8.296875 
L 53.609375 0 
L 7.328125 0 
L 7.328125 8.296875 
Q 12.9375 14.109375 22.625 23.890625 
Q 32.328125 33.6875 34.8125 36.53125 
Q 39.546875 41.84375 41.421875 45.53125 
Q 43.3125 49.21875 43.3125 52.78125 
Q 43.3125 58.59375 39.234375 62.25 
Q 35.15625 65.921875 28.609375 65.921875 
Q 23.96875 65.921875 18.8125 64.3125 
Q 13.671875 62.703125 7.8125 59.421875 
L 7.8125 69.390625 
Q 13.765625 71.78125 18.9375 73 
Q 24.125 74.21875 28.421875 74.21875 
Q 39.75 74.21875 46.484375 68.546875 
Q 53.21875 62.890625 53.21875 53.421875 
Q 53.21875 48.921875 51.53125 44.890625 
Q 49.859375 40.875 45.40625 35.40625 
Q 44.1875 33.984375 37.640625 27.21875 
Q 31.109375 20.453125 19.1875 8.296875 
z
" id="DejaVuSans-50"/>
      </defs>
      <g transform="translate(110.70135 322.182437)scale(0.1 -0.1)">
       <use xlink:href="#DejaVuSans-50"/>
       <use x="63.623047" xlink:href="#DejaVuSans-48"/>
       <use x="127.246094" xlink:href="#DejaVuSans-48"/>
      </g>
     </g>
    </g>
    <g id="xtick_3">
     <g id="line2d_3">
      <g>
       <use style="stroke:#000000;stroke-width:0.8;" x="166.657472" xlink:href="#m89e4270aa2" y="307.584"/>
      </g>
     </g>
     <g id="text_3">
      <!-- 400 -->
      <defs>
       <path d="M 37.796875 64.3125 
L 12.890625 25.390625 
L 37.796875 25.390625 
z
M 35.203125 72.90625 
L 47.609375 72.90625 
L 47.609375 25.390625 
L 58.015625 25.390625 
L 58.015625 17.1875 
L 47.609375 17.1875 
L 47.609375 0 
L 37.796875 0 
L 37.796875 17.1875 
L 4.890625 17.1875 
L 4.890625 26.703125 
z
" id="DejaVuSans-52"/>
      </defs>
      <g transform="translate(157.113722 322.182437)scale(0.1 -0.1)">
       <use xlink:href="#DejaVuSans-52"/>
       <use x="63.623047" xlink:href="#DejaVuSans-48"/>
       <use x="127.246094" xlink:href="#DejaVuSans-48"/>
      </g>
     </g>
    </g>
    <g id="xtick_4">
     <g id="line2d_4">
      <g>
       <use style="stroke:#000000;stroke-width:0.8;" x="213.069845" xlink:href="#m89e4270aa2" y="307.584"/>
      </g>
     </g>
     <g id="text_4">
      <!-- 600 -->
      <defs>
       <path d="M 33.015625 40.375 
Q 26.375 40.375 22.484375 35.828125 
Q 18.609375 31.296875 18.609375 23.390625 
Q 18.609375 15.53125 22.484375 10.953125 
Q 26.375 6.390625 33.015625 6.390625 
Q 39.65625 6.390625 43.53125 10.953125 
Q 47.40625 15.53125 47.40625 23.390625 
Q 47.40625 31.296875 43.53125 35.828125 
Q 39.65625 40.375 33.015625 40.375 
z
M 52.59375 71.296875 
L 52.59375 62.3125 
Q 48.875 64.0625 45.09375 64.984375 
Q 41.3125 65.921875 37.59375 65.921875 
Q 27.828125 65.921875 22.671875 59.328125 
Q 17.53125 52.734375 16.796875 39.40625 
Q 19.671875 43.65625 24.015625 45.921875 
Q 28.375 48.1875 33.59375 48.1875 
Q 44.578125 48.1875 50.953125 41.515625 
Q 57.328125 34.859375 57.328125 23.390625 
Q 57.328125 12.15625 50.6875 5.359375 
Q 44.046875 -1.421875 33.015625 -1.421875 
Q 20.359375 -1.421875 13.671875 8.265625 
Q 6.984375 17.96875 6.984375 36.375 
Q 6.984375 53.65625 15.1875 63.9375 
Q 23.390625 74.21875 37.203125 74.21875 
Q 40.921875 74.21875 44.703125 73.484375 
Q 48.484375 72.75 52.59375 71.296875 
z
" id="DejaVuSans-54"/>
      </defs>
      <g transform="translate(203.526095 322.182437)scale(0.1 -0.1)">
       <use xlink:href="#DejaVuSans-54"/>
       <use x="63.623047" xlink:href="#DejaVuSans-48"/>
       <use x="127.246094" xlink:href="#DejaVuSans-48"/>
      </g>
     </g>
    </g>
    <g id="xtick_5">
     <g id="line2d_5">
      <g>
       <use style="stroke:#000000;stroke-width:0.8;" x="259.482217" xlink:href="#m89e4270aa2" y="307.584"/>
      </g>
     </g>
     <g id="text_5">
      <!-- 800 -->
      <defs>
       <path d="M 31.78125 34.625 
Q 24.75 34.625 20.71875 30.859375 
Q 16.703125 27.09375 16.703125 20.515625 
Q 16.703125 13.921875 20.71875 10.15625 
Q 24.75 6.390625 31.78125 6.390625 
Q 38.8125 6.390625 42.859375 10.171875 
Q 46.921875 13.96875 46.921875 20.515625 
Q 46.921875 27.09375 42.890625 30.859375 
Q 38.875 34.625 31.78125 34.625 
z
M 21.921875 38.8125 
Q 15.578125 40.375 12.03125 44.71875 
Q 8.5 49.078125 8.5 55.328125 
Q 8.5 64.0625 14.71875 69.140625 
Q 20.953125 74.21875 31.78125 74.21875 
Q 42.671875 74.21875 48.875 69.140625 
Q 55.078125 64.0625 55.078125 55.328125 
Q 55.078125 49.078125 51.53125 44.71875 
Q 48 40.375 41.703125 38.8125 
Q 48.828125 37.15625 52.796875 32.3125 
Q 56.78125 27.484375 56.78125 20.515625 
Q 56.78125 9.90625 50.3125 4.234375 
Q 43.84375 -1.421875 31.78125 -1.421875 
Q 19.734375 -1.421875 13.25 4.234375 
Q 6.78125 9.90625 6.78125 20.515625 
Q 6.78125 27.484375 10.78125 32.3125 
Q 14.796875 37.15625 21.921875 38.8125 
z
M 18.3125 54.390625 
Q 18.3125 48.734375 21.84375 45.5625 
Q 25.390625 42.390625 31.78125 42.390625 
Q 38.140625 42.390625 41.71875 45.5625 
Q 45.3125 48.734375 45.3125 54.390625 
Q 45.3125 60.0625 41.71875 63.234375 
Q 38.140625 66.40625 31.78125 66.40625 
Q 25.390625 66.40625 21.84375 63.234375 
Q 18.3125 60.0625 18.3125 54.390625 
z
" id="DejaVuSans-56"/>
      </defs>
      <g transform="translate(249.938467 322.182437)scale(0.1 -0.1)">
       <use xlink:href="#DejaVuSans-56"/>
       <use x="63.623047" xlink:href="#DejaVuSans-48"/>
       <use x="127.246094" xlink:href="#DejaVuSans-48"/>
      </g>
     </g>
    </g>
    <g id="xtick_6">
     <g id="line2d_6">
      <g>
       <use style="stroke:#000000;stroke-width:0.8;" x="305.89459" xlink:href="#m89e4270aa2" y="307.584"/>
      </g>
     </g>
     <g id="text_6">
      <!-- 1000 -->
      <defs>
       <path d="M 12.40625 8.296875 
L 28.515625 8.296875 
L 28.515625 63.921875 
L 10.984375 60.40625 
L 10.984375 69.390625 
L 28.421875 72.90625 
L 38.28125 72.90625 
L 38.28125 8.296875 
L 54.390625 8.296875 
L 54.390625 0 
L 12.40625 0 
z
" id="DejaVuSans-49"/>
      </defs>
      <g transform="translate(293.16959 322.182437)scale(0.1 -0.1)">
       <use xlink:href="#DejaVuSans-49"/>
       <use x="63.623047" xlink:href="#DejaVuSans-48"/>
       <use x="127.246094" xlink:href="#DejaVuSans-48"/>
       <use x="190.869141" xlink:href="#DejaVuSans-48"/>
      </g>
     </g>
    </g>
    <g id="xtick_7">
     <g id="line2d_7">
      <g>
       <use style="stroke:#000000;stroke-width:0.8;" x="352.306962" xlink:href="#m89e4270aa2" y="307.584"/>
      </g>
     </g>
     <g id="text_7">
      <!-- 1200 -->
      <g transform="translate(339.581962 322.182437)scale(0.1 -0.1)">
       <use xlink:href="#DejaVuSans-49"/>
       <use x="63.623047" xlink:href="#DejaVuSans-50"/>
       <use x="127.246094" xlink:href="#DejaVuSans-48"/>
       <use x="190.869141" xlink:href="#DejaVuSans-48"/>
      </g>
     </g>
    </g>
    <g id="xtick_8">
     <g id="line2d_8">
      <g>
       <use style="stroke:#000000;stroke-width:0.8;" x="398.719335" xlink:href="#m89e4270aa2" y="307.584"/>
      </g>
     </g>
     <g id="text_8">
      <!-- 1400 -->
      <g transform="translate(385.994335 322.182437)scale(0.1 -0.1)">
       <use xlink:href="#DejaVuSans-49"/>
       <use x="63.623047" xlink:href="#DejaVuSans-52"/>
       <use x="127.246094" xlink:href="#DejaVuSans-48"/>
       <use x="190.869141" xlink:href="#DejaVuSans-48"/>
      </g>
     </g>
    </g>
   </g>
   <g id="matplotlib.axis_2">
    <g id="ytick_1">
     <g id="line2d_9">
      <defs>
       <path d="M 0 0 
L -3.5 0 
" id="m3daa5af6b5" style="stroke:#000000;stroke-width:0.8;"/>
      </defs>
      <g>
       <use style="stroke:#000000;stroke-width:0.8;" x="57.6" xlink:href="#m3daa5af6b5" y="283.84758"/>
      </g>
     </g>
     <g id="text_9">
      <!-- 0.0 -->
      <defs>
       <path d="M 10.6875 12.40625 
L 21 12.40625 
L 21 0 
L 10.6875 0 
z
" id="DejaVuSans-46"/>
      </defs>
      <g transform="translate(34.696875 287.646799)scale(0.1 -0.1)">
       <use xlink:href="#DejaVuSans-48"/>
       <use x="63.623047" xlink:href="#DejaVuSans-46"/>
       <use x="95.410156" xlink:href="#DejaVuSans-48"/>
      </g>
     </g>
    </g>
    <g id="ytick_2">
     <g id="line2d_10">
      <g>
       <use style="stroke:#000000;stroke-width:0.8;" x="57.6" xlink:href="#m3daa5af6b5" y="243.070452"/>
      </g>
     </g>
     <g id="text_10">
      <!-- 0.1 -->
      <g transform="translate(34.696875 246.869671)scale(0.1 -0.1)">
       <use xlink:href="#DejaVuSans-48"/>
       <use x="63.623047" xlink:href="#DejaVuSans-46"/>
       <use x="95.410156" xlink:href="#DejaVuSans-49"/>
      </g>
     </g>
    </g>
    <g id="ytick_3">
     <g id="line2d_11">
      <g>
       <use style="stroke:#000000;stroke-width:0.8;" x="57.6" xlink:href="#m3daa5af6b5" y="202.293324"/>
      </g>
     </g>
     <g id="text_11">
      <!-- 0.2 -->
      <g transform="translate(34.696875 206.092542)scale(0.1 -0.1)">
       <use xlink:href="#DejaVuSans-48"/>
       <use x="63.623047" xlink:href="#DejaVuSans-46"/>
       <use x="95.410156" xlink:href="#DejaVuSans-50"/>
      </g>
     </g>
    </g>
    <g id="ytick_4">
     <g id="line2d_12">
      <g>
       <use style="stroke:#000000;stroke-width:0.8;" x="57.6" xlink:href="#m3daa5af6b5" y="161.516195"/>
      </g>
     </g>
     <g id="text_12">
      <!-- 0.3 -->
      <defs>
       <path d="M 40.578125 39.3125 
Q 47.65625 37.796875 51.625 33 
Q 55.609375 28.21875 55.609375 21.1875 
Q 55.609375 10.40625 48.1875 4.484375 
Q 40.765625 -1.421875 27.09375 -1.421875 
Q 22.515625 -1.421875 17.65625 -0.515625 
Q 12.796875 0.390625 7.625 2.203125 
L 7.625 11.71875 
Q 11.71875 9.328125 16.59375 8.109375 
Q 21.484375 6.890625 26.8125 6.890625 
Q 36.078125 6.890625 40.9375 10.546875 
Q 45.796875 14.203125 45.796875 21.1875 
Q 45.796875 27.640625 41.28125 31.265625 
Q 36.765625 34.90625 28.71875 34.90625 
L 20.21875 34.90625 
L 20.21875 43.015625 
L 29.109375 43.015625 
Q 36.375 43.015625 40.234375 45.921875 
Q 44.09375 48.828125 44.09375 54.296875 
Q 44.09375 59.90625 40.109375 62.90625 
Q 36.140625 65.921875 28.71875 65.921875 
Q 24.65625 65.921875 20.015625 65.03125 
Q 15.375 64.15625 9.8125 62.3125 
L 9.8125 71.09375 
Q 15.4375 72.65625 20.34375 73.4375 
Q 25.25 74.21875 29.59375 74.21875 
Q 40.828125 74.21875 47.359375 69.109375 
Q 53.90625 64.015625 53.90625 55.328125 
Q 53.90625 49.265625 50.4375 45.09375 
Q 46.96875 40.921875 40.578125 39.3125 
z
" id="DejaVuSans-51"/>
      </defs>
      <g transform="translate(34.696875 165.315414)scale(0.1 -0.1)">
       <use xlink:href="#DejaVuSans-48"/>
       <use x="63.623047" xlink:href="#DejaVuSans-46"/>
       <use x="95.410156" xlink:href="#DejaVuSans-51"/>
      </g>
     </g>
    </g>
    <g id="ytick_5">
     <g id="line2d_13">
      <g>
       <use style="stroke:#000000;stroke-width:0.8;" x="57.6" xlink:href="#m3daa5af6b5" y="120.739067"/>
      </g>
     </g>
     <g id="text_13">
      <!-- 0.4 -->
      <g transform="translate(34.696875 124.538286)scale(0.1 -0.1)">
       <use xlink:href="#DejaVuSans-48"/>
       <use x="63.623047" xlink:href="#DejaVuSans-46"/>
       <use x="95.410156" xlink:href="#DejaVuSans-52"/>
      </g>
     </g>
    </g>
    <g id="ytick_6">
     <g id="line2d_14">
      <g>
       <use style="stroke:#000000;stroke-width:0.8;" x="57.6" xlink:href="#m3daa5af6b5" y="79.961939"/>
      </g>
     </g>
     <g id="text_14">
      <!-- 0.5 -->
      <defs>
       <path d="M 10.796875 72.90625 
L 49.515625 72.90625 
L 49.515625 64.59375 
L 19.828125 64.59375 
L 19.828125 46.734375 
Q 21.96875 47.46875 24.109375 47.828125 
Q 26.265625 48.1875 28.421875 48.1875 
Q 40.625 48.1875 47.75 41.5 
Q 54.890625 34.8125 54.890625 23.390625 
Q 54.890625 11.625 47.5625 5.09375 
Q 40.234375 -1.421875 26.90625 -1.421875 
Q 22.3125 -1.421875 17.546875 -0.640625 
Q 12.796875 0.140625 7.71875 1.703125 
L 7.71875 11.625 
Q 12.109375 9.234375 16.796875 8.0625 
Q 21.484375 6.890625 26.703125 6.890625 
Q 35.15625 6.890625 40.078125 11.328125 
Q 45.015625 15.765625 45.015625 23.390625 
Q 45.015625 31 40.078125 35.4375 
Q 35.15625 39.890625 26.703125 39.890625 
Q 22.75 39.890625 18.8125 39.015625 
Q 14.890625 38.140625 10.796875 36.28125 
z
" id="DejaVuSans-53"/>
      </defs>
      <g transform="translate(34.696875 83.761158)scale(0.1 -0.1)">
       <use xlink:href="#DejaVuSans-48"/>
       <use x="63.623047" xlink:href="#DejaVuSans-46"/>
       <use x="95.410156" xlink:href="#DejaVuSans-53"/>
      </g>
     </g>
    </g>
   </g>
   <g id="line2d_15">
    <path clip-path="url(#pddcc790372)" d="M 73.832727 64.023916 
L 74.528913 61.843839 
L 75.689222 58.102596 
L 76.153346 57.189845 
L 76.61747 56.833074 
L 76.849531 56.870532 
L 77.081593 57.062184 
L 77.545717 57.890228 
L 78.241903 59.923031 
L 79.634274 64.380157 
L 80.098398 65.115945 
L 80.330459 65.288272 
L 80.562521 65.29615 
L 80.794583 65.163924 
L 81.258707 64.503501 
L 81.722831 63.299918 
L 83.811387 56.945886 
L 84.275511 56.561928 
L 84.507573 56.607205 
L 84.739635 56.787613 
L 85.203759 57.610875 
L 85.899944 59.698805 
L 87.292315 64.385658 
L 87.756439 65.254148 
L 88.220563 65.397358 
L 88.452625 65.245473 
L 88.916748 64.522921 
L 89.612934 62.572324 
L 91.237367 57.376961 
L 91.701491 56.668956 
L 91.933553 56.544705 
L 92.165614 56.585064 
L 92.397676 56.750023 
L 92.8618 57.546635 
L 93.557986 59.625037 
L 94.950357 64.314852 
L 95.41448 65.236868 
L 95.878604 65.398117 
L 96.110666 65.264763 
L 96.57479 64.5542 
L 97.270975 62.612279 
L 98.895408 57.377966 
L 99.359532 56.671521 
L 99.591594 56.541681 
L 99.823656 56.571786 
L 100.055718 56.74731 
L 100.519841 57.568724 
L 101.216027 59.67857 
L 102.608398 64.356892 
L 103.072522 65.218728 
L 103.536646 65.315515 
L 103.768708 65.166511 
L 104.232831 64.386593 
L 104.929017 62.406834 
L 106.321388 57.735107 
L 106.785512 56.783278 
L 107.249635 56.439599 
L 107.481697 56.486702 
L 107.713759 56.692426 
L 108.177883 57.56184 
L 108.874068 59.669054 
L 110.26644 64.297449 
L 110.730563 65.181094 
L 111.194687 65.326986 
L 111.658811 64.817231 
L 112.122935 63.781452 
L 112.81912 61.537297 
L 113.979429 57.637916 
L 114.443553 56.679763 
L 114.907677 56.312889 
L 115.139739 56.373744 
L 115.371801 56.571032 
L 115.835924 57.437859 
L 116.53211 59.591065 
L 117.924481 64.278788 
L 118.388605 65.174118 
L 118.852729 65.268051 
L 119.316852 64.71307 
L 119.780976 63.714458 
L 120.477162 61.504232 
L 121.637471 57.624947 
L 122.101595 56.677595 
L 122.333657 56.415525 
L 122.565718 56.326521 
L 122.79778 56.371198 
L 123.029842 56.590901 
L 123.493966 57.449406 
L 124.190151 59.546329 
L 125.582523 64.128115 
L 126.046646 65.002603 
L 126.278708 65.177007 
L 126.51077 65.154912 
L 126.742832 65.009633 
L 127.206956 64.275574 
L 127.903141 62.274148 
L 129.295512 57.498441 
L 129.759636 56.527916 
L 129.991698 56.261859 
L 130.22376 56.168 
L 130.455822 56.230969 
L 130.919945 56.824092 
L 131.384069 57.966957 
L 132.312317 61.190304 
L 133.240564 64.257491 
L 133.704688 65.111177 
L 133.93675 65.21299 
L 134.400873 65.052824 
L 134.864997 64.346811 
L 135.329121 63.107824 
L 137.417678 56.510506 
L 137.881801 56.086161 
L 138.113863 56.115187 
L 138.345925 56.309124 
L 138.810049 57.170938 
L 139.274172 58.4944 
L 141.130667 64.611304 
L 141.594791 65.26159 
L 141.826853 65.25837 
L 142.290977 64.788438 
L 142.7551 63.770455 
L 143.451286 61.537936 
L 144.611595 57.535445 
L 145.075719 56.526201 
L 145.539843 56.107783 
L 145.771905 56.145584 
L 146.003966 56.345625 
L 146.46809 57.217271 
L 147.164276 59.358022 
L 148.556647 64.062605 
L 149.020771 64.963223 
L 149.252833 65.180258 
L 149.484894 65.162336 
L 149.949018 64.701872 
L 150.413142 63.715143 
L 151.109327 61.470242 
L 152.269637 57.537422 
L 152.73376 56.577033 
L 153.197884 56.224979 
L 153.429946 56.276471 
L 153.662008 56.485585 
L 154.126132 57.377743 
L 154.822317 59.514661 
L 156.214688 64.132667 
L 156.678812 64.995034 
L 156.910874 65.238311 
L 157.142936 65.266297 
L 157.60706 64.847947 
L 158.071183 63.842246 
L 158.767369 61.537084 
L 159.927678 57.552747 
L 160.391802 56.584329 
L 160.855926 56.234169 
L 161.087988 56.289111 
L 161.320049 56.505637 
L 161.784173 57.416325 
L 162.480359 59.613656 
L 163.87273 64.382781 
L 164.336854 65.252561 
L 164.800977 65.373502 
L 165.265101 64.888429 
L 165.729225 63.85163 
L 166.42541 61.56525 
L 167.58572 57.616449 
L 168.049843 56.642809 
L 168.513967 56.258813 
L 168.746029 56.306729 
L 169.210153 56.911465 
L 169.674276 58.066369 
L 170.602524 61.28226 
L 171.530771 64.233223 
L 171.994895 65.100964 
L 172.459019 65.259401 
L 172.923143 64.823209 
L 173.387266 63.773884 
L 174.083452 61.498435 
L 175.243761 57.505447 
L 175.707885 56.555779 
L 175.939947 56.272916 
L 176.172009 56.184911 
L 176.40407 56.242942 
L 176.868194 56.873955 
L 177.332318 58.051146 
L 179.652937 65.118017 
L 179.884998 65.307715 
L 180.11706 65.319454 
L 180.349122 65.207866 
L 180.813246 64.458516 
L 181.27737 63.168225 
L 183.133864 57.009588 
L 183.597988 56.325766 
L 183.83005 56.230624 
L 184.062112 56.28121 
L 184.294174 56.506445 
L 184.758297 57.428208 
L 185.454483 59.600031 
L 186.846854 64.391008 
L 187.310978 65.221677 
L 187.54304 65.362142 
L 188.007164 65.168835 
L 188.471287 64.40981 
L 188.935411 63.101143 
L 190.791906 56.954283 
L 191.25603 56.287371 
L 191.488091 56.182609 
L 191.720153 56.254467 
L 191.952215 56.470289 
L 192.416339 57.383795 
L 193.112525 59.603054 
L 194.504896 64.440544 
L 194.969019 65.269734 
L 195.201081 65.387489 
L 195.433143 65.368785 
L 195.665205 65.208121 
L 196.129329 64.420011 
L 196.593452 63.081314 
L 198.449947 56.829816 
L 198.914071 56.155977 
L 199.146133 56.060411 
L 199.378195 56.144694 
L 199.610257 56.395984 
L 200.07438 57.363332 
L 200.770566 59.633802 
L 202.162937 64.515556 
L 202.627061 65.367934 
L 202.859123 65.523613 
L 203.323246 65.319585 
L 203.555308 65.098081 
L 204.019432 64.039322 
L 204.715618 61.653508 
L 205.875927 57.518431 
L 206.340051 56.514885 
L 206.804174 56.116339 
L 207.036236 56.161157 
L 207.268298 56.382354 
L 207.732422 57.296199 
L 208.428607 59.547949 
L 209.820979 64.546598 
L 210.285102 65.375467 
L 210.517164 65.491942 
L 210.981288 65.24363 
L 211.445412 64.48626 
L 212.141597 62.339816 
L 213.533968 57.372455 
L 213.998092 56.377992 
L 214.462216 55.994024 
L 214.694278 56.047035 
L 214.92634 56.272866 
L 215.390463 57.202137 
L 216.086649 59.440831 
L 217.47902 64.35023 
L 217.943144 65.231885 
L 218.175206 65.374547 
L 218.407268 65.377164 
L 218.871391 64.990535 
L 219.335515 63.906007 
L 220.031701 61.521332 
L 221.19201 57.411102 
L 221.656134 56.378921 
L 222.120257 55.967313 
L 222.352319 56.007746 
L 222.584381 56.210105 
L 223.048505 57.113857 
L 223.74469 59.314155 
L 225.137062 64.213435 
L 225.601185 65.129951 
L 225.833247 65.279109 
L 226.065309 65.292831 
L 226.297371 65.160739 
L 226.761495 64.457828 
L 227.225618 63.235814 
L 229.314175 56.468942 
L 229.778299 56.073326 
L 230.010361 56.115996 
L 230.242423 56.316411 
L 230.706546 57.194684 
L 231.402732 59.389225 
L 232.795103 64.352659 
L 233.259227 65.236666 
L 233.491289 65.454062 
L 233.955412 65.43547 
L 234.419536 64.644961 
L 234.88366 63.293801 
L 236.972217 56.440701 
L 237.43634 56.008093 
L 237.668402 56.04036 
L 237.900464 56.242733 
L 238.364588 57.120783 
L 239.060773 59.393809 
L 240.453144 64.299956 
L 240.917268 65.254387 
L 241.14933 65.447433 
L 241.381392 65.484927 
L 241.613454 65.331241 
L 242.077577 64.571181 
L 243.237887 60.560324 
L 244.166134 57.308884 
L 244.630258 56.291729 
L 245.094382 55.913611 
L 245.326444 55.967566 
L 245.558505 56.186636 
L 246.022629 57.133713 
L 246.718815 59.380356 
L 248.111186 64.278409 
L 248.57531 65.157533 
L 248.807371 65.326421 
L 249.039433 65.301676 
L 249.503557 64.880052 
L 249.967681 63.749957 
L 250.663866 61.304394 
L 251.824176 57.10204 
L 252.288299 56.066715 
L 252.752423 55.654064 
L 252.984485 55.704974 
L 253.216547 55.928473 
L 253.680671 56.854645 
L 254.376856 59.174716 
L 255.769227 64.16955 
L 256.233351 65.093688 
L 256.465413 65.288329 
L 256.929537 65.142244 
L 257.39366 64.306006 
L 257.857784 62.922312 
L 259.714279 56.287522 
L 260.178403 55.556049 
L 260.410465 55.435109 
L 260.642526 55.478065 
L 261.10665 56.090499 
L 261.570774 57.341323 
L 262.499021 60.849715 
L 263.427269 64.17957 
L 263.891393 65.157615 
L 264.123454 65.371766 
L 264.355516 65.407121 
L 264.587578 65.24572 
L 265.051702 64.451477 
L 265.515826 62.986568 
L 267.37232 56.219106 
L 267.836444 55.450875 
L 268.068506 55.314393 
L 268.300568 55.37529 
L 268.53263 55.602476 
L 268.996754 56.5859 
L 269.692939 58.986919 
L 271.08531 64.286659 
L 271.549434 65.360689 
L 271.781496 65.515249 
L 272.013558 65.474423 
L 272.477681 65.052908 
L 272.941805 63.913375 
L 273.637991 61.31167 
L 274.7983 56.813513 
L 275.262424 55.690764 
L 275.726548 55.228212 
L 275.958609 55.277306 
L 276.190671 55.499686 
L 276.654795 56.481903 
L 277.118919 58.088691 
L 278.743352 64.302718 
L 279.207475 65.275094 
L 279.439537 65.484172 
L 279.903661 65.381553 
L 280.367785 64.529233 
L 280.831909 63.106215 
L 282.920465 55.695793 
L 283.384589 55.23364 
L 283.616651 55.271461 
L 283.848713 55.515016 
L 284.312836 56.512129 
L 285.009022 58.985682 
L 286.401393 64.346467 
L 286.865517 65.353142 
L 287.097579 65.487915 
L 287.329641 65.431299 
L 287.793764 64.952336 
L 288.257888 63.873858 
L 288.954074 61.334857 
L 290.114383 56.785602 
L 290.578507 55.632125 
L 291.04263 55.126673 
L 291.274692 55.154231 
L 291.506754 55.366751 
L 291.970878 56.319034 
L 292.667063 58.713605 
L 294.059435 64.048197 
L 294.523558 65.123926 
L 294.75562 65.327894 
L 294.987682 65.369254 
L 295.451806 65.015936 
L 295.91593 63.907393 
L 296.612115 61.312025 
L 297.772424 56.64675 
L 298.236548 55.457271 
L 298.700672 54.932304 
L 298.932734 54.957888 
L 299.164796 55.166523 
L 299.628919 56.13715 
L 300.325105 58.604854 
L 301.717476 64.049223 
L 302.1816 65.126874 
L 302.645724 65.332242 
L 302.877785 65.200625 
L 303.109847 64.905188 
L 303.573971 63.780067 
L 304.270157 61.154561 
L 305.430466 56.555722 
L 305.89459 55.367479 
L 306.358713 54.844962 
L 306.590775 54.868002 
L 306.822837 55.070805 
L 307.286961 56.04169 
L 307.751085 57.553964 
L 309.607579 64.468728 
L 309.839641 64.983401 
L 310.071703 65.225013 
L 310.535827 65.251233 
L 310.999951 64.467891 
L 311.464074 63.094596 
L 313.552631 55.40969 
L 314.016755 54.885515 
L 314.248817 54.879967 
L 314.480879 55.072846 
L 314.945002 56.010734 
L 315.409126 57.521053 
L 317.265621 64.540752 
L 317.497683 65.012827 
L 317.961806 65.332456 
L 318.42593 64.915832 
L 318.890054 63.845247 
L 319.818301 60.155259 
L 320.746549 56.48319 
L 321.210673 55.272028 
L 321.674796 54.719631 
L 321.906858 54.718854 
L 322.13892 54.904609 
L 322.603044 55.823004 
L 323.067167 57.317486 
L 324.923662 64.195042 
L 325.387786 64.954839 
L 325.619848 65.076726 
L 325.85191 64.961444 
L 326.316034 64.248438 
L 326.780157 62.840847 
L 327.940467 58.112933 
L 328.636652 55.729755 
L 329.100776 54.825673 
L 329.332838 54.622278 
L 329.5649 54.623474 
L 329.796961 54.800756 
L 330.261085 55.708543 
L 330.957271 58.121186 
L 332.349642 63.646162 
L 332.813766 64.816555 
L 333.045828 65.117383 
L 333.277889 65.195908 
L 333.742013 64.860809 
L 334.206137 63.763616 
L 334.902322 61.147402 
L 336.062632 56.40597 
L 336.526755 55.155854 
L 336.990879 54.568976 
L 337.222941 54.537145 
L 337.455003 54.709318 
L 337.919127 55.625808 
L 338.615312 58.094079 
L 340.007683 63.682877 
L 340.471807 64.801031 
L 340.703869 65.116991 
L 340.935931 65.221322 
L 341.167993 65.13914 
L 341.400055 64.864923 
L 342.09624 62.871449 
L 343.024488 58.969903 
L 343.720673 56.221141 
L 344.184797 54.968091 
L 344.648921 54.368426 
L 344.880983 54.349953 
L 345.113044 54.542852 
L 345.577168 55.461516 
L 346.273354 57.930267 
L 347.665725 63.535976 
L 348.129849 64.683425 
L 348.36191 65.017926 
L 348.593972 65.146578 
L 348.826034 65.073615 
L 349.058096 64.792215 
L 349.52222 63.71736 
L 350.218405 61.078501 
L 351.378715 56.185541 
L 351.842838 54.881483 
L 352.306962 54.260016 
L 352.539024 54.219615 
L 352.771086 54.400914 
L 353.23521 55.308412 
L 353.699333 56.893878 
L 355.555828 64.215916 
L 356.019952 65.052578 
L 356.252014 65.181415 
L 356.484076 65.115483 
L 356.716138 64.83463 
L 357.180261 63.718857 
L 357.876447 61.020932 
L 359.036756 56.11128 
L 359.50088 54.814674 
L 359.965004 54.215151 
L 360.197065 54.199738 
L 360.429127 54.383123 
L 360.893251 55.3051 
L 361.357375 56.877893 
L 363.21387 64.367802 
L 363.677993 65.209497 
L 363.910055 65.316917 
L 364.142117 65.173695 
L 364.606241 64.380763 
L 365.070365 62.928758 
L 367.158921 54.697227 
L 367.623045 54.081815 
L 367.855107 54.074861 
L 368.087169 54.269055 
L 368.551292 55.21473 
L 369.015416 56.788837 
L 370.871911 64.253557 
L 371.336035 65.039805 
L 371.568097 65.118546 
L 371.800159 65.04437 
L 372.03222 64.740976 
L 372.496344 63.592398 
L 373.19253 60.8385 
L 374.352839 55.839853 
L 374.816963 54.525226 
L 375.281086 53.889138 
L 375.513148 53.88843 
L 375.74521 54.08534 
L 376.209334 55.048741 
L 376.673458 56.644062 
L 378.529953 64.170678 
L 378.994076 65.022829 
L 379.226138 65.147742 
L 379.690262 64.850774 
L 380.154386 63.698677 
L 380.618509 61.978534 
L 382.242942 55.057895 
L 382.707066 54.031473 
L 382.939128 53.805795 
L 383.17119 53.789701 
L 383.403252 53.973064 
L 383.867375 54.929618 
L 384.331499 56.523709 
L 386.187994 64.279787 
L 386.652118 65.159459 
L 386.88418 65.28552 
L 387.116241 65.201062 
L 387.580365 64.424657 
L 388.044489 62.924766 
L 388.740675 59.891999 
L 389.668922 55.798699 
L 390.133046 54.409165 
L 390.597169 53.73703 
L 390.829231 53.713062 
L 391.061293 53.894591 
L 391.525417 54.829503 
L 391.989541 56.427888 
L 393.846035 64.218197 
L 394.310159 65.155513 
L 394.542221 65.264389 
L 394.774283 65.193791 
L 395.006345 64.914895 
L 395.470469 63.707614 
L 396.166654 60.913031 
L 397.326963 55.70062 
L 397.791087 54.295609 
L 398.255211 53.594953 
L 398.487273 53.568 
L 398.487273 53.568 
" style="fill:none;stroke:#1f77b4;stroke-linecap:square;stroke-width:1.5;"/>
   </g>
   <g id="line2d_16">
    <path clip-path="url(#pddcc790372)" d="M 73.832727 58.443613 
L 74.760975 61.313634 
L 75.689222 64.207118 
L 76.153346 65.106126 
L 76.61747 65.432736 
L 76.849531 65.366913 
L 77.313655 64.787944 
L 77.777779 63.636066 
L 78.706026 60.488521 
L 79.402212 58.241039 
L 79.866336 57.239832 
L 80.330459 56.756149 
L 80.562521 56.73757 
L 81.026645 57.116565 
L 81.490769 58.075505 
L 82.186954 60.155331 
L 83.347264 63.973015 
L 83.811387 64.919394 
L 84.275511 65.296433 
L 84.507573 65.253432 
L 84.739635 65.080165 
L 85.203759 64.252207 
L 85.899944 62.180837 
L 87.292315 57.671215 
L 87.756439 56.837557 
L 87.988501 56.638287 
L 88.220563 56.606172 
L 88.452625 56.725964 
L 88.916748 57.37008 
L 89.612934 59.322421 
L 91.237367 64.484506 
L 91.701491 65.179952 
L 91.933553 65.299271 
L 92.165614 65.263634 
L 92.397676 65.072127 
L 92.8618 64.27328 
L 93.557986 62.19892 
L 94.950357 57.64547 
L 95.41448 56.798258 
L 95.646542 56.602179 
L 95.878604 56.557505 
L 96.110666 56.669792 
L 96.57479 57.37236 
L 97.270975 59.344436 
L 98.663347 63.968962 
L 99.12747 64.917133 
L 99.591594 65.295353 
L 99.823656 65.25549 
L 100.055718 65.090384 
L 100.519841 64.255321 
L 101.216027 62.18306 
L 102.144274 58.736085 
L 102.84046 56.971225 
L 103.304584 56.475327 
L 103.536646 56.464394 
L 103.768708 56.611921 
L 104.232831 57.358608 
L 104.929017 59.359858 
L 106.089326 63.33966 
L 106.55345 64.510473 
L 107.017574 65.165704 
L 107.249635 65.242045 
L 107.481697 65.184051 
L 107.945821 64.614081 
L 108.409945 63.501272 
L 109.338192 60.324015 
L 110.26644 57.425998 
L 110.730563 56.631387 
L 110.962625 56.450317 
L 111.194687 56.429376 
L 111.426749 56.55726 
L 111.890873 57.26288 
L 112.354996 58.477068 
L 114.211491 64.473881 
L 114.675615 65.10281 
L 114.907677 65.200867 
L 115.139739 65.141477 
L 115.603862 64.554857 
L 116.067986 63.430219 
L 116.996234 60.283924 
L 117.692419 57.959048 
L 118.156543 56.885857 
L 118.620667 56.409174 
L 118.852729 56.388552 
L 119.08479 56.534614 
L 119.548914 57.249083 
L 120.013038 58.460055 
L 121.869533 64.360048 
L 122.333657 65.019643 
L 122.565718 65.118999 
L 122.79778 65.077793 
L 123.493966 64.000517 
L 124.190151 61.874652 
L 125.582523 57.283956 
L 126.046646 56.47362 
L 126.51077 56.209238 
L 126.974894 56.681462 
L 127.439017 57.702614 
L 128.367265 60.816892 
L 129.295512 63.86846 
L 129.759636 64.825936 
L 130.22376 65.183262 
L 130.455822 65.140685 
L 130.919945 64.58152 
L 131.384069 63.426218 
L 132.312317 60.167647 
L 133.008502 57.885171 
L 133.472626 56.789963 
L 133.93675 56.273664 
L 134.168811 56.273757 
L 134.400873 56.396504 
L 134.864997 57.059218 
L 135.329121 58.227627 
L 136.257368 61.457077 
L 136.953554 63.724822 
L 137.417678 64.731787 
L 137.881801 65.129528 
L 138.113863 65.086815 
L 138.345925 64.890586 
L 138.810049 64.024476 
L 139.506234 61.890706 
L 140.898605 57.250708 
L 141.362729 56.369778 
L 141.594791 56.162204 
L 141.826853 56.121509 
L 142.058915 56.245836 
L 142.523039 56.957897 
L 142.987162 58.210145 
L 145.075719 64.762776 
L 145.539843 65.157369 
L 145.771905 65.11075 
L 146.236028 64.475377 
L 146.700152 63.371965 
L 147.396338 61.059076 
L 148.092523 58.446682 
L 149.020771 56.421266 
L 149.484894 56.161502 
L 149.716956 56.302899 
L 150.18108 57.025813 
L 150.645204 58.268932 
L 151.573451 61.633038 
L 152.269637 63.849801 
L 152.73376 64.776114 
L 153.197884 65.148098 
L 153.429946 65.09185 
L 153.662008 64.878362 
L 154.126132 64.003997 
L 154.822317 61.878358 
L 156.214688 57.30228 
L 156.678812 56.419952 
L 156.910874 56.238941 
L 157.142936 56.211624 
L 157.374998 56.356523 
L 157.839121 57.113615 
L 158.303245 58.383794 
L 160.15974 64.52566 
L 160.623864 65.229813 
L 160.855926 65.326282 
L 161.087988 65.272044 
L 161.320049 65.055792 
L 161.784173 64.169229 
L 162.480359 62.029253 
L 163.87273 57.288097 
L 164.336854 56.463704 
L 164.568915 56.285107 
L 165.033039 56.507675 
L 165.497163 57.260001 
L 166.193348 59.2084 
L 167.58572 63.982623 
L 168.049843 64.938144 
L 168.513967 65.309528 
L 168.746029 65.240987 
L 168.978091 65.020979 
L 169.442215 64.058414 
L 170.1384 61.91421 
L 171.298709 57.832042 
L 171.762833 56.766579 
L 172.226957 56.318948 
L 172.459019 56.272523 
L 172.691081 56.423227 
L 173.155204 57.194348 
L 173.619328 58.458547 
L 175.475823 64.516285 
L 175.939947 65.19542 
L 176.172009 65.304622 
L 176.40407 65.232817 
L 176.636132 64.994459 
L 177.332318 63.351661 
L 179.188813 57.275126 
L 179.652937 56.439933 
L 179.884998 56.262542 
L 180.11706 56.250281 
L 180.349122 56.39938 
L 180.813246 57.168164 
L 181.27737 58.499944 
L 183.133864 64.603644 
L 183.597988 65.250983 
L 183.83005 65.353829 
L 184.062112 65.288962 
L 184.526236 64.714511 
L 185.222421 62.709646 
L 187.078916 56.718621 
L 187.54304 56.223168 
L 187.775102 56.215358 
L 188.007164 56.373438 
L 188.471287 57.155652 
L 188.935411 58.460906 
L 190.791906 64.605734 
L 191.25603 65.257519 
L 191.488091 65.353511 
L 191.720153 65.279673 
L 191.952215 65.051669 
L 192.416339 64.128037 
L 193.112525 61.892568 
L 194.272834 57.759059 
L 194.736958 56.592034 
L 195.201081 56.100095 
L 195.433143 56.104864 
L 195.665205 56.27456 
L 196.129329 57.082581 
L 196.825514 59.178363 
L 198.217886 64.089108 
L 198.682009 65.056062 
L 198.914071 65.351161 
L 199.146133 65.449197 
L 199.378195 65.366928 
L 199.610257 65.129088 
L 200.07438 64.234621 
L 200.770566 61.988605 
L 201.930875 57.783412 
L 202.394999 56.7134 
L 202.859123 56.196138 
L 203.091185 56.182431 
L 203.323246 56.33476 
L 203.78737 57.05716 
L 204.483556 59.181017 
L 205.875927 64.175979 
L 206.340051 65.189121 
L 206.804174 65.599761 
L 207.036236 65.563173 
L 207.50036 64.923718 
L 207.964484 63.715461 
L 210.05304 56.612299 
L 210.517164 56.009165 
L 210.749226 55.993057 
L 210.981288 56.142256 
L 211.445412 56.92555 
L 211.909535 58.253272 
L 213.76603 64.617897 
L 214.230154 65.304771 
L 214.462216 65.414884 
L 214.694278 65.347681 
L 214.92634 65.135317 
L 215.390463 64.204119 
L 216.086649 61.957257 
L 217.47902 57.12317 
L 217.943144 56.230544 
L 218.175206 56.026756 
L 218.639329 56.150322 
L 219.103453 56.916141 
L 219.799639 58.960882 
L 221.19201 63.938888 
L 221.656134 64.932253 
L 222.120257 65.3353 
L 222.352319 65.28804 
L 222.816443 64.680381 
L 223.280567 63.512265 
L 223.976752 61.059153 
L 224.905 57.694792 
L 225.369123 56.543214 
L 225.833247 55.980938 
L 226.065309 55.99482 
L 226.297371 56.12539 
L 226.761495 56.82513 
L 227.225618 58.211805 
L 229.082113 64.569319 
L 229.546237 65.297377 
L 229.778299 65.420772 
L 230.010361 65.368199 
L 230.242423 65.149023 
L 230.706546 64.225267 
L 231.402732 62.089754 
L 232.795103 57.153896 
L 233.259227 56.26896 
L 233.491289 56.056066 
L 233.72335 56.012288 
L 233.955412 56.138876 
L 234.187474 56.437191 
L 234.651598 57.509406 
L 235.347783 59.879088 
L 236.508093 64.076395 
L 236.972217 65.075055 
L 237.43634 65.491404 
L 237.668402 65.443111 
L 238.132526 64.841854 
L 238.59665 63.658325 
L 239.292835 61.135846 
L 240.221083 57.67309 
L 240.917268 56.208606 
L 241.14933 56.000744 
L 241.381392 55.963445 
L 241.613454 56.097447 
L 241.845516 56.397104 
L 242.309639 57.423338 
L 243.005825 59.805033 
L 244.166134 63.982373 
L 244.630258 64.980734 
L 245.094382 65.376462 
L 245.326444 65.317176 
L 245.790567 64.688317 
L 246.254691 63.48901 
L 247.182938 60.137402 
L 248.111186 57.000652 
L 248.57531 56.039862 
L 248.807371 55.842452 
L 249.039433 55.816526 
L 249.271495 55.909725 
L 249.735619 56.619107 
L 250.199743 57.947481 
L 252.288299 64.915045 
L 252.752423 65.319551 
L 252.984485 65.258258 
L 253.216547 65.019306 
L 253.680671 64.053719 
L 254.376856 61.737767 
L 255.769227 56.682475 
L 256.233351 55.799224 
L 256.465413 55.592025 
L 256.929537 55.651749 
L 257.39366 56.445061 
L 257.857784 57.780707 
L 259.714279 64.416858 
L 260.178403 65.147133 
L 260.410465 65.258354 
L 260.642526 65.196358 
L 260.874588 64.959015 
L 261.338712 63.998334 
L 262.034898 61.632079 
L 263.195207 57.173946 
L 263.659331 55.988623 
L 264.123454 55.428114 
L 264.355516 55.42655 
L 264.587578 55.591513 
L 265.051702 56.43122 
L 265.747887 58.657176 
L 267.37232 64.520795 
L 267.836444 65.194346 
L 268.300568 65.305726 
L 268.53263 65.087411 
L 268.996754 64.100154 
L 269.692939 61.68881 
L 271.08531 56.443245 
L 271.549434 55.525854 
L 271.781496 55.323789 
L 272.013558 55.306059 
L 272.24562 55.456048 
L 272.709743 56.30569 
L 273.173867 57.734114 
L 275.030362 64.610615 
L 275.494486 65.36373 
L 275.726548 65.489952 
L 275.958609 65.42253 
L 276.190671 65.208622 
L 276.654795 64.219081 
L 277.350981 61.728984 
L 278.743352 56.471121 
L 279.207475 55.5496 
L 279.439537 55.33409 
L 279.671599 55.299033 
L 279.903661 55.446758 
L 280.367785 56.259824 
L 280.831909 57.671145 
L 282.920465 65.085144 
L 283.384589 65.529918 
L 283.616651 65.470425 
L 283.848713 65.235214 
L 284.312836 64.241487 
L 285.009022 61.85639 
L 286.401393 56.467207 
L 286.865517 55.501612 
L 287.097579 55.273721 
L 287.329641 55.225497 
L 287.561703 55.372004 
L 288.025826 56.173866 
L 288.48995 57.548524 
L 290.578507 64.97101 
L 291.04263 65.426768 
L 291.274692 65.384969 
L 291.506754 65.156607 
L 291.970878 64.189516 
L 292.667063 61.745024 
L 294.059435 56.309694 
L 294.523558 55.305509 
L 294.987682 54.947834 
L 295.219744 55.076188 
L 295.683868 55.865407 
L 296.147991 57.267449 
L 297.076239 61.145795 
L 297.772424 63.791596 
L 298.236548 64.960192 
L 298.46861 65.300835 
L 298.700672 65.438602 
L 298.932734 65.406108 
L 299.164796 65.186467 
L 299.628919 64.202675 
L 300.325105 61.691372 
L 301.717476 56.18198 
L 302.1816 55.14585 
L 302.413662 54.886934 
L 302.645724 54.831257 
L 303.109847 55.340155 
L 303.573971 56.470807 
L 304.270157 59.052532 
L 305.430466 63.597092 
L 305.89459 64.754612 
L 306.358713 65.250913 
L 306.590775 65.189114 
L 306.822837 64.97493 
L 307.286961 64.017383 
L 307.983146 61.588834 
L 309.375518 56.179005 
L 309.839641 55.147417 
L 310.071703 54.894016 
L 310.303765 54.837954 
L 310.535827 54.975437 
L 310.999951 55.818374 
L 311.696136 58.090226 
L 313.320569 64.295928 
L 313.784693 65.152385 
L 314.016755 65.264733 
L 314.248817 65.237875 
L 314.480879 65.077526 
L 314.945002 64.117025 
L 315.641188 61.687175 
L 317.033559 56.170751 
L 317.497683 55.115109 
L 317.729745 54.84461 
L 317.961806 54.775961 
L 318.193868 54.896581 
L 318.657992 55.66658 
L 319.122116 57.049698 
L 321.210673 64.673159 
L 321.674796 65.202304 
L 321.906858 65.18647 
L 322.603044 63.899803 
L 323.299229 61.50164 
L 324.6916 56.043867 
L 325.155724 54.973899 
L 325.387786 54.700932 
L 325.619848 54.619048 
L 325.85191 54.752484 
L 326.083972 55.023363 
L 326.548095 56.10676 
L 327.244281 58.650906 
L 328.40459 63.252093 
L 328.868714 64.453754 
L 329.332838 65.039249 
L 329.5649 65.033552 
L 329.796961 64.884335 
L 330.261085 63.967361 
L 330.957271 61.563082 
L 332.349642 56.016875 
L 332.813766 54.947162 
L 333.045828 54.662352 
L 333.277889 54.577947 
L 333.509951 54.685837 
L 333.742013 54.976227 
L 334.206137 56.083093 
L 334.902322 58.663457 
L 336.062632 63.392612 
L 336.526755 64.637373 
L 336.990879 65.197564 
L 337.222941 65.194455 
L 337.455003 65.007601 
L 337.919127 64.074131 
L 338.38325 62.511202 
L 340.239745 55.251866 
L 340.703869 54.516743 
L 340.935931 54.438625 
L 341.167993 54.522004 
L 341.632116 55.301088 
L 342.09624 56.721117 
L 343.024488 60.627568 
L 343.720673 63.361773 
L 344.184797 64.614268 
L 344.648921 65.178519 
L 344.880983 65.157443 
L 345.113044 64.955234 
L 345.577168 63.892561 
L 346.041292 62.320248 
L 347.897787 55.085754 
L 348.36191 54.325496 
L 348.593972 54.234223 
L 348.826034 54.334509 
L 349.290158 55.142012 
L 349.754282 56.578881 
L 350.682529 60.515994 
L 351.610777 64.022266 
L 352.0749 64.982563 
L 352.306962 65.228719 
L 352.539024 65.217187 
L 352.771086 65.028863 
L 353.23521 63.865006 
L 353.931395 61.385031 
L 355.323766 55.689753 
L 355.78789 54.592596 
L 356.019952 54.300798 
L 356.252014 54.205494 
L 356.484076 54.305039 
L 356.716138 54.602776 
L 357.180261 55.72727 
L 357.876447 58.434005 
L 359.036756 63.298066 
L 359.50088 64.612866 
L 359.965004 65.227987 
L 360.197065 65.249012 
L 360.429127 65.040599 
L 360.893251 64.058751 
L 361.589437 61.495154 
L 362.981808 55.634033 
L 363.445932 54.483711 
L 363.677993 54.182474 
L 363.910055 54.078901 
L 364.142117 54.18002 
L 364.374179 54.480166 
L 364.838303 55.628743 
L 365.534488 58.353156 
L 366.694798 63.315719 
L 367.158921 64.584348 
L 367.623045 65.177801 
L 367.855107 65.180032 
L 368.087169 64.979493 
L 368.551292 63.985583 
L 369.247478 61.39296 
L 370.639849 55.538671 
L 371.103973 54.308769 
L 371.336035 54.018939 
L 371.568097 53.922612 
L 371.800159 54.020551 
L 372.264282 54.818231 
L 372.728406 56.280384 
L 374.816963 64.477652 
L 375.281086 65.089178 
L 375.513148 65.084905 
L 375.74521 64.881556 
L 375.977272 64.514988 
L 376.441396 63.171423 
L 377.137581 60.278534 
L 378.297891 55.390412 
L 378.762014 54.216228 
L 378.994076 53.904242 
L 379.226138 53.797436 
L 379.4582 53.892947 
L 379.690262 54.191845 
L 380.154386 55.363297 
L 380.850571 58.136211 
L 382.01088 63.217009 
L 382.475004 64.571775 
L 382.939128 65.200774 
L 383.17119 65.215574 
L 383.403252 65.023127 
L 383.867375 64.05605 
L 384.563561 61.42082 
L 385.955932 55.390665 
L 386.420056 54.168982 
L 386.652118 53.861407 
L 386.88418 53.744124 
L 387.116241 53.835852 
L 387.348303 54.133766 
L 387.812427 55.292761 
L 388.508613 58.081409 
L 389.668922 63.198468 
L 390.133046 64.575887 
L 390.597169 65.230506 
L 390.829231 65.249838 
L 391.061293 65.060276 
L 391.293355 64.679791 
L 391.757479 63.316188 
L 392.453664 60.384791 
L 393.613974 55.323237 
L 394.078097 54.07922 
L 394.310159 53.747648 
L 394.542221 53.623969 
L 394.774283 53.709192 
L 395.006345 54.002822 
L 395.470469 55.16125 
L 396.166654 57.965084 
L 397.326963 63.103535 
L 397.791087 64.524039 
L 398.255211 65.185056 
L 398.487273 65.208036 
L 398.487273 65.208036 
" style="fill:none;stroke:#ff0000;stroke-linecap:square;stroke-width:1.5;"/>
   </g>
   <g id="line2d_17">
    <path clip-path="url(#pddcc790372)" d="M 73.832727 289.427884 
L 74.528913 285.131984 
L 75.689222 277.743058 
L 76.153346 275.931298 
L 76.385408 275.447975 
L 76.61747 275.247918 
L 76.849531 275.351198 
L 77.081593 275.759577 
L 77.545717 277.441531 
L 78.241903 281.612388 
L 79.402212 289.404893 
L 79.866336 291.406161 
L 80.330459 292.379703 
L 80.562521 292.40616 
L 80.794583 292.138698 
L 81.258707 290.817955 
L 81.954892 287.060863 
L 83.347264 277.779808 
L 83.811387 275.874072 
L 84.043449 275.336785 
L 84.275511 275.113075 
L 84.507573 275.201353 
L 84.739635 275.555028 
L 85.203759 277.206248 
L 85.899944 281.365548 
L 87.292315 290.562023 
L 87.756439 292.264171 
L 87.988501 292.588631 
L 88.220563 292.638767 
L 88.452625 292.367089 
L 88.916748 291.000421 
L 89.380872 288.580914 
L 91.469429 275.893793 
L 91.701491 275.336584 
L 91.933553 275.093014 
L 92.165614 275.169011 
L 92.397676 275.525476 
L 92.8618 277.120936 
L 93.557986 281.273696 
L 94.950357 290.516962 
L 95.41448 292.286189 
L 95.646542 292.601494 
L 95.878604 292.688193 
L 96.110666 292.442551 
L 96.57479 291.02942 
L 97.270975 287.115423 
L 98.663347 277.79585 
L 99.12747 275.88556 
L 99.359532 275.338937 
L 99.591594 275.093908 
L 99.823656 275.163876 
L 100.055718 275.504505 
L 100.519841 277.160983 
L 101.216027 281.34309 
L 102.376336 289.471151 
L 102.84046 291.759121 
L 103.072522 292.419627 
L 103.304584 292.684481 
L 103.536646 292.698701 
L 103.768708 292.40217 
L 104.232831 290.875564 
L 104.696955 288.38071 
L 106.785512 275.715577 
L 107.017574 275.221404 
L 107.249635 275.045134 
L 107.481697 275.150231 
L 107.713759 275.573169 
L 108.177883 277.289068 
L 108.874068 281.514748 
L 110.26644 290.719031 
L 110.730563 292.397286 
L 110.962625 292.701627 
L 111.194687 292.745191 
L 111.426749 292.430021 
L 111.890873 290.944492 
L 112.354996 288.487291 
L 114.211491 276.465368 
L 114.675615 275.167341 
L 114.907677 274.959602 
L 115.139739 275.079848 
L 115.371801 275.497727 
L 115.835924 277.232775 
L 116.53211 281.47374 
L 117.924481 290.771153 
L 118.388605 292.46993 
L 118.620667 292.70851 
L 118.852729 292.727079 
L 119.316852 291.744663 
L 119.780976 289.764534 
L 120.477162 285.337414 
L 121.637471 277.63294 
L 122.101595 275.762795 
L 122.333657 275.243462 
L 122.565718 275.055103 
L 122.79778 275.140985 
L 123.261904 276.318872 
L 123.726028 278.512073 
L 124.654275 284.803233 
L 125.582523 290.691739 
L 126.046646 292.376563 
L 126.278708 292.724496 
L 126.51077 292.793255 
L 126.742832 292.47418 
L 127.206956 290.995347 
L 127.671079 288.488148 
L 129.759636 275.54956 
L 129.991698 275.027046 
L 130.22376 274.832318 
L 130.455822 274.937865 
L 130.687884 275.383703 
L 131.152007 277.125221 
L 131.848193 281.463235 
L 133.240564 290.824976 
L 133.704688 292.513533 
L 133.93675 292.786905 
L 134.168811 292.741487 
L 134.400873 292.503899 
L 134.864997 291.135173 
L 135.329121 288.727777 
L 136.257368 282.190012 
L 136.953554 277.634575 
L 137.417678 275.626298 
L 137.649739 275.061134 
L 137.881801 274.804213 
L 138.113863 274.875951 
L 138.345925 275.266119 
L 138.810049 276.994042 
L 139.506234 281.262516 
L 140.898605 290.647375 
L 141.362729 292.479781 
L 141.594791 292.946966 
L 141.826853 292.984441 
L 142.058915 292.676311 
L 142.290977 292.106949 
L 142.7551 290.095685 
L 143.451286 285.601426 
L 144.611595 277.619783 
L 145.075719 275.611005 
L 145.307781 275.049392 
L 145.539843 274.797994 
L 145.771905 274.882414 
L 146.236028 276.075285 
L 146.700152 278.326112 
L 147.396338 282.977584 
L 148.324585 289.336636 
L 148.788709 291.67893 
L 149.252833 292.747757 
L 149.484894 292.848414 
L 149.716956 292.521564 
L 149.949018 291.958116 
L 150.413142 289.973982 
L 151.109327 285.474343 
L 152.037575 278.868063 
L 152.501699 276.47009 
L 152.965822 275.130326 
L 153.197884 274.924461 
L 153.429946 275.032201 
L 153.662008 275.454804 
L 154.126132 277.221326 
L 154.822317 281.483883 
L 156.214688 290.677967 
L 156.678812 292.422662 
L 156.910874 292.846949 
L 157.142936 292.902254 
L 157.374998 292.610269 
L 157.60706 292.035088 
L 158.071183 289.996263 
L 158.767369 285.381014 
L 159.927678 277.432752 
L 160.391802 275.46733 
L 160.623864 274.947967 
L 160.855926 274.755467 
L 161.087988 274.864646 
L 161.320049 275.297425 
L 161.784173 277.094676 
L 162.480359 281.431983 
L 163.87273 290.942264 
L 164.336854 292.636437 
L 164.568915 292.936789 
L 164.800977 292.856838 
L 165.033039 292.516141 
L 165.265101 291.928035 
L 165.729225 289.859935 
L 166.657472 283.678287 
L 167.58572 277.481407 
L 168.049843 275.552244 
L 168.281905 275.0222 
L 168.513967 274.796864 
L 168.746029 274.913322 
L 168.978091 275.366993 
L 169.442215 277.216971 
L 170.1384 281.5449 
L 171.298709 289.594442 
L 171.762833 291.833093 
L 172.226957 292.772995 
L 172.459019 292.834458 
L 172.691081 292.526189 
L 172.923143 291.931449 
L 173.387266 289.85128 
L 174.083452 285.275868 
L 175.243761 277.408577 
L 175.707885 275.462795 
L 175.939947 274.925076 
L 176.172009 274.727869 
L 176.40407 274.857705 
L 176.636132 275.342049 
L 177.100256 277.243784 
L 177.796442 281.664833 
L 179.188813 290.799412 
L 179.652937 292.525665 
L 179.884998 292.892753 
L 180.11706 292.916753 
L 180.349122 292.656066 
L 180.581184 292.056927 
L 181.045308 289.972949 
L 181.973555 283.580881 
L 182.901803 277.349855 
L 183.365926 275.424775 
L 183.597988 274.922363 
L 183.83005 274.724375 
L 184.062112 274.839828 
L 184.294174 275.291882 
L 184.758297 277.133081 
L 185.454483 281.53247 
L 186.846854 291.038851 
L 187.310978 292.690945 
L 187.54304 292.986554 
L 187.775102 292.953613 
L 188.007164 292.642978 
L 188.471287 291.101738 
L 188.935411 288.487817 
L 190.791906 276.196128 
L 191.25603 274.877432 
L 191.488091 274.676678 
L 191.720153 274.822373 
L 191.952215 275.2662 
L 192.416339 277.103338 
L 193.112525 281.558066 
L 194.504896 291.164012 
L 194.969019 292.853289 
L 195.201081 293.134974 
L 195.433143 293.111501 
L 195.665205 292.781141 
L 196.129329 291.18501 
L 196.593452 288.520908 
L 198.449947 276.038133 
L 198.914071 274.652396 
L 199.146133 274.458794 
L 199.378195 274.625347 
L 199.610257 275.114476 
L 200.07438 276.976291 
L 200.770566 281.492777 
L 202.162937 291.215313 
L 202.627061 292.84215 
L 202.859123 293.175055 
L 203.091185 293.116968 
L 203.323246 292.832406 
L 203.555308 292.295391 
L 204.019432 290.21538 
L 204.715618 285.453195 
L 205.875927 277.190033 
L 206.340051 275.173343 
L 206.572113 274.605721 
L 206.804174 274.364158 
L 207.036236 274.445565 
L 207.268298 274.914302 
L 207.732422 276.754531 
L 208.428607 281.324758 
L 209.820979 291.260548 
L 210.285102 292.963441 
L 210.517164 293.330357 
L 210.749226 293.251124 
L 210.981288 292.948954 
L 211.21335 292.345342 
L 211.677474 290.17782 
L 212.373659 285.376053 
L 213.533968 277.172829 
L 213.998092 275.177615 
L 214.230154 274.644258 
L 214.462216 274.42672 
L 214.694278 274.546934 
L 214.92634 274.985129 
L 215.390463 276.845598 
L 216.086649 281.331153 
L 217.47902 291.07464 
L 217.943144 292.848922 
L 218.175206 293.195371 
L 218.407268 293.184678 
L 218.639329 292.9368 
L 218.871391 292.381677 
L 219.335515 290.246016 
L 220.031701 285.552599 
L 221.19201 277.319794 
L 221.656134 275.294248 
L 221.888195 274.726103 
L 222.120257 274.479593 
L 222.352319 274.567286 
L 222.584381 275.006055 
L 223.048505 276.801355 
L 223.74469 281.221413 
L 225.137062 291.008322 
L 225.601185 292.796766 
L 225.833247 293.145751 
L 226.065309 293.145591 
L 226.297371 292.882929 
L 226.761495 291.480278 
L 227.225618 288.871589 
L 229.082113 276.188473 
L 229.546237 274.75325 
L 229.778299 274.500134 
L 230.010361 274.595377 
L 230.242423 275.014968 
L 230.706546 276.816997 
L 231.402732 281.14705 
L 232.795103 291.046343 
L 233.259227 292.815286 
L 233.491289 293.245576 
L 233.72335 293.32689 
L 233.955412 293.144174 
L 234.187474 292.524624 
L 234.651598 290.389586 
L 235.347783 285.601705 
L 236.508093 277.24902 
L 236.972217 275.213226 
L 237.204278 274.627838 
L 237.43634 274.364268 
L 237.668402 274.444828 
L 237.900464 274.870895 
L 238.364588 276.653469 
L 239.060773 281.177438 
L 240.221083 289.813678 
L 240.685206 292.130176 
L 241.14933 293.294269 
L 241.381392 293.369062 
L 241.613454 293.081374 
L 242.077577 291.532248 
L 242.773763 287.233444 
L 244.166134 277.174091 
L 244.630258 275.158576 
L 245.094382 274.384729 
L 245.326444 274.49797 
L 245.558505 274.954507 
L 246.022629 276.829111 
L 246.718815 281.339945 
L 248.111186 291.125337 
L 248.57531 292.965251 
L 248.807371 293.331549 
L 249.039433 293.332731 
L 249.271495 293.044341 
L 249.503557 292.507385 
L 249.967681 290.373102 
L 250.663866 285.530817 
L 251.824176 277.061254 
L 252.288299 274.999251 
L 252.520361 274.423436 
L 252.752423 274.182093 
L 252.984485 274.294295 
L 253.216547 274.756747 
L 253.680671 276.648506 
L 254.376856 281.28453 
L 255.769227 291.334656 
L 256.233351 293.142044 
L 256.465413 293.543885 
L 256.697475 293.549476 
L 256.929537 293.338075 
L 257.161599 292.704755 
L 257.625722 290.483919 
L 258.321908 285.506651 
L 259.482217 276.920614 
L 259.946341 274.825541 
L 260.178403 274.256496 
L 260.410465 274.024335 
L 260.642526 274.129287 
L 260.874588 274.600459 
L 261.338712 276.49548 
L 262.034898 281.213145 
L 263.195207 290.130896 
L 263.659331 292.610241 
L 264.123454 293.791232 
L 264.355516 293.828151 
L 264.587578 293.501786 
L 265.051702 291.867837 
L 265.515826 288.990828 
L 267.604382 274.624656 
L 267.836444 274.104109 
L 268.068506 273.860075 
L 268.300568 273.917144 
L 268.53263 274.362646 
L 268.996754 276.333326 
L 269.692939 281.145689 
L 271.08531 291.690994 
L 271.549434 293.682415 
L 271.781496 294.03904 
L 272.013558 294.015944 
L 272.24562 293.680202 
L 272.477681 293.102742 
L 272.941805 290.803987 
L 273.637991 285.639865 
L 274.7983 276.672994 
L 275.262424 274.480204 
L 275.494486 273.857447 
L 275.726548 273.58584 
L 275.958609 273.702356 
L 276.190671 274.138644 
L 276.654795 276.110402 
L 277.118919 279.257111 
L 278.743352 291.679177 
L 279.207475 293.573075 
L 279.439537 293.997662 
L 279.671599 294.009083 
L 279.903661 293.782375 
L 280.135723 293.124111 
L 280.599847 290.826436 
L 281.296032 285.709142 
L 282.456342 276.662753 
L 282.920465 274.458229 
L 283.152527 273.843659 
L 283.384589 273.551303 
L 283.616651 273.648616 
L 283.848713 274.127382 
L 284.312836 276.118222 
L 285.009022 280.976871 
L 286.401393 291.72684 
L 286.865517 293.69911 
L 287.097579 294.061774 
L 287.329641 294.053382 
L 287.561703 293.71618 
L 287.793764 293.110697 
L 288.257888 290.915085 
L 288.954074 285.848564 
L 290.114383 276.836959 
L 290.578507 274.508695 
L 290.810569 273.853625 
L 291.04263 273.547485 
L 291.274692 273.616842 
L 291.506754 274.057723 
L 291.970878 275.977099 
L 292.667063 280.816161 
L 294.059435 291.586083 
L 294.523558 293.665997 
L 294.75562 294.099012 
L 294.987682 294.269 
L 295.219744 293.992546 
L 295.451806 293.479437 
L 295.91593 291.253028 
L 296.612115 286.061515 
L 297.772424 276.702734 
L 298.236548 274.34466 
L 298.46861 273.653076 
L 298.700672 273.341282 
L 298.932734 273.39936 
L 299.164796 273.827636 
L 299.628919 275.782055 
L 300.093043 278.914843 
L 301.949538 292.932345 
L 302.1816 293.828604 
L 302.413662 294.249353 
L 302.645724 294.348565 
L 302.877785 294.02782 
L 303.109847 293.412612 
L 303.573971 291.15684 
L 304.270157 285.949609 
L 305.430466 276.80621 
L 305.89459 274.460447 
L 306.126652 273.768905 
L 306.358713 273.441629 
L 306.590775 273.526468 
L 306.822837 273.943455 
L 307.286961 275.871886 
L 307.751085 278.904522 
L 309.607579 292.729571 
L 310.071703 294.178577 
L 310.303765 294.297242 
L 310.535827 294.123376 
L 310.999951 292.497097 
L 311.696136 287.96192 
L 313.320569 275.480737 
L 313.784693 273.752897 
L 314.016755 273.468361 
L 314.248817 273.489671 
L 314.480879 273.842899 
L 314.945002 275.74129 
L 315.409126 278.767847 
L 317.265621 292.829377 
L 317.729745 294.224455 
L 317.961806 294.404074 
L 318.193868 294.131061 
L 318.42593 293.571535 
L 318.890054 291.406582 
L 319.58624 286.129691 
L 320.746549 276.826556 
L 321.210673 274.446448 
L 321.442734 273.722561 
L 321.674796 273.364907 
L 321.906858 273.379964 
L 322.370982 274.680942 
L 322.835106 277.142564 
L 323.531291 282.475112 
L 324.459539 289.890204 
L 324.923662 292.615509 
L 325.387786 294.101487 
L 325.619848 294.305258 
L 325.85191 294.05654 
L 326.083972 293.513453 
L 326.548095 291.355813 
L 327.244281 286.24173 
L 328.40459 277.006158 
L 328.868714 274.586592 
L 329.332838 273.430609 
L 329.5649 273.437502 
L 329.796961 273.764001 
L 330.261085 275.588762 
L 330.957271 280.405683 
L 332.349642 291.476867 
L 332.813766 293.716973 
L 333.045828 294.302612 
L 333.277889 294.465541 
L 333.509951 294.24444 
L 333.742013 293.732162 
L 334.206137 291.528103 
L 334.902322 286.331524 
L 336.062632 276.860938 
L 336.526755 274.366061 
L 336.990879 273.218992 
L 337.222941 273.19027 
L 337.455003 273.549297 
L 337.919127 275.399257 
L 338.615312 280.355159 
L 340.007683 291.658765 
L 340.471807 293.854553 
L 340.703869 294.447828 
L 340.935931 294.630277 
L 341.167993 294.464716 
L 341.400055 293.889191 
L 341.864178 291.549035 
L 342.560364 286.28524 
L 343.720673 276.706948 
L 344.184797 274.201403 
L 344.648921 273.037487 
L 344.880983 273.04009 
L 345.113044 273.435198 
L 345.577168 275.416534 
L 346.041292 278.544856 
L 347.897787 292.931194 
L 348.36191 294.54001 
L 348.593972 294.759936 
L 348.826034 294.586686 
L 349.058096 293.980322 
L 349.52222 291.7769 
L 350.218405 286.474425 
L 351.378715 276.733438 
L 351.842838 274.13905 
L 352.306962 272.878877 
L 352.539024 272.850008 
L 352.771086 273.219631 
L 353.23521 275.290986 
L 353.699333 278.421765 
L 355.555828 293.01396 
L 356.019952 294.599359 
L 356.252014 294.823502 
L 356.484076 294.658025 
L 356.716138 294.079434 
L 357.180261 291.839167 
L 357.876447 286.434507 
L 359.036756 276.660794 
L 359.50088 274.049389 
L 359.965004 272.834744 
L 360.197065 272.798307 
L 360.429127 273.190104 
L 360.893251 275.093929 
L 361.357375 278.272645 
L 363.21387 293.239826 
L 363.677993 294.874603 
L 363.910055 295.085596 
L 364.142117 294.841255 
L 364.374179 294.222909 
L 364.838303 291.949091 
L 365.534488 286.477612 
L 366.694798 276.538741 
L 367.158921 273.960459 
L 367.623045 272.751594 
L 367.855107 272.742409 
L 368.087169 273.137142 
L 368.551292 275.076727 
L 369.015416 278.282683 
L 370.871911 293.313572 
L 371.336035 294.868445 
L 371.568097 295.043513 
L 371.800159 294.871399 
L 372.03222 294.259001 
L 372.496344 291.963247 
L 373.19253 286.468711 
L 374.352839 276.505192 
L 374.816963 273.895155 
L 375.281086 272.647539 
L 375.513148 272.651105 
L 375.74521 273.051365 
L 375.977272 273.811786 
L 376.441396 276.45361 
L 377.137581 282.227827 
L 378.297891 291.962637 
L 378.762014 294.286938 
L 378.994076 294.966167 
L 379.226138 295.197886 
L 379.4582 295.007797 
L 379.690262 294.506509 
L 380.154386 292.18296 
L 380.850571 286.654702 
L 382.01088 276.451578 
L 382.475004 273.732473 
L 382.939128 272.452601 
L 383.17119 272.421707 
L 383.403252 272.797518 
L 383.867375 274.721149 
L 384.563561 279.933483 
L 385.955932 292.055322 
L 386.420056 294.474515 
L 386.652118 295.145632 
L 386.88418 295.388976 
L 387.116241 295.21279 
L 387.348303 294.605849 
L 387.812427 292.304532 
L 388.508613 286.745215 
L 389.668922 276.447812 
L 390.133046 273.680858 
L 390.597169 272.354104 
L 390.829231 272.310804 
L 391.061293 272.681896 
L 391.293355 273.431888 
L 391.757479 276.094798 
L 392.453664 281.987323 
L 393.613974 292.05469 
L 394.078097 294.554432 
L 394.310159 295.255445 
L 394.542221 295.488 
L 394.774283 295.332179 
L 395.006345 294.759653 
L 395.470469 292.393944 
L 396.166654 286.795527 
L 397.326963 276.444665 
L 397.791087 273.61915 
L 398.255211 272.257478 
L 398.487273 272.207544 
L 398.487273 272.207544 
" style="fill:none;stroke:#008000;stroke-linecap:square;stroke-width:1.5;"/>
   </g>
   <g id="patch_3">
    <path d="M 57.6 307.584 
L 57.6 41.472 
" style="fill:none;stroke:#000000;stroke-linecap:square;stroke-linejoin:miter;stroke-width:0.8;"/>
   </g>
   <g id="patch_4">
    <path d="M 414.72 307.584 
L 414.72 41.472 
" style="fill:none;stroke:#000000;stroke-linecap:square;stroke-linejoin:miter;stroke-width:0.8;"/>
   </g>
   <g id="patch_5">
    <path d="M 57.6 307.584 
L 414.72 307.584 
" style="fill:none;stroke:#000000;stroke-linecap:square;stroke-linejoin:miter;stroke-width:0.8;"/>
   </g>
   <g id="patch_6">
    <path d="M 57.6 41.472 
L 414.72 41.472 
" style="fill:none;stroke:#000000;stroke-linecap:square;stroke-linejoin:miter;stroke-width:0.8;"/>
   </g>
   <g id="legend_1">
    <g id="patch_7">
     <path d="M 351.0075 198.045187 
L 407.72 198.045187 
Q 409.72 198.045187 409.72 196.045187 
L 409.72 153.010812 
Q 409.72 151.010812 407.72 151.010812 
L 351.0075 151.010812 
Q 349.0075 151.010812 349.0075 153.010812 
L 349.0075 196.045187 
Q 349.0075 198.045187 351.0075 198.045187 
z
" style="fill:#ffffff;opacity:0.8;stroke:#cccccc;stroke-linejoin:miter;"/>
    </g>
    <g id="line2d_18">
     <path d="M 353.0075 159.10925 
L 373.0075 159.10925 
" style="fill:none;stroke:#1f77b4;stroke-linecap:square;stroke-width:1.5;"/>
    </g>
    <g id="line2d_19"/>
    <g id="text_15">
     <!-- 0-&gt;1 -->
     <defs>
      <path d="M 4.890625 31.390625 
L 31.203125 31.390625 
L 31.203125 23.390625 
L 4.890625 23.390625 
z
" id="DejaVuSans-45"/>
      <path d="M 10.59375 49.21875 
L 10.59375 58.109375 
L 73.1875 35.40625 
L 73.1875 27.296875 
L 10.59375 4.59375 
L 10.59375 13.484375 
L 60.890625 31.296875 
z
" id="DejaVuSans-62"/>
     </defs>
     <g transform="translate(381.0075 162.60925)scale(0.1 -0.1)">
      <use xlink:href="#DejaVuSans-48"/>
      <use x="63.623047" xlink:href="#DejaVuSans-45"/>
      <use x="99.707031" xlink:href="#DejaVuSans-62"/>
      <use x="183.496094" xlink:href="#DejaVuSans-49"/>
     </g>
    </g>
    <g id="line2d_20">
     <path d="M 353.0075 173.787375 
L 373.0075 173.787375 
" style="fill:none;stroke:#ff0000;stroke-linecap:square;stroke-width:1.5;"/>
    </g>
    <g id="line2d_21"/>
    <g id="text_16">
     <!-- 1-&gt;0 -->
     <g transform="translate(381.0075 177.287375)scale(0.1 -0.1)">
      <use xlink:href="#DejaVuSans-49"/>
      <use x="63.623047" xlink:href="#DejaVuSans-45"/>
      <use x="99.707031" xlink:href="#DejaVuSans-62"/>
      <use x="183.496094" xlink:href="#DejaVuSans-48"/>
     </g>
    </g>
    <g id="line2d_22">
     <path d="M 353.0075 188.4655 
L 373.0075 188.4655 
" style="fill:none;stroke:#008000;stroke-linecap:square;stroke-width:1.5;"/>
    </g>
    <g id="line2d_23"/>
    <g id="text_17">
     <!-- diff -->
     <defs>
      <path d="M 45.40625 46.390625 
L 45.40625 75.984375 
L 54.390625 75.984375 
L 54.390625 0 
L 45.40625 0 
L 45.40625 8.203125 
Q 42.578125 3.328125 38.25 0.953125 
Q 33.9375 -1.421875 27.875 -1.421875 
Q 17.96875 -1.421875 11.734375 6.484375 
Q 5.515625 14.40625 5.515625 27.296875 
Q 5.515625 40.1875 11.734375 48.09375 
Q 17.96875 56 27.875 56 
Q 33.9375 56 38.25 53.625 
Q 42.578125 51.265625 45.40625 46.390625 
z
M 14.796875 27.296875 
Q 14.796875 17.390625 18.875 11.75 
Q 22.953125 6.109375 30.078125 6.109375 
Q 37.203125 6.109375 41.296875 11.75 
Q 45.40625 17.390625 45.40625 27.296875 
Q 45.40625 37.203125 41.296875 42.84375 
Q 37.203125 48.484375 30.078125 48.484375 
Q 22.953125 48.484375 18.875 42.84375 
Q 14.796875 37.203125 14.796875 27.296875 
z
" id="DejaVuSans-100"/>
      <path d="M 9.421875 54.6875 
L 18.40625 54.6875 
L 18.40625 0 
L 9.421875 0 
z
M 9.421875 75.984375 
L 18.40625 75.984375 
L 18.40625 64.59375 
L 9.421875 64.59375 
z
" id="DejaVuSans-105"/>
      <path d="M 37.109375 75.984375 
L 37.109375 68.5 
L 28.515625 68.5 
Q 23.6875 68.5 21.796875 66.546875 
Q 19.921875 64.59375 19.921875 59.515625 
L 19.921875 54.6875 
L 34.71875 54.6875 
L 34.71875 47.703125 
L 19.921875 47.703125 
L 19.921875 0 
L 10.890625 0 
L 10.890625 47.703125 
L 2.296875 47.703125 
L 2.296875 54.6875 
L 10.890625 54.6875 
L 10.890625 58.5 
Q 10.890625 67.625 15.140625 71.796875 
Q 19.390625 75.984375 28.609375 75.984375 
z
" id="DejaVuSans-102"/>
     </defs>
     <g transform="translate(381.0075 191.9655)scale(0.1 -0.1)">
      <use xlink:href="#DejaVuSans-100"/>
      <use x="63.476562" xlink:href="#DejaVuSans-105"/>
      <use x="91.259766" xlink:href="#DejaVuSans-102"/>
      <use x="126.464844" xlink:href="#DejaVuSans-102"/>
     </g>
    </g>
   </g>
  </g>
 </g>
 <defs>
  <clipPath id="pddcc790372">
   <rect height="266.112" width="357.12" x="57.6" y="41.472"/>
  </clipPath>
 </defs>
</svg>
