<?xml version="1.0" encoding="utf-8" standalone="no"?>
<!DOCTYPE svg PUBLIC "-//W3C//DTD SVG 1.1//EN"
  "http://www.w3.org/Graphics/SVG/1.1/DTD/svg11.dtd">
<!-- Created with matplotlib (https://matplotlib.org/) -->
<svg height="345.6pt" version="1.1" viewBox="0 0 460.8 345.6" width="460.8pt" xmlns="http://www.w3.org/2000/svg" xmlns:xlink="http://www.w3.org/1999/xlink">
 <defs>
  <style type="text/css">
*{stroke-linecap:butt;stroke-linejoin:round;}
  </style>
 </defs>
 <g id="figure_1">
  <g id="patch_1">
   <path d="M 0 345.6 
L 460.8 345.6 
L 460.8 0 
L 0 0 
z
" style="fill:#ffffff;"/>
  </g>
  <g id="axes_1">
   <g id="patch_2">
    <path d="M 57.6 307.584 
L 414.72 307.584 
L 414.72 41.472 
L 57.6 41.472 
z
" style="fill:#ffffff;"/>
   </g>
   <g id="matplotlib.axis_1">
    <g id="xtick_1">
     <g id="line2d_1">
      <defs>
       <path d="M 0 0 
L 0 3.5 
" id="m4c2ba7cf68" style="stroke:#000000;stroke-width:0.8;"/>
      </defs>
      <g>
       <use style="stroke:#000000;stroke-width:0.8;" x="73.832727" xlink:href="#m4c2ba7cf68" y="307.584"/>
      </g>
     </g>
     <g id="text_1">
      <!-- 0 -->
      <defs>
       <path d="M 31.78125 66.40625 
Q 24.171875 66.40625 20.328125 58.90625 
Q 16.5 51.421875 16.5 36.375 
Q 16.5 21.390625 20.328125 13.890625 
Q 24.171875 6.390625 31.78125 6.390625 
Q 39.453125 6.390625 43.28125 13.890625 
Q 47.125 21.390625 47.125 36.375 
Q 47.125 51.421875 43.28125 58.90625 
Q 39.453125 66.40625 31.78125 66.40625 
z
M 31.78125 74.21875 
Q 44.046875 74.21875 50.515625 64.515625 
Q 56.984375 54.828125 56.984375 36.375 
Q 56.984375 17.96875 50.515625 8.265625 
Q 44.046875 -1.421875 31.78125 -1.421875 
Q 19.53125 -1.421875 13.0625 8.265625 
Q 6.59375 17.96875 6.59375 36.375 
Q 6.59375 54.828125 13.0625 64.515625 
Q 19.53125 74.21875 31.78125 74.21875 
z
" id="DejaVuSans-48"/>
      </defs>
      <g transform="translate(70.651477 322.182437)scale(0.1 -0.1)">
       <use xlink:href="#DejaVuSans-48"/>
      </g>
     </g>
    </g>
    <g id="xtick_2">
     <g id="line2d_2">
      <g>
       <use style="stroke:#000000;stroke-width:0.8;" x="120.2451" xlink:href="#m4c2ba7cf68" y="307.584"/>
      </g>
     </g>
     <g id="text_2">
      <!-- 200 -->
      <defs>
       <path d="M 19.1875 8.296875 
L 53.609375 8.296875 
L 53.609375 0 
L 7.328125 0 
L 7.328125 8.296875 
Q 12.9375 14.109375 22.625 23.890625 
Q 32.328125 33.6875 34.8125 36.53125 
Q 39.546875 41.84375 41.421875 45.53125 
Q 43.3125 49.21875 43.3125 52.78125 
Q 43.3125 58.59375 39.234375 62.25 
Q 35.15625 65.921875 28.609375 65.921875 
Q 23.96875 65.921875 18.8125 64.3125 
Q 13.671875 62.703125 7.8125 59.421875 
L 7.8125 69.390625 
Q 13.765625 71.78125 18.9375 73 
Q 24.125 74.21875 28.421875 74.21875 
Q 39.75 74.21875 46.484375 68.546875 
Q 53.21875 62.890625 53.21875 53.421875 
Q 53.21875 48.921875 51.53125 44.890625 
Q 49.859375 40.875 45.40625 35.40625 
Q 44.1875 33.984375 37.640625 27.21875 
Q 31.109375 20.453125 19.1875 8.296875 
z
" id="DejaVuSans-50"/>
      </defs>
      <g transform="translate(110.70135 322.182437)scale(0.1 -0.1)">
       <use xlink:href="#DejaVuSans-50"/>
       <use x="63.623047" xlink:href="#DejaVuSans-48"/>
       <use x="127.246094" xlink:href="#DejaVuSans-48"/>
      </g>
     </g>
    </g>
    <g id="xtick_3">
     <g id="line2d_3">
      <g>
       <use style="stroke:#000000;stroke-width:0.8;" x="166.657472" xlink:href="#m4c2ba7cf68" y="307.584"/>
      </g>
     </g>
     <g id="text_3">
      <!-- 400 -->
      <defs>
       <path d="M 37.796875 64.3125 
L 12.890625 25.390625 
L 37.796875 25.390625 
z
M 35.203125 72.90625 
L 47.609375 72.90625 
L 47.609375 25.390625 
L 58.015625 25.390625 
L 58.015625 17.1875 
L 47.609375 17.1875 
L 47.609375 0 
L 37.796875 0 
L 37.796875 17.1875 
L 4.890625 17.1875 
L 4.890625 26.703125 
z
" id="DejaVuSans-52"/>
      </defs>
      <g transform="translate(157.113722 322.182437)scale(0.1 -0.1)">
       <use xlink:href="#DejaVuSans-52"/>
       <use x="63.623047" xlink:href="#DejaVuSans-48"/>
       <use x="127.246094" xlink:href="#DejaVuSans-48"/>
      </g>
     </g>
    </g>
    <g id="xtick_4">
     <g id="line2d_4">
      <g>
       <use style="stroke:#000000;stroke-width:0.8;" x="213.069845" xlink:href="#m4c2ba7cf68" y="307.584"/>
      </g>
     </g>
     <g id="text_4">
      <!-- 600 -->
      <defs>
       <path d="M 33.015625 40.375 
Q 26.375 40.375 22.484375 35.828125 
Q 18.609375 31.296875 18.609375 23.390625 
Q 18.609375 15.53125 22.484375 10.953125 
Q 26.375 6.390625 33.015625 6.390625 
Q 39.65625 6.390625 43.53125 10.953125 
Q 47.40625 15.53125 47.40625 23.390625 
Q 47.40625 31.296875 43.53125 35.828125 
Q 39.65625 40.375 33.015625 40.375 
z
M 52.59375 71.296875 
L 52.59375 62.3125 
Q 48.875 64.0625 45.09375 64.984375 
Q 41.3125 65.921875 37.59375 65.921875 
Q 27.828125 65.921875 22.671875 59.328125 
Q 17.53125 52.734375 16.796875 39.40625 
Q 19.671875 43.65625 24.015625 45.921875 
Q 28.375 48.1875 33.59375 48.1875 
Q 44.578125 48.1875 50.953125 41.515625 
Q 57.328125 34.859375 57.328125 23.390625 
Q 57.328125 12.15625 50.6875 5.359375 
Q 44.046875 -1.421875 33.015625 -1.421875 
Q 20.359375 -1.421875 13.671875 8.265625 
Q 6.984375 17.96875 6.984375 36.375 
Q 6.984375 53.65625 15.1875 63.9375 
Q 23.390625 74.21875 37.203125 74.21875 
Q 40.921875 74.21875 44.703125 73.484375 
Q 48.484375 72.75 52.59375 71.296875 
z
" id="DejaVuSans-54"/>
      </defs>
      <g transform="translate(203.526095 322.182437)scale(0.1 -0.1)">
       <use xlink:href="#DejaVuSans-54"/>
       <use x="63.623047" xlink:href="#DejaVuSans-48"/>
       <use x="127.246094" xlink:href="#DejaVuSans-48"/>
      </g>
     </g>
    </g>
    <g id="xtick_5">
     <g id="line2d_5">
      <g>
       <use style="stroke:#000000;stroke-width:0.8;" x="259.482217" xlink:href="#m4c2ba7cf68" y="307.584"/>
      </g>
     </g>
     <g id="text_5">
      <!-- 800 -->
      <defs>
       <path d="M 31.78125 34.625 
Q 24.75 34.625 20.71875 30.859375 
Q 16.703125 27.09375 16.703125 20.515625 
Q 16.703125 13.921875 20.71875 10.15625 
Q 24.75 6.390625 31.78125 6.390625 
Q 38.8125 6.390625 42.859375 10.171875 
Q 46.921875 13.96875 46.921875 20.515625 
Q 46.921875 27.09375 42.890625 30.859375 
Q 38.875 34.625 31.78125 34.625 
z
M 21.921875 38.8125 
Q 15.578125 40.375 12.03125 44.71875 
Q 8.5 49.078125 8.5 55.328125 
Q 8.5 64.0625 14.71875 69.140625 
Q 20.953125 74.21875 31.78125 74.21875 
Q 42.671875 74.21875 48.875 69.140625 
Q 55.078125 64.0625 55.078125 55.328125 
Q 55.078125 49.078125 51.53125 44.71875 
Q 48 40.375 41.703125 38.8125 
Q 48.828125 37.15625 52.796875 32.3125 
Q 56.78125 27.484375 56.78125 20.515625 
Q 56.78125 9.90625 50.3125 4.234375 
Q 43.84375 -1.421875 31.78125 -1.421875 
Q 19.734375 -1.421875 13.25 4.234375 
Q 6.78125 9.90625 6.78125 20.515625 
Q 6.78125 27.484375 10.78125 32.3125 
Q 14.796875 37.15625 21.921875 38.8125 
z
M 18.3125 54.390625 
Q 18.3125 48.734375 21.84375 45.5625 
Q 25.390625 42.390625 31.78125 42.390625 
Q 38.140625 42.390625 41.71875 45.5625 
Q 45.3125 48.734375 45.3125 54.390625 
Q 45.3125 60.0625 41.71875 63.234375 
Q 38.140625 66.40625 31.78125 66.40625 
Q 25.390625 66.40625 21.84375 63.234375 
Q 18.3125 60.0625 18.3125 54.390625 
z
" id="DejaVuSans-56"/>
      </defs>
      <g transform="translate(249.938467 322.182437)scale(0.1 -0.1)">
       <use xlink:href="#DejaVuSans-56"/>
       <use x="63.623047" xlink:href="#DejaVuSans-48"/>
       <use x="127.246094" xlink:href="#DejaVuSans-48"/>
      </g>
     </g>
    </g>
    <g id="xtick_6">
     <g id="line2d_6">
      <g>
       <use style="stroke:#000000;stroke-width:0.8;" x="305.89459" xlink:href="#m4c2ba7cf68" y="307.584"/>
      </g>
     </g>
     <g id="text_6">
      <!-- 1000 -->
      <defs>
       <path d="M 12.40625 8.296875 
L 28.515625 8.296875 
L 28.515625 63.921875 
L 10.984375 60.40625 
L 10.984375 69.390625 
L 28.421875 72.90625 
L 38.28125 72.90625 
L 38.28125 8.296875 
L 54.390625 8.296875 
L 54.390625 0 
L 12.40625 0 
z
" id="DejaVuSans-49"/>
      </defs>
      <g transform="translate(293.16959 322.182437)scale(0.1 -0.1)">
       <use xlink:href="#DejaVuSans-49"/>
       <use x="63.623047" xlink:href="#DejaVuSans-48"/>
       <use x="127.246094" xlink:href="#DejaVuSans-48"/>
       <use x="190.869141" xlink:href="#DejaVuSans-48"/>
      </g>
     </g>
    </g>
    <g id="xtick_7">
     <g id="line2d_7">
      <g>
       <use style="stroke:#000000;stroke-width:0.8;" x="352.306962" xlink:href="#m4c2ba7cf68" y="307.584"/>
      </g>
     </g>
     <g id="text_7">
      <!-- 1200 -->
      <g transform="translate(339.581962 322.182437)scale(0.1 -0.1)">
       <use xlink:href="#DejaVuSans-49"/>
       <use x="63.623047" xlink:href="#DejaVuSans-50"/>
       <use x="127.246094" xlink:href="#DejaVuSans-48"/>
       <use x="190.869141" xlink:href="#DejaVuSans-48"/>
      </g>
     </g>
    </g>
    <g id="xtick_8">
     <g id="line2d_8">
      <g>
       <use style="stroke:#000000;stroke-width:0.8;" x="398.719335" xlink:href="#m4c2ba7cf68" y="307.584"/>
      </g>
     </g>
     <g id="text_8">
      <!-- 1400 -->
      <g transform="translate(385.994335 322.182437)scale(0.1 -0.1)">
       <use xlink:href="#DejaVuSans-49"/>
       <use x="63.623047" xlink:href="#DejaVuSans-52"/>
       <use x="127.246094" xlink:href="#DejaVuSans-48"/>
       <use x="190.869141" xlink:href="#DejaVuSans-48"/>
      </g>
     </g>
    </g>
   </g>
   <g id="matplotlib.axis_2">
    <g id="ytick_1">
     <g id="line2d_9">
      <defs>
       <path d="M 0 0 
L -3.5 0 
" id="m0d35427474" style="stroke:#000000;stroke-width:0.8;"/>
      </defs>
      <g>
       <use style="stroke:#000000;stroke-width:0.8;" x="57.6" xlink:href="#m0d35427474" y="293.024882"/>
      </g>
     </g>
     <g id="text_9">
      <!-- 0.0 -->
      <defs>
       <path d="M 10.6875 12.40625 
L 21 12.40625 
L 21 0 
L 10.6875 0 
z
" id="DejaVuSans-46"/>
      </defs>
      <g transform="translate(34.696875 296.824101)scale(0.1 -0.1)">
       <use xlink:href="#DejaVuSans-48"/>
       <use x="63.623047" xlink:href="#DejaVuSans-46"/>
       <use x="95.410156" xlink:href="#DejaVuSans-48"/>
      </g>
     </g>
    </g>
    <g id="ytick_2">
     <g id="line2d_10">
      <g>
       <use style="stroke:#000000;stroke-width:0.8;" x="57.6" xlink:href="#m0d35427474" y="253.188614"/>
      </g>
     </g>
     <g id="text_10">
      <!-- 0.1 -->
      <g transform="translate(34.696875 256.987833)scale(0.1 -0.1)">
       <use xlink:href="#DejaVuSans-48"/>
       <use x="63.623047" xlink:href="#DejaVuSans-46"/>
       <use x="95.410156" xlink:href="#DejaVuSans-49"/>
      </g>
     </g>
    </g>
    <g id="ytick_3">
     <g id="line2d_11">
      <g>
       <use style="stroke:#000000;stroke-width:0.8;" x="57.6" xlink:href="#m0d35427474" y="213.352347"/>
      </g>
     </g>
     <g id="text_11">
      <!-- 0.2 -->
      <g transform="translate(34.696875 217.151566)scale(0.1 -0.1)">
       <use xlink:href="#DejaVuSans-48"/>
       <use x="63.623047" xlink:href="#DejaVuSans-46"/>
       <use x="95.410156" xlink:href="#DejaVuSans-50"/>
      </g>
     </g>
    </g>
    <g id="ytick_4">
     <g id="line2d_12">
      <g>
       <use style="stroke:#000000;stroke-width:0.8;" x="57.6" xlink:href="#m0d35427474" y="173.51608"/>
      </g>
     </g>
     <g id="text_12">
      <!-- 0.3 -->
      <defs>
       <path d="M 40.578125 39.3125 
Q 47.65625 37.796875 51.625 33 
Q 55.609375 28.21875 55.609375 21.1875 
Q 55.609375 10.40625 48.1875 4.484375 
Q 40.765625 -1.421875 27.09375 -1.421875 
Q 22.515625 -1.421875 17.65625 -0.515625 
Q 12.796875 0.390625 7.625 2.203125 
L 7.625 11.71875 
Q 11.71875 9.328125 16.59375 8.109375 
Q 21.484375 6.890625 26.8125 6.890625 
Q 36.078125 6.890625 40.9375 10.546875 
Q 45.796875 14.203125 45.796875 21.1875 
Q 45.796875 27.640625 41.28125 31.265625 
Q 36.765625 34.90625 28.71875 34.90625 
L 20.21875 34.90625 
L 20.21875 43.015625 
L 29.109375 43.015625 
Q 36.375 43.015625 40.234375 45.921875 
Q 44.09375 48.828125 44.09375 54.296875 
Q 44.09375 59.90625 40.109375 62.90625 
Q 36.140625 65.921875 28.71875 65.921875 
Q 24.65625 65.921875 20.015625 65.03125 
Q 15.375 64.15625 9.8125 62.3125 
L 9.8125 71.09375 
Q 15.4375 72.65625 20.34375 73.4375 
Q 25.25 74.21875 29.59375 74.21875 
Q 40.828125 74.21875 47.359375 69.109375 
Q 53.90625 64.015625 53.90625 55.328125 
Q 53.90625 49.265625 50.4375 45.09375 
Q 46.96875 40.921875 40.578125 39.3125 
z
" id="DejaVuSans-51"/>
      </defs>
      <g transform="translate(34.696875 177.315298)scale(0.1 -0.1)">
       <use xlink:href="#DejaVuSans-48"/>
       <use x="63.623047" xlink:href="#DejaVuSans-46"/>
       <use x="95.410156" xlink:href="#DejaVuSans-51"/>
      </g>
     </g>
    </g>
    <g id="ytick_5">
     <g id="line2d_13">
      <g>
       <use style="stroke:#000000;stroke-width:0.8;" x="57.6" xlink:href="#m0d35427474" y="133.679812"/>
      </g>
     </g>
     <g id="text_13">
      <!-- 0.4 -->
      <g transform="translate(34.696875 137.479031)scale(0.1 -0.1)">
       <use xlink:href="#DejaVuSans-48"/>
       <use x="63.623047" xlink:href="#DejaVuSans-46"/>
       <use x="95.410156" xlink:href="#DejaVuSans-52"/>
      </g>
     </g>
    </g>
    <g id="ytick_6">
     <g id="line2d_14">
      <g>
       <use style="stroke:#000000;stroke-width:0.8;" x="57.6" xlink:href="#m0d35427474" y="93.843545"/>
      </g>
     </g>
     <g id="text_14">
      <!-- 0.5 -->
      <defs>
       <path d="M 10.796875 72.90625 
L 49.515625 72.90625 
L 49.515625 64.59375 
L 19.828125 64.59375 
L 19.828125 46.734375 
Q 21.96875 47.46875 24.109375 47.828125 
Q 26.265625 48.1875 28.421875 48.1875 
Q 40.625 48.1875 47.75 41.5 
Q 54.890625 34.8125 54.890625 23.390625 
Q 54.890625 11.625 47.5625 5.09375 
Q 40.234375 -1.421875 26.90625 -1.421875 
Q 22.3125 -1.421875 17.546875 -0.640625 
Q 12.796875 0.140625 7.71875 1.703125 
L 7.71875 11.625 
Q 12.109375 9.234375 16.796875 8.0625 
Q 21.484375 6.890625 26.703125 6.890625 
Q 35.15625 6.890625 40.078125 11.328125 
Q 45.015625 15.765625 45.015625 23.390625 
Q 45.015625 31 40.078125 35.4375 
Q 35.15625 39.890625 26.703125 39.890625 
Q 22.75 39.890625 18.8125 39.015625 
Q 14.890625 38.140625 10.796875 36.28125 
z
" id="DejaVuSans-53"/>
      </defs>
      <g transform="translate(34.696875 97.642764)scale(0.1 -0.1)">
       <use xlink:href="#DejaVuSans-48"/>
       <use x="63.623047" xlink:href="#DejaVuSans-46"/>
       <use x="95.410156" xlink:href="#DejaVuSans-53"/>
      </g>
     </g>
    </g>
    <g id="ytick_7">
     <g id="line2d_15">
      <g>
       <use style="stroke:#000000;stroke-width:0.8;" x="57.6" xlink:href="#m0d35427474" y="54.007277"/>
      </g>
     </g>
     <g id="text_15">
      <!-- 0.6 -->
      <g transform="translate(34.696875 57.806496)scale(0.1 -0.1)">
       <use xlink:href="#DejaVuSans-48"/>
       <use x="63.623047" xlink:href="#DejaVuSans-46"/>
       <use x="95.410156" xlink:href="#DejaVuSans-54"/>
      </g>
     </g>
    </g>
   </g>
   <g id="line2d_16">
    <path clip-path="url(#pdf662ff4d9)" d="M 73.832727 58.967094 
L 75.689222 60.683441 
L 76.385408 60.929271 
L 77.081593 60.746769 
L 77.777779 60.203405 
L 79.634274 58.400998 
L 80.098398 58.205343 
L 80.794583 58.269026 
L 81.490769 58.612189 
L 83.347264 59.96182 
L 84.043449 60.101921 
L 84.507573 59.966735 
L 84.971697 59.681063 
L 85.899944 58.808313 
L 87.060253 57.705315 
L 87.756439 57.362703 
L 88.220563 57.319862 
L 88.916748 57.535422 
L 91.005305 58.770982 
L 91.701491 58.816343 
L 92.397676 58.513873 
L 93.093862 57.976925 
L 94.950357 56.360101 
L 95.41448 56.176741 
L 96.110666 56.174578 
L 96.806852 56.43489 
L 98.431285 57.324945 
L 99.12747 57.410101 
L 99.823656 57.19695 
L 100.519841 56.684598 
L 102.376336 55.144875 
L 103.072522 54.875126 
L 103.768708 54.895786 
L 104.464893 55.153758 
L 105.857264 55.923174 
L 106.55345 56.098391 
L 107.017574 56.085064 
L 107.945821 55.650533 
L 110.498502 53.967005 
L 111.194687 53.980647 
L 112.122935 54.401406 
L 113.747368 55.385218 
L 114.211491 55.497078 
L 114.907677 55.464158 
L 115.835924 55.019977 
L 117.460357 53.939672 
L 118.156543 53.722717 
L 118.852729 53.78202 
L 119.548914 54.112053 
L 121.869533 55.420431 
L 122.565718 55.390541 
L 123.261904 55.118769 
L 125.814584 53.727044 
L 126.51077 53.784507 
L 127.206956 54.097456 
L 129.295512 55.253432 
L 129.991698 55.353652 
L 130.687884 55.187674 
L 132.544378 54.129009 
L 133.240564 53.841346 
L 133.93675 53.793283 
L 134.632935 53.986193 
L 135.793245 54.641745 
L 136.721492 55.111014 
L 137.649739 55.258179 
L 138.345925 55.104734 
L 139.274172 54.663181 
L 140.434482 54.035762 
L 141.130667 53.861519 
L 141.826853 53.893005 
L 142.7551 54.257181 
L 144.611595 55.140749 
L 145.307781 55.209489 
L 146.003966 55.068228 
L 146.932214 54.616591 
L 148.324585 53.948087 
L 149.020771 53.831102 
L 149.716956 53.945478 
L 150.645204 54.357446 
L 152.269637 55.102355 
L 152.965822 55.168513 
L 153.89407 54.945268 
L 156.44675 53.866088 
L 157.142936 53.895606 
L 158.071183 54.209743 
L 159.695616 54.955219 
L 160.623864 55.108929 
L 161.320049 55.007785 
L 162.712421 54.453578 
L 163.640668 54.081334 
L 164.336854 53.968169 
L 165.033039 54.036616 
L 166.193348 54.497453 
L 167.353658 54.975492 
L 168.049843 55.10973 
L 168.746029 55.064827 
L 169.674276 54.748012 
L 171.298709 54.092734 
L 171.994895 54.011717 
L 172.923143 54.158266 
L 174.315514 54.709446 
L 175.243761 55.008225 
L 175.939947 55.074191 
L 176.636132 54.947082 
L 178.028503 54.413062 
L 179.188813 54.035482 
L 179.884998 54.008126 
L 180.813246 54.214563 
L 182.901803 54.982534 
L 183.83005 55.012155 
L 184.758297 54.796302 
L 185.918607 54.336544 
L 187.078916 54.038494 
L 187.775102 54.056344 
L 188.703349 54.303493 
L 190.559844 54.922028 
L 191.488091 54.949788 
L 192.416339 54.735665 
L 194.504896 54.08678 
L 195.665205 54.148592 
L 196.825514 54.488903 
L 198.449947 54.899368 
L 199.378195 54.859151 
L 200.538504 54.530473 
L 202.162937 54.084192 
L 203.091185 54.088117 
L 204.483556 54.473212 
L 205.875927 54.829247 
L 206.804174 54.841234 
L 207.964484 54.581524 
L 209.588917 54.140207 
L 210.517164 54.123538 
L 211.909535 54.426325 
L 213.533968 54.800265 
L 214.462216 54.7792 
L 215.854587 54.465206 
L 217.014896 54.167076 
L 217.943144 54.091679 
L 218.871391 54.231316 
L 221.424072 54.824105 
L 222.352319 54.74314 
L 223.976752 54.297458 
L 225.137062 54.085299 
L 226.065309 54.140196 
L 227.225618 54.427252 
L 228.617989 54.72564 
L 229.778299 54.71288 
L 233.027165 54.036236 
L 234.187474 54.19686 
L 236.043969 54.643968 
L 236.972217 54.676297 
L 237.900464 54.513075 
L 240.221083 54.015614 
L 241.14933 54.044972 
L 242.541701 54.360833 
L 243.934072 54.656505 
L 244.86232 54.64488 
L 246.022629 54.38869 
L 247.415 54.016492 
L 248.807371 54.004884 
L 249.967681 54.294723 
L 251.824176 54.669804 
L 252.752423 54.582607 
L 256.233351 53.922681 
L 257.161599 54.101895 
L 259.482217 54.618545 
L 260.642526 54.50173 
L 263.659331 53.902512 
L 264.587578 54.035418 
L 267.140259 54.64448 
L 268.068506 54.577319 
L 269.228815 54.277848 
L 270.389125 53.980918 
L 271.317372 53.880857 
L 272.709743 54.130836 
L 274.7983 54.55149 
L 275.958609 54.486634 
L 279.207475 53.933402 
L 280.599847 54.167326 
L 282.22428 54.479997 
L 283.384589 54.462692 
L 284.77696 54.167074 
L 285.937269 53.926497 
L 287.097579 53.935599 
L 288.722012 54.248839 
L 290.346445 54.490852 
L 291.506754 54.39154 
L 294.059435 53.913148 
L 294.987682 53.947618 
L 296.844177 54.313642 
L 298.004486 54.46261 
L 299.164796 54.360164 
L 302.1816 53.883331 
L 303.573971 54.083197 
L 305.89459 54.430931 
L 307.286961 54.257452 
L 309.375518 53.888533 
L 310.535827 53.941995 
L 313.552631 54.384053 
L 314.71294 54.269192 
L 317.497683 53.853121 
L 318.42593 53.931758 
L 321.210673 54.32007 
L 322.603044 54.18957 
L 324.923662 53.789984 
L 326.083972 53.840573 
L 328.636652 54.269082 
L 329.796961 54.196738 
L 333.045828 53.788876 
L 334.670261 53.996667 
L 336.062632 54.180378 
L 337.455003 54.133397 
L 340.703869 53.799941 
L 343.024488 54.065274 
L 344.416859 54.122353 
L 346.041292 53.964425 
L 347.897787 53.788431 
L 349.52222 53.892849 
L 352.0749 54.076867 
L 353.467271 53.953036 
L 355.555828 53.773281 
L 357.180261 53.840231 
L 360.429127 54.000211 
L 364.606241 53.769543 
L 368.319231 53.965085 
L 372.264282 53.690269 
L 376.209334 53.839497 
L 380.618509 53.710535 
L 384.099437 53.840384 
L 390.597169 53.737287 
L 394.310159 53.624327 
L 396.630778 53.591011 
L 398.487273 53.641661 
L 398.487273 53.641661 
" style="fill:none;stroke:#1f77b4;stroke-linecap:square;stroke-width:1.5;"/>
   </g>
   <g id="line2d_17">
    <path clip-path="url(#pdf662ff4d9)" d="M 73.832727 60.4127 
L 75.921284 58.593145 
L 76.61747 58.465382 
L 77.081593 58.595941 
L 78.009841 59.223533 
L 79.634274 60.537299 
L 80.098398 60.674885 
L 80.562521 60.634661 
L 81.258707 60.260263 
L 82.186954 59.347527 
L 83.347264 58.19678 
L 84.043449 57.801773 
L 84.507573 57.760613 
L 85.203759 57.979711 
L 85.899944 58.427064 
L 87.060253 59.231718 
L 87.756439 59.443256 
L 88.220563 59.400808 
L 88.916748 59.063036 
L 89.612934 58.469636 
L 91.005305 57.269915 
L 91.701491 56.938142 
L 92.165614 56.887081 
L 92.8618 57.07521 
L 95.182419 57.982138 
L 95.878604 57.84934 
L 96.57479 57.440566 
L 97.270975 56.888735 
L 98.663347 55.8012 
L 99.359532 55.5626 
L 100.055718 55.612442 
L 100.983965 56.0223 
L 102.376336 56.63357 
L 103.536646 56.460866 
L 104.232831 56.044572 
L 106.55345 54.405776 
L 107.249635 54.312127 
L 107.945821 54.491497 
L 110.498502 55.639746 
L 111.194687 55.523342 
L 111.890873 55.162709 
L 113.979429 53.815861 
L 114.675615 53.742901 
L 115.371801 53.946486 
L 116.300048 54.533598 
L 117.460357 55.253247 
L 118.156543 55.449772 
L 118.852729 55.379148 
L 119.548914 55.063023 
L 121.637471 53.813452 
L 122.333657 53.755353 
L 123.029842 53.945213 
L 123.95809 54.492143 
L 125.118399 55.197491 
L 125.814584 55.366325 
L 126.51077 55.305907 
L 127.206956 55.003137 
L 129.295512 53.826145 
L 129.991698 53.804585 
L 130.687884 53.959742 
L 131.616131 54.445117 
L 133.008502 55.226845 
L 133.93675 55.294515 
L 134.632935 55.099605 
L 136.025306 54.295103 
L 136.953554 53.871267 
L 137.649739 53.808141 
L 138.113863 53.912915 
L 139.042111 54.309346 
L 140.666544 55.130677 
L 141.594791 55.221183 
L 142.290977 55.031354 
L 142.987162 54.701445 
L 144.379533 54.008145 
L 145.075719 53.865548 
L 145.771905 53.935246 
L 146.700152 54.314226 
L 148.324585 55.086143 
L 149.020771 55.185661 
L 149.716956 55.067966 
L 150.645204 54.66953 
L 152.037575 53.986811 
L 152.501699 53.869199 
L 153.89407 54.102273 
L 155.054379 54.639337 
L 155.982627 55.027109 
L 156.678812 55.125525 
L 157.374998 55.017105 
L 158.535307 54.522579 
L 159.695616 54.020028 
L 160.391802 53.943012 
L 161.552111 54.146398 
L 163.408606 54.922419 
L 164.104792 55.10394 
L 164.800977 55.096373 
L 165.729225 54.817725 
L 167.58572 54.075524 
L 168.281905 54.00487 
L 169.210153 54.195158 
L 171.994895 55.082922 
L 172.923143 54.936512 
L 174.315514 54.384957 
L 175.475823 54.018281 
L 176.40407 54.070595 
L 177.332318 54.365533 
L 179.188813 55.009149 
L 179.884998 55.04259 
L 180.813246 54.825075 
L 183.133864 54.072976 
L 183.83005 54.06135 
L 184.758297 54.28605 
L 186.846854 54.99603 
L 187.54304 54.995286 
L 188.703349 54.725358 
L 190.559844 54.060632 
L 191.25603 54.045526 
L 192.880463 54.431029 
L 194.272834 54.881837 
L 195.201081 54.928865 
L 196.129329 54.753936 
L 197.5217 54.290871 
L 198.449947 54.087449 
L 199.378195 54.122663 
L 200.538504 54.413646 
L 201.930875 54.823658 
L 202.859123 54.860097 
L 204.019432 54.615173 
L 205.875927 54.121336 
L 206.804174 54.112177 
L 207.964484 54.36513 
L 209.588917 54.816902 
L 210.517164 54.850704 
L 212.141597 54.43623 
L 213.301907 54.147651 
L 214.462216 54.131768 
L 215.622525 54.362435 
L 217.246958 54.765986 
L 218.407268 54.774323 
L 220.031701 54.362315 
L 221.19201 54.129335 
L 222.352319 54.178204 
L 223.74469 54.537356 
L 224.905 54.759946 
L 226.065309 54.731312 
L 229.314175 54.068545 
L 230.706546 54.298098 
L 232.563041 54.704572 
L 233.72335 54.645823 
L 236.740155 54.017011 
L 237.900464 54.156149 
L 240.453144 54.654087 
L 241.845516 54.489866 
L 243.702011 54.044588 
L 244.398196 54.002338 
L 245.790567 54.195653 
L 248.111186 54.650054 
L 249.271495 54.539691 
L 250.199743 54.276398 
L 251.824176 53.92875 
L 252.752423 54.021206 
L 256.001289 54.630831 
L 256.929537 54.483993 
L 259.250155 53.907866 
L 260.874588 54.087392 
L 263.659331 54.597479 
L 264.355516 54.571874 
L 267.37232 53.887803 
L 268.53263 54.046117 
L 271.317372 54.582213 
L 272.24562 54.486814 
L 275.494486 53.922553 
L 277.118919 54.263493 
L 278.279228 54.515317 
L 279.671599 54.480342 
L 281.296032 54.088982 
L 282.456342 53.901465 
L 283.616651 53.987738 
L 286.865517 54.48575 
L 288.025826 54.302355 
L 290.114383 53.960472 
L 290.810569 53.971666 
L 291.970878 54.109555 
L 293.827373 54.4407 
L 295.219744 54.398907 
L 298.236548 53.890965 
L 299.628919 54.061954 
L 301.717476 54.41273 
L 302.645724 54.387547 
L 304.270157 54.089167 
L 305.430466 53.904541 
L 307.054899 54.008999 
L 309.607579 54.405407 
L 310.999951 54.26791 
L 313.552631 53.880904 
L 314.945002 53.991516 
L 317.497683 54.352461 
L 318.657992 54.241109 
L 321.674796 53.862674 
L 323.299229 54.068881 
L 324.923662 54.272508 
L 326.083972 54.206821 
L 328.868714 53.790205 
L 330.261085 53.928749 
L 332.349642 54.208532 
L 334.438199 54.02131 
L 336.294694 53.767765 
L 337.687065 53.840342 
L 340.007683 54.197368 
L 342.560364 53.919245 
L 344.184797 53.803028 
L 345.577168 53.882913 
L 348.36191 54.086443 
L 350.218405 53.895074 
L 351.610777 53.795566 
L 353.699333 53.891403 
L 355.78789 54.050011 
L 357.412323 53.946823 
L 359.732942 53.726721 
L 361.821498 53.883264 
L 363.21387 53.984041 
L 364.606241 53.971901 
L 367.855107 53.734481 
L 369.47954 53.827217 
L 371.336035 53.931751 
L 372.728406 53.844211 
L 374.584901 53.696922 
L 375.74521 53.664267 
L 379.922324 53.822938 
L 385.955932 53.799548 
L 387.812427 53.79242 
L 392.685726 53.61841 
L 396.166654 53.687531 
L 398.487273 53.620693 
L 398.487273 53.620693 
" style="fill:none;stroke:#ff0000;stroke-linecap:square;stroke-width:1.5;"/>
   </g>
   <g id="line2d_18">
    <path clip-path="url(#pdf662ff4d9)" d="M 73.832727 291.579276 
L 75.689222 295.00561 
L 76.153346 295.389897 
L 76.385408 295.488 
L 76.849531 295.364279 
L 77.313655 294.902467 
L 78.009841 293.765167 
L 79.402212 291.150108 
L 79.866336 290.686789 
L 80.330459 290.538479 
L 80.794583 290.745545 
L 81.258707 291.262035 
L 81.722831 291.971816 
L 83.347264 294.789922 
L 83.811387 295.222989 
L 84.275511 295.3357 
L 84.739635 295.080964 
L 85.43582 294.206015 
L 87.292315 291.246277 
L 87.756439 290.944329 
L 88.220563 290.943935 
L 88.684686 291.246426 
L 89.380872 292.133661 
L 90.773243 294.283906 
L 91.237367 294.711928 
L 91.701491 294.903083 
L 92.165614 294.78606 
L 92.629738 294.384901 
L 93.325924 293.505717 
L 94.718295 291.602969 
L 95.182419 291.293531 
L 95.646542 291.253569 
L 96.110666 291.458649 
L 96.806852 292.171721 
L 98.431285 294.414514 
L 98.895408 294.736945 
L 99.359532 294.829994 
L 99.823656 294.653978 
L 100.28778 294.221373 
L 102.376336 291.536187 
L 103.072522 291.295373 
L 103.536646 291.415348 
L 104.000769 291.769901 
L 104.929017 292.960019 
L 105.857264 294.1802 
L 106.55345 294.717497 
L 107.017574 294.799939 
L 107.481697 294.590187 
L 108.177883 293.909909 
L 110.034378 291.578005 
L 110.498502 291.35214 
L 110.962625 291.386675 
L 111.426749 291.661142 
L 112.122935 292.421245 
L 113.515306 294.272791 
L 114.211491 294.762295 
L 114.675615 294.787137 
L 115.139739 294.55668 
L 115.835924 293.831356 
L 117.460357 291.711307 
L 118.156543 291.297827 
L 118.620667 291.323405 
L 119.08479 291.593485 
L 119.780976 292.368313 
L 121.173347 294.196704 
L 121.869533 294.687982 
L 122.333657 294.699565 
L 122.79778 294.496736 
L 123.261904 294.08479 
L 124.422213 292.580617 
L 125.118399 291.766514 
L 125.582523 291.435029 
L 126.046646 291.36576 
L 126.51077 291.503482 
L 126.974894 291.876924 
L 127.903141 293.004932 
L 129.063451 294.292424 
L 129.527574 294.546362 
L 129.991698 294.573948 
L 130.455822 294.415932 
L 131.152007 293.806492 
L 133.240564 291.603023 
L 133.704688 291.483149 
L 134.168811 291.598569 
L 134.632935 291.911471 
L 135.561183 292.95691 
L 136.721492 294.187025 
L 137.417678 294.494194 
L 137.881801 294.426857 
L 138.577987 293.955455 
L 139.506234 292.975896 
L 140.434482 292.01507 
L 140.898605 291.739823 
L 141.362729 291.628983 
L 141.826853 291.7305 
L 142.523039 292.211618 
L 144.379533 294.088856 
L 144.843657 294.321315 
L 145.307781 294.368606 
L 145.771905 294.229746 
L 146.46809 293.697461 
L 148.324585 291.886826 
L 148.788709 291.689415 
L 149.252833 291.695952 
L 149.949018 292.061962 
L 150.645204 292.712797 
L 152.037575 294.075549 
L 152.501699 294.302106 
L 153.197884 294.251703 
L 153.89407 293.867877 
L 154.822317 292.994801 
L 155.750565 292.118666 
L 156.44675 291.776528 
L 156.910874 291.778962 
L 157.374998 291.95554 
L 158.303245 292.718347 
L 159.695616 293.960073 
L 160.391802 294.17697 
L 161.087988 294.071683 
L 161.784173 293.642428 
L 162.712421 292.843605 
L 163.640668 292.087866 
L 164.336854 291.873585 
L 164.800977 291.920289 
L 165.265101 292.15234 
L 166.657472 293.343753 
L 167.353658 293.889912 
L 168.049843 294.138323 
L 168.513967 294.099436 
L 169.210153 293.774719 
L 170.370462 292.813896 
L 171.298709 292.13099 
L 171.994895 291.953677 
L 172.691081 292.150761 
L 173.155204 292.394507 
L 174.315514 293.349371 
L 175.243761 293.967647 
L 175.707885 294.089198 
L 176.172009 294.044738 
L 176.868194 293.711046 
L 178.260565 292.574444 
L 178.956751 292.146249 
L 179.652937 291.976305 
L 180.11706 292.044156 
L 180.813246 292.41437 
L 182.901803 293.900577 
L 183.597988 294.016322 
L 184.294174 293.799574 
L 184.990359 293.379084 
L 186.846854 292.096914 
L 187.310978 292.033509 
L 188.007164 292.208793 
L 188.703349 292.603018 
L 190.327782 293.792586 
L 191.023968 293.97792 
L 191.720153 293.81424 
L 192.648401 293.324453 
L 194.504896 292.192243 
L 195.201081 292.184243 
L 195.897267 292.408448 
L 196.825514 292.976021 
L 197.985824 293.681206 
L 198.682009 293.863218 
L 199.378195 293.761369 
L 200.306442 293.30539 
L 201.698813 292.421356 
L 202.394999 292.220774 
L 203.091185 292.279553 
L 204.019432 292.730744 
L 205.643865 293.659177 
L 206.340051 293.797719 
L 207.036236 293.687719 
L 207.964484 293.241276 
L 209.124793 292.540568 
L 209.820979 292.286889 
L 210.517164 292.297716 
L 211.677474 292.805802 
L 213.301907 293.64692 
L 213.998092 293.733309 
L 214.694278 293.606944 
L 215.622525 293.195679 
L 217.014896 292.462141 
L 217.711082 292.317148 
L 218.407268 292.384358 
L 219.567577 292.939923 
L 220.959948 293.655134 
L 221.656134 293.730367 
L 222.352319 293.589817 
L 223.280567 293.13547 
L 224.440876 292.504426 
L 225.137062 292.333935 
L 225.833247 292.364776 
L 226.529433 292.635168 
L 228.617989 293.646426 
L 229.314175 293.706221 
L 230.010361 293.545743 
L 231.402732 292.815058 
L 232.330979 292.425506 
L 233.027165 292.348432 
L 233.72335 292.487845 
L 234.88366 293.042664 
L 235.811907 293.519208 
L 236.508093 293.692464 
L 237.204278 293.627206 
L 238.132526 293.268696 
L 239.756959 292.474662 
L 240.453144 292.376188 
L 241.14933 292.46651 
L 242.309639 292.958471 
L 243.702011 293.608662 
L 244.398196 293.699941 
L 245.326444 293.505885 
L 246.486753 292.894455 
L 247.182938 292.527478 
L 248.111186 292.338871 
L 249.039433 292.477758 
L 251.824176 293.765936 
L 252.520361 293.684973 
L 253.912732 293.001406 
L 255.073042 292.417508 
L 255.769227 292.291167 
L 256.465413 292.386169 
L 257.39366 292.847195 
L 259.018093 293.664449 
L 259.482217 293.725794 
L 260.410465 293.587844 
L 261.802836 292.897044 
L 262.731083 292.446271 
L 263.427269 292.314362 
L 264.355516 292.438267 
L 265.515826 293.065832 
L 266.444073 293.577866 
L 267.140259 293.774811 
L 267.836444 293.719506 
L 268.764692 293.339114 
L 270.621187 292.392935 
L 271.781496 292.390078 
L 272.709743 292.770986 
L 274.334176 293.56221 
L 275.030362 293.687936 
L 275.726548 293.599181 
L 276.886857 293.092075 
L 278.279228 292.448314 
L 279.207475 292.421079 
L 280.135723 292.694134 
L 282.456342 293.618219 
L 283.152527 293.579224 
L 284.080775 293.28206 
L 286.401393 292.444135 
L 287.097579 292.492908 
L 288.257888 292.923804 
L 289.650259 293.519075 
L 290.810569 293.530774 
L 291.738816 293.293344 
L 294.059435 292.487482 
L 294.987682 292.549908 
L 295.683868 292.781212 
L 297.308301 293.462447 
L 298.004486 293.597865 
L 298.932734 293.478923 
L 299.860981 293.123814 
L 301.717476 292.497519 
L 302.413662 292.515835 
L 303.573971 292.865576 
L 304.966342 293.419186 
L 305.662528 293.550855 
L 306.590775 293.467435 
L 307.751085 293.029308 
L 308.911394 292.581998 
L 310.303765 292.56977 
L 312.16026 293.230127 
L 313.088507 293.487268 
L 313.784693 293.516863 
L 314.71294 293.334662 
L 317.497683 292.525543 
L 318.193868 292.623791 
L 319.122116 292.92067 
L 320.282425 293.352419 
L 321.210673 293.496631 
L 322.13892 293.392371 
L 323.299229 293.002075 
L 324.923662 292.542357 
L 325.85191 292.600453 
L 326.548095 292.849245 
L 328.172528 293.440964 
L 329.100776 293.49098 
L 330.261085 293.215526 
L 332.11758 292.618737 
L 333.277889 292.657546 
L 335.134384 293.187678 
L 336.294694 293.445682 
L 337.222941 293.38654 
L 338.151189 293.12026 
L 339.775622 292.638569 
L 340.471807 292.629109 
L 341.632116 292.845976 
L 343.720673 293.343694 
L 345.345106 293.224066 
L 347.897787 292.709919 
L 348.826034 292.780236 
L 351.610777 293.305617 
L 353.003148 293.205629 
L 355.78789 292.743897 
L 356.716138 292.815126 
L 359.965004 293.326672 
L 361.357375 293.07932 
L 363.677993 292.701783 
L 365.070365 292.888009 
L 367.623045 293.303221 
L 369.015416 293.12827 
L 371.103973 292.77549 
L 372.03222 292.795537 
L 375.513148 293.245725 
L 377.369643 293.007936 
L 378.762014 292.79968 
L 379.690262 292.849365 
L 381.314695 293.052782 
L 382.707066 293.190368 
L 384.099437 293.174134 
L 385.491808 293.006427 
L 386.88418 292.8737 
L 388.044489 292.917859 
L 391.757479 293.140317 
L 393.14985 293.071707 
L 395.238407 292.898536 
L 398.487273 293.045851 
L 398.487273 293.045851 
" style="fill:none;stroke:#008000;stroke-linecap:square;stroke-width:1.5;"/>
   </g>
   <g id="patch_3">
    <path d="M 57.6 307.584 
L 57.6 41.472 
" style="fill:none;stroke:#000000;stroke-linecap:square;stroke-linejoin:miter;stroke-width:0.8;"/>
   </g>
   <g id="patch_4">
    <path d="M 414.72 307.584 
L 414.72 41.472 
" style="fill:none;stroke:#000000;stroke-linecap:square;stroke-linejoin:miter;stroke-width:0.8;"/>
   </g>
   <g id="patch_5">
    <path d="M 57.6 307.584 
L 414.72 307.584 
" style="fill:none;stroke:#000000;stroke-linecap:square;stroke-linejoin:miter;stroke-width:0.8;"/>
   </g>
   <g id="patch_6">
    <path d="M 57.6 41.472 
L 414.72 41.472 
" style="fill:none;stroke:#000000;stroke-linecap:square;stroke-linejoin:miter;stroke-width:0.8;"/>
   </g>
   <g id="legend_1">
    <g id="patch_7">
     <path d="M 351.0075 198.045187 
L 407.72 198.045187 
Q 409.72 198.045187 409.72 196.045187 
L 409.72 153.010812 
Q 409.72 151.010812 407.72 151.010812 
L 351.0075 151.010812 
Q 349.0075 151.010812 349.0075 153.010812 
L 349.0075 196.045187 
Q 349.0075 198.045187 351.0075 198.045187 
z
" style="fill:#ffffff;opacity:0.8;stroke:#cccccc;stroke-linejoin:miter;"/>
    </g>
    <g id="line2d_19">
     <path d="M 353.0075 159.10925 
L 373.0075 159.10925 
" style="fill:none;stroke:#1f77b4;stroke-linecap:square;stroke-width:1.5;"/>
    </g>
    <g id="line2d_20"/>
    <g id="text_16">
     <!-- 0-&gt;1 -->
     <defs>
      <path d="M 4.890625 31.390625 
L 31.203125 31.390625 
L 31.203125 23.390625 
L 4.890625 23.390625 
z
" id="DejaVuSans-45"/>
      <path d="M 10.59375 49.21875 
L 10.59375 58.109375 
L 73.1875 35.40625 
L 73.1875 27.296875 
L 10.59375 4.59375 
L 10.59375 13.484375 
L 60.890625 31.296875 
z
" id="DejaVuSans-62"/>
     </defs>
     <g transform="translate(381.0075 162.60925)scale(0.1 -0.1)">
      <use xlink:href="#DejaVuSans-48"/>
      <use x="63.623047" xlink:href="#DejaVuSans-45"/>
      <use x="99.707031" xlink:href="#DejaVuSans-62"/>
      <use x="183.496094" xlink:href="#DejaVuSans-49"/>
     </g>
    </g>
    <g id="line2d_21">
     <path d="M 353.0075 173.787375 
L 373.0075 173.787375 
" style="fill:none;stroke:#ff0000;stroke-linecap:square;stroke-width:1.5;"/>
    </g>
    <g id="line2d_22"/>
    <g id="text_17">
     <!-- 1-&gt;0 -->
     <g transform="translate(381.0075 177.287375)scale(0.1 -0.1)">
      <use xlink:href="#DejaVuSans-49"/>
      <use x="63.623047" xlink:href="#DejaVuSans-45"/>
      <use x="99.707031" xlink:href="#DejaVuSans-62"/>
      <use x="183.496094" xlink:href="#DejaVuSans-48"/>
     </g>
    </g>
    <g id="line2d_23">
     <path d="M 353.0075 188.4655 
L 373.0075 188.4655 
" style="fill:none;stroke:#008000;stroke-linecap:square;stroke-width:1.5;"/>
    </g>
    <g id="line2d_24"/>
    <g id="text_18">
     <!-- diff -->
     <defs>
      <path d="M 45.40625 46.390625 
L 45.40625 75.984375 
L 54.390625 75.984375 
L 54.390625 0 
L 45.40625 0 
L 45.40625 8.203125 
Q 42.578125 3.328125 38.25 0.953125 
Q 33.9375 -1.421875 27.875 -1.421875 
Q 17.96875 -1.421875 11.734375 6.484375 
Q 5.515625 14.40625 5.515625 27.296875 
Q 5.515625 40.1875 11.734375 48.09375 
Q 17.96875 56 27.875 56 
Q 33.9375 56 38.25 53.625 
Q 42.578125 51.265625 45.40625 46.390625 
z
M 14.796875 27.296875 
Q 14.796875 17.390625 18.875 11.75 
Q 22.953125 6.109375 30.078125 6.109375 
Q 37.203125 6.109375 41.296875 11.75 
Q 45.40625 17.390625 45.40625 27.296875 
Q 45.40625 37.203125 41.296875 42.84375 
Q 37.203125 48.484375 30.078125 48.484375 
Q 22.953125 48.484375 18.875 42.84375 
Q 14.796875 37.203125 14.796875 27.296875 
z
" id="DejaVuSans-100"/>
      <path d="M 9.421875 54.6875 
L 18.40625 54.6875 
L 18.40625 0 
L 9.421875 0 
z
M 9.421875 75.984375 
L 18.40625 75.984375 
L 18.40625 64.59375 
L 9.421875 64.59375 
z
" id="DejaVuSans-105"/>
      <path d="M 37.109375 75.984375 
L 37.109375 68.5 
L 28.515625 68.5 
Q 23.6875 68.5 21.796875 66.546875 
Q 19.921875 64.59375 19.921875 59.515625 
L 19.921875 54.6875 
L 34.71875 54.6875 
L 34.71875 47.703125 
L 19.921875 47.703125 
L 19.921875 0 
L 10.890625 0 
L 10.890625 47.703125 
L 2.296875 47.703125 
L 2.296875 54.6875 
L 10.890625 54.6875 
L 10.890625 58.5 
Q 10.890625 67.625 15.140625 71.796875 
Q 19.390625 75.984375 28.609375 75.984375 
z
" id="DejaVuSans-102"/>
     </defs>
     <g transform="translate(381.0075 191.9655)scale(0.1 -0.1)">
      <use xlink:href="#DejaVuSans-100"/>
      <use x="63.476562" xlink:href="#DejaVuSans-105"/>
      <use x="91.259766" xlink:href="#DejaVuSans-102"/>
      <use x="126.464844" xlink:href="#DejaVuSans-102"/>
     </g>
    </g>
   </g>
  </g>
 </g>
 <defs>
  <clipPath id="pdf662ff4d9">
   <rect height="266.112" width="357.12" x="57.6" y="41.472"/>
  </clipPath>
 </defs>
</svg>
