<?xml version="1.0" encoding="utf-8" standalone="no"?>
<!DOCTYPE svg PUBLIC "-//W3C//DTD SVG 1.1//EN"
  "http://www.w3.org/Graphics/SVG/1.1/DTD/svg11.dtd">
<!-- Created with matplotlib (https://matplotlib.org/) -->
<svg height="345.6pt" version="1.1" viewBox="0 0 460.8 345.6" width="460.8pt" xmlns="http://www.w3.org/2000/svg" xmlns:xlink="http://www.w3.org/1999/xlink">
 <defs>
  <style type="text/css">
*{stroke-linecap:butt;stroke-linejoin:round;}
  </style>
 </defs>
 <g id="figure_1">
  <g id="patch_1">
   <path d="M 0 345.6 
L 460.8 345.6 
L 460.8 0 
L 0 0 
z
" style="fill:#ffffff;"/>
  </g>
  <g id="axes_1">
   <g id="patch_2">
    <path d="M 57.6 307.584 
L 414.72 307.584 
L 414.72 41.472 
L 57.6 41.472 
z
" style="fill:#ffffff;"/>
   </g>
   <g id="matplotlib.axis_1">
    <g id="xtick_1">
     <g id="line2d_1">
      <defs>
       <path d="M 0 0 
L 0 3.5 
" id="mbaac22ae26" style="stroke:#000000;stroke-width:0.8;"/>
      </defs>
      <g>
       <use style="stroke:#000000;stroke-width:0.8;" x="73.832727" xlink:href="#mbaac22ae26" y="307.584"/>
      </g>
     </g>
     <g id="text_1">
      <!-- 0 -->
      <defs>
       <path d="M 31.78125 66.40625 
Q 24.171875 66.40625 20.328125 58.90625 
Q 16.5 51.421875 16.5 36.375 
Q 16.5 21.390625 20.328125 13.890625 
Q 24.171875 6.390625 31.78125 6.390625 
Q 39.453125 6.390625 43.28125 13.890625 
Q 47.125 21.390625 47.125 36.375 
Q 47.125 51.421875 43.28125 58.90625 
Q 39.453125 66.40625 31.78125 66.40625 
z
M 31.78125 74.21875 
Q 44.046875 74.21875 50.515625 64.515625 
Q 56.984375 54.828125 56.984375 36.375 
Q 56.984375 17.96875 50.515625 8.265625 
Q 44.046875 -1.421875 31.78125 -1.421875 
Q 19.53125 -1.421875 13.0625 8.265625 
Q 6.59375 17.96875 6.59375 36.375 
Q 6.59375 54.828125 13.0625 64.515625 
Q 19.53125 74.21875 31.78125 74.21875 
z
" id="DejaVuSans-48"/>
      </defs>
      <g transform="translate(70.651477 322.182437)scale(0.1 -0.1)">
       <use xlink:href="#DejaVuSans-48"/>
      </g>
     </g>
    </g>
    <g id="xtick_2">
     <g id="line2d_2">
      <g>
       <use style="stroke:#000000;stroke-width:0.8;" x="120.2451" xlink:href="#mbaac22ae26" y="307.584"/>
      </g>
     </g>
     <g id="text_2">
      <!-- 200 -->
      <defs>
       <path d="M 19.1875 8.296875 
L 53.609375 8.296875 
L 53.609375 0 
L 7.328125 0 
L 7.328125 8.296875 
Q 12.9375 14.109375 22.625 23.890625 
Q 32.328125 33.6875 34.8125 36.53125 
Q 39.546875 41.84375 41.421875 45.53125 
Q 43.3125 49.21875 43.3125 52.78125 
Q 43.3125 58.59375 39.234375 62.25 
Q 35.15625 65.921875 28.609375 65.921875 
Q 23.96875 65.921875 18.8125 64.3125 
Q 13.671875 62.703125 7.8125 59.421875 
L 7.8125 69.390625 
Q 13.765625 71.78125 18.9375 73 
Q 24.125 74.21875 28.421875 74.21875 
Q 39.75 74.21875 46.484375 68.546875 
Q 53.21875 62.890625 53.21875 53.421875 
Q 53.21875 48.921875 51.53125 44.890625 
Q 49.859375 40.875 45.40625 35.40625 
Q 44.1875 33.984375 37.640625 27.21875 
Q 31.109375 20.453125 19.1875 8.296875 
z
" id="DejaVuSans-50"/>
      </defs>
      <g transform="translate(110.70135 322.182437)scale(0.1 -0.1)">
       <use xlink:href="#DejaVuSans-50"/>
       <use x="63.623047" xlink:href="#DejaVuSans-48"/>
       <use x="127.246094" xlink:href="#DejaVuSans-48"/>
      </g>
     </g>
    </g>
    <g id="xtick_3">
     <g id="line2d_3">
      <g>
       <use style="stroke:#000000;stroke-width:0.8;" x="166.657472" xlink:href="#mbaac22ae26" y="307.584"/>
      </g>
     </g>
     <g id="text_3">
      <!-- 400 -->
      <defs>
       <path d="M 37.796875 64.3125 
L 12.890625 25.390625 
L 37.796875 25.390625 
z
M 35.203125 72.90625 
L 47.609375 72.90625 
L 47.609375 25.390625 
L 58.015625 25.390625 
L 58.015625 17.1875 
L 47.609375 17.1875 
L 47.609375 0 
L 37.796875 0 
L 37.796875 17.1875 
L 4.890625 17.1875 
L 4.890625 26.703125 
z
" id="DejaVuSans-52"/>
      </defs>
      <g transform="translate(157.113722 322.182437)scale(0.1 -0.1)">
       <use xlink:href="#DejaVuSans-52"/>
       <use x="63.623047" xlink:href="#DejaVuSans-48"/>
       <use x="127.246094" xlink:href="#DejaVuSans-48"/>
      </g>
     </g>
    </g>
    <g id="xtick_4">
     <g id="line2d_4">
      <g>
       <use style="stroke:#000000;stroke-width:0.8;" x="213.069845" xlink:href="#mbaac22ae26" y="307.584"/>
      </g>
     </g>
     <g id="text_4">
      <!-- 600 -->
      <defs>
       <path d="M 33.015625 40.375 
Q 26.375 40.375 22.484375 35.828125 
Q 18.609375 31.296875 18.609375 23.390625 
Q 18.609375 15.53125 22.484375 10.953125 
Q 26.375 6.390625 33.015625 6.390625 
Q 39.65625 6.390625 43.53125 10.953125 
Q 47.40625 15.53125 47.40625 23.390625 
Q 47.40625 31.296875 43.53125 35.828125 
Q 39.65625 40.375 33.015625 40.375 
z
M 52.59375 71.296875 
L 52.59375 62.3125 
Q 48.875 64.0625 45.09375 64.984375 
Q 41.3125 65.921875 37.59375 65.921875 
Q 27.828125 65.921875 22.671875 59.328125 
Q 17.53125 52.734375 16.796875 39.40625 
Q 19.671875 43.65625 24.015625 45.921875 
Q 28.375 48.1875 33.59375 48.1875 
Q 44.578125 48.1875 50.953125 41.515625 
Q 57.328125 34.859375 57.328125 23.390625 
Q 57.328125 12.15625 50.6875 5.359375 
Q 44.046875 -1.421875 33.015625 -1.421875 
Q 20.359375 -1.421875 13.671875 8.265625 
Q 6.984375 17.96875 6.984375 36.375 
Q 6.984375 53.65625 15.1875 63.9375 
Q 23.390625 74.21875 37.203125 74.21875 
Q 40.921875 74.21875 44.703125 73.484375 
Q 48.484375 72.75 52.59375 71.296875 
z
" id="DejaVuSans-54"/>
      </defs>
      <g transform="translate(203.526095 322.182437)scale(0.1 -0.1)">
       <use xlink:href="#DejaVuSans-54"/>
       <use x="63.623047" xlink:href="#DejaVuSans-48"/>
       <use x="127.246094" xlink:href="#DejaVuSans-48"/>
      </g>
     </g>
    </g>
    <g id="xtick_5">
     <g id="line2d_5">
      <g>
       <use style="stroke:#000000;stroke-width:0.8;" x="259.482217" xlink:href="#mbaac22ae26" y="307.584"/>
      </g>
     </g>
     <g id="text_5">
      <!-- 800 -->
      <defs>
       <path d="M 31.78125 34.625 
Q 24.75 34.625 20.71875 30.859375 
Q 16.703125 27.09375 16.703125 20.515625 
Q 16.703125 13.921875 20.71875 10.15625 
Q 24.75 6.390625 31.78125 6.390625 
Q 38.8125 6.390625 42.859375 10.171875 
Q 46.921875 13.96875 46.921875 20.515625 
Q 46.921875 27.09375 42.890625 30.859375 
Q 38.875 34.625 31.78125 34.625 
z
M 21.921875 38.8125 
Q 15.578125 40.375 12.03125 44.71875 
Q 8.5 49.078125 8.5 55.328125 
Q 8.5 64.0625 14.71875 69.140625 
Q 20.953125 74.21875 31.78125 74.21875 
Q 42.671875 74.21875 48.875 69.140625 
Q 55.078125 64.0625 55.078125 55.328125 
Q 55.078125 49.078125 51.53125 44.71875 
Q 48 40.375 41.703125 38.8125 
Q 48.828125 37.15625 52.796875 32.3125 
Q 56.78125 27.484375 56.78125 20.515625 
Q 56.78125 9.90625 50.3125 4.234375 
Q 43.84375 -1.421875 31.78125 -1.421875 
Q 19.734375 -1.421875 13.25 4.234375 
Q 6.78125 9.90625 6.78125 20.515625 
Q 6.78125 27.484375 10.78125 32.3125 
Q 14.796875 37.15625 21.921875 38.8125 
z
M 18.3125 54.390625 
Q 18.3125 48.734375 21.84375 45.5625 
Q 25.390625 42.390625 31.78125 42.390625 
Q 38.140625 42.390625 41.71875 45.5625 
Q 45.3125 48.734375 45.3125 54.390625 
Q 45.3125 60.0625 41.71875 63.234375 
Q 38.140625 66.40625 31.78125 66.40625 
Q 25.390625 66.40625 21.84375 63.234375 
Q 18.3125 60.0625 18.3125 54.390625 
z
" id="DejaVuSans-56"/>
      </defs>
      <g transform="translate(249.938467 322.182437)scale(0.1 -0.1)">
       <use xlink:href="#DejaVuSans-56"/>
       <use x="63.623047" xlink:href="#DejaVuSans-48"/>
       <use x="127.246094" xlink:href="#DejaVuSans-48"/>
      </g>
     </g>
    </g>
    <g id="xtick_6">
     <g id="line2d_6">
      <g>
       <use style="stroke:#000000;stroke-width:0.8;" x="305.89459" xlink:href="#mbaac22ae26" y="307.584"/>
      </g>
     </g>
     <g id="text_6">
      <!-- 1000 -->
      <defs>
       <path d="M 12.40625 8.296875 
L 28.515625 8.296875 
L 28.515625 63.921875 
L 10.984375 60.40625 
L 10.984375 69.390625 
L 28.421875 72.90625 
L 38.28125 72.90625 
L 38.28125 8.296875 
L 54.390625 8.296875 
L 54.390625 0 
L 12.40625 0 
z
" id="DejaVuSans-49"/>
      </defs>
      <g transform="translate(293.16959 322.182437)scale(0.1 -0.1)">
       <use xlink:href="#DejaVuSans-49"/>
       <use x="63.623047" xlink:href="#DejaVuSans-48"/>
       <use x="127.246094" xlink:href="#DejaVuSans-48"/>
       <use x="190.869141" xlink:href="#DejaVuSans-48"/>
      </g>
     </g>
    </g>
    <g id="xtick_7">
     <g id="line2d_7">
      <g>
       <use style="stroke:#000000;stroke-width:0.8;" x="352.306962" xlink:href="#mbaac22ae26" y="307.584"/>
      </g>
     </g>
     <g id="text_7">
      <!-- 1200 -->
      <g transform="translate(339.581962 322.182437)scale(0.1 -0.1)">
       <use xlink:href="#DejaVuSans-49"/>
       <use x="63.623047" xlink:href="#DejaVuSans-50"/>
       <use x="127.246094" xlink:href="#DejaVuSans-48"/>
       <use x="190.869141" xlink:href="#DejaVuSans-48"/>
      </g>
     </g>
    </g>
    <g id="xtick_8">
     <g id="line2d_8">
      <g>
       <use style="stroke:#000000;stroke-width:0.8;" x="398.719335" xlink:href="#mbaac22ae26" y="307.584"/>
      </g>
     </g>
     <g id="text_8">
      <!-- 1400 -->
      <g transform="translate(385.994335 322.182437)scale(0.1 -0.1)">
       <use xlink:href="#DejaVuSans-49"/>
       <use x="63.623047" xlink:href="#DejaVuSans-52"/>
       <use x="127.246094" xlink:href="#DejaVuSans-48"/>
       <use x="190.869141" xlink:href="#DejaVuSans-48"/>
      </g>
     </g>
    </g>
   </g>
   <g id="matplotlib.axis_2">
    <g id="ytick_1">
     <g id="line2d_9">
      <defs>
       <path d="M 0 0 
L -3.5 0 
" id="m79d0e2715f" style="stroke:#000000;stroke-width:0.8;"/>
      </defs>
      <g>
       <use style="stroke:#000000;stroke-width:0.8;" x="57.6" xlink:href="#m79d0e2715f" y="286.428822"/>
      </g>
     </g>
     <g id="text_9">
      <!-- 0.0 -->
      <defs>
       <path d="M 10.6875 12.40625 
L 21 12.40625 
L 21 0 
L 10.6875 0 
z
" id="DejaVuSans-46"/>
      </defs>
      <g transform="translate(34.696875 290.228041)scale(0.1 -0.1)">
       <use xlink:href="#DejaVuSans-48"/>
       <use x="63.623047" xlink:href="#DejaVuSans-46"/>
       <use x="95.410156" xlink:href="#DejaVuSans-48"/>
      </g>
     </g>
    </g>
    <g id="ytick_2">
     <g id="line2d_10">
      <g>
       <use style="stroke:#000000;stroke-width:0.8;" x="57.6" xlink:href="#m79d0e2715f" y="244.63764"/>
      </g>
     </g>
     <g id="text_10">
      <!-- 0.1 -->
      <g transform="translate(34.696875 248.436859)scale(0.1 -0.1)">
       <use xlink:href="#DejaVuSans-48"/>
       <use x="63.623047" xlink:href="#DejaVuSans-46"/>
       <use x="95.410156" xlink:href="#DejaVuSans-49"/>
      </g>
     </g>
    </g>
    <g id="ytick_3">
     <g id="line2d_11">
      <g>
       <use style="stroke:#000000;stroke-width:0.8;" x="57.6" xlink:href="#m79d0e2715f" y="202.846459"/>
      </g>
     </g>
     <g id="text_11">
      <!-- 0.2 -->
      <g transform="translate(34.696875 206.645678)scale(0.1 -0.1)">
       <use xlink:href="#DejaVuSans-48"/>
       <use x="63.623047" xlink:href="#DejaVuSans-46"/>
       <use x="95.410156" xlink:href="#DejaVuSans-50"/>
      </g>
     </g>
    </g>
    <g id="ytick_4">
     <g id="line2d_12">
      <g>
       <use style="stroke:#000000;stroke-width:0.8;" x="57.6" xlink:href="#m79d0e2715f" y="161.055278"/>
      </g>
     </g>
     <g id="text_12">
      <!-- 0.3 -->
      <defs>
       <path d="M 40.578125 39.3125 
Q 47.65625 37.796875 51.625 33 
Q 55.609375 28.21875 55.609375 21.1875 
Q 55.609375 10.40625 48.1875 4.484375 
Q 40.765625 -1.421875 27.09375 -1.421875 
Q 22.515625 -1.421875 17.65625 -0.515625 
Q 12.796875 0.390625 7.625 2.203125 
L 7.625 11.71875 
Q 11.71875 9.328125 16.59375 8.109375 
Q 21.484375 6.890625 26.8125 6.890625 
Q 36.078125 6.890625 40.9375 10.546875 
Q 45.796875 14.203125 45.796875 21.1875 
Q 45.796875 27.640625 41.28125 31.265625 
Q 36.765625 34.90625 28.71875 34.90625 
L 20.21875 34.90625 
L 20.21875 43.015625 
L 29.109375 43.015625 
Q 36.375 43.015625 40.234375 45.921875 
Q 44.09375 48.828125 44.09375 54.296875 
Q 44.09375 59.90625 40.109375 62.90625 
Q 36.140625 65.921875 28.71875 65.921875 
Q 24.65625 65.921875 20.015625 65.03125 
Q 15.375 64.15625 9.8125 62.3125 
L 9.8125 71.09375 
Q 15.4375 72.65625 20.34375 73.4375 
Q 25.25 74.21875 29.59375 74.21875 
Q 40.828125 74.21875 47.359375 69.109375 
Q 53.90625 64.015625 53.90625 55.328125 
Q 53.90625 49.265625 50.4375 45.09375 
Q 46.96875 40.921875 40.578125 39.3125 
z
" id="DejaVuSans-51"/>
      </defs>
      <g transform="translate(34.696875 164.854496)scale(0.1 -0.1)">
       <use xlink:href="#DejaVuSans-48"/>
       <use x="63.623047" xlink:href="#DejaVuSans-46"/>
       <use x="95.410156" xlink:href="#DejaVuSans-51"/>
      </g>
     </g>
    </g>
    <g id="ytick_5">
     <g id="line2d_13">
      <g>
       <use style="stroke:#000000;stroke-width:0.8;" x="57.6" xlink:href="#m79d0e2715f" y="119.264096"/>
      </g>
     </g>
     <g id="text_13">
      <!-- 0.4 -->
      <g transform="translate(34.696875 123.063315)scale(0.1 -0.1)">
       <use xlink:href="#DejaVuSans-48"/>
       <use x="63.623047" xlink:href="#DejaVuSans-46"/>
       <use x="95.410156" xlink:href="#DejaVuSans-52"/>
      </g>
     </g>
    </g>
    <g id="ytick_6">
     <g id="line2d_14">
      <g>
       <use style="stroke:#000000;stroke-width:0.8;" x="57.6" xlink:href="#m79d0e2715f" y="77.472915"/>
      </g>
     </g>
     <g id="text_14">
      <!-- 0.5 -->
      <defs>
       <path d="M 10.796875 72.90625 
L 49.515625 72.90625 
L 49.515625 64.59375 
L 19.828125 64.59375 
L 19.828125 46.734375 
Q 21.96875 47.46875 24.109375 47.828125 
Q 26.265625 48.1875 28.421875 48.1875 
Q 40.625 48.1875 47.75 41.5 
Q 54.890625 34.8125 54.890625 23.390625 
Q 54.890625 11.625 47.5625 5.09375 
Q 40.234375 -1.421875 26.90625 -1.421875 
Q 22.3125 -1.421875 17.546875 -0.640625 
Q 12.796875 0.140625 7.71875 1.703125 
L 7.71875 11.625 
Q 12.109375 9.234375 16.796875 8.0625 
Q 21.484375 6.890625 26.703125 6.890625 
Q 35.15625 6.890625 40.078125 11.328125 
Q 45.015625 15.765625 45.015625 23.390625 
Q 45.015625 31 40.078125 35.4375 
Q 35.15625 39.890625 26.703125 39.890625 
Q 22.75 39.890625 18.8125 39.015625 
Q 14.890625 38.140625 10.796875 36.28125 
z
" id="DejaVuSans-53"/>
      </defs>
      <g transform="translate(34.696875 81.272133)scale(0.1 -0.1)">
       <use xlink:href="#DejaVuSans-48"/>
       <use x="63.623047" xlink:href="#DejaVuSans-46"/>
       <use x="95.410156" xlink:href="#DejaVuSans-53"/>
      </g>
     </g>
    </g>
   </g>
   <g id="line2d_15">
    <path clip-path="url(#pe786cd6c07)" d="M 73.832727 58.748199 
L 74.993037 61.554415 
L 75.45716 62.135744 
L 75.921284 62.215555 
L 76.153346 62.117249 
L 76.61747 61.534747 
L 77.081593 60.544269 
L 77.777779 58.980225 
L 78.706026 56.681092 
L 79.17015 55.943158 
L 79.634274 55.67763 
L 79.866336 55.707466 
L 80.330459 56.160268 
L 80.794583 57.03122 
L 81.722831 59.534477 
L 82.651078 61.732197 
L 83.115202 62.32689 
L 83.579325 62.51211 
L 84.043449 62.149319 
L 84.507573 61.356273 
L 85.203759 59.487127 
L 86.364068 56.483164 
L 86.828192 55.799384 
L 87.292315 55.511225 
L 87.524377 55.490546 
L 87.988501 55.957845 
L 88.452625 56.836711 
L 88.916748 58.042103 
L 89.844996 60.812563 
L 90.30912 61.690386 
L 90.773243 62.250347 
L 91.237367 62.342158 
L 91.469429 62.233067 
L 91.933553 61.627698 
L 92.629738 60.048432 
L 94.022109 56.381236 
L 94.486233 55.734521 
L 94.950357 55.429265 
L 95.182419 55.430187 
L 95.646542 55.869997 
L 96.110666 56.756592 
L 96.806852 58.656739 
L 97.735099 61.367447 
L 98.431285 62.454345 
L 98.663347 62.596767 
L 98.895408 62.602836 
L 99.12747 62.47279 
L 99.591594 61.873629 
L 100.28778 60.208511 
L 101.680151 56.353606 
L 102.144274 55.575635 
L 102.376336 55.35456 
L 102.608398 55.292215 
L 102.84046 55.350488 
L 103.304584 55.87984 
L 103.768708 56.665038 
L 104.464893 58.595518 
L 105.393141 61.258878 
L 105.857264 62.206659 
L 106.321388 62.606618 
L 106.55345 62.62027 
L 106.785512 62.505684 
L 107.249635 61.910563 
L 107.713759 60.894333 
L 109.570254 55.898681 
L 110.034378 55.38773 
L 110.498502 55.391408 
L 110.962625 55.828094 
L 111.426749 56.729652 
L 112.122935 58.682704 
L 113.283244 61.964596 
L 113.747368 62.637214 
L 114.211491 62.665153 
L 114.443553 62.570098 
L 114.907677 62.023604 
L 115.371801 61.098519 
L 116.53211 57.799171 
L 117.228296 56.14355 
L 117.692419 55.505848 
L 117.924481 55.374851 
L 118.388605 55.596667 
L 118.852729 56.042538 
L 119.316852 57.088672 
L 121.173347 62.136356 
L 121.405409 62.46515 
L 121.869533 62.60148 
L 122.333657 62.279142 
L 122.79778 61.591026 
L 123.493966 59.84713 
L 124.886337 56.073902 
L 125.350461 55.441765 
L 125.582523 55.245337 
L 125.814584 55.205843 
L 126.278708 55.552833 
L 126.742832 56.379589 
L 127.439017 58.138934 
L 128.599327 61.453203 
L 129.063451 62.296867 
L 129.527574 62.531156 
L 129.759636 62.5232 
L 130.22376 62.057188 
L 130.687884 61.145952 
L 131.616131 58.434692 
L 132.544378 55.958218 
L 133.008502 55.189291 
L 133.472626 54.984188 
L 133.93675 55.330472 
L 134.400873 56.157919 
L 135.329121 58.668907 
L 136.48943 61.867321 
L 136.953554 62.518135 
L 137.417678 62.544051 
L 137.881801 62.078933 
L 138.577987 60.533804 
L 139.506234 57.768765 
L 140.20242 55.965568 
L 140.666544 55.242992 
L 141.130667 55.014048 
L 141.362729 55.097224 
L 141.826853 55.659767 
L 142.290977 56.671074 
L 144.147472 61.895136 
L 144.611595 62.583457 
L 145.075719 62.60228 
L 145.539843 62.215013 
L 146.003966 61.29788 
L 146.700152 59.365142 
L 147.6284 56.646619 
L 148.092523 55.661923 
L 148.556647 55.097207 
L 149.020771 54.872505 
L 149.484894 55.398756 
L 149.949018 56.392057 
L 151.109327 59.843324 
L 151.805513 61.637452 
L 152.269637 62.418329 
L 152.73376 62.546998 
L 152.965822 62.437946 
L 153.429946 61.825021 
L 153.89407 60.72938 
L 155.982627 54.981934 
L 156.44675 54.603893 
L 156.678812 54.642194 
L 156.910874 54.805185 
L 157.374998 55.549487 
L 158.071183 57.397038 
L 159.695616 61.907784 
L 160.15974 62.482086 
L 160.391802 62.509548 
L 160.623864 62.414215 
L 161.087988 61.835668 
L 161.552111 60.789764 
L 163.640668 54.929312 
L 164.104792 54.33943 
L 164.336854 54.325091 
L 164.568915 54.460526 
L 165.033039 55.146011 
L 165.497163 56.328459 
L 167.58572 62.362263 
L 167.817782 62.599342 
L 168.281905 62.589542 
L 168.513967 62.394634 
L 168.978091 61.589144 
L 169.442215 60.353436 
L 171.066648 55.258413 
L 171.530771 54.493551 
L 171.762833 54.306934 
L 171.994895 54.285214 
L 172.226957 54.407995 
L 172.691081 55.069518 
L 173.155204 56.113261 
L 175.243761 62.361277 
L 175.475823 62.605059 
L 175.939947 62.559802 
L 176.40407 62.123074 
L 176.868194 61.057603 
L 177.796442 58.064361 
L 178.724689 55.224017 
L 179.188813 54.426878 
L 179.652937 54.195685 
L 179.884998 54.309878 
L 180.349122 54.92678 
L 180.813246 56.0566 
L 182.669741 61.944285 
L 182.901803 62.376778 
L 183.365926 62.596821 
L 183.83005 62.273853 
L 184.294174 61.535496 
L 184.990359 59.455228 
L 186.382731 55.164494 
L 186.846854 54.360396 
L 187.078916 54.176235 
L 187.310978 54.138078 
L 187.54304 54.245296 
L 188.007164 54.849185 
L 188.471287 55.972112 
L 190.559844 62.277052 
L 190.791906 62.519811 
L 191.25603 62.553965 
L 191.488091 62.388511 
L 191.952215 61.599531 
L 192.648401 59.521054 
L 193.80871 55.664817 
L 194.272834 54.623849 
L 194.736958 54.200604 
L 194.969019 54.168819 
L 195.201081 54.267605 
L 195.665205 54.973425 
L 196.129329 56.206468 
L 197.985824 61.911957 
L 198.449947 62.54633 
L 198.914071 62.564142 
L 199.146133 62.374477 
L 199.610257 61.51231 
L 200.306442 59.52363 
L 201.930875 54.761158 
L 202.394999 54.270859 
L 202.627061 54.271692 
L 202.859123 54.391423 
L 203.323246 55.055026 
L 204.019432 56.805801 
L 205.643865 61.880875 
L 206.107989 62.609914 
L 206.572113 62.643381 
L 206.804174 62.470912 
L 207.268298 61.67373 
L 207.964484 59.656597 
L 209.356855 55.103596 
L 209.820979 54.361228 
L 210.05304 54.159549 
L 210.285102 54.132223 
L 210.517164 54.248214 
L 210.981288 54.912875 
L 211.445412 55.999292 
L 213.533968 62.3317 
L 213.998092 62.643871 
L 214.230154 62.591722 
L 214.462216 62.422251 
L 214.92634 61.649992 
L 215.390463 60.41245 
L 217.246958 54.589456 
L 217.711082 54.015206 
L 217.943144 53.998882 
L 218.175206 54.094998 
L 218.639329 54.725885 
L 219.103453 55.876992 
L 221.19201 62.063067 
L 221.424072 62.366749 
L 221.656134 62.454116 
L 221.888195 62.422299 
L 222.352319 61.983732 
L 222.816443 60.98902 
L 223.512629 58.753208 
L 224.672938 55.015078 
L 225.137062 54.214372 
L 225.369123 53.975392 
L 225.601185 53.906585 
L 225.833247 53.967678 
L 226.297371 54.543502 
L 226.761495 55.649749 
L 227.689742 58.793226 
L 228.617989 61.615091 
L 229.082113 62.392392 
L 229.314175 62.568406 
L 229.546237 62.531557 
L 230.010361 62.080049 
L 230.474484 61.08441 
L 231.17067 58.890838 
L 232.330979 55.143787 
L 232.795103 54.264002 
L 233.027165 54.028187 
L 233.259227 53.953498 
L 233.491289 54.034045 
L 233.955412 54.615909 
L 234.419536 55.709827 
L 235.347783 58.87279 
L 236.276031 61.717028 
L 236.740155 62.554037 
L 236.972217 62.617683 
L 237.204278 62.560187 
L 237.668402 62.11176 
L 238.132526 61.134538 
L 239.060773 58.029562 
L 239.989021 55.066398 
L 240.453144 54.180328 
L 240.685206 53.952521 
L 240.917268 53.881473 
L 241.14933 53.927247 
L 241.613454 54.559228 
L 242.077577 55.728159 
L 243.005825 58.893327 
L 243.934072 61.774286 
L 244.398196 62.531643 
L 244.630258 62.675376 
L 244.86232 62.645457 
L 245.094382 62.49012 
L 245.558505 61.736544 
L 246.022629 60.466703 
L 247.879124 54.408552 
L 248.343248 53.787944 
L 248.57531 53.749711 
L 248.807371 53.851297 
L 249.271495 54.475438 
L 249.735619 55.663364 
L 250.663866 58.869046 
L 251.592114 61.978641 
L 251.824176 62.421222 
L 252.288299 62.706497 
L 252.752423 62.498979 
L 253.216547 61.758564 
L 253.680671 60.486607 
L 255.537166 54.435775 
L 256.001289 53.79414 
L 256.233351 53.729425 
L 256.465413 53.816747 
L 256.697475 54.04014 
L 257.161599 54.940524 
L 257.857784 57.106136 
L 259.482217 62.299677 
L 259.714279 62.579505 
L 260.178403 62.508518 
L 260.642526 62.061941 
L 261.10665 61.093159 
L 261.802836 58.782315 
L 262.963145 54.87523 
L 263.427269 53.987521 
L 263.659331 53.733151 
L 263.891393 53.698752 
L 264.355516 54.018723 
L 264.81964 54.890299 
L 265.515826 57.036188 
L 266.908197 61.779475 
L 267.37232 62.607811 
L 267.604382 62.748225 
L 267.836444 62.694789 
L 268.300568 62.195383 
L 268.764692 61.196088 
L 269.460877 58.907408 
L 270.621187 55.026657 
L 271.08531 54.074839 
L 271.317372 53.816756 
L 271.549434 53.756061 
L 271.781496 53.830222 
L 272.013558 54.042411 
L 272.477681 54.913946 
L 273.405929 57.83626 
L 274.334176 60.954537 
L 275.030362 62.341235 
L 275.262424 62.539357 
L 275.726548 62.390672 
L 276.190671 61.686292 
L 276.654795 60.469859 
L 278.743352 54.032399 
L 278.975414 53.753138 
L 279.207475 53.653783 
L 279.439537 53.700552 
L 279.903661 54.239636 
L 280.367785 55.398865 
L 281.528094 59.28628 
L 282.22428 61.404056 
L 282.688403 62.333565 
L 282.920465 62.5101 
L 283.152527 62.469045 
L 283.616651 62.034734 
L 284.080775 61.107397 
L 284.77696 58.90845 
L 285.937269 55.006017 
L 286.401393 54.072849 
L 286.865517 53.645171 
L 287.097579 53.658714 
L 287.561703 54.170643 
L 288.025826 55.228565 
L 288.954074 58.288273 
L 289.882321 61.483154 
L 290.346445 62.398712 
L 290.578507 62.576348 
L 291.04263 62.394504 
L 291.274692 62.150468 
L 291.738816 61.21028 
L 292.435002 59.047354 
L 293.595311 55.109305 
L 294.059435 54.160394 
L 294.291497 53.851036 
L 294.523558 53.7503 
L 294.75562 53.776719 
L 294.987682 53.971025 
L 295.451806 54.719563 
L 296.147991 56.788577 
L 297.772424 62.283111 
L 298.004486 62.609487 
L 298.236548 62.685656 
L 298.700672 62.402735 
L 299.164796 61.664054 
L 299.860981 59.657672 
L 301.485414 54.498069 
L 301.949538 53.835139 
L 302.1816 53.767471 
L 302.413662 53.829338 
L 302.877785 54.392262 
L 303.341909 55.493506 
L 304.270157 58.713372 
L 305.198404 61.761728 
L 305.430466 62.27926 
L 305.89459 62.66998 
L 306.126652 62.645518 
L 306.590775 62.250008 
L 307.054899 61.229295 
L 307.751085 58.968456 
L 308.911394 55.101091 
L 309.375518 54.186412 
L 309.607579 53.929677 
L 309.839641 53.842098 
L 310.071703 53.904121 
L 310.535827 54.511964 
L 310.999951 55.637847 
L 313.088507 62.357744 
L 313.320569 62.638401 
L 313.784693 62.560154 
L 314.016755 62.419836 
L 314.480879 61.691191 
L 315.177064 59.690412 
L 316.569435 55.04203 
L 317.033559 54.153796 
L 317.265621 53.924088 
L 317.497683 53.858782 
L 317.729745 53.951377 
L 318.193868 54.597145 
L 318.657992 55.754546 
L 319.58624 58.949748 
L 320.514487 62.049732 
L 320.746549 62.496945 
L 320.978611 62.675544 
L 321.442734 62.580549 
L 321.674796 62.427091 
L 322.13892 61.625886 
L 322.835106 59.581885 
L 324.227477 54.977655 
L 324.6916 54.123954 
L 324.923662 53.906504 
L 325.155724 53.852749 
L 325.387786 53.957642 
L 325.85191 54.613334 
L 326.316034 55.781768 
L 327.476343 59.769193 
L 328.172528 61.901159 
L 328.40459 62.415326 
L 328.636652 62.641276 
L 329.100776 62.582713 
L 329.332838 62.420237 
L 329.796961 61.590423 
L 330.493147 59.55024 
L 331.885518 54.912135 
L 332.349642 54.05769 
L 332.581704 53.833596 
L 333.045828 53.928654 
L 333.509951 54.586051 
L 333.974075 55.758192 
L 335.134384 59.785485 
L 335.83057 61.881939 
L 336.294694 62.579669 
L 336.526755 62.701275 
L 336.990879 62.521302 
L 337.455003 61.723138 
L 338.151189 59.663444 
L 339.54356 54.937676 
L 340.007683 54.061812 
L 340.239745 53.823715 
L 340.471807 53.7696 
L 340.935931 54.050938 
L 341.400055 54.957571 
L 342.09624 57.191249 
L 343.720673 62.613771 
L 343.952735 62.727953 
L 344.416859 62.599933 
L 344.880983 62.101257 
L 345.345106 61.048484 
L 346.273354 57.86625 
L 347.201601 54.859393 
L 347.665725 53.991142 
L 347.897787 53.777175 
L 348.36191 53.853621 
L 348.593972 54.107058 
L 349.058096 55.077354 
L 349.754282 57.356606 
L 350.914591 61.244993 
L 351.378715 62.353473 
L 351.610777 62.597858 
L 352.0749 62.488565 
L 352.539024 61.997703 
L 353.003148 60.952123 
L 353.931395 57.828161 
L 354.859643 54.832312 
L 355.323766 53.996916 
L 355.555828 53.795781 
L 355.78789 53.766595 
L 356.019952 53.867713 
L 356.252014 54.106896 
L 356.716138 55.044867 
L 357.412323 57.247096 
L 358.804694 62.084874 
L 359.036756 62.549172 
L 359.268818 62.676866 
L 359.732942 62.495539 
L 359.965004 62.335344 
L 360.429127 61.45271 
L 360.893251 60.139117 
L 362.517684 54.820213 
L 362.981808 54.000061 
L 363.21387 53.799053 
L 363.445932 53.766577 
L 363.677993 53.879633 
L 363.910055 54.151194 
L 364.374179 55.166718 
L 365.070365 57.361531 
L 366.462736 61.967945 
L 366.694798 62.439553 
L 367.158921 62.677812 
L 367.623045 62.286269 
L 368.087169 61.369914 
L 368.783354 59.211912 
L 369.943664 55.323756 
L 370.407787 54.287668 
L 370.871911 53.846196 
L 371.103973 53.832869 
L 371.336035 53.976801 
L 371.800159 54.733849 
L 372.496344 56.706891 
L 373.424592 59.895312 
L 374.120777 62.239235 
L 374.352839 62.616459 
L 374.584901 62.675475 
L 375.049025 62.500498 
L 375.281086 62.254802 
L 375.74521 61.316458 
L 376.441396 59.163023 
L 377.601705 55.305361 
L 378.065829 54.207727 
L 378.529953 53.766328 
L 378.762014 53.771434 
L 379.226138 54.218531 
L 379.690262 55.305654 
L 380.618509 58.41274 
L 381.778819 62.255821 
L 382.01088 62.612399 
L 382.475004 62.627178 
L 382.939128 62.194459 
L 383.867375 59.651655 
L 385.259747 54.973851 
L 385.72387 54.037689 
L 386.187994 53.64583 
L 386.420056 53.683791 
L 386.88418 54.225698 
L 387.580365 55.991088 
L 388.276551 58.603053 
L 388.972736 61.170925 
L 389.43686 62.375685 
L 389.668922 62.654184 
L 389.900984 62.72418 
L 390.133046 62.659961 
L 390.597169 62.191224 
L 391.061293 61.184639 
L 391.757479 58.91548 
L 392.917788 55.045777 
L 393.381912 54.163851 
L 393.846035 53.85552 
L 394.078097 53.910443 
L 394.310159 54.126148 
L 394.774283 55.021052 
L 395.70253 57.916365 
L 396.86284 61.774164 
L 397.094902 62.389418 
L 397.326963 62.6625 
L 397.791087 62.714551 
L 398.255211 62.250875 
L 398.487273 61.817228 
L 398.487273 61.817228 
" style="fill:none;stroke:#1f77b4;stroke-linecap:square;stroke-width:1.5;"/>
   </g>
   <g id="line2d_16">
    <path clip-path="url(#pe786cd6c07)" d="M 73.832727 58.937286 
L 74.760975 56.688097 
L 75.225098 55.95252 
L 75.689222 55.643481 
L 75.921284 55.655876 
L 76.385408 56.054543 
L 77.081593 57.404435 
L 78.938088 61.906755 
L 79.402212 62.390228 
L 79.634274 62.451799 
L 79.866336 62.391273 
L 80.330459 61.906938 
L 80.794583 61.02496 
L 81.490769 59.144059 
L 82.419016 56.773419 
L 82.88314 55.985697 
L 83.347264 55.619255 
L 83.579325 55.62331 
L 84.043449 56.01855 
L 84.507573 56.848248 
L 85.43582 59.240816 
L 86.132006 61.076811 
L 86.59613 61.941816 
L 87.060253 62.376686 
L 87.292315 62.432191 
L 87.756439 62.200922 
L 88.220563 61.442708 
L 88.916748 59.712723 
L 89.844996 57.106364 
L 90.30912 56.161864 
L 90.773243 55.569974 
L 91.005305 55.446542 
L 91.237367 55.456209 
L 91.701491 55.836001 
L 92.165614 56.65601 
L 92.8618 58.394264 
L 94.022109 61.444244 
L 94.486233 62.184104 
L 94.950357 62.511915 
L 95.41448 62.246849 
L 95.878604 61.518996 
L 96.342728 60.455514 
L 97.967161 56.138457 
L 98.431285 55.506984 
L 98.663347 55.374904 
L 98.895408 55.371631 
L 99.12747 55.480788 
L 99.591594 56.105752 
L 100.28778 57.754712 
L 101.680151 61.567583 
L 102.144274 62.321409 
L 102.608398 62.604743 
L 102.84046 62.545963 
L 103.072522 62.357264 
L 103.536646 61.606521 
L 104.232831 59.837199 
L 105.625202 56.044601 
L 106.089326 55.384086 
L 106.321388 55.241428 
L 106.55345 55.232079 
L 106.785512 55.356981 
L 107.249635 56.001821 
L 107.713759 57.054742 
L 109.570254 62.018719 
L 110.034378 62.571844 
L 110.498502 62.618378 
L 110.962625 62.170274 
L 111.426749 61.376557 
L 113.515306 55.964967 
L 113.979429 55.497607 
L 114.211491 55.427936 
L 114.443553 55.519559 
L 114.907677 56.022505 
L 115.371801 57.007107 
L 117.460357 62.231569 
L 117.924481 62.61714 
L 118.156543 62.607406 
L 118.388605 62.480582 
L 118.852729 61.852825 
L 119.548914 60.22581 
L 120.941285 56.394874 
L 121.405409 55.622498 
L 121.869533 55.371683 
L 122.101595 55.437516 
L 122.565718 55.938443 
L 123.261904 57.338052 
L 124.654275 61.253869 
L 125.118399 62.061621 
L 125.582523 62.466073 
L 125.814584 62.481999 
L 126.278708 62.129732 
L 126.742832 61.319722 
L 127.439017 59.489873 
L 128.599327 56.255406 
L 129.063451 55.465387 
L 129.527574 55.173023 
L 129.759636 55.219985 
L 130.22376 55.700264 
L 130.687884 56.573271 
L 131.848193 59.830925 
L 132.544378 61.582929 
L 133.008502 62.271048 
L 133.240564 62.439716 
L 133.472626 62.452081 
L 133.93675 62.13147 
L 134.400873 61.346237 
L 135.097059 59.478872 
L 136.257368 56.195377 
L 136.721492 55.370562 
L 137.185616 55.027753 
L 137.417678 55.063363 
L 137.649739 55.215743 
L 138.113863 55.927958 
L 138.810049 57.710987 
L 140.20242 61.620915 
L 140.666544 62.360408 
L 141.130667 62.58688 
L 141.594791 62.299786 
L 142.058915 61.473056 
L 142.523039 60.318424 
L 144.147472 55.823163 
L 144.611595 55.178233 
L 144.843657 55.046556 
L 145.075719 55.057263 
L 145.539843 55.468202 
L 146.003966 56.366477 
L 146.700152 58.349764 
L 147.6284 61.009417 
L 148.092523 61.987497 
L 148.556647 62.516058 
L 148.788709 62.587937 
L 149.020771 62.523125 
L 149.484894 62.006096 
L 149.949018 61.0235 
L 150.877266 58.230511 
L 151.805513 55.639797 
L 152.269637 54.895742 
L 152.501699 54.737952 
L 152.73376 54.71493 
L 152.965822 54.831555 
L 153.429946 55.430504 
L 153.89407 56.52284 
L 155.982627 62.202693 
L 156.214688 62.444329 
L 156.678812 62.473386 
L 156.910874 62.301335 
L 157.374998 61.562026 
L 157.839121 60.424296 
L 159.695616 55.082596 
L 160.15974 54.52881 
L 160.391802 54.452882 
L 160.855926 54.815771 
L 161.320049 55.674024 
L 162.016235 57.683949 
L 163.176544 61.103572 
L 163.640668 62.033662 
L 164.104792 62.473343 
L 164.336854 62.478617 
L 164.800977 62.117454 
L 165.265101 61.185073 
L 166.193348 58.337577 
L 167.121596 55.520456 
L 167.58572 54.641048 
L 168.049843 54.298495 
L 168.281905 54.346098 
L 168.746029 54.896667 
L 169.210153 55.978678 
L 171.298709 62.152136 
L 171.762833 62.638953 
L 171.994895 62.665759 
L 172.226957 62.540895 
L 172.691081 61.870645 
L 173.155204 60.709186 
L 175.011699 54.955779 
L 175.475823 54.284149 
L 175.707885 54.179323 
L 175.939947 54.223783 
L 176.40407 54.752339 
L 176.868194 55.780797 
L 177.796442 58.852414 
L 178.724689 61.682326 
L 179.188813 62.474902 
L 179.652937 62.637908 
L 179.884998 62.527954 
L 180.349122 61.890644 
L 180.813246 60.776795 
L 182.437679 55.537267 
L 182.901803 54.60165 
L 183.365926 54.202958 
L 183.597988 54.237299 
L 184.062112 54.745428 
L 184.526236 55.761279 
L 185.222421 57.996374 
L 186.150669 60.850133 
L 186.614792 61.879003 
L 187.078916 62.374021 
L 187.310978 62.413953 
L 187.54304 62.272473 
L 188.007164 61.59803 
L 188.703349 59.770928 
L 190.09572 55.42965 
L 190.559844 54.544781 
L 191.023968 54.219832 
L 191.25603 54.272871 
L 191.488091 54.44304 
L 191.952215 55.289322 
L 192.648401 57.311171 
L 193.80871 61.085002 
L 194.272834 62.084929 
L 194.736958 62.561747 
L 194.969019 62.585587 
L 195.433143 62.125734 
L 195.897267 61.187726 
L 196.593452 59.071936 
L 197.5217 56.019983 
L 197.985824 54.912411 
L 198.449947 54.268639 
L 198.682009 54.185037 
L 198.914071 54.250756 
L 199.378195 54.837641 
L 199.842319 55.921171 
L 200.770566 58.967547 
L 201.466752 61.127663 
L 201.930875 62.162799 
L 202.394999 62.64163 
L 202.627061 62.664721 
L 202.859123 62.538697 
L 203.323246 61.849965 
L 203.78737 60.68205 
L 204.715618 57.540086 
L 205.411803 55.403995 
L 205.875927 54.455842 
L 206.107989 54.200794 
L 206.572113 54.166454 
L 207.036236 54.644454 
L 207.50036 55.725415 
L 208.428607 58.803406 
L 209.356855 61.684986 
L 209.820979 62.516434 
L 210.05304 62.714861 
L 210.285102 62.757447 
L 210.517164 62.646007 
L 210.981288 61.982099 
L 211.445412 60.810337 
L 213.533968 54.422355 
L 213.998092 53.997529 
L 214.230154 54.008807 
L 214.462216 54.179609 
L 214.92634 54.940797 
L 215.622525 56.926859 
L 217.014896 61.541952 
L 217.47902 62.392906 
L 217.943144 62.616203 
L 218.407268 62.217424 
L 218.871391 61.303361 
L 219.567577 59.180051 
L 220.727886 55.364529 
L 221.19201 54.356883 
L 221.656134 53.901491 
L 221.888195 53.9144 
L 222.352319 54.395908 
L 222.816443 55.346651 
L 223.512629 57.577753 
L 224.440876 60.602202 
L 224.905 61.721068 
L 225.369123 62.358173 
L 225.601185 62.447732 
L 225.833247 62.363768 
L 226.297371 61.782486 
L 226.761495 60.675653 
L 227.921804 56.800183 
L 228.617989 54.8562 
L 229.082113 54.113035 
L 229.546237 54.073114 
L 230.010361 54.538965 
L 230.474484 55.535722 
L 231.17067 57.707797 
L 232.098917 60.70111 
L 232.563041 61.810593 
L 233.027165 62.400895 
L 233.259227 62.47856 
L 233.491289 62.403161 
L 233.955412 61.807034 
L 234.419536 60.709676 
L 235.347783 57.634135 
L 236.276031 54.882518 
L 236.740155 54.179462 
L 236.972217 54.046502 
L 237.43634 54.173292 
L 237.900464 54.937182 
L 238.59665 56.92709 
L 239.989021 61.462815 
L 240.453144 62.372499 
L 240.685206 62.591552 
L 240.917268 62.63729 
L 241.14933 62.541662 
L 241.613454 61.892768 
L 242.077577 60.733407 
L 243.005825 57.536477 
L 243.702011 55.25686 
L 244.166134 54.233568 
L 244.630258 53.80589 
L 244.86232 53.823664 
L 245.094382 53.975601 
L 245.558505 54.777783 
L 246.254691 56.859622 
L 247.647062 61.57192 
L 248.111186 62.433192 
L 248.57531 62.739823 
L 249.039433 62.30541 
L 249.503557 61.377606 
L 250.199743 59.211393 
L 251.360052 55.296848 
L 251.824176 54.277727 
L 252.288299 53.833617 
L 252.520361 53.84893 
L 252.984485 54.377643 
L 253.448609 55.414492 
L 254.376856 58.520109 
L 255.073042 60.782624 
L 255.537166 61.941771 
L 256.001289 62.584776 
L 256.233351 62.662651 
L 256.465413 62.582651 
L 256.929537 61.957452 
L 257.39366 60.747167 
L 258.321908 57.541032 
L 259.018093 55.233449 
L 259.482217 54.184028 
L 259.946341 53.700917 
L 260.178403 53.704808 
L 260.410465 53.860046 
L 260.874588 54.628487 
L 261.338712 55.815326 
L 263.195207 61.817392 
L 263.659331 62.459414 
L 263.891393 62.553826 
L 264.123454 62.487537 
L 264.587578 61.892521 
L 265.051702 60.775386 
L 265.979949 57.619518 
L 266.908197 54.766577 
L 267.37232 53.985126 
L 267.604382 53.819685 
L 267.836444 53.819596 
L 268.068506 53.980338 
L 268.53263 54.716873 
L 269.228815 56.674791 
L 270.621187 61.355605 
L 271.08531 62.299637 
L 271.549434 62.653696 
L 271.781496 62.579431 
L 272.24562 61.996372 
L 272.709743 60.915326 
L 273.637991 57.690904 
L 274.566238 54.76865 
L 275.030362 53.912583 
L 275.262424 53.720574 
L 275.494486 53.6874 
L 275.726548 53.812193 
L 276.190671 54.513183 
L 276.654795 55.673965 
L 278.743352 62.180627 
L 279.207475 62.572152 
L 279.439537 62.498779 
L 279.903661 61.919529 
L 280.367785 60.811683 
L 281.296032 57.638053 
L 282.22428 54.736961 
L 282.688403 53.922066 
L 283.152527 53.671472 
L 283.384589 53.799457 
L 283.848713 54.479657 
L 284.544898 56.360402 
L 285.937269 60.992633 
L 286.401393 61.971435 
L 286.865517 62.396931 
L 287.097579 62.370303 
L 287.329641 62.18735 
L 287.793764 61.389364 
L 288.48995 59.33273 
L 289.882321 54.764195 
L 290.346445 53.933321 
L 290.578507 53.727369 
L 290.810569 53.685219 
L 291.274692 54.141421 
L 291.738816 55.095251 
L 292.435002 57.292451 
L 293.595311 61.109224 
L 294.059435 62.079924 
L 294.523558 62.486572 
L 294.75562 62.45634 
L 294.987682 62.269967 
L 295.451806 61.456184 
L 295.91593 60.177404 
L 297.540363 54.794826 
L 298.004486 53.993985 
L 298.236548 53.820286 
L 298.46861 53.79651 
L 298.700672 53.940723 
L 299.164796 54.650027 
L 299.860981 56.61897 
L 301.253352 61.212032 
L 301.717476 62.145239 
L 302.1816 62.530866 
L 302.413662 62.469209 
L 302.877785 61.884547 
L 303.341909 60.774877 
L 304.270157 57.642015 
L 305.198404 54.797129 
L 305.662528 54.008644 
L 305.89459 53.844948 
L 306.126652 53.840764 
L 306.358713 53.996474 
L 306.822837 54.757841 
L 307.286961 56.045963 
L 309.143456 61.943977 
L 309.607579 62.590602 
L 309.839641 62.699743 
L 310.071703 62.631863 
L 310.535827 62.043571 
L 310.999951 60.889296 
L 313.088507 54.413537 
L 313.552631 53.955918 
L 313.784693 53.961341 
L 314.016755 54.119597 
L 314.480879 54.879199 
L 315.177064 56.873064 
L 316.569435 61.470185 
L 317.033559 62.348553 
L 317.265621 62.579355 
L 317.497683 62.6441 
L 317.729745 62.549144 
L 318.193868 61.908371 
L 318.890054 60.019104 
L 320.282425 55.366653 
L 320.746549 54.352762 
L 321.210673 53.935219 
L 321.442734 53.9317 
L 321.906858 54.429798 
L 322.370982 55.487154 
L 323.067167 57.719023 
L 324.227477 61.494416 
L 324.6916 62.344867 
L 324.923662 62.580018 
L 325.155724 62.637189 
L 325.387786 62.530288 
L 325.85191 61.864924 
L 326.316034 60.699384 
L 328.40459 54.291134 
L 328.636652 53.96606 
L 328.868714 53.83873 
L 329.100776 53.872487 
L 329.5649 54.387448 
L 330.029023 55.469843 
L 330.957271 58.568372 
L 331.885518 61.492774 
L 332.349642 62.34554 
L 332.581704 62.578394 
L 332.813766 62.632977 
L 333.045828 62.525288 
L 333.509951 61.880662 
L 334.206137 60.029428 
L 335.83057 54.704667 
L 336.294694 53.944653 
L 336.526755 53.802403 
L 336.758817 53.822261 
L 336.990879 53.999155 
L 337.455003 54.801595 
L 338.151189 56.869045 
L 339.54356 61.482121 
L 340.007683 62.380358 
L 340.239745 62.616164 
L 340.471807 62.689898 
L 340.703869 62.597616 
L 341.167993 61.951998 
L 341.632116 60.775367 
L 342.792426 56.717283 
L 343.488611 54.662382 
L 343.952735 53.921101 
L 344.184797 53.786834 
L 344.416859 53.814527 
L 344.648921 54.001889 
L 345.113044 54.808988 
L 345.577168 56.081089 
L 347.433663 61.982111 
L 347.897787 62.561102 
L 348.129849 62.622521 
L 348.36191 62.52033 
L 348.593972 62.280981 
L 349.058096 61.339339 
L 349.754282 59.118554 
L 350.914591 55.210619 
L 351.378715 54.219543 
L 351.842838 53.793961 
L 352.0749 53.818451 
L 352.539024 54.340502 
L 353.003148 55.417117 
L 353.931395 58.569392 
L 354.859643 61.450845 
L 355.323766 62.296524 
L 355.555828 62.504228 
L 355.78789 62.551601 
L 356.019952 62.442644 
L 356.484076 61.789161 
L 356.948199 60.632663 
L 359.036756 54.188782 
L 359.50088 53.782351 
L 359.732942 53.826265 
L 359.965004 54.003732 
L 360.429127 54.835757 
L 360.893251 56.19254 
L 362.517684 61.453138 
L 362.981808 62.268597 
L 363.21387 62.461258 
L 363.445932 62.486339 
L 363.910055 62.063188 
L 364.374179 61.120044 
L 365.070365 58.870414 
L 366.230674 55.024204 
L 366.694798 54.123322 
L 366.926859 53.880812 
L 367.158921 53.804669 
L 367.390983 53.888056 
L 367.623045 54.127169 
L 368.087169 55.0568 
L 368.783354 57.142849 
L 369.943664 61.056078 
L 370.407787 62.052771 
L 370.871911 62.537135 
L 371.103973 62.55818 
L 371.336035 62.40606 
L 371.800159 61.689281 
L 372.264282 60.45701 
L 374.120777 54.499305 
L 374.584901 53.883785 
L 374.816963 53.811016 
L 375.049025 53.905832 
L 375.281086 54.137753 
L 375.74521 55.05195 
L 376.441396 57.161955 
L 377.833767 61.686305 
L 378.297891 62.415804 
L 378.529953 62.55564 
L 378.762014 62.534664 
L 378.994076 62.349541 
L 379.4582 61.554955 
L 380.154386 59.499457 
L 381.546757 54.835491 
L 382.01088 53.800836 
L 382.242942 53.603952 
L 382.475004 53.568 
L 382.707066 53.685632 
L 382.939128 53.970465 
L 383.635314 55.699924 
L 385.491808 61.672832 
L 385.955932 62.314496 
L 386.187994 62.429825 
L 386.420056 62.386498 
L 386.88418 61.822064 
L 387.348303 60.744098 
L 388.508613 56.896296 
L 389.204798 54.843935 
L 389.668922 54.086061 
L 389.900984 53.917979 
L 390.133046 53.902268 
L 390.365108 54.049507 
L 390.829231 54.660849 
L 391.293355 55.907008 
L 393.14985 61.900599 
L 393.613974 62.559757 
L 393.846035 62.652928 
L 394.078097 62.618705 
L 394.542221 62.028689 
L 395.006345 60.912145 
L 395.934592 57.730341 
L 396.630778 55.423854 
L 397.094902 54.372357 
L 397.559025 53.881086 
L 397.791087 53.867754 
L 398.023149 53.989067 
L 398.487273 54.737519 
L 398.487273 54.737519 
" style="fill:none;stroke:#ff0000;stroke-linecap:square;stroke-width:1.5;"/>
   </g>
   <g id="line2d_17">
    <path clip-path="url(#pe786cd6c07)" d="M 73.832727 286.239734 
L 74.760975 290.834142 
L 75.225098 292.393843 
L 75.689222 293.020298 
L 75.921284 292.988501 
L 76.153346 292.746088 
L 76.385408 292.265434 
L 76.849531 290.67676 
L 78.938088 280.765986 
L 79.402212 279.789334 
L 79.634274 279.654652 
L 79.866336 279.745014 
L 80.098398 280.107457 
L 80.562521 281.470973 
L 81.026645 283.544322 
L 82.419016 290.902923 
L 82.88314 292.533032 
L 83.347264 293.262385 
L 83.579325 293.317622 
L 83.811387 293.055561 
L 84.275511 291.87281 
L 84.739635 289.849402 
L 86.364068 281.367504 
L 86.828192 280.001563 
L 87.292315 279.507856 
L 87.524377 279.553766 
L 87.756439 279.884195 
L 88.220563 281.332983 
L 88.916748 284.758201 
L 89.844996 290.135021 
L 90.30912 291.957344 
L 90.773243 293.109196 
L 91.005305 293.337099 
L 91.237367 293.314771 
L 91.469429 293.076123 
L 91.933553 291.858271 
L 92.629738 288.719749 
L 94.022109 281.365814 
L 94.486233 279.979239 
L 94.950357 279.346172 
L 95.182419 279.426688 
L 95.41448 279.767715 
L 95.878604 281.1788 
L 96.342728 283.306689 
L 97.967161 292.095588 
L 98.431285 293.376183 
L 98.663347 293.650685 
L 98.895408 293.660027 
L 99.12747 293.420823 
L 99.591594 292.196699 
L 100.055718 290.145287 
L 101.912213 280.335565 
L 102.376336 279.258405 
L 102.608398 279.116293 
L 102.84046 279.233347 
L 103.304584 280.285425 
L 103.768708 282.004546 
L 104.696955 287.318221 
L 105.393141 291.147527 
L 105.857264 292.980939 
L 106.321388 293.794012 
L 106.55345 293.817012 
L 106.785512 293.577524 
L 107.249635 292.337564 
L 107.713759 290.268413 
L 109.570254 280.308783 
L 110.034378 279.244708 
L 110.26644 279.11514 
L 110.498502 279.201852 
L 110.962625 280.086641 
L 111.426749 281.781917 
L 112.122935 285.755049 
L 113.051182 290.948675 
L 113.515306 292.855275 
L 113.747368 293.398279 
L 113.979429 293.610239 
L 114.211491 293.666038 
L 114.443553 293.47936 
L 114.907677 292.429921 
L 115.371801 290.520234 
L 117.460357 279.975814 
L 117.924481 279.186532 
L 118.156543 279.27471 
L 118.388605 279.544907 
L 118.852729 280.618534 
L 119.316852 282.689172 
L 121.405409 293.271474 
L 121.637471 293.589427 
L 121.869533 293.658619 
L 122.101595 293.482172 
L 122.565718 292.485904 
L 123.029842 290.759921 
L 123.726028 286.895718 
L 124.654275 281.712694 
L 125.118399 280.06716 
L 125.582523 279.208086 
L 125.814584 279.152666 
L 126.046646 279.390386 
L 126.278708 279.851923 
L 126.742832 281.48869 
L 127.439017 285.077883 
L 128.599327 291.626619 
L 129.063451 293.260301 
L 129.527574 293.786955 
L 129.759636 293.732037 
L 129.991698 293.386828 
L 130.455822 292.034697 
L 131.152007 288.51542 
L 132.544378 280.804111 
L 133.008502 279.347065 
L 133.240564 279.014032 
L 133.472626 278.960929 
L 133.704688 279.188183 
L 133.93675 279.627824 
L 134.400873 281.240504 
L 135.097059 284.952792 
L 136.48943 292.568203 
L 136.953554 293.805044 
L 137.185616 293.963785 
L 137.417678 293.90951 
L 137.649739 293.563435 
L 137.881801 293.000549 
L 138.345925 291.096355 
L 139.042111 287.220506 
L 139.970358 281.82175 
L 140.434482 279.905784 
L 140.898605 278.957735 
L 141.130667 278.85599 
L 141.362729 279.027806 
L 141.594791 279.446338 
L 142.058915 281.070106 
L 142.7551 284.809937 
L 144.147472 292.500795 
L 144.611595 293.834046 
L 144.843657 293.985989 
L 145.075719 293.973839 
L 145.307781 293.676397 
L 145.539843 293.175632 
L 146.003966 291.360225 
L 146.700152 287.444199 
L 147.6284 282.066023 
L 148.092523 280.103248 
L 148.556647 279.00997 
L 148.788709 278.786102 
L 149.020771 278.778202 
L 149.252833 279.180635 
L 149.716956 280.711923 
L 150.413142 284.434028 
L 151.573451 291.332093 
L 152.037575 293.294034 
L 152.269637 293.95141 
L 152.501699 294.216487 
L 152.73376 294.26089 
L 152.965822 294.035213 
L 153.429946 292.823339 
L 153.89407 290.635362 
L 155.982627 279.208064 
L 156.214688 278.712942 
L 156.44675 278.525391 
L 156.678812 278.59763 
L 156.910874 278.932672 
L 157.374998 280.416282 
L 157.839121 282.710649 
L 159.695616 293.25401 
L 160.15974 294.382098 
L 160.391802 294.485487 
L 160.623864 294.262582 
L 160.855926 293.799047 
L 161.320049 292.119941 
L 162.016235 288.188736 
L 163.176544 281.222565 
L 163.640668 279.324471 
L 164.104792 278.294908 
L 164.336854 278.275297 
L 164.568915 278.551727 
L 164.800977 279.048111 
L 165.265101 280.922032 
L 166.193348 286.626384 
L 167.121596 292.261475 
L 167.58572 294.150037 
L 167.817782 294.622406 
L 168.049843 294.772547 
L 168.281905 294.672266 
L 168.513967 294.267202 
L 168.978091 292.647809 
L 169.442215 290.101338 
L 171.066648 279.985491 
L 171.530771 278.453407 
L 171.762833 278.096803 
L 171.994895 278.048277 
L 172.226957 278.295922 
L 172.691081 279.627695 
L 173.155204 281.832897 
L 175.243761 294.232649 
L 175.475823 294.749732 
L 175.707885 294.85284 
L 175.939947 294.76484 
L 176.172009 294.406044 
L 176.40407 293.799557 
L 176.868194 291.705627 
L 177.56438 287.258001 
L 178.492627 281.160154 
L 178.956751 279.062587 
L 179.188813 278.380798 
L 179.420875 278.089293 
L 179.652937 277.986598 
L 179.884998 278.210746 
L 180.349122 279.464958 
L 180.813246 281.708626 
L 182.669741 293.366123 
L 183.133864 294.649028 
L 183.365926 294.822684 
L 183.597988 294.667565 
L 183.83005 294.280224 
L 184.294174 292.775402 
L 184.758297 290.273674 
L 186.150669 281.312064 
L 186.614792 279.260035 
L 187.078916 278.231035 
L 187.310978 278.152947 
L 187.54304 278.401645 
L 188.007164 279.679976 
L 188.471287 281.94547 
L 190.559844 294.161092 
L 190.791906 294.632595 
L 191.023968 294.792683 
L 191.25603 294.709916 
L 191.488091 294.374293 
L 191.952215 292.739031 
L 192.648401 288.638705 
L 193.80871 281.008637 
L 194.272834 278.967742 
L 194.736958 278.067679 
L 194.969019 278.012054 
L 195.201081 278.291604 
L 195.665205 279.68741 
L 196.129329 282.086566 
L 197.985824 293.428368 
L 198.449947 294.706513 
L 198.682009 294.848883 
L 198.914071 294.742208 
L 199.146133 294.32445 
L 199.610257 292.615221 
L 200.306442 288.581967 
L 201.698813 279.934283 
L 202.162937 278.408301 
L 202.394999 278.05805 
L 202.627061 278.035793 
L 202.859123 278.281548 
L 203.323246 279.633883 
L 204.019432 283.26539 
L 205.643865 293.454414 
L 206.107989 294.837942 
L 206.572113 294.905749 
L 207.036236 293.939751 
L 207.50036 291.796947 
L 208.428607 285.628743 
L 209.356855 279.847432 
L 209.820979 278.273615 
L 210.05304 277.87351 
L 210.285102 277.803597 
L 210.517164 278.031029 
L 210.981288 279.359597 
L 211.445412 281.617776 
L 213.533968 294.338166 
L 213.998092 295.075164 
L 214.230154 295.011737 
L 214.462216 294.671465 
L 214.92634 293.138017 
L 215.390463 290.658744 
L 217.246958 278.985868 
L 217.711082 277.894828 
L 217.943144 277.811501 
L 218.175206 278.055427 
L 218.407268 278.545852 
L 218.871391 280.378548 
L 219.567577 284.613516 
L 220.959948 293.204735 
L 221.424072 294.739329 
L 221.656134 294.981447 
L 221.888195 294.93672 
L 222.352319 294.016646 
L 222.816443 292.071191 
L 223.512629 287.604277 
L 224.440876 281.46546 
L 224.905 279.251253 
L 225.369123 278.046041 
L 225.601185 277.887675 
L 225.833247 278.032731 
L 226.065309 278.466754 
L 226.529433 280.181203 
L 227.225618 284.344251 
L 228.385928 292.037632 
L 228.850051 294.099838 
L 229.082113 294.708178 
L 229.314175 294.937617 
L 229.546237 294.887265 
L 229.778299 294.539852 
L 230.010361 293.969906 
L 230.474484 291.977511 
L 231.17067 287.611863 
L 232.330979 280.262905 
L 232.795103 278.515896 
L 233.027165 278.056114 
L 233.259227 277.90376 
L 233.491289 278.059706 
L 233.72335 278.503312 
L 234.187474 280.224046 
L 234.651598 282.833323 
L 236.043969 292.055221 
L 236.508093 294.230065 
L 236.740155 294.803396 
L 236.972217 295.000003 
L 237.204278 294.927679 
L 237.43634 294.640234 
L 237.900464 293.179033 
L 238.364588 290.69634 
L 240.221083 279.001977 
L 240.685206 277.789791 
L 240.917268 277.673005 
L 241.14933 277.814407 
L 241.381392 278.305911 
L 241.845516 280.137064 
L 242.541701 284.44884 
L 243.702011 292.355637 
L 244.166134 294.437463 
L 244.398196 295.025643 
L 244.630258 295.298308 
L 244.86232 295.250614 
L 245.094382 294.943341 
L 245.558505 293.387583 
L 246.022629 290.819007 
L 247.879124 278.786746 
L 248.343248 277.552284 
L 248.57531 277.438709 
L 248.807371 277.725482 
L 249.039433 278.210924 
L 249.503557 280.070855 
L 250.199743 284.387341 
L 251.592114 293.682492 
L 252.056238 295.03624 
L 252.288299 295.301701 
L 252.520361 295.228698 
L 252.752423 294.872033 
L 253.216547 293.3516 
L 253.680671 290.808092 
L 255.537166 278.922826 
L 256.001289 277.638187 
L 256.233351 277.495597 
L 256.465413 277.662919 
L 256.697475 278.125158 
L 257.161599 279.94007 
L 257.857784 284.312595 
L 259.250155 293.555968 
L 259.714279 295.1487 
L 259.946341 295.323773 
L 260.178403 295.232532 
L 260.410465 294.888478 
L 260.642526 294.317551 
L 261.10665 292.387925 
L 261.802836 287.782078 
L 262.963145 280.027876 
L 263.427269 278.204656 
L 263.659331 277.702559 
L 263.891393 277.573748 
L 264.123454 277.744817 
L 264.355516 278.183198 
L 264.81964 279.933102 
L 265.515826 284.200678 
L 266.908197 293.44172 
L 267.37232 295.051507 
L 267.604382 295.357361 
L 267.836444 295.304014 
L 268.300568 294.333572 
L 268.764692 292.326249 
L 269.460877 287.834765 
L 270.621187 280.099873 
L 271.08531 278.204024 
L 271.317372 277.690855 
L 271.549434 277.531187 
L 271.781496 277.679613 
L 272.013558 278.108396 
L 272.477681 279.803131 
L 273.173867 284.146526 
L 274.566238 293.102687 
L 275.030362 294.857474 
L 275.262424 295.247605 
L 275.494486 295.231212 
L 275.726548 295.007301 
L 275.958609 294.457698 
L 276.422733 292.513247 
L 277.118919 288.120644 
L 278.279228 280.194416 
L 278.743352 278.280593 
L 278.975414 277.718692 
L 279.207475 277.510453 
L 279.439537 277.630595 
L 279.671599 278.049804 
L 280.135723 279.768467 
L 280.831909 284.02517 
L 282.22428 293.095917 
L 282.688403 294.840321 
L 282.920465 295.209025 
L 283.152527 295.226395 
L 283.384589 294.937681 
L 283.848713 293.592505 
L 284.312836 291.264837 
L 286.401393 278.530235 
L 286.633455 277.942504 
L 286.865517 277.677063 
L 287.097579 277.717233 
L 287.329641 278.089347 
L 287.793764 279.683401 
L 288.48995 283.763447 
L 289.882321 293.147781 
L 290.346445 294.894213 
L 290.578507 295.277801 
L 290.810569 295.255223 
L 291.04263 294.952415 
L 291.274692 294.437869 
L 291.738816 292.543852 
L 292.435002 288.183725 
L 293.595311 280.428903 
L 294.059435 278.509292 
L 294.291497 277.916831 
L 294.523558 277.69255 
L 294.75562 277.749201 
L 294.987682 278.129879 
L 295.451806 279.692201 
L 296.147991 283.831136 
L 297.540363 293.420254 
L 298.004486 295.044324 
L 298.236548 295.294192 
L 298.46861 295.208248 
L 298.700672 294.890833 
L 299.164796 293.442849 
L 299.860981 289.467524 
L 301.253352 280.247692 
L 301.717476 278.373835 
L 301.949538 277.845465 
L 302.1816 277.665427 
L 302.413662 277.788951 
L 302.645724 278.217932 
L 303.109847 279.928627 
L 303.806033 284.123607 
L 305.198404 293.393421 
L 305.662528 294.915601 
L 305.89459 295.253854 
L 306.126652 295.233576 
L 306.358713 294.923418 
L 306.590775 294.370107 
L 307.054899 292.341741 
L 307.983146 286.07531 
L 308.911394 280.109899 
L 309.375518 278.276561 
L 309.607579 277.767897 
L 309.839641 277.571177 
L 310.071703 277.70108 
L 310.303765 278.171737 
L 310.767889 279.926732 
L 311.464074 284.274956 
L 312.392322 290.892666 
L 313.088507 294.373029 
L 313.320569 294.957958 
L 313.552631 295.078961 
L 313.784693 295.027635 
L 314.016755 294.729061 
L 314.480879 293.240813 
L 315.177064 289.24617 
L 316.569435 280.000667 
L 317.033559 278.234065 
L 317.265621 277.773555 
L 317.497683 277.643504 
L 317.729745 277.831054 
L 317.961806 278.337844 
L 318.42593 280.184067 
L 319.122116 284.534621 
L 320.514487 293.684539 
L 320.978611 295.038366 
L 321.210673 295.131896 
L 321.442734 295.077671 
L 321.674796 294.744485 
L 322.13892 293.155653 
L 322.835106 289.088752 
L 324.227477 279.912061 
L 324.6916 278.207909 
L 324.923662 277.755307 
L 325.155724 277.644382 
L 325.387786 277.856176 
L 325.85191 279.177232 
L 326.316034 281.511206 
L 327.476343 289.513808 
L 328.172528 293.617915 
L 328.636652 295.104038 
L 328.868714 295.212093 
L 329.100776 295.139047 
L 329.332838 294.789366 
L 329.796961 293.138577 
L 330.493147 289.051995 
L 331.885518 279.848183 
L 332.349642 278.140972 
L 332.581704 277.684024 
L 332.813766 277.627555 
L 333.045828 277.832188 
L 333.277889 278.337278 
L 333.742013 280.201224 
L 334.438199 284.481105 
L 335.83057 293.606095 
L 336.294694 295.063838 
L 336.526755 295.327694 
L 336.758817 295.266899 
L 336.990879 294.950969 
L 337.455003 293.350365 
L 338.151189 289.22322 
L 339.54356 279.884377 
L 340.007683 278.110276 
L 340.239745 277.636373 
L 340.471807 277.508524 
L 340.703869 277.690706 
L 340.935931 278.127213 
L 341.400055 279.965608 
L 342.09624 284.361673 
L 343.488611 293.918413 
L 343.720673 294.835885 
L 343.952735 295.235674 
L 344.184797 295.325637 
L 344.416859 295.214228 
L 344.648921 294.829278 
L 345.113044 293.267275 
L 345.577168 290.683643 
L 347.433663 278.795228 
L 347.897787 277.644895 
L 348.129849 277.56856 
L 348.36191 277.762113 
L 348.593972 278.254899 
L 349.058096 280.166836 
L 349.754282 284.666874 
L 350.914591 292.463196 
L 351.378715 294.562752 
L 351.610777 295.108314 
L 351.842838 295.227375 
L 352.0749 295.098935 
L 352.306962 294.723452 
L 352.771086 293.134264 
L 353.23521 290.556069 
L 355.091704 278.832949 
L 355.555828 277.720376 
L 355.78789 277.643816 
L 356.019952 277.853891 
L 356.252014 278.339037 
L 356.716138 280.188673 
L 357.412323 284.594042 
L 358.804694 293.890492 
L 359.036756 294.789211 
L 359.268818 295.206439 
L 359.50088 295.262476 
L 359.732942 295.098095 
L 359.965004 294.760434 
L 360.429127 293.045775 
L 360.893251 290.375399 
L 362.517684 279.795897 
L 362.981808 278.160286 
L 363.21387 277.766617 
L 363.445932 277.70906 
L 363.677993 277.969126 
L 363.910055 278.516828 
L 364.374179 280.475496 
L 365.070365 284.919938 
L 366.230674 292.681798 
L 366.694798 294.745052 
L 367.158921 295.301964 
L 367.390983 295.056997 
L 367.623045 294.587921 
L 368.087169 292.741936 
L 368.783354 288.497885 
L 369.943664 280.6965 
L 370.407787 278.663719 
L 370.871911 277.737883 
L 371.103973 277.70351 
L 371.336035 277.999562 
L 371.800159 279.47339 
L 372.264282 281.892092 
L 374.120777 294.168752 
L 374.352839 294.930446 
L 374.584901 295.220512 
L 374.816963 295.229197 
L 375.049025 295.023488 
L 375.281086 294.545871 
L 375.74521 292.69333 
L 376.441396 288.429889 
L 377.601705 280.575072 
L 378.065829 278.517213 
L 378.297891 277.925964 
L 378.529953 277.63951 
L 378.762014 277.665592 
L 379.226138 278.626761 
L 379.690262 280.771708 
L 380.618509 286.991792 
L 381.778819 294.439921 
L 382.01088 295.240385 
L 382.242942 295.48246 
L 382.475004 295.488 
L 382.707066 295.210092 
L 382.939128 294.652816 
L 383.635314 291.10889 
L 385.491808 279.181176 
L 385.955932 277.881004 
L 386.187994 277.644827 
L 386.420056 277.726115 
L 386.652118 278.143898 
L 387.116241 279.848841 
L 387.580365 282.377836 
L 389.43686 294.393652 
L 389.668922 294.996945 
L 389.900984 295.235022 
L 390.133046 295.186515 
L 390.365108 294.856634 
L 390.829231 293.521814 
L 391.293355 291.021084 
L 393.14985 279.034301 
L 393.613974 277.824653 
L 393.846035 277.631414 
L 394.078097 277.720559 
L 394.310159 278.156901 
L 394.774283 279.916193 
L 395.470469 284.085104 
L 396.630778 292.140146 
L 397.094902 294.445882 
L 397.326963 295.040483 
L 397.559025 295.272452 
L 397.791087 295.275619 
L 398.023149 294.951037 
L 398.255211 294.388136 
L 398.487273 293.508531 
L 398.487273 293.508531 
" style="fill:none;stroke:#008000;stroke-linecap:square;stroke-width:1.5;"/>
   </g>
   <g id="patch_3">
    <path d="M 57.6 307.584 
L 57.6 41.472 
" style="fill:none;stroke:#000000;stroke-linecap:square;stroke-linejoin:miter;stroke-width:0.8;"/>
   </g>
   <g id="patch_4">
    <path d="M 414.72 307.584 
L 414.72 41.472 
" style="fill:none;stroke:#000000;stroke-linecap:square;stroke-linejoin:miter;stroke-width:0.8;"/>
   </g>
   <g id="patch_5">
    <path d="M 57.6 307.584 
L 414.72 307.584 
" style="fill:none;stroke:#000000;stroke-linecap:square;stroke-linejoin:miter;stroke-width:0.8;"/>
   </g>
   <g id="patch_6">
    <path d="M 57.6 41.472 
L 414.72 41.472 
" style="fill:none;stroke:#000000;stroke-linecap:square;stroke-linejoin:miter;stroke-width:0.8;"/>
   </g>
   <g id="legend_1">
    <g id="patch_7">
     <path d="M 351.0075 198.045187 
L 407.72 198.045187 
Q 409.72 198.045187 409.72 196.045187 
L 409.72 153.010812 
Q 409.72 151.010812 407.72 151.010812 
L 351.0075 151.010812 
Q 349.0075 151.010812 349.0075 153.010812 
L 349.0075 196.045187 
Q 349.0075 198.045187 351.0075 198.045187 
z
" style="fill:#ffffff;opacity:0.8;stroke:#cccccc;stroke-linejoin:miter;"/>
    </g>
    <g id="line2d_18">
     <path d="M 353.0075 159.10925 
L 373.0075 159.10925 
" style="fill:none;stroke:#1f77b4;stroke-linecap:square;stroke-width:1.5;"/>
    </g>
    <g id="line2d_19"/>
    <g id="text_15">
     <!-- 0-&gt;1 -->
     <defs>
      <path d="M 4.890625 31.390625 
L 31.203125 31.390625 
L 31.203125 23.390625 
L 4.890625 23.390625 
z
" id="DejaVuSans-45"/>
      <path d="M 10.59375 49.21875 
L 10.59375 58.109375 
L 73.1875 35.40625 
L 73.1875 27.296875 
L 10.59375 4.59375 
L 10.59375 13.484375 
L 60.890625 31.296875 
z
" id="DejaVuSans-62"/>
     </defs>
     <g transform="translate(381.0075 162.60925)scale(0.1 -0.1)">
      <use xlink:href="#DejaVuSans-48"/>
      <use x="63.623047" xlink:href="#DejaVuSans-45"/>
      <use x="99.707031" xlink:href="#DejaVuSans-62"/>
      <use x="183.496094" xlink:href="#DejaVuSans-49"/>
     </g>
    </g>
    <g id="line2d_20">
     <path d="M 353.0075 173.787375 
L 373.0075 173.787375 
" style="fill:none;stroke:#ff0000;stroke-linecap:square;stroke-width:1.5;"/>
    </g>
    <g id="line2d_21"/>
    <g id="text_16">
     <!-- 1-&gt;0 -->
     <g transform="translate(381.0075 177.287375)scale(0.1 -0.1)">
      <use xlink:href="#DejaVuSans-49"/>
      <use x="63.623047" xlink:href="#DejaVuSans-45"/>
      <use x="99.707031" xlink:href="#DejaVuSans-62"/>
      <use x="183.496094" xlink:href="#DejaVuSans-48"/>
     </g>
    </g>
    <g id="line2d_22">
     <path d="M 353.0075 188.4655 
L 373.0075 188.4655 
" style="fill:none;stroke:#008000;stroke-linecap:square;stroke-width:1.5;"/>
    </g>
    <g id="line2d_23"/>
    <g id="text_17">
     <!-- diff -->
     <defs>
      <path d="M 45.40625 46.390625 
L 45.40625 75.984375 
L 54.390625 75.984375 
L 54.390625 0 
L 45.40625 0 
L 45.40625 8.203125 
Q 42.578125 3.328125 38.25 0.953125 
Q 33.9375 -1.421875 27.875 -1.421875 
Q 17.96875 -1.421875 11.734375 6.484375 
Q 5.515625 14.40625 5.515625 27.296875 
Q 5.515625 40.1875 11.734375 48.09375 
Q 17.96875 56 27.875 56 
Q 33.9375 56 38.25 53.625 
Q 42.578125 51.265625 45.40625 46.390625 
z
M 14.796875 27.296875 
Q 14.796875 17.390625 18.875 11.75 
Q 22.953125 6.109375 30.078125 6.109375 
Q 37.203125 6.109375 41.296875 11.75 
Q 45.40625 17.390625 45.40625 27.296875 
Q 45.40625 37.203125 41.296875 42.84375 
Q 37.203125 48.484375 30.078125 48.484375 
Q 22.953125 48.484375 18.875 42.84375 
Q 14.796875 37.203125 14.796875 27.296875 
z
" id="DejaVuSans-100"/>
      <path d="M 9.421875 54.6875 
L 18.40625 54.6875 
L 18.40625 0 
L 9.421875 0 
z
M 9.421875 75.984375 
L 18.40625 75.984375 
L 18.40625 64.59375 
L 9.421875 64.59375 
z
" id="DejaVuSans-105"/>
      <path d="M 37.109375 75.984375 
L 37.109375 68.5 
L 28.515625 68.5 
Q 23.6875 68.5 21.796875 66.546875 
Q 19.921875 64.59375 19.921875 59.515625 
L 19.921875 54.6875 
L 34.71875 54.6875 
L 34.71875 47.703125 
L 19.921875 47.703125 
L 19.921875 0 
L 10.890625 0 
L 10.890625 47.703125 
L 2.296875 47.703125 
L 2.296875 54.6875 
L 10.890625 54.6875 
L 10.890625 58.5 
Q 10.890625 67.625 15.140625 71.796875 
Q 19.390625 75.984375 28.609375 75.984375 
z
" id="DejaVuSans-102"/>
     </defs>
     <g transform="translate(381.0075 191.9655)scale(0.1 -0.1)">
      <use xlink:href="#DejaVuSans-100"/>
      <use x="63.476562" xlink:href="#DejaVuSans-105"/>
      <use x="91.259766" xlink:href="#DejaVuSans-102"/>
      <use x="126.464844" xlink:href="#DejaVuSans-102"/>
     </g>
    </g>
   </g>
  </g>
 </g>
 <defs>
  <clipPath id="pe786cd6c07">
   <rect height="266.112" width="357.12" x="57.6" y="41.472"/>
  </clipPath>
 </defs>
</svg>
