<?xml version="1.0" encoding="utf-8" standalone="no"?>
<!DOCTYPE svg PUBLIC "-//W3C//DTD SVG 1.1//EN"
  "http://www.w3.org/Graphics/SVG/1.1/DTD/svg11.dtd">
<!-- Created with matplotlib (https://matplotlib.org/) -->
<svg height="345.6pt" version="1.1" viewBox="0 0 460.8 345.6" width="460.8pt" xmlns="http://www.w3.org/2000/svg" xmlns:xlink="http://www.w3.org/1999/xlink">
 <defs>
  <style type="text/css">
*{stroke-linecap:butt;stroke-linejoin:round;}
  </style>
 </defs>
 <g id="figure_1">
  <g id="patch_1">
   <path d="M 0 345.6 
L 460.8 345.6 
L 460.8 0 
L 0 0 
z
" style="fill:#ffffff;"/>
  </g>
  <g id="axes_1">
   <g id="patch_2">
    <path d="M 57.6 307.584 
L 414.72 307.584 
L 414.72 41.472 
L 57.6 41.472 
z
" style="fill:#ffffff;"/>
   </g>
   <g id="matplotlib.axis_1">
    <g id="xtick_1">
     <g id="line2d_1">
      <defs>
       <path d="M 0 0 
L 0 3.5 
" id="m95d437c040" style="stroke:#000000;stroke-width:0.8;"/>
      </defs>
      <g>
       <use style="stroke:#000000;stroke-width:0.8;" x="73.832727" xlink:href="#m95d437c040" y="307.584"/>
      </g>
     </g>
     <g id="text_1">
      <!-- 0 -->
      <defs>
       <path d="M 31.78125 66.40625 
Q 24.171875 66.40625 20.328125 58.90625 
Q 16.5 51.421875 16.5 36.375 
Q 16.5 21.390625 20.328125 13.890625 
Q 24.171875 6.390625 31.78125 6.390625 
Q 39.453125 6.390625 43.28125 13.890625 
Q 47.125 21.390625 47.125 36.375 
Q 47.125 51.421875 43.28125 58.90625 
Q 39.453125 66.40625 31.78125 66.40625 
z
M 31.78125 74.21875 
Q 44.046875 74.21875 50.515625 64.515625 
Q 56.984375 54.828125 56.984375 36.375 
Q 56.984375 17.96875 50.515625 8.265625 
Q 44.046875 -1.421875 31.78125 -1.421875 
Q 19.53125 -1.421875 13.0625 8.265625 
Q 6.59375 17.96875 6.59375 36.375 
Q 6.59375 54.828125 13.0625 64.515625 
Q 19.53125 74.21875 31.78125 74.21875 
z
" id="DejaVuSans-48"/>
      </defs>
      <g transform="translate(70.651477 322.182437)scale(0.1 -0.1)">
       <use xlink:href="#DejaVuSans-48"/>
      </g>
     </g>
    </g>
    <g id="xtick_2">
     <g id="line2d_2">
      <g>
       <use style="stroke:#000000;stroke-width:0.8;" x="120.2451" xlink:href="#m95d437c040" y="307.584"/>
      </g>
     </g>
     <g id="text_2">
      <!-- 200 -->
      <defs>
       <path d="M 19.1875 8.296875 
L 53.609375 8.296875 
L 53.609375 0 
L 7.328125 0 
L 7.328125 8.296875 
Q 12.9375 14.109375 22.625 23.890625 
Q 32.328125 33.6875 34.8125 36.53125 
Q 39.546875 41.84375 41.421875 45.53125 
Q 43.3125 49.21875 43.3125 52.78125 
Q 43.3125 58.59375 39.234375 62.25 
Q 35.15625 65.921875 28.609375 65.921875 
Q 23.96875 65.921875 18.8125 64.3125 
Q 13.671875 62.703125 7.8125 59.421875 
L 7.8125 69.390625 
Q 13.765625 71.78125 18.9375 73 
Q 24.125 74.21875 28.421875 74.21875 
Q 39.75 74.21875 46.484375 68.546875 
Q 53.21875 62.890625 53.21875 53.421875 
Q 53.21875 48.921875 51.53125 44.890625 
Q 49.859375 40.875 45.40625 35.40625 
Q 44.1875 33.984375 37.640625 27.21875 
Q 31.109375 20.453125 19.1875 8.296875 
z
" id="DejaVuSans-50"/>
      </defs>
      <g transform="translate(110.70135 322.182437)scale(0.1 -0.1)">
       <use xlink:href="#DejaVuSans-50"/>
       <use x="63.623047" xlink:href="#DejaVuSans-48"/>
       <use x="127.246094" xlink:href="#DejaVuSans-48"/>
      </g>
     </g>
    </g>
    <g id="xtick_3">
     <g id="line2d_3">
      <g>
       <use style="stroke:#000000;stroke-width:0.8;" x="166.657472" xlink:href="#m95d437c040" y="307.584"/>
      </g>
     </g>
     <g id="text_3">
      <!-- 400 -->
      <defs>
       <path d="M 37.796875 64.3125 
L 12.890625 25.390625 
L 37.796875 25.390625 
z
M 35.203125 72.90625 
L 47.609375 72.90625 
L 47.609375 25.390625 
L 58.015625 25.390625 
L 58.015625 17.1875 
L 47.609375 17.1875 
L 47.609375 0 
L 37.796875 0 
L 37.796875 17.1875 
L 4.890625 17.1875 
L 4.890625 26.703125 
z
" id="DejaVuSans-52"/>
      </defs>
      <g transform="translate(157.113722 322.182437)scale(0.1 -0.1)">
       <use xlink:href="#DejaVuSans-52"/>
       <use x="63.623047" xlink:href="#DejaVuSans-48"/>
       <use x="127.246094" xlink:href="#DejaVuSans-48"/>
      </g>
     </g>
    </g>
    <g id="xtick_4">
     <g id="line2d_4">
      <g>
       <use style="stroke:#000000;stroke-width:0.8;" x="213.069845" xlink:href="#m95d437c040" y="307.584"/>
      </g>
     </g>
     <g id="text_4">
      <!-- 600 -->
      <defs>
       <path d="M 33.015625 40.375 
Q 26.375 40.375 22.484375 35.828125 
Q 18.609375 31.296875 18.609375 23.390625 
Q 18.609375 15.53125 22.484375 10.953125 
Q 26.375 6.390625 33.015625 6.390625 
Q 39.65625 6.390625 43.53125 10.953125 
Q 47.40625 15.53125 47.40625 23.390625 
Q 47.40625 31.296875 43.53125 35.828125 
Q 39.65625 40.375 33.015625 40.375 
z
M 52.59375 71.296875 
L 52.59375 62.3125 
Q 48.875 64.0625 45.09375 64.984375 
Q 41.3125 65.921875 37.59375 65.921875 
Q 27.828125 65.921875 22.671875 59.328125 
Q 17.53125 52.734375 16.796875 39.40625 
Q 19.671875 43.65625 24.015625 45.921875 
Q 28.375 48.1875 33.59375 48.1875 
Q 44.578125 48.1875 50.953125 41.515625 
Q 57.328125 34.859375 57.328125 23.390625 
Q 57.328125 12.15625 50.6875 5.359375 
Q 44.046875 -1.421875 33.015625 -1.421875 
Q 20.359375 -1.421875 13.671875 8.265625 
Q 6.984375 17.96875 6.984375 36.375 
Q 6.984375 53.65625 15.1875 63.9375 
Q 23.390625 74.21875 37.203125 74.21875 
Q 40.921875 74.21875 44.703125 73.484375 
Q 48.484375 72.75 52.59375 71.296875 
z
" id="DejaVuSans-54"/>
      </defs>
      <g transform="translate(203.526095 322.182437)scale(0.1 -0.1)">
       <use xlink:href="#DejaVuSans-54"/>
       <use x="63.623047" xlink:href="#DejaVuSans-48"/>
       <use x="127.246094" xlink:href="#DejaVuSans-48"/>
      </g>
     </g>
    </g>
    <g id="xtick_5">
     <g id="line2d_5">
      <g>
       <use style="stroke:#000000;stroke-width:0.8;" x="259.482217" xlink:href="#m95d437c040" y="307.584"/>
      </g>
     </g>
     <g id="text_5">
      <!-- 800 -->
      <defs>
       <path d="M 31.78125 34.625 
Q 24.75 34.625 20.71875 30.859375 
Q 16.703125 27.09375 16.703125 20.515625 
Q 16.703125 13.921875 20.71875 10.15625 
Q 24.75 6.390625 31.78125 6.390625 
Q 38.8125 6.390625 42.859375 10.171875 
Q 46.921875 13.96875 46.921875 20.515625 
Q 46.921875 27.09375 42.890625 30.859375 
Q 38.875 34.625 31.78125 34.625 
z
M 21.921875 38.8125 
Q 15.578125 40.375 12.03125 44.71875 
Q 8.5 49.078125 8.5 55.328125 
Q 8.5 64.0625 14.71875 69.140625 
Q 20.953125 74.21875 31.78125 74.21875 
Q 42.671875 74.21875 48.875 69.140625 
Q 55.078125 64.0625 55.078125 55.328125 
Q 55.078125 49.078125 51.53125 44.71875 
Q 48 40.375 41.703125 38.8125 
Q 48.828125 37.15625 52.796875 32.3125 
Q 56.78125 27.484375 56.78125 20.515625 
Q 56.78125 9.90625 50.3125 4.234375 
Q 43.84375 -1.421875 31.78125 -1.421875 
Q 19.734375 -1.421875 13.25 4.234375 
Q 6.78125 9.90625 6.78125 20.515625 
Q 6.78125 27.484375 10.78125 32.3125 
Q 14.796875 37.15625 21.921875 38.8125 
z
M 18.3125 54.390625 
Q 18.3125 48.734375 21.84375 45.5625 
Q 25.390625 42.390625 31.78125 42.390625 
Q 38.140625 42.390625 41.71875 45.5625 
Q 45.3125 48.734375 45.3125 54.390625 
Q 45.3125 60.0625 41.71875 63.234375 
Q 38.140625 66.40625 31.78125 66.40625 
Q 25.390625 66.40625 21.84375 63.234375 
Q 18.3125 60.0625 18.3125 54.390625 
z
" id="DejaVuSans-56"/>
      </defs>
      <g transform="translate(249.938467 322.182437)scale(0.1 -0.1)">
       <use xlink:href="#DejaVuSans-56"/>
       <use x="63.623047" xlink:href="#DejaVuSans-48"/>
       <use x="127.246094" xlink:href="#DejaVuSans-48"/>
      </g>
     </g>
    </g>
    <g id="xtick_6">
     <g id="line2d_6">
      <g>
       <use style="stroke:#000000;stroke-width:0.8;" x="305.89459" xlink:href="#m95d437c040" y="307.584"/>
      </g>
     </g>
     <g id="text_6">
      <!-- 1000 -->
      <defs>
       <path d="M 12.40625 8.296875 
L 28.515625 8.296875 
L 28.515625 63.921875 
L 10.984375 60.40625 
L 10.984375 69.390625 
L 28.421875 72.90625 
L 38.28125 72.90625 
L 38.28125 8.296875 
L 54.390625 8.296875 
L 54.390625 0 
L 12.40625 0 
z
" id="DejaVuSans-49"/>
      </defs>
      <g transform="translate(293.16959 322.182437)scale(0.1 -0.1)">
       <use xlink:href="#DejaVuSans-49"/>
       <use x="63.623047" xlink:href="#DejaVuSans-48"/>
       <use x="127.246094" xlink:href="#DejaVuSans-48"/>
       <use x="190.869141" xlink:href="#DejaVuSans-48"/>
      </g>
     </g>
    </g>
    <g id="xtick_7">
     <g id="line2d_7">
      <g>
       <use style="stroke:#000000;stroke-width:0.8;" x="352.306962" xlink:href="#m95d437c040" y="307.584"/>
      </g>
     </g>
     <g id="text_7">
      <!-- 1200 -->
      <g transform="translate(339.581962 322.182437)scale(0.1 -0.1)">
       <use xlink:href="#DejaVuSans-49"/>
       <use x="63.623047" xlink:href="#DejaVuSans-50"/>
       <use x="127.246094" xlink:href="#DejaVuSans-48"/>
       <use x="190.869141" xlink:href="#DejaVuSans-48"/>
      </g>
     </g>
    </g>
    <g id="xtick_8">
     <g id="line2d_8">
      <g>
       <use style="stroke:#000000;stroke-width:0.8;" x="398.719335" xlink:href="#m95d437c040" y="307.584"/>
      </g>
     </g>
     <g id="text_8">
      <!-- 1400 -->
      <g transform="translate(385.994335 322.182437)scale(0.1 -0.1)">
       <use xlink:href="#DejaVuSans-49"/>
       <use x="63.623047" xlink:href="#DejaVuSans-52"/>
       <use x="127.246094" xlink:href="#DejaVuSans-48"/>
       <use x="190.869141" xlink:href="#DejaVuSans-48"/>
      </g>
     </g>
    </g>
   </g>
   <g id="matplotlib.axis_2">
    <g id="ytick_1">
     <g id="line2d_9">
      <defs>
       <path d="M 0 0 
L -3.5 0 
" id="mc3c255b8a0" style="stroke:#000000;stroke-width:0.8;"/>
      </defs>
      <g>
       <use style="stroke:#000000;stroke-width:0.8;" x="57.6" xlink:href="#mc3c255b8a0" y="296.653006"/>
      </g>
     </g>
     <g id="text_9">
      <!-- 0.000 -->
      <defs>
       <path d="M 10.6875 12.40625 
L 21 12.40625 
L 21 0 
L 10.6875 0 
z
" id="DejaVuSans-46"/>
      </defs>
      <g transform="translate(21.971875 300.452225)scale(0.1 -0.1)">
       <use xlink:href="#DejaVuSans-48"/>
       <use x="63.623047" xlink:href="#DejaVuSans-46"/>
       <use x="95.410156" xlink:href="#DejaVuSans-48"/>
       <use x="159.033203" xlink:href="#DejaVuSans-48"/>
       <use x="222.65625" xlink:href="#DejaVuSans-48"/>
      </g>
     </g>
    </g>
    <g id="ytick_2">
     <g id="line2d_10">
      <g>
       <use style="stroke:#000000;stroke-width:0.8;" x="57.6" xlink:href="#mc3c255b8a0" y="258.526954"/>
      </g>
     </g>
     <g id="text_10">
      <!-- 0.002 -->
      <g transform="translate(21.971875 262.326173)scale(0.1 -0.1)">
       <use xlink:href="#DejaVuSans-48"/>
       <use x="63.623047" xlink:href="#DejaVuSans-46"/>
       <use x="95.410156" xlink:href="#DejaVuSans-48"/>
       <use x="159.033203" xlink:href="#DejaVuSans-48"/>
       <use x="222.65625" xlink:href="#DejaVuSans-50"/>
      </g>
     </g>
    </g>
    <g id="ytick_3">
     <g id="line2d_11">
      <g>
       <use style="stroke:#000000;stroke-width:0.8;" x="57.6" xlink:href="#mc3c255b8a0" y="220.400902"/>
      </g>
     </g>
     <g id="text_11">
      <!-- 0.004 -->
      <g transform="translate(21.971875 224.200121)scale(0.1 -0.1)">
       <use xlink:href="#DejaVuSans-48"/>
       <use x="63.623047" xlink:href="#DejaVuSans-46"/>
       <use x="95.410156" xlink:href="#DejaVuSans-48"/>
       <use x="159.033203" xlink:href="#DejaVuSans-48"/>
       <use x="222.65625" xlink:href="#DejaVuSans-52"/>
      </g>
     </g>
    </g>
    <g id="ytick_4">
     <g id="line2d_12">
      <g>
       <use style="stroke:#000000;stroke-width:0.8;" x="57.6" xlink:href="#mc3c255b8a0" y="182.274851"/>
      </g>
     </g>
     <g id="text_12">
      <!-- 0.006 -->
      <g transform="translate(21.971875 186.07407)scale(0.1 -0.1)">
       <use xlink:href="#DejaVuSans-48"/>
       <use x="63.623047" xlink:href="#DejaVuSans-46"/>
       <use x="95.410156" xlink:href="#DejaVuSans-48"/>
       <use x="159.033203" xlink:href="#DejaVuSans-48"/>
       <use x="222.65625" xlink:href="#DejaVuSans-54"/>
      </g>
     </g>
    </g>
    <g id="ytick_5">
     <g id="line2d_13">
      <g>
       <use style="stroke:#000000;stroke-width:0.8;" x="57.6" xlink:href="#mc3c255b8a0" y="144.148799"/>
      </g>
     </g>
     <g id="text_13">
      <!-- 0.008 -->
      <g transform="translate(21.971875 147.948018)scale(0.1 -0.1)">
       <use xlink:href="#DejaVuSans-48"/>
       <use x="63.623047" xlink:href="#DejaVuSans-46"/>
       <use x="95.410156" xlink:href="#DejaVuSans-48"/>
       <use x="159.033203" xlink:href="#DejaVuSans-48"/>
       <use x="222.65625" xlink:href="#DejaVuSans-56"/>
      </g>
     </g>
    </g>
    <g id="ytick_6">
     <g id="line2d_14">
      <g>
       <use style="stroke:#000000;stroke-width:0.8;" x="57.6" xlink:href="#mc3c255b8a0" y="106.022747"/>
      </g>
     </g>
     <g id="text_14">
      <!-- 0.010 -->
      <g transform="translate(21.971875 109.821966)scale(0.1 -0.1)">
       <use xlink:href="#DejaVuSans-48"/>
       <use x="63.623047" xlink:href="#DejaVuSans-46"/>
       <use x="95.410156" xlink:href="#DejaVuSans-48"/>
       <use x="159.033203" xlink:href="#DejaVuSans-49"/>
       <use x="222.65625" xlink:href="#DejaVuSans-48"/>
      </g>
     </g>
    </g>
    <g id="ytick_7">
     <g id="line2d_15">
      <g>
       <use style="stroke:#000000;stroke-width:0.8;" x="57.6" xlink:href="#mc3c255b8a0" y="67.896696"/>
      </g>
     </g>
     <g id="text_15">
      <!-- 0.012 -->
      <g transform="translate(21.971875 71.695914)scale(0.1 -0.1)">
       <use xlink:href="#DejaVuSans-48"/>
       <use x="63.623047" xlink:href="#DejaVuSans-46"/>
       <use x="95.410156" xlink:href="#DejaVuSans-48"/>
       <use x="159.033203" xlink:href="#DejaVuSans-49"/>
       <use x="222.65625" xlink:href="#DejaVuSans-50"/>
      </g>
     </g>
    </g>
   </g>
   <g id="line2d_16">
    <path clip-path="url(#p9bd8e03a01)" d="M 73.832727 290.945489 
L 74.296851 292.044984 
L 74.528913 295.488 
L 74.993037 293.663854 
L 75.225098 293.74097 
L 75.45716 291.657811 
L 75.921284 293.485741 
L 76.153346 291.695186 
L 76.385408 293.04826 
L 76.61747 295.419687 
L 76.849531 291.786843 
L 77.081593 292.245827 
L 77.313655 293.312405 
L 77.545717 291.670402 
L 77.777779 292.928891 
L 78.009841 292.329665 
L 78.473965 291.890714 
L 78.706026 292.483933 
L 78.938088 287.953247 
L 79.17015 291.77606 
L 79.402212 292.887591 
L 79.634274 289.003756 
L 79.866336 289.202868 
L 80.098398 293.889571 
L 80.330459 289.589405 
L 80.562521 295.274476 
L 81.026645 282.121556 
L 81.258707 293.876879 
L 81.490769 294.064389 
L 81.722831 289.484994 
L 81.954892 293.147446 
L 82.186954 292.394416 
L 82.419016 290.805982 
L 82.651078 294.421314 
L 82.88314 294.153396 
L 83.115202 292.988059 
L 83.347264 293.842779 
L 83.579325 293.73023 
L 83.811387 293.450844 
L 84.043449 288.917248 
L 84.275511 293.715241 
L 84.507573 291.61313 
L 84.739635 292.384176 
L 84.971697 290.577098 
L 85.203759 290.53594 
L 85.43582 278.904797 
L 85.667882 291.571383 
L 85.899944 293.660373 
L 86.132006 291.189618 
L 86.59613 289.734946 
L 86.828192 294.870842 
L 87.292315 290.405374 
L 87.524377 293.175954 
L 87.756439 290.062686 
L 87.988501 292.815188 
L 88.684686 287.014415 
L 88.916748 293.640874 
L 89.14881 291.488283 
L 89.380872 290.925721 
L 89.612934 292.084714 
L 89.844996 295.284855 
L 90.077058 288.646682 
L 90.30912 287.706642 
L 90.541181 293.244023 
L 90.773243 293.326167 
L 91.005305 293.225063 
L 91.237367 294.988682 
L 91.469429 288.467707 
L 91.701491 292.536479 
L 91.933553 292.757686 
L 92.165614 293.959167 
L 92.397676 290.766763 
L 92.629738 291.052738 
L 92.8618 290.128208 
L 93.093862 293.063573 
L 93.325924 292.086497 
L 93.557986 292.077399 
L 93.790047 291.733906 
L 94.022109 292.986099 
L 94.254171 288.97608 
L 94.486233 289.174161 
L 94.718295 292.140663 
L 94.950357 291.778841 
L 95.182419 292.795776 
L 95.41448 287.505612 
L 95.646542 292.903565 
L 95.878604 291.062054 
L 96.110666 291.406247 
L 96.342728 292.812256 
L 96.57479 289.128353 
L 96.806852 293.09995 
L 97.270975 286.435083 
L 97.735099 293.39401 
L 97.967161 290.849482 
L 98.199223 284.428123 
L 98.431285 292.895242 
L 98.663347 290.944639 
L 98.895408 291.030583 
L 99.12747 293.046599 
L 99.359532 292.239764 
L 99.823656 292.678171 
L 100.055718 293.730827 
L 100.28778 291.133364 
L 100.519841 293.280208 
L 100.751903 293.825119 
L 100.983965 290.855181 
L 101.448089 292.817338 
L 101.680151 291.318258 
L 101.912213 289.083579 
L 102.144274 290.860638 
L 102.376336 288.946929 
L 102.608398 291.252844 
L 102.84046 290.999009 
L 103.072522 292.111399 
L 103.304584 292.567574 
L 103.536646 293.310886 
L 103.768708 286.791571 
L 104.232831 289.158424 
L 104.464893 293.273531 
L 104.696955 291.045356 
L 104.929017 291.015196 
L 105.161079 292.599313 
L 105.393141 291.406534 
L 105.625202 289.296394 
L 105.857264 291.145859 
L 106.089326 290.947932 
L 106.321388 289.790608 
L 106.55345 287.631105 
L 106.785512 290.690381 
L 107.017574 291.98308 
L 107.249635 291.127003 
L 107.481697 291.978421 
L 108.642007 292.002241 
L 108.874068 290.614942 
L 109.10613 293.763748 
L 109.338192 293.699739 
L 109.802316 286.858121 
L 110.034378 288.895993 
L 110.26644 289.351307 
L 110.730563 294.143904 
L 110.962625 292.365901 
L 111.194687 291.877612 
L 111.426749 291.789486 
L 111.658811 291.287248 
L 111.890873 291.799182 
L 112.122935 292.884167 
L 112.587058 286.594244 
L 112.81912 289.134659 
L 113.051182 292.972197 
L 113.283244 290.13788 
L 113.515306 291.958159 
L 113.747368 289.619891 
L 113.979429 292.896541 
L 114.211491 290.494865 
L 114.443553 289.67584 
L 114.675615 290.116886 
L 114.907677 289.963298 
L 115.139739 288.706955 
L 115.371801 291.086692 
L 115.603862 290.240111 
L 115.835924 290.765396 
L 116.300048 291.163977 
L 116.53211 290.061807 
L 116.764172 289.729036 
L 116.996234 290.380089 
L 117.228296 290.426435 
L 117.460357 291.01383 
L 117.692419 288.992442 
L 117.924481 290.886145 
L 118.388605 290.580971 
L 118.620667 290.578798 
L 118.852729 290.402352 
L 119.548914 290.46572 
L 119.780976 291.455088 
L 120.013038 290.528199 
L 120.2451 290.270153 
L 120.477162 292.745109 
L 120.709223 290.519467 
L 120.941285 292.693078 
L 121.173347 291.843679 
L 121.405409 289.632786 
L 121.637471 280.693095 
L 121.869533 292.361682 
L 122.101595 293.804617 
L 122.333657 292.951699 
L 122.565718 291.484337 
L 122.79778 291.389825 
L 123.029842 292.719236 
L 123.261904 291.350105 
L 123.493966 293.331435 
L 123.726028 292.986364 
L 123.95809 292.976598 
L 124.190151 292.401462 
L 124.654275 292.643123 
L 124.886337 291.562986 
L 125.118399 289.157546 
L 125.582523 293.410323 
L 125.814584 293.31503 
L 126.046646 292.659849 
L 126.278708 294.30318 
L 126.51077 294.053437 
L 126.974894 290.749696 
L 127.206956 293.513454 
L 127.671079 290.553391 
L 127.903141 291.946808 
L 128.599327 292.576112 
L 128.831389 288.927869 
L 129.063451 291.449097 
L 129.295512 290.312448 
L 129.527574 290.821474 
L 129.759636 293.481063 
L 130.22376 291.160911 
L 130.455822 292.554861 
L 130.687884 292.533224 
L 130.919945 293.243412 
L 131.152007 293.232075 
L 131.384069 290.868882 
L 131.616131 293.153656 
L 131.848193 292.790894 
L 132.080255 292.845252 
L 132.312317 292.757005 
L 132.544378 292.295764 
L 132.77644 291.271448 
L 133.008502 292.308677 
L 133.240564 292.356906 
L 133.472626 291.695998 
L 133.704688 291.594808 
L 133.93675 292.256131 
L 134.168811 292.367152 
L 134.400873 291.532317 
L 134.632935 292.229647 
L 134.864997 291.024787 
L 135.097059 291.498253 
L 135.329121 292.30895 
L 135.561183 291.842119 
L 135.793245 292.97528 
L 136.025306 292.547921 
L 136.48943 288.896487 
L 136.721492 288.966857 
L 136.953554 291.195495 
L 137.185616 290.857595 
L 137.417678 291.603116 
L 137.881801 288.349381 
L 138.113863 291.365108 
L 138.345925 291.147782 
L 138.577987 288.393418 
L 138.810049 291.005778 
L 139.042111 288.396975 
L 139.274172 291.578161 
L 139.506234 288.577868 
L 139.738296 291.030356 
L 139.970358 288.497908 
L 140.20242 292.908668 
L 140.434482 288.601345 
L 140.666544 292.445832 
L 141.130667 288.964241 
L 141.362729 290.828785 
L 141.594791 291.400423 
L 141.826853 291.15294 
L 142.058915 291.652223 
L 142.290977 291.324839 
L 142.523039 289.40374 
L 142.7551 291.853727 
L 142.987162 289.741485 
L 143.219224 290.5333 
L 143.451286 290.139884 
L 143.683348 289.972982 
L 143.91541 291.040829 
L 144.379533 289.750453 
L 144.611595 292.147699 
L 144.843657 292.437067 
L 145.539843 289.609356 
L 145.771905 290.955578 
L 146.003966 290.895882 
L 146.236028 290.044458 
L 146.46809 289.869533 
L 146.700152 291.604364 
L 146.932214 290.992969 
L 147.164276 288.951249 
L 147.396338 290.629212 
L 147.6284 289.756943 
L 147.860461 291.255955 
L 148.092523 291.261979 
L 148.324585 290.805767 
L 148.556647 291.828468 
L 148.788709 289.179958 
L 149.020771 289.420705 
L 149.252833 289.479399 
L 149.484894 290.869695 
L 149.716956 288.413339 
L 149.949018 289.831589 
L 150.18108 292.66279 
L 150.645204 290.229549 
L 150.877266 288.066797 
L 151.109327 289.968979 
L 151.341389 290.439069 
L 151.573451 291.478441 
L 151.805513 286.99752 
L 152.037575 291.37876 
L 152.269637 290.307862 
L 152.501699 290.971295 
L 152.73376 289.59434 
L 152.965822 289.241172 
L 153.197884 288.419303 
L 153.429946 289.535159 
L 153.662008 289.478041 
L 153.89407 287.387329 
L 154.126132 289.749326 
L 154.358194 287.18444 
L 154.590255 287.06786 
L 154.822317 291.369742 
L 155.054379 289.796094 
L 155.286441 287.011422 
L 155.518503 288.739997 
L 155.750565 289.321665 
L 155.982627 290.377133 
L 156.214688 290.888102 
L 156.44675 287.920146 
L 156.678812 289.720769 
L 156.910874 289.538759 
L 157.142936 289.7455 
L 157.374998 288.942622 
L 157.839121 289.608621 
L 158.071183 291.285534 
L 158.303245 290.407118 
L 158.535307 288.874897 
L 158.767369 289.595875 
L 158.999431 290.895926 
L 159.463554 288.230506 
L 159.695616 290.174513 
L 159.927678 290.505366 
L 160.15974 290.473421 
L 160.391802 290.008757 
L 160.623864 290.793116 
L 160.855926 289.238865 
L 161.087988 290.185702 
L 161.320049 290.2113 
L 161.552111 291.096423 
L 161.784173 287.477703 
L 162.016235 286.744297 
L 162.248297 286.643689 
L 162.480359 286.746605 
L 162.712421 287.777253 
L 162.944482 287.386864 
L 163.176544 287.412225 
L 163.408606 288.548009 
L 163.640668 288.644667 
L 164.104792 286.813582 
L 164.568915 286.804599 
L 164.800977 287.351074 
L 165.033039 288.822582 
L 165.497163 290.591474 
L 165.729225 289.404597 
L 165.961287 289.38133 
L 166.193348 290.696691 
L 166.42541 289.804981 
L 166.657472 290.060695 
L 166.889534 286.256649 
L 167.121596 287.464374 
L 167.353658 289.299563 
L 167.58572 288.658903 
L 167.817782 288.553631 
L 168.049843 289.58196 
L 168.281905 289.658704 
L 168.513967 286.622721 
L 168.746029 281.829856 
L 168.978091 287.444522 
L 169.442215 281.98048 
L 169.674276 288.07958 
L 169.906338 288.863322 
L 170.1384 287.205748 
L 170.370462 289.08398 
L 170.602524 288.569289 
L 170.834586 289.150631 
L 171.066648 286.27759 
L 171.298709 290.104138 
L 171.530771 287.009334 
L 171.762833 290.537518 
L 171.994895 287.692975 
L 172.226957 288.221666 
L 172.459019 289.309601 
L 172.691081 286.178641 
L 172.923143 287.461263 
L 173.155204 286.899705 
L 173.387266 289.527564 
L 173.619328 289.695018 
L 173.85139 286.546024 
L 174.083452 289.285471 
L 174.547576 287.891649 
L 174.779637 289.076946 
L 175.011699 288.829144 
L 175.243761 289.603329 
L 175.475823 288.147691 
L 175.707885 289.066782 
L 175.939947 288.612875 
L 176.172009 288.746829 
L 176.40407 288.596499 
L 176.636132 290.107241 
L 176.868194 289.319266 
L 177.100256 285.455664 
L 177.332318 287.81287 
L 177.56438 287.362663 
L 177.796442 285.194379 
L 178.260565 288.1737 
L 178.492627 284.47171 
L 178.724689 284.110021 
L 178.956751 284.182445 
L 179.188813 284.876895 
L 179.652937 287.680589 
L 179.884998 287.009461 
L 180.11706 287.325325 
L 180.349122 284.273224 
L 180.581184 278.547649 
L 180.813246 285.84478 
L 181.27737 280.772668 
L 181.509431 288.037024 
L 181.741493 289.536183 
L 181.973555 288.070586 
L 182.437679 289.614047 
L 182.669741 290.658001 
L 182.901803 284.677464 
L 183.133864 289.571994 
L 183.365926 288.559687 
L 183.597988 288.621767 
L 183.83005 289.838801 
L 184.062112 287.742413 
L 184.294174 289.124407 
L 184.526236 288.743048 
L 184.758297 287.225087 
L 184.990359 289.079775 
L 185.222421 289.182186 
L 185.454483 286.077159 
L 185.686545 289.302653 
L 185.918607 290.589194 
L 186.150669 287.984904 
L 186.382731 283.657728 
L 186.846854 289.644428 
L 187.078916 288.447811 
L 187.310978 290.638775 
L 187.54304 284.036843 
L 187.775102 289.118098 
L 188.007164 290.994445 
L 188.471287 286.691835 
L 188.703349 287.72202 
L 188.935411 289.589121 
L 189.167473 289.706971 
L 189.399535 285.640246 
L 189.631597 289.672336 
L 189.863658 288.703439 
L 190.09572 289.712214 
L 190.327782 288.094047 
L 190.559844 287.996426 
L 190.791906 288.625349 
L 191.023968 285.707375 
L 191.488091 289.928253 
L 191.720153 290.000148 
L 191.952215 288.295026 
L 192.184277 290.047831 
L 192.416339 287.887786 
L 192.648401 290.869614 
L 192.880463 289.711287 
L 193.112525 287.654599 
L 193.344586 290.274216 
L 193.80871 286.854663 
L 194.272834 290.655042 
L 194.504896 288.128029 
L 194.736958 287.920336 
L 194.969019 291.041883 
L 195.201081 289.990687 
L 195.433143 287.09092 
L 195.665205 289.016767 
L 195.897267 289.4232 
L 196.129329 283.726808 
L 196.361391 290.217572 
L 196.825514 287.171116 
L 197.057576 284.157254 
L 197.289638 285.094906 
L 197.5217 285.02901 
L 197.753762 284.833445 
L 197.985824 286.273566 
L 198.217886 289.711418 
L 198.449947 285.614425 
L 198.682009 288.961867 
L 198.914071 289.615328 
L 199.146133 288.548584 
L 199.378195 289.343647 
L 199.610257 288.873016 
L 199.842319 290.511276 
L 200.07438 290.166498 
L 200.538504 285.307377 
L 200.770566 291.654763 
L 201.002628 287.705942 
L 201.23469 289.603978 
L 201.466752 289.819302 
L 201.698813 290.812694 
L 201.930875 289.148898 
L 202.162937 281.970282 
L 202.394999 283.502662 
L 202.859123 284.344848 
L 203.091185 281.879988 
L 203.323246 289.093164 
L 203.555308 287.811112 
L 203.78737 282.675344 
L 204.019432 282.504579 
L 204.251494 289.829235 
L 204.483556 292.101344 
L 204.715618 292.215186 
L 204.94768 292.759615 
L 205.411803 291.259346 
L 205.643865 291.184201 
L 205.875927 293.370516 
L 206.107989 291.091184 
L 206.572113 292.697658 
L 207.036236 289.016159 
L 207.268298 291.925531 
L 207.50036 291.885848 
L 207.732422 292.313935 
L 207.964484 289.722649 
L 208.196546 291.737371 
L 208.428607 290.166588 
L 208.660669 289.765202 
L 208.892731 291.538329 
L 209.124793 291.8554 
L 209.356855 291.698293 
L 209.588917 289.936623 
L 209.820979 291.212134 
L 210.05304 289.199254 
L 210.285102 291.955749 
L 210.517164 291.884682 
L 210.749226 290.88258 
L 210.981288 291.640161 
L 211.21335 288.457643 
L 211.445412 291.017904 
L 211.909535 290.692288 
L 212.141597 292.132062 
L 212.373659 288.758095 
L 212.605721 290.872237 
L 212.837783 289.843979 
L 213.069845 289.47235 
L 213.301907 291.553902 
L 213.533968 291.901622 
L 213.76603 290.459306 
L 213.998092 291.522947 
L 214.230154 285.643877 
L 214.462216 289.38622 
L 214.694278 291.25131 
L 214.92634 290.558762 
L 215.158401 292.181285 
L 215.390463 291.250218 
L 215.622525 289.066025 
L 215.854587 290.082125 
L 216.086649 289.933099 
L 216.318711 291.435835 
L 216.550773 291.003224 
L 216.782834 291.04394 
L 217.014896 289.722551 
L 217.47902 292.233508 
L 217.711082 289.564453 
L 217.943144 291.423326 
L 218.175206 289.732125 
L 218.407268 291.640592 
L 218.639329 292.369655 
L 218.871391 290.884912 
L 219.103453 291.168455 
L 219.335515 291.803332 
L 219.567577 289.787995 
L 219.799639 290.752313 
L 220.031701 288.003268 
L 220.263762 290.103604 
L 220.495824 289.798832 
L 220.727886 290.558637 
L 221.19201 293.093389 
L 221.424072 291.982278 
L 221.656134 287.596658 
L 221.888195 291.87406 
L 222.120257 291.476245 
L 222.352319 289.490539 
L 222.816443 287.841824 
L 223.048505 290.234103 
L 223.512629 287.225428 
L 223.74469 290.417344 
L 223.976752 285.734659 
L 224.208814 289.968112 
L 224.440876 291.183064 
L 224.672938 291.801964 
L 224.905 289.455741 
L 225.137062 290.052445 
L 225.369123 289.264998 
L 225.601185 290.956808 
L 225.833247 290.265713 
L 226.065309 288.27839 
L 226.297371 289.633428 
L 226.529433 289.593617 
L 226.761495 286.064785 
L 226.993556 291.108732 
L 227.225618 292.051736 
L 227.45768 291.697104 
L 227.921804 287.877141 
L 228.153866 287.175018 
L 228.385928 291.904844 
L 228.617989 291.020007 
L 228.850051 291.480266 
L 229.082113 289.6768 
L 229.314175 285.837785 
L 229.546237 291.574818 
L 229.778299 287.503321 
L 230.010361 291.314454 
L 230.242423 291.310251 
L 230.474484 291.080205 
L 230.706546 290.336836 
L 230.938608 288.639629 
L 231.17067 289.362436 
L 231.402732 292.060019 
L 231.634794 292.195162 
L 231.866856 290.036242 
L 232.098917 290.90106 
L 232.330979 290.830692 
L 232.563041 290.623234 
L 232.795103 292.132134 
L 233.027165 292.739958 
L 233.259227 292.093075 
L 233.72335 292.353299 
L 233.955412 292.815148 
L 234.187474 291.424157 
L 234.419536 293.430469 
L 234.651598 289.440264 
L 234.88366 290.311067 
L 235.115722 292.793908 
L 235.347783 291.609594 
L 235.579845 289.180155 
L 236.043969 293.319522 
L 236.276031 292.904067 
L 236.508093 291.565969 
L 236.740155 292.502565 
L 237.204278 291.305432 
L 237.43634 291.291881 
L 237.668402 290.276441 
L 237.900464 291.739499 
L 238.132526 291.592498 
L 238.364588 292.099416 
L 238.59665 291.64677 
L 238.828711 293.100435 
L 239.060773 291.555306 
L 239.292835 292.199118 
L 239.524897 292.337281 
L 239.756959 291.060112 
L 240.221083 291.911699 
L 240.453144 289.457558 
L 240.917268 294.316914 
L 241.14933 291.991065 
L 241.381392 290.806052 
L 241.845516 292.620204 
L 242.077577 289.753382 
L 242.309639 292.6565 
L 242.541701 292.687913 
L 243.005825 290.576897 
L 243.237887 292.133119 
L 243.469949 284.812403 
L 243.702011 293.52362 
L 244.166134 291.413428 
L 244.630258 292.393798 
L 244.86232 292.475855 
L 245.094382 292.9678 
L 245.326444 292.920749 
L 245.558505 292.585686 
L 245.790567 292.008527 
L 246.022629 291.861675 
L 246.254691 292.886185 
L 246.486753 292.627789 
L 246.718815 291.84529 
L 246.950877 292.212832 
L 247.182938 292.020379 
L 247.415 291.978133 
L 247.647062 292.960286 
L 247.879124 292.338648 
L 248.111186 292.285567 
L 248.57531 292.689355 
L 248.807371 290.739578 
L 249.039433 292.858243 
L 249.271495 293.082155 
L 249.503557 293.56685 
L 249.735619 292.582833 
L 249.967681 293.132517 
L 250.199743 292.846639 
L 250.663866 292.910662 
L 250.895928 292.680457 
L 251.12799 291.396297 
L 251.360052 293.346502 
L 251.592114 292.917166 
L 251.824176 291.399581 
L 252.056238 292.83143 
L 252.288299 292.621788 
L 252.520361 292.80998 
L 252.752423 292.747646 
L 252.984485 291.988675 
L 253.216547 293.343204 
L 253.448609 292.453021 
L 253.680671 292.361692 
L 254.144794 292.450232 
L 254.376856 291.71162 
L 254.84098 292.228119 
L 255.305104 292.661982 
L 255.537166 292.491922 
L 255.769227 292.644108 
L 256.233351 292.201345 
L 256.465413 292.531405 
L 256.697475 291.83435 
L 256.929537 290.520369 
L 257.161599 293.014119 
L 257.39366 292.921472 
L 257.625722 293.122463 
L 257.857784 293.613709 
L 258.089846 290.589331 
L 258.321908 292.413434 
L 258.55397 293.035784 
L 258.786032 293.281546 
L 259.018093 292.721727 
L 259.250155 293.425106 
L 259.482217 290.949212 
L 259.714279 290.390498 
L 259.946341 292.478328 
L 260.178403 293.041351 
L 260.410465 293.05451 
L 260.642526 290.428112 
L 260.874588 292.805793 
L 261.10665 292.552434 
L 261.338712 289.931841 
L 261.570774 289.785962 
L 261.802836 292.657012 
L 262.034898 290.497961 
L 262.26696 292.841037 
L 262.499021 284.150825 
L 262.731083 293.005519 
L 262.963145 292.759296 
L 263.195207 291.526392 
L 263.427269 293.100431 
L 263.659331 293.213837 
L 263.891393 292.746502 
L 264.123454 292.814893 
L 264.355516 292.333535 
L 264.587578 293.61336 
L 264.81964 293.61908 
L 265.051702 293.131974 
L 265.283764 291.341572 
L 265.515826 291.351827 
L 265.979949 292.42081 
L 266.212011 291.963779 
L 266.444073 291.161112 
L 266.676135 291.046799 
L 266.908197 290.704175 
L 267.140259 292.473307 
L 267.604382 292.637992 
L 267.836444 292.460167 
L 268.068506 292.651033 
L 268.300568 291.703856 
L 268.53263 293.187284 
L 268.764692 292.332456 
L 268.996754 291.9432 
L 269.228815 293.373472 
L 269.460877 291.766476 
L 269.692939 293.448346 
L 269.925001 292.845264 
L 270.157063 293.455451 
L 270.389125 293.430935 
L 270.621187 292.822046 
L 270.853248 293.541884 
L 271.08531 293.548841 
L 271.317372 292.257779 
L 271.549434 292.277694 
L 271.781496 294.083828 
L 272.013558 286.843343 
L 272.477681 293.222656 
L 272.709743 293.251769 
L 272.941805 292.910135 
L 273.173867 293.260958 
L 273.405929 290.78214 
L 273.637991 285.708232 
L 273.870053 291.326655 
L 274.102114 292.449686 
L 274.334176 292.599388 
L 274.566238 291.569125 
L 274.7983 293.381341 
L 275.030362 293.465514 
L 275.262424 290.693099 
L 275.726548 293.709408 
L 275.958609 293.624278 
L 276.190671 290.099924 
L 276.422733 293.543609 
L 276.654795 293.463635 
L 276.886857 292.540046 
L 277.350981 294.116162 
L 277.583042 293.215273 
L 277.815104 293.054797 
L 278.047166 293.173642 
L 278.279228 292.262439 
L 278.51129 292.979677 
L 278.743352 291.970407 
L 278.975414 293.394412 
L 279.207475 292.927097 
L 279.439537 293.940477 
L 279.671599 292.5621 
L 279.903661 292.572221 
L 280.135723 292.339526 
L 280.367785 290.840384 
L 280.831909 292.614997 
L 281.296032 291.525518 
L 281.528094 290.268074 
L 281.760156 290.443803 
L 281.992218 292.967886 
L 282.22428 293.481433 
L 282.688403 291.330961 
L 282.920465 293.632275 
L 283.152527 293.295897 
L 283.384589 291.742535 
L 283.616651 291.960237 
L 284.080775 292.547929 
L 284.312836 294.08016 
L 284.544898 291.575319 
L 284.77696 291.680415 
L 285.009022 292.372017 
L 285.241084 292.330089 
L 285.473146 292.547896 
L 285.705208 291.857172 
L 285.937269 293.375541 
L 286.169331 291.306128 
L 286.401393 292.906469 
L 286.633455 292.891071 
L 286.865517 293.290318 
L 287.329641 291.592829 
L 287.561703 292.457331 
L 287.793764 290.084291 
L 288.025826 291.630573 
L 288.257888 291.754978 
L 288.48995 291.729044 
L 288.722012 292.091675 
L 288.954074 292.155932 
L 289.186136 293.898831 
L 289.418197 294.212175 
L 290.114383 291.240257 
L 290.346445 291.057167 
L 290.578507 291.877186 
L 291.04263 292.558006 
L 291.274692 292.747046 
L 291.506754 291.539058 
L 291.970878 292.769655 
L 292.435002 293.200401 
L 292.667063 292.768598 
L 292.899125 293.709567 
L 293.131187 293.247153 
L 293.363249 293.101161 
L 293.595311 292.470049 
L 293.827373 292.694637 
L 294.059435 291.529158 
L 294.291497 292.619381 
L 294.523558 290.491206 
L 294.987682 291.166673 
L 295.219744 292.578444 
L 295.451806 292.428787 
L 295.683868 290.806014 
L 295.91593 290.773148 
L 296.147991 291.736811 
L 296.380053 291.113966 
L 296.612115 292.082785 
L 296.844177 293.645044 
L 297.308301 290.415365 
L 297.540363 291.324032 
L 298.004486 291.268145 
L 298.236548 292.29497 
L 298.46861 292.680421 
L 298.700672 290.433114 
L 298.932734 291.649523 
L 299.164796 289.724131 
L 299.396857 291.085207 
L 299.628919 291.242365 
L 299.860981 289.974878 
L 300.093043 290.130944 
L 300.325105 291.749023 
L 300.557167 291.182581 
L 300.789229 291.271658 
L 301.021291 291.108832 
L 301.253352 291.281212 
L 301.485414 291.681915 
L 301.949538 291.633549 
L 302.1816 291.57724 
L 302.413662 292.272102 
L 302.645724 291.789532 
L 302.877785 290.80213 
L 303.109847 292.285067 
L 303.341909 291.648297 
L 303.573971 292.196901 
L 303.806033 290.228632 
L 304.038095 290.732813 
L 304.270157 291.833979 
L 304.502218 290.120404 
L 304.73428 290.935355 
L 304.966342 288.38148 
L 305.198404 290.716636 
L 305.430466 290.287376 
L 305.89459 289.941169 
L 306.126652 290.463051 
L 306.358713 287.610241 
L 306.590775 291.638189 
L 306.822837 289.976494 
L 307.054899 290.555168 
L 307.286961 292.381736 
L 307.751085 289.339604 
L 307.983146 290.752629 
L 308.215208 290.899122 
L 308.44727 290.85264 
L 308.679332 290.099701 
L 308.911394 290.431342 
L 309.143456 289.309319 
L 309.375518 291.729517 
L 309.607579 289.4984 
L 309.839641 289.730132 
L 310.071703 289.794866 
L 310.303765 289.532018 
L 310.535827 289.511103 
L 310.999951 289.869335 
L 311.232012 289.750931 
L 311.696136 290.064446 
L 311.928198 290.500652 
L 312.16026 290.363875 
L 312.392322 289.876642 
L 312.624384 289.932448 
L 313.088507 289.471017 
L 313.552631 289.68659 
L 313.784693 289.624412 
L 314.016755 289.719527 
L 314.248817 290.270893 
L 314.480879 290.232766 
L 314.71294 290.574507 
L 314.945002 288.960841 
L 315.177064 289.657499 
L 315.409126 290.943126 
L 315.641188 289.922186 
L 315.87325 290.566165 
L 316.337373 290.256532 
L 316.569435 289.654535 
L 316.801497 290.172822 
L 317.033559 288.946794 
L 317.265621 290.666821 
L 317.497683 290.841096 
L 317.961806 290.601875 
L 318.42593 290.214595 
L 318.657992 289.113496 
L 318.890054 288.98208 
L 319.122116 289.235766 
L 319.354178 289.294164 
L 319.818301 289.222642 
L 320.050363 289.841228 
L 320.282425 289.819795 
L 320.514487 288.988109 
L 320.746549 289.803951 
L 320.978611 290.152309 
L 321.442734 291.132329 
L 321.674796 289.790327 
L 322.13892 290.341469 
L 322.370982 289.912866 
L 322.603044 290.447442 
L 322.835106 290.66422 
L 323.067167 289.988519 
L 323.299229 290.137557 
L 323.531291 289.844455 
L 323.763353 290.782473 
L 323.995415 290.303954 
L 324.459539 290.601433 
L 324.923662 290.720601 
L 325.155724 290.429969 
L 325.387786 290.32661 
L 325.619848 290.420788 
L 325.85191 291.546596 
L 326.083972 290.898602 
L 326.316034 291.239381 
L 326.780157 289.553821 
L 327.012219 291.227701 
L 327.244281 290.100232 
L 327.476343 289.981697 
L 327.708405 288.728841 
L 327.940467 289.59807 
L 328.172528 289.042905 
L 328.40459 289.311896 
L 328.636652 289.342857 
L 328.868714 289.219997 
L 329.100776 289.841157 
L 329.332838 289.631713 
L 329.5649 289.133774 
L 330.029023 289.413019 
L 330.261085 289.446082 
L 330.493147 289.137959 
L 330.957271 289.274771 
L 331.189333 289.003981 
L 331.653456 290.60792 
L 331.885518 289.476675 
L 332.11758 289.571352 
L 332.349642 288.647701 
L 332.813766 289.330744 
L 333.045828 289.399426 
L 333.277889 290.841869 
L 333.509951 290.97041 
L 333.742013 290.063689 
L 333.974075 290.023224 
L 334.206137 289.791509 
L 334.438199 290.782815 
L 334.670261 289.716454 
L 334.902322 290.286588 
L 335.134384 290.253781 
L 335.366446 289.104121 
L 335.598508 289.489499 
L 336.062632 287.802128 
L 336.294694 290.79873 
L 336.526755 289.574724 
L 336.758817 290.289365 
L 336.990879 290.269947 
L 337.455003 289.729002 
L 337.687065 290.042157 
L 338.151189 290.144205 
L 338.38325 289.642488 
L 338.615312 290.606055 
L 338.847374 290.520946 
L 339.079436 290.139137 
L 339.311498 292.073549 
L 339.775622 289.436286 
L 340.007683 289.476262 
L 340.471807 291.086132 
L 340.703869 290.013511 
L 340.935931 289.842471 
L 341.400055 288.972329 
L 341.632116 287.709655 
L 341.864178 288.398575 
L 342.09624 287.143783 
L 342.560364 289.679396 
L 342.792426 289.233688 
L 343.024488 290.064624 
L 343.256549 289.023749 
L 343.488611 290.684341 
L 343.720673 289.985865 
L 343.952735 291.352091 
L 344.184797 291.451204 
L 344.416859 291.129023 
L 344.648921 289.586994 
L 344.880983 290.455116 
L 345.113044 292.135869 
L 345.345106 290.690802 
L 345.577168 290.114691 
L 345.80923 289.103161 
L 346.041292 290.913565 
L 346.273354 290.339994 
L 346.505416 290.925482 
L 346.969539 287.511075 
L 347.201601 288.651428 
L 347.433663 290.645775 
L 347.897787 287.165445 
L 348.129849 288.702429 
L 348.36191 289.331759 
L 348.826034 288.18664 
L 349.058096 290.241257 
L 349.52222 286.490752 
L 349.754282 287.716589 
L 349.986343 289.932807 
L 350.218405 286.617524 
L 350.450467 287.246921 
L 350.682529 289.399957 
L 350.914591 286.046551 
L 351.146653 287.975255 
L 351.378715 287.199589 
L 351.610777 289.163135 
L 351.842838 287.386381 
L 352.0749 286.565417 
L 352.306962 288.276694 
L 352.539024 287.827421 
L 352.771086 288.051753 
L 353.003148 287.647875 
L 353.23521 287.556625 
L 353.467271 288.811968 
L 353.699333 283.971473 
L 354.163457 288.698019 
L 354.395519 286.058489 
L 354.627581 288.929274 
L 354.859643 287.597249 
L 355.091704 287.083877 
L 355.323766 284.675068 
L 355.555828 284.448974 
L 355.78789 287.432971 
L 356.019952 287.075687 
L 356.252014 286.447045 
L 356.484076 288.658902 
L 356.716138 288.031368 
L 356.948199 287.079942 
L 357.644385 285.67396 
L 357.876447 288.606965 
L 358.108509 284.891058 
L 358.340571 284.169973 
L 358.572632 287.182069 
L 358.804694 284.932649 
L 359.036756 287.330433 
L 359.268818 285.262832 
L 359.50088 285.356397 
L 359.732942 287.198686 
L 359.965004 285.082714 
L 360.661189 286.978257 
L 360.893251 286.987775 
L 361.125313 284.747122 
L 361.357375 284.292451 
L 361.589437 284.3264 
L 361.821498 284.885048 
L 362.285622 291.130733 
L 362.517684 287.507902 
L 362.749746 289.110403 
L 362.981808 287.924422 
L 363.21387 285.12302 
L 363.445932 284.896753 
L 363.677993 287.452886 
L 364.142117 285.993371 
L 364.374179 286.333578 
L 364.606241 285.974781 
L 364.838303 285.234738 
L 365.070365 288.544985 
L 365.302426 286.302149 
L 365.534488 289.307879 
L 365.76655 287.878636 
L 365.998612 288.767098 
L 366.230674 287.444726 
L 366.462736 284.783525 
L 366.694798 285.343529 
L 366.926859 287.497593 
L 367.158921 286.236121 
L 367.390983 282.441865 
L 367.855107 286.905447 
L 368.087169 288.719509 
L 368.319231 285.885901 
L 369.015416 287.29193 
L 369.247478 285.127845 
L 369.47954 287.268728 
L 369.711602 287.73784 
L 369.943664 288.847041 
L 370.175726 285.795212 
L 370.407787 285.73425 
L 370.639849 283.348267 
L 370.871911 282.258036 
L 371.103973 287.282822 
L 371.336035 286.815209 
L 371.800159 284.652526 
L 372.03222 284.531206 
L 372.264282 287.318 
L 372.496344 286.628724 
L 372.728406 288.350648 
L 372.960468 287.308666 
L 373.19253 286.912267 
L 373.424592 283.854034 
L 373.656653 287.832427 
L 373.888715 286.466376 
L 374.120777 287.045513 
L 374.352839 286.759188 
L 374.584901 288.089204 
L 374.816963 287.607402 
L 375.281086 286.369378 
L 375.513148 286.289769 
L 375.977272 286.702859 
L 376.209334 283.952075 
L 376.441396 285.53494 
L 376.673458 284.841599 
L 376.90552 285.700988 
L 377.137581 285.196381 
L 377.369643 285.179917 
L 377.601705 287.556328 
L 377.833767 286.14575 
L 378.065829 286.564395 
L 378.297891 282.977237 
L 378.529953 284.842598 
L 378.762014 282.496046 
L 378.994076 287.995887 
L 379.4582 282.867627 
L 379.690262 284.841522 
L 379.922324 285.709137 
L 380.386447 286.063493 
L 380.618509 283.367513 
L 380.850571 285.246744 
L 381.082633 284.82201 
L 381.314695 285.948623 
L 381.546757 285.89934 
L 381.778819 286.907707 
L 382.01088 285.577104 
L 382.242942 285.646152 
L 382.475004 285.117408 
L 382.707066 286.644932 
L 382.939128 287.325367 
L 383.635314 283.925132 
L 383.867375 282.859701 
L 384.099437 284.598959 
L 384.331499 284.014561 
L 384.563561 284.429536 
L 384.795623 284.2719 
L 385.027685 286.416281 
L 385.259747 284.928172 
L 385.491808 287.524588 
L 385.72387 282.880366 
L 385.955932 286.030892 
L 386.187994 284.160699 
L 386.420056 285.22958 
L 386.652118 285.297333 
L 386.88418 283.629484 
L 387.116241 283.476299 
L 387.348303 285.748255 
L 387.580365 283.612742 
L 387.812427 286.576493 
L 388.044489 282.990337 
L 388.276551 283.505412 
L 388.508613 283.581676 
L 388.740675 286.621138 
L 388.972736 287.58244 
L 389.204798 284.004087 
L 389.43686 283.541428 
L 389.668922 283.710751 
L 389.900984 285.314644 
L 390.133046 284.276159 
L 390.365108 288.145466 
L 390.597169 285.292876 
L 390.829231 285.424284 
L 391.061293 283.518483 
L 391.293355 287.42021 
L 391.525417 284.421112 
L 391.757479 284.833746 
L 391.989541 283.633314 
L 392.221602 284.772888 
L 392.453664 284.090658 
L 392.685726 282.609096 
L 392.917788 284.129202 
L 393.14985 282.492528 
L 393.381912 283.418683 
L 393.613974 282.970585 
L 393.846035 286.107475 
L 394.078097 282.673311 
L 394.310159 285.765387 
L 394.542221 285.960598 
L 395.006345 279.880742 
L 395.238407 286.537419 
L 395.470469 281.972283 
L 395.70253 281.705006 
L 395.934592 281.953418 
L 396.166654 280.648414 
L 396.398716 284.133017 
L 396.630778 280.059495 
L 396.86284 281.746995 
L 397.094902 280.767429 
L 397.326963 283.804091 
L 397.559025 283.82252 
L 397.791087 282.409385 
L 398.023149 279.785818 
L 398.255211 287.251795 
L 398.487273 286.94522 
L 398.487273 286.94522 
" style="fill:none;stroke:#1f77b4;stroke-linecap:square;stroke-width:1.5;"/>
   </g>
   <g id="line2d_17">
    <path clip-path="url(#p9bd8e03a01)" d="M 73.832727 188.588233 
L 74.064789 206.263578 
L 74.296851 208.404429 
L 74.528913 214.208709 
L 74.993037 202.81942 
L 75.225098 206.032197 
L 75.45716 199.231462 
L 75.921284 194.379708 
L 76.849531 172.422848 
L 77.081593 171.927966 
L 77.313655 171.74671 
L 77.545717 171.841314 
L 77.777779 172.430921 
L 78.009841 172.169109 
L 78.241903 172.745113 
L 78.473965 174.030316 
L 78.706026 178.644577 
L 78.938088 197.050499 
L 79.17015 194.052764 
L 79.402212 211.583239 
L 79.634274 207.714522 
L 79.866336 207.939343 
L 80.794583 254.669714 
L 81.258707 242.618929 
L 81.490769 249.793152 
L 82.186954 224.549168 
L 82.88314 247.923244 
L 83.115202 242.157164 
L 83.347264 249.576429 
L 83.579325 243.925795 
L 83.811387 248.946762 
L 84.043449 246.713365 
L 84.275511 249.188269 
L 84.507573 250.240238 
L 84.739635 247.923998 
L 84.971697 247.053583 
L 85.203759 252.039212 
L 85.43582 251.155226 
L 85.667882 250.922011 
L 85.899944 246.078382 
L 86.132006 256.849975 
L 86.364068 260.192946 
L 86.59613 258.958997 
L 86.828192 255.721783 
L 87.060253 260.446609 
L 87.292315 256.797973 
L 87.524377 251.090655 
L 87.756439 256.576098 
L 88.220563 251.430555 
L 88.452625 253.41859 
L 88.684686 244.673739 
L 88.916748 251.786222 
L 89.14881 251.812001 
L 89.380872 248.124341 
L 89.612934 252.825998 
L 89.844996 249.728314 
L 90.077058 265.304214 
L 90.30912 261.6303 
L 90.541181 271.042944 
L 90.773243 270.913932 
L 91.005305 272.332233 
L 91.237367 263.094167 
L 91.469429 269.150575 
L 91.701491 264.724339 
L 91.933553 270.336173 
L 92.165614 271.043204 
L 92.397676 277.273641 
L 92.629738 272.563135 
L 93.093862 268.284335 
L 93.325924 264.349549 
L 93.557986 211.80847 
L 93.790047 249.96184 
L 94.022109 194.117666 
L 94.254171 229.43632 
L 94.486233 225.754055 
L 94.718295 215.038818 
L 94.950357 230.814459 
L 95.182419 216.926664 
L 95.41448 239.658237 
L 95.646542 241.175162 
L 96.57479 233.655843 
L 96.806852 214.453819 
L 97.038914 237.173772 
L 97.270975 187.815645 
L 97.503037 230.705532 
L 97.735099 232.480278 
L 97.967161 221.062659 
L 98.199223 188.339917 
L 98.431285 238.748199 
L 98.895408 150.497835 
L 99.359532 246.735016 
L 99.591594 246.221407 
L 99.823656 246.124704 
L 100.055718 251.437739 
L 100.28778 251.260788 
L 100.983965 259.079013 
L 101.216027 254.137518 
L 101.448089 242.788164 
L 101.680151 211.409405 
L 101.912213 215.093265 
L 102.144274 236.740489 
L 102.376336 225.465112 
L 102.84046 240.563061 
L 103.072522 246.311439 
L 103.304584 242.60969 
L 103.536646 242.523 
L 103.768708 243.663164 
L 104.000769 243.539054 
L 104.232831 237.60205 
L 104.464893 203.28347 
L 104.696955 245.771152 
L 104.929017 233.717082 
L 105.161079 235.46505 
L 105.393141 203.404936 
L 105.625202 233.635059 
L 105.857264 230.032878 
L 106.089326 214.455663 
L 106.321388 246.520122 
L 106.55345 230.064229 
L 106.785512 222.006748 
L 107.017574 217.942702 
L 107.249635 224.991947 
L 107.481697 217.197689 
L 107.713759 235.789857 
L 107.945821 244.515198 
L 108.177883 231.000396 
L 108.409945 251.880028 
L 108.642007 237.76551 
L 108.874068 246.386123 
L 109.10613 219.196094 
L 109.338192 227.693171 
L 109.802316 252.067912 
L 110.034378 209.177948 
L 110.26644 240.385917 
L 110.498502 238.034097 
L 110.962625 209.666093 
L 111.194687 204.622602 
L 111.426749 238.813739 
L 111.658811 228.431263 
L 111.890873 210.349606 
L 112.122935 219.535294 
L 112.587058 192.820583 
L 112.81912 190.737904 
L 113.051182 191.306395 
L 113.283244 191.479841 
L 114.675615 191.182826 
L 114.907677 191.166168 
L 115.139739 223.998236 
L 115.371801 227.279642 
L 115.603862 247.790235 
L 115.835924 257.108429 
L 116.067986 193.965571 
L 116.300048 250.131567 
L 116.53211 225.705065 
L 116.764172 243.274566 
L 116.996234 228.996491 
L 117.228296 250.856795 
L 117.460357 250.529077 
L 117.692419 255.149012 
L 117.924481 265.654123 
L 118.156543 216.557681 
L 118.388605 245.537206 
L 118.620667 243.599129 
L 119.08479 195.392488 
L 119.316852 197.993229 
L 119.548914 178.986947 
L 119.780976 202.510039 
L 120.013038 162.527094 
L 120.477162 210.963947 
L 120.709223 208.474974 
L 120.941285 210.395309 
L 121.173347 198.910147 
L 121.405409 199.617141 
L 121.869533 203.509871 
L 122.333657 205.121978 
L 122.565718 205.611107 
L 122.79778 208.115715 
L 123.261904 208.933676 
L 123.493966 208.992749 
L 123.726028 208.869502 
L 123.95809 208.590213 
L 124.422213 207.349098 
L 125.350461 203.780485 
L 125.814584 201.867777 
L 126.046646 199.50492 
L 126.51077 197.769854 
L 126.742832 197.118456 
L 126.974894 225.520579 
L 127.206956 201.55834 
L 127.439017 198.291174 
L 127.671079 197.393812 
L 128.135203 196.757028 
L 128.367265 223.145806 
L 128.599327 200.70116 
L 128.831389 199.065885 
L 129.063451 198.75926 
L 129.295512 221.873367 
L 129.527574 230.559281 
L 129.759636 208.414042 
L 129.991698 228.347496 
L 130.22376 207.707015 
L 130.455822 227.615383 
L 130.687884 231.272068 
L 130.919945 232.963429 
L 131.152007 233.644309 
L 131.384069 233.851826 
L 131.848193 233.739376 
L 132.544378 233.125882 
L 133.008502 232.418521 
L 133.472626 226.753374 
L 134.168811 222.104792 
L 134.400873 219.323588 
L 134.632935 219.448122 
L 134.864997 213.381999 
L 135.097059 218.966162 
L 136.025306 221.581045 
L 136.48943 222.112181 
L 136.721492 222.198182 
L 136.953554 222.136285 
L 137.185616 223.982265 
L 137.881801 222.681179 
L 139.738296 220.224197 
L 140.666544 218.830603 
L 140.898605 244.720217 
L 141.130667 220.437585 
L 141.362729 240.085899 
L 141.594791 218.592371 
L 141.826853 217.148859 
L 142.058915 241.770345 
L 142.290977 219.601419 
L 142.523039 217.892114 
L 142.7551 217.290172 
L 142.987162 217.033871 
L 143.219224 216.970199 
L 143.683348 217.157431 
L 144.147472 217.552321 
L 144.379533 213.5103 
L 144.611595 207.030052 
L 144.843657 230.783846 
L 145.075719 216.407323 
L 145.307781 233.091184 
L 145.539843 235.172316 
L 145.771905 218.440315 
L 146.003966 235.116183 
L 146.236028 219.294127 
L 146.46809 235.881425 
L 146.700152 220.381136 
L 147.164276 221.276868 
L 147.396338 221.834842 
L 147.6284 233.237614 
L 147.860461 228.292916 
L 148.092523 210.355431 
L 148.324585 208.200959 
L 148.556647 216.822228 
L 148.788709 208.858687 
L 149.020771 227.055719 
L 149.252833 211.519304 
L 149.484894 229.014419 
L 149.716956 212.442597 
L 149.949018 229.646225 
L 150.18108 212.62085 
L 150.413142 229.621145 
L 150.877266 234.587946 
L 151.109327 235.44456 
L 151.341389 235.753394 
L 151.573451 235.756074 
L 151.805513 201.185768 
L 152.037575 227.426789 
L 152.269637 195.909183 
L 152.501699 222.896689 
L 152.73376 199.458277 
L 152.965822 225.601525 
L 153.197884 230.066686 
L 153.662008 226.751117 
L 154.590255 222.77807 
L 154.822317 224.477026 
L 155.054379 230.550393 
L 155.286441 230.678251 
L 155.518503 233.98381 
L 155.750565 232.899221 
L 155.982627 234.1837 
L 156.214688 233.710892 
L 156.44675 235.112814 
L 156.678812 235.547297 
L 156.910874 235.076998 
L 157.374998 236.791255 
L 157.60706 235.077419 
L 157.839121 237.219703 
L 158.071183 235.849768 
L 158.303245 235.449655 
L 158.535307 237.105481 
L 158.767369 203.56041 
L 158.999431 234.983294 
L 159.231493 240.213405 
L 159.463554 238.585696 
L 159.695616 239.981351 
L 159.927678 244.990372 
L 160.15974 244.753834 
L 160.391802 247.236777 
L 160.623864 245.238112 
L 161.087988 245.448618 
L 161.320049 245.431578 
L 161.552111 247.615475 
L 161.784173 237.535815 
L 162.016235 242.140891 
L 162.248297 244.079407 
L 162.712421 233.849646 
L 162.944482 241.381518 
L 163.408606 244.115527 
L 163.640668 246.494362 
L 164.336854 245.789241 
L 164.568915 234.654338 
L 164.800977 243.372847 
L 165.033039 241.154289 
L 165.265101 240.531821 
L 165.497163 233.995996 
L 165.961287 239.89824 
L 166.193348 239.57988 
L 166.42541 238.810507 
L 166.657472 239.864183 
L 166.889534 242.591933 
L 167.121596 243.651045 
L 167.58572 244.346173 
L 167.817782 245.536758 
L 168.281905 243.941901 
L 168.513967 236.842799 
L 168.746029 243.273149 
L 169.210153 246.59485 
L 169.442215 241.198986 
L 169.674276 244.921717 
L 169.906338 237.106664 
L 170.1384 239.321502 
L 170.370462 238.871308 
L 171.066648 239.159887 
L 171.530771 239.285126 
L 171.762833 246.481389 
L 172.226957 237.960802 
L 172.459019 244.350436 
L 172.691081 246.490308 
L 172.923143 247.428684 
L 173.155204 247.825779 
L 173.387266 247.930056 
L 173.85139 247.811839 
L 174.083452 247.703806 
L 174.547576 246.58574 
L 174.779637 229.767183 
L 175.011699 234.688351 
L 175.243761 212.396214 
L 175.707885 226.070197 
L 175.939947 201.690029 
L 176.172009 215.669802 
L 176.40407 215.183342 
L 176.636132 222.260873 
L 176.868194 224.452626 
L 177.100256 196.885931 
L 177.332318 241.995815 
L 177.56438 243.806081 
L 177.796442 242.096569 
L 178.028503 250.205179 
L 178.260565 243.662548 
L 178.492627 240.582649 
L 178.724689 251.115211 
L 178.956751 241.84851 
L 179.188813 253.155018 
L 179.420875 239.935231 
L 179.652937 240.767991 
L 179.884998 249.509781 
L 180.11706 246.894836 
L 180.349122 233.88238 
L 180.581184 241.369943 
L 180.813246 243.178034 
L 181.045308 246.492265 
L 181.27737 254.11704 
L 181.509431 233.608354 
L 181.741493 234.759876 
L 181.973555 234.162681 
L 182.437679 230.694413 
L 182.669741 230.674972 
L 182.901803 232.626377 
L 183.133864 236.579835 
L 183.597988 240.964943 
L 184.062112 246.21634 
L 184.526236 189.428712 
L 184.758297 215.700941 
L 184.990359 223.688903 
L 185.222421 237.348138 
L 185.454483 243.311045 
L 185.686545 231.136471 
L 185.918607 252.837436 
L 186.150669 247.792259 
L 186.382731 231.710384 
L 186.614792 231.307417 
L 186.846854 247.321877 
L 187.078916 247.589419 
L 187.310978 204.342935 
L 187.54304 237.301288 
L 187.775102 221.908357 
L 188.007164 236.302665 
L 188.703349 242.791592 
L 189.399535 212.205515 
L 189.631597 193.307411 
L 189.863658 198.705647 
L 190.09572 197.867443 
L 190.327782 181.971998 
L 190.559844 180.507579 
L 190.791906 169.697132 
L 191.488091 113.203994 
L 191.720153 121.057054 
L 191.952215 97.084581 
L 192.184277 96.900338 
L 192.416339 106.358832 
L 192.648401 99.14785 
L 192.880463 111.165906 
L 193.344586 105.132789 
L 193.576648 127.87508 
L 193.80871 108.15271 
L 194.040772 112.661775 
L 194.272834 139.185564 
L 194.504896 118.114307 
L 194.736958 138.498099 
L 194.969019 136.981522 
L 195.201081 137.103788 
L 195.897267 161.18157 
L 196.129329 155.183306 
L 196.361391 145.125525 
L 196.593452 155.225024 
L 196.825514 157.799123 
L 197.057576 150.517909 
L 197.289638 148.606043 
L 197.5217 123.094977 
L 197.753762 82.771294 
L 197.985824 77.983205 
L 198.217886 86.265235 
L 198.449947 90.566657 
L 198.682009 69.496726 
L 198.914071 84.504319 
L 199.146133 83.504318 
L 199.378195 77.750486 
L 199.610257 64.770967 
L 199.842319 86.956029 
L 200.07438 97.65702 
L 200.306442 74.629406 
L 200.538504 87.387281 
L 200.770566 84.568607 
L 201.002628 74.697165 
L 201.23469 98.389326 
L 201.466752 95.306918 
L 201.698813 73.903365 
L 201.930875 88.326425 
L 202.162937 142.636975 
L 202.394999 132.099373 
L 202.859123 150.855416 
L 203.091185 174.119025 
L 203.323246 165.972105 
L 203.555308 167.064504 
L 203.78737 159.597707 
L 204.019432 163.643262 
L 204.251494 147.701743 
L 204.715618 209.490642 
L 204.94768 215.283113 
L 205.179741 230.997342 
L 205.411803 204.313662 
L 205.643865 201.084656 
L 205.875927 205.4185 
L 206.107989 196.922426 
L 206.340051 164.518916 
L 206.572113 175.041509 
L 207.036236 103.731121 
L 207.268298 136.427973 
L 207.50036 113.700516 
L 207.732422 141.724376 
L 207.964484 91.59897 
L 209.356855 186.856988 
L 209.588917 191.38044 
L 209.820979 206.600508 
L 210.285102 212.342273 
L 210.749226 209.948356 
L 210.981288 211.0346 
L 211.21335 209.427369 
L 211.445412 210.053426 
L 211.677474 211.009464 
L 211.909535 242.783806 
L 212.141597 248.856788 
L 212.373659 239.891673 
L 212.605721 245.536653 
L 212.837783 244.29419 
L 213.069845 214.629351 
L 213.301907 232.195301 
L 213.533968 240.647858 
L 213.76603 239.300845 
L 214.462216 175.834991 
L 214.92634 164.60935 
L 215.622525 111.351415 
L 215.854587 103.120768 
L 216.086649 105.805969 
L 216.550773 120.798415 
L 216.782834 125.242262 
L 217.014896 118.10125 
L 217.246958 127.903603 
L 217.47902 143.853593 
L 217.943144 155.094761 
L 218.407268 185.31513 
L 218.871391 230.925304 
L 219.103453 215.039258 
L 219.335515 252.518792 
L 219.567577 242.482358 
L 219.799639 239.752924 
L 220.031701 243.460263 
L 220.263762 240.063813 
L 220.495824 246.606704 
L 220.727886 248.223464 
L 220.959948 254.006674 
L 221.19201 240.957991 
L 221.424072 246.779074 
L 221.656134 237.261498 
L 221.888195 219.545232 
L 222.120257 161.657212 
L 222.816443 100.250397 
L 223.280567 53.568 
L 223.512629 84.957511 
L 223.74469 77.42213 
L 224.208814 102.125071 
L 224.440876 94.103243 
L 224.672938 99.686076 
L 224.905 95.891748 
L 225.137062 95.23525 
L 225.369123 95.499913 
L 225.601185 97.201603 
L 226.993556 204.304937 
L 227.225618 167.432408 
L 227.45768 226.349121 
L 227.921804 247.769849 
L 228.153866 251.702215 
L 228.385928 245.782585 
L 228.617989 253.158811 
L 228.850051 246.779344 
L 229.082113 245.085092 
L 229.314175 244.345207 
L 229.778299 257.066232 
L 230.010361 251.195667 
L 230.706546 150.587169 
L 230.938608 140.533509 
L 231.17067 119.623498 
L 231.402732 118.486897 
L 231.634794 101.779775 
L 231.866856 110.44985 
L 232.098917 99.544705 
L 232.563041 105.366143 
L 234.187474 156.406631 
L 234.419536 183.438612 
L 234.651598 183.029914 
L 234.88366 195.876759 
L 235.115722 196.698418 
L 235.811907 252.096156 
L 236.043969 248.874394 
L 236.276031 229.898189 
L 236.508093 230.425262 
L 236.740155 229.028445 
L 236.972217 225.238793 
L 237.204278 233.616795 
L 237.43634 233.027652 
L 237.900464 175.801337 
L 238.132526 207.359072 
L 238.364588 181.162911 
L 238.59665 173.123943 
L 238.828711 146.648705 
L 239.060773 144.219291 
L 239.292835 138.805221 
L 239.756959 120.104171 
L 239.989021 107.607181 
L 240.221083 108.478808 
L 240.453144 111.187784 
L 240.685206 109.562091 
L 240.917268 106.478245 
L 241.14933 99.953006 
L 241.381392 97.69668 
L 241.613454 123.042862 
L 241.845516 126.061689 
L 242.077577 122.139714 
L 242.309639 116.143941 
L 242.541701 121.466664 
L 242.773763 134.997762 
L 243.005825 136.891895 
L 243.469949 147.375483 
L 243.702011 130.958224 
L 243.934072 133.835658 
L 244.166134 123.929671 
L 244.398196 136.109544 
L 244.630258 111.611192 
L 244.86232 121.912979 
L 245.094382 122.78406 
L 245.558505 160.613219 
L 245.790567 158.200048 
L 246.022629 167.899289 
L 246.254691 170.449714 
L 246.486753 170.166068 
L 246.718815 167.981718 
L 246.950877 161.015816 
L 247.182938 166.513536 
L 247.415 168.182476 
L 247.647062 136.735842 
L 247.879124 134.091307 
L 248.57531 86.797378 
L 248.807371 85.592045 
L 249.039433 99.649763 
L 249.271495 94.965634 
L 249.735619 113.558712 
L 249.967681 111.865465 
L 250.199743 102.929628 
L 250.895928 131.547382 
L 251.12799 135.796704 
L 251.360052 128.281128 
L 251.592114 149.103317 
L 251.824176 143.609655 
L 252.288299 160.960241 
L 252.520361 164.177013 
L 252.752423 164.300397 
L 252.984485 177.426501 
L 253.216547 179.330206 
L 253.448609 167.021111 
L 253.680671 179.405759 
L 253.912732 177.407816 
L 254.144794 168.89448 
L 254.376856 178.989272 
L 254.608918 166.8075 
L 254.84098 171.459027 
L 255.073042 168.90032 
L 255.537166 186.643774 
L 255.769227 186.545993 
L 256.233351 152.661195 
L 256.465413 166.082841 
L 256.697475 167.862834 
L 256.929537 173.877718 
L 257.161599 148.993888 
L 257.625722 134.148727 
L 257.857784 120.707896 
L 258.089846 126.985517 
L 258.55397 108.567939 
L 259.018093 126.811581 
L 259.250155 124.328779 
L 260.410465 184.204947 
L 260.642526 181.107102 
L 260.874588 174.653168 
L 261.10665 177.682601 
L 261.338712 171.054945 
L 261.570774 150.11322 
L 261.802836 165.988037 
L 262.034898 141.442084 
L 262.26696 132.497224 
L 262.499021 113.755068 
L 262.731083 108.078992 
L 263.195207 129.986002 
L 263.427269 130.744509 
L 263.659331 135.098227 
L 263.891393 135.990402 
L 264.123454 128.548875 
L 264.355516 130.60324 
L 264.587578 129.926393 
L 264.81964 114.711845 
L 265.051702 136.103615 
L 265.283764 145.262229 
L 265.515826 140.121016 
L 265.747887 158.025379 
L 265.979949 140.403936 
L 266.212011 160.178287 
L 266.444073 153.454983 
L 266.676135 153.020711 
L 267.37232 105.550083 
L 267.604382 102.901228 
L 267.836444 85.709152 
L 268.068506 93.080909 
L 268.300568 87.46732 
L 268.53263 110.943482 
L 268.764692 116.444843 
L 268.996754 114.364916 
L 269.228815 103.096715 
L 269.460877 103.798053 
L 269.692939 91.024138 
L 269.925001 102.845282 
L 270.157063 89.39033 
L 270.389125 90.161847 
L 270.621187 80.778396 
L 270.853248 78.085773 
L 271.08531 96.746737 
L 271.317372 89.40175 
L 272.013558 151.748436 
L 272.24562 145.435987 
L 272.477681 161.580747 
L 272.709743 164.449348 
L 272.941805 141.865005 
L 273.173867 145.797484 
L 273.405929 144.354956 
L 273.637991 134.79282 
L 273.870053 148.166814 
L 274.334176 108.48841 
L 274.566238 77.576714 
L 274.7983 90.083815 
L 275.262424 68.898387 
L 275.494486 63.128643 
L 275.726548 75.744155 
L 276.190671 64.974475 
L 276.422733 67.341866 
L 276.886857 59.750745 
L 277.350981 56.325052 
L 277.815104 67.377785 
L 278.047166 77.973591 
L 278.279228 64.743328 
L 278.51129 85.8174 
L 278.743352 96.014057 
L 279.207475 144.923796 
L 279.439537 141.389089 
L 279.671599 141.978532 
L 280.135723 169.729499 
L 280.599847 210.266233 
L 280.831909 186.934949 
L 281.296032 203.66028 
L 281.528094 201.658304 
L 281.992218 171.977584 
L 282.22428 167.375522 
L 283.384589 113.815958 
L 283.616651 114.3789 
L 283.848713 107.293171 
L 284.080775 108.441121 
L 284.312836 98.097179 
L 284.77696 90.499415 
L 285.009022 111.998497 
L 285.241084 112.20021 
L 285.473146 109.078021 
L 285.705208 117.924082 
L 285.937269 82.804914 
L 286.169331 111.492274 
L 286.401393 121.845614 
L 286.633455 115.706412 
L 286.865517 144.339773 
L 287.097579 144.973402 
L 287.561703 198.439852 
L 288.025826 220.448416 
L 288.257888 221.769509 
L 288.48995 217.654703 
L 288.722012 224.314361 
L 288.954074 211.796217 
L 289.186136 211.578508 
L 289.418197 224.303458 
L 289.650259 204.489834 
L 289.882321 214.090564 
L 290.114383 197.652842 
L 290.578507 190.547288 
L 290.810569 174.71676 
L 291.274692 119.320666 
L 291.506754 127.029749 
L 291.970878 114.814299 
L 292.20294 113.918611 
L 292.435002 118.84323 
L 292.667063 93.008085 
L 292.899125 93.088318 
L 293.363249 116.986154 
L 293.595311 138.226025 
L 293.827373 120.719392 
L 294.059435 129.080123 
L 294.291497 130.306643 
L 294.523558 129.296762 
L 294.75562 145.392003 
L 295.219744 128.522225 
L 295.683868 158.027055 
L 295.91593 145.820291 
L 296.147991 150.042834 
L 296.380053 144.152164 
L 296.612115 144.904662 
L 296.844177 166.513068 
L 297.076239 169.344414 
L 297.308301 174.431371 
L 297.540363 159.722594 
L 297.772424 157.148829 
L 298.004486 158.525985 
L 298.236548 149.215423 
L 298.46861 148.548207 
L 298.700672 139.179422 
L 298.932734 156.182954 
L 299.396857 95.009578 
L 299.628919 112.646197 
L 299.860981 109.72612 
L 300.093043 110.690722 
L 300.325105 99.29018 
L 300.557167 116.611077 
L 300.789229 113.259749 
L 301.021291 88.341037 
L 301.253352 119.099603 
L 301.485414 89.561693 
L 301.717476 94.256794 
L 301.949538 88.170511 
L 302.1816 103.898887 
L 302.413662 105.984714 
L 302.645724 128.386369 
L 302.877785 124.293157 
L 303.109847 114.774288 
L 303.341909 119.436152 
L 303.573971 110.551694 
L 303.806033 143.511291 
L 304.038095 135.364993 
L 304.270157 133.830928 
L 304.502218 134.342801 
L 304.73428 153.724715 
L 304.966342 153.820996 
L 305.198404 151.059444 
L 305.430466 153.572412 
L 305.662528 149.107625 
L 305.89459 147.617773 
L 306.126652 155.743799 
L 306.358713 150.778503 
L 306.590775 139.874004 
L 306.822837 150.299123 
L 307.054899 148.057677 
L 307.286961 141.189378 
L 307.519023 126.997381 
L 307.751085 128.486688 
L 307.983146 126.963255 
L 308.215208 134.023901 
L 308.44727 134.957617 
L 308.679332 126.864479 
L 308.911394 130.279344 
L 309.375518 129.853341 
L 309.607579 122.623015 
L 309.839641 120.285048 
L 310.071703 115.257491 
L 310.303765 122.538602 
L 310.535827 121.306666 
L 310.767889 110.459779 
L 310.999951 122.297349 
L 311.464074 127.98139 
L 311.696136 129.37483 
L 311.928198 124.997843 
L 312.16026 137.493629 
L 312.392322 136.08571 
L 312.624384 127.643094 
L 312.856446 139.661581 
L 313.088507 137.223632 
L 313.320569 128.967194 
L 313.552631 141.560421 
L 313.784693 135.064887 
L 314.016755 136.646343 
L 314.248817 139.518902 
L 314.71294 125.688553 
L 314.945002 146.61566 
L 315.177064 147.449571 
L 315.641188 121.390505 
L 315.87325 128.091986 
L 316.105312 123.739393 
L 316.337373 122.409673 
L 316.569435 126.965055 
L 317.033559 105.531554 
L 317.497683 119.283744 
L 317.961806 125.933724 
L 318.657992 131.162935 
L 318.890054 131.874325 
L 319.122116 142.966739 
L 320.282425 115.664984 
L 320.514487 137.403161 
L 320.746549 110.346757 
L 320.978611 136.610717 
L 321.210673 110.308797 
L 321.442734 136.612366 
L 321.674796 110.846679 
L 321.906858 113.40673 
L 322.13892 108.5119 
L 322.370982 134.025615 
L 322.603044 104.786893 
L 322.835106 107.39346 
L 323.067167 135.135599 
L 323.299229 105.297938 
L 323.531291 106.954888 
L 323.763353 104.053883 
L 323.995415 132.045683 
L 324.227477 141.625651 
L 324.459539 135.994283 
L 324.923662 117.323108 
L 325.387786 101.610374 
L 325.619848 130.73607 
L 326.780157 171.144302 
L 327.244281 176.927967 
L 327.476343 178.292624 
L 327.708405 178.900549 
L 327.940467 178.916059 
L 328.40459 178.006113 
L 328.636652 177.377913 
L 328.868714 183.501572 
L 329.100776 175.390481 
L 329.332838 174.60148 
L 329.796961 139.550382 
L 330.029023 141.585076 
L 330.493147 101.912623 
L 330.725209 93.444965 
L 330.957271 90.252302 
L 331.189333 100.169705 
L 331.421395 121.472933 
L 331.653456 123.06167 
L 331.885518 140.585896 
L 332.11758 121.732299 
L 332.349642 123.791387 
L 332.813766 153.593177 
L 333.045828 165.517198 
L 333.277889 169.33189 
L 333.509951 183.87217 
L 333.742013 174.853847 
L 334.438199 109.744815 
L 334.670261 99.172515 
L 334.902322 104.772818 
L 335.134384 94.274461 
L 335.366446 89.866227 
L 335.598508 87.708586 
L 336.062632 86.080991 
L 336.294694 98.354392 
L 336.526755 88.902735 
L 336.990879 85.036997 
L 337.222941 95.460178 
L 337.455003 86.43004 
L 337.687065 97.743625 
L 337.919127 100.640723 
L 338.151189 101.849591 
L 338.38325 89.458318 
L 338.847374 122.769881 
L 339.311498 138.304945 
L 340.007683 152.967824 
L 340.239745 148.824082 
L 340.935931 161.511236 
L 341.400055 180.363904 
L 341.632116 178.717086 
L 341.864178 186.346793 
L 342.09624 185.930381 
L 342.328302 182.036534 
L 342.560364 188.443346 
L 342.792426 185.302046 
L 343.024488 184.440247 
L 343.256549 191.301915 
L 343.488611 191.656712 
L 343.720673 186.951614 
L 343.952735 189.699886 
L 344.184797 181.201248 
L 344.416859 187.850979 
L 344.648921 200.666545 
L 344.880983 187.265548 
L 345.113044 199.358357 
L 345.345106 192.710331 
L 345.577168 197.824231 
L 345.80923 175.273284 
L 346.041292 185.689059 
L 346.273354 183.174152 
L 346.505416 186.002356 
L 346.737477 166.498498 
L 346.969539 156.826305 
L 347.201601 142.247221 
L 347.433663 150.964263 
L 347.665725 151.811906 
L 347.897787 157.586389 
L 348.129849 153.220618 
L 348.593972 164.786232 
L 348.826034 162.571622 
L 349.058096 161.604698 
L 349.290158 168.914815 
L 349.52222 171.042633 
L 349.754282 171.38807 
L 349.986343 170.526824 
L 350.218405 168.635689 
L 350.682529 162.56253 
L 351.378715 128.502087 
L 351.610777 99.093852 
L 351.842838 86.925462 
L 352.0749 100.400865 
L 352.306962 83.28116 
L 352.539024 76.681516 
L 352.771086 73.343927 
L 353.003148 72.46726 
L 353.23521 79.348186 
L 353.699333 85.345278 
L 354.163457 89.311731 
L 354.395519 105.063043 
L 354.627581 94.89644 
L 355.091704 87.64497 
L 355.323766 106.891524 
L 355.555828 90.539147 
L 355.78789 89.58544 
L 356.252014 118.271037 
L 356.716138 88.183013 
L 357.876447 83.111391 
L 358.108509 102.652148 
L 358.340571 87.402875 
L 358.572632 83.172439 
L 358.804694 74.958349 
L 359.036756 100.605061 
L 359.268818 111.6453 
L 359.50088 89.027037 
L 359.965004 67.254306 
L 360.197065 68.986985 
L 360.429127 66.374742 
L 360.661189 65.858562 
L 360.893251 88.537489 
L 361.357375 96.766426 
L 361.821498 126.235462 
L 362.05356 128.454696 
L 362.285622 142.971113 
L 362.517684 145.388107 
L 362.749746 145.818132 
L 362.981808 143.93095 
L 363.21387 132.111798 
L 363.445932 107.190324 
L 363.677993 112.36831 
L 363.910055 86.787087 
L 364.142117 89.982071 
L 364.374179 72.509263 
L 364.606241 85.477107 
L 364.838303 71.295751 
L 365.070365 96.513809 
L 365.302426 71.834267 
L 365.534488 87.272414 
L 365.76655 74.762281 
L 365.998612 89.614811 
L 366.230674 70.088248 
L 366.462736 88.123846 
L 366.694798 70.06622 
L 366.926859 88.745545 
L 367.158921 70.643433 
L 367.390983 89.141597 
L 367.623045 70.780466 
L 367.855107 106.174741 
L 368.087169 104.250977 
L 368.319231 100.783186 
L 368.783354 78.516762 
L 369.247478 73.431611 
L 369.47954 98.327266 
L 369.711602 75.199481 
L 369.943664 73.470377 
L 370.175726 73.238848 
L 370.407787 78.52096 
L 370.639849 73.332596 
L 370.871911 77.933018 
L 371.103973 78.820279 
L 371.336035 78.81081 
L 371.800159 78.255351 
L 372.264282 77.606601 
L 372.496344 76.634118 
L 372.728406 71.571028 
L 372.960468 75.765086 
L 373.19253 73.510891 
L 373.424592 90.912393 
L 373.656653 98.396131 
L 373.888715 115.170455 
L 374.120777 123.544214 
L 374.584901 131.033143 
L 374.816963 139.414155 
L 375.049025 140.825971 
L 375.281086 127.664145 
L 375.513148 127.816096 
L 375.74521 131.717294 
L 376.441396 81.78946 
L 376.673458 89.927301 
L 376.90552 90.431442 
L 377.369643 92.58532 
L 378.065829 96.796101 
L 378.297891 92.76344 
L 378.529953 81.072799 
L 378.994076 93.938403 
L 379.226138 91.560526 
L 379.690262 119.65917 
L 379.922324 116.047776 
L 380.154386 107.138592 
L 380.386447 118.442041 
L 380.850571 81.943468 
L 381.082633 87.856942 
L 381.314695 87.781695 
L 381.546757 92.021711 
L 382.01088 92.561407 
L 382.242942 92.510445 
L 382.707066 91.105329 
L 382.939128 90.379946 
L 383.403252 106.967643 
L 383.635314 102.566393 
L 383.867375 100.704178 
L 384.099437 82.551634 
L 384.331499 110.70812 
L 384.563561 99.282722 
L 384.795623 111.607149 
L 385.027685 84.655181 
L 385.259747 78.8698 
L 385.491808 81.068213 
L 385.72387 79.814783 
L 385.955932 79.869941 
L 386.187994 80.120261 
L 386.420056 83.978383 
L 386.652118 92.097855 
L 387.116241 73.431532 
L 387.348303 96.671349 
L 387.580365 78.991628 
L 387.812427 88.318203 
L 388.044489 73.741859 
L 388.276551 83.784327 
L 388.508613 111.49319 
L 388.740675 111.615401 
L 388.972736 108.664201 
L 389.204798 108.290436 
L 389.43686 108.765431 
L 389.900984 108.840703 
L 390.365108 109.059589 
L 390.829231 136.052296 
L 391.293355 153.027385 
L 391.525417 154.823455 
L 391.757479 155.62236 
L 391.989541 154.664708 
L 392.453664 146.986236 
L 393.14985 133.536433 
L 393.381912 134.620322 
L 393.846035 90.183525 
L 394.310159 74.005839 
L 394.542221 99.482225 
L 394.774283 83.258105 
L 395.006345 107.752719 
L 395.238407 97.691512 
L 395.470469 105.68454 
L 395.70253 101.179088 
L 396.166654 89.745886 
L 396.398716 93.045318 
L 396.630778 111.651826 
L 397.094902 121.560212 
L 397.326963 115.190965 
L 397.559025 122.459801 
L 398.023149 125.425061 
L 398.255211 126.016433 
L 398.487273 126.269264 
L 398.487273 126.269264 
" style="fill:none;stroke:#ff7f0e;stroke-linecap:square;stroke-width:1.5;"/>
   </g>
   <g id="patch_3">
    <path d="M 57.6 307.584 
L 57.6 41.472 
" style="fill:none;stroke:#000000;stroke-linecap:square;stroke-linejoin:miter;stroke-width:0.8;"/>
   </g>
   <g id="patch_4">
    <path d="M 414.72 307.584 
L 414.72 41.472 
" style="fill:none;stroke:#000000;stroke-linecap:square;stroke-linejoin:miter;stroke-width:0.8;"/>
   </g>
   <g id="patch_5">
    <path d="M 57.6 307.584 
L 414.72 307.584 
" style="fill:none;stroke:#000000;stroke-linecap:square;stroke-linejoin:miter;stroke-width:0.8;"/>
   </g>
   <g id="patch_6">
    <path d="M 57.6 41.472 
L 414.72 41.472 
" style="fill:none;stroke:#000000;stroke-linecap:square;stroke-linejoin:miter;stroke-width:0.8;"/>
   </g>
  </g>
 </g>
 <defs>
  <clipPath id="p9bd8e03a01">
   <rect height="266.112" width="357.12" x="57.6" y="41.472"/>
  </clipPath>
 </defs>
</svg>
