<?xml version="1.0" encoding="utf-8" standalone="no"?>
<!DOCTYPE svg PUBLIC "-//W3C//DTD SVG 1.1//EN"
  "http://www.w3.org/Graphics/SVG/1.1/DTD/svg11.dtd">
<!-- Created with matplotlib (https://matplotlib.org/) -->
<svg height="345.6pt" version="1.1" viewBox="0 0 460.8 345.6" width="460.8pt" xmlns="http://www.w3.org/2000/svg" xmlns:xlink="http://www.w3.org/1999/xlink">
 <defs>
  <style type="text/css">
*{stroke-linecap:butt;stroke-linejoin:round;}
  </style>
 </defs>
 <g id="figure_1">
  <g id="patch_1">
   <path d="M 0 345.6 
L 460.8 345.6 
L 460.8 0 
L 0 0 
z
" style="fill:#ffffff;"/>
  </g>
  <g id="axes_1">
   <g id="patch_2">
    <path d="M 57.6 307.584 
L 414.72 307.584 
L 414.72 41.472 
L 57.6 41.472 
z
" style="fill:#ffffff;"/>
   </g>
   <g id="matplotlib.axis_1">
    <g id="xtick_1">
     <g id="line2d_1">
      <defs>
       <path d="M 0 0 
L 0 3.5 
" id="me009bc1fb1" style="stroke:#000000;stroke-width:0.8;"/>
      </defs>
      <g>
       <use style="stroke:#000000;stroke-width:0.8;" x="73.832727" xlink:href="#me009bc1fb1" y="307.584"/>
      </g>
     </g>
     <g id="text_1">
      <!-- 0 -->
      <defs>
       <path d="M 31.78125 66.40625 
Q 24.171875 66.40625 20.328125 58.90625 
Q 16.5 51.421875 16.5 36.375 
Q 16.5 21.390625 20.328125 13.890625 
Q 24.171875 6.390625 31.78125 6.390625 
Q 39.453125 6.390625 43.28125 13.890625 
Q 47.125 21.390625 47.125 36.375 
Q 47.125 51.421875 43.28125 58.90625 
Q 39.453125 66.40625 31.78125 66.40625 
z
M 31.78125 74.21875 
Q 44.046875 74.21875 50.515625 64.515625 
Q 56.984375 54.828125 56.984375 36.375 
Q 56.984375 17.96875 50.515625 8.265625 
Q 44.046875 -1.421875 31.78125 -1.421875 
Q 19.53125 -1.421875 13.0625 8.265625 
Q 6.59375 17.96875 6.59375 36.375 
Q 6.59375 54.828125 13.0625 64.515625 
Q 19.53125 74.21875 31.78125 74.21875 
z
" id="DejaVuSans-48"/>
      </defs>
      <g transform="translate(70.651477 322.182437)scale(0.1 -0.1)">
       <use xlink:href="#DejaVuSans-48"/>
      </g>
     </g>
    </g>
    <g id="xtick_2">
     <g id="line2d_2">
      <g>
       <use style="stroke:#000000;stroke-width:0.8;" x="120.2451" xlink:href="#me009bc1fb1" y="307.584"/>
      </g>
     </g>
     <g id="text_2">
      <!-- 200 -->
      <defs>
       <path d="M 19.1875 8.296875 
L 53.609375 8.296875 
L 53.609375 0 
L 7.328125 0 
L 7.328125 8.296875 
Q 12.9375 14.109375 22.625 23.890625 
Q 32.328125 33.6875 34.8125 36.53125 
Q 39.546875 41.84375 41.421875 45.53125 
Q 43.3125 49.21875 43.3125 52.78125 
Q 43.3125 58.59375 39.234375 62.25 
Q 35.15625 65.921875 28.609375 65.921875 
Q 23.96875 65.921875 18.8125 64.3125 
Q 13.671875 62.703125 7.8125 59.421875 
L 7.8125 69.390625 
Q 13.765625 71.78125 18.9375 73 
Q 24.125 74.21875 28.421875 74.21875 
Q 39.75 74.21875 46.484375 68.546875 
Q 53.21875 62.890625 53.21875 53.421875 
Q 53.21875 48.921875 51.53125 44.890625 
Q 49.859375 40.875 45.40625 35.40625 
Q 44.1875 33.984375 37.640625 27.21875 
Q 31.109375 20.453125 19.1875 8.296875 
z
" id="DejaVuSans-50"/>
      </defs>
      <g transform="translate(110.70135 322.182437)scale(0.1 -0.1)">
       <use xlink:href="#DejaVuSans-50"/>
       <use x="63.623047" xlink:href="#DejaVuSans-48"/>
       <use x="127.246094" xlink:href="#DejaVuSans-48"/>
      </g>
     </g>
    </g>
    <g id="xtick_3">
     <g id="line2d_3">
      <g>
       <use style="stroke:#000000;stroke-width:0.8;" x="166.657472" xlink:href="#me009bc1fb1" y="307.584"/>
      </g>
     </g>
     <g id="text_3">
      <!-- 400 -->
      <defs>
       <path d="M 37.796875 64.3125 
L 12.890625 25.390625 
L 37.796875 25.390625 
z
M 35.203125 72.90625 
L 47.609375 72.90625 
L 47.609375 25.390625 
L 58.015625 25.390625 
L 58.015625 17.1875 
L 47.609375 17.1875 
L 47.609375 0 
L 37.796875 0 
L 37.796875 17.1875 
L 4.890625 17.1875 
L 4.890625 26.703125 
z
" id="DejaVuSans-52"/>
      </defs>
      <g transform="translate(157.113722 322.182437)scale(0.1 -0.1)">
       <use xlink:href="#DejaVuSans-52"/>
       <use x="63.623047" xlink:href="#DejaVuSans-48"/>
       <use x="127.246094" xlink:href="#DejaVuSans-48"/>
      </g>
     </g>
    </g>
    <g id="xtick_4">
     <g id="line2d_4">
      <g>
       <use style="stroke:#000000;stroke-width:0.8;" x="213.069845" xlink:href="#me009bc1fb1" y="307.584"/>
      </g>
     </g>
     <g id="text_4">
      <!-- 600 -->
      <defs>
       <path d="M 33.015625 40.375 
Q 26.375 40.375 22.484375 35.828125 
Q 18.609375 31.296875 18.609375 23.390625 
Q 18.609375 15.53125 22.484375 10.953125 
Q 26.375 6.390625 33.015625 6.390625 
Q 39.65625 6.390625 43.53125 10.953125 
Q 47.40625 15.53125 47.40625 23.390625 
Q 47.40625 31.296875 43.53125 35.828125 
Q 39.65625 40.375 33.015625 40.375 
z
M 52.59375 71.296875 
L 52.59375 62.3125 
Q 48.875 64.0625 45.09375 64.984375 
Q 41.3125 65.921875 37.59375 65.921875 
Q 27.828125 65.921875 22.671875 59.328125 
Q 17.53125 52.734375 16.796875 39.40625 
Q 19.671875 43.65625 24.015625 45.921875 
Q 28.375 48.1875 33.59375 48.1875 
Q 44.578125 48.1875 50.953125 41.515625 
Q 57.328125 34.859375 57.328125 23.390625 
Q 57.328125 12.15625 50.6875 5.359375 
Q 44.046875 -1.421875 33.015625 -1.421875 
Q 20.359375 -1.421875 13.671875 8.265625 
Q 6.984375 17.96875 6.984375 36.375 
Q 6.984375 53.65625 15.1875 63.9375 
Q 23.390625 74.21875 37.203125 74.21875 
Q 40.921875 74.21875 44.703125 73.484375 
Q 48.484375 72.75 52.59375 71.296875 
z
" id="DejaVuSans-54"/>
      </defs>
      <g transform="translate(203.526095 322.182437)scale(0.1 -0.1)">
       <use xlink:href="#DejaVuSans-54"/>
       <use x="63.623047" xlink:href="#DejaVuSans-48"/>
       <use x="127.246094" xlink:href="#DejaVuSans-48"/>
      </g>
     </g>
    </g>
    <g id="xtick_5">
     <g id="line2d_5">
      <g>
       <use style="stroke:#000000;stroke-width:0.8;" x="259.482217" xlink:href="#me009bc1fb1" y="307.584"/>
      </g>
     </g>
     <g id="text_5">
      <!-- 800 -->
      <defs>
       <path d="M 31.78125 34.625 
Q 24.75 34.625 20.71875 30.859375 
Q 16.703125 27.09375 16.703125 20.515625 
Q 16.703125 13.921875 20.71875 10.15625 
Q 24.75 6.390625 31.78125 6.390625 
Q 38.8125 6.390625 42.859375 10.171875 
Q 46.921875 13.96875 46.921875 20.515625 
Q 46.921875 27.09375 42.890625 30.859375 
Q 38.875 34.625 31.78125 34.625 
z
M 21.921875 38.8125 
Q 15.578125 40.375 12.03125 44.71875 
Q 8.5 49.078125 8.5 55.328125 
Q 8.5 64.0625 14.71875 69.140625 
Q 20.953125 74.21875 31.78125 74.21875 
Q 42.671875 74.21875 48.875 69.140625 
Q 55.078125 64.0625 55.078125 55.328125 
Q 55.078125 49.078125 51.53125 44.71875 
Q 48 40.375 41.703125 38.8125 
Q 48.828125 37.15625 52.796875 32.3125 
Q 56.78125 27.484375 56.78125 20.515625 
Q 56.78125 9.90625 50.3125 4.234375 
Q 43.84375 -1.421875 31.78125 -1.421875 
Q 19.734375 -1.421875 13.25 4.234375 
Q 6.78125 9.90625 6.78125 20.515625 
Q 6.78125 27.484375 10.78125 32.3125 
Q 14.796875 37.15625 21.921875 38.8125 
z
M 18.3125 54.390625 
Q 18.3125 48.734375 21.84375 45.5625 
Q 25.390625 42.390625 31.78125 42.390625 
Q 38.140625 42.390625 41.71875 45.5625 
Q 45.3125 48.734375 45.3125 54.390625 
Q 45.3125 60.0625 41.71875 63.234375 
Q 38.140625 66.40625 31.78125 66.40625 
Q 25.390625 66.40625 21.84375 63.234375 
Q 18.3125 60.0625 18.3125 54.390625 
z
" id="DejaVuSans-56"/>
      </defs>
      <g transform="translate(249.938467 322.182437)scale(0.1 -0.1)">
       <use xlink:href="#DejaVuSans-56"/>
       <use x="63.623047" xlink:href="#DejaVuSans-48"/>
       <use x="127.246094" xlink:href="#DejaVuSans-48"/>
      </g>
     </g>
    </g>
    <g id="xtick_6">
     <g id="line2d_6">
      <g>
       <use style="stroke:#000000;stroke-width:0.8;" x="305.89459" xlink:href="#me009bc1fb1" y="307.584"/>
      </g>
     </g>
     <g id="text_6">
      <!-- 1000 -->
      <defs>
       <path d="M 12.40625 8.296875 
L 28.515625 8.296875 
L 28.515625 63.921875 
L 10.984375 60.40625 
L 10.984375 69.390625 
L 28.421875 72.90625 
L 38.28125 72.90625 
L 38.28125 8.296875 
L 54.390625 8.296875 
L 54.390625 0 
L 12.40625 0 
z
" id="DejaVuSans-49"/>
      </defs>
      <g transform="translate(293.16959 322.182437)scale(0.1 -0.1)">
       <use xlink:href="#DejaVuSans-49"/>
       <use x="63.623047" xlink:href="#DejaVuSans-48"/>
       <use x="127.246094" xlink:href="#DejaVuSans-48"/>
       <use x="190.869141" xlink:href="#DejaVuSans-48"/>
      </g>
     </g>
    </g>
    <g id="xtick_7">
     <g id="line2d_7">
      <g>
       <use style="stroke:#000000;stroke-width:0.8;" x="352.306962" xlink:href="#me009bc1fb1" y="307.584"/>
      </g>
     </g>
     <g id="text_7">
      <!-- 1200 -->
      <g transform="translate(339.581962 322.182437)scale(0.1 -0.1)">
       <use xlink:href="#DejaVuSans-49"/>
       <use x="63.623047" xlink:href="#DejaVuSans-50"/>
       <use x="127.246094" xlink:href="#DejaVuSans-48"/>
       <use x="190.869141" xlink:href="#DejaVuSans-48"/>
      </g>
     </g>
    </g>
    <g id="xtick_8">
     <g id="line2d_8">
      <g>
       <use style="stroke:#000000;stroke-width:0.8;" x="398.719335" xlink:href="#me009bc1fb1" y="307.584"/>
      </g>
     </g>
     <g id="text_8">
      <!-- 1400 -->
      <g transform="translate(385.994335 322.182437)scale(0.1 -0.1)">
       <use xlink:href="#DejaVuSans-49"/>
       <use x="63.623047" xlink:href="#DejaVuSans-52"/>
       <use x="127.246094" xlink:href="#DejaVuSans-48"/>
       <use x="190.869141" xlink:href="#DejaVuSans-48"/>
      </g>
     </g>
    </g>
   </g>
   <g id="matplotlib.axis_2">
    <g id="ytick_1">
     <g id="line2d_9">
      <defs>
       <path d="M 0 0 
L -3.5 0 
" id="m069d8cdb36" style="stroke:#000000;stroke-width:0.8;"/>
      </defs>
      <g>
       <use style="stroke:#000000;stroke-width:0.8;" x="57.6" xlink:href="#m069d8cdb36" y="295.492099"/>
      </g>
     </g>
     <g id="text_9">
      <!-- 0.00 -->
      <defs>
       <path d="M 10.6875 12.40625 
L 21 12.40625 
L 21 0 
L 10.6875 0 
z
" id="DejaVuSans-46"/>
      </defs>
      <g transform="translate(28.334375 299.291318)scale(0.1 -0.1)">
       <use xlink:href="#DejaVuSans-48"/>
       <use x="63.623047" xlink:href="#DejaVuSans-46"/>
       <use x="95.410156" xlink:href="#DejaVuSans-48"/>
       <use x="159.033203" xlink:href="#DejaVuSans-48"/>
      </g>
     </g>
    </g>
    <g id="ytick_2">
     <g id="line2d_10">
      <g>
       <use style="stroke:#000000;stroke-width:0.8;" x="57.6" xlink:href="#m069d8cdb36" y="261.25155"/>
      </g>
     </g>
     <g id="text_10">
      <!-- 0.02 -->
      <g transform="translate(28.334375 265.050769)scale(0.1 -0.1)">
       <use xlink:href="#DejaVuSans-48"/>
       <use x="63.623047" xlink:href="#DejaVuSans-46"/>
       <use x="95.410156" xlink:href="#DejaVuSans-48"/>
       <use x="159.033203" xlink:href="#DejaVuSans-50"/>
      </g>
     </g>
    </g>
    <g id="ytick_3">
     <g id="line2d_11">
      <g>
       <use style="stroke:#000000;stroke-width:0.8;" x="57.6" xlink:href="#m069d8cdb36" y="227.011001"/>
      </g>
     </g>
     <g id="text_11">
      <!-- 0.04 -->
      <g transform="translate(28.334375 230.81022)scale(0.1 -0.1)">
       <use xlink:href="#DejaVuSans-48"/>
       <use x="63.623047" xlink:href="#DejaVuSans-46"/>
       <use x="95.410156" xlink:href="#DejaVuSans-48"/>
       <use x="159.033203" xlink:href="#DejaVuSans-52"/>
      </g>
     </g>
    </g>
    <g id="ytick_4">
     <g id="line2d_12">
      <g>
       <use style="stroke:#000000;stroke-width:0.8;" x="57.6" xlink:href="#m069d8cdb36" y="192.770452"/>
      </g>
     </g>
     <g id="text_12">
      <!-- 0.06 -->
      <g transform="translate(28.334375 196.569671)scale(0.1 -0.1)">
       <use xlink:href="#DejaVuSans-48"/>
       <use x="63.623047" xlink:href="#DejaVuSans-46"/>
       <use x="95.410156" xlink:href="#DejaVuSans-48"/>
       <use x="159.033203" xlink:href="#DejaVuSans-54"/>
      </g>
     </g>
    </g>
    <g id="ytick_5">
     <g id="line2d_13">
      <g>
       <use style="stroke:#000000;stroke-width:0.8;" x="57.6" xlink:href="#m069d8cdb36" y="158.529903"/>
      </g>
     </g>
     <g id="text_13">
      <!-- 0.08 -->
      <g transform="translate(28.334375 162.329121)scale(0.1 -0.1)">
       <use xlink:href="#DejaVuSans-48"/>
       <use x="63.623047" xlink:href="#DejaVuSans-46"/>
       <use x="95.410156" xlink:href="#DejaVuSans-48"/>
       <use x="159.033203" xlink:href="#DejaVuSans-56"/>
      </g>
     </g>
    </g>
    <g id="ytick_6">
     <g id="line2d_14">
      <g>
       <use style="stroke:#000000;stroke-width:0.8;" x="57.6" xlink:href="#m069d8cdb36" y="124.289354"/>
      </g>
     </g>
     <g id="text_14">
      <!-- 0.10 -->
      <g transform="translate(28.334375 128.088572)scale(0.1 -0.1)">
       <use xlink:href="#DejaVuSans-48"/>
       <use x="63.623047" xlink:href="#DejaVuSans-46"/>
       <use x="95.410156" xlink:href="#DejaVuSans-49"/>
       <use x="159.033203" xlink:href="#DejaVuSans-48"/>
      </g>
     </g>
    </g>
    <g id="ytick_7">
     <g id="line2d_15">
      <g>
       <use style="stroke:#000000;stroke-width:0.8;" x="57.6" xlink:href="#m069d8cdb36" y="90.048804"/>
      </g>
     </g>
     <g id="text_15">
      <!-- 0.12 -->
      <g transform="translate(28.334375 93.848023)scale(0.1 -0.1)">
       <use xlink:href="#DejaVuSans-48"/>
       <use x="63.623047" xlink:href="#DejaVuSans-46"/>
       <use x="95.410156" xlink:href="#DejaVuSans-49"/>
       <use x="159.033203" xlink:href="#DejaVuSans-50"/>
      </g>
     </g>
    </g>
    <g id="ytick_8">
     <g id="line2d_16">
      <g>
       <use style="stroke:#000000;stroke-width:0.8;" x="57.6" xlink:href="#m069d8cdb36" y="55.808255"/>
      </g>
     </g>
     <g id="text_16">
      <!-- 0.14 -->
      <g transform="translate(28.334375 59.607474)scale(0.1 -0.1)">
       <use xlink:href="#DejaVuSans-48"/>
       <use x="63.623047" xlink:href="#DejaVuSans-46"/>
       <use x="95.410156" xlink:href="#DejaVuSans-49"/>
       <use x="159.033203" xlink:href="#DejaVuSans-52"/>
      </g>
     </g>
    </g>
   </g>
   <g id="line2d_17">
    <path clip-path="url(#p0b0d7a1592)" d="M 73.832727 292.833412 
L 74.064789 293.763344 
L 74.296851 293.433237 
L 74.528913 294.538731 
L 74.760975 294.227724 
L 74.993037 294.510155 
L 75.45716 293.663431 
L 75.689222 292.989739 
L 75.921284 293.8377 
L 76.153346 293.580555 
L 76.385408 295.172858 
L 76.849531 294.673421 
L 77.081593 294.848415 
L 77.313655 294.366877 
L 77.777779 294.528451 
L 78.009841 294.171558 
L 78.241903 294.200319 
L 78.706026 292.188976 
L 78.938088 291.329739 
L 79.634274 290.072158 
L 80.098398 291.126909 
L 80.330459 290.566457 
L 81.026645 292.005879 
L 81.258707 292.05015 
L 81.490769 292.9204 
L 81.722831 294.572322 
L 81.954892 295.300956 
L 82.419016 295.438036 
L 82.651078 295.368207 
L 83.115202 295.452853 
L 84.507573 295.331736 
L 84.739635 295.263775 
L 85.203759 295.316884 
L 85.43582 295.174785 
L 85.667882 295.180206 
L 85.899944 295.408161 
L 86.828192 295.384406 
L 87.060253 294.783479 
L 87.292315 295.466928 
L 87.524377 295.30578 
L 88.220563 294.364655 
L 88.452625 295.139844 
L 88.684686 295.483527 
L 88.916748 295.358502 
L 89.14881 295.474881 
L 89.844996 295.440523 
L 90.077058 295.311741 
L 90.541181 295.421107 
L 91.469429 295.459065 
L 94.022109 295.437191 
L 94.486233 295.450014 
L 95.878604 295.425264 
L 96.110666 295.470669 
L 96.342728 295.199536 
L 96.57479 295.469427 
L 96.806852 295.394895 
L 97.270975 295.470727 
L 97.735099 295.336578 
L 98.199223 295.438278 
L 98.895408 295.392266 
L 99.12747 295.337025 
L 99.591594 295.428125 
L 100.055718 295.434699 
L 100.519841 295.400678 
L 100.751903 294.690859 
L 100.983965 294.382857 
L 101.216027 294.263585 
L 101.680151 293.617121 
L 101.912213 292.743008 
L 102.144274 292.826422 
L 102.376336 293.120826 
L 102.608398 292.703807 
L 102.84046 292.564462 
L 104.000769 293.908441 
L 104.232831 294.012726 
L 105.161079 295.373124 
L 105.393141 295.370129 
L 105.625202 295.078049 
L 105.857264 295.342643 
L 106.089326 295.228888 
L 106.321388 295.460651 
L 106.55345 295.160945 
L 106.785512 295.404564 
L 107.017574 295.466777 
L 107.249635 295.170897 
L 107.481697 295.270894 
L 107.713759 294.834922 
L 107.945821 294.907899 
L 108.177883 294.772744 
L 108.642007 293.727468 
L 108.874068 293.127048 
L 109.10613 293.031301 
L 109.338192 292.139241 
L 110.034378 290.998779 
L 110.498502 291.147539 
L 110.730563 290.482593 
L 111.194687 290.493184 
L 111.658811 290.228037 
L 111.890873 290.608531 
L 112.354996 291.550762 
L 112.587058 291.166877 
L 112.81912 291.903073 
L 113.051182 291.616641 
L 113.283244 292.889292 
L 113.515306 292.484536 
L 113.979429 292.922952 
L 114.443553 292.999588 
L 114.675615 293.275141 
L 114.907677 292.95006 
L 115.371801 292.718996 
L 115.603862 292.74691 
L 116.067986 291.830293 
L 116.764172 291.555708 
L 117.228296 290.628964 
L 117.460357 290.593006 
L 117.692419 290.39485 
L 117.924481 290.699418 
L 118.388605 290.067864 
L 118.620667 290.182207 
L 118.852729 290.008658 
L 119.316852 290.15528 
L 119.548914 290.792571 
L 119.780976 290.386629 
L 120.013038 290.839464 
L 120.477162 290.808427 
L 120.709223 291.197008 
L 120.941285 291.195596 
L 121.173347 292.06036 
L 121.405409 291.55655 
L 121.869533 292.4296 
L 122.101595 291.973733 
L 122.333657 292.258912 
L 122.565718 292.753474 
L 122.79778 292.64677 
L 123.029842 292.194795 
L 123.261904 292.849432 
L 123.493966 292.621047 
L 123.726028 291.8305 
L 124.190151 292.607453 
L 124.422213 294.302094 
L 124.654275 294.637683 
L 124.886337 294.688202 
L 125.118399 295.013961 
L 125.350461 293.45724 
L 125.814584 294.106942 
L 126.046646 294.185479 
L 126.278708 293.56192 
L 126.51077 294.263989 
L 126.742832 295.351775 
L 126.974894 293.713391 
L 127.206956 295.289749 
L 127.439017 293.708649 
L 127.671079 294.324801 
L 127.903141 294.319623 
L 128.135203 295.402656 
L 128.367265 295.275617 
L 128.599327 294.845685 
L 128.831389 295.324211 
L 129.527574 295.429391 
L 129.991698 295.379219 
L 130.22376 294.876212 
L 130.455822 295.393943 
L 130.687884 294.894832 
L 130.919945 295.241569 
L 131.152007 294.331345 
L 131.384069 295.341553 
L 131.616131 295.452908 
L 131.848193 295.348309 
L 132.080255 295.393859 
L 132.312317 294.5783 
L 132.544378 295.115374 
L 132.77644 295.360732 
L 133.240564 295.415988 
L 133.472626 295.394094 
L 133.704688 295.140928 
L 133.93675 295.401792 
L 134.168811 295.288615 
L 134.400873 294.522557 
L 134.632935 295.33669 
L 134.864997 295.37288 
L 135.561183 295.10934 
L 136.025306 295.238468 
L 136.257368 295.153205 
L 136.48943 295.235163 
L 136.721492 295.037527 
L 136.953554 295.360454 
L 137.649739 295.106722 
L 137.881801 294.920341 
L 138.113863 295.287502 
L 138.345925 295.099548 
L 138.577987 295.128044 
L 138.810049 294.71512 
L 139.042111 294.59494 
L 139.274172 293.721337 
L 139.506234 295.38674 
L 139.738296 294.921242 
L 139.970358 295.410506 
L 140.20242 295.269079 
L 140.434482 294.587728 
L 140.666544 295.359647 
L 140.898605 295.345775 
L 141.130667 295.040006 
L 141.362729 295.222584 
L 141.594791 295.128087 
L 141.826853 295.333365 
L 142.058915 295.288108 
L 142.290977 292.289678 
L 142.523039 295.38773 
L 142.987162 295.300115 
L 143.219224 295.37021 
L 143.683348 294.369122 
L 143.91541 295.319734 
L 144.147472 295.321832 
L 144.379533 294.731231 
L 144.611595 295.191432 
L 144.843657 295.180254 
L 145.075719 295.436621 
L 145.307781 294.803405 
L 145.539843 295.406814 
L 145.771905 295.184466 
L 146.46809 295.369534 
L 146.700152 294.758307 
L 146.932214 294.868764 
L 147.164276 294.588092 
L 147.396338 294.789871 
L 147.6284 295.338816 
L 147.860461 294.939857 
L 148.092523 295.421332 
L 148.324585 295.027008 
L 148.556647 295.323677 
L 148.788709 295.288604 
L 149.252833 294.943005 
L 149.484894 293.933227 
L 149.716956 293.970224 
L 149.949018 294.18224 
L 150.18108 295.337117 
L 150.413142 295.248947 
L 150.645204 294.612904 
L 150.877266 294.759044 
L 151.109327 294.093767 
L 151.341389 294.898881 
L 151.573451 294.623295 
L 151.805513 295.310654 
L 152.037575 294.959988 
L 152.501699 294.970476 
L 152.73376 295.248923 
L 152.965822 295.021624 
L 153.197884 295.070525 
L 153.429946 295.306901 
L 153.662008 295.191889 
L 153.89407 295.432738 
L 154.126132 294.823894 
L 154.358194 294.642516 
L 154.590255 294.015196 
L 154.822317 294.920115 
L 155.054379 294.999326 
L 155.286441 295.392999 
L 155.750565 295.365465 
L 155.982627 294.922471 
L 156.214688 295.397572 
L 156.678812 295.391179 
L 157.142936 295.049565 
L 157.374998 295.381774 
L 157.839121 294.562672 
L 158.071183 295.159439 
L 158.535307 295.026506 
L 158.767369 295.400588 
L 159.231493 295.360859 
L 159.463554 294.650088 
L 159.695616 295.114469 
L 159.927678 295.00644 
L 160.391802 295.45421 
L 160.623864 294.516229 
L 160.855926 295.460344 
L 161.087988 295.299415 
L 161.552111 293.408132 
L 161.784173 293.632214 
L 162.248297 294.848244 
L 162.480359 295.339591 
L 162.712421 294.91103 
L 162.944482 294.945421 
L 163.176544 295.307225 
L 163.408606 295.111407 
L 163.640668 294.756314 
L 163.87273 294.984346 
L 164.104792 295.375084 
L 164.336854 294.711156 
L 164.568915 295.35441 
L 164.800977 295.365191 
L 165.033039 294.903462 
L 165.265101 295.452896 
L 165.497163 295.267422 
L 165.729225 293.559423 
L 165.961287 294.982592 
L 166.193348 295.241977 
L 166.42541 295.053866 
L 166.657472 295.298119 
L 166.889534 295.210021 
L 167.121596 295.379454 
L 167.353658 295.264112 
L 167.58572 294.852994 
L 167.817782 294.896593 
L 168.049843 295.437913 
L 168.513967 295.438502 
L 168.746029 294.676841 
L 168.978091 295.47451 
L 169.210153 294.832102 
L 169.442215 295.353452 
L 169.674276 295.365986 
L 169.906338 295.038817 
L 170.1384 295.386302 
L 170.370462 294.784996 
L 170.602524 295.334498 
L 171.066648 292.807823 
L 171.298709 294.933777 
L 171.530771 295.357301 
L 171.762833 294.894302 
L 171.994895 295.048099 
L 172.226957 293.950709 
L 172.691081 295.031186 
L 172.923143 294.883617 
L 173.155204 295.380593 
L 173.619328 294.789301 
L 173.85139 294.742545 
L 174.083452 295.338989 
L 174.547576 295.35876 
L 174.779637 295.378985 
L 175.011699 294.362322 
L 175.243761 295.038533 
L 175.475823 294.276048 
L 175.707885 295.441218 
L 175.939947 295.150277 
L 176.172009 295.33873 
L 176.40407 295.308444 
L 176.636132 294.302113 
L 176.868194 295.428873 
L 177.100256 295.36594 
L 177.332318 295.078771 
L 177.796442 295.382158 
L 178.028503 295.363731 
L 178.260565 294.867657 
L 178.492627 295.224038 
L 178.724689 295.216014 
L 178.956751 295.362003 
L 179.652937 295.359189 
L 180.349122 294.548882 
L 180.581184 294.854228 
L 180.813246 294.844734 
L 181.045308 295.431153 
L 181.27737 295.26624 
L 181.741493 295.31594 
L 181.973555 294.53412 
L 182.205617 295.31718 
L 182.437679 294.276496 
L 182.669741 293.961212 
L 182.901803 294.225901 
L 183.133864 295.429527 
L 183.365926 295.018501 
L 183.597988 295.099506 
L 183.83005 295.368618 
L 184.294174 294.597535 
L 184.526236 295.124795 
L 184.758297 295.027809 
L 184.990359 294.015175 
L 185.222421 294.754273 
L 185.454483 294.672322 
L 185.686545 293.48678 
L 185.918607 294.630572 
L 186.150669 294.905246 
L 186.846854 295.137669 
L 187.078916 295.305435 
L 187.54304 295.27527 
L 187.775102 294.752275 
L 188.239225 295.382102 
L 188.935411 295.277553 
L 189.167473 295.438848 
L 189.399535 294.339148 
L 189.631597 294.331076 
L 189.863658 293.887393 
L 190.09572 295.359273 
L 190.327782 294.395924 
L 190.559844 294.776068 
L 190.791906 295.444242 
L 191.023968 295.48037 
L 191.488091 295.065735 
L 191.720153 294.784155 
L 191.952215 295.381561 
L 192.184277 295.349158 
L 192.416339 294.529748 
L 192.880463 295.369639 
L 193.112525 293.999201 
L 193.344586 295.039816 
L 193.576648 295.390452 
L 193.80871 295.01469 
L 194.040772 295.328286 
L 194.272834 294.414741 
L 194.736958 295.255778 
L 194.969019 294.772573 
L 195.201081 294.858903 
L 195.665205 295.341926 
L 196.361391 295.351829 
L 196.593452 294.955839 
L 196.825514 295.415098 
L 197.057576 294.979394 
L 197.289638 295.242158 
L 197.5217 294.757468 
L 197.753762 295.435645 
L 197.985824 295.304283 
L 198.217886 295.466248 
L 198.682009 294.947302 
L 198.914071 294.93432 
L 199.146133 295.471856 
L 199.378195 295.31327 
L 199.610257 295.437725 
L 199.842319 295.374292 
L 200.07438 295.436926 
L 200.306442 294.883987 
L 200.538504 294.993188 
L 200.770566 293.286147 
L 201.466752 294.991319 
L 201.698813 294.832451 
L 201.930875 295.325743 
L 202.162937 295.344977 
L 202.394999 294.105642 
L 202.627061 295.379839 
L 202.859123 291.447689 
L 203.323246 294.472172 
L 203.555308 295.341927 
L 203.78737 295.191937 
L 204.251494 295.430299 
L 204.715618 295.167184 
L 204.94768 295.459055 
L 205.179741 295.371197 
L 205.411803 294.662499 
L 205.643865 295.464448 
L 206.107989 295.387713 
L 206.340051 294.870327 
L 206.804174 295.352673 
L 207.50036 295.389442 
L 207.964484 294.937095 
L 208.196546 295.435147 
L 208.428607 295.165763 
L 208.660669 294.546225 
L 208.892731 295.365053 
L 209.124793 294.924542 
L 209.356855 295.046283 
L 209.588917 295.442662 
L 209.820979 295.212513 
L 210.517164 295.42021 
L 210.981288 295.357926 
L 211.445412 294.991584 
L 211.677474 295.406217 
L 211.909535 295.34959 
L 212.141597 295.121977 
L 212.373659 295.363765 
L 212.605721 295.355538 
L 212.837783 295.470499 
L 213.301907 294.94335 
L 213.533968 295.31988 
L 213.76603 295.215856 
L 214.230154 295.437259 
L 215.158401 295.445589 
L 215.390463 295.025471 
L 215.622525 295.262456 
L 215.854587 295.202145 
L 216.318711 295.424653 
L 216.550773 294.791563 
L 216.782834 295.242127 
L 217.014896 295.253393 
L 217.246958 295.103644 
L 217.47902 295.283451 
L 217.943144 294.288748 
L 218.175206 294.673169 
L 218.407268 294.662472 
L 218.639329 295.365565 
L 218.871391 294.672802 
L 219.335515 294.923255 
L 219.567577 295.29194 
L 220.031701 293.540984 
L 220.263762 295.454725 
L 220.495824 295.357628 
L 220.727886 295.129582 
L 220.959948 295.454987 
L 221.19201 295.048679 
L 221.424072 295.474672 
L 221.888195 295.404747 
L 222.816443 295.469125 
L 223.512629 294.946625 
L 223.74469 295.403688 
L 223.976752 295.318349 
L 224.208814 294.68983 
L 224.440876 295.189151 
L 225.137062 295.362147 
L 225.369123 295.333671 
L 225.601185 294.392358 
L 225.833247 294.953121 
L 226.065309 294.331738 
L 226.297371 295.190214 
L 226.529433 293.385151 
L 226.761495 294.069694 
L 226.993556 294.367464 
L 227.225618 295.223933 
L 227.45768 294.545275 
L 227.921804 295.168987 
L 228.153866 294.603532 
L 228.850051 295.470789 
L 229.082113 295.195956 
L 229.314175 295.385194 
L 229.778299 295.280355 
L 230.242423 295.465904 
L 230.474484 295.255897 
L 230.706546 295.452475 
L 231.17067 295.461489 
L 231.402732 294.887277 
L 231.634794 295.272275 
L 231.866856 294.783484 
L 232.098917 295.40843 
L 232.563041 295.157935 
L 232.795103 295.345009 
L 233.027165 294.320217 
L 233.259227 295.04828 
L 233.491289 295.298199 
L 233.72335 295.294927 
L 233.955412 293.816744 
L 234.419536 295.448671 
L 234.651598 295.157942 
L 234.88366 295.41777 
L 235.115722 294.757556 
L 235.347783 295.340714 
L 235.579845 294.337961 
L 236.043969 295.439789 
L 236.276031 295.169129 
L 236.508093 295.38187 
L 236.740155 294.796911 
L 236.972217 295.460673 
L 237.204278 295.311673 
L 237.668402 295.371244 
L 237.900464 295.076143 
L 238.132526 295.373925 
L 238.364588 295.455062 
L 238.59665 295.355925 
L 238.828711 295.029776 
L 239.060773 294.939913 
L 239.292835 295.435196 
L 239.524897 295.010267 
L 239.756959 295.353979 
L 240.221083 295.061068 
L 240.453144 294.790812 
L 240.685206 295.404433 
L 240.917268 295.373189 
L 241.14933 295.049306 
L 241.381392 295.308366 
L 241.613454 295.159336 
L 241.845516 295.432099 
L 242.077577 294.602476 
L 242.541701 295.06085 
L 242.773763 294.81058 
L 243.237887 295.272833 
L 243.934072 295.204212 
L 244.166134 295.425521 
L 244.398196 295.0678 
L 244.630258 295.330063 
L 245.094382 295.464614 
L 245.558505 295.34579 
L 246.022629 295.131831 
L 246.254691 295.476386 
L 246.950877 295.425562 
L 247.182938 295.200866 
L 247.415 295.411654 
L 247.647062 295.064341 
L 247.879124 295.414374 
L 248.111186 294.922579 
L 248.343248 293.182046 
L 248.57531 294.987943 
L 248.807371 295.313283 
L 249.039433 295.279672 
L 249.271495 294.919413 
L 249.503557 295.387022 
L 249.735619 295.373796 
L 249.967681 294.987186 
L 250.199743 295.026509 
L 250.431805 294.528103 
L 250.663866 295.163048 
L 250.895928 295.464098 
L 251.12799 295.151268 
L 251.360052 295.269542 
L 251.592114 294.616313 
L 252.056238 295.220508 
L 252.288299 295.31394 
L 252.520361 295.226481 
L 252.752423 295.441757 
L 252.984485 295.33527 
L 253.448609 295.378966 
L 253.912732 295.408724 
L 254.144794 295.096346 
L 254.376856 295.425211 
L 254.608918 295.31187 
L 255.073042 295.355383 
L 255.305104 295.265526 
L 255.537166 294.955256 
L 256.001289 295.056769 
L 256.233351 294.866684 
L 256.465413 295.418813 
L 256.697475 294.943205 
L 256.929537 295.389685 
L 257.161599 294.847279 
L 257.39366 294.667415 
L 257.625722 295.136916 
L 257.857784 295.013346 
L 258.089846 295.459297 
L 258.321908 294.758699 
L 258.786032 294.590176 
L 259.018093 294.688553 
L 259.250155 295.272873 
L 259.482217 295.440566 
L 259.714279 295.35285 
L 259.946341 295.470678 
L 260.642526 295.37543 
L 260.874588 295.378682 
L 261.570774 294.88292 
L 262.034898 295.376009 
L 262.26696 295.020741 
L 262.499021 295.387899 
L 262.731083 295.115354 
L 262.963145 295.021708 
L 263.659331 295.33777 
L 263.891393 295.097187 
L 264.355516 294.954223 
L 264.587578 294.855168 
L 264.81964 295.458813 
L 265.283764 295.383278 
L 265.515826 295.081384 
L 265.747887 295.104461 
L 265.979949 293.696601 
L 266.212011 295.198639 
L 266.444073 294.690465 
L 266.676135 295.305437 
L 266.908197 295.414848 
L 267.140259 295.142504 
L 267.37232 295.450346 
L 267.604382 294.799712 
L 268.068506 295.478145 
L 268.300568 295.215084 
L 268.764692 295.294989 
L 268.996754 295.374706 
L 269.228815 295.15029 
L 269.692939 295.303342 
L 269.925001 295.144271 
L 270.157063 294.655648 
L 270.389125 295.255123 
L 270.621187 295.252022 
L 270.853248 294.957752 
L 271.08531 294.058287 
L 271.317372 294.205807 
L 271.549434 293.882983 
L 271.781496 295.192758 
L 272.477681 295.181366 
L 272.709743 295.40464 
L 273.173867 295.304044 
L 273.405929 294.978238 
L 273.637991 295.451024 
L 273.870053 295.302805 
L 274.334176 295.373678 
L 274.566238 295.308106 
L 274.7983 295.441632 
L 275.030362 295.096533 
L 275.262424 295.488 
L 275.494486 295.20785 
L 275.958609 295.47992 
L 276.654795 295.463436 
L 276.886857 295.339797 
L 277.583042 295.333966 
L 277.815104 295.139539 
L 278.047166 295.370788 
L 278.279228 295.023853 
L 278.51129 293.163653 
L 278.975414 294.871798 
L 279.207475 294.981865 
L 279.439537 295.388269 
L 279.671599 293.896134 
L 279.903661 294.177688 
L 280.135723 294.926978 
L 280.367785 295.254678 
L 280.831909 295.343164 
L 281.06397 294.56186 
L 281.296032 295.09 
L 281.528094 295.24462 
L 281.760156 295.09308 
L 281.992218 295.186357 
L 282.22428 295.476422 
L 282.456342 295.390063 
L 282.688403 295.484544 
L 282.920465 295.447729 
L 283.152527 295.247061 
L 283.616651 295.472395 
L 283.848713 295.412466 
L 284.080775 295.078467 
L 284.312836 295.44833 
L 284.77696 295.374283 
L 285.009022 294.741325 
L 285.241084 295.389081 
L 285.473146 295.429075 
L 285.705208 294.981607 
L 285.937269 295.359772 
L 286.169331 294.922029 
L 286.401393 294.973264 
L 286.633455 294.812595 
L 286.865517 295.061791 
L 287.097579 294.815788 
L 287.561703 295.433371 
L 287.793764 294.526581 
L 288.025826 295.337047 
L 288.257888 295.293546 
L 288.48995 295.36786 
L 288.722012 295.319483 
L 288.954074 294.900793 
L 289.186136 295.330186 
L 289.418197 295.243551 
L 289.650259 295.477621 
L 289.882321 295.265095 
L 290.346445 295.470746 
L 290.578507 295.374984 
L 290.810569 295.458876 
L 291.04263 295.261823 
L 291.506754 295.193493 
L 291.738816 295.378155 
L 292.20294 295.444307 
L 292.435002 295.025701 
L 292.667063 295.395489 
L 292.899125 294.572256 
L 293.131187 295.363022 
L 293.363249 294.819753 
L 293.595311 295.003589 
L 293.827373 294.921118 
L 294.059435 295.457297 
L 294.291497 295.388366 
L 294.523558 294.822677 
L 294.987682 295.338089 
L 295.219744 295.355825 
L 295.451806 294.757675 
L 295.683868 294.70246 
L 295.91593 294.528624 
L 296.147991 295.188949 
L 296.380053 295.306717 
L 296.612115 294.906586 
L 296.844177 294.950504 
L 297.076239 295.293062 
L 297.308301 295.258659 
L 297.540363 295.485108 
L 297.772424 294.840261 
L 298.236548 295.342247 
L 298.46861 295.473087 
L 298.700672 295.408365 
L 298.932734 295.098127 
L 299.164796 295.366859 
L 299.628919 295.370972 
L 299.860981 295.438347 
L 300.093043 295.364233 
L 300.325105 295.021362 
L 300.557167 295.196081 
L 300.789229 294.862057 
L 301.021291 294.989385 
L 301.253352 294.6808 
L 301.485414 295.445515 
L 301.717476 295.032592 
L 301.949538 295.294641 
L 302.1816 295.013655 
L 302.877785 295.374825 
L 303.109847 294.713876 
L 303.341909 294.866567 
L 303.573971 295.15754 
L 303.806033 295.099033 
L 304.038095 295.369817 
L 304.270157 295.419901 
L 304.502218 294.941391 
L 304.73428 295.410012 
L 305.198404 295.446321 
L 305.662528 295.324405 
L 306.126652 295.453944 
L 306.358713 295.321174 
L 306.590775 295.470427 
L 306.822837 295.376156 
L 307.519023 295.435408 
L 307.751085 295.336273 
L 307.983146 295.417542 
L 308.44727 294.898095 
L 308.679332 295.350587 
L 308.911394 295.296684 
L 309.143456 295.452912 
L 309.375518 295.365058 
L 309.607579 294.695506 
L 309.839641 295.054737 
L 310.303765 295.033586 
L 310.535827 295.390261 
L 310.767889 294.942651 
L 310.999951 295.458263 
L 311.232012 295.027602 
L 311.464074 295.173007 
L 311.696136 295.464569 
L 312.856446 295.438277 
L 313.088507 294.909209 
L 313.320569 295.385995 
L 313.552631 295.408987 
L 313.784693 295.309688 
L 314.016755 295.458008 
L 314.480879 295.415235 
L 314.71294 295.480294 
L 314.945002 295.330745 
L 315.177064 295.436157 
L 315.641188 295.430472 
L 316.337373 295.476561 
L 316.569435 295.20809 
L 316.801497 294.283478 
L 317.033559 295.230323 
L 317.265621 295.375718 
L 317.497683 294.533427 
L 317.729745 294.854167 
L 317.961806 294.193125 
L 318.42593 295.315909 
L 319.122116 295.470188 
L 319.354178 295.260055 
L 319.58624 295.448397 
L 319.818301 295.463724 
L 320.050363 295.11525 
L 320.282425 295.251961 
L 320.746549 295.318396 
L 320.978611 295.443247 
L 321.210673 295.34352 
L 322.13892 295.458258 
L 322.370982 295.357923 
L 322.603044 295.44915 
L 323.067167 295.231306 
L 323.299229 295.450932 
L 323.531291 295.060584 
L 323.763353 295.067883 
L 323.995415 295.420503 
L 324.227477 295.408149 
L 324.459539 294.577555 
L 324.6916 294.325606 
L 324.923662 295.173948 
L 325.155724 295.260488 
L 325.387786 294.588074 
L 325.619848 295.395766 
L 326.083972 294.806411 
L 326.316034 294.986724 
L 326.548095 295.336978 
L 326.780157 295.451817 
L 327.244281 295.283998 
L 327.476343 295.467625 
L 329.5649 295.358683 
L 329.796961 295.440815 
L 330.029023 295.339832 
L 330.261085 295.449357 
L 330.725209 295.151969 
L 330.957271 295.462252 
L 331.421395 294.796295 
L 331.653456 295.443601 
L 331.885518 295.218172 
L 332.11758 295.410989 
L 332.349642 294.485016 
L 332.581704 295.385907 
L 332.813766 295.401453 
L 333.045828 294.378237 
L 333.277889 295.301205 
L 333.509951 294.900337 
L 333.742013 295.400286 
L 334.438199 295.121813 
L 334.670261 295.462959 
L 334.902322 295.458092 
L 335.134384 295.277069 
L 336.062632 295.468481 
L 336.294694 295.340498 
L 336.526755 295.368389 
L 336.758817 295.203254 
L 336.990879 295.39002 
L 337.222941 294.970243 
L 337.455003 295.368305 
L 337.919127 295.454735 
L 338.151189 295.047232 
L 338.38325 295.38985 
L 338.615312 295.459461 
L 338.847374 295.157993 
L 339.079436 295.452653 
L 339.311498 295.463062 
L 339.54356 294.966846 
L 340.239745 295.281495 
L 340.703869 294.685054 
L 340.935931 295.349271 
L 341.167993 294.989728 
L 341.400055 295.465672 
L 343.256549 295.460169 
L 343.720673 295.293366 
L 344.184797 295.37239 
L 344.416859 295.036469 
L 344.880983 295.392593 
L 345.113044 295.159226 
L 345.345106 295.438369 
L 345.577168 295.451673 
L 345.80923 295.234203 
L 346.041292 295.419319 
L 346.737477 295.467482 
L 346.969539 295.480455 
L 347.201601 294.951565 
L 347.433663 295.002117 
L 347.897787 295.237877 
L 348.129849 295.338761 
L 348.36191 294.935084 
L 348.593972 294.886054 
L 348.826034 295.435739 
L 349.058096 295.212653 
L 349.290158 295.44013 
L 349.52222 295.246273 
L 349.754282 295.456146 
L 349.986343 295.132088 
L 350.218405 295.299584 
L 350.450467 295.226547 
L 350.914591 295.447123 
L 351.378715 295.332682 
L 351.610777 295.437343 
L 352.0749 295.18485 
L 352.306962 295.473991 
L 352.539024 295.35663 
L 353.003148 295.460026 
L 353.23521 295.47119 
L 353.467271 295.358612 
L 353.699333 295.453724 
L 353.931395 295.258952 
L 354.163457 295.404642 
L 354.395519 295.213356 
L 354.859643 295.229635 
L 355.555828 295.381475 
L 355.78789 294.948895 
L 356.019952 295.38569 
L 356.484076 294.676171 
L 356.716138 295.121024 
L 356.948199 295.1594 
L 357.180261 295.01615 
L 357.412323 295.473116 
L 357.644385 295.320297 
L 357.876447 295.446511 
L 358.108509 295.231709 
L 358.572632 295.148752 
L 358.804694 295.371219 
L 359.036756 295.09568 
L 359.732942 295.385797 
L 359.965004 294.984197 
L 360.429127 295.486259 
L 360.661189 295.269943 
L 360.893251 295.450579 
L 362.285622 295.446742 
L 363.677993 295.333521 
L 363.910055 294.683127 
L 364.142117 295.169351 
L 364.374179 295.337628 
L 364.606241 295.297991 
L 364.838303 295.117906 
L 365.070365 295.422333 
L 365.302426 295.393685 
L 365.534488 294.966932 
L 365.76655 295.462298 
L 365.998612 295.335805 
L 366.462736 295.436313 
L 366.694798 295.021926 
L 366.926859 295.305759 
L 367.855107 295.283725 
L 368.087169 295.219563 
L 368.319231 295.394525 
L 368.551292 295.423297 
L 368.783354 294.889777 
L 369.015416 295.38964 
L 369.711602 295.482468 
L 370.639849 295.290711 
L 371.103973 294.661251 
L 371.336035 295.337217 
L 371.568097 294.963839 
L 371.800159 295.271407 
L 372.496344 295.479381 
L 373.424592 295.477567 
L 373.656653 295.304865 
L 373.888715 295.462967 
L 374.120777 295.457112 
L 374.352839 295.254864 
L 374.584901 295.471144 
L 374.816963 295.15972 
L 375.74521 295.458866 
L 375.977272 295.221792 
L 376.209334 295.427252 
L 376.441396 294.92736 
L 376.673458 295.357662 
L 377.137581 295.467287 
L 377.601705 295.284646 
L 377.833767 294.660399 
L 378.065829 295.125079 
L 378.297891 294.954195 
L 378.529953 295.462456 
L 378.762014 295.085002 
L 378.994076 295.307377 
L 379.4582 295.319683 
L 379.690262 294.906025 
L 379.922324 295.392862 
L 380.154386 295.201939 
L 380.386447 295.47951 
L 380.850571 295.399369 
L 381.082633 295.249169 
L 381.314695 295.466962 
L 382.01088 295.351062 
L 382.242942 295.434576 
L 382.475004 295.214009 
L 382.707066 295.40899 
L 382.939128 294.973398 
L 383.403252 295.418882 
L 383.635314 295.284758 
L 383.867375 295.448059 
L 385.027685 295.390884 
L 385.491808 294.794714 
L 385.72387 295.0404 
L 385.955932 295.041019 
L 386.187994 295.438903 
L 386.420056 295.297964 
L 386.652118 295.292633 
L 386.88418 295.066646 
L 387.348303 295.462165 
L 387.580365 294.874404 
L 387.812427 295.160343 
L 388.276551 295.060261 
L 388.508613 295.466596 
L 388.972736 295.161867 
L 389.204798 295.453843 
L 390.133046 295.290857 
L 390.365108 294.944904 
L 390.597169 295.123843 
L 390.829231 295.117497 
L 391.293355 295.439838 
L 393.14985 295.368219 
L 393.381912 294.825905 
L 393.613974 295.395864 
L 393.846035 295.261867 
L 394.078097 295.464618 
L 394.774283 295.288247 
L 395.006345 295.448523 
L 395.238407 294.923154 
L 395.470469 295.153362 
L 395.70253 295.059589 
L 395.934592 295.455107 
L 396.166654 294.948226 
L 396.398716 295.466468 
L 397.791087 295.472317 
L 398.023149 295.167019 
L 398.255211 295.343842 
L 398.487273 295.260085 
L 398.487273 295.260085 
" style="fill:none;stroke:#1f77b4;stroke-linecap:square;stroke-width:1.5;"/>
   </g>
   <g id="line2d_18">
    <path clip-path="url(#p0b0d7a1592)" d="M 73.832727 53.568 
L 74.528913 78.41972 
L 74.993037 89.304399 
L 75.45716 95.54986 
L 75.921284 98.183428 
L 76.153346 97.01102 
L 76.61747 92.382973 
L 78.706026 59.672408 
L 79.17015 56.808516 
L 79.402212 56.364106 
L 79.634274 56.865967 
L 80.098398 58.952488 
L 80.562521 64.946257 
L 81.258707 76.441757 
L 82.651078 102.544956 
L 83.115202 107.351741 
L 83.347264 108.303811 
L 83.579325 108.751272 
L 83.811387 108.232644 
L 84.275511 104.756415 
L 84.739635 98.942474 
L 86.132006 78.617611 
L 86.59613 75.235884 
L 86.828192 74.528603 
L 87.060253 74.747955 
L 87.292315 76.000021 
L 87.756439 81.295129 
L 88.220563 90.159279 
L 89.14881 115.28886 
L 90.077058 139.92981 
L 90.30912 144.463935 
L 90.773243 147.036569 
L 91.005305 153.833865 
L 91.237367 153.989187 
L 91.469429 152.988909 
L 91.701491 151.392894 
L 92.629738 140.607545 
L 93.325924 119.402153 
L 94.022109 100.970261 
L 94.486233 93.707266 
L 94.718295 91.59146 
L 94.950357 91.260917 
L 95.182419 92.234795 
L 95.41448 93.899328 
L 95.878604 101.369348 
L 96.342728 113.450735 
L 98.199223 174.115651 
L 98.895408 176.169763 
L 99.12747 176.206453 
L 99.359532 175.67047 
L 100.055718 173.260875 
L 100.519841 163.272122 
L 101.680151 136.127195 
L 102.376336 124.148777 
L 102.608398 121.830876 
L 102.84046 120.660906 
L 103.072522 120.514894 
L 103.304584 121.940601 
L 103.768708 128.209742 
L 104.232831 138.05431 
L 105.161079 164.970599 
L 105.857264 183.598083 
L 106.321388 189.849458 
L 106.785512 192.541285 
L 107.017574 193.461994 
L 107.249635 191.832672 
L 107.713759 185.56243 
L 108.409945 170.589228 
L 109.570254 145.990135 
L 110.034378 139.337601 
L 110.498502 136.460249 
L 110.730563 136.463402 
L 111.194687 139.616059 
L 111.658811 145.776907 
L 112.587058 161.823406 
L 113.747368 173.666615 
L 114.443553 177.2039 
L 114.675615 177.797675 
L 114.907677 177.640287 
L 115.139739 176.775369 
L 115.603862 172.671468 
L 116.53211 158.412902 
L 117.460357 144.757825 
L 117.924481 140.673502 
L 118.388605 138.211539 
L 118.620667 138.205065 
L 118.852729 139.671858 
L 119.08479 140.337041 
L 119.548914 145.116484 
L 120.2451 155.340288 
L 121.173347 169.612671 
L 121.637471 174.939492 
L 121.869533 176.595748 
L 122.101595 176.843692 
L 122.333657 176.443036 
L 122.565718 175.397258 
L 123.029842 171.114533 
L 123.493966 163.88443 
L 125.118399 133.415637 
L 125.582523 127.487325 
L 126.046646 123.75721 
L 126.278708 123.86731 
L 126.51077 123.745872 
L 126.742832 124.623723 
L 126.974894 125.94253 
L 127.439017 131.700477 
L 128.135203 141.744892 
L 129.063451 157.297132 
L 129.527574 162.692756 
L 129.991698 165.778098 
L 130.22376 166.396665 
L 130.455822 166.125409 
L 130.687884 165.295411 
L 131.152007 160.647446 
L 131.616131 154.502647 
L 132.77644 137.671856 
L 133.240564 132.736307 
L 133.472626 130.985064 
L 133.93675 129.244606 
L 134.168811 129.475053 
L 134.400873 130.201554 
L 134.632935 131.371982 
L 135.329121 138.682046 
L 136.953554 160.713439 
L 137.417678 164.031148 
L 137.881801 164.885621 
L 138.113863 164.836845 
L 138.345925 164.158482 
L 138.577987 162.753489 
L 139.274172 155.595326 
L 140.666544 139.2898 
L 140.898605 137.870591 
L 141.130667 135.510335 
L 141.594791 134.015366 
L 141.826853 134.286009 
L 142.290977 135.948639 
L 142.7551 140.067791 
L 144.843657 162.940313 
L 145.075719 163.988713 
L 145.307781 164.452701 
L 145.539843 164.472005 
L 145.771905 164.272362 
L 146.236028 161.211254 
L 146.700152 157.299036 
L 148.092523 142.965561 
L 148.556647 139.798319 
L 148.788709 138.546325 
L 149.020771 137.967107 
L 149.252833 137.744247 
L 149.484894 138.081224 
L 149.949018 139.92702 
L 150.413142 143.307708 
L 152.037575 157.78271 
L 152.501699 160.319169 
L 152.73376 160.780536 
L 152.965822 160.984936 
L 153.197884 160.512874 
L 153.662008 158.611051 
L 154.126132 155.734908 
L 155.750565 141.38487 
L 155.982627 140.331004 
L 156.214688 138.744009 
L 156.44675 138.274951 
L 156.678812 137.463844 
L 156.910874 137.423561 
L 157.142936 137.688636 
L 157.60706 139.867856 
L 158.071183 142.680993 
L 159.695616 156.513682 
L 159.927678 158.426295 
L 160.391802 159.972621 
L 160.623864 160.10344 
L 160.855926 160.106517 
L 161.087988 159.751684 
L 161.552111 157.871474 
L 162.016235 154.972485 
L 163.408606 143.56458 
L 164.104792 139.712263 
L 164.568915 138.457161 
L 164.800977 138.286934 
L 165.265101 139.362098 
L 165.497163 140.1885 
L 165.961287 143.102798 
L 167.58572 155.722486 
L 168.281905 158.887483 
L 168.513967 158.922554 
L 168.978091 158.486521 
L 169.210153 157.724887 
L 170.1384 151.845587 
L 171.066648 144.784891 
L 171.994895 140.193733 
L 172.226957 139.76749 
L 172.459019 139.672685 
L 172.923143 140.339172 
L 173.619328 143.84322 
L 174.779637 151.641604 
L 175.475823 155.822773 
L 175.939947 157.252786 
L 176.40407 158.132424 
L 176.868194 156.12719 
L 177.332318 153.740668 
L 178.956751 143.492763 
L 179.188813 142.763657 
L 179.420875 141.558236 
L 179.652937 141.226296 
L 179.884998 141.149782 
L 180.349122 142.103465 
L 180.813246 144.421862 
L 182.901803 159.453329 
L 183.597988 161.775797 
L 183.83005 161.62041 
L 184.526236 160.098845 
L 186.150669 146.965989 
L 186.846854 142.342911 
L 187.310978 140.808966 
L 187.54304 140.728198 
L 187.775102 140.901987 
L 188.239225 142.663287 
L 188.935411 147.923032 
L 189.399535 151.866261 
L 190.559844 161.926722 
L 191.023968 164.303134 
L 191.25603 164.849117 
L 191.488091 165.020195 
L 191.952215 164.332846 
L 192.184277 163.469553 
L 193.112525 156.117824 
L 194.504896 144.931068 
L 194.969019 143.397715 
L 195.201081 142.833712 
L 195.433143 143.344345 
L 195.665205 143.58329 
L 195.897267 144.481879 
L 196.825514 151.048577 
L 198.449947 164.265699 
L 198.914071 166.344369 
L 199.146133 166.903913 
L 199.378195 166.92338 
L 199.610257 166.52554 
L 200.07438 164.783259 
L 200.770566 160.194714 
L 201.930875 151.85151 
L 202.394999 149.503842 
L 202.859123 148.320479 
L 203.323246 148.190809 
L 203.555308 148.69237 
L 204.715618 154.62852 
L 205.179741 157.664532 
L 205.643865 161.202413 
L 206.340051 165.029568 
L 206.572113 165.136481 
L 206.804174 165.744578 
L 207.036236 165.795567 
L 207.268298 165.986157 
L 207.964484 163.753513 
L 208.892731 158.218266 
L 209.588917 153.892818 
L 210.05304 151.611114 
L 210.517164 150.483748 
L 210.749226 150.602726 
L 210.981288 150.584826 
L 211.445412 151.911544 
L 212.141597 155.636496 
L 212.837783 160.960125 
L 213.998092 169.127418 
L 214.462216 170.270773 
L 214.92634 170.219895 
L 215.158401 169.765697 
L 215.622525 168.165757 
L 216.086649 165.216617 
L 217.47902 156.577627 
L 217.943144 154.869755 
L 218.175206 154.312067 
L 218.407268 154.598639 
L 218.639329 154.194292 
L 219.335515 156.192866 
L 219.799639 158.58841 
L 220.263762 162.485667 
L 220.495824 163.763307 
L 220.727886 165.839048 
L 221.19201 168.192896 
L 221.424072 170.155629 
L 222.120257 172.30275 
L 222.352319 172.621916 
L 222.584381 172.680286 
L 223.048505 171.684989 
L 223.512629 169.940341 
L 225.369123 160.453178 
L 225.833247 159.108617 
L 226.297371 158.813153 
L 226.529433 158.966363 
L 227.921804 164.513463 
L 228.153866 166.662552 
L 228.385928 167.700879 
L 228.850051 170.315181 
L 229.778299 173.759775 
L 230.242423 174.134146 
L 230.474484 174.07428 
L 231.17067 172.26988 
L 231.866856 168.246721 
L 233.027165 163.048382 
L 233.259227 162.52654 
L 233.491289 162.399709 
L 233.72335 162.075876 
L 234.187474 162.684019 
L 235.347783 167.722453 
L 236.043969 172.097335 
L 236.508093 174.825859 
L 237.43634 177.50002 
L 237.668402 177.57233 
L 237.900464 177.521447 
L 238.364588 176.032257 
L 239.060773 172.732497 
L 239.524897 169.122164 
L 240.221083 164.727793 
L 240.685206 162.594459 
L 241.14933 161.517092 
L 241.381392 161.088405 
L 241.845516 161.579839 
L 242.309639 163.301038 
L 243.237887 168.874924 
L 244.166134 176.208033 
L 244.630258 178.487772 
L 244.86232 179.734541 
L 245.326444 180.959238 
L 245.790567 180.765246 
L 246.254691 179.523783 
L 246.950877 175.331328 
L 248.111186 167.787661 
L 248.807371 165.079316 
L 249.039433 164.563165 
L 249.503557 164.335022 
L 249.735619 164.858342 
L 250.663866 168.212348 
L 252.056238 176.545174 
L 252.520361 178.056872 
L 252.752423 178.450569 
L 252.984485 178.583115 
L 253.216547 179.097067 
L 253.912732 177.358768 
L 255.073042 170.966967 
L 255.769227 167.294406 
L 256.233351 166.092407 
L 256.465413 165.865313 
L 256.697475 165.973619 
L 256.929537 166.376376 
L 257.857784 170.855354 
L 259.250155 180.772505 
L 259.946341 183.662934 
L 260.410465 184.418102 
L 260.642526 184.297013 
L 261.10665 183.156188 
L 261.570774 180.443512 
L 262.26696 175.466353 
L 262.731083 171.233531 
L 263.427269 166.08916 
L 263.891393 164.06824 
L 264.123454 163.552185 
L 264.355516 163.48622 
L 264.587578 163.995952 
L 265.283764 166.980858 
L 265.747887 170.596405 
L 267.140259 183.490693 
L 267.604382 186.2015 
L 267.836444 186.978462 
L 268.068506 187.313962 
L 268.300568 187.09111 
L 268.53263 186.681666 
L 268.996754 184.366773 
L 269.692939 178.876134 
L 271.317372 164.063479 
L 271.781496 162.191157 
L 272.013558 162.055514 
L 272.24562 162.413467 
L 272.709743 163.846464 
L 272.941805 165.132245 
L 273.405929 169.356828 
L 274.7983 183.840322 
L 275.494486 188.029274 
L 275.726548 188.618499 
L 275.958609 188.801705 
L 276.422733 188.10266 
L 277.118919 183.267762 
L 277.815104 175.912937 
L 278.51129 168.268155 
L 279.207475 163.47653 
L 279.439537 162.54696 
L 279.671599 162.398407 
L 279.903661 162.661431 
L 280.367785 164.387409 
L 280.831909 167.394652 
L 281.528094 174.706772 
L 282.456342 184.506255 
L 283.152527 189.035153 
L 283.384589 189.724492 
L 283.616651 190.026593 
L 283.848713 189.779907 
L 284.080775 189.266924 
L 284.544898 186.526377 
L 285.009022 182.679121 
L 285.705208 175.428054 
L 286.401393 167.904519 
L 286.865517 164.642515 
L 287.329641 163.256003 
L 287.561703 163.060316 
L 287.793764 163.377178 
L 288.025826 163.984777 
L 288.48995 166.736861 
L 290.578507 187.190821 
L 291.04263 189.689803 
L 291.274692 190.298722 
L 291.506754 190.511885 
L 291.738816 190.136856 
L 291.970878 189.489374 
L 292.435002 186.555947 
L 292.899125 182.430953 
L 294.059435 170.098149 
L 294.523558 166.129031 
L 295.219744 163.042347 
L 295.451806 162.737239 
L 295.91593 163.787665 
L 296.380053 166.134644 
L 297.308301 174.344948 
L 298.004486 181.670494 
L 298.932734 186.43414 
L 299.164796 186.617851 
L 299.628919 186.560728 
L 299.860981 185.64689 
L 300.557167 180.659888 
L 302.413662 166.36757 
L 302.877785 165.082051 
L 303.109847 165.222234 
L 303.573971 166.404204 
L 304.038095 169.826853 
L 304.270157 170.417026 
L 305.662528 183.49012 
L 306.590775 188.305588 
L 306.822837 188.904117 
L 307.054899 188.604823 
L 307.286961 188.555625 
L 307.519023 188.016491 
L 307.751085 186.960087 
L 308.44727 181.505763 
L 309.143456 175.500496 
L 309.607579 171.782478 
L 310.303765 167.982904 
L 310.535827 167.310338 
L 310.767889 167.193544 
L 310.999951 167.4152 
L 311.232012 167.8368 
L 311.696136 170.713581 
L 312.392322 176.069593 
L 313.552631 186.494865 
L 314.016755 189.099779 
L 314.248817 190.335215 
L 314.480879 190.949826 
L 314.71294 191.232435 
L 315.177064 190.641458 
L 315.409126 189.935925 
L 316.569435 181.96576 
L 317.265621 177.156304 
L 317.961806 173.705123 
L 318.193868 173.359299 
L 318.42593 173.421939 
L 318.657992 173.750867 
L 319.122116 175.066287 
L 320.282425 182.572428 
L 320.978611 187.875634 
L 321.442734 190.237434 
L 321.906858 191.536464 
L 322.370982 192.032237 
L 322.603044 191.892559 
L 323.299229 188.551493 
L 323.995415 183.165823 
L 324.6916 177.83125 
L 325.387786 173.445928 
L 325.85191 172.019013 
L 326.083972 171.921909 
L 326.548095 172.362255 
L 327.012219 174.380903 
L 327.476343 177.038147 
L 328.868714 187.188198 
L 329.5649 190.255431 
L 330.029023 190.683286 
L 330.493147 190.087604 
L 331.189333 185.690292 
L 333.277889 171.105135 
L 333.742013 170.401439 
L 333.974075 170.466246 
L 334.206137 170.921626 
L 335.134384 176.106083 
L 336.526755 187.21558 
L 337.222941 190.43252 
L 337.455003 191.01961 
L 337.919127 190.613819 
L 338.151189 190.188857 
L 338.615312 187.809233 
L 339.311498 182.39009 
L 340.007683 176.515356 
L 340.703869 171.908141 
L 341.167993 170.442558 
L 341.400055 170.37967 
L 342.09624 172.154254 
L 342.792426 176.993977 
L 344.416859 191.614158 
L 344.880983 194.151251 
L 345.345106 195.44087 
L 345.577168 195.330909 
L 345.80923 194.993675 
L 346.273354 192.847318 
L 346.969539 187.285645 
L 348.36191 174.716091 
L 348.826034 172.123463 
L 349.058096 171.257795 
L 349.290158 171.070407 
L 349.52222 171.068833 
L 349.754282 171.350553 
L 350.450467 175.183043 
L 350.914591 178.598693 
L 352.0749 188.982654 
L 352.771086 193.323048 
L 353.23521 194.681053 
L 353.467271 194.784036 
L 353.699333 194.419484 
L 354.395519 190.987882 
L 356.484076 174.637332 
L 356.948199 173.317021 
L 357.180261 172.876756 
L 357.876447 174.338568 
L 358.572632 178.366135 
L 359.732942 187.874767 
L 360.429127 192.057605 
L 360.893251 193.434364 
L 361.125313 193.663326 
L 361.357375 193.628219 
L 362.05356 190.953049 
L 363.677993 178.301534 
L 364.374179 174.817041 
L 364.606241 174.138097 
L 364.838303 173.833934 
L 365.070365 173.713662 
L 365.302426 174.690226 
L 365.534488 174.56864 
L 365.998612 177.041161 
L 366.230674 178.254883 
L 367.158921 185.225828 
L 368.087169 190.722203 
L 368.551292 192.238585 
L 368.783354 192.729906 
L 369.015416 192.351169 
L 369.711602 189.904819 
L 371.800159 175.165631 
L 372.264282 173.521092 
L 372.728406 173.023502 
L 372.960468 173.60304 
L 373.19253 173.499392 
L 374.120777 178.522141 
L 375.74521 190.078499 
L 376.209334 192.037216 
L 376.441396 192.587483 
L 376.673458 192.748487 
L 377.369643 190.611594 
L 377.833767 187.70982 
L 378.762014 181.119608 
L 379.690262 175.119505 
L 380.154386 173.689565 
L 380.386447 173.365001 
L 380.618509 173.773432 
L 380.850571 173.477779 
L 381.314695 175.215609 
L 382.475004 182.852552 
L 383.17119 188.305772 
L 383.867375 191.725067 
L 384.331499 193.061397 
L 384.563561 192.487709 
L 384.795623 192.511466 
L 385.72387 187.876495 
L 387.348303 176.548739 
L 387.580365 175.839591 
L 387.812427 174.627267 
L 388.044489 174.029955 
L 388.276551 174.178795 
L 388.508613 174.105469 
L 388.740675 174.281847 
L 388.972736 175.130881 
L 389.204798 175.529912 
L 390.133046 181.501231 
L 391.293355 189.411233 
L 391.757479 191.03202 
L 391.989541 191.619498 
L 392.221602 191.728102 
L 392.685726 191.048667 
L 392.917788 190.429966 
L 395.238407 175.60681 
L 395.934592 173.377203 
L 396.166654 173.182477 
L 396.398716 173.302862 
L 397.094902 174.971096 
L 398.487273 183.683032 
L 398.487273 183.683032 
" style="fill:none;stroke:#ff7f0e;stroke-linecap:square;stroke-width:1.5;"/>
   </g>
   <g id="patch_3">
    <path d="M 57.6 307.584 
L 57.6 41.472 
" style="fill:none;stroke:#000000;stroke-linecap:square;stroke-linejoin:miter;stroke-width:0.8;"/>
   </g>
   <g id="patch_4">
    <path d="M 414.72 307.584 
L 414.72 41.472 
" style="fill:none;stroke:#000000;stroke-linecap:square;stroke-linejoin:miter;stroke-width:0.8;"/>
   </g>
   <g id="patch_5">
    <path d="M 57.6 307.584 
L 414.72 307.584 
" style="fill:none;stroke:#000000;stroke-linecap:square;stroke-linejoin:miter;stroke-width:0.8;"/>
   </g>
   <g id="patch_6">
    <path d="M 57.6 41.472 
L 414.72 41.472 
" style="fill:none;stroke:#000000;stroke-linecap:square;stroke-linejoin:miter;stroke-width:0.8;"/>
   </g>
  </g>
 </g>
 <defs>
  <clipPath id="p0b0d7a1592">
   <rect height="266.112" width="357.12" x="57.6" y="41.472"/>
  </clipPath>
 </defs>
</svg>
