<?xml version="1.0" encoding="utf-8" standalone="no"?>
<!DOCTYPE svg PUBLIC "-//W3C//DTD SVG 1.1//EN"
  "http://www.w3.org/Graphics/SVG/1.1/DTD/svg11.dtd">
<!-- Created with matplotlib (https://matplotlib.org/) -->
<svg height="345.6pt" version="1.1" viewBox="0 0 460.8 345.6" width="460.8pt" xmlns="http://www.w3.org/2000/svg" xmlns:xlink="http://www.w3.org/1999/xlink">
 <defs>
  <style type="text/css">
*{stroke-linecap:butt;stroke-linejoin:round;}
  </style>
 </defs>
 <g id="figure_1">
  <g id="patch_1">
   <path d="M 0 345.6 
L 460.8 345.6 
L 460.8 0 
L 0 0 
z
" style="fill:#ffffff;"/>
  </g>
  <g id="axes_1">
   <g id="patch_2">
    <path d="M 57.6 307.584 
L 414.72 307.584 
L 414.72 41.472 
L 57.6 41.472 
z
" style="fill:#ffffff;"/>
   </g>
   <g id="matplotlib.axis_1">
    <g id="xtick_1">
     <g id="line2d_1">
      <defs>
       <path d="M 0 0 
L 0 3.5 
" id="m7157926ec4" style="stroke:#000000;stroke-width:0.8;"/>
      </defs>
      <g>
       <use style="stroke:#000000;stroke-width:0.8;" x="73.832727" xlink:href="#m7157926ec4" y="307.584"/>
      </g>
     </g>
     <g id="text_1">
      <!-- 0 -->
      <defs>
       <path d="M 31.78125 66.40625 
Q 24.171875 66.40625 20.328125 58.90625 
Q 16.5 51.421875 16.5 36.375 
Q 16.5 21.390625 20.328125 13.890625 
Q 24.171875 6.390625 31.78125 6.390625 
Q 39.453125 6.390625 43.28125 13.890625 
Q 47.125 21.390625 47.125 36.375 
Q 47.125 51.421875 43.28125 58.90625 
Q 39.453125 66.40625 31.78125 66.40625 
z
M 31.78125 74.21875 
Q 44.046875 74.21875 50.515625 64.515625 
Q 56.984375 54.828125 56.984375 36.375 
Q 56.984375 17.96875 50.515625 8.265625 
Q 44.046875 -1.421875 31.78125 -1.421875 
Q 19.53125 -1.421875 13.0625 8.265625 
Q 6.59375 17.96875 6.59375 36.375 
Q 6.59375 54.828125 13.0625 64.515625 
Q 19.53125 74.21875 31.78125 74.21875 
z
" id="DejaVuSans-48"/>
      </defs>
      <g transform="translate(70.651477 322.182437)scale(0.1 -0.1)">
       <use xlink:href="#DejaVuSans-48"/>
      </g>
     </g>
    </g>
    <g id="xtick_2">
     <g id="line2d_2">
      <g>
       <use style="stroke:#000000;stroke-width:0.8;" x="120.2451" xlink:href="#m7157926ec4" y="307.584"/>
      </g>
     </g>
     <g id="text_2">
      <!-- 200 -->
      <defs>
       <path d="M 19.1875 8.296875 
L 53.609375 8.296875 
L 53.609375 0 
L 7.328125 0 
L 7.328125 8.296875 
Q 12.9375 14.109375 22.625 23.890625 
Q 32.328125 33.6875 34.8125 36.53125 
Q 39.546875 41.84375 41.421875 45.53125 
Q 43.3125 49.21875 43.3125 52.78125 
Q 43.3125 58.59375 39.234375 62.25 
Q 35.15625 65.921875 28.609375 65.921875 
Q 23.96875 65.921875 18.8125 64.3125 
Q 13.671875 62.703125 7.8125 59.421875 
L 7.8125 69.390625 
Q 13.765625 71.78125 18.9375 73 
Q 24.125 74.21875 28.421875 74.21875 
Q 39.75 74.21875 46.484375 68.546875 
Q 53.21875 62.890625 53.21875 53.421875 
Q 53.21875 48.921875 51.53125 44.890625 
Q 49.859375 40.875 45.40625 35.40625 
Q 44.1875 33.984375 37.640625 27.21875 
Q 31.109375 20.453125 19.1875 8.296875 
z
" id="DejaVuSans-50"/>
      </defs>
      <g transform="translate(110.70135 322.182437)scale(0.1 -0.1)">
       <use xlink:href="#DejaVuSans-50"/>
       <use x="63.623047" xlink:href="#DejaVuSans-48"/>
       <use x="127.246094" xlink:href="#DejaVuSans-48"/>
      </g>
     </g>
    </g>
    <g id="xtick_3">
     <g id="line2d_3">
      <g>
       <use style="stroke:#000000;stroke-width:0.8;" x="166.657472" xlink:href="#m7157926ec4" y="307.584"/>
      </g>
     </g>
     <g id="text_3">
      <!-- 400 -->
      <defs>
       <path d="M 37.796875 64.3125 
L 12.890625 25.390625 
L 37.796875 25.390625 
z
M 35.203125 72.90625 
L 47.609375 72.90625 
L 47.609375 25.390625 
L 58.015625 25.390625 
L 58.015625 17.1875 
L 47.609375 17.1875 
L 47.609375 0 
L 37.796875 0 
L 37.796875 17.1875 
L 4.890625 17.1875 
L 4.890625 26.703125 
z
" id="DejaVuSans-52"/>
      </defs>
      <g transform="translate(157.113722 322.182437)scale(0.1 -0.1)">
       <use xlink:href="#DejaVuSans-52"/>
       <use x="63.623047" xlink:href="#DejaVuSans-48"/>
       <use x="127.246094" xlink:href="#DejaVuSans-48"/>
      </g>
     </g>
    </g>
    <g id="xtick_4">
     <g id="line2d_4">
      <g>
       <use style="stroke:#000000;stroke-width:0.8;" x="213.069845" xlink:href="#m7157926ec4" y="307.584"/>
      </g>
     </g>
     <g id="text_4">
      <!-- 600 -->
      <defs>
       <path d="M 33.015625 40.375 
Q 26.375 40.375 22.484375 35.828125 
Q 18.609375 31.296875 18.609375 23.390625 
Q 18.609375 15.53125 22.484375 10.953125 
Q 26.375 6.390625 33.015625 6.390625 
Q 39.65625 6.390625 43.53125 10.953125 
Q 47.40625 15.53125 47.40625 23.390625 
Q 47.40625 31.296875 43.53125 35.828125 
Q 39.65625 40.375 33.015625 40.375 
z
M 52.59375 71.296875 
L 52.59375 62.3125 
Q 48.875 64.0625 45.09375 64.984375 
Q 41.3125 65.921875 37.59375 65.921875 
Q 27.828125 65.921875 22.671875 59.328125 
Q 17.53125 52.734375 16.796875 39.40625 
Q 19.671875 43.65625 24.015625 45.921875 
Q 28.375 48.1875 33.59375 48.1875 
Q 44.578125 48.1875 50.953125 41.515625 
Q 57.328125 34.859375 57.328125 23.390625 
Q 57.328125 12.15625 50.6875 5.359375 
Q 44.046875 -1.421875 33.015625 -1.421875 
Q 20.359375 -1.421875 13.671875 8.265625 
Q 6.984375 17.96875 6.984375 36.375 
Q 6.984375 53.65625 15.1875 63.9375 
Q 23.390625 74.21875 37.203125 74.21875 
Q 40.921875 74.21875 44.703125 73.484375 
Q 48.484375 72.75 52.59375 71.296875 
z
" id="DejaVuSans-54"/>
      </defs>
      <g transform="translate(203.526095 322.182437)scale(0.1 -0.1)">
       <use xlink:href="#DejaVuSans-54"/>
       <use x="63.623047" xlink:href="#DejaVuSans-48"/>
       <use x="127.246094" xlink:href="#DejaVuSans-48"/>
      </g>
     </g>
    </g>
    <g id="xtick_5">
     <g id="line2d_5">
      <g>
       <use style="stroke:#000000;stroke-width:0.8;" x="259.482217" xlink:href="#m7157926ec4" y="307.584"/>
      </g>
     </g>
     <g id="text_5">
      <!-- 800 -->
      <defs>
       <path d="M 31.78125 34.625 
Q 24.75 34.625 20.71875 30.859375 
Q 16.703125 27.09375 16.703125 20.515625 
Q 16.703125 13.921875 20.71875 10.15625 
Q 24.75 6.390625 31.78125 6.390625 
Q 38.8125 6.390625 42.859375 10.171875 
Q 46.921875 13.96875 46.921875 20.515625 
Q 46.921875 27.09375 42.890625 30.859375 
Q 38.875 34.625 31.78125 34.625 
z
M 21.921875 38.8125 
Q 15.578125 40.375 12.03125 44.71875 
Q 8.5 49.078125 8.5 55.328125 
Q 8.5 64.0625 14.71875 69.140625 
Q 20.953125 74.21875 31.78125 74.21875 
Q 42.671875 74.21875 48.875 69.140625 
Q 55.078125 64.0625 55.078125 55.328125 
Q 55.078125 49.078125 51.53125 44.71875 
Q 48 40.375 41.703125 38.8125 
Q 48.828125 37.15625 52.796875 32.3125 
Q 56.78125 27.484375 56.78125 20.515625 
Q 56.78125 9.90625 50.3125 4.234375 
Q 43.84375 -1.421875 31.78125 -1.421875 
Q 19.734375 -1.421875 13.25 4.234375 
Q 6.78125 9.90625 6.78125 20.515625 
Q 6.78125 27.484375 10.78125 32.3125 
Q 14.796875 37.15625 21.921875 38.8125 
z
M 18.3125 54.390625 
Q 18.3125 48.734375 21.84375 45.5625 
Q 25.390625 42.390625 31.78125 42.390625 
Q 38.140625 42.390625 41.71875 45.5625 
Q 45.3125 48.734375 45.3125 54.390625 
Q 45.3125 60.0625 41.71875 63.234375 
Q 38.140625 66.40625 31.78125 66.40625 
Q 25.390625 66.40625 21.84375 63.234375 
Q 18.3125 60.0625 18.3125 54.390625 
z
" id="DejaVuSans-56"/>
      </defs>
      <g transform="translate(249.938467 322.182437)scale(0.1 -0.1)">
       <use xlink:href="#DejaVuSans-56"/>
       <use x="63.623047" xlink:href="#DejaVuSans-48"/>
       <use x="127.246094" xlink:href="#DejaVuSans-48"/>
      </g>
     </g>
    </g>
    <g id="xtick_6">
     <g id="line2d_6">
      <g>
       <use style="stroke:#000000;stroke-width:0.8;" x="305.89459" xlink:href="#m7157926ec4" y="307.584"/>
      </g>
     </g>
     <g id="text_6">
      <!-- 1000 -->
      <defs>
       <path d="M 12.40625 8.296875 
L 28.515625 8.296875 
L 28.515625 63.921875 
L 10.984375 60.40625 
L 10.984375 69.390625 
L 28.421875 72.90625 
L 38.28125 72.90625 
L 38.28125 8.296875 
L 54.390625 8.296875 
L 54.390625 0 
L 12.40625 0 
z
" id="DejaVuSans-49"/>
      </defs>
      <g transform="translate(293.16959 322.182437)scale(0.1 -0.1)">
       <use xlink:href="#DejaVuSans-49"/>
       <use x="63.623047" xlink:href="#DejaVuSans-48"/>
       <use x="127.246094" xlink:href="#DejaVuSans-48"/>
       <use x="190.869141" xlink:href="#DejaVuSans-48"/>
      </g>
     </g>
    </g>
    <g id="xtick_7">
     <g id="line2d_7">
      <g>
       <use style="stroke:#000000;stroke-width:0.8;" x="352.306962" xlink:href="#m7157926ec4" y="307.584"/>
      </g>
     </g>
     <g id="text_7">
      <!-- 1200 -->
      <g transform="translate(339.581962 322.182437)scale(0.1 -0.1)">
       <use xlink:href="#DejaVuSans-49"/>
       <use x="63.623047" xlink:href="#DejaVuSans-50"/>
       <use x="127.246094" xlink:href="#DejaVuSans-48"/>
       <use x="190.869141" xlink:href="#DejaVuSans-48"/>
      </g>
     </g>
    </g>
    <g id="xtick_8">
     <g id="line2d_8">
      <g>
       <use style="stroke:#000000;stroke-width:0.8;" x="398.719335" xlink:href="#m7157926ec4" y="307.584"/>
      </g>
     </g>
     <g id="text_8">
      <!-- 1400 -->
      <g transform="translate(385.994335 322.182437)scale(0.1 -0.1)">
       <use xlink:href="#DejaVuSans-49"/>
       <use x="63.623047" xlink:href="#DejaVuSans-52"/>
       <use x="127.246094" xlink:href="#DejaVuSans-48"/>
       <use x="190.869141" xlink:href="#DejaVuSans-48"/>
      </g>
     </g>
    </g>
   </g>
   <g id="matplotlib.axis_2">
    <g id="ytick_1">
     <g id="line2d_9">
      <defs>
       <path d="M 0 0 
L -3.5 0 
" id="m86f57e7f05" style="stroke:#000000;stroke-width:0.8;"/>
      </defs>
      <g>
       <use style="stroke:#000000;stroke-width:0.8;" x="57.6" xlink:href="#m86f57e7f05" y="296.144121"/>
      </g>
     </g>
     <g id="text_9">
      <!-- 0.000 -->
      <defs>
       <path d="M 10.6875 12.40625 
L 21 12.40625 
L 21 0 
L 10.6875 0 
z
" id="DejaVuSans-46"/>
      </defs>
      <g transform="translate(21.971875 299.94334)scale(0.1 -0.1)">
       <use xlink:href="#DejaVuSans-48"/>
       <use x="63.623047" xlink:href="#DejaVuSans-46"/>
       <use x="95.410156" xlink:href="#DejaVuSans-48"/>
       <use x="159.033203" xlink:href="#DejaVuSans-48"/>
       <use x="222.65625" xlink:href="#DejaVuSans-48"/>
      </g>
     </g>
    </g>
    <g id="ytick_2">
     <g id="line2d_10">
      <g>
       <use style="stroke:#000000;stroke-width:0.8;" x="57.6" xlink:href="#m86f57e7f05" y="260.232836"/>
      </g>
     </g>
     <g id="text_10">
      <!-- 0.005 -->
      <defs>
       <path d="M 10.796875 72.90625 
L 49.515625 72.90625 
L 49.515625 64.59375 
L 19.828125 64.59375 
L 19.828125 46.734375 
Q 21.96875 47.46875 24.109375 47.828125 
Q 26.265625 48.1875 28.421875 48.1875 
Q 40.625 48.1875 47.75 41.5 
Q 54.890625 34.8125 54.890625 23.390625 
Q 54.890625 11.625 47.5625 5.09375 
Q 40.234375 -1.421875 26.90625 -1.421875 
Q 22.3125 -1.421875 17.546875 -0.640625 
Q 12.796875 0.140625 7.71875 1.703125 
L 7.71875 11.625 
Q 12.109375 9.234375 16.796875 8.0625 
Q 21.484375 6.890625 26.703125 6.890625 
Q 35.15625 6.890625 40.078125 11.328125 
Q 45.015625 15.765625 45.015625 23.390625 
Q 45.015625 31 40.078125 35.4375 
Q 35.15625 39.890625 26.703125 39.890625 
Q 22.75 39.890625 18.8125 39.015625 
Q 14.890625 38.140625 10.796875 36.28125 
z
" id="DejaVuSans-53"/>
      </defs>
      <g transform="translate(21.971875 264.032055)scale(0.1 -0.1)">
       <use xlink:href="#DejaVuSans-48"/>
       <use x="63.623047" xlink:href="#DejaVuSans-46"/>
       <use x="95.410156" xlink:href="#DejaVuSans-48"/>
       <use x="159.033203" xlink:href="#DejaVuSans-48"/>
       <use x="222.65625" xlink:href="#DejaVuSans-53"/>
      </g>
     </g>
    </g>
    <g id="ytick_3">
     <g id="line2d_11">
      <g>
       <use style="stroke:#000000;stroke-width:0.8;" x="57.6" xlink:href="#m86f57e7f05" y="224.321551"/>
      </g>
     </g>
     <g id="text_11">
      <!-- 0.010 -->
      <g transform="translate(21.971875 228.12077)scale(0.1 -0.1)">
       <use xlink:href="#DejaVuSans-48"/>
       <use x="63.623047" xlink:href="#DejaVuSans-46"/>
       <use x="95.410156" xlink:href="#DejaVuSans-48"/>
       <use x="159.033203" xlink:href="#DejaVuSans-49"/>
       <use x="222.65625" xlink:href="#DejaVuSans-48"/>
      </g>
     </g>
    </g>
    <g id="ytick_4">
     <g id="line2d_12">
      <g>
       <use style="stroke:#000000;stroke-width:0.8;" x="57.6" xlink:href="#m86f57e7f05" y="188.410267"/>
      </g>
     </g>
     <g id="text_12">
      <!-- 0.015 -->
      <g transform="translate(21.971875 192.209485)scale(0.1 -0.1)">
       <use xlink:href="#DejaVuSans-48"/>
       <use x="63.623047" xlink:href="#DejaVuSans-46"/>
       <use x="95.410156" xlink:href="#DejaVuSans-48"/>
       <use x="159.033203" xlink:href="#DejaVuSans-49"/>
       <use x="222.65625" xlink:href="#DejaVuSans-53"/>
      </g>
     </g>
    </g>
    <g id="ytick_5">
     <g id="line2d_13">
      <g>
       <use style="stroke:#000000;stroke-width:0.8;" x="57.6" xlink:href="#m86f57e7f05" y="152.498982"/>
      </g>
     </g>
     <g id="text_13">
      <!-- 0.020 -->
      <g transform="translate(21.971875 156.298201)scale(0.1 -0.1)">
       <use xlink:href="#DejaVuSans-48"/>
       <use x="63.623047" xlink:href="#DejaVuSans-46"/>
       <use x="95.410156" xlink:href="#DejaVuSans-48"/>
       <use x="159.033203" xlink:href="#DejaVuSans-50"/>
       <use x="222.65625" xlink:href="#DejaVuSans-48"/>
      </g>
     </g>
    </g>
    <g id="ytick_6">
     <g id="line2d_14">
      <g>
       <use style="stroke:#000000;stroke-width:0.8;" x="57.6" xlink:href="#m86f57e7f05" y="116.587697"/>
      </g>
     </g>
     <g id="text_14">
      <!-- 0.025 -->
      <g transform="translate(21.971875 120.386916)scale(0.1 -0.1)">
       <use xlink:href="#DejaVuSans-48"/>
       <use x="63.623047" xlink:href="#DejaVuSans-46"/>
       <use x="95.410156" xlink:href="#DejaVuSans-48"/>
       <use x="159.033203" xlink:href="#DejaVuSans-50"/>
       <use x="222.65625" xlink:href="#DejaVuSans-53"/>
      </g>
     </g>
    </g>
    <g id="ytick_7">
     <g id="line2d_15">
      <g>
       <use style="stroke:#000000;stroke-width:0.8;" x="57.6" xlink:href="#m86f57e7f05" y="80.676412"/>
      </g>
     </g>
     <g id="text_15">
      <!-- 0.030 -->
      <defs>
       <path d="M 40.578125 39.3125 
Q 47.65625 37.796875 51.625 33 
Q 55.609375 28.21875 55.609375 21.1875 
Q 55.609375 10.40625 48.1875 4.484375 
Q 40.765625 -1.421875 27.09375 -1.421875 
Q 22.515625 -1.421875 17.65625 -0.515625 
Q 12.796875 0.390625 7.625 2.203125 
L 7.625 11.71875 
Q 11.71875 9.328125 16.59375 8.109375 
Q 21.484375 6.890625 26.8125 6.890625 
Q 36.078125 6.890625 40.9375 10.546875 
Q 45.796875 14.203125 45.796875 21.1875 
Q 45.796875 27.640625 41.28125 31.265625 
Q 36.765625 34.90625 28.71875 34.90625 
L 20.21875 34.90625 
L 20.21875 43.015625 
L 29.109375 43.015625 
Q 36.375 43.015625 40.234375 45.921875 
Q 44.09375 48.828125 44.09375 54.296875 
Q 44.09375 59.90625 40.109375 62.90625 
Q 36.140625 65.921875 28.71875 65.921875 
Q 24.65625 65.921875 20.015625 65.03125 
Q 15.375 64.15625 9.8125 62.3125 
L 9.8125 71.09375 
Q 15.4375 72.65625 20.34375 73.4375 
Q 25.25 74.21875 29.59375 74.21875 
Q 40.828125 74.21875 47.359375 69.109375 
Q 53.90625 64.015625 53.90625 55.328125 
Q 53.90625 49.265625 50.4375 45.09375 
Q 46.96875 40.921875 40.578125 39.3125 
z
" id="DejaVuSans-51"/>
      </defs>
      <g transform="translate(21.971875 84.475631)scale(0.1 -0.1)">
       <use xlink:href="#DejaVuSans-48"/>
       <use x="63.623047" xlink:href="#DejaVuSans-46"/>
       <use x="95.410156" xlink:href="#DejaVuSans-48"/>
       <use x="159.033203" xlink:href="#DejaVuSans-51"/>
       <use x="222.65625" xlink:href="#DejaVuSans-48"/>
      </g>
     </g>
    </g>
    <g id="ytick_8">
     <g id="line2d_16">
      <g>
       <use style="stroke:#000000;stroke-width:0.8;" x="57.6" xlink:href="#m86f57e7f05" y="44.765128"/>
      </g>
     </g>
     <g id="text_16">
      <!-- 0.035 -->
      <g transform="translate(21.971875 48.564346)scale(0.1 -0.1)">
       <use xlink:href="#DejaVuSans-48"/>
       <use x="63.623047" xlink:href="#DejaVuSans-46"/>
       <use x="95.410156" xlink:href="#DejaVuSans-48"/>
       <use x="159.033203" xlink:href="#DejaVuSans-51"/>
       <use x="222.65625" xlink:href="#DejaVuSans-53"/>
      </g>
     </g>
    </g>
   </g>
   <g id="line2d_17">
    <path clip-path="url(#pd74a4ebb61)" d="M 73.832727 293.221734 
L 74.064789 291.237656 
L 74.296851 291.449756 
L 74.528913 291.05499 
L 74.760975 290.951014 
L 75.225098 291.447123 
L 75.921284 290.979133 
L 76.153346 290.549957 
L 76.385408 291.24246 
L 76.61747 292.792864 
L 76.849531 293.562793 
L 77.081593 293.125828 
L 77.313655 293.467244 
L 77.545717 294.568323 
L 78.009841 294.390638 
L 78.473965 292.921298 
L 78.706026 294.116401 
L 78.938088 294.311804 
L 79.17015 293.854154 
L 79.402212 294.02981 
L 79.634274 294.39562 
L 79.866336 294.512726 
L 80.330459 293.263119 
L 80.794583 294.90949 
L 81.026645 294.594981 
L 81.258707 294.484945 
L 81.490769 295.146628 
L 81.954892 294.190443 
L 82.186954 294.896477 
L 82.419016 294.410073 
L 82.651078 294.681734 
L 82.88314 294.554238 
L 83.115202 294.624772 
L 83.579325 294.943627 
L 83.811387 294.787763 
L 84.043449 295.296533 
L 84.275511 294.960128 
L 84.507573 294.852882 
L 84.739635 295.179152 
L 84.971697 294.513274 
L 85.203759 294.65157 
L 85.43582 293.297324 
L 85.667882 294.644638 
L 85.899944 294.998496 
L 86.364068 294.078725 
L 86.59613 294.936627 
L 87.060253 293.892959 
L 87.292315 293.749432 
L 87.524377 294.187586 
L 87.756439 294.139979 
L 87.988501 295.034013 
L 88.220563 293.910443 
L 88.452625 294.908319 
L 88.916748 295.050452 
L 89.14881 292.933937 
L 89.380872 292.524279 
L 89.612934 292.777146 
L 89.844996 293.557094 
L 90.077058 293.262092 
L 90.30912 294.092035 
L 90.541181 294.044075 
L 90.773243 294.266598 
L 91.005305 293.9441 
L 91.469429 292.740541 
L 91.701491 292.238772 
L 91.933553 292.330294 
L 92.397676 294.26048 
L 92.629738 291.735966 
L 92.8618 293.010029 
L 93.093862 292.265902 
L 93.325924 293.605278 
L 93.557986 294.218601 
L 93.790047 292.081021 
L 94.718295 293.808517 
L 94.950357 292.168359 
L 95.182419 294.586682 
L 95.646542 294.398712 
L 95.878604 293.770102 
L 96.110666 294.153794 
L 96.342728 295.16843 
L 96.57479 294.681677 
L 96.806852 293.81335 
L 97.038914 294.143959 
L 97.270975 293.339303 
L 97.735099 294.785248 
L 97.967161 293.950339 
L 98.199223 293.896939 
L 98.431285 294.229319 
L 98.663347 293.975153 
L 98.895408 293.554387 
L 99.12747 294.432605 
L 99.359532 293.78902 
L 99.591594 294.558753 
L 99.823656 293.984267 
L 100.055718 294.75173 
L 100.519841 294.169403 
L 100.751903 294.024342 
L 100.983965 292.980841 
L 101.216027 294.014309 
L 101.448089 294.155241 
L 101.912213 294.730868 
L 102.144274 293.969669 
L 102.84046 293.638504 
L 103.072522 294.79391 
L 103.304584 295.273245 
L 103.536646 293.668296 
L 103.768708 294.624805 
L 104.000769 294.841896 
L 104.464893 294.541279 
L 104.696955 295.488 
L 104.929017 293.982376 
L 105.161079 294.831043 
L 105.393141 294.73969 
L 105.857264 294.929061 
L 106.089326 294.535091 
L 106.321388 294.987108 
L 106.55345 294.438299 
L 106.785512 294.610233 
L 107.017574 294.638195 
L 107.249635 293.658228 
L 107.481697 294.109847 
L 107.713759 293.413852 
L 107.945821 294.334507 
L 108.177883 293.179953 
L 108.409945 293.830182 
L 108.874068 294.409295 
L 109.10613 294.097737 
L 109.338192 294.654909 
L 109.802316 293.582185 
L 110.26644 294.725393 
L 110.498502 294.443648 
L 110.962625 294.732327 
L 111.194687 295.296493 
L 111.658811 295.135205 
L 111.890873 295.159503 
L 112.122935 294.071785 
L 112.354996 294.008481 
L 112.587058 293.230867 
L 112.81912 294.161135 
L 113.051182 293.427411 
L 113.283244 294.462757 
L 113.515306 294.193644 
L 113.747368 293.203881 
L 113.979429 294.253108 
L 114.211491 293.506674 
L 114.443553 293.751933 
L 114.675615 293.021216 
L 114.907677 293.501368 
L 115.139739 293.038279 
L 115.371801 294.150619 
L 115.835924 294.380955 
L 116.067986 294.203642 
L 116.53211 294.276072 
L 116.764172 294.88495 
L 116.996234 294.303217 
L 117.228296 294.293152 
L 117.460357 294.435935 
L 117.692419 294.441473 
L 117.924481 294.845759 
L 118.156543 294.149986 
L 118.388605 294.310223 
L 118.620667 294.078203 
L 118.852729 295.093531 
L 119.08479 294.333188 
L 119.316852 294.472076 
L 119.548914 294.015949 
L 119.780976 294.582711 
L 120.2451 294.896877 
L 120.477162 294.04269 
L 120.709223 294.920746 
L 120.941285 294.038978 
L 121.173347 294.449264 
L 121.405409 293.231338 
L 121.637471 293.364665 
L 121.869533 293.811108 
L 122.101595 292.799521 
L 122.333657 293.38702 
L 122.565718 294.374476 
L 122.79778 294.614829 
L 123.493966 291.78198 
L 123.726028 294.309573 
L 123.95809 294.513522 
L 124.190151 294.46026 
L 124.422213 294.25304 
L 124.886337 295.018978 
L 125.118399 294.394621 
L 125.350461 294.927832 
L 125.582523 295.127655 
L 125.814584 294.992692 
L 126.046646 294.551421 
L 126.278708 294.868171 
L 126.51077 294.937844 
L 126.742832 293.535267 
L 127.206956 294.884938 
L 127.439017 295.090507 
L 127.903141 294.949403 
L 128.135203 294.509869 
L 128.367265 294.59613 
L 128.599327 294.22653 
L 128.831389 294.712469 
L 129.063451 294.921783 
L 129.295512 294.172798 
L 129.527574 294.132263 
L 129.759636 294.462622 
L 129.991698 293.978194 
L 130.22376 294.402058 
L 130.455822 294.10131 
L 130.687884 294.325515 
L 131.152007 294.073596 
L 131.384069 294.514959 
L 131.616131 294.3215 
L 131.848193 293.905179 
L 132.080255 294.501357 
L 132.544378 293.669878 
L 132.77644 293.639344 
L 133.472626 294.028038 
L 133.704688 293.60008 
L 133.93675 293.924591 
L 134.168811 293.959818 
L 134.400873 293.812591 
L 134.632935 294.372252 
L 134.864997 294.110764 
L 135.097059 294.640008 
L 135.329121 293.739635 
L 135.561183 294.326979 
L 135.793245 294.244983 
L 136.025306 294.500605 
L 136.257368 294.020696 
L 136.48943 294.399245 
L 136.721492 294.350223 
L 137.185616 293.814571 
L 137.417678 293.69757 
L 137.649739 294.028084 
L 137.881801 294.951709 
L 138.345925 294.687092 
L 138.577987 293.570114 
L 138.810049 294.523079 
L 139.042111 294.908699 
L 139.274172 294.397851 
L 139.506234 294.23523 
L 139.738296 294.485984 
L 140.20242 293.915419 
L 140.434482 294.270539 
L 140.666544 294.05171 
L 141.130667 294.930007 
L 141.362729 294.73273 
L 141.594791 294.320779 
L 142.058915 294.521031 
L 142.290977 294.970676 
L 142.523039 293.761087 
L 142.7551 294.56639 
L 143.219224 294.206499 
L 143.451286 294.564796 
L 143.91541 294.553442 
L 144.379533 294.589814 
L 144.611595 294.360094 
L 144.843657 294.668335 
L 145.075719 294.76028 
L 145.307781 295.020501 
L 145.771905 294.500982 
L 146.003966 294.506976 
L 146.236028 294.726859 
L 146.700152 294.601326 
L 146.932214 294.721264 
L 147.164276 295.012339 
L 147.396338 294.636005 
L 147.6284 294.886912 
L 147.860461 294.664759 
L 148.324585 294.655606 
L 148.556647 295.054099 
L 149.020771 294.398943 
L 149.252833 294.680434 
L 149.484894 294.762874 
L 149.716956 294.521747 
L 149.949018 294.730622 
L 150.413142 294.883524 
L 150.645204 294.409678 
L 150.877266 294.766036 
L 151.341389 294.57679 
L 151.573451 294.533875 
L 151.805513 294.67513 
L 152.269637 294.56536 
L 152.501699 294.65185 
L 152.73376 294.8906 
L 152.965822 294.579999 
L 153.197884 293.736392 
L 153.429946 294.600892 
L 153.662008 294.38255 
L 153.89407 294.577639 
L 154.358194 294.419025 
L 154.822317 294.329367 
L 155.054379 294.280919 
L 155.286441 294.744069 
L 155.750565 294.054653 
L 155.982627 294.596952 
L 156.214688 294.566081 
L 156.44675 294.042466 
L 156.678812 294.248736 
L 156.910874 294.6851 
L 157.142936 293.97582 
L 157.839121 294.490247 
L 158.071183 294.280456 
L 158.535307 294.589437 
L 158.767369 294.390362 
L 158.999431 294.724256 
L 159.231493 294.267537 
L 159.927678 294.372251 
L 160.15974 294.741683 
L 160.855926 294.718633 
L 161.087988 294.148682 
L 161.320049 294.796971 
L 161.552111 294.687845 
L 161.784173 294.243944 
L 162.016235 294.189384 
L 162.248297 293.834998 
L 162.712421 294.892319 
L 162.944482 294.339766 
L 163.176544 294.417536 
L 163.408606 293.970493 
L 163.640668 294.640538 
L 163.87273 294.264566 
L 164.104792 294.696958 
L 164.336854 293.986088 
L 164.568915 294.639396 
L 165.265101 294.233036 
L 165.497163 294.689269 
L 165.729225 294.165451 
L 166.42541 294.560978 
L 166.657472 294.232748 
L 166.889534 294.785117 
L 167.58572 294.051124 
L 167.817782 294.478632 
L 168.049843 294.533704 
L 168.281905 294.28467 
L 168.978091 294.106851 
L 169.210153 294.821548 
L 169.442215 294.69457 
L 169.674276 294.244248 
L 169.906338 294.289285 
L 170.1384 294.751402 
L 170.370462 294.496344 
L 170.602524 294.03991 
L 170.834586 294.005728 
L 171.066648 294.502701 
L 171.298709 294.648201 
L 171.530771 294.10941 
L 171.994895 294.017684 
L 172.226957 294.727619 
L 172.459019 294.032831 
L 172.923143 294.24462 
L 173.155204 293.71145 
L 173.387266 294.208716 
L 173.619328 294.005572 
L 173.85139 294.439978 
L 174.083452 294.092361 
L 174.315514 293.167945 
L 174.547576 293.579395 
L 174.779637 293.180478 
L 175.011699 293.236815 
L 175.243761 293.588436 
L 175.475823 293.135179 
L 175.707885 293.839716 
L 175.939947 293.954534 
L 176.40407 293.59249 
L 176.636132 293.667913 
L 176.868194 293.911147 
L 177.100256 293.605095 
L 177.332318 293.840104 
L 177.796442 293.474933 
L 178.028503 293.375899 
L 178.260565 294.283312 
L 178.492627 293.877895 
L 178.724689 293.696696 
L 178.956751 292.969748 
L 179.188813 294.066026 
L 179.652937 293.817337 
L 179.884998 293.903018 
L 180.349122 293.87799 
L 180.581184 293.904472 
L 180.813246 293.053336 
L 181.045308 293.942406 
L 181.27737 294.054752 
L 181.509431 294.011094 
L 181.741493 294.120709 
L 181.973555 294.061608 
L 182.205617 294.475004 
L 182.437679 292.27442 
L 182.669741 294.487028 
L 182.901803 294.046523 
L 183.365926 294.186619 
L 183.597988 293.83787 
L 183.83005 294.044035 
L 184.526236 293.712737 
L 184.758297 294.318982 
L 184.990359 294.066843 
L 185.222421 293.636907 
L 185.686545 294.022164 
L 185.918607 293.590117 
L 186.382731 294.030575 
L 186.846854 293.807081 
L 187.078916 293.510215 
L 187.310978 293.64872 
L 188.007164 293.61981 
L 188.239225 293.490809 
L 188.703349 293.639383 
L 189.167473 293.522285 
L 189.399535 293.201479 
L 189.863658 293.622576 
L 190.09572 293.334059 
L 190.327782 291.867389 
L 190.559844 293.729633 
L 190.791906 293.617274 
L 191.023968 293.911086 
L 191.25603 293.638625 
L 191.488091 294.109582 
L 191.720153 294.11068 
L 191.952215 292.379151 
L 192.416339 294.205965 
L 192.648401 294.24168 
L 192.880463 294.549475 
L 193.112525 294.550725 
L 193.344586 293.6718 
L 193.576648 294.04316 
L 194.040772 294.107288 
L 194.272834 293.664031 
L 194.504896 294.375907 
L 194.736958 294.472874 
L 194.969019 293.684998 
L 195.201081 293.637017 
L 195.433143 294.012575 
L 195.665205 293.675574 
L 195.897267 293.095223 
L 196.129329 293.333238 
L 196.361391 293.30635 
L 196.593452 293.396028 
L 196.825514 293.253222 
L 197.057576 292.826791 
L 197.289638 293.339231 
L 197.5217 292.47792 
L 197.753762 293.115953 
L 197.985824 293.415255 
L 198.217886 293.476972 
L 198.449947 292.798956 
L 198.682009 293.632744 
L 198.914071 292.792519 
L 199.146133 293.243814 
L 199.378195 292.879522 
L 199.610257 293.168128 
L 199.842319 292.706365 
L 200.306442 293.324927 
L 200.538504 293.591126 
L 200.770566 292.494499 
L 201.002628 292.767812 
L 201.23469 293.375443 
L 201.466752 293.602672 
L 201.698813 292.442748 
L 201.930875 293.129376 
L 202.627061 293.040377 
L 203.323246 293.690995 
L 203.555308 293.67301 
L 204.019432 293.141022 
L 204.251494 293.289588 
L 204.483556 294.078224 
L 204.715618 293.864044 
L 204.94768 292.781603 
L 205.179741 293.123323 
L 205.411803 293.264387 
L 205.643865 293.554168 
L 205.875927 293.299243 
L 206.107989 292.786809 
L 206.340051 293.37245 
L 207.036236 293.283715 
L 207.50036 293.7007 
L 207.732422 293.757147 
L 208.196546 293.005606 
L 208.428607 293.503167 
L 208.660669 293.667238 
L 208.892731 294.282833 
L 209.124793 292.665183 
L 209.356855 293.862813 
L 209.588917 294.317882 
L 209.820979 293.167701 
L 210.05304 293.786166 
L 210.285102 293.56751 
L 210.517164 294.453272 
L 210.981288 293.197469 
L 211.21335 293.375322 
L 211.445412 293.94652 
L 211.677474 292.552746 
L 211.909535 292.823772 
L 212.141597 293.408017 
L 212.373659 292.292558 
L 212.605721 293.442511 
L 212.837783 292.75816 
L 213.069845 293.589852 
L 213.301907 293.744487 
L 213.533968 293.104808 
L 213.76603 293.936353 
L 213.998092 293.556313 
L 214.230154 293.471074 
L 214.462216 294.016268 
L 214.694278 294.051242 
L 214.92634 293.956846 
L 215.158401 294.215568 
L 215.390463 292.614661 
L 215.622525 293.564265 
L 215.854587 294.008013 
L 216.086649 293.499331 
L 216.318711 294.212078 
L 216.550773 291.90973 
L 216.782834 293.667014 
L 217.014896 293.732035 
L 217.246958 293.298326 
L 217.47902 293.661308 
L 217.711082 291.896789 
L 217.943144 293.89408 
L 218.175206 292.12423 
L 218.407268 293.811653 
L 218.639329 293.521409 
L 219.103453 293.45586 
L 219.335515 293.783312 
L 219.799639 293.481964 
L 220.263762 293.655831 
L 220.495824 294.012349 
L 220.727886 293.827057 
L 221.19201 293.946254 
L 221.424072 292.743509 
L 221.656134 293.66959 
L 222.352319 293.729073 
L 222.584381 293.527923 
L 223.048505 293.862257 
L 223.280567 293.795077 
L 223.512629 293.07637 
L 223.74469 293.986917 
L 223.976752 293.871222 
L 224.208814 292.750083 
L 224.672938 294.325354 
L 224.905 293.989403 
L 225.137062 293.887731 
L 225.369123 293.510899 
L 225.601185 293.737041 
L 225.833247 293.742801 
L 226.065309 293.368966 
L 226.297371 293.988285 
L 226.529433 293.776141 
L 226.761495 293.332022 
L 226.993556 293.515223 
L 227.225618 292.30582 
L 227.45768 293.597227 
L 227.921804 294.196088 
L 228.153866 294.319526 
L 228.385928 293.939134 
L 228.617989 293.820816 
L 228.850051 294.031347 
L 229.082113 293.956033 
L 229.314175 293.700886 
L 229.546237 294.042926 
L 229.778299 294.185105 
L 230.010361 293.681198 
L 230.242423 293.756431 
L 230.474484 293.127692 
L 230.706546 293.790992 
L 230.938608 292.636228 
L 231.17067 293.882946 
L 231.402732 293.96731 
L 231.634794 293.826279 
L 231.866856 291.903196 
L 232.098917 293.222856 
L 232.330979 293.406136 
L 232.563041 293.88097 
L 232.795103 293.942984 
L 233.027165 293.475045 
L 233.259227 293.459344 
L 233.491289 293.859118 
L 233.955412 293.986761 
L 234.419536 293.312664 
L 234.88366 293.80978 
L 235.115722 243.701799 
L 235.347783 293.681124 
L 235.579845 293.162744 
L 235.811907 293.291348 
L 236.043969 294.214287 
L 236.276031 293.679893 
L 236.508093 294.030648 
L 236.972217 293.314507 
L 237.204278 293.745758 
L 237.43634 291.991351 
L 237.668402 293.890863 
L 237.900464 293.784465 
L 238.132526 293.271085 
L 238.59665 294.077827 
L 238.828711 293.992736 
L 239.060773 293.513098 
L 239.756959 293.63141 
L 239.989021 293.492997 
L 240.221083 293.857615 
L 240.453144 293.824545 
L 240.685206 293.983856 
L 240.917268 293.433042 
L 241.14933 293.816598 
L 241.381392 293.90212 
L 241.613454 294.131887 
L 241.845516 294.108407 
L 242.077577 292.457848 
L 242.309639 293.918249 
L 242.541701 293.504923 
L 242.773763 293.802671 
L 243.237887 293.016246 
L 243.469949 293.837339 
L 243.702011 294.052897 
L 243.934072 293.969791 
L 244.166134 294.176882 
L 244.398196 294.007827 
L 244.630258 294.042304 
L 244.86232 293.639965 
L 245.094382 294.157053 
L 245.326444 293.786222 
L 245.790567 293.759255 
L 246.022629 292.337255 
L 246.254691 293.609246 
L 246.486753 294.089742 
L 246.718815 294.207461 
L 247.182938 293.581643 
L 247.647062 294.200353 
L 247.879124 293.874895 
L 248.343248 294.199466 
L 248.57531 293.99797 
L 248.807371 294.058813 
L 249.271495 293.632554 
L 249.503557 293.95865 
L 249.735619 293.912401 
L 249.967681 293.39891 
L 250.199743 293.878488 
L 250.431805 293.487595 
L 250.663866 293.760705 
L 251.360052 293.708283 
L 251.592114 294.103884 
L 251.824176 293.788172 
L 252.056238 292.561896 
L 252.288299 293.859992 
L 252.520361 292.115267 
L 252.752423 293.86652 
L 252.984485 294.03275 
L 253.216547 293.571489 
L 253.448609 293.9446 
L 253.912732 293.591198 
L 254.144794 293.269236 
L 254.376856 293.407399 
L 254.608918 293.70435 
L 255.305104 293.864622 
L 255.537166 292.368784 
L 255.769227 293.830285 
L 256.001289 293.298705 
L 256.465413 294.012188 
L 256.929537 293.941493 
L 257.161599 293.304048 
L 257.39366 294.09624 
L 257.625722 294.140909 
L 257.857784 293.783613 
L 258.089846 293.951111 
L 259.250155 294.012345 
L 259.482217 293.581477 
L 259.714279 293.97421 
L 259.946341 294.04894 
L 260.178403 293.008619 
L 260.410465 293.687246 
L 260.874588 293.914133 
L 261.10665 293.724872 
L 261.338712 293.800565 
L 261.570774 294.049671 
L 261.802836 292.908763 
L 262.034898 293.75709 
L 262.26696 292.679056 
L 262.499021 293.035342 
L 262.731083 294.018122 
L 262.963145 293.293975 
L 263.195207 293.18535 
L 263.427269 293.757919 
L 263.659331 293.9672 
L 263.891393 293.019444 
L 264.123454 293.663631 
L 264.355516 293.883357 
L 264.587578 293.299027 
L 265.051702 293.874878 
L 265.283764 293.035972 
L 265.747887 294.062524 
L 265.979949 293.563439 
L 266.212011 294.497226 
L 266.444073 293.796513 
L 266.676135 293.985388 
L 266.908197 293.621977 
L 267.140259 292.362282 
L 267.37232 292.128519 
L 267.604382 293.521171 
L 267.836444 293.961816 
L 268.068506 291.936584 
L 268.300568 293.65227 
L 268.53263 291.977004 
L 268.996754 293.491218 
L 269.228815 293.119376 
L 269.460877 293.479764 
L 269.692939 293.522361 
L 269.925001 293.338912 
L 270.157063 293.84808 
L 270.389125 293.896238 
L 270.621187 293.427151 
L 270.853248 293.652986 
L 271.08531 293.116337 
L 271.317372 294.114111 
L 271.549434 293.688584 
L 271.781496 294.16068 
L 272.013558 293.755778 
L 272.24562 293.758804 
L 272.477681 293.512932 
L 272.709743 293.740969 
L 272.941805 290.974995 
L 273.173867 293.246671 
L 273.405929 293.797096 
L 273.637991 293.308442 
L 273.870053 292.504122 
L 274.102114 293.471577 
L 274.334176 293.890875 
L 274.7983 293.142603 
L 275.030362 293.731017 
L 275.262424 291.503705 
L 275.494486 293.581488 
L 275.726548 293.322212 
L 275.958609 293.521265 
L 276.190671 293.515541 
L 276.422733 293.718132 
L 277.583042 293.271012 
L 277.815104 292.58237 
L 278.047166 293.657734 
L 278.51129 291.955867 
L 278.743352 293.687751 
L 278.975414 292.230528 
L 279.207475 294.137677 
L 279.439537 293.387253 
L 279.671599 293.753938 
L 279.903661 293.69811 
L 280.135723 293.372079 
L 280.367785 293.611276 
L 280.599847 294.13171 
L 280.831909 294.069932 
L 281.296032 293.37592 
L 281.760156 293.786534 
L 281.992218 293.543702 
L 282.22428 294.113362 
L 282.456342 293.424473 
L 282.688403 293.774641 
L 282.920465 293.830629 
L 283.384589 293.244215 
L 283.616651 292.269892 
L 284.080775 293.467533 
L 284.312836 293.544384 
L 284.544898 293.069301 
L 284.77696 292.197827 
L 285.009022 293.27384 
L 285.241084 293.436691 
L 285.473146 293.117101 
L 285.937269 293.771334 
L 286.169331 293.292343 
L 286.401393 293.79734 
L 286.633455 293.652661 
L 286.865517 291.545435 
L 287.097579 293.812825 
L 287.329641 292.989836 
L 287.561703 292.651566 
L 287.793764 293.754617 
L 288.025826 293.910646 
L 288.257888 293.121977 
L 288.48995 293.579647 
L 289.186136 293.124787 
L 289.418197 293.068473 
L 289.650259 293.396005 
L 289.882321 293.404949 
L 290.346445 293.253051 
L 290.810569 293.555779 
L 291.04263 292.662977 
L 291.274692 293.984831 
L 291.506754 293.507032 
L 292.435002 293.348326 
L 292.667063 293.156611 
L 292.899125 293.683311 
L 293.595311 293.636552 
L 293.827373 291.886427 
L 294.059435 293.480487 
L 294.523558 293.955015 
L 294.75562 293.863939 
L 294.987682 294.165205 
L 295.219744 293.763242 
L 295.451806 293.59788 
L 295.683868 293.573961 
L 295.91593 294.14272 
L 296.147991 293.589958 
L 296.380053 294.178461 
L 296.612115 293.690608 
L 297.076239 293.370696 
L 297.540363 293.899084 
L 298.004486 293.318839 
L 298.236548 293.698084 
L 298.932734 293.672652 
L 299.164796 293.350725 
L 299.396857 293.748554 
L 300.325105 293.485143 
L 300.557167 293.756392 
L 300.789229 293.819529 
L 301.021291 291.95717 
L 301.253352 293.746831 
L 301.485414 293.523379 
L 301.717476 293.676029 
L 301.949538 292.334791 
L 302.413662 293.680056 
L 302.645724 294.000835 
L 302.877785 293.442347 
L 303.109847 293.392157 
L 303.341909 294.077737 
L 303.573971 293.611835 
L 303.806033 292.607223 
L 304.038095 294.126581 
L 304.270157 294.078864 
L 304.502218 293.318943 
L 304.73428 293.174403 
L 304.966342 293.494872 
L 305.198404 293.114664 
L 305.430466 293.482576 
L 305.89459 293.398581 
L 306.358713 293.658547 
L 306.590775 293.426112 
L 306.822837 293.564949 
L 307.054899 293.333339 
L 307.519023 293.463995 
L 307.751085 293.969185 
L 307.983146 293.370142 
L 308.215208 294.01479 
L 308.44727 293.453484 
L 308.679332 293.80089 
L 308.911394 291.727858 
L 309.143456 293.308254 
L 309.375518 293.642871 
L 309.839641 293.458557 
L 310.071703 293.440709 
L 310.535827 293.828041 
L 310.767889 293.395636 
L 310.999951 293.704094 
L 311.232012 293.530685 
L 311.464074 293.768009 
L 311.696136 293.59723 
L 311.928198 293.742961 
L 312.16026 294.150231 
L 312.624384 293.411369 
L 312.856446 293.373848 
L 313.320569 292.898855 
L 313.784693 293.531135 
L 314.016755 293.137614 
L 314.480879 293.462269 
L 314.71294 293.511906 
L 315.177064 293.41086 
L 315.409126 293.369174 
L 315.641188 293.455163 
L 316.105312 293.271216 
L 316.337373 293.099322 
L 316.569435 293.310257 
L 316.801497 293.303202 
L 317.033559 293.110521 
L 317.497683 293.322133 
L 317.729745 292.83615 
L 318.193868 293.360123 
L 318.42593 292.264247 
L 318.657992 292.603851 
L 318.890054 293.339783 
L 319.122116 293.334601 
L 319.354178 293.805507 
L 319.58624 293.021655 
L 319.818301 292.816746 
L 320.050363 293.733776 
L 320.282425 293.656928 
L 320.514487 293.724196 
L 320.746549 293.419154 
L 320.978611 293.790038 
L 321.210673 293.512922 
L 321.442734 293.506694 
L 321.674796 293.267247 
L 321.906858 293.445965 
L 322.13892 293.766988 
L 322.370982 293.104399 
L 322.603044 293.45347 
L 322.835106 293.031697 
L 323.067167 291.563783 
L 323.299229 293.482922 
L 323.531291 293.434143 
L 323.763353 293.528291 
L 323.995415 293.81064 
L 324.227477 293.777306 
L 324.459539 293.947437 
L 324.6916 293.948022 
L 324.923662 293.342854 
L 325.387786 293.754405 
L 325.619848 293.336085 
L 325.85191 294.264461 
L 326.083972 293.945862 
L 326.316034 293.981911 
L 326.548095 293.148392 
L 326.780157 293.458371 
L 327.476343 293.642718 
L 327.708405 293.943867 
L 327.940467 293.335898 
L 328.172528 293.517144 
L 328.636652 293.196751 
L 329.5649 293.209491 
L 329.796961 293.210454 
L 330.261085 293.783133 
L 330.493147 293.363681 
L 330.725209 293.28724 
L 330.957271 293.669357 
L 331.653456 293.45401 
L 331.885518 293.181001 
L 332.349642 293.804495 
L 332.581704 293.284595 
L 332.813766 293.895929 
L 333.045828 293.278736 
L 333.277889 293.706774 
L 333.509951 293.569207 
L 333.742013 293.799125 
L 333.974075 293.486355 
L 334.438199 293.72383 
L 334.670261 292.875618 
L 334.902322 293.281488 
L 335.134384 294.050837 
L 335.366446 293.564622 
L 335.83057 293.082546 
L 336.526755 294.071832 
L 336.758817 293.545527 
L 336.990879 294.082104 
L 337.222941 293.197554 
L 337.687065 293.860413 
L 337.919127 294.047521 
L 338.38325 293.733615 
L 338.615312 293.919259 
L 339.079436 293.897291 
L 339.311498 293.530953 
L 339.54356 293.778623 
L 340.239745 293.755882 
L 340.471807 294.157794 
L 340.703869 293.735012 
L 341.167993 293.745352 
L 341.400055 294.085245 
L 341.864178 293.377413 
L 342.328302 293.709795 
L 342.560364 294.247942 
L 342.792426 293.829083 
L 343.024488 293.861348 
L 343.256549 293.742552 
L 343.488611 293.82942 
L 343.720673 293.761826 
L 343.952735 293.851613 
L 344.184797 293.697782 
L 344.416859 293.710307 
L 344.648921 293.910283 
L 344.880983 293.864877 
L 345.113044 294.013442 
L 345.345106 293.331324 
L 345.577168 293.831624 
L 345.80923 293.557318 
L 346.041292 293.853367 
L 346.505416 293.786106 
L 346.737477 293.098535 
L 346.969539 293.704185 
L 347.433663 293.505593 
L 347.665725 293.772943 
L 347.897787 293.703959 
L 348.129849 292.225739 
L 348.593972 293.682278 
L 348.826034 293.613829 
L 349.058096 293.702125 
L 349.290158 294.242985 
L 349.52222 293.551361 
L 349.754282 293.429949 
L 349.986343 293.724567 
L 350.218405 292.821068 
L 350.450467 293.656134 
L 350.682529 292.88745 
L 350.914591 293.446436 
L 351.378715 293.655844 
L 351.610777 293.610639 
L 351.842838 293.367667 
L 352.306962 293.647472 
L 352.539024 293.805635 
L 353.003148 292.736412 
L 353.23521 293.872105 
L 353.467271 294.032199 
L 353.699333 293.586374 
L 353.931395 292.723246 
L 354.163457 293.328691 
L 354.627581 293.650736 
L 354.859643 293.445768 
L 355.091704 293.464134 
L 355.323766 293.329877 
L 355.555828 293.392175 
L 355.78789 293.169246 
L 356.019952 294.016239 
L 356.252014 293.048531 
L 356.484076 294.126293 
L 356.948199 292.788514 
L 357.180261 291.261316 
L 357.412323 293.2773 
L 357.644385 293.782063 
L 358.108509 293.032997 
L 358.340571 292.785304 
L 358.572632 292.931255 
L 358.804694 292.727811 
L 359.036756 293.590863 
L 359.268818 293.583719 
L 359.50088 293.333803 
L 359.732942 293.664937 
L 359.965004 293.703926 
L 360.429127 293.082034 
L 360.661189 293.0151 
L 360.893251 293.914408 
L 361.125313 293.439462 
L 361.357375 293.643093 
L 362.05356 293.359054 
L 362.285622 293.355762 
L 362.517684 294.094421 
L 362.981808 292.57746 
L 363.445932 292.84366 
L 363.677993 293.360368 
L 363.910055 292.70758 
L 364.142117 292.642358 
L 364.374179 293.250539 
L 364.606241 292.573365 
L 364.838303 292.600229 
L 365.302426 293.605337 
L 365.534488 292.920012 
L 365.76655 293.267055 
L 365.998612 293.331629 
L 366.230674 293.520249 
L 366.462736 292.430481 
L 366.694798 293.273495 
L 366.926859 293.374411 
L 367.390983 292.189109 
L 367.623045 293.458061 
L 367.855107 292.632694 
L 368.087169 293.301947 
L 368.319231 292.718961 
L 368.551292 292.459865 
L 368.783354 291.793872 
L 369.015416 292.061724 
L 369.247478 292.043093 
L 369.47954 293.470391 
L 369.711602 292.892878 
L 369.943664 292.926415 
L 370.175726 293.576848 
L 370.407787 292.203212 
L 370.639849 291.954955 
L 370.871911 291.905767 
L 371.336035 292.636908 
L 371.568097 292.595413 
L 371.800159 293.210762 
L 372.03222 293.108206 
L 372.264282 292.378916 
L 372.496344 292.715589 
L 372.728406 292.648104 
L 372.960468 293.184678 
L 373.19253 292.527402 
L 373.424592 292.525733 
L 373.656653 293.847936 
L 374.352839 292.461136 
L 374.584901 292.14523 
L 374.816963 293.120478 
L 375.281086 293.614609 
L 375.74521 293.539826 
L 375.977272 292.291755 
L 376.209334 292.821729 
L 376.441396 292.352058 
L 376.673458 292.279539 
L 376.90552 292.894866 
L 377.137581 292.829056 
L 377.369643 291.935905 
L 377.601705 292.795713 
L 377.833767 289.604656 
L 378.065829 291.756836 
L 378.297891 292.566565 
L 378.529953 292.047884 
L 378.762014 292.556937 
L 378.994076 292.153349 
L 379.226138 292.303521 
L 379.4582 292.859626 
L 379.690262 292.651952 
L 380.154386 293.415893 
L 380.386447 291.774311 
L 380.850571 292.47979 
L 381.082633 292.565383 
L 381.314695 292.949409 
L 381.778819 291.864889 
L 382.01088 291.612709 
L 382.242942 293.104365 
L 382.475004 292.600456 
L 382.707066 292.672824 
L 382.939128 292.36404 
L 383.17119 292.618282 
L 383.635314 292.727692 
L 383.867375 292.586145 
L 384.099437 292.016257 
L 384.331499 292.907578 
L 384.563561 285.183457 
L 384.795623 293.01484 
L 385.027685 292.746369 
L 385.491808 292.954844 
L 385.72387 292.883054 
L 385.955932 291.850035 
L 386.187994 292.577339 
L 386.652118 292.804705 
L 386.88418 292.035312 
L 387.116241 292.259568 
L 387.348303 293.075529 
L 387.812427 292.85476 
L 388.044489 292.16184 
L 388.276551 292.668957 
L 388.508613 292.381818 
L 388.740675 292.498665 
L 388.972736 293.875455 
L 389.43686 291.57512 
L 389.900984 293.041621 
L 390.133046 292.838113 
L 390.829231 292.722864 
L 391.989541 292.93593 
L 392.221602 292.480637 
L 392.917788 292.460428 
L 393.14985 292.467946 
L 393.381912 292.90677 
L 393.613974 292.899805 
L 393.846035 292.770583 
L 394.078097 294.004088 
L 394.310159 292.438872 
L 394.542221 292.360246 
L 394.774283 292.439128 
L 395.006345 291.708208 
L 395.470469 292.880352 
L 395.70253 292.902544 
L 395.934592 292.694161 
L 396.166654 292.96851 
L 396.398716 291.970218 
L 396.630778 292.651208 
L 397.326963 292.885157 
L 397.559025 292.181585 
L 397.791087 293.036885 
L 398.023149 292.597862 
L 398.255211 292.78401 
L 398.487273 292.24709 
L 398.487273 292.24709 
" style="fill:none;stroke:#1f77b4;stroke-linecap:square;stroke-width:1.5;"/>
   </g>
   <g id="line2d_18">
    <path clip-path="url(#pd74a4ebb61)" d="M 73.832727 53.568 
L 74.296851 140.228204 
L 74.760975 183.187663 
L 75.225098 205.231985 
L 75.45716 207.821627 
L 75.689222 207.418991 
L 75.921284 213.134746 
L 76.385408 212.860685 
L 76.61747 210.796474 
L 76.849531 207.598957 
L 77.313655 208.593069 
L 77.777779 207.339686 
L 78.009841 207.589212 
L 78.241903 208.598336 
L 78.706026 212.711139 
L 79.17015 220.380905 
L 79.402212 217.547131 
L 79.866336 239.99213 
L 81.026645 279.268883 
L 81.258707 281.726696 
L 81.722831 283.440992 
L 81.954892 283.469747 
L 82.186954 281.825952 
L 82.419016 281.251959 
L 82.88314 278.785627 
L 83.347264 288.466986 
L 83.579325 288.54483 
L 83.811387 287.61925 
L 84.043449 287.431763 
L 84.275511 286.227175 
L 84.507573 285.738425 
L 84.739635 283.775095 
L 84.971697 284.707878 
L 85.203759 282.996284 
L 85.43582 284.0921 
L 85.667882 278.845378 
L 85.899944 280.436601 
L 86.132006 270.158137 
L 86.364068 272.317968 
L 86.59613 273.397873 
L 86.828192 272.77115 
L 87.060253 272.66237 
L 87.292315 274.17224 
L 87.524377 274.321901 
L 87.756439 258.637594 
L 87.988501 267.715897 
L 88.220563 270.415745 
L 88.452625 269.334576 
L 88.684686 269.365676 
L 89.14881 269.835037 
L 89.612934 270.750556 
L 89.844996 268.315958 
L 90.077058 258.821438 
L 90.30912 265.920233 
L 90.773243 270.448365 
L 91.237367 272.758006 
L 91.701491 273.925195 
L 91.933553 274.127599 
L 92.165614 274.100891 
L 92.397676 273.926691 
L 92.8618 275.800264 
L 93.093862 276.03512 
L 93.325924 272.411345 
L 94.022109 269.307424 
L 94.254171 266.375918 
L 94.486233 267.674367 
L 94.718295 268.030909 
L 94.950357 268.716498 
L 95.41448 270.7627 
L 95.878604 276.497078 
L 96.342728 278.708489 
L 96.57479 277.170126 
L 97.503037 278.078215 
L 97.735099 278.097414 
L 97.967161 277.726825 
L 98.199223 279.112311 
L 98.663347 271.24699 
L 99.12747 274.561755 
L 99.359532 271.330028 
L 99.591594 263.036576 
L 99.823656 266.686846 
L 100.055718 258.111423 
L 100.28778 261.321761 
L 100.519841 254.23717 
L 100.751903 257.886147 
L 100.983965 252.106977 
L 101.216027 256.37167 
L 102.144274 263.719116 
L 102.376336 258.114314 
L 102.608398 260.254296 
L 103.072522 261.378619 
L 103.304584 256.63296 
L 103.536646 259.277984 
L 104.000769 260.803636 
L 104.232831 261.147776 
L 104.464893 261.267105 
L 104.696955 261.168643 
L 105.161079 263.149908 
L 105.393141 263.326927 
L 105.625202 257.391829 
L 105.857264 259.484043 
L 106.089326 257.33308 
L 106.55345 248.962465 
L 106.785512 248.543733 
L 107.017574 244.753483 
L 107.481697 234.206531 
L 107.945821 227.443836 
L 108.409945 223.329813 
L 108.874068 221.252664 
L 109.10613 220.803333 
L 109.338192 220.642832 
L 109.570254 221.208965 
L 109.802316 222.88132 
L 110.034378 220.932808 
L 110.962625 242.147151 
L 111.890873 246.968363 
L 112.122935 242.474881 
L 112.587058 238.679855 
L 112.81912 243.685423 
L 113.283244 247.831729 
L 113.515306 246.955352 
L 113.747368 250.673001 
L 113.979429 252.169729 
L 114.211491 248.31316 
L 114.443553 240.2272 
L 115.139739 230.512156 
L 115.603862 226.948317 
L 115.835924 225.824753 
L 116.067986 226.003881 
L 116.53211 225.862975 
L 116.996234 226.197484 
L 117.692419 226.90678 
L 118.156543 227.059755 
L 118.620667 226.814843 
L 119.08479 226.140655 
L 119.548914 225.021394 
L 120.2451 222.563442 
L 121.405409 217.872815 
L 122.565718 214.562838 
L 123.261904 213.251128 
L 123.493966 212.953711 
L 123.726028 211.958239 
L 123.95809 214.25992 
L 124.422213 213.383927 
L 124.654275 212.370049 
L 126.046646 211.52656 
L 126.278708 212.149054 
L 126.51077 212.418038 
L 126.974894 214.234938 
L 127.206956 215.058209 
L 128.135203 232.818923 
L 128.367265 235.425657 
L 128.599327 234.398691 
L 128.831389 239.336795 
L 129.295512 253.701219 
L 129.527574 252.533013 
L 129.759636 252.841688 
L 130.455822 242.245397 
L 130.687884 236.883184 
L 130.919945 235.175043 
L 131.152007 236.322235 
L 131.384069 240.064317 
L 131.616131 235.8736 
L 132.080255 233.339726 
L 132.312317 233.222244 
L 132.544378 230.138529 
L 132.77644 234.317684 
L 133.008502 232.514455 
L 133.240564 232.050485 
L 133.472626 242.906351 
L 133.93675 228.824546 
L 134.400873 220.977153 
L 134.632935 226.459524 
L 134.864997 221.558697 
L 135.329121 231.81805 
L 136.025306 242.119424 
L 136.48943 245.170263 
L 136.721492 245.935922 
L 136.953554 243.36085 
L 137.185616 245.164556 
L 137.649739 249.741092 
L 137.881801 249.97305 
L 138.113863 250.733767 
L 138.345925 250.454988 
L 138.810049 252.647614 
L 139.042111 259.263272 
L 139.506234 264.822729 
L 139.970358 267.721139 
L 140.20242 268.526723 
L 140.434482 268.91478 
L 140.666544 269.000641 
L 140.898605 268.84062 
L 141.130667 268.465395 
L 141.594791 264.756782 
L 141.826853 264.006788 
L 142.290977 256.623279 
L 142.7551 252.854575 
L 142.987162 252.752195 
L 143.219224 251.976855 
L 143.451286 251.687489 
L 143.683348 251.690265 
L 144.147472 252.144626 
L 145.075719 253.125177 
L 145.307781 246.424449 
L 145.539843 258.931302 
L 145.771905 250.684171 
L 146.003966 254.380848 
L 146.236028 254.360887 
L 146.700152 253.389977 
L 146.932214 245.446474 
L 147.164276 251.305134 
L 147.396338 244.646664 
L 147.6284 248.806506 
L 147.860461 249.421248 
L 148.092523 243.086188 
L 148.324585 247.469251 
L 148.788709 248.846481 
L 149.252833 250.130143 
L 149.484894 242.347857 
L 149.716956 247.498109 
L 150.413142 252.038057 
L 150.877266 253.812133 
L 151.341389 254.457314 
L 151.573451 254.46717 
L 151.805513 244.059027 
L 152.037575 249.424353 
L 152.501699 251.414342 
L 152.73376 251.755235 
L 152.965822 241.961119 
L 153.197884 246.854419 
L 153.429946 247.896063 
L 153.662008 248.415903 
L 153.89407 248.61694 
L 154.126132 239.541799 
L 154.358194 243.269909 
L 154.590255 243.408581 
L 154.822317 243.124418 
L 155.286441 241.948883 
L 155.518503 236.802623 
L 155.750565 240.293874 
L 156.678812 243.704944 
L 156.910874 243.57512 
L 157.142936 243.602995 
L 157.374998 242.903222 
L 157.60706 242.682727 
L 157.839121 242.209428 
L 158.071183 239.437261 
L 158.303245 238.555085 
L 158.535307 236.835366 
L 158.767369 240.394805 
L 158.999431 236.546272 
L 159.231493 234.674992 
L 159.695616 242.871289 
L 160.15974 236.240453 
L 160.391802 236.692398 
L 160.623864 236.354601 
L 160.855926 236.790761 
L 161.087988 237.838843 
L 162.480359 251.270003 
L 162.944482 241.279776 
L 163.176544 253.147245 
L 163.408606 257.568057 
L 163.640668 249.232935 
L 163.87273 246.528396 
L 164.104792 246.588717 
L 164.336854 245.830068 
L 164.568915 244.04998 
L 164.800977 249.18346 
L 165.033039 247.643554 
L 165.265101 262.074491 
L 165.497163 262.519412 
L 165.729225 263.454012 
L 165.961287 247.154009 
L 166.193348 258.37885 
L 166.42541 260.002351 
L 166.889534 258.566829 
L 167.121596 257.408709 
L 167.353658 259.699243 
L 167.817782 256.241582 
L 168.513967 252.008094 
L 168.746029 251.242563 
L 168.978091 250.951406 
L 169.210153 251.184615 
L 169.442215 251.913106 
L 169.906338 254.778786 
L 170.1384 249.673454 
L 170.370462 258.41088 
L 170.834586 267.632326 
L 171.066648 255.378858 
L 171.298709 256.331912 
L 171.530771 263.063192 
L 171.762833 257.054722 
L 171.994895 263.55429 
L 172.226957 257.494569 
L 172.459019 263.75756 
L 172.691081 257.601129 
L 172.923143 262.829522 
L 173.155204 264.088935 
L 173.387266 255.631657 
L 173.619328 263.299752 
L 173.85139 263.255244 
L 174.083452 262.761115 
L 174.315514 260.648909 
L 175.707885 254.534657 
L 175.939947 254.303702 
L 176.172009 246.065607 
L 176.40407 247.44974 
L 176.636132 242.191076 
L 176.868194 246.768203 
L 177.100256 246.783481 
L 177.332318 238.527109 
L 177.56438 241.289333 
L 178.260565 242.580119 
L 178.492627 242.750023 
L 178.724689 242.68129 
L 179.188813 242.144629 
L 179.420875 243.386198 
L 179.652937 243.072786 
L 179.884998 243.682715 
L 180.581184 240.251759 
L 181.27737 237.969669 
L 181.509431 237.258963 
L 181.741493 236.98 
L 181.973555 239.816165 
L 182.205617 239.997397 
L 182.437679 242.950559 
L 182.901803 241.944172 
L 183.133864 243.355023 
L 183.365926 242.325567 
L 183.83005 241.414657 
L 184.062112 242.665213 
L 185.222421 227.16959 
L 185.454483 226.937422 
L 185.686545 226.350749 
L 185.918607 226.998462 
L 186.150669 227.206879 
L 186.846854 225.653908 
L 187.078916 225.585129 
L 187.310978 234.173604 
L 187.54304 237.239465 
L 187.775102 234.417864 
L 188.935411 250.474475 
L 189.167473 252.26871 
L 189.399535 246.333133 
L 189.631597 249.105411 
L 189.863658 248.789378 
L 190.09572 247.783354 
L 190.559844 252.751675 
L 191.25603 248.842404 
L 191.488091 251.894558 
L 192.184277 245.026173 
L 192.416339 242.257829 
L 192.880463 231.289248 
L 193.344586 221.073671 
L 193.576648 218.205606 
L 193.80871 224.823381 
L 194.040772 224.306996 
L 194.272834 225.075181 
L 194.736958 240.189975 
L 194.969019 246.20688 
L 195.201081 245.485712 
L 195.665205 248.7152 
L 195.897267 258.258671 
L 196.129329 254.712912 
L 196.361391 253.670442 
L 196.593452 260.791773 
L 196.825514 255.719229 
L 197.289638 252.507051 
L 197.5217 258.540871 
L 197.753762 260.655369 
L 197.985824 254.045561 
L 198.217886 250.947877 
L 198.449947 256.502619 
L 198.682009 249.85424 
L 198.914071 254.12166 
L 199.146133 253.822615 
L 199.378195 253.335551 
L 199.610257 254.178168 
L 199.842319 252.60469 
L 200.07438 249.227598 
L 200.306442 247.96021 
L 200.770566 251.357856 
L 201.002628 252.447151 
L 201.23469 249.395279 
L 201.466752 250.336319 
L 201.698813 248.923779 
L 201.930875 244.523346 
L 202.162937 243.389184 
L 202.394999 242.939824 
L 202.627061 244.080624 
L 202.859123 250.45613 
L 203.091185 246.757524 
L 203.323246 253.515447 
L 203.555308 248.811609 
L 203.78737 254.725027 
L 204.019432 250.269056 
L 204.251494 254.145425 
L 204.483556 255.835688 
L 204.715618 256.492873 
L 204.94768 256.410349 
L 205.179741 255.091104 
L 205.643865 244.979829 
L 205.875927 246.816646 
L 206.340051 242.729208 
L 206.572113 241.712187 
L 206.804174 241.540885 
L 207.036236 241.217902 
L 207.50036 239.92774 
L 207.732422 239.103821 
L 207.964484 237.391377 
L 208.196546 237.428327 
L 208.428607 237.247269 
L 208.660669 237.222656 
L 208.892731 237.727551 
L 209.356855 230.737905 
L 209.820979 242.192748 
L 210.05304 241.780789 
L 210.981288 249.799898 
L 211.21335 246.19179 
L 211.445412 250.891836 
L 211.909535 253.664928 
L 212.141597 259.381465 
L 212.373659 259.968732 
L 212.605721 260.898363 
L 212.837783 261.34237 
L 213.069845 261.244209 
L 213.301907 260.667279 
L 213.533968 259.638296 
L 213.76603 259.708036 
L 213.998092 254.156466 
L 214.230154 252.092209 
L 214.462216 248.64976 
L 214.694278 249.474802 
L 214.92634 254.446695 
L 215.158401 248.256878 
L 215.622525 247.203719 
L 215.854587 252.681327 
L 216.086649 248.288456 
L 216.550773 258.787654 
L 217.014896 263.336591 
L 217.246958 255.715604 
L 217.47902 256.194551 
L 217.711082 254.810986 
L 217.943144 258.464292 
L 218.175206 251.717632 
L 218.407268 251.261395 
L 218.639329 251.33151 
L 219.103453 251.723751 
L 219.335515 247.279652 
L 219.567577 253.015775 
L 219.799639 249.715885 
L 220.031701 249.16199 
L 220.263762 259.694413 
L 220.495824 249.641566 
L 220.959948 246.596355 
L 221.19201 245.792961 
L 221.424072 245.487079 
L 221.656134 245.611801 
L 221.888195 250.725242 
L 222.120257 250.234681 
L 222.352319 252.604183 
L 222.584381 251.46762 
L 223.048505 250.369436 
L 223.280567 249.684492 
L 223.512629 250.387349 
L 224.440876 246.764555 
L 224.905 245.915081 
L 225.137062 245.820271 
L 225.369123 245.980665 
L 225.601185 248.099276 
L 225.833247 248.262066 
L 226.297371 249.188323 
L 226.761495 256.070918 
L 226.993556 254.102917 
L 227.225618 262.201536 
L 227.689742 265.077158 
L 228.153866 266.34198 
L 228.385928 260.989791 
L 228.617989 266.951814 
L 228.850051 261.217369 
L 229.082113 266.866345 
L 229.546237 265.999786 
L 229.778299 265.479738 
L 230.010361 259.564384 
L 230.242423 265.17837 
L 231.866856 262.917448 
L 232.098917 262.654203 
L 232.330979 257.159746 
L 232.563041 263.11866 
L 233.955412 261.848603 
L 234.187474 261.929951 
L 234.651598 262.505464 
L 235.347783 263.915653 
L 235.579845 264.668702 
L 235.811907 263.833054 
L 236.043969 264.635149 
L 236.276031 263.806449 
L 236.508093 264.288328 
L 236.740155 265.044366 
L 236.972217 263.986143 
L 237.204278 264.244441 
L 237.43634 264.738717 
L 237.668402 263.373404 
L 238.132526 263.289507 
L 238.59665 262.815936 
L 239.060773 261.99266 
L 239.756959 260.403968 
L 239.989021 254.733471 
L 240.221083 260.872358 
L 240.453144 255.159996 
L 240.685206 261.738567 
L 240.917268 260.014899 
L 241.14933 246.696854 
L 241.381392 259.40459 
L 241.613454 254.299959 
L 241.845516 261.414417 
L 242.077577 260.430337 
L 242.309639 258.827363 
L 242.541701 258.870783 
L 243.005825 259.70435 
L 243.469949 261.034048 
L 243.702011 256.141366 
L 243.934072 263.922331 
L 244.166134 263.526139 
L 244.630258 261.949466 
L 244.86232 255.293902 
L 245.094382 262.928978 
L 245.326444 256.188065 
L 245.558505 263.809752 
L 245.790567 263.237592 
L 246.022629 255.906327 
L 246.254691 263.334721 
L 246.486753 262.638934 
L 246.950877 260.066836 
L 247.182938 260.161919 
L 247.415 254.917865 
L 247.647062 262.192688 
L 247.879124 261.08947 
L 249.039433 261.078306 
L 249.503557 260.923104 
L 249.735619 260.73331 
L 249.967681 255.321819 
L 250.199743 261.521954 
L 250.431805 261.111377 
L 250.663866 255.167883 
L 250.895928 260.981967 
L 251.12799 260.290102 
L 251.360052 254.265474 
L 251.592114 260.140842 
L 252.288299 258.431407 
L 252.520361 258.165626 
L 252.752423 258.118046 
L 252.984485 258.261391 
L 253.448609 258.985494 
L 255.073042 262.844479 
L 255.305104 263.752341 
L 255.537166 263.239596 
L 255.769227 262.44661 
L 256.001289 263.538278 
L 256.233351 257.231572 
L 256.465413 265.096178 
L 256.697475 264.746185 
L 256.929537 257.648708 
L 257.161599 258.62096 
L 257.39366 266.397818 
L 257.625722 265.591108 
L 258.55397 260.270865 
L 258.786032 253.451346 
L 259.018093 260.880874 
L 259.250155 260.334482 
L 259.482217 259.500881 
L 259.714279 252.628948 
L 259.946341 260.085116 
L 260.178403 259.596659 
L 260.874588 256.745054 
L 261.338712 257.238345 
L 262.034898 258.626889 
L 262.499021 259.514117 
L 262.963145 260.004283 
L 263.427269 260.117686 
L 263.891393 259.912489 
L 264.123454 254.70132 
L 264.355516 260.771178 
L 264.81964 259.507859 
L 265.747887 256.588177 
L 266.212011 255.851735 
L 266.444073 255.767306 
L 266.676135 255.876099 
L 267.140259 256.579978 
L 267.37232 257.076256 
L 267.604382 252.43429 
L 267.836444 259.665821 
L 268.300568 260.667085 
L 268.764692 261.408936 
L 268.996754 256.408529 
L 269.228815 263.966882 
L 269.460877 263.38225 
L 269.692939 262.193746 
L 270.157063 263.069499 
L 270.389125 263.893251 
L 270.621187 262.95571 
L 270.853248 263.796157 
L 271.08531 262.914786 
L 271.317372 263.863347 
L 271.549434 263.093156 
L 271.781496 264.150751 
L 272.013558 263.705502 
L 272.24562 262.945343 
L 272.477681 264.032586 
L 272.709743 257.829058 
L 272.941805 265.68211 
L 273.173867 265.236003 
L 273.870053 262.453873 
L 274.566238 264.096539 
L 274.7983 257.475916 
L 275.030362 264.891997 
L 275.262424 257.94308 
L 275.494486 265.202993 
L 275.726548 264.167427 
L 275.958609 256.672407 
L 276.190671 263.764798 
L 276.422733 262.604071 
L 276.654795 264.888451 
L 276.886857 260.51494 
L 277.118919 252.420046 
L 277.350981 259.68242 
L 277.815104 257.582592 
L 278.279228 255.523021 
L 278.51129 248.360481 
L 278.743352 256.136916 
L 278.975414 255.906267 
L 279.671599 254.379946 
L 280.367785 253.42562 
L 280.831909 252.910095 
L 281.06397 252.285594 
L 281.528094 253.885933 
L 282.22428 257.822392 
L 282.688403 260.288672 
L 282.920465 261.052081 
L 283.152527 261.422902 
L 283.384589 261.406892 
L 283.616651 261.034115 
L 284.080775 259.586933 
L 284.77696 256.256664 
L 285.009022 250.748803 
L 285.241084 255.729562 
L 286.169331 250.449411 
L 286.633455 249.400291 
L 286.865517 249.407897 
L 287.097579 249.718473 
L 287.561703 251.166487 
L 288.025826 253.396426 
L 288.257888 250.159281 
L 288.48995 257.846192 
L 288.954074 259.54112 
L 289.650259 261.014914 
L 289.882321 256.166542 
L 290.114383 263.117607 
L 290.346445 261.617059 
L 290.578507 256.120916 
L 290.810569 262.608922 
L 291.04263 260.641342 
L 291.274692 259.947972 
L 291.506754 254.236302 
L 291.738816 260.104591 
L 292.20294 258.520915 
L 293.131187 255.073214 
L 293.827373 253.279147 
L 294.291497 252.634525 
L 294.75562 252.307469 
L 294.987682 252.309336 
L 295.451806 252.784511 
L 295.683868 253.29187 
L 295.91593 249.438657 
L 296.147991 252.07238 
L 296.380053 259.811447 
L 297.308301 263.306419 
L 297.540363 262.636004 
L 298.004486 264.461193 
L 298.236548 263.595165 
L 298.46861 264.499665 
L 298.700672 263.541081 
L 299.164796 264.689766 
L 299.396857 263.443032 
L 299.860981 263.767797 
L 300.093043 263.820271 
L 300.325105 258.491772 
L 300.557167 265.337788 
L 301.021291 262.140995 
L 301.253352 261.99549 
L 301.717476 262.081523 
L 302.1816 262.416685 
L 303.109847 263.412122 
L 303.341909 263.967481 
L 303.573971 262.772388 
L 303.806033 257.738382 
L 304.038095 265.153794 
L 304.502218 263.16676 
L 304.73428 261.7819 
L 305.198404 262.400613 
L 305.430466 263.045694 
L 305.662528 261.99945 
L 305.89459 262.795513 
L 306.126652 261.927417 
L 306.358713 262.890646 
L 306.822837 261.697919 
L 307.054899 262.871641 
L 307.519023 262.24215 
L 307.751085 256.18349 
L 307.983146 264.495338 
L 308.215208 264.473842 
L 308.911394 263.404754 
L 309.375518 263.109404 
L 309.839641 263.182713 
L 310.071703 263.312041 
L 310.303765 263.982124 
L 310.535827 263.931156 
L 310.767889 264.307447 
L 310.999951 265.332023 
L 311.696136 277.107879 
L 311.928198 279.116202 
L 312.16026 279.711032 
L 312.392322 279.517354 
L 312.856446 278.373446 
L 313.088507 260.786912 
L 313.320569 275.901123 
L 313.552631 258.697322 
L 313.784693 274.870738 
L 314.016755 275.773257 
L 314.248817 273.220392 
L 314.71294 270.510829 
L 315.409126 261.984718 
L 315.87325 251.157174 
L 316.105312 242.835764 
L 316.569435 219.004737 
L 316.801497 215.283941 
L 317.265621 220.673216 
L 317.497683 228.091322 
L 317.961806 231.30219 
L 318.193868 231.686679 
L 318.42593 231.47743 
L 318.890054 229.957107 
L 320.050363 224.033701 
L 320.282425 228.063988 
L 320.514487 227.950994 
L 320.746549 228.405998 
L 320.978611 229.282552 
L 321.442734 227.61911 
L 321.674796 227.806056 
L 322.370982 244.421722 
L 322.603044 244.92091 
L 323.067167 246.809408 
L 324.6916 263.129029 
L 325.155724 265.579008 
L 325.619848 266.656414 
L 325.85191 261.146419 
L 326.083972 262.240637 
L 326.316034 269.61447 
L 326.548095 268.606299 
L 326.780157 266.656915 
L 327.244281 265.474265 
L 327.708405 263.986123 
L 327.940467 258.597757 
L 328.172528 264.507263 
L 328.40459 258.884211 
L 328.636652 259.744138 
L 328.868714 265.407781 
L 329.332838 263.293079 
L 329.5649 263.512015 
L 330.029023 263.518781 
L 330.261085 258.668987 
L 330.493147 264.021258 
L 330.725209 259.033169 
L 330.957271 264.454916 
L 331.421395 264.237682 
L 332.349642 264.070704 
L 332.581704 264.172844 
L 332.813766 263.033268 
L 333.277889 263.74524 
L 333.509951 259.098724 
L 333.742013 265.325735 
L 334.206137 263.25887 
L 334.438199 263.75821 
L 334.670261 258.146071 
L 334.902322 264.760588 
L 335.134384 258.768469 
L 335.366446 265.399758 
L 335.598508 259.182403 
L 335.83057 265.802702 
L 336.526755 262.478575 
L 336.758817 250.094272 
L 336.990879 262.751334 
L 337.455003 261.373015 
L 337.687065 261.81264 
L 337.919127 261.217537 
L 338.151189 257.193949 
L 338.38325 263.557424 
L 338.615312 262.295757 
L 338.847374 262.241788 
L 339.079436 261.136123 
L 339.54356 261.737993 
L 339.775622 261.824331 
L 340.007683 260.962543 
L 340.471807 261.863396 
L 340.703869 261.255993 
L 340.935931 261.837081 
L 341.167993 261.345922 
L 341.400055 262.062432 
L 341.632116 261.633412 
L 341.864178 257.769024 
L 342.328302 270.852559 
L 342.560364 272.257589 
L 342.792426 265.340584 
L 343.024488 275.15621 
L 343.256549 267.902158 
L 343.488611 276.341616 
L 343.720673 270.241674 
L 343.952735 279.226589 
L 344.184797 279.242087 
L 344.416859 270.514282 
L 344.648921 277.872006 
L 344.880983 277.576862 
L 345.113044 269.464247 
L 345.345106 272.261516 
L 345.80923 264.294659 
L 346.273354 258.701273 
L 346.737477 257.155137 
L 346.969539 256.582308 
L 347.201601 251.340578 
L 347.433663 257.919504 
L 348.129849 254.488703 
L 348.36191 254.324348 
L 348.826034 257.609764 
L 349.290158 269.759206 
L 349.52222 277.608676 
L 349.754282 279.545042 
L 349.986343 266.75905 
L 350.218405 280.653762 
L 350.450467 279.137454 
L 350.682529 276.516921 
L 350.914591 268.850237 
L 351.146653 278.273033 
L 351.610777 281.339692 
L 351.842838 280.395123 
L 352.306962 275.77714 
L 352.539024 272.101931 
L 352.771086 259.847495 
L 353.003148 268.133599 
L 353.23521 265.16334 
L 353.467271 274.64391 
L 353.699333 268.756949 
L 353.931395 275.96842 
L 354.163457 274.911736 
L 354.627581 269.773353 
L 355.323766 261.828278 
L 356.019952 256.328015 
L 356.484076 241.30949 
L 356.716138 242.526663 
L 356.948199 235.474922 
L 357.180261 237.907967 
L 357.412323 244.861091 
L 357.876447 251.54509 
L 358.340571 261.76262 
L 358.572632 261.869931 
L 358.804694 273.637155 
L 359.268818 279.124881 
L 359.732942 280.818008 
L 359.965004 281.427293 
L 360.197065 274.115664 
L 360.429127 271.506054 
L 360.661189 276.870191 
L 360.893251 276.4903 
L 361.125313 276.431123 
L 361.357375 276.973455 
L 361.589437 267.169333 
L 361.821498 274.89043 
L 362.517684 282.923156 
L 362.981808 279.834225 
L 364.142117 270.522246 
L 364.606241 269.903829 
L 364.838303 269.921255 
L 365.070365 270.16431 
L 365.302426 270.66632 
L 365.534488 261.831941 
L 365.76655 270.395903 
L 366.462736 273.445581 
L 366.694798 263.978054 
L 366.926859 272.868295 
L 367.623045 278.883076 
L 368.087169 280.70305 
L 368.319231 279.344023 
L 368.551292 265.765771 
L 368.783354 278.899797 
L 369.247478 276.890599 
L 369.47954 276.362026 
L 369.711602 276.464734 
L 369.943664 265.780473 
L 370.175726 276.741072 
L 370.407787 277.552832 
L 370.639849 277.078493 
L 371.103973 274.706777 
L 371.336035 273.206192 
L 371.568097 259.854205 
L 371.800159 264.586714 
L 372.264282 259.378489 
L 372.496344 258.949084 
L 373.19253 266.152383 
L 373.424592 262.149987 
L 373.656653 269.695991 
L 373.888715 268.86613 
L 374.120777 267.449768 
L 374.352839 260.975519 
L 374.584901 266.721478 
L 375.513148 258.495579 
L 375.74521 253.704623 
L 375.977272 258.753199 
L 376.209334 257.589653 
L 376.441396 253.730188 
L 376.673458 260.121076 
L 376.90552 260.142818 
L 377.137581 260.738037 
L 377.601705 262.91273 
L 378.762014 269.79037 
L 378.994076 264.497995 
L 379.226138 273.21894 
L 379.4582 267.883178 
L 379.690262 273.769476 
L 379.922324 268.179945 
L 380.154386 273.955583 
L 380.386447 274.46429 
L 380.618509 274.433497 
L 381.082633 273.832302 
L 381.314695 273.454982 
L 381.546757 264.149843 
L 381.778819 271.451623 
L 382.01088 271.730954 
L 382.707066 270.626272 
L 383.17119 270.253336 
L 383.403252 270.274959 
L 383.635314 270.46419 
L 383.867375 270.950987 
L 384.099437 260.284181 
L 384.331499 258.53123 
L 384.563561 257.973037 
L 384.795623 258.723437 
L 385.027685 261.389646 
L 385.259747 271.38661 
L 385.491808 272.827611 
L 385.72387 265.020899 
L 385.955932 264.976284 
L 386.187994 274.049792 
L 386.420056 275.403107 
L 386.88418 276.551005 
L 387.116241 266.491221 
L 387.348303 275.521016 
L 387.812427 276.278785 
L 388.740675 282.278925 
L 388.972736 280.209508 
L 389.204798 276.742721 
L 389.43686 269.316875 
L 389.668922 265.908111 
L 389.900984 266.059993 
L 390.133046 271.161679 
L 390.365108 268.72246 
L 390.597169 267.72373 
L 390.829231 267.934948 
L 391.061293 265.354928 
L 391.525417 277.812254 
L 391.757479 281.761648 
L 391.989541 280.161514 
L 392.221602 277.149737 
L 392.453664 256.889286 
L 392.685726 263.604545 
L 393.14985 260.61392 
L 393.613974 254.975331 
L 393.846035 250.024708 
L 394.078097 253.896346 
L 394.310159 262.287066 
L 394.542221 263.035338 
L 394.774283 263.147881 
L 395.006345 262.656325 
L 395.470469 260.311006 
L 396.398716 254.272353 
L 396.630778 257.837722 
L 396.86284 257.699532 
L 397.094902 256.893118 
L 397.326963 256.923477 
L 397.559025 257.550745 
L 398.023149 260.154755 
L 398.487273 263.717181 
L 398.487273 263.717181 
" style="fill:none;stroke:#ff7f0e;stroke-linecap:square;stroke-width:1.5;"/>
   </g>
   <g id="patch_3">
    <path d="M 57.6 307.584 
L 57.6 41.472 
" style="fill:none;stroke:#000000;stroke-linecap:square;stroke-linejoin:miter;stroke-width:0.8;"/>
   </g>
   <g id="patch_4">
    <path d="M 414.72 307.584 
L 414.72 41.472 
" style="fill:none;stroke:#000000;stroke-linecap:square;stroke-linejoin:miter;stroke-width:0.8;"/>
   </g>
   <g id="patch_5">
    <path d="M 57.6 307.584 
L 414.72 307.584 
" style="fill:none;stroke:#000000;stroke-linecap:square;stroke-linejoin:miter;stroke-width:0.8;"/>
   </g>
   <g id="patch_6">
    <path d="M 57.6 41.472 
L 414.72 41.472 
" style="fill:none;stroke:#000000;stroke-linecap:square;stroke-linejoin:miter;stroke-width:0.8;"/>
   </g>
  </g>
 </g>
 <defs>
  <clipPath id="pd74a4ebb61">
   <rect height="266.112" width="357.12" x="57.6" y="41.472"/>
  </clipPath>
 </defs>
</svg>
