<?xml version="1.0" encoding="utf-8" standalone="no"?>
<!DOCTYPE svg PUBLIC "-//W3C//DTD SVG 1.1//EN"
  "http://www.w3.org/Graphics/SVG/1.1/DTD/svg11.dtd">
<!-- Created with matplotlib (https://matplotlib.org/) -->
<svg height="345.6pt" version="1.1" viewBox="0 0 460.8 345.6" width="460.8pt" xmlns="http://www.w3.org/2000/svg" xmlns:xlink="http://www.w3.org/1999/xlink">
 <defs>
  <style type="text/css">
*{stroke-linecap:butt;stroke-linejoin:round;}
  </style>
 </defs>
 <g id="figure_1">
  <g id="patch_1">
   <path d="M 0 345.6 
L 460.8 345.6 
L 460.8 0 
L 0 0 
z
" style="fill:#ffffff;"/>
  </g>
  <g id="axes_1">
   <g id="patch_2">
    <path d="M 57.6 307.584 
L 414.72 307.584 
L 414.72 41.472 
L 57.6 41.472 
z
" style="fill:#ffffff;"/>
   </g>
   <g id="matplotlib.axis_1">
    <g id="xtick_1">
     <g id="line2d_1">
      <defs>
       <path d="M 0 0 
L 0 3.5 
" id="mbb050e6ee0" style="stroke:#000000;stroke-width:0.8;"/>
      </defs>
      <g>
       <use style="stroke:#000000;stroke-width:0.8;" x="73.832727" xlink:href="#mbb050e6ee0" y="307.584"/>
      </g>
     </g>
     <g id="text_1">
      <!-- 0 -->
      <defs>
       <path d="M 31.78125 66.40625 
Q 24.171875 66.40625 20.328125 58.90625 
Q 16.5 51.421875 16.5 36.375 
Q 16.5 21.390625 20.328125 13.890625 
Q 24.171875 6.390625 31.78125 6.390625 
Q 39.453125 6.390625 43.28125 13.890625 
Q 47.125 21.390625 47.125 36.375 
Q 47.125 51.421875 43.28125 58.90625 
Q 39.453125 66.40625 31.78125 66.40625 
z
M 31.78125 74.21875 
Q 44.046875 74.21875 50.515625 64.515625 
Q 56.984375 54.828125 56.984375 36.375 
Q 56.984375 17.96875 50.515625 8.265625 
Q 44.046875 -1.421875 31.78125 -1.421875 
Q 19.53125 -1.421875 13.0625 8.265625 
Q 6.59375 17.96875 6.59375 36.375 
Q 6.59375 54.828125 13.0625 64.515625 
Q 19.53125 74.21875 31.78125 74.21875 
z
" id="DejaVuSans-48"/>
      </defs>
      <g transform="translate(70.651477 322.182437)scale(0.1 -0.1)">
       <use xlink:href="#DejaVuSans-48"/>
      </g>
     </g>
    </g>
    <g id="xtick_2">
     <g id="line2d_2">
      <g>
       <use style="stroke:#000000;stroke-width:0.8;" x="120.2451" xlink:href="#mbb050e6ee0" y="307.584"/>
      </g>
     </g>
     <g id="text_2">
      <!-- 200 -->
      <defs>
       <path d="M 19.1875 8.296875 
L 53.609375 8.296875 
L 53.609375 0 
L 7.328125 0 
L 7.328125 8.296875 
Q 12.9375 14.109375 22.625 23.890625 
Q 32.328125 33.6875 34.8125 36.53125 
Q 39.546875 41.84375 41.421875 45.53125 
Q 43.3125 49.21875 43.3125 52.78125 
Q 43.3125 58.59375 39.234375 62.25 
Q 35.15625 65.921875 28.609375 65.921875 
Q 23.96875 65.921875 18.8125 64.3125 
Q 13.671875 62.703125 7.8125 59.421875 
L 7.8125 69.390625 
Q 13.765625 71.78125 18.9375 73 
Q 24.125 74.21875 28.421875 74.21875 
Q 39.75 74.21875 46.484375 68.546875 
Q 53.21875 62.890625 53.21875 53.421875 
Q 53.21875 48.921875 51.53125 44.890625 
Q 49.859375 40.875 45.40625 35.40625 
Q 44.1875 33.984375 37.640625 27.21875 
Q 31.109375 20.453125 19.1875 8.296875 
z
" id="DejaVuSans-50"/>
      </defs>
      <g transform="translate(110.70135 322.182437)scale(0.1 -0.1)">
       <use xlink:href="#DejaVuSans-50"/>
       <use x="63.623047" xlink:href="#DejaVuSans-48"/>
       <use x="127.246094" xlink:href="#DejaVuSans-48"/>
      </g>
     </g>
    </g>
    <g id="xtick_3">
     <g id="line2d_3">
      <g>
       <use style="stroke:#000000;stroke-width:0.8;" x="166.657472" xlink:href="#mbb050e6ee0" y="307.584"/>
      </g>
     </g>
     <g id="text_3">
      <!-- 400 -->
      <defs>
       <path d="M 37.796875 64.3125 
L 12.890625 25.390625 
L 37.796875 25.390625 
z
M 35.203125 72.90625 
L 47.609375 72.90625 
L 47.609375 25.390625 
L 58.015625 25.390625 
L 58.015625 17.1875 
L 47.609375 17.1875 
L 47.609375 0 
L 37.796875 0 
L 37.796875 17.1875 
L 4.890625 17.1875 
L 4.890625 26.703125 
z
" id="DejaVuSans-52"/>
      </defs>
      <g transform="translate(157.113722 322.182437)scale(0.1 -0.1)">
       <use xlink:href="#DejaVuSans-52"/>
       <use x="63.623047" xlink:href="#DejaVuSans-48"/>
       <use x="127.246094" xlink:href="#DejaVuSans-48"/>
      </g>
     </g>
    </g>
    <g id="xtick_4">
     <g id="line2d_4">
      <g>
       <use style="stroke:#000000;stroke-width:0.8;" x="213.069845" xlink:href="#mbb050e6ee0" y="307.584"/>
      </g>
     </g>
     <g id="text_4">
      <!-- 600 -->
      <defs>
       <path d="M 33.015625 40.375 
Q 26.375 40.375 22.484375 35.828125 
Q 18.609375 31.296875 18.609375 23.390625 
Q 18.609375 15.53125 22.484375 10.953125 
Q 26.375 6.390625 33.015625 6.390625 
Q 39.65625 6.390625 43.53125 10.953125 
Q 47.40625 15.53125 47.40625 23.390625 
Q 47.40625 31.296875 43.53125 35.828125 
Q 39.65625 40.375 33.015625 40.375 
z
M 52.59375 71.296875 
L 52.59375 62.3125 
Q 48.875 64.0625 45.09375 64.984375 
Q 41.3125 65.921875 37.59375 65.921875 
Q 27.828125 65.921875 22.671875 59.328125 
Q 17.53125 52.734375 16.796875 39.40625 
Q 19.671875 43.65625 24.015625 45.921875 
Q 28.375 48.1875 33.59375 48.1875 
Q 44.578125 48.1875 50.953125 41.515625 
Q 57.328125 34.859375 57.328125 23.390625 
Q 57.328125 12.15625 50.6875 5.359375 
Q 44.046875 -1.421875 33.015625 -1.421875 
Q 20.359375 -1.421875 13.671875 8.265625 
Q 6.984375 17.96875 6.984375 36.375 
Q 6.984375 53.65625 15.1875 63.9375 
Q 23.390625 74.21875 37.203125 74.21875 
Q 40.921875 74.21875 44.703125 73.484375 
Q 48.484375 72.75 52.59375 71.296875 
z
" id="DejaVuSans-54"/>
      </defs>
      <g transform="translate(203.526095 322.182437)scale(0.1 -0.1)">
       <use xlink:href="#DejaVuSans-54"/>
       <use x="63.623047" xlink:href="#DejaVuSans-48"/>
       <use x="127.246094" xlink:href="#DejaVuSans-48"/>
      </g>
     </g>
    </g>
    <g id="xtick_5">
     <g id="line2d_5">
      <g>
       <use style="stroke:#000000;stroke-width:0.8;" x="259.482217" xlink:href="#mbb050e6ee0" y="307.584"/>
      </g>
     </g>
     <g id="text_5">
      <!-- 800 -->
      <defs>
       <path d="M 31.78125 34.625 
Q 24.75 34.625 20.71875 30.859375 
Q 16.703125 27.09375 16.703125 20.515625 
Q 16.703125 13.921875 20.71875 10.15625 
Q 24.75 6.390625 31.78125 6.390625 
Q 38.8125 6.390625 42.859375 10.171875 
Q 46.921875 13.96875 46.921875 20.515625 
Q 46.921875 27.09375 42.890625 30.859375 
Q 38.875 34.625 31.78125 34.625 
z
M 21.921875 38.8125 
Q 15.578125 40.375 12.03125 44.71875 
Q 8.5 49.078125 8.5 55.328125 
Q 8.5 64.0625 14.71875 69.140625 
Q 20.953125 74.21875 31.78125 74.21875 
Q 42.671875 74.21875 48.875 69.140625 
Q 55.078125 64.0625 55.078125 55.328125 
Q 55.078125 49.078125 51.53125 44.71875 
Q 48 40.375 41.703125 38.8125 
Q 48.828125 37.15625 52.796875 32.3125 
Q 56.78125 27.484375 56.78125 20.515625 
Q 56.78125 9.90625 50.3125 4.234375 
Q 43.84375 -1.421875 31.78125 -1.421875 
Q 19.734375 -1.421875 13.25 4.234375 
Q 6.78125 9.90625 6.78125 20.515625 
Q 6.78125 27.484375 10.78125 32.3125 
Q 14.796875 37.15625 21.921875 38.8125 
z
M 18.3125 54.390625 
Q 18.3125 48.734375 21.84375 45.5625 
Q 25.390625 42.390625 31.78125 42.390625 
Q 38.140625 42.390625 41.71875 45.5625 
Q 45.3125 48.734375 45.3125 54.390625 
Q 45.3125 60.0625 41.71875 63.234375 
Q 38.140625 66.40625 31.78125 66.40625 
Q 25.390625 66.40625 21.84375 63.234375 
Q 18.3125 60.0625 18.3125 54.390625 
z
" id="DejaVuSans-56"/>
      </defs>
      <g transform="translate(249.938467 322.182437)scale(0.1 -0.1)">
       <use xlink:href="#DejaVuSans-56"/>
       <use x="63.623047" xlink:href="#DejaVuSans-48"/>
       <use x="127.246094" xlink:href="#DejaVuSans-48"/>
      </g>
     </g>
    </g>
    <g id="xtick_6">
     <g id="line2d_6">
      <g>
       <use style="stroke:#000000;stroke-width:0.8;" x="305.89459" xlink:href="#mbb050e6ee0" y="307.584"/>
      </g>
     </g>
     <g id="text_6">
      <!-- 1000 -->
      <defs>
       <path d="M 12.40625 8.296875 
L 28.515625 8.296875 
L 28.515625 63.921875 
L 10.984375 60.40625 
L 10.984375 69.390625 
L 28.421875 72.90625 
L 38.28125 72.90625 
L 38.28125 8.296875 
L 54.390625 8.296875 
L 54.390625 0 
L 12.40625 0 
z
" id="DejaVuSans-49"/>
      </defs>
      <g transform="translate(293.16959 322.182437)scale(0.1 -0.1)">
       <use xlink:href="#DejaVuSans-49"/>
       <use x="63.623047" xlink:href="#DejaVuSans-48"/>
       <use x="127.246094" xlink:href="#DejaVuSans-48"/>
       <use x="190.869141" xlink:href="#DejaVuSans-48"/>
      </g>
     </g>
    </g>
    <g id="xtick_7">
     <g id="line2d_7">
      <g>
       <use style="stroke:#000000;stroke-width:0.8;" x="352.306962" xlink:href="#mbb050e6ee0" y="307.584"/>
      </g>
     </g>
     <g id="text_7">
      <!-- 1200 -->
      <g transform="translate(339.581962 322.182437)scale(0.1 -0.1)">
       <use xlink:href="#DejaVuSans-49"/>
       <use x="63.623047" xlink:href="#DejaVuSans-50"/>
       <use x="127.246094" xlink:href="#DejaVuSans-48"/>
       <use x="190.869141" xlink:href="#DejaVuSans-48"/>
      </g>
     </g>
    </g>
    <g id="xtick_8">
     <g id="line2d_8">
      <g>
       <use style="stroke:#000000;stroke-width:0.8;" x="398.719335" xlink:href="#mbb050e6ee0" y="307.584"/>
      </g>
     </g>
     <g id="text_8">
      <!-- 1400 -->
      <g transform="translate(385.994335 322.182437)scale(0.1 -0.1)">
       <use xlink:href="#DejaVuSans-49"/>
       <use x="63.623047" xlink:href="#DejaVuSans-52"/>
       <use x="127.246094" xlink:href="#DejaVuSans-48"/>
       <use x="190.869141" xlink:href="#DejaVuSans-48"/>
      </g>
     </g>
    </g>
   </g>
   <g id="matplotlib.axis_2">
    <g id="ytick_1">
     <g id="line2d_9">
      <defs>
       <path d="M 0 0 
L -3.5 0 
" id="m38d6fcd9af" style="stroke:#000000;stroke-width:0.8;"/>
      </defs>
      <g>
       <use style="stroke:#000000;stroke-width:0.8;" x="57.6" xlink:href="#m38d6fcd9af" y="295.620985"/>
      </g>
     </g>
     <g id="text_9">
      <!-- 0.0000 -->
      <defs>
       <path d="M 10.6875 12.40625 
L 21 12.40625 
L 21 0 
L 10.6875 0 
z
" id="DejaVuSans-46"/>
      </defs>
      <g transform="translate(15.609375 299.420204)scale(0.1 -0.1)">
       <use xlink:href="#DejaVuSans-48"/>
       <use x="63.623047" xlink:href="#DejaVuSans-46"/>
       <use x="95.410156" xlink:href="#DejaVuSans-48"/>
       <use x="159.033203" xlink:href="#DejaVuSans-48"/>
       <use x="222.65625" xlink:href="#DejaVuSans-48"/>
       <use x="286.279297" xlink:href="#DejaVuSans-48"/>
      </g>
     </g>
    </g>
    <g id="ytick_2">
     <g id="line2d_10">
      <g>
       <use style="stroke:#000000;stroke-width:0.8;" x="57.6" xlink:href="#m38d6fcd9af" y="263.926896"/>
      </g>
     </g>
     <g id="text_10">
      <!-- 0.0025 -->
      <defs>
       <path d="M 10.796875 72.90625 
L 49.515625 72.90625 
L 49.515625 64.59375 
L 19.828125 64.59375 
L 19.828125 46.734375 
Q 21.96875 47.46875 24.109375 47.828125 
Q 26.265625 48.1875 28.421875 48.1875 
Q 40.625 48.1875 47.75 41.5 
Q 54.890625 34.8125 54.890625 23.390625 
Q 54.890625 11.625 47.5625 5.09375 
Q 40.234375 -1.421875 26.90625 -1.421875 
Q 22.3125 -1.421875 17.546875 -0.640625 
Q 12.796875 0.140625 7.71875 1.703125 
L 7.71875 11.625 
Q 12.109375 9.234375 16.796875 8.0625 
Q 21.484375 6.890625 26.703125 6.890625 
Q 35.15625 6.890625 40.078125 11.328125 
Q 45.015625 15.765625 45.015625 23.390625 
Q 45.015625 31 40.078125 35.4375 
Q 35.15625 39.890625 26.703125 39.890625 
Q 22.75 39.890625 18.8125 39.015625 
Q 14.890625 38.140625 10.796875 36.28125 
z
" id="DejaVuSans-53"/>
      </defs>
      <g transform="translate(15.609375 267.726114)scale(0.1 -0.1)">
       <use xlink:href="#DejaVuSans-48"/>
       <use x="63.623047" xlink:href="#DejaVuSans-46"/>
       <use x="95.410156" xlink:href="#DejaVuSans-48"/>
       <use x="159.033203" xlink:href="#DejaVuSans-48"/>
       <use x="222.65625" xlink:href="#DejaVuSans-50"/>
       <use x="286.279297" xlink:href="#DejaVuSans-53"/>
      </g>
     </g>
    </g>
    <g id="ytick_3">
     <g id="line2d_11">
      <g>
       <use style="stroke:#000000;stroke-width:0.8;" x="57.6" xlink:href="#m38d6fcd9af" y="232.232806"/>
      </g>
     </g>
     <g id="text_11">
      <!-- 0.0050 -->
      <g transform="translate(15.609375 236.032025)scale(0.1 -0.1)">
       <use xlink:href="#DejaVuSans-48"/>
       <use x="63.623047" xlink:href="#DejaVuSans-46"/>
       <use x="95.410156" xlink:href="#DejaVuSans-48"/>
       <use x="159.033203" xlink:href="#DejaVuSans-48"/>
       <use x="222.65625" xlink:href="#DejaVuSans-53"/>
       <use x="286.279297" xlink:href="#DejaVuSans-48"/>
      </g>
     </g>
    </g>
    <g id="ytick_4">
     <g id="line2d_12">
      <g>
       <use style="stroke:#000000;stroke-width:0.8;" x="57.6" xlink:href="#m38d6fcd9af" y="200.538717"/>
      </g>
     </g>
     <g id="text_12">
      <!-- 0.0075 -->
      <defs>
       <path d="M 8.203125 72.90625 
L 55.078125 72.90625 
L 55.078125 68.703125 
L 28.609375 0 
L 18.3125 0 
L 43.21875 64.59375 
L 8.203125 64.59375 
z
" id="DejaVuSans-55"/>
      </defs>
      <g transform="translate(15.609375 204.337935)scale(0.1 -0.1)">
       <use xlink:href="#DejaVuSans-48"/>
       <use x="63.623047" xlink:href="#DejaVuSans-46"/>
       <use x="95.410156" xlink:href="#DejaVuSans-48"/>
       <use x="159.033203" xlink:href="#DejaVuSans-48"/>
       <use x="222.65625" xlink:href="#DejaVuSans-55"/>
       <use x="286.279297" xlink:href="#DejaVuSans-53"/>
      </g>
     </g>
    </g>
    <g id="ytick_5">
     <g id="line2d_13">
      <g>
       <use style="stroke:#000000;stroke-width:0.8;" x="57.6" xlink:href="#m38d6fcd9af" y="168.844627"/>
      </g>
     </g>
     <g id="text_13">
      <!-- 0.0100 -->
      <g transform="translate(15.609375 172.643846)scale(0.1 -0.1)">
       <use xlink:href="#DejaVuSans-48"/>
       <use x="63.623047" xlink:href="#DejaVuSans-46"/>
       <use x="95.410156" xlink:href="#DejaVuSans-48"/>
       <use x="159.033203" xlink:href="#DejaVuSans-49"/>
       <use x="222.65625" xlink:href="#DejaVuSans-48"/>
       <use x="286.279297" xlink:href="#DejaVuSans-48"/>
      </g>
     </g>
    </g>
    <g id="ytick_6">
     <g id="line2d_14">
      <g>
       <use style="stroke:#000000;stroke-width:0.8;" x="57.6" xlink:href="#m38d6fcd9af" y="137.150538"/>
      </g>
     </g>
     <g id="text_14">
      <!-- 0.0125 -->
      <g transform="translate(15.609375 140.949756)scale(0.1 -0.1)">
       <use xlink:href="#DejaVuSans-48"/>
       <use x="63.623047" xlink:href="#DejaVuSans-46"/>
       <use x="95.410156" xlink:href="#DejaVuSans-48"/>
       <use x="159.033203" xlink:href="#DejaVuSans-49"/>
       <use x="222.65625" xlink:href="#DejaVuSans-50"/>
       <use x="286.279297" xlink:href="#DejaVuSans-53"/>
      </g>
     </g>
    </g>
    <g id="ytick_7">
     <g id="line2d_15">
      <g>
       <use style="stroke:#000000;stroke-width:0.8;" x="57.6" xlink:href="#m38d6fcd9af" y="105.456448"/>
      </g>
     </g>
     <g id="text_15">
      <!-- 0.0150 -->
      <g transform="translate(15.609375 109.255667)scale(0.1 -0.1)">
       <use xlink:href="#DejaVuSans-48"/>
       <use x="63.623047" xlink:href="#DejaVuSans-46"/>
       <use x="95.410156" xlink:href="#DejaVuSans-48"/>
       <use x="159.033203" xlink:href="#DejaVuSans-49"/>
       <use x="222.65625" xlink:href="#DejaVuSans-53"/>
       <use x="286.279297" xlink:href="#DejaVuSans-48"/>
      </g>
     </g>
    </g>
    <g id="ytick_8">
     <g id="line2d_16">
      <g>
       <use style="stroke:#000000;stroke-width:0.8;" x="57.6" xlink:href="#m38d6fcd9af" y="73.762359"/>
      </g>
     </g>
     <g id="text_16">
      <!-- 0.0175 -->
      <g transform="translate(15.609375 77.561577)scale(0.1 -0.1)">
       <use xlink:href="#DejaVuSans-48"/>
       <use x="63.623047" xlink:href="#DejaVuSans-46"/>
       <use x="95.410156" xlink:href="#DejaVuSans-48"/>
       <use x="159.033203" xlink:href="#DejaVuSans-49"/>
       <use x="222.65625" xlink:href="#DejaVuSans-55"/>
       <use x="286.279297" xlink:href="#DejaVuSans-53"/>
      </g>
     </g>
    </g>
    <g id="ytick_9">
     <g id="line2d_17">
      <g>
       <use style="stroke:#000000;stroke-width:0.8;" x="57.6" xlink:href="#m38d6fcd9af" y="42.068269"/>
      </g>
     </g>
     <g id="text_17">
      <!-- 0.0200 -->
      <g transform="translate(15.609375 45.867488)scale(0.1 -0.1)">
       <use xlink:href="#DejaVuSans-48"/>
       <use x="63.623047" xlink:href="#DejaVuSans-46"/>
       <use x="95.410156" xlink:href="#DejaVuSans-48"/>
       <use x="159.033203" xlink:href="#DejaVuSans-50"/>
       <use x="222.65625" xlink:href="#DejaVuSans-48"/>
       <use x="286.279297" xlink:href="#DejaVuSans-48"/>
      </g>
     </g>
    </g>
   </g>
   <g id="line2d_18">
    <path clip-path="url(#p7f88046cc5)" d="M 73.832727 290.350511 
L 74.064789 288.989273 
L 74.296851 288.718711 
L 74.528913 288.183172 
L 74.760975 287.944036 
L 74.993037 288.658561 
L 75.225098 290.084059 
L 75.45716 290.75515 
L 75.921284 289.843302 
L 76.153346 291.890587 
L 76.385408 292.589353 
L 76.61747 292.914317 
L 76.849531 292.299753 
L 77.081593 292.615087 
L 77.545717 288.568493 
L 77.777779 293.333268 
L 78.009841 293.883893 
L 78.241903 294.112817 
L 78.473965 294.588192 
L 78.706026 293.237926 
L 78.938088 293.739087 
L 79.17015 289.358322 
L 79.402212 291.053814 
L 79.634274 293.696713 
L 79.866336 293.829689 
L 80.098398 293.082505 
L 80.562521 294.864015 
L 81.026645 293.993434 
L 81.258707 294.654446 
L 81.490769 294.610425 
L 81.722831 293.842047 
L 81.954892 294.592725 
L 82.186954 292.397933 
L 82.651078 294.614592 
L 82.88314 295.223269 
L 83.115202 294.885436 
L 83.347264 293.710061 
L 83.579325 294.759619 
L 83.811387 295.237241 
L 84.275511 292.964997 
L 84.507573 294.925193 
L 84.739635 294.405279 
L 84.971697 294.683142 
L 85.203759 294.434076 
L 85.43582 293.328571 
L 85.667882 293.519621 
L 85.899944 294.739047 
L 86.132006 294.051296 
L 86.364068 294.5826 
L 86.59613 293.478976 
L 86.828192 294.015693 
L 87.292315 295.440014 
L 87.524377 294.828497 
L 87.756439 295.356031 
L 87.988501 295.422497 
L 88.452625 293.973823 
L 88.684686 294.783715 
L 88.916748 292.662228 
L 89.14881 294.608772 
L 89.380872 294.596018 
L 89.612934 292.724998 
L 90.30912 295.181418 
L 90.541181 295.06762 
L 90.773243 293.796417 
L 91.005305 294.78238 
L 91.237367 293.81905 
L 91.469429 293.516321 
L 91.701491 294.415397 
L 91.933553 294.320069 
L 92.165614 293.587794 
L 92.397676 294.525362 
L 92.629738 293.759415 
L 92.8618 295.488 
L 93.093862 294.3396 
L 93.325924 294.568435 
L 93.557986 294.269191 
L 93.790047 294.605852 
L 94.022109 294.476901 
L 94.254171 295.235464 
L 94.718295 293.983395 
L 94.950357 294.694234 
L 95.182419 294.489749 
L 95.41448 294.553252 
L 95.646542 295.045761 
L 95.878604 292.138182 
L 96.110666 294.987839 
L 96.342728 295.219232 
L 96.57479 293.339249 
L 96.806852 294.487254 
L 97.038914 291.413285 
L 97.270975 294.385528 
L 97.503037 294.780106 
L 97.967161 294.556527 
L 98.199223 293.733605 
L 98.431285 294.918469 
L 98.663347 291.662562 
L 98.895408 295.048405 
L 99.12747 294.453833 
L 99.359532 294.395569 
L 99.591594 293.260186 
L 99.823656 293.565333 
L 100.055718 294.31214 
L 100.28778 293.819283 
L 100.519841 294.029902 
L 100.751903 294.821116 
L 100.983965 294.04686 
L 101.216027 295.09568 
L 101.448089 295.449137 
L 101.680151 294.895954 
L 101.912213 293.102246 
L 102.144274 294.474224 
L 102.376336 293.63674 
L 102.608398 294.529423 
L 102.84046 294.64026 
L 103.072522 295.323978 
L 103.304584 294.382701 
L 103.536646 294.689309 
L 103.768708 294.788036 
L 104.000769 294.709621 
L 104.232831 294.236964 
L 104.464893 294.445495 
L 104.696955 293.695475 
L 104.929017 295.12478 
L 105.161079 293.466264 
L 105.393141 294.036008 
L 105.857264 293.611382 
L 106.089326 294.38425 
L 106.321388 293.505266 
L 106.55345 294.270748 
L 106.785512 294.418434 
L 107.017574 293.712326 
L 107.481697 294.522142 
L 107.713759 291.240205 
L 107.945821 294.291478 
L 108.409945 293.76886 
L 108.874068 294.066937 
L 109.10613 294.441606 
L 109.338192 294.126218 
L 109.570254 294.213165 
L 109.802316 293.740155 
L 110.034378 294.415693 
L 110.26644 294.55361 
L 110.498502 294.538163 
L 110.730563 295.301733 
L 110.962625 295.397798 
L 111.194687 294.205432 
L 111.426749 294.0652 
L 111.658811 293.742259 
L 111.890873 294.019313 
L 112.122935 294.670582 
L 112.354996 294.614014 
L 112.587058 294.828993 
L 113.051182 294.195585 
L 113.283244 294.392053 
L 113.515306 294.140092 
L 114.211491 294.522465 
L 114.443553 294.21987 
L 114.675615 294.488646 
L 114.907677 293.14343 
L 115.139739 294.454553 
L 115.371801 294.371865 
L 115.603862 294.91417 
L 115.835924 294.44831 
L 116.067986 294.930578 
L 116.300048 294.0412 
L 116.53211 294.240535 
L 117.460357 294.024815 
L 117.692419 294.253641 
L 117.924481 294.110585 
L 118.156543 293.608518 
L 118.388605 293.559392 
L 118.620667 294.064065 
L 118.852729 294.172875 
L 119.08479 294.123603 
L 119.316852 294.642407 
L 119.780976 294.029935 
L 120.013038 292.382243 
L 120.477162 293.980918 
L 120.941285 294.558985 
L 121.173347 293.583732 
L 121.405409 293.374602 
L 121.637471 293.336312 
L 121.869533 294.098865 
L 122.101595 293.512522 
L 122.333657 294.348313 
L 122.565718 292.109131 
L 122.79778 295.256534 
L 123.029842 294.173858 
L 123.261904 294.842798 
L 123.493966 294.553102 
L 123.726028 294.701939 
L 123.95809 293.596696 
L 124.654275 294.250468 
L 124.886337 293.480404 
L 125.118399 293.839378 
L 125.350461 293.828499 
L 125.582523 294.039249 
L 125.814584 294.587451 
L 126.046646 294.282076 
L 126.278708 293.593226 
L 126.51077 294.227717 
L 126.742832 294.438206 
L 126.974894 293.817261 
L 127.206956 293.596529 
L 127.439017 294.474641 
L 127.671079 293.924478 
L 127.903141 293.842112 
L 128.135203 294.19294 
L 128.599327 293.822165 
L 128.831389 292.501047 
L 129.063451 293.980222 
L 129.295512 292.591471 
L 129.527574 294.387604 
L 129.991698 294.863862 
L 130.22376 294.1998 
L 130.455822 290.167665 
L 130.687884 293.91955 
L 131.152007 294.000346 
L 131.616131 294.48491 
L 131.848193 293.941509 
L 132.080255 294.601844 
L 132.312317 293.337104 
L 132.544378 293.165792 
L 132.77644 294.508347 
L 133.008502 294.632898 
L 133.240564 291.675348 
L 133.472626 294.219639 
L 133.704688 293.26565 
L 133.93675 294.074175 
L 134.168811 293.963059 
L 134.400873 294.424434 
L 134.632935 294.196297 
L 134.864997 294.456486 
L 135.097059 294.516468 
L 135.329121 295.189802 
L 135.561183 295.317921 
L 135.793245 294.078528 
L 136.025306 294.686052 
L 136.257368 293.85522 
L 136.721492 294.701882 
L 136.953554 294.107403 
L 137.185616 294.420191 
L 137.649739 294.297804 
L 137.881801 293.947445 
L 138.113863 294.621036 
L 138.345925 293.89584 
L 138.577987 294.572952 
L 138.810049 294.070662 
L 139.042111 294.470072 
L 139.506234 294.477078 
L 139.738296 293.742089 
L 139.970358 294.762297 
L 140.20242 293.967929 
L 140.434482 293.86128 
L 140.666544 293.132712 
L 140.898605 294.633534 
L 141.130667 293.91225 
L 141.362729 293.838974 
L 141.594791 293.614801 
L 141.826853 294.602297 
L 142.058915 294.065781 
L 142.290977 294.020347 
L 142.523039 293.51695 
L 142.7551 294.039066 
L 142.987162 293.465357 
L 143.451286 294.760405 
L 143.683348 294.107963 
L 143.91541 294.55467 
L 144.147472 294.596123 
L 144.379533 294.147602 
L 144.611595 293.197654 
L 144.843657 294.339981 
L 145.075719 291.991148 
L 145.307781 294.871727 
L 145.539843 294.403296 
L 145.771905 294.202658 
L 146.003966 294.682295 
L 146.236028 294.291918 
L 146.46809 294.853055 
L 146.700152 293.817922 
L 146.932214 294.466414 
L 147.164276 293.924793 
L 147.396338 294.462987 
L 147.6284 294.497681 
L 147.860461 293.179243 
L 148.092523 293.521341 
L 148.324585 294.69 
L 148.556647 294.166331 
L 148.788709 294.263374 
L 149.020771 292.935932 
L 149.252833 294.433476 
L 149.484894 294.834933 
L 149.716956 294.172631 
L 149.949018 293.847028 
L 150.18108 293.80896 
L 150.413142 294.653121 
L 150.645204 293.144178 
L 150.877266 294.404646 
L 151.341389 293.356228 
L 151.573451 294.469423 
L 151.805513 294.275137 
L 152.037575 295.196115 
L 152.269637 294.100457 
L 152.501699 294.447647 
L 152.73376 294.475811 
L 152.965822 294.648906 
L 153.197884 294.570685 
L 153.429946 293.642189 
L 153.662008 294.389703 
L 153.89407 294.589272 
L 154.126132 294.470382 
L 154.358194 292.842381 
L 154.590255 293.200401 
L 154.822317 293.245586 
L 155.054379 294.540766 
L 155.286441 294.576362 
L 155.518503 293.283671 
L 155.982627 293.156216 
L 156.214688 294.541571 
L 156.44675 293.258605 
L 157.839121 292.833803 
L 158.071183 294.12731 
L 158.303245 294.578781 
L 158.535307 293.292936 
L 158.767369 293.750354 
L 158.999431 292.308146 
L 159.231493 292.619469 
L 159.463554 293.261899 
L 159.695616 292.991505 
L 159.927678 292.969836 
L 160.391802 291.612199 
L 160.623864 291.959071 
L 160.855926 292.069851 
L 161.087988 291.629264 
L 161.320049 292.166001 
L 161.552111 294.116012 
L 161.784173 293.564019 
L 162.016235 294.248901 
L 162.480359 294.924295 
L 162.712421 293.306321 
L 162.944482 293.418326 
L 163.176544 293.201642 
L 163.408606 293.318957 
L 163.640668 292.738175 
L 164.104792 294.356545 
L 164.336854 294.322985 
L 164.568915 293.004048 
L 164.800977 294.152656 
L 165.033039 292.994319 
L 165.265101 294.379995 
L 165.497163 294.483759 
L 165.729225 293.100347 
L 165.961287 294.530886 
L 166.193348 294.541448 
L 166.42541 293.096591 
L 166.657472 293.102235 
L 166.889534 294.047786 
L 167.121596 293.45669 
L 167.353658 294.019293 
L 167.58572 293.60196 
L 167.817782 293.717922 
L 168.049843 293.428919 
L 168.281905 294.822774 
L 168.513967 294.46469 
L 168.746029 294.649628 
L 168.978091 294.294402 
L 169.210153 292.155115 
L 169.442215 292.93036 
L 169.674276 292.471317 
L 169.906338 294.246467 
L 170.1384 294.627323 
L 170.370462 292.854135 
L 170.602524 294.019786 
L 170.834586 294.001051 
L 171.066648 293.168146 
L 171.298709 293.634683 
L 171.530771 294.809742 
L 171.762833 293.412008 
L 171.994895 294.102673 
L 172.226957 294.173568 
L 172.459019 293.337188 
L 172.691081 293.445695 
L 172.923143 293.403029 
L 173.155204 292.563255 
L 173.619328 293.128562 
L 174.083452 292.349585 
L 175.243761 291.997624 
L 175.475823 291.495876 
L 175.707885 292.780088 
L 176.172009 291.402011 
L 176.40407 292.925395 
L 176.868194 291.997506 
L 177.332318 291.918305 
L 177.56438 291.45124 
L 178.028503 293.439303 
L 178.260565 291.931034 
L 178.492627 292.248352 
L 178.724689 295.025423 
L 178.956751 293.120173 
L 179.188813 293.913366 
L 179.420875 293.363031 
L 179.884998 294.427794 
L 180.11706 293.348819 
L 180.349122 294.345038 
L 180.581184 293.532179 
L 180.813246 293.142806 
L 181.045308 294.20159 
L 181.27737 293.160063 
L 181.509431 294.193759 
L 181.741493 293.166492 
L 181.973555 293.313982 
L 182.205617 294.301153 
L 182.437679 293.838709 
L 182.669741 294.194986 
L 182.901803 294.116049 
L 183.597988 293.19554 
L 184.062112 293.04239 
L 184.294174 294.187915 
L 184.526236 293.938052 
L 184.758297 292.971862 
L 184.990359 294.329141 
L 185.454483 292.829892 
L 185.686545 293.914806 
L 185.918607 293.338627 
L 186.150669 293.263784 
L 186.382731 293.947576 
L 186.614792 293.077245 
L 186.846854 292.851712 
L 187.54304 293.568991 
L 187.775102 293.068324 
L 188.007164 293.446414 
L 188.239225 293.337043 
L 188.471287 291.42441 
L 188.703349 292.794517 
L 188.935411 292.654708 
L 189.167473 292.680959 
L 189.399535 293.474654 
L 189.631597 293.081609 
L 189.863658 293.082405 
L 190.09572 292.67406 
L 190.327782 293.839846 
L 190.559844 293.416287 
L 190.791906 293.294259 
L 191.023968 294.376973 
L 191.25603 293.154494 
L 191.720153 293.217712 
L 191.952215 293.274169 
L 192.184277 294.712316 
L 192.648401 293.663278 
L 192.880463 293.174407 
L 193.112525 294.351376 
L 193.344586 293.224019 
L 193.576648 292.73848 
L 193.80871 294.916287 
L 194.040772 293.538969 
L 194.272834 294.362212 
L 194.504896 293.987569 
L 194.736958 294.293698 
L 194.969019 293.83756 
L 195.201081 295.364828 
L 195.897267 293.139079 
L 196.361391 293.973634 
L 196.593452 294.177058 
L 196.825514 293.52267 
L 197.057576 294.227334 
L 197.289638 294.557492 
L 197.5217 293.389792 
L 197.753762 293.897352 
L 197.985824 292.585902 
L 198.217886 293.151317 
L 198.449947 293.346618 
L 198.682009 293.818097 
L 198.914071 293.376716 
L 199.146133 294.002311 
L 199.378195 293.617737 
L 199.610257 293.543914 
L 199.842319 294.70172 
L 200.07438 293.60572 
L 200.306442 293.688207 
L 200.538504 293.009894 
L 200.770566 293.390483 
L 201.002628 293.389755 
L 201.466752 293.698225 
L 201.698813 293.598392 
L 201.930875 294.624786 
L 202.162937 295.121902 
L 202.394999 293.307852 
L 202.627061 293.979327 
L 202.859123 292.813457 
L 203.091185 293.094694 
L 203.555308 294.767803 
L 203.78737 293.302204 
L 204.019432 294.322894 
L 204.251494 294.263437 
L 204.483556 293.724714 
L 204.94768 293.81393 
L 205.179741 294.595638 
L 205.411803 293.362411 
L 205.875927 295.04659 
L 206.107989 294.379191 
L 206.340051 294.975381 
L 206.572113 294.503827 
L 206.804174 294.323604 
L 207.036236 294.930767 
L 207.268298 295.070504 
L 207.50036 294.035948 
L 207.732422 294.360409 
L 207.964484 294.442203 
L 208.196546 293.401833 
L 208.428607 293.943325 
L 208.892731 293.300211 
L 209.124793 293.991166 
L 209.356855 294.151188 
L 209.588917 293.135416 
L 209.820979 294.132654 
L 210.05304 293.275365 
L 210.285102 293.230189 
L 210.517164 293.558168 
L 210.749226 292.664411 
L 210.981288 293.434782 
L 211.21335 293.666817 
L 211.445412 294.493877 
L 211.677474 293.937098 
L 211.909535 292.990954 
L 212.141597 293.086875 
L 212.373659 294.018556 
L 212.837783 294.370333 
L 213.069845 295.237861 
L 213.301907 293.852546 
L 213.998092 294.869721 
L 214.462216 294.324362 
L 214.694278 294.451965 
L 214.92634 294.38218 
L 215.158401 293.984867 
L 215.390463 294.504588 
L 215.622525 291.805143 
L 215.854587 294.556788 
L 216.086649 293.944415 
L 216.318711 293.872376 
L 216.550773 293.640091 
L 216.782834 294.452928 
L 217.014896 294.590775 
L 217.246958 294.233255 
L 217.47902 293.454719 
L 217.711082 294.010952 
L 217.943144 293.372773 
L 218.407268 294.396697 
L 218.639329 293.272571 
L 218.871391 293.448796 
L 219.103453 293.878571 
L 219.335515 293.91105 
L 219.567577 294.290278 
L 219.799639 294.913105 
L 220.263762 294.005881 
L 220.727886 293.97654 
L 220.959948 293.906814 
L 221.19201 294.675259 
L 221.424072 294.519975 
L 221.656134 293.2296 
L 221.888195 293.621809 
L 222.120257 293.592091 
L 222.352319 294.274859 
L 222.584381 294.068407 
L 222.816443 294.242872 
L 223.048505 293.633509 
L 223.280567 294.270337 
L 223.512629 293.737951 
L 223.74469 294.030724 
L 223.976752 294.619682 
L 224.208814 294.503879 
L 224.440876 288.74309 
L 224.672938 294.930015 
L 224.905 294.156487 
L 225.137062 295.040796 
L 225.369123 293.854081 
L 225.601185 294.796522 
L 225.833247 293.583443 
L 226.065309 293.665582 
L 226.297371 294.190484 
L 226.529433 294.403243 
L 226.761495 293.122274 
L 226.993556 293.899026 
L 227.45768 294.112108 
L 227.689742 293.516985 
L 227.921804 294.679793 
L 228.153866 293.935093 
L 228.385928 294.840832 
L 228.617989 294.343018 
L 228.850051 294.824628 
L 229.082113 293.024151 
L 229.314175 294.201358 
L 229.546237 294.689971 
L 229.778299 294.145017 
L 230.010361 295.02461 
L 230.474484 293.559911 
L 230.706546 293.58881 
L 230.938608 292.814531 
L 231.402732 293.983251 
L 231.866856 294.170822 
L 232.098917 294.470665 
L 232.563041 294.602961 
L 233.027165 294.026258 
L 233.259227 294.540563 
L 233.491289 294.52348 
L 233.72335 294.008436 
L 234.187474 294.425071 
L 234.419536 293.606608 
L 234.651598 293.955805 
L 234.88366 294.72715 
L 235.347783 293.587507 
L 235.579845 293.844101 
L 235.811907 293.366179 
L 236.043969 292.309392 
L 236.276031 294.867645 
L 236.740155 292.417247 
L 236.972217 293.347917 
L 237.204278 292.436308 
L 237.43634 292.433285 
L 237.668402 295.27253 
L 237.900464 292.785204 
L 238.132526 294.542578 
L 238.364588 293.485068 
L 238.828711 293.478689 
L 239.060773 294.213985 
L 239.292835 293.503143 
L 239.524897 293.852017 
L 239.756959 293.840234 
L 239.989021 294.558135 
L 240.221083 293.578343 
L 240.453144 294.807686 
L 240.685206 293.563008 
L 240.917268 293.369159 
L 241.14933 293.776004 
L 241.381392 293.850065 
L 241.613454 294.580497 
L 241.845516 293.055176 
L 242.077577 293.702786 
L 242.309639 293.243576 
L 242.541701 294.162167 
L 243.005825 292.361215 
L 243.237887 293.794956 
L 243.469949 293.071533 
L 243.702011 293.028576 
L 243.934072 292.806367 
L 244.166134 293.357992 
L 244.398196 293.531375 
L 244.630258 293.452267 
L 244.86232 292.652119 
L 245.094382 292.750705 
L 245.326444 293.11445 
L 245.790567 292.863204 
L 246.022629 293.07908 
L 246.254691 293.138057 
L 246.486753 293.620431 
L 246.718815 294.568642 
L 246.950877 292.543097 
L 247.182938 292.431194 
L 247.415 294.617785 
L 247.647062 293.335472 
L 247.879124 294.248334 
L 248.111186 293.550214 
L 248.343248 293.291505 
L 248.57531 293.290619 
L 248.807371 293.897528 
L 249.039433 293.377012 
L 249.271495 293.54408 
L 249.503557 294.115356 
L 249.735619 293.436814 
L 249.967681 294.26584 
L 250.199743 293.547101 
L 250.431805 293.599923 
L 250.663866 294.293833 
L 250.895928 294.193767 
L 251.12799 294.656104 
L 251.360052 294.191519 
L 251.824176 294.40842 
L 252.056238 294.113567 
L 252.288299 294.466924 
L 252.520361 293.502007 
L 252.752423 294.304925 
L 252.984485 293.686606 
L 253.216547 294.386494 
L 253.448609 293.743101 
L 253.912732 294.131936 
L 254.144794 293.562775 
L 254.376856 293.573628 
L 254.608918 294.190331 
L 254.84098 294.192532 
L 255.073042 293.699884 
L 255.305104 293.532776 
L 255.537166 294.425929 
L 255.769227 294.148912 
L 256.001289 293.355044 
L 256.233351 293.139434 
L 256.465413 294.019841 
L 256.697475 292.763513 
L 256.929537 292.849663 
L 257.857784 292.220897 
L 258.089846 292.91797 
L 258.55397 292.842359 
L 258.786032 292.199406 
L 259.250155 294.114696 
L 259.714279 292.673768 
L 259.946341 292.682898 
L 260.178403 293.381722 
L 260.410465 293.297965 
L 260.642526 294.735534 
L 260.874588 293.474034 
L 261.338712 294.528425 
L 261.570774 293.581949 
L 262.26696 292.860102 
L 262.499021 293.161124 
L 262.731083 292.815916 
L 262.963145 292.929293 
L 263.195207 294.159166 
L 263.427269 293.852908 
L 263.659331 293.323465 
L 263.891393 293.989249 
L 264.123454 294.17011 
L 264.355516 293.442768 
L 264.587578 294.197438 
L 264.81964 292.815455 
L 265.051702 293.865569 
L 265.283764 293.772295 
L 265.515826 293.869625 
L 265.747887 293.067408 
L 265.979949 293.78361 
L 266.212011 293.469784 
L 266.908197 293.259411 
L 267.140259 293.249668 
L 267.604382 293.558789 
L 268.068506 293.460337 
L 268.300568 292.864701 
L 268.53263 292.858524 
L 268.764692 293.396281 
L 268.996754 292.66798 
L 269.228815 292.99326 
L 269.460877 293.12009 
L 269.692939 293.405003 
L 269.925001 293.192119 
L 270.389125 293.598078 
L 270.621187 293.405833 
L 271.08531 293.262715 
L 271.317372 294.086817 
L 271.549434 293.346421 
L 271.781496 294.066838 
L 272.013558 293.18784 
L 272.24562 293.993569 
L 272.477681 293.143399 
L 272.709743 293.757785 
L 272.941805 293.503999 
L 273.173867 293.863391 
L 273.405929 293.208125 
L 273.637991 294.043788 
L 273.870053 294.1594 
L 274.102114 293.249076 
L 274.334176 293.516855 
L 274.566238 293.962902 
L 274.7983 294.078791 
L 275.030362 292.807086 
L 275.262424 292.969486 
L 275.494486 293.873407 
L 275.726548 293.970909 
L 275.958609 294.568263 
L 276.190671 293.372296 
L 276.422733 293.967053 
L 276.654795 292.526322 
L 276.886857 293.450217 
L 277.118919 292.539652 
L 277.350981 293.077758 
L 277.583042 292.935471 
L 277.815104 292.998135 
L 278.047166 293.47751 
L 278.279228 293.225353 
L 278.51129 291.593778 
L 278.743352 293.123213 
L 278.975414 292.443657 
L 279.207475 293.216819 
L 279.439537 293.279944 
L 279.671599 293.161984 
L 279.903661 293.213598 
L 280.135723 294.839905 
L 280.367785 294.606065 
L 280.599847 293.683677 
L 280.831909 294.982663 
L 281.296032 293.062589 
L 281.528094 294.887045 
L 281.992218 293.000116 
L 282.22428 293.21801 
L 282.456342 293.207155 
L 282.688403 294.538438 
L 283.152527 294.17182 
L 283.384589 292.986172 
L 283.616651 293.720528 
L 283.848713 293.568677 
L 284.080775 292.378231 
L 284.312836 293.83644 
L 284.544898 292.068447 
L 284.77696 293.738931 
L 285.009022 294.386595 
L 285.241084 293.216167 
L 285.473146 293.101163 
L 285.705208 293.419302 
L 285.937269 293.116881 
L 286.169331 293.676904 
L 286.401393 293.191089 
L 286.633455 291.884265 
L 286.865517 293.454578 
L 287.097579 293.709141 
L 287.329641 293.499063 
L 287.561703 294.102758 
L 287.793764 294.077844 
L 288.025826 293.829835 
L 288.257888 293.347443 
L 288.48995 293.727194 
L 288.722012 293.68071 
L 288.954074 293.177616 
L 289.186136 294.110113 
L 289.418197 293.468138 
L 289.650259 294.744049 
L 289.882321 294.409586 
L 290.114383 293.658025 
L 290.346445 293.611915 
L 290.578507 294.013314 
L 290.810569 294.705512 
L 291.04263 294.448617 
L 291.274692 293.958127 
L 291.506754 294.034631 
L 291.738816 294.907755 
L 291.970878 294.236768 
L 292.20294 294.12021 
L 292.435002 294.697255 
L 292.667063 294.236627 
L 292.899125 294.430708 
L 293.131187 293.543643 
L 293.363249 294.059112 
L 293.595311 294.154551 
L 293.827373 294.466954 
L 294.75562 294.807335 
L 294.987682 294.029709 
L 295.219744 284.387582 
L 295.451806 294.763843 
L 295.683868 295.032492 
L 295.91593 294.714775 
L 296.147991 294.777895 
L 296.380053 294.668417 
L 296.612115 294.848225 
L 296.844177 294.15885 
L 297.076239 294.640418 
L 297.540363 294.684469 
L 297.772424 294.39858 
L 298.236548 294.55966 
L 298.46861 294.841423 
L 298.700672 294.488541 
L 298.932734 294.759264 
L 299.164796 293.98588 
L 299.396857 294.411506 
L 299.628919 295.183676 
L 299.860981 293.570152 
L 300.093043 294.382321 
L 300.325105 294.404326 
L 300.557167 294.204412 
L 300.789229 293.528655 
L 301.021291 294.383259 
L 301.253352 294.096733 
L 301.485414 294.445722 
L 301.717476 294.410314 
L 302.1816 294.60933 
L 302.413662 295.218078 
L 302.645724 294.283132 
L 303.109847 294.155304 
L 303.341909 294.80068 
L 303.573971 293.833296 
L 303.806033 294.94981 
L 304.038095 295.203956 
L 304.270157 294.41446 
L 304.502218 294.401613 
L 304.73428 291.315927 
L 304.966342 291.701424 
L 305.198404 291.259857 
L 305.430466 294.586285 
L 305.662528 294.80762 
L 305.89459 294.63293 
L 306.590775 294.685856 
L 306.822837 295.198554 
L 307.054899 292.392784 
L 307.519023 294.689793 
L 307.751085 294.958455 
L 307.983146 294.37046 
L 308.215208 294.757587 
L 308.44727 294.500418 
L 308.679332 294.795136 
L 308.911394 292.70774 
L 309.143456 294.125395 
L 309.375518 293.255672 
L 309.607579 283.511355 
L 309.839641 292.649929 
L 310.071703 294.45062 
L 310.303765 292.190259 
L 310.767889 294.228428 
L 310.999951 293.666958 
L 311.232012 293.904273 
L 311.464074 293.131711 
L 311.696136 291.573758 
L 311.928198 294.522993 
L 312.16026 294.971161 
L 312.392322 293.848155 
L 312.624384 294.775034 
L 312.856446 294.545902 
L 313.088507 294.957037 
L 313.320569 293.790563 
L 313.552631 290.616222 
L 313.784693 291.896517 
L 314.016755 291.093876 
L 314.248817 295.276116 
L 314.71294 294.231604 
L 314.945002 290.748988 
L 315.177064 291.15703 
L 315.409126 290.391291 
L 315.641188 292.822523 
L 315.87325 293.933343 
L 316.105312 292.925185 
L 316.337373 294.916289 
L 317.033559 292.224276 
L 317.497683 294.907436 
L 317.729745 294.499144 
L 317.961806 292.73408 
L 318.193868 292.250336 
L 318.42593 293.915601 
L 318.657992 292.688573 
L 318.890054 292.804484 
L 319.122116 293.221876 
L 319.354178 293.173161 
L 319.58624 290.289532 
L 319.818301 289.479302 
L 320.050363 291.730315 
L 320.282425 291.861952 
L 320.514487 292.563461 
L 320.746549 292.372048 
L 320.978611 292.777044 
L 321.210673 293.457171 
L 321.442734 293.434785 
L 321.674796 291.380399 
L 321.906858 291.482034 
L 322.370982 295.153295 
L 322.603044 293.444462 
L 322.835106 295.064016 
L 323.067167 295.380212 
L 323.299229 293.255843 
L 323.531291 294.252227 
L 323.763353 276.449956 
L 323.995415 292.351743 
L 324.227477 293.345009 
L 324.459539 291.881921 
L 324.6916 293.883142 
L 324.923662 294.75083 
L 325.155724 294.295758 
L 325.387786 291.0668 
L 325.619848 294.570438 
L 325.85191 291.462674 
L 326.083972 293.680054 
L 326.316034 288.955315 
L 326.548095 292.323059 
L 326.780157 293.094356 
L 327.012219 292.184691 
L 327.244281 293.049315 
L 327.476343 290.357995 
L 327.940467 293.621402 
L 328.172528 292.482415 
L 328.40459 292.614685 
L 328.636652 293.280643 
L 328.868714 293.465005 
L 329.100776 291.728838 
L 329.332838 293.554925 
L 329.796961 294.223204 
L 330.029023 295.088109 
L 330.493147 293.955817 
L 330.725209 293.726904 
L 330.957271 294.281673 
L 331.189333 293.491294 
L 331.421395 293.414652 
L 331.653456 293.625057 
L 331.885518 293.265487 
L 332.349642 293.2472 
L 332.813766 293.284036 
L 333.045828 294.612343 
L 333.277889 293.852832 
L 333.742013 293.562664 
L 333.974075 294.14058 
L 334.206137 290.617493 
L 334.438199 293.488727 
L 334.670261 293.402919 
L 334.902322 294.098939 
L 335.134384 291.40318 
L 335.598508 290.357957 
L 335.83057 289.385658 
L 336.062632 292.966207 
L 336.294694 290.674474 
L 336.526755 291.707897 
L 336.758817 288.318653 
L 336.990879 292.360895 
L 337.222941 292.507268 
L 337.455003 293.513056 
L 337.687065 292.552417 
L 337.919127 293.41149 
L 338.151189 293.1736 
L 338.38325 294.408159 
L 338.847374 293.823444 
L 339.775622 293.160516 
L 340.007683 292.702112 
L 340.239745 293.010772 
L 340.471807 292.760474 
L 340.703869 292.937484 
L 341.167993 292.957311 
L 341.632116 292.764603 
L 342.09624 292.99914 
L 342.328302 294.388696 
L 342.560364 291.993798 
L 342.792426 293.531335 
L 343.024488 293.273788 
L 343.720673 293.126822 
L 344.416859 293.503126 
L 344.880983 292.730758 
L 345.113044 294.753321 
L 345.345106 293.569639 
L 345.80923 294.335772 
L 346.041292 292.89034 
L 346.273354 294.323285 
L 346.505416 292.877052 
L 346.737477 293.918575 
L 346.969539 293.999984 
L 347.201601 294.439949 
L 347.433663 293.839321 
L 347.665725 294.75652 
L 347.897787 292.742707 
L 348.129849 292.931392 
L 348.593972 292.683353 
L 348.826034 295.190155 
L 349.058096 293.396112 
L 349.290158 292.56019 
L 349.52222 290.530895 
L 349.754282 291.937325 
L 350.218405 293.238358 
L 350.450467 292.897208 
L 350.682529 294.05395 
L 350.914591 291.494713 
L 351.146653 291.892261 
L 351.378715 293.863772 
L 351.610777 293.373653 
L 351.842838 294.521644 
L 352.0749 294.854504 
L 352.306962 294.646866 
L 352.771086 295.202483 
L 353.003148 292.769122 
L 353.23521 292.923285 
L 353.467271 294.174624 
L 353.699333 294.116511 
L 354.163457 293.700897 
L 354.395519 294.376078 
L 354.627581 293.457999 
L 355.091704 293.044124 
L 355.555828 292.890352 
L 356.019952 292.969743 
L 356.252014 293.116924 
L 356.484076 294.93334 
L 356.716138 293.116945 
L 357.180261 294.348467 
L 357.412323 293.368259 
L 357.644385 294.726052 
L 357.876447 294.044987 
L 358.108509 290.34247 
L 358.340571 294.955828 
L 358.572632 293.30112 
L 359.036756 295.138574 
L 359.268818 292.357339 
L 359.50088 292.874808 
L 359.732942 289.929672 
L 360.197065 292.079331 
L 360.429127 294.456362 
L 360.661189 294.037326 
L 360.893251 294.569445 
L 361.357375 293.107792 
L 361.589437 293.16521 
L 361.821498 294.807609 
L 362.285622 289.56708 
L 362.517684 294.686653 
L 362.749746 293.131087 
L 362.981808 289.133217 
L 363.21387 294.106634 
L 363.445932 291.887146 
L 363.677993 290.800954 
L 363.910055 292.365682 
L 364.142117 279.008163 
L 364.374179 294.9551 
L 364.606241 292.457955 
L 364.838303 292.535777 
L 365.070365 291.896867 
L 365.302426 293.964734 
L 365.534488 290.413279 
L 365.76655 292.55031 
L 365.998612 293.201547 
L 366.230674 292.501823 
L 366.462736 290.501852 
L 366.694798 294.078743 
L 366.926859 291.317196 
L 367.158921 292.56853 
L 367.390983 288.33742 
L 367.623045 293.380093 
L 367.855107 290.099658 
L 368.319231 293.278344 
L 368.551292 293.57816 
L 368.783354 293.051643 
L 369.015416 291.212486 
L 369.247478 292.249366 
L 369.47954 291.07269 
L 369.711602 288.119739 
L 369.943664 295.087261 
L 370.175726 294.582884 
L 370.407787 291.11042 
L 370.639849 290.891329 
L 371.103973 290.685181 
L 371.336035 290.082251 
L 371.568097 291.633805 
L 371.800159 290.950696 
L 372.03222 293.73661 
L 372.264282 293.214031 
L 372.496344 292.395194 
L 372.960468 293.270821 
L 373.19253 291.862348 
L 373.424592 294.596846 
L 373.656653 291.192828 
L 373.888715 290.297689 
L 374.120777 293.52939 
L 374.352839 290.314774 
L 374.816963 293.746624 
L 375.049025 293.482666 
L 375.281086 291.622913 
L 375.513148 291.859094 
L 375.74521 295.263897 
L 375.977272 293.056977 
L 376.209334 292.594208 
L 376.441396 294.187951 
L 376.673458 294.06674 
L 376.90552 292.514413 
L 377.369643 292.235489 
L 377.601705 294.645048 
L 377.833767 292.288855 
L 378.065829 292.048593 
L 378.297891 294.966761 
L 378.529953 293.750883 
L 378.762014 294.775198 
L 378.994076 293.572952 
L 379.226138 294.428136 
L 379.690262 291.855419 
L 379.922324 295.162874 
L 380.154386 295.21817 
L 380.386447 294.467684 
L 380.618509 295.303706 
L 380.850571 294.928951 
L 381.082633 295.268965 
L 381.314695 292.78533 
L 381.546757 293.327269 
L 381.778819 293.208396 
L 382.01088 291.575144 
L 382.242942 294.945329 
L 382.475004 287.059643 
L 382.707066 287.728891 
L 382.939128 292.682179 
L 383.17119 287.929473 
L 383.403252 288.059239 
L 383.867375 293.769721 
L 384.099437 293.972481 
L 384.331499 291.832754 
L 384.563561 288.422577 
L 384.795623 289.72963 
L 385.027685 289.927084 
L 385.259747 289.35767 
L 385.491808 287.323266 
L 385.72387 294.519182 
L 386.187994 290.236188 
L 386.420056 292.81108 
L 386.652118 291.451987 
L 386.88418 295.148642 
L 387.116241 291.591577 
L 387.348303 291.374902 
L 387.580365 290.8357 
L 387.812427 293.631642 
L 388.044489 294.604869 
L 388.276551 293.4577 
L 388.508613 292.896163 
L 388.740675 293.153454 
L 388.972736 294.860676 
L 389.204798 295.16252 
L 389.43686 292.966351 
L 389.668922 294.607641 
L 389.900984 293.988753 
L 390.133046 295.115313 
L 390.365108 294.157054 
L 390.829231 295.060095 
L 391.293355 293.004431 
L 391.525417 293.745896 
L 391.757479 292.78013 
L 391.989541 287.736216 
L 392.221602 292.33907 
L 392.685726 293.978691 
L 392.917788 292.863508 
L 393.14985 293.170977 
L 393.381912 293.82991 
L 393.613974 290.980218 
L 393.846035 291.443263 
L 394.078097 290.796754 
L 394.310159 291.1325 
L 394.542221 293.389367 
L 394.774283 291.890885 
L 395.006345 293.022919 
L 395.238407 292.830905 
L 395.470469 292.232416 
L 395.70253 292.408419 
L 395.934592 293.544063 
L 396.166654 292.067175 
L 396.398716 294.521129 
L 396.630778 292.29223 
L 397.094902 294.184852 
L 397.326963 292.594494 
L 397.559025 292.53738 
L 397.791087 294.187935 
L 398.023149 292.566915 
L 398.255211 292.429797 
L 398.487273 293.313101 
L 398.487273 293.313101 
" style="fill:none;stroke:#1f77b4;stroke-linecap:square;stroke-width:1.5;"/>
   </g>
   <g id="line2d_19">
    <path clip-path="url(#p7f88046cc5)" d="M 73.832727 53.568 
L 74.296851 131.25501 
L 74.760975 185.103244 
L 74.993037 190.695207 
L 75.225098 192.896061 
L 75.45716 210.130802 
L 75.689222 211.215591 
L 75.921284 209.634907 
L 76.153346 198.614775 
L 76.61747 191.8529 
L 76.849531 181.113694 
L 77.081593 178.632158 
L 77.545717 142.942315 
L 77.777779 124.229091 
L 78.241903 130.661268 
L 78.473965 133.755065 
L 78.706026 127.517452 
L 78.938088 138.14075 
L 79.17015 138.763552 
L 79.402212 146.715407 
L 79.866336 174.216969 
L 80.098398 197.082674 
L 80.562521 206.331228 
L 80.794583 221.215654 
L 81.258707 235.369137 
L 81.490769 252.082807 
L 81.722831 257.922747 
L 81.954892 234.226556 
L 82.419016 248.783403 
L 82.651078 256.342424 
L 82.88314 259.228619 
L 83.115202 245.821558 
L 83.347264 250.727959 
L 83.579325 262.021983 
L 83.811387 237.970054 
L 84.275511 264.647688 
L 84.507573 250.01443 
L 84.739635 250.146188 
L 84.971697 246.489466 
L 85.203759 228.932311 
L 85.43582 236.943616 
L 85.667882 225.106476 
L 85.899944 228.80357 
L 86.132006 216.151089 
L 86.59613 241.860305 
L 86.828192 227.023463 
L 87.060253 234.704417 
L 87.292315 220.156102 
L 87.756439 213.178962 
L 88.220563 209.647437 
L 88.452625 225.225401 
L 88.684686 212.420605 
L 88.916748 229.907017 
L 89.14881 217.038802 
L 89.380872 218.50506 
L 89.612934 228.354617 
L 89.844996 227.840515 
L 90.077058 238.954961 
L 90.541181 205.518439 
L 90.773243 204.984658 
L 91.005305 202.894498 
L 91.237367 215.655714 
L 91.469429 210.204498 
L 91.701491 209.723662 
L 91.933553 205.138496 
L 92.165614 222.694855 
L 92.397676 210.232156 
L 92.629738 205.318552 
L 92.8618 227.795725 
L 93.093862 212.69977 
L 93.325924 231.65706 
L 93.557986 230.002169 
L 94.022109 246.247176 
L 94.486233 219.430554 
L 94.718295 240.938531 
L 95.182419 224.110937 
L 95.41448 227.69847 
L 95.646542 238.991572 
L 95.878604 208.580601 
L 96.110666 242.044244 
L 96.342728 245.359258 
L 96.57479 240.173101 
L 96.806852 228.208637 
L 97.038914 227.455863 
L 97.270975 220.767639 
L 97.503037 210.544229 
L 97.735099 210.612653 
L 97.967161 202.080678 
L 98.199223 225.620702 
L 98.431285 228.473439 
L 98.663347 209.549743 
L 98.895408 215.651311 
L 99.12747 218.048485 
L 99.359532 186.71528 
L 99.591594 210.478876 
L 99.823656 201.22623 
L 100.055718 211.451946 
L 100.28778 186.942455 
L 100.519841 194.146794 
L 100.751903 210.499822 
L 100.983965 209.270757 
L 101.216027 222.427429 
L 101.448089 225.682744 
L 101.680151 223.091708 
L 101.912213 215.547715 
L 102.144274 233.423143 
L 102.376336 213.259399 
L 102.608398 219.889503 
L 102.84046 231.440289 
L 103.072522 226.157318 
L 103.304584 234.331592 
L 103.768708 211.901048 
L 104.000769 226.446893 
L 104.464893 243.226025 
L 104.696955 205.559981 
L 104.929017 199.306802 
L 105.393141 252.76346 
L 105.625202 258.840637 
L 105.857264 203.646813 
L 106.089326 227.084365 
L 106.321388 230.99383 
L 106.55345 213.454445 
L 106.785512 210.726112 
L 107.017574 186.210424 
L 107.249635 221.969957 
L 107.481697 205.628128 
L 107.713759 251.123699 
L 107.945821 228.994187 
L 108.177883 232.402551 
L 108.409945 223.606194 
L 108.874068 238.716401 
L 109.10613 242.029124 
L 109.338192 216.218438 
L 109.570254 264.195879 
L 109.802316 229.984201 
L 110.26644 211.931803 
L 110.498502 210.346461 
L 110.730563 227.065972 
L 110.962625 210.481818 
L 111.194687 214.53313 
L 111.426749 232.184039 
L 111.658811 217.013344 
L 111.890873 237.933546 
L 112.122935 245.879692 
L 112.587058 222.414249 
L 112.81912 215.837647 
L 113.051182 234.025475 
L 113.283244 240.484708 
L 113.515306 236.383641 
L 113.979429 204.880927 
L 114.211491 228.088044 
L 114.443553 217.236482 
L 114.675615 234.998565 
L 114.907677 228.052433 
L 115.371801 205.472308 
L 115.835924 232.668744 
L 116.300048 210.885984 
L 116.53211 222.517172 
L 116.764172 208.452005 
L 116.996234 202.586584 
L 117.228296 223.460548 
L 117.460357 201.06834 
L 117.692419 228.587435 
L 117.924481 208.783108 
L 118.156543 203.071241 
L 118.388605 194.440428 
L 118.852729 246.144137 
L 119.08479 244.302455 
L 119.316852 238.849997 
L 119.548914 228.128516 
L 119.780976 227.837774 
L 120.013038 235.50288 
L 120.2451 220.55157 
L 120.477162 220.939169 
L 120.709223 192.609301 
L 120.941285 231.846243 
L 121.173347 220.014965 
L 121.405409 225.717299 
L 121.637471 208.867466 
L 121.869533 207.786599 
L 122.101595 212.576629 
L 122.333657 199.609739 
L 122.79778 192.190425 
L 123.029842 209.572597 
L 123.261904 193.318547 
L 123.493966 215.701557 
L 123.726028 210.495933 
L 123.95809 194.377316 
L 124.190151 216.757625 
L 124.654275 197.200285 
L 124.886337 211.452447 
L 125.118399 194.935315 
L 125.350461 220.200816 
L 125.582523 206.63845 
L 125.814584 215.235739 
L 126.046646 207.958159 
L 126.278708 207.623165 
L 126.51077 206.496707 
L 126.742832 206.684931 
L 126.974894 206.514564 
L 127.206956 219.965032 
L 127.903141 201.332267 
L 128.367265 202.754531 
L 128.599327 201.558917 
L 128.831389 205.615489 
L 129.063451 232.939281 
L 129.295512 227.227805 
L 129.527574 200.478789 
L 129.991698 223.423557 
L 130.22376 217.547923 
L 130.455822 220.854631 
L 130.919945 235.477426 
L 131.152007 214.846362 
L 131.384069 212.400857 
L 131.616131 254.286748 
L 131.848193 219.020143 
L 132.080255 219.47036 
L 132.312317 234.517239 
L 132.544378 231.780162 
L 132.77644 239.643585 
L 133.008502 220.581943 
L 133.240564 233.152575 
L 133.472626 213.428288 
L 133.704688 216.238271 
L 133.93675 230.333035 
L 134.168811 208.309629 
L 134.400873 207.683777 
L 134.632935 205.014038 
L 134.864997 204.89471 
L 135.097059 204.953942 
L 135.561183 218.451815 
L 135.793245 210.67169 
L 136.257368 231.713229 
L 136.48943 220.184348 
L 136.953554 253.040409 
L 137.185616 257.419652 
L 137.417678 255.601821 
L 137.649739 251.3562 
L 137.881801 250.842615 
L 138.113863 247.912783 
L 138.345925 250.439499 
L 138.577987 243.685287 
L 138.810049 252.104479 
L 139.042111 232.468841 
L 139.274172 234.910692 
L 139.506234 244.922159 
L 139.738296 240.178408 
L 139.970358 247.725634 
L 140.20242 250.999144 
L 140.434482 238.89165 
L 140.666544 234.357323 
L 140.898605 225.295774 
L 141.130667 204.442165 
L 141.362729 196.43926 
L 141.594791 194.861847 
L 141.826853 199.356524 
L 142.058915 219.722438 
L 142.290977 213.76579 
L 142.523039 223.600327 
L 142.7551 212.778681 
L 143.219224 234.154452 
L 143.451286 215.11377 
L 143.683348 227.843861 
L 143.91541 225.776383 
L 144.147472 213.098332 
L 144.379533 220.191593 
L 145.075719 194.1572 
L 145.307781 189.954494 
L 145.539843 192.31414 
L 145.771905 189.649824 
L 146.003966 166.106477 
L 146.46809 194.648312 
L 146.932214 211.357146 
L 147.164276 227.541838 
L 147.396338 220.401501 
L 147.6284 226.558386 
L 148.324585 202.075455 
L 148.556647 230.640282 
L 148.788709 224.037933 
L 149.020771 230.45024 
L 149.252833 233.721994 
L 149.484894 239.930042 
L 149.716956 235.853582 
L 149.949018 250.112661 
L 150.18108 247.966864 
L 150.413142 259.026472 
L 150.645204 238.052981 
L 150.877266 236.337301 
L 151.341389 242.387737 
L 151.573451 220.831179 
L 152.037575 203.380888 
L 152.501699 209.223462 
L 152.73376 208.283969 
L 152.965822 205.793847 
L 153.197884 212.408278 
L 153.429946 222.231 
L 153.662008 221.743403 
L 153.89407 220.342753 
L 154.126132 214.498374 
L 154.590255 242.531414 
L 154.822317 226.719904 
L 155.054379 227.058573 
L 155.286441 225.64959 
L 155.518503 238.151486 
L 155.750565 230.976161 
L 155.982627 211.305987 
L 156.44675 252.508154 
L 156.678812 234.14323 
L 156.910874 230.343526 
L 157.142936 231.530001 
L 157.374998 235.346792 
L 157.60706 231.250288 
L 158.071183 242.074793 
L 158.303245 243.174244 
L 158.535307 255.990059 
L 158.767369 247.402553 
L 158.999431 245.995367 
L 159.231493 241.087722 
L 159.463554 226.732041 
L 159.695616 239.229773 
L 160.391802 219.845634 
L 160.623864 221.059144 
L 160.855926 229.092689 
L 161.087988 216.873278 
L 161.320049 223.312948 
L 161.784173 206.422593 
L 162.016235 204.008416 
L 162.248297 199.792621 
L 162.480359 164.351395 
L 162.944482 182.51977 
L 163.176544 184.814563 
L 163.408606 194.2802 
L 163.640668 198.661189 
L 163.87273 180.428036 
L 164.104792 196.485167 
L 164.336854 195.436592 
L 164.568915 226.950387 
L 165.033039 211.71693 
L 165.265101 228.346386 
L 165.497163 220.365305 
L 165.729225 220.784022 
L 165.961287 198.686318 
L 166.42541 208.482444 
L 166.657472 209.351708 
L 166.889534 200.878981 
L 167.121596 213.314374 
L 167.353658 212.026808 
L 167.58572 204.988318 
L 167.817782 211.034153 
L 168.049843 222.317585 
L 168.281905 203.094486 
L 168.513967 206.4281 
L 168.746029 213.578159 
L 168.978091 199.224287 
L 169.210153 204.255395 
L 169.442215 198.933423 
L 169.674276 201.155787 
L 169.906338 201.913436 
L 170.1384 202.252838 
L 170.370462 211.798524 
L 170.602524 208.708084 
L 170.834586 188.386352 
L 171.530771 204.877437 
L 171.762833 233.218596 
L 171.994895 233.865818 
L 172.226957 246.319508 
L 172.459019 270.000638 
L 172.923143 241.466436 
L 173.155204 265.734148 
L 173.387266 238.913301 
L 173.619328 242.929613 
L 173.85139 259.93894 
L 174.083452 242.148603 
L 174.315514 239.490306 
L 174.547576 230.81618 
L 174.779637 242.674526 
L 175.011699 243.341007 
L 175.243761 238.204495 
L 175.475823 229.127408 
L 175.707885 228.396145 
L 175.939947 215.681787 
L 176.40407 204.949844 
L 176.636132 195.453675 
L 176.868194 209.753899 
L 177.100256 204.106339 
L 177.332318 194.619524 
L 177.56438 201.825448 
L 177.796442 199.614509 
L 178.028503 184.69248 
L 178.260565 182.839287 
L 178.492627 173.797639 
L 178.724689 176.527287 
L 178.956751 163.253083 
L 179.188813 169.111328 
L 179.420875 165.503255 
L 179.884998 131.791166 
L 180.11706 153.27718 
L 180.349122 142.544239 
L 181.045308 193.429493 
L 181.27737 190.94739 
L 181.509431 209.724897 
L 181.973555 222.386408 
L 182.437679 239.483655 
L 182.669741 225.778932 
L 182.901803 236.223206 
L 183.133864 229.940787 
L 183.365926 252.985509 
L 183.597988 249.809002 
L 183.83005 243.271402 
L 184.062112 246.597592 
L 184.294174 254.244536 
L 184.526236 243.774585 
L 184.758297 222.146302 
L 184.990359 223.048318 
L 185.222421 225.827791 
L 185.454483 212.284987 
L 185.686545 221.844443 
L 186.382731 214.768457 
L 186.614792 216.018555 
L 186.846854 221.582458 
L 187.078916 234.408379 
L 187.310978 218.58909 
L 187.54304 236.486572 
L 187.775102 230.292651 
L 188.007164 228.533612 
L 188.239225 196.550498 
L 188.471287 201.561949 
L 188.703349 191.846495 
L 188.935411 173.924128 
L 189.167473 145.247192 
L 189.399535 145.866467 
L 189.631597 149.331306 
L 190.09572 161.705538 
L 190.327782 170.581387 
L 190.559844 199.084935 
L 190.791906 194.235069 
L 191.25603 213.092431 
L 191.488091 202.228877 
L 191.720153 224.820056 
L 191.952215 225.337195 
L 192.184277 234.983072 
L 192.648401 238.491949 
L 192.880463 231.311161 
L 193.112525 219.655161 
L 193.344586 228.696475 
L 193.576648 230.509134 
L 193.80871 230.04516 
L 194.272834 217.478013 
L 194.736958 191.562707 
L 194.969019 176.572103 
L 195.201081 187.553896 
L 195.433143 188.576586 
L 195.665205 186.762173 
L 195.897267 174.376672 
L 196.129329 188.396573 
L 196.593452 194.414993 
L 196.825514 227.708585 
L 197.057576 228.483678 
L 197.5217 244.521945 
L 197.753762 244.003214 
L 197.985824 246.056008 
L 198.217886 237.665296 
L 198.449947 235.996728 
L 198.682009 256.0442 
L 198.914071 249.60259 
L 199.610257 182.648457 
L 200.07438 202.60897 
L 200.306442 205.205414 
L 200.538504 201.731212 
L 200.770566 189.266691 
L 201.002628 210.654074 
L 201.23469 203.381307 
L 201.466752 186.843427 
L 201.698813 206.111931 
L 201.930875 209.38894 
L 202.394999 237.525474 
L 202.627061 246.229914 
L 203.091185 243.76642 
L 203.323246 240.371461 
L 203.555308 249.822171 
L 203.78737 246.783896 
L 204.019432 239.267658 
L 204.251494 227.369036 
L 204.483556 248.190721 
L 204.715618 231.360824 
L 204.94768 234.19984 
L 205.179741 241.937115 
L 205.411803 232.381261 
L 205.643865 197.588181 
L 205.875927 230.918381 
L 206.107989 245.403757 
L 206.340051 240.303534 
L 206.572113 241.350308 
L 206.804174 230.198826 
L 207.036236 188.39779 
L 207.268298 186.378139 
L 207.50036 235.437768 
L 207.732422 226.334637 
L 207.964484 183.061926 
L 208.196546 181.634966 
L 208.428607 180.928873 
L 208.660669 213.813597 
L 208.892731 202.106858 
L 209.124793 213.828204 
L 209.356855 244.802912 
L 209.588917 230.611018 
L 209.820979 183.96496 
L 210.05304 207.399732 
L 210.285102 157.241877 
L 210.517164 179.735147 
L 210.749226 182.032939 
L 210.981288 204.874576 
L 211.21335 190.476171 
L 211.445412 231.896062 
L 211.677474 221.917351 
L 211.909535 198.008701 
L 212.141597 212.055867 
L 212.373659 184.106865 
L 212.605721 213.835534 
L 212.837783 211.311893 
L 213.069845 214.070265 
L 213.301907 193.714733 
L 213.76603 245.664606 
L 213.998092 234.214704 
L 214.230154 229.003855 
L 214.462216 206.211062 
L 214.694278 208.949023 
L 214.92634 206.952582 
L 215.158401 212.558495 
L 215.390463 189.363718 
L 215.622525 198.624532 
L 215.854587 220.792997 
L 216.086649 187.321824 
L 216.318711 193.903327 
L 217.014896 222.817822 
L 217.246958 224.326408 
L 217.47902 231.983865 
L 217.711082 222.461967 
L 217.943144 222.458262 
L 218.175206 232.024947 
L 218.407268 221.429882 
L 218.639329 237.00376 
L 218.871391 222.070794 
L 219.103453 218.662514 
L 219.335515 241.237248 
L 219.567577 158.16478 
L 220.031701 196.021246 
L 220.263762 171.915648 
L 220.495824 213.936791 
L 220.727886 157.180973 
L 220.959948 221.205259 
L 221.19201 199.068256 
L 221.424072 191.890469 
L 221.656134 200.291954 
L 221.888195 200.292126 
L 222.120257 202.078356 
L 222.352319 201.952209 
L 222.584381 225.014689 
L 222.816443 209.393909 
L 223.048505 202.1335 
L 223.280567 167.001167 
L 223.512629 198.032288 
L 223.74469 169.759774 
L 224.208814 197.165724 
L 224.440876 159.686228 
L 224.672938 189.193759 
L 224.905 189.422287 
L 225.137062 148.500426 
L 225.369123 157.366681 
L 225.601185 173.581219 
L 225.833247 152.372504 
L 226.065309 173.057744 
L 226.297371 144.576048 
L 226.529433 169.553729 
L 226.761495 169.507722 
L 226.993556 143.806729 
L 227.225618 168.275297 
L 227.45768 150.191359 
L 227.689742 169.85189 
L 227.921804 176.200584 
L 228.153866 191.664787 
L 228.385928 186.390809 
L 228.617989 205.924769 
L 228.850051 206.833582 
L 229.082113 220.819847 
L 229.546237 179.909775 
L 229.778299 188.511485 
L 230.242423 239.40772 
L 230.474484 221.677599 
L 230.706546 239.174683 
L 230.938608 226.002108 
L 231.17067 237.719587 
L 231.402732 239.74987 
L 231.634794 214.864038 
L 231.866856 216.763002 
L 232.098917 204.006245 
L 232.330979 232.825982 
L 232.563041 221.206727 
L 232.795103 234.032635 
L 233.027165 235.12534 
L 233.259227 226.037236 
L 233.491289 211.581416 
L 233.72335 208.777847 
L 233.955412 216.232832 
L 234.187474 213.688544 
L 234.419536 224.633399 
L 234.651598 229.93286 
L 234.88366 209.1095 
L 235.115722 228.391814 
L 235.579845 239.824638 
L 235.811907 225.158239 
L 236.043969 240.925809 
L 236.508093 242.192634 
L 236.740155 234.678774 
L 236.972217 258.7053 
L 237.204278 239.938649 
L 237.43634 232.519156 
L 237.900464 239.766898 
L 238.132526 248.57218 
L 238.364588 224.67351 
L 238.59665 224.589302 
L 238.828711 224.711331 
L 239.060773 234.124615 
L 239.292835 233.477229 
L 239.524897 242.084223 
L 239.989021 233.991225 
L 240.221083 235.119533 
L 240.453144 256.342771 
L 240.685206 246.536324 
L 240.917268 249.29249 
L 241.14933 245.301963 
L 241.381392 230.739858 
L 241.845516 249.564198 
L 242.077577 238.572966 
L 242.309639 242.725795 
L 242.541701 241.687737 
L 242.773763 244.297203 
L 243.005825 243.632393 
L 243.237887 241.599913 
L 243.469949 241.822849 
L 243.702011 247.330594 
L 243.934072 248.35672 
L 244.166134 230.494114 
L 244.398196 247.18557 
L 244.86232 253.559065 
L 245.094382 254.318563 
L 245.326444 255.805179 
L 245.558505 254.295532 
L 246.022629 248.461747 
L 246.254691 223.409035 
L 246.486753 223.199015 
L 246.718815 228.911336 
L 246.950877 213.123318 
L 247.182938 216.856591 
L 247.647062 205.711277 
L 247.879124 208.018862 
L 248.111186 196.923816 
L 248.343248 201.885566 
L 248.807371 225.266456 
L 249.039433 227.281126 
L 249.271495 232.914584 
L 249.503557 235.643494 
L 249.735619 253.79319 
L 249.967681 237.93968 
L 250.199743 257.196121 
L 250.431805 260.577608 
L 250.895928 243.838212 
L 251.12799 258.582659 
L 251.360052 241.302273 
L 251.592114 256.254977 
L 251.824176 253.721372 
L 252.056238 240.768411 
L 252.288299 264.518712 
L 252.520361 263.078445 
L 252.752423 227.61462 
L 252.984485 233.751415 
L 253.448609 221.384817 
L 253.680671 243.095381 
L 253.912732 232.472624 
L 254.376856 250.884162 
L 254.608918 241.560675 
L 254.84098 250.359609 
L 255.073042 263.490543 
L 255.305104 254.92657 
L 255.537166 211.459951 
L 255.769227 223.710424 
L 256.001289 244.797737 
L 256.233351 234.663012 
L 256.465413 244.362898 
L 256.697475 236.159772 
L 256.929537 236.147332 
L 257.161599 208.959911 
L 257.39366 229.314775 
L 257.625722 228.023952 
L 257.857784 248.910422 
L 258.321908 226.153752 
L 258.55397 235.784566 
L 258.786032 228.361361 
L 259.018093 243.527667 
L 259.250155 227.858466 
L 259.482217 246.313319 
L 259.714279 203.876126 
L 259.946341 221.715358 
L 260.178403 205.395952 
L 260.410465 168.856824 
L 260.642526 176.961887 
L 260.874588 235.651131 
L 261.10665 241.837619 
L 261.338712 238.523236 
L 261.802836 236.20122 
L 262.034898 220.550011 
L 262.26696 226.383436 
L 262.499021 236.599828 
L 262.731083 228.209315 
L 262.963145 226.931327 
L 263.195207 220.700881 
L 263.427269 221.623113 
L 263.659331 221.487278 
L 263.891393 225.592197 
L 264.123454 237.011328 
L 264.355516 228.207152 
L 264.587578 243.07551 
L 265.051702 234.580131 
L 265.283764 182.469425 
L 265.515826 184.849581 
L 265.747887 229.536405 
L 265.979949 210.121801 
L 266.212011 265.415309 
L 266.444073 216.940509 
L 266.676135 219.06098 
L 266.908197 217.216192 
L 267.140259 190.376959 
L 267.37232 245.813843 
L 267.604382 204.586855 
L 267.836444 202.798596 
L 268.53263 258.618278 
L 268.764692 254.322818 
L 268.996754 229.010763 
L 269.228815 231.268923 
L 269.460877 245.847809 
L 269.692939 252.403358 
L 269.925001 212.990824 
L 270.157063 250.270028 
L 270.389125 250.495115 
L 270.621187 204.084084 
L 270.853248 194.841021 
L 271.08531 220.006894 
L 271.317372 213.276439 
L 271.549434 202.058137 
L 271.781496 222.082802 
L 272.013558 191.61248 
L 272.24562 205.940625 
L 272.477681 203.837075 
L 272.709743 210.260062 
L 272.941805 201.134383 
L 273.173867 205.704678 
L 273.405929 234.554732 
L 273.637991 224.678727 
L 273.870053 201.876921 
L 274.102114 225.507245 
L 274.566238 236.076536 
L 275.030362 246.901593 
L 275.262424 238.837173 
L 275.494486 252.570123 
L 275.958609 240.826206 
L 276.190671 231.801216 
L 276.422733 235.306163 
L 277.350981 214.482664 
L 277.583042 215.274199 
L 277.815104 221.099604 
L 278.047166 221.87346 
L 278.51129 224.952101 
L 278.743352 227.942473 
L 278.975414 224.497057 
L 279.207475 224.554946 
L 279.439537 221.05514 
L 279.671599 223.053064 
L 279.903661 219.921084 
L 280.135723 225.930855 
L 280.367785 224.935042 
L 280.599847 231.851925 
L 280.831909 197.771925 
L 281.06397 239.214388 
L 281.296032 208.141182 
L 281.528094 227.550436 
L 281.760156 236.424247 
L 281.992218 227.167028 
L 282.22428 230.821961 
L 282.456342 221.920198 
L 282.688403 201.468902 
L 283.152527 228.710279 
L 283.384589 237.098168 
L 283.616651 229.848323 
L 283.848713 213.391779 
L 284.080775 237.379144 
L 285.009022 180.936518 
L 285.241084 244.264347 
L 285.473146 201.008062 
L 285.705208 240.77327 
L 285.937269 209.087816 
L 286.401393 258.067253 
L 286.633455 236.561865 
L 286.865517 227.395247 
L 287.097579 225.611232 
L 287.329641 219.24662 
L 287.793764 240.55793 
L 288.025826 207.571294 
L 288.257888 222.813836 
L 288.48995 226.892327 
L 288.722012 222.378103 
L 288.954074 206.343729 
L 289.186136 201.644692 
L 289.418197 214.137234 
L 289.650259 169.60007 
L 289.882321 232.106806 
L 290.114383 247.771733 
L 290.346445 194.351541 
L 290.578507 183.981743 
L 290.810569 159.38035 
L 291.04263 179.267005 
L 291.274692 176.023634 
L 291.506754 218.560633 
L 291.738816 229.601058 
L 291.970878 221.264003 
L 292.20294 193.648115 
L 292.435002 191.388947 
L 292.667063 196.470683 
L 292.899125 210.844579 
L 293.131187 240.627127 
L 293.363249 235.539154 
L 293.595311 180.955702 
L 293.827373 223.414063 
L 294.059435 214.39057 
L 294.291497 199.514209 
L 294.523558 214.527423 
L 294.75562 195.161912 
L 294.987682 191.43412 
L 295.219744 184.057765 
L 295.451806 171.342429 
L 295.683868 174.33464 
L 295.91593 163.147588 
L 296.147991 143.835622 
L 296.380053 161.60694 
L 296.612115 147.748434 
L 296.844177 162.808616 
L 297.076239 148.677431 
L 297.308301 159.947749 
L 297.540363 144.179497 
L 297.772424 139.173972 
L 298.236548 152.969491 
L 298.46861 162.097054 
L 298.700672 145.664892 
L 298.932734 176.167471 
L 299.164796 152.731423 
L 299.396857 168.283933 
L 299.628919 150.493116 
L 299.860981 152.680388 
L 300.093043 148.715385 
L 300.325105 166.263199 
L 300.557167 167.023274 
L 300.789229 159.519804 
L 301.021291 161.760198 
L 301.717476 155.46998 
L 301.949538 157.87039 
L 302.1816 149.720485 
L 302.413662 180.888641 
L 302.645724 174.18957 
L 302.877785 134.107215 
L 303.109847 180.558648 
L 303.341909 187.655121 
L 303.573971 154.238391 
L 303.806033 188.708022 
L 304.038095 147.166923 
L 304.270157 161.08493 
L 304.502218 156.375311 
L 304.73428 180.240052 
L 304.966342 159.056069 
L 305.198404 164.199261 
L 305.430466 173.996373 
L 305.89459 142.76921 
L 306.126652 181.161203 
L 306.358713 192.818545 
L 306.590775 166.217209 
L 306.822837 169.562823 
L 307.054899 148.591631 
L 307.286961 192.286964 
L 307.751085 171.448766 
L 307.983146 194.832473 
L 308.215208 198.839481 
L 308.44727 204.959715 
L 308.679332 208.095988 
L 308.911394 188.739915 
L 309.143456 185.446545 
L 309.375518 196.691532 
L 309.607579 221.522364 
L 310.071703 161.768046 
L 310.303765 167.40071 
L 310.535827 163.991443 
L 310.767889 150.855749 
L 310.999951 205.89939 
L 311.232012 196.386763 
L 311.696136 155.499147 
L 311.928198 205.424618 
L 312.16026 178.062913 
L 312.624384 242.129374 
L 313.088507 163.161115 
L 313.320569 200.24077 
L 313.784693 161.318981 
L 314.248817 230.712141 
L 314.480879 209.262503 
L 314.71294 229.069556 
L 314.945002 209.325615 
L 315.177064 225.303733 
L 315.641188 234.339865 
L 316.105312 214.903672 
L 316.337373 187.804928 
L 316.569435 177.227313 
L 316.801497 175.835673 
L 317.033559 152.827299 
L 317.265621 197.78307 
L 317.497683 163.514557 
L 317.729745 149.371344 
L 317.961806 211.892065 
L 318.193868 176.560012 
L 318.42593 173.295412 
L 318.657992 228.148427 
L 319.122116 176.876811 
L 319.354178 194.14468 
L 319.58624 176.761484 
L 319.818301 221.726102 
L 320.050363 185.898647 
L 320.514487 235.733446 
L 320.746549 247.644904 
L 320.978611 250.390285 
L 321.442734 210.615212 
L 321.674796 201.385273 
L 321.906858 224.154068 
L 322.13892 214.354708 
L 322.370982 258.483153 
L 322.603044 202.344996 
L 322.835106 238.675517 
L 323.067167 229.422167 
L 323.299229 197.065822 
L 323.531291 208.992159 
L 323.763353 179.981215 
L 323.995415 230.795428 
L 324.227477 230.426301 
L 324.6916 175.03652 
L 324.923662 210.67304 
L 325.155724 189.426459 
L 325.387786 235.369478 
L 325.619848 244.929755 
L 325.85191 246.53811 
L 326.083972 259.1995 
L 326.316034 220.582359 
L 326.548095 264.58048 
L 326.780157 241.152012 
L 327.012219 234.709252 
L 327.244281 233.243451 
L 327.476343 208.087481 
L 327.708405 230.259654 
L 327.940467 265.095551 
L 328.172528 188.128348 
L 328.40459 198.936045 
L 328.636652 191.38334 
L 328.868714 190.188546 
L 329.100776 228.192407 
L 329.332838 224.592453 
L 329.5649 234.426897 
L 329.796961 205.706312 
L 330.029023 200.492594 
L 330.261085 204.775038 
L 330.493147 202.898252 
L 330.725209 207.113273 
L 330.957271 205.248613 
L 331.189333 229.748379 
L 331.421395 198.601941 
L 331.653456 226.75895 
L 332.11758 168.470268 
L 332.349642 180.43671 
L 332.813766 176.710924 
L 333.509951 165.401608 
L 333.742013 166.510213 
L 333.974075 163.544328 
L 334.206137 151.569285 
L 334.670261 174.936947 
L 334.902322 205.40158 
L 335.134384 152.269146 
L 335.366446 194.099711 
L 335.598508 143.254901 
L 335.83057 170.465375 
L 336.062632 179.039185 
L 336.294694 208.892032 
L 336.526755 199.797599 
L 336.758817 169.659907 
L 336.990879 180.142627 
L 337.222941 176.622859 
L 337.455003 157.405036 
L 337.687065 150.252519 
L 337.919127 205.381652 
L 338.151189 231.375019 
L 338.847374 178.569848 
L 339.079436 186.560585 
L 339.311498 185.777829 
L 339.54356 151.767656 
L 339.775622 191.94741 
L 340.007683 190.656495 
L 340.239745 179.444795 
L 340.471807 182.99871 
L 340.703869 160.76224 
L 341.167993 210.142627 
L 341.400055 183.357348 
L 341.632116 176.681842 
L 341.864178 155.613517 
L 342.09624 152.089089 
L 342.328302 182.283258 
L 342.560364 197.775704 
L 342.792426 163.550037 
L 343.488611 207.481262 
L 343.720673 187.938741 
L 343.952735 189.210215 
L 344.184797 218.674428 
L 344.416859 205.202645 
L 344.648921 224.381999 
L 345.113044 238.636965 
L 345.345106 231.941789 
L 345.577168 238.305194 
L 346.041292 205.143474 
L 346.273354 177.433429 
L 346.505416 181.624252 
L 346.737477 212.015078 
L 346.969539 219.556947 
L 347.201601 191.969054 
L 347.433663 209.302741 
L 347.665725 187.792588 
L 347.897787 211.192094 
L 348.129849 189.705218 
L 348.36191 181.09728 
L 348.593972 188.194476 
L 348.826034 215.541938 
L 349.058096 183.97614 
L 349.290158 216.088974 
L 349.52222 226.571974 
L 349.754282 199.898281 
L 349.986343 235.393917 
L 350.218405 247.260585 
L 350.450467 210.572124 
L 350.682529 209.75312 
L 350.914591 217.462651 
L 351.146653 203.659195 
L 351.378715 212.472077 
L 351.610777 161.964162 
L 351.842838 169.575823 
L 352.0749 228.163569 
L 352.306962 190.644032 
L 352.539024 183.153131 
L 352.771086 195.803882 
L 353.003148 233.684233 
L 353.23521 197.825277 
L 353.467271 206.754854 
L 353.699333 185.47275 
L 354.163457 236.036751 
L 354.395519 164.280078 
L 354.627581 219.238188 
L 354.859643 156.860169 
L 355.091704 211.908481 
L 355.323766 167.777074 
L 355.555828 197.866257 
L 355.78789 210.53782 
L 356.019952 178.163898 
L 356.252014 196.220329 
L 356.484076 174.877273 
L 356.716138 194.35467 
L 356.948199 176.590245 
L 357.180261 187.569443 
L 357.644385 215.373187 
L 357.876447 228.102727 
L 358.108509 190.720273 
L 358.572632 222.292762 
L 358.804694 193.76349 
L 359.036756 189.641361 
L 359.268818 232.278238 
L 359.50088 218.966418 
L 359.732942 190.796137 
L 359.965004 209.632847 
L 360.197065 238.305506 
L 360.429127 177.682871 
L 360.661189 216.119935 
L 360.893251 191.24716 
L 361.125313 217.004227 
L 361.357375 191.075621 
L 361.589437 216.110689 
L 361.821498 205.368699 
L 362.05356 230.773425 
L 362.285622 232.803881 
L 362.517684 254.302958 
L 362.749746 238.655768 
L 362.981808 195.454913 
L 363.21387 216.311669 
L 363.445932 215.822927 
L 363.677993 191.431111 
L 363.910055 220.178082 
L 364.142117 216.69018 
L 364.374179 192.049146 
L 364.606241 237.732566 
L 364.838303 234.774343 
L 365.070365 198.899762 
L 365.302426 188.053188 
L 365.534488 209.281825 
L 365.998612 177.94863 
L 366.230674 173.906269 
L 366.462736 144.300269 
L 366.694798 194.525943 
L 367.158921 199.956224 
L 367.390983 218.840238 
L 367.623045 220.295131 
L 367.855107 231.886925 
L 368.087169 200.974014 
L 368.319231 245.590127 
L 368.551292 257.560404 
L 368.783354 227.347771 
L 369.247478 211.544484 
L 369.47954 249.18041 
L 370.175726 227.479288 
L 370.407787 196.479852 
L 370.639849 230.071724 
L 370.871911 222.73956 
L 371.103973 204.557827 
L 371.336035 213.787381 
L 371.568097 163.739404 
L 371.800159 214.529461 
L 372.03222 204.143501 
L 372.264282 187.107873 
L 372.960468 163.580211 
L 373.19253 176.272038 
L 373.656653 167.300641 
L 373.888715 164.70515 
L 374.120777 180.179477 
L 374.352839 179.008609 
L 374.584901 173.006245 
L 374.816963 171.271723 
L 375.281086 214.44417 
L 375.513148 184.764534 
L 375.74521 184.293922 
L 375.977272 204.627495 
L 376.209334 195.637723 
L 376.441396 211.396802 
L 376.673458 197.764543 
L 377.137581 226.829252 
L 377.601705 215.337836 
L 377.833767 228.867262 
L 378.065829 199.808053 
L 378.297891 219.848494 
L 378.529953 199.365465 
L 378.762014 227.743421 
L 378.994076 187.574774 
L 379.226138 182.006812 
L 379.4582 187.692072 
L 379.690262 160.739555 
L 379.922324 164.829079 
L 380.154386 192.842562 
L 380.386447 162.492448 
L 380.618509 173.157453 
L 380.850571 160.031163 
L 381.082633 194.416625 
L 381.314695 207.551216 
L 381.546757 170.92455 
L 381.778819 208.443143 
L 382.01088 195.571229 
L 382.242942 214.33969 
L 382.475004 177.326974 
L 382.707066 184.144554 
L 383.17119 239.05217 
L 383.403252 203.608278 
L 383.635314 209.848111 
L 383.867375 228.802443 
L 384.099437 236.417097 
L 384.331499 204.037675 
L 384.563561 201.227712 
L 384.795623 225.904892 
L 385.027685 218.223938 
L 385.259747 232.207605 
L 385.491808 238.149233 
L 385.72387 228.686309 
L 385.955932 184.050035 
L 386.187994 179.437744 
L 386.420056 201.564135 
L 386.88418 177.555941 
L 387.116241 200.168815 
L 387.348303 167.374941 
L 387.580365 192.739707 
L 388.044489 156.273577 
L 388.276551 155.817592 
L 388.508613 166.482308 
L 388.740675 163.689736 
L 388.972736 183.523035 
L 389.204798 178.979967 
L 389.43686 167.199526 
L 389.668922 180.135775 
L 389.900984 169.976647 
L 390.133046 186.441918 
L 390.365108 181.495946 
L 390.597169 207.62334 
L 390.829231 157.03577 
L 391.061293 224.667309 
L 391.293355 248.033853 
L 391.525417 203.760952 
L 391.757479 247.731616 
L 391.989541 206.70774 
L 392.221602 248.800247 
L 392.453664 207.996254 
L 392.685726 210.922865 
L 392.917788 188.392887 
L 393.14985 237.914972 
L 393.381912 193.265671 
L 393.613974 182.14879 
L 393.846035 198.359462 
L 394.542221 153.507812 
L 394.774283 182.017073 
L 395.006345 172.756371 
L 395.238407 155.215582 
L 395.470469 178.933141 
L 395.70253 170.195917 
L 395.934592 153.751401 
L 396.166654 156.112886 
L 396.398716 169.656132 
L 396.630778 160.116319 
L 396.86284 156.466515 
L 397.094902 180.573743 
L 397.326963 138.92803 
L 397.559025 161.738233 
L 397.791087 195.715283 
L 398.023149 205.94384 
L 398.255211 196.372923 
L 398.487273 158.457289 
L 398.487273 158.457289 
" style="fill:none;stroke:#ff7f0e;stroke-linecap:square;stroke-width:1.5;"/>
   </g>
   <g id="patch_3">
    <path d="M 57.6 307.584 
L 57.6 41.472 
" style="fill:none;stroke:#000000;stroke-linecap:square;stroke-linejoin:miter;stroke-width:0.8;"/>
   </g>
   <g id="patch_4">
    <path d="M 414.72 307.584 
L 414.72 41.472 
" style="fill:none;stroke:#000000;stroke-linecap:square;stroke-linejoin:miter;stroke-width:0.8;"/>
   </g>
   <g id="patch_5">
    <path d="M 57.6 307.584 
L 414.72 307.584 
" style="fill:none;stroke:#000000;stroke-linecap:square;stroke-linejoin:miter;stroke-width:0.8;"/>
   </g>
   <g id="patch_6">
    <path d="M 57.6 41.472 
L 414.72 41.472 
" style="fill:none;stroke:#000000;stroke-linecap:square;stroke-linejoin:miter;stroke-width:0.8;"/>
   </g>
  </g>
 </g>
 <defs>
  <clipPath id="p7f88046cc5">
   <rect height="266.112" width="357.12" x="57.6" y="41.472"/>
  </clipPath>
 </defs>
</svg>
