<?xml version="1.0" encoding="utf-8" standalone="no"?>
<!DOCTYPE svg PUBLIC "-//W3C//DTD SVG 1.1//EN"
  "http://www.w3.org/Graphics/SVG/1.1/DTD/svg11.dtd">
<!-- Created with matplotlib (https://matplotlib.org/) -->
<svg height="345.6pt" version="1.1" viewBox="0 0 460.8 345.6" width="460.8pt" xmlns="http://www.w3.org/2000/svg" xmlns:xlink="http://www.w3.org/1999/xlink">
 <defs>
  <style type="text/css">
*{stroke-linecap:butt;stroke-linejoin:round;}
  </style>
 </defs>
 <g id="figure_1">
  <g id="patch_1">
   <path d="M 0 345.6 
L 460.8 345.6 
L 460.8 0 
L 0 0 
z
" style="fill:#ffffff;"/>
  </g>
  <g id="axes_1">
   <g id="patch_2">
    <path d="M 57.6 307.584 
L 414.72 307.584 
L 414.72 41.472 
L 57.6 41.472 
z
" style="fill:#ffffff;"/>
   </g>
   <g id="matplotlib.axis_1">
    <g id="xtick_1">
     <g id="line2d_1">
      <defs>
       <path d="M 0 0 
L 0 3.5 
" id="mefec66c206" style="stroke:#000000;stroke-width:0.8;"/>
      </defs>
      <g>
       <use style="stroke:#000000;stroke-width:0.8;" x="73.832727" xlink:href="#mefec66c206" y="307.584"/>
      </g>
     </g>
     <g id="text_1">
      <!-- 0 -->
      <defs>
       <path d="M 31.78125 66.40625 
Q 24.171875 66.40625 20.328125 58.90625 
Q 16.5 51.421875 16.5 36.375 
Q 16.5 21.390625 20.328125 13.890625 
Q 24.171875 6.390625 31.78125 6.390625 
Q 39.453125 6.390625 43.28125 13.890625 
Q 47.125 21.390625 47.125 36.375 
Q 47.125 51.421875 43.28125 58.90625 
Q 39.453125 66.40625 31.78125 66.40625 
z
M 31.78125 74.21875 
Q 44.046875 74.21875 50.515625 64.515625 
Q 56.984375 54.828125 56.984375 36.375 
Q 56.984375 17.96875 50.515625 8.265625 
Q 44.046875 -1.421875 31.78125 -1.421875 
Q 19.53125 -1.421875 13.0625 8.265625 
Q 6.59375 17.96875 6.59375 36.375 
Q 6.59375 54.828125 13.0625 64.515625 
Q 19.53125 74.21875 31.78125 74.21875 
z
" id="DejaVuSans-48"/>
      </defs>
      <g transform="translate(70.651477 322.182437)scale(0.1 -0.1)">
       <use xlink:href="#DejaVuSans-48"/>
      </g>
     </g>
    </g>
    <g id="xtick_2">
     <g id="line2d_2">
      <g>
       <use style="stroke:#000000;stroke-width:0.8;" x="120.2451" xlink:href="#mefec66c206" y="307.584"/>
      </g>
     </g>
     <g id="text_2">
      <!-- 200 -->
      <defs>
       <path d="M 19.1875 8.296875 
L 53.609375 8.296875 
L 53.609375 0 
L 7.328125 0 
L 7.328125 8.296875 
Q 12.9375 14.109375 22.625 23.890625 
Q 32.328125 33.6875 34.8125 36.53125 
Q 39.546875 41.84375 41.421875 45.53125 
Q 43.3125 49.21875 43.3125 52.78125 
Q 43.3125 58.59375 39.234375 62.25 
Q 35.15625 65.921875 28.609375 65.921875 
Q 23.96875 65.921875 18.8125 64.3125 
Q 13.671875 62.703125 7.8125 59.421875 
L 7.8125 69.390625 
Q 13.765625 71.78125 18.9375 73 
Q 24.125 74.21875 28.421875 74.21875 
Q 39.75 74.21875 46.484375 68.546875 
Q 53.21875 62.890625 53.21875 53.421875 
Q 53.21875 48.921875 51.53125 44.890625 
Q 49.859375 40.875 45.40625 35.40625 
Q 44.1875 33.984375 37.640625 27.21875 
Q 31.109375 20.453125 19.1875 8.296875 
z
" id="DejaVuSans-50"/>
      </defs>
      <g transform="translate(110.70135 322.182437)scale(0.1 -0.1)">
       <use xlink:href="#DejaVuSans-50"/>
       <use x="63.623047" xlink:href="#DejaVuSans-48"/>
       <use x="127.246094" xlink:href="#DejaVuSans-48"/>
      </g>
     </g>
    </g>
    <g id="xtick_3">
     <g id="line2d_3">
      <g>
       <use style="stroke:#000000;stroke-width:0.8;" x="166.657472" xlink:href="#mefec66c206" y="307.584"/>
      </g>
     </g>
     <g id="text_3">
      <!-- 400 -->
      <defs>
       <path d="M 37.796875 64.3125 
L 12.890625 25.390625 
L 37.796875 25.390625 
z
M 35.203125 72.90625 
L 47.609375 72.90625 
L 47.609375 25.390625 
L 58.015625 25.390625 
L 58.015625 17.1875 
L 47.609375 17.1875 
L 47.609375 0 
L 37.796875 0 
L 37.796875 17.1875 
L 4.890625 17.1875 
L 4.890625 26.703125 
z
" id="DejaVuSans-52"/>
      </defs>
      <g transform="translate(157.113722 322.182437)scale(0.1 -0.1)">
       <use xlink:href="#DejaVuSans-52"/>
       <use x="63.623047" xlink:href="#DejaVuSans-48"/>
       <use x="127.246094" xlink:href="#DejaVuSans-48"/>
      </g>
     </g>
    </g>
    <g id="xtick_4">
     <g id="line2d_4">
      <g>
       <use style="stroke:#000000;stroke-width:0.8;" x="213.069845" xlink:href="#mefec66c206" y="307.584"/>
      </g>
     </g>
     <g id="text_4">
      <!-- 600 -->
      <defs>
       <path d="M 33.015625 40.375 
Q 26.375 40.375 22.484375 35.828125 
Q 18.609375 31.296875 18.609375 23.390625 
Q 18.609375 15.53125 22.484375 10.953125 
Q 26.375 6.390625 33.015625 6.390625 
Q 39.65625 6.390625 43.53125 10.953125 
Q 47.40625 15.53125 47.40625 23.390625 
Q 47.40625 31.296875 43.53125 35.828125 
Q 39.65625 40.375 33.015625 40.375 
z
M 52.59375 71.296875 
L 52.59375 62.3125 
Q 48.875 64.0625 45.09375 64.984375 
Q 41.3125 65.921875 37.59375 65.921875 
Q 27.828125 65.921875 22.671875 59.328125 
Q 17.53125 52.734375 16.796875 39.40625 
Q 19.671875 43.65625 24.015625 45.921875 
Q 28.375 48.1875 33.59375 48.1875 
Q 44.578125 48.1875 50.953125 41.515625 
Q 57.328125 34.859375 57.328125 23.390625 
Q 57.328125 12.15625 50.6875 5.359375 
Q 44.046875 -1.421875 33.015625 -1.421875 
Q 20.359375 -1.421875 13.671875 8.265625 
Q 6.984375 17.96875 6.984375 36.375 
Q 6.984375 53.65625 15.1875 63.9375 
Q 23.390625 74.21875 37.203125 74.21875 
Q 40.921875 74.21875 44.703125 73.484375 
Q 48.484375 72.75 52.59375 71.296875 
z
" id="DejaVuSans-54"/>
      </defs>
      <g transform="translate(203.526095 322.182437)scale(0.1 -0.1)">
       <use xlink:href="#DejaVuSans-54"/>
       <use x="63.623047" xlink:href="#DejaVuSans-48"/>
       <use x="127.246094" xlink:href="#DejaVuSans-48"/>
      </g>
     </g>
    </g>
    <g id="xtick_5">
     <g id="line2d_5">
      <g>
       <use style="stroke:#000000;stroke-width:0.8;" x="259.482217" xlink:href="#mefec66c206" y="307.584"/>
      </g>
     </g>
     <g id="text_5">
      <!-- 800 -->
      <defs>
       <path d="M 31.78125 34.625 
Q 24.75 34.625 20.71875 30.859375 
Q 16.703125 27.09375 16.703125 20.515625 
Q 16.703125 13.921875 20.71875 10.15625 
Q 24.75 6.390625 31.78125 6.390625 
Q 38.8125 6.390625 42.859375 10.171875 
Q 46.921875 13.96875 46.921875 20.515625 
Q 46.921875 27.09375 42.890625 30.859375 
Q 38.875 34.625 31.78125 34.625 
z
M 21.921875 38.8125 
Q 15.578125 40.375 12.03125 44.71875 
Q 8.5 49.078125 8.5 55.328125 
Q 8.5 64.0625 14.71875 69.140625 
Q 20.953125 74.21875 31.78125 74.21875 
Q 42.671875 74.21875 48.875 69.140625 
Q 55.078125 64.0625 55.078125 55.328125 
Q 55.078125 49.078125 51.53125 44.71875 
Q 48 40.375 41.703125 38.8125 
Q 48.828125 37.15625 52.796875 32.3125 
Q 56.78125 27.484375 56.78125 20.515625 
Q 56.78125 9.90625 50.3125 4.234375 
Q 43.84375 -1.421875 31.78125 -1.421875 
Q 19.734375 -1.421875 13.25 4.234375 
Q 6.78125 9.90625 6.78125 20.515625 
Q 6.78125 27.484375 10.78125 32.3125 
Q 14.796875 37.15625 21.921875 38.8125 
z
M 18.3125 54.390625 
Q 18.3125 48.734375 21.84375 45.5625 
Q 25.390625 42.390625 31.78125 42.390625 
Q 38.140625 42.390625 41.71875 45.5625 
Q 45.3125 48.734375 45.3125 54.390625 
Q 45.3125 60.0625 41.71875 63.234375 
Q 38.140625 66.40625 31.78125 66.40625 
Q 25.390625 66.40625 21.84375 63.234375 
Q 18.3125 60.0625 18.3125 54.390625 
z
" id="DejaVuSans-56"/>
      </defs>
      <g transform="translate(249.938467 322.182437)scale(0.1 -0.1)">
       <use xlink:href="#DejaVuSans-56"/>
       <use x="63.623047" xlink:href="#DejaVuSans-48"/>
       <use x="127.246094" xlink:href="#DejaVuSans-48"/>
      </g>
     </g>
    </g>
    <g id="xtick_6">
     <g id="line2d_6">
      <g>
       <use style="stroke:#000000;stroke-width:0.8;" x="305.89459" xlink:href="#mefec66c206" y="307.584"/>
      </g>
     </g>
     <g id="text_6">
      <!-- 1000 -->
      <defs>
       <path d="M 12.40625 8.296875 
L 28.515625 8.296875 
L 28.515625 63.921875 
L 10.984375 60.40625 
L 10.984375 69.390625 
L 28.421875 72.90625 
L 38.28125 72.90625 
L 38.28125 8.296875 
L 54.390625 8.296875 
L 54.390625 0 
L 12.40625 0 
z
" id="DejaVuSans-49"/>
      </defs>
      <g transform="translate(293.16959 322.182437)scale(0.1 -0.1)">
       <use xlink:href="#DejaVuSans-49"/>
       <use x="63.623047" xlink:href="#DejaVuSans-48"/>
       <use x="127.246094" xlink:href="#DejaVuSans-48"/>
       <use x="190.869141" xlink:href="#DejaVuSans-48"/>
      </g>
     </g>
    </g>
    <g id="xtick_7">
     <g id="line2d_7">
      <g>
       <use style="stroke:#000000;stroke-width:0.8;" x="352.306962" xlink:href="#mefec66c206" y="307.584"/>
      </g>
     </g>
     <g id="text_7">
      <!-- 1200 -->
      <g transform="translate(339.581962 322.182437)scale(0.1 -0.1)">
       <use xlink:href="#DejaVuSans-49"/>
       <use x="63.623047" xlink:href="#DejaVuSans-50"/>
       <use x="127.246094" xlink:href="#DejaVuSans-48"/>
       <use x="190.869141" xlink:href="#DejaVuSans-48"/>
      </g>
     </g>
    </g>
    <g id="xtick_8">
     <g id="line2d_8">
      <g>
       <use style="stroke:#000000;stroke-width:0.8;" x="398.719335" xlink:href="#mefec66c206" y="307.584"/>
      </g>
     </g>
     <g id="text_8">
      <!-- 1400 -->
      <g transform="translate(385.994335 322.182437)scale(0.1 -0.1)">
       <use xlink:href="#DejaVuSans-49"/>
       <use x="63.623047" xlink:href="#DejaVuSans-52"/>
       <use x="127.246094" xlink:href="#DejaVuSans-48"/>
       <use x="190.869141" xlink:href="#DejaVuSans-48"/>
      </g>
     </g>
    </g>
   </g>
   <g id="matplotlib.axis_2">
    <g id="ytick_1">
     <g id="line2d_9">
      <defs>
       <path d="M 0 0 
L -3.5 0 
" id="mc402fa1b20" style="stroke:#000000;stroke-width:0.8;"/>
      </defs>
      <g>
       <use style="stroke:#000000;stroke-width:0.8;" x="57.6" xlink:href="#mc402fa1b20" y="295.533055"/>
      </g>
     </g>
     <g id="text_9">
      <!-- 0.00 -->
      <defs>
       <path d="M 10.6875 12.40625 
L 21 12.40625 
L 21 0 
L 10.6875 0 
z
" id="DejaVuSans-46"/>
      </defs>
      <g transform="translate(28.334375 299.332273)scale(0.1 -0.1)">
       <use xlink:href="#DejaVuSans-48"/>
       <use x="63.623047" xlink:href="#DejaVuSans-46"/>
       <use x="95.410156" xlink:href="#DejaVuSans-48"/>
       <use x="159.033203" xlink:href="#DejaVuSans-48"/>
      </g>
     </g>
    </g>
    <g id="ytick_2">
     <g id="line2d_10">
      <g>
       <use style="stroke:#000000;stroke-width:0.8;" x="57.6" xlink:href="#mc402fa1b20" y="263.595674"/>
      </g>
     </g>
     <g id="text_10">
      <!-- 0.02 -->
      <g transform="translate(28.334375 267.394893)scale(0.1 -0.1)">
       <use xlink:href="#DejaVuSans-48"/>
       <use x="63.623047" xlink:href="#DejaVuSans-46"/>
       <use x="95.410156" xlink:href="#DejaVuSans-48"/>
       <use x="159.033203" xlink:href="#DejaVuSans-50"/>
      </g>
     </g>
    </g>
    <g id="ytick_3">
     <g id="line2d_11">
      <g>
       <use style="stroke:#000000;stroke-width:0.8;" x="57.6" xlink:href="#mc402fa1b20" y="231.658294"/>
      </g>
     </g>
     <g id="text_11">
      <!-- 0.04 -->
      <g transform="translate(28.334375 235.457512)scale(0.1 -0.1)">
       <use xlink:href="#DejaVuSans-48"/>
       <use x="63.623047" xlink:href="#DejaVuSans-46"/>
       <use x="95.410156" xlink:href="#DejaVuSans-48"/>
       <use x="159.033203" xlink:href="#DejaVuSans-52"/>
      </g>
     </g>
    </g>
    <g id="ytick_4">
     <g id="line2d_12">
      <g>
       <use style="stroke:#000000;stroke-width:0.8;" x="57.6" xlink:href="#mc402fa1b20" y="199.720913"/>
      </g>
     </g>
     <g id="text_12">
      <!-- 0.06 -->
      <g transform="translate(28.334375 203.520132)scale(0.1 -0.1)">
       <use xlink:href="#DejaVuSans-48"/>
       <use x="63.623047" xlink:href="#DejaVuSans-46"/>
       <use x="95.410156" xlink:href="#DejaVuSans-48"/>
       <use x="159.033203" xlink:href="#DejaVuSans-54"/>
      </g>
     </g>
    </g>
    <g id="ytick_5">
     <g id="line2d_13">
      <g>
       <use style="stroke:#000000;stroke-width:0.8;" x="57.6" xlink:href="#mc402fa1b20" y="167.783533"/>
      </g>
     </g>
     <g id="text_13">
      <!-- 0.08 -->
      <g transform="translate(28.334375 171.582751)scale(0.1 -0.1)">
       <use xlink:href="#DejaVuSans-48"/>
       <use x="63.623047" xlink:href="#DejaVuSans-46"/>
       <use x="95.410156" xlink:href="#DejaVuSans-48"/>
       <use x="159.033203" xlink:href="#DejaVuSans-56"/>
      </g>
     </g>
    </g>
    <g id="ytick_6">
     <g id="line2d_14">
      <g>
       <use style="stroke:#000000;stroke-width:0.8;" x="57.6" xlink:href="#mc402fa1b20" y="135.846152"/>
      </g>
     </g>
     <g id="text_14">
      <!-- 0.10 -->
      <g transform="translate(28.334375 139.645371)scale(0.1 -0.1)">
       <use xlink:href="#DejaVuSans-48"/>
       <use x="63.623047" xlink:href="#DejaVuSans-46"/>
       <use x="95.410156" xlink:href="#DejaVuSans-49"/>
       <use x="159.033203" xlink:href="#DejaVuSans-48"/>
      </g>
     </g>
    </g>
    <g id="ytick_7">
     <g id="line2d_15">
      <g>
       <use style="stroke:#000000;stroke-width:0.8;" x="57.6" xlink:href="#mc402fa1b20" y="103.908772"/>
      </g>
     </g>
     <g id="text_15">
      <!-- 0.12 -->
      <g transform="translate(28.334375 107.70799)scale(0.1 -0.1)">
       <use xlink:href="#DejaVuSans-48"/>
       <use x="63.623047" xlink:href="#DejaVuSans-46"/>
       <use x="95.410156" xlink:href="#DejaVuSans-49"/>
       <use x="159.033203" xlink:href="#DejaVuSans-50"/>
      </g>
     </g>
    </g>
    <g id="ytick_8">
     <g id="line2d_16">
      <g>
       <use style="stroke:#000000;stroke-width:0.8;" x="57.6" xlink:href="#mc402fa1b20" y="71.971391"/>
      </g>
     </g>
     <g id="text_16">
      <!-- 0.14 -->
      <g transform="translate(28.334375 75.77061)scale(0.1 -0.1)">
       <use xlink:href="#DejaVuSans-48"/>
       <use x="63.623047" xlink:href="#DejaVuSans-46"/>
       <use x="95.410156" xlink:href="#DejaVuSans-49"/>
       <use x="159.033203" xlink:href="#DejaVuSans-52"/>
      </g>
     </g>
    </g>
   </g>
   <g id="line2d_17">
    <path clip-path="url(#p42860ba837)" d="M 73.832727 294.248167 
L 74.064789 293.320321 
L 74.296851 294.09944 
L 74.528913 293.984346 
L 74.760975 294.133669 
L 74.993037 295.247868 
L 75.45716 295.458909 
L 76.153346 295.44712 
L 76.849531 293.745183 
L 77.081593 294.807255 
L 78.009841 295.43667 
L 78.241903 295.246346 
L 78.473965 295.285785 
L 78.938088 294.141454 
L 79.17015 294.748485 
L 79.634274 293.414802 
L 80.330459 292.469501 
L 80.794583 292.362224 
L 81.026645 292.660691 
L 81.258707 293.418387 
L 81.490769 293.047718 
L 81.722831 293.174744 
L 82.186954 293.726516 
L 82.419016 293.650931 
L 82.651078 293.739062 
L 83.347264 294.405001 
L 83.579325 294.181804 
L 83.811387 294.389265 
L 84.043449 294.024944 
L 84.275511 294.17363 
L 84.507573 294.078997 
L 84.739635 294.180294 
L 84.971697 293.742907 
L 85.203759 293.71673 
L 86.59613 292.336819 
L 86.828192 292.252944 
L 87.060253 291.906463 
L 87.524377 291.761628 
L 87.988501 291.299652 
L 88.220563 291.443024 
L 88.452625 291.23544 
L 88.684686 291.281146 
L 88.916748 291.115079 
L 89.14881 291.133754 
L 89.380872 291.26997 
L 90.077058 290.893817 
L 91.237367 290.618892 
L 91.701491 290.318533 
L 91.933553 290.391785 
L 92.629738 290.08329 
L 93.790047 289.892744 
L 94.254171 289.890612 
L 96.57479 289.925228 
L 97.038914 289.998464 
L 97.735099 289.999529 
L 98.199223 289.919246 
L 98.663347 289.963911 
L 100.751903 289.846713 
L 100.983965 289.903778 
L 101.216027 290.082362 
L 101.448089 289.820232 
L 101.912213 290.217294 
L 102.144274 289.959365 
L 102.608398 289.966084 
L 103.536646 289.87464 
L 104.000769 290.169318 
L 104.232831 290.106665 
L 104.464893 289.869166 
L 104.696955 290.05322 
L 104.929017 290.039828 
L 105.161079 290.191794 
L 105.393141 289.989969 
L 105.857264 290.049703 
L 106.089326 290.194958 
L 106.321388 290.207813 
L 106.55345 290.017272 
L 107.249635 290.148322 
L 107.481697 290.350504 
L 107.713759 289.826255 
L 108.642007 290.308916 
L 109.10613 290.121906 
L 109.338192 290.358324 
L 109.570254 290.329203 
L 109.802316 290.592782 
L 110.034378 290.508467 
L 110.26644 290.615931 
L 110.498502 290.400933 
L 111.426749 291.005903 
L 111.658811 290.422534 
L 112.122935 291.03608 
L 113.283244 290.901136 
L 113.515306 291.080256 
L 113.747368 290.89894 
L 113.979429 290.862194 
L 114.211491 290.963617 
L 114.443553 290.523513 
L 114.907677 290.960489 
L 115.371801 291.125237 
L 115.603862 291.486504 
L 116.067986 291.045494 
L 116.300048 291.400818 
L 116.53211 291.238957 
L 116.764172 291.350883 
L 116.996234 291.328936 
L 117.228296 291.517173 
L 117.460357 291.198479 
L 117.692419 291.517115 
L 118.156543 291.686789 
L 118.852729 291.785819 
L 119.08479 291.909322 
L 119.548914 291.64228 
L 119.780976 291.700524 
L 120.013038 291.967598 
L 120.2451 291.720764 
L 121.173347 292.067565 
L 121.405409 291.991146 
L 121.869533 292.241068 
L 122.333657 292.119295 
L 122.565718 291.872425 
L 123.029842 291.830214 
L 123.261904 292.3191 
L 123.493966 291.957815 
L 123.726028 292.292213 
L 123.95809 292.099707 
L 124.422213 292.069535 
L 124.654275 291.821725 
L 125.118399 292.599014 
L 125.350461 292.202986 
L 125.582523 292.353972 
L 126.278708 292.029195 
L 126.742832 292.879434 
L 126.974894 292.525494 
L 127.439017 292.397121 
L 127.671079 292.690471 
L 127.903141 292.514514 
L 128.135203 293.050215 
L 128.599327 292.483338 
L 128.831389 292.541475 
L 129.063451 292.87075 
L 129.295512 292.963553 
L 129.527574 292.5996 
L 129.759636 292.743254 
L 129.991698 293.184723 
L 130.455822 292.843634 
L 130.687884 293.096684 
L 130.919945 292.964236 
L 131.152007 292.974992 
L 131.384069 294.067056 
L 131.616131 293.401185 
L 132.080255 293.038339 
L 132.312317 293.206958 
L 132.77644 292.973146 
L 133.240564 293.216363 
L 133.472626 293.277118 
L 133.704688 293.117804 
L 133.93675 293.257585 
L 134.400873 293.116803 
L 134.632935 293.869828 
L 134.864997 293.828323 
L 135.097059 293.45388 
L 135.329121 293.726151 
L 135.561183 293.351028 
L 135.793245 293.200877 
L 136.025306 293.620654 
L 136.257368 293.636357 
L 136.721492 294.201254 
L 136.953554 293.580108 
L 137.185616 293.809148 
L 137.649739 293.63359 
L 138.113863 293.121517 
L 138.577987 293.814591 
L 138.810049 293.513926 
L 139.042111 293.656534 
L 139.274172 293.658141 
L 139.738296 293.768972 
L 139.970358 293.671581 
L 140.20242 293.715871 
L 140.434482 293.882165 
L 140.666544 293.648091 
L 141.594791 293.532118 
L 141.826853 294.102115 
L 142.058915 293.980207 
L 142.290977 294.080894 
L 142.523039 293.773734 
L 142.7551 294.048417 
L 142.987162 293.810582 
L 143.219224 293.927833 
L 143.451286 293.855328 
L 143.683348 294.118536 
L 143.91541 293.743492 
L 144.147472 293.64146 
L 144.379533 294.056828 
L 144.611595 294.060447 
L 144.843657 293.905644 
L 145.075719 294.233211 
L 145.307781 294.180698 
L 145.539843 293.715794 
L 145.771905 294.037161 
L 146.003966 294.10918 
L 146.46809 293.864496 
L 146.700152 294.408765 
L 146.932214 294.167804 
L 147.164276 294.328719 
L 147.396338 294.270129 
L 147.860461 294.448612 
L 148.092523 294.338353 
L 148.324585 294.419264 
L 148.788709 294.292058 
L 149.020771 294.262122 
L 149.252833 294.033605 
L 149.716956 294.305248 
L 149.949018 293.731062 
L 150.18108 294.157278 
L 150.413142 294.181061 
L 150.645204 294.492049 
L 150.877266 293.865782 
L 151.109327 294.234294 
L 151.341389 294.161917 
L 151.573451 293.973056 
L 151.805513 293.998167 
L 152.269637 293.688593 
L 152.501699 294.288341 
L 152.73376 293.670888 
L 153.429946 294.327921 
L 153.89407 294.284389 
L 154.358194 294.013993 
L 154.590255 294.215876 
L 155.054379 294.135425 
L 155.286441 294.241393 
L 155.750565 293.795783 
L 155.982627 294.047274 
L 156.214688 293.925568 
L 156.44675 294.483218 
L 156.678812 294.212139 
L 156.910874 294.343794 
L 157.142936 293.732247 
L 157.374998 294.136574 
L 158.535307 294.406658 
L 158.999431 294.089409 
L 159.231493 294.145359 
L 159.695616 293.807705 
L 159.927678 294.14902 
L 160.15974 294.195746 
L 160.623864 294.635114 
L 161.320049 294.163497 
L 161.552111 294.568234 
L 161.784173 294.523353 
L 162.016235 294.646726 
L 162.248297 294.366328 
L 162.712421 294.921991 
L 163.176544 294.787641 
L 163.640668 294.501126 
L 164.336854 294.480701 
L 164.568915 294.788714 
L 164.800977 294.853354 
L 165.033039 294.711424 
L 165.265101 294.937696 
L 165.961287 294.421505 
L 166.889534 295.083613 
L 167.353658 294.737866 
L 167.817782 294.547204 
L 168.049843 294.844153 
L 168.513967 294.376428 
L 168.978091 294.932217 
L 169.210153 294.535762 
L 169.674276 295.103961 
L 169.906338 294.790859 
L 170.1384 294.993215 
L 170.370462 294.394434 
L 170.602524 294.686743 
L 170.834586 294.414283 
L 171.066648 294.792625 
L 171.298709 294.736875 
L 171.530771 294.426549 
L 171.994895 294.630558 
L 172.226957 294.740535 
L 172.459019 294.34036 
L 173.387266 294.480393 
L 173.619328 294.554531 
L 173.85139 294.292987 
L 174.083452 294.417202 
L 174.315514 294.350037 
L 174.547576 294.557466 
L 174.779637 294.307884 
L 175.011699 294.413507 
L 175.243761 294.35689 
L 175.475823 294.136534 
L 175.707885 294.296142 
L 176.40407 294.217237 
L 176.636132 294.469674 
L 177.100256 294.111633 
L 177.332318 294.559567 
L 177.56438 294.611536 
L 177.796442 294.388113 
L 178.028503 294.437449 
L 178.260565 294.926916 
L 178.492627 294.684281 
L 178.724689 295.052117 
L 179.188813 294.782259 
L 179.420875 294.503603 
L 179.652937 294.605477 
L 179.884998 294.907311 
L 180.11706 294.448976 
L 180.349122 294.456042 
L 180.581184 294.853513 
L 180.813246 294.617369 
L 181.045308 294.878113 
L 181.27737 294.624105 
L 181.741493 294.903655 
L 181.973555 294.724427 
L 182.205617 294.854799 
L 182.437679 294.522824 
L 182.901803 294.80333 
L 183.133864 295.116077 
L 183.597988 294.308715 
L 183.83005 294.601767 
L 184.062112 294.714865 
L 184.294174 294.431072 
L 184.526236 295.029064 
L 184.758297 294.865995 
L 184.990359 294.513545 
L 185.222421 294.398896 
L 185.918607 294.480336 
L 186.382731 294.576351 
L 186.846854 294.272568 
L 187.078916 295.226546 
L 187.310978 294.59391 
L 187.775102 294.629294 
L 188.007164 294.421721 
L 188.239225 294.503856 
L 188.471287 294.7455 
L 188.703349 294.457859 
L 188.935411 294.998312 
L 189.167473 294.915731 
L 189.399535 294.543554 
L 189.863658 294.518918 
L 190.09572 294.780785 
L 190.327782 294.505099 
L 190.559844 294.530442 
L 190.791906 294.385869 
L 191.023968 294.524934 
L 191.25603 294.991681 
L 191.488091 294.578944 
L 191.952215 294.494764 
L 192.184277 294.265026 
L 192.416339 294.230011 
L 192.648401 294.701608 
L 192.880463 294.396078 
L 193.576648 294.447229 
L 193.80871 294.566003 
L 194.040772 294.363268 
L 194.272834 294.410286 
L 194.504896 294.588348 
L 194.736958 294.339334 
L 195.897267 294.389116 
L 196.129329 294.697649 
L 196.361391 294.443233 
L 196.593452 294.366447 
L 196.825514 294.984024 
L 197.289638 293.67283 
L 197.753762 294.30429 
L 198.217886 294.596288 
L 198.449947 294.540291 
L 198.682009 294.94718 
L 198.914071 294.520076 
L 199.146133 294.620653 
L 200.306442 294.455852 
L 200.538504 294.591572 
L 200.770566 294.509776 
L 201.466752 294.769955 
L 201.698813 294.613245 
L 201.930875 294.310341 
L 202.162937 294.513011 
L 202.627061 294.444752 
L 203.323246 294.484209 
L 203.555308 294.704657 
L 203.78737 294.705733 
L 204.019432 294.42802 
L 204.483556 294.360909 
L 204.715618 294.199443 
L 204.94768 294.327647 
L 205.179741 294.269989 
L 205.875927 294.533333 
L 206.340051 294.4366 
L 206.804174 294.488082 
L 211.21335 294.434298 
L 211.445412 294.674432 
L 211.677474 294.258822 
L 212.141597 294.35621 
L 212.373659 294.286574 
L 213.069845 294.596082 
L 213.301907 294.43789 
L 213.76603 294.431396 
L 213.998092 294.415302 
L 214.230154 295.066624 
L 214.694278 294.248706 
L 214.92634 294.5624 
L 215.158401 294.357751 
L 215.622525 294.592453 
L 215.854587 294.277717 
L 216.318711 294.611099 
L 216.550773 294.549064 
L 216.782834 294.658368 
L 217.014896 294.609993 
L 217.246958 294.41377 
L 217.47902 294.478047 
L 217.711082 294.717906 
L 217.943144 294.470148 
L 218.175206 294.476666 
L 218.407268 294.288737 
L 218.639329 294.836843 
L 218.871391 294.873786 
L 219.103453 294.683189 
L 219.567577 295.001274 
L 219.799639 294.643463 
L 220.031701 294.792279 
L 220.263762 294.72093 
L 220.727886 295.001605 
L 220.959948 295.149183 
L 221.19201 294.713241 
L 221.424072 295.244785 
L 221.656134 294.686127 
L 221.888195 294.957437 
L 222.584381 294.652868 
L 222.816443 294.441488 
L 223.048505 294.524264 
L 223.280567 294.285035 
L 223.512629 294.640616 
L 223.976752 294.589582 
L 224.208814 294.520931 
L 224.672938 294.70516 
L 224.905 294.621116 
L 225.137062 294.853263 
L 225.601185 294.486978 
L 225.833247 294.798808 
L 226.065309 294.871981 
L 226.297371 295.111146 
L 226.993556 294.538536 
L 227.225618 295.17089 
L 227.45768 294.53625 
L 227.689742 294.359765 
L 227.921804 294.916726 
L 228.153866 294.891502 
L 228.385928 294.590517 
L 228.617989 294.756055 
L 228.850051 295.218453 
L 229.082113 294.761697 
L 229.314175 295.019659 
L 229.546237 294.70935 
L 229.778299 295.002348 
L 230.010361 294.320269 
L 230.242423 294.320627 
L 230.474484 293.919487 
L 230.706546 294.429293 
L 230.938608 294.069355 
L 231.17067 294.667342 
L 231.402732 294.471577 
L 231.866856 294.755755 
L 232.098917 294.746285 
L 232.330979 294.421703 
L 232.563041 294.983072 
L 233.027165 294.593654 
L 233.259227 294.729172 
L 233.491289 294.133304 
L 233.72335 294.770992 
L 233.955412 294.594023 
L 234.187474 294.843734 
L 234.651598 294.850068 
L 234.88366 295.309512 
L 235.115722 294.566125 
L 235.347783 294.638422 
L 236.043969 294.557902 
L 236.276031 294.544492 
L 236.508093 294.731657 
L 236.740155 294.744302 
L 236.972217 294.246022 
L 237.43634 294.551847 
L 237.668402 294.55145 
L 237.900464 294.388915 
L 238.132526 294.635141 
L 238.364588 294.568913 
L 238.59665 294.70006 
L 238.828711 294.660595 
L 239.060773 294.400646 
L 239.756959 294.361393 
L 239.989021 294.599761 
L 240.685206 294.253218 
L 240.917268 294.573937 
L 241.613454 294.380867 
L 241.845516 294.545115 
L 242.077577 294.291698 
L 242.309639 294.653564 
L 242.541701 294.761012 
L 242.773763 294.233294 
L 243.005825 294.822144 
L 243.237887 294.402098 
L 243.469949 294.799475 
L 243.702011 294.840907 
L 243.934072 294.479548 
L 244.166134 294.365944 
L 244.630258 294.719485 
L 244.86232 294.501764 
L 245.094382 294.758757 
L 245.326444 294.499224 
L 245.790567 294.602943 
L 246.022629 294.343263 
L 246.254691 294.500379 
L 246.718815 294.301785 
L 246.950877 294.605983 
L 247.182938 294.123722 
L 247.415 294.292315 
L 247.647062 294.245472 
L 247.879124 294.702427 
L 248.111186 294.744514 
L 248.343248 294.91197 
L 248.57531 294.44256 
L 249.039433 294.808257 
L 249.503557 294.599948 
L 249.735619 294.218821 
L 249.967681 294.593548 
L 250.431805 294.887195 
L 250.663866 294.776104 
L 250.895928 294.295785 
L 251.360052 294.749343 
L 251.592114 294.208427 
L 251.824176 294.963456 
L 252.056238 295.31539 
L 252.288299 294.787126 
L 252.752423 295.095393 
L 252.984485 294.782128 
L 253.216547 294.683728 
L 253.680671 294.740556 
L 253.912732 295.052784 
L 254.144794 295.017053 
L 254.376856 294.848484 
L 254.608918 294.830898 
L 254.84098 294.979389 
L 255.073042 294.615526 
L 255.537166 294.663333 
L 255.769227 294.482702 
L 256.001289 294.662241 
L 256.233351 294.312075 
L 256.697475 294.441482 
L 256.929537 294.506074 
L 257.39366 294.373474 
L 257.857784 294.649449 
L 258.089846 294.505156 
L 258.55397 294.481932 
L 259.018093 294.202175 
L 259.250155 294.481233 
L 259.482217 294.544313 
L 260.178403 294.411141 
L 260.410465 294.493028 
L 260.642526 294.397908 
L 260.874588 294.499146 
L 261.10665 294.399446 
L 261.570774 294.616028 
L 261.802836 294.303166 
L 262.034898 294.264116 
L 262.26696 294.440647 
L 262.963145 294.309343 
L 263.195207 294.477972 
L 263.427269 294.30594 
L 263.659331 294.458469 
L 264.81964 294.284528 
L 265.051702 294.363212 
L 265.515826 294.323872 
L 265.747887 294.331373 
L 265.979949 294.754898 
L 266.212011 294.434285 
L 266.908197 294.430843 
L 267.140259 294.172474 
L 267.37232 294.880894 
L 267.604382 294.338959 
L 267.836444 294.176136 
L 268.068506 294.544525 
L 268.764692 294.711689 
L 268.996754 294.469456 
L 269.228815 294.637269 
L 269.460877 294.49436 
L 269.692939 294.506887 
L 269.925001 294.330439 
L 270.157063 294.444844 
L 270.853248 294.485113 
L 271.08531 294.682744 
L 271.317372 294.433112 
L 271.549434 294.471578 
L 272.013558 294.032891 
L 272.24562 294.3439 
L 272.477681 294.186178 
L 272.941805 294.169048 
L 273.405929 294.340003 
L 273.637991 294.243692 
L 273.870053 294.341464 
L 274.102114 294.124475 
L 274.566238 294.485637 
L 275.030362 294.322184 
L 275.262424 294.853627 
L 275.494486 294.050277 
L 275.726548 294.21773 
L 275.958609 294.860659 
L 276.190671 294.326798 
L 276.422733 294.50293 
L 276.654795 294.368065 
L 277.583042 294.374067 
L 277.815104 294.23142 
L 278.047166 294.440457 
L 278.279228 293.902327 
L 278.975414 294.281443 
L 279.207475 294.103044 
L 279.439537 294.694484 
L 279.671599 294.070123 
L 280.135723 294.526776 
L 280.367785 294.095873 
L 280.831909 294.910187 
L 281.06397 294.302406 
L 281.296032 294.538816 
L 281.760156 294.450963 
L 281.992218 294.407884 
L 282.456342 294.693184 
L 282.688403 293.94616 
L 282.920465 294.675399 
L 283.152527 294.544046 
L 283.384589 294.230612 
L 283.616651 294.926578 
L 283.848713 294.706632 
L 284.080775 294.903642 
L 284.312836 294.807325 
L 284.544898 294.443752 
L 284.77696 294.564202 
L 285.009022 294.433596 
L 285.473146 294.406333 
L 286.401393 294.444749 
L 286.633455 294.203974 
L 286.865517 294.317451 
L 287.329641 294.061739 
L 287.561703 294.25533 
L 287.793764 294.281233 
L 288.025826 294.153379 
L 288.257888 294.371036 
L 288.48995 294.312815 
L 288.722012 295.1269 
L 289.186136 294.5024 
L 289.882321 294.496539 
L 290.114383 293.908264 
L 290.346445 293.805806 
L 290.578507 294.171192 
L 291.274692 294.360934 
L 291.506754 294.15248 
L 291.738816 294.408365 
L 292.20294 294.007599 
L 292.435002 294.253342 
L 292.667063 294.160567 
L 292.899125 293.728697 
L 293.827373 294.062567 
L 294.059435 293.960605 
L 294.291497 294.039753 
L 294.523558 293.886112 
L 294.75562 293.877757 
L 294.987682 294.037061 
L 295.683868 294.106839 
L 295.91593 294.238584 
L 296.147991 293.816248 
L 296.380053 293.978385 
L 296.612115 294.520004 
L 296.844177 294.575945 
L 297.076239 294.26219 
L 297.308301 294.667202 
L 297.540363 294.160895 
L 298.004486 294.648256 
L 298.236548 294.739857 
L 298.46861 294.537007 
L 298.932734 294.574418 
L 299.164796 294.356285 
L 299.396857 294.583792 
L 299.860981 294.637929 
L 300.557167 294.444553 
L 301.485414 294.404369 
L 301.717476 294.215792 
L 301.949538 294.346422 
L 303.109847 294.219963 
L 303.573971 294.468938 
L 304.270157 294.075501 
L 304.502218 294.380549 
L 304.73428 294.341981 
L 304.966342 294.117308 
L 305.198404 293.663724 
L 305.430466 294.099575 
L 305.662528 294.25587 
L 305.89459 294.151355 
L 306.358713 294.479782 
L 306.590775 294.260399 
L 306.822837 294.735168 
L 307.286961 294.388094 
L 308.215208 294.342996 
L 308.911394 294.171111 
L 309.839641 294.064539 
L 310.999951 293.80431 
L 311.464074 294.355731 
L 311.696136 293.913918 
L 311.928198 294.137617 
L 312.16026 293.910579 
L 312.624384 293.896922 
L 313.088507 294.129806 
L 313.552631 293.951636 
L 314.016755 294.110597 
L 314.248817 294.063251 
L 314.480879 294.130049 
L 314.71294 293.93169 
L 315.409126 294.196064 
L 315.641188 294.245913 
L 315.87325 294.131485 
L 316.105312 294.229014 
L 316.337373 294.135846 
L 316.569435 294.315975 
L 316.801497 294.178382 
L 317.033559 294.246408 
L 317.265621 294.073013 
L 317.729745 294.39018 
L 318.193868 294.116066 
L 318.657992 294.377592 
L 319.122116 294.047594 
L 319.818301 294.063142 
L 321.210673 294.094007 
L 321.442734 294.153053 
L 321.674796 293.908561 
L 321.906858 294.170268 
L 322.370982 294.181725 
L 322.603044 294.106193 
L 323.299229 294.223716 
L 323.531291 293.850207 
L 323.763353 294.081203 
L 323.995415 294.116492 
L 324.459539 294.299991 
L 325.85191 294.018306 
L 326.316034 294.191999 
L 326.780157 294.102257 
L 327.012219 294.287616 
L 327.244281 294.133877 
L 329.100776 294.048263 
L 329.5649 293.851992 
L 329.796961 294.047285 
L 330.029023 293.904163 
L 330.261085 294.045999 
L 330.493147 293.85537 
L 331.189333 294.044274 
L 331.421395 293.848495 
L 331.653456 294.049547 
L 331.885518 293.814943 
L 332.349642 293.980857 
L 332.813766 293.980753 
L 333.045828 294.194466 
L 333.742013 294.140183 
L 334.206137 293.923862 
L 334.902322 294.095322 
L 335.134384 294.191159 
L 335.598508 293.897064 
L 336.062632 294.071348 
L 336.526755 294.164578 
L 336.990879 294.079143 
L 337.455003 294.212496 
L 337.687065 294.232173 
L 337.919127 294.133206 
L 338.38325 294.227445 
L 339.079436 294.169215 
L 339.54356 294.244615 
L 340.007683 294.117198 
L 340.239745 294.234623 
L 340.471807 294.18728 
L 340.935931 293.918926 
L 341.167993 294.031989 
L 341.400055 293.878237 
L 341.632116 294.050898 
L 341.864178 293.798625 
L 342.560364 294.01811 
L 343.488611 293.819426 
L 343.720673 294.137739 
L 344.416859 293.931778 
L 344.648921 293.980317 
L 345.113044 293.894076 
L 346.273354 293.84098 
L 346.505416 293.695023 
L 347.201601 293.935578 
L 347.433663 293.827117 
L 347.897787 293.929495 
L 348.129849 294.025049 
L 348.593972 293.652659 
L 348.826034 293.865717 
L 349.058096 293.923857 
L 349.290158 293.834797 
L 349.52222 293.984582 
L 349.754282 293.941796 
L 350.218405 294.035542 
L 350.450467 293.978824 
L 350.682529 294.303514 
L 350.914591 294.144599 
L 351.146653 294.191428 
L 351.378715 293.901005 
L 351.610777 294.326603 
L 351.842838 294.177024 
L 352.0749 294.394686 
L 352.306962 294.366095 
L 352.539024 294.172416 
L 352.771086 294.161997 
L 353.003148 294.030015 
L 353.23521 294.264631 
L 353.699333 294.117512 
L 354.163457 294.13088 
L 354.395519 294.021795 
L 354.627581 294.164546 
L 354.859643 294.059211 
L 355.091704 294.177542 
L 355.555828 293.955504 
L 356.019952 293.915579 
L 356.716138 293.823403 
L 356.948199 294.023165 
L 357.412323 293.891787 
L 357.876447 294.151102 
L 359.036756 293.867527 
L 359.268818 294.067717 
L 359.965004 294.03555 
L 360.197065 294.198241 
L 360.429127 293.945999 
L 361.125313 293.951354 
L 361.357375 294.100423 
L 361.589437 293.877739 
L 362.517684 293.991111 
L 363.445932 293.944289 
L 363.677993 293.697529 
L 364.606241 293.87081 
L 365.534488 293.727546 
L 365.76655 293.918941 
L 366.694798 293.81502 
L 366.926859 294.038681 
L 367.158921 293.592147 
L 367.390983 293.413007 
L 367.623045 293.762396 
L 367.855107 293.72389 
L 368.087169 294.006341 
L 368.319231 294.014928 
L 368.551292 294.391126 
L 368.783354 294.134381 
L 369.015416 294.280152 
L 369.247478 294.219131 
L 369.47954 293.945164 
L 369.943664 294.081665 
L 370.175726 294.023327 
L 370.639849 293.700916 
L 370.871911 293.988606 
L 372.264282 294.26854 
L 372.496344 293.961952 
L 372.728406 294.21114 
L 372.960468 294.289915 
L 373.19253 294.02962 
L 374.120777 294.250477 
L 374.352839 294.272857 
L 374.584901 294.138552 
L 375.513148 294.119923 
L 375.74521 293.776261 
L 375.977272 293.797541 
L 376.441396 294.022842 
L 376.90552 293.770903 
L 377.137581 294.260021 
L 377.601705 293.815881 
L 378.065829 293.678804 
L 378.529953 293.842025 
L 378.762014 293.707104 
L 379.226138 293.9895 
L 379.690262 293.73712 
L 379.922324 294.011412 
L 380.386447 293.403334 
L 380.618509 293.810659 
L 381.314695 293.745804 
L 381.546757 293.993328 
L 381.778819 293.727618 
L 382.242942 294.070897 
L 382.707066 293.861682 
L 383.403252 293.888478 
L 383.635314 293.896391 
L 383.867375 293.629085 
L 384.563561 294.158211 
L 384.795623 293.945961 
L 385.027685 293.568775 
L 385.72387 293.647273 
L 386.187994 293.951479 
L 386.420056 293.770454 
L 387.116241 293.974621 
L 387.348303 294.041572 
L 387.580365 293.879051 
L 387.812427 294.085347 
L 388.740675 294.12572 
L 388.972736 294.046757 
L 389.204798 293.815032 
L 389.43686 293.983317 
L 389.668922 293.902156 
L 390.133046 294.139995 
L 390.365108 294.039016 
L 390.597169 294.261026 
L 390.829231 294.030574 
L 391.293355 294.115067 
L 391.525417 293.890022 
L 391.757479 293.86244 
L 391.989541 293.965531 
L 392.221602 293.737391 
L 392.685726 293.706865 
L 392.917788 293.822744 
L 393.14985 293.68369 
L 393.381912 293.705424 
L 393.613974 293.940583 
L 393.846035 293.995237 
L 394.078097 293.848934 
L 394.310159 294.019759 
L 394.542221 293.963273 
L 395.006345 294.042134 
L 395.470469 293.87496 
L 395.70253 294.011088 
L 396.398716 293.976547 
L 396.630778 294.182538 
L 397.094902 293.70233 
L 397.326963 294.140731 
L 397.559025 294.251318 
L 397.791087 294.046481 
L 398.487273 294.222204 
L 398.487273 294.222204 
" style="fill:none;stroke:#1f77b4;stroke-linecap:square;stroke-width:1.5;"/>
   </g>
   <g id="line2d_18">
    <path clip-path="url(#p42860ba837)" d="M 73.832727 53.568 
L 74.528913 85.486988 
L 74.993037 101.05099 
L 75.45716 110.286854 
L 75.921284 114.695724 
L 76.153346 115.398764 
L 76.385408 114.462199 
L 76.849531 110.520442 
L 78.473965 91.729565 
L 79.402212 86.018044 
L 79.866336 84.809527 
L 80.098398 84.631039 
L 80.330459 84.846244 
L 80.562521 85.360406 
L 81.026645 87.400235 
L 81.490769 90.495857 
L 82.419016 99.397735 
L 84.043449 117.198262 
L 86.132006 132.055621 
L 91.933553 166.462841 
L 92.629738 172.338039 
L 94.254171 187.459396 
L 94.486233 188.990799 
L 95.41448 197.130046 
L 95.646542 197.876881 
L 96.110666 201.480956 
L 96.57479 205.648838 
L 97.038914 208.60176 
L 97.270975 209.17412 
L 97.503037 209.28599 
L 97.735099 209.203107 
L 97.967161 209.563246 
L 98.199223 209.552701 
L 98.663347 210.701082 
L 98.895408 211.920564 
L 99.12747 212.089634 
L 100.055718 218.459159 
L 100.28778 220.662948 
L 100.519841 221.662415 
L 101.216027 226.916079 
L 101.680151 232.966853 
L 102.144274 237.594347 
L 102.376336 236.779497 
L 102.84046 239.495969 
L 103.072522 239.585829 
L 103.304584 240.835393 
L 103.536646 241.444817 
L 103.768708 241.23476 
L 104.000769 241.458291 
L 104.232831 241.97342 
L 104.464893 242.782605 
L 104.696955 242.64343 
L 105.161079 243.309379 
L 105.625202 245.125855 
L 105.857264 244.887635 
L 106.089326 245.371633 
L 106.321388 246.830391 
L 106.55345 247.42654 
L 106.785512 245.589757 
L 107.017574 249.210965 
L 107.249635 249.553511 
L 107.481697 250.142889 
L 107.713759 250.26522 
L 108.409945 252.742382 
L 108.642007 251.314773 
L 108.874068 251.186995 
L 109.10613 251.349628 
L 109.338192 252.377221 
L 109.570254 252.673722 
L 109.802316 253.329162 
L 110.26644 252.751692 
L 110.498502 254.875832 
L 110.730563 255.252703 
L 110.962625 255.886075 
L 111.194687 254.745268 
L 111.426749 256.114241 
L 111.658811 256.648556 
L 111.890873 256.838798 
L 112.122935 256.736913 
L 112.81912 257.566357 
L 113.051182 257.48658 
L 113.515306 258.056712 
L 113.747368 258.028425 
L 113.979429 258.353512 
L 114.211491 257.631539 
L 114.443553 258.957955 
L 114.907677 257.847399 
L 115.139739 258.394698 
L 115.371801 258.475846 
L 115.603862 258.866945 
L 116.067986 257.690621 
L 116.300048 257.796245 
L 116.53211 257.777196 
L 116.764172 258.373184 
L 116.996234 259.347399 
L 117.228296 258.802727 
L 117.460357 259.177183 
L 117.692419 260.807984 
L 118.156543 261.167669 
L 118.388605 260.281149 
L 118.852729 262.047551 
L 119.08479 261.916036 
L 119.316852 262.127133 
L 119.780976 262.086591 
L 120.013038 261.864858 
L 120.2451 262.247521 
L 120.477162 262.224069 
L 120.709223 261.913619 
L 120.941285 261.948986 
L 121.405409 260.947259 
L 122.101595 259.476965 
L 122.565718 256.396042 
L 122.79778 253.620395 
L 123.261904 255.073336 
L 123.493966 255.206643 
L 124.422213 258.919164 
L 124.886337 259.590095 
L 126.046646 261.936335 
L 126.51077 261.261898 
L 126.974894 263.654353 
L 127.206956 263.4855 
L 128.367265 264.311577 
L 128.831389 263.792212 
L 129.063451 263.930192 
L 129.295512 263.202258 
L 129.527574 261.141811 
L 129.759636 261.151474 
L 129.991698 261.699444 
L 130.22376 260.513102 
L 130.455822 261.524543 
L 130.687884 261.073142 
L 131.616131 261.136432 
L 131.848193 261.601256 
L 132.312317 261.865302 
L 133.008502 262.926442 
L 133.240564 262.667467 
L 133.472626 263.534063 
L 133.704688 263.608357 
L 133.93675 263.900392 
L 134.168811 264.44981 
L 134.400873 264.403806 
L 134.632935 264.964226 
L 134.864997 263.957244 
L 135.097059 263.946793 
L 135.329121 265.363847 
L 135.793245 266.567246 
L 136.48943 267.796427 
L 136.953554 267.769029 
L 137.185616 266.579094 
L 137.649739 267.599409 
L 137.881801 265.752881 
L 138.113863 266.076172 
L 138.345925 267.744803 
L 138.810049 267.683828 
L 139.274172 268.466801 
L 139.506234 268.529412 
L 139.738296 267.323523 
L 139.970358 269.206976 
L 140.20242 269.013771 
L 140.434482 267.426242 
L 140.666544 267.758688 
L 141.130667 268.885051 
L 141.362729 268.651891 
L 141.594791 268.021388 
L 141.826853 265.974105 
L 142.058915 265.93526 
L 142.290977 265.48571 
L 142.523039 266.167713 
L 142.7551 265.806618 
L 142.987162 267.089442 
L 143.451286 268.061701 
L 143.683348 267.718601 
L 144.147472 269.80168 
L 144.379533 271.071377 
L 144.843657 271.575536 
L 145.075719 270.638221 
L 145.539843 272.24987 
L 145.771905 271.952197 
L 146.003966 269.910791 
L 146.236028 273.124037 
L 146.46809 273.089236 
L 146.700152 274.983416 
L 146.932214 274.876659 
L 147.164276 275.648213 
L 147.396338 275.622773 
L 147.6284 274.655869 
L 147.860461 275.486647 
L 148.092523 273.526709 
L 148.324585 275.679779 
L 148.556647 272.555785 
L 148.788709 271.881278 
L 149.020771 271.616632 
L 149.252833 270.111936 
L 149.484894 270.248604 
L 149.716956 267.864022 
L 149.949018 266.783609 
L 150.645204 268.773451 
L 150.877266 269.425906 
L 151.109327 269.336885 
L 151.341389 268.171837 
L 152.501699 273.139297 
L 152.73376 271.479087 
L 152.965822 271.492278 
L 153.197884 271.802871 
L 153.429946 271.81128 
L 153.662008 271.586751 
L 153.89407 272.84924 
L 154.126132 274.922045 
L 154.358194 275.155683 
L 154.590255 274.789428 
L 154.822317 275.411994 
L 155.054379 277.175953 
L 155.286441 277.9195 
L 155.518503 277.774004 
L 155.750565 275.566684 
L 155.982627 275.658612 
L 156.214688 277.234285 
L 156.44675 276.035274 
L 156.678812 276.364839 
L 157.142936 274.355798 
L 157.374998 273.403414 
L 157.60706 273.223992 
L 158.071183 269.182575 
L 158.303245 268.394338 
L 158.535307 268.466739 
L 158.767369 267.992262 
L 159.463554 270.735231 
L 159.695616 269.616441 
L 159.927678 269.580701 
L 160.15974 270.02057 
L 160.391802 269.942926 
L 160.623864 271.118797 
L 161.320049 271.950054 
L 161.552111 273.7512 
L 161.784173 274.31058 
L 162.016235 273.193209 
L 162.248297 274.970179 
L 163.408606 265.832806 
L 163.640668 264.31001 
L 163.87273 264.763423 
L 164.104792 263.267912 
L 164.336854 263.268158 
L 165.033039 261.566687 
L 165.265101 260.807468 
L 165.497163 261.910467 
L 165.729225 260.834302 
L 165.961287 261.435235 
L 166.193348 261.316275 
L 166.657472 259.012619 
L 167.353658 263.074548 
L 167.58572 262.375191 
L 167.817782 262.77263 
L 168.513967 266.368097 
L 168.746029 265.862868 
L 168.978091 266.809525 
L 169.210153 266.990296 
L 169.442215 268.996388 
L 169.674276 268.437206 
L 169.906338 268.362311 
L 170.1384 269.225595 
L 170.370462 269.23662 
L 170.602524 268.799986 
L 170.834586 269.287394 
L 171.298709 269.017374 
L 171.762833 272.327716 
L 171.994895 272.793098 
L 172.459019 269.569229 
L 172.691081 268.496447 
L 172.923143 269.192767 
L 173.155204 267.615878 
L 173.387266 267.856716 
L 173.619328 267.47651 
L 174.315514 262.090212 
L 175.011699 258.198993 
L 175.243761 259.183033 
L 175.475823 257.357517 
L 175.939947 258.945883 
L 176.172009 258.642789 
L 176.40407 258.597455 
L 176.636132 256.954525 
L 176.868194 256.677927 
L 177.100256 256.737082 
L 177.56438 258.830814 
L 178.028503 260.494331 
L 178.260565 261.032071 
L 178.492627 260.498381 
L 178.724689 260.572986 
L 178.956751 260.920765 
L 179.188813 260.730074 
L 179.420875 260.042573 
L 179.652937 260.240445 
L 179.884998 260.249433 
L 180.11706 261.847356 
L 180.349122 261.245171 
L 180.813246 259.712661 
L 181.045308 259.029545 
L 181.27737 260.182548 
L 181.741493 260.934577 
L 181.973555 260.261741 
L 182.437679 260.873242 
L 182.901803 261.010988 
L 183.133864 259.631607 
L 183.365926 260.103635 
L 183.597988 260.829401 
L 183.83005 262.432642 
L 184.062112 262.317725 
L 184.294174 262.352783 
L 184.526236 261.242254 
L 184.758297 262.105229 
L 184.990359 261.989682 
L 185.222421 260.215073 
L 185.686545 258.821395 
L 186.150669 258.230126 
L 186.382731 259.046965 
L 186.846854 258.364857 
L 187.310978 263.157714 
L 187.54304 261.792903 
L 187.775102 262.991244 
L 188.007164 262.631006 
L 188.239225 262.530102 
L 188.471287 262.635467 
L 188.703349 263.250514 
L 189.167473 261.877562 
L 189.399535 262.705796 
L 190.09572 260.106464 
L 190.327782 260.093618 
L 190.791906 258.475381 
L 191.023968 258.480137 
L 191.25603 257.714402 
L 191.488091 257.5078 
L 191.720153 254.900645 
L 191.952215 253.894981 
L 192.184277 254.402154 
L 192.416339 253.20313 
L 192.880463 252.50331 
L 193.112525 252.349704 
L 193.576648 253.592512 
L 193.80871 254.498096 
L 194.040772 254.483841 
L 194.272834 255.050286 
L 194.736958 254.73938 
L 194.969019 253.506857 
L 195.201081 254.909196 
L 195.433143 253.589492 
L 195.665205 254.218667 
L 195.897267 256.232327 
L 196.129329 257.126722 
L 196.361391 257.257025 
L 196.593452 258.23431 
L 197.057576 258.875247 
L 197.289638 259.076183 
L 197.753762 258.5232 
L 197.985824 258.514276 
L 198.217886 258.297261 
L 198.449947 258.342884 
L 198.682009 257.626054 
L 198.914071 257.594521 
L 199.610257 255.341838 
L 199.842319 253.176275 
L 200.306442 252.234672 
L 200.538504 252.233163 
L 201.002628 253.140527 
L 201.23469 253.261335 
L 201.466752 254.427766 
L 201.930875 255.329246 
L 202.394999 254.170533 
L 202.627061 253.603791 
L 202.859123 254.340904 
L 203.091185 255.5858 
L 203.323246 256.098528 
L 203.555308 256.969533 
L 203.78737 258.935346 
L 204.019432 258.832032 
L 204.251494 259.1321 
L 204.715618 260.269945 
L 204.94768 260.387138 
L 205.179741 261.177751 
L 205.411803 260.892409 
L 205.643865 259.488252 
L 206.340051 260.521248 
L 206.572113 259.370584 
L 206.804174 258.9303 
L 207.036236 258.051773 
L 207.268298 255.33653 
L 207.50036 255.419733 
L 207.732422 254.408356 
L 208.196546 254.92691 
L 208.428607 255.092714 
L 208.892731 255.783723 
L 209.124793 255.521423 
L 209.356855 257.018043 
L 209.588917 257.695291 
L 209.820979 257.797824 
L 210.05304 258.117225 
L 210.285102 256.768986 
L 210.517164 256.268656 
L 210.749226 258.533392 
L 210.981288 258.351338 
L 211.445412 260.676221 
L 211.677474 259.89961 
L 211.909535 260.452801 
L 212.141597 261.481043 
L 212.605721 261.080228 
L 212.837783 260.583381 
L 213.069845 261.351036 
L 213.301907 261.389252 
L 213.533968 261.776634 
L 213.76603 261.226218 
L 213.998092 261.079826 
L 214.462216 260.174489 
L 214.92634 255.766805 
L 215.158401 254.486514 
L 215.390463 255.011097 
L 216.318711 259.142968 
L 216.550773 259.835587 
L 216.782834 260.970887 
L 217.014896 259.205011 
L 217.246958 261.050987 
L 217.47902 261.528632 
L 217.711082 261.345352 
L 217.943144 261.463173 
L 218.175206 259.434296 
L 218.407268 258.600739 
L 218.639329 259.750002 
L 218.871391 260.046221 
L 219.103453 261.183998 
L 219.335515 260.499758 
L 219.567577 261.26774 
L 220.263762 260.404403 
L 220.495824 260.200819 
L 220.727886 260.350362 
L 220.959948 261.592282 
L 221.19201 261.760014 
L 221.424072 261.185191 
L 221.656134 262.225632 
L 221.888195 261.443863 
L 222.120257 259.149825 
L 222.352319 258.704089 
L 222.584381 257.491437 
L 223.048505 259.051774 
L 223.280567 259.570882 
L 223.74469 262.479421 
L 223.976752 262.988364 
L 224.208814 264.292904 
L 224.440876 264.254163 
L 224.672938 265.625522 
L 224.905 265.972874 
L 225.137062 266.004559 
L 225.601185 263.675678 
L 225.833247 263.112547 
L 226.065309 263.142978 
L 226.297371 260.468063 
L 226.529433 260.284359 
L 226.993556 261.779651 
L 227.225618 261.868139 
L 227.45768 261.816262 
L 227.689742 261.128884 
L 228.153866 260.947256 
L 228.617989 259.349505 
L 229.082113 258.145447 
L 229.314175 258.572464 
L 229.546237 259.391102 
L 229.778299 259.273885 
L 230.010361 257.389179 
L 230.242423 257.845017 
L 230.474484 258.674488 
L 230.938608 261.796443 
L 231.17067 261.707185 
L 231.866856 264.618759 
L 232.330979 266.22613 
L 232.563041 266.565867 
L 232.795103 267.882321 
L 233.027165 267.084041 
L 233.259227 266.825302 
L 233.491289 265.932516 
L 233.72335 264.315203 
L 233.955412 264.593942 
L 234.419536 263.644031 
L 234.651598 264.46092 
L 234.88366 263.782148 
L 235.115722 263.946668 
L 235.347783 263.880798 
L 235.579845 263.674852 
L 236.276031 264.279002 
L 236.740155 265.444092 
L 236.972217 265.614006 
L 237.204278 265.954338 
L 237.43634 265.377306 
L 237.668402 262.937884 
L 237.900464 263.125656 
L 238.132526 263.137847 
L 238.828711 265.738161 
L 239.060773 265.168616 
L 239.292835 263.991852 
L 239.524897 265.514999 
L 239.756959 265.08647 
L 239.989021 266.534967 
L 240.221083 265.419436 
L 240.453144 266.722661 
L 240.685206 266.789193 
L 240.917268 266.615258 
L 241.381392 267.014512 
L 241.845516 265.557256 
L 242.077577 266.375117 
L 242.309639 265.040323 
L 242.541701 264.859224 
L 243.005825 265.285302 
L 243.469949 266.343464 
L 243.702011 266.413399 
L 244.166134 267.358415 
L 244.398196 267.691682 
L 244.630258 266.873665 
L 244.86232 267.799146 
L 245.094382 266.709342 
L 245.326444 264.19007 
L 245.558505 265.716677 
L 246.022629 265.234256 
L 246.254691 265.647712 
L 246.486753 267.555161 
L 246.718815 266.323886 
L 246.950877 269.233877 
L 247.182938 270.298016 
L 247.415 268.563436 
L 247.647062 269.583205 
L 248.111186 269.962635 
L 248.343248 270.504772 
L 248.57531 269.950087 
L 248.807371 269.945476 
L 249.039433 269.792582 
L 249.271495 268.728882 
L 249.503557 268.921411 
L 249.735619 270.60158 
L 249.967681 268.140849 
L 250.199743 268.712016 
L 250.431805 268.136516 
L 250.663866 268.679417 
L 250.895928 269.606235 
L 251.12799 269.697016 
L 251.360052 269.334832 
L 251.592114 268.760394 
L 251.824176 269.126103 
L 252.056238 268.521812 
L 252.520361 265.444271 
L 252.752423 265.031055 
L 252.984485 266.044641 
L 253.216547 263.719836 
L 253.448609 262.812023 
L 253.912732 265.904156 
L 254.144794 264.89007 
L 254.376856 267.193488 
L 254.84098 265.088661 
L 255.305104 263.822026 
L 255.769227 267.288832 
L 256.001289 266.645588 
L 256.233351 267.220007 
L 256.465413 266.566932 
L 256.697475 266.612936 
L 256.929537 266.406369 
L 257.161599 265.757845 
L 257.39366 268.184508 
L 257.625722 267.873332 
L 257.857784 267.358622 
L 258.089846 267.809496 
L 258.321908 268.615157 
L 258.55397 268.782056 
L 258.786032 268.637414 
L 259.018093 269.075456 
L 259.250155 269.01901 
L 259.714279 267.692896 
L 260.178403 264.777306 
L 260.410465 264.383579 
L 260.642526 264.514524 
L 261.10665 264.211459 
L 261.338712 263.134977 
L 261.570774 263.635066 
L 262.034898 263.653985 
L 262.26696 262.857274 
L 262.499021 262.468666 
L 263.427269 265.719896 
L 263.659331 265.310407 
L 263.891393 264.111865 
L 264.123454 265.973577 
L 264.355516 265.10174 
L 264.587578 265.19184 
L 264.81964 264.304545 
L 265.051702 266.447351 
L 265.283764 267.031735 
L 265.979949 263.52327 
L 266.212011 264.38747 
L 266.444073 262.555303 
L 266.676135 261.782061 
L 267.140259 263.410892 
L 267.37232 264.00981 
L 267.836444 263.026649 
L 268.53263 265.232553 
L 268.764692 264.353421 
L 269.228815 267.695326 
L 269.460877 267.14909 
L 269.692939 265.694053 
L 269.925001 267.901362 
L 270.157063 268.492169 
L 270.389125 268.388685 
L 270.621187 270.235539 
L 270.853248 269.823309 
L 271.08531 269.866594 
L 271.317372 269.505617 
L 271.549434 269.46984 
L 271.781496 270.055211 
L 272.013558 269.975129 
L 272.24562 268.721599 
L 272.477681 268.132302 
L 272.709743 269.003922 
L 272.941805 267.822389 
L 273.173867 268.611902 
L 274.102114 261.292233 
L 274.334176 261.608217 
L 274.566238 260.4837 
L 274.7983 260.084421 
L 275.030362 261.487693 
L 275.262424 260.324237 
L 275.726548 262.412445 
L 275.958609 262.789375 
L 276.190671 262.373111 
L 276.422733 262.913356 
L 276.886857 265.443307 
L 277.118919 264.413731 
L 277.350981 265.249304 
L 277.583042 264.597996 
L 277.815104 268.016564 
L 278.279228 268.161647 
L 278.51129 267.861915 
L 278.743352 267.229628 
L 279.439537 269.00747 
L 279.671599 268.542563 
L 279.903661 269.28245 
L 280.367785 268.417384 
L 280.599847 268.448675 
L 280.831909 269.411501 
L 281.06397 268.374738 
L 281.296032 268.744347 
L 281.760156 265.160697 
L 281.992218 265.986563 
L 282.456342 263.746259 
L 282.688403 263.594512 
L 283.152527 264.599981 
L 283.384589 263.989397 
L 283.616651 265.139725 
L 283.848713 264.594975 
L 284.080775 263.47423 
L 284.312836 265.204263 
L 284.544898 265.348739 
L 284.77696 266.295788 
L 285.009022 268.119668 
L 285.241084 264.035719 
L 285.705208 267.099507 
L 285.937269 268.192808 
L 286.169331 268.029008 
L 286.401393 268.928799 
L 286.633455 268.593475 
L 286.865517 267.048575 
L 287.097579 268.480733 
L 287.329641 267.801078 
L 288.025826 268.792547 
L 288.257888 268.047796 
L 288.722012 267.835266 
L 289.186136 268.181856 
L 289.418197 267.489183 
L 289.650259 267.471235 
L 289.882321 266.662679 
L 290.114383 266.664525 
L 290.346445 265.387661 
L 290.810569 265.22971 
L 291.04263 264.977806 
L 291.274692 264.363119 
L 291.506754 264.570353 
L 291.738816 265.68969 
L 291.970878 264.219048 
L 292.435002 266.235083 
L 292.667063 264.352206 
L 293.363249 265.732162 
L 293.595311 266.243922 
L 294.291497 270.941836 
L 294.523558 270.980446 
L 295.219744 269.057604 
L 295.451806 267.379332 
L 295.683868 266.767891 
L 295.91593 268.103094 
L 296.380053 266.930197 
L 296.612115 266.012567 
L 296.844177 267.091809 
L 297.076239 266.674688 
L 297.308301 265.822087 
L 297.540363 266.281007 
L 297.772424 266.376055 
L 298.004486 266.808845 
L 298.236548 265.82457 
L 298.700672 266.792032 
L 298.932734 266.009065 
L 299.164796 266.302415 
L 299.628919 267.940805 
L 299.860981 269.150981 
L 300.093043 268.1528 
L 300.325105 264.26763 
L 300.557167 266.236697 
L 300.789229 266.91315 
L 301.253352 268.971452 
L 301.485414 269.346527 
L 301.717476 271.135711 
L 301.949538 271.242058 
L 302.1816 271.723884 
L 302.413662 271.798268 
L 302.645724 270.381224 
L 302.877785 270.298867 
L 303.109847 268.320036 
L 303.341909 268.938128 
L 303.573971 267.797409 
L 303.806033 267.372954 
L 304.038095 267.431194 
L 304.270157 268.982039 
L 304.502218 268.806843 
L 304.73428 269.688815 
L 304.966342 269.391242 
L 305.198404 267.504088 
L 305.430466 267.405357 
L 305.662528 267.116395 
L 305.89459 268.080082 
L 306.126652 268.228814 
L 306.358713 266.75301 
L 307.054899 269.423075 
L 307.286961 269.655154 
L 307.519023 268.17404 
L 307.751085 265.758362 
L 308.215208 266.205144 
L 308.679332 267.704695 
L 308.911394 268.24241 
L 309.143456 267.869801 
L 309.607579 268.845207 
L 309.839641 268.436109 
L 310.071703 269.429211 
L 310.303765 269.735361 
L 310.535827 269.655728 
L 310.767889 269.207757 
L 310.999951 267.737755 
L 311.232012 267.525571 
L 311.696136 269.206984 
L 312.16026 269.302865 
L 312.392322 267.937991 
L 312.856446 268.219587 
L 313.088507 268.222147 
L 313.320569 268.023126 
L 313.552631 269.284913 
L 313.784693 268.622222 
L 314.016755 269.690396 
L 314.248817 269.610345 
L 314.71294 269.089323 
L 314.945002 263.796398 
L 315.177064 263.289682 
L 315.409126 264.3225 
L 315.641188 263.966672 
L 315.87325 263.884746 
L 317.033559 268.382453 
L 317.729745 270.545512 
L 317.961806 270.200822 
L 318.42593 272.086125 
L 318.890054 270.720369 
L 319.122116 271.309817 
L 319.58624 270.319772 
L 319.818301 271.018807 
L 320.050363 270.994006 
L 320.282425 269.65133 
L 320.514487 269.148698 
L 320.746549 269.553597 
L 320.978611 269.425577 
L 321.210673 269.819881 
L 321.674796 269.352789 
L 321.906858 269.248852 
L 322.13892 268.148708 
L 322.370982 268.093108 
L 322.603044 268.290623 
L 322.835106 266.614693 
L 323.067167 266.041414 
L 323.299229 266.212182 
L 323.531291 265.71832 
L 323.763353 266.638794 
L 323.995415 266.526211 
L 324.459539 267.730758 
L 324.6916 266.494285 
L 325.155724 268.642592 
L 325.619848 266.728376 
L 325.85191 268.32803 
L 326.316034 268.475278 
L 326.780157 268.013692 
L 327.244281 266.333019 
L 327.476343 267.3062 
L 327.708405 267.332219 
L 327.940467 266.833737 
L 328.172528 266.757194 
L 328.40459 267.149852 
L 328.636652 268.080459 
L 328.868714 267.718955 
L 329.332838 268.844451 
L 329.5649 269.219862 
L 329.796961 268.061269 
L 330.261085 269.740364 
L 330.725209 270.473497 
L 331.189333 270.707555 
L 331.421395 270.698172 
L 331.653456 268.660066 
L 331.885518 270.249874 
L 332.11758 270.916712 
L 332.349642 270.334907 
L 332.581704 270.61475 
L 332.813766 270.497237 
L 333.045828 270.205218 
L 333.277889 269.434061 
L 333.509951 269.196941 
L 333.742013 267.9054 
L 334.670261 266.893125 
L 334.902322 266.944748 
L 335.134384 266.845001 
L 335.366446 266.361671 
L 335.598508 266.413205 
L 335.83057 265.974315 
L 336.294694 266.286541 
L 336.526755 266.535604 
L 336.990879 267.495993 
L 337.455003 269.938272 
L 337.919127 271.631008 
L 338.151189 271.990355 
L 338.38325 270.940655 
L 338.615312 272.053584 
L 338.847374 271.203702 
L 339.079436 272.85826 
L 339.311498 272.616083 
L 339.54356 271.474129 
L 339.775622 272.728214 
L 340.007683 272.623035 
L 340.703869 272.968025 
L 340.935931 272.397173 
L 341.167993 272.217765 
L 341.400055 271.874512 
L 341.632116 270.81806 
L 342.09624 272.112085 
L 342.792426 269.942338 
L 343.024488 268.258633 
L 343.256549 270.130671 
L 343.488611 268.944048 
L 343.720673 269.429079 
L 344.184797 267.462737 
L 344.416859 268.048824 
L 344.648921 268.17077 
L 344.880983 267.00714 
L 345.113044 266.663408 
L 345.345106 266.026895 
L 345.577168 267.112549 
L 345.80923 266.372466 
L 346.041292 267.160008 
L 346.273354 267.199301 
L 346.505416 268.68605 
L 346.737477 269.000005 
L 346.969539 268.777307 
L 347.201601 267.54129 
L 347.433663 268.48071 
L 347.665725 268.237652 
L 347.897787 267.542096 
L 348.129849 268.928823 
L 348.36191 266.869987 
L 348.593972 266.820251 
L 348.826034 267.262484 
L 349.290158 268.879727 
L 349.754282 268.533268 
L 349.986343 267.193174 
L 350.218405 267.735847 
L 350.450467 267.246716 
L 350.914591 267.612623 
L 351.146653 267.697976 
L 351.378715 267.984675 
L 351.842838 267.070974 
L 352.0749 267.283681 
L 352.539024 267.006844 
L 352.771086 267.532801 
L 353.003148 267.65393 
L 353.23521 267.105539 
L 353.699333 268.379438 
L 353.931395 268.689284 
L 354.163457 268.068726 
L 354.395519 269.276671 
L 354.627581 267.696249 
L 354.859643 269.1177 
L 355.091704 269.422181 
L 355.323766 268.6179 
L 355.555828 268.82417 
L 356.019952 271.120984 
L 356.252014 269.807802 
L 356.484076 270.169671 
L 356.716138 268.691586 
L 356.948199 268.013068 
L 357.412323 269.702242 
L 357.644385 267.834575 
L 357.876447 267.840268 
L 358.108509 267.114976 
L 358.340571 267.279997 
L 358.572632 267.111144 
L 358.804694 267.340664 
L 359.036756 266.751065 
L 359.268818 266.578986 
L 359.732942 266.712052 
L 360.197065 266.295179 
L 360.661189 266.62627 
L 360.893251 267.057718 
L 361.125313 268.640779 
L 361.357375 267.9749 
L 361.589437 268.924566 
L 361.821498 268.214402 
L 362.05356 268.648006 
L 362.517684 270.361173 
L 362.981808 270.258978 
L 363.21387 271.312706 
L 363.445932 270.248702 
L 363.677993 271.098798 
L 364.142117 270.487425 
L 364.606241 268.832559 
L 364.838303 268.459867 
L 365.070365 268.499946 
L 365.534488 266.327709 
L 365.76655 266.94399 
L 365.998612 266.919291 
L 366.230674 265.885473 
L 366.462736 265.377287 
L 366.694798 265.70462 
L 366.926859 265.375487 
L 367.158921 266.790201 
L 367.390983 267.051859 
L 367.623045 266.59322 
L 367.855107 265.705264 
L 368.087169 265.802607 
L 368.551292 266.499401 
L 368.783354 266.025126 
L 369.247478 268.140955 
L 369.47954 266.916832 
L 369.711602 267.303958 
L 369.943664 267.260301 
L 370.175726 267.420002 
L 370.639849 268.888314 
L 370.871911 267.725385 
L 371.103973 268.342484 
L 371.336035 267.859164 
L 371.568097 268.368097 
L 371.800159 270.554811 
L 372.03222 270.169542 
L 372.264282 268.833362 
L 372.496344 269.636911 
L 372.728406 267.720074 
L 372.960468 267.646668 
L 373.19253 267.45617 
L 373.424592 268.3712 
L 373.656653 268.802303 
L 373.888715 268.716716 
L 374.120777 268.099904 
L 374.352839 267.820765 
L 374.584901 268.05243 
L 374.816963 269.33555 
L 375.049025 269.61487 
L 375.513148 268.538587 
L 375.74521 268.933909 
L 375.977272 269.650712 
L 376.209334 269.440484 
L 376.441396 269.766563 
L 376.673458 269.490707 
L 377.137581 270.282433 
L 377.369643 269.545274 
L 377.601705 269.817018 
L 377.833767 269.571752 
L 378.065829 268.853143 
L 378.297891 269.341095 
L 378.529953 268.09113 
L 378.762014 268.63026 
L 378.994076 268.220098 
L 379.226138 266.91759 
L 379.4582 268.545918 
L 379.690262 267.91194 
L 379.922324 267.828409 
L 380.154386 266.155313 
L 380.386447 267.281143 
L 380.618509 267.179289 
L 380.850571 267.207938 
L 381.082633 265.727212 
L 381.314695 265.928311 
L 381.546757 265.697081 
L 381.778819 265.987391 
L 382.01088 266.573624 
L 382.242942 267.572581 
L 382.475004 267.37373 
L 382.707066 268.960641 
L 382.939128 269.635731 
L 383.17119 270.776298 
L 383.403252 270.185788 
L 383.867375 271.590932 
L 384.099437 271.251556 
L 384.331499 271.526546 
L 384.563561 271.244576 
L 384.795623 271.576579 
L 385.259747 270.395485 
L 385.491808 270.478556 
L 385.72387 270.980867 
L 385.955932 271.198309 
L 386.187994 271.013091 
L 386.652118 270.109446 
L 386.88418 271.035243 
L 387.580365 268.682244 
L 388.044489 269.308887 
L 388.276551 268.62035 
L 388.508613 267.438194 
L 388.740675 269.538678 
L 388.972736 268.990049 
L 389.43686 270.31713 
L 389.668922 269.918145 
L 389.900984 271.571569 
L 390.133046 271.284102 
L 390.365108 271.246666 
L 390.597169 270.499739 
L 390.829231 267.278311 
L 391.061293 270.087299 
L 391.293355 269.772791 
L 391.525417 270.522984 
L 391.757479 269.924568 
L 391.989541 269.814828 
L 392.221602 268.988431 
L 392.453664 263.567892 
L 392.685726 268.958053 
L 392.917788 268.259104 
L 393.14985 267.933303 
L 393.381912 268.118568 
L 393.846035 268.121685 
L 394.078097 268.565949 
L 394.310159 266.354095 
L 394.542221 268.337656 
L 394.774283 268.477095 
L 395.006345 268.436678 
L 395.470469 267.529144 
L 395.70253 267.467002 
L 395.934592 268.173181 
L 396.166654 267.730087 
L 396.398716 269.087783 
L 396.630778 268.975757 
L 396.86284 269.167319 
L 397.326963 269.931703 
L 397.559025 268.451125 
L 397.791087 269.851209 
L 398.023149 270.100135 
L 398.255211 269.370976 
L 398.487273 269.133167 
L 398.487273 269.133167 
" style="fill:none;stroke:#ff7f0e;stroke-linecap:square;stroke-width:1.5;"/>
   </g>
   <g id="patch_3">
    <path d="M 57.6 307.584 
L 57.6 41.472 
" style="fill:none;stroke:#000000;stroke-linecap:square;stroke-linejoin:miter;stroke-width:0.8;"/>
   </g>
   <g id="patch_4">
    <path d="M 414.72 307.584 
L 414.72 41.472 
" style="fill:none;stroke:#000000;stroke-linecap:square;stroke-linejoin:miter;stroke-width:0.8;"/>
   </g>
   <g id="patch_5">
    <path d="M 57.6 307.584 
L 414.72 307.584 
" style="fill:none;stroke:#000000;stroke-linecap:square;stroke-linejoin:miter;stroke-width:0.8;"/>
   </g>
   <g id="patch_6">
    <path d="M 57.6 41.472 
L 414.72 41.472 
" style="fill:none;stroke:#000000;stroke-linecap:square;stroke-linejoin:miter;stroke-width:0.8;"/>
   </g>
  </g>
 </g>
 <defs>
  <clipPath id="p42860ba837">
   <rect height="266.112" width="357.12" x="57.6" y="41.472"/>
  </clipPath>
 </defs>
</svg>
