<?xml version="1.0" encoding="utf-8" standalone="no"?>
<!DOCTYPE svg PUBLIC "-//W3C//DTD SVG 1.1//EN"
  "http://www.w3.org/Graphics/SVG/1.1/DTD/svg11.dtd">
<!-- Created with matplotlib (https://matplotlib.org/) -->
<svg height="345.6pt" version="1.1" viewBox="0 0 460.8 345.6" width="460.8pt" xmlns="http://www.w3.org/2000/svg" xmlns:xlink="http://www.w3.org/1999/xlink">
 <defs>
  <style type="text/css">
*{stroke-linecap:butt;stroke-linejoin:round;}
  </style>
 </defs>
 <g id="figure_1">
  <g id="patch_1">
   <path d="M 0 345.6 
L 460.8 345.6 
L 460.8 0 
L 0 0 
z
" style="fill:#ffffff;"/>
  </g>
  <g id="axes_1">
   <g id="patch_2">
    <path d="M 57.6 307.584 
L 414.72 307.584 
L 414.72 41.472 
L 57.6 41.472 
z
" style="fill:#ffffff;"/>
   </g>
   <g id="matplotlib.axis_1">
    <g id="xtick_1">
     <g id="line2d_1">
      <defs>
       <path d="M 0 0 
L 0 3.5 
" id="m6223f1674b" style="stroke:#000000;stroke-width:0.8;"/>
      </defs>
      <g>
       <use style="stroke:#000000;stroke-width:0.8;" x="73.832727" xlink:href="#m6223f1674b" y="307.584"/>
      </g>
     </g>
     <g id="text_1">
      <!-- 0 -->
      <defs>
       <path d="M 31.78125 66.40625 
Q 24.171875 66.40625 20.328125 58.90625 
Q 16.5 51.421875 16.5 36.375 
Q 16.5 21.390625 20.328125 13.890625 
Q 24.171875 6.390625 31.78125 6.390625 
Q 39.453125 6.390625 43.28125 13.890625 
Q 47.125 21.390625 47.125 36.375 
Q 47.125 51.421875 43.28125 58.90625 
Q 39.453125 66.40625 31.78125 66.40625 
z
M 31.78125 74.21875 
Q 44.046875 74.21875 50.515625 64.515625 
Q 56.984375 54.828125 56.984375 36.375 
Q 56.984375 17.96875 50.515625 8.265625 
Q 44.046875 -1.421875 31.78125 -1.421875 
Q 19.53125 -1.421875 13.0625 8.265625 
Q 6.59375 17.96875 6.59375 36.375 
Q 6.59375 54.828125 13.0625 64.515625 
Q 19.53125 74.21875 31.78125 74.21875 
z
" id="DejaVuSans-48"/>
      </defs>
      <g transform="translate(70.651477 322.182437)scale(0.1 -0.1)">
       <use xlink:href="#DejaVuSans-48"/>
      </g>
     </g>
    </g>
    <g id="xtick_2">
     <g id="line2d_2">
      <g>
       <use style="stroke:#000000;stroke-width:0.8;" x="120.2451" xlink:href="#m6223f1674b" y="307.584"/>
      </g>
     </g>
     <g id="text_2">
      <!-- 200 -->
      <defs>
       <path d="M 19.1875 8.296875 
L 53.609375 8.296875 
L 53.609375 0 
L 7.328125 0 
L 7.328125 8.296875 
Q 12.9375 14.109375 22.625 23.890625 
Q 32.328125 33.6875 34.8125 36.53125 
Q 39.546875 41.84375 41.421875 45.53125 
Q 43.3125 49.21875 43.3125 52.78125 
Q 43.3125 58.59375 39.234375 62.25 
Q 35.15625 65.921875 28.609375 65.921875 
Q 23.96875 65.921875 18.8125 64.3125 
Q 13.671875 62.703125 7.8125 59.421875 
L 7.8125 69.390625 
Q 13.765625 71.78125 18.9375 73 
Q 24.125 74.21875 28.421875 74.21875 
Q 39.75 74.21875 46.484375 68.546875 
Q 53.21875 62.890625 53.21875 53.421875 
Q 53.21875 48.921875 51.53125 44.890625 
Q 49.859375 40.875 45.40625 35.40625 
Q 44.1875 33.984375 37.640625 27.21875 
Q 31.109375 20.453125 19.1875 8.296875 
z
" id="DejaVuSans-50"/>
      </defs>
      <g transform="translate(110.70135 322.182437)scale(0.1 -0.1)">
       <use xlink:href="#DejaVuSans-50"/>
       <use x="63.623047" xlink:href="#DejaVuSans-48"/>
       <use x="127.246094" xlink:href="#DejaVuSans-48"/>
      </g>
     </g>
    </g>
    <g id="xtick_3">
     <g id="line2d_3">
      <g>
       <use style="stroke:#000000;stroke-width:0.8;" x="166.657472" xlink:href="#m6223f1674b" y="307.584"/>
      </g>
     </g>
     <g id="text_3">
      <!-- 400 -->
      <defs>
       <path d="M 37.796875 64.3125 
L 12.890625 25.390625 
L 37.796875 25.390625 
z
M 35.203125 72.90625 
L 47.609375 72.90625 
L 47.609375 25.390625 
L 58.015625 25.390625 
L 58.015625 17.1875 
L 47.609375 17.1875 
L 47.609375 0 
L 37.796875 0 
L 37.796875 17.1875 
L 4.890625 17.1875 
L 4.890625 26.703125 
z
" id="DejaVuSans-52"/>
      </defs>
      <g transform="translate(157.113722 322.182437)scale(0.1 -0.1)">
       <use xlink:href="#DejaVuSans-52"/>
       <use x="63.623047" xlink:href="#DejaVuSans-48"/>
       <use x="127.246094" xlink:href="#DejaVuSans-48"/>
      </g>
     </g>
    </g>
    <g id="xtick_4">
     <g id="line2d_4">
      <g>
       <use style="stroke:#000000;stroke-width:0.8;" x="213.069845" xlink:href="#m6223f1674b" y="307.584"/>
      </g>
     </g>
     <g id="text_4">
      <!-- 600 -->
      <defs>
       <path d="M 33.015625 40.375 
Q 26.375 40.375 22.484375 35.828125 
Q 18.609375 31.296875 18.609375 23.390625 
Q 18.609375 15.53125 22.484375 10.953125 
Q 26.375 6.390625 33.015625 6.390625 
Q 39.65625 6.390625 43.53125 10.953125 
Q 47.40625 15.53125 47.40625 23.390625 
Q 47.40625 31.296875 43.53125 35.828125 
Q 39.65625 40.375 33.015625 40.375 
z
M 52.59375 71.296875 
L 52.59375 62.3125 
Q 48.875 64.0625 45.09375 64.984375 
Q 41.3125 65.921875 37.59375 65.921875 
Q 27.828125 65.921875 22.671875 59.328125 
Q 17.53125 52.734375 16.796875 39.40625 
Q 19.671875 43.65625 24.015625 45.921875 
Q 28.375 48.1875 33.59375 48.1875 
Q 44.578125 48.1875 50.953125 41.515625 
Q 57.328125 34.859375 57.328125 23.390625 
Q 57.328125 12.15625 50.6875 5.359375 
Q 44.046875 -1.421875 33.015625 -1.421875 
Q 20.359375 -1.421875 13.671875 8.265625 
Q 6.984375 17.96875 6.984375 36.375 
Q 6.984375 53.65625 15.1875 63.9375 
Q 23.390625 74.21875 37.203125 74.21875 
Q 40.921875 74.21875 44.703125 73.484375 
Q 48.484375 72.75 52.59375 71.296875 
z
" id="DejaVuSans-54"/>
      </defs>
      <g transform="translate(203.526095 322.182437)scale(0.1 -0.1)">
       <use xlink:href="#DejaVuSans-54"/>
       <use x="63.623047" xlink:href="#DejaVuSans-48"/>
       <use x="127.246094" xlink:href="#DejaVuSans-48"/>
      </g>
     </g>
    </g>
    <g id="xtick_5">
     <g id="line2d_5">
      <g>
       <use style="stroke:#000000;stroke-width:0.8;" x="259.482217" xlink:href="#m6223f1674b" y="307.584"/>
      </g>
     </g>
     <g id="text_5">
      <!-- 800 -->
      <defs>
       <path d="M 31.78125 34.625 
Q 24.75 34.625 20.71875 30.859375 
Q 16.703125 27.09375 16.703125 20.515625 
Q 16.703125 13.921875 20.71875 10.15625 
Q 24.75 6.390625 31.78125 6.390625 
Q 38.8125 6.390625 42.859375 10.171875 
Q 46.921875 13.96875 46.921875 20.515625 
Q 46.921875 27.09375 42.890625 30.859375 
Q 38.875 34.625 31.78125 34.625 
z
M 21.921875 38.8125 
Q 15.578125 40.375 12.03125 44.71875 
Q 8.5 49.078125 8.5 55.328125 
Q 8.5 64.0625 14.71875 69.140625 
Q 20.953125 74.21875 31.78125 74.21875 
Q 42.671875 74.21875 48.875 69.140625 
Q 55.078125 64.0625 55.078125 55.328125 
Q 55.078125 49.078125 51.53125 44.71875 
Q 48 40.375 41.703125 38.8125 
Q 48.828125 37.15625 52.796875 32.3125 
Q 56.78125 27.484375 56.78125 20.515625 
Q 56.78125 9.90625 50.3125 4.234375 
Q 43.84375 -1.421875 31.78125 -1.421875 
Q 19.734375 -1.421875 13.25 4.234375 
Q 6.78125 9.90625 6.78125 20.515625 
Q 6.78125 27.484375 10.78125 32.3125 
Q 14.796875 37.15625 21.921875 38.8125 
z
M 18.3125 54.390625 
Q 18.3125 48.734375 21.84375 45.5625 
Q 25.390625 42.390625 31.78125 42.390625 
Q 38.140625 42.390625 41.71875 45.5625 
Q 45.3125 48.734375 45.3125 54.390625 
Q 45.3125 60.0625 41.71875 63.234375 
Q 38.140625 66.40625 31.78125 66.40625 
Q 25.390625 66.40625 21.84375 63.234375 
Q 18.3125 60.0625 18.3125 54.390625 
z
" id="DejaVuSans-56"/>
      </defs>
      <g transform="translate(249.938467 322.182437)scale(0.1 -0.1)">
       <use xlink:href="#DejaVuSans-56"/>
       <use x="63.623047" xlink:href="#DejaVuSans-48"/>
       <use x="127.246094" xlink:href="#DejaVuSans-48"/>
      </g>
     </g>
    </g>
    <g id="xtick_6">
     <g id="line2d_6">
      <g>
       <use style="stroke:#000000;stroke-width:0.8;" x="305.89459" xlink:href="#m6223f1674b" y="307.584"/>
      </g>
     </g>
     <g id="text_6">
      <!-- 1000 -->
      <defs>
       <path d="M 12.40625 8.296875 
L 28.515625 8.296875 
L 28.515625 63.921875 
L 10.984375 60.40625 
L 10.984375 69.390625 
L 28.421875 72.90625 
L 38.28125 72.90625 
L 38.28125 8.296875 
L 54.390625 8.296875 
L 54.390625 0 
L 12.40625 0 
z
" id="DejaVuSans-49"/>
      </defs>
      <g transform="translate(293.16959 322.182437)scale(0.1 -0.1)">
       <use xlink:href="#DejaVuSans-49"/>
       <use x="63.623047" xlink:href="#DejaVuSans-48"/>
       <use x="127.246094" xlink:href="#DejaVuSans-48"/>
       <use x="190.869141" xlink:href="#DejaVuSans-48"/>
      </g>
     </g>
    </g>
    <g id="xtick_7">
     <g id="line2d_7">
      <g>
       <use style="stroke:#000000;stroke-width:0.8;" x="352.306962" xlink:href="#m6223f1674b" y="307.584"/>
      </g>
     </g>
     <g id="text_7">
      <!-- 1200 -->
      <g transform="translate(339.581962 322.182437)scale(0.1 -0.1)">
       <use xlink:href="#DejaVuSans-49"/>
       <use x="63.623047" xlink:href="#DejaVuSans-50"/>
       <use x="127.246094" xlink:href="#DejaVuSans-48"/>
       <use x="190.869141" xlink:href="#DejaVuSans-48"/>
      </g>
     </g>
    </g>
    <g id="xtick_8">
     <g id="line2d_8">
      <g>
       <use style="stroke:#000000;stroke-width:0.8;" x="398.719335" xlink:href="#m6223f1674b" y="307.584"/>
      </g>
     </g>
     <g id="text_8">
      <!-- 1400 -->
      <g transform="translate(385.994335 322.182437)scale(0.1 -0.1)">
       <use xlink:href="#DejaVuSans-49"/>
       <use x="63.623047" xlink:href="#DejaVuSans-52"/>
       <use x="127.246094" xlink:href="#DejaVuSans-48"/>
       <use x="190.869141" xlink:href="#DejaVuSans-48"/>
      </g>
     </g>
    </g>
   </g>
   <g id="matplotlib.axis_2">
    <g id="ytick_1">
     <g id="line2d_9">
      <defs>
       <path d="M 0 0 
L -3.5 0 
" id="me73e61be15" style="stroke:#000000;stroke-width:0.8;"/>
      </defs>
      <g>
       <use style="stroke:#000000;stroke-width:0.8;" x="57.6" xlink:href="#me73e61be15" y="295.91906"/>
      </g>
     </g>
     <g id="text_9">
      <!-- 0.00 -->
      <defs>
       <path d="M 10.6875 12.40625 
L 21 12.40625 
L 21 0 
L 10.6875 0 
z
" id="DejaVuSans-46"/>
      </defs>
      <g transform="translate(28.334375 299.718279)scale(0.1 -0.1)">
       <use xlink:href="#DejaVuSans-48"/>
       <use x="63.623047" xlink:href="#DejaVuSans-46"/>
       <use x="95.410156" xlink:href="#DejaVuSans-48"/>
       <use x="159.033203" xlink:href="#DejaVuSans-48"/>
      </g>
     </g>
    </g>
    <g id="ytick_2">
     <g id="line2d_10">
      <g>
       <use style="stroke:#000000;stroke-width:0.8;" x="57.6" xlink:href="#me73e61be15" y="241.493077"/>
      </g>
     </g>
     <g id="text_10">
      <!-- 0.05 -->
      <defs>
       <path d="M 10.796875 72.90625 
L 49.515625 72.90625 
L 49.515625 64.59375 
L 19.828125 64.59375 
L 19.828125 46.734375 
Q 21.96875 47.46875 24.109375 47.828125 
Q 26.265625 48.1875 28.421875 48.1875 
Q 40.625 48.1875 47.75 41.5 
Q 54.890625 34.8125 54.890625 23.390625 
Q 54.890625 11.625 47.5625 5.09375 
Q 40.234375 -1.421875 26.90625 -1.421875 
Q 22.3125 -1.421875 17.546875 -0.640625 
Q 12.796875 0.140625 7.71875 1.703125 
L 7.71875 11.625 
Q 12.109375 9.234375 16.796875 8.0625 
Q 21.484375 6.890625 26.703125 6.890625 
Q 35.15625 6.890625 40.078125 11.328125 
Q 45.015625 15.765625 45.015625 23.390625 
Q 45.015625 31 40.078125 35.4375 
Q 35.15625 39.890625 26.703125 39.890625 
Q 22.75 39.890625 18.8125 39.015625 
Q 14.890625 38.140625 10.796875 36.28125 
z
" id="DejaVuSans-53"/>
      </defs>
      <g transform="translate(28.334375 245.292296)scale(0.1 -0.1)">
       <use xlink:href="#DejaVuSans-48"/>
       <use x="63.623047" xlink:href="#DejaVuSans-46"/>
       <use x="95.410156" xlink:href="#DejaVuSans-48"/>
       <use x="159.033203" xlink:href="#DejaVuSans-53"/>
      </g>
     </g>
    </g>
    <g id="ytick_3">
     <g id="line2d_11">
      <g>
       <use style="stroke:#000000;stroke-width:0.8;" x="57.6" xlink:href="#me73e61be15" y="187.067094"/>
      </g>
     </g>
     <g id="text_11">
      <!-- 0.10 -->
      <g transform="translate(28.334375 190.866312)scale(0.1 -0.1)">
       <use xlink:href="#DejaVuSans-48"/>
       <use x="63.623047" xlink:href="#DejaVuSans-46"/>
       <use x="95.410156" xlink:href="#DejaVuSans-49"/>
       <use x="159.033203" xlink:href="#DejaVuSans-48"/>
      </g>
     </g>
    </g>
    <g id="ytick_4">
     <g id="line2d_12">
      <g>
       <use style="stroke:#000000;stroke-width:0.8;" x="57.6" xlink:href="#me73e61be15" y="132.64111"/>
      </g>
     </g>
     <g id="text_12">
      <!-- 0.15 -->
      <g transform="translate(28.334375 136.440329)scale(0.1 -0.1)">
       <use xlink:href="#DejaVuSans-48"/>
       <use x="63.623047" xlink:href="#DejaVuSans-46"/>
       <use x="95.410156" xlink:href="#DejaVuSans-49"/>
       <use x="159.033203" xlink:href="#DejaVuSans-53"/>
      </g>
     </g>
    </g>
    <g id="ytick_5">
     <g id="line2d_13">
      <g>
       <use style="stroke:#000000;stroke-width:0.8;" x="57.6" xlink:href="#me73e61be15" y="78.215127"/>
      </g>
     </g>
     <g id="text_13">
      <!-- 0.20 -->
      <g transform="translate(28.334375 82.014345)scale(0.1 -0.1)">
       <use xlink:href="#DejaVuSans-48"/>
       <use x="63.623047" xlink:href="#DejaVuSans-46"/>
       <use x="95.410156" xlink:href="#DejaVuSans-50"/>
       <use x="159.033203" xlink:href="#DejaVuSans-48"/>
      </g>
     </g>
    </g>
   </g>
   <g id="line2d_14">
    <path clip-path="url(#p02706ca077)" d="M 73.832727 294.125887 
L 74.064789 294.582387 
L 74.296851 294.750687 
L 74.528913 294.087884 
L 74.993037 293.543003 
L 75.225098 292.798829 
L 75.45716 292.637289 
L 75.921284 295.488 
L 76.385408 287.578311 
L 76.61747 287.003493 
L 76.849531 286.790098 
L 77.081593 286.945396 
L 77.313655 287.722516 
L 77.545717 286.727368 
L 77.777779 286.949034 
L 78.009841 286.793274 
L 78.241903 286.839687 
L 78.473965 287.667249 
L 79.402212 286.31628 
L 79.634274 286.581131 
L 79.866336 286.376944 
L 80.098398 286.407038 
L 80.330459 286.013795 
L 80.562521 285.983587 
L 80.794583 286.629304 
L 81.026645 285.988056 
L 81.258707 286.010895 
L 81.954892 286.696248 
L 82.186954 287.013541 
L 82.419016 287.056993 
L 82.88314 287.519621 
L 83.579325 287.039268 
L 83.811387 287.266121 
L 84.507573 286.201488 
L 84.739635 286.210874 
L 84.971697 286.355666 
L 85.203759 286.274072 
L 85.43582 286.454192 
L 85.667882 286.389445 
L 85.899944 286.570178 
L 86.132006 286.459429 
L 86.364068 286.760531 
L 86.59613 286.471428 
L 86.828192 286.680777 
L 87.292315 286.347427 
L 87.524377 286.708506 
L 87.756439 286.502177 
L 87.988501 286.461057 
L 88.220563 286.974984 
L 88.916748 286.469741 
L 89.612934 286.484493 
L 89.844996 286.754692 
L 90.077058 286.508851 
L 90.773243 286.432743 
L 91.469429 286.503773 
L 91.701491 286.708267 
L 91.933553 286.539434 
L 92.397676 286.854651 
L 92.629738 286.565436 
L 93.325924 286.964153 
L 93.557986 287.156111 
L 93.790047 287.129373 
L 94.022109 286.926053 
L 94.254171 286.925215 
L 94.486233 286.735849 
L 94.718295 286.748968 
L 95.182419 287.153941 
L 95.41448 286.892062 
L 95.878604 286.974899 
L 96.110666 287.276022 
L 96.342728 287.130296 
L 97.038914 287.324112 
L 97.270975 287.556391 
L 97.503037 287.37547 
L 97.967161 287.810104 
L 98.431285 287.81698 
L 98.663347 288.221507 
L 98.895408 288.209145 
L 99.12747 288.638441 
L 99.359532 288.674487 
L 99.591594 288.392071 
L 99.823656 288.822856 
L 100.055718 288.965114 
L 100.28778 288.786238 
L 100.751903 289.587246 
L 100.983965 289.630101 
L 101.216027 289.342983 
L 101.448089 289.459345 
L 101.680151 289.372942 
L 101.912213 289.430761 
L 102.144274 289.28735 
L 102.376336 289.547146 
L 102.84046 288.666469 
L 103.304584 288.323806 
L 103.536646 288.314729 
L 103.768708 287.754869 
L 104.000769 287.969021 
L 104.232831 287.738174 
L 104.696955 287.743357 
L 105.393141 287.414464 
L 105.625202 287.481784 
L 106.089326 287.841489 
L 106.321388 287.80863 
L 107.017574 288.318506 
L 107.249635 288.17198 
L 107.481697 288.611936 
L 107.713759 288.489594 
L 107.945821 288.795236 
L 108.177883 289.43754 
L 108.409945 288.903191 
L 108.642007 289.433585 
L 109.10613 289.490162 
L 109.338192 289.013977 
L 109.570254 288.962924 
L 109.802316 289.112424 
L 110.034378 288.726129 
L 110.26644 288.675935 
L 110.498502 288.928692 
L 110.730563 288.655329 
L 110.962625 288.569856 
L 111.194687 287.986977 
L 111.658811 287.911623 
L 111.890873 287.572522 
L 112.587058 287.353791 
L 112.81912 287.509095 
L 113.051182 287.307028 
L 113.283244 287.296425 
L 113.515306 287.591465 
L 113.747368 287.685069 
L 113.979429 287.335853 
L 114.675615 287.290335 
L 115.371801 287.381836 
L 115.835924 287.281978 
L 116.067986 287.530922 
L 116.300048 287.378184 
L 116.53211 287.531583 
L 116.764172 287.218164 
L 116.996234 287.566787 
L 117.228296 287.55922 
L 117.692419 287.916149 
L 117.924481 287.331122 
L 118.388605 287.593976 
L 118.852729 289.202218 
L 119.08479 289.404387 
L 119.548914 289.203933 
L 119.780976 291.077714 
L 120.013038 290.216893 
L 120.2451 290.842245 
L 120.477162 289.437753 
L 120.709223 289.762117 
L 120.941285 288.11851 
L 121.173347 288.589379 
L 121.405409 288.549244 
L 121.637471 288.313494 
L 121.869533 288.571751 
L 122.101595 287.844619 
L 122.333657 288.060144 
L 122.565718 287.948741 
L 122.79778 288.255257 
L 123.029842 287.200459 
L 123.726028 288.528114 
L 123.95809 287.186745 
L 124.190151 287.984292 
L 124.422213 286.924414 
L 124.654275 286.971895 
L 124.886337 287.160992 
L 125.118399 286.785856 
L 125.350461 287.059254 
L 125.582523 286.901418 
L 126.278708 287.079518 
L 126.51077 286.775874 
L 126.974894 286.995336 
L 127.206956 287.069945 
L 127.903141 286.818614 
L 128.135203 287.175249 
L 128.367265 286.724967 
L 128.599327 286.674064 
L 129.295512 286.911605 
L 129.527574 286.720425 
L 129.759636 286.924797 
L 129.991698 286.805093 
L 130.455822 286.897835 
L 130.687884 286.830025 
L 131.152007 286.950056 
L 131.616131 287.243943 
L 131.848193 288.664834 
L 132.080255 287.660374 
L 132.312317 288.099507 
L 132.544378 287.578851 
L 132.77644 288.235909 
L 133.008502 287.805173 
L 133.240564 288.428184 
L 133.472626 288.151916 
L 133.704688 287.234588 
L 133.93675 288.194841 
L 134.168811 287.266565 
L 134.400873 287.182131 
L 134.632935 288.236278 
L 135.097059 287.076079 
L 135.329121 286.895402 
L 135.561183 287.092797 
L 135.793245 286.865039 
L 136.025306 287.053963 
L 136.257368 286.832998 
L 136.48943 287.129098 
L 136.721492 286.773992 
L 137.649739 286.765134 
L 137.881801 286.958179 
L 138.113863 287.000415 
L 138.577987 286.842544 
L 138.810049 286.967125 
L 139.042111 287.312542 
L 139.274172 287.082214 
L 139.506234 288.141138 
L 139.738296 287.668599 
L 139.970358 288.309677 
L 140.20242 287.473545 
L 140.434482 287.518344 
L 140.898605 288.031533 
L 141.130667 287.976488 
L 141.362729 288.586631 
L 141.594791 287.82274 
L 142.058915 287.955578 
L 142.290977 288.715797 
L 142.7551 288.252995 
L 142.987162 287.882114 
L 143.219224 288.234837 
L 143.451286 287.931408 
L 143.683348 288.060806 
L 143.91541 287.987923 
L 144.147472 287.777603 
L 144.611595 287.792495 
L 144.843657 287.444455 
L 145.307781 287.448851 
L 145.539843 286.966829 
L 145.771905 287.730746 
L 146.003966 287.282816 
L 146.236028 288.260801 
L 146.46809 287.269172 
L 146.700152 287.322236 
L 146.932214 286.982226 
L 147.164276 286.981333 
L 147.396338 287.135819 
L 147.6284 286.86612 
L 147.860461 287.105896 
L 148.092523 287.014312 
L 148.324585 287.144836 
L 148.788709 286.916836 
L 149.020771 287.601838 
L 149.252833 287.001634 
L 149.484894 287.113932 
L 149.716956 287.020658 
L 149.949018 287.408104 
L 150.18108 287.159096 
L 150.413142 287.373072 
L 150.645204 286.988103 
L 150.877266 287.11611 
L 151.109327 287.440437 
L 151.573451 287.243391 
L 151.805513 287.309549 
L 152.037575 287.659762 
L 152.269637 287.505965 
L 152.501699 287.836526 
L 153.429946 287.398069 
L 153.662008 288.369763 
L 154.126132 288.094976 
L 154.358194 287.492001 
L 154.822317 288.87957 
L 155.518503 287.820955 
L 155.750565 288.339829 
L 155.982627 288.22808 
L 156.214688 288.543883 
L 156.44675 287.859907 
L 157.142936 287.608562 
L 157.374998 287.901127 
L 157.60706 287.850443 
L 157.839121 287.596643 
L 158.071183 287.747676 
L 158.303245 288.227339 
L 158.767369 287.399619 
L 158.999431 287.432326 
L 159.231493 287.32278 
L 159.463554 287.34091 
L 159.695616 286.981456 
L 159.927678 287.02936 
L 160.15974 286.767904 
L 161.320049 287.028882 
L 161.552111 286.955539 
L 161.784173 287.035357 
L 162.248297 287.839119 
L 162.480359 287.879752 
L 162.712421 287.311898 
L 162.944482 287.770847 
L 163.176544 287.7076 
L 163.408606 287.369958 
L 163.640668 287.441944 
L 163.87273 287.695692 
L 164.104792 287.535727 
L 164.568915 287.590938 
L 164.800977 287.817032 
L 165.033039 287.869626 
L 165.265101 287.665172 
L 165.961287 287.799314 
L 166.193348 287.429711 
L 166.42541 287.503563 
L 166.657472 287.20807 
L 167.121596 287.167416 
L 167.353658 287.523617 
L 167.817782 286.973087 
L 168.049843 287.347247 
L 168.513967 287.176288 
L 168.746029 287.505744 
L 169.210153 287.086487 
L 169.442215 287.134938 
L 169.674276 287.35719 
L 169.906338 287.152043 
L 170.370462 287.139251 
L 170.602524 287.400422 
L 171.066648 287.082014 
L 171.298709 287.030867 
L 171.994895 287.333119 
L 172.226957 287.095318 
L 173.155204 287.149214 
L 173.619328 287.164984 
L 173.85139 287.421919 
L 174.083452 287.282265 
L 175.011699 287.231365 
L 175.243761 287.10685 
L 175.939947 287.369089 
L 176.40407 288.140214 
L 176.868194 287.501195 
L 177.100256 287.638115 
L 177.332318 287.637971 
L 177.56438 287.826309 
L 177.796442 287.38267 
L 178.724689 287.395084 
L 179.652937 287.303638 
L 179.884998 287.236962 
L 180.11706 287.33461 
L 180.349122 287.134684 
L 180.813246 287.259857 
L 181.045308 287.120181 
L 181.27737 287.227424 
L 181.509431 287.069278 
L 181.973555 287.077809 
L 182.205617 287.447104 
L 182.901803 287.007104 
L 183.133864 287.073138 
L 183.365926 287.259756 
L 183.83005 287.013527 
L 184.062112 287.264136 
L 184.294174 287.310422 
L 184.526236 287.176599 
L 185.222421 287.573631 
L 185.454483 287.348149 
L 185.686545 287.589491 
L 185.918607 287.62906 
L 186.150669 287.371654 
L 187.078916 287.358842 
L 187.310978 288.292954 
L 187.54304 287.398815 
L 187.775102 287.402184 
L 188.007164 287.731656 
L 188.239225 287.528376 
L 188.471287 288.316736 
L 188.703349 287.319945 
L 189.167473 287.12049 
L 189.399535 287.199372 
L 189.631597 287.834397 
L 189.863658 287.332047 
L 190.09572 287.461047 
L 190.327782 287.214565 
L 190.559844 287.383411 
L 190.791906 287.308529 
L 191.023968 287.367917 
L 191.25603 287.291823 
L 191.488091 287.675651 
L 191.720153 287.754661 
L 192.184277 287.219096 
L 192.416339 287.308715 
L 192.648401 287.93145 
L 192.880463 287.384341 
L 193.344586 287.229677 
L 193.576648 287.206431 
L 193.80871 287.013516 
L 194.040772 287.302864 
L 194.272834 287.17613 
L 195.201081 287.265791 
L 195.433143 287.152454 
L 195.665205 287.944282 
L 196.129329 287.001456 
L 196.361391 287.124655 
L 196.593452 287.478109 
L 196.825514 287.135862 
L 197.753762 287.267142 
L 197.985824 286.933086 
L 198.914071 287.767898 
L 199.146133 287.254061 
L 199.378195 287.738078 
L 199.610257 287.367912 
L 200.306442 287.146034 
L 200.538504 287.57252 
L 200.770566 287.243438 
L 201.002628 287.418094 
L 201.698813 287.093371 
L 201.930875 288.249741 
L 202.162937 287.157815 
L 202.394999 287.045061 
L 202.627061 287.163607 
L 202.859123 288.107889 
L 203.091185 286.951259 
L 204.483556 286.995286 
L 204.715618 287.275823 
L 204.94768 287.299267 
L 205.179741 287.080555 
L 205.875927 287.04375 
L 206.107989 287.111462 
L 206.340051 287.365445 
L 206.572113 287.199837 
L 206.804174 287.230079 
L 207.036236 287.558004 
L 207.268298 287.301306 
L 207.50036 287.22583 
L 207.732422 287.400751 
L 207.964484 287.316464 
L 208.196546 287.756367 
L 208.428607 287.29405 
L 208.660669 287.169679 
L 209.124793 287.778916 
L 209.356855 287.342323 
L 210.05304 287.312559 
L 210.285102 287.62572 
L 210.517164 287.682223 
L 210.749226 287.182577 
L 211.677474 287.13416 
L 211.909535 287.929213 
L 212.141597 287.3893 
L 212.373659 287.368313 
L 212.605721 287.096706 
L 212.837783 287.423695 
L 213.069845 287.251091 
L 213.301907 287.864322 
L 213.533968 287.424278 
L 213.76603 287.366198 
L 213.998092 287.13941 
L 214.462216 287.307931 
L 214.694278 287.387075 
L 215.390463 287.144579 
L 215.854587 287.375346 
L 216.086649 287.267407 
L 216.550773 287.445864 
L 216.782834 288.47559 
L 217.014896 287.685895 
L 217.246958 287.953738 
L 217.711082 287.374966 
L 217.943144 287.390861 
L 218.175206 287.075799 
L 218.407268 286.956679 
L 219.567577 287.093947 
L 219.799639 287.676958 
L 220.031701 287.127145 
L 220.263762 287.278292 
L 220.727886 287.289551 
L 220.959948 286.913261 
L 221.424072 287.238095 
L 221.656134 287.188291 
L 221.888195 287.265384 
L 222.120257 287.206616 
L 222.352319 287.584962 
L 222.584381 287.31008 
L 222.816443 287.215771 
L 223.048505 287.404347 
L 223.280567 287.276571 
L 223.512629 287.313583 
L 223.74469 287.486549 
L 223.976752 287.396573 
L 224.208814 287.046276 
L 224.440876 287.057878 
L 224.672938 287.296171 
L 224.905 287.771305 
L 225.137062 287.570206 
L 225.369123 287.540501 
L 225.601185 287.117008 
L 225.833247 287.551745 
L 226.065309 287.122401 
L 226.297371 287.461944 
L 226.529433 287.074141 
L 226.761495 287.163161 
L 226.993556 286.961001 
L 227.45768 287.230315 
L 227.689742 287.09732 
L 227.921804 287.184301 
L 228.153866 286.899567 
L 228.385928 287.008779 
L 228.617989 286.897702 
L 228.850051 286.924997 
L 229.314175 287.236663 
L 229.546237 287.938517 
L 229.778299 287.226242 
L 230.938608 287.387251 
L 231.17067 287.843591 
L 231.634794 287.276655 
L 232.098917 287.987423 
L 232.330979 287.475348 
L 232.563041 287.825088 
L 232.795103 287.95673 
L 233.027165 287.570971 
L 233.259227 287.946046 
L 233.491289 287.773411 
L 233.955412 286.920043 
L 234.187474 286.979581 
L 234.419536 286.882959 
L 234.651598 286.923689 
L 234.88366 287.812953 
L 235.115722 287.024211 
L 235.579845 287.07532 
L 235.811907 287.161939 
L 236.043969 286.904683 
L 236.276031 287.188731 
L 236.740155 287.043318 
L 237.204278 287.190455 
L 237.43634 287.143587 
L 237.900464 287.677099 
L 238.132526 287.4384 
L 238.59665 287.352186 
L 239.524897 287.486596 
L 239.756959 287.259463 
L 240.221083 287.476156 
L 240.453144 287.810658 
L 240.685206 287.444087 
L 240.917268 287.334181 
L 241.14933 287.35704 
L 241.381392 287.097992 
L 241.845516 287.061891 
L 242.077577 286.966275 
L 242.309639 287.066849 
L 242.541701 286.985272 
L 243.005825 287.023412 
L 243.237887 286.876389 
L 243.469949 287.049741 
L 243.702011 286.951129 
L 244.398196 287.301341 
L 244.630258 286.988717 
L 244.86232 287.210448 
L 245.558505 287.243943 
L 246.254691 287.385593 
L 246.486753 287.15486 
L 246.718815 287.647366 
L 247.182938 287.911726 
L 248.111186 287.306207 
L 248.343248 287.409036 
L 248.57531 286.993155 
L 248.807371 287.165744 
L 249.039433 287.179424 
L 249.503557 286.911984 
L 249.735619 286.950387 
L 249.967681 287.221419 
L 250.199743 286.924879 
L 250.431805 287.080654 
L 250.663866 287.740818 
L 250.895928 287.098035 
L 251.12799 287.086319 
L 251.360052 286.923323 
L 251.592114 287.193551 
L 251.824176 286.969495 
L 252.288299 287.287746 
L 252.752423 287.096288 
L 253.216547 287.250049 
L 253.680671 287.158964 
L 253.912732 287.594487 
L 254.144794 287.306309 
L 254.376856 287.211554 
L 254.608918 287.483927 
L 254.84098 287.201849 
L 255.073042 287.398749 
L 255.537166 288.007235 
L 255.769227 287.358082 
L 256.001289 287.348332 
L 256.465413 287.119995 
L 256.697475 287.762011 
L 256.929537 287.126003 
L 257.161599 287.297036 
L 257.625722 286.872209 
L 258.55397 286.893976 
L 258.786032 286.857106 
L 259.018093 287.107647 
L 259.250155 287.065088 
L 259.482217 287.337385 
L 259.714279 287.060482 
L 259.946341 287.26665 
L 260.178403 287.045938 
L 260.642526 287.005546 
L 260.874588 287.231215 
L 261.10665 287.204458 
L 261.338712 287.585402 
L 261.570774 287.244907 
L 262.034898 287.345304 
L 262.26696 287.272373 
L 262.731083 287.96795 
L 262.963145 287.519652 
L 263.195207 287.923294 
L 263.659331 287.4831 
L 263.891393 287.42499 
L 264.123454 287.584955 
L 264.355516 287.138629 
L 264.587578 287.085187 
L 265.283764 287.188674 
L 265.979949 287.182583 
L 266.444073 286.924946 
L 266.676135 286.98502 
L 266.908197 288.586845 
L 267.140259 287.240043 
L 267.37232 287.540272 
L 267.604382 287.106517 
L 268.068506 287.164611 
L 268.53263 287.032434 
L 268.764692 287.143072 
L 268.996754 287.087195 
L 269.228815 287.545883 
L 269.460877 287.194725 
L 269.692939 287.462702 
L 270.157063 287.492838 
L 270.389125 287.231607 
L 270.621187 287.265361 
L 270.853248 287.789704 
L 271.08531 287.388311 
L 271.317372 287.614485 
L 271.549434 287.350176 
L 272.24562 287.131862 
L 272.709743 287.319614 
L 273.173867 287.052859 
L 273.405929 287.635999 
L 273.637991 287.234377 
L 273.870053 287.245777 
L 274.102114 286.981507 
L 274.334176 287.049854 
L 274.566238 287.000801 
L 274.7983 287.346921 
L 275.030362 287.115651 
L 275.262424 287.093974 
L 275.494486 286.941672 
L 275.958609 287.446059 
L 276.190671 287.143384 
L 276.422733 287.492139 
L 276.886857 287.419757 
L 277.118919 287.155163 
L 277.350981 287.387514 
L 277.583042 287.380043 
L 277.815104 287.628269 
L 278.047166 287.30668 
L 278.279228 287.756227 
L 278.51129 287.383973 
L 278.743352 287.497783 
L 278.975414 287.10286 
L 279.207475 287.144203 
L 279.439537 287.418909 
L 279.671599 287.361553 
L 279.903661 286.979642 
L 280.135723 287.155901 
L 281.06397 287.064561 
L 281.528094 287.175487 
L 281.760156 286.783429 
L 282.456342 287.211178 
L 282.920465 287.026624 
L 283.152527 287.166507 
L 283.616651 286.939098 
L 283.848713 287.115406 
L 284.080775 287.524246 
L 284.312836 287.303399 
L 284.544898 287.465607 
L 284.77696 287.285997 
L 285.009022 287.441537 
L 285.241084 287.080667 
L 285.473146 287.213056 
L 285.705208 287.140608 
L 285.937269 287.893038 
L 286.169331 287.423674 
L 286.401393 287.821422 
L 286.633455 287.30462 
L 286.865517 287.213498 
L 287.329641 287.413595 
L 287.793764 287.044468 
L 288.025826 287.077949 
L 288.257888 287.440406 
L 288.48995 287.134947 
L 288.954074 287.379491 
L 289.186136 287.129012 
L 289.418197 287.091047 
L 289.650259 287.186124 
L 289.882321 287.042444 
L 290.114383 287.356822 
L 290.346445 286.746698 
L 290.578507 287.053458 
L 290.810569 287.113194 
L 291.04263 286.950669 
L 291.274692 287.116088 
L 291.506754 287.141113 
L 291.970878 287.412168 
L 292.435002 287.170318 
L 292.667063 287.385015 
L 293.131187 287.286538 
L 293.363249 287.122761 
L 293.595311 287.97119 
L 294.059435 287.392247 
L 294.523558 287.597216 
L 294.75562 287.31848 
L 294.987682 287.31509 
L 295.219744 287.137126 
L 295.683868 287.416938 
L 295.91593 287.141129 
L 296.844177 287.097069 
L 297.076239 287.898146 
L 297.308301 287.163949 
L 297.540363 287.118885 
L 297.772424 287.334308 
L 298.236548 287.160108 
L 298.700672 287.189844 
L 298.932734 287.247002 
L 299.164796 287.082943 
L 299.628919 287.168284 
L 299.860981 287.846592 
L 300.093043 287.289487 
L 300.325105 287.712926 
L 300.557167 287.27559 
L 300.789229 287.413031 
L 301.021291 287.084629 
L 301.253352 287.840691 
L 301.485414 287.703316 
L 301.717476 287.408388 
L 301.949538 287.778155 
L 302.1816 287.326549 
L 302.645724 287.35462 
L 302.877785 287.505775 
L 303.109847 287.13495 
L 303.341909 287.30364 
L 303.806033 287.044275 
L 304.038095 287.070976 
L 304.270157 287.348283 
L 304.502218 287.074453 
L 304.966342 287.079921 
L 305.198404 287.414432 
L 305.430466 287.160604 
L 306.126652 286.934808 
L 306.358713 287.16089 
L 306.590775 287.12429 
L 306.822837 287.330521 
L 307.054899 287.078568 
L 307.519023 287.532281 
L 307.751085 287.365935 
L 307.983146 287.410333 
L 308.215208 287.951422 
L 308.679332 287.009697 
L 308.911394 287.970419 
L 309.143456 288.114453 
L 309.375518 287.237076 
L 309.839641 287.197499 
L 310.071703 287.666386 
L 310.303765 287.609771 
L 310.535827 287.083694 
L 310.767889 286.941092 
L 310.999951 287.091854 
L 311.232012 286.960982 
L 312.16026 286.99939 
L 312.392322 286.886308 
L 312.856446 286.985701 
L 313.088507 287.267589 
L 313.320569 286.944573 
L 313.784693 286.919673 
L 314.016755 287.595581 
L 314.248817 287.132974 
L 314.71294 287.070559 
L 315.177064 287.342117 
L 315.409126 287.50159 
L 315.641188 287.174742 
L 315.87325 287.487771 
L 316.105312 287.176627 
L 316.569435 287.486797 
L 316.801497 287.899883 
L 317.033559 287.681172 
L 317.265621 287.266696 
L 317.497683 287.836727 
L 317.729745 287.354773 
L 317.961806 287.410281 
L 318.193868 287.304716 
L 318.42593 287.03462 
L 319.58624 287.523861 
L 319.818301 287.036601 
L 320.050363 287.079131 
L 320.282425 287.330168 
L 320.514487 287.107804 
L 320.746549 287.046843 
L 320.978611 287.132145 
L 321.442734 286.994038 
L 321.674796 287.261564 
L 322.835106 287.075207 
L 323.531291 287.237304 
L 323.763353 287.937209 
L 323.995415 287.329281 
L 324.227477 287.459275 
L 324.459539 287.147355 
L 324.6916 287.579127 
L 324.923662 287.238792 
L 325.155724 287.301639 
L 325.387786 287.88889 
L 325.85191 287.118112 
L 326.083972 287.282 
L 326.316034 287.864509 
L 326.780157 287.12455 
L 327.012219 287.475569 
L 327.244281 287.117112 
L 327.708405 287.027156 
L 327.940467 286.996333 
L 328.172528 287.285418 
L 328.40459 287.103664 
L 329.100776 287.081073 
L 329.332838 287.165808 
L 329.5649 287.402626 
L 329.796961 287.032515 
L 330.261085 287.193644 
L 330.493147 287.13892 
L 330.957271 287.451156 
L 331.189333 287.360016 
L 331.421395 287.405277 
L 331.653456 287.312286 
L 332.349642 287.613316 
L 332.813766 287.235131 
L 333.045828 288.077995 
L 333.509951 287.153591 
L 333.742013 287.159047 
L 334.206137 286.822327 
L 334.438199 287.204403 
L 334.670261 287.007214 
L 335.134384 287.296556 
L 335.366446 286.950549 
L 336.062632 287.012501 
L 336.294694 287.295251 
L 336.526755 287.027363 
L 336.990879 287.196595 
L 337.222941 287.390541 
L 337.455003 287.070564 
L 337.919127 287.140003 
L 338.151189 287.640878 
L 338.615312 287.282203 
L 338.847374 287.103058 
L 339.079436 287.212879 
L 339.311498 287.59954 
L 339.54356 287.317173 
L 339.775622 288.368477 
L 340.471807 287.298566 
L 340.703869 287.7087 
L 340.935931 287.279311 
L 341.167993 287.171524 
L 341.400055 287.641413 
L 341.632116 287.696285 
L 341.864178 287.18631 
L 342.09624 287.051752 
L 342.328302 287.145405 
L 342.560364 286.886623 
L 342.792426 286.940244 
L 343.024488 286.717189 
L 343.488611 286.962725 
L 343.720673 287.326103 
L 343.952735 287.23907 
L 344.184797 286.968493 
L 344.416859 287.346018 
L 344.648921 287.223887 
L 344.880983 287.397461 
L 345.113044 287.769435 
L 345.345106 287.240435 
L 345.80923 287.154859 
L 346.273354 287.291888 
L 346.505416 287.177174 
L 346.737477 287.270536 
L 346.969539 287.900352 
L 347.201601 287.404081 
L 347.433663 287.481252 
L 347.665725 287.331772 
L 347.897787 287.667884 
L 348.129849 287.209594 
L 348.36191 287.399224 
L 348.593972 287.210679 
L 348.826034 287.185501 
L 349.058096 287.722183 
L 349.290158 287.155425 
L 349.52222 287.106043 
L 349.754282 287.275901 
L 350.218405 286.931445 
L 350.450467 286.880334 
L 350.682529 286.964518 
L 350.914591 287.255679 
L 351.146653 287.106673 
L 351.378715 287.091222 
L 351.610777 287.228504 
L 351.842838 287.008416 
L 352.0749 287.187512 
L 352.306962 287.137486 
L 352.539024 287.290095 
L 353.003148 287.06366 
L 353.699333 287.633619 
L 353.931395 287.262563 
L 354.395519 287.254648 
L 354.627581 287.344685 
L 354.859643 287.610717 
L 355.091704 287.170997 
L 355.323766 287.160279 
L 355.78789 287.821429 
L 356.019952 287.402102 
L 356.484076 287.227002 
L 356.716138 287.681749 
L 356.948199 287.106257 
L 357.180261 287.115954 
L 357.412323 287.894586 
L 357.644385 287.242669 
L 357.876447 286.953555 
L 358.108509 286.911721 
L 358.340571 287.005495 
L 358.572632 287.47698 
L 359.036756 287.249036 
L 359.268818 287.41543 
L 359.50088 287.038452 
L 359.732942 287.292408 
L 359.965004 287.973188 
L 360.429127 287.122111 
L 360.661189 286.876984 
L 361.589437 287.488141 
L 361.821498 287.305023 
L 362.05356 287.269272 
L 362.285622 287.3619 
L 362.517684 288.230868 
L 362.749746 287.472166 
L 362.981808 287.192024 
L 363.21387 287.275095 
L 363.445932 287.704035 
L 363.677993 287.507689 
L 363.910055 287.898109 
L 364.142117 287.355108 
L 364.606241 287.352625 
L 364.838303 287.550314 
L 365.070365 287.196813 
L 365.76655 287.337991 
L 365.998612 287.017807 
L 366.230674 287.606375 
L 366.462736 287.435995 
L 366.694798 287.593697 
L 366.926859 287.110778 
L 367.158921 287.328472 
L 367.390983 287.084028 
L 368.087169 287.473511 
L 368.319231 287.258965 
L 368.551292 287.276844 
L 369.015416 287.052153 
L 369.247478 287.240597 
L 369.47954 287.170257 
L 369.711602 287.278596 
L 369.943664 287.253284 
L 370.175726 287.806806 
L 370.407787 287.305177 
L 370.871911 287.021004 
L 371.336035 287.548776 
L 371.568097 287.296821 
L 371.800159 287.409243 
L 372.264282 287.149102 
L 372.496344 287.384635 
L 372.960468 287.077714 
L 373.19253 287.050057 
L 373.424592 286.764409 
L 373.888715 287.251001 
L 374.352839 287.035576 
L 374.584901 287.238933 
L 375.049025 287.147871 
L 375.513148 287.052794 
L 375.74521 287.075272 
L 375.977272 286.967248 
L 376.441396 287.089905 
L 376.673458 287.094689 
L 376.90552 287.485673 
L 377.137581 287.422993 
L 377.369643 287.20769 
L 377.601705 287.175546 
L 377.833767 287.339332 
L 378.065829 287.822941 
L 378.297891 287.294367 
L 378.762014 287.296152 
L 378.994076 287.160883 
L 379.226138 287.76338 
L 379.690262 287.195198 
L 379.922324 287.062931 
L 380.386447 287.201272 
L 380.618509 287.057851 
L 380.850571 287.259056 
L 381.314695 286.896777 
L 381.546757 287.011044 
L 381.778819 286.945644 
L 382.01088 287.284962 
L 382.475004 286.970996 
L 382.707066 287.07533 
L 382.939128 286.988485 
L 383.403252 287.375361 
L 384.099437 287.214021 
L 384.331499 286.971143 
L 384.563561 287.101851 
L 384.795623 287.385602 
L 385.027685 287.493301 
L 385.259747 287.252292 
L 385.72387 287.408404 
L 386.187994 288.096702 
L 386.420056 287.307354 
L 386.652118 287.269905 
L 386.88418 287.49765 
L 387.116241 287.904039 
L 387.348303 287.939824 
L 387.580365 287.245712 
L 387.812427 287.074268 
L 388.044489 287.649736 
L 388.276551 287.178413 
L 388.508613 287.016217 
L 388.972736 286.977952 
L 389.204798 287.200037 
L 389.668922 287.14271 
L 389.900984 287.34012 
L 390.133046 286.964188 
L 390.365108 287.106222 
L 391.061293 287.089994 
L 391.293355 287.358966 
L 391.525417 287.140294 
L 391.989541 287.279456 
L 392.221602 287.13535 
L 392.453664 287.244098 
L 392.685726 287.144794 
L 392.917788 287.323486 
L 393.14985 287.144797 
L 393.613974 287.347253 
L 393.846035 287.686561 
L 394.078097 287.352365 
L 394.310159 287.339069 
L 394.542221 287.860428 
L 394.774283 287.328035 
L 395.238407 287.180751 
L 395.470469 287.557157 
L 395.70253 287.194424 
L 395.934592 287.48255 
L 396.166654 287.295933 
L 396.398716 287.532475 
L 396.630778 287.114519 
L 396.86284 287.000089 
L 397.094902 287.09331 
L 397.326963 287.325784 
L 397.559025 287.069334 
L 397.791087 287.121368 
L 398.023149 287.035176 
L 398.487273 287.410503 
L 398.487273 287.410503 
" style="fill:none;stroke:#1f77b4;stroke-linecap:square;stroke-width:1.5;"/>
   </g>
   <g id="line2d_15">
    <path clip-path="url(#p02706ca077)" d="M 73.832727 53.568 
L 74.296851 58.359176 
L 74.993037 63.407973 
L 75.45716 65.383049 
L 75.921284 66.484209 
L 76.385408 66.715 
L 77.081593 66.701767 
L 77.313655 66.738495 
L 77.545717 66.518504 
L 77.777779 66.652594 
L 78.241903 68.03511 
L 78.473965 68.866118 
L 79.17015 73.956553 
L 79.866336 81.846206 
L 81.722831 105.959982 
L 82.186954 109.503333 
L 82.651078 111.557487 
L 82.88314 112.140507 
L 83.115202 112.415953 
L 83.347264 112.392294 
L 83.579325 112.495104 
L 83.811387 112.209389 
L 84.043449 112.142571 
L 84.275511 112.415339 
L 84.739635 113.549993 
L 85.203759 115.96731 
L 85.667882 120.116202 
L 86.364068 129.843618 
L 87.292315 145.949454 
L 87.988501 157.24863 
L 89.612934 169.543647 
L 90.077058 170.746265 
L 90.30912 171.11226 
L 90.541181 170.658697 
L 90.773243 170.504613 
L 91.469429 167.400958 
L 92.629738 159.542784 
L 93.093862 158.409478 
L 93.325924 158.333733 
L 93.557986 158.743091 
L 93.790047 158.864136 
L 94.254171 160.755637 
L 94.486233 161.852362 
L 95.878604 175.355434 
L 96.57479 183.022302 
L 97.270975 188.386543 
L 97.735099 190.283575 
L 97.967161 190.834126 
L 98.199223 190.277759 
L 98.895408 183.673809 
L 100.519841 167.797731 
L 100.751903 166.726114 
L 101.448089 158.568317 
L 101.680151 157.184526 
L 101.912213 157.001758 
L 102.144274 157.152072 
L 102.376336 158.471451 
L 102.84046 163.074307 
L 103.768708 178.276923 
L 104.696955 193.264215 
L 105.161079 197.628089 
L 105.625202 199.107758 
L 105.857264 198.458585 
L 106.089326 197.068624 
L 106.55345 191.849836 
L 106.785512 189.315838 
L 107.481697 178.635676 
L 108.874068 161.720774 
L 109.338192 159.268118 
L 109.570254 158.598848 
L 109.802316 158.64834 
L 110.034378 158.501439 
L 110.26644 159.548347 
L 110.730563 163.301912 
L 111.426749 171.004858 
L 112.122935 179.830724 
L 112.587058 184.380456 
L 113.051182 187.222406 
L 113.283244 187.832798 
L 113.515306 187.800998 
L 113.979429 186.000379 
L 114.675615 179.803439 
L 115.139739 172.30937 
L 116.067986 159.897232 
L 116.53211 154.316782 
L 116.764172 151.485276 
L 116.996234 150.883371 
L 117.228296 149.704661 
L 117.460357 149.914629 
L 117.924481 146.968937 
L 118.620667 150.89508 
L 118.852729 153.442539 
L 119.08479 153.965355 
L 119.548914 157.455921 
L 120.013038 164.981198 
L 121.405409 188.963655 
L 121.637471 189.927353 
L 121.869533 190.080227 
L 122.101595 189.305925 
L 122.79778 184.358123 
L 123.726028 169.399443 
L 125.350461 150.110101 
L 125.582523 148.723412 
L 125.814584 148.861534 
L 126.046646 148.425003 
L 126.278708 148.638194 
L 126.974894 153.794419 
L 127.439017 157.428921 
L 128.367265 165.261247 
L 128.831389 167.663149 
L 129.063451 168.340128 
L 129.295512 168.376849 
L 129.527574 169.254583 
L 129.991698 166.638456 
L 130.22376 166.735561 
L 130.455822 166.017112 
L 130.687884 161.333613 
L 130.919945 160.677869 
L 131.616131 152.953359 
L 131.848193 151.165129 
L 132.080255 150.835578 
L 132.544378 145.03208 
L 132.77644 145.409463 
L 133.008502 144.326457 
L 133.240564 146.52498 
L 133.472626 144.775154 
L 133.704688 145.520173 
L 133.93675 146.759246 
L 134.864997 156.305255 
L 135.561183 164.923101 
L 136.025306 168.713775 
L 136.48943 173.298586 
L 136.721492 173.488301 
L 137.185616 174.1353 
L 137.881801 171.038055 
L 138.113863 169.652928 
L 138.345925 167.228464 
L 138.810049 161.039452 
L 139.506234 153.955862 
L 139.738296 152.494684 
L 139.970358 149.76057 
L 140.20242 149.185728 
L 140.434482 147.450804 
L 140.898605 146.048762 
L 141.130667 145.684932 
L 141.594791 148.583463 
L 141.826853 149.532853 
L 142.058915 151.140258 
L 143.91541 170.906786 
L 144.379533 173.651333 
L 144.843657 175.224428 
L 145.075719 175.499579 
L 145.307781 174.467733 
L 146.700152 165.486461 
L 146.932214 161.831332 
L 147.164276 162.198628 
L 147.396338 158.585316 
L 147.860461 156.520887 
L 148.092523 157.815027 
L 148.556647 154.901966 
L 149.020771 156.415301 
L 149.252833 158.70852 
L 149.484894 159.167348 
L 151.341389 175.528704 
L 151.805513 178.670617 
L 152.037575 179.419252 
L 152.501699 179.244357 
L 153.197884 175.715894 
L 153.89407 167.363199 
L 154.358194 162.179139 
L 154.590255 157.944262 
L 154.822317 156.708248 
L 155.054379 152.394943 
L 155.286441 150.431597 
L 155.518503 149.751891 
L 155.750565 148.146484 
L 155.982627 148.139144 
L 156.214688 147.199025 
L 156.44675 147.373493 
L 157.374998 154.606444 
L 158.535307 170.675619 
L 159.231493 179.889945 
L 159.927678 186.582778 
L 160.15974 186.94153 
L 160.391802 188.058311 
L 160.623864 187.64502 
L 161.087988 186.35901 
L 161.552111 181.661528 
L 162.248297 174.984649 
L 162.944482 167.963353 
L 164.104792 160.6834 
L 164.336854 161.745075 
L 164.568915 161.57991 
L 164.800977 161.663474 
L 165.497163 165.341315 
L 166.193348 172.119845 
L 166.42541 173.520144 
L 167.121596 179.969202 
L 167.817782 185.066325 
L 168.049843 185.340968 
L 168.281905 186.568512 
L 168.513967 186.681029 
L 168.746029 186.609156 
L 169.674276 181.387874 
L 170.370462 177.295308 
L 170.834586 175.43576 
L 171.066648 173.933123 
L 171.298709 174.138451 
L 171.530771 173.085147 
L 171.762833 172.833439 
L 171.994895 172.759284 
L 172.226957 173.384833 
L 172.459019 173.532975 
L 174.779637 186.727626 
L 175.011699 186.845278 
L 175.475823 188.262011 
L 175.707885 188.244165 
L 175.939947 189.395036 
L 176.636132 186.829446 
L 177.100256 183.395365 
L 178.260565 177.079358 
L 178.492627 176.982299 
L 178.956751 175.701287 
L 179.188813 175.860609 
L 179.420875 175.259841 
L 179.652937 175.690962 
L 180.581184 180.097721 
L 181.27737 185.927355 
L 181.509431 187.099444 
L 181.973555 191.073656 
L 182.437679 193.398075 
L 182.669741 194.93235 
L 183.133864 195.893241 
L 183.365926 196.146643 
L 183.597988 196.20023 
L 183.83005 195.093245 
L 184.062112 195.015818 
L 184.526236 191.868001 
L 185.454483 184.996555 
L 185.686545 184.309249 
L 185.918607 182.061518 
L 186.382731 179.948007 
L 187.078916 177.156066 
L 187.310978 177.739249 
L 187.54304 177.795165 
L 187.775102 178.123424 
L 188.007164 178.782619 
L 189.167473 186.187432 
L 189.863658 191.23936 
L 190.09572 193.48348 
L 190.559844 195.194757 
L 191.25603 197.493543 
L 191.488091 198.110566 
L 191.952215 196.283134 
L 192.184277 196.418994 
L 192.416339 195.974102 
L 192.880463 192.637139 
L 193.576648 188.465502 
L 194.504896 184.370593 
L 194.736958 183.583743 
L 194.969019 183.432518 
L 195.201081 183.128246 
L 195.897267 183.896238 
L 196.825514 186.791651 
L 197.057576 188.538199 
L 197.289638 188.99654 
L 197.5217 190.75993 
L 198.682009 194.256032 
L 198.914071 194.350129 
L 199.146133 194.124479 
L 199.378195 194.386662 
L 199.610257 194.007863 
L 200.770566 190.962428 
L 201.002628 190.899316 
L 201.23469 189.612878 
L 201.466752 189.096274 
L 201.698813 189.38794 
L 202.162937 187.961111 
L 202.394999 188.359633 
L 202.627061 188.10716 
L 202.859123 188.600519 
L 203.091185 188.35917 
L 203.78737 190.122887 
L 204.019432 191.19482 
L 204.251494 191.465625 
L 204.715618 193.626339 
L 204.94768 193.70692 
L 205.411803 195.609217 
L 205.643865 195.59111 
L 205.875927 196.448027 
L 206.107989 196.245903 
L 206.572113 196.745985 
L 207.268298 194.984532 
L 207.50036 195.029801 
L 207.732422 193.32824 
L 207.964484 193.119267 
L 208.196546 191.863382 
L 208.428607 191.459233 
L 208.660669 190.71951 
L 209.124793 187.988387 
L 209.356855 188.672868 
L 209.588917 187.695941 
L 209.820979 187.663891 
L 210.05304 187.223034 
L 210.285102 187.190297 
L 210.749226 188.458297 
L 211.21335 189.838535 
L 211.909535 193.096773 
L 212.141597 193.487307 
L 213.069845 197.95338 
L 213.533968 199.280959 
L 213.76603 199.354096 
L 213.998092 199.708726 
L 214.462216 199.426092 
L 214.694278 199.36978 
L 214.92634 197.813452 
L 215.390463 196.161257 
L 215.622525 195.097237 
L 215.854587 194.608041 
L 216.086649 193.618509 
L 216.550773 191.10655 
L 216.782834 190.950157 
L 217.47902 188.251439 
L 217.943144 187.63854 
L 218.175206 187.774751 
L 218.407268 188.152128 
L 218.639329 188.037044 
L 219.335515 189.756917 
L 219.567577 190.92673 
L 219.799639 191.207143 
L 220.263762 193.913172 
L 220.495824 194.167234 
L 220.727886 195.466962 
L 220.959948 196.049386 
L 221.424072 198.094468 
L 222.352319 199.432103 
L 222.584381 198.434556 
L 222.816443 198.377106 
L 223.048505 197.318818 
L 223.512629 196.847056 
L 224.208814 194.008498 
L 224.440876 194.282622 
L 224.905 192.496528 
L 225.137062 192.450972 
L 225.833247 191.337101 
L 226.065309 191.336906 
L 226.297371 191.180405 
L 226.761495 192.175154 
L 226.993556 192.459437 
L 227.689742 194.555905 
L 228.617989 197.028957 
L 228.850051 197.085708 
L 229.082113 197.679259 
L 229.314175 197.817994 
L 229.778299 198.678141 
L 230.010361 198.3526 
L 230.474484 196.932223 
L 230.938608 195.854087 
L 231.17067 196.095003 
L 231.402732 194.788746 
L 231.866856 194.536678 
L 232.098917 193.117416 
L 232.330979 192.47992 
L 232.563041 192.301753 
L 232.795103 192.358261 
L 233.027165 191.695222 
L 233.491289 192.290001 
L 233.72335 192.202793 
L 233.955412 192.365334 
L 235.115722 195.701872 
L 235.347783 195.849177 
L 235.811907 197.720742 
L 236.740155 199.181282 
L 237.43634 199.495465 
L 237.668402 198.27045 
L 237.900464 198.014448 
L 238.364588 196.761974 
L 238.828711 194.794453 
L 239.060773 194.359064 
L 239.292835 193.141727 
L 239.524897 192.998816 
L 239.756959 191.794779 
L 239.989021 191.821107 
L 240.221083 190.583157 
L 240.453144 190.673233 
L 240.917268 189.75499 
L 241.381392 190.023859 
L 241.845516 191.012187 
L 242.309639 192.344757 
L 244.398196 199.574598 
L 244.630258 199.909968 
L 245.094382 200.91319 
L 245.326444 200.151692 
L 245.558505 200.41308 
L 245.790567 199.353713 
L 246.022629 198.936936 
L 246.254691 198.818795 
L 246.950877 195.70756 
L 247.182938 195.598561 
L 247.879124 193.213361 
L 248.343248 192.353375 
L 248.57531 192.425763 
L 249.039433 191.848302 
L 249.967681 192.866153 
L 251.824176 197.867446 
L 252.752423 199.788079 
L 253.216547 198.592114 
L 253.448609 197.961472 
L 253.680671 198.618896 
L 253.912732 197.967255 
L 254.144794 197.678882 
L 254.376856 196.536418 
L 254.608918 196.201034 
L 255.073042 195.079891 
L 255.305104 195.058319 
L 255.769227 194.543605 
L 256.001289 193.931983 
L 256.233351 194.144865 
L 256.465413 193.799176 
L 256.697475 193.74551 
L 256.929537 193.997544 
L 257.625722 195.598977 
L 258.089846 196.391333 
L 258.321908 196.863353 
L 258.55397 198.021003 
L 259.482217 199.167658 
L 259.714279 199.874795 
L 259.946341 199.659447 
L 260.178403 199.687139 
L 260.410465 199.548093 
L 260.642526 199.611092 
L 261.10665 198.054595 
L 261.338712 197.564541 
L 261.570774 197.610867 
L 262.26696 194.940872 
L 262.499021 195.163132 
L 262.963145 193.893339 
L 263.195207 194.080034 
L 263.427269 193.432609 
L 263.659331 193.568399 
L 263.891393 194.207566 
L 264.123454 193.221808 
L 264.355516 193.719715 
L 264.587578 193.915546 
L 264.81964 194.357032 
L 265.283764 195.472861 
L 265.515826 195.796504 
L 265.747887 196.978975 
L 265.979949 197.328924 
L 266.908197 200.323467 
L 267.140259 200.205373 
L 267.836444 201.495585 
L 268.300568 200.592721 
L 268.53263 200.705453 
L 268.996754 199.441969 
L 269.460877 197.135384 
L 269.692939 196.310046 
L 270.389125 195.343019 
L 270.621187 194.147831 
L 270.853248 194.30833 
L 271.08531 193.426267 
L 271.317372 193.20604 
L 271.549434 192.559501 
L 271.781496 192.867542 
L 272.013558 192.710543 
L 272.709743 194.262602 
L 273.173867 194.793907 
L 273.637991 196.419996 
L 273.870053 196.699403 
L 274.566238 198.471783 
L 274.7983 199.364318 
L 275.030362 199.020795 
L 275.262424 199.636959 
L 275.494486 199.658024 
L 275.726548 200.389743 
L 275.958609 200.403653 
L 276.190671 199.14196 
L 276.422733 199.891106 
L 277.583042 196.243822 
L 278.047166 195.71615 
L 278.279228 195.084963 
L 278.743352 195.10068 
L 279.207475 194.04728 
L 279.439537 193.967418 
L 279.903661 194.370688 
L 280.367785 194.708358 
L 280.599847 195.251169 
L 280.831909 195.373546 
L 281.06397 195.783289 
L 281.528094 196.989834 
L 282.688403 198.415357 
L 282.920465 198.549673 
L 283.152527 198.879089 
L 283.384589 198.535932 
L 283.616651 197.703194 
L 283.848713 197.524371 
L 284.080775 197.738473 
L 284.544898 196.752024 
L 284.77696 195.641687 
L 285.009022 195.307926 
L 285.473146 194.112743 
L 286.169331 193.403405 
L 286.401393 193.239895 
L 286.633455 192.917619 
L 286.865517 193.666228 
L 287.097579 193.724657 
L 287.329641 193.601544 
L 287.793764 194.202577 
L 288.025826 195.075689 
L 288.257888 195.232194 
L 288.954074 197.305338 
L 289.650259 199.721738 
L 289.882321 199.555662 
L 290.346445 200.872638 
L 290.578507 200.831307 
L 290.810569 200.997283 
L 291.04263 199.875888 
L 291.506754 198.924905 
L 291.970878 197.703085 
L 292.20294 197.45399 
L 292.667063 195.773179 
L 292.899125 195.865698 
L 293.131187 194.808153 
L 293.363249 195.010431 
L 293.595311 194.061783 
L 293.827373 193.622819 
L 294.059435 193.936535 
L 294.523558 193.335092 
L 294.987682 193.386265 
L 295.451806 194.130095 
L 295.91593 195.134969 
L 296.147991 195.464808 
L 297.308301 198.536917 
L 297.540363 198.826359 
L 298.236548 200.378252 
L 298.46861 200.430979 
L 298.700672 199.065749 
L 299.164796 199.055926 
L 299.396857 198.484686 
L 299.628919 198.733044 
L 299.860981 198.183104 
L 300.093043 196.591626 
L 300.325105 196.034118 
L 300.557167 195.894368 
L 301.253352 194.190786 
L 301.485414 193.645849 
L 301.717476 193.448301 
L 301.949538 192.997176 
L 302.1816 193.127919 
L 302.645724 192.871278 
L 302.877785 193.039445 
L 303.573971 194.108759 
L 304.038095 195.048908 
L 304.502218 196.160771 
L 304.73428 196.604259 
L 305.198404 197.97259 
L 305.430466 197.937006 
L 305.662528 198.72985 
L 305.89459 198.705179 
L 306.126652 199.488891 
L 306.358713 198.242828 
L 306.590775 198.813522 
L 306.822837 198.466121 
L 307.054899 198.385834 
L 307.286961 198.116655 
L 307.519023 198.426857 
L 307.983146 196.02255 
L 308.44727 195.30631 
L 308.679332 195.115679 
L 308.911394 194.123021 
L 309.375518 193.15747 
L 309.607579 193.188611 
L 309.839641 193.078183 
L 310.071703 193.520593 
L 310.303765 192.75795 
L 310.535827 192.518006 
L 311.232012 194.211812 
L 311.464074 194.343092 
L 312.16026 196.127216 
L 312.392322 196.352076 
L 312.624384 197.434926 
L 312.856446 197.502042 
L 313.088507 198.087195 
L 313.320569 198.153833 
L 313.552631 198.836257 
L 313.784693 198.403334 
L 314.016755 197.585751 
L 314.248817 197.33044 
L 314.480879 197.807863 
L 314.71294 196.694253 
L 315.177064 196.02818 
L 315.409126 195.804854 
L 315.641188 194.884461 
L 315.87325 194.549215 
L 316.105312 193.886696 
L 316.337373 193.579608 
L 316.569435 193.686751 
L 316.801497 193.048562 
L 317.033559 192.739356 
L 317.265621 192.865052 
L 317.497683 192.424024 
L 318.193868 192.908888 
L 318.42593 193.239695 
L 318.657992 194.103247 
L 318.890054 194.14205 
L 319.58624 195.765499 
L 320.050363 197.258662 
L 320.282425 197.371369 
L 320.746549 198.331611 
L 321.210673 198.86511 
L 321.442734 199.811315 
L 321.906858 198.251548 
L 322.370982 197.825522 
L 322.603044 197.01314 
L 322.835106 196.877217 
L 323.299229 195.776856 
L 323.531291 195.906048 
L 323.763353 196.932925 
L 323.995415 194.640057 
L 324.227477 194.659705 
L 324.6916 193.703548 
L 324.923662 193.550402 
L 325.155724 193.022463 
L 325.85191 193.563979 
L 326.083972 193.946507 
L 326.316034 194.0714 
L 326.548095 193.948374 
L 326.780157 194.869557 
L 327.012219 195.0531 
L 327.708405 196.905856 
L 328.40459 197.931716 
L 328.868714 198.154555 
L 329.332838 199.12832 
L 329.796961 197.902564 
L 330.029023 197.543928 
L 330.261085 197.884559 
L 330.493147 197.873718 
L 330.725209 196.449218 
L 330.957271 195.906222 
L 331.189333 195.748841 
L 331.421395 194.579568 
L 331.653456 194.857392 
L 332.581704 192.981796 
L 332.813766 192.631862 
L 333.277889 193.606596 
L 333.509951 193.198668 
L 333.742013 193.412405 
L 333.974075 193.91221 
L 334.206137 194.12043 
L 335.598508 196.712901 
L 336.526755 198.00843 
L 336.758817 197.981896 
L 336.990879 198.400317 
L 337.222941 197.301315 
L 337.455003 197.290905 
L 337.687065 196.75876 
L 337.919127 197.253813 
L 338.38325 196.263105 
L 338.615312 195.449939 
L 338.847374 195.878847 
L 339.079436 194.697919 
L 339.311498 195.00578 
L 339.54356 193.918797 
L 339.775622 193.870232 
L 340.239745 193.375627 
L 340.471807 193.881342 
L 340.703869 192.863851 
L 341.167993 193.005262 
L 341.400055 193.309894 
L 341.632116 193.929626 
L 341.864178 193.718216 
L 342.09624 194.624048 
L 342.328302 195.040516 
L 342.560364 195.228084 
L 343.488611 197.823692 
L 343.720673 197.745226 
L 344.184797 197.99696 
L 344.416859 198.26184 
L 344.880983 197.860199 
L 345.113044 198.012456 
L 345.577168 196.874581 
L 345.80923 196.832918 
L 346.041292 195.21822 
L 346.273354 195.178389 
L 346.737477 194.293839 
L 347.201601 193.235242 
L 347.433663 192.974933 
L 347.665725 192.945448 
L 347.897787 192.586246 
L 348.129849 192.83826 
L 348.36191 192.701782 
L 348.826034 193.11309 
L 349.058096 193.272768 
L 349.290158 193.611735 
L 350.218405 195.885293 
L 350.914591 197.576014 
L 351.610777 198.108845 
L 351.842838 198.095876 
L 352.0749 197.801294 
L 352.306962 198.203018 
L 352.771086 197.223368 
L 353.003148 197.30181 
L 353.467271 196.452524 
L 353.699333 195.053805 
L 354.163457 194.314545 
L 354.395519 193.223556 
L 355.091704 192.89382 
L 355.555828 192.288415 
L 355.78789 192.602404 
L 356.019952 192.359076 
L 356.252014 193.697415 
L 356.484076 193.246533 
L 356.716138 193.770577 
L 356.948199 194.000471 
L 357.180261 194.85466 
L 358.108509 196.542443 
L 358.572632 198.223189 
L 358.804694 198.1123 
L 359.036756 198.77944 
L 359.268818 198.404512 
L 359.50088 198.509907 
L 359.732942 198.767109 
L 359.965004 198.799692 
L 360.197065 198.398685 
L 360.429127 198.749559 
L 360.661189 198.697783 
L 360.893251 197.09466 
L 361.125313 196.529823 
L 361.357375 196.377168 
L 361.589437 195.322745 
L 361.821498 195.194638 
L 362.285622 194.052469 
L 362.517684 194.156491 
L 362.749746 193.637306 
L 362.981808 193.922206 
L 363.21387 193.345973 
L 363.910055 194.306547 
L 364.142117 193.692982 
L 364.374179 194.005198 
L 364.606241 194.791155 
L 364.838303 194.655107 
L 365.070365 195.35723 
L 365.302426 195.312129 
L 366.230674 197.370037 
L 366.462736 197.69183 
L 366.694798 198.656555 
L 367.158921 198.642497 
L 367.623045 198.450511 
L 367.855107 198.598509 
L 368.087169 198.080061 
L 368.319231 198.206117 
L 368.551292 197.736169 
L 368.783354 196.197462 
L 369.015416 196.343054 
L 369.47954 195.136186 
L 369.711602 195.214299 
L 370.175726 193.77693 
L 370.407787 193.95626 
L 370.871911 193.021696 
L 371.336035 192.856874 
L 372.264282 193.818049 
L 372.728406 194.565064 
L 372.960468 195.359594 
L 373.19253 195.717681 
L 373.424592 195.836544 
L 373.656653 196.318814 
L 373.888715 197.085719 
L 374.120777 197.402912 
L 374.584901 198.687333 
L 375.281086 198.483954 
L 375.513148 198.888103 
L 375.74521 198.430955 
L 375.977272 198.683387 
L 376.209334 197.409341 
L 376.441396 197.034885 
L 376.673458 196.893983 
L 377.369643 195.550347 
L 377.601705 195.673694 
L 378.065829 194.249785 
L 378.297891 193.913724 
L 378.529953 193.999416 
L 378.994076 193.472858 
L 379.4582 193.983499 
L 379.690262 194.129955 
L 379.922324 194.930271 
L 380.154386 194.851478 
L 380.386447 195.747223 
L 380.618509 195.806145 
L 381.778819 199.073238 
L 382.01088 198.966899 
L 382.242942 198.992073 
L 382.475004 199.210327 
L 382.707066 199.638069 
L 383.403252 199.22178 
L 383.635314 198.487463 
L 383.867375 198.926643 
L 384.099437 197.789578 
L 384.563561 196.811034 
L 384.795623 197.061958 
L 385.491808 195.196299 
L 385.72387 194.822826 
L 385.955932 194.816507 
L 386.187994 194.464003 
L 386.652118 194.742351 
L 386.88418 194.673952 
L 387.116241 195.159659 
L 387.348303 195.205922 
L 387.580365 195.719083 
L 387.812427 196.520322 
L 388.044489 196.45638 
L 388.276551 196.596489 
L 389.43686 199.376885 
L 389.668922 199.156937 
L 390.133046 199.622031 
L 390.365108 199.580171 
L 390.597169 199.895109 
L 391.293355 198.932707 
L 391.525417 198.689485 
L 392.685726 195.542635 
L 393.14985 194.96798 
L 393.381912 195.561071 
L 393.613974 194.682722 
L 393.846035 194.811223 
L 394.078097 194.540929 
L 394.310159 194.805759 
L 394.542221 194.592255 
L 395.006345 195.282106 
L 395.70253 196.377082 
L 395.934592 197.158987 
L 396.166654 197.070086 
L 396.86284 198.638871 
L 397.094902 198.980254 
L 397.559025 198.878918 
L 398.023149 199.230239 
L 398.255211 199.367778 
L 398.487273 199.11159 
L 398.487273 199.11159 
" style="fill:none;stroke:#ff7f0e;stroke-linecap:square;stroke-width:1.5;"/>
   </g>
   <g id="patch_3">
    <path d="M 57.6 307.584 
L 57.6 41.472 
" style="fill:none;stroke:#000000;stroke-linecap:square;stroke-linejoin:miter;stroke-width:0.8;"/>
   </g>
   <g id="patch_4">
    <path d="M 414.72 307.584 
L 414.72 41.472 
" style="fill:none;stroke:#000000;stroke-linecap:square;stroke-linejoin:miter;stroke-width:0.8;"/>
   </g>
   <g id="patch_5">
    <path d="M 57.6 307.584 
L 414.72 307.584 
" style="fill:none;stroke:#000000;stroke-linecap:square;stroke-linejoin:miter;stroke-width:0.8;"/>
   </g>
   <g id="patch_6">
    <path d="M 57.6 41.472 
L 414.72 41.472 
" style="fill:none;stroke:#000000;stroke-linecap:square;stroke-linejoin:miter;stroke-width:0.8;"/>
   </g>
  </g>
 </g>
 <defs>
  <clipPath id="p02706ca077">
   <rect height="266.112" width="357.12" x="57.6" y="41.472"/>
  </clipPath>
 </defs>
</svg>
