<?xml version="1.0" encoding="utf-8" standalone="no"?>
<!DOCTYPE svg PUBLIC "-//W3C//DTD SVG 1.1//EN"
  "http://www.w3.org/Graphics/SVG/1.1/DTD/svg11.dtd">
<!-- Created with matplotlib (https://matplotlib.org/) -->
<svg height="345.6pt" version="1.1" viewBox="0 0 460.8 345.6" width="460.8pt" xmlns="http://www.w3.org/2000/svg" xmlns:xlink="http://www.w3.org/1999/xlink">
 <defs>
  <style type="text/css">
*{stroke-linecap:butt;stroke-linejoin:round;}
  </style>
 </defs>
 <g id="figure_1">
  <g id="patch_1">
   <path d="M 0 345.6 
L 460.8 345.6 
L 460.8 0 
L 0 0 
z
" style="fill:#ffffff;"/>
  </g>
  <g id="axes_1">
   <g id="patch_2">
    <path d="M 57.6 307.584 
L 414.72 307.584 
L 414.72 41.472 
L 57.6 41.472 
z
" style="fill:#ffffff;"/>
   </g>
   <g id="matplotlib.axis_1">
    <g id="xtick_1">
     <g id="line2d_1">
      <defs>
       <path d="M 0 0 
L 0 3.5 
" id="md06c386880" style="stroke:#000000;stroke-width:0.8;"/>
      </defs>
      <g>
       <use style="stroke:#000000;stroke-width:0.8;" x="73.832727" xlink:href="#md06c386880" y="307.584"/>
      </g>
     </g>
     <g id="text_1">
      <!-- 0 -->
      <defs>
       <path d="M 31.78125 66.40625 
Q 24.171875 66.40625 20.328125 58.90625 
Q 16.5 51.421875 16.5 36.375 
Q 16.5 21.390625 20.328125 13.890625 
Q 24.171875 6.390625 31.78125 6.390625 
Q 39.453125 6.390625 43.28125 13.890625 
Q 47.125 21.390625 47.125 36.375 
Q 47.125 51.421875 43.28125 58.90625 
Q 39.453125 66.40625 31.78125 66.40625 
z
M 31.78125 74.21875 
Q 44.046875 74.21875 50.515625 64.515625 
Q 56.984375 54.828125 56.984375 36.375 
Q 56.984375 17.96875 50.515625 8.265625 
Q 44.046875 -1.421875 31.78125 -1.421875 
Q 19.53125 -1.421875 13.0625 8.265625 
Q 6.59375 17.96875 6.59375 36.375 
Q 6.59375 54.828125 13.0625 64.515625 
Q 19.53125 74.21875 31.78125 74.21875 
z
" id="DejaVuSans-48"/>
      </defs>
      <g transform="translate(70.651477 322.182437)scale(0.1 -0.1)">
       <use xlink:href="#DejaVuSans-48"/>
      </g>
     </g>
    </g>
    <g id="xtick_2">
     <g id="line2d_2">
      <g>
       <use style="stroke:#000000;stroke-width:0.8;" x="120.2451" xlink:href="#md06c386880" y="307.584"/>
      </g>
     </g>
     <g id="text_2">
      <!-- 200 -->
      <defs>
       <path d="M 19.1875 8.296875 
L 53.609375 8.296875 
L 53.609375 0 
L 7.328125 0 
L 7.328125 8.296875 
Q 12.9375 14.109375 22.625 23.890625 
Q 32.328125 33.6875 34.8125 36.53125 
Q 39.546875 41.84375 41.421875 45.53125 
Q 43.3125 49.21875 43.3125 52.78125 
Q 43.3125 58.59375 39.234375 62.25 
Q 35.15625 65.921875 28.609375 65.921875 
Q 23.96875 65.921875 18.8125 64.3125 
Q 13.671875 62.703125 7.8125 59.421875 
L 7.8125 69.390625 
Q 13.765625 71.78125 18.9375 73 
Q 24.125 74.21875 28.421875 74.21875 
Q 39.75 74.21875 46.484375 68.546875 
Q 53.21875 62.890625 53.21875 53.421875 
Q 53.21875 48.921875 51.53125 44.890625 
Q 49.859375 40.875 45.40625 35.40625 
Q 44.1875 33.984375 37.640625 27.21875 
Q 31.109375 20.453125 19.1875 8.296875 
z
" id="DejaVuSans-50"/>
      </defs>
      <g transform="translate(110.70135 322.182437)scale(0.1 -0.1)">
       <use xlink:href="#DejaVuSans-50"/>
       <use x="63.623047" xlink:href="#DejaVuSans-48"/>
       <use x="127.246094" xlink:href="#DejaVuSans-48"/>
      </g>
     </g>
    </g>
    <g id="xtick_3">
     <g id="line2d_3">
      <g>
       <use style="stroke:#000000;stroke-width:0.8;" x="166.657472" xlink:href="#md06c386880" y="307.584"/>
      </g>
     </g>
     <g id="text_3">
      <!-- 400 -->
      <defs>
       <path d="M 37.796875 64.3125 
L 12.890625 25.390625 
L 37.796875 25.390625 
z
M 35.203125 72.90625 
L 47.609375 72.90625 
L 47.609375 25.390625 
L 58.015625 25.390625 
L 58.015625 17.1875 
L 47.609375 17.1875 
L 47.609375 0 
L 37.796875 0 
L 37.796875 17.1875 
L 4.890625 17.1875 
L 4.890625 26.703125 
z
" id="DejaVuSans-52"/>
      </defs>
      <g transform="translate(157.113722 322.182437)scale(0.1 -0.1)">
       <use xlink:href="#DejaVuSans-52"/>
       <use x="63.623047" xlink:href="#DejaVuSans-48"/>
       <use x="127.246094" xlink:href="#DejaVuSans-48"/>
      </g>
     </g>
    </g>
    <g id="xtick_4">
     <g id="line2d_4">
      <g>
       <use style="stroke:#000000;stroke-width:0.8;" x="213.069845" xlink:href="#md06c386880" y="307.584"/>
      </g>
     </g>
     <g id="text_4">
      <!-- 600 -->
      <defs>
       <path d="M 33.015625 40.375 
Q 26.375 40.375 22.484375 35.828125 
Q 18.609375 31.296875 18.609375 23.390625 
Q 18.609375 15.53125 22.484375 10.953125 
Q 26.375 6.390625 33.015625 6.390625 
Q 39.65625 6.390625 43.53125 10.953125 
Q 47.40625 15.53125 47.40625 23.390625 
Q 47.40625 31.296875 43.53125 35.828125 
Q 39.65625 40.375 33.015625 40.375 
z
M 52.59375 71.296875 
L 52.59375 62.3125 
Q 48.875 64.0625 45.09375 64.984375 
Q 41.3125 65.921875 37.59375 65.921875 
Q 27.828125 65.921875 22.671875 59.328125 
Q 17.53125 52.734375 16.796875 39.40625 
Q 19.671875 43.65625 24.015625 45.921875 
Q 28.375 48.1875 33.59375 48.1875 
Q 44.578125 48.1875 50.953125 41.515625 
Q 57.328125 34.859375 57.328125 23.390625 
Q 57.328125 12.15625 50.6875 5.359375 
Q 44.046875 -1.421875 33.015625 -1.421875 
Q 20.359375 -1.421875 13.671875 8.265625 
Q 6.984375 17.96875 6.984375 36.375 
Q 6.984375 53.65625 15.1875 63.9375 
Q 23.390625 74.21875 37.203125 74.21875 
Q 40.921875 74.21875 44.703125 73.484375 
Q 48.484375 72.75 52.59375 71.296875 
z
" id="DejaVuSans-54"/>
      </defs>
      <g transform="translate(203.526095 322.182437)scale(0.1 -0.1)">
       <use xlink:href="#DejaVuSans-54"/>
       <use x="63.623047" xlink:href="#DejaVuSans-48"/>
       <use x="127.246094" xlink:href="#DejaVuSans-48"/>
      </g>
     </g>
    </g>
    <g id="xtick_5">
     <g id="line2d_5">
      <g>
       <use style="stroke:#000000;stroke-width:0.8;" x="259.482217" xlink:href="#md06c386880" y="307.584"/>
      </g>
     </g>
     <g id="text_5">
      <!-- 800 -->
      <defs>
       <path d="M 31.78125 34.625 
Q 24.75 34.625 20.71875 30.859375 
Q 16.703125 27.09375 16.703125 20.515625 
Q 16.703125 13.921875 20.71875 10.15625 
Q 24.75 6.390625 31.78125 6.390625 
Q 38.8125 6.390625 42.859375 10.171875 
Q 46.921875 13.96875 46.921875 20.515625 
Q 46.921875 27.09375 42.890625 30.859375 
Q 38.875 34.625 31.78125 34.625 
z
M 21.921875 38.8125 
Q 15.578125 40.375 12.03125 44.71875 
Q 8.5 49.078125 8.5 55.328125 
Q 8.5 64.0625 14.71875 69.140625 
Q 20.953125 74.21875 31.78125 74.21875 
Q 42.671875 74.21875 48.875 69.140625 
Q 55.078125 64.0625 55.078125 55.328125 
Q 55.078125 49.078125 51.53125 44.71875 
Q 48 40.375 41.703125 38.8125 
Q 48.828125 37.15625 52.796875 32.3125 
Q 56.78125 27.484375 56.78125 20.515625 
Q 56.78125 9.90625 50.3125 4.234375 
Q 43.84375 -1.421875 31.78125 -1.421875 
Q 19.734375 -1.421875 13.25 4.234375 
Q 6.78125 9.90625 6.78125 20.515625 
Q 6.78125 27.484375 10.78125 32.3125 
Q 14.796875 37.15625 21.921875 38.8125 
z
M 18.3125 54.390625 
Q 18.3125 48.734375 21.84375 45.5625 
Q 25.390625 42.390625 31.78125 42.390625 
Q 38.140625 42.390625 41.71875 45.5625 
Q 45.3125 48.734375 45.3125 54.390625 
Q 45.3125 60.0625 41.71875 63.234375 
Q 38.140625 66.40625 31.78125 66.40625 
Q 25.390625 66.40625 21.84375 63.234375 
Q 18.3125 60.0625 18.3125 54.390625 
z
" id="DejaVuSans-56"/>
      </defs>
      <g transform="translate(249.938467 322.182437)scale(0.1 -0.1)">
       <use xlink:href="#DejaVuSans-56"/>
       <use x="63.623047" xlink:href="#DejaVuSans-48"/>
       <use x="127.246094" xlink:href="#DejaVuSans-48"/>
      </g>
     </g>
    </g>
    <g id="xtick_6">
     <g id="line2d_6">
      <g>
       <use style="stroke:#000000;stroke-width:0.8;" x="305.89459" xlink:href="#md06c386880" y="307.584"/>
      </g>
     </g>
     <g id="text_6">
      <!-- 1000 -->
      <defs>
       <path d="M 12.40625 8.296875 
L 28.515625 8.296875 
L 28.515625 63.921875 
L 10.984375 60.40625 
L 10.984375 69.390625 
L 28.421875 72.90625 
L 38.28125 72.90625 
L 38.28125 8.296875 
L 54.390625 8.296875 
L 54.390625 0 
L 12.40625 0 
z
" id="DejaVuSans-49"/>
      </defs>
      <g transform="translate(293.16959 322.182437)scale(0.1 -0.1)">
       <use xlink:href="#DejaVuSans-49"/>
       <use x="63.623047" xlink:href="#DejaVuSans-48"/>
       <use x="127.246094" xlink:href="#DejaVuSans-48"/>
       <use x="190.869141" xlink:href="#DejaVuSans-48"/>
      </g>
     </g>
    </g>
    <g id="xtick_7">
     <g id="line2d_7">
      <g>
       <use style="stroke:#000000;stroke-width:0.8;" x="352.306962" xlink:href="#md06c386880" y="307.584"/>
      </g>
     </g>
     <g id="text_7">
      <!-- 1200 -->
      <g transform="translate(339.581962 322.182437)scale(0.1 -0.1)">
       <use xlink:href="#DejaVuSans-49"/>
       <use x="63.623047" xlink:href="#DejaVuSans-50"/>
       <use x="127.246094" xlink:href="#DejaVuSans-48"/>
       <use x="190.869141" xlink:href="#DejaVuSans-48"/>
      </g>
     </g>
    </g>
    <g id="xtick_8">
     <g id="line2d_8">
      <g>
       <use style="stroke:#000000;stroke-width:0.8;" x="398.719335" xlink:href="#md06c386880" y="307.584"/>
      </g>
     </g>
     <g id="text_8">
      <!-- 1400 -->
      <g transform="translate(385.994335 322.182437)scale(0.1 -0.1)">
       <use xlink:href="#DejaVuSans-49"/>
       <use x="63.623047" xlink:href="#DejaVuSans-52"/>
       <use x="127.246094" xlink:href="#DejaVuSans-48"/>
       <use x="190.869141" xlink:href="#DejaVuSans-48"/>
      </g>
     </g>
    </g>
   </g>
   <g id="matplotlib.axis_2">
    <g id="ytick_1">
     <g id="line2d_9">
      <defs>
       <path d="M 0 0 
L -3.5 0 
" id="mccfc50bbd7" style="stroke:#000000;stroke-width:0.8;"/>
      </defs>
      <g>
       <use style="stroke:#000000;stroke-width:0.8;" x="57.6" xlink:href="#mccfc50bbd7" y="296.886814"/>
      </g>
     </g>
     <g id="text_9">
      <!-- 0.000 -->
      <defs>
       <path d="M 10.6875 12.40625 
L 21 12.40625 
L 21 0 
L 10.6875 0 
z
" id="DejaVuSans-46"/>
      </defs>
      <g transform="translate(21.971875 300.686033)scale(0.1 -0.1)">
       <use xlink:href="#DejaVuSans-48"/>
       <use x="63.623047" xlink:href="#DejaVuSans-46"/>
       <use x="95.410156" xlink:href="#DejaVuSans-48"/>
       <use x="159.033203" xlink:href="#DejaVuSans-48"/>
       <use x="222.65625" xlink:href="#DejaVuSans-48"/>
      </g>
     </g>
    </g>
    <g id="ytick_2">
     <g id="line2d_10">
      <g>
       <use style="stroke:#000000;stroke-width:0.8;" x="57.6" xlink:href="#mccfc50bbd7" y="263.323275"/>
      </g>
     </g>
     <g id="text_10">
      <!-- 0.002 -->
      <g transform="translate(21.971875 267.122494)scale(0.1 -0.1)">
       <use xlink:href="#DejaVuSans-48"/>
       <use x="63.623047" xlink:href="#DejaVuSans-46"/>
       <use x="95.410156" xlink:href="#DejaVuSans-48"/>
       <use x="159.033203" xlink:href="#DejaVuSans-48"/>
       <use x="222.65625" xlink:href="#DejaVuSans-50"/>
      </g>
     </g>
    </g>
    <g id="ytick_3">
     <g id="line2d_11">
      <g>
       <use style="stroke:#000000;stroke-width:0.8;" x="57.6" xlink:href="#mccfc50bbd7" y="229.759736"/>
      </g>
     </g>
     <g id="text_11">
      <!-- 0.004 -->
      <g transform="translate(21.971875 233.558955)scale(0.1 -0.1)">
       <use xlink:href="#DejaVuSans-48"/>
       <use x="63.623047" xlink:href="#DejaVuSans-46"/>
       <use x="95.410156" xlink:href="#DejaVuSans-48"/>
       <use x="159.033203" xlink:href="#DejaVuSans-48"/>
       <use x="222.65625" xlink:href="#DejaVuSans-52"/>
      </g>
     </g>
    </g>
    <g id="ytick_4">
     <g id="line2d_12">
      <g>
       <use style="stroke:#000000;stroke-width:0.8;" x="57.6" xlink:href="#mccfc50bbd7" y="196.196197"/>
      </g>
     </g>
     <g id="text_12">
      <!-- 0.006 -->
      <g transform="translate(21.971875 199.995416)scale(0.1 -0.1)">
       <use xlink:href="#DejaVuSans-48"/>
       <use x="63.623047" xlink:href="#DejaVuSans-46"/>
       <use x="95.410156" xlink:href="#DejaVuSans-48"/>
       <use x="159.033203" xlink:href="#DejaVuSans-48"/>
       <use x="222.65625" xlink:href="#DejaVuSans-54"/>
      </g>
     </g>
    </g>
    <g id="ytick_5">
     <g id="line2d_13">
      <g>
       <use style="stroke:#000000;stroke-width:0.8;" x="57.6" xlink:href="#mccfc50bbd7" y="162.632658"/>
      </g>
     </g>
     <g id="text_13">
      <!-- 0.008 -->
      <g transform="translate(21.971875 166.431877)scale(0.1 -0.1)">
       <use xlink:href="#DejaVuSans-48"/>
       <use x="63.623047" xlink:href="#DejaVuSans-46"/>
       <use x="95.410156" xlink:href="#DejaVuSans-48"/>
       <use x="159.033203" xlink:href="#DejaVuSans-48"/>
       <use x="222.65625" xlink:href="#DejaVuSans-56"/>
      </g>
     </g>
    </g>
    <g id="ytick_6">
     <g id="line2d_14">
      <g>
       <use style="stroke:#000000;stroke-width:0.8;" x="57.6" xlink:href="#mccfc50bbd7" y="129.06912"/>
      </g>
     </g>
     <g id="text_14">
      <!-- 0.010 -->
      <g transform="translate(21.971875 132.868338)scale(0.1 -0.1)">
       <use xlink:href="#DejaVuSans-48"/>
       <use x="63.623047" xlink:href="#DejaVuSans-46"/>
       <use x="95.410156" xlink:href="#DejaVuSans-48"/>
       <use x="159.033203" xlink:href="#DejaVuSans-49"/>
       <use x="222.65625" xlink:href="#DejaVuSans-48"/>
      </g>
     </g>
    </g>
    <g id="ytick_7">
     <g id="line2d_15">
      <g>
       <use style="stroke:#000000;stroke-width:0.8;" x="57.6" xlink:href="#mccfc50bbd7" y="95.505581"/>
      </g>
     </g>
     <g id="text_15">
      <!-- 0.012 -->
      <g transform="translate(21.971875 99.304799)scale(0.1 -0.1)">
       <use xlink:href="#DejaVuSans-48"/>
       <use x="63.623047" xlink:href="#DejaVuSans-46"/>
       <use x="95.410156" xlink:href="#DejaVuSans-48"/>
       <use x="159.033203" xlink:href="#DejaVuSans-49"/>
       <use x="222.65625" xlink:href="#DejaVuSans-50"/>
      </g>
     </g>
    </g>
    <g id="ytick_8">
     <g id="line2d_16">
      <g>
       <use style="stroke:#000000;stroke-width:0.8;" x="57.6" xlink:href="#mccfc50bbd7" y="61.942042"/>
      </g>
     </g>
     <g id="text_16">
      <!-- 0.014 -->
      <g transform="translate(21.971875 65.74126)scale(0.1 -0.1)">
       <use xlink:href="#DejaVuSans-48"/>
       <use x="63.623047" xlink:href="#DejaVuSans-46"/>
       <use x="95.410156" xlink:href="#DejaVuSans-48"/>
       <use x="159.033203" xlink:href="#DejaVuSans-49"/>
       <use x="222.65625" xlink:href="#DejaVuSans-52"/>
      </g>
     </g>
    </g>
   </g>
   <g id="line2d_17">
    <path clip-path="url(#p87b8508848)" d="M 73.832727 293.274871 
L 74.064789 293.708294 
L 74.296851 293.524414 
L 74.528913 292.67466 
L 74.760975 293.433311 
L 74.993037 292.978266 
L 75.225098 293.089992 
L 75.921284 291.537513 
L 76.153346 291.713561 
L 76.61747 291.711686 
L 76.849531 291.832171 
L 77.081593 292.151332 
L 77.777779 292.525533 
L 78.009841 294.313684 
L 78.241903 294.114964 
L 78.473965 293.691113 
L 78.706026 293.907135 
L 78.938088 293.871781 
L 79.634274 294.802603 
L 79.866336 294.934595 
L 80.098398 295.488 
L 80.330459 294.843774 
L 80.562521 294.862117 
L 81.026645 294.329841 
L 81.258707 294.743492 
L 81.490769 289.882486 
L 81.722831 291.177398 
L 81.954892 291.717208 
L 82.186954 291.787338 
L 82.651078 291.591584 
L 83.115202 291.117935 
L 83.347264 290.774697 
L 83.579325 290.118075 
L 83.811387 290.396211 
L 84.043449 289.811511 
L 84.275511 288.863971 
L 84.507573 286.383293 
L 84.739635 292.390264 
L 84.971697 288.432923 
L 85.203759 290.193456 
L 85.43582 288.614932 
L 85.667882 289.006025 
L 85.899944 288.368954 
L 86.132006 288.730702 
L 86.364068 288.598262 
L 86.59613 289.464605 
L 86.828192 289.480888 
L 87.060253 288.711077 
L 87.292315 289.127626 
L 87.524377 290.328651 
L 87.756439 288.842503 
L 87.988501 291.34732 
L 88.452625 289.988033 
L 88.684686 290.188817 
L 88.916748 292.814233 
L 89.14881 291.613988 
L 89.380872 291.029768 
L 89.612934 291.329379 
L 89.844996 291.960657 
L 90.077058 291.99525 
L 90.541181 290.96955 
L 91.005305 291.596516 
L 91.237367 291.338678 
L 91.469429 291.955077 
L 91.701491 292.081206 
L 91.933553 291.882815 
L 92.165614 293.058943 
L 92.397676 288.662705 
L 93.093862 293.408366 
L 93.325924 293.847621 
L 93.557986 293.054834 
L 93.790047 291.275945 
L 94.022109 293.535999 
L 94.254171 293.64682 
L 94.486233 293.084984 
L 94.718295 293.704227 
L 94.950357 292.958407 
L 95.182419 293.189384 
L 95.41448 292.608115 
L 95.646542 292.742597 
L 95.878604 292.698014 
L 96.342728 290.835476 
L 96.57479 290.542489 
L 96.806852 290.056847 
L 97.038914 290.529798 
L 97.270975 290.366125 
L 97.503037 292.517628 
L 97.735099 290.980098 
L 97.967161 293.020298 
L 98.199223 292.676932 
L 98.431285 291.587268 
L 98.663347 293.634342 
L 98.895408 291.535598 
L 99.359532 291.400666 
L 99.591594 290.479581 
L 99.823656 291.13541 
L 100.055718 292.379229 
L 100.28778 290.709619 
L 100.519841 290.008714 
L 100.751903 290.09962 
L 100.983965 291.698903 
L 101.216027 291.855459 
L 101.448089 289.655041 
L 101.680151 292.262575 
L 101.912213 291.223485 
L 102.144274 288.491761 
L 102.608398 288.32434 
L 102.84046 291.160429 
L 103.072522 291.202335 
L 103.304584 290.252861 
L 103.536646 291.791971 
L 103.768708 289.744691 
L 104.000769 292.531267 
L 104.464893 292.688343 
L 104.696955 292.528214 
L 104.929017 292.758589 
L 105.161079 291.16625 
L 105.393141 293.466357 
L 105.625202 292.596088 
L 105.857264 292.369716 
L 106.089326 290.009997 
L 106.321388 293.559987 
L 106.785512 293.516283 
L 107.017574 292.118561 
L 107.249635 293.230937 
L 107.481697 293.215972 
L 107.713759 292.674356 
L 107.945821 292.497812 
L 108.642007 291.13322 
L 109.338192 290.134721 
L 109.570254 292.419216 
L 109.802316 287.827143 
L 110.034378 289.712381 
L 110.26644 289.15417 
L 110.498502 290.720394 
L 110.730563 287.763472 
L 110.962625 291.351111 
L 111.194687 288.834546 
L 111.426749 289.909306 
L 111.658811 291.992705 
L 111.890873 290.993331 
L 112.354996 292.093451 
L 112.587058 292.106508 
L 112.81912 291.856771 
L 113.515306 292.545027 
L 113.747368 292.550214 
L 113.979429 292.723445 
L 114.211491 291.92302 
L 114.443553 292.667807 
L 114.675615 292.757991 
L 114.907677 291.591721 
L 115.139739 292.69984 
L 115.603862 290.849756 
L 115.835924 292.514789 
L 116.300048 290.417746 
L 116.53211 291.072025 
L 116.764172 289.260291 
L 116.996234 292.115489 
L 117.228296 292.437804 
L 117.460357 289.740585 
L 117.692419 293.850037 
L 117.924481 292.372787 
L 118.156543 289.992021 
L 118.620667 292.489857 
L 118.852729 292.219686 
L 119.08479 291.621124 
L 119.316852 291.70171 
L 119.548914 291.196125 
L 119.780976 290.317761 
L 120.2451 289.53527 
L 120.477162 289.800696 
L 120.709223 287.928011 
L 120.941285 287.321004 
L 121.173347 287.140697 
L 121.637471 289.125046 
L 122.101595 290.04525 
L 122.333657 290.340572 
L 122.565718 290.141632 
L 122.79778 290.683026 
L 124.422213 290.766292 
L 124.886337 290.525583 
L 125.582523 289.868245 
L 126.51077 288.614124 
L 127.439017 287.393075 
L 127.903141 287.047978 
L 128.367265 286.912579 
L 128.599327 288.17654 
L 128.831389 286.964411 
L 129.295512 287.372756 
L 129.759636 287.661261 
L 129.991698 288.586242 
L 130.22376 288.33985 
L 130.455822 288.995572 
L 131.848193 289.576347 
L 132.080255 287.799737 
L 132.312317 288.072309 
L 132.544378 290.871051 
L 133.008502 289.630193 
L 133.240564 290.373239 
L 133.472626 289.834442 
L 133.704688 290.365286 
L 133.93675 289.029593 
L 134.168811 289.837265 
L 134.400873 288.375814 
L 134.632935 289.639689 
L 134.864997 290.266075 
L 135.097059 288.711381 
L 135.329121 289.014795 
L 135.561183 288.001176 
L 135.793245 288.023114 
L 136.025306 290.691289 
L 136.257368 291.201209 
L 136.48943 290.817826 
L 136.721492 291.816226 
L 136.953554 290.468922 
L 137.185616 290.033108 
L 137.417678 290.195346 
L 137.649739 289.85026 
L 137.881801 289.036705 
L 138.113863 289.660133 
L 138.345925 289.218125 
L 138.577987 285.099223 
L 138.810049 286.812715 
L 139.042111 289.66167 
L 139.274172 288.007551 
L 139.506234 289.284418 
L 139.738296 288.2785 
L 139.970358 288.182982 
L 140.20242 288.770944 
L 140.434482 288.427094 
L 140.666544 286.8406 
L 141.130667 288.005217 
L 141.362729 287.252364 
L 141.594791 289.74191 
L 141.826853 289.814412 
L 142.058915 290.1777 
L 142.290977 288.728491 
L 142.523039 289.772825 
L 142.7551 287.953151 
L 142.987162 289.789154 
L 143.219224 289.842946 
L 143.451286 289.752205 
L 143.683348 288.74585 
L 143.91541 290.969454 
L 144.147472 289.13162 
L 144.379533 290.288282 
L 144.611595 288.526098 
L 144.843657 290.511855 
L 145.075719 290.6886 
L 145.307781 289.144914 
L 145.539843 289.640337 
L 146.003966 288.857623 
L 146.236028 289.284619 
L 146.46809 289.988084 
L 146.700152 289.790736 
L 146.932214 290.024371 
L 147.396338 289.507518 
L 147.6284 288.778919 
L 147.860461 289.639593 
L 148.324585 289.611743 
L 148.556647 289.986101 
L 148.788709 288.283845 
L 149.252833 290.049616 
L 149.716956 287.321858 
L 149.949018 291.713739 
L 150.18108 285.614809 
L 150.413142 287.007632 
L 150.645204 286.149164 
L 150.877266 287.206267 
L 151.109327 287.687562 
L 151.341389 285.572374 
L 151.805513 285.232419 
L 152.037575 284.948311 
L 152.269637 284.896104 
L 152.501699 284.632276 
L 152.73376 284.587836 
L 153.197884 284.286177 
L 153.429946 284.24481 
L 153.662008 284.805823 
L 153.89407 285.778334 
L 154.358194 286.057155 
L 154.590255 287.350135 
L 155.286441 287.854362 
L 155.518503 288.27527 
L 156.678812 288.7456 
L 156.910874 289.19108 
L 157.142936 289.312851 
L 157.374998 289.611925 
L 158.535307 288.880297 
L 158.767369 288.76347 
L 158.999431 289.215072 
L 159.231493 289.38145 
L 159.463554 289.201095 
L 159.695616 290.16119 
L 159.927678 288.775062 
L 160.15974 288.224397 
L 160.391802 288.041511 
L 160.623864 288.403145 
L 160.855926 286.762442 
L 161.087988 286.845378 
L 161.320049 288.733188 
L 161.784173 287.533122 
L 162.016235 287.533775 
L 162.248297 287.111215 
L 162.480359 287.736393 
L 162.712421 287.290377 
L 162.944482 287.08678 
L 163.176544 291.092346 
L 163.408606 287.933435 
L 163.87273 287.860308 
L 164.104792 288.443833 
L 164.336854 287.05663 
L 164.568915 286.591905 
L 164.800977 287.625346 
L 165.033039 287.376763 
L 165.497163 288.095989 
L 165.729225 287.083312 
L 166.193348 288.498623 
L 166.42541 289.250603 
L 166.889534 286.791983 
L 167.121596 286.601499 
L 167.353658 288.379641 
L 167.58572 288.699638 
L 167.817782 288.279385 
L 168.281905 288.896292 
L 168.513967 290.283421 
L 168.746029 288.779231 
L 168.978091 289.218473 
L 169.210153 289.309088 
L 169.442215 288.524573 
L 169.674276 288.953547 
L 169.906338 287.94124 
L 170.1384 288.756044 
L 170.370462 286.161362 
L 170.602524 285.33777 
L 170.834586 286.192625 
L 171.066648 288.652609 
L 171.298709 287.702059 
L 171.530771 285.911635 
L 171.994895 291.936075 
L 172.226957 284.920522 
L 172.459019 287.573066 
L 172.691081 287.578924 
L 172.923143 285.368982 
L 173.155204 285.979098 
L 173.387266 288.634251 
L 173.85139 288.28982 
L 174.083452 287.969353 
L 174.315514 288.003676 
L 175.243761 287.252716 
L 175.707885 286.527166 
L 175.939947 287.673229 
L 176.172009 289.528697 
L 176.40407 289.379861 
L 176.636132 284.736547 
L 176.868194 290.155303 
L 177.100256 287.336542 
L 177.332318 286.330885 
L 177.56438 286.49994 
L 177.796442 288.766241 
L 178.028503 287.539281 
L 178.724689 288.272993 
L 178.956751 288.093281 
L 179.188813 288.217616 
L 179.652937 287.54426 
L 179.884998 287.656193 
L 180.11706 287.025688 
L 180.349122 288.702411 
L 180.581184 287.029695 
L 180.813246 287.670977 
L 181.27737 285.973219 
L 181.509431 287.457233 
L 181.741493 286.915124 
L 181.973555 287.619777 
L 182.437679 287.24267 
L 182.669741 286.330705 
L 182.901803 287.53268 
L 183.133864 286.331911 
L 183.83005 288.560867 
L 184.062112 286.564025 
L 184.294174 286.542405 
L 184.526236 288.179007 
L 184.758297 286.792739 
L 184.990359 287.108472 
L 185.222421 286.6933 
L 185.454483 287.387532 
L 185.686545 287.150803 
L 185.918607 287.147766 
L 186.150669 287.453077 
L 186.382731 287.486188 
L 186.614792 288.352525 
L 186.846854 286.829219 
L 187.078916 287.622951 
L 187.310978 286.17138 
L 187.54304 287.707347 
L 187.775102 288.196021 
L 188.007164 293.108394 
L 188.239225 287.907688 
L 188.703349 285.62296 
L 188.935411 286.431419 
L 189.167473 288.260431 
L 189.631597 289.534784 
L 189.863658 288.740468 
L 190.09572 289.219434 
L 190.327782 286.589708 
L 190.559844 289.940795 
L 190.791906 287.363793 
L 191.023968 286.971023 
L 191.25603 285.769023 
L 191.488091 288.435156 
L 191.720153 289.057911 
L 191.952215 287.526241 
L 192.184277 288.484662 
L 192.416339 288.64031 
L 192.648401 288.368356 
L 193.112525 290.63528 
L 193.344586 289.178406 
L 193.576648 289.294164 
L 193.80871 288.759569 
L 194.040772 289.02696 
L 194.272834 286.922221 
L 194.504896 289.941396 
L 194.736958 288.521888 
L 194.969019 288.952156 
L 195.201081 288.336129 
L 195.433143 288.049751 
L 195.665205 286.59228 
L 195.897267 289.493677 
L 196.129329 288.977338 
L 196.361391 286.731294 
L 196.825514 287.811177 
L 197.057576 286.703237 
L 197.289638 288.265603 
L 197.5217 287.160159 
L 197.753762 288.287524 
L 197.985824 288.372336 
L 198.217886 287.751358 
L 198.682009 289.514682 
L 198.914071 289.369577 
L 199.146133 289.487339 
L 199.378195 281.241156 
L 199.610257 288.977546 
L 199.842319 289.320097 
L 200.306442 289.161337 
L 200.538504 288.24522 
L 200.770566 289.02711 
L 201.002628 288.624725 
L 201.23469 289.0934 
L 201.466752 290.218859 
L 201.698813 287.926043 
L 201.930875 289.292667 
L 202.394999 288.038508 
L 202.627061 284.294949 
L 202.859123 288.029708 
L 203.091185 288.302885 
L 203.323246 288.305955 
L 203.555308 289.00072 
L 203.78737 287.951148 
L 204.019432 287.988603 
L 204.251494 289.014735 
L 204.483556 288.128555 
L 204.715618 288.770804 
L 205.179741 286.364713 
L 205.411803 288.059547 
L 205.643865 287.773445 
L 205.875927 285.651293 
L 206.107989 285.703259 
L 206.340051 284.362478 
L 206.572113 286.834579 
L 206.804174 286.014273 
L 207.036236 287.181375 
L 207.268298 287.660883 
L 207.50036 285.45544 
L 207.732422 288.327198 
L 207.964484 287.977532 
L 208.196546 288.281176 
L 208.428607 287.917678 
L 208.660669 287.001599 
L 208.892731 286.607512 
L 209.124793 287.984074 
L 209.356855 285.734075 
L 209.588917 288.673316 
L 209.820979 286.866863 
L 210.05304 287.673396 
L 210.517164 285.308594 
L 210.981288 289.430552 
L 211.21335 288.845334 
L 211.445412 289.00176 
L 211.677474 288.15052 
L 211.909535 288.193154 
L 212.141597 289.792001 
L 212.605721 288.398216 
L 212.837783 289.08975 
L 213.069845 286.742826 
L 213.301907 288.261833 
L 213.533968 288.676302 
L 214.230154 289.01362 
L 214.462216 287.199494 
L 214.694278 289.861653 
L 214.92634 288.316174 
L 215.158401 287.961771 
L 215.390463 286.950054 
L 215.622525 284.931831 
L 215.854587 288.102988 
L 216.086649 287.330762 
L 216.318711 284.118222 
L 216.550773 287.344221 
L 216.782834 285.173211 
L 217.014896 285.730105 
L 217.246958 286.851277 
L 217.47902 287.180031 
L 217.711082 288.824388 
L 218.175206 284.119653 
L 218.407268 288.54516 
L 218.639329 286.2043 
L 218.871391 286.494315 
L 219.103453 288.1346 
L 219.335515 285.996423 
L 219.567577 286.374035 
L 219.799639 287.373305 
L 220.031701 287.093968 
L 220.263762 286.436844 
L 220.495824 289.353055 
L 220.727886 285.506277 
L 220.959948 286.667494 
L 221.19201 287.036692 
L 221.424072 286.526451 
L 221.656134 285.042241 
L 221.888195 287.597537 
L 222.120257 286.300621 
L 222.352319 287.158823 
L 222.584381 286.232132 
L 222.816443 286.967531 
L 223.048505 285.747966 
L 223.280567 286.972926 
L 223.512629 287.052486 
L 223.74469 288.464232 
L 223.976752 289.151969 
L 224.208814 286.662933 
L 224.440876 288.097818 
L 224.672938 288.573113 
L 224.905 288.536019 
L 225.137062 285.959557 
L 225.369123 288.487729 
L 225.601185 289.585307 
L 225.833247 289.767984 
L 226.065309 289.556301 
L 226.297371 287.284309 
L 226.529433 287.492706 
L 226.761495 287.405213 
L 226.993556 286.795909 
L 227.225618 289.393406 
L 227.689742 285.489391 
L 227.921804 287.606927 
L 228.153866 285.536843 
L 228.385928 289.400731 
L 228.617989 288.590767 
L 228.850051 288.374665 
L 229.082113 289.929475 
L 229.314175 288.08123 
L 229.546237 290.916789 
L 229.778299 287.731417 
L 230.010361 288.864838 
L 230.242423 288.751027 
L 230.474484 287.900742 
L 230.938608 288.873359 
L 231.17067 289.036709 
L 231.402732 287.265919 
L 231.634794 289.072239 
L 231.866856 287.231397 
L 232.098917 288.569301 
L 232.563041 285.257919 
L 232.795103 285.201772 
L 233.259227 282.444889 
L 233.72335 284.172859 
L 233.955412 284.458315 
L 234.187474 284.23992 
L 234.419536 288.393297 
L 234.651598 288.233484 
L 234.88366 289.942928 
L 235.115722 287.702062 
L 235.347783 287.638249 
L 235.579845 288.962317 
L 235.811907 285.930852 
L 236.043969 287.043655 
L 236.276031 286.791701 
L 236.508093 286.965612 
L 236.740155 287.685584 
L 236.972217 285.56633 
L 237.204278 288.156993 
L 237.43634 288.786217 
L 237.668402 287.945727 
L 238.132526 288.607216 
L 238.364588 290.327921 
L 238.59665 288.877925 
L 238.828711 289.8438 
L 239.060773 289.180597 
L 239.292835 289.553755 
L 239.756959 287.902961 
L 239.989021 289.130612 
L 240.221083 287.913091 
L 240.453144 287.868975 
L 240.685206 288.847126 
L 240.917268 288.703022 
L 241.14933 287.831608 
L 241.381392 288.038458 
L 241.845516 286.736289 
L 242.077577 286.969046 
L 242.309639 288.711111 
L 242.541701 288.700305 
L 242.773763 287.964696 
L 243.005825 289.197309 
L 243.237887 286.996148 
L 243.469949 289.8577 
L 243.702011 289.65909 
L 243.934072 288.341666 
L 244.166134 288.60165 
L 244.398196 287.303 
L 244.630258 288.352869 
L 244.86232 287.992366 
L 245.326444 288.527934 
L 245.558505 288.111469 
L 245.790567 289.697249 
L 246.022629 288.473843 
L 246.254691 288.392909 
L 246.486753 287.050512 
L 246.718815 286.897017 
L 246.950877 286.047303 
L 247.182938 288.355211 
L 247.415 288.021699 
L 247.647062 287.399306 
L 247.879124 287.93601 
L 248.111186 288.092696 
L 248.343248 287.833936 
L 248.57531 289.328734 
L 248.807371 288.458184 
L 249.039433 289.088589 
L 249.271495 287.041065 
L 249.503557 286.657691 
L 249.735619 287.040852 
L 249.967681 286.789659 
L 250.199743 286.758852 
L 250.431805 288.196617 
L 250.663866 286.328042 
L 250.895928 288.429797 
L 251.360052 286.458011 
L 251.592114 286.363059 
L 251.824176 286.788051 
L 252.056238 285.155384 
L 252.288299 286.907554 
L 252.520361 285.882584 
L 252.752423 285.554568 
L 252.984485 285.499337 
L 253.216547 286.398412 
L 253.448609 285.747405 
L 253.680671 285.620483 
L 253.912732 287.089772 
L 254.144794 286.957572 
L 254.376856 287.039523 
L 254.608918 286.344651 
L 254.84098 284.631483 
L 255.305104 286.66079 
L 255.769227 286.902381 
L 256.001289 287.132702 
L 256.233351 286.909357 
L 256.465413 286.493028 
L 256.697475 287.304201 
L 256.929537 285.780318 
L 257.161599 285.720514 
L 257.39366 285.882694 
L 257.625722 286.214968 
L 257.857784 286.257598 
L 258.321908 287.317691 
L 258.55397 287.490737 
L 258.786032 287.472709 
L 259.018093 286.629815 
L 259.250155 288.109393 
L 259.482217 285.152437 
L 259.946341 288.824759 
L 260.178403 288.668888 
L 260.410465 287.096239 
L 261.10665 285.799959 
L 261.338712 283.199632 
L 261.570774 286.875393 
L 261.802836 288.566855 
L 262.034898 285.847353 
L 262.26696 286.052839 
L 262.499021 283.624345 
L 262.731083 285.642741 
L 263.427269 284.614056 
L 263.891393 284.431355 
L 264.123454 284.395981 
L 264.355516 284.01561 
L 264.587578 284.246387 
L 264.81964 284.673503 
L 265.051702 284.617443 
L 265.283764 283.399802 
L 265.515826 285.907361 
L 265.747887 277.558526 
L 265.979949 284.324078 
L 266.444073 285.313951 
L 266.676135 285.263442 
L 266.908197 284.754838 
L 267.140259 285.096005 
L 267.37232 285.180072 
L 267.604382 285.042144 
L 267.836444 285.06052 
L 268.068506 284.350283 
L 268.300568 285.090822 
L 268.764692 285.051576 
L 268.996754 284.471517 
L 269.228815 283.199266 
L 269.460877 287.119372 
L 269.692939 286.767062 
L 270.389125 282.725999 
L 270.853248 285.653774 
L 271.08531 284.510165 
L 271.317372 285.236059 
L 271.549434 282.998631 
L 271.781496 283.630308 
L 272.013558 283.904327 
L 272.24562 280.587946 
L 272.477681 286.321857 
L 272.709743 283.334723 
L 272.941805 286.300804 
L 273.173867 284.395539 
L 273.405929 286.114562 
L 273.637991 285.797937 
L 273.870053 282.547512 
L 274.102114 284.777338 
L 274.334176 281.427261 
L 274.566238 281.7887 
L 274.7983 281.377403 
L 275.958609 280.624973 
L 276.190671 282.308921 
L 276.422733 284.843938 
L 276.654795 283.124506 
L 276.886857 283.296302 
L 277.118919 283.99239 
L 277.350981 282.770084 
L 277.583042 282.568902 
L 277.815104 280.526732 
L 278.279228 283.00921 
L 278.51129 281.368981 
L 278.743352 278.305274 
L 278.975414 282.247293 
L 279.207475 283.019775 
L 279.439537 281.781386 
L 279.671599 282.027132 
L 279.903661 282.518722 
L 280.135723 284.740649 
L 280.367785 282.613608 
L 280.599847 284.625667 
L 280.831909 282.701366 
L 281.06397 282.251377 
L 281.528094 281.894173 
L 281.760156 282.921805 
L 281.992218 282.756142 
L 282.22428 283.508424 
L 282.456342 281.267397 
L 282.688403 285.071131 
L 283.152527 282.805772 
L 283.616651 282.501072 
L 283.848713 281.613001 
L 284.080775 285.244968 
L 284.77696 280.127167 
L 285.009022 280.250482 
L 285.241084 281.97157 
L 285.473146 286.366458 
L 285.705208 284.749305 
L 285.937269 284.256139 
L 286.169331 282.718967 
L 286.401393 283.483097 
L 286.633455 285.357612 
L 286.865517 284.078971 
L 287.097579 281.83714 
L 287.329641 281.916589 
L 287.561703 284.726793 
L 288.025826 281.975458 
L 288.257888 282.74121 
L 288.48995 281.267951 
L 288.722012 284.330416 
L 288.954074 284.329111 
L 289.418197 281.474439 
L 289.650259 283.304029 
L 289.882321 284.128293 
L 290.114383 283.923736 
L 290.578507 285.380899 
L 290.810569 283.449941 
L 291.04263 284.476036 
L 291.506754 281.476935 
L 291.738816 283.047507 
L 291.970878 282.915319 
L 292.20294 284.771468 
L 292.435002 285.192216 
L 292.667063 284.325231 
L 293.131187 285.046418 
L 293.363249 284.610869 
L 293.827373 282.095602 
L 294.059435 282.915104 
L 294.291497 285.032751 
L 294.523558 284.073897 
L 294.75562 285.815519 
L 294.987682 285.912838 
L 295.219744 283.68918 
L 295.451806 283.374813 
L 295.683868 284.727293 
L 295.91593 284.202936 
L 296.380053 284.301246 
L 296.844177 283.780639 
L 297.076239 284.402123 
L 297.308301 284.432606 
L 297.540363 284.105073 
L 297.772424 283.302907 
L 298.004486 283.411622 
L 298.236548 285.715232 
L 298.46861 283.069094 
L 298.700672 284.422777 
L 298.932734 284.094585 
L 299.164796 283.551484 
L 299.396857 283.900599 
L 299.628919 286.79276 
L 300.093043 281.064273 
L 300.557167 285.35684 
L 300.789229 284.923024 
L 301.021291 281.372714 
L 301.485414 287.159244 
L 301.949538 285.36734 
L 302.1816 285.918084 
L 302.413662 285.460983 
L 302.645724 286.283256 
L 302.877785 283.270774 
L 303.109847 283.415805 
L 303.573971 284.639547 
L 303.806033 283.251441 
L 304.038095 286.134861 
L 304.502218 285.396662 
L 304.73428 285.347499 
L 304.966342 288.280041 
L 305.430466 285.554766 
L 305.662528 285.37624 
L 305.89459 283.200471 
L 306.126652 279.629121 
L 306.358713 285.882705 
L 306.590775 286.577723 
L 306.822837 283.903471 
L 307.054899 285.077752 
L 307.286961 283.64063 
L 307.519023 283.000335 
L 307.751085 282.912642 
L 307.983146 284.375112 
L 308.215208 283.018399 
L 308.44727 284.208141 
L 308.679332 282.956505 
L 308.911394 284.265647 
L 309.143456 282.039322 
L 309.375518 281.946649 
L 309.607579 282.551824 
L 309.839641 280.740302 
L 310.071703 280.293267 
L 310.303765 283.291941 
L 310.535827 284.586079 
L 310.767889 280.756659 
L 310.999951 283.253576 
L 311.232012 283.94148 
L 311.464074 281.615878 
L 311.696136 283.945807 
L 311.928198 281.847656 
L 312.16026 282.292146 
L 312.392322 284.088903 
L 312.624384 281.887671 
L 312.856446 285.649444 
L 313.088507 282.355982 
L 313.320569 284.96832 
L 313.784693 283.272045 
L 314.016755 284.742722 
L 314.248817 283.045682 
L 314.480879 283.425076 
L 314.71294 281.749462 
L 314.945002 282.707137 
L 315.177064 284.334306 
L 315.409126 282.050532 
L 315.641188 284.312416 
L 315.87325 284.324791 
L 316.337373 281.913612 
L 316.801497 282.791198 
L 317.033559 284.355437 
L 317.497683 280.380102 
L 318.193868 282.460965 
L 318.42593 284.771775 
L 318.657992 284.750888 
L 318.890054 282.30379 
L 319.122116 278.632326 
L 319.354178 286.136514 
L 319.58624 287.355581 
L 319.818301 284.241571 
L 320.282425 281.557069 
L 320.514487 285.161825 
L 320.746549 282.979563 
L 320.978611 284.728282 
L 321.210673 285.214322 
L 321.442734 282.00185 
L 321.674796 282.323107 
L 321.906858 285.282545 
L 322.13892 282.025398 
L 322.603044 283.385766 
L 322.835106 285.817254 
L 323.067167 282.403991 
L 323.299229 284.924023 
L 323.531291 283.914696 
L 323.763353 282.14419 
L 323.995415 285.288964 
L 324.227477 284.598603 
L 324.459539 285.00235 
L 324.6916 284.38941 
L 324.923662 284.148607 
L 325.155724 283.504486 
L 325.387786 286.249366 
L 325.619848 280.609736 
L 325.85191 284.494498 
L 326.083972 285.286607 
L 326.316034 283.583592 
L 326.548095 286.88616 
L 326.780157 282.665335 
L 327.012219 283.633813 
L 327.244281 283.76866 
L 327.476343 282.813857 
L 327.940467 284.278583 
L 328.172528 283.182165 
L 328.40459 284.74693 
L 328.636652 285.43833 
L 329.100776 282.382381 
L 329.332838 281.66735 
L 329.5649 283.274907 
L 329.796961 282.223628 
L 330.029023 283.146469 
L 330.261085 282.155731 
L 330.725209 282.396773 
L 330.957271 283.076583 
L 331.189333 283.298432 
L 331.421395 286.697215 
L 331.653456 283.286148 
L 331.885518 286.472966 
L 332.11758 282.643176 
L 332.349642 282.898084 
L 332.581704 282.328174 
L 332.813766 283.669843 
L 333.045828 286.310317 
L 333.277889 282.94476 
L 333.509951 281.480284 
L 333.742013 283.616785 
L 333.974075 281.740951 
L 334.670261 285.055055 
L 334.902322 282.573311 
L 335.134384 286.009404 
L 335.366446 285.739497 
L 335.598508 284.640205 
L 335.83057 284.990692 
L 336.062632 284.458778 
L 336.294694 286.398987 
L 336.526755 284.50774 
L 336.758817 284.742883 
L 337.222941 284.705587 
L 337.455003 286.005048 
L 337.687065 284.509548 
L 337.919127 287.633771 
L 338.151189 284.26776 
L 338.38325 283.903524 
L 338.615312 284.490881 
L 338.847374 285.447042 
L 339.079436 287.305843 
L 339.311498 283.147778 
L 339.54356 283.49357 
L 339.775622 287.720889 
L 340.007683 282.116461 
L 340.239745 283.161967 
L 340.471807 285.830999 
L 340.935931 281.431357 
L 341.167993 284.84035 
L 341.400055 282.264635 
L 341.632116 284.419428 
L 341.864178 282.175303 
L 342.328302 284.303497 
L 342.560364 283.114793 
L 342.792426 283.030974 
L 343.024488 283.435032 
L 343.256549 284.072742 
L 343.488611 283.941901 
L 343.720673 288.152434 
L 343.952735 280.573773 
L 344.184797 279.582621 
L 344.416859 279.944121 
L 344.648921 279.401852 
L 344.880983 282.063018 
L 345.113044 280.864783 
L 345.345106 283.573421 
L 345.577168 280.644473 
L 345.80923 280.437095 
L 346.041292 280.428729 
L 346.273354 278.80736 
L 346.505416 283.148265 
L 346.737477 279.392725 
L 346.969539 280.479722 
L 347.201601 282.741298 
L 347.433663 278.11516 
L 347.897787 278.710429 
L 348.129849 279.96525 
L 348.36191 282.173949 
L 348.593972 280.305064 
L 348.826034 281.576301 
L 349.058096 281.325001 
L 349.290158 280.745099 
L 349.52222 282.836881 
L 349.754282 282.377175 
L 349.986343 282.418081 
L 350.218405 282.626743 
L 350.450467 279.092481 
L 350.682529 284.82541 
L 350.914591 281.070313 
L 351.146653 285.682576 
L 351.610777 280.779314 
L 351.842838 271.97275 
L 352.0749 281.817459 
L 352.539024 280.792343 
L 353.003148 282.095847 
L 353.23521 281.407073 
L 353.467271 282.459908 
L 353.699333 282.116936 
L 353.931395 282.827581 
L 354.163457 280.152763 
L 354.395519 280.776175 
L 354.627581 282.327046 
L 354.859643 282.98693 
L 355.091704 280.637255 
L 355.323766 282.26912 
L 355.555828 282.1891 
L 355.78789 283.101539 
L 356.019952 281.073205 
L 356.252014 283.003679 
L 356.484076 281.044688 
L 356.716138 282.793911 
L 356.948199 281.578139 
L 357.180261 281.438817 
L 357.412323 280.913997 
L 357.644385 282.155093 
L 358.572632 283.146255 
L 359.268818 283.077079 
L 359.732942 278.541955 
L 359.965004 281.222841 
L 360.197065 280.512588 
L 360.429127 278.701564 
L 360.661189 279.128955 
L 360.893251 277.141874 
L 361.357375 279.030942 
L 361.589437 279.674774 
L 361.821498 281.456841 
L 362.05356 278.989355 
L 362.285622 281.912162 
L 362.517684 281.861777 
L 362.749746 280.665608 
L 362.981808 278.806628 
L 363.21387 280.903423 
L 363.445932 279.426037 
L 363.677993 279.564054 
L 363.910055 280.604539 
L 364.142117 280.327149 
L 364.374179 281.527971 
L 364.606241 284.435682 
L 364.838303 280.536001 
L 365.070365 285.245656 
L 365.302426 278.959679 
L 365.534488 283.839983 
L 365.76655 277.132959 
L 365.998612 282.596495 
L 366.230674 283.508762 
L 366.462736 281.330308 
L 366.694798 280.63432 
L 366.926859 282.789985 
L 367.158921 282.410248 
L 367.390983 282.393083 
L 367.623045 282.72259 
L 367.855107 283.267595 
L 368.087169 280.880443 
L 368.319231 280.469913 
L 368.551292 282.145381 
L 368.783354 282.846502 
L 369.015416 282.396066 
L 369.247478 282.8463 
L 369.711602 282.455489 
L 369.943664 282.998608 
L 370.175726 280.426045 
L 370.407787 281.90365 
L 370.639849 281.290733 
L 370.871911 279.627989 
L 371.103973 281.959053 
L 371.336035 282.941239 
L 371.568097 280.801005 
L 371.800159 282.395714 
L 372.03222 280.884646 
L 372.496344 283.81111 
L 372.960468 283.622791 
L 373.19253 284.272526 
L 373.424592 285.278461 
L 373.888715 282.657747 
L 374.120777 283.473703 
L 374.352839 282.154584 
L 374.584901 283.38888 
L 374.816963 283.312301 
L 375.049025 284.092291 
L 375.513148 281.948715 
L 375.74521 285.919714 
L 375.977272 282.887026 
L 376.209334 282.039711 
L 376.673458 286.508521 
L 376.90552 285.1569 
L 377.137581 285.441116 
L 377.369643 284.654323 
L 377.601705 284.263538 
L 377.833767 285.409116 
L 378.065829 282.523821 
L 378.297891 285.560452 
L 378.762014 285.556584 
L 379.4582 284.978807 
L 379.922324 283.047643 
L 380.154386 286.722481 
L 380.618509 282.428816 
L 380.850571 286.360897 
L 381.314695 282.272435 
L 381.546757 285.494827 
L 381.778819 281.670897 
L 382.475004 283.250812 
L 382.707066 282.611353 
L 382.939128 282.813168 
L 383.17119 288.776938 
L 383.403252 281.888462 
L 383.867375 278.935288 
L 384.099437 281.757122 
L 384.331499 281.513522 
L 384.563561 282.590181 
L 385.027685 281.408465 
L 385.259747 281.966257 
L 385.491808 282.093888 
L 385.955932 281.338628 
L 386.420056 282.023775 
L 386.652118 279.614341 
L 386.88418 280.887823 
L 387.116241 278.471934 
L 387.348303 277.678118 
L 387.580365 278.731936 
L 387.812427 278.349909 
L 388.044489 279.382425 
L 388.276551 278.64821 
L 388.508613 281.215706 
L 388.740675 279.602988 
L 388.972736 280.038534 
L 389.204798 279.160108 
L 389.43686 279.407156 
L 389.668922 276.865259 
L 389.900984 279.059074 
L 390.133046 279.261919 
L 390.365108 276.812014 
L 390.597169 279.235452 
L 390.829231 278.815616 
L 391.061293 279.12317 
L 391.293355 277.257143 
L 391.525417 279.30736 
L 391.757479 279.541295 
L 391.989541 279.423088 
L 392.221602 278.757757 
L 392.685726 280.738462 
L 392.917788 279.064076 
L 393.14985 279.437856 
L 393.381912 283.145731 
L 393.613974 281.377842 
L 393.846035 281.257128 
L 394.078097 280.934651 
L 394.310159 281.633459 
L 394.542221 281.411928 
L 394.774283 281.522044 
L 395.006345 285.482643 
L 395.470469 276.648017 
L 395.934592 281.11699 
L 396.166654 281.524553 
L 396.398716 280.774971 
L 396.630778 279.405325 
L 396.86284 280.611683 
L 397.094902 280.848763 
L 397.326963 280.059353 
L 397.791087 280.101269 
L 398.023149 280.687262 
L 398.255211 281.726078 
L 398.487273 287.848041 
L 398.487273 287.848041 
" style="fill:none;stroke:#1f77b4;stroke-linecap:square;stroke-width:1.5;"/>
   </g>
   <g id="line2d_18">
    <path clip-path="url(#p87b8508848)" d="M 73.832727 109.516851 
L 74.064789 193.711149 
L 74.296851 203.200961 
L 74.528913 224.666994 
L 74.760975 218.776806 
L 75.45716 176.814912 
L 75.689222 180.925386 
L 75.921284 174.106214 
L 76.153346 174.081552 
L 76.385408 151.03323 
L 76.61747 150.329053 
L 76.849531 158.596441 
L 77.081593 171.572325 
L 77.545717 142.780397 
L 77.777779 141.644842 
L 78.473965 184.173842 
L 78.706026 173.15599 
L 78.938088 174.86915 
L 79.17015 143.162813 
L 79.402212 162.13963 
L 80.098398 174.045907 
L 80.330459 145.890557 
L 80.562521 188.67286 
L 80.794583 185.182163 
L 81.026645 179.570278 
L 81.258707 167.219817 
L 81.490769 165.143331 
L 81.722831 166.24138 
L 81.954892 174.887857 
L 82.651078 133.031316 
L 82.88314 139.053376 
L 83.115202 149.153782 
L 83.347264 142.867251 
L 83.579325 142.276575 
L 84.043449 141.999763 
L 84.275511 147.652059 
L 84.507573 147.195971 
L 84.739635 147.787902 
L 84.971697 147.885753 
L 85.43582 138.521318 
L 85.667882 142.317371 
L 85.899944 140.081591 
L 86.132006 150.568877 
L 86.364068 146.081279 
L 87.060253 179.939139 
L 87.292315 197.76452 
L 87.524377 195.733877 
L 88.220563 150.777363 
L 88.916748 137.08851 
L 89.14881 170.418475 
L 89.380872 146.541689 
L 89.612934 164.524739 
L 89.844996 134.899719 
L 90.077058 200.43098 
L 90.30912 158.125001 
L 90.541181 143.835796 
L 90.773243 141.417437 
L 91.005305 168.111839 
L 91.237367 144.950493 
L 91.469429 142.660418 
L 91.701491 143.302212 
L 91.933553 142.980708 
L 92.165614 155.862435 
L 92.397676 144.169298 
L 92.629738 142.009953 
L 92.8618 144.470944 
L 93.093862 144.186239 
L 93.790047 142.402765 
L 95.41448 137.037082 
L 95.646542 142.201953 
L 95.878604 141.91728 
L 96.110666 141.185641 
L 96.342728 144.833152 
L 97.038914 143.665127 
L 97.270975 143.573395 
L 97.503037 167.683709 
L 97.735099 138.911265 
L 97.967161 141.892157 
L 98.199223 142.192307 
L 98.663347 143.316759 
L 98.895408 143.802921 
L 99.12747 167.623875 
L 99.359532 148.68136 
L 99.591594 168.942214 
L 99.823656 175.183647 
L 100.055718 177.847423 
L 100.28778 155.167269 
L 100.519841 152.039642 
L 100.751903 152.167541 
L 100.983965 153.02325 
L 101.216027 152.874337 
L 101.448089 176.102303 
L 101.680151 158.354022 
L 101.912213 156.201433 
L 102.144274 156.108609 
L 102.376336 156.459164 
L 102.608398 192.594092 
L 102.84046 170.764726 
L 103.072522 161.188916 
L 103.304584 157.675331 
L 103.536646 196.785661 
L 103.768708 207.890987 
L 104.000769 176.015907 
L 104.232831 203.14821 
L 104.464893 172.145146 
L 104.696955 200.56845 
L 104.929017 204.30338 
L 105.161079 170.38067 
L 105.393141 196.234853 
L 105.625202 165.073357 
L 105.857264 188.566765 
L 106.089326 160.415961 
L 106.321388 181.853439 
L 106.785512 190.073467 
L 107.017574 191.819322 
L 107.249635 192.06755 
L 107.481697 190.757016 
L 107.713759 188.453806 
L 108.177883 174.129366 
L 108.409945 172.891956 
L 108.642007 163.710762 
L 109.10613 167.07674 
L 109.338192 166.168648 
L 109.570254 166.047678 
L 109.802316 164.318647 
L 110.034378 165.949684 
L 110.498502 175.723419 
L 110.730563 150.282146 
L 110.962625 160.422375 
L 111.426749 193.870716 
L 111.890873 217.895431 
L 112.122935 169.493251 
L 112.354996 156.524927 
L 112.587058 184.818547 
L 113.515306 113.0718 
L 113.747368 102.559194 
L 113.979429 97.560076 
L 114.211491 110.120207 
L 114.443553 102.9265 
L 114.675615 100.86789 
L 114.907677 114.54761 
L 115.139739 106.600758 
L 115.371801 106.673146 
L 115.835924 100.690985 
L 116.067986 98.894104 
L 116.53211 105.947209 
L 116.764172 107.045072 
L 116.996234 121.958463 
L 117.228296 126.58216 
L 117.460357 137.001458 
L 117.692419 134.56989 
L 117.924481 134.911867 
L 118.388605 165.003719 
L 118.620667 165.837354 
L 118.852729 138.490052 
L 119.548914 107.023077 
L 119.780976 105.302706 
L 120.013038 99.92347 
L 120.709223 72.807578 
L 120.941285 85.842853 
L 121.173347 81.897298 
L 121.405409 73.081239 
L 121.637471 88.089058 
L 121.869533 77.20346 
L 122.101595 96.310617 
L 122.333657 96.574062 
L 122.79778 102.733599 
L 123.029842 111.553441 
L 123.261904 109.972862 
L 123.493966 109.987535 
L 123.726028 109.204047 
L 123.95809 113.032422 
L 124.190151 112.757343 
L 124.886337 121.496643 
L 125.350461 123.790144 
L 125.582523 108.465057 
L 126.046646 113.76945 
L 126.278708 114.808342 
L 126.51077 104.034031 
L 126.742832 101.259354 
L 126.974894 93.481677 
L 127.206956 90.905018 
L 127.671079 59.312201 
L 127.903141 53.568 
L 128.135203 60.006729 
L 128.367265 63.310528 
L 128.599327 58.5072 
L 128.831389 72.067129 
L 129.063451 56.912413 
L 129.295512 70.272731 
L 129.527574 59.205471 
L 129.759636 73.076952 
L 130.22376 68.538767 
L 130.455822 103.94985 
L 130.687884 111.377639 
L 130.919945 112.476506 
L 131.152007 112.67793 
L 131.384069 110.904608 
L 131.616131 110.862725 
L 131.848193 111.316725 
L 132.080255 111.42283 
L 132.312317 109.276297 
L 132.77644 108.781314 
L 133.008502 94.956881 
L 133.240564 135.346189 
L 133.472626 127.364385 
L 133.704688 103.524287 
L 133.93675 111.136029 
L 134.168811 113.909002 
L 134.400873 120.787912 
L 134.632935 121.268109 
L 134.864997 122.087616 
L 135.097059 127.769172 
L 135.329121 127.963814 
L 135.561183 126.356145 
L 135.793245 102.24026 
L 136.025306 92.469365 
L 136.48943 126.806855 
L 136.721492 129.969025 
L 136.953554 103.94071 
L 137.185616 94.695997 
L 137.417678 107.86519 
L 137.649739 96.744659 
L 137.881801 104.752752 
L 138.345925 157.396728 
L 138.577987 171.605894 
L 138.810049 177.445939 
L 139.042111 165.170934 
L 139.274172 130.510087 
L 139.506234 136.255184 
L 139.970358 140.394374 
L 140.20242 155.720924 
L 140.434482 150.295769 
L 140.666544 149.281235 
L 140.898605 147.704673 
L 141.362729 175.102054 
L 141.826853 154.229485 
L 142.058915 151.129125 
L 142.290977 139.853941 
L 142.523039 159.986925 
L 142.7551 163.946115 
L 142.987162 163.505095 
L 143.219224 151.404262 
L 143.451286 164.850775 
L 143.683348 155.749455 
L 143.91541 168.762632 
L 144.147472 173.303679 
L 144.611595 210.23634 
L 144.843657 187.438235 
L 145.075719 205.130033 
L 145.307781 206.908187 
L 145.539843 218.544692 
L 146.003966 198.571869 
L 146.236028 208.052798 
L 146.46809 166.794894 
L 146.700152 175.966574 
L 146.932214 211.630929 
L 147.164276 212.372489 
L 147.396338 227.936525 
L 147.6284 232.167034 
L 147.860461 230.692991 
L 148.092523 219.46267 
L 148.556647 225.819175 
L 148.788709 213.167582 
L 149.020771 224.795944 
L 149.716956 203.627012 
L 149.949018 210.381294 
L 150.18108 223.247563 
L 150.413142 227.969015 
L 150.645204 230.256238 
L 150.877266 214.858165 
L 151.109327 231.744954 
L 151.341389 211.706001 
L 151.573451 206.071136 
L 151.805513 224.583113 
L 152.037575 216.544545 
L 152.269637 233.963045 
L 152.501699 232.470224 
L 152.73376 206.042112 
L 152.965822 203.340442 
L 153.197884 229.402055 
L 153.429946 234.224281 
L 153.662008 234.901122 
L 154.126132 224.777443 
L 154.358194 233.453865 
L 154.590255 229.688884 
L 154.822317 223.300874 
L 155.054379 220.370311 
L 155.286441 192.84228 
L 155.518503 192.840604 
L 155.750565 220.43565 
L 155.982627 228.554189 
L 156.214688 228.358435 
L 156.44675 232.488555 
L 156.678812 230.645464 
L 156.910874 208.937989 
L 157.142936 218.315078 
L 157.374998 199.571263 
L 157.60706 194.704214 
L 157.839121 204.567055 
L 158.071183 202.434309 
L 158.303245 194.573828 
L 158.535307 212.756598 
L 158.999431 185.873789 
L 159.231493 214.865915 
L 159.463554 225.340183 
L 159.695616 224.222022 
L 159.927678 229.912604 
L 160.15974 228.824954 
L 160.391802 221.901912 
L 160.623864 211.409857 
L 160.855926 217.51427 
L 161.087988 217.459257 
L 161.320049 187.991474 
L 161.552111 213.680318 
L 161.784173 209.784356 
L 162.016235 198.514189 
L 162.248297 213.165557 
L 162.480359 218.807296 
L 162.712421 201.653812 
L 162.944482 211.844517 
L 163.176544 204.489787 
L 163.408606 203.337293 
L 163.87273 212.271895 
L 164.800977 226.472481 
L 165.729225 186.509314 
L 166.193348 179.915731 
L 166.42541 212.733059 
L 166.657472 213.445601 
L 167.121596 235.320309 
L 167.353658 232.942526 
L 168.049843 195.659335 
L 168.746029 228.170057 
L 168.978091 220.447567 
L 169.210153 219.673084 
L 169.674276 207.441067 
L 169.906338 207.182099 
L 170.370462 198.779481 
L 170.834586 185.097302 
L 171.066648 184.501674 
L 171.298709 185.263004 
L 171.762833 222.789198 
L 171.994895 227.406575 
L 172.226957 215.696724 
L 172.459019 214.141194 
L 172.923143 119.494284 
L 173.155204 79.167266 
L 173.619328 109.763153 
L 173.85139 86.846402 
L 174.083452 125.96865 
L 174.547576 155.800221 
L 174.779637 150.240108 
L 175.011699 180.991247 
L 175.243761 196.821983 
L 175.475823 172.532217 
L 175.707885 190.489622 
L 175.939947 198.712567 
L 176.172009 186.591623 
L 176.40407 151.953761 
L 176.636132 180.114098 
L 177.100256 172.712394 
L 177.332318 166.835021 
L 177.56438 172.821576 
L 177.796442 194.046856 
L 178.492627 215.104511 
L 178.724689 181.361133 
L 179.188813 154.086868 
L 179.420875 101.035241 
L 179.652937 100.760922 
L 179.884998 119.115737 
L 180.11706 117.861867 
L 180.349122 113.850707 
L 180.581184 104.843617 
L 180.813246 101.738505 
L 181.045308 93.98287 
L 181.27737 97.188335 
L 181.509431 95.464613 
L 181.741493 103.243345 
L 182.437679 164.181016 
L 182.669741 171.92964 
L 183.133864 193.663331 
L 183.365926 190.472566 
L 183.597988 162.202213 
L 183.83005 161.733982 
L 184.062112 155.773586 
L 184.294174 174.630233 
L 184.526236 156.544842 
L 184.990359 160.931569 
L 185.222421 155.895631 
L 185.454483 167.357193 
L 185.686545 151.190324 
L 186.150669 207.211412 
L 186.382731 206.292953 
L 186.614792 212.597369 
L 187.078916 164.817137 
L 187.310978 123.511936 
L 187.54304 140.42939 
L 187.775102 166.897666 
L 188.007164 143.333399 
L 188.239225 131.461272 
L 188.471287 170.112213 
L 188.935411 133.328098 
L 189.167473 126.878832 
L 189.399535 168.840188 
L 189.631597 157.983361 
L 190.09572 154.028091 
L 190.327782 153.23148 
L 190.559844 153.11947 
L 191.023968 152.473544 
L 192.184277 150.275557 
L 192.416339 127.977425 
L 192.648401 147.932279 
L 192.880463 148.306628 
L 193.112525 148.390244 
L 193.344586 152.065865 
L 193.576648 149.771993 
L 193.80871 152.486153 
L 194.040772 149.920078 
L 194.272834 152.540164 
L 194.504896 153.487459 
L 194.736958 127.935116 
L 194.969019 147.772349 
L 195.201081 152.362205 
L 195.433143 126.946742 
L 195.665205 146.946345 
L 195.897267 130.642206 
L 196.593452 157.637275 
L 196.825514 155.832909 
L 197.057576 149.530222 
L 197.289638 152.710808 
L 197.5217 126.394942 
L 197.753762 155.928286 
L 197.985824 149.513643 
L 198.217886 150.346136 
L 198.682009 150.862234 
L 198.914071 150.078395 
L 199.378195 151.392717 
L 199.610257 150.590732 
L 199.842319 151.358328 
L 200.07438 150.395535 
L 200.306442 151.589672 
L 200.538504 152.003363 
L 200.770566 148.649035 
L 201.002628 152.771124 
L 201.23469 148.40452 
L 201.466752 149.578869 
L 201.930875 149.175542 
L 202.162937 155.593709 
L 202.627061 157.076154 
L 202.859123 156.08525 
L 203.091185 156.285451 
L 203.555308 155.711616 
L 204.019432 155.918669 
L 204.483556 156.370735 
L 204.715618 156.238558 
L 204.94768 156.842593 
L 205.179741 153.585698 
L 205.411803 152.037109 
L 205.643865 153.143044 
L 205.875927 149.419223 
L 206.107989 151.663651 
L 206.572113 147.700224 
L 206.804174 147.767656 
L 207.036236 152.010004 
L 207.268298 154.054732 
L 207.50036 153.755201 
L 207.732422 151.396793 
L 207.964484 145.721304 
L 208.196546 131.411474 
L 208.428607 148.54677 
L 208.660669 151.920632 
L 208.892731 144.933022 
L 209.124793 152.139943 
L 209.356855 125.515078 
L 209.588917 150.600406 
L 209.820979 149.861188 
L 210.05304 149.692213 
L 210.285102 128.984752 
L 210.517164 160.218398 
L 210.749226 154.357334 
L 210.981288 153.583869 
L 211.21335 150.635044 
L 211.445412 157.281409 
L 211.677474 157.96505 
L 211.909535 164.104322 
L 212.141597 148.984492 
L 212.373659 158.069036 
L 212.605721 154.335321 
L 212.837783 152.790258 
L 213.069845 154.556236 
L 213.301907 158.54961 
L 213.533968 159.234789 
L 213.76603 157.290167 
L 213.998092 157.344185 
L 214.230154 158.508225 
L 214.462216 156.920785 
L 214.694278 164.488644 
L 214.92634 164.968216 
L 215.622525 183.541026 
L 215.854587 167.18352 
L 216.086649 162.337141 
L 216.318711 160.184768 
L 216.782834 205.885593 
L 217.014896 222.641934 
L 217.246958 186.649334 
L 217.47902 183.383362 
L 217.711082 205.400189 
L 217.943144 196.238373 
L 218.175206 196.431206 
L 218.407268 140.476769 
L 218.639329 139.804882 
L 219.335515 123.796241 
L 219.567577 114.667295 
L 219.799639 110.726933 
L 220.031701 130.809605 
L 220.263762 133.105468 
L 220.727886 135.015269 
L 220.959948 136.561125 
L 221.656134 138.427769 
L 221.888195 138.399512 
L 222.120257 124.844181 
L 222.352319 124.642665 
L 222.816443 127.481542 
L 223.280567 130.511795 
L 223.74469 154.960678 
L 223.976752 157.665395 
L 224.208814 158.519374 
L 224.440876 158.325207 
L 224.672938 157.037159 
L 224.905 157.147341 
L 225.137062 156.583132 
L 225.369123 152.305602 
L 225.601185 172.434351 
L 225.833247 156.607495 
L 226.297371 162.58087 
L 226.529433 169.418721 
L 226.761495 170.092626 
L 226.993556 171.398176 
L 227.225618 170.26282 
L 227.45768 166.478773 
L 227.921804 133.63901 
L 228.153866 133.835736 
L 228.385928 155.250785 
L 228.617989 134.87709 
L 228.850051 161.542862 
L 229.082113 108.462545 
L 229.314175 154.308264 
L 229.546237 130.790699 
L 229.778299 134.9306 
L 230.010361 151.532129 
L 230.242423 151.857591 
L 230.474484 137.440015 
L 230.706546 155.966494 
L 230.938608 154.077562 
L 231.17067 137.26785 
L 231.402732 157.194023 
L 231.866856 169.422247 
L 232.098917 143.686743 
L 232.330979 164.517301 
L 233.027165 194.084799 
L 233.259227 163.65721 
L 233.491289 167.549308 
L 233.955412 166.335818 
L 234.187474 170.178507 
L 234.419536 151.251874 
L 234.651598 143.784264 
L 234.88366 140.550345 
L 235.347783 141.927432 
L 235.579845 139.911781 
L 235.811907 135.833807 
L 236.043969 142.327092 
L 236.508093 107.658913 
L 236.972217 148.500999 
L 237.204278 146.428463 
L 237.43634 148.242213 
L 237.668402 143.3897 
L 237.900464 141.906728 
L 238.132526 145.527096 
L 238.364588 142.711411 
L 238.59665 141.828678 
L 238.828711 147.04437 
L 239.060773 139.456732 
L 239.292835 149.547204 
L 239.524897 148.568676 
L 239.756959 149.65209 
L 239.989021 149.625142 
L 240.221083 151.393168 
L 240.453144 152.11626 
L 240.685206 154.673927 
L 240.917268 154.796965 
L 241.14933 145.626533 
L 241.845516 142.283844 
L 242.077577 150.644551 
L 242.309639 134.62667 
L 242.541701 153.355458 
L 242.773763 160.458937 
L 243.005825 151.298074 
L 243.237887 158.346179 
L 243.469949 149.453368 
L 243.934072 144.16641 
L 244.398196 166.637182 
L 244.630258 167.329264 
L 244.86232 165.844334 
L 245.094382 175.702031 
L 245.326444 162.260232 
L 245.558505 168.873071 
L 245.790567 159.814226 
L 246.022629 158.31634 
L 246.254691 167.417597 
L 246.486753 157.848365 
L 246.718815 161.401403 
L 246.950877 170.033562 
L 247.182938 162.537562 
L 247.415 160.902535 
L 247.647062 162.06916 
L 248.111186 167.255999 
L 248.343248 163.934725 
L 248.57531 177.666195 
L 248.807371 182.847055 
L 249.039433 175.271195 
L 249.503557 188.231531 
L 249.735619 191.078446 
L 249.967681 181.754701 
L 250.199743 182.477045 
L 250.431805 177.893803 
L 250.663866 177.73138 
L 250.895928 168.555342 
L 251.12799 185.306539 
L 251.360052 149.41172 
L 251.592114 165.849144 
L 251.824176 155.881356 
L 252.056238 151.937856 
L 252.288299 186.543753 
L 252.520361 159.301868 
L 252.984485 194.582706 
L 253.216547 204.553788 
L 253.680671 213.119268 
L 253.912732 219.153759 
L 254.144794 216.645012 
L 254.376856 193.366372 
L 254.608918 182.741908 
L 255.073042 190.977677 
L 255.305104 188.727494 
L 255.537166 172.138709 
L 255.769227 176.918929 
L 256.233351 171.538764 
L 256.465413 167.195696 
L 256.697475 169.273566 
L 256.929537 163.681288 
L 257.161599 171.41875 
L 257.39366 167.044865 
L 257.625722 172.596035 
L 257.857784 169.360686 
L 258.089846 177.318316 
L 258.321908 195.13063 
L 258.786032 210.227797 
L 259.018093 217.377592 
L 259.482217 196.435229 
L 259.714279 177.999953 
L 260.178403 169.633644 
L 260.410465 167.780613 
L 260.642526 168.176975 
L 260.874588 171.581869 
L 261.10665 173.113264 
L 261.338712 159.205774 
L 261.570774 168.29993 
L 261.802836 162.97072 
L 262.034898 143.899227 
L 262.499021 169.048328 
L 262.731083 155.921838 
L 262.963145 161.0098 
L 263.427269 162.336391 
L 263.659331 159.171653 
L 264.123454 164.094789 
L 264.355516 165.43745 
L 264.587578 173.332084 
L 264.81964 189.384558 
L 265.051702 215.911226 
L 265.283764 197.110321 
L 265.515826 223.324346 
L 265.747887 229.805918 
L 265.979949 229.696599 
L 266.212011 220.846206 
L 266.676135 215.87705 
L 267.140259 202.258349 
L 267.604382 169.344961 
L 267.836444 168.011947 
L 268.068506 164.569179 
L 268.300568 152.374762 
L 268.53263 153.431311 
L 268.764692 145.670876 
L 268.996754 142.871934 
L 269.228815 150.149928 
L 269.460877 143.423061 
L 269.692939 140.986308 
L 269.925001 139.96329 
L 270.157063 140.038213 
L 270.389125 139.108039 
L 270.621187 141.651626 
L 270.853248 140.201354 
L 271.08531 150.067753 
L 271.781496 157.439301 
L 272.013558 155.416232 
L 272.24562 186.682765 
L 272.477681 158.854877 
L 272.709743 191.20793 
L 272.941805 187.640733 
L 273.173867 187.331886 
L 273.405929 193.247518 
L 273.637991 188.102024 
L 273.870053 191.311494 
L 274.102114 190.851325 
L 274.566238 188.541183 
L 275.030362 210.916882 
L 275.262424 214.705948 
L 275.494486 215.99207 
L 275.726548 211.420914 
L 275.958609 214.233562 
L 276.422733 209.82603 
L 278.047166 166.449872 
L 278.279228 167.302064 
L 278.51129 168.694694 
L 278.743352 171.721072 
L 279.207475 181.993253 
L 280.135723 208.478509 
L 280.599847 148.790483 
L 280.831909 140.231648 
L 281.06397 137.552742 
L 281.296032 136.92946 
L 281.528094 130.303662 
L 281.760156 133.091117 
L 281.992218 132.592389 
L 282.22428 156.862402 
L 282.456342 163.779803 
L 282.688403 145.756897 
L 282.920465 159.171756 
L 283.152527 143.14873 
L 283.384589 138.593938 
L 283.616651 142.357814 
L 283.848713 165.202379 
L 284.080775 151.432267 
L 284.544898 192.415648 
L 284.77696 190.545437 
L 285.009022 161.73937 
L 285.241084 191.575931 
L 285.705208 203.725419 
L 285.937269 158.383557 
L 286.169331 183.263218 
L 286.401393 188.119886 
L 286.633455 189.749641 
L 286.865517 194.445139 
L 287.097579 133.851203 
L 287.329641 172.423037 
L 287.561703 175.98819 
L 287.793764 169.522706 
L 288.025826 139.962153 
L 288.257888 164.71275 
L 288.48995 139.486798 
L 288.722012 164.169265 
L 288.954074 139.580051 
L 289.186136 130.725609 
L 289.418197 165.521984 
L 289.650259 133.814299 
L 289.882321 131.530287 
L 290.114383 125.058195 
L 290.346445 131.408777 
L 290.578507 170.579109 
L 290.810569 141.403153 
L 291.04263 129.782686 
L 291.274692 176.037359 
L 291.970878 207.082069 
L 292.20294 214.593055 
L 292.435002 214.047323 
L 292.667063 204.459386 
L 292.899125 210.22544 
L 293.131187 209.825942 
L 293.363249 208.942399 
L 293.595311 185.119406 
L 293.827373 184.996886 
L 294.059435 175.277637 
L 294.291497 152.232603 
L 294.523558 166.543461 
L 294.75562 155.458788 
L 294.987682 151.717724 
L 295.219744 144.859881 
L 295.451806 143.684914 
L 295.683868 143.324106 
L 295.91593 143.350925 
L 296.147991 143.561476 
L 296.380053 141.502117 
L 296.844177 148.387 
L 297.308301 150.202341 
L 297.540363 173.649637 
L 297.772424 156.516398 
L 298.004486 184.035421 
L 298.236548 191.247309 
L 298.46861 192.219069 
L 298.700672 195.246687 
L 298.932734 182.750543 
L 299.164796 160.142109 
L 299.396857 166.541766 
L 299.628919 153.22662 
L 299.860981 149.275955 
L 300.093043 159.132132 
L 300.325105 158.634113 
L 300.557167 153.995505 
L 301.021291 152.581956 
L 301.253352 152.936039 
L 301.717476 154.765652 
L 302.1816 157.438053 
L 302.413662 159.239965 
L 302.645724 159.362824 
L 302.877785 160.094395 
L 303.573971 163.503587 
L 304.038095 164.913888 
L 304.270157 154.281275 
L 304.502218 155.22925 
L 304.73428 166.414183 
L 304.966342 168.147536 
L 305.198404 166.436796 
L 305.430466 167.058116 
L 305.662528 160.558805 
L 305.89459 167.342006 
L 306.126652 166.828925 
L 306.358713 165.911175 
L 306.822837 175.559904 
L 307.054899 177.597123 
L 307.286961 177.075476 
L 307.751085 212.421942 
L 307.983146 194.576526 
L 308.215208 190.54609 
L 308.911394 170.257859 
L 309.143456 163.481544 
L 310.071703 155.563094 
L 310.303765 156.145685 
L 310.535827 155.392356 
L 310.767889 153.897459 
L 310.999951 155.994646 
L 311.464074 156.738442 
L 311.696136 154.624251 
L 311.928198 156.537339 
L 312.392322 157.717296 
L 312.624384 158.681723 
L 312.856446 160.810886 
L 313.088507 161.776318 
L 313.320569 171.079007 
L 313.552631 159.760971 
L 313.784693 172.060778 
L 314.016755 166.705549 
L 314.248817 164.395351 
L 314.480879 163.540407 
L 314.71294 163.712486 
L 314.945002 164.267103 
L 315.177064 163.277225 
L 315.409126 155.354935 
L 315.641188 137.839987 
L 316.105312 148.610239 
L 316.337373 149.432707 
L 316.569435 148.42426 
L 316.801497 148.64792 
L 317.033559 150.613336 
L 317.497683 145.447562 
L 317.729745 131.208386 
L 317.961806 147.225663 
L 318.193868 148.466517 
L 318.42593 149.101271 
L 318.657992 149.260714 
L 318.890054 131.964615 
L 319.122116 151.595475 
L 319.354178 149.094781 
L 319.58624 150.013865 
L 319.818301 150.425797 
L 320.050363 144.660155 
L 320.282425 149.239164 
L 320.514487 131.406742 
L 320.746549 146.41766 
L 320.978611 147.448054 
L 321.210673 145.351164 
L 321.442734 144.970876 
L 321.674796 147.388482 
L 321.906858 131.797756 
L 322.13892 147.269017 
L 322.370982 138.445942 
L 322.603044 145.4485 
L 322.835106 146.526117 
L 323.067167 144.653982 
L 323.299229 144.223211 
L 323.531291 145.861787 
L 323.763353 143.241541 
L 323.995415 134.341376 
L 324.227477 145.217616 
L 324.459539 131.637749 
L 324.6916 126.081198 
L 325.155724 158.295023 
L 325.619848 133.035358 
L 325.85191 120.904108 
L 326.083972 117.358602 
L 326.316034 156.404129 
L 326.548095 150.484741 
L 327.012219 152.516713 
L 327.476343 98.301393 
L 327.708405 148.898486 
L 328.172528 158.515834 
L 328.40459 161.178318 
L 328.636652 153.98873 
L 328.868714 161.544972 
L 329.100776 150.910703 
L 329.332838 166.151509 
L 329.5649 161.504673 
L 329.796961 103.965382 
L 330.029023 137.909035 
L 330.261085 134.368857 
L 330.493147 98.059233 
L 330.725209 126.514771 
L 330.957271 122.219872 
L 331.189333 120.267428 
L 331.421395 120.178163 
L 331.653456 120.836163 
L 331.885518 123.504065 
L 332.11758 122.493256 
L 332.349642 133.337706 
L 332.813766 125.305316 
L 333.045828 129.376259 
L 333.277889 124.171816 
L 333.974075 135.10024 
L 334.206137 123.924807 
L 334.438199 122.7225 
L 334.670261 127.242373 
L 334.902322 119.48348 
L 335.134384 137.342917 
L 335.366446 144.609731 
L 335.598508 144.368639 
L 336.062632 132.286269 
L 336.294694 148.464878 
L 336.526755 132.405377 
L 336.758817 148.158073 
L 336.990879 151.936599 
L 337.455003 182.506022 
L 337.687065 186.816844 
L 337.919127 196.512286 
L 338.151189 181.262987 
L 338.38325 201.326432 
L 338.615312 210.819805 
L 338.847374 207.833445 
L 339.079436 200.662619 
L 339.311498 203.361976 
L 339.775622 174.238159 
L 340.007683 182.267799 
L 340.239745 163.095324 
L 340.703869 192.543178 
L 340.935931 191.581145 
L 341.167993 188.713071 
L 341.400055 196.404185 
L 341.632116 179.6238 
L 341.864178 188.845827 
L 342.328302 196.596784 
L 342.560364 198.983588 
L 342.792426 202.682629 
L 343.024488 211.734464 
L 343.256549 192.246543 
L 343.488611 161.598075 
L 343.720673 155.808499 
L 343.952735 162.989697 
L 344.184797 161.972933 
L 344.416859 161.77974 
L 344.880983 162.20337 
L 345.113044 151.97212 
L 345.345106 159.901357 
L 345.577168 158.757912 
L 345.80923 149.205844 
L 346.041292 156.340901 
L 346.273354 158.097967 
L 346.505416 157.08902 
L 346.737477 156.589858 
L 346.969539 156.709763 
L 347.201601 156.637146 
L 347.433663 163.262843 
L 347.665725 153.157371 
L 347.897787 153.775748 
L 348.129849 153.764095 
L 348.36191 152.745636 
L 349.058096 147.090221 
L 349.52222 146.152076 
L 349.754282 145.182629 
L 349.986343 142.78262 
L 350.450467 136.26654 
L 350.682529 148.138368 
L 350.914591 136.228622 
L 351.146653 136.078969 
L 351.610777 155.793853 
L 351.842838 156.169308 
L 352.0749 150.21037 
L 352.306962 153.926843 
L 352.539024 155.165083 
L 352.771086 159.717319 
L 353.003148 160.099256 
L 353.23521 158.353295 
L 353.467271 166.239316 
L 353.699333 166.556657 
L 354.163457 185.744576 
L 354.395519 137.847108 
L 354.627581 167.401399 
L 354.859643 172.276001 
L 355.091704 157.380347 
L 355.323766 171.168015 
L 356.019952 175.8707 
L 356.252014 180.092617 
L 356.484076 178.022182 
L 356.716138 171.232559 
L 356.948199 150.791789 
L 357.180261 162.478681 
L 357.412323 130.991963 
L 357.644385 148.8559 
L 357.876447 135.923302 
L 358.108509 148.81805 
L 358.340571 143.24538 
L 358.572632 146.90661 
L 358.804694 148.361314 
L 359.036756 143.813881 
L 359.268818 144.113146 
L 359.50088 148.504168 
L 359.732942 145.601033 
L 359.965004 153.657332 
L 360.429127 155.116688 
L 360.661189 146.313383 
L 360.893251 150.283751 
L 361.589437 135.189342 
L 361.821498 131.912154 
L 362.285622 144.931354 
L 362.517684 150.861513 
L 362.749746 153.901992 
L 363.21387 145.899674 
L 363.445932 149.619055 
L 364.142117 137.820813 
L 365.302426 119.706423 
L 365.76655 116.237662 
L 365.998612 116.124262 
L 366.462736 121.273811 
L 366.694798 97.812414 
L 366.926859 133.820572 
L 367.158921 132.490008 
L 367.390983 115.860858 
L 367.855107 131.86735 
L 368.087169 146.143924 
L 368.319231 140.022523 
L 368.551292 156.170761 
L 368.783354 152.311322 
L 369.247478 140.164784 
L 369.711602 128.299082 
L 369.943664 127.190467 
L 370.175726 126.996825 
L 370.407787 116.579164 
L 370.639849 117.062313 
L 370.871911 118.728996 
L 371.103973 119.148037 
L 371.336035 111.615826 
L 371.568097 121.286332 
L 371.800159 121.689721 
L 372.03222 115.333991 
L 372.264282 113.844131 
L 372.496344 115.774156 
L 372.960468 138.168219 
L 373.19253 129.350362 
L 373.424592 129.787255 
L 373.656653 134.606536 
L 373.888715 129.751629 
L 374.120777 131.762514 
L 374.352839 131.383079 
L 374.584901 141.21131 
L 374.816963 135.537535 
L 375.513148 143.688989 
L 375.74521 147.582761 
L 375.977272 149.209634 
L 376.209334 142.681015 
L 376.441396 140.965005 
L 376.673458 134.417692 
L 376.90552 142.536787 
L 377.137581 141.641148 
L 377.601705 148.619306 
L 377.833767 154.689275 
L 378.065829 156.09305 
L 378.297891 152.117971 
L 378.529953 158.93301 
L 378.762014 155.86116 
L 378.994076 160.904443 
L 379.226138 159.170093 
L 379.4582 168.518247 
L 379.690262 183.187692 
L 379.922324 189.811348 
L 380.154386 171.89059 
L 380.386447 188.690942 
L 380.618509 168.223096 
L 380.850571 176.009374 
L 381.082633 104.382666 
L 381.314695 124.931208 
L 381.546757 158.497115 
L 381.778819 210.046953 
L 382.01088 208.478737 
L 382.242942 197.61475 
L 382.475004 204.389044 
L 382.939128 181.976901 
L 383.17119 187.816166 
L 383.403252 182.2647 
L 383.635314 184.774656 
L 383.867375 184.512178 
L 384.099437 197.125902 
L 384.331499 192.108006 
L 385.027685 226.887552 
L 385.259747 225.543028 
L 385.491808 207.386914 
L 385.72387 198.009774 
L 385.955932 195.070382 
L 386.187994 194.305116 
L 386.420056 165.633602 
L 386.652118 166.99495 
L 386.88418 171.985212 
L 387.116241 180.136607 
L 387.348303 183.771642 
L 388.044489 208.099598 
L 388.276551 201.262041 
L 388.740675 198.722373 
L 388.972736 190.363165 
L 389.204798 186.66177 
L 389.43686 185.44776 
L 389.668922 175.92689 
L 389.900984 173.710654 
L 390.365108 145.930992 
L 390.597169 142.797625 
L 390.829231 137.147341 
L 391.293355 122.836498 
L 391.525417 123.870818 
L 391.757479 123.124034 
L 391.989541 123.045718 
L 392.221602 126.598714 
L 392.685726 98.915647 
L 392.917788 102.398639 
L 393.14985 92.192962 
L 393.381912 101.551758 
L 393.613974 90.089452 
L 393.846035 88.155296 
L 394.310159 136.53003 
L 394.774283 145.881974 
L 395.006345 162.770326 
L 395.238407 164.956048 
L 395.470469 172.942989 
L 395.70253 174.17226 
L 395.934592 182.051892 
L 396.166654 176.519313 
L 397.326963 129.060531 
L 397.791087 100.870062 
L 398.023149 87.951591 
L 398.255211 104.423118 
L 398.487273 108.409121 
L 398.487273 108.409121 
" style="fill:none;stroke:#ff7f0e;stroke-linecap:square;stroke-width:1.5;"/>
   </g>
   <g id="patch_3">
    <path d="M 57.6 307.584 
L 57.6 41.472 
" style="fill:none;stroke:#000000;stroke-linecap:square;stroke-linejoin:miter;stroke-width:0.8;"/>
   </g>
   <g id="patch_4">
    <path d="M 414.72 307.584 
L 414.72 41.472 
" style="fill:none;stroke:#000000;stroke-linecap:square;stroke-linejoin:miter;stroke-width:0.8;"/>
   </g>
   <g id="patch_5">
    <path d="M 57.6 307.584 
L 414.72 307.584 
" style="fill:none;stroke:#000000;stroke-linecap:square;stroke-linejoin:miter;stroke-width:0.8;"/>
   </g>
   <g id="patch_6">
    <path d="M 57.6 41.472 
L 414.72 41.472 
" style="fill:none;stroke:#000000;stroke-linecap:square;stroke-linejoin:miter;stroke-width:0.8;"/>
   </g>
  </g>
 </g>
 <defs>
  <clipPath id="p87b8508848">
   <rect height="266.112" width="357.12" x="57.6" y="41.472"/>
  </clipPath>
 </defs>
</svg>
