<?xml version="1.0" encoding="utf-8" standalone="no"?>
<!DOCTYPE svg PUBLIC "-//W3C//DTD SVG 1.1//EN"
  "http://www.w3.org/Graphics/SVG/1.1/DTD/svg11.dtd">
<!-- Created with matplotlib (https://matplotlib.org/) -->
<svg height="345.6pt" version="1.1" viewBox="0 0 460.8 345.6" width="460.8pt" xmlns="http://www.w3.org/2000/svg" xmlns:xlink="http://www.w3.org/1999/xlink">
 <defs>
  <style type="text/css">
*{stroke-linecap:butt;stroke-linejoin:round;}
  </style>
 </defs>
 <g id="figure_1">
  <g id="patch_1">
   <path d="M 0 345.6 
L 460.8 345.6 
L 460.8 0 
L 0 0 
z
" style="fill:#ffffff;"/>
  </g>
  <g id="axes_1">
   <g id="patch_2">
    <path d="M 57.6 307.584 
L 414.72 307.584 
L 414.72 41.472 
L 57.6 41.472 
z
" style="fill:#ffffff;"/>
   </g>
   <g id="matplotlib.axis_1">
    <g id="xtick_1">
     <g id="line2d_1">
      <defs>
       <path d="M 0 0 
L 0 3.5 
" id="mbbdf7136c7" style="stroke:#000000;stroke-width:0.8;"/>
      </defs>
      <g>
       <use style="stroke:#000000;stroke-width:0.8;" x="73.832727" xlink:href="#mbbdf7136c7" y="307.584"/>
      </g>
     </g>
     <g id="text_1">
      <!-- 0 -->
      <defs>
       <path d="M 31.78125 66.40625 
Q 24.171875 66.40625 20.328125 58.90625 
Q 16.5 51.421875 16.5 36.375 
Q 16.5 21.390625 20.328125 13.890625 
Q 24.171875 6.390625 31.78125 6.390625 
Q 39.453125 6.390625 43.28125 13.890625 
Q 47.125 21.390625 47.125 36.375 
Q 47.125 51.421875 43.28125 58.90625 
Q 39.453125 66.40625 31.78125 66.40625 
z
M 31.78125 74.21875 
Q 44.046875 74.21875 50.515625 64.515625 
Q 56.984375 54.828125 56.984375 36.375 
Q 56.984375 17.96875 50.515625 8.265625 
Q 44.046875 -1.421875 31.78125 -1.421875 
Q 19.53125 -1.421875 13.0625 8.265625 
Q 6.59375 17.96875 6.59375 36.375 
Q 6.59375 54.828125 13.0625 64.515625 
Q 19.53125 74.21875 31.78125 74.21875 
z
" id="DejaVuSans-48"/>
      </defs>
      <g transform="translate(70.651477 322.182437)scale(0.1 -0.1)">
       <use xlink:href="#DejaVuSans-48"/>
      </g>
     </g>
    </g>
    <g id="xtick_2">
     <g id="line2d_2">
      <g>
       <use style="stroke:#000000;stroke-width:0.8;" x="120.2451" xlink:href="#mbbdf7136c7" y="307.584"/>
      </g>
     </g>
     <g id="text_2">
      <!-- 200 -->
      <defs>
       <path d="M 19.1875 8.296875 
L 53.609375 8.296875 
L 53.609375 0 
L 7.328125 0 
L 7.328125 8.296875 
Q 12.9375 14.109375 22.625 23.890625 
Q 32.328125 33.6875 34.8125 36.53125 
Q 39.546875 41.84375 41.421875 45.53125 
Q 43.3125 49.21875 43.3125 52.78125 
Q 43.3125 58.59375 39.234375 62.25 
Q 35.15625 65.921875 28.609375 65.921875 
Q 23.96875 65.921875 18.8125 64.3125 
Q 13.671875 62.703125 7.8125 59.421875 
L 7.8125 69.390625 
Q 13.765625 71.78125 18.9375 73 
Q 24.125 74.21875 28.421875 74.21875 
Q 39.75 74.21875 46.484375 68.546875 
Q 53.21875 62.890625 53.21875 53.421875 
Q 53.21875 48.921875 51.53125 44.890625 
Q 49.859375 40.875 45.40625 35.40625 
Q 44.1875 33.984375 37.640625 27.21875 
Q 31.109375 20.453125 19.1875 8.296875 
z
" id="DejaVuSans-50"/>
      </defs>
      <g transform="translate(110.70135 322.182437)scale(0.1 -0.1)">
       <use xlink:href="#DejaVuSans-50"/>
       <use x="63.623047" xlink:href="#DejaVuSans-48"/>
       <use x="127.246094" xlink:href="#DejaVuSans-48"/>
      </g>
     </g>
    </g>
    <g id="xtick_3">
     <g id="line2d_3">
      <g>
       <use style="stroke:#000000;stroke-width:0.8;" x="166.657472" xlink:href="#mbbdf7136c7" y="307.584"/>
      </g>
     </g>
     <g id="text_3">
      <!-- 400 -->
      <defs>
       <path d="M 37.796875 64.3125 
L 12.890625 25.390625 
L 37.796875 25.390625 
z
M 35.203125 72.90625 
L 47.609375 72.90625 
L 47.609375 25.390625 
L 58.015625 25.390625 
L 58.015625 17.1875 
L 47.609375 17.1875 
L 47.609375 0 
L 37.796875 0 
L 37.796875 17.1875 
L 4.890625 17.1875 
L 4.890625 26.703125 
z
" id="DejaVuSans-52"/>
      </defs>
      <g transform="translate(157.113722 322.182437)scale(0.1 -0.1)">
       <use xlink:href="#DejaVuSans-52"/>
       <use x="63.623047" xlink:href="#DejaVuSans-48"/>
       <use x="127.246094" xlink:href="#DejaVuSans-48"/>
      </g>
     </g>
    </g>
    <g id="xtick_4">
     <g id="line2d_4">
      <g>
       <use style="stroke:#000000;stroke-width:0.8;" x="213.069845" xlink:href="#mbbdf7136c7" y="307.584"/>
      </g>
     </g>
     <g id="text_4">
      <!-- 600 -->
      <defs>
       <path d="M 33.015625 40.375 
Q 26.375 40.375 22.484375 35.828125 
Q 18.609375 31.296875 18.609375 23.390625 
Q 18.609375 15.53125 22.484375 10.953125 
Q 26.375 6.390625 33.015625 6.390625 
Q 39.65625 6.390625 43.53125 10.953125 
Q 47.40625 15.53125 47.40625 23.390625 
Q 47.40625 31.296875 43.53125 35.828125 
Q 39.65625 40.375 33.015625 40.375 
z
M 52.59375 71.296875 
L 52.59375 62.3125 
Q 48.875 64.0625 45.09375 64.984375 
Q 41.3125 65.921875 37.59375 65.921875 
Q 27.828125 65.921875 22.671875 59.328125 
Q 17.53125 52.734375 16.796875 39.40625 
Q 19.671875 43.65625 24.015625 45.921875 
Q 28.375 48.1875 33.59375 48.1875 
Q 44.578125 48.1875 50.953125 41.515625 
Q 57.328125 34.859375 57.328125 23.390625 
Q 57.328125 12.15625 50.6875 5.359375 
Q 44.046875 -1.421875 33.015625 -1.421875 
Q 20.359375 -1.421875 13.671875 8.265625 
Q 6.984375 17.96875 6.984375 36.375 
Q 6.984375 53.65625 15.1875 63.9375 
Q 23.390625 74.21875 37.203125 74.21875 
Q 40.921875 74.21875 44.703125 73.484375 
Q 48.484375 72.75 52.59375 71.296875 
z
" id="DejaVuSans-54"/>
      </defs>
      <g transform="translate(203.526095 322.182437)scale(0.1 -0.1)">
       <use xlink:href="#DejaVuSans-54"/>
       <use x="63.623047" xlink:href="#DejaVuSans-48"/>
       <use x="127.246094" xlink:href="#DejaVuSans-48"/>
      </g>
     </g>
    </g>
    <g id="xtick_5">
     <g id="line2d_5">
      <g>
       <use style="stroke:#000000;stroke-width:0.8;" x="259.482217" xlink:href="#mbbdf7136c7" y="307.584"/>
      </g>
     </g>
     <g id="text_5">
      <!-- 800 -->
      <defs>
       <path d="M 31.78125 34.625 
Q 24.75 34.625 20.71875 30.859375 
Q 16.703125 27.09375 16.703125 20.515625 
Q 16.703125 13.921875 20.71875 10.15625 
Q 24.75 6.390625 31.78125 6.390625 
Q 38.8125 6.390625 42.859375 10.171875 
Q 46.921875 13.96875 46.921875 20.515625 
Q 46.921875 27.09375 42.890625 30.859375 
Q 38.875 34.625 31.78125 34.625 
z
M 21.921875 38.8125 
Q 15.578125 40.375 12.03125 44.71875 
Q 8.5 49.078125 8.5 55.328125 
Q 8.5 64.0625 14.71875 69.140625 
Q 20.953125 74.21875 31.78125 74.21875 
Q 42.671875 74.21875 48.875 69.140625 
Q 55.078125 64.0625 55.078125 55.328125 
Q 55.078125 49.078125 51.53125 44.71875 
Q 48 40.375 41.703125 38.8125 
Q 48.828125 37.15625 52.796875 32.3125 
Q 56.78125 27.484375 56.78125 20.515625 
Q 56.78125 9.90625 50.3125 4.234375 
Q 43.84375 -1.421875 31.78125 -1.421875 
Q 19.734375 -1.421875 13.25 4.234375 
Q 6.78125 9.90625 6.78125 20.515625 
Q 6.78125 27.484375 10.78125 32.3125 
Q 14.796875 37.15625 21.921875 38.8125 
z
M 18.3125 54.390625 
Q 18.3125 48.734375 21.84375 45.5625 
Q 25.390625 42.390625 31.78125 42.390625 
Q 38.140625 42.390625 41.71875 45.5625 
Q 45.3125 48.734375 45.3125 54.390625 
Q 45.3125 60.0625 41.71875 63.234375 
Q 38.140625 66.40625 31.78125 66.40625 
Q 25.390625 66.40625 21.84375 63.234375 
Q 18.3125 60.0625 18.3125 54.390625 
z
" id="DejaVuSans-56"/>
      </defs>
      <g transform="translate(249.938467 322.182437)scale(0.1 -0.1)">
       <use xlink:href="#DejaVuSans-56"/>
       <use x="63.623047" xlink:href="#DejaVuSans-48"/>
       <use x="127.246094" xlink:href="#DejaVuSans-48"/>
      </g>
     </g>
    </g>
    <g id="xtick_6">
     <g id="line2d_6">
      <g>
       <use style="stroke:#000000;stroke-width:0.8;" x="305.89459" xlink:href="#mbbdf7136c7" y="307.584"/>
      </g>
     </g>
     <g id="text_6">
      <!-- 1000 -->
      <defs>
       <path d="M 12.40625 8.296875 
L 28.515625 8.296875 
L 28.515625 63.921875 
L 10.984375 60.40625 
L 10.984375 69.390625 
L 28.421875 72.90625 
L 38.28125 72.90625 
L 38.28125 8.296875 
L 54.390625 8.296875 
L 54.390625 0 
L 12.40625 0 
z
" id="DejaVuSans-49"/>
      </defs>
      <g transform="translate(293.16959 322.182437)scale(0.1 -0.1)">
       <use xlink:href="#DejaVuSans-49"/>
       <use x="63.623047" xlink:href="#DejaVuSans-48"/>
       <use x="127.246094" xlink:href="#DejaVuSans-48"/>
       <use x="190.869141" xlink:href="#DejaVuSans-48"/>
      </g>
     </g>
    </g>
    <g id="xtick_7">
     <g id="line2d_7">
      <g>
       <use style="stroke:#000000;stroke-width:0.8;" x="352.306962" xlink:href="#mbbdf7136c7" y="307.584"/>
      </g>
     </g>
     <g id="text_7">
      <!-- 1200 -->
      <g transform="translate(339.581962 322.182437)scale(0.1 -0.1)">
       <use xlink:href="#DejaVuSans-49"/>
       <use x="63.623047" xlink:href="#DejaVuSans-50"/>
       <use x="127.246094" xlink:href="#DejaVuSans-48"/>
       <use x="190.869141" xlink:href="#DejaVuSans-48"/>
      </g>
     </g>
    </g>
    <g id="xtick_8">
     <g id="line2d_8">
      <g>
       <use style="stroke:#000000;stroke-width:0.8;" x="398.719335" xlink:href="#mbbdf7136c7" y="307.584"/>
      </g>
     </g>
     <g id="text_8">
      <!-- 1400 -->
      <g transform="translate(385.994335 322.182437)scale(0.1 -0.1)">
       <use xlink:href="#DejaVuSans-49"/>
       <use x="63.623047" xlink:href="#DejaVuSans-52"/>
       <use x="127.246094" xlink:href="#DejaVuSans-48"/>
       <use x="190.869141" xlink:href="#DejaVuSans-48"/>
      </g>
     </g>
    </g>
   </g>
   <g id="matplotlib.axis_2">
    <g id="ytick_1">
     <g id="line2d_9">
      <defs>
       <path d="M 0 0 
L -3.5 0 
" id="m6a265b70e4" style="stroke:#000000;stroke-width:0.8;"/>
      </defs>
      <g>
       <use style="stroke:#000000;stroke-width:0.8;" x="57.6" xlink:href="#m6a265b70e4" y="295.576376"/>
      </g>
     </g>
     <g id="text_9">
      <!-- 0.000 -->
      <defs>
       <path d="M 10.6875 12.40625 
L 21 12.40625 
L 21 0 
L 10.6875 0 
z
" id="DejaVuSans-46"/>
      </defs>
      <g transform="translate(21.971875 299.375595)scale(0.1 -0.1)">
       <use xlink:href="#DejaVuSans-48"/>
       <use x="63.623047" xlink:href="#DejaVuSans-46"/>
       <use x="95.410156" xlink:href="#DejaVuSans-48"/>
       <use x="159.033203" xlink:href="#DejaVuSans-48"/>
       <use x="222.65625" xlink:href="#DejaVuSans-48"/>
      </g>
     </g>
    </g>
    <g id="ytick_2">
     <g id="line2d_10">
      <g>
       <use style="stroke:#000000;stroke-width:0.8;" x="57.6" xlink:href="#m6a265b70e4" y="261.036933"/>
      </g>
     </g>
     <g id="text_10">
      <!-- 0.002 -->
      <g transform="translate(21.971875 264.836152)scale(0.1 -0.1)">
       <use xlink:href="#DejaVuSans-48"/>
       <use x="63.623047" xlink:href="#DejaVuSans-46"/>
       <use x="95.410156" xlink:href="#DejaVuSans-48"/>
       <use x="159.033203" xlink:href="#DejaVuSans-48"/>
       <use x="222.65625" xlink:href="#DejaVuSans-50"/>
      </g>
     </g>
    </g>
    <g id="ytick_3">
     <g id="line2d_11">
      <g>
       <use style="stroke:#000000;stroke-width:0.8;" x="57.6" xlink:href="#m6a265b70e4" y="226.49749"/>
      </g>
     </g>
     <g id="text_11">
      <!-- 0.004 -->
      <g transform="translate(21.971875 230.296709)scale(0.1 -0.1)">
       <use xlink:href="#DejaVuSans-48"/>
       <use x="63.623047" xlink:href="#DejaVuSans-46"/>
       <use x="95.410156" xlink:href="#DejaVuSans-48"/>
       <use x="159.033203" xlink:href="#DejaVuSans-48"/>
       <use x="222.65625" xlink:href="#DejaVuSans-52"/>
      </g>
     </g>
    </g>
    <g id="ytick_4">
     <g id="line2d_12">
      <g>
       <use style="stroke:#000000;stroke-width:0.8;" x="57.6" xlink:href="#m6a265b70e4" y="191.958047"/>
      </g>
     </g>
     <g id="text_12">
      <!-- 0.006 -->
      <g transform="translate(21.971875 195.757266)scale(0.1 -0.1)">
       <use xlink:href="#DejaVuSans-48"/>
       <use x="63.623047" xlink:href="#DejaVuSans-46"/>
       <use x="95.410156" xlink:href="#DejaVuSans-48"/>
       <use x="159.033203" xlink:href="#DejaVuSans-48"/>
       <use x="222.65625" xlink:href="#DejaVuSans-54"/>
      </g>
     </g>
    </g>
    <g id="ytick_5">
     <g id="line2d_13">
      <g>
       <use style="stroke:#000000;stroke-width:0.8;" x="57.6" xlink:href="#m6a265b70e4" y="157.418604"/>
      </g>
     </g>
     <g id="text_13">
      <!-- 0.008 -->
      <g transform="translate(21.971875 161.217822)scale(0.1 -0.1)">
       <use xlink:href="#DejaVuSans-48"/>
       <use x="63.623047" xlink:href="#DejaVuSans-46"/>
       <use x="95.410156" xlink:href="#DejaVuSans-48"/>
       <use x="159.033203" xlink:href="#DejaVuSans-48"/>
       <use x="222.65625" xlink:href="#DejaVuSans-56"/>
      </g>
     </g>
    </g>
    <g id="ytick_6">
     <g id="line2d_14">
      <g>
       <use style="stroke:#000000;stroke-width:0.8;" x="57.6" xlink:href="#m6a265b70e4" y="122.879161"/>
      </g>
     </g>
     <g id="text_14">
      <!-- 0.010 -->
      <g transform="translate(21.971875 126.678379)scale(0.1 -0.1)">
       <use xlink:href="#DejaVuSans-48"/>
       <use x="63.623047" xlink:href="#DejaVuSans-46"/>
       <use x="95.410156" xlink:href="#DejaVuSans-48"/>
       <use x="159.033203" xlink:href="#DejaVuSans-49"/>
       <use x="222.65625" xlink:href="#DejaVuSans-48"/>
      </g>
     </g>
    </g>
    <g id="ytick_7">
     <g id="line2d_15">
      <g>
       <use style="stroke:#000000;stroke-width:0.8;" x="57.6" xlink:href="#m6a265b70e4" y="88.339717"/>
      </g>
     </g>
     <g id="text_15">
      <!-- 0.012 -->
      <g transform="translate(21.971875 92.138936)scale(0.1 -0.1)">
       <use xlink:href="#DejaVuSans-48"/>
       <use x="63.623047" xlink:href="#DejaVuSans-46"/>
       <use x="95.410156" xlink:href="#DejaVuSans-48"/>
       <use x="159.033203" xlink:href="#DejaVuSans-49"/>
       <use x="222.65625" xlink:href="#DejaVuSans-50"/>
      </g>
     </g>
    </g>
    <g id="ytick_8">
     <g id="line2d_16">
      <g>
       <use style="stroke:#000000;stroke-width:0.8;" x="57.6" xlink:href="#m6a265b70e4" y="53.800274"/>
      </g>
     </g>
     <g id="text_16">
      <!-- 0.014 -->
      <g transform="translate(21.971875 57.599493)scale(0.1 -0.1)">
       <use xlink:href="#DejaVuSans-48"/>
       <use x="63.623047" xlink:href="#DejaVuSans-46"/>
       <use x="95.410156" xlink:href="#DejaVuSans-48"/>
       <use x="159.033203" xlink:href="#DejaVuSans-49"/>
       <use x="222.65625" xlink:href="#DejaVuSans-52"/>
      </g>
     </g>
    </g>
   </g>
   <g id="line2d_17">
    <path clip-path="url(#pd465860ab2)" d="M 73.832727 292.048698 
L 74.296851 291.031111 
L 74.528913 291.08736 
L 74.760975 290.952002 
L 74.993037 291.342202 
L 75.225098 292.221742 
L 75.45716 292.424579 
L 75.689222 293.55473 
L 75.921284 293.374746 
L 76.153346 294.569128 
L 76.385408 294.50247 
L 76.61747 294.891827 
L 76.849531 293.578786 
L 77.081593 293.546611 
L 77.313655 293.897804 
L 77.545717 294.734855 
L 77.777779 290.045424 
L 78.009841 289.456402 
L 78.241903 291.67136 
L 78.473965 288.941302 
L 78.706026 291.534976 
L 78.938088 289.412881 
L 79.17015 289.18046 
L 79.634274 287.734975 
L 79.866336 288.057628 
L 80.098398 289.552596 
L 80.330459 289.657926 
L 80.562521 289.595897 
L 80.794583 289.669734 
L 81.026645 292.57077 
L 81.258707 288.914349 
L 81.490769 289.706161 
L 81.722831 291.12263 
L 82.186954 291.58537 
L 82.419016 288.168086 
L 82.651078 293.612801 
L 82.88314 295.105447 
L 83.115202 291.652283 
L 83.347264 290.529027 
L 83.579325 291.859599 
L 84.275511 290.983564 
L 84.739635 290.924545 
L 84.971697 291.513584 
L 85.203759 293.501186 
L 85.43582 293.454189 
L 85.667882 294.746801 
L 85.899944 291.249586 
L 86.132006 291.101214 
L 86.364068 294.359853 
L 86.59613 294.734334 
L 86.828192 293.128051 
L 87.060253 293.488616 
L 87.292315 290.952582 
L 87.524377 290.886065 
L 87.756439 290.591781 
L 87.988501 290.513924 
L 88.220563 290.58216 
L 88.452625 289.080676 
L 88.684686 288.44081 
L 88.916748 290.861682 
L 89.14881 289.607674 
L 89.380872 289.971461 
L 89.612934 289.358947 
L 89.844996 289.689635 
L 90.077058 286.39468 
L 90.30912 291.233848 
L 90.541181 287.081502 
L 90.773243 289.107194 
L 91.005305 288.870202 
L 91.237367 290.194582 
L 91.469429 288.887283 
L 91.701491 288.925967 
L 91.933553 289.937502 
L 92.165614 288.976275 
L 92.397676 289.495265 
L 92.629738 286.958723 
L 92.8618 290.737283 
L 93.093862 287.668691 
L 93.325924 289.690688 
L 93.557986 289.052475 
L 93.790047 291.615412 
L 94.022109 290.892112 
L 94.254171 291.986796 
L 94.486233 289.671702 
L 94.718295 290.237083 
L 94.950357 293.231757 
L 95.41448 291.789878 
L 95.646542 292.2006 
L 95.878604 292.228638 
L 96.110666 292.615242 
L 96.342728 294.254467 
L 96.57479 290.994981 
L 96.806852 292.071184 
L 97.038914 291.208192 
L 97.270975 291.137198 
L 97.503037 291.488971 
L 97.735099 292.920632 
L 97.967161 289.577399 
L 98.199223 294.569643 
L 98.663347 291.035774 
L 98.895408 293.583155 
L 99.12747 289.521236 
L 99.359532 292.626927 
L 99.591594 292.834864 
L 99.823656 292.860383 
L 100.055718 292.456676 
L 100.28778 291.680227 
L 100.519841 292.6945 
L 100.751903 290.359456 
L 100.983965 291.964804 
L 101.216027 291.490476 
L 101.448089 294.05068 
L 101.912213 291.829241 
L 102.144274 288.596595 
L 102.376336 291.882996 
L 102.608398 288.972497 
L 102.84046 291.322571 
L 103.072522 291.350883 
L 103.304584 293.701077 
L 103.536646 290.107709 
L 103.768708 292.136019 
L 104.000769 289.570406 
L 104.232831 293.769469 
L 104.696955 289.944135 
L 104.929017 290.485003 
L 105.161079 294.026856 
L 105.625202 290.765452 
L 105.857264 289.829737 
L 106.089326 288.408616 
L 106.55345 289.888295 
L 106.785512 292.260691 
L 107.017574 290.152581 
L 107.249635 290.172507 
L 107.713759 290.643292 
L 107.945821 290.149518 
L 108.177883 289.017297 
L 108.409945 293.794867 
L 108.642007 291.103488 
L 108.874068 291.551213 
L 109.10613 290.318684 
L 109.338192 295.488 
L 109.570254 290.578289 
L 109.802316 292.855982 
L 110.26644 290.980172 
L 110.498502 293.171893 
L 110.730563 291.247741 
L 111.194687 293.626263 
L 111.658811 288.560876 
L 111.890873 289.032719 
L 112.122935 292.468199 
L 112.81912 290.274145 
L 113.051182 290.107494 
L 113.283244 289.351482 
L 113.515306 287.441963 
L 113.747368 286.508669 
L 113.979429 286.129885 
L 114.211491 284.324375 
L 114.443553 285.383062 
L 114.675615 284.971102 
L 114.907677 286.042573 
L 115.139739 286.029849 
L 115.371801 284.413569 
L 115.603862 287.248536 
L 116.067986 289.937117 
L 116.300048 288.163972 
L 116.53211 287.811367 
L 116.764172 288.095337 
L 116.996234 288.063636 
L 117.228296 289.053674 
L 117.460357 290.963784 
L 117.692419 287.75104 
L 117.924481 292.420029 
L 118.156543 291.077678 
L 118.388605 292.183814 
L 118.620667 291.317204 
L 118.852729 291.48847 
L 119.08479 291.851204 
L 119.316852 291.377706 
L 119.548914 292.173293 
L 119.780976 291.744827 
L 120.2451 292.351685 
L 120.477162 291.853255 
L 120.709223 292.918377 
L 121.173347 290.784503 
L 121.405409 291.278337 
L 121.637471 293.627146 
L 121.869533 291.722951 
L 122.101595 290.931682 
L 123.261904 290.596462 
L 123.493966 290.276387 
L 123.726028 290.465945 
L 123.95809 291.408084 
L 124.190151 289.658131 
L 124.422213 290.259688 
L 124.654275 294.114551 
L 124.886337 289.951609 
L 125.118399 290.035821 
L 125.350461 292.914185 
L 125.582523 292.497276 
L 125.814584 290.620147 
L 126.046646 294.142658 
L 126.278708 290.061976 
L 126.51077 292.086031 
L 126.742832 290.109864 
L 126.974894 289.164719 
L 127.206956 293.009591 
L 127.439017 293.783683 
L 127.671079 290.536875 
L 127.903141 293.482207 
L 128.135203 289.768026 
L 128.367265 289.544056 
L 128.599327 288.647424 
L 128.831389 291.986317 
L 129.063451 292.261776 
L 129.295512 292.101266 
L 129.527574 288.731379 
L 129.759636 290.803443 
L 129.991698 289.984096 
L 130.22376 290.893507 
L 130.455822 290.100301 
L 130.687884 287.996778 
L 130.919945 289.209588 
L 131.152007 288.877292 
L 131.384069 290.965501 
L 131.616131 287.366379 
L 131.848193 289.32625 
L 132.312317 287.847074 
L 132.544378 288.175555 
L 133.008502 287.058705 
L 133.240564 288.721445 
L 133.472626 287.305081 
L 133.93675 286.368765 
L 134.168811 285.11785 
L 134.400873 287.042221 
L 134.632935 285.996001 
L 134.864997 286.817727 
L 135.097059 285.329974 
L 135.561183 284.512099 
L 135.793245 283.05612 
L 136.48943 286.485088 
L 136.721492 285.779352 
L 136.953554 287.098252 
L 137.185616 287.294461 
L 137.417678 289.42824 
L 137.649739 287.071715 
L 137.881801 289.771469 
L 138.113863 287.23904 
L 138.345925 290.139795 
L 138.577987 290.564523 
L 138.810049 288.610898 
L 139.274172 290.238852 
L 139.506234 287.138526 
L 139.738296 290.863222 
L 139.970358 290.96731 
L 140.20242 286.367505 
L 140.434482 287.111749 
L 140.666544 290.514448 
L 140.898605 291.061121 
L 141.130667 291.009739 
L 141.362729 294.359498 
L 141.594791 289.004594 
L 141.826853 292.304768 
L 142.058915 291.219872 
L 142.290977 291.980507 
L 142.523039 289.229725 
L 142.7551 288.694227 
L 142.987162 289.070435 
L 143.219224 290.678096 
L 143.451286 289.655372 
L 143.683348 292.697254 
L 143.91541 290.605553 
L 144.147472 292.273028 
L 144.379533 288.313019 
L 144.611595 287.682574 
L 144.843657 289.383703 
L 145.075719 289.292369 
L 145.307781 290.894435 
L 145.539843 286.487851 
L 145.771905 290.594846 
L 146.003966 287.848887 
L 146.236028 286.438165 
L 146.46809 287.910477 
L 146.700152 285.41146 
L 146.932214 285.525035 
L 147.164276 288.37075 
L 147.396338 286.462217 
L 147.6284 289.937108 
L 147.860461 286.310474 
L 148.092523 287.252388 
L 148.324585 289.703001 
L 148.556647 288.894856 
L 148.788709 290.066605 
L 149.020771 290.497829 
L 149.252833 289.005917 
L 149.484894 288.358293 
L 149.716956 289.565912 
L 149.949018 290.013665 
L 150.18108 288.26726 
L 150.413142 287.469575 
L 150.645204 291.009906 
L 150.877266 288.205693 
L 151.109327 290.999945 
L 151.341389 288.768494 
L 151.805513 289.805718 
L 152.037575 290.251729 
L 152.73376 287.932646 
L 152.965822 286.808187 
L 153.197884 288.251596 
L 153.662008 286.192705 
L 153.89407 288.594283 
L 154.126132 289.113036 
L 154.358194 289.347984 
L 154.590255 288.958936 
L 155.054379 290.311666 
L 155.286441 292.486363 
L 155.518503 293.26298 
L 155.750565 290.158746 
L 155.982627 290.532421 
L 156.214688 290.658393 
L 156.44675 291.591544 
L 156.678812 290.397416 
L 156.910874 290.058288 
L 157.142936 291.163733 
L 157.374998 289.006641 
L 158.071183 289.886698 
L 158.303245 290.904302 
L 158.535307 290.775736 
L 158.767369 288.640548 
L 159.231493 291.633302 
L 159.463554 288.782106 
L 159.695616 290.139565 
L 159.927678 290.074387 
L 160.15974 290.242411 
L 160.391802 290.8746 
L 160.623864 290.260448 
L 160.855926 288.56761 
L 161.087988 287.948638 
L 161.320049 290.537594 
L 161.552111 290.396086 
L 161.784173 288.752038 
L 162.016235 291.377132 
L 162.248297 292.463337 
L 162.480359 291.905496 
L 162.712421 292.582523 
L 162.944482 292.285264 
L 163.176544 291.71985 
L 163.408606 291.825244 
L 163.640668 292.137753 
L 163.87273 285.264869 
L 164.104792 290.915431 
L 164.336854 290.484622 
L 164.800977 285.993654 
L 165.033039 290.392633 
L 165.265101 292.558601 
L 165.497163 290.364306 
L 165.961287 292.191518 
L 166.657472 289.983132 
L 166.889534 289.899049 
L 167.121596 287.096504 
L 167.353658 289.971801 
L 167.58572 290.360707 
L 167.817782 288.743201 
L 168.049843 291.434262 
L 168.281905 291.921212 
L 168.513967 291.800578 
L 168.746029 291.337555 
L 168.978091 290.367503 
L 169.210153 290.680409 
L 169.442215 291.24293 
L 169.906338 285.125853 
L 170.1384 290.93191 
L 170.370462 289.218092 
L 170.602524 289.340816 
L 171.066648 287.102328 
L 171.298709 288.52507 
L 171.530771 291.996372 
L 171.762833 288.800636 
L 171.994895 288.126779 
L 172.226957 283.231518 
L 172.459019 288.008928 
L 172.923143 287.113578 
L 173.155204 287.078349 
L 173.387266 288.355649 
L 173.619328 288.207933 
L 173.85139 287.186105 
L 174.315514 289.784495 
L 174.547576 288.577849 
L 174.779637 288.413338 
L 175.011699 284.462582 
L 175.243761 290.830167 
L 175.475823 289.819351 
L 175.707885 287.580911 
L 175.939947 287.393182 
L 176.172009 287.845111 
L 176.40407 286.232648 
L 176.636132 289.733599 
L 176.868194 291.494982 
L 177.100256 286.84586 
L 177.332318 288.730527 
L 177.56438 286.55058 
L 177.796442 290.479226 
L 178.028503 290.436122 
L 178.260565 287.744724 
L 178.492627 287.427258 
L 178.724689 287.354187 
L 178.956751 291.472647 
L 179.188813 288.385437 
L 179.420875 288.848235 
L 179.652937 288.01631 
L 179.884998 290.843921 
L 180.11706 287.999793 
L 180.349122 291.469624 
L 180.581184 290.173226 
L 180.813246 292.0086 
L 181.045308 291.229848 
L 181.27737 293.373357 
L 181.509431 290.717291 
L 181.741493 291.879484 
L 181.973555 291.67519 
L 182.205617 289.458902 
L 182.437679 288.800238 
L 182.669741 289.06855 
L 182.901803 291.700003 
L 183.133864 287.079065 
L 183.365926 287.929267 
L 183.83005 291.541073 
L 184.062112 290.703949 
L 184.526236 291.07934 
L 184.758297 290.055863 
L 185.222421 289.195486 
L 185.454483 285.563805 
L 185.686545 290.518279 
L 185.918607 290.126759 
L 186.150669 286.158601 
L 186.382731 287.728686 
L 186.614792 288.236618 
L 186.846854 287.157398 
L 187.078916 291.446448 
L 187.310978 287.790208 
L 187.54304 287.617439 
L 187.775102 287.885242 
L 188.007164 290.992239 
L 188.239225 288.776498 
L 188.471287 291.083322 
L 188.703349 290.278352 
L 188.935411 291.397125 
L 189.167473 290.398962 
L 189.399535 291.377292 
L 189.631597 291.075592 
L 189.863658 291.268097 
L 190.09572 292.049612 
L 190.327782 286.736315 
L 190.559844 291.775508 
L 190.791906 291.744375 
L 191.023968 292.400261 
L 191.25603 290.392401 
L 191.488091 291.29597 
L 191.720153 289.515425 
L 192.184277 291.909029 
L 192.416339 291.452559 
L 192.880463 290.229349 
L 193.112525 291.994197 
L 193.344586 290.593279 
L 193.576648 291.658932 
L 193.80871 290.537008 
L 194.040772 288.758191 
L 194.272834 290.223484 
L 194.504896 288.998104 
L 194.736958 289.324841 
L 194.969019 290.833179 
L 195.201081 291.24392 
L 195.433143 287.746478 
L 195.665205 291.871918 
L 196.129329 288.55759 
L 196.361391 289.265888 
L 196.593452 291.147892 
L 196.825514 289.979485 
L 197.289638 289.363795 
L 197.5217 290.864856 
L 197.753762 291.551628 
L 197.985824 290.132965 
L 198.217886 291.695143 
L 198.449947 292.117863 
L 198.682009 289.214021 
L 198.914071 288.38442 
L 199.146133 292.20038 
L 199.378195 292.455321 
L 199.610257 287.796088 
L 199.842319 292.412154 
L 200.07438 287.365851 
L 200.306442 285.022077 
L 200.538504 288.901242 
L 200.770566 290.349647 
L 201.002628 285.551754 
L 201.23469 290.308555 
L 201.466752 289.300926 
L 201.698813 290.226148 
L 201.930875 289.434074 
L 202.162937 293.933982 
L 202.394999 289.85014 
L 202.627061 292.225466 
L 202.859123 292.022315 
L 203.091185 287.694529 
L 203.323246 288.269787 
L 203.555308 287.933331 
L 203.78737 291.732847 
L 204.019432 290.148588 
L 204.251494 291.58753 
L 204.483556 288.542157 
L 204.715618 291.353089 
L 204.94768 288.628613 
L 205.179741 290.040196 
L 205.643865 290.121155 
L 205.875927 288.684285 
L 206.107989 290.13482 
L 206.340051 288.667655 
L 206.572113 290.730739 
L 206.804174 291.251114 
L 207.50036 290.080591 
L 207.732422 291.189921 
L 208.196546 286.472893 
L 208.428607 290.126184 
L 208.660669 287.891434 
L 208.892731 290.154598 
L 209.124793 287.71542 
L 209.356855 290.029302 
L 209.588917 289.951957 
L 209.820979 290.571552 
L 210.05304 289.492995 
L 210.285102 285.303423 
L 210.749226 291.283417 
L 210.981288 286.702672 
L 211.21335 287.641937 
L 211.445412 294.04621 
L 211.677474 291.574847 
L 211.909535 286.503039 
L 212.141597 293.176541 
L 212.373659 293.621336 
L 212.837783 287.27232 
L 213.069845 290.405905 
L 213.533968 285.998003 
L 213.76603 291.504945 
L 213.998092 292.180761 
L 214.462216 289.780461 
L 214.694278 290.899154 
L 214.92634 291.09108 
L 215.158401 290.644635 
L 215.390463 293.088539 
L 215.622525 291.086419 
L 215.854587 292.385002 
L 216.086649 287.750051 
L 216.318711 285.813263 
L 216.550773 291.064118 
L 216.782834 290.710815 
L 217.014896 291.576515 
L 217.246958 288.645029 
L 217.47902 289.117854 
L 217.711082 290.368606 
L 217.943144 288.354033 
L 218.175206 290.130124 
L 218.407268 287.652917 
L 218.639329 287.584757 
L 218.871391 285.829147 
L 219.103453 286.7875 
L 219.335515 285.266159 
L 219.567577 284.736682 
L 219.799639 287.339514 
L 220.031701 283.86012 
L 220.263762 283.315948 
L 220.495824 284.237822 
L 220.727886 287.576399 
L 220.959948 284.535237 
L 221.19201 287.105608 
L 221.424072 287.644752 
L 221.656134 289.594795 
L 221.888195 289.670538 
L 222.120257 284.715765 
L 222.352319 285.796219 
L 222.584381 285.48043 
L 222.816443 287.419184 
L 223.048505 288.010425 
L 223.280567 290.674524 
L 223.512629 289.954176 
L 223.976752 292.282291 
L 224.208814 289.299668 
L 224.440876 291.062328 
L 224.672938 289.583058 
L 224.905 290.125336 
L 225.137062 292.112823 
L 225.601185 290.432184 
L 225.833247 287.680246 
L 226.065309 287.762954 
L 226.297371 289.418011 
L 226.529433 288.241624 
L 226.761495 290.244867 
L 226.993556 290.19607 
L 227.225618 288.478354 
L 227.45768 290.248276 
L 227.689742 290.736803 
L 227.921804 286.920899 
L 228.153866 290.725811 
L 228.385928 292.36335 
L 228.617989 283.954211 
L 228.850051 292.097359 
L 229.082113 291.511038 
L 229.314175 290.616728 
L 229.778299 288.129875 
L 230.010361 291.109911 
L 230.242423 289.292059 
L 230.474484 289.605369 
L 230.706546 290.936276 
L 230.938608 289.343782 
L 231.17067 290.018733 
L 231.402732 288.858422 
L 231.866856 289.333833 
L 232.098917 292.240227 
L 232.330979 288.828067 
L 232.563041 288.807727 
L 232.795103 287.454609 
L 233.027165 291.696275 
L 233.259227 286.379858 
L 233.491289 285.168136 
L 233.72335 293.685015 
L 233.955412 285.31503 
L 234.187474 288.275612 
L 234.419536 288.354037 
L 234.88366 282.409547 
L 235.115722 288.982451 
L 235.347783 288.721176 
L 235.579845 289.357157 
L 235.811907 288.165447 
L 236.043969 285.799126 
L 236.276031 288.720312 
L 236.508093 287.912111 
L 236.740155 286.474398 
L 236.972217 285.927263 
L 237.204278 291.13283 
L 237.43634 286.92742 
L 237.668402 290.63433 
L 237.900464 286.846071 
L 238.132526 287.006771 
L 238.364588 286.788207 
L 238.59665 287.457359 
L 238.828711 289.702573 
L 239.060773 290.357304 
L 239.292835 291.758303 
L 239.524897 291.202148 
L 239.756959 292.475968 
L 239.989021 283.903791 
L 240.221083 290.039368 
L 240.453144 292.768818 
L 240.685206 282.85786 
L 240.917268 289.802449 
L 241.14933 291.7467 
L 241.381392 287.836207 
L 241.613454 291.100418 
L 241.845516 290.111269 
L 242.077577 282.802153 
L 242.309639 290.968546 
L 242.541701 287.672825 
L 242.773763 286.92943 
L 243.005825 288.204139 
L 243.237887 284.225912 
L 243.469949 285.418965 
L 243.702011 290.8904 
L 244.166134 287.164082 
L 244.398196 288.184127 
L 244.630258 290.315801 
L 244.86232 286.491559 
L 245.094382 288.318145 
L 245.326444 284.899605 
L 245.558505 288.735848 
L 245.790567 284.101459 
L 246.022629 290.371918 
L 246.254691 286.991046 
L 246.486753 290.785389 
L 246.718815 289.858375 
L 246.950877 286.818921 
L 247.182938 289.728197 
L 247.415 285.027369 
L 247.647062 290.945515 
L 247.879124 291.024854 
L 248.111186 289.603213 
L 248.343248 289.814429 
L 248.807371 288.277605 
L 249.039433 289.330726 
L 249.271495 291.076043 
L 249.503557 288.733784 
L 249.735619 288.648566 
L 249.967681 289.048996 
L 250.199743 288.876929 
L 250.431805 284.753391 
L 250.663866 288.818293 
L 250.895928 290.278774 
L 251.12799 290.272913 
L 251.360052 289.000862 
L 251.592114 288.923319 
L 251.824176 290.248317 
L 252.056238 288.132903 
L 252.520361 288.423988 
L 252.752423 290.3779 
L 252.984485 286.836878 
L 253.216547 288.569249 
L 253.448609 288.955427 
L 253.680671 289.656416 
L 253.912732 287.064953 
L 254.144794 288.862003 
L 254.376856 289.375159 
L 254.608918 289.119362 
L 254.84098 287.957497 
L 255.073042 290.545311 
L 255.305104 285.914181 
L 255.537166 291.12139 
L 255.769227 288.263376 
L 256.233351 289.256741 
L 256.465413 287.645448 
L 256.697475 290.795659 
L 256.929537 287.758038 
L 257.161599 287.467586 
L 257.39366 286.215912 
L 257.625722 289.180936 
L 257.857784 288.918449 
L 258.089846 286.134777 
L 258.321908 287.189012 
L 258.786032 290.852864 
L 259.018093 283.303099 
L 259.250155 289.060504 
L 259.482217 289.387114 
L 259.714279 284.622566 
L 259.946341 287.753659 
L 260.178403 286.312465 
L 260.410465 285.944947 
L 260.642526 285.878478 
L 260.874588 287.056895 
L 261.570774 288.006157 
L 262.26696 288.679448 
L 262.499021 284.235911 
L 262.963145 289.175066 
L 263.195207 287.887708 
L 263.659331 288.228751 
L 263.891393 289.514388 
L 264.123454 291.997735 
L 264.355516 292.135972 
L 264.81964 286.22625 
L 265.051702 286.510124 
L 265.283764 284.613111 
L 265.515826 289.595507 
L 265.747887 289.284514 
L 265.979949 288.561042 
L 266.444073 292.159386 
L 266.676135 290.015135 
L 266.908197 285.562677 
L 267.140259 285.380386 
L 267.37232 288.296202 
L 267.604382 289.582064 
L 267.836444 288.72022 
L 268.068506 290.097985 
L 268.53263 285.882535 
L 268.764692 285.156726 
L 269.228815 290.94808 
L 269.460877 287.065588 
L 269.692939 287.549378 
L 269.925001 287.625849 
L 270.157063 285.990961 
L 270.389125 287.432314 
L 270.621187 287.516987 
L 270.853248 285.461307 
L 271.08531 288.226059 
L 271.317372 285.112586 
L 271.549434 285.224625 
L 272.013558 290.431657 
L 272.24562 288.961049 
L 272.477681 288.751274 
L 272.709743 289.005217 
L 272.941805 289.986476 
L 273.173867 290.145183 
L 273.405929 292.264093 
L 273.637991 291.103075 
L 273.870053 288.205222 
L 274.102114 290.265825 
L 274.334176 289.896471 
L 274.566238 289.768093 
L 274.7983 289.769111 
L 275.030362 290.96998 
L 275.262424 289.658082 
L 275.494486 290.877935 
L 275.726548 288.515108 
L 275.958609 288.828602 
L 276.190671 291.4082 
L 276.422733 290.490002 
L 276.654795 290.681916 
L 276.886857 288.958975 
L 277.118919 292.188596 
L 277.583042 290.37042 
L 277.815104 292.00907 
L 278.047166 287.361635 
L 278.279228 289.805232 
L 278.51129 287.503558 
L 278.743352 289.887395 
L 278.975414 286.260176 
L 279.439537 291.99198 
L 279.671599 290.726954 
L 279.903661 290.588187 
L 280.367785 291.4818 
L 280.599847 291.059928 
L 280.831909 289.323886 
L 281.06397 289.799197 
L 281.296032 285.27155 
L 281.528094 289.017003 
L 281.760156 288.865743 
L 281.992218 291.495022 
L 282.22428 289.552159 
L 282.688403 291.411057 
L 282.920465 287.199626 
L 283.152527 291.591734 
L 283.384589 289.425153 
L 283.616651 288.472547 
L 283.848713 291.123382 
L 284.080775 289.126724 
L 284.544898 292.29451 
L 284.77696 291.520578 
L 285.009022 291.59852 
L 285.241084 291.178292 
L 285.473146 290.101037 
L 285.705208 286.780782 
L 285.937269 291.81562 
L 286.169331 289.53093 
L 286.401393 291.821635 
L 286.633455 287.622773 
L 286.865517 287.635952 
L 287.097579 291.123395 
L 287.329641 290.622242 
L 287.561703 287.749287 
L 287.793764 290.526364 
L 288.025826 286.818705 
L 288.257888 292.750603 
L 288.48995 289.822413 
L 288.722012 289.676996 
L 288.954074 288.012688 
L 289.186136 291.989358 
L 289.418197 287.817257 
L 289.650259 289.977854 
L 289.882321 290.332788 
L 290.114383 286.839513 
L 290.346445 289.753134 
L 290.578507 287.226525 
L 290.810569 290.602023 
L 291.04263 290.429391 
L 291.274692 288.655577 
L 291.506754 291.302824 
L 291.738816 291.224422 
L 291.970878 288.613616 
L 292.20294 287.325247 
L 292.435002 291.294046 
L 292.667063 289.384303 
L 292.899125 292.20549 
L 293.131187 290.167467 
L 293.363249 291.248276 
L 293.595311 291.194385 
L 293.827373 288.28334 
L 294.059435 289.400033 
L 294.291497 289.879523 
L 294.523558 289.70658 
L 294.75562 285.785354 
L 295.219744 290.606708 
L 295.451806 291.615848 
L 295.683868 291.608423 
L 295.91593 290.659433 
L 296.147991 288.75441 
L 296.380053 291.194747 
L 296.612115 285.154518 
L 296.844177 291.445307 
L 297.076239 290.034843 
L 297.308301 290.038605 
L 297.540363 290.823007 
L 297.772424 108.528502 
L 298.004486 289.353124 
L 298.236548 290.067772 
L 298.46861 291.491159 
L 298.700672 291.578773 
L 298.932734 292.143924 
L 299.164796 290.209947 
L 299.396857 292.889155 
L 299.628919 292.305807 
L 299.860981 292.498277 
L 300.093043 291.852453 
L 300.325105 289.932399 
L 300.557167 292.253102 
L 300.789229 290.096609 
L 301.021291 292.228764 
L 301.485414 288.667786 
L 301.717476 288.936274 
L 301.949538 290.608753 
L 302.413662 286.933355 
L 302.645724 291.411254 
L 302.877785 289.406108 
L 303.341909 288.971309 
L 303.806033 291.69233 
L 304.038095 287.887423 
L 304.270157 289.534037 
L 304.502218 289.08616 
L 304.73428 292.311979 
L 304.966342 290.571862 
L 305.198404 290.79407 
L 305.430466 292.754821 
L 305.89459 291.155774 
L 306.126652 292.893145 
L 306.358713 291.565565 
L 306.590775 291.883766 
L 306.822837 287.70719 
L 307.054899 288.263091 
L 307.286961 291.764289 
L 307.519023 291.101974 
L 307.751085 289.899703 
L 307.983146 290.800075 
L 308.44727 290.056654 
L 308.679332 287.542159 
L 309.143456 288.33766 
L 309.375518 289.964526 
L 310.071703 289.085687 
L 310.303765 289.846579 
L 310.767889 289.216594 
L 311.232012 289.657646 
L 311.464074 288.608075 
L 311.696136 288.61076 
L 311.928198 288.738196 
L 312.16026 288.669824 
L 312.392322 289.295332 
L 312.624384 287.296325 
L 312.856446 290.304593 
L 313.088507 289.779042 
L 313.552631 289.441188 
L 313.784693 289.32424 
L 314.016755 291.141847 
L 314.248817 291.213014 
L 314.480879 288.309871 
L 314.71294 289.47543 
L 314.945002 293.018218 
L 315.177064 293.059361 
L 315.409126 287.109182 
L 315.87325 293.004721 
L 316.105312 291.463222 
L 316.337373 293.373485 
L 316.569435 292.349978 
L 317.033559 289.640563 
L 317.265621 288.675277 
L 317.497683 290.404795 
L 317.729745 289.309797 
L 317.961806 289.181941 
L 318.193868 290.443821 
L 318.42593 289.219365 
L 318.657992 286.920805 
L 318.890054 292.876622 
L 319.122116 290.639479 
L 320.050363 289.782106 
L 320.282425 293.12989 
L 320.514487 289.54662 
L 320.746549 290.11255 
L 320.978611 289.822418 
L 321.210673 292.617222 
L 321.442734 292.551729 
L 321.674796 292.359464 
L 321.906858 292.645714 
L 322.13892 289.330912 
L 322.370982 291.919106 
L 322.603044 291.686183 
L 322.835106 292.157497 
L 323.067167 291.696981 
L 323.299229 291.827722 
L 323.531291 289.727204 
L 323.763353 253.550969 
L 323.995415 290.821774 
L 324.227477 289.389752 
L 324.459539 288.661891 
L 324.6916 289.306886 
L 324.923662 287.131668 
L 325.155724 287.571523 
L 325.387786 287.707115 
L 325.619848 285.420117 
L 325.85191 288.55136 
L 326.316034 289.01306 
L 326.548095 291.053779 
L 326.780157 285.356024 
L 327.012219 286.95185 
L 327.244281 291.194547 
L 327.476343 290.452837 
L 327.708405 287.859946 
L 327.940467 286.937593 
L 328.172528 289.212366 
L 328.40459 288.308624 
L 328.636652 289.101218 
L 328.868714 290.952228 
L 329.100776 284.520671 
L 329.332838 289.117928 
L 329.5649 288.68999 
L 329.796961 289.803036 
L 330.029023 291.57371 
L 330.261085 291.691625 
L 330.493147 291.148489 
L 330.725209 289.588189 
L 331.189333 290.074065 
L 331.421395 290.728028 
L 331.653456 291.824835 
L 332.11758 289.304736 
L 332.349642 290.986583 
L 332.581704 291.704909 
L 332.813766 289.204415 
L 333.045828 289.377264 
L 333.277889 291.230466 
L 333.509951 289.245515 
L 333.742013 289.431302 
L 333.974075 286.997161 
L 334.206137 290.084325 
L 334.438199 290.137259 
L 334.670261 288.967761 
L 334.902322 286.997238 
L 335.134384 290.313406 
L 335.366446 290.971662 
L 335.598508 289.221084 
L 335.83057 290.981705 
L 336.062632 289.528734 
L 336.294694 288.88768 
L 336.526755 289.168343 
L 336.758817 290.436529 
L 336.990879 286.246082 
L 337.222941 289.433904 
L 337.455003 287.376556 
L 337.687065 286.638846 
L 337.919127 287.747859 
L 338.151189 285.808568 
L 338.38325 288.370876 
L 338.615312 286.361322 
L 339.079436 286.814966 
L 339.311498 290.175518 
L 339.54356 289.511464 
L 339.775622 289.321093 
L 340.007683 287.211637 
L 340.239745 289.441083 
L 340.471807 289.049846 
L 340.703869 289.137934 
L 340.935931 291.016373 
L 341.167993 287.571228 
L 341.400055 288.322006 
L 341.632116 291.445146 
L 341.864178 291.820943 
L 342.09624 287.65784 
L 342.328302 291.001902 
L 342.560364 292.073208 
L 342.792426 291.589583 
L 343.256549 287.089181 
L 343.488611 290.039966 
L 343.720673 290.541643 
L 344.184797 288.525694 
L 344.416859 289.041054 
L 344.648921 290.858986 
L 344.880983 290.409259 
L 345.113044 290.589778 
L 345.345106 289.006921 
L 345.80923 289.723457 
L 346.041292 287.863164 
L 346.273354 287.971182 
L 346.505416 289.163735 
L 346.737477 288.171648 
L 346.969539 286.067168 
L 347.201601 288.778061 
L 347.433663 289.28941 
L 347.665725 285.807022 
L 347.897787 287.882576 
L 348.129849 286.002155 
L 348.36191 287.909852 
L 348.593972 286.663015 
L 348.826034 286.523294 
L 349.058096 287.877783 
L 349.290158 288.005079 
L 349.52222 287.071435 
L 349.754282 287.347744 
L 349.986343 286.821825 
L 350.218405 289.323142 
L 350.450467 289.300613 
L 350.682529 287.698066 
L 350.914591 289.817259 
L 351.146653 288.615112 
L 351.378715 288.666117 
L 351.610777 289.165519 
L 351.842838 291.617827 
L 352.0749 288.698582 
L 352.306962 288.311851 
L 352.539024 287.665223 
L 352.771086 288.046529 
L 353.003148 289.49659 
L 353.467271 289.657453 
L 354.395519 289.679899 
L 354.627581 289.598013 
L 354.859643 289.182585 
L 355.091704 293.962726 
L 355.323766 293.014283 
L 355.78789 287.437228 
L 356.252014 290.943254 
L 356.484076 290.405528 
L 356.716138 291.930689 
L 356.948199 290.440129 
L 357.180261 290.596193 
L 357.412323 289.080165 
L 357.876447 290.292073 
L 358.108509 290.715086 
L 358.340571 288.311533 
L 358.804694 289.063678 
L 359.268818 289.362171 
L 359.50088 289.14504 
L 359.732942 290.381707 
L 359.965004 289.395347 
L 360.893251 288.769356 
L 363.445932 287.239209 
L 363.677993 289.234938 
L 363.910055 286.758113 
L 364.142117 286.847287 
L 364.374179 287.161424 
L 364.606241 288.604316 
L 364.838303 286.998178 
L 365.070365 286.287969 
L 365.302426 288.710873 
L 365.534488 289.056426 
L 365.76655 288.336196 
L 365.998612 288.929144 
L 366.230674 290.219153 
L 366.462736 288.872486 
L 366.694798 290.728843 
L 366.926859 288.907848 
L 367.158921 288.422716 
L 367.390983 287.108106 
L 367.623045 291.858456 
L 367.855107 287.140442 
L 368.319231 287.377836 
L 368.783354 287.38725 
L 369.015416 287.338798 
L 369.247478 290.30145 
L 369.47954 285.98113 
L 369.711602 287.191853 
L 370.175726 287.006062 
L 370.871911 286.323797 
L 371.103973 287.865168 
L 371.336035 286.043298 
L 371.568097 286.157068 
L 371.800159 289.107207 
L 372.03222 284.383502 
L 372.264282 289.894649 
L 372.496344 288.780138 
L 372.728406 289.278379 
L 372.960468 285.455569 
L 373.19253 290.029498 
L 373.656653 289.422041 
L 374.120777 289.690856 
L 375.049025 290.445465 
L 375.74521 290.634564 
L 375.977272 289.014216 
L 376.209334 290.75285 
L 376.673458 290.782665 
L 376.90552 289.258132 
L 377.137581 290.716948 
L 377.369643 288.792298 
L 377.601705 287.822256 
L 378.065829 288.27575 
L 378.762014 288.502444 
L 379.226138 288.56917 
L 379.4582 291.867477 
L 379.690262 290.339889 
L 379.922324 290.000978 
L 380.386447 290.604123 
L 380.850571 287.386791 
L 381.082633 287.551283 
L 381.314695 290.235102 
L 381.546757 287.800064 
L 381.778819 289.066184 
L 382.01088 288.981842 
L 382.475004 286.2899 
L 382.707066 286.983625 
L 382.939128 285.946032 
L 383.17119 287.816596 
L 383.403252 285.615046 
L 383.635314 287.734649 
L 383.867375 287.983244 
L 384.099437 287.146389 
L 384.331499 287.079468 
L 384.563561 287.215345 
L 384.795623 285.526812 
L 385.027685 288.36705 
L 385.259747 288.640311 
L 385.491808 288.086655 
L 385.72387 287.940999 
L 385.955932 286.118978 
L 386.187994 290.034255 
L 386.420056 289.961481 
L 386.652118 288.73341 
L 386.88418 288.721072 
L 387.116241 287.851711 
L 387.348303 290.589647 
L 387.580365 290.889865 
L 387.812427 291.379333 
L 388.044489 290.944637 
L 388.276551 287.277383 
L 388.740675 287.499937 
L 388.972736 287.715584 
L 389.204798 290.292261 
L 389.43686 287.739475 
L 389.668922 291.385029 
L 389.900984 287.736695 
L 390.133046 289.554678 
L 390.365108 287.605976 
L 390.597169 291.082696 
L 390.829231 287.525891 
L 391.061293 290.18684 
L 391.293355 287.3303 
L 391.525417 287.291613 
L 391.757479 289.98181 
L 391.989541 287.945253 
L 392.221602 287.024619 
L 392.453664 287.005751 
L 392.685726 288.54667 
L 392.917788 288.167492 
L 393.14985 289.017544 
L 393.381912 287.483668 
L 393.613974 288.869358 
L 393.846035 289.125205 
L 394.078097 287.512452 
L 394.310159 288.036152 
L 394.542221 290.233927 
L 395.006345 289.732134 
L 395.238407 289.22508 
L 395.470469 290.194326 
L 395.70253 290.149885 
L 395.934592 288.181335 
L 396.166654 290.115642 
L 396.398716 288.337664 
L 396.630778 291.882378 
L 396.86284 291.994386 
L 397.094902 291.096975 
L 397.326963 287.517754 
L 397.559025 291.401677 
L 397.791087 290.642168 
L 398.023149 290.360475 
L 398.255211 289.465808 
L 398.487273 291.134174 
L 398.487273 291.134174 
" style="fill:none;stroke:#1f77b4;stroke-linecap:square;stroke-width:1.5;"/>
   </g>
   <g id="line2d_18">
    <path clip-path="url(#pd465860ab2)" d="M 73.832727 122.116514 
L 74.296851 197.186866 
L 74.760975 193.518079 
L 74.993037 209.644848 
L 75.225098 197.841466 
L 75.45716 206.132375 
L 75.689222 197.923913 
L 75.921284 197.474337 
L 76.153346 194.864725 
L 76.385408 205.069756 
L 76.61747 203.836242 
L 76.849531 205.208973 
L 77.081593 211.485076 
L 77.313655 190.442278 
L 77.545717 208.404926 
L 77.777779 200.724485 
L 78.009841 202.183134 
L 78.241903 224.619202 
L 78.473965 227.225641 
L 78.706026 217.470081 
L 79.17015 230.110894 
L 79.402212 227.76168 
L 79.634274 230.291811 
L 79.866336 236.058382 
L 80.098398 238.219222 
L 80.330459 223.83452 
L 80.562521 229.752474 
L 80.794583 231.836525 
L 81.026645 242.285704 
L 81.258707 234.225147 
L 81.490769 233.372392 
L 81.722831 242.751998 
L 81.954892 229.249718 
L 82.186954 235.185477 
L 82.419016 235.513038 
L 82.651078 244.351338 
L 83.115202 229.063513 
L 83.347264 228.802145 
L 83.579325 229.030082 
L 84.043449 229.743289 
L 84.275511 229.938191 
L 84.507573 236.80833 
L 84.739635 236.742592 
L 84.971697 230.064094 
L 85.203759 235.454588 
L 85.43582 228.57071 
L 85.667882 234.496552 
L 85.899944 233.972245 
L 86.132006 226.108847 
L 86.364068 225.396261 
L 86.59613 230.423522 
L 86.828192 229.014734 
L 87.060253 234.893142 
L 87.524377 234.215497 
L 87.756439 235.889893 
L 88.220563 234.65871 
L 88.452625 234.782603 
L 88.684686 231.183898 
L 88.916748 225.249925 
L 89.14881 224.575096 
L 89.380872 220.067488 
L 89.612934 198.375862 
L 90.30912 175.514164 
L 90.541181 173.078866 
L 90.773243 187.424893 
L 91.005305 181.477274 
L 91.237367 183.487056 
L 91.469429 201.976766 
L 91.701491 185.18471 
L 91.933553 212.589656 
L 92.629738 228.844095 
L 92.8618 228.387112 
L 93.093862 226.165695 
L 93.325924 227.658915 
L 93.557986 227.5831 
L 93.790047 225.839238 
L 94.022109 235.484265 
L 94.254171 228.324743 
L 94.486233 227.674031 
L 94.718295 227.663349 
L 94.950357 227.921686 
L 95.182419 225.368602 
L 95.41448 231.46968 
L 95.646542 233.369444 
L 95.878604 223.498002 
L 96.110666 220.538072 
L 96.57479 220.903405 
L 96.806852 219.993282 
L 97.270975 219.508788 
L 97.503037 224.772751 
L 97.735099 225.41598 
L 97.967161 230.038974 
L 98.199223 226.920069 
L 98.431285 230.140485 
L 98.663347 224.556471 
L 98.895408 227.369785 
L 99.12747 178.085463 
L 99.591594 211.39291 
L 99.823656 188.744578 
L 100.055718 204.681936 
L 100.28778 204.058359 
L 100.519841 187.532353 
L 100.751903 151.925807 
L 101.216027 169.305401 
L 101.448089 174.403495 
L 101.680151 162.714666 
L 101.912213 191.381953 
L 102.144274 178.51687 
L 102.608398 183.122333 
L 102.84046 200.851747 
L 103.072522 183.502657 
L 103.304584 182.980701 
L 103.536646 166.267952 
L 103.768708 215.04733 
L 104.000769 211.656655 
L 104.232831 187.540193 
L 104.464893 223.21362 
L 104.696955 186.702099 
L 105.161079 216.600231 
L 105.393141 203.990009 
L 105.857264 215.505565 
L 106.089326 187.488886 
L 106.321388 199.906299 
L 106.55345 189.952894 
L 106.785512 203.656378 
L 107.249635 183.618035 
L 107.481697 183.173178 
L 108.177883 65.069617 
L 108.409945 64.127515 
L 108.642007 81.403025 
L 108.874068 65.204148 
L 109.10613 64.261803 
L 109.338192 78.334958 
L 109.570254 68.995363 
L 109.802316 77.470835 
L 110.034378 102.768314 
L 110.26644 89.737611 
L 110.498502 114.482336 
L 110.730563 104.042045 
L 111.194687 66.441683 
L 111.426749 60.337236 
L 111.658811 75.445028 
L 111.890873 79.320418 
L 112.354996 71.089885 
L 112.587058 68.127733 
L 112.81912 85.634947 
L 113.051182 80.634322 
L 113.283244 72.366372 
L 113.747368 122.492167 
L 114.211491 142.705101 
L 114.443553 156.353926 
L 114.675615 154.732595 
L 114.907677 158.270961 
L 115.139739 144.099946 
L 115.371801 193.26884 
L 115.603862 159.820948 
L 115.835924 195.729708 
L 116.300048 95.511664 
L 116.53211 118.263005 
L 116.764172 78.820576 
L 116.996234 68.46735 
L 117.228296 99.861276 
L 117.460357 73.527559 
L 117.692419 107.217801 
L 117.924481 120.142908 
L 118.620667 173.5845 
L 119.08479 111.687627 
L 119.316852 109.50136 
L 119.548914 95.991722 
L 119.780976 99.525771 
L 120.2451 162.504575 
L 120.477162 202.744107 
L 120.709223 209.092638 
L 120.941285 199.006662 
L 121.173347 181.52516 
L 121.405409 184.65278 
L 121.637471 183.460571 
L 121.869533 101.38552 
L 122.101595 90.710043 
L 122.333657 91.177869 
L 122.565718 68.595625 
L 122.79778 73.834022 
L 123.029842 69.777383 
L 123.261904 69.673839 
L 123.493966 87.808676 
L 123.726028 81.207773 
L 123.95809 85.813544 
L 124.190151 86.967933 
L 124.654275 127.629747 
L 124.886337 168.936219 
L 125.118399 181.306371 
L 125.350461 174.716829 
L 125.582523 198.877177 
L 125.814584 207.00553 
L 126.278708 246.387662 
L 126.51077 208.0879 
L 126.742832 239.971164 
L 126.974894 205.383769 
L 127.206956 227.59677 
L 127.439017 228.111562 
L 127.671079 231.82303 
L 127.903141 242.197263 
L 128.135203 244.543029 
L 128.367265 233.099448 
L 128.599327 235.806184 
L 128.831389 231.037923 
L 129.063451 218.990822 
L 129.295512 189.413344 
L 129.759636 186.424816 
L 129.991698 211.973232 
L 130.22376 209.425907 
L 131.384069 248.434541 
L 131.616131 234.461298 
L 131.848193 243.597287 
L 132.080255 238.836407 
L 132.312317 237.707859 
L 132.544378 235.005194 
L 132.77644 245.730025 
L 133.008502 248.320888 
L 133.240564 241.02773 
L 134.632935 154.881588 
L 134.864997 151.060397 
L 135.329121 134.848007 
L 135.561183 147.137589 
L 135.793245 143.656496 
L 136.025306 149.877736 
L 136.257368 165.032177 
L 136.48943 162.131531 
L 136.953554 183.920143 
L 137.185616 187.584804 
L 137.417678 189.084592 
L 137.649739 207.563245 
L 137.881801 204.305464 
L 138.345925 239.595617 
L 138.577987 238.783742 
L 138.810049 242.220234 
L 139.042111 231.351904 
L 139.274172 228.638716 
L 139.506234 236.04669 
L 139.738296 232.496556 
L 139.970358 236.187898 
L 140.20242 234.175727 
L 140.434482 229.388417 
L 140.666544 227.012651 
L 141.362729 196.35597 
L 141.594791 195.099476 
L 142.523039 147.385446 
L 142.7551 124.539719 
L 142.987162 158.868462 
L 143.219224 140.283495 
L 143.683348 182.036582 
L 143.91541 173.703809 
L 144.147472 170.77095 
L 144.379533 164.185621 
L 144.611595 178.593551 
L 144.843657 175.093509 
L 145.075719 167.817479 
L 145.771905 180.98873 
L 146.003966 188.169575 
L 146.236028 150.880712 
L 146.46809 169.440835 
L 146.932214 183.42402 
L 147.164276 207.649472 
L 147.396338 179.784424 
L 147.860461 216.902776 
L 148.092523 195.099821 
L 148.324585 196.257148 
L 148.556647 200.511855 
L 148.788709 179.532405 
L 149.020771 177.962859 
L 149.252833 157.46577 
L 149.484894 155.480535 
L 149.716956 169.398055 
L 149.949018 167.746007 
L 150.18108 173.678306 
L 150.413142 166.65064 
L 150.645204 167.38835 
L 150.877266 149.756909 
L 151.109327 159.448442 
L 151.341389 151.769152 
L 151.573451 139.193806 
L 151.805513 145.44222 
L 152.037575 148.105856 
L 152.269637 163.526295 
L 152.501699 161.132251 
L 152.73376 152.348939 
L 153.197884 166.351496 
L 153.429946 180.988148 
L 153.662008 172.727375 
L 153.89407 169.398541 
L 154.126132 185.157773 
L 154.358194 191.732177 
L 154.590255 214.370177 
L 154.822317 224.342482 
L 155.054379 189.985643 
L 155.286441 192.885038 
L 155.518503 186.528379 
L 155.750565 162.930792 
L 155.982627 199.092594 
L 156.214688 199.136821 
L 156.678812 191.861797 
L 156.910874 192.320928 
L 157.142936 162.849137 
L 157.374998 172.188221 
L 157.60706 172.881419 
L 157.839121 134.781955 
L 158.071183 136.156114 
L 158.303245 146.242323 
L 158.999431 103.35516 
L 159.231493 98.598348 
L 159.463554 83.793349 
L 159.695616 87.876301 
L 159.927678 75.399522 
L 160.15974 85.725679 
L 160.391802 76.594545 
L 160.623864 89.137369 
L 161.087988 130.30208 
L 161.320049 142.70298 
L 161.784173 181.33611 
L 162.016235 170.948456 
L 162.248297 219.197452 
L 162.480359 227.531621 
L 162.712421 203.137074 
L 162.944482 202.393729 
L 163.176544 203.327832 
L 163.408606 204.825827 
L 163.640668 190.009347 
L 163.87273 190.205737 
L 164.104792 189.309267 
L 164.800977 150.724138 
L 165.033039 144.8045 
L 165.265101 144.751567 
L 165.497163 135.113548 
L 165.729225 144.640158 
L 165.961287 128.771952 
L 166.193348 145.948953 
L 166.657472 118.877207 
L 166.889534 112.533244 
L 167.121596 110.594224 
L 167.353658 114.086451 
L 167.58572 120.462208 
L 167.817782 114.217128 
L 168.049843 141.609394 
L 168.281905 138.670058 
L 168.513967 168.968568 
L 168.746029 146.430045 
L 168.978091 153.693448 
L 169.442215 212.502933 
L 169.674276 200.673379 
L 169.906338 209.219547 
L 170.1384 196.605573 
L 170.370462 197.306614 
L 170.602524 180.132021 
L 170.834586 186.456072 
L 171.066648 186.257111 
L 171.298709 192.112716 
L 171.762833 227.122353 
L 172.226957 216.387106 
L 172.459019 223.014807 
L 172.923143 180.094935 
L 173.155204 186.520607 
L 173.619328 178.851342 
L 173.85139 179.31364 
L 174.083452 167.805461 
L 174.315514 172.113843 
L 174.547576 154.723947 
L 174.779637 110.908436 
L 175.011699 147.310182 
L 175.243761 137.702749 
L 175.475823 154.614619 
L 175.707885 158.210558 
L 175.939947 145.8372 
L 176.172009 161.764289 
L 176.40407 155.647535 
L 176.636132 153.529403 
L 177.100256 172.917614 
L 177.332318 165.17002 
L 177.56438 162.632185 
L 177.796442 196.388224 
L 178.028503 193.058616 
L 178.260565 199.128441 
L 178.492627 182.088766 
L 178.724689 205.349488 
L 178.956751 209.114273 
L 179.188813 206.212304 
L 179.420875 191.46972 
L 179.652937 191.12658 
L 179.884998 200.721661 
L 180.11706 171.409292 
L 180.349122 201.438541 
L 180.581184 197.444795 
L 180.813246 223.755332 
L 181.045308 229.77717 
L 181.27737 221.03341 
L 181.509431 158.890517 
L 181.741493 161.872234 
L 181.973555 149.969188 
L 182.205617 151.024851 
L 182.437679 141.07064 
L 182.669741 125.652871 
L 182.901803 155.556076 
L 183.133864 152.063548 
L 183.597988 154.042204 
L 183.83005 178.049921 
L 184.062112 175.729126 
L 184.294174 198.228414 
L 184.526236 198.403146 
L 184.758297 188.054216 
L 184.990359 188.523475 
L 185.222421 172.525264 
L 185.454483 179.498475 
L 185.686545 176.41836 
L 185.918607 186.263024 
L 186.150669 176.560171 
L 186.382731 185.543278 
L 186.614792 186.867846 
L 186.846854 187.113791 
L 187.078916 201.221032 
L 187.310978 200.499414 
L 187.54304 214.189171 
L 187.775102 195.248079 
L 188.007164 197.097933 
L 188.239225 186.804784 
L 188.471287 200.495842 
L 188.703349 203.957901 
L 188.935411 179.736474 
L 189.167473 177.439555 
L 189.399535 183.169077 
L 189.631597 195.126764 
L 189.863658 174.173503 
L 190.09572 197.735125 
L 190.791906 215.990966 
L 191.023968 188.1646 
L 191.25603 184.287995 
L 191.488091 187.488382 
L 191.720153 186.314862 
L 191.952215 190.329404 
L 192.184277 189.321537 
L 192.880463 182.8073 
L 193.112525 182.183172 
L 193.576648 182.532315 
L 193.80871 181.969855 
L 194.736958 189.800859 
L 194.969019 193.357566 
L 195.201081 198.790524 
L 195.433143 199.106133 
L 195.665205 215.908147 
L 195.897267 221.301639 
L 196.361391 213.951823 
L 196.593452 222.321982 
L 196.825514 223.403625 
L 197.057576 208.848831 
L 197.289638 219.503683 
L 197.5217 222.914126 
L 197.753762 235.342283 
L 197.985824 228.570772 
L 198.217886 207.298831 
L 198.449947 224.3003 
L 198.682009 220.452547 
L 198.914071 224.272898 
L 199.146133 223.106806 
L 199.378195 223.22568 
L 199.610257 223.964084 
L 199.842319 198.806939 
L 200.07438 193.844406 
L 200.306442 192.407246 
L 200.538504 192.237504 
L 200.770566 212.542253 
L 201.23469 203.647252 
L 201.466752 218.920992 
L 201.698813 204.561564 
L 201.930875 218.254992 
L 202.162937 218.355073 
L 202.394999 204.417097 
L 202.627061 231.616356 
L 203.091185 215.795196 
L 203.323246 203.332655 
L 203.78737 221.342478 
L 204.019432 198.287978 
L 204.251494 218.205645 
L 204.483556 214.513945 
L 204.715618 202.591079 
L 204.94768 226.604501 
L 205.179741 233.988716 
L 205.411803 232.004735 
L 205.643865 199.735389 
L 206.107989 245.67276 
L 206.340051 225.912304 
L 206.572113 224.158451 
L 206.804174 216.975049 
L 207.036236 240.311145 
L 207.50036 202.855389 
L 207.732422 219.48307 
L 207.964484 205.757701 
L 208.196546 221.54861 
L 208.428607 224.532707 
L 208.892731 235.15165 
L 209.124793 231.2541 
L 209.356855 239.576494 
L 209.588917 239.653256 
L 209.820979 227.37064 
L 210.05304 221.380084 
L 210.285102 210.61013 
L 210.749226 223.687642 
L 211.21335 211.190538 
L 211.445412 225.993627 
L 211.677474 216.112238 
L 211.909535 217.249953 
L 212.141597 241.994719 
L 212.373659 242.435853 
L 212.605721 240.222784 
L 212.837783 229.757328 
L 213.069845 232.399125 
L 213.301907 227.322869 
L 213.533968 229.085951 
L 213.76603 222.366354 
L 213.998092 236.900455 
L 214.230154 231.035781 
L 214.462216 236.909306 
L 214.694278 219.721026 
L 214.92634 228.712605 
L 215.158401 214.099731 
L 215.390463 209.050451 
L 215.622525 228.5381 
L 215.854587 205.357452 
L 216.086649 210.573405 
L 216.318711 224.729485 
L 216.550773 228.423612 
L 216.782834 228.143974 
L 217.014896 226.678837 
L 217.246958 216.253507 
L 217.47902 217.020322 
L 217.711082 215.559828 
L 217.943144 206.912759 
L 218.175206 214.495196 
L 218.407268 207.144108 
L 218.639329 234.465224 
L 218.871391 203.196607 
L 219.103453 240.494184 
L 219.335515 235.071862 
L 219.567577 236.083423 
L 219.799639 240.967433 
L 220.031701 239.201465 
L 220.263762 225.739185 
L 220.495824 241.784598 
L 220.727886 235.280967 
L 220.959948 218.874354 
L 221.19201 228.016602 
L 221.424072 227.205388 
L 221.656134 224.988156 
L 222.120257 235.541643 
L 222.352319 227.171933 
L 222.816443 237.76204 
L 223.048505 230.558185 
L 223.280567 238.699627 
L 223.512629 239.274364 
L 223.74469 233.716557 
L 223.976752 239.222537 
L 224.208814 240.479745 
L 224.440876 238.606443 
L 224.672938 227.750816 
L 224.905 229.083067 
L 225.137062 233.462806 
L 225.369123 230.730081 
L 225.601185 245.358145 
L 225.833247 242.212352 
L 226.065309 232.531742 
L 226.529433 230.221029 
L 226.993556 235.943197 
L 227.45768 238.057718 
L 227.921804 221.754098 
L 228.153866 234.086636 
L 228.385928 235.239404 
L 229.082113 230.670837 
L 229.314175 234.842588 
L 229.546237 224.849126 
L 229.778299 229.989491 
L 230.010361 230.409967 
L 230.242423 213.716737 
L 230.474484 212.111938 
L 230.706546 222.078047 
L 230.938608 237.4528 
L 231.17067 214.763543 
L 231.402732 222.850483 
L 231.634794 241.825493 
L 231.866856 240.02689 
L 232.098917 239.166846 
L 232.330979 223.907584 
L 232.563041 222.741677 
L 232.795103 222.673602 
L 233.027165 222.963669 
L 233.259227 238.005861 
L 233.491289 239.047507 
L 233.72335 216.065476 
L 233.955412 214.75965 
L 234.187474 211.008637 
L 234.419536 232.477234 
L 234.651598 239.5779 
L 234.88366 237.596923 
L 235.347783 228.351203 
L 235.579845 231.638756 
L 235.811907 239.112978 
L 236.276031 226.235256 
L 236.508093 227.771558 
L 236.740155 230.688127 
L 236.972217 238.795127 
L 237.204278 230.554791 
L 237.43634 238.048907 
L 237.668402 237.741771 
L 237.900464 233.56131 
L 238.132526 239.970496 
L 238.364588 232.750182 
L 238.59665 210.478063 
L 238.828711 205.156292 
L 239.060773 207.589485 
L 239.292835 207.701037 
L 239.524897 217.529478 
L 239.989021 188.363495 
L 240.221083 234.306825 
L 240.453144 215.396098 
L 240.685206 208.677224 
L 241.14933 234.667207 
L 241.381392 239.315567 
L 241.613454 238.299604 
L 241.845516 235.898028 
L 242.077577 228.804538 
L 242.309639 242.329771 
L 242.541701 233.411511 
L 242.773763 240.054599 
L 243.005825 222.733498 
L 243.237887 219.039607 
L 243.469949 211.318044 
L 243.702011 207.449987 
L 243.934072 235.851958 
L 244.166134 236.945214 
L 244.398196 235.429603 
L 244.630258 227.089245 
L 244.86232 227.293585 
L 245.094382 209.730246 
L 245.326444 219.283383 
L 245.558505 221.441431 
L 245.790567 222.419454 
L 246.022629 228.942401 
L 246.254691 224.017864 
L 246.950877 241.073736 
L 247.182938 217.260625 
L 247.415 235.618527 
L 247.647062 221.219161 
L 248.111186 209.434252 
L 248.343248 234.200596 
L 248.57531 238.976496 
L 248.807371 236.913736 
L 249.039433 233.749502 
L 249.271495 227.029927 
L 249.503557 208.014461 
L 249.967681 234.475929 
L 250.199743 242.065227 
L 250.431805 231.893002 
L 250.663866 237.705457 
L 251.12799 216.462883 
L 251.360052 219.068703 
L 251.824176 216.131545 
L 252.056238 228.305912 
L 252.288299 231.919717 
L 252.520361 221.103722 
L 252.752423 200.666403 
L 252.984485 218.094401 
L 253.216547 197.873224 
L 253.448609 224.063234 
L 253.680671 209.172977 
L 253.912732 213.399522 
L 254.144794 188.504124 
L 254.376856 178.587866 
L 254.84098 213.743877 
L 255.073042 218.487579 
L 255.305104 219.145194 
L 255.537166 219.19639 
L 255.769227 224.242846 
L 256.001289 215.489723 
L 256.233351 212.311628 
L 256.465413 233.074371 
L 256.697475 231.096338 
L 256.929537 231.43555 
L 257.161599 229.450025 
L 257.39366 221.716487 
L 257.625722 218.798823 
L 257.857784 221.223995 
L 258.089846 217.450723 
L 258.321908 207.042912 
L 258.786032 221.390694 
L 259.018093 229.376249 
L 259.250155 221.362466 
L 259.482217 209.479814 
L 259.714279 220.866342 
L 259.946341 223.992102 
L 260.178403 223.992955 
L 260.410465 234.076684 
L 260.642526 220.341799 
L 260.874588 235.69475 
L 261.10665 210.88811 
L 261.338712 215.213043 
L 261.570774 223.739058 
L 261.802836 225.05895 
L 262.034898 193.205542 
L 262.26696 209.451345 
L 262.731083 219.860528 
L 262.963145 200.085196 
L 263.427269 215.076057 
L 263.659331 218.454572 
L 263.891393 211.570106 
L 264.123454 224.039994 
L 264.355516 199.805385 
L 264.587578 218.378639 
L 264.81964 208.435227 
L 265.051702 209.360873 
L 265.283764 213.814313 
L 265.747887 199.634072 
L 265.979949 206.704645 
L 266.212011 199.692244 
L 266.444073 206.50322 
L 266.676135 216.852104 
L 266.908197 179.970666 
L 267.140259 197.849757 
L 267.37232 179.254511 
L 267.604382 199.869918 
L 267.836444 190.930292 
L 268.53263 235.059037 
L 268.764692 219.034293 
L 268.996754 235.082216 
L 269.228815 187.214893 
L 269.460877 222.534706 
L 269.692939 221.657069 
L 270.157063 214.426317 
L 270.389125 193.688088 
L 270.621187 210.248695 
L 270.853248 210.657461 
L 271.08531 189.25885 
L 271.317372 186.544502 
L 271.549434 205.763494 
L 271.781496 210.287193 
L 272.013558 225.706097 
L 272.24562 222.805646 
L 272.477681 193.697558 
L 272.709743 192.535026 
L 272.941805 190.758161 
L 273.173867 214.863326 
L 273.405929 206.927542 
L 273.637991 216.481352 
L 273.870053 212.170698 
L 274.102114 213.078076 
L 274.334176 223.711563 
L 274.566238 228.098821 
L 274.7983 227.975752 
L 275.030362 215.26234 
L 275.262424 219.377327 
L 275.494486 229.425096 
L 275.726548 171.090741 
L 275.958609 178.539634 
L 276.190671 198.549342 
L 276.422733 169.821294 
L 276.654795 192.00804 
L 276.886857 165.119828 
L 277.118919 176.877612 
L 277.583042 219.927846 
L 277.815104 206.680772 
L 278.047166 209.391541 
L 278.279228 204.304863 
L 278.51129 193.742374 
L 278.743352 205.856034 
L 278.975414 208.507248 
L 279.207475 209.403264 
L 279.439537 227.392345 
L 279.903661 193.607296 
L 280.135723 221.057814 
L 280.367785 218.803119 
L 280.599847 207.678213 
L 280.831909 220.878903 
L 281.296032 190.988567 
L 281.528094 216.17361 
L 281.760156 190.375816 
L 281.992218 201.007788 
L 282.22428 217.270013 
L 282.456342 202.110537 
L 282.688403 203.099812 
L 283.152527 194.719018 
L 283.384589 181.373189 
L 283.616651 201.3228 
L 283.848713 200.642454 
L 284.080775 221.098905 
L 284.312836 180.236999 
L 284.544898 195.041851 
L 284.77696 181.087372 
L 285.009022 205.06578 
L 285.241084 198.325146 
L 285.937269 168.316275 
L 286.169331 165.41954 
L 286.401393 171.018913 
L 286.865517 187.823488 
L 287.097579 190.987528 
L 287.329641 188.859129 
L 288.025826 178.886154 
L 288.257888 176.302917 
L 288.48995 216.367237 
L 288.722012 175.135973 
L 289.186136 170.702076 
L 289.418197 187.046087 
L 289.650259 189.640975 
L 290.114383 179.692147 
L 290.346445 183.083414 
L 290.578507 182.866058 
L 290.810569 184.680706 
L 291.04263 183.532837 
L 291.506754 175.351689 
L 291.738816 191.095726 
L 291.970878 173.739067 
L 292.20294 169.4053 
L 292.435002 187.223611 
L 292.667063 190.707611 
L 292.899125 174.065759 
L 293.131187 172.561006 
L 293.363249 172.698983 
L 293.827373 173.700392 
L 294.059435 173.807865 
L 294.291497 173.069961 
L 294.523558 171.051375 
L 294.75562 175.312996 
L 294.987682 182.059158 
L 295.683868 164.633461 
L 295.91593 207.981195 
L 296.147991 174.245691 
L 296.380053 184.918985 
L 296.612115 187.62218 
L 296.844177 197.555211 
L 297.076239 217.291531 
L 297.308301 210.961684 
L 297.540363 190.668171 
L 297.772424 157.514375 
L 298.004486 190.553962 
L 298.236548 191.419004 
L 298.46861 190.066051 
L 298.700672 189.430954 
L 298.932734 184.77882 
L 299.628919 143.42103 
L 299.860981 187.942503 
L 300.093043 159.233347 
L 300.325105 157.970862 
L 300.557167 158.775247 
L 300.789229 159.080656 
L 301.021291 157.884111 
L 301.253352 193.225505 
L 301.485414 164.160867 
L 301.717476 160.663811 
L 302.1816 200.336006 
L 302.413662 204.474299 
L 302.645724 204.388661 
L 303.109847 200.027532 
L 303.341909 196.613414 
L 303.573971 198.873104 
L 303.806033 195.731275 
L 304.270157 197.176798 
L 304.502218 172.295886 
L 304.73428 167.218647 
L 304.966342 193.556594 
L 305.198404 191.76723 
L 305.430466 173.59395 
L 305.662528 176.851316 
L 305.89459 161.103348 
L 306.126652 180.734512 
L 306.590775 180.852722 
L 307.054899 182.129994 
L 307.286961 182.987487 
L 307.519023 147.935004 
L 307.751085 169.714012 
L 307.983146 165.865502 
L 308.215208 166.26638 
L 308.679332 171.21188 
L 308.911394 163.28489 
L 309.143456 163.63376 
L 309.375518 163.613945 
L 309.607579 172.969658 
L 309.839641 172.84643 
L 310.303765 168.360278 
L 310.535827 171.242974 
L 310.767889 168.654483 
L 310.999951 157.220298 
L 311.232012 166.271479 
L 311.464074 168.686472 
L 311.696136 194.256164 
L 312.392322 189.499835 
L 312.624384 169.734393 
L 312.856446 163.041132 
L 313.088507 208.177076 
L 313.320569 177.770073 
L 313.552631 169.140286 
L 313.784693 173.134064 
L 314.016755 171.681518 
L 314.248817 131.528379 
L 314.480879 171.532662 
L 314.945002 183.54914 
L 315.409126 190.859747 
L 316.569435 157.067253 
L 317.033559 163.313537 
L 317.265621 192.538828 
L 317.497683 176.935609 
L 318.42593 192.314126 
L 318.890054 193.123531 
L 319.122116 191.993402 
L 319.354178 185.123899 
L 319.58624 183.654503 
L 319.818301 195.677638 
L 320.050363 194.401976 
L 320.282425 194.178218 
L 320.514487 195.950127 
L 320.746549 192.889493 
L 320.978611 196.884939 
L 321.210673 219.642393 
L 321.442734 188.165622 
L 321.674796 206.740608 
L 322.13892 191.105297 
L 322.603044 216.115626 
L 322.835106 183.271073 
L 323.067167 182.031891 
L 323.299229 231.234491 
L 323.531291 234.029464 
L 323.763353 219.004727 
L 323.995415 219.683955 
L 324.227477 201.612452 
L 324.459539 201.057901 
L 325.387786 200.654397 
L 325.619848 198.661086 
L 325.85191 190.453599 
L 326.083972 189.639356 
L 326.316034 210.203474 
L 326.548095 191.076969 
L 326.780157 189.732544 
L 327.012219 193.264239 
L 327.244281 187.224822 
L 327.708405 181.958105 
L 327.940467 183.837375 
L 328.172528 179.424783 
L 328.40459 178.15877 
L 328.636652 182.713733 
L 328.868714 178.894731 
L 329.332838 177.004065 
L 329.5649 189.774444 
L 330.029023 180.938823 
L 330.261085 166.310672 
L 330.493147 160.22224 
L 330.725209 182.414021 
L 330.957271 174.909084 
L 331.189333 182.828861 
L 331.421395 176.318552 
L 331.653456 174.78386 
L 331.885518 182.607662 
L 332.11758 157.817537 
L 332.349642 159.746905 
L 332.581704 193.857001 
L 332.813766 162.55813 
L 333.045828 166.371798 
L 333.742013 160.158564 
L 334.206137 195.914719 
L 334.438199 184.53759 
L 334.670261 194.115704 
L 334.902322 184.6429 
L 335.134384 184.136592 
L 335.598508 184.159616 
L 335.83057 184.193457 
L 336.062632 220.05857 
L 336.294694 178.871458 
L 336.758817 155.407396 
L 337.222941 143.450652 
L 337.687065 138.323945 
L 337.919127 137.391271 
L 338.151189 137.31467 
L 338.38325 137.93289 
L 339.079436 206.186241 
L 339.311498 205.758869 
L 339.54356 207.301077 
L 339.775622 207.847012 
L 340.007683 202.665283 
L 340.239745 208.954305 
L 340.471807 209.932313 
L 340.703869 210.16859 
L 340.935931 204.456034 
L 341.167993 221.48331 
L 341.400055 214.42035 
L 341.632116 215.91424 
L 341.864178 207.934351 
L 342.09624 206.616577 
L 342.328302 206.645478 
L 342.560364 207.354269 
L 342.792426 213.044609 
L 343.024488 214.967972 
L 343.256549 209.90989 
L 343.488611 210.764834 
L 343.952735 209.99173 
L 344.416859 209.736454 
L 344.880983 209.740707 
L 345.113044 190.149781 
L 345.345106 208.384959 
L 345.577168 208.605847 
L 346.041292 209.537226 
L 346.273354 205.453587 
L 346.505416 211.73087 
L 346.737477 212.405813 
L 347.201601 212.663739 
L 347.433663 214.752446 
L 347.665725 195.449352 
L 347.897787 220.945611 
L 348.129849 228.547712 
L 348.36191 218.647651 
L 348.593972 222.625257 
L 348.826034 222.065972 
L 349.058096 219.549453 
L 349.290158 215.414582 
L 349.52222 214.154162 
L 349.754282 217.664474 
L 349.986343 216.759302 
L 350.218405 217.571463 
L 350.450467 194.863556 
L 350.682529 207.18327 
L 350.914591 213.035512 
L 351.146653 211.009677 
L 351.378715 217.25625 
L 351.610777 214.508572 
L 351.842838 215.104318 
L 352.0749 198.046453 
L 352.306962 212.32689 
L 352.539024 197.067799 
L 353.003148 217.49303 
L 353.23521 212.406368 
L 353.467271 218.203752 
L 353.699333 196.39142 
L 353.931395 202.713776 
L 354.163457 205.365109 
L 354.395519 217.049992 
L 354.627581 222.000428 
L 355.323766 76.4331 
L 355.555828 67.914863 
L 355.78789 53.568 
L 356.019952 71.676857 
L 356.484076 55.177157 
L 356.716138 56.400851 
L 356.948199 62.172519 
L 357.180261 60.173577 
L 357.412323 63.905225 
L 357.876447 105.140933 
L 358.340571 147.309551 
L 358.572632 188.225595 
L 358.804694 204.140279 
L 359.036756 210.125652 
L 359.268818 189.982208 
L 359.50088 188.729041 
L 359.965004 192.006924 
L 360.197065 191.474298 
L 362.05356 116.624031 
L 362.517684 110.453316 
L 362.749746 109.534935 
L 362.981808 109.775382 
L 363.21387 110.983517 
L 363.677993 115.731483 
L 364.374179 127.476412 
L 365.070365 144.116711 
L 365.302426 177.113112 
L 365.998612 214.126132 
L 366.230674 216.046627 
L 366.462736 214.179452 
L 366.694798 218.936189 
L 366.926859 214.099113 
L 367.158921 212.726768 
L 367.390983 212.683741 
L 367.855107 213.838858 
L 368.319231 215.578081 
L 368.551292 214.834256 
L 369.247478 201.846023 
L 369.711602 196.494583 
L 369.943664 195.251442 
L 370.175726 195.096579 
L 370.407787 196.071028 
L 370.639849 198.165183 
L 371.103973 205.446483 
L 371.800159 219.051426 
L 373.656653 212.236106 
L 373.888715 191.761539 
L 374.120777 186.239269 
L 375.049025 229.085939 
L 375.281086 220.775993 
L 375.74521 216.701219 
L 375.977272 216.171161 
L 376.209334 216.283356 
L 376.673458 217.481345 
L 376.90552 218.255177 
L 377.137581 224.681824 
L 377.369643 202.886508 
L 377.601705 205.779733 
L 377.833767 218.645451 
L 379.226138 193.537055 
L 379.690262 190.330398 
L 379.922324 173.808332 
L 380.154386 209.470854 
L 380.386447 202.939461 
L 380.618509 203.482945 
L 381.082633 206.256534 
L 381.778819 211.435213 
L 382.01088 223.844044 
L 382.242942 217.072217 
L 382.475004 217.640575 
L 382.939128 219.629793 
L 383.17119 219.507113 
L 383.867375 218.728854 
L 384.099437 218.725883 
L 384.331499 218.913474 
L 384.563561 218.879127 
L 385.259747 213.388767 
L 385.491808 207.870776 
L 385.72387 227.532669 
L 385.955932 227.885177 
L 386.187994 208.012541 
L 386.420056 199.111218 
L 386.652118 197.818942 
L 386.88418 203.638539 
L 387.116241 182.553829 
L 387.348303 174.154536 
L 387.580365 195.456191 
L 387.812427 178.134978 
L 388.044489 171.959818 
L 388.276551 169.019138 
L 388.740675 166.722457 
L 389.204798 166.074462 
L 389.43686 159.914554 
L 389.900984 166.06087 
L 390.133046 147.040344 
L 390.365108 160.265438 
L 390.829231 165.674987 
L 391.061293 144.563094 
L 391.293355 159.910429 
L 391.525417 162.9581 
L 391.757479 141.954375 
L 391.989541 157.824499 
L 392.453664 163.268846 
L 392.685726 164.594645 
L 392.917788 139.321523 
L 393.14985 156.23413 
L 393.613974 161.101526 
L 394.078097 163.41315 
L 394.542221 164.766425 
L 394.774283 165.213872 
L 395.006345 143.32751 
L 395.238407 157.512041 
L 395.70253 162.061161 
L 395.934592 163.407833 
L 396.166654 142.407202 
L 396.398716 156.938278 
L 396.86284 161.73744 
L 397.094902 141.024925 
L 397.326963 155.61373 
L 397.559025 158.508994 
L 397.791087 138.38065 
L 398.023149 153.376015 
L 398.255211 137.125497 
L 398.487273 152.235657 
L 398.487273 152.235657 
" style="fill:none;stroke:#ff7f0e;stroke-linecap:square;stroke-width:1.5;"/>
   </g>
   <g id="patch_3">
    <path d="M 57.6 307.584 
L 57.6 41.472 
" style="fill:none;stroke:#000000;stroke-linecap:square;stroke-linejoin:miter;stroke-width:0.8;"/>
   </g>
   <g id="patch_4">
    <path d="M 414.72 307.584 
L 414.72 41.472 
" style="fill:none;stroke:#000000;stroke-linecap:square;stroke-linejoin:miter;stroke-width:0.8;"/>
   </g>
   <g id="patch_5">
    <path d="M 57.6 307.584 
L 414.72 307.584 
" style="fill:none;stroke:#000000;stroke-linecap:square;stroke-linejoin:miter;stroke-width:0.8;"/>
   </g>
   <g id="patch_6">
    <path d="M 57.6 41.472 
L 414.72 41.472 
" style="fill:none;stroke:#000000;stroke-linecap:square;stroke-linejoin:miter;stroke-width:0.8;"/>
   </g>
  </g>
 </g>
 <defs>
  <clipPath id="pd465860ab2">
   <rect height="266.112" width="357.12" x="57.6" y="41.472"/>
  </clipPath>
 </defs>
</svg>
