<?xml version="1.0" encoding="utf-8" standalone="no"?>
<!DOCTYPE svg PUBLIC "-//W3C//DTD SVG 1.1//EN"
  "http://www.w3.org/Graphics/SVG/1.1/DTD/svg11.dtd">
<!-- Created with matplotlib (https://matplotlib.org/) -->
<svg height="345.6pt" version="1.1" viewBox="0 0 460.8 345.6" width="460.8pt" xmlns="http://www.w3.org/2000/svg" xmlns:xlink="http://www.w3.org/1999/xlink">
 <defs>
  <style type="text/css">
*{stroke-linecap:butt;stroke-linejoin:round;}
  </style>
 </defs>
 <g id="figure_1">
  <g id="patch_1">
   <path d="M 0 345.6 
L 460.8 345.6 
L 460.8 0 
L 0 0 
z
" style="fill:#ffffff;"/>
  </g>
  <g id="axes_1">
   <g id="patch_2">
    <path d="M 57.6 307.584 
L 414.72 307.584 
L 414.72 41.472 
L 57.6 41.472 
z
" style="fill:#ffffff;"/>
   </g>
   <g id="matplotlib.axis_1">
    <g id="xtick_1">
     <g id="line2d_1">
      <defs>
       <path d="M 0 0 
L 0 3.5 
" id="m93da3a5817" style="stroke:#000000;stroke-width:0.8;"/>
      </defs>
      <g>
       <use style="stroke:#000000;stroke-width:0.8;" x="73.832727" xlink:href="#m93da3a5817" y="307.584"/>
      </g>
     </g>
     <g id="text_1">
      <!-- 0 -->
      <defs>
       <path d="M 31.78125 66.40625 
Q 24.171875 66.40625 20.328125 58.90625 
Q 16.5 51.421875 16.5 36.375 
Q 16.5 21.390625 20.328125 13.890625 
Q 24.171875 6.390625 31.78125 6.390625 
Q 39.453125 6.390625 43.28125 13.890625 
Q 47.125 21.390625 47.125 36.375 
Q 47.125 51.421875 43.28125 58.90625 
Q 39.453125 66.40625 31.78125 66.40625 
z
M 31.78125 74.21875 
Q 44.046875 74.21875 50.515625 64.515625 
Q 56.984375 54.828125 56.984375 36.375 
Q 56.984375 17.96875 50.515625 8.265625 
Q 44.046875 -1.421875 31.78125 -1.421875 
Q 19.53125 -1.421875 13.0625 8.265625 
Q 6.59375 17.96875 6.59375 36.375 
Q 6.59375 54.828125 13.0625 64.515625 
Q 19.53125 74.21875 31.78125 74.21875 
z
" id="DejaVuSans-48"/>
      </defs>
      <g transform="translate(70.651477 322.182437)scale(0.1 -0.1)">
       <use xlink:href="#DejaVuSans-48"/>
      </g>
     </g>
    </g>
    <g id="xtick_2">
     <g id="line2d_2">
      <g>
       <use style="stroke:#000000;stroke-width:0.8;" x="120.2451" xlink:href="#m93da3a5817" y="307.584"/>
      </g>
     </g>
     <g id="text_2">
      <!-- 200 -->
      <defs>
       <path d="M 19.1875 8.296875 
L 53.609375 8.296875 
L 53.609375 0 
L 7.328125 0 
L 7.328125 8.296875 
Q 12.9375 14.109375 22.625 23.890625 
Q 32.328125 33.6875 34.8125 36.53125 
Q 39.546875 41.84375 41.421875 45.53125 
Q 43.3125 49.21875 43.3125 52.78125 
Q 43.3125 58.59375 39.234375 62.25 
Q 35.15625 65.921875 28.609375 65.921875 
Q 23.96875 65.921875 18.8125 64.3125 
Q 13.671875 62.703125 7.8125 59.421875 
L 7.8125 69.390625 
Q 13.765625 71.78125 18.9375 73 
Q 24.125 74.21875 28.421875 74.21875 
Q 39.75 74.21875 46.484375 68.546875 
Q 53.21875 62.890625 53.21875 53.421875 
Q 53.21875 48.921875 51.53125 44.890625 
Q 49.859375 40.875 45.40625 35.40625 
Q 44.1875 33.984375 37.640625 27.21875 
Q 31.109375 20.453125 19.1875 8.296875 
z
" id="DejaVuSans-50"/>
      </defs>
      <g transform="translate(110.70135 322.182437)scale(0.1 -0.1)">
       <use xlink:href="#DejaVuSans-50"/>
       <use x="63.623047" xlink:href="#DejaVuSans-48"/>
       <use x="127.246094" xlink:href="#DejaVuSans-48"/>
      </g>
     </g>
    </g>
    <g id="xtick_3">
     <g id="line2d_3">
      <g>
       <use style="stroke:#000000;stroke-width:0.8;" x="166.657472" xlink:href="#m93da3a5817" y="307.584"/>
      </g>
     </g>
     <g id="text_3">
      <!-- 400 -->
      <defs>
       <path d="M 37.796875 64.3125 
L 12.890625 25.390625 
L 37.796875 25.390625 
z
M 35.203125 72.90625 
L 47.609375 72.90625 
L 47.609375 25.390625 
L 58.015625 25.390625 
L 58.015625 17.1875 
L 47.609375 17.1875 
L 47.609375 0 
L 37.796875 0 
L 37.796875 17.1875 
L 4.890625 17.1875 
L 4.890625 26.703125 
z
" id="DejaVuSans-52"/>
      </defs>
      <g transform="translate(157.113722 322.182437)scale(0.1 -0.1)">
       <use xlink:href="#DejaVuSans-52"/>
       <use x="63.623047" xlink:href="#DejaVuSans-48"/>
       <use x="127.246094" xlink:href="#DejaVuSans-48"/>
      </g>
     </g>
    </g>
    <g id="xtick_4">
     <g id="line2d_4">
      <g>
       <use style="stroke:#000000;stroke-width:0.8;" x="213.069845" xlink:href="#m93da3a5817" y="307.584"/>
      </g>
     </g>
     <g id="text_4">
      <!-- 600 -->
      <defs>
       <path d="M 33.015625 40.375 
Q 26.375 40.375 22.484375 35.828125 
Q 18.609375 31.296875 18.609375 23.390625 
Q 18.609375 15.53125 22.484375 10.953125 
Q 26.375 6.390625 33.015625 6.390625 
Q 39.65625 6.390625 43.53125 10.953125 
Q 47.40625 15.53125 47.40625 23.390625 
Q 47.40625 31.296875 43.53125 35.828125 
Q 39.65625 40.375 33.015625 40.375 
z
M 52.59375 71.296875 
L 52.59375 62.3125 
Q 48.875 64.0625 45.09375 64.984375 
Q 41.3125 65.921875 37.59375 65.921875 
Q 27.828125 65.921875 22.671875 59.328125 
Q 17.53125 52.734375 16.796875 39.40625 
Q 19.671875 43.65625 24.015625 45.921875 
Q 28.375 48.1875 33.59375 48.1875 
Q 44.578125 48.1875 50.953125 41.515625 
Q 57.328125 34.859375 57.328125 23.390625 
Q 57.328125 12.15625 50.6875 5.359375 
Q 44.046875 -1.421875 33.015625 -1.421875 
Q 20.359375 -1.421875 13.671875 8.265625 
Q 6.984375 17.96875 6.984375 36.375 
Q 6.984375 53.65625 15.1875 63.9375 
Q 23.390625 74.21875 37.203125 74.21875 
Q 40.921875 74.21875 44.703125 73.484375 
Q 48.484375 72.75 52.59375 71.296875 
z
" id="DejaVuSans-54"/>
      </defs>
      <g transform="translate(203.526095 322.182437)scale(0.1 -0.1)">
       <use xlink:href="#DejaVuSans-54"/>
       <use x="63.623047" xlink:href="#DejaVuSans-48"/>
       <use x="127.246094" xlink:href="#DejaVuSans-48"/>
      </g>
     </g>
    </g>
    <g id="xtick_5">
     <g id="line2d_5">
      <g>
       <use style="stroke:#000000;stroke-width:0.8;" x="259.482217" xlink:href="#m93da3a5817" y="307.584"/>
      </g>
     </g>
     <g id="text_5">
      <!-- 800 -->
      <defs>
       <path d="M 31.78125 34.625 
Q 24.75 34.625 20.71875 30.859375 
Q 16.703125 27.09375 16.703125 20.515625 
Q 16.703125 13.921875 20.71875 10.15625 
Q 24.75 6.390625 31.78125 6.390625 
Q 38.8125 6.390625 42.859375 10.171875 
Q 46.921875 13.96875 46.921875 20.515625 
Q 46.921875 27.09375 42.890625 30.859375 
Q 38.875 34.625 31.78125 34.625 
z
M 21.921875 38.8125 
Q 15.578125 40.375 12.03125 44.71875 
Q 8.5 49.078125 8.5 55.328125 
Q 8.5 64.0625 14.71875 69.140625 
Q 20.953125 74.21875 31.78125 74.21875 
Q 42.671875 74.21875 48.875 69.140625 
Q 55.078125 64.0625 55.078125 55.328125 
Q 55.078125 49.078125 51.53125 44.71875 
Q 48 40.375 41.703125 38.8125 
Q 48.828125 37.15625 52.796875 32.3125 
Q 56.78125 27.484375 56.78125 20.515625 
Q 56.78125 9.90625 50.3125 4.234375 
Q 43.84375 -1.421875 31.78125 -1.421875 
Q 19.734375 -1.421875 13.25 4.234375 
Q 6.78125 9.90625 6.78125 20.515625 
Q 6.78125 27.484375 10.78125 32.3125 
Q 14.796875 37.15625 21.921875 38.8125 
z
M 18.3125 54.390625 
Q 18.3125 48.734375 21.84375 45.5625 
Q 25.390625 42.390625 31.78125 42.390625 
Q 38.140625 42.390625 41.71875 45.5625 
Q 45.3125 48.734375 45.3125 54.390625 
Q 45.3125 60.0625 41.71875 63.234375 
Q 38.140625 66.40625 31.78125 66.40625 
Q 25.390625 66.40625 21.84375 63.234375 
Q 18.3125 60.0625 18.3125 54.390625 
z
" id="DejaVuSans-56"/>
      </defs>
      <g transform="translate(249.938467 322.182437)scale(0.1 -0.1)">
       <use xlink:href="#DejaVuSans-56"/>
       <use x="63.623047" xlink:href="#DejaVuSans-48"/>
       <use x="127.246094" xlink:href="#DejaVuSans-48"/>
      </g>
     </g>
    </g>
    <g id="xtick_6">
     <g id="line2d_6">
      <g>
       <use style="stroke:#000000;stroke-width:0.8;" x="305.89459" xlink:href="#m93da3a5817" y="307.584"/>
      </g>
     </g>
     <g id="text_6">
      <!-- 1000 -->
      <defs>
       <path d="M 12.40625 8.296875 
L 28.515625 8.296875 
L 28.515625 63.921875 
L 10.984375 60.40625 
L 10.984375 69.390625 
L 28.421875 72.90625 
L 38.28125 72.90625 
L 38.28125 8.296875 
L 54.390625 8.296875 
L 54.390625 0 
L 12.40625 0 
z
" id="DejaVuSans-49"/>
      </defs>
      <g transform="translate(293.16959 322.182437)scale(0.1 -0.1)">
       <use xlink:href="#DejaVuSans-49"/>
       <use x="63.623047" xlink:href="#DejaVuSans-48"/>
       <use x="127.246094" xlink:href="#DejaVuSans-48"/>
       <use x="190.869141" xlink:href="#DejaVuSans-48"/>
      </g>
     </g>
    </g>
    <g id="xtick_7">
     <g id="line2d_7">
      <g>
       <use style="stroke:#000000;stroke-width:0.8;" x="352.306962" xlink:href="#m93da3a5817" y="307.584"/>
      </g>
     </g>
     <g id="text_7">
      <!-- 1200 -->
      <g transform="translate(339.581962 322.182437)scale(0.1 -0.1)">
       <use xlink:href="#DejaVuSans-49"/>
       <use x="63.623047" xlink:href="#DejaVuSans-50"/>
       <use x="127.246094" xlink:href="#DejaVuSans-48"/>
       <use x="190.869141" xlink:href="#DejaVuSans-48"/>
      </g>
     </g>
    </g>
    <g id="xtick_8">
     <g id="line2d_8">
      <g>
       <use style="stroke:#000000;stroke-width:0.8;" x="398.719335" xlink:href="#m93da3a5817" y="307.584"/>
      </g>
     </g>
     <g id="text_8">
      <!-- 1400 -->
      <g transform="translate(385.994335 322.182437)scale(0.1 -0.1)">
       <use xlink:href="#DejaVuSans-49"/>
       <use x="63.623047" xlink:href="#DejaVuSans-52"/>
       <use x="127.246094" xlink:href="#DejaVuSans-48"/>
       <use x="190.869141" xlink:href="#DejaVuSans-48"/>
      </g>
     </g>
    </g>
   </g>
   <g id="matplotlib.axis_2">
    <g id="ytick_1">
     <g id="line2d_9">
      <defs>
       <path d="M 0 0 
L -3.5 0 
" id="m9f00654089" style="stroke:#000000;stroke-width:0.8;"/>
      </defs>
      <g>
       <use style="stroke:#000000;stroke-width:0.8;" x="57.6" xlink:href="#m9f00654089" y="303.487025"/>
      </g>
     </g>
     <g id="text_9">
      <!-- 0.0 -->
      <defs>
       <path d="M 10.6875 12.40625 
L 21 12.40625 
L 21 0 
L 10.6875 0 
z
" id="DejaVuSans-46"/>
      </defs>
      <g transform="translate(34.696875 307.286244)scale(0.1 -0.1)">
       <use xlink:href="#DejaVuSans-48"/>
       <use x="63.623047" xlink:href="#DejaVuSans-46"/>
       <use x="95.410156" xlink:href="#DejaVuSans-48"/>
      </g>
     </g>
    </g>
    <g id="ytick_2">
     <g id="line2d_10">
      <g>
       <use style="stroke:#000000;stroke-width:0.8;" x="57.6" xlink:href="#m9f00654089" y="251.614085"/>
      </g>
     </g>
     <g id="text_10">
      <!-- 0.2 -->
      <g transform="translate(34.696875 255.413304)scale(0.1 -0.1)">
       <use xlink:href="#DejaVuSans-48"/>
       <use x="63.623047" xlink:href="#DejaVuSans-46"/>
       <use x="95.410156" xlink:href="#DejaVuSans-50"/>
      </g>
     </g>
    </g>
    <g id="ytick_3">
     <g id="line2d_11">
      <g>
       <use style="stroke:#000000;stroke-width:0.8;" x="57.6" xlink:href="#m9f00654089" y="199.741145"/>
      </g>
     </g>
     <g id="text_11">
      <!-- 0.4 -->
      <g transform="translate(34.696875 203.540364)scale(0.1 -0.1)">
       <use xlink:href="#DejaVuSans-48"/>
       <use x="63.623047" xlink:href="#DejaVuSans-46"/>
       <use x="95.410156" xlink:href="#DejaVuSans-52"/>
      </g>
     </g>
    </g>
    <g id="ytick_4">
     <g id="line2d_12">
      <g>
       <use style="stroke:#000000;stroke-width:0.8;" x="57.6" xlink:href="#m9f00654089" y="147.868205"/>
      </g>
     </g>
     <g id="text_12">
      <!-- 0.6 -->
      <g transform="translate(34.696875 151.667424)scale(0.1 -0.1)">
       <use xlink:href="#DejaVuSans-48"/>
       <use x="63.623047" xlink:href="#DejaVuSans-46"/>
       <use x="95.410156" xlink:href="#DejaVuSans-54"/>
      </g>
     </g>
    </g>
    <g id="ytick_5">
     <g id="line2d_13">
      <g>
       <use style="stroke:#000000;stroke-width:0.8;" x="57.6" xlink:href="#m9f00654089" y="95.995266"/>
      </g>
     </g>
     <g id="text_13">
      <!-- 0.8 -->
      <g transform="translate(34.696875 99.794484)scale(0.1 -0.1)">
       <use xlink:href="#DejaVuSans-48"/>
       <use x="63.623047" xlink:href="#DejaVuSans-46"/>
       <use x="95.410156" xlink:href="#DejaVuSans-56"/>
      </g>
     </g>
    </g>
    <g id="ytick_6">
     <g id="line2d_14">
      <g>
       <use style="stroke:#000000;stroke-width:0.8;" x="57.6" xlink:href="#m9f00654089" y="44.122326"/>
      </g>
     </g>
     <g id="text_14">
      <!-- 1.0 -->
      <g transform="translate(34.696875 47.921544)scale(0.1 -0.1)">
       <use xlink:href="#DejaVuSans-49"/>
       <use x="63.623047" xlink:href="#DejaVuSans-46"/>
       <use x="95.410156" xlink:href="#DejaVuSans-48"/>
      </g>
     </g>
    </g>
   </g>
   <g id="line2d_15">
    <path clip-path="url(#p8477aece85)" d="M 73.832727 295.488 
L 74.296851 292.982507 
L 74.528913 289.18257 
L 74.760975 289.081771 
L 74.993037 286.943921 
L 75.225098 287.17089 
L 75.45716 290.53789 
L 75.689222 285.192905 
L 75.921284 287.303209 
L 76.153346 286.280995 
L 76.385408 284.317627 
L 76.61747 287.122638 
L 76.849531 285.695262 
L 77.081593 285.099495 
L 77.313655 286.608735 
L 77.545717 283.919325 
L 77.777779 284.415936 
L 78.009841 284.566046 
L 78.241903 285.055347 
L 78.706026 286.931381 
L 78.938088 287.054079 
L 79.402212 285.442166 
L 79.634274 285.970119 
L 79.866336 285.729185 
L 80.098398 285.971121 
L 80.330459 284.82048 
L 80.562521 287.403237 
L 80.794583 287.079252 
L 81.026645 286.193889 
L 81.258707 287.930592 
L 81.490769 286.746636 
L 81.722831 288.600717 
L 81.954892 287.089839 
L 82.186954 283.397532 
L 82.419016 284.077136 
L 82.88314 284.671929 
L 83.115202 285.963574 
L 83.579325 289.600639 
L 83.811387 287.678808 
L 84.043449 284.168367 
L 84.275511 289.810306 
L 84.507573 289.083658 
L 84.739635 291.830105 
L 85.203759 287.715279 
L 85.43582 285.676984 
L 85.899944 287.667964 
L 86.132006 286.602365 
L 86.364068 286.143661 
L 86.59613 282.973067 
L 86.828192 287.050999 
L 87.060253 286.535447 
L 87.292315 288.144819 
L 87.524377 287.106999 
L 87.756439 288.623622 
L 87.988501 283.018838 
L 88.220563 282.366975 
L 88.452625 283.01237 
L 88.684686 281.514498 
L 88.916748 285.631546 
L 89.14881 285.909632 
L 89.380872 286.818208 
L 89.612934 284.482674 
L 89.844996 284.76116 
L 90.077058 283.644374 
L 90.30912 281.620417 
L 90.541181 281.819433 
L 91.005305 287.948801 
L 91.237367 287.459289 
L 91.469429 286.351316 
L 91.701491 283.928044 
L 92.165614 288.642471 
L 92.629738 286.579413 
L 92.8618 287.872009 
L 93.093862 288.440073 
L 93.325924 288.179793 
L 93.790047 285.193051 
L 94.022109 285.832051 
L 94.254171 287.146597 
L 94.486233 286.770569 
L 94.718295 286.104841 
L 94.950357 287.40399 
L 95.182419 287.119661 
L 95.41448 285.468013 
L 95.646542 284.881061 
L 95.878604 285.706074 
L 96.110666 280.224487 
L 96.342728 286.892609 
L 96.806852 285.587433 
L 97.038914 286.702221 
L 97.270975 285.272091 
L 97.503037 282.480826 
L 97.735099 284.805492 
L 97.967161 284.308698 
L 98.199223 284.783278 
L 98.431285 285.975718 
L 98.663347 288.258621 
L 98.895408 286.888519 
L 99.12747 286.487109 
L 99.359532 282.360865 
L 99.591594 285.979204 
L 99.823656 286.301146 
L 100.055718 288.567283 
L 100.28778 285.279171 
L 100.519841 285.716083 
L 100.751903 288.138191 
L 100.983965 286.206422 
L 101.216027 285.718959 
L 101.680151 285.802969 
L 101.912213 286.701434 
L 102.144274 285.750301 
L 102.376336 285.377949 
L 102.608398 285.866712 
L 102.84046 288.632432 
L 103.304584 284.876873 
L 103.536646 280.697972 
L 104.000769 285.616867 
L 104.232831 285.699496 
L 104.464893 283.274795 
L 104.696955 286.099645 
L 104.929017 285.46114 
L 105.161079 281.374618 
L 105.393141 282.783276 
L 105.625202 283.345664 
L 105.857264 285.6656 
L 106.089326 283.043996 
L 106.321388 286.748173 
L 106.55345 287.955086 
L 106.785512 282.923485 
L 107.017574 284.047165 
L 107.249635 286.617393 
L 107.713759 288.359804 
L 107.945821 286.156535 
L 108.409945 285.555883 
L 108.642007 285.297469 
L 108.874068 285.736504 
L 109.338192 284.262839 
L 109.570254 285.458789 
L 109.802316 285.461941 
L 110.034378 285.100366 
L 110.26644 285.996514 
L 110.498502 284.874225 
L 110.730563 284.552455 
L 110.962625 284.651307 
L 111.194687 287.128316 
L 111.426749 286.32424 
L 111.658811 288.47822 
L 111.890873 284.533959 
L 112.122935 284.27936 
L 112.354996 285.357204 
L 112.81912 280.0906 
L 113.051182 282.334325 
L 113.515306 287.981549 
L 113.747368 290.579192 
L 114.443553 284.780783 
L 114.675615 281.421015 
L 114.907677 284.256821 
L 115.139739 284.278285 
L 115.371801 282.304803 
L 115.603862 284.845312 
L 116.067986 281.613679 
L 116.300048 281.962001 
L 116.53211 281.402467 
L 116.764172 282.680917 
L 116.996234 281.835161 
L 117.228296 281.552659 
L 117.460357 282.527658 
L 117.924481 282.724377 
L 118.156543 282.688629 
L 118.388605 287.987939 
L 118.620667 278.939247 
L 118.852729 280.719505 
L 119.08479 284.786369 
L 119.316852 283.340738 
L 119.780976 288.026677 
L 120.013038 280.978791 
L 120.2451 287.548853 
L 120.477162 282.539687 
L 120.709223 282.326325 
L 120.941285 284.250557 
L 121.173347 284.545858 
L 121.405409 284.063907 
L 121.637471 279.271867 
L 121.869533 285.003298 
L 122.101595 280.260781 
L 122.333657 282.395198 
L 122.565718 285.68491 
L 122.79778 282.577265 
L 123.029842 281.848379 
L 123.261904 283.226201 
L 123.493966 279.827508 
L 123.726028 278.191622 
L 123.95809 281.912662 
L 124.190151 280.159899 
L 124.422213 281.228878 
L 124.654275 280.390575 
L 124.886337 280.850717 
L 125.118399 281.864723 
L 125.582523 282.745056 
L 125.814584 283.934919 
L 126.046646 277.360997 
L 126.278708 277.990454 
L 126.51077 282.270369 
L 126.742832 282.433558 
L 126.974894 282.433389 
L 127.206956 283.201191 
L 127.671079 285.86618 
L 127.903141 285.095843 
L 128.135203 284.94115 
L 128.367265 281.671019 
L 129.063451 285.410472 
L 129.295512 279.373428 
L 129.527574 280.864182 
L 129.991698 279.644649 
L 130.22376 282.426425 
L 130.455822 280.929894 
L 130.687884 282.455168 
L 130.919945 280.591178 
L 131.152007 277.72461 
L 131.384069 278.528921 
L 131.616131 274.553793 
L 131.848193 278.172788 
L 132.080255 278.163447 
L 132.312317 278.279541 
L 132.544378 279.108934 
L 132.77644 279.015742 
L 133.240564 285.063119 
L 133.472626 276.09107 
L 133.93675 283.472273 
L 134.168811 281.356002 
L 134.400873 285.018343 
L 134.632935 281.662213 
L 134.864997 282.677583 
L 135.097059 284.792368 
L 135.329121 284.850698 
L 135.793245 287.449355 
L 136.48943 279.977279 
L 136.721492 283.567593 
L 136.953554 281.650535 
L 137.185616 283.084663 
L 137.417678 282.304108 
L 137.649739 282.018577 
L 137.881801 283.713609 
L 138.113863 279.775331 
L 138.345925 281.307964 
L 139.042111 278.653446 
L 139.274172 275.742502 
L 139.506234 278.459394 
L 139.738296 279.213893 
L 139.970358 276.758499 
L 140.20242 280.089232 
L 140.434482 280.971735 
L 140.666544 278.610945 
L 140.898605 286.166516 
L 141.130667 274.468564 
L 141.826853 279.854731 
L 142.058915 284.010527 
L 142.290977 281.090364 
L 142.523039 284.43539 
L 142.7551 285.451141 
L 142.987162 284.997063 
L 143.219224 288.755541 
L 143.683348 285.267701 
L 144.147472 281.455195 
L 144.379533 283.54227 
L 144.611595 280.373998 
L 144.843657 282.322373 
L 145.075719 280.206387 
L 145.307781 281.28425 
L 145.539843 280.84626 
L 145.771905 279.346485 
L 146.003966 279.443263 
L 146.236028 280.864242 
L 146.46809 278.637883 
L 146.932214 278.875674 
L 147.396338 275.148831 
L 147.6284 279.353088 
L 148.092523 280.36165 
L 148.324585 280.246688 
L 148.556647 287.705461 
L 148.788709 275.93359 
L 149.020771 279.222128 
L 149.252833 279.640394 
L 149.484894 283.334935 
L 149.716956 283.922016 
L 149.949018 281.684212 
L 150.18108 280.849807 
L 150.645204 284.934948 
L 150.877266 284.043169 
L 151.109327 287.732301 
L 151.805513 282.414152 
L 152.037575 282.402441 
L 152.269637 281.517104 
L 152.73376 280.836225 
L 152.965822 279.524862 
L 153.429946 279.616648 
L 153.662008 278.395316 
L 153.89407 282.539394 
L 154.126132 277.819343 
L 154.358194 278.04718 
L 154.590255 275.02727 
L 154.822317 274.285129 
L 155.054379 274.111658 
L 155.286441 278.40175 
L 155.750565 279.168258 
L 155.982627 277.035217 
L 156.214688 283.498756 
L 156.44675 280.235499 
L 156.678812 281.146866 
L 156.910874 282.751389 
L 157.142936 279.003128 
L 157.839121 285.056032 
L 158.071183 285.556363 
L 158.303245 282.817487 
L 158.535307 282.893347 
L 158.767369 283.177292 
L 158.999431 286.049295 
L 159.695616 279.037263 
L 159.927678 280.789803 
L 160.15974 278.562544 
L 160.391802 278.406022 
L 160.623864 278.584519 
L 160.855926 280.528545 
L 161.087988 278.038174 
L 161.320049 269.124291 
L 161.552111 279.901357 
L 162.016235 271.67299 
L 162.248297 274.828057 
L 162.480359 274.70495 
L 162.712421 275.25809 
L 162.944482 277.484206 
L 163.408606 279.011846 
L 163.640668 281.627317 
L 163.87273 282.140369 
L 164.104792 277.832793 
L 164.336854 278.431578 
L 164.800977 277.11119 
L 165.033039 281.262989 
L 165.265101 280.817964 
L 165.729225 283.01477 
L 165.961287 282.259801 
L 166.193348 281.032872 
L 166.42541 278.115713 
L 166.657472 285.136898 
L 167.353658 278.922093 
L 167.58572 280.599691 
L 167.817782 278.378157 
L 168.049843 278.9832 
L 168.281905 278.35636 
L 168.513967 279.022535 
L 168.746029 278.961872 
L 169.210153 277.0219 
L 169.442215 278.55925 
L 169.674276 276.087679 
L 169.906338 274.89101 
L 170.1384 276.554814 
L 170.370462 275.713357 
L 170.834586 278.649894 
L 171.066648 279.019592 
L 171.298709 284.961974 
L 171.530771 274.101652 
L 171.994895 279.577538 
L 172.226957 279.089811 
L 172.459019 282.614777 
L 172.691081 278.916452 
L 173.155204 281.911846 
L 173.387266 280.826407 
L 173.619328 283.33016 
L 174.083452 280.071342 
L 174.315514 285.523053 
L 174.547576 284.470927 
L 175.011699 278.560261 
L 175.243761 279.841902 
L 175.475823 277.131271 
L 175.707885 278.990076 
L 175.939947 277.671466 
L 176.172009 278.1225 
L 176.40407 278.305362 
L 176.636132 275.990885 
L 177.100256 276.832972 
L 177.56438 276.066083 
L 178.028503 273.888685 
L 178.492627 278.740246 
L 178.724689 279.577338 
L 178.956751 284.466389 
L 179.188813 275.165148 
L 179.420875 276.914022 
L 179.652937 281.228412 
L 179.884998 278.741905 
L 180.11706 279.762 
L 180.349122 279.076658 
L 180.581184 279.097607 
L 180.813246 280.694921 
L 181.045308 283.50998 
L 181.27737 283.763389 
L 181.741493 280.177994 
L 181.973555 285.641824 
L 182.205617 284.881072 
L 182.669741 278.625584 
L 182.901803 280.29982 
L 183.133864 277.299183 
L 183.365926 278.110032 
L 183.597988 276.077321 
L 183.83005 275.533667 
L 184.062112 275.543901 
L 184.294174 272.977881 
L 184.758297 279.506468 
L 185.222421 274.096962 
L 185.454483 274.999313 
L 185.686545 273.903973 
L 185.918607 278.423042 
L 186.382731 278.771827 
L 186.614792 282.52553 
L 186.846854 284.362139 
L 187.078916 275.894386 
L 187.310978 276.589489 
L 187.54304 278.050717 
L 187.775102 276.290909 
L 188.007164 278.963143 
L 188.239225 278.51957 
L 188.703349 280.391047 
L 188.935411 282.912117 
L 189.167473 283.755916 
L 189.399535 280.529678 
L 189.631597 280.79323 
L 189.863658 284.481349 
L 190.09572 280.425128 
L 190.327782 279.210823 
L 190.559844 279.963879 
L 190.791906 279.990511 
L 191.25603 274.516775 
L 191.488091 269.387342 
L 191.720153 270.1405 
L 191.952215 271.947307 
L 192.184277 269.118983 
L 192.416339 268.369413 
L 192.648401 271.812061 
L 192.880463 260.86842 
L 193.112525 268.401915 
L 193.344586 268.373171 
L 193.80871 276.012892 
L 194.040772 275.955578 
L 194.504896 283.973376 
L 194.736958 276.044986 
L 194.969019 280.10796 
L 195.201081 279.326906 
L 195.665205 282.738177 
L 195.897267 281.371877 
L 196.129329 281.763719 
L 196.361391 280.609997 
L 196.593452 281.615151 
L 196.825514 280.507958 
L 197.057576 280.881781 
L 197.289638 284.766688 
L 197.5217 282.195575 
L 197.753762 280.891443 
L 197.985824 280.470111 
L 198.449947 278.217155 
L 199.146133 270.124866 
L 199.378195 272.347828 
L 199.610257 270.694491 
L 199.842319 270.165226 
L 200.07438 266.278794 
L 200.306442 266.0036 
L 200.538504 261.308102 
L 200.770566 264.137478 
L 201.002628 261.516218 
L 201.466752 269.738116 
L 201.698813 268.328111 
L 202.162937 277.731341 
L 202.394999 271.342424 
L 202.627061 271.845222 
L 203.091185 278.460631 
L 203.323246 278.250191 
L 203.555308 283.006121 
L 203.78737 280.850505 
L 204.019432 280.33952 
L 204.251494 281.525843 
L 204.483556 281.078754 
L 204.715618 277.372857 
L 204.94768 284.195494 
L 205.411803 279.639566 
L 205.643865 279.185054 
L 205.875927 278.225388 
L 206.107989 270.7166 
L 206.340051 270.641298 
L 206.804174 265.418661 
L 207.036236 268.396587 
L 207.50036 265.773347 
L 207.732422 262.635617 
L 208.196546 265.248719 
L 208.428607 260.973123 
L 208.660669 251.726241 
L 208.892731 255.83589 
L 209.124793 262.217775 
L 209.356855 264.183264 
L 209.820979 272.399689 
L 210.05304 267.85922 
L 210.285102 272.467367 
L 210.517164 272.102204 
L 210.749226 274.531535 
L 210.981288 275.747303 
L 211.21335 277.675637 
L 211.445412 277.201873 
L 211.677474 277.712186 
L 211.909535 279.053099 
L 212.141597 278.592271 
L 212.373659 276.785862 
L 212.605721 283.59305 
L 213.069845 278.551476 
L 213.301907 279.035339 
L 213.533968 277.11915 
L 213.76603 270.310834 
L 214.462216 261.626422 
L 214.694278 266.932757 
L 214.92634 261.278725 
L 215.158401 258.623142 
L 215.390463 260.217187 
L 215.622525 259.204122 
L 215.854587 255.536047 
L 216.086649 259.871182 
L 216.318711 252.531776 
L 216.550773 256.122326 
L 216.782834 265.445261 
L 217.014896 260.166044 
L 217.246958 274.95028 
L 217.47902 277.645971 
L 217.711082 268.145274 
L 217.943144 268.223114 
L 218.175206 269.124067 
L 218.407268 275.653103 
L 218.639329 278.321414 
L 218.871391 278.963115 
L 219.103453 278.416404 
L 219.335515 279.662464 
L 219.567577 279.718162 
L 219.799639 281.376663 
L 220.031701 277.628466 
L 220.263762 279.761661 
L 220.495824 280.190644 
L 220.727886 275.063342 
L 220.959948 273.75831 
L 221.19201 273.360835 
L 221.424072 265.609831 
L 222.120257 259.671138 
L 222.352319 262.267309 
L 223.048505 256.789913 
L 223.280567 266.830746 
L 223.512629 256.299876 
L 223.74469 255.983719 
L 223.976752 256.743279 
L 224.208814 263.370477 
L 224.440876 260.614786 
L 224.672938 260.363704 
L 224.905 271.437859 
L 225.137062 272.48334 
L 225.369123 266.077193 
L 225.601185 266.338513 
L 225.833247 272.892139 
L 226.065309 272.4213 
L 226.297371 276.777769 
L 226.529433 276.987087 
L 226.761495 277.36207 
L 226.993556 278.24917 
L 227.225618 278.025131 
L 227.45768 279.036654 
L 227.921804 274.092907 
L 228.153866 276.121107 
L 228.617989 274.797541 
L 228.850051 272.399108 
L 229.082113 264.586297 
L 229.778299 257.412004 
L 230.010361 261.980929 
L 230.474484 256.379575 
L 230.706546 254.699568 
L 230.938608 256.042949 
L 231.17067 265.148857 
L 231.402732 254.848826 
L 231.634794 263.097398 
L 231.866856 264.193283 
L 232.098917 257.722901 
L 232.330979 263.739259 
L 232.563041 258.096679 
L 232.795103 265.732747 
L 233.027165 262.51477 
L 233.259227 263.658123 
L 233.491289 270.24329 
L 233.955412 275.475646 
L 234.187474 276.242103 
L 234.419536 275.326014 
L 234.651598 275.342308 
L 234.88366 276.238324 
L 235.115722 275.932719 
L 235.579845 273.12114 
L 235.811907 274.973068 
L 236.508093 271.595615 
L 236.972217 260.852301 
L 237.204278 257.788664 
L 237.43634 256.504533 
L 237.668402 260.318169 
L 237.900464 255.585917 
L 238.132526 256.477533 
L 238.59665 255.086908 
L 238.828711 259.183505 
L 239.060773 254.299798 
L 239.292835 252.584427 
L 239.524897 264.673426 
L 239.756959 256.956038 
L 239.989021 260.10969 
L 240.221083 265.17007 
L 240.453144 264.470833 
L 240.685206 261.741837 
L 241.14933 270.408383 
L 241.381392 271.174932 
L 241.613454 273.769466 
L 241.845516 274.620353 
L 242.077577 274.796237 
L 242.309639 275.120598 
L 242.541701 275.811967 
L 242.773763 276.04422 
L 243.005825 273.812979 
L 243.237887 276.935643 
L 243.469949 276.812008 
L 243.934072 271.624482 
L 244.166134 271.900973 
L 244.398196 264.187075 
L 244.630258 260.717575 
L 244.86232 264.155293 
L 245.094382 255.79017 
L 245.326444 259.312638 
L 245.558505 255.08895 
L 245.790567 263.104505 
L 246.022629 253.547816 
L 246.254691 262.04846 
L 246.486753 254.317681 
L 246.718815 253.516127 
L 246.950877 253.827568 
L 247.182938 263.021351 
L 247.415 255.972048 
L 247.647062 261.402411 
L 247.879124 259.816557 
L 248.111186 266.793538 
L 248.343248 260.456142 
L 249.039433 271.806577 
L 249.271495 272.802036 
L 249.503557 272.263001 
L 249.735619 274.392124 
L 249.967681 273.208484 
L 250.431805 277.990149 
L 250.663866 277.214625 
L 250.895928 274.551232 
L 251.12799 277.777304 
L 251.592114 273.48258 
L 251.824176 272.513718 
L 252.056238 263.962702 
L 252.288299 262.278914 
L 252.752423 256.515896 
L 252.984485 260.597983 
L 253.216547 256.272077 
L 253.448609 254.671363 
L 253.680671 254.033171 
L 253.912732 257.201878 
L 254.608918 252.261864 
L 254.84098 264.548498 
L 255.073042 256.785056 
L 255.305104 259.614691 
L 255.537166 259.459751 
L 255.769227 263.280312 
L 256.001289 258.192734 
L 256.233351 261.812444 
L 256.697475 270.359974 
L 256.929537 270.524449 
L 257.161599 274.493908 
L 257.39366 274.996517 
L 257.625722 277.163784 
L 257.857784 276.403034 
L 258.089846 279.397304 
L 258.55397 276.534901 
L 258.786032 281.167177 
L 259.482217 273.211694 
L 259.714279 272.124467 
L 259.946341 263.400443 
L 260.178403 261.143602 
L 260.410465 257.728154 
L 260.642526 261.284563 
L 260.874588 259.654546 
L 261.10665 254.032365 
L 261.338712 252.871889 
L 261.570774 254.388533 
L 261.802836 253.684763 
L 262.034898 254.131733 
L 262.26696 252.053346 
L 262.499021 263.768697 
L 262.731083 254.680286 
L 262.963145 257.047072 
L 263.195207 256.931976 
L 263.427269 261.307441 
L 263.659331 256.80544 
L 264.123454 266.534347 
L 264.355516 269.804153 
L 264.587578 269.834039 
L 264.81964 272.264034 
L 265.051702 273.429568 
L 265.283764 276.319845 
L 265.515826 274.850323 
L 265.747887 277.847423 
L 265.979949 277.805075 
L 266.212011 274.926305 
L 266.444073 279.489271 
L 266.676135 277.938922 
L 266.908197 273.757465 
L 267.140259 274.461141 
L 267.37232 271.940822 
L 267.836444 260.644901 
L 268.068506 258.006867 
L 268.300568 262.017595 
L 268.53263 262.662702 
L 268.764692 255.781343 
L 268.996754 254.197377 
L 269.460877 257.491963 
L 269.692939 255.784791 
L 269.925001 258.497887 
L 270.157063 254.057647 
L 270.389125 253.204862 
L 270.621187 258.242904 
L 270.853248 257.190859 
L 271.08531 261.16313 
L 271.317372 256.832716 
L 271.549434 257.599473 
L 272.013558 267.957038 
L 272.24562 268.478548 
L 272.477681 270.877734 
L 272.709743 275.165405 
L 272.941805 273.299915 
L 273.173867 274.053987 
L 273.405929 275.357118 
L 273.637991 277.681137 
L 273.870053 273.673908 
L 274.102114 277.077672 
L 274.334176 274.433849 
L 275.030362 270.76325 
L 275.494486 259.942808 
L 275.726548 261.876386 
L 275.958609 261.876681 
L 276.654795 254.690798 
L 276.886857 255.273614 
L 277.350981 255.087154 
L 277.583042 253.726719 
L 277.815104 253.040049 
L 278.047166 251.03868 
L 278.279228 250.872507 
L 278.51129 257.030315 
L 279.207475 252.645033 
L 279.439537 261.542381 
L 279.671599 265.247434 
L 279.903661 266.336178 
L 280.135723 271.351262 
L 280.599847 274.554803 
L 280.831909 273.223315 
L 281.06397 272.654627 
L 281.296032 275.189148 
L 281.528094 273.704532 
L 281.760156 274.197649 
L 281.992218 275.081899 
L 282.456342 270.127977 
L 282.688403 270.263451 
L 283.152527 259.237783 
L 283.384589 256.974451 
L 283.616651 259.10134 
L 283.848713 256.769675 
L 284.080775 257.586238 
L 284.312836 253.042123 
L 284.544898 253.008952 
L 284.77696 253.895828 
L 285.009022 252.218771 
L 285.473146 256.425223 
L 285.705208 251.294482 
L 285.937269 250.906192 
L 286.169331 261.165037 
L 286.401393 254.296495 
L 286.633455 254.456667 
L 286.865517 253.862273 
L 287.329641 264.498946 
L 287.561703 266.258089 
L 287.793764 269.913613 
L 288.025826 270.885351 
L 288.257888 273.683865 
L 288.48995 274.440169 
L 288.722012 272.746471 
L 288.954074 274.823573 
L 289.186136 274.879414 
L 289.418197 272.316608 
L 289.650259 275.499801 
L 289.882321 274.77218 
L 290.114383 273.530305 
L 290.346445 272.921985 
L 290.578507 262.028023 
L 291.04263 256.621238 
L 291.274692 258.907461 
L 291.738816 254.13234 
L 291.970878 253.682531 
L 292.20294 253.890752 
L 292.667063 253.602227 
L 292.899125 255.105505 
L 293.131187 254.550031 
L 293.595311 252.657743 
L 293.827373 256.944158 
L 294.059435 254.31131 
L 294.291497 258.824791 
L 294.523558 253.503763 
L 294.75562 264.581655 
L 294.987682 265.373333 
L 295.219744 266.746677 
L 295.451806 266.947796 
L 295.91593 272.388579 
L 296.147991 273.896718 
L 296.380053 270.4643 
L 296.612115 273.611501 
L 296.844177 272.396497 
L 297.076239 272.75019 
L 297.308301 273.580998 
L 297.540363 272.353698 
L 297.772424 268.71956 
L 298.004486 271.315672 
L 298.700672 257.22208 
L 298.932734 261.703898 
L 299.164796 256.899691 
L 299.396857 258.430093 
L 299.628919 255.004144 
L 299.860981 254.675786 
L 300.093043 257.343484 
L 300.325105 253.422535 
L 300.557167 255.76847 
L 301.021291 254.077287 
L 301.253352 252.395473 
L 301.485414 259.568854 
L 301.717476 258.900102 
L 302.1816 253.589068 
L 302.645724 263.229099 
L 303.109847 269.590587 
L 303.341909 270.849181 
L 303.573971 273.408634 
L 303.806033 273.677667 
L 304.038095 273.183295 
L 304.270157 274.041861 
L 304.502218 272.780013 
L 304.73428 272.383897 
L 304.966342 273.388911 
L 305.198404 272.414212 
L 305.430466 268.544683 
L 305.662528 271.486479 
L 305.89459 262.201625 
L 306.358713 255.916349 
L 306.590775 255.991796 
L 307.054899 256.701756 
L 307.286961 255.091488 
L 307.519023 257.868885 
L 307.751085 256.074538 
L 307.983146 259.915741 
L 308.215208 257.342004 
L 308.44727 257.547951 
L 308.911394 255.75611 
L 309.143456 260.296836 
L 309.839641 257.304087 
L 310.071703 257.100152 
L 310.767889 268.91801 
L 310.999951 271.614393 
L 311.232012 272.469576 
L 311.464074 270.154661 
L 311.696136 272.614794 
L 311.928198 272.193848 
L 312.16026 272.323627 
L 312.392322 272.905886 
L 312.624384 272.131214 
L 312.856446 273.014209 
L 313.088507 270.386959 
L 313.552631 262.078728 
L 314.248817 255.989573 
L 314.480879 257.994014 
L 314.945002 255.740082 
L 315.177064 256.921651 
L 315.409126 259.483892 
L 315.641188 264.649912 
L 315.87325 257.205005 
L 316.105312 261.10595 
L 316.337373 256.879027 
L 316.569435 259.648216 
L 316.801497 266.343885 
L 317.033559 260.064168 
L 317.265621 258.486621 
L 317.497683 258.777273 
L 317.729745 256.618925 
L 317.961806 263.335185 
L 318.657992 268.733088 
L 318.890054 268.861657 
L 319.122116 269.148002 
L 319.354178 272.70074 
L 319.58624 271.688535 
L 319.818301 271.843265 
L 320.050363 275.518841 
L 320.282425 273.201284 
L 320.514487 273.399201 
L 320.746549 272.91202 
L 320.978611 267.804748 
L 321.210673 267.106882 
L 321.442734 260.772248 
L 321.674796 258.154607 
L 321.906858 263.794747 
L 322.13892 259.728062 
L 322.370982 259.624272 
L 322.603044 257.951074 
L 322.835106 260.754611 
L 323.067167 261.505827 
L 323.299229 263.539677 
L 323.531291 260.369418 
L 323.763353 259.746203 
L 323.995415 257.20235 
L 324.459539 262.221117 
L 324.6916 260.141949 
L 324.923662 259.400011 
L 325.155724 256.810622 
L 325.387786 258.038332 
L 325.85191 266.909 
L 326.316034 271.200823 
L 326.548095 271.961731 
L 326.780157 272.029175 
L 327.012219 273.21549 
L 327.244281 272.812832 
L 327.476343 273.463421 
L 327.708405 277.078999 
L 328.172528 274.523844 
L 328.40459 274.4363 
L 328.636652 273.936811 
L 328.868714 269.746976 
L 329.100776 262.075225 
L 329.332838 266.017817 
L 329.796961 260.78117 
L 330.029023 261.474765 
L 330.261085 258.666265 
L 330.493147 260.918532 
L 330.957271 261.035612 
L 331.189333 259.368527 
L 331.421395 260.251976 
L 331.653456 257.769952 
L 331.885518 261.629337 
L 332.11758 256.585702 
L 332.349642 263.038575 
L 332.813766 258.669452 
L 333.045828 265.569499 
L 333.277889 262.878388 
L 333.509951 268.675088 
L 333.742013 270.777755 
L 334.206137 272.077843 
L 334.438199 271.145676 
L 334.670261 273.708654 
L 334.902322 272.882813 
L 335.134384 273.950828 
L 335.366446 276.343497 
L 335.598508 271.089322 
L 335.83057 273.29279 
L 336.062632 271.525369 
L 336.294694 271.566056 
L 336.526755 263.918736 
L 336.990879 257.96407 
L 337.222941 260.099654 
L 337.455003 259.405868 
L 337.687065 263.803266 
L 337.919127 259.118175 
L 338.151189 257.953097 
L 338.615312 267.639705 
L 338.847374 266.601164 
L 339.079436 259.494172 
L 339.311498 262.591482 
L 339.54356 260.097386 
L 339.775622 266.066181 
L 340.239745 260.820516 
L 340.471807 256.531127 
L 340.935931 265.659473 
L 341.400055 269.923002 
L 341.632116 274.270332 
L 341.864178 271.043519 
L 342.09624 273.139242 
L 342.328302 271.041936 
L 342.560364 273.077498 
L 342.792426 272.930433 
L 343.024488 275.521828 
L 343.256549 272.383267 
L 343.488611 271.761005 
L 343.720673 272.491078 
L 344.184797 266.224887 
L 344.416859 259.569412 
L 344.648921 257.710081 
L 344.880983 257.041693 
L 345.345106 258.802074 
L 345.577168 257.110807 
L 345.80923 256.759334 
L 346.273354 262.353597 
L 346.505416 260.82688 
L 346.969539 263.95294 
L 347.433663 262.394624 
L 347.665725 264.778731 
L 347.897787 260.028283 
L 348.129849 252.85414 
L 348.36191 262.133327 
L 348.593972 260.860406 
L 349.290158 268.725559 
L 349.52222 268.75555 
L 349.754282 272.519808 
L 349.986343 269.596887 
L 350.450467 273.000626 
L 350.682529 271.76007 
L 350.914591 273.292242 
L 351.146653 270.911324 
L 351.378715 271.933764 
L 351.610777 270.302748 
L 351.842838 267.489973 
L 352.306962 258.207826 
L 352.539024 263.572656 
L 353.003148 258.110357 
L 353.23521 257.004043 
L 353.467271 260.361595 
L 353.699333 261.926031 
L 353.931395 258.136661 
L 354.395519 262.701681 
L 354.627581 261.695144 
L 354.859643 255.167564 
L 355.091704 259.117644 
L 355.323766 258.715675 
L 355.555828 258.731471 
L 355.78789 251.85471 
L 356.019952 262.194894 
L 356.252014 261.953989 
L 356.484076 264.220448 
L 356.716138 264.716869 
L 357.180261 266.806122 
L 357.412323 270.442813 
L 357.644385 268.182221 
L 358.108509 273.19003 
L 358.572632 274.226808 
L 358.804694 272.194855 
L 359.036756 272.612636 
L 359.268818 272.093876 
L 359.965004 258.469983 
L 360.197065 263.749178 
L 360.429127 256.846962 
L 360.661189 257.762757 
L 360.893251 255.10361 
L 361.125313 262.175044 
L 361.357375 258.723971 
L 361.589437 258.512221 
L 361.821498 261.421897 
L 362.05356 261.387563 
L 362.517684 256.93527 
L 362.749746 258.289405 
L 362.981808 257.984149 
L 363.445932 254.964904 
L 363.677993 261.880752 
L 363.910055 260.337135 
L 364.142117 264.102632 
L 364.374179 265.310067 
L 364.606241 263.976369 
L 364.838303 267.299282 
L 365.302426 269.447645 
L 365.534488 272.62589 
L 365.998612 274.298484 
L 366.230674 273.283817 
L 366.462736 273.592365 
L 366.694798 274.166315 
L 366.926859 273.464494 
L 367.158921 270.730691 
L 367.623045 259.307418 
L 367.855107 264.359482 
L 368.087169 261.188129 
L 368.319231 259.93552 
L 368.551292 256.889546 
L 368.783354 259.546417 
L 369.015416 258.818892 
L 369.247478 259.342937 
L 369.943664 263.376535 
L 370.175726 258.138781 
L 370.407787 260.068431 
L 370.639849 256.542038 
L 370.871911 256.978263 
L 371.103973 254.25343 
L 371.336035 261.389713 
L 371.568097 258.19477 
L 371.800159 261.320445 
L 372.03222 266.372899 
L 372.264282 262.312551 
L 372.496344 261.529528 
L 372.728406 261.754438 
L 372.960468 263.226553 
L 373.656653 270.435105 
L 373.888715 270.637117 
L 374.120777 270.145736 
L 374.352839 271.848661 
L 374.816963 268.356582 
L 375.049025 260.956982 
L 375.281086 259.377561 
L 375.513148 263.491483 
L 375.74521 258.007239 
L 375.977272 259.201487 
L 376.209334 257.236972 
L 376.673458 259.909073 
L 377.137581 261.252477 
L 377.601705 265.622535 
L 377.833767 254.730995 
L 378.065829 256.452785 
L 378.297891 255.764315 
L 378.762014 252.796073 
L 379.4582 261.965258 
L 379.690262 261.832697 
L 379.922324 259.351272 
L 380.154386 260.721694 
L 380.618509 266.457281 
L 380.850571 265.738998 
L 381.082633 270.271225 
L 381.546757 272.147362 
L 381.778819 270.721206 
L 382.01088 272.003679 
L 382.475004 268.524655 
L 382.707066 260.874035 
L 382.939128 258.509771 
L 383.17119 263.232159 
L 383.403252 259.709378 
L 383.635314 258.785311 
L 383.867375 259.060974 
L 384.099437 257.712681 
L 384.331499 260.509373 
L 384.563561 260.743716 
L 384.795623 259.409785 
L 385.027685 266.360012 
L 385.259747 262.124946 
L 385.491808 260.496973 
L 385.72387 260.112045 
L 385.955932 259.022742 
L 386.420056 254.109789 
L 386.88418 260.469345 
L 387.116241 262.738966 
L 387.812427 258.526616 
L 388.044489 258.961386 
L 388.276551 268.090203 
L 388.508613 265.12973 
L 388.740675 268.58718 
L 388.972736 268.45988 
L 389.204798 270.516993 
L 389.43686 270.29301 
L 389.668922 270.46161 
L 389.900984 271.827583 
L 390.133046 270.057922 
L 390.365108 260.823041 
L 390.829231 257.293244 
L 391.061293 259.4769 
L 391.293355 259.813668 
L 391.525417 257.706122 
L 391.757479 259.690313 
L 391.989541 263.023506 
L 392.453664 258.647356 
L 392.917788 265.551009 
L 393.381912 258.19645 
L 393.613974 255.632594 
L 393.846035 255.992528 
L 394.078097 253.715049 
L 394.310159 260.689012 
L 394.542221 258.105763 
L 394.774283 261.384869 
L 395.006345 262.704739 
L 395.238407 260.888216 
L 395.470469 261.220218 
L 395.934592 268.876675 
L 396.166654 269.175198 
L 396.630778 274.42512 
L 396.86284 274.368728 
L 397.094902 273.539964 
L 397.326963 270.646798 
L 397.559025 272.596579 
L 397.791087 269.684696 
L 398.023149 263.273824 
L 398.255211 260.154611 
L 398.487273 265.285352 
L 398.487273 265.285352 
" style="fill:none;stroke:#1f77b4;stroke-linecap:square;stroke-width:1.5;"/>
   </g>
   <g id="line2d_16">
    <path clip-path="url(#p8477aece85)" d="M 73.832727 151.593152 
L 74.064789 149.780511 
L 74.296851 138.27732 
L 74.760975 220.457348 
L 74.993037 193.793403 
L 75.225098 225.017369 
L 75.45716 183.520708 
L 75.689222 186.464588 
L 75.921284 152.300282 
L 76.153346 195.661798 
L 76.385408 164.258594 
L 76.61747 182.467874 
L 76.849531 182.788736 
L 77.081593 182.101682 
L 77.313655 171.332979 
L 77.777779 133.913012 
L 78.009841 140.748498 
L 78.241903 124.681761 
L 78.473965 151.073658 
L 78.706026 158.393263 
L 79.17015 141.990003 
L 79.402212 187.773969 
L 79.634274 174.046598 
L 79.866336 188.652522 
L 80.098398 146.384767 
L 80.330459 142.286573 
L 80.562521 141.820019 
L 80.794583 162.402075 
L 81.026645 126.82732 
L 81.258707 115.427211 
L 81.722831 146.029292 
L 81.954892 132.846401 
L 82.419016 220.824125 
L 82.651078 193.262933 
L 82.88314 192.219217 
L 83.115202 118.726423 
L 83.347264 108.574391 
L 83.579325 160.757924 
L 84.043449 201.530353 
L 84.275511 217.196339 
L 84.507573 211.787071 
L 84.739635 211.208356 
L 84.971697 161.740724 
L 85.43582 126.009602 
L 85.667882 129.112748 
L 85.899944 120.036008 
L 86.132006 155.03778 
L 86.364068 138.305441 
L 86.59613 146.741725 
L 86.828192 252.493516 
L 87.060253 221.118854 
L 87.292315 167.678196 
L 87.756439 202.356161 
L 87.988501 132.360416 
L 88.220563 157.787606 
L 88.684686 116.185467 
L 88.916748 108.989381 
L 89.14881 135.403106 
L 89.380872 142.518461 
L 89.612934 117.347452 
L 89.844996 213.118198 
L 90.077058 213.224906 
L 90.30912 140.082565 
L 90.541181 171.534821 
L 90.773243 157.13007 
L 91.005305 188.57562 
L 91.469429 119.500291 
L 91.701491 126.713535 
L 91.933553 172.95008 
L 92.165614 172.512423 
L 92.397676 203.614946 
L 92.629738 128.575541 
L 92.8618 154.76543 
L 93.093862 142.521782 
L 93.325924 138.451684 
L 93.557986 136.922865 
L 93.790047 156.117326 
L 94.022109 155.373828 
L 94.486233 140.912419 
L 94.950357 225.421162 
L 95.41448 192.560197 
L 95.646542 134.976307 
L 95.878604 136.660704 
L 96.110666 154.585794 
L 96.342728 121.831056 
L 96.57479 105.777523 
L 97.038914 133.298695 
L 97.270975 109.627382 
L 97.503037 218.967472 
L 97.735099 213.598542 
L 97.967161 169.470725 
L 98.199223 147.63342 
L 98.431285 171.296686 
L 98.663347 94.57148 
L 98.895408 85.73535 
L 99.12747 158.345142 
L 99.359532 189.083519 
L 99.591594 182.65362 
L 99.823656 182.365063 
L 100.055718 198.626082 
L 100.28778 154.140987 
L 100.519841 154.124807 
L 100.751903 140.809794 
L 100.983965 139.340559 
L 101.216027 118.966969 
L 101.448089 157.96954 
L 101.680151 154.48944 
L 101.912213 146.710485 
L 102.144274 134.840216 
L 102.376336 235.05312 
L 102.608398 173.564279 
L 102.84046 199.912937 
L 103.072522 188.59268 
L 103.304584 132.133534 
L 103.536646 138.573727 
L 103.768708 157.065021 
L 104.000769 125.44843 
L 104.232831 109.669378 
L 104.464893 121.644996 
L 104.696955 124.988306 
L 104.929017 138.756551 
L 105.161079 217.635595 
L 105.393141 197.531327 
L 105.625202 155.48787 
L 105.857264 189.654077 
L 106.089326 127.33384 
L 106.321388 119.27346 
L 106.55345 119.081024 
L 107.017574 184.741809 
L 107.249635 173.394276 
L 107.481697 193.092279 
L 107.713759 237.717958 
L 108.177883 160.153355 
L 108.409945 138.708552 
L 108.642007 129.74045 
L 108.874068 115.968088 
L 109.10613 150.881997 
L 109.338192 155.055164 
L 109.802316 140.576049 
L 110.034378 180.877587 
L 110.26644 199.975487 
L 110.498502 199.180845 
L 110.730563 185.849252 
L 110.962625 134.844491 
L 111.194687 143.016819 
L 111.426749 155.219077 
L 111.658811 158.162457 
L 111.890873 104.308849 
L 112.354996 131.90363 
L 112.587058 165.234952 
L 112.81912 182.506129 
L 113.051182 229.300241 
L 113.283244 190.848335 
L 113.515306 184.55445 
L 113.747368 141.226422 
L 113.979429 123.431424 
L 114.211491 120.618097 
L 114.443553 132.482726 
L 114.675615 201.883737 
L 114.907677 200.431851 
L 115.139739 190.091843 
L 115.371801 205.489874 
L 115.603862 174.790245 
L 115.835924 170.336827 
L 116.300048 128.745732 
L 116.53211 132.625081 
L 116.764172 114.253199 
L 116.996234 151.243961 
L 117.228296 131.227207 
L 117.460357 140.028125 
L 117.692419 181.087643 
L 117.924481 163.942628 
L 118.156543 174.61551 
L 118.388605 210.757429 
L 118.620667 143.810533 
L 118.852729 137.151175 
L 119.08479 158.02009 
L 119.548914 99.466526 
L 119.780976 122.949059 
L 120.013038 123.330312 
L 120.2451 156.343041 
L 120.477162 212.499403 
L 121.173347 165.938775 
L 121.405409 107.985278 
L 121.637471 95.104137 
L 121.869533 173.730041 
L 122.101595 112.522447 
L 122.333657 138.379282 
L 122.565718 130.7775 
L 122.79778 158.482098 
L 123.029842 222.459651 
L 123.261904 213.032524 
L 123.493966 136.072145 
L 123.726028 147.940345 
L 123.95809 145.460995 
L 124.190151 139.555721 
L 124.422213 125.701867 
L 124.654275 151.172549 
L 124.886337 155.676139 
L 125.118399 138.855077 
L 125.350461 139.589725 
L 125.814584 150.579488 
L 126.046646 144.523171 
L 126.278708 144.471051 
L 126.51077 134.835146 
L 126.742832 157.608402 
L 126.974894 120.18701 
L 127.206956 117.484101 
L 127.439017 121.059927 
L 127.671079 134.859185 
L 128.367265 216.349905 
L 128.599327 167.19844 
L 128.831389 206.79529 
L 129.295512 162.055392 
L 129.527574 155.461758 
L 129.759636 74.162431 
L 129.991698 130.897665 
L 130.22376 144.836907 
L 130.455822 171.587575 
L 130.687884 180.760109 
L 130.919945 206.462352 
L 131.152007 149.12263 
L 131.384069 161.789908 
L 131.616131 140.538986 
L 131.848193 132.183643 
L 132.080255 131.605035 
L 132.312317 151.145683 
L 132.544378 150.005468 
L 132.77644 138.928259 
L 133.008502 139.11635 
L 133.240564 144.271847 
L 133.472626 142.554766 
L 133.704688 142.864832 
L 133.93675 129.351288 
L 134.168811 135.009067 
L 134.400873 156.667923 
L 134.632935 120.797995 
L 134.864997 123.370826 
L 135.097059 122.377117 
L 135.561183 142.702654 
L 135.793245 210.075583 
L 136.025306 211.876115 
L 136.721492 133.599429 
L 136.953554 156.940369 
L 137.185616 86.649209 
L 137.417678 157.623164 
L 137.649739 156.017953 
L 137.881801 98.22149 
L 138.113863 198.342323 
L 138.345925 164.6965 
L 138.577987 224.808469 
L 139.042111 167.658537 
L 139.506234 134.338262 
L 139.738296 118.924172 
L 139.970358 151.955477 
L 140.20242 149.81019 
L 140.434482 128.853154 
L 140.666544 138.626941 
L 140.898605 139.385396 
L 141.130667 149.838227 
L 141.362729 143.249779 
L 141.594791 141.260567 
L 141.826853 130.415795 
L 142.058915 159.476751 
L 142.290977 137.147684 
L 142.523039 103.33791 
L 142.7551 121.205464 
L 142.987162 130.333275 
L 143.683348 223.258272 
L 144.147472 154.662696 
L 144.379533 174.328377 
L 144.611595 157.31064 
L 144.843657 93.617871 
L 145.075719 157.895383 
L 145.307781 157.169654 
L 145.539843 120.240679 
L 145.771905 150.845236 
L 146.003966 217.344548 
L 146.236028 187.599308 
L 146.46809 203.480096 
L 146.700152 144.331117 
L 146.932214 148.111963 
L 147.164276 135.110855 
L 147.396338 135.53079 
L 147.6284 121.379772 
L 147.860461 149.879766 
L 148.092523 126.906244 
L 148.324585 137.120867 
L 148.556647 138.100536 
L 148.788709 149.490798 
L 149.020771 141.480801 
L 149.252833 142.776435 
L 149.484894 131.977877 
L 149.716956 159.287215 
L 150.18108 103.026689 
L 150.413142 121.101086 
L 150.645204 118.121896 
L 151.341389 216.329595 
L 151.573451 224.425052 
L 151.805513 121.293572 
L 152.037575 74.389931 
L 152.269637 53.568 
L 152.501699 168.652211 
L 152.73376 169.050181 
L 152.965822 171.775294 
L 153.197884 157.436966 
L 153.429946 124.296128 
L 153.662008 126.559552 
L 154.126132 204.820591 
L 154.358194 202.27686 
L 154.590255 164.160408 
L 154.822317 144.331708 
L 155.286441 126.374947 
L 155.518503 150.211278 
L 155.750565 148.998679 
L 155.982627 135.494979 
L 156.214688 137.450715 
L 156.44675 145.467777 
L 156.678812 139.100917 
L 156.910874 141.338155 
L 157.142936 131.681603 
L 157.374998 159.35653 
L 157.60706 137.517244 
L 157.839121 100.903139 
L 158.071183 121.341581 
L 158.303245 119.476391 
L 158.999431 215.322818 
L 159.231493 188.513748 
L 159.695616 90.748581 
L 159.927678 167.567426 
L 160.15974 168.198291 
L 160.391802 164.410129 
L 160.623864 168.302553 
L 160.855926 169.344068 
L 161.320049 149.552829 
L 161.552111 179.329619 
L 161.784173 172.475135 
L 162.016235 183.36589 
L 162.480359 156.164536 
L 162.712421 134.369988 
L 162.944482 132.413279 
L 163.176544 151.590092 
L 163.408606 149.546636 
L 163.640668 137.888295 
L 163.87273 137.814516 
L 164.104792 141.69383 
L 164.336854 149.591249 
L 164.568915 142.129576 
L 164.800977 129.609424 
L 165.033039 132.350974 
L 165.265101 155.134601 
L 165.497163 119.037292 
L 165.729225 117.536269 
L 165.961287 119.205416 
L 166.193348 149.058911 
L 166.42541 207.772809 
L 166.657472 222.242781 
L 166.889534 221.369564 
L 167.121596 98.840612 
L 167.353658 87.560028 
L 167.58572 167.038359 
L 167.817782 168.642751 
L 168.049843 176.425043 
L 168.281905 162.015065 
L 168.746029 174.628899 
L 168.978091 146.64901 
L 169.210153 182.995913 
L 169.442215 192.407817 
L 169.674276 216.513925 
L 169.906338 145.99095 
L 170.1384 150.957688 
L 170.370462 138.1395 
L 170.602524 135.34126 
L 170.834586 151.655796 
L 171.066648 149.122147 
L 171.298709 124.885311 
L 171.530771 137.023712 
L 171.994895 181.277258 
L 172.226957 149.518694 
L 172.459019 142.163183 
L 172.691081 128.794617 
L 172.923143 154.318676 
L 173.387266 100.315246 
L 173.85139 144.512336 
L 174.083452 206.201158 
L 174.315514 221.890464 
L 174.779637 143.489779 
L 175.011699 75.602279 
L 175.243761 166.577932 
L 175.475823 161.301815 
L 175.939947 205.621662 
L 176.172009 165.204255 
L 176.40407 168.597922 
L 176.636132 178.336473 
L 176.868194 116.564125 
L 177.332318 239.78176 
L 177.56438 138.884856 
L 177.796442 148.57196 
L 178.028503 148.683657 
L 178.492627 122.088442 
L 178.724689 149.478934 
L 178.956751 137.326069 
L 179.188813 138.102287 
L 179.420875 176.956558 
L 179.652937 179.615663 
L 179.884998 134.735774 
L 180.11706 140.347383 
L 180.349122 131.226041 
L 180.581184 155.230685 
L 180.813246 120.78013 
L 181.045308 110.527597 
L 181.27737 120.2635 
L 181.509431 146.914867 
L 181.741493 196.688184 
L 181.973555 218.285618 
L 182.205617 219.461295 
L 182.669741 80.337738 
L 182.901803 168.51305 
L 183.133864 169.083475 
L 183.365926 185.539629 
L 183.597988 172.926529 
L 183.83005 178.933962 
L 184.062112 166.245337 
L 184.294174 177.591909 
L 184.526236 133.470879 
L 184.758297 197.126731 
L 184.990359 211.234951 
L 185.222421 155.691113 
L 185.454483 157.541984 
L 185.686545 150.263189 
L 186.150669 122.778838 
L 186.382731 152.359286 
L 186.614792 148.555421 
L 186.846854 139.842964 
L 187.078916 138.106361 
L 187.310978 141.459936 
L 187.54304 141.808329 
L 187.775102 129.574517 
L 188.007164 159.591366 
L 188.239225 156.095111 
L 188.471287 116.576816 
L 188.703349 120.724749 
L 188.935411 128.684501 
L 189.399535 185.50338 
L 189.631597 215.466362 
L 189.863658 168.671465 
L 190.09572 84.669306 
L 190.327782 66.991663 
L 190.559844 173.288657 
L 190.791906 183.546826 
L 191.023968 156.82945 
L 191.25603 160.826036 
L 191.488091 170.979242 
L 191.720153 169.153953 
L 191.952215 169.333783 
L 192.184277 119.261653 
L 192.416339 155.184689 
L 192.648401 245.42164 
L 192.880463 156.601262 
L 193.112525 152.677354 
L 193.344586 150.943731 
L 193.576648 137.601042 
L 193.80871 135.407975 
L 194.040772 150.448564 
L 194.272834 130.675998 
L 194.504896 140.235474 
L 194.736958 142.302051 
L 194.969019 149.514609 
L 195.201081 146.803924 
L 195.665205 132.019322 
L 195.897267 155.259816 
L 196.129329 119.827469 
L 196.361391 123.332387 
L 196.593452 114.654286 
L 196.825514 148.33635 
L 197.057576 208.124768 
L 197.289638 222.121434 
L 197.5217 202.751906 
L 197.985824 79.073396 
L 198.217886 169.222839 
L 198.449947 196.384099 
L 198.682009 167.359113 
L 198.914071 178.849112 
L 199.146133 158.753532 
L 199.378195 169.941924 
L 199.610257 157.025229 
L 199.842319 180.052356 
L 200.07438 150.540985 
L 200.306442 158.913531 
L 200.538504 144.867014 
L 200.770566 162.67947 
L 201.002628 140.205595 
L 201.23469 135.508985 
L 201.466752 152.236233 
L 201.930875 148.361955 
L 202.162937 139.856351 
L 202.394999 212.744999 
L 202.627061 207.227885 
L 202.859123 190.256332 
L 203.091185 132.864129 
L 203.323246 128.510688 
L 203.555308 155.423989 
L 203.78737 112.879417 
L 204.019432 105.239481 
L 204.251494 126.285418 
L 204.483556 132.397408 
L 204.715618 145.492492 
L 204.94768 231.974511 
L 205.179741 213.624419 
L 205.411803 184.575369 
L 205.643865 169.583368 
L 205.875927 201.21925 
L 206.107989 164.441024 
L 206.340051 159.922603 
L 206.572113 168.946649 
L 206.804174 158.05227 
L 207.036236 180.764378 
L 207.50036 159.676834 
L 207.732422 174.54795 
L 207.964484 230.380268 
L 208.428607 162.626292 
L 208.892731 136.280846 
L 209.124793 139.885507 
L 209.356855 150.800992 
L 209.588917 150.837305 
L 209.820979 139.673116 
L 210.05304 204.439518 
L 210.285102 218.987618 
L 210.517164 198.843281 
L 210.749226 144.699867 
L 210.981288 128.20766 
L 211.21335 159.015785 
L 211.445412 160.937789 
L 211.677474 101.063236 
L 211.909535 116.270937 
L 212.373659 123.066301 
L 212.605721 217.115801 
L 212.837783 158.102111 
L 213.069845 159.732941 
L 213.301907 168.032215 
L 213.533968 189.815666 
L 213.76603 169.371299 
L 213.998092 161.216663 
L 214.230154 148.628376 
L 214.462216 167.974638 
L 214.694278 163.850572 
L 214.92634 167.282396 
L 215.390463 104.93285 
L 215.622525 204.04351 
L 215.854587 201.802955 
L 216.318711 152.408787 
L 216.550773 135.983427 
L 216.782834 131.770563 
L 217.014896 150.594073 
L 217.246958 147.00361 
L 217.47902 141.359595 
L 217.943144 225.553592 
L 218.407268 143.557485 
L 218.639329 128.971611 
L 218.871391 160.109533 
L 219.103453 162.777293 
L 219.335515 98.411507 
L 219.799639 119.293866 
L 220.031701 123.594085 
L 220.263762 212.74233 
L 220.495824 158.582074 
L 220.727886 158.896054 
L 220.959948 84.891943 
L 221.19201 173.670814 
L 221.424072 183.434319 
L 221.656134 163.238437 
L 221.888195 166.100542 
L 222.352319 149.796375 
L 222.816443 177.149171 
L 223.048505 208.194647 
L 223.280567 192.058232 
L 223.512629 212.416206 
L 223.74469 142.851694 
L 223.976752 149.032887 
L 224.440876 131.367 
L 224.672938 149.573876 
L 224.905 149.886193 
L 225.369123 140.391299 
L 225.601185 142.460329 
L 225.833247 147.760074 
L 226.297371 130.207043 
L 226.529433 155.135006 
L 226.761495 166.594744 
L 226.993556 103.161852 
L 227.225618 110.066671 
L 227.45768 124.034989 
L 227.689742 124.473853 
L 227.921804 198.702192 
L 228.153866 157.517421 
L 228.385928 145.1315 
L 228.617989 166.760796 
L 228.850051 171.779218 
L 229.082113 181.281778 
L 229.314175 157.368084 
L 229.778299 181.734792 
L 230.010361 189.503043 
L 230.706546 123.087984 
L 230.938608 206.133118 
L 231.17067 201.532391 
L 231.634794 153.669177 
L 231.866856 133.735864 
L 232.098917 131.865509 
L 232.330979 150.433384 
L 232.563041 150.541142 
L 232.795103 142.05276 
L 233.027165 141.405825 
L 233.259227 133.348687 
L 233.491289 142.23212 
L 233.72335 137.945976 
L 233.955412 128.716917 
L 234.187474 160.225032 
L 234.419536 162.029779 
L 234.651598 104.98105 
L 234.88366 124.341458 
L 235.115722 117.778454 
L 235.347783 119.780465 
L 235.579845 216.908943 
L 235.811907 158.319199 
L 236.043969 161.670797 
L 236.276031 167.248174 
L 236.508093 157.763844 
L 236.740155 158.091006 
L 236.972217 169.345668 
L 237.204278 170.953577 
L 237.668402 151.688353 
L 237.900464 168.761185 
L 238.132526 177.56182 
L 238.364588 209.286072 
L 238.59665 182.230444 
L 238.828711 207.187535 
L 239.292835 154.181009 
L 239.524897 134.336899 
L 239.756959 132.127199 
L 239.989021 150.391937 
L 240.221083 156.922436 
L 240.453144 142.63053 
L 240.685206 206.587165 
L 240.917268 184.218634 
L 241.14933 190.405978 
L 241.381392 144.511822 
L 241.613454 130.562405 
L 241.845516 160.02672 
L 242.309639 99.75293 
L 242.541701 120.65734 
L 242.773763 119.666429 
L 243.005825 123.693707 
L 243.237887 237.256421 
L 243.469949 200.291249 
L 243.702011 213.782838 
L 243.934072 172.332768 
L 244.166134 161.449814 
L 244.398196 165.569661 
L 244.630258 133.099057 
L 244.86232 135.40081 
L 245.094382 168.887891 
L 245.326444 162.224366 
L 245.558505 177.320972 
L 245.790567 176.213977 
L 246.022629 154.150113 
L 246.254691 192.073663 
L 246.486753 208.472608 
L 246.718815 143.267941 
L 246.950877 152.971 
L 247.182938 134.626349 
L 247.415 134.215791 
L 247.647062 151.376727 
L 247.879124 155.642167 
L 248.111186 145.898395 
L 248.343248 202.06142 
L 248.57531 200.216991 
L 248.807371 219.954354 
L 249.039433 142.63708 
L 249.271495 138.549379 
L 249.503557 160.878752 
L 249.967681 103.017111 
L 250.199743 121.397411 
L 250.431805 119.18692 
L 250.663866 123.237167 
L 250.895928 247.226042 
L 251.360052 103.03367 
L 251.592114 163.573938 
L 251.824176 180.205359 
L 252.288299 165.526469 
L 252.520361 197.118833 
L 252.752423 144.255127 
L 252.984485 149.403181 
L 253.216547 148.440193 
L 253.448609 168.661096 
L 253.680671 154.538904 
L 254.144794 246.288883 
L 254.376856 147.312612 
L 254.608918 157.438029 
L 254.84098 137.652685 
L 255.073042 135.672946 
L 255.305104 152.344779 
L 255.769227 146.567742 
L 256.001289 141.538447 
L 256.233351 195.770486 
L 256.465413 199.113301 
L 256.697475 140.791636 
L 256.929537 137.94811 
L 257.161599 130.920552 
L 257.39366 134.220387 
L 257.625722 104.126853 
L 257.857784 115.516993 
L 258.089846 117.200756 
L 258.321908 121.143872 
L 258.55397 253.07332 
L 258.786032 187.343195 
L 259.018093 213.320102 
L 259.250155 164.196785 
L 259.482217 176.170643 
L 259.714279 160.752338 
L 260.178403 197.057595 
L 260.410465 178.02669 
L 260.642526 146.29446 
L 261.10665 156.491126 
L 261.338712 171.73171 
L 261.570774 175.03317 
L 262.034898 168.639125 
L 262.26696 162.853569 
L 262.963145 126.436138 
L 263.195207 150.040196 
L 263.659331 142.694516 
L 263.891393 151.203341 
L 264.123454 201.155451 
L 264.355516 139.916488 
L 264.587578 137.904026 
L 264.81964 160.950205 
L 265.283764 93.643955 
L 265.515826 109.974595 
L 265.747887 116.483645 
L 265.979949 108.322305 
L 266.212011 209.809657 
L 266.444073 146.087193 
L 266.676135 143.248165 
L 267.140259 173.105278 
L 267.37232 166.198203 
L 267.604382 172.926376 
L 267.836444 194.891765 
L 268.068506 190.128166 
L 268.300568 149.190169 
L 268.53263 157.699349 
L 268.764692 192.135828 
L 268.996754 178.827996 
L 269.228815 139.296323 
L 269.460877 181.739994 
L 269.692939 191.322951 
L 270.389125 134.215157 
L 270.621187 131.565514 
L 270.853248 150.933508 
L 271.08531 150.160404 
L 271.317372 141.203203 
L 271.549434 140.522427 
L 271.781496 149.03559 
L 272.477681 129.858434 
L 272.709743 155.175582 
L 272.941805 114.288569 
L 273.173867 109.301164 
L 273.637991 139.183563 
L 273.870053 205.838304 
L 274.334176 111.356515 
L 274.566238 166.282251 
L 274.7983 178.194087 
L 275.030362 169.325187 
L 275.262424 170.894589 
L 275.494486 129.894728 
L 275.726548 182.789696 
L 275.958609 177.964594 
L 276.190671 162.886338 
L 276.422733 179.948371 
L 276.654795 166.091324 
L 276.886857 131.563861 
L 277.118919 192.545912 
L 277.350981 212.648065 
L 277.583042 143.506889 
L 277.815104 150.075129 
L 278.279228 132.320554 
L 278.51129 149.871982 
L 278.743352 150.526199 
L 278.975414 141.196146 
L 279.207475 144.169193 
L 279.439537 132.922382 
L 279.671599 139.550839 
L 279.903661 130.259727 
L 280.135723 161.141475 
L 280.367785 156.043636 
L 280.599847 118.502452 
L 280.831909 116.721168 
L 281.296032 142.999935 
L 281.528094 213.824163 
L 281.760156 148.102309 
L 281.992218 178.932996 
L 282.22428 170.727163 
L 282.456342 178.850386 
L 282.688403 156.263651 
L 282.920465 193.273574 
L 283.152527 185.228948 
L 283.384589 182.081485 
L 283.616651 177.095987 
L 284.080775 145.502196 
L 284.312836 166.848619 
L 284.544898 148.179718 
L 284.77696 156.063199 
L 285.009022 199.147504 
L 285.241084 146.210933 
L 285.473146 151.117652 
L 285.705208 137.56741 
L 285.937269 132.947261 
L 286.169331 151.152457 
L 286.401393 151.654895 
L 286.633455 145.968446 
L 286.865517 143.488901 
L 287.097579 144.018397 
L 287.329641 140.723074 
L 287.561703 139.359534 
L 287.793764 128.979918 
L 288.025826 156.476943 
L 288.257888 115.826543 
L 288.48995 107.930413 
L 288.722012 104.564439 
L 289.186136 214.588673 
L 289.650259 150.418477 
L 289.882321 166.194802 
L 290.114383 170.174838 
L 290.346445 162.378271 
L 290.578507 195.018207 
L 290.810569 137.057814 
L 291.04263 138.119096 
L 291.274692 164.008267 
L 291.506754 163.940727 
L 291.738816 141.589759 
L 291.970878 169.009477 
L 292.20294 80.697144 
L 292.435002 160.59216 
L 292.667063 192.389572 
L 292.899125 143.753747 
L 293.131187 150.628217 
L 293.363249 135.05576 
L 293.595311 134.013774 
L 293.827373 150.663058 
L 294.059435 155.487127 
L 294.291497 146.143922 
L 294.523558 141.338444 
L 294.75562 153.311286 
L 294.987682 143.281416 
L 295.219744 139.52237 
L 295.451806 127.662727 
L 295.683868 156.225798 
L 295.91593 116.43543 
L 296.147991 99.889502 
L 296.380053 111.709841 
L 296.612115 144.865045 
L 296.844177 207.025334 
L 297.076239 174.095 
L 297.308301 220.541455 
L 297.540363 167.193373 
L 297.772424 169.498618 
L 298.004486 156.523494 
L 298.236548 198.102261 
L 298.46861 136.920456 
L 298.700672 133.588969 
L 298.932734 135.294523 
L 299.164796 156.893416 
L 299.396857 155.467212 
L 299.628919 165.616337 
L 299.860981 161.596275 
L 300.325105 247.471222 
L 300.557167 133.099475 
L 300.789229 141.848615 
L 301.253352 135.540203 
L 301.485414 152.282601 
L 301.717476 151.298417 
L 301.949538 143.399237 
L 302.1816 141.30165 
L 302.413662 142.281407 
L 302.645724 137.290161 
L 302.877785 137.037141 
L 303.109847 131.779576 
L 303.341909 155.98083 
L 303.573971 116.694932 
L 303.806033 112.807996 
L 304.038095 102.822107 
L 304.502218 208.633112 
L 304.73428 190.034 
L 304.966342 156.128532 
L 305.430466 174.078697 
L 305.662528 153.842896 
L 305.89459 163.597509 
L 306.126652 131.763457 
L 306.358713 141.248486 
L 306.590775 176.121518 
L 306.822837 169.456143 
L 307.054899 147.836348 
L 307.286961 165.462958 
L 307.519023 168.512806 
L 307.983146 208.639643 
L 308.215208 134.003173 
L 308.44727 151.544172 
L 308.679332 135.046738 
L 308.911394 129.835651 
L 309.143456 150.937468 
L 309.375518 151.678443 
L 309.607579 144.685771 
L 309.839641 146.439226 
L 310.071703 201.3933 
L 310.303765 212.790202 
L 310.535827 130.048275 
L 310.767889 127.418305 
L 310.999951 157.196461 
L 311.232012 120.368482 
L 311.464074 102.856005 
L 311.696136 108.219221 
L 312.392322 207.984763 
L 312.624384 204.831605 
L 312.856446 167.273306 
L 313.088507 176.241829 
L 313.320569 167.261351 
L 313.552631 153.035226 
L 313.784693 128.553559 
L 314.016755 184.142381 
L 314.248817 195.147722 
L 314.480879 162.640957 
L 314.71294 147.011126 
L 314.945002 168.543672 
L 315.177064 107.228352 
L 315.409126 203.471252 
L 315.641188 205.589265 
L 315.87325 135.877694 
L 316.105312 152.797587 
L 316.337373 134.11114 
L 316.569435 132.493317 
L 316.801497 150.630177 
L 317.033559 157.34596 
L 317.497683 135.232878 
L 317.729745 186.928087 
L 317.961806 204.760295 
L 318.193868 141.828083 
L 318.42593 128.719199 
L 318.657992 157.563993 
L 318.890054 121.519524 
L 319.122116 103.685205 
L 319.354178 119.522197 
L 320.050363 208.171261 
L 320.514487 166.683665 
L 320.746549 173.794168 
L 320.978611 142.435359 
L 321.442734 126.590879 
L 321.674796 121.170596 
L 322.13892 149.364656 
L 322.603044 168.469396 
L 322.835106 99.800657 
L 323.067167 187.101406 
L 323.299229 225.184167 
L 323.531291 151.35123 
L 323.763353 153.246497 
L 324.227477 117.553967 
L 324.459539 150.911244 
L 324.6916 155.493323 
L 324.923662 142.560814 
L 325.155724 150.116117 
L 325.387786 190.317366 
L 325.619848 192.402453 
L 325.85191 141.786013 
L 326.083972 127.361837 
L 326.316034 159.338489 
L 326.548095 112.157149 
L 326.780157 100.98471 
L 327.012219 105.083696 
L 327.708405 215.479466 
L 327.940467 216.202037 
L 328.172528 173.915413 
L 328.40459 174.393111 
L 328.636652 154.357588 
L 328.868714 120.342472 
L 329.100776 124.044103 
L 329.332838 123.039407 
L 329.5649 181.631244 
L 329.796961 150.705 
L 330.029023 155.986132 
L 330.261085 157.831256 
L 330.493147 126.090983 
L 330.957271 235.048639 
L 331.189333 146.595354 
L 331.421395 155.493284 
L 331.653456 137.927315 
L 331.885518 129.417549 
L 332.11758 150.551322 
L 332.349642 156.701909 
L 332.581704 141.541108 
L 332.813766 151.310006 
L 333.045828 188.865418 
L 333.277889 191.269604 
L 333.509951 140.466162 
L 333.742013 128.236336 
L 333.974075 160.099614 
L 334.206137 154.83151 
L 334.438199 101.916956 
L 334.902322 131.885473 
L 335.134384 217.961365 
L 335.598508 132.143312 
L 335.83057 163.413236 
L 336.062632 175.397231 
L 336.294694 140.343473 
L 336.526755 199.431175 
L 336.758817 132.458693 
L 336.990879 127.076038 
L 337.222941 182.223162 
L 337.455003 154.258067 
L 337.687065 164.74788 
L 337.919127 164.195916 
L 338.151189 134.845838 
L 338.615312 221.496748 
L 338.847374 145.358037 
L 339.311498 136.352919 
L 339.54356 112.656046 
L 339.775622 151.104083 
L 340.007683 155.259601 
L 340.239745 143.42715 
L 340.471807 151.066217 
L 340.935931 189.031294 
L 341.167993 145.90952 
L 341.400055 141.293635 
L 341.632116 160.65288 
L 341.864178 158.49417 
L 342.09624 103.264128 
L 342.328302 121.469646 
L 342.560364 129.728163 
L 342.792426 201.554628 
L 343.024488 182.665161 
L 343.256549 184.130814 
L 343.488611 165.036525 
L 343.720673 172.223443 
L 343.952735 157.499202 
L 344.184797 117.284167 
L 344.416859 121.502813 
L 344.648921 121.26263 
L 344.880983 136.64949 
L 345.113044 195.518587 
L 345.345106 165.123302 
L 345.577168 166.878874 
L 345.80923 177.383157 
L 346.041292 125.050219 
L 346.273354 200.378247 
L 346.505416 191.703024 
L 346.737477 161.691119 
L 347.201601 136.530619 
L 347.433663 151.733726 
L 347.665725 151.554687 
L 347.897787 148.381524 
L 348.129849 141.735354 
L 348.36191 191.259626 
L 348.593972 208.352728 
L 348.826034 140.820259 
L 349.058096 128.477729 
L 349.290158 158.993818 
L 349.52222 162.728705 
L 349.754282 110.667033 
L 349.986343 110.953982 
L 350.218405 136.974808 
L 350.450467 185.309067 
L 350.682529 206.831886 
L 350.914591 209.916253 
L 351.146653 167.635817 
L 351.378715 157.685956 
L 351.610777 165.417018 
L 351.842838 185.119362 
L 352.0749 136.470554 
L 352.306962 129.793418 
L 352.539024 185.014397 
L 353.003148 156.851617 
L 353.23521 161.922712 
L 353.467271 159.414388 
L 353.699333 172.924612 
L 353.931395 224.448349 
L 354.163457 181.111824 
L 354.627581 136.547966 
L 354.859643 135.684585 
L 355.091704 152.160192 
L 355.323766 151.096289 
L 355.555828 147.890684 
L 355.78789 142.028675 
L 356.019952 193.532043 
L 356.252014 188.989618 
L 356.484076 139.939508 
L 356.716138 126.910332 
L 356.948199 159.006876 
L 357.180261 161.529534 
L 357.412323 116.237988 
L 357.644385 123.223364 
L 357.876447 134.332394 
L 358.108509 215.611887 
L 358.340571 183.396047 
L 358.572632 184.060167 
L 358.804694 151.066572 
L 359.036756 190.104431 
L 359.268818 186.494118 
L 359.50088 131.195347 
L 359.732942 123.830493 
L 359.965004 126.015611 
L 360.197065 124.280784 
L 360.429127 152.941907 
L 360.661189 164.200307 
L 360.893251 160.73843 
L 361.125313 175.512409 
L 361.357375 170.181429 
L 361.589437 187.917585 
L 361.821498 182.816592 
L 362.749746 115.696443 
L 362.981808 150.75064 
L 363.21387 147.536267 
L 363.445932 141.455995 
L 363.677993 184.709913 
L 363.910055 189.43064 
L 364.142117 142.112594 
L 364.374179 127.113339 
L 364.606241 158.668158 
L 364.838303 160.749565 
L 365.070365 105.435913 
L 365.534488 137.78082 
L 365.76655 187.054401 
L 365.998612 200.873687 
L 366.230674 123.727291 
L 366.462736 165.11541 
L 366.694798 172.666634 
L 366.926859 154.808236 
L 367.158921 181.732093 
L 367.390983 122.751081 
L 367.623045 134.635495 
L 367.855107 125.705158 
L 368.087169 139.870707 
L 368.319231 170.708063 
L 368.551292 150.11691 
L 369.015416 200.106972 
L 369.47954 171.882813 
L 369.711602 167.303259 
L 370.407787 118.161083 
L 370.639849 150.925931 
L 370.871911 142.439291 
L 371.103973 142.969043 
L 371.336035 196.156453 
L 371.568097 200.116505 
L 371.800159 127.812596 
L 372.03222 127.957012 
L 372.264282 156.854945 
L 372.496344 162.121288 
L 372.728406 107.392527 
L 372.960468 119.231262 
L 373.19253 138.860161 
L 373.424592 202.733966 
L 373.656653 189.733304 
L 373.888715 109.292978 
L 374.120777 168.372008 
L 374.352839 165.68397 
L 374.584901 175.171739 
L 374.816963 122.381316 
L 375.049025 122.827244 
L 375.281086 120.911501 
L 375.513148 129.120772 
L 375.74521 132.562274 
L 375.977272 154.389135 
L 376.209334 153.321298 
L 376.441396 167.750396 
L 376.673458 152.800384 
L 376.90552 169.590999 
L 377.137581 199.365578 
L 377.369643 166.500756 
L 378.065829 114.588269 
L 378.297891 151.154917 
L 378.529953 144.033126 
L 378.762014 143.77511 
L 378.994076 194.270162 
L 379.226138 186.16086 
L 379.4582 131.351618 
L 379.690262 127.196901 
L 379.922324 157.992906 
L 380.154386 110.09587 
L 380.386447 105.131418 
L 380.850571 143.979871 
L 381.082633 204.771189 
L 381.546757 139.403722 
L 381.778819 174.127477 
L 382.01088 167.108951 
L 382.242942 132.913518 
L 382.475004 121.231002 
L 382.707066 86.625194 
L 382.939128 122.148287 
L 383.17119 120.051674 
L 383.403252 121.290476 
L 383.635314 185.71526 
L 383.867375 168.277868 
L 384.099437 163.990953 
L 384.331499 153.53557 
L 384.563561 154.43922 
L 384.795623 206.981675 
L 385.259747 149.514862 
L 385.72387 130.40579 
L 385.955932 150.573223 
L 386.187994 154.263335 
L 386.420056 143.089879 
L 386.652118 144.239728 
L 387.116241 141.038373 
L 387.348303 127.519093 
L 387.580365 157.667896 
L 387.812427 115.116289 
L 388.044489 105.716016 
L 388.508613 147.934528 
L 388.740675 203.371063 
L 388.972736 190.81959 
L 389.204798 91.447179 
L 389.43686 176.480476 
L 389.668922 160.916845 
L 389.900984 126.359841 
L 390.133046 126.189039 
L 390.365108 126.638132 
L 390.597169 118.155097 
L 390.829231 131.626435 
L 391.061293 123.466219 
L 391.525417 167.918857 
L 391.757479 162.361915 
L 391.989541 110.936063 
L 392.221602 202.795886 
L 392.453664 192.961324 
L 392.685726 144.239779 
L 392.917788 149.502769 
L 393.381912 130.822679 
L 393.613974 151.045529 
L 393.846035 141.981327 
L 394.078097 142.244128 
L 394.310159 192.527827 
L 394.542221 191.944557 
L 394.774283 146.347522 
L 395.006345 139.621897 
L 395.238407 160.090835 
L 395.470469 161.380714 
L 395.70253 105.356551 
L 395.934592 115.954929 
L 396.166654 140.202615 
L 396.398716 204.467143 
L 396.630778 175.277983 
L 396.86284 207.907677 
L 397.094902 172.188606 
L 397.326963 160.046846 
L 397.559025 135.128246 
L 398.023149 121.921397 
L 398.255211 118.92911 
L 398.487273 120.847488 
L 398.487273 120.847488 
" style="fill:none;stroke:#ff7f0e;stroke-linecap:square;stroke-width:1.5;"/>
   </g>
   <g id="patch_3">
    <path d="M 57.6 307.584 
L 57.6 41.472 
" style="fill:none;stroke:#000000;stroke-linecap:square;stroke-linejoin:miter;stroke-width:0.8;"/>
   </g>
   <g id="patch_4">
    <path d="M 414.72 307.584 
L 414.72 41.472 
" style="fill:none;stroke:#000000;stroke-linecap:square;stroke-linejoin:miter;stroke-width:0.8;"/>
   </g>
   <g id="patch_5">
    <path d="M 57.6 307.584 
L 414.72 307.584 
" style="fill:none;stroke:#000000;stroke-linecap:square;stroke-linejoin:miter;stroke-width:0.8;"/>
   </g>
   <g id="patch_6">
    <path d="M 57.6 41.472 
L 414.72 41.472 
" style="fill:none;stroke:#000000;stroke-linecap:square;stroke-linejoin:miter;stroke-width:0.8;"/>
   </g>
  </g>
 </g>
 <defs>
  <clipPath id="p8477aece85">
   <rect height="266.112" width="357.12" x="57.6" y="41.472"/>
  </clipPath>
 </defs>
</svg>
