<?xml version="1.0" encoding="utf-8" standalone="no"?>
<!DOCTYPE svg PUBLIC "-//W3C//DTD SVG 1.1//EN"
  "http://www.w3.org/Graphics/SVG/1.1/DTD/svg11.dtd">
<!-- Created with matplotlib (https://matplotlib.org/) -->
<svg height="345.6pt" version="1.1" viewBox="0 0 460.8 345.6" width="460.8pt" xmlns="http://www.w3.org/2000/svg" xmlns:xlink="http://www.w3.org/1999/xlink">
 <defs>
  <style type="text/css">
*{stroke-linecap:butt;stroke-linejoin:round;}
  </style>
 </defs>
 <g id="figure_1">
  <g id="patch_1">
   <path d="M 0 345.6 
L 460.8 345.6 
L 460.8 0 
L 0 0 
z
" style="fill:#ffffff;"/>
  </g>
  <g id="axes_1">
   <g id="patch_2">
    <path d="M 57.6 307.584 
L 414.72 307.584 
L 414.72 41.472 
L 57.6 41.472 
z
" style="fill:#ffffff;"/>
   </g>
   <g id="matplotlib.axis_1">
    <g id="xtick_1">
     <g id="line2d_1">
      <defs>
       <path d="M 0 0 
L 0 3.5 
" id="m48f1aafb2e" style="stroke:#000000;stroke-width:0.8;"/>
      </defs>
      <g>
       <use style="stroke:#000000;stroke-width:0.8;" x="73.832727" xlink:href="#m48f1aafb2e" y="307.584"/>
      </g>
     </g>
     <g id="text_1">
      <!-- 0 -->
      <defs>
       <path d="M 31.78125 66.40625 
Q 24.171875 66.40625 20.328125 58.90625 
Q 16.5 51.421875 16.5 36.375 
Q 16.5 21.390625 20.328125 13.890625 
Q 24.171875 6.390625 31.78125 6.390625 
Q 39.453125 6.390625 43.28125 13.890625 
Q 47.125 21.390625 47.125 36.375 
Q 47.125 51.421875 43.28125 58.90625 
Q 39.453125 66.40625 31.78125 66.40625 
z
M 31.78125 74.21875 
Q 44.046875 74.21875 50.515625 64.515625 
Q 56.984375 54.828125 56.984375 36.375 
Q 56.984375 17.96875 50.515625 8.265625 
Q 44.046875 -1.421875 31.78125 -1.421875 
Q 19.53125 -1.421875 13.0625 8.265625 
Q 6.59375 17.96875 6.59375 36.375 
Q 6.59375 54.828125 13.0625 64.515625 
Q 19.53125 74.21875 31.78125 74.21875 
z
" id="DejaVuSans-48"/>
      </defs>
      <g transform="translate(70.651477 322.182437)scale(0.1 -0.1)">
       <use xlink:href="#DejaVuSans-48"/>
      </g>
     </g>
    </g>
    <g id="xtick_2">
     <g id="line2d_2">
      <g>
       <use style="stroke:#000000;stroke-width:0.8;" x="120.2451" xlink:href="#m48f1aafb2e" y="307.584"/>
      </g>
     </g>
     <g id="text_2">
      <!-- 200 -->
      <defs>
       <path d="M 19.1875 8.296875 
L 53.609375 8.296875 
L 53.609375 0 
L 7.328125 0 
L 7.328125 8.296875 
Q 12.9375 14.109375 22.625 23.890625 
Q 32.328125 33.6875 34.8125 36.53125 
Q 39.546875 41.84375 41.421875 45.53125 
Q 43.3125 49.21875 43.3125 52.78125 
Q 43.3125 58.59375 39.234375 62.25 
Q 35.15625 65.921875 28.609375 65.921875 
Q 23.96875 65.921875 18.8125 64.3125 
Q 13.671875 62.703125 7.8125 59.421875 
L 7.8125 69.390625 
Q 13.765625 71.78125 18.9375 73 
Q 24.125 74.21875 28.421875 74.21875 
Q 39.75 74.21875 46.484375 68.546875 
Q 53.21875 62.890625 53.21875 53.421875 
Q 53.21875 48.921875 51.53125 44.890625 
Q 49.859375 40.875 45.40625 35.40625 
Q 44.1875 33.984375 37.640625 27.21875 
Q 31.109375 20.453125 19.1875 8.296875 
z
" id="DejaVuSans-50"/>
      </defs>
      <g transform="translate(110.70135 322.182437)scale(0.1 -0.1)">
       <use xlink:href="#DejaVuSans-50"/>
       <use x="63.623047" xlink:href="#DejaVuSans-48"/>
       <use x="127.246094" xlink:href="#DejaVuSans-48"/>
      </g>
     </g>
    </g>
    <g id="xtick_3">
     <g id="line2d_3">
      <g>
       <use style="stroke:#000000;stroke-width:0.8;" x="166.657472" xlink:href="#m48f1aafb2e" y="307.584"/>
      </g>
     </g>
     <g id="text_3">
      <!-- 400 -->
      <defs>
       <path d="M 37.796875 64.3125 
L 12.890625 25.390625 
L 37.796875 25.390625 
z
M 35.203125 72.90625 
L 47.609375 72.90625 
L 47.609375 25.390625 
L 58.015625 25.390625 
L 58.015625 17.1875 
L 47.609375 17.1875 
L 47.609375 0 
L 37.796875 0 
L 37.796875 17.1875 
L 4.890625 17.1875 
L 4.890625 26.703125 
z
" id="DejaVuSans-52"/>
      </defs>
      <g transform="translate(157.113722 322.182437)scale(0.1 -0.1)">
       <use xlink:href="#DejaVuSans-52"/>
       <use x="63.623047" xlink:href="#DejaVuSans-48"/>
       <use x="127.246094" xlink:href="#DejaVuSans-48"/>
      </g>
     </g>
    </g>
    <g id="xtick_4">
     <g id="line2d_4">
      <g>
       <use style="stroke:#000000;stroke-width:0.8;" x="213.069845" xlink:href="#m48f1aafb2e" y="307.584"/>
      </g>
     </g>
     <g id="text_4">
      <!-- 600 -->
      <defs>
       <path d="M 33.015625 40.375 
Q 26.375 40.375 22.484375 35.828125 
Q 18.609375 31.296875 18.609375 23.390625 
Q 18.609375 15.53125 22.484375 10.953125 
Q 26.375 6.390625 33.015625 6.390625 
Q 39.65625 6.390625 43.53125 10.953125 
Q 47.40625 15.53125 47.40625 23.390625 
Q 47.40625 31.296875 43.53125 35.828125 
Q 39.65625 40.375 33.015625 40.375 
z
M 52.59375 71.296875 
L 52.59375 62.3125 
Q 48.875 64.0625 45.09375 64.984375 
Q 41.3125 65.921875 37.59375 65.921875 
Q 27.828125 65.921875 22.671875 59.328125 
Q 17.53125 52.734375 16.796875 39.40625 
Q 19.671875 43.65625 24.015625 45.921875 
Q 28.375 48.1875 33.59375 48.1875 
Q 44.578125 48.1875 50.953125 41.515625 
Q 57.328125 34.859375 57.328125 23.390625 
Q 57.328125 12.15625 50.6875 5.359375 
Q 44.046875 -1.421875 33.015625 -1.421875 
Q 20.359375 -1.421875 13.671875 8.265625 
Q 6.984375 17.96875 6.984375 36.375 
Q 6.984375 53.65625 15.1875 63.9375 
Q 23.390625 74.21875 37.203125 74.21875 
Q 40.921875 74.21875 44.703125 73.484375 
Q 48.484375 72.75 52.59375 71.296875 
z
" id="DejaVuSans-54"/>
      </defs>
      <g transform="translate(203.526095 322.182437)scale(0.1 -0.1)">
       <use xlink:href="#DejaVuSans-54"/>
       <use x="63.623047" xlink:href="#DejaVuSans-48"/>
       <use x="127.246094" xlink:href="#DejaVuSans-48"/>
      </g>
     </g>
    </g>
    <g id="xtick_5">
     <g id="line2d_5">
      <g>
       <use style="stroke:#000000;stroke-width:0.8;" x="259.482217" xlink:href="#m48f1aafb2e" y="307.584"/>
      </g>
     </g>
     <g id="text_5">
      <!-- 800 -->
      <defs>
       <path d="M 31.78125 34.625 
Q 24.75 34.625 20.71875 30.859375 
Q 16.703125 27.09375 16.703125 20.515625 
Q 16.703125 13.921875 20.71875 10.15625 
Q 24.75 6.390625 31.78125 6.390625 
Q 38.8125 6.390625 42.859375 10.171875 
Q 46.921875 13.96875 46.921875 20.515625 
Q 46.921875 27.09375 42.890625 30.859375 
Q 38.875 34.625 31.78125 34.625 
z
M 21.921875 38.8125 
Q 15.578125 40.375 12.03125 44.71875 
Q 8.5 49.078125 8.5 55.328125 
Q 8.5 64.0625 14.71875 69.140625 
Q 20.953125 74.21875 31.78125 74.21875 
Q 42.671875 74.21875 48.875 69.140625 
Q 55.078125 64.0625 55.078125 55.328125 
Q 55.078125 49.078125 51.53125 44.71875 
Q 48 40.375 41.703125 38.8125 
Q 48.828125 37.15625 52.796875 32.3125 
Q 56.78125 27.484375 56.78125 20.515625 
Q 56.78125 9.90625 50.3125 4.234375 
Q 43.84375 -1.421875 31.78125 -1.421875 
Q 19.734375 -1.421875 13.25 4.234375 
Q 6.78125 9.90625 6.78125 20.515625 
Q 6.78125 27.484375 10.78125 32.3125 
Q 14.796875 37.15625 21.921875 38.8125 
z
M 18.3125 54.390625 
Q 18.3125 48.734375 21.84375 45.5625 
Q 25.390625 42.390625 31.78125 42.390625 
Q 38.140625 42.390625 41.71875 45.5625 
Q 45.3125 48.734375 45.3125 54.390625 
Q 45.3125 60.0625 41.71875 63.234375 
Q 38.140625 66.40625 31.78125 66.40625 
Q 25.390625 66.40625 21.84375 63.234375 
Q 18.3125 60.0625 18.3125 54.390625 
z
" id="DejaVuSans-56"/>
      </defs>
      <g transform="translate(249.938467 322.182437)scale(0.1 -0.1)">
       <use xlink:href="#DejaVuSans-56"/>
       <use x="63.623047" xlink:href="#DejaVuSans-48"/>
       <use x="127.246094" xlink:href="#DejaVuSans-48"/>
      </g>
     </g>
    </g>
    <g id="xtick_6">
     <g id="line2d_6">
      <g>
       <use style="stroke:#000000;stroke-width:0.8;" x="305.89459" xlink:href="#m48f1aafb2e" y="307.584"/>
      </g>
     </g>
     <g id="text_6">
      <!-- 1000 -->
      <defs>
       <path d="M 12.40625 8.296875 
L 28.515625 8.296875 
L 28.515625 63.921875 
L 10.984375 60.40625 
L 10.984375 69.390625 
L 28.421875 72.90625 
L 38.28125 72.90625 
L 38.28125 8.296875 
L 54.390625 8.296875 
L 54.390625 0 
L 12.40625 0 
z
" id="DejaVuSans-49"/>
      </defs>
      <g transform="translate(293.16959 322.182437)scale(0.1 -0.1)">
       <use xlink:href="#DejaVuSans-49"/>
       <use x="63.623047" xlink:href="#DejaVuSans-48"/>
       <use x="127.246094" xlink:href="#DejaVuSans-48"/>
       <use x="190.869141" xlink:href="#DejaVuSans-48"/>
      </g>
     </g>
    </g>
    <g id="xtick_7">
     <g id="line2d_7">
      <g>
       <use style="stroke:#000000;stroke-width:0.8;" x="352.306962" xlink:href="#m48f1aafb2e" y="307.584"/>
      </g>
     </g>
     <g id="text_7">
      <!-- 1200 -->
      <g transform="translate(339.581962 322.182437)scale(0.1 -0.1)">
       <use xlink:href="#DejaVuSans-49"/>
       <use x="63.623047" xlink:href="#DejaVuSans-50"/>
       <use x="127.246094" xlink:href="#DejaVuSans-48"/>
       <use x="190.869141" xlink:href="#DejaVuSans-48"/>
      </g>
     </g>
    </g>
    <g id="xtick_8">
     <g id="line2d_8">
      <g>
       <use style="stroke:#000000;stroke-width:0.8;" x="398.719335" xlink:href="#m48f1aafb2e" y="307.584"/>
      </g>
     </g>
     <g id="text_8">
      <!-- 1400 -->
      <g transform="translate(385.994335 322.182437)scale(0.1 -0.1)">
       <use xlink:href="#DejaVuSans-49"/>
       <use x="63.623047" xlink:href="#DejaVuSans-52"/>
       <use x="127.246094" xlink:href="#DejaVuSans-48"/>
       <use x="190.869141" xlink:href="#DejaVuSans-48"/>
      </g>
     </g>
    </g>
   </g>
   <g id="matplotlib.axis_2">
    <g id="ytick_1">
     <g id="line2d_9">
      <defs>
       <path d="M 0 0 
L -3.5 0 
" id="m4362604753" style="stroke:#000000;stroke-width:0.8;"/>
      </defs>
      <g>
       <use style="stroke:#000000;stroke-width:0.8;" x="57.6" xlink:href="#m4362604753" y="295.514759"/>
      </g>
     </g>
     <g id="text_9">
      <!-- 0.00 -->
      <defs>
       <path d="M 10.6875 12.40625 
L 21 12.40625 
L 21 0 
L 10.6875 0 
z
" id="DejaVuSans-46"/>
      </defs>
      <g transform="translate(28.334375 299.313978)scale(0.1 -0.1)">
       <use xlink:href="#DejaVuSans-48"/>
       <use x="63.623047" xlink:href="#DejaVuSans-46"/>
       <use x="95.410156" xlink:href="#DejaVuSans-48"/>
       <use x="159.033203" xlink:href="#DejaVuSans-48"/>
      </g>
     </g>
    </g>
    <g id="ytick_2">
     <g id="line2d_10">
      <g>
       <use style="stroke:#000000;stroke-width:0.8;" x="57.6" xlink:href="#m4362604753" y="242.526567"/>
      </g>
     </g>
     <g id="text_10">
      <!-- 0.05 -->
      <defs>
       <path d="M 10.796875 72.90625 
L 49.515625 72.90625 
L 49.515625 64.59375 
L 19.828125 64.59375 
L 19.828125 46.734375 
Q 21.96875 47.46875 24.109375 47.828125 
Q 26.265625 48.1875 28.421875 48.1875 
Q 40.625 48.1875 47.75 41.5 
Q 54.890625 34.8125 54.890625 23.390625 
Q 54.890625 11.625 47.5625 5.09375 
Q 40.234375 -1.421875 26.90625 -1.421875 
Q 22.3125 -1.421875 17.546875 -0.640625 
Q 12.796875 0.140625 7.71875 1.703125 
L 7.71875 11.625 
Q 12.109375 9.234375 16.796875 8.0625 
Q 21.484375 6.890625 26.703125 6.890625 
Q 35.15625 6.890625 40.078125 11.328125 
Q 45.015625 15.765625 45.015625 23.390625 
Q 45.015625 31 40.078125 35.4375 
Q 35.15625 39.890625 26.703125 39.890625 
Q 22.75 39.890625 18.8125 39.015625 
Q 14.890625 38.140625 10.796875 36.28125 
z
" id="DejaVuSans-53"/>
      </defs>
      <g transform="translate(28.334375 246.325785)scale(0.1 -0.1)">
       <use xlink:href="#DejaVuSans-48"/>
       <use x="63.623047" xlink:href="#DejaVuSans-46"/>
       <use x="95.410156" xlink:href="#DejaVuSans-48"/>
       <use x="159.033203" xlink:href="#DejaVuSans-53"/>
      </g>
     </g>
    </g>
    <g id="ytick_3">
     <g id="line2d_11">
      <g>
       <use style="stroke:#000000;stroke-width:0.8;" x="57.6" xlink:href="#m4362604753" y="189.538374"/>
      </g>
     </g>
     <g id="text_11">
      <!-- 0.10 -->
      <g transform="translate(28.334375 193.337593)scale(0.1 -0.1)">
       <use xlink:href="#DejaVuSans-48"/>
       <use x="63.623047" xlink:href="#DejaVuSans-46"/>
       <use x="95.410156" xlink:href="#DejaVuSans-49"/>
       <use x="159.033203" xlink:href="#DejaVuSans-48"/>
      </g>
     </g>
    </g>
    <g id="ytick_4">
     <g id="line2d_12">
      <g>
       <use style="stroke:#000000;stroke-width:0.8;" x="57.6" xlink:href="#m4362604753" y="136.550181"/>
      </g>
     </g>
     <g id="text_12">
      <!-- 0.15 -->
      <g transform="translate(28.334375 140.3494)scale(0.1 -0.1)">
       <use xlink:href="#DejaVuSans-48"/>
       <use x="63.623047" xlink:href="#DejaVuSans-46"/>
       <use x="95.410156" xlink:href="#DejaVuSans-49"/>
       <use x="159.033203" xlink:href="#DejaVuSans-53"/>
      </g>
     </g>
    </g>
    <g id="ytick_5">
     <g id="line2d_13">
      <g>
       <use style="stroke:#000000;stroke-width:0.8;" x="57.6" xlink:href="#m4362604753" y="83.561988"/>
      </g>
     </g>
     <g id="text_13">
      <!-- 0.20 -->
      <g transform="translate(28.334375 87.361207)scale(0.1 -0.1)">
       <use xlink:href="#DejaVuSans-48"/>
       <use x="63.623047" xlink:href="#DejaVuSans-46"/>
       <use x="95.410156" xlink:href="#DejaVuSans-50"/>
       <use x="159.033203" xlink:href="#DejaVuSans-48"/>
      </g>
     </g>
    </g>
   </g>
   <g id="line2d_14">
    <path clip-path="url(#p17bf300ace)" d="M 73.832727 238.233707 
L 74.064789 220.889462 
L 74.528913 230.758106 
L 74.760975 242.589165 
L 74.993037 261.532873 
L 75.225098 263.325854 
L 75.45716 263.602791 
L 75.689222 265.933491 
L 76.61747 282.663354 
L 77.313655 293.678505 
L 77.545717 294.710454 
L 77.777779 295.225813 
L 78.009841 295.176735 
L 78.706026 295.447548 
L 78.938088 295.33008 
L 79.402212 295.488 
L 80.562521 295.363506 
L 81.490769 295.229032 
L 81.722831 295.335952 
L 81.954892 295.310926 
L 82.651078 294.091269 
L 82.88314 293.253354 
L 83.347264 290.046137 
L 84.275511 280.059782 
L 84.971697 275.490934 
L 85.43582 271.929241 
L 85.667882 263.654124 
L 85.899944 250.571447 
L 86.132006 263.824029 
L 86.364068 266.498003 
L 86.59613 259.212857 
L 86.828192 256.821229 
L 87.060253 256.704595 
L 87.292315 269.861887 
L 87.756439 274.592209 
L 87.988501 280.664838 
L 88.220563 282.981251 
L 88.452625 287.171823 
L 88.916748 290.679637 
L 89.612934 285.652875 
L 90.077058 282.487481 
L 91.005305 274.836481 
L 91.469429 273.42498 
L 91.701491 274.078212 
L 91.933553 274.376895 
L 92.629738 278.130932 
L 92.8618 276.766191 
L 93.093862 278.934377 
L 93.325924 278.018694 
L 93.790047 274.964179 
L 94.022109 276.665264 
L 94.254171 265.185302 
L 94.486233 260.721539 
L 94.950357 273.238354 
L 95.182419 272.258482 
L 95.41448 283.919578 
L 95.646542 284.245542 
L 96.110666 288.414693 
L 96.57479 291.170391 
L 97.038914 292.401575 
L 97.503037 290.412487 
L 97.967161 287.288853 
L 98.895408 280.340939 
L 99.12747 279.703942 
L 99.591594 279.684187 
L 100.055718 277.422967 
L 100.28778 277.660908 
L 100.519841 276.837461 
L 100.751903 277.953182 
L 100.983965 274.873644 
L 101.216027 273.637769 
L 101.448089 270.456119 
L 101.680151 273.342915 
L 101.912213 264.987252 
L 102.144274 267.146254 
L 102.376336 266.142065 
L 102.608398 275.877471 
L 103.072522 284.363269 
L 103.304584 285.755995 
L 103.768708 290.304728 
L 104.232831 292.286322 
L 104.464893 293.805437 
L 104.696955 294.33052 
L 105.161079 293.010633 
L 105.625202 290.798997 
L 106.55345 285.800401 
L 107.017574 280.637736 
L 107.249635 281.790348 
L 107.481697 280.198043 
L 107.945821 283.187693 
L 108.177883 279.523459 
L 108.409945 279.764698 
L 108.874068 275.821256 
L 109.10613 275.940644 
L 109.338192 276.441203 
L 109.570254 264.13679 
L 109.802316 267.036656 
L 110.034378 268.216921 
L 110.26644 276.755174 
L 110.730563 284.067307 
L 110.962625 284.826227 
L 111.426749 290.932184 
L 111.658811 291.257343 
L 111.890873 292.338971 
L 112.354996 293.379138 
L 112.587058 294.050998 
L 112.81912 293.50133 
L 113.051182 292.074518 
L 113.283244 291.699703 
L 113.515306 288.468111 
L 113.747368 287.034323 
L 113.979429 287.324056 
L 114.211491 285.979459 
L 114.443553 282.224846 
L 114.907677 280.570685 
L 115.139739 280.851342 
L 115.371801 282.036152 
L 115.603862 273.158657 
L 116.067986 277.644616 
L 116.300048 275.377319 
L 116.53211 270.581849 
L 116.764172 273.447933 
L 116.996234 274.478405 
L 117.228296 262.736484 
L 117.692419 267.594086 
L 118.156543 281.673399 
L 118.388605 287.021649 
L 118.620667 287.483853 
L 118.852729 287.671499 
L 119.08479 290.903082 
L 119.316852 292.13815 
L 120.2451 293.61768 
L 120.477162 293.678299 
L 120.709223 293.545874 
L 120.941285 292.54422 
L 121.173347 290.478875 
L 121.405409 290.012276 
L 121.637471 288.056183 
L 121.869533 287.664479 
L 122.565718 277.846302 
L 122.79778 272.866768 
L 123.029842 273.717384 
L 123.261904 273.51336 
L 123.493966 276.827011 
L 123.726028 276.320191 
L 123.95809 278.337669 
L 124.190151 272.724817 
L 124.422213 274.377542 
L 124.654275 275.072994 
L 124.886337 273.770882 
L 125.118399 265.084785 
L 125.582523 276.704042 
L 125.814584 279.874643 
L 126.046646 280.53704 
L 126.278708 286.251979 
L 126.51077 286.436639 
L 126.974894 290.328225 
L 127.206956 292.633452 
L 127.439017 292.955261 
L 127.671079 294.060354 
L 127.903141 293.756141 
L 128.135203 293.880877 
L 128.367265 293.241824 
L 128.831389 290.26524 
L 129.063451 288.006634 
L 129.295512 287.112353 
L 129.527574 286.770729 
L 129.759636 281.753013 
L 129.991698 279.221011 
L 130.455822 270.463367 
L 130.687884 269.728639 
L 130.919945 270.033257 
L 131.152007 269.084517 
L 131.384069 272.895086 
L 131.848193 276.57244 
L 132.080255 273.134108 
L 132.312317 275.955972 
L 132.544378 267.886119 
L 132.77644 265.644347 
L 133.008502 268.43647 
L 133.240564 280.230323 
L 133.472626 281.61791 
L 133.93675 287.375451 
L 134.632935 289.971863 
L 135.097059 292.206688 
L 135.329121 293.299646 
L 135.793245 293.478533 
L 136.025306 293.405014 
L 136.257368 291.841074 
L 136.48943 291.79589 
L 136.953554 284.592629 
L 137.185616 285.052786 
L 137.649739 274.49973 
L 137.881801 275.137981 
L 138.113863 267.650887 
L 138.345925 266.882435 
L 138.577987 268.442683 
L 138.810049 268.959444 
L 139.042111 268.827786 
L 139.506234 274.814481 
L 139.738296 274.763977 
L 139.970358 275.355647 
L 140.20242 276.331911 
L 140.434482 265.030801 
L 140.898605 278.375222 
L 141.130667 279.89096 
L 141.826853 288.838982 
L 142.058915 290.724292 
L 142.523039 291.967012 
L 142.987162 292.898743 
L 143.219224 293.101809 
L 143.683348 293.043802 
L 143.91541 292.028644 
L 144.147472 292.03915 
L 144.379533 288.87651 
L 144.611595 288.842481 
L 144.843657 287.838083 
L 145.307781 278.573211 
L 145.539843 274.310863 
L 145.771905 278.205715 
L 146.003966 274.053478 
L 146.236028 272.662052 
L 146.700152 275.543217 
L 146.932214 287.190181 
L 147.164276 287.771127 
L 147.396338 283.206807 
L 147.6284 283.200962 
L 147.860461 279.437941 
L 148.092523 270.931177 
L 148.324585 272.473514 
L 148.788709 283.687741 
L 149.020771 284.281661 
L 149.252833 288.323814 
L 149.484894 288.764109 
L 149.716956 289.70441 
L 149.949018 290.052154 
L 150.413142 291.685309 
L 150.645204 292.96558 
L 151.341389 292.290762 
L 151.573451 291.931055 
L 151.805513 289.525831 
L 152.037575 289.515697 
L 152.269637 286.045079 
L 152.501699 286.18154 
L 152.73376 287.077193 
L 152.965822 280.129777 
L 153.197884 278.701328 
L 153.429946 278.8966 
L 153.662008 277.84648 
L 153.89407 275.818944 
L 154.126132 277.193713 
L 154.358194 277.538862 
L 154.590255 285.577951 
L 154.822317 284.96281 
L 155.054379 282.83491 
L 155.286441 283.398694 
L 155.518503 270.162048 
L 155.750565 271.321441 
L 155.982627 273.150399 
L 156.214688 279.269822 
L 156.910874 287.621307 
L 157.142936 288.002781 
L 157.374998 288.984685 
L 157.839121 291.25646 
L 158.303245 292.986172 
L 158.767369 293.647132 
L 158.999431 293.089669 
L 159.231493 292.146471 
L 159.463554 289.936588 
L 159.695616 290.829788 
L 159.927678 288.12832 
L 160.15974 286.768716 
L 160.391802 287.557552 
L 160.623864 280.439973 
L 160.855926 276.750816 
L 161.087988 278.327179 
L 161.552111 274.725674 
L 161.784173 275.226149 
L 162.016235 281.084051 
L 162.480359 285.988714 
L 162.712421 280.479197 
L 162.944482 281.177115 
L 163.176544 271.221848 
L 163.408606 274.117499 
L 163.640668 269.325981 
L 163.87273 280.833514 
L 164.336854 284.241678 
L 164.568915 288.762204 
L 164.800977 288.999684 
L 165.729225 293.902981 
L 165.961287 294.140287 
L 166.193348 294.632411 
L 166.42541 294.754532 
L 166.657472 294.059735 
L 166.889534 291.992429 
L 167.121596 291.948281 
L 167.353658 292.692964 
L 167.58572 289.608879 
L 167.817782 290.506748 
L 168.049843 287.818905 
L 168.281905 281.689637 
L 168.513967 282.670047 
L 168.746029 282.649848 
L 168.978091 277.459648 
L 169.210153 277.075227 
L 169.442215 282.784047 
L 169.674276 278.143875 
L 169.906338 286.06556 
L 170.1384 284.897853 
L 170.370462 282.212031 
L 170.602524 281.773445 
L 170.834586 280.46406 
L 171.066648 268.491764 
L 171.298709 267.1919 
L 171.530771 278.301041 
L 171.762833 275.269492 
L 171.994895 282.112822 
L 172.226957 282.342754 
L 172.691081 288.361705 
L 172.923143 288.244063 
L 173.155204 288.724602 
L 173.387266 289.589708 
L 173.85139 292.142012 
L 174.083452 292.519316 
L 174.315514 292.577438 
L 174.779637 290.652041 
L 175.011699 291.766538 
L 175.243761 285.977335 
L 175.475823 286.221872 
L 175.707885 287.562545 
L 176.172009 278.63542 
L 176.40407 277.606091 
L 176.636132 274.867222 
L 176.868194 274.674319 
L 177.100256 274.896037 
L 177.332318 275.677878 
L 177.56438 283.170407 
L 177.796442 278.423721 
L 178.028503 276.470429 
L 178.260565 275.471892 
L 178.492627 275.226768 
L 178.724689 259.742212 
L 179.188813 268.957249 
L 179.420875 270.800227 
L 179.652937 275.702085 
L 179.884998 277.438317 
L 180.349122 284.602056 
L 180.813246 288.800585 
L 181.045308 289.134578 
L 181.509431 290.824556 
L 181.741493 292.401316 
L 181.973555 292.779877 
L 182.205617 291.815729 
L 182.437679 289.989788 
L 182.669741 290.193708 
L 182.901803 287.832122 
L 183.133864 288.940302 
L 183.365926 286.847205 
L 183.83005 273.030876 
L 184.294174 270.79858 
L 184.526236 270.367548 
L 184.758297 271.646436 
L 184.990359 278.77701 
L 185.222421 280.110758 
L 185.918607 275.97105 
L 186.150669 276.246002 
L 186.382731 264.60856 
L 186.614792 272.495956 
L 186.846854 275.531507 
L 187.078916 276.559513 
L 187.54304 286.316799 
L 188.239225 287.333797 
L 188.935411 290.185918 
L 189.631597 292.099298 
L 189.863658 291.65633 
L 190.09572 289.933823 
L 190.327782 290.446643 
L 190.559844 289.305441 
L 191.023968 285.930031 
L 191.720153 268.979587 
L 191.952215 268.143241 
L 192.184277 271.639413 
L 192.416339 269.846153 
L 192.648401 272.64783 
L 192.880463 278.214142 
L 193.112525 276.054056 
L 193.344586 276.290532 
L 193.576648 274.869646 
L 193.80871 275.311076 
L 194.040772 262.253957 
L 194.272834 270.689393 
L 194.504896 274.140271 
L 194.736958 275.633926 
L 194.969019 281.987971 
L 195.201081 284.699372 
L 196.129329 289.92907 
L 196.825514 292.591468 
L 197.057576 293.158404 
L 197.289638 293.080261 
L 197.753762 289.369498 
L 197.985824 290.951641 
L 198.217886 285.222917 
L 198.914071 276.203643 
L 199.146133 277.037602 
L 199.610257 267.392795 
L 199.842319 270.194724 
L 200.07438 270.377453 
L 200.306442 279.368749 
L 200.538504 272.270473 
L 200.770566 276.384957 
L 201.002628 276.356867 
L 201.23469 274.551358 
L 201.698813 263.74131 
L 201.930875 272.619038 
L 202.162937 274.441318 
L 202.394999 277.176331 
L 202.627061 283.803706 
L 202.859123 284.779577 
L 203.091185 287.032519 
L 203.323246 287.128954 
L 203.555308 287.582712 
L 203.78737 289.173862 
L 204.483556 290.457836 
L 204.715618 290.431337 
L 204.94768 290.64527 
L 205.411803 290.545979 
L 205.643865 288.277429 
L 205.875927 283.909181 
L 206.107989 283.618378 
L 206.340051 280.874176 
L 206.572113 279.672969 
L 206.804174 276.505892 
L 207.036236 268.688346 
L 207.268298 269.969142 
L 207.50036 270.068224 
L 207.732422 268.965888 
L 207.964484 270.765742 
L 208.196546 268.509507 
L 208.428607 273.578801 
L 208.660669 275.342354 
L 208.892731 270.115688 
L 209.124793 273.913349 
L 209.356855 262.245823 
L 210.05304 277.970006 
L 210.285102 275.20512 
L 210.749226 285.058805 
L 210.981288 286.733313 
L 211.445412 287.588486 
L 211.909535 289.772328 
L 212.605721 291.174504 
L 213.069845 290.871775 
L 213.301907 290.513959 
L 213.533968 288.881083 
L 213.76603 289.424307 
L 213.998092 282.59732 
L 214.230154 281.796743 
L 214.462216 280.447656 
L 214.694278 274.404816 
L 214.92634 274.4816 
L 215.158401 272.006589 
L 215.390463 274.858818 
L 215.622525 280.160296 
L 215.854587 273.428535 
L 216.086649 276.798077 
L 216.318711 277.622576 
L 216.550773 277.246722 
L 216.782834 266.229228 
L 217.014896 263.817343 
L 217.246958 262.965058 
L 217.47902 273.726183 
L 217.943144 277.143564 
L 218.175206 279.017041 
L 218.639329 285.96182 
L 218.871391 284.608505 
L 219.103453 287.27009 
L 219.335515 288.025608 
L 219.799639 290.575227 
L 220.263762 291.787372 
L 220.495824 291.9591 
L 220.727886 292.271833 
L 221.424072 288.083252 
L 221.656134 288.261614 
L 222.120257 276.869958 
L 222.352319 279.293005 
L 222.584381 275.172367 
L 222.816443 274.874277 
L 223.048505 274.905497 
L 223.512629 273.202809 
L 223.74469 278.138979 
L 223.976752 277.046693 
L 224.208814 270.61381 
L 224.440876 275.63655 
L 224.672938 265.866226 
L 224.905 273.781409 
L 225.137062 272.740474 
L 225.369123 272.961598 
L 225.601185 275.75432 
L 226.065309 277.629748 
L 226.761495 280.684837 
L 226.993556 281.155276 
L 227.689742 286.986985 
L 227.921804 287.418132 
L 228.385928 287.488399 
L 228.850051 287.355367 
L 229.082113 286.968935 
L 229.314175 281.008853 
L 229.546237 280.071931 
L 229.778299 280.384364 
L 230.010361 272.799557 
L 230.242423 270.511307 
L 230.474484 270.971228 
L 230.938608 268.728131 
L 231.17067 269.140375 
L 231.402732 270.090848 
L 231.634794 276.037123 
L 232.098917 268.64219 
L 232.330979 262.78557 
L 232.563041 274.350706 
L 232.795103 271.73841 
L 233.259227 276.049277 
L 233.491289 280.926011 
L 233.72335 282.907437 
L 233.955412 283.731365 
L 234.419536 286.97215 
L 234.651598 288.918348 
L 234.88366 289.214733 
L 235.115722 291.26887 
L 235.347783 291.651625 
L 235.579845 291.779651 
L 235.811907 290.067875 
L 236.043969 290.792044 
L 236.276031 288.614129 
L 236.740155 282.179161 
L 236.972217 285.042449 
L 237.204278 278.507043 
L 237.43634 275.162082 
L 237.668402 274.816252 
L 237.900464 265.216413 
L 238.132526 262.53227 
L 238.828711 267.709968 
L 239.060773 267.676488 
L 239.292835 271.795948 
L 239.524897 268.87664 
L 239.756959 268.082609 
L 239.989021 262.382807 
L 240.221083 269.745901 
L 240.453144 267.55644 
L 240.685206 274.759348 
L 240.917268 277.1004 
L 241.14933 276.955274 
L 241.613454 285.197827 
L 241.845516 286.22859 
L 242.077577 284.348984 
L 242.541701 288.772556 
L 242.773763 290.385325 
L 243.005825 290.740027 
L 243.237887 290.864368 
L 243.469949 289.138566 
L 243.702011 288.959763 
L 243.934072 287.586752 
L 244.166134 283.847825 
L 244.398196 285.887427 
L 245.094382 274.109385 
L 245.326444 263.743168 
L 245.558505 274.067895 
L 245.790567 274.52868 
L 246.022629 274.181398 
L 246.254691 266.118866 
L 246.486753 267.100421 
L 246.718815 267.391862 
L 246.950877 269.924684 
L 247.415 266.252302 
L 247.647062 267.86262 
L 247.879124 273.297343 
L 248.111186 272.533219 
L 248.343248 274.139023 
L 248.807371 280.145477 
L 249.039433 286.810404 
L 249.271495 282.634023 
L 249.735619 289.388724 
L 249.967681 289.503344 
L 250.663866 291.585467 
L 250.895928 292.01285 
L 251.12799 290.923744 
L 251.360052 292.26461 
L 251.592114 290.597781 
L 251.824176 285.561637 
L 252.056238 283.801791 
L 252.288299 279.560191 
L 252.520361 277.668738 
L 253.448609 259.805105 
L 253.912732 263.952989 
L 254.144794 264.884832 
L 254.376856 262.807084 
L 254.608918 269.309519 
L 255.073042 264.760994 
L 255.537166 265.552378 
L 255.769227 273.255358 
L 256.001289 272.497783 
L 256.233351 276.856121 
L 256.465413 275.849534 
L 256.697475 285.426269 
L 256.929537 282.993307 
L 257.161599 287.803879 
L 257.625722 290.861385 
L 258.321908 292.267546 
L 258.55397 292.633506 
L 258.786032 291.906897 
L 259.018093 290.127737 
L 259.250155 292.329031 
L 259.482217 286.174554 
L 259.714279 286.720386 
L 259.946341 279.69528 
L 260.178403 277.623266 
L 260.410465 276.714872 
L 260.642526 266.045603 
L 261.10665 259.919313 
L 261.338712 262.286633 
L 261.570774 263.166163 
L 261.802836 262.940809 
L 262.034898 263.390266 
L 262.499021 266.375493 
L 262.731083 263.978349 
L 262.963145 259.205676 
L 263.195207 261.981521 
L 263.427269 268.202911 
L 263.891393 272.176293 
L 264.123454 280.720506 
L 264.355516 277.861582 
L 264.587578 283.402598 
L 264.81964 285.097954 
L 265.051702 284.236338 
L 265.283764 284.440377 
L 265.515826 284.88571 
L 265.979949 287.285228 
L 266.212011 287.781151 
L 266.444073 287.886052 
L 266.676135 288.263485 
L 266.908197 287.803928 
L 267.140259 283.155518 
L 267.37232 284.409336 
L 267.604382 276.722868 
L 268.068506 269.90941 
L 268.300568 269.56689 
L 268.53263 257.983526 
L 268.764692 262.549665 
L 268.996754 261.387342 
L 269.228815 262.081926 
L 269.460877 262.10881 
L 269.692939 260.549363 
L 269.925001 261.753518 
L 270.157063 264.016218 
L 270.389125 260.878224 
L 270.621187 261.826578 
L 270.853248 265.512129 
L 271.08531 265.498816 
L 271.549434 278.540629 
L 271.781496 276.881818 
L 272.013558 279.941373 
L 272.24562 284.749566 
L 272.477681 283.105098 
L 272.709743 286.534114 
L 272.941805 287.627232 
L 273.173867 287.861675 
L 273.405929 289.162347 
L 273.870053 289.56783 
L 274.102114 289.513139 
L 274.334176 289.978836 
L 274.566238 289.594041 
L 274.7983 286.021443 
L 275.030362 285.689226 
L 275.262424 276.740809 
L 275.726548 269.885948 
L 275.958609 261.563649 
L 276.190671 257.838115 
L 276.886857 262.254338 
L 277.118919 262.520126 
L 277.350981 263.617603 
L 277.583042 262.034478 
L 277.815104 265.27549 
L 278.047166 260.523763 
L 278.279228 262.40472 
L 278.51129 265.313436 
L 278.743352 265.67142 
L 278.975414 268.176061 
L 279.671599 282.471964 
L 279.903661 280.498932 
L 280.135723 286.112098 
L 280.367785 287.849064 
L 281.06397 287.589249 
L 281.296032 287.632829 
L 281.760156 287.280029 
L 281.992218 287.011096 
L 282.22428 286.014327 
L 282.456342 280.803793 
L 282.688403 283.561216 
L 283.616651 259.211303 
L 283.848713 263.745293 
L 284.080775 262.023352 
L 284.312836 262.569113 
L 284.77696 259.372872 
L 285.009022 265.66386 
L 285.241084 261.725128 
L 285.473146 265.264449 
L 285.705208 259.97348 
L 285.937269 258.161361 
L 286.401393 269.026774 
L 286.633455 267.775013 
L 286.865517 276.997045 
L 287.097579 279.040796 
L 287.329641 278.14924 
L 287.561703 283.691579 
L 287.793764 280.477112 
L 288.257888 285.157722 
L 288.48995 284.165189 
L 288.722012 284.108379 
L 290.114383 281.190161 
L 290.346445 279.546288 
L 290.810569 270.280106 
L 291.04263 268.430699 
L 291.274692 259.557935 
L 291.506754 259.103913 
L 291.738816 256.245221 
L 291.970878 255.394249 
L 292.20294 255.956969 
L 292.435002 251.119951 
L 292.667063 252.097869 
L 292.899125 262.836776 
L 293.131187 263.961958 
L 293.363249 259.854937 
L 293.595311 257.78671 
L 293.827373 256.785042 
L 294.059435 267.975759 
L 294.291497 262.581869 
L 294.523558 263.620918 
L 294.75562 277.24786 
L 294.987682 273.462811 
L 295.219744 281.855866 
L 295.451806 280.042897 
L 295.683868 288.26319 
L 295.91593 284.058134 
L 296.380053 287.549763 
L 297.540363 284.094906 
L 297.772424 278.78255 
L 298.004486 276.664249 
L 298.932734 253.312329 
L 299.164796 255.091631 
L 299.396857 254.835435 
L 299.860981 253.173767 
L 300.093043 256.788371 
L 300.325105 257.771964 
L 300.789229 260.452955 
L 301.021291 256.999238 
L 301.253352 262.067715 
L 301.485414 260.547185 
L 301.717476 264.366068 
L 301.949538 260.671401 
L 302.1816 261.009556 
L 302.413662 275.001364 
L 302.645724 275.028579 
L 302.877785 282.603303 
L 303.109847 279.123653 
L 303.341909 281.88166 
L 303.573971 291.267351 
L 303.806033 287.267833 
L 304.038095 290.73747 
L 304.270157 290.427323 
L 305.198404 285.964978 
L 305.430466 281.042879 
L 305.662528 278.741381 
L 305.89459 271.930538 
L 306.126652 269.737137 
L 306.358713 258.612374 
L 306.590775 260.070425 
L 307.054899 255.876619 
L 307.286961 254.959953 
L 307.519023 255.712353 
L 307.751085 257.267182 
L 307.983146 260.197569 
L 308.215208 259.318276 
L 308.44727 259.593252 
L 308.679332 254.916457 
L 308.911394 265.648231 
L 309.143456 270.484069 
L 309.607579 264.516417 
L 309.839641 266.34703 
L 310.071703 280.34038 
L 310.303765 283.537503 
L 310.535827 282.747216 
L 310.767889 289.215836 
L 311.232012 290.517047 
L 311.464074 290.658962 
L 311.928198 288.456263 
L 312.624384 283.02922 
L 313.784693 271.70981 
L 314.480879 255.459382 
L 314.945002 250.167569 
L 315.177064 250.604215 
L 315.409126 251.945153 
L 316.105312 263.032638 
L 316.337373 257.664084 
L 317.033559 266.757478 
L 317.265621 263.356928 
L 317.497683 268.944824 
L 317.729745 264.612779 
L 317.961806 281.615236 
L 318.193868 282.830895 
L 318.42593 282.861604 
L 318.657992 290.493474 
L 318.890054 291.697928 
L 319.122116 287.575326 
L 319.354178 291.945055 
L 319.58624 292.234309 
L 319.818301 290.346328 
L 320.050363 290.001267 
L 320.514487 285.045204 
L 320.978611 277.832979 
L 321.210673 279.134817 
L 321.442734 273.205996 
L 321.674796 271.750192 
L 321.906858 262.250949 
L 322.603044 253.134081 
L 322.835106 252.814141 
L 323.067167 253.895709 
L 323.299229 256.973746 
L 323.531291 261.571103 
L 323.763353 260.882281 
L 324.227477 255.443652 
L 324.459539 264.432414 
L 324.6916 268.450206 
L 324.923662 267.73102 
L 325.155724 268.360336 
L 325.387786 270.831448 
L 325.619848 286.633715 
L 325.85191 287.596216 
L 326.083972 287.607356 
L 326.316034 287.97142 
L 326.548095 289.171677 
L 326.780157 289.291368 
L 327.012219 289.164022 
L 327.244281 288.393828 
L 328.172528 283.079987 
L 328.40459 281.593206 
L 328.636652 278.572275 
L 328.868714 277.042645 
L 329.100776 277.623687 
L 329.796961 259.116035 
L 330.261085 254.416694 
L 330.493147 254.820201 
L 331.189333 259.174927 
L 331.421395 257.811328 
L 331.653456 257.436499 
L 331.885518 267.518924 
L 332.11758 263.660364 
L 332.349642 266.827441 
L 332.581704 266.335602 
L 332.813766 266.305772 
L 333.045828 268.315222 
L 333.277889 281.430501 
L 333.509951 284.750982 
L 333.742013 285.46071 
L 333.974075 289.336774 
L 334.206137 290.027077 
L 334.438199 289.725981 
L 335.134384 286.514939 
L 336.526755 277.06222 
L 336.758817 270.874946 
L 336.990879 267.768258 
L 337.455003 254.833844 
L 337.687065 250.605555 
L 337.919127 250.282338 
L 338.151189 240.245372 
L 338.38325 242.077538 
L 338.615312 253.064565 
L 339.311498 262.552429 
L 339.54356 257.910556 
L 339.775622 261.744281 
L 340.007683 271.69073 
L 340.471807 262.624143 
L 340.703869 264.607085 
L 340.935931 262.699138 
L 341.167993 265.44846 
L 341.400055 285.064139 
L 341.632116 284.238127 
L 342.09624 289.495539 
L 342.560364 287.795754 
L 343.256549 283.199525 
L 344.184797 273.987625 
L 344.416859 267.207311 
L 344.648921 266.281219 
L 344.880983 261.967469 
L 345.577168 238.160533 
L 345.80923 235.872232 
L 346.041292 235.773733 
L 346.273354 247.416383 
L 346.505416 249.298412 
L 346.969539 258.8661 
L 347.201601 258.920957 
L 347.433663 261.24863 
L 347.665725 261.740798 
L 347.897787 268.362671 
L 348.129849 267.900239 
L 348.593972 260.472339 
L 349.290158 267.228094 
L 349.52222 271.840528 
L 349.754282 272.623258 
L 349.986343 274.387394 
L 350.218405 278.902615 
L 350.682529 278.452708 
L 351.378715 272.634762 
L 351.610777 273.541477 
L 351.842838 271.898887 
L 352.0749 265.862727 
L 352.306962 264.934936 
L 352.539024 261.173244 
L 353.003148 248.795931 
L 353.23521 235.789845 
L 353.467271 232.460044 
L 353.699333 231.36514 
L 353.931395 239.962854 
L 354.163457 242.78098 
L 354.395519 248.143427 
L 354.627581 257.57322 
L 355.091704 265.093306 
L 355.323766 277.121113 
L 355.78789 267.37721 
L 356.019952 273.025208 
L 356.252014 269.967225 
L 356.948199 290.163874 
L 357.180261 291.068625 
L 357.412323 288.790981 
L 357.644385 287.917982 
L 358.108509 289.232764 
L 358.572632 284.563236 
L 358.804694 277.413572 
L 359.036756 274.941759 
L 359.268818 274.997668 
L 359.732942 269.1673 
L 359.965004 258.586173 
L 360.429127 254.478474 
L 360.661189 249.362526 
L 360.893251 238.18637 
L 361.125313 236.635842 
L 361.357375 236.970985 
L 361.589437 246.174764 
L 361.821498 247.928307 
L 362.05356 251.695216 
L 362.285622 258.907681 
L 362.517684 258.477859 
L 362.981808 277.275498 
L 363.21387 271.763035 
L 363.445932 271.536317 
L 363.677993 271.514669 
L 363.910055 275.068347 
L 364.142117 286.127627 
L 365.070365 290.650179 
L 365.302426 290.969339 
L 365.534488 289.635328 
L 365.76655 291.00328 
L 366.230674 287.500391 
L 366.694798 277.301828 
L 366.926859 255.481171 
L 367.158921 273.305756 
L 367.390983 264.664966 
L 367.623045 260.870514 
L 367.855107 263.263378 
L 368.319231 250.929004 
L 368.783354 244.994592 
L 369.015416 244.357114 
L 369.247478 245.124178 
L 369.711602 254.61256 
L 370.175726 268.347793 
L 370.407787 266.058285 
L 370.639849 272.313804 
L 371.336035 277.202625 
L 372.728406 289.55209 
L 373.19253 291.439537 
L 373.424592 292.0155 
L 373.656653 292.007112 
L 373.888715 290.72795 
L 374.352839 285.681091 
L 374.584901 281.138049 
L 374.816963 280.220972 
L 375.74521 260.496729 
L 376.209334 248.928719 
L 376.441396 244.615225 
L 376.673458 243.097392 
L 376.90552 242.431247 
L 377.369643 247.901256 
L 377.833767 261.741135 
L 378.065829 263.241307 
L 378.297891 268.918032 
L 378.994076 275.618502 
L 379.226138 275.220115 
L 379.4582 280.457644 
L 380.618509 290.635961 
L 380.850571 290.84153 
L 381.082633 291.965734 
L 381.546757 290.4701 
L 382.01088 278.846899 
L 382.475004 275.395593 
L 382.939128 254.747603 
L 383.17119 253.720419 
L 383.403252 253.70578 
L 383.867375 257.870229 
L 384.099437 246.609539 
L 384.331499 243.011313 
L 384.563561 250.986174 
L 384.795623 250.790575 
L 385.027685 252.543814 
L 385.72387 265.528724 
L 385.955932 272.518118 
L 386.187994 274.066217 
L 386.420056 272.601214 
L 386.652118 277.029936 
L 386.88418 276.042926 
L 387.116241 281.221449 
L 388.044489 287.874373 
L 388.508613 290.082014 
L 388.740675 290.348443 
L 388.972736 290.223087 
L 389.668922 284.477128 
L 389.900984 278.386086 
L 390.133046 277.225498 
L 390.829231 255.761112 
L 391.061293 255.999505 
L 391.293355 255.405372 
L 391.525417 256.388186 
L 391.757479 244.792995 
L 391.989541 242.235079 
L 392.221602 249.615554 
L 392.453664 249.891049 
L 392.685726 251.202649 
L 392.917788 255.272026 
L 393.14985 261.686008 
L 393.381912 264.303624 
L 393.613974 274.451304 
L 393.846035 275.624403 
L 394.078097 272.812054 
L 394.310159 278.099018 
L 394.774283 280.926441 
L 395.70253 287.134868 
L 396.166654 289.02081 
L 396.398716 289.105277 
L 396.630778 288.593229 
L 396.86284 287.67485 
L 397.094902 286.172327 
L 397.326963 283.713682 
L 397.559025 278.586591 
L 397.791087 276.918509 
L 398.255211 263.201799 
L 398.487273 263.747964 
L 398.487273 263.747964 
" style="fill:none;stroke:#1f77b4;stroke-linecap:square;stroke-width:1.5;"/>
   </g>
   <g id="line2d_15">
    <path clip-path="url(#p17bf300ace)" d="M 73.832727 71.096786 
L 74.296851 92.301605 
L 74.760975 108.654508 
L 75.225098 118.904318 
L 75.45716 121.528162 
L 75.689222 122.412747 
L 75.921284 122.612046 
L 76.153346 121.155076 
L 76.849531 112.624154 
L 77.313655 100.766365 
L 77.545717 97.520067 
L 78.009841 83.756625 
L 78.473965 76.940985 
L 78.706026 82.617462 
L 79.17015 71.789592 
L 79.402212 66.57183 
L 79.634274 67.404916 
L 79.866336 76.983332 
L 80.098398 79.904612 
L 80.330459 76.102759 
L 81.258707 98.841031 
L 82.419016 143.164431 
L 82.651078 144.201291 
L 82.88314 151.758103 
L 83.115202 154.234398 
L 83.347264 158.154222 
L 83.579325 158.510578 
L 83.811387 159.407531 
L 84.507573 154.097232 
L 84.739635 146.643833 
L 84.971697 149.566632 
L 85.203759 147.860196 
L 85.667882 128.473826 
L 85.899944 147.009762 
L 86.132006 151.61715 
L 86.364068 167.313687 
L 86.59613 132.64343 
L 86.828192 115.377538 
L 87.060253 137.21937 
L 87.292315 140.770804 
L 87.524377 149.163751 
L 87.756439 165.982812 
L 87.988501 233.719629 
L 88.220563 160.9565 
L 88.452625 127.66094 
L 88.684686 142.430084 
L 88.916748 178.640672 
L 89.14881 176.672118 
L 89.380872 153.599486 
L 89.612934 153.580509 
L 89.844996 93.555001 
L 90.077058 103.543329 
L 90.30912 173.291859 
L 90.541181 196.987902 
L 90.773243 190.710713 
L 91.005305 179.283701 
L 91.237367 145.968706 
L 91.469429 167.300756 
L 91.701491 162.77422 
L 91.933553 160.877926 
L 92.165614 160.531074 
L 92.397676 149.264646 
L 92.8618 142.732604 
L 93.093862 125.925934 
L 93.325924 139.303091 
L 93.557986 140.059537 
L 93.790047 137.661783 
L 94.022109 164.318604 
L 94.486233 148.517437 
L 94.950357 118.01453 
L 95.182419 157.746871 
L 95.41448 139.991728 
L 95.646542 150.752054 
L 95.878604 147.480031 
L 96.342728 91.707293 
L 96.57479 153.564703 
L 96.806852 91.911261 
L 97.270975 171.796614 
L 97.503037 125.940146 
L 97.735099 116.334182 
L 97.967161 209.871033 
L 98.199223 207.390876 
L 98.431285 202.978801 
L 98.663347 202.095118 
L 98.895408 156.326618 
L 99.12747 176.534002 
L 99.359532 152.726034 
L 99.591594 156.363071 
L 100.055718 129.57959 
L 100.28778 142.692254 
L 100.519841 144.581014 
L 100.751903 121.043492 
L 100.983965 144.016159 
L 101.216027 135.579773 
L 101.448089 155.209969 
L 101.680151 160.460276 
L 101.912213 137.5099 
L 102.144274 136.885924 
L 102.376336 129.54642 
L 102.608398 116.199933 
L 102.84046 156.292944 
L 103.072522 139.179945 
L 103.304584 162.345981 
L 103.536646 212.39089 
L 103.768708 142.07589 
L 104.232831 86.49779 
L 104.464893 118.350721 
L 104.696955 113.630606 
L 104.929017 164.372935 
L 105.161079 144.365905 
L 105.393141 135.72728 
L 105.625202 208.79825 
L 106.089326 201.401905 
L 106.321388 204.592828 
L 106.55345 174.261321 
L 106.785512 191.961426 
L 107.017574 170.080685 
L 107.249635 166.540994 
L 107.481697 156.969934 
L 107.945821 121.645643 
L 108.177883 129.767361 
L 108.409945 132.344158 
L 108.642007 111.355047 
L 108.874068 145.490887 
L 109.10613 126.161545 
L 109.338192 147.31379 
L 109.570254 137.264332 
L 109.802316 114.914659 
L 110.034378 132.750454 
L 110.26644 118.566163 
L 110.498502 158.001877 
L 110.730563 145.010635 
L 110.962625 222.862091 
L 111.194687 182.444773 
L 111.426749 103.530188 
L 111.658811 139.422266 
L 111.890873 143.107661 
L 112.122935 139.094378 
L 112.354996 112.198911 
L 112.587058 101.089339 
L 112.81912 103.882296 
L 113.051182 101.926194 
L 113.515306 202.027871 
L 113.747368 201.317786 
L 113.979429 204.164382 
L 114.211491 161.770136 
L 114.443553 173.631711 
L 114.907677 166.778032 
L 115.139739 148.58264 
L 115.371801 106.714196 
L 115.603862 138.160656 
L 115.835924 135.630806 
L 116.067986 128.928631 
L 116.300048 144.979558 
L 116.53211 141.80367 
L 116.764172 151.563066 
L 116.996234 151.627014 
L 117.228296 161.779491 
L 117.460357 134.370291 
L 117.692419 131.406346 
L 117.924481 133.963107 
L 118.156543 142.819276 
L 118.388605 208.526824 
L 118.620667 166.125248 
L 118.852729 82.027813 
L 119.08479 88.42812 
L 119.316852 125.050638 
L 119.548914 130.329257 
L 119.780976 164.70862 
L 120.013038 151.244579 
L 120.2451 95.855683 
L 120.477162 92.269473 
L 120.709223 82.299339 
L 121.173347 203.334274 
L 121.405409 199.578101 
L 121.637471 200.989724 
L 121.869533 99.335696 
L 122.101595 185.618851 
L 122.333657 164.143633 
L 122.565718 157.844776 
L 122.79778 165.437542 
L 123.029842 143.119805 
L 123.261904 140.488304 
L 123.493966 125.718002 
L 123.726028 149.613303 
L 124.190151 143.921151 
L 124.422213 152.807159 
L 124.654275 146.351181 
L 124.886337 121.520814 
L 125.118399 58.559966 
L 125.350461 157.29806 
L 125.582523 173.852404 
L 125.814584 175.815861 
L 126.046646 184.267621 
L 126.278708 143.686901 
L 126.51077 173.766642 
L 126.974894 130.704295 
L 127.206956 130.157816 
L 127.671079 136.659237 
L 127.903141 91.515356 
L 128.135203 101.910043 
L 128.367265 103.145776 
L 128.599327 138.556959 
L 128.831389 203.83095 
L 129.063451 204.012357 
L 129.295512 189.199261 
L 129.527574 101.463887 
L 129.759636 180.049482 
L 130.22376 159.845016 
L 130.455822 169.511153 
L 130.919945 120.219323 
L 131.152007 135.415372 
L 131.616131 141.035649 
L 131.848193 168.806696 
L 132.080255 153.715275 
L 132.312317 150.927079 
L 132.544378 170.493302 
L 132.77644 75.864238 
L 133.008502 122.330803 
L 133.240564 144.485483 
L 133.472626 197.989237 
L 133.704688 159.176868 
L 133.93675 65.42859 
L 134.400873 125.66842 
L 134.632935 111.366247 
L 134.864997 111.149162 
L 135.097059 119.507507 
L 135.329121 119.286635 
L 135.561183 137.615192 
L 135.793245 191.280528 
L 136.025306 105.98113 
L 136.257368 136.660764 
L 136.48943 201.379239 
L 136.721492 202.632269 
L 136.953554 188.024948 
L 137.185616 125.470445 
L 137.417678 162.098489 
L 137.649739 145.759123 
L 137.881801 158.845571 
L 138.113863 162.214083 
L 138.345925 149.261212 
L 138.577987 115.68791 
L 138.810049 105.113952 
L 139.042111 136.137314 
L 139.274172 137.148497 
L 139.506234 154.785322 
L 139.738296 159.035113 
L 139.970358 141.354707 
L 140.20242 171.532387 
L 140.434482 140.840783 
L 140.666544 124.939219 
L 140.898605 145.521551 
L 141.130667 199.126619 
L 141.362729 128.858947 
L 141.594791 129.326832 
L 141.826853 83.606155 
L 142.058915 132.97263 
L 142.290977 104.350122 
L 142.523039 167.925826 
L 142.7551 117.818889 
L 143.219224 150.250236 
L 143.451286 181.285058 
L 143.683348 110.804669 
L 143.91541 178.564 
L 144.147472 206.364926 
L 144.379533 199.237454 
L 144.611595 200.421233 
L 144.843657 172.839738 
L 145.075719 129.24937 
L 145.307781 160.720298 
L 145.539843 102.016314 
L 145.771905 167.333004 
L 146.003966 139.046264 
L 146.236028 141.630619 
L 146.46809 111.806526 
L 146.700152 143.782476 
L 146.932214 137.456822 
L 147.164276 178.89377 
L 147.396338 178.839812 
L 147.6284 168.272485 
L 147.860461 192.781543 
L 148.092523 89.295207 
L 148.324585 174.092291 
L 148.556647 144.203727 
L 148.788709 199.035597 
L 149.020771 139.234869 
L 149.252833 182.704008 
L 149.484894 123.315481 
L 149.716956 110.455202 
L 149.949018 106.16357 
L 150.413142 164.62465 
L 150.645204 93.120771 
L 150.877266 161.780088 
L 151.109327 98.570483 
L 151.573451 82.679902 
L 152.037575 202.647057 
L 152.269637 202.742679 
L 152.501699 111.724027 
L 152.965822 187.449409 
L 153.197884 132.981551 
L 153.429946 171.665997 
L 153.662008 165.450251 
L 154.126132 134.500086 
L 154.358194 135.626675 
L 154.590255 149.359827 
L 155.054379 163.916866 
L 155.286441 156.850618 
L 155.518503 174.902566 
L 155.750565 138.14746 
L 155.982627 125.006678 
L 156.214688 185.842794 
L 156.44675 202.217747 
L 156.678812 156.722197 
L 156.910874 68.010266 
L 157.142936 107.200753 
L 157.374998 118.738006 
L 157.60706 92.281713 
L 157.839121 161.518381 
L 158.071183 166.679621 
L 158.303245 96.884985 
L 158.535307 144.088193 
L 158.767369 153.338709 
L 158.999431 109.877625 
L 159.231493 103.019654 
L 159.695616 203.756432 
L 159.927678 202.303327 
L 160.15974 114.007123 
L 160.391802 169.521169 
L 160.623864 164.308459 
L 160.855926 165.195342 
L 161.087988 160.424165 
L 161.320049 106.104953 
L 161.552111 103.519819 
L 161.784173 107.347703 
L 162.248297 147.802074 
L 162.712421 160.206516 
L 162.944482 157.438255 
L 163.176544 150.460876 
L 163.408606 120.119686 
L 163.640668 113.210345 
L 163.87273 195.08715 
L 164.104792 205.805966 
L 164.568915 88.01127 
L 164.800977 103.896295 
L 165.033039 150.189899 
L 165.265101 88.901731 
L 165.497163 94.236106 
L 165.729225 89.419642 
L 165.961287 107.86559 
L 166.193348 151.093006 
L 166.42541 100.32064 
L 166.657472 87.663725 
L 167.121596 142.903155 
L 167.353658 207.871079 
L 167.58572 206.937225 
L 167.817782 106.986159 
L 168.049843 166.626992 
L 168.281905 173.045193 
L 168.513967 163.489677 
L 168.978091 126.642688 
L 169.210153 114.265428 
L 169.442215 112.318457 
L 169.674276 129.744073 
L 169.906338 103.856538 
L 170.1384 154.30194 
L 170.370462 170.7414 
L 170.602524 170.329996 
L 170.834586 164.358742 
L 171.066648 161.36865 
L 171.298709 126.209419 
L 171.530771 180.802708 
L 171.762833 182.242401 
L 171.994895 165.365817 
L 172.459019 78.909634 
L 172.691081 126.878848 
L 173.155204 84.525178 
L 173.387266 86.565883 
L 173.619328 107.638976 
L 173.85139 148.479457 
L 174.083452 147.076204 
L 174.315514 108.930442 
L 174.547576 94.33605 
L 175.011699 213.077476 
L 175.243761 212.156622 
L 175.475823 167.335258 
L 175.707885 184.379131 
L 175.939947 153.233613 
L 176.172009 171.705551 
L 176.40407 111.044463 
L 176.636132 91.082759 
L 176.868194 114.540863 
L 177.100256 108.714779 
L 177.332318 144.952148 
L 177.56438 107.384105 
L 177.796442 156.591817 
L 178.028503 163.99141 
L 178.260565 163.649573 
L 178.492627 145.449549 
L 178.724689 188.897466 
L 178.956751 146.742151 
L 179.420875 182.103158 
L 179.652937 200.730906 
L 180.11706 72.090486 
L 180.349122 74.765241 
L 180.581184 119.0227 
L 181.045308 114.916093 
L 181.27737 150.911489 
L 181.509431 101.76721 
L 181.741493 194.6433 
L 181.973555 90.226085 
L 182.437679 206.997684 
L 182.669741 206.410841 
L 182.901803 186.458045 
L 183.133864 95.34753 
L 183.365926 156.969896 
L 183.597988 132.572013 
L 183.83005 183.177201 
L 184.062112 100.965734 
L 184.294174 110.199491 
L 184.526236 100.822052 
L 184.758297 147.381919 
L 184.990359 160.432722 
L 185.222421 95.605361 
L 185.454483 159.761817 
L 185.686545 147.268802 
L 185.918607 162.453778 
L 186.150669 144.569732 
L 186.382731 185.058208 
L 186.614792 128.250483 
L 187.078916 175.897049 
L 187.310978 197.578175 
L 187.54304 122.948962 
L 187.775102 84.744736 
L 188.007164 104.810889 
L 188.239225 104.186168 
L 188.471287 115.834066 
L 188.703349 119.92332 
L 188.935411 162.135279 
L 189.167473 93.055513 
L 189.399535 153.569589 
L 189.631597 97.740739 
L 190.09572 208.804015 
L 190.327782 205.427178 
L 190.559844 189.507917 
L 190.791906 115.132704 
L 191.023968 119.580727 
L 191.488091 183.61412 
L 191.720153 135.486504 
L 191.952215 176.924095 
L 192.184277 114.388736 
L 192.416339 155.359947 
L 192.648401 109.496552 
L 192.880463 127.789456 
L 193.344586 174.998156 
L 193.576648 168.597762 
L 193.80871 150.346306 
L 194.040772 185.091842 
L 194.272834 151.488885 
L 194.736958 179.963134 
L 194.969019 207.440452 
L 195.433143 107.911184 
L 195.665205 86.566995 
L 195.897267 132.798302 
L 196.129329 126.434552 
L 196.361391 151.245482 
L 196.593452 134.628872 
L 196.825514 128.166456 
L 197.057576 101.336047 
L 197.289638 133.610034 
L 197.5217 217.653304 
L 197.753762 212.342477 
L 197.985824 162.643378 
L 198.217886 192.698456 
L 198.449947 108.050062 
L 198.914071 185.441094 
L 199.146133 168.611745 
L 199.610257 112.743812 
L 199.842319 152.567011 
L 200.07438 150.211756 
L 200.538504 140.130614 
L 201.002628 188.155043 
L 201.23469 185.410281 
L 201.466752 150.479984 
L 201.698813 158.847085 
L 201.930875 139.883662 
L 202.162937 166.082885 
L 202.394999 176.652887 
L 202.627061 160.046399 
L 202.859123 231.382369 
L 203.323246 111.599237 
L 203.555308 133.94509 
L 204.019432 123.529086 
L 204.251494 86.599037 
L 204.483556 113.185254 
L 204.715618 100.277147 
L 204.94768 193.806452 
L 205.179741 210.363676 
L 205.411803 211.679253 
L 205.643865 187.684799 
L 205.875927 190.791384 
L 206.107989 87.825982 
L 206.572113 193.460459 
L 207.036236 141.942496 
L 207.50036 166.81869 
L 207.732422 152.910412 
L 207.964484 104.232727 
L 208.196546 144.873401 
L 208.428607 148.340984 
L 208.660669 165.081226 
L 208.892731 221.028518 
L 209.124793 168.905462 
L 209.356855 158.108963 
L 209.588917 158.708639 
L 209.820979 141.432784 
L 210.05304 141.777196 
L 210.285102 209.274204 
L 210.749226 85.881536 
L 210.981288 132.196788 
L 211.445412 124.6184 
L 211.677474 129.649896 
L 211.909535 154.460005 
L 212.141597 87.444391 
L 212.373659 75.575734 
L 212.605721 171.084536 
L 212.837783 208.592273 
L 213.069845 193.293869 
L 213.301907 189.66862 
L 213.533968 192.351237 
L 213.76603 129.038705 
L 213.998092 133.043609 
L 214.230154 197.84162 
L 214.694278 129.377123 
L 214.92634 153.673804 
L 215.158401 165.926897 
L 215.390463 150.198352 
L 215.622525 122.407413 
L 215.854587 148.934026 
L 216.086649 153.250028 
L 216.318711 167.110691 
L 216.550773 198.700611 
L 216.782834 168.968222 
L 217.014896 169.823566 
L 217.246958 160.613349 
L 217.47902 179.288609 
L 217.711082 141.980581 
L 217.943144 210.454078 
L 218.175206 108.54899 
L 218.407268 76.356347 
L 218.871391 131.274252 
L 219.103453 122.059951 
L 219.335515 127.720412 
L 219.567577 157.960476 
L 219.799639 116.04369 
L 220.031701 115.889361 
L 220.495824 213.76749 
L 220.727886 191.701728 
L 220.959948 190.155377 
L 221.19201 182.317673 
L 221.424072 97.347573 
L 221.888195 180.126956 
L 222.584381 123.131852 
L 222.816443 138.451409 
L 223.048505 130.771601 
L 223.280567 150.6573 
L 223.512629 94.073786 
L 223.74469 141.742307 
L 223.976752 162.34033 
L 224.208814 217.137577 
L 224.440876 174.280892 
L 224.672938 159.875895 
L 224.905 65.752962 
L 225.137062 141.933737 
L 225.369123 141.416885 
L 225.601185 184.591939 
L 225.833247 174.844981 
L 226.065309 120.030933 
L 226.297371 105.940025 
L 226.529433 150.254308 
L 226.993556 135.416812 
L 227.225618 162.032211 
L 227.45768 119.867765 
L 227.689742 170.097514 
L 227.921804 156.592521 
L 228.153866 180.40195 
L 228.385928 184.401717 
L 228.617989 182.192329 
L 228.850051 186.034475 
L 229.082113 105.670632 
L 229.314175 163.330456 
L 229.546237 178.976941 
L 230.010361 129.857264 
L 230.242423 169.640793 
L 230.474484 146.539822 
L 230.938608 132.698151 
L 231.17067 149.511635 
L 231.402732 142.827536 
L 231.634794 168.603985 
L 231.866856 142.237833 
L 232.098917 172.560665 
L 232.330979 135.248132 
L 232.563041 155.129415 
L 232.795103 155.748446 
L 233.027165 142.291788 
L 233.259227 148.21516 
L 233.491289 134.194079 
L 233.72335 162.38359 
L 233.955412 104.080494 
L 234.187474 136.36831 
L 234.419536 141.731276 
L 234.651598 160.599621 
L 234.88366 95.031115 
L 235.115722 121.995901 
L 235.347783 225.356324 
L 235.579845 176.123154 
L 235.811907 197.790455 
L 236.043969 180.892874 
L 236.276031 180.430162 
L 236.508093 192.553647 
L 236.740155 93.654456 
L 236.972217 171.088081 
L 237.204278 167.111751 
L 237.43634 170.402234 
L 237.668402 139.284977 
L 237.900464 141.70075 
L 238.132526 164.131878 
L 238.364588 134.679996 
L 238.59665 157.531741 
L 238.828711 122.386908 
L 239.060773 104.756593 
L 239.524897 215.395721 
L 240.221083 141.517795 
L 240.453144 173.743702 
L 240.685206 162.353211 
L 240.917268 141.084986 
L 241.14933 157.610791 
L 241.381392 151.039688 
L 241.613454 98.658481 
L 242.077577 126.582194 
L 242.309639 153.923842 
L 242.541701 85.245145 
L 242.773763 120.336389 
L 243.005825 233.723277 
L 243.237887 152.159696 
L 243.469949 187.993815 
L 243.702011 173.569416 
L 243.934072 179.669118 
L 244.166134 191.000861 
L 244.398196 114.41382 
L 244.630258 171.93129 
L 244.86232 169.532968 
L 245.326444 160.443631 
L 245.558505 122.728725 
L 245.790567 141.597606 
L 246.022629 144.657832 
L 246.254691 156.38771 
L 246.486753 102.452326 
L 246.718815 98.850158 
L 247.182938 218.775675 
L 247.415 153.00334 
L 247.647062 163.110011 
L 247.879124 135.292729 
L 248.111186 170.938882 
L 248.343248 183.45829 
L 248.57531 161.312449 
L 249.039433 146.089419 
L 249.271495 100.780987 
L 249.735619 141.30402 
L 250.199743 74.751898 
L 250.431805 209.767604 
L 250.663866 192.406712 
L 250.895928 138.214956 
L 251.360052 147.334182 
L 251.592114 184.574937 
L 251.824176 192.202333 
L 252.056238 105.301261 
L 252.288299 152.70438 
L 252.520361 166.291959 
L 252.752423 106.578941 
L 252.984485 133.669041 
L 253.448609 151.357916 
L 253.680671 153.26952 
L 253.912732 132.342642 
L 254.144794 158.649972 
L 254.376856 145.849992 
L 254.608918 162.802444 
L 254.84098 138.722557 
L 255.073042 169.762699 
L 255.305104 146.402302 
L 255.537166 146.706778 
L 255.769227 152.520329 
L 256.233351 129.566169 
L 256.465413 153.053727 
L 256.697475 148.326203 
L 256.929537 156.706044 
L 257.39366 91.901864 
L 257.625722 134.47069 
L 257.857784 70.704875 
L 258.089846 152.609844 
L 258.321908 149.722773 
L 258.55397 135.033975 
L 259.018093 151.0622 
L 259.250155 181.078424 
L 259.482217 193.603392 
L 259.714279 183.515595 
L 259.946341 96.193029 
L 260.178403 175.505669 
L 260.410465 144.87846 
L 260.642526 143.000826 
L 260.874588 145.234736 
L 261.10665 130.123233 
L 261.338712 133.968941 
L 261.570774 142.867048 
L 261.802836 89.506025 
L 262.034898 93.743884 
L 262.26696 165.93212 
L 262.499021 197.286237 
L 262.731083 132.648579 
L 262.963145 183.922858 
L 263.195207 140.619809 
L 263.427269 166.139776 
L 263.659331 141.713427 
L 263.891393 140.331663 
L 264.123454 144.918167 
L 264.355516 223.916386 
L 264.587578 164.545675 
L 264.81964 154.121184 
L 265.051702 116.022357 
L 265.283764 173.427051 
L 265.515826 156.16829 
L 265.747887 212.751804 
L 265.979949 152.690614 
L 266.212011 139.798502 
L 266.444073 163.899105 
L 266.676135 174.938554 
L 266.908197 176.85027 
L 267.140259 185.02191 
L 267.37232 112.005102 
L 267.604382 167.279889 
L 267.836444 158.261473 
L 268.068506 136.85473 
L 268.300568 184.680519 
L 268.53263 130.238373 
L 268.764692 147.150929 
L 268.996754 139.318213 
L 269.228815 141.816438 
L 269.692939 161.065771 
L 269.925001 128.850744 
L 270.157063 145.418959 
L 270.389125 181.573191 
L 270.621187 131.463573 
L 270.853248 159.761768 
L 271.08531 144.313913 
L 271.317372 140.857478 
L 271.549434 163.278149 
L 271.781496 132.212343 
L 272.013558 166.587078 
L 272.24562 160.387574 
L 272.477681 95.213678 
L 272.709743 117.094102 
L 272.941805 123.655967 
L 273.173867 227.733213 
L 273.637991 160.803019 
L 273.870053 142.384919 
L 274.334176 186.488315 
L 274.566238 187.708655 
L 274.7983 195.060808 
L 275.030362 150.424284 
L 275.262424 54.658289 
L 275.494486 171.074176 
L 275.726548 126.158722 
L 275.958609 172.111013 
L 276.190671 118.952362 
L 276.422733 138.036862 
L 276.654795 134.726496 
L 276.886857 139.019358 
L 277.118919 153.975447 
L 277.350981 148.048821 
L 277.583042 120.148025 
L 277.815104 130.374366 
L 278.047166 173.468017 
L 278.279228 141.277104 
L 278.51129 146.024667 
L 278.743352 176.11534 
L 279.207475 142.435409 
L 279.671599 171.224501 
L 279.903661 152.970602 
L 280.135723 205.206312 
L 280.367785 167.793121 
L 280.599847 151.924778 
L 280.831909 162.518731 
L 281.06397 187.860723 
L 281.296032 159.867164 
L 281.528094 145.479697 
L 281.760156 139.561578 
L 281.992218 182.499605 
L 282.456342 194.165577 
L 282.688403 168.41349 
L 282.920465 119.774517 
L 283.152527 165.35997 
L 283.384589 106.997083 
L 283.616651 185.135767 
L 283.848713 166.614987 
L 284.080775 138.983861 
L 284.544898 131.782286 
L 284.77696 162.711228 
L 285.009022 148.963472 
L 285.241084 157.744134 
L 285.473146 191.607108 
L 285.705208 143.039722 
L 285.937269 179.777228 
L 286.169331 167.184889 
L 286.401393 212.370996 
L 286.865517 160.169262 
L 287.097579 144.492348 
L 287.561703 190.189774 
L 287.793764 193.41841 
L 288.025826 168.39436 
L 288.257888 219.298342 
L 288.48995 211.393941 
L 288.722012 168.023973 
L 288.954074 145.796219 
L 289.650259 207.740267 
L 289.882321 197.463652 
L 290.114383 195.670519 
L 290.346445 131.505919 
L 290.810569 141.660006 
L 291.04263 159.992375 
L 291.274692 162.616898 
L 291.506754 171.065636 
L 291.738816 166.132142 
L 291.970878 165.065793 
L 292.20294 157.060121 
L 292.435002 169.327464 
L 292.667063 148.780057 
L 292.899125 161.432096 
L 293.131187 183.866282 
L 293.363249 154.676145 
L 293.595311 184.978733 
L 293.827373 168.834539 
L 294.059435 205.335906 
L 294.291497 130.058134 
L 294.75562 161.379021 
L 294.987682 159.295042 
L 295.219744 166.553643 
L 295.451806 187.576688 
L 295.683868 189.959083 
L 295.91593 185.696405 
L 296.147991 169.051266 
L 296.380053 165.544506 
L 296.612115 169.87043 
L 296.844177 127.671557 
L 297.076239 138.494392 
L 297.308301 207.593241 
L 297.772424 202.467554 
L 298.004486 150.410024 
L 298.236548 159.523568 
L 298.46861 161.771631 
L 298.700672 154.458552 
L 298.932734 150.720284 
L 299.164796 169.938427 
L 299.628919 150.906999 
L 299.860981 150.381422 
L 300.093043 167.231132 
L 300.557167 133.940943 
L 300.789229 183.312171 
L 301.021291 137.315615 
L 301.253352 161.152898 
L 301.485414 132.589788 
L 301.717476 198.800126 
L 301.949538 122.316453 
L 302.1816 120.279386 
L 302.413662 132.654424 
L 302.645724 161.778944 
L 302.877785 165.473442 
L 303.109847 166.072376 
L 303.341909 187.936182 
L 303.573971 186.446021 
L 303.806033 168.680469 
L 304.038095 120.70928 
L 304.270157 148.679903 
L 304.502218 128.469879 
L 304.73428 127.738816 
L 304.966342 210.991008 
L 305.198404 210.070037 
L 305.430466 206.343677 
L 305.89459 113.920133 
L 306.126652 121.904609 
L 306.358713 117.605076 
L 306.822837 162.427397 
L 307.054899 145.015181 
L 307.286961 151.798631 
L 307.519023 150.12917 
L 307.751085 162.965373 
L 307.983146 127.761662 
L 308.215208 128.340487 
L 308.44727 165.27019 
L 308.679332 136.413214 
L 308.911394 173.472136 
L 309.143456 134.287945 
L 309.375518 66.487743 
L 309.607579 131.713199 
L 309.839641 125.923683 
L 310.071703 137.554539 
L 310.303765 155.034015 
L 310.535827 118.409177 
L 310.767889 126.939548 
L 310.999951 140.388425 
L 311.232012 145.41482 
L 311.464074 130.122851 
L 311.696136 126.612917 
L 311.928198 152.451792 
L 312.16026 128.530134 
L 312.392322 141.955707 
L 312.624384 215.105646 
L 312.856446 211.597342 
L 313.088507 198.40021 
L 313.320569 165.18091 
L 313.552631 64.39434 
L 313.784693 107.186976 
L 314.016755 115.397834 
L 314.248817 153.425695 
L 314.480879 171.348401 
L 314.71294 154.852296 
L 314.945002 155.678875 
L 315.177064 152.283087 
L 315.409126 164.519202 
L 315.87325 134.701884 
L 316.105312 191.314925 
L 316.337373 134.39155 
L 316.569435 157.714785 
L 316.801497 134.690774 
L 317.033559 62.833717 
L 317.265621 203.040775 
L 317.497683 128.024596 
L 317.729745 132.893586 
L 317.961806 158.290399 
L 318.193868 150.476935 
L 318.42593 132.991008 
L 318.890054 139.334539 
L 319.122116 135.133764 
L 319.58624 146.563435 
L 319.818301 121.059248 
L 320.050363 139.478341 
L 320.282425 218.832017 
L 320.514487 214.936917 
L 320.746549 215.178234 
L 320.978611 212.124955 
L 321.210673 111.912955 
L 321.442734 131.597141 
L 321.674796 127.456143 
L 321.906858 136.234843 
L 322.13892 155.075402 
L 322.370982 164.445308 
L 322.603044 138.784582 
L 322.835106 135.837945 
L 323.067167 144.675781 
L 323.299229 165.616347 
L 323.531291 129.736175 
L 323.763353 171.103234 
L 323.995415 152.709114 
L 324.227477 172.265629 
L 324.459539 138.384079 
L 324.6916 151.13704 
L 324.923662 205.498637 
L 325.155724 130.263789 
L 325.387786 158.549252 
L 325.85191 134.655366 
L 326.083972 137.200851 
L 326.316034 126.355596 
L 326.548095 140.141225 
L 326.780157 135.949462 
L 327.012219 134.699418 
L 327.244281 165.813539 
L 327.476343 119.063949 
L 327.708405 137.201632 
L 327.940467 186.413396 
L 328.172528 204.507558 
L 328.40459 211.156939 
L 328.636652 197.933671 
L 328.868714 109.935345 
L 329.100776 137.44375 
L 329.332838 150.25563 
L 329.5649 134.963411 
L 329.796961 161.180268 
L 330.029023 157.917076 
L 330.261085 152.541921 
L 330.493147 151.965275 
L 330.725209 166.058757 
L 330.957271 161.255767 
L 331.189333 139.011574 
L 331.421395 178.162622 
L 331.653456 134.253972 
L 331.885518 165.709235 
L 332.11758 149.717321 
L 332.349642 145.616568 
L 332.581704 208.820266 
L 332.813766 134.102685 
L 333.045828 141.118564 
L 333.277889 154.968074 
L 333.509951 155.688749 
L 333.742013 145.347235 
L 333.974075 145.845106 
L 334.206137 149.355753 
L 334.438199 146.015434 
L 334.670261 136.23329 
L 334.902322 177.617256 
L 335.134384 144.337092 
L 335.366446 157.600668 
L 335.598508 215.323723 
L 335.83057 215.827343 
L 336.062632 215.255447 
L 336.294694 211.215053 
L 336.526755 67.640988 
L 336.758817 118.37671 
L 336.990879 143.364365 
L 337.222941 151.391355 
L 337.455003 170.373649 
L 337.687065 144.422517 
L 337.919127 196.798044 
L 338.151189 194.169793 
L 338.38325 158.975271 
L 338.615312 157.5965 
L 338.847374 158.390528 
L 339.079436 112.650065 
L 339.311498 169.7934 
L 339.54356 147.659489 
L 339.775622 154.545056 
L 340.007683 165.859603 
L 340.239745 208.376135 
L 340.471807 152.535967 
L 340.703869 152.362421 
L 340.935931 155.460996 
L 341.167993 150.768016 
L 341.400055 130.991602 
L 341.632116 149.12379 
L 341.864178 152.207432 
L 342.09624 152.845162 
L 342.328302 147.624653 
L 342.560364 178.213032 
L 342.792426 165.176194 
L 343.024488 166.835124 
L 343.256549 216.18098 
L 343.488611 212.794945 
L 343.720673 185.065681 
L 343.952735 231.546453 
L 344.184797 142.497485 
L 344.416859 166.930548 
L 344.648921 169.421073 
L 344.880983 169.253578 
L 345.113044 176.529495 
L 345.345106 124.932242 
L 345.577168 195.576556 
L 345.80923 124.244922 
L 346.041292 154.599684 
L 346.273354 148.26165 
L 346.505416 152.910328 
L 346.737477 134.96103 
L 346.969539 150.037999 
L 347.201601 148.407715 
L 347.433663 167.720695 
L 347.665725 162.156331 
L 347.897787 210.714549 
L 348.129849 148.92258 
L 348.36191 156.65391 
L 348.593972 158.940936 
L 348.826034 170.067535 
L 349.290158 131.547332 
L 349.52222 143.620493 
L 349.754282 142.225038 
L 349.986343 144.713527 
L 350.218405 151.184748 
L 350.450467 143.28332 
L 350.682529 151.96494 
L 350.914591 212.03985 
L 351.146653 225.243153 
L 351.378715 187.157816 
L 351.610777 181.625302 
L 351.842838 129.33546 
L 352.0749 149.564813 
L 352.306962 180.028823 
L 352.539024 154.577433 
L 352.771086 167.236152 
L 353.003148 209.164564 
L 353.23521 205.468541 
L 353.467271 199.73146 
L 353.699333 139.298556 
L 353.931395 149.493081 
L 354.163457 110.85876 
L 354.627581 178.315469 
L 354.859643 146.822096 
L 355.091704 168.872538 
L 355.323766 150.05428 
L 355.555828 205.129197 
L 355.78789 204.439726 
L 356.019952 157.221904 
L 356.252014 157.298642 
L 356.716138 126.491614 
L 356.948199 123.501723 
L 357.180261 132.93931 
L 357.412323 165.810943 
L 357.644385 145.456037 
L 357.876447 172.679034 
L 358.108509 165.107847 
L 358.340571 141.964852 
L 358.572632 206.883796 
L 358.804694 223.580422 
L 359.036756 156.576546 
L 359.268818 162.817234 
L 359.50088 159.995633 
L 359.732942 167.858711 
L 359.965004 160.581779 
L 360.197065 197.504361 
L 360.429127 171.174561 
L 360.661189 207.319548 
L 360.893251 199.01002 
L 361.125313 197.491043 
L 361.357375 192.704552 
L 361.821498 123.584571 
L 362.05356 143.354304 
L 362.285622 114.206896 
L 362.517684 158.347592 
L 362.749746 138.327866 
L 362.981808 133.441277 
L 363.21387 203.955873 
L 363.445932 198.528769 
L 363.677993 148.663074 
L 363.910055 148.488715 
L 364.142117 153.27926 
L 364.374179 162.111963 
L 364.606241 156.968429 
L 364.838303 177.439819 
L 365.070365 137.276979 
L 365.302426 166.209159 
L 365.534488 179.737718 
L 365.76655 150.303835 
L 365.998612 163.226334 
L 366.230674 214.1322 
L 366.462736 212.567944 
L 366.694798 185.163124 
L 366.926859 176.1175 
L 367.158921 180.020289 
L 367.390983 190.805986 
L 367.623045 193.987336 
L 367.855107 174.409221 
L 368.087169 205.317345 
L 368.319231 129.080916 
L 368.551292 224.051867 
L 368.783354 213.323416 
L 369.015416 118.465612 
L 369.247478 155.516912 
L 369.47954 140.577746 
L 369.711602 154.449143 
L 369.943664 185.681634 
L 370.175726 153.726767 
L 370.639849 130.826648 
L 370.871911 143.460549 
L 371.103973 190.903161 
L 371.336035 142.579941 
L 371.800159 147.164078 
L 372.03222 162.975013 
L 372.264282 119.743729 
L 372.496344 118.106579 
L 372.728406 123.284732 
L 372.960468 170.552797 
L 373.19253 174.078987 
L 373.424592 131.453768 
L 373.656653 141.505048 
L 374.120777 219.218642 
L 374.352839 151.113924 
L 374.816963 209.205193 
L 375.049025 167.922354 
L 375.281086 179.79082 
L 375.513148 179.592332 
L 375.74521 198.939087 
L 375.977272 131.835928 
L 376.209334 224.521245 
L 376.441396 208.000778 
L 376.673458 81.74291 
L 376.90552 152.157767 
L 377.137581 137.685384 
L 377.601705 153.48856 
L 377.833767 152.420226 
L 378.065829 121.702428 
L 378.297891 133.163333 
L 378.529953 63.917489 
L 378.762014 202.625769 
L 378.994076 145.066485 
L 379.4582 120.659261 
L 379.690262 150.41244 
L 379.922324 142.30162 
L 380.154386 138.374064 
L 380.618509 160.486022 
L 380.850571 138.245516 
L 381.082633 156.154887 
L 381.314695 160.704362 
L 381.546757 214.820886 
L 381.778819 208.514151 
L 382.01088 179.849442 
L 382.242942 184.534328 
L 382.475004 179.716619 
L 382.707066 159.257452 
L 382.939128 206.14818 
L 383.17119 180.371959 
L 383.403252 170.811938 
L 383.635314 110.91916 
L 383.867375 219.687301 
L 384.099437 209.050444 
L 384.331499 109.152256 
L 384.563561 152.992141 
L 384.795623 136.057848 
L 385.027685 144.571698 
L 385.259747 158.76016 
L 385.491808 153.76839 
L 385.72387 119.885387 
L 385.955932 161.557106 
L 386.187994 53.568 
L 386.420056 184.828558 
L 386.652118 150.508837 
L 386.88418 135.053092 
L 387.116241 127.549569 
L 387.348303 156.980452 
L 387.580365 158.337703 
L 387.812427 149.35696 
L 388.044489 151.332452 
L 388.276551 166.13496 
L 388.508613 136.669581 
L 388.740675 141.075076 
L 388.972736 149.411688 
L 389.204798 211.015723 
L 389.43686 225.345003 
L 389.668922 125.761951 
L 389.900984 188.571235 
L 390.133046 188.307773 
L 390.365108 143.085703 
L 390.597169 150.675098 
L 390.829231 173.832947 
L 391.061293 156.618632 
L 391.293355 121.758995 
L 391.525417 223.973492 
L 391.757479 222.555331 
L 391.989541 140.830439 
L 392.221602 165.512627 
L 392.453664 136.816556 
L 392.685726 136.701957 
L 392.917788 137.112879 
L 393.14985 124.850391 
L 393.381912 129.826286 
L 393.613974 165.665256 
L 393.846035 143.47822 
L 394.078097 197.636853 
L 394.310159 132.334284 
L 394.774283 138.661795 
L 395.006345 153.732344 
L 395.238407 156.338421 
L 395.470469 166.681408 
L 395.70253 168.309341 
L 395.934592 168.049688 
L 396.166654 135.383407 
L 396.630778 151.974856 
L 397.094902 221.627251 
L 397.326963 216.962744 
L 397.791087 130.063487 
L 398.487273 174.997847 
L 398.487273 174.997847 
" style="fill:none;stroke:#ff7f0e;stroke-linecap:square;stroke-width:1.5;"/>
   </g>
   <g id="patch_3">
    <path d="M 57.6 307.584 
L 57.6 41.472 
" style="fill:none;stroke:#000000;stroke-linecap:square;stroke-linejoin:miter;stroke-width:0.8;"/>
   </g>
   <g id="patch_4">
    <path d="M 414.72 307.584 
L 414.72 41.472 
" style="fill:none;stroke:#000000;stroke-linecap:square;stroke-linejoin:miter;stroke-width:0.8;"/>
   </g>
   <g id="patch_5">
    <path d="M 57.6 307.584 
L 414.72 307.584 
" style="fill:none;stroke:#000000;stroke-linecap:square;stroke-linejoin:miter;stroke-width:0.8;"/>
   </g>
   <g id="patch_6">
    <path d="M 57.6 41.472 
L 414.72 41.472 
" style="fill:none;stroke:#000000;stroke-linecap:square;stroke-linejoin:miter;stroke-width:0.8;"/>
   </g>
  </g>
 </g>
 <defs>
  <clipPath id="p17bf300ace">
   <rect height="266.112" width="357.12" x="57.6" y="41.472"/>
  </clipPath>
 </defs>
</svg>
