<?xml version="1.0" encoding="utf-8" standalone="no"?>
<!DOCTYPE svg PUBLIC "-//W3C//DTD SVG 1.1//EN"
  "http://www.w3.org/Graphics/SVG/1.1/DTD/svg11.dtd">
<!-- Created with matplotlib (https://matplotlib.org/) -->
<svg height="345.6pt" version="1.1" viewBox="0 0 460.8 345.6" width="460.8pt" xmlns="http://www.w3.org/2000/svg" xmlns:xlink="http://www.w3.org/1999/xlink">
 <defs>
  <style type="text/css">
*{stroke-linecap:butt;stroke-linejoin:round;}
  </style>
 </defs>
 <g id="figure_1">
  <g id="patch_1">
   <path d="M 0 345.6 
L 460.8 345.6 
L 460.8 0 
L 0 0 
z
" style="fill:#ffffff;"/>
  </g>
  <g id="axes_1">
   <g id="patch_2">
    <path d="M 57.6 307.584 
L 414.72 307.584 
L 414.72 41.472 
L 57.6 41.472 
z
" style="fill:#ffffff;"/>
   </g>
   <g id="matplotlib.axis_1">
    <g id="xtick_1">
     <g id="line2d_1">
      <defs>
       <path d="M 0 0 
L 0 3.5 
" id="m54f4c05c52" style="stroke:#000000;stroke-width:0.8;"/>
      </defs>
      <g>
       <use style="stroke:#000000;stroke-width:0.8;" x="73.832727" xlink:href="#m54f4c05c52" y="307.584"/>
      </g>
     </g>
     <g id="text_1">
      <!-- 0 -->
      <defs>
       <path d="M 31.78125 66.40625 
Q 24.171875 66.40625 20.328125 58.90625 
Q 16.5 51.421875 16.5 36.375 
Q 16.5 21.390625 20.328125 13.890625 
Q 24.171875 6.390625 31.78125 6.390625 
Q 39.453125 6.390625 43.28125 13.890625 
Q 47.125 21.390625 47.125 36.375 
Q 47.125 51.421875 43.28125 58.90625 
Q 39.453125 66.40625 31.78125 66.40625 
z
M 31.78125 74.21875 
Q 44.046875 74.21875 50.515625 64.515625 
Q 56.984375 54.828125 56.984375 36.375 
Q 56.984375 17.96875 50.515625 8.265625 
Q 44.046875 -1.421875 31.78125 -1.421875 
Q 19.53125 -1.421875 13.0625 8.265625 
Q 6.59375 17.96875 6.59375 36.375 
Q 6.59375 54.828125 13.0625 64.515625 
Q 19.53125 74.21875 31.78125 74.21875 
z
" id="DejaVuSans-48"/>
      </defs>
      <g transform="translate(70.651477 322.182437)scale(0.1 -0.1)">
       <use xlink:href="#DejaVuSans-48"/>
      </g>
     </g>
    </g>
    <g id="xtick_2">
     <g id="line2d_2">
      <g>
       <use style="stroke:#000000;stroke-width:0.8;" x="120.2451" xlink:href="#m54f4c05c52" y="307.584"/>
      </g>
     </g>
     <g id="text_2">
      <!-- 200 -->
      <defs>
       <path d="M 19.1875 8.296875 
L 53.609375 8.296875 
L 53.609375 0 
L 7.328125 0 
L 7.328125 8.296875 
Q 12.9375 14.109375 22.625 23.890625 
Q 32.328125 33.6875 34.8125 36.53125 
Q 39.546875 41.84375 41.421875 45.53125 
Q 43.3125 49.21875 43.3125 52.78125 
Q 43.3125 58.59375 39.234375 62.25 
Q 35.15625 65.921875 28.609375 65.921875 
Q 23.96875 65.921875 18.8125 64.3125 
Q 13.671875 62.703125 7.8125 59.421875 
L 7.8125 69.390625 
Q 13.765625 71.78125 18.9375 73 
Q 24.125 74.21875 28.421875 74.21875 
Q 39.75 74.21875 46.484375 68.546875 
Q 53.21875 62.890625 53.21875 53.421875 
Q 53.21875 48.921875 51.53125 44.890625 
Q 49.859375 40.875 45.40625 35.40625 
Q 44.1875 33.984375 37.640625 27.21875 
Q 31.109375 20.453125 19.1875 8.296875 
z
" id="DejaVuSans-50"/>
      </defs>
      <g transform="translate(110.70135 322.182437)scale(0.1 -0.1)">
       <use xlink:href="#DejaVuSans-50"/>
       <use x="63.623047" xlink:href="#DejaVuSans-48"/>
       <use x="127.246094" xlink:href="#DejaVuSans-48"/>
      </g>
     </g>
    </g>
    <g id="xtick_3">
     <g id="line2d_3">
      <g>
       <use style="stroke:#000000;stroke-width:0.8;" x="166.657472" xlink:href="#m54f4c05c52" y="307.584"/>
      </g>
     </g>
     <g id="text_3">
      <!-- 400 -->
      <defs>
       <path d="M 37.796875 64.3125 
L 12.890625 25.390625 
L 37.796875 25.390625 
z
M 35.203125 72.90625 
L 47.609375 72.90625 
L 47.609375 25.390625 
L 58.015625 25.390625 
L 58.015625 17.1875 
L 47.609375 17.1875 
L 47.609375 0 
L 37.796875 0 
L 37.796875 17.1875 
L 4.890625 17.1875 
L 4.890625 26.703125 
z
" id="DejaVuSans-52"/>
      </defs>
      <g transform="translate(157.113722 322.182437)scale(0.1 -0.1)">
       <use xlink:href="#DejaVuSans-52"/>
       <use x="63.623047" xlink:href="#DejaVuSans-48"/>
       <use x="127.246094" xlink:href="#DejaVuSans-48"/>
      </g>
     </g>
    </g>
    <g id="xtick_4">
     <g id="line2d_4">
      <g>
       <use style="stroke:#000000;stroke-width:0.8;" x="213.069845" xlink:href="#m54f4c05c52" y="307.584"/>
      </g>
     </g>
     <g id="text_4">
      <!-- 600 -->
      <defs>
       <path d="M 33.015625 40.375 
Q 26.375 40.375 22.484375 35.828125 
Q 18.609375 31.296875 18.609375 23.390625 
Q 18.609375 15.53125 22.484375 10.953125 
Q 26.375 6.390625 33.015625 6.390625 
Q 39.65625 6.390625 43.53125 10.953125 
Q 47.40625 15.53125 47.40625 23.390625 
Q 47.40625 31.296875 43.53125 35.828125 
Q 39.65625 40.375 33.015625 40.375 
z
M 52.59375 71.296875 
L 52.59375 62.3125 
Q 48.875 64.0625 45.09375 64.984375 
Q 41.3125 65.921875 37.59375 65.921875 
Q 27.828125 65.921875 22.671875 59.328125 
Q 17.53125 52.734375 16.796875 39.40625 
Q 19.671875 43.65625 24.015625 45.921875 
Q 28.375 48.1875 33.59375 48.1875 
Q 44.578125 48.1875 50.953125 41.515625 
Q 57.328125 34.859375 57.328125 23.390625 
Q 57.328125 12.15625 50.6875 5.359375 
Q 44.046875 -1.421875 33.015625 -1.421875 
Q 20.359375 -1.421875 13.671875 8.265625 
Q 6.984375 17.96875 6.984375 36.375 
Q 6.984375 53.65625 15.1875 63.9375 
Q 23.390625 74.21875 37.203125 74.21875 
Q 40.921875 74.21875 44.703125 73.484375 
Q 48.484375 72.75 52.59375 71.296875 
z
" id="DejaVuSans-54"/>
      </defs>
      <g transform="translate(203.526095 322.182437)scale(0.1 -0.1)">
       <use xlink:href="#DejaVuSans-54"/>
       <use x="63.623047" xlink:href="#DejaVuSans-48"/>
       <use x="127.246094" xlink:href="#DejaVuSans-48"/>
      </g>
     </g>
    </g>
    <g id="xtick_5">
     <g id="line2d_5">
      <g>
       <use style="stroke:#000000;stroke-width:0.8;" x="259.482217" xlink:href="#m54f4c05c52" y="307.584"/>
      </g>
     </g>
     <g id="text_5">
      <!-- 800 -->
      <defs>
       <path d="M 31.78125 34.625 
Q 24.75 34.625 20.71875 30.859375 
Q 16.703125 27.09375 16.703125 20.515625 
Q 16.703125 13.921875 20.71875 10.15625 
Q 24.75 6.390625 31.78125 6.390625 
Q 38.8125 6.390625 42.859375 10.171875 
Q 46.921875 13.96875 46.921875 20.515625 
Q 46.921875 27.09375 42.890625 30.859375 
Q 38.875 34.625 31.78125 34.625 
z
M 21.921875 38.8125 
Q 15.578125 40.375 12.03125 44.71875 
Q 8.5 49.078125 8.5 55.328125 
Q 8.5 64.0625 14.71875 69.140625 
Q 20.953125 74.21875 31.78125 74.21875 
Q 42.671875 74.21875 48.875 69.140625 
Q 55.078125 64.0625 55.078125 55.328125 
Q 55.078125 49.078125 51.53125 44.71875 
Q 48 40.375 41.703125 38.8125 
Q 48.828125 37.15625 52.796875 32.3125 
Q 56.78125 27.484375 56.78125 20.515625 
Q 56.78125 9.90625 50.3125 4.234375 
Q 43.84375 -1.421875 31.78125 -1.421875 
Q 19.734375 -1.421875 13.25 4.234375 
Q 6.78125 9.90625 6.78125 20.515625 
Q 6.78125 27.484375 10.78125 32.3125 
Q 14.796875 37.15625 21.921875 38.8125 
z
M 18.3125 54.390625 
Q 18.3125 48.734375 21.84375 45.5625 
Q 25.390625 42.390625 31.78125 42.390625 
Q 38.140625 42.390625 41.71875 45.5625 
Q 45.3125 48.734375 45.3125 54.390625 
Q 45.3125 60.0625 41.71875 63.234375 
Q 38.140625 66.40625 31.78125 66.40625 
Q 25.390625 66.40625 21.84375 63.234375 
Q 18.3125 60.0625 18.3125 54.390625 
z
" id="DejaVuSans-56"/>
      </defs>
      <g transform="translate(249.938467 322.182437)scale(0.1 -0.1)">
       <use xlink:href="#DejaVuSans-56"/>
       <use x="63.623047" xlink:href="#DejaVuSans-48"/>
       <use x="127.246094" xlink:href="#DejaVuSans-48"/>
      </g>
     </g>
    </g>
    <g id="xtick_6">
     <g id="line2d_6">
      <g>
       <use style="stroke:#000000;stroke-width:0.8;" x="305.89459" xlink:href="#m54f4c05c52" y="307.584"/>
      </g>
     </g>
     <g id="text_6">
      <!-- 1000 -->
      <defs>
       <path d="M 12.40625 8.296875 
L 28.515625 8.296875 
L 28.515625 63.921875 
L 10.984375 60.40625 
L 10.984375 69.390625 
L 28.421875 72.90625 
L 38.28125 72.90625 
L 38.28125 8.296875 
L 54.390625 8.296875 
L 54.390625 0 
L 12.40625 0 
z
" id="DejaVuSans-49"/>
      </defs>
      <g transform="translate(293.16959 322.182437)scale(0.1 -0.1)">
       <use xlink:href="#DejaVuSans-49"/>
       <use x="63.623047" xlink:href="#DejaVuSans-48"/>
       <use x="127.246094" xlink:href="#DejaVuSans-48"/>
       <use x="190.869141" xlink:href="#DejaVuSans-48"/>
      </g>
     </g>
    </g>
    <g id="xtick_7">
     <g id="line2d_7">
      <g>
       <use style="stroke:#000000;stroke-width:0.8;" x="352.306962" xlink:href="#m54f4c05c52" y="307.584"/>
      </g>
     </g>
     <g id="text_7">
      <!-- 1200 -->
      <g transform="translate(339.581962 322.182437)scale(0.1 -0.1)">
       <use xlink:href="#DejaVuSans-49"/>
       <use x="63.623047" xlink:href="#DejaVuSans-50"/>
       <use x="127.246094" xlink:href="#DejaVuSans-48"/>
       <use x="190.869141" xlink:href="#DejaVuSans-48"/>
      </g>
     </g>
    </g>
    <g id="xtick_8">
     <g id="line2d_8">
      <g>
       <use style="stroke:#000000;stroke-width:0.8;" x="398.719335" xlink:href="#m54f4c05c52" y="307.584"/>
      </g>
     </g>
     <g id="text_8">
      <!-- 1400 -->
      <g transform="translate(385.994335 322.182437)scale(0.1 -0.1)">
       <use xlink:href="#DejaVuSans-49"/>
       <use x="63.623047" xlink:href="#DejaVuSans-52"/>
       <use x="127.246094" xlink:href="#DejaVuSans-48"/>
       <use x="190.869141" xlink:href="#DejaVuSans-48"/>
      </g>
     </g>
    </g>
   </g>
   <g id="matplotlib.axis_2">
    <g id="ytick_1">
     <g id="line2d_9">
      <defs>
       <path d="M 0 0 
L -3.5 0 
" id="m5fa280ee63" style="stroke:#000000;stroke-width:0.8;"/>
      </defs>
      <g>
       <use style="stroke:#000000;stroke-width:0.8;" x="57.6" xlink:href="#m5fa280ee63" y="295.595742"/>
      </g>
     </g>
     <g id="text_9">
      <!-- 0.00 -->
      <defs>
       <path d="M 10.6875 12.40625 
L 21 12.40625 
L 21 0 
L 10.6875 0 
z
" id="DejaVuSans-46"/>
      </defs>
      <g transform="translate(28.334375 299.394961)scale(0.1 -0.1)">
       <use xlink:href="#DejaVuSans-48"/>
       <use x="63.623047" xlink:href="#DejaVuSans-46"/>
       <use x="95.410156" xlink:href="#DejaVuSans-48"/>
       <use x="159.033203" xlink:href="#DejaVuSans-48"/>
      </g>
     </g>
    </g>
    <g id="ytick_2">
     <g id="line2d_10">
      <g>
       <use style="stroke:#000000;stroke-width:0.8;" x="57.6" xlink:href="#m5fa280ee63" y="254.992196"/>
      </g>
     </g>
     <g id="text_10">
      <!-- 0.05 -->
      <defs>
       <path d="M 10.796875 72.90625 
L 49.515625 72.90625 
L 49.515625 64.59375 
L 19.828125 64.59375 
L 19.828125 46.734375 
Q 21.96875 47.46875 24.109375 47.828125 
Q 26.265625 48.1875 28.421875 48.1875 
Q 40.625 48.1875 47.75 41.5 
Q 54.890625 34.8125 54.890625 23.390625 
Q 54.890625 11.625 47.5625 5.09375 
Q 40.234375 -1.421875 26.90625 -1.421875 
Q 22.3125 -1.421875 17.546875 -0.640625 
Q 12.796875 0.140625 7.71875 1.703125 
L 7.71875 11.625 
Q 12.109375 9.234375 16.796875 8.0625 
Q 21.484375 6.890625 26.703125 6.890625 
Q 35.15625 6.890625 40.078125 11.328125 
Q 45.015625 15.765625 45.015625 23.390625 
Q 45.015625 31 40.078125 35.4375 
Q 35.15625 39.890625 26.703125 39.890625 
Q 22.75 39.890625 18.8125 39.015625 
Q 14.890625 38.140625 10.796875 36.28125 
z
" id="DejaVuSans-53"/>
      </defs>
      <g transform="translate(28.334375 258.791415)scale(0.1 -0.1)">
       <use xlink:href="#DejaVuSans-48"/>
       <use x="63.623047" xlink:href="#DejaVuSans-46"/>
       <use x="95.410156" xlink:href="#DejaVuSans-48"/>
       <use x="159.033203" xlink:href="#DejaVuSans-53"/>
      </g>
     </g>
    </g>
    <g id="ytick_3">
     <g id="line2d_11">
      <g>
       <use style="stroke:#000000;stroke-width:0.8;" x="57.6" xlink:href="#m5fa280ee63" y="214.38865"/>
      </g>
     </g>
     <g id="text_11">
      <!-- 0.10 -->
      <g transform="translate(28.334375 218.187868)scale(0.1 -0.1)">
       <use xlink:href="#DejaVuSans-48"/>
       <use x="63.623047" xlink:href="#DejaVuSans-46"/>
       <use x="95.410156" xlink:href="#DejaVuSans-49"/>
       <use x="159.033203" xlink:href="#DejaVuSans-48"/>
      </g>
     </g>
    </g>
    <g id="ytick_4">
     <g id="line2d_12">
      <g>
       <use style="stroke:#000000;stroke-width:0.8;" x="57.6" xlink:href="#m5fa280ee63" y="173.785103"/>
      </g>
     </g>
     <g id="text_12">
      <!-- 0.15 -->
      <g transform="translate(28.334375 177.584322)scale(0.1 -0.1)">
       <use xlink:href="#DejaVuSans-48"/>
       <use x="63.623047" xlink:href="#DejaVuSans-46"/>
       <use x="95.410156" xlink:href="#DejaVuSans-49"/>
       <use x="159.033203" xlink:href="#DejaVuSans-53"/>
      </g>
     </g>
    </g>
    <g id="ytick_5">
     <g id="line2d_13">
      <g>
       <use style="stroke:#000000;stroke-width:0.8;" x="57.6" xlink:href="#m5fa280ee63" y="133.181557"/>
      </g>
     </g>
     <g id="text_13">
      <!-- 0.20 -->
      <g transform="translate(28.334375 136.980776)scale(0.1 -0.1)">
       <use xlink:href="#DejaVuSans-48"/>
       <use x="63.623047" xlink:href="#DejaVuSans-46"/>
       <use x="95.410156" xlink:href="#DejaVuSans-50"/>
       <use x="159.033203" xlink:href="#DejaVuSans-48"/>
      </g>
     </g>
    </g>
    <g id="ytick_6">
     <g id="line2d_14">
      <g>
       <use style="stroke:#000000;stroke-width:0.8;" x="57.6" xlink:href="#m5fa280ee63" y="92.57801"/>
      </g>
     </g>
     <g id="text_14">
      <!-- 0.25 -->
      <g transform="translate(28.334375 96.377229)scale(0.1 -0.1)">
       <use xlink:href="#DejaVuSans-48"/>
       <use x="63.623047" xlink:href="#DejaVuSans-46"/>
       <use x="95.410156" xlink:href="#DejaVuSans-50"/>
       <use x="159.033203" xlink:href="#DejaVuSans-53"/>
      </g>
     </g>
    </g>
    <g id="ytick_7">
     <g id="line2d_15">
      <g>
       <use style="stroke:#000000;stroke-width:0.8;" x="57.6" xlink:href="#m5fa280ee63" y="51.974464"/>
      </g>
     </g>
     <g id="text_15">
      <!-- 0.30 -->
      <defs>
       <path d="M 40.578125 39.3125 
Q 47.65625 37.796875 51.625 33 
Q 55.609375 28.21875 55.609375 21.1875 
Q 55.609375 10.40625 48.1875 4.484375 
Q 40.765625 -1.421875 27.09375 -1.421875 
Q 22.515625 -1.421875 17.65625 -0.515625 
Q 12.796875 0.390625 7.625 2.203125 
L 7.625 11.71875 
Q 11.71875 9.328125 16.59375 8.109375 
Q 21.484375 6.890625 26.8125 6.890625 
Q 36.078125 6.890625 40.9375 10.546875 
Q 45.796875 14.203125 45.796875 21.1875 
Q 45.796875 27.640625 41.28125 31.265625 
Q 36.765625 34.90625 28.71875 34.90625 
L 20.21875 34.90625 
L 20.21875 43.015625 
L 29.109375 43.015625 
Q 36.375 43.015625 40.234375 45.921875 
Q 44.09375 48.828125 44.09375 54.296875 
Q 44.09375 59.90625 40.109375 62.90625 
Q 36.140625 65.921875 28.71875 65.921875 
Q 24.65625 65.921875 20.015625 65.03125 
Q 15.375 64.15625 9.8125 62.3125 
L 9.8125 71.09375 
Q 15.4375 72.65625 20.34375 73.4375 
Q 25.25 74.21875 29.59375 74.21875 
Q 40.828125 74.21875 47.359375 69.109375 
Q 53.90625 64.015625 53.90625 55.328125 
Q 53.90625 49.265625 50.4375 45.09375 
Q 46.96875 40.921875 40.578125 39.3125 
z
" id="DejaVuSans-51"/>
      </defs>
      <g transform="translate(28.334375 55.773683)scale(0.1 -0.1)">
       <use xlink:href="#DejaVuSans-48"/>
       <use x="63.623047" xlink:href="#DejaVuSans-46"/>
       <use x="95.410156" xlink:href="#DejaVuSans-51"/>
       <use x="159.033203" xlink:href="#DejaVuSans-48"/>
      </g>
     </g>
    </g>
   </g>
   <g id="line2d_16">
    <path clip-path="url(#pdeb7547c12)" d="M 73.832727 275.094121 
L 74.064789 273.237655 
L 74.296851 274.667572 
L 74.528913 273.889982 
L 74.760975 272.117874 
L 74.993037 273.17929 
L 75.225098 275.12064 
L 75.689222 286.617934 
L 75.921284 286.849968 
L 76.153346 286.764865 
L 76.849531 292.578021 
L 77.081593 294.491513 
L 77.313655 295.213993 
L 77.545717 295.241587 
L 77.777779 295.109789 
L 78.009841 295.390945 
L 78.241903 295.212608 
L 78.473965 295.488 
L 78.938088 295.04293 
L 79.17015 295.358509 
L 79.402212 294.950172 
L 79.634274 295.14825 
L 79.866336 293.570996 
L 80.098398 294.44296 
L 80.330459 294.734207 
L 80.562521 292.409573 
L 80.794583 291.753804 
L 81.026645 293.437147 
L 81.258707 292.431511 
L 81.490769 292.592341 
L 81.722831 292.600012 
L 81.954892 293.648043 
L 82.186954 292.242177 
L 82.419016 293.926145 
L 82.651078 294.576236 
L 82.88314 291.287681 
L 83.115202 293.142716 
L 83.347264 293.294977 
L 83.579325 295.34417 
L 83.811387 295.138925 
L 84.275511 294.274332 
L 84.507573 295.089051 
L 84.739635 295.10062 
L 84.971697 294.736554 
L 85.203759 294.777158 
L 85.43582 295.184727 
L 85.667882 294.677153 
L 86.132006 295.233391 
L 86.364068 295.309446 
L 86.828192 294.270359 
L 87.060253 294.629547 
L 87.524377 292.786604 
L 87.756439 294.507426 
L 87.988501 294.032189 
L 88.220563 289.863826 
L 88.452625 288.130326 
L 88.684686 287.740993 
L 89.14881 281.807357 
L 89.380872 279.721998 
L 89.612934 281.0137 
L 90.077058 278.256058 
L 90.30912 277.458447 
L 90.541181 278.483511 
L 90.773243 278.067889 
L 91.005305 277.944035 
L 91.237367 284.476841 
L 91.469429 279.654373 
L 91.701491 286.094891 
L 91.933553 281.204025 
L 92.397676 286.45464 
L 92.629738 291.250714 
L 93.093862 294.863172 
L 93.325924 295.099632 
L 93.557986 295.040778 
L 93.790047 294.823122 
L 94.022109 295.133836 
L 94.486233 294.950142 
L 94.718295 294.318535 
L 94.950357 294.257184 
L 95.182419 291.800366 
L 95.41448 291.720087 
L 95.646542 293.873025 
L 95.878604 288.613335 
L 96.110666 289.087677 
L 96.57479 283.649217 
L 96.806852 285.220976 
L 97.038914 284.253005 
L 97.735099 277.627267 
L 97.967161 277.346829 
L 98.199223 276.623856 
L 98.431285 276.359364 
L 98.663347 275.631186 
L 98.895408 276.235192 
L 99.12747 280.158166 
L 99.359532 281.332162 
L 99.591594 279.728888 
L 99.823656 284.577837 
L 100.055718 285.309226 
L 100.28778 287.555926 
L 100.751903 294.5904 
L 101.216027 294.123003 
L 101.448089 294.871177 
L 101.680151 294.468727 
L 102.144274 295.139785 
L 102.84046 293.879456 
L 103.072522 290.514506 
L 103.304584 290.9294 
L 103.536646 292.273435 
L 103.768708 280.890192 
L 104.000769 285.499277 
L 104.232831 282.807287 
L 104.464893 284.888357 
L 105.161079 279.902467 
L 105.393141 279.020293 
L 105.625202 281.237369 
L 105.857264 276.208009 
L 106.089326 276.648021 
L 106.321388 287.841248 
L 106.785512 274.557342 
L 107.481697 285.60604 
L 107.713759 283.774621 
L 108.177883 290.922143 
L 108.409945 293.523359 
L 108.642007 294.350287 
L 108.874068 291.024191 
L 109.10613 294.314381 
L 109.338192 294.092694 
L 109.570254 294.479507 
L 110.034378 294.688924 
L 110.26644 294.369669 
L 110.498502 293.482879 
L 110.730563 288.719717 
L 110.962625 291.58523 
L 111.194687 291.151912 
L 111.426749 291.789389 
L 111.658811 285.568958 
L 112.122935 283.516995 
L 112.354996 285.107387 
L 112.587058 283.106056 
L 112.81912 284.313372 
L 113.051182 280.133167 
L 113.283244 280.564753 
L 113.515306 279.284617 
L 113.747368 288.300082 
L 114.211491 280.001153 
L 114.443553 285.070962 
L 115.139739 282.883709 
L 115.371801 283.368784 
L 115.603862 291.496232 
L 115.835924 289.584494 
L 116.067986 290.081418 
L 116.300048 293.496468 
L 116.53211 288.525623 
L 116.996234 294.510122 
L 117.228296 293.210565 
L 117.460357 294.530953 
L 117.924481 294.21707 
L 118.156543 294.110451 
L 118.388605 294.329212 
L 118.620667 290.618798 
L 118.852729 289.938324 
L 119.08479 292.246895 
L 119.316852 287.334056 
L 119.548914 286.910304 
L 119.780976 283.848925 
L 120.2451 287.491885 
L 120.477162 281.603951 
L 120.709223 280.426272 
L 120.941285 280.229205 
L 121.173347 279.292306 
L 121.405409 279.485985 
L 121.869533 283.902142 
L 122.101595 278.812726 
L 122.333657 282.574012 
L 122.79778 282.598611 
L 123.029842 288.956968 
L 123.493966 291.538571 
L 123.95809 293.311465 
L 124.190151 293.500422 
L 124.422213 294.129013 
L 124.654275 293.903385 
L 124.886337 293.064271 
L 125.118399 291.292768 
L 125.350461 292.644881 
L 125.582523 290.773461 
L 125.814584 293.149964 
L 126.046646 293.055398 
L 126.278708 292.765121 
L 126.51077 290.962263 
L 126.742832 291.468555 
L 126.974894 282.925193 
L 127.439017 282.736021 
L 127.671079 282.304947 
L 127.903141 281.412721 
L 128.135203 281.321568 
L 128.367265 280.017005 
L 128.599327 280.464183 
L 128.831389 279.40366 
L 129.063451 282.409896 
L 129.295512 283.415896 
L 129.527574 286.218478 
L 129.759636 279.698536 
L 129.991698 286.539798 
L 130.455822 282.143861 
L 130.687884 289.582523 
L 130.919945 286.564832 
L 131.152007 287.174862 
L 131.384069 291.01576 
L 131.848193 293.673418 
L 132.080255 293.467843 
L 132.312317 293.487851 
L 132.544378 290.503945 
L 132.77644 290.976022 
L 133.008502 293.440519 
L 133.240564 292.767986 
L 133.472626 290.956817 
L 133.704688 285.89908 
L 133.93675 290.414072 
L 134.168811 292.046603 
L 134.400873 283.809131 
L 134.632935 283.612825 
L 134.864997 285.368735 
L 135.097059 284.221062 
L 135.329121 283.920201 
L 135.561183 286.47794 
L 135.793245 283.674052 
L 136.025306 283.77649 
L 136.257368 282.734332 
L 136.48943 282.276059 
L 136.721492 286.351196 
L 136.953554 278.878471 
L 137.185616 285.415857 
L 137.417678 284.533475 
L 137.881801 285.552197 
L 138.113863 290.021096 
L 138.345925 291.512314 
L 138.810049 290.990414 
L 139.042111 289.319657 
L 139.274172 283.826704 
L 139.506234 285.045958 
L 139.738296 293.811023 
L 139.970358 293.581848 
L 140.20242 294.596228 
L 140.434482 293.248485 
L 141.130667 293.517024 
L 141.362729 292.864883 
L 141.594791 289.959412 
L 141.826853 290.303483 
L 142.058915 280.180901 
L 142.290977 283.617712 
L 142.523039 280.950345 
L 142.7551 281.701429 
L 143.219224 280.750013 
L 143.451286 280.637493 
L 143.683348 289.576855 
L 143.91541 279.167313 
L 144.147472 278.270787 
L 144.379533 279.096324 
L 144.843657 285.576101 
L 145.075719 281.291165 
L 145.307781 285.943347 
L 145.539843 284.730641 
L 145.771905 290.077791 
L 146.003966 292.155027 
L 146.236028 290.663539 
L 146.46809 290.819624 
L 146.700152 284.477932 
L 146.932214 292.563152 
L 147.164276 293.062074 
L 147.396338 293.859806 
L 147.6284 286.512062 
L 147.860461 291.64466 
L 148.092523 292.918069 
L 148.324585 291.93472 
L 148.556647 294.183495 
L 148.788709 293.397187 
L 149.020771 293.018563 
L 149.252833 293.91401 
L 149.484894 290.133027 
L 149.716956 291.028571 
L 149.949018 286.153208 
L 150.413142 282.324875 
L 151.109327 280.694078 
L 151.341389 289.900652 
L 151.573451 278.910222 
L 151.805513 277.550468 
L 152.037575 277.206952 
L 152.269637 281.086517 
L 152.501699 279.163249 
L 152.73376 279.493872 
L 152.965822 275.349112 
L 153.197884 277.83566 
L 153.429946 278.063167 
L 153.662008 280.613562 
L 153.89407 284.768823 
L 154.126132 283.886463 
L 154.358194 282.258017 
L 154.590255 288.142665 
L 155.054379 294.040172 
L 155.286441 293.378513 
L 155.518503 294.420431 
L 155.982627 292.191992 
L 156.214688 293.329835 
L 156.44675 293.591299 
L 156.678812 292.66263 
L 156.910874 293.827034 
L 157.374998 290.002159 
L 157.60706 284.686724 
L 157.839121 286.081782 
L 158.303245 283.237084 
L 158.535307 290.381793 
L 158.999431 289.279338 
L 159.231493 286.540528 
L 159.463554 275.468111 
L 159.695616 276.489609 
L 159.927678 280.316447 
L 160.15974 276.248415 
L 160.391802 280.29521 
L 160.623864 281.325207 
L 160.855926 280.223503 
L 161.087988 280.689865 
L 161.320049 285.619478 
L 161.552111 285.942937 
L 161.784173 279.145819 
L 162.480359 290.540158 
L 162.712421 291.298665 
L 162.944482 292.832468 
L 163.176544 288.099852 
L 163.408606 278.767255 
L 163.640668 287.574545 
L 163.87273 291.56189 
L 164.104792 290.52264 
L 164.336854 291.476377 
L 164.568915 293.139959 
L 164.800977 289.304886 
L 165.033039 291.945584 
L 165.265101 282.678838 
L 165.497163 282.719299 
L 165.729225 284.418524 
L 165.961287 280.138916 
L 166.193348 279.372654 
L 166.42541 279.510925 
L 166.657472 284.668483 
L 166.889534 277.145769 
L 167.121596 275.588081 
L 167.353658 275.783036 
L 167.58572 281.275057 
L 168.049843 277.528916 
L 168.281905 281.966031 
L 168.513967 280.115799 
L 168.978091 286.891896 
L 169.210153 288.362202 
L 169.442215 285.131697 
L 169.674276 290.596721 
L 169.906338 279.901048 
L 170.1384 288.307519 
L 170.602524 292.921838 
L 170.834586 294.306036 
L 171.066648 293.985335 
L 171.298709 291.089774 
L 171.530771 292.270663 
L 171.762833 292.757082 
L 171.994895 289.974025 
L 172.226957 291.874571 
L 172.691081 288.959954 
L 172.923143 289.608891 
L 173.155204 280.73488 
L 173.387266 281.224631 
L 173.619328 279.093744 
L 173.85139 287.562056 
L 174.083452 285.62078 
L 174.779637 276.918368 
L 175.011699 275.997411 
L 175.243761 275.933225 
L 175.475823 277.140947 
L 175.707885 283.277571 
L 176.172009 278.778785 
L 176.636132 282.983275 
L 176.868194 283.710829 
L 177.100256 289.277683 
L 177.332318 289.321524 
L 177.56438 288.984655 
L 177.796442 290.625562 
L 178.028503 290.668385 
L 178.260565 291.719307 
L 178.492627 289.617789 
L 178.724689 292.701671 
L 178.956751 289.92261 
L 179.420875 289.397807 
L 179.652937 290.8875 
L 180.11706 287.710853 
L 180.349122 287.721995 
L 180.581184 281.459333 
L 180.813246 282.684748 
L 181.045308 280.888981 
L 181.27737 280.336641 
L 181.509431 287.235483 
L 181.741493 287.285091 
L 182.205617 282.787401 
L 182.437679 277.385741 
L 182.669741 275.864795 
L 182.901803 276.299494 
L 183.133864 281.566228 
L 183.365926 280.722981 
L 183.597988 283.322188 
L 183.83005 276.506906 
L 184.062112 279.138016 
L 184.294174 279.9224 
L 184.758297 287.125391 
L 185.222421 289.277086 
L 185.454483 288.284434 
L 185.686545 287.974759 
L 185.918607 291.207846 
L 186.150669 290.638443 
L 186.382731 285.54653 
L 186.614792 289.768875 
L 186.846854 286.468424 
L 187.078916 290.573893 
L 187.310978 289.623965 
L 187.54304 286.941835 
L 187.775102 286.070136 
L 188.007164 290.009925 
L 188.239225 290.343382 
L 188.703349 283.110194 
L 188.935411 281.081159 
L 189.167473 281.09295 
L 189.399535 287.26374 
L 189.631597 279.426759 
L 189.863658 278.790318 
L 190.09572 276.310875 
L 190.327782 277.02939 
L 190.559844 286.439675 
L 191.023968 276.415137 
L 191.25603 282.533375 
L 191.488091 280.611839 
L 191.720153 277.408593 
L 191.952215 286.701565 
L 192.184277 287.471597 
L 192.416339 290.450595 
L 192.880463 292.310808 
L 193.112525 282.939712 
L 193.344586 292.583059 
L 193.576648 292.86495 
L 193.80871 278.43153 
L 194.040772 292.759354 
L 194.272834 289.353214 
L 194.504896 288.440478 
L 194.736958 289.778662 
L 194.969019 288.58795 
L 195.201081 290.264573 
L 195.433143 289.990399 
L 195.665205 286.326494 
L 195.897267 288.373195 
L 196.129329 283.564852 
L 196.361391 282.831085 
L 196.593452 280.815464 
L 196.825514 286.133483 
L 197.057576 285.406456 
L 197.289638 286.258936 
L 197.5217 286.091893 
L 197.753762 276.908914 
L 197.985824 277.449293 
L 198.217886 282.220612 
L 198.449947 280.868802 
L 198.682009 282.894885 
L 198.914071 283.201236 
L 199.146133 281.688176 
L 199.610257 286.273522 
L 200.07438 290.83402 
L 200.538504 292.52458 
L 200.770566 292.06735 
L 201.002628 292.961062 
L 201.466752 288.539008 
L 201.698813 281.751396 
L 201.930875 289.305714 
L 202.162937 283.257913 
L 202.394999 285.783259 
L 202.627061 287.048894 
L 202.859123 285.295343 
L 203.091185 282.540478 
L 203.323246 285.533042 
L 203.555308 283.294953 
L 203.78737 283.272499 
L 204.019432 283.689932 
L 204.251494 282.775241 
L 204.483556 284.357324 
L 204.715618 284.610345 
L 204.94768 285.354288 
L 205.179741 279.569551 
L 205.411803 278.001647 
L 205.643865 278.567373 
L 205.875927 278.010025 
L 206.340051 285.20152 
L 206.572113 285.51903 
L 206.804174 282.829879 
L 207.036236 285.05121 
L 207.268298 288.889331 
L 207.50036 289.546982 
L 207.732422 291.430076 
L 207.964484 291.256662 
L 208.428607 292.213956 
L 208.660669 291.674425 
L 208.892731 293.171299 
L 209.356855 283.915774 
L 209.588917 288.653882 
L 209.820979 285.929463 
L 210.05304 286.503016 
L 210.285102 286.051779 
L 210.517164 284.480386 
L 210.749226 284.371198 
L 210.981288 282.580013 
L 211.21335 282.998805 
L 211.445412 282.278663 
L 211.677474 283.330357 
L 211.909535 281.468655 
L 212.141597 283.774388 
L 212.373659 284.718829 
L 212.837783 280.535735 
L 213.301907 278.771022 
L 213.533968 283.589567 
L 213.76603 274.847503 
L 213.998092 283.589315 
L 214.230154 284.307198 
L 214.462216 281.243153 
L 214.92634 289.718627 
L 215.390463 291.522955 
L 215.622525 292.107524 
L 215.854587 293.059355 
L 216.086649 292.990748 
L 216.318711 293.374074 
L 216.550773 293.106256 
L 216.782834 291.76424 
L 217.014896 291.898681 
L 217.711082 284.486514 
L 217.943144 286.809313 
L 218.175206 286.429837 
L 218.407268 284.345232 
L 218.639329 286.653178 
L 219.103453 282.098432 
L 219.335515 282.598528 
L 219.567577 281.238188 
L 219.799639 283.53392 
L 220.263762 284.286666 
L 220.495824 281.350041 
L 220.959948 279.428977 
L 221.19201 287.32196 
L 221.424072 275.694191 
L 221.656134 283.76308 
L 221.888195 284.72279 
L 222.120257 281.479902 
L 222.584381 288.938203 
L 222.816443 289.888848 
L 223.048505 291.640457 
L 223.280567 281.39686 
L 223.512629 290.532864 
L 223.74469 291.525512 
L 224.208814 292.230735 
L 224.440876 292.23576 
L 224.672938 291.499012 
L 224.905 292.788692 
L 225.137062 288.373755 
L 225.369123 288.994237 
L 225.601185 288.316909 
L 226.065309 285.871826 
L 226.297371 284.698292 
L 226.529433 286.718966 
L 226.993556 284.430005 
L 227.225618 285.51229 
L 227.45768 284.138342 
L 227.689742 284.486914 
L 227.921804 283.996793 
L 228.153866 283.783621 
L 228.617989 281.347251 
L 228.850051 287.210835 
L 229.082113 284.682743 
L 229.314175 286.439513 
L 229.546237 281.001294 
L 229.778299 283.169539 
L 230.010361 288.680091 
L 230.242423 290.208208 
L 230.474484 293.005374 
L 230.706546 277.202741 
L 230.938608 292.499656 
L 231.17067 290.585118 
L 231.402732 290.201833 
L 231.866856 291.010876 
L 232.098917 292.770594 
L 232.330979 292.441415 
L 232.563041 288.552492 
L 233.027165 285.101185 
L 233.259227 285.497394 
L 233.491289 282.123125 
L 233.955412 284.371212 
L 234.187474 281.121796 
L 234.419536 283.044971 
L 234.651598 282.632168 
L 234.88366 283.143913 
L 235.115722 281.108938 
L 235.347783 283.485203 
L 235.579845 281.258175 
L 235.811907 281.134644 
L 236.043969 281.140744 
L 236.276031 280.469305 
L 236.508093 282.308187 
L 236.740155 285.128168 
L 236.972217 290.083227 
L 237.204278 280.054174 
L 237.43634 282.871978 
L 237.668402 290.771447 
L 237.900464 288.453487 
L 238.132526 292.856926 
L 238.364588 289.789282 
L 238.59665 291.66707 
L 238.828711 290.665102 
L 239.060773 291.116344 
L 239.292835 290.540499 
L 239.524897 290.872082 
L 239.756959 292.378073 
L 239.989021 292.031012 
L 240.221083 293.046397 
L 240.453144 289.029699 
L 240.917268 286.715062 
L 241.14933 286.555417 
L 241.381392 285.707789 
L 241.613454 283.367825 
L 242.077577 285.83289 
L 242.309639 283.059075 
L 242.541701 282.882546 
L 242.773763 283.731493 
L 243.005825 283.349404 
L 243.237887 282.180771 
L 243.469949 282.724115 
L 243.934072 280.842918 
L 244.166134 278.539435 
L 244.398196 285.989817 
L 244.630258 288.63064 
L 244.86232 284.784493 
L 245.094382 291.085271 
L 245.326444 289.801555 
L 245.558505 292.160099 
L 246.254691 290.283193 
L 246.486753 290.432668 
L 246.718815 291.245774 
L 246.950877 291.553598 
L 247.415 291.692106 
L 247.647062 291.603259 
L 247.879124 291.177541 
L 248.111186 289.685141 
L 248.343248 286.40605 
L 248.57531 286.772377 
L 248.807371 286.136373 
L 249.039433 288.212956 
L 249.271495 283.159022 
L 249.735619 285.53382 
L 249.967681 282.85682 
L 250.199743 281.868518 
L 250.431805 283.336225 
L 250.663866 283.098577 
L 250.895928 283.869885 
L 251.12799 282.395236 
L 251.360052 282.89862 
L 251.592114 283.04979 
L 251.824176 279.254858 
L 252.056238 286.51895 
L 252.288299 279.782979 
L 252.752423 288.951329 
L 252.984485 289.651071 
L 253.216547 291.557098 
L 253.448609 283.719514 
L 253.680671 290.342926 
L 254.608918 292.303611 
L 255.073042 292.385637 
L 255.537166 292.004693 
L 255.769227 293.340909 
L 256.001289 289.149862 
L 256.233351 287.603695 
L 256.465413 289.037852 
L 256.697475 287.845785 
L 256.929537 287.889607 
L 257.161599 283.222048 
L 257.39366 287.063399 
L 257.625722 283.530497 
L 257.857784 283.57513 
L 258.089846 282.192194 
L 258.321908 283.502399 
L 258.55397 281.385721 
L 259.018093 283.343738 
L 259.250155 283.366816 
L 259.482217 278.781209 
L 259.714279 285.588286 
L 259.946341 279.024587 
L 260.410465 288.328147 
L 260.642526 288.733504 
L 260.874588 291.793569 
L 261.10665 288.577312 
L 261.338712 290.421066 
L 262.034898 290.993878 
L 262.26696 291.756236 
L 262.731083 291.983096 
L 262.963145 291.563161 
L 263.195207 291.697483 
L 263.427269 291.506545 
L 263.659331 292.093233 
L 264.123454 289.240053 
L 264.587578 287.795936 
L 264.81964 289.710085 
L 265.051702 282.207759 
L 265.283764 286.897253 
L 265.515826 283.268385 
L 265.747887 283.04882 
L 265.979949 281.637533 
L 266.212011 281.185809 
L 266.444073 282.815506 
L 266.676135 282.338675 
L 266.908197 282.886923 
L 267.140259 278.615548 
L 267.37232 284.101172 
L 267.604382 278.33455 
L 267.836444 285.374888 
L 268.068506 286.5878 
L 268.300568 286.317087 
L 268.53263 288.111279 
L 268.764692 286.921839 
L 268.996754 289.048638 
L 269.460877 290.05102 
L 269.925001 290.439661 
L 270.157063 290.055599 
L 270.389125 290.348027 
L 270.621187 290.320821 
L 270.853248 289.79666 
L 271.08531 290.247726 
L 271.549434 287.427891 
L 271.781496 287.645288 
L 272.013558 286.18968 
L 272.24562 286.20627 
L 272.477681 285.767324 
L 272.709743 282.829311 
L 272.941805 286.353462 
L 273.405929 281.702771 
L 273.637991 281.813933 
L 273.870053 282.166307 
L 274.102114 280.938071 
L 274.334176 281.658949 
L 274.566238 280.413112 
L 274.7983 284.676871 
L 275.030362 282.761101 
L 275.262424 288.65468 
L 275.494486 280.904698 
L 275.958609 286.62528 
L 276.190671 288.942343 
L 276.422733 286.602532 
L 276.886857 286.946283 
L 277.118919 289.157866 
L 277.815104 289.587307 
L 278.047166 289.406963 
L 278.51129 288.231356 
L 278.743352 287.303685 
L 278.975414 287.768683 
L 279.207475 286.349114 
L 279.439537 287.83523 
L 279.671599 287.358718 
L 279.903661 289.462739 
L 280.135723 287.203079 
L 280.367785 283.720436 
L 280.599847 286.899675 
L 280.831909 283.065645 
L 281.06397 282.892949 
L 281.296032 283.409873 
L 281.528094 282.776488 
L 281.760156 282.487201 
L 281.992218 281.88838 
L 282.22428 281.664553 
L 282.456342 281.122727 
L 282.920465 287.592451 
L 283.152527 284.147996 
L 283.384589 285.106886 
L 283.848713 288.946322 
L 284.080775 288.924032 
L 284.312836 285.5953 
L 284.544898 286.267184 
L 285.937269 284.585877 
L 286.169331 284.950373 
L 286.401393 287.057129 
L 286.633455 284.380123 
L 286.865517 284.141827 
L 287.097579 281.538554 
L 287.329641 285.61837 
L 287.561703 280.81341 
L 287.793764 285.770849 
L 288.257888 287.997729 
L 288.48995 287.806717 
L 288.722012 282.0857 
L 288.954074 283.099962 
L 289.186136 282.275563 
L 289.418197 282.515684 
L 289.650259 281.458255 
L 289.882321 287.65924 
L 290.114383 278.494523 
L 290.346445 285.610872 
L 290.578507 288.368464 
L 290.810569 284.881651 
L 291.04263 290.08992 
L 291.274692 287.699404 
L 291.506754 289.958791 
L 291.738816 278.022255 
L 291.970878 288.358351 
L 292.20294 287.092361 
L 292.435002 288.086999 
L 292.667063 288.387455 
L 292.899125 289.044829 
L 293.595311 288.716626 
L 293.827373 288.541926 
L 294.059435 288.904812 
L 294.291497 285.053903 
L 294.523558 284.051415 
L 294.75562 285.855944 
L 294.987682 284.005221 
L 295.451806 286.32125 
L 295.683868 283.846341 
L 295.91593 285.848931 
L 296.147991 282.250601 
L 296.380053 282.61943 
L 296.844177 281.026184 
L 297.076239 281.747786 
L 297.308301 280.765372 
L 297.540363 280.685833 
L 297.772424 284.203504 
L 298.004486 285.829524 
L 298.236548 283.71323 
L 298.46861 284.808925 
L 298.700672 289.331867 
L 298.932734 286.847928 
L 299.164796 289.232143 
L 299.860981 287.588713 
L 300.093043 287.652174 
L 300.557167 286.689071 
L 301.253352 285.553402 
L 301.485414 285.539922 
L 301.717476 286.685781 
L 301.949538 284.79473 
L 302.1816 284.564491 
L 302.413662 285.319602 
L 302.645724 287.50262 
L 302.877785 284.907775 
L 303.109847 286.113151 
L 303.341909 283.821056 
L 303.573971 286.789054 
L 303.806033 283.511708 
L 304.038095 284.072675 
L 304.270157 284.154849 
L 304.502218 283.128016 
L 304.73428 282.696049 
L 304.966342 281.578601 
L 305.198404 281.614295 
L 305.430466 285.342823 
L 305.662528 277.660623 
L 305.89459 288.669531 
L 306.126652 282.951865 
L 306.358713 283.20384 
L 306.590775 284.269597 
L 306.822837 288.56036 
L 307.054899 285.787096 
L 307.286961 285.46377 
L 307.519023 276.402736 
L 307.751085 286.868019 
L 307.983146 287.06642 
L 308.215208 286.955233 
L 308.679332 289.635348 
L 308.911394 289.572654 
L 309.143456 289.179123 
L 309.375518 287.901734 
L 309.607579 284.805309 
L 310.071703 286.317708 
L 310.303765 289.004197 
L 310.535827 286.689402 
L 310.767889 290.720188 
L 311.232012 280.915013 
L 311.464074 283.053503 
L 311.696136 283.058566 
L 311.928198 283.548956 
L 312.16026 283.243072 
L 312.624384 281.674063 
L 312.856446 289.969127 
L 313.088507 277.90235 
L 313.320569 289.19979 
L 313.552631 286.309186 
L 313.784693 280.689924 
L 314.016755 290.101862 
L 314.248817 283.509205 
L 314.480879 288.748397 
L 314.945002 285.654218 
L 315.177064 284.897106 
L 315.409126 284.735316 
L 315.87325 285.229416 
L 316.105312 284.668041 
L 316.569435 287.459927 
L 316.801497 288.008429 
L 317.033559 288.903041 
L 317.265621 283.843447 
L 317.729745 285.828004 
L 317.961806 287.710849 
L 318.193868 287.467653 
L 318.657992 289.048524 
L 318.890054 289.131392 
L 319.122116 284.246439 
L 319.354178 285.581171 
L 319.818301 284.584591 
L 320.050363 284.819472 
L 320.282425 282.459483 
L 320.514487 290.369107 
L 320.746549 288.268819 
L 320.978611 282.754256 
L 321.210673 287.007336 
L 321.442734 282.172049 
L 321.674796 289.843912 
L 321.906858 284.259424 
L 322.13892 289.776034 
L 322.370982 281.049718 
L 322.603044 286.692742 
L 322.835106 285.766248 
L 323.067167 285.374638 
L 323.299229 285.507026 
L 323.531291 287.618253 
L 323.763353 288.083232 
L 323.995415 289.58098 
L 324.227477 290.342103 
L 324.459539 290.451898 
L 324.923662 289.741857 
L 325.387786 286.012371 
L 325.619848 287.712228 
L 325.85191 287.350878 
L 326.083972 286.210236 
L 326.316034 282.168943 
L 326.548095 282.927081 
L 327.012219 281.335351 
L 327.244281 285.391035 
L 327.476343 286.408994 
L 327.708405 284.911441 
L 327.940467 279.661947 
L 328.172528 277.401026 
L 328.40459 278.195501 
L 328.868714 284.503676 
L 329.100776 275.940402 
L 329.332838 277.21524 
L 329.796961 288.678582 
L 330.261085 284.664553 
L 330.493147 286.1575 
L 330.725209 286.005748 
L 330.957271 286.142241 
L 331.189333 287.688019 
L 331.421395 287.876041 
L 332.11758 290.231324 
L 332.581704 290.462743 
L 332.813766 287.683221 
L 333.045828 287.101268 
L 333.277889 287.943986 
L 333.509951 287.639749 
L 333.742013 286.36862 
L 333.974075 283.668078 
L 334.206137 285.306713 
L 334.438199 282.569429 
L 334.902322 282.038209 
L 335.134384 288.720353 
L 335.366446 288.345432 
L 335.598508 279.739828 
L 335.83057 279.303829 
L 336.062632 287.032614 
L 336.294694 277.021148 
L 336.526755 283.360111 
L 336.758817 283.699746 
L 336.990879 290.591482 
L 337.222941 285.636143 
L 337.455003 289.678543 
L 337.687065 286.933347 
L 337.919127 287.591657 
L 338.38325 285.56493 
L 338.615312 285.733038 
L 339.079436 287.231368 
L 339.311498 288.690407 
L 339.54356 288.993023 
L 340.239745 288.1012 
L 340.471807 286.309679 
L 340.703869 286.079924 
L 340.935931 287.380254 
L 341.167993 287.354141 
L 341.400055 285.283799 
L 341.632116 287.554611 
L 342.09624 282.27428 
L 342.328302 283.515851 
L 342.560364 282.406583 
L 342.792426 288.300439 
L 343.024488 288.658413 
L 343.256549 280.594681 
L 343.488611 279.92192 
L 343.720673 283.938691 
L 343.952735 285.928633 
L 344.184797 285.172057 
L 344.416859 282.976245 
L 344.648921 290.488701 
L 344.880983 283.715711 
L 345.113044 283.621668 
L 345.345106 286.713181 
L 345.577168 285.005689 
L 346.041292 283.799635 
L 346.273354 284.575413 
L 346.505416 284.318944 
L 347.433663 288.662132 
L 347.665725 288.56864 
L 347.897787 289.482097 
L 348.36191 285.980044 
L 348.593972 286.718416 
L 348.826034 285.689662 
L 349.058096 287.550507 
L 349.290158 286.888329 
L 349.52222 281.546136 
L 349.754282 281.794135 
L 350.218405 284.462202 
L 350.450467 288.13023 
L 350.682529 288.680184 
L 350.914591 281.388974 
L 351.146653 280.362575 
L 351.378715 287.578942 
L 351.610777 289.429195 
L 352.0749 281.664302 
L 352.306962 286.181506 
L 352.539024 285.006654 
L 352.771086 284.638706 
L 353.003148 287.00433 
L 353.467271 284.773176 
L 353.931395 284.701305 
L 354.163457 284.847528 
L 354.395519 285.405021 
L 354.859643 286.868601 
L 355.091704 286.753034 
L 355.323766 287.111251 
L 355.555828 283.36498 
L 355.78789 284.804747 
L 356.019952 284.964231 
L 356.252014 287.526938 
L 356.484076 285.723462 
L 356.716138 286.906184 
L 356.948199 284.229397 
L 357.180261 287.544643 
L 357.412323 283.670474 
L 357.644385 282.97582 
L 357.876447 282.84962 
L 358.108509 285.872048 
L 358.340571 287.072802 
L 358.572632 280.810528 
L 358.804694 280.074285 
L 359.036756 289.397082 
L 359.268818 284.691309 
L 359.50088 285.526908 
L 359.732942 281.576321 
L 359.965004 288.966334 
L 360.197065 284.151196 
L 360.429127 283.543495 
L 360.661189 286.654802 
L 360.893251 284.944063 
L 361.357375 283.622475 
L 361.821498 283.939029 
L 362.981808 289.897289 
L 363.21387 284.386237 
L 363.445932 285.488546 
L 363.677993 284.349538 
L 363.910055 287.310128 
L 364.374179 284.39892 
L 364.606241 284.728193 
L 364.838303 283.309446 
L 365.302426 282.155745 
L 365.534488 287.416859 
L 365.76655 285.100302 
L 365.998612 287.088621 
L 366.230674 287.355618 
L 366.462736 279.222993 
L 366.694798 277.906155 
L 366.926859 286.204892 
L 367.158921 280.508806 
L 367.390983 284.119472 
L 367.623045 277.39978 
L 367.855107 283.056587 
L 368.087169 282.466867 
L 368.319231 286.453257 
L 368.551292 283.444153 
L 368.783354 283.982548 
L 369.015416 283.338258 
L 369.247478 283.941225 
L 369.47954 283.606208 
L 369.711602 284.396659 
L 370.407787 288.898654 
L 370.639849 288.659369 
L 370.871911 284.069764 
L 371.336035 284.470521 
L 371.800159 286.173361 
L 372.03222 285.43995 
L 372.264282 286.266385 
L 372.496344 282.050589 
L 372.728406 283.651488 
L 372.960468 282.018436 
L 373.19253 287.249347 
L 373.424592 287.014682 
L 373.656653 287.713008 
L 373.888715 286.051815 
L 374.120777 278.731847 
L 374.352839 278.086998 
L 374.584901 282.484358 
L 374.816963 275.923143 
L 375.049025 283.111173 
L 375.281086 276.324887 
L 375.513148 282.172481 
L 375.74521 278.244013 
L 375.977272 282.040514 
L 376.209334 283.130021 
L 376.673458 281.453945 
L 377.833767 286.273401 
L 378.065829 287.746056 
L 378.529953 283.874404 
L 378.762014 284.330273 
L 378.994076 286.186398 
L 379.226138 284.240414 
L 379.4582 284.879505 
L 379.690262 281.819959 
L 379.922324 285.373904 
L 380.154386 280.927539 
L 380.386447 279.936057 
L 380.618509 282.170927 
L 380.850571 285.921095 
L 381.082633 282.775448 
L 381.314695 283.074314 
L 381.546757 282.977436 
L 381.778819 282.198241 
L 382.01088 276.972888 
L 382.242942 276.408734 
L 382.475004 274.85045 
L 382.707066 278.893878 
L 382.939128 275.665946 
L 383.17119 281.6187 
L 383.403252 280.043858 
L 383.635314 283.243304 
L 383.867375 284.636988 
L 384.331499 282.431667 
L 384.563561 282.500225 
L 384.795623 283.175728 
L 385.259747 285.963446 
L 385.491808 286.475961 
L 385.72387 287.906654 
L 385.955932 284.511272 
L 386.187994 283.431612 
L 386.420056 286.33065 
L 386.652118 285.93057 
L 386.88418 284.548976 
L 387.116241 287.480275 
L 387.348303 285.123418 
L 387.580365 284.622891 
L 388.044489 281.820829 
L 388.276551 286.165766 
L 388.508613 285.905027 
L 388.740675 286.282141 
L 388.972736 284.694616 
L 389.204798 284.09261 
L 389.43686 283.980597 
L 389.668922 277.797414 
L 389.900984 276.983355 
L 390.133046 272.815452 
L 390.365108 279.682349 
L 390.597169 276.827447 
L 390.829231 282.058213 
L 391.061293 279.810197 
L 391.293355 283.799394 
L 391.525417 283.790893 
L 391.989541 281.402197 
L 392.221602 282.576673 
L 392.453664 282.0815 
L 392.685726 283.624302 
L 392.917788 286.720764 
L 393.14985 287.350172 
L 393.381912 288.828872 
L 393.613974 287.115869 
L 393.846035 283.188529 
L 394.078097 283.288392 
L 394.310159 285.661551 
L 394.542221 284.717269 
L 394.774283 287.245063 
L 395.006345 282.920954 
L 395.238407 286.137651 
L 395.470469 281.786286 
L 395.70253 282.42019 
L 395.934592 285.990181 
L 396.166654 285.276645 
L 396.398716 285.13464 
L 397.094902 282.31956 
L 397.326963 278.347019 
L 397.559025 276.520131 
L 397.791087 269.798143 
L 398.023149 279.420785 
L 398.255211 277.967592 
L 398.487273 280.023992 
L 398.487273 280.023992 
" style="fill:none;stroke:#1f77b4;stroke-linecap:square;stroke-width:1.5;"/>
   </g>
   <g id="line2d_17">
    <path clip-path="url(#pdeb7547c12)" d="M 73.832727 132.060475 
L 74.296851 128.790354 
L 74.528913 127.399172 
L 74.760975 122.313376 
L 74.993037 124.278289 
L 75.225098 122.135074 
L 75.45716 126.40012 
L 75.689222 114.470035 
L 75.921284 110.553204 
L 76.153346 111.330432 
L 76.385408 110.819085 
L 76.61747 110.648895 
L 76.849531 117.704634 
L 77.081593 108.543815 
L 77.313655 105.184562 
L 77.545717 118.917274 
L 77.777779 120.513873 
L 78.009841 114.761183 
L 78.241903 126.10496 
L 78.473965 124.158602 
L 78.706026 141.725889 
L 78.938088 127.24714 
L 79.17015 133.223876 
L 79.402212 134.537434 
L 79.634274 138.191549 
L 79.866336 144.210853 
L 80.098398 141.930526 
L 80.562521 147.328574 
L 80.794583 149.698654 
L 81.026645 150.696819 
L 81.258707 150.820594 
L 81.490769 151.404025 
L 81.722831 148.861183 
L 81.954892 147.921634 
L 82.186954 143.299525 
L 82.88314 136.202522 
L 83.347264 127.196541 
L 83.579325 122.998433 
L 83.811387 126.833332 
L 84.043449 118.654095 
L 84.275511 121.559139 
L 84.507573 121.786295 
L 84.739635 123.343763 
L 84.971697 121.184547 
L 85.203759 125.093005 
L 85.43582 120.163171 
L 85.899944 142.250779 
L 86.364068 130.310296 
L 86.59613 118.640649 
L 86.828192 143.210157 
L 87.060253 135.253128 
L 87.292315 118.450567 
L 87.524377 151.580678 
L 87.756439 157.38589 
L 87.988501 159.233344 
L 88.220563 164.356428 
L 88.452625 159.295237 
L 88.684686 159.235849 
L 88.916748 158.313269 
L 89.14881 153.483912 
L 89.380872 154.492046 
L 89.612934 150.690108 
L 89.844996 149.66719 
L 90.077058 145.374487 
L 90.30912 145.889003 
L 90.541181 132.230868 
L 90.773243 137.632207 
L 91.005305 126.876473 
L 91.237367 132.093185 
L 91.469429 117.176207 
L 91.701491 131.590006 
L 91.933553 119.252552 
L 92.165614 142.886014 
L 92.397676 118.861097 
L 92.629738 119.952095 
L 92.8618 126.789005 
L 93.093862 119.821172 
L 93.325924 131.687643 
L 93.557986 119.400615 
L 94.022109 132.638776 
L 94.254171 113.031209 
L 94.486233 127.136504 
L 94.718295 119.729098 
L 94.950357 151.542466 
L 95.182419 132.428082 
L 95.646542 162.008136 
L 95.878604 151.053108 
L 96.110666 157.126819 
L 96.342728 138.821159 
L 96.57479 158.669234 
L 96.806852 153.298913 
L 97.038914 156.11465 
L 97.503037 144.966189 
L 97.735099 147.579391 
L 97.967161 143.724076 
L 98.199223 147.656807 
L 98.431285 136.661055 
L 98.663347 135.645616 
L 98.895408 124.28741 
L 99.12747 138.33398 
L 99.591594 124.348186 
L 99.823656 134.782037 
L 100.055718 118.893236 
L 100.28778 128.451428 
L 100.751903 116.332376 
L 100.983965 132.450553 
L 101.216027 133.238163 
L 101.448089 111.457276 
L 101.680151 128.196166 
L 101.912213 98.612345 
L 102.144274 137.291441 
L 102.608398 150.509214 
L 102.84046 134.364849 
L 103.072522 154.039923 
L 103.304584 150.489856 
L 103.536646 129.273461 
L 104.000769 176.127917 
L 104.232831 151.659331 
L 104.464893 139.103003 
L 104.696955 155.927743 
L 104.929017 152.677211 
L 105.161079 154.681029 
L 105.393141 153.971748 
L 105.625202 152.086399 
L 105.857264 158.022492 
L 106.321388 129.805418 
L 106.55345 138.594204 
L 106.785512 142.472572 
L 107.017574 132.399419 
L 107.249635 129.71497 
L 107.481697 123.381261 
L 107.713759 142.787022 
L 107.945821 117.080269 
L 108.409945 128.030161 
L 108.642007 104.018696 
L 108.874068 125.609859 
L 109.10613 129.850496 
L 109.338192 124.10139 
L 109.570254 101.660697 
L 109.802316 149.66473 
L 110.034378 114.240668 
L 110.26644 99.635753 
L 110.730563 134.242336 
L 110.962625 128.628226 
L 111.194687 139.987867 
L 111.426749 108.028829 
L 111.658811 130.735393 
L 111.890873 135.50048 
L 112.122935 132.12509 
L 112.354996 150.665643 
L 112.587058 154.721775 
L 112.81912 162.202839 
L 113.051182 137.477776 
L 113.283244 154.410784 
L 113.515306 135.089109 
L 113.747368 144.956571 
L 114.211491 125.527493 
L 114.443553 142.258992 
L 114.675615 144.802981 
L 115.139739 119.143819 
L 115.371801 120.829066 
L 115.603862 111.320002 
L 115.835924 130.331128 
L 116.300048 102.682528 
L 116.764172 109.229981 
L 116.996234 141.802851 
L 117.460357 113.347992 
L 117.692419 119.256415 
L 117.924481 143.670791 
L 118.156543 125.104733 
L 118.388605 163.080517 
L 118.620667 141.715476 
L 118.852729 141.594238 
L 119.08479 102.266076 
L 119.316852 114.156062 
L 119.780976 157.92646 
L 120.013038 143.246001 
L 120.2451 155.158611 
L 120.477162 154.289594 
L 120.709223 151.085734 
L 120.941285 150.450477 
L 121.637471 136.303637 
L 121.869533 127.462319 
L 122.101595 136.406773 
L 122.333657 133.579467 
L 122.79778 112.302758 
L 123.029842 117.680233 
L 123.261904 125.732181 
L 123.493966 127.914834 
L 123.726028 105.721121 
L 123.95809 115.82862 
L 124.190151 118.265066 
L 124.422213 145.843578 
L 124.654275 119.153407 
L 124.886337 117.143729 
L 125.118399 125.946264 
L 125.350461 119.334798 
L 125.582523 127.151063 
L 125.814584 115.133621 
L 126.278708 148.922344 
L 126.51077 164.463414 
L 126.742832 100.785433 
L 126.974894 142.997985 
L 127.206956 160.761415 
L 127.439017 122.143227 
L 127.671079 122.274324 
L 127.903141 148.928771 
L 128.135203 135.85378 
L 128.367265 152.738832 
L 128.599327 119.371416 
L 128.831389 144.325358 
L 129.063451 137.410398 
L 129.295512 166.167736 
L 129.527574 142.596453 
L 129.991698 124.936251 
L 130.22376 123.348269 
L 130.455822 117.387697 
L 130.687884 133.155703 
L 130.919945 122.631751 
L 131.152007 125.041557 
L 131.384069 106.37025 
L 131.616131 116.602973 
L 132.080255 88.429809 
L 132.312317 108.71846 
L 132.544378 114.384025 
L 132.77644 110.498557 
L 133.008502 125.712599 
L 133.240564 125.435482 
L 133.472626 128.826803 
L 133.704688 111.14575 
L 133.93675 127.807818 
L 134.168811 167.094507 
L 134.400873 100.645112 
L 134.632935 127.265749 
L 134.864997 133.246203 
L 135.097059 115.204923 
L 135.329121 154.017609 
L 135.561183 150.09134 
L 135.793245 165.317171 
L 136.025306 146.854185 
L 136.257368 148.072304 
L 136.48943 147.526724 
L 136.721492 140.281974 
L 136.953554 157.939764 
L 137.185616 138.883391 
L 137.417678 131.01213 
L 137.649739 129.23785 
L 137.881801 120.800836 
L 138.113863 128.225083 
L 138.345925 122.194757 
L 138.577987 130.182795 
L 138.810049 118.75746 
L 139.042111 94.348519 
L 139.274172 116.898508 
L 139.506234 109.539764 
L 139.738296 109.668796 
L 139.970358 111.037739 
L 140.20242 120.97322 
L 140.434482 77.34364 
L 140.898605 126.83282 
L 141.130667 131.419609 
L 141.362729 109.666658 
L 141.594791 129.925867 
L 141.826853 128.419386 
L 142.058915 103.1325 
L 142.523039 160.436808 
L 142.7551 148.619117 
L 142.987162 157.948952 
L 143.219224 142.000679 
L 143.451286 145.31954 
L 143.683348 173.777647 
L 143.91541 126.99095 
L 144.147472 144.812556 
L 144.379533 142.133119 
L 144.611595 164.710126 
L 145.075719 122.837182 
L 145.307781 134.475399 
L 145.539843 117.229613 
L 145.771905 120.817679 
L 146.003966 121.920641 
L 146.236028 101.681065 
L 146.46809 118.616728 
L 146.700152 83.912554 
L 146.932214 119.154033 
L 147.164276 107.474245 
L 147.396338 110.297923 
L 147.6284 95.017438 
L 147.860461 112.48278 
L 148.092523 99.682943 
L 148.324585 125.964784 
L 148.556647 125.168436 
L 148.788709 112.534262 
L 149.020771 121.475402 
L 149.252833 140.473826 
L 149.716956 121.809239 
L 149.949018 115.131714 
L 150.413142 153.461488 
L 150.645204 155.587435 
L 150.877266 118.738474 
L 151.109327 131.264189 
L 151.341389 150.915667 
L 151.573451 131.204874 
L 151.805513 160.779047 
L 152.037575 140.937546 
L 152.269637 166.952356 
L 152.73376 110.962668 
L 152.965822 132.151998 
L 153.197884 121.255447 
L 153.429946 128.243678 
L 153.662008 145.305642 
L 153.89407 123.829272 
L 154.126132 114.896862 
L 154.358194 118.867197 
L 154.590255 103.05758 
L 154.822317 110.855441 
L 155.054379 99.819457 
L 155.286441 108.915702 
L 155.518503 138.789521 
L 155.750565 117.283702 
L 155.982627 128.640994 
L 156.214688 126.178453 
L 156.44675 117.123558 
L 156.678812 126.660733 
L 156.910874 163.314943 
L 157.142936 124.989336 
L 157.839121 139.744091 
L 158.071183 133.301455 
L 158.303245 154.92503 
L 158.535307 144.024631 
L 158.767369 147.287613 
L 158.999431 125.515742 
L 159.231493 151.725913 
L 159.463554 151.684393 
L 159.695616 136.355529 
L 159.927678 161.392543 
L 160.391802 131.848374 
L 160.623864 129.679558 
L 160.855926 125.926634 
L 161.087988 138.7372 
L 161.552111 115.836656 
L 161.784173 125.613517 
L 162.016235 118.307081 
L 162.248297 103.479801 
L 162.480359 111.333624 
L 162.712421 103.79329 
L 162.944482 106.611576 
L 163.176544 138.051406 
L 163.408606 126.962703 
L 163.640668 91.753555 
L 163.87273 117.874381 
L 164.104792 91.203522 
L 164.568915 147.041446 
L 164.800977 136.270653 
L 165.033039 99.011969 
L 165.265101 132.224426 
L 165.497163 128.555076 
L 165.729225 111.253586 
L 165.961287 146.645718 
L 166.193348 140.874684 
L 166.42541 148.522145 
L 166.657472 146.271887 
L 166.889534 125.596758 
L 167.121596 156.957986 
L 167.353658 116.450787 
L 167.58572 137.903536 
L 167.817782 148.822205 
L 168.049843 130.983781 
L 168.281905 126.164543 
L 168.513967 110.609936 
L 168.746029 135.35857 
L 168.978091 122.381921 
L 169.210153 131.165865 
L 169.442215 123.326684 
L 169.674276 108.234481 
L 170.1384 94.55743 
L 170.370462 113.646563 
L 170.602524 110.76053 
L 170.834586 139.444745 
L 171.066648 137.390435 
L 171.298709 106.771846 
L 171.530771 118.383516 
L 171.762833 116.438061 
L 171.994895 129.575052 
L 172.226957 136.41345 
L 172.691081 157.383286 
L 172.923143 129.071165 
L 173.155204 133.081229 
L 173.387266 128.15113 
L 173.85139 168.315495 
L 174.083452 136.040367 
L 174.315514 126.116569 
L 174.547576 149.902399 
L 174.779637 148.858864 
L 175.011699 140.219158 
L 175.243761 166.918973 
L 175.707885 131.667626 
L 175.939947 144.60912 
L 176.172009 115.297964 
L 176.40407 136.55209 
L 176.636132 125.772452 
L 176.868194 133.392171 
L 177.100256 124.67584 
L 177.332318 102.890568 
L 177.56438 130.613875 
L 178.028503 101.848869 
L 178.260565 110.019881 
L 178.492627 139.440607 
L 178.956751 96.632249 
L 179.188813 105.265975 
L 179.420875 150.394908 
L 179.652937 123.339942 
L 179.884998 134.270485 
L 180.11706 137.445183 
L 180.349122 133.838715 
L 180.581184 113.639844 
L 181.045308 157.758725 
L 181.27737 154.069519 
L 181.509431 119.927683 
L 181.741493 128.939947 
L 181.973555 128.222959 
L 182.205617 152.530304 
L 182.437679 158.608988 
L 182.669741 123.768118 
L 182.901803 149.18259 
L 183.133864 147.751022 
L 183.365926 133.593275 
L 183.597988 135.308849 
L 183.83005 135.320881 
L 184.062112 114.438206 
L 184.294174 121.780191 
L 184.526236 118.279384 
L 184.758297 133.876373 
L 184.990359 111.333577 
L 185.222421 118.421077 
L 185.454483 96.405586 
L 185.686545 108.274528 
L 185.918607 113.769608 
L 186.150669 115.505035 
L 186.382731 121.970567 
L 186.614792 114.606634 
L 187.078916 142.145645 
L 187.54304 110.057828 
L 187.775102 145.646782 
L 188.007164 147.927988 
L 188.239225 138.830268 
L 188.471287 144.097716 
L 188.703349 161.982666 
L 188.935411 118.741241 
L 189.399535 160.524201 
L 189.631597 122.503496 
L 189.863658 123.836889 
L 190.09572 154.372491 
L 190.327782 146.752932 
L 190.791906 105.116648 
L 191.023968 145.178405 
L 191.25603 165.291823 
L 191.488091 128.088266 
L 191.720153 118.986744 
L 191.952215 137.408616 
L 192.184277 129.450799 
L 192.416339 144.789416 
L 192.880463 102.295415 
L 193.112525 114.793439 
L 193.344586 114.490096 
L 193.576648 113.994164 
L 193.80871 114.155917 
L 194.040772 120.792228 
L 194.272834 117.506917 
L 194.504896 128.989246 
L 194.736958 123.68707 
L 194.969019 123.638907 
L 195.201081 121.051673 
L 195.433143 131.843603 
L 195.665205 98.585319 
L 195.897267 105.943379 
L 196.361391 150.05988 
L 196.593452 131.24813 
L 196.825514 161.72924 
L 197.057576 159.544143 
L 197.5217 139.497274 
L 197.753762 115.961062 
L 197.985824 145.054037 
L 198.217886 145.994324 
L 198.449947 106.517465 
L 198.682009 146.837479 
L 199.378195 121.290469 
L 199.610257 134.992274 
L 199.842319 124.75795 
L 200.07438 120.482195 
L 200.306442 106.304176 
L 200.538504 117.92828 
L 200.770566 83.202759 
L 201.002628 112.775095 
L 201.23469 111.716766 
L 201.466752 109.755244 
L 201.698813 116.558463 
L 202.162937 106.369613 
L 202.394999 135.651762 
L 202.859123 108.251519 
L 203.091185 136.683856 
L 203.323246 94.277806 
L 203.555308 105.919179 
L 203.78737 137.325846 
L 204.019432 150.381484 
L 204.251494 146.653804 
L 204.483556 139.453675 
L 204.715618 170.961512 
L 204.94768 149.651382 
L 205.179741 146.390614 
L 205.411803 147.160665 
L 205.643865 151.011265 
L 205.875927 139.372254 
L 206.107989 104.561405 
L 206.340051 145.059935 
L 206.572113 126.757887 
L 206.804174 130.586046 
L 207.036236 127.490888 
L 207.268298 131.220428 
L 207.50036 123.073447 
L 207.732422 100.909004 
L 207.964484 118.843046 
L 208.196546 109.150358 
L 208.428607 111.637608 
L 208.660669 110.748291 
L 208.892731 106.719018 
L 209.356855 110.253563 
L 209.588917 106.609017 
L 209.820979 133.820089 
L 210.05304 131.010022 
L 210.517164 107.476086 
L 210.749226 137.327764 
L 211.21335 105.11341 
L 211.445412 139.476281 
L 211.909535 155.745457 
L 212.141597 151.366427 
L 212.373659 159.824823 
L 212.605721 160.130005 
L 213.069845 118.755061 
L 213.301907 129.246852 
L 213.533968 109.693717 
L 213.76603 138.977002 
L 213.998092 114.719702 
L 214.230154 144.752717 
L 214.462216 140.675514 
L 214.694278 123.890834 
L 214.92634 125.021526 
L 215.158401 120.460538 
L 215.390463 119.732707 
L 215.622525 125.967091 
L 215.854587 121.380033 
L 216.086649 124.091477 
L 216.318711 84.109741 
L 216.550773 95.367083 
L 216.782834 126.352007 
L 217.014896 122.544704 
L 217.47902 108.973386 
L 217.711082 142.539742 
L 218.175206 94.55592 
L 218.407268 119.965765 
L 218.639329 96.885185 
L 218.871391 105.321842 
L 219.103453 140.505666 
L 219.335515 107.467848 
L 219.567577 140.084863 
L 219.799639 148.328195 
L 220.031701 163.101852 
L 220.263762 161.084621 
L 220.495824 168.616209 
L 220.727886 114.911817 
L 220.959948 161.875862 
L 221.656134 114.356433 
L 221.888195 135.634788 
L 222.120257 146.222796 
L 222.352319 126.011565 
L 222.584381 116.935485 
L 222.816443 115.888023 
L 223.048505 91.2846 
L 223.512629 128.96979 
L 223.74469 132.013772 
L 223.976752 103.616517 
L 224.208814 105.216794 
L 224.672938 120.799506 
L 224.905 115.090653 
L 225.137062 117.194086 
L 225.369123 137.03819 
L 225.833247 104.314565 
L 226.065309 177.517256 
L 226.297371 110.200714 
L 226.529433 108.306902 
L 226.761495 136.606183 
L 226.993556 109.101928 
L 227.225618 153.735977 
L 227.45768 167.490302 
L 227.689742 161.122682 
L 227.921804 161.895616 
L 228.153866 154.373489 
L 228.385928 136.395846 
L 228.617989 157.358609 
L 228.850051 158.643446 
L 229.082113 107.802951 
L 229.314175 123.341162 
L 229.546237 119.475328 
L 229.778299 126.401338 
L 230.010361 128.951761 
L 230.242423 128.329377 
L 230.474484 115.173133 
L 230.706546 111.339923 
L 230.938608 121.230988 
L 231.17067 79.728603 
L 231.402732 100.323095 
L 231.634794 103.64438 
L 231.866856 111.694377 
L 232.098917 137.707348 
L 232.563041 95.940382 
L 232.795103 117.580283 
L 233.027165 110.764518 
L 233.259227 113.16499 
L 233.491289 95.835718 
L 233.72335 120.5055 
L 233.955412 98.132492 
L 234.187474 116.371344 
L 234.419536 110.875395 
L 234.651598 109.466679 
L 234.88366 151.123692 
L 235.115722 156.762671 
L 235.347783 150.343515 
L 235.579845 118.912796 
L 235.811907 160.623797 
L 236.043969 126.789736 
L 236.276031 114.342146 
L 236.508093 144.331926 
L 236.740155 127.362416 
L 236.972217 137.921241 
L 237.204278 129.805323 
L 237.43634 129.73656 
L 237.668402 127.636273 
L 237.900464 131.504594 
L 238.132526 127.282854 
L 238.364588 131.052287 
L 238.828711 94.190779 
L 239.060773 117.181749 
L 239.292835 85.472212 
L 239.524897 91.736351 
L 239.989021 121.023886 
L 240.221083 108.425578 
L 240.453144 137.525701 
L 240.685206 111.538611 
L 240.917268 114.957143 
L 241.14933 112.563795 
L 241.381392 116.769995 
L 241.613454 89.420853 
L 241.845516 107.923895 
L 242.077577 140.428895 
L 242.309639 142.45861 
L 242.541701 126.36389 
L 242.773763 155.966085 
L 243.005825 153.1701 
L 243.237887 171.153861 
L 243.469949 143.421999 
L 243.702011 167.676926 
L 243.934072 166.735694 
L 244.166134 127.998649 
L 244.398196 138.103338 
L 244.630258 104.627375 
L 245.094382 146.532969 
L 245.326444 124.766805 
L 245.558505 139.362089 
L 246.022629 105.977813 
L 246.254691 106.902321 
L 246.486753 110.163499 
L 246.718815 116.884128 
L 246.950877 88.488698 
L 247.182938 101.099715 
L 247.415 97.339907 
L 247.879124 108.358805 
L 248.111186 99.996929 
L 248.343248 115.650228 
L 248.57531 114.369954 
L 248.807371 144.676599 
L 249.271495 96.689997 
L 249.503557 141.243187 
L 249.735619 113.748964 
L 249.967681 152.628736 
L 250.199743 168.819489 
L 250.431805 132.186306 
L 250.663866 147.737045 
L 250.895928 146.616733 
L 251.12799 154.635397 
L 251.360052 156.461193 
L 251.592114 156.350533 
L 252.056238 125.683035 
L 252.288299 127.30648 
L 252.520361 152.740266 
L 252.752423 121.593302 
L 252.984485 113.166175 
L 253.216547 125.339212 
L 253.448609 128.215016 
L 254.144794 89.63118 
L 254.376856 114.46072 
L 254.608918 84.342535 
L 254.84098 91.096186 
L 255.073042 104.379281 
L 255.305104 130.698899 
L 255.537166 97.276814 
L 255.769227 110.830712 
L 256.001289 110.794572 
L 256.233351 119.402434 
L 256.465413 136.205974 
L 256.697475 126.163397 
L 256.929537 100.637865 
L 257.161599 149.470694 
L 257.39366 108.557942 
L 257.625722 155.758493 
L 257.857784 115.354507 
L 258.089846 153.537628 
L 258.55397 116.818965 
L 258.786032 183.52647 
L 259.018093 148.469969 
L 259.250155 145.291144 
L 259.482217 137.630921 
L 259.714279 150.42376 
L 259.946341 110.438493 
L 260.178403 150.602414 
L 260.874588 103.765975 
L 261.338712 117.201371 
L 261.570774 111.582847 
L 261.802836 75.974193 
L 262.034898 109.541884 
L 262.26696 104.93305 
L 262.499021 86.029788 
L 262.963145 118.968705 
L 263.195207 83.710121 
L 263.427269 109.720182 
L 263.659331 100.050411 
L 263.891393 112.159587 
L 264.123454 133.905154 
L 264.355516 122.79588 
L 264.587578 95.591445 
L 264.81964 98.460436 
L 265.051702 128.437076 
L 265.283764 134.047907 
L 265.747887 157.965271 
L 265.979949 130.36804 
L 266.212011 132.580463 
L 266.444073 146.461441 
L 266.676135 174.273214 
L 266.908197 140.935044 
L 267.140259 140.878893 
L 267.37232 152.361599 
L 267.604382 123.865315 
L 267.836444 140.680448 
L 268.300568 110.164757 
L 268.53263 109.232326 
L 268.764692 146.852678 
L 268.996754 111.294017 
L 269.228815 111.414817 
L 269.460877 96.610523 
L 269.692939 105.89748 
L 269.925001 92.370515 
L 270.157063 93.666289 
L 270.389125 103.591576 
L 270.621187 122.910449 
L 270.853248 106.674646 
L 271.08531 115.493012 
L 271.317372 105.896891 
L 271.549434 113.222043 
L 271.781496 93.268098 
L 272.013558 117.850672 
L 272.24562 99.827038 
L 272.477681 142.650575 
L 272.709743 114.97182 
L 273.173867 174.344564 
L 273.405929 123.517571 
L 273.637991 114.562411 
L 273.870053 128.46164 
L 274.102114 120.26746 
L 274.334176 175.190434 
L 274.566238 115.118479 
L 274.7983 125.187371 
L 275.030362 145.194344 
L 275.262424 131.518547 
L 276.190671 109.265969 
L 276.422733 123.747622 
L 276.654795 129.489824 
L 276.886857 114.722711 
L 277.118919 92.004809 
L 277.350981 106.9658 
L 277.583042 93.016669 
L 277.815104 104.437141 
L 278.047166 105.607464 
L 278.279228 119.985768 
L 278.51129 104.851608 
L 278.743352 136.644095 
L 278.975414 120.944625 
L 279.207475 116.168977 
L 279.439537 94.682533 
L 279.671599 118.638029 
L 279.903661 125.261445 
L 280.135723 162.642364 
L 280.367785 100.902658 
L 280.599847 159.286071 
L 280.831909 155.04919 
L 281.06397 153.463132 
L 281.296032 147.096269 
L 281.528094 121.247967 
L 281.992218 164.070181 
L 282.22428 136.810545 
L 282.456342 124.163479 
L 282.688403 153.948786 
L 282.920465 132.590626 
L 283.152527 124.831169 
L 283.384589 131.773642 
L 283.616651 112.359015 
L 283.848713 112.746374 
L 284.080775 127.92726 
L 284.312836 127.017846 
L 284.77696 95.63922 
L 285.009022 105.947794 
L 285.241084 109.12662 
L 285.473146 96.886298 
L 285.937269 127.064137 
L 286.169331 99.358787 
L 286.401393 112.30324 
L 286.633455 141.701597 
L 287.097579 85.036155 
L 287.329641 187.871367 
L 287.561703 96.812095 
L 287.793764 157.197998 
L 288.025826 122.227719 
L 288.257888 146.499446 
L 288.48995 157.242885 
L 288.954074 134.64063 
L 289.186136 133.598973 
L 289.418197 147.508217 
L 289.650259 182.563438 
L 290.114383 107.287387 
L 290.346445 131.60644 
L 290.578507 124.720693 
L 290.810569 140.743109 
L 291.274692 110.530645 
L 291.506754 106.598657 
L 291.738816 121.805542 
L 291.970878 100.855498 
L 292.20294 116.439571 
L 292.435002 93.536711 
L 292.667063 109.500711 
L 292.899125 103.436816 
L 293.131187 102.75227 
L 293.363249 84.766528 
L 293.595311 117.104382 
L 293.827373 85.113356 
L 294.059435 127.300298 
L 294.291497 112.132614 
L 294.523558 120.496525 
L 294.75562 87.24446 
L 294.987682 130.190933 
L 295.219744 97.447977 
L 295.451806 150.415421 
L 295.683868 151.390041 
L 295.91593 178.852068 
L 296.147991 141.881047 
L 296.380053 136.428847 
L 296.844177 140.07811 
L 297.076239 134.765252 
L 297.308301 137.302211 
L 297.540363 171.357952 
L 297.772424 132.076278 
L 298.004486 143.0689 
L 298.236548 114.896804 
L 298.700672 137.543876 
L 299.164796 112.49585 
L 299.396857 109.137978 
L 299.860981 111.207517 
L 300.093043 101.163283 
L 300.325105 99.216876 
L 300.557167 98.453521 
L 300.789229 99.64616 
L 301.021291 87.545181 
L 301.253352 117.376384 
L 301.485414 87.943702 
L 301.717476 113.423884 
L 301.949538 109.632631 
L 302.645724 123.56626 
L 302.877785 106.669297 
L 303.109847 160.44651 
L 303.341909 96.566346 
L 303.573971 151.291888 
L 304.038095 126.877477 
L 304.270157 135.53654 
L 304.502218 132.748055 
L 304.73428 133.466486 
L 305.198404 168.335815 
L 305.430466 126.405053 
L 305.662528 153.125995 
L 305.89459 112.162074 
L 306.126652 144.024225 
L 306.358713 138.274401 
L 306.590775 113.340521 
L 306.822837 110.077927 
L 307.054899 128.520665 
L 307.286961 128.201674 
L 307.519023 119.242486 
L 307.751085 98.293057 
L 308.215208 104.880187 
L 308.44727 99.210988 
L 308.679332 84.160948 
L 308.911394 112.993281 
L 309.143456 71.000714 
L 309.375518 109.07039 
L 309.607579 105.149713 
L 309.839641 112.5125 
L 310.071703 80.186882 
L 310.303765 149.21022 
L 310.767889 97.158309 
L 310.999951 161.054153 
L 311.696136 118.631149 
L 311.928198 132.285073 
L 312.16026 131.59491 
L 312.392322 131.965924 
L 312.624384 155.797678 
L 312.856446 154.937034 
L 313.088507 160.2748 
L 313.320569 134.29261 
L 313.552631 123.99196 
L 313.784693 134.232527 
L 314.016755 117.406707 
L 314.248817 119.094385 
L 314.480879 105.346393 
L 314.71294 151.484935 
L 314.945002 103.449432 
L 315.177064 103.576842 
L 315.409126 91.634425 
L 315.641188 115.013584 
L 316.105312 82.125476 
L 316.337373 94.553609 
L 316.569435 117.993317 
L 316.801497 114.132714 
L 317.265621 75.435157 
L 317.497683 110.057657 
L 317.729745 91.176987 
L 317.961806 126.319618 
L 318.193868 95.558806 
L 318.42593 149.964887 
L 318.657992 152.631801 
L 318.890054 136.819072 
L 319.122116 138.712222 
L 319.354178 131.465559 
L 319.58624 137.994342 
L 319.818301 110.557198 
L 320.050363 138.61953 
L 320.282425 141.600374 
L 320.514487 157.522977 
L 320.746549 151.957803 
L 320.978611 141.40527 
L 321.210673 163.940069 
L 321.442734 85.945585 
L 321.906858 132.927062 
L 322.13892 105.455157 
L 322.370982 112.989588 
L 322.603044 106.402061 
L 322.835106 96.227145 
L 323.067167 74.793885 
L 323.299229 86.328457 
L 323.531291 80.280003 
L 323.763353 92.299271 
L 324.227477 73.720508 
L 324.6916 123.875101 
L 324.923662 104.682794 
L 325.155724 114.384338 
L 325.387786 97.019703 
L 325.619848 118.138065 
L 325.85191 103.121551 
L 326.083972 148.344005 
L 326.316034 130.267729 
L 326.548095 145.780109 
L 326.780157 146.054061 
L 327.012219 136.656595 
L 327.244281 134.826874 
L 327.476343 109.026507 
L 327.708405 138.719984 
L 327.940467 130.01558 
L 328.172528 178.325748 
L 328.40459 157.575824 
L 328.636652 95.904501 
L 328.868714 133.168467 
L 329.100776 106.542794 
L 329.332838 131.231644 
L 329.796961 105.538828 
L 330.029023 110.762483 
L 330.261085 94.681637 
L 330.493147 104.286138 
L 330.725209 86.128285 
L 330.957271 87.44571 
L 331.189333 78.796991 
L 331.421395 94.276207 
L 331.653456 80.784791 
L 332.349642 113.392358 
L 332.581704 77.7419 
L 332.813766 118.66107 
L 333.045828 116.936222 
L 333.277889 125.019739 
L 333.509951 88.95847 
L 333.742013 144.613601 
L 333.974075 152.98334 
L 334.206137 146.100084 
L 334.438199 159.016077 
L 334.670261 136.581809 
L 334.902322 133.554625 
L 335.134384 134.442622 
L 335.366446 105.471222 
L 335.598508 134.312503 
L 335.83057 138.901147 
L 336.062632 149.470396 
L 336.294694 101.049405 
L 336.526755 99.518184 
L 336.758817 95.941199 
L 336.990879 123.632962 
L 337.222941 115.634831 
L 337.455003 100.806639 
L 337.687065 116.011651 
L 337.919127 82.123108 
L 338.151189 97.000527 
L 338.38325 78.734595 
L 338.615312 77.540539 
L 339.079436 95.440191 
L 339.311498 89.910465 
L 339.54356 89.033401 
L 339.775622 103.074479 
L 340.007683 103.471061 
L 340.239745 101.214156 
L 340.471807 119.078296 
L 340.703869 117.266287 
L 340.935931 127.650119 
L 341.167993 90.724504 
L 341.400055 113.510201 
L 341.864178 188.237831 
L 342.09624 131.575987 
L 342.328302 135.373397 
L 342.560364 121.042699 
L 342.792426 123.036986 
L 343.024488 172.150458 
L 343.256549 133.370727 
L 343.488611 143.020369 
L 343.720673 111.199398 
L 343.952735 99.731246 
L 344.184797 120.853646 
L 344.416859 90.170631 
L 344.648921 99.715521 
L 344.880983 128.398529 
L 345.113044 102.553236 
L 345.345106 117.043796 
L 345.577168 97.68964 
L 345.80923 94.249728 
L 346.273354 76.530611 
L 346.505416 72.761152 
L 346.737477 82.583331 
L 346.969539 87.315443 
L 347.201601 87.486784 
L 347.433663 123.003229 
L 347.897787 104.18999 
L 348.129849 109.3944 
L 348.593972 129.245107 
L 348.826034 93.322319 
L 349.058096 110.965076 
L 349.290158 161.629098 
L 349.52222 172.790354 
L 349.754282 94.855794 
L 349.986343 133.62403 
L 350.218405 120.885745 
L 350.450467 122.687012 
L 350.682529 116.695245 
L 350.914591 134.964993 
L 351.146653 130.340021 
L 351.378715 141.327588 
L 351.610777 104.061403 
L 352.0749 84.250639 
L 352.306962 123.98349 
L 352.771086 100.425612 
L 353.003148 116.933806 
L 353.23521 102.491297 
L 353.467271 98.906969 
L 353.699333 82.323214 
L 354.395519 61.471198 
L 354.627581 87.659288 
L 354.859643 88.891227 
L 355.323766 113.875227 
L 355.555828 92.880509 
L 355.78789 106.224551 
L 356.019952 111.965291 
L 356.252014 125.775644 
L 356.484076 87.146224 
L 356.716138 132.868762 
L 356.948199 156.377497 
L 357.180261 137.902519 
L 357.412323 90.569573 
L 357.644385 119.035808 
L 357.876447 130.489304 
L 358.108509 134.50989 
L 358.340571 103.915305 
L 358.572632 131.885127 
L 358.804694 122.893957 
L 359.036756 139.228028 
L 359.268818 101.392887 
L 359.50088 118.836544 
L 359.732942 109.522 
L 359.965004 120.593498 
L 360.197065 113.337989 
L 360.429127 98.417063 
L 360.661189 108.781326 
L 360.893251 93.035234 
L 361.125313 92.840684 
L 361.357375 58.512002 
L 361.589437 82.158439 
L 361.821498 72.861976 
L 362.05356 76.928438 
L 362.285622 63.767381 
L 362.517684 78.005034 
L 362.749746 119.442615 
L 362.981808 77.550315 
L 363.21387 63.911734 
L 363.445932 94.509498 
L 363.677993 104.302096 
L 363.910055 137.699168 
L 364.142117 101.289714 
L 364.374179 151.616144 
L 364.606241 117.234663 
L 364.838303 136.205416 
L 365.070365 132.997291 
L 365.302426 81.51977 
L 365.534488 134.182379 
L 365.76655 105.049095 
L 365.998612 111.983858 
L 366.694798 166.771356 
L 366.926859 94.140111 
L 367.158921 116.47952 
L 367.390983 94.656704 
L 367.623045 117.997487 
L 368.319231 86.608515 
L 368.551292 82.19558 
L 368.783354 89.37435 
L 369.015416 82.794409 
L 369.247478 60.72873 
L 369.47954 122.783831 
L 369.711602 101.079496 
L 369.943664 147.404961 
L 370.175726 53.568 
L 370.407787 87.966965 
L 370.639849 103.901728 
L 370.871911 100.715723 
L 371.103973 121.313028 
L 371.336035 96.978366 
L 371.568097 121.618959 
L 371.800159 90.799248 
L 372.496344 128.793207 
L 372.728406 125.987115 
L 372.960468 94.436517 
L 373.19253 136.173377 
L 373.424592 132.056766 
L 373.656653 103.723144 
L 373.888715 132.416329 
L 374.120777 144.681006 
L 374.352839 149.909665 
L 374.584901 108.977006 
L 374.816963 106.752362 
L 375.049025 94.310687 
L 375.281086 118.246611 
L 376.209334 78.394808 
L 376.441396 84.433042 
L 376.673458 103.894313 
L 376.90552 78.7461 
L 377.137581 117.268243 
L 377.601705 137.961524 
L 377.833767 77.369376 
L 378.065829 83.523091 
L 378.297891 108.918374 
L 378.529953 73.047518 
L 378.762014 94.870952 
L 378.994076 104.771123 
L 379.226138 79.270914 
L 379.4582 117.749179 
L 379.690262 85.243919 
L 379.922324 102.770794 
L 380.154386 190.017587 
L 380.618509 100.49988 
L 380.850571 137.59652 
L 381.082633 133.228386 
L 381.314695 133.139396 
L 381.546757 132.719919 
L 381.778819 125.062555 
L 382.01088 141.018389 
L 382.242942 108.337345 
L 382.475004 141.446826 
L 382.707066 105.746525 
L 382.939128 126.762473 
L 383.403252 92.418087 
L 383.635314 87.647814 
L 383.867375 79.925581 
L 384.099437 83.614219 
L 384.331499 81.304335 
L 384.563561 77.39202 
L 384.795623 76.676863 
L 385.027685 120.910538 
L 385.259747 82.3173 
L 385.491808 122.009277 
L 385.72387 85.326884 
L 386.187994 100.710719 
L 386.420056 95.520467 
L 387.116241 119.801384 
L 387.348303 84.689201 
L 387.580365 114.980323 
L 387.812427 160.46102 
L 388.044489 148.683826 
L 388.276551 98.999323 
L 388.508613 134.396093 
L 388.972736 135.755056 
L 389.204798 131.316602 
L 389.43686 116.558107 
L 389.668922 131.388523 
L 389.900984 108.14626 
L 390.133046 143.50636 
L 390.365108 84.494386 
L 390.829231 117.841469 
L 391.061293 96.183464 
L 391.293355 94.584781 
L 391.525417 83.602743 
L 391.757479 103.285772 
L 391.989541 64.582679 
L 392.221602 66.759595 
L 392.453664 131.972228 
L 392.685726 131.446199 
L 392.917788 113.909846 
L 393.14985 71.292213 
L 393.381912 80.840074 
L 393.613974 97.445324 
L 393.846035 103.406242 
L 394.078097 89.828951 
L 394.310159 111.222344 
L 394.542221 95.006472 
L 394.774283 114.238032 
L 395.006345 76.836509 
L 395.470469 122.181207 
L 395.70253 124.595472 
L 395.934592 97.096987 
L 396.166654 133.296207 
L 396.398716 131.245678 
L 396.630778 133.029568 
L 396.86284 131.35918 
L 397.094902 145.617915 
L 397.326963 152.128186 
L 397.559025 94.606963 
L 397.791087 88.014117 
L 398.023149 99.821625 
L 398.255211 121.502156 
L 398.487273 107.966959 
L 398.487273 107.966959 
" style="fill:none;stroke:#ff7f0e;stroke-linecap:square;stroke-width:1.5;"/>
   </g>
   <g id="patch_3">
    <path d="M 57.6 307.584 
L 57.6 41.472 
" style="fill:none;stroke:#000000;stroke-linecap:square;stroke-linejoin:miter;stroke-width:0.8;"/>
   </g>
   <g id="patch_4">
    <path d="M 414.72 307.584 
L 414.72 41.472 
" style="fill:none;stroke:#000000;stroke-linecap:square;stroke-linejoin:miter;stroke-width:0.8;"/>
   </g>
   <g id="patch_5">
    <path d="M 57.6 307.584 
L 414.72 307.584 
" style="fill:none;stroke:#000000;stroke-linecap:square;stroke-linejoin:miter;stroke-width:0.8;"/>
   </g>
   <g id="patch_6">
    <path d="M 57.6 41.472 
L 414.72 41.472 
" style="fill:none;stroke:#000000;stroke-linecap:square;stroke-linejoin:miter;stroke-width:0.8;"/>
   </g>
  </g>
 </g>
 <defs>
  <clipPath id="pdeb7547c12">
   <rect height="266.112" width="357.12" x="57.6" y="41.472"/>
  </clipPath>
 </defs>
</svg>
