<?xml version="1.0" encoding="utf-8" standalone="no"?>
<!DOCTYPE svg PUBLIC "-//W3C//DTD SVG 1.1//EN"
  "http://www.w3.org/Graphics/SVG/1.1/DTD/svg11.dtd">
<!-- Created with matplotlib (https://matplotlib.org/) -->
<svg height="345.6pt" version="1.1" viewBox="0 0 460.8 345.6" width="460.8pt" xmlns="http://www.w3.org/2000/svg" xmlns:xlink="http://www.w3.org/1999/xlink">
 <defs>
  <style type="text/css">
*{stroke-linecap:butt;stroke-linejoin:round;}
  </style>
 </defs>
 <g id="figure_1">
  <g id="patch_1">
   <path d="M 0 345.6 
L 460.8 345.6 
L 460.8 0 
L 0 0 
z
" style="fill:#ffffff;"/>
  </g>
  <g id="axes_1">
   <g id="patch_2">
    <path d="M 57.6 307.584 
L 414.72 307.584 
L 414.72 41.472 
L 57.6 41.472 
z
" style="fill:#ffffff;"/>
   </g>
   <g id="matplotlib.axis_1">
    <g id="xtick_1">
     <g id="line2d_1">
      <defs>
       <path d="M 0 0 
L 0 3.5 
" id="m563b1118c2" style="stroke:#000000;stroke-width:0.8;"/>
      </defs>
      <g>
       <use style="stroke:#000000;stroke-width:0.8;" x="73.832727" xlink:href="#m563b1118c2" y="307.584"/>
      </g>
     </g>
     <g id="text_1">
      <!-- 0 -->
      <defs>
       <path d="M 31.78125 66.40625 
Q 24.171875 66.40625 20.328125 58.90625 
Q 16.5 51.421875 16.5 36.375 
Q 16.5 21.390625 20.328125 13.890625 
Q 24.171875 6.390625 31.78125 6.390625 
Q 39.453125 6.390625 43.28125 13.890625 
Q 47.125 21.390625 47.125 36.375 
Q 47.125 51.421875 43.28125 58.90625 
Q 39.453125 66.40625 31.78125 66.40625 
z
M 31.78125 74.21875 
Q 44.046875 74.21875 50.515625 64.515625 
Q 56.984375 54.828125 56.984375 36.375 
Q 56.984375 17.96875 50.515625 8.265625 
Q 44.046875 -1.421875 31.78125 -1.421875 
Q 19.53125 -1.421875 13.0625 8.265625 
Q 6.59375 17.96875 6.59375 36.375 
Q 6.59375 54.828125 13.0625 64.515625 
Q 19.53125 74.21875 31.78125 74.21875 
z
" id="DejaVuSans-48"/>
      </defs>
      <g transform="translate(70.651477 322.182437)scale(0.1 -0.1)">
       <use xlink:href="#DejaVuSans-48"/>
      </g>
     </g>
    </g>
    <g id="xtick_2">
     <g id="line2d_2">
      <g>
       <use style="stroke:#000000;stroke-width:0.8;" x="120.2451" xlink:href="#m563b1118c2" y="307.584"/>
      </g>
     </g>
     <g id="text_2">
      <!-- 200 -->
      <defs>
       <path d="M 19.1875 8.296875 
L 53.609375 8.296875 
L 53.609375 0 
L 7.328125 0 
L 7.328125 8.296875 
Q 12.9375 14.109375 22.625 23.890625 
Q 32.328125 33.6875 34.8125 36.53125 
Q 39.546875 41.84375 41.421875 45.53125 
Q 43.3125 49.21875 43.3125 52.78125 
Q 43.3125 58.59375 39.234375 62.25 
Q 35.15625 65.921875 28.609375 65.921875 
Q 23.96875 65.921875 18.8125 64.3125 
Q 13.671875 62.703125 7.8125 59.421875 
L 7.8125 69.390625 
Q 13.765625 71.78125 18.9375 73 
Q 24.125 74.21875 28.421875 74.21875 
Q 39.75 74.21875 46.484375 68.546875 
Q 53.21875 62.890625 53.21875 53.421875 
Q 53.21875 48.921875 51.53125 44.890625 
Q 49.859375 40.875 45.40625 35.40625 
Q 44.1875 33.984375 37.640625 27.21875 
Q 31.109375 20.453125 19.1875 8.296875 
z
" id="DejaVuSans-50"/>
      </defs>
      <g transform="translate(110.70135 322.182437)scale(0.1 -0.1)">
       <use xlink:href="#DejaVuSans-50"/>
       <use x="63.623047" xlink:href="#DejaVuSans-48"/>
       <use x="127.246094" xlink:href="#DejaVuSans-48"/>
      </g>
     </g>
    </g>
    <g id="xtick_3">
     <g id="line2d_3">
      <g>
       <use style="stroke:#000000;stroke-width:0.8;" x="166.657472" xlink:href="#m563b1118c2" y="307.584"/>
      </g>
     </g>
     <g id="text_3">
      <!-- 400 -->
      <defs>
       <path d="M 37.796875 64.3125 
L 12.890625 25.390625 
L 37.796875 25.390625 
z
M 35.203125 72.90625 
L 47.609375 72.90625 
L 47.609375 25.390625 
L 58.015625 25.390625 
L 58.015625 17.1875 
L 47.609375 17.1875 
L 47.609375 0 
L 37.796875 0 
L 37.796875 17.1875 
L 4.890625 17.1875 
L 4.890625 26.703125 
z
" id="DejaVuSans-52"/>
      </defs>
      <g transform="translate(157.113722 322.182437)scale(0.1 -0.1)">
       <use xlink:href="#DejaVuSans-52"/>
       <use x="63.623047" xlink:href="#DejaVuSans-48"/>
       <use x="127.246094" xlink:href="#DejaVuSans-48"/>
      </g>
     </g>
    </g>
    <g id="xtick_4">
     <g id="line2d_4">
      <g>
       <use style="stroke:#000000;stroke-width:0.8;" x="213.069845" xlink:href="#m563b1118c2" y="307.584"/>
      </g>
     </g>
     <g id="text_4">
      <!-- 600 -->
      <defs>
       <path d="M 33.015625 40.375 
Q 26.375 40.375 22.484375 35.828125 
Q 18.609375 31.296875 18.609375 23.390625 
Q 18.609375 15.53125 22.484375 10.953125 
Q 26.375 6.390625 33.015625 6.390625 
Q 39.65625 6.390625 43.53125 10.953125 
Q 47.40625 15.53125 47.40625 23.390625 
Q 47.40625 31.296875 43.53125 35.828125 
Q 39.65625 40.375 33.015625 40.375 
z
M 52.59375 71.296875 
L 52.59375 62.3125 
Q 48.875 64.0625 45.09375 64.984375 
Q 41.3125 65.921875 37.59375 65.921875 
Q 27.828125 65.921875 22.671875 59.328125 
Q 17.53125 52.734375 16.796875 39.40625 
Q 19.671875 43.65625 24.015625 45.921875 
Q 28.375 48.1875 33.59375 48.1875 
Q 44.578125 48.1875 50.953125 41.515625 
Q 57.328125 34.859375 57.328125 23.390625 
Q 57.328125 12.15625 50.6875 5.359375 
Q 44.046875 -1.421875 33.015625 -1.421875 
Q 20.359375 -1.421875 13.671875 8.265625 
Q 6.984375 17.96875 6.984375 36.375 
Q 6.984375 53.65625 15.1875 63.9375 
Q 23.390625 74.21875 37.203125 74.21875 
Q 40.921875 74.21875 44.703125 73.484375 
Q 48.484375 72.75 52.59375 71.296875 
z
" id="DejaVuSans-54"/>
      </defs>
      <g transform="translate(203.526095 322.182437)scale(0.1 -0.1)">
       <use xlink:href="#DejaVuSans-54"/>
       <use x="63.623047" xlink:href="#DejaVuSans-48"/>
       <use x="127.246094" xlink:href="#DejaVuSans-48"/>
      </g>
     </g>
    </g>
    <g id="xtick_5">
     <g id="line2d_5">
      <g>
       <use style="stroke:#000000;stroke-width:0.8;" x="259.482217" xlink:href="#m563b1118c2" y="307.584"/>
      </g>
     </g>
     <g id="text_5">
      <!-- 800 -->
      <defs>
       <path d="M 31.78125 34.625 
Q 24.75 34.625 20.71875 30.859375 
Q 16.703125 27.09375 16.703125 20.515625 
Q 16.703125 13.921875 20.71875 10.15625 
Q 24.75 6.390625 31.78125 6.390625 
Q 38.8125 6.390625 42.859375 10.171875 
Q 46.921875 13.96875 46.921875 20.515625 
Q 46.921875 27.09375 42.890625 30.859375 
Q 38.875 34.625 31.78125 34.625 
z
M 21.921875 38.8125 
Q 15.578125 40.375 12.03125 44.71875 
Q 8.5 49.078125 8.5 55.328125 
Q 8.5 64.0625 14.71875 69.140625 
Q 20.953125 74.21875 31.78125 74.21875 
Q 42.671875 74.21875 48.875 69.140625 
Q 55.078125 64.0625 55.078125 55.328125 
Q 55.078125 49.078125 51.53125 44.71875 
Q 48 40.375 41.703125 38.8125 
Q 48.828125 37.15625 52.796875 32.3125 
Q 56.78125 27.484375 56.78125 20.515625 
Q 56.78125 9.90625 50.3125 4.234375 
Q 43.84375 -1.421875 31.78125 -1.421875 
Q 19.734375 -1.421875 13.25 4.234375 
Q 6.78125 9.90625 6.78125 20.515625 
Q 6.78125 27.484375 10.78125 32.3125 
Q 14.796875 37.15625 21.921875 38.8125 
z
M 18.3125 54.390625 
Q 18.3125 48.734375 21.84375 45.5625 
Q 25.390625 42.390625 31.78125 42.390625 
Q 38.140625 42.390625 41.71875 45.5625 
Q 45.3125 48.734375 45.3125 54.390625 
Q 45.3125 60.0625 41.71875 63.234375 
Q 38.140625 66.40625 31.78125 66.40625 
Q 25.390625 66.40625 21.84375 63.234375 
Q 18.3125 60.0625 18.3125 54.390625 
z
" id="DejaVuSans-56"/>
      </defs>
      <g transform="translate(249.938467 322.182437)scale(0.1 -0.1)">
       <use xlink:href="#DejaVuSans-56"/>
       <use x="63.623047" xlink:href="#DejaVuSans-48"/>
       <use x="127.246094" xlink:href="#DejaVuSans-48"/>
      </g>
     </g>
    </g>
    <g id="xtick_6">
     <g id="line2d_6">
      <g>
       <use style="stroke:#000000;stroke-width:0.8;" x="305.89459" xlink:href="#m563b1118c2" y="307.584"/>
      </g>
     </g>
     <g id="text_6">
      <!-- 1000 -->
      <defs>
       <path d="M 12.40625 8.296875 
L 28.515625 8.296875 
L 28.515625 63.921875 
L 10.984375 60.40625 
L 10.984375 69.390625 
L 28.421875 72.90625 
L 38.28125 72.90625 
L 38.28125 8.296875 
L 54.390625 8.296875 
L 54.390625 0 
L 12.40625 0 
z
" id="DejaVuSans-49"/>
      </defs>
      <g transform="translate(293.16959 322.182437)scale(0.1 -0.1)">
       <use xlink:href="#DejaVuSans-49"/>
       <use x="63.623047" xlink:href="#DejaVuSans-48"/>
       <use x="127.246094" xlink:href="#DejaVuSans-48"/>
       <use x="190.869141" xlink:href="#DejaVuSans-48"/>
      </g>
     </g>
    </g>
    <g id="xtick_7">
     <g id="line2d_7">
      <g>
       <use style="stroke:#000000;stroke-width:0.8;" x="352.306962" xlink:href="#m563b1118c2" y="307.584"/>
      </g>
     </g>
     <g id="text_7">
      <!-- 1200 -->
      <g transform="translate(339.581962 322.182437)scale(0.1 -0.1)">
       <use xlink:href="#DejaVuSans-49"/>
       <use x="63.623047" xlink:href="#DejaVuSans-50"/>
       <use x="127.246094" xlink:href="#DejaVuSans-48"/>
       <use x="190.869141" xlink:href="#DejaVuSans-48"/>
      </g>
     </g>
    </g>
    <g id="xtick_8">
     <g id="line2d_8">
      <g>
       <use style="stroke:#000000;stroke-width:0.8;" x="398.719335" xlink:href="#m563b1118c2" y="307.584"/>
      </g>
     </g>
     <g id="text_8">
      <!-- 1400 -->
      <g transform="translate(385.994335 322.182437)scale(0.1 -0.1)">
       <use xlink:href="#DejaVuSans-49"/>
       <use x="63.623047" xlink:href="#DejaVuSans-52"/>
       <use x="127.246094" xlink:href="#DejaVuSans-48"/>
       <use x="190.869141" xlink:href="#DejaVuSans-48"/>
      </g>
     </g>
    </g>
   </g>
   <g id="matplotlib.axis_2">
    <g id="ytick_1">
     <g id="line2d_9">
      <defs>
       <path d="M 0 0 
L -3.5 0 
" id="m7d101b1355" style="stroke:#000000;stroke-width:0.8;"/>
      </defs>
      <g>
       <use style="stroke:#000000;stroke-width:0.8;" x="57.6" xlink:href="#m7d101b1355" y="295.619361"/>
      </g>
     </g>
     <g id="text_9">
      <!-- 0.00 -->
      <defs>
       <path d="M 10.6875 12.40625 
L 21 12.40625 
L 21 0 
L 10.6875 0 
z
" id="DejaVuSans-46"/>
      </defs>
      <g transform="translate(28.334375 299.41858)scale(0.1 -0.1)">
       <use xlink:href="#DejaVuSans-48"/>
       <use x="63.623047" xlink:href="#DejaVuSans-46"/>
       <use x="95.410156" xlink:href="#DejaVuSans-48"/>
       <use x="159.033203" xlink:href="#DejaVuSans-48"/>
      </g>
     </g>
    </g>
    <g id="ytick_2">
     <g id="line2d_10">
      <g>
       <use style="stroke:#000000;stroke-width:0.8;" x="57.6" xlink:href="#m7d101b1355" y="258.545066"/>
      </g>
     </g>
     <g id="text_10">
      <!-- 0.05 -->
      <defs>
       <path d="M 10.796875 72.90625 
L 49.515625 72.90625 
L 49.515625 64.59375 
L 19.828125 64.59375 
L 19.828125 46.734375 
Q 21.96875 47.46875 24.109375 47.828125 
Q 26.265625 48.1875 28.421875 48.1875 
Q 40.625 48.1875 47.75 41.5 
Q 54.890625 34.8125 54.890625 23.390625 
Q 54.890625 11.625 47.5625 5.09375 
Q 40.234375 -1.421875 26.90625 -1.421875 
Q 22.3125 -1.421875 17.546875 -0.640625 
Q 12.796875 0.140625 7.71875 1.703125 
L 7.71875 11.625 
Q 12.109375 9.234375 16.796875 8.0625 
Q 21.484375 6.890625 26.703125 6.890625 
Q 35.15625 6.890625 40.078125 11.328125 
Q 45.015625 15.765625 45.015625 23.390625 
Q 45.015625 31 40.078125 35.4375 
Q 35.15625 39.890625 26.703125 39.890625 
Q 22.75 39.890625 18.8125 39.015625 
Q 14.890625 38.140625 10.796875 36.28125 
z
" id="DejaVuSans-53"/>
      </defs>
      <g transform="translate(28.334375 262.344285)scale(0.1 -0.1)">
       <use xlink:href="#DejaVuSans-48"/>
       <use x="63.623047" xlink:href="#DejaVuSans-46"/>
       <use x="95.410156" xlink:href="#DejaVuSans-48"/>
       <use x="159.033203" xlink:href="#DejaVuSans-53"/>
      </g>
     </g>
    </g>
    <g id="ytick_3">
     <g id="line2d_11">
      <g>
       <use style="stroke:#000000;stroke-width:0.8;" x="57.6" xlink:href="#m7d101b1355" y="221.470772"/>
      </g>
     </g>
     <g id="text_11">
      <!-- 0.10 -->
      <g transform="translate(28.334375 225.269991)scale(0.1 -0.1)">
       <use xlink:href="#DejaVuSans-48"/>
       <use x="63.623047" xlink:href="#DejaVuSans-46"/>
       <use x="95.410156" xlink:href="#DejaVuSans-49"/>
       <use x="159.033203" xlink:href="#DejaVuSans-48"/>
      </g>
     </g>
    </g>
    <g id="ytick_4">
     <g id="line2d_12">
      <g>
       <use style="stroke:#000000;stroke-width:0.8;" x="57.6" xlink:href="#m7d101b1355" y="184.396477"/>
      </g>
     </g>
     <g id="text_12">
      <!-- 0.15 -->
      <g transform="translate(28.334375 188.195696)scale(0.1 -0.1)">
       <use xlink:href="#DejaVuSans-48"/>
       <use x="63.623047" xlink:href="#DejaVuSans-46"/>
       <use x="95.410156" xlink:href="#DejaVuSans-49"/>
       <use x="159.033203" xlink:href="#DejaVuSans-53"/>
      </g>
     </g>
    </g>
    <g id="ytick_5">
     <g id="line2d_13">
      <g>
       <use style="stroke:#000000;stroke-width:0.8;" x="57.6" xlink:href="#m7d101b1355" y="147.322183"/>
      </g>
     </g>
     <g id="text_13">
      <!-- 0.20 -->
      <g transform="translate(28.334375 151.121401)scale(0.1 -0.1)">
       <use xlink:href="#DejaVuSans-48"/>
       <use x="63.623047" xlink:href="#DejaVuSans-46"/>
       <use x="95.410156" xlink:href="#DejaVuSans-50"/>
       <use x="159.033203" xlink:href="#DejaVuSans-48"/>
      </g>
     </g>
    </g>
    <g id="ytick_6">
     <g id="line2d_14">
      <g>
       <use style="stroke:#000000;stroke-width:0.8;" x="57.6" xlink:href="#m7d101b1355" y="110.247888"/>
      </g>
     </g>
     <g id="text_14">
      <!-- 0.25 -->
      <g transform="translate(28.334375 114.047107)scale(0.1 -0.1)">
       <use xlink:href="#DejaVuSans-48"/>
       <use x="63.623047" xlink:href="#DejaVuSans-46"/>
       <use x="95.410156" xlink:href="#DejaVuSans-50"/>
       <use x="159.033203" xlink:href="#DejaVuSans-53"/>
      </g>
     </g>
    </g>
    <g id="ytick_7">
     <g id="line2d_15">
      <g>
       <use style="stroke:#000000;stroke-width:0.8;" x="57.6" xlink:href="#m7d101b1355" y="73.173594"/>
      </g>
     </g>
     <g id="text_15">
      <!-- 0.30 -->
      <defs>
       <path d="M 40.578125 39.3125 
Q 47.65625 37.796875 51.625 33 
Q 55.609375 28.21875 55.609375 21.1875 
Q 55.609375 10.40625 48.1875 4.484375 
Q 40.765625 -1.421875 27.09375 -1.421875 
Q 22.515625 -1.421875 17.65625 -0.515625 
Q 12.796875 0.390625 7.625 2.203125 
L 7.625 11.71875 
Q 11.71875 9.328125 16.59375 8.109375 
Q 21.484375 6.890625 26.8125 6.890625 
Q 36.078125 6.890625 40.9375 10.546875 
Q 45.796875 14.203125 45.796875 21.1875 
Q 45.796875 27.640625 41.28125 31.265625 
Q 36.765625 34.90625 28.71875 34.90625 
L 20.21875 34.90625 
L 20.21875 43.015625 
L 29.109375 43.015625 
Q 36.375 43.015625 40.234375 45.921875 
Q 44.09375 48.828125 44.09375 54.296875 
Q 44.09375 59.90625 40.109375 62.90625 
Q 36.140625 65.921875 28.71875 65.921875 
Q 24.65625 65.921875 20.015625 65.03125 
Q 15.375 64.15625 9.8125 62.3125 
L 9.8125 71.09375 
Q 15.4375 72.65625 20.34375 73.4375 
Q 25.25 74.21875 29.59375 74.21875 
Q 40.828125 74.21875 47.359375 69.109375 
Q 53.90625 64.015625 53.90625 55.328125 
Q 53.90625 49.265625 50.4375 45.09375 
Q 46.96875 40.921875 40.578125 39.3125 
z
" id="DejaVuSans-51"/>
      </defs>
      <g transform="translate(28.334375 76.972812)scale(0.1 -0.1)">
       <use xlink:href="#DejaVuSans-48"/>
       <use x="63.623047" xlink:href="#DejaVuSans-46"/>
       <use x="95.410156" xlink:href="#DejaVuSans-51"/>
       <use x="159.033203" xlink:href="#DejaVuSans-48"/>
      </g>
     </g>
    </g>
   </g>
   <g id="line2d_16">
    <path clip-path="url(#pdb89ef7b2a)" d="M 73.832727 292.436706 
L 74.064789 293.879982 
L 74.296851 294.458278 
L 74.528913 294.576524 
L 74.993037 294.03234 
L 75.689222 294.771013 
L 75.921284 295.110377 
L 76.153346 295.122349 
L 76.385408 295.370839 
L 76.849531 295.188886 
L 77.081593 295.341328 
L 77.313655 295.251353 
L 77.545717 295.298839 
L 77.777779 295.485639 
L 78.009841 295.139983 
L 78.473965 295.369607 
L 78.706026 295.488 
L 79.866336 295.133799 
L 80.098398 294.912059 
L 80.562521 295.152372 
L 81.258707 295.267309 
L 81.722831 295.139432 
L 82.419016 295.40991 
L 82.651078 295.222558 
L 82.88314 295.203057 
L 83.115202 295.417155 
L 84.507573 295.336663 
L 84.739635 295.100331 
L 85.203759 295.009999 
L 85.667882 295.067398 
L 86.132006 294.91319 
L 86.828192 294.274344 
L 87.060253 294.048557 
L 87.292315 293.667223 
L 88.220563 290.225551 
L 88.684686 289.955111 
L 88.916748 289.844357 
L 89.14881 288.607472 
L 89.380872 289.423111 
L 89.612934 283.892812 
L 89.844996 281.416903 
L 90.077058 281.718797 
L 90.30912 281.724133 
L 90.541181 282.852424 
L 90.773243 284.640459 
L 91.005305 284.217006 
L 91.237367 282.424617 
L 91.469429 282.463437 
L 92.397676 284.987351 
L 92.629738 285.343514 
L 92.8618 286.435264 
L 93.093862 285.90708 
L 93.325924 286.352982 
L 93.557986 287.477085 
L 93.790047 286.448515 
L 94.022109 286.274559 
L 94.254171 285.386142 
L 94.950357 291.861912 
L 95.182419 291.653914 
L 95.41448 291.089607 
L 95.646542 292.145328 
L 95.878604 291.941206 
L 96.110666 291.934891 
L 96.806852 291.662405 
L 97.735099 291.670384 
L 97.967161 291.696294 
L 98.199223 291.604991 
L 98.431285 291.234083 
L 98.663347 291.353635 
L 98.895408 291.091021 
L 99.359532 289.529096 
L 99.591594 287.618652 
L 100.055718 287.959001 
L 101.216027 285.967932 
L 101.448089 286.120594 
L 101.680151 286.037017 
L 102.144274 286.380949 
L 102.376336 286.928538 
L 102.608398 286.771267 
L 102.84046 287.705806 
L 103.072522 287.739722 
L 103.304584 286.196444 
L 103.536646 285.7838 
L 104.000769 285.793847 
L 104.232831 286.092401 
L 104.696955 288.459044 
L 104.929017 291.671214 
L 105.161079 292.629673 
L 106.089326 292.143567 
L 106.321388 292.358403 
L 106.55345 292.179202 
L 106.785512 291.796123 
L 107.017574 292.252537 
L 107.249635 289.741678 
L 107.481697 290.040612 
L 107.713759 290.954548 
L 107.945821 291.215459 
L 108.409945 290.575876 
L 108.642007 290.573449 
L 108.874068 287.467912 
L 109.10613 287.309938 
L 109.338192 287.442541 
L 110.034378 288.780261 
L 110.26644 288.407206 
L 110.498502 287.118586 
L 110.730563 287.423675 
L 110.962625 286.630144 
L 111.194687 286.439371 
L 111.426749 286.875891 
L 111.658811 286.927081 
L 111.890873 287.490712 
L 112.122935 286.651382 
L 112.354996 286.968617 
L 112.587058 286.170179 
L 112.81912 285.778524 
L 113.051182 285.073765 
L 113.747368 285.454983 
L 113.979429 286.591449 
L 114.675615 285.975601 
L 114.907677 286.385258 
L 115.139739 285.583266 
L 115.371801 285.2044 
L 115.603862 288.267879 
L 115.835924 287.642734 
L 116.067986 289.117055 
L 116.300048 289.875365 
L 116.53211 285.298087 
L 116.764172 286.049556 
L 116.996234 287.948355 
L 117.228296 288.920704 
L 117.460357 291.737911 
L 117.692419 291.040381 
L 118.156543 287.437227 
L 118.388605 287.189375 
L 118.852729 285.976243 
L 119.08479 286.008251 
L 119.316852 286.307458 
L 119.548914 286.409776 
L 120.013038 286.350681 
L 120.477162 286.408708 
L 120.709223 286.219802 
L 120.941285 286.367358 
L 121.405409 286.423474 
L 121.637471 287.826051 
L 121.869533 287.925511 
L 122.101595 288.485066 
L 122.333657 287.072098 
L 122.565718 287.067387 
L 122.79778 287.573552 
L 123.029842 286.888777 
L 123.493966 286.382947 
L 123.726028 286.371939 
L 123.95809 286.107516 
L 124.190151 286.262013 
L 124.422213 287.494383 
L 124.654275 286.526011 
L 124.886337 286.408919 
L 125.350461 286.566565 
L 125.814584 285.744281 
L 126.278708 285.53724 
L 126.51077 285.443059 
L 126.742832 285.470263 
L 126.974894 285.902339 
L 127.439017 286.041905 
L 127.903141 286.360728 
L 128.135203 286.205332 
L 128.599327 286.515232 
L 128.831389 286.566852 
L 129.063451 286.755749 
L 129.295512 287.863529 
L 129.527574 288.327798 
L 129.759636 288.279131 
L 130.22376 287.638552 
L 130.455822 288.181441 
L 130.687884 288.438922 
L 131.152007 286.993921 
L 131.616131 287.043088 
L 131.848193 286.835925 
L 132.080255 287.489475 
L 132.312317 287.103271 
L 132.544378 287.38937 
L 132.77644 286.612824 
L 133.008502 287.671016 
L 133.240564 287.492828 
L 133.472626 286.45139 
L 134.168811 286.956936 
L 134.400873 286.780088 
L 134.632935 287.55127 
L 134.864997 287.774571 
L 135.097059 287.800606 
L 135.329121 288.266211 
L 135.561183 288.444034 
L 136.025306 288.277436 
L 136.257368 288.353269 
L 136.48943 288.252012 
L 136.721492 287.373995 
L 136.953554 288.700856 
L 137.185616 287.970379 
L 137.417678 287.850212 
L 137.881801 287.082419 
L 138.113863 287.979698 
L 138.345925 288.006281 
L 138.577987 287.700411 
L 138.810049 287.020467 
L 139.042111 287.402785 
L 139.506234 287.008065 
L 139.738296 287.655263 
L 139.970358 287.000177 
L 140.20242 287.209964 
L 140.434482 287.071086 
L 140.666544 287.53887 
L 140.898605 287.272832 
L 141.130667 286.24059 
L 141.826853 286.91598 
L 142.523039 289.232573 
L 143.219224 293.017302 
L 143.451286 293.486255 
L 144.147472 293.240396 
L 144.379533 291.453263 
L 144.611595 292.695102 
L 144.843657 290.712138 
L 145.075719 290.677442 
L 145.539843 287.978016 
L 146.003966 289.486528 
L 146.236028 288.81773 
L 146.46809 289.678761 
L 146.700152 290.026024 
L 146.932214 290.965907 
L 147.164276 288.954537 
L 147.396338 288.847759 
L 147.6284 288.234293 
L 147.860461 288.222763 
L 148.092523 286.855159 
L 148.324585 287.429437 
L 148.556647 288.35032 
L 148.788709 286.120113 
L 149.020771 286.076048 
L 149.252833 285.832279 
L 149.716956 285.650156 
L 149.949018 286.059989 
L 150.645204 286.073096 
L 150.877266 286.475097 
L 151.341389 285.942106 
L 151.573451 286.10068 
L 151.805513 286.073424 
L 152.037575 286.448536 
L 152.501699 287.870351 
L 152.73376 287.887382 
L 152.965822 287.139398 
L 153.197884 287.36121 
L 153.429946 287.118511 
L 153.662008 287.691364 
L 153.89407 287.940001 
L 154.126132 287.547033 
L 154.590255 289.409143 
L 154.822317 291.316053 
L 155.054379 291.93677 
L 155.286441 291.298153 
L 155.750565 288.954374 
L 155.982627 290.487836 
L 156.214688 290.428837 
L 156.44675 289.905607 
L 156.678812 291.152521 
L 157.142936 290.321152 
L 157.374998 290.311113 
L 158.071183 286.545226 
L 158.303245 286.259398 
L 158.535307 286.206552 
L 158.999431 286.396283 
L 159.231493 286.211255 
L 159.463554 286.337494 
L 159.695616 286.961235 
L 159.927678 286.602979 
L 160.391802 288.753017 
L 160.855926 287.849012 
L 161.087988 287.869874 
L 161.320049 288.657718 
L 161.552111 287.875303 
L 161.784173 288.133612 
L 162.016235 287.778828 
L 162.248297 288.478107 
L 162.480359 288.403457 
L 162.712421 287.441685 
L 162.944482 287.797001 
L 163.176544 286.641096 
L 163.408606 287.289523 
L 163.640668 286.592268 
L 163.87273 288.16059 
L 164.104792 287.517587 
L 164.336854 287.399519 
L 164.568915 288.939001 
L 164.800977 289.06134 
L 165.033039 289.831109 
L 165.497163 288.072617 
L 165.729225 287.66416 
L 166.193348 287.886669 
L 166.657472 291.58952 
L 166.889534 292.099281 
L 167.121596 293.042714 
L 167.353658 291.367703 
L 167.58572 285.031141 
L 168.049843 291.208934 
L 168.281905 291.112369 
L 168.513967 288.29446 
L 168.978091 288.707588 
L 169.210153 287.495849 
L 169.442215 289.116658 
L 169.674276 289.833275 
L 169.906338 289.771773 
L 170.1384 288.846866 
L 170.602524 288.155238 
L 170.834586 287.029052 
L 171.066648 287.329539 
L 171.298709 287.854725 
L 171.530771 288.785433 
L 171.762833 287.682285 
L 171.994895 287.739481 
L 172.226957 289.257842 
L 172.459019 288.62869 
L 172.691081 289.549737 
L 172.923143 289.339194 
L 173.619328 287.505314 
L 173.85139 288.459939 
L 174.315514 291.41502 
L 174.779637 291.798691 
L 175.011699 290.731123 
L 175.243761 290.799601 
L 175.475823 290.144178 
L 175.707885 288.377877 
L 176.172009 289.420802 
L 176.636132 287.75049 
L 176.868194 288.108917 
L 177.100256 287.507709 
L 177.332318 288.479562 
L 177.56438 287.948876 
L 177.796442 288.484635 
L 178.028503 288.087241 
L 178.260565 288.847464 
L 178.724689 288.566558 
L 178.956751 289.180667 
L 179.188813 288.531708 
L 179.420875 286.789552 
L 179.652937 286.848967 
L 179.884998 286.391842 
L 180.11706 286.317876 
L 180.349122 286.494573 
L 180.581184 286.302556 
L 180.813246 285.888077 
L 181.045308 285.929238 
L 181.973555 286.585183 
L 182.901803 286.835098 
L 183.365926 288.677917 
L 183.597988 288.381977 
L 183.83005 288.745618 
L 184.062112 288.464325 
L 184.294174 288.894568 
L 184.526236 288.966574 
L 184.758297 287.944293 
L 184.990359 288.765885 
L 185.222421 288.333616 
L 185.454483 289.567425 
L 185.686545 289.351408 
L 185.918607 288.972293 
L 186.150669 288.956154 
L 186.614792 288.370987 
L 186.846854 288.92168 
L 187.078916 287.813465 
L 187.310978 288.41047 
L 187.54304 289.912732 
L 187.775102 290.059522 
L 188.239225 290.981439 
L 188.471287 290.008083 
L 188.703349 287.629524 
L 188.935411 286.734115 
L 189.167473 286.870118 
L 189.631597 288.595106 
L 189.863658 288.788619 
L 190.327782 288.306168 
L 190.791906 288.462558 
L 191.023968 288.283314 
L 191.25603 288.34435 
L 191.488091 288.536733 
L 191.720153 288.433031 
L 192.416339 288.849249 
L 192.648401 288.531849 
L 193.112525 289.036534 
L 193.576648 288.36567 
L 193.80871 288.759004 
L 194.040772 287.815413 
L 194.272834 287.649827 
L 194.504896 288.234199 
L 194.736958 286.68494 
L 194.969019 286.941168 
L 195.201081 287.578886 
L 195.433143 287.210155 
L 195.665205 287.572099 
L 195.897267 288.382941 
L 196.129329 288.701883 
L 196.361391 287.864207 
L 196.593452 287.514124 
L 196.825514 287.936126 
L 197.289638 291.78428 
L 197.5217 292.201744 
L 197.753762 291.237897 
L 197.985824 291.120368 
L 198.217886 291.231388 
L 198.449947 292.917191 
L 198.682009 289.338705 
L 198.914071 288.870408 
L 199.146133 290.254157 
L 199.378195 288.462438 
L 199.610257 289.18942 
L 199.842319 286.87487 
L 200.07438 288.826793 
L 200.306442 289.171631 
L 200.538504 288.942128 
L 200.770566 287.230928 
L 201.002628 288.2891 
L 201.23469 288.339903 
L 201.466752 289.033486 
L 201.698813 288.120694 
L 202.162937 288.677599 
L 202.394999 287.095754 
L 202.859123 286.723647 
L 203.78737 286.737866 
L 204.251494 286.53066 
L 204.715618 286.852721 
L 205.411803 288.088355 
L 205.643865 286.869408 
L 205.875927 287.261981 
L 206.107989 289.669128 
L 206.340051 289.897947 
L 206.572113 287.047682 
L 206.804174 286.607289 
L 207.036236 287.487372 
L 207.268298 287.675236 
L 207.50036 288.055917 
L 207.732422 288.18194 
L 207.964484 288.62154 
L 208.196546 288.754067 
L 208.428607 287.135926 
L 208.660669 288.330032 
L 208.892731 288.29194 
L 209.124793 289.688744 
L 209.356855 289.832029 
L 209.588917 288.663728 
L 209.820979 289.968746 
L 210.05304 288.312073 
L 210.517164 287.545215 
L 210.749226 287.335149 
L 210.981288 287.539303 
L 211.21335 288.114729 
L 211.445412 287.771042 
L 211.677474 287.051262 
L 211.909535 287.103279 
L 212.373659 286.904521 
L 212.837783 288.733954 
L 213.069845 289.229991 
L 213.301907 290.002665 
L 213.533968 288.953719 
L 213.76603 289.591078 
L 213.998092 289.501445 
L 214.230154 289.246796 
L 214.462216 288.487567 
L 214.694278 289.331264 
L 214.92634 287.657561 
L 215.158401 288.001045 
L 215.390463 287.484997 
L 215.854587 290.980815 
L 216.086649 286.601862 
L 216.318711 289.294874 
L 216.550773 289.103806 
L 216.782834 289.080226 
L 217.014896 287.485892 
L 217.246958 286.789039 
L 217.47902 288.677088 
L 217.711082 287.011769 
L 218.871391 286.573724 
L 219.103453 286.126603 
L 219.799639 286.681953 
L 220.263762 286.690318 
L 220.727886 287.63929 
L 220.959948 287.223876 
L 221.424072 287.518704 
L 221.656134 289.491845 
L 221.888195 290.316045 
L 222.120257 287.428799 
L 222.352319 290.905652 
L 222.584381 289.947552 
L 222.816443 290.994336 
L 223.048505 291.414746 
L 223.280567 286.404555 
L 223.512629 288.654069 
L 223.74469 288.95658 
L 223.976752 290.013244 
L 224.208814 289.707833 
L 224.440876 289.94637 
L 224.672938 287.933705 
L 224.905 286.917627 
L 225.137062 289.137947 
L 225.369123 287.511612 
L 225.601185 287.302034 
L 225.833247 287.329264 
L 226.529433 286.948076 
L 226.761495 286.361959 
L 226.993556 287.121514 
L 227.225618 287.415395 
L 227.689742 286.228662 
L 228.153866 286.948029 
L 228.617989 287.140229 
L 228.850051 286.997775 
L 229.314175 287.40325 
L 229.546237 288.335863 
L 229.778299 286.774947 
L 230.010361 288.957673 
L 230.242423 290.027439 
L 230.706546 287.9856 
L 230.938608 289.063732 
L 231.17067 286.709673 
L 231.402732 288.298201 
L 231.634794 290.894235 
L 231.866856 290.976636 
L 232.330979 292.077269 
L 232.563041 288.762716 
L 232.795103 289.746203 
L 233.027165 288.743884 
L 233.259227 288.396743 
L 233.491289 288.690007 
L 233.72335 289.340722 
L 233.955412 289.461148 
L 234.419536 287.51201 
L 234.88366 288.751828 
L 235.115722 288.2655 
L 235.347783 286.599586 
L 235.579845 286.627382 
L 235.811907 287.363612 
L 236.276031 287.724592 
L 236.740155 287.631069 
L 237.204278 288.248283 
L 237.43634 287.236024 
L 237.668402 288.555776 
L 237.900464 287.887264 
L 238.364588 289.051904 
L 238.59665 288.199457 
L 238.828711 288.256891 
L 239.060773 289.530655 
L 239.292835 290.159807 
L 239.524897 289.992414 
L 239.756959 290.299453 
L 239.989021 288.942061 
L 240.685206 287.095619 
L 241.381392 287.051669 
L 241.613454 287.116074 
L 241.845516 286.420542 
L 242.541701 287.685418 
L 242.773763 287.62551 
L 243.237887 286.559403 
L 243.469949 286.989444 
L 243.934072 287.24335 
L 244.166134 287.016563 
L 244.398196 287.233917 
L 244.630258 287.669657 
L 244.86232 288.342774 
L 245.094382 287.704406 
L 245.326444 288.988729 
L 245.558505 288.782476 
L 245.790567 288.846928 
L 246.022629 288.743567 
L 246.254691 287.987069 
L 246.486753 287.940029 
L 246.718815 289.208834 
L 246.950877 289.571699 
L 247.182938 289.451299 
L 247.415 289.823592 
L 247.647062 287.991409 
L 248.111186 289.52398 
L 248.343248 287.711529 
L 248.57531 287.418685 
L 248.807371 287.735475 
L 249.039433 287.6153 
L 249.271495 287.694651 
L 249.503557 287.26298 
L 250.199743 288.03747 
L 250.431805 287.867363 
L 250.663866 287.88061 
L 251.12799 286.593973 
L 251.360052 287.250727 
L 252.056238 287.266006 
L 252.288299 287.62661 
L 252.520361 288.503184 
L 252.752423 287.881077 
L 252.984485 289.169044 
L 253.216547 288.630772 
L 253.448609 289.13265 
L 253.912732 288.985658 
L 254.144794 288.139727 
L 254.608918 289.663135 
L 254.84098 289.506064 
L 255.073042 289.546038 
L 255.305104 287.787892 
L 255.537166 288.2086 
L 256.001289 287.140906 
L 256.465413 287.262194 
L 256.697475 287.053544 
L 256.929537 287.207163 
L 257.161599 286.965033 
L 257.39366 287.891149 
L 257.625722 287.178373 
L 257.857784 288.089978 
L 258.089846 288.176852 
L 258.321908 288.111341 
L 258.55397 287.237028 
L 258.786032 286.888659 
L 259.018093 287.316036 
L 259.250155 287.362791 
L 259.946341 287.763292 
L 260.178403 287.701672 
L 260.410465 287.432058 
L 260.642526 288.679631 
L 260.874588 288.126547 
L 261.10665 288.300437 
L 261.338712 288.279646 
L 261.570774 288.417028 
L 261.802836 287.719359 
L 262.034898 288.797745 
L 262.26696 289.027287 
L 262.499021 289.077295 
L 262.731083 289.322676 
L 262.963145 288.876032 
L 263.195207 287.588884 
L 263.427269 288.69672 
L 263.659331 287.365543 
L 263.891393 287.395576 
L 264.123454 287.214683 
L 264.587578 287.529369 
L 264.81964 287.360616 
L 265.051702 288.287676 
L 265.283764 287.592764 
L 265.515826 288.045986 
L 266.212011 287.730674 
L 266.444073 286.793128 
L 266.676135 287.299314 
L 266.908197 287.384752 
L 267.140259 287.65813 
L 267.37232 287.495003 
L 267.604382 288.091003 
L 267.836444 288.060855 
L 268.068506 287.471687 
L 268.300568 288.647528 
L 268.53263 287.937711 
L 269.228815 288.027421 
L 269.692939 288.243718 
L 270.157063 288.615797 
L 270.389125 289.17911 
L 271.317372 287.055743 
L 271.549434 287.091616 
L 271.781496 286.844215 
L 272.24562 286.759597 
L 272.477681 286.439322 
L 272.709743 287.019055 
L 272.941805 286.900658 
L 273.173867 287.340688 
L 273.405929 287.351103 
L 273.637991 287.001454 
L 273.870053 287.07676 
L 274.102114 286.472293 
L 274.334176 286.898588 
L 275.030362 287.331534 
L 275.262424 288.387114 
L 275.726548 287.984796 
L 275.958609 289.361691 
L 276.190671 289.24297 
L 276.422733 290.226759 
L 276.654795 289.126493 
L 277.350981 287.652936 
L 277.583042 287.664676 
L 278.047166 291.273947 
L 278.279228 292.783857 
L 278.51129 288.582542 
L 278.743352 288.434014 
L 278.975414 287.871894 
L 279.207475 288.067412 
L 279.439537 287.308487 
L 279.903661 287.307954 
L 280.135723 286.941008 
L 280.367785 287.377167 
L 280.599847 287.274423 
L 280.831909 287.77312 
L 281.296032 287.8926 
L 281.760156 286.840147 
L 281.992218 287.070207 
L 282.688403 286.942222 
L 282.920465 286.782739 
L 283.152527 287.865257 
L 283.384589 286.67158 
L 283.848713 288.106071 
L 284.080775 286.558797 
L 284.312836 286.696018 
L 284.544898 286.329773 
L 284.77696 286.442046 
L 285.009022 286.940031 
L 285.241084 287.018676 
L 285.473146 287.277885 
L 285.705208 288.760205 
L 285.937269 288.304885 
L 286.169331 286.536823 
L 286.401393 289.315161 
L 286.633455 288.692344 
L 286.865517 289.280426 
L 287.097579 288.229028 
L 287.561703 288.758451 
L 287.793764 288.29801 
L 288.025826 288.740696 
L 288.257888 287.53957 
L 288.48995 288.015126 
L 288.722012 288.223897 
L 288.954074 288.848293 
L 289.186136 287.298738 
L 289.418197 287.480007 
L 289.650259 286.450546 
L 290.114383 287.820379 
L 290.346445 287.524073 
L 290.810569 289.221354 
L 291.04263 285.778114 
L 291.506754 289.473253 
L 291.738816 286.596881 
L 291.970878 286.213906 
L 292.20294 285.568189 
L 292.435002 285.326119 
L 292.899125 285.862881 
L 293.131187 285.940927 
L 293.363249 286.841082 
L 293.595311 286.444556 
L 293.827373 285.471635 
L 294.059435 286.938834 
L 294.291497 286.333177 
L 294.523558 286.702902 
L 294.987682 286.929103 
L 295.219744 287.200734 
L 295.451806 288.204704 
L 295.91593 287.984979 
L 296.380053 288.368715 
L 296.612115 288.432395 
L 296.844177 287.972833 
L 297.076239 287.972982 
L 297.308301 286.869014 
L 297.540363 288.147806 
L 297.772424 288.325887 
L 298.004486 288.97454 
L 298.236548 284.614856 
L 298.46861 286.0807 
L 298.700672 285.943659 
L 299.164796 289.47845 
L 299.396857 286.535151 
L 299.628919 285.844245 
L 299.860981 288.470141 
L 300.093043 286.008511 
L 300.325105 285.701983 
L 300.789229 285.743828 
L 301.253352 286.38035 
L 301.485414 285.467657 
L 301.717476 286.253079 
L 302.413662 287.009637 
L 303.109847 287.594634 
L 303.341909 288.341223 
L 303.573971 288.270266 
L 303.806033 288.436415 
L 304.038095 287.76354 
L 304.270157 288.038228 
L 304.502218 286.888602 
L 304.73428 287.19498 
L 304.966342 286.450499 
L 305.198404 286.621601 
L 305.430466 287.277917 
L 305.89459 286.770282 
L 306.126652 288.831263 
L 306.358713 284.799779 
L 307.054899 291.993389 
L 307.286961 291.81991 
L 307.519023 289.319431 
L 307.751085 288.219603 
L 307.983146 291.367387 
L 308.44727 287.00917 
L 308.911394 288.552957 
L 309.143456 287.354436 
L 309.375518 287.110468 
L 309.607579 286.596346 
L 309.839641 286.976957 
L 310.071703 287.007009 
L 310.535827 287.210871 
L 310.767889 287.305333 
L 310.999951 288.492672 
L 311.464074 287.748396 
L 311.696136 288.296626 
L 311.928198 288.035963 
L 312.16026 288.058165 
L 312.392322 287.103023 
L 313.320569 286.467481 
L 313.552631 285.979534 
L 313.784693 286.263728 
L 314.016755 286.236488 
L 314.248817 286.088501 
L 314.480879 287.543683 
L 314.71294 285.234797 
L 314.945002 284.999319 
L 315.177064 288.426208 
L 315.409126 286.829837 
L 315.641188 287.783659 
L 315.87325 283.98391 
L 316.105312 287.951744 
L 316.337373 288.29301 
L 316.569435 287.879995 
L 316.801497 286.919249 
L 317.033559 287.293265 
L 317.265621 286.274249 
L 317.497683 287.051505 
L 317.729745 287.074998 
L 318.193868 287.545091 
L 318.42593 287.5451 
L 318.657992 288.766412 
L 319.122116 287.764141 
L 319.354178 287.646594 
L 319.58624 288.076491 
L 319.818301 287.91469 
L 320.050363 286.977027 
L 320.514487 286.731947 
L 320.978611 286.733368 
L 321.210673 286.202771 
L 321.442734 286.201625 
L 321.674796 286.51273 
L 321.906858 286.41323 
L 322.13892 287.712849 
L 322.370982 287.60808 
L 322.603044 285.709469 
L 322.835106 285.133417 
L 323.067167 285.217048 
L 323.299229 284.979948 
L 323.531291 284.956152 
L 323.763353 285.911483 
L 323.995415 285.464202 
L 324.227477 286.176875 
L 324.459539 285.416865 
L 324.6916 286.243569 
L 324.923662 285.987661 
L 325.619848 286.982545 
L 325.85191 287.209323 
L 326.083972 287.696687 
L 326.316034 287.841516 
L 326.548095 288.299608 
L 326.780157 288.117848 
L 327.012219 288.215088 
L 327.244281 288.55689 
L 327.476343 288.216156 
L 327.708405 287.344923 
L 327.940467 287.343644 
L 328.40459 286.457643 
L 328.636652 286.115576 
L 329.100776 284.981147 
L 329.332838 285.562381 
L 329.5649 285.244744 
L 329.796961 285.207969 
L 330.029023 284.415265 
L 330.261085 284.026465 
L 330.957271 284.938017 
L 331.189333 285.486303 
L 331.421395 288.968095 
L 331.653456 289.767442 
L 331.885518 292.337969 
L 332.11758 289.303912 
L 332.349642 288.634928 
L 332.813766 289.671692 
L 333.045828 289.161078 
L 333.277889 289.386721 
L 333.742013 288.379848 
L 333.974075 289.056871 
L 334.438199 288.136114 
L 334.670261 288.180615 
L 334.902322 288.396687 
L 335.134384 287.88627 
L 335.366446 288.037339 
L 335.598508 286.811665 
L 335.83057 286.703626 
L 336.294694 286.084349 
L 336.526755 285.501836 
L 336.758817 285.598215 
L 336.990879 285.345286 
L 337.222941 284.277621 
L 337.455003 284.607957 
L 337.919127 283.468192 
L 338.151189 283.596759 
L 338.615312 284.373874 
L 338.847374 284.358661 
L 339.079436 286.406773 
L 339.311498 286.369424 
L 339.54356 289.080456 
L 340.007683 288.195553 
L 340.239745 288.527683 
L 340.471807 289.28536 
L 340.703869 288.540125 
L 340.935931 289.641637 
L 341.167993 289.287955 
L 341.400055 288.729913 
L 341.632116 288.792775 
L 341.864178 288.709382 
L 342.09624 289.068888 
L 342.792426 288.060974 
L 343.024488 287.228787 
L 343.256549 286.999739 
L 343.488611 286.589606 
L 343.720673 286.488688 
L 344.184797 285.315902 
L 344.416859 285.121384 
L 344.648921 285.2916 
L 344.880983 284.252232 
L 345.113044 284.292159 
L 345.345106 283.360595 
L 345.577168 283.054224 
L 346.041292 283.037066 
L 346.273354 283.323185 
L 346.505416 283.388888 
L 346.737477 283.902788 
L 346.969539 283.677643 
L 347.201601 284.067297 
L 347.433663 282.779117 
L 347.665725 284.645302 
L 347.897787 284.869855 
L 348.36191 286.330159 
L 349.058096 288.001141 
L 349.290158 288.17683 
L 349.52222 289.288232 
L 350.218405 288.761048 
L 350.450467 287.970822 
L 350.682529 288.141452 
L 350.914591 286.61732 
L 351.146653 286.527272 
L 351.378715 285.816333 
L 351.610777 285.628874 
L 352.0749 284.939647 
L 352.306962 286.286091 
L 352.539024 286.34424 
L 352.771086 291.75151 
L 353.003148 291.270861 
L 353.23521 284.852244 
L 353.699333 284.278914 
L 354.163457 284.295963 
L 354.395519 285.765542 
L 354.627581 285.480846 
L 354.859643 286.650035 
L 355.091704 288.440668 
L 355.323766 291.251489 
L 355.555828 285.607692 
L 355.78789 287.711588 
L 356.716138 288.313719 
L 356.948199 289.659641 
L 357.180261 289.737212 
L 357.412323 289.216617 
L 357.644385 289.372979 
L 357.876447 289.187083 
L 358.804694 286.81492 
L 359.036756 286.794243 
L 359.268818 286.278642 
L 359.50088 285.410045 
L 359.732942 285.010623 
L 359.965004 284.929367 
L 360.197065 283.667374 
L 360.429127 283.548087 
L 360.661189 282.858906 
L 360.893251 282.752094 
L 361.125313 282.870728 
L 361.589437 283.666526 
L 361.821498 283.812509 
L 362.285622 289.363337 
L 362.517684 289.820231 
L 362.749746 291.518628 
L 362.981808 287.226316 
L 363.21387 286.739685 
L 363.910055 289.977643 
L 364.142117 289.875744 
L 364.606241 290.35343 
L 364.838303 288.998575 
L 365.302426 289.572623 
L 365.534488 289.587466 
L 365.998612 287.467892 
L 366.230674 287.747297 
L 366.462736 287.56488 
L 366.926859 288.65489 
L 367.158921 288.237486 
L 367.390983 285.723616 
L 367.623045 286.396482 
L 367.855107 286.234696 
L 368.087169 285.522636 
L 368.319231 285.5994 
L 368.551292 283.993867 
L 368.783354 283.408716 
L 369.247478 283.97919 
L 369.47954 283.696448 
L 369.711602 284.496178 
L 369.943664 283.450729 
L 370.175726 283.871126 
L 370.407787 283.917603 
L 370.871911 285.097686 
L 371.103973 285.176049 
L 371.336035 286.368291 
L 371.568097 286.811049 
L 372.03222 287.981283 
L 372.264282 289.558888 
L 372.496344 289.60179 
L 372.728406 289.292324 
L 373.19253 289.170395 
L 373.888715 287.020713 
L 374.120777 286.880187 
L 374.352839 286.87721 
L 374.816963 288.21629 
L 375.049025 282.856723 
L 375.281086 286.061128 
L 375.74521 286.032563 
L 376.209334 289.665174 
L 376.441396 289.093802 
L 376.673458 288.874971 
L 376.90552 289.097788 
L 377.137581 284.614134 
L 377.369643 288.019693 
L 377.601705 286.996376 
L 377.833767 287.610793 
L 378.065829 285.13944 
L 378.297891 285.972446 
L 378.529953 285.490885 
L 378.762014 285.700291 
L 379.226138 287.408591 
L 379.4582 288.242852 
L 379.690262 288.561001 
L 379.922324 289.92362 
L 380.154386 288.816704 
L 380.386447 289.557209 
L 380.618509 289.64764 
L 380.850571 289.287073 
L 381.314695 287.53084 
L 381.546757 288.968845 
L 381.778819 286.774066 
L 382.475004 285.618417 
L 382.707066 286.573891 
L 382.939128 286.797025 
L 383.17119 290.988849 
L 383.403252 289.857182 
L 383.635314 291.374777 
L 384.099437 291.058775 
L 384.563561 291.231039 
L 384.795623 290.812032 
L 385.259747 290.724361 
L 385.491808 284.330798 
L 385.72387 289.24502 
L 385.955932 283.124766 
L 386.652118 286.514944 
L 386.88418 286.881879 
L 387.116241 287.662997 
L 387.348303 287.906854 
L 387.580365 289.869248 
L 387.812427 288.927813 
L 388.044489 289.923792 
L 388.276551 290.239949 
L 388.740675 289.913895 
L 388.972736 288.884999 
L 389.204798 290.155089 
L 389.43686 288.088361 
L 389.668922 287.833799 
L 390.365108 286.195092 
L 390.597169 287.11541 
L 390.829231 286.490316 
L 391.061293 286.530044 
L 391.525417 284.605018 
L 391.989541 286.011487 
L 392.221602 285.706608 
L 392.453664 284.985019 
L 392.685726 286.174945 
L 392.917788 285.949044 
L 393.14985 286.611384 
L 393.381912 286.218584 
L 393.613974 286.679973 
L 394.310159 286.782583 
L 395.006345 287.683248 
L 395.238407 289.254917 
L 395.470469 289.343683 
L 395.70253 288.301944 
L 395.934592 289.059524 
L 396.398716 289.500464 
L 396.630778 288.750607 
L 396.86284 290.684896 
L 397.094902 288.690311 
L 397.326963 288.839956 
L 397.559025 289.163865 
L 398.023149 288.383591 
L 398.255211 289.337311 
L 398.487273 289.523204 
L 398.487273 289.523204 
" style="fill:none;stroke:#1f77b4;stroke-linecap:square;stroke-width:1.5;"/>
   </g>
   <g id="line2d_17">
    <path clip-path="url(#pdb89ef7b2a)" d="M 73.832727 70.726833 
L 74.296851 73.973263 
L 74.760975 69.144779 
L 75.225098 63.306559 
L 75.689222 59.046304 
L 75.921284 58.403453 
L 76.153346 56.455717 
L 76.385408 56.116322 
L 76.849531 53.568 
L 77.313655 54.247842 
L 77.545717 54.451244 
L 77.777779 55.188493 
L 78.009841 56.417362 
L 78.938088 64.726801 
L 79.634274 73.273052 
L 80.098398 78.120212 
L 80.794583 86.207764 
L 81.026645 87.298654 
L 81.258707 87.535124 
L 81.490769 88.266289 
L 81.954892 91.18877 
L 82.186954 90.09762 
L 82.419016 90.388386 
L 82.651078 89.866779 
L 82.88314 89.015721 
L 83.579325 85.136989 
L 83.811387 84.59948 
L 84.507573 79.647474 
L 84.739635 80.020167 
L 84.971697 79.264577 
L 85.203759 79.864273 
L 85.667882 82.716819 
L 86.364068 90.585883 
L 86.828192 94.439299 
L 87.060253 95.001163 
L 87.292315 105.45968 
L 87.524377 102.824553 
L 87.756439 108.396184 
L 87.988501 109.400153 
L 88.220563 109.439679 
L 88.452625 111.424131 
L 88.684686 117.61427 
L 89.14881 119.443534 
L 89.380872 112.277284 
L 89.612934 110.961648 
L 90.30912 126.424561 
L 90.541181 124.62977 
L 90.773243 109.079595 
L 91.005305 111.898909 
L 91.237367 108.855833 
L 91.469429 114.918629 
L 91.701491 113.107258 
L 91.933553 105.919314 
L 92.165614 110.019492 
L 92.397676 109.212737 
L 92.629738 114.820576 
L 92.8618 110.27985 
L 93.093862 110.701355 
L 93.325924 108.185942 
L 93.790047 110.552899 
L 94.022109 101.888442 
L 94.254171 107.518798 
L 94.486233 105.99807 
L 94.718295 107.878516 
L 94.950357 107.214536 
L 95.182419 107.050276 
L 95.41448 108.372511 
L 95.878604 116.613536 
L 96.110666 113.863794 
L 96.342728 104.080768 
L 96.57479 110.330657 
L 96.806852 108.310288 
L 97.038914 109.541829 
L 97.270975 109.162281 
L 97.503037 105.273911 
L 97.735099 110.535454 
L 97.967161 118.380654 
L 98.199223 108.888757 
L 98.431285 108.498049 
L 98.663347 101.478129 
L 99.12747 94.276383 
L 99.359532 94.782608 
L 99.591594 91.221337 
L 99.823656 90.75189 
L 100.055718 89.829773 
L 100.28778 89.883313 
L 100.519841 90.599666 
L 100.983965 94.175384 
L 101.448089 99.411415 
L 101.680151 105.163042 
L 102.144274 109.738573 
L 102.376336 117.05291 
L 102.608398 114.99934 
L 102.84046 134.604308 
L 103.072522 129.427598 
L 103.304584 138.4861 
L 103.536646 136.467805 
L 104.000769 122.354075 
L 104.232831 126.921425 
L 104.464893 136.13279 
L 104.929017 97.225085 
L 105.161079 116.720227 
L 105.393141 114.527568 
L 105.625202 117.448967 
L 106.089326 98.8353 
L 106.321388 98.392835 
L 106.55345 100.278809 
L 106.785512 100.142462 
L 107.017574 100.188874 
L 107.249635 95.527106 
L 107.945821 89.317318 
L 108.177883 89.116564 
L 108.409945 89.188174 
L 108.642007 90.536841 
L 108.874068 92.649349 
L 109.338192 101.354786 
L 109.802316 104.993336 
L 110.26644 111.575899 
L 110.498502 129.929566 
L 110.730563 126.972509 
L 110.962625 135.15392 
L 111.194687 131.883735 
L 111.426749 120.961856 
L 111.658811 151.29512 
L 111.890873 124.165536 
L 112.122935 125.675362 
L 112.354996 122.692013 
L 112.587058 144.047404 
L 112.81912 119.563374 
L 113.051182 125.549049 
L 113.283244 126.558951 
L 113.515306 118.820639 
L 113.747368 104.302133 
L 113.979429 103.894188 
L 114.211491 104.944588 
L 114.443553 99.59671 
L 114.675615 102.395276 
L 114.907677 101.077343 
L 115.603862 94.998179 
L 115.835924 94.980297 
L 116.067986 95.416467 
L 116.300048 96.588262 
L 116.53211 98.818552 
L 116.996234 105.071621 
L 117.228296 106.614 
L 117.460357 109.121589 
L 117.692419 108.649287 
L 117.924481 113.738566 
L 118.156543 110.906805 
L 118.388605 126.901279 
L 118.620667 134.784376 
L 118.852729 133.084324 
L 119.08479 120.962522 
L 119.316852 131.419484 
L 119.548914 148.37775 
L 119.780976 122.727485 
L 120.013038 123.616547 
L 120.2451 135.199035 
L 120.477162 118.236064 
L 120.709223 125.497365 
L 120.941285 128.684155 
L 121.173347 115.738618 
L 121.405409 122.91235 
L 121.637471 101.967058 
L 121.869533 101.855306 
L 122.101595 93.424038 
L 122.333657 96.970677 
L 122.565718 98.637218 
L 122.79778 92.875717 
L 123.029842 94.49562 
L 123.261904 93.412879 
L 123.493966 93.379338 
L 123.95809 95.644682 
L 124.190151 98.15105 
L 124.422213 97.451934 
L 124.654275 105.952648 
L 124.886337 107.894777 
L 125.118399 102.294962 
L 125.350461 111.785553 
L 125.582523 113.112133 
L 125.814584 110.531209 
L 126.278708 134.67421 
L 126.51077 132.331419 
L 126.742832 121.086779 
L 126.974894 152.446454 
L 127.206956 120.938553 
L 127.439017 122.708242 
L 127.671079 123.330003 
L 127.903141 106.768462 
L 128.135203 118.130515 
L 128.599327 126.393766 
L 129.527574 91.753326 
L 129.991698 101.094824 
L 130.22376 99.303832 
L 130.455822 93.38632 
L 130.687884 94.6305 
L 130.919945 93.698066 
L 131.152007 93.245036 
L 131.384069 93.206402 
L 131.848193 96.186252 
L 132.080255 95.85394 
L 132.312317 103.248904 
L 132.544378 103.660804 
L 132.77644 101.096481 
L 133.008502 112.261609 
L 133.240564 108.06966 
L 133.472626 107.382066 
L 133.704688 116.612261 
L 133.93675 131.702399 
L 134.168811 130.016619 
L 134.400873 121.803522 
L 134.632935 151.854229 
L 134.864997 145.918291 
L 135.097059 123.464876 
L 135.329121 131.498497 
L 135.561183 115.235948 
L 135.793245 123.996701 
L 136.257368 131.135385 
L 136.48943 109.471735 
L 136.721492 121.825093 
L 136.953554 104.53922 
L 137.185616 104.78789 
L 137.417678 98.868122 
L 137.649739 100.684853 
L 138.113863 93.915016 
L 138.345925 96.354069 
L 138.577987 94.083082 
L 138.810049 93.510214 
L 139.042111 93.625176 
L 139.274172 94.903771 
L 139.506234 99.445351 
L 139.738296 96.31437 
L 139.970358 103.974165 
L 140.20242 103.869919 
L 140.434482 101.373103 
L 140.666544 111.586989 
L 140.898605 111.870389 
L 141.130667 109.73353 
L 141.594791 138.466519 
L 141.826853 132.271123 
L 142.058915 135.423439 
L 142.290977 114.550851 
L 142.7551 153.787948 
L 142.987162 148.826398 
L 143.219224 119.452485 
L 143.451286 121.672269 
L 143.683348 122.016806 
L 143.91541 128.155047 
L 144.147472 113.644789 
L 144.379533 117.186627 
L 144.611595 97.002817 
L 144.843657 103.279778 
L 145.075719 104.731079 
L 145.539843 101.524248 
L 146.003966 94.376833 
L 146.236028 96.281287 
L 146.46809 95.601215 
L 146.700152 95.698237 
L 146.932214 96.811814 
L 147.164276 99.941391 
L 147.396338 98.193642 
L 147.6284 106.142343 
L 147.860461 106.935784 
L 148.092523 93.110371 
L 148.324585 112.370609 
L 148.556647 112.140422 
L 148.788709 109.645766 
L 149.020771 118.472455 
L 149.252833 131.996603 
L 149.484894 130.860141 
L 149.716956 121.447948 
L 149.949018 139.088089 
L 150.18108 126.250364 
L 150.413142 128.416137 
L 150.645204 128.98641 
L 150.877266 150.440598 
L 151.341389 129.610885 
L 151.573451 125.994111 
L 151.805513 129.413337 
L 152.269637 107.919137 
L 152.501699 108.296535 
L 152.73376 111.174683 
L 153.429946 104.971764 
L 153.662008 94.223665 
L 153.89407 101.125418 
L 154.126132 97.717711 
L 154.358194 97.229813 
L 154.590255 97.684125 
L 154.822317 100.519522 
L 155.054379 96.068855 
L 155.286441 106.079768 
L 155.518503 104.907789 
L 155.750565 100.467703 
L 155.982627 111.849311 
L 156.214688 111.134629 
L 156.44675 109.184177 
L 156.910874 132.645924 
L 157.142936 131.17975 
L 157.374998 119.609389 
L 157.60706 155.025287 
L 157.839121 133.058081 
L 158.071183 128.20477 
L 158.303245 128.501043 
L 158.535307 125.028206 
L 158.767369 153.272664 
L 158.999431 125.629997 
L 159.231493 120.793101 
L 159.463554 128.656806 
L 159.927678 107.380403 
L 160.15974 107.680627 
L 160.391802 108.585304 
L 160.623864 103.658496 
L 160.855926 103.162739 
L 161.320049 95.457644 
L 161.552111 99.3723 
L 161.784173 97.868252 
L 162.016235 98.005227 
L 162.248297 101.08873 
L 162.480359 101.891459 
L 162.712421 96.26839 
L 162.944482 107.687455 
L 163.176544 105.611126 
L 163.408606 100.641077 
L 163.640668 113.476112 
L 163.87273 112.714088 
L 164.104792 110.252909 
L 164.568915 138.115754 
L 164.800977 138.161203 
L 165.033039 131.446781 
L 165.265101 143.843557 
L 165.497163 128.744702 
L 165.729225 131.481193 
L 165.961287 146.172319 
L 166.42541 113.435024 
L 166.657472 128.841814 
L 167.121596 131.84448 
L 167.58572 106.925034 
L 167.817782 109.716595 
L 168.049843 109.497413 
L 168.281905 101.453048 
L 168.513967 103.361971 
L 168.746029 104.107116 
L 168.978091 96.09744 
L 169.210153 99.430346 
L 169.442215 99.286376 
L 169.674276 98.367186 
L 169.906338 100.102405 
L 170.1384 96.92909 
L 170.370462 95.807158 
L 170.602524 106.884476 
L 170.834586 106.760538 
L 171.066648 106.02641 
L 171.298709 113.289878 
L 171.762833 113.180282 
L 171.994895 131.196305 
L 172.226957 133.837752 
L 172.459019 141.795128 
L 172.691081 139.953639 
L 172.923143 129.428167 
L 173.155204 159.522447 
L 173.387266 148.872716 
L 173.619328 165.237562 
L 173.85139 129.721176 
L 174.083452 116.540283 
L 174.315514 131.32616 
L 174.547576 133.318382 
L 174.779637 134.142987 
L 175.243761 109.704677 
L 175.475823 112.677686 
L 175.707885 112.815383 
L 175.939947 101.085894 
L 176.172009 105.0475 
L 176.636132 97.557013 
L 176.868194 95.183644 
L 177.100256 99.300236 
L 177.332318 99.80777 
L 177.56438 101.052437 
L 177.796442 96.834602 
L 178.028503 97.060322 
L 178.260565 108.443617 
L 178.492627 109.160585 
L 178.724689 106.243991 
L 178.956751 110.351915 
L 179.188813 96.855758 
L 179.652937 125.241419 
L 179.884998 126.582279 
L 180.11706 143.153944 
L 180.581184 132.262836 
L 180.813246 113.755176 
L 181.045308 151.382554 
L 181.27737 161.907041 
L 181.509431 127.071341 
L 181.741493 110.353989 
L 182.205617 129.625959 
L 182.437679 132.834142 
L 182.901803 109.814776 
L 183.133864 111.714032 
L 183.365926 103.682059 
L 183.597988 101.524514 
L 184.062112 104.514569 
L 184.526236 96.180367 
L 184.758297 102.217762 
L 185.222421 103.67818 
L 185.454483 105.315698 
L 185.686545 98.899293 
L 185.918607 107.860535 
L 186.150669 110.322721 
L 186.382731 108.615992 
L 186.614792 115.175186 
L 186.846854 104.865281 
L 187.310978 127.440801 
L 187.54304 130.329119 
L 187.775102 143.960687 
L 188.007164 138.043073 
L 188.471287 117.706444 
L 188.703349 123.516669 
L 188.935411 153.105345 
L 189.167473 123.080455 
L 189.399535 116.01394 
L 189.863658 129.501075 
L 190.09572 131.959217 
L 190.327782 113.547393 
L 190.559844 108.39865 
L 190.791906 111.491905 
L 191.023968 97.71948 
L 191.25603 105.865944 
L 191.488091 105.229407 
L 191.952215 102.94998 
L 192.184277 97.225255 
L 192.416339 102.025403 
L 192.648401 102.595954 
L 192.880463 103.847609 
L 193.112525 96.385226 
L 193.344586 98.263993 
L 193.576648 109.495092 
L 193.80871 111.34926 
L 194.040772 109.785732 
L 194.272834 118.415386 
L 194.504896 105.920653 
L 194.736958 117.480698 
L 194.969019 139.87057 
L 195.201081 129.406693 
L 195.433143 143.656925 
L 195.665205 139.461699 
L 195.897267 128.349864 
L 196.129329 110.269203 
L 196.361391 111.292964 
L 196.593452 155.983901 
L 197.057576 125.839917 
L 197.289638 131.111703 
L 197.5217 132.649618 
L 197.753762 135.074631 
L 197.985824 122.697464 
L 198.217886 132.570816 
L 198.682009 101.268113 
L 198.914071 107.702095 
L 199.610257 105.14491 
L 199.842319 98.985496 
L 200.07438 103.786973 
L 200.306442 104.059353 
L 200.538504 105.061167 
L 200.770566 99.370725 
L 201.002628 99.29431 
L 201.23469 109.419699 
L 201.466752 112.594479 
L 201.698813 106.716726 
L 201.930875 116.814715 
L 202.162937 99.805828 
L 202.394999 115.464077 
L 202.627061 116.16953 
L 203.091185 145.114169 
L 203.323246 143.945667 
L 203.555308 139.071783 
L 203.78737 142.034891 
L 204.019432 116.483658 
L 204.251494 157.909507 
L 204.715618 137.055391 
L 204.94768 134.275812 
L 205.411803 138.418459 
L 205.643865 125.028123 
L 205.875927 133.990184 
L 206.340051 103.868361 
L 206.572113 111.788163 
L 207.036236 107.311893 
L 207.268298 108.695424 
L 207.50036 101.098122 
L 207.732422 105.958278 
L 207.964484 106.249287 
L 208.196546 107.183583 
L 208.428607 101.108172 
L 208.660669 101.298941 
L 209.124793 112.93434 
L 209.356855 115.554639 
L 209.588917 115.932531 
L 209.820979 113.20983 
L 210.05304 117.851147 
L 210.285102 119.963842 
L 210.517164 134.232977 
L 210.981288 146.668868 
L 211.21335 144.679695 
L 211.445412 131.40045 
L 211.677474 130.924322 
L 211.909535 119.702222 
L 212.141597 128.351075 
L 212.373659 126.302269 
L 212.605721 136.032016 
L 212.837783 138.483933 
L 213.069845 139.49708 
L 213.301907 117.733674 
L 213.533968 117.215501 
L 213.76603 115.351004 
L 213.998092 104.44258 
L 214.230154 110.607612 
L 214.694278 106.97094 
L 215.390463 96.241184 
L 215.622525 105.059535 
L 215.854587 106.349157 
L 216.086649 99.265344 
L 216.318711 100.801704 
L 216.550773 111.620679 
L 217.246958 117.473348 
L 217.47902 116.11944 
L 217.711082 118.90172 
L 217.943144 119.13432 
L 218.175206 133.678321 
L 218.407268 131.154287 
L 218.639329 152.380312 
L 219.103453 140.967189 
L 219.335515 141.183595 
L 219.567577 137.148029 
L 219.799639 136.901431 
L 220.031701 129.495239 
L 220.263762 136.764752 
L 220.727886 140.556734 
L 220.959948 118.236992 
L 221.19201 135.879267 
L 221.656134 101.053415 
L 221.888195 113.329741 
L 222.120257 100.730717 
L 222.352319 108.672676 
L 222.584381 106.69655 
L 222.816443 98.074705 
L 223.048505 96.477028 
L 223.280567 95.87358 
L 223.976752 101.991581 
L 224.440876 114.513113 
L 224.905 118.573925 
L 225.137062 114.612748 
L 225.369123 107.477748 
L 225.833247 133.145686 
L 226.297371 150.845727 
L 226.529433 147.643077 
L 226.761495 146.306765 
L 226.993556 132.51268 
L 227.225618 132.951171 
L 227.45768 135.928134 
L 227.689742 126.48001 
L 227.921804 137.020576 
L 228.153866 140.601737 
L 228.385928 142.23492 
L 228.617989 128.450964 
L 228.850051 134.985355 
L 229.314175 108.020819 
L 229.546237 113.252695 
L 229.778299 102.712842 
L 230.010361 108.411445 
L 230.706546 97.013996 
L 230.938608 108.384806 
L 231.17067 109.837547 
L 231.402732 102.234124 
L 231.634794 102.870546 
L 231.866856 116.183425 
L 232.098917 115.994506 
L 232.330979 119.212554 
L 232.563041 118.406273 
L 232.795103 121.995636 
L 233.027165 113.187189 
L 233.955412 151.040517 
L 234.187474 146.557833 
L 234.651598 130.915668 
L 234.88366 141.164662 
L 235.115722 140.437615 
L 235.347783 130.785404 
L 235.811907 141.073279 
L 236.043969 142.136372 
L 236.276031 133.572388 
L 236.508093 138.079965 
L 236.972217 108.177473 
L 237.204278 115.365334 
L 237.43634 99.696765 
L 237.668402 111.127428 
L 237.900464 105.702671 
L 238.132526 111.39041 
L 238.364588 98.612742 
L 239.292835 103.422999 
L 239.524897 115.946866 
L 239.756959 115.828613 
L 239.989021 119.149308 
L 240.221083 119.674048 
L 240.453144 116.876091 
L 240.917268 121.339988 
L 241.14933 142.500481 
L 241.381392 132.891971 
L 241.613454 149.543375 
L 241.845516 146.350078 
L 242.309639 132.249394 
L 242.541701 140.284003 
L 242.773763 141.915561 
L 243.005825 141.186702 
L 243.237887 139.896944 
L 243.702011 142.213113 
L 244.166134 119.825428 
L 244.630258 109.489266 
L 244.86232 115.075201 
L 245.094382 109.907531 
L 245.326444 110.409317 
L 245.558505 108.342109 
L 245.790567 108.447314 
L 246.254691 99.957959 
L 246.486753 100.710746 
L 246.718815 100.044845 
L 246.950877 102.712301 
L 247.415 115.446126 
L 247.647062 118.466934 
L 247.879124 118.468638 
L 248.111186 116.574392 
L 248.343248 124.26874 
L 248.57531 121.291907 
L 248.807371 120.470449 
L 249.039433 127.31698 
L 249.271495 149.508038 
L 249.503557 147.252175 
L 249.735619 141.270071 
L 249.967681 131.895258 
L 250.199743 142.156633 
L 250.431805 137.302303 
L 250.663866 126.585743 
L 251.12799 137.308943 
L 251.360052 140.476979 
L 251.592114 132.338396 
L 251.824176 116.225977 
L 252.056238 113.901641 
L 252.288299 108.553879 
L 252.520361 114.827653 
L 253.216547 110.634517 
L 253.448609 107.949495 
L 253.680671 100.325122 
L 253.912732 98.893747 
L 254.144794 100.814153 
L 254.376856 99.922334 
L 254.608918 103.022571 
L 255.073042 114.97751 
L 255.305104 118.100265 
L 255.537166 118.683806 
L 256.001289 108.963319 
L 256.233351 120.34218 
L 256.465413 120.017344 
L 256.697475 126.756592 
L 256.929537 148.403719 
L 257.161599 145.511109 
L 257.39366 140.198748 
L 257.625722 131.049587 
L 257.857784 141.147822 
L 258.089846 138.628527 
L 258.321908 139.538961 
L 258.55397 138.516716 
L 258.786032 135.629462 
L 259.018093 140.367039 
L 259.250155 127.286182 
L 259.482217 124.090415 
L 259.946341 99.416775 
L 260.178403 110.6618 
L 260.410465 113.841626 
L 260.874588 110.30805 
L 261.10665 112.235353 
L 261.338712 101.510286 
L 261.570774 99.862065 
L 262.034898 104.629118 
L 262.499021 113.187491 
L 262.731083 114.423803 
L 262.963145 118.103828 
L 263.195207 113.827647 
L 263.427269 113.557378 
L 263.659331 109.113589 
L 263.891393 119.829028 
L 264.123454 119.457157 
L 264.355516 126.734146 
L 264.587578 147.753467 
L 264.81964 145.345652 
L 265.051702 141.255177 
L 265.283764 142.591885 
L 265.515826 142.372949 
L 265.747887 136.673864 
L 265.979949 137.583856 
L 266.212011 136.339455 
L 266.676135 143.193364 
L 266.908197 126.48535 
L 267.140259 125.166371 
L 267.604382 101.362206 
L 268.068506 115.433706 
L 268.53263 111.580205 
L 268.996754 103.833259 
L 269.228815 104.727609 
L 269.460877 97.453019 
L 269.692939 101.346039 
L 269.925001 110.864975 
L 270.157063 108.851031 
L 270.389125 114.646841 
L 270.853248 119.105711 
L 271.08531 114.861508 
L 271.317372 108.45516 
L 271.549434 119.933971 
L 271.781496 120.004011 
L 272.24562 149.714127 
L 272.477681 147.956381 
L 272.709743 142.524595 
L 272.941805 133.46239 
L 273.173867 143.715916 
L 273.405929 141.280408 
L 273.637991 145.789125 
L 273.870053 144.562064 
L 274.102114 144.141156 
L 274.334176 146.471531 
L 275.262424 101.014896 
L 275.494486 110.487911 
L 275.726548 114.646812 
L 276.422733 104.329101 
L 276.654795 105.325556 
L 276.886857 99.225855 
L 277.118919 99.691212 
L 277.350981 100.881296 
L 277.583042 110.599747 
L 277.815104 108.171385 
L 278.047166 115.180389 
L 278.51129 119.561158 
L 278.743352 114.724405 
L 278.975414 112.818496 
L 279.207475 122.795415 
L 279.439537 125.386606 
L 279.903661 150.603068 
L 280.367785 144.277412 
L 280.599847 144.832368 
L 280.831909 143.085777 
L 281.06397 142.334623 
L 281.296032 136.839405 
L 281.528094 144.600805 
L 281.760156 145.28035 
L 281.992218 146.816518 
L 282.22428 123.685783 
L 282.456342 129.388591 
L 282.688403 107.236121 
L 282.920465 106.445358 
L 283.384589 113.242739 
L 283.616651 109.820613 
L 283.848713 109.2345 
L 284.080775 110.638954 
L 284.312836 108.46995 
L 284.544898 101.253088 
L 284.77696 102.062379 
L 285.009022 103.772497 
L 285.241084 109.980769 
L 285.705208 115.782439 
L 286.169331 120.720545 
L 286.401393 116.629279 
L 286.865517 115.044603 
L 287.561703 148.323183 
L 287.793764 149.332582 
L 288.025826 145.86019 
L 288.257888 145.953367 
L 288.48995 141.336069 
L 288.722012 144.589504 
L 288.954074 140.556035 
L 289.186136 138.970141 
L 289.418197 143.244429 
L 289.650259 144.916261 
L 289.882321 123.864689 
L 290.114383 128.484259 
L 290.578507 101.600317 
L 290.810569 111.941233 
L 291.04263 115.313216 
L 291.274692 113.801629 
L 291.506754 110.027843 
L 291.738816 109.72231 
L 291.970878 108.662758 
L 292.20294 109.233308 
L 292.435002 99.975327 
L 292.667063 109.936779 
L 293.363249 113.563041 
L 293.595311 118.273763 
L 293.827373 119.929163 
L 294.059435 111.090215 
L 294.291497 119.821458 
L 294.523558 109.536752 
L 294.987682 139.807992 
L 295.219744 143.810682 
L 295.451806 158.607824 
L 295.683868 155.798875 
L 295.91593 145.325267 
L 296.147991 142.951939 
L 296.380053 137.690335 
L 296.612115 136.548455 
L 296.844177 132.778551 
L 297.076239 144.164654 
L 297.308301 146.331094 
L 297.540363 140.536347 
L 297.772424 129.906848 
L 298.004486 108.503655 
L 298.236548 112.050407 
L 298.700672 112.823885 
L 298.932734 112.63154 
L 299.164796 110.690656 
L 299.396857 110.065498 
L 299.628919 108.473496 
L 299.860981 108.005068 
L 300.093043 110.342508 
L 300.325105 109.864582 
L 300.557167 110.891031 
L 301.485414 120.477353 
L 301.949538 106.542721 
L 302.1816 111.157604 
L 302.645724 137.558743 
L 302.877785 140.521097 
L 303.109847 157.138933 
L 303.573971 150.930741 
L 303.806033 137.637497 
L 304.270157 146.565078 
L 304.502218 140.911465 
L 304.966342 149.094474 
L 305.198404 145.619662 
L 305.430466 131.439256 
L 305.662528 110.152365 
L 305.89459 113.428295 
L 306.126652 110.515279 
L 306.358713 115.788185 
L 306.822837 112.262888 
L 307.054899 109.744578 
L 307.286961 105.774209 
L 307.519023 108.311975 
L 307.751085 108.963703 
L 307.983146 107.971024 
L 308.215208 109.669025 
L 309.143456 121.05425 
L 309.375518 112.599173 
L 309.607579 112.719498 
L 309.839641 111.541886 
L 310.303765 137.338516 
L 310.535827 140.786478 
L 310.767889 157.672353 
L 310.999951 152.286098 
L 311.232012 151.787455 
L 311.464074 142.481346 
L 311.696136 141.753543 
L 311.928198 142.461491 
L 312.16026 142.06016 
L 312.392322 145.005729 
L 312.624384 143.967253 
L 313.088507 127.84586 
L 313.320569 110.581491 
L 313.552631 118.735277 
L 313.784693 111.945117 
L 314.016755 115.224605 
L 314.248817 114.083863 
L 314.945002 108.992225 
L 315.177064 109.096708 
L 315.409126 108.247477 
L 315.641188 109.908614 
L 315.87325 109.85617 
L 316.337373 116.085397 
L 316.569435 116.418396 
L 316.801497 121.195072 
L 317.033559 112.546294 
L 317.265621 114.858326 
L 317.497683 115.40604 
L 318.193868 146.724322 
L 318.42593 157.294264 
L 318.657992 153.488104 
L 318.890054 152.403775 
L 319.122116 134.188538 
L 319.354178 144.249681 
L 319.58624 133.759525 
L 319.818301 142.864819 
L 320.050363 143.789479 
L 320.282425 143.168816 
L 320.514487 139.946725 
L 320.746549 128.902055 
L 320.978611 109.435767 
L 321.210673 118.665889 
L 321.442734 108.341499 
L 321.906858 114.527491 
L 322.370982 110.262358 
L 322.603044 110.530722 
L 322.835106 108.130362 
L 323.067167 108.929181 
L 323.299229 110.587142 
L 323.531291 114.117855 
L 323.763353 114.322021 
L 323.995415 116.102844 
L 324.227477 114.219828 
L 324.459539 120.622477 
L 324.6916 122.378674 
L 324.923662 112.846734 
L 325.155724 112.843053 
L 325.619848 142.242095 
L 325.85191 140.937418 
L 326.083972 154.527573 
L 326.316034 151.22708 
L 326.548095 149.958728 
L 326.780157 134.511722 
L 327.012219 142.539275 
L 327.244281 134.200277 
L 327.476343 146.724523 
L 327.708405 147.130891 
L 327.940467 146.037046 
L 328.172528 143.123177 
L 328.40459 131.26719 
L 328.636652 112.200054 
L 328.868714 107.708632 
L 329.100776 113.32187 
L 329.5649 115.691161 
L 329.796961 114.014987 
L 330.029023 111.478867 
L 330.261085 110.363244 
L 330.493147 110.389126 
L 330.725209 109.568753 
L 330.957271 109.789805 
L 331.189333 110.491492 
L 331.421395 111.553166 
L 331.653456 114.851303 
L 331.885518 112.619119 
L 332.11758 120.541767 
L 332.349642 120.922616 
L 332.581704 113.244095 
L 332.813766 111.913502 
L 333.509951 145.507175 
L 333.742013 154.017849 
L 333.974075 150.963182 
L 334.206137 144.764378 
L 334.438199 146.995916 
L 334.670261 135.086201 
L 335.134384 144.800563 
L 335.366446 143.813751 
L 335.598508 146.752787 
L 335.83057 131.683825 
L 336.062632 128.981222 
L 336.294694 110.696195 
L 336.526755 103.924279 
L 336.758817 112.926844 
L 336.990879 111.394784 
L 337.222941 112.671713 
L 337.455003 117.37188 
L 338.151189 108.939017 
L 338.38325 110.391352 
L 338.615312 111.10539 
L 338.847374 110.448997 
L 339.079436 116.169812 
L 339.311498 117.19933 
L 339.775622 115.722749 
L 340.007683 119.501493 
L 340.239745 110.691087 
L 340.471807 112.506413 
L 340.703869 122.232561 
L 340.935931 121.022929 
L 341.167993 142.497455 
L 341.400055 151.263387 
L 341.632116 148.783586 
L 341.864178 143.38161 
L 342.09624 145.565581 
L 342.328302 136.176404 
L 342.792426 148.900689 
L 343.024488 147.290236 
L 343.256549 151.878751 
L 343.488611 147.301285 
L 343.952735 118.611362 
L 344.184797 114.04778 
L 344.416859 121.287516 
L 344.648921 117.234886 
L 344.880983 117.291421 
L 345.113044 115.923954 
L 345.80923 107.084869 
L 346.041292 111.380913 
L 346.273354 110.566211 
L 346.505416 108.990344 
L 346.737477 112.199923 
L 346.969539 112.27029 
L 347.201601 111.060604 
L 347.433663 116.59532 
L 347.897787 104.933331 
L 348.36191 124.623552 
L 348.593972 120.274407 
L 349.058096 154.350369 
L 349.290158 151.998441 
L 349.52222 154.117718 
L 349.754282 152.492487 
L 349.986343 148.01792 
L 350.218405 147.356589 
L 350.450467 145.208622 
L 350.914591 151.615075 
L 351.146653 148.30446 
L 351.610777 112.894282 
L 351.842838 111.601392 
L 352.0749 115.767381 
L 352.306962 107.594344 
L 352.539024 116.560603 
L 352.771086 115.189496 
L 353.23521 109.840093 
L 353.467271 111.13385 
L 353.699333 107.460848 
L 353.931395 107.923441 
L 354.395519 116.073744 
L 354.627581 117.424213 
L 354.859643 115.492995 
L 355.091704 115.772114 
L 355.323766 118.438335 
L 355.555828 103.874992 
L 356.019952 122.783285 
L 356.252014 118.936465 
L 356.716138 150.973657 
L 356.948199 150.331762 
L 357.180261 151.356618 
L 357.412323 151.18514 
L 358.108509 143.603708 
L 358.572632 153.04072 
L 358.804694 147.174894 
L 359.268818 119.096394 
L 359.50088 117.21951 
L 359.732942 117.908037 
L 359.965004 110.118559 
L 360.197065 119.301042 
L 360.429127 117.797258 
L 360.661189 109.779924 
L 360.893251 111.852091 
L 361.357375 107.23515 
L 361.589437 108.368709 
L 361.821498 110.630052 
L 362.05356 111.215084 
L 362.285622 113.782302 
L 362.517684 113.315245 
L 362.749746 114.721254 
L 363.21387 108.294244 
L 363.445932 121.562013 
L 363.910055 128.586283 
L 364.374179 154.51956 
L 364.606241 155.513466 
L 364.838303 158.311531 
L 365.070365 155.098742 
L 365.302426 149.252423 
L 365.534488 148.805413 
L 365.76655 152.338796 
L 365.998612 149.660928 
L 366.230674 152.306226 
L 366.462736 134.602934 
L 366.694798 129.093408 
L 366.926859 113.52058 
L 367.158921 116.884294 
L 367.390983 115.637747 
L 367.623045 109.133064 
L 367.855107 119.266767 
L 368.087169 117.86374 
L 368.319231 110.593412 
L 368.551292 111.460348 
L 368.783354 110.826585 
L 369.015416 111.556847 
L 369.47954 114.5737 
L 369.711602 117.783276 
L 369.943664 118.160901 
L 370.175726 111.56239 
L 370.407787 119.196355 
L 370.639849 113.282163 
L 370.871911 112.657114 
L 371.103973 123.345793 
L 371.336035 117.106983 
L 372.03222 152.647069 
L 372.264282 160.98274 
L 372.728406 158.866159 
L 372.960468 151.043499 
L 373.19253 151.122021 
L 373.424592 149.337107 
L 373.656653 154.626917 
L 373.888715 156.887109 
L 374.120777 135.526249 
L 374.352839 126.965756 
L 374.584901 114.2594 
L 374.816963 117.842625 
L 375.049025 115.646763 
L 375.281086 108.060717 
L 375.513148 118.775329 
L 375.74521 108.927678 
L 375.977272 108.507631 
L 376.209334 111.412926 
L 376.441396 110.413159 
L 376.673458 109.960258 
L 377.137581 112.596256 
L 377.369643 113.643813 
L 377.601705 110.692139 
L 377.833767 111.133018 
L 378.065829 116.412913 
L 378.297891 111.83769 
L 378.529953 111.760359 
L 378.762014 122.245442 
L 378.994076 116.880416 
L 379.922324 154.408345 
L 380.154386 156.69427 
L 380.386447 155.120152 
L 380.618509 149.771514 
L 380.850571 150.429868 
L 381.082633 156.343963 
L 381.546757 155.396178 
L 381.778819 139.191928 
L 382.01088 133.896517 
L 382.242942 123.566433 
L 382.475004 121.454116 
L 382.707066 121.639879 
L 382.939128 110.641935 
L 383.17119 121.174079 
L 383.403252 117.615503 
L 383.635314 110.652709 
L 383.867375 109.811655 
L 384.099437 109.463928 
L 384.331499 107.890961 
L 384.563561 107.965755 
L 385.027685 110.597348 
L 385.259747 112.413214 
L 385.491808 111.780944 
L 385.72387 117.669072 
L 385.955932 110.689765 
L 386.187994 121.761573 
L 386.420056 107.919727 
L 386.652118 111.921868 
L 387.116241 142.288397 
L 387.348303 144.09875 
L 387.580365 158.590956 
L 388.044489 156.64593 
L 388.276551 151.88513 
L 388.508613 150.105385 
L 388.740675 155.640366 
L 389.204798 155.463305 
L 389.43686 149.948116 
L 389.668922 136.308955 
L 389.900984 103.882767 
L 390.133046 118.880848 
L 390.597169 100.488658 
L 390.829231 116.115809 
L 391.293355 107.327505 
L 391.525417 102.203104 
L 391.757479 104.687306 
L 391.989541 102.446428 
L 392.453664 106.402103 
L 392.685726 107.418458 
L 392.917788 106.547302 
L 393.381912 116.266584 
L 393.613974 108.298532 
L 393.846035 112.958319 
L 394.078097 108.943449 
L 394.310159 110.254383 
L 395.006345 152.227816 
L 395.238407 155.430436 
L 395.470469 152.169403 
L 395.70253 144.420211 
L 395.934592 147.501123 
L 396.166654 148.744368 
L 396.398716 151.072668 
L 396.86284 148.39618 
L 397.094902 149.779683 
L 397.326963 134.886484 
L 397.559025 110.779227 
L 397.791087 117.413862 
L 398.023149 107.62593 
L 398.255211 109.925364 
L 398.487273 114.589378 
L 398.487273 114.589378 
" style="fill:none;stroke:#ff7f0e;stroke-linecap:square;stroke-width:1.5;"/>
   </g>
   <g id="patch_3">
    <path d="M 57.6 307.584 
L 57.6 41.472 
" style="fill:none;stroke:#000000;stroke-linecap:square;stroke-linejoin:miter;stroke-width:0.8;"/>
   </g>
   <g id="patch_4">
    <path d="M 414.72 307.584 
L 414.72 41.472 
" style="fill:none;stroke:#000000;stroke-linecap:square;stroke-linejoin:miter;stroke-width:0.8;"/>
   </g>
   <g id="patch_5">
    <path d="M 57.6 307.584 
L 414.72 307.584 
" style="fill:none;stroke:#000000;stroke-linecap:square;stroke-linejoin:miter;stroke-width:0.8;"/>
   </g>
   <g id="patch_6">
    <path d="M 57.6 41.472 
L 414.72 41.472 
" style="fill:none;stroke:#000000;stroke-linecap:square;stroke-linejoin:miter;stroke-width:0.8;"/>
   </g>
  </g>
 </g>
 <defs>
  <clipPath id="pdb89ef7b2a">
   <rect height="266.112" width="357.12" x="57.6" y="41.472"/>
  </clipPath>
 </defs>
</svg>
