<?xml version="1.0" encoding="utf-8" standalone="no"?>
<!DOCTYPE svg PUBLIC "-//W3C//DTD SVG 1.1//EN"
  "http://www.w3.org/Graphics/SVG/1.1/DTD/svg11.dtd">
<!-- Created with matplotlib (https://matplotlib.org/) -->
<svg height="345.6pt" version="1.1" viewBox="0 0 460.8 345.6" width="460.8pt" xmlns="http://www.w3.org/2000/svg" xmlns:xlink="http://www.w3.org/1999/xlink">
 <defs>
  <style type="text/css">
*{stroke-linecap:butt;stroke-linejoin:round;}
  </style>
 </defs>
 <g id="figure_1">
  <g id="patch_1">
   <path d="M 0 345.6 
L 460.8 345.6 
L 460.8 0 
L 0 0 
z
" style="fill:#ffffff;"/>
  </g>
  <g id="axes_1">
   <g id="patch_2">
    <path d="M 57.6 307.584 
L 414.72 307.584 
L 414.72 41.472 
L 57.6 41.472 
z
" style="fill:#ffffff;"/>
   </g>
   <g id="matplotlib.axis_1">
    <g id="xtick_1">
     <g id="line2d_1">
      <defs>
       <path d="M 0 0 
L 0 3.5 
" id="mf4237ca5de" style="stroke:#000000;stroke-width:0.8;"/>
      </defs>
      <g>
       <use style="stroke:#000000;stroke-width:0.8;" x="73.832727" xlink:href="#mf4237ca5de" y="307.584"/>
      </g>
     </g>
     <g id="text_1">
      <!-- 0 -->
      <defs>
       <path d="M 31.78125 66.40625 
Q 24.171875 66.40625 20.328125 58.90625 
Q 16.5 51.421875 16.5 36.375 
Q 16.5 21.390625 20.328125 13.890625 
Q 24.171875 6.390625 31.78125 6.390625 
Q 39.453125 6.390625 43.28125 13.890625 
Q 47.125 21.390625 47.125 36.375 
Q 47.125 51.421875 43.28125 58.90625 
Q 39.453125 66.40625 31.78125 66.40625 
z
M 31.78125 74.21875 
Q 44.046875 74.21875 50.515625 64.515625 
Q 56.984375 54.828125 56.984375 36.375 
Q 56.984375 17.96875 50.515625 8.265625 
Q 44.046875 -1.421875 31.78125 -1.421875 
Q 19.53125 -1.421875 13.0625 8.265625 
Q 6.59375 17.96875 6.59375 36.375 
Q 6.59375 54.828125 13.0625 64.515625 
Q 19.53125 74.21875 31.78125 74.21875 
z
" id="DejaVuSans-48"/>
      </defs>
      <g transform="translate(70.651477 322.182437)scale(0.1 -0.1)">
       <use xlink:href="#DejaVuSans-48"/>
      </g>
     </g>
    </g>
    <g id="xtick_2">
     <g id="line2d_2">
      <g>
       <use style="stroke:#000000;stroke-width:0.8;" x="120.2451" xlink:href="#mf4237ca5de" y="307.584"/>
      </g>
     </g>
     <g id="text_2">
      <!-- 200 -->
      <defs>
       <path d="M 19.1875 8.296875 
L 53.609375 8.296875 
L 53.609375 0 
L 7.328125 0 
L 7.328125 8.296875 
Q 12.9375 14.109375 22.625 23.890625 
Q 32.328125 33.6875 34.8125 36.53125 
Q 39.546875 41.84375 41.421875 45.53125 
Q 43.3125 49.21875 43.3125 52.78125 
Q 43.3125 58.59375 39.234375 62.25 
Q 35.15625 65.921875 28.609375 65.921875 
Q 23.96875 65.921875 18.8125 64.3125 
Q 13.671875 62.703125 7.8125 59.421875 
L 7.8125 69.390625 
Q 13.765625 71.78125 18.9375 73 
Q 24.125 74.21875 28.421875 74.21875 
Q 39.75 74.21875 46.484375 68.546875 
Q 53.21875 62.890625 53.21875 53.421875 
Q 53.21875 48.921875 51.53125 44.890625 
Q 49.859375 40.875 45.40625 35.40625 
Q 44.1875 33.984375 37.640625 27.21875 
Q 31.109375 20.453125 19.1875 8.296875 
z
" id="DejaVuSans-50"/>
      </defs>
      <g transform="translate(110.70135 322.182437)scale(0.1 -0.1)">
       <use xlink:href="#DejaVuSans-50"/>
       <use x="63.623047" xlink:href="#DejaVuSans-48"/>
       <use x="127.246094" xlink:href="#DejaVuSans-48"/>
      </g>
     </g>
    </g>
    <g id="xtick_3">
     <g id="line2d_3">
      <g>
       <use style="stroke:#000000;stroke-width:0.8;" x="166.657472" xlink:href="#mf4237ca5de" y="307.584"/>
      </g>
     </g>
     <g id="text_3">
      <!-- 400 -->
      <defs>
       <path d="M 37.796875 64.3125 
L 12.890625 25.390625 
L 37.796875 25.390625 
z
M 35.203125 72.90625 
L 47.609375 72.90625 
L 47.609375 25.390625 
L 58.015625 25.390625 
L 58.015625 17.1875 
L 47.609375 17.1875 
L 47.609375 0 
L 37.796875 0 
L 37.796875 17.1875 
L 4.890625 17.1875 
L 4.890625 26.703125 
z
" id="DejaVuSans-52"/>
      </defs>
      <g transform="translate(157.113722 322.182437)scale(0.1 -0.1)">
       <use xlink:href="#DejaVuSans-52"/>
       <use x="63.623047" xlink:href="#DejaVuSans-48"/>
       <use x="127.246094" xlink:href="#DejaVuSans-48"/>
      </g>
     </g>
    </g>
    <g id="xtick_4">
     <g id="line2d_4">
      <g>
       <use style="stroke:#000000;stroke-width:0.8;" x="213.069845" xlink:href="#mf4237ca5de" y="307.584"/>
      </g>
     </g>
     <g id="text_4">
      <!-- 600 -->
      <defs>
       <path d="M 33.015625 40.375 
Q 26.375 40.375 22.484375 35.828125 
Q 18.609375 31.296875 18.609375 23.390625 
Q 18.609375 15.53125 22.484375 10.953125 
Q 26.375 6.390625 33.015625 6.390625 
Q 39.65625 6.390625 43.53125 10.953125 
Q 47.40625 15.53125 47.40625 23.390625 
Q 47.40625 31.296875 43.53125 35.828125 
Q 39.65625 40.375 33.015625 40.375 
z
M 52.59375 71.296875 
L 52.59375 62.3125 
Q 48.875 64.0625 45.09375 64.984375 
Q 41.3125 65.921875 37.59375 65.921875 
Q 27.828125 65.921875 22.671875 59.328125 
Q 17.53125 52.734375 16.796875 39.40625 
Q 19.671875 43.65625 24.015625 45.921875 
Q 28.375 48.1875 33.59375 48.1875 
Q 44.578125 48.1875 50.953125 41.515625 
Q 57.328125 34.859375 57.328125 23.390625 
Q 57.328125 12.15625 50.6875 5.359375 
Q 44.046875 -1.421875 33.015625 -1.421875 
Q 20.359375 -1.421875 13.671875 8.265625 
Q 6.984375 17.96875 6.984375 36.375 
Q 6.984375 53.65625 15.1875 63.9375 
Q 23.390625 74.21875 37.203125 74.21875 
Q 40.921875 74.21875 44.703125 73.484375 
Q 48.484375 72.75 52.59375 71.296875 
z
" id="DejaVuSans-54"/>
      </defs>
      <g transform="translate(203.526095 322.182437)scale(0.1 -0.1)">
       <use xlink:href="#DejaVuSans-54"/>
       <use x="63.623047" xlink:href="#DejaVuSans-48"/>
       <use x="127.246094" xlink:href="#DejaVuSans-48"/>
      </g>
     </g>
    </g>
    <g id="xtick_5">
     <g id="line2d_5">
      <g>
       <use style="stroke:#000000;stroke-width:0.8;" x="259.482217" xlink:href="#mf4237ca5de" y="307.584"/>
      </g>
     </g>
     <g id="text_5">
      <!-- 800 -->
      <defs>
       <path d="M 31.78125 34.625 
Q 24.75 34.625 20.71875 30.859375 
Q 16.703125 27.09375 16.703125 20.515625 
Q 16.703125 13.921875 20.71875 10.15625 
Q 24.75 6.390625 31.78125 6.390625 
Q 38.8125 6.390625 42.859375 10.171875 
Q 46.921875 13.96875 46.921875 20.515625 
Q 46.921875 27.09375 42.890625 30.859375 
Q 38.875 34.625 31.78125 34.625 
z
M 21.921875 38.8125 
Q 15.578125 40.375 12.03125 44.71875 
Q 8.5 49.078125 8.5 55.328125 
Q 8.5 64.0625 14.71875 69.140625 
Q 20.953125 74.21875 31.78125 74.21875 
Q 42.671875 74.21875 48.875 69.140625 
Q 55.078125 64.0625 55.078125 55.328125 
Q 55.078125 49.078125 51.53125 44.71875 
Q 48 40.375 41.703125 38.8125 
Q 48.828125 37.15625 52.796875 32.3125 
Q 56.78125 27.484375 56.78125 20.515625 
Q 56.78125 9.90625 50.3125 4.234375 
Q 43.84375 -1.421875 31.78125 -1.421875 
Q 19.734375 -1.421875 13.25 4.234375 
Q 6.78125 9.90625 6.78125 20.515625 
Q 6.78125 27.484375 10.78125 32.3125 
Q 14.796875 37.15625 21.921875 38.8125 
z
M 18.3125 54.390625 
Q 18.3125 48.734375 21.84375 45.5625 
Q 25.390625 42.390625 31.78125 42.390625 
Q 38.140625 42.390625 41.71875 45.5625 
Q 45.3125 48.734375 45.3125 54.390625 
Q 45.3125 60.0625 41.71875 63.234375 
Q 38.140625 66.40625 31.78125 66.40625 
Q 25.390625 66.40625 21.84375 63.234375 
Q 18.3125 60.0625 18.3125 54.390625 
z
" id="DejaVuSans-56"/>
      </defs>
      <g transform="translate(249.938467 322.182437)scale(0.1 -0.1)">
       <use xlink:href="#DejaVuSans-56"/>
       <use x="63.623047" xlink:href="#DejaVuSans-48"/>
       <use x="127.246094" xlink:href="#DejaVuSans-48"/>
      </g>
     </g>
    </g>
    <g id="xtick_6">
     <g id="line2d_6">
      <g>
       <use style="stroke:#000000;stroke-width:0.8;" x="305.89459" xlink:href="#mf4237ca5de" y="307.584"/>
      </g>
     </g>
     <g id="text_6">
      <!-- 1000 -->
      <defs>
       <path d="M 12.40625 8.296875 
L 28.515625 8.296875 
L 28.515625 63.921875 
L 10.984375 60.40625 
L 10.984375 69.390625 
L 28.421875 72.90625 
L 38.28125 72.90625 
L 38.28125 8.296875 
L 54.390625 8.296875 
L 54.390625 0 
L 12.40625 0 
z
" id="DejaVuSans-49"/>
      </defs>
      <g transform="translate(293.16959 322.182437)scale(0.1 -0.1)">
       <use xlink:href="#DejaVuSans-49"/>
       <use x="63.623047" xlink:href="#DejaVuSans-48"/>
       <use x="127.246094" xlink:href="#DejaVuSans-48"/>
       <use x="190.869141" xlink:href="#DejaVuSans-48"/>
      </g>
     </g>
    </g>
    <g id="xtick_7">
     <g id="line2d_7">
      <g>
       <use style="stroke:#000000;stroke-width:0.8;" x="352.306962" xlink:href="#mf4237ca5de" y="307.584"/>
      </g>
     </g>
     <g id="text_7">
      <!-- 1200 -->
      <g transform="translate(339.581962 322.182437)scale(0.1 -0.1)">
       <use xlink:href="#DejaVuSans-49"/>
       <use x="63.623047" xlink:href="#DejaVuSans-50"/>
       <use x="127.246094" xlink:href="#DejaVuSans-48"/>
       <use x="190.869141" xlink:href="#DejaVuSans-48"/>
      </g>
     </g>
    </g>
    <g id="xtick_8">
     <g id="line2d_8">
      <g>
       <use style="stroke:#000000;stroke-width:0.8;" x="398.719335" xlink:href="#mf4237ca5de" y="307.584"/>
      </g>
     </g>
     <g id="text_8">
      <!-- 1400 -->
      <g transform="translate(385.994335 322.182437)scale(0.1 -0.1)">
       <use xlink:href="#DejaVuSans-49"/>
       <use x="63.623047" xlink:href="#DejaVuSans-52"/>
       <use x="127.246094" xlink:href="#DejaVuSans-48"/>
       <use x="190.869141" xlink:href="#DejaVuSans-48"/>
      </g>
     </g>
    </g>
   </g>
   <g id="matplotlib.axis_2">
    <g id="ytick_1">
     <g id="line2d_9">
      <defs>
       <path d="M 0 0 
L -3.5 0 
" id="m23710369d9" style="stroke:#000000;stroke-width:0.8;"/>
      </defs>
      <g>
       <use style="stroke:#000000;stroke-width:0.8;" x="57.6" xlink:href="#m23710369d9" y="295.662842"/>
      </g>
     </g>
     <g id="text_9">
      <!-- 0.00 -->
      <defs>
       <path d="M 10.6875 12.40625 
L 21 12.40625 
L 21 0 
L 10.6875 0 
z
" id="DejaVuSans-46"/>
      </defs>
      <g transform="translate(28.334375 299.462061)scale(0.1 -0.1)">
       <use xlink:href="#DejaVuSans-48"/>
       <use x="63.623047" xlink:href="#DejaVuSans-46"/>
       <use x="95.410156" xlink:href="#DejaVuSans-48"/>
       <use x="159.033203" xlink:href="#DejaVuSans-48"/>
      </g>
     </g>
    </g>
    <g id="ytick_2">
     <g id="line2d_10">
      <g>
       <use style="stroke:#000000;stroke-width:0.8;" x="57.6" xlink:href="#m23710369d9" y="256.548582"/>
      </g>
     </g>
     <g id="text_10">
      <!-- 0.05 -->
      <defs>
       <path d="M 10.796875 72.90625 
L 49.515625 72.90625 
L 49.515625 64.59375 
L 19.828125 64.59375 
L 19.828125 46.734375 
Q 21.96875 47.46875 24.109375 47.828125 
Q 26.265625 48.1875 28.421875 48.1875 
Q 40.625 48.1875 47.75 41.5 
Q 54.890625 34.8125 54.890625 23.390625 
Q 54.890625 11.625 47.5625 5.09375 
Q 40.234375 -1.421875 26.90625 -1.421875 
Q 22.3125 -1.421875 17.546875 -0.640625 
Q 12.796875 0.140625 7.71875 1.703125 
L 7.71875 11.625 
Q 12.109375 9.234375 16.796875 8.0625 
Q 21.484375 6.890625 26.703125 6.890625 
Q 35.15625 6.890625 40.078125 11.328125 
Q 45.015625 15.765625 45.015625 23.390625 
Q 45.015625 31 40.078125 35.4375 
Q 35.15625 39.890625 26.703125 39.890625 
Q 22.75 39.890625 18.8125 39.015625 
Q 14.890625 38.140625 10.796875 36.28125 
z
" id="DejaVuSans-53"/>
      </defs>
      <g transform="translate(28.334375 260.347801)scale(0.1 -0.1)">
       <use xlink:href="#DejaVuSans-48"/>
       <use x="63.623047" xlink:href="#DejaVuSans-46"/>
       <use x="95.410156" xlink:href="#DejaVuSans-48"/>
       <use x="159.033203" xlink:href="#DejaVuSans-53"/>
      </g>
     </g>
    </g>
    <g id="ytick_3">
     <g id="line2d_11">
      <g>
       <use style="stroke:#000000;stroke-width:0.8;" x="57.6" xlink:href="#m23710369d9" y="217.434322"/>
      </g>
     </g>
     <g id="text_11">
      <!-- 0.10 -->
      <g transform="translate(28.334375 221.233541)scale(0.1 -0.1)">
       <use xlink:href="#DejaVuSans-48"/>
       <use x="63.623047" xlink:href="#DejaVuSans-46"/>
       <use x="95.410156" xlink:href="#DejaVuSans-49"/>
       <use x="159.033203" xlink:href="#DejaVuSans-48"/>
      </g>
     </g>
    </g>
    <g id="ytick_4">
     <g id="line2d_12">
      <g>
       <use style="stroke:#000000;stroke-width:0.8;" x="57.6" xlink:href="#m23710369d9" y="178.320062"/>
      </g>
     </g>
     <g id="text_12">
      <!-- 0.15 -->
      <g transform="translate(28.334375 182.119281)scale(0.1 -0.1)">
       <use xlink:href="#DejaVuSans-48"/>
       <use x="63.623047" xlink:href="#DejaVuSans-46"/>
       <use x="95.410156" xlink:href="#DejaVuSans-49"/>
       <use x="159.033203" xlink:href="#DejaVuSans-53"/>
      </g>
     </g>
    </g>
    <g id="ytick_5">
     <g id="line2d_13">
      <g>
       <use style="stroke:#000000;stroke-width:0.8;" x="57.6" xlink:href="#m23710369d9" y="139.205802"/>
      </g>
     </g>
     <g id="text_13">
      <!-- 0.20 -->
      <g transform="translate(28.334375 143.005021)scale(0.1 -0.1)">
       <use xlink:href="#DejaVuSans-48"/>
       <use x="63.623047" xlink:href="#DejaVuSans-46"/>
       <use x="95.410156" xlink:href="#DejaVuSans-50"/>
       <use x="159.033203" xlink:href="#DejaVuSans-48"/>
      </g>
     </g>
    </g>
    <g id="ytick_6">
     <g id="line2d_14">
      <g>
       <use style="stroke:#000000;stroke-width:0.8;" x="57.6" xlink:href="#m23710369d9" y="100.091543"/>
      </g>
     </g>
     <g id="text_14">
      <!-- 0.25 -->
      <g transform="translate(28.334375 103.890761)scale(0.1 -0.1)">
       <use xlink:href="#DejaVuSans-48"/>
       <use x="63.623047" xlink:href="#DejaVuSans-46"/>
       <use x="95.410156" xlink:href="#DejaVuSans-50"/>
       <use x="159.033203" xlink:href="#DejaVuSans-53"/>
      </g>
     </g>
    </g>
    <g id="ytick_7">
     <g id="line2d_15">
      <g>
       <use style="stroke:#000000;stroke-width:0.8;" x="57.6" xlink:href="#m23710369d9" y="60.977283"/>
      </g>
     </g>
     <g id="text_15">
      <!-- 0.30 -->
      <defs>
       <path d="M 40.578125 39.3125 
Q 47.65625 37.796875 51.625 33 
Q 55.609375 28.21875 55.609375 21.1875 
Q 55.609375 10.40625 48.1875 4.484375 
Q 40.765625 -1.421875 27.09375 -1.421875 
Q 22.515625 -1.421875 17.65625 -0.515625 
Q 12.796875 0.390625 7.625 2.203125 
L 7.625 11.71875 
Q 11.71875 9.328125 16.59375 8.109375 
Q 21.484375 6.890625 26.8125 6.890625 
Q 36.078125 6.890625 40.9375 10.546875 
Q 45.796875 14.203125 45.796875 21.1875 
Q 45.796875 27.640625 41.28125 31.265625 
Q 36.765625 34.90625 28.71875 34.90625 
L 20.21875 34.90625 
L 20.21875 43.015625 
L 29.109375 43.015625 
Q 36.375 43.015625 40.234375 45.921875 
Q 44.09375 48.828125 44.09375 54.296875 
Q 44.09375 59.90625 40.109375 62.90625 
Q 36.140625 65.921875 28.71875 65.921875 
Q 24.65625 65.921875 20.015625 65.03125 
Q 15.375 64.15625 9.8125 62.3125 
L 9.8125 71.09375 
Q 15.4375 72.65625 20.34375 73.4375 
Q 25.25 74.21875 29.59375 74.21875 
Q 40.828125 74.21875 47.359375 69.109375 
Q 53.90625 64.015625 53.90625 55.328125 
Q 53.90625 49.265625 50.4375 45.09375 
Q 46.96875 40.921875 40.578125 39.3125 
z
" id="DejaVuSans-51"/>
      </defs>
      <g transform="translate(28.334375 64.776501)scale(0.1 -0.1)">
       <use xlink:href="#DejaVuSans-48"/>
       <use x="63.623047" xlink:href="#DejaVuSans-46"/>
       <use x="95.410156" xlink:href="#DejaVuSans-51"/>
       <use x="159.033203" xlink:href="#DejaVuSans-48"/>
      </g>
     </g>
    </g>
   </g>
   <g id="line2d_16">
    <path clip-path="url(#pa2f9f4a44a)" d="M 73.832727 290.461416 
L 74.064789 290.606925 
L 74.296851 295.063707 
L 74.528913 294.424798 
L 74.993037 287.494125 
L 75.225098 287.266276 
L 75.45716 287.786139 
L 75.689222 288.020015 
L 76.153346 287.844575 
L 76.61747 288.155509 
L 77.545717 286.650582 
L 78.009841 286.769477 
L 78.241903 286.915288 
L 78.706026 287.713132 
L 79.17015 286.940164 
L 79.402212 287.302216 
L 79.634274 287.017932 
L 79.866336 287.656791 
L 80.330459 286.759151 
L 80.562521 286.678398 
L 81.026645 287.459352 
L 81.258707 287.099029 
L 81.490769 287.221641 
L 81.954892 286.71401 
L 82.186954 287.093549 
L 82.419016 286.79696 
L 82.651078 286.982708 
L 83.347264 286.596668 
L 84.275511 286.541871 
L 84.739635 286.591483 
L 84.971697 286.580986 
L 85.203759 286.906217 
L 85.43582 287.530567 
L 85.667882 287.343959 
L 85.899944 287.728341 
L 86.132006 287.380258 
L 86.364068 287.716758 
L 86.59613 287.188148 
L 87.060253 286.779444 
L 87.292315 286.925941 
L 87.756439 286.848594 
L 87.988501 286.672735 
L 88.684686 286.916082 
L 88.916748 287.131516 
L 89.14881 288.885835 
L 89.380872 289.425344 
L 89.612934 288.064023 
L 90.077058 289.080074 
L 90.30912 290.252753 
L 90.541181 289.450626 
L 90.773243 290.598693 
L 91.005305 290.107973 
L 91.237367 288.552208 
L 91.469429 289.174754 
L 91.701491 287.729979 
L 91.933553 288.130425 
L 92.165614 287.377407 
L 92.629738 287.182438 
L 92.8618 286.670458 
L 93.790047 287.182307 
L 94.254171 286.971429 
L 94.486233 286.771108 
L 94.718295 286.824072 
L 94.950357 287.188963 
L 95.182419 288.537398 
L 95.41448 290.907089 
L 95.646542 294.739987 
L 95.878604 295.170085 
L 96.110666 295.210015 
L 96.57479 294.555372 
L 97.270975 294.783726 
L 97.503037 295.488 
L 97.967161 295.254422 
L 98.199223 294.801401 
L 98.431285 295.378019 
L 98.663347 294.355984 
L 99.12747 295.461633 
L 99.591594 295.054084 
L 100.055718 287.841509 
L 100.28778 286.69267 
L 100.519841 286.567153 
L 100.751903 286.670745 
L 101.216027 286.580482 
L 101.912213 286.8401 
L 102.376336 287.268329 
L 102.608398 288.949048 
L 103.304584 291.333293 
L 103.536646 292.482743 
L 103.768708 290.043239 
L 104.000769 291.129828 
L 104.232831 291.451987 
L 104.464893 291.318878 
L 104.929017 292.250017 
L 105.393141 292.358289 
L 105.625202 293.141664 
L 105.857264 293.350767 
L 106.321388 292.841813 
L 106.55345 291.804 
L 106.785512 289.963624 
L 107.017574 290.260895 
L 107.249635 289.792432 
L 107.481697 290.045844 
L 107.713759 289.710981 
L 107.945821 288.680748 
L 108.177883 286.818451 
L 108.642007 286.600199 
L 108.874068 287.012841 
L 109.802316 286.779246 
L 110.498502 288.664812 
L 110.962625 289.423104 
L 111.194687 289.853103 
L 111.426749 290.691274 
L 111.658811 291.997876 
L 111.890873 292.012473 
L 112.354996 293.240598 
L 112.587058 293.337127 
L 112.81912 292.994779 
L 113.283244 292.836998 
L 113.747368 292.804155 
L 114.211491 293.369884 
L 114.443553 293.125327 
L 114.675615 293.244649 
L 114.907677 292.804476 
L 115.139739 292.623522 
L 115.371801 293.125855 
L 115.603862 292.733317 
L 116.53211 287.909585 
L 116.764172 288.648517 
L 116.996234 287.809527 
L 117.228296 287.715522 
L 117.460357 287.188462 
L 117.692419 288.936362 
L 117.924481 289.013304 
L 118.156543 289.741503 
L 118.388605 291.172531 
L 118.620667 290.429792 
L 119.08479 292.308521 
L 119.316852 291.823593 
L 119.548914 292.375165 
L 119.780976 291.895272 
L 120.2451 291.548557 
L 120.477162 292.041878 
L 120.709223 291.650652 
L 120.941285 291.566349 
L 121.173347 291.63081 
L 121.405409 291.512682 
L 121.637471 291.206111 
L 121.869533 291.861215 
L 122.101595 291.725797 
L 122.333657 291.817745 
L 122.565718 292.147837 
L 122.79778 292.100533 
L 123.029842 292.859382 
L 123.261904 291.737324 
L 123.493966 291.357771 
L 123.726028 290.000197 
L 123.95809 287.594691 
L 124.190151 287.130897 
L 124.422213 287.410406 
L 124.654275 288.041708 
L 124.886337 287.024159 
L 125.118399 287.080805 
L 125.582523 288.792624 
L 125.814584 289.333069 
L 126.51077 294.04994 
L 126.974894 293.764877 
L 127.206956 292.869268 
L 127.903141 293.247186 
L 128.135203 293.162959 
L 128.599327 292.103227 
L 128.831389 292.24591 
L 129.063451 292.621332 
L 129.295512 291.977102 
L 129.527574 291.69213 
L 129.759636 292.223614 
L 129.991698 292.288426 
L 130.22376 292.626836 
L 130.455822 291.778678 
L 130.687884 292.573409 
L 130.919945 290.996044 
L 131.152007 290.610397 
L 131.616131 287.582568 
L 131.848193 287.01715 
L 132.080255 286.77985 
L 132.312317 287.011721 
L 132.544378 286.956024 
L 132.77644 288.262357 
L 133.008502 288.29073 
L 133.240564 288.435492 
L 133.472626 290.003865 
L 133.704688 290.340477 
L 134.168811 292.445042 
L 134.400873 293.312183 
L 134.632935 293.041149 
L 134.864997 293.113491 
L 135.793245 292.338182 
L 136.025306 291.686019 
L 136.257368 291.756326 
L 136.48943 291.490467 
L 136.721492 291.046283 
L 136.953554 291.235618 
L 137.417678 291.217125 
L 137.649739 290.864611 
L 137.881801 291.273705 
L 138.113863 289.739568 
L 138.345925 290.963799 
L 138.577987 290.272433 
L 138.810049 287.844692 
L 139.042111 287.591754 
L 139.274172 286.8289 
L 139.506234 286.579812 
L 139.738296 286.630987 
L 139.970358 286.995198 
L 140.20242 286.685279 
L 140.434482 287.796951 
L 140.666544 288.216749 
L 141.130667 290.228515 
L 141.594791 290.772202 
L 142.058915 293.382198 
L 142.290977 293.283253 
L 142.523039 292.987462 
L 142.7551 291.215731 
L 142.987162 292.588388 
L 143.451286 292.027741 
L 144.147472 291.2515 
L 144.843657 290.983168 
L 145.075719 291.073839 
L 145.307781 291.528832 
L 145.539843 291.448188 
L 145.771905 290.784909 
L 146.236028 290.341138 
L 146.46809 287.727121 
L 146.932214 286.59151 
L 147.164276 286.837 
L 147.396338 286.920024 
L 147.6284 286.852505 
L 148.092523 288.10393 
L 148.788709 289.840113 
L 149.716956 291.980663 
L 149.949018 293.652831 
L 150.18108 292.929191 
L 150.645204 292.75475 
L 150.877266 292.352279 
L 151.109327 292.253607 
L 151.341389 291.448621 
L 151.805513 290.709114 
L 152.037575 290.851563 
L 152.501699 290.576471 
L 152.965822 290.713698 
L 153.429946 290.290889 
L 153.662008 290.252343 
L 153.89407 290.766975 
L 155.054379 286.624871 
L 155.286441 286.807694 
L 155.518503 286.755548 
L 155.750565 287.082697 
L 155.982627 288.015079 
L 156.214688 287.754174 
L 156.44675 287.761821 
L 156.678812 288.279938 
L 156.910874 290.717517 
L 157.142936 291.886056 
L 157.60706 293.106809 
L 157.839121 293.301332 
L 158.071183 293.136384 
L 158.303245 293.149353 
L 158.767369 292.717157 
L 159.463554 291.568781 
L 159.695616 291.507944 
L 159.927678 291.185826 
L 160.15974 291.343717 
L 160.391802 290.766401 
L 160.623864 290.674684 
L 161.320049 290.037779 
L 161.552111 290.2755 
L 162.016235 286.884026 
L 162.248297 286.789849 
L 162.480359 287.270493 
L 162.712421 286.789269 
L 162.944482 286.688423 
L 163.408606 286.811248 
L 163.640668 287.995955 
L 164.104792 289.046149 
L 164.336854 289.93158 
L 164.568915 291.504541 
L 164.800977 291.528756 
L 165.033039 291.242414 
L 165.265101 292.497582 
L 165.729225 293.307574 
L 166.193348 293.114708 
L 167.121596 291.667042 
L 167.817782 291.181588 
L 168.049843 291.325618 
L 168.281905 290.963205 
L 168.513967 290.983275 
L 168.746029 290.708956 
L 168.978091 289.9504 
L 169.210153 290.085533 
L 169.674276 289.25987 
L 169.906338 286.605629 
L 170.1384 286.786674 
L 170.602524 286.632326 
L 171.066648 286.929311 
L 171.298709 287.628615 
L 171.530771 289.115886 
L 171.762833 289.443423 
L 171.994895 290.415647 
L 172.226957 290.304797 
L 172.459019 291.104992 
L 172.691081 291.227643 
L 173.155204 292.836173 
L 173.387266 292.727434 
L 173.619328 293.591452 
L 173.85139 293.824703 
L 174.083452 293.112938 
L 174.547576 293.450804 
L 175.011699 292.3908 
L 175.243761 292.50468 
L 175.475823 292.45158 
L 175.939947 291.277597 
L 176.172009 291.73862 
L 176.636132 291.018783 
L 176.868194 292.136907 
L 177.332318 290.167076 
L 177.56438 287.133275 
L 177.796442 286.978484 
L 178.028503 286.630505 
L 178.260565 286.868742 
L 178.492627 286.71415 
L 178.724689 287.158759 
L 178.956751 287.335567 
L 179.420875 287.221609 
L 180.581184 291.683616 
L 181.045308 292.903367 
L 181.27737 292.147896 
L 181.509431 293.136438 
L 181.741493 292.885922 
L 182.205617 292.868884 
L 182.901803 292.133318 
L 183.133864 292.295828 
L 183.365926 292.303584 
L 183.83005 291.94718 
L 184.526236 290.278282 
L 184.758297 290.034511 
L 184.990359 288.116363 
L 185.222421 288.266633 
L 185.454483 287.127255 
L 185.686545 286.789703 
L 185.918607 286.737531 
L 186.382731 286.7717 
L 187.078916 288.572372 
L 187.54304 290.117031 
L 187.775102 290.193061 
L 188.239225 291.968108 
L 188.471287 290.87458 
L 188.703349 291.47139 
L 188.935411 292.397854 
L 189.399535 293.410503 
L 189.631597 293.238959 
L 190.09572 293.451486 
L 190.327782 293.280779 
L 191.023968 293.192869 
L 191.25603 292.944602 
L 191.488091 292.518678 
L 191.720153 292.361731 
L 191.952215 292.504106 
L 192.184277 292.019488 
L 192.416339 290.00072 
L 192.648401 289.485747 
L 192.880463 287.814514 
L 193.576648 286.934233 
L 193.80871 286.997859 
L 194.040772 287.603423 
L 194.272834 288.906829 
L 194.504896 288.156224 
L 194.736958 288.43075 
L 194.969019 289.84391 
L 195.201081 289.443135 
L 195.897267 291.254089 
L 196.129329 290.64615 
L 196.593452 291.73733 
L 196.825514 292.366695 
L 197.057576 291.908718 
L 197.5217 292.608199 
L 197.753762 292.312283 
L 197.985824 291.812557 
L 198.217886 291.772897 
L 198.449947 292.175746 
L 198.682009 292.217746 
L 198.914071 292.053934 
L 199.146133 292.241981 
L 199.378195 291.888621 
L 199.610257 291.180322 
L 199.842319 291.521358 
L 200.07438 289.320556 
L 200.306442 290.306015 
L 200.770566 287.465918 
L 201.002628 287.743661 
L 201.23469 287.025753 
L 201.466752 287.010786 
L 201.698813 287.507663 
L 201.930875 287.273746 
L 202.162937 287.488894 
L 202.627061 290.865069 
L 202.859123 290.102843 
L 203.091185 290.404704 
L 203.323246 291.05074 
L 203.555308 290.75293 
L 204.019432 291.973332 
L 204.251494 292.072543 
L 204.483556 292.666368 
L 204.715618 292.185771 
L 204.94768 292.127633 
L 205.179741 292.400536 
L 205.411803 291.987436 
L 205.643865 291.972367 
L 205.875927 291.59211 
L 206.107989 291.815731 
L 206.340051 291.876263 
L 206.572113 291.663658 
L 206.804174 291.186458 
L 207.036236 291.337848 
L 207.268298 290.972624 
L 207.50036 290.979459 
L 207.732422 291.876435 
L 207.964484 288.556541 
L 208.196546 288.083973 
L 208.428607 286.895115 
L 208.660669 287.029727 
L 208.892731 286.827308 
L 209.124793 286.9161 
L 209.356855 286.728294 
L 209.588917 287.183964 
L 209.820979 288.643356 
L 210.05304 288.827407 
L 210.285102 289.18428 
L 210.517164 290.283536 
L 210.749226 290.126692 
L 210.981288 290.343882 
L 211.445412 292.676022 
L 211.677474 292.182171 
L 211.909535 292.007524 
L 212.141597 292.455549 
L 212.373659 292.614664 
L 212.605721 293.016776 
L 212.837783 292.67078 
L 213.069845 292.687254 
L 213.76603 292.026571 
L 213.998092 292.395347 
L 214.462216 291.840362 
L 214.694278 291.749154 
L 215.622525 290.492951 
L 215.854587 289.03637 
L 216.086649 289.577085 
L 216.318711 288.075429 
L 216.550773 288.540388 
L 216.782834 288.006628 
L 217.014896 288.756922 
L 217.47902 287.481735 
L 217.711082 288.874586 
L 217.943144 288.519725 
L 218.175206 289.79444 
L 218.407268 290.180498 
L 218.639329 290.256361 
L 218.871391 290.477658 
L 219.103453 291.684342 
L 219.335515 292.197491 
L 219.567577 292.352751 
L 219.799639 293.032537 
L 220.031701 292.639146 
L 220.495824 293.192795 
L 220.727886 292.927736 
L 220.959948 292.833431 
L 221.19201 292.388595 
L 221.424072 292.320639 
L 221.656134 292.521059 
L 222.120257 292.076659 
L 222.584381 291.345927 
L 222.816443 290.527085 
L 223.048505 290.653867 
L 223.512629 289.04668 
L 223.74469 289.539815 
L 223.976752 288.469088 
L 224.208814 286.831912 
L 224.440876 286.65322 
L 224.905 286.704912 
L 225.137062 287.080026 
L 225.369123 288.793867 
L 225.601185 288.535532 
L 226.065309 291.344369 
L 226.297371 290.681294 
L 226.529433 291.007079 
L 226.761495 291.79183 
L 228.153866 293.451087 
L 228.617989 292.851049 
L 229.546237 292.381864 
L 229.778299 292.232276 
L 230.010361 291.874839 
L 230.242423 291.851495 
L 230.706546 290.907681 
L 230.938608 290.805531 
L 231.634794 287.295397 
L 231.866856 287.937229 
L 232.098917 288.025232 
L 232.330979 286.876815 
L 232.563041 288.385697 
L 232.795103 288.992209 
L 233.027165 287.886614 
L 233.72335 290.192118 
L 234.187474 290.802928 
L 234.419536 291.700629 
L 235.811907 293.22734 
L 236.043969 292.946543 
L 236.276031 292.409843 
L 236.508093 292.216623 
L 237.204278 292.689212 
L 237.900464 291.769735 
L 238.132526 291.578539 
L 238.364588 291.19724 
L 238.59665 290.517275 
L 238.828711 290.552134 
L 239.060773 290.259497 
L 239.292835 289.346721 
L 239.524897 289.186661 
L 239.756959 288.87542 
L 239.989021 287.007158 
L 240.221083 286.898022 
L 240.453144 288.562673 
L 240.685206 289.14239 
L 240.917268 289.181633 
L 241.14933 289.910136 
L 241.613454 290.441753 
L 241.845516 290.801143 
L 242.077577 291.531318 
L 242.309639 291.789069 
L 242.773763 293.532543 
L 243.005825 292.951745 
L 243.469949 293.410062 
L 243.702011 292.968027 
L 243.934072 293.318055 
L 244.166134 293.222205 
L 244.398196 292.238114 
L 244.630258 292.700484 
L 244.86232 292.639296 
L 245.094382 292.308244 
L 245.326444 292.493931 
L 245.558505 292.248654 
L 245.790567 291.7836 
L 246.022629 290.620826 
L 246.254691 291.132754 
L 246.486753 290.76805 
L 246.950877 287.836846 
L 247.182938 287.961951 
L 247.415 286.578396 
L 247.647062 286.7895 
L 247.879124 286.681062 
L 248.111186 287.292743 
L 248.343248 288.39107 
L 248.57531 288.776414 
L 249.039433 291.265074 
L 249.271495 290.764561 
L 249.503557 291.841848 
L 249.735619 291.08586 
L 249.967681 290.747247 
L 250.431805 292.882738 
L 250.663866 292.67098 
L 251.12799 293.18548 
L 251.360052 293.315581 
L 251.824176 292.988598 
L 252.056238 292.185703 
L 252.288299 292.105578 
L 252.752423 292.704567 
L 253.216547 292.377223 
L 253.448609 292.135026 
L 253.680671 291.729208 
L 253.912732 291.879724 
L 254.376856 290.945648 
L 255.073042 286.937631 
L 255.305104 287.94122 
L 255.537166 287.248256 
L 255.769227 288.838577 
L 256.001289 289.502932 
L 256.233351 288.962893 
L 256.465413 289.442749 
L 256.697475 290.787254 
L 256.929537 290.068197 
L 257.161599 290.5318 
L 257.39366 292.014174 
L 257.625722 291.897492 
L 257.857784 292.746562 
L 258.089846 293.026401 
L 258.321908 292.571396 
L 258.786032 292.802585 
L 259.250155 292.259621 
L 259.482217 291.705301 
L 259.714279 291.478246 
L 259.946341 292.107165 
L 260.178403 292.305704 
L 260.410465 291.759531 
L 260.642526 292.373212 
L 261.338712 292.827001 
L 261.570774 291.769802 
L 261.802836 291.682043 
L 262.034898 290.36791 
L 262.26696 290.122044 
L 262.731083 287.622738 
L 262.963145 286.823341 
L 263.195207 286.727323 
L 263.427269 287.102136 
L 264.355516 290.945378 
L 264.587578 290.932217 
L 264.81964 291.488177 
L 265.051702 291.352642 
L 265.283764 290.642429 
L 265.515826 291.194954 
L 265.747887 292.617169 
L 265.979949 292.450287 
L 266.212011 292.759565 
L 266.444073 293.340799 
L 266.908197 292.615699 
L 267.140259 291.491018 
L 267.37232 292.276029 
L 267.604382 291.368669 
L 267.836444 292.085172 
L 268.068506 292.410637 
L 268.300568 292.272982 
L 268.53263 292.461436 
L 268.764692 292.315807 
L 268.996754 292.435449 
L 269.460877 291.420849 
L 269.692939 291.288278 
L 270.157063 289.610389 
L 270.389125 289.658619 
L 270.621187 288.175153 
L 270.853248 287.550671 
L 271.317372 287.852456 
L 271.549434 289.130928 
L 271.781496 288.926982 
L 272.013558 289.368565 
L 272.941805 292.20307 
L 273.173867 292.157399 
L 273.637991 292.54294 
L 273.870053 292.49496 
L 274.102114 292.710393 
L 274.566238 291.941388 
L 274.7983 292.443041 
L 275.030362 292.375994 
L 275.262424 292.576224 
L 275.494486 291.232713 
L 275.726548 292.02149 
L 275.958609 291.91143 
L 276.190671 292.694157 
L 276.422733 292.793714 
L 276.654795 292.627883 
L 276.886857 291.80284 
L 277.118919 291.824529 
L 277.583042 290.060173 
L 277.815104 289.977501 
L 278.047166 290.367354 
L 278.279228 287.690818 
L 278.51129 288.259463 
L 278.743352 288.226875 
L 278.975414 289.021919 
L 279.207475 288.471549 
L 279.439537 288.478901 
L 279.671599 290.3156 
L 279.903661 290.679723 
L 280.135723 290.449654 
L 280.367785 291.735531 
L 280.599847 290.859506 
L 281.06397 292.474472 
L 281.528094 292.909074 
L 281.992218 292.694654 
L 282.22428 292.302456 
L 282.688403 292.257511 
L 282.920465 291.701683 
L 283.152527 292.301045 
L 283.384589 292.56523 
L 283.616651 291.963465 
L 284.080775 292.278792 
L 284.312836 292.056729 
L 284.77696 292.436422 
L 285.705208 288.1241 
L 285.937269 287.65184 
L 286.633455 288.289601 
L 286.865517 287.838934 
L 287.097579 288.618391 
L 287.561703 290.609861 
L 287.793764 290.031375 
L 288.025826 290.422428 
L 288.257888 291.879135 
L 288.48995 292.39662 
L 288.722012 292.472804 
L 288.954074 292.90512 
L 289.186136 292.527183 
L 289.650259 292.393898 
L 289.882321 291.963787 
L 290.346445 291.743832 
L 290.578507 292.019281 
L 290.810569 291.361381 
L 291.04263 291.765758 
L 291.274692 291.902038 
L 291.506754 291.096554 
L 291.970878 292.073808 
L 292.20294 291.950057 
L 292.435002 291.357537 
L 292.667063 291.152256 
L 292.899125 289.837383 
L 293.131187 290.074795 
L 293.363249 289.914939 
L 293.595311 287.647247 
L 293.827373 289.797787 
L 294.059435 288.817458 
L 295.683868 291.264855 
L 295.91593 292.469654 
L 296.147991 292.528163 
L 296.380053 292.895139 
L 296.844177 292.949207 
L 297.308301 292.193651 
L 297.540363 291.902928 
L 297.772424 291.356951 
L 298.004486 291.776112 
L 298.236548 290.716523 
L 298.46861 291.859185 
L 298.700672 290.902988 
L 298.932734 290.946955 
L 299.164796 291.70211 
L 299.396857 292.006066 
L 299.628919 292.636656 
L 299.860981 292.062296 
L 300.093043 292.721171 
L 300.325105 292.158725 
L 300.557167 291.259623 
L 300.789229 288.472283 
L 301.253352 288.946834 
L 301.717476 289.771576 
L 302.1816 289.538762 
L 302.413662 290.275953 
L 302.645724 290.394507 
L 303.341909 291.595037 
L 303.573971 292.372507 
L 304.038095 292.94272 
L 304.502218 293.147772 
L 304.73428 292.938015 
L 305.198404 291.855122 
L 305.430466 291.676782 
L 305.662528 291.742417 
L 305.89459 291.456214 
L 306.126652 291.64931 
L 306.358713 290.782936 
L 306.822837 291.103143 
L 307.054899 290.642093 
L 307.286961 291.650663 
L 307.519023 291.544249 
L 307.751085 291.218922 
L 307.983146 290.345387 
L 308.215208 291.560543 
L 308.44727 290.69385 
L 308.679332 289.127202 
L 308.911394 288.326977 
L 309.143456 288.440823 
L 309.375518 288.177776 
L 309.607579 289.525134 
L 309.839641 289.891663 
L 310.071703 290.602609 
L 310.303765 290.786903 
L 310.535827 290.501387 
L 310.767889 290.501349 
L 311.232012 292.672432 
L 311.696136 292.86754 
L 312.16026 293.22115 
L 312.392322 293.494981 
L 312.624384 292.357795 
L 312.856446 292.346477 
L 313.088507 292.487995 
L 313.552631 291.378422 
L 313.784693 291.771508 
L 314.016755 290.987656 
L 314.248817 290.740946 
L 314.480879 291.13257 
L 314.71294 291.210663 
L 314.945002 291.820049 
L 315.177064 292.000139 
L 315.641188 290.940013 
L 316.337373 291.081714 
L 316.569435 290.503425 
L 316.801497 288.047085 
L 317.033559 287.42973 
L 317.497683 289.103663 
L 317.729745 289.791491 
L 317.961806 289.949662 
L 318.193868 291.045224 
L 318.42593 291.239504 
L 318.657992 292.40768 
L 318.890054 292.466943 
L 319.354178 293.254906 
L 319.818301 292.645787 
L 320.282425 292.935445 
L 320.514487 291.383626 
L 320.746549 291.257523 
L 320.978611 291.657145 
L 321.674796 291.450575 
L 321.906858 291.929237 
L 322.13892 291.911492 
L 322.603044 291.501029 
L 322.835106 292.08241 
L 323.067167 291.923493 
L 323.531291 292.207719 
L 323.763353 291.106279 
L 324.227477 287.960751 
L 324.459539 289.086216 
L 324.6916 287.187049 
L 324.923662 287.885343 
L 325.155724 289.440641 
L 325.387786 288.99378 
L 325.619848 289.766293 
L 325.85191 289.991959 
L 326.083972 290.657912 
L 326.316034 291.887234 
L 326.780157 292.58845 
L 327.012219 292.424875 
L 327.244281 293.067616 
L 327.476343 293.092486 
L 327.708405 292.344324 
L 327.940467 292.926403 
L 328.172528 291.412053 
L 328.40459 291.75115 
L 328.636652 291.765116 
L 329.100776 291.491919 
L 329.332838 291.036848 
L 329.5649 292.189342 
L 329.796961 291.797144 
L 330.029023 292.081702 
L 330.261085 291.58514 
L 330.493147 291.972125 
L 330.725209 291.718515 
L 330.957271 291.973982 
L 331.189333 291.766254 
L 331.421395 290.762236 
L 331.653456 290.428805 
L 331.885518 289.679565 
L 332.11758 289.876518 
L 332.349642 289.774322 
L 332.581704 290.064735 
L 332.813766 290.162542 
L 333.045828 289.087694 
L 333.277889 290.396855 
L 333.509951 290.242451 
L 333.742013 290.933525 
L 333.974075 292.49855 
L 334.206137 292.096585 
L 334.438199 292.129829 
L 334.902322 292.870277 
L 335.134384 292.806445 
L 335.366446 292.018213 
L 335.598508 292.102238 
L 335.83057 291.033019 
L 336.062632 291.185034 
L 336.294694 290.957091 
L 336.526755 291.914905 
L 336.758817 292.105068 
L 336.990879 291.059167 
L 337.222941 291.72977 
L 337.455003 290.95329 
L 337.687065 291.046409 
L 337.919127 291.449653 
L 338.151189 292.485975 
L 338.38325 291.750618 
L 338.615312 292.355671 
L 338.847374 291.434545 
L 339.311498 291.044464 
L 339.54356 289.821694 
L 339.775622 290.165207 
L 340.239745 289.390565 
L 340.471807 290.143745 
L 340.703869 290.145536 
L 340.935931 290.461546 
L 341.167993 290.47845 
L 341.400055 291.188612 
L 341.632116 292.426809 
L 341.864178 292.037336 
L 342.09624 292.134801 
L 342.328302 292.355012 
L 342.560364 292.81673 
L 343.024488 292.160503 
L 343.256549 292.053808 
L 343.488611 292.246494 
L 343.720673 292.052186 
L 343.952735 292.659645 
L 344.184797 292.406278 
L 344.416859 292.41016 
L 344.648921 292.575398 
L 345.113044 292.361104 
L 345.345106 291.957129 
L 345.577168 292.010603 
L 345.80923 293.002488 
L 346.041292 293.208487 
L 346.505416 291.457515 
L 346.737477 290.579405 
L 346.969539 290.474958 
L 347.201601 289.457021 
L 347.433663 290.335657 
L 347.665725 288.920438 
L 348.129849 289.669213 
L 348.36191 290.625107 
L 348.593972 289.303748 
L 349.058096 291.435652 
L 349.290158 292.089394 
L 349.754282 292.518504 
L 349.986343 292.055516 
L 350.218405 293.026501 
L 350.450467 293.179374 
L 350.682529 292.657695 
L 350.914591 292.846023 
L 351.146653 292.00964 
L 351.378715 291.853224 
L 351.610777 292.489845 
L 351.842838 292.358812 
L 352.0749 292.044623 
L 352.539024 292.317843 
L 352.771086 292.190628 
L 353.003148 291.637153 
L 353.23521 291.493924 
L 353.467271 291.867369 
L 353.699333 292.654739 
L 354.163457 291.109308 
L 354.395519 291.098464 
L 355.091704 290.038405 
L 355.323766 289.797396 
L 355.555828 289.291603 
L 355.78789 289.650365 
L 356.019952 289.777593 
L 356.252014 289.636433 
L 356.484076 289.931031 
L 356.716138 289.958947 
L 356.948199 290.848047 
L 357.644385 291.962415 
L 357.876447 291.607368 
L 358.108509 292.652028 
L 358.340571 292.171631 
L 358.572632 292.231914 
L 359.036756 292.078938 
L 359.268818 292.024241 
L 359.50088 292.21853 
L 359.732942 292.255563 
L 359.965004 292.720728 
L 360.197065 291.968704 
L 360.429127 292.056981 
L 360.661189 291.679795 
L 360.893251 291.774534 
L 361.125313 292.046905 
L 361.357375 292.96438 
L 361.589437 292.818315 
L 361.821498 292.499616 
L 362.05356 291.370784 
L 362.981808 289.137454 
L 363.21387 289.222712 
L 363.445932 288.838315 
L 363.910055 290.894857 
L 364.374179 290.934808 
L 364.606241 291.189705 
L 364.838303 292.211283 
L 365.070365 292.23216 
L 365.302426 292.755039 
L 365.534488 292.690454 
L 365.76655 291.157975 
L 365.998612 292.293779 
L 366.230674 291.907395 
L 366.694798 292.273755 
L 367.158921 292.072179 
L 367.390983 292.048894 
L 367.623045 292.227826 
L 367.855107 291.148499 
L 368.087169 292.061664 
L 368.551292 292.374366 
L 368.783354 291.476015 
L 369.015416 292.337203 
L 369.247478 292.088308 
L 369.47954 292.283954 
L 369.711602 292.153871 
L 369.943664 290.410356 
L 370.175726 290.450012 
L 370.639849 289.311387 
L 370.871911 289.445118 
L 371.103973 289.733999 
L 371.336035 290.492082 
L 371.568097 290.64449 
L 371.800159 290.962754 
L 372.03222 290.756487 
L 372.496344 292.28419 
L 372.960468 292.482485 
L 373.19253 292.879721 
L 373.424592 293.593822 
L 373.656653 292.299244 
L 373.888715 292.875402 
L 374.120777 292.129318 
L 374.584901 292.52802 
L 375.049025 292.518203 
L 375.74521 291.605779 
L 376.209334 292.265342 
L 376.441396 292.018109 
L 376.673458 292.532416 
L 376.90552 292.627408 
L 377.137581 292.980136 
L 377.833767 290.335066 
L 378.065829 290.683131 
L 378.297891 291.547191 
L 378.529953 289.537336 
L 378.762014 289.572374 
L 379.226138 290.574456 
L 379.4582 290.719806 
L 379.690262 290.420858 
L 379.922324 290.837112 
L 380.154386 291.734072 
L 380.386447 291.90469 
L 380.618509 292.760952 
L 380.850571 292.94184 
L 381.082633 292.071961 
L 381.314695 292.934232 
L 381.778819 292.346111 
L 382.01088 291.978141 
L 382.242942 292.288842 
L 382.707066 292.331223 
L 382.939128 292.006018 
L 383.17119 292.165522 
L 383.403252 291.442107 
L 383.635314 291.425012 
L 383.867375 292.333836 
L 384.099437 291.397783 
L 384.331499 292.430653 
L 384.563561 292.288585 
L 384.795623 292.91727 
L 385.027685 291.369724 
L 385.491808 290.22842 
L 385.72387 290.803702 
L 385.955932 289.385616 
L 386.187994 289.69014 
L 386.420056 289.691443 
L 386.88418 290.951917 
L 387.116241 291.328675 
L 387.580365 289.93213 
L 387.812427 291.843354 
L 388.044489 291.930697 
L 388.508613 292.754935 
L 388.740675 292.713812 
L 388.972736 293.502985 
L 389.204798 292.686438 
L 389.43686 292.577464 
L 389.668922 292.299228 
L 390.133046 292.27724 
L 390.597169 292.545842 
L 390.829231 292.457685 
L 391.293355 291.913669 
L 391.525417 292.748022 
L 391.757479 291.946229 
L 391.989541 292.806496 
L 392.221602 292.356514 
L 392.453664 293.516701 
L 392.685726 291.792619 
L 393.14985 290.107017 
L 393.613974 289.48295 
L 393.846035 289.60118 
L 394.078097 289.885132 
L 394.542221 291.19776 
L 394.774283 290.947907 
L 395.006345 290.910946 
L 395.238407 291.196222 
L 395.470469 292.359162 
L 395.70253 292.306333 
L 395.934592 292.457034 
L 396.166654 292.801555 
L 396.398716 292.293379 
L 396.630778 292.559214 
L 397.094902 292.336164 
L 397.559025 292.139419 
L 397.791087 292.098058 
L 398.487273 292.577385 
L 398.487273 292.577385 
" style="fill:none;stroke:#1f77b4;stroke-linecap:square;stroke-width:1.5;"/>
   </g>
   <g id="line2d_17">
    <path clip-path="url(#pa2f9f4a44a)" d="M 73.832727 53.960389 
L 74.064789 57.123396 
L 74.296851 56.011638 
L 74.528913 55.934009 
L 74.993037 56.440959 
L 75.689222 54.747091 
L 75.921284 55.205042 
L 76.153346 54.681667 
L 76.385408 53.701371 
L 76.61747 53.568 
L 76.849531 53.728969 
L 77.545717 55.968375 
L 78.009841 58.728204 
L 78.706026 65.892384 
L 79.17015 72.245584 
L 79.866336 84.244136 
L 81.954892 125.472333 
L 82.186954 126.919131 
L 82.651078 127.973802 
L 82.88314 127.572137 
L 83.115202 127.794619 
L 83.347264 127.796407 
L 83.579325 127.434323 
L 83.811387 128.066861 
L 84.043449 125.565138 
L 84.275511 125.391752 
L 84.507573 124.453614 
L 84.739635 121.999644 
L 84.971697 122.926463 
L 85.203759 122.571038 
L 85.43582 123.957585 
L 86.132006 131.264324 
L 86.59613 141.408055 
L 86.828192 143.026836 
L 87.060253 143.043402 
L 87.292315 142.756199 
L 88.452625 139.374435 
L 88.684686 139.645839 
L 88.916748 138.600826 
L 89.14881 138.368206 
L 89.380872 137.917791 
L 89.612934 138.824032 
L 89.844996 138.856343 
L 90.077058 139.383409 
L 90.541181 141.242698 
L 91.005305 146.176381 
L 91.469429 146.719879 
L 91.701491 146.044526 
L 92.165614 142.78243 
L 92.397676 142.186756 
L 93.325924 147.57009 
L 93.557986 146.953539 
L 93.790047 146.795817 
L 94.022109 145.843312 
L 94.254171 146.418592 
L 94.486233 145.909588 
L 94.718295 149.075193 
L 95.182419 157.976024 
L 95.878604 163.136018 
L 96.110666 162.372915 
L 96.342728 162.39245 
L 96.57479 159.248595 
L 97.503037 153.654655 
L 97.967161 151.300932 
L 98.199223 151.584907 
L 98.663347 151.743465 
L 98.895408 153.161626 
L 99.12747 152.725414 
L 99.359532 153.57708 
L 100.055718 159.514298 
L 100.28778 158.326639 
L 100.519841 151.883537 
L 100.751903 148.618219 
L 100.983965 148.195338 
L 101.216027 145.599928 
L 101.680151 139.098866 
L 101.912213 138.553949 
L 102.144274 136.495418 
L 102.376336 136.662626 
L 102.608398 138.528945 
L 102.84046 139.198563 
L 103.304584 143.23426 
L 103.768708 150.810183 
L 104.000769 150.128199 
L 104.232831 150.210779 
L 104.464893 148.435723 
L 104.696955 144.698443 
L 104.929017 145.218279 
L 105.161079 142.221099 
L 105.393141 141.228422 
L 105.857264 142.32137 
L 106.321388 145.097418 
L 107.017574 154.775123 
L 107.249635 159.415819 
L 107.481697 167.993362 
L 107.713759 167.761689 
L 107.945821 170.56411 
L 108.177883 163.496601 
L 108.409945 166.183844 
L 108.642007 162.399862 
L 108.874068 164.44224 
L 109.10613 161.716777 
L 109.570254 158.755921 
L 109.802316 161.286019 
L 110.034378 153.649865 
L 110.26644 151.285779 
L 110.498502 146.510848 
L 110.730563 150.574873 
L 110.962625 146.040746 
L 111.194687 145.145137 
L 111.426749 149.330699 
L 111.658811 148.437744 
L 111.890873 146.448885 
L 112.122935 145.776468 
L 112.587058 138.755266 
L 112.81912 137.773083 
L 113.051182 136.288492 
L 113.515306 137.277953 
L 113.979429 142.186536 
L 114.211491 148.559251 
L 114.443553 150.703866 
L 115.603862 174.735022 
L 115.835924 172.93155 
L 116.067986 182.862537 
L 116.300048 180.916963 
L 116.53211 180.524998 
L 116.764172 178.430387 
L 116.996234 180.235826 
L 117.228296 180.734242 
L 117.460357 176.983154 
L 117.692419 177.347461 
L 118.388605 172.881885 
L 118.620667 173.41176 
L 118.852729 174.888409 
L 119.08479 173.701005 
L 120.2451 153.337211 
L 120.709223 148.874701 
L 120.941285 149.218515 
L 121.173347 145.805161 
L 121.405409 146.332113 
L 121.637471 147.454411 
L 121.869533 151.775737 
L 122.101595 152.428536 
L 122.79778 161.75304 
L 123.493966 171.407878 
L 123.726028 174.988324 
L 123.95809 174.968494 
L 124.190151 177.992168 
L 124.422213 177.962979 
L 124.886337 184.066303 
L 125.118399 182.527689 
L 125.350461 183.356478 
L 125.814584 187.711102 
L 126.046646 189.160164 
L 126.278708 189.643582 
L 126.51077 186.502862 
L 126.742832 181.629456 
L 127.206956 177.729756 
L 127.439017 177.921532 
L 127.903141 161.763954 
L 128.367265 157.556611 
L 128.599327 157.315999 
L 128.831389 154.910229 
L 129.295512 156.31308 
L 129.527574 157.671536 
L 129.991698 163.003498 
L 131.152007 185.942826 
L 131.384069 187.191488 
L 131.848193 191.16673 
L 132.080255 191.583047 
L 132.312317 194.222767 
L 132.544378 194.036618 
L 132.77644 192.911539 
L 133.008502 194.197323 
L 133.240564 196.367306 
L 133.472626 194.661313 
L 133.704688 194.578094 
L 134.168811 188.42821 
L 134.400873 183.923077 
L 134.632935 182.576042 
L 134.864997 176.818442 
L 135.097059 174.41279 
L 135.561183 165.145599 
L 135.793245 163.307359 
L 136.025306 162.472606 
L 136.257368 159.956136 
L 136.48943 160.697431 
L 136.721492 159.65092 
L 136.953554 161.033504 
L 137.649739 169.91509 
L 137.881801 175.652189 
L 138.113863 177.968591 
L 138.577987 189.510842 
L 138.810049 191.299739 
L 139.042111 196.352192 
L 139.274172 195.288279 
L 139.506234 195.774848 
L 139.738296 198.908737 
L 139.970358 198.545438 
L 140.20242 196.789465 
L 140.434482 196.110404 
L 140.666544 194.814048 
L 140.898605 196.95939 
L 141.130667 196.613788 
L 141.362729 194.701988 
L 141.594791 196.634312 
L 143.219224 168.706094 
L 143.451286 166.51383 
L 143.683348 167.658602 
L 143.91541 162.942012 
L 144.147472 164.011248 
L 144.379533 164.279963 
L 144.611595 165.660769 
L 144.843657 169.513451 
L 145.075719 170.154782 
L 145.771905 182.380782 
L 146.003966 190.400124 
L 146.236028 194.329649 
L 146.700152 207.691734 
L 146.932214 206.927685 
L 147.164276 203.806794 
L 147.396338 202.946438 
L 147.6284 201.300333 
L 147.860461 201.539818 
L 148.092523 201.613803 
L 148.324585 199.50035 
L 148.556647 200.460854 
L 149.252833 198.58056 
L 149.949018 186.675732 
L 150.413142 177.644884 
L 150.645204 175.441342 
L 150.877266 171.457259 
L 151.573451 166.049812 
L 151.805513 165.365946 
L 152.037575 167.021676 
L 152.965822 177.964091 
L 153.197884 183.844044 
L 153.429946 186.332036 
L 154.126132 202.72573 
L 154.358194 205.990762 
L 154.822317 208.062764 
L 155.054379 208.197629 
L 155.286441 208.595851 
L 155.518503 207.861825 
L 155.750565 207.681654 
L 155.982627 205.070856 
L 156.214688 204.227679 
L 156.44675 204.765138 
L 156.678812 205.737956 
L 157.142936 200.748605 
L 158.071183 181.647032 
L 158.303245 177.807599 
L 158.535307 176.178804 
L 158.767369 171.870284 
L 158.999431 171.676015 
L 159.463554 169.15283 
L 159.695616 170.282373 
L 160.15974 174.965104 
L 160.391802 177.860613 
L 160.623864 186.029699 
L 161.320049 197.233241 
L 161.784173 207.854999 
L 162.016235 211.180241 
L 162.248297 211.540385 
L 162.480359 213.980247 
L 162.712421 214.119149 
L 163.176544 212.484824 
L 163.408606 213.817804 
L 163.640668 211.890621 
L 163.87273 208.723114 
L 164.104792 208.463852 
L 164.336854 208.788136 
L 164.568915 207.060942 
L 165.729225 183.993597 
L 165.961287 180.996718 
L 166.193348 179.565402 
L 166.657472 173.513796 
L 166.889534 172.041975 
L 167.121596 171.906731 
L 167.353658 172.341902 
L 168.049843 181.074459 
L 168.978091 200.66638 
L 169.674276 218.458389 
L 169.906338 215.546951 
L 170.1384 214.104917 
L 170.370462 214.691725 
L 170.834586 215.012411 
L 171.530771 212.504597 
L 171.762833 211.149246 
L 171.994895 212.598811 
L 172.226957 210.946386 
L 172.691081 201.295806 
L 172.923143 196.062437 
L 173.155204 194.214346 
L 173.387266 190.874407 
L 174.083452 175.887927 
L 174.315514 174.010794 
L 174.547576 173.546667 
L 174.779637 173.472563 
L 175.475823 177.835997 
L 176.40407 195.529292 
L 177.332318 217.526437 
L 177.56438 216.467189 
L 177.796442 217.175231 
L 178.028503 214.99258 
L 178.260565 215.319832 
L 178.724689 212.034349 
L 178.956751 211.985063 
L 179.188813 211.135025 
L 179.420875 210.879334 
L 179.652937 212.990821 
L 179.884998 211.732093 
L 180.11706 209.158709 
L 180.813246 194.871688 
L 181.045308 193.223155 
L 181.27737 187.044317 
L 181.973555 178.780504 
L 182.205617 179.293217 
L 182.437679 181.207061 
L 182.669741 179.453159 
L 183.133864 183.706729 
L 183.365926 191.544479 
L 183.597988 190.515953 
L 183.83005 195.077338 
L 184.062112 205.23586 
L 184.294174 205.771627 
L 184.758297 217.379115 
L 184.990359 218.39404 
L 185.222421 214.603903 
L 185.454483 213.39448 
L 185.686545 213.116561 
L 185.918607 213.73143 
L 186.150669 215.747352 
L 186.382731 213.800044 
L 186.614792 213.151834 
L 186.846854 213.158743 
L 187.078916 212.626234 
L 187.310978 214.561448 
L 187.775102 211.182425 
L 188.935411 187.741952 
L 189.399535 181.917978 
L 189.631597 179.409834 
L 189.863658 178.450668 
L 190.09572 178.363884 
L 190.327782 181.286148 
L 190.559844 182.523694 
L 191.023968 187.717248 
L 191.488091 194.182219 
L 191.720153 201.70095 
L 191.952215 205.545703 
L 192.184277 212.159168 
L 192.648401 213.664074 
L 192.880463 212.900887 
L 193.112525 210.97537 
L 193.344586 210.354945 
L 193.80871 213.019275 
L 194.040772 211.957078 
L 194.272834 211.929354 
L 194.736958 212.588775 
L 195.201081 214.821172 
L 195.433143 214.035218 
L 196.129329 198.18062 
L 197.057576 184.811971 
L 197.289638 182.728459 
L 197.5217 183.249597 
L 197.753762 182.932998 
L 197.985824 182.868466 
L 198.217886 185.601414 
L 198.449947 186.80252 
L 199.378195 201.808233 
L 199.842319 212.460061 
L 200.07438 212.521868 
L 200.306442 213.64542 
L 200.770566 209.838043 
L 201.002628 210.793506 
L 201.466752 214.334183 
L 201.930875 212.469054 
L 202.162937 212.060881 
L 202.394999 212.540169 
L 202.627061 213.624892 
L 202.859123 215.815205 
L 203.091185 213.98623 
L 203.323246 210.477389 
L 204.019432 196.799474 
L 204.715618 187.16043 
L 204.94768 184.931085 
L 205.179741 184.526495 
L 205.411803 183.224125 
L 205.875927 187.18733 
L 206.107989 188.439159 
L 206.340051 193.406723 
L 206.572113 195.952332 
L 207.50036 215.052912 
L 207.732422 214.506642 
L 207.964484 213.487629 
L 208.196546 213.027979 
L 208.428607 212.31775 
L 208.660669 210.838759 
L 209.356855 214.722298 
L 209.588917 212.700899 
L 209.820979 212.209281 
L 210.05304 212.512944 
L 210.285102 213.437224 
L 210.517164 215.291162 
L 210.749226 215.765042 
L 210.981288 213.536013 
L 211.909535 194.730637 
L 212.141597 191.252837 
L 212.373659 189.953581 
L 212.605721 189.554312 
L 212.837783 186.03106 
L 213.069845 186.313034 
L 213.301907 185.149178 
L 213.533968 187.605622 
L 214.230154 199.624812 
L 214.462216 200.286453 
L 215.158401 212.33736 
L 215.390463 212.382507 
L 215.622525 211.58238 
L 215.854587 211.424335 
L 216.550773 209.004021 
L 217.246958 213.241061 
L 217.47902 212.676517 
L 217.711082 213.620803 
L 217.943144 215.777472 
L 218.175206 216.540427 
L 218.407268 214.166573 
L 218.639329 214.169094 
L 219.567577 197.321542 
L 219.799639 196.048001 
L 220.263762 191.255825 
L 220.727886 186.328408 
L 220.959948 186.795673 
L 221.424072 191.545319 
L 222.120257 200.902168 
L 222.584381 210.924083 
L 222.816443 213.270825 
L 223.048505 211.685017 
L 223.280567 211.690263 
L 223.512629 211.1871 
L 223.74469 209.907747 
L 223.976752 210.387032 
L 224.208814 209.183221 
L 224.440876 210.533426 
L 224.672938 210.549047 
L 224.905 211.450066 
L 225.137062 210.942234 
L 225.369123 211.890597 
L 225.601185 214.146825 
L 225.833247 211.609393 
L 226.065309 212.917969 
L 226.297371 215.472171 
L 227.45768 194.510788 
L 227.689742 193.41872 
L 227.921804 189.421697 
L 228.153866 189.073276 
L 228.617989 187.849705 
L 228.850051 188.580665 
L 229.082113 190.201271 
L 229.778299 201.126779 
L 230.010361 208.573105 
L 230.474484 214.157725 
L 230.706546 211.929569 
L 230.938608 211.595899 
L 231.17067 210.974315 
L 231.402732 211.113146 
L 231.866856 208.6916 
L 232.098917 210.257921 
L 232.330979 210.198383 
L 232.563041 211.103452 
L 232.795103 209.906292 
L 233.491289 213.425927 
L 233.72335 213.081969 
L 233.955412 215.357259 
L 234.187474 212.892142 
L 234.88366 200.388439 
L 235.115722 196.610281 
L 235.811907 192.050104 
L 236.043969 189.760751 
L 236.276031 190.44992 
L 236.508093 192.547886 
L 236.740155 193.163903 
L 237.43634 203.272294 
L 237.900464 212.787705 
L 238.364588 214.798261 
L 238.828711 212.661838 
L 239.060773 210.973242 
L 239.292835 210.75415 
L 239.524897 210.778464 
L 239.989021 212.608501 
L 240.221083 210.75706 
L 240.453144 211.334615 
L 240.685206 211.021868 
L 241.14933 213.851088 
L 241.381392 212.185824 
L 241.613454 214.294462 
L 241.845516 213.453457 
L 242.541701 202.192172 
L 242.773763 202.082145 
L 243.005825 196.300184 
L 243.237887 195.242989 
L 243.469949 193.226867 
L 243.702011 192.60116 
L 243.934072 191.315269 
L 244.166134 194.354529 
L 244.398196 194.208269 
L 244.86232 200.392984 
L 245.094382 203.816297 
L 245.326444 213.798308 
L 245.558505 215.19367 
L 245.790567 214.710085 
L 246.022629 214.610737 
L 246.254691 212.409956 
L 246.486753 211.742221 
L 246.718815 209.875 
L 246.950877 209.883921 
L 247.182938 208.528112 
L 247.415 210.359721 
L 247.647062 210.583019 
L 247.879124 209.325329 
L 248.111186 210.591043 
L 248.343248 210.157923 
L 248.57531 210.612193 
L 248.807371 212.686104 
L 249.271495 212.094544 
L 249.503557 212.37903 
L 249.967681 207.718799 
L 250.431805 197.69131 
L 250.663866 196.700883 
L 251.12799 191.185337 
L 251.360052 191.916333 
L 251.592114 193.692998 
L 251.824176 194.180345 
L 252.056238 197.359867 
L 252.288299 198.078733 
L 252.520361 200.952133 
L 252.984485 211.52079 
L 253.216547 213.876624 
L 253.680671 212.232676 
L 254.376856 209.717335 
L 254.608918 211.292818 
L 254.84098 208.382279 
L 255.073042 209.527955 
L 255.305104 209.444361 
L 256.001289 211.484082 
L 256.233351 211.552277 
L 256.465413 211.925669 
L 256.697475 214.189269 
L 256.929537 211.16145 
L 257.161599 212.911396 
L 257.39366 211.229403 
L 257.625722 206.576284 
L 257.857784 204.491215 
L 258.321908 195.874992 
L 258.55397 195.010178 
L 258.786032 193.48376 
L 259.250155 192.709588 
L 259.946341 197.406694 
L 260.874588 215.036784 
L 261.10665 215.052042 
L 261.338712 212.869405 
L 261.570774 212.649847 
L 261.802836 211.451598 
L 262.034898 211.314066 
L 262.26696 211.408325 
L 262.499021 209.254793 
L 262.731083 210.338655 
L 262.963145 210.074553 
L 263.891393 213.2561 
L 264.123454 211.608228 
L 264.355516 214.325777 
L 264.587578 213.383087 
L 264.81964 213.848789 
L 265.051702 213.14581 
L 265.747887 199.813351 
L 266.444073 192.829422 
L 266.676135 191.664088 
L 267.140259 193.581883 
L 267.604382 197.8336 
L 268.068506 204.835884 
L 268.53263 214.555515 
L 268.764692 214.045102 
L 268.996754 212.363271 
L 269.228815 212.545481 
L 269.692939 209.877877 
L 270.389125 211.480864 
L 270.621187 210.716712 
L 271.317372 211.245385 
L 271.549434 211.670661 
L 271.781496 211.214855 
L 272.013558 214.454063 
L 272.24562 213.708917 
L 272.477681 212.28142 
L 272.709743 211.939171 
L 273.870053 193.538893 
L 274.102114 193.588432 
L 274.334176 192.308501 
L 274.566238 192.669965 
L 275.494486 201.188633 
L 275.726548 209.052486 
L 276.190671 214.595487 
L 276.422733 214.391129 
L 276.654795 216.081794 
L 276.886857 214.702381 
L 277.118919 211.073904 
L 277.350981 209.718576 
L 277.583042 210.059456 
L 277.815104 209.886383 
L 278.047166 210.16401 
L 278.279228 209.281766 
L 278.743352 210.606294 
L 279.207475 211.206742 
L 279.439537 211.63777 
L 279.671599 213.060537 
L 279.903661 212.356694 
L 280.135723 212.447818 
L 280.367785 212.726746 
L 281.760156 193.158036 
L 281.992218 194.186223 
L 282.22428 196.81906 
L 282.456342 195.857592 
L 282.688403 197.523034 
L 282.920465 198.299911 
L 283.384589 207.049025 
L 283.616651 211.962736 
L 283.848713 212.885851 
L 284.080775 214.340517 
L 284.312836 216.823522 
L 284.544898 213.960679 
L 284.77696 212.998791 
L 285.009022 211.192694 
L 285.241084 211.187234 
L 285.473146 212.202705 
L 285.937269 209.696067 
L 286.401393 211.795608 
L 286.633455 212.032639 
L 286.865517 211.603377 
L 287.561703 211.373363 
L 287.793764 212.786788 
L 288.025826 213.314575 
L 288.48995 207.641073 
L 288.954074 198.008673 
L 289.186136 197.384166 
L 289.418197 193.108111 
L 289.650259 191.661051 
L 289.882321 191.8426 
L 290.578507 197.428249 
L 291.274692 211.408076 
L 291.506754 212.598943 
L 291.738816 213.140767 
L 291.970878 213.091705 
L 292.20294 213.768032 
L 292.435002 213.603638 
L 292.667063 210.265278 
L 293.131187 211.069891 
L 293.595311 208.975855 
L 294.523558 211.710401 
L 294.75562 212.447702 
L 294.987682 212.348673 
L 295.219744 213.621366 
L 295.451806 213.214923 
L 295.683868 214.161611 
L 296.147991 207.802307 
L 296.844177 196.557997 
L 297.308301 194.295608 
L 297.540363 194.280136 
L 297.772424 196.011521 
L 298.004486 196.748134 
L 298.236548 198.400328 
L 298.932734 211.295136 
L 299.164796 211.990862 
L 299.396857 211.647077 
L 299.628919 212.28559 
L 300.093043 211.54619 
L 300.325105 209.812361 
L 300.557167 210.348244 
L 300.789229 210.389226 
L 301.021291 209.186204 
L 301.253352 209.799069 
L 301.485414 210.016508 
L 301.717476 210.467564 
L 301.949538 210.64815 
L 302.413662 211.863185 
L 302.645724 212.183351 
L 302.877785 213.919696 
L 303.109847 214.441343 
L 303.341909 212.869086 
L 303.573971 212.742429 
L 304.038095 205.773431 
L 304.502218 198.613317 
L 304.73428 197.807433 
L 304.966342 196.555954 
L 305.430466 198.590765 
L 305.89459 202.759806 
L 306.126652 206.9808 
L 306.358713 208.993835 
L 306.590775 212.662671 
L 306.822837 213.790694 
L 307.519023 210.52422 
L 307.751085 210.381938 
L 307.983146 208.949215 
L 308.215208 209.522094 
L 308.44727 209.417707 
L 308.679332 209.647035 
L 308.911394 210.039805 
L 309.143456 209.57992 
L 309.375518 209.583182 
L 309.607579 209.867687 
L 309.839641 210.452307 
L 310.071703 211.546603 
L 310.303765 213.668735 
L 310.535827 210.533575 
L 310.999951 215.656872 
L 311.232012 215.128363 
L 311.696136 206.981326 
L 311.928198 205.800663 
L 312.392322 201.144045 
L 312.624384 202.08107 
L 312.856446 197.337799 
L 313.320569 203.608042 
L 313.552631 203.448245 
L 313.784693 209.419769 
L 314.016755 211.04797 
L 314.248817 213.990714 
L 314.480879 214.170941 
L 314.71294 213.425084 
L 314.945002 214.175888 
L 315.409126 211.095126 
L 315.641188 209.623385 
L 315.87325 209.781428 
L 316.105312 209.518532 
L 316.337373 210.042474 
L 316.569435 210.169253 
L 316.801497 209.858831 
L 317.265621 210.654778 
L 317.729745 211.880993 
L 317.961806 213.632465 
L 318.193868 214.484924 
L 318.42593 214.573087 
L 318.890054 215.95529 
L 319.818301 204.211262 
L 320.050363 204.793326 
L 320.282425 199.378734 
L 320.514487 198.020058 
L 320.746549 199.822464 
L 320.978611 200.356739 
L 321.210673 205.588462 
L 321.442734 205.790631 
L 321.906858 213.092741 
L 322.13892 212.588578 
L 322.370982 212.797657 
L 322.603044 210.809831 
L 322.835106 211.791286 
L 323.299229 209.363688 
L 323.531291 209.053187 
L 323.995415 209.571576 
L 324.227477 209.568302 
L 324.459539 209.369474 
L 324.6916 209.409031 
L 324.923662 210.37669 
L 325.155724 210.442754 
L 325.387786 210.811212 
L 325.619848 212.450081 
L 325.85191 212.73234 
L 326.083972 211.582147 
L 326.316034 212.719618 
L 326.548095 215.01852 
L 326.780157 216.038346 
L 327.244281 206.086014 
L 327.476343 204.018587 
L 327.708405 204.381321 
L 327.940467 202.448867 
L 328.172528 202.372358 
L 328.40459 201.582236 
L 328.636652 200.212234 
L 328.868714 202.137503 
L 329.100776 205.056324 
L 329.5649 213.93413 
L 329.796961 213.515515 
L 330.029023 212.618539 
L 330.261085 211.066008 
L 330.493147 211.097028 
L 330.957271 209.172899 
L 331.189333 208.891342 
L 331.421395 208.816201 
L 331.653456 207.928394 
L 331.885518 208.408144 
L 332.11758 208.484077 
L 332.349642 208.7495 
L 332.813766 210.081772 
L 333.045828 211.308532 
L 333.277889 211.803329 
L 333.509951 210.509879 
L 333.742013 212.619163 
L 333.974075 210.638422 
L 334.206137 213.003186 
L 334.438199 213.433326 
L 334.670261 213.388822 
L 335.134384 208.385837 
L 335.366446 203.977372 
L 335.598508 203.685805 
L 335.83057 203.79398 
L 336.062632 204.338437 
L 336.758817 207.518058 
L 337.222941 214.306223 
L 337.455003 216.424462 
L 337.919127 212.415587 
L 338.151189 213.313398 
L 338.615312 209.431475 
L 338.847374 209.380289 
L 339.079436 209.118176 
L 339.311498 209.391432 
L 339.54356 208.804116 
L 339.775622 209.065276 
L 340.007683 209.00114 
L 340.239745 209.063625 
L 340.471807 209.352913 
L 340.703869 209.158643 
L 340.935931 210.449442 
L 341.167993 209.259768 
L 341.400055 212.20669 
L 341.632116 211.35765 
L 341.864178 213.79212 
L 342.09624 213.407419 
L 342.328302 215.18507 
L 343.024488 206.544202 
L 343.256549 206.366394 
L 343.488611 205.716537 
L 343.720673 206.40418 
L 343.952735 207.499391 
L 344.184797 206.64379 
L 344.416859 207.92601 
L 344.648921 211.758931 
L 345.113044 215.016004 
L 345.345106 213.190897 
L 345.577168 213.817733 
L 345.80923 212.899713 
L 346.041292 212.557329 
L 346.273354 210.213859 
L 346.505416 209.489506 
L 346.737477 210.160971 
L 346.969539 210.272899 
L 347.201601 209.408765 
L 347.433663 209.177253 
L 347.665725 209.609737 
L 347.897787 209.692519 
L 348.129849 210.324105 
L 348.36191 210.590087 
L 348.593972 210.675906 
L 348.826034 211.510321 
L 349.290158 213.770959 
L 349.52222 214.541638 
L 349.754282 214.017804 
L 349.986343 214.646639 
L 350.218405 212.369651 
L 350.450467 207.495277 
L 350.914591 206.130765 
L 351.146653 206.269287 
L 351.378715 204.61701 
L 351.610777 206.268984 
L 351.842838 206.976818 
L 352.0749 212.7791 
L 352.306962 215.610119 
L 352.539024 216.897009 
L 352.771086 215.034694 
L 353.003148 211.433884 
L 353.23521 213.079679 
L 354.163457 209.090201 
L 354.395519 210.819166 
L 354.627581 209.125345 
L 354.859643 209.071975 
L 355.091704 208.796345 
L 355.323766 209.227786 
L 355.555828 209.291372 
L 356.019952 210.172746 
L 356.252014 210.657329 
L 356.484076 213.223778 
L 356.716138 210.887901 
L 356.948199 212.788524 
L 357.180261 213.592543 
L 357.412323 213.950278 
L 357.644385 213.981244 
L 357.876447 211.096357 
L 358.108509 209.87191 
L 358.572632 205.100285 
L 358.804694 205.220253 
L 359.036756 206.577834 
L 359.268818 207.127489 
L 359.50088 210.191093 
L 359.732942 210.342194 
L 359.965004 213.324461 
L 360.197065 214.498095 
L 360.429127 213.821893 
L 360.661189 214.032771 
L 361.125313 211.250791 
L 361.589437 211.178909 
L 361.821498 209.346631 
L 362.05356 209.67342 
L 362.285622 209.095023 
L 362.517684 209.807704 
L 362.749746 209.771392 
L 362.981808 210.021499 
L 363.21387 210.076847 
L 363.445932 209.592739 
L 364.142117 210.789102 
L 364.374179 210.565442 
L 364.606241 212.761592 
L 364.838303 213.328925 
L 365.070365 213.579607 
L 365.302426 214.240638 
L 365.534488 213.888645 
L 365.998612 208.057863 
L 366.230674 208.09552 
L 366.462736 206.243784 
L 366.694798 208.264787 
L 366.926859 207.398445 
L 367.158921 208.147701 
L 367.623045 214.195535 
L 367.855107 221.076436 
L 368.087169 216.595471 
L 368.319231 215.921658 
L 368.551292 216.064415 
L 368.783354 215.36543 
L 369.015416 213.518656 
L 369.247478 210.013915 
L 369.47954 210.161764 
L 370.175726 209.435174 
L 370.407787 209.487908 
L 370.639849 209.008111 
L 370.871911 210.113436 
L 371.103973 210.007715 
L 371.336035 210.699913 
L 371.568097 210.954349 
L 372.03222 212.657028 
L 372.496344 213.669093 
L 372.728406 214.379522 
L 372.960468 214.473828 
L 373.19253 214.219864 
L 373.888715 206.745204 
L 374.120777 206.739482 
L 374.352839 207.675612 
L 374.584901 207.188739 
L 374.816963 208.130108 
L 375.513148 215.641803 
L 375.74521 214.521657 
L 375.977272 211.694605 
L 376.209334 215.117509 
L 376.90552 209.873217 
L 377.137581 209.979622 
L 377.369643 209.542788 
L 377.601705 209.657395 
L 377.833767 208.079588 
L 378.297891 209.865857 
L 378.529953 209.864221 
L 378.762014 210.427411 
L 378.994076 210.65924 
L 379.226138 211.149042 
L 379.4582 212.191785 
L 379.690262 212.116279 
L 380.154386 214.659738 
L 380.386447 212.437994 
L 380.618509 212.767406 
L 380.850571 217.022255 
L 381.314695 210.913432 
L 381.546757 210.929104 
L 381.778819 208.843189 
L 382.01088 207.894732 
L 382.242942 208.997997 
L 382.475004 213.406346 
L 382.707066 213.951047 
L 383.17119 217.075214 
L 383.403252 214.442573 
L 383.635314 215.039319 
L 383.867375 216.77028 
L 384.099437 213.082242 
L 384.331499 211.327734 
L 384.563561 208.092298 
L 384.795623 210.380698 
L 385.027685 211.366201 
L 385.491808 208.101093 
L 385.72387 208.690187 
L 385.955932 208.681894 
L 386.187994 209.251892 
L 386.420056 209.248973 
L 387.812427 213.300486 
L 388.044489 216.435949 
L 388.276551 214.017321 
L 388.508613 217.637641 
L 388.972736 213.249979 
L 389.204798 211.494578 
L 389.43686 212.272373 
L 389.668922 211.335778 
L 389.900984 208.379323 
L 390.133046 210.606913 
L 390.597169 216.880618 
L 390.829231 214.40858 
L 391.061293 214.124559 
L 391.293355 212.261083 
L 391.525417 211.846215 
L 391.757479 210.855706 
L 391.989541 210.68818 
L 392.221602 208.267268 
L 392.453664 210.258407 
L 392.685726 209.202503 
L 392.917788 210.458747 
L 393.14985 211.017301 
L 393.846035 209.866519 
L 394.078097 210.259932 
L 394.310159 210.971641 
L 394.542221 211.262683 
L 394.774283 212.476681 
L 395.006345 211.167659 
L 395.238407 213.836614 
L 395.70253 212.138274 
L 395.934592 213.60314 
L 396.166654 214.127182 
L 396.398716 213.893655 
L 396.630778 212.641855 
L 396.86284 210.760769 
L 397.094902 212.060244 
L 397.326963 211.139004 
L 397.559025 210.840616 
L 397.791087 214.38981 
L 398.023149 214.242033 
L 398.255211 217.852202 
L 398.487273 215.163185 
L 398.487273 215.163185 
" style="fill:none;stroke:#ff7f0e;stroke-linecap:square;stroke-width:1.5;"/>
   </g>
   <g id="patch_3">
    <path d="M 57.6 307.584 
L 57.6 41.472 
" style="fill:none;stroke:#000000;stroke-linecap:square;stroke-linejoin:miter;stroke-width:0.8;"/>
   </g>
   <g id="patch_4">
    <path d="M 414.72 307.584 
L 414.72 41.472 
" style="fill:none;stroke:#000000;stroke-linecap:square;stroke-linejoin:miter;stroke-width:0.8;"/>
   </g>
   <g id="patch_5">
    <path d="M 57.6 307.584 
L 414.72 307.584 
" style="fill:none;stroke:#000000;stroke-linecap:square;stroke-linejoin:miter;stroke-width:0.8;"/>
   </g>
   <g id="patch_6">
    <path d="M 57.6 41.472 
L 414.72 41.472 
" style="fill:none;stroke:#000000;stroke-linecap:square;stroke-linejoin:miter;stroke-width:0.8;"/>
   </g>
  </g>
 </g>
 <defs>
  <clipPath id="pa2f9f4a44a">
   <rect height="266.112" width="357.12" x="57.6" y="41.472"/>
  </clipPath>
 </defs>
</svg>
