<?xml version="1.0" encoding="utf-8" standalone="no"?>
<!DOCTYPE svg PUBLIC "-//W3C//DTD SVG 1.1//EN"
  "http://www.w3.org/Graphics/SVG/1.1/DTD/svg11.dtd">
<!-- Created with matplotlib (https://matplotlib.org/) -->
<svg height="345.6pt" version="1.1" viewBox="0 0 460.8 345.6" width="460.8pt" xmlns="http://www.w3.org/2000/svg" xmlns:xlink="http://www.w3.org/1999/xlink">
 <defs>
  <style type="text/css">
*{stroke-linecap:butt;stroke-linejoin:round;}
  </style>
 </defs>
 <g id="figure_1">
  <g id="patch_1">
   <path d="M 0 345.6 
L 460.8 345.6 
L 460.8 0 
L 0 0 
z
" style="fill:#ffffff;"/>
  </g>
  <g id="axes_1">
   <g id="patch_2">
    <path d="M 57.6 307.584 
L 414.72 307.584 
L 414.72 41.472 
L 57.6 41.472 
z
" style="fill:#ffffff;"/>
   </g>
   <g id="matplotlib.axis_1">
    <g id="xtick_1">
     <g id="line2d_1">
      <defs>
       <path d="M 0 0 
L 0 3.5 
" id="md8ad4e9a21" style="stroke:#000000;stroke-width:0.8;"/>
      </defs>
      <g>
       <use style="stroke:#000000;stroke-width:0.8;" x="73.832727" xlink:href="#md8ad4e9a21" y="307.584"/>
      </g>
     </g>
     <g id="text_1">
      <!-- 0 -->
      <defs>
       <path d="M 31.78125 66.40625 
Q 24.171875 66.40625 20.328125 58.90625 
Q 16.5 51.421875 16.5 36.375 
Q 16.5 21.390625 20.328125 13.890625 
Q 24.171875 6.390625 31.78125 6.390625 
Q 39.453125 6.390625 43.28125 13.890625 
Q 47.125 21.390625 47.125 36.375 
Q 47.125 51.421875 43.28125 58.90625 
Q 39.453125 66.40625 31.78125 66.40625 
z
M 31.78125 74.21875 
Q 44.046875 74.21875 50.515625 64.515625 
Q 56.984375 54.828125 56.984375 36.375 
Q 56.984375 17.96875 50.515625 8.265625 
Q 44.046875 -1.421875 31.78125 -1.421875 
Q 19.53125 -1.421875 13.0625 8.265625 
Q 6.59375 17.96875 6.59375 36.375 
Q 6.59375 54.828125 13.0625 64.515625 
Q 19.53125 74.21875 31.78125 74.21875 
z
" id="DejaVuSans-48"/>
      </defs>
      <g transform="translate(70.651477 322.182437)scale(0.1 -0.1)">
       <use xlink:href="#DejaVuSans-48"/>
      </g>
     </g>
    </g>
    <g id="xtick_2">
     <g id="line2d_2">
      <g>
       <use style="stroke:#000000;stroke-width:0.8;" x="120.2451" xlink:href="#md8ad4e9a21" y="307.584"/>
      </g>
     </g>
     <g id="text_2">
      <!-- 200 -->
      <defs>
       <path d="M 19.1875 8.296875 
L 53.609375 8.296875 
L 53.609375 0 
L 7.328125 0 
L 7.328125 8.296875 
Q 12.9375 14.109375 22.625 23.890625 
Q 32.328125 33.6875 34.8125 36.53125 
Q 39.546875 41.84375 41.421875 45.53125 
Q 43.3125 49.21875 43.3125 52.78125 
Q 43.3125 58.59375 39.234375 62.25 
Q 35.15625 65.921875 28.609375 65.921875 
Q 23.96875 65.921875 18.8125 64.3125 
Q 13.671875 62.703125 7.8125 59.421875 
L 7.8125 69.390625 
Q 13.765625 71.78125 18.9375 73 
Q 24.125 74.21875 28.421875 74.21875 
Q 39.75 74.21875 46.484375 68.546875 
Q 53.21875 62.890625 53.21875 53.421875 
Q 53.21875 48.921875 51.53125 44.890625 
Q 49.859375 40.875 45.40625 35.40625 
Q 44.1875 33.984375 37.640625 27.21875 
Q 31.109375 20.453125 19.1875 8.296875 
z
" id="DejaVuSans-50"/>
      </defs>
      <g transform="translate(110.70135 322.182437)scale(0.1 -0.1)">
       <use xlink:href="#DejaVuSans-50"/>
       <use x="63.623047" xlink:href="#DejaVuSans-48"/>
       <use x="127.246094" xlink:href="#DejaVuSans-48"/>
      </g>
     </g>
    </g>
    <g id="xtick_3">
     <g id="line2d_3">
      <g>
       <use style="stroke:#000000;stroke-width:0.8;" x="166.657472" xlink:href="#md8ad4e9a21" y="307.584"/>
      </g>
     </g>
     <g id="text_3">
      <!-- 400 -->
      <defs>
       <path d="M 37.796875 64.3125 
L 12.890625 25.390625 
L 37.796875 25.390625 
z
M 35.203125 72.90625 
L 47.609375 72.90625 
L 47.609375 25.390625 
L 58.015625 25.390625 
L 58.015625 17.1875 
L 47.609375 17.1875 
L 47.609375 0 
L 37.796875 0 
L 37.796875 17.1875 
L 4.890625 17.1875 
L 4.890625 26.703125 
z
" id="DejaVuSans-52"/>
      </defs>
      <g transform="translate(157.113722 322.182437)scale(0.1 -0.1)">
       <use xlink:href="#DejaVuSans-52"/>
       <use x="63.623047" xlink:href="#DejaVuSans-48"/>
       <use x="127.246094" xlink:href="#DejaVuSans-48"/>
      </g>
     </g>
    </g>
    <g id="xtick_4">
     <g id="line2d_4">
      <g>
       <use style="stroke:#000000;stroke-width:0.8;" x="213.069845" xlink:href="#md8ad4e9a21" y="307.584"/>
      </g>
     </g>
     <g id="text_4">
      <!-- 600 -->
      <defs>
       <path d="M 33.015625 40.375 
Q 26.375 40.375 22.484375 35.828125 
Q 18.609375 31.296875 18.609375 23.390625 
Q 18.609375 15.53125 22.484375 10.953125 
Q 26.375 6.390625 33.015625 6.390625 
Q 39.65625 6.390625 43.53125 10.953125 
Q 47.40625 15.53125 47.40625 23.390625 
Q 47.40625 31.296875 43.53125 35.828125 
Q 39.65625 40.375 33.015625 40.375 
z
M 52.59375 71.296875 
L 52.59375 62.3125 
Q 48.875 64.0625 45.09375 64.984375 
Q 41.3125 65.921875 37.59375 65.921875 
Q 27.828125 65.921875 22.671875 59.328125 
Q 17.53125 52.734375 16.796875 39.40625 
Q 19.671875 43.65625 24.015625 45.921875 
Q 28.375 48.1875 33.59375 48.1875 
Q 44.578125 48.1875 50.953125 41.515625 
Q 57.328125 34.859375 57.328125 23.390625 
Q 57.328125 12.15625 50.6875 5.359375 
Q 44.046875 -1.421875 33.015625 -1.421875 
Q 20.359375 -1.421875 13.671875 8.265625 
Q 6.984375 17.96875 6.984375 36.375 
Q 6.984375 53.65625 15.1875 63.9375 
Q 23.390625 74.21875 37.203125 74.21875 
Q 40.921875 74.21875 44.703125 73.484375 
Q 48.484375 72.75 52.59375 71.296875 
z
" id="DejaVuSans-54"/>
      </defs>
      <g transform="translate(203.526095 322.182437)scale(0.1 -0.1)">
       <use xlink:href="#DejaVuSans-54"/>
       <use x="63.623047" xlink:href="#DejaVuSans-48"/>
       <use x="127.246094" xlink:href="#DejaVuSans-48"/>
      </g>
     </g>
    </g>
    <g id="xtick_5">
     <g id="line2d_5">
      <g>
       <use style="stroke:#000000;stroke-width:0.8;" x="259.482217" xlink:href="#md8ad4e9a21" y="307.584"/>
      </g>
     </g>
     <g id="text_5">
      <!-- 800 -->
      <defs>
       <path d="M 31.78125 34.625 
Q 24.75 34.625 20.71875 30.859375 
Q 16.703125 27.09375 16.703125 20.515625 
Q 16.703125 13.921875 20.71875 10.15625 
Q 24.75 6.390625 31.78125 6.390625 
Q 38.8125 6.390625 42.859375 10.171875 
Q 46.921875 13.96875 46.921875 20.515625 
Q 46.921875 27.09375 42.890625 30.859375 
Q 38.875 34.625 31.78125 34.625 
z
M 21.921875 38.8125 
Q 15.578125 40.375 12.03125 44.71875 
Q 8.5 49.078125 8.5 55.328125 
Q 8.5 64.0625 14.71875 69.140625 
Q 20.953125 74.21875 31.78125 74.21875 
Q 42.671875 74.21875 48.875 69.140625 
Q 55.078125 64.0625 55.078125 55.328125 
Q 55.078125 49.078125 51.53125 44.71875 
Q 48 40.375 41.703125 38.8125 
Q 48.828125 37.15625 52.796875 32.3125 
Q 56.78125 27.484375 56.78125 20.515625 
Q 56.78125 9.90625 50.3125 4.234375 
Q 43.84375 -1.421875 31.78125 -1.421875 
Q 19.734375 -1.421875 13.25 4.234375 
Q 6.78125 9.90625 6.78125 20.515625 
Q 6.78125 27.484375 10.78125 32.3125 
Q 14.796875 37.15625 21.921875 38.8125 
z
M 18.3125 54.390625 
Q 18.3125 48.734375 21.84375 45.5625 
Q 25.390625 42.390625 31.78125 42.390625 
Q 38.140625 42.390625 41.71875 45.5625 
Q 45.3125 48.734375 45.3125 54.390625 
Q 45.3125 60.0625 41.71875 63.234375 
Q 38.140625 66.40625 31.78125 66.40625 
Q 25.390625 66.40625 21.84375 63.234375 
Q 18.3125 60.0625 18.3125 54.390625 
z
" id="DejaVuSans-56"/>
      </defs>
      <g transform="translate(249.938467 322.182437)scale(0.1 -0.1)">
       <use xlink:href="#DejaVuSans-56"/>
       <use x="63.623047" xlink:href="#DejaVuSans-48"/>
       <use x="127.246094" xlink:href="#DejaVuSans-48"/>
      </g>
     </g>
    </g>
    <g id="xtick_6">
     <g id="line2d_6">
      <g>
       <use style="stroke:#000000;stroke-width:0.8;" x="305.89459" xlink:href="#md8ad4e9a21" y="307.584"/>
      </g>
     </g>
     <g id="text_6">
      <!-- 1000 -->
      <defs>
       <path d="M 12.40625 8.296875 
L 28.515625 8.296875 
L 28.515625 63.921875 
L 10.984375 60.40625 
L 10.984375 69.390625 
L 28.421875 72.90625 
L 38.28125 72.90625 
L 38.28125 8.296875 
L 54.390625 8.296875 
L 54.390625 0 
L 12.40625 0 
z
" id="DejaVuSans-49"/>
      </defs>
      <g transform="translate(293.16959 322.182437)scale(0.1 -0.1)">
       <use xlink:href="#DejaVuSans-49"/>
       <use x="63.623047" xlink:href="#DejaVuSans-48"/>
       <use x="127.246094" xlink:href="#DejaVuSans-48"/>
       <use x="190.869141" xlink:href="#DejaVuSans-48"/>
      </g>
     </g>
    </g>
    <g id="xtick_7">
     <g id="line2d_7">
      <g>
       <use style="stroke:#000000;stroke-width:0.8;" x="352.306962" xlink:href="#md8ad4e9a21" y="307.584"/>
      </g>
     </g>
     <g id="text_7">
      <!-- 1200 -->
      <g transform="translate(339.581962 322.182437)scale(0.1 -0.1)">
       <use xlink:href="#DejaVuSans-49"/>
       <use x="63.623047" xlink:href="#DejaVuSans-50"/>
       <use x="127.246094" xlink:href="#DejaVuSans-48"/>
       <use x="190.869141" xlink:href="#DejaVuSans-48"/>
      </g>
     </g>
    </g>
    <g id="xtick_8">
     <g id="line2d_8">
      <g>
       <use style="stroke:#000000;stroke-width:0.8;" x="398.719335" xlink:href="#md8ad4e9a21" y="307.584"/>
      </g>
     </g>
     <g id="text_8">
      <!-- 1400 -->
      <g transform="translate(385.994335 322.182437)scale(0.1 -0.1)">
       <use xlink:href="#DejaVuSans-49"/>
       <use x="63.623047" xlink:href="#DejaVuSans-52"/>
       <use x="127.246094" xlink:href="#DejaVuSans-48"/>
       <use x="190.869141" xlink:href="#DejaVuSans-48"/>
      </g>
     </g>
    </g>
   </g>
   <g id="matplotlib.axis_2">
    <g id="ytick_1">
     <g id="line2d_9">
      <defs>
       <path d="M 0 0 
L -3.5 0 
" id="mf1dec91ab3" style="stroke:#000000;stroke-width:0.8;"/>
      </defs>
      <g>
       <use style="stroke:#000000;stroke-width:0.8;" x="57.6" xlink:href="#mf1dec91ab3" y="295.540182"/>
      </g>
     </g>
     <g id="text_9">
      <!-- 0.000 -->
      <defs>
       <path d="M 10.6875 12.40625 
L 21 12.40625 
L 21 0 
L 10.6875 0 
z
" id="DejaVuSans-46"/>
      </defs>
      <g transform="translate(21.971875 299.339401)scale(0.1 -0.1)">
       <use xlink:href="#DejaVuSans-48"/>
       <use x="63.623047" xlink:href="#DejaVuSans-46"/>
       <use x="95.410156" xlink:href="#DejaVuSans-48"/>
       <use x="159.033203" xlink:href="#DejaVuSans-48"/>
       <use x="222.65625" xlink:href="#DejaVuSans-48"/>
      </g>
     </g>
    </g>
    <g id="ytick_2">
     <g id="line2d_10">
      <g>
       <use style="stroke:#000000;stroke-width:0.8;" x="57.6" xlink:href="#mf1dec91ab3" y="265.787562"/>
      </g>
     </g>
     <g id="text_10">
      <!-- 0.025 -->
      <defs>
       <path d="M 10.796875 72.90625 
L 49.515625 72.90625 
L 49.515625 64.59375 
L 19.828125 64.59375 
L 19.828125 46.734375 
Q 21.96875 47.46875 24.109375 47.828125 
Q 26.265625 48.1875 28.421875 48.1875 
Q 40.625 48.1875 47.75 41.5 
Q 54.890625 34.8125 54.890625 23.390625 
Q 54.890625 11.625 47.5625 5.09375 
Q 40.234375 -1.421875 26.90625 -1.421875 
Q 22.3125 -1.421875 17.546875 -0.640625 
Q 12.796875 0.140625 7.71875 1.703125 
L 7.71875 11.625 
Q 12.109375 9.234375 16.796875 8.0625 
Q 21.484375 6.890625 26.703125 6.890625 
Q 35.15625 6.890625 40.078125 11.328125 
Q 45.015625 15.765625 45.015625 23.390625 
Q 45.015625 31 40.078125 35.4375 
Q 35.15625 39.890625 26.703125 39.890625 
Q 22.75 39.890625 18.8125 39.015625 
Q 14.890625 38.140625 10.796875 36.28125 
z
" id="DejaVuSans-53"/>
      </defs>
      <g transform="translate(21.971875 269.586781)scale(0.1 -0.1)">
       <use xlink:href="#DejaVuSans-48"/>
       <use x="63.623047" xlink:href="#DejaVuSans-46"/>
       <use x="95.410156" xlink:href="#DejaVuSans-48"/>
       <use x="159.033203" xlink:href="#DejaVuSans-50"/>
       <use x="222.65625" xlink:href="#DejaVuSans-53"/>
      </g>
     </g>
    </g>
    <g id="ytick_3">
     <g id="line2d_11">
      <g>
       <use style="stroke:#000000;stroke-width:0.8;" x="57.6" xlink:href="#mf1dec91ab3" y="236.034942"/>
      </g>
     </g>
     <g id="text_11">
      <!-- 0.050 -->
      <g transform="translate(21.971875 239.834161)scale(0.1 -0.1)">
       <use xlink:href="#DejaVuSans-48"/>
       <use x="63.623047" xlink:href="#DejaVuSans-46"/>
       <use x="95.410156" xlink:href="#DejaVuSans-48"/>
       <use x="159.033203" xlink:href="#DejaVuSans-53"/>
       <use x="222.65625" xlink:href="#DejaVuSans-48"/>
      </g>
     </g>
    </g>
    <g id="ytick_4">
     <g id="line2d_12">
      <g>
       <use style="stroke:#000000;stroke-width:0.8;" x="57.6" xlink:href="#mf1dec91ab3" y="206.282323"/>
      </g>
     </g>
     <g id="text_12">
      <!-- 0.075 -->
      <defs>
       <path d="M 8.203125 72.90625 
L 55.078125 72.90625 
L 55.078125 68.703125 
L 28.609375 0 
L 18.3125 0 
L 43.21875 64.59375 
L 8.203125 64.59375 
z
" id="DejaVuSans-55"/>
      </defs>
      <g transform="translate(21.971875 210.081541)scale(0.1 -0.1)">
       <use xlink:href="#DejaVuSans-48"/>
       <use x="63.623047" xlink:href="#DejaVuSans-46"/>
       <use x="95.410156" xlink:href="#DejaVuSans-48"/>
       <use x="159.033203" xlink:href="#DejaVuSans-55"/>
       <use x="222.65625" xlink:href="#DejaVuSans-53"/>
      </g>
     </g>
    </g>
    <g id="ytick_5">
     <g id="line2d_13">
      <g>
       <use style="stroke:#000000;stroke-width:0.8;" x="57.6" xlink:href="#mf1dec91ab3" y="176.529703"/>
      </g>
     </g>
     <g id="text_13">
      <!-- 0.100 -->
      <g transform="translate(21.971875 180.328921)scale(0.1 -0.1)">
       <use xlink:href="#DejaVuSans-48"/>
       <use x="63.623047" xlink:href="#DejaVuSans-46"/>
       <use x="95.410156" xlink:href="#DejaVuSans-49"/>
       <use x="159.033203" xlink:href="#DejaVuSans-48"/>
       <use x="222.65625" xlink:href="#DejaVuSans-48"/>
      </g>
     </g>
    </g>
    <g id="ytick_6">
     <g id="line2d_14">
      <g>
       <use style="stroke:#000000;stroke-width:0.8;" x="57.6" xlink:href="#mf1dec91ab3" y="146.777083"/>
      </g>
     </g>
     <g id="text_14">
      <!-- 0.125 -->
      <g transform="translate(21.971875 150.576302)scale(0.1 -0.1)">
       <use xlink:href="#DejaVuSans-48"/>
       <use x="63.623047" xlink:href="#DejaVuSans-46"/>
       <use x="95.410156" xlink:href="#DejaVuSans-49"/>
       <use x="159.033203" xlink:href="#DejaVuSans-50"/>
       <use x="222.65625" xlink:href="#DejaVuSans-53"/>
      </g>
     </g>
    </g>
    <g id="ytick_7">
     <g id="line2d_15">
      <g>
       <use style="stroke:#000000;stroke-width:0.8;" x="57.6" xlink:href="#mf1dec91ab3" y="117.024463"/>
      </g>
     </g>
     <g id="text_15">
      <!-- 0.150 -->
      <g transform="translate(21.971875 120.823682)scale(0.1 -0.1)">
       <use xlink:href="#DejaVuSans-48"/>
       <use x="63.623047" xlink:href="#DejaVuSans-46"/>
       <use x="95.410156" xlink:href="#DejaVuSans-49"/>
       <use x="159.033203" xlink:href="#DejaVuSans-53"/>
       <use x="222.65625" xlink:href="#DejaVuSans-48"/>
      </g>
     </g>
    </g>
    <g id="ytick_8">
     <g id="line2d_16">
      <g>
       <use style="stroke:#000000;stroke-width:0.8;" x="57.6" xlink:href="#mf1dec91ab3" y="87.271843"/>
      </g>
     </g>
     <g id="text_16">
      <!-- 0.175 -->
      <g transform="translate(21.971875 91.071062)scale(0.1 -0.1)">
       <use xlink:href="#DejaVuSans-48"/>
       <use x="63.623047" xlink:href="#DejaVuSans-46"/>
       <use x="95.410156" xlink:href="#DejaVuSans-49"/>
       <use x="159.033203" xlink:href="#DejaVuSans-55"/>
       <use x="222.65625" xlink:href="#DejaVuSans-53"/>
      </g>
     </g>
    </g>
    <g id="ytick_9">
     <g id="line2d_17">
      <g>
       <use style="stroke:#000000;stroke-width:0.8;" x="57.6" xlink:href="#mf1dec91ab3" y="57.519223"/>
      </g>
     </g>
     <g id="text_17">
      <!-- 0.200 -->
      <g transform="translate(21.971875 61.318442)scale(0.1 -0.1)">
       <use xlink:href="#DejaVuSans-48"/>
       <use x="63.623047" xlink:href="#DejaVuSans-46"/>
       <use x="95.410156" xlink:href="#DejaVuSans-50"/>
       <use x="159.033203" xlink:href="#DejaVuSans-48"/>
       <use x="222.65625" xlink:href="#DejaVuSans-48"/>
      </g>
     </g>
    </g>
   </g>
   <g id="line2d_18">
    <path clip-path="url(#p002eac33c2)" d="M 73.832727 290.717634 
L 74.064789 291.276765 
L 74.296851 289.370271 
L 74.528913 291.568374 
L 74.760975 290.666611 
L 74.993037 288.347633 
L 75.689222 286.024823 
L 75.921284 284.838447 
L 76.153346 285.700751 
L 76.385408 285.478657 
L 76.849531 284.258624 
L 77.081593 285.174028 
L 77.545717 289.55227 
L 77.777779 286.026351 
L 78.009841 286.070372 
L 78.473965 284.273683 
L 78.706026 284.806456 
L 78.938088 284.434395 
L 79.17015 284.908478 
L 79.402212 284.41684 
L 80.098398 292.279754 
L 80.330459 292.282957 
L 80.562521 292.071999 
L 81.026645 289.245894 
L 81.258707 286.969033 
L 81.490769 286.755471 
L 81.722831 287.12477 
L 82.419016 291.278815 
L 82.651078 292.078261 
L 82.88314 291.902986 
L 83.115202 293.59877 
L 83.579325 292.159889 
L 83.811387 292.177746 
L 84.043449 290.86564 
L 84.275511 290.314291 
L 84.507573 292.035772 
L 84.739635 291.837454 
L 84.971697 291.387402 
L 85.203759 291.465766 
L 85.43582 290.176081 
L 85.899944 292.055088 
L 86.364068 287.427665 
L 86.828192 285.229731 
L 87.060253 285.2681 
L 87.292315 284.587754 
L 87.988501 284.287112 
L 88.220563 284.753635 
L 88.452625 284.376018 
L 88.916748 285.155019 
L 89.14881 285.99106 
L 89.844996 290.404773 
L 90.30912 293.598537 
L 90.541181 293.755749 
L 90.773243 294.767426 
L 91.005305 294.058277 
L 91.469429 295.416513 
L 91.933553 293.620309 
L 92.165614 290.539274 
L 92.397676 294.316845 
L 93.790047 285.72811 
L 94.022109 284.952658 
L 94.254171 284.744543 
L 94.486233 284.939623 
L 94.718295 284.501665 
L 94.950357 284.34751 
L 95.182419 284.638331 
L 95.41448 284.483685 
L 95.646542 284.661889 
L 96.110666 285.512964 
L 96.342728 286.911915 
L 96.57479 286.733274 
L 96.806852 287.628596 
L 97.967161 295.264807 
L 98.199223 294.20663 
L 98.431285 293.745215 
L 98.663347 295.347432 
L 98.895408 294.959192 
L 99.359532 295.040974 
L 99.591594 294.689217 
L 100.055718 294.768749 
L 100.983965 290.411256 
L 101.216027 287.244395 
L 101.448089 287.324271 
L 101.680151 285.402969 
L 101.912213 286.095031 
L 102.144274 284.510718 
L 102.376336 284.247391 
L 102.608398 285.830972 
L 102.84046 284.709755 
L 103.072522 284.553932 
L 103.304584 284.259376 
L 103.536646 284.41048 
L 104.000769 285.164745 
L 104.232831 285.698658 
L 104.464893 285.496464 
L 104.696955 288.306243 
L 104.929017 288.833406 
L 105.625202 294.686208 
L 105.857264 295.375363 
L 106.089326 295.218234 
L 106.321388 295.209073 
L 106.55345 295.416705 
L 106.785512 295.390188 
L 107.017574 294.654306 
L 107.249635 295.218957 
L 107.481697 293.811422 
L 107.713759 293.68158 
L 108.177883 290.911143 
L 108.409945 290.015169 
L 108.874068 284.669208 
L 109.10613 284.93113 
L 109.338192 284.362693 
L 109.802316 284.30372 
L 110.034378 284.851354 
L 110.26644 286.165369 
L 110.498502 285.859713 
L 110.730563 285.805864 
L 110.962625 284.973303 
L 111.194687 285.734437 
L 111.658811 285.01563 
L 111.890873 284.917417 
L 112.122935 285.954609 
L 112.354996 285.176734 
L 112.587058 286.315491 
L 112.81912 288.275473 
L 113.051182 288.551266 
L 113.283244 289.417991 
L 113.515306 289.758312 
L 113.747368 294.069395 
L 113.979429 293.141542 
L 114.211491 294.25276 
L 114.443553 294.32986 
L 114.675615 293.887936 
L 114.907677 292.78076 
L 115.371801 293.566675 
L 115.835924 288.487178 
L 116.300048 285.679472 
L 116.764172 284.247043 
L 116.996234 285.029691 
L 117.228296 285.034541 
L 117.460357 284.876624 
L 117.924481 285.959466 
L 118.620667 285.371668 
L 118.852729 285.377246 
L 119.316852 284.902474 
L 119.780976 284.611413 
L 120.013038 284.846163 
L 120.2451 285.421545 
L 120.477162 284.939732 
L 120.941285 287.525939 
L 121.637471 292.659611 
L 122.101595 293.588474 
L 122.333657 289.63412 
L 122.565718 290.074347 
L 123.261904 292.751268 
L 123.95809 285.266159 
L 124.190151 285.648145 
L 124.422213 284.624827 
L 124.886337 284.323307 
L 125.118399 284.511935 
L 125.582523 284.271637 
L 126.742832 284.365633 
L 126.974894 284.602773 
L 127.206956 284.256171 
L 127.671079 284.583988 
L 128.135203 285.360873 
L 128.367265 285.398402 
L 128.599327 287.814381 
L 128.831389 286.565247 
L 129.063451 287.188234 
L 129.295512 288.954078 
L 129.527574 287.57137 
L 129.759636 291.647138 
L 129.991698 289.727798 
L 130.22376 289.593152 
L 130.455822 293.266845 
L 130.687884 292.690408 
L 130.919945 289.788479 
L 131.152007 291.058598 
L 131.384069 290.748249 
L 131.616131 287.896146 
L 131.848193 288.328698 
L 132.080255 287.153352 
L 132.312317 287.939423 
L 132.544378 286.715619 
L 132.77644 286.488189 
L 133.008502 286.95074 
L 133.240564 286.045734 
L 133.93675 287.299396 
L 134.632935 287.502934 
L 135.097059 287.416618 
L 135.329121 287.61096 
L 135.561183 288.010747 
L 135.793245 287.935095 
L 136.025306 287.633076 
L 136.48943 288.556372 
L 136.721492 291.60917 
L 136.953554 290.786427 
L 137.185616 294.88211 
L 137.417678 295.243406 
L 137.649739 294.456881 
L 137.881801 295.061833 
L 138.113863 294.822684 
L 138.345925 294.833898 
L 138.577987 293.002901 
L 138.810049 292.497444 
L 139.274172 292.96764 
L 139.506234 289.011194 
L 139.738296 287.894173 
L 139.970358 288.937422 
L 140.20242 288.538918 
L 140.434482 287.898138 
L 140.666544 290.436487 
L 140.898605 289.885632 
L 141.130667 290.010117 
L 141.594791 291.414315 
L 141.826853 290.544149 
L 142.058915 291.04961 
L 142.523039 291.30892 
L 142.7551 291.662942 
L 142.987162 291.348985 
L 143.219224 291.644085 
L 143.451286 291.695796 
L 143.683348 289.334856 
L 143.91541 288.662345 
L 144.147472 290.127285 
L 144.379533 288.742945 
L 144.611595 292.040428 
L 144.843657 292.856853 
L 145.075719 295.244358 
L 145.307781 294.873597 
L 145.771905 294.973527 
L 146.003966 294.650451 
L 146.236028 293.123073 
L 146.700152 292.746825 
L 146.932214 292.811542 
L 147.164276 288.965038 
L 147.396338 288.158228 
L 147.860461 289.171269 
L 148.092523 288.671675 
L 148.324585 289.851145 
L 148.788709 290.607481 
L 149.020771 291.31217 
L 149.252833 291.504398 
L 149.716956 293.295022 
L 149.949018 292.040962 
L 150.18108 291.818626 
L 150.413142 293.512738 
L 150.645204 293.875811 
L 150.877266 293.967574 
L 151.109327 292.947908 
L 151.341389 293.250993 
L 151.573451 292.899346 
L 151.805513 292.277591 
L 152.037575 293.095437 
L 152.269637 293.338605 
L 152.501699 293.981142 
L 152.965822 294.465498 
L 153.197884 294.433763 
L 153.429946 295.110024 
L 153.89407 293.843619 
L 154.358194 294.417874 
L 154.590255 292.722097 
L 154.822317 288.984669 
L 155.054379 287.851836 
L 155.286441 289.621423 
L 155.518503 289.655775 
L 155.750565 288.678458 
L 155.982627 290.750617 
L 156.214688 290.792992 
L 156.678812 291.685687 
L 156.910874 290.765366 
L 157.142936 291.995705 
L 157.374998 292.54091 
L 157.60706 292.224081 
L 157.839121 293.191751 
L 158.071183 292.323683 
L 158.303245 293.594035 
L 158.535307 293.923098 
L 158.767369 293.931444 
L 158.999431 294.543924 
L 159.231493 293.550819 
L 159.463554 293.050317 
L 159.695616 293.559295 
L 159.927678 293.234263 
L 160.15974 294.168768 
L 160.623864 294.7487 
L 160.855926 294.027077 
L 161.087988 294.916247 
L 161.320049 294.58001 
L 161.552111 293.035591 
L 161.784173 293.117502 
L 162.016235 292.83198 
L 162.480359 289.864641 
L 162.712421 289.950359 
L 162.944482 290.495299 
L 163.176544 290.734974 
L 163.408606 290.15722 
L 163.640668 290.640388 
L 163.87273 290.276532 
L 164.104792 290.815023 
L 164.336854 290.974967 
L 164.568915 290.16918 
L 164.800977 291.189935 
L 165.033039 291.223469 
L 165.265101 290.892885 
L 165.497163 291.10979 
L 166.42541 292.444206 
L 166.657472 293.35954 
L 166.889534 292.35272 
L 167.353658 292.472412 
L 167.58572 292.347423 
L 167.817782 292.417774 
L 168.049843 295.113279 
L 168.281905 294.929863 
L 168.513967 294.143373 
L 168.746029 295.009594 
L 168.978091 294.969295 
L 169.210153 293.102867 
L 169.442215 293.946876 
L 169.674276 290.98518 
L 169.906338 291.906363 
L 170.1384 289.012389 
L 170.370462 289.234513 
L 170.834586 290.889734 
L 171.066648 290.230666 
L 171.530771 289.925406 
L 171.762833 289.873187 
L 171.994895 290.329351 
L 172.226957 290.47955 
L 172.459019 290.283295 
L 172.691081 290.701565 
L 173.155204 290.944994 
L 173.619328 291.716143 
L 174.315514 291.513697 
L 174.547576 291.18154 
L 174.779637 290.546835 
L 175.011699 291.330042 
L 175.707885 295.01563 
L 175.939947 294.799728 
L 176.172009 294.799904 
L 176.40407 294.911537 
L 176.636132 294.643009 
L 176.868194 293.075076 
L 177.100256 293.601715 
L 177.56438 292.025118 
L 177.796442 289.3694 
L 178.028503 289.55093 
L 178.260565 290.436334 
L 178.492627 290.261976 
L 178.956751 291.612022 
L 179.420875 290.247066 
L 179.652937 290.994629 
L 180.11706 291.861876 
L 180.349122 291.274068 
L 180.581184 291.991109 
L 181.045308 291.439835 
L 181.509431 292.484692 
L 181.741493 292.629848 
L 181.973555 292.160677 
L 182.437679 292.101855 
L 182.669741 292.002493 
L 182.901803 292.881472 
L 183.133864 292.209056 
L 183.365926 292.652587 
L 183.83005 295.091927 
L 184.062112 294.533598 
L 184.294174 294.815476 
L 184.526236 293.461366 
L 184.990359 292.511249 
L 185.222421 292.017248 
L 185.686545 289.588434 
L 185.918607 290.234062 
L 186.150669 290.328875 
L 186.382731 291.17423 
L 186.614792 290.720744 
L 186.846854 289.867433 
L 187.310978 290.168057 
L 187.54304 290.923545 
L 187.775102 291.145968 
L 188.007164 290.899504 
L 188.239225 291.312493 
L 188.471287 291.458578 
L 188.703349 291.816602 
L 188.935411 291.966261 
L 189.167473 291.952869 
L 189.399535 292.406842 
L 189.631597 291.676758 
L 189.863658 291.435129 
L 190.09572 290.443229 
L 190.327782 291.126792 
L 190.791906 290.604327 
L 191.25603 291.554476 
L 191.488091 293.005514 
L 191.720153 292.866843 
L 192.184277 295.076883 
L 192.416339 295.168498 
L 192.648401 293.075974 
L 192.880463 293.09795 
L 193.112525 292.534767 
L 193.344586 289.511075 
L 193.576648 289.794869 
L 193.80871 289.378265 
L 194.040772 290.134318 
L 194.272834 291.480606 
L 194.504896 290.723647 
L 194.736958 290.924106 
L 195.201081 290.989666 
L 195.433143 291.518477 
L 195.665205 291.729746 
L 195.897267 291.773585 
L 196.129329 291.302832 
L 196.361391 292.147833 
L 196.825514 292.783322 
L 197.057576 292.882529 
L 197.289638 292.36174 
L 197.5217 292.995169 
L 197.753762 291.934875 
L 197.985824 292.565875 
L 198.217886 292.569026 
L 198.449947 292.813676 
L 198.682009 292.623698 
L 198.914071 292.78549 
L 199.146133 293.1002 
L 199.378195 294.537054 
L 199.610257 294.513904 
L 199.842319 295.049635 
L 200.07438 295.187301 
L 200.306442 293.244629 
L 200.538504 293.33788 
L 201.002628 289.470761 
L 201.23469 290.337457 
L 201.466752 288.914109 
L 201.698813 290.275853 
L 201.930875 290.0489 
L 202.162937 290.209513 
L 202.394999 290.611112 
L 202.627061 291.537446 
L 203.323246 292.668474 
L 203.555308 292.158648 
L 203.78737 292.204337 
L 204.019432 293.981133 
L 204.251494 292.941161 
L 204.715618 293.275273 
L 204.94768 292.650706 
L 205.179741 293.122844 
L 205.411803 292.173427 
L 205.875927 291.374759 
L 206.340051 292.448348 
L 206.572113 294.057393 
L 207.036236 294.989533 
L 207.268298 294.503556 
L 207.50036 293.466 
L 207.732422 293.904421 
L 208.196546 292.758128 
L 208.428607 290.578541 
L 208.660669 289.823087 
L 208.892731 290.402896 
L 209.124793 291.589903 
L 209.356855 291.804569 
L 209.588917 291.555236 
L 209.820979 291.920382 
L 210.05304 291.493855 
L 210.285102 289.96152 
L 210.517164 291.402416 
L 210.749226 291.184945 
L 211.677474 292.108889 
L 211.909535 291.661667 
L 212.605721 291.273256 
L 212.837783 291.304172 
L 213.069845 290.253687 
L 213.301907 290.138642 
L 213.533968 290.255376 
L 214.462216 294.769886 
L 214.694278 295.217554 
L 214.92634 292.315976 
L 215.158401 294.077506 
L 215.390463 294.328492 
L 215.622525 293.921092 
L 216.318711 290.498267 
L 216.550773 289.411541 
L 216.782834 289.962279 
L 217.014896 289.380062 
L 217.246958 289.305405 
L 217.47902 290.887487 
L 217.711082 290.307496 
L 217.943144 290.077505 
L 218.175206 290.529877 
L 218.407268 290.423538 
L 218.639329 290.877074 
L 218.871391 290.310509 
L 219.567577 290.51001 
L 220.263762 290.093953 
L 220.495824 290.054627 
L 220.727886 289.437502 
L 220.959948 289.432233 
L 221.424072 290.963466 
L 221.656134 292.354083 
L 221.888195 294.429403 
L 222.120257 294.146013 
L 222.352319 293.343303 
L 222.584381 293.061134 
L 222.816443 294.49073 
L 223.048505 293.614491 
L 223.280567 293.592165 
L 223.512629 293.441122 
L 223.74469 289.828847 
L 223.976752 289.951887 
L 224.208814 290.565246 
L 224.440876 292.269591 
L 224.672938 291.880286 
L 224.905 289.748131 
L 225.369123 292.428122 
L 225.601185 292.861928 
L 225.833247 292.077053 
L 226.065309 291.934271 
L 226.529433 291.073979 
L 226.761495 290.893086 
L 226.993556 291.38252 
L 227.225618 291.024363 
L 227.45768 290.993926 
L 227.689742 290.727808 
L 227.921804 291.008152 
L 228.153866 290.753394 
L 228.385928 290.316676 
L 228.617989 290.152321 
L 229.314175 291.922398 
L 229.546237 291.891075 
L 229.778299 294.374134 
L 230.010361 293.651394 
L 230.242423 294.391303 
L 230.474484 294.586304 
L 230.938608 293.721992 
L 231.17067 293.480841 
L 231.402732 290.419358 
L 231.634794 290.09131 
L 231.866856 290.351923 
L 232.098917 291.015175 
L 232.330979 292.040858 
L 232.795103 291.088519 
L 233.259227 292.909318 
L 234.419536 290.45216 
L 234.88366 290.605654 
L 235.115722 290.662817 
L 235.347783 291.001007 
L 235.579845 291.95531 
L 235.811907 290.92859 
L 236.043969 290.452254 
L 236.508093 290.185953 
L 236.740155 291.014159 
L 236.972217 291.211718 
L 237.204278 294.032276 
L 237.43634 292.2887 
L 237.668402 292.433981 
L 237.900464 293.739464 
L 238.132526 293.164054 
L 238.364588 294.737621 
L 238.828711 291.845293 
L 239.060773 291.350357 
L 239.292835 291.452162 
L 239.524897 292.003914 
L 239.756959 293.580471 
L 239.989021 293.534054 
L 240.221083 291.805075 
L 240.685206 292.104631 
L 240.917268 291.951143 
L 241.14933 291.468151 
L 241.381392 291.338867 
L 241.845516 290.306204 
L 242.309639 290.212741 
L 242.773763 290.337603 
L 243.005825 289.957785 
L 243.237887 290.798457 
L 243.469949 290.6111 
L 243.702011 291.369891 
L 243.934072 291.181322 
L 244.166134 290.803806 
L 244.398196 291.341742 
L 244.86232 291.685423 
L 245.326444 294.324594 
L 245.558505 293.924082 
L 245.790567 294.211603 
L 246.022629 293.273927 
L 246.486753 293.236772 
L 246.718815 293.020748 
L 246.950877 292.352336 
L 247.182938 292.40458 
L 247.415 292.663355 
L 247.647062 293.16823 
L 248.111186 291.360138 
L 248.57531 291.990219 
L 249.039433 290.480333 
L 249.271495 289.758459 
L 249.503557 290.01587 
L 249.967681 289.347897 
L 250.199743 289.120536 
L 250.431805 289.360606 
L 250.663866 289.438718 
L 250.895928 289.673855 
L 251.12799 289.502066 
L 251.360052 289.984302 
L 251.824176 290.088495 
L 252.056238 291.812981 
L 252.288299 291.886632 
L 252.984485 294.391566 
L 253.216547 292.427653 
L 253.680671 293.268702 
L 253.912732 293.347088 
L 254.144794 293.26818 
L 254.376856 292.700939 
L 254.608918 292.752736 
L 254.84098 292.96344 
L 255.073042 294.2078 
L 255.305104 294.596238 
L 255.537166 292.054456 
L 256.001289 291.519616 
L 256.233351 291.667377 
L 256.697475 290.388864 
L 256.929537 290.102064 
L 257.161599 289.173542 
L 257.39366 288.817714 
L 258.089846 288.410128 
L 258.321908 288.5787 
L 258.786032 288.550164 
L 259.018093 289.028977 
L 259.250155 289.15291 
L 259.714279 291.098228 
L 260.178403 293.88339 
L 260.410465 292.723697 
L 260.642526 292.750596 
L 260.874588 292.121701 
L 261.10665 293.482952 
L 261.338712 292.696385 
L 261.570774 293.291124 
L 261.802836 293.314569 
L 262.034898 293.656546 
L 262.499021 293.514148 
L 262.731083 292.556295 
L 262.963145 293.728759 
L 263.195207 292.646083 
L 263.427269 292.559214 
L 263.659331 292.16153 
L 264.123454 289.617931 
L 264.355516 289.446292 
L 264.587578 289.837175 
L 264.81964 288.415915 
L 265.051702 288.105194 
L 265.283764 288.798497 
L 265.515826 288.390442 
L 265.747887 288.703184 
L 265.979949 288.005647 
L 266.444073 289.212891 
L 266.676135 289.52659 
L 266.908197 290.536996 
L 267.140259 290.064431 
L 267.37232 291.752819 
L 267.604382 292.451573 
L 267.836444 292.019808 
L 268.068506 292.438408 
L 268.300568 292.347069 
L 268.53263 291.430568 
L 268.764692 292.054899 
L 268.996754 292.011263 
L 269.228815 292.817296 
L 269.460877 294.515063 
L 269.692939 294.015287 
L 269.925001 292.65411 
L 270.157063 292.858083 
L 270.389125 292.29839 
L 270.621187 293.353798 
L 270.853248 293.126869 
L 271.781496 289.848139 
L 272.013558 290.182539 
L 272.941805 287.80014 
L 273.173867 288.253687 
L 273.405929 287.848471 
L 273.637991 289.265638 
L 273.870053 288.862984 
L 274.102114 289.573676 
L 274.334176 289.589884 
L 275.494486 293.880057 
L 275.726548 292.726267 
L 275.958609 293.762175 
L 276.190671 292.760149 
L 276.422733 293.229525 
L 276.654795 291.822296 
L 276.886857 294.361957 
L 277.350981 294.614798 
L 277.583042 294.12342 
L 277.815104 293.052404 
L 278.047166 293.555584 
L 278.279228 292.446063 
L 278.51129 292.257096 
L 278.743352 291.86353 
L 278.975414 291.77297 
L 279.207475 292.348971 
L 279.439537 291.71326 
L 279.671599 289.72361 
L 280.135723 288.839766 
L 280.367785 289.850091 
L 280.599847 288.299112 
L 280.831909 288.402921 
L 281.296032 289.040824 
L 281.528094 288.707438 
L 281.760156 289.507305 
L 281.992218 289.608679 
L 282.22428 290.150905 
L 282.920465 293.037822 
L 283.152527 292.457815 
L 283.616651 295.130757 
L 283.848713 293.343299 
L 284.080775 292.577812 
L 284.312836 293.948564 
L 284.544898 293.36714 
L 285.009022 294.493566 
L 285.241084 293.125324 
L 285.473146 294.718564 
L 285.705208 292.222019 
L 285.937269 293.50206 
L 286.633455 291.04351 
L 286.865517 290.702547 
L 287.097579 289.470075 
L 287.329641 289.014055 
L 287.561703 289.081473 
L 287.793764 287.792896 
L 288.025826 288.08807 
L 288.257888 288.153842 
L 288.722012 287.653817 
L 288.954074 287.574981 
L 289.418197 289.605315 
L 289.650259 289.752447 
L 290.578507 294.083189 
L 290.810569 294.340463 
L 291.04263 294.290091 
L 291.274692 293.277514 
L 291.738816 292.694695 
L 291.970878 294.085648 
L 292.20294 293.289594 
L 292.435002 294.262385 
L 292.667063 294.316519 
L 292.899125 292.384933 
L 293.131187 292.387502 
L 293.363249 291.531452 
L 293.595311 291.410147 
L 293.827373 291.557936 
L 294.059435 290.981646 
L 294.291497 290.034258 
L 294.75562 289.754996 
L 294.987682 288.638322 
L 295.219744 288.3267 
L 295.451806 287.759167 
L 295.683868 288.143988 
L 295.91593 287.768281 
L 296.147991 288.275807 
L 296.380053 287.418455 
L 296.612115 287.317002 
L 296.844177 287.795329 
L 297.076239 289.001211 
L 297.308301 289.409292 
L 298.236548 294.035864 
L 298.46861 293.972329 
L 298.700672 294.652496 
L 298.932734 294.504653 
L 299.164796 293.395483 
L 299.396857 293.542183 
L 299.628919 294.095632 
L 299.860981 292.251641 
L 300.093043 294.734683 
L 300.557167 294.551701 
L 301.021291 293.328883 
L 301.253352 293.869386 
L 301.485414 291.875096 
L 301.717476 291.434326 
L 301.949538 291.268351 
L 302.1816 290.908872 
L 302.413662 290.961705 
L 302.877785 288.63804 
L 303.109847 288.599659 
L 303.573971 287.602138 
L 303.806033 288.045332 
L 304.038095 287.876692 
L 304.270157 288.808892 
L 304.502218 288.530226 
L 304.73428 288.846723 
L 304.966342 288.906386 
L 305.198404 291.165534 
L 305.662528 293.10296 
L 306.126652 294.886916 
L 306.358713 293.912942 
L 306.590775 294.757475 
L 306.822837 293.733337 
L 307.054899 293.603737 
L 307.286961 292.253542 
L 307.519023 293.729912 
L 307.751085 294.094215 
L 307.983146 293.859823 
L 308.215208 293.102431 
L 308.44727 292.8542 
L 308.679332 292.251928 
L 308.911394 292.614421 
L 309.143456 291.52472 
L 309.375518 291.228627 
L 309.607579 291.206944 
L 309.839641 290.88156 
L 310.303765 289.166748 
L 310.535827 288.563782 
L 310.767889 288.711966 
L 310.999951 287.93693 
L 311.232012 288.203981 
L 311.464074 288.19473 
L 311.696136 288.552717 
L 311.928198 288.167989 
L 312.16026 288.247654 
L 312.624384 290.162905 
L 312.856446 290.723507 
L 313.320569 292.604907 
L 313.552631 293.635847 
L 313.784693 293.989524 
L 314.016755 293.034409 
L 314.248817 293.900619 
L 314.480879 293.315018 
L 314.71294 293.483908 
L 314.945002 292.033832 
L 315.409126 293.902156 
L 315.87325 294.08357 
L 316.105312 293.743959 
L 316.337373 292.044205 
L 316.569435 293.193091 
L 317.033559 291.172596 
L 317.265621 291.480904 
L 317.497683 290.546295 
L 317.729745 290.209492 
L 317.961806 288.953471 
L 318.193868 288.887699 
L 318.657992 287.864591 
L 318.890054 288.009263 
L 319.122116 288.397141 
L 319.354178 288.026249 
L 319.58624 289.464137 
L 320.746549 291.960696 
L 321.210673 293.9981 
L 321.442734 293.429406 
L 321.674796 294.450417 
L 321.906858 294.369732 
L 322.13892 295.450646 
L 322.603044 291.33421 
L 322.835106 291.848238 
L 323.067167 292.974191 
L 323.299229 293.065504 
L 323.531291 292.811707 
L 323.995415 291.577904 
L 324.227477 292.919192 
L 324.6916 291.37421 
L 324.923662 291.700206 
L 325.155724 290.875022 
L 325.387786 290.756237 
L 325.619848 289.48691 
L 326.083972 288.81287 
L 326.316034 287.832371 
L 326.548095 288.035623 
L 326.780157 287.947058 
L 327.012219 288.887575 
L 328.172528 291.398613 
L 329.100776 295.145054 
L 329.332838 294.410713 
L 329.5649 294.349661 
L 329.796961 294.457364 
L 330.261085 291.958451 
L 330.493147 291.912292 
L 330.725209 293.009039 
L 330.957271 293.041789 
L 331.189333 292.426769 
L 331.653456 291.841921 
L 331.885518 292.444799 
L 332.11758 292.152358 
L 332.349642 291.612265 
L 332.581704 291.880473 
L 332.813766 290.53905 
L 333.509951 288.895535 
L 333.742013 287.518703 
L 333.974075 288.09491 
L 334.206137 287.80148 
L 335.366446 290.868134 
L 335.598508 290.981073 
L 336.990879 295.001242 
L 337.222941 294.364734 
L 337.455003 294.733117 
L 337.687065 292.336289 
L 337.919127 294.075175 
L 338.38325 292.547585 
L 338.615312 293.902095 
L 338.847374 293.93154 
L 339.079436 292.638385 
L 339.311498 292.385903 
L 339.54356 292.665725 
L 339.775622 291.833736 
L 340.471807 291.352716 
L 340.703869 291.092447 
L 340.935931 289.598467 
L 341.400055 288.909078 
L 341.632116 288.917829 
L 341.864178 288.566858 
L 342.09624 288.846039 
L 342.328302 288.882703 
L 342.560364 289.212312 
L 342.792426 289.948532 
L 343.024488 290.28817 
L 343.256549 290.396481 
L 344.184797 293.389043 
L 344.416859 294.390861 
L 344.648921 294.316532 
L 345.113044 294.670109 
L 345.345106 295.281591 
L 345.80923 292.478274 
L 346.041292 292.395762 
L 346.505416 293.859653 
L 346.969539 291.743903 
L 347.201601 291.941138 
L 347.665725 291.140743 
L 347.897787 291.63348 
L 348.129849 291.196914 
L 349.058096 287.555387 
L 349.290158 287.627825 
L 349.52222 288.08332 
L 349.986343 288.311693 
L 350.218405 288.581117 
L 350.450467 287.855119 
L 350.682529 289.386659 
L 351.146653 290.551658 
L 352.0749 293.854587 
L 352.306962 294.712329 
L 352.539024 294.511742 
L 352.771086 294.729709 
L 353.003148 294.609178 
L 353.23521 293.660409 
L 353.467271 293.325679 
L 353.699333 292.607145 
L 353.931395 293.033965 
L 354.163457 294.70604 
L 354.395519 292.382603 
L 354.627581 291.957006 
L 354.859643 292.183507 
L 355.091704 292.715254 
L 355.323766 291.311243 
L 355.555828 291.79635 
L 356.252014 289.171691 
L 356.716138 288.439853 
L 356.948199 288.376877 
L 357.412323 288.828403 
L 357.644385 288.031243 
L 358.108509 289.616182 
L 358.340571 290.879597 
L 358.572632 291.342124 
L 358.804694 291.546532 
L 359.036756 292.03253 
L 359.732942 294.710886 
L 359.965004 294.734184 
L 360.197065 295.167797 
L 360.429127 294.967577 
L 360.893251 293.794324 
L 361.357375 292.969971 
L 361.589437 294.761098 
L 361.821498 294.620073 
L 362.05356 294.148598 
L 362.285622 292.252613 
L 362.517684 291.445992 
L 362.749746 293.05815 
L 362.981808 292.923774 
L 363.21387 291.594997 
L 363.910055 289.452414 
L 364.374179 287.472552 
L 365.302426 288.757718 
L 365.534488 288.7288 
L 366.230674 289.937317 
L 366.462736 290.101544 
L 366.694798 290.729642 
L 366.926859 291.846814 
L 367.158921 292.227785 
L 367.855107 294.861222 
L 368.087169 295.488 
L 368.319231 294.36859 
L 368.551292 294.671494 
L 368.783354 292.040749 
L 369.247478 294.500651 
L 369.47954 293.901673 
L 369.711602 293.650311 
L 369.943664 291.50784 
L 370.175726 290.826504 
L 370.871911 291.76093 
L 371.103973 290.034301 
L 371.336035 289.633848 
L 371.568097 288.639474 
L 371.800159 288.822743 
L 372.03222 287.676105 
L 372.264282 287.581017 
L 372.496344 287.79866 
L 372.960468 289.372861 
L 373.19253 289.353375 
L 373.424592 288.945006 
L 373.656653 290.10786 
L 374.120777 290.550652 
L 375.281086 294.597618 
L 375.513148 295.212506 
L 375.74521 294.815983 
L 375.977272 295.026661 
L 376.209334 294.889795 
L 376.441396 293.206002 
L 376.673458 294.711581 
L 376.90552 295.204858 
L 377.137581 294.442853 
L 377.369643 294.197744 
L 377.833767 292.229874 
L 378.065829 293.35101 
L 378.297891 292.098534 
L 378.529953 291.865828 
L 378.762014 291.832114 
L 379.226138 289.822968 
L 379.690262 288.493998 
L 379.922324 287.833957 
L 380.154386 288.098246 
L 380.386447 288.775406 
L 380.850571 289.010639 
L 381.546757 290.337529 
L 381.778819 290.055765 
L 382.475004 292.380661 
L 383.17119 294.207309 
L 383.403252 294.602354 
L 383.635314 294.763032 
L 383.867375 294.120077 
L 384.099437 291.202434 
L 384.331499 292.377901 
L 384.563561 292.14051 
L 384.795623 292.192293 
L 385.027685 293.759638 
L 385.259747 293.676151 
L 385.491808 291.52576 
L 385.72387 291.959764 
L 385.955932 291.740995 
L 386.187994 292.171814 
L 386.420056 290.797385 
L 386.88418 289.605968 
L 387.116241 288.592583 
L 387.348303 289.787441 
L 387.812427 288.099535 
L 388.044489 289.021524 
L 388.276551 289.281061 
L 388.740675 289.452242 
L 388.972736 289.76722 
L 389.204798 290.43032 
L 389.43686 290.08529 
L 390.829231 294.565805 
L 391.061293 294.182345 
L 391.293355 295.16254 
L 391.525417 295.42863 
L 391.757479 292.61764 
L 391.989541 292.997014 
L 392.221602 294.456336 
L 392.453664 294.109272 
L 392.685726 293.980395 
L 392.917788 294.3731 
L 393.14985 292.17909 
L 393.381912 291.738204 
L 393.613974 291.883443 
L 394.078097 292.650783 
L 394.542221 292.045014 
L 394.774283 292.924402 
L 395.470469 290.765609 
L 395.70253 290.265994 
L 396.166654 291.032758 
L 396.398716 290.114402 
L 396.86284 291.600237 
L 397.094902 291.778917 
L 397.326963 291.506167 
L 397.559025 292.317495 
L 397.791087 292.646798 
L 398.255211 293.847302 
L 398.487273 293.862951 
L 398.487273 293.862951 
" style="fill:none;stroke:#1f77b4;stroke-linecap:square;stroke-width:1.5;"/>
   </g>
   <g id="line2d_19">
    <path clip-path="url(#p002eac33c2)" d="M 73.832727 65.594739 
L 74.064789 65.279708 
L 74.993037 57.188554 
L 75.225098 56.147712 
L 75.45716 54.507087 
L 76.153346 53.568 
L 76.385408 57.417764 
L 76.61747 56.950791 
L 77.081593 62.356172 
L 77.313655 65.19207 
L 78.473965 90.484021 
L 79.402212 113.805524 
L 80.098398 127.132291 
L 80.794583 133.708556 
L 81.258707 135.760344 
L 81.490769 135.543423 
L 82.419016 139.121487 
L 83.347264 144.984416 
L 83.811387 151.243554 
L 84.971697 173.515653 
L 85.899944 192.630209 
L 87.060253 210.302075 
L 87.756439 217.730727 
L 87.988501 217.694006 
L 88.220563 218.731589 
L 88.452625 219.159782 
L 88.684686 219.048486 
L 88.916748 219.133338 
L 89.14881 219.429346 
L 89.380872 219.039248 
L 89.612934 219.221586 
L 89.844996 219.80373 
L 90.077058 221.320189 
L 90.30912 219.365623 
L 90.541181 210.486426 
L 91.237367 201.213857 
L 91.469429 200.053367 
L 91.701491 199.793754 
L 92.165614 201.472958 
L 92.629738 207.520435 
L 93.325924 220.034125 
L 93.557986 220.717481 
L 93.790047 220.260548 
L 94.254171 215.904303 
L 94.486233 214.432527 
L 94.718295 214.28064 
L 94.950357 215.974268 
L 95.182419 215.833355 
L 95.646542 220.822944 
L 96.110666 227.153264 
L 96.342728 228.978705 
L 96.806852 229.283512 
L 97.038914 229.587226 
L 97.270975 229.29684 
L 97.503037 228.480278 
L 97.735099 228.181801 
L 98.895408 222.940883 
L 99.12747 220.976617 
L 99.359532 220.52031 
L 99.823656 218.940267 
L 100.055718 218.280542 
L 100.28778 219.414511 
L 100.519841 219.814139 
L 101.216027 224.095374 
L 101.680151 226.614807 
L 101.912213 227.685863 
L 102.144274 227.70846 
L 102.376336 228.348434 
L 102.608398 228.289661 
L 102.84046 228.618629 
L 103.072522 228.147783 
L 103.536646 227.861092 
L 103.768708 227.90005 
L 104.232831 226.373041 
L 105.161079 221.590171 
L 105.393141 221.257244 
L 105.857264 218.463798 
L 106.089326 216.289608 
L 106.785512 206.327658 
L 107.017574 205.545253 
L 107.249635 200.487714 
L 107.713759 196.951404 
L 107.945821 195.285427 
L 108.177883 195.001755 
L 108.409945 194.952675 
L 108.642007 195.252342 
L 108.874068 197.248372 
L 109.10613 197.280944 
L 109.338192 197.180604 
L 109.570254 195.591293 
L 110.034378 197.038928 
L 110.26644 197.521664 
L 110.498502 199.5358 
L 111.890873 220.175538 
L 112.354996 217.449112 
L 112.587058 216.544112 
L 113.283244 211.777851 
L 115.139739 188.303089 
L 115.371801 188.629336 
L 115.835924 184.785281 
L 116.53211 188.702541 
L 116.996234 182.439366 
L 117.460357 178.112389 
L 117.924481 175.22646 
L 118.156543 173.403933 
L 118.388605 174.16452 
L 118.852729 180.924131 
L 119.08479 181.436518 
L 119.316852 186.214695 
L 119.548914 188.241918 
L 119.780976 192.543597 
L 120.2451 197.069597 
L 120.709223 203.797156 
L 121.869533 179.756002 
L 122.101595 178.220024 
L 122.333657 175.164841 
L 122.79778 165.437527 
L 123.029842 166.15249 
L 123.261904 162.539324 
L 123.493966 163.647019 
L 123.726028 163.008631 
L 124.190151 167.892564 
L 124.422213 171.826766 
L 124.654275 168.379836 
L 124.886337 168.322517 
L 125.118399 167.417559 
L 125.350461 165.646086 
L 125.582523 167.329587 
L 125.814584 167.597218 
L 126.51077 180.67259 
L 126.742832 175.121707 
L 126.974894 175.858121 
L 127.206956 183.2077 
L 127.671079 179.311164 
L 127.903141 178.233337 
L 128.135203 178.349931 
L 128.367265 180.81464 
L 128.599327 179.235771 
L 128.831389 181.219392 
L 129.063451 180.578673 
L 129.295512 182.279183 
L 129.527574 180.674484 
L 129.759636 173.638893 
L 129.991698 173.358793 
L 130.22376 166.102469 
L 130.687884 162.46154 
L 130.919945 161.407577 
L 131.152007 159.395695 
L 131.384069 164.170878 
L 131.616131 159.967333 
L 131.848193 160.468129 
L 132.312317 166.532938 
L 132.544378 165.280591 
L 132.77644 168.522537 
L 133.008502 167.999542 
L 133.240564 172.132396 
L 133.704688 172.035451 
L 133.93675 177.376646 
L 134.168811 176.232516 
L 134.400873 176.489861 
L 134.632935 181.344722 
L 134.864997 179.457902 
L 135.097059 180.169111 
L 135.329121 181.451766 
L 135.561183 175.940387 
L 136.025306 177.224131 
L 136.257368 179.170638 
L 136.48943 172.8325 
L 136.721492 174.562978 
L 136.953554 171.446768 
L 137.185616 174.284477 
L 137.417678 171.00385 
L 137.649739 172.534622 
L 137.881801 162.451534 
L 138.113863 161.968023 
L 138.345925 161.869611 
L 138.577987 162.066781 
L 139.042111 160.960777 
L 139.274172 158.051869 
L 139.506234 157.933925 
L 139.970358 160.100084 
L 140.20242 159.164853 
L 140.666544 160.838167 
L 140.898605 159.302933 
L 141.130667 160.464388 
L 141.362729 162.705949 
L 141.594791 162.78846 
L 141.826853 165.547195 
L 142.058915 163.823819 
L 142.290977 167.301019 
L 142.523039 164.911191 
L 142.987162 166.035515 
L 143.219224 168.230636 
L 143.451286 167.295127 
L 143.683348 165.748475 
L 143.91541 166.106363 
L 144.843657 161.425082 
L 145.075719 162.187457 
L 145.539843 158.367051 
L 145.771905 158.573867 
L 146.003966 159.786524 
L 146.236028 161.741745 
L 146.46809 161.691852 
L 146.700152 163.904261 
L 146.932214 163.39032 
L 147.396338 168.062275 
L 147.6284 172.60526 
L 147.860461 171.345861 
L 148.092523 175.142562 
L 148.788709 180.137384 
L 149.020771 179.597015 
L 149.252833 179.527078 
L 149.484894 182.067378 
L 149.716956 177.466502 
L 149.949018 177.447558 
L 150.18108 176.183377 
L 150.413142 177.129318 
L 150.645204 175.984185 
L 151.109327 169.294674 
L 151.341389 167.805772 
L 151.573451 168.378528 
L 151.805513 165.413032 
L 152.037575 164.767938 
L 152.501699 160.058079 
L 152.73376 159.28722 
L 152.965822 159.093468 
L 153.197884 153.449832 
L 153.429946 152.049115 
L 153.662008 152.256583 
L 153.89407 152.959919 
L 154.126132 152.334335 
L 154.358194 154.475574 
L 154.590255 153.421723 
L 154.822317 155.10126 
L 155.054379 161.456602 
L 155.518503 164.259871 
L 156.678812 176.264188 
L 156.910874 178.4404 
L 157.142936 182.936304 
L 157.374998 183.127081 
L 157.60706 180.123675 
L 157.839121 184.158795 
L 158.071183 178.853457 
L 158.303245 180.420699 
L 158.535307 177.609829 
L 158.767369 176.904028 
L 158.999431 174.419104 
L 159.231493 174.268113 
L 159.463554 172.359588 
L 159.695616 171.571953 
L 159.927678 173.225684 
L 160.15974 169.593854 
L 160.391802 169.792162 
L 160.623864 167.688511 
L 160.855926 163.445798 
L 161.087988 161.473946 
L 161.320049 161.367785 
L 161.552111 160.316918 
L 162.016235 159.58608 
L 162.248297 160.313409 
L 162.480359 160.437544 
L 162.712421 162.085612 
L 163.176544 166.279957 
L 163.408606 167.015091 
L 164.104792 172.561597 
L 164.336854 172.910033 
L 164.568915 173.936574 
L 165.033039 179.279377 
L 165.265101 179.849791 
L 165.497163 177.879893 
L 165.729225 178.19157 
L 165.961287 179.667256 
L 166.193348 175.360167 
L 166.42541 173.82541 
L 166.657472 174.409761 
L 166.889534 174.429482 
L 167.121596 169.512991 
L 167.353658 170.373189 
L 167.58572 170.251761 
L 167.817782 166.884394 
L 168.049843 166.887113 
L 168.281905 168.868874 
L 168.513967 160.592 
L 168.746029 161.316477 
L 168.978091 164.188189 
L 169.210153 164.268625 
L 169.442215 165.743318 
L 169.674276 164.585093 
L 169.906338 167.661102 
L 170.1384 165.997635 
L 170.370462 167.640752 
L 170.834586 172.342961 
L 171.066648 175.201155 
L 171.530771 177.120612 
L 171.762833 178.869001 
L 171.994895 179.200135 
L 172.459019 181.13298 
L 172.923143 185.075328 
L 173.155204 182.50899 
L 173.387266 183.822502 
L 173.619328 181.233588 
L 173.85139 176.941536 
L 174.083452 177.168124 
L 175.011699 170.62701 
L 175.243761 170.27776 
L 175.475823 167.193396 
L 175.707885 169.64581 
L 175.939947 168.113895 
L 176.40407 160.942149 
L 176.636132 161.458384 
L 176.868194 162.435531 
L 177.100256 161.314007 
L 177.56438 164.790499 
L 177.796442 164.461963 
L 178.956751 176.12264 
L 179.188813 174.991237 
L 179.420875 179.025096 
L 179.652937 178.061593 
L 180.11706 182.398252 
L 180.581184 185.277795 
L 180.813246 185.531336 
L 181.045308 186.065783 
L 181.509431 180.799819 
L 181.741493 181.936156 
L 181.973555 176.812217 
L 182.437679 171.498818 
L 182.669741 171.762192 
L 182.901803 172.810594 
L 183.133864 169.832825 
L 183.597988 168.726577 
L 184.062112 162.336547 
L 184.294174 164.858642 
L 184.526236 163.492243 
L 184.758297 163.030273 
L 184.990359 163.984187 
L 185.222421 166.778514 
L 185.454483 164.774568 
L 185.686545 165.652411 
L 185.918607 170.186434 
L 186.150669 169.327417 
L 186.382731 171.246894 
L 186.614792 174.214404 
L 186.846854 173.229644 
L 187.078916 175.964937 
L 187.310978 175.875412 
L 187.54304 180.720246 
L 187.775102 183.155446 
L 188.239225 180.872015 
L 188.471287 183.253733 
L 189.167473 180.579943 
L 189.399535 176.365134 
L 189.631597 179.073203 
L 189.863658 174.826355 
L 190.327782 171.865867 
L 190.559844 172.422344 
L 190.791906 170.535553 
L 191.023968 170.324681 
L 191.25603 175.368872 
L 191.488091 163.128112 
L 191.720153 163.449075 
L 191.952215 166.621498 
L 192.184277 166.323787 
L 192.416339 163.63113 
L 192.648401 166.777058 
L 192.880463 165.319948 
L 193.112525 167.577932 
L 193.344586 165.842952 
L 193.576648 167.467733 
L 193.80871 170.182442 
L 194.040772 171.324178 
L 194.272834 171.470795 
L 194.969019 176.386855 
L 195.201081 176.167793 
L 195.665205 178.225028 
L 195.897267 179.142336 
L 196.129329 179.569379 
L 196.361391 178.486818 
L 196.593452 178.767296 
L 196.825514 175.511265 
L 197.057576 174.551626 
L 197.289638 175.136695 
L 197.753762 172.056347 
L 197.985824 172.345245 
L 198.217886 173.171982 
L 198.682009 170.490056 
L 198.914071 172.836987 
L 199.146133 167.934551 
L 199.378195 167.855257 
L 199.610257 167.518696 
L 199.842319 169.526077 
L 200.07438 170.176646 
L 200.306442 169.084852 
L 200.538504 170.077909 
L 200.770566 171.768518 
L 201.002628 168.642596 
L 201.698813 174.516965 
L 201.930875 174.497038 
L 202.162937 175.937029 
L 202.394999 175.860564 
L 202.627061 177.788825 
L 202.859123 175.685095 
L 203.091185 176.455772 
L 203.323246 178.610697 
L 203.555308 179.003023 
L 203.78737 180.02313 
L 204.251494 177.876331 
L 204.483556 176.842085 
L 204.715618 176.889923 
L 204.94768 176.105115 
L 205.179741 176.016889 
L 205.411803 176.084361 
L 206.107989 171.508141 
L 206.340051 172.362891 
L 206.572113 170.376744 
L 206.804174 170.179527 
L 207.036236 169.082752 
L 207.268298 169.322472 
L 207.50036 169.793561 
L 207.732422 169.367754 
L 207.964484 171.221264 
L 208.196546 170.66637 
L 208.428607 171.785948 
L 208.660669 168.887383 
L 209.356855 174.184098 
L 209.588917 178.585435 
L 209.820979 175.258305 
L 210.05304 177.809562 
L 210.285102 177.235187 
L 210.517164 179.350313 
L 210.749226 178.388394 
L 210.981288 180.921704 
L 211.21335 180.872071 
L 211.677474 182.444625 
L 211.909535 179.415484 
L 212.141597 179.319806 
L 212.373659 177.067184 
L 212.837783 175.826413 
L 213.301907 174.150276 
L 213.533968 174.301597 
L 213.76603 174.837624 
L 213.998092 173.111012 
L 214.230154 173.554694 
L 214.462216 175.811472 
L 214.694278 166.797135 
L 214.92634 167.72772 
L 215.158401 170.754782 
L 215.390463 168.433341 
L 215.622525 168.934997 
L 215.854587 170.366384 
L 216.086649 169.956475 
L 216.318711 167.66476 
L 216.550773 169.317138 
L 216.782834 172.895805 
L 217.014896 172.663624 
L 217.246958 173.469665 
L 217.47902 175.418084 
L 217.711082 175.725269 
L 217.943144 176.439522 
L 218.175206 176.598684 
L 218.407268 179.453277 
L 218.639329 179.554138 
L 218.871391 180.304529 
L 219.103453 180.468379 
L 219.335515 182.112248 
L 219.567577 177.687491 
L 219.799639 178.301338 
L 220.031701 176.292239 
L 220.263762 177.184499 
L 220.495824 175.137721 
L 220.727886 175.836629 
L 220.959948 173.024254 
L 221.19201 173.110843 
L 221.424072 174.173964 
L 221.656134 172.463434 
L 221.888195 181.606672 
L 222.352319 164.358906 
L 222.584381 165.936385 
L 222.816443 168.617918 
L 223.048505 168.202955 
L 223.280567 170.038706 
L 223.512629 167.469158 
L 223.74469 167.097804 
L 223.976752 167.505455 
L 224.440876 171.19086 
L 224.672938 174.977389 
L 224.905 171.428005 
L 225.137062 174.417695 
L 225.369123 175.023628 
L 225.601185 173.67474 
L 225.833247 174.012225 
L 226.529433 179.04462 
L 226.761495 178.158983 
L 226.993556 181.350583 
L 227.225618 177.18499 
L 227.45768 178.031695 
L 227.921804 174.745696 
L 228.153866 175.928096 
L 228.617989 174.018936 
L 228.850051 173.482382 
L 229.082113 175.15914 
L 229.314175 172.772356 
L 229.546237 177.040437 
L 230.010361 166.85847 
L 230.242423 166.931246 
L 230.474484 169.468964 
L 230.706546 167.392517 
L 230.938608 170.02111 
L 231.17067 167.349715 
L 231.402732 170.137512 
L 231.634794 165.889936 
L 231.866856 167.30583 
L 232.098917 170.928643 
L 232.563041 172.679534 
L 232.795103 169.016811 
L 233.259227 174.047847 
L 233.491289 174.624406 
L 233.955412 178.185993 
L 234.187474 178.535113 
L 234.419536 180.180648 
L 234.651598 179.843045 
L 235.115722 180.651851 
L 235.579845 177.007577 
L 235.811907 177.850402 
L 236.043969 176.819598 
L 236.276031 176.758212 
L 236.508093 175.265117 
L 236.740155 174.678666 
L 236.972217 175.392113 
L 237.204278 182.186231 
L 237.668402 166.648747 
L 237.900464 166.368885 
L 238.132526 168.893294 
L 238.364588 169.599019 
L 238.59665 169.296762 
L 238.828711 167.651182 
L 239.060773 169.951804 
L 239.292835 167.659188 
L 239.524897 169.021482 
L 239.756959 171.874007 
L 239.989021 171.840141 
L 240.221083 172.906429 
L 240.453144 170.564808 
L 240.917268 172.973169 
L 241.14933 175.697709 
L 241.381392 174.8092 
L 241.845516 179.97055 
L 242.309639 181.333796 
L 242.541701 179.807914 
L 242.773763 180.089964 
L 243.005825 178.582858 
L 243.237887 179.87149 
L 243.469949 178.780718 
L 243.702011 178.419925 
L 243.934072 178.596932 
L 244.166134 178.987707 
L 244.398196 179.783056 
L 244.630258 177.896596 
L 244.86232 175.046623 
L 245.094382 178.25584 
L 245.326444 171.955108 
L 245.558505 172.278044 
L 245.790567 173.365712 
L 246.022629 172.859842 
L 246.254691 174.561046 
L 246.486753 173.095296 
L 246.718815 172.931948 
L 246.950877 170.888158 
L 247.415 172.795107 
L 247.647062 172.761059 
L 247.879124 173.445831 
L 248.111186 173.15934 
L 248.57531 174.655695 
L 248.807371 173.772877 
L 249.039433 179.150172 
L 249.271495 176.154912 
L 249.735619 181.677955 
L 249.967681 179.097343 
L 250.199743 179.135673 
L 250.431805 178.295547 
L 250.895928 178.309478 
L 251.360052 180.37508 
L 251.824176 177.700299 
L 252.056238 178.851656 
L 252.520361 175.1472 
L 252.752423 175.072853 
L 252.984485 171.89421 
L 253.216547 171.972544 
L 253.448609 174.235926 
L 253.680671 174.621726 
L 253.912732 172.054883 
L 254.144794 171.335901 
L 254.376856 170.052443 
L 254.608918 169.679684 
L 254.84098 172.259432 
L 255.073042 172.434927 
L 255.305104 172.985642 
L 255.769227 176.327736 
L 256.001289 174.55108 
L 256.233351 176.493208 
L 256.465413 176.825621 
L 256.697475 178.256546 
L 256.929537 181.512763 
L 257.161599 181.455258 
L 257.39366 182.262972 
L 257.625722 183.791544 
L 257.857784 183.834958 
L 258.089846 184.606929 
L 258.55397 181.748383 
L 258.786032 182.737137 
L 259.482217 180.333963 
L 259.714279 179.920818 
L 260.178403 177.152315 
L 260.410465 182.668644 
L 260.642526 173.200411 
L 261.338712 171.493135 
L 261.570774 171.763317 
L 261.802836 172.456578 
L 262.034898 172.383293 
L 262.26696 171.991728 
L 262.499021 170.889482 
L 262.731083 172.969412 
L 263.195207 173.889885 
L 263.427269 177.490581 
L 263.659331 174.999238 
L 263.891393 178.143594 
L 264.123454 178.567382 
L 264.355516 181.206495 
L 264.587578 180.893385 
L 264.81964 181.902071 
L 265.051702 185.317392 
L 265.283764 181.664975 
L 265.515826 184.757671 
L 265.979949 183.375565 
L 266.212011 183.959673 
L 266.444073 183.580054 
L 266.676135 182.1678 
L 266.908197 182.657625 
L 267.140259 180.743818 
L 267.37232 180.823014 
L 267.604382 179.290812 
L 267.836444 178.985165 
L 268.068506 177.815444 
L 268.300568 173.636798 
L 268.53263 173.529549 
L 268.764692 174.885969 
L 268.996754 171.713008 
L 269.460877 172.290492 
L 269.692939 171.24522 
L 269.925001 174.154556 
L 270.157063 170.189182 
L 270.389125 172.208903 
L 270.853248 173.88409 
L 271.08531 172.392405 
L 271.317372 173.791452 
L 271.549434 175.972519 
L 271.781496 174.728775 
L 272.013558 176.027509 
L 272.24562 176.52364 
L 272.477681 180.433558 
L 272.709743 182.405743 
L 272.941805 181.340426 
L 273.173867 181.599865 
L 273.405929 182.12743 
L 273.637991 181.770713 
L 273.870053 180.087092 
L 274.102114 180.89109 
L 274.7983 179.076349 
L 275.030362 179.18277 
L 275.262424 178.556838 
L 275.494486 180.268537 
L 275.958609 172.569858 
L 276.190671 172.292746 
L 276.422733 175.678595 
L 276.886857 171.505763 
L 277.350981 173.18362 
L 277.583042 169.861723 
L 278.047166 174.20516 
L 278.279228 174.385311 
L 278.51129 174.158936 
L 278.743352 176.30598 
L 278.975414 174.781623 
L 279.207475 175.959687 
L 279.439537 178.261589 
L 279.671599 178.564586 
L 280.367785 184.368392 
L 280.599847 183.486657 
L 280.831909 183.495877 
L 281.06397 184.281777 
L 281.296032 184.252943 
L 281.528094 183.414398 
L 281.760156 184.337612 
L 281.992218 183.766007 
L 282.456342 181.644976 
L 282.688403 181.984553 
L 283.616651 175.931273 
L 283.848713 174.957478 
L 284.080775 173.178479 
L 284.312836 173.988251 
L 284.544898 173.312247 
L 284.77696 173.173132 
L 285.009022 174.281848 
L 285.241084 171.54792 
L 285.473146 173.201094 
L 285.705208 175.71974 
L 286.169331 176.644398 
L 286.401393 181.086179 
L 286.633455 181.270004 
L 286.865517 177.777921 
L 287.097579 179.102143 
L 287.329641 179.355927 
L 287.561703 179.883158 
L 287.793764 183.668552 
L 288.025826 184.33121 
L 288.257888 184.65646 
L 288.48995 184.298087 
L 288.722012 182.50213 
L 288.954074 184.450346 
L 289.186136 181.581629 
L 289.418197 183.374722 
L 289.650259 182.140915 
L 290.114383 181.223445 
L 290.346445 180.978252 
L 290.578507 181.828911 
L 290.810569 181.460623 
L 291.506754 174.217023 
L 291.738816 174.432902 
L 291.970878 175.830059 
L 292.20294 174.868609 
L 292.435002 175.117572 
L 292.667063 177.385518 
L 292.899125 174.264785 
L 293.131187 175.350682 
L 293.363249 178.147288 
L 293.595311 176.962783 
L 293.827373 178.199238 
L 294.291497 182.585602 
L 294.523558 179.789629 
L 294.75562 184.037779 
L 294.987682 182.988067 
L 295.219744 182.99362 
L 295.451806 186.054139 
L 295.683868 187.365205 
L 295.91593 186.27031 
L 296.147991 184.474043 
L 296.380053 185.085984 
L 296.612115 183.886763 
L 296.844177 181.789392 
L 297.076239 182.715337 
L 297.308301 182.83558 
L 297.540363 179.053005 
L 297.772424 179.805852 
L 298.004486 178.530439 
L 298.236548 178.589628 
L 298.46861 178.881775 
L 298.700672 175.846519 
L 298.932734 178.80249 
L 299.164796 170.579053 
L 299.396857 170.87803 
L 299.628919 172.67724 
L 299.860981 173.046766 
L 300.093043 174.226902 
L 300.325105 172.050805 
L 300.557167 172.388807 
L 300.789229 174.016284 
L 301.021291 176.446171 
L 301.485414 179.383992 
L 301.717476 176.967023 
L 301.949538 179.178875 
L 302.1816 179.071008 
L 302.413662 183.437983 
L 302.645724 182.577809 
L 302.877785 188.000893 
L 303.109847 182.663944 
L 303.341909 182.748704 
L 303.573971 187.877223 
L 303.806033 185.817715 
L 304.038095 181.662715 
L 304.270157 182.348048 
L 304.502218 182.679308 
L 304.73428 182.582572 
L 304.966342 181.157475 
L 305.198404 180.495778 
L 305.430466 179.414611 
L 305.662528 180.562044 
L 305.89459 178.818955 
L 306.126652 178.634852 
L 306.358713 178.087349 
L 306.590775 175.113149 
L 306.822837 170.535128 
L 307.054899 171.498835 
L 307.286961 173.331952 
L 307.751085 172.351587 
L 307.983146 173.104519 
L 308.215208 175.469846 
L 308.44727 171.35272 
L 308.911394 175.296316 
L 309.143456 178.281716 
L 309.375518 178.943454 
L 309.607579 182.78636 
L 309.839641 181.87846 
L 310.303765 181.15027 
L 310.535827 182.622436 
L 310.767889 182.637565 
L 310.999951 185.477201 
L 311.232012 183.274994 
L 311.464074 184.280196 
L 311.696136 181.024399 
L 311.928198 181.721318 
L 312.16026 181.401565 
L 312.392322 181.541997 
L 312.624384 182.416449 
L 312.856446 178.445598 
L 313.088507 176.938571 
L 313.552631 178.955684 
L 313.784693 176.285015 
L 314.016755 176.889866 
L 314.248817 175.174576 
L 314.480879 172.231433 
L 314.71294 172.363643 
L 314.945002 176.624764 
L 315.177064 170.88124 
L 315.409126 173.858974 
L 315.641188 172.873597 
L 315.87325 176.43111 
L 316.105312 171.292406 
L 316.337373 173.060394 
L 316.569435 176.533213 
L 316.801497 177.121625 
L 317.033559 179.121922 
L 317.265621 179.813141 
L 317.497683 179.481426 
L 317.729745 181.722461 
L 317.961806 182.350733 
L 318.193868 181.367982 
L 318.42593 185.162829 
L 318.657992 183.396112 
L 318.890054 182.841015 
L 319.122116 185.603874 
L 319.354178 182.389615 
L 319.58624 182.6006 
L 319.818301 181.116887 
L 320.282425 181.273832 
L 320.514487 180.150045 
L 320.746549 180.756002 
L 321.442734 177.813684 
L 321.674796 179.172742 
L 322.370982 170.824876 
L 322.603044 171.843155 
L 322.835106 175.066817 
L 323.067167 175.355142 
L 323.299229 174.453787 
L 323.531291 171.582769 
L 324.227477 177.527134 
L 324.459539 178.717525 
L 324.6916 178.826105 
L 324.923662 179.628238 
L 325.387786 183.240363 
L 325.619848 182.825145 
L 325.85191 179.036464 
L 326.083972 182.026917 
L 326.316034 179.751043 
L 326.548095 182.677584 
L 326.780157 178.575338 
L 327.012219 179.044995 
L 327.244281 178.884258 
L 327.476343 179.289247 
L 327.940467 179.272063 
L 328.172528 180.070382 
L 328.636652 176.467283 
L 328.868714 178.751287 
L 329.100776 176.024915 
L 329.5649 177.490422 
L 329.796961 176.06091 
L 330.029023 171.943177 
L 330.261085 172.253254 
L 330.493147 174.592751 
L 330.725209 173.695652 
L 330.957271 174.363771 
L 331.189333 173.491895 
L 331.885518 176.984477 
L 332.11758 176.663266 
L 332.349642 179.850347 
L 332.581704 179.129368 
L 332.813766 183.239436 
L 333.045828 182.921604 
L 333.277889 181.839587 
L 333.509951 182.427427 
L 333.974075 178.788138 
L 334.206137 179.945535 
L 334.438199 181.920344 
L 334.670261 179.80853 
L 334.902322 179.03373 
L 335.134384 177.422271 
L 335.366446 177.552151 
L 335.598508 176.521329 
L 336.062632 177.556264 
L 336.294694 175.579438 
L 336.526755 174.806938 
L 336.758817 175.336398 
L 336.990879 173.827923 
L 337.222941 173.974441 
L 337.455003 176.694496 
L 337.687065 169.608185 
L 338.38325 174.627906 
L 338.615312 175.194875 
L 338.847374 172.668876 
L 339.311498 176.039418 
L 339.54356 179.7659 
L 339.775622 179.11696 
L 340.007683 181.349971 
L 340.239745 179.326067 
L 340.471807 180.276279 
L 340.703869 185.805861 
L 340.935931 182.559682 
L 341.167993 181.651277 
L 341.400055 179.458083 
L 341.632116 183.364434 
L 341.864178 181.045358 
L 342.09624 181.520349 
L 342.328302 182.287348 
L 342.560364 181.919622 
L 342.792426 182.321101 
L 343.024488 185.015473 
L 343.256549 180.141601 
L 343.488611 180.84826 
L 343.720673 178.115548 
L 343.952735 178.200088 
L 344.184797 179.106573 
L 344.416859 176.810087 
L 344.880983 175.086665 
L 345.113044 175.307741 
L 345.345106 173.081857 
L 345.577168 173.391186 
L 345.80923 175.195507 
L 346.041292 173.615109 
L 346.273354 175.417588 
L 346.505416 172.238449 
L 346.737477 172.357397 
L 347.201601 175.211237 
L 347.433663 178.660709 
L 347.665725 179.633169 
L 347.897787 179.4909 
L 348.129849 183.007573 
L 348.36191 179.885992 
L 348.826034 184.155451 
L 349.058096 182.001368 
L 349.290158 183.519343 
L 349.52222 182.081946 
L 349.754282 182.247552 
L 349.986343 183.627004 
L 350.218405 187.023162 
L 350.450467 182.251432 
L 350.682529 182.76079 
L 350.914591 182.125678 
L 351.378715 176.678389 
L 351.610777 178.958082 
L 351.842838 176.970492 
L 352.0749 177.282183 
L 352.306962 175.078217 
L 352.539024 177.245887 
L 353.003148 171.17975 
L 353.23521 172.468537 
L 353.467271 174.800867 
L 353.699333 175.610246 
L 353.931395 174.077131 
L 354.163457 175.900748 
L 354.395519 176.261282 
L 354.859643 179.523551 
L 355.091704 181.365658 
L 355.323766 181.349038 
L 355.78789 185.574825 
L 356.019952 184.601932 
L 356.252014 187.175775 
L 356.484076 186.731089 
L 356.716138 184.902141 
L 356.948199 185.749589 
L 357.180261 185.961478 
L 357.412323 183.124327 
L 357.644385 183.388962 
L 357.876447 184.941134 
L 358.108509 181.298257 
L 358.340571 184.973402 
L 358.572632 180.258334 
L 358.804694 179.505427 
L 359.036756 176.414955 
L 359.268818 177.99223 
L 359.50088 175.854228 
L 360.197065 175.326077 
L 360.429127 173.499763 
L 360.661189 170.202921 
L 360.893251 170.249456 
L 361.125313 171.45645 
L 361.357375 175.322797 
L 361.821498 175.228198 
L 362.05356 175.995799 
L 362.285622 173.981394 
L 362.517684 176.863733 
L 362.749746 181.643539 
L 362.981808 177.761482 
L 363.21387 179.883048 
L 363.677993 182.122836 
L 363.910055 187.40245 
L 364.142117 184.402346 
L 364.374179 184.330917 
L 364.606241 183.556978 
L 364.838303 186.06136 
L 365.070365 187.095557 
L 365.534488 184.273876 
L 365.76655 184.543356 
L 365.998612 182.745068 
L 366.230674 183.089245 
L 366.462736 182.085414 
L 366.694798 180.094381 
L 366.926859 180.016353 
L 367.623045 176.301972 
L 367.855107 176.593192 
L 368.087169 172.627604 
L 368.551292 171.934403 
L 368.783354 172.485167 
L 369.015416 177.269051 
L 369.247478 175.722292 
L 369.47954 176.804494 
L 369.711602 174.27498 
L 369.943664 174.191737 
L 370.175726 175.98361 
L 370.407787 176.740727 
L 370.639849 178.483903 
L 370.871911 179.141723 
L 371.103973 182.387072 
L 371.336035 181.644143 
L 371.568097 185.060563 
L 372.03222 183.634898 
L 372.496344 186.682559 
L 372.960468 180.957621 
L 373.424592 182.591748 
L 373.656653 179.953754 
L 373.888715 179.586119 
L 374.120777 178.465615 
L 374.352839 178.20655 
L 374.584901 177.047883 
L 374.816963 177.434156 
L 375.049025 177.006778 
L 375.281086 177.10806 
L 375.513148 175.492954 
L 375.74521 177.947218 
L 376.209334 171.900845 
L 376.441396 172.040141 
L 376.90552 174.469699 
L 377.137581 175.158203 
L 377.369643 176.945453 
L 377.601705 177.644936 
L 377.833767 179.455598 
L 378.297891 183.783766 
L 378.529953 180.818404 
L 378.762014 182.154632 
L 378.994076 181.830215 
L 379.226138 185.564647 
L 379.4582 183.683854 
L 379.690262 183.996621 
L 379.922324 186.107627 
L 380.154386 183.789206 
L 380.386447 183.511666 
L 380.850571 181.856934 
L 381.082633 179.703349 
L 381.314695 181.118168 
L 381.546757 180.354881 
L 381.778819 178.467592 
L 382.01088 178.282857 
L 382.242942 176.030286 
L 382.475004 175.585992 
L 382.707066 177.016042 
L 382.939128 175.06491 
L 383.17119 177.095939 
L 383.403252 173.370339 
L 383.635314 173.067797 
L 383.867375 172.550653 
L 384.099437 172.844809 
L 384.795623 175.07709 
L 385.491808 178.678971 
L 385.955932 183.459238 
L 386.420056 185.469196 
L 386.652118 184.132724 
L 386.88418 188.32594 
L 387.116241 184.853171 
L 387.348303 185.155844 
L 387.580365 182.338157 
L 387.812427 183.333533 
L 388.044489 182.747608 
L 388.276551 183.813384 
L 388.508613 182.751462 
L 388.740675 180.925596 
L 388.972736 181.334978 
L 389.668922 178.974347 
L 389.900984 176.654387 
L 390.133046 177.473674 
L 390.365108 174.391649 
L 390.829231 176.167962 
L 391.525417 171.577812 
L 391.757479 171.533609 
L 391.989541 171.81677 
L 393.14985 177.132503 
L 393.381912 182.443321 
L 393.613974 181.510521 
L 393.846035 181.895377 
L 394.078097 185.449034 
L 394.310159 184.088652 
L 394.542221 187.318852 
L 394.774283 184.786485 
L 395.006345 185.198718 
L 395.238407 184.544336 
L 395.470469 184.998414 
L 395.70253 186.203795 
L 395.934592 182.088255 
L 396.166654 183.196533 
L 396.398716 185.513647 
L 396.86284 181.947459 
L 397.094902 181.180908 
L 397.326963 181.443601 
L 397.559025 179.514618 
L 397.791087 178.789065 
L 398.023149 178.672317 
L 398.255211 178.845994 
L 398.487273 177.440623 
L 398.487273 177.440623 
" style="fill:none;stroke:#ff7f0e;stroke-linecap:square;stroke-width:1.5;"/>
   </g>
   <g id="patch_3">
    <path d="M 57.6 307.584 
L 57.6 41.472 
" style="fill:none;stroke:#000000;stroke-linecap:square;stroke-linejoin:miter;stroke-width:0.8;"/>
   </g>
   <g id="patch_4">
    <path d="M 414.72 307.584 
L 414.72 41.472 
" style="fill:none;stroke:#000000;stroke-linecap:square;stroke-linejoin:miter;stroke-width:0.8;"/>
   </g>
   <g id="patch_5">
    <path d="M 57.6 307.584 
L 414.72 307.584 
" style="fill:none;stroke:#000000;stroke-linecap:square;stroke-linejoin:miter;stroke-width:0.8;"/>
   </g>
   <g id="patch_6">
    <path d="M 57.6 41.472 
L 414.72 41.472 
" style="fill:none;stroke:#000000;stroke-linecap:square;stroke-linejoin:miter;stroke-width:0.8;"/>
   </g>
  </g>
 </g>
 <defs>
  <clipPath id="p002eac33c2">
   <rect height="266.112" width="357.12" x="57.6" y="41.472"/>
  </clipPath>
 </defs>
</svg>
